<?xml version="1.0" encoding="UTF-8"?>
<svg xmlns="http://www.w3.org/2000/svg" xmlns:xlink="http://www.w3.org/1999/xlink" viewBox="0 0 1334 1000">
  <defs>
    <style>
      .cls-1, .cls-2, .cls-3, .cls-4, .cls-5 {
        fill: none;
      }

      .cls-6 {
        fill: #a99231;
      }

      .cls-7 {
        fill: #e79731;
      }

      .cls-8 {
        fill: #622515;
      }

      .cls-9 {
        fill: #13110f;
      }

      .cls-10 {
        fill: #273339;
      }

      .cls-11 {
        fill: #5e5f5f;
      }

      .cls-12 {
        fill: #010101;
      }

      .cls-13 {
        fill: #962476;
      }

      .cls-14 {
        fill: #653c29;
      }

      .cls-15 {
        fill: #231f20;
      }

      .cls-16 {
        fill: #ababab;
      }

      .cls-17 {
        fill: #6c256d;
      }

      .cls-18 {
        fill: #9b3f97;
      }

      .cls-19 {
        fill: #715446;
      }

      .cls-20 {
        fill: #f1edf6;
      }

      .cls-21 {
        fill: #709199;
      }

      .cls-22 {
        fill: #ecbf2c;
      }

      .cls-23 {
        fill: #f1eef7;
      }

      .cls-2, .cls-3, .cls-4, .cls-5 {
        stroke-miterlimit: 10;
        stroke-width: .75px;
      }

      .cls-2, .cls-4, .cls-5 {
        stroke: #9b3f97;
      }

      .cls-24 {
        fill: #4d2f15;
      }

      .cls-25 {
        fill: #ad722a;
      }

      .cls-26 {
        fill: #643c2a;
      }

      .cls-27 {
        fill: #c561a5;
      }

      .cls-28 {
        fill: #a66e53;
      }

      .cls-29 {
        clip-path: url(#clippath-1);
      }

      .cls-30 {
        clip-path: url(#clippath-2);
      }

      .cls-31 {
        fill: url(#linear-gradient);
        opacity: .5;
      }

      .cls-32 {
        fill: #4454a5;
      }

      .cls-33 {
        fill: #0f0a09;
      }

      .cls-3 {
        stroke: #010101;
      }

      .cls-34 {
        fill: #6a5a9c;
      }

      .cls-35 {
        fill: #db5434;
      }

      .cls-36 {
        fill: #1b120c;
      }

      .cls-37 {
        fill: #070505;
      }

      .cls-38 {
        fill: #d67d28;
      }

      .cls-4 {
        stroke-dasharray: 6.35 6.35;
      }

      .cls-39 {
        fill: #aa6333;
      }

      .cls-40 {
        fill: #513835;
      }

      .cls-41 {
        fill: #2d4a4f;
      }

      .cls-42 {
        fill: #eae536;
      }

      .cls-43 {
        fill: #ccb631;
      }

      .cls-44 {
        fill: #9b5524;
      }

      .cls-45 {
        fill: #f2ebd1;
      }

      .cls-5 {
        stroke-dasharray: 6.26 6.26;
      }

      .cls-46 {
        fill: #c69bbd;
      }

      .cls-47 {
        fill: #154e51;
      }

      .cls-48 {
        fill: #706027;
      }

      .cls-49 {
        fill: #a53b23;
      }

      .cls-50 {
        fill: #a38166;
      }

      .cls-51 {
        fill: #e1b9d7;
      }

      .cls-52 {
        fill: #d8aa29;
      }

      .cls-53 {
        fill: #de8ebc;
      }

      .cls-54 {
        fill: #87654d;
      }

      .cls-55 {
        clip-path: url(#clippath);
      }

      .cls-56 {
        fill: #4f2e25;
      }

      .cls-57 {
        fill: #9b8fc1;
      }
    </style>
    <linearGradient id="linear-gradient" x1="-6292.47" y1="8601.52" x2="-5318.18" y2="8601.52" gradientTransform="translate(-7933.63 6212.6) rotate(90) scale(1 -1)" gradientUnits="userSpaceOnUse">
      <stop offset="0" stop-color="#f0ebe0"/>
      <stop offset=".18" stop-color="#eee8dd" stop-opacity=".99"/>
      <stop offset=".33" stop-color="#e8e1d4" stop-opacity=".97"/>
      <stop offset=".46" stop-color="#ded4c5" stop-opacity=".93"/>
      <stop offset=".59" stop-color="#d0c2b0" stop-opacity=".88"/>
      <stop offset=".72" stop-color="#bdab95" stop-opacity=".82"/>
      <stop offset=".84" stop-color="#a78e73" stop-opacity=".73"/>
      <stop offset=".96" stop-color="#8d6d4d" stop-opacity=".64"/>
      <stop offset="1" stop-color="#83603d" stop-opacity=".6"/>
    </linearGradient>
    <clipPath id="clippath">
      <path class="cls-1" d="M1015.83,308.21c5.87,38.05,7.83,76.34,5.85,114.31-15.71,1.4-31.68,1.47-47.59.21-10.27-38.76-13.1-78.52-8.35-117.31"/>
    </clipPath>
    <clipPath id="clippath-1">
      <path class="cls-1" d="M1057.54,219.39s-13.19,125.89-82.71,105.52c-69.52-20.37-50.97-64.31-50.97-64.31,0,0-.95-14.57,32.73-13.91,0,0-9.24,32,24.22,27.34,40.37-5.63,34.09-54.63,31.4-75.81-3.39-26.73,47.47,15.48,45.34,21.18Z"/>
    </clipPath>
    <clipPath id="clippath-2">
      <path class="cls-1" d="M951.28,270.26c-8.72,4.96-14.08,14.24-17.8,23.56-18.97,47.49-8.12,102.08-18.77,151.56,12.69,5.06,41.52,11.69,54.9,8.92,5.31-1.1-.75-2.26,2.51-6.59,3.79-5.04.51-18.09.33-24.39-1.49-53.06,11.42-106.47,36.99-152.99-3.15-1.75-6.93-1.83-10.53-1.86-16.09-.13-32.17-.26-48.26-.39"/>
    </clipPath>
  </defs>
  <g id="Layer_1" data-name="Layer 1">
    <polyline class="cls-45" points="1371.4 1036.84 1371.4 -56.02 -35.63 -56.02 -35.63 1036.84"/>
    <polyline class="cls-31" points="1371.4 891.2 -35.63 891.2 -35.64 -83.1 1371.4 -83.1"/>
    <path class="cls-56" d="M554.21,501.66c6.41-1.1,12.73-2.72,18.88-4.83,6.3-1.61,12.45-3.72,18.41-6.32-6.41,1.09-12.72,2.69-18.86,4.81-6.3,1.61-12.47,3.73-18.43,6.34Z"/>
    <path class="cls-56" d="M553.26,492.56c.18.39,8.09-2.7,18.06-5.86,9.97-3.16,18.2-5.29,18.11-5.74-6.35.62-12.59,2.03-18.59,4.21-6.15,1.69-12.06,4.18-17.58,7.4Z"/>
    <path class="cls-28" d="M602.72,330.07l-22.65-2.81s16.52,51.86,19.71,69.25c.73,4-18.33,45.88-21.51,66.19,3.12.66,8.2.99,11.37,1.4,8.02,1.03,16.1,1.95,24.19,2.25,3.09.12,3.31.45,6.42.31l13.28-66.87c-2.75-27.88-30.8-69.73-30.8-69.73Z"/>
    <path class="cls-57" d="M581.83,442.24c-.36,2.07-.76,4.57-1.58,6.42-2.58,5.86-9.46,13.7-14.96,17.65-3.05,5.17-1.42,6.97-1.42,6.97l30.55,89.94,3.39-29.94c-.33-4.33,6.34-27.45,7.84-31.53l20.99-47.38s-32.63-23.9-44.8-12.13Z"/>
    <path class="cls-28" d="M538.46,294l13.96,18.64,1.56,4.24s8.83,8.81,10.9,10.42c2.07,1.61,15.31,6.53,15.31,6.53l5.76,13.16,18.58-12.81s-5.96-11.01-6.1-13.04c-.73-2.61-2.23-4.94-4.29-6.69-1.79-1.7-11.94-12.46-11.94-12.46,0,0-7.91-16.68-10.75-13.97-.62.76-1.16,1.58-1.61,2.45,0,0,5.49,10.58,4.77,11.92l-2.23,1.07s-10.76-12.7-13.12-14.58c-2.36-1.88-4.45-2.57-6.05-.85,0,0-.4,1.82.14,2.38s12.85,14.29,12,14.92c-.84.63-1.91-.68-1.91-.68,0,0-14.56-17.05-15.81-17.56-1.56-.8-3.48-.29-4.43,1.19l7.31,10.43s-7.1-7.4-9.53-7.02c-1.26.1-2.3,1.04-2.53,2.29Z"/>
    <path class="cls-56" d="M581.88,317.6c-2.51-2.16-5.69-3.97-9.04-4.22-2.9-.22-5.89.13-8.74.67l.77.12c-1.11-1.21-2.68-2.54-3.22-3.83-1.16-2.76-2.48-5.35-4.57-7.52-1.02-1.07-2.24-1.97-3.74-2.18-.99-.14-3.03-.11-3.63.92-.25.43,0,1.03.1,1.5.23,1.15.45,2.3.68,3.45.41,2.1.83,4.21,1.24,6.31.11.57,1.53.21,1.42-.38-.5-2.57-1.01-5.15-1.51-7.72-.2-1.03-.54-2.12-.62-3.17.03.4-.03.13.17.1.74-.1,1.34-.22,2.07,0,1.14.34,2.04,1.21,2.82,2.06,1.49,1.64,2.56,3.44,3.48,5.45.42.92.69,1.94,1.37,2.69l1.7,1.86c.29.32.64.9,1.03,1.1.44.23.62.05.97,0,.77-.13,1.55-.24,2.33-.33,2.39-.28,5.05-.57,7.39.14s4.46,2.02,6.23,3.55c.42.37,1.76-.2,1.31-.59h0Z"/>
    <path class="cls-56" d="M567.1,307.98c3.23-2.98,8-5.2,12.48-5.13.3,0,.79-.09.93-.41.13-.3-.11-.5-.41-.5-3.5-.06-6.87,1.02-9.9,2.72-1.51.84-2.99,1.83-4.27,3-.24.22-.12.5.16.59.33.11.76-.04,1-.27h0Z"/>
    <path class="cls-28" d="M446.55,297.46l-3.27,23.26.68,4.51s-3.52,12.08-4.56,14.51-10.35,13.22-10.35,13.22l1.32,14.44-22.65-2.28s-.09-12.63-.95-14.49c-.62-2.66-.43-5.45.54-8,.75-2.37,4.49-16.82,4.49-16.82,0,0-1.12-18.59,2.7-17.58.92.36,1.8.83,2.61,1.38,0,0,.3,12.02,1.58,12.86l2.49-.14s3.33-16.46,4.5-19.27c1.17-2.81,2.68-4.44,4.93-3.69,0,0,1.24,1.42,1.03,2.18s-4.4,18.88-3.35,19.03,1.36-1.53,1.36-1.53c0,0,4.57-22.15,5.43-23.21.99-1.47,2.93-1.95,4.49-1.11l-1.39,12.78s2.67-10,5-10.84c1.17-.53,2.54-.2,3.35.79Z"/>
    <path class="cls-56" d="M421.1,339.29c.66-1.76,1.62-3.45,2.74-4.95,1.53-2.03,3.6-3.23,5.88-4.27,1.35-.62,2.77-1.06,4.13-1.64,1.04-.44,1.03-2.13,1.27-3.12.27-1.11.41-1.8.3-2.92-.21-2.13-.39-4.32.02-6.43s.85-4.4,2.89-5.39c.2-.1.68-.14.84-.22.19-.09.29.35-.01-.14.04.06.08.2.09.27.03.49.35,1.11.5,1.57.94,2.95,1.88,5.89,2.83,8.84.16.51,1.59.11,1.43-.38-.57-1.78-1.14-3.56-1.71-5.34-.38-1.19-.76-2.39-1.15-3.58-.15-.46-.25-1.37-.56-1.76-.65-.81-2.4-.08-3.1.26-1.29.64-2.16,1.72-2.69,3.04-1.17,2.91-1.12,6.1-.85,9.17.1,1.11.16,1.45-.07,2.43-.28,1.14-.55,2.28-.83,3.42l.62-.45c-2.79.92-5.63,2.07-8.1,3.69-2.81,1.85-4.73,4.96-5.9,8.07-.18.48,1.25.31,1.43-.17h0Z"/>
    <path class="cls-56" d="M428.91,322.92c-4.98-1.23-10.84-.68-15.3,1.87-.23.13-.38.39-.12.57s.77,0,1.01-.13c3.94-2.25,9.16-2.6,13.53-1.52.47.12,1.68-.59.87-.79h0Z"/>
    <polyline class="cls-19" points="-51.13 1109.81 1423.95 1109.81 1423.95 861.54 -51.13 861.54"/>
    <polygon class="cls-47" points="1463.33 1104.26 -89.33 1104.26 -31.68 908.6 1405.68 908.6 1463.33 1104.26"/>
    <path class="cls-50" d="M1108.16,653.86c38.65,0,77.29-4.01,115.94-4.17,8.39-.04,6.07-6.47,6.73,0,1.68,16.68,4.06,34.71-25.02,32.93-2.21-.14,5.52,8.17,3.35,7.9-10.12-1.22-11.69,2.4-10.35,8.81,4.32,20.73,8.27,36.59,12.23,57.36,9.32,48.85,18.71,97.7,27.74,146.58,2.49,13.48,1.96,13.36-17.43,13.11-5.99-.08-8.51-1.41-9.34-5.89-8.91-48.08-18.17-96.12-27.01-144.2-1.03-5.61-3.44-7.8-11.71-7.74-43.1.31-86.21.31-129.32,0-8.49-.06-11.39,1.82-12.52,8.02-8.34,45.66-17.1,91.27-25.99,136.87-2.61,13.39-2.99,13.06-21.82,12.86-7.54-.08-8.4-2.01-7.45-6.88,13.93-71.48,27.55-138.07,41.51-209.55,1.43-7.33-.76-10.83-11.67-9.55-3.62.42-7.42.07-11.13.07-16.49-.03-19.74-7.44-19.76-20.06-.02-13.73,3-20.42,19.3-20.43,37.9-.02,75.81,0,113.71,0,0-.04,0,0,0,3.99ZM1171.42,742.29c8.35.16,10.07-2,8.9-7.59-3.39-16.14-6.44-20.71-9.31-36.91-.95-5.37-3.29-7.72-11.76-7.61-34.13.46-68.29.4-102.43.03-7.81-.09-10.22,2.06-11.12,7.13-2.99,16.73-6.15,21.84-9.61,38.52-1.12,5.4,1.82,6.45,8.41,6.38,21.52-.23,43.05-.09,64.58-.09,20.78,0,41.58-.27,62.35.13Z"/>
    <path class="cls-54" d="M1235.98,663.87s-118.23,21.6-171.46,14.72c-53.23-6.88-89.1-12.74-86.95-20.98,2.16-8.24,39.83-25.92,77.77-27.17,37.93-1.25,141.92,8.29,141.92,8.29,0,0,35.91,5.87,39.57,10.95,3.66,5.08-.85,14.19-.85,14.19Z"/>
    <path class="cls-50" d="M1027.45,696.22s116.63,4.71,164.56-2.57c47.93-7.28,45.65-12.37,45.65-12.37l.18-28.62s-37.69,15.64-124.13,14.72c-47.97-.51-83.03-1.01-83.03-1.01l-3.24,29.84Z"/>
  </g>
  <g id="Layer_2" data-name="Layer 2">
    <path class="cls-43" d="M948.53,507.57c2.33-1.92,4.75-3.35,7.42-4.77,5.23-2.79,10.24-4.73,15.95-6.17,5.97-1.5,12.01-2.7,18.06-3.8,4.01-.73,8.02-1.4,12.04-2.01,13.05-17.01-.91-37.74-.91-37.74,0,0-50.87,13.39-62.91,9.09-8.04-2.87-16.41-11.64-24.25-14.98l-66.81,10.32c-6.17.33-33.61,2.61-32.9,4.71,3.86,8.54,2.96,24-.04,33.12l-.96,2.24c.48,2.87,29.32,5.22,34.93,5.64,23.24,1.76,78.34,8.27,93.62,9.15,2.63-.75,4.68-3.11,6.75-4.81Z"/>
    <path class="cls-28" d="M901.38,873.46l-47.43,34.91c-3.3,3.81,52.66,24.42,96.65-28.97l-7.92-13.05-41.3,7.11Z"/>
    <g>
      <path class="cls-24" d="M820.03,936.71s-3.79-6.46,1.3-9.42c5.09-2.96,31.84-21.57,34.85-21.48.28,2.09,3.37,4.42,9.9,5.32,6.53.9,13.82,2.19,29.31-3.38,11.61-4.17,35.57-12.21,45.4-20.21,3.28-2.68,7.41-10.58,7.47-11.66,14.88,12.42,13.48,28.29,8.32,32.96-5.16,4.67-38.76,12.52-38.76,12.52l-28.97,11.9-28.18,5.79-11.99,1.61-14.65.13-14-4.08Z"/>
      <path class="cls-36" d="M957.83,907.14c-3.5,1.86-15.05,5.72-25.18,7.52-27.2,4.84-35.8,9.76-44.61,14.02-4.43,2.15-9.07,4.42-15.56,6.55-31,10.4-51.42,1.77-52.15,1.4-.38.49-.52.97-.61,1.68.35.22,3.16,2.18,7.27,3.3,9.62,2.62,23.19,5.24,47.28-2.32,6.83-2.14,10.95-3.3,15.35-5.43,6.6-3.19,13.38-6.48,28.54-10l.67,4.64s29.12-3.46,41.28-11.15c-.17-7.26-2.28-10.22-2.28-10.22Z"/>
      <path class="cls-36" d="M959.75,913.17c-16.66,7.21-35.52,10.3-41.52,11.27l.59,4.08s29.12-3.46,41.28-11.15c-.04-1.61-.17-2.99-.36-4.19Z"/>
    </g>
    <path class="cls-28" d="M939.13,876.66l-47.43,34.91c-3.3,3.81,52.66,24.42,96.65-28.97l-7.92-13.05-41.3,7.11Z"/>
    <g>
      <path class="cls-24" d="M857.77,939.9s-3.79-6.46,1.3-9.42c5.09-2.96,31.84-21.57,34.85-21.48.28,2.09,3.37,4.42,9.9,5.32,6.53.9,13.82,2.19,29.31-3.38,11.61-4.17,35.57-12.21,45.4-20.21,3.28-2.68,7.41-10.58,7.47-11.66,14.88,12.42,13.48,28.29,8.32,32.96-5.16,4.67-38.76,12.52-38.76,12.52l-28.97,11.9-28.18,5.79-11.99,1.61-14.65.13-14-4.08Z"/>
      <path class="cls-36" d="M995.57,910.34c-3.5,1.86-15.05,5.72-25.18,7.52-27.2,4.84-35.8,9.76-44.61,14.02-4.43,2.15-9.07,4.42-15.56,6.55-31,10.4-51.42,1.77-52.15,1.4-.38.49-.52.97-.61,1.68.35.22,3.16,2.18,7.27,3.3,9.62,2.62,23.19,5.24,47.28-2.32,6.83-2.14,10.95-3.3,15.35-5.43,6.6-3.19,13.38-6.48,28.54-10l.67,4.64s29.12-3.46,41.28-11.15c-.17-7.26-2.28-10.22-2.28-10.22Z"/>
      <path class="cls-36" d="M997.49,916.36c-16.66,7.21-35.52,10.3-41.52,11.27l.59,4.08s29.12-3.46,41.28-11.15c-.04-1.61-.17-2.99-.36-4.19Z"/>
    </g>
    <path class="cls-56" d="M859.3,939.32c-1.03-1.07-1.82-2.53-2.01-4.01-.15-1.15.14-2.3.83-3.23.19-.25.15-.19.49-.49,1.65-1.47,3.58-2.64,5.43-3.83,6.56-4.22,13.31-8.15,20.02-12.13s13.02-7.65,19.31-11.82c6.31-4.18,12.19-9.05,18.12-13.73,5.2-4.1,10.38-8.23,15.53-12.4.14-.11.33-.35.27-.55-1.73-5.45-3.46-10.9-5.19-16.35-.28-.88-2.91-.15-2.64.71,1.73,5.45,3.46,10.9,5.19,16.35l.27-.55c-4.41,3.56-8.83,7.1-13.28,10.62-6.26,4.96-12.46,10.16-19.09,14.63-12.83,8.67-26.63,15.86-39.67,24.2-2.2,1.41-4.58,2.8-6.51,4.59-2.72,2.53-1.9,6.52.48,9,.61.64,3.12-.33,2.46-1.02h0Z"/>
    <path class="cls-15" d="M859.07,939.41c-1.78-2.44-2.66-6.49-.49-8.8,1.61-1.71,4.01-2.86,6.02-4,7.23-4.09,14.74-7.68,22.06-11.59,3.8-2.03,7.61-4.11,11.19-6.52,1.53-1.03-.84-1.33-1.69-.76-7.06,4.77-14.86,8.47-22.42,12.37-3.71,1.91-7.42,3.81-11.05,5.87-2.17,1.23-4.61,2.5-6.38,4.3-2.76,2.82-1.93,7.25.21,10.18.52.72,3.18-.2,2.55-1.06h0Z"/>
    <path class="cls-6" d="M1189.57,466.33s62.46,93.69,25.86,156.46c-17.44,29.89-69.62,29.87-69.62,29.87l-53.53-60.95-16.31-123.83,113.6-1.54Z"/>
    <path class="cls-6" d="M874.71,608.22c-.44-4.62-1.14-9.21-2.04-13.75-2.03-10.26-5.1-20.32-8.9-30.1-3.91-10.05,5.57,9.32,0,0-3.78-6.33,9.63-28.24,5.01-34.07,46.35-36.52,173.81-73.41,173.81-73.41,0,0,200.28,91.14,177.69,151.19-29.93,79.59-259.23,50.76-335.64,26.03-.37-.12-6.81,10.58-9.93-25.89Z"/>
    <path class="cls-43" d="M903.79,333.88c.02,9.01.38,17.98,1.01,26.97.66,9.34,1.73,18.66,3.91,27.77,1.86,7.76,5.4,14.52,10.03,21,4.33,6.05,11.19,10.36,14.9,16.82,3.58,6.24,8.88,24.86,8.88,24.86,2.79,10.74-6.03,25.84-5.22,42.86,9.05-1.34,29.55-.79,38.67-1.46,12.02-.89,21.32.06,33.36-.62,11.9-.67,23.81-1.65,35.54-3.84,5.91-1.1,11.77-2.51,17.51-4.32,5.67-1.79,11.18-4.04,16.84-5.89,10.47-3.42,21.22-5.76,32.22-6.49,5.31-.35,10.64-.26,15.96-.35,5.04-.09,10.08-.22,15.12-.3,10.47-.16,20.98-.09,31.4,1.09,7.15.81,14.3,2.14,21.11,4.49-9.15-18.43-53.29-90.68-53.29-90.68,0,0,13.38-138.44-40.07-159.03-8.49-3.27-60.04-19.08-77.46-20.61,0,0-8.83,36.35-42.99,43.64-34.16,7.29-25.56-14.87-25.56-14.87l-39.23,32.46c-2.11,1.85-7.09,7.48-9.03,9.48,1.97,12.47-4.04,18.33-3.79,30.92.18,8.69.15,17.39.17,26.09Z"/>
    <path class="cls-43" d="M956.04,232.86s-47.87,40.11-57.78,55.63c-12.67,19.84-4.04,76.36-5.4,96.23-1.5,22.02-1.2,92.68-1.2,92.68l79.51-2,12.27-79.05-24.73-158.45-2.67-5.04Z"/>
    <path class="cls-11" d="M997.07,73.76c-6.08-4.76-13.95-6.8-20.43-2.78-3.82-13.88-19.62-18.02-33.52-14.27-7.05,2.24-13.37,7.61-20.76,7.27-4.61-.21-8.74-2.53-13.12-4.19-18.24-6.6-37.83,13.27-46.42,30.67-8.59,17.4-.9,31.64,10.78,47.12,5.43,7.2,6.26,11.75,9.77,20.12,3.31,7.9,12.79,21.59,15.3,29.66,2.52,8.08-7.61,20.35.77,18.54l85.89-37.15c14.01-1.35,21.26-7.88,24.54-21.57,2.04-9.24.46-9.17-1.66-18.37-2.48-12.12,6.86-24.59,2.61-36.21-2.44-7.37-7.95-13.68-13.75-18.83Z"/>
    <path class="cls-49" d="M1007.98,69.96s-35.36-6.04-73.76,10.25c-38.4,16.29-50.5,46.44-52.21,65.97-1.71,19.53,11.18,35.66,11.18,35.66,0,0-9.12,5.67-26.43-28.09-25.22-49.21,18.6-96.57,31.5-100.24,12.9-3.67,74.59-36.62,109.71,16.46Z"/>
    <path class="cls-28" d="M1003.99,166.56s.11,29.81,22.09,50.52c2.49,2.34,25.75,10.64,25.75,10.64l-26.32,18.01c-14.98,8.58-49.36,41.45-66.6,40.56l-16.54-22.06s14.56-13.52,14.22-17.54c-.34-4.01-11.88-31.7-11.88-31.7"/>
    <path class="cls-56" d="M954.98,241.42s6.29-3.12,10.46-5.8c4.17-2.68,12.07-4.81,27.5-29.51,0,0,.71,24.32-24.66,37.36,0,0-6.49,3.58-11.39,3.87l-1.9-5.93Z"/>
    <path class="cls-28" d="M889.47,112.05c-.02.18-.06.38-.12.56.07-.11.15-.21.22-.32l-.1-.24ZM878.85,119.51l.08.2c.13-.22.25-.45.35-.67-.1-.24-.43.46-.43.46ZM1001.82,176.41l-.2-4.64c8.18,5.43,15.12-3.74,11.79-14.49.95-6.33-1.58-25.31-7.9-29.17l-.82-.6c-3.92-1.25-9.74-.3-10.55,4.58-.1,2.04,1.33,4.02,1.22,6.05,0,2.28-3.69-2.12-4.32.13,0,0-3.16-.22-4.79-4.97-1.63-4.75-4.32-43.01-15.26-46.24,0,0-12.38,9.64-18.09,6.27l-1.53.05c-.8.33-1.23.78-2.03,1.11-.1-.24.07-.6-.13-1.08-1.13,1.03-2.3,1.22-3.36,1.65.17-.35.6-.81.5-1.06-.96.68-2.13.87-3.2,1.3.17-.35.5-1.06.4-1.3-1.13,1.03-2.13.87-3.19,1.3.17-.35.23-.95.13-1.2-.87.92-2.03,1.11-3.1,1.55.17-.35.24-.95.4-1.3-1.13,1.03-2.13.87-3.19,1.3-.27.11.33-.7.23-.95-.7.57-1.76,1-2.56,1.33-.1-.24.33-.71.24-.95-1.4,1.14-2.4.98-3.46,1.41l.4-1.3c-.76,1.17-1.83,1.6-2.99,1.79.16-.35.5-1.06.4-1.3-1.03,1.27-2.53,2.17-4.06,2.22.27-.11.5-1.06.4-1.3-.93,1.52-2.1,1.71-3.43,2.25.17-.35.23-.95.57-1.66-1.2,1.63-2.86,2.88-4.76,2.79.27-.11.24-.95.14-1.19-.67,1.41.83-.63-.6-.33,0,0-2.66,2.23-2.76,1.98-.77,1.17,1.12-5.29-.21-4.75.07-.6-7.45,3.57-7.12,2.86-.93,1.52-.87.9-2.56,1.31,0,0-4.34,5.18-4.17,4.82-.83,1.76-1.85.98-3.55,1.39.16-.35,1.38.63,1.54.28-.67,1.41-.81.05-2.14.59-.1-.24-5,.18-5.1-.06-1.03,1.27-.55,1.2-2.15,1.85-.1-.24.1,3.1.26,2.75-.67,1.41-.94.59-2.38.89l-.95,1.45c-.83,1.76.78.49-.92.89-.07-.17,6.32-1.68,6.43-2.1-.74,1.07-1.69,2.19-2.81,2.91-.1-.24-.03-.84-.13-1.09-.67,1.41-1.97,2.79-3.66,3.2.27-.11.33-.71.23-.95-.83,1.76-2.13,3.15-4.03,3.07l-.02-.04c-.7,1.23-1.75,2.51-3.01,3.27-.3-.73.13-1.19.13-1.19l-1.06.43c-.53,2.5-4.43,2.56-3.96,5.22,0,0-.36,19.98,3.59,28.91,3.95,8.93,11.87,23.68,13.72,27.48,1.61,3.29,3.48,8.75,4.5,12.44,2.29,8.26,3.1,10.35,8.28,17.47,5.01,6.88,8.58,10.2,15.62,15.02,7.34,5.03,12.5,6.44,19.67,12.15,7.09,5.65,12.99,4.06,19.02,1.93,16.81-5.94,33.33-25.26,39.54-40.17"/>
    <g>
      <path class="cls-12" d="M930.51,198.21c2.38.22,5.27-1.23,6.75-3.26.33-.45,1.9-.78,1.44-.15-1.96,2.67-6.19,4.57-9.26,4.28-.31-.03-.34-.24-.07-.47.28-.24.81-.43,1.14-.4"/>
      <path class="cls-12" d="M939.33,193.89c1.07-1.16,2.41-2.09,3.84-2.8.21-.1.52-.14.74-.06.17.06.26.2.13.36-.52.67-1.32,1.18-2.13,1.49-.25.1-.61.17-.84.01-.21-.14-.02-.37.18-.45.66-.26,1.28-.66,1.71-1.21.29.1.58.2.87.29-1.28.64-2.48,1.48-3.43,2.52-.19.21-.56.27-.82.23-.19-.03-.45-.18-.26-.38"/>
      <path class="cls-12" d="M945.26,191.69c1.71-.75,3.44-2.32,3.76-3.96.49-2.47-1.97-5.08-4.63-5.45-.29-.04-.24-.27-.02-.41.28-.19.7-.23,1-.19,2.32.32,4.57,2.37,5.04,4.31.43,1.82-.73,3.69-2.6,5.02-.55.4-1.17.76-1.81,1.04-.26.11-.76.23-.97.07-.21-.15-.01-.34.23-.45"/>
      <path class="cls-12" d="M926.99,198.63c.01-.24-.21-.29-.35-.24-.46.2-.99.27-1.52.11-.08.25-.15.49-.23.74.97-.28,2.03-.36,3.1-.14.21.04.42-.13.52-.31.07-.14.1-.4-.11-.45"/>
      <path class="cls-12" d="M928.4,198.34c-1.19-.24-2.37-.14-3.46.17-.16.05-.32.21-.38.4-.04.15,0,.3.15.35"/>
      <path class="cls-12" d="M923.5,200.32c-1.14.41-2.77.2-3.84-.86-1.63-1.61-1.8-4.25-.9-6.06.1-.2-.06-.34-.23-.33-.23.02-.42.23-.52.43-.78,1.58-.85,3.67.08,5.43.87,1.64,2.43,2.4,3.98,2.35.46-.02.93-.09,1.35-.24.17-.06.45-.27.45-.5,0-.24-.19-.27-.35-.21"/>
    </g>
    <path class="cls-9" d="M896.43,173.21c-1.79-.16-3.44,1.24-4.06,2.49-.15.29-.33,1.08-.22,2.17.14,1.39,1.21,2.59,2.34,3.13,1.51.72,3.32.21,4.4-.95,1.46-1.58,1.16-3.99.07-5.39-.2-.25-1.08-1.32-2.53-1.45"/>
    <path class="cls-9" d="M913.72,171.13s-9.5-2.73-13.33-1.6c-5.58,1.65-10.99,7.32-11.8,10.76,0,0,6.94-8.01,10.91-9.06,3.79-1,14.22-.1,14.22-.1Z"/>
    <path class="cls-9" d="M941.08,155.31c1.17-1.37,3.63-2.12,4.94-1.66.31.11,1.16.43,1.84,1.29.87,1.09.95,2.7.52,3.87-.57,1.57-2.23,2.47-3.81,2.39-2.15-.11-3.62-2.04-3.82-3.8-.03-.32-.56-.76.38-1.87"/>
    <path class="cls-9" d="M935.8,161.65s6.02-8.47,9.97-10.22c5.76-2.55,14.11-1.96,17.14.05,0,0-11.23-1.29-15.24.61-3.83,1.82-11.87,9.56-11.87,9.56Z"/>
    <path class="cls-16" d="M905,151.79c.34,1.12.67,2.25,1.01,3.38.26.86.51,1.72.76,2.58-3.09.15-5.69.42-7.64.67-4.12.53-6.23.82-8.39,1.9-2.27,1.13-4.03,2.63-4.72,3.23-.96.83-1.61,1.37-2.3,2.29-1.51,1.98-1.82,3.8-2.18,3.75-.33-.04-.27-1.56-.27-1.72.15-3.85,2.23-6.73,2.38-6.95,0,0,1.55-2.21,4.56-4.04,2.08-1.26,8.19-3.56,16.79-5.08"/>
    <path class="cls-16" d="M925.9,142.18c.52,1.05,1.05,2.1,1.58,3.16.4.8.81,1.6,1.21,2.4,2.59-2.13,4.87-3.81,6.62-5.03,3.69-2.59,5.59-3.9,8.09-4.7,2.62-.83,5.11-1.02,6.08-1.09,1.36-.09,2.27-.18,3.47-.02,2.62.33,4.15,1.41,4.41,1.12.24-.26-.89-1.32-1-1.43-2.85-2.65-6.55-3.22-6.84-3.27,0,0-2.81-.47-6.52.4-2.56.6-9.11,3.36-17.09,8.47"/>
    <path class="cls-3" d="M998.69,152.5c1.27-16.22,5.51-17.76,5.51-17.76,0,0,3.99,2.32,4.77,9.39"/>
    <path class="cls-3" d="M1001.33,153.04c3.71-1.67,3.17,6.49,4.8,7.82,1.63,1.33,1.52-3.62.18-9.19,0,0-2.45-7.31-6.53-7.43"/>
    <path class="cls-56" d="M887.77,140.14s12.21-2.38,21.81-5.31c9.6-2.93,17.41-10.75,17.41-10.75,0,0-10.1,7.11-17.68,9.47-7.58,2.36-21.55,6.59-21.55,6.59Z"/>
    <path class="cls-16" d="M872.68,114.72c.07-.21-.03.09,0,0,1.31-4.1,1.68-8.14,3.17-12.18,1.46-3.96,2.96-7.59,4.64-11.46.1-.23,3.2-1.31,3.3-1.54.02-.04.09-.19.11-.24.05-.12.11-.24.16-.36.13-.28.26-.56.39-.84,12.78-11.19,30.41-17.81,48.16-17.99,34.48-.35,62.72,27.31,63.08,61.79.03,2.95,2.68,5.7.52,8.06-2.15,2.36-2.71,1.7-5.76.76-2.98-1.13-5.67-2.94-7.84-5.28-10.96-10.81-19.19-30.94-20.66-46.26-.88,3.26-13.87,4.3-16,6.92-8.41,10.37-23.64,11.96-34.01,3.55-.59,1.94-1.33,3.83-2.23,5.66-8.21,16.66-22.24,27.94-38.48,23.18-.6-.17.65-11.17,1.45-13.77Z"/>
    <path class="cls-10" d="M995.67,137.32l-1.31-3.04-37,7.82h0c-12.89.04-27.25,9.44-33.93,19l-7.82,3.62.02-.15c-12.14-3.23-28.02,1.92-37.63,12.19l.83,1.14h0c.03.08.19.23.36.47l.74.99c4.63,6.33,9.71,12.94,12.45,14.12,1.84.8,6.4-.3,10.06-1.43,1.39-.42,2.63-.85,3.53-1.16,1.07-.39,10.6-3.81,11.57-5.92.97-2.11-.84-14.26-1.49-18.06l8.03-3.68c2.14,2.3,9,13.15,13.95,13.92,4.95.77,25.04-8.39,25.76-12.04.51-2.61.42-11.4-.13-15.64l-.29-5.62,32.29-6.53ZM916.15,184.24c-1.14,2.11-20.02,9.13-23.21,7.76-2.69-1.16-9.29-10.19-11.78-13.58l-.07-.15c8.83-8.58,23.13-13.24,33.61-10.6,1,6.62,2.03,15.22,1.42,16.54v.03ZM961.04,165.22c-.44,2.3-17.67,11.1-22.78,10.3-3.55-.54-8.7-8.42-12.04-12.77,6.6-9.17,22.94-18.49,34.67-17.87.66,6.76.71,13.57.15,20.33h0Z"/>
    <path class="cls-8" d="M1013.12,132.99s23.15-30.96,4.52-50.69c-3.58-3.79-3.36-2.25-4.69-6.07-6.97-20.03,1.61-17.41-35.4-31.86-37.02-14.45-41.25-12.69-85.46,4.76-22.8,9-32.54,22.73-34.32,39.5-.8,7.54.01,15.69,1.97,24.31,0,0,43.46-28.44,76.63-21.95,33.16,6.48,78.49,47.07,77.4,64.94-.31,5.02-.65-22.94-.65-22.94Z"/>
    <path class="cls-49" d="M1024.66,105.12s-58.81-46.38-113.33-31.4c0,0,64.43-27.86,108.73,10.57l2.18,5.46c1.36,3.4,2.12,7,2.25,10.66l.17,4.71Z"/>
    <path class="cls-26" d="M940.05,204.96c8.34-3.63,21.45-10.44,21.45-10.44,0,0,6.07,22.21-13.26,30.62-19.33,8.41-27.48-13.42-27.48-13.42,0,0,10.96-3.14,19.3-6.76Z"/>
    <path class="cls-37" d="M939.97,204.99c3.96-1.72,18.5-8.65,18.5-8.65,0,0,.52,14.86-13.82,21.09-15.55,6.76-21.74-6.16-21.74-6.16l17.06-6.28Z"/>
    <path class="cls-20" d="M940.04,205.63c3.96-1.72,15.75-7.61,15.75-7.61,0,0-2.55,6.02-14.44,11.19-11.89,5.17-17.41,2.8-17.41,2.8l16.1-6.39Z"/>
    <path class="cls-26" d="M919.74,212.03c.38-.28.92-.27,2.82-1.29,3.16-1.7,3.61-2.98,5.91-4.19,3.93-2.06,7.17-1.66,8.93-2.43,1.76-.77,3.68-3.41,7.87-4.88,2.45-.86,8.7-2.6,12.09-3.76,2.04-.7,4.03-2.43,4.49-2.51.64-.12,1.29,4.46-20.89,14.11-22.18,9.65-21.75,5.33-21.23,4.94Z"/>
    <g id="freepik--character-1--inject-1332">
      <path class="cls-28" d="M944.72,801.84s-.02,65.88.53,69.69l-30.85,11.07-13.99-7.06-18.56-69.32,62.87-4.38Z"/>
    </g>
    <g id="freepik--character-1--inject-1332-2" data-name="freepik--character-1--inject-1332">
      <path class="cls-28" d="M980.13,802.74s-.02,65.88.53,69.69l-30.85,11.07-13.99-7.06-18.56-69.32,62.87-4.38Z"/>
    </g>
    <path class="cls-48" d="M899.71,332.03c4.71,5.92,7.22,12.98,8.12,20.44.9,7.51.36,15.11-.06,22.63-.44,7.67-.82,15.41.19,23.05,1.04,7.88,3.77,15.44,8.47,21.89,3.14,4.31,7.03,8.03,11.28,11.23,1.25.94,2.53,1.84,3.84,2.7.69.45,1.38.89,2.09,1.32.24.15.48.29.72.44.24.15.49.29.73.43.18.25.34.3.5.13.39.36.65,1.49.85,1.97.25.59.51,1.17.76,1.76.41.95,2.68.28,2.3-.62-.51-1.18-.93-2.47-1.55-3.59-.42-.77-1.42-1.11-2.16-1.56-1.28-.78-2.54-1.59-3.77-2.44-4.13-2.84-7.97-6.12-11.23-9.93-5.37-6.28-8.73-13.82-10.15-21.94-2.65-15.18.99-30.54-.26-45.79-.69-8.4-3.24-16.46-8.54-23.12-.6-.76-2.8.11-2.11.98h0Z"/>
    <path class="cls-40" d="M708.77,435.95s-.1.04-.15.05c0-.13,0-.26-.01-.38.06.11.11.22.17.34Z"/>
    <path class="cls-40" d="M727.64,385.64s.08.08.13.11c.06-.13.13-.26.19-.39-.11.09-.22.18-.32.28Z"/>
    <path class="cls-28" d="M873.28,483.99l-40.33,9.58-24.64-4.64c-7.77.12-15.54-.2-23.29-.97-3.34-1.04-2.9-3-2.44-4.47.46-1.47,17.93-4.16,17.93-4.16,0,0-24.07.69-27.85-1.79-3.78-2.49-2.37-5.84-1-7.68s40.01-.15,40.01-.15l-16.16-3.72s-21.52,2.8-26.63.36c-5.1-2.44-2.74-8.65-2.74-8.65l26.42-2.08,18.49-.63-18.97-2.29s-19,1.59-23.09-1.68c-4.08-3.27.49-7.72.49-7.72l27.36-3.5,29.95,2.12c-3.41-2.12-6.51-2.27-9.24-5.25-3.82-4.43-.26-6.55-.26-6.55l26.62,3.5,23.44,18.48,5.91,31.91Z"/>
    <path class="cls-28" d="M757.02,483.19l18.87-2.15-8.35,5.75c-4.22,1.03-8.28,2.59-12.09,4.65-1.98,1.95.28,5.46.28,5.46l32.46-8.85,16.62-2.11c6.41-.82,11.83-5.03,14.25-11.08l9.66-24.2-13.29-11.84-12.68-13.68-8.04-6.32-14.28-5.35s-3.82,3.37,1.45,7.9c5.26,4.52,8.56,6.95,8.56,6.95l6.17,8.89-3.01,3.78-31.12,5.23-10.53-1.86s-9.66-6.47-16.72-3.18c-.26.13-.48.34-.63.59-.44.75-.19,1.73.56,2.19l17.84,10.81,11.37,1.11-12.34,2.17s-15.93-4.77-21.9-2.97-2.31,4.7-2.31,4.7l19.79,9.3,18.49.64-12.47,2.6-16.52-.33s-5.14.13-4.97,3.84c.04,1.37.95,2.57,2.25,2.96l22.62,4.39Z"/>
    <path class="cls-25" d="M713.3,432.48s-21.68-5.55-38.73-13.86c0,0,16.42,3.66,38.73,13.86Z"/>
    <path class="cls-25" d="M711.91,445.77s-29.12,8.77-52.07,9.68c0,0,22.89-5.57,52.07-9.68Z"/>
    <path class="cls-25" d="M718.24,459.81s-19.46,15.74-36.8,23.65c0,0,15.74-11.38,36.8-23.65Z"/>
    <path class="cls-25" d="M735.66,415.29s-4.46-24.94-4.46-39.96c0,0,4.18,17.67,4.46,39.96Z"/>
    <path class="cls-25" d="M749.15,416.62s8.33-27.62,16.04-42.86c0,0-4.89,20.09-16.04,42.86Z"/>
    <path class="cls-25" d="M722.32,421.07s-21.66-21.08-32.88-40.16c0,0,15.46,15.62,32.88,40.16Z"/>
    <path class="cls-56" d="M808.1,488.31c-6.62.09-13.23-.11-19.83-.66-1.96-.16-5.69-.13-5.55-2.99.02-.35.13-.66.19-1,.06-.31.11-.42.02-.24-.05.09-.23.07-.09.06.3-.03.14-.06.4-.14,2.39-.73,4.94-1.02,7.4-1.38,3.16-.46,6.33-.85,9.5-1.22,1.82-.21,3.64-.41,5.47-.6.69-.07,2.03-1.15.62-1.13-4.33.05-8.66.02-12.98-.06-3.48-.07-6.96-.18-10.44-.4-2.7-.17-5.47-.34-8.11-.94-3.25-.73-4.94-3.83-3.26-6.9.13-.24.55-.84.55-.88-.01.12-.17.04-.26.16.13-.16-.16.02.1-.04.08-.02.58-.13.34-.08.9-.18,1.83-.26,2.74-.34,6.1-.54,12.27-.52,18.39-.55,4.64-.02,9.29-.01,13.93.05.49,0,2.38-.89,1.14-1.13-2.69-.54-5.38-1.09-8.06-1.63l-5.2-1.05c-.73-.15-1.46-.37-2.21-.32-6.95.44-14.12,1.67-21.06.43-2.23-.4-4.42-1.52-5.23-3.78-.46-1.27-.47-2.78,0-4.06l-1.28.71c6.45-.51,12.9-1.01,19.34-1.52,2.35-.18,4.71-.42,7.06-.56-.62.04.21,0,.38,0l1.83-.06,5.89-.2c3.37-.12,6.74-.23,10.12-.35.46-.02,2.4-.85,1.14-1.13-5.94-1.33-11.88-2.66-17.82-3.99-.71-.16-1.51-.46-2.24-.46-.87,0-1.85.38-2.69.56-4,.84-8.22,1.58-12.31,1.31-2.16-.14-4.66-.74-5.39-3.1-.39-1.25.02-2.57.66-3.67.24-.4.52-.78.81-1.14.07-.09.59-.64.32-.37l-1.05.42c6.51-.96,13.02-1.92,19.53-2.88l4.19-.62c.2-.03.7,0,.88-.13-.12.08-.76-.04-.09.02,3.4.3,6.81.48,10.21.72s6.56.46,9.84.7c.5.04,1.2-.04,1.57-.42.27-.28.33-.66-.19-.7-6.46-.46-12.91-.91-19.37-1.37-1.65-.12-3.17.16-4.81.41-4.05.6-8.1,1.2-12.15,1.79-3,.44-6,.85-8.99,1.33-1.15.18-1.74.78-2.4,1.71-1.3,1.84-1.97,4.19-.49,6.13,1.26,1.64,3.32,2.11,5.27,2.28,2.36.21,4.75.04,7.1-.23,2.16-.25,4.31-.62,6.44-1.05.72-.15,1.44-.3,2.16-.47.15-.03.33-.05.47-.11.44-.2-.6.08-.65.04.16.14.71.16.91.2l1.89.42,5.75,1.29c3.54.79,7.08,1.58,10.62,2.38l.63.14,1.14-1.13c-6.12.21-12.24.32-18.35.63s-12.34.96-18.5,1.45c-2.78.22-5.55.44-8.33.65-.41.03-1.12.28-1.28.71-1.2,3.34.61,6.83,3.87,8.08,1.65.63,3.49.79,5.23.91,2.29.16,4.59.15,6.88.09,3.78-.11,7.57-.39,11.33-.78.16-.02.73.02.86-.09.09-.07-.64-.14-.4.02.11.08.38.08.51.1l4.47.9c3.28.66,6.57,1.33,9.85,1.99l1.14-1.13c-10.81-.15-21.75-.39-32.53.51-1.6.13-3.73.14-5.14,1.03-1.17.75-1.87,2.69-1.97,4-.15,1.97,1.07,3.72,2.77,4.65,1.88,1.02,4.47,1.11,6.55,1.31,3.52.35,7.07.5,10.6.62,5.64.18,11.28.23,16.92.16l.62-1.13c-5.28.54-10.56,1.16-15.8,1.94-2.62.39-5.48.67-7.97,1.64-1.02.4-1.42.85-1.61,1.95-.34,1.98,1.02,3.39,2.9,3.85,1.77.44,3.82.39,5.64.52s3.8.25,5.7.34c4.13.19,8.26.24,12.39.18.39,0,1.3-.15,1.48-.58s-.15-.57-.58-.57h0Z"/>
    <path class="cls-56" d="M828.08,442.12c1.32-.43,2.76-.12,4.08.18s2.59.7,3.83,1.21c2.52,1.03,4.83,2.47,6.89,4.25.55.47,2.61-.38,2.08-.84-2.34-2.01-5.02-3.63-7.92-4.71-2.81-1.05-6.27-2.02-9.23-1.07-.28.09-1.1.35-.98.79.11.42.99.28,1.24.19h0Z"/>
    <path class="cls-40" d="M668.36,368.86s-.1.02-.15.02c.02-.13.03-.25.05-.38.03.12.07.24.1.36Z"/>
  </g>
  <g id="Layer_3" data-name="Layer 3">
    <g>
      <polygon class="cls-44" points="178.57 739.05 392.19 749.41 392.19 935.54 178.57 923.02 178.57 739.05"/>
      <polygon class="cls-39" points="178.57 739.05 65.89 751.57 65.89 935.54 178.57 923.02 178.57 739.05"/>
      <polygon class="cls-7" points="279.51 952.39 65.89 935.54 65.89 751.57 279.51 764.09 279.51 952.39"/>
      <polygon class="cls-38" points="279.51 952.39 392.19 935.54 392.19 749.41 279.51 764.09 279.51 952.39"/>
    </g>
    <path class="cls-35" d="M115.54,754.48c9.09-4.9,15.39-13.62,24.28-18.87,5.17-3.06,11.03-4.75,16.9-6.04,16.75-3.69,23.9-4.04,38.97,4.16,2.13,1.16,18.01,4.16,20.14,5.33,3.63,1.98,6.88,6.91,5.26,8.86-1.62,1.96-14.51.91-16.81,1.97-10.7,4.92-22.92,7.03-34.69,7.23,0,0-35.26-1.12-52.97-2.57"/>
    <g>
      <path class="cls-51" d="M285.18,951.58l20.37-71.17s59.12,12.44,107.72.22l22.99,70.95s-52.9,25.36-151.08,0Z"/>
      <path class="cls-18" d="M286.27,951.44c2.3-8.05,4.61-16.09,6.91-24.14,3.64-12.73,7.29-25.47,10.93-38.2.84-2.95,1.69-5.89,2.53-8.84l-1.75.72c7.67,1.61,15.49,2.64,23.27,3.52,17.33,1.96,34.84,2.69,52.26,1.57,11.12-.71,22.2-2.23,33.01-4.93l-1.23-.24c2.59,8.01,5.19,16.01,7.78,24.02,4.13,12.74,8.26,25.49,12.39,38.23.94,2.9,1.88,5.8,2.82,8.7l.66-.72c-1.9.91-3.91,1.61-5.9,2.3-5.36,1.85-11.59,3.45-17.4,4.64-9.5,1.95-19.16,3.11-28.83,3.7-13.3.82-26.67.51-39.95-.63-17.17-1.48-34.22-4.42-50.97-8.43-2.32-.55-4.63-1.13-6.94-1.73-.67-.17-2.55.85-1.34,1.16,17.31,4.46,34.92,7.81,52.71,9.66,13.81,1.44,27.72,1.99,41.6,1.39,10.28-.45,20.55-1.51,30.66-3.41,6.55-1.23,13.05-2.77,19.38-4.84,2.58-.85,5.29-1.68,7.73-2.91.03-.02.06-.03.1-.05.22-.11.77-.38.66-.72-2.59-8.01-5.19-16.01-7.78-24.02-4.13-12.74-8.26-25.49-12.39-38.23-.94-2.9-1.88-5.8-2.82-8.7-.14-.44-.92-.31-1.23-.24-18.67,4.67-38.14,5.75-57.32,5.16-14.03-.43-28.05-1.79-41.91-4.05-2.57-.42-5.14-.85-7.68-1.39-.52-.11-1.58.11-1.75.72-2.3,8.05-4.61,16.09-6.91,24.14-3.64,12.73-7.29,25.47-10.93,38.2-.84,2.95-1.69,5.89-2.53,8.84-.21.75,1.96.44,2.17-.28Z"/>
    </g>
    <g>
      <ellipse class="cls-46" cx="358.98" cy="880.41" rx="53.86" ry="6.92"/>
      <path class="cls-18" d="M411.75,880.5c-.01.37-.14.44-.48.69-.47.34-1.17.63-1.82.87-2.38.87-4.94,1.35-7.44,1.77-8.25,1.4-16.65,1.97-25.01,2.35-10.79.49-21.61.52-32.41.13-8.72-.32-17.48-.86-26.12-2.15-2.79-.42-5.59-.9-8.3-1.7-1.25-.37-3.05-.83-3.83-1.88-.17-.23-.09-.5-.05-.56.25-.37.67-.57,1.17-.81,1.96-.94,4.18-1.38,6.29-1.81,7.72-1.55,15.67-2.13,23.52-2.57,10.71-.6,21.46-.72,32.18-.44,9.09.24,18.21.73,27.23,1.89,3.12.4,6.24.87,9.3,1.61,1.7.41,3.71.83,5.15,1.89.2.15.32.22.47.44.08.12.14.29.14.29.04,1.09,2.23.73,2.2-.19-.05-1.41-1.59-2.11-2.71-2.59-2.32-1-4.86-1.49-7.33-1.96-8.54-1.61-17.29-2.19-25.96-2.6-11.35-.54-22.73-.57-34.08-.14-9.1.34-18.27.91-27.27,2.39-2.79.46-5.61.97-8.29,1.89-1.37.47-3.35,1.12-4.07,2.51-1.61,3.09,6.04,4.46,7.61,4.8,7.89,1.73,16.04,2.36,24.09,2.84,11.33.68,22.69.8,34.04.5,9.59-.26,19.23-.77,28.74-2.11,3.13-.44,6.29-.95,9.34-1.8,1.73-.48,3.81-1.04,5.14-2.32.38-.37.74-.83.75-1.39.04-1.09-2.16-.74-2.2.19Z"/>
    </g>
    <g>
      <path class="cls-51" d="M292.52,925.97l-35.99,26.83s34.61,29.75,112.99,24.28c78.38-5.47,98.04-34.21,98.04-34.21l-39.71-21.23s-65.8,28.24-135.32,4.34Z"/>
      <path class="cls-18" d="M291.8,925.48c-4.06,3.03-8.13,6.06-12.19,9.09-6.44,4.8-12.88,9.6-19.32,14.41-1.49,1.11-2.98,2.22-4.47,3.33-.4.3-.52.77-.12,1.11,4.84,4.15,10.9,7.18,16.62,9.86,16.1,7.54,33.71,11.72,51.31,13.76,13.2,1.53,26.55,1.82,39.82,1.18,13.84-.67,27.69-2.24,41.29-4.94,16.91-3.37,33.91-8.56,48.72-17.6,3.81-2.33,7.47-4.93,10.77-7.95,1.44-1.32,3-2.72,4.11-4.34.04-.07.09-.13.14-.19.19-.28.32-.73-.07-.94-7.02-3.75-14.04-7.51-21.06-11.26-4.61-2.46-9.21-4.93-13.82-7.39-1.32-.7-2.63-1.41-3.95-2.11-.77-.41-1.3-.79-2.23-.47-1.85.65-3.49,1.38-5.27,2-4.48,1.58-9.02,2.96-13.6,4.2-14.96,4.04-30.35,6.51-45.83,7.3-20.65,1.06-41.52-.97-61.41-6.72-2.71-.78-5.4-1.64-8.07-2.55-.92-.32-2.55,1.01-1.26,1.46,24.54,8.4,50.73,11.06,76.53,9,17.2-1.37,34.36-4.7,50.76-10.09,3.07-1.01,6.16-2.06,9.14-3.34h-1.32c4.46,2.37,8.91,4.76,13.37,7.14,7.15,3.82,14.29,7.64,21.44,11.46,1.63.87,3.27,1.75,4.9,2.62l-.07-.94c-.72,1.06-1.65,2-2.55,2.91-2.51,2.53-5.53,4.89-8.63,7-12.92,8.79-28.16,14.02-43.26,17.62-12.47,2.97-25.2,4.78-37.97,5.85-13.91,1.17-27.9,1.41-41.82.32-18.69-1.46-37.41-5.22-54.71-12.58-4.9-2.08-9.68-4.46-14.22-7.25-1.33-.82-2.63-1.67-3.9-2.57-.64-.45-1.28-1.11-1.97-1.48-.08-.04-.16-.13-.24-.2l-.12,1.11c4.06-3.03,8.13-6.06,12.19-9.09,6.44-4.8,12.88-9.6,19.32-14.41,1.49-1.11,2.98-2.22,4.47-3.33,1.18-.88-.58-1.62-1.44-.98Z"/>
    </g>
    <g>
      <path class="cls-2" d="M281.06,934.5s.95.6,2.83,1.57"/>
      <path class="cls-5" d="M289.54,938.76c11.62,5.06,35.05,12.87,69.44,13.17,38.05.34,62.34-12.95,72.22-19.73"/>
      <path class="cls-2" d="M433.75,930.37c1.68-1.26,2.52-2.03,2.52-2.03"/>
    </g>
    <g>
      <path class="cls-2" d="M269.45,943.16s1,.54,2.9,1.45"/>
      <path class="cls-4" d="M278.13,947.23c14.14,6.08,44.29,16.85,80.85,17.17,40.08.36,73.47-18.88,85.94-27.14"/>
      <path class="cls-2" d="M447.55,935.47c1.71-1.2,2.62-1.9,2.62-1.9"/>
    </g>
    <g>
      <ellipse class="cls-18" cx="317.61" cy="909.56" rx="3.54" ry="8.73"/>
      <ellipse class="cls-18" cx="317.61" cy="932.06" rx="3.54" ry="8.73"/>
      <ellipse class="cls-18" cx="328.86" cy="921.01" rx="8.73" ry="3.54"/>
      <ellipse class="cls-18" cx="306.36" cy="921.01" rx="8.73" ry="3.54"/>
      <ellipse class="cls-18" cx="325.52" cy="912.95" rx="8.73" ry="3.54" transform="translate(-557.06 512.35) rotate(-45.96)"/>
      <ellipse class="cls-18" cx="309.87" cy="929.13" rx="8.73" ry="3.54" transform="translate(-573.47 506.03) rotate(-45.96)"/>
      <ellipse class="cls-18" cx="325.65" cy="929" rx="3.54" ry="8.73" transform="translate(-568.57 517.33) rotate(-45.96)"/>
      <ellipse class="cls-18" cx="309.47" cy="913.36" rx="3.54" ry="8.73" transform="translate(-562.25 500.93) rotate(-45.96)"/>
      <circle class="cls-42" cx="317.92" cy="921.01" r="5.34"/>
    </g>
    <g>
      <ellipse class="cls-18" cx="359.95" cy="913.29" rx="3.54" ry="8.73"/>
      <ellipse class="cls-18" cx="359.95" cy="935.8" rx="3.54" ry="8.73"/>
      <ellipse class="cls-18" cx="371.21" cy="924.74" rx="8.73" ry="3.54"/>
      <ellipse class="cls-18" cx="348.7" cy="924.74" rx="8.73" ry="3.54"/>
      <ellipse class="cls-18" cx="367.87" cy="916.68" rx="8.73" ry="3.54" transform="translate(-546.84 543.93) rotate(-45.96)"/>
      <ellipse class="cls-18" cx="352.22" cy="932.86" rx="8.73" ry="3.54" transform="translate(-563.24 537.61) rotate(-45.96)"/>
      <ellipse class="cls-18" cx="367.99" cy="932.74" rx="3.54" ry="8.73" transform="translate(-558.34 548.92) rotate(-45.96)"/>
      <ellipse class="cls-18" cx="351.81" cy="917.09" rx="3.54" ry="8.73" transform="translate(-552.03 532.51) rotate(-45.96)"/>
      <circle class="cls-42" cx="360.27" cy="924.74" r="5.34"/>
    </g>
    <g>
      <ellipse class="cls-18" cx="401.71" cy="907.04" rx="3.54" ry="8.73"/>
      <ellipse class="cls-18" cx="401.71" cy="929.55" rx="3.54" ry="8.73"/>
      <ellipse class="cls-18" cx="412.96" cy="918.49" rx="8.73" ry="3.54"/>
      <ellipse class="cls-18" cx="390.46" cy="918.49" rx="8.73" ry="3.54"/>
      <ellipse class="cls-18" cx="409.62" cy="910.43" rx="8.73" ry="3.54" transform="translate(-529.61 572.04) rotate(-45.96)"/>
      <ellipse class="cls-18" cx="393.97" cy="926.61" rx="8.73" ry="3.54" transform="translate(-546.01 565.72) rotate(-45.96)"/>
      <ellipse class="cls-18" cx="409.75" cy="926.48" rx="3.54" ry="8.73" transform="translate(-541.12 577.03) rotate(-45.96)"/>
      <ellipse class="cls-18" cx="393.57" cy="910.84" rx="3.54" ry="8.73" transform="translate(-534.8 560.62) rotate(-45.96)"/>
      <circle class="cls-42" cx="402.02" cy="918.49" r="5.34"/>
    </g>
    <path class="cls-17" d="M242.42,762.38c9.13.42,37.1,1.71,37.1,1.71,0,0,40.02-5.22,53.16-6.93-9.42-2.47-14.48-10.35-23.3-14.5-15.16-7.14-31.9-13.06-48.41-10.19-10.75,1.87-76.86,18.72-85.39,25.53,0,0,25.19,1.57,37.15,1.82,4.8.1,29.68,2.56,29.68,2.56Z"/>
    <path class="cls-45" d="M165.32,765.42c.31,4.17.31,8.35,0,12.51-.27,3.61-.77,7.2-1.26,10.79-.48,3.58-.93,7.17-1.12,10.78-.22,4.23-.11,8.48.36,12.68,1.02,9.03,3.82,17.74,7.23,26.13,3.05,7.51,6.52,15.1,12.12,21.08,5.16,5.5,12.47,9.43,20.16,9.19,3.68-.11,7.25-1.28,10.28-3.37,2.9-2,5.24-4.68,7.16-7.61,2.03-3.09,3.6-6.45,4.97-9.87,1.69-4.2,3.16-8.5,4.44-12.84,2.59-8.76,4.4-17.74,5.61-26.79.61-4.55,1.07-9.12,1.4-13.7.33-4.63.5-9.29.02-13.92-.78-7.7-3.52-15.52-9.41-20.81-1.31-1.18-2.76-2.2-4.33-3.03-.57-.3-1.07.56-.5.86,6.57,3.49,10.61,10.33,12.31,17.39,1.06,4.43,1.31,9.01,1.21,13.55-.1,4.5-.48,8.99-.95,13.46-.93,8.92-2.42,17.79-4.61,26.49-1.09,4.33-2.36,8.61-3.82,12.82-1.3,3.74-2.7,7.48-4.45,11.03-3.1,6.26-7.66,12.48-14.65,14.57s-15.22-.52-20.92-5.15c-6.19-5.04-10.14-12.26-13.3-19.46-3.52-8.02-6.57-16.37-8.19-25-1.49-7.95-1.51-16.03-.58-24.04.83-7.15,2.06-14.23,2.07-21.44,0-2.11-.08-4.22-.24-6.33-.05-.64-1.05-.64-1,0h0Z"/>
    <circle class="cls-45" cx="165.82" cy="776.18" r="5.79"/>
    <circle class="cls-45" cx="163.36" cy="795.95" r="3.11"/>
    <circle class="cls-45" cx="164.23" cy="814.4" r="5.79"/>
    <circle class="cls-45" cx="169.59" cy="834.18" r="3.11"/>
    <circle class="cls-45" cx="178.03" cy="849.46" r="5.79"/>
    <circle class="cls-45" cx="188.03" cy="864.03" r="3.11"/>
    <circle class="cls-45" cx="205.95" cy="867.14" r="5.79"/>
    <circle class="cls-45" cx="221.51" cy="854.48" r="3.11"/>
    <circle class="cls-45" cx="229.08" cy="835.7" r="5.79"/>
    <circle class="cls-45" cx="233.86" cy="817.52" r="3.11"/>
    <circle class="cls-45" cx="236.15" cy="800.59" r="5.79"/>
    <circle class="cls-45" cx="235.94" cy="782.41" r="3.11"/>
    <path class="cls-21" d="M361.72,859.69c-13.64-2.79-26.65-7.01-40.69-4.57-10.6,1.84-19.88,9.07-30.63,10.01-10.55.92-12.45-10.89-13.11-19.16-.59-7.47-.85-15.02-2.66-22.3-1.78-7.17-7.09-12.71-9.72-19.55-3.86-10-5.2-17.56-13.69-25.7-5.75-5.52-12.67-8.58-20.35-12.22-3.54-1.67-14.72-5.19-15.62-8.86-.54-2.2,3.61-5.29,4.81-6.7,1.94-2.29,2.91-5.67,5.14-7.65,1.53-1.36,3.66-1.73,5.55-2.52,1.75-.73,3.32-1.83,4.87-2.93,3.98-2.82,7.96-5.63,11.95-8.45,7.66-5.42,15.46-10.91,24.34-13.95,8.34-2.86,17.45-3.42,26.08-1.61,8.22,1.72,15.85,5.51,23.25,9.49,12.67,6.82,23.94,14.92,28.77,29.05,3.91,11.45,10.31,20.53,17.02,30.42,7.57,11.15,8.76,23.72,9.83,36.82,1.05,12.91,4.53,24.93,10.31,36.5.11.22.23.42.35.62.07.71.1,1.43-.17,2.08-.47,1.11-1.67,1.67-2.78,2.1-.54.21-1.08.41-1.63.6-6.45,2.26-13.46,1.67-19.17-.86-.65-.29-1.33-.5-2.04-.65Z"/>
    <path class="cls-41" d="M384.05,851.3c-14,5.78-28.24-2.09-41.8-5.2-13.3-3.05-27.66-1.71-40.38,3.11-3.83,1.45-7.52,3.45-11.55,4.3-3.21.67-7.34.57-9.7-2.04-.52-.57-2.79.28-2.22.91,1.91,2.1,4.94,2.7,7.67,2.73,3.48.03,6.85-.99,10.05-2.26,3.5-1.39,6.91-2.96,10.52-4.07,3.56-1.09,7.2-1.89,10.89-2.39,7.34-.99,14.87-.84,22.13.69s14.56,4.6,22.02,6.26c7.67,1.71,15.93,1.88,23.3-1.16.33-.14.94-.48.65-.9-.27-.39-1.26-.12-1.57.01h0Z"/>
    <path class="cls-41" d="M381.59,845.12c-6.83,1.96-13.94,1.31-20.75-.37-6.6-1.63-12.83-4.36-19.32-6.35-6.36-1.94-12.84-2.6-19.46-2.16s-13.53,1.88-20.14,3.54c-7.92,1.99-15.79,4.21-23.67,6.34-.32.09-1.17.39-1.05.87s1.05.31,1.34.23c7.04-1.9,14.08-3.85,21.14-5.69,6.83-1.78,13.75-3.39,20.81-3.97s13.76.19,20.43,2.35c6.24,2.03,12.28,4.56,18.67,6.11,7.33,1.79,14.98,2.28,22.3.18.32-.09,1.17-.39,1.05-.87s-1.05-.31-1.34-.23h0Z"/>
    <path class="cls-41" d="M378.88,835.42c-4.34-.04-9.22-1.79-11.53-5.7-2.34-3.96-.97-8.79,2.07-11.94l-2.27.42c1.97,3.21,2.45,7.04,1.28,10.63-.52,1.58-1.32,3.2-2.57,4.32-1.67,1.49-3.7,1.13-5.51.1-2.92-1.66-5.48-4.89-6.83-7.93-1.41-3.16-.8-6.66,2.03-8.79l-2.27.42c1.46,2.83,1.28,6.07-.2,8.86-.82,1.54-2.03,3.06-3.53,3.97-1.74,1.06-3.76.02-5.13-1.19-2.59-2.27-4.3-5.91-5.39-9.12-.4-1.19-.72-2.36-.59-3.62.09-.88.62-3.01,1.75-3.14l-.6-.06c2.65,2.17,2.01,5.78.12,8.24-1.14,1.48-2.66,2.67-4.2,3.7-1.46.97-3.46,2.57-5.24,2.77s-3.14-1.37-4.16-2.55c-1.21-1.39-2.22-2.97-2.98-4.65-1.36-3.02-1.83-6.32-1.46-9.61l-2.17.77c2.39.69,4.25,2.57,4.66,5.06.4,2.43-.78,4.78-2.29,6.62-.91,1.11-1.99,2.08-3.12,2.95-1.5,1.15-3.33,2.45-5.3,1.86-2.6-.78-4.38-3.8-5.55-6.05-.61-1.17-1.11-2.39-1.48-3.66-.36-1.21-.91-2.8-.55-4.06.04-.14.13-.54.28-.62.04-.03.09.02.31.31.36.47.79.84,1.11,1.36.52.85.85,1.81,1,2.79.65,4.35-2.53,9.36-6.67,10.82-2.94,1.04-4.26-3.48-4.7-5.58-.54-2.59-.12-5.26,2.37-6.63l-2.1.31c1.47,2.51,1.44,5.46.26,8.08-.63,1.41-1.54,2.69-2.66,3.76-1.17,1.12-3.36,3.17-4.97,1.96-2.8-2.12-4.7-6.15-4.91-9.61-.04-.68.06-1.34.41-1.94.04-.07.27-.33.28-.39l.13-.15-.55.1c.07-.28,1.42,1.22,1.48,1.31,1.04,1.54,1.41,3.52,1.03,5.33-.91,4.36-5.34,7.12-9.55,7.42-.36.03-1.43.18-1.6.56s.14.38.55.35c4.52-.32,9.79-2.38,12.1-6.54,1.2-2.16,1.39-4.88.23-7.1-.42-.8-1.03-1.77-1.91-2.11-.94-.36-2.11-.1-2.99.29-4.41,1.98-.75,8.91,1.25,11.38.66.81,1.41,1.77,2.37,2.24s2.12.31,3.13.04c2.2-.58,4.33-2,5.92-3.61,3.1-3.13,4.75-7.98,2.38-12.02-.3-.51-1.74.11-2.1.31-2.67,1.48-3.53,4.08-3,6.99.45,2.44,1.57,6.09,4.48,6.37,3.08.3,6.53-1.84,8.58-3.97,1.89-1.97,3.21-4.56,3.23-7.33.02-2.33-1.27-6.26-4.15-6.11-1.19.06-2.65.54-3.22,1.68-.66,1.34-.07,3.12.31,4.45.94,3.31,2.87,7.28,5.76,9.33,2.92,2.07,6.9.72,9.62-1.03,3.12-2.01,6.47-5.08,7.15-8.91.63-3.54-1.75-6.52-5.05-7.48-.46-.13-2.11.17-2.17.77-.39,3.42.14,6.86,1.62,9.97.74,1.55,1.69,2.99,2.81,4.29.99,1.16,2.1,2.35,3.64,2.72,3.22.77,6.66-1.45,9.24-3.09,2.74-1.74,5.83-3.99,6.85-7.23.65-2.06.2-6.49-2.82-5.98-2.47.42-4.26,1.92-4.56,4.47-.36,3.09,1.52,6.54,3.06,9.1,1.56,2.6,3.66,5.41,6.94,5.69,7.37.64,12.88-8.49,9.6-14.84-.29-.56-1.95.18-2.27.42-2.32,1.75-3.51,4.58-2.86,7.46.72,3.16,3.21,6.3,5.6,8.42s5.19,3,8.26,2.2c3.03-.79,5.07-2.94,6.17-5.81,1.45-3.8,1.11-7.97-1.02-11.44-.31-.51-1.96.11-2.27.42-3.22,3.34-4.81,8.47-2.14,12.65,2.57,4.01,7.63,5.68,12.19,5.72.51,0,1.28-.11,1.69-.45.3-.25.4-.47-.13-.48h0Z"/>
    <path d="M568.62,336.81l-.57-.83c-5.07-3.46-9.6-4.38-13.68-1.54-.05-.03-10.05-6.84-18.44,1.23-7.29,7.01-6.26,12.61-6.26,12.61,0,0-5.1,1.18-6.54,3.23-3.23,4.61.5,10.99,4.02,14.01,4.8,4.12,9.18,6.52,9.18,6.52,0,0,4.74,1.66,8.33,2.61,3.59.96,9.71-1.41,9.71-1.41,0,0,3.57,5.76,6.32,4.43,1.14-.55,3.51-1.12,5.9-1.61,4.31-.88,7.72-4.23,8.62-8.54.14-.65.27-1.34.41-2.08,0,0,3.67-3.04.43-8.33-.7-1.14-1.73-2.39-3.18-3.74,0,0,1.76-1.54,1.87-6.63.05-2.2-2.26-7.3-6.11-9.93Z"/>
    <path d="M522.26,464.07c21.11-.17,32.5-16.46,44.06-32.99,6.76-9.67,11.72-21.25,11.22-33.24-.43-10.4-4.44-20.41-9.26-29.5-4.36-8.22-9.32-14.99-17.63-19.55-7.91-4.34-17.09-6.08-26.06-5.66-2.68.13-5.35.39-8.01.73-23.61,2.84-51.66,19.68-57.09,41.4-.49,1.97-.84,4.04-1.11,6.17,0,0-.37,4.53-.13,6.01,4.39,26.35,21.01,73.18,58.14,65.05,3.25-.71,6.23-.87,5.88,1.57Z"/>
    <path class="cls-28" d="M583.88,422.51c-1.07-6.23-5.11-15.47-7.45-18.14-.73-2.82-1.59-6.09-2.64-10.02-.31-1.14-.63-2.23-.96-3.3-.22-.54-.4-1.09-.53-1.65-6.17-18.89-15.38-27.04-15.38-27.04-11.74-10.3-28.07-13.59-42.89-8.64-17.55,5.46-30.37,20.75-35.54,33.91-2.58,6.52-2.65,13.76-.21,20.33,2.08,5.62,9.07,10.47,12.44,16.25-6.25,1.5-13.57,5.5-8.03,16.18,7.64,14.73,19.68,12.69,23.93,7.84,5.94,6.01,7.62,10.1,9.26,14.31,1.7,4.36,1.66,11.04,1.37,13.16l-8.7,10.02c19.52,17.53,66.01,28.12,70.42-8.83l-10.8-6.93-2.04-7.23c.41-.15-.4.14,5.5-3.82,17.36-13.08,13.53-29.07,12.26-36.41Z"/>
    <path class="cls-56" d="M566.8,466.02l-.69-3.29s-19.51,7.88-35.61,1.39c0,0,11.9,7.06,22.47,5.55,10.57-1.51,13.83-3.65,13.83-3.65Z"/>
    <path d="M498.95,428.01c.28.45.59.95.52,1.47-.1.7-.89,1.14-1.6,1.11-.71-.03-1.36-.38-2-.7-4.11-2.07-13.3-4.63-17.3-2.34-10.85-14.46-13.62-31.5-7.46-48.51,1.96-5.38,8.53-12.17,10.52-14.32,12.11-12.95,24.58-16.11,40.4-17.58,23.69-2.15,27.04,2.03,39.84,19.43,0,0-31.01-7.59-54.72,7.48.8.05-14.79,8.73-14.94,9.06-1.35,2.88,1.34,4.31,2.02,9.45.49,3.73,1.67,6.33-.57,9.38-1.55,2.12-2.32,6.86-1.62,9.39l6.9,16.68Z"/>
    <circle cx="570.32" cy="400.85" r="4.03"/>
    <path d="M573.96,396.29c-2.19-.64-4.96-.67-8.61.73-5.85,2.25-6.41,10.54-6.41,10.54,0,0,1.54-6.65,7.26-9.02,2.76-1.14,5.75-1.04,8.25-.55-.22-.55-.38-1.13-.49-1.71Z"/>
    <path d="M530.33,398.13s-15.12,5.51-16.9,9.76c0,0,.08-5.59,12.49-11.32,0,0,6.88-1.31,4.4,1.56Z"/>
    <path d="M572.49,386.05c-.04-.13-.07-.25-.11-.38-2.58-.13-6.23.19-11.3,1.55,0,0-6.1,2.73-2.37,3.34,0,0,8.02-2.89,13.96-3.64-.05-.29-.09-.59-.18-.88Z"/>
    <path class="cls-15" d="M488.23,440.37c-1.15-1.64-2.31-4.14-1.66-6.21l-.35.25c.06-.02-.19.08-.1.03.04-.02-.07-.03-.04,0,.02.02-.1,0,.05,0,.16,0,.04,0,.15,0,.57.04,1.13.22,1.66.44,2.84,1.16,5.28,3.39,7.47,5.48l.98-.43c-.75-.27-1.62-.35-2.39-.11-1.03.31-1.36,1.13-1.19,2.14.44,2.68,3.3,3.27,5.58,2.86.15-.03.63-.13.65-.33s-.33-.17-.46-.15c-1.87.34-3.91-.22-4.54-2.2-.15-.46-.38-1.58.14-1.9.29-.18.97.05,1.3.17.18.06,1.23-.19.98-.43-1.68-1.6-3.45-3.14-5.41-4.38-.97-.61-2.02-1.19-3.14-1.48-.53-.14-1.1-.22-1.64-.13-.14.02-.3.06-.44.11-.4.16-.41.41-.46.8-.26,2.12.63,4.17,1.83,5.87.17.24,1.24-.12,1.05-.4h0Z"/>
    <circle cx="532.3" cy="412.25" r="4.03"/>
    <path d="M543.91,411.67s-8.1-6.16-14.56-3.73c-9.08,3.42-8.95,10.07-9.89,13.56,0,0,3.46-9.57,10.54-12.04,6.43-2.24,13.91,2.22,13.91,2.22Z"/>
    <g>
      <path class="cls-12" d="M560.77,426.73c-.96,1.05-2.82,1.56-4.28,1.25-.32-.07-1.15.41-.7.51,1.93.41,4.56-.44,5.8-1.8.12-.14.05-.24-.16-.24-.22,0-.53.13-.66.28"/>
      <path class="cls-12" d="M555.16,428.34c-.93-.09-1.9.03-2.81.29-.13.04-.29.15-.35.27-.05.09-.03.19.08.21.5.09,1.06,0,1.53-.19.15-.06.34-.17.38-.33.04-.15-.14-.17-.26-.13-.4.15-.83.22-1.24.15-.09.16-.18.32-.27.48.82-.23,1.68-.33,2.52-.25.17.02.35-.1.45-.22.07-.09.13-.26-.04-.28"/>
      <path class="cls-12" d="M551.66,429.73c-1.05.35-2.44.34-3.24-.26-1.2-.91-1.19-3.17-.17-4.4.11-.13,0-.21-.16-.19-.2.03-.4.18-.52.32-.9,1.07-1.04,3-.47,4.06.54.98,1.79,1.35,3.15,1.2.4-.04.82-.13,1.21-.26.16-.05.43-.2.46-.36.03-.15-.13-.16-.28-.11"/>
      <path class="cls-12" d="M562.49,425.51c-.1-.1-.02-.22.06-.25.28-.09.54-.28.71-.56.13.08.26.16.4.24-.54.27-1.04.66-1.42,1.18-.08.1-.24.11-.35.07-.09-.03-.21-.14-.13-.24"/>
      <path class="cls-12" d="M561.76,425.95c.43-.58.99-1.01,1.6-1.31.09-.04.23-.04.33.02.08.05.12.13.07.22"/>
      <path class="cls-12" d="M564.71,424.87c.67-.27,1.3-1.02,1.35-1.92.08-1.37-.9-2.61-2.02-3.07-.12-.05-.11-.17-.03-.24.11-.08.28-.07.4-.02.98.4,1.84,1.3,2.13,2.45.27,1.08-.12,2.04-.82,2.64-.21.18-.44.33-.69.43-.1.04-.3.06-.4-.05-.1-.11-.02-.2.07-.23"/>
    </g>
    <path d="M433.48,377.32l-.86.51c-3.81,4.81-5.06,9.26-2.52,13.54-.04.04-7.54,9.53-.09,18.48,6.47,7.77,12.12,7.15,12.12,7.15,0,0,.81,5.17,2.75,6.76,4.37,3.56,11,.29,14.26-3.01,4.45-4.49,7.16-8.69,7.16-8.69,0,0,1.99-4.61,3.21-8.12,1.21-3.51-.71-9.78-.71-9.78,0,0,6-3.14,4.87-5.98-1.12-2.84-1.88-12.78-1.88-12.78,0,0-3.02-1.34-9.25-2.98,0,0-2.77-3.88-8.28-1.03-1.19.62-2.51,1.55-3.96,2.91,0,0-1.41-1.87-6.48-2.34-2.19-.21-7.45,1.73-10.34,5.38Z"/>
    <path class="cls-14" d="M560.13,434.5c-4.82,1.71-12.83,3.93-12.83,3.93,0,0,4.13,13.74,17.43,8.8,11.11-4.14,6.79-17.1,6.79-17.1,0,0-6.56,2.67-11.38,4.38Z"/>
    <path class="cls-33" d="M560.17,434.49c-2.29.81-10.86,3.75-10.86,3.75,0,0,4.78,7.22,13.08,4.29,8.99-3.19,7.76-11.01,7.76-11.01l-9.98,2.98Z"/>
    <path class="cls-23" d="M560.65,435.51c-2.29.81-9.4,2.91-9.4,2.91,0,0,3.41.92,10.29-1.52,6.88-2.44,8.19-4.95,8.19-4.95l-9.07,3.56Z"/>
    <path class="cls-14" d="M571.44,430.07c-.09-.25-.62-.18-1.79.13-1.95.51-2.81.06-4.22.44-2.41.66-3.58,2.08-4.6,2.44s-2.83,0-5.11,1c-1.34.59-4.57,2.28-6.41,3.11-1.11.5-2.59.54-2.81.69-.31.2,1.58,3.04,14.41-1.51,12.83-4.55,10.67-5.96,10.55-6.3Z"/>
    <path class="cls-28" d="M551.04,912.15s32.6,11.22,41.9,11.52c9.3.3,12.02,2.58,12.02,2.58,0,0-10.66-14.98-22.34-21-2.46-1.27,4.38-82.34,9.64-120.19,3.66-26.29,1.72-47.29,1.72-47.29l-42.87,3.08.62,40.16-2.02,7.31c-1.06,3.82-4.1,11.12-4.47,15.08-1.02,10.69-2.65,24.93-2.35,30.41.5,9.29,3.37,21.93,3.64,25.2l6.99,40.2-2.47,12.93Z"/>
    <path class="cls-28" d="M503.57,912.68s40.58,21.39,49.89,21.41c9.3.01,6.11-4.93,6.11-4.93,0,0-24.67-24.13-27.06-28.57-1.31-2.43,5.25-76.4,9.35-114.39,2.85-26.39,3.03-47.39,3.03-47.39l-42.76,4.4-4.32,38.53-1.8,7.37c-.94,3.85-2.25,10.68-2.51,14.65-.69,10.72-1.38,28.74-.92,34.22.78,9.27,6.75,32.04,7.12,35.3l4.62,28.93-.75,10.49Z"/>
    <path class="cls-28" d="M504.93,900.1c.15,4.01-1.48,9.62-2.78,17.98-.57,3.68-3.8,8.83-.03,11.7,6.67,5.07,14.93,3.52,18.01,4.4,6.48,1.85,11.71,2.07,17.9,4.41,6.28,2.38,7.57,2.95,14.55,3.71.97.11,1.99.12,2.85-.28.58-.27,1.04-.7,1.62-.97,2.04-.93,4.49.54,6.78.35,1.01-.09,1.94-.49,2.89-.81,2.51-.83,5.22-1.01,7.85-1.44,2.63-.43,5.33-1.17,7.22-2.86,1.89-1.69,2.71-4.55,1.24-6.58-2.22-3.07-5.36-1.47-8.54-1.9-3.18-.43-4.36-.99-7.12-2.41-7.06-3.62-8.14-4.34-14.1-7.19-4.62-2.21-18.2-13.25-24.64-18.09l.77-11.85"/>
    <g>
      <path class="cls-56" d="M557.02,941.69c1.64-.39,2.41-2.27,1.77-3.77s-2.07-2.31-3.39-2.99c-.77-.4-1.56-.74-2.34-1.12-.32-.15-.74-.06-1.03.12-.2.13-.43.46-.11.61,1.54.74,3.26,1.37,4.52,2.55.57.53,1.03,1.18,1.11,1.98.04.38-.03.81-.18,1.16-.13.31-.36.6-.56.65-.24.06-.69.28-.62.59s.62.25.83.2h0Z"/>
      <path class="cls-56" d="M563.67,942.15c1,.03,1.94-.41,2.39-1.34.4-.82.44-1.77.36-2.66s-.36-1.71-.98-2.42c-.9-1.03-2.15-1.63-3.39-2.13-1.42-.56-2.77-1.56-4.34-1.6-.33,0-.79.1-.95.43-.15.3.13.54.43.55.73.02,1.41.32,2.05.63s1.33.65,2.02.93c1.27.51,2.67,1.23,3.34,2.49.39.72.44,1.69.36,2.49-.04.44-.12.9-.34,1.28-.08.14-.19.27-.27.33s-.07.04-.17.04c-.33,0-.79.1-.95.43-.15.3.13.54.43.55h0Z"/>
      <path class="cls-56" d="M569.15,940.77c1.39-.44,2.24-1.69,2.41-3.11.15-1.23-.34-2.42-1.13-3.35-.86-1-1.99-1.75-3.16-2.35-1.23-.63-2.58-1.22-3.92-1.56-.35-.09-.78-.02-1.02.27-.2.24-.15.61.19.69,1.13.28,2.27.76,3.32,1.26s2.04,1.09,2.86,1.88c.73.7,1.33,1.6,1.42,2.63.07.87-.27,2.34-1.23,2.64-.28.09-.68.33-.59.69s.59.38.86.3h0Z"/>
      <path class="cls-56" d="M574.33,939.71c1.21-.47,2.24-1.28,2.83-2.46.5-1,.72-2.31.2-3.35-.47-.93-1.35-1.62-2.22-2.17-.99-.63-2.07-1.13-3.16-1.57-.53-.22-1.07-.41-1.59-.62-.67-.28-1.35-.64-2.09-.64-.34,0-.74.08-1.02.27-.21.14-.22.3.08.3.71,0,1.44.47,2.1.72.55.21,1.1.42,1.64.65,1.22.52,2.44,1.11,3.49,1.94.98.77,1.67,1.72,1.62,3.01-.07,1.43-.97,3.08-2.36,3.63-.12.05-.59.2-.44.39.14.17.79-.04.93-.09h0Z"/>
    </g>
    <path class="cls-28" d="M552.46,906.8c-1,3.84-1.37,6-2.42,9.67-1.21,4.23.84,7.49,6.1,9.41,4.42,1.62,10.37,2.5,15.21,2.39,6.32-.14,13.07-.99,19.39-1.13,5.41-.12,22.44-.97,27.73-.01,8.23,1.5,13.35.56,17.03-.5,1.02-.29,1.65-.23,2.14-.9,1.26-1.73,1.15-3.68-1.53-5.23-3.38-1.96-7.55.53-10.7-1.76-.56-.41-1.08-.86-1.73-1.16-1.27-.59-2.82-.49-4.28-.51-7.28-.11-6.67-2.87-16.16-5.25-2.79-.7-19.19-14.78-21.76-15.89"/>
    <path class="cls-56" d="M549.46,916.86c3.09,1.98,6.27,3.84,9.5,5.59,2.54,1.38,5.12,2.69,7.77,3.83,2.11.9,4.4,1.84,6.71,2.02s5.25-1.25,7.31.35c.46.36,1.76-.31,1.13-.79-1.9-1.47-4.93-.85-7.12-.56-1.73.23-3.93-.64-5.63-1.3-5.24-2.02-10.2-4.87-15.01-7.75-1.19-.71-2.37-1.43-3.54-2.18-.49-.32-1.79.37-1.13.79h0Z"/>
    <path class="cls-57" d="M479.25,489.93s11.7-8.17,19.75-10.7c11.43-3.59,18.34-8.17,18.34-8.17,0,0,14.77,22.35,36.4,21.59,26.99-.94,16.74-20.33,16.74-20.33,0,0,1.53-3.24,11.69,5.42,8.36,7.13,25.94,55.39,12.86,73.17-13.09,17.78-112.14,11.04-112.14,11.04,0,0,2.94-32.14-.52-45.68-3.46-13.54-3.11-26.35-3.11-26.35Z"/>
    <path class="cls-27" d="M607.2,564.02c-1.16-16.25-2.28-27.59-5.14-41.62-4.97-24.33-5.47-23.77-7.04-27.03-5.59-14.4-26.26-31.68-26.41-31.75-1.55-.76-2.21.45-.45,6.35,6.36,6.16,19.27,21.55,17.71,33.64-.8,6.23-3.13,8.64-9.75,11.82-8.04,3.86-20.73,5.06-29.04,2.53-3.66-1.11-7.02-2.77-9.51-5.38-2.89-3.03-4.02-7.02-5.75-10.54-2.81-5.68-8.36-13.92-11.24-18.9-2.63-4.55-6.18-8.05-8.84-9.49-4.75,1.37-12.12,5.61-17.1,7.43,8.22,2.28,14.21,6.91,16.81,13.5,3.42,8.7,5.6,21.71,2.96,32.3-1.45,5.82-2.68,11.77-5.9,16.84-1.64,2.58-3.9,4.7-6.45,6.39-4.68,3.11-9.16,5.01-14.93,5.71-2.93.35-2.62-.26-3.55,2.22-.12.32-.21.65-.28.98-2.07,10.83,2.18,35.82,1.26,46.8,11.36,1.16,13.65,19.91,24.86,21.9,15.28,2.72,42.98-7.53,58.57-7.34,19.1.24,28.24-16.25,38.71-21.51-.32-1.36,4,7.5,2.74-3.11-.16-4.41-1.7-24.51-2.21-31.75Z"/>
    <path class="cls-34" d="M474.66,638.77c-6.79,48.31-15.45,137.94-17.77,155.13,10.84,6.42,16.24-1.97,30.65,7.86,12.71,8.67,20.34,4.28,31.03,0,10.69-4.28,19.6-2.85,33.4,1.43,13.81,4.28,22.05-3.6,30.07-3.96,8.02-.36,8.34,2.24,25.06,1.18,14.22-.9,18.95-3.75,18.95-6.28-3.59-68.78-11.53-128.34-16.65-198.36-12.17,5.6-27.43,17.69-46.36,17.53-15.65-.13-54.64-2.94-71.92-10.82-11.46-5.23,8.33-4.98-4.7-5.74-.65,3.85-8.05,13.45-11.05,33.96"/>
    <path class="cls-52" d="M1015.83,306.61c5.87,38.05,7.83,76.34,5.85,114.31-15.71,1.4-31.68,1.47-47.59.21-10.27-38.76-13.1-78.52-8.35-117.31"/>
    <path class="cls-32" d="M980.78,441.69c-3.38-6.01-6.11-12.82-4.39-19.79.18-.73-2-.4-2.17.3-1.74,7.07.95,13.97,4.38,20.07.39.69,2.47-.05,2.17-.58h0Z"/>
    <path class="cls-32" d="M1003.4,439.21c-2.89-5.04-5.2-10.32-4.49-16.25.14-1.15-2.08-.89-2.21.15-.75,6.23,1.67,11.8,4.71,17.08.51.89,2.57.04,1.98-.98h0Z"/>
    <path class="cls-32" d="M992.24,440.32c-4.1-4.99-4.64-12.08-4.35-18.28.04-.9-2.14-.48-2.17.27-.3,6.44.24,13.68,4.51,18.87.48.59,2.57-.18,2.02-.86h0Z"/>
    <path class="cls-32" d="M997.83,439.77c-1.49-2.59-2.85-5.27-3.7-8.14-.85-2.88-1.08-5.85-.75-8.84.1-.89-2.09-.5-2.18.26-.34,3.08-.13,6.18.75,9.16.88,2.98,2.32,5.74,3.86,8.42.36.63,2.48-.05,2.02-.86h0Z"/>
    <path class="cls-32" d="M986.73,440.24c-4.01-5.17-5.19-11.89-4.35-18.28.11-.86-2.08-.48-2.17.27-.87,6.62.35,13.51,4.5,18.86.46.59,2.55-.16,2.02-.85h0Z"/>
    <path class="cls-32" d="M1009.03,440.38c-3.95-5.08-5.36-11.46-4.78-17.8.06-.68-2.1-.25-2.15.34-.59,6.55.82,12.99,4.9,18.24.37.47,2.45-.25,2.04-.78h0Z"/>
    <path class="cls-32" d="M1014.76,439c-.48-2.94-2.61-5.05-3.83-7.67-1.38-2.95-1.26-6.25-1.26-9.42,0-.59-2.17-.21-2.17.58,0,3.17-.12,6.48,1.26,9.42,1.22,2.61,3.35,4.73,3.83,7.67.11.66,2.3.16,2.17-.58h0Z"/>
    <path class="cls-32" d="M1019.9,437.86c-3.31-4.87-5.32-10.83-3.9-16.7.1-.42-2.01-.14-2.14.39-1.44,5.97.5,11.94,3.87,16.89.35.51,2.33-.35,2.17-.58h0Z"/>
    <path class="cls-32" d="M1024.49,438.38c-1.91-5.54-5.07-11.27-3.67-17.3.16-.71-2.01-.37-2.16.31-1.42,6.15,1.71,11.93,3.66,17.58.24.68,2.39.06,2.17-.58h0Z"/>
    <path class="cls-32" d="M962.75,475.85c4.36-5.54,8.12-12.01,7.46-19.31-.06-.64-2.24-.19-2.17.58.63,7.09-3.08,13.36-7.3,18.73-.32.41.27.57.57.58.48.02,1.13-.18,1.44-.58h0Z"/>
    <path class="cls-32" d="M940.55,470.46c3.81-4.76,7.07-9.92,7.28-16.19.04-1.17-2.17-.89-2.21.15-.2,5.97-3.28,10.81-6.91,15.35-.87,1.08,1.18,1.51,1.83.7h0Z"/>
    <path class="cls-32" d="M951.4,473.05c5.02-4.48,6.74-11.56,7.43-18,.09-.88-2.09-.49-2.17.27-.66,6.13-2.2,13.07-7,17.35-.35.32-.21.67.21.79.49.14,1.17-.08,1.54-.41h0Z"/>
    <path class="cls-32" d="M946.1,471.5c1.92-2.4,3.75-4.91,5.06-7.72,1.3-2.79,2.01-5.75,2.14-8.83.04-.91-2.14-.49-2.18.26-.13,3.02-.79,5.99-2.1,8.72-1.3,2.71-3.08,5.16-4.95,7.5-.33.42.28.65.6.67.52.03,1.11-.19,1.43-.6h0Z"/>
    <path class="cls-32" d="M956.86,473.81c4.94-4.66,7.28-11.29,7.43-17.99.02-.9-2.16-.46-2.17.27-.14,6.41-2.26,12.88-7,17.36-.34.32-.23.66.21.78.47.13,1.18-.08,1.54-.41h0Z"/>
    <path class="cls-32" d="M934.93,470.28c4.83-4.55,7.22-10.77,7.64-17.32.03-.44-2.13-.14-2.17.58-.4,6.36-2.77,12.41-7.45,16.82-.38.36.33.47.54.46.5,0,1.08-.2,1.45-.55h0Z"/>
    <path class="cls-32" d="M929.65,467.84c.92-2.85,3.46-4.61,5.02-7.06,1.74-2.72,2.14-5.93,2.62-9.05.12-.77-2.06-.39-2.17.3-.49,3.18-.87,6.53-2.79,9.23-1.64,2.31-3.96,4.1-4.86,6.88-.22.67,1.94.39,2.17-.3h0Z"/>
    <path class="cls-32" d="M924.64,465.98c4.11-4.4,7.03-10.05,6.52-16.21-.03-.37-2.22.02-2.17.58.5,5.97-2.31,11.53-6.31,15.81-.32.34.29.34.51.33.43-.03,1.14-.18,1.46-.51h0Z"/>
    <path class="cls-32" d="M920.13,465.73c2.8-5.29,6.78-10.51,6.3-16.81-.05-.61-2.23-.18-2.17.58.47,6.16-3.56,11.37-6.29,16.54-.22.42.75.41.92.39.47-.06,1.02-.26,1.25-.69h0Z"/>
    <path class="cls-32" d="M914.78,465.73c2.8-5.29,6.78-10.51,6.3-16.81-.05-.61-2.23-.18-2.17.58.47,6.16-3.56,11.37-6.29,16.54-.22.42.75.41.92.39.47-.06,1.02-.26,1.25-.69h0Z"/>
    <path class="cls-32" d="M909.44,464.63c2.8-5.29,6.78-10.51,6.3-16.81-.05-.61-2.23-.18-2.17.58.47,6.16-3.56,11.37-6.29,16.54-.22.42.75.41.92.39.47-.06,1.02-.26,1.25-.69h0Z"/>
    <g class="cls-55">
      <path class="cls-32" d="M950.97,319.33s55.66,5.76,81.53-3.05l1.03,13.02s-62.65,10.86-79.97,1.16l-2.59-11.13Z"/>
      <path class="cls-32" d="M951.69,343.84s55.66,5.76,81.53-3.05l1.03,13.02s-62.65,10.86-79.97,1.16l-2.59-11.13Z"/>
      <path class="cls-32" d="M951.69,370.25s55.66,5.76,81.53-3.05l1.03,13.02s-62.65,10.86-79.97,1.16l-2.59-11.13Z"/>
      <path class="cls-32" d="M955.47,396.66s55.66,5.76,81.53-3.05l1.03,13.02s-62.65,10.86-79.97,1.16l-2.59-11.13Z"/>
    </g>
    <path class="cls-22" d="M1057.54,219.39s-13.29,125.89-82.81,105.52c-69.52-20.37-49.83-66.21-49.83-66.21,0,0,3.51-12.67,31.69-12.01,0,0-11.67,38.53,28.27,30.41s27.34-78.89,27.34-78.89c24.06-6.04,47.68,15.12,45.34,21.18Z"/>
    <g class="cls-29">
      <path class="cls-32" d="M958.75,243.18c-16.6,4.1-29.31,17.4-39.15,31.38-1.64,2.33-3.26,4.78-3.73,7.59-.47,2.81.55,6.06,3.08,7.36,10.73-16.24,26.74-28.93,45.01-35.66"/>
      <path class="cls-32" d="M993.96,261.13c11.82,16.54,19.71,35.88,22.83,55.97.26,1.69.44,3.59-.6,4.94-.76.99-2.01,1.45-3.19,1.86-7.36,2.56-14.72,5.12-22.07,7.69,3.5-21.44-1.25-44.13-13.06-62.37"/>
      <path class="cls-32" d="M992.97,261.86c17.96,9.14,31.94,25.81,37.81,45.08,4.51-4.48,7.46-10.26,10.33-15.93.51-1.02,1.04-2.09,1-3.23-.03-.84-.37-1.63-.72-2.39-2.88-6.25-7.01-11.83-11.33-17.2-3.45-4.29-7.11-8.54-11.76-11.48-4.65-2.94-10.5-4.44-15.76-2.81"/>
      <path class="cls-32" d="M1006.73,241.75c2.26-1.99,5.73-1.46,8.61-.61,16.61,4.89,30.99,16.91,38.74,32.39,1.08-6.71,2.17-13.41,3.25-20.12.24-1.47.47-3,.05-4.43-.53-1.79-1.99-3.12-3.43-4.3-12.1-9.89-27.57-15.56-43.19-15.84"/>
      <path class="cls-32" d="M1007.66,217.95c1.98-2.27,5.48-2.2,8.46-1.73,17.11,2.67,32.94,7.7,42.65,22.03.19-6.79.39-8.58.58-15.37.04-1.49.07-3.03-.53-4.4-.76-1.7-2.38-2.83-3.96-3.81-13.29-8.21-29.38-11.81-44.9-10.03"/>
      <path class="cls-32" d="M1056.43,233.99c5.6-1.42,10.87,2.92,14.99,6.97,4.74,4.67,9.46,9.47,12.85,15.2,3.39,5.72,5.38,12.54,4.18,19.08,3.93-4.94,7.85-9.88,11.78-14.83.47-.59.95-1.2,1.1-1.94.22-1.04-.26-2.09-.73-3.04-3.69-7.47-7.91-14.67-12.62-21.54-4.15-6.05-9.51-12.33-16.81-13.07"/>
      <path class="cls-32" d="M1080.61,202.98c6.22-.09,11.55,4.36,15.61,9.07,8.49,9.85,14.21,22.06,16.36,34.89,3.61-3.36,7.22-6.71,10.83-10.07.34-.32.7-.66.8-1.11.11-.48-.09-.97-.28-1.42-1.51-3.56-3.02-7.12-4.53-10.68-1.74-4.1-3.49-8.22-5.95-11.93-6.72-10.11-17.94-16.12-28.71-21.73"/>
    </g>
    <path class="cls-22" d="M950.02,274.2c-8.73,4.96-14.09,14.23-17.82,23.55-19,47.48-4.97,101.35-18.51,150.67,14.4,2.17,25.55,5.5,40.19,6.04,5.42.2,15.87,4.31,16.37,2.9,2.12-5.94,1.03-23.79.85-30.1-1.47-53.07,11.47-106.46,37.07-152.97-3.15-1.76-6.56-5.8-10.16-5.83-16.09-.14-37.8-9.45-53.47,4.19"/>
    <g class="cls-30">
      <path class="cls-32" d="M917.83,322.28s55.16,9.38,81.55,2.28l.17,13.06s-63.23,6.74-79.87-4.06l-1.85-11.28Z"/>
      <path class="cls-32" d="M917,346.13s53.41,16.67,80.51,13.17l-1.57,12.96s-63.56-1.77-78.61-14.71l-.33-11.42Z"/>
      <path class="cls-32" d="M915.34,372.57s53.41,16.67,80.51,13.17l-1.57,12.96s-63.56-1.77-78.61-14.71l-.33-11.42Z"/>
      <path class="cls-32" d="M906.08,396.32s53.41,16.67,80.51,13.17l-1.57,12.96s-63.56-1.77-78.61-14.71l-.33-11.42Z"/>
      <path class="cls-32" d="M901.09,422.82s54.15,14.12,81.05,9.33l-.96,13.02s-63.57,1.25-79.22-10.96l-.87-11.39Z"/>
      <path class="cls-32" d="M922.86,295.84s55.16,9.38,81.55,2.28l.17,13.06s-63.23,6.74-79.87-4.06l-1.85-11.28Z"/>
      <path class="cls-32" d="M927.64,270.75s55.16,9.38,81.55,2.28l.17,13.06s-63.23,6.74-79.87-4.06l-1.85-11.28Z"/>
    </g>
    <path class="cls-53" d="M483.43,596.73s-9.28,26.84-13.11,41.32c-3.83,14.47-25.12,86.48-35.33,93.68-10.22,7.21,17.45,23.46,28.95,17.68l11.49-5.79s11.07,19.66,34.06,20.47c22.99.81,30.22-14.68,30.22-14.68,0,0,3.83,14.78,23.84,14.71s25.97-14.71,25.97-14.71c0,0,7.49,15.57,20.13,14.68,12.64-.89,22.05-14.68,22.05-14.68,0,0,13.58,11.81,28.48,2.16,0,0,6.84-4.97,6.83-10.93s-11.08-9.8-19.17-39.38c-8.09-29.58-26.14-100.42-38.19-109.7,0,0-53.92,20.9-126.22,5.17Z"/>
    <path class="cls-27" d="M499.64,599.79c-.98,9.32-2.39,18.64-4.32,27.81-.68,3.23-1.43,6.44-2.34,9.61-.79,2.73-1.89,5.34-2.75,8.04-2.11,6.64-2.89,13.69-3.9,20.56-.6,4.07-1.2,8.13-2.01,12.16-.7,3.46-1.52,6.99-2.98,10.22-.61,1.35,2.29,1.1,2.72.14,2.74-6.07,3.68-12.92,4.67-19.45,1.09-7.17,1.88-14.45,3.69-21.48.71-2.76,1.82-5.35,2.7-8.05.99-3.03,1.77-6.12,2.48-9.23,1.47-6.46,2.57-13,3.52-19.55.53-3.69,1.03-7.4,1.42-11.11.13-1.26-2.8-.76-2.91.32h0Z"/>
    <path class="cls-27" d="M503.72,600.9c-.09,25.36-1.39,50.71-3.92,75.94-.72,7.21-1.55,14.41-2.47,21.59-.19,1.46,2.77,1.08,2.93-.22,3.22-25.15,5.24-50.46,6.02-75.8.22-7.24.34-14.49.37-21.73,0-1.51-2.93-1.07-2.93.22h0Z"/>
    <path class="cls-27" d="M531.21,606.54c-.39,27.08-1.58,54.14-3.58,81.15-.56,7.59-1.19,15.18-1.88,22.76-.09,1.02,2.81.45,2.88-.42,2.45-27.01,4.1-54.08,4.95-81.19.24-7.69.41-15.38.52-23.08.01-.73-2.88-.25-2.9.78h0Z"/>
    <path class="cls-27" d="M535.9,598.56c-1.54,23.44-.83,47.03,2.13,70.33.84,6.61,1.86,13.2,3.06,19.76.22,1.21,3.13.48,2.9-.78-4.2-23.03-6.21-46.44-5.94-69.85.08-6.58.34-13.16.77-19.73.09-1.38-2.84-.9-2.92.28h0Z"/>
    <path class="cls-27" d="M571.88,600.62c1.73,26.05,2.05,52.2.97,78.29-.3,7.35-.72,14.69-1.25,22.03-.1,1.45,2.84,1.01,2.93-.24,1.87-26.22,2.34-52.53,1.39-78.8-.27-7.36-.65-14.71-1.14-22.06-.08-1.25-2.99-.58-2.9.78h0Z"/>
    <path class="cls-27" d="M574.25,599.39c-.89,28.26,1.4,56.6,6.82,84.35,1.54,7.88,3.34,15.71,5.37,23.48.15.59,3.06-.17,2.9-.78-7.17-27.35-11.28-55.48-12.19-83.74-.26-8.03-.26-16.06,0-24.09.01-.38-2.87-.03-2.9.78h0Z"/>
    <path class="cls-27" d="M598.5,592.46c1.75,25.41,6.86,50.54,15.28,74.58,2.4,6.86,5.07,13.62,7.99,20.27.59,1.35,3.47.54,2.9-.78-10.19-23.22-17.26-47.79-20.93-72.88-1.04-7.09-1.8-14.22-2.29-21.37-.11-1.59-3.04-1.2-2.95.18h0Z"/>
    <path class="cls-27" d="M593.7,593.01c-.85,19.27,3.4,38.19,5.53,57.24.61,5.44,1.03,10.9,1.13,16.38.02.93,2.92.36,2.9-.78-.34-19.11-4.8-37.8-6.3-56.8-.43-5.45-.6-10.93-.36-16.39.05-1.2-2.86-.63-2.9.35h0Z"/>
    <path class="cls-13" d="M482.7,582.87s30.18,2.8,56.85,3.74c35.39,1.25,68.53-10.56,68.53-10.56l1.56,15.51s-28.18,12.2-57.48,12.51-68.73-7.33-68.73-7.33l-.73-13.87Z"/>
    <path class="cls-28" d="M451.33,487.88c9.16-3.63,18.26-7.4,27.38-11.14l-38.6-49.11c-3.72-20.11-10.91-75.33-10.91-75.33l-20.05-.25s-11.34,66.27-4.69,85.01c1.51,4.24,9.42,12.89,19.08,32.34l17.37,22.51c3.48-1.32,6.95-2.66,10.42-4.03Z"/>
    <path class="cls-57" d="M484.42,555.58l-13.28-25.27-38.3-40.52,33.87-33.9s45.8,19.92,46.59,49.84l-28.87,49.84Z"/>
    <path class="cls-6" d="M835.03,628.48c3.16,79.51,8.45,156.33,23.52,237.49,0,0,77.45,18.75,88.26.95,0,0,7.49-130.46,43.42-227.92,31.65-85.82,223.71-92.37,199.33-100.15-38.39-12.25-257.08-31.2-304.66-16.83-31.54,9.53-51.96,53.73-49.87,106.45Z"/>
    <path class="cls-6" d="M1031.37,623.47c.54,3.37-.86,12.36.33,46.61,2.33,67.05-22.4,158.15-18.11,193.76-12.79,16.12-112.57,8.57-112.57,8.57-7.22-60.03-18.39-171.21-26.49-248.94h156.83Z"/>
    <path class="cls-43" d="M1092.55,225.85c27.46,5.48,50.37,47.2,42.81,71.7-7.87,58.69-39.88,142.31-64.73,163.62-30.46,26.12-196.62,33.94-196.62,33.94l-6.91-50.77,157.39-20.33s23.44-161.93,30.68-170.1"/>
    <path class="cls-48" d="M891.49,441.25c4.4-.56,8.81-1.11,13.21-1.67,10.58-1.34,21.15-2.67,31.73-4.01,12.79-1.62,25.59-3.23,38.38-4.85,11.06-1.4,22.11-2.79,33.17-4.19,5.36-.68,10.75-1.22,16.09-2.03.07-.01.15-.02.22-.03.3-.04,1.27-.26,1.34-.66.33-1.88.67-3.76,1-5.64.91-5.07,1.82-10.13,2.74-15.19,1.33-7.29,2.67-14.57,4.02-21.85,1.6-8.61,3.23-17.22,4.88-25.82,1.74-9.06,3.51-18.12,5.34-27.17,1.72-8.52,3.47-17.03,5.31-25.53,1.54-7.11,3.13-14.21,4.88-21.27,1.19-4.8,2.4-9.64,4.04-14.31.43-1.23.88-2.49,1.55-3.62.19-.32.31-.41.51-.83.41-.88.72-1.81,1.1-2.7,1.62-3.75,3.49-7.41,5.64-10.88,2.59-4.17,5.66-8.29,9.62-11.26,1.72-1.29,3.65-2.4,5.77-2.84.29-.06,1.31-.25,1.34-.66s-.68-.33-.93-.28c-9.63,2-15.91,11.18-20.3,19.28-1.59,2.94-3.03,5.97-4.26,9.08-.1.26-.19.53-.31.79-.03.07,0,0-.18.27-.28.42-.52.85-.74,1.31-1.7,3.62-2.67,7.64-3.69,11.49-1.74,6.49-3.25,13.04-4.72,19.6-1.84,8.23-3.58,16.48-5.27,24.74-1.86,9.08-3.66,18.16-5.43,27.26-1.74,8.93-3.44,17.87-5.12,26.82-1.46,7.8-2.91,15.61-4.34,23.42-1.06,5.8-2.11,11.6-3.15,17.41-.33,1.84-.66,3.67-.98,5.51-.17.95-.45,1.94-.52,2.9,0,.12-.04.24-.06.36l1.34-.66c-4.4.56-8.81,1.11-13.21,1.67l-31.73,4.01c-12.79,1.62-25.59,3.23-38.38,4.85-11.06,1.4-22.11,2.79-33.17,4.19-5.36.68-10.75,1.22-16.09,2.03-.07.01-.15.02-.22.03-.97.12-2.02,1.15-.4.94h0Z"/>
    <path class="cls-48" d="M1132.68,316.03c-3.3,20.52-8,40.83-13.29,60.92-4.68,17.8-10.04,35.43-15.86,52.9-2.68,8.04-5.63,16.03-9.39,23.64-3.6,7.29-7.99,14.47-14.08,19.96-3.16,2.85-6.95,5.03-10.58,7.22-2.53,1.52-5.45,2.23-8.25,3.08-2.57.78-5.14,1.53-7.73,2.24-7.08,1.92-14.26,3.53-21.55,4.39-4.61.54-9.24.78-13.87.89-7.45.17-14.9.34-22.36.5-11.45.26-22.9.52-34.35.77-12.41.28-24.82.56-37.23.84-10.43.24-20.87.47-31.3.71l-16.47.37c-.25,0-.5.01-.76.02l.66.19c-.75-3.87-1.51-7.73-2.26-11.6-.11-.54-2.42,0-2.3.62.75,3.87,1.51,7.73,2.26,11.6.05.23.51.19.66.19,3.92-.09,7.84-.18,11.76-.27,9.67-.22,19.33-.44,29-.65l37.06-.84,35.94-.81c8.55-.19,17.11-.39,25.66-.58,4.01-.09,7.97-.2,11.97-.49,5.73-.42,11.41-1.28,17.03-2.47,4.43-.94,8.82-2.06,13.18-3.29,2.71-.77,5.41-1.59,8.1-2.44s4.98-1.64,7.28-3.07c3.54-2.19,7.18-4.28,10.31-7.05,2.93-2.6,5.45-5.62,7.7-8.82,4.95-7.03,8.6-14.92,11.73-22.9,2.99-7.61,5.46-15.41,7.93-23.2,2.78-8.78,5.56-17.55,8.09-26.41,5.89-20.66,11.04-41.57,15.1-62.66.89-4.61,1.72-9.24,2.46-13.88.1-.61-2.17-.22-2.27.38h0Z"/>
    <path class="cls-48" d="M1023.58,423.48c10.11-2.45,21.48,3.18,25.79,12.62.34.74,2.59.02,2.3-.62-4.82-10.54-17.32-15.74-28.36-13.06-.31.08-1.13.39-1.01.84s1,.29,1.29.22h0Z"/>
  </g>
</svg>