<svg id="Layer_1" data-name="Layer 1" xmlns="http://www.w3.org/2000/svg" viewBox="0 0 276.41 269.13"><defs><style>.cls-1{fill:#0d4061;opacity:0.1;}.cls-2{fill:#02a1cd;}.cls-3{fill:#c9e1ef;}.cls-4{fill:#cae1f0;}.cls-5{fill:#27a6d1;}.cls-6{fill:#ec1e52;}.cls-7{fill:#514c49;}.cls-8{fill:#fff;}.cls-9{fill:#0c4162;}.cls-10{fill:#084568;}.cls-11{fill:none;stroke:#0d4161;stroke-linecap:round;stroke-miterlimit:10;stroke-width:2.61px;}.cls-12{fill:#188ab2;}.cls-13{fill:#a2cced;}</style></defs><ellipse class="cls-1" cx="137.24" cy="255.23" rx="87.69" ry="8.97"/><g id="Layer_1-2" data-name="Layer 1"><path class="cls-2" d="M49.19,130.4c.43-39.23,19.67-77.11,44.35-104C157.08-43,225.82,59,224.93,135.69c-.64,56.59-44,69.83-87.27,69.34S48.52,187,49.19,130.4Z"/><path class="cls-3" d="M4.5,52.33A10.29,10.29,0,0,1,3.57,47a13.18,13.18,0,0,1,.71-4,12.51,12.51,0,0,1,10.58-7.84,10.79,10.79,0,0,1,7.42,2l1.64,1.06a26.23,26.23,0,0,1,2.23,3.34l.07.11a.43.43,0,0,0,.61.14h0c.32-.14.22-.39.11-.6a8.51,8.51,0,0,0-.89-1.46,1.19,1.19,0,0,1,0-1.53,5.71,5.71,0,0,0,1.7-.63A7.2,7.2,0,0,1,35.56,39,9.66,9.66,0,0,1,39,44.84a9.54,9.54,0,0,1-.18,3c-1-.5-1.81-1.24-2.73-1.81l-.75-.43a.33.33,0,0,0-.42.15.36.36,0,0,0,0,.46,2.5,2.5,0,0,0,.46.39c1.13.82,2.31,1.63,3.48,2.48.14.11.28.15.39,0a2.74,2.74,0,0,0,1.6,1.42,28.15,28.15,0,0,0,5.75,1.92,65.61,65.61,0,0,0,10.15,1.52c1.56.11,3.16.14,4.76.32,1.06.14,1.06.14,1,1.21,0,.32-.07.64-.11,1C62.19,57.52,62,57.7,61,57.66c-6-.18-11.83.75-17.72,1.6-1.31.21-2.63.39-3.94.6-.25,0-.5,0-.67.25a2.37,2.37,0,0,0-1.32,0c-1.31.22-2.66.4-4,.61-.29,0-.57.1-.86.14a.39.39,0,0,0-.32.32.34.34,0,0,0,.29.39h.07a2.12,2.12,0,0,0,.71,0c1.49-.21,3-.46,4.47-.71a1.42,1.42,0,0,0,.89-.35,6.64,6.64,0,0,1,2.56,3.76,8,8,0,0,1-6,10.29,7.83,7.83,0,0,1-6.18-1.27.88.88,0,0,0-1.35.17,11.82,11.82,0,0,1-11.14,3.59A8.6,8.6,0,0,1,9.75,71.4a14.69,14.69,0,0,1-.81-4.79l2.66.32a2.42,2.42,0,0,0,.71,0,.38.38,0,0,0,.21-.25.55.55,0,0,0-.14-.32c-.18-.18-.46-.14-.71-.14a11.46,11.46,0,0,1-3.05-.6c-2.56-.18-4.9-2.81-5.44-5A6.61,6.61,0,0,1,4,55.14c.14-.25.28-.5.39-.75.46,0,.71.36,1,.61.49.42.88,1,1.56,1.1.18-.75.21-.75-.25-1.14A6.71,6.71,0,0,1,4.5,52.33Zm19.88,5.51A13.62,13.62,0,0,1,27.43,59a4.89,4.89,0,0,1,2.63,5.65,9.33,9.33,0,0,1-.39,1.28c-.07.28-.21.6.14.74s.46-.21.57-.46c1.45-3.3.46-6.11-2.38-7.85-.32-.21-.75-.28-.92-.71.1-.1.21-.17.32-.28a10.15,10.15,0,0,0,4-7.7,4.68,4.68,0,0,0-3.05-5c-.28-.11-.57-.25-.71.14s.07.46.32.57.39.14.57.24a4,4,0,0,1,2.09,3.27,6.73,6.73,0,0,1-.42,2.88c-.89,2.8-2.38,5.14-5.58,5.75C24.59,57.59,24.56,57.66,24.38,57.84Zm29.93-3.06a40.28,40.28,0,0,1-4.69-.17c-4.65-.18-9.3-.32-13.95-.25a23.28,23.28,0,0,0-4.16.28c-.24,0-.49.18-.42.5s.28.32.57.28a40.21,40.21,0,0,1,5.5-.28c4.05-.07,8.09.11,12.14.21l4.9.22c.28,0,.6,0,.6-.4S54.56,54.78,54.31,54.78Z"/><path class="cls-4" d="M270.23,56.56a1,1,0,0,1,.46.39c1.63,2.34,1.49,6.89-1.17,8.88A6.26,6.26,0,0,1,266,67.46a13.94,13.94,0,0,1-2.77.46c-.43,0-1.28-.36-1.24.46,0,.57.85.39,1.35.43.71,0,1.34-.39,2-.25a10.48,10.48,0,0,1-4,8.55,7.17,7.17,0,0,1-3.48,1.42,11.61,11.61,0,0,1-9.44-2.3,12.42,12.42,0,0,1-2-1.81.79.79,0,0,0-1.24-.18,8.15,8.15,0,0,1-3.91,1.24A8.33,8.33,0,0,1,235.19,73c-2.42-2.24-2.88-6.71-1.14-9.62a6.08,6.08,0,0,1,1.88-2.06,8.55,8.55,0,0,1,.86.14l5.14,1c.25,0,.5.14.61-.21s-.11-.53-.43-.6-.39-.11-.6-.15l-5.65-1.13c-3.48-.68-7-1.39-10.43-2.06s-7.07-1.1-10.62-1.49h-.6c-1.35.1-1.32.07-1.39-1.32-.1-2-.35-1.88,1.64-1.88a84.45,84.45,0,0,0,9.55-.42,39.14,39.14,0,0,0,9.76-2.06,7.67,7.67,0,0,0,2.8-1.71L239,48c.49-.29,1-.64,1.42-.93.21-.14.42-.28.28-.56s-.46-.29-.74-.15a4.85,4.85,0,0,0-.64.4c-.93.6-1.85,1.2-2.77,1.77a9.13,9.13,0,0,1,3.05-8.34.64.64,0,0,1,.21-.14c.43-.18.07-.93.54-1,1.66-.18,3-1.49,4.75-1.25A10.08,10.08,0,0,1,249,39c.43.25.86.46,1.32.67a3.87,3.87,0,0,1-.64,1.18c-.32.46-.64.92-1,1.42-.14.21-.18.49.07.64a.52.52,0,0,0,.64-.18,2.66,2.66,0,0,0,.36-.5,11,11,0,0,1,2.05-2.56c.11-.07.08-.21,0-.31,1.1-.5,2.1-1.21,3.23-1.67a11.55,11.55,0,0,1,11.37,1.2,11.83,11.83,0,0,1,5.46,10.33,9.09,9.09,0,0,1-1.67,5.76,2,2,0,0,1-.81,1c-.46.39-.93.78-1.42,1.13s-.57.53-.29.89.61,0,.86-.18C269.2,57.45,269.63,56.84,270.23,56.56Zm-22.47,2.06a2.14,2.14,0,0,1-.93.64c-3.12,1.67-3.83,4.4-2.84,7.63a2.92,2.92,0,0,0,.18.46.4.4,0,0,0,.53.18.38.38,0,0,0,.29-.46v0L244.67,66a4.75,4.75,0,0,1,1.81-5.43,8.79,8.79,0,0,1,3.34-1.46c.24-.07.6,0,.71-.32-.08-.21-.25-.21-.4-.25a6,6,0,0,1-3.69-2.66,10.17,10.17,0,0,1-1.67-4.79c-.17-2.06.47-3.8,2.6-4.62l.24-.07a.44.44,0,0,0,.29-.53s0,0,0,0c-.07-.32-.32-.32-.57-.21A4.56,4.56,0,0,0,244.38,48c-.78,1.67-.46,3.37-.1,5a9.06,9.06,0,0,0,3.48,5.54ZM221,54.39h0l-.25,0a.49.49,0,0,0-.53.43V55c0,.36.28.32.53.32.74,0,1.49-.07,2.2-.07,3.48.07,6.92.14,10.4.25a62.71,62.71,0,0,1,9.87.74c.36.08.71.15.78-.32s-.35-.49-.64-.56c-.81-.15-1.59-.25-2.41-.32-3.09-.29-6.21-.39-9.3-.43C228.12,54.54,224.54,54.46,221,54.39Z"/><path class="cls-5" d="M75.89,24.22a1,1,0,0,1-.18.28.35.35,0,0,1-.49.11,0,0,0,0,1,0,0l-1.52-1.2c-2.35-1.85-4.69-3.73-7-5.58a3.59,3.59,0,0,1-.57-.46.44.44,0,0,1-.1-.6s0,0,0-.07c.18-.18.36-.15.57,0a3.79,3.79,0,0,1,.5.35c2.77,2.17,5.5,4.37,8.23,6.57C75.5,23.76,75.79,23.9,75.89,24.22Z"/><path class="cls-5" d="M195,20c-.35,0-.46-.39-.21-.82.85-1.49,1.74-2.95,2.59-4.44l1.49-2.52c.15-.25.29-.67.71-.35s.15.5,0,.74c-.56,1-1.17,2.06-1.77,3.06-.75,1.27-1.46,2.55-2.2,3.8C195.43,19.71,195.36,20,195,20Z"/><path class="cls-5" d="M214,36.93l-3.3.17h-.36c-.35,0-.57-.14-.53-.49s.28-.32.53-.36l3.77-.21c1.24-.07,2.52-.14,3.76-.18.28,0,.64-.07.67.32s-.28.53-.64.53c-1.31,0-2.59.11-3.9.15Z"/><path class="cls-5" d="M73.94,29.86c-1.63-.39-3.2-.74-4.72-1.1l-2.74-.64c-.28-.07-.6-.18-.49-.53s.39-.32.67-.25l7.24,1.71s.07,0,.11,0c.25.07.5.11.46.43S74.15,29.9,73.94,29.86Z"/><path class="cls-5" d="M214.92,28.48c0,.21-.18.32-.36.46l-4.83,4.47c-.21.22-.42.43-.71.11s-.07-.53.15-.71c1.66-1.56,3.33-3.09,5-4.65.14-.11.25-.18.42-.07A.77.77,0,0,1,214.92,28.48Z"/><path class="cls-5" d="M235.83,60.29l5.64,1.13c.22,0,.39.11.61.14s.53.25.42.61-.35.25-.6.21l-5.15-1a8.36,8.36,0,0,0-.85-.14A1.89,1.89,0,0,1,235.83,60.29Z"/><path class="cls-5" d="M38.65,60.61a1.42,1.42,0,0,1-.89.35c-1.49.25-3,.46-4.47.71a2.12,2.12,0,0,1-.71,0,.34.34,0,0,1-.36-.35v-.07a.34.34,0,0,1,.32-.32c.29,0,.57-.11.86-.15,1.31-.21,2.66-.39,4-.6a2.81,2.81,0,0,1,1.32,0Z"/><path class="cls-5" d="M203.73,19a.78.78,0,0,1-.35.54c-1.1.92-2.2,1.77-3.3,2.69a.5.5,0,0,1-.64.08l-.11-.11c-.21-.28-.07-.43.14-.6L203,18.79c.18-.15.35-.22.53,0A2.27,2.27,0,0,1,203.73,19Z"/><path class="cls-5" d="M26.05,38.17a1.23,1.23,0,0,0,0,1.53A12,12,0,0,1,27,41.15c.11.21.21.46-.11.61a.49.49,0,0,1-.64-.11v0l-.07-.1a30.32,30.32,0,0,0-2.23-3.34A6.91,6.91,0,0,1,26.05,38.17Z"/><path class="cls-5" d="M39.25,49a.26.26,0,0,1-.39,0c-1.13-.82-2.3-1.63-3.48-2.49a2.44,2.44,0,0,1-.46-.39.39.39,0,0,1,0-.46.33.33,0,0,1,.43-.14,6.17,6.17,0,0,1,.74.43,31.64,31.64,0,0,0,2.74,1.81A3.5,3.5,0,0,1,39.25,49Z"/><path class="cls-5" d="M236.5,48.43c.92-.6,1.85-1.21,2.77-1.78.21-.14.43-.24.64-.39s.57-.21.75.15-.08.46-.29.56c-.46.32-1,.64-1.42.93-.78.49-1.6,1-2.41,1.45Z"/><path class="cls-5" d="M251.84,39.23c.11.11.14.22,0,.32a11.09,11.09,0,0,0-2.06,2.56,2.28,2.28,0,0,1-.36.5.5.5,0,0,1-.63.17c-.29-.14-.22-.42-.08-.63a13.59,13.59,0,0,1,1-1.42,3.67,3.67,0,0,0,.64-1.18Z"/><path class="cls-5" d="M4.5,52.33A7.92,7.92,0,0,0,6.84,55.1c.46.39.43.39.25,1.14a4.37,4.37,0,0,1-1.56-1.1c-.32-.25-.57-.6-1-.6A6.55,6.55,0,0,1,4.5,52.33Z"/><path class="cls-5" d="M265.36,68.52c-.71-.14-1.34.29-2,.25-.5,0-1.31.14-1.35-.42-.07-.82.78-.39,1.24-.47a14.7,14.7,0,0,0,2.77-.46C265.79,67.81,265.76,68.24,265.36,68.52Z"/><path class="cls-5" d="M270.23,56.56a19.34,19.34,0,0,0-1.63,1.24c-.25.14-.54.53-.86.18s-.07-.64.29-.89,1-.78,1.42-1.13a2,2,0,0,0,.81-1c0,.28.08.56.15.85a.21.21,0,0,0-.11.28h0C270.26,56.2,270.26,56.38,270.23,56.56Z"/><path class="cls-5" d="M8.69,65.65a13.05,13.05,0,0,0,3.12.6,1,1,0,0,1,.71.14.46.46,0,0,1,.14.32.34.34,0,0,1-.21.25,4.23,4.23,0,0,1-.71,0l-2.66-.32C8.83,66.36,8.58,66,8.69,65.65Z"/><path class="cls-4" d="M270.3,56.06a.19.19,0,0,1,.11-.28h0A.41.41,0,0,1,270.3,56.06Z"/><path class="cls-5" d="M24.38,57.84c.18-.18.18-.25.21-.25,3.2-.6,4.69-2.91,5.58-5.75A7.9,7.9,0,0,0,30.59,49,3.86,3.86,0,0,0,28.5,45.7a2.66,2.66,0,0,0-.57-.25c-.25-.11-.43-.32-.32-.57s.43-.25.71-.14a4.67,4.67,0,0,1,3,5,10.19,10.19,0,0,1-4,7.7c-.11.11-.21.18-.32.29.14.42.6.49.92.71,2.84,1.73,3.84,4.54,2.38,7.84-.1.25-.17.6-.56.46s-.22-.46-.15-.74A12.49,12.49,0,0,0,30,64.69,4.83,4.83,0,0,0,27.4,59,10.54,10.54,0,0,0,24.38,57.84Z"/><path class="cls-5" d="M54.31,54.78a.42.42,0,0,1,.46.43c0,.39-.32.43-.61.39-1.63-.07-3.26-.18-4.89-.21-4.05-.14-8.1-.29-12.15-.22a42.33,42.33,0,0,0-5.5.29c-.28,0-.5,0-.57-.29s.18-.42.43-.49a23.18,23.18,0,0,1,4.15-.29c4.65-.07,9.3.07,14,.25C51.18,54.68,52.71,54.86,54.31,54.78Z"/><path class="cls-5" d="M247.76,58.62a9.3,9.3,0,0,1-3.52-5.54c-.35-1.67-.67-3.37.11-5a4.53,4.53,0,0,1,2.91-2.45c.25-.07.5-.11.57.21a.43.43,0,0,1-.22.57s0,0,0,0l-.25.07c-2.13.81-2.8,2.55-2.59,4.61a10.32,10.32,0,0,0,1.67,4.83,5.75,5.75,0,0,0,3.69,2.66c.14,0,.32,0,.39.25-.11.36-.46.25-.71.32a8.85,8.85,0,0,0-3.34,1.46A4.76,4.76,0,0,0,244.63,66L245,67.1a.34.34,0,0,1-.25.46h0a.44.44,0,0,1-.54-.17,1.68,1.68,0,0,1-.17-.46c-1-3.23-.29-5.93,2.84-7.64A2.38,2.38,0,0,0,247.76,58.62Z"/><path class="cls-5" d="M221,54.39c3.55,0,7.1.11,10.65.18,3.12,0,6.21.18,9.3.43.82.07,1.63.21,2.41.32.32,0,.71.1.64.56s-.42.4-.78.32a66.52,66.52,0,0,0-9.87-.74c-3.48-.11-6.92-.18-10.4-.25-.75,0-1.46,0-2.2.07-.25,0-.53,0-.53-.32a.46.46,0,0,1,.39-.53h.1l.29,0Z"/><polyline class="cls-2" points="145.19 198.07 151.12 245.32 160.63 245.32 166.6 198.07"/><polyline class="cls-2" points="109.12 197.93 115.05 245.32 123.96 245.32 129.93 198.07"/><polygon class="cls-6" points="159.96 255.05 152.15 255.05 149.52 234.85 161.91 234.85 159.96 255.05"/><polygon class="cls-6" points="122.65 254.91 116.36 254.91 113.7 234.71 125.49 234.71 122.65 254.91"/><path class="cls-7" d="M98.33,255.19a12,12,0,0,1,24,0"/><path class="cls-7" d="M151.9,255.19a12,12,0,0,1,24,0v0"/><path class="cls-8" d="M134.11,63.06a10.77,10.77,0,0,1-21.54.32V63"/><path class="cls-9" d="M128,63a4.67,4.67,0,0,1-4.79,4.51A4.61,4.61,0,0,1,118.71,63"/><path class="cls-8" d="M166.28,63.06a10.78,10.78,0,0,1-21.55.32V63"/><path class="cls-9" d="M160.17,63a4.67,4.67,0,0,1-9.33,0"/><path class="cls-10" d="M127.4,84.46a24.8,24.8,0,0,1,4.41.89c1.49.39,3,.82,4.54,1.14a17.59,17.59,0,0,0,8.34-.39,42.48,42.48,0,0,1,6.93-1.53,10.33,10.33,0,0,1,7.63,2.06c.6.5,1.17,1,1.74,1.6.25.25.53.53.07.85s-.74.71-1.28.28c-.28-.25-.6-.53-.85-.78a8.88,8.88,0,0,0-7.88-2.27,33.38,33.38,0,0,0-5.57,1.31,18.86,18.86,0,0,1-10.58.25c-1.78-.42-3.52-1-5.29-1.38a7.26,7.26,0,0,0-8,2.48c-.39.5-.71.64-1.32.25s-.63-.64-.21-1.1A9,9,0,0,1,127.4,84.46Z"/><path class="cls-11" d="M116.19,50.88s7,6.89,13.7-.6"/><path class="cls-11" d="M147.78,49.67s5.65,7.74,13.64,1.6"/><path class="cls-12" d="M78.81,63.78a3.27,3.27,0,0,0-4.4-1.37C73,63.16,39.66,80.89,36,101.28c-1.64,9.15,5.76,17.38,10.66,22.82.91,1,1.8,2,2.45,2.82.18-3.13.5-6.28.81-8.93-4-4.55-8.46-10.26-7.51-15.56,3.09-17.27,34.7-34.09,35-34.26A3.25,3.25,0,0,0,78.81,63.78Z"/><path class="cls-12" d="M237.57,103.86c-2.16-20.57-31.51-40-32.76-40.86a3.25,3.25,0,1,0-3.57,5.44,117.69,117.69,0,0,1,14.51,11.72c9.3,8.87,14.61,17.3,15.35,24.37.56,5.52-3.43,11.16-7.1,15.53.3,2.94.56,6.19.63,9.24.53-.65,1.19-1.41,1.94-2.26C231.05,122,238.55,113.43,237.57,103.86Z"/><path class="cls-13" d="M215.7,66.29c1.35,2.3,1,5.61-1.21,8.23-2.77,3.34-7.38,4.37-10.29,2.31L197,71.72a.57.57,0,0,1-.14-.11.11.11,0,0,0-.07,0l-9.69-6.93a1.79,1.79,0,0,1-.07-2.59,2.07,2.07,0,0,1,2.7-.6L195,65.22a7,7,0,0,1,.63-1.63l-6.31-4.51a1.79,1.79,0,0,1-.08-2.59,2.08,2.08,0,0,1,2.7-.61l6.32,4.51a6.94,6.94,0,0,1,1.39-.88l-5.44-3.87a1.78,1.78,0,0,1-.07-2.6,2.09,2.09,0,0,1,2.7-.6l9.05,6.46a7.77,7.77,0,0,1,1,.5l-1.24-1.85a2,2,0,0,1,.71-2.62h0a1.78,1.78,0,0,1,2.59.17Z"/><path class="cls-13" d="M63.22,64.94c-1.49,2.2-1.39,5.5.6,8.31,2.52,3.55,7.07,4.89,10.08,3l7.53-4.58s.11-.07.14-.11a.11.11,0,0,0,.07,0L91.8,65.36a1.74,1.74,0,0,0,.25-2.55A2,2,0,0,0,89.42,62L83.88,65.4a8.69,8.69,0,0,0-.5-1.67l6.64-4a1.74,1.74,0,0,0,.25-2.55,2,2,0,0,0-2.63-.78l-6.64,4a9.18,9.18,0,0,0-1.31-1l5.72-3.48a1.75,1.75,0,0,0,.24-2.56A2.05,2.05,0,0,0,83,52.58l-9.52,5.79a6.84,6.84,0,0,0-1,.43l1.39-1.74a2,2,0,0,0-.53-2.7h0a1.78,1.78,0,0,0-2.6,0Z"/></g></svg>