<svg id="Layer_1" data-name="Layer 1" xmlns="http://www.w3.org/2000/svg" viewBox="0 0 348 282.35"><defs><style>.cls-1{fill:#f8d979;}.cls-2{fill:#ffcb05;}.cls-3{fill:#0aa0cc;}.cls-21,.cls-4{fill:#fff;}.cls-12,.cls-17,.cls-19,.cls-22,.cls-23,.cls-25,.cls-28,.cls-29,.cls-5{fill:none;stroke-miterlimit:10;}.cls-5{stroke:#0d4061;stroke-width:2.71px;}.cls-12,.cls-28,.cls-29,.cls-5{stroke-linecap:round;}.cls-6{fill:#0d4061;}.cls-7{fill:#57c4cf;}.cls-8{fill:#504b48;}.cls-9{fill:#f8ac1c;}.cls-10{fill:#7d3a1b;}.cls-11{fill:#572513;}.cls-12{stroke:#1c89b1;stroke-width:9.18px;}.cls-13{fill:#a1cbec;}.cls-14{fill:#679648;}.cls-15{fill:#70a44f;}.cls-16{fill:#89bd68;}.cls-17{stroke:#70a44f;stroke-width:0.43px;}.cls-18{fill:#a1caeb;}.cls-19{stroke:#91bedd;stroke-width:1.22px;}.cls-20{fill:#eab8d5;}.cls-21{opacity:0.47;}.cls-22{stroke:#fff;stroke-width:0.34px;}.cls-23{stroke:#cc91b5;stroke-width:0.66px;}.cls-24{fill:#faed24;}.cls-25{stroke:#c6b72f;stroke-width:0.13px;}.cls-26{fill:#e59525;}.cls-27{fill:#0e272d;}.cls-28,.cls-29{stroke:#198ab1;}.cls-28{stroke-width:5.11px;}.cls-29{stroke-width:4.88px;}</style></defs><polyline class="cls-1" points="0.52 283.03 0.52 0.68 348.52 0.68 348.52 283.03"/><rect class="cls-2" x="0.52" y="239.65" width="348" height="43.38"/><path class="cls-3" d="M11.83,108.51C13.29,151.75,50.66,211.43,92.13,210c43.69-1.47,74.77-62.59,73.31-105.83S129.26,52,86.85,53.42,10.37,65.26,11.83,108.51Z"/><path class="cls-4" d="M144,109.44a12.54,12.54,0,1,0-25.06.85"/><path class="cls-4" d="M106.64,110.7a12.54,12.54,0,0,0-25.07.84"/><path class="cls-5" d="M129.43,88s2.16,8,10.94,5.27"/><path class="cls-5" d="M92.87,89.62s-2.78,8-11.39,4.8"/><path class="cls-6" d="M128.21,126.38S126,117.22,111.84,118s-15,9.48-15,9.48Z"/><polyline class="cls-3" points="108.45 257.85 113.94 202.25 96.5 202.25 103.62 259.46 107.85 255.35"/><polygon class="cls-7" points="100 230.24 111.48 230.24 108.66 259 102.81 259 100 230.24"/><path class="cls-8" d="M121.13,259.46c0-4.31-4.12-7.81-9.2-7.81s-9.2,3.5-9.2,7.81"/><polyline class="cls-3" points="86.06 257.85 91.55 202.25 74.1 202.25 81.23 259.46 85.45 255.35"/><polygon class="cls-7" points="77.6 230.24 89.09 230.24 86.26 259 80.42 259 77.6 230.24"/><path class="cls-8" d="M98.6,259.46c0-4.31-4.12-7.81-9.2-7.81s-9.2,3.5-9.2,7.81"/><path class="cls-6" d="M90.47,111.23a6.32,6.32,0,1,1,12.63-.51"/><path class="cls-6" d="M127.77,110.21a6.32,6.32,0,1,1,12.63-.51"/><path class="cls-4" d="M193.42,117.56a27.29,27.29,0,0,1-12.9-17.85,27.45,27.45,0,0,1,7-25.07c1-1.07,1-1.14.25-2.55a27,27,0,0,1,2.78-31.22c5.4-6.34,12.68-9.93,20.28-10a55.59,55.59,0,0,1,5.87.26c.69,0,1.07-.17,1.23-1a17.44,17.44,0,0,1,.73-2.71,28.14,28.14,0,0,1,50.46-6.28,1.28,1.28,0,0,0,.16.28.88.88,0,0,0,1.39.1,29,29,0,0,1,11-4.46A27.88,27.88,0,0,1,299.9,20a27.69,27.69,0,0,1,14.5,27.19c-.11,1,.13,1.35.94,1.56a43.22,43.22,0,0,1,6.5,1.94A27.78,27.78,0,0,1,335.28,63a26.57,26.57,0,0,1,3,17.09,27,27,0,0,1-12.07,19A25.74,25.74,0,0,1,316,103.28c-1.15.21-1.35.55-1.15,1.9a26.3,26.3,0,0,1-1.48,13.69,27.48,27.48,0,0,1-15.19,15.76,27.19,27.19,0,0,1-15.25,2,28.12,28.12,0,0,1-15.06-7.16l-.16-.17a1,1,0,0,0-1.58.26,28,28,0,0,1-25.34,9.29,27.22,27.22,0,0,1-12.57-5.27A27.52,27.52,0,0,1,218.79,121c-.4-1.07-.9-1.25-1.8-1a27,27,0,0,1-9.11,1.63A28.15,28.15,0,0,1,193.42,117.56Z"/><path class="cls-4" d="M176.67,76.43a5.79,5.79,0,1,1,5.87-5.74A5.83,5.83,0,0,1,176.67,76.43Z"/><path class="cls-4" d="M168.38,80.1a3,3,0,1,1,3-3v.08a3,3,0,0,1-3,3Z"/><polygon class="cls-9" points="311.05 204 222.5 204 222.5 216.33 227.63 216.33 227.63 260.84 235.64 260.84 235.64 216.33 298.8 216.33 298.8 260.84 306.64 260.84 306.64 216.33 311.05 216.33 311.05 204"/><path class="cls-10" d="M293.14,167.56a1,1,0,0,0,.38.54,8.4,8.4,0,0,1,3.29,4.86,7.27,7.27,0,0,1,.13,1.55q-.18,13.22-.37,26.45a4.4,4.4,0,0,1-.85,2.69,2,2,0,0,1-1.71.84l-10.5-.15a2,2,0,0,1-1.89-1.23,5.72,5.72,0,0,1-.55-2.24q.14-13.38.36-26.75c.05-2.67,1.51-4.56,3.55-6.08l1.64-9.38c.09-1,.17-2,.26-3-1-.52-1-1.23-.2-1.88.26-.2.27-.71.41-1.11l-.69-.18v-.87l6.19.09v.88l-.53.08c-.06.56-.16,1,.47,1.43s.36,1.23-.5,1.63c.09,1.57.18,3.17.28,4.76Z"/><rect class="cls-11" x="281.24" y="177.06" width="15.53" height="19.23" transform="translate(2.71 -4.12) rotate(0.82)"/><path class="cls-10" d="M271.11,166.89a.94.94,0,0,0,.38.54,8.4,8.4,0,0,1,3.29,4.86,7.27,7.27,0,0,1,.13,1.55q-.18,13.23-.37,26.45a4.46,4.46,0,0,1-.85,2.69,2,2,0,0,1-1.71.84l-10.5-.15a2,2,0,0,1-1.9-1.23,5.89,5.89,0,0,1-.54-2.24q.13-13.37.36-26.75c.05-2.67,1.51-4.56,3.55-6.08l1.64-9.38c.09-1,.17-2,.25-3-1-.53-1-1.24-.19-1.89.25-.2.27-.7.41-1.11l-.69-.18v-.87l6.19.09v.88L270,152c-.07.56-.17,1,.46,1.43s.37,1.24-.49,1.63c.09,1.57.18,3.17.28,4.76Z"/><rect class="cls-11" x="259.21" y="176.39" width="15.53" height="19.23" transform="translate(2.69 -3.81) rotate(0.82)"/><path class="cls-12" d="M231.56,76c-5.6,2.64-10,7.42-15.27,10.66-15.57,9.56-38.18-3.35-38.18-3.35"/><path class="cls-13" d="M222.23,76.46c-1.37-3.7,2.42-8.5,4.07-11.38,3.36-5.83,5.45-11.51,3.94-18.1a7.32,7.32,0,0,1-.23-4.17c.87-2.19,4-2.7,6-1.55,2.55,1.45,4.06,4.77,4.8,7.49.22,1.14,1.3,7.54-.11,8.24a62.08,62.08,0,0,1,8.07-3.74c5.32-2,8.08-3.06,10-1.7a5.42,5.42,0,0,1,1.51,5.94,6.84,6.84,0,0,1-2.15,3,5.75,5.75,0,0,1,2.45,7.74A6.45,6.45,0,0,1,259,70.12a4.33,4.33,0,0,1,2.42,2.64,5.33,5.33,0,0,1-.75,4.11c-3.21,5.82-15.83,8.79-19.92,9.65a86.07,86.07,0,0,1-11.3,1.59,3.73,3.73,0,0,1-3.75-2.38Z"/><polygon class="cls-14" points="233.24 39.86 235.94 80.8 257.44 79.34 254.74 38.41 233.24 39.86"/><polygon class="cls-15" points="234.4 40.24 235.88 81.24 257.42 80.43 255.94 39.43 234.4 40.24"/><polygon class="cls-16" points="235.25 41.33 236.73 82.33 258.27 81.52 256.79 40.52 235.25 41.33"/><polygon class="cls-17" points="237.34 43.26 238.68 80.39 256.18 79.73 254.84 42.6 237.34 43.26"/><path class="cls-13" d="M244.11,66.92a2.93,2.93,0,0,1,1.24-1.17c1.86-.91,10-3.62,10-3.62s-7.13,1.7-9.81,1.16c-.92.12-1.63-1-1.72-1.45a3.15,3.15,0,0,1,.13-2.59,4.65,4.65,0,0,1,1.14-1.45,23.16,23.16,0,0,1,5.78-3.59c.78-.38,4.68-3.23,5.53-3.24,1.41,0,2,.12,2.53,1.62.31.92-1,6.42-1.05,7.41,0,1.43.78.57.77,2,0,1.05-.25,6.36-.07,7.4.46,2.75.59,2.06.73,4.89a5.5,5.5,0,0,1,0,1.52,2.29,2.29,0,0,1-.86,1.23,4.8,4.8,0,0,1-1.86.71l-4.68,1.09a6.22,6.22,0,0,1-3.62.12,3.8,3.8,0,0,1-2.15-2.33,2.27,2.27,0,0,1,.16-2.1,2.22,2.22,0,0,1,.91-.61l.27-.11c2.55-1,6.91-1.62,9.31-3-3.1.33-7.38,1.69-10.49,1.69a4.11,4.11,0,0,1-1.57-.19c-.34-.2-.52-.16-.72-.53a4.41,4.41,0,0,1-.45-3C243.67,68.13,243.93,67.54,244.11,66.92Z"/><path class="cls-12" d="M293.78,91c1.32,2.81,35.78-4.67,44.49-27.51"/><path class="cls-18" d="M269.68,81.25h-.15a2.56,2.56,0,0,0-2.29,2.82h0a2.92,2.92,0,0,0,2.77,2.8h3.43a8,8,0,0,0-1.5.72L255.87,93a2.86,2.86,0,0,0,1.83,5.4l9.62-3.26c-.08.74,0,.23,0,1L255.65,100a2.85,2.85,0,0,0,1.82,5.38l11.2-3.78c.43.71-.25.29.35.87l-9.35,3.16a2.91,2.91,0,0,0,1.88,5.47l16.05-3.22s13.95-4.92,14.83-5.32c5.32-2.13,8.94-7.63,6.88-13A11,11,0,0,0,289.8,82"/><path class="cls-19" d="M276.46,88.08s1.91,7.34,8.11,10.14"/><circle class="cls-20" cx="268.95" cy="94.48" r="2.54"/><circle class="cls-20" cx="274.67" cy="96.88" r="2.54"/><rect class="cls-21" x="278.63" y="85.71" width="9.5" height="13.94" transform="translate(2.39 -7.01) rotate(1.42)"/><path class="cls-4" d="M286.85,98.75l-7.41-.18.14-6h.64a2.91,2.91,0,0,1,2,.87h0a2.24,2.24,0,0,0,1.47.65l1.63.07a4.62,4.62,0,0,1,.65.08l1,.21Z"/><line class="cls-22" x1="278.76" y1="87.51" x2="288.25" y2="87.87"/><line class="cls-23" x1="275.1" y1="95.13" x2="274.24" y2="98.63"/><line class="cls-23" x1="267.39" y1="93.42" x2="270.3" y2="95.55"/><path class="cls-24" d="M270.87,103.4a.62.62,0,0,1,.45-.74l-.14-.56a.61.61,0,1,1-.29-1.18l-.12-.49A.6.6,0,0,1,270,100a.61.61,0,0,1,.45-.74l-.18-.72-.75.19a.61.61,0,1,1-1.19.29l-.48.12a.61.61,0,0,1-1.19.29l-.56.14a.61.61,0,0,1-1.19.29l-.67.17.17.67h0a.6.6,0,0,1,.74.44.61.61,0,0,1-.45.74h0l.12.48h0a.61.61,0,0,1,.29,1.19h0l.14.56h0a.61.61,0,0,1,.29,1.19h0l.18.76.68-.17a.61.61,0,1,1,1.19-.29l.56-.14a.61.61,0,1,1,1.19-.29l.48-.12a.61.61,0,1,1,1.19-.29l.75-.18-.18-.72A.61.61,0,0,1,270.87,103.4Z"/><circle class="cls-25" cx="268.03" cy="102.29" r="1.96"/><path class="cls-1" d="M332,58.18s6.78,8.14,6.58,16.57,6-6.11,6-6.11l-2.11-11.16Z"/><path class="cls-1" d="M183.93,79.2a25.51,25.51,0,0,0-4.11,16.47c1,9.53-10.36-11.51-10.36-11.51l5.06-7Z"/><polyline class="cls-9" points="215 260.68 209.36 260.68 209.36 236.38 163.92 236.38 163.92 260.68 158.16 260.68 158.16 234.11 158.25 234.11 158.25 228.93 215 228.93 215 234.18"/><rect class="cls-26" x="153.79" y="217.36" width="66.05" height="13.21" rx="3.99"/><polygon class="cls-9" points="348.52 229.55 318.02 229.55 318.02 234.73 317.92 234.73 317.92 261.31 323.69 261.31 323.69 237 348.52 237 348.52 229.55"/><path class="cls-26" d="M348.52,218h-31a4,4,0,0,0-4,4v5.22a4,4,0,0,0,4,4h31Z"/><rect class="cls-27" x="61.48" y="105.28" width="16.93" height="33.86" rx="3.81" transform="translate(-37.5 31.2) rotate(-19.95)"/><path class="cls-28" d="M41.21,150.61s23.77,37.54,27-16.8"/><path class="cls-13" d="M61.8,137.66c.51,2.05,2.63,3.75,5.44,4.12,3.57.47,7-1.39,7.52-4.14l1.38-6.79s0-.09,0-.14,0-.05,0-.07l1.87-9.16c.14-.72-.5-1.41-1.44-1.53a1.69,1.69,0,0,0-2,1.08l-1,5a6.84,6.84,0,0,0-1.31-.61l1.21-6c.15-.72-.49-1.41-1.43-1.53a1.7,1.7,0,0,0-2,1.08l-1.21,6a8.32,8.32,0,0,0-1.34.21l1-5.14c.15-.72-.5-1.4-1.43-1.53a1.71,1.71,0,0,0-2,1.09l-1.74,8.56a4.73,4.73,0,0,0-.3.82l-.31-1.73a1.72,1.72,0,0,0-1.95-1.14h0c-.93.09-1.59.76-1.46,1.48"/><path class="cls-10" d="M178.13,181.06a1,1,0,0,0,.39.53,8.37,8.37,0,0,1,3.28,4.86,7.39,7.39,0,0,1,.14,1.55q-.18,13.23-.38,26.46a4.33,4.33,0,0,1-.85,2.69,2,2,0,0,1-1.7.84l-10.5-.15a2,2,0,0,1-1.9-1.24,6,6,0,0,1-.55-2.23q.13-13.38.37-26.76c0-2.66,1.51-4.56,3.55-6.08l1.64-9.38c.09-1,.16-2,.25-3-1-.52-1-1.23-.19-1.89.25-.2.26-.7.4-1.11l-.68-.17v-.87l6.19.09v.88l-.53.08c-.07.55-.17,1,.46,1.43s.37,1.23-.49,1.63c.09,1.57.18,3.16.27,4.75Z"/><rect class="cls-11" x="166.24" y="190.56" width="15.53" height="19.23" transform="translate(2.89 -2.47) rotate(0.82)"/><path class="cls-29" d="M153.44,146.76S142.24,186,129,143.51"/><path class="cls-13" d="M134.86,140.34c0,2.11-1.6,4.29-4.22,5.36-3.35,1.35-7.09.4-8.32-2.12l-3-6.22-.06-.13s0,0,0-.07l-4.11-8.39a1.44,1.44,0,0,1,1-1.84,1.7,1.7,0,0,1,2.18.55l2.24,4.57a7.24,7.24,0,0,1,1.11-.92l-2.68-5.48a1.43,1.43,0,0,1,1-1.84,1.7,1.7,0,0,1,2.18.55l2.68,5.48a7.81,7.81,0,0,1,1.35-.13L123.81,125a1.45,1.45,0,0,1,1-1.85,1.7,1.7,0,0,1,2.17.56l3.85,7.84a4.35,4.35,0,0,1,.49.72l-.13-1.75a1.73,1.73,0,0,1,1.59-1.6h0c.93-.14,1.74.34,1.79,1.07"/></svg>