<svg id="Layer_1" data-name="Layer 1" xmlns="http://www.w3.org/2000/svg" viewBox="0 0 348 282.35"><defs><style>.cls-1{fill:#f8d979;}.cls-2{fill:#ffcb05;}.cls-13,.cls-3,.cls-6{fill:none;stroke-linecap:round;stroke-miterlimit:10;}.cls-3{stroke:#198ab1;stroke-width:5px;}.cls-4{fill:#0aa0cc;}.cls-5{fill:#fff;}.cls-6{stroke:#0d4061;stroke-width:2.71px;}.cls-7{fill:#0d4061;}.cls-8{fill:#57c4cf;}.cls-9{fill:#504b48;}.cls-10{fill:#a1cbec;}.cls-11{fill:#00a1cd;}.cls-12{fill:#ed1651;}.cls-13{stroke:#0d4060;stroke-width:2.07px;}.cls-14{fill:#0d4060;}</style></defs><polyline class="cls-1" points="0 282.35 0 0 348 0 348 282.35"/><rect class="cls-2" y="238.97" width="348" height="43.38"/><path class="cls-3" d="M144,157.66s16.27,3,30.27-18.19"/><path class="cls-4" d="M10.89,102.8C12.35,146,49.71,205.72,91.19,204.32c43.69-1.47,74.76-62.58,73.3-105.83S128.31,46.28,85.9,47.71,9.43,59.55,10.89,102.8Z"/><path class="cls-5" d="M153,103.73a12.54,12.54,0,1,0-25.07.85"/><path class="cls-5" d="M115.7,105a12.54,12.54,0,1,0-25.07.85"/><path class="cls-6" d="M149.77,87.6s-3.93-7.32-11.85-2.66"/><path class="cls-6" d="M93.44,89.46s3.61-7.68,11.83-3.57"/><path class="cls-7" d="M105.59,116.77s3.19,9.16,17.37,8.39,15-9.49,15-9.49Z"/><polyline class="cls-4" points="107.51 252.15 113 196.54 95.55 196.54 102.68 253.75 106.9 249.65"/><polygon class="cls-8" points="99.06 224.53 110.54 224.53 107.71 253.29 101.87 253.29 99.06 224.53"/><path class="cls-9" d="M120.18,253.75c0-4.31-4.11-7.8-9.19-7.8s-9.2,3.49-9.2,7.8"/><polyline class="cls-4" points="85.11 252.15 90.6 196.54 73.16 196.54 80.28 253.75 84.51 249.65"/><polygon class="cls-8" points="76.66 224.53 88.14 224.53 85.32 253.29 79.47 253.29 76.66 224.53"/><path class="cls-9" d="M97.65,253.75c0-4.31-4.11-7.8-9.19-7.8s-9.2,3.49-9.2,7.8"/><path class="cls-3" d="M50.59,142.06s-17.82,11.92-9.47,48"/><path class="cls-10" d="M170.2,134.61c-.5,2,.55,4.45,2.82,6,2.88,2.05,6.66,2,8.4-.14l4.31-5.24a1,1,0,0,1,.08-.11l.05,0,5.82-7.08a1.42,1.42,0,0,0-.54-2,1.67,1.67,0,0,0-2.2,0L185.77,130a6.82,6.82,0,0,0-.85-1.13l3.79-4.62a1.41,1.41,0,0,0-.54-2,1.67,1.67,0,0,0-2.2,0l-3.79,4.61a8.93,8.93,0,0,0-1.26-.43l3.26-4a1.42,1.42,0,0,0-.54-2,1.68,1.68,0,0,0-2.2,0L176,127.14a3.84,3.84,0,0,0-.63.58l.52-1.64a1.71,1.71,0,0,0-1.16-1.89h0a1.4,1.4,0,0,0-2,.62"/><path class="cls-10" d="M46.65,186.49c-1.06-1.77-3.53-2.76-6.27-2.3-3.48.58-6.12,3.3-5.86,6l.65,6.75c0,.05,0,.09,0,.14v.08l.87,9.11a1.41,1.41,0,0,0,1.78,1,1.66,1.66,0,0,0,1.53-1.58l-.47-5a7,7,0,0,0,1.41.2l.56,6c.07.71.87,1.17,1.79,1a1.66,1.66,0,0,0,1.53-1.58l-.57-5.94a7.75,7.75,0,0,0,1.19-.59L45.3,205a1.41,1.41,0,0,0,1.78,1,1.66,1.66,0,0,0,1.53-1.58l-.81-8.52a4,4,0,0,0,0-.85l.79,1.53a1.7,1.7,0,0,0,2.15.52h0a1.4,1.4,0,0,0,.95-1.81"/><path class="cls-3" d="M228.75,135.17s-21.28,2.09-24.4-34.84"/><path class="cls-10" d="M210.73,102.05c-.47,2-2.52,3.72-5.27,4.12-3.49.51-6.83-1.27-7.42-4l-1.45-6.62a.77.77,0,0,1,0-.15l0-.06-2-9c-.15-.7.47-1.38,1.38-1.52a1.67,1.67,0,0,1,1.94,1L199,90.83a6.6,6.6,0,0,1,1.28-.62L199,84.37c-.16-.7.47-1.39,1.38-1.52a1.67,1.67,0,0,1,1.94,1l1.28,5.84a8.23,8.23,0,0,1,1.32.19l-1.1-5c-.16-.7.46-1.38,1.38-1.52a1.67,1.67,0,0,1,1.94,1l1.83,8.35a3.86,3.86,0,0,1,.3.8l.29-1.69a1.7,1.7,0,0,1,1.88-1.16h0c.92.08,1.58.73,1.46,1.44"/><path class="cls-7" d="M98.63,105.66a6.56,6.56,0,0,1,13.11-.52"/><path class="cls-7" d="M136.26,104.61a6.56,6.56,0,0,1,13.1-.53"/><path class="cls-11" d="M326.47,111.78c0-.47,0-.93,0-1.4,0-33.66-24.34-60.94-54.36-60.94S217.8,76.72,217.8,110.38c0,.47,0,.93,0,1.4a48.9,48.9,0,0,0-.5,6.89v28.49c0,23.46,20.78,44.86,41.54,44.86h29.52c20.76,0,38.58-21.4,38.58-44.86V118.67A47.45,47.45,0,0,0,326.47,111.78Z"/><polyline class="cls-11" points="249.29 188.36 256.56 249.53 261.65 249.53 267.41 188.61"/><polygon class="cls-12" points="262.24 248.24 255.86 247.94 253.02 220.09 264.44 220.09 262.24 248.24"/><path class="cls-9" d="M262.8,250.7a9.48,9.48,0,0,0-19,0"/><polyline class="cls-11" points="272.25 188.36 279.52 249.53 284.62 249.53 290.38 188.61"/><polygon class="cls-12" points="285.2 248.24 278.82 247.94 275.98 220.09 287.4 220.09 285.2 248.24"/><path class="cls-9" d="M285.76,250.7a9.48,9.48,0,0,0-19,0"/><path class="cls-13" d="M227.87,87.56s4-8,12.68-3.3"/><path class="cls-13" d="M279.93,87.56s-2.9-8.2-11.62-3.46"/><path class="cls-14" d="M268.92,110.61s-2.45,8.58-14.53,8.32-13-8.32-13-8.32Z"/><path class="cls-5" d="M260.31,101.89c0-5.5,4.75-10,10.61-10s10.62,4.45,10.62,10"/><path class="cls-14" d="M262.76,101.86a5.56,5.56,0,0,1,11.11,0"/><path class="cls-5" d="M228.75,101.89c0-5.5,4.78-10,10.67-10s10.67,4.45,10.67,10"/><path class="cls-14" d="M231,101.86a5.56,5.56,0,0,1,11.11,0"/><path class="cls-14" d="M229.84,96.84l-5.71-2.27,5.06,4c-.06.23-.11.44-.16.65l-4.95-.61,4.73,2a9.66,9.66,0,0,0-.05,1c2.65-8.4,8-9.52,9.47-9.67C233.37,92.1,231,94.47,229.84,96.84Z"/><path class="cls-14" d="M238.23,92l.42,0Z"/><path class="cls-14" d="M286.22,98.59l-5,.62c0-.21-.1-.43-.16-.65l5.06-4-5.71,2.27c-1.15-2.37-3.53-4.74-8.39-4.88,1.52.15,6.82,1.27,9.47,9.67a9.66,9.66,0,0,0-.05-1Z"/><path class="cls-14" d="M272.07,92l-.42,0Z"/><path class="cls-3" d="M298.13,137.38s17.83,11.93,9.48,48"/><path class="cls-10" d="M302.08,181.82c1.06-1.77,3.53-2.76,6.27-2.31,3.48.59,6.12,3.3,5.85,6l-.64,6.75a.59.59,0,0,0,0,.14v.07l-.87,9.11a1.41,1.41,0,0,1-1.78,1,1.69,1.69,0,0,1-1.54-1.58l.48-5a8,8,0,0,1-1.41.2l-.57,5.94c-.06.72-.87,1.18-1.78,1a1.68,1.68,0,0,1-1.53-1.58l.57-5.95a7.72,7.72,0,0,1-1.19-.58l-.49,5.11a1.4,1.4,0,0,1-1.78,1,1.68,1.68,0,0,1-1.54-1.57l.82-8.52a3.46,3.46,0,0,1,0-.85l-.79,1.52a1.69,1.69,0,0,1-2.15.52h0a1.39,1.39,0,0,1-.95-1.81"/></svg>