<svg id="Layer_1" data-name="Layer 1" xmlns="http://www.w3.org/2000/svg" viewBox="0 0 348 282.35"><defs><style>.cls-1{fill:#f8d979;}.cls-2{fill:#ffcb05;}.cls-14,.cls-18,.cls-20,.cls-23,.cls-24,.cls-26,.cls-3,.cls-9{fill:none;stroke-miterlimit:10;}.cls-3{stroke:#198ab1;stroke-width:5px;}.cls-14,.cls-3,.cls-9{stroke-linecap:round;}.cls-4{fill:#a1cbec;}.cls-5{fill:#7d3a1b;}.cls-6{fill:#572513;}.cls-7{fill:#0aa0cc;}.cls-22,.cls-8{fill:#fff;}.cls-9{stroke:#0d4061;stroke-width:2.71px;}.cls-10{fill:#0d4061;}.cls-11{fill:#57c4cf;}.cls-12{fill:#504b48;}.cls-13{fill:#f8ac1c;}.cls-14{stroke:#1c89b1;stroke-width:9.18px;}.cls-15{fill:#679648;}.cls-16{fill:#70a44f;}.cls-17{fill:#89bd68;}.cls-18{stroke:#70a44f;stroke-width:0.43px;}.cls-19{fill:#a1caeb;}.cls-20{stroke:#91bedd;stroke-width:1.22px;}.cls-21{fill:#eab8d5;}.cls-22{opacity:0.47;}.cls-23{stroke:#fff;stroke-width:0.34px;}.cls-24{stroke:#cc91b5;stroke-width:0.66px;}.cls-25{fill:#faed24;}.cls-26{stroke:#c6b72f;stroke-width:0.13px;}.cls-27{fill:#e59525;}</style></defs><polyline class="cls-1" points="0 282.79 0 0.44 348 0.44 348 282.79"/><rect class="cls-2" y="239.41" width="348" height="43.38"/><path class="cls-3" d="M125.65,154.28s2.12,21.34,37.9,31"/><path class="cls-4" d="M163,178.69c-2.06.11-4.1,1.82-5,4.45-1.12,3.35,0,7,2.56,8l6.26,2.61.14,0,.06,0,8.45,3.52a1.4,1.4,0,0,0,1.74-1.09,1.66,1.66,0,0,0-.67-2.09l-4.6-1.92a7,7,0,0,0,.84-1.14l5.51,2.3a1.41,1.41,0,0,0,1.74-1.09,1.66,1.66,0,0,0-.67-2.1l-5.51-2.3a8.5,8.5,0,0,0,.05-1.33l4.74,2c.66.28,1.44-.21,1.74-1.09a1.67,1.67,0,0,0-.67-2.09l-7.9-3.29a3.38,3.38,0,0,0-.73-.44l1.72,0a1.69,1.69,0,0,0,1.47-1.65h0c.09-.92-.43-1.68-1.15-1.69"/><path class="cls-5" d="M182.53,166.12a1,1,0,0,0,.17.63,8.37,8.37,0,0,1,1.4,5.7,7.74,7.74,0,0,1-.41,1.5q-4.75,12.35-9.53,24.68a4.41,4.41,0,0,1-1.73,2.23,2,2,0,0,1-1.89.2l-9.8-3.79a2,2,0,0,1-1.35-1.81,6.06,6.06,0,0,1,.26-2.29q4.77-12.49,9.63-25c1-2.49,3-3.76,5.44-4.48l4.79-8.22c.43-.9.85-1.81,1.29-2.75-.77-.84-.55-1.51.47-1.84.31-.1.49-.56.77-.9l-.59-.4.32-.81,5.77,2.23-.32.82-.52-.11c-.26.5-.51.91-.06,1.5s-.09,1.29-1,1.36c-.46,1.51-.93,3-1.39,4.56Z"/><rect class="cls-6" x="164.26" y="173" width="15.53" height="19.23" transform="translate(77.37 -49.73) rotate(21.12)"/><path class="cls-7" d="M11.31,108.27c1.46,43.25,38.83,102.93,80.3,101.53,43.69-1.48,74.76-62.59,73.3-105.83S128.74,51.76,86.33,53.19,9.85,65,11.31,108.27Z"/><path class="cls-8" d="M153.43,109.21a12.54,12.54,0,1,0-25.07.84"/><path class="cls-8" d="M116.12,110.47a12.54,12.54,0,1,0-25.07.84"/><path class="cls-9" d="M138.91,87.73s2.16,8,10.93,5.28"/><path class="cls-9" d="M102.35,89.39s-2.78,8-11.39,4.79"/><path class="cls-10" d="M137.69,126.15s-2.19-9.17-16.37-8.42-15,9.47-15,9.47Z"/><polyline class="cls-7" points="107.93 257.62 113.42 202.01 95.98 202.01 103.1 259.22 107.33 255.12"/><polygon class="cls-11" points="99.48 230 110.96 230 108.14 258.76 102.29 258.76 99.48 230"/><path class="cls-12" d="M120.61,259.22c0-4.31-4.12-7.8-9.2-7.8s-9.2,3.49-9.2,7.8"/><polyline class="cls-7" points="85.54 257.62 91.03 202.01 73.58 202.01 80.71 259.22 84.93 255.12"/><polygon class="cls-11" points="77.08 230 88.57 230 85.74 258.76 79.9 258.76 77.08 230"/><path class="cls-12" d="M98.08,259.22c0-4.31-4.12-7.8-9.2-7.8s-9.2,3.49-9.2,7.8"/><path class="cls-10" d="M100,111a6.32,6.32,0,1,1,12.63-.51"/><path class="cls-10" d="M137.25,110a6.32,6.32,0,0,1,12.63-.51"/><path class="cls-8" d="M192.9,117.32A27.24,27.24,0,0,1,180,99.48a27.45,27.45,0,0,1,7-25.07c1-1.07,1-1.14.25-2.55A27,27,0,0,1,190,40.63c5.4-6.33,12.68-9.93,20.28-10a55.59,55.59,0,0,1,5.87.26c.69,0,1.07-.18,1.23-1a16.78,16.78,0,0,1,.73-2.72,28.15,28.15,0,0,1,50.46-6.28,1,1,0,0,0,.16.29.88.88,0,0,0,1.39.1,28.94,28.94,0,0,1,11-4.47,28,28,0,0,1,18.25,3,26.72,26.72,0,0,1,9.49,8.34,26.45,26.45,0,0,1,5,18.84c-.11,1,.13,1.36.94,1.57a43.22,43.22,0,0,1,6.5,1.94,27.73,27.73,0,0,1,13.44,12.34,26.56,26.56,0,0,1,3,17.09,27,27,0,0,1-12.07,19A25.57,25.57,0,0,1,315.46,103c-1.15.21-1.35.55-1.15,1.91a26.26,26.26,0,0,1-1.48,13.68,28.22,28.22,0,0,1-30.44,17.76,28.12,28.12,0,0,1-15.06-7.16l-.16-.18a1,1,0,0,0-1.58.26A27.91,27.91,0,0,1,250,138.39a28.22,28.22,0,0,1-9.7.22,27.32,27.32,0,0,1-12.57-5.27,27.66,27.66,0,0,1-9.42-12.55c-.39-1.07-.89-1.26-1.79-1a27.25,27.25,0,0,1-9.11,1.62A28.06,28.06,0,0,1,192.9,117.32Z"/><path class="cls-8" d="M174.15,62.2a5.9,5.9,0,0,1-5.83-5.74,5.85,5.85,0,1,1,5.83,5.74Z"/><path class="cls-8" d="M165.86,65.87a3,3,0,1,1,3-3v.07a3,3,0,0,1-3,3Z"/><polygon class="cls-13" points="310.53 203.77 221.97 203.77 221.97 216.1 227.11 216.1 227.11 260.6 235.12 260.6 235.12 216.1 298.27 216.1 298.27 260.6 306.12 260.6 306.12 216.1 310.53 216.1 310.53 203.77"/><path class="cls-5" d="M292.62,167.33a1,1,0,0,0,.38.54,8.4,8.4,0,0,1,3.29,4.86,7.23,7.23,0,0,1,.13,1.54q-.18,13.23-.37,26.46a4.4,4.4,0,0,1-.85,2.69,2,2,0,0,1-1.71.84l-10.5-.15a2,2,0,0,1-1.9-1.23,5.93,5.93,0,0,1-.54-2.24q.13-13.38.36-26.75c0-2.67,1.51-4.57,3.55-6.09l1.64-9.38c.09-1,.17-2,.25-3-1-.52-1-1.23-.19-1.89.26-.2.27-.7.41-1.11l-.69-.17v-.87l6.19.09v.88l-.53.08c-.06.56-.16,1,.47,1.43s.36,1.23-.5,1.63c.09,1.57.18,3.16.28,4.76Z"/><rect class="cls-6" x="280.72" y="176.83" width="15.53" height="19.23" transform="translate(2.7 -4.12) rotate(0.82)"/><path class="cls-5" d="M270.59,166.66a.94.94,0,0,0,.38.54,8.4,8.4,0,0,1,3.29,4.86,7.23,7.23,0,0,1,.13,1.54q-.18,13.23-.37,26.46a4.41,4.41,0,0,1-.86,2.69,2,2,0,0,1-1.7.84l-10.5-.15a2,2,0,0,1-1.9-1.23,5.89,5.89,0,0,1-.54-2.24q.12-13.38.36-26.75c.05-2.67,1.51-4.57,3.55-6.09l1.64-9.37c.09-1,.17-2,.25-3-1-.52-1-1.23-.19-1.89.25-.19.27-.7.41-1.11l-.69-.17v-.87l6.19.09v.88l-.53.08c-.07.56-.17,1,.46,1.43s.37,1.23-.49,1.63c.09,1.57.18,3.16.28,4.76Z"/><rect class="cls-6" x="258.69" y="176.16" width="15.53" height="19.23" transform="translate(2.69 -3.8) rotate(0.82)"/><path class="cls-3" d="M69.62,159.13s27,26.28,41.13-13.78"/><path class="cls-4" d="M105.52,141.78c.08,2.06,1.76,4.13,4.37,5.05,3.33,1.18,7,.08,8-2.44l2.7-6.22s0-.09,0-.13,0,0,0-.07l3.65-8.39c.29-.66-.19-1.45-1.06-1.76a1.67,1.67,0,0,0-2.11.64l-2,4.57a7,7,0,0,0-1.14-.85l2.38-5.48c.29-.66-.19-1.45-1.06-1.76a1.66,1.66,0,0,0-2.1.64l-2.38,5.48a7.51,7.51,0,0,0-1.33-.07l2.05-4.71a1.42,1.42,0,0,0-1.07-1.76,1.66,1.66,0,0,0-2.1.64L109.07,133a3.35,3.35,0,0,0-.45.72l0-1.71a1.7,1.7,0,0,0-1.63-1.5h0c-.92-.1-1.69.4-1.71,1.12"/><path class="cls-14" d="M231,75.76c-5.59,2.65-10,7.43-15.26,10.66-15.57,9.57-38.18-3.34-38.18-3.34"/><path class="cls-4" d="M221.71,76.23c-1.37-3.7,2.42-8.51,4.07-11.39,3.36-5.82,5.45-11.5,3.94-18.1a7.28,7.28,0,0,1-.23-4.16c.86-2.2,4-2.7,6-1.55,2.54,1.45,4.06,4.77,4.8,7.49.22,1.14,1.3,7.54-.11,8.24A63.49,63.49,0,0,1,248.28,53c5.32-2,8.08-3.06,10-1.69a5.41,5.41,0,0,1,1.51,5.93,6.81,6.81,0,0,1-2.15,3,5.78,5.78,0,0,1,2.53,2.62,5.71,5.71,0,0,1-.08,5.11,6.36,6.36,0,0,1-1.58,1.88,4.33,4.33,0,0,1,2.42,2.64,5.3,5.3,0,0,1-.75,4.1c-3.21,5.83-15.83,8.8-19.92,9.65a86.07,86.07,0,0,1-11.3,1.59,3.72,3.72,0,0,1-3.75-2.38Z"/><polygon class="cls-15" points="232.72 39.63 235.41 80.56 256.92 79.11 254.22 38.17 232.72 39.63"/><polygon class="cls-16" points="233.88 40.01 235.36 81.01 256.9 80.19 255.42 39.2 233.88 40.01"/><polygon class="cls-17" points="234.73 41.1 236.21 82.1 257.75 81.28 256.27 40.29 234.73 41.1"/><polygon class="cls-18" points="236.82 43.03 238.16 80.16 255.66 79.5 254.32 42.37 236.82 43.03"/><path class="cls-4" d="M243.59,66.69a3,3,0,0,1,1.24-1.18c1.86-.9,10-3.62,10-3.62s-7.13,1.7-9.81,1.16c-.93.13-1.63-1-1.72-1.45a3.15,3.15,0,0,1,.13-2.59,4.72,4.72,0,0,1,1.14-1.44A23.28,23.28,0,0,1,250.36,54c.79-.38,4.69-3.23,5.54-3.25,1.41,0,2,.13,2.53,1.62.31.93-1.05,6.43-1.05,7.41,0,1.44.78.58.77,2,0,1.06-.25,6.37-.07,7.41.46,2.75.59,2,.73,4.89a5.52,5.52,0,0,1,0,1.52,2.29,2.29,0,0,1-.86,1.23,5,5,0,0,1-1.86.71l-4.68,1.09a6.31,6.31,0,0,1-3.62.12,3.8,3.8,0,0,1-2.15-2.33,2.3,2.3,0,0,1,.16-2.11,2.2,2.2,0,0,1,.91-.6l.27-.11c2.55-1,6.91-1.63,9.31-3-3.1.34-7.38,1.7-10.49,1.7a3.93,3.93,0,0,1-1.57-.2c-.34-.19-.52-.15-.72-.52a4.42,4.42,0,0,1-.45-3C243.15,67.9,243.41,67.31,243.59,66.69Z"/><path class="cls-14" d="M293.26,90.76c1.32,2.81,35.78-4.67,44.49-27.51"/><path class="cls-19" d="M269.16,81H269a2.57,2.57,0,0,0-2.29,2.82h0a2.91,2.91,0,0,0,2.77,2.8h3.42a8.94,8.94,0,0,0-1.49.73l-16.07,5.36a2.86,2.86,0,0,0,1.83,5.4l9.62-3.25c-.09.74,0,.23,0,1l-11.7,3.92a2.85,2.85,0,0,0,1.82,5.38l11.19-3.77c.44.71-.24.28.36.87l-9.35,3.15a2.78,2.78,0,0,0-1.48,3.62,2.75,2.75,0,0,0,3.36,1.86l16.05-3.22s13.95-4.92,14.83-5.32c5.32-2.14,8.94-7.63,6.87-13a11,11,0,0,0-9.5-7.59"/><path class="cls-20" d="M275.94,87.85s1.9,7.33,8.11,10.14"/><circle class="cls-21" cx="268.42" cy="94.25" r="2.54"/><circle class="cls-21" cx="274.15" cy="96.65" r="2.54"/><rect class="cls-22" x="278.11" y="85.48" width="9.5" height="13.94" transform="translate(2.38 -7) rotate(1.42)"/><path class="cls-8" d="M286.33,98.52l-7.41-.19.14-6h.64a2.91,2.91,0,0,1,2,.86h0a2.25,2.25,0,0,0,1.48.66l1.63.07a2.82,2.82,0,0,1,.65.08l1,.21Z"/><line class="cls-23" x1="278.24" y1="87.28" x2="287.73" y2="87.64"/><line class="cls-24" x1="274.58" y1="94.9" x2="273.72" y2="98.4"/><line class="cls-24" x1="266.87" y1="93.19" x2="269.78" y2="95.32"/><path class="cls-25" d="M270.35,103.17a.61.61,0,0,1,.45-.74l-.14-.56a.61.61,0,1,1-.29-1.19l-.12-.48a.61.61,0,0,1-.74-.45A.62.62,0,0,1,270,99l-.18-.71-.75.19a.62.62,0,0,1-.45.74.61.61,0,0,1-.74-.45l-.48.12a.61.61,0,0,1-1.19.29l-.56.14a.61.61,0,1,1-1.19.29l-.67.16.16.68h0a.62.62,0,0,1,.74.45.61.61,0,0,1-.45.74h0l.12.48h0a.62.62,0,0,1,.74.45.61.61,0,0,1-.45.74h0l.14.57h0a.61.61,0,0,1,.29,1.19h0l.18.76.68-.17a.61.61,0,1,1,1.19-.29l.56-.14a.61.61,0,1,1,1.19-.29l.48-.12a.61.61,0,1,1,1.19-.29l.75-.19-.18-.71A.61.61,0,0,1,270.35,103.17Z"/><circle class="cls-26" cx="267.51" cy="102.06" r="1.96"/><path class="cls-1" d="M331.45,58s6.78,8.14,6.58,16.57,6-6.11,6-6.11l-2.11-11.17Z"/><path class="cls-1" d="M183.41,79a25.48,25.48,0,0,0-4.11,16.47c1,9.53-11.9-18.16-11.9-18.16l10.19-4.47Z"/><polyline class="cls-13" points="214.48 260.45 208.84 260.45 208.84 236.15 163.4 236.15 163.4 260.45 157.64 260.45 157.64 233.87 157.73 233.87 157.73 228.69 214.48 228.69 214.48 233.95"/><rect class="cls-27" x="153.27" y="217.13" width="66.05" height="13.21" rx="3.99"/><polygon class="cls-13" points="348 229.32 317.5 229.32 317.5 234.5 317.4 234.5 317.4 261.07 323.17 261.07 323.17 236.77 348 236.77 348 229.32"/><path class="cls-27" d="M348,217.76H317a4,4,0,0,0-4,4V227a4,4,0,0,0,4,4h31Z"/><path class="cls-4" d="M177.62,188.12l.84.29a1.2,1.2,0,0,0,1.51-.71c.11-.3.23-.6.34-.91a1.2,1.2,0,0,0-.73-1.54l-1.09-.37c-.68-.24-1.43.3-1.67,1.19A1.67,1.67,0,0,0,177.62,188.12Z"/><path class="cls-4" d="M174.87,197.21l.51.18a1,1,0,0,0,1.27-.64c.14-.43.27-.85.42-1.28a1,1,0,0,0-.62-1.26l-.71-.24c-.67-.24-1.43.3-1.67,1.19A1.66,1.66,0,0,0,174.87,197.21Z"/><path class="cls-4" d="M176.43,192.74l1.63.56a1.35,1.35,0,0,0,1.71-.82c.07-.2.14-.4.22-.6a1.34,1.34,0,0,0-.83-1.74l-1.86-.65c-.67-.23-1.43.31-1.67,1.2A1.67,1.67,0,0,0,176.43,192.74Z"/></svg>