<svg id="Layer_1" data-name="Layer 1" xmlns="http://www.w3.org/2000/svg" viewBox="0 0 348 282.35"><defs><style>.cls-1{fill:#1a3663;}.cls-2{fill:#0aa0cc;}.cls-3{fill:#edebaa;}.cls-4{fill:#727373;}.cls-5{fill:#309d48;}.cls-6{fill:#48494a;}.cls-15,.cls-21,.cls-22,.cls-7{fill:none;}.cls-7{stroke:#191919;stroke-width:9.45px;}.cls-10,.cls-11,.cls-15,.cls-21,.cls-22,.cls-7{stroke-miterlimit:10;}.cls-8{fill:#a91e23;}.cls-9{fill:#2e2f30;}.cls-10{fill:#d19c2a;}.cls-10,.cls-11{stroke:#727373;stroke-width:3.08px;}.cls-11{fill:#eecb5d;}.cls-12{fill:#4f5251;}.cls-13{fill:#eef2c5;}.cls-14{fill:#a1cbec;}.cls-15,.cls-21{stroke:#0d4060;}.cls-15,.cls-21,.cls-22{stroke-linecap:round;}.cls-15{stroke-width:1.95px;}.cls-16{fill:#0d4060;}.cls-17{fill:#fff;}.cls-18{fill:#00a1cd;}.cls-19{fill:#ed1651;}.cls-20{fill:#504b48;}.cls-21{stroke-width:2.11px;}.cls-22{stroke:#198ab1;stroke-width:5.11px;}.cls-23{fill:#0e272d;}</style></defs><polyline class="cls-1" points="0 257.06 0 0 348 0 348 266.54"/><path class="cls-2" d="M60.22,26.1C34,24,11.12,26.87,0,43.34v65c9.3,24.44,27,45.7,49.83,47.52,34.37,2.76,67.69-45.34,70.56-81.19S95.37,28.92,60.22,26.1Z"/><path class="cls-3" d="M167,19.67l.85,2.62a.52.52,0,0,0,.48.35h2.75a.5.5,0,0,1,.3.91l-2.23,1.62a.48.48,0,0,0-.18.56l.85,2.62a.5.5,0,0,1-.78.56l-2.23-1.62a.53.53,0,0,0-.59,0L164,28.91a.5.5,0,0,1-.77-.56l.85-2.62a.5.5,0,0,0-.18-.56l-2.23-1.62a.5.5,0,0,1,.29-.91h2.76a.52.52,0,0,0,.48-.35l.85-2.62A.5.5,0,0,1,167,19.67Z"/><path class="cls-3" d="M237.66,34.31l.78,2.4a.51.51,0,0,0,.48.34h2.53a.5.5,0,0,1,.29.91l-2,1.49a.49.49,0,0,0-.18.56l.78,2.4a.5.5,0,0,1-.78.56l-2-1.48a.5.5,0,0,0-.59,0l-2,1.48a.5.5,0,0,1-.78-.56l.78-2.4a.49.49,0,0,0-.18-.56l-2-1.49a.5.5,0,0,1,.29-.91h2.53a.51.51,0,0,0,.48-.34l.78-2.4A.5.5,0,0,1,237.66,34.31Z"/><path class="cls-3" d="M278.56,16.65l.78,2.39a.5.5,0,0,0,.48.35h2.52a.5.5,0,0,1,.3.91l-2.05,1.49a.5.5,0,0,0-.18.56l.78,2.4a.5.5,0,0,1-.77.56l-2.05-1.48a.49.49,0,0,0-.59,0l-2,1.48a.5.5,0,0,1-.77-.56l.78-2.4a.5.5,0,0,0-.19-.56l-2-1.49a.5.5,0,0,1,.3-.91h2.52a.5.5,0,0,0,.48-.35l.78-2.39A.5.5,0,0,1,278.56,16.65Z"/><path class="cls-3" d="M217.53,51.93l.78,2.4a.52.52,0,0,0,.48.35h2.52a.5.5,0,0,1,.3.91l-2,1.48a.51.51,0,0,0-.19.56l.78,2.4a.5.5,0,0,1-.77.57l-2-1.49a.49.49,0,0,0-.59,0l-2,1.49a.5.5,0,0,1-.77-.57l.78-2.4a.51.51,0,0,0-.18-.56l-2-1.48a.5.5,0,0,1,.3-.91h2.52a.51.51,0,0,0,.48-.35l.78-2.4A.5.5,0,0,1,217.53,51.93Z"/><path class="cls-3" d="M218.77,18.28l.6,1.85a.51.51,0,0,0,.48.34h1.94l-1.57,1.15a.5.5,0,0,0-.19.56l.6,1.84-1.57-1.14a.49.49,0,0,0-.59,0L216.9,24l.6-1.84a.48.48,0,0,0-.18-.56l-1.57-1.15h1.94a.51.51,0,0,0,.48-.34Z"/><path class="cls-3" d="M190.29,57.12a19.62,19.62,0,0,1,11.89-18,19.62,19.62,0,1,0,0,36.05A19.61,19.61,0,0,1,190.29,57.12Z"/><path class="cls-4" d="M126.09,96.08l12.82,19.76s24.67,2.89,27.35-1.6,3.71-15.76,0-18.16-19.39-4.78-29.78-2.39Z"/><rect class="cls-5" x="1.29" y="238.32" width="346.71" height="44.03"/><polygon class="cls-6" points="217.19 282.35 -1 282.35 -1 238.32 177.11 238.32 217.19 282.35"/><path class="cls-7" d="M31.47,130.85a30,30,0,0,1,60,0"/><path class="cls-8" d="M157.1,269c7.74-.3,12.77-5.38,13.22-13.09.18-3,.1-6,.06-9-.06-5.09-.75-9.9,5.84-12.55,2.33-.94,4.12-6.12,4.16-9.39.33-24.56.77-49.15-.08-73.68-.57-16.43-9.74-23.64-23.3-31.93-1.64-1-7.36-1.88-9-2.84-.15-.09-2.67-.85-2.67-.85L134.65,93c-4.48-10.52-19.28-47.47-23.41-55.66C102.65,20.25,91.29,13,72.07,12.52c-21.35-.59-51.57-.7-72.92-1V23.06c19.52.34,54.75-2.47,75.57.91C96.08,27.45,104,55.4,111.11,70c5.55,11.35,13.35,33.82,19.79,46,0,0-93.64-1.39-130.75-1.4V237.94h124m-14.35-60.16c-7.09.1-10.1-3.74-9-10.77,1.42-8.82,6.27-14,14.8-15.65,12-2.26,24.07-4.48,36.13-6.57,10.34-1.79,13.49.89,13.55,11.24,0,2.58.06,5.16,0,7.74-.19,8-3.82,12-11.71,12.26"/><path class="cls-9" d="M125.18,238.08c0,5.54-.11,10.82,0,16.08.25,9.56,5.43,14.74,14.88,14.9,6,.11,12.07.19,18.09-.05,7.74-.3,12.78-5.38,13.23-13.09.18-3,.1-6,.06-9,0-3.19-.33-6.28,1.1-8.79Z"/><path class="cls-10" d="M151.29,177.79c-7.3.34-34.24-.1-41.54,0-7.09.1-10.1-3.74-9-10.77,1.42-8.82,6.27-14,14.8-15.65,12-2.26,24.07-4.48,36.13-6.57,10.34-1.79,13.49.89,13.55,11.24,0,2.58.06,5.16,0,7.74-.19,8-3.49,13.73-11.38,14Z"/><path class="cls-4" d="M-.09,218.23H172.76a10,10,0,0,1,9.92,9.93h0a10,10,0,0,1-9.92,9.92H-.09"/><circle class="cls-11" cx="154.18" cy="198.12" r="6.52"/><path class="cls-12" d="M-.78,149.06H73.83a15,15,0,0,1,15,15h0a15,15,0,0,1-15,15H-.78"/><path class="cls-13" d="M0,190.51h94a6.63,6.63,0,0,1,6.62,6.61v5.57a6.64,6.64,0,0,1-6.62,6.62H0"/><path class="cls-14" d="M34.79,109.21l-.36-.5a1.58,1.58,0,0,0-2.15-.34l-.3.22a1.55,1.55,0,0,0-.35,2.19l.52.7a1.46,1.46,0,0,0,2.13,0A1.72,1.72,0,0,0,34.79,109.21Z"/><path class="cls-14" d="M42.46,103l-.14-.18a1.35,1.35,0,0,0-1.91-.26l-.6.46a1.35,1.35,0,0,0-.27,1.88l.28.37a1.46,1.46,0,0,0,2.13,0A1.71,1.71,0,0,0,42.46,103Z"/><path class="cls-14" d="M38.51,105.94l-.88-1.18a1.71,1.71,0,0,0-2.38-.37l0,0a1.72,1.72,0,0,0-.38,2.42l1,1.38a1.46,1.46,0,0,0,2.13,0A1.73,1.73,0,0,0,38.51,105.94Z"/><path class="cls-15" d="M44,50.45s11.5,1,14,8.67"/><path class="cls-15" d="M84.37,50.45s-12.5,1-15,8.67"/><path class="cls-16" d="M52.09,81.87s2.12-8,12.55-7.76,11.25,7.76,11.25,7.76Z"/><path class="cls-17" d="M68.35,67.9c0-5.59,4.83-10.11,10.79-10.11S89.92,62.31,89.92,67.9"/><path class="cls-16" d="M77.62,67.9a4.69,4.69,0,1,1,9.38,0"/><path class="cls-17" d="M37.4,67.9c0-5.59,4.85-10.11,10.84-10.11S59.09,62.31,59.09,67.9"/><path class="cls-16" d="M46.67,67.9a4.69,4.69,0,0,1,9.38,0"/><path class="cls-16" d="M46.14,57.79h0Z"/><path class="cls-16" d="M80.08,57.79h0Z"/><path class="cls-3" d="M219.56,50.31l.78,2.4a.5.5,0,0,0,.48.35h2.52a.5.5,0,0,1,.3.91l-2,1.48a.52.52,0,0,0-.19.57l.78,2.39a.5.5,0,0,1-.77.57l-2-1.48a.49.49,0,0,0-.59,0l-2,1.48a.5.5,0,0,1-.77-.57l.78-2.39a.52.52,0,0,0-.18-.57l-2-1.48a.5.5,0,0,1,.3-.91h2.52a.5.5,0,0,0,.48-.35l.78-2.4A.51.51,0,0,1,219.56,50.31Z"/><path class="cls-18" d="M214.86,116.65c0-.48,0-1,0-1.44,0-34.37,24.85-62.23,55.5-62.23s55.5,27.86,55.5,62.23c0,.48,0,1,0,1.44a49.19,49.19,0,0,1,.51,7v29.09c0,23.95-21.22,45.81-42.42,45.81H253.75c-21.2,0-39.4-21.86-39.4-45.81V123.68A49.19,49.19,0,0,1,214.86,116.65Z"/><polyline class="cls-18" points="291.68 194.84 284.26 257.31 279.05 257.31 273.17 195.1"/><polygon class="cls-19" points="278.46 255.99 284.97 255.68 287.87 227.24 276.21 227.24 278.46 255.99"/><path class="cls-20" d="M277.88,258.51a9.69,9.69,0,1,1,19.37,0"/><polyline class="cls-18" points="268.23 194.84 260.81 257.31 255.6 257.31 249.72 195.1"/><polygon class="cls-19" points="255.01 255.99 261.52 255.68 264.42 227.24 252.76 227.24 255.01 255.99"/><path class="cls-20" d="M254.43,258.51a9.69,9.69,0,1,1,19.37,0"/><path class="cls-21" d="M300.63,85.19s1.41,9,11.35,7.08"/><path class="cls-21" d="M271.21,86.77s-2.82,8.42-11.8,3.73"/><path class="cls-16" d="M299.93,121.44s-2.82-8.66-15.14-8-13,9-13,9Z"/><path class="cls-17" d="M279.42,106.54c0-5.61-4.85-10.16-10.83-10.16s-10.84,4.55-10.84,10.16"/><path class="cls-17" d="M311.65,106.54c0-5.61-4.87-10.16-10.89-10.16s-10.9,4.55-10.9,10.16"/><path class="cls-16" d="M311,104.93a6.56,6.56,0,0,1-8.63-8.73A10.47,10.47,0,0,1,311,104.93Z"/><path class="cls-16" d="M279.42,105.21a6.56,6.56,0,0,1-8.62-8.73A10.46,10.46,0,0,1,279.42,105.21Z"/><path class="cls-16" d="M310.54,101.39l5.83-2.32-5.17,4.07c.07.23.12.45.17.67l5.05-.63-4.83,2a10.1,10.1,0,0,1,.05,1.06c-2.7-8.57-8.12-9.71-9.66-9.86C306.94,96.55,309.37,99,310.54,101.39Z"/><path class="cls-16" d="M302,96.41c-.15,0-.28,0-.44,0C301.54,96.38,301.71,96.38,302,96.41Z"/><path class="cls-16" d="M253,103.18l5,.63c.05-.22.1-.44.17-.67L253,99.07l5.83,2.31c1.17-2.42,3.6-4.84,8.56-5-1.54.16-7,1.29-9.66,9.87a10.1,10.1,0,0,1,.05-1.06Z"/><path class="cls-16" d="M267.41,96.4l.44,0Z"/><path class="cls-22" d="M322.68,140.65s-7.62,35.28-22.24-3.86"/><path class="cls-14" d="M306.2,136.27c.36,2.08-.9,4.5-3.32,6-3.09,1.87-6.93,1.52-8.55-.77l-4-5.65-.08-.13-.05-.05L284.82,128a1.44,1.44,0,0,1,.7-2,1.69,1.69,0,0,1,2.23.2l2.94,4.16a7.42,7.42,0,0,1,.95-1.09l-3.52-5a1.45,1.45,0,0,1,.7-2,1.7,1.7,0,0,1,2.24.2l3.52,5a7.69,7.69,0,0,1,1.31-.35l-3-4.28a1.44,1.44,0,0,1,.69-2,1.7,1.7,0,0,1,2.24.2l5,7.14a4.47,4.47,0,0,1,.6.63l-.41-1.7a1.74,1.74,0,0,1,1.32-1.84h0a1.43,1.43,0,0,1,1.94.77"/><rect class="cls-23" x="238.83" y="98.92" width="16.93" height="33.86" rx="3.81" transform="translate(-24.69 91.33) rotate(-19.95)"/><path class="cls-22" d="M224.57,144.25s17.77,37.53,21-16.81"/><path class="cls-14" d="M239.15,131.3c.51,2,2.63,3.75,5.44,4.12,3.58.47,7-1.4,7.52-4.15l1.38-6.78s0-.1,0-.14l0-.08,1.86-9.15c.15-.72-.5-1.41-1.43-1.53a1.7,1.7,0,0,0-2,1.08l-1,5a7,7,0,0,0-1.32-.62l1.22-6c.15-.71-.5-1.4-1.43-1.53a1.71,1.71,0,0,0-2,1.09l-1.22,6a7.34,7.34,0,0,0-1.34.21l1-5.14c.14-.72-.5-1.41-1.44-1.53a1.7,1.7,0,0,0-2,1.09l-1.75,8.56a4.42,4.42,0,0,0-.29.82l-.32-1.73a1.73,1.73,0,0,0-1.94-1.15h0c-.94.1-1.6.76-1.46,1.49"/><path class="cls-14" d="M89.81,111.18l.46-.41a1.54,1.54,0,0,1,2.17.09l.25.27a1.55,1.55,0,0,1-.09,2.22l-.65.58a1.46,1.46,0,0,1-2.08-.47A1.73,1.73,0,0,1,89.81,111.18Z"/><path class="cls-14" d="M83.51,103.59l.17-.15a1.35,1.35,0,0,1,1.93.13l.49.56A1.35,1.35,0,0,1,86,106l-.35.31a1.46,1.46,0,0,1-2.08-.47A1.74,1.74,0,0,1,83.51,103.59Z"/><path class="cls-14" d="M86.81,107.24l1.1-1a1.7,1.7,0,0,1,2.4.11l0,0a1.71,1.71,0,0,1-.11,2.44L89,110a1.46,1.46,0,0,1-2.08-.47A1.73,1.73,0,0,1,86.81,107.24Z"/></svg>