<?xml version="1.0" encoding="utf-8"?>
<!-- Generator: Adobe Illustrator 25.0.1, SVG Export Plug-In . SVG Version: 6.00 Build 0)  -->
<svg version="1.1" id="Layer_1" xmlns="http://www.w3.org/2000/svg" xmlns:xlink="http://www.w3.org/1999/xlink" x="0px" y="0px"
	 viewBox="0 0 348 292.35" style="enable-background:new 0 0 348 292.35;" xml:space="preserve">
<style type="text/css">
	.st0{fill:#F9DA78;}
	.st1{fill:#0AA0CC;}
	.st2{fill:#FFCB05;}
	.st3{fill:none;stroke:#0D4060;stroke-width:1.0222;stroke-linecap:round;stroke-miterlimit:10;}
	.st4{fill:#FFFFFF;}
	.st5{fill:#0D4060;}
	.st6{fill:#00A1CD;}
	.st7{fill:#5652A3;}
	.st8{fill:#504B48;}
	.st9{fill:#FBAD18;}
	.st10{fill:#727272;}
	.st11{fill:#515151;}
	.st12{fill:#8C8C8C;}
	.st13{fill:#606060;}
	.st14{fill:#CF2153;}
	.st15{fill:#149A48;}
	.st16{fill:#179146;}
	.st17{fill:#B6B6B6;}
	.st18{fill:none;stroke:#0F8AB2;stroke-width:2.0553;stroke-linecap:round;stroke-miterlimit:10;}
	.st19{fill:#828282;}
	.st20{fill:#A2CCED;}
	.st21{fill:#A5DBDF;stroke:#986227;stroke-width:2.01;stroke-miterlimit:10;}
	.st22{fill:#2E9E48;}
	.st23{fill:#A5DBDF;}
	.st24{fill:none;stroke:#986227;stroke-width:2.12;stroke-miterlimit:10;}
	.st25{fill:#986227;}
	.st26{fill:#ED1651;}
	.st27{fill:none;stroke:#0F8AB2;stroke-width:5.08;stroke-miterlimit:10;}
	.st28{fill:none;stroke:#0F8AB2;stroke-width:4.63;stroke-miterlimit:10;}
	.st29{fill:none;stroke:#0D4060;stroke-width:1.89;stroke-linecap:round;stroke-miterlimit:10;}
	.st30{fill:none;stroke:#231F20;stroke-width:1.5;stroke-linecap:round;stroke-miterlimit:10;}
	.st31{fill:#F6E9B4;}
	.st32{fill:none;stroke:#F4C77F;stroke-width:1.26;stroke-miterlimit:10;}
</style>
<polyline class="st0" points="0,292.35 0,0 348,0 348,292.35 "/>
<g id="Layer_2_1_">
	<path class="st1" d="M261.93,15.16c-17.89,0-32.39,4.4-32.39,23.31c0.1,4.8,0.53,9.6,1.3,14.34c0.7,5.26,1.71,10.49,3.06,15.63
		c0.6,2.2,1.32,4.23,1.1,6.59c-0.22,2.1-0.82,4.13-1.78,6.01c-2.58,4.8-3.07,10.46-1.31,15.63c1.41,3.57,4.09,6.51,7.52,8.22
		c6.89,3.7,15.11,3.52,22.71,3.52c8.34,0,18.01-0.64,24.86-5.99c2.8-2.21,4.89-5.2,6-8.59c0.58-1.99,0.97-4.02,1.15-6.09
		c0.23-2.75-0.3-5.5-1.52-7.97c-1.63-3.91-3.48-9.19-2.41-13.49c2.48-10,4.04-23.18,4.04-28.25c0-18.88-14.5-22.93-32.39-22.93"/>
	<rect y="124.35" class="st2" width="348" height="168.01"/>
	<path class="st3" d="M274.02,35.47c-0.99-1.98-3.4-2.77-5.37-1.78c-0.15,0.08-0.31,0.16-0.45,0.26"/>
	<path class="st3" d="M249.68,35.47c0.99-1.98,3.4-2.77,5.37-1.78c0.15,0.08,0.31,0.16,0.45,0.26"/>
	<path class="st4" d="M259.89,43.39c-0.13-2.69-2.42-4.77-5.11-4.64c-2.52,0.12-4.53,2.13-4.64,4.64"/>
	<path class="st5" d="M257.11,43.39c0.09-1.17-0.79-2.19-1.97-2.26c-1.17-0.09-2.19,0.79-2.26,1.97c-0.01,0.1-0.01,0.21,0,0.31"/>
	<path class="st4" d="M264.59,43.39c0.19-2.7,2.53-4.76,5.23-4.57c2.45,0.16,4.41,2.12,4.57,4.57"/>
	<path class="st5" d="M271.61,43.39c0-1.18-0.95-2.12-2.12-2.12c-1.18,0-2.12,0.95-2.12,2.12"/>
	<path class="st5" d="M255.84,47.55c0,0,1.1,3.02,6.67,2.93c5.57-0.09,6.01-2.93,6.01-2.93S255.84,47.55,255.84,47.55z"/>
	<path class="st5" d="M273.91,41.12l2.63-1.1l-2.33,1.82c0,0.11,0.05,0.21,0.08,0.31l2.28-0.29l-2.2,0.91
		c0.01,0.16,0.01,0.32,0,0.48c-1.21-3.86-3.65-4.4-4.34-4.4c1.6-0.1,3.11,0.77,3.85,2.2"/>
	<path class="st5" d="M247.98,41.93l2.28,0.29l0.07-0.31L248,40.08l2.63,1.1c0.73-1.44,2.24-2.3,3.85-2.2
		c-0.69,0.07-3.13,0.58-4.4,4.4c0,0,0-0.19,0-0.48L247.98,41.93z"/>
	<polyline class="st6" points="265.1,105.6 267.76,127.48 271.63,127.48 274.29,105.59 	"/>
	<polyline class="st6" points="250.45,106.89 253.11,128.85 256.3,128.85 258.95,106.97 	"/>
	<polygon class="st7" points="271.43,130.89 268.31,130.89 266.66,116.79 273.08,116.79 	"/>
	<polygon class="st7" points="256.23,131.71 253.11,131.71 251.73,117.62 257.87,117.62 	"/>
	<path class="st8" d="M260.44,132.44c-0.14-3.4-3.01-6.03-6.41-5.89c-3.2,0.13-5.76,2.69-5.89,5.89"/>
	<path class="st8" d="M276.22,132.44c0-3.4-2.76-6.14-6.15-6.13c-3.39,0-6.13,2.75-6.13,6.13"/>
	<rect x="200.07" y="103.57" class="st9" width="6.72" height="34.91"/>
	<rect x="314.78" y="103.54" class="st9" width="6.34" height="34.91"/>
	<rect x="195.44" y="99.9" class="st9" width="130.66" height="11.01"/>
	<path class="st10" d="M238.46,96.32h39.5c0.99,0,1.79,0.8,1.79,1.79v0.01c0,0.99-0.8,1.79-1.79,1.79h-39.5
		c-0.99,0-1.79-0.8-1.79-1.79v-0.01C236.67,97.12,237.47,96.32,238.46,96.32z"/>
	<path class="st11" d="M252.42,95.09h18.83c0.42,0,0.76,0.34,0.76,0.76l0,0c0,0.42-0.34,0.76-0.76,0.76h-18.83
		c-0.42,0-0.76-0.34-0.76-0.76l0,0C251.66,95.43,252,95.09,252.42,95.09z"/>
	<path class="st11" d="M240.29,94.41h3.86c0.2,0,0.36,0.16,0.36,0.36v0.79c0,0.2-0.16,0.36-0.36,0.36h-3.86
		c-0.2,0-0.36-0.16-0.36-0.36v-0.79C239.92,94.57,240.09,94.41,240.29,94.41z"/>
	<path class="st12" d="M247.64,85.68c-1.21,0-2.2,0-3.3,0s-1.42-0.26-1.43-1.03s0.44-1.1,1.38-1.1c0.95,0,2.2,0,3.3,0v-2.02
		c-1.97,0.22-1.64-1.26-2.54-2.06h32.8c-0.08,1.19-1.07,2.11-2.25,2.11c-0.01,0.11-0.01,0.22,0,0.33c0,0.52,0,1.03,0,1.69
		c1.1,0,2.2,0,3.36,0c1.17,0,1.37,0.34,1.35,1.1c-0.02,0.76-0.44,1.1-1.33,1.01c-1.1,0-2.2,0-3.4,0v4.64c0,0.55,0,1.1,0,1.65
		c-0.19,1.89-1.88,3.28-3.77,3.1c-6.79,0-13.58,0-20.38,0c-2.12,0-3.7-1.35-3.74-3.11C247.64,89.9,247.64,87.85,247.64,85.68z"/>
	<path class="st13" d="M275.56,83.6h3.65c0.64-0.05,1.2,0.41,1.26,1.03l0,0c-0.07,0.64-0.63,1.1-1.26,1.04h-3.65"/>
	<path class="st13" d="M247.64,85.68h-3.65c-0.64,0.05-1.2-0.41-1.26-1.03l0,0c0.04-0.65,0.59-1.14,1.24-1.1c0.01,0,0.01,0,0.02,0
		h3.65"/>
	<path class="st12" d="M274.24,73.78c-1.56,2.48-3.13,4.95-4.66,7.45c-0.26,0.37-0.34,0.85-0.23,1.3c0.88,1.42,0.63,3.28-0.62,4.4
		c-0.8,1.06-1.99,1.76-3.3,1.97c-0.63,0.13-1.25-0.19-1.52-0.77c-0.91-1.76,0.16-5.25,1.93-6.13c0.42-0.25,0.91-0.36,1.4-0.34
		c0.99,0.15,1.41-0.35,1.85-1.1c2.88-4.85,5.77-9.69,8.68-14.53l0.23-0.4c0.29-0.48,0.48-1,1.1-0.63c0.62,0.37,0.27,0.77-0.07,1.24
		c-0.34,0.47-0.59,0.86-0.87,1.3"/>
	<path class="st14" d="M221.04,99.74L221.04,99.74c-1.91-0.01-3.45-1.55-3.46-3.46l0,0c0-1.9,1.56-2.1,3.46-2.1l0,0
		c1.9,0,3.46,0.2,3.46,2.1l0,0C224.49,98.19,222.95,99.73,221.04,99.74z"/>
	<path class="st14" d="M213.57,99.89L213.57,99.89c-1.92,0.01-3.48-1.53-3.5-3.45l0,0l0,0c0-1.9,1.56-2.09,3.46-2.09l0,0
		c1.91,0,3.46,0.19,3.46,2.09l0,0C216.98,98.33,215.46,99.87,213.57,99.89z"/>
	<path class="st15" d="M221.04,95.09c0,0-1.1-1.99,0-2.7C221.04,92.39,221.88,94.41,221.04,95.09z"/>
	<path class="st14" d="M205.81,100.02L205.81,100.02c-1.91-0.01-3.46-1.56-3.46-3.47l0,0c0-1.9,1.56-2.09,3.46-2.09l0,0
		c1.91,0,3.47,0.19,3.47,2.09l0,0C209.27,98.46,207.72,100.01,205.81,100.02z"/>
	<path class="st15" d="M205.81,95.34c0,0-1.1-1.98,0-2.7C205.81,92.62,206.64,94.64,205.81,95.34z"/>
	<path class="st15" d="M213.57,94.64c0,0-2.2-0.59-1.93-1.9C211.62,92.74,213.64,93.56,213.57,94.64z"/>
	<path class="st16" d="M300.78,91.12c0,0-0.55-2.2,2.09-2.2s1.03,1.43,3.36,1.47c1.74,0,0.93-1.19,2.99-1.47s1.92,1.37,3.22,1.42
		c1.3,0.04,0.62-1.51,2.31-1.46c1.29-0.18,2.47,0.74,2.64,2.02c0.01,0.05,0.01,0.12,0.02,0.18
		C317.74,92.7,300.78,91.12,300.78,91.12z"/>
	<path class="st17" d="M299.45,90.79c0,0-0.29,9.11,6.59,9.11h6.92c0,0,6.01,0.89,5.99-9.11H299.45z"/>
	<path class="st18" d="M236.89,71.22c0,0-4.23,13.43,10.76,1.1"/>
	<path class="st19" d="M250.44,64.73L250.44,64.73c-1.27,0.51-1.9,1.96-1.4,3.23l2.45,6.19c0.51,1.27,1.57,0.59,2.85,0.09l0,0
		c1.27-0.51,2.3-0.65,1.78-1.92l-2.45-6.19C253.17,64.85,251.72,64.23,250.44,64.73z"/>
	<path class="st20" d="M257.04,71.04c0.34-0.21,0.45-0.64,0.24-0.98c-0.16-0.27-0.51-0.41-0.81-0.32l-2.2,0.99
		c0-0.21-0.01-0.42-0.05-0.62l2.65-1.15c0.33-0.18,0.46-0.58,0.3-0.91c-0.13-0.35-0.53-0.53-0.88-0.4l0,0l-2.67,1.19
		c-0.12-0.14-0.24-0.29-0.38-0.41l2.3-1.02c0.33-0.15,0.46-0.55,0.31-0.88c0-0.01-0.01-0.01-0.01-0.02
		c-0.13-0.35-0.52-0.53-0.86-0.4c0,0,0,0-0.01,0l-3.84,1.7c-0.13,0.03-0.26,0.07-0.4,0.12l0.63-0.57c0.25-0.29,0.25-0.7,0-0.99l0,0
		c-0.22-0.29-0.63-0.34-0.91-0.12l-0.01,0.01l-3.3,3.08c-0.13,0.11-0.21,0.27-0.21,0.45c-0.74,0.81-0.92,2-0.45,3
		c0.52,1.31,1.98,1.97,3.3,1.48l3.03-1.34h0.07l0,0L257.04,71.04z"/>
	<path class="st10" d="M253.21,74.94l2.66-0.97c0.62-0.22,1.3,0.1,1.52,0.71l0.14,0.38c0.22,0.62-0.1,1.3-0.71,1.52l-2.66,0.97
		c-0.62,0.22-1.3-0.1-1.52-0.71l-0.14-0.38C252.28,75.84,252.6,75.16,253.21,74.94z"/>
	<path class="st18" d="M287.49,69.83c0,0,2.4,15.85-9.57,3.46"/>
	<path class="st20" d="M281.06,72.84c0.56,0.95,0.49,2.14-0.16,3.02c-0.77,1.2-2.37,1.56-3.58,0.79l-2.7-1.93h-0.05l0,0l-3.65-2.62
		c-0.29-0.23-0.34-0.65-0.11-0.95l0,0c0.21-0.31,0.62-0.4,0.93-0.21l1.99,1.43c0.03-0.21,0.09-0.41,0.16-0.6l-2.37-1.7
		c-0.29-0.23-0.34-0.65-0.11-0.95l0,0c0.2-0.32,0.62-0.41,0.93-0.21l2.39,1.7c0.14-0.12,0.29-0.23,0.45-0.32l-2.04-1.46
		c-0.29-0.24-0.34-0.66-0.11-0.96c0.2-0.31,0.62-0.41,0.92-0.2c0,0,0,0,0.01,0l3.36,2.37c0.12,0.05,0.24,0.12,0.36,0.2l-0.49-0.69
		c-0.21-0.32-0.13-0.74,0.16-0.97l0,0c0.26-0.23,0.67-0.21,0.9,0.05c0.01,0.01,0.01,0.02,0.02,0.02"/>
	<rect x="2.07" y="13.28" class="st21" width="54.02" height="55.18"/>
	<rect x="-0.05" y="44.99" class="st22" width="54.49" height="22.58"/>
	<rect x="-0.05" y="14.22" class="st23" width="54.49" height="31.95"/>
	<line class="st24" x1="23.98" y1="13.28" x2="23.98" y2="68.19"/>
	<rect x="-0.05" y="63.7" class="st25" width="56.37" height="5.89"/>
	<rect x="-0.05" y="12.29" class="st25" width="56.37" height="4.09"/>
	<path class="st4" d="M15.84,25.97c0.39-2.34-1.2-4.56-3.54-4.94c-1.84-0.3-3.66,0.61-4.52,2.26c-1.38-1.94-4.07-2.39-6.01-1.02
		c-0.75,0.54-1.31,1.3-1.6,2.18H0v8.6h0.12c0.06,0.23,0.14,0.45,0.24,0.66c1.01,2.15,3.57,3.08,5.72,2.07l0,0
		c0.4-0.18,0.76-0.42,1.08-0.72c1.09,2.11,3.68,2.94,5.79,1.86c1.11-0.57,1.91-1.59,2.21-2.8c2.18,0.93,4.71-0.08,5.64-2.26
		c0.93-2.18-0.08-4.71-2.26-5.64c-0.84-0.36-1.78-0.44-2.67-0.23L15.84,25.97z"/>
	<path class="st4" d="M57.12,26.29c-1.18-1.79-3.49-2.44-5.43-1.54c-0.86,0.39-1.56,1.06-2,1.89c-1.37-1.95-4.06-2.41-6.01-1.04
		c-0.75,0.53-1.31,1.29-1.6,2.16h-0.22c-2.38,0.11-4.21,2.13-4.1,4.51c0.11,2.22,1.88,3.99,4.1,4.1h0.17
		c0.06,0.23,0.14,0.45,0.24,0.66c1.01,2.15,3.58,3.08,5.74,2.06c0.39-0.18,0.75-0.42,1.06-0.71c1.09,2.11,3.68,2.94,5.79,1.86
		c1.11-0.57,1.91-1.59,2.21-2.8l0,0L57.12,26.29z"/>
	<path class="st26" d="M69.41,79.37c0,0.5-5.15,0.49-5.59,0.41c-1.33-0.24-2.63-0.67-4-0.85c-1.92-0.15-3.86-0.01-5.74,0.44V11.62
		h15.33V79.37z"/>
	<path class="st27" d="M191.15,228.39c0,0-17.06,2-25.23,1.37s-25.56-22-25.56-22l0,0"/>
	<path class="st28" d="M186.61,231.19c0,0-10,6.41-12.84,13.31s-6,22.2-6,22.2"/>
	<circle class="st6" cx="239.04" cy="210.48" r="65.67"/>
	<path class="st6" d="M154.23,236.29l11.42-85.54c3.39-25.47-14.52-48.87-39.99-52.26h-0.01l-13.88-1.87
		c-25.47-3.4-48.87,14.49-52.26,39.96c0,0.01,0,0.03-0.01,0.04l-11.41,85.49c-2.21,16.59-1.32,35.65,10.11,48.34h84.37
		C149.47,260.79,152.65,248.11,154.23,236.29z"/>
	<rect y="255.36" class="st9" width="348" height="36.69"/>
	<path class="st20" d="M158.48,272.19c-0.16,0.81,0.38,1.6,1.19,1.75c0.64,0.12,1.29-0.18,1.6-0.75l1.79-4.81
		c0.3,0.31,0.64,0.6,1,0.84l-2.14,5.77c-0.17,0.81,0.35,1.61,1.16,1.78c0.66,0.14,1.33-0.18,1.64-0.78l2.14-5.77
		c0.39,0.04,0.78,0.04,1.17,0l-1.84,5.07c-0.17,0.81,0.35,1.61,1.16,1.78c0.66,0.14,1.33-0.18,1.64-0.78l3.07-8.26
		c0.16-0.24,0.29-0.49,0.4-0.76l-0.05,1.78c0.02,0.79,0.64,1.43,1.43,1.48l0,0c0.73,0.1,1.41-0.41,1.51-1.14
		c0-0.03,0.01-0.05,0.01-0.08l0.28-9.51c0.01-0.37-0.13-0.73-0.39-1c-0.13-2.31-1.65-4.32-3.84-5.07c-2.75-1.17-5.94,0.09-7.14,2.83
		l-2.43,6.54l-0.05,0.14v0.07L158.48,272.19z"/>
	<path class="st5" d="M110.81,169.5c0,0-1,10.85,10.76,11.72c10.58,0.78,12.79-7.63,12.79-7.63L110.81,169.5z"/>
	<path class="st29" d="M161.6,147.29c0,0-2.59-7.67-10.95-4.47"/>
	<path class="st29" d="M93.64,138.29c0,0,3.57-7,10.8-1.71"/>
	<path class="st30" d="M132.83,152.81c-1.55,11.63,6.62,22.31,18.25,23.86s22.31-6.62,23.86-18.25s-6.62-22.31-18.25-23.86
		c-11.62-1.55-22.3,6.61-23.86,18.23C132.83,152.8,132.83,152.8,132.83,152.81z"/>
	<path class="st30" d="M76.39,145.29c-1.55,11.63,6.62,22.31,18.25,23.86s22.31-6.62,23.86-18.25s-6.62-22.31-18.25-23.86
		c-11.62-1.55-22.3,6.61-23.86,18.23C76.39,145.28,76.39,145.28,76.39,145.29z"/>
	<path class="st30" d="M133.21,150.29c0,0-5.6-10.42-13.71-1.83"/>
	<path class="st4" d="M114.05,155.97c1-6.35-3.77-12.31-10.54-13.32s-13,3.31-14,9.66"/>
	<path class="st5" d="M109.8,155.29c0.38-2.95-1.7-5.65-4.66-6.04c-2.87-0.37-5.52,1.59-6,4.45"/>
	<path class="st4" d="M161.48,162.87c1-6.34-3.8-12.3-10.6-13.32c-6.8-1.02-13.09,3.3-14,9.65"/>
	<path class="st5" d="M157.24,162.29c0.5-2.94-1.48-5.72-4.41-6.21s-5.72,1.48-6.21,4.41c-0.01,0.07-0.02,0.14-0.03,0.21"/>
	<path class="st5" d="M161.09,156.86l7-1.64l-6.52,3.73c0,0.28,0,0.53,0.07,0.79l5.82,0.14l-5.81,1.49c-0.01,0.4-0.05,0.8-0.12,1.2
		c-1.61-10.15-7.53-12.35-9.26-12.78c5.59,1,7.93,4.14,8.84,7.07"/>
	<path class="st5" d="M84.71,147.7l5.61,1.59c0.09-0.24,0.18-0.48,0.3-0.73l-5.16-5.48l6.2,3.61c1.73-2.54,4.89-4.87,10.52-4.19
		c-1.77-0.09-8.08,0.28-12.59,9.53c0.06-0.4,0.14-0.8,0.24-1.19L84.71,147.7z"/>
	<path class="st29" d="M185.82,186.47c0,0,2.54-9.19,12.59-6"/>
	<path class="st29" d="M240.17,176.12c0,0-4.66-8-12.82-1.3"/>
	<path class="st5" d="M230.93,201.42c0,0,0.15,11.43-10.63,13.29s-13.9-8.62-13.9-8.62L230.93,201.42z"/>
	<path class="st4" d="M222.53,194.98c-1.09-5.74,3-11.33,9.1-12.5s12,2.54,13.06,8.28"/>
	<path class="st5" d="M226.37,194.29c-0.6-2.64,1.06-5.28,3.7-5.88s5.28,1.06,5.88,3.7c0.03,0.11,0.05,0.22,0.06,0.34"/>
	<path class="st4" d="M189.58,201.29c-1.09-5.74,3-11.34,9.17-12.51s12,2.53,13.12,8.27"/>
	<path class="st5" d="M193.43,200.52c-0.51-2.66,1.24-5.23,3.9-5.74s5.23,1.24,5.74,3.9"/>
	<path class="st5" d="M189.72,195.76l-6.41-1.23l6.07,3.15c0,0.26,0,0.49,0,0.72l-5.29,0.34l5.33,1.14
		c0.03,0.37,0.08,0.73,0.15,1.09c1.1-9.29,6.41-11.51,8-12c-5,1.11-7.06,4.05-7.79,6.75"/>
	<path class="st5" d="M197.51,189.01c0.15,0,0.28-0.08,0.44-0.11C197.8,188.93,197.65,188.97,197.51,189.01"/>
	<path class="st5" d="M248.92,186.39l-5,1.63c-0.09-0.21-0.19-0.43-0.3-0.65l4.49-5.17l-5.51,3.5c-1.67-2.24-4.62-4.24-9.72-3.42
		c1.61-0.15,7.36,0,11.8,8.21c-0.07-0.36-0.15-0.73-0.26-1.08L248.92,186.39z"/>
	<path class="st5" d="M232.84,182.29l-0.45,0.06L232.84,182.29"/>
	<path class="st28" d="M230.42,253.84c0,0,15.47-2.27,22.52-4.69s17.35-25.35,17.35-25.35l0,0"/>
	<path class="st27" d="M96.71,261.29c0,0-18.49-12.24-24.37-17.94s-5.44-33.29-5.44-33.29l0,0"/>
	<path class="st20" d="M107.3,279.84c0.67,0.53,1.65,0.43,2.19-0.23c0.61-0.6,0.61-1.58,0.01-2.19l-0.01-0.01l-4.18-3.78
		c0.45-0.18,0.87-0.41,1.27-0.68l5,4.53c0.74,0.53,1.77,0.36,2.3-0.38c0.44-0.62,0.4-1.47-0.1-2.05l-5-4.53
		c0.2-0.38,0.37-0.78,0.5-1.19l4.31,3.89c0.72,0.56,1.75,0.43,2.3-0.29c0.5-0.64,0.45-1.55-0.11-2.14l-7.17-6.5
		c-0.18-0.26-0.39-0.5-0.62-0.72l1.79,0.78c0.82,0.3,1.73-0.07,2.1-0.86l0,0c0.38-0.71,0.12-1.6-0.59-1.98
		c-0.01-0.01-0.03-0.01-0.04-0.02l-9.59-4.2c-0.37-0.15-0.79-0.15-1.16,0c-2.42-0.8-5.08-0.07-6.74,1.86
		c-2.31,2.56-2.31,6.35,0,8.44l5.69,5.14l0.12,0.1l0.06,0.06L107.3,279.84z"/>
	<path class="st26" d="M170.74,256.38l-11.56,20.74c5.08-0.79,10.21-1.16,15.35-1.11c4.13,0.16,7.38,1.73,9.4,2.46
		c1.43,0.68,3.04,0.87,4.59,0.54c2.65-0.53,7.6-2.06,11.66-2.06c6.93,0,16.21,2.74,16.21,2.74l12-21.23c0,0-17.87-6.51-33.29,1
		C195.07,259.46,187,248.58,170.74,256.38z"/>
	<path class="st31" d="M172.64,254.17l-10.8,20.12c0,0,3.15-2.15,13.12-1.28c3.62,0.4,7.11,1.55,10.27,3.36
		c1.1,0.69,2.43,0.88,3.68,0.54c2.5-0.83,7.14-2.73,11.87-2.73c4.85,0.19,9.65,1.12,14.22,2.77l11.57-20.14c0,0-17.62-8-29.32,1.28
		C197.25,258.09,186.06,247.85,172.64,254.17z"/>
	<line class="st32" x1="189.29" y1="274.64" x2="197.19" y2="260.09"/>
	<path class="st20" d="M214.45,264.56c-0.76,0.18-1.53-0.3-1.71-1.06c-0.26-0.73,0.13-1.54,0.86-1.8c0,0,0,0,0.01,0l4.93-1.43
		c-0.29-0.33-0.54-0.68-0.76-1.06l-5.91,1.71c-0.81,0.16-1.6-0.38-1.76-1.19c-0.14-0.71,0.25-1.42,0.93-1.68l5.9-1.71
		c-0.01-0.39,0.01-0.78,0.07-1.17l-6.56,1.2c-0.71,0.2,0,0-0.22-0.79c-0.25-0.74,0.13-1.55,0.87-1.81l8.46-2.45
		c0.25-0.14,0.52-0.25,0.79-0.34l-1.77-0.08c-0.79-0.08-1.38-0.75-1.38-1.54l0,0c-0.06-0.73,0.49-1.36,1.22-1.42
		c0.04,0,0.08,0,0.11,0l9.51,0.41c0.38,0.02,0.74,0.18,1,0.47c2.29,0.31,4.18,1.96,4.77,4.2c0.97,2.83-0.52,5.92-3.35,6.91
		l-6.7,1.95h-0.15h-0.06L214.45,264.56z"/>
	<path class="st32" d="M213.39,272.17c0,0-9-3.84-17.73-1.71"/>
	<path class="st32" d="M218,261.79c-5.41-3.1-11.95-3.53-17.73-1.18"/>
	<path class="st32" d="M186.06,270.99c0,0-9-3.83-17.73-1.71"/>
	<path class="st32" d="M188.5,265.07c0,0-8.86-5.46-17.72-1.71"/>
	<path class="st32" d="M191.37,260.1c0,0-7.23-5.93-17.73-1.71"/>
	<path class="st32" d="M214.72,266.45c-4.97-2.03-10.47-2.34-15.64-0.9"/>
</g>
</svg>
