<?xml version="1.0" encoding="UTF-8"?>
<svg xmlns="http://www.w3.org/2000/svg" xmlns:xlink="http://www.w3.org/1999/xlink" viewBox="0 0 1334 1000">
  <defs>
    <style>
      .cls-1 {
        fill: #fdc642;
      }

      .cls-2 {
        filter: url(#drop-shadow-15);
      }

      .cls-2, .cls-3, .cls-4, .cls-5, .cls-6, .cls-7 {
        fill: #fff;
      }

      .cls-8 {
        fill: #52656c;
      }

      .cls-9 {
        fill: #67402e;
      }

      .cls-10 {
        fill: #fdde13;
      }

      .cls-11 {
        fill: #010101;
      }

      .cls-12 {
        fill: #777;
      }

      .cls-13 {
        fill: #1d3942;
      }

      .cls-14 {
        fill: #282b2b;
      }

      .cls-15 {
        fill: #653c29;
      }

      .cls-16 {
        fill: #f6871f;
      }

      .cls-17 {
        fill: #f1eef7;
      }

      .cls-3 {
        opacity: .15;
      }

      .cls-18 {
        fill: #fffffc;
        opacity: .71;
      }

      .cls-19 {
        fill: #e24226;
      }

      .cls-20 {
        fill: #a66e53;
      }

      .cls-21 {
        fill: none;
        opacity: .51;
        stroke: #fff;
        stroke-width: 2.06px;
      }

      .cls-21, .cls-7 {
        stroke-miterlimit: 10;
      }

      .cls-22 {
        fill: #c95744;
      }

      .cls-23 {
        fill: url(#linear-gradient);
        opacity: .5;
      }

      .cls-24 {
        fill: #4ab749;
      }

      .cls-25 {
        fill: #5e1a15;
      }

      .cls-26 {
        fill: #7b5342;
      }

      .cls-27 {
        fill: #df8c26;
      }

      .cls-28 {
        fill: #919191;
        opacity: .34;
      }

      .cls-5 {
        filter: url(#drop-shadow-5);
      }

      .cls-6 {
        filter: url(#drop-shadow-4);
      }

      .cls-29 {
        fill: #653c2a;
      }

      .cls-30 {
        fill: #383838;
      }

      .cls-31 {
        fill: #b15e27;
      }

      .cls-32 {
        fill: #f2ebd1;
      }

      .cls-33 {
        fill: #545a5c;
      }

      .cls-34 {
        fill: #24180f;
      }

      .cls-35 {
        fill: #e04026;
      }

      .cls-36 {
        fill: #61686c;
      }

      .cls-7 {
        stroke: #231f20;
        stroke-width: .69px;
      }

      .cls-37 {
        fill: #4f2e25;
      }
    </style>
    <linearGradient id="linear-gradient" x1="-7140.91" y1="9416.13" x2="-5948.12" y2="9416.13" gradientTransform="translate(-8762.42 7041.39) rotate(90) scale(1 -1)" gradientUnits="userSpaceOnUse">
      <stop offset="0" stop-color="#f0ebe0"/>
      <stop offset=".18" stop-color="#eee8dd" stop-opacity=".99"/>
      <stop offset=".33" stop-color="#e8e1d4" stop-opacity=".97"/>
      <stop offset=".46" stop-color="#ded4c5" stop-opacity=".93"/>
      <stop offset=".59" stop-color="#d0c2b0" stop-opacity=".88"/>
      <stop offset=".72" stop-color="#bdab95" stop-opacity=".82"/>
      <stop offset=".84" stop-color="#a78e73" stop-opacity=".73"/>
      <stop offset=".96" stop-color="#8d6d4d" stop-opacity=".64"/>
      <stop offset="1" stop-color="#83603d" stop-opacity=".6"/>
    </linearGradient>
    <filter id="drop-shadow-4" x="512.63" y="171.13" width="93.84" height="87.84" filterUnits="userSpaceOnUse">
      <feOffset dx="7" dy="7"/>
      <feGaussianBlur result="blur" stdDeviation="5"/>
      <feFlood flood-color="#231f20" flood-opacity=".2"/>
      <feComposite in2="blur" operator="in"/>
      <feComposite in="SourceGraphic"/>
    </filter>
    <filter id="drop-shadow-5" x="448.07" y="170.17" width="74.88" height="70.8" filterUnits="userSpaceOnUse">
      <feOffset dx="7" dy="7"/>
      <feGaussianBlur result="blur-2" stdDeviation="5"/>
      <feFlood flood-color="#231f20" flood-opacity=".2"/>
      <feComposite in2="blur-2" operator="in"/>
      <feComposite in="SourceGraphic"/>
    </filter>
    <filter id="drop-shadow-15" x="587.82" y="36.12" width="583.92" height="408.72" filterUnits="userSpaceOnUse">
      <feOffset dx="7" dy="7"/>
      <feGaussianBlur result="blur-3" stdDeviation="5"/>
      <feFlood flood-color="#231f20" flood-opacity=".2"/>
      <feComposite in2="blur-3" operator="in"/>
      <feComposite in="SourceGraphic"/>
    </filter>
  </defs>
  <g id="Layer_2" data-name="Layer 2">
    <polyline class="cls-32" points="1376.78 1079.08 1376.78 -145.17 -69.37 -145.17 -69.37 1079.08"/>
    <polyline class="cls-23" points="1376.78 1089.33 -69.37 1089.33 -69.37 -103.46 1376.77 -103.46"/>
  </g>
  <g id="Layer_1" data-name="Layer 1">
    <path class="cls-6" d="M563.21,234.18c-16.36,6.56-34.3.61-40.62-13.48-5.98-14.54,2.6-31.86,19.18-38.72,16.6-6.86,34.93-.64,40.95,13.9,5.69,14.51-3.01,31.6-19.5,38.29Z"/>
    <path class="cls-5" d="M485.95,216.89c-11.48,4.6-24.08.43-28.52-9.46-4.2-10.21,1.82-22.37,13.47-27.18,11.65-4.82,24.52-.45,28.75,9.76,4,10.19-2.11,22.19-13.69,26.88Z"/>
    <rect class="cls-14" x="441.86" y="711.98" width="20.19" height="7.92"/>
    <rect class="cls-14" x="742.35" y="711.98" width="20.19" height="7.92"/>
    <rect class="cls-14" x="475.05" y="664.28" width="110.04" height="12.25"/>
    <rect class="cls-14" x="624.32" y="664.28" width="110.04" height="12.25"/>
    <rect class="cls-36" x="441.38" y="676.53" width="321.62" height="35.45"/>
    <g>
      <path class="cls-12" d="M445.17,562.24c0-1.37-.61-2.72-1.57-3.7.93-.19,1.86-.44,2.76-.86h0c-.6-4.84-1.05-9.01,6.24-8.97,49.06.28,98.13.29,147.19.39q11.62-.72,12.32,9.7h0s-.15,20.22-.15,20.22c-.05,21.96.02,43.92-.19,65.88-.11,11.76-5.89,17.98-17.17,19.28-44.06,0-88.12-.02-132.18-.03-10.01-1.6-13.79-5.34-15.61-15.44-2.36-20.21-.41-50.19-1.05-70.42"/>
      <path class="cls-12" d="M593.81,663.78c.27.11.54.24.8.41-.26-.16-.53-.28-.8-.41Z"/>
    </g>
    <path class="cls-30" d="M446.12,557.66c-.79-.13-1.61-.21-2.46-.21h-15.57c-6.41,0-11.66,4.09-11.66,9.08s5.25,9.08,11.66,9.08h15.57c.84,0,1.66-.08,2.46-.21v-17.73Z"/>
    <path class="cls-30" d="M611.73,557.66c.79-.13,1.61-.21,2.46-.21h15.57c6.41,0,11.66,4.09,11.66,9.08,0,4.99-5.25,9.08-11.66,9.08h-15.57c-.84,0-1.66-.08-2.46-.21v-17.73Z"/>
    <path class="cls-30" d="M512.51,498.51c-.22-.36-.36-.74-.41-1.14l-.83-7.39c-.34-3.05,4.66-6.13,11.12-6.84,6.46-.72,12.02,1.19,12.36,4.23l.83,7.39c.04.4-.01.8-.14,1.2l-22.93,2.55Z"/>
    <path class="cls-12" d="M523.71,494.93c-45.56,5.07-79.98,31.59-76.88,59.25l164.98-18.35c-3.1-27.65-42.54-45.96-88.1-40.89Z"/>
    <path class="cls-4" d="M843.19,643.49c-2.78-.91-4-2.65-4.05-5.5-.01-.85-.02-1.69,0-2.54.06-2.71,1.33-4.74,3.89-5.46,1.44-.41,1.58-1.13,1.54-2.35-.18-5.92.15-11.83-.31-17.75-.5-6.4-2.58-12.15-6.2-17.38-2.84-4.1-6.61-7.34-10.09-10.84-1.14-1.15-2.04-2.1-.24-3.38.39-.28.49-.75.47-1.23-.15-.09-.29-.18-.44-.26-.26,0-.53,0-.79,0-.25,0-.49,0-.74,0-2.49,0-4.98,0-7.47,0-.13.06-.25.11-.38.17-3.13-.13-6.27-.18-9.4.02-.06.63.14,1.17.65,1.55,1.3.95.84,1.73-.12,2.64-2.21,2.1-4.36,4.26-6.5,6.44-6.88,7.01-10.45,15.39-10.44,25.26,0,4.62.04,9.25-.02,13.87-.03,1.79-.14,3.44,2.31,3.6.32.02.64.41.93.67,2.87,2.54,1.87,5.83,1.62,8.92-.14,1.66-1.25,2.77-2.94,3.2-1.47.37-1.94,1.27-1.93,2.84.06,19.48.01,38.95.06,58.43.01,5.11,1.84,9.59,5.31,13.38.64.7,1.31,1.15,2.35,1.14,6.06-.06,12.11-.06,18.17-.08,4.81,0,9.62.02,14.43.03.39-.44.78-.45,1.18,0,3.39.69,5.4-.99,7.13-3.73,2.55-4.02,3.35-8.44,3.36-13.02.07-18.89.03-37.79.07-56.68,0-1.12-.36-1.59-1.4-1.93ZM796.4,607.37c-.12,0-.23.02-.35.04.12-.02.23-.04.35-.04ZM841.83,705.92c-.02,3.67-1.9,6.8-4.07,9.68-.6.79-1.42.95-2.39.95-5.67-.02-11.33.02-17,.04l.03-.11c-5.8.02-11.6.03-17.39.05-2.34,0-2.81-2.1-3.63-3.52-1.78-3.08-2.56-6.43-2.53-10.1.13-18.44.08-36.88.03-55.31,0-1.3.28-1.99,1.52-2.67,3.64-2.01,4.53-6.51,3.7-10.49-.56-2.67-1.36-5.33-4.5-6.2-.62-.17-.7-.71-.7-1.25.02-6.19.05-12.38.09-18.57,0-.22.21-.44.33-.66.05-.05.11-.08.16-.12-.05.04-.11.07-.16.12,7.69.03,15.38.05,23.07.08,7.36-.03,14.72-.03,22.08-.1,1.17-.01,1.42.47,1.42,1.5-.02,5.8,0,11.6.03,17.39,0,.88-.3,1.26-1.16,1.69-2.95,1.51-5.05,7.55-3.94,10.7.28.78.34,1.64.61,2.42.6,1.69,1.82,2.99,3.35,3.72,1.03.49,1.12,1.04,1.12,1.92,0,19.61.04,39.22-.06,58.83Z"/>
    <path class="cls-30" d="M828.64,565.92c.22-.85-.21-.93-.87-.75-.26,0-.52,0-.78,0h0c-.26-.16-.52-.16-.78,0,.03.05.07.09.1.13-.03-.04-.07-.08-.1-.13-2.48,0-4.96.01-7.44.02-3.12-.04-6.24-.05-9.36-.13-.92-.02-1.24.27-1.22,1.22.05,3.12.02,6.25.02,9.38,0,.59-.07,1.21.77,1.31,3.13-.2,6.27-.15,9.4-.02.13-.06.25-.11.38-.17,2.49,0,4.98,0,7.47,0,.25-.28.49-.29.74,0,.26,0,.53,0,.79,0h0c.15.09.29.18.44.26.65-.28.7-.75.44-1.33.24-3.26.21-6.53.01-9.79Z"/>
    <path class="cls-1" d="M840.78,645.17c-1.53-.73-2.75-2.03-3.35-3.72-.28-.78-.34-1.64-.61-2.42-1.12-3.14.99-9.19,3.94-10.7.86-.44,1.16-.81,1.16-1.69-.03-5.8-.05-11.6-.03-17.39,0-1.03-.25-1.51-1.42-1.5-7.36.07-14.72.07-22.08.1-7.69-.03-15.38-.05-23.07-.08-.11.22-.33.44-.33.66-.04,6.19-.07,12.38-.09,18.57,0,.54.08,1.08.7,1.25,3.14.88,3.95,3.53,4.5,6.2.83,3.97-.06,8.48-3.7,10.49-1.23.68-1.52,1.37-1.52,2.67.04,18.44.1,36.88-.03,55.31-.03,3.68.76,7.02,2.53,10.1.82,1.42,1.29,3.52,3.63,3.52,5.8-.02,11.6-.04,17.39-.05,0,0-.03.11-.03.11,5.67-.02,11.33-.06,17-.04.97,0,1.8-.16,2.39-.95,2.17-2.89,4.05-6.01,4.07-9.68.1-19.61.05-39.22.06-58.83,0-.88-.09-1.43-1.12-1.92Z"/>
    <path class="cls-3" d="M840.78,645.35c-1.53-.75-2.75-2.09-3.35-3.83-.28-.8-.34-1.69-.61-2.49-1.12-3.23.99-9.46,3.94-11,.86-.45,1.16-.84,1.16-1.74-.03-5.96-.05-11.93-.03-17.89,0-1.06-.25-1.55-1.42-1.54-7.36.07-14.72.08-22.08.1-7.69-.03-15.38-.06-23.07-.08-.11.23-.33.45-.33.68-.04,6.37-.07,12.73-.09,19.1,0,.56.08,1.11.7,1.28,3.14.9,3.95,3.63,4.5,6.38.83,4.09-.06,8.72-3.7,10.79-1.23.7-1.52,1.41-1.52,2.74.04,18.97.1,37.93-.03,56.9-.03,3.78.76,7.23,2.53,10.39.82,1.46,1.29,3.63,3.63,3.62,5.8-.02,11.6-.04,17.39-.05,0,0-.03.12-.03.12,5.67-.02,11.33-.06,17-.04.97,0,1.8-.16,2.39-.98,2.17-2.97,4.05-6.19,4.07-9.96.1-20.17.05-40.34.06-60.51,0-.9-.09-1.47-1.12-1.98Z"/>
    <path class="cls-8" d="M674.05,579.01c.25-.28.49-.29.74,0-.25,0-.49,0-.74,0Z"/>
    <line class="cls-21" x1="793.59" y1="651.53" x2="842.89" y2="651.53"/>
    <line class="cls-21" x1="793.59" y1="661.21" x2="842.89" y2="661.21"/>
    <line class="cls-21" x1="793.59" y1="669.69" x2="842.89" y2="669.69"/>
    <line class="cls-21" x1="793.59" y1="679.37" x2="842.89" y2="679.37"/>
    <line class="cls-21" x1="793.59" y1="688.94" x2="842.89" y2="688.94"/>
    <line class="cls-21" x1="793.59" y1="698.63" x2="842.89" y2="698.63"/>
    <polygon class="cls-9" points="1228.45 1199.77 1260.99 1199.77 1250.8 799.03 1179.16 799.03 1228.45 1199.77"/>
    <polygon class="cls-9" points="457.59 1200.2 426.32 1200.2 436.51 797.09 508.15 797.09 457.59 1200.2"/>
    <g>
      <path class="cls-26" d="M1283.19,762.76H398.88s.79-43.12.79-43.12h884.31"/>
      <polygon class="cls-9" points="415.13 801.96 1263.55 801.96 1269.71 761.65 408.97 761.65 415.13 801.96"/>
    </g>
    <path class="cls-2" d="M643.61,360.41c-22.18-11.24-38.61-27.41-45.31-51.5-3.96-13.85-3.16-28.58,2.29-41.95,4.7-11.74,12.31-22.18,22.15-30.38,3.65-3.11,3.61-3.31.87-7.36-7.3-10.05-11.71-21.82-12.78-34.09-1.5-21.02,6.78-41.59,22.57-56.03,18.98-18.28,44.53-28.65,71.24-28.92,6.74-.24,13.68.37,20.62.74,2.43.13,3.75-.51,4.31-2.97.61-2.68,1.47-5.3,2.57-7.83,9.89-23.46,21.5-40.34,45.18-49.72,15.78-6.1,39.33-6.87,56.26-5.66,18.49.96,36.42,6.5,52.08,16.1,9.17,5.6,17.23,12.77,23.78,21.16.14.3.33.57.55.82,1.27,1.4,3.46,1.53,4.9.29,11.99-6.56,25.11-10.93,38.71-12.89,21.77-3.25,44.05-.28,64.12,8.54,12.87,5.41,24.28,13.65,33.33,24.06,13.57,15.73,20.45,33.58,17.6,54.37-.38,2.77.45,3.92,3.3,4.52,7.74,1.35,15.37,3.22,22.84,5.6,19.33,6.51,32.02,19.02,43.32,35.61,9.98,14.48,13.72,32.18,10.42,49.31-4.62,25.01-16.45,42.36-38.53,54.78-11.02,6.25-23.17,10.38-35.79,12.18-4.03.61-4.76,1.59-4.03,5.5,2.54,13.37.72,27.18-5.21,39.49-10.9,22.71-29.68,37.06-53.36,45.5-17.12,6.13-35.52,8.1-53.6,5.74-19.23-2.14-37.5-9.27-52.91-20.66-.17-.19-.36-.36-.57-.51-1.74-1.28-4.22-.95-5.54.74-15.17,13.92-34.31,23.05-54.92,26.19-11.27,1.83-22.76,2.05-34.09.64-15.71-1.8-30.8-7-44.16-15.22-14.51-8.58-26.04-21.19-33.09-36.21-1.39-3.07-3.16-3.61-6.32-2.73-10.38,3.08-21.16,4.66-32.01,4.69-17.66-.06-35.06-4.15-50.79-11.95Z"/>
    <g>
      <path class="cls-35" d="M955.95,217.09c-1.52.84-3.02,1.72-4.43,2.53-.27-.21-.41-.26-.41-.32-.02-.88-.06-1.77-.03-2.65.44-13.48-1.82-26.48-7.03-38.93-1.42-3.4-1.47-3.4-4.6-1.19-3.21,2.27-6.28,4.77-9.64,6.8-2.96,1.8-6.82-.48-7.11-3.97-.1-1.26.04-2.56.22-3.82.84-6,1.9-11.96,2.47-17.99-5.14-.13-10.27-.15-15.39-.09,2.29,3.4,4.12,7.11,5.32,11.24,1.89,6.46,2.3,13.03,1.6,19.8-.57,5.48-1.83,10.82-2.48,16.26-.22,1.85.81,2.78,1.95,3.67,1.46,1.14,3.14,1.04,4.68.1,2.76-1.69,5.51-3.42,8.18-5.24,1.48-1.01,2.27-.83,3.2.79,2.89,5.02,4.33,10.53,5.29,16.11,1.7,9.89,1.31,19.74-1.89,29.37-3.84,11.54-11.39,20.27-20.86,27.48-2.2,1.67-4.16,3.96-7.24,4.18-.35.23-.7.47-1.06.7-.23.17-.46.35-.69.52-7.88,5.01-16.21,8.61-25.81,8.25-2.79.14-5.58.18-8.35-.3-5.87.61-11.51-.74-16.98-2.53-12.38-4.04-22.52-11.34-30.31-21.83-6.63-8.93-10.15-19.01-10.78-30.05-.54-9.47.13-18.84,2.89-28,1.53-5.07,3.45-9.96,5.69-14.74.21-.45.42-.9.97-1.18,1.41,4.11,2.39,8,4.11,11.6,1.51,3.15,3.57,5.87,7.14,6.98,1.46.46,2.22.43,1.79-1.58-2.85-13.32,3.24-23.58,11.44-33.14,4.21-4.91,8.3-9.94,11.64-15.46-9.35.89-18.7,1.91-28.05,2.96-1.7,5.85-2.26,12.03-.96,18.77.24,1.26,1.21,3.03-.08,3.77-1.25.72-2.79-.47-4.04-1.24-1.35-.84-2.47-1.93-3.45-3.2-2.15-2.78-3.35-6.02-4.33-9.32-.68-2.28-1.28-4.6-1.93-7.11-1.12.13-2.25.25-3.37.38-7.52,18.04-10.55,36.32-9.29,55.79-3.07-1.6-5.38-3.63-8.26-4.68-.15.4-.32.66-.34.93-.89,13.27-.21,26.4,3.67,39.21,4.29,14.17,12.32,25.47,25.78,32.3,14.96,7.6,30.87,7.92,47.03,5.57,2.73-.4,5.39-.77,8.17-.23,8.37,1.61,16.83,1.96,25.31,1.1,16.49-1.68,30.81-7.73,40.5-21.82,11.56-16.82,12.8-36,11.83-55.58-.07-1.33-.61-1.53-1.66-.95Z"/>
      <path class="cls-19" d="M958.93,207.09c-1.48-3.18-3.31-5.59-5.06-8.04-2.81-3.93-3.26-8.05-1.07-12.47,1.73-3.51,3.59-6.99,4.2-10.94.07-.43.21-.75.69-.75.49,0,.54.4.7.77,1.22,2.83,2.37,5.7,3.76,8.44,4.15,8.22,2.02,15.54-3.21,22.99Z"/>
      <path class="cls-16" d="M932.45,204.09c-.94-1.62-1.72-1.8-3.2-.79-2.68,1.82-5.42,3.55-8.18,5.24-1.54.94-3.22,1.04-4.68-.1-1.13-.89-2.17-1.82-1.95-3.67.66-5.45,1.91-10.79,2.48-16.26.7-6.77.3-13.34-1.6-19.8-1.21-4.12-3.03-7.84-5.32-11.24-16.88.21-33.73,1.39-50.56,3-3.34,5.51-7.42,10.54-11.64,15.46-8.2,9.56-14.29,19.82-11.44,33.14.43,2-.33,2.03-1.79,1.58-3.56-1.11-5.63-3.84-7.14-6.98-1.72-3.6-2.7-7.49-4.11-11.6-.55.28-.75.73-.97,1.18-2.24,4.78-4.16,9.68-5.69,14.74-2.76,9.16-3.43,18.54-2.89,28,.63,11.05,4.15,21.13,10.78,30.05,7.79,10.49,17.93,17.79,30.31,21.83,5.47,1.79,11.11,3.14,16.98,2.53-2.33-.88-4.66-1.77-6.99-2.65-4.69-.49-8.43-3.13-12.06-5.72-12.79-9.12-19.23-21.5-18.26-37.35.33-5.51,1.91-10.79,3.99-15.91.85-2.1,1.81-2.22,3.43-.74,1.08.98,2.42,1.68,3.63,2.51,1.55,1.06,3.21,1.71,4.92.53,1.7-1.19,1.16-2.99.85-4.61-.77-3.95-1.35-7.9-1.57-11.93-.85-15.89,7.09-26.41,20.44-33.63,4.5-2.43,9.21-4.43,14.19-5.71,1.19-.3,2.08-.89,1.73,1.23-1.79,10.91,2.88,19.73,9.44,27.81,4.65,5.73,9.46,11.29,11.25,18.75.56,2.33.03,4.46-.14,6.69-.08.98-.67,2.34.61,2.92,1.34.61,2.17-.57,2.98-1.4,2.11-2.16,3.38-4.79,4.02-7.72.27-1.23.52-2.45,1.54-3.94,2.54,4.8,4.16,9.45,5.23,14.31,2.19,9.96,2.34,19.82-1.27,29.57-2.38,6.41-6.06,11.83-11.18,16.31-.46.41-.82.85-.88,1.48,3.08-.22,5.05-2.5,7.24-4.18,9.47-7.21,17.02-15.95,20.86-27.48,3.21-9.64,3.6-19.48,1.89-29.37-.96-5.58-2.4-11.09-5.29-16.11Z"/>
      <path class="cls-10" d="M864.85,287.75c-4.69-.49-8.43-3.13-12.06-5.72-12.79-9.12-19.23-21.5-18.26-37.35.33-5.51,1.91-10.79,3.99-15.91.85-2.1,1.81-2.22,3.43-.74,1.08.98,2.42,1.68,3.63,2.51,1.55,1.06,3.21,1.71,4.92.53,1.7-1.19,1.16-2.99.85-4.61-.77-3.95-1.35-7.9-1.57-11.93-.85-15.89,7.09-26.41,20.44-33.63,4.5-2.43,9.21-4.43,14.19-5.71,1.19-.3,2.08-.89,1.73,1.23-1.79,10.91,2.88,19.73,9.44,27.81,4.65,5.73,9.46,11.29,11.25,18.75.56,2.33.03,4.46-.14,6.69-.08.98-.67,2.34.61,2.92,1.34.61,2.17-.57,2.98-1.4,2.11-2.16,3.38-4.79,4.02-7.72.27-1.23.52-2.45,1.54-3.94,2.54,4.8,4.16,9.45,5.23,14.31,2.19,9.96,2.34,19.82-1.27,29.57-2.38,6.41-6.06,11.83-11.18,16.31-.46.41-.82.85-.88,1.48-.35.23-.7.47-1.06.7-.23.17-.46.35-.69.52-7.88,5.01-16.21,8.61-25.81,8.25.16-.1.32-.26.49-.29,15.94-2.75,26.2-18.5,19.96-36.23-.59-1.68-1.14-2.85-3.13-1.22-1.03.84-2.13,2.51-3.77,1.42-1.49-1-.54-2.72-.6-4.13-.02-.47.24-.95.31-1.44,2.31-15.54-4.93-23.35-18.45-28.31-1.38-.51-1.95-.26-1.66,1.49.53,3.26,0,6.4-1.41,9.47-1.71,3.71-4.19,6.87-6.55,10.12-2.49,3.44-4.07,7.15-3.72,11.52.06.7.59,1.72-.48,2.03-.85.24-1.39-.57-1.88-1.18-1.5-1.87-1.49-4.38-2.75-6.62-3.7,8.57-5.01,17.14-2.45,26.06,1.76,6.13,5.83,10.58,10.75,14.37Z"/>
      <path class="cls-18" d="M864.85,287.75c-4.92-3.79-8.99-8.23-10.75-14.37-2.55-8.92-1.25-17.5,2.45-26.06,1.25,2.25,1.24,4.75,2.75,6.62.49.61,1.03,1.42,1.88,1.18,1.07-.31.54-1.33.48-2.03-.35-4.36,1.23-8.07,3.72-11.52,2.36-3.26,4.84-6.41,6.55-10.12,1.41-3.07,1.94-6.21,1.41-9.47-.28-1.75.28-2,1.66-1.49,13.52,4.97,20.76,12.78,18.45,28.31-.07.49-.33.96-.31,1.44.06,1.41-.9,3.13.6,4.13,1.63,1.09,2.74-.57,3.77-1.42,1.99-1.63,2.53-.46,3.13,1.22,6.24,17.74-4.02,33.48-19.96,36.23-.18.03-.33.19-.49.29-2.79.14-5.58.18-8.35-.3-2.33-.88-4.66-1.77-6.98-2.65Z"/>
      <path class="cls-16" d="M906,282.45c.23-.17.46-.35.69-.52-.23.17-.46.35-.69.52Z"/>
    </g>
    <g>
      <path class="cls-12" d="M787.05,263.64c0-1.45-.64-2.88-1.66-3.92.99-.2,1.96-.46,2.92-.91h0c-.63-5.13-1.11-9.53,6.61-9.49,51.93.29,103.86.31,155.78.41q12.29-.76,13.04,10.27h0s-.15,21.4-.15,21.4c-.05,23.24.02,46.49-.2,69.73-.12,12.44-6.23,19.02-18.17,20.4-46.63,0-93.27-.02-139.9-.03-10.59-1.7-14.59-5.65-16.52-16.34-2.5-21.39-.43-53.12-1.11-74.53"/>
      <path class="cls-12" d="M944.37,371.11c.29.12.57.25.85.43-.28-.17-.56-.3-.85-.43Z"/>
    </g>
    <path class="cls-30" d="M788.05,258.79c-.84-.14-1.71-.23-2.6-.23h-16.48c-6.79,0-12.34,4.32-12.34,9.61s5.55,9.61,12.34,9.61h16.48c.89,0,1.76-.08,2.6-.23v-18.77Z"/>
    <path class="cls-30" d="M963.34,258.79c.84-.14,1.71-.23,2.6-.23h16.48c6.79,0,12.34,4.32,12.34,9.61s-5.55,9.61-12.34,9.61h-16.48c-.89,0-1.76-.08-2.6-.23v-18.77Z"/>
    <path class="cls-30" d="M834.06,134.22c-.32-.32-.57-.68-.73-1.09l-2.94-7.58c-1.21-3.12,2.9-7.66,9.15-10.08,6.24-2.42,12.34-1.85,13.56,1.27l2.94,7.58c.16.41.22.85.2,1.3l-22.17,8.61Z"/>
    <path class="cls-12" d="M844.23,127.55c-44.05,17.11-70.85,53.95-59.84,82.29l159.53-61.95c-11-28.34-55.64-37.44-99.69-20.34Z"/>
    <path class="cls-20" d="M727.96,110.51c1.73.01,39.92,5.71,40.27,6,.95.77,13.05,9.31,14.86,9.76,7.31,1.84,22.54,3.49,22.54,3.49,0,0,10.18,2.11,15.91,2.06,5.73-.06,22.02-2.78,22.02-2.78l-2.5-2.87c-1.16-1.33-2.59-2.4-4.2-3.12l-3.23-1.45c-2.05-.92-2.48-.34-4.72-.48l-10.21.41-11.33-7.45,2.52-2.7c.46-.08.92-.17,1.38-.27,3.66-.74,14.64.14,14.64.14l15.63,10.68s8.62,6.24,13.87,1.08l-10.12-10.39s10.99,11.11,15.56,5.12l-7.11-8.56c1.42,1.25,3.58,1.11,4.83-.3,0-.34-4.13-4.29-4.13-4.63l-16.35-17.94-34.15-5.29-37.2.81-21.3-6.57-6.61,11.38c-1.84,3.17-3.49,6.46-4.92,9.84l-5.96,14.03Z"/>
    <path class="cls-29" d="M815.95,96.82c3.76.28,8.91.74,14.59,1.35l1.57.16h.24s.18.2.18.2c3.78,3.81,7.12,7.27,9.43,9.81s3.72,4.14,3.58,4.27c-1.56-1.03-2.98-2.23-4.25-3.6-2.52-2.3-5.97-5.69-9.76-9.48l.43.2c-.5-.11-1.03-.14-1.56-.16-5.7-.61-10.84-1.22-14.56-1.75-3.72-.53-6-.95-5.99-1.14.02-.19,2.33-.12,6.09.15Z"/>
    <path class="cls-29" d="M826.48,90.16c3.32.37,7.95.96,13.11,1.69l.26.02.17.21,1.05,1.23c3.53,4.17,6.67,7.98,8.9,10.79,2.23,2.8,3.52,4.6,3.37,4.71s-1.72-1.47-4.13-4.12-5.61-6.41-9.2-10.55l-1.05-1.24.44.24c-5.23-.77-9.77-1.51-13.07-2.11-1.8-.2-3.57-.61-5.27-1.21.03-.17,2.1-.02,5.42.35Z"/>
    <path class="cls-28" d="M608.12,544.43c9.32,1.32,19.65,3.93,28.85.68,7.99-2.82,12.62-10.1,16.14-17.36,4.05-8.33,9.1-15.73,18.72-17.97,6.62-1.54,16.81-.88,20.19,6.18,1.27,2.64,1.16,5.87-.21,8.46-1.37,2.59-3.94,4.48-6.79,5.11-3.21.7-6.9-.51-7.73-3.96-.27-1.14-.1-2.43.41-3.55.31-.67-.46-1.36-1.08-.94-1.7,1.14-2.93,2.78-2.53,4.95.19,1.03.72,1.97,1.33,2.81,5.61,7.73,17.73,7.56,21.9-1.41,3.43-7.37,2.59-15.44-4.47-20.01-9.99-6.45-21.56-4.44-30.79,2.21-7.36,5.31-11.02,13.06-14.66,21.07-6.46,14.23-25.72,15.65-39.29,13.72Z"/>
    <path class="cls-28" d="M621.43,541.19c6.47-1.26,11.64-1.89,16.92-6.61,5.3-4.75,8.81-11.46,9.61-18.54.59-5.2-1.01-14.18-7.47-15.05-2.5-.34-6.54.55-8.15,2.49-2.4,2.89-2.92,5.93-2.49,9.86.11,1.02.51,3.2.97,4.13.69,1.39,2.8.77,2.68-.78-.11-1.34-.55-3.91-.4-5.01.32-2.31.88-4.32,3.1-5.36,3.14-1.48,6.52,1.94,7.38,4.65,4.31,13.56-9.32,27.73-22.13,30.22Z"/>
    <path class="cls-28" d="M673.83,547.33c1.81-2.18,2.4-4.3,0-6.81-1.69-1.78-4.47-2.03-6.77-1.6-2.1.39-3.44,2.55.43,5.48.54.41.17,1.28-.5,1.15-8.62-1.56-4.98-8.49-2.59-9.59,2.57-1.18,5.54-1.19,8.31-.61,2.92.62,5.25,2.9,5.8,5.83,1.22,6.41-4.77,11.28-9.89,12.36,0,0-6.65,1.42-11.62,0s-22.47-3.66-22.47-3.66c0,0,18.54.48,23.43,1.12s12.21.72,15.86-3.68Z"/>
    <circle class="cls-7" cx="1082.09" cy="157.46" r="38.28"/>
    <path class="cls-24" d="M1068.13,156.19c-.75-.78-1.5-1.56-2.35-2.21-2.3-1.74-5.45-1.13-7.06,1.39-1.37,2.15-.93,4.57.88,6.35,2.46,2.42,4.88,4.87,7.32,7.31,1.48,1.48,2.93,2.98,4.44,4.41,1.89,1.79,4.88,1.72,6.73-.11.47-.47.94-.94,1.41-1.41,5.04-5.03,10.07-10.06,15.11-15.09h-.01c.06-.06.12-.13.18-.2,2.93-2.93,5.84-5.88,8.8-8.78,1.41-1.38,2.12-2.96,1.7-4.91-.42-1.92-1.64-3.2-3.51-3.75-1.81-.54-3.46-.1-4.8,1.23-3.5,3.46-6.96,6.96-10.45,10.43-2.91,2.9-5.83,5.79-8.74,8.69-1.06,1.02-2.13,2.04-3.26,3.12-.91-.94-1.85-1.96-2.87-2.91l-3.53-3.57Z"/>
    <path class="cls-20" d="M296.76,627.48s.2,151.68,4.35,308.04c3.47,128.62-27.66,294.65-27.66,294.65l-37.44-2.64s-22.31-167.58-21.11-301.75c-12.95-107.21-26.27-164.63-26.27-164.63l14.2-113,93.95-20.68Z"/>
    <path class="cls-20" d="M321.76,682.39c.07.46.01.93-.17,1.36-1.53,3.67-9.4,19.02-9.45,33.54-.05,13.07-.14,32.05-.17,38.64,0,1.56,1.37,2.78,2.9,2.54,2.14-.34,4.93-1.86,6.55-7.08,1.48-5.72,2.46-11.55,2.91-17.43.16-2.06,2.54-3.12,4.16-1.82h0c.64.52,1,1.31.96,2.14l-.96,18.3c-.05.99-.67,1.86-1.58,2.24-3.38,1.39-11.5,5.25-13.76,10.96-.68,1.71.72,3.54,2.56,3.44l11.72-.65c.16,0,.31-.03.47-.07l11.52-2.81c.46-.11.87-.34,1.2-.68l10.32-10.29c.32-.32.55-.72.67-1.17l8.46-32.27c.77-2.93.81-6.02.05-8.96-2.17-8.41-3.89-16.93-5.16-25.52-2.06-16.83-3.22-27.68-3.74-32.7-.17-1.66-1.85-2.71-3.42-2.14l-27.02,9.67c-1.15.41-1.85,1.58-1.67,2.79l2.65,17.99Z"/>
    <path class="cls-22" d="M293.73,303.11c3.75,1.49,38.01,2.09,45.81,31.81,7.8,29.72,6.73,114.72,10.43,140.87,4.74,30.47,6.35,78.7,9.47,117.94l-1.26,62.06-28.22-.43s-19.42-163.82-33.27-205.38c-13.85-41.56-2.97-146.87-2.97-146.87Z"/>
    <path class="cls-20" d="M235.23,636.87s.2,151.68,4.35,308.04c3.47,128.62-27.66,294.65-27.66,294.65l-37.44-2.64s-22.31-167.58-21.11-301.75c-12.95-107.21-26.27-164.63-26.27-164.63l14.2-113,93.95-20.68Z"/>
    <path class="cls-13" d="M331.8,1017.15c6.23-62.51,7.8-189.74,8.01-252.42l-1.46-154.46c-.59-3.53-1.18-7.05-1.71-10.57-4.68.84-3.45,1.52-8.23,1.94-15.62,1.39-31.4.54-46.85-1.79-31.98-4.83-62.43-15.95-91.6-28.37-11.55-4.92-22.96-10.12-34.33-15.36l7.05,4.06s-44.87,40.17-64.35,126.89c-5.52,24.57,9.05,82.91,13.25,139.29,10.62,142.61,28.48,306.32,28.48,306.32,0,0,26.32,17.26,104.99,13.63,17.49-.81,75.4-10.26,75.4-10.26,5.07-23.8,8.9-94.25,11.36-118.9Z"/>
    <path class="cls-22" d="M323.86,467.27c-1.45,1.82-3.59,3.24-3.36,46.82.04,7.89,8.33,35.84,10.14,43.28-6.74,2.27-13.64,4.07-20.65,5.34-30.65,5.53-62.15,1.72-92.2-5.42-25.7-6.11-50.68-14.79-75.52-23.72l.71-1.75-11.2-223.35,48.7-19.34,5.72,3.63.51,4.67c9.29,11.21,20.96,17.52,36.05,17.63,4.42.03,9.06-.23,13.77-.84,13.14-1.69,30.02-9.52,35.96-19.8.22-.39,5.39-.61,7.26.03,12.64,4.37,26.91,10.54,37.38,14.84,0,0,10.28,15.69,11.95,53.18"/>
    <path class="cls-20" d="M188.68,221.55s9.68,35.72,1.03,60.46c-1.21,3.45-20.13,11.18-20.13,11.18l18.76,13.51c15.22,9.34,33.2,13.28,50.89,10.83,5.73-.79,11.38-1.94,16.65-3.35,6.83-1.83,12.96-5.66,17.74-10.87l7.56-8.26s-17.29-4.99-18.3-9.17c-1.01-4.18,1.3-36.16,1.3-36.16"/>
    <path class="cls-37" d="M262.38,278.53s-7.63-2.38-12.75-3.45c-5.12-1.07-13.71-.19-38.23-18.73,0,0,8.46,24.25,38.39,27.54,0,0,7.75,1.08,12.69-.47l-.11-4.89Z"/>
    <path class="cls-20" d="M278.13,126.12c.11.08.22.16.33.23-.12-.17-.24-.34-.33-.51v.28ZM290.81,128.91c.18.18.39.35.6.52v-.23s-.59-.57-.6-.29ZM208.26,254.94c11.74,12.35,30.09,24.93,48.91,25.02,12.77.06,13.3-3.59,18.01-7.89,7.15-6.52,14.69-13.17,20.03-20.89,5.13-7.41,7.4-12.02,9.75-20.69,2.42-8.97,2.43-11.34,1.58-20.34-.38-4.02-.6-10.11-.25-13.96.4-4.45,2.65-21.97,3.18-32.26.53-10.29-9.74-26.47-9.74-26.47-.55-2.8-2.02-4.78-3.49-7.04l-1.21-.03s.6.29.58,1.13c-1.53-.27-3.05-1.14-4.2-2.09v.05c-1.84.8-3.64-.08-5.13-1.5,0,.28.28.84.59.85-1.83.24-3.63-.64-4.82-1.78,0,.28.29.84.28,1.12-1.37-.28-2.73-1.03-3.87-1.81.27.37,7.14-.54,7.13-.35-1.82.24.24.89-1.24-.53l-1.48-1.07c-1.52.25-1.49,1.16-2.68.02.3.29-.77-3.08-.77-2.81-1.82-.04-1.32-.15-2.82-1.02,0,.28-5,1.7-5,1.98-1.52-.03-1.15,1.37-2.34.23.3.28,1.12-1.14,1.42-.86-1.82.24-2.53,1.39-4.02-.03.3.29-5.93-3.18-5.93-3.18-1.83.24-1.53.82-3.02-.33.6.57-8.39-.7-8.1-.14-1.52-.03,2.78,5.62,1.58,4.76,0,.28-3.47-.91-3.47-.91-1.52.25.72,1.69-.47.55,0,.28.28,1.12.58,1.13-1.84.8-3.95.19-5.75-.96.59.57.89,1.14,1.18,1.42-1.52-.03-2.73.22-4.23-.93,0,.28.58,1.13.89,1.13-1.53.52-3.34.21-4.84-.66,0,.28.59.85.88,1.13-1.22.25-2.43.23-3.62-.64l.88,1.13c-1.21-.03-2.13.51-3.94-.09,0,.28.6.57.59.85-.91-.02-2.12-.05-3.03-.34,0,.28.89.85.59.85-1.21-.03-2.13.51-3.64-.08.3.29.59.85.89,1.13-1.21-.03-2.43.22-3.63-.36,0,.28.28.84.58,1.13-1.21-.03-2.14.51-3.64-.08,0,.28.59.85.89,1.13-1.22-.03-2.43.23-3.64-.08,0,.28.6.57.89.85-1.21-.03-2.43.23-3.94-.36-.01.56.28.84.28,1.12-.91-.02-1.51-.31-2.42-.33l-1.53.52c-4.37,5.48-4.47,24.13-4.47,24.13-9.56,7.31-13.54,22.54-13.35,27.84.19,5.3-1.58,16.68-1.58,16.68-1.47-1.98-4.72-6.23-5.58-8.48-.87-1.97-.21-4.46-1.07-6.43-2.63-4.51-8.73-3.25-12.12-.54l-.58.9c-4.78,6.19-.12,25.86,3.2,31.74.77,11.85,11.06,18.27,17.08,9.84l1.55,4.65"/>
    <path class="cls-31" d="M301.67,148.22c-7-16.37-25.66-25.77-63.91-31.27-38.25-5.5-68.52,7.88-68.52,7.88,19.02-54.54,74.7-51.53,87.12-51.26,12.42.27,75.49,50.06,53.54,95.14l-1.12,4.28s-5.83-21.78-7.1-24.76Z"/>
    <path class="cls-31" d="M159.63,113.21s-3.86-34.51,21.52-45.52c33.89-14.71,79.82-20.53,95.47,15.18l-116.98,30.34Z"/>
    <path class="cls-27" d="M161.28,196.77c-2.72-2.86-1.8-10.81-4.12-14-12.13-16.74-7.8-32.79-2.83-42.27,2.17-4.13-.6-11.51-.32-15.16,1.45-19.15,3.67-19.69,32.6-38.76,23.55-15.52,48.69-14.25,63.23-13.16,23.29,1.75,33.54,3.43,41.33,20.14,1.02,2.18-.17,3.9.67,6.51,1.18,3.7,6.93,4.22,7.79,8.9,0,0-30.18,11.39-56.14,24.7-25.96,13.31-72.7,66.01-71.18,82.14.05.51-8.03-15.87-11.03-19.04Z"/>
    <path class="cls-31" d="M149.33,160.14s45.17-53.33,93.28-52.76c0,0-61.4-9.37-89.67,34.49l-.69,1.76c-1.81,4.64-2.79,9.56-2.89,14.53l-.04,1.98Z"/>
    <path class="cls-31" d="M292.49,100.71l-3.24-1.29c-7.52-2.99-15.44-4.88-23.5-5.61l-13.51-1.22s32.8-5.02,39.9,3.41l.35,4.71Z"/>
    <path d="M194.11,177.8l-2.2,27.04-9.26-12.16s8.16-10.67,11.46-14.88Z"/>
    <path class="cls-31" d="M177.91,165.12s-17.46,17.28-18.92,24.24l-1.83-6.59s5.4-12.53,20.75-17.65Z"/>
    <g>
      <path class="cls-11" d="M270.81,224.31c-2.2,1.22-5.62,1.04-7.91-.28-.51-.29-2.16.05-1.45.46,3.02,1.75,7.92,1.79,10.77.21.28-.16.23-.38-.14-.48-.38-.11-.97-.07-1.27.09"/>
      <path class="cls-11" d="M260.46,223.87c-1.52-.67-3.22-.99-4.9-1.08-.25-.01-.56.09-.74.25-.14.13-.16.3.02.4.79.42,1.78.58,2.69.54.29-.01.66-.09.82-.34.14-.23-.14-.37-.36-.36-.75.03-1.52-.09-2.17-.44-.24.22-.48.44-.72.65,1.51.08,3.02.38,4.38.98.27.12.65.03.89-.12.18-.11.36-.36.09-.48"/>
      <path class="cls-11" d="M253.79,224.26c-1.97,0-4.3-.79-5.31-2.23-1.52-2.18-.25-5.74,2.16-7.23.26-.16.12-.36-.16-.41-.36-.07-.77.08-1.04.24-2.11,1.3-3.42,4.22-3.04,6.3.35,1.94,2.27,3.25,4.64,3.75.7.15,1.45.24,2.19.24.3,0,.83-.1.97-.34.14-.24-.13-.33-.41-.33"/>
      <path class="cls-11" d="M274.39,223.22c-.11-.22.08-.37.24-.38.53,0,1.07-.16,1.51-.54.18.21.36.41.54.62-1.06.14-2.12.52-3.05,1.18-.19.13-.46.06-.63-.08-.13-.1-.27-.34-.09-.48"/>
      <path class="cls-11" d="M272.9,223.54c1.04-.74,2.23-1.14,3.42-1.3.17-.02.4.06.53.22.1.12.13.29,0,.4"/>
      <path class="cls-11" d="M278.48,223.38c1.28-.08,2.76-.97,3.35-2.46.89-2.25-.06-4.87-1.7-6.24-.18-.15-.09-.35.08-.41.23-.08.5.04.69.2,1.42,1.2,2.38,3.19,2.23,5.28-.14,1.95-1.33,3.35-2.85,3.95-.45.18-.93.31-1.41.34-.19.01-.54-.07-.65-.3-.1-.23.07-.34.25-.35"/>
    </g>
    <path d="M290.5,187.67c1.7-.83,3.86-.08,4.94.92.25.23.73.94,1.03,2.06.39,1.42-.21,3.01-1.12,3.97-1.21,1.28-3.19,1.46-4.69.72-2.04-1-2.65-3.49-2.1-5.28.1-.33.57-1.71,1.95-2.38"/>
    <path d="M278.37,193.23s8.34-6.27,12.54-6.6c6.13-.47,13.59,3.08,15.69,6.16,0,0-9.86-5.29-14.17-4.83-4.12.44-14.05,5.26-14.05,5.26Z"/>
    <path d="M236.63,186.53c-1.66-.91-4.38-.73-5.5.22-.26.22-.98.86-1.32,1.96-.45,1.4.08,3.02.95,4.01,1.16,1.33,3.13,1.59,4.66.92,2.08-.92,2.8-3.38,2.33-5.19-.09-.33.26-.96-1.08-1.7"/>
    <path d="M250.04,191.83s-9.13-6.09-13.68-6.32c-6.64-.34-14.65,3.38-16.87,6.51,0,0,10.58-5.5,15.25-5.14,4.46.35,15.3,4.95,15.3,4.95Z"/>
    <path d="M307.96,180.31c.38-.98.6-1.95.69-2.98-1.07-1.24-2.03-1.97-2.16-2.07,0,0-2.35-1.81-6.17-2.81-2.64-.69-9.96-1.3-19.73-.41-.02,1.24-.04,2.48-.06,3.73-.01.95-.03,1.89-.04,2.84,3.39-.73,6.29-1.19,8.48-1.48,4.63-.63,7-.93,9.67-.45,2.81.5,5.17,1.54,6.09,1.94,1.29.58,2.16.94,3.19,1.67.01,0,.02.02.03.02Z"/>
    <path d="M250.82,171.84c-.16,1.23-.31,2.46-.47,3.7-.12.94-.25,1.88-.37,2.81-3.94-1.28-7.33-2.22-9.9-2.87-5.43-1.39-8.21-2.08-11.47-2.05-3.42.03-6.4.66-7.56.91-1.63.36-2.72.57-4.06,1.12-2.9,1.2-4.23,2.79-4.65,2.58-.39-.19.46-1.62.55-1.77,2.17-3.61,6.24-5.4,6.55-5.55,0,0,3.07-1.4,7.78-1.76,3.25-.25,12.08.36,23.6,2.86"/>
    <path class="cls-22" d="M320.5,514.09s20.55,70.06,27,85.88c0,0-83.83,31.29-160.61,22.03-76.78-9.26-70.01-16.65-70.01-16.65l25.69-74.85,1.52-32.74,166.88,9.24"/>
    <path class="cls-15" d="M263.54,236.85c-8.37-.33-21.89-1.97-21.89-1.97,0,0,1.77,22.23,21.18,23.01,19.41.77,21.66-21.52,21.66-21.52,0,0-12.58.82-20.95.49Z"/>
    <path class="cls-34" d="M264.2,236.86c-3.98-.16-19.99-1.55-19.99-1.55,0,0,5.05,14.55,19.44,15.13,15.61.62,18.31-13.42,18.31-13.42l-17.76-.16Z"/>
    <path class="cls-17" d="M263.76,237.53c-3.98-.16-16.06-1.39-16.06-1.39,0,0,4.17,5.06,16.11,5.53,11.94.48,15.92-4.12,15.92-4.12l-15.96-.02Z"/>
    <path class="cls-15" d="M285.28,235.86c-.42-.13-1.6.06-3.57-.21-3.28-.45-5.3-1.5-7.68-1.8-4.06-.51-6.72,1.19-8.49,1.11-1.77-.07-4.29-1.97-8.38-1.79-2.4.11-8.34.85-11.65,1.03-1.98.11-4.27-.84-4.69-.74-.59.14.35,5.02,22.62,5.91,22.27.89,22.43-3.33,21.84-3.51Z"/>
    <path class="cls-25" d="M331.69,361.01c-1.37,2.99-2.06,6.4-2.43,9.65-.42,3.63-.42,7.29.44,10.85,1.59,6.61,3.74,13.08,5.36,19.69,4.59,18.82,7.04,40.18-2.11,58.07-1.26,2.46-2.72,4.81-4.39,7.02-.53.7-.71.91-.88,1.69-.55,2.61-1.01,5.23-1.42,7.86-1.55,9.88-2.4,19.94-2.03,29.95.21,5.66.82,11.34,2.18,16.84.93,3.74,1.82,7.47,2.6,11.24,1.88,9.04,3.46,18.14,4.95,27.24,2.21,13.52,4.22,27.08,6.05,40.66.03.23.06.46.09.69.05.34,1.51.04,1.45-.39-1.53-11.53-3.23-23.03-5.04-34.52-1.46-9.27-3.01-18.52-4.78-27.74-.78-4.05-1.6-8.09-2.53-12.11-1.04-4.51-2.24-8.94-2.83-13.55-1.4-10.95-.83-22.13.54-33.05.45-3.59,1-7.17,1.67-10.73.17-.91.35-1.82.54-2.72.22-1.05.96-1.71,1.59-2.59,11.77-16.6,11.2-38.18,7.34-57.29-1.56-7.72-3.77-15.26-5.9-22.83-.6-2.14-1.28-4.33-1.55-6.54-.62-5.03.08-10.39,1.61-15.21.26-.82.54-1.64.89-2.42.13-.29-1.25-.17-1.44.23h0Z"/>
    <path class="cls-20" d="M137.75,768.58c-4.87-7.05-11.27-16.63-11.05-18.07.22-1.44.14-11.28.04-19.88-.26-4.39,3.06-8.12,7.41-8.32,1.13-.05,7.53,20.05,16.44,16.9l-1.83-17.95c-1.42-5.74-3.56-11.27-6.37-16.48-3.88-6.26-20.6-20.31-20.6-20.31l-2.29-11.55-35.59,4.59,2.03,11.57-4.05,22.27s1.76,41.84,5.55,46.65,16.37,9.7,16.37,9.7c3.91,7.11,14.96,7.11,14.96,7.11,10.23,9.63,11.55.83,11.55.83.27.41.65.73,1.09.94,4.78,2.26,9.27-3.82,6.33-8.01Z"/>
    <path class="cls-37" d="M125.68,770.1c-4.28-3.74-7.69-8.37-9.99-13.57-1.76-5.47-2.44-11.21-1.99-16.92.15-1.28.22-2.56.22-3.84-.39.16-.78.33-1.17.48-.2,1.11-.33,2.23-.37,3.36-.86,5.9-.33,11.93,1.53,17.62,2.37,5.49,6.12,10.28,10.88,13.88,1.76,1.67,3.77,3.06,5.94,4.11-1.5-1.88-3.19-3.59-5.05-5.11Z"/>
    <path class="cls-37" d="M115.09,769.4c-1.22-1.62-2.72-3.51-4.42-5.59-1.85-2.15-3.49-4.47-4.9-6.94-1.2-2.59-1.89-5.38-2.03-8.22-.21-2.35-.29-4.71-.25-7.06.01-.65.03-1.25.06-1.82-.38.15-.76.29-1.14.44-.04.45-.08.9-.08,1.36-.24,2.42-.3,4.87-.17,7.3.04,3.06.7,6.08,1.95,8.88,1.47,2.59,3.23,5.01,5.24,7.2l4.73,5.32c1.35,1.76,2.94,3.31,4.73,4.6-.97-2-2.21-3.84-3.71-5.48Z"/>
    <path class="cls-37" d="M100.74,764.26c-1.14-1.22-2.2-2.51-3.2-3.84-.59-.79-1.15-1.61-1.65-2.46-.55-.77-.91-1.66-1.04-2.6-.43-4.56-1-8.57-1.41-11.51-.01-.18-.05-.37-.07-.55-.42.13-.84.25-1.25.37.08,3,.39,7.21.86,11.81.16,1.23.62,2.41,1.35,3.41.56.89,1.18,1.73,1.85,2.54,1.09,1.38,2.31,2.65,3.64,3.79,2.29,1.96,4.03,2.71,4.14,2.48.11-.22-1.28-1.32-3.22-3.45Z"/>
    <path class="cls-22" d="M149.5,413.24l-6.36-108.89s-37.45,9.35-49.47,40.84c-10.75,33.8-31.52,141.79-31.3,163.93.35,34.78,5.28,66.89,19.62,180.23l45.97-7.15,1.99-177.05,19.56-91.91Z"/>
    <path class="cls-25" d="M133.21,329.95c7.43,1.81,12.1,8.55,14.88,15.24,3.48,8.37,5.01,17.71,5.78,26.69,1.7,19.8-1.62,39.59-5.94,58.86-2.5,11.14-5.33,22.21-7.88,33.34-.17.74,1.32.58,1.47-.09,4.62-20.2,10.29-40.25,12.9-60.85,1.26-9.97,1.76-20.06,1.01-30.09-.69-9.22-2.16-18.77-5.57-27.41-2.95-7.48-7.94-14.77-16.18-16.78-.74-.18-1.44.87-.49,1.1h0Z"/>
    <path class="cls-25" d="M128.21,569.57c.72,14.66,1.44,29.32,2.15,43.98.02.5,1.48.19,1.45-.39-.72-14.66-1.44-29.32-2.15-43.98-.02-.5-1.48-.19-1.45.39h0Z"/>
    <polygon class="cls-33" points="659.77 689.44 616.35 689.44 618.13 684.91 657.99 684.91 659.77 689.44"/>
    <polygon class="cls-33" points="659.77 696.32 616.35 696.32 618.13 691.8 657.99 691.8 659.77 696.32"/>
    <polygon class="cls-33" points="659.77 703.53 616.35 703.53 618.13 699.01 657.99 699.01 659.77 703.53"/>
    <polygon class="cls-33" points="735.26 689.44 691.83 689.44 693.61 684.91 733.48 684.91 735.26 689.44"/>
    <polygon class="cls-33" points="735.26 696.32 691.83 696.32 693.61 691.8 733.48 691.8 735.26 696.32"/>
    <polygon class="cls-33" points="735.26 703.53 691.83 703.53 693.61 699.01 733.48 699.01 735.26 703.53"/>
    <polygon class="cls-33" points="507.79 689.51 464.36 689.51 466.14 684.99 506.01 684.99 507.79 689.51"/>
    <polygon class="cls-33" points="507.79 696.4 464.36 696.4 466.14 691.87 506.01 691.87 507.79 696.4"/>
    <polygon class="cls-33" points="507.79 703.61 464.36 703.61 466.14 699.08 506.01 699.08 507.79 703.61"/>
    <polygon class="cls-33" points="583.28 689.51 539.85 689.51 541.63 684.99 581.5 684.99 583.28 689.51"/>
    <polygon class="cls-33" points="583.28 696.4 539.85 696.4 541.63 691.87 581.5 691.87 583.28 696.4"/>
    <polygon class="cls-33" points="583.28 703.61 539.85 703.61 541.63 699.08 581.5 699.08 583.28 703.61"/>
  </g>
</svg>