<?xml version="1.0" encoding="UTF-8"?>
<svg xmlns="http://www.w3.org/2000/svg" xmlns:xlink="http://www.w3.org/1999/xlink" viewBox="0 0 1334 1000">
  <defs>
    <style>
      .cls-1 {
        fill: #543021;
      }

      .cls-2, .cls-3, .cls-4, .cls-5 {
        fill: none;
      }

      .cls-6 {
        fill: #633719;
      }

      .cls-7 {
        fill: #fdc642;
      }

      .cls-8 {
        fill: #13110f;
      }

      .cls-9 {
        fill: #72cee6;
      }

      .cls-10 {
        filter: url(#drop-shadow-14);
      }

      .cls-10, .cls-11, .cls-12, .cls-13, .cls-14, .cls-15, .cls-16, .cls-17, .cls-18, .cls-19, .cls-20 {
        fill: #fff;
      }

      .cls-11 {
        filter: url(#drop-shadow-13);
      }

      .cls-12 {
        filter: url(#drop-shadow-10);
      }

      .cls-13 {
        filter: url(#drop-shadow-12);
      }

      .cls-14 {
        filter: url(#drop-shadow-11);
      }

      .cls-21 {
        fill: #52656c;
      }

      .cls-22 {
        fill: #67402e;
      }

      .cls-3 {
        stroke: #65c1d6;
        stroke-linecap: round;
        stroke-width: 2.47px;
      }

      .cls-3, .cls-4, .cls-5 {
        stroke-miterlimit: 10;
      }

      .cls-23 {
        fill: #fdde13;
      }

      .cls-24 {
        fill: #010101;
      }

      .cls-25 {
        fill: #606161;
      }

      .cls-26 {
        fill: #727272;
      }

      .cls-27 {
        fill: #e14126;
      }

      .cls-28 {
        fill: #777;
      }

      .cls-29 {
        fill: #5f6161;
      }

      .cls-30 {
        fill: #1d3942;
      }

      .cls-31 {
        fill: #282b2b;
      }

      .cls-32 {
        fill: #653c29;
      }

      .cls-33 {
        fill: #231f20;
      }

      .cls-34 {
        fill: #8e8e8e;
      }

      .cls-35 {
        fill: #d2c2a1;
      }

      .cls-36 {
        fill: #715446;
      }

      .cls-37 {
        fill: #a3a2a0;
      }

      .cls-38 {
        fill: #f6871f;
      }

      .cls-15 {
        opacity: .15;
      }

      .cls-39 {
        opacity: .63;
      }

      .cls-39, .cls-40 {
        fill: #fffffc;
      }

      .cls-40 {
        opacity: .71;
      }

      .cls-41 {
        fill: #e24226;
      }

      .cls-42 {
        fill: #4c2713;
      }

      .cls-43 {
        fill: #a66e53;
      }

      .cls-44 {
        fill: #31160e;
      }

      .cls-45 {
        fill: #ce8d2a;
      }

      .cls-4 {
        opacity: .51;
        stroke: #fff;
        stroke-width: 2.06px;
      }

      .cls-46 {
        fill: #c95744;
      }

      .cls-47 {
        fill: url(#linear-gradient);
        opacity: .5;
      }

      .cls-48 {
        fill: #5b1a13;
      }

      .cls-5 {
        stroke: #a38166;
        stroke-width: .34px;
      }

      .cls-49 {
        fill: #5e1a15;
      }

      .cls-50 {
        fill: #7b5342;
      }

      .cls-51 {
        fill: #df8c26;
      }

      .cls-52 {
        fill: #f3e1b5;
      }

      .cls-17 {
        filter: url(#drop-shadow-1);
      }

      .cls-18 {
        filter: url(#drop-shadow-9);
      }

      .cls-19 {
        filter: url(#drop-shadow-3);
      }

      .cls-20 {
        filter: url(#drop-shadow-2);
      }

      .cls-53 {
        fill: #319c47;
      }

      .cls-54 {
        fill: #653c2a;
      }

      .cls-55 {
        fill: #383838;
      }

      .cls-56 {
        fill: #4f2f26;
      }

      .cls-57 {
        fill: #b15e27;
      }

      .cls-58 {
        fill: #f2ebd1;
      }

      .cls-59 {
        fill: #545a5c;
      }

      .cls-60 {
        fill: #24180f;
      }

      .cls-61 {
        fill: #bb997a;
      }

      .cls-62 {
        fill: #e04026;
      }

      .cls-63 {
        fill: #61686c;
      }

      .cls-64 {
        fill: #343535;
      }

      .cls-65 {
        fill: #e14326;
      }

      .cls-66 {
        fill: #a38166;
      }

      .cls-67 {
        fill: #361b10;
      }

      .cls-68 {
        clip-path: url(#clippath);
      }

      .cls-69 {
        fill: #4f2e25;
      }

      .cls-70 {
        fill: #9ddaea;
        opacity: .2;
      }
    </style>
    <linearGradient id="linear-gradient" x1="-3513.79" y1="5876.58" x2="-2436.83" y2="5876.58" gradientTransform="translate(-5217.31 3496.28) rotate(90) scale(1 -1)" gradientUnits="userSpaceOnUse">
      <stop offset="0" stop-color="#f0ebe0"/>
      <stop offset=".18" stop-color="#eee8dd" stop-opacity=".99"/>
      <stop offset=".33" stop-color="#e8e1d4" stop-opacity=".97"/>
      <stop offset=".46" stop-color="#ded4c5" stop-opacity=".93"/>
      <stop offset=".59" stop-color="#d0c2b0" stop-opacity=".88"/>
      <stop offset=".72" stop-color="#bdab95" stop-opacity=".82"/>
      <stop offset=".84" stop-color="#a78e73" stop-opacity=".73"/>
      <stop offset=".96" stop-color="#8d6d4d" stop-opacity=".64"/>
      <stop offset="1" stop-color="#83603d" stop-opacity=".6"/>
    </linearGradient>
    <filter id="drop-shadow-1" x="264.08" y="58.26" width="456.48" height="360.96" filterUnits="userSpaceOnUse">
      <feOffset dx="7" dy="7"/>
      <feGaussianBlur result="blur" stdDeviation="5"/>
      <feFlood flood-color="#231f20" flood-opacity=".2"/>
      <feComposite in2="blur" operator="in"/>
      <feComposite in="SourceGraphic"/>
    </filter>
    <filter id="drop-shadow-2" x="807.52" y="410.74" width="527.04" height="399.84" filterUnits="userSpaceOnUse">
      <feOffset dx="7" dy="7"/>
      <feGaussianBlur result="blur-2" stdDeviation="5"/>
      <feFlood flood-color="#231f20" flood-opacity=".2"/>
      <feComposite in2="blur-2" operator="in"/>
      <feComposite in="SourceGraphic"/>
    </filter>
    <filter id="drop-shadow-3" x="710.08" y="31.14" width="545.28" height="382.08" filterUnits="userSpaceOnUse">
      <feOffset dx="7" dy="7"/>
      <feGaussianBlur result="blur-3" stdDeviation="5"/>
      <feFlood flood-color="#231f20" flood-opacity=".2"/>
      <feComposite in2="blur-3" operator="in"/>
      <feComposite in="SourceGraphic"/>
    </filter>
    <clipPath id="clippath">
      <path class="cls-2" d="M1256.09,544.99c-6.46-2.19-13.05-3.91-19.74-5.15-2.46-.56-3.18-1.61-2.85-4.16,2.46-19.12-3.48-35.54-15.21-50-7.82-9.58-17.68-17.15-28.8-22.13-17.35-8.11-36.59-10.84-55.41-7.85-11.76,1.81-23.09,5.82-33.45,11.86-1.24,1.14-3.14,1.01-4.23-.27-.19-.23-.35-.48-.48-.75-5.66-7.71-12.62-14.31-20.55-19.46-13.53-8.83-29.02-13.92-45-14.81-14.63-1.11-29.32,1.22-42.96,6.83-20.46,8.63-36.15,22.53-44.7,44.11-.95,2.33-1.69,4.74-2.22,7.2-.48,2.27-1.62,2.86-3.72,2.73-6-.34-12-.9-17.82-.68-23.08.25-45.16,9.79-61.56,26.6-13.64,13.28-20.8,32.19-19.5,51.52.92,11.28,4.73,22.1,11.04,31.35,2.37,3.72,2.4,3.91-.75,6.77-8.51,7.54-15.08,17.13-19.14,27.93-4.71,12.29-5.4,25.84-1.98,38.58.52,1.97,1.18,3.82,1.82,5.68l404.07,1.21c5.5-1.92,31.24-5.59,36.28-8.63,19.08-11.42,29.3-27.38,33.29-50.38,2.85-15.75-.38-32.03-9-45.35-9.76-15.25-20.73-26.76-37.43-32.75Z"/>
    </clipPath>
    <filter id="drop-shadow-9" x="243.96" y="241.16" width="66.96" height="61.92" filterUnits="userSpaceOnUse">
      <feOffset dx="7" dy="7"/>
      <feGaussianBlur result="blur-4" stdDeviation="5"/>
      <feFlood flood-color="#231f20" flood-opacity=".2"/>
      <feComposite in2="blur-4" operator="in"/>
      <feComposite in="SourceGraphic"/>
    </filter>
    <filter id="drop-shadow-10" x="220.2" y="266.12" width="55.92" height="52.56" filterUnits="userSpaceOnUse">
      <feOffset dx="7" dy="7"/>
      <feGaussianBlur result="blur-5" stdDeviation="5"/>
      <feFlood flood-color="#231f20" flood-opacity=".2"/>
      <feComposite in2="blur-5" operator="in"/>
      <feComposite in="SourceGraphic"/>
    </filter>
    <filter id="drop-shadow-11" x="710.58" y="101.73" width="66.96" height="61.92" filterUnits="userSpaceOnUse">
      <feOffset dx="7" dy="7"/>
      <feGaussianBlur result="blur-6" stdDeviation="5"/>
      <feFlood flood-color="#231f20" flood-opacity=".2"/>
      <feComposite in2="blur-6" operator="in"/>
      <feComposite in="SourceGraphic"/>
    </filter>
    <filter id="drop-shadow-12" x="913.7" y="411.01" width="66.96" height="61.92" filterUnits="userSpaceOnUse">
      <feOffset dx="7" dy="7"/>
      <feGaussianBlur result="blur-7" stdDeviation="5"/>
      <feFlood flood-color="#231f20" flood-opacity=".2"/>
      <feComposite in2="blur-7" operator="in"/>
      <feComposite in="SourceGraphic"/>
    </filter>
    <filter id="drop-shadow-13" x="686.82" y="126.69" width="55.92" height="52.56" filterUnits="userSpaceOnUse">
      <feOffset dx="7" dy="7"/>
      <feGaussianBlur result="blur-8" stdDeviation="5"/>
      <feFlood flood-color="#231f20" flood-opacity=".2"/>
      <feComposite in2="blur-8" operator="in"/>
      <feComposite in="SourceGraphic"/>
    </filter>
    <filter id="drop-shadow-14" x="876" y="397.02" width="55.92" height="52.56" filterUnits="userSpaceOnUse">
      <feOffset dx="7" dy="7"/>
      <feGaussianBlur result="blur-9" stdDeviation="5"/>
      <feFlood flood-color="#231f20" flood-opacity=".2"/>
      <feComposite in2="blur-9" operator="in"/>
      <feComposite in="SourceGraphic"/>
    </filter>
  </defs>
  <g id="Layer_2" data-name="Layer 2">
    <polyline class="cls-58" points="1340.9 1047.54 1340.9 -50.99 -22.37 -50.99 -22.37 1047.54"/>
    <polyline class="cls-47" points="1340.9 1055.9 -22.37 1055.9 -22.37 -21.07 1340.9 -21.07"/>
    <polyline class="cls-36" points="-17.45 1084.12 1350.9 1084.12 1350.9 971.6 -17.45 971.6"/>
  </g>
  <g id="Layer_1" data-name="Layer 1">
    <path class="cls-43" d="M194.34,619.66s-4.47,81.55-4.14,165.67c.3,69.19-15.74,158.08-15.74,158.08l-20.1-1.87s-12.68-90.37-10.4-162.49c-5.66-57.8-9.4-88.83-9.4-88.83l9.01-60.58,50.76-9.97Z"/>
    <path class="cls-43" d="M170.15,939.57s21.2,11.24,31.25,20.36c11.81,10.73-1.12,3.09-1.12,3.09,0,0-5.39,7.66-10.99,7.39-5.6-.27-37.56-17.96-37.56-17.96l2.82-11.54,15.6-1.34Z"/>
    <g>
      <polygon class="cls-67" points="166.59 971.56 159.32 974.16 158.23 953.84 164.6 957.41 166.59 971.56"/>
      <polygon class="cls-42" points="158.26 953.27 159.32 974.16 151.7 971.89 152.75 954.24 158.26 953.27"/>
      <path class="cls-67" d="M222.29,976.78c-1.14.83-2.52,1.29-3.95,1.32-6.91.12-28.54.4-33.26-.81-6.89-1.77-5.8-.45-12.67-5.39-6.78-4.87-17.84-5.43-20.36-6.62-2.52-1.2.05-11.57.05-11.57,0,0,.11-2.04,2.06-1.8h.31s6.22,5.25,6.22,5.25l16.63,7.53,9.74,8.11,18.29.56,14.55-1.68s3.37.64,3.96,1.16c.59.52.73,1.72.28,2.4-.21.32-1.03.96-1.84,1.55Z"/>
      <path class="cls-1" d="M152.42,948.96c4.25-.07,5.54,4.62,13.59,8.78,3.6,1.86,22.41,10.1,26.26,7.21,1.03-.38,2.14-1,3.41-1.95,4.57-3.39,7.32-3.38,7.32-3.38,0,0,2.86,2.31,5.87,3.83,3.01,1.52,7.94,4.22,11.45,6.26,3.52,2.04,2.26,3.58,2.26,3.58,0,0-2.56,1.98-4.69,2.19-2.13.21-6.08.53-11.09.52-5.01,0-20.21-.38-24.01-1.99-2.8-1.19-6.13-1.21-11.91-6.34-5.29-4.7-19.79-4.2-20.51-5.99-.72-1.79-.73-6.54.36-8.98.16-.35,1.4-3.12,1.68-3.74Z"/>
    </g>
    <path class="cls-43" d="M161.14,623.95s-7.19,81.55-6.87,165.67c.3,69.19-13.01,158.08-13.01,158.08l-20.1-1.87s-15.4-90.37-13.13-162.49c-5.66-57.8-6.67-88.83-6.67-88.83l9.01-60.58,50.76-9.97Z"/>
    <path class="cls-43" d="M136.95,943.86s21.2,11.24,31.25,20.36c11.81,10.73-1.12,3.09-1.12,3.09,0,0-5.39,7.66-10.99,7.39-5.6-.27-37.56-17.96-37.56-17.96l2.82-11.54,15.6-1.34Z"/>
    <g>
      <polygon class="cls-67" points="133.4 975.85 126.12 978.46 125.03 958.14 131.4 961.71 133.4 975.85"/>
      <polygon class="cls-42" points="125.06 957.57 126.12 978.46 118.5 976.19 119.55 958.54 125.06 957.57"/>
      <path class="cls-67" d="M189.09,981.08c-1.14.83-2.52,1.29-3.95,1.32-6.91.12-28.54.4-33.26-.81-6.89-1.77-5.8-.45-12.67-5.39-6.78-4.87-17.84-5.43-20.36-6.62-2.52-1.2.05-11.57.05-11.57,0,0,.11-2.04,2.06-1.8h.31s6.22,5.25,6.22,5.25l16.63,7.53,9.74,8.11,18.29.56,14.55-1.68s3.37.64,3.96,1.16c.59.52.73,1.72.28,2.4-.21.32-1.03.96-1.84,1.55Z"/>
      <path class="cls-1" d="M119.22,953.26c4.25-.07,5.54,4.62,13.59,8.78,3.6,1.86,22.41,10.1,26.26,7.21,1.03-.38,2.14-1,3.41-1.95,4.57-3.39,7.32-3.38,7.32-3.38,0,0,2.86,2.31,5.87,3.83,3.01,1.52,7.94,4.22,11.45,6.26,3.52,2.04,2.26,3.58,2.26,3.58,0,0-2.56,1.98-4.69,2.19-2.13.21-6.08.53-11.09.52-5.01,0-20.21-.38-24.01-1.99-2.8-1.19-6.13-1.21-11.91-6.34-5.29-4.7-19.79-4.2-20.51-5.99-.72-1.79-.73-6.54.36-8.98.16-.35,1.4-3.12,1.68-3.74Z"/>
    </g>
    <path class="cls-17" d="M309.03,342.54c-17.07-9.82-29.71-23.95-34.87-45.01-3.05-12.11-2.43-24.98,1.76-36.66,3.62-10.26,9.47-19.38,17.05-26.54,2.81-2.71,2.78-2.89.67-6.43-5.62-8.79-9.02-19.07-9.83-29.79-1.16-18.37,5.22-36.34,17.37-48.96,14.6-15.97,34.27-25.04,54.83-25.28,5.18-.21,10.53.32,15.87.65,1.87.12,2.89-.44,3.31-2.6.47-2.34,1.13-4.63,1.98-6.84,7.61-20.5,21.59-33.71,39.81-41.91,12.15-5.33,25.23-7.55,38.26-6.49,14.23.84,28.03,5.68,40.08,14.07,7.06,4.9,13.26,11.16,18.3,18.49.11.26.25.5.42.72.98,1.22,2.67,1.34,3.77.26,9.22-5.73,19.32-9.55,29.79-11.27,16.76-2.84,33.9-.25,49.35,7.46,9.91,4.73,18.69,11.93,25.65,21.03,10.45,13.74,15.74,29.35,13.55,47.51-.29,2.42.35,3.42,2.54,3.95,5.96,1.18,11.83,2.81,17.58,4.9,14.88,5.69,24.65,16.62,33.34,31.12,7.68,12.65,10.56,28.12,8.02,43.09-3.55,21.85-12.66,37.01-29.65,47.87-8.48,5.46-17.83,9.07-27.55,10.65-3.1.53-3.66,1.39-3.1,4.81,1.96,11.68.56,23.75-4.01,34.51-8.39,19.85-22.84,32.38-41.07,39.76-13.18,5.36-27.34,7.08-41.25,5.01-14.8-1.87-28.86-8.1-40.72-18.05-.13-.16-.28-.31-.44-.44-1.34-1.12-3.25-.83-4.27.65-11.67,12.17-26.41,20.15-42.27,22.89-8.67,1.6-17.51,1.79-26.24.56-12.09-1.57-23.7-6.12-33.99-13.3-11.17-7.49-20.04-18.52-25.46-31.65-1.07-2.68-2.43-3.16-4.86-2.39-7.99,2.69-16.29,4.07-24.64,4.1-13.59-.05-26.98-3.63-39.09-10.44Z"/>
    <path class="cls-43" d="M366.79,184.04l-7.31-8.62,10.04-13.05,10.53-12.02,12.94-16.9-12.18-.04c-2.06.25-11.53,2.65-13.21,3.86l-30.47,28.68-53.18,21.9v2.12c-.65,7.92.4,21.02,8.13,34.73l1.57,3.17,49.99-37.53,8,.38c8,.41,15.16-6.7,15.16-6.7Z"/>
    <path class="cls-20" d="M858.42,727.55c-19.9-10.98-34.63-26.77-40.64-50.31-3.55-13.53-2.83-27.92,2.06-40.98,4.21-11.47,11.04-21.66,19.87-29.67,3.27-3.03,3.24-3.23.78-7.19-6.55-9.82-10.51-21.32-11.46-33.3-1.35-20.53,6.08-40.62,20.24-54.73,17.02-17.86,39.94-27.99,63.91-28.25,6.04-.23,12.27.36,18.5.73,2.18.13,3.36-.49,3.86-2.9.55-2.62,1.32-5.18,2.3-7.65,8.88-22.91,25.16-37.68,46.4-46.85,14.16-5.95,29.41-8.43,44.6-7.25,16.58.94,32.67,6.35,46.72,15.73,8.23,5.47,15.46,12.48,21.33,20.67.13.29.29.56.49.8,1.14,1.36,3.11,1.49,4.4.29,10.75-6.41,22.52-10.68,34.73-12.59,19.53-3.17,39.52-.27,57.52,8.34,11.55,5.28,21.78,13.33,29.9,23.51,12.18,15.36,18.34,32.8,15.79,53.11-.34,2.7.4,3.82,2.96,4.42,6.94,1.31,13.79,3.14,20.49,5.47,17.34,6.36,28.73,18.58,38.86,34.78,8.95,14.14,12.31,31.44,9.34,48.17-4.14,24.43-14.75,41.38-34.56,53.51-9.89,6.1-20.79,10.14-32.11,11.9-3.61.59-4.27,1.55-3.61,5.37,2.28,13.06.65,26.55-4.67,38.57-9.78,22.19-26.63,36.2-47.87,44.44-15.36,5.99-31.87,7.91-48.09,5.6-17.25-2.09-33.64-9.06-47.46-20.18-.15-.18-.32-.35-.51-.5-1.56-1.25-3.79-.93-4.97.73-13.6,13.6-30.78,22.52-49.27,25.58-10.11,1.79-20.41,2-30.58.63-14.09-1.76-27.63-6.84-39.62-14.87-13.02-8.38-23.36-20.7-29.68-35.38-1.25-3-2.83-3.53-5.67-2.67-9.31,3.01-18.98,4.55-28.71,4.58-15.84-.06-31.45-4.06-45.56-11.67Z"/>
    <path class="cls-53" d="M831.46,677.93c.17,9.88,14.82,33.33,25.94,39.57,13.87,7.62,29.21,11.61,44.78,11.67,9.57-.03,19.07-1.58,28.22-4.58,2.79-.86,7.67-1.27,8.9,1.73,6.21,14.67,13.05,27.94,25.85,36.31,11.78,8.03,25.09,13.11,38.94,14.87,9.99,1.38,20.12,1.16,30.06-.63,18.17-3.06,35.05-11.98,48.43-25.58,1.16-1.65,3.35-1.98,4.89-.73.18.15.35.31.5.5,13.58,11.12,29.7,18.09,46.65,20.18,15.94,2.31,32.17.38,47.26-5.6,20.88-8.24,37.44-22.25,47.05-44.44,5.23-12.03,6.83-25.51,4.59-38.57-.64-3.82,0-4.78,3.55-5.37,8.63-1.36,16.99-4.14,24.85-8.14v-4.35h-432.22l1.76,13.18Z"/>
    <path class="cls-52" d="M827.14,673.26c.12,7.02,7.64,20.9,16.01,30.58h389.54c1.83-8.46,2.04-17.27.55-25.9-.65-3.82,0-4.78,3.59-5.37,8.72-1.36,17.16-4.14,25.1-8.14v-4.35h-436.56l1.78,13.18Z"/>
    <path class="cls-52" d="M1256.53,544.8c-6.46-2.19-13.05-3.91-19.74-5.15-2.46-.56-3.18-1.61-2.85-4.16,2.46-19.12-3.48-35.54-15.21-50-7.82-9.58-17.68-17.15-28.8-22.13-17.35-8.11-36.59-10.84-55.41-7.85-11.76,1.81-23.09,5.82-33.45,11.86-1.24,1.14-3.14,1.01-4.23-.27-.19-.23-.35-.48-.48-.75-5.66-7.71-12.62-14.31-20.55-19.46-13.53-8.83-29.02-13.92-45-14.81-14.63-1.11-29.32,1.22-42.96,6.83-20.46,8.63-36.15,22.53-44.7,44.11-.95,2.33-1.69,4.74-2.22,7.2-.48,2.27-1.62,2.86-3.72,2.73-6-.34-12-.9-17.82-.68-23.08.25-45.16,9.79-61.56,26.6-13.64,13.28-20.8,32.19-19.5,51.52.92,11.28,4.73,22.1,11.04,31.35,2.37,3.72,2.4,3.91-.75,6.77-8.51,7.54-15.08,17.13-19.14,27.93-4.71,12.29-5.4,25.84-1.98,38.58.52,1.97,1.18,3.82,1.82,5.68l404.07,1.21c5.5-1.92,31.24-5.59,36.28-8.63,19.08-11.42,29.3-27.38,33.29-50.38,2.85-15.75-.38-32.03-9-45.35-9.76-15.25-20.73-26.76-37.43-32.75Z"/>
    <rect class="cls-66" x="1062.01" y="482.08" width="94.76" height="222.16"/>
    <rect class="cls-61" x="1156.77" y="480.62" width="5.57" height="223.63"/>
    <rect class="cls-61" x="1059.82" y="480.62" width="5.17" height="223.45"/>
    <rect class="cls-61" x="1059.82" y="479.28" width="102.52" height="5.45"/>
    <g>
      <path class="cls-29" d="M1077.74,582.87h10.46c.69,0,1.25.77,1.25,1.72h0c0,.95-.56,1.72-1.25,1.72h-10.46c-.69,0-1.25-.77-1.25-1.72h0c0-.95.56-1.72,1.25-1.72Z"/>
      <path class="cls-29" d="M1077.72,586.64c-.08,0-.15,0-.23-.01-.46-.05-.93-.27-1.2-.76-.15-.27-.23-.61-.26-.95-.04-.38-.03-.78.08-1.14.2-.65.72-.95,1.21-1.09.12-.03,1.55-.21,1.55-.11v-6.18c0-1.79-1.1-3.24-2.45-3.24h-.87c-1.35,0-2.45,1.45-2.45,3.24v22.35c0,1.79,1.1,3.24,2.45,3.24h.87c1.35,0,2.45-1.45,2.45-3.24,0-1.35,0-2.71,0-4.06v-6.53c0-.52,0-1.04,0-1.57-.38,0-.76.06-1.14.05Z"/>
    </g>
    <path class="cls-64" d="M1076.36,596.97v1.27c0,.27-.2.5-.44.5-.24,0-.43-.23-.43-.5v-1.27c-.35-.18-.57-.58-.56-1.02.01-.61.45-1.09.99-1.07s.96.51.95,1.12c0,.4-.19.78-.5.97Z"/>
    <line class="cls-5" x1="1059.82" y1="479.28" x2="1064.99" y2="484.73"/>
    <line class="cls-5" x1="1162.34" y1="479.28" x2="1157.21" y2="485.07"/>
    <g>
      <path class="cls-62" d="M286.77,566.59c1.62.59,2.92,1.74,4.65,2.63-.77-11.96,1.29-23.13,6.43-34.19.67,2.51,1.17,4.57,1.77,6.61.55,1.86,1.22,3.67,2.44,5.24.55.71,1.18,1.33,1.94,1.8.7.44,1.57,1.1,2.27.7.72-.41.18-1.41.04-2.12-1.63-8.44,1.74-15.4,6.48-21.93,3.28-4.52,6.75-8.91,9.37-13.89,3.4-6.46,4.77-13.17,3.04-20.38-.15-.62-.54-1.46.76-1.02,8.26,2.74,16.09,6.26,22.62,12.2,8.31,7.55,11.71,17.05,11.33,28.12-.16,4.44-.99,8.79-1.6,13.18-.1.71-.18,1.44-.12,2.15.16,1.96,2.33,3.24,4,2.23,1.88-1.14,3.61-2.55,5.42-3.82,1.76-1.24,1.79-1.24,2.59.67,2.93,7,4.2,14.31,3.95,21.89-.02.5,0,.99.01,1.49,0,.03.08.06.23.18.8-.45,1.64-.95,2.49-1.42.59-.33.89-.21.93.53.54,11.01-.15,21.79-6.65,31.24-5.45,7.92-13.49,11.32-22.77,12.27-4.77.49-9.52.29-14.23-.62-1.56-.3-3.05-.09-4.59.13-9.09,1.32-18.03,1.14-26.44-3.13-7.56-3.84-12.08-10.19-14.49-18.16-2.18-7.2-2.56-14.58-2.06-22.04.01-.15.11-.3.19-.52ZM349.18,603.34c.2-.13.4-.26.59-.4,1.73-.12,2.84-1.41,4.07-2.35,5.33-4.05,9.57-8.96,11.73-15.45,1.8-5.42,2.02-10.95,1.07-16.51-.54-3.14-1.35-6.24-2.98-9.06-.53-.91-.97-1.01-1.8-.45-1.51,1.02-3.05,2-4.6,2.95-.86.53-1.81.59-2.63-.06-.64-.5-1.22-1.02-1.09-2.06.37-3.06,1.08-6.06,1.39-9.14.39-3.81.17-7.5-.9-11.13-1.46-4.97-4.45-8.93-8.41-12.21-5.64-4.67-12.29-7.28-19.19-9.36-1.38-.42-.85.55-.72,1.1.99,4.06.61,8.04-1.01,11.84-2.04,4.77-5.29,8.78-8.64,12.68-4.61,5.38-8.04,11.14-6.43,18.63.24,1.13-.19,1.14-1.01.89-2-.63-3.17-2.16-4.01-3.92-.97-2.02-1.52-4.21-2.31-6.52-.31.16-.42.41-.54.67-1.26,2.69-2.34,5.44-3.2,8.29-1.55,5.15-1.93,10.42-1.63,15.74.35,6.21,2.33,11.88,6.06,16.89,4.38,5.9,10.08,10,17.04,12.27,3.07,1,6.24,1.76,9.54,1.42,1.56.27,3.13.24,4.7.17,5.4.21,10.08-1.82,14.51-4.64.13-.1.26-.2.39-.29Z"/>
      <path class="cls-65" d="M304.6,504.99c3.98,5.04,5.19,10.13,2.56,15.87-1.41,3.1-2.51,6.33-3.07,10.17-2.88-4.04-5.25-7.78-5.03-12.56.09-2.07,1.23-3.76,2.21-5.48,1.39-2.44,2.88-4.83,3.32-8.01Z"/>
      <path class="cls-27" d="M330.31,470.03c3.77,3.31,4.93,7.07,3.45,11.67-.99,3.08-1.26,6.27-.2,9.93-3.21-2.47-6.52-4.1-8.12-7.62-1.42-3.13-.63-5.92,1.25-8.56,1.25-1.75,2.87-3.23,3.62-5.42Z"/>
      <path class="cls-41" d="M378.54,561.26c-.83-1.79-1.86-3.14-2.85-4.52-1.58-2.21-1.83-4.52-.6-7.01.97-1.97,2.02-3.93,2.36-6.15.04-.24.12-.42.39-.42.27,0,.3.22.39.43.69,1.59,1.33,3.2,2.11,4.75,2.34,4.62,1.14,8.73-1.81,12.92Z"/>
      <path class="cls-38" d="M329.58,608.1c-3.3.34-6.47-.42-9.55-1.42-6.96-2.27-12.66-6.38-17.04-12.27-3.73-5.02-5.71-10.68-6.06-16.89-.3-5.32.08-10.59,1.63-15.74.86-2.85,1.94-5.6,3.2-8.29.12-.25.24-.51.54-.67.79,2.31,1.34,4.5,2.31,6.52.85,1.77,2.01,3.3,4.01,3.92.82.26,1.25.24,1.01-.89-1.6-7.49,1.82-13.26,6.43-18.63,3.35-3.9,6.59-7.91,8.64-12.68,1.62-3.8,2.01-7.77,1.01-11.84-.14-.56-.67-1.52.72-1.1,6.9,2.08,13.55,4.69,19.19,9.36,3.95,3.28,6.95,7.23,8.41,12.21,1.06,3.63,1.29,7.32.9,11.13-.32,3.08-1.03,6.08-1.39,9.14-.13,1.04.46,1.56,1.09,2.06.82.64,1.77.59,2.63.06,1.55-.95,3.1-1.92,4.6-2.95.83-.57,1.28-.47,1.8.45,1.63,2.82,2.44,5.92,2.98,9.06.96,5.56.74,11.09-1.07,16.51-2.16,6.49-6.4,11.39-11.73,15.45-1.23.94-2.34,2.22-4.07,2.35.03-.35.23-.6.49-.83,2.88-2.52,4.95-5.57,6.28-9.17,2.03-5.48,1.95-11.02.71-16.62-.6-2.73-1.51-5.35-2.94-8.05-.57.84-.71,1.52-.87,2.22-.36,1.65-1.07,3.12-2.26,4.34-.45.46-.92,1.13-1.67.79-.72-.33-.39-1.09-.34-1.64.1-1.25.39-2.45.08-3.76-1.01-4.2-3.71-7.32-6.32-10.54-3.69-4.54-6.31-9.5-5.31-15.63.2-1.19-.31-.86-.97-.69-2.8.72-5.45,1.84-7.98,3.21-7.5,4.05-11.96,9.97-11.49,18.9.12,2.26.45,4.49.88,6.71.18.91.48,1.93-.48,2.59-.96.67-1.89.3-2.76-.3-.68-.47-1.44-.86-2.04-1.41-.91-.83-1.45-.77-1.93.41-1.17,2.88-2.06,5.85-2.24,8.94-.54,8.91,3.08,15.87,10.27,21,2.04,1.46,4.15,2.94,6.78,3.21,1.31.5,2.62.99,3.93,1.49Z"/>
      <path class="cls-23" d="M325.66,606.61c-2.64-.28-4.74-1.76-6.78-3.21-7.19-5.12-10.81-12.09-10.27-21,.19-3.1,1.07-6.06,2.24-8.94.48-1.18,1.02-1.25,1.93-.41.61.55,1.36.95,2.04,1.41.87.59,1.81.96,2.76.3.96-.67.65-1.68.48-2.59-.43-2.22-.76-4.44-.88-6.71-.48-8.93,3.99-14.85,11.49-18.9,2.53-1.37,5.18-2.49,7.98-3.21.67-.17,1.17-.5.97.69-1.01,6.13,1.62,11.09,5.31,15.63,2.61,3.22,5.32,6.35,6.32,10.54.31,1.31.02,2.51-.08,3.76-.04.55-.38,1.31.34,1.64.75.34,1.22-.32,1.67-.79,1.19-1.21,1.9-2.69,2.26-4.34.15-.69.29-1.38.87-2.22,1.43,2.7,2.34,5.31,2.94,8.05,1.23,5.6,1.32,11.14-.71,16.62-1.34,3.6-3.41,6.65-6.28,9.17-.26.23-.46.48-.49.83-.2.13-.4.26-.59.4-.13.1-.26.2-.39.29-4.43,2.81-9.11,4.84-14.51,4.64.09-.06.18-.14.28-.16,8.96-1.55,14.73-10.4,11.22-20.37-.33-.95-.64-1.6-1.76-.69-.58.47-1.2,1.41-2.12.8-.84-.56-.3-1.53-.34-2.32-.01-.27.13-.54.17-.81,1.3-8.74-2.77-13.12-10.37-15.92-.77-.28-1.09-.15-.93.84.3,1.83,0,3.6-.79,5.32-.96,2.08-2.36,3.86-3.68,5.69-1.4,1.94-2.29,4.02-2.09,6.48.03.39.33.97-.27,1.14-.48.14-.78-.32-1.05-.66-.84-1.05-.84-2.46-1.54-3.72-2.08,4.82-2.82,9.64-1.38,14.65.99,3.45,3.28,5.95,6.04,8.08Z"/>
      <path class="cls-39" d="M325.66,606.61c-2.76-2.13-5.06-4.63-6.04-8.08-1.44-5.02-.7-9.84,1.38-14.65.7,1.26.7,2.67,1.54,3.72.28.34.58.8,1.05.66.6-.17.3-.75.27-1.14-.2-2.45.69-4.54,2.09-6.48,1.33-1.83,2.72-3.6,3.68-5.69.8-1.73,1.09-3.49.79-5.32-.16-.98.16-1.12.93-.84,7.6,2.79,11.67,7.18,10.37,15.92-.04.27-.19.54-.17.81.03.79-.5,1.76.34,2.32.92.61,1.54-.32,2.12-.8,1.12-.92,1.42-.26,1.76.69,3.51,9.97-2.26,18.82-11.22,20.37-.1.02-.19.11-.28.16-1.57.08-3.14.1-4.69-.17-1.31-.5-2.62-.99-3.93-1.49Z"/>
      <path class="cls-38" d="M348.79,603.63c.13-.1.26-.2.39-.29-.13.1-.26.2-.39.29Z"/>
    </g>
    <rect class="cls-31" x="279.95" y="686.31" width="12.01" height="4.72"/>
    <rect class="cls-31" x="458.74" y="686.31" width="12.01" height="4.72"/>
    <rect class="cls-31" x="299.7" y="657.93" width="65.47" height="7.29"/>
    <rect class="cls-31" x="388.51" y="657.93" width="65.47" height="7.29"/>
    <rect class="cls-63" x="279.66" y="665.22" width="191.36" height="21.09"/>
    <g>
      <path class="cls-28" d="M281.92,597.05c0-.82-.36-1.62-.93-2.2.55-.11,1.1-.26,1.64-.51h0c-.35-2.88-.62-5.36,3.71-5.33,29.19.16,58.38.17,87.58.23q6.91-.43,7.33,5.77h0s-.09,12.03-.09,12.03c-.03,13.07.01,26.13-.11,39.2-.07,7-3.5,10.69-10.22,11.47-26.22,0-52.43,0-78.65-.01-5.96-.95-8.2-3.18-9.29-9.19-1.4-12.02-.24-29.86-.63-41.9"/>
      <path class="cls-28" d="M370.36,657.47c.16.07.32.14.48.24-.16-.09-.32-.17-.48-.24Z"/>
    </g>
    <path class="cls-55" d="M282.49,594.33c-.47-.08-.96-.13-1.46-.13h-9.26c-3.82,0-6.94,2.43-6.94,5.4s3.12,5.4,6.94,5.4h9.26c.5,0,.99-.05,1.46-.13v-10.55Z"/>
    <path class="cls-55" d="M381.02,594.33c.47-.08.96-.13,1.46-.13h9.26c3.82,0,6.94,2.43,6.94,5.4s-3.12,5.4-6.94,5.4h-9.26c-.5,0-.99-.05-1.46-.13v-10.55Z"/>
    <path class="cls-55" d="M570.3,663.6c-.1-.23-.16-.46-.16-.7l-.03-4.43c-.01-1.82,2.96-3.34,6.61-3.36,3.65-.03,6.64,1.45,6.65,3.27l.03,4.43c0,.24-.05.47-.15.7l-12.95.09Z"/>
    <path class="cls-28" d="M576.77,662.18c-25.74.18-46.5,13.75-46.39,30.3l93.2-.66c-.12-16.56-21.07-29.83-46.81-29.65Z"/>
    <path class="cls-16" d="M518.73,645.56c-1.65-.54-2.38-1.57-2.41-3.27,0-.5-.01-1.01,0-1.51.04-1.61.79-2.82,2.31-3.25.86-.24.94-.68.92-1.4-.11-3.52.09-7.04-.18-10.56-.3-3.81-1.53-7.23-3.69-10.34-1.69-2.44-3.93-4.37-6.01-6.45-.68-.68-1.21-1.25-.14-2.01.23-.17.29-.45.28-.73-.09-.05-.17-.1-.26-.16h-.47c-.15,0-.29,0-.44,0-1.48,0-2.96,0-4.45,0-.07.03-.15.07-.22.1-1.87-.08-3.73-.11-5.59.01-.03.38.08.7.39.92.78.57.5,1.03-.07,1.57-1.31,1.25-2.6,2.54-3.87,3.83-4.09,4.17-6.22,9.16-6.21,15.03,0,2.75.03,5.5-.01,8.26-.02,1.06-.08,2.05,1.38,2.14.19.01.38.25.55.4,1.7,1.51,1.11,3.47.96,5.31-.08.99-.74,1.65-1.75,1.9-.88.22-1.15.75-1.15,1.69.04,11.59,0,23.18.04,34.77,0,3.04,1.09,5.71,3.16,7.96.38.42.78.68,1.4.68,3.6-.04,7.21-.04,10.81-.05,2.86,0,5.72.01,8.59.02.23-.26.47-.27.7,0,2.02.41,3.21-.59,4.24-2.22,1.52-2.39,1.99-5.02,2-7.75.04-11.24.02-22.48.04-33.72,0-.66-.21-.95-.83-1.15ZM490.89,624.07c-.07,0-.14.01-.21.02.07-.01.14-.02.21-.02ZM517.93,682.7c-.01,2.18-1.13,4.04-2.42,5.76-.36.47-.85.57-1.42.57-3.37-.01-6.74.01-10.12.02l.02-.07c-3.45.01-6.9.02-10.35.03-1.39,0-1.67-1.25-2.16-2.09-1.06-1.83-1.52-3.82-1.51-6.01.08-10.97.05-21.94.02-32.91,0-.77.17-1.18.9-1.59,2.17-1.2,2.69-3.88,2.2-6.24-.33-1.59-.81-3.17-2.68-3.69-.37-.1-.42-.42-.41-.74.01-3.68.03-7.36.05-11.05,0-.13.13-.26.19-.39.03-.03.06-.05.1-.07-.03.02-.07.04-.1.07,4.58.02,9.15.03,13.73.05,4.38-.02,8.76-.02,13.14-.06.7,0,.85.28.84.89-.01,3.45,0,6.9.02,10.35,0,.52-.18.75-.69,1.01-1.76.9-3.01,4.49-2.34,6.36.17.46.2.98.37,1.44.36,1,1.08,1.78,1.99,2.21.61.29.66.62.66,1.14,0,11.67.02,23.33-.04,35Z"/>
    <path class="cls-55" d="M510.08,599.41c.13-.5-.13-.56-.52-.45-.16,0-.31,0-.47,0h0c-.16-.09-.31-.09-.47,0,.02.03.04.05.06.08-.02-.02-.04-.05-.06-.08-1.48,0-2.95,0-4.43,0-1.86-.02-3.71-.03-5.57-.08-.55-.01-.73.16-.73.72.03,1.86.01,3.72.01,5.58,0,.35-.04.72.46.78,1.86-.12,3.73-.09,5.59-.01.07-.03.15-.07.22-.1,1.48,0,2.96,0,4.45,0,.15-.17.29-.17.44,0,.16,0,.31,0,.47,0h0c.09.05.17.1.26.16.39-.16.42-.45.26-.79.14-1.94.13-3.88,0-5.83Z"/>
    <path class="cls-7" d="M517.3,646.56c-.91-.43-1.64-1.21-1.99-2.21-.16-.46-.2-.98-.37-1.44-.66-1.87.59-5.47,2.34-6.36.51-.26.69-.48.69-1.01-.02-3.45-.03-6.9-.02-10.35,0-.61-.15-.9-.84-.89-4.38.04-8.76.04-13.14.06-4.58-.02-9.15-.03-13.73-.05-.07.13-.19.26-.19.39-.03,3.68-.04,7.36-.05,11.05,0,.32.05.64.41.74,1.87.52,2.35,2.1,2.68,3.69.49,2.36-.04,5.04-2.2,6.24-.73.41-.9.82-.9,1.59.03,10.97.06,21.94-.02,32.91-.02,2.19.45,4.18,1.51,6.01.49.84.77,2.1,2.16,2.09,3.45-.01,6.9-.02,10.35-.03,0,0-.02.07-.02.07,3.37-.01,6.74-.03,10.12-.02.58,0,1.07-.09,1.42-.57,1.29-1.72,2.41-3.58,2.42-5.76.06-11.67.03-23.33.04-35,0-.52-.05-.85-.66-1.14Z"/>
    <path class="cls-15" d="M517.3,646.67c-.91-.45-1.64-1.25-1.99-2.28-.16-.48-.2-1-.37-1.48-.66-1.92.59-5.63,2.34-6.55.51-.27.69-.5.69-1.04-.02-3.55-.03-7.1-.02-10.64,0-.63-.15-.92-.84-.92-4.38.04-8.76.04-13.14.06-4.58-.02-9.15-.03-13.73-.05-.07.13-.19.27-.19.4-.03,3.79-.04,7.58-.05,11.36,0,.33.05.66.41.76,1.87.54,2.35,2.16,2.68,3.8.49,2.43-.04,5.19-2.2,6.42-.73.42-.9.84-.9,1.63.03,11.28.06,22.57-.02,33.85-.02,2.25.45,4.3,1.51,6.18.49.87.77,2.16,2.16,2.15,3.45-.01,6.9-.02,10.35-.03,0,0-.02.07-.02.07,3.37-.01,6.74-.04,10.12-.03.58,0,1.07-.1,1.42-.58,1.29-1.77,2.41-3.68,2.42-5.93.06-12,.03-24,.04-36,0-.54-.05-.88-.66-1.18Z"/>
    <path class="cls-21" d="M418.1,607.19c.15-.17.29-.17.44,0-.15,0-.29,0-.44,0Z"/>
    <line class="cls-4" x1="489.22" y1="650.34" x2="518.56" y2="650.34"/>
    <line class="cls-4" x1="489.22" y1="656.1" x2="518.56" y2="656.1"/>
    <line class="cls-4" x1="489.22" y1="661.15" x2="518.56" y2="661.15"/>
    <line class="cls-4" x1="489.22" y1="666.91" x2="518.56" y2="666.91"/>
    <line class="cls-4" x1="489.22" y1="672.6" x2="518.56" y2="672.6"/>
    <line class="cls-4" x1="489.22" y1="678.37" x2="518.56" y2="678.37"/>
    <path class="cls-19" d="M762.71,333.07c-20.62-10.45-35.88-25.47-42.11-47.87-3.68-12.88-2.93-26.57,2.13-38.99,4.37-10.92,11.44-20.61,20.59-28.23,3.39-2.89,3.36-3.07.81-6.84-6.79-9.35-10.89-20.28-11.88-31.68-1.4-19.54,6.3-38.65,20.98-52.08,17.64-16.99,41.39-26.63,66.22-26.88,6.26-.22,12.71.35,19.17.69,2.26.13,3.49-.47,4-2.76.57-2.49,1.37-4.93,2.39-7.28,9.2-21.8,19.99-37.5,42-46.22,14.67-5.67,36.56-6.39,52.3-5.26,17.18.89,33.85,6.04,48.4,14.96,8.53,5.21,16.02,11.87,22.1,19.67.13.28.3.53.51.76,1.18,1.3,3.22,1.42,4.55.27,11.14-6.1,23.34-10.16,35.98-11.98,20.24-3.02,40.94-.26,59.6,7.94,11.97,5.03,22.57,12.68,30.98,22.37,12.62,14.62,19.01,31.21,16.36,50.54-.35,2.57.42,3.64,3.07,4.2,7.19,1.25,14.29,2.99,21.23,5.21,17.97,6.05,29.77,17.68,40.26,33.1,9.27,13.46,12.75,29.91,9.68,45.83-4.29,23.25-15.29,39.37-35.81,50.91-10.24,5.81-21.54,9.65-33.27,11.32-3.74.56-4.42,1.47-3.74,5.11,2.36,12.43.67,25.26-4.84,36.7-10.13,21.11-27.59,34.44-49.6,42.29-15.91,5.7-33.02,7.53-49.82,5.33-17.87-1.99-34.86-8.62-49.18-19.2-.16-.17-.34-.33-.53-.47-1.62-1.19-3.93-.88-5.15.69-14.1,12.94-31.89,21.43-51.05,24.34-10.48,1.7-21.15,1.9-31.69.6-14.6-1.67-28.63-6.51-41.05-14.15-13.49-7.97-24.2-19.7-30.75-33.66-1.29-2.85-2.94-3.36-5.87-2.54-9.64,2.86-19.67,4.33-29.75,4.36-16.41-.05-32.59-3.86-47.21-11.11Z"/>
    <g>
      <path class="cls-62" d="M1053.03,199.86c-1.41.78-2.81,1.6-4.12,2.35-.26-.19-.38-.24-.38-.3-.02-.82-.05-1.64-.02-2.46.41-12.53-1.69-24.61-6.54-36.19-1.32-3.16-1.37-3.16-4.28-1.11-2.99,2.11-5.84,4.43-8.96,6.32-2.75,1.67-6.34-.44-6.61-3.69-.1-1.17.04-2.38.2-3.55.78-5.57,1.76-11.12,2.3-16.73-4.77-.12-9.54-.14-14.31-.08,2.13,3.16,3.83,6.61,4.95,10.44,1.76,6.01,2.13,12.11,1.48,18.4-.53,5.09-1.7,10.05-2.31,15.12-.21,1.72.76,2.59,1.81,3.41,1.36,1.06,2.92.97,4.35.1,2.57-1.57,5.12-3.18,7.61-4.87,1.38-.94,2.11-.77,2.98.74,2.69,4.66,4.03,9.79,4.92,14.97,1.58,9.19,1.22,18.34-1.76,27.3-3.57,10.72-10.58,18.84-19.39,25.54-2.04,1.55-3.87,3.68-6.73,3.88-.33.22-.65.44-.98.65-.21.16-.43.32-.64.49-7.33,4.65-15.07,8-23.99,7.66-2.6.13-5.19.17-7.76-.28-5.46.56-10.7-.69-15.78-2.35-11.51-3.76-20.93-10.54-28.17-20.29-6.16-8.3-9.44-17.67-10.02-27.93-.5-8.8.13-17.51,2.69-26.03,1.42-4.71,3.2-9.26,5.29-13.7.2-.42.39-.84.9-1.1,1.31,3.82,2.22,7.44,3.82,10.78,1.4,2.92,3.32,5.45,6.64,6.49,1.36.42,2.06.4,1.67-1.47-2.65-12.39,3.01-21.92,10.63-30.81,3.92-4.56,7.71-9.24,10.82-14.37-8.69.83-17.38,1.78-26.07,2.75-1.58,5.43-2.1,11.18-.89,17.44.23,1.17,1.12,2.82-.07,3.5-1.16.67-2.6-.44-3.76-1.16-1.25-.78-2.29-1.79-3.2-2.97-2-2.59-3.11-5.59-4.03-8.66-.63-2.12-1.19-4.28-1.8-6.61-1.05.12-2.09.24-3.14.35-6.99,16.77-9.8,33.76-8.63,51.86-2.85-1.48-5-3.37-7.68-4.35-.14.37-.3.61-.32.87-.83,12.33-.19,24.54,3.41,36.44,3.99,13.17,11.45,23.67,23.96,30.02,13.91,7.06,28.69,7.37,43.72,5.18,2.54-.37,5.01-.71,7.59-.22,7.78,1.5,15.65,1.83,23.52,1.02,15.33-1.56,28.64-7.19,37.64-20.28,10.75-15.63,11.89-33.46,10.99-51.66-.06-1.24-.57-1.42-1.54-.88Z"/>
      <path class="cls-41" d="M1055.8,190.56c-1.38-2.96-3.07-5.19-4.71-7.47-2.61-3.65-3.03-7.48-1-11.59,1.61-3.26,3.34-6.5,3.9-10.17.06-.4.19-.7.64-.7.45,0,.5.37.65.72,1.13,2.63,2.21,5.29,3.5,7.85,3.86,7.64,1.88,14.44-2.99,21.37Z"/>
      <path class="cls-38" d="M1031.19,187.77c-.87-1.51-1.6-1.68-2.98-.74-2.49,1.69-5.04,3.3-7.61,4.87-1.43.87-2.99.97-4.35-.1-1.05-.83-2.01-1.69-1.81-3.41.61-5.06,1.78-10.02,2.31-15.12.65-6.29.27-12.39-1.48-18.4-1.12-3.83-2.82-7.29-4.95-10.44-15.69.2-31.35,1.29-47,2.79-3.1,5.13-6.9,9.8-10.82,14.37-7.62,8.89-13.29,18.42-10.63,30.81.4,1.86-.31,1.89-1.67,1.47-3.31-1.03-5.24-3.56-6.64-6.49-1.6-3.35-2.51-6.96-3.82-10.78-.51.26-.7.68-.9,1.1-2.08,4.44-3.87,8.99-5.29,13.7-2.56,8.52-3.19,17.23-2.69,26.03.58,10.27,3.86,19.64,10.02,27.93,7.24,9.75,16.67,16.53,28.17,20.29,5.08,1.66,10.32,2.92,15.78,2.35-2.16-.82-4.33-1.64-6.49-2.46-4.36-.46-7.84-2.91-11.21-5.31-11.89-8.47-17.87-19.98-16.98-34.72.31-5.12,1.77-10.03,3.71-14.79.79-1.95,1.68-2.06,3.19-.68,1,.91,2.25,1.56,3.38,2.33,1.44.98,2.99,1.59,4.57.49,1.58-1.1,1.08-2.78.79-4.29-.71-3.67-1.26-7.35-1.46-11.09-.79-14.77,6.59-24.55,19-31.26,4.19-2.26,8.56-4.12,13.19-5.31,1.1-.28,1.93-.83,1.61,1.15-1.66,10.14,2.68,18.34,8.77,25.85,4.32,5.33,8.79,10.49,10.46,17.43.52,2.16.03,4.15-.13,6.22-.07.91-.62,2.17.57,2.71,1.25.57,2.02-.53,2.77-1.3,1.96-2.01,3.14-4.45,3.74-7.17.25-1.14.49-2.28,1.43-3.66,2.36,4.46,3.87,8.79,4.86,13.3,2.04,9.26,2.18,18.42-1.18,27.49-2.21,5.96-5.64,10.99-10.39,15.16-.43.38-.76.79-.82,1.37,2.87-.2,4.69-2.33,6.73-3.88,8.81-6.7,15.82-14.82,19.39-25.54,2.98-8.96,3.34-18.11,1.76-27.3-.89-5.18-2.23-10.31-4.92-14.97Z"/>
      <path class="cls-23" d="M968.36,265.53c-4.36-.46-7.84-2.91-11.21-5.31-11.89-8.47-17.87-19.98-16.98-34.72.31-5.12,1.77-10.03,3.71-14.79.79-1.95,1.68-2.06,3.19-.68,1,.92,2.25,1.56,3.38,2.33,1.44.98,2.99,1.59,4.57.49,1.58-1.1,1.08-2.78.79-4.29-.71-3.67-1.26-7.35-1.46-11.09-.79-14.77,6.59-24.55,19-31.26,4.19-2.26,8.56-4.12,13.19-5.31,1.1-.28,1.93-.83,1.61,1.15-1.66,10.14,2.68,18.34,8.77,25.85,4.32,5.33,8.79,10.49,10.46,17.43.52,2.16.03,4.15-.13,6.22-.07.91-.62,2.17.57,2.71,1.25.57,2.02-.53,2.77-1.3,1.96-2.01,3.14-4.45,3.74-7.17.25-1.14.49-2.28,1.43-3.66,2.36,4.46,3.87,8.79,4.86,13.3,2.04,9.26,2.18,18.42-1.18,27.49-2.21,5.96-5.64,10.99-10.39,15.16-.43.38-.76.79-.82,1.37-.33.22-.66.44-.98.65-.21.16-.43.32-.64.49-7.33,4.65-15.07,8-23.99,7.66.15-.09.29-.24.46-.27,14.82-2.55,24.35-17.19,18.55-33.68-.55-1.56-1.06-2.65-2.91-1.13-.95.78-1.98,2.33-3.5,1.32-1.39-.93-.5-2.53-.55-3.84-.02-.44.22-.89.29-1.34,2.14-14.44-4.58-21.7-17.15-26.32-1.28-.47-1.81-.24-1.55,1.39.49,3.03,0,5.95-1.31,8.8-1.59,3.45-3.89,6.38-6.09,9.41-2.32,3.2-3.79,6.65-3.46,10.71.05.65.55,1.6-.45,1.88-.79.22-1.29-.53-1.74-1.1-1.4-1.73-1.39-4.07-2.55-6.15-3.44,7.96-4.65,15.93-2.28,24.23,1.63,5.7,5.42,9.83,9.99,13.35Z"/>
      <path class="cls-40" d="M968.36,265.53c-4.57-3.52-8.36-7.65-9.99-13.35-2.37-8.29-1.16-16.26,2.28-24.23,1.16,2.09,1.16,4.42,2.55,6.15.45.56.96,1.32,1.74,1.1,1-.28.5-1.23.45-1.88-.32-4.06,1.14-7.51,3.46-10.71,2.19-3.03,4.5-5.96,6.09-9.41,1.31-2.86,1.8-5.77,1.31-8.8-.26-1.63.26-1.86,1.55-1.39,12.57,4.62,19.3,11.87,17.15,26.32-.07.45-.31.9-.29,1.34.05,1.31-.83,2.91.55,3.84,1.52,1.02,2.55-.53,3.5-1.32,1.85-1.51,2.36-.43,2.91,1.13,5.8,16.49-3.73,31.12-18.55,33.68-.16.03-.31.18-.46.27-2.59.13-5.19.17-7.76-.28-2.16-.82-4.33-1.64-6.49-2.46Z"/>
      <path class="cls-38" d="M1006.6,260.61c.21-.16.43-.32.64-.49-.21.16-.43.32-.64.49Z"/>
    </g>
    <g>
      <path class="cls-28" d="M896.04,243.12c0-1.35-.6-2.67-1.54-3.64.92-.18,1.83-.43,2.72-.84h0c-.59-4.76-1.03-8.86,6.14-8.82,48.27.27,96.53.28,144.8.38q11.43-.71,12.12,9.54h0s-.14,19.89-.14,19.89c-.05,21.6.02,43.21-.19,64.81-.11,11.57-5.79,17.68-16.89,18.96-43.35,0-86.69-.02-130.04-.02-9.85-1.58-13.56-5.25-15.36-15.19-2.32-19.88-.4-49.37-1.04-69.28"/>
      <path class="cls-28" d="M1042.27,343.01c.27.11.53.23.79.4-.26-.15-.52-.27-.79-.4Z"/>
    </g>
    <path class="cls-55" d="M896.97,238.61c-.78-.13-1.59-.21-2.42-.21h-15.31c-6.31,0-11.47,4.02-11.47,8.93s5.16,8.93,11.47,8.93h15.31c.83,0,1.64-.08,2.42-.21v-17.44Z"/>
    <path class="cls-55" d="M1059.9,238.61c.78-.13,1.59-.21,2.42-.21h15.31c6.31,0,11.47,4.02,11.47,8.93,0,4.91-5.16,8.93-11.47,8.93h-15.31c-.83,0-1.64-.08-2.42-.21v-17.44Z"/>
    <path class="cls-55" d="M939.74,122.82c-.3-.3-.53-.63-.68-1.02l-2.73-7.04c-1.13-2.9,2.7-7.12,8.5-9.37,5.8-2.25,11.47-1.72,12.6,1.18l2.73,7.04c.15.38.2.79.18,1.21l-20.61,8Z"/>
    <path class="cls-28" d="M949.19,116.63c-40.95,15.9-65.85,50.14-55.62,76.48l148.28-57.58c-10.23-26.34-51.71-34.8-92.66-18.9Z"/>
    <g>
      <path class="cls-62" d="M494.09,257.96c1.7.62,3.07,1.82,4.88,2.77-.81-12.56,1.36-24.29,6.76-35.91.7,2.63,1.22,4.8,1.86,6.94.58,1.95,1.29,3.86,2.56,5.5.58.75,1.24,1.39,2.04,1.89.74.46,1.65,1.16,2.39.73.76-.44.19-1.48.05-2.22-1.71-8.86,1.83-16.18,6.8-23.03,3.45-4.75,7.09-9.36,9.84-14.59,3.57-6.78,5.01-13.84,3.2-21.4-.16-.65-.57-1.53.8-1.08,8.67,2.88,16.9,6.58,23.76,12.81,8.73,7.93,12.3,17.91,11.9,29.53-.16,4.67-1.04,9.24-1.68,13.84-.1.74-.19,1.51-.13,2.26.17,2.06,2.45,3.4,4.2,2.34,1.98-1.2,3.79-2.68,5.69-4.02,1.85-1.3,1.88-1.3,2.72.7,3.08,7.35,4.41,15.03,4.15,22.99-.02.52,0,1.04.02,1.57,0,.03.08.06.24.19.84-.48,1.72-1,2.62-1.49.61-.34.94-.22.98.56.57,11.56-.15,22.89-6.98,32.81-5.72,8.32-14.17,11.89-23.91,12.88-5,.51-10,.3-14.94-.65-1.64-.31-3.21-.1-4.82.14-9.54,1.39-18.93,1.2-27.77-3.29-7.94-4.03-12.68-10.71-15.22-19.07-2.29-7.56-2.69-15.32-2.17-23.15.01-.16.11-.32.2-.55ZM559.64,296.55c.21-.14.42-.28.62-.42,1.82-.13,2.98-1.48,4.28-2.47,5.59-4.26,10.05-9.41,12.32-16.23,1.89-5.69,2.12-11.5,1.12-17.34-.57-3.29-1.42-6.55-3.13-9.51-.55-.96-1.02-1.07-1.89-.47-1.58,1.08-3.2,2.1-4.83,3.09-.91.56-1.9.61-2.76-.06-.67-.52-1.28-1.07-1.15-2.17.39-3.22,1.13-6.37,1.46-9.6.41-4,.17-7.87-.94-11.69-1.53-5.22-4.68-9.38-8.83-12.82-5.92-4.91-12.91-7.64-20.15-9.83-1.45-.44-.89.57-.75,1.16,1.04,4.27.64,8.45-1.06,12.43-2.14,5.01-5.55,9.22-9.07,13.32-4.84,5.65-8.44,11.7-6.75,19.57.25,1.18-.2,1.2-1.06.93-2.1-.66-3.33-2.26-4.21-4.12-1.02-2.13-1.59-4.42-2.43-6.85-.32.17-.45.43-.57.7-1.32,2.82-2.46,5.71-3.36,8.7-1.63,5.41-2.02,10.94-1.71,16.53.37,6.52,2.45,12.47,6.36,17.74,4.6,6.19,10.59,10.5,17.9,12.89,3.23,1.06,6.56,1.85,10.02,1.49,1.64.28,3.28.26,4.93.18,5.67.22,10.58-1.91,15.24-4.87.14-.1.27-.21.41-.31Z"/>
      <path class="cls-65" d="M512.82,193.26c4.18,5.29,5.45,10.64,2.69,16.67-1.49,3.25-2.63,6.65-3.22,10.69-3.03-4.25-5.51-8.17-5.29-13.19.1-2.17,1.29-3.95,2.32-5.75,1.46-2.57,3.03-5.07,3.49-8.41Z"/>
      <path class="cls-27" d="M539.83,156.54c3.96,3.48,5.17,7.42,3.62,12.25-1.04,3.24-1.33,6.59-.21,10.43-3.37-2.6-6.85-4.31-8.52-8-1.49-3.28-.66-6.22,1.32-8.99,1.31-1.83,3.01-3.4,3.8-5.69Z"/>
      <path class="cls-41" d="M590.48,252.36c-.88-1.88-1.95-3.3-2.99-4.75-1.66-2.32-1.92-4.75-.63-7.36,1.02-2.07,2.12-4.13,2.48-6.46.04-.26.12-.45.41-.44.29,0,.32.23.41.46.72,1.67,1.4,3.36,2.22,4.98,2.45,4.85,1.19,9.17-1.9,13.57Z"/>
      <path class="cls-38" d="M539.06,301.55c-3.47.36-6.8-.44-10.03-1.49-7.31-2.39-13.3-6.7-17.9-12.89-3.91-5.27-5.99-11.22-6.36-17.74-.32-5.59.08-11.13,1.71-16.53.9-2.99,2.03-5.88,3.36-8.7.12-.27.25-.53.57-.7.83,2.43,1.41,4.72,2.43,6.85.89,1.86,2.11,3.46,4.21,4.12.86.27,1.31.25,1.06-.93-1.68-7.87,1.91-13.92,6.75-19.57,3.51-4.1,6.93-8.31,9.07-13.32,1.71-3.99,2.11-8.16,1.06-12.43-.14-.58-.7-1.6.75-1.16,7.25,2.19,14.23,4.92,20.15,9.83,4.15,3.44,7.3,7.59,8.83,12.82,1.12,3.82,1.36,7.69.94,11.69-.33,3.23-1.08,6.39-1.46,9.6-.13,1.09.48,1.64,1.15,2.17.86.68,1.86.62,2.76.06,1.63-1,3.25-2.02,4.83-3.09.88-.6,1.34-.49,1.89.47,1.71,2.96,2.56,6.22,3.13,9.51,1,5.84.78,11.65-1.12,17.34-2.27,6.81-6.72,11.97-12.32,16.23-1.3.99-2.46,2.34-4.28,2.47.04-.37.25-.63.52-.87,3.02-2.65,5.2-5.85,6.6-9.63,2.13-5.76,2.04-11.58.75-17.46-.63-2.87-1.59-5.62-3.09-8.45-.6.88-.75,1.6-.91,2.33-.38,1.73-1.13,3.28-2.38,4.56-.48.49-.97,1.18-1.76.83-.76-.34-.41-1.15-.36-1.72.1-1.32.41-2.58.08-3.95-1.06-4.41-3.9-7.69-6.64-11.07-3.87-4.77-6.63-9.98-5.57-16.42.21-1.25-.32-.91-1.02-.73-2.94.75-5.72,1.93-8.38,3.37-7.88,4.26-12.57,10.47-12.07,19.85.13,2.38.47,4.71.93,7.04.19.95.5,2.02-.5,2.72-1.01.7-1.99.31-2.9-.31-.72-.49-1.51-.9-2.15-1.48-.96-.87-1.52-.8-2.03.43-1.23,3.02-2.16,6.14-2.36,9.39-.57,9.36,3.23,16.67,10.78,22.05,2.14,1.53,4.36,3.09,7.12,3.38,1.37.52,2.75,1.04,4.12,1.56Z"/>
      <path class="cls-23" d="M534.94,299.98c-2.77-.29-4.98-1.85-7.12-3.38-7.55-5.38-11.35-12.69-10.78-22.05.2-3.25,1.13-6.37,2.36-9.39.5-1.24,1.07-1.31,2.03-.43.64.58,1.43.99,2.15,1.48.91.62,1.9,1.01,2.9.31,1-.7.69-1.77.5-2.72-.45-2.33-.8-4.67-.93-7.04-.5-9.38,4.19-15.6,12.07-19.85,2.66-1.44,5.44-2.62,8.38-3.37.7-.18,1.23-.53,1.02.73-1.06,6.44,1.7,11.65,5.57,16.42,2.75,3.38,5.58,6.66,6.64,11.07.33,1.37.02,2.64-.08,3.95-.05.58-.4,1.38.36,1.72.79.36,1.28-.34,1.76-.83,1.25-1.28,1.99-2.83,2.38-4.56.16-.72.31-1.45.91-2.33,1.5,2.83,2.46,5.58,3.09,8.45,1.29,5.88,1.38,11.7-.75,17.46-1.4,3.79-3.58,6.98-6.6,9.63-.27.24-.48.5-.52.87-.21.14-.42.28-.62.42-.14.1-.27.21-.41.31-4.65,2.96-9.57,5.08-15.24,4.87.1-.06.19-.15.29-.17,9.41-1.62,15.47-10.92,11.79-21.39-.35-.99-.67-1.68-1.85-.72-.61.5-1.26,1.48-2.22.84-.88-.59-.32-1.61-.35-2.44-.01-.28.14-.56.18-.85,1.36-9.17-2.91-13.78-10.89-16.72-.81-.3-1.15-.15-.98.88.31,1.92,0,3.78-.83,5.59-1.01,2.19-2.47,4.05-3.87,5.98-1.47,2.03-2.41,4.22-2.2,6.8.03.41.35,1.02-.29,1.2-.5.14-.82-.34-1.11-.7-.89-1.1-.88-2.58-1.62-3.91-2.18,5.06-2.96,10.12-1.45,15.39,1.04,3.62,3.44,6.24,6.35,8.48Z"/>
      <path class="cls-39" d="M534.94,299.98c-2.9-2.24-5.31-4.86-6.35-8.48-1.51-5.27-.74-10.33,1.45-15.39.74,1.33.73,2.81,1.62,3.91.29.36.61.84,1.11.7.63-.18.32-.78.29-1.2-.21-2.58.73-4.77,2.2-6.8,1.39-1.92,2.86-3.79,3.87-5.98.84-1.81,1.14-3.67.83-5.59-.17-1.03.17-1.18.98-.88,7.98,2.93,12.26,7.54,10.89,16.72-.04.29-.19.57-.18.85.03.83-.53,1.85.35,2.44.96.65,1.62-.34,2.22-.84,1.17-.96,1.5-.27,1.85.72,3.68,10.47-2.37,19.77-11.79,21.39-.1.02-.19.11-.29.17-1.65.08-3.3.11-4.93-.18-1.37-.52-2.75-1.04-4.12-1.56Z"/>
      <path class="cls-38" d="M559.23,296.85c.14-.1.27-.21.41-.31-.14.1-.27.21-.41.31Z"/>
    </g>
    <g>
      <path class="cls-28" d="M489,285.75c0-.86-.38-1.7-.98-2.31.58-.12,1.16-.27,1.73-.54h0c-.37-3.03-.66-5.63,3.9-5.6,30.66.17,61.32.18,91.98.24q7.26-.45,7.7,6.06h0s-.09,12.64-.09,12.64c-.03,13.72.01,27.45-.12,41.17-.07,7.35-3.68,11.23-10.73,12.05-27.53,0-55.07-.01-82.6-.02-6.26-1-8.62-3.34-9.76-9.65-1.47-12.63-.25-31.36-.66-44"/>
      <path class="cls-28" d="M581.89,349.2c.17.07.34.15.5.25-.16-.1-.33-.17-.5-.25Z"/>
    </g>
    <path class="cls-55" d="M489.6,282.88c-.5-.08-1.01-.13-1.54-.13h-9.73c-4.01,0-7.29,2.55-7.29,5.67s3.28,5.67,7.29,5.67h9.73c.53,0,1.04-.05,1.54-.13v-11.08Z"/>
    <path class="cls-55" d="M593.09,282.88c.5-.08,1.01-.13,1.54-.13h9.73c4.01,0,7.29,2.55,7.29,5.67,0,3.12-3.28,5.67-7.29,5.67h-9.73c-.53,0-1.04-.05-1.54-.13v-11.08Z"/>
    <path class="cls-9" d="M509.47,186.1c.26.22.53.42.82.61,1.75,1.17,4.46,1.52,6.45.72,1.01-.4,1.82-1.17,2.57-1.96,1.22-1.29,2.37-2.78,2.6-4.55.44-3.47-2.51-6.31-4.13-9.05-2.3-3.91-4.38-8-7.17-11.59-4.54-5.83-8.65-9.56-13.37-15.25-8.37-10.1-21.27-16.3-34.38-16.53-13.12-.23-26.22,5.52-34.94,15.32l-3.13,2.44c6.66-.13,13.16-2.12,19.81-2.35,6.65-.23,14.07,1.86,17.4,7.62,1.83,3.17,3.32,2.06,6.97,1.97,2.39-.06,3.98,3.41,6.2,2.52,3.5-1.42,7.46.97,9.78,3.95,2.32,2.98,3.76,6.64,6.42,9.32-3.05-4.84,4.72,6.01,1.67,1.17,1.6,2.54,4.18,4.1,6.43,6,2.68,2.27,5.23,4.7,7.62,7.27.76.81,1.51,1.65,2.36,2.36Z"/>
    <path class="cls-9" d="M416.29,135.98s9.82-15.02,22.22-16.49c12.4-1.47,20.88,7.75,20.89,10.93s9.66-5.67,18.3-4.25c8.64,1.42,21.22,6.56,19.54,18.87-1.68,12.31,10.88,27.6,5.48,34.13-5.4,6.53-17.09,8.65-21.69,2.63-4.61-6.02-.34-15.59-8.32-21.61-7.98-6.02-8.69,2.83-16.13-.71-7.44-3.54-3.87-6.83-12.02-6.83s-8.16,3.22-8.16,3.22l-20.1-19.88Z"/>
    <path class="cls-9" d="M493.25,142.54s15.41-.32,16.57,6.12c1.15,6.44,2.19,13.67-5.74,14.09-7.93.41-10.83-20.21-10.83-20.21Z"/>
    <g>
      <path class="cls-26" d="M399.79,126.53h0c1.91-2.35,3.57-4.37,5.26-2.77,11.41,10.75,22.94,21.39,34.43,32.06q3.04,2.18-1.21,7.13h0s-8.6,9.26-8.6,9.26c-9.31,10.08-18.6,20.19-27.94,30.23-5.01,5.38-9,6.98-12.2,5.14-10.35-9.55-20.7-19.09-31.05-28.64-1.67-2.91-.98-5.44,2.87-10.48,8-9.8,21.16-23.15,29.57-32.59"/>
      <path class="cls-26" d="M413.21,204.47c.02.11.03.23.02.36,0-.13,0-.24-.02-.36Z"/>
    </g>
    <path class="cls-3" d="M431.1,140.61s9.23-11.55,19.21-3.67c9.98,7.88,10.51,12.61,25.22,9.46,14.71-3.15,14.39,8.65,17.71,17.2,3.31,8.55,14.09,9.07,14.09,9.07"/>
    <path class="cls-3" d="M468.97,153.52c4.12,3.72,13.17,3.33,13.17,3.33,0,0,4.32.59,3.68,7.11-.64,6.52,5.11,8.72,5.11,8.72"/>
    <path class="cls-3" d="M478.3,140.61s-5.96-7.71-18.12-6.42c0,0-5.02-.34-6.94-4.17-1.92-3.83-16.18-5.96-20.23,0"/>
    <path class="cls-3" d="M494.55,148.91s10.32,3.8,9.53,9.27c-.8,5.47.93,7.31,3.26,7.56,2.33.25,9.35,6.12,5.74,13.24"/>
    <path class="cls-9" d="M518.97,163.95s3.36,6.73,6.05,5.61,3.14-6.96-6.05-5.61Z"/>
    <path class="cls-9" d="M467.21,161.29s-1.03,8.17,2.01,8.39c3.04.22,5.12-4.24-2.01-8.39Z"/>
    <path class="cls-9" d="M460.18,120.86s5.88-5.04,8.79-3.64c2.91,1.4.78,6.62-1.93,5.97-2.72-.65-6.86-2.33-6.86-2.33Z"/>
    <g class="cls-68">
      <g>
        <path class="cls-34" d="M857.14,478.82v124.05h126.9v-124.05h-126.9ZM978.91,597.24h-116.15v-112.92h116.15v112.92Z"/>
        <path class="cls-34" d="M979.05,483.36v114.94l41.26,11.98v-135.47l-41.26,8.55ZM1014.28,602.92l-32.38-10.27v-102.91l31.58-6.5.8,119.68Z"/>
        <path class="cls-37" d="M975.47,484.2v113.06l41.59,11.98-.33-133.59-41.26,8.55ZM1012.21,602.39l-31.62-10.27v-102.91l31.11-6.5.51,119.68Z"/>
        <polygon class="cls-70" points="1011.94 601.3 980.59 592.12 980.79 489.45 1011.7 482.71 1011.94 601.3"/>
        <rect class="cls-35" x="917.34" y="484.4" width="58.13" height="112.86"/>
        <path class="cls-37" d="M862.79,484.4v113.06h54.55v-113.06h-54.55ZM911.58,592.32h-43.87v-102.91h43.87v102.91Z"/>
        <rect class="cls-25" x="862.76" y="491.36" width=".83" height="17.97"/>
        <rect class="cls-25" x="862.76" y="568.49" width=".83" height="17.97"/>
        <rect class="cls-70" x="867.69" y="489.19" width="43.61" height="102.91"/>
        <rect class="cls-25" x="914.61" y="527.27" width="1.49" height="23.82" rx=".74" ry=".74"/>
        <g>
          <path class="cls-62" d="M934.66,565.63c.5.18.9.54,1.43.81-.24-3.69.4-7.13,1.99-10.55.21.77.36,1.41.55,2.04.17.57.38,1.13.75,1.62.17.22.36.41.6.55.22.13.48.34.7.22.22-.13.06-.43.01-.65-.5-2.6.54-4.75,2-6.77,1.01-1.4,2.08-2.75,2.89-4.28,1.05-1.99,1.47-4.06.94-6.29-.05-.19-.17-.45.23-.32,2.55.84,4.96,1.93,6.98,3.76,2.56,2.33,3.61,5.26,3.49,8.68-.05,1.37-.3,2.71-.49,4.06-.03.22-.06.44-.04.66.05.61.72,1,1.23.69.58-.35,1.11-.79,1.67-1.18.54-.38.55-.38.8.21.9,2.16,1.3,4.41,1.22,6.75,0,.15,0,.31,0,.46,0,0,.02.02.07.06.25-.14.51-.29.77-.44.18-.1.28-.07.29.16.17,3.4-.05,6.72-2.05,9.64-1.68,2.44-4.16,3.49-7.02,3.78-1.47.15-2.94.09-4.39-.19-.48-.09-.94-.03-1.42.04-2.8.41-5.56.35-8.16-.97-2.33-1.19-3.73-3.15-4.47-5.6-.67-2.22-.79-4.5-.64-6.8,0-.05.03-.09.06-.16ZM953.91,576.96c.06-.04.12-.08.18-.12.53-.04.88-.43,1.26-.72,1.64-1.25,2.95-2.77,3.62-4.77.56-1.67.62-3.38.33-5.09-.17-.97-.42-1.92-.92-2.79-.16-.28-.3-.31-.56-.14-.46.32-.94.62-1.42.91-.27.16-.56.18-.81-.02-.2-.15-.38-.32-.34-.64.11-.94.33-1.87.43-2.82.12-1.17.05-2.31-.28-3.43-.45-1.53-1.37-2.76-2.59-3.77-1.74-1.44-3.79-2.24-5.92-2.89-.43-.13-.26.17-.22.34.31,1.25.19,2.48-.31,3.65-.63,1.47-1.63,2.71-2.66,3.91-1.42,1.66-2.48,3.44-1.98,5.75.07.35-.06.35-.31.27-.62-.19-.98-.67-1.24-1.21-.3-.62-.47-1.3-.71-2.01-.09.05-.13.13-.17.21-.39.83-.72,1.68-.99,2.56-.48,1.59-.59,3.21-.5,4.86.11,1.92.72,3.66,1.87,5.21,1.35,1.82,3.11,3.08,5.26,3.79.95.31,1.93.54,2.94.44.48.08.96.08,1.45.05,1.66.06,3.11-.56,4.48-1.43.04-.03.08-.06.12-.09Z"/>
          <path class="cls-65" d="M940.16,546.62c1.23,1.55,1.6,3.12.79,4.9-.44.96-.77,1.95-.95,3.14-.89-1.25-1.62-2.4-1.55-3.87.03-.64.38-1.16.68-1.69.43-.75.89-1.49,1.03-2.47Z"/>
          <path class="cls-27" d="M948.09,535.84c1.16,1.02,1.52,2.18,1.06,3.6-.31.95-.39,1.94-.06,3.06-.99-.76-2.01-1.27-2.5-2.35-.44-.96-.2-1.83.39-2.64.39-.54.88-1,1.12-1.67Z"/>
          <path class="cls-41" d="M962.97,563.98c-.26-.55-.57-.97-.88-1.39-.49-.68-.57-1.4-.19-2.16.3-.61.62-1.21.73-1.9.01-.07.04-.13.12-.13.08,0,.09.07.12.13.21.49.41.99.65,1.46.72,1.43.35,2.69-.56,3.99Z"/>
          <path class="cls-38" d="M947.87,578.43c-1.02.1-2-.13-2.94-.44-2.15-.7-3.91-1.97-5.26-3.79-1.15-1.55-1.76-3.3-1.87-5.21-.09-1.64.02-3.27.5-4.86.26-.88.6-1.73.99-2.56.04-.08.07-.16.17-.21.24.71.41,1.39.71,2.01.26.55.62,1.02,1.24,1.21.25.08.39.07.31-.27-.49-2.31.56-4.09,1.98-5.75,1.03-1.2,2.03-2.44,2.66-3.91.5-1.17.62-2.4.31-3.65-.04-.17-.21-.47.22-.34,2.13.64,4.18,1.45,5.92,2.89,1.22,1.01,2.14,2.23,2.59,3.77.33,1.12.4,2.26.28,3.43-.1.95-.32,1.88-.43,2.82-.04.32.14.48.34.64.25.2.55.18.81.02.48-.29.95-.59,1.42-.91.26-.18.39-.14.56.14.5.87.75,1.83.92,2.79.29,1.72.23,3.42-.33,5.09-.67,2-1.97,3.52-3.62,4.77-.38.29-.72.69-1.26.72.01-.11.07-.19.15-.26.89-.78,1.53-1.72,1.94-2.83.63-1.69.6-3.4.22-5.13-.19-.84-.47-1.65-.91-2.48-.18.26-.22.47-.27.68-.11.51-.33.96-.7,1.34-.14.14-.28.35-.52.24-.22-.1-.12-.34-.11-.51.03-.39.12-.76.02-1.16-.31-1.29-1.14-2.26-1.95-3.25-1.14-1.4-1.95-2.93-1.64-4.82.06-.37-.09-.27-.3-.21-.87.22-1.68.57-2.46.99-2.31,1.25-3.69,3.08-3.54,5.83.04.7.14,1.38.27,2.07.05.28.15.59-.15.8-.3.21-.58.09-.85-.09-.21-.14-.44-.26-.63-.44-.28-.26-.45-.24-.6.13-.36.89-.63,1.8-.69,2.76-.17,2.75.95,4.9,3.17,6.48.63.45,1.28.91,2.09.99l1.21.46Z"/>
          <path class="cls-23" d="M946.65,577.97c-.81-.09-1.46-.54-2.09-.99-2.22-1.58-3.33-3.73-3.17-6.48.06-.96.33-1.87.69-2.76.15-.36.31-.38.6-.13.19.17.42.29.63.44.27.18.56.3.85.09.3-.21.2-.52.15-.8-.13-.68-.23-1.37-.27-2.07-.15-2.76,1.23-4.58,3.54-5.83.78-.42,1.6-.77,2.46-.99.21-.05.36-.15.3.21-.31,1.89.5,3.42,1.64,4.82.81.99,1.64,1.96,1.95,3.25.1.4,0,.77-.02,1.16-.01.17-.12.41.11.51.23.11.38-.1.52-.24.37-.37.59-.83.7-1.34.05-.21.09-.43.27-.68.44.83.72,1.64.91,2.48.38,1.73.41,3.44-.22,5.13-.41,1.11-1.05,2.05-1.94,2.83-.08.07-.14.15-.15.26-.06.04-.12.08-.18.12-.04.03-.08.06-.12.09-1.37.87-2.81,1.49-4.48,1.43.03-.02.05-.04.09-.05,2.77-.48,4.54-3.21,3.46-6.28-.1-.29-.2-.49-.54-.21-.18.15-.37.44-.65.25-.26-.17-.09-.47-.1-.72,0-.08.04-.17.05-.25.4-2.7-.86-4.05-3.2-4.91-.24-.09-.34-.04-.29.26.09.57,0,1.11-.24,1.64-.3.64-.73,1.19-1.14,1.76-.43.6-.71,1.24-.65,2,0,.12.1.3-.08.35-.15.04-.24-.1-.33-.21-.26-.32-.26-.76-.48-1.15-.64,1.49-.87,2.97-.43,4.52.3,1.06,1.01,1.83,1.86,2.49Z"/>
          <path class="cls-39" d="M946.65,577.97c-.85-.66-1.56-1.43-1.86-2.49-.44-1.55-.22-3.03.43-4.52.22.39.22.82.48,1.15.08.11.18.25.33.21.19-.05.09-.23.08-.35-.06-.76.21-1.4.65-2,.41-.56.84-1.11,1.14-1.76.25-.53.34-1.08.24-1.64-.05-.3.05-.35.29-.26,2.35.86,3.6,2.22,3.2,4.91-.01.08-.06.17-.05.25,0,.24-.16.54.1.72.28.19.48-.1.65-.25.34-.28.44-.08.54.21,1.08,3.08-.7,5.81-3.46,6.28-.03,0-.06.03-.09.05-.48.02-.97.03-1.45-.05-.4-.15-.81-.31-1.21-.46Z"/>
          <path class="cls-38" d="M953.79,577.05s.08-.06.12-.09c-.04.03-.08.06-.12.09Z"/>
        </g>
        <g>
          <path class="cls-28" d="M933.16,573.79c0-.25-.11-.5-.29-.68.17-.03.34-.08.51-.16h0c-.11-.89-.19-1.65,1.15-1.65,9.01.05,18.01.05,27.02.07q2.13-.13,2.26,1.78h0s-.03,3.71-.03,3.71c0,4.03,0,8.06-.03,12.09-.02,2.16-1.08,3.3-3.15,3.54-8.09,0-16.18,0-24.26,0-1.84-.29-2.53-.98-2.87-2.83-.43-3.71-.07-9.21-.19-12.93"/>
          <path class="cls-28" d="M960.44,592.43s.1.04.15.07c-.05-.03-.1-.05-.15-.07Z"/>
        </g>
        <path class="cls-55" d="M933.33,572.95c-.15-.02-.3-.04-.45-.04h-2.86c-1.18,0-2.14.75-2.14,1.67s.96,1.67,2.14,1.67h2.86c.15,0,.31-.01.45-.04v-3.25Z"/>
        <path class="cls-55" d="M963.73,572.95c.15-.02.3-.04.45-.04h2.86c1.18,0,2.14.75,2.14,1.67s-.96,1.67-2.14,1.67h-2.86c-.15,0-.31-.01-.45-.04v-3.25Z"/>
        <rect class="cls-6" x="917.34" y="592.64" width="58.13" height="4.52"/>
      </g>
    </g>
    <path class="cls-43" d="M375.26,145.73c6.1-1.15,12.29-1.73,18.5-1.74,2.03-.13,4.06.17,5.95.89,3.46.95,5.91.95,6.04,3.03-.27,2.34-4.62,5.9-6.91,6.47-2.25.49-4.57.63-6.86.41-2.31-.23-4.64.26-6.66,1.4-1.65,1.41-3.05,3.11-4.11,5.01-4.26,5.8-16.42,9.05-23.6,8.5"/>
    <path class="cls-43" d="M841.11,100.79c1.61.01,37.1,5.31,37.43,5.58.88.71,12.13,8.65,13.81,9.07,6.8,1.71,20.95,3.25,20.95,3.25,0,0,9.46,1.96,14.79,1.91,5.32-.05,20.47-2.58,20.47-2.58l-2.32-2.67c-1.08-1.24-2.41-2.23-3.91-2.9l-3-1.35c-1.91-.86-2.3-.31-4.39-.45l-9.49.39-10.53-6.93,2.34-2.51c.43-.08.86-.16,1.29-.25,3.41-.69,13.61.13,13.61.13l14.53,9.93s8.01,5.8,12.89,1l-9.4-9.65s10.22,10.33,14.47,4.75l-6.61-7.96c1.32,1.16,3.33,1.03,4.49-.28,0-.32-3.84-3.99-3.83-4.3l-15.2-16.67-31.74-4.91-34.57.75-19.79-6.11-6.15,10.57c-1.71,2.95-3.24,6-4.58,9.14l-5.54,13.04Z"/>
    <path class="cls-54" d="M922.9,88.06c3.49.26,8.28.69,13.56,1.25l1.46.15h.23s.17.19.17.19c3.51,3.54,6.62,6.76,8.76,9.11s3.46,3.85,3.32,3.97c-1.45-.95-2.77-2.08-3.95-3.34-2.34-2.13-5.55-5.29-9.07-8.81l.4.19c-.46-.1-.96-.13-1.45-.15-5.3-.57-10.08-1.13-13.53-1.63-3.45-.5-5.57-.89-5.56-1.06.02-.18,2.17-.11,5.66.14Z"/>
    <path class="cls-54" d="M932.69,81.87c3.09.34,7.39.89,12.18,1.57l.24.02.15.19.98,1.14c3.28,3.87,6.2,7.42,8.27,10.03,2.07,2.61,3.27,4.27,3.14,4.38s-1.6-1.36-3.84-3.83c-2.24-2.47-5.22-5.96-8.55-9.8l-.98-1.15.41.23c-4.86-.72-9.08-1.4-12.14-1.96-1.67-.19-3.32-.56-4.9-1.12.03-.16,1.95-.01,5.04.33Z"/>
    <path class="cls-46" d="M1257.58,564.76l-.31.16s-23.82,13.86-30.56,9.56c-6.74-4.3-21.49-32.01-21.49-32.01,0,0-1.52-10.2,7.75-11.95,4.62-.87,9.32,2.97,9.32,2.97,0,0,11.84,25.45,12.28,25.68s19.65-4.7,19.65-4.7l3.37,10.29Z"/>
    <path class="cls-43" d="M1218.23,603.02s20.48,35.23,22.01,41.22c.94,3.38,1.16,6.92.64,10.38-.28,2.06-8.34,49.04-8.34,49.04,0,0-7.66-.14-7.49-.76.29-.98-3.13-47.96-4.15-49.87s-17.58-22.07-20.63-25.7c-3.05-3.63-11.43-11.09-12.48-16.6-1.01-5.39,4.09-16.88,4.09-16.88l26.35,9.16Z"/>
    <polygon class="cls-43" points="1212.5 624.47 1199.47 660.7 1176.96 701.2 1168.88 697.8 1170.74 693.13 1181.55 654.4 1192.78 632.83 1193.14 610.36 1212.5 624.47"/>
    <path class="cls-30" d="M1187.8,584.41s-7.12,20.4-4.69,25.36c2.43,4.95,7.57,17.12,7.57,17.12l-16.5,41.37s16.64,8.11,30.84,4.06c14.2-4.06,34.87-4.06,34.87-4.06,0,0,4.81-18.66,0-30.02-4.81-11.36-18.75-39.72-18.75-39.72l-33.34-14.12Z"/>
    <path class="cls-43" d="M1209.06,517.07s-1.33,8.36-2.8,9.98c-.49.54-2.65,2.85-2.65,2.85l5.73,3.13c3.4,1.44,8.61,2.04,12.24,1.41l1.32.57s-2.44-3.39-2.47-4.26c-.03-.86,1.71-7.03,1.71-7.03"/>
    <path class="cls-54" d="M1221.1,528.06s-1.37-1.04-2.36-1.44-2.73-.52-6.96-5.09c0,0,.79,5.34,6.64,7.05,0,0,1.3.53,2.34.4l.33-.92Z"/>
    <path class="cls-43" d="M1228.07,497.65s.04.03.06.05c-.02-.04-.04-.07-.06-.11v.06ZM1230.58,498.42s.07.08.11.12v-.05s-.11-.12-.11-.07ZM1211.82,522.48c2.16,2.69,5.65,5.65,9.45,5.87,1.36.08,2.74-.5,3.77-1.29,1.55-1.2,3.18-2.41,4.39-3.88,1.16-1.41,1.69-2.3,2.31-4.01.64-1.77.68-2.25.66-4.08-.01-.82.05-2.05.18-2.82.15-.89.9-4.39,1.18-6.46.28-2.07-1.52-5.5-1.52-5.5-.06-.57-.33-1-.59-1.48l-.24-.03s.12.07.1.24c-.3-.08-.6-.28-.81-.49h0c-.38.14-.73-.07-1.01-.38,0,.06.04.17.1.18-.37.02-.72-.19-.94-.44,0,.06.04.17.04.23-.27-.08-.53-.25-.75-.43.05.08,1.45,0,1.45.05-.37.02.03.18-.24-.13l-.28-.24c-.31.02-.32.21-.54-.04.06.06-.1-.64-.11-.58-.37-.04-.26-.05-.55-.25,0,.06-1.04.26-1.04.32-.31-.03-.25.26-.48,0,.06.06.25-.21.3-.15-.37.02-.53.24-.81-.07.06.06-1.14-.74-1.14-.74-.37.02-.32.14-.6-.12.11.13-1.68-.28-1.63-.16-.31-.03.47,1.18.24.99,0,.06-.69-.24-.69-.24-.31.02.12.35-.1.1,0,.06.04.23.1.24-.38.13-.8-.03-1.14-.29.11.13.16.24.22.31-.31-.03-.56,0-.84-.26,0,.06.1.24.16.24-.32.08-.68-.01-.97-.21,0,.06.1.18.16.24-.25.03-.49,0-.72-.19l.16.24c-.24-.03-.44.07-.79-.08,0,.06.11.12.1.18-.18-.02-.43-.04-.61-.12,0,.06.17.19.1.18-.24-.03-.44.07-.73-.08.05.06.1.18.16.24-.24-.03-.49,0-.73-.13,0,.06.04.17.1.24-.24-.03-.44.07-.73-.08,0,.06.1.18.16.24-.24-.03-.5,0-.73-.08,0,.06.11.13.17.19-.24-.03-.49,0-.79-.14-.01.11.04.17.04.23-.18-.02-.3-.09-.48-.11l-.32.08c-.97,1.03-1.3,4.8-1.3,4.8-2.05,1.32-3.11,4.32-3.16,5.4-.05,1.07-.6,3.34-.6,3.34-.26-.42-.85-1.34-.98-1.8-.14-.41.03-.9-.11-1.32-.46-.95-1.71-.8-2.44-.31l-.13.17c-1.07,1.17-.46,5.22.12,6.46-.04,2.4,1.6,3.1,3.28,2.27l.24.96"/>
    <path class="cls-57" d="M1206.11,495.57s6.33-2.19,13.96-.45c7.63,1.75,11.42,3.9,12.38,7.38.96,3.48.19,9.48.19,9.48,0,0-.96,1.44,1.13-5.21,3.05-9.68-6.72-19.83-9.22-20.09-2.5-.26-13.69-1.8-18.44,8.89Z"/>
    <path class="cls-57" d="M1204.37,493.07s-.43-7.93,5.1-8.83c5.53-.9,15.57-2.49,18.14,4.97l-23.24,3.85Z"/>
    <path class="cls-51" d="M1203.31,509.96c-.5-.62-.18-2.21-.6-2.89-2.17-3.58-1.03-6.75.13-8.58.51-.8.07-2.33.19-3.07.61-3.84,1.07-3.91,7.23-7.28,5.01-2.74,10.06-2.06,12.98-1.6,4.67.74,6.71,1.25,8.01,4.75.17.46-.1.78.03,1.33.18.77,1.33.97,1.42,1.93,0,0-6.28,1.8-11.74,4.05-5.46,2.25-15.77,12.11-15.74,15.39,0,.1-1.36-3.34-1.91-4.03Z"/>
    <path class="cls-57" d="M1201.51,502.37s10.01-10.01,19.71-9.09c0,0-12.24-2.91-18.67,5.46l-.17.34c-.44.91-.72,1.88-.82,2.88l-.04.4Z"/>
    <path class="cls-57" d="M1231.39,492.76l-.63-.31c-1.47-.73-3.03-1.24-4.65-1.52l-2.71-.47s6.7-.47,7.99,1.35v.96Z"/>
    <path class="cls-45" d="M1207.65,515.69c-.37,0-.74.12-1.03.36-.23.2-.4.47-.45.77s.02.62.2.88c.05.08.11.16.19.22.09.07.19.12.29.17.44.2.94.16,1.36-.07.04-.02.1-.09.03-.12s-.17,0-.24.04c-.04.02-.07.04-.12.06,0,0-.07.02-.04.02-.03,0-.06.02-.08.02,0,0-.03,0,0,0-.01,0-.02,0-.03,0-.02,0-.04,0-.06,0,.03,0-.03,0-.04,0-.03,0-.05,0-.08,0,0,0-.03,0,0,0,0,0-.02,0-.03,0-.02,0-.04,0-.06,0-.04,0-.08-.01-.12-.02-.05-.01-.13-.04-.18-.06-.11-.04-.18-.08-.27-.14-.06-.04-.1-.09-.15-.14-.17-.22-.27-.5-.25-.78.02-.26.12-.51.3-.71.04-.05.09-.09.15-.14,0,0,.05-.04.03-.02.02-.01.03-.02.05-.03s.03-.02.05-.03c0,0,.01,0,.02-.01.04-.02-.03.01,0,0,.02,0,.04-.02.05-.02,0,0,.02,0,.02,0,.04-.01,0,0,0,0,.04-.01.08-.02.12-.03-.04,0,.01,0,.03,0,.02,0,.04,0,.06,0,0,0,.02,0,.03,0-.04,0,.01,0,.01,0,.02,0,.05,0,.07,0,.07,0,.18-.03.22-.09s-.04-.08-.09-.08h0Z"/>
    <path class="cls-8" d="M1210.25,506.68l-.9,5.42-1.67-2.61s1.82-2.02,2.56-2.81Z"/>
    <path class="cls-33" d="M1208.09,511.73c-.25-.03-.58-.02-.78.17-.12.11-.12.28-.09.43.03.2.11.4.16.6s.1.41.06.61c-.02.09-.06.17-.12.24-.01.01-.03.03-.04.04,0,0-.03.03-.03.02,0,0,.06-.03.02-.01.02,0,.03-.01.05-.01.01,0,.02,0,.03,0,0,0-.03,0-.05-.01-.23-.08-.4-.34-.5-.55-.18-.34-.27-.73-.29-1.11,0-.12.01-.22.04-.35.04-.27.11-.53.22-.78.06-.13.13-.25.22-.36.04-.05.08-.09.13-.13.02-.02.05-.03.06-.04.01,0,.03-.01.04-.02-.04.02.06-.02,0,0,.04-.01.17-.05.15-.11s-.15-.03-.18-.02c-.29.09-.5.27-.65.52-.14.23-.22.49-.28.75-.04.17-.07.35-.08.52-.03.29.05.61.14.89.15.45.6,1.25,1.19.86.41-.27.29-.78.17-1.18-.06-.2-.15-.43-.13-.64,0-.04.02-.08.04-.11,0,0,.01-.02.02-.03,0,0,.02-.03,0,0,.02-.03,0,0,.01,0,.02-.02-.01,0,0,0,0,0,.01,0,.02,0-.03,0-.03,0,0,0,.04-.02-.04,0,0,0,0,0,.02,0,.03,0-.02,0-.02,0,0,0,.07,0,.14,0,.22,0s.18-.02.24-.06c.05-.04.05-.08-.02-.09h0Z"/>
    <path class="cls-57" d="M1207.19,503.85s-3.81,3.2-4.22,4.58l-.26-1.36s1.3-2.44,4.48-3.22Z"/>
    <g>
      <path class="cls-24" d="M1224.16,517.56c-.47.19-1.16.06-1.58-.27-.09-.07-.44-.05-.3.05.56.43,1.54.57,2.16.33.06-.02.06-.07-.01-.1-.07-.03-.19-.04-.26-.01"/>
      <path class="cls-24" d="M1222.09,517.2c-.29-.17-.62-.28-.96-.35-.05,0-.12,0-.16.03-.03.02-.04.06,0,.08.15.11.34.16.53.18.06,0,.14,0,.17-.05.03-.04-.02-.08-.06-.08-.15-.01-.3-.06-.42-.15-.05.04-.11.07-.16.11.3.05.6.16.85.31.05.03.13.02.18,0,.04-.02.08-.06.03-.09"/>
      <path class="cls-24" d="M1220.74,517.1c-.4-.05-.84-.27-1.01-.59-.25-.48.1-1.16.63-1.39.06-.03.03-.07-.02-.09-.07-.02-.16,0-.22.02-.46.2-.8.76-.78,1.18.02.4.37.71.83.88.14.05.29.09.43.11.06,0,.17,0,.2-.04.03-.04-.02-.07-.07-.08"/>
      <path class="cls-24" d="M1224.91,517.44s.03-.07.06-.07c.11.01.22,0,.32-.07.03.05.06.09.09.14-.22,0-.44.05-.64.16-.04.02-.09,0-.12-.03-.02-.02-.05-.08,0-.1"/>
      <path class="cls-24" d="M1224.6,517.46c.23-.12.48-.17.72-.17.04,0,.08.02.1.06.02.03.02.06-.01.08"/>
      <path class="cls-24" d="M1225.72,517.58c.26.02.58-.12.74-.41.24-.43.12-.98-.18-1.3-.03-.03,0-.07.03-.08.05-.01.1.02.13.06.25.28.39.7.31,1.12-.08.39-.36.64-.68.72-.1.02-.2.04-.29.03-.04,0-.11-.03-.12-.08-.01-.05.02-.07.06-.06"/>
    </g>
    <path class="cls-8" d="M1229.34,510.18c.36-.14.78.05.98.27.05.05.13.2.17.43.05.29-.09.6-.29.78-.27.24-.67.24-.96.07-.39-.24-.48-.75-.34-1.1.03-.06.14-.33.43-.45"/>
    <path class="cls-8" d="M1225.99,511s1.92-1.11,2.85-1.1c1.35.02,2.92.87,3.33,1.53,0,0-2.07-1.25-3.02-1.24s-3.16.8-3.16.8Z"/>
    <path class="cls-8" d="M1218.63,509.15c-.32-.21-.87-.22-1.11-.05-.06.04-.21.16-.3.37-.11.28-.03.61.12.83.21.29.6.37.92.26.43-.15.62-.63.56-1.01-.01-.07.07-.19-.19-.36"/>
    <path class="cls-8" d="M1220.68,510.28s-1.74-1.38-2.65-1.5c-1.33-.18-3.01.44-3.51,1.03,0,0,2.23-.93,3.16-.78s3.01,1.25,3.01,1.25Z"/>
    <path class="cls-8" d="M1227.76,505.58c-.11.23-.21.45-.32.68-.08.17-.16.35-.24.52.7.15,1.28.32,1.72.45.92.28,1.39.42,1.86.74.49.33.85.72.99.88.2.22.33.36.46.58.29.48.31.88.39.89.08,0,.1-.32.11-.36.07-.83-.33-1.53-.35-1.58,0,0-.29-.53-.93-1.04-.44-.35-1.77-1.09-3.68-1.75"/>
    <path class="cls-8" d="M1220.69,505.05c.04.25.07.5.11.75.03.19.06.38.08.57-.71-.05-1.32-.07-1.78-.07-.96,0-1.46,0-1.99.17-.56.18-1.02.45-1.2.56-.25.15-.42.25-.61.42-.42.38-.55.76-.63.74-.07-.02,0-.34,0-.37.17-.81.75-1.37.79-1.41,0,0,.43-.43,1.19-.73.52-.21,2.01-.53,4.03-.62"/>
    <path class="cls-46" d="M1225.23,581.92s.38,5.72.21,14.8-19.92-1.84-19.92-1.84l-5.87-3-1.87-4.14,27.45-5.81Z"/>
    <path class="cls-46" d="M1214.43,531.96l-7.87-5.08s-12.46,2.19-13.02,10.7c-.32,4.87.66,33.26.66,33.26,0,0-4.45,9.1-5,10.52-.48,1.23-4.35,6.23-3.18,7.05,2.11,1.5,11.98,3.76,14.56,3.56l17.36-1.75c2.21-.18,4.86,5.25,6.57,3.84.49-.64.58-6.78.72-7.58.46-2.04-.08-15.83-.08-15.83,0,0,5.51-6.73,5.5-13.52,0-3.3-8.35-23.64-8.35-23.64"/>
    <path class="cls-43" d="M1231.56,701.45s8.29,4.14,12.9,7.65c5.41,4.13,0,0,0,0,0,0-1.24,4.68-3.63,4.77-2.39.09-16.63-6.27-16.63-6.27l.93-5.06,6.43-1.09Z"/>
    <g>
      <polygon class="cls-67" points="1230.75 715.24 1227.96 716.59 1226.76 707.98 1229.43 709.29 1230.75 715.24"/>
      <polygon class="cls-67" points="1226.76 707.74 1227.96 716.59 1224.86 716.51 1224.61 708.33 1226.76 707.74"/>
      <path class="cls-67" d="M1253.05,715.64c-.42.39-.95.63-1.52.69-2.73.28-11.31,1.11-13.23.75-2.8-.52-2.32,0-5.23-1.88s-7.28-1.72-8.33-2.15c-1.04-.43-.42-4.92-.42-4.92,0,0-.03-.87.75-.83h.12s2.67,2.02,2.67,2.02l6.88,2.65,4.17,3.13,7.28-.36,5.71-1.19s1.36.16,1.62.36c.25.2.36.71.2,1.01-.07.14-.37.44-.67.72Z"/>
      <path class="cls-1" d="M1224.28,706.1c1.9,0,3.16,2.33,6.51,3.83,1.5.67,8.48,3.02,9.9,1.66.39-.19.81-.5,1.28-.94,1.68-1.59,2.78-1.68,2.78-1.68,0,0,1.22.89,2.47,1.43,1.25.55,3.31,1.53,4.78,2.29,1.47.75,1.03,1.45,1.03,1.45,0,0-.94.93-1.78,1.09-.84.16-2.39.43-4.38.59-1.99.16-8.03.5-9.6-.06-1.16-.41-2.48-.31-4.96-2.3-2.28-1.82-8.01-1.13-8.36-1.87-.36-.74-.54-2.76-.2-3.83.05-.15.44-1.37.53-1.64Z"/>
    </g>
    <path class="cls-43" d="M1183.78,711.53c-2.31-5.31-7.54-12.96-7.54-12.96l-6.31-2.21-3.12,4s9.34,12.48,11.48,13.57c2.13,1.09,5.49-2.4,5.49-2.4Z"/>
    <g>
      <polygon class="cls-67" points="1168.82 710.23 1165.73 710.04 1168.87 701.95 1170.56 704.38 1168.82 710.23"/>
      <polygon class="cls-67" points="1168.98 701.73 1165.73 710.04 1163.16 708.3 1166.81 701.2 1168.98 701.73"/>
      <path class="cls-67" d="M1179.96,716.78c.2-.15.4-.3.6-.46l-4.54-2.24-2.12-4.76-4.72-5.67-1.34-3.06-.11-.06c-.66-.41-1.06.36-1.06.36,0,0-2.73,3.62-2.03,4.5s4.62,2.92,6.23,5.93c1.63,3.06,1.47,2.36,3.66,4.19.59.49,2.15,1.31,3.98,2.2.49-.3.99-.59,1.46-.92Z"/>
      <path class="cls-67" d="M1190.02,715.92c-.23-.23-1.55-.57-1.55-.57l-5.81.42-1.14-.1c-.21.38-1.99.55-2.22.91-.2.32-.56.81-.79,1.11.84.44,7.76.31,9.23.36.57.02,1.13-.15,1.59-.48.33-.24.67-.49.76-.63.19-.28.16-.79-.07-1.03Z"/>
      <path class="cls-1" d="M1179.96,716.78c.79-.57,1.5-1.24,2.27-1.83.41-.31.83-.58,1.23-.91.35-.29.69-.6,1.04-.9.1-.08.21-.16.32-.24-.43-.73-.72-1.34-.72-1.34,0,0-1-.46-3.24.11-.63.16-1.14.22-1.58.2-1.9.49-7.29-5.81-8.27-7.13-2.19-2.94-1.84-4.99-3.4-5.66-.21.19-1.14,1.07-1.26,1.18-.82.77-1.64,2.62-1.69,3.44-.05.82,5.29,3.01,6.39,5.71,1.2,2.95,2.4,3.51,3.21,4.43.69.79,3.1,2.01,5.25,3.1.15-.1.3-.07.44-.17Z"/>
      <path class="cls-1" d="M1188.68,714.52c-1.36-.94-3.27-2.19-4.43-2.9-.1-.06-.2-.12-.29-.19-.05.09-.11.18-.17.28-.45.85-.93,1.66-1.43,2.48-.52.84-2.31,1.92-2.83,2.76,1.01.29,3.17.15,3.7.18,1.99.11,3.53-.15,4.38-.2.85-.05,1.91-.84,1.91-.84,0,0,.53-.63-.83-1.57Z"/>
    </g>
    <path class="cls-44" d="M1223.3,519.74c-1.52-.11-4.67.27-5.38.85,0,0,1.42,1.77,4.93,2.02,3.52.25,4.17-.99,4.17-.99,0,0-1.79-1.74-3.72-1.88Z"/>
    <path class="cls-16" d="M1219.17,520.22s1.81.06,3.25.23,3.22.53,3.22.53c0,0,.34-1.11-2.26-1.42-2.6-.31-4.2.66-4.2.66Z"/>
    <path class="cls-32" d="M1222.85,522.12c-1.62-.44-3.24-1.29-5.16-1.38,0,0,.33,2.35,4.44,2.88,4.57.59,5-1.8,5-1.8-1.9-.35-2.62.25-4.28.3Z"/>
    <path class="cls-32" d="M1225.22,519.13c-.86-.17-1.44.11-1.82.07s-.89-.46-1.76-.49c-.82-.03-4.25,1.71-3.89,2.03.36.32,2.97-.95,5.58-.64,2.61.31,3.4,1.97,3.8,1.74s-1.1-2.54-1.91-2.7Z"/>
    <path class="cls-43" d="M1233.57,594.32c.1-.06.22-.09.33-.06.55.18,1.33.37,1.8.12.19-.1.29-.2.37-.35.12-.21.16-.36.2-.62.02-.14.03-.28.04-.42-.47-.73-.81-1.22-.81-1.22,0,0-4.58-4.65-7.38-6.28-1.8-1-3.8-1.59-5.85-1.72l-4.49,6.87,2.98.2,1.04.88s.27,1.27.53,2.21c.25.95,2.69,3.39,2.69,3.39.57.16,1.16.24,1.75.22.5.03.95-.28,1.09-.76.46,0,.93-.07,1.36-.22.74-.26,1.42-1.46,1.42-1.46.39.26.85.41,1.32.42.93.06,1.53-1.25,1.53-1.25,0,0,.03.03.08.08Z"/>
    <path class="cls-46" d="M1217.04,592.24l-5.07-3.81s-28.16-10.92-28.99-18.87c-.71-6.71,8.07-28.28,10.82-34.85.64-1.54,1.71-2.86,3.1-3.78,2.65-1.74,7.25-3.53,11.89.47,3.56,3.07.55,11.93.55,11.93,0,0-9.39,20.51-9.29,21s22.21,19.41,22.21,19.41l-5.23,8.49Z"/>
    <path class="cls-43" d="M1254.92,556.63l2.14,6.78,4.14-.76c.23-.1,7.83-3.72,7.83-3.72l-6.61-7.89c-.73.11-6.2,3.79-6.2,3.79"/>
    <path class="cls-43" d="M1268.51,559.34s-.03.07-.16.12c-.84.49-4.68,2.17-5.05,1.78s-.71-1.88-.27-2.17,4.89-1.97,4.89-1.97c0,0,.72-.21,1.4.85.44.63-.82,1.39-.82,1.39Z"/>
    <path class="cls-43" d="M1268.84,556.43s-.03.07-.16.12c-.84.49-4.68,2.17-5.05,1.78s-.71-1.88-.27-2.17,4.89-1.97,4.89-1.97c0,0,.72-.22,1.4.84.45.64-.82,1.4-.82,1.4Z"/>
    <path class="cls-43" d="M1268.51,553.88s-.03.07-.16.12c-.84.49-4.68,2.17-5.05,1.78s-.71-1.88-.25-2.2,4.89-1.97,4.89-1.97c0,0,.72-.22,1.4.85.44.66-.82,1.43-.82,1.43Z"/>
    <path class="cls-43" d="M1268.14,551.35s-.06.06-.16.12c-.84.49-4.68,2.17-5.05,1.78s-.71-1.88-.27-2.17,4.89-1.97,4.89-1.97c0,0,.72-.22,1.4.85.46.64-.82,1.39-.82,1.39Z"/>
    <path class="cls-54" d="M1264.68,558.52c.57-.15,1.13-.37,1.66-.66.55-.22,1.08-.52,1.56-.89-.57.15-1.13.37-1.66.66-.55.22-1.08.52-1.56.89Z"/>
    <path class="cls-54" d="M1263.12,556.27c.94-.25,1.86-.58,2.74-.99.92-.33,1.8-.74,2.64-1.23-.94.25-1.86.58-2.74.99-.91.33-1.8.75-2.64,1.23Z"/>
    <path class="cls-54" d="M1262.27,553.9c.94-.25,1.86-.58,2.74-.99.92-.33,1.8-.74,2.64-1.23-.94.25-1.86.58-2.74.99-.91.33-1.8.75-2.64,1.23Z"/>
    <path class="cls-43" d="M1257.42,556.73l1.67-3.04c.73-1.32,1.95-2.32,3.4-2.77l1.11-.34,3.02,7.69s-2.98.57-3.42-1.73l-.94,3.1-4.85-2.91Z"/>
    <path class="cls-54" d="M1261.58,559.37s.29-.26.64-.82c.5-.77.7-1.7.56-2.61l-.14-.86.44.75,1.01,1.76h-.04c.54.67,1.42.98,2.27.78l.18-.07-.09.24c-.95-2.13-1.77-4.08-2.29-5.52-.26-.72-.45-1.3-.57-1.71-.08-.21-.13-.42-.15-.64.37.73.69,1.49.97,2.26.58,1.41,1.45,3.31,2.39,5.46l.07.17-.16.08c-.08.04-.16.07-.25.1-.5.15-1.04.12-1.52-.08-.44-.19-.82-.47-1.13-.83h0l-.98-1.75.3-.11c.13.98-.13,1.98-.72,2.77-.2.28-.47.5-.79.64Z"/>
    <path class="cls-54" d="M1265.2,558.23c.05.05-.33.26-.62.73-.16.25-.15.58.03.82.29.25.69.32,1.05.18.89-.26,1.73-.45,2.31-.63s.92-.34.95-.29-.28.29-.85.55c-.75.31-1.52.56-2.31.77-.49.17-1.04.04-1.41-.32-.27-.36-.27-.85,0-1.2.16-.19.36-.35.58-.47.15-.11.24-.14.26-.12Z"/>
    <polygon class="cls-22" points="747.96 976.53 767.32 976.53 761.26 738.1 718.63 738.1 747.96 976.53"/>
    <polygon class="cls-22" points="289.31 976.79 270.71 976.79 276.77 736.95 319.4 736.95 289.31 976.79"/>
    <g>
      <path class="cls-50" d="M780.52,716.52H254.38s.47-25.66.47-25.66h526.14"/>
      <polygon class="cls-22" points="264.05 739.84 768.84 739.84 772.5 715.86 260.38 715.86 264.05 739.84"/>
    </g>
    <path class="cls-30" d="M195.76,819.56c3.41-34.21,7.31-103.84,7.43-138.14l2.45-84.53c-.32-1.93-.65-3.86-.94-5.78-2.56.46-1.89.83-4.51,1.06-8.55.76-17.18.3-25.64-.98-17.5-2.65-34.17-8.73-50.13-15.53-6.32-2.69-12.56-5.54-18.79-8.41l-18.34,7.14s-11.57,14.11-14.21,64.53c-.72,13.76,6.14,45.38,8.44,76.23,5.81,78.05,15.59,158.56,15.59,158.56,0,0,14.41,9.45,57.46,7.46,9.57-.44,36.54-4.83,36.54-4.83,2.77-13.02,3.3-43.28,4.64-56.77Z"/>
    <path class="cls-46" d="M214.07,529.43c-.97.91-2.31,1.54-5.79,26.29-.63,4.48-1.51,20.55-1.09,24.93-4.01.73-8.08,1.18-12.16,1.32-17.85.6-35.41-4.17-51.88-10.72-14.08-5.6-27.54-12.59-40.9-19.72l.55-.93,16.46-125.96,25.82-8.38,2.05,2.24-.1,2.69c4.34,7.13,11.28,5.97,19.84,7.28,2.51.38,5.16.62,7.89.66,7.6.13,14.69,0,18.91-5.35.16-.2,8.62,4.48,9.62,5,6.81,3.53,11.2,6.62,16.79,9.94,0,0,4.54,9.76,2.37,31.17"/>
    <path class="cls-43" d="M154.44,378.3s2.54,21.08-4.43,34.4c-.97,1.86-5.25,5.74-5.25,5.74l2.43,8.16c7.86,6.56,18.34,6.21,28.58,6.28,3.58.03,7.25-.48,10.66-1.13,3.74-.71,7.29-2.17,10.48-4.26l1.59-1.04s-7.05-3.04-7.28-5.5c-.23-2.46,3.73-20.42,3.73-20.42"/>
    <path class="cls-69" d="M191.55,416.74s-4.13-1.98-6.95-3.02c-2.82-1.03-7.76-1.25-20.14-13.8,0,0,2.8,14.46,19.51,18.81,0,0,4.31,1.26,7.24.78l.35-2.78Z"/>
    <path class="cls-43" d="M213.11,331.55c.05.05.11.11.17.16-.06-.1-.11-.21-.14-.32l-.03.16ZM220.08,334.18c.09.12.19.23.3.35l.02-.13s-.29-.37-.32-.22ZM162.79,398.87c5.64,7.98,15.01,16.64,25.69,18.25,7.24,1.09,7.84-.94,10.87-2.98,4.6-3.11,9.43-6.26,13.1-10.2,3.52-3.78,5.2-6.21,7.25-10.94,2.12-4.89,2.32-6.23,2.58-11.41.12-2.31.5-5.79,1.02-7.94.6-2.49,3.32-12.25,4.48-18.05,1.15-5.8-3.33-15.83-3.33-15.83-.08-1.63-.75-2.88-1.4-4.28l-.69-.12s.32.21.24.69c-.85-.28-1.64-.9-2.21-1.53v.03c-1.11.3-2.06-.35-2.79-1.28-.03.16.09.5.26.53-1.06-.02-2.01-.66-2.59-1.41-.03.16.09.5.07.66-.76-.27-1.47-.81-2.05-1.35.12.23,4.1.28,4.08.39-1.05-.02.06.53-.66-.41l-.75-.73c-.89.01-.94.54-1.52-.21.14.19-.18-1.81-.21-1.66-1.03-.17-.74-.19-1.52-.81-.03.16-2.98.55-3,.71-.86-.14-.76.68-1.34-.06.15.19.73-.56.88-.37-1.06-.02-1.55.58-2.28-.35.14.19-3.1-2.3-3.1-2.3-1.06-.02-.94.34-1.69-.44.29.37-4.7-1.09-4.58-.75-.86-.14,1.11,3.42.5,2.83-.03.16-1.89-.81-1.89-.81-.89.01.27,1.02-.31.27-.03.16.07.66.24.69-1.11.3-2.26-.22-3.18-1.02.29.37.41.72.55.9-.86-.14-1.57-.1-2.32-.88-.03.16.24.69.41.72-.91.17-1.91-.16-2.69-.78-.03.16.26.53.41.72-.71.04-1.4-.07-2-.66l.41.72c-.69-.12-1.25.11-2.23-.38-.03.16.29.37.26.53-.52-.09-1.2-.2-1.69-.45-.03.16.44.56.26.53-.69-.12-1.25.11-2.06-.35.14.19.26.53.41.72-.69-.12-1.4-.07-2.03-.5-.03.16.09.5.24.69-.69-.12-1.25.11-2.06-.35-.03.16.26.53.41.72-.69-.12-1.4-.07-2.06-.35-.03.16.29.37.44.56-.69-.12-1.4-.07-2.2-.53-.05.31.09.5.07.66-.51-.09-.83-.3-1.35-.39l-.91.17c-2.93,2.75-4.54,13.33-4.54,13.33-6.03,3.36-9.55,11.67-9.88,14.69-.33,3.02-2.28,9.33-2.28,9.33-.67-1.25-2.16-3.93-2.46-5.27-.33-1.19.25-2.55-.08-3.74-1.12-2.78-4.68-2.57-6.84-1.31l-.4.46c-3.22,3.12-2.21,14.67-.81,18.28-.55,6.79,4.76,11.29,8.88,7l.49,2.77"/>
    <path class="cls-57" d="M224.64,346.04c-2.62-9.87-12.43-16.75-33.68-23.04-21.25-6.29-39.54-1.21-39.54-1.21,15.31-29.38,46.66-23.06,53.69-21.88s38.7,34.66,22.51,58.43l-.99,2.34s-1.5-12.85-1.98-14.64Z"/>
    <path class="cls-57" d="M146.93,314.4s.67-19.91,15.98-24.05c20.45-5.54,47-5.04,52.92,16.52l-68.91,7.53Z"/>
    <path class="cls-51" d="M140.94,361.96c-1.31-1.85-.13-6.28-1.18-8.29-5.5-10.51-1.71-19.26,1.9-24.22,1.57-2.16.61-6.58,1.07-8.63,2.41-10.75,3.71-10.87,21.71-19.3,14.65-6.86,28.81-4.06,36.98-2.23,13.07,2.92,18.75,4.72,21.79,14.85.4,1.32-.42,2.2-.16,3.75.36,2.2,3.58,2.97,3.68,5.69,0,0-18.07,3.97-33.91,9.37-15.83,5.4-46.73,31.44-47.2,40.72-.01.29-3.24-9.67-4.69-11.72Z"/>
    <path class="cls-57" d="M137.19,340.18s30.05-26.53,57.31-22.22c0,0-34.07-10.4-53.75,12.14l-.54.94c-1.41,2.48-2.37,5.19-2.84,8.01l-.19,1.12Z"/>
    <path class="cls-57" d="M223.37,318.31l-1.73-1c-4.02-2.32-8.36-4.05-12.87-5.13l-7.57-1.81s19.03-.13,22.36,5.24l-.19,2.7Z"/>
    <path class="cls-8" d="M161.15,353.92l-3.49,15.17-4.25-7.67s5.51-5.38,7.74-7.5Z"/>
    <path class="cls-57" d="M153,345.38s-11.34,8.36-12.75,12.19l-.49-3.89s4.11-6.67,13.24-8.3Z"/>
    <g>
      <path class="cls-24" d="M200.82,386.66c-1.35.51-3.28.13-4.47-.82-.26-.21-1.23-.15-.86.14,1.57,1.24,4.35,1.67,6.09,1.01.17-.07.16-.19-.04-.29-.2-.1-.54-.12-.73-.05"/>
      <path class="cls-24" d="M194.98,385.56c-.81-.5-1.74-.83-2.69-1.02-.14-.03-.33,0-.44.08-.09.06-.12.16-.02.23.41.31.96.48,1.48.53.16.02.38,0,.49-.13.1-.12-.05-.22-.17-.23-.43-.04-.85-.18-1.19-.43-.15.1-.31.21-.46.31.85.17,1.68.47,2.4.92.14.09.37.07.51,0,.11-.05.24-.18.09-.27"/>
      <path class="cls-24" d="M191.17,385.23c-1.12-.16-2.38-.8-2.83-1.71-.68-1.37.33-3.28,1.83-3.92.16-.07.1-.19-.06-.24-.2-.07-.44-.02-.61.05-1.3.56-2.29,2.11-2.25,3.32.04,1.13,1.02,2.03,2.32,2.52.39.14.8.26,1.22.32.17.02.48,0,.58-.11.1-.12-.05-.2-.21-.22"/>
      <path class="cls-24" d="M202.94,386.34c-.04-.14.08-.21.17-.19.3.04.62,0,.9-.18.08.13.17.26.25.4-.61,0-1.24.12-1.83.42-.12.06-.27,0-.35-.1-.06-.07-.13-.22,0-.28"/>
      <path class="cls-24" d="M202.07,386.4c.65-.33,1.36-.46,2.05-.46.1,0,.22.07.28.17.05.08.05.18-.03.23"/>
      <path class="cls-24" d="M205.25,386.77c.73.06,1.65-.32,2.11-1.12.69-1.2.37-2.77-.45-3.68-.09-.1-.02-.21.08-.23.14-.03.28.07.37.17.71.8,1.09,2.01.83,3.18-.24,1.1-1.03,1.79-1.94,2.01-.27.06-.55.1-.83.07-.11,0-.3-.08-.34-.22-.04-.14.07-.19.17-.18"/>
    </g>
    <path d="M215.88,367.62c1.03-.33,2.2.28,2.73.93.13.15.34.6.42,1.25.1.84-.37,1.69-.97,2.16-.79.62-1.93.56-2.72.02-1.07-.74-1.22-2.2-.75-3.17.09-.18.47-.92,1.3-1.19"/>
    <path d="M207.69,369.65s5.25-2.87,7.66-2.71c3.52.24,7.46,2.87,8.39,4.8,0,0-5.16-3.82-7.64-3.91-2.37-.09-8.41,1.82-8.41,1.82Z"/>
    <path d="M185.22,362.49c-.87-.65-2.42-.77-3.14-.33-.17.1-.63.41-.91,1-.37.76-.2,1.72.21,2.36.55.85,1.64,1.16,2.57.91,1.26-.35,1.87-1.68,1.75-2.75-.02-.2.23-.52-.47-1.05"/>
    <path d="M191.73,366.51s-4.68-4.21-7.24-4.72c-3.74-.74-8.6.7-10.12,2.3,0,0,6.46-2.25,9.08-1.65s8.27,4.08,8.27,4.08Z"/>
    <path d="M225.23,366.5c.33-.79.72-1.54.65-2.41,0-.07,0-.15,0-.22-.27-.44-1.06-1.63-2.49-2.8-1.23-1.01-4.97-3.14-10.37-5.1-.31.64-.62,1.28-.93,1.92-.24.49-.47.98-.71,1.47,1.98.46,3.63.94,4.86,1.33,2.61.82,3.94,1.25,5.24,2.16,1.37.95,2.37,2.08,2.76,2.52.39.44.7.78.97,1.17,0-.01,0-.02.01-.03Z"/>
    <path d="M194.6,350.45c.13.7.25,1.4.38,2.1.09.54.19,1.07.28,1.6-2.37-.02-4.39.05-5.91.13-3.21.18-4.84.28-6.62.85-1.86.6-3.38,1.46-3.97,1.8-.83.47-1.39.78-2.02,1.31-1.38,1.16-1.83,2.25-2.1,2.21-.24-.03-.03-.97,0-1.06.56-2.35,2.48-4.03,2.63-4.16,0,0,1.44-1.3,3.95-2.3,1.73-.69,6.66-1.88,13.39-2.5"/>
    <path class="cls-46" d="M208.73,551.07s-.9,37-1,57.21c0,0-44.68,8.75-87.49-2.87-42.81-11.61-42.17-15.15-42.17-15.15l18.89-41.28,3.58-18.45,99.65,19.9"/>
    <path class="cls-48" d="M112.61,432.53c4.16,1.68,6.3,5.87,7.36,10,.61,2.36.88,4.79,1.06,7.22.21,2.94.25,5.89.12,8.84-.5,11.82-3.5,23.39-7.26,34.55-2.14,6.34-4.54,12.59-6.95,18.83-.07.17.4.11.47-.05,4.37-11.28,8.71-22.63,11.47-34.42,1.35-5.77,2.32-11.64,2.67-17.57.17-2.89.19-5.78.05-8.67-.13-2.56-.35-5.14-.88-7.66-.97-4.57-3.13-9.46-7.74-11.32-.15-.06-.57.16-.37.24h0Z"/>
    <path class="cls-48" d="M209.2,599.53c.21,0,.48-.31.17-.31-.21,0-.48.31-.17.31h0Z"/>
    <path class="cls-48" d="M224.24,469.33c-.79,1.22-1.34,2.62-1.79,3.99-.67,2.04-1.18,4.29-1.1,6.45.11,2.78.65,5.55,1,8.31,1.12,8.89,1.62,18.14-.79,26.87-1.49,5.41-4.19,10.44-8.28,14.33-.09.09.34.04.42-.04,7.2-6.85,9.72-16.78,10-26.42.13-4.4-.18-8.8-.68-13.17-.35-3.05-.88-6.08-1.15-9.13-.18-2.11.16-4.23.73-6.27.48-1.71,1.13-3.48,2.1-4.99.03-.04-.39-.03-.46.08h0Z"/>
    <path class="cls-46" d="M98.61,517.91c-3.61-2.86-7.16-5.81-10.82-8.6-4.03-3.07-5.05-5.72-9.74-8.01,4.32-21.98,15.69-49.58,21.37-60.86,9.41-16.33,28.47-18.55,28.47-18.55l-6.08,60.68-15.73,40.83c-2.53-1.77-5.04-3.57-7.46-5.49Z"/>
    <path class="cls-49" d="M121.26,437.68c4.12,1.72,6.1,6.06,7.04,10.17,1.12,4.95,1.13,10.24.67,15.27-.93,10.42-4.62,20.25-8.7,29.8-2.42,5.67-4.97,11.29-7.27,17.01-.16.39.57.4.69.09,4.11-10.2,9.09-20.08,12.5-30.55,1.61-4.96,2.84-10.05,3.4-15.24.56-5.17.61-10.59-.39-15.71-.89-4.57-2.96-9.42-7.52-11.33-.31-.13-.84.32-.42.5h0Z"/>
    <path class="cls-43" d="M209.5,412.3c-.9,3.22,2.29,11.86,2.29,11.86,0,0-6.12,20.31-6.19,24.71-.02,1.09,4.18,5.23,4.84,8.32,2.01,9.43,1.58,18.8,1.58,18.8l18.77-8.59-2.07-12.56,6.07-20.85,3.6-20.33-9.29-15.08c-.12.03-.23.08-.34.13-.99.49-1.39,1.69-.9,2.68l-3.76-5.3c-4.07,1.67-.89,9.83-.89,9.83l-4.33-7.27c-3.7,2.18-1.49,7.99-1.49,7.99l3.66,10.43s-1.16,6.32-2.13,8.28c-.97,1.95-1.81,4.07-1.81,4.07l.23-7.26-5.11-13.98s-1.84.94-2.74,4.16Z"/>
    <path class="cls-56" d="M226.87,424.95c.5-2.14,1.15-5.09,1.8-8.36l.18-.9.04-.14-.07-.13c-1.46-2.77-2.8-5.24-3.81-6.97-1.01-1.73-1.66-2.8-1.75-2.74.3,1.05.72,2.05,1.26,3,.84,1.81,2.12,4.32,3.57,7.09l-.04-.27c-.03.3-.1.6-.18.9-.66,3.28-1.22,6.25-1.57,8.41-.35,2.16-.52,3.51-.41,3.53.11.02.48-1.28.98-3.42Z"/>
    <path class="cls-56" d="M233.11,420.18c.47-1.95,1.08-4.69,1.71-7.75l.04-.15-.09-.14-.51-.85c-1.74-2.88-3.36-5.46-4.56-7.31-1.2-1.85-2-2.96-2.1-2.9s.51,1.28,1.59,3.21,2.64,4.53,4.36,7.43l.52.85-.05-.3c-.62,3.12-1.13,5.83-1.45,7.82-.25,1.06-.38,2.14-.37,3.23.11.02.44-1.18.91-3.13Z"/>
    <path class="cls-46" d="M213.9,456.95c2.11-.34,4.05-1,5.99-1.79,2.87-1.17,8.86-3.25,12.18-3.49l8.7,51.98c3.13,9.68,2.93,19.84,3.03,25.38.11,5.77-2.23,18.04-5.59,22.08-3.35,4.03-15.26,4.41-19.23,2.62-3.97-1.79-4.61-3.62-4.61-3.62,0,0-5.5-1.98-6.33-32.41l1.41-59.1c.67-.05,3.79-1.53,4.45-1.64Z"/>
    <path class="cls-49" d="M209.13,459.04c-.05,3.05-.09,6.1-.14,9.14-.11,7.02-.22,14.04-.32,21.06-.12,7.8-.24,15.61-.36,23.41-.08,5.4-.17,10.8-.25,16.2-.01.82-.08,1.65-.04,2.47.06,1.22.27,2.44.42,3.65.26,2.19.53,4.38.87,6.57.12.78.24,1.56.42,2.32.07.28.79.09.72-.19-.44-1.87-.65-3.8-.89-5.7s-.49-3.91-.71-5.87c-.09-.83-.1-1.46-.08-2.4.08-4.91.15-9.82.23-14.74.12-7.69.24-15.38.35-23.07.11-7.24.22-14.48.33-21.72.04-2.48.08-4.97.11-7.45.02-1.2.1-2.41.06-3.61,0-.05,0-.11,0-.16,0-.33-.72-.19-.73.08h0Z"/>
    <path class="cls-43" d="M172.04,404.56c-.31,3.33-6.37,10.26-6.37,10.26,0,0-1.54,21.16-3.04,25.29-.37,1.02-5.77,3.39-7.49,6.04-5.24,8.09-8.19,16.99-8.19,16.99l-14.41-16.44,6.37-9.28,1.77-21.64,3.9-20.28,14.06-10.77c.1.07.19.15.27.24.75.81.7,2.08-.11,2.83l5.4-3.61c3.2,3.02-2.67,9.5-2.67,9.5l6.64-5.25c2.68,3.36-1.46,7.99-1.46,7.99l-7.15,8.43s-1.17,6.32-.96,8.49.24,4.44.24,4.44l2.38-6.86,9.76-11.23s1.38,1.53,1.07,4.86Z"/>
    <path class="cls-56" d="M145.02,395.72c4.1-3.14,8.21-6.29,12.31-9.43.58-.45,1.17-.89,1.75-1.34l-.52.04c.88.72.93,1.94.13,2.74-.32.32.34.42.55.28,1.8-1.2,3.6-2.41,5.4-3.61h-.57c1.65,1.6.73,4.04-.21,5.78-.67,1.23-1.5,2.4-2.44,3.44-.3.33.33.45.55.28,2.21-1.75,4.43-3.5,6.64-5.25h-.57c2.79,3.64-1.52,7.8-3.78,10.47-1.43,1.69-2.87,3.38-4.3,5.07-.24.28-.51.51-.59.87-.23,1.01-.35,2.05-.5,3.07-.23,1.53-.46,3.1-.46,4.65,0,1.69.24,3.38.26,5.07,0,.36.62.3.71.02.5-1.45,1.01-2.9,1.51-4.36l.78-2.26c.03-.1.12-.29.06-.2.06-.09.15-.17.22-.25,2.36-2.72,4.72-5.43,7.08-8.15.82-.94,1.63-1.88,2.45-2.82l-.64.05c.58.65.84,1.63.98,2.47.25,1.56.03,2.98-.64,4.39-1.2,2.51-2.96,4.77-4.71,6.91-.28.34-.84.79-.97,1.22s-.02,1.01-.03,1.44c-.07,2.56-.18,5.12-.37,7.67-.12,1.65-.27,3.3-.49,4.94-.17,1.25-.36,2.54-.79,3.73-.14.4.58.4.69.09.85-2.38,1.01-5.07,1.22-7.57.23-2.76.36-5.52.45-8.29.01-.41.02-.83.03-1.24,0-.21.07-.51.01-.72-.04-.16-.14.09.04-.09.23-.22.43-.5.63-.75,1.76-2.13,3.49-4.38,4.76-6.84.76-1.48,1.11-2.9.94-4.58-.1-1.03-.39-2.3-1.11-3.1-.16-.19-.49-.12-.64.05-2.03,2.34-4.07,4.68-6.1,7.02-1.09,1.25-2.17,2.5-3.26,3.75-.15.18-.35.35-.46.56-.27.52-.41,1.17-.6,1.72-.59,1.71-1.18,3.41-1.77,5.12l.71.02c-.02-1.58-.18-3.14-.26-4.71-.07-1.35.14-2.73.32-4.07.16-1.23.36-2.46.57-3.68.02-.12.07-.25.07-.37,0-.15.05-.09-.03.02.12-.16.26-.3.39-.45,2.3-2.72,4.65-5.4,6.91-8.15,1.79-2.19,3.28-5.53,1.33-8.07-.13-.17-.43-.13-.57,0-2.21,1.75-4.43,3.5-6.64,5.25l.55.28c1.03-1.14,1.93-2.44,2.64-3.8.95-1.81,1.74-4.33.06-5.97-.16-.16-.39-.13-.57,0l-5.4,3.61.55.28c.99-.99.89-2.51-.18-3.39-.14-.11-.39-.06-.52.04-4.1,3.14-8.21,6.29-12.31,9.43-.58.45-1.17.89-1.75,1.34-.39.3.19.57.48.34h0Z"/>
    <path class="cls-56" d="M151.3,410.17c.29-2.18.74-5.16,1.3-8.46l.15-.91.02-.14.12-.1c2.35-2.07,4.49-3.89,6.05-5.15s2.55-2.02,2.62-1.93c-.65.87-1.41,1.66-2.25,2.35-1.43,1.39-3.53,3.27-5.87,5.35l.13-.24c-.08.29-.12.59-.15.9-.56,3.3-1.09,6.27-1.54,8.42-.44,2.15-.77,3.46-.88,3.45-.11-.02.01-1.36.31-3.54Z"/>
    <path class="cls-56" d="M147.17,403.49c.26-1.99.67-4.76,1.17-7.85l.02-.16.13-.1.78-.61c2.65-2.06,5.08-3.9,6.87-5.2,1.78-1.3,2.92-2.05,2.99-1.96s-.94,1.01-2.63,2.43c-1.69,1.41-4.09,3.28-6.72,5.38l-.79.61.16-.26c-.53,3.13-1.03,5.85-1.44,7.82-.14,1.08-.41,2.14-.8,3.15-.11-.02,0-1.26.26-3.25Z"/>
    <path class="cls-46" d="M81.48,486.76l9.57,17,22.93-33.01,21.78-34.9c.88.86,2.53,2.35,3.63,2.92,5.34,2.78,12.57,7.83,18.46,8.66-8.82,21.88-28.89,68.39-36.45,78.73-16.84,23.05-34.67,27.01-46.01,7.57-4.38-7.51,6.09-46.97,6.09-46.97Z"/>
    <path class="cls-49" d="M98.26,545.28c3.37-1.84,6.87-3.45,10.17-5.39,3.08-1.81,5.8-4.08,8.23-6.7,2.56-2.78,4.97-5.79,6.99-9,1.44-2.29,2.73-4.68,3.99-7.08,3.61-6.86,6.9-13.89,10.13-20.93,3.76-8.19,7.39-16.43,10.95-24.71,3.12-7.25,6.19-14.53,9.16-21.85.3-.73.59-1.45.88-2.18.03-.08-.08-.09-.12-.09-4.11-.61-7.93-2.76-11.49-4.77-1.77-1-3.52-2.04-5.3-3.03-.81-.45-1.71-.82-2.4-1.46s-1.28-1.49-1.97-2.18c-.12-.12-.58.03-.67.15-1.11,1.47-2.22,2.93-3.33,4.4-2.52,3.34-5.05,6.67-7.57,10.01-2.74,3.62-5.47,7.23-8.21,10.85l-5.23,6.92c-.66.87-1.26,1.76-1.88,2.66-2.06,2.97-4.12,5.94-6.19,8.91-2.64,3.81-5.29,7.61-7.93,11.42-2.04,2.93-4.07,5.86-6.11,8.79-.42.6-.86,1.19-1.26,1.81-.42.66-.74,1.4-1.08,2.1-1.06,2.17-2.05,4.38-2.9,6.64-.94,2.49-1.79,5.08-2.09,7.74-.12,1.07-.15,2.17.07,3.23.04.17.76,0,.72-.19-.5-2.38.12-4.94.78-7.23.75-2.61,1.76-5.15,2.88-7.63.83-1.86,1.65-3.78,2.82-5.46,1.71-2.47,3.42-4.93,5.14-7.4,2.6-3.74,5.19-7.47,7.79-11.21,2.3-3.32,4.61-6.64,6.91-9.95.68-.97,1.35-1.95,2.03-2.92.16-.22.31-.45.47-.67.1-.15,0-.02.1-.14,1.32-1.78,2.68-3.54,4.02-5.31,2.6-3.44,5.2-6.87,7.8-10.31s5.35-7.07,8.02-10.6c1.56-2.07,3.12-4.13,4.69-6.2.07-.1.15-.2.22-.29l-.67.15c.54.54,1,1.16,1.52,1.72.54.59,1.13.98,1.83,1.36,1.39.74,2.75,1.54,4.12,2.32,2.91,1.68,5.84,3.37,8.96,4.65,1.6.65,3.24,1.18,4.95,1.43l-.12-.09c-2.83,7.03-5.76,14.02-8.74,20.98-3.49,8.17-7.05,16.31-10.73,24.41-3.32,7.32-6.71,14.61-10.36,21.77-1.34,2.63-2.72,5.25-4.21,7.8-1.59,2.72-3.43,5.24-5.42,7.69-2.52,3.11-5.3,6.04-8.62,8.31-2.9,1.98-6.11,3.47-9.22,5.09-.98.51-1.95,1.02-2.91,1.55-.42.23.24.21.42.11h0Z"/>
    <path class="cls-56" d="M199.2,356.69c1.25.38,2.67.15,3.75-.57s1.73-1.87,1.78-3.16c.02-.7-.13-1.4-.47-2.01-.13-.23-.82.02-.72.19.56,1,.62,2.22.2,3.28-.21.51-.54.98-.96,1.33-.2.16-.4.3-.63.41-.21.11-.43.19-.68.25s-.52.09-.8.09c-.29,0-.59-.05-.87-.14-.17-.05-.36-.01-.51.07-.08.04-.24.21-.07.26h0Z"/>
    <path class="cls-60" d="M196.75,392.02c-4.08-.5-13.45,1.28-15.49,2.88,0,0,3.31,6.38,12.78,7.54,9.47,1.16,12.39-4.45,12.39-4.45,0,0-4.48-5.34-9.68-5.98Z"/>
    <path class="cls-16" d="M185.35,393.35s5.24.18,9.37.69c4.13.51,9.26,1.6,9.26,1.6,0,0,1.08-3.27-6.42-4.19-7.5-.92-12.21,1.9-12.21,1.9Z"/>
    <path class="cls-32" d="M195.45,400.98c-4.34-1.28-8.98-5.81-14.19-6.08,0,0,.94,9.12,12.07,10.49,11.13,1.37,13.1-7.4,13.1-7.4-5.12-1.01-6.45,2.8-10.98,2.98Z"/>
    <path class="cls-32" d="M201.9,390.06c-2.31-.49-3.92.36-4.94.23-1.02-.12-2.37-1.33-4.74-1.42-2.21-.08-12.24,4.98-11.3,5.91.94.93,8.68-2.74,15.72-1.87,7.04.87,9,5.73,10.14,5.05,1.14-.68-2.71-7.44-4.88-7.9Z"/>
    <path class="cls-56" d="M382.76,144.28c-5.81.37-12.07.87-16.81,4.64-.13.1.12.11.17.1.16,0,.36-.07.49-.17,4.47-3.56,10.37-3.95,15.84-4.3.18-.01.79-.3.32-.27h0Z"/>
    <path class="cls-49" d="M1225.74,572.85c-.36-3.59-.72-7.28.17-10.82.42-1.68,1.09-3.32,1.25-5.06.16-1.8-.24-3.59-.64-5.33-.47-2.04-.95-4.09-1.42-6.13-.02-.07-.26-.01-.24.06.42,1.8.84,3.61,1.25,5.41s.88,3.59.84,5.43c-.04,1.8-.69,3.49-1.16,5.2s-.66,3.43-.68,5.19c-.02,2.04.18,4.08.38,6.11,0,.07.25.02.24-.06h0Z"/>
    <path class="cls-49" d="M1203.13,534.44c2.39,3.37,2.27,7.79,1.15,11.6-.62,2.1-1.52,4.11-2.43,6.09s-1.71,3.82-2.48,5.77c-.73,1.83-1.45,3.67-2.25,5.47-.22.51-.47,1.01-.69,1.52-.18.43-.28.9-.03,1.32.17.3.62.45.9.62.46.27.91.54,1.37.82,3.85,2.32,7.6,4.79,11.3,7.34,3.7,2.55,7.33,5.18,10.93,7.86.42.32.85.63,1.27.95.06.04.27-.05.23-.08-3.55-2.67-7.14-5.29-10.78-7.83-3.69-2.57-7.43-5.06-11.25-7.42-.92-.57-1.85-1.13-2.79-1.69-.3-.18-.79-.35-.96-.68-.27-.53-.03-1.07.2-1.57.85-1.85,1.63-3.73,2.38-5.62s1.48-3.71,2.3-5.52c.92-2.03,1.89-4.03,2.63-6.13,1.3-3.72,1.85-8.02,0-11.67-.21-.42-.46-.82-.73-1.21-.04-.06-.26.03-.24.06h0Z"/>
    <path class="cls-49" d="M1196.48,565.88c-.71-.14-1.46-.11-2.17,0-.89.13-1.76.41-2.52.9-.44.28-.84.64-1.15,1.06-.05.07.18.04.22,0,1.01-1.37,2.79-1.92,4.43-1.92.35,0,.7.02,1.04.09.06.01.28-.09.15-.11h0Z"/>
    <path class="cls-49" d="M1190.64,577.99c2.98,2.36,6.38,4.18,9.79,5.81,3.75,1.79,7.61,3.35,11.54,4.7,1.93.66,3.87,1.26,5.84,1.78.06.02.27-.08.2-.1-3.68-.96-7.29-2.22-10.83-3.62-3.87-1.53-7.68-3.26-11.29-5.33-1.74-1-3.45-2.08-5.02-3.32-.05-.04-.27.05-.23.08h0Z"/>
    <path class="cls-18" d="M270.47,280.98c-9.94.02-18.09-6.85-18.46-15.55-.1-8.87,8.02-16.15,18.14-16.27,10.13-.12,18.43,6.97,18.54,15.84-.05,8.79-8.18,15.93-18.22,15.98Z"/>
    <path class="cls-12" d="M241.26,296.53c-6.98.01-12.7-4.81-12.96-10.92-.07-6.22,5.63-11.34,12.74-11.42,7.11-.09,12.94,4.89,13.02,11.12-.04,6.17-5.75,11.18-12.79,11.22Z"/>
    <path class="cls-14" d="M737.08,141.56c-9.94.02-18.09-6.85-18.46-15.55-.1-8.87,8.02-16.15,18.14-16.27,10.13-.12,18.43,6.97,18.54,15.84-.05,8.79-8.18,15.93-18.22,15.98Z"/>
    <path class="cls-13" d="M940.2,450.84c-9.94.02-18.09-6.85-18.46-15.55-.1-8.87,8.02-16.15,18.14-16.27,10.13-.12,18.43,6.97,18.54,15.84-.05,8.79-8.18,15.93-18.22,15.98Z"/>
    <path class="cls-11" d="M707.87,157.1c-6.98.01-12.7-4.81-12.96-10.92-.07-6.22,5.63-11.34,12.74-11.42,7.11-.09,12.94,4.89,13.02,11.12-.04,6.17-5.75,11.18-12.79,11.22Z"/>
    <path class="cls-10" d="M897.06,427.43c-6.98.01-12.7-4.81-12.96-10.92-.07-6.22,5.63-11.34,12.74-11.42,7.11-.09,12.94,4.89,13.02,11.12-.04,6.17-5.75,11.18-12.79,11.22Z"/>
    <polygon class="cls-59" points="411.34 672.87 385.27 672.87 386.34 670.15 410.28 670.15 411.34 672.87"/>
    <polygon class="cls-59" points="411.34 677 385.27 677 386.34 674.29 410.28 674.29 411.34 677"/>
    <polygon class="cls-59" points="411.34 681.33 385.27 681.33 386.34 678.62 410.28 678.62 411.34 681.33"/>
    <polygon class="cls-59" points="456.66 672.87 430.59 672.87 431.66 670.15 455.59 670.15 456.66 672.87"/>
    <polygon class="cls-59" points="456.66 677 430.59 677 431.66 674.29 455.59 674.29 456.66 677"/>
    <polygon class="cls-59" points="456.66 681.33 430.59 681.33 431.66 678.62 455.59 678.62 456.66 681.33"/>
    <polygon class="cls-59" points="320.1 672.91 294.03 672.91 295.09 670.2 319.03 670.2 320.1 672.91"/>
    <polygon class="cls-59" points="320.1 677.05 294.03 677.05 295.09 674.33 319.03 674.33 320.1 677.05"/>
    <polygon class="cls-59" points="320.1 681.38 294.03 681.38 295.09 678.66 319.03 678.66 320.1 681.38"/>
    <polygon class="cls-59" points="365.42 672.91 339.34 672.91 340.41 670.2 364.35 670.2 365.42 672.91"/>
    <polygon class="cls-59" points="365.42 677.05 339.34 677.05 340.41 674.33 364.35 674.33 365.42 677.05"/>
    <polygon class="cls-59" points="365.42 681.38 339.34 681.38 340.41 678.66 364.35 678.66 365.42 681.38"/>
  </g>
</svg>