<svg id="Layer_1" data-name="Layer 1" xmlns="http://www.w3.org/2000/svg" viewBox="0 0 496.11 275.13"><defs><style>.cls-1{fill:#0d4060;opacity:0.15;}.cls-10,.cls-11,.cls-13,.cls-14,.cls-15,.cls-2,.cls-21,.cls-4{fill:none;stroke-miterlimit:10;}.cls-2{stroke:#1b89b0;stroke-width:5.69px;}.cls-10,.cls-11,.cls-14,.cls-2,.cls-21,.cls-4{stroke-linecap:round;}.cls-3{fill:#a1caeb;}.cls-4{stroke:#188ab2;stroke-width:5.45px;}.cls-5{fill:#a2cced;}.cls-6{fill:#f8ac1c;}.cls-7{fill:#e59525;}.cls-8{fill:#0aa0cc;}.cls-9{fill:#0b4161;}.cls-10,.cls-11{stroke:#2585a9;}.cls-10{stroke-width:1.28px;}.cls-11{stroke-width:1.43px;}.cls-12{fill:#fff;}.cls-13,.cls-15{stroke:#010101;}.cls-13{stroke-width:1.33px;}.cls-14,.cls-21{stroke:#0b4161;}.cls-14{stroke-width:2.02px;}.cls-15{stroke-width:1.35px;}.cls-16{fill:#02a1cd;}.cls-17{fill:#ea1e52;}.cls-18{fill:#514c49;}.cls-19{fill:#57c4cf;}.cls-20{fill:#504b48;}.cls-21{stroke-width:2.1px;}</style></defs><ellipse class="cls-1" cx="251.2" cy="261.89" rx="189.33" ry="8.58"/><path class="cls-2" d="M292.25,133.23s-3.27,20-33.17,18.34"/><path class="cls-3" d="M257.7,145.48a5.67,5.67,0,0,1,3.48,5.18c.25,3.28-1.62,6.28-4.16,6.64l-6.26.91-.12,0h0l-8.5,1.31a1.31,1.31,0,0,1-1.33-1.29.28.28,0,0,1,0-.09,1.56,1.56,0,0,1,1.09-1.75l4.58-.67a6,6,0,0,1-.49-1.23l-5.52.78a1.3,1.3,0,0,1-1.33-1.29v-.09a1.57,1.57,0,0,1,1-1.73l5.52-.8a8.38,8.38,0,0,1,.25-1.21l-4.76.67a1.3,1.3,0,0,1-1.32-1.29v-.09a1.54,1.54,0,0,1,1.09-1.73l7.94-1.14a3.27,3.27,0,0,1,.77-.23l-1.56-.38a1.57,1.57,0,0,1-1-1.84,1.3,1.3,0,0,1,1.32-1.27h.11"/><path class="cls-4" d="M227.43,130.17s17.15,4.69,23.89,2,14.23-12.56,14.23-12.56"/><path class="cls-5" d="M288.61,108a1.73,1.73,0,0,0-.26-2.43l-.15-.11a2,2,0,0,0-2.68-.25l-4.38,4.26a9.3,9.3,0,0,0-.85-1.51l5.24-5.12a1.73,1.73,0,0,0-.31-2.43l-.07,0a2,2,0,0,0-2.69-.25l-5.24,5.1a10.88,10.88,0,0,0-1.47-.69l4.48-4.38a1.73,1.73,0,0,0-.3-2.42l-.09-.06a2,2,0,0,0-2.68-.26l-7.51,7.32a4.65,4.65,0,0,0-.85.6l.88-1.88a2.08,2.08,0,0,0-1.16-2.45h0a1.69,1.69,0,0,0-2.37.34,1,1,0,0,0-.12.17l-4.56,10.29a1.65,1.65,0,0,0,.09,1.34c-.88,2.37.08,5.52,2.61,7.76,3.23,2.89,7.85,3.32,10.27,1l5.94-5.79.12-.13.07,0Z"/><polyline class="cls-6" points="191.66 258.9 182.6 258.9 182.6 219.86 109.61 219.86 109.61 258.9 100.35 258.9 100.35 216.21 100.5 216.21 100.5 207.89 191.66 207.89 191.66 216.32"/><rect class="cls-7" x="93.33" y="189.31" width="106.1" height="21.22" rx="6.41"/><path class="cls-8" d="M82,61.22A92.41,92.41,0,0,1,92.17,39.09c24-38,77.42-44.51,111.53-16.13,25.62,21.3,32.85,60,32.35,91.75-.27,16.38.32,35.59-6.52,50.76-9.2,20.47-29.77,34.65-52.41,34.26l-51.44-.89c-31.05-.55-55.47-27.26-54.58-59.68A385.36,385.36,0,0,1,74.45,95.3,220.5,220.5,0,0,1,82,61.22Z"/><path class="cls-9" d="M164.93,85.13s-.61,9.22,11.73,10.85c15.75,2.1,16.57-7.94,16.57-7.94Z"/><path class="cls-10" d="M151.11,83c5.24-.58,10.53-4.09,8.42-10.76"/><path class="cls-10" d="M210.35,84.24c-7.16,2.25-13.64-4.75-13.22-10"/><path class="cls-11" d="M208.54,44.73a101.18,101.18,0,0,1-54-2.92"/><path class="cls-12" d="M222.66,74.56c-.19-6.81-6.23-12.14-13.48-11.93s-13,5.87-12.77,12.68"/><path class="cls-9" d="M218.23,75a5.72,5.72,0,1,0-11.43.32"/><path class="cls-12" d="M160.24,72.61c0-6.87-5.9-12.33-13.19-12.32s-13.21,5.51-13.22,12.3"/><path class="cls-9" d="M157.34,72.61a5.72,5.72,0,0,0-11.42,0"/><path class="cls-13" d="M188.61,76.88C178.22,63.62,169,76.55,169,76.55"/><path class="cls-9" d="M144.49,60.62c-1.74.18-7.83,1.57-10.8,12.05,0,0,0-.55.07-1.33l-5.47-2.46,5.7.77.17-.81-5.86-5,6.59,2.84A10,10,0,0,1,144.49,60.62Z"/><path class="cls-9" d="M222.79,73.44c.06.87.05,1.39.05,1.39C219.75,64.14,213,63,211.2,62.82c5.6.15,9,2.89,10.38,5.92l6.56-2.91-5.78,5.06c.08.29.13.57.19.84l5.67-.81Z"/><path class="cls-14" d="M206.16,52.54c11.18-2.9,13.41,7.32,13.41,7.32"/><path class="cls-14" d="M149.39,51.6c-10.52-4.83-13.26,4.92-13.26,4.92"/><path class="cls-15" d="M226.52,58.51c-14.44-.16-38.11,6.61-38.21,15.17s11.55,15.68,26.05,15.81,22.31-5.89,26.42-15.23C244.25,66.37,241,58.67,226.52,58.51Z"/><polyline class="cls-16" points="163.05 193.32 176.6 246.06 168.31 249.34 130.89 195.63"/><path class="cls-4" d="M96.79,121.89s0,42.17,37.75,48.46"/><polygon class="cls-17" points="174.35 260.71 179.62 256.57 173.06 232.15 160.5 238.13 174.35 260.71"/><path class="cls-18" d="M198,251.38c-3-7.4-11-11.24-17.69-8.59s-9.79,10.85-6.74,18.25"/><polyline class="cls-16" points="197.64 182.26 211.19 234.99 202.89 238.27 165.47 184.56"/><polygon class="cls-17" points="208.94 249.64 214.21 245.51 207.65 221.08 195.08 227.06 208.94 249.64"/><path class="cls-18" d="M232.57,240.31c-3-7.4-11-11.24-17.7-8.59s-9.78,10.86-6.73,18.25"/><polyline class="cls-6" points="394 258.74 385.19 258.74 385.19 220.77 314.19 220.77 314.19 258.74 305.19 258.74 305.19 217.22 305.33 217.22 305.33 209.12 394 209.12 394 217.33"/><rect class="cls-7" x="298.36" y="191.06" width="103.2" height="20.64" rx="6.24"/><polyline class="cls-8" points="334.26 195.69 320.85 249.16 325.86 250.92 354.08 195.69"/><polyline class="cls-8" points="311.36 185.06 297.01 242.18 302.02 243.93 326.8 193.75"/><polygon class="cls-19" points="302.91 218.7 312.77 222.16 302.65 243.99 297.01 242.18 302.91 218.7"/><polygon class="cls-19" points="326.74 225.68 336.93 229.25 326.19 250.88 320.59 248.92 326.74 225.68"/><path class="cls-20" d="M282.65,238.53a10.35,10.35,0,0,1,19.77,6.12c-.08.24-.16.49-.25.72"/><path class="cls-20" d="M306.48,245.51a10.35,10.35,0,0,1,19.77,6.12c-.08.24-.16.49-.26.72"/><ellipse class="cls-8" cx="349.02" cy="127.59" rx="75.51" ry="74.94"/><path class="cls-9" d="M335.84,109.3s-.58,9-18.63,7.83c-14.84-1-15.14-10.73-15.14-10.73Z"/><path class="cls-12" d="M327.81,101.67a13.09,13.09,0,0,1,26,2.39"/><path class="cls-12" d="M288,98.12c.62-6.73,7-11.67,14.2-11s12.58,6.67,12,13.4"/><path class="cls-9" d="M288.11,96.59a8.69,8.69,0,0,0,8.58-1.45,8.07,8.07,0,0,0,2.23-8A12.6,12.6,0,0,0,288.11,96.59Z"/><path class="cls-2" d="M384.25,149.55s-11.16,27.73-41,25.22"/><path class="cls-9" d="M328,100.14a8.7,8.7,0,0,0,8.58-1.45,8.1,8.1,0,0,0,2.23-8A12.58,12.58,0,0,0,328,100.14Z"/><path class="cls-3" d="M342,168.64a5.69,5.69,0,0,1,3.33,5.28c.16,3.29-1.8,6.23-4.35,6.52l-6.28.74-.12,0h0l-8.53,1.07a1.31,1.31,0,0,1-1.29-1.33.28.28,0,0,1,0-.09,1.55,1.55,0,0,1,1.14-1.72l4.59-.54a6.81,6.81,0,0,1-.45-1.24l-5.54.63a1.31,1.31,0,0,1-1.29-1.33v-.09a1.58,1.58,0,0,1,1.09-1.71l5.53-.64a9.54,9.54,0,0,1,.29-1.2l-4.77.54a1.31,1.31,0,0,1-1.29-1.33v-.09a1.54,1.54,0,0,1,1.14-1.7l8-.92a3.52,3.52,0,0,1,.77-.21l-1.54-.42a1.57,1.57,0,0,1-.9-1.87,1.29,1.29,0,0,1,1.35-1.23H333"/><path class="cls-5" d="M135.52,162.33c-2.49.42-4.74,2.82-5.42,6.14-.89,4.23,1,8.46,4.29,9.37l8,2.27.18,0,.07,0,10.84,3a1.74,1.74,0,0,0,2-1.45c0-.06,0-.12,0-.18a2,2,0,0,0-1.13-2.45l-5.87-1.67a9.78,9.78,0,0,0,.89-1.49l7.05,2a1.73,1.73,0,0,0,1.95-1.48.28.28,0,0,1,0-.09,2.05,2.05,0,0,0-1.12-2.45l-7-2a10.82,10.82,0,0,0-.14-1.61l6,1.7a1.72,1.72,0,0,0,1.94-1.47s0-.07,0-.11a2,2,0,0,0-1.11-2.45l-10.1-2.86a4.45,4.45,0,0,0-.94-.43l2.07-.18a2.09,2.09,0,0,0,1.55-2.22h0a1.71,1.71,0,0,0-1.48-1.9h-.21"/><path class="cls-21" d="M338,81.65l16.7,6.68"/><path class="cls-21" d="M307.13,79.89l-15.85,2.59"/><path class="cls-15" d="M130.59,56.48c-14.49-.17-16.78,7.73-13.07,15.43,4.94,10.33,11.54,15.67,26,15.8S169.88,81,170,72.47,145.08,56.65,130.59,56.48Z"/></svg>