<?xml version="1.0" encoding="UTF-8"?>
<svg id="Layer_1" data-name="Layer 1" xmlns="http://www.w3.org/2000/svg" viewBox="0 0 1334 1000">
  <defs>
    <style>
      .cls-1 {
        stroke-width: .14px;
      }

      .cls-1, .cls-2, .cls-3 {
        stroke: #000;
      }

      .cls-1, .cls-2, .cls-3, .cls-4, .cls-5, .cls-6 {
        stroke-miterlimit: 10;
      }

      .cls-2 {
        stroke-width: .14px;
      }

      .cls-3 {
        stroke-width: .14px;
      }

      .cls-4 {
        stroke-width: .5px;
      }

      .cls-4, .cls-5 {
        stroke: #4f2e25;
      }

      .cls-4, .cls-5, .cls-6 {
        fill: none;
      }

      .cls-7 {
        fill: #8c542a;
      }

      .cls-8 {
        fill: #101931;
      }

      .cls-9 {
        fill: #010101;
      }

      .cls-10 {
        fill: #1d3942;
      }

      .cls-11 {
        fill: #653c29;
      }

      .cls-12 {
        fill: #27153c;
      }

      .cls-13 {
        fill: #090706;
      }

      .cls-14 {
        fill: #f1eef7;
      }

      .cls-15 {
        fill: #3d4e83;
      }

      .cls-16 {
        fill: #745245;
      }

      .cls-17 {
        fill: #7d5443;
      }

      .cls-18 {
        fill: #a66e53;
      }

      .cls-19 {
        fill: #0a2f44;
      }

      .cls-20 {
        fill: #ce8d2a;
      }

      .cls-6 {
        stroke: #010101;
        stroke-width: .96px;
      }

      .cls-21 {
        fill: #212121;
      }

      .cls-22 {
        fill: #3d3d3d;
      }

      .cls-23 {
        fill: #fff;
      }

      .cls-24 {
        fill: #a66f54;
      }

      .cls-25 {
        fill: #0d0b09;
      }

      .cls-26 {
        fill: #df8c26;
      }

      .cls-27 {
        fill: #513835;
      }

      .cls-28 {
        fill: #67412f;
      }

      .cls-29 {
        fill: #151210;
      }

      .cls-30 {
        fill: #b15e27;
      }

      .cls-31 {
        fill: #4f3026;
      }

      .cls-32 {
        fill: #f2ebd1;
      }

      .cls-33 {
        fill: #24180f;
      }

      .cls-34 {
        fill: #628e9f;
      }

      .cls-35 {
        fill: #0a1722;
      }

      .cls-36 {
        fill: #825639;
      }

      .cls-37 {
        fill: #de8b27;
      }

      .cls-38 {
        fill: #381c13;
      }

      .cls-39 {
        fill: #de8c26;
      }

      .cls-40 {
        fill: #c85844;
      }

      .cls-41 {
        fill: #163f51;
      }

      .cls-42 {
        fill: #662117;
      }

      .cls-43 {
        fill: #5b481c;
      }

      .cls-44 {
        fill: #4f2e25;
      }

      .cls-45 {
        fill: #161312;
      }
    </style>
  </defs>
  <polyline class="cls-32" points="1397.36 1081.22 1397.36 -38.43 -84.07 -38.43 -84.07 1081.22"/>
  <path class="cls-17" d="M928.17,758.56h120.8c17.32,0,20.53,8.2,20.51,25,0,15.44-3.47,24.5-20.99,24.54-3.95,0-7.98.44-11.83-.08-11.59-1.56-13.92,2.73-12.4,11.69,14.82,87.44,29.29,168.91,44.09,256.36,1,5.96.09,8.31-7.92,8.41-19.99.25-20.41.64-23.18-15.71-9.45-55.78-18.65-111.59-27.6-167.44-1.21-7.6-4.3-9.88-13.31-9.82-45.78.38-91.58.38-137.38,0-8.78-.08-11.34,2.6-12.43,9.47-9.39,58.82-19.23,117.6-28.69,176.41-.89,5.49-3.57,7.11-9.93,7.21-20.6.31-21.16.46-18.51-16.03,9.59-59.8,19.57-119.56,29.47-179.33,4.21-25.41,8.4-44.81,12.99-70.18,1.42-7.85-.24-12.26-10.99-10.77-2.3.33-4.75-.09-7.09.07-30.89,2.19-28.37-19.87-26.58-40.28.7-7.92,8.89-9.78,17.79-9.74,41.06.2,82.11,5.1,123.16,5.1v-4.9ZM927.27,871.46c22.86,0,45.74-.18,68.59.11,7,.08,10.1-1.2,8.98-7.85-3.69-20.41-7.03-26.66-10.21-47.12-.96-6.2-3.53-8.83-11.83-8.72-36.26.46-72.54.53-108.83,0-8.98-.15-11.49,2.74-12.49,9.31-3.05,19.81-6.29,25.4-9.9,45.15-1.25,6.84.58,9.48,9.46,9.29,21.99-.53,44.08-.17,66.22-.17Z"/>
  <path class="cls-28" d="M818.98,889.32c-1.5,9.22-3.03,18.44-4.59,27.67,9.59,1.88,19.07,4.11,28.64,6.41,1.2-7.44,2.4-14.89,3.6-22.34,1.12-6.87,3.65-9.55,12.43-9.48,45.8.4,91.59.4,137.38,0,8.98-.08,12.09,2.24,13.29,9.81,1.16,7.24,2.32,14.47,3.49,21.69,9.18-3.31,18.17-7.12,26.93-11.43-5.24-30.22-10.48-60.65-15.71-91.85-.53-2.39-.55-4.86-.06-7.26-6.26.42-12.53.74-18.8.98-3.84.15-7.68.27-11.53.35.3.93.51,1.89.65,2.86,3.19,20.48,6.53,26.72,10.22,47.12,1.19,6.6-1.94,7.85-8.98,7.85-22.85-.28-45.73-.1-68.59-.1s-44.17-.33-66.19.16c-8.87.2-10.7-2.45-9.46-9.28,3.6-19.75,6.84-25.33,9.9-45.16.19-2.21.97-4.33,2.24-6.14-10.87-.34-21.74-.61-32.63-.73,1.48,1.91,1.54,4.91.84,8.74-4.64,25.33-8.87,44.73-13.08,70.14Z"/>
  <path class="cls-18" d="M899.53,949.73c-6.72,4.12-14.02,7.43-21.76,10.02-9.34,3.12-14.32-3.05-23.87-.6,14.06,30.6,19.55,59.33,19.55,59.33-15.14,13.65-55.16,51.1-55.16,51.1,0,0,8.96,14.62,25.46,10.06,16.49-4.56,76.26-56.12,76.26-56.12l-8.73-7.58-11.74-66.22Z"/>
  <path class="cls-24" d="M906.23,479.95s-14.72,23.17-15.85,25.11c-7.02,12.05-24.61,36.29-37.98,45.24-17.96,12.02-33.7,11.08-44.38-12.39-11.82-25.97,64.25-111.54,64.25-111.54l33.96,53.58Z"/>
  <path class="cls-17" d="M350.72,764.99h117.1c16.79,0,19.9,7.95,19.88,24.23,0,14.97-3.36,23.75-20.35,23.79-3.83,0-7.73.42-11.46-.08-11.23-1.51-13.5,2.64-12.02,11.33,14.37,84.77,28.4,163.73,42.74,248.51.97,5.78.09,8.06-7.68,8.16-19.38.24-19.78.62-22.47-15.23-9.16-54.07-18.08-108.18-26.75-162.31-1.17-7.36-4.17-9.58-12.9-9.52-44.38.37-88.77.37-133.17,0-8.52-.08-11,2.52-12.05,9.18-9.1,57.02-18.64,114-27.81,171.01-.86,5.32-3.46,6.9-9.63,6.99-19.97.3-20.51.45-17.95-15.54,9.3-57.97,18.97-115.9,28.57-173.84,4.08-24.63,8.15-43.44,12.59-68.03,1.38-7.61-.23-11.89-10.66-10.44-2.23.32-4.6-.09-6.87.07-29.94,2.12-27.5-19.26-25.76-39.04.67-7.68,8.61-9.48,17.25-9.44,39.81.2,79.6,4.95,119.39,4.95v-4.75ZM349.84,874.43c22.16,0,44.34-.17,66.49.11,6.79.08,9.79-1.16,8.7-7.61-3.58-19.78-6.82-25.84-9.9-45.68-.94-6.01-3.43-8.56-11.46-8.45-35.15.45-70.32.51-105.5,0-8.7-.14-11.14,2.65-12.1,9.03-2.96,19.21-6.1,24.62-9.59,43.76-1.21,6.63.57,9.19,9.17,9.01,21.32-.51,42.73-.16,64.19-.16Z"/>
  <path class="cls-28" d="M244.87,891.74c-1.45,8.94-2.93,17.88-4.45,26.82,9.3,1.83,18.49,3.98,27.77,6.21,1.17-7.21,2.33-14.43,3.49-21.65,1.09-6.66,3.53-9.26,12.05-9.19,44.39.38,88.79.38,133.17,0,8.7-.08,11.72,2.18,12.89,9.51,1.12,7.02,2.25,14.03,3.38,21.02,8.9-3.21,17.61-6.91,26.1-11.08-5.08-29.3-10.16-58.79-15.23-89.04-.51-2.32-.53-4.71-.05-7.04-6.07.41-12.14.72-18.23.95-3.72.15-7.45.26-11.18.34.29.91.5,1.83.63,2.77,3.09,19.85,6.33,25.91,9.91,45.68,1.15,6.39-1.88,7.61-8.7,7.61-22.15-.27-44.33-.1-66.49-.1s-42.82-.32-64.17.15c-8.6.2-10.38-2.37-9.17-8.99,3.49-19.14,6.63-24.56,9.59-43.78.19-2.14.94-4.19,2.18-5.95-10.54-.33-21.08-.59-31.63-.71,1.44,1.85,1.49,4.76.82,8.47-4.5,24.56-8.6,43.36-12.68,68Z"/>
  <path class="cls-17" d="M111.87,760.87h117.1c16.79,0,19.9,7.95,19.88,24.23,0,14.97-3.36,23.75-20.35,23.79-3.83,0-7.73.42-11.46-.08-11.23-1.51-13.5,2.64-12.02,11.33,14.37,84.77,28.4,163.73,42.74,248.51.97,5.78.09,8.06-7.68,8.16-19.38.24-19.78.62-22.47-15.23-9.16-54.07-18.08-108.18-26.75-162.31-1.17-7.36-4.17-9.58-12.9-9.52-44.38.37-88.77.37-133.17,0-8.52-.08-11,2.52-12.05,9.18-9.1,57.02-18.64,114-27.81,171.01-.86,5.32-3.46,6.9-9.63,6.99-19.97.3-20.51.45-17.95-15.54,9.3-57.97,18.97-115.9,28.57-173.84,4.08-24.63,8.15-43.44,12.59-68.03,1.38-7.61-.23-11.89-10.66-10.44-2.23.32-4.6-.09-6.87.07-29.94,2.12-27.5-19.26-25.76-39.04.67-7.68,8.61-9.48,17.25-9.44,39.81.2,79.6,4.95,119.39,4.95v-4.75ZM110.99,870.31c22.16,0,44.34-.17,66.49.11,6.79.08,9.79-1.16,8.7-7.61-3.58-19.78-6.82-25.84-9.9-45.68-.94-6.01-3.43-8.56-11.46-8.45-35.15.45-70.32.51-105.5,0-8.7-.14-11.14,2.65-12.1,9.03-2.96,19.21-6.1,24.62-9.59,43.76-1.21,6.63.57,9.19,9.17,9.01,21.32-.51,42.73-.16,64.19-.16Z"/>
  <path class="cls-28" d="M6.02,887.62c-1.45,8.94-2.93,17.88-4.45,26.82,9.3,1.83,18.49,3.98,27.77,6.21,1.17-7.21,2.33-14.43,3.49-21.65,1.09-6.66,3.53-9.26,12.05-9.19,44.39.38,88.79.38,133.17,0,8.7-.08,11.72,2.18,12.89,9.51,1.12,7.02,2.25,14.03,3.38,21.02,8.9-3.21,17.61-6.91,26.1-11.08-5.08-29.3-10.16-58.79-15.23-89.04-.51-2.32-.53-4.71-.05-7.04-6.07.41-12.14.72-18.23.95-3.72.15-7.45.26-11.18.34.29.91.5,1.83.63,2.77,3.09,19.85,6.33,25.91,9.91,45.68,1.15,6.39-1.88,7.61-8.7,7.61-22.15-.27-44.33-.1-66.49-.1s-42.82-.32-64.17.15c-8.6.2-10.38-2.37-9.17-8.99,3.49-19.14,6.63-24.56,9.59-43.78.19-2.14.94-4.19,2.18-5.95-10.54-.33-21.08-.59-31.63-.71,1.44,1.85,1.49,4.76.82,8.47-4.5,24.56-8.6,43.36-12.68,68Z"/>
  <path class="cls-17" d="M1231.96,744.76h120.8c17.32,0,20.53,8.2,20.51,25,0,15.44-3.47,24.5-20.99,24.54-3.95,0-7.98.44-11.83-.08-11.59-1.56-13.92,2.73-12.4,11.69,14.82,87.44,29.29,168.91,44.09,256.36,1,5.96.09,8.31-7.92,8.41-19.99.25-20.41.64-23.18-15.71-9.45-55.78-18.65-111.59-27.6-167.44-1.21-7.6-4.3-9.88-13.31-9.82-45.78.38-91.58.38-137.38,0-8.78-.08-11.34,2.6-12.43,9.47-9.39,58.82-19.23,117.6-28.69,176.41-.89,5.49-3.57,7.11-9.93,7.21-20.6.31-21.16.46-18.51-16.03,9.59-59.8,19.57-119.56,29.47-179.33,4.21-25.41,8.4-44.81,12.99-70.18,1.42-7.85-.24-12.26-10.99-10.77-2.3.33-4.75-.09-7.09.07-30.89,2.19-28.37-19.87-26.58-40.28.7-7.92,8.89-9.78,17.79-9.74,41.06.2,82.11,5.1,123.16,5.1v-4.9ZM1231.05,857.66c22.86,0,45.74-.18,68.59.11,7,.08,10.1-1.2,8.98-7.85-3.69-20.41-7.03-26.66-10.21-47.12-.96-6.2-3.53-8.83-11.83-8.72-36.26.46-72.54.53-108.83,0-8.98-.15-11.49,2.74-12.49,9.31-3.05,19.81-6.29,25.4-9.9,45.15-1.25,6.84.58,9.48,9.46,9.29,21.99-.53,44.08-.17,66.22-.17Z"/>
  <path class="cls-28" d="M1122.77,875.52c-1.5,9.22-3.03,18.44-4.59,27.67,9.59,1.88,19.07,4.11,28.64,6.41,1.2-7.44,2.4-14.89,3.6-22.34,1.12-6.87,3.65-9.55,12.43-9.48,45.8.4,91.59.4,137.38,0,8.98-.08,12.09,2.24,13.29,9.81,1.16,7.24,2.32,14.47,3.49,21.69,9.18-3.31,18.17-7.12,26.93-11.43-5.24-30.22-10.48-60.65-15.71-91.85-.53-2.39-.55-4.86-.06-7.26-6.26.42-12.53.74-18.8.98-3.84.15-7.68.27-11.53.35.3.93.51,1.89.65,2.86,3.19,20.48,6.53,26.72,10.22,47.12,1.19,6.6-1.94,7.85-8.98,7.85-22.85-.28-45.73-.1-68.59-.1s-44.17-.33-66.19.16c-8.87.2-10.7-2.45-9.46-9.28,3.6-19.75,6.84-25.33,9.9-45.16.19-2.21.97-4.33,2.24-6.14-10.87-.34-21.74-.61-32.63-.73,1.48,1.91,1.54,4.91.84,8.74-4.64,25.33-8.87,44.73-13.08,70.14Z"/>
  <path class="cls-18" d="M780.44,757.83c15.35,46.09,69.65,194,90.8,249.74,0,0,41.3,7.53,45.68-6.52,0,0-2.28-334.16-37.92-339.2-26.27-3.72-70.98,6.28-84.55,17.99-16.28,14.06-26.1,41.69-14.01,77.99Z"/>
  <path class="cls-18" d="M804.56,726.93s8.93-1.8,21.68-1.53c-2.47-5.62-3.31-9.81-3.31-9.81,1.18-1.42,2.44-2.88,3.75-4.36,7.3,1.79,14.43,4.26,21.35,7.21,8.05,3.43,15.83,7.51,23.27,12.16,7.16,4.48,14.01,9.53,20.32,15.18,1.79,1.6,3.53,3.26,5.22,4.96-.22.07,3.5-.51,3.29-.44,24.66,27.05,18.08,104.81,24.67,150.19,5.96,41.1,13.1,110.29,13.1,110.29-5.66,13.52-47.54-.03-47.54-.03-25.08-72.93-85.8-283.82-85.8-283.82Z"/>
  <path class="cls-44" d="M903.07,1032.78c-.35-1.01-.69-2.03-1.04-3.04-.99-2.89-1.98-5.78-2.96-8.68-1.54-4.5-3.07-8.99-4.6-13.49-2.01-5.89-4.01-11.79-6.02-17.68-2.38-6.99-4.75-13.98-7.12-20.97-2.68-7.9-5.35-15.8-8.03-23.71-2.87-8.49-5.74-16.98-8.6-25.48-3-8.91-6-17.83-8.98-26.74-3.02-9-6.03-18.01-9.03-27.02-2.97-8.93-5.94-17.86-8.89-26.79s-5.63-17.05-8.42-25.58c-2.6-7.95-5.19-15.9-7.76-23.86-2.27-7.05-4.53-14.11-6.76-21.17-1.88-5.95-3.73-11.9-5.55-17.86-1.4-4.61-2.78-9.23-4.09-13.86-.84-2.98-1.68-5.97-2.33-9-2.67-12.33-2.65-25.62,2.13-37.44,2.36-5.82,5.8-11.16,10.39-15.46,4.93-4.61,10.98-7.92,17.46-9.77s13.44-2.1,20.15-2.72c8.22-.76,16.44-1.51,24.66-2.27,1.6-.15,3.2-.29,4.8-.44.38-.04,1.57-.67.63-.59-5.66.52-11.31,1.04-16.97,1.56-7.43.68-14.86,1.37-22.29,2.05-10,.92-19.7,3.99-27.58,10.39-9.66,7.85-14.93,19.77-16.25,31.97-.95,8.73-.02,17.62,2.13,26.11.95,3.74,2.01,7.44,3.1,11.14,1.54,5.25,3.14,10.49,4.76,15.71,2.02,6.52,4.08,13.02,6.15,19.52,2.4,7.53,4.83,15.06,7.27,22.57,2.69,8.29,5.41,16.58,8.13,24.87,2.9,8.8,5.8,17.6,8.72,26.4,3.01,9.06,6.02,18.11,9.05,27.17s6.06,18.12,9.1,27.17c2.96,8.81,5.92,17.62,8.9,26.42,2.8,8.31,5.61,16.61,8.42,24.91,2.56,7.55,5.11,15.1,7.68,22.64,2.22,6.54,4.44,13.07,6.67,19.61,1.79,5.27,3.59,10.55,5.39,15.82,1.28,3.76,2.56,7.51,3.85,11.27.68,1.98,1.36,3.97,2.04,5.95.09.25.17.5.26.75.12.34,1.55-.09,1.45-.39h0Z"/>
  <path class="cls-41" d="M879.38,632.94s-76.59,18.21-91.7,36.63c-15.11,18.41-16.57,51.47-16.57,66.42s3.93,163.1,3.93,163.1c0,0,14.23,20.93,37.8,17.94,23.56-2.99,24.22-14.2,46.8-8.22,22.57,5.98,25.81,12.71,43.2,12.71s34.9-5.98,34.9-5.98c0,0-4.39-131.76,0-157.17,4.39-25.41-58.36-125.43-58.36-125.43Z"/>
  <path class="cls-18" d="M1240.36,319.24c-24.68,11.53-52.26,10.5-72.68-7.16,5.46-2.81,5.27-7.91,5.6-9.09,1.21-4.38.84-34.36.84-34.36l77.53-25.02s-5.46,47.14.42,61.94c.31.79,2.9,4.32,4.84,5.98-4.63,3.94-10.98,5.1-16.55,7.7Z"/>
  <path class="cls-18" d="M1250.12,245.33s-2.79,46.32,2.85,62.01c1.37,3.81,25.38,15.08,25.38,15.08l-96.18,48.29-48.57-40.22s37.24-17.27,38.61-21.84c1.37-4.57.08-39.01.08-39.01"/>
  <path class="cls-18" d="M645.49,341.22l10.67-15.81s24.18-10.59,32.61-19.5c5.85-6.67,10.75-14.12,14.55-22.14l19.54-19.92s13.23-3.74,12.36-7.96c-.87-4.22-6.19-4.13-11.35-4.03-5.16.1-72.27,25.3-72.27,25.3,2.94-6.82,6.46-13.37,10.52-19.59,6.3-9.51,4.15-17.57-2.04-16.75-3.81.51-12.85,11.28-15.85,18.54-2.52,6.11-13.57,13.62-18.59,24.09-5.02,10.48-.52,25.66-.52,25.66-1.95,5.88-6.45,13.52-6.45,13.52,5.29,9.88,26.82,18.58,26.82,18.58Z"/>
  <path class="cls-44" d="M718.61,267.76c.28-.9-1.56-2.1-2.12-2.41-1.26-.7-2.76-1.05-4.19-.88-2.73.32-5.43,1.34-7.88,2.54-2.21,1.09-4.32,2.39-6.3,3.86-.65.49-1.3.99-1.91,1.53-.16.15-.65.46-.66.72.03.05.07.07.13.08,1.18.23,2.44-1.26,3.17-1.92l-1.31.13c-2.62,2.51-5,5.27-7.03,8.28s-4.1,6.3-5.24,9.81c-.08.23,1.31.09,1.43-.27,1.1-3.39,3.03-6.51,5-9.46s4.47-5.93,7.16-8.5c.28-.27-1.06-.09-1.31.13-.42.38-.84.76-1.28,1.12-.19.16-.78.46-.23.26l.84-.13c.43.09,1.57-1.17,2-1.5,1.5-1.16,3.09-2.21,4.75-3.14,2.06-1.16,4.25-2.15,6.55-2.71,1.61-.39,3.08-.39,4.6.35.63.31,1.21.7,1.69,1.21.15.16.81.83.71,1.16-.07.24,1.32.09,1.43-.27h0Z"/>
  <path class="cls-44" d="M696.43,272.85c-.48-.7-2.09-.03-2.67.15-1.56.48-3.1,1.06-4.63,1.64-3.29,1.24-6.53,2.6-9.68,4.17-.96.48-1.93.97-2.82,1.56-.36.24-.98.62-.87,1.14.15.68,1.6.3,1.45-.39.11.5-.19.21.04.17.11-.02.31-.22.41-.29.36-.24.74-.44,1.12-.65,1.14-.61,2.3-1.18,3.48-1.72,1.65-.77,3.32-1.5,5.02-2.17,1.56-.62,3.13-1.22,4.72-1.78.77-.27,1.54-.54,2.32-.77.28-.08.56-.15.84-.22.46-.11.16.1-.04-.2.37.55,1.75-.01,1.33-.64h0Z"/>
  <path class="cls-34" d="M492.98,439.65l52.13,15.69,76.76-145.03c6.82,9.35,28.06,18.71,42.25,24.44,0,0-49.38,145.98-56.01,161.47-23.46,54.78-50.95,80.5-74.13,70.17-13.35-5.95-86.99-60.65-88.72-74.42-.39-3.14,48.33-52.51,47.72-52.32Z"/>
  <path class="cls-34" d="M461.9,276.6s54.77,34.38,68.59,51.88c17.67,22.38,30.67,147.11,36.29,170.84,5.62,23.73-36.42,2.35-36.42,2.35l-71.62-16.05-5.07-46.63,12.67-145.95-4.43-16.45Z"/>
  <path class="cls-18" d="M554.34,743.32l3.08,41.88-9.48,18.43-12.52,16.62-31.46,19.51s-4.73-1.65.94-8.86c5.45-6.26,11.44-12.18,17.9-17.71l5.77-20.57-3.96-9.94-6.12.23s-1.9,26.54-6.67,31.3c-.83.82-1.53,1.51-2.12,2.07-1.66,1.58-4.3,1.38-5.73-.41l-2.11-2.65,4.18-39.3s4.77-16.9,6.48-20.81c2.16-3.8,5.72-9.23,8.56-12.71l1.28-5.36,31.31,2.82.69,5.47Z"/>
  <path class="cls-25" d="M1349.97,527.56c-9.78,13-18.9,26.85-25.61,41.71-3.59,7.94-5.99,16.22-7.34,24.83-1.46,9.31-1.87,18.74-2.24,28.15-.51,12.89-.84,25.79-1.16,38.68-.37,15.1-.68,30.21-.98,45.31-.27,13.34-.52,26.67-.81,40.01-.03,1.33-.06,2.65-.09,3.98-.01.59,1.44.29,1.45-.18.29-12.78.53-25.56.79-38.33.3-15.1.61-30.21.96-45.31.31-13.32.64-26.64,1.12-39.95.63-17.32,1.05-35.15,7.31-51.54,2.95-7.71,6.85-15.05,11.04-22.15s8.79-14.03,13.63-20.73c1.08-1.49,2.17-2.97,3.27-4.44.39-.51-1.06-.4-1.35-.03h0Z"/>
  <path class="cls-18" d="M449.75,265.55l-73.1-19.81-17.84,22.4s16.38,23.75,18.34,25.19c1.96,1.44,49.65,25.21,49.65,25.21,0,0,61.66-4.17,60.85-4.23-.81-.06-37.91-48.76-37.91-48.76Z"/>
  <path class="cls-18" d="M383.62,188.95s4.97,34.26-15.89,60.65c-2,2.54-19.49,12.57-19.49,12.57l22.46,3.21c16.02,7.52,53.72,15.7,71.12,14.18l15.3-4.68s-16.36-7.5-16.4-11.31c-.04-3.81,9.02-30.47,9.02-30.47"/>
  <path class="cls-36" d="M379.35,202.18c-.01.09-.01.17-.02.27-.02-.12-.02-.21.02-.27Z"/>
  <path class="cls-18" d="M433.15,265.26l30.05,3.79,15.49-.93c1.51.28,11.57-13.57,12.93-15.34,4.2-5.5,8.72-13.1,11.77-19.32,3.27-6.67,8.7-12.02,11.15-20.29,1.8-6.06,2.53-10.38.88-21.01-.42-2.7-.03-5.26,1.06-7.9,2.3-5.57,3.9-12.27,6.81-19.77.23-.59,1.43-3.42,1.3-4.13,0,0,6.72-32.16,2.78-44.7-3.94-12.55-7.81-21.81-15.97-25.41-8.16-3.6-37.54-3.72-37.54-3.72l-33.92-10.72-31.94,9.73-20.92,33.39-4.73,41.99-1.7,37.92"/>
  <path d="M491.57,180.84s9.14-6.17,14.84-5.61c8.32.83,10.06,3.08,12.24,7.38,0,0-4.6-4.95-10.48-5.38-5.62-.41-16.6,3.6-16.6,3.6Z"/>
  <path d="M464.02,175.01s-9.78-9.4-15.23-10.61c-7.96-1.76-18.43,1.23-21.76,4.67,0,0,13.94-4.69,19.52-3.29,5.33,1.33,17.48,9.23,17.48,9.23Z"/>
  <path d="M473.15,138.75c-.13,1.98-.27,3.97-.4,5.96-.11,1.52-.23,4.98-.34,6.49-5.03-1.61-9.51-3.81-12.78-4.57-6.48-1.51-13.09-3.47-19.78-2.93-3.2.26-6.04.84-8.78,2.21-.87.43-3.26,2.38-4.47,1.76-.5-.25.5-2.64.6-2.89,2.04-4.82,6.64-6.58,12.19-7.4,11.31-1.68,22.51-.7,33.76,1.37"/>
  <path d="M526.99,156.39s-2.5-1.88-2.52-1.9c-7-5.32-15.02-8.18-23.52-10.07-.73,1.85-1.45,3.7-2.18,5.56-.55,1.42-1.63,3.94-2.17,5.35,4.08.22,7.75.03,10.29.44,5.03.8,10.34,1.58,14.67,4.32.34.22,2.18,1.42,2.5,1.65,2.49-1.97,3.44-4.69,2.95-5.35Z"/>
  <path class="cls-29" d="M455.64,240l21.3,2.79s-6.48,7.27-11.63,6.33c-3.22-.59-6.9-4.86-9.67-9.11Z"/>
  <g>
    <path class="cls-9" d="M478.11,212.45c-2.64.85-6.25-.13-8.39-2.11-.48-.44-2.33-.44-1.66.18,2.83,2.62,8.06,3.77,11.47,2.68.34-.11.33-.36-.03-.56-.38-.21-1.02-.3-1.38-.18"/>
    <path class="cls-9" d="M467.13,209.62c-1.47-1.08-3.21-1.83-4.99-2.3-.26-.07-.62-.03-.85.11-.18.11-.24.29-.07.44.74.64,1.77,1.04,2.75,1.2.31.05.73.05.95-.19.21-.22-.06-.44-.3-.48-.81-.13-1.6-.45-2.22-.98-.31.19-.61.37-.92.56,1.59.42,3.14,1.11,4.46,2.07.26.19.69.18.98.07.21-.08.47-.32.21-.51"/>
    <path class="cls-9" d="M459.91,208.53c-2.11-.44-4.42-1.84-5.16-3.66-1.12-2.75,1.05-6.29,3.98-7.38.32-.12.21-.37-.07-.48-.36-.15-.84-.09-1.17.03-2.55.95-4.62,3.79-4.7,6.16-.07,2.22,1.67,4.1,4.09,5.19.72.32,1.5.6,2.29.76.32.07.91.07,1.12-.15.21-.23-.07-.4-.37-.46"/>
    <path class="cls-9" d="M482.18,212.06c-.07-.27.17-.39.34-.36.57.12,1.18.06,1.74-.25.14.27.29.54.43.8-1.17-.08-2.39.09-3.54.6-.23.1-.51-.04-.66-.23-.11-.14-.21-.44.02-.55"/>
    <path class="cls-9" d="M480.52,212.08c1.29-.57,2.65-.75,3.95-.66.19.02.42.16.52.36.08.16.07.35-.09.44"/>
    <path class="cls-9" d="M486.53,213.16c1.39.2,3.18-.45,4.15-1.95,1.47-2.27,1.06-5.37-.37-7.26-.16-.21-.02-.41.19-.44.26-.04.53.16.69.37,1.25,1.65,1.81,4.05,1.16,6.32-.61,2.12-2.2,3.38-3.96,3.7-.52.09-1.07.12-1.59.05-.21-.03-.57-.2-.62-.47-.06-.28.16-.36.35-.33"/>
  </g>
  <path class="cls-4" d="M452.61,126.09s33.4,1.1,54.92,9.56"/>
  <g>
    <g>
      <path d="M527.68,112.82c-.53.86-.76,1.86-.09,2.53.4.4,1.08.73,1.54,1.07-.14-1.38-.56-2.68-1.45-3.6Z"/>
      <path d="M526.98,112.72c-.44.73-.75,1.68-.36,2.5s1.28,1.14,1.96,1.64c.47.34,1.34-.01,1.28-.63-.14-1.35-.56-2.74-1.52-3.74-.25-.26-.67-.31-.99-.13-.23.12-.6.51-.33.79.22.23.41.48.58.75.08.13.16.27.23.42.04.09-.03-.07,0,.02.02.03.03.07.05.1.03.08.07.16.1.24.24.62.36,1.28.43,1.95l1.28-.63c-.31-.23-.65-.42-.97-.63-.15-.1-.3-.2-.44-.32-.03-.03-.07-.06-.1-.09.06.06,0,0-.02-.03-.06-.07-.1-.14-.15-.22-.04-.07.04.11-.01-.03-.01-.03-.02-.06-.03-.1-.02-.08-.04-.16-.05-.25.02.11,0,0,0-.03,0-.04,0-.09,0-.13,0-.09.02-.18.03-.27,0-.01.03-.15.02-.09-.02.06.03-.09.03-.09.03-.09.06-.18.1-.27.08-.18.17-.36.28-.53.19-.31-.17-.62-.45-.66-.39-.04-.74.12-.94.46Z"/>
    </g>
    <g>
      <path d="M530.03,108.35c-.48-1.09-2.03-1.38-2.53-2.47-.56-1.23.56-2.61.43-3.96-.17-1.79-2.29-2.59-4.04-2.99,1.31-1.17.95-3.65-.63-4.41-.64-.3-1.45-.4-1.82-1.01-.55-.9.34-2.26-.36-3.05-.47-.53-1.34-.41-2-.65-.09-.45-.18-.89-.27-1.34-.15-.1-.29-.2-.44-.3.2-.86.71-1.83.43-2.66-.3-.86-1.34-1.27-2.28-1.67.14-.24.34-.44.62-.59-.78.19-1.46.03-2.1-.33-.16-.23-.23-.5-.15-.84l-.15.67c-2.04-1.39-3.59-4.81-6.23-5.15-1.03-.13-2.05.25-3.08.27-2.69.06-5.06-2.73-4.55-5.37-2.78,1.06-5.99.95-8.7-.28l-.53.09c-1.22-1.93-3.35-3.88-4.72-3.75-2.07.2-4.21,1.08-6.16.36-2.33-.86-3.75-3.81-6.23-3.82-1.45,0,1.85,2.11.4,1.98-2.07-.19-3.25-2.68-5.28-3.14-2.55-.57-4.98,2.31-7.5,1.6-1.62-.45-2.54-2.24-4.1-2.86-3.1-1.24-6.86,2.63-9.67.81-1.2-.78-1.69-2.38-2.93-3.11-2.87-1.69-5.86,3.46-9.08,2.62-1.98-.52-3.26-2.87-5.31-2.88-2.23-.01.71,2.76-1.52,2.64-1.24-.07-2.26-1.08-3.5-1.24-3.37-.46-5.19,4.17-8.56,4.58-1.56.19-3.13-.81-4.65-.4-1.87.5-2.74,2.86-4.34,3.78-.2.08-.39.17-.59.26-.1.03-.21.06-.32.08-1.48.25-2.95-.88-4.42-.57-2.34.5-3.24,4.29-5.62,4.05-1.07-.1-2.13-1.08-3.09-.59-.94.48-.79,1.82-1,2.85-.42,2.06-3.1,3.28-4.93,2.24-.32.83-1.24,3.41-2.09,5.79l.28-1.14c-.6-1-2.27-.5-2.84.52-.57,1.01-.52,2.26-.86,3.37-.72,2.36-3.44,3.91-5.84,3.32,1.4,3.24,2.41,7.85-.65,9.61-.74.43-1.64.6-2.29,1.15-1.08.9-1.19,2.58-.63,3.87.55,1.29-.89,1.32.15,2.27-2.22,1.47-4.75,3.99-3.5,6.34.69,1.29-2.18,1.13-2.37,2.58-.22,1.7-.21,2.8-1.32,4.1-.92,1.08-.65,2.82.23,3.94.88,1.12-2.24,1.83-.96,2.45.35,1.96-.05.54-1.37,2.03-1.17,1.31-.83,5.54.79,6.21s1.41-.46,2.49.92c-1.96.79-4.31,2.29-3.83,4.35.46,1.96,2.98,2.3,4.74,3.37-.03.93-.06,1.88-.09,2.89-1.11.54-2.58.9-3.24,1.92-.7,1.09-.15,2.63.86,3.45.83.67,1.88.98,2.93,1.21,1.75,5.1,5.06,16.97,7.84,27.26l12.79,2.35-.04.78c.91.23,1.83.45,2.74.68.28.07.59.14.86.02.67-.29.44-1.26.35-1.99-.21-1.68.91-3.19,1.83-4.62.91-1.42,1.66-3.32.73-4.74-.49-.75-1.42-1.32-1.4-2.22.02-1.17,1.53-1.57,2.42-2.32,1.38-1.18.99-3.8-.68-4.52,0,0,2.32-1.94,2.19-6.41-.13-4.48-.79-9.33-.79-9.33h0c.31-.28.61-.56.84-.9,1.72-2.46-.24-6.16,1.26-8.76.68-1.17,1.96-1.91,2.53-3.13,1.1-2.33-.85-5.1-.25-7.61.68-2.81,4.42-4.76,3.69-7.56-.36-1.37-1.74-2.3-2.03-3.68-.49-2.41,2.51-5.08.99-7.01-.53-.67-1.48-.95-1.89-1.7-.82-1.51,1.09-2.96,1.96-4.44.9-1.53.67-3.46,1.11-5.18.44-1.72,2.33-3.42,3.84-2.47-.36-1.83.59-5.42,2.06-7.62l5.82-1.13c.2,0,.39-.04.57-.11l17.04-3.32c.75.3,1.51.5,2.32.46.9-.04,1.79-.62,2.27-1.36l2.17-.42c.91.59,1.88,1.07,2.94,1.29,1.87.38,4.11-.31,4.86-2.06.14,2.72,4.06,4.3,6.04,2.44.79-.74,1.42-1.93,2.51-1.91.48,0,.92.28,1.31.57,1.27.93,2.55,4.44,3.45,7.05.09,1.03.31,1.87.83,2.37.43.17,3.18,1.29,6.34,2.52-.5.59-.45,1.44.46,1.9,1.21.61,3.21.25,3.98,1.12.84.96-1.21,1.83-.79,2.87.26.65,1.36,1.03,2.02,1.58.79.65.95,1.52,1.68,2.2.74.69,2.09,1.1,3.23.98,1.17.29,2.83.07,3.07.94.06.23-.03.46-.08.69-.2.89.4,1.91,1.44,2.45,1.04.54,2.45.58,3.4.08.92-.48,1.38-1.38,2.35-1.81.31-.13.66-.22,1.01-.31.25.32.59.61.99.82,1.04.54,2.45.58,3.4.08.92-.48,1.38-1.38,2.35-1.81.82-.36,1.98-.39,2.46-1.01.76-.99-.85-2.67.27-3.42,1.02-.68,2.78.43,4.13.19.53-.09.87-.39,1.05-.76,2.6-.7,5.63-2.95,9-3.33.08.04.15.08.23.12-.15.39-.36.76-.35,1.17.06,1.88,3.81.81,4.57,2.53.57,1.29-1.2,2.99-.25,4.04.45.5,1.23.44,1.88.58,1.13.24,2.05,1.26,2.18,2.41.09.86-.2,1.78.17,2.56.45.95,1.63,1.23,2.51,1.79.28.18.52.38.73.6.23-.37.5-.72.79-1.01.96-.96,2.11-2.23,1.57-3.47Z"/>
      <path d="M530.76,108.16c-.68-1.25-2.6-1.57-2.68-3.15s1.19-2.9.17-4.38c-.36-.53-.91-.9-1.48-1.19-.23-.12-1.84-.5-1.96-.69-.09-.16.46-.96.53-1.22.15-.61.1-1.26-.14-1.84-.2-.5-.54-.96-1-1.25-.62-.41-1.6-.42-2.03-1.1-.71-1.12.67-2.75-.93-3.43-.3-.13-.66-.09-.95-.2-.52-.21-.5-.4-.66-.96-.12-.44-.4-.63-.45-1.06-.04-.33.28-.84.34-1.16.12-.65.11-1.21-.34-1.74-.2-.24-.47-.42-.74-.58-.24-.14-1.47-.45-.75-.93.45-.3-.19-.28-.41-.24-.86.15-1.76-.2-1.66-1.13.02-.16-1.37.01-1.44.33l-.15.67,1.4-.37c-2.17-1.58-3.51-4.86-6.44-5.18-.96-.11-1.85.18-2.79.25-1.05.07-2.02-.27-2.83-.92-1.32-1.05-2-2.68-1.76-4.35.03-.2-.94.05-.97.06-1.96.7-4.05.75-6.06.22-1.12-.29-1.68-.71-2.79-.52l.58.04c-1.09-1.66-2.91-3.96-5.13-3.82-1.67.1-3.35.86-5.04.58-1.35-.23-2.36-1.11-3.34-1.99-1.28-1.14-2.81-2.47-4.66-1.93-.38.11-.8.23-.75.67.03.26.85,1.2,1.04,1.3l.05.1c.07.3.3.22.68-.25,0,0-.77-.29-.89-.36-.46-.25-.86-.6-1.25-.93-.86-.73-1.69-1.55-2.83-1.8-2.09-.46-3.97.85-5.84,1.5-2.78.96-4.07-2.63-6.61-2.98-1.97-.27-3.86.67-5.69,1.23-1.45.44-2.69.34-3.75-.81-.8-.87-1.33-2.07-2.45-2.59-1.38-.64-3.07,0-4.32.68-.84.46-1.62,1.04-2.45,1.52-1.41.81-2.53.56-3.8-.37-1.52-1.12-2.94-2.5-4.96-1.82-.47.16-.86.35-.93.87-.04.29.09.58.15.85.04.22.13.75.13.74-.07.07-2.76-1.24-3.37-1.28-.82-.06-1.66.12-2.42.42-1.8.7-3.01,2.23-4.53,3.35-.82.6-1.43.91-2.5.79-.66-.07-1.29-.3-1.95-.4-.96-.14-1.93-.05-2.83.32-.99.41-1.7,1.16-2.39,1.96-.45.52-.87,1.11-1.42,1.52-.86.64-1.8.16-2.72-.08-2.13-.54-3.89.16-5.3,1.78-.41.47-.78.98-1.22,1.43-.73.74-1.29.6-2.26.27s-1.83-.42-2.77.03c-1.02.49-1.07,1.46-1.22,2.47-.26,1.8-1.61,3.45-3.61,2.45-.27-.14-1.28.06-1.4.37-.73,1.92-1.4,3.86-2.09,5.79l1.42-.27c.19-.79.56-1.44-.45-1.76-.86-.27-2.06.13-2.77.62-1.16.79-1.2,2.19-1.45,3.45-.45,2.23-2.26,4.12-4.69,3.62-.17-.03-1.44.18-1.32.46.86,2.02,1.62,4.35,1.28,6.58-.17,1.14-.73,2.24-1.75,2.84s-2.18.75-2.89,1.75c-.57.81-.66,1.91-.42,2.85.13.52.43.96.27,1.51-.07.25-.31.45-.3.73.02.47.34.4,0,.84-.36.46-1.05.81-1.49,1.23-.83.8-1.63,1.77-1.88,2.92-.1.45-.11.9,0,1.35.1.39.48.8.3,1.21-.23.54-1.51.75-1.96,1.19-.61.59-.51,1.46-.64,2.25-.1.6-.24,1.2-.53,1.74-.34.63-.88,1.1-1.08,1.79-.37,1.28.26,1.99.7,3.08.32.8-.31,1.02-.85,1.52-.46.42-.37.42-.23.88.11.36.14,1.31.58.9-.2.19-.71.24-.97.39-1.67,1-1.78,3.24-1.37,4.95.2.82.56,1.69,1.35,2.09.4.2.84.24,1.28.27.64.04.69.01,1.18.61l.31-.26c-1.86.78-5.23,2.61-3.95,5.15.5,1,1.61,1.49,2.58,1.92.47.21,1.4.42,1.74.8.5.55.16,2.31.14,3l.31-.26c-1.18.55-2.8.95-3.54,2.13s-.11,2.72.89,3.55c.59.49,1.32.77,2.04.99.87.26.97.5,1.23,1.3.43,1.33.84,2.66,1.25,4,2.21,7.34,4.21,14.74,6.22,22.13.03.05.07.07.13.07,2.29.42,4.59.84,6.88,1.27l4.39.81c.37.07.89.07,1.24.23.05.02.23,0,.27.05-.12-.15-.15.64-.15.71.03.05.07.07.13.07,1.37.34,3.66,1.4,4.96.29.46-.39.45-.89.39-1.47-.11-1.13-.04-2.05.49-3.1.88-1.73,2.5-3.33,2.42-5.42-.07-1.93-3.2-3.3-.86-4.92,1.18-.82,2.32-1.4,2.3-3.04,0-.68-.24-1.36-.68-1.88-.15-.17-.73-.47-.77-.53-.13-.21-.1.18.01-.13.09-.27.5-.58.67-.82.35-.52.63-1.09.85-1.68.68-1.84.62-3.76.51-5.69-.11-2.04-.3-4.08-.53-6.11-.04-.37-.24-.96-.16-1.32.07-.33.74-.79,1-1.23.89-1.56.54-3.48.49-5.17-.03-.96,0-1.94.37-2.84.41-.98,1.22-1.64,1.91-2.41,1.4-1.57,1.29-3.22.88-5.17s-.58-3.74.64-5.53c.89-1.31,2.23-2.46,2.71-4.01.57-1.84-.75-2.95-1.58-4.42-1.1-1.94.31-3.73.85-5.59.21-.71.3-1.48-.09-2.15-.49-.84-1.58-1.09-2.05-1.94-.54-.98.17-1.99.76-2.76.71-.94,1.41-1.77,1.71-2.93s.27-2.34.52-3.5c.23-1.08,1.13-3.19,2.52-2.47.21.11,1.46-.09,1.41-.43-.41-2.54.7-5.46,2.05-7.56l-.85.37c6.58-1.28,13.17-2.56,19.75-3.84,1.23-.24,2.45-.48,3.68-.72h-.54c2.11.79,4.53.66,5.98-1.27l-.85.37,2.17-.42h-.54c1.66,1.04,3.43,1.67,5.4,1.32,1.55-.28,3.07-1,3.8-2.46l-1.44.33c.4,4.01,5.75,4.01,7.94,1.62.55-.6.8-1.15,1.66-.69.46.25.8.68,1.09,1.1.7,1.04,1.18,2.23,1.64,3.39.49,1.26.83,2.45,1.14,3.74.23.95.56,1.33,1.39,1.67,1.03.42,2.07.83,3.1,1.24.49.2,1.74.43,2.11.83.4.43-.05.83.19,1.39.65,1.48,5.59.74,4.7,2.71-.29.63-1.11,1.13-.84,1.93.34.98,1.9,1.31,2.52,2.1.69.87.98,1.74,2.03,2.26,1,.49,2.05.44,3.12.57.56.07,1.47.01,1.95.33.64.43.19,1.09.27,1.73.15,1.12,1.24,1.89,2.24,2.18,1.06.3,2.25.2,3.28-.18,1.34-.5,2.08-1.83,3.47-2.19h-.78c1.19,1.38,3.07,1.58,4.74,1.08.95-.28,1.6-.83,2.32-1.49.88-.8,1.97-.77,2.95-1.33.62-.36.92-.81.84-1.54-.1-.92-.92-2.39.7-2.05,1.5.32,3.57.64,4.55-.9l-.66.33c1.41-.41,2.71-1.03,4.03-1.66.85-.4,1.71-.8,2.6-1.12.44-.15,1.37-.7,1.67-.11,0,0-.21.83-.2.85.12,2.01,3.69.94,4.52,2.43.62,1.14-.6,2.28-.48,3.43.15,1.53,2.21,1.07,3.15,1.73.66.46,1.08,1.16,1.19,1.96.13.96-.27,1.95.32,2.83.71,1.05,2.22,1.3,3.12,2.17.24.23,1.24-.14,1.4-.37.91-1.37,2.97-2.63,2.37-4.53-.09-.29-1.53.12-1.45.39.58,1.85-1.45,3.07-2.34,4.41l1.4-.37c-.75-.73-1.73-.98-2.54-1.61-1.28-.98-.55-2.32-.88-3.65-.24-.95-.99-1.73-1.91-2.05-1.07-.37-2.62-.21-2.31-1.8s1.26-3.09-.74-3.79c-1.63-.57-4.04-.19-3.01-2.69.03-.04.02-.08-.03-.1-.82-.44-2.22.12-3.04.38-1.31.4-2.55.97-3.78,1.55s-2.46.95-3.64,1.52c-.62.3-.87.5-1.57.35-.58-.12-1.17-.29-1.77-.28-.68.01-1.67.19-2.14.74-.62.71-.02,1.59.05,2.39.12,1.37-1.96,1.43-2.92,2.04-.86.55-1.4,1.58-2.55,1.63-.94.04-1.88-.48-2.48-1.17-.16-.18-.6-.05-.78,0-.58.15-1.15.31-1.68.6-.65.35-1.05.99-1.66,1.36-1.08.65-2.39.43-3.31-.39-.79-.71-.75-1.31-.7-2.27.06-1.15-1.21-1.15-2.08-1.26-1.44-.17-3.11-.05-4.25-1.11-.58-.54-.83-1.32-1.37-1.9-.42-.45-.96-.71-1.47-1.04-.71-.47-1.07-.88-.65-1.69.23-.43.74-.8.8-1.31.24-2.24-6.61-.77-4.62-3.62.03-.04.02-.08-.03-.1-1.55-.61-3.11-1.22-4.66-1.84-.88-.35-1.77-.51-2.16-1.45-.3-.72-.3-1.52-.56-2.25s-.53-1.48-.82-2.21c-.48-1.21-.99-2.52-1.81-3.55-1.29-1.63-3.34-1.51-4.75-.11-.41.41-.74.99-1.24,1.3-.8.49-1.77.24-2.54-.16-1.07-.56-1.79-1.51-1.91-2.72-.03-.28-1.33.12-1.44.33-.92,1.86-2.86,2.03-4.62,1.34-.84-.33-1.53-1.05-2.45-.92-.67.1-1.36.23-2.02.39-.24.06-.51.1-.72.24-.17.12-.21.24-.38.39-.86.78-1.6.68-2.59.4-.78-.22-1.32-.06-2.11.09l-4,.78c-5.11.99-10.22,1.99-15.33,2.98-.98.19-2.97.21-3.77.94-.92.85-1.41,2.79-1.72,3.95s-.56,2.49-.35,3.73l1.41-.43c-1.32-.68-3.02-.1-4.04.87-1.84,1.75-1.14,4.26-1.96,6.42-.58,1.53-3.29,3.41-2.32,5.23.46.86,1.55,1.1,2.05,1.94s.19,1.88-.14,2.75c-.7,1.83-1.61,3.45-.43,5.3.53.83,1.28,1.56,1.49,2.56s-.17,1.89-.7,2.71c-1,1.53-2.56,2.81-3,4.65-.53,2.19.79,4.28.55,6.47-.16,1.51-1.24,2.33-2.18,3.39-.74.84-1.14,1.77-1.25,2.88-.27,2.7.83,5.49-1.46,7.58-.05.05-.11.11-.03.17.23.17.27,2.57.31,2.95.21,2.03.38,4.08.43,6.12.06,2.16-.34,5-2.11,6.51-.04.04-.12.12-.03.17.94.48,1.47,1.42,1.48,2.47.01,1.41-.88,1.96-1.95,2.65-.6.39-1.31.88-1.31,1.68-.01,1.17,1.4,1.83,1.71,2.9.8,2.72-2.17,4.86-2.77,7.29-.13.51-.14,1-.08,1.52.03.31.17,1.34.04,1.41-.06.03-1.74-.48-2-.55-.65-.19-.55-.28-.52-.88-.03-.05-.07-.07-.13-.07-1.77-.33-3.54-.65-5.31-.98l-4.13-.76c-.91-.17-2.03-.2-2.89-.53-.1-.04-.38,0-.45-.08.02.02-.09-.7-.11-.77-.07-.35-.19-.71-.29-1.06-.17-.64-.35-1.28-.52-1.92-.7-2.56-1.4-5.12-2.12-7.68-1.18-4.23-2.37-8.45-3.67-12.65-.26-.83-.52-1.65-.79-2.47-.09-.26-.13-.57-.35-.72-.13-.09-.6-.14-.79-.19-.48-.14-.96-.31-1.4-.55-1.04-.58-1.93-1.7-1.78-2.96.18-1.57,2.02-1.98,3.22-2.54.1-.05.31-.12.31-.26.03-.96.06-1.93.09-2.89l-.04-.04c-1.43-.82-3.68-1.21-4.51-2.78-1.18-2.26,1.63-3.91,3.32-4.62.03-.01.39-.18.31-.26-.26-.31-.51-.66-.91-.78-.55-.16-1.05.1-1.62-.19-1.03-.51-1.32-1.92-1.42-2.96-.11-1.18-.03-2.87,1.11-3.57.65-.41,1.13-.24,1.01-1.18-.06-.47-.45-.68-.24-1.05.19-.34.73-.52.99-.84.23-.29.35-.51.24-.86-.24-.78-.82-1.25-.89-2.15-.08-.97.37-1.59.89-2.34.41-.6.64-1.26.77-1.97s.03-1.64.45-2.19c.33-.44.94-.58,1.41-.84,1.39-.76.41-1.29.41-2.58,0-2.16,2.15-3.83,3.76-4.93.08-.05.09-.11.03-.17-.6-.62-.11-.8,0-1.46.12-.76-.45-1.56-.44-2.36.02-1.38.7-2.15,1.93-2.7.75-.34,1.47-.64,2.07-1.23,2.35-2.35,1.01-6.5-.1-9.11l-1.32.46c2.16.44,4.69-.33,6.16-2,1.06-1.2,1.07-2.54,1.44-4.02.09-.34.18-.79.4-1.08.26-.35,1.22-.93,1.4-.2.06.24-.2.84-.26,1.09s1.31.05,1.42-.27c.69-1.93,1.36-3.87,2.09-5.79l-1.4.37c1.55.78,3.6.38,4.97-.63.69-.51,1.18-1.2,1.36-2.03.14-.62.09-1.28.29-1.88.33-.98.96-.37,1.67-.13,1.6.53,3.2-.08,4.33-1.26.65-.68,1.19-1.64,1.96-2.19,1.31-.93,2.86.24,4.3.21,1.99-.04,3.23-1.3,4.43-2.71.61-.71.98-1.21,1.92-1.37s1.69.14,2.62.28,1.92.03,2.85-.28c1.86-.63,3.15-2.1,4.64-3.29,1.2-.96,2.1-1.18,3.57-.5.98.46,1.87.93,2.98.74,1.49-.24,1.5-.98,1.15-2.25-.04-.14.04-.28.04-.41,0,.18-1.01-.14.14.14.59.14,1.1.49,1.58.84.96.71,1.83,1.61,3.02,1.93,1.65.45,3.41-.33,4.8-1.16.83-.5,1.64-1.18,2.55-1.55,1.51-.61,2.45.63,3.27,1.72,1.29,1.73,2.74,2.27,4.85,1.84,2.33-.48,4.84-2.27,7.08-.67.91.65,1.6,1.6,2.61,2.12.85.44,1.79.46,2.72.28,1.01-.19,1.95-.61,2.88-1.03.82-.37,1.67-.8,2.6-.58.68.16,1.27.58,1.81,1.01.9.73,1.73,1.66,2.88,2,.52.15,1.64.27,2.08-.19.38-.4.03-.63-.29-1.01-.12-.13-.47-.74-.62-.79.03,0-.55-1.32-.38.19,0-.06,1.16.48,1.26.55,2.25,1.42,3.47,3.57,6.42,3.49,1.56-.04,3.74-1.04,5.17-.41s2.67,2.12,3.54,3.44c.1.15.45.07.58.04l.53-.09h-.54c3.1,1.34,6.47,1.31,9.63.18l-.97.06c-.46,3.15,2.34,5.72,5.4,5.41,1.19-.12,2.28-.47,3.42.09.66.32,1.23.82,1.74,1.34,1.13,1.14,2.03,2.5,3.35,3.45.22.16,1.33-.09,1.4-.37l.15-.67-1.44.33c-.16,1.5,1.81,1.4,2.82,1.22l-.41-.24c-.32.21-.56.41-.78.73-.03.04-.02.08.03.1.72.31,1.69.63,2.11,1.35.52.89-.05,1.98-.29,2.87-.03.04-.02.08.03.1.53.36.56,1.01.68,1.6.03.05.07.07.13.07.51.15,1.24.12,1.69.43.51.36.47.92.44,1.47-.06,1-.19,1.81.81,2.33.93.49,1.78.55,2.27,1.63.47,1.01.34,2.26-.45,3.07-.1.1-.09.16.05.2,1.06.26,2.19.59,3.03,1.32,1.1.95.93,2.1.57,3.39-.26.92-.48,1.86.21,2.66s1.7,1.06,2.2,1.98c.18.32,1.54-.21,1.45-.39Z"/>
    </g>
    <g>
      <path d="M529.51,117.48c.29-.42.04-.74-.38-1.05.04.43.06.87.06,1.31.12-.06.23-.14.31-.25Z"/>
      <path d="M530.18,117.49c.15-.22.25-.51.13-.77s-.3-.43-.51-.58c-.12-.09-.24-.12-.39-.12-.16,0-.32.03-.47.08-.13.05-.29.11-.39.21-.09.09-.16.18-.14.31.04.43.06.87.06,1.31.03.07.07.12.15.15.09.04.19.06.29.06.26,0,.5-.08.73-.2.21-.11.4-.26.54-.45.07-.09.08-.21,0-.29-.09-.1-.27-.12-.39-.12-.19,0-.39.03-.57.11-.15.07-.29.15-.39.28-.02.02-.03.04-.05.06l.09-.1s-.07.06-.11.09l.13-.1s-.1.07-.16.09l1.17.02c0-.44-.02-.87-.06-1.31l-1.4.48c.16.12.32.25.42.43l-.05-.09c.05.09.08.18.08.28v-.1c0,.08-.02.15-.05.22l.05-.1s-.05.09-.07.13c-.06.09-.08.21,0,.29.09.1.27.12.39.12.19,0,.39-.03.57-.11.14-.07.3-.15.39-.28Z"/>
    </g>
  </g>
  <path d="M423.52,158.23l1.1,6.66c.44,5.11,2.59,15.43,3.85,18.35,1.78,4.09,27.65,9.68,33.25,7.51,5.6-2.17,10.86-16.64,12.77-19.88l10.35,2.25c.21,4.62,1.21,19.31,2.89,21.54,1.67,2.23,13.71,3.8,15.06,3.97,1.13.13,2.7.32,4.43.45,4.58.39,10.19.51,12.15-.9,2.91-2.08,7.17-11.13,10.97-19.73l.61-1.34c.14-.32.28-.55.3-.64h0l.68-1.55c-13.89-9.57-33.8-11.53-47.19-4.64l.07.17-10.09-2.24c-10.27-9.48-29.5-16.81-44.61-13.56h0l-45.34.31-.76,3.89,39.49-.62ZM489.19,193.41c-1.05-1.39-2.05-11.73-2.57-19.73,11.6-5.78,29.55-3.98,42.09,3.81l-.04.2c-2.04,4.61-7.46,16.87-10.32,18.92-3.38,2.41-27.3-.97-29.17-3.15v-.04ZM431.74,182.67c-2.39-7.78-4.07-15.77-5.03-23.86,13.58-3.74,35.1,3,45.18,12.05-2.8,5.95-6.81,16.5-10.83,18.04-5.78,2.24-28.22-3.65-29.32-6.23h0Z"/>
  <path d="M507.57,175.68c1.72-.52,3.62.52,4.48,1.62.2.26.54,1,.65,2.08.14,1.39-.66,2.79-1.66,3.54-1.33,1.01-3.21.87-4.5-.05-1.75-1.25-1.94-3.68-1.15-5.26.15-.29.8-1.51,2.19-1.93"/>
  <path d="M451.22,166.26c-1.38-1.1-3.88-1.33-5.05-.61-.28.17-1.02.66-1.51,1.64-.62,1.25-.39,2.84.25,3.9.85,1.41,2.61,1.96,4.11,1.56,2.04-.55,3.07-2.74,2.92-4.5-.03-.32.39-.86-.73-1.75"/>
  <path class="cls-29" d="M440.82,217.15c-1.45.89-3.02,1.94-3.43,3.58-.15.6-.13,1.22-.1,1.84.04.95.07,1.9.11,2.86,0,.19.02.39.12.55.11.17.31.27.5.35.6.27,1.23.55,1.89.53.66-.01,1.36-.41,1.51-1.05.06-.26.03-.56.18-.79.29-.44.96-.26,1.48-.31,1.32-.11,1.87-1.69,2.63-2.78,1.03-1.47,2.83-2.23,4.61-2.51.9-.14,1.82-.18,2.67-.5.85-.32,1.64-1.01,1.76-1.91"/>
  <path class="cls-29" d="M494.94,226.94c1.05,1.33,2.16,2.86,1.98,4.54-.07.61-.3,1.19-.54,1.76-.36.88-.72,1.76-1.09,2.64-.07.18-.15.36-.3.47-.17.13-.39.14-.59.16-.66.05-1.35.09-1.96-.15-.62-.24-1.14-.85-1.06-1.51.03-.27.17-.54.1-.8-.12-.51-.81-.58-1.29-.8-1.21-.56-1.17-2.23-1.51-3.51-.46-1.74-1.89-3.07-3.46-3.95-.79-.44-1.65-.8-2.34-1.4-.69-.6-1.19-1.51-.99-2.4"/>
  <path class="cls-18" d="M383.63,203.66c-15.63,10.87-14.58-11.89-14.58-11.89-7.37-12.93-5.23-24.93-3.42-33.08,1.8-8.15,10.81-6.41,10.81-6.41,7.52,2.2,10.21,6.93,12.01,33.93"/>
  <path class="cls-38" d="M383.11,180.21c-1.12-4.19-2.42-8.38-4.35-12.27-.94-1.89-2.04-3.78-3.53-5.29-.54-.54-1.23-1.18-1.99-1.38-1.08-.28-1.78.64-2.33,1.39-2.23,3.02-2.79,6.96-2.56,10.62.02.26,1.47.01,1.45-.39-.19-2.99.15-6.05,1.5-8.76.47-.95,1.07-1.96,1.88-2.66l-1.25.34c.61.11,1.4.81,1.91,1.32,2.18,2.17,3.57,5.16,4.72,7.96,1.27,3.09,2.25,6.29,3.11,9.51.09.32,1.54-.06,1.45-.39h0Z"/>
  <path class="cls-38" d="M379.96,181.15c-5.36-1.19-3.81,6.47-4.56,9.39-.01.06-.37.89-.4.84,0,0,.48-.09.48-.09,0-.01-.14-.12-.14-.15-.06-.24-.28-.52-.36-.76-.53-1.57-.62-3.33-.68-4.98-.09-2.42-.04-4.65.6-6.97s1.9-6.07,4.65-6.72c.88-.21.67-.98-.21-.77-2.69.64-4.22,3.1-5.18,5.51-.77,1.93-1.27,3.94-1.33,6.02s-.04,4.34.28,6.47c.14.9.29,2.6,1.23,3.09.8.43,1.81-.16,2.22-.87.48-.84.48-1.96.53-2.9.07-1.32-.33-6.8,1.98-6.28.49.11,1.71-.64.88-.82h0Z"/>
  <polygon class="cls-7" points="567.25 833.28 599.85 833.28 584.27 914.5 554.98 914.5 567.25 833.28"/>
  <g id="freepik--Character--inject-2">
    <path class="cls-34" d="M369.24,247.42l-20.36,20.91s-58.36,24.67-67.08,26.76c-8.72,2.09-5.86,200.72-5.86,200.72l-35.19,65.1c-3.21,8.44-31.17,32.74-19.38,86.62,0,0,176.64,20.02,195.8,22.64,22.27,3.05,70.29-.95,77.52-10.69,7.23-9.74,24.77-228.7,24.77-228.7l-7.12-98.41s15.42-12.66-3.34-23.49c-9.51-5.49-46.02-31.13-51.86-34,0,0,15.78,21.18-11.86,24.28-27.64,3.11-73.2-38.24-76.02-51.75"/>
  </g>
  <path class="cls-19" d="M572.8,750.22c1.24-5.27,2.76,13.89,4.48,8.78,3.9-11.56,8.88-22.75,14.63-33.51,5.9-11.06,12.66-21.68,20.24-31.67,5.15-6.79,10.7-13.3,16.68-19.39-108.94-31.43-358.54-45.57-358.54-45.57,0,0-75.91,48.48-40.46,130.54,10.62,24.58,35.47,22.79,70.91,24.22,83.93,3.4,209.17-3.32,270.82-16.07.42-.09.82-17.23,1.23-17.32Z"/>
  <path class="cls-19" d="M575.62,769.64c1.92-4.86,4.1-9.63,6.46-14.28,5.34-10.51,11.68-20.51,18.67-30,7.19-9.75,15.14-18.96,23.79-27.46,5.88-5.77,2.66.71,9.23-4.28-11.99-118.56-396.65-54.82-396.65-54.82,0,0-26.81-6.84-17.58,87.02,8.68,88.19,269.08,37.17,354.87,32.13.41-.02.81,11.72,1.21,11.69Z"/>
  <path class="cls-27" d="M397.01,439.44c.07,0,.13,0,.2.03.03.26.14.52-.08.75-.04-.26-.08-.52-.12-.78Z"/>
  <path class="cls-27" d="M408.32,512.67c-.06.04-.12.07-.18.08"/>
  <path class="cls-16" d="M456.69,430.5c-.09,0-.18-.02-.27-.03.09-.05.17-.09.26-.14.04.05.04.11,0,.17Z"/>
  <path class="cls-16" d="M418.37,436.23c.08-.06.17-.12.25-.18.03.05.06.09.08.14-.11.01-.22.03-.33.04Z"/>
  <path class="cls-16" d="M455.87,430.56c-.12.02-.24.03-.36.05.1-.13.22-.15.36-.05Z"/>
  <path class="cls-34" d="M397.85,439.34c.09-.12.19-.14.3-.05-.1.02-.2.03-.3.05Z"/>
  <path class="cls-19" d="M660.52,766.13c-21.62,61.8-69.38,214.82-99.16,289.56,0,0-81.9,4.16-88.07-14.68,0,0,2.23-379.48,52.43-386.24,37-4.99,95.96-8.92,115.06,6.8,22.93,18.85,36.76,55.89,19.74,104.57Z"/>
  <path class="cls-19" d="M620.49,724.71s-12.58-2.41-30.54-2.05c3.47-7.54,4.66-13.16,4.66-13.16-1.67-1.91-3.43-3.86-5.28-5.85-10.28,2.4-20.33,5.72-30.07,9.67-11.34,4.6-22.3,10.07-32.77,16.3-10.09,6.01-19.73,12.78-28.62,20.36-2.52,2.14-4.97,4.37-7.35,6.65.3.09-4.94-.68-4.63-.59-34.73,36.27-33.85,117.24-53.95,190.71-14.74,53.88-30.61,97.8-30.61,97.8,7.98,18.13,107.32,25.57,107.32,25.57,35.32-97.79,111.84-345.42,111.84-345.42Z"/>
  <path class="cls-35" d="M517.73,1055.63c.47-1.39.95-2.78,1.42-4.17,1.33-3.91,2.66-7.82,3.99-11.73,2.06-6.05,4.11-12.1,6.16-18.15,2.66-7.84,5.31-15.68,7.96-23.52,3.1-9.19,6.2-18.38,9.29-27.57,3.43-10.18,6.84-20.36,10.25-30.54,3.61-10.79,7.22-21.58,10.81-32.37,3.67-11.01,7.32-22.03,10.96-33.05s7.16-21.72,10.71-32.59c3.37-10.32,6.73-20.64,10.06-30.98,3.03-9.4,6.03-18.8,9-28.22,2.56-8.12,5.09-16.25,7.57-24.4,1.94-6.4,3.86-12.81,5.67-19.24,1.22-4.32,2.42-8.66,3.4-13.04,3.36-15.03,3.76-31.08-1.23-45.8-4.86-14.34-14.7-26.59-27.76-34.28-6.86-4.05-14.48-6.82-22.33-8.17-2.56-.44-5.15-.68-7.72-.99-7.34-.88-14.68-1.76-22.02-2.64-10.5-1.26-20.99-2.51-31.49-3.77-7.91-.95-15.83-1.9-23.74-2.84-1.2-.14-2.39-.29-3.59-.43-.47-.06-1.26.11-1.61.43-.31.28-.35.47.14.53,4.6.55,9.19,1.1,13.79,1.65,9.92,1.19,19.84,2.38,29.76,3.56s19.14,2.29,28.71,3.44c5.64.68,11.43,1.11,17.01,2.16,15.9,3.01,30.55,11.99,40.01,25.19,8.74,12.2,12.55,27.15,12.3,42.04-.15,9.1-1.77,18.03-4.09,26.8-1.47,5.56-3.07,11.08-4.7,16.59-2.19,7.39-4.44,14.75-6.73,22.11-2.76,8.88-5.56,17.75-8.39,26.6-3.17,9.93-6.37,19.85-9.59,29.76-3.45,10.63-6.93,21.25-10.42,31.87-3.6,10.96-7.22,21.91-10.85,32.85-3.63,10.95-7.28,21.89-10.93,32.83s-7.01,20.94-10.52,31.41c-3.25,9.66-6.5,19.33-9.76,28.99-2.86,8.48-5.72,16.96-8.59,25.43-2.35,6.94-4.7,13.87-7.05,20.81-1.69,4.96-3.37,9.93-5.06,14.89-.9,2.64-1.8,5.29-2.7,7.93-.11.33-.23.67-.34,1-.16.46,2.05.21,2.25-.39h0Z"/>
  <path class="cls-34" d="M216.57,680.31s25.45-17.1,45.99-24.06c79.42-26.95,234.49-55.56,234.49-55.56,0,0-256.49-33.75-266.63-25.29-10.14,8.47-21.62,87.57-13.85,104.91Z"/>
  <path class="cls-34" d="M232.64,514.61c-9.76.13-10.44-1.64-20.18-1.08-.03-6.45.18-12.52.68-18.47,2.14-25.35,18.96-143.83,35.78-181.23,10.83-40.89,120.33-66.4,120.33-66.4l-52.69,150.2-17.67,115.39c-16.7,2.33-49.37,1.38-66.24,1.6Z"/>
  <g>
    <polyline class="cls-34" points="295.87 522.18 476.65 589.18 474.31 600.23"/>
    <path class="cls-12" d="M295.28,522.5c1.8.67,3.59,1.33,5.39,2,4.86,1.8,9.71,3.6,14.57,5.4,7.12,2.64,14.24,5.28,21.36,7.92l25.76,9.55,27.77,10.29c9.13,3.38,18.26,6.77,27.39,10.15l24.62,9.12c6.49,2.4,12.97,4.81,19.46,7.21,3.97,1.47,7.94,2.94,11.91,4.41.72.27,1.6.78,2.37.88.05,0,.13.04.17.06.08.05-.12-.22-.12-.21,0,.16-.08.36-.11.52l-1.31,6.2c-.3,1.44-.61,2.88-.91,4.31-.1.48,1.35.24,1.44-.21.78-3.68,1.56-7.36,2.34-11.05.02-.11-.04-.19-.14-.23-1.61-.6-3.22-1.19-4.84-1.79l-13.16-4.88c-6.49-2.4-12.98-4.81-19.47-7.21-7.92-2.93-15.83-5.87-23.75-8.8-8.67-3.21-17.34-6.43-26.01-9.64l-26.14-9.69-24.49-9.08-20.69-7.67c-4.96-1.84-9.92-3.68-14.88-5.52-2.34-.87-4.68-1.82-7.05-2.61-.1-.03-.2-.07-.3-.11-.4-.15-1.71.45-1.17.66h0Z"/>
  </g>
  <path class="cls-12" d="M310.39,305.1c6.42,1.86,9.82,8.31,11.75,14.23,2.35,7.2,3.16,14.9,3.42,22.44.18,5.18.17,10.44-.45,15.59-.48,4.02-1.19,8.02-1.89,12.01-2.47,14.19-5.22,28.32-7.94,42.46-3.46,18.05-6.94,36.09-10.31,54.16-3.16,16.96-6.27,33.94-9,50.97-.28,1.77-.56,3.55-.83,5.32-.07.44,1.37.18,1.44-.22,2.57-16.74,5.59-33.4,8.67-50.05,3.4-18.36,6.92-36.7,10.44-55.03,2.85-14.83,5.73-29.65,8.38-44.51.8-4.51,1.61-9.03,2.24-13.57s.78-8.73.77-13.12c-.01-7.53-.56-15.15-2.29-22.49-1.46-6.19-3.94-13.32-9.47-17.05-1.16-.78-2.43-1.37-3.77-1.76-.37-.11-1.67.48-1.17.62h0Z"/>
  <path class="cls-34" d="M223.78,435.36s-10.53,56.66-10.65,59.69c-.58,14.26-9.67,37.43,3.04,69.19,10.93,27.31,39.06,38.71,75.62,20.95,36.56-17.77-25.1-86.59-25.1-86.59l-42.91-63.23Z"/>
  <path class="cls-12" d="M296.23,521.71c-5.54-.31-11.22-.03-16.49,1.88-4.7,1.7-8.72,4.73-11.83,8.63-2.09,2.62-3.77,5.52-5.22,8.53-.34.7,1.12.63,1.37.11,2.82-5.88,6.66-11.48,12.45-14.76,5.81-3.3,12.66-3.79,19.19-3.42.64.04,1.51-.91.53-.96h0Z"/>
  <g>
    <path class="cls-34" d="M225.39,579.21c4.99,11.63,24.76,17.19,41.33,23.41,58.97,22.13,139.73,25.75,197.75,29.29l5.77-13.9"/>
    <path class="cls-12" d="M224.66,579.4c2.6,5.91,8.34,9.69,13.87,12.57,7.17,3.74,14.89,6.34,22.48,9.08,7.55,2.73,15.05,5.48,22.75,7.78s15.97,4.42,24.05,6.23c16.92,3.79,34.05,6.55,51.25,8.73,17.21,2.18,34.49,3.76,51.78,5.06,15.9,1.19,31.83,2.12,47.74,3.07,1.81.11,3.62.22,5.43.33.35.02,1.02-.07,1.18-.45,1.92-4.63,3.85-9.27,5.77-13.9.15-.35-1.26-.2-1.44.22-1.92,4.63-3.85,9.27-5.77,13.9l1.18-.45c-15.53-.95-31.07-1.83-46.59-2.92-16.99-1.2-33.97-2.65-50.89-4.63-17.14-2-34.24-4.54-51.15-8.01-16.12-3.31-32.12-7.48-47.58-13.17-7.63-2.81-15.36-5.39-22.84-8.59-6.27-2.69-13.05-5.93-17.42-11.37-.95-1.18-1.74-2.46-2.35-3.85-.19-.43-1.6.04-1.45.39h0Z"/>
  </g>
  <path class="cls-35" d="M470.05,779.36c7.34-3.02,14.37-6.72,21.01-11.06.4-.26.24-.49-.15-.56-.5-.1-1.2.16-1.61.43-6.34,4.15-13.06,7.7-20.06,10.59-.25.1-.9.35-.67.7.21.31,1.25,0,1.48-.1h0Z"/>
  <path class="cls-44" d="M477.81,152.81c3.11,1.09,6.94.12,9.12-2.36s2.52-6.42.72-9.29c-.29-.46-1.69.03-1.34.59,1.53,2.44,1.42,5.85-.35,8.14s-4.69,2.98-7.28,2.07c-.51-.18-1.7.56-.87.86h0Z"/>
  <path class="cls-33" d="M471.71,221.15c-7-1.34-23.39.66-27.1,3.21,0,0,4.99,11.41,21.22,14.5,16.23,3.1,21.93-6.27,21.93-6.27,0,0-7.13-9.74-16.05-11.44Z"/>
  <path class="cls-23" d="M451.87,222.13s9.04.92,16.12,2.27c7.09,1.35,15.82,3.82,15.82,3.82,0,0,2.24-5.53-10.61-7.98-12.85-2.45-21.33,1.88-21.33,1.88Z"/>
  <path class="cls-11" d="M468.44,236.49c-7.36-2.7-14.85-11.08-23.84-12.13,0,0,.58,15.88,19.67,19.52,19.08,3.64,23.48-11.29,23.48-11.29-8.74-2.33-11.47,4.1-19.31,3.9Z"/>
  <path class="cls-11" d="M480.84,218.35c-3.94-1.11-6.82.17-8.56-.17-1.74-.33-3.95-2.58-8.02-3-3.82-.4-21.73,7.2-20.22,8.92,1.51,1.72,15.31-3.74,27.38-1.43,12.07,2.3,14.9,10.93,16.94,9.89,2.04-1.04-3.83-13.17-7.52-14.21Z"/>
  <path class="cls-29" d="M444.47,217.74c.88-.79,2.2-.42,3.31-.81,1.29-.46,1.75-1.57,2.81-2.09-1.52.75-1.05.57.42,1.01,1.2.36,2.35.23,3.53-.17.64-.18,1.22-.46,1.76-.85-1.92-.41-2.31-.29-1.17.37.69.52,1.51.54,2.34.59,1.21.07,2.77-.13,3.71-.99,1.53-1.4-.12-1.29.4.29.39,1.21,1.91,1.91,3.14,1.71l.19-.03c3.81-.6,5.12-5.97.53-5.24l-.19.03,3.14,1.71c-.97-2.98-2.56-5.05-6.16-4.78-.96.07-2.06.47-2.9.96-.46.22-.86.52-1.21.89-1.03.75-.49.87,1.62.36.14-1.1-3.94-1.03-4.3-.97-.76.14-1.49.74-2.21.83,1.03-.14-.35-.46-1.02-.63-1.71-.42-3.36-.2-4.9.62-.64.34-1.31.73-1.77,1.3-1.44,1.78,2.02.28.17.14-2.13-.16-4.3,1.06-5.8,2.41-3.41,3.08,1.92,5.74,4.58,3.34h0Z"/>
  <path class="cls-29" d="M478.25,217.61c1.08,0,1.98.38,2.92.91.8.45,1.02,1.02,1.59,1.63,1.01,1.07,1.81.78,3.14,1.13.34,0,.68-.01,1.02-.05.12.49.2.99.25,1.5.23.62.37,1.01.95,1.44.48.36,1.35.39,1.7.97.32.53.1,1.72.1,2.33l.2.27.13.07c1.77.96,4.86-.22,6.29-1.4l.13-.11-5.4,1.2c-.8-.14-1.5,1.22-1.89,1.85-.68,1.11,2.43.8,2.75.75,1.29-.21,3.23-.7,3.97-1.91.6-.98,1.6-1.69,1.59-2.92-.12-.25-.33-.4-.62-.45-2.47-.43-4.83.46-6.71,2.01l6.29-1.4s.06-1.89-.03-2.13c-.25-.7-.52-.77-1.08-1.16-.75-.52-1.11-.3-1.57-1.25-.19-.4-.03-.98-.25-1.39-.37-.72-.98-1.01-1.75-1.16-.86-.16-1.77.19-2.4-.33s-.59-1.22-1.39-1.7c-1.59-.96-3.72-1.6-5.56-1.6-1.56,0-3.55.28-4.81,1.29-.89.71-1.07,1.6.43,1.6h0Z"/>
  <path class="cls-29" d="M469.25,214.13l-1.25,4.29c-.2.66-.78,1.12-1.47,1.15-4.71.2-22.61.94-26.82.48-.1-.01.21,1.79.11,1.76l-.98-.16c-1.54-.46.1-5.63,1.65-6.08,4.72-1.34,8.91-2.2,11.49-2.55,3.22-.44,12.11-1.35,15.91-.95,1,.11,1.65,1.09,1.36,2.06Z"/>
  <path class="cls-29" d="M477.31,213.91l-1.53,3.77c-.15.67.11,1.35.65,1.7,3.7,2.39,13.54,9.47,17.14,11.04.09.04.17.06.26.08l1.25.27c1.46.32,2.04-3.01.99-4.13-3.18-3.39-2.97-4.68-4.88-6.2-2.39-1.89-8.57-6.27-11.82-7.7-.86-.38-1.84.19-2.05,1.17Z"/>
  <g>
    <path class="cls-45" d="M493.17,254.31c.76-.93,1.35-2.23,1.87-3.67,3.61-6.46,3.59-4.92,5.49-10.6-6.48,11.45-14.77,22.23-18.44,23.9-.13.06-.82.11-1.74.06-.08-.06-.17-.11-.27-.15-1.02-.42-2.61.01-3.28-.64-.74-.72.86-1.56.45-2.37-.26-.51-1.16-.74-1.74-1.14-.68-.47-.86-1.16-1.5-1.66-.65-.51-1.75-.75-2.67-.58-.96-.16-2.29.13-2.54-.56-.07-.18,0-.37.02-.56.1-.73-.45-1.51-1.32-1.89s-2.02-.31-2.75.16c-.72.45-1.02,1.2-1.78,1.61-.24.13-.52.22-.79.32-.22-.24-.51-.45-.86-.6-.87-.37-2.02-.31-2.75.16-.71.45-1.02,1.2-1.78,1.61-.64.34-1.57.44-1.92.97-.55.85.86,2.1,0,2.78-.78.61-2.27-.17-3.35.12-.2.05-.35.14-.48.25-5.82-1.54-17.46-4.8-17.69-4.86l-7.48-5.19c-1.22-1.07-27.36-31.74-27.36-31.74-.32-.93-4.8-7.94-4.88-8.79-.09-.06-.17-.13-.27-.19-.03-.02-.11-.07-.18-.11-.02.05-.05.12-.07.16-.11.34-.17.71-.21,1.06-.19,1.54-.12,3.1.09,4.65.33,2.37.36,4.74.59,7.11.08.84.21,1.67.37,2.49.56.49,1.6,1.94,2.97,4,.19.51.5.98.89,1.34.38.57.78,1.19,1.19,1.83-.69,2.13.97,5,3.28,5.07.08.12.15.23.23.35-.66,1.49.35,3.55,2,3.8.17.03.34.04.51.04.59.9,1.19,1.81,1.81,2.73-.08.3-.16.59-.2.87-.33,1.96,1.51,3.92,3.46,3.9.11.16.23.33.34.49-.88,2.5,1.36,5.68,4.04,5.58.1.13.19.26.29.38.02,1.86,1.47,3.56,3.24,4.1.58.7,1.15,1.37,1.73,2.02.36,1.91,1.9,3.63,3.83,3.97.04.04.09.09.13.13-1.29,1.89.89,4.97,3.11,4.3.62-.19,1.2-.59,1.85-.56,1.76.08,2.19,3.07,3.95,3.23.72.07,1.36-.39,2.04-.66,2.02-.79,3.15-.79,3.71,1.31,0,0-.03,2.07,2.92,1.58,1.65-.27,3.15-1.73,4.26-.48.48.55.74,1.3,1.34,1.73,1.38.98,3.3-.45,4.94-.05,1.5.37,2.57,2.25,4.09,1.96,1.49-.28,1.86-2.35,3.08-3.2.89.06,1.26,2.48,2.16,2.52,1.85,1.17,4.15,1.39,6.11.49.82-.38,1.32-1.32,2.19-1.57,1.41-.41,2.6,1.18,4.03,1.46,2.1.4,3.46-1.9,4.13-4.04.24-.1.47-.2.7-.31,1.01.5,2.48.07,2.91-1.01.18-.46.2-1,.38-1.45.23-.24.44-.49.65-.75.88-.52,2.27-.47,2.44-1.45.09-.55-.34-1.04-.41-1.59.38-.59.78-1.22,1.2-1.88.29-.2.59-.38.87-.54.97-.56,1.9-1.86,1.15-2.67,0-.01.02-.03.02-.04,1.34-.17,3.04-.76,2.96-2.1-.02-.43-.25-.83-.28-1.26-.09-1.24,1.3-1.96,2.33-2.65,1.03-.69,1.77-2.44.65-2.98Z"/>
    <path class="cls-29" d="M493.77,254.5c1.17-1.52,1.68-3.34,2.63-4.98.69-1.19,1.42-2.36,2.16-3.53,1.19-1.86,1.95-3.8,2.65-5.89.27-.8-1.1-.62-1.38-.13-2.49,4.39-5.19,8.66-8.15,12.75-2.2,3.05-4.52,6.1-7.22,8.72-.7.68-1.65,1.74-2.62,2.04-.78.25-1.67-.26-2.45-.33s-2.47.09-1.75-1.14c1.05-1.81-.73-1.92-1.81-2.94-.67-.64-1.01-1.41-1.9-1.81s-1.75-.34-2.68-.35c-.56,0-1.22.11-1.54-.35-.25-.36-.14-.83-.32-1.25-.32-.74-1.06-1.23-1.82-1.46-.89-.26-1.91-.2-2.76.16-1.12.46-1.63,1.64-2.77,2.05l.79.15c-1.1-1.04-2.69-1.3-4.1-.75-.63.24-1.07.65-1.53,1.12-.72.73-1.37.84-2.23,1.32-.42.23-.82.56-.94,1.04-.15.61.27,1.05.31,1.61.05,1-1.28.45-1.94.44s-1.27.13-1.83.51l.9-.16c-4.09-1.09-8.18-2.22-12.26-3.35-1.54-.43-3.07-.85-4.61-1.28-.82-.23-.66-.14-1.33-.62-2.23-1.55-4.59-3-6.74-4.67-.11-.08.06.07-.15-.14-.17-.17-.33-.36-.5-.54-.54-.6-1.07-1.2-1.6-1.81-7.83-8.93-15.51-18-23.23-27.04-.82-.96-1.68-1.89-2.18-2.84-.89-1.64-1.89-3.22-2.84-4.83-.45-.77-.91-1.53-1.31-2.32-.31-.61-.35-1-.97-1.38-.36-.23-1.07-.07-1.25.34-1.01,2.22-.28,5.23-.06,7.55.14,1.42.2,2.84.31,4.26.05.61.1,1.23.17,1.84.07.56.06,1.64.35,2.13.35.61,1,1.17,1.42,1.75.79,1.09,1.42,2.28,2.2,3.35.36.5,1.03,1.13,1.22,1.74.14.44.02.84.02,1.29.02.9.32,1.78.82,2.52.44.65,1.06,1.2,1.79,1.52.15.06.96.18,1.01.28.09.18-.16.97-.14,1.19.05.84.43,1.63,1.04,2.2s1.46.59,1.98,1.02c.35.29,1.14,1.52,1.29,1.95.2.56-.07,1.13-.04,1.71.06,1.02.59,1.95,1.35,2.61.32.28.66.5,1.05.68.26.12,1.02.18,1.22.34.23.18.07,2.08.2,2.53.49,1.67,1.87,3.08,3.59,3.46.39.08.5,0,.7.31.16.23.14.62.22.89.11.37.27.73.47,1.07.55.92,1.34,1.53,2.26,2.03,2.12,1.14,2.24,3.79,4.07,5.24.35.28.74.51,1.16.69,0,0,.62.18.65.23l.06-.08c-.05.11-.1.22-.13.33-.04.93-.22,1.51.25,2.41.75,1.45,2.35,2.28,3.96,1.84.55-.15,1.27-.64,1.84-.43.39.14.72.65.96.97.46.62.87,1.33,1.53,1.78,1.8,1.19,3.27-.77,5.04-.75,1.41.02,1.09,1.76,1.73,2.57,1.15,1.45,3.5.82,4.92.26.81-.32,1.47-.59,2.13.16.36.4.53.92.94,1.29.79.73,1.81.76,2.82.59,1.47-.25,2.47-.6,3.78.34.79.57,1.54,1.26,2.56,1.34,2.4.19,2.74-2.22,4.26-3.42l-.9.16c.67.16.93,1.47,1.33,1.96.52.65,1.53.99,2.29,1.25,2.14.72,4.7.47,6.44-1.02.66-.57,1-.94,1.89-.54.56.25,1.05.63,1.61.9.82.4,1.68.54,2.58.31,2.05-.54,3.05-2.7,3.66-4.53l-.42.46c.24-.1.47-.2.7-.31l-.74.07c1.3.52,3.04.17,3.83-1.07.45-.7.29-1.71,1-2.25.58-.45,1.45-.43,2.06-.9.46-.36.7-.84.62-1.42-.07-.54-.4-.81-.21-1.37.16-.46.68-1.17,1.05-1.47.7-.58,1.44-.86,1.92-1.68.19-.31.33-.65.33-1.02,0-.13-.09-.89-.28-.59l-.76.43c1.11-.16,2.35-.45,3.16-1.28.38-.39.61-.84.61-1.39,0-.91-.58-1.5.11-2.32.79-.94,2.05-1.23,2.71-2.33.53-.88.66-1.96-.29-2.58-.5-.32-1.79.37-1.13.8,1.28.82-.57,2.27-1.24,2.72-.7.47-1.5,1.03-1.8,1.87-.38,1.07.73,2.37-.5,3.07-.68.39-1.83.19-2.27.9-.07.12-.05.27.02.38.68,1.01-.68,1.87-1.4,2.32s-1.04,1.13-1.5,1.85-.37.81-.12,1.6c.35,1.13-.71,1.13-1.49,1.47-.54.23-1.01.63-1.32,1.14-.46.75-.21,2.04-1.28,2.32-.59.16-1.1-.24-1.71-.06-.88.26-1.02.55-1.31,1.32s-.66,1.55-1.21,2.17c-.87.99-1.78.87-2.86.24s-2.12-1.26-3.39-.86c-.59.19-1.05.57-1.5.98-.93.84-2.06,1.16-3.32,1.05-1.53-.14-2.97-.72-3.69-2.08-.4-.75-.94-1.74-1.96-1.39-1.09.38-1.56,1.84-2.24,2.64-1.13,1.32-2.83-.92-3.99-1.34-1.42-.51-2.65.22-4.06.25-1.77.03-1.85-2.34-3.58-2.54-1.47-.17-2.72.97-4.16,1.02-2.24.08-1.28-2.54-3.06-3.27-1.16-.48-2.6.11-3.67.58s-1.68.32-2.38-.61c-.4-.52-.73-1.11-1.22-1.55-1.1-.99-2.18-.58-3.43-.18-1.98.64-3.54-2.01-2.57-3.66.06-.1.07-.29-.02-.38-.33-.31-.61-.3-1.04-.46-.55-.2-1.06-.53-1.48-.94-.91-.88-.99-2.11-1.73-3.02-.41-.5-.83-1.07-1.3-1.52-.37-.36-.74-.41-1.2-.68-1.08-.62-1.89-1.72-2.08-2.96s-.64-1.04-1.66-1.3c-1.17-.3-2.13-1.3-2.58-2.4-.23-.54-.35-1.14-.32-1.73.02-.33.25-.75.18-1.05-.26-1.07-1.7-.82-2.43-1.33-1.15-.79-1.53-2.04-1.27-3.36.14-.68.07-.66-.35-1.28-.35-.52-.9-1.78-1.42-2.14-.25-.17-.37-.13-.67-.2-.63-.14-1.07-.33-1.47-.88-.33-.45-.54-1.06-.51-1.63.02-.4.26-.75.13-1.13-.18-.55-.49-.46-.93-.56-.53-.13-1-.36-1.4-.73-.81-.75-1.31-1.91-1.26-3.02.01-.34.2-.74.12-1.05-.13-.47-.7-1.12-.99-1.54-.81-1.16-1.55-2.37-2.38-3.54-.53-.75-1.45-1.58-1.73-2.45-.46-1.43-.4-3.2-.49-4.68-.11-1.66-.26-3.31-.45-4.97-.17-1.5-.44-3.7.21-5.14l-1.25.34c.44.27.56.8.81,1.28.44.84.92,1.66,1.4,2.47.92,1.57,1.94,3.11,2.77,4.74.55,1.07,1.47,1.94,2.25,2.86,4.4,5.15,8.8,10.3,13.21,15.44,3.82,4.45,7.59,8.97,11.54,13.31,1.27,1.39,3.01,2.33,4.55,3.4,1.15.8,2.3,1.76,3.52,2.44.67.37,1.51.49,2.24.69,4.98,1.38,9.96,2.77,14.95,4.11.43.12.85.29,1.29.2.22-.04.37-.22.58-.27.45-.09,1.01.1,1.46.14.91.09,2.23.01,2.61-1.02.15-.4.01-.81-.11-1.2-.07-.21-.25-.53-.23-.76.07-.7.85-.73,1.33-.94,1.62-.71,2.74-3.24,4.7-1.39.2.19.53.25.79.15.89-.32,1.53-.68,2.17-1.38.55-.59,1.05-.96,1.89-.86.69.08,1.5.48,1.69,1.22.18.7-.24,1.26.56,1.68.66.35,1.74.3,2.46.3,1.44-.01,2.2.22,3.1,1.38.27.34.53.61.89.85.35.23.98.36,1.25.68.61.73-.52,1.31-.46,2.07.06.64.67.93,1.23,1.07.42.11.86.1,1.29.12.59.03.89.16,1.47.31.66.16,1.58.17,2.25,0,.98-.25,1.88-1.07,2.62-1.72,2.8-2.45,5.12-5.47,7.33-8.45,3.35-4.52,6.39-9.27,9.17-14.16l-1.38-.13c-.67,2.01-1.4,3.92-2.54,5.72-.63,1-1.27,1.99-1.87,3.01-.53.89-1.01,1.76-1.4,2.72s-.83,1.88-1.46,2.7c-.55.72.82.87,1.2.38Z"/>
  </g>
  <path class="cls-12" d="M557.25,433.11c-4.57,6.41-8.59,13.26-12.32,20.18-7.07,13.1-13.35,27.25-15.62,42.06-1.17,7.64-1.19,15.69,1.55,23.01.22.58,1.65.16,1.45-.39-5.09-13.63-1.09-29.29,3.78-42.39,4.63-12.45,10.92-24.32,18.01-35.54,1.46-2.31,2.94-4.61,4.52-6.84.42-.59-1.05-.54-1.37-.1h0Z"/>
  <path class="cls-12" d="M531.23,410.07c-2.75,15.13-6.46,30.01-10.01,44.96s-6.07,28.68-7.51,43.31c-.63,6.37-1.24,12.73-1.91,19.09-.89,8.4-1.78,16.81-2.65,25.21-.36,3.49-.72,6.97-1.07,10.46-.12,1.17-.23,2.34-.34,3.51-.05.54-.29,1.38-.17,1.91.01.06-.05.2,0,.25.21.27.91,0,1.14-.11.74-.35.61-2.43.69-3.09.02-.16-1.4-.04-1.45.39-.09.69-.17,1.39-.26,2.08-.07.53-.28.67.19.45l1.14-.11c-.12-.15.05-.83.07-1.01.08-.92.17-1.84.26-2.77.31-3.12.63-6.25.95-9.37.87-8.4,1.76-16.8,2.64-25.2.57-5.35,1.19-10.7,1.69-16.06.74-7.9,1.54-15.76,2.8-23.6,1.13-7.02,2.55-13.99,4.13-20.92,3.29-14.38,7.03-28.65,9.87-43.14.43-2.17.84-4.35,1.23-6.53.06-.31-1.36-.08-1.43.26h0Z"/>
  <path class="cls-18" d="M474.19,595.44l-7.8,29.67-.76.43s31.93,13.39,40.05,13.82c8.12.42,27.03,3.77,27.03,3.77-1.36,2.12-1.93,4.64-1.62,7.14.55,2.84,2.25,5.34,4.69,6.9l10.33-11.16c1.34,6.17,7.26,2.67,7.26,2.67l7.81-10.03c1.32,7.72,9.1,3.35,9.1,3.35l5.98-14.86c1.52,2.84,3.57,5.35,6.06,7.4,3.29,2.26,5.47-3.66,5.47-3.66l-9.53-26.25-34.49-16.79-67.21,8.6-2.37-1Z"/>
  <path class="cls-5" d="M575.85,628.09c-.22-.07.27-2.45.6-6.57.07-1.02.19-2.2.19-3.32-.02-1.14-.49-2.23-1.31-3.03-1.98-2.15-4.16-4.12-6.49-5.88-2.47-1.89-4.95-3.52-7.25-5.06-2.3-1.54-4.31-2.92-6.09-3.87"/>
  <path class="cls-5" d="M561.9,637.42c.44-1.01,1.39-2.38,1.93-4.14.62-2.17.71-4.46.26-6.67-.13-1.24-.4-2.46-.83-3.63-.83-1.03-1.86-1.89-3.02-2.53-4.94-3.21-9.88-5.62-13.15-7.86"/>
  <path class="cls-5" d="M545.64,645.97c-.21-.2,1.18-1.43,2.65-3.76.94-1.25,1.48-2.76,1.54-4.33-.04-1.85-.99-3.56-2.53-4.58-1.64-1.11-3.45-1.94-5.37-2.47l-4.83-1.66c-1.22-.44-2.32-.94-3.03-1.15"/>
  <path class="cls-26" d="M871.95,417.31c.63-20.18,7.36-33.8,12.53-41.38,2.87-4.2,6.84-7.51,11.43-9.7,6.63-3.15,12.45-6.36,21.27-9.54,1.64-.59,16.32-4.73,16.17-4.36-4.52,10.49,5.07,19.94,16.71,21.28,4.17.48,8.28.66,12.19.58,13.34-.27,32.3-13.11,40.38-23.13l1.43-1.85,1.59.92,44.35,21.72-5.92,188.32-8.1,6.27c-21.86,8.19-43.84,16.15-66.49,21.86-26.49,6.67-54.29,10.41-81.45,5.88-6.21-1.04,2.71,8.17-3.27,6.24,1.52-6.6,2.64-40.8,2.59-47.78-.31-38.53-8.24-41.13-9.54-42.72,0,0-7.04-11.2-9.54-23.32"/>
  <path class="cls-26" d="M885.48,541.15s-10.02,70.64-10.02,90.37c0,0,57.07,10.46,127.86,1.38,70.79-9.08,63.9-4.11,63.9-4.11l-18.73-49.36v-115.84l-161.17,69.09"/>
  <path class="cls-18" d="M1005.32,299.34s-14.2,33.01-7,47.18c.96,1.9,4.75,4.13,5.03,5.87,0,0-15.14,26.12-48.18,25.64-33.04-.49-26.63-24.35-26.63-24.35,1.17-.78,2.05.65,3.22-.14.32-.22.65-.44.86-.76.32-.48.31-1.09.29-1.65-.52-15.9-1.49-31.78-2.54-47.66"/>
  <path class="cls-44" d="M979.01,327.88s-6.4,13.83-34.87,17.28c0,0-8.47.45-11.44-.11l-.53-6.15,46.85-11.02Z"/>
  <path class="cls-2" d="M903.62,290.95c9.09-5.7,11.43-16.8,10.95-26.84-.46-9.61,7.64-23.83-4.1-24.05-.22,0,4.69-7.93,1.2-7.42,2.43-5.15-5.34-5.11-6.07-11.12-.15-1.21-1.21-11.9,6.4-12.16,29.57-36.42,65.68-26.17,86.04-22.16,39.93,7.88,59.37,11.4,45.77,74.54-9.13,42.39-50,51.67-90.53,47.95-17.32-1.59-37.97-2.17-50.03-18.52.12-.07.25-.14.38-.22Z"/>
  <path class="cls-2" d="M996.83,159.44c-10.09,4.06-15.21,12.73-16.41,23.2,1.94,1.95,6.21,4.27,8.15,6.22.43-.67.88-1.31,1.33-1.95,2.13,2.12,7.95,4.32,10.12,6.41.66-.34,2.71-1.07,5.13-1.89.66.64,1.33,1.29,1.99,1.94-1.84.37-3.33.88-4.3,1.54,2.46,2.41,9.05,4.12,11.39,6.64,5.07,5.46,10.67,12.7,15.96,17.94,1.69,1.37,3.01,2.69,4.07,3.89l-4.25,3.28,5.46,5.09c-.75,1.48-1.19,2.32-1.19,2.32l4.47,4.27s3.24-2.62,7.86-6.59c15.86,7.39,23.57-5.53,22.64-11.81-.41-2.77-1.65-4.91-2.96-6.47,6.87-7.11,12.13-13.84,11.37-17.2-1.51-6.75-11.12-22.34-15.79-29.67-.84-2.29-1.8-4.55-2.91-6.64l-.05-.14s-.01,0-.02,0c-1.24-2.31-2.65-4.4-4.26-6-4.16-4.12-13.38-3.27-20.92-1.63-7.4-7.5-12.68-9.9-17.32-10.71-6.5-1.13-17.87,6.61-19.18,8.8-.64,1.07-.59,5.21-.37,9.15ZM1054.56,224.74c2.94-2.66,5.99-5.52,8.87-8.38-.08,1.53-.39,3.23-1.14,5.01-1.26,2.99-4.67,3.55-7.73,3.37ZM1014.76,149.16c.6.53,2.45,3.7,4.28,6.99-5.4.05-9.98.8-12.37,1.02-.26.02-.51.06-.77.09-1.01-2.07-2.17-4.86-2.12-6.64.08-3.12,7.89-4.18,10.99-1.45Z"/>
  <path class="cls-18" d="M933.52,208.34c-.1.15-.22.29-.35.43.11-.06.22-.12.32-.18l.02-.25ZM921.25,209.99l-.02.21c.21-.13.41-.27.59-.41.02-.25-.57.2-.57.2ZM1000.45,312.19l1.87-4.02c1.82,8.09,12.97,4.01,14.87-6.55,8.7-8.68,11.26-22.68,7.6-28.73l-.43-.87c-2.77-2.78-8.12-4.54-10.95-.75-.98,1.68-2.41,3.54-3.39,5.22-1,1.93-2.58,5.86-4.11,7.49,0,0,7.64-18.54,8.35-23.28.71-4.74,1.62-16.51-6.22-24.05,0,0-9.18-10.95-12.54-16.32l-1.32-.63c-.82-.08-1.39.12-2.21.05.02-.25.32-.48.36-.98-1.41.38-2.48.02-3.57-.08.3-.22.87-.43.89-.68-1.11.15-2.18-.2-3.28-.3.3-.23.89-.68.91-.93-1.41.37-2.18-.2-3.28-.3.3-.23.62-.7.64-.95-1.14.4-2.21.05-3.3-.05.3-.23.62-.7.91-.93-1.41.38-2.18-.2-3.28-.3-.27-.03.59-.45.61-.7-.84.18-1.94.08-2.76,0,.02-.25.59-.45.62-.7-1.69.35-2.46-.23-3.55-.33l.91-.93c-1.16.65-2.25.55-3.32.2.29-.22.89-.68.91-.93-1.43.63-3.09.73-4.42.1.27.03.89-.68.91-.93-1.46.88-2.53.53-3.89.4.3-.22.62-.7,1.21-1.15-1.73.85-3.69,1.18-5.26.28.27.03.62-.7.64-.95-1.18.9.98-.16-.36-.54,0,0-3.23.72-3.21.46-1.16.65,3.27-3.99,1.91-4.11.32-.48-7.88-.25-7.29-.7-1.46.88-1.13.39-2.75-.01,0,0-5.95,2.48-5.65,2.25-1.48,1.13-2,.02-3.61-.38.29-.23.89,1.14,1.19.92-1.18.9-.71-.32-2.07-.44.02-.25-4.32-2.04-4.29-2.29-1.43.63-1,.78-2.64.63.02-.25-1.28,2.67-.98,2.44-1.19.9-1.06.08-2.4-.29l-1.44.81c-1.48,1.13.44.75-1.17.35.02-.17,6.09,1.35,6.37,1.04-1.1.59-2.4,1.11-3.66,1.23.02-.25.34-.73.37-.98-1.19.9-2.89,1.5-4.51,1.1.27.03.59-.45.62-.7-1.48,1.13-3.19,1.73-4.76.83v-.04c-1.13.74-2.58,1.36-3.98,1.45.07-.75.64-.95.64-.95l-1.09-.1c-1.55,1.88,4.84,1.33,4.07,3.79,0,0-5.15,6.96-10.97,21.39-4.77,11.85-6.62,31.16-6.71,35.2-.08,3.5-2.83,10.04-3.59,13.61-4.09,19.38,9.34,40.75,23.57,53.03,5.67,4.9,11.06,3.74,17.15,3.48,12.44-.53,31.59-6.29,43.39-16.19"/>
  <g>
    <path class="cls-9" d="M927.75,295.86c1.68,1.08,4.41,1.14,6.31.26.42-.2,1.72.17,1.13.44-2.5,1.17-6.4.91-8.57-.48-.22-.14-.16-.3.14-.37.31-.07.77,0,1,.15"/>
    <path class="cls-9" d="M936.01,296.14c1.25-.42,2.61-.57,3.96-.54.2,0,.44.1.57.24.1.11.11.24-.04.31-.65.28-1.45.34-2.17.25-.23-.03-.52-.11-.63-.31-.1-.19.13-.28.31-.26.59.07,1.21.02,1.75-.21.18.18.36.37.53.55-1.2-.03-2.42.11-3.54.49-.22.08-.52-.02-.7-.15-.13-.1-.27-.3-.04-.38"/>
    <path class="cls-9" d="M941.29,296.84c1.57.12,3.47-.35,4.35-1.4,1.33-1.59.53-4.58-1.31-5.88-.2-.14-.07-.28.15-.31.29-.03.61.1.82.25,1.6,1.13,2.47,3.63,2.05,5.21-.39,1.48-1.99,2.37-3.9,2.62-.57.07-1.17.1-1.75.05-.24-.02-.66-.13-.75-.32-.1-.19.13-.25.35-.23"/>
    <path class="cls-9" d="M924.97,294.8c.1-.17-.04-.29-.17-.3-.42-.03-.84-.19-1.17-.51-.15.15-.31.3-.46.45.84.17,1.65.53,2.36,1.09.14.11.36.07.51-.02.11-.07.24-.25.09-.36"/>
    <path class="cls-9" d="M926.13,295.14c-.79-.63-1.71-1.01-2.64-1.21-.14-.03-.32.02-.44.14-.09.09-.12.22-.02.31"/>
    <path class="cls-9" d="M921.7,294.67c-1.01-.14-2.14-.92-2.53-2.1-.58-1.79.32-3.75,1.7-4.72.15-.11.09-.27-.04-.32-.18-.08-.4,0-.56.11-1.2.84-2.07,2.32-2.07,3.94,0,1.52.87,2.67,2.04,3.22.35.17.72.29,1.1.35.15.02.44-.02.53-.19.09-.17-.04-.27-.18-.29"/>
  </g>
  <path class="cls-9" d="M1008.81,288.46c1.74-2.94,3.59-5.87,5.81-8.48,1.06-1.24,2.21-2.5,3.62-3.36.29-.18.2-.13.5-.27.08-.04.17-.07.25-.11.16-.06-.14.03.09-.03.07-.02.14-.04.21-.05.15-.04-.2.05,0,0,.04-.01.09-.01.13-.01.08,0-.21-.02-.05,0,.22.04-.2-.03-.2-.11,0,.07.3.33.34.39.22.27.42.55.61.84,1.76,2.77,1.82,6.13.76,9.17-.19.55,1.27.38,1.46-.16,1.04-2.97,1-6.2-.52-8.99-.36-.66-.95-1.94-1.82-2.04-.68-.08-1.41.18-2.01.47-1.45.71-2.67,1.86-3.75,3.03-2.67,2.88-4.81,6.25-6.8,9.62-.37.63,1.09.54,1.36.08h0Z"/>
  <path d="M924.28,246.39c-.51-1.36-.22-.61-.74-1.96l-.08-.24c-9.74,1.17-14.04,2.15-18.84,4.81-.07.19-.14.38-.18.58-.01.06-.02.12-.03.18,0,0,0,0,0,0,0,.03,0,.07,0,.1.03.11.06.23.09.34.07.23.16.45.25.68.02.05.11.25.12.28.05.1.09.2.14.3.2.41.41.81.62,1.21,3.54-1.26,7.6-1.7,11.15-2.39,2.28-.44,5.02-.4,8.66-.78-.38-1.03-.77-2.07-1.16-3.11Z"/>
  <path d="M952.23,244.66c-.63,1.3-.28.57-.91,1.88-.48,1-.96,1.99-1.44,2.99,4.13.99,7.24,1.39,9.82,2.22,5.12,1.63,11.21,2.98,15.73,5.98,2.16,1.44,5.23,3.56,6.02,6.15.21.69.21,2.81,1.29,2.91.44.04.62-1.86.63-2.06.33-3.84-2.27-6.78-5.87-9.51-7.35-5.56-11.56-7.34-25.17-10.78"/>
  <path d="M913.41,261.2c-1.5-.96-3.4-.42-4.51.39-.26.19-.97.74-1.36,1.75-.51,1.28-.12,2.83.63,3.81.99,1.32,2.82,1.69,4.29,1.16,2-.72,2.84-2.97,2.51-4.69-.06-.32-.35-1.65-1.56-2.42"/>
  <path d="M927.1,267.77s-7.19-6.73-11.12-7.48c-5.73-1.1-9.94,1.13-12.25,3.77,0,0,6.66-3.58,10.67-2.69,3.84.85,12.69,6.4,12.69,6.4Z"/>
  <path d="M958.41,265.91c1.64-.67,3.42.2,4.36,1.21.22.24.82.91,1.02,1.97.27,1.35-.4,2.8-1.31,3.63-1.22,1.11-3.08,1.15-4.43.36-1.84-1.07-2.25-3.44-1.62-5.07.12-.3.65-1.56,1.97-2.1"/>
  <path d="M949.44,269.95s8.83-5.24,13.09-5.26c7.69-.04,14.39,4.93,16.31,7.96,0,0-10.48-6.72-14.86-6.6-4.19.11-14.55,3.9-14.55,3.9Z"/>
  <path class="cls-3" d="M920.34,213.09c-1.69,6.8-10.52.12-5.24-1.11-.33-3.39,4.53-4.33,4.7-7.75.18.32.29.56.29.56,0,0,.5-4.08,1.96-4.94,1.46-.86,7.88-3.4,7.88-3.4l1.73,1.58c-.04-.11-.57-1.5.46-2.23,1.04-.73,11.93-5.22,18.53-4.19.22.03.44.07.65.12l2.63,1.69.09.06s-.06-.04-.1-.07c-.46-.33-1.45-1.14-.85-1.67.21-.19.6-.35,1.28-.44,1-.13,2.47-.12,4.06-.03,0,0,0-.02,0-.02.15.02.3.03.45.05.15.01.3.02.45.03,0,0,0,.02,0,.02,1.58.2,3.03.45,3.99.77.65.21,1.01.44,1.18.66.48.63-.63,1.25-1.14,1.49-.04.02-.08.04-.11.05l.1-.04,2.89-1.18c.22-.01.44-.01.66,0,6.68.19,16.57,6.59,17.46,7.49.88.9.1,2.18.04,2.27l1.99-1.23s7.68,3.83,8.95,4.94c1.28,1.12,1.68,3.52,1.68,3.52,0,0,2.35,1.11,3.25.91.89-.2,5.2,2.56,6.82,5.41,1.04,1.83.46,3.41.91,4.97h0c.26.88.4,1.46.4,1.46l4.53,1.99c3.58,2.14,1.94,9.78,1.94,9.78,6.54,9.72,6.2,17.45,2.13,25.44-1.57,3.08,7.26,7.14,1.42,6.48-5.91-.67-12.5,17.44-12.5,17.44,0,0-4.36-7.69-4.3-11.07.06-3.38,2.62-13.19,2.62-13.19l-2.82-.67s-1.67-.87-3.42-4.86c-1.75-4,2.71-10.42,2.71-10.42l1.49-3.99-5.61-.13c-5.29-1.42-5.06-7.28-5.06-7.28l1.82-9.62-3.53,2.96s-1.39,1.43-3.24,1.11c-8.29-1.4-8.79-6.68-8.79-6.68l-.67-4.99-2.24,1.22c-2.41,1.63-9.51,3.83-12.86,2.02-.88-.48-4.46-3.81-5.05-4.27-2.09-1.84-2.13-4.97-2.07-6.13.36-.29.7-.66,1.04-.97,1.31-1.19,1.83-.59.52.6-2.26,2.05-6.02,4.87-9.1,4.73-2.97-.14-9.24-1.96-9.9-3.4-.45-.97.51-.99-.58-1.05-.95-.05-1.82.56-2.49,1.2-1.57,1.5-2.73,3.79-4.82,4.62-3.03,1.21-4.63-.54-7.47-1.42-.63-.2-1.56.05-1.75.81Z"/>
  <path class="cls-1" d="M913.91,207.09s-1.42-6.46,2.54-9.74c3.97-3.28,19.22-16.5,43.21-14.34l-45.75,24.08Z"/>
  <path class="cls-9" d="M1009,290.96c4.46.45-2.45,9.01,1.39,9.2,1.02.05,1.77-.83,2.3-1.59.95-1.37,1.59-2.95,2.15-4.51.66-1.84,1.03-3.39.99-5.34-.05-2.51-.65-5.39-3.06-6.67-.5-.27-1.8.43-1.13.79,1.99,1.06,2.59,3.41,2.71,5.5.08,1.39.01,2.82-.4,4.15-.51,1.66-1.13,3.3-1.95,4.83-.26.49-.55.99-.9,1.42-.1.13-.33.28-.4.42,0,.01-.11.06-.11.07,0,.09.3-.09.29-.05,0,0-.17-.28-.18-.32-.06-.16-.06-.33-.05-.49,0-.4.11-.8.21-1.18.25-.98.6-1.93.86-2.9.23-.9.48-1.97.14-2.87-.37-.99-1.35-1.33-2.33-1.43-.66-.07-1.5.87-.52.97h0Z"/>
  <path class="cls-41" d="M837.18,752.73c-1.27-4.03-.9,11.12-2.5,7.26-3.61-8.74-7.96-17.1-12.81-25.06-4.99-8.18-10.54-15.95-16.63-23.15-4.14-4.89-8.53-9.54-13.2-13.82,74.39-33.7,243.84-40.47,243.84-40.47,0,0,58.58,6.61,39.74,73.89-5.65,20.16-19.45,26.13-44.31,30.2-58.87,9.65-147.59-1.14-191.97-6-.3-.03-1.87-2.82-2.16-2.86Z"/>
  <path class="cls-41" d="M836.65,768.19c-1.72-3.65-3.61-7.21-5.62-10.66-4.55-7.8-9.76-15.11-15.4-21.97-5.8-7.05-12.08-13.61-18.81-19.55-4.57-4.04,9.2-16.88,4.2-20.25,1-27.4,254.73-84.04,254.73-84.04,0,0,23.85,51.4,23.84,92.48,0,69.87-182.16,51.53-242.98,54.71-.29.02.31,9.25.02,9.27Z"/>
  <path class="cls-26" d="M884.75,561.72c6.72-7.54,11.66-34.95,16.57-43.79,6.17-11.11-.38-45.42,3.18-57.62,3.63-12.44,6.1-25.2,7.79-38.04,1.7-12.93,2.64-25.96,3.15-38.99.43-10.81,3.54-15.96,3.57-26.78-10.23,4.69-27.26,9.67-36.39,18.22-11.25,10.53-15.43,13.93-20.22,33.38-2.73,11.1-2.13,14.53-12.06,37.31-1.13,2.6-16.2,29.83-15.82,30.21,5.79,5.93,15.39,20.46,25.99,27.06,1.98,1.23,10.98,6.17,13.11,5.32,3.65,3.5,4.01,4.24,5.62,11.23,2.22,9.67,5.41,39.34,5.52,42.48Z"/>
  <g>
    <path class="cls-39" d="M871.07,409.47s3.44,6.47,3.37,15.55-23.6,66.87,4.78,94.23"/>
    <path class="cls-43" d="M870.34,409.66c1.49,2.81,2.33,6.08,2.86,9.19s.73,6.09.12,9.13c-1.11,5.55-2.72,11.01-4.02,16.51-3.8,16.15-6.66,33.37-3.54,49.88,1.78,9.44,5.84,18.4,12.8,25.16.39.38,1.76-.18,1.34-.58-12.91-12.54-14.98-31.48-13.55-48.55.69-8.2,2.17-16.32,4.01-24.34,1.31-5.73,2.92-11.38,4.18-17.12.64-2.89.73-5.51.39-8.49-.43-3.77-1.35-7.78-3.14-11.17-.28-.52-1.69-.06-1.45.39h0Z"/>
  </g>
  <path class="cls-18" d="M1090,473.71c-18.42,1.63-36.81,22.22-55.23,23.86l2.08,75.55-16.61,8.83-91.13,40.46,2.62,25.52s59.88-6.51,81.49-10.85c1.23-.25,39.09-8.99,46.97-11.61,13.64-4.53,24.15-18.06,26.83-28.86,2.5-10.08,2.56-47.77,1.91-61.33-.64-13.44,1.22-48.16,1.07-61.57Z"/>
  <path class="cls-44" d="M1035.67,574.19c3.73-1.22,7.91,1.45,10.73,3.63,3.15,2.42,5.99,5.21,8.5,8.29.32.39,1.8-.34,1.7-.46-2.88-3.53-6.21-6.82-9.97-9.4-3.47-2.37-7.41-3.75-11.54-2.39-.15.05-.69.23-.52.45.16.2.93-.06,1.09-.12h0Z"/>
  <path class="cls-26" d="M1040.51,505.67c17.73,2.46,27.82.81,34.93,0,15.29-1.74,21.56-9.61,21.56-9.61-1.7-34.76-10.98-78.51-17.18-97.13-10.81-27.21-50.44-36.05-50.44-36.05l-4.27,94.63v43.86c5.4,2.13,10.63,3.64,15.4,4.29Z"/>
  <g>
    <path class="cls-39" d="M1040.51,386.13c-8.69,2.15-13.15,11.73-15.28,20.43-8.04,32.83-3.19,62.29-.11,94.82,0,0,5.52,2.41,10.46,3.35"/>
    <path class="cls-43" d="M1040.44,385.87c-6.06,1.57-10.18,6.32-12.8,11.8-3.38,7.07-4.71,15.2-5.83,22.89-2.48,17.06-1.87,34.31-.36,51.42.87,9.87,2,19.72,2.94,29.59.03.06.07.09.13.1,3.35,1.45,6.88,2.64,10.46,3.35.36.07,1.63-.51,1.18-.6-3.42-.68-6.76-1.81-9.98-3.15-.54-.22-.42-.2-.42-.82,0-1.26-.25-2.57-.37-3.83-.24-2.45-.49-4.9-.75-7.34-.96-9.34-1.95-18.68-2.55-28.06-1.19-18.76-.77-38.07,4.23-56.31,2.04-7.44,6.05-16.41,14.24-18.54.85-.22.72-.74-.14-.52h0Z"/>
  </g>
  <path class="cls-41" d="M794.45,687.21s23.88-5.41,35.36,9.94c11.48,15.35-3.65-7.12,3.16,7.79,6.81,14.91,8.47,23.19,27.46,28.09,18.99,4.89,13.83,23.69,19.45,35.17,5.62,11.48,45.81,20.61,45.81,20.61,0,0-12.5-13.06,12.05-30.12,24.55-17.05-26.22-70.33-26.22-70.33l-30.46-48.07-86.61,46.93Z"/>
  <path class="cls-18" d="M931.76,622.92l10.93,23.5-3.32.83s-25.72,11.58-32.32,12.1c-6.6.52-21.93,3.64-21.93,3.64,1.15,1.7,1.67,3.74,1.47,5.78-.39,2.33-1.72,4.39-3.67,5.72l-8.65-8.87c-.96,5.05-5.85,2.33-5.85,2.33l-6.58-8c-.91,6.31-7.34,2.92-7.34,2.92l-5.18-11.97c-1.17,2.34-2.8,4.44-4.78,6.15-2.63,1.91-4.53-2.87-4.53-2.87l7.2-21.58,27.73-14.4,54.91,5.58,1.91-.86Z"/>
  <path class="cls-5" d="M849.59,651.4c.17-.06-.27-1.96-.62-5.25-.08-.82-.2-1.76-.22-2.66,0-.92.35-1.8.99-2.46,1.55-1.76,3.25-3.39,5.08-4.85,1.94-1.57,3.89-2.92,5.7-4.21,1.81-1.28,3.4-2.43,4.8-3.23"/>
  <path class="cls-5" d="M862.13,660.37c-.38-.8-1.17-1.88-1.63-3.28-.54-1.73-.66-3.56-.35-5.34.08-.99.27-1.98.59-2.92.65-.84,1.45-1.55,2.36-2.09,3.89-2.68,7.8-4.71,10.38-6.57"/>
  <path class="cls-5" d="M874.66,665.57c.17-.17-.99-1.14-2.24-3-.79-1-1.26-2.22-1.35-3.49,0-1.51.73-2.92,1.96-3.78,1.31-.94,2.77-1.65,4.32-2.12l3.9-1.46c.98-.38,1.87-.81,2.44-1"/>
  <path class="cls-33" d="M930.19,304.81c5.63.41,17.78,5.28,20.1,7.99,0,0-6.15,7.72-19.21,6.78-13.06-.94-15.52-9.28-15.52-9.28,0,0,7.45-6,14.62-5.49Z"/>
  <path class="cls-23" d="M945.18,309.61s-7.11-1.14-12.81-1.55c-5.7-.41-12.9-.3-12.9-.3,0,0-.58-4.69,9.76-3.95,10.34.74,15.95,5.8,15.95,5.8Z"/>
  <path class="cls-11" d="M929.56,317.22c6.19-.57,13.64-5.45,20.73-4.43,0,0-3.69,12.04-19.05,10.94-15.36-1.11-15.68-13.44-15.68-13.44,7.17,0,7.95,5.48,14,6.93Z"/>
  <path class="cls-11" d="M923.76,300.8c3.24-.04,5.19,1.52,6.59,1.62,1.4.1,3.55-1.17,6.76-.66,3,.48,15.17,9.95,13.66,10.95-1.51,1.01-10.97-5.99-20.68-6.69-9.71-.7-13.64,5.33-14.99,4.12-1.35-1.21,5.62-9.31,8.66-9.35Z"/>
  <path class="cls-18" d="M1155.73,358.62c-3.56,1.13-55.49,22.6-64.58,49.48-9.1,26.88-8.22,113.69-13.3,137.55-6.31,27.77-3.5,105.37-4.42,112.3l-2.07,25.2,38.99-7.01s-4.12-142.18,11.32-179.59c15.44-37.4,34.06-137.92,34.06-137.92Z"/>
  <path class="cls-22" d="M1052.29,755.36c-1.54-4.67-1.1,12.89-3.04,8.41-4.39-10.13-9.69-19.81-15.59-29.03-6.07-9.48-12.83-18.48-20.24-26.82-5.04-5.67-10.39-11.05-16.06-16.01,90.54-39.05,303.24-75.96,303.24-75.96,0,0,69.49,36.72,46.56,114.68-6.87,23.36-28.34,24.12-58.59,28.84-71.65,11.18-179.63,17.15-233.65,11.51-.36-.04-2.27-15.58-2.63-15.62Z"/>
  <path class="cls-22" d="M1051.64,773.28c-2.09-4.23-4.39-8.35-6.84-12.35-5.54-9.04-11.88-17.51-18.74-25.45-7.05-8.17-14.7-15.77-22.89-22.65-5.56-4.68,11.2-19.56,5.12-23.46-22.82-68.08,321.66-47.67,321.66-47.67,0,0,22.37-28.7,22.99,57.45.58,80.95-227.31,59.71-301.32,63.39-.35.02.37,10.72.02,10.74Z"/>
  <path class="cls-22" d="M981.94,765.5c19.75,56.46,63.38,216.15,90.59,284.43,0,0,74.82,3.8,80.45-13.41,0,0,1.63-382.4-44.23-388.58-33.8-4.55-91.33,7.69-108.78,22.04-20.95,17.22-33.58,51.06-18.03,95.52Z"/>
  <path class="cls-22" d="M1018.51,727.66s11.49-2.21,27.9-1.87c-3.17-6.89-4.26-12.02-4.26-12.02,1.52-1.74,3.13-3.52,4.82-5.34,9.39,2.2,18.57,5.22,27.47,8.84,10.36,4.2,20.37,9.2,29.93,14.89,9.22,5.49,18.02,11.68,26.15,18.6,2.3,1.96,4.54,3.99,6.71,6.08-.28.09,4.51-.62,4.23-.54,31.73,33.13,30.93,107.1,49.28,174.22,13.46,49.22,31.03,106.19,31.03,106.19-7.29,16.56-98.04,23.36-98.04,23.36-32.26-89.33-105.23-332.4-105.23-332.4Z"/>
  <path class="cls-21" d="M1119.21,1047.85c-.53-1.58-1.06-3.16-1.59-4.74-1.48-4.42-2.96-8.84-4.44-13.26-2.27-6.79-4.54-13.57-6.8-20.36-2.9-8.68-5.79-17.36-8.67-26.04-3.36-10.1-6.71-20.19-10.05-30.29-3.66-11.04-7.3-22.08-10.94-33.13s-7.57-23.02-11.34-34.54-7.51-23.01-11.25-34.52c-3.57-11.02-7.13-22.05-10.66-33.09-3.22-10.07-6.42-20.15-9.59-30.23-2.71-8.64-5.39-17.29-8.02-25.95-2.04-6.73-4.05-13.48-5.96-20.25-1.23-4.35-2.46-8.71-3.42-13.13-3.52-16.21-3.19-33.7,4.42-48.75,3.67-7.27,8.91-13.61,15.49-18.43s14.7-8.18,22.9-9.84c5.19-1.06,10.53-1.35,15.8-1.81,8.48-.74,16.96-1.49,25.44-2.23,11.08-.97,22.16-1.94,33.24-2.91,10.48-.92,20.97-1.84,31.45-2.75,6.69-.59,13.39-1.17,20.08-1.76.93-.08,1.86-.16,2.79-.24,1.12-.1,1.9-1.4.31-1.26-3.78.33-7.56.66-11.34.99-9.12.8-18.25,1.6-27.37,2.4-11.24.98-22.47,1.97-33.71,2.95-10.15.89-20.3,1.78-30.46,2.67-5.75.5-11.51,1.01-17.26,1.51-11.92,1.04-23.63,4.59-33.38,11.69-12.84,9.34-20.38,24.05-22.32,39.64-1.41,11.33.02,22.77,2.86,33.77,1.44,5.57,3.04,11.11,4.66,16.63,2.28,7.76,4.64,15.51,7.03,23.24,2.91,9.43,5.87,18.84,8.85,28.24,3.37,10.63,6.77,21.26,10.19,31.88,3.67,11.41,7.37,22.81,11.08,34.2,3.78,11.62,7.58,23.23,11.39,34.83,3.74,11.39,7.49,22.77,11.25,34.15,3.54,10.72,7.09,21.43,10.64,32.14,3.15,9.49,6.3,18.97,9.46,28.45,2.6,7.82,5.21,15.63,7.82,23.45,1.9,5.69,3.8,11.37,5.71,17.06,1.02,3.03,2.03,6.07,3.05,9.1.13.38.26.76.38,1.14.27.8,2.54.15,2.28-.61h0Z"/>
  <path class="cls-15" d="M1345.85,362.05c-4.33-9.85-27.46-26.38-37.61-31.22-26.44-12.57-56.46-27.77-56.46-27.77,0,0-24.23,35.5-64.61,27.29-32.88-6.69-14.95-21.69-14.95-21.69h0c-19.01,6.9-49.99,19.55-64.81,33.42-12.61,11.81-15.42,22.59-19.34,38.72-3.03,12.46-6.93,37.46-17.21,67.52-1.03,3.01-9.99,24.96-10.13,25.55-1.06,4.33-.32,8.49,17.72,14.69,9.13,3.14,12.88,3.26,16.86,5.2.44.95,4.07,51.93,4.13,53.19.98,20.11.93,41.19-.72,63.32-.04.5,1.48,34.09,1.45,34.58,1.68,0-6.85-.02-5.17,0,26.47.33,44.75-.06,73.37-1.11,13.31-.49,29.94-5.24,43.18-3.81,2.68.29,4.47.53,7.31.8,2.46.23,4.92.42,7.38.61,13.52,1.03,46.75-3.89,60.22-2.37,14.27,1.61,41.75,1.26,55.42,5.57,2.63.83,3.05,3.23,5.87,4.43.45-5.52,1.05-23.62,1.46-29.14,3.41-47.43-20.28-48.62-19.6-136.1l4.28-9.11,28.9-14.56c-7.16-53.06-6.14-73.4-16.96-98.01Z"/>
  <path class="cls-8" d="M1095.7,409.85c-.8,21.3-1.17,42.63-1.15,63.95,0,6.01.05,12.01.17,18.02,0,.42,1.46.15,1.45-.39-.43-22.07-.1-44.17.49-66.24.14-5.18.3-10.36.49-15.54.02-.57-1.43-.27-1.45.19h0Z"/>
  <path class="cls-44" d="M1158.33,272.2c2.43,4.36,4.63,8.87,7.23,13.11.04.06.05.13.07.19.24-.17.55-.19.76.14,1.83,2.86,3.65,4.1,5.25,7.13,1.37,2.61,1.19,6.52,1.18,9.59,2.05.45,5.89.31,8.49.62,17.62.58,18.09-1.77,42.33-15.79,7.7-4.45,6.54-10.52,8.03-11.59-24.09-1.91-48.1-2.11-73.34-3.4Z"/>
  <path d="M1271.81,216.04s4.22-11.32,10-38.57c5.17-24.4-32.53-46.75-55.71-51.61-12.74-2.67-56,.54-67.37,5.21-11.38,4.67-17.95,19.42-20.38,40.92,0,0,7.89-21.07,21.53-19.87,11.13.98,47.35-2.72,56.56,1.77,9.21,4.5,29.52,14,28.69,47.88-.23,9.24,16.64.35,20.86,6.14,4.21,5.79,5.82,8.13,5.82,8.13Z"/>
  <path class="cls-18" d="M1251.21,254.64l5.39-33.06,3.51-37.12-13.16-28.95-25.83-14.18-30.11-.55s-24.38,4.75-32.08,6.39c-7.7,1.63-13.51,10.65-19.18,20.77-5.67,10.13-4.31,27.47-4.31,27.47-.24.58.28,3.25.38,3.8,1.16,7,1.33,13.08,2.31,18.31.46,2.48.34,4.76-.52,7.02-3.35,8.88-3.5,12.75-3.04,18.31.62,7.59,1.7,14.07,4.18,20.14,2.63,6.43,6,13.41,6.69,14.78,0,0,7.58,14.5,9.3,15.97,1.73,1.47,4.34,2.89,5.6,3.09,1.25.2,17.74,2.07,17.74,2.07l7.69.19c2.62.06,5.22-.39,7.65-1.34,6.61-2.57,25.49-10.3,30.71-13.6,7.03-4.44,16.08-23.87,16.08-23.87"/>
  <path d="M1245.47,222.17c-.28,2.87-.72,14.3-1.17,17.09l14.88.36c4.91-9.66,10.81-21.02,12.62-23.58,2.84-4.01,4.14-24.01,4.64-31.54l.11-1.62c.49-7.22-5.91-19-17.13-31.52-12.34-13.78-34.95-22.29-57.58-21.69-2.15.06-4.3.2-6.39.41-19.73,2.03-36.44,11.1-49.66,26.94-9.54,11.43-10.73,24.91-10.34,33.18,1.26-16.23,7.47-27.43,7.74-27.9,5.89-10.82,12.9-13.68,17.75-14.18,4.23-.43,7.33.83,7.95,1.11,4.72,1.28,11.72.93,16.78.41,3.77-.39,6.77-.9,7.59-1.05,2.61-1.64,6.45-2.76,11.13-3.25,10.88-1.12,26.46,1.47,29.48,6.37,3.35,5.43,10.59,24.58,10.46,28.97"/>
  <path class="cls-18" d="M1249.76,255.32c8.39,9.2,14.75-7.63,14.75-7.63,8.71-9.84,9.02-20.59,8.94-27.95-.08-7.36-8.18-7.5-8.18-7.5-6.89.54-10.07,4.14-16.51,27.13"/>
  <path d="M1145.74,154.33c5.29-7.87,15.37-17.63,21.18-25.13,2.65-.16,15.72,0,18.47-.02,28-.17,64.98,17.21,68.23,27.51,2.02,6.42-.68,40.92-2,44.02-3.64,8.51-5.35,19.75-5.35,19.75-.7-13-9.47-27.76-10.48-32.25-1.01-4.49,5.65-25.36,4.25-26.3-1.41-.94-26.66-9.64-55.19-10.18-8.41-.16-16.86.29-24.39,1.03.06-.08-14.77,1.65-14.71,1.56Z"/>
  <path d="M1197.59,211c1.73-.84,3.71-1.52,4.81-.5.26.24.95.92,1.25,2.05.39,1.45-.23,3.06-1.15,4.03-1.24,1.29-3.25,1.47-4.77.71-2.06-1.03-2.68-3.56-2.12-5.37.1-.33.59-.24,1.98-.93"/>
  <path d="M1147.54,209.53c-1.69-.93-3.7-.21-4.85.75-.27.23-.99.87-1.35,1.99-.46,1.43.08,3.07.95,4.08,1.17,1.35,3.17,1.63,4.73.95,2.11-.92,2.85-3.42,2.38-5.26-.09-.34-.5-1.76-1.86-2.51"/>
  <path d="M1161.44,216.67s-6.71-7.05-11.74-7.63c-7.33-.86-9.26.75-11.94,4.06,0,0,4.9-3.4,10.05-2.66,4.92.71,13.63,6.23,13.63,6.23Z"/>
  <path d="M1186.16,215.03s10.56-6.07,15.62-5.99c7.38.12,15.98,4.83,18.21,8.46,0,0-11.32-6.88-16.52-6.82-4.97.06-17.32,4.35-17.32,4.35Z"/>
  <path d="M1189.32,184.72c-.59,1.65-1.17,3.31-1.76,4.97-.44,1.27-1.55,4.12-1.99,5.38,4.41.37,8.61.07,11.38.55,5.49.94,11.24,1.54,16.18,4.21,2.37,1.28,4.34,2.7,5.97,4.72.52.64,1.67,3.01,2.82,2.92.47-.04.53-2.31.54-2.54.11-4.59-2.82-7.55-6.78-10.07-8.09-5.13-17.02-8.07-26.36-10.13"/>
  <path d="M1133.84,195.95s2.52-1.6,2.54-1.62c7.06-4.52,14.89-6.83,23.1-8.26.54,1.67,1.09,3.34,1.63,5.02.41,1.28,1.23,3.55,1.64,4.83-3.89.08-7.36-.2-9.79.08-4.83.56-9.93,1.1-14.26,3.4-.34.18-3.23,1.37-3.55,1.57-2.21-1.83-1.84-4.45-1.32-5.02Z"/>
  <g>
    <path class="cls-9" d="M1166.2,245.6c2.13,1.21,5.43,1.02,7.63-.31.49-.29,2.09.04,1.4.45-2.92,1.75-7.64,1.8-10.39.24-.27-.16-.22-.37.13-.48.36-.11.93-.08,1.22.09"/>
    <path class="cls-9" d="M1176.19,245.14c1.47-.67,3.1-1,4.73-1.08.24-.01.54.09.71.25.13.13.16.3-.02.4-.76.42-1.72.58-2.59.54-.28-.01-.64-.09-.79-.34-.14-.23.13-.37.35-.36.72.03,1.47-.1,2.09-.44.23.22.46.43.69.65-1.45.08-2.91.39-4.23.98-.26.12-.63.03-.86-.12-.17-.11-.35-.36-.09-.48"/>
    <path class="cls-9" d="M1182.63,245.51c1.9,0,4.15-.79,5.12-2.23,1.46-2.17.24-5.68-2.1-7.15-.25-.16-.11-.36.15-.41.34-.07.74.07,1.01.24,2.04,1.28,3.3,4.16,2.94,6.23-.34,1.93-2.19,3.23-4.47,3.74-.68.15-1.4.24-2.11.25-.29,0-.8-.1-.94-.33-.14-.24.13-.33.4-.33"/>
    <path class="cls-9" d="M1162.75,244.53c.11-.22-.08-.37-.23-.37-.51,0-1.03-.16-1.46-.53-.17.21-.34.41-.52.62,1.02.14,2.04.51,2.95,1.16.18.13.44.05.61-.08.12-.1.26-.34.08-.47"/>
    <path class="cls-9" d="M1164.18,244.85c-1.01-.73-2.15-1.12-3.3-1.28-.17-.02-.39.06-.51.22-.1.12-.12.29,0,.4"/>
    <path class="cls-9" d="M1158.8,244.7c-1.23-.08-2.66-.96-3.24-2.44-.86-2.23.06-4.83,1.63-6.2.17-.15.09-.35-.08-.41-.22-.08-.48.04-.66.2-1.37,1.2-2.29,3.17-2.14,5.25.14,1.94,1.29,3.32,2.75,3.92.44.18.9.3,1.36.33.19.01.53-.07.62-.3.1-.23-.07-.34-.25-.35"/>
  </g>
  <path class="cls-14" d="M1172.75,259.83c4.23.05,16.94.52,16.94.52,0,0-4.52,3.83-17.2,3.68-12.68-.15-16.82-3.93-16.82-3.93l17.09-.28Z"/>
  <path class="cls-38" d="M1256.16,235.41c1.29-3.96,2.78-7.98,5.06-11.49.58-.88,1.21-1.73,1.97-2.47.26-.25.4-.38.68-.59.1-.08.21-.15.32-.22.05-.03.09-.06.14-.09.14-.09-.11.06.02-.01.08-.04.17-.08.25-.12.19-.09-.03-.02.02,0,.1.03.25-.04-.03,0l-.59-.18c.64.62,1.11,1.48,1.46,2.29,1.01,2.34,1.16,4.92.87,7.43-.08.68,1.39.46,1.46-.14.35-2.97.08-6.08-1.4-8.73-.41-.73-.94-1.83-1.92-1.59-.7.17-1.35.62-1.89,1.08-1.31,1.1-2.32,2.53-3.19,3.99-2.05,3.41-3.45,7.21-4.68,10.99-.2.61,1.27.44,1.46-.14h0Z"/>
  <path class="cls-38" d="M1257.54,236.64c2.28-.06,1.45,3.55,1.24,4.88-.16,1.01-1.02,4.31.86,4.3.99,0,1.58-.77,1.98-1.58.72-1.47,1.11-3.12,1.44-4.71.42-2.01.61-3.78.38-5.81-.26-2.34-.95-5.26-3.31-6.33-.41-.18-1.73.42-1.16.68,1.97.89,2.62,3.34,2.92,5.3.22,1.43.32,2.89.09,4.32-.28,1.76-.64,3.52-1.2,5.22-.19.56-.39,1.13-.67,1.65-.05.1-.34.42-.34.52,0,.03-.07.05-.07.08l.6-.11s-.07-.07-.1-.11c-.03-.26-.23-.52-.26-.82-.04-.44.02-.9.07-1.34.12-1,.32-1.98.43-2.98.21-1.88.06-4.01-2.32-3.95-.26,0-.84.09-.96.39s.09.4.38.4h0Z"/>
  <path class="cls-38" d="M1179.21,195.33c-2.05-.92-3.32-2.98-3.77-5.12-.57-2.69.16-5.47,1.13-7.97.3-.78-1.15-.79-1.39-.18-1.06,2.75-1.83,5.79-1.14,8.73.56,2.39,2.08,4.51,4.35,5.52.62.28,1.68-.61.83-.99h0Z"/>
  <path class="cls-33" d="M1170.11,256.98c6.32.08,20.21,4.72,22.98,7.59,0,0-6.35,9.03-21.01,8.84-14.65-.19-17.94-9.33-17.94-9.33,0,0,7.92-7.2,15.97-7.1Z"/>
  <path class="cls-23" d="M1187.17,261.35s-8.01-.8-14.41-.88c-6.4-.08-14.42.52-14.42.52,0,0-.96-5.2,10.64-5.05,11.6.15,18.2,5.42,18.2,5.42Z"/>
  <path class="cls-11" d="M1170.23,270.89c6.88-1.04,14.87-6.99,22.86-6.32,0,0-3.32,13.69-20.55,13.47-17.22-.22-18.4-13.97-18.4-13.97,8.01-.47,9.24,5.59,16.09,6.81Z"/>
  <path class="cls-11" d="M1162.67,252.93c3.62-.26,5.9,1.35,7.47,1.37,1.57.02,3.89-1.54,7.5-1.18,3.39.33,17.6,10.11,15.98,11.33-1.62,1.22-12.64-5.96-23.54-6.1-10.89-.14-14.88,6.86-16.47,5.59-1.59-1.26,5.66-10.77,9.05-11.01Z"/>
  <path class="cls-18" d="M1355.27,466.72c-21.07,2.44-42.1,5.25-63.17,7.69l4.12,100.69-18.92,9.32-103.49,59,16.46,31.14s61.24-16.14,85.88-21.78c1.4-.32,42.83-15.2,51.78-18.44,15.5-5.62,21.11-13.63,25.47-25.64,5.4-14.91,5.27-44.78,4.12-60.31-1.15-15.4-1.67-66.3-2.24-81.67Z"/>
  <path class="cls-18" d="M1187.96,644.63l13.15,26.67-3.79,1.03s-29.2,13.95-36.76,14.71c-7.56.76-25.06,4.75-25.06,4.75,1.36,1.92,2.01,4.25,1.83,6.59-.39,2.68-1.86,5.08-4.07,6.65l-10.15-9.95c-.97,5.82-6.65,2.82-6.65,2.82l-7.75-9.01c-.88,7.26-8.35,3.54-8.35,3.54l-6.26-13.6c-1.29,2.72-3.09,5.16-5.32,7.18-2.97,2.26-5.27-3.17-5.27-3.17l7.71-24.93,31.43-17.23,63.13,4.98,2.16-1.04Z"/>
  <path class="cls-5" d="M1094.54,679.71c.2-.07-.36-2.28-.86-6.11-.11-.95-.28-2.05-.33-3.09-.03-1.07.36-2.11,1.09-2.89,1.75-2.1,3.69-4.03,5.79-5.78,2.22-1.88,4.46-3.51,6.54-5.05,2.08-1.54,3.89-2.93,5.51-3.89"/>
  <path class="cls-5" d="M1107.99,687.79c-.46-.93-1.41-2.16-1.99-3.78-.68-2-.86-4.13-.55-6.22.06-1.16.27-2.31.61-3.42.73-1,1.65-1.85,2.7-2.5,4.46-3.22,8.97-5.69,11.92-7.93"/>
  <path class="cls-5" d="M1123.56,695.03c.19-.19-1.16-1.28-2.65-3.38-.93-1.13-1.5-2.51-1.64-3.97-.04-1.73.76-3.37,2.16-4.39,1.48-1.11,3.14-1.97,4.9-2.54l4.43-1.77c1.12-.46,2.12-.98,2.77-1.21"/>
  <path class="cls-44" d="M1294.94,576.1c4.43-1.58,9.26,1.26,12.73,3.8,3.64,2.67,6.94,5.76,9.89,9.18.36.41,1.99-.19,1.59-.65-3.45-4-7.42-7.71-11.88-10.55-3.9-2.49-8.44-4.04-12.98-2.41-1.13.4-.09.9.65.63h0Z"/>
  <path class="cls-15" d="M1355.64,396.34s6.79,43.92,8.75,77.95c0,0-44.7,17.41-87.44,8.03-37.91-8.32,5.4-59.6,5.4-59.6l73.29-26.39Z"/>
  <path class="cls-8" d="M1303.37,350.67c-2.9-.38-6.13.63-8.69,1.89-7.32,3.63-11.82,11.12-14.56,18.53-2.56,6.92-3.9,14.26-4.66,21.58-1.1,10.49-1.04,21.13-1.15,31.67-.16,14.43-.08,28.89.69,43.31.19,3.5.41,7,.74,10.5.09.95.18,1.9.29,2.85.05.42.02.97.17,1.37.02.05.02.11.02.16.02.12.19.25.3.27,10.03,2.12,20.5,2.92,30.73,2.83,8.87-.08,17.48-1.36,26.16-3.1,7.22-1.45,14.4-3.11,21.52-5.01,3.21-.86,6.43-1.73,9.59-2.75.87-.28.63-1.22-.25-.94-6.73,2.16-13.63,3.87-20.5,5.46-7.17,1.66-14.43,3.27-21.72,4.3s-14.38,1.21-21.58.91c-5.55-.23-11.08-.75-16.58-1.54-1.61-.23-3.22-.49-4.83-.78-.44-.08-.89-.16-1.33-.25-.73-.14.06-.04-.05.2.13-.27-.15-1.13-.18-1.41-.16-1.41-.29-2.81-.42-4.22-1.44-16.88-1.48-33.9-1.32-50.82.13-13.75-.1-27.74,2.31-41.33,1.42-8.03,3.75-16.31,8.48-23.07,2.55-3.65,5.93-6.84,10.1-8.52,1.21-.49,2.59-.85,3.75-1,.46-.06.92-.1,1.38-.12.44-.02.29,0,.77,0,.1,0,.2.01.3.03.68.09,1.49-.88.51-1h0Z"/>
  <path class="cls-24" d="M824.26,557.04c-6.45-2.36-17.6-10.55-21.93-24.21-13.14-41.41-33.35-122.18-39-161.85l18.98,10.88,7.05-15.22,61.3,135.97"/>
  <path class="cls-44" d="M848.58,523.39c2.96-6.63,1.59-14.68-.17-21.43-2.09-8.03-5.38-15.78-9.27-23.1-1.63-3.07-3.38-6.1-5.38-8.94-.31-.43-1.96.12-1.59.65,4.01,5.67,7.16,12.03,9.87,18.41,3.15,7.43,5.86,15.39,6.41,23.5.26,3.76-.01,7.66-1.57,11.14-.21.47,1.46.3,1.7-.23h0Z"/>
  <g id="freepik--Character--inject-2-2" data-name="freepik--Character--inject-2">
    <path class="cls-24" d="M796.46,382.36l-7.11-17.82s1.67-16.17.1-20.95c-1.57-4.78-12.7-21.42-13.47-22-.78-.58-3.8-25.46-8.46-26.13-4.66-.67-8.68,1.53-9.27,7.84-.59,6.31,5.63,21.19,2.3,22.31-2.61.67-5.32.84-8,.48,0,0,.71-5.87-2.34-9.21-3.06-3.35-7.29-2.63-7.29-2.63l-.63,5.55-4.68-7.22s.02-14.32-5.88-16.06c-.47-3.4-.68-6.88-2.46-9.82-1.72-2.38-5.04-2.91-7.42-1.19-.42.3-.79.66-1.1,1.07h0l1.01,34.28,19.23,40.97s16.5,9.92,19.47,12.6c2.98,2.67,6.69,17.62,8.41,16.75,14.35-7.26,27.59-8.82,27.59-8.82Z"/>
  </g>
  <path class="cls-31" d="M786.69,362.77c-1.05,1.11-2.07,1.94-3.59,2.27-2.09.46-4.29.38-6.42.33-.32,0-.76.25-.8.6-.04.39.38.49.67.49,2.37.05,4.8.12,7.12-.47,1.75-.45,3.01-1.49,4.23-2.78.24-.26.1-.6-.19-.72-.35-.14-.78.01-1.02.27h0Z"/>
  <path class="cls-31" d="M759.54,360.95c.38-3.63-.76-6.94-2.42-10.12-.87-1.66-1.83-3.28-2.69-4.95s-1.87-3.52-1.97-5.48.21-4.08.31-6.1c.1-1.79.19-3.59.31-5.38.24-3.59.79-7.95-1.25-11.15-1.74-2.73-5.32-4.73-8.58-4.34-.27.03-.76.19-.82.51-.97,6-1.58,12.06-2.45,18.08-.43,2.98-.95,5.92-.98,8.94s.34,5.94,1.01,8.85c.13.54,1.58.17,1.45-.39-.69-2.98-1.07-6.02-1-9.08s.62-5.96,1.04-8.93c.84-5.87,1.44-11.77,2.38-17.62l-.82.51c3.03-.36,6.6,2.07,7.81,4.8,1.58,3.56.88,7.76.65,11.51-.09,1.53-.17,3.06-.25,4.59-.1,1.81-.35,3.66-.28,5.48.12,3.36,2.55,6.62,4.11,9.49,1.86,3.42,3.4,6.96,2.98,10.94-.07.62,1.4.37,1.45-.16h0Z"/>
  <path class="cls-31" d="M736.3,329.77c2.28-9.04,3.02-18.93.8-28.06-.46-1.88-1.22-3.41-2.82-4.56-1.23-.88-2.68-1.24-4.17-1-1.37.22-1.73.63-2,1.97-.39,1.91-.66,3.85-.98,5.78-.99,5.91-1.99,11.82-2.98,17.73-.02.13,1.38.05,1.45-.39.76-4.52,1.52-9.03,2.28-13.55.37-2.22.74-4.43,1.12-6.65.14-.82.27-1.64.41-2.45.08-.45.1-1.53.43-1.85.43-.41,1.69.13,2.18.36.75.35,1.41.88,1.97,1.48,1.31,1.38,1.66,3.31,2.01,5.12.78,3.98,1.03,8.06.9,12.12-.15,4.8-.85,9.56-2.02,14.21-.07.28,1.34.09,1.43-.26h0Z"/>
  <path class="cls-31" d="M771.8,326.37c-3.24-.46-6.52-.26-9.7.5-.12.03-.73.19-.67.39s.69.02.78,0c2.75-.66,5.6-.76,8.4-.36.33.05.71-.06,1.01-.19.1-.05.51-.29.19-.34h0Z"/>
  <path class="cls-40" d="M186.94,313.71c18.72,5.31,42.75,27.8,51.94,54.83,9.19,27.02-3.26,147.91,1.89,171.89,6.4,27.92,15.65,34.9,45.56,80.27l4.49,7.08-57.92,6.71s-12.33-47.96-27.91-85.56c-15.57-37.6-18.06-235.21-18.06-235.21Z"/>
  <polygon class="cls-18" points="234.62 1012.83 228.18 956.47 281.34 957.4 274.21 1012.62 234.62 1012.83"/>
  <path class="cls-10" d="M10.32,569.77s-60.36,93.32-23.33,163.45c17.64,33.39,70.44,33.37,70.44,33.37l54.16-68.1v-112.63l-101.26-16.08Z"/>
  <path class="cls-40" d="M206.39,511.05c.74-7.38,1.1-15.33,2.69-22.57,3.08-13.98,16.93-22.27,28.5-28.7,2.81-1.56-5.15-2.13-2.26-3.51-.65-10.44,4.83-23.09,4.23-33.53-.97-16.81,3.77-32.49,1.32-49.18-2.32-15.77-12.94-33.92-25.96-44.36-5.46-4.37-7.41-7.42-13.67-10.41l-18.75-9.48c-.7-.16-11.28-4.97-12-5.09-1.53-.25-2.61-.15-3.32-1.05l-7.75-2.47-49.79-22.72-33.43,13.61s-46.7,14.4-56.01,21.47c-11.39,8.62,1.15,166.71,1.15,166.71,0,0-1.54,62.11-39.19,125.36-.25.42-1.25,3.35-1.39,3.82-.45,1.46,8.79,7.67,10.01,8.43,3.77,2.36,10.03,2.95,14.23,4.39,8.56,2.93,15.68,2.21,24.6,3.42,12.14,1.64,24.34,2.91,36.59,3.32,11.42.38,23.27-1.89,34.56-.89l126.88-7.29s-13.42-57.12-13.42-57.12c-1.54-6.56-3.77-12.9-5.05-19.55-1.33-6.93-2.2-13.95-2.6-20.99-.2-3.44-.31-6.9-.25-10.35,0-.43.03-.85.08-1.27Z"/>
  <path class="cls-10" d="M364.45,699.35c-2.74,86-10.92,232.88-23.95,320.66,0,0-63.15,32.9-72.5,13.65,0,0-22.72-179.51-53.8-284.92-27.37-92.83-193.47-99.91-172.38-108.33,33.2-13.24,246.21-42.15,287.36-26.6,27.28,10.31,37.08,28.51,35.26,85.53Z"/>
  <path class="cls-10" d="M331.59,623.91c-2.93-2.5-6.07-4.86-9.38-6.94-108.59-9.19-277.44,11.47-277.44,11.47,0,0-78.43,24.78-55.59,93.5,30.28,91.07,255.57,31.89,332.88,3.59.37-.14.73-.28,1.09-.41.44-5.28,1.16-10.54,2.07-15.73,2.05-11.74,5.16-23.26,9.01-34.45,3.92-11.39,8.66-22.47,14.23-33.04-5.02-6.53-10.61-12.64-16.86-17.98Z"/>
  <path class="cls-10" d="M323,629.07s-11.83.31-27.89,4.79c1.51-8.8,1.37-15.04,1.37-15.04-1.91-1.64-3.91-3.31-6-5-8.73,4.9-17.05,10.71-24.96,17.14-9.21,7.47-17.89,15.78-25.96,24.79-7.78,8.68-14.99,18.08-21.36,28.15-1.8,2.85-27.7,5.77-29.35,8.74.29.03.05,17.12.34,17.15-23.44,46.44,13.39,115.17,11.1,197.77-2.02,72.52-2.2,82.89-5.92,121.41,11.06,17.43,96.98,9.27,96.98,9.27,10.77-111.9,31.66-409.17,31.66-409.17Z"/>
  <path class="cls-40" d="M45.65,480.51l-3.05,35.61c.37.39.94.59,1.51.26,4.86-2.77,9.46-4.14,14.12-7.3l103.77,44.98-6.1,49.7s-109.85,1.33-135.85-6.24c-1.48-.43-17.57-6.96-18.99-7.42-13.78-4.55-24.22-22.67-28.12-35.78-4.84-16.28-2.42-34.82-.21-51.36,4.37-32.72,6.07-87.6,10.9-120.26,2.31-15.6-2.2-15.19,4-29.7,8.7-20.36,19.74-38.85,43.11-45.17l39.8-13.69"/>
  <path class="cls-42" d="M46.89,522.06c-4.51-.94-9.04.11-13.29,1.66-2.14.78-4.27,1.65-6.33,2.63-1.67.8-3.23,1.77-4.38,3.25-.37.48,1.07.35,1.34,0,1.14-1.47,2.73-2.34,4.4-3.08s3.4-1.47,5.13-2.11c3.92-1.47,8.06-2.48,12.24-1.61.43.09,1.7-.58.9-.75h0Z"/>
  <g>
    <path class="cls-40" d="M180.67,611.87l-4.68,9.65s-81.34-7.84-114.85-16.43c-27.92-7.16-37.06-5.05-65.2-23.61"/>
    <path class="cls-42" d="M179.96,611.99c-1.56,3.22-3.12,6.43-4.68,9.65l1.18-.42c-5.26-.51-10.51-1.06-15.76-1.63-12.26-1.32-24.5-2.75-36.73-4.33-13.77-1.77-27.53-3.7-41.2-6.1-13.06-2.29-25.84-5.68-38.81-8.41-6.5-1.37-13.01-2.75-19.29-4.92-7.5-2.59-14.57-6.25-21.35-10.36-2.26-1.37-4.48-2.79-6.69-4.25-.34-.22-1.56.37-1.37.49,7.41,4.88,15.08,9.44,23.3,12.82,6.08,2.5,12.41,4.21,18.83,5.62,7.73,1.7,15.48,3.24,23.16,5.2,5.4,1.37,10.86,2.49,16.33,3.51,13.52,2.52,27.15,4.48,40.79,6.28,12.71,1.68,25.44,3.2,38.19,4.6,4.34.48,8.68.94,13.03,1.39,2.11.22,4.24.52,6.36.64.1,0,.19.02.29.03.3.03,1.03-.11,1.18-.42,1.56-3.22,3.12-6.43,4.68-9.65.1-.2-1.25-.11-1.43.26h0Z"/>
  </g>
  <path class="cls-42" d="M36.93,330.93c4.56.88,8.23,4.23,11.03,7.76,3.5,4.42,6.07,9.57,8.03,14.84,2.54,6.81,4.33,14.17,4.19,21.48-.21,11.12-1.53,22.27-2.67,33.33-1.65,16.01-3.51,31.99-5.44,47.97-1.77,14.68-3.6,29.36-5.48,44.03-.64,5.01-1.29,10.02-1.94,15.03-.21,1.58-.41,3.15-.62,4.73-.1.75-.41,1.73-.33,2.49.01.09-.03.22-.04.31-.01.08.24.08.25.08,6.5.41,13.45,2.03,19.86,3.72,7.5,1.97,14.86,4.45,22.05,7.33,7.88,3.16,15.4,7,23.03,10.7,12.9,6.25,26.03,12.03,39.21,17.67,11.43,4.89,22.92,9.66,34.45,14.32,3.32,1.34,6.64,2.68,9.96,4,.73.29,1.49.55,2.2.87.1.05.32.19.26.02.05.14-.24.73-.29.86l-.58,1.75c-.27.79-.53,1.59-.8,2.38-.08.23,1.31.09,1.43-.27.56-1.67,1.11-3.33,1.67-5,.02-.04.02-.08-.03-.11-7.84-3.08-15.64-6.26-23.44-9.46-16.02-6.59-31.97-13.35-47.74-20.52-7.82-3.55-15.53-7.3-23.23-11.1-9.66-4.77-19.67-8.82-29.97-11.99-6.66-2.05-13.46-3.74-20.34-4.87-1.74-.29-3.49-.54-5.24-.72-.41-.04-.85-.13-1.26-.12-.47.02,0-.05,0,.04.79-4.5,1.19-9.1,1.78-13.62,1.36-10.54,2.7-21.07,4.01-31.62,1.65-13.24,3.25-26.48,4.79-39.73,1.44-12.47,2.84-24.94,4.05-37.43.82-8.49,1.73-17.03,1.88-25.57.09-5.26-.89-10.48-2.3-15.53-2.38-8.53-6.24-17.51-12.71-23.77-2.38-2.3-5.22-4.17-8.5-4.81-.33-.06-1.56.47-1.2.54h0Z"/>
  <path class="cls-42" d="M227.99,373.58c-3.21,4.3-5.01,10-5.36,15.3-.39,6.01,1.5,11.97,2.96,17.74,4.34,17.26,8.39,35.22,5.79,53.09-1.16,8-3.65,15.86-7.94,22.75-2.9,4.66-6.6,8.63-10.47,12.48-2.51,2.48-5.25,4.98-6.25,8.48-.9,3.16-1.22,6.49-1.39,9.75-.23,4.42-.11,8.85.25,13.26.42,5.18,1.19,10.33,2.31,15.41s2.64,10.36,3.96,15.53c1.65,6.47,3.26,12.95,4.8,19.45.08.34.16.67.24,1.01.14.6,1.59.23,1.45-.39-1.07-4.57-2.2-9.13-3.34-13.69-2.45-9.84-5.51-19.63-7.04-29.68-1.32-8.7-1.92-17.81-.65-26.56.32-2.23.69-4.64,1.87-6.6.88-1.46,2.09-2.71,3.27-3.93,3.42-3.5,6.94-6.85,9.88-10.79,4.25-5.71,7.21-12.24,9-19.12,4.61-17.77,1.62-36.43-2.59-53.96-1.48-6.19-3.4-12.36-4.39-18.66-1.05-6.66.6-13.67,4.1-19.4.18-.29.36-.58.55-.87.05-.07.36-.5.17-.26.54-.72-.84-.83-1.19-.35h0Z"/>
  <path class="cls-18" d="M81.94,226.48s10,34.93.89,58.77c-1.27,3.32-22.35,12.11-22.35,12.11l29.64,10.78c13.62,3.12,36.67,6.05,55.82,3.12,8.36-1.28,20-.57,26.07-6.47h0s-15.19-5.84-16.06-9.94c-.87-4.1,1.74-39,1.74-39"/>
  <path class="cls-44" d="M155.67,285.06s-8.15-3.83-13.2-4.9c-5.05-1.06-13.52-.2-37.69-18.5,0,0,8.33,23.92,37.85,27.19,0,0,8.29,1.23,13.16-.3l-.11-3.49Z"/>
  <path class="cls-18" d="M170.79,134.24c.11.08.22.15.33.23-.12-.16-.24-.33-.32-.51v.27ZM183.29,136.99c.18.17.38.35.59.52v-.23s-.58-.56-.59-.29ZM101.8,261.24c11.57,12.19,29.7,23.49,48.22,24.7,18.53,1.21,19.95-7.45,24.27-12.01,7.2-7.6,10.02-9.19,15.3-16.81,5.09-7.34,8.45-16.13,9.56-25.11,1.2-9.72-1.52-18.99-.64-28.66.4-4.39,2.63-21.66,3.15-31.81.53-10.15-9.59-26.11-9.59-26.11-.54-2.76-1.99-4.71-3.43-6.94l-1.2-.03s.59.29.57,1.11c-1.51-.27-3.01-1.12-4.14-2.06v.04c-1.82.78-3.59-.08-5.06-1.49,0,.27.28.83.58.84-1.8.23-3.58-.63-4.75-1.75,0,.27.28.83.28,1.1-1.35-.28-2.7-1.01-3.81-1.78.27.37,7.04-.53,7.04-.34-1.8.23.24.88-1.22-.53l-1.46-1.05c-1.5.24-1.47,1.14-2.64.02.29.28-.76-3.04-.76-2.77-1.8-.04-1.3-.15-2.78-1.01,0,.27-4.93,1.68-4.94,1.95-1.49-.03-1.13,1.35-2.3.22.29.28,1.11-1.13,1.4-.85-1.8.24-2.5,1.37-3.96-.03.29.28-5.85-3.14-5.85-3.14-1.8.23-1.51.81-2.98-.32.59.56-8.27-.7-7.98-.14-1.49-.03,2.73,5.55,1.56,4.69,0,.28-3.42-.9-3.42-.9-1.5.24.71,1.67-.46.54,0,.27.28,1.1.58,1.11-1.81.78-3.9.19-5.67-.95.59.56.87,1.12,1.17,1.4-1.5-.03-2.7.21-4.17-.92,0,.27.57,1.11.87,1.12-1.51.52-3.3.2-4.77-.66,0,.27.58.84.87,1.12-1.2.25-2.4.22-3.57-.63l.87,1.12c-1.2-.03-2.11.5-3.89-.09,0,.27.59.56.58.84-.9-.02-2.1-.05-2.99-.34,0,.27.88.84.58.84-1.2-.03-2.11.5-3.59-.08.29.28.58.84.87,1.12-1.2-.03-2.4.22-3.58-.36,0,.27.28.83.57,1.11-1.2-.03-2.11.5-3.59-.08,0,.27.58.84.87,1.12-1.2-.03-2.4.22-3.59-.08,0,.27.59.56.88.84-1.2-.03-2.4.22-3.88-.36-.01.55.28.83.27,1.1-.9-.02-1.49-.31-2.39-.33l-1.51.51c-4.31,5.4-4.42,23.8-4.42,23.8-9.44,7.2-13.36,22.22-13.18,27.45.18,5.22-1.57,16.45-1.57,16.45-1.45-1.95-4.65-6.15-5.5-8.36-.85-1.94-.2-4.4-1.06-6.34-2.59-4.45-8.61-3.22-11.96-.54l-.57.89c-4.72,6.1-.14,25.5,3.14,31.3.75,11.69,10.9,18.03,16.84,9.72l1.53,4.59"/>
  <path class="cls-20" d="M79.23,229.78c-3.51.31-7.17,2.28-7.69,6.05-.2,1.48.19,2.98,1.08,4.18.74,1.01,1.55,1.53,2.72,1.94,2.57.91,5.59.31,7.85-1.14.1-.06.4-.25.35-.43s-.4-.19-.52-.19c-.68-.03-1.52.19-2.09.56-.18.12-.37.23-.56.33.03-.01-.23.09-.16.07.06-.02.23-.05-.1.03.18-.04-.17.02-.2.02-.15.01-.27,0-.44,0-.62-.03-1.25-.19-1.83-.43-.86-.35-1.5-.79-2.06-1.55-1.48-2-1.49-4.74,0-6.74.38-.51.87-.92,1.35-1.23.02-.02.24-.14.12-.07s.16-.07.18-.09c.05-.03.25-.1,0,0,.1-.04.19-.07.29-.1.16-.06-.11.14-.03.01.05-.08.31-.06.04-.01.09-.01.17-.03.26-.05-.25.04.1,0,.16-.01.61-.05,1.54-.22,1.98-.7s-.39-.49-.69-.46h0Z"/>
  <path d="M87.9,185.15l-2.19,26.67-9.13-12s8.05-10.52,11.31-14.67Z"/>
  <g>
    <path class="cls-9" d="M162.84,232.98c-2.23,1.1-5.59.76-7.78-.66-.49-.31-2.13-.06-1.45.38,2.89,1.87,7.72,2.15,10.59.73.29-.14.24-.36-.11-.48-.36-.13-.95-.12-1.25.03"/>
    <path class="cls-9" d="M152.66,232.05c-1.47-.73-3.12-1.13-4.78-1.3-.24-.02-.56.06-.74.22-.14.12-.18.29,0,.39.75.45,1.73.66,2.62.66.28,0,.66-.06.82-.3.15-.22-.12-.37-.34-.37-.74,0-1.49-.17-2.11-.54-.25.2-.49.41-.74.61,1.48.15,2.96.52,4.27,1.18.26.13.64.06.88-.08.18-.1.37-.34.11-.47"/>
    <path class="cls-9" d="M146.07,232.11c-1.94-.09-4.2-.98-5.12-2.46-1.39-2.23.03-5.67,2.48-7.01.27-.15.13-.35-.13-.41-.35-.08-.76.04-1.04.19-2.14,1.17-3.57,4-3.3,6.06.25,1.93,2.08,3.31,4.39,3.92.69.18,1.42.31,2.14.34.29.01.82-.06.97-.29.15-.23-.12-.34-.39-.35"/>
    <path class="cls-9" d="M166.41,232.08c-.1-.22.1-.37.25-.36.52.03,1.06-.11,1.52-.46.17.21.33.42.5.64-1.05.09-2.11.41-3.06,1.01-.19.12-.46.03-.62-.11-.12-.11-.25-.35-.06-.47"/>
    <path class="cls-9" d="M164.94,232.33c1.06-.67,2.25-1.01,3.43-1.12.17-.01.39.08.52.24.1.13.11.29-.02.39"/>
    <path class="cls-9" d="M170.44,232.43c1.26-.02,2.77-.83,3.42-2.26.99-2.17.17-4.8-1.37-6.23-.17-.16-.07-.35.1-.4.23-.07.49.07.67.23,1.35,1.25,2.19,3.26,1.94,5.31-.24,1.92-1.47,3.23-3,3.76-.45.15-.93.26-1.41.26-.19,0-.53-.09-.62-.32-.09-.23.09-.33.27-.33"/>
  </g>
  <path d="M171.3,201.94s9.32-6.84,13.42-6.97c5.99-.18,12.18,4.71,14.08,7.85,0,0-8.45-6.72-12.66-6.46-4.03.24-14.84,5.58-14.84,5.58Z"/>
  <path d="M144.21,201.39s-8.77-7.41-13.24-7.85c-6.52-.65-14.53,3.62-16.86,6.59,0,0,10.61-5.9,15.2-5.32,4.38.55,14.91,6.58,14.91,6.58Z"/>
  <path d="M198.82,193.79c.03-.16.04-.33.1-.47.19-.46.37-.92.54-1.39.06-.33.16-.65.3-.95,0-.02,0-.03,0-.05-.14-.43-.21-.85-.25-1.27-.42-.84-.77-1.36-.83-1.45,0,0-1.57-2.33-4.67-4.29-2.14-1.35-8.46-3.87-17.37-5.61-.37,1.16-.75,2.33-1.12,3.5-.28.89-.56,1.78-.84,2.67,3.21.21,5.92.55,7.94.85,4.28.63,6.47.98,8.7,2.13,2.34,1.21,4.15,2.82,4.85,3.45.98.89,1.65,1.46,2.35,2.42.11.15.21.3.31.45Z"/>
  <path d="M144.1,176.18c.15,1.21.3,2.43.45,3.65.11.93.22,1.85.33,2.78-3.72-.31-6.89-.42-9.27-.45-5.04-.07-7.62-.08-10.44.7-2.96.82-5.4,2.12-6.35,2.63-1.33.72-2.23,1.18-3.26,2.02-2.24,1.82-3.02,3.65-3.44,3.55-.38-.09.02-1.66.07-1.82,1.04-3.95,4.16-6.62,4.4-6.83,0,0,2.34-2.06,6.34-3.49,2.76-.99,10.57-2.45,21.16-2.74"/>
  <path class="cls-14" d="M155.86,245.86c-4.38-.21-17.67-1.64-17.67-1.64,0,0,4.55,5.29,17.69,5.93,13.14.64,17.55-4.06,17.55-4.06l-17.57-.22Z"/>
  <path d="M189.64,195.86c-.34.03-.67.1-.99.24-1.21.54-1.66,1.72-1.76,2.01-.53,1.53-.07,3.71,1.66,4.64,1.28.68,3,.59,4.09-.48.81-.8,1.38-2.15,1.09-3.39-1.45-.87-2.78-1.94-4.1-3.01Z"/>
  <path d="M136.95,196.69c-.36-.21-.72-.41-1.08-.61-.76-.44-1.51-.93-2.06-1.63-.01-.01-.01-.03-.02-.04-.92,0-1.79.22-2.3.62-.24.19-.87.72-1.2,1.66-.43,1.2-.02,2.62.7,3.5.96,1.18,2.66,1.47,4.01.93,1.78-.71,2.48-2.73,2.19-4.29-.08-.05-.15-.1-.23-.15Z"/>
  <path class="cls-6" d="M80.02,213.72c-6.61-16.91-11.67-17.19-11.67-17.19,0,0-3.54,3.75-2.09,11.55"/>
  <path class="cls-6" d="M77.36,215.16c-4.53-.6-1.31,7.95-2.63,9.89-1.32,1.94-2.81-3.38-3.17-9.76,0,0,.27-8.59,4.62-10.02"/>
  <path class="cls-30" d="M193.99,156.05c-6.9-16.15-25.29-25.43-63.01-30.88-37.72-5.45-67.58,7.73-67.58,7.73,18.79-53.78,73.7-50.78,85.95-50.5,12.25.27,69.8,52.26,52.74,93.86l-1.11,4.22s-5.74-21.49-6.99-24.43Z"/>
  <path class="cls-30" d="M53.93,121.43s-3.78-34.04,21.25-44.88c33.44-14.48,78.73-20.2,94.14,15.03l-115.39,29.85Z"/>
  <path class="cls-37" d="M55.51,203.84c-2.68-2.82-1.77-10.66-4.05-13.81-11.95-16.52-7.67-32.34-2.76-41.69,2.14-4.07-.58-11.35-.31-14.95,1.45-18.89,3.63-19.42,32.18-38.21,23.23-15.29,48.03-14.03,62.37-12.94,22.97,1.74,33.07,3.4,40.75,19.89,1,2.15-.17,3.84.65,6.42,1.16,3.65,6.07,7.08,6.92,11.69,0,0-29.01,8.3-54.62,21.42-25.61,13.11-71.74,65.06-70.25,80.97.05.5-7.91-15.66-10.87-18.78Z"/>
  <path class="cls-30" d="M43.74,167.7s44.58-52.57,92.03-51.98c0,0-60.55-9.28-88.46,33.96l-.68,1.73c-1.79,4.57-2.75,9.42-2.86,14.33l-.04,1.95Z"/>
  <path class="cls-30" d="M184.97,109.18l-3.19-1.27c-7.42-2.96-15.22-4.83-23.17-5.55l-13.33-1.21s32.35-4.93,39.34,3.39l.34,4.64Z"/>
  <path class="cls-30" d="M71.93,172.64s-17.23,17.03-18.68,23.9l-1.8-6.5s5.34-12.36,20.48-17.39Z"/>
  <path class="cls-18" d="M194.3,583.46l4.39,1.84,53.53-7.83,31.69,12.58,10.07,22.5s-1.58,5.35-4.64,3.57c-2.33-1.64-4.32-3.73-5.84-6.13l-4.41,13.46s-6.66,4.33-8.3-2.37l-6.34,9.32s-5.05,3.45-6.62-1.89l-8.5,10.48c-2.27-1.22-3.93-3.3-4.59-5.77-.43-2.18-.07-4.44,1-6.39,0,0-17.01-1.75-24.26-1.6-7.25.14-29.26-8.21-29.26-8.21l-11.56-5.15c5.24-11.27,13.63-28.4,13.63-28.4Z"/>
  <path class="cls-44" d="M263.39,587.17c5.36,2.09,10.76,5.02,15.34,8.52,1.98,1.51,4.79,3.4,5.07,6.09.16,1.48-.05,3.1-.17,4.58s-.51,3.01-1.12,4.42c-.32.74,1.14.71,1.38.14,1.2-2.8,1.52-6.01,1.39-9.05-.11-2.81-2.42-4.57-4.43-6.22-2.5-2.05-5.29-3.75-8.12-5.31s-5.55-2.98-8.5-4.13c-.59-.23-1.69.62-.84.95h0Z"/>
  <path class="cls-44" d="M255.73,599.14c4.52,2.12,9.48,3.64,13.68,6.39,1.22.8,2.05,1.72,2.5,3.12.39,1.22.65,2.55.78,3.83.15,1.49.08,3.12-.41,4.55-.44,1.3-1.18,2.52-1.9,3.68-.39.62,1.08.55,1.36.09.74-1.18,1.51-2.45,1.97-3.78s.54-2.73.48-4.07c-.06-1.43-.33-2.94-.72-4.31s-.9-2.25-1.98-3.15c-2.1-1.76-4.94-2.86-7.42-3.97s-4.83-2.01-7.2-3.12c-.48-.23-1.79.45-1.14.76h0Z"/>
  <path class="cls-44" d="M248.93,613.82c1.97.38,4,.65,5.94,1.15s4.28,1.43,5.53,3.18,1.31,3.91.43,5.85c-.53,1.17-1.4,2.17-2.34,3.04-.28.26-.58.52-.89.74-.07.05-.18.1-.24.16-.14.14-.1,0,.12,0-.85,0-1.09,1.12-.11,1.12.49,0,1-.41,1.36-.69.81-.62,1.54-1.38,2.19-2.16,1.51-1.79,2.42-4.29,1.79-6.61-1.15-4.23-5.78-5.46-9.56-6.18-1.25-.24-2.49-.47-3.74-.71-.75-.14-1.45.92-.49,1.11h0Z"/>
  <path class="cls-13" d="M158.46,242.02c-6.87-.67-22.46,2.24-25.79,4.74,0,0,5.91,9.63,21.84,11.19,15.93,1.56,20.51-7.05,20.51-7.05,0,0-7.81-8.02-16.56-8.88Z"/>
  <path class="cls-23" d="M139.46,244.29s8.79.16,15.75.84c6.96.68,15.6,2.22,15.6,2.22,0,0,1.62-5-10.99-6.23-12.61-1.23-20.36,3.17-20.36,3.17Z"/>
  <path class="cls-11" d="M156.8,255.68c-7.35-1.84-15.37-8.65-24.13-8.93,0,0,2.1,13.87,20.83,15.7,18.73,1.83,21.52-11.56,21.52-11.56-8.64-1.42-10.65,4.4-18.22,4.79Z"/>
  <path class="cls-11" d="M166.99,238.92c-3.9-.69-6.55.63-8.26.46-1.71-.17-4.05-1.98-8.02-2.05-3.71-.07-20.23,7.85-18.6,9.25,1.62,1.4,14.39-4.36,26.23-3.2,11.84,1.16,15.41,8.51,17.27,7.46,1.86-1.05-4.96-11.26-8.62-11.91Z"/>
  <path class="cls-18" d="M930.15,960.75c-6.72,4.12-14.02,7.43-21.76,10.02-9.34,3.12-7.95-6.53-17.5-4.07,14.06,30.6,11.72,65.89,11.72,65.89-15.78,15.5-52.77,50.97-52.77,50.97,0,0,8.02,11.66,24.52,7.1,16.49-4.56,76.26-56.12,76.26-56.12l-8.73-7.58-11.74-66.22Z"/>
  <path class="cls-44" d="M673.22,278.43c4.3,4.36,7.85,9.4,10.48,14.93.26.54,1.68.09,1.45-.39-2.66-5.6-6.23-10.72-10.59-15.13-.39-.39-1.76.16-1.34.59h0Z"/>
  <path class="cls-44" d="M649.07,279.95c6.2,6.89,8.54,16.77,6.08,25.71-.12.45,1.32.24,1.44-.21,2.49-9.06.12-19.07-6.17-26.05-.3-.34-1.68.18-1.35.54h0Z"/>
  <path class="cls-44" d="M625.03,310.11c3.7,4.01,8.53,6.86,13.82,8.2.32.08.73-.02,1.02-.18.13-.07.5-.33.17-.41-5.23-1.32-9.98-4.16-13.64-8.12-.26-.29-1.62.23-1.36.51h0Z"/>
  <path class="cls-44" d="M1074.02,619.17c3.71-29.61,6.87-59.36,7.74-89.21.24-8.23.29-16.47.08-24.71-.01-.43-1.72-.13-1.7.46.78,29.92-1.7,59.88-4.96,89.6-.88,8.05-1.84,16.09-2.85,24.12-.07.57,1.63.25,1.69-.25h0Z"/>
</svg>