<svg id="Layer_1" data-name="Layer 1" xmlns="http://www.w3.org/2000/svg" viewBox="0 0 348 282.35"><defs><style>.cls-1{fill:#f8d979;}.cls-2{fill:#ffcd05;}.cls-13,.cls-15,.cls-18,.cls-3{fill:none;stroke-linecap:round;stroke-miterlimit:10;}.cls-3{stroke:#188ab2;stroke-width:5.68px;}.cls-4{fill:#faad1c;}.cls-5{fill:#e59525;}.cls-6{fill:#02a1cd;}.cls-7{fill:#0d4161;}.cls-8{fill:#fff;}.cls-9{fill:#5753a4;}.cls-10{fill:#514c49;}.cls-11{fill:#ec1e52;}.cls-12{fill:#a2cced;}.cls-13{stroke:#198ab1;stroke-width:4.42px;}.cls-14{fill:#a1cbec;}.cls-15,.cls-18{stroke:#0d4060;}.cls-15{stroke-width:2.58px;}.cls-16{fill:#0d4061;}.cls-17{fill:#0d4060;}.cls-18{stroke-width:2px;}.cls-19{fill:#56c5d0;}</style></defs><polyline class="cls-1" points="0 282.4 0 0 348 0 348 282.4"/><rect class="cls-2" y="256.2" width="348" height="26.1"/><path class="cls-3" d="M200.19,132s-10.62,10.24-17.81,11.7-21.59-3.7-21.59-3.7"/><polyline class="cls-4" points="153.8 264.4 145.5 264.4 145.5 228.9 79.2 228.9 79.2 264.4 70.8 264.4 70.8 225.6 70.9 225.6 70.9 218 153.8 218 153.8 225.7"/><path class="cls-5" d="M70.2,201.1H155a5.8,5.8,0,0,1,5.8,5.8v7.6a5.8,5.8,0,0,1-5.8,5.8H70.2a5.8,5.8,0,0,1-5.8-5.8V207A5.89,5.89,0,0,1,70.2,201.1Z"/><polyline class="cls-4" points="288.9 263.9 280.7 263.9 280.7 228.4 214.3 228.4 214.3 263.9 205.9 263.9 205.9 225.1 206.1 225.1 206.1 217.5 288.9 217.5 288.9 225.2"/><path class="cls-5" d="M205.4,200.6h84.8a5.8,5.8,0,0,1,5.8,5.8V214a5.8,5.8,0,0,1-5.8,5.8H205.4a5.8,5.8,0,0,1-5.8-5.8v-7.6A5.8,5.8,0,0,1,205.4,200.6Z"/><path class="cls-6" d="M119.8,17.8C82.5,16,51.9,23.8,50,63.1c-.5,10,.4,20.1,1.3,30,1,11,3.6,22.1,5.9,32.9,1,4.8,2.2,8.9,1.5,13.9-.6,4.3-3.1,8.6-5.2,12.4-5.7,10.3-7.6,21-4.3,32.4,2.2,7.6,8.1,13.8,14.8,17.9,14,8.4,19.7,8.3,49,9.7,17.4.8,35.6.4,50.4-10.1a38.1,38.1,0,0,0,13.4-17.3,40.25,40.25,0,0,0,2.6-10.2c1-5.9-.5-13.7-2.5-19.2-3-8.3-5.7-19.4-3.1-28.2,6.2-20.6,10.8-47.9,11.3-58.5,1.8-39.4-28-49.3-65.3-51"/><path class="cls-7" d="M134.19,96.2s3.11-9.55,14.86-8.42,12,10.35,12,10.35h0Z"/><path class="cls-8" d="M153.3,81.2A10,10,0,0,1,164.1,72c5.7.3,10.2,4.9,9.9,10.2"/><path class="cls-7" d="M163.3,81.6a4.53,4.53,0,0,1,5.1-3.9,4.41,4.41,0,0,1,3.9,4.3"/><path class="cls-8" d="M122.5,79.7c.3-5.4,5.1-9.5,10.9-9.2s10.2,4.9,10,10.2"/><path class="cls-7" d="M132.5,80.1a4.53,4.53,0,0,1,5.1-3.9,4.41,4.41,0,0,1,3.9,4.3"/><path class="cls-7" d="M123.4,74.9l-5.3-2.5,4.6,4.2a6.37,6.37,0,0,0-.2.7l-4.7-.8,4.4,2.2a3.4,3.4,0,0,0-.1,1c2.9-8.3,8-9.2,9.4-9.3C127,70.3,124.6,72.6,123.4,74.9Z"/><path class="cls-7" d="M178.7,79.3l-4.7.4c0-.2-.1-.4-.1-.7l5-3.8-5.5,2c-1-2.4-3.1-4.9-7.7-5.3,1.4.2,6.4,1.6,8.5,10.1V81Z"/><polyline class="cls-6" points="100.2 208.4 121.8 262.4 130.5 260.2 123.4 202.6"/><polygon class="cls-9" points="131.9 267.4 124.4 269.3 114.9 245.8 128.3 242.3 131.9 267.4"/><path class="cls-10" d="M147,264.5a11.76,11.76,0,0,0-22.8,5.8"/><polyline class="cls-6" points="129.5 201.1 151.1 255.2 159.8 253 152.7 195.4"/><polygon class="cls-9" points="160.5 260.6 153 262.5 144.5 238.7 157.6 235.3 160.5 260.6"/><path class="cls-10" d="M177.4,256.2a11.76,11.76,0,0,0-22.8,5.8"/><path class="cls-3" d="M74.59,143.64s-2,17.82,9.82,29.67c9.74,9.74,34.58,14.75,34.58,14.75"/><path class="cls-6" d="M289,128.2v-1.4c0-33.8-23.1-61.2-51.6-61.2S185.8,93,185.8,126.8v1.4a53.37,53.37,0,0,0-.5,6.9v28.6c0,23.6,19.7,45,39.4,45h28c19.7,0,36.6-21.5,36.6-45V135.1A39.86,39.86,0,0,0,289,128.2Z"/><polyline class="cls-6" points="206.9 194.9 200.4 256.5 205.4 257.6 224.6 199.2"/><polygon class="cls-11" points="206.3 256.5 200.1 254.7 203.5 226.8 214.7 229.4 206.3 256.5"/><path class="cls-10" d="M206.3,259a9.53,9.53,0,1,0-18.6-4.2"/><polyline class="cls-6" points="232.4 200 225.9 261.6 230.9 262.7 250.1 204.3"/><polygon class="cls-11" points="231.8 261.6 225.6 259.9 229 231.9 240.2 234.5 231.8 261.6"/><path class="cls-10" d="M231.8,264.1a9.53,9.53,0,1,0-18.6-4.2"/><path class="cls-12" d="M127.57,199.85a1.76,1.76,0,0,0,2-1.37,1.7,1.7,0,0,0-1-1.88L123,194.85a5.77,5.77,0,0,0,.89-1.19l6.78,2.11a1.77,1.77,0,0,0,2-1.37,1.72,1.72,0,0,0-1-1.88l-6.78-2.11c0-.41,0-.95,0-1.36l5.82,1.82a1.77,1.77,0,0,0,2-1.37,1.7,1.7,0,0,0-1-1.88l-9.74-3a3.26,3.26,0,0,0-.92-.4l2.12-.07a1.78,1.78,0,0,0,1.58-1.71h0a1.57,1.57,0,0,0-1.37-1.68l-.09,0-11,.12a1.45,1.45,0,0,0-1.1.5,6.58,6.58,0,0,0-5.56,4.76c-1.07,3.44.61,7.1,3.67,8.06l18.33,5.71Z"/><path class="cls-13" d="M180.18,158.64s3.7,18.69,21.16-1.34"/><path class="cls-14" d="M197.9,152.44c-.89,1.73-.46,4.21,1.27,6.17,2.2,2.51,5.69,3.27,7.76,1.7l5.09-3.88.1-.09.06,0,6.87-5.23a1.33,1.33,0,0,0-.07-1.94,1.55,1.55,0,0,0-2-.44l-3.74,2.85a6.72,6.72,0,0,0-.55-1.23l4.49-3.42a1.32,1.32,0,0,0-.07-1.93,1.56,1.56,0,0,0-2-.45l-4.49,3.42a8.55,8.55,0,0,0-1.06-.67l3.85-2.94a1.33,1.33,0,0,0-.06-1.93,1.58,1.58,0,0,0-2-.45l-6.42,4.9a3.76,3.76,0,0,0-.71.39l.83-1.39a1.58,1.58,0,0,0-.65-2h0a1.3,1.3,0,0,0-1.92.14"/><path class="cls-15" d="M135.62,57s-3.56,10.6-15.13,6.2"/><path class="cls-15" d="M163.68,58s1.11,10.78,13.06,7.59"/><path class="cls-13" d="M272.22,148.67S271,181,240.92,164.54"/><path class="cls-14" d="M239.09,158.54c1.35,1.4,1.65,3.89.57,6.28-1.38,3-4.5,4.77-6.93,3.87l-6-2.23-.12-.06h-.07l-8.1-3a1.32,1.32,0,0,1-.49-1.87,1.58,1.58,0,0,1,1.81-1l4.41,1.65a6.12,6.12,0,0,1,.16-1.33l-5.29-2a1.34,1.34,0,0,1-.5-1.88,1.58,1.58,0,0,1,1.81-1l5.29,2a8.35,8.35,0,0,1,.82-.95l-4.54-1.69a1.33,1.33,0,0,1-.5-1.87,1.58,1.58,0,0,1,1.81-1l7.57,2.82a4.28,4.28,0,0,1,.79.17l-1.2-1.09a1.61,1.61,0,0,1,.05-2.09h0a1.31,1.31,0,0,1,1.88-.42"/><path class="cls-1" d="M185.3,147.32l.41,22.27c.6,3.42-1.39.43-2.74.66h0a2.8,2.8,0,0,1-3.23-2.33l-.68-4.27c0-.06-.34-1.54-.64-2.89a34.22,34.22,0,0,0-1.25-4.31l-.78-2.18a2.79,2.79,0,0,1,.73-2.78l4.28-4.17"/><path class="cls-16" d="M204.7,129.41s2.07-8.56,12.24-8.29,11,8.29,11,8.29Z"/><path class="cls-8" d="M191.24,117.21a10.18,10.18,0,0,1,20.36,0"/><path class="cls-8" d="M222.34,117.21a10.18,10.18,0,1,1,20.36,0"/><path class="cls-17" d="M192.53,111.14,186.1,109l5.77,4c-.06.24-.11.46-.15.69l-5.54-.46,5.34,1.9h0c2.66-8.84,8.15-6.42,9.33-8C197.78,106.94,193.73,108.63,192.53,111.14Z"/><path class="cls-17" d="M247.81,112.66l-5.49.82c-.06-.22-.12-.44-.2-.67l5.49-4.34-6.27,2.58c-1.36-2.43-4.4-4.12-9.82-4.08,1.7.09,7.94.37,11.19,9a10.46,10.46,0,0,0-.1-1.07Z"/><path class="cls-18" d="M242,101.66s-7.6,4.13-11.84-4.45"/><path class="cls-18" d="M194,101s7.53,3.7,10.36-5.45"/><path class="cls-16" d="M229,115.08A7.21,7.21,0,0,0,232.6,107l-.45,0a10.19,10.19,0,0,0-9.94,8A6.68,6.68,0,0,0,229,115.08Z"/><path class="cls-16" d="M198.07,115.08a7.22,7.22,0,0,0,3.56-8.08l-.45,0a10.19,10.19,0,0,0-9.94,8A6.68,6.68,0,0,0,198.07,115.08Z"/><path class="cls-19" d="M204.57,119a12.71,12.71,0,0,0-2.83.17,6.3,6.3,0,0,1-2.65-.7,14.73,14.73,0,0,0-6.79-.6c-.75.11-1.81.29-2.4-.29a1.16,1.16,0,0,1-.28-1.15,2.14,2.14,0,0,1,.69-1,4,4,0,0,1,3.49-.85,14.47,14.47,0,0,1,2.95,1.4,3.61,3.61,0,0,0,2.92.32c.69-.31,1-1.07,1.69-1.34a2.94,2.94,0,0,1,2,.32,8.11,8.11,0,0,0,4.85.22,8.12,8.12,0,0,1,2.84-.6c1.62.16,2.41,3,1,3.84a2,2,0,0,1-1.18.18c-1.75-.11-2.9-.6-4.37-.27A2.32,2.32,0,0,1,204.57,119Z"/><path class="cls-19" d="M238.57,118.42c1.08-.47,2.32.7,3.49.51a1.46,1.46,0,0,0,.86-.39c.27-.29,1.45-.7,1.47-1.08,0-1-1.26-2.2-2.23-2.55a3.26,3.26,0,0,0-2.16.33,9.27,9.27,0,0,1-6.42-.1,2,2,0,0,0-1.4-.23c-.47.18-.68.68-1,1-.81.81-2.22.66-3.28.17a17.59,17.59,0,0,0-3.11-1.53,3.9,3.9,0,0,0-3.23.67,1.77,1.77,0,0,0-.78,2,1.88,1.88,0,0,0,1.77.87,14.55,14.55,0,0,0,2.07-.4,6.73,6.73,0,0,1,2.93.08c1.9.48,3.74,1.77,5.63,1.27a3,3,0,0,1,2.17-.06A8,8,0,0,0,238.57,118.42Z"/></svg>