<svg xmlns="http://www.w3.org/2000/svg" viewBox="0 0 263.1 229.4"><defs><style>.cls-1,.cls-3,.cls-5{fill:none;stroke-miterlimit:10;}.cls-1{stroke:#188ab2;stroke-width:5.81px;}.cls-1,.cls-5{stroke-linecap:round;}.cls-2{fill:#a2cced;}.cls-3{stroke:#89b4d4;stroke-width:1.19px;}.cls-4{fill:#02a1cd;}.cls-5{stroke:#0d4161;stroke-width:1.86px;}.cls-6{fill:#0d4161;}.cls-7{fill:#fff;}.cls-8{fill:#f39e1e;}.cls-9{fill:#653212;}.cls-10{fill:#f6b543;}.cls-11{fill:#5652a3;}.cls-12{fill:#ffcc04;}.cls-13{fill:#b57b2b;}.cls-14{fill:#1d8ab1;}.cls-15{fill:#59c5cf;}.cls-16{fill:#eb2453;}.cls-17{fill:#f39e22;}.cls-18{fill:#ffcd05;}.cls-19{fill:#5753a4;}.cls-20{fill:#ec1e52;}.cls-21{fill:#514c49;}</style></defs><g id="Layer_2" data-name="Layer 2"><path class="cls-1" d="M203.27,117.29c6.44,4.8,13.36,5.77,24.14.31,7.3-3.71,11.52-18.48,13.67-20.35"/><path class="cls-2" d="M239.18,104.18a2.36,2.36,0,0,0,2.69.81,53.37,53.37,0,0,0,6.62-2.91c2.34-1.22,9.52-5.19,10.48-9.29a3.38,3.38,0,0,0-.25-2.64A2.75,2.75,0,0,0,256.79,89a3.86,3.86,0,0,0,.65-1.41,3.6,3.6,0,0,0-.83-3.13,3.65,3.65,0,0,0-2-1.16,4.45,4.45,0,0,0,.79-2.22,3.44,3.44,0,0,0-1.94-3.36c-1.38-.5-2.89.59-5.78,2.75a40.21,40.21,0,0,0-4.27,3.66c.74-.67-1-4.38-1.35-5-.92-1.53-2.41-3.29-4.21-3.74-1.44-.35-3.25.49-3.4,2a4.58,4.58,0,0,0,.85,2.5c2.05,3.76,1.75,7.58.7,11.7-.51,2-2,5.62-.53,7.64Z"/><path class="cls-3" d="M255,83.15s-7.79,5.74-9.3,5.21-.68-3.71-.68-3.71"/><path class="cls-3" d="M257.12,88.66s-7.7,5.34-9.3,5.22c-3.68-.3-1-5.39-1-5.39"/><path class="cls-3" d="M257.38,93.57s-5.86,4.27-7.37,3.74-.68-3.7-.68-3.7"/><path class="cls-1" d="M37.11,105.79c2.58,1.22,10.75,13.76,18.78,15.35,11.85,2.34,18.15.06,23-6.29"/><path class="cls-2" d="M43,106.08c.87-2.34-1.53-5.38-2.57-7.21-2.13-3.68-3.45-7.28-2.5-11.45a4.58,4.58,0,0,0,.15-2.64c-.55-1.39-2.52-1.71-3.82-1-1.61.92-2.57,3-3,4.74-.15.72-.83,4.77.06,5.22a38.19,38.19,0,0,0-5.11-2.37c-3.36-1.3-5.11-1.94-6.3-1.08a3.46,3.46,0,0,0-1,3.76A4.43,4.43,0,0,0,20.29,96a3.6,3.6,0,0,0-1.6,1.65,3.65,3.65,0,0,0,0,3.24,4.26,4.26,0,0,0,1,1.19,2.78,2.78,0,0,0-1.53,1.67,3.41,3.41,0,0,0,.47,2.6c2,3.69,10,5.57,12.62,6.11a53.94,53.94,0,0,0,7.15,1,2.34,2.34,0,0,0,2.37-1.5Z"/><polyline class="cls-4" points="159.53 227.12 166.88 178.59 145.65 178.59 153.06 228.52 158.71 224.94"/><polyline class="cls-4" points="122.5 224.55 113.27 179.99 136.29 179.99 128.02 227.12 120.11 224.55"/><path class="cls-4" d="M62.94,122.09c0-32.93,16.36-64.94,37.55-87.75,54.61-58.83,115.43,26.14,115.43,90.47,0,47.5-37.61,59.06-75.24,59.06S62.94,169.58,62.94,122.09Z"/><path class="cls-5" d="M117.28,56.15s3.57-7.23,11.42-3"/><path class="cls-5" d="M163.13,56.15s-2.61-7.36-10.46-3.1"/><path class="cls-6" d="M153.22,77.81s-2.21,7.08-13.08,6.87-11.73-6.87-11.73-6.87Z"/><path class="cls-7" d="M145.48,69.05c0-5,4.27-8.95,9.54-8.95s9.56,4,9.56,8.95"/><path class="cls-6" d="M150.92,69.05a4.16,4.16,0,0,1,8.31,0"/><path class="cls-7" d="M117.07,69.05c0-5,4.3-8.95,9.6-8.95s9.61,4,9.61,8.95"/><path class="cls-6" d="M122.52,69.05a4.16,4.16,0,0,1,8.31,0"/><path class="cls-6" d="M117.9,64.83l-5-2.2,4.41,3.88c-.06.22-.1.43-.15.63l-4.3-.6L117,68.48a7.85,7.85,0,0,0,0,1c2.3-8.1,6.92-9.17,8.24-9.32C121,60.26,118.9,62.54,117.9,64.83Z"/><path class="cls-6" d="M125.2,60.12h0Z"/><path class="cls-6" d="M168.9,66.51l-4.31.61a2.94,2.94,0,0,0-.14-.64l4.4-3.88-5,2.19a7.59,7.59,0,0,0-7.29-4.69c1.32.13,5.93,1.22,8.23,9.31v-1Z"/><path class="cls-6" d="M154.65,60.12h-.37A1.53,1.53,0,0,1,154.65,60.12Z"/><path class="cls-8" d="M63.1,62.44a112.43,112.43,0,0,1-7.8,16.4,27.44,27.44,0,0,1-2.13,3c-2,2.48-4.8,2.49-7.6,2.43-.81,0-.47-.53-.21-.88a61.53,61.53,0,0,0,4.49-7.14,86.9,86.9,0,0,0,5.69-13,8.79,8.79,0,0,1,.74-2.35.94.94,0,0,1,1.14-.49c.84.2,1.69.34,2.54.51h0c.85.17,1.7.36,2.55.5C63.14,61.54,63.37,61.76,63.1,62.44ZM14.23,78.17c-.21.15-.48,0-.71-.12l-2.66-1.18a7,7,0,0,1-4-5.05A70.51,70.51,0,0,1,5.38,58.39c-.08-2.38,0-4.76-.07-7.14,0-.92.33-1.16,1.16-1s1.77.36,2.65.53,1.69.37,2.54.49,1,.51,1,1.34a81.82,81.82,0,0,0,.26,17.28,69.82,69.82,0,0,0,1.35,7.46C14.31,77.64,14.54,78,14.23,78.17ZM65.9,58.52C63.43,58,61,57.46,58.5,57c-.65-.14-.93-.31-.72-1.08C58.4,53.5,59,51.1,59.49,48.7c.33-1.48.3-1.49-1.22-1.79l-42-8.29-1-.19a.61.61,0,0,0-.85.56c-.42,2.57-.88,5.13-1.23,7.71-.18,1.32-.15,1.39-1.51,1.12-2.47-.49-4.94-1-7.43-1.46-1.56-.28-2.35.37-2.39,2,0,2.17-.09,4.33-.07,6.5A88.65,88.65,0,0,0,3.17,71.63c.75,3.76,2.51,6.72,6.09,8.4a31.79,31.79,0,0,0,5.54,2.12,2,2,0,0,1,1.5,1.34c1.52,3.56,5.27,7.6,8.49,9.91l-2,10.21c-1.11,4.4-10,3.78-10.18,4.77l1.8.36L34,112.6l2,.41c.19-1-7.66-3.43-7.74-8.31l2-10.19c3.27-1.11,8.49-3.81,10.89-6.26a1.74,1.74,0,0,1,1.61-.59c1.36.13,2.73.15,4.09.18a11,11,0,0,0,10.23-5.33c.69-1.1,1.43-2.17,2.07-3.31a133.54,133.54,0,0,0,8.16-18A1.76,1.76,0,0,0,65.9,58.52Z"/><path class="cls-9" d="M12.53,108.33l20.82,4.14c1.06.21,2.12.39,3.18.59s2,.44,3,.59,1.22.55,1,1.49c-.43,2-.76,4-1.21,6-.19.84-.08,1.22.86,1.37a8.37,8.37,0,0,1,2.91.69c-.24,1.35-.48,2.7-.73,4-.05.27-.24.33-.48.29l-.75-.14q-19-3.77-38.07-7.49c-1-.19-1.32-.49-1-1.45a9.07,9.07,0,0,0,.26-1.28c.41-2.07.41-2.07,2.53-1.65,2,.39,2,.39,2.35-1.54.35-1.74.72-3.48,1-5.22.15-.89.59-1.14,1.43-.95S11.57,108.14,12.53,108.33Z"/><path class="cls-10" d="M24.46,42.08s-7.7,28.19,1.25,48.8c0,0-8.4-8.92-9.86-20.62-1.75-14,1.52-29.58,1.52-29.58Z"/><path class="cls-2" d="M21.31,90.4s9.16,2.89,9.41,5.18A5.81,5.81,0,0,1,30,99.31l-1.12,8.82s-6.94-.77-8.77-1.73S21.28,100,21.28,100Z"/><path class="cls-3" d="M28.57,104.14s1.65,2.81.35,3.74-8.12-1.6-8.12-1.6"/><path class="cls-3" d="M30.3,94.34s1.66,2.83.35,3.75S20.29,95.6,20.29,95.6"/><path class="cls-3" d="M29.59,98.53s4,4.17.5,5.45c-1.5.56-10.36-2.49-10.36-2.49"/><polygon class="cls-11" points="176.22 131.86 172.67 158.11 180.71 152.87 189.6 158.11 186.26 131.54 176.22 131.86"/><path class="cls-8" d="M185.15,108.3h0a4.14,4.14,0,0,0,5.72,2.76h0a4.14,4.14,0,0,1,5,6.28h0a4.14,4.14,0,0,0,1.41,6.19h0a4.14,4.14,0,0,1-1.78,7.83h0a4.15,4.15,0,0,0-4,5h0a4.14,4.14,0,0,1-7.23,3.49h0a4.14,4.14,0,0,0-6.35,0h0a4.15,4.15,0,0,1-7.24-3.49h0a4.14,4.14,0,0,0-4-5h0a4.14,4.14,0,0,1-1.78-7.83h0a4.14,4.14,0,0,0,1.41-6.19h0a4.14,4.14,0,0,1,5-6.28h0a4.14,4.14,0,0,0,5.72-2.76h0A4.14,4.14,0,0,1,185.15,108.3Z"/><circle class="cls-12" cx="181.13" cy="124.38" r="11.73"/><path class="cls-13" d="M175.11,129.48l.41-3.06h-1.28v-.92h1.42l.3-2.26h-1.35v-.93h1.49l.4-3h.91l-.39,3h1.62l.41-3H180l-.39,3h1.28v.93h-1.42l-.28,2.26h1.34v.92H179l-.41,3.06h-.94l.41-3.06h-1.62l-.41,3.06Zm3.11-4,.3-2.26h-1.63l-.29,2.26Z"/><path class="cls-13" d="M185.11,120.61h0l-1.77,1-.26-1,2.21-1.19h1.17v10.15h-1.32Z"/><path class="cls-14" d="M225.15,118.18l1.31,2.59h0Z"/><polygon class="cls-15" points="244.91 22.99 246.54 27.03 250.88 27.34 247.56 30.15 248.59 34.37 244.91 32.07 241.21 34.37 242.25 30.15 238.92 27.34 243.27 27.03 244.91 22.99"/><polygon class="cls-15" points="251.49 118.14 253.13 122.18 257.46 122.49 254.14 125.3 255.18 129.52 251.49 127.23 247.79 129.52 248.84 125.3 245.5 122.49 249.85 122.18 251.49 118.14"/><polygon class="cls-15" points="43.31 21.32 44.94 25.35 49.28 25.66 45.96 28.47 47 32.69 43.31 30.4 39.61 32.69 40.65 28.47 37.32 25.66 41.67 25.35 43.31 21.32"/><polygon class="cls-16" points="207.75 26.16 209.08 29.58 212.58 29.86 209.89 32.24 210.74 35.84 207.75 33.88 204.75 35.84 205.59 32.24 202.9 29.86 206.42 29.58 207.75 26.16"/><polygon class="cls-16" points="51.85 153.97 53.18 157.4 56.69 157.67 53.99 160.06 54.85 163.65 51.85 161.69 48.86 163.65 49.7 160.06 47.01 157.67 50.52 157.4 51.85 153.97"/><polygon class="cls-16" points="22.8 16.47 24.13 19.9 27.64 20.18 24.95 22.56 25.8 26.16 22.8 24.19 19.81 26.16 20.65 22.56 17.96 20.18 21.48 19.9 22.8 16.47"/><polygon class="cls-15" points="237.63 59.08 238.65 61.61 241.37 61.8 239.29 63.55 239.94 66.19 237.63 64.76 235.32 66.19 235.97 63.55 233.89 61.8 236.61 61.61 237.63 59.08"/><polygon class="cls-17" points="244.41 45.52 245.44 48.05 248.15 48.24 246.07 50 246.72 52.64 244.41 51.21 242.1 52.64 242.75 50 240.66 48.24 243.38 48.05 244.41 45.52"/><polygon class="cls-18" points="180.5 0.01 181.53 2.54 184.24 2.73 182.16 4.49 182.81 7.13 180.5 5.7 178.19 7.13 178.84 4.49 176.76 2.73 179.48 2.54 180.5 0.01"/><polygon class="cls-18" points="56.56 9.7 57.59 12.22 60.3 12.42 58.22 14.17 58.87 16.81 56.56 15.38 54.25 16.81 54.9 14.17 52.81 12.42 55.54 12.22 56.56 9.7"/><polygon class="cls-15" points="195.16 6.79 197.29 11.95 202.9 12.34 198.59 15.92 199.95 21.32 195.16 18.39 190.37 21.32 191.74 15.92 187.41 12.34 193.04 11.95 195.16 6.79"/><polygon class="cls-18" points="227.27 20.35 228.91 24.38 233.25 24.68 229.93 27.49 230.97 31.71 227.27 29.42 223.57 31.71 224.62 27.49 221.3 24.68 225.64 24.38 227.27 20.35"/><polygon class="cls-17" points="257.12 138.12 258.76 142.15 263.1 142.46 259.77 145.27 260.82 149.49 257.12 147.19 253.42 149.49 254.47 145.27 251.15 142.46 255.49 142.15 257.12 138.12"/><polygon class="cls-18" points="38.45 165.59 40.09 169.62 44.43 169.93 41.11 172.74 42.15 176.96 38.45 174.66 34.76 176.96 35.8 172.74 32.48 169.93 36.82 169.62 38.45 165.59"/><polygon class="cls-19" points="225.84 39.71 228.15 45.39 234.26 45.82 229.58 49.77 231.05 55.72 225.84 52.48 220.64 55.72 222.11 49.77 217.43 45.82 223.53 45.39 225.84 39.71"/><polygon class="cls-19" points="93.18 0.98 95.5 6.66 101.61 7.09 96.92 11.04 98.39 16.99 93.18 13.75 87.98 16.99 89.45 11.04 84.77 7.09 90.88 6.66 93.18 0.98"/><polygon class="cls-19" points="35.09 142.35 37.4 148.03 43.51 148.46 38.82 152.41 40.3 158.36 35.09 155.12 29.89 158.36 31.36 152.41 26.67 148.46 32.78 148.03 35.09 142.35"/><polygon class="cls-16" points="68.98 17.44 71.29 23.12 77.4 23.55 72.71 27.5 74.19 33.45 68.98 30.21 63.78 33.45 65.25 27.5 60.56 23.55 66.67 23.12 68.98 17.44"/><polygon class="cls-17" points="219.22 4.85 221.04 9.33 225.85 9.68 222.16 12.78 223.32 17.47 219.22 14.92 215.12 17.47 216.27 12.78 212.58 9.68 217.4 9.33 219.22 4.85"/><polygon class="cls-17" points="42.02 0.98 43.84 5.45 48.65 5.8 44.96 8.91 46.12 13.6 42.02 11.05 37.92 13.6 39.08 8.91 35.39 5.8 40.2 5.45 42.02 0.98"/><polygon class="cls-16" points="236.8 136.54 238.93 141.68 244.54 142.09 240.23 145.67 241.59 151.07 236.8 148.12 232.01 151.07 233.35 145.67 229.04 142.09 234.68 141.68 236.8 136.54"/><polygon class="cls-20" points="119.82 211.77 130.94 211.77 128.34 227.71 122.77 227.71 119.82 211.77"/><polygon class="cls-20" points="150.49 211.82 162.03 211.77 159.86 227.71 152.58 227.71 150.49 211.82"/><path class="cls-21" d="M107.09,228.78a11.36,11.36,0,0,1,22.72,0h0"/><path class="cls-21" d="M151.39,228.78a11.36,11.36,0,1,1,22.72-.67c0,.22,0,.45,0,.67"/></g></svg>