<svg xmlns="http://www.w3.org/2000/svg" viewBox="0 0 160.19 229.4"><defs><style>.cls-1{fill:#3b3c7f;}.cls-2{fill:#5652a3;}.cls-3{fill:#02a1cd;}.cls-4,.cls-5,.cls-9{fill:none;stroke-linecap:round;stroke-miterlimit:10;}.cls-4,.cls-5{stroke:#0d4161;}.cls-4{stroke-width:0.9px;}.cls-5{stroke-width:1.8px;}.cls-6{fill:#0d4161;}.cls-7{fill:#ec1e52;}.cls-8{fill:#514c49;}.cls-9{stroke:#188ab2;stroke-width:6px;}.cls-10{fill:#a2cced;}.cls-11{fill:#f39e1e;}.cls-12{fill:#ffcc04;}.cls-13{fill:#b57b2b;}</style></defs><g id="Layer_1" data-name="Layer 1"><polygon class="cls-1" points="38.95 229.41 47.11 229.41 47.11 194.28 112.77 194.28 112.77 229.41 121.09 229.41 121.09 191 120.96 191 120.96 183.51 38.95 183.51 38.95 191.1 38.95 229.41"/><path class="cls-2" d="M41.51,166.8H117.9a9.55,9.55,0,0,1,9.55,9.54h0a9.55,9.55,0,0,1-9.55,9.55H41.51A9.55,9.55,0,0,1,32,176.34h0a9.54,9.54,0,0,1,9.54-9.54Z"/><path class="cls-3" d="M1.21,112.62c0-34,16.9-67,38.78-90.62,56.4-60.76,119.2,27,119.2,93.43,0,49.06-38.83,60.95-77.7,60.95S1.21,161.67,1.21,112.62Z"/><path class="cls-4" d="M76,49.19c0,4.08-4.34,7.38-9.68,7.38s-9.68-3.3-9.68-7.38"/><path class="cls-4" d="M103.76,49.19c0,4.08-4.33,7.38-9.68,7.38s-9.68-3.3-9.68-7.38"/><path class="cls-5" d="M89.53,39.08c9.74-4,14.17,2.77,14.17,2.77"/><path class="cls-5" d="M70.89,38.94c-10.27-4-13.71,2.91-13.71,2.91"/><path class="cls-6" d="M95.7,66.94s-1,4-13.89,4-15.49-4-15.49-4Z"/><polyline class="cls-3" points="61.18 224.39 51.64 172.56 75.42 172.56 66.87 227.38 58.71 224.39"/><polygon class="cls-7" points="58.54 209.3 69.69 209.3 67.2 227.84 61.23 227.84 58.54 209.3"/><polyline class="cls-3" points="93.69 223.93 84.15 172.1 107.93 172.1 99.38 226.91 91.22 223.93"/><polygon class="cls-7" points="91.05 208.84 102.2 208.84 99.71 227.38 93.74 227.38 91.05 208.84"/><path class="cls-8" d="M51.19,229.4a11.73,11.73,0,0,1,23.46,0h0"/><path class="cls-8" d="M84.74,229.36a11.74,11.74,0,1,1,23.47-.69q0,.35,0,.69"/><path class="cls-9" d="M18.06,112.66s-9.3,36.46,34.74,44.59"/><path class="cls-10" d="M53.57,150.25c-2.47-.09-5.07,1.74-6.41,4.78-1.68,3.87-.69,8.29,2.19,9.8l7.18,3.76.17,0,.08,0,9.69,5.08a1.69,1.69,0,0,0,2.19-1.12,2,2,0,0,0-.58-2.56l-5.28-2.77A8.09,8.09,0,0,0,63.92,166l6.33,3.31a1.68,1.68,0,0,0,2.19-1.11,2,2,0,0,0-.59-2.57l-6.33-3.26a9.34,9.34,0,0,0,.19-1.58l5.45,2.85a1.68,1.68,0,0,0,2.18-1.11,2,2,0,0,0-.53-2.56l-9.07-4.74a4.79,4.79,0,0,0-.82-.6l2,.19A2,2,0,0,0,66.85,153h0c.21-1.09-.33-2.1-1.2-2.13"/><path class="cls-9" d="M107.93,158.19c44-8.13,34.74-44.59,34.74-44.59"/><path class="cls-10" d="M95.08,151.81c-.87,0-1.41,1.05-1.2,2.14h0a2,2,0,0,0,1.93,1.81l2-.2a4.43,4.43,0,0,0-.82.6l-9.08,4.75a2,2,0,0,0-.52,2.55,1.69,1.69,0,0,0,2.18,1.12L95,161.72a8.43,8.43,0,0,0,.19,1.59l-6.34,3.26a2,2,0,0,0-.58,2.56,1.68,1.68,0,0,0,2.19,1.12l6.33-3.31a9.09,9.09,0,0,0,1.12,1.28L92.65,171a2,2,0,0,0-.59,2.57,1.69,1.69,0,0,0,2.19,1.11l9.7-5.08H104l.16,0,7.19-3.76c2.88-1.52,3.87-5.93,2.18-9.81-1.33-3-3.93-4.87-6.4-4.78"/></g><g id="Layer_2" data-name="Layer 2"><polygon class="cls-2" points="115.46 117.62 112.37 140.38 119.35 135.83 127.06 140.38 124.15 117.34 115.46 117.62"/><path class="cls-11" d="M123.19,97.2h0a3.6,3.6,0,0,0,5,2.39h0A3.59,3.59,0,0,1,132.5,105h0a3.59,3.59,0,0,0,1.22,5.37h0a3.59,3.59,0,0,1-1.55,6.78h0a3.6,3.6,0,0,0-3.43,4.31h0a3.59,3.59,0,0,1-6.27,3h0a3.59,3.59,0,0,0-5.51,0h0a3.59,3.59,0,0,1-6.27-3h0a3.6,3.6,0,0,0-3.44-4.31h0a3.59,3.59,0,0,1-1.54-6.78h0a3.59,3.59,0,0,0,1.22-5.37h0a3.59,3.59,0,0,1,4.34-5.44h0a3.59,3.59,0,0,0,5-2.39h0A3.59,3.59,0,0,1,123.19,97.2Z"/><circle class="cls-12" cx="119.71" cy="111.14" r="10.17"/><path class="cls-13" d="M114.49,115.56l.36-2.65h-1.11v-.8H115l.26-2h-1.17v-.8h1.29l.35-2.58h.78l-.33,2.58h1.4l.36-2.58h.79l-.33,2.58h1.11v.8h-1.24l-.24,2h1.17v.8h-1.29l-.35,2.65h-.82l.36-2.65h-1.41l-.35,2.65Zm2.7-3.45.26-2H116l-.26,2Z"/><path class="cls-13" d="M123.16,107.87h0l-1.53.82-.23-.9,1.92-1h1v8.8h-1.15Z"/></g></svg>