<svg xmlns="http://www.w3.org/2000/svg" viewBox="0 0 240.35 229.4"><defs><style>.cls-1,.cls-3,.cls-5{fill:none;stroke-miterlimit:10;}.cls-1{stroke:#188ab2;stroke-width:6.21px;}.cls-1,.cls-5{stroke-linecap:round;}.cls-2{fill:#a2cced;}.cls-3{stroke:#89b4d4;stroke-width:1.27px;}.cls-4{fill:#02a1cd;}.cls-5{stroke:#0d4161;stroke-width:1.99px;}.cls-6{fill:#0d4161;}.cls-7{fill:#fff;}.cls-8{fill:#ec1e52;}.cls-9{fill:#514c49;}.cls-10{fill:#5652a3;}.cls-11{fill:#f39e1e;}.cls-12{fill:#ffcc04;}.cls-13{fill:#b57b2b;}</style></defs><g id="Layer_1" data-name="Layer 1"><path class="cls-1" d="M22.65,104.43c3,.75,14.82,17.07,23.57,17.08,12.93,0,18.38-8.54,22.2-16.23"/><path class="cls-2" d="M28.91,103.52c.42-2.64-2.73-5.33-4.2-7-3-3.43-5.13-6.93-5-11.51a4.91,4.91,0,0,0-.4-2.8c-.86-1.34-3-1.27-4.2-.24-1.5,1.3-2.07,3.7-2.21,5.61,0,.79.13,5.18,1.15,5.46a41.94,41.94,0,0,0-5.85-1.43c-3.8-.67-5.77-1-6.84.17a3.68,3.68,0,0,0-.22,4.15A4.59,4.59,0,0,0,3,97.63a3.88,3.88,0,0,0-.61,5.46,4.44,4.44,0,0,0,1.29,1,2.93,2.93,0,0,0-1.26,2.07,3.63,3.63,0,0,0,1,2.63c2.9,3.45,11.68,3.77,14.51,3.81a60.28,60.28,0,0,0,7.71-.43,2.51,2.51,0,0,0,2.18-2.07Z"/><path class="cls-3" d="M12.82,94.31s2.32,2.62,1.14,3.87-11.4-.48-11.4-.48"/><path class="cls-3" d="M12.93,98.85s5,3.56,1.66,5.62C13.13,105.36,3.2,104,3.2,104"/><path class="cls-3" d="M13,105s2.32,2.61,1.14,3.85-8.85,0-8.85,0"/><polyline class="cls-4" points="161.71 226.89 169.57 174.99 146.86 174.99 154.79 228.39 160.84 224.56"/><polyline class="cls-4" points="122.1 224.15 112.23 176.48 136.85 176.48 128 226.89 119.54 224.15"/><path class="cls-1" d="M216.25,110.52s20.6,7.25,13.89,46.28"/><path class="cls-2" d="M223.4,154c1.15-2.29,4.14-3.75,7.53-3.44,4.36.38,7.87,3.48,7.81,6.89l-.16,8.4v.27l-.2,11.33c0,.89-1,1.53-2.07,1.44a2.08,2.08,0,0,1-2.08-1.81l.11-6.21a9.15,9.15,0,0,1-1.71.37l-.14,7.41c0,.89-1,1.53-2.07,1.43a2.08,2.08,0,0,1-2.07-1.8l.14-7.4a9.31,9.31,0,0,1-1.54-.61l-.11,6.36a1.76,1.76,0,0,1-2,1.45h-.06a2.07,2.07,0,0,1-2.07-1.8l.19-10.6a5.19,5.19,0,0,1-.13-1l-.83,2a2.08,2.08,0,0,1-2.6.84h0c-1.09-.35-1.69-1.31-1.35-2.13"/><path class="cls-4" d="M58.38,115.54c0-35.22,17.51-69.47,40.17-93.87C157-41.27,222,49.64,222,118.45c0,50.81-40.23,63.18-80.48,63.18S58.38,166.34,58.38,115.54Z"/><path class="cls-5" d="M116.51,45s3.83-7.74,12.22-3.17"/><path class="cls-5" d="M165.56,45s-2.79-7.89-11.19-3.33"/><path class="cls-6" d="M155,68.17s-2.36,7.58-14,7.35-12.54-7.35-12.54-7.35Z"/><path class="cls-7" d="M146.68,58.8c0-5.29,4.57-9.58,10.21-9.58s10.22,4.29,10.22,9.58"/><path class="cls-6" d="M152.5,58.8a4.46,4.46,0,0,1,8.9,0"/><path class="cls-7" d="M116.29,58.8c0-5.29,4.6-9.58,10.27-9.58s10.28,4.29,10.28,9.58"/><path class="cls-6" d="M122.12,58.8a4.45,4.45,0,0,1,8.89,0"/><path class="cls-6" d="M117.18,54.29l-5.32-2.35,4.72,4.14c-.07.24-.11.47-.16.68l-4.6-.64,4.4,2.07c0,.35,0,.69,0,1,2.47-8.66,7.41-9.81,8.82-10C120.46,49.4,118.24,51.83,117.18,54.29Z"/><path class="cls-6" d="M125,49.25h0Z"/><path class="cls-6" d="M171.73,56.09l-4.61.64a3.43,3.43,0,0,0-.14-.68l4.7-4.14-5.31,2.34a8.14,8.14,0,0,0-7.8-5c1.41.15,6.34,1.31,8.8,10v-1Z"/><path class="cls-6" d="M156.5,49.25h-.41A1.41,1.41,0,0,1,156.5,49.25Z"/><polygon class="cls-8" points="119.03 210.47 130.93 210.47 128.14 227.52 122.18 227.52 119.03 210.47"/><polygon class="cls-8" points="151.99 210.53 164.34 210.47 162.01 227.52 154.77 227.52 151.99 210.53"/><path class="cls-9" d="M105.41,228.66a12.15,12.15,0,1,1,24.3,0h0"/><path class="cls-9" d="M152.8,228.66a12.16,12.16,0,0,1,24.31-.71c0,.24,0,.48,0,.71"/></g><g id="Layer_2" data-name="Layer 2"><polygon class="cls-10" points="188.95 115.02 185.76 138.59 192.98 133.88 200.97 138.59 197.96 114.73 188.95 115.02"/><path class="cls-11" d="M197,93.86h0a3.72,3.72,0,0,0,5.14,2.48h0A3.71,3.71,0,0,1,206.6,102h0a3.72,3.72,0,0,0,1.27,5.56h0a3.72,3.72,0,0,1-1.6,7h0a3.72,3.72,0,0,0-3.56,4.46h0a3.72,3.72,0,0,1-6.5,3.13h0a3.71,3.71,0,0,0-5.7,0h0A3.72,3.72,0,0,1,184,119h0a3.72,3.72,0,0,0-3.55-4.46h0a3.72,3.72,0,0,1-1.61-7h0a3.71,3.71,0,0,0,1.27-5.56h0a3.72,3.72,0,0,1,4.5-5.63h0a3.72,3.72,0,0,0,5.14-2.48h0A3.72,3.72,0,0,1,197,93.86Z"/><circle class="cls-12" cx="193.36" cy="108.3" r="10.54"/><path class="cls-13" d="M188,112.88l.37-2.75h-1.15v-.83h1.28l.26-2h-1.2v-.83h1.33l.36-2.68H190l-.35,2.68h1.45l.37-2.68h.83l-.35,2.68h1.15v.83h-1.28l-.25,2h1.2v.83h-1.33l-.36,2.75h-.84l.36-2.75h-1.46l-.36,2.75Zm2.8-3.58.26-2h-1.46l-.26,2Z"/><path class="cls-13" d="M196.93,104.91h0l-1.58.86-.24-.94,2-1.07h1.05v9.12h-1.19Z"/></g></svg>