<?xml version="1.0" encoding="UTF-8"?>
<svg xmlns="http://www.w3.org/2000/svg" xmlns:xlink="http://www.w3.org/1999/xlink" viewBox="0 0 1334 1000">
  <defs>
    <style>
      .cls-1 {
        fill: #f39720;
      }

      .cls-2 {
        fill: #010101;
      }

      .cls-3 {
        fill: #1d3942;
      }

      .cls-4 {
        fill: #231f20;
      }

      .cls-5 {
        fill: #f1edf6;
      }

      .cls-6 {
        fill: #f1eef7;
      }

      .cls-7 {
        fill: #643c2a;
      }

      .cls-8 {
        fill: #a66e53;
      }

      .cls-9 {
        fill: #f29721;
      }

      .cls-10 {
        fill: #ce8d2a;
      }

      .cls-11 {
        fill: #9a5c26;
      }

      .cls-12 {
        fill: url(#linear-gradient);
        opacity: .5;
      }

      .cls-13 {
        fill: none;
        stroke: #010101;
        stroke-miterlimit: 10;
        stroke-width: .96px;
      }

      .cls-14 {
        fill: #3d3d3d;
      }

      .cls-15 {
        fill: #070505;
      }

      .cls-16 {
        fill: #8e6528;
      }

      .cls-17 {
        fill: #b15e27;
      }

      .cls-18 {
        fill: #f2ebd1;
      }

      .cls-19 {
        fill: #24180f;
      }

      .cls-20 {
        fill: #de8b27;
      }

      .cls-21 {
        fill: #381c13;
      }

      .cls-22 {
        fill: #c85844;
      }

      .cls-23 {
        fill: #662117;
      }

      .cls-24 {
        fill: #4f2e25;
      }
    </style>
    <linearGradient id="linear-gradient" x1="-1420.04" y1="3801.03" x2="-360.61" y2="3801.03" gradientTransform="translate(-3132.18 1411.15) rotate(90) scale(1 -1)" gradientUnits="userSpaceOnUse">
      <stop offset="0" stop-color="#f0ebe0"/>
      <stop offset=".18" stop-color="#eee8dd" stop-opacity=".99"/>
      <stop offset=".33" stop-color="#e8e1d4" stop-opacity=".97"/>
      <stop offset=".46" stop-color="#ded4c5" stop-opacity=".93"/>
      <stop offset=".59" stop-color="#d0c2b0" stop-opacity=".88"/>
      <stop offset=".72" stop-color="#bdab95" stop-opacity=".82"/>
      <stop offset=".84" stop-color="#a78e73" stop-opacity=".73"/>
      <stop offset=".96" stop-color="#8d6d4d" stop-opacity=".64"/>
      <stop offset="1" stop-color="#83603d" stop-opacity=".6"/>
    </linearGradient>
  </defs>
  <g id="Layer_3" data-name="Layer 3">
    <polyline class="cls-18" points="1372.37 1032.13 1372.37 -24.34 -34.67 -24.34 -34.67 1032.13"/>
    <polyline class="cls-12" points="1372.37 1047.04 -34.67 1047.04 -34.67 -12.39 1372.37 -12.39"/>
  </g>
  <g id="Layer_2" data-name="Layer 2">
    <path class="cls-22" d="M387.14,798.69l.26,13.47s39.13,3.14,102.73,9.85c48.44,5.11,175.63,7.72,205.37-34.42,0,0,77.83-213.81,65.42-299.12-12.42-85.31-25.15-62.97-25.15-62.97-16.92-2.21-72.31,64.43-76.3,83.48-6.88,32.89,10.04-5.76-46.14,198.86,0,0-44.77,4.96-97.26,12.55-52.49,7.59-127.9,23.05-127.9,23.05l-1.01,6.45"/>
    <path class="cls-8" d="M665.46,720.36c29.92-1.29,185.8,41.55,185.8,41.55l14.37-2.18,2.4,45.97-.99,1.29s-190.76,24.01-253.45-8.51c0,0-21.27-7.71-35.06-43.78s-51.07-171.91-51.07-171.91l55.1-1.24c17.9,8.64,47.26.29,52.33,19.09l29.55,119.81"/>
    <path class="cls-8" d="M621.81,810.74c1.77-10.72,5.44-21.11,10.16-30.88,4.88-10.08,11.03-19.59,18.32-28.1,5.66-6.59,12.55-13.17,20.31-18.1l-36.96-181.1c-3.77-21.64-21.62,60.69-40.54,49.52l-60.92-2.9s33.79,125.14,45.51,166.99c11.72,41.85,34.45,52.22,34.45,52.22,2.63,1.66,5.49,3.27,8.54,4.83.03-4.2.45-8.4,1.12-12.5Z"/>
    <path class="cls-8" d="M406.26,378.4s8.32,63.5,2.07,85.65c-1.52,5.37-33.49,23.22-33.49,23.22l137.08,57.2,62.77-55.74s-52.73-24.51-55.06-30.66c-2.33-6.16-3.87-53.7-3.87-53.7"/>
    <path class="cls-14" d="M326.53,972.02l-5.19,42.62c-4.35,35.75-3.47,71.94,2.62,107.44l28.55,224.58s3.78,138.02-.29,216.23c-3.56,67.8,11.9,168.79,11.9,168.79l113.95-4.97,44.34-369.87-5.74-253.73,36.24-128.93-226.37-2.16Z"/>
    <path class="cls-14" d="M634.84,978.97l-25.04,350.01c1.22,18.83-5.12,91.53-10.66,109.57l-33.88,233.6-3.25,33.74-92.14,8.82,15.65-743.94,149.33,8.19Z"/>
    <path class="cls-1" d="M650.28,731.9c5.37-2.13,22.77-11.59,22.71-14.42-.02-.88-18.73-90.82-19.16-95.48-1.73-18.73-3.58-37.55-7.75-55.92-5.41-23.79-18.37-38.78-35.78-56.2-20.45-20.47-40.21-30.81-66.44-40.99l-17.47-5.65s28.15,31.31-27.86,41.83c-56.01,10.52-91.38-46.67-91.38-46.67,0,0-23.5,15.44-59.99,33.98-14.01,7.14-49.88,30.88-55.86,45.41-14.93,36.3-22.72,53.36-15.11,117.6l21.18,49.06,21.28-15.03c-3.61,44.6-4.7,115.07,0,185.03.66,9.38-5.28,62.67-4.56,72.05.43,5.56-3.14,45.1.07,49.52,3.04,4.18,22.45,6.8,27.89,8.42,58.3,17.29,215.35,4.98,215.35,4.98,23.88-4.03,43.74-6.61,64.59-17.9,14.77-8,17.5-12.62,25.39-19.83-4.72-19.86-5.42-40.69-6.84-61-2.28-32.63-6.57-66.84-8.15-99.55-.09-1.87.17-73.59.78-74.99,5.49-2.86,4.5.33,17.12-4.23Z"/>
    <path class="cls-11" d="M631.87,587.74c.65,17.31.9,34.63,1.15,51.95.3,21.17.48,42.34.43,63.51-.02,10.52-.07,21.04-.41,31.56-.02.55.54.72,1,.7,10.9-.47,21.31-4.48,30.62-9.98,2.99-1.76,5.95-3.68,8.56-5.99.51-.45.85-.66.84-1.37-.01-1.23-.2-2.48-.29-3.7-.26-3.28-.52-6.56-.78-9.84-.07-.93-1.64-.36-1.99-.02-.04.03-.07.07-.11.1.12-.1-.03.03-.19.17-.44.4-.89.79-1.34,1.17-1.56,1.33-3.18,2.6-4.84,3.82-5.07,3.73-10.53,6.99-16.34,9.43-3.9,1.64-7.98,2.88-12.16,3.51-.44.07-1.17.32-1.2.87-.02.52.55.77,1,.7,12.8-1.93,24.71-8.75,34.53-16.98.84-.7,1.67-1.42,2.46-2.17-.66,0-1.33-.02-1.99-.02.36,4.56.72,9.12,1.08,13.68l.18-.61s-.09.1-.1.1c-.08-.02,0,0-.02.02-.09.06-.16.15-.24.22-.49.42-.99.84-1.5,1.24-1.97,1.55-4.07,2.94-6.22,4.23-7.2,4.31-14.93,7.66-23.22,9.08-2.16.37-4.35.67-6.54.76l1,.7c.63-19.44.47-38.92.35-58.36-.13-20.92-.38-41.84-.82-62.75-.18-8.63-.38-17.27-.7-25.9-.04-1.13-2.24-.79-2.2.17h0Z"/>
    <path class="cls-8" d="M426.84,479.22c35.09,13.5,72.97,9.41,99.38-16.88-7.78-3.34-8.02-10.38-8.58-11.97-2.1-5.92-4.48-47.22-4.48-47.22l-109.16-26.96s12.07,64.38,5.4,85.32c-.36,1.12,2.51-2.47,0,0,6.75,4.98,9.53,14.67,17.44,17.71Z"/>
    <path class="cls-24" d="M535.06,407.51c-2.47,6.43-4.61,13.02-7.34,19.32-.04.1-.05.18-.06.27-.36-.19-.79-.15-1.01.34-1.95,4.26-6.01,7.07-7.59,11.52-1.37,3.84-1.2,8.84-.58,13.03-2.71,1.01-5.35,1.11-8.84,2.04-23.96,4.21-25.06,1.09-60.91-13.38-11.38-4.59-10.98-13.11-13.22-14.28,32.55-7.28,65.32-12.21,99.56-18.86Z"/>
    <path class="cls-4" d="M369.09,352.77s-7.96-14.65-21.14-50.77c-11.8-32.34,35.39-70.19,66.12-81.33,16.9-6.12,76.63-10.12,93.08-5.95s28.3,23.06,35.78,51.97c0,0-14.87-27.27-33.28-22.98-15.02,3.5-65.23,5.46-76.95,13.39-11.71,7.93-37.63,24.86-29.93,71,2.1,12.58-22.67,3.71-27.31,12.44-4.64,8.73-6.37,12.23-6.37,12.23Z"/>
    <path class="cls-8" d="M404.73,401.52l-13.77-44.14-12-50.05,12.37-42.11,32.55-24.38,41.04-6.59s34.23,1.77,45.07,2.51c10.84.74,20.53,11.93,30.24,24.67,9.71,12.74,11.22,36.71,11.22,36.71.44.75.24,4.49.22,5.26-.22,9.79.72,18.13.4,25.47-.14,3.48.46,6.57,2.07,9.49,6.3,11.48,7.25,16.74,7.71,24.43.62,10.49.41,19.56-1.81,28.33-2.35,9.3-5.6,19.49-6.27,21.49,0,0-7.54,21.29-9.62,23.63-2.08,2.34-5.37,4.79-7.05,5.3-1.68.51-23.84,6.27-23.84,6.27l-10.48,1.75c-3.56.59-7.2.48-10.72-.35-9.53-2.23-36.82-9.14-44.6-12.64-10.46-4.7-26.6-29.51-26.6-29.51"/>
    <path class="cls-4" d="M406.27,356.05c.93,3.87,3.76,19.4,4.91,23.12l-20.27,3.38c-8.59-12.25-18.84-26.63-21.82-29.78-4.66-4.93-10.32-32.01-12.45-42.2l-.46-2.2c-2.07-9.77,4.4-27.12,17.3-46.39,14.2-21.22,43.44-37.23,74.48-40.8,2.95-.34,5.92-.57,8.81-.68,27.35-1.05,51.94,8.1,73.09,27.19,15.25,13.77,19.5,31.95,20.57,43.33-4.87-21.94-15.53-36.03-15.98-36.62-10.14-13.64-20.28-16.2-27.01-15.94-5.86.23-9.86,2.56-10.65,3.05-6.2,2.67-15.84,3.55-22.86,3.81-5.23.2-9.43.08-10.57.04-3.88-1.74-9.35-2.53-15.84-2.28-15.08.58-35.87,7.14-39.05,14.42-3.53,8.07-9.71,35.64-8.68,41.61"/>
    <path class="cls-8" d="M406.83,402.17c-9.68,14.2-21.63-7.57-21.63-7.57-13.8-11.76-16.32-26.39-17.63-36.46-1.31-10.08,9.72-11.83,9.72-11.83,9.52-.6,14.57,3.7,27.82,33.88"/>
    <path class="cls-4" d="M529.41,244c-8.75-9.73-24.42-21.11-33.82-30.23-3.65.3-21.49,3.05-25.24,3.56-38.29,5.19-85.46,36.12-87.9,50.82-1.52,9.17,8.86,55.78,11.27,59.76,6.62,10.92,11.15,25.96,11.15,25.96-1.56-17.9,7.56-39.77,8.07-46.1.51-6.33-12.64-33.56-10.9-35.11,1.74-1.56,34.56-18.33,73.45-24.61,11.46-1.85,23.1-2.87,33.52-3.32-.09-.1,20.5-.61,20.41-.72Z"/>
    <path class="cls-4" d="M469.55,331.49c-2.53-.82-5.36-1.35-6.66.25-.31.38-1.12,1.44-1.31,3.05-.25,2.05.9,4.14,2.35,5.28,1.94,1.53,4.72,1.38,6.66.05,2.62-1.8,2.98-5.38,1.85-7.75-.21-.43-.85-.22-2.89-.88"/>
    <path class="cls-4" d="M537.65,319.78c2.13-1.59,5.02-1.01,6.77.09.41.26,1.53,1,2.23,2.46.9,1.86.49,4.21-.51,5.76-1.34,2.07-4.02,2.84-6.28,2.21-3.07-.85-4.56-4.12-4.27-6.73.06-.48.34-2.5,2.06-3.79"/>
    <path class="cls-4" d="M520.05,332.24s7.81-10.93,14.56-12.7c9.85-2.59,12.8-.76,17.11,3.23,0,0-7.35-3.7-14.24-1.69-6.59,1.92-17.42,11.16-17.42,11.16Z"/>
    <path class="cls-4" d="M485.93,334.78s-15.61-6.24-22.51-5.16c-10.06,1.59-20.91,9.7-23.25,15.09,0,0,14.13-11.59,21.25-12.52,6.8-.89,24.51,2.59,24.51,2.59Z"/>
    <path class="cls-4" d="M479.34,298.89c.62,2.34,1.24,4.69,1.86,7.04.47,1.79,1.67,5.84,2.14,7.62-6.11.02-11.86-.86-15.72-.52-7.66.68-15.63.86-22.73,3.98-3.4,1.49-6.27,3.23-8.74,5.82-.78.82-2.64,3.96-4.2,3.7-.64-.11-.47-3.24-.46-3.56.37-6.32,4.72-10.07,10.46-13.09,11.7-6.15,24.31-9.2,37.4-11"/>
    <path class="cls-4" d="M551.87,294.4s-2.96-.81-2.99-.82c-11.33-2.33-22.57-1.43-33.85.8.13,2.42.26,4.84.39,7.27.1,1.85.17,5.19.28,7.03,5.05-1.82,9.38-3.9,12.66-4.74,6.5-1.66,13.34-3.5,20.05-2.67.53.07,3.76.17,4.27.26,1.94-3.45.16-6.64-.79-7.13Z"/>
    <g>
      <path class="cls-2" d="M519.14,372.7c-2.67,2.06-7.22,2.44-10.49,1.06-.73-.31-2.85.46-1.83.89,4.32,1.82,10.79.98,14.24-1.68.34-.27.23-.55-.27-.63-.52-.09-1.29.08-1.65.36"/>
      <path class="cls-2" d="M505.4,374c-2.13-.63-4.43-.76-6.67-.57-.33.03-.73.22-.93.48-.16.2-.16.44.11.54,1.12.43,2.46.46,3.65.24.37-.07.86-.25,1.01-.61.15-.34-.25-.48-.54-.42-.98.18-2.02.15-2.95-.2-.28.34-.55.68-.82,1.02,2-.17,4.06-.03,5.96.53.38.11.87-.08,1.15-.33.21-.18.41-.56.03-.67"/>
      <path class="cls-2" d="M496.67,375.75c-2.6.37-5.83-.28-7.43-2.06-2.42-2.68-1.42-7.71,1.48-10.17.32-.27.08-.51-.28-.52-.48-.02-1,.24-1.33.52-2.53,2.14-3.71,6.33-2.82,9.08.84,2.57,3.62,4,6.84,4.24.96.07,1.96.06,2.93-.07.39-.06,1.08-.29,1.22-.64.14-.35-.24-.43-.61-.38"/>
      <path class="cls-2" d="M523.65,370.56c-.19-.28.03-.52.24-.55.7-.1,1.38-.42,1.89-1.01.28.25.55.5.83.74-1.37.39-2.69,1.09-3.8,2.16-.22.21-.6.16-.85,0-.19-.12-.42-.42-.2-.63"/>
      <path class="cls-2" d="M521.76,371.27c1.24-1.19,2.72-1.95,4.26-2.39.22-.06.54.01.75.2.16.15.23.37.08.54"/>
      <path class="cls-2" d="M529.08,370.03c1.67-.35,3.46-1.83,3.95-3.96.75-3.21-1.01-6.59-3.43-8.16-.26-.17-.19-.46.03-.58.28-.15.67-.04.95.14,2.11,1.37,3.75,3.89,3.94,6.76.18,2.68-1.12,4.79-3,5.89-.56.33-1.17.59-1.8.72-.25.05-.73,0-.91-.28-.18-.3.03-.47.27-.52"/>
    </g>
    <path class="cls-6" d="M512.95,393.41c-5.77.89-23.04,4-23.04,4,0,0,6.92,4.36,24.23,1.7,17.3-2.66,22.22-8.63,22.22-8.63l-23.4,2.93Z"/>
    <path class="cls-11" d="M406.06,458.67c3.26,6.38,7.83,12.28,12.55,17.62,10.37,11.74,23.43,21.28,38.33,26.36,9.36,3.19,19.28,4.55,29.16,4.18,10.27-.38,20.95-1.81,30.59-5.54,9.02-3.48,18.04-10.08,18.52-20.55.1-2.13-.14-4.34-.81-6.37-.21-.64-.59-1.16-.94-1.74l-5.24-8.58c-.41-.67-.82-1.34-1.23-2.01l-1.97.76c4.96,2.08,9.93,4.17,14.89,6.25,1.1.46,2.21.93,3.31,1.39.26.11.52.21.78.33s-.1-.3-.01.04c.27,1.07.71,2.1.99,3.17.52,2.02.89,4.07,1.09,6.15.58,5.98-.26,12.16-3.01,17.54-1.44,2.82-3.65,5.21-6.08,7.21-6.86,5.66-15.59,8.92-24.13,11.03-11.83,2.93-24.21,3.63-36.34,2.77-11.03-.78-21.74-3.87-31.92-8.11-10.53-4.39-20.65-10.06-29.62-17.13-4.48-3.53-8.65-7.47-12.59-11.58-2.46-2.57-4.96-5.28-6.79-8.35-.63-1.06-1.45-2.46-1.35-3.76,0-.06.17-.73.14-.55.04-.22.12-.14-.11.02,4.24-2.99,8.23-6.41,12.32-9.61.48-.37.96-.75,1.43-1.12.37-.29.22-.5-.16-.61-.44-.12-1.19.14-1.54.41-4.29,3.36-8.58,6.72-12.87,10.08-.21.17-.42.33-.64.5.17-.13.21-.22-.07.05-.19.19-.34.3-.47.54-.4.75-.17,1.71.09,2.46.78,2.26,2.38,4.28,3.86,6.11,3.4,4.19,7.33,7.97,11.31,11.61,8.47,7.76,18.35,13.95,28.69,18.91s21.31,8.83,32.64,10.5c12.17,1.79,25,1.35,37.09-.77,9.74-1.71,19.59-4.64,28.05-9.89,3.12-1.93,6.1-4.21,8.49-7.02,2.98-3.5,4.69-7.9,5.46-12.4.85-5,.54-10.2-.67-15.11-.28-1.14-.52-2.53-1.08-3.57-.22-.4-.44-.47-.87-.65-5.66-2.37-11.31-4.75-16.97-7.12-.52-.22-1.05-.44-1.57-.66-.31-.13-2.29.24-1.97.76,1.29,2.12,2.59,4.23,3.88,6.35,1.1,1.8,2.47,3.6,3.37,5.52.62,1.31.81,2.98.93,4.4.74,8.78-5.04,15.72-12.47,19.65-8.09,4.28-17.51,5.88-26.52,6.77-10.3,1.01-20.6.58-30.62-2.15-15.37-4.19-28.99-13.15-39.94-24.6-5.78-6.05-10.96-12.79-15.03-20.12-.06-.11-.12-.23-.18-.35-.32-.63-2.42.11-2.17.58Z"/>
    <path class="cls-21" d="M395.57,373.08c-2.16-4.42-4.53-8.78-7.49-12.73-1.52-2.03-3.21-4.03-5.29-5.5-.84-.59-1.81-1.19-2.84-1.35-1.15-.18-1.63.59-2.1,1.5-2.05,4.01-1.81,8.85-.69,13.09.11.42,1.56.04,1.45-.39-.9-3.39-1.21-6.99-.28-10.41.33-1.19.78-2.5,1.55-3.49l-.96.37s-.14-.06.02,0c.22.09.14.01.4.1.69.23,1.33.58,1.93,1,2.91,2,5.14,5.01,7.07,7.91,2.18,3.28,4.05,6.76,5.78,10.29.21.43,1.62-.05,1.45-.39h0Z"/>
    <path class="cls-21" d="M391.8,374.37c-6.55.77-.66,8.88-1.15,12.37-.01.08-.2.55-.18.6l-.07.11.51-.13s-.17-.07-.18-.09c-.3-.52-.91-.98-1.25-1.52-1.11-1.78-1.89-3.79-2.6-5.77-.85-2.39-1.42-4.52-1.55-7.03-.15-3.01-.03-7.39,2.83-9.21.82-.53-.43-.76-.91-.45-2.7,1.72-3.33,5.13-3.4,8.11-.05,2.22.12,4.44.78,6.56.74,2.41,1.61,4.81,2.77,7.05.53,1.03,1.24,2.61,2.39,3.07.86.35,1.84-.13,2.17-.97.4-1,0-2.27-.26-3.25-.46-1.7-3.35-8.25-.09-8.64.71-.08,1.19-.95.19-.83h0Z"/>
    <path class="cls-8" d="M396.4,792.76c30.33,1.14,179.96,62.31,179.96,62.31l14.83-1.2-5.34,51.48-1.21,1.35s-196.01,10.39-253.61-31.27c0,0-20.11-10.42-27.9-51.84-7.79-41.42-22.4-196.13-22.4-196.13l55.66,3.36c16.56,11.18,47.51,4.39,49.44,25.78l9.53,136.16"/>
    <path class="cls-9" d="M275.62,591.73s-2.85,105.45-3.55,140.23c0,0,49.83,15.23,99.69,6.93,52.84-8.8-2.7-118.16-2.7-118.16l-93.44-29Z"/>
    <g>
      <path class="cls-9" d="M333.63,525.99s51.02-1.03,61.27,77.04c10.25,78.07,6.46,128.82,6.46,128.82,0,0-34.78,12.97-66.96,10.67-32.18-2.31-62.34-10.55-62.34-10.55l-.57-14.62s48.97,9.44,80.92,7.9c31.95-1.55,44.16-5.38,44.16-5.38"/>
      <path class="cls-11" d="M332.92,526.44c1.47-.03,2.94.16,4.29.35,3.8.55,7.55,1.58,11.13,2.98,5.26,2.06,10.18,4.94,14.6,8.44,5.91,4.67,10.88,10.43,14.93,16.77,5.43,8.52,9.21,18.01,11.87,27.73,3.79,13.88,5.16,28.33,6.67,42.6,1.49,14.03,2.64,28.1,3.42,42.19.6,10.85.98,21.72,1.09,32.58.07,7.29.03,14.58-.19,21.86-.06,2.16-.15,4.31-.25,6.47-.05,1.09-.24,2.24-.19,3.33,0,.13-.02.27-.03.41l.71-.54c-5.64,2.1-11.49,3.72-17.33,5.19-12.73,3.2-25.84,5.37-38.99,5.54-7.74.1-15.48-.65-23.16-1.58-7.12-.86-14.22-1.95-21.27-3.23-8.73-1.59-17.43-3.42-26.02-5.65-.34-.09-.69-.18-1.03-.27-.38-.11-.04.14-.03-.07.06-1.4-.11-2.85-.17-4.26-.13-3.41-.27-6.82-.4-10.23-.66.24-1.32.47-1.98.71,14.47,2.79,29.13,4.84,43.78,6.34,11.42,1.17,22.93,2,34.41,1.69,11.66-.31,23.39-1.31,34.93-3.02,4.31-.64,8.77-1.27,12.94-2.57.17-.05,1.12-.31,1-.63s-.99-.1-1.18-.04c-3.19,1-6.41,1.49-9.81,2.04-11.09,1.81-22.33,2.68-33.54,3.22-11.25.55-22.55-.16-33.75-1.22-10.43-.98-20.82-2.34-31.17-3.96-5.29-.82-10.57-1.69-15.83-2.7-.39-.08-2,.11-1.98.71.19,4.87.38,9.75.57,14.62.04.08.1.12.19.13,15.26,4.17,31.02,7.01,46.7,8.99,6.4.81,12.85,1.53,19.3,1.78,5.99.23,11.99-.01,17.95-.59,10.43-1.01,20.76-3,30.89-5.66,5.29-1.39,10.59-2.9,15.72-4.81.23-.09.69-.24.71-.54.17-2.23.26-4.48.34-6.71.25-6.41.34-12.82.34-19.23,0-10.19-.26-20.37-.71-30.55-.6-13.42-1.55-26.82-2.81-40.2-.73-7.79-1.57-15.57-2.51-23.34-.88-7.24-1.78-14.47-3.29-21.6-2.25-10.61-5.65-21.07-10.86-30.62-3.82-7.01-8.64-13.52-14.53-18.92-4.46-4.09-9.51-7.52-15.01-10.06-3.91-1.81-8.04-3.19-12.28-4.01-2.13-.41-4.32-.74-6.5-.76-.1,0-.2,0-.3,0-.47,0-1.17.08-1.54.41-.25.23-.38.48.13.47h0Z"/>
    </g>
    <path class="cls-24" d="M683.03,897.22c-3.77-4.53-8.19-8.5-13.14-11.71-2.61-1.69-5.05-3.65-7.7-5.3-2.78-1.73-5.67-3.29-8.63-4.7-.55-.26-1.44.03-1.97.22-.12.04-1.37.59-.94.79,2.82,1.34,5.58,2.82,8.24,4.45,2.67,1.64,5.12,3.58,7.73,5.31,4.99,3.31,9.49,7.14,13.33,11.75.57.68,3.23-.65,3.08-.83h0Z"/>
    <path class="cls-24" d="M395.9,791.72c-12.45.36-24.09,9.1-27.3,21.25-.23.86,1.97.56,2.18-.24,2.85-10.8,13.03-19.35,24.3-19.68.44-.01,1.24-.13,1.43-.61.17-.44-.15-.73-.61-.72h0Z"/>
    <path class="cls-7" d="M513.32,387.84c-11.47,1.66-30.26,3.04-30.26,3.04,0,0,8.39,28.68,34.99,24.84,26.6-3.84,20.73-33.51,20.73-33.51,0,0-13.99,3.98-25.46,5.64Z"/>
    <path class="cls-15" d="M513.43,387.82c-5.46.79-25.87,3.01-25.87,3.01,0,0,9.44,16.78,29.17,13.93,21.39-3.09,19.41-21.58,19.41-21.58l-22.71,4.65Z"/>
    <path class="cls-5" d="M513.78,388.58c-5.46.79-22.19,2.29-22.19,2.29,0,0,6.81,4.92,23.18,2.56,16.37-2.36,20.75-8.73,20.75-8.73l-21.74,3.88Z"/>
    <path class="cls-7" d="M540.08,381.86c-.6-.05-1.18.33-3.92.49-4.57.28-5.91-.84-9.22-.61-5.65.39-8.88,3.04-11.31,3.39-2.43.35-6.28-1.27-11.81-.05-3.24.72-11.17,3.04-15.63,4.07-2.68.62-6,.06-6.56.28-.78.31,1.61,5.81,32.14,1.4,30.53-4.41,27.15-8.89,26.32-8.97Z"/>
    <path class="cls-3" d="M751.47,1369.11c-8.63-89.6-20.29-271.94-20.29-361.75v-143.99c.86-5.06,14.59-87.38,15.37-92.41,6.71,1.22,4.94,2.19,11.79,2.82,22.37,2.07,44.99.93,67.14-2.34,45.84-6.77,89.53-22.54,131.39-40.21,16.58-7,32.94-14.38,49.26-21.84l-10.12,5.79s64.09,57.78,91.59,182.12c7.79,35.23-6.1,118.76-12.39,199.51-15.91,204.28-49.56,438.76-49.56,438.76,0,0-37.8,24.6-150.5,19.03-25.06-1.24-107.98-15.07-107.98-15.07-7.15-34.13-12.29-135.09-15.7-170.42Z"/>
    <path class="cls-22" d="M727.5,886.9s8.21-87.41,8.22-87.41c.94-10.04,2.96-19.89,3.49-30.01.55-10.54.41-21.12-.43-31.65-.41-5.14,1.74,21.92.95,16.82-.1-.63-.22-1.25-.37-1.87-2.61-10.79-1.45-15.96-5.3-26.37-7.42-20.09-9.29-33.17-27.75-40.33-4.48-1.74-19.17-39.35-23.72-40.81-1.17-15.61-11.88-33.24-13.12-48.84-2-25.12-12.23-47.38-12.01-72.62.21-23.84,10.17-55.01,27.34-73.14,7.19-7.6,11.54-10.44,20.21-16.15l25.86-17.89c1-.38,15.71-9.68,16.75-10,2.22-.68,3.84-.76,4.7-2.23l10.98-5.24,69.16-43.84,52.33,13.35s72.17,11.8,87.41,20.38c18.65,10.45,49.32,230.86,49.32,230.86,0,0,11.09,141.4,45.96,199.48.37.62,2.82,10.7,3.13,11.36,0,0-162.08,87.33-343.09,56.13Z"/>
    <line class="cls-16" x1="770.01" y1="608.69" x2="770.26" y2="610.57"/>
    <path class="cls-23" d="M675.05,521.9c2.66,2.7,4.79,6.06,6.54,9.4,3.32,6.33,5.17,13.42,5,20.58-.14,5.75-.88,11.49-1.5,17.2-.86,7.8-1.69,15.6-2.21,23.43-1.2,17.99-.94,36.38,3.53,53.94,3.6,14.18,9.66,28.94,20.25,39.38,2.98,2.94,6.31,5.42,9.71,7.85,2.56,1.83,5.25,3.69,7.09,6.3,1.07,1.51,1.77,3.27,2.5,4.96,1.13,2.64,2.16,5.32,3.12,8.03,2.6,7.28,4.74,14.73,6.4,22.27,1.88,8.56,3.18,17.3,3.34,26.08.12,6.25-.67,12.39-1.37,18.58-1.34,11.87-2.55,23.75-3.74,35.64-1.27,12.61-2.5,25.23-3.72,37.85-.72,7.42-1.42,14.84-2.12,22.25-.03.35-.07.7-.1,1.05-.06.69,1.4.45,1.46-.14.5-5.31,1.01-10.63,1.52-15.94,1.14-11.92,2.3-23.83,3.48-35.75,1.25-12.62,2.52-25.24,3.89-37.85.51-4.75,1.05-9.49,1.61-14.23,1.02-8.49.59-17.1-.57-25.56-2-14.62-5.98-29.31-11.83-42.88-1.38-3.19-2.86-5.88-5.52-8.18-2.68-2.31-5.71-4.2-8.51-6.36-10.21-7.88-16.76-18.89-21.3-30.82-6.74-17.7-8.64-36.53-8.17-55.36.38-15.21,2.52-30.23,3.84-45.37.51-5.86.65-11.56-.78-17.33-1.55-6.24-4.5-12.18-8.44-17.25-.64-.82-1.31-1.65-2.04-2.39-.42-.42-1.79.14-1.33.61h0Z"/>
    <path class="cls-8" d="M855.72,273.33s-.41,53.82,17.96,87.3c2.56,4.67,35.38,11.82,35.38,11.82l-41.51,23.6c-19.55,7.41-53.12,16.47-82.1,16.03-12.66-.19-29.76,3.24-39.96-4.26h0s21.32-11.75,21.77-18.01c.45-6.26-10.55-57.46-10.55-57.46"/>
    <path class="cls-24" d="M764.98,378.51s10.65-8.27,17.67-11.48c7.02-3.21,19.67-4.73,48.95-39.37,0,0-4.32,37.65-46.33,52.11,0,0-11.69,4.51-19.31,3.88l-.98-5.14Z"/>
    <path class="cls-8" d="M693.33,162.9c-.07.28-.18.57-.31.84.14-.15.28-.3.41-.45l-.1-.4ZM675.3,172.04l.08.33c.25-.32.48-.64.69-.95-.1-.4-.77.62-.77.62ZM852.21,287.09l.72-7.19c11.4,10.18,24.14-2.4,21.39-19.71,2.87-9.54,3.2-39.37-5.69-46.73l-1.12-1.11c-5.77-2.8-14.95-2.64-17.28,4.72-.61,3.12,1.15,6.49.54,9.6-.51,3.51-3.8,10.68-5.28,14.01,0,0-6.23-15.81-7.68-23.49-1.45-7.68-12.11-28.32-28.25-35.74,0,0-6.2-26.83-14.27-33.29l-2.37-.26c-1.3.32-2.07.94-3.37,1.26-.1-.4.24-.9.04-1.7-1.98,1.34-3.81,1.37-5.55,1.8.34-.5,1.11-1.12,1.01-1.52-1.64.83-3.48.86-5.22,1.3.34-.51,1.01-1.52.91-1.92-1.97,1.33-3.48.86-5.21,1.3.34-.51.57-1.41.47-1.81-1.54,1.23-3.38,1.26-5.12,1.69.34-.51.57-1.41.91-1.92-1.97,1.34-3.47.86-5.21,1.29-.44.11.67-1.01.57-1.41-1.2.72-2.94,1.15-4.25,1.48-.1-.4.67-1.02.57-1.41-2.41,1.44-3.91.97-5.65,1.4l.9-1.92c-1.44,1.63-3.18,2.06-5.01,2.09.33-.5,1-1.52.9-1.92-1.87,1.74-4.38,2.78-6.75,2.52.44-.11,1.01-1.52.91-1.92-1.78,2.13-3.61,2.17-5.78,2.71.33-.5.57-1.41,1.24-2.43-2.21,2.25-5.05,3.8-7.96,3.25.44-.11.57-1.41.48-1.81-1.34,2.03,1.42-.78-.85-.64,0,0-4.6,2.84-4.7,2.44-1.44,1.63,2.9-7.9.73-7.36.24-.91-12.28,3.84-11.61,2.82-1.78,2.13-1.54,1.2-4.25,1.45,0,0-7.84,7.02-7.51,6.51-1.67,2.53-3.07,1.1-5.78,1.35.33-.51,1.98,1.28,2.32.78-1.34,2.03-1.27-.11-3.44.43-.1-.4-7.75-.83-7.85-1.23-1.88,1.74-1.12,1.73-3.73,2.38-.1-.4-.54,4.8-.2,4.29-1.34,2.03-1.59.7-3.86.84l-1.79,2.02c-1.68,2.53,1.09.92-1.62,1.17-.07-.28,10.11-1.19,10.38-1.81-1.38,1.49-3.1,3-4.98,3.86-.1-.4.14-1.3.04-1.7-1.34,2.03-3.65,3.87-6.36,4.12.44-.11.67-1.01.57-1.41-1.68,2.53-3.99,4.38-6.89,3.83l-.02-.07c-1.35,1.74-3.25,3.48-5.37,4.37-.3-1.2.47-1.81.47-1.81l-1.74.43c-1.38,3.73-2.86,7.06-2.74,11.26,0,0-9.53,26.62-5.43,41.27,4.1,14.64,13.03,39.14,15.04,45.41,4.46,13.82,3.53,28.25,8.47,42.05,4.57,12.75,12.35,24.47,22.19,33.52,10.2,9.38,14.84,10.78,27.85,19.52,7.8,5.24,12.73,17.42,39.38,9.57,26.64-7.85,49.41-30.3,62.29-51.89"/>
    <path class="cls-10" d="M859.41,274.34c4.07-.54,7.86,2.06,8.79,6.08.47,2.02.08,4.13-.97,5.9-.27.46-.3.52-.71.91-.08.08-.16.15-.25.22-.14.13.17-.14,0,0-.06.05-.13.1-.19.15-.32.24-.65.48-.99.69-1.82,1.14-4.09,1.34-6.31.52-.66-.24-1.63.05-2.09.56s-.28,1.05.34,1.28c4.14,1.53,9.37.28,12.31-3.1,1.57-1.81,2.21-4.48,1.99-6.82s-1.5-4.61-3.33-6.15c-2.29-1.92-5.35-2.58-8.27-2.19-.6.08-1.56.4-1.65,1.12s.81.9,1.33.83h0Z"/>
    <path d="M831.14,210.43l11.94,38.22,9.39-20.51s-15.2-12.71-21.33-17.71Z"/>
    <g>
      <path class="cls-2" d="M737.43,304.84c3.62.87,8.4-.73,11.14-3.52.61-.62,3.1-.78,2.25.08-3.61,3.68-10.56,5.67-15.23,4.54-.46-.11-.47-.44,0-.74.49-.31,1.35-.49,1.84-.37"/>
      <path class="cls-2" d="M751.98,300.15c1.9-1.55,4.18-2.68,6.55-3.46.35-.11.84-.09,1.15.07.25.13.35.36.12.58-.95.91-2.3,1.53-3.61,1.83-.41.1-.98.13-1.3-.17-.29-.27.05-.58.37-.65,1.08-.25,2.12-.73,2.91-1.48.43.22.85.43,1.28.65-2.11.7-4.14,1.73-5.84,3.12-.34.28-.92.3-1.31.18-.29-.09-.66-.37-.32-.65"/>
      <path class="cls-2" d="M761.62,298.07c2.8-.77,5.81-2.81,6.67-5.27,1.3-3.7-1.9-8.27-5.93-9.43-.44-.13-.31-.46.06-.64.48-.23,1.12-.19,1.58-.06,3.51,1.01,6.52,4.66,6.81,7.76.26,2.9-1.95,5.52-5.12,7.17-.94.49-1.97.92-3.02,1.21-.42.11-1.22.18-1.52-.1-.3-.28.06-.53.46-.64"/>
      <path class="cls-2" d="M731.92,304.7c.07-.36-.26-.5-.49-.44-.76.21-1.59.19-2.36-.17-.17.36-.35.73-.52,1.09,1.56-.21,3.22-.1,4.8.47.32.11.68-.1.87-.36.14-.2.25-.6-.07-.71"/>
      <path class="cls-2" d="M734.15,304.58c-1.78-.63-3.62-.74-5.37-.5-.26.04-.55.25-.67.52-.1.22-.07.47.16.57"/>
      <path class="cls-2" d="M726.16,306.54c-1.85.39-4.31-.3-5.73-2.18-2.15-2.85-1.83-6.95-.04-9.55.19-.28,0-.54-.28-.56-.36-.03-.7.26-.9.55-1.55,2.27-2.13,5.47-1.09,8.39.97,2.72,3.21,4.24,5.61,4.5.71.08,1.45.07,2.14-.08.28-.06.75-.31.8-.68.05-.37-.24-.45-.5-.4"/>
    </g>
    <path d="M714.55,260.77s-15.85-6.93-21.88-5.77c-8.8,1.7-16.23,10.88-17.98,16.08,0,0,10.13-12.57,16.36-13.59,5.96-.97,23.49,3.28,23.49,3.28Z"/>
    <path d="M754.26,252.61s10.38-13.69,16.76-15.81c9.31-3.09,22.39.51,26.78,4.09,0,0-17.43-5.13-23.93-2.78-6.21,2.25-19.6,14.5-19.6,14.5Z"/>
    <path d="M667.63,252.38c-.14-.16-.27-.33-.39-.5-.02-.02-.01-.02-.02-.03,0-.01,0,0-.02-.03-.05-.08-.09-.17-.13-.26-.62-1.37-.32-2.93-.28-4.46.12-.16.22-.28.25-.33,0,0,2.65-3.31,7.7-5.86,3.49-1.76,13.68-4.76,27.93-6.29.51,1.79,1.02,3.59,1.53,5.39.39,1.37.77,2.74,1.15,4.11-5.11-.08-9.42.09-12.65.29-6.83.42-10.32.67-13.94,2.13-3.8,1.53-6.77,3.72-7.92,4.58-1.01.75-1.8,1.35-2.55,2.01-.22-.25-.45-.5-.66-.76Z"/>
    <path d="M742.64,221.97c.54,1.75,1.08,3.5,1.62,5.25.42,1.34.84,2.67,1.26,4,5.67-2.94,10.59-5.22,14.32-6.87,7.9-3.49,11.95-5.25,16.9-6.1,5.2-.89,9.87-.77,11.69-.72,2.56.08,4.27.09,6.43.54,4.7.96,7.1,2.91,7.69,2.5.54-.38-1.1-2.23-1.27-2.42-4.18-4.66-10.8-6.17-11.3-6.3,0,0-5-1.21-12.23-.45-4.99.52-18.24,3.81-35.11,10.57"/>
    <path d="M686.59,258.89c.5-.07,1.01-.08,1.52.03,1.94.4,2.99,1.97,3.22,2.35,1.28,2.06,1.32,5.39-.91,7.32-1.64,1.42-4.18,1.84-6.12.64-1.45-.9-3.42-1.43-3.02-5.72,1.84-1.75,3.74-2.62,5.31-4.61Z"/>
    <path d="M764.03,244.22c.45-.43.92-.83,1.38-1.25.97-.89,1.9-1.86,2.48-3.05.01-.02.01-.05.02-.07,1.34-.3,2.68-.27,3.56.16.41.19,1.51.76,2.3,2.03,1.02,1.62.88,3.82.12,5.35-1.02,2.04-3.4,3.02-5.55,2.68-2.83-.46-4.51-3.17-4.6-5.55.1-.1.18-.19.29-.29Z"/>
    <path class="cls-13" d="M852.01,249.56c4.1-26.86,11.4-28.93,11.4-28.93,0,0,6.4,4.32,6.85,16.18"/>
    <path class="cls-13" d="M856.37,250.77c6.41-2.35,4.52,11.18,7.08,13.58,2.56,2.4,3-5.86,1.43-15.29,0,0-3.21-12.45-10.03-13.11"/>
    <path class="cls-17" d="M666.71,202.75c4.77-25.84,28.58-45.42,81.86-65.75,53.27-20.33,101.2-10.9,101.2-10.9-45.08-72.34-124.25-49.95-142.05-45.53-17.79,4.42-84.75,99.19-46.2,154.33l3.01,5.8s1.32-33.25,2.19-37.95Z"/>
    <path class="cls-17" d="M859.82,106.26s-5.65-50.93-45.75-58.55c-53.57-10.17-121.57-3.65-132.5,52.83l178.25,5.71Z"/>
    <path class="cls-20" d="M884.56,227.09c2.99-5-.91-16.14,1.38-21.49,12.02-28.04.59-49.73-9.65-61.77-4.46-5.24-2.87-16.76-4.46-21.93-8.31-27.1-11.67-27.16-59.51-45.22-38.93-14.7-74.71-4.72-95.3,1.57-32.96,10.07-47.16,15.82-52.97,42.4-.76,3.47,1.51,5.55,1.15,9.59-.5,5.71-6.54,12.33-6.26,19.34,0,0,45.08,2.6,86.77,13.34,41.69,10.74,126.08,71.44,129.13,95.15.1.75,6.4-25.45,9.71-30.98Z"/>
    <path class="cls-17" d="M889.88,170.47s-82.33-62.12-151.41-45.68c0,0,85.35-33.41,140.28,20.55l1.56,2.31c4.11,6.09,7.11,12.85,8.87,19.98l.7,2.84Z"/>
    <path class="cls-17" d="M664.5,131.37l4.24-2.9c9.86-6.75,20.64-12.04,32.01-15.7l19.06-6.14s-48.85,3.42-56.32,17.86l1.02,6.89Z"/>
    <path class="cls-17" d="M850.35,186.92s30.74,19.21,35.1,28.76l.5-10.08s-11.85-16.29-35.6-18.68Z"/>
    <path class="cls-7" d="M750.01,318.46c12.53-3.29,32.45-10.05,32.45-10.05,0,0,5.01,32.97-24.03,40.61-29.04,7.63-37.07-25.27-37.07-25.27,0,0,16.13-2,28.65-5.29Z"/>
    <path class="cls-19" d="M749.89,318.49c5.96-1.57,27.92-8.17,27.92-8.17,0,0-1.26,21.19-22.8,26.85-23.36,6.14-30.51-13.57-30.51-13.57l25.39-5.11Z"/>
    <path class="cls-5" d="M749.85,319.43c5.96-1.57,23.82-7.3,23.82-7.3,0,0-4.86,8.03-22.73,12.73-17.87,4.7-25.15.05-25.15.05l24.06-5.48Z"/>
    <path class="cls-7" d="M719.88,323.97c.59-.32,1.36-.18,4.25-1.2,4.82-1.71,5.71-3.44,9.22-4.64,5.98-2.06,10.46-.75,13.11-1.44,2.65-.7,5.91-4.04,12.13-5.19,3.64-.67,12.81-1.74,17.85-2.63,3.02-.53,6.2-2.56,6.87-2.57.93-.02.87,6.68-32.45,15.44-33.32,8.76-31.8,2.68-30.98,2.24Z"/>
    <path class="cls-22" d="M1057.44,698.02s.03-4.4,0-12.05c-.17-38.09-1.28-135.06-17.56-192.45-19.55-68.91-34.26-96.63-69.68-104.6-35.42-7.97-55.8,70.6-55.8,70.6l8.11,168.57,135.24,113.18-.31-43.26Z"/>
    <path class="cls-23" d="M748.67,824.58c-.37-2.14-.75-4.29-1.12-6.43l-.25.49c6.19-3.63,12.41-7.21,18.64-10.78,14.53-8.34,29.11-16.58,43.76-24.7,16.51-9.15,33.1-18.16,49.91-26.75,19.69-10.06,39.51-19.86,59.41-29.5,9.79-4.75,19.63-9.4,29.45-14.08.14-.07.28-.13.43-.2.25-.12.43-.3.41-.58-1.3-21.78-2.7-43.56-4.31-65.33-1.23-16.67-2.57-33.33-4.11-49.98-1.14-12.34-2.4-24.67-3.86-36.98-1.05-8.89-2.22-17.76-3.58-26.61-.96-6.26-2.03-12.51-3.26-18.73-.87-4.42-1.84-8.82-2.88-13.2-.8-3.38-1.66-6.75-2.46-10.12-.74-3.14-1.43-6.3-1.98-9.48-.3-1.74-.57-3.5-.8-5.25-.74-5.64-.6-11.32.06-16.96.92-7.78,2.72-15.53,5.53-22.86,2.41-6.27,5.61-12.8,10.71-17.34,1.99-1.77,4.31-3.14,6.93-3.68.9-.19.65-1.09-.24-.91-5.76,1.2-10.06,5.82-13.16,10.55-4.05,6.18-6.66,13.3-8.55,20.41-2.89,10.85-4.08,22.11-2.43,33.25.49,3.31,1.12,6.61,1.85,9.87s1.55,6.51,2.34,9.76c.98,4.04,1.93,8.08,2.78,12.15,1.19,5.66,2.24,11.34,3.18,17.04,1.34,8.13,2.49,16.28,3.53,24.45,1.45,11.44,2.7,22.9,3.83,34.37,1.54,15.58,2.87,31.18,4.08,46.8,1.6,20.56,3,41.14,4.29,61.73.36,5.81.72,11.62,1.06,17.44l.41-.58c-8.15,3.81-16.26,7.71-24.37,11.62-19.33,9.32-38.58,18.82-57.73,28.51-17.34,8.78-34.48,17.93-51.5,27.31-15.18,8.36-30.28,16.87-45.32,25.48-7.56,4.33-15.26,8.5-22.67,13.09-.11.07-.22.13-.33.19-.17.1-.29.29-.25.49.37,2.14.75,4.29,1.12,6.43.11.61,1.56.25,1.45-.39h0Z"/>
    <path class="cls-23" d="M951.31,712.81c2.65.29,5.31,1.08,7.81,1.97,5.47,1.97,10.62,5.09,14.47,9.5,2.73,3.13,4.68,6.81,5.85,10.79.18.62,1.63.23,1.45-.39-3.53-12.02-14.19-19.66-26.04-22.32-.99-.22-2-.43-3.02-.55-.67-.07-1.5.88-.52.99h0Z"/>
    <path class="cls-22" d="M1027.6,795.56s28.65-22.47,29.97-54.04c1.32-31.57-59.97-41.7-59.97-41.7l30,95.74Z"/>
    <path class="cls-23" d="M762.9,871.18c1.53,4.23,3.05,8.45,4.58,12.68.12.33.57.33.85.26,3.29-.83,6.58-1.64,9.87-2.45,9.32-2.29,18.65-4.53,27.98-6.76,14.62-3.48,29.25-6.89,43.9-10.25,11.4-2.61,22.83-5.08,34.14-8.07,9.82-2.6,19.56-5.46,29.24-8.55,11.1-3.53,22.1-7.36,32.98-11.51,11.42-4.36,22.7-9.08,33.75-14.31,10.51-4.98,20.83-10.41,30.69-16.59,8.73-5.47,17.17-11.54,24.63-18.66,6.17-5.9,11.83-12.67,15.33-20.52.75-1.68,1.39-3.42,1.92-5.19.19-.63-1.29-.45-1.46.13-2.36,7.91-7.19,14.86-12.73,20.87-6.72,7.31-14.62,13.48-22.84,19.01-9.45,6.37-19.45,11.93-29.65,17-10.83,5.39-21.92,10.23-33.16,14.7-10.96,4.36-22.07,8.36-33.27,12.06-9.98,3.29-20.03,6.35-30.16,9.14-9.33,2.57-18.74,4.8-28.18,6.94-15.65,3.56-31.29,7.18-46.91,10.86-10.51,2.48-21.02,5-31.51,7.55-4.74,1.16-9.48,2.32-14.22,3.51-.2.05-.4.1-.6.15l.85.26c-1.53-4.23-3.05-8.45-4.58-12.68-.22-.61-1.66-.2-1.45.39h0Z"/>
    <path class="cls-8" d="M748.12,818.2l11.58,29.73,8.27,25.15s-40.77,24.9-52.1,26.51c-11.33,1.61-39.46,4.8-39.46,4.8,2.25,3.04,3.48,6.79,3.45,10.6-.31,4.36-2.27,8.33-5.44,10.98l-16.35-15.64c-.86,9.48-9.75,4.9-9.75,4.9l-12.63-14.22c-.57,11.81-12.22,6.15-12.22,6.15l-10.86-21.74c-1.66,4.47-4.13,8.52-7.28,11.9-4.24,3.81-8.28-4.88-8.28-4.88l9.03-40.79,45.63-29.46,85.71-.35,10.71-3.63Z"/>
    <path class="cls-8" d="M562.96,903.85c1.25.51,16.32-1.68,25.68,5.58,9.36,7.26,31.85,15.74,31.85,15.74,0,0,39.41,7.41,44.46,6.07,5.05-1.34,11.18-9.25,11.18-9.25,3.32-.43,6.73-.45,10.15-.03,9.23.42,13.21-9.68,13.21-9.68l-11.61-4.79c10.82,4.73,21.85,8.88,33.03,12.42,3.33.54,3.91-1.48,3.7-4.05-.46-3.81-2.64-7.4-5.95-9.78l-51.76-38.54c7.29-4.19,14.07-9.1,20.26-14.65,6.33-5.62,1.25-10.65-.57-11.95s-24.02,4.69-24.02,4.69c0,0-34.55-2.97-41.73-1.89-7.18,1.08-45.07,9.01-45.07,9.01l-7.57-.54s-6.49,51.15-5.23,51.66Z"/>
    <path class="cls-24" d="M719.68,905.69c-5.81-4.36-11.61-8.72-17.42-13.08-9.25-6.95-18.5-13.9-27.76-20.84-2.12-1.59-4.24-3.19-6.37-4.78l-.19.41c6.57-3.79,12.79-8.17,18.53-13.12,2.26-1.94,4.9-4.08,5.05-7.31.1-2.1-1.02-4.03-2.45-5.49-.86-.87-1.5-1.35-2.72-1.36-1.47,0-2.96.25-4.4.49-4.11.7-8.17,1.67-12.21,2.67-1.64.4-3.27.82-4.91,1.24-.61.16-1.61.22-2.15.57.39-.25,1.14-.03.43-.13-.33-.05-.68-.06-1.02-.09-1.24-.1-2.47-.2-3.71-.3-8.5-.67-17.02-1.28-25.54-1.58-3.41-.12-6.86-.28-10.26,0-5.31.43-10.66,1.93-15.79,3.32-.44.12-.87.24-1.31.36-.18.05-1.12.31-.99.64s.99.11,1.18.05c4.71-1.35,9.51-2.48,14.34-3.27,2.75-.45,5.93-.35,8.86-.28,8.43.21,16.85.81,25.26,1.44,2.45.19,4.91.38,7.36.59,1.39.12,2.75-.42,4.09-.77,3.6-.93,7.21-1.82,10.84-2.62,1.84-.4,3.7-.79,5.56-1.09,1.05-.17,2.45-.56,3.52-.33,1.18.26,2.54,2.21,3.1,3.29,1.55,2.96.44,5.92-1.85,8.13-6.04,5.81-13.23,10.69-20.46,14.87-.11.07-.38.27-.19.41,5.81,4.36,11.61,8.72,17.42,13.08,9.25,6.95,18.5,13.9,27.76,20.84,2.12,1.59,4.24,3.19,6.37,4.78.48.36,2.37-.5,2.05-.74h0Z"/>
    <path class="cls-24" d="M648.55,887.86c-.05.58,2.69,1.75,3.05,1.95,2.81,1.54,5.64,3.03,8.46,4.55,7.98,4.29,15.81,8.87,23.86,13.03,3.98,2.06,7.97,4.35,12.38,5.31.46.1,1.1-.08,1.52-.29.17-.09.76-.42.28-.52-3.96-.86-7.5-2.86-11.08-4.69-3.86-1.97-7.66-4.05-11.45-6.15-6.92-3.83-13.87-7.6-20.82-11.37-.98-.53-1.96-1.06-2.92-1.63-.19-.11-1.12-.56-1.1-.77.02-.23-2.12-.04-2.17.58h0Z"/>
    <path class="cls-24" d="M637.57,903.49c5.19,4.8,11.04,8.54,17.43,11.53,3.28,1.54,6.4,3.27,9.83,4.51s6.97,2.17,10.57,2.79c.49.08,1.19-.02,1.54-.41.28-.32.29-.73-.22-.81-3.53-.6-7.01-1.5-10.38-2.72-3.35-1.22-6.4-2.92-9.62-4.43-6.28-2.94-12.03-6.59-17.14-11.32-.58-.54-2.63.3-2.01.87h0Z"/>
  </g>
</svg>