<?xml version="1.0" encoding="UTF-8"?>
<svg xmlns="http://www.w3.org/2000/svg" xmlns:xlink="http://www.w3.org/1999/xlink" viewBox="0 0 1334 1000">
  <defs>
    <style>
      .cls-1 {
        fill: #3c5c2c;
      }

      .cls-2 {
        fill: #67402e;
      }

      .cls-3 {
        fill: #9f6a42;
      }

      .cls-4 {
        fill: #010101;
      }

      .cls-5 {
        fill: url(#linear-gradient-2);
      }

      .cls-6 {
        fill: #1d3942;
      }

      .cls-7 {
        fill: #231f20;
      }

      .cls-8 {
        fill: #f1edf6;
      }

      .cls-9 {
        fill: #643c2a;
      }

      .cls-10 {
        stroke: #4f2e25;
      }

      .cls-10, .cls-11 {
        fill: none;
        stroke-miterlimit: 10;
      }

      .cls-12 {
        fill: #a66e53;
      }

      .cls-13 {
        fill: #ce8d2a;
      }

      .cls-14 {
        fill: url(#linear-gradient);
        opacity: .5;
      }

      .cls-11 {
        stroke: #010101;
        stroke-width: .96px;
      }

      .cls-15 {
        fill: #212121;
      }

      .cls-16 {
        fill: #3d3d3d;
      }

      .cls-17 {
        fill: #b7b7b7;
      }

      .cls-18 {
        fill: #e29926;
      }

      .cls-19 {
        fill: #e19826;
      }

      .cls-20 {
        fill: #7b5342;
      }

      .cls-21 {
        fill: #8b5522;
      }

      .cls-22 {
        fill: #2d383d;
      }

      .cls-23 {
        fill: #45616e;
      }

      .cls-24 {
        fill: #8e6528;
      }

      .cls-25 {
        fill: #b15e27;
      }

      .cls-26 {
        fill: #f2ebd1;
      }

      .cls-27 {
        fill: #24180f;
      }

      .cls-28 {
        fill: #de8b27;
      }

      .cls-29 {
        fill: #dcdbdb;
      }

      .cls-30 {
        fill: #381c13;
      }

      .cls-31 {
        fill: #c85844;
      }

      .cls-32 {
        fill: #662117;
      }

      .cls-33 {
        fill: #4f2e25;
      }
    </style>
    <linearGradient id="linear-gradient" x1="-1398.35" y1="3779.35" x2="-338.93" y2="3779.35" gradientTransform="translate(-3110.5 1389.46) rotate(90) scale(1 -1)" gradientUnits="userSpaceOnUse">
      <stop offset="0" stop-color="#f0ebe0"/>
      <stop offset=".18" stop-color="#eee8dd" stop-opacity=".99"/>
      <stop offset=".33" stop-color="#e8e1d4" stop-opacity=".97"/>
      <stop offset=".46" stop-color="#ded4c5" stop-opacity=".93"/>
      <stop offset=".59" stop-color="#d0c2b0" stop-opacity=".88"/>
      <stop offset=".72" stop-color="#bdab95" stop-opacity=".82"/>
      <stop offset=".84" stop-color="#a78e73" stop-opacity=".73"/>
      <stop offset=".96" stop-color="#8d6d4d" stop-opacity=".64"/>
      <stop offset="1" stop-color="#83603d" stop-opacity=".6"/>
    </linearGradient>
    <linearGradient id="linear-gradient-2" x1="1105.05" y1="604.79" x2="1133.13" y2="-61.85" gradientUnits="userSpaceOnUse">
      <stop offset=".29" stop-color="#bbe5f5"/>
      <stop offset=".81" stop-color="#76c7db"/>
    </linearGradient>
  </defs>
  <g id="Layer_3" data-name="Layer 3">
    <polyline class="cls-26" points="1372.37 1032.13 1372.37 -24.34 -34.67 -24.34 -34.67 1032.13"/>
    <polyline class="cls-14" points="1372.37 1047.04 -34.67 1047.04 -34.67 -12.39 1372.37 -12.39"/>
    <rect class="cls-5" x="818.16" y="35.47" width="599.16" height="536.3"/>
    <g>
      <path class="cls-1" d="M1680.74,136.08v.02c-2.57-7.92-7.51-15.26-14.9-20.93l15.17,4.68c-1.59-8.75-6.03-17-12.85-23.89l20.13,7.28c-4.1-14.36-21.09-25.62-39.29-26.01l-3.32-2.34c9.19-7.03,16.96-15.19,23.08-24.16-6.87.72-13.74,1.34-20.62,1.9-6.84,2.51-12.91,6.4-17.55,11.44,1.62-3.3,2.38-6.81,2.39-10.33-4.64.3-9.29.58-13.94.81,1.04,2.84,2.2,5.66,3.51,8.43-2.36-2.92-5.02-5.66-7.91-8.22-1.37.07-2.75.14-4.12.2-80.89,3.55-161.71-1.51-242.54-3.96-78.83-2.38-157.69-1.22-236.54-.98-6.64,7.84-11.36,16.85-12.78,26.39-3.8-10.15-18.52-16.6-31.01-13.61l25.74,24.4c-8.03-4.23-17.59-6.14-27.16-5.39-1.87.15-3.63,1.06-4.38,2.46-1.33,2.48,1.24,4.46,3.62,5.82,5.69,3.3,11.78,6.1,18.16,8.4-14.87-3.85-32.96,1.46-40.56,12.75l35.77.23c-15.9,3.15-28.95,12.35-35.04,24.71l37.38-9.7c-18.01,9.45-29.98,24.9-32.69,42.2l20.01-11.7,7.52,15.64c-20.03-2.13-41.09,7.37-49.49,22.33,15.05-5.31,31.22-8.2,47.62-8.52-18.68,3.91-33.73,15.14-40.14,29.95l36.17-6.28c-18.44,9.64-29.01,26.67-27.58,44.47,9.13-9.01,20.41-16.42,33.17-21.78-9.97,11.82-15.23,25.86-15.04,40.2l31.76-30.37c.06,13.36.12,26.72.19,40.07l23.98-28.37c-4.65,9.93-3.15,21.08,4.04,29.96l17.88-10.9c21.06,4.03,12.75-1.52,31.21,7.67-11.59,9.08-3.36,24.23,1.62,29.24,11.33-6.85,22.67-13.69,34.02-20.52-9.88,8.94-13.65,21.29-10.06,32.96,6.85-9.34,16.15-17.34,27.25-23.41-7.68,10.68-9.58,23.46-5.25,35.32,9.84-9.6,17.1-20.76,21.34-32.77-.61,14.19,5.98,27.96,18.22,38.07.71-9.76,1.42-19.51,2.13-29.26,5.16,12.2,10.32,24.43,15.5,36.67,8.93-12.66,9.66-28.08,1.96-41.26,13.12-3.91,27.6-3.4,40.26,1.42,15.7,11.35,39.83,9.8,53.15-3.41l4.1-4.07c-4.67,9.48-5.18,19.98-1.44,29.73,3.73-11.43,10.39-22.09,19.52-31.28-4.74,12.25-5.43,25.31-2.01,37.85,12.32-9.95,18.89-23.67,18.1-37.78,4.66,7.02,9.31,14.08,13.95,21.18,4.69-9.6,4.76-20.3.19-29.94,7.86,3.84,14.4,9.23,19.01,15.68,3.92-8.99,1.5-19.01-6.33-26.11l25.86-7.32,9.95,31.59s10.47-2.27,13.26-22.15c1-7.12-.43-11.95-2.66-15.26l15.63-4.42c4.99,6.27,7.88,13.49,8.38,20.95,5.98-6.11,10.16-13.25,12.23-20.88,3.45,6.11,6.9,12.21,10.34,18.32,5.37-5.06,8.19-11.59,7.91-18.27,2.07-1.49,3.91-3.15,5.63-4.88,67.04,24.64,109.14-33.6,111.48-49.26,1.28-8.55-.82-19.28-3.27-27.94,7.9-7.74,12.23-17.66,12.93-27.79l21.41,10.37c-.7-27.27-23.32-26.35-23.32-26.35Z"/>
      <path class="cls-3" d="M1310.82,269.08l-69.57-67.16,5.18-10.2,58.81,57.75,37.44,31.85-39.43-130.07,5.78-4.89,32.55,75.4,24.03-34.12h3.96s-27.99,40.04-27.99,40.04l13.97,65.97,23.79,21.67c.42-1.81.85-3.4,1.22-4.68l26.43-61.58-19.93-66.41,4.48-2.28s18.77,49.12,21.58,51.88c2.81,2.76,22.92-50.04,22.92-50.04l32.67-69.25,10.8,5.9-31.16,64.72,39.54-30.23,3.61,3.73-37,32.83s-29.64,46.41-28.51,50.95c1.14,4.54,87.22-22.3,87.22-22.3l2.83,5.24s-78.82,25.71-84.96,33.91-18.5,34.57-21.24,43.22c-2.18,6.73-6.94,16.22-6.61,20.09,0,0-11.03,23.91-11.9,54.62,5.24,13.85-6.48,31.63-4.69,46.05l-3.1,32.44-15.38-25.32,2.51-12.61c1.45-34.22-13.53-73.15-14.34-83.91l-43.81-56.85-61.48-22.29v-4.1s59.8,20.02,59.8,20.02Z"/>
      <polygon class="cls-3" points="1324.97 182.93 1283.43 101.81 1274.35 107.65 1317.18 197.21 1324.97 182.93"/>
      <polygon class="cls-3" points="1312.17 151.7 1363.86 76.64 1346.39 82.41 1295.91 151.62 1312.17 151.7"/>
      <polygon class="cls-3" points="1270.44 229.01 1252.74 163.39 1257.37 139.24 1285.8 234.36 1270.44 229.01"/>
      <path class="cls-1" d="M1307.4,298.28s-2.88,8.63,7.55,18.69l10.42,10.06s5.75-21.92-2.16-28.75c-7.91-6.83-15.81,0-15.81,0Z"/>
      <path class="cls-1" d="M1144.71,49.98c-11.98.05-23.96.08-35.93.09-2.72,0-4.76-1.04-6.14-2.6-.53.15-.82.24-.82.24l4.33,18.54c4.33,18.54,38.92,21.4,38.92,21.4l15.46,3.31-7.47-28.43c-1.51-5.76-4.51-9.79-8.34-12.56Z"/>
    </g>
    <path class="cls-29" d="M870.49,23.95v536.13s572.18,0,572.18,0V23.95s-572.18,0-572.18,0ZM893.62,47.72h523.69v488.01h-523.69V47.72Z"/>
    <rect class="cls-2" x="790.18" y="23.95" width="652.45" height="35.11"/>
    <rect class="cls-17" x="856.77" y="559.71" width="584.56" height="27.03"/>
    <path class="cls-23" d="M813.73,17.04c7.91-.63,16.22-1.77,23.97-.12,7.43,1.58,14.24,3.7,22.03,4.18,7.96.49,15.6-1.2,23.09-2.99,7.61-1.81,12.47-2.06,20.15-.56,8.15,1.6,16.17,3.15,24.59,3.76,13.56.98,26.29-2.45,39.4-3.93v863.14c-3.59,2.38-7.58,4.11-12.08,4.18-5.06.08-9.92-1.86-14.4-3.9-10.5-4.78-20.53-10.11-32.39-10.97-15.68-1.14-27.42,7.57-41.32,12.58-7.67,2.77-14.97,2.83-22.72.36-7.9-2.52-15.19-6.22-23.52-7.43-6.75-.99-25.81-.58-31.99.9V18.45c8.44-.03,16.8-.75,25.2-1.41Z"/>
    <path class="cls-22" d="M885.58,873.32c-1.7-25.83-2.97-51.7-3.82-77.57s-1.27-52.11-1.25-78.17.49-51.72,1.33-77.57,1.88-51.9,2.85-77.84c.97-25.94,1.94-51.88,2.9-77.83.12-3.16.24-6.32.35-9.48.05-1.23-2.86-.66-2.9.35-.97,26.11-1.95,52.22-2.92,78.33s-1.98,51.77-2.87,77.65c-.9,26-1.5,52.01-1.61,78.02-.11,25.79.2,51.58.93,77.36.74,26.04,1.91,52.08,3.52,78.08.19,3.15.4,6.3.6,9.44.06.98,2.97.37,2.9-.78h0Z"/>
    <path class="cls-22" d="M837.63,734.29c-1.31-27.28-1.01-54.66-3.9-81.85-.81-7.62-1.88-15.2-3.3-22.73-.19-1.03-3.1-.32-2.9.78,5.05,26.85,5.58,54.24,6.36,81.47.22,7.7.47,15.41.84,23.11.05.97,2.95.37,2.9-.78h0Z"/>
  </g>
  <g id="Layer_6" data-name="Layer 6">
    <path class="cls-12" d="M767.2,504.52l-13.08-57.27s4.18-44.04,4.26-49.93c.06-4.61-12.62-39.32-19.05-54.12-1.28-2.94-4.17-4.83-7.38-4.83h0c-4.98,2.86-3.71,12.51-2.32,17.91,3.2,12.47,6.86,32.63,6.86,32.63,0,0-3.16,1.36-4.31.87-9.86-4.17-19.85-1.37-19.85-1.37,0,0-2.87,3.87-10.68,5.81-7.81,1.93-1.18,11.58-1.18,11.58,0,0-3.4-1.64-8.45,5.26-5.05,6.9,9.23,12.62,9.23,12.62,0,0,3.08,6.01,4.47,23.51,1.39,17.5,15.8,23.12,15.8,23.12l8.86,45.66,36.8-11.43"/>
    <path class="cls-33" d="M727.41,450.66c-6.03-8.35-6.84-20.11-1.93-29.18,1.47-2.72,3.55-5.2,4.03-8.34.04-.26-.92-.09-.96.16-.43,2.83-2.18,5.15-3.59,7.57-1.31,2.24-2.28,4.67-2.88,7.19-1.18,4.92-1.01,10.16.47,15.01.86,2.81,2.17,5.47,3.89,7.85.18.25,1.06-.13.97-.26h0Z"/>
    <path class="cls-33" d="M728.82,413.09c-4.1-1.38-8.44-2.02-12.43-3.72-.98-.42-1.94-.9-2.85-1.47-.67-.42-1.54-.85-1.81-1.63-.26-.73-.32-1.55-.34-2.32-.01-.63-.02-1.32.13-1.94.27-1.1,1.6-1.38,2.55-1.58,1.24-.26,2.51-.33,3.77-.3,2.51.05,5.01.38,7.51.62,5.16.5,10.34.93,15.47,1.64,2.58.35,5.26.75,7.33,2.47,1.74,1.44,2.89,3.49,3.22,5.71.06.38,1.03.15.97-.26-.31-2.06-1.32-3.99-2.82-5.43-1.7-1.63-3.87-2.39-6.15-2.78-5.5-.96-11.12-1.34-16.68-1.88-2.7-.26-5.42-.62-8.14-.7-1.31-.04-2.63,0-3.93.22-1.03.17-2.13.4-3.02.98-1.4.92-1.26,2.77-1.13,4.25.06.69.15,1.48.53,2.07.21.32.56.53.86.75.49.35,1,.68,1.53.98,4.57,2.62,9.93,3.24,14.86,4.9.35.12,1.13-.39.58-.58h0Z"/>
    <path class="cls-33" d="M700.35,423.27c.81.7,1.94.72,2.91.35,1.11-.42,2-1.35,2.79-2.21s1.3-1.88,1.4-3.06-.12-2.32-.44-3.43c-.11-.39-1.08-.12-.97.26.51,1.76.81,3.83-.3,5.43-.53.76-1.29,1.51-2.03,2.06s-1.71.85-2.46.19c-.29-.25-1.2.14-.89.4h0Z"/>
    <path class="cls-33" d="M699.76,406.21c1.94,3.23,4.36,6.42,7.27,8.85,2.55,2.12,6.29,2.28,8.84.04,1.35-1.18,2.15-2.93,2.17-4.72,0-.45-.97-.27-.97.1-.02,1.85-.88,3.67-2.41,4.74-1.72,1.2-4.07,1.17-5.84.09s-3.19-2.81-4.5-4.35-2.58-3.33-3.66-5.13c-.19-.32-1.12.01-.89.4h0Z"/>
    <path class="cls-33" d="M708.82,391.4c-.18,3.33-.3,6.95,1.88,9.72.18.23,1.11-.09.9-.36-2.11-2.68-1.99-6.26-1.82-9.49.02-.35-.95-.15-.96.14h0Z"/>
    <path class="cls-33" d="M728.49,395.79c-.62-.05-1.24-.01-1.85.1-.53.1-1.28.22-1.62.7-.15.2-.15.45-.14.7.02.29.05.58.08.87.07.61.18,1.22.31,1.83.05.22,1.02-.02.97-.26-.11-.48-.19-.97-.26-1.46s-.15-.96-.13-1.43c0-.17.05-.36.2-.46.04-.03.07-.03.16-.05s.17-.04.26-.06c.47-.09.93-.11,1.41-.07.22.02.5-.06.68-.18.15-.1.13-.21-.06-.22h0Z"/>
    <path class="cls-33" d="M718.22,468.45c4.13,1.08,8.91-.68,11.29-4.24.1-.15-.35-.11-.39-.1-.19.03-.45.1-.56.27-2.07,3.1-5.93,4.63-9.54,3.69-.21-.05-.49.02-.68.12-.08.05-.33.21-.12.26h0Z"/>
    <path class="cls-22" d="M894.96,873.73c-1.7-25.83-2.97-51.7-3.82-77.57-.85-26.05-1.27-52.11-1.25-78.17s.49-51.72,1.33-77.57,1.88-51.9,2.85-77.84c.97-25.94,1.94-51.88,2.9-77.83.12-3.16.24-6.32.35-9.48.05-1.23-2.86-.66-2.9.35-.97,26.11-1.95,52.22-2.92,78.33-.97,25.88-1.98,51.77-2.87,77.65-.9,26-1.5,52.01-1.61,78.02-.11,25.79.2,51.58.93,77.36.74,26.04,1.91,52.08,3.52,78.08.19,3.15.4,6.3.6,9.44.06.98,2.97.37,2.9-.78h0Z"/>
    <path class="cls-33" d="M1094.21,694.28c5.1-1.83,10.64,1.34,14.65,4.26,4.28,3.12,8.17,6.74,11.62,10.75.33.38,1.95-.21,1.59-.63-3.97-4.61-8.55-8.9-13.7-12.17-4.45-2.83-9.64-4.63-14.81-2.77-1.13.41-.08.82.63.56h0Z"/>
    <path class="cls-31" d="M433.2,394.4c23.65,8.38,52.7,39.31,62.28,74.83,9.58,35.52-16.44,190-11.79,221.28,5.92,36.44,1.28,45.16,36,106l5.19,9.48-66.08,4.41s-4.91-62.27-21.84-111.93c-16.92-49.66-3.77-304.07-3.77-304.07Z"/>
    <g>
      <path class="cls-2" d="M18.61,517.58h231.48s16,65.83,15.78,65.2c-.22-.63-233.32-2.65-233.32-2.65l-13.95-62.55Z"/>
      <g>
        <rect class="cls-20" x="90.55" y="960.49" width="458.98" height="67.12"/>
        <rect class="cls-2" x="359.36" y="960.49" width="190.18" height="67.12"/>
        <path class="cls-20" d="M90.55,960.49s-9.74-156.52-24.13-221.99c-14.39-65.47-53.95-231.32-53.95-231.32h35.32s38.25,169.62,50.02,226.66c11.77,57.04,24.28,226.66,24.28,226.66h-31.54Z"/>
        <path class="cls-2" d="M109.7,960.49s-8.37-156.52-20.74-221.99c-12.37-65.47-53.95-231.32-53.95-231.32h25.03s39.37,169.62,49.49,226.66c10.12,57.04,27.28,226.66,27.28,226.66h-27.11Z"/>
        <path class="cls-20" d="M312,960.49s-9.74-156.52-24.13-221.99c-13.75-62.55-9.16-57.6-59.19-231.32h40.57s38.25,169.62,50.03,226.66c11.77,57.04,24.28,226.66,24.28,226.66h-31.54Z"/>
        <path class="cls-2" d="M331.15,960.49s-8.37-156.52-20.74-221.99c-12.37-65.47-53.95-231.32-53.95-231.32h25.03s39.37,169.62,49.49,226.66c10.12,57.04,27.28,226.66,27.28,226.66h-27.12Z"/>
      </g>
      <path class="cls-2" d="M71.2,634.49h231.48s16,65.83,15.78,65.2c-.22-.63-233.32-2.65-233.32-2.65l-13.95-62.55Z"/>
    </g>
    <g>
      <path class="cls-2" d="M1272.08,522.35h-231.48s-16,65.83-15.78,65.2c.22-.63,233.32-2.65,233.32-2.65l13.95-62.55Z"/>
      <g>
        <rect class="cls-20" x="741.16" y="965.26" width="458.98" height="67.12" transform="translate(1941.3 1997.64) rotate(-180)"/>
        <rect class="cls-2" x="741.16" y="965.26" width="190.18" height="67.12" transform="translate(1672.49 1997.64) rotate(-180)"/>
        <path class="cls-20" d="M1200.14,965.26s9.74-156.52,24.13-221.99c14.39-65.47,53.95-231.32,53.95-231.32h-35.32s-38.25,169.62-50.02,226.66c-11.77,57.04-24.28,226.66-24.28,226.66h31.54Z"/>
        <path class="cls-2" d="M1180.99,965.26s8.37-156.52,20.74-221.99c12.37-65.47,53.95-231.32,53.95-231.32h-25.03s-39.37,169.62-49.49,226.66c-10.12,57.04-27.28,226.66-27.28,226.66h27.11Z"/>
        <path class="cls-20" d="M978.69,965.26s9.74-156.52,24.13-221.99c13.75-62.55,9.16-57.6,59.19-231.32h-40.57s-38.25,169.62-50.03,226.66c-11.77,57.04-24.28,226.66-24.28,226.66h31.54Z"/>
        <path class="cls-2" d="M959.54,965.26s8.37-156.52,20.74-221.99c12.37-65.47,53.95-231.32,53.95-231.32h-25.03s-39.37,169.62-49.49,226.66c-10.12,57.04-27.28,226.66-27.28,226.66h27.12Z"/>
      </g>
      <path class="cls-2" d="M1219.49,639.26h-231.48s-16,65.83-15.78,65.2c.22-.63,233.32-2.65,233.32-2.65l13.95-62.55Z"/>
    </g>
    <path class="cls-6" d="M172.63,711.21s-77.81,120.29-30.08,210.69c22.74,43.05,90.8,43.01,90.8,43.01l69.81-87.79v-145.18l-130.53-20.73Z"/>
    <path class="cls-31" d="M441.89,649.86c1.56-9.44,2.68-19.63,5.33-28.82,5.11-17.73,23.62-27.25,39.03-34.57,3.74-1.78-6.44-3.16-2.62-4.7.03-13.48,8.12-29.3,8.22-42.79.15-21.71,7.54-41.48,5.77-63.15-1.67-20.47-13.84-44.71-29.73-59.21-6.66-6.08-8.92-10.16-16.72-14.52l-23.34-13.75c-.89-.27-14.1-7.33-15.02-7.54-1.95-.44-3.35-.41-4.18-1.62l-9.76-3.82-62.17-33.34-44.13,14.75s-61.27,14.66-73.83,22.99c-15.37,10.15-12.31,214.55-12.31,214.55,0,0-7.12,79.77-60.78,158.02-.35.51-1.88,4.21-2.11,4.8-.7,1.84,10.68,10.59,12.18,11.68,4.65,3.35,12.66,4.63,17.94,6.82,10.77,4.47,19.99,4.14,31.36,6.43,15.48,3.12,31.07,5.76,46.79,7.3,14.66,1.44,30.09-.5,44.54,1.71l163.82,1.12s-12.53-74.59-12.53-74.59c-1.44-8.57-3.79-16.9-4.88-25.57-1.14-9.02-1.68-18.12-1.61-27.22.03-4.45.17-8.91.53-13.34.04-.55.11-1.09.2-1.63Z"/>
    <path class="cls-6" d="M629.12,872.89c-3.53,105.74-14.08,286.32-30.87,394.25,0,0-81.41,40.45-93.45,16.79,0,0-29.29-220.7-69.35-350.31-35.28-114.13-249.39-122.84-222.2-133.19,42.79-16.28,317.38-38.53,370.42-19.41,35.16,12.67,47.79,21.75,45.46,91.86Z"/>
    <path class="cls-6" d="M586.77,781c-3.77-3.22-7.82-6.27-12.1-8.95-139.98-11.84-357.64,14.78-357.64,14.78,0,0-101.1,31.94-71.65,120.53,39.03,117.4,329.45,41.11,429.1,4.62.48-.17.94-.36,1.41-.53.57-6.81,1.49-13.59,2.66-20.28,2.65-15.14,6.65-29.98,11.61-44.4,5.05-14.69,11.17-28.96,18.34-42.59-6.47-8.42-13.68-16.29-21.73-23.17Z"/>
    <path class="cls-6" d="M575.7,786.47s-15.25.38-35.95,5.89c1.94-10.82,1.76-18.49,1.76-18.49-2.46-2.02-5.04-4.07-7.73-6.15-11.25,6.02-21.97,13.17-32.18,21.07-11.87,9.18-23.06,19.4-33.46,30.48-10.03,10.68-19.33,22.23-27.54,34.61-2.32,3.51-35.71,7.09-37.83,10.75.38.04.07,21.05.44,21.08-30.22,57.1,17.26,141.6,14.3,243.15-2.6,89.17-2.84,101.91-7.63,149.28,14.26,21.43,125.01,11.4,125.01,11.4,13.88-137.58,40.81-503.07,40.81-503.07Z"/>
    <line class="cls-24" x1="401.8" y1="553.85" x2="401.69" y2="555.57"/>
    <path class="cls-32" d="M481.2,474.9c-2.2,2.58-3.88,5.72-5.21,8.82-2.4,5.59-3.57,11.69-3.04,17.77.43,4.93,1.43,9.82,2.32,14.68,1.22,6.6,2.42,13.2,3.37,19.84,2.25,15.77,3.23,32,.29,47.75-2.29,12.27-6.59,25.14-15.12,34.55-2.36,2.6-5.03,4.84-7.72,7.09-2.02,1.69-4.08,3.45-5.44,5.74-.79,1.33-1.27,2.83-1.78,4.28-.82,2.36-1.55,4.75-2.22,7.15-1.77,6.36-3.14,12.84-4.11,19.38-1.09,7.4-1.67,14.9-1.33,22.38.25,5.53,1.28,10.88,2.3,16.3,1.91,10.17,3.7,20.37,5.49,30.57,1.89,10.79,3.74,21.59,5.59,32.39,1.09,6.37,2.17,12.75,3.24,19.12.05.31.1.62.16.93.1.6,1.55.24,1.45-.39-.75-4.49-1.51-8.97-2.28-13.45-1.72-10.12-3.45-20.24-5.21-30.36-1.87-10.76-3.75-21.52-5.71-32.26-.74-4.06-1.49-8.11-2.28-12.16-1.42-7.27-1.62-14.69-1.15-22.06.81-12.68,3.3-25.55,7.48-37.57.97-2.8,2.09-5.11,4.23-7.19s4.63-3.92,6.88-5.95c7.76-7.02,12.61-16.21,15.8-26.09,4.95-15.37,5.74-31.46,4.4-47.45-1.13-13.42-3.85-26.56-6.11-39.81-.83-4.86-1.55-9.69-.95-14.63.71-5.94,2.91-11.69,6.19-16.68.52-.79,1.06-1.59,1.68-2.31.58-.68-.81-.79-1.19-.35h0Z"/>
    <path class="cls-12" d="M305.34,273.49s9.97,45.77-3.72,75.68c-1.91,4.17-29.66,12.37-29.66,12.37l37.15,17.68c17.26,5.15,46.68,10.82,71.55,8.63,10.86-.96,25.78.92,34.07-6.16h0s-19.05-8.76-19.84-14.11c-.78-5.35,5.47-50.03,5.47-50.03"/>
    <path class="cls-33" d="M395.34,354.95s-10.17-5.6-16.58-7.39c-6.41-1.79-17.37-1.38-46.95-26.91,0,0,8.74,31.46,46.43,38.11,0,0,10.56,2.27,16.95.7l.15-4.5Z"/>
    <path class="cls-12" d="M427.27,162.18c.13.11.27.21.41.32-.14-.22-.28-.45-.37-.68l-.03.35ZM443.13,166.76c.22.24.46.48.71.71l.03-.29s-.71-.77-.74-.42ZM328.01,319.85c13.87,16.64,36.27,32.68,59.99,35.77,23.73,3.09,26.28-7.93,32.22-13.44,9.89-9.19,13.65-11,21.07-20.35,7.16-9.03,12.2-20.05,14.37-31.51,2.35-12.4-.39-24.55,1.55-36.92.87-5.61,5.17-27.65,6.69-40.66,1.52-13.02-10.17-34.39-10.17-34.39-.46-3.59-2.17-6.23-3.84-9.22l-1.54-.13s.74.42.64,1.48c-1.92-.47-3.77-1.69-5.16-2.99v.06c-2.41.86-4.62-.4-6.39-2.33-.03.35.29,1.09.68,1.12-2.34.15-4.55-1.11-5.97-2.65-.03.35.3,1.09.26,1.44-1.72-.47-3.39-1.53-4.76-2.61.31.49,9.1-.1,9.08.14-2.33.15.24,1.15-1.53-.78l-1.79-1.48c-1.95.19-1.98,1.35-3.4-.19.35.39-.72-3.98-.75-3.62-2.31-.2-1.66-.3-3.49-1.52-.03.35-6.48,1.75-6.51,2.1-1.92-.17-1.57,1.64-2.98.1.35.39,1.52-1.36,1.87-.97-2.33.15-3.33,1.56-5.1-.37.35.39-7.26-4.53-7.26-4.53-2.34.15-2.01.91-3.81-.66.71.77-10.58-1.58-10.26-.84-1.92-.17,3.06,7.36,1.61,6.17-.03.35-4.33-1.44-4.33-1.44-1.95.19.78,2.2-.64.66-.03.35.26,1.44.65,1.48-2.4.86-5.03-.08-7.21-1.69.71.77,1.03,1.51,1.38,1.9-1.92-.17-3.49.05-5.29-1.52-.03.35.64,1.48,1.03,1.51-1.98.54-4.26-.01-6.09-1.24-.03.35.68,1.12,1.03,1.51-1.56.22-3.1.09-4.54-1.11l1.03,1.51c-1.54-.13-2.75.47-4.99-.43-.03.35.71.77.68,1.12-1.15-.1-2.69-.23-3.81-.69-.03.35,1.06,1.16.68,1.12-1.54-.13-2.75.47-4.61-.4.35.39.68,1.12,1.03,1.51-1.54-.13-3.1.09-4.58-.75-.03.35.29,1.09.65,1.48-1.54-.13-2.75.47-4.61-.4-.03.35.68,1.12,1.03,1.51-1.54-.13-3.11.09-4.61-.4-.03.35.71.77,1.06,1.16-1.54-.13-3.1.09-4.97-.79-.06.7.29,1.09.26,1.44-1.15-.1-1.89-.52-3.04-.62l-1.98.54c-5.99,6.59-7.66,30.25-7.66,30.25-12.74,8.49-19.03,27.48-19.23,34.22-.2,6.73-3.38,21.03-3.38,21.03-1.71-2.63-5.47-8.29-6.38-11.21-.94-2.57.11-5.68-.83-8.24-2.97-5.94-10.8-4.85-15.34-1.69l-.81,1.1c-6.57,7.46-2.28,32.8,1.45,40.53,0,15.1,12.53,24.09,20.86,13.89l1.58,6.02"/>
    <path class="cls-13" d="M300.86,277.22c-4.36.11-8.59,3.07-9.28,7.54-.32,2.02.19,4.08,1.34,5.77.87,1.28,1.96,2.01,3.36,2.61,2.8,1.19,6,1.02,8.66-.47.48-.27,1.16-.79.73-1.4-.38-.54-1.5-.42-1.99-.15-1.73.96-3.49,1.03-5.32.3-.48-.19-1.05-.5-1.54-.83s-.42-.32-.78-.77c-2.02-2.51-2.1-6.24.05-8.67.57-.64,1.17-1.1,1.84-1.41.1-.05.19-.09.29-.13,0,0,.46-.17.22-.09.23-.08.47-.14.71-.2.31-.07.89-.13,1.4-.14.6-.01,1.56-.45,1.65-1.12.09-.74-.82-.85-1.33-.84h0Z"/>
    <path d="M316.42,220.82l-5.02,34.13-10.75-16.19s11.23-12.86,15.77-17.94Z"/>
    <g>
      <path class="cls-4" d="M408.87,288.55c-2.96,1.23-7.25.51-9.95-1.5-.6-.44-2.74-.25-1.9.37,3.57,2.65,9.75,3.4,13.57,1.82.38-.16.34-.44-.1-.63-.46-.2-1.21-.23-1.61-.06"/>
      <path class="cls-4" d="M395.86,286.51c-1.83-1.06-3.92-1.72-6.04-2.07-.31-.05-.72.03-.97.22-.19.14-.25.35-.03.51.93.65,2.17.99,3.32,1.07.36.03.85-.02,1.08-.32.21-.27-.12-.49-.4-.51-.95-.06-1.91-.34-2.68-.87-.33.24-.67.48-1,.72,1.89.31,3.76.92,5.39,1.87.32.19.82.13,1.14-.03.24-.11.51-.4.18-.6"/>
      <path class="cls-4" d="M387.37,286.04c-2.49-.28-5.32-1.61-6.39-3.58-1.61-2.98.51-7.29,3.77-8.82.36-.17.2-.44-.14-.54-.44-.13-.98-.01-1.35.16-2.85,1.33-4.92,4.85-4.75,7.52.17,2.5,2.4,4.43,5.32,5.41.87.29,1.8.51,2.73.62.38.04,1.07-.01,1.28-.29.21-.28-.12-.44-.47-.48"/>
      <path class="cls-4" d="M413.54,287.69c-.11-.3.15-.46.35-.44.67.08,1.37-.05,1.99-.46.2.29.39.57.59.86-1.36.03-2.75.35-4.02,1.05-.25.14-.59,0-.79-.19-.15-.15-.29-.47-.04-.62"/>
      <path class="cls-4" d="M411.62,287.88c1.43-.78,2.98-1.12,4.5-1.15.22,0,.5.14.64.36.11.17.12.39-.06.5"/>
      <path class="cls-4" d="M418.69,288.47c1.63.08,3.63-.83,4.59-2.63,1.45-2.71.62-6.16-1.25-8.13-.2-.21-.06-.46.17-.51.3-.07.63.13.84.35,1.63,1.72,2.55,4.37,2.05,6.99-.46,2.45-2.16,4.04-4.17,4.58-.6.16-1.22.25-1.83.22-.25-.01-.68-.16-.77-.47-.1-.31.14-.42.37-.41"/>
    </g>
    <path d="M422.41,247.97s12.55-8.03,17.84-7.85c7.72.26,15.28,7.07,17.46,11.26,0,0-10.31-9.34-15.75-9.36-5.2-.02-19.55,5.95-19.55,5.95Z"/>
    <path d="M387.52,246.37s-10.67-10.26-16.39-11.2c-8.34-1.37-18.99,3.45-22.24,7.09,0,0,14.14-6.71,19.99-5.59,5.59,1.08,18.63,9.7,18.63,9.7Z"/>
    <path d="M461.2,234.52c.09-.16.18-.32.26-.48.01-.02,0-.02.01-.03,0-.01,0,0,0-.03.03-.08.05-.16.08-.24.35-1.25-.13-2.53-.36-3.83-.12-.12-.22-.21-.26-.24,0,0-2.7-2.46-7.34-3.95-3.2-1.03-12.28-2.21-24.61-1.59-.19,1.59-.38,3.19-.58,4.8-.14,1.22-.29,2.44-.42,3.65,4.34-.76,8.03-1.19,10.8-1.45,5.87-.56,8.87-.82,12.15-.06,3.44.79,6.26,2.26,7.36,2.83.96.5,1.72.9,2.44,1.36.15-.24.31-.48.46-.73Z"/>
    <path d="M393.28,218.73c-.22,1.56-.45,3.12-.67,4.69-.17,1.19-.35,2.38-.53,3.57-5.22-1.74-9.71-3.02-13.11-3.92-7.19-1.91-10.88-2.86-15.2-2.91-4.54-.05-8.5.67-10.04.96-2.17.41-3.62.65-5.4,1.32-3.87,1.45-5.65,3.43-6.21,3.16-.51-.25.64-2.05.76-2.23,2.93-4.53,8.36-6.7,8.77-6.88,0,0,4.09-1.7,10.35-2.03,4.31-.23,16.03.79,31.3,4.27"/>
    <path d="M446.5,241.66c-.44,0-.87.07-1.29.23-1.6.6-2.27,2.08-2.42,2.43-.81,1.93-.4,4.76,1.76,6.1,1.59.99,3.81,1,5.3-.28,1.11-.96,1.95-2.65,1.68-4.27-1.8-1.24-3.42-2.73-5.02-4.21Z"/>
    <path d="M378.57,239.72c-.44-.3-.89-.59-1.34-.88-.95-.62-1.86-1.33-2.52-2.26-.01-.02-.02-.04-.03-.05-1.18-.07-2.31.13-3.01.61-.32.22-1.18.85-1.69,2.04-.65,1.51-.24,3.37.62,4.57,1.14,1.6,3.3,2.11,5.08,1.53,2.35-.77,3.41-3.3,3.17-5.34-.09-.07-.18-.14-.28-.21Z"/>
    <path class="cls-11" d="M303.93,256.93c-7.1-22.3-13.59-23.08-13.59-23.08,0,0-4.86,4.54-3.65,14.69"/>
    <path class="cls-11" d="M300.38,258.55c-5.77-1.14-2.34,10.12-4.2,12.51-1.86,2.39-3.34-4.58-3.27-12.82,0,0,1.06-11.03,6.77-12.51"/>
    <path class="cls-25" d="M455.31,192.16c-7.54-21.35-30.44-34.8-78.5-44.93-48.07-10.13-87.58,4.35-87.58,4.35,28.63-67.62,99.01-59.23,114.75-57.86,15.74,1.37,85.47,73,60.09,125.1l-1.78,5.34s-5.6-28.12-6.97-32Z"/>
    <path class="cls-25" d="M278,136.04s-2.05-44.1,31.05-55.98c44.21-15.87,102.96-19.47,119.86,27.12l-150.91,28.85Z"/>
    <path class="cls-28" d="M273.21,242.19c-3.21-3.85-1.4-13.86-4.07-18.1-14.01-22.24-7.19-42.24-.1-53.86,3.09-5.06.19-14.65.84-19.26,3.42-24.18,6.27-24.68,44.55-46.49,31.15-17.74,62.94-14.07,81.3-11.49,29.4,4.14,42.26,7.11,50.78,28.95,1.11,2.85-.53,4.93.31,8.32,1.19,4.79,7.23,9.61,7.93,15.61,0,0-38.01,8.28-72.04,23.03-34.03,14.75-97.67,77.76-97.07,98.34.02.65-8.87-20.8-12.43-25.06Z"/>
    <path class="cls-25" d="M261.06,194.72s61.69-63.94,122.69-59.25c0,0-77.13-16.94-116.6,36.36l-1.02,2.18c-2.68,5.73-4.32,11.89-4.86,18.2l-.21,2.51Z"/>
    <path class="cls-25" d="M447.58,131.13l-4-1.9c-9.3-4.42-19.18-7.47-29.35-9.06l-17.04-2.66s42.03-3.66,50.33,7.62l.06,6Z"/>
    <path class="cls-25" d="M296.92,203.4s-23.58,20.48-26,29.2l-1.78-8.51s7.89-15.46,27.78-20.68Z"/>
    <path class="cls-12" d="M873.5,579.28l-53.48,10.43-64.67-135.53c-7.73,8.63-21.66,10.73-36.36,15.02,0,0,31.48,140.2,36.54,156.29,17.9,56.89,56.77,52.29,80.89,44.32,13.88-4.59,55.94-52.16,59.03-65.7.7-3.09-22.54-25.09-21.95-24.83Z"/>
    <path class="cls-16" d="M790.05,952.69c-1.75-5.22-3.77-10.34-5.97-15.35-4.98-11.32-10.98-22.11-17.66-32.37-6.87-10.55-14.52-20.54-22.9-29.78-5.7-6.28,16.02-20.85,9.6-26.31-15.68-82.28,379.32-10.47,379.32-10.47,0,0,25.68,1.9,17.55,75.93-10.31,93.87-272.14,33.3-358.28,25.93-.41-.04-1.25,12.45-1.66,12.41Z"/>
    <path class="cls-16" d="M707.17,947.01c23.04,65.86,73.94,252.16,105.68,331.81,0,0,87.28,4.44,93.86-15.64,0,0,1.9-446.11-51.6-453.32-39.43-5.31-106.54,8.97-126.9,25.71-24.44,20.09-39.18,59.57-21.04,111.44Z"/>
    <path class="cls-16" d="M749.84,902.87s13.41-2.57,32.54-2.19c-3.7-8.03-4.97-14.02-4.97-14.02,1.78-2.03,3.66-4.11,5.62-6.23,10.96,2.56,21.66,6.09,32.05,10.31,12.08,4.9,23.77,10.73,34.92,17.37,10.75,6.4,21.03,13.62,30.5,21.7,2.68,2.29,5.29,4.65,7.83,7.09-.32.1,5.26-.73,4.94-.63,37.01,38.65,36.08,124.94,57.49,203.24,15.7,57.42,36.2,123.88,36.2,123.88-8.5,19.32-114.37,27.25-114.37,27.25-37.64-104.22-122.76-387.77-122.76-387.77Z"/>
    <path class="cls-15" d="M867.12,1276.45c-.62-1.85-1.24-3.69-1.86-5.54-1.73-5.17-3.47-10.34-5.2-15.51-2.65-7.91-5.29-15.82-7.93-23.73-3.37-10.11-6.74-20.22-10.1-30.33-3.92-11.8-7.84-23.59-11.75-35.39-4.27-12.9-8.53-25.8-12.79-38.71-4.4-13.36-8.79-26.73-13.17-40.1-4.4-13.44-8.78-26.89-13.14-40.34-4.17-12.88-8.33-25.76-12.46-38.66-3.75-11.73-7.48-23.46-11.17-35.21-3.16-10.07-6.28-20.14-9.34-30.24-2.39-7.87-4.74-15.75-6.97-23.67-1.43-5.08-2.87-10.18-3.99-15.34-4.11-18.9-3.7-39.19,5.05-56.77,4.24-8.51,10.3-15.97,17.95-21.64s17.22-9.77,26.88-11.73c6.07-1.23,12.28-1.59,18.44-2.13,9.92-.87,19.83-1.74,29.75-2.61,12.86-1.13,25.71-2.25,38.57-3.38,12.24-1.07,24.49-2.14,36.73-3.22,7.82-.68,15.64-1.37,23.45-2.05,1.08-.09,2.17-.19,3.25-.28.36-.03,1.36-.16,1.52-.55s-.13-.44-.55-.41c-4.41.39-8.82.77-13.22,1.16-10.61.93-21.21,1.86-31.82,2.79-13.15,1.15-26.3,2.3-39.46,3.46-11.78,1.03-23.56,2.06-35.34,3.1-6.76.59-13.53,1.19-20.29,1.78-13.81,1.21-27.42,5.21-38.79,13.34-15.17,10.84-24.04,28.04-26.31,46.34-1.64,13.19.02,26.47,3.32,39.27,1.69,6.53,3.56,13.02,5.46,19.49,2.65,9.01,5.39,17.99,8.16,26.96,3.41,11.04,6.87,22.06,10.37,33.08,3.92,12.38,7.89,24.75,11.87,37.11,4.29,13.31,8.6,26.62,12.94,39.92,4.42,13.56,8.85,27.12,13.31,40.68s8.74,26.59,13.13,39.88c4.12,12.47,8.25,24.93,12.38,37.39,3.68,11.08,7.36,22.15,11.05,33.22,3.04,9.13,6.09,18.25,9.13,27.37,2.21,6.61,4.42,13.23,6.64,19.84,1.19,3.54,2.37,7.08,3.56,10.63.15.44.3.89.45,1.33.19.56,2.45-.11,2.28-.61h0Z"/>
    <path class="cls-15" d="M909.46,954.64c-7.57-3.12-14.82-6.94-21.66-11.42-.87-.57-2.85.62-1.75,1.34,6.99,4.57,14.39,8.47,22.11,11.65,1,.41,2.65-1.02,1.31-1.58h0Z"/>
    <path class="cls-12" d="M1033.44,336.27s-3.26,54.04,3.32,72.34c1.6,4.44,29.61,17.6,29.61,17.6l-112.2,56.33-56.66-46.92s43.45-20.14,45.05-25.47c1.6-5.33.09-45.51.09-45.51"/>
    <path class="cls-19" d="M1145.12,471.91c-5.06-11.49-32.04-30.77-43.88-36.42-30.84-14.66-59.41-25.22-59.41-25.22,0,0-33.34,46.58-80.68,38.26-47.34-8.32-23.54-36.08-23.54-36.08l-14.77,4.47c-22.18,8.05-38.88,16.23-56.16,32.42-14.71,13.78-17.03,21.44-27.38,44.45-6.14,13.64-7.34,13.72-14.91,39.79-1.03,3.56-12.87,38.72-12.88,39.42-.05,2.24,12.39,45.57,24.63,51.93,13.74,7.14,13.2,7.95,14.51,8.59.51,1.1,1.88,52.62,1.8,54.1-1.33,25.87-1.35,46.54-3.27,72.36-.04.58-5.72,39.76-5.76,40.35,1.96.01,2.13.01,4.09.04,30.88.39,59.82-5.23,90.56-2.5,15.48,1.38-21.09,4.38-5.64,6.04,3.13.34,42.22,4.85,45.54,5.15,2.87.27,16,1.85,18.87,2.07,15.77,1.2,29.56,3.89,45.28,5.67,16.65,1.88,41.22,9.19,65.51,9.19,3.22,0,36.39,17,39.68,18.4.52-6.44-.23-69.84.25-76.28,3.97-55.33-48.47-118.97-51.53-154.25l35.17-10.63,33.71-16.98c-8.35-61.9-7.16-85.63-19.79-114.34Z"/>
    <path class="cls-21" d="M851.21,526.14c-.51,13.57-.83,27.15-1.05,40.73-.25,15.3-.38,30.6-.22,45.9.07,6.5.08,13.02.29,19.52l1.15-.54c-3.17-1.4-6.29-2.92-9.38-4.5-4.49-2.29-9.33-4.64-13.06-8.09-.46-.43-.97-.9-1.28-1.45.14.25-.03-.12-.07-.22-.14-.4-.29-.8-.44-1.2l-3.12-8.56-2.41-6.6-1.39.51c5.11,6.28,11.99,11.7,19.27,15.19,3.26,1.56,6.71,2.69,10.29,3.23.71.11,1.48-.9.5-1.04-10.54-1.61-19.92-8.45-27.05-16.1-.58-.62-1.16-1.25-1.69-1.91-.34-.41-1.62-.12-1.39.51,1.79,4.9,3.58,9.8,5.37,14.71.43,1.19.69,2.15,1.56,3.06,3.31,3.46,7.93,5.73,12.11,7.92,3.72,1.95,7.49,3.8,11.33,5.5.33.15,1.17-.07,1.15-.54-.4-12.99-.39-26.03-.34-39.02.05-15.22.29-30.44.67-45.65.18-7.16.39-14.32.66-21.48.03-.75-1.44-.53-1.47.11h0Z"/>
    <path class="cls-12" d="M1022.05,422.49c-28.79,13.45-60.97,12.25-84.79-8.36,6.36-3.27,6.15-9.22,6.53-10.6,1.42-5.11.98-40.08.98-40.08l90.45-29.19s-6.37,54.99.49,72.26c.37.92,3.38,5.04,5.64,6.98-5.4,4.6-12.81,5.95-19.3,8.99Z"/>
    <path class="cls-33" d="M926.35,367.62c2.83,5.08,5.4,10.35,8.44,15.29.05.08.06.15.08.22.28-.2.64-.22.89.17,2.14,3.34,4.26,4.78,6.12,8.32,1.6,3.05,1.39,7.61,1.37,11.19,2.39.52,6.87.36,9.9.72,20.55.68,21.1-2.06,49.38-18.43,8.98-5.19,7.63-12.28,9.37-13.52-28.1-2.23-56.11-2.46-85.55-3.97Z"/>
    <path class="cls-7" d="M1058.75,302.1s4.92-13.2,11.66-45c6.03-28.47-37.95-54.54-64.99-60.21-14.87-3.12-65.33.63-78.6,6.07-13.27,5.45-20.95,22.66-23.77,47.74,0,0,9.21-24.58,25.12-23.18,12.98,1.15,55.24-3.18,65.98,2.07,10.74,5.25,34.44,16.33,33.47,55.86-.26,10.77,19.42.41,24.33,7.17,4.92,6.75,6.78,9.48,6.78,9.48Z"/>
    <path class="cls-12" d="M1034.71,347.13l6.28-38.57,4.1-43.31-15.35-33.77-30.13-16.54-35.13-.64s-28.44,5.55-37.42,7.45c-8.98,1.91-15.76,12.42-22.38,24.24-6.62,11.81-5.03,32.05-5.03,32.05-.28.68.33,3.79.44,4.43,1.35,8.17,1.55,15.26,2.69,21.36.53,2.89.39,5.56-.6,8.19-3.91,10.36-4.08,14.87-3.55,21.36.73,8.85,1.98,16.42,4.87,23.49,3.07,7.51,7,15.64,7.8,17.24,0,0,8.84,16.92,10.85,18.63,2.01,1.71,5.07,3.37,6.53,3.6,1.46.23,20.7,2.42,20.7,2.42l8.97.22c3.05.07,6.08-.46,8.93-1.56,7.71-3,29.73-12.02,35.82-15.87,8.2-5.18,18.76-27.85,18.76-27.85"/>
    <path class="cls-7" d="M1028.02,309.26c-.32,3.35-.84,16.68-1.36,19.93l17.36.42c5.73-11.27,12.61-24.52,14.73-27.51,3.32-4.68,4.83-28.01,5.41-36.8l.12-1.89c.57-8.42-6.9-22.17-19.99-36.77-14.4-16.07-40.77-26-67.17-25.3-2.51.07-5.02.23-7.45.48-23.01,2.37-42.51,12.94-57.94,31.43-11.13,13.33-12.52,29.06-12.07,38.71,1.47-18.94,8.72-31.99,9.02-32.54,6.87-12.62,15.05-15.96,20.71-16.55,4.93-.51,8.56.97,9.27,1.29,5.5,1.49,13.68,1.09,19.58.48,4.4-.45,7.9-1.05,8.85-1.22,3.04-1.92,7.52-3.22,12.99-3.79,12.69-1.31,30.86,1.72,34.39,7.43,3.91,6.34,12.36,28.67,12.2,33.79"/>
    <path class="cls-12" d="M1033.02,347.92c9.78,10.74,17.2-8.9,17.2-8.9,10.16-11.48,10.53-24.02,10.43-32.61-.1-8.59-9.54-8.74-9.54-8.74-8.04.63-11.75,4.82-19.26,31.65"/>
    <path class="cls-7" d="M911.67,230.11c6.17-9.18,17.93-20.57,24.71-29.31,3.09-.18,18.34,0,21.55-.02,32.66-.2,75.8,20.08,79.59,32.09,2.36,7.49-.79,47.73-2.34,51.35-4.24,9.92-6.25,23.05-6.25,23.05-.82-15.17-11.04-32.39-12.22-37.62-1.18-5.23,6.6-29.58,4.96-30.68-1.64-1.1-31.1-11.24-64.39-11.87-9.81-.19-19.67.34-28.45,1.2.07-.1-17.23,1.92-17.17,1.82Z"/>
    <path class="cls-7" d="M972.15,296.22c2.02-.98,4.33-1.77,5.61-.58.3.28,1.11,1.07,1.46,2.4.45,1.69-.26,3.57-1.34,4.7-1.44,1.51-3.79,1.71-5.56.83-2.41-1.2-3.13-4.15-2.47-6.27.12-.39.68-.28,2.31-1.08"/>
    <path class="cls-7" d="M913.77,294.51c-1.97-1.08-4.32-.25-5.66.88-.31.26-1.16,1.02-1.57,2.32-.53,1.66.09,3.58,1.11,4.76,1.37,1.58,3.7,1.9,5.52,1.1,2.46-1.08,3.33-3.99,2.77-6.14-.1-.39-.58-2.05-2.17-2.92"/>
    <path class="cls-7" d="M929.98,302.84s-7.83-8.22-13.69-8.9c-8.55-1-10.8.88-13.93,4.74,0,0,5.71-3.97,11.72-3.1,5.74.83,15.9,7.27,15.9,7.27Z"/>
    <path class="cls-7" d="M958.83,300.92s12.32-7.08,18.22-6.99c8.61.13,18.65,5.63,21.25,9.87,0,0-13.2-8.03-19.27-7.96-5.8.07-20.2,5.08-20.2,5.08Z"/>
    <path class="cls-7" d="M962.51,265.56c-.68,1.93-1.37,3.86-2.05,5.8-.52,1.48-1.81,4.8-2.32,6.28,5.15.43,10.05.09,13.28.64,6.41,1.09,13.11,1.8,18.88,4.91,2.76,1.49,5.06,3.15,6.97,5.5.6.74,1.95,3.52,3.29,3.4.55-.05.62-2.7.63-2.97.12-5.35-3.29-8.81-7.91-11.74-9.44-5.98-19.85-9.41-30.76-11.82"/>
    <path class="cls-7" d="M897.79,278.66s2.95-1.87,2.97-1.88c8.23-5.28,17.37-7.97,26.95-9.63.63,1.94,1.27,3.9,1.9,5.85.48,1.49,1.44,4.14,1.91,5.63-4.53.09-8.58-.24-11.42.1-5.64.66-11.59,1.28-16.63,3.97-.4.21-3.77,1.6-4.14,1.83-2.58-2.14-2.14-5.19-1.54-5.86Z"/>
    <g>
      <path class="cls-4" d="M935.54,336.59c2.48,1.41,6.33,1.19,8.9-.36.57-.34,2.44.05,1.64.53-3.4,2.04-8.92,2.1-12.12.28-.32-.18-.25-.43.15-.56.42-.13,1.09-.09,1.43.1"/>
      <path class="cls-4" d="M947.19,336.05c1.71-.78,3.62-1.16,5.52-1.27.28-.01.63.1.83.29.16.15.18.35-.03.46-.88.49-2,.68-3.03.63-.32-.01-.75-.11-.92-.39-.16-.27.15-.43.4-.42.84.04,1.71-.11,2.44-.52.27.25.54.5.81.75-1.69.09-3.4.45-4.93,1.15-.3.14-.73.03-1-.14-.2-.13-.41-.42-.1-.56"/>
      <path class="cls-4" d="M954.7,336.48c2.22,0,4.84-.93,5.98-2.6,1.71-2.53.28-6.63-2.45-8.34-.3-.19-.13-.41.18-.47.4-.08.87.09,1.18.28,2.37,1.49,3.85,4.86,3.43,7.26-.4,2.25-2.55,3.77-5.22,4.36-.79.17-1.64.29-2.46.29-.34,0-.94-.12-1.09-.39-.16-.28.15-.39.47-.39"/>
      <path class="cls-4" d="M931.51,335.34c.13-.26-.09-.43-.27-.43-.6,0-1.2-.18-1.7-.62-.2.24-.4.48-.6.72,1.19.16,2.38.59,3.44,1.35.21.15.52.06.71-.1.15-.12.31-.4.1-.55"/>
      <path class="cls-4" d="M933.18,335.71c-1.18-.85-2.51-1.31-3.85-1.49-.2-.02-.45.07-.6.26-.12.14-.15.34,0,.46"/>
      <path class="cls-4" d="M926.91,335.54c-1.44-.09-3.11-1.12-3.78-2.84-1.01-2.6.06-5.64,1.9-7.24.2-.17.1-.41-.09-.48-.26-.09-.57.05-.77.23-1.6,1.4-2.67,3.7-2.5,6.12.17,2.26,1.5,3.87,3.21,4.57.51.21,1.05.35,1.59.39.22.01.61-.08.73-.35.11-.27-.08-.39-.29-.41"/>
    </g>
    <g>
      <path class="cls-18" d="M1038.08,407.16s-25.47,43.56-69.14,40.41c-43.68-3.15-34.57-27.05-34.57-27.05l5.68-10.02-14.94,5.51s-4.59,13.11.62,24.22c5.21,11.1,27.12,20.75,55.1,18.22,16.41-1.49,37.97-12.05,51.05-24.92,15.67-15.4,18.43-19.13,18.43-19.13l-12.24-7.23Z"/>
      <path class="cls-21" d="M1037.37,407.29c-3,5.11-6.88,9.82-10.88,14.17-8.69,9.44-19.22,17.51-31.31,22.05-7.33,2.76-15.14,4.12-22.98,3.9s-16.79-1.43-24.34-4.67c-7.17-3.08-13.43-8.81-13.56-17.08-.02-1.64.12-3.44.69-5,.23-.62.61-1.18.93-1.75,1.32-2.32,2.63-4.64,3.95-6.97.3-.52.59-1.04.89-1.57.17-.3-.9-.07-.97-.05-3.72,1.37-7.44,2.75-11.17,4.12l-2.79,1.03c-.35.13-.83.22-1.15.43-.4.27-.43.63-.57,1.1-.3,1.03-.55,2.07-.76,3.11-1.43,7.05-1.43,15.33,2.38,21.68,2.83,4.72,7.68,8.02,12.51,10.43,6.72,3.35,14.11,5.23,21.53,6.19,8.52,1.1,17.48,1.17,25.95-.4,7.87-1.47,15.49-4.3,22.66-7.84s14.59-8.21,20.88-13.68c5.82-5.05,11.17-10.77,16.48-16.36,1.26-1.32,2.5-2.65,3.71-4.02.43-.48,1.09-1.04,1.39-1.62.04-.08.13-.16.18-.23.02-.05.01-.09-.03-.12-4.08-2.41-8.16-4.82-12.24-7.23-.36-.21-1.57.38-1.36.5,3.25,1.92,6.49,3.84,9.74,5.75l2.04,1.21c.24.14.41.32.41.17,0,.06-.64.77-.83.99-2.49,2.88-5.16,5.61-7.82,8.33-5.63,5.76-11.21,11.68-17.68,16.51-6.54,4.89-13.73,8.96-21.26,12.13-7.1,2.99-14.55,5.17-22.25,5.76-8.68.67-17.49.22-26-1.67-6.52-1.45-13.01-3.74-18.62-7.43-4.63-3.04-8.25-6.94-9.9-12.31-1.96-6.37-1.56-13.47.24-19.83.11-.38.22-.77.35-1.14l-.46.3c4.98-1.84,9.96-3.67,14.94-5.51l-.97-.05c-1.03,1.81-2.06,3.63-3.08,5.44-.85,1.5-1.91,3.01-2.6,4.59-.52,1.2-.67,2.68-.75,3.96-.53,7.76,4.45,13.92,11.06,17.41,6.71,3.55,14.47,4.92,21.95,5.64,8.15.78,16.29.23,24.19-1.97,13.1-3.66,24.74-11.33,34.35-20.84,3.54-3.5,6.82-7.25,9.82-11.22,1-1.31,1.96-2.65,2.88-4.02.48-.71,1.15-1.48,1.48-2.28.04-.1.12-.2.18-.3.11-.19-1.21-.12-1.43.25Z"/>
    </g>
    <path class="cls-30" d="M1040.36,324.72c1.5-4.62,3.25-9.32,5.92-13.42.67-1.03,1.43-2.03,2.31-2.9.26-.25.52-.49.81-.7.27-.2.46-.32.59-.39.1-.05.19-.09.29-.14.23-.11-.12.09.05-.02.13-.08.23-.04,0-.01l-.59-.19c.75.73,1.3,1.74,1.71,2.69,1.18,2.73,1.36,5.75,1.01,8.68-.08.71,1.39.5,1.46-.12.41-3.45.1-7.08-1.63-10.16-.43-.77-1.06-2.09-2.11-1.85-.8.18-1.53.71-2.14,1.23-1.51,1.28-2.67,2.94-3.69,4.62-2.39,3.98-4.02,8.4-5.45,12.8-.21.63,1.27.47,1.46-.12h0Z"/>
    <path class="cls-30" d="M1042.16,326.12c4.86-.12-1.51,10.57,2.44,10.71,1.1.04,1.76-1,2.18-1.87.81-1.7,1.26-3.59,1.64-5.43.49-2.35.7-4.41.44-6.78-.3-2.71-1.11-6.15-3.84-7.39-.47-.21-1.78.45-1.14.75,2.31,1.05,3.07,3.87,3.42,6.17.26,1.67.37,3.37.1,5.04-.32,2.05-.74,4.11-1.4,6.08-.22.66-.46,1.32-.8,1.92-.07.13-.38.46-.4.6-.02.1-.09.02-.05.07l.46-.04c-.05-.03-.1-.07-.13-.12-.06-.32-.27-.59-.3-.95-.04-.52.02-1.05.09-1.56.14-1.16.38-2.32.51-3.48.24-2.13.09-4.7-2.66-4.63-.29,0-.83.09-.95.41-.11.29.09.49.41.49h0Z"/>
    <path class="cls-30" d="M950.79,278.14c-2.45-1.1-4.01-3.44-4.58-6.01-.71-3.19.13-6.52,1.28-9.5.28-.73-1.17-.63-1.37-.1-1.22,3.15-2.12,6.61-1.36,9.99.61,2.72,2.31,5.24,4.9,6.4.32.14.75.11,1.03-.11.18-.14.44-.51.1-.66h0Z"/>
    <g>
      <path class="cls-12" d="M811.51,573s24.93,34.35,14.73,57.23"/>
      <path class="cls-33" d="M810.84,573.3c2.96,4.08,5.51,8.51,7.82,12.98,4.45,8.57,8.15,17.91,9.09,27.59.54,5.52.04,11.2-2.2,16.31-.31.7,1.14.59,1.37.09,4.07-9.28,2.6-19.88-.4-29.25-2.67-8.34-6.65-16.27-11.27-23.69-.98-1.57-1.98-3.14-3.07-4.64-.33-.45-1.73.06-1.34.6h0Z"/>
    </g>
    <path class="cls-9" d="M400,301.83c-11.1-1.12-28.97-4.19-28.97-4.19,0,0,.18,28.73,25.92,31.32,25.74,2.59,28.15-26.49,28.15-26.49,0,0-13.99.47-25.09-.64Z"/>
    <path class="cls-27" d="M400.11,301.84c-5.28-.53-24.86-3.2-24.86-3.2,0,0,3.92,17.86,23.01,19.78,20.7,2.08,24.14-15.65,24.14-15.65l-22.3-.93Z"/>
    <path class="cls-8" d="M400.26,302.63c-5.28-.53-21.25-3.01-21.25-3.01,0,0,5.22,6.18,21.06,7.77,15.84,1.59,21.41-3.34,21.41-3.34l-21.21-1.42Z"/>
    <path class="cls-9" d="M426.38,302.46c-.55-.19-1.18.03-3.78-.45-4.33-.8-5.33-2.16-8.47-2.71-5.36-.95-9,.77-11.35.54-2.35-.24-5.57-2.65-11.02-2.79-3.19-.08-11.14.24-15.54.17-2.64-.05-5.62-1.34-6.19-1.26-.8.11.16,5.8,29.69,8.77,29.54,2.97,27.42-2,26.66-2.26Z"/>
    <path class="cls-9" d="M943.28,350.34c10.35-.07,27.11-1.36,27.11-1.36,0,0-2.65,26.52-26.64,26.68-23.99.16-23.7-26.9-23.7-26.9,0,0,12.88,1.65,23.23,1.58Z"/>
    <path class="cls-27" d="M943.18,350.34c4.92-.03,23.23-.8,23.23-.8,0,0-5.17,16.15-22.96,16.27-19.29.13-20.93-16.54-20.93-16.54l20.67,1.07Z"/>
    <path class="cls-8" d="M942.97,351.05c4.92-.03,19.89-.94,19.89-.94,0,0-5.35,5.25-20.11,5.35-14.76.1-19.48-4.94-19.48-4.94l19.71.52Z"/>
    <path class="cls-9" d="M918.86,348.64c.52-.13,1.09.13,3.53-.09,4.07-.37,5.1-1.53,8.05-1.77,5.04-.41,8.25,1.49,10.44,1.48,2.19-.01,5.38-1.96,10.42-1.62,2.95.2,10.26,1.19,14.34,1.5,2.44.19,5.3-.75,5.83-.63.73.17-.65,5.34-28.18,5.53-27.53.18-25.15-4.22-24.43-4.4Z"/>
    <path class="cls-31" d="M278.78,600.02l4.91,45.81c.56.4,1.33.51,1.98-.05,5.47-4.7,10.95-7.57,16.06-12.72l162.52-24.29,3.99,56.44s-162.14,36.83-196.9,33.66c-1.98-.18-25.25,24.36-27.16,24.12-18.55-2.36-36.49-24.05-44.66-39.68-10.14-19.41-11.64-43.47-12.92-64.93-2.53-42.47-8.45-84.35-10.38-126.86-.92-20.31-2.82-33.5,1.45-53.38,5.99-27.9,10.92-43.2,38.94-56.96l52.32-17.78"/>
    <path class="cls-32" d="M467.99,653.13c-.16,4.09-.32,8.19-.48,12.28l.66-.44c-10.81,2.78-21.73,5.22-32.63,7.62-26.14,5.75-52.43,10.68-78.69,15.81-27.79,5.44-55.66,10.48-83.86,13.3-7.71.77-15.44,1.18-23.15,1.86.32-.03-.37.04-.52.05-.6.06-1.2.1-1.79.14-5.03.31-10.11.08-15.1-.65-7.18-1.06-14.31-3.25-20.49-7.13-7.28-4.58-12.68-11.43-15.51-19.55-.81-2.33-1.41-4.72-1.86-7.15-.06-.33-1.52,0-1.45.39,1.65,8.98,5.77,17.34,12.75,23.35,5.71,4.92,12.81,7.98,20.11,9.67,5.78,1.34,11.74,1.89,17.67,1.8,5.15-.08,10.35-.6,15.46-.99,15.32-1.18,30.58-2.99,45.77-5.29,13.84-2.09,27.62-4.58,41.37-7.23,12.98-2.49,25.95-5.04,38.93-7.53,13.96-2.68,27.9-5.5,41.8-8.48,9.37-2.01,18.73-4.1,28.07-6.29,4.25-1,8.5-2.01,12.73-3.08.17-.04.35-.09.52-.13.2-.05.65-.18.66-.44.16-4.09.32-8.19.48-12.28,0-.25-1.43-.06-1.45.39h0Z"/>
    <path class="cls-32" d="M234.54,411.98c10.94-.04,18.64,9.83,23.48,18.51,3.17,5.68,5.61,11.76,7.62,17.94.81,2.48,1.55,4.95,2.06,7.5,2.28,11.51,3.18,23.35,4.25,35.02,1.54,16.71,2.78,33.46,3.95,50.2,1.07,15.37,2.04,30.74,2.96,46.12.31,5.21.61,10.43.91,15.64.14,2.51.19,5.04.42,7.54.01.11.01.23.02.34.03.57.65.58,1.07.41-.32.13.32-.11.5-.17.67-.21,1.34-.4,2.02-.58,2.92-.75,5.89-1.29,8.87-1.73,13.56-2.02,27.39-2.33,41.08-2.17,9.73.11,19.46.56,29.2.77s18.66.32,27.99.38c16.29.11,32.57.04,48.86-.15,5.43-.06,10.86-.14,16.29-.24,1.72-.03,3.44-.06,5.17-.1.86-.02,1.81.07,2.66-.06.11-.02.23,0,.34,0l-.61-.23,1.12,1.74c.38.59,1.75,0,1.32-.66s-.85-1.88-1.72-1.98c-.13-.01-.27,0-.4,0-.97.01-1.93.04-2.9.06-4.36.09-8.72.16-13.09.22-15.59.23-31.18.33-46.77.3-19.13-.04-38.25-.36-57.37-.97-15.86-.51-31.89-.49-47.67,1.49-3.7.46-7.4,1.04-11.04,1.87-1.33.3-2.94.53-4.17,1.15-.1.05-.22.08-.33.12l1.07.41c-.35-6.51-.73-13.02-1.11-19.52-.89-15.11-1.84-30.22-2.87-45.33-1.16-16.99-2.4-33.97-3.91-50.93-1.11-12.54-2.12-25.2-4.32-37.61-1.36-7.67-4.14-15.13-7.43-22.16-4.31-9.19-10.71-19.75-20.87-23.23-2.1-.72-4.29-1.06-6.51-1.05-.85,0-1.09,1.13-.11,1.13h0Z"/>
    <path class="cls-32" d="M281.64,609.43c-6.68,1.12-12.57,5.05-16.4,10.61-4.37,6.34-5.61,14.37-4.42,21.87.1.61,1.55.25,1.45-.39-1.11-6.97-.05-14.36,3.72-20.41,3.42-5.48,9.08-9.63,15.5-10.71.76-.13,1.14-1.14.15-.97h0Z"/>
    <path class="cls-12" d="M468.72,652.94l16.05-3.71s47.88,13.26,61.94,11.81c10.12-1.48,19.98-4.53,29.31-9.07l12.07,2.55c5.56,1.17,11.27.16,16.18-2.86l3.78-2.33s14.41,7.7,16.8,2.84c2.4-4.85-2.34-9.31-6.95-13.65-4.6-4.33-95.21-40.18-95.21-40.18,7.68-4.12,22.54-3.39,30.75-5.96,12.64-3.85,16.12-10.49,10.08-14.98-3.72-2.77-14.49-3.99-21.11.19-6.6,4.16-40.84-1.23-53.07,4.67-12.23,5.9-19.64,24.52-19.64,24.52-1,.65-5.45,2-5.45,2-.29,1.87,4.47,44.16,4.47,44.16Z"/>
    <path class="cls-33" d="M607.24,648.7c-5.58-2.34-11.54-3.87-17.34-5.55-7.14-2.07-14.32-4.05-21.4-6.33-2.82-.91-5.66-1.83-8.35-3.08-.73-.34-2.05.71-1.03,1.19,5.48,2.54,11.48,4.1,17.25,5.8,7.14,2.1,14.31,4.07,21.42,6.26,2.83.87,5.68,1.75,8.41,2.9.74.31,2.06-.75,1.03-1.19h0Z"/>
    <path class="cls-33" d="M574.21,650.91c-9.58-2-19.17-4-28.75-6-1.34-.28-2.68-.56-4.02-.84-.87-.18-1.79,1.03-.62,1.28,9.58,2,19.17,4,28.75,6,1.34.28,2.68.56,4.02.84.87.18,1.79-1.03.62-1.28h0Z"/>
    <g>
      <path class="cls-20" d="M1462.27,818.58H-118.45s1.41-51.61,1.41-51.61h1580.72"/>
      <polygon class="cls-2" points="-89.4 865.5 1427.17 865.5 1438.18 817.25 -100.42 817.25 -89.4 865.5"/>
    </g>
    <path class="cls-12" d="M1156.26,610.45c-24.32,2.81-48.59,6.06-72.91,8.88l4.75,75.21-21.84,6.25-119.43,47.84,4.37,33.69s90.88-2.22,119.32-8.72c1.62-.37,43.85-6.96,54.18-10.7,17.89-6.48,24.37-15.73,29.39-29.59,6.24-17.21,6.09-51.68,4.75-69.61-1.32-17.77-1.92-35.51-2.59-53.25Z"/>
    <path class="cls-12" d="M953.52,748.18l6.69,33.66-4.53.02s-36.71,6.83-45.37,5.42c-8.66-1.41-29.35-2.19-29.35-2.19.94,2.54.97,5.34.08,7.9-1.23,2.87-3.59,5.11-6.52,6.2l-8.34-14.12c-2.82,6.2-8.26,1.16-8.26,1.16l-5.95-12.35c-3.15,7.83-10.36,1.46-10.36,1.46l-2.91-17.03c-2.25,2.65-4.99,4.83-8.08,6.42-3.98,1.63-4.93-5.11-4.93-5.11l16.04-25.49,40.19-9.82,68.89,24.4,2.72-.51Z"/>
    <path class="cls-10" d="M838.9,759.39c.24-.02.28-2.64.87-7.06.16-1.1.3-2.37.55-3.54.28-1.2,1.03-2.24,2.07-2.89,2.58-1.81,5.32-3.39,8.19-4.71,3.03-1.43,6.02-2.58,8.79-3.68,2.78-1.1,5.22-2.1,7.3-2.69"/>
    <path class="cls-10" d="M851.48,772.42c-.23-1.17-.93-2.83-1.09-4.81-.16-2.43.27-4.86,1.25-7.09.42-1.28.99-2.5,1.7-3.63,1.11-.9,2.39-1.57,3.76-1.98,5.94-2.26,11.7-3.67,15.66-5.28"/>
    <path class="cls-10" d="M866.67,785.13c.27-.16-.91-1.78-1.94-4.56-.7-1.54-.93-3.25-.64-4.91.47-1.94,1.86-3.53,3.71-4.25,1.98-.79,4.08-1.26,6.22-1.37l5.47-.65c1.38-.18,2.66-.46,3.45-.52"/>
    <path class="cls-33" d="M1085.54,695.61c5.1-1.83,10.64,1.34,14.65,4.26,4.28,3.12,8.17,6.74,11.62,10.75.33.38,1.95-.21,1.59-.63-3.97-4.61-8.55-8.9-13.7-12.17-4.45-2.83-9.64-4.63-14.81-2.77-1.13.41-.08.82.63.56h0Z"/>
    <path class="cls-19" d="M1157.21,520.34s10.32,75.4,13.77,112.2c0,0-59.62,18.06-101.68,10.87-44.58-7.63,3.36-92.67,3.36-92.67l84.55-30.4Z"/>
    <path class="cls-21" d="M1094.25,464.84c-3.53.5-6.99,2.5-9.81,4.56-7.97,5.84-12.98,14.91-16.04,24.12-6.37,19.18-5.32,39.83-4.91,59.74.43,20.51,1.34,41.02,2.74,61.49.44,6.49.93,12.97,1.48,19.44.26,3,.39,6.05.83,9.03.02.13.03.26.04.39.02.21.31.28.47.31,11.84,2.06,24.12,2.64,36.11,2.25,10.25-.33,20.22-1.95,30.24-4.05,8.32-1.74,16.6-3.72,24.81-5.94,3.65-.99,7.3-2,10.9-3.16.31-.1.64-.3.6-.66-.39-3.81-.77-7.63-1.16-11.44-.03-.34-.64-.34-.85-.28-11.34,3.53-22.95,6.35-34.59,8.66-17.79,3.53-36.05,5.07-54.18,4.46-2.89-.1-5.84-.17-8.7-.65-.68-.11-1.48.85-.51,1.01,2.28.38,4.62.47,6.92.58,7.57.35,15.17.15,22.74-.24,10.05-.52,19.98-1.62,29.88-3.44,8.63-1.58,17.19-3.55,25.67-5.77,4.36-1.14,8.72-2.33,13.02-3.67l-.85-.28c.39,3.81.77,7.63,1.16,11.44l.6-.66c-10.27,3.31-20.83,5.86-31.36,8.17-10.08,2.22-20.16,4.18-30.48,4.75-8.75.48-17.55.25-26.28-.5-4.4-.38-8.82-.83-13.18-1.59l.47.31c-.77-7.5-1.35-15.02-1.9-22.54-1.4-19.1-2.36-38.23-2.91-57.38-.34-11.95-.71-23.95-.47-35.9.18-9.16,1.04-18.38,3.21-27.3,2.52-10.37,6.98-21.02,15.14-28.23,3.16-2.8,7-5.18,11.01-6.02.22-.05-.2.03,0,0,.78-.11,1.13-1.15.14-1.01h0Z"/>
  </g>
</svg>