<?xml version="1.0" encoding="UTF-8"?>
<svg xmlns="http://www.w3.org/2000/svg" xmlns:xlink="http://www.w3.org/1999/xlink" viewBox="0 0 1334 1000">
  <defs>
    <style>
      .cls-1 {
        fill: #3c5c2c;
      }

      .cls-2 {
        fill: #67402e;
      }

      .cls-3 {
        fill: #9f6a42;
      }

      .cls-4 {
        fill: #010101;
      }

      .cls-5 {
        fill: url(#linear-gradient-2);
      }

      .cls-6 {
        fill: #1d3942;
      }

      .cls-7 {
        fill: #653c29;
      }

      .cls-8 {
        fill: #231f20;
      }

      .cls-9 {
        fill: #f1eef7;
      }

      .cls-10 {
        fill: #a66e53;
      }

      .cls-11 {
        fill: #ce8d2a;
      }

      .cls-12 {
        fill: url(#linear-gradient);
        opacity: .5;
      }

      .cls-13 {
        fill: none;
        stroke: #010101;
        stroke-miterlimit: 10;
        stroke-width: .96px;
      }

      .cls-14 {
        fill: #212121;
      }

      .cls-15 {
        fill: #3d3d3d;
      }

      .cls-16 {
        fill: #b7b7b7;
      }

      .cls-17 {
        fill: #e29926;
      }

      .cls-18 {
        fill: #fff;
      }

      .cls-19 {
        fill: #e19826;
      }

      .cls-20 {
        fill: #7b5342;
      }

      .cls-21 {
        fill: #8b5522;
      }

      .cls-22 {
        fill: #2d383d;
      }

      .cls-23 {
        fill: #4f2f26;
      }

      .cls-24 {
        fill: #45616e;
      }

      .cls-25 {
        fill: #8e6528;
      }

      .cls-26 {
        fill: #b15e27;
      }

      .cls-27 {
        fill: #f2ebd1;
      }

      .cls-28 {
        fill: #24180f;
      }

      .cls-29 {
        fill: #de8b27;
      }

      .cls-30 {
        fill: #dcdbdb;
      }

      .cls-31 {
        fill: #381c13;
      }

      .cls-32 {
        fill: #c85844;
      }

      .cls-33 {
        fill: #662117;
      }

      .cls-34 {
        fill: #4f2e25;
      }
    </style>
    <linearGradient id="linear-gradient" x1="-6802.22" y1="9183.21" x2="-5742.79" y2="9183.21" gradientTransform="translate(-8514.36 6793.33) rotate(90) scale(1 -1)" gradientUnits="userSpaceOnUse">
      <stop offset="0" stop-color="#f0ebe0"/>
      <stop offset=".18" stop-color="#eee8dd" stop-opacity=".99"/>
      <stop offset=".33" stop-color="#e8e1d4" stop-opacity=".97"/>
      <stop offset=".46" stop-color="#ded4c5" stop-opacity=".93"/>
      <stop offset=".59" stop-color="#d0c2b0" stop-opacity=".88"/>
      <stop offset=".72" stop-color="#bdab95" stop-opacity=".82"/>
      <stop offset=".84" stop-color="#a78e73" stop-opacity=".73"/>
      <stop offset=".96" stop-color="#8d6d4d" stop-opacity=".64"/>
      <stop offset="1" stop-color="#83603d" stop-opacity=".6"/>
    </linearGradient>
    <linearGradient id="linear-gradient-2" x1="1105.05" y1="604.79" x2="1133.13" y2="-61.85" gradientUnits="userSpaceOnUse">
      <stop offset=".29" stop-color="#bbe5f5"/>
      <stop offset=".81" stop-color="#76c7db"/>
    </linearGradient>
  </defs>
  <g id="Layer_3" data-name="Layer 3">
    <polyline class="cls-27" points="1372.37 1032.13 1372.37 -24.34 -34.67 -24.34 -34.67 1032.13"/>
    <polyline class="cls-12" points="1372.37 1047.04 -34.67 1047.04 -34.67 -12.39 1372.37 -12.39"/>
    <rect class="cls-5" x="818.16" y="35.47" width="599.16" height="536.3"/>
    <g>
      <path class="cls-1" d="M1680.74,136.08v.02c-2.57-7.92-7.51-15.26-14.9-20.93l15.17,4.68c-1.59-8.75-6.03-17-12.85-23.89l20.13,7.28c-4.1-14.36-21.09-25.62-39.29-26.01l-3.32-2.34c9.19-7.03,16.96-15.19,23.08-24.16-6.87.72-13.74,1.34-20.62,1.9-6.84,2.51-12.91,6.4-17.55,11.44,1.62-3.3,2.38-6.81,2.39-10.33-4.64.3-9.29.58-13.94.81,1.04,2.84,2.2,5.66,3.51,8.43-2.36-2.92-5.02-5.66-7.91-8.22-1.37.07-2.75.14-4.12.2-80.89,3.55-161.71-1.51-242.54-3.96-78.83-2.38-157.69-1.22-236.54-.98-6.64,7.84-11.36,16.85-12.78,26.39-3.8-10.15-18.52-16.6-31.01-13.61l25.74,24.4c-8.03-4.23-17.59-6.14-27.16-5.39-1.87.15-3.63,1.06-4.38,2.46-1.33,2.48,1.24,4.46,3.62,5.82,5.69,3.3,11.78,6.1,18.16,8.4-14.87-3.85-32.96,1.46-40.56,12.75l35.77.23c-15.9,3.15-28.95,12.35-35.04,24.71l37.38-9.7c-18.01,9.45-29.98,24.9-32.69,42.2l20.01-11.7,7.52,15.64c-20.03-2.13-41.09,7.37-49.49,22.33,15.05-5.31,31.22-8.2,47.62-8.52-18.68,3.91-33.73,15.14-40.14,29.95l36.17-6.28c-18.44,9.64-29.01,26.67-27.58,44.47,9.13-9.01,20.41-16.42,33.17-21.78-9.97,11.82-15.23,25.86-15.04,40.2l31.76-30.37c.06,13.36.12,26.72.19,40.07l23.98-28.37c-4.65,9.93-3.15,21.08,4.04,29.96l17.88-10.9c21.06,4.03,12.75-1.52,31.21,7.67-11.59,9.08-3.36,24.23,1.62,29.24,11.33-6.85,22.67-13.69,34.02-20.52-9.88,8.94-13.65,21.29-10.06,32.96,6.85-9.34,16.15-17.34,27.25-23.41-7.68,10.68-9.58,23.46-5.25,35.32,9.84-9.6,17.1-20.76,21.34-32.77-.61,14.19,5.98,27.96,18.22,38.07.71-9.76,1.42-19.51,2.13-29.26,5.16,12.2,10.32,24.43,15.5,36.67,8.93-12.66,9.66-28.08,1.96-41.26,13.12-3.91,27.6-3.4,40.26,1.42,15.7,11.35,39.83,9.8,53.15-3.41l4.1-4.07c-4.67,9.48-5.18,19.98-1.44,29.73,3.73-11.43,10.39-22.09,19.52-31.28-4.74,12.25-5.43,25.31-2.01,37.85,12.32-9.95,18.89-23.67,18.1-37.78,4.66,7.02,9.31,14.08,13.95,21.18,4.69-9.6,4.76-20.3.19-29.94,7.86,3.84,14.4,9.23,19.01,15.68,3.92-8.99,1.5-19.01-6.33-26.11l25.86-7.32,9.95,31.59s10.47-2.27,13.26-22.15c1-7.12-.43-11.95-2.66-15.26l15.63-4.42c4.99,6.27,7.88,13.49,8.38,20.95,5.98-6.11,10.16-13.25,12.23-20.88,3.45,6.11,6.9,12.21,10.34,18.32,5.37-5.06,8.19-11.59,7.91-18.27,2.07-1.49,3.91-3.15,5.63-4.88,67.04,24.64,109.14-33.6,111.48-49.26,1.28-8.55-.82-19.28-3.27-27.94,7.9-7.74,12.23-17.66,12.93-27.79l21.41,10.37c-.7-27.27-23.32-26.35-23.32-26.35Z"/>
      <path class="cls-3" d="M1310.82,269.08l-69.57-67.16,5.18-10.2,58.81,57.75,37.44,31.85-39.43-130.07,5.78-4.89,32.55,75.4,24.03-34.12h3.96s-27.99,40.04-27.99,40.04l13.97,65.97,23.79,21.67c.42-1.81.85-3.4,1.22-4.68l26.43-61.58-19.93-66.41,4.48-2.28s18.77,49.12,21.58,51.88c2.81,2.76,22.92-50.04,22.92-50.04l32.67-69.25,10.8,5.9-31.16,64.72,39.54-30.23,3.61,3.73-37,32.83s-29.64,46.41-28.51,50.95c1.14,4.54,87.22-22.3,87.22-22.3l2.83,5.24s-78.82,25.71-84.96,33.91-18.5,34.57-21.24,43.22c-2.18,6.73-6.94,16.22-6.61,20.09,0,0-11.03,23.91-11.9,54.62,5.24,13.85-6.48,31.63-4.69,46.05l-3.1,32.44-15.38-25.32,2.51-12.61c1.45-34.22-13.53-73.15-14.34-83.91l-43.81-56.85-61.48-22.29v-4.1s59.8,20.02,59.8,20.02Z"/>
      <polygon class="cls-3" points="1324.97 182.93 1283.43 101.81 1274.35 107.65 1317.18 197.21 1324.97 182.93"/>
      <polygon class="cls-3" points="1312.17 151.7 1363.86 76.64 1346.39 82.41 1295.91 151.62 1312.17 151.7"/>
      <polygon class="cls-3" points="1270.44 229.01 1252.74 163.39 1257.37 139.24 1285.8 234.36 1270.44 229.01"/>
      <path class="cls-1" d="M1307.4,298.28s-2.88,8.63,7.55,18.69l10.42,10.06s5.75-21.92-2.16-28.75c-7.91-6.83-15.81,0-15.81,0Z"/>
      <path class="cls-1" d="M1144.71,49.98c-11.98.05-23.96.08-35.93.09-2.72,0-4.76-1.04-6.14-2.6-.53.15-.82.24-.82.24l4.33,18.54c4.33,18.54,38.92,21.4,38.92,21.4l15.46,3.31-7.47-28.43c-1.51-5.76-4.51-9.79-8.34-12.56Z"/>
    </g>
    <path class="cls-30" d="M870.49,23.95v536.13s572.18,0,572.18,0V23.95s-572.18,0-572.18,0ZM893.62,47.72h523.69v488.01h-523.69V47.72Z"/>
    <rect class="cls-2" x="790.18" y="23.95" width="652.45" height="35.11"/>
    <rect class="cls-16" x="856.77" y="559.71" width="584.56" height="27.03"/>
    <path class="cls-24" d="M813.73,17.04c7.91-.63,16.22-1.77,23.97-.12,7.43,1.58,14.24,3.7,22.03,4.18,7.96.49,15.6-1.2,23.09-2.99,7.61-1.81,12.47-2.06,20.15-.56,8.15,1.6,16.17,3.15,24.59,3.76,13.56.98,26.29-2.45,39.4-3.93v863.14c-3.59,2.38-7.58,4.11-12.08,4.18-5.06.08-9.92-1.86-14.4-3.9-10.5-4.78-20.53-10.11-32.39-10.97-15.68-1.14-27.42,7.57-41.32,12.58-7.67,2.77-14.97,2.83-22.72.36-7.9-2.52-15.19-6.22-23.52-7.43-6.75-.99-25.81-.58-31.99.9V18.45c8.44-.03,16.8-.75,25.2-1.41Z"/>
    <path class="cls-22" d="M885.58,873.32c-1.7-25.83-2.97-51.7-3.82-77.57-.85-26.05-1.27-52.11-1.25-78.17s.49-51.72,1.33-77.57,1.88-51.9,2.85-77.84c.97-25.94,1.94-51.88,2.9-77.83.12-3.16.24-6.32.35-9.48.05-1.23-2.86-.66-2.9.35-.97,26.11-1.95,52.22-2.92,78.33-.97,25.88-1.98,51.77-2.87,77.65s-1.5,52.01-1.61,78.02c-.11,25.79.2,51.58.93,77.36.74,26.04,1.91,52.08,3.52,78.08.19,3.15.4,6.3.6,9.44.06.98,2.97.37,2.9-.78h0Z"/>
    <path class="cls-22" d="M837.63,734.29c-1.31-27.28-1.01-54.66-3.9-81.85-.81-7.62-1.88-15.2-3.3-22.73-.19-1.03-3.1-.32-2.9.78,5.05,26.85,5.58,54.24,6.36,81.47.22,7.7.47,15.41.84,23.11.05.97,2.95.37,2.9-.78h0Z"/>
  </g>
  <g id="Layer_4" data-name="Layer 4">
    <path class="cls-22" d="M874.34,868.62c-1.7-25.83-2.97-51.7-3.82-77.57-.85-26.05-1.27-52.11-1.25-78.17s.49-51.72,1.33-77.57c.84-25.95,1.88-51.9,2.85-77.84.97-25.94,1.94-51.88,2.9-77.83.12-3.16.24-6.32.35-9.48.05-1.23-2.86-.66-2.9.35-.97,26.11-1.95,52.22-2.92,78.33s-1.98,51.77-2.87,77.65c-.9,26-1.5,52.01-1.61,78.02-.11,25.79.2,51.58.93,77.36.74,26.04,1.91,52.08,3.52,78.08.19,3.15.4,6.3.6,9.44.06.98,2.97.37,2.9-.78h0Z"/>
    <path class="cls-10" d="M1144.3,604.01c-24.32,2.81-48.59,6.06-72.91,8.88l4.75,75.21-21.84,6.25-119.43,47.84,4.37,33.69s90.88-2.22,119.32-8.72c1.62-.37,43.85-6.96,54.18-10.7,17.89-6.48,24.37-15.73,29.39-29.59,6.24-17.21,6.09-51.68,4.75-69.61-1.32-17.77-1.92-35.51-2.59-53.25Z"/>
    <path class="cls-34" d="M1073.59,689.17c5.1-1.83,10.64,1.34,14.65,4.26,4.28,3.12,8.17,6.74,11.62,10.75.33.38,1.95-.21,1.59-.63-3.97-4.61-8.55-8.9-13.7-12.17-4.45-2.83-9.64-4.63-14.81-2.77-1.13.41-.08.82.63.56h0Z"/>
    <path class="cls-19" d="M1145.25,513.9s10.32,75.4,13.77,112.2c0,0-59.62,18.06-101.68,10.87-44.58-7.63,3.36-92.67,3.36-92.67l84.55-30.4Z"/>
    <path class="cls-21" d="M1082.29,458.4c-3.53.5-6.99,2.5-9.81,4.56-7.97,5.84-12.98,14.91-16.04,24.12-6.37,19.18-5.32,39.83-4.91,59.74.43,20.51,1.34,41.02,2.74,61.49.44,6.49.93,12.97,1.48,19.44.26,3,.39,6.05.83,9.03.02.13.03.26.04.39.02.21.31.28.47.31,11.84,2.06,24.12,2.64,36.11,2.25,10.25-.33,20.22-1.95,30.24-4.05,8.32-1.74,16.6-3.72,24.81-5.94,3.65-.99,7.3-2,10.9-3.16.31-.1.64-.3.6-.66-.39-3.81-.77-7.63-1.16-11.44-.03-.34-.64-.34-.85-.28-11.34,3.53-22.95,6.35-34.59,8.66-17.79,3.53-36.05,5.07-54.18,4.46-2.89-.1-5.84-.17-8.7-.65-.68-.11-1.48.85-.51,1.01,2.28.38,4.62.47,6.92.58,7.57.35,15.17.15,22.74-.24,10.05-.52,19.98-1.62,29.88-3.44,8.63-1.58,17.19-3.55,25.67-5.77,4.36-1.14,8.72-2.33,13.02-3.67l-.85-.28c.39,3.81.77,7.63,1.16,11.44l.6-.66c-10.27,3.31-20.83,5.86-31.36,8.17-10.08,2.22-20.16,4.18-30.48,4.75-8.75.48-17.55.25-26.28-.5-4.4-.38-8.82-.83-13.18-1.59l.47.31c-.77-7.5-1.35-15.02-1.9-22.54-1.4-19.1-2.36-38.23-2.91-57.38-.34-11.95-.71-23.95-.47-35.9.18-9.16,1.04-18.38,3.21-27.3,2.52-10.37,6.98-21.02,15.14-28.23,3.16-2.8,7-5.18,11.01-6.02.22-.05-.2.03,0,0,.78-.11,1.13-1.15.14-1.01h0Z"/>
    <path class="cls-32" d="M433.48,392.7c23.65,8.38,52.7,39.31,62.28,74.83,9.58,35.52-16.44,190-11.79,221.28,5.92,36.44,1.28,45.16,36,106l5.19,9.48-66.08,4.41s-4.91-62.27-21.84-111.93c-16.92-49.66-3.77-304.07-3.77-304.07Z"/>
    <path class="cls-10" d="M898.81,450.7c-23.65,8.38-52.7,39.31-62.28,74.83-9.58,35.52-3.56,132-8.21,163.28-5.92,36.44-21.13,89.89-26,106l-13.19,9.48,64.08,4.41s4.91-62.27,21.84-111.93c16.92-49.66,23.77-246.07,23.77-246.07Z"/>
    <g>
      <path class="cls-2" d="M18.89,515.88h231.48s16,65.83,15.78,65.2c-.22-.63-233.32-2.65-233.32-2.65l-13.95-62.55Z"/>
      <g>
        <rect class="cls-20" x="90.83" y="958.79" width="458.98" height="67.12"/>
        <rect class="cls-2" x="359.64" y="958.79" width="190.18" height="67.12"/>
        <path class="cls-20" d="M90.83,958.79s-9.74-156.52-24.13-221.99c-14.39-65.47-53.95-231.32-53.95-231.32h35.32s38.25,169.62,50.02,226.66c11.77,57.04,24.28,226.66,24.28,226.66h-31.54Z"/>
        <path class="cls-2" d="M109.98,958.79s-8.37-156.52-20.74-221.99c-12.37-65.47-53.95-231.32-53.95-231.32h25.03s39.37,169.62,49.49,226.66c10.12,57.04,27.28,226.66,27.28,226.66h-27.11Z"/>
        <path class="cls-20" d="M312.28,958.79s-9.74-156.52-24.13-221.99c-13.75-62.55-9.16-57.6-59.19-231.32h40.57s38.25,169.62,50.03,226.66c11.77,57.04,24.28,226.66,24.28,226.66h-31.54Z"/>
        <path class="cls-2" d="M331.43,958.79s-8.37-156.52-20.74-221.99c-12.37-65.47-53.95-231.32-53.95-231.32h25.03s39.37,169.62,49.49,226.66c10.12,57.04,27.28,226.66,27.28,226.66h-27.12Z"/>
      </g>
      <path class="cls-2" d="M71.48,632.79h231.48s16,65.83,15.78,65.2c-.22-.63-233.32-2.65-233.32-2.65l-13.95-62.55Z"/>
    </g>
    <g>
      <path class="cls-2" d="M1272.36,520.65h-231.48s-16,65.83-15.78,65.2c.22-.63,233.32-2.65,233.32-2.65l13.95-62.55Z"/>
      <g>
        <rect class="cls-20" x="741.44" y="963.56" width="458.98" height="67.12" transform="translate(1941.86 1994.24) rotate(-180)"/>
        <rect class="cls-2" x="741.44" y="963.56" width="190.18" height="67.12" transform="translate(1673.06 1994.24) rotate(-180)"/>
        <path class="cls-20" d="M1200.42,963.56s9.74-156.52,24.13-221.99c14.39-65.47,53.95-231.32,53.95-231.32h-35.32s-38.25,169.62-50.02,226.66c-11.77,57.04-24.28,226.66-24.28,226.66h31.54Z"/>
        <path class="cls-2" d="M1181.27,963.56s8.37-156.52,20.74-221.99c12.37-65.47,53.95-231.32,53.95-231.32h-25.03s-39.37,169.62-49.49,226.66c-10.12,57.04-27.28,226.66-27.28,226.66h27.11Z"/>
        <path class="cls-20" d="M978.97,963.56s9.74-156.52,24.13-221.99c13.75-62.55,9.16-57.6,59.19-231.32h-40.57s-38.25,169.62-50.03,226.66c-11.77,57.04-24.28,226.66-24.28,226.66h31.54Z"/>
        <path class="cls-2" d="M959.82,963.56s8.37-156.52,20.74-221.99c12.37-65.47,53.95-231.32,53.95-231.32h-25.03s-39.37,169.62-49.49,226.66c-10.12,57.04-27.28,226.66-27.28,226.66h27.12Z"/>
      </g>
      <path class="cls-2" d="M1219.78,637.56h-231.48s-16,65.83-15.78,65.2c.22-.63,233.32-2.65,233.32-2.65l13.95-62.55Z"/>
    </g>
    <path class="cls-6" d="M172.91,709.51s-77.81,120.29-30.08,210.69c22.74,43.05,90.8,43.01,90.8,43.01l69.81-87.79v-145.18l-130.53-20.73Z"/>
    <path class="cls-32" d="M442.17,648.16c1.56-9.44,2.68-19.63,5.33-28.82,5.11-17.73,23.62-27.25,39.03-34.57,3.74-1.78-6.44-3.16-2.62-4.7.03-13.48,8.12-29.3,8.22-42.79.15-21.71,7.54-41.48,5.77-63.15-1.67-20.47-13.84-44.71-29.73-59.21-6.66-6.08-8.92-10.16-16.72-14.52l-23.34-13.75c-.89-.27-14.1-7.33-15.02-7.54-1.95-.44-3.35-.41-4.18-1.62l-9.76-3.82-62.17-33.34-44.13,14.75s-61.27,14.66-73.83,22.99c-15.37,10.15-12.31,214.55-12.31,214.55,0,0-7.12,79.77-60.78,158.02-.35.51-1.88,4.21-2.11,4.8-.7,1.84,10.68,10.59,12.18,11.68,4.65,3.35,12.66,4.63,17.94,6.82,10.77,4.47,19.99,4.14,31.36,6.43,15.48,3.12,31.07,5.76,46.79,7.3,14.66,1.44,30.09-.5,44.54,1.71l163.82,1.12s-12.53-74.59-12.53-74.59c-1.44-8.57-3.79-16.9-4.88-25.57-1.14-9.02-1.68-18.12-1.61-27.22.03-4.45.17-8.91.53-13.34.04-.55.11-1.09.2-1.63Z"/>
    <path class="cls-6" d="M629.4,871.19c-3.53,105.74-14.08,286.32-30.87,394.25,0,0-81.41,40.45-93.45,16.79,0,0-29.29-220.7-69.35-350.31-35.28-114.13-249.39-122.84-222.2-133.19,42.79-16.28,317.38-38.53,370.42-19.41,35.16,12.67,47.79,21.75,45.46,91.86Z"/>
    <path class="cls-6" d="M587.05,779.3c-3.77-3.22-7.82-6.27-12.1-8.95-139.98-11.84-357.64,14.78-357.64,14.78,0,0-101.1,31.94-71.65,120.53,39.03,117.4,329.45,41.11,429.1,4.62.48-.17.94-.36,1.41-.53.57-6.81,1.49-13.59,2.66-20.28,2.65-15.14,6.65-29.98,11.61-44.4,5.05-14.69,11.17-28.96,18.34-42.59-6.47-8.42-13.68-16.29-21.73-23.17Z"/>
    <path class="cls-6" d="M575.98,784.77s-15.25.38-35.95,5.89c1.94-10.82,1.76-18.49,1.76-18.49-2.46-2.02-5.04-4.07-7.73-6.15-11.25,6.02-21.97,13.17-32.18,21.07-11.87,9.18-23.06,19.4-33.46,30.48-10.03,10.68-19.33,22.23-27.54,34.61-2.32,3.51-35.71,7.09-37.83,10.75.38.04.07,21.05.44,21.08-30.22,57.1,17.26,141.6,14.3,243.15-2.6,89.17-2.84,101.91-7.63,149.28,14.26,21.43,125.01,11.4,125.01,11.4,13.88-137.58,40.81-503.07,40.81-503.07Z"/>
    <line class="cls-25" x1="402.08" y1="552.15" x2="401.97" y2="553.87"/>
    <path class="cls-32" d="M272.73,599.45l4.91,45.81c.56.4,1.33.51,1.98-.05,5.47-4.7,10.95-7.57,16.06-12.72l142.38,31.35,4.53,64.39s-144.12.76-178.88-2.42c-1.98-.18-23.68-3.14-25.59-3.38-18.55-2.36-36.49-24.05-44.66-39.68-10.14-19.41-11.64-43.47-12.92-64.93-2.53-42.47-8.45-84.35-10.38-126.86-.92-20.31-2.82-33.5,1.45-53.38,5.99-27.9,10.92-43.2,38.94-56.96l52.32-17.78"/>
    <path class="cls-33" d="M461.94,652.57c-.16,4.09-.32,8.19-.48,12.28l.66-.44c-10.81,2.78-21.73,5.22-32.63,7.62-26.14,5.75-52.43,10.68-78.69,15.81-27.79,5.44-55.66,10.48-83.86,13.3-7.71.77-15.44,1.18-23.15,1.86.32-.03-.37.04-.52.05-.6.06-1.2.1-1.79.14-5.03.31-10.11.08-15.1-.65-7.18-1.06-14.31-3.25-20.49-7.13-7.28-4.58-12.68-11.43-15.51-19.55-.81-2.33-1.41-4.72-1.86-7.15-.06-.33-1.52,0-1.45.39,1.65,8.98,5.77,17.34,12.75,23.35,5.71,4.92,12.81,7.98,20.11,9.67,5.78,1.34,11.74,1.89,17.67,1.8,5.15-.08,10.35-.6,15.46-.99,15.32-1.18,30.58-2.99,45.77-5.29,13.84-2.09,27.62-4.58,41.37-7.23,12.98-2.49,25.95-5.04,38.93-7.53,13.96-2.68,27.9-5.5,41.8-8.48,9.37-2.01,18.73-4.1,28.07-6.29,4.25-1,8.5-2.01,12.73-3.08.17-.04.35-.09.52-.13.2-.05.65-.18.66-.44.16-4.09.32-8.19.48-12.28,0-.25-1.43-.06-1.45.39h0Z"/>
    <path class="cls-33" d="M228.49,411.42c10.94-.04,18.64,9.83,23.48,18.51,3.17,5.68,5.61,11.76,7.62,17.94.81,2.48,1.55,4.95,2.06,7.5,2.28,11.51,3.18,23.35,4.25,35.02,1.54,16.71,2.78,33.46,3.95,50.2,1.07,15.37,2.04,30.74,2.96,46.12.31,5.21.61,10.43.91,15.64.14,2.51.19,5.04.42,7.54.01.11.01.23.02.34.03.57.65.58,1.07.41-.32.13.32-.11.5-.17.67-.21,1.34-.4,2.02-.58,2.92-.75,5.89-1.29,8.87-1.73,13.56-2.02,27.39-2.33,41.08-2.17,9.73.11,19.46.56,29.2.77,9.33.2,18.66.32,27.99.38,16.29.11,32.57.04,48.86-.15,5.43-.06,10.86-.14,16.29-.24,1.72-.03,3.44-.06,5.17-.1.86-.02,1.81.07,2.66-.06.11-.02.23,0,.34,0l-.61-.23c.37.58.75,1.16,1.12,1.74s1.75,0,1.32-.66-.85-1.88-1.72-1.98c-.13-.01-.27,0-.4,0-.97.01-1.93.04-2.9.06-4.36.09-8.72.16-13.09.22-15.59.23-31.18.33-46.77.3-19.13-.04-38.25-.36-57.37-.97-15.86-.51-31.89-.49-47.67,1.49-3.7.46-7.4,1.04-11.04,1.87-1.33.3-2.94.53-4.17,1.15-.1.05-.22.08-.33.12l1.07.41c-.35-6.51-.73-13.02-1.11-19.52-.89-15.11-1.84-30.22-2.87-45.33-1.16-16.99-2.4-33.97-3.91-50.93-1.11-12.54-2.12-25.2-4.32-37.61-1.36-7.67-4.14-15.13-7.43-22.16-4.31-9.19-10.71-19.75-20.87-23.23-2.1-.72-4.29-1.06-6.51-1.05-.85,0-1.09,1.13-.11,1.13h0Z"/>
    <path class="cls-33" d="M441.87,669.54c1.29,6.57,2.3,13.2,3.33,19.81,1.45,9.36,2.82,18.73,4.17,28.11,1.41,9.81,2.78,19.62,4.14,29.43,1.09,7.92,2.18,15.84,3.25,23.76.34,2.52.68,5.05,1.02,7.57.14,1.06.08,2.53.47,3.54.02.04.01.11.02.15.08.59,1.53.24,1.45-.39-.4-3.03-.81-6.05-1.22-9.08-1.02-7.53-2.04-15.06-3.08-22.59-1.34-9.71-2.69-19.41-4.08-29.11-1.36-9.56-2.75-19.11-4.21-28.65-1.08-7.08-2.17-14.16-3.48-21.21-.11-.58-.22-1.17-.33-1.75s-1.57-.23-1.45.39h0Z"/>
    <path class="cls-33" d="M481.48,473.2c-3,3.52-5.12,8-6.55,12.36-1.29,3.96-1.97,8.17-1.82,12.34.09,2.42.43,4.83.8,7.22,1.12,7.15,2.6,14.25,3.79,21.39,1.5,8.95,2.69,17.96,3.13,27.03.54,11.08-.03,22.27-2.61,33.08-.15.63,1.32.44,1.46-.14,4.37-18.33,3.03-37.52.17-55.97-1.16-7.5-2.64-14.93-3.94-22.4-1.09-6.26-1.93-12.33-.61-18.65,1.16-5.59,3.62-11.52,7.36-15.92.58-.68-.81-.79-1.19-.35h0Z"/>
    <path class="cls-10" d="M305.62,271.79s9.97,45.77-3.72,75.68c-1.91,4.17-29.66,12.37-29.66,12.37l37.15,17.68c17.26,5.15,46.68,10.82,71.55,8.63,10.86-.96,25.78.92,34.07-6.16h0s-19.05-8.76-19.84-14.11c-.78-5.35,5.47-50.03,5.47-50.03"/>
    <path class="cls-34" d="M395.62,353.25s-10.17-5.6-16.58-7.39c-6.41-1.79-17.37-1.38-46.95-26.91,0,0,8.74,31.46,46.43,38.11,0,0,10.56,2.27,16.95.7l.15-4.5Z"/>
    <path class="cls-10" d="M427.55,160.48c.13.11.27.21.41.32-.14-.22-.28-.45-.37-.68l-.03.35ZM443.41,165.06c.22.24.46.48.71.71l.03-.29s-.71-.77-.74-.42ZM328.3,318.15c13.87,16.64,36.27,32.68,59.99,35.77,23.73,3.09,26.28-7.93,32.22-13.44,9.89-9.19,13.65-11,21.07-20.35,7.16-9.03,12.2-20.05,14.37-31.51,2.35-12.4-.39-24.55,1.55-36.92.87-5.61,5.17-27.65,6.69-40.66,1.52-13.02-10.17-34.39-10.17-34.39-.46-3.59-2.17-6.23-3.84-9.22l-1.54-.13s.74.42.64,1.48c-1.92-.47-3.77-1.69-5.16-2.99v.06c-2.41.86-4.62-.4-6.39-2.33-.03.35.29,1.09.68,1.12-2.34.15-4.55-1.11-5.97-2.65-.03.35.3,1.09.26,1.44-1.72-.47-3.39-1.53-4.76-2.61.31.49,9.1-.1,9.08.14-2.33.15.24,1.15-1.53-.78l-1.79-1.48c-1.95.19-1.98,1.35-3.4-.19.35.39-.72-3.98-.75-3.62-2.31-.2-1.66-.3-3.49-1.52-.03.35-6.48,1.75-6.51,2.1-1.92-.17-1.57,1.64-2.98.1.35.39,1.52-1.36,1.87-.97-2.33.15-3.33,1.56-5.1-.37.35.39-7.26-4.53-7.26-4.53-2.34.15-2.01.91-3.81-.66.71.77-10.58-1.58-10.26-.84-1.92-.17,3.06,7.36,1.61,6.17-.03.35-4.33-1.44-4.33-1.44-1.95.19.78,2.2-.64.66-.03.35.26,1.44.65,1.48-2.4.86-5.03-.08-7.21-1.69.71.77,1.03,1.51,1.38,1.9-1.92-.17-3.49.05-5.29-1.52-.03.35.64,1.48,1.03,1.51-1.98.54-4.26-.01-6.09-1.24-.03.35.68,1.12,1.03,1.51-1.56.22-3.1.09-4.54-1.11l1.03,1.51c-1.54-.13-2.75.47-4.99-.43-.03.35.71.77.68,1.12-1.15-.1-2.69-.23-3.81-.69-.03.35,1.06,1.16.68,1.12-1.54-.13-2.75.47-4.61-.4.35.39.68,1.12,1.03,1.51-1.54-.13-3.1.09-4.58-.75-.03.35.29,1.09.65,1.48-1.54-.13-2.75.47-4.61-.4-.03.35.68,1.12,1.03,1.51-1.54-.13-3.11.09-4.61-.4-.03.35.71.77,1.06,1.16-1.54-.13-3.1.09-4.97-.79-.06.7.29,1.09.26,1.44-1.15-.1-1.89-.52-3.04-.62l-1.98.54c-5.99,6.59-7.66,30.25-7.66,30.25-12.74,8.49-19.03,27.48-19.23,34.22-.2,6.73-3.38,21.03-3.38,21.03-1.71-2.63-5.47-8.29-6.38-11.21-.94-2.57.11-5.68-.83-8.24-2.97-5.94-10.8-4.85-15.34-1.69l-.81,1.1c-6.57,7.46-2.28,32.8,1.45,40.53,0,15.1,12.53,24.09,20.86,13.89l1.58,6.02"/>
    <path class="cls-11" d="M301.14,275.52c-4.36.11-8.59,3.07-9.28,7.54-.32,2.02.19,4.08,1.34,5.77.87,1.28,1.96,2.01,3.36,2.61,2.8,1.19,6,1.02,8.66-.47.48-.27,1.16-.79.73-1.4-.38-.54-1.5-.42-1.99-.15-1.73.96-3.49,1.03-5.32.3-.48-.19-1.05-.5-1.54-.83s-.42-.32-.78-.77c-2.02-2.51-2.1-6.24.05-8.67.57-.64,1.17-1.1,1.84-1.41.1-.05.19-.09.29-.13,0,0,.46-.17.22-.09.23-.08.47-.14.71-.2.31-.07.89-.13,1.4-.14.6-.01,1.56-.45,1.65-1.12.09-.74-.82-.85-1.33-.84h0Z"/>
    <path d="M316.7,219.12l-5.02,34.13-10.75-16.19s11.23-12.86,15.77-17.94Z"/>
    <g>
      <path class="cls-4" d="M409.15,286.85c-2.96,1.23-7.25.51-9.95-1.5-.6-.44-2.74-.25-1.9.37,3.57,2.65,9.75,3.4,13.57,1.82.38-.16.34-.44-.1-.63-.46-.2-1.21-.23-1.61-.06"/>
      <path class="cls-4" d="M396.14,284.81c-1.83-1.06-3.92-1.72-6.04-2.07-.31-.05-.72.03-.97.22-.19.14-.25.35-.03.51.93.65,2.17.99,3.32,1.07.36.03.85-.02,1.08-.32.21-.27-.12-.49-.4-.51-.95-.06-1.91-.34-2.68-.87-.33.24-.67.48-1,.72,1.89.31,3.76.92,5.39,1.87.32.19.82.13,1.14-.03.24-.11.51-.4.18-.6"/>
      <path class="cls-4" d="M387.66,284.34c-2.49-.28-5.32-1.61-6.39-3.58-1.61-2.98.51-7.29,3.77-8.82.36-.17.2-.44-.14-.54-.44-.13-.98-.01-1.35.16-2.85,1.33-4.92,4.85-4.75,7.52.17,2.5,2.4,4.43,5.32,5.41.87.29,1.8.51,2.73.62.38.04,1.07-.01,1.28-.29.21-.28-.12-.44-.47-.48"/>
      <path class="cls-4" d="M413.82,285.99c-.11-.3.15-.46.35-.44.67.08,1.37-.05,1.99-.46.2.29.39.57.59.86-1.36.03-2.75.35-4.02,1.05-.25.14-.59,0-.79-.19-.15-.15-.29-.47-.04-.62"/>
      <path class="cls-4" d="M411.91,286.18c1.43-.78,2.98-1.12,4.5-1.15.22,0,.5.14.64.36.11.17.12.39-.06.5"/>
      <path class="cls-4" d="M418.97,286.77c1.63.08,3.63-.83,4.59-2.63,1.45-2.71.62-6.16-1.25-8.13-.2-.21-.06-.46.17-.51.3-.07.63.13.84.35,1.63,1.72,2.55,4.37,2.05,6.99-.46,2.45-2.16,4.04-4.17,4.58-.6.16-1.22.25-1.83.22-.25-.01-.68-.16-.77-.47-.1-.31.14-.42.37-.41"/>
    </g>
    <path d="M422.69,246.27s12.55-8.03,17.84-7.85c7.72.26,15.28,7.07,17.46,11.26,0,0-10.31-9.34-15.75-9.36-5.2-.02-19.55,5.95-19.55,5.95Z"/>
    <path d="M387.8,244.67s-10.67-10.26-16.39-11.2c-8.34-1.37-18.99,3.45-22.24,7.09,0,0,14.14-6.71,19.99-5.59,5.59,1.08,18.63,9.7,18.63,9.7Z"/>
    <path d="M460.13,238.36c.07-.2.11-.42.21-.59.33-.57.65-1.14.95-1.72.13-.42.32-.81.55-1.18,0-.03,0-.04,0-.06-.12-.56-.16-1.12-.14-1.66-.44-1.13-.84-1.84-.91-1.97,0,0-1.78-3.19-5.71-6.08-2.71-1.99-10.95-5.99-22.84-9.31-.69,1.45-1.38,2.91-2.07,4.37-.52,1.11-1.04,2.22-1.56,3.33,4.35.66,7.99,1.41,10.71,2.05,5.74,1.33,8.67,2.03,11.54,3.79,3.01,1.84,5.23,4.12,6.08,5.02,1.2,1.26,2.03,2.08,2.84,3.4.13.21.24.41.35.62Z"/>
    <path d="M391.15,208.77c.3,1.55.61,3.1.91,4.65.23,1.18.45,2.37.67,3.55-5.5.08-10.16.35-13.67.62-7.42.56-11.21.88-15.31,2.25-4.31,1.44-7.81,3.43-9.17,4.21-1.91,1.1-3.2,1.81-4.66,3.03-3.18,2.64-4.2,5.1-4.82,5.03-.57-.06-.07-2.14-.02-2.36,1.27-5.24,5.69-9.08,6.02-9.39,0,0,3.31-2.96,9.11-5.32,4-1.63,15.4-4.54,30.96-6.27"/>
    <path d="M446.78,239.96c-.44,0-.87.07-1.29.23-1.6.6-2.27,2.08-2.42,2.43-.81,1.93-.4,4.76,1.76,6.1,1.59.99,3.81,1,5.3-.28,1.11-.96,1.95-2.65,1.68-4.27-1.8-1.24-3.42-2.73-5.02-4.21Z"/>
    <path d="M378.85,238.02c-.44-.3-.89-.59-1.34-.88-.95-.62-1.86-1.33-2.52-2.26-.01-.02-.02-.04-.03-.05-1.18-.07-2.31.13-3.01.61-.32.22-1.18.85-1.69,2.04-.65,1.51-.24,3.37.62,4.57,1.14,1.6,3.3,2.11,5.08,1.53,2.35-.77,3.41-3.3,3.17-5.34-.09-.07-.18-.14-.28-.21Z"/>
    <path class="cls-13" d="M304.21,255.23c-7.1-22.3-13.59-23.08-13.59-23.08,0,0-4.86,4.54-3.65,14.69"/>
    <path class="cls-13" d="M300.66,256.85c-5.77-1.14-2.34,10.12-4.2,12.51-1.86,2.39-3.34-4.58-3.27-12.82,0,0,1.06-11.03,6.77-12.51"/>
    <path class="cls-26" d="M455.59,190.46c-7.54-21.35-30.44-34.8-78.5-44.93-48.07-10.13-87.58,4.35-87.58,4.35,28.63-67.62,99.01-59.23,114.75-57.86,15.74,1.37,85.47,73,60.09,125.1l-1.78,5.34s-5.6-28.12-6.97-32Z"/>
    <path class="cls-26" d="M278.28,134.34s-2.05-44.1,31.05-55.98c44.21-15.87,102.96-19.47,119.86,27.12l-150.91,28.85Z"/>
    <path class="cls-29" d="M273.49,240.49c-3.21-3.85-1.4-13.86-4.07-18.1-14.01-22.24-7.19-42.24-.1-53.86,3.09-5.06.19-14.65.84-19.26,3.42-24.18,6.27-24.68,44.55-46.49,31.15-17.74,62.94-14.07,81.3-11.49,29.4,4.14,42.26,7.11,50.78,28.95,1.11,2.85-.53,4.93.31,8.32,1.19,4.79,7.23,9.61,7.93,15.61,0,0-38.01,8.28-72.04,23.03-34.03,14.75-97.67,77.76-97.07,98.34.02.65-8.87-20.8-12.43-25.06Z"/>
    <path class="cls-26" d="M261.34,193.02s61.69-63.94,122.69-59.25c0,0-77.13-16.94-116.6,36.36l-1.02,2.18c-2.68,5.73-4.32,11.89-4.86,18.2l-.21,2.51Z"/>
    <path class="cls-26" d="M447.86,129.43l-4-1.9c-9.3-4.42-19.18-7.47-29.35-9.06l-17.04-2.66s42.03-3.66,50.33,7.62l.06,6Z"/>
    <path class="cls-26" d="M297.2,201.7s-23.58,20.48-26,29.2l-1.78-8.51s7.89-15.46,27.78-20.68Z"/>
    <path class="cls-15" d="M790.33,950.99c-1.75-5.22-3.77-10.34-5.97-15.35-4.98-11.32-10.98-22.11-17.66-32.37-6.87-10.55-14.52-20.54-22.9-29.78-5.7-6.28,16.02-20.85,9.6-26.31-15.68-82.28,379.32-10.47,379.32-10.47,0,0,25.68,1.9,17.55,75.93-10.31,93.87-272.14,33.3-358.28,25.93-.41-.04-1.25,12.45-1.66,12.41Z"/>
    <path class="cls-15" d="M707.45,945.31c23.04,65.86,73.94,252.16,105.68,331.81,0,0,87.28,4.44,93.86-15.64,0,0,1.9-446.11-51.6-453.32-39.43-5.31-106.54,8.97-126.9,25.71-24.44,20.09-39.18,59.57-21.04,111.44Z"/>
    <path class="cls-15" d="M750.12,901.17s13.41-2.57,32.54-2.19c-3.7-8.03-4.97-14.02-4.97-14.02,1.78-2.03,3.66-4.11,5.62-6.23,10.96,2.56,21.66,6.09,32.05,10.31,12.08,4.9,23.77,10.73,34.92,17.37,10.75,6.4,21.03,13.62,30.5,21.7,2.68,2.29,5.29,4.65,7.83,7.09-.32.1,5.26-.73,4.94-.63,37.01,38.65,36.08,124.94,57.49,203.24,15.7,57.42,36.2,123.88,36.2,123.88-8.5,19.32-114.37,27.25-114.37,27.25-37.64-104.22-122.76-387.77-122.76-387.77Z"/>
    <path class="cls-14" d="M867.4,1274.75c-.62-1.85-1.24-3.69-1.86-5.54-1.73-5.17-3.47-10.34-5.2-15.51-2.65-7.91-5.29-15.82-7.93-23.73-3.37-10.11-6.74-20.22-10.1-30.33-3.92-11.8-7.84-23.59-11.75-35.39-4.27-12.9-8.53-25.8-12.79-38.71-4.4-13.36-8.79-26.73-13.17-40.1-4.4-13.44-8.78-26.89-13.14-40.34-4.17-12.88-8.33-25.76-12.46-38.66-3.75-11.73-7.48-23.46-11.17-35.21-3.16-10.07-6.28-20.14-9.34-30.24-2.39-7.87-4.74-15.75-6.97-23.67-1.43-5.08-2.87-10.18-3.99-15.34-4.11-18.9-3.7-39.19,5.05-56.77,4.24-8.51,10.3-15.97,17.95-21.64,7.93-5.88,17.22-9.77,26.88-11.73,6.07-1.23,12.28-1.59,18.44-2.13,9.92-.87,19.83-1.74,29.75-2.61,12.86-1.13,25.71-2.25,38.57-3.38,12.24-1.07,24.49-2.14,36.73-3.22,7.82-.68,15.64-1.37,23.45-2.05,1.08-.09,2.17-.19,3.25-.28.36-.03,1.36-.16,1.52-.55s-.13-.44-.55-.41c-4.41.39-8.82.77-13.22,1.16-10.61.93-21.21,1.86-31.82,2.79-13.15,1.15-26.3,2.3-39.46,3.46-11.78,1.03-23.56,2.06-35.34,3.1-6.76.59-13.53,1.19-20.29,1.78-13.81,1.21-27.42,5.21-38.79,13.34-15.17,10.84-24.04,28.04-26.31,46.34-1.64,13.19.02,26.47,3.32,39.27,1.69,6.53,3.56,13.02,5.46,19.49,2.65,9.01,5.39,17.99,8.16,26.96,3.41,11.04,6.87,22.06,10.37,33.08,3.92,12.38,7.89,24.75,11.87,37.11,4.29,13.31,8.6,26.62,12.94,39.92,4.42,13.56,8.85,27.12,13.31,40.68,4.37,13.3,8.74,26.59,13.13,39.88,4.12,12.47,8.25,24.93,12.38,37.39,3.68,11.08,7.36,22.15,11.05,33.22,3.04,9.13,6.09,18.25,9.13,27.37,2.21,6.61,4.42,13.23,6.64,19.84,1.19,3.54,2.37,7.08,3.56,10.63.15.44.3.89.45,1.33.19.56,2.45-.11,2.28-.61h0Z"/>
    <path class="cls-14" d="M909.74,952.94c-7.57-3.12-14.82-6.94-21.66-11.42-.87-.57-2.85.62-1.75,1.34,6.99,4.57,14.39,8.47,22.11,11.65,1,.41,2.65-1.02,1.31-1.58h0Z"/>
    <path class="cls-10" d="M1033.72,334.57s-3.26,54.04,3.32,72.34c1.6,4.44,29.61,17.6,29.61,17.6l-112.2,56.33-56.66-46.92s43.45-20.14,45.05-25.47c1.6-5.33.09-45.51.09-45.51"/>
    <path class="cls-19" d="M1145.4,470.21c-5.06-11.49-32.04-30.77-43.88-36.42-30.84-14.66-59.41-25.22-59.41-25.22,0,0-33.34,46.58-80.68,38.26-47.34-8.32-23.54-36.08-23.54-36.08l-14.77,4.47c-22.18,8.05-38.88,16.23-56.16,32.42-14.71,13.78-15.39,14.27-22.99,38.33-7.26,22.99-10.6,45.27-13.65,70.2-.45,3.68-10.55,63.88-10.57,64.58-.05,2.24.61,2.58,12.86,8.94,13.74,7.14,17.01,6.49,18.32,7.13.51,1.1,1.88,47.62,1.8,49.1-1.33,25.87-1.35,46.54-3.27,72.36-.04.58-5.72,39.76-5.76,40.35,1.96.01,2.13.01,4.09.04,30.88.39,59.82-5.23,90.56-2.5,15.48,1.38-21.09,4.38-5.64,6.04,3.13.34,42.22,4.85,45.54,5.15,2.87.27,16,1.85,18.87,2.07,15.77,1.2,29.56,3.89,45.28,5.67,16.65,1.88,41.22,9.19,65.51,9.19,3.22,0,36.39,17,39.68,18.4.52-6.44-.23-69.84.25-76.28,3.97-55.33-48.47-118.97-51.53-154.25l35.17-10.63,30.71-16.98c-8.35-61.9-4.16-85.63-16.79-114.34Z"/>
    <path class="cls-21" d="M851.49,524.44c-.59,15.62-.93,31.25-1.15,46.88-.12,8.79-.19,17.58-.19,26.36,0,7.66.19,15.31.2,22.96,0,5.4-.31,10.83-.16,16.23l1.15-.54c-6.32-1.65-12.75-3.88-18.39-7.18-3.78-2.21-7.47-4.58-11.07-7.08-.15-.11-.58-.54-.79-.55.18.01,0,.53.15-.08.24-1,.25-2.12.37-3.14.28-2.39.56-4.79.83-7.18l-1.4.37c5.17,5.61,11.97,10.21,18.95,13.2,3.28,1.4,6.71,2.41,10.24,2.95.71.11,1.48-.9.5-1.04-7.41-1.13-14.28-4.5-20.33-8.85-2.85-2.05-5.66-4.31-8.04-6.89-.36-.39-1.33-.21-1.4.37-.42,3.57-.83,7.14-1.25,10.71-.02.15.06.28.17.36,5.07,3.61,10.39,7.2,16.05,9.82,4.65,2.16,9.58,3.88,14.55,5.17.34.09,1.17-.03,1.15-.54-.14-4.93.11-9.88.15-14.82.06-7.05-.17-14.11-.19-21.16-.04-17.32.2-34.64.6-51.96.19-8.17.42-16.34.73-24.51.03-.75-1.44-.53-1.47.11h0Z"/>
    <path class="cls-10" d="M1022.33,420.79c-28.79,13.45-60.97,12.25-84.79-8.36,6.36-3.27,6.15-9.22,6.53-10.6,1.42-5.11.98-40.08.98-40.08l90.45-29.19s-6.37,54.99.49,72.26c.37.92,3.38,5.04,5.64,6.98-5.4,4.6-12.81,5.95-19.3,8.99Z"/>
    <path class="cls-34" d="M926.63,365.92c2.83,5.08,5.4,10.35,8.44,15.29.05.08.06.15.08.22.28-.2.64-.22.89.17,2.14,3.34,4.26,4.78,6.12,8.32,1.6,3.05,1.39,7.61,1.37,11.19,2.39.52,6.87.36,9.9.72,20.55.68,21.1-2.06,49.38-18.43,8.98-5.19,7.63-12.28,9.37-13.52-28.1-2.23-56.11-2.46-85.55-3.97Z"/>
    <path class="cls-8" d="M1059.03,300.4s4.92-13.2,11.66-45c6.03-28.47-37.95-54.54-64.99-60.21-14.87-3.12-65.33.63-78.6,6.07-13.27,5.45-20.95,22.66-23.77,47.74,0,0,9.21-24.58,25.12-23.18,12.98,1.15,55.24-3.18,65.98,2.07,10.74,5.25,34.44,16.33,33.47,55.86-.26,10.77,19.42.41,24.33,7.17,4.92,6.75,6.78,9.48,6.78,9.48Z"/>
    <path class="cls-10" d="M1034.99,345.43l6.28-38.57,4.1-43.31-15.35-33.77-30.13-16.54-35.13-.64s-28.44,5.55-37.42,7.45c-8.98,1.91-15.76,12.42-22.38,24.24-6.62,11.81-5.03,32.05-5.03,32.05-.28.68.33,3.79.44,4.43,1.35,8.17,1.55,15.26,2.69,21.36.53,2.89.39,5.56-.6,8.19-3.91,10.36-4.08,14.87-3.55,21.36.73,8.85,1.98,16.42,4.87,23.49,3.07,7.51,7,15.64,7.8,17.24,0,0,8.84,16.92,10.85,18.63,2.01,1.71,5.07,3.37,6.53,3.6s20.7,2.42,20.7,2.42l8.97.22c3.05.07,6.08-.46,8.93-1.56,7.71-3,29.73-12.02,35.82-15.87,8.2-5.18,18.76-27.85,18.76-27.85"/>
    <path class="cls-8" d="M1028.3,307.56c-.32,3.35-.84,16.68-1.36,19.93l17.36.42c5.73-11.27,12.61-24.52,14.73-27.51,3.32-4.68,4.83-28.01,5.41-36.8l.12-1.89c.57-8.42-6.9-22.17-19.99-36.77-14.4-16.07-40.77-26-67.17-25.3-2.51.07-5.02.23-7.45.48-23.01,2.37-42.51,12.94-57.94,31.43-11.13,13.33-12.52,29.06-12.07,38.71,1.47-18.94,8.72-31.99,9.02-32.54,6.87-12.62,15.05-15.96,20.71-16.55,4.93-.51,8.56.97,9.27,1.29,5.5,1.49,13.68,1.09,19.58.48,4.4-.45,7.9-1.05,8.85-1.22,3.04-1.92,7.52-3.22,12.99-3.79,12.69-1.31,30.86,1.72,34.39,7.43,3.91,6.34,12.36,28.67,12.2,33.79"/>
    <path class="cls-10" d="M1033.3,346.22c9.78,10.74,17.2-8.9,17.2-8.9,10.16-11.48,10.53-24.02,10.43-32.61-.1-8.59-9.54-8.74-9.54-8.74-8.04.63-11.75,4.82-19.26,31.65"/>
    <path class="cls-8" d="M911.95,228.41c6.17-9.18,17.93-20.57,24.71-29.31,3.09-.18,18.34,0,21.55-.02,32.66-.2,75.8,20.08,79.59,32.09,2.36,7.49-.79,47.73-2.34,51.35-4.24,9.92-6.25,23.05-6.25,23.05-.82-15.17-11.04-32.39-12.22-37.62-1.18-5.23,6.6-29.58,4.96-30.68-1.64-1.1-31.1-11.24-64.39-11.87-9.81-.19-19.67.34-28.45,1.2.07-.1-17.23,1.92-17.17,1.82Z"/>
    <path class="cls-8" d="M972.43,294.52c2.02-.98,4.33-1.77,5.61-.58.3.28,1.11,1.07,1.46,2.4.45,1.69-.26,3.57-1.34,4.7-1.44,1.51-3.79,1.71-5.56.83-2.41-1.2-3.13-4.15-2.47-6.27.12-.39.68-.28,2.31-1.08"/>
    <path class="cls-8" d="M914.05,292.81c-1.97-1.08-4.32-.25-5.66.88-.31.26-1.16,1.02-1.57,2.32-.53,1.66.09,3.58,1.11,4.76,1.37,1.58,3.7,1.9,5.52,1.1,2.46-1.08,3.33-3.99,2.77-6.14-.1-.39-.58-2.05-2.17-2.92"/>
    <path class="cls-8" d="M930.26,301.14s-7.83-8.22-13.69-8.9c-8.55-1-10.8.88-13.93,4.74,0,0,5.71-3.97,11.72-3.1,5.74.83,15.9,7.27,15.9,7.27Z"/>
    <path class="cls-8" d="M959.11,299.22s12.32-7.08,18.22-6.99c8.61.13,18.65,5.63,21.25,9.87,0,0-13.2-8.03-19.27-7.96-5.8.07-20.2,5.08-20.2,5.08Z"/>
    <path class="cls-8" d="M962.8,263.86c-.68,1.93-1.37,3.86-2.05,5.8-.52,1.48-1.81,4.8-2.32,6.28,5.15.43,10.05.09,13.28.64,6.41,1.09,13.11,1.8,18.88,4.91,2.76,1.49,5.06,3.15,6.97,5.5.6.74,1.95,3.52,3.29,3.4.55-.05.62-2.7.63-2.97.12-5.35-3.29-8.81-7.91-11.74-9.44-5.98-19.85-9.41-30.76-11.82"/>
    <path class="cls-8" d="M898.07,276.96s2.95-1.87,2.97-1.88c8.23-5.28,17.37-7.97,26.95-9.63.63,1.94,1.27,3.9,1.9,5.85.48,1.49,1.44,4.14,1.91,5.63-4.53.09-8.58-.24-11.42.1-5.64.66-11.59,1.28-16.63,3.97-.4.21-3.77,1.6-4.14,1.83-2.58-2.14-2.14-5.19-1.54-5.86Z"/>
    <g>
      <path class="cls-4" d="M935.82,334.89c2.48,1.41,6.33,1.19,8.9-.36.57-.34,2.44.05,1.64.53-3.4,2.04-8.92,2.1-12.12.28-.32-.18-.25-.43.15-.56.42-.13,1.09-.09,1.43.1"/>
      <path class="cls-4" d="M947.48,334.35c1.71-.78,3.62-1.16,5.52-1.27.28-.01.63.1.83.29.16.15.18.35-.03.46-.88.49-2,.68-3.03.63-.32-.01-.75-.11-.92-.39-.16-.27.15-.43.4-.42.84.04,1.71-.11,2.44-.52.27.25.54.5.81.75-1.69.09-3.4.45-4.93,1.15-.3.14-.73.03-1-.14-.2-.13-.41-.42-.1-.56"/>
      <path class="cls-4" d="M954.99,334.78c2.22,0,4.84-.93,5.98-2.6,1.71-2.53.28-6.63-2.45-8.34-.3-.19-.13-.41.18-.47.4-.08.87.09,1.18.28,2.37,1.49,3.85,4.86,3.43,7.26-.4,2.25-2.55,3.77-5.22,4.36-.79.17-1.64.29-2.46.29-.34,0-.94-.12-1.09-.39-.16-.28.15-.39.47-.39"/>
      <path class="cls-4" d="M931.79,333.64c.13-.26-.09-.43-.27-.43-.6,0-1.2-.18-1.7-.62-.2.24-.4.48-.6.72,1.19.16,2.38.59,3.44,1.35.21.15.52.06.71-.1.15-.12.31-.4.1-.55"/>
      <path class="cls-4" d="M933.46,334.01c-1.18-.85-2.51-1.31-3.85-1.49-.2-.02-.45.07-.6.26-.12.14-.15.34,0,.46"/>
      <path class="cls-4" d="M927.19,333.84c-1.44-.09-3.11-1.12-3.78-2.84-1.01-2.6.06-5.64,1.9-7.24.2-.17.1-.41-.09-.48-.26-.09-.57.05-.77.23-1.6,1.4-2.67,3.7-2.5,6.12.17,2.26,1.5,3.87,3.21,4.57.51.21,1.05.35,1.59.39.22.01.61-.08.73-.35.11-.27-.08-.39-.29-.41"/>
    </g>
    <path class="cls-9" d="M943.46,351.49c4.93.06,19.76.61,19.76.61,0,0-5.28,4.47-20.07,4.3-14.79-.17-19.62-4.59-19.62-4.59l19.93-.32Z"/>
    <g>
      <path class="cls-17" d="M1038.36,405.46s-25.47,43.56-69.14,40.41c-43.68-3.15-34.57-27.05-34.57-27.05l5.68-10.02-14.94,5.51s-4.59,13.11.62,24.22c5.21,11.1,27.12,20.75,55.1,18.22,16.41-1.49,37.97-12.05,51.05-24.92,15.67-15.4,18.43-19.13,18.43-19.13l-12.24-7.23Z"/>
      <path class="cls-21" d="M1037.65,405.59c-3,5.11-6.88,9.82-10.88,14.17-8.69,9.44-19.22,17.51-31.31,22.05-7.33,2.76-15.14,4.12-22.98,3.9s-16.79-1.43-24.34-4.67c-7.17-3.08-13.43-8.81-13.56-17.08-.02-1.64.12-3.44.69-5,.23-.62.61-1.18.93-1.75l3.95-6.97c.3-.52.59-1.04.89-1.57.17-.3-.9-.07-.97-.05-3.72,1.37-7.44,2.75-11.17,4.12l-2.79,1.03c-.35.13-.83.22-1.15.43-.4.27-.43.63-.57,1.1-.3,1.03-.55,2.07-.76,3.11-1.43,7.05-1.43,15.33,2.38,21.68,2.83,4.72,7.68,8.02,12.51,10.43,6.72,3.35,14.11,5.23,21.53,6.19,8.52,1.1,17.48,1.17,25.95-.4,7.87-1.47,15.49-4.3,22.66-7.84s14.59-8.21,20.88-13.68c5.82-5.05,11.17-10.77,16.48-16.36,1.26-1.32,2.5-2.65,3.71-4.02.43-.48,1.09-1.04,1.39-1.62.04-.08.13-.16.18-.23.02-.05.01-.09-.03-.12-4.08-2.41-8.16-4.82-12.24-7.23-.36-.21-1.57.38-1.36.5,3.25,1.92,6.49,3.84,9.74,5.75l2.04,1.21c.24.14.41.32.41.17,0,.06-.64.77-.83.99-2.49,2.88-5.16,5.61-7.82,8.33-5.63,5.76-11.21,11.68-17.68,16.51-6.54,4.89-13.73,8.96-21.26,12.13-7.1,2.99-14.55,5.17-22.25,5.76-8.68.67-17.49.22-26-1.67-6.52-1.45-13.01-3.74-18.62-7.43-4.63-3.04-8.25-6.94-9.9-12.31-1.96-6.37-1.56-13.47.24-19.83.11-.38.22-.77.35-1.14l-.46.3c4.98-1.84,9.96-3.67,14.94-5.51l-.97-.05c-1.03,1.81-2.06,3.63-3.08,5.44-.85,1.5-1.91,3.01-2.6,4.59-.52,1.2-.67,2.68-.75,3.96-.53,7.76,4.45,13.92,11.06,17.41s14.47,4.92,21.95,5.64c8.15.78,16.29.23,24.19-1.97,13.1-3.66,24.74-11.33,34.35-20.84,3.54-3.5,6.82-7.25,9.82-11.22,1-1.31,1.96-2.65,2.88-4.02.48-.71,1.15-1.48,1.48-2.28.04-.1.12-.2.18-.3.11-.19-1.21-.12-1.43.25Z"/>
    </g>
    <path class="cls-31" d="M1040.64,323.02c1.5-4.62,3.25-9.32,5.92-13.42.67-1.03,1.43-2.03,2.31-2.9.26-.25.52-.49.81-.7.27-.2.46-.32.59-.39.1-.05.19-.09.29-.14.23-.11-.12.09.05-.02.13-.08.23-.04,0-.01l-.59-.19c.75.73,1.3,1.74,1.71,2.69,1.18,2.73,1.36,5.75,1.01,8.68-.08.71,1.39.5,1.46-.12.41-3.45.1-7.08-1.63-10.16-.43-.77-1.06-2.09-2.11-1.85-.8.18-1.53.71-2.14,1.23-1.51,1.28-2.67,2.94-3.69,4.62-2.39,3.98-4.02,8.4-5.45,12.8-.21.63,1.27.47,1.46-.12h0Z"/>
    <path class="cls-31" d="M1042.44,324.42c4.86-.12-1.51,10.57,2.44,10.71,1.1.04,1.76-1,2.18-1.87.81-1.7,1.26-3.59,1.64-5.43.49-2.35.7-4.41.44-6.78-.3-2.71-1.11-6.15-3.84-7.39-.47-.21-1.78.45-1.14.75,2.31,1.05,3.07,3.87,3.42,6.17.26,1.67.37,3.37.1,5.04-.32,2.05-.74,4.11-1.4,6.08-.22.66-.46,1.32-.8,1.92-.07.13-.38.46-.4.6-.02.1-.09.02-.05.07l.46-.04c-.05-.03-.1-.07-.13-.12-.06-.32-.27-.59-.3-.95-.04-.52.02-1.05.09-1.56.14-1.16.38-2.32.51-3.48.24-2.13.09-4.7-2.66-4.63-.29,0-.83.09-.95.41-.11.29.09.49.41.49h0Z"/>
    <path class="cls-31" d="M951.07,276.44c-2.45-1.1-4.01-3.44-4.58-6.01-.71-3.19.13-6.52,1.28-9.5.28-.73-1.17-.63-1.37-.1-1.22,3.15-2.12,6.61-1.36,9.99.61,2.72,2.31,5.24,4.9,6.4.32.14.75.11,1.03-.11.18-.14.44-.51.1-.66h0Z"/>
    <path class="cls-28" d="M940.38,348.16c7.37.09,23.57,5.51,26.81,8.85,0,0-7.41,10.53-24.5,10.31-17.09-.22-20.93-10.89-20.93-10.89,0,0,9.24-8.4,18.63-8.28Z"/>
    <path class="cls-18" d="M960.29,353.26s-9.35-.94-16.81-1.03c-7.46-.09-16.82.6-16.82.6,0,0-1.12-6.06,12.41-5.89,13.53.17,21.23,6.32,21.23,6.32Z"/>
    <path class="cls-7" d="M940.52,360.39c8.02-1.22,17.34-4.16,26.67-3.37,0,0-3.88,11.97-23.97,11.72-20.09-.25-21.47-12.3-21.47-12.3,9.34-.55,10.78,2.52,18.77,3.94Z"/>
    <path class="cls-7" d="M931.7,343.44c4.22-.31,6.88,1.58,8.71,1.6,1.83.02,4.54-1.79,8.75-1.38,3.95.39,20.54,11.79,18.65,13.22-1.89,1.43-14.75-6.95-27.46-7.11-12.71-.16-17.36,8-19.22,6.52-1.85-1.47,6.6-12.56,10.56-12.85Z"/>
    <path class="cls-31" d="M402.23,219c3.66,1.06,7.96-.13,10.48-3.02s2.82-7.64.64-10.95c-.23-.35-1.64.11-1.35.54,1.87,2.85,1.9,6.84-.02,9.67s-5.37,4.05-8.58,3.12c-.33-.1-.73-.02-1.02.16-.14.08-.49.39-.15.49h0Z"/>
    <path class="cls-28" d="M403.57,299.08c-8.2-.42-26.6,4.44-30.43,7.93,0,0,7.49,12.24,26.5,13.22,19.02.98,24.05-10.61,24.05-10.61,0,0-9.67-10-20.12-10.53Z"/>
    <path class="cls-18" d="M381.08,303.33s10.46-.37,18.76.06c8.3.43,18.66,1.87,18.66,1.87,0,0,1.68-6.66-13.37-7.44-15.05-.78-24.05,5.51-24.05,5.51Z"/>
    <path class="cls-7" d="M402.26,317.11c-8.83-1.93-18.7-10.31-29.12-10.1,0,0,3.17,18.03,25.52,19.19,22.35,1.15,25.03-16.58,25.03-16.58-10.34-1.28-12.45,6.48-21.43,7.49Z"/>
    <path class="cls-7" d="M413.56,294.45c-4.67-.64-7.76,1.26-9.8,1.16-2.04-.11-4.91-2.32-9.63-2.16-4.42.15-23.67,11.64-21.67,13.36,2,1.72,16.89-6.67,31.03-5.95,14.14.73,18.73,10.13,20.89,8.62,2.16-1.51-6.44-14.43-10.82-15.04Z"/>
    <path class="cls-33" d="M275.59,608.87c-6.68,1.12-12.57,5.05-16.4,10.61-4.37,6.34-5.61,14.37-4.42,21.87.1.61,1.55.25,1.45-.39-1.11-6.97-.05-14.36,3.72-20.41,3.42-5.48,9.08-9.63,15.5-10.71.76-.13,1.14-1.14.15-.97h0Z"/>
    <g>
      <path class="cls-20" d="M1462.55,816.88H-118.17s1.41-51.61,1.41-51.61h1580.72"/>
      <polygon class="cls-2" points="-89.12 863.8 1427.45 863.8 1438.46 815.55 -100.13 815.55 -89.12 863.8"/>
    </g>
    <path class="cls-10" d="M462.66,652.37l16.05-3.71s47.88,13.26,61.94,11.81c10.12-1.48,19.98-4.53,29.31-9.07l12.07,2.55c5.56,1.17,11.27.16,16.18-2.86l3.78-2.33s14.41,7.7,16.8,2.84c2.4-4.85-2.34-9.31-6.95-13.65-4.6-4.33-95.21-40.18-95.21-40.18,7.68-4.12,22.54-3.39,30.75-5.96,12.64-3.85,16.12-10.49,10.08-14.98-3.72-2.77-14.49-3.99-21.11.19s-40.84-1.23-53.07,4.67c-12.23,5.9-19.64,24.52-19.64,24.52-1,.65-5.45,2-5.45,2-.29,1.87,4.47,44.16,4.47,44.16Z"/>
    <path class="cls-34" d="M601.19,648.14c-5.58-2.34-11.54-3.87-17.34-5.55-7.14-2.07-14.32-4.05-21.4-6.33-2.82-.91-5.66-1.83-8.35-3.08-.73-.34-2.05.71-1.03,1.19,5.48,2.54,11.48,4.1,17.25,5.8,7.14,2.1,14.31,4.07,21.42,6.26,2.83.87,5.68,1.75,8.41,2.9.74.31,2.06-.75,1.03-1.19h0Z"/>
    <path class="cls-34" d="M568.16,650.35c-9.58-2-19.17-4-28.75-6l-4.02-.84c-.87-.18-1.79,1.03-.62,1.28,9.58,2,19.17,4,28.75,6,1.34.28,2.68.56,4.02.84.87.18,1.79-1.03.62-1.28h0Z"/>
    <path class="cls-10" d="M1085,587.84l-6.79,22.41c5.58,2.67,10.46,6.99,14.56,11.46,7.95,8.66,13.96,19.08,18.77,29.75,5.14,11.42-3.25,23.22-1.26,35.59.68,4.2,5.38,6.38,5.53,10.73,9.79-6.48,23.96-7.18,27.12-17.66,3.68-8.66,5.89-15.84,7.67-48.11,3.13-30.27-4.72-48.85-3.76-64.31l-61.85,20.14Z"/>
    <path class="cls-10" d="M1148.39,658.88s-2.84,55.58-47.72,54.03c-31.45-1.09-57.91-43.09-66.01-61.38-8.1-18.29,79.53-46.72,79.53-46.72l34.2,54.07Z"/>
    <path class="cls-10" d="M997.2,503.3c-4.06,3.9-8.08,7.84-12.07,11.81-.24-.49-.48-.99-.71-1.47l-3.42-6.07c-.67-.65-11.23-10.85-16-15.15-1.55-2.45-2.55-5.17-2.95-8l.04-6.86c.28.02.41-.04,0-.27v-.52c-.37.05-.62.1-.78.16-.05-.02-.09-.04-.14-.06l-3.41-.38c-2.03.86-9.5-2.57-10.95-4.08-1.91-1.84-5.55-6.51-8.12-9.55-4.7-5.57-7.07-8.11-7.07-8.11,0,0-7.16-6.64-7.93-10.11-.78-3.47.11-9.78.11-9.78,0,0-2.36-5.26-1.94-7.8.62-3.93,4.4-6.99,9.27-7.14,4.15-.13,24.1-2.09,24.1-2.09l2.47-4.38-2.84-12.31-11.71-.3s-6.07,4.8-11.68,4.5c-1.97-.05-3.85-.65-5.42-1.7-1.09-.79-1.25-2.26-.37-3.29.08-.1.17-.19.27-.27,3.8-3.3,12.6-10.76,15.8-12,4.12-1.61,22.77.89,24.79,2.74.42.37,10.7,26.33,10.7,26.33,3.58,2.05,6.25,5.19,7.56,8.9,1.84,5.9,16.88,53.83,16.88,53.83l4.77,6.04,3.54,4.67s.14.15.36.39c-4.44,4.05-8.82,8.15-13.14,12.31Z"/>
    <g>
      <path class="cls-23" d="M993,449.1c-2.35-7.28-4.67-14.57-6.86-21.9-1.15-3.85-1.68-8.27-4.52-11.28-1.51-1.6-3.34-2.93-5.28-3.98-.17-.09-.36-.17-.53-.28-.15-.09.17.33.06.07-.17-.42-.3-.87-.45-1.3-1.49-4.32-3.05-8.63-4.79-12.86-1.63-3.96-3.45-9.34-8.22-10.31-.75-.15-1.44-.09-2.19-.09-.98,0-2.34-.35-3.52-.45-3.32-.3-6.68-.28-10,0-2.12.18-4.46.37-6.4,1.33-2.22,1.11-4.23,2.72-6.18,4.23-2.36,1.83-4.66,3.74-6.94,5.68-1.61,1.37-4.82,3.54-2.59,5.86,1.06,1.11,2.98,1.68,4.45,1.95,1.57.28,3.18.24,4.74-.07,2.83-.55,5.49-1.88,7.89-3.44.49-.32.98-.65,1.44-1.02l-.73.2c3.9.1,7.81.2,11.71.3l-.47-.31c1.49,5.4,2.98,10.79,4.47,16.19.18.64,1.63.25,1.45-.39-1.49-5.4-2.98-10.79-4.47-16.19-.05-.19-.28-.31-.47-.31-3.58-.09-7.16-.18-10.75-.28-.4-.01-.95-.1-1.35,0-.57.16-1.12.73-1.6,1.05-2.68,1.78-5.89,3.38-9.16,3.42-1.87.03-5.15-.43-6.18-2.24-.94-1.66,1.16-2.92,2.24-3.85,2.42-2.07,4.88-4.11,7.4-6.06,1.91-1.48,3.98-3.3,6.26-4.18,2.57-1,5.75-1,8.47-1.07,1.9-.05,3.8-.01,5.7.13,1.47.11,3.05.56,4.51.49-.11,0,.36-.04.52-.04.54,0,1.07.08,1.59.24,1.59.48,2.86,1.65,3.78,3.01,1.22,1.81,2.06,3.93,2.9,5.94,1.07,2.56,2.06,5.15,3.01,7.75.72,1.95,1.42,3.92,2.09,5.88.3.87.33,1.33,1.13,1.76,2.14,1.14,4.18,2.63,5.73,4.5s1.93,3.79,2.53,5.96c2.38,8.63,5.19,17.16,7.93,25.68.07.21.14.43.21.64.2.63,1.65.24,1.45-.39h0Z"/>
      <path class="cls-23" d="M938.84,462.67c-2.28-2.71-4.53-5.51-7.01-8.05-1.69-1.73-3.43-3.38-4.98-5.25-1.1-1.32-2.34-2.8-2.86-4.46-.62-1.97-.46-4.26-.34-6.29.05-.89.13-1.77.22-2.65.04-.33.17-.76.13-1.09s-.25-.7-.38-1.02c-.33-.81-.62-1.63-.88-2.47-.6-1.93-1.04-3.87-.27-5.82.91-2.31,2.99-4,5.33-4.7s5.33-.7,7.83-.97c4.54-.48,9.02-.87,13.58-1.15,1.58-.1,3.15-.19,4.73-.29.39-.02.8,0,1.19-.07.16-.03.3-.06.46-.11.77-.24-.69.04.32-.04,6.54-.52,12.91-3.09,19.53-1.87.5.09,1.71-.67.88-.83-4.44-.82-8.82-.09-13.2.71-1.82.33-3.64.66-5.47.92-.82.11-2.25.05-2.92.64l.68-.29c-4.14.25-8.3.41-12.43.75-4.06.33-8.1.93-12.15,1.29-3.44.3-6.8,1.45-8.86,4.41-2.14,3.07-1.24,6.4-.01,9.64.17.45.47.95.58,1.42.02.07,0,.3-.03.64-.2,1.68-.33,3.37-.35,5.06s-.05,3.41.56,4.93c.56,1.4,1.52,2.65,2.46,3.82,1.63,2.03,3.5,3.82,5.32,5.68,2.49,2.54,4.75,5.36,7.04,8.08.34.41,1.73-.12,1.34-.58h0Z"/>
    </g>
    <path class="cls-23" d="M960.72,476.14c-2.12.87-5.65-.29-7.74-1.4-2.38-1.26-4.63-2.83-6.63-4.64-2.17-1.97-4.1-4.19-5.95-6.46s-3.71-4.53-4.97-7.23-1.39-5.76.31-8.38c1.54-2.38,4.23-4.18,6.78-5.33,2.71-1.22,5.59-2.05,8.33-3.22,2.45-1.05,4.74-2.48,6.85-4.11,2.75-2.12,5.6-4.57,9.18-5.03,1.71-.22,3.52.03,5.18.42,1.34.32,3.84.88,4.32,2.41l1.4-.48c-.21-.18-.36-.48-.57-.68-.38-.38-1.75.17-1.34.58.2.2.36.51.57.68.3.26,1.57.09,1.4-.48-.75-2.41-5.16-3-7.19-3.24-3.23-.39-6.03.28-8.88,1.82-3.01,1.63-5.43,4.07-8.35,5.84-3.09,1.87-6.58,2.95-9.93,4.23-5.15,1.98-11.3,6.13-10.44,12.45.43,3.13,2.57,6.15,4.53,8.52,2.19,2.65,4.33,5.35,6.83,7.72s5.44,4.52,8.59,5.92c2.38,1.05,5.8,1.78,8.32.74.93-.38.09-.92-.59-.65h0Z"/>
    <path class="cls-23" d="M962.66,476.16c-.08-1.52.05-3.01.21-4.52s.23-3.14.37-4.7c.26-2.91.51-5.94,1.24-8.77.13-.51-1.32-.3-1.45.19-.76,2.93-1.01,6.08-1.27,9.09s-.71,6.09-.56,9.1c.02.45,1.48.16,1.45-.39h0Z"/>
    <path class="cls-23" d="M964.62,458.07c-.69-.06-1.17-.57-1.65-1.03-.44-.43-.93-.91-1.12-1.51-.31-.97-.15-2.06-.14-3.06,0-.26-1.39,0-1.44.32l-.09.68c-.06.44-.16.44-.55.72-.92.67-1.86,1.31-2.81,1.93-1.45.94-2.94,1.8-4.43,2.67l1.15-.26-.95-.24c-.29-.07-.67.03-.93.15-.07.03-.56.27-.35.38,1.59.89,3.52,2.21,3.56,4.23l1.41-.44-.2-.22-1.28.53c1.46.22,2.85.71,4.08,1.54,1.15.78,2.41,1.95,2.82,3.33.1.34,1.55-.07,1.45-.39-.42-1.4-1.72-2.64-2.9-3.44-1.27-.86-2.74-1.39-4.26-1.61-.18-.03-1.57.2-1.28.53l.2.22c.21.24,1.41-.09,1.41-.44-.04-2.05-2.04-3.43-3.65-4.34l-1.28.53c.78.2,1.35.38,2.11-.02.95-.51,1.88-1.08,2.8-1.64,1.36-.83,2.69-1.71,3.99-2.63.38-.27,1.09-.59,1.27-1.01.12-.28.1-.71.14-1.01l-1.44.32c0,1.1-.26,2.5.34,3.49.65,1.07,1.81,2.21,3.09,2.32.3.03.79-.07,1.02-.27.19-.17.23-.3-.09-.33h0Z"/>
    <path class="cls-23" d="M932.12,453.52c.09.2.16.41.19.62l1.4-.47c-2.19-3.54-3.98-8.28-3.36-12.48.3-2.05,1.13-4.01,2.6-5.5,1.67-1.69,3.96-2.55,6.19-3.18,8.34-2.37,16.78-4.46,25.19-6.59,2.06-.52,4.14-1.14,6.24-1.49,2.5-.42,5.63-.53,7.87.85.36.22,1.71-.33,1.16-.66-3.66-2.25-8.74-1-12.6-.05-4.37,1.08-8.73,2.22-13.08,3.36-5.13,1.34-10.3,2.61-15.4,4.07-3.98,1.13-7.8,3.33-9.17,7.47-1.62,4.9.4,10.55,3.01,14.76.21.34,1.51-.04,1.4-.47-.04-.22-.1-.42-.19-.62-.18-.46-1.61-.03-1.45.39h0Z"/>
    <path class="cls-23" d="M924.34,434.74c.24-3.47,1.99-6.58,4-9.33,1.88-2.58,5.14-5.1,8.46-5.26.26-.01.84-.09.96-.38s-.09-.39-.38-.37c-3.67.17-7.27,2.37-9.64,5.09-1.24,1.43-2.27,3.1-3.14,4.77-.93,1.78-1.57,3.68-1.71,5.69-.04.53,1.41.24,1.44-.2h0Z"/>
    <path class="cls-19" d="M1155.52,522.86s7.55,53.73,9.61,95.38c0,0-59.24,19.25-100.31,10.31-43.53-9.48,6.52-72.99,6.52-72.99l84.19-32.7Z"/>
    <g>
      <path class="cls-17" d="M1095.57,459.49s-29.98,4.24-32.08,74.06c-2.1,69.82,1.32,95,1.32,95,0,0,28.79,6.39,55.2,1.29,26.42-5.1,45.11-11.6,45.11-11.6l-.72-12.95s-33.12,11.08-59.66,12.77c-26.54,1.68-36.95-.53-36.95-.53"/>
      <path class="cls-21" d="M1095.9,459.22c-3.72.53-7.32,2.76-10.19,5.05-8.48,6.77-13.49,17.19-16.69,27.32-6.81,21.53-6.48,44.58-6.79,66.91-.24,17.4-.23,34.82.57,52.21.19,4.26.44,8.51.79,12.76.09,1.15.2,2.3.32,3.45.05.45-.01,1.21.18,1.63.02.05.02.13.02.19.03.05.07.07.13.07,3.57.79,7.21,1.32,10.83,1.8,8.37,1.09,16.83,1.63,25.27,1.44,10.18-.23,20.04-1.94,29.97-4.13,8.13-1.8,16.22-3.84,24.22-6.16,3.64-1.06,7.29-2.14,10.87-3.38.12-.04.49-.15.48-.33-.24-4.32-.48-8.63-.72-12.95-.01-.22-.91.04-.97.06-11.02,3.68-22.36,6.61-33.73,8.97-17.52,3.63-35.54,5.05-53.42,4.04-2.86-.16-5.81-.31-8.62-.9-.32-.07-1.55.45-1.2.53,2.3.49,4.7.64,7.04.8,7.72.55,15.48.44,23.21.1,9.85-.43,19.55-1.53,29.23-3.4,8.46-1.63,16.84-3.68,25.13-6,4.3-1.2,8.6-2.45,12.84-3.87l-.97.06c.24,4.32.48,8.63.72,12.95l.48-.33c-8.16,2.83-16.57,5.07-24.95,7.14-8.67,2.15-17.47,4.29-26.34,5.39-8.48,1.05-17.06,1.12-25.58.59-6.04-.38-12.07-1.07-18.04-2.08-1.37-.23-2.73-.51-4.09-.76-.27-.05-.42-.19-.33-.03-.02-.03,0-.09-.02-.13-.23-.74-.19-1.69-.27-2.46-.19-1.95-.34-3.91-.48-5.86-.54-7.64-.82-15.29-1-22.94-.32-13.44-.3-26.88-.09-40.32.25-16.68.21-33.53,3.08-50.01,1.81-10.37,4.7-20.81,9.95-30,2.96-5.19,6.76-10.04,11.66-13.53,1.39-.99,2.88-1.86,4.46-2.54.51-.22.91-.37,1.52-.57.09-.03.14-.05.44-.13.16-.04.52-.13.28-.07.11-.03.56-.1.18-.04.35-.05,1.57-.66.64-.53h0Z"/>
    </g>
    <path class="cls-10" d="M1006.6,485.97l85.67,115.93,18.05,27.12c2.57,6.22,9.14,21.03,8.94,27.55-.35,11.44-8.5,3-12.15,13.81-3.81,11.29-25.09,5.89-31.71,15.82-1.99,2.98-4.39,1.71-7.1,4.83-4.01-.95,5.41,11.09,2.94,8.98-23.8-20.28-38.47-52.5-38.47-52.5,0,0-3.99-7.92-4.26-8.47-15.03-27.55-29.16-76.22-48.36-131.97l2.65-17.86c15.22-4.16,9,2.26,23.79-3.24Z"/>
    <path class="cls-23" d="M1111.24,632.38c6.9,12.9,14.18,26.87,12.22,41.99-.1.77,1.38.6,1.47-.09,1.99-15.32-5.38-29.47-12.37-42.55-.32-.6-1.7-.04-1.32.65h0Z"/>
  </g>
</svg>