<svg id="Layer_1" data-name="Layer 1" xmlns="http://www.w3.org/2000/svg" viewBox="0 0 348 282.35"><defs><style>.cls-1{fill:#f8d979;}.cls-2{fill:#ffcb05;}.cls-3{fill:#f8ac1c;}.cls-4{fill:#e59525;}.cls-11,.cls-12,.cls-13,.cls-14,.cls-20,.cls-21,.cls-23,.cls-5,.cls-9{fill:none;stroke-miterlimit:10;}.cls-12,.cls-5{stroke:#138ab2;}.cls-11,.cls-12,.cls-13,.cls-14,.cls-20,.cls-21,.cls-5,.cls-9{stroke-linecap:round;}.cls-5{stroke-width:4.82px;}.cls-6{fill:#a1cbec;}.cls-7{fill:#0aa0cc;}.cls-8{fill:#fff;}.cls-14,.cls-20,.cls-9{stroke:#0d4061;}.cls-9{stroke-width:1.8px;}.cls-10{fill:#0d4061;}.cls-11{stroke:#231f20;stroke-width:0.96px;}.cls-12,.cls-13{stroke-width:5px;}.cls-13,.cls-21{stroke:#198ab1;}.cls-14{stroke-width:2.06px;}.cls-15{fill:#57c4cf;}.cls-16{fill:#504b48;}.cls-17{fill:#7d3a1b;}.cls-18{fill:#572513;}.cls-19{fill:#ea1e52;}.cls-20{stroke-width:1.48px;}.cls-21{stroke-width:4px;}.cls-22{fill:#010101;}.cls-23{stroke:#010101;stroke-width:0.12px;}.cls-24{fill:#5754a3;}</style></defs><polyline class="cls-1" points="0 282.35 0 0 348 0 348 282.35"/><rect class="cls-2" y="238.66" width="348" height="43.38"/><polyline class="cls-3" points="91.87 254.17 84.8 254.17 84.8 223.7 27.84 223.7 27.84 254.17 20.61 254.17 20.61 220.85 20.73 220.85 20.73 214.35 91.87 214.35 91.87 220.94"/><rect class="cls-4" x="15.13" y="199.86" width="82.8" height="16.56" rx="5"/><path class="cls-5" d="M101.88,180.23S91.18,169.78,90,164s5.26-15.47,5.26-15.47"/><path class="cls-6" d="M105.38,176.27a5.33,5.33,0,0,0-5.92,0,5.08,5.08,0,0,0-1.95,6.87l3.46,5.5a.44.44,0,0,0,.08.11l0,.07,4.66,7.42a1.4,1.4,0,0,0,2.35-1.48l-2.53-4a5.55,5.55,0,0,0,1.18-.26l3.05,4.85a1.4,1.4,0,0,0,2.35-1.48l-3-4.85a5.58,5.58,0,0,0,.69-.85l2.61,4.16a1.4,1.4,0,0,0,2.35-1.48l-4.36-6.94a4.32,4.32,0,0,0-.33-.73l1.28,1a1.42,1.42,0,0,0,1.91-.22h0a1.23,1.23,0,0,0,0-1.81"/><rect class="cls-7" x="21.9" y="40.44" width="84.95" height="166.73" rx="30.53" transform="translate(5.79 -2.84) rotate(2.65)"/><path class="cls-8" d="M60.39,82.93a8.42,8.42,0,0,1,16.82.78"/><path class="cls-8" d="M90.23,84.31a8.41,8.41,0,1,1,16.81.78"/><line class="cls-9" x1="63.6" y1="64.59" x2="78.28" y2="72.42"/><line class="cls-9" x1="105.18" y1="67.01" x2="90.99" y2="73.03"/><path class="cls-10" d="M67.82,83.27a3.64,3.64,0,0,1,7.27.34"/><path class="cls-10" d="M97.66,84.65a3.64,3.64,0,1,1,7.27.34"/><ellipse class="cls-11" cx="67.35" cy="80.06" rx="8.11" ry="11.92" transform="translate(-15.05 144.52) rotate(-87.96)"/><ellipse class="cls-11" cx="99.94" cy="81.27" rx="8.11" ry="11.92" transform="translate(15.16 178.25) rotate(-87.96)"/><path class="cls-11" d="M79.23,81.29s4.89-6,8.83.39"/><path class="cls-12" d="M30.75,142.37S35,165.11,45.1,169.75s25.75,3.56,25.75,3.56"/><path class="cls-13" d="M217.4,177.14s11.13,5.92,9.47,25.19"/><path class="cls-6" d="M221.73,202a4.61,4.61,0,0,1,4.55-2.28c2.68.14,4.9,2,4.94,4.06l.09,5.15s0,.07,0,.11,0,0,0,.06l.12,7c0,.55-.55,1-1.25.93a1.27,1.27,0,0,1-1.3-1.06l-.06-3.79a5.77,5.77,0,0,1-1,.27l.08,4.54c0,.55-.56,1-1.26.93a1.27,1.27,0,0,1-1.29-1.06l-.08-4.54a5.94,5.94,0,0,1-.95-.34l.07,3.9c0,.55-.56,1-1.26.93a1.27,1.27,0,0,1-1.29-1.06l-.12-6.51a2.76,2.76,0,0,1-.1-.64l-.47,1.22a1.29,1.29,0,0,1-1.58.58h0c-.67-.2-1.06-.77-.87-1.29"/><path class="cls-7" d="M123,137.34c1.11,33,29.59,78.45,61.2,77.38,33.3-1.12,57-47.7,55.87-80.66s-27.57-39.79-59.9-38.7S121.9,104.38,123,137.34Z"/><path class="cls-8" d="M203.82,138.16a9.56,9.56,0,0,0-19.12.39"/><line class="cls-14" x1="225.22" y1="122.1" x2="215.91" y2="128.28"/><line class="cls-14" x1="191.75" y1="121.57" x2="202.9" y2="128.8"/><path class="cls-10" d="M217.65,151.57c2.21,0,3.61-1.48,2.66-2.74-1.69-2.22-5.1-5-11.61-4.77s-9.45,3-10.69,5.17c-.7,1.23.79,2.51,2.84,2.49Z"/><polyline class="cls-7" points="196.66 251.18 200.84 208.79 187.55 208.79 192.98 252.4 196.2 249.27"/><polygon class="cls-15" points="190.22 231.01 198.65 231.01 196.81 252.05 192.36 252.05 190.22 231.01"/><path class="cls-16" d="M206.21,252.4c0-3.29-3.14-6-7-6s-7,2.66-7,6"/><polyline class="cls-7" points="179.59 251.18 183.77 208.79 170.48 208.79 175.91 252.4 179.13 249.27"/><polygon class="cls-15" points="173.15 231.01 181.58 231.01 179.75 252.05 175.29 252.05 173.15 231.01"/><path class="cls-16" d="M189.14,252.4c0-3.29-3.14-6-7-6s-7,2.66-7,6"/><path class="cls-17" d="M83.63,147.38a1,1,0,0,0,.36.56,8.36,8.36,0,0,1,3.07,5,7.39,7.39,0,0,1,.06,1.56q-.78,13.24-1.6,26.49a4.35,4.35,0,0,1-1,2.66,2,2,0,0,1-1.74.76l-10.52-.63a2,2,0,0,1-1.84-1.33,5.77,5.77,0,0,1-.45-2.26q.75-13.41,1.61-26.8c.17-2.67,1.73-4.5,3.84-5.93l2.08-9.33c.13-1,.26-2,.39-3-1-.58-1-1.29-.1-1.91.26-.18.3-.69.45-1.09l-.68-.21.06-.87,6.2.38-.06.88-.53.06c-.09.55-.22,1,.4,1.45s.31,1.25-.57,1.61c0,1.58,0,3.18,0,4.78Z"/><path class="cls-13" d="M146.66,172.09s4.57,15.69,32.73,17.92"/><path class="cls-6" d="M178,185.08a4.9,4.9,0,0,0-3.29,4.31c-.38,2.84,1.09,5.53,3.27,6l5.39,1.11.11,0,.06,0,7.27,1.5c.57.12,1.11-.39,1.21-1.13a1.34,1.34,0,0,0-.85-1.56l-4-.82a5.63,5.63,0,0,0,.49-1l4.75,1c.57.12,1.11-.4,1.21-1.14a1.35,1.35,0,0,0-.85-1.56l-4.75-1a6.13,6.13,0,0,0-.16-1.07l4.08.84c.57.12,1.12-.39,1.22-1.13a1.35,1.35,0,0,0-.86-1.56l-6.79-1.41a3.91,3.91,0,0,0-.65-.24l1.37-.24a1.38,1.38,0,0,0,.91-1.54h0c-.07-.75-.6-1.27-1.17-1.17"/><rect class="cls-18" x="70.76" y="157.66" width="15.58" height="19.29" transform="translate(10.28 -4.45) rotate(3.47)"/><path class="cls-6" d="M69.17,167.75a5.33,5.33,0,0,0-3,5.1,5.08,5.08,0,0,0,5,5.14l6.49-.24h.2l8.76-.32a1.39,1.39,0,0,0-.09-2.77l-4.77.17a6,6,0,0,0,.37-1.16l5.71-.2a1.4,1.4,0,0,0-.09-2.78L82,170.9a5.69,5.69,0,0,0-.4-1l4.91-.18a1.39,1.39,0,0,0-.1-2.77l-8.19.29a5.29,5.29,0,0,0-.8-.08l1.55-.58a1.42,1.42,0,0,0,.77-1.76h0a1.23,1.23,0,0,0-1.59-.87"/><path class="cls-10" d="M73.61,92.86s1.13-4.35,10.2-3.9,8.7,4.61,8.7,4.61Z"/><path class="cls-10" d="M191.83,138.41a4.32,4.32,0,0,1,8.64-.15"/><path class="cls-8" d="M233.55,138.16a9.56,9.56,0,1,0-19.11.39"/><path class="cls-10" d="M221.57,138.41a4.32,4.32,0,0,1,8.63-.15"/><path class="cls-7" d="M335.45,160.36c0-.33,0-.66,0-1,0-24.05-17.38-43.55-38.84-43.55s-38.83,19.5-38.83,43.55c0,.34,0,.67,0,1a34.78,34.78,0,0,0-.36,4.93v20.35c0,16.77,14.85,32.06,29.69,32.06h21.09c14.84,0,27.57-15.29,27.57-32.06V165.29A34.78,34.78,0,0,0,335.45,160.36Z"/><polyline class="cls-7" points="281.01 215.36 285.65 251.65 288.91 251.65 292.59 215.51"/><polygon class="cls-19" points="289.55 250.73 284.99 250.54 283.26 233.51 290.76 233.51 289.55 250.73"/><path class="cls-16" d="M290,252.49a6.78,6.78,0,1,0-13.55,0"/><polyline class="cls-7" points="299.26 214.67 303.91 250.96 307.16 250.96 310.84 214.82"/><polygon class="cls-19" points="307.8 250.03 303.24 249.86 301.67 233.51 308.94 233.51 307.8 250.03"/><path class="cls-16" d="M308.2,252.49a6.78,6.78,0,1,0-13.55,0"/><path class="cls-20" d="M268.45,143.05s2.84-5.74,9.07-2.36"/><path class="cls-20" d="M305.66,143.05s-2.07-5.85-8.3-2.47"/><path class="cls-10" d="M296.79,158.24s-1.75,5.63-10.39,5.46-9.31-5.46-9.31-5.46Z"/><path class="cls-8" d="M291.64,153.29a7.6,7.6,0,0,1,15.17,0"/><path class="cls-8" d="M269.08,153.29a7.65,7.65,0,0,1,15.26,0"/><path class="cls-10" d="M269.86,149.69l-4.08-1.63,3.62,2.85c0,.17-.08.32-.11.47l-3.54-.44,3.38,1.42a5.83,5.83,0,0,0,0,.75c1.89-6,5.68-6.8,6.77-6.91C272.38,146.3,270.68,148,269.86,149.69Z"/><path class="cls-10" d="M275.86,146.2l.3,0Z"/><path class="cls-10" d="M310.15,150.94l-3.54.44c0-.15-.07-.31-.11-.47l3.61-2.85L306,149.68c-.82-1.69-2.53-3.38-6-3.48,1.09.11,4.87.9,6.77,6.9,0,0,0-.29,0-.74Z"/><path class="cls-10" d="M300,146.2l-.3,0Z"/><path class="cls-10" d="M296.59,150.73A4.19,4.19,0,0,0,299,146.2a7.63,7.63,0,0,0-6.69,4A4.18,4.18,0,0,0,296.59,150.73Z"/><path class="cls-10" d="M273.92,150.73a4.18,4.18,0,0,0,2.38-4.53,7.66,7.66,0,0,0-6.69,4A4.2,4.2,0,0,0,273.92,150.73Z"/><polygon class="cls-8" points="253.66 170.23 253.29 204.11 282.92 205.26 285.01 169.79 253.66 170.23"/><path class="cls-21" d="M314.13,180.69s-1.82,19-27,20.35"/><path class="cls-22" d="M261.43,196.21c-.09,0-.06,0-.07,0C261.51,196.25,261.43,196.19,261.43,196.21Z"/><polygon class="cls-22" points="262.92 196.13 262.89 196.15 263.11 196.1 262.92 196.13"/><path class="cls-22" d="M264.3,196.16c-.12-.09-.5,0-.75,0l0,0-.11.06C263.7,196.17,264.09,196.13,264.3,196.16Z"/><path class="cls-22" d="M265,196.37c-.05,0,.16,0-.17,0H265Z"/><path class="cls-22" d="M264.9,196.37c-.15,0,.09,0,0,0Z"/><path class="cls-22" d="M265.57,196.37l-.19,0s.21,0,.15.05C265.72,196.42,265.68,196.4,265.57,196.37Z"/><path class="cls-22" d="M265.76,196.31h-.1S265.7,196.33,265.76,196.31Z"/><path class="cls-22" d="M265.45,196.34l.21,0s0,0-.1,0S265.54,196.32,265.45,196.34Z"/><path class="cls-22" d="M265.33,196.32c-.11,0-.25,0-.06-.06C264.9,196.26,265,196.32,265.33,196.32Z"/><path class="cls-22" d="M264.38,196.07l-.15,0-.12,0C264.17,196.06,264.39,196.1,264.38,196.07Z"/><path class="cls-22" d="M266.77,196.44s-.06-.05-.08-.07h-.14C266.62,196.4,266.76,196.41,266.77,196.44Z"/><path class="cls-22" d="M266.69,196.37l.22,0C266.72,196.33,266.68,196.35,266.69,196.37Z"/><polygon class="cls-22" points="265.79 196.21 265.44 196.27 265.86 196.21 265.79 196.21"/><polygon class="cls-22" points="267.58 196.47 267.46 196.51 267.68 196.45 267.58 196.47"/><path class="cls-22" d="M268.12,196.47c-.09,0,.12.07,0,.09a1.89,1.89,0,0,0,.38-.06A1.22,1.22,0,0,1,268.12,196.47Z"/><path class="cls-22" d="M268.72,196.47l-.19,0Z"/><path class="cls-22" d="M267.27,196.36a.39.39,0,0,0,.17.06l-.09-.06Z"/><path class="cls-22" d="M267.35,196.36Z"/><path class="cls-22" d="M267.25,196.36h0S267.26,196.35,267.25,196.36Z"/><path class="cls-22" d="M266.35,196.27c.13,0,.39-.05.14-.1C266.4,196.2,266.54,196.23,266.35,196.27Z"/><path class="cls-22" d="M267.15,196.29l-.23,0s.05,0,0,0Z"/><polygon class="cls-22" points="267.26 196.27 267.15 196.29 267.23 196.29 267.26 196.27"/><path class="cls-22" d="M268.34,196.41a1.1,1.1,0,0,1,.32,0,2.43,2.43,0,0,0-.38,0S268.2,196.4,268.34,196.41Z"/><path class="cls-22" d="M267.86,196.38h0Z"/><polygon class="cls-22" points="269.85 196.42 269.83 196.41 269.83 196.41 269.85 196.42"/><path class="cls-22" d="M268.25,196.35a.69.69,0,0,0-.21,0h.24S268.29,196.35,268.25,196.35Z"/><path class="cls-22" d="M269.06,196.45l-.17,0A.67.67,0,0,0,269.06,196.45Z"/><path class="cls-22" d="M267.91,196.39h0S267.93,196.4,267.91,196.39Z"/><path class="cls-22" d="M267.91,196.39a.5.5,0,0,0,.13,0l-.16,0Z"/><path class="cls-22" d="M270.22,196.09a.7.7,0,0,1-.49,0c-.22,0-.08.2.1.3,0,0,0,0,.24-.07-.08,0-.5-.07-.31-.11a.71.71,0,0,1,.39.05c-.12-.06.37-.08.31-.17l-.26,0S270.29,196.1,270.22,196.09Z"/><path class="cls-22" d="M269.41,196.39h-.09l.31.08c.16,0,.19,0,.2-.05l-.45,0Z"/><path class="cls-22" d="M268.9,196.38c.08,0,.3-.07.16-.13s-.19,0-.35.06c.44,0-.12,0,.19.07h-.24l.23,0h0s0,0,0,0h0s0,0,0,0,0,0,0,0h0l.44,0Z"/><path class="cls-22" d="M266.72,196.06h0S266.78,196.06,266.72,196.06Z"/><path class="cls-22" d="M266.9,196.1a.54.54,0,0,1-.16,0c-.09,0,0,0,0,0s-.22,0,0,.07h0a.92.92,0,0,1,.37.1A.54.54,0,0,0,266.9,196.1Z"/><path class="cls-22" d="M267.92,196.23l.36,0-.18-.05v0C267.9,196.17,267.94,196.21,267.92,196.23Z"/><polygon class="cls-22" points="269.89 196.44 269.84 196.5 270.06 196.43 269.89 196.44"/><polygon class="cls-22" points="270.37 196.45 270.35 196.5 270.47 196.47 270.37 196.45"/><path class="cls-22" d="M272.33,180.48h0Z"/><path class="cls-22" d="M273.1,180.45l0,0S273.07,180.45,273.1,180.45Z"/><path class="cls-22" d="M276.84,190.78c.05-.15.12-.33.07-.31l-.06.05A1,1,0,0,1,276.84,190.78Z"/><path class="cls-22" d="M276.64,182.84v0l.05.1Z"/><path class="cls-22" d="M276.42,182.73l0-.21Z"/><path class="cls-22" d="M268.1,180.57l-.13.06C268.17,180.63,268.08,180.6,268.1,180.57Z"/><path class="cls-22" d="M275.2,196.55a2.67,2.67,0,0,0,.33,0C275.37,196.56,275.24,196.51,275.2,196.55Z"/><path class="cls-22" d="M272.61,179.89c-.06,0-.09,0-.09,0S272.63,179.91,272.61,179.89Z"/><path class="cls-22" d="M275.92,196.61l-.07,0h-.32A1,1,0,0,0,275.92,196.61Z"/><path class="cls-22" d="M262.14,189.44v0S262.14,189.46,262.14,189.44Z"/><path class="cls-22" d="M261.55,193.89v-.18A1.53,1.53,0,0,0,261.55,193.89Z"/><path class="cls-22" d="M272.26,196.52c-.1,0,0,0,0,0Z"/><path class="cls-22" d="M271.78,196.3l0,0Z"/><path class="cls-22" d="M276.44,195.81h0S276.44,195.83,276.44,195.81Z"/><path class="cls-22" d="M272.11,196.49l.13,0Z"/><path class="cls-22" d="M272.13,196.52H272S272,196.53,272.13,196.52Z"/><path class="cls-22" d="M272.4,196.52h0Z"/><path class="cls-22" d="M262.08,181.24v0C262.1,181.36,262.09,181.32,262.08,181.24Z"/><polygon class="cls-22" points="276.32 188.17 276.32 188.18 276.33 188.16 276.32 188.17"/><path class="cls-22" d="M276.29,187.81a.64.64,0,0,1,0,.35l.15-.11Z"/><path class="cls-22" d="M270.47,180.53l.26,0c-.31.09-.53.06-.29.13,0-.17,1,0,1-.2l.17,0h-.11c.33.07.24-.13.66-.12.14,0,.25,0,.15.06l.32-.06c.1,0,.07,0,0,0l.49,0h0l.31-.1c.12,0-.07,0,0,0l.27-.05c.11,0-.11.09-.3.09.26.16.22,0,.78,0l-.26,0c.17.09.37,0,.67.09-.07,0-.59-.13-.3-.18a1,1,0,0,0,.36,0c0,.06.16,0,.35,0v.08c.21,0,.19-.07.32-.12a.44.44,0,0,1,.34.1c.38,0-.26-.08.18-.12a1.85,1.85,0,0,0,.42,0,.25.25,0,0,1,.22,0c0,.11-.05,0-.06.06a.13.13,0,0,1,.07.06s0,0,0,0,.08,0,.1.22c.08.07-.14.52,0,.84,0,.08,0,0-.07,0a4.4,4.4,0,0,0,.12.74l-.06.3c.06-.22.13.07.18.32l.07-.19,0,.4s0,0-.07-.06l0,.07c0,.15-.08.07-.12,0l.05-.14c-.05-.11-.1-.2-.15-.18a.44.44,0,0,1,0,.13s0,0,0,0,0,.06,0,.12l-.09.09,0,0-.06.52a6,6,0,0,1,.23,1.31c-.06-.15-.1,0-.18,0,.09-.16,0-.46,0-.77,0,.16-.05.13-.06.09l.06.55c-.06,0-.05.12-.07.26.12-.11.07.41.11.64-.05,0-.09,0-.07-.32-.1.3.14.4.05.69,0-.07,0-.1,0-.13,0,.16,0,.54,0,.45v-.07a4.59,4.59,0,0,0,.08,1.42s-.12-.06-.14-.08l.34.8c-.09-.08-.31.19-.35-.18a1.3,1.3,0,0,0,0,.46c0-.07.14-.18.14-.08-.1.27,0,.19-.15.52,0-.11.17,0,.16.19,0,0-.14,0-.16-.06l.14.43c0-.1-.12,0-.16.08a3.57,3.57,0,0,1,0,.48l0-.18c0,.48.19.48.17.95,0-.06-.17-.14-.2.1a2.31,2.31,0,0,1,.39.92l0,.08,0,.32a7.69,7.69,0,0,1-.41-1.08c0,.18,0,.05,0,.32,0,.09-.05-.15-.05-.23l0,.63c.09,0,.08.48.15.46l-.08-.68c.09,0,.23.39.21.84,0,.11-.15-.09-.17-.08a1.81,1.81,0,0,1,0,.46l0-.19c0,.25.11.41,0,.7,0,.11-.11.31-.06.33.1-.17.39-.2.46-.08s-.1.53-.15.65-.17-.26-.24-.11c0,0,.05.1.06.13s-.07,0-.06.19c.08,0,0,.48.07.12a3.21,3.21,0,0,1,0,.51c.06-.09.19.24.21.47,0,0-.05,0-.07.06s0,.31,0,.45l-.65,0s-.25-.05-.16-.09a.78.78,0,0,1-.26,0c-.26-.08.3,0,.1-.09,0,0-.35.06-.54.08.06.08.44,0,.64,0,0,.11-.34.21-.8.24s-.16-.07-.22-.06c-.68,0-.59.17-1.15.08-.23-.07,0-.13-.06-.18a3.72,3.72,0,0,1,.66.06l-.25,0a1.33,1.33,0,0,1,.4,0c-.19-.07-1.15,0-1.68-.11-.09,0-.25,0-.18.07h.17c.15.06-.32.07-.11.1a3.14,3.14,0,0,1-.79,0l-.05-.08a.56.56,0,0,0,.29,0c-.13,0-.48-.12-.63,0l.22.06a3.14,3.14,0,0,1-.78.07c.12.08.06,0,.26.09-.17-.12.71,0,.44-.1.2.11.35,0,.61.14,0,0-.09,0,.14,0l.06,0h0l-.11,0a3.08,3.08,0,0,1,.61-.07c.14,0-.06,0,0,.05l.19,0c0,.06.37.11,0,.13h.29a1.81,1.81,0,0,0,.56,0c.14,0,.35-.06.23,0l.46,0h0a8.13,8.13,0,0,1,1.46.05h.33c.15,0,.31,0,.53,0l.05,0,0,0c0-.18,0-.42,0-.66a1,1,0,0,0,0-.35,5.28,5.28,0,0,0,.07-1.3l-.06,0a7.06,7.06,0,0,0,0-.76l0,0a8.58,8.58,0,0,1,0-1.06.44.44,0,0,1,0,.2c.13-.48-.08-1,0-1.46a.75.75,0,0,1,0-.26v0l0-.15a.79.79,0,0,0,0,.13c0-.09,0-.21,0-.34l.06,0v0c0-.12,0-.1-.07,0s0-.13,0-.17,0-.33.07-.46,0-.63-.13-.7,0,0,0,0a1.13,1.13,0,0,0,0-.41l.08-.06-.1-.3c.05-.19.08-.26.13-.08-.08-.44,0-.36-.11-.74l.05,0c0-.13-.06-.35,0-.43.1-.3,0-1.49.14-2.26-.15.14.07-.36,0-.39s.05-.16.08,0a3.91,3.91,0,0,0,0-.87s.05.09.07,0a.48.48,0,0,1,0-.17s0,.06,0,.12c0-.4-.11-.44-.2-.47a.64.64,0,0,0,0-.46c0-.07.07-.19.07.06,0-.14.07-.86,0-.87a.65.65,0,0,0,0-.24c0-.31,0-.34,0-.65v.08c-.1-.12,0-.26,0-.51h0c.05-.33,0-.44,0-.49s-.06-.18-.43-.25l0,.06c-.11.12-.55,0-.88,0l.13,0c-.18.06-.52-.14-.7-.15s.07,0,.12,0c-.47-.05-.06.08-.41.12-.06,0,.08-.11-.16-.11a5.33,5.33,0,0,1-1,.1c.07,0,.14.06,0,.09s-.68-.09-.9,0a.06.06,0,0,1-.05,0,4.44,4.44,0,0,0-.73.12c-.18-.2-1.19.12-1.18-.07l-.59,0v0a1.64,1.64,0,0,0-.64.08c-.08,0,0,0,0,0a2.86,2.86,0,0,0-1.07.06l-.05-.06c-.12,0-.79-.1-1.33,0l.06,0c-.61.06-1.44-.21-1.67,0l-.4,0c.51,0-.08.09.13.14-.21,0-.53-.09-.28-.09h0c.1-.11-.64-.06-.62-.14-.52,0-1-.07-1.52-.11a.93.93,0,0,0-.86.39,1.56,1.56,0,0,0-.15.83l.09-.11v.33c0,.09-.07.12-.07-.12a.65.65,0,0,0,.06.41c0,.46-.1-.19-.11,0v.15a1.35,1.35,0,0,1,.07.45c0,.19-.06.1-.07.17v.53l.07-.17c0,.19,0,.39.08.2a12.11,12.11,0,0,0-.1,1.74,4.52,4.52,0,0,1,0,.84c0-.08.1-.13.09.15-.17-.1-.08.5-.2.72.08-.2,0,.78.12.47,0,.23-.06,0-.1.19.06.55-.06,1.2,0,1.88,0,0,.06-.1.09,0l-.12.36c0,.13.13.12.05.36,0,0,0-.08,0,0-.12,1.32.06,2.7-.15,4,0-.18,0-.06,0,.08,0-.09.06,0,.09,0l-.09.57c.08.1,0,.6.08.66l0-.18c.09.24.21-.33.33-.29-.1-.27.17-.7,0-1.14,0-.09,0,.08.07,0a1,1,0,0,1,0-.49v0c0-.69.05-1,.09-1.77l-.06.06a1,1,0,0,1,.05-.28c-.09-.19,0,.47-.11.29.12-.22,0-1.18.15-1.32s-.06.07-.06-.19l0-.07,0-.06c0-.17.06-.25.09-.26a.43.43,0,0,0,0,.16,5.16,5.16,0,0,0,0-.69l0,.25c0-.71,0-1.56,0-2.24l0,.05c0-.52,0-.42,0-1v0a1.71,1.71,0,0,1,0-.42c0,.15.07-.27.1-.08a1.61,1.61,0,0,0-.14-.65l.05-.08a1.08,1.08,0,0,1-.07-.43c0,.24.07-.18.12.08.11-.59-.09-.88.06-1.15-.13-.28-.08.51-.1.36-.05.13-.1-.23-.08-.42s.17-.32.17-.8v.1a5.6,5.6,0,0,1,0-.57c-.08-.13,0-.29-.09-.32l0,.44a2.87,2.87,0,0,1-.08-.9.92.92,0,0,1,.06.24c0-.12,0-.23,0-.35.09,0,0,.53.08.8.05-.13-.06-.51,0-.37-.12-.19,0-.5-.05-.75l.05,0s0-.12,0-.16l0,.11c0-.18.13-.11.3-.16-.32.07-.09-.06-.24,0a.33.33,0,0,1,.39,0,1,1,0,0,0,.56.11c-.09,0-.36,0-.21-.07a1.93,1.93,0,0,1,.41.09c.48,0-.08-.07.13-.09s.24,0,.45,0v.06c.55.06.15-.12.65,0l-.22.07h.26l-.05.07a2,2,0,0,1,.64,0c-.06,0,0-.1.29-.1s-.1,0,.25.06a.37.37,0,0,1-.32,0s-.07,0-.09.05a2.94,2.94,0,0,0,.57,0l-.13,0,.5-.07c.08,0,0,0,0,.06l.32,0c0,.05,0,.1-.25.12l.48,0s.25.06.19.08c.26,0,.65-.09,1-.05l.13,0a4.82,4.82,0,0,0,1,0l.23.08c.3,0-.3-.1.21-.14s.13.07.26.1a1.7,1.7,0,0,1,.82-.07Zm3.78-.15c-.07,0-.21.06-.27,0S274.13,180.36,274.25,180.38Zm2.27,3a.38.38,0,0,1,0-.23A.93.93,0,0,1,276.52,183.39Zm-3.16,13.11h0C273.53,196.53,273.47,196.52,273.36,196.5Zm-.34,0s0,0,0,0h.19A.35.35,0,0,0,273,196.47Zm-11.35-14.16v-.07C261.7,182.39,261.68,182.35,261.67,182.31Z"/><path class="cls-22" d="M276.45,182.74s0,0,0,0S276.46,182.68,276.45,182.74Z"/><path class="cls-22" d="M268.12,180.56h0Z"/><path class="cls-22" d="M276.23,194.46a.49.49,0,0,1,0-.13S276.23,194.35,276.23,194.46Z"/><path class="cls-22" d="M271.23,196.52h.21a.78.78,0,0,1-.19,0S271.29,196.52,271.23,196.52Z"/><path class="cls-22" d="M269.35,196.1h-.1v0C269.4,196.14,269.49,196.12,269.35,196.1Z"/><path class="cls-22" d="M271,196.32s-.15,0-.3,0h0C270.71,196.36,270.87,196.34,271,196.32Z"/><path class="cls-22" d="M270.69,196.29h-.14S270.61,196.29,270.69,196.29Z"/><path class="cls-22" d="M272.59,196.49c-.07,0,0,.06-.08,0S273,196.47,272.59,196.49Z"/><polygon class="cls-22" points="270.91 196.15 270.96 196.21 271.05 196.16 270.91 196.15"/><path class="cls-22" d="M272.11,196.23l-.24,0s0,0-.07,0Z"/><path class="cls-22" d="M271.8,196.22h0Z"/><polygon class="cls-22" points="271.24 196.14 271.31 196.15 271.49 196.16 271.24 196.14"/><path class="cls-22" d="M274.72,196.31l.26,0s0,0-.14,0S274.68,196.28,274.72,196.31Z"/><path class="cls-22" d="M273.92,196.11l.12,0v-.07Z"/><path class="cls-22" d="M274.69,196.12s.39-.05.05-.06C274.72,196.08,274.45,196.09,274.69,196.12Z"/><polygon class="cls-22" points="276.45 194.05 276.45 194.12 276.57 194.11 276.45 194.05"/><path class="cls-22" d="M276.2,190.53c0,.31.08.08,0,.36,0,.07,0-.23.06-.16C276.27,190.54,276.28,190.44,276.2,190.53Z"/><path class="cls-22" d="M276.29,190.73l0,.1A.56.56,0,0,0,276.29,190.73Z"/><polygon class="cls-22" points="261.47 194.63 261.44 194.83 261.49 194.7 261.47 194.63"/><path class="cls-22" d="M261.56,195l-.08,0,.07.12A.46.46,0,0,1,261.56,195Z"/><path class="cls-22" d="M274.82,180.51l0,0s-.08,0-.18,0Z"/><polygon class="cls-22" points="272.08 180.56 272.12 180.56 272.03 180.49 272.08 180.56"/><path class="cls-22" d="M269.77,180.69h.3C269.86,180.69,269.74,180.6,269.77,180.69Z"/><path class="cls-22" d="M269.67,195.67s.05,0,.06,0S269.66,195.67,269.67,195.67Z"/><polygon class="cls-22" points="269.58 195.31 269.6 195.31 269.55 195.26 269.58 195.31"/><path class="cls-22" d="M269.6,195c-.09,0,0,.12,0,.17h0l.07,0C269.62,195.12,269.57,195,269.6,195Z"/><path class="cls-22" d="M269.81,194.81s0,0,0,0h0A.08.08,0,0,1,269.81,194.81Z"/><path class="cls-22" d="M269.8,194.85s0,0,0,0Z"/><path class="cls-22" d="M269.79,194.68l0,0s0,0,0,0S269.83,194.66,269.79,194.68Z"/><path class="cls-22" d="M269.73,194.64v0S269.75,194.65,269.73,194.64Z"/><path class="cls-22" d="M269.77,194.71l0-.05s0,0,0,0S269.75,194.69,269.77,194.71Z"/><path class="cls-22" d="M269.75,194.74s0,.06-.06,0S269.76,194.83,269.75,194.74Z"/><path class="cls-22" d="M269.51,195l0,0,0,0S269.54,195,269.51,195Z"/><path class="cls-22" d="M269.86,194.4l-.08,0,0,0S269.83,194.4,269.86,194.4Z"/><path class="cls-22" d="M269.78,194.42l0-.06S269.76,194.42,269.78,194.42Z"/><polygon class="cls-22" points="269.63 194.62 269.69 194.71 269.63 194.61 269.63 194.62"/><polygon class="cls-22" points="269.87 194.21 269.91 194.24 269.85 194.19 269.87 194.21"/><path class="cls-22" d="M269.87,194.08s.07,0,.09,0a.33.33,0,0,0-.06-.1A.09.09,0,0,1,269.87,194.08Z"/><path class="cls-22" d="M269.86,193.94s0,0,0,0Z"/><path class="cls-22" d="M269.77,194.28s0,0,.05,0l-.05,0Z"/><path class="cls-22" d="M269.77,194.26h0v0Z"/><path class="cls-22" d="M269.77,194.28Z"/><path class="cls-22" d="M269.69,194.49s-.06-.09-.1,0S269.65,194.45,269.69,194.49Z"/><path class="cls-22" d="M269.7,194.3l0,.06s0,0,.05,0Z"/><polygon class="cls-22" points="269.68 194.28 269.7 194.3 269.7 194.28 269.68 194.28"/><path class="cls-22" d="M269.8,194a.13.13,0,0,1,0-.08.29.29,0,0,0,0,.09S269.8,194.06,269.8,194Z"/><path class="cls-22" d="M269.78,194.14h0S269.77,194.14,269.78,194.14Z"/><polygon class="cls-22" points="269.8 193.66 269.79 193.67 269.8 193.67 269.8 193.66"/><path class="cls-22" d="M269.75,194a0,0,0,0,0,0,.05V194Z"/><path class="cls-22" d="M269.84,193.86l0,0S269.85,193.86,269.84,193.86Z"/><path class="cls-22" d="M269.79,194.13h0Z"/><path class="cls-22" d="M269.79,194.13s0,0,0,0l0,0Z"/><path class="cls-22" d="M269.47,193.56a.07.07,0,0,1,0,.12s.2,0,.29,0a.12.12,0,0,1-.07-.06s-.07.11-.11.06,0,0,.05-.09-.08-.09-.17-.08l0,.06S269.48,193.54,269.47,193.56Z"/><path class="cls-22" d="M269.78,193.77v0l.07-.07s0-.05-.05-.05v.11Z"/><path class="cls-22" d="M269.78,193.89c-.06,0-.07-.08-.13,0s0,0,.06.09,0,0,.06,0a.13.13,0,0,1,0,.06l0-.06h0s0,0,0,0h0l0-.11A.16.16,0,0,0,269.78,193.89Z"/><path class="cls-22" d="M269.47,194.39h0Z"/><path class="cls-22" d="M269.51,194.35s0,0,0,0,0,0,0,0,0,.05.06,0h0s.1-.09.1-.08Z"/><path class="cls-22" d="M269.63,194.12l0-.09-.05,0h0C269.57,194.12,269.61,194.11,269.63,194.12Z"/><polygon class="cls-22" points="269.83 193.66 269.88 193.67 269.81 193.62 269.83 193.66"/><polygon class="cls-22" points="269.83 193.54 269.88 193.55 269.85 193.52 269.83 193.54"/><path class="cls-22" d="M266.82,190.31v0Z"/><path class="cls-22" d="M267,190.27v0Z"/><path class="cls-22" d="M270,190.79c.05,0,.13-.07.07-.07H270A.08.08,0,0,1,270,190.79Z"/><polygon class="cls-22" points="268.39 189.98 268.4 190 268.43 189.95 268.39 189.98"/><path class="cls-22" d="M268.36,190.2l-.05,0Z"/><path class="cls-22" d="M266.48,190.88l0,0S266.51,190.89,266.48,190.88Z"/><path class="cls-22" d="M269.88,192.39a.1.1,0,0,0,0-.08S269.84,192.38,269.88,192.39Z"/><path class="cls-22" d="M266.69,189.75s0,0,0,0S266.7,189.76,266.69,189.75Z"/><path class="cls-22" d="M269.93,192.22l0,0a.09.09,0,0,1,0,.07S270,192.26,269.93,192.22Z"/><path class="cls-22" d="M266.39,194.45h0Z"/><path class="cls-22" d="M265.85,195.51v0S265.85,195.49,265.85,195.51Z"/><path class="cls-22" d="M269.88,193.09s0,0,0,0Z"/><path class="cls-22" d="M269.66,193.19h0Z"/><path class="cls-22" d="M269.61,192Z"/><path class="cls-22" d="M269.85,193.13l0,0Z"/><path class="cls-22" d="M269.88,193.12v0S269.89,193.15,269.88,193.12Z"/><path class="cls-22" d="M269.88,193.06a.06.06,0,0,1,0,0h0Z"/><path class="cls-22" d="M266.24,192.5Z"/><polygon class="cls-22" points="269.41 190.33 269.42 190.33 269.42 190.33 269.41 190.33"/><path class="cls-22" d="M269.36,190.33c.05,0,.06,0,.06,0l.11-.12A.66.66,0,0,0,269.36,190.33Z"/><path class="cls-22" d="M266.6,190.49h.06c0,.09,0,.09.07.11-.13-.12.07-.09,0-.23l0,0a0,0,0,0,1,0,0c.08,0,0-.12,0-.13s.05,0,0,0l0-.06s0,0,0,0l.08,0h0l0-.1s0,0,0,0l.05-.05a.06.06,0,0,1,0,.09c.07.16,0,0,.16,0l-.05,0c0,.09.07.06.13.11s-.12-.14-.06-.19,0,0,.07,0,0,.05.08.05v.07s0-.06.07-.09.06.07.07.12-.06-.1,0-.11.12,0,.21,0,0,0,0,.08l.05-.07s0,0,0,0,0-.07.07-.09.12.13.2,0,0,.05,0,.08a.55.55,0,0,0,.18-.13l.07.06c-.05-.06,0-.13.08-.19l0-.07.09,0s0,0,0,.08l0,0s0,.07,0,.12l0-.05a.48.48,0,0,0,0,.14l0,0a.08.08,0,0,0,0,0l0,0,0,.09v0l.13.06c.09-.08.17-.21.32-.24,0,.06,0,.1,0,.18,0-.08-.11,0-.18,0s0,.05,0,.06l.14-.07c0,.06,0,0,.06.07s.1-.07.15-.11,0,.08-.07.07.09-.14.16-.06,0,0,0,0,.12,0,.1,0h0a.3.3,0,0,0,.28,0l-.1.12a.55.55,0,0,1,.37-.14c-.08,0-.25.2-.31.19s0,0,0,0,.11-.09.13-.07,0,.06-.11.12.16,0,.16,0l-.16,0a.32.32,0,0,1,.15.06.23.23,0,0,0-.16,0s0,.07,0,.1l0,0c0,.1.19.12.18.23s-.18,0-.2,0,.33.14.38.25h0l0,.08a2.21,2.21,0,0,1-.4-.28s-.05,0-.05.07-.06,0-.06-.06l0,.15c.08,0,.07.12.14.12l-.07-.17c.08,0,.23.11.21.22s-.15,0-.18,0,0,.1,0,.11l0,0c0,.06.1.1,0,.17s-.11.06-.07.07a1.22,1.22,0,0,1,.47,0,1,1,0,0,1-.15.15c-.08,0-.18-.07-.24,0l.06,0s-.07,0-.07,0,0,.12.07,0,0,0,0,.12.18.07.2.12h-.06a2.86,2.86,0,0,0-.07.28s0,0-.08,0,0,0,0,.06,0-.07-.1,0c.05,0,.07.09.09.14s0-.11,0-.16a.33.33,0,0,1,.25.21c0,.09-.07,0-.06,0s.17.15.09.28-.13,0-.18,0,.05-.1.05-.15l0,.06s0-.08,0-.1,0,.27-.09.39,0,.07.07,0v0c.06,0,.07.08.1,0s.09.12,0,.19h-.07s0,0,0-.07-.11.11,0,.15l.05-.05c0,.06.12.13.09.2s0,0,.08-.06c-.11,0,0-.17-.1-.11.1,0,.05-.08.14-.14s-.05,0,0,0h0l0,0c-.06,0-.05-.12-.08-.16s0,0,.06,0l0,0c.05,0,.1-.09.12,0v-.07a.11.11,0,0,0,0-.13s-.06-.08,0-.05l0-.11h0c0-.11-.07-.23,0-.35a.22.22,0,0,1,0-.14h0s.05-.13,0-.16c.13,0,0-.22.07-.3H270a.44.44,0,0,0,0-.19h-.06c0-.06.05-.15.05-.25a0,0,0,0,1,0,0c.13-.1-.07-.24,0-.34a.06.06,0,0,1,0-.07h0l0,0,0,0a.25.25,0,0,0,0-.08H270s0,0-.08,0l0,0c.1,0,0-.08.07-.12s0-.19-.15-.2,0,0,0,0,0-.1,0-.12l.07,0-.14,0c0-.07,0-.11.1-.1-.16-.06-.11-.08-.26-.08l0,0s-.13,0-.13,0-.43-.07-.59-.16c0,.15-.09-.06-.1.05,0,0,0-.06,0-.09s-.14-.06-.21,0,0,0,0-.07,0,0,0,0,0,0,0,0-.11.11-.12.21c-.05-.05-.08,0-.11,0s-.05-.07,0-.08-.2-.05-.21,0,0,0-.05,0a.43.43,0,0,0-.16,0h0c0,.1-.06,0-.12,0h0c-.13-.07-.06,0-.19,0v.06c0,.13-.11-.08-.19,0l0,0s-.11-.18-.16-.19,0,0,0,0c-.13-.07,0,.08-.11.1s0-.11,0-.11-.18.14-.27.08,0,.06,0,.09-.21-.08-.24,0,0,0,0,0-.16.11-.15.18c-.18-.15-.2.28-.33.15,0,0-.06.09-.09.15v0a.16.16,0,0,0,0,.2s0,0,0,0-.09.15,0,.29H266s-.14.2-.08.34h0c.06.15-.19.36,0,.42l.05.1c0-.13.1,0,.14,0s-.07.13-.08.07h0c-.12,0,0,.15-.12.15,0,.24-.06.48-.06.71l.09,0v.08s-.07,0-.07,0,.05.1.07.1-.11,0-.11,0v.05h0s.07,0,.07.11-.06,0-.06,0,0,0,0,0v.1l.07,0s0,.09.08,0c-.13.07,0,.37-.08.41a.25.25,0,0,1,0,.2s.1,0,.09,0c-.17,0-.07.12-.19.17.08,0,0,.19.13.11s-.06,0-.1.05,0,.28,0,.45c0,0,.05,0,.09,0l-.11.08s.12,0,.05.09,0,0,.05,0c-.1.31.09.64-.11,1,0,0,.05,0,.05,0s0,0,.08,0l-.08.13c.08,0,0,.14.08.16v0c.09.05.21-.08.32-.08-.1-.06.16-.16,0-.27,0,0,0,0,.07,0s-.07-.06,0-.12h0a1.75,1.75,0,0,1,.07-.42h-.06s0,0,0-.06,0,.11-.1.07c.12-.06,0-.28.13-.32s-.06,0-.06,0l0,0,0,0s.05-.06.08-.06v0c.05,0,0-.15,0-.16l0,.05c0-.16,0-.37-.06-.53h0c0-.12,0-.1,0-.23h0a.12.12,0,0,1,0-.1s.07-.06.1,0c-.05-.13,0-.06-.14-.15l0,0s-.06,0-.07-.1.07,0,.12,0c.1-.14-.1-.21,0-.28-.12-.06-.07.12-.09.09s-.1-.06-.09-.1.17-.08.16-.19v0s0-.08,0-.13,0-.07-.09-.08l0,.1c0-.06-.14-.11-.09-.21a.17.17,0,0,1,.06.06s0-.06,0-.09,0,.13.1.19-.07-.12,0-.09c-.14,0,0-.11-.09-.18h.06s0,0,0-.06l.08,0c-.07-.06.06-.12,0-.18,0,.13-.07,0-.11.08-.08-.15.15-.09.12-.26,0,0,0,.09-.06.05a.21.21,0,0,1,.06-.1c0-.11-.06,0-.09,0s0-.05,0-.1h.06c0-.13-.13,0-.08-.15l.08,0,0-.06h.07a.12.12,0,0,1,0-.15s-.11,0-.11-.06.05,0,.05-.06.08,0,0,.07l0,0s0-.1,0-.12,0,0,0,0l-.08-.11s0,0,.06,0a.43.43,0,0,1,0-.07c.05,0,.1,0,.12.06l0-.11s.06,0,.08,0-.08-.14,0-.2,0,0,0,0,.1-.09.06-.18h.1s-.13,0-.12-.09.08,0,.11,0-.06-.15,0-.14S266.61,190.47,266.6,190.49Zm.57-.28s0,.06-.05,0S267.15,190.19,267.17,190.21Zm1.35-.11s0,0-.06,0A0,0,0,0,1,268.52,190.1Zm1.33,2.73h0S269.86,192.8,269.85,192.83Zm0,.08h0s0,0,0,0S269.81,192.88,269.82,192.91Zm-4-.16h0S265.86,192.76,265.84,192.75Z"/><path class="cls-22" d="M268.36,190.18a.08.08,0,0,0,0,0A.06.06,0,0,0,268.36,190.18Z"/><polygon class="cls-22" points="266.47 190.88 266.47 190.88 266.48 190.88 266.47 190.88"/><path class="cls-22" d="M269.39,191.63a.05.05,0,0,1,0,0S269.4,191.6,269.39,191.63Z"/><path class="cls-22" d="M269.89,193.34v-.05a.05.05,0,0,1,0,0S269.89,193.32,269.89,193.34Z"/><path class="cls-22" d="M269.49,193.76s0,0,0,0h0S269.51,193.73,269.49,193.76Z"/><path class="cls-22" d="M269.69,193.38c-.05,0,0,0,0,.07h0C269.73,193.46,269.71,193.42,269.69,193.38Z"/><path class="cls-22" d="M269.66,193.45v0S269.67,193.48,269.66,193.45Z"/><path class="cls-22" d="M269.85,193s.06,0,0,0S269.82,192.92,269.85,193Z"/><polygon class="cls-22" points="269.52 193.39 269.59 193.38 269.54 193.36 269.52 193.39"/><path class="cls-22" d="M269.59,193.11l0,.06h0S269.61,193.11,269.59,193.11Z"/><path class="cls-22" d="M269.59,193.18a0,0,0,0,0,0,0Z"/><polygon class="cls-22" points="269.51 193.31 269.52 193.3 269.53 193.26 269.51 193.31"/><path class="cls-22" d="M269.64,192.49v-.06a0,0,0,0,0,0,0S269.62,192.5,269.64,192.49Z"/><path class="cls-22" d="M269.46,192.67s0,0,.05,0h-.08Z"/><path class="cls-22" d="M269.45,192.49s-.05-.1-.05,0S269.43,192.54,269.45,192.49Z"/><polygon class="cls-22" points="269.61 191.54 269.61 191.56 269.74 191.56 269.61 191.54"/><path class="cls-22" d="M269.37,190.69c0,.07.07,0,0,.08s0-.05.06,0S269.45,190.67,269.37,190.69Z"/><path class="cls-22" d="M269.46,190.74l0,0Z"/><polygon class="cls-22" points="265.79 195.69 265.76 195.74 265.8 195.71 265.79 195.69"/><path class="cls-22" d="M265.88,195.78h-.08l.07,0S265.86,195.79,265.88,195.78Z"/><path class="cls-22" d="M267.3,190.37v0s0,0,0,0Z"/><polygon class="cls-22" points="266.82 190.4 266.83 190.39 266.78 190.33 266.82 190.4"/><path class="cls-22" d="M266.68,190.66s0,0,0,0S266.6,190.62,266.68,190.66Z"/><path class="cls-22" d="M276.78,180.24s0,0,0,0S276.78,180.23,276.78,180.24Z"/><polygon class="cls-22" points="277.63 180.31 277.61 180.33 277.77 180.32 277.63 180.31"/><path class="cls-22" d="M278.69,180.56c-.2-.14-.36-.07-.58-.15l0,0-.06.06A5.26,5.26,0,0,1,278.69,180.56Z"/><path class="cls-22" d="M279.69,181c-.12-.06.09,0-.19-.06l.05,0Z"/><path class="cls-22" d="M279.55,181c-.14,0,.15.06,0,0Z"/><path class="cls-22" d="M280.16,181.08h-.11c.09,0,.29.1.26.1C280.47,181.2,280.36,181.16,280.16,181.08Z"/><path class="cls-22" d="M280.14,181h-.06C280.13,181,280.16,181,280.14,181Z"/><path class="cls-22" d="M280,181h.11c-.06,0-.15-.08-.06,0S280,181,280,181Z"/><path class="cls-22" d="M279.82,181c-.15-.05-.3-.1-.2-.11C279.33,180.8,279.5,180.9,279.82,181Z"/><path class="cls-22" d="M278.62,180.45l-.13-.06-.05,0S278.66,180.49,278.62,180.45Z"/><path class="cls-22" d="M281.51,181.44l-.39-.17h-.05C281.19,181.32,281.38,181.38,281.51,181.44Z"/><path class="cls-22" d="M281.12,181.27l.06,0C281,181.2,281,181.23,281.12,181.27Z"/><path class="cls-22" d="M279.86,180.84a.19.19,0,0,1-.09,0,.39.39,0,0,0,.14,0Z"/><polygon class="cls-22" points="281.7 181.34 282 181.5 281.52 181.25 281.7 181.34"/><path class="cls-22" d="M281.21,181c.22.11.12,0,.3.11-.17-.11-.4-.23-.59-.34A.76.76,0,0,1,281.21,181Z"/><path class="cls-22" d="M280.62,180.62l.3.16Z"/><path class="cls-22" d="M281.5,181.32s.15.06.12,0l-.18-.06Z"/><path class="cls-22" d="M281.43,181.28h0l-.13-.09Z"/><path class="cls-22" d="M281.51,181.33h0S281.47,181.32,281.51,181.33Z"/><path class="cls-22" d="M280.47,181s.06-.05-.3-.18C280.24,180.91,280.46,181,280.47,181Z"/><path class="cls-22" d="M281.12,181.18l-.24-.07a.9.9,0,0,1,.2.1Z"/><polygon class="cls-22" points="281.11 181.15 281.13 181.17 281.12 181.18 281.21 181.21 281.18 181.19 281.11 181.15"/><path class="cls-22" d="M280.76,180.78l-.36-.21a3,3,0,0,0,.24.18C280.71,180.78,280.87,180.86,280.76,180.78Z"/><path class="cls-22" d="M281.07,181l0,0Z"/><polygon class="cls-22" points="279.51 179.94 279.5 179.95 279.53 179.95 279.51 179.94"/><path class="cls-22" d="M280.62,180.75a1.43,1.43,0,0,0,.23.14l-.21-.14S280.58,180.73,280.62,180.75Z"/><path class="cls-22" d="M280.27,180.41l0,.06S280.33,180.43,280.27,180.41Z"/><path class="cls-22" d="M281.08,181h0S281.1,181,281.08,181Z"/><path class="cls-22" d="M281.08,181l-.23-.12.19.11Z"/><path class="cls-22" d="M278.6,179.71c.09,0,.32.12.31.17.18.09.54.14.59.07a1.27,1.27,0,0,1-.31-.14s.18.2,0,.1-.1-.09-.14-.15-.38-.15-.48-.12l.17.09S278.59,179.69,278.6,179.71Z"/><path class="cls-22" d="M279.81,180.17l.08.05a.27.27,0,0,1-.07-.14l-.29-.13.32.24Z"/><path class="cls-22" d="M280.2,180.43a2.29,2.29,0,0,0-.52-.2,4.64,4.64,0,0,0,.44.23c-.34-.22.19.09.06,0l.22.14-.09-.1h0l-.08,0c-.06-.05,0,0,.08,0l0,0h0l-.42-.26Z"/><path class="cls-22" d="M279.86,180.66l.06,0Z"/><path class="cls-22" d="M280.1,180.75s.09.05,0,0a1.12,1.12,0,0,1-.18-.08s0,0,.25.12h0c.19.06.66.24.67.25Z"/><path class="cls-22" d="M280.4,180.73l-.33-.19H280l.1,0A.94.94,0,0,0,280.4,180.73Z"/><polygon class="cls-22" points="279.54 179.93 279.7 179.97 279.37 179.83 279.54 179.93"/><polygon class="cls-22" points="279.16 179.67 279.26 179.68 279.11 179.61 279.16 179.67"/><path class="cls-22" d="M265.81,176.5l-.05,0A.11.11,0,0,0,265.81,176.5Z"/><path class="cls-22" d="M266.21,176.32v0S266.19,176.32,266.21,176.32Z"/><path class="cls-22" d="M273.39,175.62c0-.09-.08-.2-.11-.15v.06A.35.35,0,0,1,273.39,175.62Z"/><path class="cls-22" d="M269.31,174.45h0l0-.07Z"/><path class="cls-22" d="M269.36,174.67l-.12,0Z"/><path class="cls-22" d="M263.64,177.55l0,.08C263.7,177.59,263.64,177.58,263.64,177.55Z"/><path class="cls-22" d="M276.53,177.85a.6.6,0,0,0-.13-.14C276.45,177.79,276.49,177.87,276.53,177.85Z"/><path class="cls-22" d="M265.72,175.91s0,0,0,.05S265.74,175.92,265.72,175.91Z"/><path class="cls-22" d="M276.21,177.58l0,0,.16.09A.33.33,0,0,0,276.21,177.58Z"/><path class="cls-22" d="M258.92,179.78h0Z"/><path class="cls-22" d="M261.4,180.34h0Z"/><path class="cls-22" d="M277.92,178.77c.05,0,0,0,0,0Z"/><path class="cls-22" d="M278,179.1h0Z"/><path class="cls-22" d="M275.56,177.53h0S275.56,177.54,275.56,177.53Z"/><path class="cls-22" d="M278,178.84a.12.12,0,0,0-.05-.05Z"/><path class="cls-22" d="M278,178.81l0,0S278,178.83,278,178.81Z"/><path class="cls-22" d="M277.86,178.73l.07.06v0Z"/><path class="cls-22" d="M259.82,178.93h0C259.76,179,259.79,179,259.82,178.93Z"/><polygon class="cls-22" points="271.86 175.23 271.87 175.23 271.86 175.22 271.86 175.23"/><path class="cls-22" d="M271.67,175.14a.21.21,0,0,1,.19.08l0-.16Z"/><path class="cls-22" d="M264.86,177H265c-.12.14-.25.17-.1.17-.05-.16.5-.25.45-.41h.1l0,0c.2,0,.07-.16.3-.24s.14,0,.1,0l.15-.11c.05,0,.05,0,0,0l.25-.13h0l.12-.15c.08,0,0,0,0,0l.13-.1c.07,0,0,.1-.13.14.21.09.1-.09.43-.14l-.12.09c.12,0,.21,0,.39-.06,0,0-.37,0-.23-.1a.35.35,0,0,0,.17-.1c0,.05.1,0,.2,0l0,.07c.1-.07.07-.11.12-.17a.22.22,0,0,1,.23,0c.2-.08-.18,0,0-.15a1.1,1.1,0,0,0,.44-.27c.13,0,0,0,.06,0l.07-.11s0,0,0,0,0-.07.1-.16.32,0,.44-.19c0,0,0,.05,0,.07a1.81,1.81,0,0,0,.31-.31l.18,0c-.14,0,0-.14.07-.25h-.13l.19-.14s0,0,0,.08l0,0c.09,0,.07,0,0,.12h-.1c0,.07,0,.14,0,.18l.06-.06s0,0,0,0,0,0,.05-.06l.08.06v0l.28-.07a.85.85,0,0,1,.61-.4c-.09.06,0,.11,0,.18-.08-.08-.22,0-.37.08.08,0,.08,0,.06,0a.86.86,0,0,1,.24-.11c0,.06.06,0,.12.07,0-.13.19-.05.31,0s-.06.07-.17,0c.09.13.23-.07.33.09,0,0,0,0-.06,0s.25.15.18.15l0,0c.2.16.63.44.72.38l-.12.09.57,0c-.08,0-.08.32-.28.24a.56.56,0,0,0,.21.15s0-.17,0-.14.06.1.17.28c0-.05.1-.13.17-.07s-.07.12-.11.11l.28,0c-.06,0-.08.09-.06.15s.17.13.24.15l-.07-.08c.21.17.33,0,.55.15,0,0-.17.1-.06.19a1.13,1.13,0,0,1,.65,0v.06l.18.07a3.69,3.69,0,0,1-.74,0c.06.08,0,.05.12.14s-.1,0-.14,0l.28.23c0-.08.27.09.3,0l-.37-.15c0-.08.32-.06.52.09,0,.07-.12.1-.14.12a.55.55,0,0,1,.24.13l-.11,0c.09.11.25,0,.34.21s.08.18.12.15a.53.53,0,0,1,.22-.41,2,2,0,0,1,.23.33c0,.12-.22.06-.19.16a.17.17,0,0,1,.1,0s-.06,0,0,.11.22.16.09,0c.12,0,.11.09.23.18,0-.08.22-.08.34,0a.08.08,0,0,0,0,.07c.21.16.31.27.51.42,0,0,.09.12,0,.12a.3.3,0,0,1,.14,0c.08.15-.14-.08-.1,0,0,0,.2.06.31.1s-.2-.16-.31-.2c.06-.08.28-.06.52.05s0,.11.08.11c.3.24.37,0,.59.29s-.07.11-.07.17c-.16-.08-.19-.18-.29-.25l.1.11a.35.35,0,0,1-.2-.12c.06.12.53.39.75.61.05,0,.14.05.12,0l-.08-.05c0-.09.19,0,.1,0a1,1,0,0,1,.41.21v.08s-.08-.11-.13-.12.17.25.34.25l-.09-.13a2.79,2.79,0,0,1,.64.33c0-.08-.05,0-.09-.16,0,.14-.55-.39-.45-.17a.38.38,0,0,0-.15-.2.55.55,0,0,1-.12-.16s0,.07-.09,0h0a.13.13,0,0,1,0,.07c-.09,0-.26-.11-.34-.13s.05,0,0,0l-.12,0c0-.05-.11-.19.06-.11l-.14-.1a.67.67,0,0,0-.25-.2c-.06-.06-.2-.07-.12-.06l-.23-.13h0a2.49,2.49,0,0,1-.68-.48,1,1,0,0,1-.27-.18v-.05c-.1,0-.25-.24-.32-.22,0-.18-.42-.34-.57-.47l-.05.05a1.81,1.81,0,0,0-.37-.22l0,.05c-.14-.05-.28-.25-.47-.37,0,0,.07,0,.09.06-.15-.26-.52-.26-.67-.48a.26.26,0,0,1-.13-.08h0l-.06-.08.05.07-.17-.09v-.07h0c0-.06-.06,0-.06,0l-.09,0c0-.11-.18-.08-.18-.21s-.31-.18-.41-.11,0,0,0,0a.46.46,0,0,0-.19-.13V175l-.2,0c-.06-.1-.08-.14,0-.13-.26-.07-.18-.09-.41-.14l0,0c-.07-.05-.21-.06-.22-.12a1.49,1.49,0,0,0-.42-.36,2.12,2.12,0,0,0-.77-.37c.09.15-.26-.07-.27.06,0,0-.11,0,0-.08-.26.07-.41,0-.53.2,0,0,0-.07,0-.08s-.06.06-.09.05,0,0,.05-.07c-.23.11-.2.22-.17.31a.22.22,0,0,0-.22.14c-.05,0-.13,0,0-.08-.07,0-.45.18-.42.26s-.1,0-.12.06a3.41,3.41,0,0,0-.33.17h0c0,.11-.12.08-.25.16h0c-.32.08-.11.09-.43.16l0,0c0,.13-.29.06-.43.19h.07c-.07.08-.33,0-.43,0s0,0,0,0c-.28,0,0,.08-.17.18s0-.11-.13-.06-.29.29-.49.3c.05,0,.1,0,0,.09s-.4.05-.47.2a.05.05,0,0,1,0,0,2.69,2.69,0,0,0-.34.27c-.17-.14-.57.38-.65.2l-.3.15v0a.55.55,0,0,0-.3.22c-.05,0,0,0,0,0a.93.93,0,0,0-.53.3l-.05,0c-.05.06-.45.09-.7.28,0,0,0,0,0,0-.29.2-.83.17-.86.42l-.19.14c.28-.1,0,.11.13.09-.11.06-.31.06-.18,0h0c0-.12-.35.11-.37,0-.54.22-1.08.37-1.59.57l.09.06-.18.06c-.05,0-.09,0,0-.09-.08,0-.2.13-.19.15-.26.06.06-.14,0-.11l-.1,0h0a.39.39,0,0,1-.22.16c-.1,0-.07,0-.11,0l-.06,0-.22.08.11,0c-.08.07-.21.08-.08.11a.56.56,0,0,0-.23,0,3.43,3.43,0,0,0-.42.14c-.29.1-.54.2-.64.22a1.7,1.7,0,0,1-.52.24c.1,0,.36,0,.16,0a2.38,2.38,0,0,0-.76.13.4.4,0,0,1-.16.07c.09-.06.65.15.7,0,.13.05-.14,0-.11.08.52.06.77.24,1.4.31,0,0,0-.06.1-.08a.93.93,0,0,0,.22.14c.12,0,.13-.11.3,0,0,0-.05,0,0,0,.76.16,1.56,0,2.33.13-.11,0,0,0,0-.05s0,0,0-.08l.32.07c.06-.09.35,0,.38-.11l-.1,0c.13-.1-.2-.19-.19-.31-.14.11-.4-.14-.64,0-.06,0,0,0,0-.07a.31.31,0,0,1-.27.05h0a5.76,5.76,0,0,1-1-.07l0,.06a.71.71,0,0,1-.16,0c-.11.08.27,0,.17.1-.13-.12-.67,0-.74-.17s0,.08-.11.07l0,0,0,0c-.07,0-.08-.06-.07-.09h.05c-.05,0-.16,0-.17,0l0,0c-.22,0-.3,0-.71-.06l-.08,0c-.26,0-.21,0-.05-.07l0,0h0c-.06,0-.05,0,0,0s.25,0,.3,0-.06,0-.15-.1h.13s-.08,0,0-.09.17,0,.16.07c.16,0,.17,0,.21-.08a.1.1,0,0,1,.15,0c.07-.16-.22,0-.17,0s0-.11.14-.14.23.09.48,0l-.05,0c.11,0,.17-.12.31-.11s.15-.06.14-.16l-.23.12c.13-.08.21-.23.45-.27a.38.38,0,0,1-.11.11c.08,0,.12-.07.19-.07s-.27.13-.39.26c.09,0,.25-.17.21,0,.06-.17.26-.09.4-.25v.06a.41.41,0,0,1,.12-.09l-.07.11c.12-.11.29,0,.41-.14-.27.11-.08,0-.22,0,.32-.21.26.06.63-.12-.05,0-.21,0-.13,0a.69.69,0,0,1,.24,0c.25-.11-.07,0,0-.12s.11-.07.22-.14l0,.05c.3-.08,0-.14.31-.21l-.08.12.13-.07v.07a.64.64,0,0,1,.33-.16c-.05,0,0-.1.1-.16s0,.07.15,0a.13.13,0,0,1-.15.1s0,0,0,.07a.87.87,0,0,0,.31-.12l-.08,0,.23-.19c.05,0,0,0,0,.06s.08-.07.15-.11,0,.1-.07.17l.23-.16s.15,0,.12,0c.15,0,.3-.23.5-.28a.16.16,0,0,1,.06,0,1.53,1.53,0,0,0,.53-.23l.15,0c.15-.09-.2,0,.05-.18s.1,0,.18,0a.63.63,0,0,1,.4-.25A1.09,1.09,0,0,1,264.86,177Zm1.93-1s-.09.1-.13.08S266.72,176,266.79,176Zm2.85-1.6s-.06,0-.12,0Zm7.75,4h0C277.32,178.38,277.34,178.41,277.39,178.45Zm.14.13s0,0,0,0a.16.16,0,0,1-.09,0S277.47,178.56,277.53,178.58Zm-18.42.19h0C259.08,178.82,259.09,178.79,259.11,178.77Z"/><path class="cls-22" d="M269.36,174.65l0,0S269.32,174.65,269.36,174.65Z"/><path class="cls-22" d="M263.65,177.54h0Z"/><path class="cls-22" d="M274.79,177.28s0-.05,0-.07S274.75,177.24,274.79,177.28Z"/><path class="cls-22" d="M278.54,179.17l-.19-.11a.35.35,0,0,1,.14.12S278.48,179.13,278.54,179.17Z"/><path class="cls-22" d="M279.07,180l.07,0,.08,0C279.14,180,279,180,279.07,180Z"/><path class="cls-22" d="M278.49,179.38c-.05,0,.05.07.16.14h0C278.76,179.51,278.61,179.44,278.49,179.38Z"/><path class="cls-22" d="M278.67,179.53l.09.06C278.81,179.6,278.73,179.57,278.67,179.53Z"/><path class="cls-22" d="M277.75,178.7s.06,0,.06,0S277.54,178.6,277.75,178.7Z"/><polygon class="cls-22" points="278.36 179.49 278.41 179.45 278.31 179.44 278.36 179.49"/><path class="cls-22" d="M277.83,179.06l.1.1H278C277.91,179.11,277.84,179.05,277.83,179.06Z"/><path class="cls-22" d="M278,179.16a.35.35,0,0,0,.09.06Z"/><polygon class="cls-22" points="278.19 179.4 278.17 179.36 278.1 179.31 278.19 179.4"/><path class="cls-22" d="M276.62,178.2l-.13-.07s0,0,.05.06S276.63,178.23,276.62,178.2Z"/><path class="cls-22" d="M276.9,178.6s0,0,0-.08l-.05.06Z"/><path class="cls-22" d="M276.53,178.36s-.22-.07-.06,0S276.63,178.46,276.53,178.36Z"/><polygon class="cls-22" points="274.72 176.97 274.76 177 274.82 176.89 274.72 176.97"/><path class="cls-22" d="M272.91,176.07c.13.13.08,0,.19.09s-.09-.11,0-.1C273,176,272.92,176,272.91,176.07Z"/><path class="cls-22" d="M273.06,176.06h0Z"/><polygon class="cls-22" points="261.82 180.39 261.94 180.41 261.86 180.37 261.82 180.39"/><path class="cls-22" d="M262,180.29l0,.08.06-.08A.27.27,0,0,1,262,180.29Z"/><path class="cls-22" d="M267.15,176v0s0,0-.1,0Z"/><polygon class="cls-22" points="265.71 176.64 265.74 176.63 265.66 176.58 265.71 176.64"/><path class="cls-22" d="M264.56,177.27l.15-.08C264.61,177.25,264.51,177.19,264.56,177.27Z"/><path class="cls-22" d="M269.36,182.37s0,0,0,.06S269.36,182.36,269.36,182.37Z"/><polygon class="cls-22" points="269.73 182.27 269.73 182.29 269.78 182.24 269.73 182.27"/><path class="cls-22" d="M270.08,182.28c0-.09-.13,0-.19,0v0l0,.07C269.93,182.3,270,182.26,270.08,182.28Z"/><path class="cls-22" d="M270.26,182.48s0,0-.05,0h.05Z"/><path class="cls-22" d="M270.22,182.48s0,0,0,0Z"/><path class="cls-22" d="M270.39,182.47l-.05,0s.05,0,0,0S270.42,182.5,270.39,182.47Z"/><path class="cls-22" d="M270.44,182.4l0,0S270.42,182.43,270.44,182.4Z"/><path class="cls-22" d="M270.36,182.44l.05,0s0,0,0,0S270.38,182.42,270.36,182.44Z"/><path class="cls-22" d="M270.33,182.43s-.06,0,0-.07S270.24,182.44,270.33,182.43Z"/><path class="cls-22" d="M270.1,182.19l0,0,0,0S270.1,182.22,270.1,182.19Z"/><path class="cls-22" d="M270.69,182.52s0-.05,0-.07l0,0S270.69,182.5,270.69,182.52Z"/><path class="cls-22" d="M270.67,182.45l.05,0S270.67,182.43,270.67,182.45Z"/><polygon class="cls-22" points="270.45 182.31 270.36 182.37 270.47 182.31 270.45 182.31"/><polygon class="cls-22" points="270.89 182.53 270.86 182.58 270.91 182.51 270.89 182.53"/><path class="cls-22" d="M271,182.53s0,.06,0,.08a.13.13,0,0,0,.09-.06S271.06,182.56,271,182.53Z"/><path class="cls-22" d="M271.17,182.51l-.05,0A.1.1,0,0,0,271.17,182.51Z"/><path class="cls-22" d="M270.81,182.43s0,0,0,.06l0-.06Z"/><path class="cls-22" d="M270.83,182.43Z"/><path class="cls-22" d="M270.81,182.43Z"/><path class="cls-22" d="M270.59,182.36s.1-.06,0-.11S270.64,182.32,270.59,182.36Z"/><path class="cls-22" d="M270.78,182.36h0a.05.05,0,0,1,0,.05Z"/><polygon class="cls-22" points="270.81 182.35 270.79 182.36 270.81 182.37 270.81 182.35"/><path class="cls-22" d="M271.08,182.46s.05,0,.08,0h-.1S271,182.46,271.08,182.46Z"/><path class="cls-22" d="M271,182.44h0Z"/><polygon class="cls-22" points="271.46 182.45 271.45 182.44 271.45 182.45 271.46 182.45"/><path class="cls-22" d="M271.06,182.41s0,0-.05,0h.05S271.07,182.4,271.06,182.41Z"/><path class="cls-22" d="M271.26,182.49l0,0S271.25,182.51,271.26,182.49Z"/><path class="cls-22" d="M271,182.45h0S271,182.46,271,182.45Z"/><path class="cls-22" d="M271,182.45s0,0,0,0l0,0Z"/><path class="cls-22" d="M271.56,182.11a.08.08,0,0,1-.13,0c-.05,0,0,.19,0,.29s0,0,.06-.07-.12-.07-.07-.11.06,0,.09.05.1-.09.09-.18l-.07,0S271.58,182.12,271.56,182.11Z"/><path class="cls-22" d="M271.35,182.43h0a.17.17,0,0,1,.08.07s.05,0,.05-.05l-.11,0Z"/><path class="cls-22" d="M271.22,182.43c0-.05.08-.07,0-.13s0,0-.09.06c.11,0,0,0,.05.06h-.06l.06,0h0v0s0,0,0,0h0l.11,0A.16.16,0,0,0,271.22,182.43Z"/><path class="cls-22" d="M270.69,182.14h0S270.7,182.14,270.69,182.14Z"/><path class="cls-22" d="M270.73,182.17s0,0,0,0,0,0,0,0-.06,0,0,.07h0s.1.09.09.1A.39.39,0,0,0,270.73,182.17Z"/><path class="cls-22" d="M271,182.29l.09,0,0-.05v0S271,182.27,271,182.29Z"/><polygon class="cls-22" points="271.46 182.47 271.45 182.53 271.51 182.45 271.46 182.47"/><polygon class="cls-22" points="271.58 182.47 271.58 182.52 271.61 182.49 271.58 182.47"/><path class="cls-22" d="M272.83,186.43l0,0Z"/><path class="cls-22" d="M273,186.42v0S273,186.42,273,186.42Z"/><path class="cls-22" d="M273.2,183.58s-.1.1-.05.09l.05,0A.06.06,0,0,1,273.2,183.58Z"/><polygon class="cls-22" points="273.88 185.46 273.89 185.45 273.84 185.43 273.88 185.46"/><path class="cls-22" d="M274.1,185.45a.11.11,0,0,0,0,.06Z"/><path class="cls-22" d="M271.79,186.57l0,.06C271.81,186.62,271.79,186.6,271.79,186.57Z"/><path class="cls-22" d="M272.79,182.5l.07,0S272.8,182.45,272.79,182.5Z"/><path class="cls-22" d="M272.86,185.86l0,0S272.87,185.87,272.86,185.86Z"/><path class="cls-22" d="M272.89,182.53h0s0,0,0,0S272.87,182.57,272.89,182.53Z"/><path class="cls-22" d="M269.61,184.17h0Z"/><path class="cls-22" d="M270.17,183.07v0Z"/><path class="cls-22" d="M272.05,182.51s0,0,0,0Z"/><path class="cls-22" d="M271.94,182.29s0,0,0,0S272,182.29,271.94,182.29Z"/><path class="cls-22" d="M273.2,182.31Z"/><path class="cls-22" d="M272,182.49h0Z"/><path class="cls-22" d="M272,182.51h0S272,182.52,272,182.51Z"/><path class="cls-22" d="M272.09,182.51h0Z"/><path class="cls-22" d="M269.91,186.3h0S269.89,186.29,269.91,186.3Z"/><polygon class="cls-22" points="273.87 184.11 273.86 184.11 273.86 184.11 273.87 184.11"/><path class="cls-22" d="M273.92,184.19c-.07,0-.07-.05-.06-.08l-.15.06Z"/><path class="cls-22" d="M272.37,186.48l.07.05c-.07.08-.13.06-.06.12,0-.17.24,0,.24-.2l0,0h0c.09.07.05-.13.16-.11s.06,0,0,.05l.08-.05s0,0,0,0l.13,0h0a.22.22,0,0,1,.07-.09s0,0,0,0l.07,0s0,.09-.07.08c.07.17.05,0,.19.05l-.06,0c0,.09.1.06.17.11s-.15-.14-.08-.19a.06.06,0,0,0,.08,0c0,.06,0,0,.11,0v.07c.09,0,.07-.06.12-.1s.13.06.18.1-.15-.08,0-.11a.4.4,0,0,0,.31-.08c.11,0,0,0,.09.07v-.07a.09.09,0,0,1,0,0s0,0,0,0-.08-.06-.11-.14.11-.1,0-.27c0,0,.05,0,.09,0a.91.91,0,0,0-.19-.28l0-.11c-.05.08-.14,0-.2,0l-.06.06-.06-.09s0,0,.08,0h0s.08,0,.12,0l0,0a.43.43,0,0,0,.16,0l0,0h0l0,0,.08,0h0l0-.14a.79.79,0,0,1-.31-.27c.07,0,.11,0,.18,0s.06.1.06.18a0,0,0,0,1,.05,0L274,185c.06,0,0,0,.06-.08s-.1-.08-.15-.13.09,0,.09.06c.08-.09-.16-.07-.1-.15s0,0,0,0,0-.13,0-.12v0c0-.11-.06-.33-.17-.33h.15l-.39-.13c.1,0,.3-.1.36,0a.1.1,0,0,0,0-.11s-.12.07-.14,0,.05,0,.12-.15-.16,0-.16,0,.13,0,.15,0l-.16-.08s.12,0,.15-.05,0-.09,0-.11l0,0c0-.13-.22-.08-.23-.2s.18,0,.19-.06-.36-.06-.44-.15l0,0-.06-.07a2.62,2.62,0,0,1,.46.19s.05,0,0-.09.06,0,.07,0v-.15c-.08,0-.11-.11-.18-.09l.12.15c-.08,0-.25-.05-.26-.16s.15,0,.18,0-.07-.09-.05-.1l.05,0c0-.07-.13-.08-.06-.17s.09-.09,0-.09a1.14,1.14,0,0,1-.45.11.7.7,0,0,1,.1-.19c.07-.06.19,0,.25,0l-.07,0s.07,0,0-.07,0-.16-.08,0c0-.07,0-.09-.05-.17s-.18,0-.23,0,0-.05,0-.06a.34.34,0,0,0-.26-.15s-.06-.06,0-.09,0,0-.07,0,.07,0,0-.1-.09.07-.14.1.1,0,.16,0a.33.33,0,0,1-.21.25c-.09,0,0-.07-.05,0-.17,0-.16.18-.29.09s0-.13,0-.18.11,0,.16,0l-.06,0a.08.08,0,0,1,.1,0c0-.06-.29,0-.42-.08s-.06,0,0,.07h0c0,.05-.08.07,0,.1s-.12.09-.2.06v-.08s.05,0,.07,0-.12-.11-.16,0l.06.05c-.06,0-.13.12-.2.09s0,0,.06.08c0-.11.18,0,.12-.11,0,.11.08,0,.14.14s0,0,0,0v0h0a.05.05,0,0,1,0,0c0-.05.12-.05.15-.08s0,0,0,.06l.05,0c0,.05.09.09,0,.12h.07a.14.14,0,0,0,.14,0s.09-.06.06,0l.11,0h0c.1,0,.29-.08.31,0s0,0,.05,0l0,0s0,.06,0,0,0,0,0,.15H273a.55.55,0,0,0,.08.18l.05,0c.06.06,0,.17,0,.27s0,0,0,0c-.1.14.14.23.07.36s0,0,0,.06h0l0,0s0,0,0,0a.59.59,0,0,0,0,.08l-.06,0h0s0,0,.08,0l0,0c-.09,0,.05.07-.05.13.06,0,.07.14.18.14s0,0,0,0,0,.07,0,.09l-.07,0,.11.06c0,.05-.06.08-.13,0,.11.09.05.08.16.16h0s.08.08,0,.1.05.37,0,.58c.14-.07,0,.1.07.08s0,0-.08,0,0,.15.08.2-.06,0-.07,0,0,0,0,0,0,0,0,0,.13.09.23.08,0,.08.05.1-.06.06-.08,0,0,.13.06.15,0,0,0,0a.34.34,0,0,0,0,.1h0c.11.08,0,.06.05.11h0c-.12,0,0,0-.15,0l0,0c.09.12-.15-.06-.16,0l0,0c0,.05-.15-.16-.15-.18s0,0,0,0,0,.08-.06.11,0-.11,0-.12-.16.15-.25.08,0,.06,0,.09-.18-.11-.22,0,0,0,0,0-.15.06-.17.11c-.06-.2-.29.13-.3-.06l-.15,0v0a.14.14,0,0,0-.15.09s0,0,0,0-.15,0-.26.08V186s-.21-.08-.34,0l0,0c-.15.08-.38-.15-.42.08l-.09.06c.13,0,0,.1,0,.14s-.13-.06-.07-.08h0c0-.12-.16,0-.17-.11a.69.69,0,0,1-.53-.09l0,.09s0,0,0,0,0-.06.06,0,0,0,0,0l-.07,0c0-.07.11,0,.1-.06h0s-.08,0-.08,0,.05,0,.05,0,0,0,0,0v-.07l-.07,0s0-.08-.08,0c.12-.06.05-.38.09-.42a.31.31,0,0,1-.05-.21s-.09,0-.08,0c.17,0,.07-.12.19-.18-.08,0,0-.19-.13-.11s.07,0,.11,0,0-.3,0-.47c0,0-.05,0-.09,0l.11-.09s-.12,0,0-.09,0,0-.06,0c.11-.33-.08-.67.13-1,0,0-.05,0-.05,0s-.05,0-.08,0l.08-.14c-.08,0,0-.15-.08-.17v.05c-.09-.06-.2.08-.32.07.1.07-.16.17,0,.28,0,0,0,0-.07,0s.06.06,0,.12h0a1.52,1.52,0,0,1-.08.44l.06,0s0,0,0,.07,0-.11.1-.07c-.12,0,0,.29-.14.33s.07,0,.07.05h0l0,0a.1.1,0,0,1-.09.06s0,0,0,0,0,.16,0,.17l0-.06a2.59,2.59,0,0,0,.05.56h0c.05.13,0,.1,0,.24h0a.13.13,0,0,1,0,.1s-.06.07-.1,0c.06.14.05.07.15.17l0,0s.06,0,.08.1-.08.05-.13,0c-.1.15.1.22-.05.3.13.07.08-.14.1-.1s.1.06.09.11-.18.07-.14.26c0,0,0,0,0,0s.07.11.06.2,0,.1.14.05l-.1-.12c0,.05.12.06.17.1a.16.16,0,0,1,.07.07h-.1s.07,0,.09.08-.1,0-.16-.06a.31.31,0,0,0-.11-.08s.06.08.09.1,0,0,0,0c.14,0,.14.14.3.1l0,.05s.07,0,.1,0l-.09.06c.12,0,.21.1.29.07-.18,0,0-.07-.1-.12.21-.06.11.17.33.13,0,0-.11,0-.06-.06a.2.2,0,0,1,.11.06c.12,0,0-.06,0-.1s.06,0,.11-.06v.06c.14,0,0-.13.16-.09l-.05.09.06,0v.07c.07-.06.09,0,.16,0a.09.09,0,0,1,.06-.12s0,.06.07.05,0,.08-.08,0,0,0,0,.06.11,0,.14,0h0l.12-.1s0,0,0,.06,0,0,.07,0,0,.1-.05.12l.12-.06s.06.05.05.07.15-.1.24-.07,0,0,0,0,.16.06.25,0l.06.08c.08,0-.08-.11,0-.15s0,.07.08.1.11-.15.2-.08S272.4,186.47,272.37,186.48Zm.94-.11s-.05.06-.07,0S273.27,186.35,273.31,186.37Zm.66-1.07s0,0,0,.06A.07.07,0,0,1,274,185.3Zm-1.64-2.83Zm-.08,0a0,0,0,0,0,0,0s0,0,.05,0S272.27,182.43,272.25,182.44Zm-2.1,3.45h0S270.13,185.89,270.15,185.89Z"/><path class="cls-22" d="M274.08,185.45h0S274.07,185.46,274.08,185.45Z"/><polygon class="cls-22" points="271.79 186.56 271.79 186.56 271.79 186.57 271.79 186.56"/><path class="cls-22" d="M273.57,182.57l0,0S273.57,182.6,273.57,182.57Z"/><path class="cls-22" d="M271.8,182.53h.05s0,0-.05,0S271.81,182.53,271.8,182.53Z"/><path class="cls-22" d="M271.34,182.14s0,0,0,0v0S271.38,182.15,271.34,182.14Z"/><path class="cls-22" d="M271.75,182.33c0-.05,0,0-.07,0h0C271.67,182.37,271.71,182.35,271.75,182.33Z"/><path class="cls-22" d="M271.67,182.3h0S271.65,182.31,271.67,182.3Z"/><path class="cls-22" d="M272.14,182.47s0,.07,0,.05S272.24,182.44,272.14,182.47Z"/><polygon class="cls-22" points="271.73 182.16 271.74 182.22 271.76 182.18 271.73 182.16"/><path class="cls-22" d="M272,182.22l-.06,0a0,0,0,0,1,0,0S272,182.24,272,182.22Z"/><path class="cls-22" d="M272,182.22h0Z"/><polygon class="cls-22" points="271.81 182.15 271.83 182.16 271.87 182.17 271.81 182.15"/><path class="cls-22" d="M272.67,182.26l.07,0s0,0,0,0S272.66,182.23,272.67,182.26Z"/><path class="cls-22" d="M272.48,182.08s0,0,0,0v-.08Z"/><path class="cls-22" d="M272.67,182.07s.1-.06,0-.06S272.61,182.05,272.67,182.07Z"/><polygon class="cls-22" points="273.38 182.71 273.38 182.7 273.25 182.72 273.38 182.71"/><path class="cls-22" d="M273.84,183.52c0-.08-.08,0-.06-.08s0,.06,0,.05S273.76,183.56,273.84,183.52Z"/><path class="cls-22" d="M273.74,183.49l0,0Z"/><polygon class="cls-22" points="270.24 182.89 270.26 182.84 270.22 182.87 270.24 182.89"/><path class="cls-22" d="M270.15,182.79h.08l-.08,0A0,0,0,0,1,270.15,182.79Z"/><path class="cls-22" d="M273.46,186.52v0s0,0,0,0Z"/><polygon class="cls-22" points="272.77 186.51 272.79 186.52 272.76 186.44 272.77 186.51"/><path class="cls-22" d="M272.21,186.65s.05,0,.07,0S272.2,186.56,272.21,186.65Z"/><path class="cls-22" d="M282.08,197s0-.05,0-.06S282.08,197,282.08,197Z"/><polygon class="cls-22" points="281.42 197.13 281.43 197.11 281.33 197.16 281.42 197.13"/><path class="cls-22" d="M280.79,197.13c.06.09.23,0,.34,0l0,0,.05-.07A2.08,2.08,0,0,1,280.79,197.13Z"/><path class="cls-22" d="M280.46,196.94s-.07,0,.08,0h-.08Z"/><path class="cls-22" d="M280.52,196.94c.07,0,0,0,0,0Z"/><path class="cls-22" d="M280.22,197l.08,0s-.09,0-.06,0S280.17,196.92,280.22,197Z"/><path class="cls-22" d="M280.14,197h0S280.16,197,280.14,197Z"/><path class="cls-22" d="M280.28,197l-.1,0s0,0,0,0S280.23,197,280.28,197Z"/><path class="cls-22" d="M280.33,197c.05,0,.11,0,0,.06C280.52,197.05,280.5,197,280.33,197Z"/><path class="cls-22" d="M280.76,197.22l.06,0,.06,0S280.75,197.19,280.76,197.22Z"/><path class="cls-22" d="M279.68,196.91s0,.05,0,.07l.07,0S279.68,196.94,279.68,196.91Z"/><path class="cls-22" d="M279.71,197l-.09,0C279.7,197,279.72,197,279.71,197Z"/><polygon class="cls-22" points="280.12 197.12 280.28 197.05 280.09 197.12 280.12 197.12"/><polygon class="cls-22" points="279.31 196.9 279.37 196.86 279.27 196.93 279.31 196.9"/><path class="cls-22" d="M279.07,196.91s-.05-.06,0-.08a.39.39,0,0,0-.18.06A.32.32,0,0,1,279.07,196.91Z"/><path class="cls-22" d="M278.8,196.93l.08,0Z"/><path class="cls-22" d="M279.45,197s0,0-.07-.05l0,.05Z"/><path class="cls-22" d="M279.42,197h0Z"/><path class="cls-22" d="M279.46,197h0Z"/><path class="cls-22" d="M279.87,197.07c-.06,0-.18.06-.06.11S279.78,197.11,279.87,197.07Z"/><path class="cls-22" d="M279.51,197.07h.1s0,0,0,0Z"/><polygon class="cls-22" points="279.46 197.09 279.51 197.07 279.47 197.07 279.46 197.09"/><path class="cls-22" d="M279,197a.32.32,0,0,1-.14,0l.17,0S279,197,279,197Z"/><path class="cls-22" d="M279.19,197h0Z"/><polygon class="cls-22" points="278.29 197 278.3 197.01 278.3 197 278.29 197"/><path class="cls-22" d="M279,197a.15.15,0,0,0,.1,0H279Z"/><path class="cls-22" d="M278.65,197l.08,0S278.66,196.94,278.65,197Z"/><path class="cls-22" d="M279.16,197h0S279.16,197,279.16,197Z"/><path class="cls-22" d="M279.16,197a.09.09,0,0,0-.05,0l.07,0Z"/><path class="cls-22" d="M278.13,197.34c0-.05.12-.09.22,0s0-.19-.05-.29,0,.05-.1.07.22.07.13.11-.1,0-.17,0-.17.08-.14.18l.12,0S278.1,197.33,278.13,197.34Z"/><path class="cls-22" d="M278.49,197h0a.45.45,0,0,1-.14-.07c-.07,0-.08,0-.09.06h.19Z"/><path class="cls-22" d="M278.72,197s-.13.07-.07.13.08,0,.16-.07c-.2,0,.05,0-.09-.06h.11l-.1,0h0s0,0,0,0h0v0c-.06,0,0,0,0,0h0l-.2,0Z"/><path class="cls-22" d="M279.7,197.29h0S279.68,197.29,279.7,197.29Z"/><path class="cls-22" d="M279.62,197.26s0,0,.07,0,0,0,0,0,.09,0,0-.07h0c-.08,0-.18-.08-.16-.09A.34.34,0,0,0,279.62,197.26Z"/><path class="cls-22" d="M279.16,197.15l-.16,0,.08,0v0C279.17,197.21,279.15,197.17,279.16,197.15Z"/><polygon class="cls-22" points="278.27 196.98 278.3 196.92 278.2 197 278.27 196.98"/><polygon class="cls-22" points="278.06 196.98 278.07 196.93 278.01 196.96 278.06 196.98"/><path class="cls-22" d="M266.06,197.34h0Z"/><path class="cls-22" d="M266.41,197.35v0S266.4,197.35,266.41,197.35Z"/><path class="cls-22" d="M272.85,196.91c-.07,0-.15-.12-.14-.06l0,.05A.23.23,0,0,1,272.85,196.91Z"/><polygon class="cls-22" points="269.27 197.15 269.29 197.17 269.34 197.12 269.27 197.15"/><path class="cls-22" d="M269.21,197.37l-.09,0Z"/><path class="cls-22" d="M264.16,197.33l-.06,0C264.19,197.38,264.16,197.36,264.16,197.33Z"/><path class="cls-22" d="M275.89,197l-.15,0C275.81,197,275.87,197,275.89,197Z"/><path class="cls-22" d="M266.22,196.77s0,0,0,0S266.23,196.79,266.22,196.77Z"/><path class="cls-22" d="M275.56,196.94h.18A.23.23,0,0,0,275.56,196.94Z"/><path class="cls-22" d="M257.28,197h0Z"/><path class="cls-22" d="M255.3,196.33h0Z"/><path class="cls-22" d="M277.21,197Z"/><path class="cls-22" d="M277.42,197.17s0,0,0,0Z"/><path class="cls-22" d="M275.11,197.27Z"/><path class="cls-22" d="M277.28,197l-.06,0Z"/><path class="cls-22" d="M277.27,197h0S277.31,196.94,277.27,197Z"/><path class="cls-22" d="M277.14,197h.08a0,0,0,0,1,0,0Z"/><path class="cls-22" d="M261,197h0S260.94,197,261,197Z"/><polygon class="cls-22" points="271.66 197.45 271.67 197.45 271.66 197.44 271.66 197.45"/><path class="cls-22" d="M271.5,197.48a.15.15,0,0,1,.16,0l-.05-.15Z"/><path class="cls-22" d="M265.23,197.33l.11,0c-.14.07-.24,0-.13.11,0-.16.44,0,.46-.17l.08,0h-.05c.14.08.11-.12.3-.09s.11,0,.06.06l.15,0s0,0,0,0h.22a1,1,0,0,1,.14-.08c.06,0,0,0,0,0l.12,0c.05.05-.05.09-.14.08.11.17.11,0,.35.06l-.12,0c.08.1.17.07.3.13,0,0-.26-.16-.13-.19a.19.19,0,0,0,.16,0c0,.06.07,0,.16,0v.08c.1,0,.09-.06.15-.09a.15.15,0,0,1,.15.12c.17,0-.12-.1.09-.11a.67.67,0,0,0,.41,0c.1,0,0,0,0,.08l.09-.07a0,0,0,0,1,0,0c.08,0,0-.08.13-.1s.23.13.38,0,0,0,0,.08a1.51,1.51,0,0,0,.34-.13l.13.06c-.1-.07,0-.13.15-.19l-.09-.07.19,0s0,0,0,.07l0,0c.07,0,0,.08,0,.12l-.06-.05c-.05.05-.09.1-.08.15l.06,0s0,0,0,0,0,0,.06,0l0,.09v0l.23.07a1.57,1.57,0,0,1,.6-.25c-.07.07,0,.11,0,.19-.07-.09-.21,0-.34,0,.07,0,.05,0,0,.06l.25-.07c0,.06,0,0,.12.07s.19-.07.29-.11,0,.08-.14.07c.13.1.18-.14.31-.06,0,0-.05,0-.06,0s.24,0,.2,0h0c.2,0,.61,0,.64-.09a1.13,1.13,0,0,1,0,.15l.36-.35c0,.09.09.31-.08.36a.36.36,0,0,0,.21,0s-.08-.14,0-.14.09.05.23.14c0,0,0-.16.09-.15s0,.14,0,.15l.19-.13c-.05,0,0,.11,0,.15s.17,0,.22,0l-.08,0c.21,0,.22-.19.43-.18,0,0-.07.18,0,.2s.23-.34.42-.39l0,0,.14,0a3.43,3.43,0,0,1-.49.41c.08,0,0,.05.14,0s-.06.06-.1.06l.28,0c0-.08.22-.08.21-.15l-.31.08c0-.08.18-.23.38-.21s0,.15,0,.18a.3.3,0,0,1,.2,0l-.08,0c.11,0,.18-.11.32,0s.13.11.14.06a.62.62,0,0,1,0-.46s.24.1.29.14-.12.18-.05.24,0-.05.06-.05,0,.07.09.06.21,0,.05-.07c.1,0,.11,0,.23,0,0,0,.11-.18.21-.2a.11.11,0,0,0,0,.06c.21,0,.32,0,.52,0,0,0,.11.05.07.09a.19.19,0,0,1,.12,0c.11.08-.14,0-.05.1s.16-.06.25-.09-.2,0-.29,0,.15-.21.36-.26.07.07.1,0c.3,0,.26-.17.52-.1.1.07,0,.14,0,.18-.13,0-.2,0-.29,0l.11,0a.23.23,0,0,1-.18,0c.08.06.52,0,.75.08.05,0,.12-.05.08-.07h-.07c-.07-.06.14-.08.05-.1a.57.57,0,0,1,.35-.07l0,.08a.12.12,0,0,0-.13,0c.05,0,.21.1.28,0l-.1,0A.61.61,0,0,1,278,197c-.06-.08,0,0-.12-.08.08.11-.32,0-.19.1-.09-.1-.16,0-.28-.13s0,.05-.06,0l0,0h0a.09.09,0,0,1,.06,0c-.06.06-.22,0-.28.08s0,0,0,0l-.08,0c0-.06-.17-.09,0-.13h-.13a.39.39,0,0,0-.26,0c-.06,0-.15.06-.1,0l-.21,0v0c-.2,0-.42.09-.66,0a.61.61,0,0,1-.25,0l0-.05c-.09,0-.27,0-.31,0-.09-.14-.43,0-.58-.07v.07a1.38,1.38,0,0,0-.34,0V197c-.11,0-.29,0-.47,0,0,0,.06,0,.09,0-.22-.12-.46.09-.66,0a.17.17,0,0,1-.12,0h0l-.07,0,0,0-.15,0,0-.06h0c-.06,0-.05,0,0,.08l-.07,0c-.05-.09-.15,0-.21-.07,0,.05-.29,0-.32.13s0,0,0,0a.28.28,0,0,0-.18,0l0-.08-.14.1c-.08-.05-.12-.08,0-.13-.2.08-.17,0-.34.11V197c-.06,0-.16.07-.19,0s-.67,0-1-.13c.06.15-.16-.07-.18,0s-.06,0,0-.08c-.18,0-.26-.06-.39,0s0-.05,0-.07-.05,0-.07,0,0,0,.05,0c-.18,0-.2.1-.21.2a.15.15,0,0,0-.21,0s-.08-.07,0-.08c-.06,0-.39-.06-.39,0s-.09,0-.11,0h-.29l0,0c-.05.09-.11,0-.23,0h0c-.26-.07-.12,0-.37,0V197c0,.12-.22-.09-.37,0l.05,0c-.08,0-.22-.18-.3-.2s0,0,.06,0c-.21-.08,0,.08-.19.09s0-.11-.07-.12-.31.13-.45.05c0,0,.06.06,0,.08s-.3-.13-.4,0,0,0,0,0a1.53,1.53,0,0,0-.34.09c-.07-.21-.54.08-.53-.11h-.26v0a.37.37,0,0,0-.29.06s0,0,0,0a.61.61,0,0,0-.48.05l0-.06c-.06,0-.36-.11-.6-.05,0,0,0,0,0,0-.27.07-.64-.19-.75,0l-.18.05c.23,0,0,.09.05.13-.09,0-.23-.07-.12-.08h0c0-.11-.29-.05-.28-.13-.46,0-.9-.1-1.33-.12l0,.09H261s-.05-.07.06-.06c-.05-.06-.18,0-.19,0-.2,0,.09-.1,0-.11h-.07c-.07,0-.08.07-.21.06s0-.06-.07-.06h-.24l.07.07c-.08,0-.17,0-.09.07-.12-.13-.7-.07-.78-.11a.79.79,0,0,1-.38,0s.06.1-.07.08c.06-.16-.22-.08-.31-.2.08.08-.36,0-.22.12-.1,0,0-.06-.08-.11a4.35,4.35,0,0,1-.85-.06s.05.06,0,.09l-.15-.12c-.06,0-.06.13-.17,0s0,.05,0,.06a12.69,12.69,0,0,1-1.82-.21c.08,0,0,.05,0,0s0,.06,0,.09l-.25-.1c0,.08-.27,0-.3.07h.08c-.11.09.14.21.11.33.13-.1.31.17.51,0,.05,0,0,0,0,.07s.11-.06.22,0h0a6.34,6.34,0,0,1,.79.12l0-.06a.23.23,0,0,1,.12.05c.09-.09-.21,0-.13-.11.1.12.53,0,.59.16s0-.07.09-.06l0,0,0-.05c.07,0,.11.06.11.09h-.07c.1.05.28,0,.31,0l-.11,0a8.49,8.49,0,0,0,1,0l0,0c.23,0,.18,0,.44,0h0a.54.54,0,0,1,.19,0c-.06,0,.12.07,0,.1.25,0,.12,0,.29-.13l0,0a.28.28,0,0,1,.19-.07c-.1,0,.08.08,0,.12.27.12.4-.08.52.07.13-.12-.23-.08-.16-.1s.11-.09.19-.08.14.17.36.18h0c.08,0,.16,0,.26,0s.13,0,.15-.09h-.2c.11,0,.22-.13.4-.06,0,0-.07,0-.11,0s.11,0,.16,0-.24,0-.36.08c.06,0,.23-.06.16,0,.1-.13.22,0,.37-.07l0,.06.12,0-.08.07c.12-.06.22.07.34,0-.24,0-.05-.07-.15-.12.3-.07.16.16.49.14,0,0-.16,0-.09-.06a.48.48,0,0,1,.18.07c.22,0,0-.06.06-.09s.11,0,.2,0v.06c.25.05.07-.12.29-.06l-.09.08.11,0,0,.07a.41.41,0,0,1,.29,0s0-.11.13-.11-.05.06.11.06c0,0-.08.08-.14,0l0,.06a.58.58,0,0,0,.26,0h-.06l.23-.08s0,0,0,.06.08,0,.14,0,0,.1-.11.12l.22-.05s.11.06.08.08.29-.09.45,0c0,0,0,0,.06,0a1,1,0,0,0,.45,0l.1.09c.14,0-.13-.12.1-.14s.06.07.11.1a.41.41,0,0,1,.38-.05C265.32,197.34,265.28,197.32,265.23,197.33Zm1.7,0s-.1,0-.12,0S266.88,197.32,266.93,197.34Zm2.59-.07a.11.11,0,0,1-.11,0A.22.22,0,0,1,269.52,197.27Zm7.19-.28h0C276.64,197,276.66,197,276.71,197Zm.16,0s0,0,0,0h-.08S276.82,197,276.87,197Zm-16.36-.43,0,0C260.47,196.62,260.49,196.61,260.51,196.59Z"/><path class="cls-22" d="M269.22,197.35a0,0,0,0,1,0,0S269.19,197.34,269.22,197.35Z"/><polygon class="cls-22" points="264.17 197.32 264.17 197.32 264.16 197.33 264.17 197.32"/><path class="cls-22" d="M274.5,197.5a.09.09,0,0,1-.06,0S274.45,197.49,274.5,197.5Z"/><path class="cls-22" d="M277.67,196.93h-.09l.08,0S277.64,196.93,277.67,196.93Z"/><path class="cls-22" d="M278.52,197.31h0v0C278.5,197.27,278.46,197.29,278.52,197.31Z"/><path class="cls-22" d="M277.76,197.13c0,.05.07,0,.14,0h0C277.91,197.08,277.84,197.11,277.76,197.13Z"/><path class="cls-22" d="M277.92,197.15H278S278,197.15,277.92,197.15Z"/><path class="cls-22" d="M277.06,197s0-.06,0,0S276.88,197,277.06,197Z"/><polygon class="cls-22" points="277.82 197.29 277.79 197.23 277.75 197.28 277.82 197.29"/><path class="cls-22" d="M277.28,197.24l.11,0s0,0,0,0S277.27,197.23,277.28,197.24Z"/><path class="cls-22" d="M277.42,197.24h0Z"/><polygon class="cls-22" points="277.67 197.31 277.63 197.3 277.56 197.29 277.67 197.31"/><path class="cls-22" d="M276.1,197.22H276s0,0,.07,0S276.12,197.24,276.1,197.22Z"/><path class="cls-22" d="M276.46,197.39s0,0,0,0v.08Z"/><path class="cls-22" d="M276.11,197.41s-.17.06,0,.05S276.22,197.43,276.11,197.41Z"/><polygon class="cls-22" points="274.32 197.28 274.35 197.28 274.35 197.16 274.32 197.28"/><path class="cls-22" d="M272.73,197.56c.14,0,0-.08.16,0s-.1,0-.07-.06S272.69,197.47,272.73,197.56Z"/><path class="cls-22" d="M272.82,197.46l0,0Z"/><polygon class="cls-22" points="254.97 196.25 254.89 196.22 254.94 196.26 254.97 196.25"/><path class="cls-22" d="M254.8,196.33l0-.08-.06.07S254.78,196.31,254.8,196.33Z"/><path class="cls-22" d="M267.18,197.51v0s0,0-.08,0Z"/><polygon class="cls-22" points="265.95 197.41 265.97 197.42 265.93 197.34 265.95 197.41"/><path class="cls-22" d="M264.91,197.47H265C265,197.48,264.9,197.38,264.91,197.47Z"/><line class="cls-23" x1="271.57" y1="182.1" x2="272.13" y2="187.36"/><line class="cls-23" x1="269.9" y1="185.67" x2="273.12" y2="184.23"/><path class="cls-6" d="M287.4,197.47a3.54,3.54,0,0,1,2.32,3.16c.24,2.05-.85,4-2.44,4.28l-3.91.74h-.08l0,0-5.28,1c-.41.07-.8-.3-.86-.84a1,1,0,0,1,.63-1.12l2.88-.54a4.78,4.78,0,0,1-.35-.76l-3.44.65c-.41.08-.8-.3-.87-.84a1,1,0,0,1,.64-1.12l3.44-.65a5,5,0,0,1,.14-.77l-3,.56c-.42.08-.81-.3-.87-.83a1,1,0,0,1,.64-1.12l4.93-.94a2.6,2.6,0,0,1,.47-.16l-1-.2a1,1,0,0,1-.64-1.12h0c.06-.54.45-.91.86-.83"/><path class="cls-6" d="M259.18,199.24a1,1,0,0,0-.28-1.26.82.82,0,0,0-1.2,0l-1.82,2.4a5.12,5.12,0,0,0-.42-.65l2.12-2.8a1,1,0,0,0-.28-1.26.82.82,0,0,0-1.2,0L254,198.39a4.17,4.17,0,0,0-.76-.33l1.76-2.34a1,1,0,0,0-.28-1.25.82.82,0,0,0-1.2,0l-1.64,2.17a5.25,5.25,0,0,0-.53,5.7l0,0c1,1.68,1.92,3.23,3.94,3.16.09,0,1.18,0,1.25,0l1.38-.74a.83.83,0,0,0,.09-1.2h0a1,1,0,0,0-1.24-.4l-.86.52a2.34,2.34,0,0,0,.24-.44Z"/><polyline class="cls-7" points="48.05 204.28 69.05 256.21 75.86 254.33 67.79 203.11"/><polygon class="cls-24" points="77.3 260.7 71.44 262.32 62.84 241.34 73.36 238.43 77.3 260.7"/><path class="cls-16" d="M91.75,257.12a10.51,10.51,0,1,0-20.25,5.62"/><polyline class="cls-7" points="73.97 200.47 95.19 249.24 102.01 247.35 93.08 190.64"/><polygon class="cls-24" points="103.61 253.91 97.03 255.73 89.12 235.28 99.54 231.67 103.61 253.91"/><path class="cls-16" d="M117.37,250.1a10.51,10.51,0,1,0-20.25,5.62"/></svg>