<svg id="Layer_1" data-name="Layer 1" xmlns="http://www.w3.org/2000/svg" viewBox="0 0 348 282.35"><defs><style>.cls-1{fill:#f8d979;}.cls-2{fill:#ffcb05;}.cls-3{fill:#f8ac1c;}.cls-4{fill:#e59525;}.cls-10,.cls-11,.cls-14,.cls-15,.cls-5{fill:none;stroke-linecap:round;stroke-miterlimit:10;}.cls-5{stroke:#138ab2;stroke-width:6px;}.cls-6{fill:#a1cbec;}.cls-7{fill:#0aa0cc;}.cls-8{fill:#0d4061;}.cls-9{fill:#fff;}.cls-10,.cls-15{stroke:#0d4061;}.cls-10{stroke-width:1.99px;}.cls-11{stroke:#231f20;stroke-width:1.07px;}.cls-12{fill:#5754a3;}.cls-13{fill:#504b48;}.cls-14{stroke:#198ab1;stroke-width:5px;}.cls-15{stroke-width:2.29px;}.cls-16{fill:#57c4cf;}.cls-17{fill:#7d3a1b;}.cls-18{fill:#572513;}</style></defs><polyline class="cls-1" points="0 282.35 0 0 348 0 348 282.35"/><rect class="cls-2" y="238.97" width="348" height="43.38"/><polyline class="cls-3" points="122.13 257.66 114.29 257.66 114.29 223.88 51.14 223.88 51.14 257.66 43.13 257.66 43.13 220.73 43.26 220.73 43.26 213.53 122.13 213.53 122.13 220.83"/><rect class="cls-4" x="37.05" y="197.46" width="91.8" height="18.36" rx="5.55"/><path class="cls-5" d="M151.25,114.17s-9.29,13.74-15.39,16.21S118,127.69,118,127.69"/><path class="cls-6" d="M146.24,111.13a5.9,5.9,0,0,0,1.13,6.46c2.19,2.39,5.74,2.74,7.89.77l5.32-4.85.1-.11.07-.05,7.17-6.55a1.54,1.54,0,0,0-2.07-2.27l-3.91,3.56a6,6,0,0,0-.52-1.24l4.69-4.28A1.55,1.55,0,0,0,164,100.3l-4.69,4.28a6.43,6.43,0,0,0-1.06-.58l4-3.67a1.55,1.55,0,0,0-2.07-2.28l-6.71,6.13a4.56,4.56,0,0,0-.73.51l.89-1.61a1.59,1.59,0,0,0-.62-2h0a1.38,1.38,0,0,0-2,.41"/><rect class="cls-7" x="35.26" y="19.46" width="94.18" height="184.84" rx="33.85"/><path class="cls-8" d="M109.17,74.46c3,0,4.13,3.22,1.46,4.37-2.11.91-5.06.48-9.11.42-3.77-.06-6.42.42-8.3-.39-2.68-1.18-1.66-4.4,1.41-4.4Z"/><path class="cls-9" d="M75.85,66.81a9.33,9.33,0,1,1,18.65,0"/><path class="cls-9" d="M109,66.81a9.33,9.33,0,1,1,18.66,0"/><line class="cls-10" x1="76.69" y1="50.82" x2="94.89" y2="53.78"/><line class="cls-10" x1="126.27" y1="49.75" x2="109.58" y2="53.43"/><path class="cls-8" d="M84.09,66.81a4,4,0,0,1,8.07,0"/><path class="cls-8" d="M117.2,66.81a4,4,0,0,1,8.07,0"/><ellipse class="cls-11" cx="83.4" cy="63.28" rx="13.21" ry="8.99" transform="translate(-0.67 0.89) rotate(-0.61)"/><ellipse class="cls-11" cx="119.55" cy="62.95" rx="13.21" ry="8.99" transform="translate(-0.66 1.27) rotate(-0.61)"/><path class="cls-11" d="M96.63,64s5.29-6.88,10,0"/><path class="cls-5" d="M44.08,118.87s6.2,24.88,17.73,29.35,28.73,2.2,28.73,2.2"/><polyline class="cls-7" points="72.03 204.63 93.02 256.56 99.83 254.68 91.77 203.46"/><polygon class="cls-12" points="101.27 261.05 95.41 262.67 86.81 241.69 97.33 238.78 101.27 261.05"/><path class="cls-13" d="M115.73,257.47a10.51,10.51,0,1,0-20.26,5.62"/><polyline class="cls-7" points="97.94 200.81 119.17 249.59 125.98 247.7 117.05 190.99"/><polygon class="cls-12" points="127.58 254.25 121 256.08 113.09 235.63 123.51 232.02 127.58 254.25"/><path class="cls-13" d="M141.35,250.45a10.51,10.51,0,0,0-20.26,5.62"/><path class="cls-14" d="M203.08,166.15s-13.73,2.61-25.68-15.2"/><path class="cls-7" d="M321.27,128.22c-1.24,36.54-32.81,87-67.86,85.78-36.91-1.24-63.17-52.88-61.94-89.42s30.58-44.12,66.41-42.91S322.5,91.67,321.27,128.22Z"/><path class="cls-9" d="M201.18,129a10.6,10.6,0,1,1,21.18.71"/><path class="cls-9" d="M232.71,130.07a10.6,10.6,0,0,1,21.18.72"/><path class="cls-15" d="M203.92,115.37s3.31-6.18,10-2.24"/><path class="cls-15" d="M251.52,117s-3.06-6.49-10-3"/><path class="cls-8" d="M241.25,140s-2.7,7.74-14.68,7.1-12.68-8-12.68-8Z"/><polyline class="cls-7" points="239.63 254.41 234.99 207.43 249.73 207.43 243.71 255.77 240.14 252.3"/><polygon class="cls-16" points="246.77 231.08 237.06 231.08 239.45 255.38 244.39 255.38 246.77 231.08"/><path class="cls-13" d="M228.92,255.77c0-3.64,3.47-6.6,7.77-6.6s7.77,3,7.77,6.6"/><polyline class="cls-7" points="258.55 254.41 253.91 207.43 268.65 207.43 262.63 255.77 259.06 252.3"/><polygon class="cls-16" points="265.69 231.08 255.99 231.08 258.38 255.38 263.31 255.38 265.69 231.08"/><path class="cls-13" d="M248,255.77c0-3.64,3.48-6.6,7.77-6.6s7.77,3,7.77,6.6"/><path class="cls-8" d="M208.54,125.2a6.3,6.3,0,0,0,4.26-6.36c-.25,0-.5-.06-.75-.07a10.62,10.62,0,0,0-9.54,5.3A6.29,6.29,0,0,0,208.54,125.2Z"/><path class="cls-8" d="M240.09,126.22a6.28,6.28,0,0,0,4.26-6.36c-.25,0-.49-.06-.75-.07a10.59,10.59,0,0,0-9.53,5.3A6.27,6.27,0,0,0,240.09,126.22Z"/><path class="cls-17" d="M102.94,120.87a1.08,1.08,0,0,0,.44.59,9.34,9.34,0,0,1,3.73,5.35,8.29,8.29,0,0,1,.17,1.72q0,14.72,0,29.43a4.9,4.9,0,0,1-.9,3,2.25,2.25,0,0,1-1.89,1H92.82a2.2,2.2,0,0,1-2.13-1.34,6.46,6.46,0,0,1-.64-2.48q-.06-14.88,0-29.76c0-3,1.61-5.1,3.85-6.82l1.67-10.46c.09-1.11.16-2.22.24-3.37-1.14-.56-1.17-1.35-.25-2.1.28-.22.29-.78.43-1.24l-.76-.18v-1h6.88v1l-.58.1c-.07.62-.17,1.15.54,1.58s.42,1.37-.53,1.82c.13,1.75.25,3.52.39,5.29Z"/><path class="cls-14" d="M287.72,161.39s15.06,10.08,8,40.59"/><rect class="cls-18" x="90.01" y="132.57" width="17.28" height="21.39"/><path class="cls-6" d="M88.31,144.38a5.9,5.9,0,0,0-3,5.85c.32,3.22,3,5.63,5.85,5.35l7.17-.7.15,0h.07l9.68-.93a1.55,1.55,0,0,0-.3-3.07l-5.27.51a6.14,6.14,0,0,0,.34-1.31l6.31-.61a1.55,1.55,0,0,0-.3-3.06l-6.31.61a6.51,6.51,0,0,0-.51-1.1l5.43-.53a1.55,1.55,0,0,0-.3-3.06l-9,.87a4.4,4.4,0,0,0-.89,0l1.67-.76a1.57,1.57,0,0,0,.73-2h0a1.36,1.36,0,0,0-1.82-.85"/><path class="cls-6" d="M180.8,146.82a5.1,5.1,0,0,1-2.35,5.13c-2.42,1.75-5.62,1.71-7.1-.07l-3.67-4.41-.07-.09-.05,0-4.94-5.94a1.19,1.19,0,0,1,.44-1.68,1.43,1.43,0,0,1,1.86,0l2.69,3.24a5.47,5.47,0,0,1,.72-1l-3.23-3.88a1.19,1.19,0,0,1,.45-1.68,1.39,1.39,0,0,1,1.85,0l3.23,3.88a6.37,6.37,0,0,1,1.06-.37l-2.77-3.34a1.18,1.18,0,0,1,.44-1.67,1.4,1.4,0,0,1,1.86,0l4.63,5.55a3.5,3.5,0,0,1,.53.49l-.44-1.39a1.43,1.43,0,0,1,1-1.59h0a1.17,1.17,0,0,1,1.65.5"/><path class="cls-6" d="M291.05,198.94a5.09,5.09,0,0,1,5.3-1.95c2.94.49,5.17,2.79,4.95,5.1l-.55,5.7a.5.5,0,0,1,0,.12V208l-.74,7.7c-.05.61-.73,1-1.5.87a1.41,1.41,0,0,1-1.29-1.34l.4-4.19a5.79,5.79,0,0,1-1.19.17l-.48,5a1.2,1.2,0,0,1-1.51.86,1.4,1.4,0,0,1-1.29-1.33l.48-5a7.24,7.24,0,0,1-1-.49l-.41,4.32a1.2,1.2,0,0,1-1.51.86,1.4,1.4,0,0,1-1.29-1.33l.69-7.2a3.44,3.44,0,0,1,0-.72l-.66,1.29a1.43,1.43,0,0,1-1.82.44h0a1.18,1.18,0,0,1-.8-1.53"/></svg>