<svg id="Layer_1" data-name="Layer 1" xmlns="http://www.w3.org/2000/svg" viewBox="0 0 348 282.35"><defs><style>.cls-1{fill:#f8d979;}.cls-10,.cls-12,.cls-13,.cls-18,.cls-2,.cls-20,.cls-21,.cls-22,.cls-7{fill:none;stroke-miterlimit:10;}.cls-18,.cls-2{stroke:#198ab1;}.cls-10,.cls-12,.cls-13,.cls-18,.cls-2,.cls-21,.cls-22,.cls-7{stroke-linecap:round;}.cls-13,.cls-2{stroke-width:5px;}.cls-3{fill:#a1cbec;}.cls-4{fill:#ffcb05;}.cls-5{fill:#f8ac1c;}.cls-6{fill:#e59525;}.cls-13,.cls-7{stroke:#138ab2;}.cls-7{stroke-width:4.82px;}.cls-8{fill:#0aa0cc;}.cls-9{fill:#fff;}.cls-10,.cls-21,.cls-22{stroke:#0d4061;}.cls-10{stroke-width:1.8px;}.cls-11{fill:#0d4061;}.cls-12{stroke:#231f20;stroke-width:0.96px;}.cls-14{fill:#7d3a1b;}.cls-15{fill:#572513;}.cls-16{fill:#ea1e52;}.cls-17{fill:#504b48;}.cls-18{stroke-width:4px;}.cls-19{fill:#010101;}.cls-20{stroke:#010101;stroke-width:0.12px;}.cls-21{stroke-width:1.48px;}.cls-22{stroke-width:2.06px;}.cls-23{fill:#57c4cf;}.cls-24{fill:#5754a3;}</style></defs><polyline class="cls-1" points="0 282.35 0 0 348 0 348 282.35"/><path class="cls-2" d="M194.31,160.54s6.93,26,45.62,17.92"/><path class="cls-3" d="M238.49,173.53a4.9,4.9,0,0,0-3.28,4.31c-.38,2.84,1.09,5.53,3.27,6l5.38,1.11.12,0,.06,0,7.26,1.5c.57.12,1.12-.39,1.22-1.13a1.34,1.34,0,0,0-.85-1.56l-4-.82a5.84,5.84,0,0,0,.49-1l4.74,1c.57.12,1.12-.4,1.22-1.14a1.35,1.35,0,0,0-.85-1.56l-4.75-1a6.13,6.13,0,0,0-.16-1.07l4.07.85c.58.11,1.12-.4,1.22-1.14a1.34,1.34,0,0,0-.85-1.56l-6.8-1.41a3.35,3.35,0,0,0-.65-.24l1.37-.24a1.38,1.38,0,0,0,.92-1.54h0c-.07-.75-.6-1.27-1.17-1.17"/><rect class="cls-4" y="238.66" width="348" height="43.38"/><polyline class="cls-5" points="91.87 254.17 84.8 254.17 84.8 223.7 27.84 223.7 27.84 254.17 20.61 254.17 20.61 220.85 20.73 220.85 20.73 214.35 91.87 214.35 91.87 220.94"/><rect class="cls-6" x="15.13" y="199.86" width="82.8" height="16.56" rx="5"/><path class="cls-7" d="M101.88,180.23S91.18,169.78,90,164s5.26-15.47,5.26-15.47"/><path class="cls-3" d="M105.38,176.27a5.33,5.33,0,0,0-5.92,0,5.08,5.08,0,0,0-1.95,6.87l3.46,5.5a.44.44,0,0,0,.08.11l0,.07,4.66,7.42a1.4,1.4,0,0,0,2.35-1.48l-2.53-4a5.55,5.55,0,0,0,1.18-.26l3.05,4.85a1.4,1.4,0,0,0,2.35-1.48l-3-4.85a5.58,5.58,0,0,0,.69-.85l2.61,4.16a1.4,1.4,0,0,0,2.35-1.48l-4.36-6.94a4.32,4.32,0,0,0-.33-.73l1.28,1a1.42,1.42,0,0,0,1.91-.22h0a1.23,1.23,0,0,0,0-1.81"/><rect class="cls-8" x="21.9" y="40.44" width="84.95" height="166.73" rx="30.53" transform="translate(5.79 -2.84) rotate(2.65)"/><path class="cls-9" d="M60.39,82.93a8.42,8.42,0,0,1,16.82.78"/><path class="cls-9" d="M90.23,84.31a8.41,8.41,0,1,1,16.81.78"/><line class="cls-10" x1="60.03" y1="71.09" x2="75.85" y2="65.92"/><line class="cls-10" x1="104.91" y1="74.6" x2="91.26" y2="67.44"/><path class="cls-11" d="M67.82,83.27a3.64,3.64,0,0,1,7.27.34"/><path class="cls-11" d="M97.66,84.65a3.64,3.64,0,1,1,7.27.34"/><ellipse class="cls-12" cx="67.35" cy="80.06" rx="8.11" ry="11.92" transform="translate(-15.05 144.52) rotate(-87.96)"/><ellipse class="cls-12" cx="99.94" cy="81.27" rx="8.11" ry="11.92" transform="translate(15.16 178.25) rotate(-87.96)"/><path class="cls-12" d="M79.23,81.29s4.89-6,8.83.39"/><path class="cls-13" d="M30.75,142.37S35,165.11,45.1,169.75s25.75,3.56,25.75,3.56"/><path class="cls-14" d="M83.63,147.38a1,1,0,0,0,.36.56,8.36,8.36,0,0,1,3.07,5,7.39,7.39,0,0,1,.06,1.56q-.78,13.24-1.6,26.49a4.35,4.35,0,0,1-1,2.66,2,2,0,0,1-1.74.76l-10.52-.63a2,2,0,0,1-1.84-1.33,5.77,5.77,0,0,1-.45-2.26q.75-13.41,1.61-26.8c.17-2.67,1.73-4.5,3.84-5.93l2.08-9.33c.13-1,.26-2,.39-3-1-.58-1-1.29-.1-1.91.26-.18.3-.69.45-1.09l-.68-.21.06-.87,6.2.38-.06.88-.53.06c-.09.55-.22,1,.4,1.45s.31,1.25-.57,1.61c0,1.58,0,3.18,0,4.78Z"/><rect class="cls-15" x="70.76" y="157.66" width="15.58" height="19.29" transform="translate(10.28 -4.45) rotate(3.47)"/><path class="cls-3" d="M69.17,167.75a5.33,5.33,0,0,0-3,5.1,5.08,5.08,0,0,0,5,5.14l6.49-.24h.2l8.76-.32a1.39,1.39,0,0,0-.09-2.77l-4.77.17a6,6,0,0,0,.37-1.16l5.71-.2a1.4,1.4,0,0,0-.09-2.78L82,170.9a5.69,5.69,0,0,0-.4-1l4.91-.18a1.39,1.39,0,0,0-.1-2.77l-8.19.29a5.29,5.29,0,0,0-.8-.08l1.55-.58a1.42,1.42,0,0,0,.77-1.76h0a1.23,1.23,0,0,0-1.59-.87"/><path class="cls-11" d="M73.61,92.86s1.13-4.35,10.2-3.9,8.7,4.61,8.7,4.61Z"/><path class="cls-3" d="M236.54,181.44a4.29,4.29,0,0,1-.55-4.72c1-2.31,3.3-3.68,5.15-3.05l4.56,1.57.09,0h.05l6.16,2.12a1,1,0,0,1,.42,1.4,1.21,1.21,0,0,1-1.35.8l-3.35-1.16a5,5,0,0,1-.1,1l4,1.38a1,1,0,0,1,.41,1.4,1.18,1.18,0,0,1-1.34.8l-4-1.38a6.21,6.21,0,0,1-.61.73l3.46,1.19A1,1,0,0,1,250,185a1.2,1.2,0,0,1-1.34.8l-5.76-2a3.19,3.19,0,0,1-.6-.12l.93.8a1.22,1.22,0,0,1,0,1.58h0a1,1,0,0,1-1.41.35"/><path class="cls-8" d="M333.74,156.43c0-.34,0-.67-.07-1-2.1-23.94-21.12-41.82-42.47-39.94s-37,22.81-34.85,46.75c0,.34.08.67.11,1a33.93,33.93,0,0,0,.08,4.93l1.78,20.27c1.47,16.68,17.59,30.61,32.36,29.31l21-1.85c14.77-1.3,26.1-17.65,24.63-34.33l-1.78-20.27A34.69,34.69,0,0,0,333.74,156.43Z"/><polyline class="cls-8" points="281.24 214.76 285.88 251.02 289.13 251.02 292.81 214.91"/><polygon class="cls-16" points="289.77 250.1 285.21 249.89 282.94 230.37 291.24 230.37 289.77 250.1"/><path class="cls-17" d="M290.17,251.86a6.77,6.77,0,0,0-13.54,0"/><polyline class="cls-8" points="299.48 214.07 304.12 250.33 307.37 250.33 311.05 214.22"/><polygon class="cls-16" points="308.01 249.51 303.45 249.31 301.18 230.37 309.48 230.37 308.01 249.51"/><path class="cls-17" d="M308.41,251.86a6.77,6.77,0,0,0-13.54,0"/><path class="cls-11" d="M272,162.85a.76.76,0,0,1-.76-1.08c.86-1.73,3.23-4.77,9.32-5.27s8.5,2,9.36,3.46a.75.75,0,0,1-.59,1.13Z"/><path class="cls-9" d="M283.49,152.57a7.59,7.59,0,0,1,15.1-1.33"/><path class="cls-9" d="M261,154.54a7.64,7.64,0,0,1,15.18-1.33"/><path class="cls-11" d="M261.5,150.88l-4.2-1.25,3.85,2.52c0,.16,0,.32-.07.47l-3.56-.13,3.49,1.13a6.54,6.54,0,0,0,0,.74c1.36-6.14,5.06-7.27,6.13-7.47C263.71,147.29,262.17,149.13,261.5,150.88Z"/><path class="cls-11" d="M267.16,146.89l.3,0Z"/><path class="cls-11" d="M301.71,148.6l-3.48.75c-.05-.15-.09-.3-.15-.46l3.35-3.15-3.92,2c-1-1.61-2.81-3.15-6.27-2.94,1.08,0,4.92.47,7.33,6.28a5.07,5.07,0,0,0-.1-.74Z"/><path class="cls-11" d="M291.24,144.77h0Z"/><polygon class="cls-9" points="227.32 187.55 251.77 210.97 272.85 190.16 248.42 164.39 227.32 187.55"/><path class="cls-18" d="M307.69,184.27s-8.8,16.92-32.64,8.75"/><path class="cls-19" d="M251.57,199.64c-.06.06,0,.07,0,.09S251.56,199.63,251.57,199.64Z"/><polygon class="cls-19" points="252.53 198.5 252.53 198.53 252.64 198.34 252.53 198.5"/><path class="cls-19" d="M253.5,197.51c-.15,0-.34.37-.53.52l-.05,0,0,.13C253.1,198,253.34,197.65,253.5,197.51Z"/><path class="cls-19" d="M254.16,197.12c-.06,0,.09-.13-.13.12l0,0Z"/><path class="cls-19" d="M254.06,197.22c-.1.1.09-.05,0,0Z"/><path class="cls-19" d="M254.52,196.73l-.11.15s.16-.13.13-.07C254.67,196.65,254.62,196.67,254.52,196.73Z"/><path class="cls-19" d="M254.6,196.55l-.06.08S254.58,196.61,254.6,196.55Z"/><path class="cls-19" d="M254.41,196.8l.13-.17s0,0-.06.08S254.46,196.72,254.41,196.8Z"/><path class="cls-19" d="M254.32,196.88c-.09.06-.2.15-.08,0C254,197.14,254.07,197.15,254.32,196.88Z"/><path class="cls-19" d="M253.49,197.4l-.12.08-.07.11C253.34,197.54,253.52,197.41,253.49,197.4Z"/><path class="cls-19" d="M255.39,195.9s-.08,0-.1,0l-.09.11C255.26,196,255.37,195.89,255.39,195.9Z"/><path class="cls-19" d="M255.29,195.91l.12-.18C255.28,195.87,255.26,195.9,255.29,195.91Z"/><polygon class="cls-19" points="254.56 196.46 254.36 196.75 254.6 196.41 254.56 196.46"/><polygon class="cls-19" points="255.97 195.33 255.91 195.44 256.02 195.25 255.97 195.33"/><path class="cls-19" d="M256.34,194.94c0,.09.13-.05.08,0a1.84,1.84,0,0,0,.22-.32A1.38,1.38,0,0,1,256.34,194.94Z"/><path class="cls-19" d="M256.75,194.5a1.11,1.11,0,0,0-.11.16Z"/><path class="cls-19" d="M255.67,195.48s.07,0,.16-.08l-.1,0Z"/><path class="cls-19" d="M255.73,195.42h0l.13-.12Z"/><path class="cls-19" d="M255.66,195.5v0S255.66,195.49,255.66,195.5Z"/><path class="cls-19" d="M255,196.09c.07-.11.23-.31,0-.17C255,196,255.08,195.93,255,196.09Z"/><path class="cls-19" d="M255.54,195.53l-.17.15s.06,0,0,0Z"/><polygon class="cls-19" points="255.6 195.44 255.54 195.53 255.6 195.47 255.6 195.44"/><path class="cls-19" d="M256.44,194.74a1.2,1.2,0,0,1,.21-.26l-.29.27S256.34,194.84,256.44,194.74Z"/><path class="cls-19" d="M256.09,195.07v0S256.08,195.06,256.09,195.07Z"/><polygon class="cls-19" points="257.48 193.64 257.46 193.65 257.46 193.66 257.48 193.64"/><path class="cls-19" d="M256.34,194.76a.48.48,0,0,0-.14.16l.16-.17Z"/><path class="cls-19" d="M257,194.24l-.14.1C256.87,194.32,257,194.26,257,194.24Z"/><path class="cls-19" d="M256.14,195h0S256.15,195,256.14,195Z"/><path class="cls-19" d="M256.14,195a.67.67,0,0,0,.06-.12l-.1.13Z"/><path class="cls-19" d="M257.49,193.15s-.12.26-.32.38.09.19.29.12c0,0,0,0,.11-.22-.07,0-.39.31-.29.15s.18-.16.3-.25c-.13,0,.2-.33.09-.34l-.16.2S257.55,193.1,257.49,193.15Z"/><path class="cls-19" d="M257.16,194l-.06.07a1.26,1.26,0,0,1,.27-.18c.09-.13.1-.16.09-.18l-.32.31Z"/><path class="cls-19" d="M256.81,194.31c0-.09.15-.26,0-.21-.18.2-.1.17-.19.3.29-.32-.07.11.17-.09l-.15.17.17-.14h0s0,0,0,0h0v0c.09-.08,0,0,0,0h0l.29-.33A3.8,3.8,0,0,0,256.81,194.31Z"/><path class="cls-19" d="M255.08,195.68a0,0,0,0,1,0,0S255.12,195.64,255.08,195.68Z"/><path class="cls-19" d="M255.23,195.57a.35.35,0,0,1-.1.13c-.07.06,0,0,0,0s-.13.18,0,.06l0,0a1,1,0,0,1,.32-.2A.55.55,0,0,0,255.23,195.57Z"/><path class="cls-19" d="M256,194.92l.23-.27-.16.09,0,0C256,194.9,256,194.89,256,194.92Z"/><polygon class="cls-19" points="257.53 193.63 257.53 193.7 257.63 193.5 257.53 193.63"/><polygon class="cls-19" points="257.85 193.29 257.88 193.34 257.94 193.23 257.85 193.29"/><path class="cls-19" d="M247.55,180.94l-.06.09Z"/><path class="cls-19" d="M248.06,180.36v0S248,180.39,248.06,180.36Z"/><path class="cls-19" d="M258.15,184.69c-.08-.14-.16-.31-.18-.26v.08A1.12,1.12,0,0,1,258.15,184.69Z"/><path class="cls-19" d="M252.22,179.41l0,0,.11,0Z"/><path class="cls-19" d="M252,179.49l-.12-.16A.92.92,0,0,0,252,179.49Z"/><path class="cls-19" d="M244.73,184.1l0,.12C244.82,184.08,244.74,184.12,244.73,184.1Z"/><path class="cls-19" d="M261.23,189.84a2.11,2.11,0,0,0,.26-.22C261.36,189.72,261.23,189.78,261.23,189.84Z"/><path class="cls-19" d="M247.32,180.34s0,.08,0,.09S247.34,180.34,247.32,180.34Z"/><path class="cls-19" d="M261.76,189.35l-.06,0a2.09,2.09,0,0,1-.21.23A.78.78,0,0,0,261.76,189.35Z"/><path class="cls-19" d="M247.12,194.5l0,0S247.14,194.51,247.12,194.5Z"/><path class="cls-19" d="M250,198l-.13-.12Z"/><path class="cls-19" d="M259.2,192c-.06.08,0,0,0,0Z"/><path class="cls-19" d="M258.71,192.15s0,0,0-.05A.07.07,0,0,1,258.71,192.15Z"/><path class="cls-19" d="M261.54,188.42Z"/><path class="cls-19" d="M259.08,192l.1-.08Z"/><path class="cls-19" d="M259.11,192.05l-.06.06S259.06,192.12,259.11,192.05Z"/><path class="cls-19" d="M259.3,191.85l-.12.11h0Z"/><path class="cls-19" d="M241.11,188.94v0C241.21,189,241.17,189,241.11,188.94Z"/><polygon class="cls-19" points="255.89 183.29 255.9 183.29 255.89 183.28 255.89 183.29"/><path class="cls-19" d="M255.6,183.07a.55.55,0,0,1,.29.21l0-.19Z"/><path class="cls-19" d="M246.32,182.33l.21-.15c-.15.28-.32.42-.11.29-.1-.14.65-.74.55-.88l.14-.1-.07.08c.28-.19.07-.26.37-.55.1-.11.19-.17.14-.08l.18-.27c.07-.07.07,0,0,0l.31-.38h0c0-.07.1-.22.13-.29s0,.06,0,.05l.15-.23c.11-.06,0,.14-.14.28.3-.08.12-.2.55-.55l-.15.21c.18-.07.29-.24.52-.43-.07,0-.49.35-.33.1a1.23,1.23,0,0,0,.22-.28s.13-.09.26-.25l.05.06c.12-.17.08-.19.13-.3s.23-.18.31-.19c.25-.28-.24.14,0-.21a2.3,2.3,0,0,0,.27-.32s.06-.13.16-.15,0,0,0,.08a.14.14,0,0,1,.09,0s0,0,0,0,0-.08.22.08c.12,0,.3.46.59.61,0,.07-.06,0-.06,0a5.24,5.24,0,0,0,.62.42l.19.25c-.12-.2.13-.05.35.08l-.09-.18.32.25s0,0-.1,0l.07,0c.08.12,0,.1-.11.06l-.07-.14c-.1,0-.21-.06-.22,0l.11.08s0,0,0,0,0,0,.11.06v.13h0l.34.41a5.66,5.66,0,0,1,1.12.72c-.15-.06-.1,0-.16.1-.06-.17-.36-.3-.57-.52.11.11.06.12,0,.1l.45.33c-.05,0,0,.11.14.23,0-.16.35.23.54.36,0,0-.09,0-.28-.17.16.28.39.17.54.43a.31.31,0,0,0-.1-.08c.14.08.39.37.3.34l0,0c.31.32,1,.94,1.1.91a.58.58,0,0,1-.17.05l.82.29c-.12,0-.07.36-.37.14a1.25,1.25,0,0,0,.33.32c0-.06,0-.22,0-.16a3.19,3.19,0,0,0,.28.47c-.07-.09.12-.11.24,0,0,0-.09.11-.15.08l.41.19c-.1,0-.1.07-.06.17,0-.05.26.26.36.33l-.11-.15c.33.35.48.19.81.52-.06,0-.22,0-.06.21a2.41,2.41,0,0,1,.93.35l0,.09.27.19a8.88,8.88,0,0,1-1.07-.45c.11.15,0,.07.2.26,0,.09-.15-.06-.2-.12l.43.46c0-.08.4.27.43.2l-.55-.41c0-.08.45.11.76.42.06.11-.16,0-.18.08a1.51,1.51,0,0,1,.36.3l-.17-.1c.16.19.37.2.53.46.07.08.14.29.19.27-.05-.19.13-.42.26-.39s.32.44.37.55-.3-.05-.24.1c0,0,.1,0,.14.05s-.09,0,.09.18c.09,0,.34.33.13,0a4.31,4.31,0,0,1,.36.37c0-.1.3,0,.48.17,0,0,0,.07,0,.09l.31.33c-.17.15-.28.25-.47.44-.05,0-.21.15-.17.06a1.22,1.22,0,0,1-.15.22c-.24.13.2-.23,0-.15,0,.05-.2.3-.31.46.09,0,.32-.31.43-.47.08.08-.08.39-.36.75s-.16.07-.2.12c-.49.47-.28.54-.73.89-.2.12-.1-.08-.17-.08a5.48,5.48,0,0,1,.49-.44l-.2.15a1.48,1.48,0,0,1,.27-.29c-.17.09-.82.81-1.23,1.15-.05.08-.14.21-.07.17l.11-.12c.15-.07-.17.27,0,.14a2.46,2.46,0,0,1-.51.61h-.09s.17-.12.22-.2c-.07.12-.41.27-.44.45l.19-.12a3.24,3.24,0,0,1-.48.62c.14,0,0,0,.24-.13-.2,0,.5-.51.23-.39.21-.07.28-.22.52-.35,0,0-.1,0,.08-.12a.14.14,0,0,1,0-.06h0a.22.22,0,0,1-.12.06,5.85,5.85,0,0,1,.38-.49c.1-.1,0,.06.05,0l.1-.16s.32-.2.12.05l.2-.2a1.92,1.92,0,0,0,.41-.39c.11-.09.2-.29.15-.17l.3-.36h0a8.34,8.34,0,0,1,1-1l.22-.25c.1-.11.22-.23.37-.37l.06,0v0c-.13-.12-.3-.3-.46-.47s-.2-.2-.26-.23c-.07-.24-.67-.69-.91-.94l-.05,0c-.17-.16-.34-.31-.57-.5l0,.05c-.21-.14-.44-.48-.74-.76a.39.39,0,0,1,.15.14c-.26-.42-.8-.64-1.05-1a.83.83,0,0,1-.19-.18h0l0,0-.08-.13a.3.3,0,0,0,.07.11c-.06-.05-.16-.14-.26-.21v-.08l0,0c-.07-.1-.09-.05-.07,0l-.15-.09c0-.14-.26-.21-.28-.38s-.48-.4-.6-.38,0,0,0,0a1.28,1.28,0,0,0-.29-.28v-.09l-.29-.14c-.1-.16-.14-.24,0-.15-.38-.24-.28-.23-.61-.42l.05,0c-.1-.09-.3-.19-.33-.28-.15-.27-1.06-1-1.56-1.64,0,.21-.21-.3-.31-.24s-.08-.14,0-.08c-.31-.25-.39-.45-.65-.57,0-.06.09,0,.08,0a.45.45,0,0,1-.13-.11s.06,0,.12.05c-.3-.27-.4-.23-.49-.18a.59.59,0,0,0-.34-.29c0-.08-.09-.18.1,0-.1-.1-.59-.63-.66-.58a.37.37,0,0,0-.17-.16c-.22-.23-.24-.25-.46-.46l.05.07c-.16,0-.2-.17-.39-.33h0c-.2-.26-.32-.3-.38-.31a.56.56,0,0,0-.47.14l.06,0c0,.15-.41.36-.59.64l.11-.07c-.08.17-.46.28-.59.41s0-.06.06-.11c-.36.31,0,.1-.19.38-.08,0,0-.14-.19,0s-.34.61-.61.8c.07,0,.14-.06.05.07s-.53.43-.61.67l0,0a5.21,5.21,0,0,0-.42.61c-.27,0-.72,1-.86.82l-.39.44v0a1.64,1.64,0,0,0-.38.52c-.07.06,0,0,0,0a2.93,2.93,0,0,0-.68.81h-.08a11.25,11.25,0,0,0-.94.94.1.1,0,0,1,0-.06c-.37.48-1.14.91-1.14,1.22l-.24.32c.38-.35,0,.13.19,0-.14.16-.42.32-.25.14l0,0c0-.15-.48.42-.53.36-.37.36-.73.67-1.11,1a.93.93,0,0,0-.31.89,1.56,1.56,0,0,0,.5.68l0-.14.24.23c.05.08,0,.14-.13,0a.6.6,0,0,0,.33.23c.31.35-.2,0-.1.06l.14.12,0,0a1.06,1.06,0,0,1,.38.26c.12.14,0,.11.08.16l.07.07.3.3-.07-.17c.16.11.28.28.2.09a13.41,13.41,0,0,0,1.2,1.26,3.78,3.78,0,0,1,.63.54c0-.06,0-.15.17,0-.19.05.31.4.39.64-.09-.2.58.52.43.22.16.17,0,.06.07.21.43.33.84.86,1.34,1.31,0,0,0-.11.09,0l.18.32c.1.09.18,0,.3.22,0,0,0-.09,0,0,.88,1,2,1.81,2.84,2.88-.1-.16,0-.08.09,0-.06-.07,0,0,0-.07l.34.44c.14,0,.44.42.54.4l-.14-.11c.24.09-.09-.38,0-.44-.26-.11-.39-.6-.81-.79-.06-.08.08,0,.06,0a1,1,0,0,1-.38-.32h0c-.51-.47-.69-.71-1.22-1.27v.08a1.57,1.57,0,0,1-.18-.22c-.2-.07.34.33.14.28-.07-.24-.85-.82-.86-1-.19-.18,0,.1-.18-.08l0-.07h-.08c-.12-.12-.15-.22-.13-.24l.12.1a5,5,0,0,0-.5-.48l.16.19c-.53-.46-1.11-1.09-1.65-1.5v0c-.4-.32-.27-.31-.7-.68h0a1.87,1.87,0,0,1-.33-.27c.12.08-.15-.23,0-.13a1.76,1.76,0,0,0-.57-.34l0-.09a1,1,0,0,1-.36-.24c.2.13-.08-.17.14,0-.36-.49-.71-.54-.8-.84-.29-.09.32.41.19.33.07.11-.23-.09-.35-.23s-.12-.34-.47-.67l.08.06c-.11-.15-.29-.21-.41-.4-.14,0-.2-.2-.3-.15l.34.28a2.73,2.73,0,0,1-.71-.55.82.82,0,0,1,.22.12c-.07-.11-.19-.15-.25-.26s.4.36.64.49c-.06-.12-.41-.3-.24-.28-.22,0-.36-.35-.59-.48l.06,0a.24.24,0,0,1-.1-.12l.11.06c-.13-.13,0-.17.08-.33-.17.28-.11,0-.21.14a.35.35,0,0,1,.25-.3,1,1,0,0,0,.47-.34c-.06.08-.29.23-.2.11a2.43,2.43,0,0,1,.34-.24c.34-.34-.09,0,0-.16s.15-.19.29-.35l0,0c.42-.36,0-.19.4-.5l-.09.2.17-.19v.08a2.18,2.18,0,0,1,.45-.46c-.08,0-.05-.11.12-.28s0,.11.21-.14a.37.37,0,0,1-.2.24s0,.08,0,.1a2.32,2.32,0,0,0,.42-.4l-.11.09.29-.42c.07,0,0,0,0,.08s.1-.15.2-.26c0,.06,0,.09-.08.26l.29-.38s.22-.14.19-.08c.2-.17.38-.53.65-.76l.07-.11a4.16,4.16,0,0,0,.7-.74l.22-.1c.19-.24-.29.15,0-.25s.15,0,.25-.13a1.86,1.86,0,0,1,.52-.65A2.36,2.36,0,0,1,246.32,182.33Zm2.47-2.86c0,.07-.1.2-.16.22S248.7,179.55,248.79,179.47Zm3.75.41a.44.44,0,0,1-.16-.17A.66.66,0,0,1,252.54,179.88Zm7.4,11.26h0C260.07,191,260,191.07,259.94,191.14Zm-.26.22s0,0,0,0,.06-.08.12-.14A.27.27,0,0,0,259.68,191.36ZM241.6,190l0-.06C241.68,190,241.64,190,241.6,190Z"/><path class="cls-19" d="M252,179.49s0,0,0-.05S252,179.44,252,179.49Z"/><path class="cls-19" d="M244.74,184.07h0v0Z"/><path class="cls-19" d="M260.41,187.65a.58.58,0,0,1-.07-.11S260.34,187.58,260.41,187.65Z"/><path class="cls-19" d="M258.5,192.71l.14-.16a1,1,0,0,1-.15.12S258.54,192.66,258.5,192.71Z"/><path class="cls-19" d="M256.91,193.79s-.05.05-.06.08h0C257,193.78,257,193.7,256.91,193.79Z"/><path class="cls-19" d="M258.21,192.71s-.13.09-.23.2l0,0C258,193,258.12,192.84,258.21,192.71Z"/><path class="cls-19" d="M258,192.94l-.1.1S257.91,193,258,192.94Z"/><path class="cls-19" d="M259.41,191.69c-.06,0,0,.08,0,.09S259.66,191.39,259.41,191.69Z"/><polygon class="cls-19" points="258.01 192.69 258.09 192.69 258.12 192.59 258.01 192.69"/><path class="cls-19" d="M258.88,191.86l-.18.16s0,0,0,.07S258.9,191.87,258.88,191.86Z"/><path class="cls-19" d="M258.67,192.09a.54.54,0,0,0-.13.14Z"/><polygon class="cls-19" points="258.23 192.44 258.29 192.39 258.41 192.28 258.23 192.44"/><path class="cls-19" d="M260.72,190l.18-.2s-.06,0-.12.08S260.68,190,260.72,190Z"/><path class="cls-19" d="M260,190.47a.17.17,0,0,1,.12-.05l-.05-.06Z"/><path class="cls-19" d="M260.57,189.9s.23-.31,0-.07C260.56,189.86,260.39,190.07,260.57,189.9Z"/><polygon class="cls-19" points="260.26 187.22 260.31 187.26 260.39 187.17 260.26 187.22"/><path class="cls-19" d="M257.53,185c.2.24.1,0,.28.22.07,0-.14-.18-.07-.15C257.58,185,257.52,184.87,257.53,185Z"/><path class="cls-19" d="M257.74,185.06l.08.05Z"/><polygon class="cls-19" points="250.45 198.53 250.58 198.69 250.51 198.57 250.45 198.53"/><path class="cls-19" d="M250.8,198.73l0,.09.14,0S250.81,198.77,250.8,198.73Z"/><path class="cls-19" d="M249.28,179.15v0s-.07,0-.14.12Z"/><polygon class="cls-19" points="247.44 181.19 247.47 181.15 247.36 181.17 247.44 181.19"/><path class="cls-19" d="M246,183l.19-.23C246,182.89,245.88,182.91,246,183Z"/><path class="cls-19" d="M256.81,193.26s.05,0,.06,0S256.8,193.27,256.81,193.26Z"/><polygon class="cls-19" points="256.49 193.08 256.5 193.07 256.43 193.07 256.49 193.08"/><path class="cls-19" d="M256.26,192.84c0,.08.09.08.11.14v0l.07,0C256.37,192.93,256.28,192.89,256.26,192.84Z"/><path class="cls-19" d="M256.28,192.58s0,0,0,0v0Z"/><path class="cls-19" d="M256.3,192.6s0,0,0,0Z"/><path class="cls-19" d="M256.18,192.5h.05s0,0,0,0S256.18,192.46,256.18,192.5Z"/><path class="cls-19" d="M256.1,192.51h0S256.13,192.51,256.1,192.51Z"/><path class="cls-19" d="M256.18,192.54l-.05,0s0,0,0,0S256.15,192.54,256.18,192.54Z"/><path class="cls-19" d="M256.19,192.57s0,.06,0,.05S256.26,192.63,256.19,192.57Z"/><path class="cls-19" d="M256.18,192.89v0h0S256.2,192.87,256.18,192.89Z"/><path class="cls-19" d="M256,192.26s0,.05,0,.06h0S256,192.28,256,192.26Z"/><path class="cls-19" d="M256,192.32h-.05S256,192.34,256,192.32Z"/><polygon class="cls-19" points="256.02 192.57 256.13 192.59 256.01 192.56 256.02 192.57"/><polygon class="cls-19" points="255.88 192.12 255.94 192.11 255.85 192.12 255.88 192.12"/><path class="cls-19" d="M255.79,192s0-.06.06-.06a.35.35,0,0,0-.11,0A.09.09,0,0,1,255.79,192Z"/><path class="cls-19" d="M255.68,191.94h0Z"/><path class="cls-19" d="M255.86,192.24a.07.07,0,0,0,0-.07l0,.06Z"/><path class="cls-19" d="M255.85,192.23h0l0,0Z"/><path class="cls-19" d="M255.87,192.24h0Z"/><path class="cls-19" d="M256,192.44c-.05,0-.11,0-.1.05S255.9,192.44,256,192.44Z"/><path class="cls-19" d="M255.83,192.31l0,.05s0,0,0,0Z"/><polygon class="cls-19" points="255.81 192.3 255.84 192.31 255.82 192.29 255.81 192.3"/><path class="cls-19" d="M255.7,192a.1.1,0,0,1-.07,0,.22.22,0,0,0,.05.08S255.73,192.06,255.7,192Z"/><path class="cls-19" d="M255.77,192.13Z"/><polygon class="cls-19" points="255.44 191.8 255.43 191.81 255.44 191.8 255.44 191.8"/><path class="cls-19" d="M255.68,192.09s0,0,0,0l0,0S255.67,192.09,255.68,192.09Z"/><path class="cls-19" d="M255.6,191.9s0,0,0,0S255.62,191.89,255.6,191.9Z"/><path class="cls-19" d="M255.77,192.12h0S255.77,192.11,255.77,192.12Z"/><path class="cls-19" d="M255.77,192.12h0Z"/><path class="cls-19" d="M255.13,192a.07.07,0,0,1,.11.05c.06,0,.16-.12.19-.21s0,0-.09,0,0,.13,0,.13,0-.05,0-.1-.12,0-.18.07l.07,0S255.13,192,255.13,192Z"/><path class="cls-19" d="M255.5,191.88l0,0a.28.28,0,0,1,0-.1s-.06,0-.07,0l.07.08Z"/><path class="cls-19" d="M255.59,192c-.06,0-.11,0-.13.06s.07,0,.11,0,0,0,0-.08l0,0s0,0,0-.05h0s0,0,0,0h0l-.09,0Z"/><path class="cls-19" d="M255.75,192.53h0S255.74,192.52,255.75,192.53Z"/><path class="cls-19" d="M255.74,192.48s0,0,0,0,0,0,0,0,.07,0,.05,0h0a.24.24,0,0,1,0-.13A.52.52,0,0,0,255.74,192.48Z"/><path class="cls-19" d="M255.65,192.23l-.08,0v.06l0,0S255.63,192.24,255.65,192.23Z"/><polygon class="cls-19" points="255.45 191.77 255.5 191.74 255.41 191.76 255.45 191.77"/><polygon class="cls-19" points="255.37 191.69 255.41 191.66 255.37 191.66 255.37 191.69"/><path class="cls-19" d="M251,191.67v0Z"/><path class="cls-19" d="M251,191.55h0S251,191.56,251,191.55Z"/><path class="cls-19" d="M253.48,189.68c0-.06,0-.14,0-.09l0,0A.05.05,0,0,1,253.48,189.68Z"/><polygon class="cls-19" points="251.79 190.31 251.81 190.31 251.79 190.26 251.79 190.31"/><path class="cls-19" d="M251.93,190.49h0Z"/><path class="cls-19" d="M251.14,192.32h.06S251.17,192.3,251.14,192.32Z"/><path class="cls-19" d="M254.57,190.87a.22.22,0,0,0,0-.08C254.54,190.84,254.53,190.89,254.57,190.87Z"/><path class="cls-19" d="M250.46,191.39s0,0,0,0S250.47,191.39,250.46,191.39Z"/><path class="cls-19" d="M254.47,190.72v0a.13.13,0,0,1,.06,0S254.52,190.72,254.47,190.72Z"/><path class="cls-19" d="M253.68,194.82h0S253.69,194.82,253.68,194.82Z"/><path class="cls-19" d="M254.09,195.94l0,0Z"/><path class="cls-19" d="M255.08,191.35Z"/><path class="cls-19" d="M255,191.58h0Z"/><path class="cls-19" d="M254.07,190.77Z"/><path class="cls-19" d="M255.08,191.39a0,0,0,0,0,0,0A0,0,0,0,1,255.08,191.39Z"/><path class="cls-19" d="M255.1,191.37v0S255.12,191.38,255.1,191.37Z"/><path class="cls-19" d="M255.05,191.33s0,0,0,0a0,0,0,0,1,0,0Z"/><path class="cls-19" d="M252.16,193.59h0S252.18,193.6,252.16,193.59Z"/><polygon class="cls-19" points="252.74 189.8 252.74 189.8 252.74 189.8 252.74 189.8"/><path class="cls-19" d="M252.71,189.84c0-.07,0-.06,0,0a1,1,0,0,0,0-.17A.75.75,0,0,0,252.71,189.84Z"/><path class="cls-19" d="M250.94,192s0,0,0,0,.06.06.13,0c-.18,0,0-.11-.19-.13l0,0s0,0,0,0-.11-.05-.07-.12a0,0,0,0,1,.07,0l0-.06a0,0,0,1,1,0,0l0-.08h0a.21.21,0,0,1,0-.1s0,0,0,0v-.07s0,.07,0,.1c.16.05,0-.07.13-.1v.06c.09,0,.09,0,.17,0s-.19,0-.18-.08,0,0,0-.06.05,0,.08,0l.06.05c0-.05,0-.07,0-.12s.1,0,.14,0-.11,0,0-.11.09-.09.12-.18,0,0,.06,0l0-.08,0,0s-.05-.06,0-.12.18,0,.17-.12,0,0,.05.06a.56.56,0,0,0,0-.22h.09c-.08,0-.08-.11-.08-.19h-.08l0-.1s0,0,0,.06v0s.06,0,.08.09h-.06a.46.46,0,0,0,.07.14.06.06,0,0,1,0,0l0,0s0,0,0,0l.08,0,0,0,.12,0a.78.78,0,0,1,0-.4c0,.07.07.08.12.13s-.05.1-.11.14.05,0,.05,0l0-.14s.06,0,.1,0c-.11-.07,0-.12,0-.19s.05.07,0,.11c.12,0,0-.17.07-.17s0,0,0,0,.08-.09.09,0h0c.09-.07.15-.12.16-.23l0,.15a.53.53,0,0,1,.15-.36c0,.09,0,.31-.08.36s0,0,.06,0,0-.14,0-.14a1,1,0,0,1,0,.16s.08-.14.11-.11-.08.11-.1.12a.34.34,0,0,1,.15-.06s-.08.08-.1.12,0,.06.08.06v-.05c.05.09.21,0,.29,0s-.16.09-.13.15a1,1,0,0,1,.44-.12l0,.05.09,0a2.73,2.73,0,0,1-.48.1s0,0,0,.09-.07,0-.09,0l.09.12c.05-.06.14,0,.18,0l-.17-.06c.06-.06.24-.09.3,0s-.12.09-.14.11.11,0,.1.06h-.06c0,.06.14,0,.13.1s0,.12,0,.09a1.12,1.12,0,0,1,.32-.33.46.46,0,0,1,0,.21c0,.08-.17.08-.19.15s0,0,.06,0-.06,0,0,.07.07.09.07,0c0,0,0,.06.07.1a.27.27,0,0,1,.23-.06.07.07,0,0,0,0,.05c.07.09.08.16.15.24s0,.07,0,.08.05,0,.07,0,0-.05-.09,0,.11,0,.16,0-.06-.09-.11-.1a.3.3,0,0,1,.32,0c.08.05,0,.07,0,.08s.22,0,.26.12-.09.09-.12.14,0-.11-.08-.15l0,.07s-.08,0-.08-.06.18.21.22.34.08,0,.09,0l0,0c0-.06.11,0,.09,0s.15,0,.18.09l-.05.06s0-.06,0-.06,0,.15.1.11v-.08c.07,0,.17,0,.2.08s0,0,0-.1c-.05.1-.11-.13-.15,0,0-.11,0-.1,0-.2s0,.05,0,0h0a.06.06,0,0,1,0,0c-.06,0-.12,0-.16-.05s0,0,0,0h-.06s0-.13.08-.09l-.05,0a.12.12,0,0,0-.07-.12s-.1,0,0,0l-.1-.06h0c-.07-.08-.22-.1-.23-.26a.19.19,0,0,1-.11-.09l0,0c-.05,0-.06-.14-.11-.12s-.14-.18-.18-.26l-.05,0a.36.36,0,0,0-.15-.1l0,0c-.07,0-.07-.14-.14-.21s0,0,0,0c0-.17-.23-.11-.24-.25s0,0,0-.05h0v0l-.07,0,0-.05h0s0,0-.06,0h-.06c.06-.09-.08,0,0-.14s-.18-.1-.25,0,0,0,0,0-.06-.07-.11-.06v-.08a.35.35,0,0,0-.12.07c-.05-.06-.08-.08,0-.13-.15.07-.13,0-.23.13v-.05s-.08.1-.11.08-.34.26-.52.32c.13.07-.11,0,0,.1s-.07,0-.07-.06-.14.06-.12.18,0-.05,0-.06,0,0,0,0,0,0,0-.05,0,.15.07.23-.08,0-.06.09-.08,0,0-.06-.18.11-.13.17,0,0,0,0l-.11.11h0c0,.09,0,.06-.06.11h0c-.14,0,0,.07-.17.11l.05,0c.08.1-.14,0-.16.13h0c0,.06-.21,0-.26,0s0,0,0,0,.05.06,0,.14-.06-.08-.11,0,0,.22-.13.25c0,0,.08,0,.07.06s-.2.1-.14.21h0c0,.06,0,.18,0,.23-.22,0,.07.34-.1.34a1.36,1.36,0,0,0,0,.17h0a.15.15,0,0,0,.13.14s0,0,0,0c0,.16,0,.17.19.22l-.05,0c.05,0,.05.23.2.29,0,0,0,0,0,0,.15.07.13.39.33.27l.11,0c-.08-.09.08-.05.06-.12s0,.14,0,.11v0c-.1.07.08.14,0,.19.18.16.31.37.47.53l0-.08.06.06s0,.07-.07,0,.1,0,.11,0-.1.05-.08.08l0,0h0s.08,0,.13,0,0,.06,0,.07,0,0,0,0l.07.07,0-.08c.06,0,.07.07.09,0,0,.14.24.29.25.34a.25.25,0,0,1,.17.11s.05-.09.09,0c-.13.1,0,.13,0,.26,0-.09.15.11.17,0,0,0,0,0,0,.1s.18.23.31.32,0-.06.07-.06v.14s.1-.07.09,0,0,0,0,0c.16.29.53.37.63.74,0-.06,0-.05,0,0s0,0,.06-.06l0,.15c.07,0,.11.09.17.05l0,0c.11,0,.09-.21.17-.29-.12,0,0-.22-.19-.18,0,0,0,0,.05-.05s-.09,0-.11,0h0a1.53,1.53,0,0,1-.26-.34l0,0a.12.12,0,0,1,0-.08c-.09,0,.08.08,0,.13,0-.13-.2-.2-.14-.32s0,.06-.07,0v0l0,0a.09.09,0,0,1,0-.11l0,0c0-.07-.11-.09-.12-.11l0,0c-.15-.08-.26-.26-.43-.32v0c-.13,0-.05-.09-.17-.16h0a.18.18,0,0,1-.1,0c.05,0,0-.09.05-.09-.13-.05-.07,0-.21,0l0,0c-.05,0-.07,0-.13,0s0-.08.1-.07c0-.17-.22-.07-.17-.23-.14.05,0,.14,0,.13s-.11,0-.13,0,.05-.17,0-.25,0,0,0,0-.09,0-.09-.1,0-.05-.12,0l.09.05c-.06,0-.18,0-.22-.08h.09s-.06,0-.06-.06.11.07.21.06-.14,0,0-.09c-.13.07-.07-.09-.2-.07l0,0s-.05,0-.06,0l.08,0c-.09,0,0-.12-.12-.14.09.09,0,.07,0,.14-.17,0,0-.17-.1-.27,0,0,0,.09,0,.08a.23.23,0,0,1,0-.11c-.09-.07,0,0-.08,0s-.07,0-.12,0l0,0c-.07-.12-.11.07-.16-.05l.09,0-.06,0,.06,0c-.09,0-.09,0-.13-.09a.08.08,0,0,1-.12,0s.06,0,0-.07.09,0,.08,0l.05,0c0-.06-.07-.08-.09-.1a.08.08,0,0,1,0,0l-.14,0s0,0,.05,0-.05,0-.08,0,.08-.07.12-.05l-.1,0s0-.07,0-.08-.16,0-.17-.12h0c0-.07,0-.14-.09-.17l.06-.07s-.08.09-.14,0,.06,0,.08-.07-.15-.06-.08-.12S250.93,191.94,250.94,192Zm.19-.61s0,.07,0,.06S251.1,191.36,251.13,191.35Zm.83-1s0,0,0,0S251.94,190.3,252,190.3Zm2.9.89Zm0,.08a0,0,0,0,0,0,0s0,0,0,0S254.87,191.26,254.9,191.27Zm-2.83,2.79v0S252.09,194.05,252.07,194.06Z"/><path class="cls-19" d="M251.91,190.46h0S251.89,190.47,251.91,190.46Z"/><polygon class="cls-19" points="251.13 192.32 251.13 192.32 251.14 192.32 251.13 192.32"/><path class="cls-19" d="M253.68,190.7s0,0,0,0S253.66,190.68,253.68,190.7Z"/><path class="cls-19" d="M255.26,191.51l0,0s0,0,0,.05S255.25,191.5,255.26,191.51Z"/><path class="cls-19" d="M255.3,192.09h0l0,0S255.29,192.06,255.3,192.09Z"/><path class="cls-19" d="M255.15,191.68s0,0,0,.07h0C255.24,191.7,255.2,191.69,255.15,191.68Z"/><path class="cls-19" d="M255.19,191.75l0,0S255.21,191.76,255.19,191.75Z"/><path class="cls-19" d="M255,191.32s.06,0,0,0S254.9,191.27,255,191.32Z"/><polygon class="cls-19" points="255.05 191.81 255.09 191.76 255.04 191.78 255.05 191.81"/><path class="cls-19" d="M254.89,191.58l0,0h0S254.9,191.56,254.89,191.58Z"/><path class="cls-19" d="M254.94,191.63l0,0S255,191.63,254.94,191.63Z"/><polygon class="cls-19" points="254.98 191.77 254.98 191.75 254.96 191.72 254.98 191.77"/><path class="cls-19" d="M254.47,191.11l-.05,0a0,0,0,0,0,0,0S254.47,191.13,254.47,191.11Z"/><path class="cls-19" d="M254.48,191.37s0,0,0-.05l-.05.05Z"/><path class="cls-19" d="M254.34,191.25s-.11,0-.05,0S254.37,191.3,254.34,191.25Z"/><polygon class="cls-19" points="253.76 190.49 253.77 190.5 253.87 190.41 253.76 190.49"/><path class="cls-19" d="M253,190.08c0,.07.07,0,.09,0s0-.06,0-.06S253,190,253,190.08Z"/><path class="cls-19" d="M253.07,190.05h0Z"/><polygon class="cls-19" points="254.17 196.11 254.19 196.16 254.2 196.11 254.17 196.11"/><path class="cls-19" d="M254.3,196.1l0,.07.07,0S254.3,196.12,254.3,196.1Z"/><path class="cls-19" d="M251.33,191.37h0s0,0,0,0Z"/><polygon class="cls-19" points="251.02 191.74 251.02 191.73 250.95 191.72 251.02 191.74"/><path class="cls-19" d="M251.11,192s0,0,0,0S251,192.05,251.11,192Z"/><path class="cls-19" d="M250.42,177.54s0,.05,0,.07S250.41,177.53,250.42,177.54Z"/><polygon class="cls-19" points="251.05 176.97 251.05 176.99 251.16 176.86 251.05 176.97"/><path class="cls-19" d="M252,176.36c-.24.06-.3.22-.51.32h0s0,.06,0,.08A5.57,5.57,0,0,1,252,176.36Z"/><path class="cls-19" d="M253,175.93c-.13,0,.06-.08-.17.1l.05,0Z"/><path class="cls-19" d="M252.83,176c-.12.08.15-.07,0,0Z"/><path class="cls-19" d="M253.34,175.65l-.07.08c.09,0,.26-.15.25-.12S253.53,175.55,253.34,175.65Z"/><path class="cls-19" d="M253.27,175.61l0,0S253.31,175.62,253.27,175.61Z"/><path class="cls-19" d="M253.16,175.74l.08-.09c-.07,0-.16.06-.05,0C253.12,175.71,253.17,175.7,253.16,175.74Z"/><path class="cls-19" d="M253,175.81c-.14.07-.27.15-.22.07C252.57,176.05,252.76,176,253,175.81Z"/><path class="cls-19" d="M251.83,176.34l-.13.06,0,0S251.89,176.34,251.83,176.34Z"/><path class="cls-19" d="M254.52,174.91l-.38.17,0,0C254.23,175.06,254.39,175,254.52,174.91Z"/><path class="cls-19" d="M254.14,175.08l0-.06C254,175.12,254,175.12,254.14,175.08Z"/><path class="cls-19" d="M253,175.7a.44.44,0,0,1,0,.1.49.49,0,0,0,.06-.13Z"/><polygon class="cls-19" points="254.58 174.7 254.91 174.59 254.39 174.77 254.58 174.7"/><path class="cls-19" d="M254,174.83c.23-.08.1-.08.29-.14a6.76,6.76,0,0,0-.65.2A1.09,1.09,0,0,1,254,174.83Z"/><path class="cls-19" d="M253.32,175l.32-.11Z"/><path class="cls-19" d="M254.43,174.84s.15-.08.1-.08l-.17.09Z"/><path class="cls-19" d="M254.35,174.86h0l-.15,0Z"/><path class="cls-19" d="M254.45,174.83h0Z"/><path class="cls-19" d="M253.52,175.38s0-.07-.34.1C253.27,175.47,253.47,175.36,253.52,175.38Z"/><path class="cls-19" d="M254.07,175l-.21.13.21-.08Z"/><polygon class="cls-19" points="254.04 175 254.07 175 254.07 175.01 254.15 174.96 254.12 174.97 254.04 175"/><path class="cls-19" d="M253.53,175a3.63,3.63,0,0,1-.4.11l.3-.05C253.5,175,253.66,175,253.53,175Z"/><path class="cls-19" d="M253.92,174.94h0S253.88,175,253.92,174.94Z"/><polygon class="cls-19" points="252.07 175.34 252.07 175.35 252.09 175.34 252.07 175.34"/><path class="cls-19" d="M253.41,175.09a1.34,1.34,0,0,0,.26-.08l-.24.06S253.37,175.1,253.41,175.09Z"/><path class="cls-19" d="M252.92,175.11H253S253,175.08,252.92,175.11Z"/><path class="cls-19" d="M253.91,174.93h0Z"/><path class="cls-19" d="M253.91,174.93l-.24.08.21-.06Z"/><path class="cls-19" d="M251.28,175.85c.07-.06.3-.16.33-.11.19-.08.47-.3.46-.39a1.31,1.31,0,0,1-.32.14s.27,0,.05.1-.13,0-.2,0-.38.17-.42.27l.18-.07S251.26,175.84,251.28,175.85Z"/><path class="cls-19" d="M252.43,175.28l.1,0c-.07,0-.09,0-.15,0a1.18,1.18,0,0,0-.29.13l.39-.08Z"/><path class="cls-19" d="M252.9,175.17a2.63,2.63,0,0,0-.51.25c.21,0,.27-.11.47-.17-.4.1.2-.07,0-.07l.25-.06H253s0,0,0,0h0l-.07,0c-.08,0,0,0,.07,0l0,0h0l-.47.13A2.27,2.27,0,0,0,252.9,175.17Z"/><path class="cls-19" d="M252.83,175.58l.06,0Z"/><path class="cls-19" d="M253.06,175.46s.1,0,0,0l-.19.08a.7.7,0,0,0,.26-.1h0c.17-.1.62-.32.64-.32Z"/><path class="cls-19" d="M253.25,175.24l-.36.1,0,.06.1-.05A1.45,1.45,0,0,0,253.25,175.24Z"/><polygon class="cls-19" points="252.07 175.31 252.22 175.22 251.89 175.37 252.07 175.31"/><polygon class="cls-19" points="251.63 175.41 251.7 175.34 251.55 175.41 251.63 175.41"/><path class="cls-19" d="M240.2,183V183A.15.15,0,0,0,240.2,183Z"/><path class="cls-19" d="M240.34,182.56l0,0S240.33,182.58,240.34,182.56Z"/><path class="cls-19" d="M244.74,176.85c-.1,0-.21-.08-.19,0l0,0A.44.44,0,0,1,244.74,176.85Z"/><path class="cls-19" d="M241.09,179l0,0,0-.07Z"/><path class="cls-19" d="M241.29,179.14l-.07.11A.52.52,0,0,0,241.29,179.14Z"/><path class="cls-19" d="M239.48,185.28l0,.09C239.55,185.26,239.5,185.3,239.48,185.28Z"/><path class="cls-19" d="M248.5,176.08h-.19C248.41,176.1,248.49,176.13,248.5,176.08Z"/><path class="cls-19" d="M239.71,182.64s0,.06,0,.06S239.72,182.64,239.71,182.64Z"/><path class="cls-19" d="M248.1,176.13h0a.69.69,0,0,1,.17,0A.26.26,0,0,0,248.1,176.13Z"/><path class="cls-19" d="M237.88,190.24h0Z"/><path class="cls-19" d="M240,188.82l-.06.08Z"/><path class="cls-19" d="M250.13,175.7c.05,0,0,0,0,0Z"/><path class="cls-19" d="M250.44,175.85a0,0,0,0,0,0,0S250.44,175.86,250.44,175.85Z"/><path class="cls-19" d="M247.61,176.58h0Z"/><path class="cls-19" d="M250.22,175.7h0Z"/><path class="cls-19" d="M250.2,175.68h.05S250.25,175.66,250.2,175.68Z"/><path class="cls-19" d="M250.05,175.72l.09,0h0Z"/><path class="cls-19" d="M237.88,189h0C237.87,189.08,237.87,189.05,237.88,189Z"/><polygon class="cls-19" points="243.4 177.7 243.41 177.69 243.4 177.69 243.4 177.7"/><path class="cls-19" d="M243.21,177.78a.2.2,0,0,1,.19-.08l-.1-.14Z"/><path class="cls-19" d="M239.88,184l.1-.12c0,.19,0,.3.06.19-.15-.07.16-.54,0-.61l.07-.08s0,0,0,.06c.13-.15-.08-.17,0-.39,0-.07.08-.12.08-.06l0-.19s0,0,0,0l.07-.27h0a.58.58,0,0,1,0-.19c.05-.06,0,0,0,0v-.16c.06-.05.06.09,0,.19.21-.09,0-.14.19-.41l0,.15c.12-.06.12-.18.22-.33,0,0-.24.28-.23.1a.31.31,0,0,0,.05-.19c.05,0,.07-.08.1-.18l.07,0c0-.13,0-.13,0-.21a.21.21,0,0,1,.17-.15c.07-.2-.14.12-.08-.13a1.13,1.13,0,0,0,.1-.51c.06-.12,0,0,.08,0l0-.12s0,0,0,0-.07,0-.05-.18.21-.26.16-.46c0,0,0,0,.07,0a1.58,1.58,0,0,0,0-.44l.09-.15c-.09.1-.11-.07-.13-.23l-.09.09,0-.23s0,0,.06.05v0c.06-.07.09,0,.11.05l-.06.06c0,.07.06.14.11.14v-.08s0,0,0,0,0,0,0-.07l.1,0,0,0c0-.09.09-.17.13-.25a.88.88,0,0,1,.13-.71c0,.1.07.08.11.14s-.11.19-.19.32c0-.07.07,0,.07,0a1.12,1.12,0,0,1,.08-.26c0,.05.07,0,.14,0-.13-.07.09-.18.19-.25s0,.09-.11.13c.15,0,.12-.21.3-.18,0,0-.06,0-.07,0s.29-.08.25,0h0c.25,0,.75-.16.77-.27a1.15,1.15,0,0,1,0,.16l.37-.44c0,.09.17.27,0,.37a.48.48,0,0,0,.25-.06s-.12-.11-.07-.13a1.24,1.24,0,0,0,.32.08c-.07,0,0-.16.07-.18s0,.14,0,.16l.21-.19c-.05,0,0,.12.08.15s.2,0,.26-.07h-.11c.28,0,.23-.24.5-.29,0,0,0,.19.09.18a1.19,1.19,0,0,1,.43-.5l.05,0,.17-.08a4.22,4.22,0,0,1-.51.54c.11,0,0,0,.19,0s-.07.08-.12.09l.36,0c0-.08.25-.14.22-.2l-.36.16c0-.08.17-.28.42-.32.07,0,0,.16,0,.19a.45.45,0,0,1,.25-.09l-.09.06c.14,0,.2-.15.38-.11s.2.07.2,0a.47.47,0,0,1-.15-.44,2.59,2.59,0,0,1,.4.06c.1.05-.11.2,0,.25s.05-.06.07-.08,0,.08.12,0,.26,0,0-.08c.13-.05.14,0,.29-.05-.06,0,.1-.21.22-.26s0,0,.05.06c.26-.05.41,0,.65-.09,0,0,.15,0,.11.06a.36.36,0,0,1,.13-.08c.16.05-.16.05,0,.11s.18-.1.28-.16c-.05-.06-.25,0-.35.09s.14-.24.38-.35.11.05.14,0c.38-.06.28-.25.62-.24.14,0,0,.13.07.17-.16.06-.27,0-.38,0h.15a.57.57,0,0,1-.22.07c.12,0,.64-.12,1-.13,0,0,.13-.08.08-.09l-.09,0c-.09,0,.16-.11,0-.11a.88.88,0,0,1,.43-.16l.05.06s-.13,0-.17,0,.29,0,.4-.08l-.15,0a2.18,2.18,0,0,1,.68-.24c0-.07,0,0-.18,0,.1.1-.66.14-.43.21a.43.43,0,0,0-.25,0,.79.79,0,0,1-.2,0s.06,0-.07.05l0,0h0l.07,0c-.05.07-.26.11-.32.16s0,0,0-.06l-.1.07c0-.05-.22-.05-.05-.12l-.16,0a.68.68,0,0,0-.32.05c-.08,0-.18.1-.12,0L249,176h0a2.53,2.53,0,0,1-.81.16,1.48,1.48,0,0,1-.32.08l0,0c-.11,0-.34,0-.38.08-.15-.1-.54.08-.74.1v.06a3.25,3.25,0,0,0-.42.13l0,0c-.13.08-.37,0-.59.09,0,0,.06,0,.11,0-.3-.06-.55.21-.81.17a.18.18,0,0,1-.15,0h0l-.19.07,0-.06h0c-.07,0,0,0,0,.07l-.08.06c-.08-.08-.18.07-.28,0,0,.06-.34.11-.35.22s0,0,0,0a.46.46,0,0,0-.23.05l0-.06-.14.13c-.12,0-.17,0-.08-.12-.22.14-.19.08-.38.21v-.05c-.07,0-.18.1-.23.07a1.84,1.84,0,0,0-.55.06,2.1,2.1,0,0,0-.8.32c.17,0-.23.13-.14.23s-.1.05-.08,0c-.12.24-.24.33-.22.52,0,0,0-.07-.05-.05s0,.08,0,.1,0,0,0-.09c-.08.25,0,.3.11.34a.22.22,0,0,0-.05.26s-.09.08-.06-.06c0,.08-.18.46-.11.49a.31.31,0,0,0,0,.13c-.05.17-.07.18-.11.36l0-.05c.07.1,0,.15,0,.29h0c-.16.3,0,.15-.17.43h.06c.11.07-.15.26-.16.45l0-.06c0,.11-.25.23-.29.32s0,0,0-.07c-.15.23.07,0,0,.25,0,0-.08-.08-.13,0s0,.41-.12.56c0,0,.09,0,.08,0s-.23.33-.17.48l0,0a1.68,1.68,0,0,0,0,.43c-.23,0-.12.67-.3.61l-.09.32h0a.51.51,0,0,0,0,.37s0,0,0,0a.88.88,0,0,0-.14.59H239c0,.08-.24.39-.28.71a.2.2,0,0,1,0-.05c0,.35-.44.72-.28.92l0,.23c.12-.27.08.07.16,0,0,.12-.17.26-.13.12h0c-.09-.09-.17.32-.24.29-.2.54-.47,1-.68,1.54l.11,0-.07.17s-.1,0,0-.08c-.08,0-.05.22,0,.23-.13.23-.06-.13-.09-.06l0,.11,0,0c0,.09,0,.12,0,.26s-.07,0-.09.07a.12.12,0,0,0,0,.05l-.1.22.1-.06c0,.11-.09.21,0,.14a.35.35,0,0,0-.14.18c-.06.11-.13.26-.19.4a6.77,6.77,0,0,1-.28.63,1.3,1.3,0,0,1-.18.53c.06-.09.23-.28.14-.09a2.1,2.1,0,0,0-.43.65.54.54,0,0,1-.05.16c0-.11.55-.37.51-.48.12-.06-.08.12,0,.13.4-.34.7-.39,1.18-.8,0,0-.07,0,0-.13l.24-.06c.09-.09,0-.18.2-.24,0,0-.08,0,0,0,.64-.45,1-1.16,1.68-1.61-.1.05,0,0,0-.07s0,0-.07,0l.27-.19c0-.1.22-.27.18-.34l-.05.08c0-.16-.28,0-.36-.08,0,.18-.38.2-.43.48-.05,0,0-.06,0-.05s-.05.14-.16.23v0a5.91,5.91,0,0,1-.72.68l.06,0a.42.42,0,0,1-.14.08c0,.14.19-.18.19,0-.17,0-.47.47-.63.42-.1.1.08,0,0,.12H238l0,.05c-.06,0-.1,0-.11,0s0,0,0,0-.11.12-.12.12h0c-.15.17-.24.18-.53.48l0,.06c-.19.18-.17.13-.09,0s0,0,0,0h0s0,0,0,0,.16-.21.21-.23-.06,0-.18,0l.09-.09s-.08,0,0-.09c0,.06.12-.11.16-.07.1-.12.09-.15.09-.2a.11.11,0,0,1,.09-.13c-.07-.15-.14.17-.14.1s-.07-.09,0-.19.22-.11.32-.36c0,0,0,0,0,.05s0-.2.13-.3.06-.15,0-.2l-.07.24c0-.14,0-.31.11-.5a.53.53,0,0,1,0,.14c.05-.05,0-.13.08-.18s-.09.29-.08.46c.07-.05,0-.29.11-.18-.08-.16.12-.25.09-.46l0,0a.44.44,0,0,1,0-.15l0,.12c0-.17.15-.25.17-.4-.1.28-.09,0-.17.14.06-.37.22-.14.34-.54,0,.06-.11.19-.1.09a1.56,1.56,0,0,1,.14-.19c.09-.26-.07,0-.06-.1s0-.14,0-.26l.06,0c.15-.28-.09-.12.06-.37l0,.14,0-.14.06.05a.69.69,0,0,1,.11-.35c-.05,0-.1-.06-.05-.19s0,.07.1-.12c0,.06,0,.12,0,.18s0,0,0,.07a1.1,1.1,0,0,0,.12-.31.21.21,0,0,1,0,.07l0-.3s0,0,0,.05,0-.1,0-.19.09.05.07.17l0-.27s.1-.11.11-.07c.07-.14,0-.38.13-.56v-.08a1.29,1.29,0,0,0,.2-.54l.12-.09c0-.17-.16.12-.09-.16s.09-.05.14-.11a.61.61,0,0,1,.09-.47A.84.84,0,0,1,239.88,184Zm.63-2.06s0,.13,0,.15S240.47,182,240.51,181.93Zm.78-3.17s0,.07,0,.12A.31.31,0,0,1,241.29,178.76Zm8.24-2.89h0C249.43,175.87,249.46,175.88,249.53,175.87Zm.19,0s0,0,0,0-.06,0-.1,0S249.67,175.88,249.72,175.86Zm-12.45,13.56,0,0C237.29,189.47,237.28,189.44,237.27,189.42Z"/><path class="cls-19" d="M241.27,179.13h0S241.25,179.16,241.27,179.13Z"/><path class="cls-19" d="M239.48,185.26h0Z"/><path class="cls-19" d="M246.9,177h-.08S246.84,177,246.9,177Z"/><path class="cls-19" d="M250.84,175.52l-.21.06.18,0S250.77,175.54,250.84,175.52Z"/><path class="cls-19" d="M251.81,175.7l.08,0,.06,0C251.86,175.65,251.76,175.7,251.81,175.7Z"/><path class="cls-19" d="M251,175.7c0,.05.09,0,.21,0h0C251.24,175.6,251.09,175.65,251,175.7Z"/><path class="cls-19" d="M251.19,175.67l.11,0S251.26,175.65,251.19,175.67Z"/><path class="cls-19" d="M250,175.78c.05,0,0-.07,0-.06S249.74,175.86,250,175.78Z"/><polygon class="cls-19" points="250.96 175.87 250.96 175.81 250.88 175.87 250.96 175.87"/><path class="cls-19" d="M250.28,176l.14,0s0,0,0,0S250.27,176,250.28,176Z"/><path class="cls-19" d="M250.45,175.93l.11,0Z"/><polygon class="cls-19" points="250.77 175.93 250.73 175.92 250.63 175.94 250.77 175.93"/><path class="cls-19" d="M248.82,176.26l-.14,0s0,0,.08,0S248.85,176.27,248.82,176.26Z"/><path class="cls-19" d="M249.3,176.33s0,0-.07,0v.07Z"/><path class="cls-19" d="M248.88,176.44s-.21.1,0,.06C248.87,176.47,249,176.43,248.88,176.44Z"/><polygon class="cls-19" points="246.63 176.81 246.67 176.8 246.64 176.67 246.63 176.81"/><path class="cls-19" d="M244.74,177.51c.18,0,0-.09.19-.08s-.14,0-.1,0S244.67,177.44,244.74,177.51Z"/><path class="cls-19" d="M244.83,177.39l0,0Z"/><polygon class="cls-19" points="240.31 188.54 240.4 188.47 240.32 188.5 240.31 188.54"/><path class="cls-19" d="M240.38,188.32l.08,0v-.1S240.41,188.31,240.38,188.32Z"/><path class="cls-19" d="M240.76,181.67h0s0,0-.05.08Z"/><polygon class="cls-19" points="240.23 183.14 240.24 183.12 240.16 183.14 240.23 183.14"/><path class="cls-19" d="M239.9,184.42l0-.17C239.92,184.37,239.81,184.4,239.9,184.42Z"/><path class="cls-19" d="M246.91,184.4s0,0,0,.06S246.9,184.4,246.91,184.4Z"/><polygon class="cls-19" points="247.09 184.06 247.1 184.08 247.1 184 247.09 184.06"/><path class="cls-19" d="M247.33,183.82c-.08,0-.08.1-.14.12h0l0,.07C247.24,183.94,247.28,183.84,247.33,183.82Z"/><path class="cls-19" d="M247.6,183.83s0-.05,0,0h0Z"/><path class="cls-19" d="M247.57,183.85s0,0,0,0Z"/><path class="cls-19" d="M247.68,183.72l0,.05s.06,0,.06,0S247.72,183.72,247.68,183.72Z"/><path class="cls-19" d="M247.66,183.64v0S247.67,183.67,247.66,183.64Z"/><path class="cls-19" d="M247.64,183.72v-.05s0,0,0,0S247.64,183.69,247.64,183.72Z"/><path class="cls-19" d="M247.61,183.73s-.07,0-.06,0S247.55,183.81,247.61,183.73Z"/><path class="cls-19" d="M247.28,183.74h0v0S247.3,183.76,247.28,183.74Z"/><path class="cls-19" d="M247.92,183.54s0,0-.07,0v0S247.9,183.52,247.92,183.54Z"/><path class="cls-19" d="M247.85,183.5l0-.06S247.84,183.49,247.85,183.5Z"/><polygon class="cls-19" points="247.6 183.56 247.59 183.67 247.61 183.55 247.6 183.56"/><polygon class="cls-19" points="248.06 183.4 248.07 183.45 248.07 183.37 248.06 183.4"/><path class="cls-19" d="M248.16,183.3s.06,0,.06,0a.2.2,0,0,0,0-.11S248.21,183.29,248.16,183.3Z"/><path class="cls-19" d="M248.25,183.18s0,0,0,.06A.13.13,0,0,0,248.25,183.18Z"/><path class="cls-19" d="M247.94,183.38a.08.08,0,0,0,.07,0l-.06,0Z"/><path class="cls-19" d="M248,183.37h0l0,0Z"/><path class="cls-19" d="M247.94,183.39h0S247.93,183.38,247.94,183.39Z"/><path class="cls-19" d="M247.73,183.5s0-.11,0-.1S247.73,183.43,247.73,183.5Z"/><path class="cls-19" d="M247.87,183.36l-.05,0s0,0,0,0Z"/><polygon class="cls-19" points="247.88 183.33 247.87 183.36 247.89 183.35 247.88 183.33"/><path class="cls-19" d="M248.14,183.21s0-.05,0-.08l-.08.06S248.12,183.24,248.14,183.21Z"/><path class="cls-19" d="M248.05,183.28Z"/><polygon class="cls-19" points="248.39 182.93 248.38 182.92 248.38 182.93 248.39 182.93"/><path class="cls-19" d="M248.09,183.19s0,0,0,.05l0-.05Z"/><path class="cls-19" d="M248.29,183.1h0S248.29,183.12,248.29,183.1Z"/><path class="cls-19" d="M248.06,183.28h0S248.07,183.29,248.06,183.28Z"/><path class="cls-19" d="M248.06,183.28a0,0,0,0,0,0,0s0,0,0,0Z"/><path class="cls-19" d="M248.21,182.62a.07.07,0,0,1-.05.12c0,.06.12.15.22.18s0,0,0-.09-.13,0-.13,0,.06,0,.1,0,0-.13-.07-.18l0,.07S248.24,182.62,248.21,182.62Z"/><path class="cls-19" d="M248.3,183v0h.1a.15.15,0,0,0,0-.07l-.09.07Z"/><path class="cls-19" d="M248.22,183.09c0-.05,0-.11-.07-.13s0,.07,0,.11,0,.05.07,0l0,0,.06,0h0s0,0,0,0h0l.06-.1A.3.3,0,0,0,248.22,183.09Z"/><path class="cls-19" d="M247.64,183.28h0Z"/><path class="cls-19" d="M247.7,183.27s0,0,0,0,0,0,0,0,0,.07,0,.05h.13A.43.43,0,0,0,247.7,183.27Z"/><path class="cls-19" d="M248,183.17l0-.09h-.06l0,0S247.94,183.15,248,183.17Z"/><polygon class="cls-19" points="248.42 182.94 248.45 182.99 248.43 182.89 248.42 182.94"/><polygon class="cls-19" points="248.49 182.85 248.53 182.89 248.53 182.84 248.49 182.85"/><path class="cls-19" d="M252.24,184.65v0A0,0,0,0,1,252.24,184.65Z"/><path class="cls-19" d="M252.36,184.5l0,0S252.35,184.5,252.36,184.5Z"/><path class="cls-19" d="M250.4,182.43c0,.06,0,.14,0,.09l0-.05A.07.07,0,0,1,250.4,182.43Z"/><polygon class="cls-19" points="252.24 183.22 252.24 183.2 252.19 183.23 252.24 183.22"/><path class="cls-19" d="M252.38,183.05a.33.33,0,0,1,0,.06Z"/><path class="cls-19" d="M251.62,185.5l0,.06S251.64,185.52,251.62,185.5Z"/><path class="cls-19" d="M249.33,182l.08,0S249.31,182,249.33,182Z"/><path class="cls-19" d="M251.84,184.23s0,0,0,0S251.85,184.24,251.84,184.23Z"/><path class="cls-19" d="M249.44,181.94h0a0,0,0,0,1,0,0S249.45,182,249.44,181.94Z"/><path class="cls-19" d="M248.39,185.45h0Z"/><path class="cls-19" d="M248,184.29l0,0S248,184.3,248,184.29Z"/><path class="cls-19" d="M248.85,182.53s0,0,0,0Z"/><path class="cls-19" d="M248.61,182.47a0,0,0,0,0,0,0A0,0,0,0,1,248.61,182.47Z"/><path class="cls-19" d="M249.48,181.56h0Z"/><path class="cls-19" d="M248.8,182.54h0Z"/><path class="cls-19" d="M248.82,182.56h0S248.82,182.58,248.82,182.56Z"/><path class="cls-19" d="M248.87,182.51l0,0h0Z"/><path class="cls-19" d="M250.15,186.68h0S250.12,186.7,250.15,186.68Z"/><polygon class="cls-19" points="251.25 182.31 251.25 182.31 251.25 182.31 251.25 182.31"/><path class="cls-19" d="M251.35,182.32c-.07,0-.08,0-.1,0l-.06.15Z"/><path class="cls-19" d="M252,185H252c0,.1,0,.13.05.13-.13-.12.13-.2,0-.32h.05s0,0,0,0-.06-.13,0-.19.06,0,.07,0v-.09s0,0,0,0l.07-.1h0s0-.09,0-.11,0,0,0,0v-.08s0,.07,0,.11c.17,0,0-.07.16-.12l0,.07c.1,0,.1,0,.19-.06s-.21,0-.19-.06a.08.08,0,0,0,0-.08c.05,0,.05,0,.1-.05l.06.05c0-.09,0-.1,0-.16a.22.22,0,0,1,.2-.06c.12-.13-.17,0-.07-.1a.37.37,0,0,0,.16-.27c.09-.07.06,0,.11,0l0,0s0,0,0,0h0a.62.62,0,0,1-.18,0c-.13,0,0-.15-.22-.17,0,0,.07,0,.09,0a1.22,1.22,0,0,0-.34-.06l-.06-.09c0,.08-.09.09-.17.11v.08l-.11,0,.05-.05h0s0-.07.07-.09v.06a.31.31,0,0,0,.12-.1h0s0,0,0,0h0l0-.08,0,0-.09-.11a.79.79,0,0,1-.41,0c.07,0,.07-.09.11-.15s.12,0,.17.09a0,0,0,0,1,0-.06H252c0-.06,0-.06,0-.1,0,.12-.13,0-.19,0s0-.07.1,0c0-.12-.16.07-.18,0s0,0,0,0-.12-.06-.08-.08h0c-.08-.07-.28-.18-.35-.1l.1-.12-.36.2c.06-.07.12-.29.23-.28a.11.11,0,0,0-.1-.06s0,.13-.06.13,0-.07,0-.19c0,0-.09.13-.13.11a1.47,1.47,0,0,1,.1-.13l-.17.06s.07-.09.07-.14-.07-.05-.11-.05l0,.05c-.09-.08-.21.1-.31,0s.13-.13.09-.18-.29.23-.41.22v0h-.1a1.92,1.92,0,0,1,.46-.21c0-.06,0-.05-.05-.08s.07,0,.08,0l-.12-.1c0,.07-.14,0-.17.07l.19,0a.24.24,0,0,1-.3.07s.1-.11.11-.14-.12,0-.11,0h.06c0-.06-.14,0-.16-.07s0-.13,0-.09a1.2,1.2,0,0,1-.23.4,1.24,1.24,0,0,1-.06-.2c0-.09.15-.12.15-.2s-.05,0-.06,0,0-.06,0-.08-.14-.08-.07,0-.06,0-.14-.07-.11.16-.15.18a.11.11,0,0,0,0-.06.4.4,0,0,0-.28.08s-.09,0-.09,0,0,.06,0,.08,0-.06-.05-.09,0,.11,0,.17.09-.07.1-.13a.35.35,0,0,1,0,.33c0,.08-.08,0-.08,0s0,.23-.13.28-.09-.09-.13-.12.11,0,.14-.09l-.07,0A.1.1,0,0,1,249,182c-.08,0-.21.19-.34.25s0,.07,0,.08l0,0c.06,0,0,.11,0,.09s0,.16-.09.19l-.07,0s.07,0,.07,0-.16,0-.11.11h.07c0,.06,0,.17-.07.2.08,0,0,0,.1,0-.1,0,.13-.12,0-.16.11,0,.1,0,.21,0s-.06,0,0-.05v0h0s0,0-.05,0,.05-.13.05-.17,0,0,0,0v-.07s.13,0,.1.08l.05,0a.14.14,0,0,0,.11-.08s0-.11,0,0l.06-.11h0c.07-.06.14-.27.22-.21s0-.05,0,0l0,.05s0,0,0,0c0,.14,0,0,.1.11l0-.06a.48.48,0,0,0,.18.07l0-.05c.07,0,.11.12.2.17s0,0,0,0c0,.17.26.06.3.19a.06.06,0,0,1,.06,0h0v.05s0,0,0,0l.09,0,0,.06h0s0,0,0-.05h.05c0,.09.09,0,.06.12s.15.05.23,0,0,0,0,0a.11.11,0,0,0,.09,0l0,.07.12,0c0,.07,0,.1-.06.12.14,0,.1,0,.22,0l0,0s.11,0,.11,0,.3.21.42.39c.05-.14,0,.1.11,0s0,.07,0,.07.09.13.2.09,0,0-.05,0,.05,0,0,0,0,0,0,0,.15,0,.21-.11,0,.08.11,0,0,.08-.06.06.07.1.15.05,0,0,0,0a.17.17,0,0,0,.08.06h0c.14,0,.07,0,.12,0h0c-.1.06,0,0-.12.1h.08c.15,0-.15.06-.13.11h0c0,.05-.22,0-.23,0s0,0,0,0,.06.05,0,.11-.07-.08-.11,0,0,.22-.11.23.07,0,.06.06-.2.06-.15.17h0s-.06.15,0,.2c-.19-.09-.11.3-.25.18l-.09.12v0a.16.16,0,0,0,0,.18s0,0,0,0-.12.1-.12.25l-.05,0s-.2.1-.23.25a0,0,0,0,1,0,0c0,.16-.36.17-.22.36l0,.11c.09-.09.06.07.12.06s-.13.06-.1,0h0c-.07-.09-.13.1-.19,0-.16.21-.34.33-.43.32l0,.09h-.05s0-.07,0-.07,0,0,0,0a.36.36,0,0,0,0,.07c-.06-.05,0-.11,0-.11h0s0,.07-.08.05,0-.06,0-.06h0l0-.05,0,.08c-.06,0-.07-.06-.09,0,0-.12-.24-.29-.25-.35a.29.29,0,0,1-.18-.11s0,.09-.08,0c.13-.1,0-.13,0-.26,0,.09-.15-.12-.18,0,0,0,0,0,0-.11s-.19-.24-.32-.34,0,.06-.07.06v-.14s-.11.07-.1,0,0,.05,0,0c-.16-.31-.54-.41-.64-.78,0,.06,0,0-.05,0s0,0-.05.06l0-.15c-.07,0-.11-.1-.18-.06l.05,0c-.11,0-.09.21-.18.29.13,0,0,.23.2.2,0,0,0,0,0,0s.09,0,.12.06h0c.14.11.15.2.27.36l0,0a.07.07,0,0,1,0,.07c.1,0-.08-.08,0-.12,0,.12.21.2.15.33s0-.07.07,0v0l.05,0a.1.1,0,0,1,0,.11l0,0c0,.07.12.1.12.12l0-.06c.15.1.27.28.45.34v0c.12.06.05.1.17.18h0a.12.12,0,0,1,.1.05s0,.09,0,.08c.14.06.08,0,.21,0v.05c.05,0,.07,0,.13,0s0,.09-.1.08c0,.17.22.08.18.23.14,0-.05-.14,0-.13s.1,0,.13,0-.06.18.1.28l0,0c0,.07.13,0,.19.1s.1,0,.12-.07h-.14a.64.64,0,0,0,.18-.06.17.17,0,0,1,.1,0s0,.06-.06.07.07,0,.11,0-.07.07-.15.07a.27.27,0,0,0-.13,0s.1,0,.13,0,0,0,0,0c.06-.13.2,0,.28-.15v.06a.5.5,0,0,1,.07-.08.3.3,0,0,1,0,.1c0-.1.22-.07.25-.15-.13.12-.07,0-.16,0,.1-.2.2,0,.32-.16,0,0-.09.06-.08,0a.17.17,0,0,1,.12,0c.06-.1-.06,0-.06-.09s0-.06,0-.12l.05,0c.12-.08-.08-.11,0-.18l0,.1,0-.07,0,.06c0-.09,0-.1.08-.14a.08.08,0,0,1,0-.12c.06,0,0,.05.08,0s0,.08,0,.08,0,0,0,.05.08-.08.1-.11l0,0v-.15s0,0,0,.05,0-.06,0-.09.07.07.06.12l0-.12s.08,0,.09,0,0-.18.11-.23,0,0,0,0,.15-.08.16-.19h.1c0-.07-.13,0-.08-.13s.08,0,.12,0,0-.18.08-.2S252,185,252,185Zm.56-.75s0,.07,0,.06S252.48,184.27,252.52,184.26Zm-.33-1.21s0,0,0,0Zm-3.18-.74h0S249,182.3,249,182.31Zm-.08,0s0,0,0,0,0,0,0,0S248.94,182.32,248.93,182.35Zm1.08,3.88v0S250,186.25,250,186.23Z"/><path class="cls-19" d="M252.37,183.07s0,0,0,0A0,0,0,0,0,252.37,183.07Z"/><polygon class="cls-19" points="251.62 185.49 251.62 185.49 251.62 185.5 251.62 185.49"/><path class="cls-19" d="M249.92,181.47s0,0,0,0S250,181.49,249.92,181.47Z"/><path class="cls-19" d="M248.68,182.73l0,0s0,0-.05,0S248.69,182.72,248.68,182.73Z"/><path class="cls-19" d="M248.09,182.8v0l0,0S248.12,182.78,248.09,182.8Z"/><path class="cls-19" d="M248.51,182.63s0,0-.07,0h0C248.48,182.72,248.49,182.67,248.51,182.63Z"/><path class="cls-19" d="M248.43,182.67l0,0S248.42,182.69,248.43,182.67Z"/><path class="cls-19" d="M248.88,182.45s0,.05,0,0S248.92,182.35,248.88,182.45Z"/><polygon class="cls-19" points="248.37 182.53 248.42 182.57 248.4 182.52 248.37 182.53"/><path class="cls-19" d="M248.61,182.35l-.05,0s0,0,0,0S248.63,182.37,248.61,182.35Z"/><path class="cls-19" d="M248.56,182.41l0,0A0,0,0,0,0,248.56,182.41Z"/><polygon class="cls-19" points="248.41 182.46 248.44 182.46 248.47 182.43 248.41 182.46"/><path class="cls-19" d="M249.08,181.91l0-.06a0,0,0,0,0-.05,0S249.06,181.9,249.08,181.91Z"/><path class="cls-19" d="M248.82,181.93s0,0,.06,0l-.06-.06Z"/><path class="cls-19" d="M249,181.78s0-.11,0-.05S248.89,181.81,249,181.78Z"/><polygon class="cls-19" points="249.9 181.7 249.89 181.7 249.82 181.8 249.9 181.7"/><path class="cls-19" d="M250.8,181.92c-.05-.07-.06.05-.1,0s0,.05,0,.06S250.77,182,250.8,181.92Z"/><path class="cls-19" d="M250.71,182h0Z"/><polygon class="cls-19" points="247.88 184.12 247.86 184.06 247.85 184.11 247.88 184.12"/><path class="cls-19" d="M247.74,184.12l0-.07-.07,0S247.75,184.1,247.74,184.12Z"/><path class="cls-19" d="M252.73,184.25h0s0,0-.05,0Z"/><polygon class="cls-19" points="252.26 184.75 252.27 184.74 252.19 184.71 252.26 184.75"/><path class="cls-19" d="M252,185.25s0-.05,0-.07S251.9,185.2,252,185.25Z"/><path class="cls-19" d="M266.27,185.13s0,0,0-.06S266.28,185.14,266.27,185.13Z"/><polygon class="cls-19" points="265.9 185.7 265.89 185.68 265.87 185.78 265.9 185.7"/><path class="cls-19" d="M265.47,186.15c.11,0,.15-.17.25-.23h0v-.09C265.64,185.94,265.56,186.1,265.47,186.15Z"/><path class="cls-19" d="M265.11,186.26s0,.08.06,0h0Z"/><path class="cls-19" d="M265.15,186.22c0-.05,0,0,0,0Z"/><path class="cls-19" d="M265,186.45l0-.08s-.08,0-.07,0S264.9,186.47,265,186.45Z"/><path class="cls-19" d="M265,186.56l0-.05S265,186.52,265,186.56Z"/><path class="cls-19" d="M265,186.43l0,.08s0,0,0,0S265,186.47,265,186.43Z"/><path class="cls-19" d="M265.06,186.4c.05,0,.1-.06.06,0C265.23,186.29,265.17,186.27,265.06,186.4Z"/><path class="cls-19" d="M265.52,186.24l.06,0,0-.06S265.5,186.22,265.52,186.24Z"/><path class="cls-19" d="M264.55,186.81s.06,0,.08,0l0-.06S264.58,186.83,264.55,186.81Z"/><path class="cls-19" d="M264.63,186.84l0,.09C264.65,186.87,264.65,186.85,264.63,186.84Z"/><polygon class="cls-19" points="265.01 186.63 265.07 186.47 264.99 186.66 265.01 186.63"/><polygon class="cls-19" points="264.3 187.07 264.31 187.01 264.29 187.12 264.3 187.07"/><path class="cls-19" d="M264.14,187.26c0-.06-.08,0-.07,0a.36.36,0,0,0-.07.17A.24.24,0,0,1,264.14,187.26Z"/><path class="cls-19" d="M264,187.47l0-.09A.14.14,0,0,0,264,187.47Z"/><path class="cls-19" d="M264.47,187a.12.12,0,0,0-.09,0h.06Z"/><path class="cls-19" d="M264.45,187.07h0l-.05.05Z"/><path class="cls-19" d="M264.48,187h0Z"/><path class="cls-19" d="M264.8,186.78c0,.07-.07.17,0,.12S264.77,186.88,264.8,186.78Z"/><path class="cls-19" d="M264.56,187.05l.08-.07s0,0,0,0Z"/><polygon class="cls-19" points="264.53 187.09 264.56 187.05 264.53 187.07 264.53 187.09"/><path class="cls-19" d="M264.12,187.38a.28.28,0,0,1-.08.12l.14-.11S264.17,187.33,264.12,187.38Z"/><path class="cls-19" d="M264.28,187.23h0S264.29,187.23,264.28,187.23Z"/><polygon class="cls-19" points="263.68 187.89 263.69 187.89 263.68 187.88 263.68 187.89"/><path class="cls-19" d="M264.19,187.39a.11.11,0,0,0,.05-.09l-.06.09S264.18,187.4,264.19,187.39Z"/><path class="cls-19" d="M263.88,187.59l.08,0S263.88,187.58,263.88,187.59Z"/><path class="cls-19" d="M264.26,187.24h0S264.25,187.24,264.26,187.24Z"/><path class="cls-19" d="M264.26,187.24s0,0,0,.06l0-.06Z"/><path class="cls-19" d="M263.81,188.24s0-.15.12-.19-.12-.16-.24-.16,0,0,0,.12.2-.12.17,0-.09.06-.15.09-.05.19,0,.23l.06-.11S263.78,188.25,263.81,188.24Z"/><path class="cls-19" d="M263.82,187.75l0,0a.42.42,0,0,1-.15.06c0,.06,0,.09,0,.1l.15-.14Z"/><path class="cls-19" d="M264,187.59c0,.06,0,.14,0,.14s0-.09.06-.16c-.12.15,0-.06-.1,0a.7.7,0,0,1,.06-.09l-.08.06h0v0c-.05,0,0,0,0,0h0l-.11.16Z"/><path class="cls-19" d="M264.85,187.06h0S264.83,187.07,264.85,187.06Z"/><path class="cls-19" d="M264.77,187.09a.09.09,0,0,1,0-.07s0,0,0,0,0-.1,0-.05v0c-.07,0-.19.07-.18,0A.27.27,0,0,0,264.77,187.09Z"/><path class="cls-19" d="M264.38,187.35l-.09.14.09,0,0,0C264.42,187.38,264.39,187.38,264.38,187.35Z"/><polygon class="cls-19" points="263.64 187.88 263.62 187.83 263.61 187.95 263.64 187.88"/><polygon class="cls-19" points="263.5 188.04 263.47 188 263.45 188.06 263.5 188.04"/><path class="cls-19" d="M255.56,197l0,.05Z"/><path class="cls-19" d="M255.81,196.79v0S255.8,196.8,255.81,196.79Z"/><path class="cls-19" d="M259.89,191.8c-.08,0-.19,0-.14,0l.05,0A.18.18,0,0,1,259.89,191.8Z"/><path class="cls-19" d="M257.62,194.57h0v-.07Z"/><path class="cls-19" d="M257.74,194.76l-.09,0Z"/><path class="cls-19" d="M254.26,198.41v.08C254.32,198.43,254.27,198.44,254.26,198.41Z"/><path class="cls-19" d="M262,189.62l-.12.09C262,189.68,262,189.67,262,189.62Z"/><path class="cls-19" d="M255.26,196.53s0,.05,0,.05S255.27,196.54,255.26,196.53Z"/><path class="cls-19" d="M261.76,189.84l0,0a.44.44,0,0,1,.09-.11A.19.19,0,0,0,261.76,189.84Z"/><path class="cls-19" d="M249.3,203.19h0S249.3,203.2,249.3,203.19Z"/><path class="cls-19" d="M247.48,204.19l.06-.06Z"/><path class="cls-19" d="M262.9,188.64s0,0,0,0Z"/><path class="cls-19" d="M263.2,188.63a0,0,0,0,0,0,0A0,0,0,0,1,263.2,188.63Z"/><path class="cls-19" d="M261.69,190.39Z"/><path class="cls-19" d="M263,188.61l0,0Z"/><path class="cls-19" d="M262.94,188.6l0,0S263,188.56,262.94,188.6Z"/><path class="cls-19" d="M262.85,188.69l.06-.05h0Z"/><path class="cls-19" d="M251.85,200.52h0S251.83,200.55,251.85,200.52Z"/><polygon class="cls-19" points="259.47 193.02 259.47 193.02 259.47 193.02 259.47 193.02"/><path class="cls-19" d="M259.39,193.17c0-.1,0-.12.08-.15l-.15-.07Z"/><path class="cls-19" d="M255,197.63l.11,0c0,.15-.13.2,0,.17-.1-.13.3-.32.2-.45l.07,0s0,0,0,0c.16,0,0-.17.14-.28s.1,0,.08,0l.08-.13s0,0,0,0l.15-.17h0c0-.05,0-.12,0-.16s0,0,0,0l.06-.12c.06,0,0,.1,0,.15.2,0,0-.1.28-.21l-.06.1c.12,0,.16-.07.29-.12,0,0-.29.08-.23,0a.18.18,0,0,0,.1-.12c.05,0,.09,0,.15-.08l0,.06c.05-.09,0-.11,0-.18a.15.15,0,0,1,.19,0c.13-.11-.15,0,0-.14a.85.85,0,0,0,.26-.32c.09,0,0,0,.06,0l0-.1s0,0,0,0-.06-.06,0-.16.26-.08.29-.25c0,0,0,.05.05.06a1.17,1.17,0,0,0,.14-.33l.13-.06c-.11,0-.07-.11,0-.23h-.11l.1-.16s0,0,0,.07v0c.07,0,.08,0,.08.09h-.09c0,.07,0,.14.06.16l0-.05s0,0,0,0,0,0,0-.06l.09,0v0l.2-.13a1.74,1.74,0,0,1,.23-.6c0,.1.07.09.12.15-.11,0-.12.17-.23.26.05,0,.07,0,.07,0l.12-.23c0,.05.07,0,.13,0-.12,0,.07-.19.12-.29s0,.07,0,.15c.16,0,0-.23.17-.27,0,0,0,0,0,.06s.17-.18.16-.13l0,0c.15-.13.43-.43.38-.52a.32.32,0,0,1,.07.13v-.51c0,.09.28.15.2.31a.34.34,0,0,0,.14-.15s-.15,0-.12-.07a1.25,1.25,0,0,0,.26-.07s-.11-.12-.05-.17.1.09.09.12l0-.23c0,.05.08.09.14.08s.11-.11.14-.16l-.08,0c.16-.14,0-.29.16-.44,0,0,.08.17.17.1a1.09,1.09,0,0,1,0-.57h.06l.07-.14a2.82,2.82,0,0,1,0,.64c.08,0,.05,0,.13-.07s0,.09,0,.12l.21-.19c-.07-.05.09-.21,0-.25l-.15.28c-.07,0,0-.29.11-.43s.08.13.1.15.09-.17.12-.17l0,.09c.1-.06.05-.21.2-.25s.17,0,.14-.06a.67.67,0,0,1-.36-.29,1.34,1.34,0,0,1,.31-.12c.1,0,.05.2.14.2s0-.06,0-.08,0,.06.1,0,.15-.15,0-.09c.06-.09.09-.07.17-.15s-.05-.21,0-.3.05,0,.06,0c.16-.15.26-.2.4-.34s.11-.05.11,0a.21.21,0,0,1,.05-.11c.13,0-.09.1,0,.1,0,0,.06-.16.09-.25s-.15.14-.18.22-.05-.25.05-.44.1,0,.11,0c.23-.21.05-.32.28-.45s.1.09.15.11-.17.12-.23.18l.1-.06c0,.05-.06.13-.11.15s.37-.37.57-.5c0-.05.05-.12,0-.11l0,.06c-.09,0,0-.15,0-.1a.55.55,0,0,1,.19-.3l.08,0s-.1,0-.11.08.22-.09.2-.2l-.11,0a.65.65,0,0,1,.18-.32c-.1,0,0,0-.14,0,.13,0-.23.23-.06.22-.14,0-.14.09-.29.11,0,0,.07,0,0,.07v0h0l.06,0c0,.08-.11.2-.13.26s0,0,0,0l0,.09s-.18.06-.1-.07l-.09.09a.46.46,0,0,0-.19.17c-.06,0-.07.16-.06.09l-.12.17h0c-.15.15-.23.37-.46.47a.9.9,0,0,1-.17.2l-.05,0c-.05.07-.22.16-.21.22-.16,0-.32.29-.44.38l0,.05a1.28,1.28,0,0,0-.21.28l0,0c-.05.11-.23.18-.35.32,0,0,0-.05.06-.07-.24.07-.26.39-.46.47a.13.13,0,0,1-.08.08h0v0l-.07,0,.06,0a.74.74,0,0,0-.09.12l-.06,0h0c-.05,0,0,.06,0,.07a.11.11,0,0,0,0,.08c-.1,0-.08.12-.2.1s-.17.22-.11.32,0,0,0,0a.25.25,0,0,0-.12.13l-.07,0,0,.17c-.09,0-.13,0-.12-.07-.07.2-.09.14-.14.32l0,0s-.06.16-.12.16-.48.47-.78.65c.15.06-.16.07-.09.16s-.09,0-.07,0c-.1.15-.22.16-.24.31,0,0,0-.06,0-.06s0,.06-.05,0,0,0,0-.06a.19.19,0,0,0,0,.29c-.1,0-.12.07-.13.17s-.1,0,0-.08-.31.25-.26.31-.06.05-.07.07l-.21.21,0,0c0,.11-.07.1-.14.19h0c-.23.13-.06.1-.29.22l.05,0c.07.1-.22.1-.29.24h.07c0,.09-.29,0-.35.08s0,0,0-.05c-.2.09,0,.07-.06.2s-.05-.11-.13,0-.12.32-.28.37c.05,0,.09,0,.06.06s-.31.13-.31.28h0c0,.08-.17.23-.16.31-.2-.09-.31.45-.44.31l-.18.2v0a.34.34,0,0,0-.15.26s0,0,0,0a.6.6,0,0,0-.29.39l-.06,0c0,.06-.32.18-.44.4,0,0,0,0,0,0-.15.25-.59.34-.5.57l-.09.17c.18-.15,0,.09.13.05s-.21.12-.14,0h0c-.05-.12-.23.17-.29.11-.32.33-.68.59-1,.89l.1,0-.12.1s-.08,0,0-.09c-.08,0-.1.16-.09.18-.18.12,0-.14-.06-.09l-.06.06h0c0,.07,0,.11-.1.19s-.06,0-.09,0l0,0-.14.13h.11c0,.08-.13.12,0,.12-.18,0-.54.46-.62.48a.84.84,0,0,1-.24.3s.11,0,0,.11c-.08-.16-.21.1-.37.09.12,0-.24.25-.06.24-.08.06-.05,0-.13,0-.13.22-.42.35-.62.58,0,0,.07,0,0,.07l-.19,0c0,.05,0,.13-.09.15,0,0,.06,0,0,0-.5.34-.82.91-1.39,1.18.09,0,.05,0,0,.06s0,0,.06.06l-.24.11c0,.09-.19.19-.16.27l.05-.07c0,.14.25.05.32.15,0-.16.34-.11.37-.35.05,0,0,0,0,0s0-.12.13-.18v0a5.78,5.78,0,0,1,.63-.5l-.06,0a.22.22,0,0,1,.12-.06c0-.13-.16.14-.17,0,.15,0,.38-.37.52-.32s-.07,0,0-.1h0v-.05a.13.13,0,0,1,.15,0l0,.05c.1,0,.19-.2.23-.21l-.1.06a7.94,7.94,0,0,0,.68-.75h0c.13-.2.15-.11.32-.3h0a.25.25,0,0,1,.11-.16c0,.07.13,0,.09,0,.14-.21.06-.11.11-.3h.06a.24.24,0,0,1,.08-.18c0,.1.11,0,.06.11.26-.12.22-.35.41-.33,0-.18-.22.11-.19,0s0-.14.08-.19.22,0,.37-.14c0,0,0,0,0,0s.08-.14.19-.17.1-.09,0-.17l-.13.15c.07-.09.06-.25.23-.34a.19.19,0,0,1,0,.12c.06,0,.06-.09.12-.1s-.16.18-.19.32c.07,0,.11-.21.14-.09,0-.16.17-.14.2-.32l0,0a.37.37,0,0,1,.06-.1v.11c0-.13.2-.12.26-.23-.17.17-.09,0-.19,0,.15-.26.23,0,.44-.26,0,0-.14.09-.11,0a.65.65,0,0,1,.17-.08c.15-.16-.06,0,0-.11s.05-.09.11-.18l0,0c.2-.14,0-.13.15-.25v.12l.07-.09,0,.06a.45.45,0,0,1,.19-.22c-.05,0-.06-.08,0-.16s0,.07.12-.05c0,.05,0,.11-.08.12s0,0,0,.07.15-.13.19-.17l-.05,0,.1-.22s0,0,0,.06,0-.08.08-.13.06.08,0,.16l.11-.19s.12,0,.11,0,.15-.28.28-.36a.15.15,0,0,1,0-.06c.11-.1.25-.15.32-.32h.14c.08-.12-.18,0,0-.17s.1,0,.16,0,.06-.25.21-.3C255.05,197.58,255,197.59,255,197.63Zm1.17-1.23s0,.11-.08.1S256.11,196.43,256.16,196.4Zm1.72-1.93s0,.05-.09.07A.22.22,0,0,1,257.88,194.47Zm4.71-5.44h0C262.52,189.07,262.55,189.06,262.59,189Zm.12-.09s0,0,0,0,0,0-.05.07S262.69,189,262.71,188.94Zm-11.49,11.63h0C251.22,200.62,251.22,200.59,251.22,200.57Z"/><path class="cls-19" d="M257.73,194.74s0,0,0,0S257.7,194.75,257.73,194.74Z"/><polygon class="cls-19" points="254.26 198.4 254.25 198.4 254.26 198.41 254.26 198.4"/><path class="cls-19" d="M261.44,191l-.06,0S261.41,191,261.44,191Z"/><path class="cls-19" d="M263.2,188.29l-.06.08a.12.12,0,0,1,.08-.05S263.18,188.31,263.2,188.29Z"/><path class="cls-19" d="M264.05,187.93s0,0,0,0h0S264,188,264.05,187.93Z"/><path class="cls-19" d="M263.4,188.36c.05,0,.08,0,.12-.08h0C263.47,188.22,263.44,188.29,263.4,188.36Z"/><path class="cls-19" d="M263.53,188.26l0,0S263.55,188.23,263.53,188.26Z"/><path class="cls-19" d="M262.82,188.78s0-.06,0-.06S262.73,188.93,262.82,188.78Z"/><polygon class="cls-19" points="263.56 188.43 263.5 188.41 263.51 188.47 263.56 188.43"/><path class="cls-19" d="M263.16,188.79l.08-.06a.06.06,0,0,1,0,0C263.2,188.74,263.14,188.78,263.16,188.79Z"/><path class="cls-19" d="M263.25,188.69s.05-.05.05-.07A.21.21,0,0,0,263.25,188.69Z"/><polygon class="cls-19" points="263.47 188.55 263.44 188.57 263.38 188.62 263.47 188.55"/><path class="cls-19" d="M262.33,189.63l-.07.1s0,0,.07,0S262.36,189.63,262.33,189.63Z"/><path class="cls-19" d="M262.71,189.49h-.07l.05.06Z"/><path class="cls-19" d="M262.48,189.75s-.08.17,0,.06S262.57,189.68,262.48,189.75Z"/><polygon class="cls-19" points="261.16 190.98 261.18 190.95 261.09 190.87 261.16 190.98"/><path class="cls-19" d="M260.27,192.32c.13-.08,0-.08.09-.14s-.1,0-.09,0S260.19,192.29,260.27,192.32Z"/><path class="cls-19" d="M260.27,192.19l0,0S260.27,192.18,260.27,192.19Z"/><polygon class="cls-19" points="247.19 204.37 247.11 204.42 247.18 204.41 247.19 204.37"/><path class="cls-19" d="M247.13,204.56l-.07,0v.09S247.11,204.56,247.13,204.56Z"/><path class="cls-19" d="M256.45,196.34v0s0,0-.07,0Z"/><polygon class="cls-19" points="255.54 197.17 255.56 197.16 255.48 197.13 255.54 197.17"/><path class="cls-19" d="M254.87,198l.09-.11C254.9,197.94,254.8,197.91,254.87,198Z"/><line class="cls-20" x1="248.21" y1="182.6" x2="252.44" y2="185.79"/><line class="cls-20" x1="249.68" y1="186.27" x2="250.82" y2="182.93"/><path class="cls-3" d="M276.64,189.81a3.55,3.55,0,0,1,1,3.8c-.54,2-2.28,3.37-3.86,3.06l-3.9-.78-.08,0h0l-5.27-1.05a.83.83,0,0,1-.49-1.1,1,1,0,0,1,1-.8l2.87.57a3.82,3.82,0,0,1,0-.83l-3.44-.69a.82.82,0,0,1-.49-1.09,1,1,0,0,1,1-.8l3.43.68a5.29,5.29,0,0,1,.41-.66l-2.95-.59a.83.83,0,0,1-.49-1.1,1,1,0,0,1,1-.8l4.92,1a2.1,2.1,0,0,1,.5,0l-.84-.56a1,1,0,0,1-.18-1.28h0c.26-.47.76-.68,1.11-.44"/><line class="cls-21" x1="274.52" y1="147.41" x2="264.32" y2="141.59"/><line class="cls-21" x1="282.83" y1="146.52" x2="291.82" y2="139.36"/><path class="cls-11" d="M262.77,154.38a3.35,3.35,0,0,1,6.67-.58"/><path class="cls-11" d="M285.14,152.41a3.34,3.34,0,1,1,6.66-.58"/><path class="cls-8" d="M119.69,137.29c1.12,33,29.6,78.44,61.21,77.38,33.3-1.13,57-47.7,55.87-80.67s-27.58-39.79-59.9-38.7S118.58,104.32,119.69,137.29Z"/><path class="cls-9" d="M206.5,138.11a9.56,9.56,0,0,0-19.12.39"/><line class="cls-22" x1="227.9" y1="122.04" x2="218.59" y2="128.22"/><line class="cls-22" x1="194.43" y1="121.52" x2="206.58" y2="128.74"/><path class="cls-11" d="M220.33,151.52c2.21,0,3.61-1.49,2.66-2.75-1.69-2.22-5.1-5-11.61-4.77s-9.45,3-10.69,5.18c-.7,1.22.79,2.51,2.84,2.49Z"/><polyline class="cls-8" points="193.34 251.12 197.52 208.73 184.23 208.73 189.66 252.34 192.88 249.21"/><polygon class="cls-23" points="186.9 230.95 195.33 230.95 193.49 251.99 189.04 251.99 186.9 230.95"/><path class="cls-17" d="M202.89,252.34c0-3.28-3.14-6-7-6s-7,2.67-7,6"/><polyline class="cls-8" points="176.27 251.12 180.45 208.73 167.16 208.73 172.59 252.34 175.81 249.21"/><polygon class="cls-23" points="169.82 230.95 178.26 230.95 176.43 251.99 171.97 251.99 169.82 230.95"/><path class="cls-17" d="M185.82,252.34c0-3.28-3.14-6-7-6s-7,2.67-7,6"/><path class="cls-2" d="M180.45,172S187.38,198,226.07,190"/><path class="cls-3" d="M224.64,185a4.9,4.9,0,0,0-3.29,4.31c-.38,2.84,1.09,5.53,3.27,6l5.39,1.12h.11l.06,0,7.26,1.51c.58.12,1.12-.39,1.22-1.14a1.35,1.35,0,0,0-.85-1.56l-4-.82a5.84,5.84,0,0,0,.49-1l4.74,1c.58.12,1.12-.39,1.22-1.13a1.35,1.35,0,0,0-.85-1.57l-4.75-1a6.27,6.27,0,0,0-.16-1.07l4.08.85c.57.12,1.11-.39,1.21-1.14a1.35,1.35,0,0,0-.85-1.56l-6.79-1.41a3.15,3.15,0,0,0-.65-.23l1.37-.25a1.37,1.37,0,0,0,.91-1.54h0c-.07-.74-.6-1.27-1.17-1.17"/><path class="cls-11" d="M194.51,138.35a4.32,4.32,0,0,1,8.64-.15"/><path class="cls-9" d="M236.23,138.11a9.56,9.56,0,1,0-19.11.39"/><path class="cls-11" d="M224.25,138.35a4.32,4.32,0,0,1,8.63-.15"/><polyline class="cls-8" points="47.04 205.13 68.03 257.07 74.84 255.18 66.78 203.97"/><polygon class="cls-24" points="76.28 261.55 70.42 263.18 61.82 242.19 72.34 239.28 76.28 261.55"/><path class="cls-17" d="M90.74,258a10.51,10.51,0,0,0-20.26,5.61"/><polyline class="cls-8" points="72.95 201.32 94.18 250.09 100.99 248.2 92.06 191.49"/><polygon class="cls-24" points="102.59 254.76 96.01 256.58 88.1 236.13 98.52 232.52 102.59 254.76"/><path class="cls-17" d="M116.35,251a10.51,10.51,0,0,0-20.25,5.61"/></svg>