<svg xmlns="http://www.w3.org/2000/svg" viewBox="0 0 348 282.35"><defs><style>.cls-1{fill:#f3e1b4;}.cls-2{fill:#2d9d48;}.cls-3{fill:#f8d978;}.cls-4{fill:#954f22;}.cls-5{fill:#ffca05;}.cls-6{fill:#838383;}.cls-7{fill:#00a0cc;}.cls-8{fill:#0d3f60;}.cls-13,.cls-14,.cls-19,.cls-20,.cls-21,.cls-22,.cls-29,.cls-9{fill:none;stroke-miterlimit:10;}.cls-9{stroke:#2585aa;stroke-width:0.31px;}.cls-14,.cls-19,.cls-20,.cls-21,.cls-22,.cls-29,.cls-9{stroke-linecap:round;}.cls-10{fill:#56c4cf;}.cls-11{fill:#4f4a47;}.cls-12{fill:#fff;}.cls-13,.cls-29{stroke:#000;}.cls-13{stroke-width:0.47px;}.cls-14{stroke:#0a8ab2;stroke-width:1.33px;}.cls-15{fill:#d5ba76;}.cls-16{fill:#969e9b;}.cls-17{fill:#a1cbec;}.cls-18{fill:#c9a362;}.cls-19,.cls-21,.cls-22{stroke:#0d3f60;}.cls-19{stroke-width:0.67px;}.cls-20{stroke:#108ab2;stroke-width:4px;}.cls-21{stroke-width:1.53px;}.cls-22{stroke-width:1.5px;}.cls-23{opacity:0.7;}.cls-24{fill:#ec1651;}.cls-25{fill:#5652a2;}.cls-26{fill:#515252;}.cls-27{fill:#444445;}.cls-28{fill:#656767;}.cls-29{stroke-width:0.5px;}</style></defs><g id="Layer_1" data-name="Layer 1"><polyline class="cls-1" points="0 270.75 0 0.2 348 0.2 348 270.75"/><rect class="cls-2" y="119.67" width="348" height="162.68"/><path class="cls-3" d="M168.26,55.62c0-18.47,15.88-32.95,35.94-32.95s36.33,15,36.33,33.43V86.69H168.31V61.26S168.26,57.37,168.26,55.62Z"/><path class="cls-4" d="M136,55.62c0-18.47-15.88-32.95-35.94-32.95s-36.32,15-36.32,33.43v64.59h72.21V61.26S136,57.37,136,55.62Z"/><rect class="cls-5" x="168.31" y="67.37" width="72.21" height="19.3"/><rect class="cls-5" x="168.12" y="82.71" width="72.61" height="3.98" transform="translate(408.84 169.41) rotate(-180)"/><ellipse class="cls-6" cx="126.33" cy="78.64" rx="2.76" ry="2.12"/><path class="cls-7" d="M186.23,62.18a93,93,0,0,0,1.19,10.71c1.25,7.83,8.34,13.15,15.82,11.87l12.42-2.12A14.05,14.05,0,0,0,226.71,72c.95-4-.06-8.55-.74-12.5-1.31-7.66-4.81-16.65-11.95-20.61-9.49-5.26-22-1.29-26.09,8.94a22.26,22.26,0,0,0-1.45,5.79A53.14,53.14,0,0,0,186.23,62.18Z"/><path class="cls-8" d="M203.07,57.67s.49,2-3.36,2.39c-3,.33-3.5-1.46-3.5-1.46Z"/><path class="cls-9" d="M194.36,55.37c.84,1.5-.26,2.6-1.49,3"/><polyline class="cls-7" points="199.47 80.82 202.19 97.59 203.77 97.59 206.49 80.87"/><polyline class="cls-7" points="208.34 80.74 211.06 97.51 212.65 97.51 215.37 80.79"/><polygon class="cls-10" points="204.01 97.56 205.08 91.09 201.02 91.09 202.13 97.49 204.01 97.56"/><polygon class="cls-10" points="212.7 97.36 213.78 91.09 209.92 91.09 210.76 97.53 212.7 97.36"/><path class="cls-11" d="M205.78,97.67a3.77,3.77,0,1,1,7.53,0"/><path class="cls-11" d="M196.34,97.74a3.77,3.77,0,0,1,7.54,0"/><path class="cls-9" d="M203.46,54a2.6,2.6,0,0,0,3.66,1.75"/><path class="cls-9" d="M191.5,48.16a22.21,22.21,0,0,0,11.57-2.53"/><path class="cls-12" d="M203.35,54.29a3.22,3.22,0,0,1,6.26-1.47"/><path class="cls-8" d="M205.14,53.87a1.4,1.4,0,1,1,2.72-.63"/><path class="cls-12" d="M188.22,56.71a3.24,3.24,0,0,1,6.33-1.29"/><path class="cls-8" d="M190,56.34a1.4,1.4,0,1,1,2.74-.56"/><path class="cls-8" d="M190.49,53.23l0,0Z"/><path class="cls-8" d="M206.07,50.56h0Z"/><path class="cls-13" d="M196.88,54.91c.39,2.06-2.11,4.27-5.59,4.94s-5.33-.28-7-2.51c-1.26-1.67-1.1-3.68,2.38-4.35S196.48,52.85,196.88,54.91Z"/><path class="cls-13" d="M213.94,51.87c-.52,2.44-2.1,4.26-5.58,4.93s-6.63-.45-7-2.51,4.94-4.84,8.42-5.51S214.39,49.82,213.94,51.87Z"/><path class="cls-13" d="M196.84,55.94s2.08-3.77,4.66-.85"/><path class="cls-8" d="M188.18,55.28l-1.72-.36,1.65.93a1.48,1.48,0,0,0,0,.21l-1.4.09,1.43.34a2.94,2.94,0,0,0,.05.32c.2-2.72,1.59-3.36,2-3.5A2.46,2.46,0,0,0,188.18,55.28Z"/><path class="cls-8" d="M190.18,53.31l.12,0Z"/><path class="cls-8" d="M211,51.78l-1.33.47c0-.06-.05-.12-.09-.19l1.15-1.51-1.43,1a2.47,2.47,0,0,0-2.63-1c.43,0,2,0,3.23,2.41l-.08-.31Z"/><path class="cls-8" d="M199.52,51.38h0Z"/><path class="cls-14" d="M197.31,75.26s-4.34,1.53-5.77-.06-2.41-5.15-2.41-5.15"/><path class="cls-15" d="M201.14,104.44c.12-1.09.24-2.17.35-3.25s.21-2,.32-3a.35.35,0,0,1,.1-.27c-.1,0-.21,0-.31,0a8.75,8.75,0,0,0-1.65-.51c-.79-.3-1.62-.43-2.42-.7a7.67,7.67,0,0,0-.78-.23,7.6,7.6,0,0,1-1.29-.32c-.64-.22-1.3-.33-1.92-.56-.42-.16-.87-.17-1.28-.34s-1.11-.31-1.66-.48a15.38,15.38,0,0,1-.9,1.82c-.68,1.36-1.38,2.71-2.08,4.06-.1.2-.13.32.16.39.9.23,1.79.49,2.69.73Z"/><path class="cls-16" d="M205.65,61.1a.74.74,0,0,0-.69.56c-.41,1.45-1.81,6.88-2.22,8.33-.6,2.07-3.74,13.27-4.33,15.34s-1.26,4.41-1.88,6.62c-.27.91-.54,1.82-.79,2.73-.07.25-.16.33-.44.24-1.23-.37-2.47-.7-3.7-1.06-1.07-.32-1.68,0-1.93,1.09,0,.1-.1.2-.06.31-.06.45,0,.58.41.81a5.23,5.23,0,0,0,1,.28c.41.13.83.24,1.24.36l2.64.74,3.23.9c.94.27,1.86.47,2.78.81.46.17.92.13,1.14-.34.07-.23.16-.46.22-.69a1.22,1.22,0,0,0-.89-1.5l-4-1.13c-.26-.07-.27-.17-.21-.4.75-2.6,1.49-5.2,2.24-7.8.81-2.83,4.16-14.76,5-17.59.34-1.2,1.68-6.4,2-7.6A.75.75,0,0,0,205.65,61.1Z"/><path class="cls-17" d="M202.74,76.4a.42.42,0,0,0,.35-.46.41.41,0,0,0-.43-.39l-1.47.13a2.37,2.37,0,0,0,.09-.36l1.77-.16a.42.42,0,0,0,.35-.46.4.4,0,0,0-.42-.39l-1.77.15a2.75,2.75,0,0,0-.14-.3l1.52-.14a.41.41,0,0,0,.35-.46.42.42,0,0,0-.43-.39L200,73.4a.7.7,0,0,0-.25,0l.47-.21a.43.43,0,0,0,.21-.55h0a.38.38,0,0,0-.51-.24l-2.51,1.1a.38.38,0,0,0-.21.22,1.64,1.64,0,0,0-.84,1.62A1.56,1.56,0,0,0,198,76.82l2-.17H200Z"/><path class="cls-14" d="M207.55,69.14c9.55,7.25,11.87-5.72,11.87-5.72"/><path class="cls-17" d="M202.31,67.7a.41.41,0,0,1-.1-.56.42.42,0,0,1,.56-.16l1.25.79a1.53,1.53,0,0,1,.08-.37l-1.49-.94a.43.43,0,0,1,.46-.72l1.49.94a2.47,2.47,0,0,1,.27-.21l-1.29-.81a.43.43,0,0,1,.47-.72l2.14,1.35a1.15,1.15,0,0,1,.23.1l-.33-.39a.45.45,0,0,1,.07-.59h0a.39.39,0,0,1,.57,0l1.72,2.12a.37.37,0,0,1,.08.29,1.63,1.63,0,0,1,0,1.82,1.57,1.57,0,0,1-2.13.59l-1.7-1.07,0,0h0Z"/><polygon class="cls-18" points="189.34 101.41 191.21 97.68 190.01 101.6 189.34 101.41"/><polygon class="cls-18" points="192.46 95.23 193.6 92.91 193.2 95.42 192.46 95.23"/><polygon class="cls-18" points="198.02 96.64 199.31 93.02 198.85 96.85 198.02 96.64"/><path class="cls-19" d="M188.47,51.88a2.83,2.83,0,0,1,4.24-.48"/><path class="cls-19" d="M208.15,48.86S206,47,204.3,49.71"/><rect class="cls-1" x="160.21" y="86.69" width="80.51" height="20.37" transform="translate(400.94 193.76) rotate(-180)"/><path class="cls-20" d="M208.42,170.86s-18.23,0-15.29,33.42"/><path class="cls-17" d="M197.86,204.58a4.31,4.31,0,0,0-4.3-2c-2.51.2-4.55,2-4.54,3.91l0,4.83s0,.07,0,.1a.43.43,0,0,1,0,.05l0,6.52c0,.51.54.89,1.2.84a1.19,1.19,0,0,0,1.19-1l0-3.55a5.11,5.11,0,0,0,1,.23l0,4.25a1,1,0,0,0,1.2.84,1.19,1.19,0,0,0,1.19-1l0-4.25a6.3,6.3,0,0,0,.89-.34l0,3.66c0,.51.54.88,1.2.83a1.18,1.18,0,0,0,1.18-1l0-6.09a3.09,3.09,0,0,0,.08-.6l.46,1.13a1.22,1.22,0,0,0,1.5.51c.62-.2,1-.75.78-1.23"/><path class="cls-20" d="M164,173.57s25.25,1.8,22.87-23.91"/><path class="cls-17" d="M182.16,149.2a4.3,4.3,0,0,0,4,2.5c2.52.08,4.74-1.43,5-3.38l.51-4.8v-.1a.43.43,0,0,1,0,0l.69-6.49c0-.51-.44-.94-1.1-1a1.17,1.17,0,0,0-1.29.88l-.38,3.53a5.32,5.32,0,0,0-1-.34l.45-4.23c0-.51-.44-.94-1.1-1a1.17,1.17,0,0,0-1.29.88l-.45,4.23a5.51,5.51,0,0,0-.91.23l.38-3.63c.05-.51-.44-.94-1.1-1a1.19,1.19,0,0,0-1.29.89l-.64,6a3,3,0,0,0-.15.59l-.33-1.17a1.2,1.2,0,0,0-1.43-.67c-.64.12-1.06.63-.92,1.13"/><path class="cls-7" d="M308.68,150.65c0,32.24-9.77,66.73-55.3,67.9-43.23,1.11-55.29-35-55.29-67.24s24.75-39.78,55.29-39.78,55.3,6.89,55.3,39.12"/><path class="cls-7" d="M170.53,153.89c0-.35,0-.7,0-1,0-24.84-18-45-40.12-45s-40.12,20.14-40.12,45c0,.34,0,.69,0,1A35.31,35.31,0,0,0,90,159v21c0,17.31,15.33,33.11,30.66,33.11h21.78c15.33,0,28.48-15.8,28.48-33.11V159a35.31,35.31,0,0,0-.37-5.08"/><path class="cls-21" d="M123,136s3.93-5.93,10.37-2.43"/><path class="cls-21" d="M161.39,136s-2.14-6.05-8.58-2.55"/><path class="cls-8" d="M153.26,153s-1.81,4.34-10.73,4.21-9.62-4.21-9.62-4.21Z"/><path class="cls-12" d="M146.91,146.58a7.85,7.85,0,0,1,15.67,0"/><path class="cls-8" d="M153.84,146.58a3.41,3.41,0,1,1,6.81,0"/><path class="cls-12" d="M123.61,146.58a7.9,7.9,0,0,1,15.76,0"/><path class="cls-8" d="M130.54,146.58a3.41,3.41,0,1,1,6.82,0"/><path class="cls-8" d="M124.42,142.86l-4.22-1.68,3.74,2.94a5,5,0,0,0-.12.49l-3.65-.46,3.49,1.47a6.13,6.13,0,0,0,0,.77c1.95-6.2,5.87-7,7-7.13-3.59.1-5.35,1.85-6.19,3.6"/><path class="cls-8" d="M130.61,139.26l.31,0-.31,0"/><path class="cls-8" d="M166,144.15l-3.65.46-.12-.49,3.73-2.94-4.21,1.67c-.85-1.75-2.6-3.49-6.19-3.59,1.12.1,5,.93,7,7.13,0,0,0-.3,0-.77Z"/><path class="cls-8" d="M155.59,139.26l-.32,0,.32,0"/><path class="cls-22" d="M214.3,139.73s3.73-7.55,11.92-3.1"/><path class="cls-22" d="M263.21,139.73s-3.72-7.7-11.91-3.24"/><path class="cls-8" d="M252.87,159.44s-2.31,6-13.66,5.77S227,159.44,227,159.44Z"/><path class="cls-12" d="M244.78,153.19c0-5.16,4.46-9.34,10-9.34s10,4.18,10,9.34"/><path class="cls-12" d="M215.13,153.19c0-5.16,4.49-9.34,10-9.34s10,4.18,10,9.34"/><path class="cls-8" d="M216.15,148.45l-5.36-2.13,4.75,3.75c-.06.21-.11.41-.15.61l-4.65-.58,4.44,1.87c-.05.6,0,1,0,1,2.62-8.32,8-9,9.1-9.1-4.72.06-7,2.34-8.09,4.6"/><path class="cls-8" d="M224.24,143.85h0"/><path class="cls-8" d="M269.12,150.1l-4.65.58c0-.2-.09-.4-.15-.62l4.75-3.74-5.36,2.13c-1.1-2.26-3.37-4.54-8.09-4.6,1.08.06,6.48.78,9.1,9.1,0,0,0-.38,0-1Z"/><path class="cls-8" d="M255.43,143.85h0"/><path class="cls-7" d="M140.51,204.75l7.85,14.46a10.82,10.82,0,0,1,1.31,5.86l-1.35,22.36a2.5,2.5,0,0,0,2.74,2.59h0a2.53,2.53,0,0,0,2.3-1.91l5.32-23.06a13.3,13.3,0,0,0-.47-7.57L153.33,204"/><polygon class="cls-24" points="153.51 248.85 148.15 250.23 149.22 230.23 157.48 230.28 153.51 248.85"/><path class="cls-11" d="M164.14,250.57c0-3.85-3.53-7-7.93-7.07s-8,3-8,6.88"/><path class="cls-7" d="M116.83,198.64l-3.4,19.93a11.22,11.22,0,0,1-2.78,5.39L95.72,237.2c-1,1.11-1.24,2.51,0,3.33h0a2.65,2.65,0,0,0,3-.14l18.91-11.11a14.07,14.07,0,0,0,4.55-6.24l5.09-17.39"/><polygon class="cls-24" points="96.17 242.19 93.61 238.62 105.76 227.93 111.28 233.06 96.17 242.19"/><path class="cls-11" d="M103.2,250.63c3.1-2.39,3.36-7,.57-10.35s-7.54-4.08-10.64-1.68"/><path class="cls-7" d="M243.5,205.37l-6.34,15.18a10.91,10.91,0,0,0-.7,6l3.63,22.11a2.5,2.5,0,0,1-2.46,2.85h0a2.53,2.53,0,0,1-2.48-1.67l-7.65-22.4a13.28,13.28,0,0,1-.32-7.57l3.49-13.91"/><polygon class="cls-25" points="235.08 250.56 240.55 251.39 237.43 231.6 229.01 231.85 235.08 250.56"/><path class="cls-11" d="M224.63,251.86c-.09-3.85,3.4-7.08,7.8-7.21s8,2.89,8.13,6.74"/><path class="cls-7" d="M268.79,197.76l5.43,19.47a11.14,11.14,0,0,0,3.31,5.08l16.6,11.28c1.14,1-.15,1.72-1.33,2.67l-1,1.25c-.86.69.16.52-.78-.07l-19.95-9.11a14.05,14.05,0,0,1-5.16-5.74l-6.84-16.78"/><polygon class="cls-25" points="291.43 238.07 294.92 233.34 280.59 224.28 274.81 230.04 291.43 238.07"/><path class="cls-11" d="M285.26,245.1c-3-2.53-3.05-7.17-.13-10.37s7.72-3.75,10.71-1.22"/><path class="cls-20" d="M100,173.25S80.19,173.1,74.78,153"/><path class="cls-17" d="M79.72,153.56a4.28,4.28,0,0,1-3.49,3.23c-2.45.57-4.92-.49-5.5-2.36l-1.42-4.62a.29.29,0,0,1,0-.09l0-.05-1.91-6.23c-.15-.49.25-1,.89-1.16a1.19,1.19,0,0,1,1.44.62l1,3.39a5,5,0,0,1,.87-.52l-1.25-4.06c-.15-.49.25-1,.89-1.16a1.19,1.19,0,0,1,1.44.62l1.25,4.06a5.79,5.79,0,0,1,.94.06l-1.07-3.5c-.15-.48.25-1,.89-1.15a1.19,1.19,0,0,1,1.44.61l1.79,5.83a2.69,2.69,0,0,1,.26.54l.1-1.21a1.21,1.21,0,0,1,1.27-.93c.66,0,1.16.42,1.12.93"/><path class="cls-8" d="M246.64,153.25a4.09,4.09,0,0,1,8.17,0"/><path class="cls-8" d="M218.72,153.25a4.09,4.09,0,0,1,8.17,0"/><rect class="cls-26" x="48.48" y="202.98" width="1.13" height="28.28" rx="0.56" transform="translate(-159.2 138.51) rotate(-56.59)"/><rect class="cls-27" x="21.91" y="224.9" width="42.65" height="24.61" transform="translate(86.46 474.42) rotate(-180)"/><path class="cls-28" d="M60.9,221.76a28.74,28.74,0,0,0,3.08.05c2,.07,3.11,1.22,3.43,3.56q0,11.32,0,22.65a9.88,9.88,0,0,1-.32,2.92,4.11,4.11,0,0,1-3.87,2h-39a4,4,0,0,1-3.85-2,7.86,7.86,0,0,1-.3-2.41c0-3.17,0-6.34,0-9.51a1.92,1.92,0,0,0-.9-2,1.42,1.42,0,0,1-.67-1.19,28.48,28.48,0,0,1,0-6.78,1.17,1.17,0,0,1,.5-1c1-.47,1.11-1.29,1.06-2.25a3.64,3.64,0,0,1,4-4.07c4.19,0,8.39-.08,12.59-.09,5.82,0,11.65,0,17.47,0Zm-1,23.23c6.59-8.46.75-19-8.31-19a11,11,0,0,0-11,11.08C40.41,245.93,50.89,252.66,59.94,245ZM30.87,233.31c.47,0,.49,0,.49-.92,0-2.53.13-2.08-1-2.1-2,0-3.91,0-5.87,0H24c-.18,0-.27.2-.29.55a2.09,2.09,0,0,0,0,.25c-.1,2.21-.1,2.21,1,2.21h6.13Zm0-4.67c.33,0,.47-.19.46-.87,0-2.45.09-2.14-1-2.14H24.57l-.52,0q-.32,0-.33.63v.26c0,2.56-.11,2.06,1,2.09,1,0,1.91,0,2.86,0C28.69,228.63,29.79,228.61,30.9,228.64Z"/><path class="cls-26" d="M51.78,245.61a8.23,8.23,0,1,0-8.24-8.13A8.24,8.24,0,0,0,51.78,245.61Z"/><rect class="cls-27" x="18.23" y="222.26" width="2.03" height="11.17" rx="1.02" transform="translate(38.5 455.7) rotate(-180)"/><polyline class="cls-29" points="66.56 215.88 68.77 201.04 60.76 215.29 58.95 193.37 56.25 213.78 46.09 202.68 52.09 215.94"/><polyline class="cls-29" points="69.43 217.59 78.43 205.41 73.93 219.59 90.81 212.68 76.77 223.26 90.81 225.26 74.77 228.26 83.77 234.21 73.43 233.85"/><polyline class="cls-29" points="75.43 237.06 81.79 244.34 73.79 241.26 75.77 248.17 71.87 245.61"/><path class="cls-20" d="M295,176.49s18.64.77,22.89-24.49"/><path class="cls-17" d="M314.3,148.83a4.31,4.31,0,0,0,3.55,3.17c2.46.52,4.91-.59,5.45-2.47l1.34-4.64a.3.3,0,0,0,0-.1.08.08,0,0,0,0,0l1.81-6.27c.14-.49-.27-1-.91-1.14a1.18,1.18,0,0,0-1.43.64l-1,3.41a5,5,0,0,0-.88-.49l1.18-4.09c.14-.49-.27-1-.92-1.15a1.19,1.19,0,0,0-1.42.65L320,140.4a4.84,4.84,0,0,0-.94.07l1-3.51c.14-.5-.27-1-.91-1.15a1.2,1.2,0,0,0-1.43.65L316,142.31a3.87,3.87,0,0,0-.25.55l-.12-1.21a1.21,1.21,0,0,0-1.29-.91c-.66,0-1.15.44-1.1.95"/></g></svg>