<svg xmlns="http://www.w3.org/2000/svg" viewBox="0 0 348 282.35"><defs><style>.cls-1{fill:#f3e1b4;}.cls-2{fill:#2d9d48;}.cls-3{fill:#f8d978;}.cls-4{fill:#954f22;}.cls-5{fill:#ffca05;}.cls-14,.cls-17,.cls-19,.cls-20,.cls-21,.cls-6,.cls-9{fill:none;stroke-miterlimit:10;}.cls-6{stroke:#108ab2;}.cls-14,.cls-17,.cls-20,.cls-21,.cls-6,.cls-9{stroke-linecap:round;}.cls-14,.cls-6{stroke-width:4px;}.cls-7{fill:#a1cbec;}.cls-8{fill:#00a0cc;}.cls-20,.cls-21,.cls-9{stroke:#0d3f60;}.cls-9{stroke-width:1.11px;}.cls-10{fill:#0d3f60;}.cls-11{fill:#fff;}.cls-12{fill:#ec1651;}.cls-13{fill:#4f4a47;}.cls-14{stroke:#0a8ab2;}.cls-15{fill:#e09326;}.cls-16{fill:#faac18;}.cls-17{stroke:#2585aa;stroke-width:0.81px;}.cls-18{fill:#56c4cf;}.cls-19{stroke:#000;}.cls-20{stroke-width:1.53px;}.cls-21{stroke-width:1.5px;}.cls-22{fill:#5652a2;}.cls-23{fill:#838383;}</style></defs><g id="Layer_1" data-name="Layer 1"><polyline class="cls-1" points="0 270.65 0 0.1 348 0.1 348 270.65"/><rect class="cls-2" y="119.57" width="348" height="162.68"/><path class="cls-3" d="M168.26,55.52c0-18.47,15.88-32.95,35.94-32.95s36.33,15,36.33,33.43V86.59H168.31V61.16S168.26,57.27,168.26,55.52Z"/><path class="cls-4" d="M136,55.52c0-18.47-15.88-32.95-35.94-32.95S63.71,37.53,63.71,56v64.59h72.21V61.16S136,57.27,136,55.52Z"/><rect class="cls-5" x="168.31" y="67.27" width="72.21" height="19.3"/><path class="cls-6" d="M197.32,108.49s-18.28-1.3-16.56,17.31"/><path class="cls-7" d="M184.17,126.14a3.12,3.12,0,0,0-2.93-1.81c-1.82-.06-3.43,1-3.58,2.45l-.37,3.47v.08a0,0,0,0,0,0,0l-.5,4.7c0,.37.32.68.8.7a.86.86,0,0,0,.93-.64l.27-2.56a5.13,5.13,0,0,0,.69.25l-.32,3.06c0,.37.32.68.79.7a.86.86,0,0,0,.94-.64l.32-3.06a5.06,5.06,0,0,0,.67-.17l-.28,2.63c0,.37.32.68.79.7a.86.86,0,0,0,.94-.64l.46-4.39a1.63,1.63,0,0,0,.11-.42l.24.85a.89.89,0,0,0,1,.48c.46-.09.76-.46.66-.82"/><path class="cls-8" d="M186.31,94c0-.25,0-.5,0-.75,0-18,13-32.57,29.06-32.57S244.4,75.22,244.4,93.21c0,.25,0,.5,0,.75a26.23,26.23,0,0,1,.27,3.68v15.23c0,12.54-11.11,24-22.21,24H206.67c-11.1,0-20.63-11.44-20.63-24V97.64a26.23,26.23,0,0,1,.27-3.68"/><path class="cls-9" d="M219.76,81s-2.12-4.3-6.78-1.76"/><path class="cls-9" d="M192.93,81s1.55-4.38,6.21-1.85"/><path class="cls-10" d="M198.82,93.87s1.31,3.14,7.77,3,7-3,7-3Z"/><path class="cls-11" d="M203.42,88.67a5.69,5.69,0,0,0-11.35,0"/><path class="cls-10" d="M198.4,88.67a2.47,2.47,0,0,0-4.94,0"/><path class="cls-11" d="M220.29,88.67a5.72,5.72,0,0,0-11.41,0"/><path class="cls-10" d="M215.27,88.67a2.47,2.47,0,1,0-4.93,0"/><path class="cls-10" d="M219.71,86l3-1.21-2.71,2.13a2.58,2.58,0,0,1,.09.35l2.65-.33L220.26,88a4.48,4.48,0,0,1,0,.55c-1.41-4.49-4.24-5.08-5.06-5.16a4.71,4.71,0,0,1,4.49,2.6"/><path class="cls-10" d="M215.22,83.37l-.22,0,.22,0"/><path class="cls-10" d="M189.57,86.91l2.65.33c0-.11.05-.23.08-.35l-2.7-2.13L192.65,86a4.7,4.7,0,0,1,4.48-2.6c-.81.07-3.64.67-5.06,5.16,0,0,0-.22,0-.55Z"/><path class="cls-10" d="M197.13,83.37l.23,0-.23,0"/><path class="cls-8" d="M208.06,130.8l-5.69,10.47a7.76,7.76,0,0,0-1,4.24l1,16.2a1.82,1.82,0,0,1-2,1.87h0a1.83,1.83,0,0,1-1.66-1.38l-3.85-16.7a9.7,9.7,0,0,1,.33-5.49l3.54-9.76"/><polygon class="cls-12" points="198.64 162.73 202.52 163.74 201.74 149.25 195.66 148.8 198.64 162.73"/><path class="cls-13" d="M191.27,164.34c-.07-2.79,2.45-5.13,5.63-5.24s5.83,2.07,5.91,4.86"/><path class="cls-8" d="M225.2,126.37l2.47,14.43a8.14,8.14,0,0,0,2,3.91l11.13,9.35a1.73,1.73,0,0,1-.34,2.65h0a1.91,1.91,0,0,1-2.2-.11l-13.7-8a10.17,10.17,0,0,1-3.29-4.52l-3.69-12.59"/><polygon class="cls-12" points="240.16 157.91 243.03 154.76 233.38 147.18 228.33 150.43 240.16 157.91"/><path class="cls-13" d="M236,163.33c-2.25-1.74-2.43-5.09-.42-7.5s5.47-3,7.71-1.22"/><path class="cls-6" d="M237.4,108s14.34-.1,18.25-14.66"/><path class="cls-7" d="M252.07,93.73a3.14,3.14,0,0,0,2.53,2.34c1.78.41,3.57-.36,4-1.72l1-3.34s0,0,0-.07l0,0L261,86.4c.11-.36-.19-.74-.65-.84a.86.86,0,0,0-1,.44l-.76,2.46a3.26,3.26,0,0,0-.63-.37l.91-3c.11-.35-.18-.73-.65-.84a.87.87,0,0,0-1,.45l-.9,3a3.16,3.16,0,0,0-.69,0l.78-2.53a.72.72,0,0,0-.64-.84.87.87,0,0,0-1,.44L253.39,89a2.09,2.09,0,0,0-.19.4l-.08-.88a.87.87,0,0,0-.92-.68c-.47,0-.83.31-.8.68"/><path class="cls-14" d="M139.13,135.47c4,28.5-24.91,25.91-24.91,25.91"/><path class="cls-7" d="M145.14,125.28a1.06,1.06,0,0,0-1.06-1,1.08,1.08,0,0,0-1.16,1l-.18,3.82a4.45,4.45,0,0,0-.9-.36l.22-4.59a1,1,0,0,0-1.06-1,1.07,1.07,0,0,0-1.16,1l-.22,4.59a4.06,4.06,0,0,0-.84.25l.19-3.94a1,1,0,0,0-1.06-1,1.07,1.07,0,0,0-1.16,1l-.31,6.56a3.43,3.43,0,0,0-.11.64l-.37-1.27a1.13,1.13,0,0,0-1.35-.73h0a1,1,0,0,0-.8,1.22l1.95,6.81a1,1,0,0,0,.5.6,4.2,4.2,0,0,0,3.87,2.71,4.11,4.11,0,0,0,4.43-3.66l.24-5.19v-.11s0,0,0-.06Z"/><polyline class="cls-15" points="51.58 247.86 56.35 247.86 56.35 227.33 94.73 227.33 94.73 247.86 99.6 247.86 99.6 225.41 99.52 225.41 99.52 221.04 51.58 221.04 51.58 225.47"/><rect class="cls-16" x="46.81" y="211.05" width="56.94" height="12.89" rx="5.22"/><path class="cls-8" d="M123.83,143.54a243.66,243.66,0,0,1,4.55,27.54c2.37,20.42-11.57,38.66-31.14,40.73l-32.45,3.43c-14.28,1.51-28.07-6.33-35-18.73-5.17-9.22-5.86-21.37-6.95-31.71-2.1-20,.31-44.89,15.33-59.78,20-19.8,54.06-18.71,71.37,4a58.56,58.56,0,0,1,7.68,13.42A140.77,140.77,0,0,1,123.83,143.54Z"/><path class="cls-10" d="M78.7,143.83s0,5.23,9.93,3.92c7.78-1,7.89-5.86,7.89-5.86Z"/><path class="cls-17" d="M98.76,132.27c-1,4.31,2.49,6.29,5.82,6.42"/><polyline class="cls-8" points="107.29 197.15 115.22 240.44 111.35 241.81 90.18 203.38"/><polyline class="cls-8" points="85.89 205.62 93.82 248.91 89.96 250.28 68.78 211.85"/><polygon class="cls-18" points="110.76 241.96 102.52 227.08 112.41 223.56 115.28 240.15 110.76 241.96"/><polygon class="cls-18" points="89.69 249.97 81.59 235.6 91.02 232.24 94.58 248.69 89.69 249.97"/><path class="cls-13" d="M106.86,244.7a9.77,9.77,0,0,0-18.4,6.55"/><path class="cls-13" d="M129.63,235.74a9.77,9.77,0,0,0-18.4,6.55"/><path class="cls-17" d="M75.09,135.25c.52,3.29-3.27,8-7.9,6.93"/><path class="cls-17" d="M100.84,112.28a57.37,57.37,0,0,1-30.64,1.79"/><path class="cls-11" d="M75.59,135.63A8.35,8.35,0,0,0,59,137.41"/><path class="cls-11" d="M115,131.29a8.1,8.1,0,0,0-8.92-7.18c-4.61.34-8.1,4.1-7.78,8.4"/><path class="cls-10" d="M106.89,124.2h0Z"/><path class="cls-10" d="M66.18,128.49h0Z"/><path class="cls-19" d="M92.16,132.88c.46,5.41,8.25,9.16,17.41,8.39s13.09-4.44,15.75-11.2c2-5,.17-9.93-9-9.16S91.7,127.47,92.16,132.88Z"/><path class="cls-19" d="M47.45,137.28c3,5.72,8.25,9.16,17.41,8.39s16.21-5.79,15.75-11.2-15.71-8.62-24.87-7.84S44.9,132.48,47.45,137.28Z"/><path class="cls-19" d="M93,135.41s-6.23-8.35-12.46.73"/><path class="cls-10" d="M114.08,127.6l4-2.12L114.65,129c0,.19.1.36.15.53l3.57-.76L115,130.58a7.2,7.2,0,0,1,.09.83c-2.4-6.64-6.33-7.27-7.44-7.31A6.4,6.4,0,0,1,114.08,127.6Z"/><path class="cls-10" d="M108.32,123.62c-.1,0-.2,0-.31,0A2.53,2.53,0,0,1,108.32,123.62Z"/><path class="cls-10" d="M55.27,135.44l3.65,0c0-.18,0-.36,0-.54l-4.09-2.71,4.38,1.27c.57-2,2.06-3.8,5.56-4.38-1.08.26-4.82,1.33-5.83,8.32,0,0,0-.33-.08-.84Z"/><path class="cls-10" d="M83.67,125.35l.31,0C83.87,125.31,83.78,125.34,83.67,125.35Z"/><path class="cls-14" d="M52.44,190.65c-28.62-3-19.17-30.41-19.17-30.41"/><path class="cls-7" d="M60.89,198.93a1,1,0,0,0,1.27-.78,1.07,1.07,0,0,0-.65-1.35l-3.66-1.09a5.14,5.14,0,0,0,.57-.79l4.39,1.31a1,1,0,0,0,1.27-.78,1.07,1.07,0,0,0-.65-1.35L59,192.79a5.14,5.14,0,0,0,0-.88L62.77,193a1,1,0,0,0,1.27-.78,1.06,1.06,0,0,0-.65-1.35L57.1,189a3.2,3.2,0,0,0-.6-.26l1.33-.05a1.13,1.13,0,0,0,1-1.14h0a1,1,0,0,0-1-1.07l-7.07.26a1,1,0,0,0-.71.34,4.23,4.23,0,0,0-3.56,3.1A4.11,4.11,0,0,0,49,195.39l5,1.49.11,0,0,0Z"/><path class="cls-20" d="M62.6,124.42s5-4.39,9.61,1.3"/><path class="cls-20" d="M106.77,119s-5.28-3.67-8.47,2.93"/><path class="cls-6" d="M246.54,182.41s-15.25,0-12.79,28"/><path class="cls-7" d="M237.71,210.62a3.62,3.62,0,0,0-3.6-1.7c-2.1.16-3.81,1.63-3.8,3.27l0,4v.13l0,5.45c0,.43.45.74,1,.7a1,1,0,0,0,1-.85l0-3a4.27,4.27,0,0,0,.82.19l0,3.56a.83.83,0,0,0,1,.7,1,1,0,0,0,1-.85l0-3.56a6.61,6.61,0,0,0,.74-.28v3.06a.86.86,0,0,0,1,.7,1,1,0,0,0,1-.86l0-5.09a3,3,0,0,0,.07-.51l.39.95a1,1,0,0,0,1.24.42.82.82,0,0,0,.66-1"/><path class="cls-8" d="M323.43,163.51c0,27-8.18,55.82-46.27,56.8C241,221.24,230.9,191,230.9,164.05s20.71-33.28,46.26-33.28,46.27,5.77,46.27,32.74"/><path class="cls-21" d="M244.72,155s2.35-6.65,9.6-3.76"/><path class="cls-21" d="M284.39,154.37s-2.28-6.44-9.14-2.72"/><path class="cls-10" d="M275.73,171.28s-1.93,5-11.42,4.82-10.25-4.82-10.25-4.82Z"/><path class="cls-11" d="M269,165.63a8.36,8.36,0,0,1,16.69,0"/><path class="cls-11" d="M244.15,165.63a8.41,8.41,0,0,1,16.78,0"/><path class="cls-10" d="M245,161.66l-4.48-1.78,4,3.13c-.05.18-.09.35-.13.52l-3.88-.49,3.71,1.57a6.94,6.94,0,0,0,0,.82c2.2-7,6.72-7.56,7.62-7.61-3.95.05-5.85,2-6.77,3.84"/><path class="cls-10" d="M251.78,157.82h0"/><path class="cls-10" d="M289.33,163l-3.89.49c0-.17-.08-.34-.13-.52l4-3.13-4.49,1.78c-.91-1.89-2.82-3.8-6.77-3.85.9.05,5.42.66,7.62,7.61a6.81,6.81,0,0,0,0-.81Z"/><path class="cls-10" d="M277.87,157.81h0"/><path class="cls-8" d="M267.89,209.28,262.59,222a9.08,9.08,0,0,0-.59,5l3,18.5a2.08,2.08,0,0,1-2.06,2.38h0a2.1,2.1,0,0,1-2.07-1.39l-6.41-18.74a11.22,11.22,0,0,1-.26-6.34l2.92-11.63"/><polygon class="cls-22" points="260.85 247.1 265.42 247.79 262.82 231.23 255.77 231.44 260.85 247.1"/><path class="cls-13" d="M252.1,248.18c-.07-3.22,2.85-5.92,6.53-6s6.73,2.42,6.8,5.64"/><path class="cls-8" d="M289.05,202.92l4.55,16.29a9.36,9.36,0,0,0,2.76,4.25l13.9,9.43c.95.84-.13,1.45-1.12,2.24l-.85,1c-.72.58.13.44-.65,0l-16.7-7.63a11.73,11.73,0,0,1-4.31-4.8l-5.73-14"/><polygon class="cls-22" points="308 236.65 310.92 232.69 298.93 225.11 293.51 229.45 308 236.65"/><path class="cls-13" d="M302.83,243.11c-2.5-2.11-2.55-6-.1-8.67s6.45-3.14,9-1"/><path class="cls-6" d="M309.53,185.65s15.3.95,17.08-20.41"/><path class="cls-7" d="M323.42,161.38a3.62,3.62,0,0,0,3.19,2.4c2.08.26,4.05-.84,4.37-2.44l.79-4s0-.06,0-.09,0,0,0,0l1.07-5.35c.08-.41-.3-.82-.84-.88a1,1,0,0,0-1.15.63l-.58,2.91a4.18,4.18,0,0,0-.77-.35l.7-3.49c.08-.42-.3-.82-.84-.89a1,1,0,0,0-1.15.64l-.69,3.49a4.88,4.88,0,0,0-.78.12l.59-3c.09-.42-.29-.82-.84-.89a1,1,0,0,0-1.14.64l-1,5a2.48,2.48,0,0,0-.17.48l-.19-1a1,1,0,0,0-1.13-.66c-.55.05-.93.44-.85.87"/><ellipse class="cls-23" cx="127.5" cy="77.72" rx="2.76" ry="2.12"/><path class="cls-10" d="M74.76,135.84a4.24,4.24,0,0,0-8.44.84"/><path class="cls-10" d="M113.33,131.42a4.24,4.24,0,1,0-8.45.64"/><path class="cls-10" d="M244.32,164.33a5.43,5.43,0,0,0,5.46-1.34,5.1,5.1,0,0,0,.95-5.08A8.07,8.07,0,0,0,244.32,164.33Z"/><path class="cls-10" d="M269,164.33a5.42,5.42,0,0,0,5.46-1.34,4.93,4.93,0,0,0,1-5A8,8,0,0,0,269,164.33Z"/></g></svg>