<svg id="Layer_1" data-name="Layer 1" xmlns="http://www.w3.org/2000/svg" viewBox="0 0 496.11 275.13"><defs><style>.cls-1,.cls-14{fill:#0d4060;}.cls-1{opacity:0.15;}.cls-11,.cls-17,.cls-18,.cls-2,.cls-6,.cls-9{fill:none;stroke-linecap:round;stroke-miterlimit:10;}.cls-2{stroke:#198ab1;stroke-width:4px;}.cls-3{fill:#a1cbec;}.cls-4{fill:#f8ac1c;}.cls-5{fill:#e59525;}.cls-6{stroke:#138ab2;stroke-width:6.19px;}.cls-7{fill:#0aa0cc;}.cls-8{fill:#fff;}.cls-18,.cls-9{stroke:#0d4061;}.cls-9{stroke-width:2.05px;}.cls-10{fill:#0d4061;}.cls-11{stroke:#231f20;stroke-width:1.1px;}.cls-12{fill:#5754a3;}.cls-13{fill:#504b48;}.cls-15{fill:#00a1cd;}.cls-16{fill:#ed1651;}.cls-17{stroke:#0d4060;stroke-width:2.13px;}.cls-18{stroke-width:2.58px;}.cls-19{fill:#57c4cf;}</style></defs><ellipse class="cls-1" cx="248.05" cy="252.67" rx="208.52" ry="10.04"/><path class="cls-2" d="M341.61,141.3s3.34,15.37-16.33,29.34"/><path class="cls-3" d="M319.4,168.15c1.89-.54,4.25.39,5.85,2.48,2,2.68,2.09,6.27.13,8l-4.85,4.25-.1.08-.05.06-6.54,5.74a1.34,1.34,0,0,1-1.9-.45,1.59,1.59,0,0,1,0-2.09l3.56-3.13a6.14,6.14,0,0,1-1.1-.78l-4.27,3.75a1.34,1.34,0,0,1-1.9-.45,1.58,1.58,0,0,1,0-2.09l4.26-3.75a8.43,8.43,0,0,1-.45-1.18l-3.66,3.22a1.33,1.33,0,0,1-1.9-.45,1.59,1.59,0,0,1,0-2.09l6.12-5.37a3.73,3.73,0,0,1,.52-.61l-1.54.54a1.61,1.61,0,0,1-1.83-1h0a1.33,1.33,0,0,1,.53-1.87"/><polyline class="cls-4" points="141.63 250.84 133.54 250.84 133.54 216.02 68.44 216.02 68.44 250.84 60.18 250.84 60.18 212.77 60.32 212.77 60.32 205.34 141.63 205.34 141.63 212.87"/><rect class="cls-5" x="53.92" y="188.78" width="94.63" height="18.92" rx="5.72"/><polyline class="cls-4" points="298.1 248.52 290.02 248.52 290.02 213.7 224.92 213.7 224.92 248.52 216.66 248.52 216.66 210.44 216.79 210.44 216.79 203.02 298.1 203.02 298.1 210.55"/><rect class="cls-5" x="210.4" y="186.46" width="94.63" height="18.92" rx="5.72"/><polyline class="cls-4" points="424.1 249.35 416.02 249.35 416.02 214.53 350.92 214.53 350.92 249.35 342.66 249.35 342.66 211.28 342.79 211.28 342.79 203.85 424.1 203.85 424.1 211.38"/><rect class="cls-5" x="336.4" y="187.29" width="94.63" height="18.92" rx="5.72"/><path class="cls-6" d="M171.08,95.79s-7.67,11.74-13.42,15.34-18,4.32-18,4.32"/><path class="cls-3" d="M165.45,93.59a6.09,6.09,0,0,0,2.3,6.36c2.64,2,6.31,1.76,8.15-.62l4.53-5.87.09-.13.06-.06,6.12-7.93a1.6,1.6,0,0,0-2.52-1.94l-3.33,4.32a6.11,6.11,0,0,0-.75-1.17l4-5.18a1.59,1.59,0,0,0-2.51-1.94l-4,5.18a7.57,7.57,0,0,0-1.19-.4l3.44-4.44a1.6,1.6,0,0,0-2.52-1.94l-5.72,7.41a5,5,0,0,0-.65.65l.62-1.79a1.63,1.63,0,0,0-1-2h0a1.42,1.42,0,0,0-1.93.77"/><rect class="cls-7" x="55.58" y="5.14" width="97.08" height="190.55" rx="34.9" transform="translate(8.43 -8.06) rotate(4.62)"/><path class="cls-8" d="M101.18,53.57a9.62,9.62,0,0,1,19.17,1.55"/><path class="cls-8" d="M135.21,56.32a9.62,9.62,0,0,1,19.17,1.55"/><line class="cls-9" x1="99.13" y1="38.14" x2="117.03" y2="35.11"/><line class="cls-9" x1="154.33" y1="41.48" x2="139.21" y2="37.32"/><path class="cls-10" d="M109.65,54.26a4.16,4.16,0,0,1,8.29.67"/><path class="cls-10" d="M143.68,57a4.16,4.16,0,0,1,8.29.67"/><ellipse class="cls-11" cx="109.24" cy="50.57" rx="9.26" ry="13.62" transform="matrix(0.07, -1, 1, 0.07, 51.15, 156)"/><ellipse class="cls-11" cx="146.41" cy="53.23" rx="9.26" ry="13.62" transform="translate(83.05 195.56) rotate(-85.98)"/><path class="cls-11" d="M122.77,52.44s6-6.63,10.25.81"/><path class="cls-6" d="M69.76,108.93S76.14,134.58,88,139.18s29.61,2.28,29.61,2.28"/><polyline class="cls-7" points="89.97 196.17 111.61 249.71 118.64 247.76 110.32 194.97"/><polygon class="cls-12" points="120.12 254.33 114.08 256.01 105.22 234.38 116.06 231.37 120.12 254.33"/><path class="cls-13" d="M135,250.65a10.83,10.83,0,1,0-20.88,5.79"/><polyline class="cls-7" points="116.69 192.24 138.57 242.52 145.6 240.57 136.39 182.11"/><polygon class="cls-12" points="147.24 247.33 140.46 249.21 132.31 228.13 143.05 224.41 147.24 247.33"/><path class="cls-13" d="M161.43,243.41a10.83,10.83,0,0,0-20.88,5.79"/><path class="cls-3" d="M115.35,135.23a6.08,6.08,0,0,0-3.07,6c.32,3.32,3,5.8,6,5.51l7.38-.71.16,0h.08l10-1a1.6,1.6,0,0,0-.3-3.16l-5.43.53a6.67,6.67,0,0,0,.34-1.35l6.51-.63a1.6,1.6,0,0,0-.31-3.16l-6.51.63a6.53,6.53,0,0,0-.52-1.14l5.59-.54a1.51,1.51,0,0,0,1.27-1.71,1.52,1.52,0,0,0-1.57-1.45l-9.32.91a4.8,4.8,0,0,0-.93,0l1.73-.78a1.62,1.62,0,0,0,.76-2.06h0a1.42,1.42,0,0,0-1.88-.88"/><path class="cls-14" d="M139.72,64.62s-3,8.63-14.19,7.45-11.42-9.52-11.42-9.52Z"/><path class="cls-2" d="M220.24,130.74s-6,21.21-42.62,10.29"/><path class="cls-15" d="M309,111.31c0-.48,0-1,0-1.45C309,75.17,283.94,47,253,47s-56,28.13-56,62.82c0,.49,0,1,0,1.45a48.73,48.73,0,0,0-.52,7.1v29.37C196.48,172,217.9,194,239.31,194h30.42c21.41,0,39.78-22.07,39.78-46.25V118.41A48.73,48.73,0,0,0,309,111.31Z"/><polyline class="cls-15" points="223.23 178.43 213.86 241.24 218.93 242.62 241.18 183.59"/><polygon class="cls-16" points="219.86 241.49 213.59 239.47 218.33 210.99 229.68 214.09 219.86 241.49"/><path class="cls-13" d="M219.75,244.1A9.78,9.78,0,0,0,200.89,239"/><polyline class="cls-15" points="246.06 184.66 236.69 247.47 241.76 248.85 264.02 189.82"/><polygon class="cls-16" points="242.69 247.72 236.43 245.69 241.17 217.22 252.52 220.32 242.69 247.72"/><path class="cls-13" d="M242.58,250.33a9.77,9.77,0,0,0-18.85-5.15"/><path class="cls-17" d="M219.3,77.45S218,86.61,208,84.81"/><path class="cls-17" d="M251.11,76.57s.6,8.94,10.57,6.65"/><path class="cls-14" d="M245.55,106.94a1.2,1.2,0,0,1,.43,2.32,31.81,31.81,0,0,1-11.3,1.52c-5.26,0-8.47-.74-10.43-1.53a1.19,1.19,0,0,1,.43-2.31Z"/><path class="cls-8" d="M240.79,99.11c0-5.67,4.89-10.26,10.94-10.26s10.94,4.59,10.94,10.26"/><path class="cls-8" d="M208.25,99.11c0-5.67,4.92-10.26,11-10.26s11,4.59,11,10.26"/><path class="cls-14" d="M209.37,93.91l-5.88-2.34,5.21,4.11c-.06.23-.11.45-.16.67l-5.1-.64,4.87,2.06a10.24,10.24,0,0,0-.05,1.07c2.73-8.66,8.2-9.81,9.76-10C213,89,210.56,91.46,209.37,93.91Z"/><path class="cls-14" d="M218,88.88c.15,0,.28,0,.44,0C218.46,88.85,218.29,88.85,218,88.88Z"/><path class="cls-14" d="M267.49,95.71l-5.1.64c-.05-.22-.1-.44-.17-.68l5.22-4.11-5.88,2.34c-1.19-2.44-3.64-4.88-8.65-5,1.56.15,7,1.3,9.76,10a10.24,10.24,0,0,0-.05-1.07Z"/><path class="cls-14" d="M252.91,88.88c-.27,0-.44,0-.44,0C252.63,88.85,252.76,88.87,252.91,88.88Z"/><path class="cls-2" d="M293.18,137.72s11.28,19-12.54,48.89"/><path class="cls-14" d="M208.25,97.67A6.43,6.43,0,0,0,216.68,89,10.53,10.53,0,0,0,208.25,97.67Z"/><path class="cls-14" d="M240.79,97.67A6.43,6.43,0,0,0,249.22,89,10.53,10.53,0,0,0,240.79,97.67Z"/><path class="cls-7" d="M457.52,101.38c-1.39,41.11-36.91,97.84-76.34,96.51-41.53-1.4-71.08-59.49-69.69-100.61S345.89,47.65,386.2,49,458.91,60.27,457.52,101.38Z"/><path class="cls-8" d="M321.41,100.27a11.92,11.92,0,1,1,23.83.8"/><path class="cls-8" d="M356.88,101.46a11.92,11.92,0,1,1,23.83.81"/><line class="cls-18" x1="336.04" y1="77.5" x2="323.66" y2="82.56"/><line class="cls-18" x1="367.51" y1="78.72" x2="380.98" y2="85.04"/><path class="cls-10" d="M362.69,109.2a1.28,1.28,0,0,1,.46,2.46c-2.43,1-6.49,2-13,1.71s-10-1.45-12-2.59a1.29,1.29,0,0,1,.7-2.39Z"/><polyline class="cls-7" points="346.05 237.82 354.59 185.39 370.61 189.65 350.09 240.47 347.21 235.67"/><polygon class="cls-19" points="360.56 214.51 350.01 211.71 345.58 238.82 350.95 240.25 360.56 214.51"/><path class="cls-13" d="M334,236.2c1.05-4,5.69-6.17,10.35-4.93s7.6,5.46,6.55,9.42"/><polyline class="cls-7" points="366.62 243.29 375.16 190.86 391.19 195.12 370.67 245.94 367.79 241.14"/><polygon class="cls-19" points="381.13 219.98 370.58 217.18 366.15 244.29 371.52 245.72 381.13 219.98"/><path class="cls-13" d="M354.71,241.7c1.05-4,5.69-6.16,10.35-4.92s7.6,5.45,6.55,9.41"/><path class="cls-2" d="M413.64,142.05s-28.19,22.76-46.26-15.84"/><path class="cls-3" d="M373.52,125c.47,1.9-.54,4.23-2.7,5.74-2.75,1.93-6.35,1.85-8-.17l-4.07-5a1,1,0,0,0-.08-.11s0,0-.05,0l-5.49-6.75a1.34,1.34,0,0,1,.52-1.88,1.58,1.58,0,0,1,2.09,0l3,3.68a6.77,6.77,0,0,1,.82-1.07L356,115a1.34,1.34,0,0,1,.53-1.88,1.58,1.58,0,0,1,2.09,0l3.58,4.41a6.76,6.76,0,0,1,1.2-.4l-3.08-3.79a1.34,1.34,0,0,1,.52-1.88,1.58,1.58,0,0,1,2.09,0l5.13,6.31a3.92,3.92,0,0,1,.6.55l-.48-1.56a1.59,1.59,0,0,1,1.1-1.78h0a1.31,1.31,0,0,1,1.85.59"/><path class="cls-3" d="M279.83,177.93c1.79-.81,4.25-.24,6.14,1.6,2.41,2.34,3,5.89,1.31,7.89l-4.16,4.92-.1.1s0,0,0,.05l-5.62,6.65a1.34,1.34,0,0,1-1.94-.17,1.58,1.58,0,0,1-.34-2.06l3.06-3.62a6.81,6.81,0,0,1-1.21-.6L273.26,197a1.34,1.34,0,0,1-1.94-.16,1.59,1.59,0,0,1-.34-2.07l3.66-4.33a7.55,7.55,0,0,1-.61-1.11l-3.16,3.73a1.34,1.34,0,0,1-1.94-.16,1.6,1.6,0,0,1-.34-2.07l5.25-6.21a3.71,3.71,0,0,1,.43-.68l-1.44.76a1.6,1.6,0,0,1-2-.76h0a1.32,1.32,0,0,1,.24-1.93"/><path class="cls-3" d="M181.66,136.18c1.34,1.44,1.6,4,.46,6.34-1.45,3-4.62,4.72-7.05,3.76l-6-2.36-.12-.06-.07,0-8.09-3.19a1.33,1.33,0,0,1-.47-1.89,1.59,1.59,0,0,1,1.84-1l4.41,1.74a7.09,7.09,0,0,1,.19-1.34l-5.28-2.08a1.33,1.33,0,0,1-.47-1.89,1.58,1.58,0,0,1,1.84-1l5.29,2.08a8.4,8.4,0,0,1,.84-.94l-4.54-1.79a1.35,1.35,0,0,1-.47-1.89,1.6,1.6,0,0,1,1.85-1l7.57,3a3.53,3.53,0,0,1,.78.18L173,131.73a1.6,1.6,0,0,1,.09-2.1h0a1.32,1.32,0,0,1,1.9-.39"/><path class="cls-14" d="M321.62,97.85a6.43,6.43,0,0,0,8.43-8.63A10.53,10.53,0,0,0,321.62,97.85Z"/><path class="cls-14" d="M356.88,98.94a6.43,6.43,0,0,0,8.43-8.63A10.58,10.58,0,0,0,356.88,98.94Z"/></svg>