<svg id="Layer_1" data-name="Layer 1" xmlns="http://www.w3.org/2000/svg" viewBox="0 0 496.11 275.13"><defs><style>.cls-1{fill:#0d4060;opacity:0.15;}.cls-10,.cls-11,.cls-13,.cls-2{fill:none;stroke-linecap:round;stroke-miterlimit:10;}.cls-10,.cls-2{stroke:#188ab2;}.cls-2{stroke-width:5.32px;}.cls-3{fill:#a2cced;}.cls-4{fill:#0aa0cc;}.cls-5{fill:#5753a4;}.cls-6{fill:#57c4cf;}.cls-7{fill:#fff;}.cls-8{fill:#0d4161;}.cls-9{fill:#514c49;}.cls-10{stroke-width:5.05px;}.cls-11,.cls-13{stroke:#0d4161;}.cls-11{stroke-width:2.07px;}.cls-12{fill:#ec1e52;}.cls-13{stroke-width:2px;}</style></defs><ellipse class="cls-1" cx="241.4" cy="259.67" rx="200.61" ry="10.04"/><g id="Layer_1-2" data-name="Layer 1"><path class="cls-2" d="M310.69,111.64s-18.36,3.3-27.92-1.54S256,91.22,256,91.22"/><path class="cls-3" d="M237.66,90.57a1.57,1.57,0,0,1-.37-2.28,1.85,1.85,0,0,1,2.31-.85l5.13,2.71a7.37,7.37,0,0,1,.35-1.53l-6.14-3.25a1.58,1.58,0,0,1-.38-2.28,1.86,1.86,0,0,1,2.32-.86L247,85.48a9.41,9.41,0,0,1,1.11-1l-5.3-2.79a1.58,1.58,0,0,1-.37-2.28,1.84,1.84,0,0,1,2.31-.85l8.83,4.64a4.92,4.92,0,0,1,.93.34l-1.32-1.49a1.81,1.81,0,0,1,.32-2.43h0a1.61,1.61,0,0,1,2.32-.16l7.05,8a1.46,1.46,0,0,1,.33,1.15,6.59,6.59,0,0,1-.07,7.45c-2,3.3-6,4.78-8.86,3.28l-7-3.69-.14-.08-.08,0Z"/><path class="cls-4" d="M373.78,198.16c-13.79,1.91-13.42-.08-26.06-.08-20.26,0-39-15.92-45.05-34.94-8.06-25.42-12.25-52.72-18-78.81C282,72,278.13,60.49,280,47.51A57.12,57.12,0,0,1,282.24,38c3.93-12,15.2-24.48,26-30.13,4.6-2.4,15.62-3.75,21.05-3.75,22.84,0,42.16.06,65,.13,8.37,0,17.89.22,25,5.57,7.84,5.88,15.44,14.22,19.16,23.74,8.54,22-.69,46-5.49,67.88q-5,22.74-10,45.46c-2.9,13.24-7.34,26.12-15.78,36.81C400.12,192.8,384.55,196.67,373.78,198.16Z"/><circle class="cls-5" cx="218.56" cy="59.17" r="18.42"/><path class="cls-4" d="M411.74,221.13l1.59.1c-14.43-7.07-1.07-6,2.43-5.4l-24.89-5.28c-5.37-.47-4.48-15.14-4.8-16.77l6.75-3.76.63-.14c-.68.05-1.35.11-2,.18-4.62.42-9.23,1.09-13.84,1.65a124.7,124.7,0,0,1-12.52,1l9.31,24.1c.64,1.44,3,7.92,9,7.69l30.15.43C415,225,411.22,223.15,411.74,221.13Z"/><path class="cls-4" d="M327.1,183.66l-6.21,14.73a18.43,18.43,0,0,0-.54,14.78l16.34,38.7c.64,2,4.18,2.7,5.68,2.42,1.93-.37,3,2.31,2.68-.49l-4.7-22.13c-.05-.26,1.18-.51,1.1-.76a175.52,175.52,0,0,1-4.6-20.67A5,5,0,0,1,339,205.4l13.67-8.93a5,5,0,0,0,1.46-6.87,4.71,4.71,0,0,0-.9-1l-.14-.11c-1-.45,2.31,3.23,1.38,2.57-5.38-1.33-10.61-3.65-15.86-5.68"/><polygon class="cls-6" points="417.06 214.72 413.95 224.48 391.7 224.97 393.36 210.79 417.06 214.72"/><path class="cls-2" d="M309.28,90.75s14.68,11.9,25.88,19.88A29,29,0,0,0,354,115.94c8.91-.61,21.33-1.66,25.7-3"/><path class="cls-3" d="M293.14,89.58a1.57,1.57,0,0,1-.25-2.29,1.84,1.84,0,0,1,2.35-.74l5,3a7.23,7.23,0,0,1,.43-1.51l-6-3.56a1.56,1.56,0,0,1-.26-2.29,1.85,1.85,0,0,1,2.36-.74l6,3.56a7.74,7.74,0,0,1,1.16-.91L298.8,81a1.56,1.56,0,0,1-.26-2.3,1.85,1.85,0,0,1,2.35-.74l8.57,5.1a5,5,0,0,1,.92.39l-1.25-1.56a1.83,1.83,0,0,1,.43-2.41h0a1.62,1.62,0,0,1,2.33,0l6.63,8.32a1.48,1.48,0,0,1,.27,1.17c1.37,2,1.28,4.92-.43,7.43-2.21,3.19-6.26,4.46-9,2.82l-6.79-4-.14-.1-.08,0Z"/><path class="cls-7" d="M294.86,65a10.73,10.73,0,0,1,21.45,0"/><path class="cls-7" d="M324.32,65a10.72,10.72,0,0,1,21.44-.43,3.08,3.08,0,0,1,0,.43"/><path class="cls-8" d="M296.83,65a4.64,4.64,0,0,1,9.28,0"/><path class="cls-8" d="M326.31,65a4.64,4.64,0,0,1,9.27,0"/><path class="cls-8" d="M333.67,72.23s-2.47,7.92-14.6,7.69S306,72.23,306,72.23Z"/><polygon class="cls-6" points="345.45 253.66 337.33 254.42 325.99 228.47 340.85 227.62 345.45 253.66"/><path class="cls-9" d="M414.3,243.34c-8.46-1.62-14.1-9.2-12.63-17s9.53-12.71,18-11.1"/><path class="cls-9" d="M345.86,257.08c0-8.61-6.41-15.59-14.28-15.59s-14.28,7-14.28,15.59"/><path class="cls-10" d="M212.46,124.86s-10.2,13.66-16.18,19.17-33.3,3.5-33.3,3.5h0"/><circle class="cls-4" cx="112.41" cy="137.85" r="71.62"/><path class="cls-11" d="M160.15,90.32s-5-9.11-14.85-3.18"/><path class="cls-11" d="M105.69,92.93s3-9.64,13.28-4.58"/><path class="cls-8" d="M122.33,117.17s2.7,6.37,14.61,5.66S149.53,116,149.53,116Z"/><path class="cls-7" d="M129.13,108.54c-.28-6.37-6-11.29-12.77-11s-12.07,5.69-11.79,12.06"/><path class="cls-8" d="M169.49,110.32l-.48-.13.48.13"/><path class="cls-8" d="M99,106l5.76.47c0-.25.09-.5.15-.77l-6.06-4.36,6.73,2.34c1.2-2.8,3.84-5.67,9.46-6.07-1.74.25-7.83,1.81-10.48,11.66q0-.6,0-1.2Z"/><path class="cls-8" d="M128.25,104.82a5.78,5.78,0,0,1-8.44-6.94A12,12,0,0,1,128.25,104.82Z"/><path class="cls-7" d="M163.68,106.75c-.28-6.37-6-11.29-12.77-11s-12.08,5.69-11.81,12"/><path class="cls-8" d="M169.2,103.63l-5.76.44c-.05-.24-.09-.48-.15-.73l6.06-4.1-6.72,2.2c-1.21-2.61-3.84-5.32-9.43-5.7,1.74.23,7.82,1.7,10.47,11v-1.13Z"/><path class="cls-8" d="M162.8,103a5.77,5.77,0,0,1-8.43-7A12,12,0,0,1,162.8,103Z"/><path class="cls-10" d="M155.49,142.3s-11.92,12.19-18.57,16.86-33.48-.95-33.48-.95h0"/><path class="cls-3" d="M152,137.81a6.24,6.24,0,0,0,.65,6.9c2.1,2.7,5.81,3.37,8.25,1.48l6-4.67.12-.11.07,0,8.12-6.29a1.64,1.64,0,0,0-2-2.57l-4.43,3.43a6.54,6.54,0,0,0-.44-1.36l5.3-4.11a1.64,1.64,0,0,0-2-2.57L166.34,132a6.94,6.94,0,0,0-1.08-.71l4.08-3.88c.62-.48,1.18-1.13.63-1.84a1.54,1.54,0,0,0-2.15-.38l-7.58,5.89a5.23,5.23,0,0,0-.82.49l1.07-1.63a1.67,1.67,0,0,0-.47-2.2h0a1.45,1.45,0,0,0-2,.19l-.07.09"/><path class="cls-3" d="M206.83,122.55a6.23,6.23,0,0,0,1.55,6.76c2.44,2.4,6.21,2.57,8.37.37l5.34-5.42.11-.12.07,0,7.21-7.31a1.64,1.64,0,0,0-.29-2.3,1.62,1.62,0,0,0-2,0l-3.93,4a6.42,6.42,0,0,0-.63-1.29l4.71-4.77a1.64,1.64,0,0,0-2.32-2.29l-4.7,4.78a7.23,7.23,0,0,0-1.16-.55l3.53-4.39c.55-.56,1-1.27.38-1.91a1.55,1.55,0,0,0-2.18-.09l-6.74,6.84a6,6,0,0,0-.74.59l.84-1.75a1.66,1.66,0,0,0-.76-2.12h0a1.46,1.46,0,0,0-2,.46.31.31,0,0,0-.05.1"/><path class="cls-4" d="M109.1,206.41,101.88,225c-.49,1.11-2.35,6.1-6.94,5.92l-23.28.33c-1.17.1,1.76-1.33,1.37-2.89l-1.22.08c11.14-5.47.82-4.67-1.88-4.17l19.22-4.08c6,.19-.91-16.34-.66-17.59"/><path class="cls-4" d="M138.42,199.46l4.8,11.37a14.25,14.25,0,0,1,.41,11.41L131,252.14c-.49,1.52-3.23,2.08-4.38,1.86-1.5-.28-2.3,1.78-2.07-.37l3.64-17.1c0-.2-.91-.39-.85-.59A134,134,0,0,0,130.9,220a3.83,3.83,0,0,0-1.7-3.76l-10.55-6.9"/><polygon class="cls-12" points="68.94 223.44 71.34 230.98 88.52 231.36 87.25 220.41 68.94 223.44"/><polygon class="cls-12" points="124.24 253.51 130.52 254.1 139.27 234.06 127.8 233.4 124.24 253.51"/><path class="cls-9" d="M71.09,245.58c6.53-1.25,10.9-7.11,9.75-13.09s-7.36-9.82-13.87-8.58"/><path class="cls-9" d="M123.93,256.15c0-6.66,4.94-12,11-12s11,5.39,11,12"/><path class="cls-13" d="M292.41,48.7s10.25-1.11,16.69-2.58"/><path class="cls-13" d="M331,47.2s10.43,1.65,17,1.92"/></g></svg>