<?xml version="1.0" encoding="UTF-8"?>
<svg xmlns="http://www.w3.org/2000/svg" xmlns:xlink="http://www.w3.org/1999/xlink" viewBox="0 0 1334 1000">
  <defs>
    <style>
      .cls-1 {
        stroke-width: .14px;
      }

      .cls-1, .cls-2, .cls-3 {
        stroke: #000;
      }

      .cls-1, .cls-2, .cls-3, .cls-4, .cls-5 {
        stroke-miterlimit: 10;
      }

      .cls-2 {
        stroke-width: .14px;
      }

      .cls-3 {
        stroke-width: .14px;
      }

      .cls-6 {
        fill: #18536d;
      }

      .cls-7 {
        fill: #010101;
      }

      .cls-8 {
        fill: #1d3942;
      }

      .cls-9 {
        fill: #653c29;
      }

      .cls-10 {
        fill: #002935;
      }

      .cls-11 {
        fill: #f1eef7;
      }

      .cls-12 {
        fill: #745245;
      }

      .cls-13 {
        fill: #5c483b;
      }

      .cls-4 {
        stroke: #4f2e25;
      }

      .cls-4, .cls-5 {
        fill: none;
      }

      .cls-14 {
        fill: #a66e53;
      }

      .cls-15 {
        fill: #ce8d2a;
      }

      .cls-16 {
        fill: url(#linear-gradient);
        opacity: .5;
      }

      .cls-5 {
        stroke: #010101;
        stroke-width: .96px;
      }

      .cls-17 {
        fill: #642a7d;
      }

      .cls-18 {
        fill: #fff;
      }

      .cls-19 {
        fill: #0d0b09;
      }

      .cls-20 {
        fill: #ab7db7;
      }

      .cls-21 {
        fill: #8e6528;
      }

      .cls-22 {
        fill: #b15e27;
      }

      .cls-23 {
        fill: #f2ebd1;
      }

      .cls-24 {
        fill: #24180f;
      }

      .cls-25 {
        fill: #de8b27;
      }

      .cls-26 {
        fill: #c85844;
      }

      .cls-27 {
        fill: #662117;
      }

      .cls-28 {
        fill: #4f2e25;
      }
    </style>
    <linearGradient id="linear-gradient" x1="-5688.99" y1="3133.67" x2="-4806.93" y2="3133.67" gradientTransform="translate(3812.81 5608.4) rotate(90)" gradientUnits="userSpaceOnUse">
      <stop offset="0" stop-color="#f0ebe0"/>
      <stop offset=".18" stop-color="#eee8dd" stop-opacity=".99"/>
      <stop offset=".33" stop-color="#e8e1d4" stop-opacity=".97"/>
      <stop offset=".46" stop-color="#ded4c5" stop-opacity=".93"/>
      <stop offset=".59" stop-color="#d0c2b0" stop-opacity=".88"/>
      <stop offset=".72" stop-color="#bdab95" stop-opacity=".82"/>
      <stop offset=".84" stop-color="#a78e73" stop-opacity=".73"/>
      <stop offset=".96" stop-color="#8d6d4d" stop-opacity=".64"/>
      <stop offset="1" stop-color="#83603d" stop-opacity=".6"/>
    </linearGradient>
  </defs>
  <g id="Layer_3" data-name="Layer 3">
    <polyline class="cls-23" points="-78.98 1030.13 -78.98 -88.12 1437.25 -88.12 1437.25 1030.13"/>
    <polyline class="cls-16" points="-78.98 798.56 1437.25 798.56 1437.25 -83.5 -78.98 -83.5"/>
    <path class="cls-13" d="M-253.3,1010.05l1.79-.68,3.18-126.29c4.7-95.31,30.47-164.48,85.3-169.85,37.32,0,163.59-1.73,176.16,7.94,3.48-165.57-14.51-297.66,255.95-297.66l298.13.72c3.18,73.09,11.86,145.92,22.62,218.27,13.5,90.75-12.94,180.94.89,271.64,6.95,45.58-53.06,91.49-47.17,137.22,6,46.59,12.06,93.16,17.95,139.76,8.96,70.86,17.56,141.83,24.94,212.92H-264.67v-147.71c-21.19-6.93-35.92-29.84-36.03-56.04v-105.35c.06-40.37,17.17-66.72,47.4-84.9Z"/>
    <path class="cls-13" d="M559.77,1402.55c-.83-20.75-1.63-41.5-2.27-62.26-1.46-47.76-50.47-95.5-50.47-143.27l11.08-773.18,641.52-1.81c138.9.02,162.02,132.09,165.5,297.66,12.57-9.67,138.83-7.94,176.16-7.94,54.83,5.37,80.6,74.53,85.3,169.85l3.18,126.29,1.79.68c30.23,18.18,47.34,44.53,47.4,84.9v105.35c-.11,26.2-14.84,49.11-36.03,56.04v147.71H559.77Z"/>
    <path class="cls-26" d="M553.19,544.78l178.39,40.99c2.85.66,5.67,1.48,8.43,2.45,11.04,3.88,45.1,15.05,45.66,15.07,1.57.06,5.18,1.37,6.74,1.52l3.71.77-.02-.32c15.96,2.3-17.71-11.87-3.53-4.48,17.15,8.95,33.33,20.03,47.75,32.94,6.67,5.97,12.99,12.37,18.65,19.3.98,1.2,1.94,2.42,2.9,3.66-10.81,30.94-34.49,65.34-97.84,48.94-21.68-5.61-220.53-92.56-220.53-92.56,5.5-19.58,13.98-53.52,9.69-68.3Z"/>
    <path class="cls-26" d="M795.56,637.68c19.82,8.17,36.1-17.2,54.48-6.3.13-.26,2.62,35.28,2.75,35.03,33.32-63.57,35.28-273.43,35.28-273.43-6.45,1.42-52.87,14.8-73.29,60.81-11.62,26.18-32.56,122.82-44.63,178.01,5.36,1.76,20.19,3.73,25.4,5.88Z"/>
  </g>
  <g id="Layer_2" data-name="Layer 2">
    <path class="cls-19" d="M17.21,727.47c12,15.96,23.24,33,31.41,51.27,4.35,9.72,7.21,19.86,8.82,30.38,1.73,11.36,2.21,22.86,2.67,34.32.62,15.7,1.02,31.41,1.4,47.11.45,18.41.83,36.82,1.19,55.23.33,16.24.63,32.47.99,48.71.03,1.59.07,3.18.11,4.77,0,.3,1.46.07,1.45-.39-.36-15.7-.65-31.4-.97-47.1-.37-18.47-.74-36.94-1.17-55.4-.38-16.26-.79-32.53-1.38-48.79-.78-21.34-1.35-43.28-9.21-63.42-3.63-9.3-8.36-18.17-13.45-26.75-5.12-8.64-10.69-17.02-16.58-25.15-1.29-1.78-2.59-3.55-3.92-5.31-.23-.3-1.62.17-1.36.51h0Z"/>
    <path class="cls-19" d="M1315.38,729.84c-11.98,15.93-23.19,32.93-31.38,51.16-4.33,9.64-7.21,19.71-8.84,30.16-1.78,11.42-2.27,22.99-2.73,34.53-.62,15.66-1.02,31.34-1.4,47.01-.45,18.47-.83,36.94-1.2,55.41-.33,16.3-.64,32.59-.99,48.89-.03,1.59-.07,3.18-.11,4.77,0,.2,1.44.02,1.45-.39.35-15.64.65-31.28.96-46.92.37-18.41.74-36.81,1.17-55.22.38-16.3.79-32.59,1.38-48.88.77-21.35,1.31-43.3,9.15-63.46,3.61-9.3,8.33-18.17,13.41-26.74,5.14-8.68,10.73-17.1,16.64-25.27,1.29-1.78,2.59-3.55,3.92-5.31.08-.1-1.17-.08-1.43.26h0Z"/>
    <path class="cls-12" d="M811.94,566.54c.11-.02.23-.04.34-.05-.11-.05-.23-.11-.34-.16-.04.07-.04.14,0,.21Z"/>
    <path class="cls-12" d="M812.97,566.56c.15.01.3.02.46.04-.14-.15-.29-.17-.46-.04Z"/>
    <path class="cls-20" d="M534.08,877s2.85-6.14,5.12,12.41c0,0-75.46,21.29-173.43,8.15-97.97-13.13-110.41-20.84-110.41-20.84l28.31-96.85,1.7-76.94,240.95,49.75"/>
    <path class="cls-8" d="M1171.19,739.96s84.58,130.76,32.7,229.02c-24.72,46.79-101.96,40.23-101.96,40.23l-72.62-88.9v-157.82s141.89-22.53,141.89-22.53Z"/>
    <path class="cls-26" d="M875.07,682.52c-2.37-10.12-16.51,4.16-20.04-5.61-6.81-18.86-15.37-53.13-32.61-59.97-4.19-1.66,6.76-3.89,2.51-5.28-.99-14.62-10.91-31.2-11.97-45.82-1.71-23.53-7.89-44.66-7.52-68.3.35-22.33,8.57-49.27,24.76-66.13,6.79-7.07,8.95-11.66,17.1-16.95l24.33-16.58c.94-.35,14.78-8.96,15.75-9.25,2.08-.62,3.6-.69,4.42-2.06l10.31-4.84,65.05-40.6,48.91,12.85s67.51,11.53,81.72,19.66c17.4,9.91,28.67,231.84,28.67,231.84,0,0,13.33,76.46,71.28,174.72.34.58,2.34,4.43,2.63,5.06.89,1.95-4.89,4.59-6.45,5.87-4.81,3.96-13.4,5.92-18.97,8.68-11.36,5.62-21.38,5.92-33.56,9.21-16.57,4.49-33.29,8.46-50.23,11.26-15.8,2.61-32.67,1.61-48.18,5.04l-177.61,12.92s8.27-81.8,8.27-81.8c.95-9.4,2.9-18.61,3.47-28.08.59-9.87.52-19.78-.2-29.64-.35-4.82-.82-9.65-1.53-14.43-.09-.59-.2-1.17-.34-1.75Z"/>
    <path class="cls-8" d="M683.42,946.22c5.08,114.13,19.1,272.8,38.38,389.47,0,0,87.43,44.66,99.99,19.28,0,0,28.52-237.76,69.69-377.1,36.25-122.7,264.75-129.44,235.6-140.94-45.89-18.1-319.71-44.45-376.1-24.49-37.39,13.24-70.92,58.11-67.55,133.78Z"/>
    <path class="cls-8" d="M725.28,840.52c8.28-9.26,16.52-18.56,24.58-28.01,152.18-10.27,373.07,9.64,373.07,9.64,0,0,109.9,26.03,77.89,122.32-42.42,127.62-358.11,49.04-466.44,9.37-.52-.19-1.02,3.96-1.53,3.77-.62-7.4-1.62-14.77-2.89-22.05-2.88-16.46-7.23-32.59-12.62-48.27-3.5-10.16-7.46-17.06-11.89-24.55,6.58-7.44,13.22-14.83,19.84-22.23Z"/>
    <path class="cls-8" d="M753.78,880.95c18.51-.47,37-1.38,55.48-2.59,18.4-1.21,36.78-2.73,55.14-4.41,5.48,6.76,10.68,13.79,15.52,21.1,2.53,3.81,38.81,7.71,41.12,11.69-.41.04-.07,22.88-.48,22.91,32.84,62.07-18.77,153.92-15.55,264.31,2.83,96.92,3.08,110.78,8.29,162.27-15.5,23.3-135.89,12.39-135.89,12.39-11.47-113.75-31.16-370.83-39.92-487.39,5.43-.06,10.86-.14,16.28-.28Z"/>
    <line class="cls-21" x1="911.7" y1="575.52" x2="911.94" y2="577.38"/>
    <path class="cls-27" d="M818.63,496.09c2.44,2.51,4.41,5.64,6.01,8.73,3.02,5.83,4.76,12.37,4.62,18.95-.11,5.21-.82,10.42-1.42,15.6-.83,7.06-1.65,14.13-2.21,21.22-1.31,16.55-1.37,33.45,2.24,49.74,1.85,8.34,4.67,16.57,8.28,24.31,2.39,5.14,5.25,10.1,8.87,14.48,2.38,2.88,5.1,5.4,7.93,7.82,2.13,1.82,4.32,3.65,5.9,5.99.39.57.73,1.17,1.03,1.8.27.55,1.69.11,1.45-.39-1.22-2.52-3.08-4.52-5.16-6.36-2.55-2.26-5.19-4.4-7.54-6.88-9.15-9.65-14.32-22.82-17.88-35.41-4.64-16.4-5.09-33.71-4.02-50.62.47-7.43,1.26-14.83,2.12-22.22.65-5.6,1.41-11.2,1.74-16.83.64-10.82-2.93-21.79-10.13-29.97-.17-.19-.33-.38-.51-.56-.39-.4-1.77.15-1.34.6h0Z"/>
    <path class="cls-14" d="M996.31,264.54s-7.55,50.35,9.44,81.82c2.37,4.39,33.06,11.3,33.06,11.3l-39.03,21.83c-18.35,6.81-49.86,15.07-76.99,14.47-11.85-.26-27.89,2.84-37.39-4.25h0s20.04-10.87,20.51-16.72c.47-5.86-9.5-53.88-9.5-53.88"/>
    <path class="cls-28" d="M904.54,360.86s13.05-7.79,19.77-10.44c6.73-2.66,18.63-3.46,47.71-34.41,0,0-5.89,35-45.88,46.46,0,0-13.84,4.22-20.93,3.25l-.67-4.85Z"/>
    <path class="cls-14" d="M850.8,155.13c-.08.26-.2.52-.33.77.14-.13.27-.27.4-.4l-.07-.38ZM833.49,162.79l.06.32c.25-.29.48-.57.69-.85-.07-.38-.75.54-.75.54ZM993.29,279.07l1.03-6.69c10.16,10.08,22.69-1.06,20.98-17.38,3.16-8.78,4.92-36.66-3.03-43.98l-1-1.1c-5.26-2.9-13.85-3.2-16.39,3.56-.72,2.88.76,6.12.03,9.01-.65,3.26-4.08,9.8-5.63,12.85,0,0-5.05-15.09-6.03-22.35-.98-7.26-9.94-27.08-24.67-34.81,0,0-4.48-25.39-11.71-31.83l-2.21-.36c-1.23.24-1.98.77-3.22,1.01-.07-.38.27-.83.12-1.59-1.91,1.15-3.63,1.09-5.28,1.41.34-.46,1.09-.99,1.02-1.37-1.57.7-3.29.64-4.94.96.34-.46,1.02-1.37.94-1.75-1.91,1.15-3.29.64-4.94.96.34-.46.6-1.29.53-1.67-1.5,1.07-3.22,1.02-4.87,1.33.34-.46.61-1.29.94-1.75-1.91,1.15-3.29.64-4.94.95-.41.08.68-.91.6-1.29-1.16.62-2.81.94-4.04,1.17-.07-.38.68-.92.61-1.29-2.32,1.23-3.71.72-5.35,1.04l.94-1.75c-1.42,1.45-3.07,1.77-4.79,1.71.33-.46,1.01-1.37.94-1.75-1.84,1.53-4.23,2.38-6.44,2.03.41-.08,1.02-1.37.94-1.75-1.77,1.91-3.48,1.85-5.54,2.25.34-.46.6-1.29,1.28-2.21-2.18,1.99-4.91,3.3-7.6,2.65.41-.08.61-1.29.53-1.67-1.35,1.83,1.37-.66-.76-.64,0,0-4.44,2.43-4.52,2.05-1.43,1.45,3.1-7.25,1.05-6.85.26-.84-11.68,2.99-11,2.07-1.77,1.91-1.5,1.05-4.04,1.15,0,0-7.68,6.18-7.34,5.72-1.69,2.29-2.93.88-5.47.98.34-.46,1.79,1.3,2.13.84-1.35,1.83-1.18-.16-3.23.23-.07-.38-7.21-1.16-7.28-1.53-1.84,1.53-1.13,1.57-3.6,2.04-.07-.38-.74,4.46-.4,4-1.35,1.83-1.52.57-3.65.59l-1.77,1.8c-1.69,2.29.97.92-1.57,1.02-.05-.26,9.52-.61,9.8-1.18-1.36,1.33-3.04,2.66-4.85,3.36-.07-.38.2-1.21.12-1.59-1.36,1.83-3.61,3.44-6.15,3.54.41-.08.68-.91.6-1.29-1.69,2.29-3.94,3.9-6.63,3.24v-.06c-1.36,1.56-3.22,3.1-5.25,3.82-.22-1.13.53-1.67.53-1.67l-1.65.32c-1.47,3.42-3.02,6.46-3.11,10.4,0,0-10.22,24.43-7.1,38.33,3.12,13.9,10.26,37.24,11.84,43.2,3.49,13.15,1.91,26.6,5.86,39.74,3.65,12.15,10.35,23.49,19.11,32.44,9.08,9.27,13.35,10.81,25.08,19.62,7.04,5.29,11.05,16.91,36.35,10.88,25.3-6.03,47.69-25.91,60.8-45.47"/>
    <path class="cls-15" d="M1000.23,267.27c3.83-.31,7.32,2.3,8.18,6.04.43,1.86.14,3.78-.76,5.46-.27.51-.59.99-1,1.4-.16.15.14-.11-.07.06-.09.07-.17.14-.26.21-.24.19-.57.42-.78.54-.71.44-1.37.72-2.12.84-1.28.19-2.54-.13-3.71-.63-.6-.26-1.54.06-2.08.34-.35.19-.94.64-.33.9,2.69,1.15,5.73.98,8.4-.12,1.35-.56,2.81-1.35,3.83-2.44,3.05-3.29,2.52-8.69-.66-11.64-1.99-1.85-4.74-2.53-7.4-2.32-.61.05-1.58.2-1.97.74s.33.64.73.61h0Z"/>
    <path d="M977.35,206.35l9.29,36.32,9.78-18.72s-13.59-12.63-19.08-17.61Z"/>
    <g>
      <path class="cls-7" d="M885.08,290.04c3.34.99,7.89-.27,10.59-2.75.6-.55,2.93-.58,2.1.19-3.56,3.27-10.15,4.78-14.46,3.5-.43-.13-.42-.44.04-.69.47-.27,1.28-.39,1.74-.25"/>
      <path class="cls-7" d="M898.92,286.36c1.85-1.35,4.04-2.3,6.29-2.92.33-.09.79-.05,1.07.12.23.13.31.36.09.55-.93.81-2.23,1.31-3.47,1.53-.39.07-.92.07-1.2-.22-.26-.27.07-.54.38-.59,1.02-.18,2.02-.58,2.79-1.24.39.22.77.45,1.16.67-2.01.55-3.96,1.42-5.62,2.63-.33.24-.87.23-1.23.1-.27-.1-.6-.38-.26-.62"/>
      <path class="cls-7" d="M908.04,284.89c2.66-.58,5.57-2.35,6.5-4.6,1.4-3.4-1.37-7.82-5.08-9.11-.4-.14-.26-.45.09-.6.46-.2,1.06-.13,1.48.02,3.23,1.12,5.87,4.68,5.98,7.6.1,2.72-2.09,5.07-5.14,6.45-.91.41-1.89.76-2.88.98-.4.09-1.15.11-1.41-.17-.26-.28.08-.49.46-.57"/>
      <path class="cls-7" d="M879.93,289.64c.08-.33-.22-.48-.43-.44-.72.16-1.49.1-2.2-.28-.18.33-.36.66-.54,1,1.47-.12,3.01.07,4.47.68.29.12.64-.06.83-.3.14-.18.26-.55-.03-.67"/>
      <path class="cls-7" d="M882.03,289.63c-1.63-.68-3.35-.87-5-.74-.24.02-.52.21-.65.46-.1.2-.09.43.12.54"/>
      <path class="cls-7" d="M874.46,291.07c-1.75.27-4.01-.49-5.26-2.32-1.87-2.77-1.37-6.58.43-8.93.2-.26.02-.5-.24-.53-.33-.04-.67.21-.87.47-1.56,2.05-2.26,5.01-1.43,7.79.78,2.59,2.8,4.12,5.02,4.48.66.11,1.35.13,2,.03.26-.04.71-.25.78-.59.07-.34-.2-.44-.45-.4"/>
    </g>
    <path d="M865.84,247.7s-14.48-7.26-20.18-6.47c-8.31,1.16-15.72,9.38-17.6,14.15,0,0,10.09-11.26,15.97-11.9,5.62-.61,21.81,4.22,21.81,4.22Z"/>
    <path d="M903.38,242.01s10.38-12.3,16.45-13.96c8.86-2.43,20.92,1.58,24.84,5.14,0,0-16.05-5.66-22.25-3.78-5.92,1.8-19.04,12.6-19.04,12.6Z"/>
    <path d="M823.96,240.15c-.28-.34-.55-.68-.83-1.02-.26-.32-.7-.93-.88-1.37-.23-.55-.26-1.22-.2-1.92.05-.63.15-1.24.22-1.87,1.14-1.09,2.76-2.43,4.87-3.65,3.17-1.83,12.54-5.17,25.78-7.35.57,1.65,1.14,3.3,1.71,4.96.43,1.26.86,2.52,1.29,3.78-4.78.2-8.8.58-11.81.94-6.36.76-9.61,1.17-12.92,2.73-3.47,1.64-6.13,3.84-7.17,4.7-.03.02-.05.04-.08.06Z"/>
    <path d="M894.14,214.71c.58,1.61,1.17,3.22,1.76,4.84.45,1.23.91,2.46,1.36,3.68,5.16-3.01,9.66-5.38,13.08-7.1,7.23-3.64,10.93-5.47,15.52-6.49,4.82-1.07,9.2-1.18,10.9-1.22,2.4-.05,4-.11,6.04.2,4.44.68,6.77,2.39,7.31,1.98.49-.38-1.13-2.04-1.3-2.21-4.12-4.16-10.39-5.27-10.87-5.36,0,0-4.74-.9-11.46.15-4.64.72-16.88,4.41-32.35,11.53"/>
    <path d="M839.09,244.5c.47-.04.95-.02,1.42.1,1.8.47,2.7,1.99,2.9,2.36,1.09,1.99.97,5.1-1.21,6.8-1.6,1.25-4,1.52-5.76.29-1.31-.91-2.92-2.65-2.18-5.01,1.8-1.54,3.26-2.76,4.82-4.54Z"/>
    <path d="M912.56,233.97c.44-.38.77.56,1.22.19.95-.78,1.86-1.65,2.47-2.73.01-.02.01-.04.02-.06,1.27-.21,2.52-.12,3.32.32.37.2,1.37.79,2.05,2.01.87,1.56.64,3.61-.15,5.01-1.05,1.86-3.33,2.66-5.32,2.23-2.62-.57-4.06-3.18-4.03-5.42.09-.09.31-1.47.41-1.55Z"/>
    <path class="cls-5" d="M994.95,243.96c5.15-24.92,12.08-26.49,12.08-26.49,0,0,5.77,4.35,5.61,15.46"/>
    <path class="cls-5" d="M998.97,245.31c6.11-1.89,3.68,10.67,5.96,13.04,2.28,2.37,3.09-5.33,2.09-14.23,0,0-2.39-11.8-8.74-12.75"/>
    <path class="cls-22" d="M823.96,191.09c5.73-23.93,28.96-41.07,79.78-57.47,50.82-16.4,95.17-5.22,95.17-5.22-38.61-69.86-113.75-52.81-130.61-49.55-16.86,3.26-84.13,88.61-50.78,142.06l2.53,5.57s2.87-31.03,3.91-35.38Z"/>
    <path class="cls-22" d="M1009.28,110.33s-2.78-47.91-39.91-57c-49.59-12.14-113.51-9.38-126.51,42.91l166.42,14.09Z"/>
    <path class="cls-25" d="M1026.49,224.54c3.04-4.53-.06-15.14,2.35-20.03,12.62-25.63,2.99-46.48-5.99-58.24-3.91-5.12-1.86-15.82-3.09-20.73-6.44-25.75-9.58-25.97-53.43-45.21-35.69-15.65-69.64-8.08-89.2-3.21-31.32,7.8-44.88,12.48-51.61,37.05-.88,3.21,1.14,5.27.61,9.03-.74,5.31-6.72,11.21-6.81,17.78,0,0,42.03,4.65,80.49,16.73,38.46,12.09,114.4,73,116.09,95.32.05.7,7.24-23.49,10.6-28.5Z"/>
    <path class="cls-22" d="M1034.24,171.86s-73.94-62.13-139.36-50.15c0,0,81.46-27.06,130.18,26.1l1.34,2.24c3.54,5.9,6.02,12.37,7.31,19.12l.52,2.69Z"/>
    <path class="cls-22" d="M825.39,124.24l4.11-2.51c9.55-5.83,19.89-10.25,30.71-13.12l18.12-4.81s-45.85.8-53.55,13.94l.62,6.49Z"/>
    <path class="cls-22" d="M996.46,185.3s27.81,19.47,31.42,28.62l.96-9.41s-10.28-15.82-32.38-19.21Z"/>
    <path class="cls-26" d="M1064.59,608.67l5.03,49.83c-.51.55-1.3.84-2.12.39-6.87-3.78-13.34-5.6-19.93-9.94l-184.04,10.52,8.38,60.93s186.44,2.91,222.71-8.25c2.06-.63,30.4-.73,32.38-1.42,19.21-6.67,35.35-12.75,40.54-31.2,6.44-22.91,2.66-48.84-.78-71.96-6.81-45.75-9.88-91.62-17.34-137.27-3.56-21.81-2.58-29.58-11.57-49.78-12.61-28.34-21.28-43.51-54.16-51.88l-44.89-11"/>
    <path class="cls-27" d="M868.89,707.64c.45,4.32.9,8.64,1.35,12.96.02.19.31.3.47.3,8.29.31,16.59.47,24.88.61,21.24.35,42.48.37,63.71.09,22.92-.29,45.87-.58,68.79-1.18,25.06-.66,50.1-2.13,74.99-5.19,5.29-.65,10.56-1.5,15.85-2.15,2-.24,3.99-.58,5.96-1.01,8.58-1.86,16.94-5.23,24.21-10.18,2.27-1.55,4.42-3.26,6.44-5.12.65-.6-.76-.78-1.2-.38-7.36,6.74-16.53,11.28-26.12,13.88-5.95,1.61-12.14,2.27-18.23,3.09-24.83,3.33-49.83,5.05-74.86,5.85-22.36.72-44.73.89-67.1,1.26-22.21.37-44.44.42-66.65.11-6.81-.09-13.63-.22-20.44-.39-2.04-.05-4.08-.11-6.11-.17-1.05-.03-2.18-.2-3.22-.11-.12.01-.26,0-.38-.01l.47.3c-.45-4.32-.9-8.64-1.35-12.96-.06-.61-1.52-.27-1.45.39h0Z"/>
    <path class="cls-27" d="M1069.29,397.75c-10.88,2.24-17.19,12.39-20.78,22.1-2.36,6.39-3.82,13.1-4.79,19.83-.57,3.98-1.1,8.02-1.12,12.05-.03,5.08.38,10.16.81,15.22.62,7.42,1.42,14.82,2.26,22.21,1.01,8.86,2.12,17.71,3.26,26.55,1.22,9.42,2.49,18.83,3.79,28.23,1.26,9.09,2.55,18.17,3.86,27.25,1.14,7.87,2.29,15.73,3.46,23.6.86,5.76,1.72,11.53,2.6,17.29.28,1.81.55,3.63.83,5.44.14.92.17,1.98.44,2.87.03.11.04.25.06.36l1.16-.62c-4.73-.8-9.83-.38-14.57-.06-16.91,1.13-33.69,4.53-50.16,8.43-20.34,4.82-40.67,9.58-61.14,13.85-17.33,3.61-34.71,7.03-52.11,10.3-5.41,1.02-10.83,2.02-16.25,3-1.46.27-2.92.53-4.39.79-.54.1-1.18.12-1.71.31-.91.31-1.11,1.79-1.42,2.59-.2.54,1.26.37,1.46-.16l.8-2.1-.81.53c7.02-1.24,14.03-2.54,21.04-3.86,16.55-3.11,33.08-6.34,49.58-9.75,19.62-4.05,39.2-8.31,58.66-13.1,17.3-4.25,34.83-8.07,52.6-9.66,5.79-.52,11.72-.92,17.52-.27.24.03-.02,0,.04,0,.36.06,1.24-.08,1.16-.62-.29-1.87-.57-3.73-.86-5.6-.76-4.99-1.52-9.99-2.26-14.98-1.09-7.31-2.17-14.62-3.24-21.93-1.27-8.74-2.53-17.49-3.76-26.24-1.3-9.27-2.57-18.54-3.8-27.82-1.2-9.03-2.35-18.06-3.44-27.09-.95-7.87-1.84-15.75-2.6-23.65-.56-5.84-1.09-11.69-1.32-17.55-.3-7.81.73-15.63,2.31-23.27,1.32-6.35,3.16-12.68,6.09-18.49,2.42-4.81,5.68-9.44,10.24-12.42,2.06-1.34,4.32-2.26,6.73-2.75.9-.18.66-1-.22-.82h0Z"/>
    <path class="cls-27" d="M1063.57,620.25c7.49-.31,14.78,3.03,19.82,8.52,5.13,5.6,7.77,13.08,8.14,20.6.02.48,1.48.19,1.45-.39-.38-7.84-3.26-15.68-8.79-21.36-5.2-5.35-12.57-8.53-20.06-8.21-.55.02-1.53.89-.56.85h0Z"/>
    <path class="cls-14" d="M869.61,707.45l-17.9-.36s-47.97,24.82-63.24,26.42c-11.09.69-22.27-.35-33.21-3.1l-12.26,5.41c-5.65,2.49-11.95,2.7-17.85.57l-4.54-1.63s-13.6,11.41-17.24,6.78c-3.63-4.63.41-10.43,4.34-16.07,3.93-5.64,92.29-64.04,92.29-64.04-9.09-2.66-24.74,1.44-34.04.54-14.31-1.27-19.49-7.55-14.07-13.68,3.34-3.78,14.52-7.49,22.5-4.52,7.95,2.95,43.16-10.44,57.49-6.91,14.33,3.53,26.38,21.69,26.38,21.69,1.2.46,6.24.91,6.24.91.73,1.92,5.13,47.97,5.13,47.97Z"/>
    <path class="cls-28" d="M757.79,729.99c9.74-4.27,19.49-8.54,29.23-12.81,1.37-.6,2.73-1.2,4.1-1.8,1.12-.49.12-1.35-.76-.96-9.74,4.27-19.49,8.54-29.23,12.81-1.37.6-2.73,1.2-4.1,1.8-1.12.49-.12,1.35.76.96h0Z"/>
    <path class="cls-28" d="M721.11,733.95c5.85-3.14,11.7-6.28,17.56-9.43,9.28-4.98,18.56-9.97,27.84-14.95,2.13-1.14,4.26-2.29,6.39-3.43,1.06-.57.11-1.52-.79-1.05-5.85,3.14-11.7,6.28-17.56,9.43-9.28,4.98-18.56,9.97-27.84,14.95-2.13,1.14-4.26,2.29-6.39,3.43-1.06.57-.11,1.52.79,1.05h0Z"/>
    <path class="cls-20" d="M541.87,560.19c-.89-28.63-10.44-47.96-17.78-58.7-4.07-5.95-9.7-10.66-16.21-13.76-9.4-4.47-17.66-9.03-30.18-13.54-2.33-.84-23.16-6.71-22.93-6.19,6.41,14.88-7.19,28.29-23.7,30.19-5.92.68-11.75.94-17.29.82-18.93-.38-45.82-18.6-57.29-32.81l-2.02-2.63-2.25,1.31-62.91,30.81,8.4,267.16,11.49,8.89c31.01,11.62,62.2,22.92,94.33,31.01,37.57,9.46,77.02,14.77,115.55,8.34,8.82-1.47-.27.74,8.22-2-2.16-9.36,2.54-28.66,2.62-38.56.44-54.65,1.81-76.73,3.66-78.98,0,0,9.99-15.89,13.54-33.08"/>
    <path class="cls-20" d="M529.91,753.15s-2.76,76.52-2.76,104.5c0,0-71.24,21.27-171.66,8.39-100.42-12.89-90.65-5.83-90.65-5.83l26.57-70.03v-164.34s228.64,98.02,228.64,98.02"/>
    <path class="cls-14" d="M352.66,392.83s20.15,46.82,9.93,66.94c-1.37,2.69-6.74,5.86-7.13,8.33,0,0,21.48,37.06,68.35,36.37,46.87-.69,37.78-34.55,37.78-34.55-1.66-1.11-2.9.92-4.57-.2-.46-.31-.93-.62-1.23-1.07-.46-.68-.44-1.54-.42-2.34.74-22.56,2.11-45.09,3.61-67.62"/>
    <path class="cls-28" d="M389.99,433.32s9.08,19.61,49.47,24.51c0,0,12.02.64,16.24-.15l.76-8.73-66.46-15.63Z"/>
    <path class="cls-2" d="M496.94,380.92c-12.9-8.09-16.22-23.83-15.54-38.07.65-13.64-10.84-33.8,5.82-34.12.32,0-6.66-11.25-1.7-10.53-3.44-7.31,7.58-7.25,8.61-15.77.21-1.72,1.72-16.88-9.08-17.25-41.95-51.67-93.18-37.13-122.06-31.44-56.65,11.17-84.23,16.17-64.93,105.75,12.96,60.14,70.93,73.3,128.43,68.03,24.57-2.25,53.87-3.09,70.97-26.28-.18-.11-.36-.2-.53-.31Z"/>
    <path class="cls-2" d="M364.18,181.38c-1.86-3.11-17.99-14.08-27.21-12.48-6.58,1.14-14.07,4.56-24.57,15.19-10.7-2.33-23.78-3.54-29.68,2.31-2.29,2.27-4.28,5.23-6.04,8.51,0,0-.03,0-.03,0l-.08.19c-1.57,2.96-2.94,6.17-4.13,9.42-6.63,10.39-20.26,32.51-22.41,42.09-1.07,4.76,6.39,14.31,16.14,24.4-1.85,2.21-3.61,5.24-4.2,9.18-1.33,8.9,9.61,27.23,32.11,16.75,6.55,5.63,11.15,9.35,11.15,9.35l6.33-6.06s-.62-1.2-1.69-3.29l7.74-7.23-6.03-4.65c1.51-1.71,3.38-3.58,5.77-5.52,7.5-7.44,15.45-17.71,22.64-25.45,3.32-3.57,12.68-6.01,16.16-9.42-1.38-.94-3.5-1.66-6.1-2.18.94-.92,1.88-1.84,2.82-2.75,3.44,1.15,6.34,2.19,7.28,2.68,3.08-2.96,11.33-6.08,14.35-9.09.65.9,1.29,1.82,1.89,2.76,2.76-2.76,8.82-6.04,11.57-8.82-1.71-14.85-8.97-27.16-23.29-32.92.31-5.6.38-11.47-.53-12.98ZM271.84,282.21c-1.07-2.52-1.51-4.94-1.62-7.11,4.1,4.06,8.42,8.11,12.59,11.88-4.35.26-9.18-.54-10.97-4.78ZM354.85,181.83c.07,2.53-1.58,6.49-3.01,9.42-.37-.04-.72-.09-1.1-.12-3.4-.31-9.89-1.37-17.55-1.44,2.6-4.67,5.22-9.17,6.07-9.92,4.4-3.87,15.47-2.36,15.59,2.06Z"/>
    <path class="cls-14" d="M454.55,264.08c.15.08.3.17.46.25-.18-.19-.36-.4-.49-.61l.03.36ZM471.12,265.79c.26.2.54.39.84.58l-.03-.3s-.84-.64-.81-.28ZM383.33,429.11c16.75,14.04,43.91,22.21,61.56,22.96,8.64.37,16.28,2.01,24.33-4.94,20.19-17.43,39.24-47.75,33.44-75.24-1.07-5.07-4.97-14.35-5.09-19.31-.14-5.73-2.75-33.13-9.52-49.94-8.25-20.48-15.56-30.35-15.56-30.35-1.1-3.49,7.97-2.7,5.77-5.37l-1.55.14s.81.28.9,1.35c-1.99-.12-4.05-1.01-5.66-2.05v.06c-2.22,1.28-4.65.43-6.75-1.17.03.36.48,1.03.87,1-2.29.57-4.71-.28-6.4-1.56.03.36.49,1.03.52,1.39-1.79-.16-3.63-.91-5.19-1.74.4.44,9.02-1.73,9.04-1.48-2.29.57.44,1.1-1.66-.5l-2.04-1.15c-1.91.53-1.73,1.7-3.41.41.42.32-1.43-3.82-1.39-3.46-2.33.21-1.71,0-3.74-.89.03.35-6.12,2.89-6.09,3.25-1.94.18-1.26,1.91-2.94.63.42.32,1.26-1.62,1.68-1.3-2.29.57-3.03,2.14-5.13.54.42.32-8.02-3.2-8.02-3.2-2.29.57-1.83,1.26-3.9.02.84.64-10.79.32-10.34,1-1.94.18,4.35,6.76,2.71,5.84.03.36-4.56-.66-4.56-.66-1.91.54,1.17,2.05-.51.77.03.35.52,1.39.91,1.35-2.23,1.28-5.01.82-7.46-.39.84.64,1.29,1.32,1.71,1.64-1.94.18-3.45.68-5.52-.57.03.36.9,1.35,1.29,1.32-1.87.89-4.23.75-6.26-.14.03.35.87,1,1.29,1.31-1.51.5-3.07.64-4.71-.29l1.29,1.32c-1.55.14-2.65.96-5.04.46.03.35.84.64.87,1-1.16.11-2.71.25-3.91,0,.03.36,1.26.96.87,1-1.55.14-2.65.96-4.65.43.42.32.87,1,1.29,1.32-1.55.14-3.07.64-4.68.07.03.36.48,1.03.91,1.35-1.55.14-2.65.96-4.65.43.03.35.87.99,1.29,1.31-1.55.14-3.07.64-4.65.43.03.36.84.64,1.26.96-1.55.14-3.07.64-5.07.11.07.71.48,1.03.52,1.39-1.16.11-1.97-.18-3.13-.07l-1.87.89c-4.77,7.61-17.79,23.15-17.79,23.15-11.13,10.7-9.83,27.4-8.83,34.12,1.01,6.72,11.85,33.02,11.85,33.02-2.17-2.31-4.4-7.88-5.83-10.62-1.39-2.38-3.42-5.02-4.81-7.41-4.01-5.37-11.59-2.88-15.53,1.06l-.6,1.23c-5.19,8.58-1.57,28.44,10.78,40.75,2.7,14.99,18.51,20.77,21.09,9.3l2.65,5.7"/>
    <g>
      <path class="cls-7" d="M462.71,387.88c-2.39,1.53-6.26,1.62-8.95.36-.6-.28-2.44.24-1.6.63,3.55,1.66,9.08,1.29,12.16-.69.31-.2.22-.43-.19-.52-.43-.09-1.1,0-1.42.21"/>
      <path class="cls-7" d="M450.99,388.29c-1.77-.6-3.71-.81-5.62-.76-.28,0-.63.15-.81.34-.15.15-.16.34.06.43.92.4,2.06.48,3.08.36.32-.04.74-.16.89-.44.14-.26-.18-.39-.43-.36-.84.1-1.72.03-2.48-.3-.25.26-.5.52-.76.78,1.7-.05,3.44.16,5.02.7.31.11.74-.03.99-.21.19-.14.38-.43.06-.54"/>
      <path class="cls-7" d="M443.5,389.29c-2.22.17-4.92-.49-6.17-1.99-1.89-2.26-.76-6.5,1.85-8.34.28-.2.1-.4-.21-.43-.41-.04-.86.15-1.16.36-2.27,1.6-3.5,5.15-2.91,7.4.55,2.1,2.82,3.37,5.53,3.72.81.1,1.66.14,2.49.08.34-.03.93-.19,1.07-.46.14-.27-.18-.35-.49-.33"/>
      <path class="cls-7" d="M466.66,386.38c-.14-.23.06-.42.24-.43.6-.05,1.19-.27,1.66-.72.22.21.44.42.66.63-1.19.25-2.35.75-3.35,1.55-.2.16-.51.1-.72-.03-.15-.1-.33-.35-.13-.52"/>
      <path class="cls-7" d="M465.01,386.87c1.12-.89,2.42-1.44,3.75-1.72.19-.04.46.04.62.2.13.13.17.31.03.44"/>
      <path class="cls-7" d="M471.29,386.21c1.44-.2,3.04-1.3,3.58-2.99.83-2.54-.46-5.33-2.42-6.69-.21-.15-.13-.38.06-.46.25-.11.57,0,.79.16,1.7,1.19,2.94,3.29,2.93,5.59,0,2.15-1.24,3.78-2.9,4.57-.49.23-1.03.41-1.56.49-.22.03-.62-.03-.75-.27-.13-.25.05-.38.26-.41"/>
    </g>
    <path class="cls-7" d="M349.4,377.15c-2.59-4.38-5.34-8.73-8.68-12.58-1.58-1.83-3.35-3.67-5.48-4.86-.85-.48-1.85-.88-2.84-.78-1.11.11-1.78,1.28-2.33,2.14-2.63,4.09-2.84,9.05-1.26,13.58.17.49,1.61.07,1.45-.39-1.4-4.02-1.44-8.44.61-12.25.47-.88,1.1-1.6,1.66-2.41.06-.09.12-.08.11-.11-.01-.05-.38.18-.45.21-.09.04-.07.06-.06.01,0-.02-.14,0-.04,0,.06,0,.11,0,.17,0,.13.02-.12-.02.07,0,.09.01.17.03.26.05.41.09.91.31,1.36.55,1.87,1.01,3.44,2.6,4.86,4.17,3.56,3.95,6.46,8.5,9.15,13.06.28.47,1.66-.02,1.45-.39h0Z"/>
    <path d="M467.63,317.71c.73-1.93.32-.86,1.04-2.78l.12-.34c13.81,1.67,19.92,3.05,26.72,6.83.1.27.19.54.25.82.02.09.03.17.05.26,0,0,0,0,0,0,0,.05,0,.09,0,.14-.05.16-.08.32-.13.48-.11.33-.23.65-.35.96-.03.06-.15.36-.17.4-.07.14-.13.28-.2.43-.28.58-.58,1.14-.88,1.71-5.02-1.79-10.78-2.41-15.82-3.39-3.24-.63-7.12-.56-12.28-1.11.54-1.47,1.09-2.94,1.64-4.41Z"/>
    <path d="M427.98,315.26c.9,1.84.39.82,1.29,2.67.68,1.41,1.36,2.83,2.04,4.24-5.86,1.41-10.27,1.97-13.93,3.15-7.26,2.32-15.91,4.22-22.31,8.49-3.07,2.04-7.42,5.05-8.54,8.72-.3.98-.29,3.99-1.83,4.12-.63.06-.87-2.64-.9-2.92-.47-5.45,3.22-9.63,8.33-13.49,10.42-7.89,16.39-10.41,35.7-15.3"/>
    <path d="M483.06,338.72c2.12-1.36,4.82-.6,6.39.56.37.27,1.37,1.05,1.94,2.48.72,1.82.17,4.01-.89,5.41-1.41,1.87-4,2.4-6.09,1.65-2.84-1.02-4.02-4.21-3.57-6.66.09-.45.5-2.34,2.21-3.44"/>
    <path d="M463.62,348.05s10.21-9.54,15.77-10.61c8.12-1.56,14.1,1.61,17.37,5.35,0,0-9.45-5.08-15.14-3.82-5.44,1.21-18.01,9.08-18.01,9.08Z"/>
    <path d="M419.22,345.41c-2.33-.95-4.85.29-6.19,1.71-.32.33-1.16,1.29-1.45,2.79-.38,1.92.56,3.97,1.86,5.16,1.73,1.58,4.37,1.63,6.29.51,2.61-1.52,3.19-4.88,2.3-7.2-.17-.42-.92-2.21-2.8-2.98"/>
    <path d="M431.94,351.14s-12.52-7.43-18.58-7.46c-10.92-.06-20.41,6.99-23.15,11.29,0,0,14.86-9.53,21.09-9.36,5.95.16,20.64,5.54,20.64,5.54Z"/>
    <path class="cls-3" d="M473.22,270.47c2.39,9.64,14.93.16,7.43-1.57.46-4.81-6.42-6.15-6.67-10.99-.25.45-.41.8-.41.8,0,0-.71-5.78-2.78-7.01-2.07-1.22-11.18-4.82-11.18-4.82l-2.46,2.24c.06-.15.81-2.13-.65-3.16-1.47-1.04-16.93-7.4-26.29-5.95-.32.04-.63.1-.92.17l-3.73,2.39-.13.08s.09-.06.14-.1c.66-.47,2.05-1.62,1.21-2.38-.29-.27-.86-.49-1.82-.62-1.42-.19-3.5-.17-5.76-.04,0-.01,0-.02,0-.03-.21.02-.43.05-.64.07-.21.01-.43.03-.64.04,0,.01,0,.02,0,.03-2.25.28-4.3.65-5.66,1.09-.92.3-1.44.62-1.68.94-.69.9.89,1.77,1.62,2.12.06.03.11.05.16.07l-.14-.06-4.1-1.68c-.31-.01-.62-.02-.94,0-9.48.28-23.51,9.34-24.77,10.63-1.25,1.28-.14,3.09-.06,3.23l-2.82-1.75s-10.89,5.44-12.7,7.01c-1.81,1.58-2.38,5-2.38,5,0,0-3.33,1.57-4.6,1.29-1.27-.28-7.38,3.64-9.67,7.68-1.47,2.59-.65,4.84-1.3,7.06h0c-.37,1.25-.56,2.07-.56,2.07l-6.43,2.82c-5.08,3.04-2.75,13.87-2.75,13.87-9.27,13.78-8.79,24.75-3.03,36.09,2.22,4.37-10.3,10.12-2.02,9.19,8.39-.95,17.73,24.75,17.73,24.75,0,0,6.19-10.91,6.1-15.71-.08-4.8-3.71-18.72-3.71-18.72l3.99-.94s2.37-1.23,4.85-6.9c2.48-5.68-3.84-14.79-3.84-14.79l-2.12-5.66,7.95-.18c7.51-2.01,7.18-10.33,7.18-10.33l-2.58-13.65,5.01,4.2s1.97,2.02,4.59,1.58c11.76-1.98,12.48-9.48,12.48-9.48l.95-7.08,3.18,1.72c3.41,2.31,13.49,5.44,18.24,2.86,1.25-.68,6.33-5.4,7.16-6.06,2.97-2.6,3.03-7.05,2.94-8.7-.5-.41-1-.93-1.48-1.37-1.86-1.68-2.6-.84-.74.85,3.2,2.91,8.54,6.91,12.91,6.7,4.22-.2,13.1-2.78,14.04-4.83.63-1.37-.72-1.41.83-1.49,1.35-.07,2.59.79,3.53,1.7,2.22,2.12,3.88,5.38,6.83,6.56,4.3,1.72,6.57-.76,10.6-2.02.9-.28,2.22.08,2.48,1.15Z"/>
    <path class="cls-1" d="M482.34,261.95s2.02-9.16-3.61-13.82c-5.63-4.65-27.27-23.41-61.3-20.34l64.9,34.16Z"/>
    <g>
      <path class="cls-20" d="M358.96,459.3s24.52,44.21,68.24,39.72c32.05-3.29,29.17-23.41,29.17-23.41v-7.69s11.67,3.81,11.67,3.81c0,0,2.55,6.93-2.68,18.53-5.23,11.6-21.85,22.32-49.92,19.67-16.47-1.55-31.43-7.95-49.29-20.94-17.85-12.99-21.91-22.55-21.91-22.55l14.72-7.15Z"/>
      <path class="cls-17" d="M357.97,459.79c2.37,4.26,5.41,8.24,8.53,11.97,6.85,8.18,15.01,15.4,24.39,20.54,12.1,6.63,25.81,9.2,39.48,7.17,10.02-1.49,21.52-5.57,25.73-15.68.93-2.22,1.47-4.66,1.44-7.08,0-.46-.06-.91-.08-1.37.03.48.01-.07.02-.18.01-.48,0-.97,0-1.45,0-1.26,0-2.52,0-3.77,0-.69,0-1.38,0-2.07l-1.72.84c3.89,1.27,7.78,2.54,11.67,3.81l-.47-.48c.92,2.55.7,5.63.33,8.24-.73,5.15-2.65,10.43-5.84,14.58-5.88,7.64-15.29,11.72-24.54,13.5-12.84,2.46-26.69,1.13-39.03-3.08-6.45-2.2-12.6-5.2-18.46-8.67-6.63-3.94-13.04-8.38-18.96-13.33-4.13-3.45-8.06-7.21-11.4-11.45-.92-1.16-1.79-2.36-2.58-3.61-.39-.62-.68-1.38-1.12-1.96-.13-.17.06.15-.04-.09l-.59.98c4.91-2.38,9.81-4.77,14.72-7.15,1.33-.65.15-1.94-.99-1.38-4.91,2.38-9.81,4.77-14.72,7.15-.3.15-.76.59-.59.98.82,1.91,2.09,3.67,3.34,5.31,3.8,5.01,8.44,9.38,13.3,13.35,12.92,10.55,27.97,19.66,44.31,23.57,14.24,3.41,30.44,3.47,44.11-2.28,4.98-2.1,9.64-5.09,13.34-9.06,4-4.29,6.41-9.77,7.6-15.48.55-2.65.78-5.37.5-8.06-.08-.76-.09-2.44-.77-3-.32-.27-.93-.35-1.31-.47l-2.88-.94c-2.15-.7-4.3-1.4-6.46-2.11l-1.24-.41c-.57-.18-1.72.05-1.72.84,0,2.7-.16,5.46.04,8.15-.02-.31.02.4.02.57,0,.39,0,.78-.03,1.17-.07,1.14-.25,2.28-.54,3.39-2.42,9.09-11.42,13.72-19.95,15.69-13.39,3.09-27.36,1.38-39.68-4.64-9.65-4.71-18.1-11.76-25.15-19.8-2.45-2.8-4.76-5.73-6.88-8.78-1.06-1.53-1.95-3.19-3.03-4.7-.05-.07-.09-.15-.13-.22-.51-.91-2.56-.06-1.98.99Z"/>
    </g>
    <path class="cls-7" d="M347.17,379.83c-1.19.12-2.51.5-3.19,1.57-.59.92-.53,2.09-.37,3.13.23,1.46.73,2.86,1.16,4.27.32,1.04.84,2.35.63,3.45-.03.16-.22.46-.22.59-.01.37-.42-.35.21.03-.06-.03-.14-.01-.18-.08-.1-.17-.48-.37-.63-.53-.29-.3-.55-.65-.79-1-1.21-1.77-2.05-3.81-2.79-5.81-.92-2.49-1.48-4.61-1.49-7.24,0-3.31.63-7.41,3.85-9.12.27-.14.35-.4.12-.6-.26-.21-.79,0-1.03.13-2.97,1.58-4.07,4.9-4.32,8.06-.18,2.27-.08,4.57.6,6.74.77,2.44,1.68,4.86,2.92,7.1.6,1.08,1.4,2.64,2.66,3.1.94.34,2-.14,2.4-1.05.44-1.01.05-2.3-.23-3.3-.6-2.16-3.42-8.2.52-8.6.73-.07,1.19-.95.19-.85h0Z"/>
    <path class="cls-6" d="M591.19,990.11c1.8-5.55,1.28,15.32,3.55,10,5.12-12.05,11.29-23.56,18.17-34.53,7.07-11.27,14.95-21.97,23.59-31.89,5.87-6.74,12.11-13.15,18.73-19.04-105.53-46.44-345.93-55.76-345.93-55.76,0,0-83.1,9.1-56.37,101.81,8.01,27.78,27.59,36,62.86,41.62,83.52,13.3,209.38-1.57,272.34-8.27.43-.05,2.65-3.89,3.07-3.94Z"/>
    <path class="cls-6" d="M591.95,1011.42c2.43-5.03,5.12-9.93,7.97-14.68,6.45-10.75,13.84-20.82,21.84-30.27,8.22-9.71,17.14-18.75,26.68-26.93,6.48-5.56-13.06-23.26-5.96-27.9,26.6-80.96-380.9-51.44-380.9-51.44,0,0-14.31,6.47-14.31,63.07,0,96.26,258.43,71,344.7,75.39.41.02-.43,12.75-.03,12.77Z"/>
    <path class="cls-6" d="M685.11,1002.17c-23.02,67.14-73.88,248.26-105.59,329.45,0,0-87.22-4.34-93.79-24.81,0,0-1.89-437.1,51.56-444.45,39.4-5.42,106.45,9.14,126.8,26.21,24.42,20.48,39.15,60.72,21.02,113.6Z"/>
    <path class="cls-6" d="M642.48,957.17s-13.39-2.62-32.52-2.23c3.7-8.19,4.97-14.3,4.97-14.3-1.78-2.07-3.65-4.19-5.62-6.35-10.95,2.61-21.64,6.21-32.02,10.51-12.07,4.99-23.75,10.94-34.89,17.71-10.74,6.53-21.01,13.89-30.48,22.12-2.68,2.33-5.29,4.74-7.83,7.23.32.1-5.26-.74-4.93-.64-36.98,39.4-36.05,127.36-57.44,207.17-15.69,58.54-28.94,108.26-28.94,108.26,8.49,19.7,112.97,28.42,112.97,28.42,37.61-106.23,116.74-377.89,116.74-377.89Z"/>
    <path class="cls-10" d="M526.87,1334.88c.46-1.37.92-2.74,1.38-4.12,1.3-3.88,2.59-7.77,3.89-11.65,2.01-6.02,4.01-12.04,6.01-18.06,2.61-7.85,5.22-15.7,7.82-23.55,3.08-9.27,6.15-18.55,9.22-27.82,3.45-10.42,6.88-20.84,10.32-31.26,3.68-11.18,7.36-22.36,11.03-33.55,3.79-11.55,7.56-23.1,11.33-34.66,3.8-11.66,7.59-23.32,11.36-34.98,3.66-11.33,7.31-22.66,10.95-34,3.44-10.74,6.86-21.48,10.25-32.22,3.08-9.75,6.14-19.5,9.16-29.27,2.6-8.41,5.18-16.83,7.7-25.27,2-6.7,3.98-13.42,5.87-20.15,1.31-4.68,2.6-9.37,3.7-14.1,3.3-14.15,4.26-29.15,1.19-43.43-3.29-15.27-11.29-29.46-23.81-39.02-11.04-8.43-24.56-12.81-38.3-14.04-8.18-.73-16.35-1.46-24.53-2.19l-30.28-2.71c-1.75-.16-3.5-.31-5.25-.47-.49-.04-1.25.08-1.61.43-.29.28-.35.56.16.6,6.39.57,12.77,1.14,19.16,1.71,10.69.95,21.37,1.91,32.06,2.86,8.79.79,17.49,1.44,25.98,4.12,16.03,5.06,29.62,15.77,37.46,30.73,7.73,14.74,9.72,31.69,7.87,48.08-.8,7.06-2.32,13.92-4.14,20.77-1.56,5.87-3.23,11.71-4.94,17.54-2.25,7.71-4.57,15.39-6.91,23.07-2.8,9.18-5.65,18.35-8.52,27.51-3.23,10.31-6.49,20.61-9.77,30.91-3.53,11.1-7.09,22.19-10.66,33.27-3.7,11.49-7.42,22.98-11.15,34.47s-7.57,23.26-11.37,34.88c-3.72,11.38-7.45,22.75-11.19,34.13-3.54,10.78-7.1,21.56-10.65,32.34-3.25,9.84-6.5,19.67-9.76,29.51-2.82,8.52-5.65,17.04-8.48,25.56-2.31,6.94-4.62,13.88-6.93,20.82-1.64,4.92-3.28,9.83-4.92,14.75-.87,2.61-1.74,5.22-2.62,7.84-.11.33-.22.65-.33.98-.19.55,2.05.28,2.26-.36h0Z"/>
    <path class="cls-18" d="M920.48,303.13s-11.17,1.53-19.88,3.58c-8.71,2.05-26.45,7.76-26.45,7.76,0,0,3.86-9.44,19.66-13.15,15.8-3.71,26.67,1.82,26.67,1.82Z"/>
    <path class="cls-9" d="M459.59,400.8c-10.63,1.14-27.68,2.93-27.68,2.93,0,0-.04,25.61,29.23,22.17,24.62-2.89,19.21-27.14,19.21-27.14,0,0-10.14.89-20.76,2.03Z"/>
    <path class="cls-24" d="M459.32,400.83c-5.13.55-25.6,3.23-25.6,3.23,0,0,6.01,14.71,26.74,11.88,20.07-2.74,16.61-15.65,16.61-15.65l-17.75.54Z"/>
    <path class="cls-11" d="M457.63,401.25c-5.19.56-20.77,2.71-20.77,2.71,0,0,6.11,5.04,21.69,3.36,15.58-1.67,18.36-7.51,18.36-7.51l-19.28,1.44Z"/>
    <path class="cls-9" d="M481.81,396.46c-.56-.11-.56-.12-3.14-.13-4.29-.01-5.98-1.51-9.09-1.48-5.3.04-6.53,2.64-8.81,2.88-2.28.24-5.9-2.06-11.09-.98-3.04.63-10.14,4.46-14.33,5.38-2.51.55-4.34,1.04-4.86,1.27-.73.32-.15,4.31,28.53,1.23,28.67-3.08,23.57-8.02,22.79-8.17Z"/>
  </g>
  <g id="Layer_5" data-name="Layer 5">
    <path class="cls-9" d="M894.48,303.52c11.78-2.77,30.66-7.25,30.66-7.25,0,0,9.65,27.34-22.9,34.65-27.38,6.15-30.7-21.78-30.7-21.78,0,0,11.16-2.85,22.94-5.62Z"/>
    <path class="cls-24" d="M894.78,303.45c5.69-1.34,28.55-6.15,28.55-6.15,0,0-.9,17.96-24.1,22.72-22.46,4.61-23.61-10.49-23.61-10.49l19.16-6.08Z"/>
    <path class="cls-11" d="M896.74,303.27c5.76-1.35,23.2-4.89,23.2-4.89,0,0-4.63,7.67-21.91,11.73-17.27,4.06-22.43-1.14-22.43-1.14l21.14-5.7Z"/>
    <path class="cls-9" d="M869.11,307.22c.56-.33.55-.34,3.3-1.31,4.58-1.62,5.82-3.85,9.15-4.99,5.68-1.94,7.96.37,10.49-.23,2.53-.59,5.53-4.41,11.48-5.21,3.49-.46,12.5.96,17.33.37,2.89-.35,5.02-.52,5.67-.47.9.07,1.77,4.54-30.01,12.02-31.78,7.47-28.18.28-27.41-.18Z"/>
  </g>
  <g id="Layer_4" data-name="Layer 4">
    <path class="cls-14" d="M695.04,590.79l18.59-14.1s32.17-2.74,45.45-9.73c9.41-5.42,18.01-12.11,25.57-19.9l30.48-15.37s16.8.88,17.46-4.35c.66-5.23-5.54-7.22-11.56-9.14-6.02-1.92-93.67.81-93.67.81,6.09-6.74,12.75-12.94,19.9-18.55,11.05-8.53,11.73-18.71,4.24-20.2-4.61-.91-23.06,7.57-25.66,15.23-2.6,7.66-21.08,10.42-31.02,20.58-9.94,10.15-10.72,29.51-10.72,29.51-4.58,6.05-12.79,13.11-12.79,13.11,2.23,13.53,23.73,32.09,23.73,32.09Z"/>
    <path class="cls-28" d="M809.22,535.03c.78-.98-.53-2.87-1.13-3.62-1.06-1.32-2.6-2.49-4.26-2.95-3.31-.92-7.18-.62-10.54-.14-2.95.42-5.87,1.12-8.7,2.07-.87.29-1.74.6-2.58.96-.32.14-.99.34-1.12.71-.07.2-.04.35.13.48.76.59,3.1-.81,3.73-1.08l-.63-.81c-4.11,1.9-8.02,4.23-11.63,6.97s-7.21,5.68-9.91,9.3c-.54.73.82.91,1.2.4,2.63-3.53,6.16-6.42,9.65-9.07,3.51-2.67,7.31-4.92,11.31-6.78.91-.42.1-1.13-.63-.81-.63.27-1.26.54-1.9.78-.13.05-.32.08-.43.16-.4.24-.29-.36.36.14l.13.48c-.12.35-.41.25.03.11.24-.08.48-.21.71-.31.71-.29,1.43-.54,2.16-.78,2.33-.76,4.73-1.37,7.15-1.77,2.89-.47,5.85-.68,8.77-.35,1.65.19,3.1.62,4.42,1.68.65.52,1.24,1.17,1.69,1.87.29.45.52.96.65,1.48.05.2,0,.69.15.5-.56.71.81.9,1.2.4h0Z"/>
    <path class="cls-28" d="M780.81,531.61c-.19-.67-2.42-.5-2.89-.51-2.02-.05-4.04.01-6.06.09-4.35.16-8.7.46-13.02,1.08-1.18.17-2.38.34-3.53.66-.35.1-1.42.33-1.48.82-.06.44,1.38.17,1.44-.23,0-.06-.18.11.03.01.16-.07.35-.1.52-.14.6-.14,1.21-.24,1.82-.34,1.69-.27,3.39-.47,5.09-.64,2.02-.2,4.05-.36,6.08-.45s4.17-.17,6.26-.2c.45,0,4.16-.24,4.29.23.11.4,1.56,0,1.45-.39h0Z"/>
    <path class="cls-28" d="M742.98,547.22c1.3-.19.95-1.5.73-2.42-.5-2.05-1.48-4-2.64-5.75-2.79-4.21-7.19-7.58-12.13-8.81-.62-.15-3.33-.84-3.48.38-.08.64,1.39.41,1.46-.15-.11.19-.26.32-.45.38-.11.02-.12.02-.03.01-.06-.04.15,0,.22,0,.3.02.6.07.9.13.95.19,1.89.5,2.79.87,2.57,1.06,4.91,2.66,6.85,4.65s3.37,4.13,4.37,6.58c.33.81.62,1.64.79,2.5.06.27.1.55.12.83.03.61-.27.04.68-.09-.26.04-.8.19-.81.53s.38.42.64.38h0Z"/>
    <path class="cls-28" d="M683.42,545.89c3.2,5.69,8.03,10.37,13.84,13.38.27.14.67.02.93-.08.06-.02.66-.3.43-.42-5.76-2.98-10.57-7.61-13.75-13.27-.2-.36-1.57.17-1.45.39h0Z"/>
    <path class="cls-14" d="M535.56,613.04l46.9,31.99,99.03-97.12c3.84,11.45,19.84,17.54,32.14,27.7,0,0-77.94,132.38-89.4,145.69-40.55,47.09-76.92,20.22-96.73,2.66-11.4-10.11-25.79-81.96-23.18-96.19.6-3.25,31.9-14.74,31.23-14.74Z"/>
    <path class="cls-20" d="M529.91,739.02c-9.53-10.69-22.75-23.55-29.71-36.08-8.76-15.77.54-64.44-4.51-81.74-5.15-17.64-8.66-35.75-11.05-53.96-2.41-18.35-3.74-36.82-4.47-55.31-.6-15.34-5.02-22.65-5.06-37.99,14.51,6.66,38.68,8.95,51.63,21.08,15.95,14.94,16.81,16.63,30.43,45.86,6.85,14.7,7.96,14.88,16.17,43.15,1.12,3.86,18.85,52.26,18.32,52.8-8.21,8.41-25.09,27.29-25.26,34.81-.07,3.31-18.34,11.52-21.36,10.31-5.17,4.96-11.22,12.94-13.5,22.85-3.16,13.72-1.47,29.77-1.63,34.22Z"/>
    <path class="cls-28" d="M565.72,671.57c-1.88,3.02-3.49,6.24-4.95,9.49-2.69,6-5,12.53-5.23,19.16-.12,3.46.41,6.92,2.11,9.97.3.54,1.69.02,1.33-.63-3.14-5.61-2.09-12.66-.44-18.57,1.57-5.62,3.97-11.02,6.76-16.13.58-1.06,1.16-2.12,1.8-3.14.41-.66-1.06-.66-1.38-.15h0Z"/>
    <g>
      <path class="cls-20" d="M543.12,549.06s-4.88,9.17-4.79,22.05c.1,12.88,33.47,94.87-6.79,133.68l-.94,27.53"/>
      <path class="cls-17" d="M542.11,549.05c-3.1,5.86-4.51,12.92-4.81,19.48-.18,3.86.53,7.37,1.42,11.11,2.81,11.74,5.97,23.38,8.16,35.26,2.8,15.24,4.43,30.93,2.83,46.4-1.58,15.3-6.68,30.57-17.53,41.83-.61.63-1.59,1.22-1.73,2.1-.11.67-.05,1.41-.07,2.08-.09,2.65-.18,5.3-.27,7.94-.18,5.41-.37,10.81-.55,16.22-.01.33-.02.67-.03,1-.03.87,2.15.42,2.17-.28.14-4.17.28-8.35.43-12.52.1-3.08.21-6.15.31-9.23.06-1.76-.13-3.76.19-5.49.13-.69,1.34-1.52,1.99-2.22,1.31-1.41,2.56-2.88,3.72-4.41,2.31-3.03,4.3-6.29,6-9.7,3.38-6.82,5.53-14.18,6.76-21.68,2.51-15.29,1.44-31.04-.95-46.27-2-12.74-5.14-25.22-8.28-37.71-.89-3.56-1.93-7.17-2.35-10.83-.42-3.69.14-7.63.83-11.26.68-3.56,1.7-7.09,3.15-10.42.21-.48.41-.94.64-1.37.47-.89-1.69-.65-2.02-.03h0Z"/>
    </g>
    <path class="cls-14" d="M232.54,678.02c26.13,2.32,52.21,1.28,78.34,3.61l-2.95,84.5,23.57,6.08,129.28,47.84-3.72,36.21s-97.4.22-128.05-5.94c-1.74-.35-47.16-6.2-58.33-9.92-19.35-6.43-26.55-16.16-32.32-30.86-7.17-18.25-7.99-55.18-7.07-74.41.91-19.07,1.05-38.09,1.25-57.11Z"/>
    <path class="cls-14" d="M450.1,818.99l-9.03,35.65,4.84.27s38.9,9.35,48.25,8.32c9.34-1.02,31.53-.72,31.53-.72-1.15,2.67-1.34,5.66-.52,8.44,1.16,3.14,3.56,5.67,6.63,7l9.71-14.65c2.68,6.79,8.77,1.7,8.77,1.7l7.05-12.89c2.93,8.56,11.01,2.13,11.01,2.13l4.06-18.06c2.26,2.96,5.07,5.44,8.29,7.32,4.17,1.97,5.56-5.19,5.56-5.19l-15.74-28.17-42.45-12.74-75.06,22.28-2.89-.7Z"/>
    <path class="cls-4" d="M572.16,836.98c-.26-.03-.15-2.8-.52-7.49-.1-1.16-.19-2.51-.39-3.76-.23-1.28-.96-2.42-2.03-3.16-2.62-2.05-5.42-3.86-8.36-5.41-3.11-1.67-6.19-3.05-9.06-4.36-2.87-1.31-5.38-2.49-7.54-3.23"/>
    <path class="cls-4" d="M557.05,852.8c.31-1.22,1.13-2.93,1.41-5,.3-2.55-.02-5.14-.93-7.54-.37-1.37-.9-2.68-1.59-3.92-1.12-1.01-2.43-1.78-3.85-2.29-6.13-2.71-12.12-4.5-16.2-6.42"/>
    <path class="cls-4" d="M540.97,863.35c-.28-.19,1.08-1.85,2.33-4.78.84-1.6,1.17-3.42.96-5.22-.39-2.1-1.79-3.88-3.74-4.75-2.08-.96-4.3-1.57-6.58-1.82l-5.82-1c-1.47-.27-2.82-.64-3.67-.75"/>
    <path class="cls-28" d="M312.32,767.36c-5.65-1.87-11.57.69-16.22,3.88-5.34,3.66-10.08,8.34-14.17,13.34-.38.47,1.27.28,1.56-.07,3.51-4.3,7.48-8.22,11.87-11.62s9.9-6.68,15.57-4.8c.42.14,1.95-.53,1.39-.71h0Z"/>
    <path class="cls-20" d="M302.74,685.54c-25.15,3.49-39.46,1.15-49.55,0-21.69-2.47-30.59-13.63-30.59-13.63,2.42-49.31,15.58-111.38,24.37-137.79,15.33-38.6,71.56-51.15,71.56-51.15l6.05,134.24v62.23c-7.66,3.02-15.08,5.16-21.84,6.09Z"/>
    <g>
      <path class="cls-20" d="M302.74,515.95c12.33,3.05,18.66,16.64,21.68,28.98,11.41,46.58,4.52,88.37.16,134.52,0,0-7.83,3.42-14.84,4.76"/>
      <path class="cls-17" d="M302.11,516.68c8.88,2.27,14.48,10.11,17.86,18.16,1.93,4.59,3.18,9.4,4.27,14.24,1.35,5.99,2.42,12.04,3.24,18.12,3.19,23.72,2.2,47.68.06,71.44-1.23,13.64-2.78,27.25-4.07,40.88l.62-.72c-4.65,2.03-9.57,3.68-14.56,4.65-1.37.27-.95,1.75.4,1.49,5.17-1.01,10.29-2.76,15.12-4.86.28-.12.59-.4.62-.72,2.31-24.4,5.52-48.76,6.02-73.29.25-12.07-.19-24.15-1.62-36.14-.74-6.22-1.75-12.4-3.03-18.53-1.09-5.18-2.29-10.36-4.18-15.32-3.48-9.13-9.49-18.3-19.5-20.86-.51-.13-1.19-.04-1.54.41-.28.37-.24.92.28,1.05h0Z"/>
    </g>
  </g>
</svg>