<?xml version="1.0" encoding="UTF-8"?>
<svg xmlns="http://www.w3.org/2000/svg" xmlns:xlink="http://www.w3.org/1999/xlink" viewBox="0 0 1334 1000">
  <defs>
    <style>
      .cls-1 {
        stroke-width: .14px;
      }

      .cls-1, .cls-2, .cls-3 {
        stroke: #000;
      }

      .cls-1, .cls-2, .cls-3, .cls-4 {
        stroke-miterlimit: 10;
      }

      .cls-2 {
        stroke-width: .14px;
      }

      .cls-3 {
        stroke-width: .14px;
      }

      .cls-5 {
        fill: #18536d;
      }

      .cls-6 {
        fill: #010101;
      }

      .cls-7 {
        fill: #1d3942;
      }

      .cls-8 {
        fill: #653c29;
      }

      .cls-9 {
        fill: #002935;
      }

      .cls-10 {
        fill: #745245;
      }

      .cls-11 {
        fill: #5c483b;
      }

      .cls-12 {
        fill: #a66e53;
      }

      .cls-13 {
        fill: #ce8d2a;
      }

      .cls-14 {
        fill: url(#linear-gradient);
        opacity: .5;
      }

      .cls-4 {
        fill: none;
        stroke: #010101;
        stroke-width: .96px;
      }

      .cls-15 {
        fill: #642a7d;
      }

      .cls-16 {
        fill: #fff;
      }

      .cls-17 {
        fill: #0d0b09;
      }

      .cls-18 {
        fill: #ab7db7;
      }

      .cls-19 {
        fill: #4f2f26;
      }

      .cls-20 {
        fill: #8e6528;
      }

      .cls-21 {
        fill: #b15e27;
      }

      .cls-22 {
        fill: #f2ebd1;
      }

      .cls-23 {
        fill: #24180f;
      }

      .cls-24 {
        fill: #de8b27;
      }

      .cls-25 {
        fill: #c85844;
      }

      .cls-26 {
        fill: #662117;
      }

      .cls-27 {
        fill: #4f2e25;
      }
    </style>
    <linearGradient id="linear-gradient" x1="-3222.87" y1="5545.64" x2="-2411.42" y2="5545.64" gradientTransform="translate(6207.24 3141.41) rotate(90)" gradientUnits="userSpaceOnUse">
      <stop offset="0" stop-color="#f0ebe0"/>
      <stop offset=".18" stop-color="#eee8dd" stop-opacity=".99"/>
      <stop offset=".33" stop-color="#e8e1d4" stop-opacity=".97"/>
      <stop offset=".46" stop-color="#ded4c5" stop-opacity=".93"/>
      <stop offset=".59" stop-color="#d0c2b0" stop-opacity=".88"/>
      <stop offset=".72" stop-color="#bdab95" stop-opacity=".82"/>
      <stop offset=".84" stop-color="#a78e73" stop-opacity=".73"/>
      <stop offset=".96" stop-color="#8d6d4d" stop-opacity=".64"/>
      <stop offset="1" stop-color="#83603d" stop-opacity=".6"/>
    </linearGradient>
  </defs>
  <g id="Layer_2" data-name="Layer 2">
    <polyline class="cls-22" points="-35.83 940.34 -35.83 -88.4 1359.03 -88.4 1359.03 940.34"/>
    <polyline class="cls-14" points="-35.83 727.31 1359.03 727.31 1359.03 -84.14 -35.83 -84.14"/>
    <path class="cls-11" d="M-176.19,921.87l1.65-.63,2.92-116.18c4.32-87.68,28.03-151.31,78.47-156.25,34.34,0,150.49-1.59,162.06,7.3,3.21-152.31-13.35-273.83,235.46-273.83l274.27.66c2.93,67.23,10.91,134.24,20.81,200.79,12.42,83.48-11.9,166.46.82,249.89,6.39,41.93-48.81,84.17-43.4,126.24,5.52,42.86,11.09,85.71,16.51,128.58,8.25,65.19,16.15,130.48,22.95,195.87H-186.65v-135.88c-19.49-6.38-33.04-27.45-33.15-51.55v-96.92c.06-37.14,15.79-61.38,43.61-78.1Z"/>
    <path class="cls-11" d="M571.79,1282.95c-.77-19.09-1.5-38.18-2.09-57.27-1.35-43.93-46.43-87.85-46.43-131.8l10.19-711.29,590.17-1.67c127.79.02,149.05,121.51,152.26,273.83,11.57-8.89,127.72-7.3,162.06-7.3,50.44,4.94,74.15,68.57,78.47,156.25l2.92,116.18,1.65.63c27.81,16.72,43.55,40.96,43.61,78.1v96.92c-.1,24.1-13.65,45.18-33.15,51.55v135.88h-959.66Z"/>
    <path class="cls-17" d="M1511.9,921.88c-.24,0-.49,0-.73,0h-2.17c-1.19,0-2.37,0-3.56-.01-1.65,0-3.3,0-4.95,0-2.09,0-4.19,0-6.28-.01-2.52,0-5.03,0-7.55-.01-2.93,0-5.87-.01-8.8-.02-3.35,0-6.71-.01-10.06-.02-3.73,0-7.47-.01-11.2-.02-4.13,0-8.27-.01-12.4-.02-4.49,0-8.98-.02-13.46-.02-4.87,0-9.73-.02-14.6-.03-5.19,0-10.39-.02-15.58-.03-5.55,0-11.1-.02-16.65-.03-5.85-.01-11.7-.02-17.55-.03-6.19-.01-12.37-.02-18.56-.03-6.46-.01-12.92-.02-19.38-.03-6.75-.01-13.49-.02-20.24-.04-7.05-.01-14.1-.02-21.15-.04-7.31-.01-14.63-.03-21.94-.04-7.54-.01-15.07-.03-22.61-.04-7.77-.01-15.55-.03-23.32-.04-8.03-.01-16.07-.03-24.1-.04-8.22-.01-16.43-.03-24.65-.04-8.45-.01-16.91-.03-25.36-.04-8.61-.02-17.22-.03-25.83-.05l-26.48-.05c-8.96-.02-17.91-.03-26.87-.05-9.15-.02-18.3-.03-27.45-.05-9.25-.02-18.51-.03-27.76-.05-9.42-.02-18.85-.03-28.27-.05l-28.51-.05c-9.61-.02-19.22-.03-28.84-.05-9.75-.02-19.49-.03-29.24-.05l-29.49-.05c-9.86-.02-19.72-.03-29.59-.05-9.92-.02-19.84-.04-29.76-.05-10.01-.02-20.02-.04-30.03-.05-10-.02-20.01-.04-30.01-.05l-30.21-.05c-10.04-.02-20.08-.04-30.12-.05l-30.24-.05c-10.03-.02-20.05-.04-30.08-.05-10.04-.02-20.09-.04-30.13-.05-9.97-.02-19.93-.04-29.9-.05-9.96-.02-19.92-.04-29.87-.05-9.86-.02-19.71-.03-29.57-.05-9.78-.02-19.57-.03-29.35-.05-9.74-.02-19.48-.03-29.22-.05-9.64-.02-19.29-.03-28.93-.05-9.5-.02-18.99-.03-28.49-.05-9.38-.02-18.75-.03-28.13-.05-9.28-.02-18.56-.03-27.85-.05-9.1-.02-18.2-.03-27.3-.05-8.98-.02-17.96-.03-26.94-.05-8.78-.02-17.55-.03-26.33-.05-8.63-.02-17.26-.03-25.89-.05s-16.81-.03-25.21-.04-16.47-.03-24.7-.04c-7.98-.01-15.97-.03-23.95-.04s-15.58-.03-23.36-.04c-7.52-.01-15.03-.03-22.55-.04l-21.79-.04c-7.03-.01-14.06-.02-21.09-.04l-20.26-.04c-6.44-.01-12.87-.02-19.31-.03-6.14-.01-12.28-.02-18.41-.03-5.85-.01-11.7-.02-17.55-.03-5.5,0-11-.02-16.51-.03-5.19,0-10.38-.02-15.56-.03-4.82,0-9.64-.02-14.46-.03-4.48,0-8.96-.02-13.43-.02-4.09,0-8.18-.01-12.26-.02-3.71,0-7.41-.01-11.12-.02-3.32,0-6.65-.01-9.97-.02-2.91,0-5.83-.01-8.74-.02-2.48,0-4.96,0-7.45-.01-2.05,0-4.1,0-6.16-.01-1.62,0-3.23,0-4.85,0-1.15,0-2.31,0-3.46,0h-2.07c-.21,0-.42,0-.62,0-.28,0-1.63.54-.95.54.24,0,.49,0,.73,0h2.17c1.19,0,2.37,0,3.56.01,1.65,0,3.3,0,4.95,0,2.09,0,4.19,0,6.28.01h7.55c2.93.02,5.87.02,8.8.03,3.35,0,6.71.01,10.06.02,3.73,0,7.47.01,11.2.02,4.13,0,8.27.01,12.4.02,4.49,0,8.98.02,13.46.02,4.87,0,9.73.02,14.6.03,5.19,0,10.39.02,15.58.03,5.55,0,11.1.02,16.65.03,5.85.01,11.7.02,17.55.03,6.19.01,12.37.02,18.56.03,6.46.01,12.92.02,19.38.03,6.75.01,13.49.02,20.24.04,7.05.01,14.1.02,21.15.04,7.31.01,14.63.03,21.94.04,7.54.01,15.07.03,22.61.04,7.77.01,15.55.03,23.32.04,8.03.01,16.07.03,24.1.04,8.22.01,16.43.03,24.65.04,8.45.01,16.91.03,25.36.04,8.61.02,17.22.03,25.83.05,8.83.02,17.65.03,26.48.05,8.96.02,17.91.03,26.87.05,9.15.02,18.3.03,27.45.05,9.25.02,18.51.03,27.76.05,9.42.02,18.85.03,28.27.05,9.5.02,19.01.03,28.51.05,9.61.02,19.22.03,28.84.05,9.75.02,19.49.03,29.24.05,9.83.02,19.66.03,29.49.05,9.86.02,19.72.03,29.59.05,9.92.02,19.84.04,29.76.05,10.01.02,20.02.04,30.03.05,10,.02,20.01.04,30.01.05,10.07.02,20.14.04,30.21.05,10.04.02,20.08.04,30.12.05,10.08.02,20.16.04,30.24.05,10.03.02,20.05.04,30.08.05,10.04.02,20.09.04,30.13.05,9.97.02,19.93.04,29.9.05,9.96.02,19.92.04,29.87.05,9.86.02,19.71.03,29.57.05,9.78.02,19.57.03,29.35.05s19.48.03,29.22.05c9.64.02,19.29.03,28.93.05,9.5.02,18.99.03,28.49.05,9.38.02,18.75.03,28.13.05,9.28.02,18.56.03,27.85.05,9.1.02,18.2.03,27.3.05,8.98.02,17.96.03,26.94.05,8.78.02,17.55.03,26.33.05s17.26.03,25.89.05c8.4.01,16.81.03,25.21.04,8.23.01,16.47.03,24.7.04,7.98.01,15.97.03,23.95.04,7.79.01,15.58.03,23.36.04,7.52.01,15.03.03,22.55.04l21.79.04c7.03.01,14.06.02,21.09.04,6.75.01,13.5.02,20.26.04s12.87.02,19.31.03c6.14.01,12.28.02,18.41.03,5.85.01,11.7.02,17.55.03l16.51.03,15.56.03c4.82,0,9.64.02,14.46.03,4.48,0,8.96.02,13.43.02,4.09,0,8.18.01,12.26.02,3.71,0,7.41.01,11.12.02,3.32,0,6.65.01,9.97.02,2.91,0,5.83.01,8.74.02,2.48,0,4.96,0,7.45.01,2.05,0,4.1,0,6.16.01,1.62,0,3.23,0,4.85,0,1.15,0,2.31,0,3.46,0,.69,0,1.38,0,2.07,0,.21,0,.42,0,.62,0,.28,0,1.63-.54.95-.54h0Z"/>
    <path class="cls-17" d="M86.62,661.98c11.06,14.71,21.43,30.41,28.95,47.26,3.99,8.94,6.6,18.29,8.07,27.97,1.58,10.45,2.02,21.03,2.43,31.57.56,14.4.93,28.8,1.28,43.21.41,16.91.76,33.82,1.1,50.74.3,14.86.58,29.73.9,44.59.03,1.5.07,3.01.1,4.51.02.73,1.48.49,1.46-.12-.33-14.48-.6-28.97-.89-43.45-.34-16.97-.68-33.94-1.08-50.91-.35-14.98-.72-29.97-1.27-44.95-.71-19.53-1.23-39.61-8.37-58.07-3.31-8.55-7.64-16.71-12.3-24.59-4.73-8.02-9.89-15.79-15.34-23.34-1.22-1.69-2.46-3.37-3.71-5.04-.37-.5-1.76.05-1.33.62h0Z"/>
    <path class="cls-17" d="M24.85,661.93c11.07,14.73,21.44,30.43,28.96,47.3,3.99,8.94,6.61,18.29,8.07,27.97,1.58,10.41,2.01,20.94,2.43,31.45.57,14.42.94,28.86,1.29,43.29.41,16.91.76,33.82,1.1,50.73.3,14.93.58,29.85.91,44.78.03,1.5.07,3.01.1,4.51,0,.37,1.46.11,1.45-.39-.33-14.42-.6-28.85-.89-43.27-.34-16.97-.68-33.94-1.08-50.91-.35-15-.72-30-1.27-44.99-.71-19.6-1.24-39.74-8.44-58.25-3.34-8.58-7.7-16.76-12.39-24.66-4.69-7.91-9.79-15.59-15.17-23.05-1.22-1.69-2.46-3.37-3.71-5.04-.26-.34-1.65.14-1.35.54h0Z"/>
    <path class="cls-17" d="M1271.89,663.92c-11.05,14.7-21.39,30.37-28.93,47.2-3.98,8.89-6.63,18.18-8.13,27.81-1.62,10.47-2.07,21.08-2.49,31.65-.57,14.45-.94,28.91-1.29,43.36-.41,16.97-.76,33.94-1.1,50.91-.3,14.93-.58,29.85-.91,44.78-.03,1.5-.07,3.01-.1,4.51-.02.68,1.45.41,1.46-.15.33-14.36.6-28.73.88-43.09.34-16.91.68-33.82,1.07-50.72.35-14.98.72-29.97,1.26-44.95.71-19.55,1.15-39.71,8.27-58.19,3.3-8.57,7.64-16.75,12.31-24.65,4.74-8.02,9.89-15.79,15.34-23.34,1.22-1.69,2.46-3.37,3.71-5.04.43-.57-1.04-.53-1.37-.09h0Z"/>
    <path class="cls-17" d="M1333.65,663.92c-11.05,14.7-21.39,30.37-28.93,47.2-3.98,8.89-6.63,18.18-8.13,27.81-1.62,10.47-2.07,21.08-2.49,31.65-.57,14.45-.94,28.91-1.29,43.36-.41,16.97-.76,33.94-1.1,50.91-.3,14.93-.58,29.85-.91,44.78-.03,1.5-.07,3.01-.1,4.51-.02.67,1.44.41,1.46-.15.33-14.36.6-28.73.88-43.09.34-16.91.68-33.82,1.07-50.72.35-14.98.72-29.97,1.26-44.95.71-19.55,1.15-39.71,8.27-58.19,3.3-8.57,7.64-16.75,12.31-24.65,4.74-8.02,9.89-15.79,15.34-23.34,1.22-1.69,2.46-3.37,3.71-5.04.43-.57-1.04-.52-1.37-.09h0Z"/>
    <path class="cls-10" d="M722.31,513.86c.1-.02.21-.03.31-.05-.1-.05-.21-.1-.31-.15-.04.07-.04.13,0,.19Z"/>
    <path class="cls-10" d="M723.27,513.87c.14.01.28.02.42.03-.13-.14-.27-.15-.42-.03Z"/>
    <path class="cls-18" d="M466.7,799.47s2.62-5.65,4.71,11.42c0,0-69.42,19.58-159.55,7.5-90.13-12.08-101.57-19.17-101.57-19.17l26.04-89.1,1.56-70.78,221.66,45.77"/>
    <path class="cls-25" d="M912.24,356.58c-23.65,8.38-50.7,39.31-60.28,74.83-9.58,35.52,14.44,190,9.79,221.28-5.92,36.44-1.28,45.16-36,106l-5.19,9.48,66.08,4.41s4.91-62.27,21.84-111.93c16.92-49.66,3.77-304.07,3.77-304.07Z"/>
    <path class="cls-7" d="M1172.81,673.39s77.81,120.29,30.08,210.69c-22.74,43.05-93.8,37.01-93.8,37.01l-66.81-81.79v-145.18s130.53-20.73,130.53-20.73Z"/>
    <path class="cls-25" d="M903.55,612.04c-1.56-9.44-2.68-19.63-5.33-28.82-5.11-17.73-23.62-27.25-39.03-34.57-3.74-1.78,6.44-3.16,2.62-4.7-.03-13.48-8.12-29.3-8.22-42.79-.15-21.71-4.54-41.48-2.77-63.15,1.67-20.47,10.84-44.71,26.73-59.21,6.66-6.08,8.92-10.16,16.72-14.52l23.34-13.75c.89-.27,14.1-7.33,15.02-7.54,1.95-.44,3.35-.41,4.18-1.62l9.76-3.82,62.17-33.34,44.13,14.75s61.27,14.66,73.83,22.99c15.37,10.15,12.31,214.55,12.31,214.55,0,0,7.12,79.77,60.78,158.02.35.51,1.88,4.21,2.11,4.8.7,1.84-10.68,10.59-12.18,11.68-4.65,3.35-12.66,4.63-17.94,6.82-10.77,4.47-19.99,4.14-31.36,6.43-15.48,3.12-31.07,5.76-46.79,7.3-14.66,1.44-30.09-.5-44.54,1.71l-163.82,1.12s12.53-74.59,12.53-74.59c1.44-8.57,3.79-16.9,4.88-25.57,1.14-9.02,1.68-18.12,1.61-27.22-.03-4.45-.17-8.91-.53-13.34-.04-.55-.11-1.09-.2-1.63Z"/>
    <path class="cls-7" d="M716.32,835.07c3.53,105.74,14.08,286.32,30.87,394.25,0,0,81.41,40.45,93.45,16.79,0,0,29.29-220.7,69.35-350.31,35.28-114.13,249.39-122.84,222.2-133.19-42.79-16.28-317.38-38.53-370.42-19.41-35.16,12.67-47.79,21.75-45.46,91.86Z"/>
    <path class="cls-7" d="M758.68,750.19c3.77-3.22,7.82-6.27,12.1-8.95,139.98-11.84,357.64,7.78,357.64,7.78,0,0,101.1,23.94,71.65,112.53-39.03,117.4-329.45,45.11-429.1,8.62-.48-.17-.94,3.64-1.41,3.47-.57-6.81-1.49-13.59-2.66-20.28-2.65-15.14-6.65-29.98-11.61-44.4-5.05-14.69-11.17-21.96-18.34-35.59,6.47-8.42,13.68-16.29,21.73-23.17Z"/>
    <path class="cls-7" d="M788.81,803.1c17.03-.43,34.04-1.27,51.04-2.38,16.93-1.11,33.83-2.51,50.72-4.06,5.04,6.22,9.83,12.69,14.28,19.41,2.32,3.51,35.71,7.09,37.83,10.75-.38.04-.07,21.05-.44,21.08,30.22,57.1-17.26,141.6-14.3,243.15,2.6,89.17,2.84,101.91,7.63,149.28-14.26,21.43-125.01,11.4-125.01,11.4-10.55-104.65-28.66-341.14-36.73-448.37,4.99-.05,9.99-.13,14.98-.26Z"/>
    <line class="cls-20" x1="943.64" y1="516.03" x2="943.75" y2="517.75"/>
    <path class="cls-26" d="M862.98,437.56c2.04,2.4,3.61,5.3,4.88,8.16,2.44,5.51,3.69,11.6,3.2,17.63-.37,4.54-1.27,9.03-2.09,13.5-1.12,6.12-2.26,12.23-3.2,18.37-2.22,14.56-3.45,29.43-1.72,44.11.89,7.56,2.64,15.04,5.22,22.2,1.87,5.19,4.25,10.24,7.41,14.78,2.21,3.17,4.82,6.02,7.71,8.59,2.15,1.91,4.47,3.62,6.52,5.63,1.96,1.92,3.09,4.01,4.01,6.58,1.7,4.75,3.03,9.65,4.16,14.56,3.12,13.52,4.97,27.85,3.09,41.68-.64,4.7-1.71,9.37-2.57,14.03-.95,5.15-1.88,10.31-2.79,15.47-1.91,10.79-3.78,21.58-5.63,32.38-1.12,6.57-2.24,13.13-3.35,19.7-.05.32-.11.65-.16.97-.11.66,1.36.44,1.46-.14.79-4.72,1.59-9.43,2.4-14.14,1.77-10.36,3.55-20.72,5.37-31.08,1.78-10.14,3.57-20.28,5.51-30.4,1.17-6.14,1.97-12.2,1.94-18.47-.03-6.98-.75-13.96-1.9-20.85-1.01-6.03-2.36-12.02-4.07-17.89-.97-3.34-1.85-7.12-3.71-10.1-1.34-2.15-3.32-3.82-5.25-5.43-2.54-2.12-5.07-4.24-7.33-6.67-7.95-8.56-12.12-19.91-14.73-31.12-3.47-14.87-3.11-30.4-1.34-45.48,1.42-12.11,4.09-23.98,5.92-36.02.74-4.88.99-9.64.03-14.53-1.03-5.2-3.16-10.22-6.12-14.6-.47-.7-.96-1.4-1.51-2.04-.38-.45-1.77.1-1.33.61h0Z"/>
    <path class="cls-12" d="M1040.11,235.68s-9.97,45.77,3.72,75.68c1.91,4.17,29.66,12.37,29.66,12.37l-37.15,17.68c-17.26,5.15-46.68,10.82-71.55,8.63-10.86-.96-25.78.92-34.07-6.16h0s19.05-8.76,19.84-14.11c.78-5.35-5.47-50.03-5.47-50.03"/>
    <path class="cls-27" d="M950.05,318.55s12.45-6.36,18.78-8.39c6.33-2.03,17.31-2.05,45.88-28.71,0,0-7.52,31.77-44.93,39.87,0,0-12.96,3.04-19.41,1.72l-.32-4.49Z"/>
    <path class="cls-12" d="M913.15,126.45c-.09.23-.21.47-.35.69.13-.12.27-.23.39-.34l-.04-.35ZM896.8,132.44l.04.29c.24-.25.48-.49.69-.74-.04-.35-.72.45-.72.45ZM1036.46,248.83l1.35-6.08c8.72,9.87,20.89.4,20.31-14.69,3.43-7.87,6.73-33.35-.12-40.56l-.85-1.07c-4.65-2.98-12.52-3.77-15.26,2.28-.84,2.6.32,5.67-.51,8.27-.79,2.95-4.34,8.75-5.94,11.45,0,0-3.73-14.16-4.19-20.88-.46-6.72-7.49-25.46-20.54-33.45,0,0-2.58-23.58-8.82-29.93l-2-.46c-1.15.14-1.87.59-3.02.74-.04-.35.29-.75.21-1.45-1.83.94-3.4.78-4.93.98.34-.4,1.06-.85,1.02-1.2-1.49.54-3.06.39-4.59.58.34-.4,1.02-1.2.97-1.55-1.82.94-3.06.39-4.59.58.34-.4.63-1.15.59-1.5-1.44.9-3.02.74-4.55.93.34-.4.63-1.15.97-1.55-1.82.94-3.06.39-4.59.58-.38.05.68-.8.63-1.15-1.1.5-2.63.69-3.78.83-.04-.35.68-.8.63-1.15-2.21.99-3.44.43-4.97.63l.97-1.55c-1.4,1.25-2.93,1.44-4.5,1.28.33-.4,1.01-1.2.97-1.55-1.78,1.29-4.03,1.93-6.03,1.47.38-.05,1.01-1.2.97-1.55-1.74,1.65-3.31,1.49-5.22,1.73.34-.4.63-1.15,1.31-1.95-2.12,1.7-4.71,2.74-7.14,1.97.38-.05.63-1.15.59-1.5-1.35,1.6,1.3-.52-.66-.63,0,0-4.23,1.96-4.27,1.61-1.4,1.25,3.29-6.47,1.37-6.23.29-.75-10.9,2.04-10.22,1.24-1.74,1.65-1.44.87-3.78.81,0,0-7.42,5.21-7.08,4.81-1.69,2-2.74.63-5.08.57.34-.4,1.57,1.3,1.9.9-1.35,1.6-1.07-.22-2.98.02-.04-.35-6.54-1.5-6.59-1.85-1.78,1.29-1.14,1.37-3.43,1.66-.04-.35-.95,4.05-.61,3.65-1.35,1.6-1.43.44-3.39.32l-1.73,1.55c-1.69,2,.84.9-1.5.84-.03-.24,8.77.01,9.07-.49-1.33,1.14-2.95,2.26-4.65,2.79-.04-.35.25-1.1.21-1.45-1.36,1.6-3.52,2.94-5.86,2.88.38-.05.68-.8.63-1.15-1.69,2-3.85,3.34-6.29,2.58v-.06c-1.34,1.35-3.14,2.65-5.04,3.19-.13-1.05.59-1.5.59-1.5l-1.53.19c-1.56,3.05-3.16,5.75-3.48,9.36,0,0-10.86,21.81-8.83,34.75,2.02,12.94,7.17,34.8,8.26,40.38,2.41,12.28.15,24.53,2.98,36.83,2.61,11.37,8.08,22.19,15.58,30.93,7.77,9.06,11.6,10.73,21.84,19.52,6.14,5.28,9.12,16.19,32.71,12.18,23.58-4.01,45.35-20.9,58.56-38.06"/>
    <path class="cls-13" d="M1043.54,238.56c3.42-.05,6.38,2.5,7.01,5.83.32,1.65.01,3.35-.81,4.81-.29.51-.69,1.07-.95,1.3-.14.12-.3.23-.45.34-.06.04-.37.24-.16.11-.16.1-.32.19-.48.27-.67.36-1.17.56-1.94.63-1.22.11-2.41-.27-3.49-.82-.58-.29-1.56.05-2.08.33-.39.21-.9.65-.31.95,2.52,1.28,5.38,1.19,8,.24,1.29-.46,2.73-1.17,3.68-2.21,2.77-3.04,2.73-7.76-.13-10.72-1.74-1.8-4.21-2.54-6.67-2.5-.6,0-1.6.22-1.97.76s.33.68.75.67h0Z"/>
    <path d="M1026.22,181.11l6.33,33.91,10.11-16.59s-11.72-12.42-16.45-17.31Z"/>
    <g>
      <path class="cls-6" d="M936.47,252.36c3.01,1.11,7.26.23,9.88-1.88.58-.47,2.73-.36,1.91.3-3.46,2.78-9.61,3.78-13.49,2.34-.38-.14-.36-.43.08-.63.45-.22,1.2-.28,1.61-.13"/>
      <path class="cls-6" d="M949.39,249.83c1.78-1.13,3.85-1.87,5.95-2.3.31-.06.72,0,.98.18.2.14.26.34.05.51-.91.68-2.13,1.07-3.27,1.2-.36.04-.85.01-1.09-.27-.22-.26.1-.49.38-.52.95-.1,1.89-.41,2.64-.97.34.23.68.46,1.03.68-1.88.38-3.72,1.06-5.32,2.07-.32.2-.82.16-1.14.02-.24-.1-.52-.38-.21-.59"/>
      <path class="cls-6" d="M957.85,249.03c2.47-.37,5.26-1.82,6.24-3.83,1.49-3.04-.79-7.26-4.11-8.67-.36-.15-.21-.43.12-.54.43-.15.98-.05,1.36.11,2.9,1.22,5.11,4.65,5.03,7.33-.07,2.51-2.23,4.52-5.11,5.61-.86.32-1.78.58-2.7.73-.37.06-1.07.03-1.29-.24-.22-.27.1-.45.46-.5"/>
      <path class="cls-6" d="M931.76,251.68c.1-.3-.17-.46-.37-.43-.67.1-1.38,0-2-.39-.19.29-.37.59-.56.88,1.36-.02,2.76.24,4.06.89.26.13.59-.02.78-.22.14-.15.28-.49.02-.62"/>
      <path class="cls-6" d="M933.69,251.8c-1.45-.72-3.02-1-4.54-.98-.22,0-.49.16-.63.38-.11.18-.11.39.08.5"/>
      <path class="cls-6" d="M926.65,252.67c-1.62.14-3.66-.69-4.68-2.45-1.55-2.65-.86-6.13.93-8.17.19-.22.05-.46-.19-.5-.3-.06-.62.15-.83.38-1.56,1.78-2.38,4.47-1.78,7.06.56,2.43,2.32,3.95,4.34,4.42.6.14,1.23.2,1.84.15.25-.02.67-.19.75-.5.08-.31-.16-.41-.39-.39"/>
    </g>
    <path d="M921.36,212.34s-12.85-7.54-18.13-7.16c-7.7.56-14.99,7.66-17.01,11.93,0,0,9.94-9.73,15.38-9.96,5.2-.22,19.76,5.19,19.76,5.19Z"/>
    <path d="M956.17,209.39s10.27-10.66,15.94-11.82c8.28-1.69,19.11,2.71,22.49,6.22,0,0-14.39-6.16-20.19-4.81-5.54,1.29-18.24,10.41-18.24,10.41Z"/>
    <path d="M883.73,206.48c-.15-.1-.3-.2-.45-.32-.02-.01-.02-.01-.02-.02,0,0,0,0-.02-.02-.06-.06-.12-.12-.17-.18-.86-.97-1-2.33-1.37-3.6.06-.16.11-.29.12-.33,0,0,1.33-3.4,4.85-6.79,2.42-2.34,10.05-7.4,21.39-12.28.88,1.34,1.75,2.7,2.63,4.05.67,1.03,1.33,2.06,1.99,3.09-4.23,1.24-7.73,2.47-10.34,3.46-5.51,2.09-8.32,3.18-10.93,5.3-2.74,2.23-4.63,4.79-5.35,5.79-.64.87-1.14,1.57-1.59,2.3-.25-.15-.5-.3-.74-.45Z"/>
    <path d="M950.23,176.98c-.03,1.57-.05,3.15-.08,4.74-.02,1.2-.03,2.41-.04,3.61,5.43-.89,10.07-1.44,13.57-1.79,7.4-.74,11.19-1.1,15.47-.47,4.49.67,8.29,2.01,9.77,2.54,2.07.75,3.47,1.22,5.12,2.16,3.59,2.04,5.03,4.29,5.63,4.11.55-.16-.3-2.12-.39-2.32-2.17-4.94-7.19-7.95-7.57-8.19,0,0-3.77-2.33-9.9-3.64-4.22-.91-15.96-1.77-31.58-.75"/>
    <path d="M897.05,206.97c.44,0,.87.04,1.3.18,1.62.54,2.35,1.99,2.52,2.34.88,1.9.58,4.74-1.52,6.17-1.55,1.05-3.77,1.15-5.3-.08-1.15-.92-2.05-2.58-1.85-4.2,1.75-1.31,3.31-2.86,4.85-4.4Z"/>
    <path d="M964.85,202.4c.43-.32.87-.62,1.31-.93.92-.66,1.81-1.4,2.43-2.36.01-.02.02-.04.03-.06,1.17-.12,2.32.04,3.03.5.33.21,1.21.81,1.76,1.97.71,1.49.37,3.35-.44,4.59-1.08,1.64-3.22,2.24-5.02,1.73-2.37-.68-3.54-3.17-3.37-5.21.09-.07.18-.15.27-.22Z"/>
    <path class="cls-4" d="M1040.1,216.71c6.23-22.56,12.69-23.59,12.69-23.59,0,0,5.03,4.34,4.21,14.53"/>
    <path class="cls-4" d="M1043.71,218.19c5.73-1.36,2.73,10.02,4.68,12.33,1.95,2.31,3.16-4.71,2.77-12.93,0,0-1.48-10.98-7.25-12.24"/>
    <path class="cls-21" d="M886.33,157.84c6.71-21.62,29.07-35.95,76.71-47.93,47.64-11.98,87.68.96,87.68.96-31.22-66.47-101.23-55.35-116.9-53.38-15.67,1.98-82.58,76.25-55.2,127.34l1.98,5.26s4.51-28.31,5.73-32.25Z"/>
    <path class="cls-21" d="M1061.34,94.9s.34-44.15-33.19-54.73c-44.79-14.14-103.63-15.47-118.72,31.74l151.91,22.99Z"/>
    <path class="cls-24" d="M1070.23,200.79c3.06-3.98.86-13.9,3.37-18.25,13.13-22.76,5.55-42.49-1.98-53.82-3.28-4.94-.76-14.63-1.59-19.22-4.36-24.03-7.22-24.42-46.32-44.73-31.82-16.53-63.44-11.63-81.68-8.34-29.22,5.27-41.96,8.74-49.62,30.9-1,2.89.72,4.9.01,8.32-1,4.83-6.85,9.88-7.32,15.91,0,0,38.3,6.81,72.87,20.23,34.57,13.42,100.6,73.92,100.81,94.52,0,.65,8.06-21.12,11.45-25.52Z"/>
    <path class="cls-21" d="M1080.53,152.89s-64.12-61.5-124.89-54.46c0,0,76.41-19.91,117.92,31.83l1.1,2.13c2.9,5.63,4.78,11.72,5.56,18l.31,2.5Z"/>
    <path class="cls-21" d="M891.69,96.55l3.92-2.05c9.12-4.77,18.88-8.2,28.98-10.18l16.93-3.32s-42.14-2.03-50,9.56l.17,6Z"/>
    <path class="cls-21" d="M1045.04,162.95s24.35,19.56,27.11,28.17l1.45-8.58s-8.48-15.14-28.56-19.59Z"/>
    <path class="cls-25" d="M1066.66,562.2l-4.91,45.81c-.56.4-1.33.51-1.98-.05-5.47-4.7-10.95-7.57-16.06-12.72l-162.52-24.29-3.99,56.44s162.14,36.83,196.9,33.66c1.98-.18,25.25,24.36,27.16,24.12,18.55-2.36,36.49-24.05,44.66-39.68,10.14-19.41,11.64-43.47,12.92-64.93,2.53-42.47,8.45-84.35,10.38-126.86.92-20.31,2.82-33.5-1.45-53.38-5.99-27.9-10.92-43.2-38.94-56.96l-52.32-17.78"/>
    <path class="cls-26" d="M876,615.31c.16,4.09.32,8.19.48,12.28.03.05.07.09.13.1,2.88.74,5.78,1.44,8.67,2.13,8.19,1.96,16.4,3.83,24.63,5.63,12.97,2.85,25.97,5.54,38.99,8.11,13.63,2.69,27.29,5.26,40.93,7.93,13.44,2.62,26.89,5.18,40.4,7.39,14.89,2.44,29.85,4.47,44.87,5.9,7.76.74,15.55,1.42,23.34,1.81,5.33.27,10.71-.02,15.98-.88,7.2-1.17,14.33-3.46,20.51-7.39,7.18-4.57,12.56-11.35,15.42-19.37.86-2.41,1.49-4.9,1.95-7.42.07-.36-1.36-.13-1.43.25-1.75,9.57-6.33,18.39-14.1,24.4-6.28,4.86-13.93,7.59-21.7,8.9-5.4.91-10.92,1.19-16.38.86-9.59-.59-19.17-1.37-28.72-2.38-15.71-1.66-31.34-3.96-46.9-6.66-13.9-2.41-27.75-5.14-41.6-7.85-14.9-2.91-29.82-5.69-44.7-8.73-12.08-2.47-24.14-5.05-36.17-7.78-6.59-1.5-13.17-3.03-19.73-4.65-.71-.18-1.42-.35-2.14-.53-.21-.05-.73-.08-.9-.23.15.13.05-.07.08-.31.07-.64-.05-1.36-.08-2.01-.08-2.13-.17-4.26-.25-6.39l-.14-3.48c-.01-.28-1.47-.04-1.45.39h0Z"/>
    <path class="cls-26" d="M1110.9,373.04c-10.49-.04-18.23,8.34-23.33,16.63-3.3,5.37-5.86,11.18-7.99,17.11-1.2,3.35-2.36,6.75-3.11,10.23-.98,4.59-1.57,9.27-2.14,13.93-.84,6.86-1.53,13.74-2.18,20.63-1.57,16.79-2.82,33.61-4,50.43-1.09,15.68-2.09,31.37-3.03,47.06-.32,5.3-.63,10.61-.93,15.91-.1,1.68-.19,3.37-.28,5.05-.05.84-.21,1.77-.14,2.61,0,.11-.01.23-.02.34l1.15-.56c-3.8-1.5-8.12-2.06-12.12-2.65-14.22-2.1-28.74-2.35-43.08-2.12-9.9.16-19.8.59-29.71.79-9.58.19-19.17.3-28.76.35-16.39.08-32.77,0-49.16-.21-5.09-.07-10.19-.14-15.28-.24-1.37-.03-2.74-.05-4.11-.08-.47,0-1.03-.11-1.49-.03-.9.15-1.34,1.38-1.79,2.07-.5.78.84,1.07,1.23.47l1.12-1.74-.67.33c6.59.15,13.19.25,19.78.34,15.6.21,31.2.3,46.8.24,18.8-.07,37.57-.52,56.36-1.03,15.11-.42,30.37-.32,45.39,1.59,4.95.63,9.73,1.59,14.52,2.9.05.01.1.04.15.06.39.15,1.12-.06,1.15-.56.34-6.39.71-12.77,1.09-19.16.87-14.79,1.8-29.59,2.8-44.37,1.15-16.89,2.38-33.77,3.86-50.63,1.11-12.66,2.15-25.4,4.25-37.94,1.15-6.87,3.4-13.47,6.13-19.89,2.38-5.59,5.23-11.06,8.96-15.87,3.09-3.98,6.9-7.64,11.63-9.56,2.18-.88,4.49-1.3,6.84-1.29.85,0,1.09-1.12.11-1.13h0Z"/>
    <path class="cls-26" d="M1063.62,572.59c6.45,1.08,12.13,5.17,15.65,10.63,3.93,6.1,5.02,13.66,3.89,20.75-.11.68,1.37.46,1.46-.13,1.18-7.39-.03-15.25-4.23-21.54-3.72-5.58-9.62-9.56-16.25-10.67-.66-.11-1.49.81-.52.98h0Z"/>
    <path class="cls-12" d="M876.73,615.12l-16.05-3.71s-47.88,13.26-61.94,11.81c-10.12-1.48-19.98-4.53-29.31-9.07l-12.07,2.55c-5.56,1.17-11.27.16-16.18-2.86l-3.78-2.33s-14.41,7.7-16.8,2.84c-2.4-4.85,2.34-9.31,6.95-13.65,4.6-4.33,95.21-40.18,95.21-40.18-7.68-4.12-22.54-3.39-30.75-5.96-12.64-3.85-16.12-10.49-10.08-14.98,3.72-2.77,14.49-3.99,21.11.19,6.6,4.16,40.84-1.23,53.07,4.67,12.23,5.9,19.64,24.52,19.64,24.52,1,.65,5.45,2,5.45,2,.29,1.87-4.47,44.16-4.47,44.16Z"/>
    <path class="cls-27" d="M771.7,614.34c9.58-2,19.17-4,28.75-6,1.34-.28,2.68-.56,4.02-.84,1.11-.23.78-1.43-.32-1.2-9.58,2-19.17,4-28.75,6-1.34.28-2.68.56-4.02.84-1.11.23-.78,1.43.32,1.2h0Z"/>
    <path class="cls-27" d="M737.92,610.92c5.86-1.72,11.72-3.44,17.58-5.16,9.29-2.73,18.59-5.46,27.88-8.18,2.14-.63,4.29-1.26,6.43-1.89,1.08-.32.77-1.52-.32-1.2-5.86,1.72-11.72,3.44-17.58,5.16-9.29,2.73-18.59,5.46-27.88,8.18-2.14.63-4.29,1.26-6.43,1.89-1.08.32-.77,1.52.32,1.2h0Z"/>
    <path class="cls-18" d="M473.86,508.02c-.82-26.34-9.6-44.12-16.35-54-3.74-5.48-8.93-9.8-14.92-12.65-8.65-4.12-16.25-8.3-27.76-12.45-2.14-.77-21.3-6.17-21.1-5.69,5.9,13.69-6.62,26.02-21.8,27.78-5.45.63-10.81.86-15.91.76-17.41-.35-42.15-17.11-52.7-30.18l-1.86-2.42-2.07,1.2-57.88,28.34,7.73,245.77,10.57,8.18c28.53,10.69,57.22,21.08,86.78,28.53,34.57,8.7,70.85,13.58,106.3,7.67,8.11-1.35-.24.68,7.56-1.84-1.99-8.61,2.34-26.36,2.41-35.47.41-50.28,1.67-70.59,3.37-72.66,0,0,9.19-14.62,12.46-30.43"/>
    <path class="cls-18" d="M462.87,685.53s-2.54,70.39-2.54,96.13c0,0-65.53,19.57-157.92,7.71-92.39-11.86-83.4-5.36-83.4-5.36l24.44-64.42v-151.18s210.34,90.17,210.34,90.17"/>
    <path class="cls-12" d="M299.8,354.06s18.54,43.07,9.14,61.58c-1.26,2.48-6.2,5.39-6.56,7.66,0,0,19.76,34.09,62.88,33.46,43.11-.63,34.75-31.78,34.75-31.78-1.53-1.02-2.67.84-4.2-.18-.42-.28-.85-.57-1.13-.99-.42-.63-.41-1.42-.38-2.16.68-20.75,1.94-41.48,3.32-62.2"/>
    <path class="cls-27" d="M334.14,391.3s8.36,18.04,45.51,22.55c0,0,11.06.59,14.94-.14l.7-8.03-61.14-14.38Z"/>
    <path class="cls-2" d="M432.53,343.1c-11.86-7.44-14.92-21.92-14.3-35.03.6-12.54-9.97-31.1,5.36-31.39.29,0-6.12-10.35-1.56-9.69-3.17-6.73,6.97-6.67,7.92-14.51.19-1.58,1.58-15.52-8.35-15.87-38.59-47.54-85.72-34.16-112.29-28.92-52.12,10.28-77.49,14.88-59.73,97.29,11.92,55.33,65.25,67.43,118.15,62.58,22.6-2.07,49.56-2.84,65.29-24.17-.16-.1-.33-.19-.49-.29Z"/>
    <path class="cls-2" d="M310.39,159.53c-1.71-2.86-16.55-12.95-25.03-11.49-6.06,1.05-12.94,4.19-22.6,13.98-9.85-2.14-21.87-3.26-27.31,2.12-2.1,2.08-3.94,4.81-5.56,7.83,0,0-.03,0-.03,0l-.07.18c-1.44,2.72-2.7,5.67-3.8,8.66-6.1,9.56-18.64,29.91-20.61,38.72-.98,4.38,5.88,13.16,14.84,22.44-1.7,2.04-3.32,4.82-3.86,8.44-1.22,8.19,8.84,25.05,29.54,15.41,6.03,5.18,10.26,8.61,10.26,8.61l5.83-5.57s-.57-1.1-1.55-3.03l7.12-6.65-5.55-4.27c1.39-1.58,3.11-3.3,5.31-5.08,6.9-6.84,14.21-16.29,20.82-23.42,3.05-3.29,11.66-5.53,14.87-8.67-1.27-.87-3.22-1.52-5.61-2.01.86-.84,1.73-1.69,2.59-2.53,3.16,1.06,5.83,2.01,6.7,2.46,2.83-2.72,10.42-5.6,13.21-8.36.6.83,1.18,1.67,1.74,2.54,2.54-2.54,8.12-5.56,10.64-8.11-1.57-13.66-8.25-24.99-21.42-30.28.28-5.15.35-10.55-.49-11.95ZM225.45,252.29c-.98-2.32-1.39-4.55-1.49-6.54,3.77,3.73,7.75,7.46,11.58,10.93-4,.24-8.44-.49-10.09-4.4ZM301.82,159.94c.06,2.33-1.46,5.97-2.77,8.67-.34-.04-.67-.08-1.01-.11-3.13-.29-9.1-1.26-16.14-1.33,2.39-4.29,4.8-8.44,5.58-9.13,4.05-3.56,14.23-2.17,14.34,1.89Z"/>
    <path class="cls-12" d="M393.53,235.61c.14.08.28.15.42.23-.17-.18-.33-.37-.45-.56l.03.33ZM408.77,237.18c.24.18.5.36.77.53l-.03-.27s-.77-.59-.74-.26ZM328.01,387.43c15.41,12.92,40.4,20.43,56.63,21.13,7.95.34,14.97,1.84,22.38-4.55,18.58-16.04,36.1-43.92,30.76-69.21-.98-4.66-4.58-13.2-4.68-17.76-.12-5.27-2.53-30.48-8.76-45.94-7.59-18.84-14.32-27.92-14.32-27.92-1.01-3.21,7.33-2.49,5.31-4.94l-1.42.13s.74.26.83,1.24c-1.83-.11-3.73-.93-5.2-1.89v.05c-2.05,1.18-4.27.39-6.21-1.08.03.33.45.95.8.92-2.11.52-4.34-.26-5.88-1.44.03.33.45.95.48,1.28-1.65-.15-3.34-.84-4.78-1.6.37.4,8.3-1.59,8.32-1.36-2.11.52.4,1.01-1.53-.46l-1.88-1.06c-1.75.49-1.59,1.56-3.13.38.39.29-1.31-3.51-1.28-3.19-2.14.2-1.57,0-3.44-.82.03.33-5.63,2.66-5.6,2.99-1.78.16-1.16,1.76-2.71.58.39.29,1.16-1.49,1.55-1.19-2.11.52-2.79,1.97-4.72.5.39.3-7.38-2.94-7.38-2.94-2.11.52-1.69,1.16-3.59.02.77.59-9.93.3-9.51.92-1.78.16,4,6.22,2.49,5.37.03.33-4.19-.61-4.19-.61-1.75.49,1.07,1.88-.47.71.03.33.48,1.28.83,1.24-2.05,1.18-4.61.75-6.86-.36.77.59,1.19,1.21,1.58,1.51-1.78.16-3.18.62-5.08-.52.03.33.83,1.24,1.19,1.21-1.72.82-3.89.69-5.76-.13.03.33.8.92,1.19,1.21-1.39.46-2.82.59-4.33-.26l1.19,1.21c-1.42.13-2.43.88-4.63.42.03.33.77.59.8.92-1.07.1-2.5.23-3.6,0,.03.33,1.16.88.8.92-1.42.13-2.43.88-4.27.39.38.29.8.92,1.19,1.21-1.43.13-2.82.59-4.31.06.03.33.45.95.83,1.24-1.43.13-2.44.88-4.28.39.03.33.8.92,1.19,1.21-1.43.13-2.82.59-4.28.39.03.33.77.59,1.16.88-1.43.13-2.82.59-4.67.1.06.65.45.95.48,1.27-1.07.1-1.81-.16-2.88-.06l-1.72.82c-4.39,7-16.37,21.3-16.37,21.3-10.24,9.85-9.05,25.21-8.12,31.39.93,6.18,10.9,30.38,10.9,30.38-1.99-2.13-4.05-7.25-5.36-9.77-1.28-2.19-3.15-4.62-4.43-6.81-3.69-4.94-10.67-2.65-14.29.98l-.56,1.14c-4.78,7.9-1.44,26.16,9.91,37.49,2.48,13.79,17.03,19.11,19.41,8.55l2.44,5.24"/>
    <g>
      <path class="cls-6" d="M401.04,349.5c-2.2,1.41-5.76,1.49-8.23.34-.55-.26-2.24.22-1.47.58,3.27,1.53,8.35,1.18,11.19-.63.28-.18.21-.4-.18-.48-.4-.09-1.01,0-1.31.19"/>
      <path class="cls-6" d="M390.26,349.88c-1.63-.55-3.41-.75-5.17-.7-.26,0-.58.13-.75.32-.13.14-.15.31.05.4.85.36,1.89.44,2.83.33.3-.03.68-.15.82-.41.13-.24-.17-.36-.4-.33-.78.09-1.58.03-2.28-.27-.23.24-.46.48-.7.72,1.57-.04,3.16.15,4.62.64.29.1.68-.02.91-.19.17-.13.35-.39.06-.49"/>
      <path class="cls-6" d="M383.37,350.79c-2.04.16-4.53-.45-5.68-1.83-1.74-2.08-.7-5.98,1.7-7.67.26-.18.09-.37-.19-.4-.37-.04-.79.14-1.07.33-2.09,1.47-3.22,4.74-2.68,6.81.51,1.93,2.6,3.1,5.09,3.42.74.09,1.53.13,2.29.07.31-.03.86-.17.98-.42.13-.25-.16-.33-.45-.3"/>
      <path class="cls-6" d="M404.67,348.12c-.13-.22.06-.38.22-.4.55-.04,1.1-.25,1.53-.66.2.19.4.39.6.58-1.09.23-2.16.69-3.08,1.43-.18.15-.47.09-.66-.03-.14-.09-.31-.33-.12-.47"/>
      <path class="cls-6" d="M403.16,348.57c1.03-.82,2.23-1.32,3.45-1.58.18-.04.42.03.57.18.12.12.16.28.03.4"/>
      <path class="cls-6" d="M408.93,347.96c1.32-.18,2.79-1.2,3.3-2.75.76-2.34-.42-4.9-2.22-6.16-.2-.14-.12-.35.06-.42.23-.1.52,0,.73.15,1.57,1.1,2.7,3.03,2.7,5.15,0,1.98-1.14,3.48-2.67,4.21-.45.22-.95.38-1.44.45-.2.03-.57-.03-.69-.25-.12-.23.05-.35.24-.37"/>
    </g>
    <path class="cls-6" d="M296.86,339.61c-2.37-4.02-4.91-8.01-7.98-11.54-1.45-1.67-3.06-3.38-5.02-4.45-.75-.41-1.62-.75-2.49-.67-1.18.11-1.76.98-2.37,1.91-2.46,3.73-2.64,8.32-1.19,12.47.11.31,1.54-.12,1.45-.39-1.29-3.71-1.32-7.73.52-11.26.44-.83.98-1.54,1.54-2.29.32-.42.06-.09-.38.04-.07.02-.24.05-.23.05-.04.03-.06-.02.14,0-.12-.02.25.04.34.06.46.11.9.31,1.31.54,1.73.95,3.18,2.41,4.49,3.86,3.28,3.64,5.94,7.84,8.43,12.05.2.34,1.55-.22,1.45-.39h0Z"/>
    <path d="M405.57,284.95c.67-1.78.29-.79.96-2.56l.11-.31c12.71,1.53,18.32,2.81,24.58,6.28.09.25.18.49.23.75.02.08.03.16.04.24,0,0,0,0,0,0,0,.04,0,.09,0,.13-.04.15-.08.29-.12.44-.1.3-.21.59-.32.89-.03.06-.14.33-.16.36-.06.13-.12.26-.18.39-.26.53-.53,1.05-.81,1.57-4.62-1.64-9.92-2.22-14.55-3.12-2.98-.58-6.55-.52-11.3-1.02.5-1.35,1-2.7,1.51-4.05Z"/>
    <path d="M369.09,282.69c.83,1.7.36.75,1.19,2.46.63,1.3,1.25,2.6,1.87,3.9-5.39,1.29-9.45,1.82-12.82,2.89-6.68,2.13-14.63,3.88-20.53,7.81-2.82,1.88-6.83,4.64-7.85,8.02-.28.91-.27,3.67-1.68,3.79-.58.05-.8-2.43-.83-2.69-.43-5.02,2.96-8.85,7.66-12.41,9.59-7.26,15.08-9.58,32.85-14.07"/>
    <path d="M419.76,304.27c1.95-1.25,4.43-.55,5.88.51.34.25,1.26.97,1.78,2.28.66,1.68.16,3.69-.82,4.97-1.3,1.72-3.68,2.21-5.6,1.52-2.61-.94-3.7-3.88-3.28-6.13.08-.41.46-2.15,2.04-3.16"/>
    <path d="M401.88,312.86s9.39-8.78,14.51-9.76c7.47-1.43,12.97,1.48,15.98,4.93,0,0-8.69-4.68-13.93-3.52s-16.57,8.35-16.57,8.35Z"/>
    <path d="M361.03,310.43c-2.15-.87-4.46.26-5.69,1.57-.29.31-1.07,1.18-1.34,2.57-.35,1.77.52,3.66,1.71,4.74,1.59,1.45,4.02,1.5,5.79.47,2.4-1.4,2.94-4.49,2.11-6.62-.15-.39-.84-2.03-2.58-2.74"/>
    <path d="M372.73,315.7s-11.52-6.83-17.09-6.86c-10.04-.05-18.78,6.43-21.29,10.38,0,0,13.67-8.77,19.4-8.61,5.47.15,18.98,5.09,18.98,5.09Z"/>
    <path class="cls-3" d="M410.71,241.49c2.2,8.87,13.73.15,6.84-1.44.42-4.43-5.91-5.65-6.13-10.11-.23.41-.37.74-.37.74,0,0-.65-5.32-2.56-6.45-1.9-1.12-10.28-4.44-10.28-4.44l-2.26,2.06c.05-.14.75-1.96-.6-2.91-1.35-.96-15.57-6.81-24.19-5.47-.29.04-.58.09-.85.16l-3.43,2.2-.12.08s.08-.06.13-.09c.6-.43,1.89-1.49,1.12-2.19-.27-.25-.79-.45-1.67-.57-1.3-.17-3.22-.16-5.3-.04,0-.01,0-.02,0-.03-.2.02-.39.04-.59.07-.2.01-.39.03-.59.04,0,.01,0,.02,0,.03-2.07.26-3.96.59-5.21,1-.85.28-1.32.57-1.54.87-.63.83.82,1.63,1.49,1.95.05.02.1.05.14.06l-.13-.05-3.77-1.54c-.28-.01-.57-.01-.86,0-8.72.25-21.63,8.59-22.79,9.78-1.15,1.17-.13,2.84-.06,2.97l-2.6-1.61s-10.02,5-11.68,6.45c-1.67,1.46-2.19,4.6-2.19,4.6,0,0-3.06,1.45-4.24,1.18-1.17-.26-6.79,3.34-8.9,7.06-1.35,2.39-.6,4.45-1.19,6.49h0c-.34,1.15-.52,1.91-.52,1.91l-5.91,2.59c-4.67,2.8-2.53,12.76-2.53,12.76-8.53,12.68-8.09,22.77-2.78,33.2,2.04,4.02-9.48,9.31-1.85,8.45,7.72-.87,16.31,22.77,16.31,22.77,0,0,5.69-10.03,5.61-14.45-.08-4.42-3.42-17.22-3.42-17.22l3.67-.87s2.18-1.13,4.46-6.35c2.28-5.22-3.53-13.61-3.53-13.61l-1.95-5.21,7.32-.17c6.91-1.85,6.61-9.5,6.61-9.5l-2.38-12.56,4.61,3.87s1.81,1.86,4.23,1.45c10.82-1.82,11.48-8.72,11.48-8.72l.87-6.52,2.93,1.59c3.14,2.13,12.41,5,16.78,2.63,1.15-.62,5.82-4.97,6.58-5.58,2.73-2.4,2.78-6.49,2.7-8-.46-.38-.92-.86-1.36-1.26-1.71-1.55-2.39-.77-.68.78,2.95,2.67,7.86,6.36,11.88,6.17,3.88-.19,12.05-2.56,12.92-4.44.58-1.26-.66-1.3.76-1.37,1.24-.06,2.38.73,3.25,1.56,2.05,1.95,3.57,4.95,6.29,6.04,3.95,1.58,6.04-.7,9.76-1.85.82-.26,2.04.07,2.28,1.06Z"/>
    <path class="cls-1" d="M419.1,233.65s1.86-8.43-3.32-12.71c-5.17-4.28-25.09-21.54-56.39-18.71l59.71,31.42Z"/>
    <g>
      <path class="cls-18" d="M305.6,415.2s22.56,40.67,62.78,36.54c29.49-3.02,26.83-21.53,26.83-21.53v-7.08s10.74,3.5,10.74,3.5c0,0,2.34,6.38-2.47,17.05-4.81,10.67-20.1,20.54-45.93,18.1-15.15-1.43-28.91-7.31-45.34-19.27-16.43-11.95-20.15-20.74-20.15-20.74l13.54-6.58Z"/>
      <path class="cls-15" d="M304.51,415.49c2.18,3.93,4.97,7.59,7.84,11.03,6.31,7.56,13.86,14.21,22.52,18.95,11.09,6.07,23.69,8.33,36.2,6.49,9.25-1.36,19.97-5.08,23.95-14.38,1.74-4.08,1.28-8.43,1.28-12.75,0-.66,0-1.32,0-1.98l-1.96.8c3.11,1.01,6.21,2.03,9.32,3.04.46.15.92.3,1.38.45.05.02-.19-.34-.14-.11.03.15.09.3.12.44.39,1.54.47,3.17.39,4.75-.25,5.4-2.1,11.12-5.3,15.5-2.66,3.65-6.29,6.49-10.26,8.6-11.46,6.08-25.77,6.31-38.25,3.97-14.6-2.74-27.77-10.27-39.56-19.06-5.13-3.83-10.03-8.06-14.19-12.94-1.15-1.35-2.24-2.75-3.22-4.22-.47-.72-.83-1.61-1.35-2.28-.06-.08-.1-.2-.14-.29l-.67.71c4.51-2.19,9.03-4.39,13.54-6.58,1.36-.66.11-1.29-.84-.83-4.51,2.19-9.03,4.39-13.54,6.58-.19.09-.8.38-.67.71.74,1.72,1.92,3.32,3.04,4.8,3.57,4.71,7.95,8.79,12.53,12.5,11.87,9.59,25.63,17.91,40.62,21.41,13.1,3.06,28,3.08,40.55-2.22,4.56-1.92,8.83-4.62,12.24-8.23,3.67-3.89,5.93-8.83,7.05-14.04.52-2.41.76-4.92.52-7.38-.06-.65-.05-2.16-.56-2.68-.24-.25-.86-.33-1.17-.43l-2.59-.85-5.94-1.94-1.18-.38c-.56-.18-1.96.01-1.96.8,0,2.43-.1,4.89.03,7.32.09,1.63-.08,3.24-.5,4.81-2.24,8.47-10.51,12.78-18.48,14.57-12.31,2.76-25.13,1.05-36.4-4.55-8.78-4.37-16.45-10.79-22.9-18.14-2.26-2.57-4.38-5.27-6.34-8.09-.96-1.38-1.84-2.92-2.73-4.24-.04-.06-.08-.13-.11-.2-.39-.7-2.48.03-2.17.58Z"/>
    </g>
    <path class="cls-6" d="M294.78,342.16c-1.1.11-2.36.47-3.01,1.43-.56.82-.51,1.9-.36,2.84.21,1.34.67,2.63,1.07,3.93.29.97.76,2.16.59,3.19-.03.17-.17.38-.19.54l-.05.08c-.2.2-.07.19.39-.03,0,.03-.29-.17-.25-.12-.46-.53-.97-.93-1.37-1.54-1.06-1.61-1.81-3.43-2.48-5.22-.84-2.26-1.35-4.18-1.37-6.57-.03-3.03.53-6.97,3.49-8.54.85-.45-.46-.5-.86-.29-2.75,1.46-3.77,4.43-4.01,7.38-.17,2.08-.08,4.19.54,6.18.7,2.24,1.54,4.48,2.69,6.53.54.97,1.3,2.45,2.44,2.81.85.27,1.94-.16,2.31-.98.42-.92.05-2.11-.2-3.02-.52-1.89-3.13-7.61.38-7.96.64-.06,1.26-.75.24-.65h0Z"/>
    <path class="cls-5" d="M519.24,903.52c1.65-5.1,1.18,14.1,3.26,9.2,4.71-11.08,10.39-21.67,16.72-31.76,6.51-10.37,13.76-20.21,21.7-29.34,5.4-6.2,11.14-12.09,17.23-17.51-97.08-42.72-318.24-51.3-318.24-51.3,0,0-76.45,8.37-51.86,93.66,7.37,25.55,25.39,33.12,57.82,38.29,76.83,12.23,192.62-1.44,250.54-7.61.39-.04,2.43-3.58,2.82-3.62Z"/>
    <path class="cls-5" d="M519.93,923.13c2.24-4.63,4.71-9.14,7.34-13.51,5.94-9.89,12.74-19.15,20.09-27.85,7.56-8.93,15.77-17.25,24.55-24.78,5.97-5.11-12.01-21.4-5.49-25.66,24.47-74.48-350.41-47.32-350.41-47.32,0,0-13.16,5.96-13.16,58.02,0,88.56,237.74,65.32,317.11,69.35.38.02-.4,11.73-.02,11.74Z"/>
    <path class="cls-5" d="M605.64,914.61c-21.17,61.77-67.96,228.39-97.14,303.08,0,0-80.24-3.99-86.28-22.82,0,0-1.74-402.11,47.43-408.87,36.25-4.98,97.93,8.41,116.65,24.11,22.46,18.84,36.01,55.86,19.34,104.5Z"/>
    <path class="cls-5" d="M566.42,873.22s-12.32-2.41-29.91-2.05c3.4-7.53,4.57-13.15,4.57-13.15-1.63-1.91-3.36-3.85-5.17-5.84-10.07,2.4-19.91,5.71-29.46,9.67-11.11,4.6-21.85,10.06-32.1,16.29-9.88,6-19.33,12.78-28.04,20.35-2.47,2.14-4.87,4.36-7.2,6.65.3.09-4.83-.68-4.54-.59-34.02,36.25-33.16,117.17-52.84,190.59-14.44,53.85-26.62,99.59-26.62,99.59,7.81,18.12,103.93,26.14,103.93,26.14,34.6-97.73,107.39-347.65,107.39-347.65Z"/>
    <path class="cls-9" d="M460.12,1220.98c.42-1.26.84-2.53,1.27-3.79,1.19-3.57,2.39-7.15,3.58-10.72,1.85-5.56,3.71-11.12,5.56-16.68,2.4-7.23,4.81-14.45,7.2-21.68,2.84-8.57,5.68-17.14,8.52-25.72,3.16-9.55,6.31-19.11,9.46-28.66,3.39-10.29,6.77-20.58,10.15-30.87,3.5-10.67,6.99-21.34,10.46-32.01,3.49-10.72,6.98-21.45,10.45-32.18,3.38-10.45,6.74-20.9,10.09-31.35,3.15-9.84,6.28-19.68,9.39-29.53,2.83-8.97,5.65-17.94,8.43-26.93,2.39-7.74,4.76-15.49,7.08-23.25,1.85-6.19,3.67-12.38,5.41-18.6,1.21-4.31,2.39-8.62,3.41-12.98,3.05-13.09,3.89-26.96,1.01-40.16-3.05-13.99-10.4-26.96-21.83-35.77-10.22-7.89-22.81-12-35.57-13.14l-22.45-2.01c-9.32-.83-18.64-1.67-27.96-2.5-1.63-.15-3.26-.29-4.89-.44-1.08-.1-2.35,1.46-.81,1.6,5.89.53,11.78,1.05,17.68,1.58,9.84.88,19.68,1.76,29.52,2.64,8.05.72,16.02,1.32,23.79,3.78,14.71,4.66,27.08,14.5,34.26,28.23,7.12,13.62,8.81,29.3,7.03,44.41-.74,6.32-2.13,12.46-3.75,18.59-1.44,5.42-2.99,10.82-4.56,16.21-2.07,7.09-4.21,14.17-6.37,21.24-2.57,8.41-5.18,16.82-7.81,25.21-2.97,9.48-5.97,18.96-8.98,28.43-3.25,10.22-6.53,20.43-9.82,30.64-3.41,10.57-6.83,21.14-10.26,31.7s-6.96,21.39-10.46,32.08c-3.42,10.46-6.85,20.92-10.29,31.38-3.25,9.87-6.5,19.75-9.76,29.62-2.99,9.05-5.98,18.09-8.97,27.14-2.6,7.86-5.21,15.72-7.82,23.58-2.1,6.33-4.21,12.67-6.32,19-1.51,4.54-3.03,9.08-4.54,13.62-.8,2.4-1.6,4.8-2.4,7.2-.1.3-.2.6-.3.89-.41,1.22,1.86,1.15,2.17.23h0Z"/>
    <path class="cls-23" d="M399.29,360.34c-7.29.81-22.77,8.12-25.62,11.98,0,0,9.12,6.23,26.03,4.36,16.91-1.87,18.91-9.34,18.91-9.34,0,0-10.04-8.03-19.32-7Z"/>
    <path class="cls-16" d="M380.11,367.67s8.58-1.83,15.5-2.6,21.41-1.14,21.41-1.14c0,0-5.33-6.26-17.87-4.87-12.55,1.39-19.04,8.61-19.04,8.61Z"/>
    <path class="cls-8" d="M399.39,373.84c-8.07-.52-16.57-3.26-25.72-1.52,0,0,4.05,12.85,23.93,10.65,19.88-2.2,21.01-15.63,21.01-15.63-9.31.31-11.46,4.23-19.22,6.51Z"/>
    <path class="cls-8" d="M407.39,354.48c-4.22.08-6.65,2.34-8.46,2.54-1.81.2-4.68-1.47-8.81-.62-3.87.79-19.1,14.49-17.08,15.83,2.02,1.33,13.88-8.8,26.45-10.2,12.57-1.39,18.04,6.82,19.72,5.08,1.68-1.74-7.86-12.7-11.81-12.63Z"/>
    <path class="cls-23" d="M944.03,264.65c8.56-1.43,28.47,1.58,32.92,4.85,0,0-8.45,9.6-28.29,12.9-19.84,3.3-24.46-4.12-24.46-4.12,0,0,8.93-11.82,19.83-13.63Z"/>
    <path class="cls-16" d="M968.16,266.52s-10.35.73-18.47,2.08-24.75,5.52-24.75,5.52c0,0,4.12-8.43,18.84-10.89,14.73-2.45,24.38,3.28,24.38,3.28Z"/>
    <path class="cls-8" d="M948.12,279.25c9.03-3.1,17.86-8.73,28.83-9.75,0,0-.61,15.14-23.94,19.02-23.33,3.89-28.81-10.24-28.81-10.24,10.7-2.6,14.37.95,23.92.96Z"/>
    <path class="cls-8" d="M932.98,260.89c4.83-1.24,8.3.43,10.43.07,2.13-.35,4.88-3.06,9.85-3.45,4.66-.37,26.28,9.61,24.39,11.69-1.89,2.07-18.55-5.12-33.31-2.66-14.75,2.46-18.42,13.04-20.88,11.69-2.46-1.35,5-16.17,9.52-17.34Z"/>
  </g>
  <g id="Layer_4" data-name="Layer 4">
    <path class="cls-12" d="M614.77,536.17l17.1-12.97s29.6-2.52,41.81-8.95c8.65-4.98,16.57-11.14,23.52-18.31l28.04-14.14s15.45.81,16.06-4c.61-4.81-5.09-6.64-10.63-8.41-5.54-1.77-86.17.74-86.17.74,5.61-6.2,11.73-11.91,18.31-17.06,10.16-7.84,10.79-17.22,3.9-18.58-4.25-.84-21.21,6.96-23.61,14.01s-19.39,9.59-28.54,18.93c-9.14,9.34-9.86,27.15-9.86,27.15-4.21,5.56-11.77,12.06-11.77,12.06,2.06,12.45,21.83,29.52,21.83,29.52Z"/>
    <path class="cls-27" d="M719.93,484.7c.64-.81-.65-2.62-1.14-3.21-1.05-1.29-2.58-2.35-4.21-2.69-3.12-.66-6.46-.47-9.59,0-2.71.4-5.39,1.06-7.98,1.94-.42.14-3.33.86-3.34,1.57,0,.11.02.22.15.26.99.34,2.63-.68,3.49-1.05l-.57-.6c-3.81,1.77-7.43,3.91-10.78,6.45s-6.65,5.25-9.15,8.6c-.39.52,1.06.41,1.35.03,2.35-3.16,5.51-5.74,8.62-8.13,3.26-2.51,6.81-4.63,10.54-6.36.92-.43.08-.87-.57-.6-.49.21-.98.41-1.47.61-.13.05-.67.17-.74.28-.22.32.36.53.48.52.21-.02.49-.21.69-.3,1.98-.81,4.06-1.4,6.15-1.87,3.03-.69,6.18-1.08,9.29-.89,1.8.11,3.51.38,4.99,1.5.68.52,1.32,1.17,1.78,1.9.16.25.97,1.66.69,2.01-.4.5,1.05.4,1.35.03h0Z"/>
    <path class="cls-27" d="M693.73,481.71c-.24-.83-2.1-.67-2.71-.69-1.83-.05-3.66,0-5.49.06-4.05.14-8.09.41-12.11.99-.89.13-4.46.23-4.64,1.57-.1.76,1.38.58,1.47-.1-.08.63-.34.2-.08.25.11.02.36-.1.46-.13.54-.14,1.08-.24,1.63-.33,1.49-.25,3-.42,4.51-.58,1.95-.2,3.91-.36,5.87-.46s3.84-.16,5.77-.19c.89-.01,1.77-.02,2.66.02.33.01.68.09,1.01.08.37,0,.3.21.21-.11.2.69,1.65.3,1.45-.39h0Z"/>
    <path class="cls-27" d="M658.86,496.09c1.25-.18.97-1.34.74-2.25-.46-1.89-1.36-3.68-2.43-5.29-2.57-3.88-6.62-6.97-11.17-8.1-.62-.15-1.28-.29-1.93-.27-.41,0-1.31.11-1.38.65-.08.6,1.39.34,1.45-.17-.15.23-.36.36-.62.39.04,0,.07,0,.11-.01-.08-.05.12,0,.19.01.28.02.55.06.82.12.88.18,1.73.46,2.56.8,2.36.98,4.51,2.45,6.3,4.28s3.09,3.8,4.02,6.05c.3.74.57,1.51.73,2.3.05.25.09.51.11.76.04.57-.26.03.7-.1-.24.03-.8.19-.82.51s.39.37.63.33h0Z"/>
    <path class="cls-27" d="M604.08,494.97c2.95,5.25,7.44,9.56,12.79,12.33.44.23,1.76-.4,1.15-.72-5.29-2.73-9.68-7-12.59-12.18-.24-.43-1.65.03-1.34.58h0Z"/>
    <path class="cls-18" d="M265.62,607.39c-8.08-4.68-42.74-3.59-52.07-3.31-18.51.56-15.15-1.11-25.23-4.34,2.22-45.36,12.3-94.92,20.39-119.22,14.1-35.51,59.68-43.54,59.68-43.54l5.57,123.5v57.25c-5.59-2.82-2.92-7.19-8.34-10.34Z"/>
    <g>
      <path class="cls-18" d="M253.87,467.32c11.34,2.81,17.16,15.31,19.94,26.66,10.5,42.85-4.61,78.36-15,121.23"/>
      <path class="cls-15" d="M253.21,467.92c8.41,2.16,13.61,9.83,16.69,17.46,3.8,9.42,5.42,19.91,6.1,30,1.44,21.43-3.07,42.55-8.51,63.15-3.24,12.28-6.76,24.48-9.76,36.82-.2.81,1.99.49,2.18-.27,5.31-21.87,12.49-43.35,16.23-65.58,1.78-10.57,2.68-21.3,2.19-32.02-.47-10.47-2.01-21.32-5.67-31.19-3.19-8.59-8.73-17.16-18.12-19.57-.71-.18-2.56.88-1.33,1.2h0Z"/>
    </g>
    <path class="cls-12" d="M361.88,391.29c.35,6.77-9.78,22.45-9.78,22.45,0,0,3.11,42.89,1.3,51.62-.45,2.16-10.58,8.49-13.25,14.31-8.15,17.75-11.45,36.49-11.45,36.49l-33.73-28.75,10.06-20.48-2.78-43.94,1.88-41.82,25.06-25.72c.22.12.42.25.61.41,1.74,1.41,2.01,3.96.6,5.7l9.78-8.83c7.31,5.11-2.58,19.83-2.58,19.83l11.79-12.47c6.36,5.96-.6,16.45-.6,16.45l-11.87,19.01s-.5,13.02.56,17.32,1.78,8.84,1.78,8.84l2.76-14.46,16.3-25.39s3.22,2.67,3.57,9.43Z"/>
    <path class="cls-19" d="M308.07,376.5c6.46-6.08,12.92-12.16,19.38-18.23.93-.87,1.85-1.74,2.78-2.61l-1.16.21c1.94,1.18,2.56,3.65,1.17,5.52-.57.77.79.74,1.2.38,3.26-2.94,6.52-5.89,9.78-8.83l-1.16.21c3.79,2.75,2.56,8.13,1.15,11.85-1,2.62-2.29,5.19-3.85,7.52-.44.65.99.57,1.29.25,3.93-4.16,7.86-8.31,11.79-12.47l-1.27.12c6.7,6.53-.63,16.1-4.42,22.17l-7.22,11.57c-.38.62-.85,1.13-.9,1.86-.15,2.16-.11,4.36-.1,6.53,0,3.13,0,6.33.47,9.42.51,3.34,1.46,6.62,2,9.97.1.64,1.36.23,1.46-.26.58-3.05,1.16-6.11,1.75-9.16l.91-4.8c.04-.2.16-.58.08-.41.1-.22.27-.42.4-.62,3.93-6.12,7.86-12.24,11.79-18.37,1.36-2.12,2.72-4.25,4.09-6.37l-1.25.34c-.15-.13.15.14.2.21.23.32.52.6.75.92.79,1.12,1.34,2.38,1.73,3.69.9,3.03.87,5.87-.05,8.86-1.65,5.35-4.52,10.39-7.38,15.18-.47.78-1.52,1.9-1.61,2.82s.25,1.99.35,2.86c.61,5.15,1.13,10.32,1.51,15.5.24,3.37.43,6.75.45,10.13.02,2.55,0,5.17-.51,7.68-.14.67,1.34.48,1.46-.13,1.01-5.03.52-10.48.21-15.57-.34-5.6-.89-11.19-1.53-16.76-.15-1.3-.24-2.63-.48-3.92-.02-.12.02-.27-.04-.06-.08.29.12-.11.17-.16.44-.51.75-1.21,1.1-1.78,2.91-4.8,5.73-9.83,7.52-15.17,1.1-3.28,1.29-6.34.33-9.71-.55-1.91-1.49-4.07-3.05-5.39-.36-.3-1.04,0-1.25.34-3.38,5.27-6.76,10.54-10.15,15.81-1.81,2.82-3.62,5.65-5.44,8.47-.26.41-.61.82-.77,1.28-.38,1.11-.46,2.42-.68,3.57-.69,3.62-1.38,7.24-2.07,10.86l1.46-.26c-.5-3.12-1.26-6.18-1.88-9.28-.53-2.69-.53-5.51-.56-8.25-.03-2.52,0-5.03.08-7.55,0-.25,0-.5.02-.75.02-.2.02-.21-.02-.11.13-.34.43-.69.62-1,3.82-6.12,7.73-12.19,11.46-18.36,2.93-4.85,4.95-11.97.34-16.46-.34-.33-.96-.2-1.27.12-3.93,4.16-7.86,8.31-11.79,12.47l1.29.25c1.75-2.61,3.19-5.52,4.2-8.49,1.35-3.94,2.09-9.02-1.75-11.81-.35-.25-.89-.04-1.16.21-3.26,2.94-6.52,5.89-9.78,8.83l1.2.38c1.67-2.26,1.19-5.22-1.25-6.7-.37-.22-.87-.06-1.16.21-6.46,6.08-12.92,12.16-19.38,18.23-.93.87-1.85,1.74-2.78,2.61-.65.61.76.79,1.2.38h0Z"/>
    <path class="cls-19" d="M321.92,408.6c-.05-4.46-.02-10.58.14-17.34l.04-1.87v-.29s.19-.23.19-.23c4.11-4.83,7.87-9.12,10.62-12.09,2.75-2.97,4.51-4.8,4.68-4.64-1.06,1.94-2.34,3.74-3.82,5.37-2.46,3.2-6.11,7.6-10.21,12.45l.19-.52c-.08.6-.06,1.23-.04,1.85-.15,6.78-.36,12.91-.62,17.34-.26,4.44-.53,7.16-.75,7.17-.23,0-.38-2.74-.42-7.2Z"/>
    <path class="cls-19" d="M311.69,396.42c-.07-4.07-.06-9.75.05-16.1v-.32s.22-.23.22-.23l1.39-1.46c4.72-4.92,9.05-9.31,12.25-12.43,3.2-3.13,5.27-4.97,5.43-4.81s-1.58,2.3-4.57,5.64c-2.98,3.33-7.24,7.78-11.91,12.76l-1.4,1.46.24-.57c-.15,6.44-.35,12.04-.59,16.12.03,2.21-.2,4.41-.69,6.56-.23,0-.35-2.53-.42-6.6Z"/>
    <path class="cls-12" d="M196.72,603.62l36.76.3,31.32-62.87,40.24-74.13c2.03,1.48-1,1.72,1.37,2.54,11.53,4,21.7,10.26,33.75,10.21-11.28,46.48-33,136.97-44.25,160.36-31.09,64.62-58.56,65.3-85.75,28.65-14.83-19.99-13.43-65.06-13.43-65.06Z"/>
    <path class="cls-12" d="M468.06,556.63l43.14,29.43,91.1-89.35c3.54,10.53,18.25,16.14,29.57,25.49,0,0-71.7,121.78-82.24,134.03-37.3,43.32-70.76,18.6-88.98,2.45-10.49-9.3-23.73-75.4-21.32-88.49.55-2.99,29.35-13.56,28.73-13.56Z"/>
    <path class="cls-18" d="M462.87,672.53c-8.77-9.84-20.92-21.66-27.33-33.19-8.06-14.51.49-59.28-4.15-75.19-4.74-16.23-7.97-32.89-10.17-49.64-2.22-16.88-3.44-33.88-4.11-50.88-.55-14.11-4.62-20.83-4.65-34.95,13.35,6.12,35.58,8.24,47.49,19.4,14.68,13.75,15.47,15.3,28,42.19,6.3,13.53,7.32,13.69,14.88,39.7,1.03,3.55,17.34,48.08,16.86,48.58-7.55,7.73-23.08,25.11-23.23,32.02-.07,3.04-16.87,10.6-19.65,9.48-4.76,4.57-10.32,11.9-12.42,21.02-2.9,12.62-1.36,27.39-1.5,31.48Z"/>
    <path class="cls-27" d="M495.76,610.51c-1.75,2.81-3.25,5.81-4.6,8.83-2.47,5.52-4.58,11.5-4.77,17.6-.1,3.15.39,6.29,1.94,9.07.25.45,1.66-.02,1.34-.59-2.91-5.21-1.92-11.74-.38-17.22,1.44-5.12,3.62-10.03,6.16-14.7.54-.99,1.08-1.97,1.68-2.93.38-.6-1.08-.51-1.36-.07h0Z"/>
    <g>
      <path class="cls-18" d="M475.02,497.78s-4.49,8.44-4.4,20.29c.09,11.85,30.79,87.28-6.24,122.98l-.86,25.33"/>
      <path class="cls-15" d="M474,497.73c-2.82,5.34-4.12,11.79-4.42,17.76-.18,3.62.45,6.89,1.29,10.39,2.58,10.79,5.49,21.48,7.5,32.4,2.58,14.02,4.09,28.44,2.62,42.67-1.45,14.14-6.17,28.2-16.22,38.59-.58.6-1.37,1.09-1.51,1.91-.1.6-.04,1.27-.06,1.88-.08,2.44-.17,4.87-.25,7.31-.17,4.96-.34,9.93-.51,14.89-.01.32-.02.65-.03.97-.03.97,2.15.56,2.18-.24.13-3.85.26-7.7.39-11.55.1-2.83.19-5.66.29-8.5.05-1.6-.13-3.43.17-5,.02-.08-.02-.2,0-.28-.09.21.67-.53.77-.63.35-.36.7-.72,1.04-1.09,1.2-1.29,2.34-2.64,3.4-4.04,2.1-2.76,3.93-5.72,5.48-8.82,3.13-6.29,5.13-13.09,6.27-20.01,2.33-14.11,1.35-28.65-.87-42.71-1.85-11.74-4.74-23.26-7.64-34.78-.82-3.25-1.77-6.56-2.14-9.9s.15-7.04.79-10.39,1.53-6.41,2.84-9.41c.19-.44.39-.89.62-1.32.51-.97-1.67-.8-2.04-.11h0Z"/>
    </g>
    <path class="cls-19" d="M230.92,603.96c-7.29,13.68-12.26,28.53-14.69,43.84-.12.77,1.36.61,1.47-.09,2.42-15.21,7.37-29.95,14.61-43.54.4-.74-1.07-.81-1.4-.2h0Z"/>
  </g>
</svg>