<?xml version="1.0" encoding="UTF-8"?>
<svg id="Layer_1" xmlns="http://www.w3.org/2000/svg" xmlns:xlink="http://www.w3.org/1999/xlink" version="1.1" viewBox="0 0 1334 1000">
  <!-- Generator: Adobe Illustrator 29.6.1, SVG Export Plug-In . SVG Version: 2.1.1 Build 9)  -->
  <defs>
    <style>
      .st0, .st1 {
        fill: none;
      }

      .st2 {
        stroke: #000;
        stroke-width: .1px;
      }

      .st2, .st1 {
        stroke-miterlimit: 10;
      }

      .st3 {
        fill: #4f2f26;
      }

      .st1 {
        stroke: #010101;
        stroke-width: 1px;
      }

      .st4 {
        fill: #010101;
      }

      .st5 {
        fill: #18536d;
      }

      .st6 {
        fill: #5c483b;
      }

      .st7 {
        fill: #282663;
      }

      .st8 {
        fill: #ce8d2a;
      }

      .st9 {
        fill: #653c29;
      }

      .st10 {
        fill: #de9f58;
      }

      .st11 {
        fill: #002935;
      }

      .st12 {
        fill: #dfa058;
      }

      .st13 {
        fill: #7d652a;
      }

      .st14 {
        fill: #745245;
      }

      .st15 {
        fill: #a66e53;
      }

      .st16 {
        fill: #fff;
      }

      .st17 {
        fill: #0d0b09;
      }

      .st18 {
        fill: #4a7abd;
      }

      .st19 {
        fill: #2d2465;
      }

      .st20 {
        fill: #022830;
      }

      .st21 {
        fill: #f2ebd1;
      }

      .st22 {
        fill: url(#linear-gradient);
        isolation: isolate;
        opacity: .5;
      }

      .st23 {
        fill: #5d3d98;
      }

      .st24 {
        fill: #24180f;
      }

      .st25 {
        fill: #4f2e25;
      }
    </style>
    <linearGradient id="linear-gradient" x1="-7052.5" y1="-8347.3" x2="-6241" y2="-8347.3" gradientTransform="translate(-7694.1 6971) rotate(90)" gradientUnits="userSpaceOnUse">
      <stop offset="0" stop-color="#f0ebe0"/>
      <stop offset=".2" stop-color="#eee8dd" stop-opacity="1"/>
      <stop offset=".3" stop-color="#e8e1d4" stop-opacity="1"/>
      <stop offset=".5" stop-color="#ded4c5" stop-opacity=".9"/>
      <stop offset=".6" stop-color="#d0c2b0" stop-opacity=".9"/>
      <stop offset=".7" stop-color="#bdab95" stop-opacity=".8"/>
      <stop offset=".8" stop-color="#a78e73" stop-opacity=".7"/>
      <stop offset="1" stop-color="#8d6d4d" stop-opacity=".6"/>
      <stop offset="1" stop-color="#83603d" stop-opacity=".6"/>
    </linearGradient>
  </defs>
  <g id="Layer_3">
    <path class="st15" d="M841.2,620.2c1.9-13.1,2.4-43,3.2-75.3,4.3,1.5,0,2.7,4.6,3.4,15.4,2.3,31.2.3,46.7-.2-1,6.7-2.4,12.7-4.1,17.9-16,47.4-21.4,258.6-21.4,258.6l-33.9-2.8,3.4-97.1c0-24.8-4.1-69.7,1.4-104.5h0Z"/>
    <polyline class="st21" points="1380.6 940.3 1380.6 -88.4 -14.2 -88.4 -14.2 940.3"/>
    <polyline class="st22" points="1350.6 727.3 -44.2 727.3 -44.2 -84.1 1350.6 -84.1"/>
    <path class="st6" d="M1513,921.9l-1.7-.6-2.9-116.2c-4.3-87.7-28-151.3-78.5-156.2-34.3,0-150.5-1.6-162.1,7.3-3.2-152.3,13.3-273.8-235.5-273.8l-274.3.7c-2.9,67.2-10.9,134.2-20.8,200.8-12.4,83.5,11.9,166.5-.8,249.9-6.4,41.9,48.8,84.2,43.4,126.2-5.5,42.9-11.1,85.7-16.5,128.6-8.2,65.2-16.2,130.5-23,195.9h783v-135.9c19.5-6.4,33-27.4,33.2-51.6v-96.9c0-37.1-15.8-61.4-43.6-78.1h0Z"/>
    <path class="st6" d="M765,1282.9c.8-19.1,1.5-38.2,2.1-57.3,1.3-43.9,46.4-87.8,46.4-131.8l-10.2-711.3-590.2-1.7c-127.8,0-149.1,121.5-152.3,273.8-11.6-8.9-127.7-7.3-162.1-7.3-50.4,4.9-74.2,68.6-78.5,156.2l-2.9,116.2-1.6.6c-27.8,16.7-43.6,41-43.6,78.1v96.9c.1,24.1,13.6,45.2,33.2,51.6v135.9h959.7Z"/>
    <path class="st18" d="M880.8,505.1l-217.3,53.8c-2.9.7-5.7,1.5-8.4,2.5-11,3.9-6.3,2.3-6.8,2.3-1.6,0-5.2,1.4-6.8,1.5l-3.7.8v-.3c-15.9,2.3,17.7-11.9,3.6-4.5-17.2,9-33.3,20-47.8,33-6.7,6-13,12.4-18.7,19.3-1,1.2-1.9,2.4-2.9,3.7,10.8,31,34.5,65.4,97.9,49,21.7-5.6,220.6-92.6,220.6-92.6-5.5-19.6-14-53.5-9.7-68.3h0Z"/>
    <path class="st18" d="M643.9,598.5c-20.8,8.6-9.9,5.3-29.2,16.7,14.5,20.5-30.7,13.6-30.8,13.4-34.9-66.6-37-286.5-37-286.5,6.8,1.5,55.4,15.5,76.8,63.7,12.2,27.4,34.1,128.7,46.8,186.5-5.6,1.8-21.2,3.9-26.6,6.2h0Z"/>
  </g>
  <g id="Layer_11" data-name="Layer_1">
    <path class="st15" d="M843.5,673c2.1-14.5-2.3-86.7-1.5-122.4,4.7,1.6,0,3,5.1,3.7,17.1,2.5,34.5.4,51.8-.2-1.2,7.4-2.6,14.1-4.6,19.8-17.7,52.5-23.7,286.4-23.7,286.4l-37.5-3.1,3.8-107.6c0-27.4.5-38.2,6.6-76.6h0Z"/>
  </g>
  <g id="Layer_2">
    <path class="st17" d="M-175.1,922.4h17.7c2.5,0,5,0,7.6,0s5.9,0,8.8,0c3.4,0,6.7,0,10.1,0,3.7,0,7.5,0,11.2,0,4.1,0,8.3,0,12.4,0,4.5,0,9,0,13.5,0h14.6s15.6,0,15.6,0c5.5,0,11.1,0,16.7,0h17.5c6.2,0,12.4,0,18.6,0,6.5,0,12.9,0,19.4,0h20.2c7.1,0,14.1,0,21.1,0,7.3,0,14.6,0,21.9,0,7.5,0,15.1,0,22.6,0,7.8,0,15.6,0,23.3,0h24.1c8.2,0,16.4,0,24.6,0h25.4c8.6,0,17.2,0,25.8,0,8.8,0,17.6,0,26.5,0,9,0,17.9,0,26.9,0,9.1,0,18.3,0,27.5,0,9.2,0,18.5,0,27.8,0h28.3c9.5,0,19,0,28.5,0,9.6,0,19.2,0,28.8,0,9.8,0,19.5,0,29.2,0,9.8,0,19.7,0,29.5,0h29.6c9.9,0,19.8,0,29.8,0,10,0,20,0,30,0,10,0,20,0,30,0h30.2c10,0,20.1,0,30.1,0s20.2,0,30.2,0c10,0,20,0,30.1,0,10,0,20.1,0,30.1,0,10,0,19.9,0,29.9,0,10,0,19.9,0,29.9,0,9.9,0,19.7,0,29.6,0,9.8,0,19.6,0,29.3,0,9.7,0,19.5,0,29.2,0,9.6,0,19.3,0,28.9,0s19,0,28.5,0c9.4,0,18.8,0,28.1,0,9.3,0,18.6,0,27.8,0,9.1,0,18.2,0,27.3,0h26.9c8.8,0,17.6,0,26.3,0h25.9c8.4,0,16.8,0,25.2,0h24.7c8,0,16,0,23.9,0,7.8,0,15.6,0,23.4,0s15,0,22.6,0c7.3,0,14.5,0,21.8,0,7,0,14.1,0,21.1,0,6.8,0,13.5,0,20.3,0h19.3c6.1,0,12.3,0,18.4,0,5.8,0,11.7,0,17.6,0,5.5,0,11,0,16.5,0,5.2,0,10.4,0,15.6,0h14.5c4.5,0,9,0,13.4,0s8.2,0,12.3,0h11.1s10,0,10,0c2.9,0,5.8,0,8.7,0,2.5,0,5,0,7.4,0,2.1,0,4.1,0,6.2,0h4.8c1.2,0,2.3,0,3.5,0h2.7c.3,0,1.6-.5.9-.5h-11.4c-2.1,0-4.2,0-6.3,0h-7.6c-2.9,0-5.9,0-8.8,0-3.3,0-6.7,0-10.1,0-3.7,0-7.5,0-11.2,0-4.1,0-8.3,0-12.4,0-4.5,0-9,0-13.5,0s-9.7,0-14.6,0h-15.6c-5.6,0-11.1,0-16.7,0-5.8,0-11.7,0-17.6,0-6.2,0-12.4,0-18.6,0-6.5,0-12.9,0-19.4,0h-20.2c-7.1,0-14.1,0-21.2,0-7.3,0-14.6,0-21.9,0h-22.6c-7.8,0-15.6,0-23.3,0-8,0-16.1,0-24.1,0-8.2,0-16.4,0-24.7,0h-25.4c-8.6,0-17.2,0-25.8,0-8.8,0-17.7,0-26.5,0h-26.9c-9.2,0-18.3,0-27.5,0-9.2,0-18.5,0-27.8,0-9.4,0-18.8,0-28.3,0h-28.5c-9.6,0-19.2,0-28.8,0-9.8,0-19.5,0-29.2,0-9.8,0-19.7,0-29.5,0-9.9,0-19.7,0-29.6,0h-29.8c-10,0-20,0-30,0-10,0-20,0-30,0h-30.2s-30.1,0-30.1,0c-10.1,0-20.2,0-30.2,0-10,0-20,0-30.1,0-10,0-20.1,0-30.1,0-10,0-19.9,0-29.9,0-10,0-19.9,0-29.9,0-9.9,0-19.7,0-29.6,0-9.8,0-19.6,0-29.4,0h-29.2c-9.6,0-19.3,0-28.9,0-9.5,0-19,0-28.5,0-9.4,0-18.8,0-28.1,0-9.3,0-18.6,0-27.9,0h-27.3c-9,0-18,0-26.9,0-8.8,0-17.6,0-26.3,0s-17.3,0-25.9,0c-8.4,0-16.8,0-25.2,0-8.2,0-16.5,0-24.7,0-8,0-16,0-23.9,0-7.8,0-15.6,0-23.4,0-7.5,0-15,0-22.6,0-7.3,0-14.5,0-21.8,0-7,0-14.1,0-21.1,0-6.8,0-13.5,0-20.3,0H-11.5c-6.1,0-12.3,0-18.4,0-5.8,0-11.7,0-17.5,0-5.5,0-11,0-16.5,0-5.2,0-10.4,0-15.6,0h-14.5c-4.5,0-9,0-13.4,0s-8.2,0-12.3,0h-11.1c-3.3,0-6.6,0-10,0-2.9,0-5.8,0-8.7,0-2.5,0-5,0-7.4,0-2.1,0-4.1,0-6.2,0h-4.9c-1.1,0-2.3,0-3.5,0h-2.7c-.3,0-1.6.5-.9.5h0Z"/>
    <path class="st17" d="M1261.9,661.5c-11.1,14.7-21.4,30.3-28.9,47.1-4,8.8-6.6,18-8.1,27.5-1.7,10.6-2.1,21.3-2.6,32-.6,14.4-.9,28.9-1.3,43.3-.4,17-.8,33.9-1.1,50.9-.3,15-.6,30-.9,45,0,1.5,0,3,0,4.5,0,.7,1.4.5,1.5-.1.3-14.4.6-28.7.9-43.1.3-16.9.7-33.8,1.1-50.7.3-14.9.7-29.9,1.3-44.8.7-19.5,1.1-39.7,8.2-58.2,3.3-8.5,7.5-16.6,12.2-24.5,4.8-8.1,10-16,15.5-23.6,1.2-1.7,2.5-3.4,3.7-5,.6-.7-.8-.9-1.2-.4h0Z"/>
    <path class="st17" d="M1323.6,661.7c-11,14.7-21.3,30.3-28.9,47.1-4,8.9-6.7,18.2-8.2,27.9-1.6,10.5-2.1,21-2.5,31.6-.6,14.4-.9,28.9-1.3,43.3-.4,17-.8,33.9-1.1,50.9-.3,15-.6,30-.9,45,0,1.5,0,3,0,4.5,0,.3,1.4.1,1.4-.4.3-14.4.6-28.7.9-43.1.3-16.9.7-33.8,1.1-50.7.3-14.9.7-29.9,1.3-44.8.7-19.5,1.2-39.7,8.2-58.2,3.3-8.6,7.6-16.8,12.3-24.7,4.7-8,9.9-15.8,15.3-23.3,1.2-1.7,2.5-3.4,3.7-5,.3-.5-1.1-.3-1.3,0h0Z"/>
    <path class="st17" d="M63.6,664.3c11.1,14.7,21.4,30.4,29,47.3,4,8.9,6.6,18.3,8.1,28,1.6,10.4,2,20.9,2.4,31.5.6,14.4.9,28.9,1.3,43.3.4,16.9.8,33.8,1.1,50.7.3,14.9.6,29.7.9,44.6,0,1.5,0,3,0,4.5,0,.7,1.5.4,1.5-.2-.3-14.5-.6-29-.9-43.5-.3-17-.7-33.9-1.1-50.9-.3-15-.7-30-1.3-45-.7-19.5-1.2-39.6-8.4-58.1-3.3-8.5-7.6-16.7-12.3-24.6-4.7-8-9.9-15.8-15.3-23.3-1.2-1.7-2.5-3.4-3.7-5-.3-.5-1.7,0-1.3.6h0Z"/>
    <path class="st17" d="M1.8,664.3c11.1,14.7,21.4,30.4,29,47.3,4,8.9,6.6,18.3,8.1,28,1.6,10.4,2,20.9,2.4,31.5.6,14.4.9,28.9,1.3,43.3.4,16.9.8,33.8,1.1,50.7.3,14.9.6,29.7.9,44.6,0,1.5,0,3,0,4.5,0,.7,1.5.4,1.5-.2-.3-14.5-.6-29-.9-43.5-.3-17-.7-33.9-1.1-50.9-.3-14.9-.7-29.9-1.3-44.8-.7-19.6-1.2-39.7-8.4-58.2-3.3-8.5-7.6-16.7-12.3-24.6-4.7-8-9.9-15.8-15.3-23.3-1.2-1.7-2.5-3.4-3.7-5-.3-.5-1.7,0-1.3.6h0Z"/>
    <path class="st14" d="M612.5,513.9c0,0-.2,0-.3,0,0,0,.2,0,.3-.2,0,0,0,.1,0,.2h0Z"/>
    <path class="st14" d="M611.5,513.9c-.1,0-.3,0-.4,0,.1-.1.3-.2.4,0Z"/>
    <path class="st10" d="M868.1,799.5s-2.6-5.7-4.7,11.4c0,0,69.4,19.6,159.5,7.5s101.6-19.2,101.6-19.2l-26-89.1-1.6-70.8-221.7,45.8"/>
    <path class="st18" d="M570.9,624.4c4.4-.5,8.2-2.5,10.7-6.2,2.5-3.7,3.8-8.1,5.3-12.2,1.8-5.1,3.9-10.2,7.1-14.7,4.2-5.7,9.5-10.3,14.8-14.9,5.4-4.5,10.9-9,15.7-14.2,1.4-1.5,2.8-3.1,4.1-4.8,4.7-51.1,9.6-106.5,4.3-126-9.6-35.5-36.6-66.4-60.3-74.8,0,0-9.4,181.5-2.1,267.8.2,0,.3,0,.5,0h0Z"/>
    <path class="st20" d="M312,673.4s-77.8,120.3-30.1,210.7c22.7,43,93.8,37,93.8,37l66.8-81.8v-145.2l-130.5-20.7h0Z"/>
    <path class="st18" d="M584.2,612c1.6-9.4-.3-19.6,2.3-28.8,5.1-17.7,23.6-27.2,39-34.6,3.7-1.8-6.4-3.2-2.6-4.7,0-13.5,8.1-29.3,8.2-42.8.2-21.7,4.5-41.5,2.8-63.1-1.7-20.5-10.8-44.7-26.7-59.2-6.7-6.1-8.9-10.2-16.7-14.5l-23.3-13.8c-.9-.3-14.1-7.3-15-7.5-2-.4-3.3-.4-4.2-1.6l-9.8-3.8-62.2-33.3-44.1,14.8s-61.3,14.7-73.8,23c-15.4,10.1-12.3,214.5-12.3,214.5,0,0-7.1,79.8-60.8,158-.4.5-1.9,4.2-2.1,4.8-.7,1.8,10.7,10.6,12.2,11.7,4.6,3.3,12.7,4.6,17.9,6.8,10.8,4.5,20,4.1,31.4,6.4,15.5,3.1,31.1,5.8,46.8,7.3,14.7,1.4,30.1-.5,44.5,1.7l163.8,1.1-12.5-74.6c-1.4-8.6-3.8-16.9-4.9-25.6-1.1-9,.3-18.1.4-27.2,0-4.5,1.2-8.9,1.5-13.3,0-.5.1-1.1.2-1.6h0Z"/>
    <path class="st20" d="M758.5,835.1c-3.5,105.7-4.1,286.3-20.9,394.3,0,0-81.4,40.4-93.5,16.8,0,0-29.3-220.7-69.3-350.3-35.3-114.1-249.4-122.8-222.2-133.2,42.8-16.3,307.4-38.5,360.4-19.4,35.2,12.7,47.8,21.8,45.5,91.9h0Z"/>
    <path class="st20" d="M726.1,750.2c-3.8-3.2-7.8-2.3-12.1-5-140-11.8-357.6,3.8-357.6,3.8,0,0-101.1,23.9-71.6,112.5,39,117.4,329.5,45.1,429.1,8.6.5-.2.9,3.6,1.4,3.5.6-6.8,1.5-13.6,2.7-20.3,2.7-15.1,6.7-30,11.6-44.4,5-14.7,11.2-22,18.3-35.6-6.5-8.4-13.7-16.3-21.7-23.2h0Z"/>
    <path class="st20" d="M696,803.1c-17-.4-34-1.3-51-2.4-16.9-1.1-33.8-2.5-50.7-4.1-5,6.2-9.8,12.7-14.3,19.4-2.3,3.5-35.7,7.1-37.8,10.8.4,0,0,21,.4,21.1-30.2,57.1,17.3,141.6,14.3,243.1-2.6,89.2-2.8,101.9-7.6,149.3,14.3,21.4,125,11.4,125,11.4,10.5-104.7,28.7-341.1,36.7-448.4-5,0-10-.1-15-.3h0Z"/>
    <line class="st0" x1="541.2" y1="516" x2="541" y2="517.8"/>
    <path class="st7" d="M620.6,437.1c-2,2.4-3.6,5.2-4.8,8-2.5,5.5-3.8,11.5-3.5,17.6.3,4.4,1.1,8.7,1.9,13,1.1,6.1,2.2,12.1,3.2,18.2,2.3,14.7,3.7,29.7,2,44.5-.8,7.7-2.5,15.2-5.1,22.5-1.9,5.4-4.3,10.6-7.7,15.3-2.2,3.2-4.9,6-7.8,8.6-2.1,1.8-4.4,3.5-6.4,5.5-1.9,1.9-3,4.1-4,6.6-1.7,4.8-3,9.7-4.2,14.7-3.1,13.4-4.9,27.5-3.2,41.2.6,4.8,1.7,9.6,2.6,14.4,1,5.2,1.9,10.4,2.8,15.6,1.9,10.8,3.8,21.6,5.6,32.4,1.1,6.7,2.3,13.3,3.4,20,0,.3.1.7.2,1,0,.6,1.5.2,1.5-.4-.8-4.7-1.6-9.3-2.4-14-1.8-10.3-3.5-20.6-5.3-30.9-1.8-10.1-3.6-20.3-5.5-30.4-1.2-6.1-2-12.1-2-18.3s.7-14.2,1.9-21.1c1-6,2.3-11.9,4-17.8.6-2.2,1.3-4.4,2.1-6.5.5-1.3.9-2.6,1.7-3.7,1.4-2.1,3.4-3.8,5.3-5.3,2.5-2.1,5.1-4.3,7.3-6.7,7.7-8.5,11.8-19.5,14.5-30.5,3.5-14.6,3.3-29.9,1.7-44.8-1.3-12.3-4-24.3-5.9-36.5-.8-4.8-1.2-9.6-.4-14.4.9-5.4,3-10.6,6.1-15.2.5-.7,1-1.4,1.5-2.1.6-.7-.8-.8-1.2-.4h0Z"/>
    <path class="st15" d="M444.7,235.7s10,45.8-3.7,75.7c-1.9,4.2-29.7,12.4-29.7,12.4l37.1,17.7c17.3,5.1,46.7,10.8,71.6,8.6,10.9-1,25.8.9,34.1-6.2h0s-19-8.8-19.8-14.1c-.8-5.4,5.5-50,5.5-50"/>
    <path class="st25" d="M534.8,318.5s-12.5-6.4-18.8-8.4c-6.3-2-17.3-2-45.9-28.7,0,0,7.5,31.8,44.9,39.9,0,0,13,3,19.4,1.7l.3-4.5h0Z"/>
    <path class="st15" d="M571.6,126.8c.1.1.3.2.4.3-.1-.2-.3-.5-.3-.7v.3s0,0,0,0ZM587.3,132c.2.2.4.5.7.7v-.3s-.6-.8-.7-.4h0ZM466.3,280.5c13.2,17.2,35,34,58.6,38.1,23.6,4,26.6-6.9,32.7-12.2,10.2-8.8,14.1-10.5,21.8-19.5,7.5-8.7,13-19.6,15.6-30.9,2.8-12.3.6-24.6,3-36.8,1.1-5.6,6.2-27.4,8.3-40.4s-8.8-34.8-8.8-34.8c-.3-3.6-1.9-6.3-3.5-9.4l-1.5-.2s.7.4.6,1.5c-1.9-.5-3.7-1.8-5-3.2h0c-2.4.8-4.6-.5-6.3-2.5,0,.4.2,1.1.6,1.1-2.3,0-4.5-1.3-5.9-2.9,0,.4.2,1.1.2,1.4-1.7-.5-3.3-1.7-4.7-2.8.3.5,9.1.2,9.1.5-2.3,0,.2,1.2-1.5-.8l-1.7-1.6c-2,.1-2,1.3-3.4-.3.3.4-.6-4-.6-3.7-2.3-.3-1.7-.4-3.4-1.7,0,.3-6.5,1.5-6.6,1.8-1.9-.2-1.6,1.6-3,0,.3.4,1.6-1.3,1.9-.9-2.3,0-3.4,1.4-5.1-.6.3.4-7.1-4.8-7.1-4.8-2.3,0-2,.8-3.8-.8.7.8-10.5-2-10.2-1.2-1.9-.2,2.8,7.5,1.4,6.2,0,.3-4.3-1.6-4.3-1.6-2,.1.7,2.2-.7.6,0,.3.2,1.4.6,1.5-2.4.8-5-.3-7.1-2,.7.8,1,1.6,1.3,1.9-1.9-.2-3.5,0-5.2-1.7,0,.3.6,1.5,1,1.6-2,.5-4.2-.2-6-1.5,0,.3.6,1.2,1,1.6-1.6.2-3.1,0-4.5-1.3l1,1.6c-1.5-.2-2.8.4-5-.6,0,.3.7.8.6,1.2-1.1-.1-2.7-.3-3.8-.8,0,.3,1,1.2.6,1.2-1.5-.2-2.8.4-4.6-.6.3.4.6,1.2,1,1.6-1.5-.2-3.1,0-4.5-.9,0,.3.2,1.1.6,1.5-1.5-.2-2.8.4-4.6-.6,0,.3.6,1.2,1,1.6-1.5-.2-3.1,0-4.6-.6,0,.3.7.8,1,1.2-1.5-.2-3.1,0-4.9-1,0,.7.2,1.1.2,1.4-1.1-.1-1.9-.6-3-.7l-2,.5c-6.2,6.3-8.8,29.9-8.8,29.9-13.1,8-20.1,26.7-20.5,33.4-.5,6.7-4.2,20.9-4.2,20.9-1.6-2.7-5.1-8.5-5.9-11.4-.8-2.6.3-5.7-.5-8.3-2.7-6.1-10.6-5.3-15.3-2.3l-.9,1.1c-6.9,7.2-3.5,32.7-.1,40.6-.6,15.1,11.6,24.6,20.3,14.7l1.4,6.1"/>
    <path class="st8" d="M441.3,237.1c-4.4,0-9.1,2.6-10,7.2-.4,2.1.1,4.1,1.3,5.8.8,1.2,1.9,1.9,3.1,2.4,2.9,1.3,6.1.9,8.9-.5.4-.2.9-.7.3-.9s-1.6,0-2.1.3c-2.3,1.2-5.6,0-7.2-1.9-2.1-2.7-2-6.6.3-9.1.5-.6,1.2-1.1,1.8-1.4.4-.2.6-.2,1-.3s.9-.1,1.4,0c.6,0,1.6-.2,2-.8.4-.6-.3-.7-.8-.7h0Z"/>
    <path d="M458.6,181.1l-6.3,33.9-10.1-16.6s11.7-12.4,16.5-17.3h0Z"/>
    <g>
      <path class="st4" d="M548.3,252.4c-3,1.1-7.3.2-9.9-1.9-.6-.5-2.7-.4-1.9.3,3.5,2.8,9.6,3.8,13.5,2.3.4-.1.4-.4,0-.6-.5-.2-1.2-.3-1.6-.1"/>
      <path class="st4" d="M535.4,249.8c-1.8-1.1-3.8-1.9-6-2.3-.3,0-.7,0-1,.2-.2.1-.3.3,0,.5.9.7,2.1,1.1,3.3,1.2.4,0,.8,0,1.1-.3.2-.3,0-.5-.4-.5-1-.1-1.9-.4-2.6-1-.3.2-.7.5-1,.7,1.9.4,3.7,1.1,5.3,2.1.3.2.8.2,1.1,0,.2-.1.5-.4.2-.6"/>
      <path class="st4" d="M527,249c-2.5-.4-5.3-1.8-6.2-3.8-1.5-3,.8-7.3,4.1-8.7.4-.1.2-.4-.1-.5-.4-.1-1,0-1.4.1-2.9,1.2-5.1,4.6-5,7.3,0,2.5,2.2,4.5,5.1,5.6.9.3,1.8.6,2.7.7.4,0,1.1,0,1.3-.2s0-.4-.5-.5"/>
      <path class="st4" d="M553,251.7c0-.3.2-.5.4-.4.7.1,1.4,0,2-.4.2.3.4.6.6.9-1.4,0-2.8.2-4.1.9s-.6,0-.8-.2c-.1-.1-.3-.5,0-.6"/>
      <path class="st4" d="M551.1,251.8c1.5-.7,3-1,4.5-1,.2,0,.5.2.6.4.1.2.1.4,0,.5"/>
      <path class="st4" d="M558.2,252.7c1.6.1,3.7-.7,4.7-2.4,1.5-2.6.9-6.1-.9-8.2-.2-.2,0-.5.2-.5.3,0,.6.1.8.4,1.6,1.8,2.4,4.5,1.8,7.1-.6,2.4-2.3,3.9-4.3,4.4-.6.1-1.2.2-1.8.1-.2,0-.7-.2-.8-.5s.2-.4.4-.4"/>
    </g>
    <path d="M563.4,212.3s12.8-7.5,18.1-7.2c7.7.6,15,7.7,17,11.9,0,0-9.9-9.7-15.4-10-5.2-.2-19.8,5.2-19.8,5.2h0Z"/>
    <path d="M528.6,209.4s-10.3-10.7-15.9-11.8c-8.3-1.7-19.1,2.7-22.5,6.2,0,0,14.4-6.2,20.2-4.8,5.5,1.3,18.2,10.4,18.2,10.4h0Z"/>
    <path d="M601.1,206.5c.2-.1.3-.2.5-.3t0,0h0c0,0,.1-.1.2-.2.9-1,1-2.3,1.4-3.6,0-.2-.1-.3-.1-.3,0,0-1.3-3.4-4.8-6.8-2.4-2.3-10-7.4-21.4-12.3-.9,1.3-1.8,2.7-2.6,4.1-.7,1-1.3,2.1-2,3.1,4.2,1.2,7.7,2.5,10.3,3.5,5.5,2.1,8.3,3.2,10.9,5.3,2.7,2.2,4.6,4.8,5.3,5.8.6.9,1.1,1.6,1.6,2.3.2-.1.5-.3.7-.4h0Z"/>
    <path d="M534.6,177c0,1.6,0,3.1,0,4.7,0,1.2,0,2.4,0,3.6-5.4-.9-10.1-1.4-13.6-1.8-7.4-.7-11.2-1.1-15.5-.5-4.5.7-8.3,2-9.8,2.5-2.1.8-3.5,1.2-5.1,2.2-3.6,2-5,4.3-5.6,4.1-.5-.2.3-2.1.4-2.3,2.2-4.9,7.2-7.9,7.6-8.2,0,0,3.8-2.3,9.9-3.6,4.2-.9,16-1.8,31.6-.8"/>
    <path d="M587.8,207c-.4,0-.9,0-1.3.2-1.6.5-2.3,2-2.5,2.3-.9,1.9-.6,4.7,1.5,6.2,1.5,1.1,3.8,1.1,5.3,0,1.2-.9,2-2.6,1.8-4.2-1.8-1.3-3.3-2.9-4.8-4.4h0Z"/>
    <path d="M520,202.4c-.4-.3-.9-.6-1.3-.9-.9-.7-1.8-1.4-2.4-2.4,0,0,0,0,0,0-1.2-.1-2.3,0-3,.5-.3.2-1.2.8-1.8,2-.7,1.5-.4,3.4.4,4.6,1.1,1.6,3.2,2.2,5,1.7,2.4-.7,3.5-3.2,3.4-5.2,0,0-.2-.1-.3-.2h0Z"/>
    <path class="st1" d="M444.7,216.7c-6.2-22.6-12.7-23.6-12.7-23.6,0,0-5,4.3-4.2,14.5"/>
    <path class="st1" d="M441.1,218.2c-5.7-1.4-2.7,10-4.7,12.3-2,2.3-3.2-4.7-2.8-12.9,0,0,1.5-11,7.2-12.2"/>
    <path class="st19" d="M598.5,157.8c-6.7-21.6-29.1-35.9-76.7-47.9s-87.7,1-87.7,1c31.2-66.5,101.2-55.3,116.9-53.4,15.7,2,82.6,76.2,55.2,127.3l-2,5.3s-4.5-28.3-5.7-32.2h0Z"/>
    <path class="st19" d="M423.5,94.9s-.3-44.2,33.2-54.7c44.8-14.1,103.6-15.5,118.7,31.7l-151.9,23Z"/>
    <path class="st23" d="M414.6,200.8c-3.1-4-.9-13.9-3.4-18.2-13.1-22.8-5.5-42.5,2-53.8,3.3-4.9.8-14.6,1.6-19.2,4.4-24,7.2-24.4,46.3-44.7,31.8-16.5,63.4-11.6,81.7-8.3,29.2,5.3,42,8.7,49.6,30.9,1,2.9-.7,4.9,0,8.3,1,4.8,6.8,9.9,7.3,15.9,0,0-38.3,6.8-72.9,20.2s-100.6,73.9-100.8,94.5c0,.6-8.1-21.1-11.5-25.5Z"/>
    <path class="st19" d="M404.3,152.9s64.1-61.5,124.9-54.5c0,0-76.4-19.9-117.9,31.8l-1.1,2.1c-2.9,5.6-4.8,11.7-5.6,18l-.3,2.5Z"/>
    <path class="st19" d="M593.1,96.6l-3.9-2.1c-9.1-4.8-18.9-8.2-29-10.2l-16.9-3.3s42.1-2,50,9.6l-.2,6h0Z"/>
    <path class="st19" d="M439.8,162.9s-24.4,19.6-27.1,28.2l-1.5-8.6s8.5-15.1,28.6-19.6Z"/>
    <path class="st10" d="M860.9,508c.8-26.3,9.6-44.1,16.3-54,3.7-5.5,8.9-9.8,14.9-12.6,8.7-4.1,16.2-8.3,27.8-12.5,2.1-.8,21.3-6.2,21.1-5.7-5.9,13.7,6.6,26,21.8,27.8,5.5.6,10.8.9,15.9.8,17.4-.4,42.2-17.1,52.7-30.2l1.9-2.4,2.1,1.2,57.9,28.3-7.7,245.8-10.6,8.2c-28.5,10.7-57.2,21.1-86.8,28.5-34.6,8.7-70.8,13.6-106.3,7.7-8.1-1.3.2.7-7.6-1.8-2.4-6.2-2.3-55.4-2.4-64.5-.4-50.3,1-31.1-.7-33.2,0,0-11.9-11.4-15.2-27.2"/>
    <path class="st10" d="M871.9,685.5s2.5,70.4,2.5,96.1c0,0,65.5,19.6,157.9,7.7s83.4-5.4,83.4-5.4l-24.4-64.4v-151.2l-210.3,90.2"/>
    <path class="st15" d="M1035,354.1s-18.5,43.1-9.1,61.6c1.3,2.5,6.2,5.4,6.6,7.7,0,0-19.8,34.1-62.9,33.5-43.1-.6-34.8-31.8-34.8-31.8,1.5-1,2.7.8,4.2-.2.4-.3.8-.6,1.1-1,.4-.6.4-1.4.4-2.2-.7-20.8-1.9-41.5-3.3-62.2"/>
    <path class="st25" d="M1000.7,391.3s-8.4,18-45.5,22.5c0,0-11.1.6-14.9-.1l-.7-8,61.1-14.4h0Z"/>
    <path class="st2" d="M902.3,343.1c11.9-7.4,14.9-21.9,14.3-35-.6-12.5,10-31.1-5.4-31.4-.3,0,6.1-10.4,1.6-9.7,3.2-6.7-7-6.7-7.9-14.5-.2-1.6-1.6-15.5,8.3-15.9,38.6-47.5,85.7-34.2,112.3-28.9,52.1,10.3,77.5,14.9,59.7,97.3-11.9,55.3-65.2,67.4-118.2,62.6-22.6-2.1-49.6-2.8-65.3-24.2.2-.1.3-.2.5-.3h0Z"/>
    <path class="st2" d="M1023.9,171.5c-13.2,5.3-19.8,16.6-21.4,30.3,2.5,2.6,8.1,5.6,10.6,8.1.6-.9,1.2-1.7,1.7-2.5,2.8,2.8,10.4,5.6,13.2,8.4.9-.4,3.5-1.4,6.7-2.5.9.8,1.7,1.7,2.6,2.5-2.4.5-4.3,1.1-5.6,2,3.2,3.1,11.8,5.4,14.9,8.7,6.6,7.1,13.9,16.6,20.8,23.4,2.2,1.8,3.9,3.5,5.3,5.1l-5.6,4.3,7.1,6.6c-1,1.9-1.6,3-1.6,3l5.8,5.6s4.2-3.4,10.3-8.6c20.7,9.6,30.8-7.2,29.5-15.4-.5-3.6-2.2-6.4-3.9-8.4,9-9.3,15.8-18.1,14.8-22.4-2-8.8-14.5-29.2-20.6-38.7-1.1-3-2.3-5.9-3.8-8.7v-.2h0c-1.6-3-3.4-5.8-5.6-7.8-5.4-5.4-17.5-4.3-27.3-2.1-9.7-9.8-16.5-12.9-22.6-14-8.5-1.5-23.3,8.6-25,11.5-.8,1.4-.8,6.8-.5,11.9h0ZM1099.3,256.7c3.8-3.5,7.8-7.2,11.6-10.9,0,2-.5,4.2-1.5,6.5-1.7,3.9-6.1,4.6-10.1,4.4h0ZM1047.3,158.1c.8.7,3.2,4.8,5.6,9.1-7.1,0-13,1-16.1,1.3-.3,0-.7,0-1,.1-1.3-2.7-2.8-6.3-2.8-8.7.1-4.1,10.3-5.4,14.3-1.9h0Z"/>
    <path class="st15" d="M941.3,235.3c-.1.2-.3.4-.5.6.1,0,.3-.1.4-.2v-.3ZM925.3,237.4v.3c.2-.2.5-.4.7-.5,0-.3-.7.3-.7.3ZM1028.6,370.8l2.4-5.2c2.4,10.5,16.9,5.2,19.4-8.5,11.4-11.3,14.7-29.6,9.9-37.5l-.6-1.1c-3.6-3.6-10.6-5.9-14.3-1-1.3,2.2-3.2,4.6-4.4,6.8-1.3,2.5-3.4,7.6-5.4,9.8,0,0,10-24.2,10.9-30.4.9-6.2,2.1-21.5-8.1-31.4,0,0-12-14.3-16.4-21.3l-1.7-.8c-1.1-.1-1.8.2-2.9,0,0-.3.4-.6.5-1.3-1.8.5-3.2,0-4.7-.1.4-.3,1.1-.6,1.2-.9-1.5.2-2.8-.3-4.3-.4.4-.3,1.2-.9,1.2-1.2-1.8.5-2.8-.3-4.3-.4.4-.3.8-.9.8-1.2-1.5.5-2.9,0-4.3,0,.4-.3.8-.9,1.2-1.2-1.8.5-2.8-.3-4.3-.4-.4,0,.8-.6.8-.9-1.1.2-2.5.1-3.6,0,0-.3.8-.6.8-.9-2.2.5-3.2-.3-4.6-.4l1.2-1.2c-1.5.9-2.9.7-4.3.3.4-.3,1.2-.9,1.2-1.2-1.9.8-4,.9-5.8.1.4,0,1.2-.9,1.2-1.2-1.9,1.1-3.3.7-5.1.5.4-.3.8-.9,1.6-1.5-2.3,1.1-4.8,1.5-6.9.4.4,0,.8-.9.8-1.2-1.5,1.2,1.3-.2-.5-.7,0,0-4.2.9-4.2.6-1.5.9,4.3-5.2,2.5-5.4.4-.6-10.3-.3-9.5-.9-1.9,1.1-1.5.5-3.6,0,0,0-7.8,3.2-7.4,2.9-1.9,1.5-2.6,0-4.7-.5.4-.3,1.2,1.5,1.5,1.2-1.5,1.2-.9-.4-2.7-.6,0-.3-5.6-2.7-5.6-3-1.9.8-1.3,1-3.4.8,0-.3-1.7,3.5-1.3,3.2-1.5,1.2-1.4.1-3.1-.4l-1.9,1.1c-1.9,1.5.6,1-1.5.5,0-.2,8,1.8,8.3,1.4-1.4.8-3.1,1.4-4.8,1.6,0-.3.5-.9.5-1.3-1.5,1.2-3.8,2-5.9,1.4.4,0,.8-.6.8-.9-1.9,1.5-4.2,2.3-6.2,1.1h0c-1.5.9-3.4,1.7-5.2,1.8,0-1,.8-1.2.8-1.2h-1.4c-2,2.3,6.3,1.6,5.3,4.8,0,0-6.7,9.1-14.3,27.9-6.2,15.5-8.6,40.7-8.8,45.9,0,4.6-3.7,13.1-4.7,17.8-5.3,25.3,12.2,53.2,30.8,69.2,7.4,6.4,14.4,4.9,22.4,4.5,16.2-.7,41.2-8.2,56.6-21.1"/>
    <g>
      <path class="st4" d="M933.8,349.5c2.2,1.4,5.8,1.5,8.2.3.5-.3,2.2.2,1.5.6-3.3,1.5-8.3,1.2-11.2-.6-.3-.2-.2-.4.2-.5.4,0,1,0,1.3.2"/>
      <path class="st4" d="M944.5,349.9c1.6-.5,3.4-.8,5.2-.7.3,0,.6.1.8.3.1.1.2.3,0,.4-.8.4-1.9.4-2.8.3-.3,0-.7-.1-.8-.4-.1-.2.2-.4.4-.3.8,0,1.6,0,2.3-.3.2.2.5.5.7.7-1.6,0-3.2.1-4.6.6-.3.1-.7,0-.9-.2-.2-.1-.3-.4,0-.5"/>
      <path class="st4" d="M951.4,350.8c2,.2,4.5-.5,5.7-1.8,1.7-2.1.7-6-1.7-7.7-.3-.2,0-.4.2-.4.4,0,.8.1,1.1.3,2.1,1.5,3.2,4.7,2.7,6.8-.5,1.9-2.6,3.1-5.1,3.4-.7,0-1.5.1-2.3,0-.3,0-.9-.2-1-.4-.1-.2.2-.3.5-.3"/>
      <path class="st4" d="M930.1,348.1c.1-.2,0-.4-.2-.4-.5,0-1.1-.2-1.5-.7-.2.2-.4.4-.6.6,1.1.2,2.2.7,3.1,1.4.2.1.5,0,.7,0,.1,0,.3-.3.1-.5"/>
      <path class="st4" d="M931.6,348.6c-1-.8-2.2-1.3-3.5-1.6-.2,0-.4,0-.6.2-.1.1-.2.3,0,.4"/>
      <path class="st4" d="M925.9,348c-1.3-.2-2.8-1.2-3.3-2.8-.8-2.3.4-4.9,2.2-6.2.2-.1.1-.4,0-.4-.2-.1-.5,0-.7.1-1.6,1.1-2.7,3-2.7,5.1s1.1,3.5,2.7,4.2c.5.2,1,.4,1.4.5.2,0,.6,0,.7-.2.1-.2,0-.4-.2-.4"/>
    </g>
    <path class="st4" d="M1039.4,339.7c2.2-3.8,4.7-7.6,7.5-11,1.4-1.7,3-3.4,4.9-4.6.2-.1.5-.3.7-.4,0,0,.4-.2.2-.1,0,0,.4-.1.2,0,.2,0,.1,0,0,0,.2,0,0,0,0,0,.2,0,0,0,.2,0,0,0,0,0,0,0,.5.6.9,1.1,1.3,1.8,2.2,3.6,2.3,8,.9,12,0,.2,1.3,0,1.4-.3,1.3-3.8,1.3-8-.7-11.6-.4-.7-.9-1.7-1.6-2.2-.1-.1-.2-.1-.3-.2-.9-.2-2.1.3-2.9.7-1.8.9-3.4,2.4-4.8,3.9-3.5,3.7-6.2,8.1-8.8,12.5,0,.1,1.2,0,1.4-.3h0Z"/>
    <path d="M929.2,285c-.7-1.8-.3-.8-1-2.6v-.3c-12.8,1.5-18.4,2.8-24.7,6.3,0,.2-.2.5-.2.8,0,0,0,.2,0,.2h0c0,.3,0,.4.1.6,0,.3.2.6.3.9,0,0,.1.3.2.4l.2.4c.3.5.5,1,.8,1.6,4.6-1.6,9.9-2.2,14.5-3.1,3-.6,6.5-.5,11.3-1-.5-1.4-1-2.7-1.5-4h0Z"/>
    <path d="M965.7,282.7c-.8,1.7-.4.8-1.2,2.5-.6,1.3-1.2,2.6-1.9,3.9,5.4,1.3,9.5,1.8,12.8,2.9,6.7,2.1,14.6,3.9,20.5,7.8,2.8,1.9,6.8,4.6,7.8,8,.3.9.3,3.7,1.7,3.8.6,0,.8-2.4.8-2.7.4-5-3-8.9-7.7-12.4-9.6-7.3-15.1-9.6-32.8-14.1"/>
    <path d="M915,304.3c-2-1.2-4.4-.5-5.9.5-.3.2-1.3,1-1.8,2.3-.7,1.7-.2,3.7.8,5,1.3,1.7,3.7,2.2,5.6,1.5,2.6-.9,3.7-3.9,3.3-6.1,0-.4-.5-2.1-2-3.2"/>
    <path d="M932.9,312.9s-9.4-8.8-14.5-9.8c-7.5-1.4-13,1.5-16,4.9,0,0,8.7-4.7,13.9-3.5,5,1.1,16.6,8.4,16.6,8.4h0Z"/>
    <path d="M973.8,310.4c2.2-.9,4.5.3,5.7,1.6.3.3,1.1,1.2,1.3,2.6.3,1.8-.5,3.7-1.7,4.7-1.6,1.5-4,1.5-5.8.5-2.4-1.4-2.9-4.5-2.1-6.6.2-.4.8-2,2.6-2.7"/>
    <path d="M962.1,315.7s11.5-6.8,17.1-6.9c10,0,18.8,6.4,21.3,10.4,0,0-13.7-8.8-19.4-8.6-5.5.1-19,5.1-19,5.1h0Z"/>
    <path class="st2" d="M924.1,241.5c-2.2,8.9-13.7.1-6.8-1.4-.4-4.4,5.9-5.6,6.1-10.1.2.4.4.7.4.7,0,0,.7-5.3,2.6-6.4,1.9-1.1,10.3-4.4,10.3-4.4l2.3,2.1c0-.1-.8-2,.6-2.9,1.3-1,15.6-6.8,24.2-5.5.3,0,.6,0,.8.2l3.4,2.2h.1c0,0,0,0-.1,0-.6-.4-1.9-1.5-1.1-2.2.3-.2.8-.4,1.7-.6,1.3-.2,3.2-.2,5.3,0h0c.2,0,.4,0,.6,0,.2,0,.4,0,.6,0h0c2.1.3,4,.6,5.2,1,.8.3,1.3.6,1.5.9.6.8-.8,1.6-1.5,1.9,0,0,0,0-.1,0h.1c0,0,3.8-1.6,3.8-1.6.3,0,.6,0,.9,0,8.7.2,21.6,8.6,22.8,9.8,1.2,1.2.1,2.8,0,3l2.6-1.6s10,5,11.7,6.4c1.7,1.5,2.2,4.6,2.2,4.6,0,0,3.1,1.4,4.2,1.2,1.2-.3,6.8,3.3,8.9,7.1,1.3,2.4.6,4.4,1.2,6.5h0c.3,1.1.5,1.9.5,1.9l5.9,2.6c4.7,2.8,2.5,12.8,2.5,12.8,8.5,12.7,8.1,22.8,2.8,33.2-2,4,9.5,9.3,1.8,8.5-7.7-.9-16.3,22.8-16.3,22.8,0,0-5.7-10-5.6-14.5s3.4-17.2,3.4-17.2l-3.7-.9s-2.2-1.1-4.5-6.4c-2.3-5.2,3.5-13.6,3.5-13.6l1.9-5.2-7.3-.2c-6.9-1.9-6.6-9.5-6.6-9.5l2.4-12.6-4.6,3.9s-1.8,1.9-4.2,1.5c-10.8-1.8-11.5-8.7-11.5-8.7l-.9-6.5-2.9,1.6c-3.1,2.1-12.4,5-16.8,2.6-1.2-.6-5.8-5-6.6-5.6-2.7-2.4-2.8-6.5-2.7-8,.5-.4.9-.9,1.4-1.3,1.7-1.6,2.4-.8.7.8-3,2.7-7.9,6.4-11.9,6.2-3.9-.2-12-2.6-12.9-4.4-.6-1.3.7-1.3-.8-1.4-1.2,0-2.4.7-3.2,1.6-2,1.9-3.6,4.9-6.3,6-4,1.6-6-.7-9.8-1.9-.8-.3-2,0-2.3,1.1h0Z"/>
    <path class="st2" d="M915.7,233.6s-1.9-8.4,3.3-12.7c5.2-4.3,25.1-21.5,56.4-18.7l-59.7,31.4h0Z"/>
    <g>
      <path class="st12" d="M1029.2,415.2s-22.6,40.7-62.8,36.5c-29.5-3-26.8-21.5-26.8-21.5v-7.1l-10.7,3.5s-2.3,6.4,2.5,17c4.8,10.7,20.1,20.5,45.9,18.1,15.2-1.4,28.9-7.3,45.3-19.3,16.4-12,20.1-20.7,20.1-20.7l-13.5-6.6h0Z"/>
      <path class="st13" d="M1028.2,415.2c-2.1,3.7-4.7,7.1-7.3,10.4-6,7.3-13.2,13.8-21.4,18.5-10.6,6.1-22.7,8.5-34.9,6.8-8.9-1.2-19.4-4.8-22.9-14-1.5-4-1-8.1-1-12.3v-1.8c0-.4-1-.3-1.2-.2-3.3,1.1-6.5,2.1-9.8,3.2-.8.3-1.7.4-2,1.3-.4,1.5-.5,3.1-.5,4.7.1,5.6,2.1,11.5,5.3,16.1,2.7,3.8,6.4,6.8,10.5,9,11.8,6.4,26.4,6.9,39.4,4.7,15.1-2.5,28.6-9.9,40.8-18.8,5.6-4.1,10.9-8.6,15.5-13.8,1.8-2.1,3.8-4.5,4.9-7,0-.1.1-.2.2-.3,0-.2,0-.3-.2-.4-4.5-2.2-9-4.4-13.5-6.6-.6-.3-2.6.6-1.7,1,4.5,2.2,9,4.4,13.5,6.6l-.2-.4c-.4,1.1-1.3,2.4-2.1,3.4-2.4,3.4-5.3,6.5-8.4,9.3-5.1,4.7-10.8,8.9-16.7,12.7-5.5,3.5-11.2,6.6-17.2,9.1-11.3,4.5-23.9,6.2-35.9,4.6-9.1-1.2-18.4-4.6-24.7-11.5-3.4-3.7-5.5-8.5-6.6-13.4-.6-3-1.1-6.7,0-9.6l-1,.7c3.6-1.2,7.2-2.3,10.7-3.5l-1.2-.2v6.7c0,.1,0,.5,0,.2,0,.1,0,.2,0,.3-.1,1.8.1,3.7.6,5.4,2.6,8.7,11.3,13.1,19.5,15,12.6,2.9,25.9,1.4,37.6-4.2,9.2-4.4,17.3-10.9,24.1-18.5,2.4-2.7,4.7-5.5,6.8-8.5,1-1.5,2.2-3,3-4.6,0,0,0-.1.1-.2.5-.9-1.7-.6-2,0h0Z"/>
    </g>
    <path class="st4" d="M1039.7,342.8c6.2.6-2.4,11.9,1.9,12,1.2,0,2.1-.8,2.7-1.7,1.2-1.6,2-3.6,2.7-5.5.9-2.5,1.5-4.6,1.5-7.2s-.7-7.1-3.8-8.8c-.4-.2-1.6.4-1.4.5,2.6,1.4,3.5,4.4,3.7,7.2.1,1.7.1,3.6-.4,5.3-.7,2.2-1.4,4.3-2.4,6.3-.4.7-.8,1.5-1.2,2.1-.2.2-.4.5-.6.7,0,0-.2.2-.3.2-.1.1.2,0,0,0-.2-.4-.4-.6-.4-1.1,0-.5,0-1.1.2-1.6.3-1.3.8-2.5,1.1-3.8.3-1.1.7-2.5.3-3.7s-1.6-1.7-2.8-1.8c-.4,0-1.7.6-.9.7h0Z"/>
    <path class="st5" d="M815.6,903.5c-1.7-5.1-1.2,14.1-3.3,9.2-4.7-11.1-10.4-21.7-16.7-31.8-6.5-10.4-13.8-20.2-21.7-29.3-5.4-6.2-11.1-12.1-17.2-17.5,97.1-42.7,318.2-51.3,318.2-51.3,0,0,76.4,8.4,51.9,93.7-7.4,25.5-25.4,33.1-57.8,38.3-76.8,12.2-192.6-1.4-250.5-7.6-.4,0-2.4-3.6-2.8-3.6h0Z"/>
    <path class="st5" d="M814.9,923.1c-2.2-4.6-4.7-9.1-7.3-13.5-5.9-9.9-12.7-19.2-20.1-27.8-7.6-8.9-15.8-17.2-24.5-24.8-6-5.1,12-21.4,5.5-25.7-24.5-74.5,350.4-47.3,350.4-47.3,0,0,13.2,6,13.2,58,0,88.6-237.7,65.3-317.1,69.3-.4,0,.4,11.7,0,11.7h0Z"/>
    <path class="st5" d="M729.2,914.6c21.2,61.8,68,228.4,97.1,303.1,0,0,80.2-4,86.3-22.8,0,0,1.7-402.1-47.4-408.9-36.2-5-97.9,8.4-116.7,24.1-22.5,18.8-36,55.9-19.3,104.5h0Z"/>
    <path class="st5" d="M768.4,873.2s12.3-2.4,29.9-2c-3.4-7.5-4.6-13.2-4.6-13.2,1.6-1.9,3.4-3.8,5.2-5.8,10.1,2.4,19.9,5.7,29.5,9.7,11.1,4.6,21.8,10.1,32.1,16.3,9.9,6,19.3,12.8,28,20.3,2.5,2.1,4.9,4.4,7.2,6.7-.3,0,4.8-.7,4.5-.6,34,36.2,33.2,117.2,52.8,190.6,14.4,53.8,26.6,99.6,26.6,99.6-7.8,18.1-103.9,26.1-103.9,26.1-34.6-97.7-107.4-347.7-107.4-347.7h0Z"/>
    <path class="st11" d="M876.9,1220.6c-.4-1.2-.8-2.5-1.3-3.8-1.2-3.6-2.4-7.1-3.5-10.6-1.8-5.5-3.7-11-5.5-16.5-2.4-7.1-4.8-14.3-7.1-21.4-2.8-8.5-5.6-17-8.5-25.5-3.2-9.5-6.3-19.1-9.4-28.6-3.4-10.2-6.7-20.4-10-30.6-3.5-10.6-7-21.2-10.4-31.9-3.5-10.7-7-21.4-10.4-32.1-3.4-10.4-6.7-20.8-10-31.2-3.2-9.8-6.3-19.7-9.4-29.5-2.8-9-5.7-18-8.5-27-2.4-7.8-4.8-15.6-7.1-23.4-1.9-6.2-3.7-12.5-5.5-18.8-1.2-4.4-2.5-8.8-3.5-13.3-3-12.4-4-25.4-1.7-38,2.6-14.1,9.5-27.5,20.8-36.6,10-8,22.4-12.2,35.1-13.3,7.5-.7,15.1-1.3,22.6-2,9.3-.8,18.5-1.7,27.8-2.5,1.6-.1,3.2-.3,4.8-.4,1.2-.1,1.8-1.7.2-1.6-5.9.5-11.9,1.1-17.8,1.6-9.9.9-19.7,1.8-29.6,2.6-8.2.7-16.3,1.4-24.2,3.9-14.6,4.6-27.3,14.2-34.8,27.7-7.2,13-9.5,28-8.3,42.7.6,7.4,2,14.5,3.9,21.7,1.4,5.3,2.9,10.6,4.5,15.9,2,7,4.2,14,6.3,21.1,2.6,8.4,5.2,16.8,7.8,25.2,3,9.5,6,19,9,28.4,3.2,10.2,6.5,20.4,9.8,30.7,3.4,10.6,6.9,21.3,10.3,31.9,3.5,10.7,7,21.5,10.5,32.2,3.4,10.5,6.9,21,10.3,31.6,3.3,10,6.6,19.9,9.8,29.9,3,9.1,6,18.1,9,27.2,2.6,7.9,5.2,15.8,7.9,23.8,2.1,6.4,4.3,12.8,6.4,19.2,1.5,4.6,3,9.2,4.6,13.7.8,2.4,1.6,4.8,2.4,7.3,0,.3.2.6.3.9.3,1,2.6.4,2.3-.6h0Z"/>
    <path class="st24" d="M935.5,360.3c7.3.8,22.8,8.1,25.6,12,0,0-9.1,6.2-26,4.4-16.9-1.9-18.9-9.3-18.9-9.3,0,0,10-8,19.3-7Z"/>
    <path class="st16" d="M954.7,367.7s-8.6-1.8-15.5-2.6-21.4-1.1-21.4-1.1c0,0,5.3-6.3,17.9-4.9,12.5,1.4,19,8.6,19,8.6h0Z"/>
    <path class="st9" d="M935.4,373.8c8.1-.5,16.6-3.3,25.7-1.5,0,0-4,12.9-23.9,10.6s-21-15.6-21-15.6c9.3.3,11.5,4.2,19.2,6.5h0Z"/>
    <path class="st9" d="M927.4,354.5c4.2,0,6.7,2.3,8.5,2.5s4.7-1.5,8.8-.6c3.9.8,19.1,14.5,17.1,15.8-2,1.3-13.9-8.8-26.5-10.2-12.6-1.4-18,6.8-19.7,5.1-1.7-1.7,7.9-12.7,11.8-12.6h0Z"/>
    <path class="st24" d="M540.8,264.6c-8.6-1.4-28.5,1.6-32.9,4.9,0,0,8.5,9.6,28.3,12.9,19.8,3.3,24.5-4.1,24.5-4.1,0,0-8.9-11.8-19.8-13.6Z"/>
    <path class="st16" d="M516.6,266.5s10.3.7,18.5,2.1c8.1,1.4,24.8,5.5,24.8,5.5,0,0-4.1-8.4-18.8-10.9-14.7-2.5-24.4,3.3-24.4,3.3h0Z"/>
    <path class="st9" d="M536.7,279.3c-9-3.1-17.9-8.7-28.8-9.8,0,0,.6,15.1,23.9,19,23.3,3.9,28.8-10.2,28.8-10.2-10.7-2.6-14.4,1-23.9,1h0Z"/>
    <path class="st9" d="M551.8,260.9c-4.8-1.2-8.3.4-10.4,0-2.1-.4-4.9-3.1-9.8-3.5-4.7-.4-26.3,9.6-24.4,11.7,1.9,2.1,18.5-5.1,33.3-2.7,14.8,2.5,18.4,13,20.9,11.7s-5-16.2-9.5-17.3Z"/>
    <path class="st18" d="M381,574.8l-5,49.5c.5.5,1.3.8,2.1.4,6.8-3.8,13.3-5.6,19.8-9.9l183,10.5-8.3,60.6s-185.3,2.9-221.4-8.2c-2-.6-30.2-.7-32.2-1.4-19.1-6.6-31.1-12.7-36.3-31-6.4-22.8-6.6-48.5-3.2-71.5,6.8-45.5,9.8-91.1,17.2-136.5,3.5-21.7,2.6-29.4,11.5-49.5,12.5-28.2,21.1-43.2,53.8-51.6l44.6-10.9"/>
    <path class="st7" d="M574.1,673.1c-.5,4.3-.9,8.6-1.3,12.9l.8-.5c-7.1.3-14.3.4-21.4.5-18.7.3-37.4.4-56.1.3-21.6-.2-43.2-.6-64.8-1-22.3-.4-44.6-1.2-66.8-3.2-6-.5-12.1-1.2-18.1-1.9-3-.4-6.1-.7-9.1-1.1-1.6-.2-3.2-.4-4.9-.7s-3.2-.3-4.8-.7c-1.9-.5-3.8-1.2-5.7-1.7-3.2-.9-6.4-1.9-9.7-2.6-1-.2-2-.5-3-.5-.6,0-1.5.9-.5,1,2.6,0,5.4,1.1,7.9,1.8,2.9.8,5.9,1.7,8.8,2.6,3.7,1.1,7.7,1.3,11.5,1.8,6.1.8,12.2,1.5,18.4,2.2,22.6,2.3,45.4,3.4,68.1,3.9,21.3.5,42.6.8,63.9,1,19.8.2,39.6.2,59.4,0,8.8-.1,17.6,0,26.4-.6.1,0,.2,0,.3,0,.3,0,.8-.2.8-.5.5-4.3.9-8.6,1.3-12.9,0-.7-1.4-.4-1.5.1h0Z"/>
    <path class="st7" d="M375.8,366c11,2.3,14.8,13.9,16.6,23.7,1.2,6.5,1.9,13.2,2.4,19.9.3,3.3.6,6.7.6,10,0,5.2-.5,10.4-.9,15.6-.6,7.4-1.5,14.8-2.3,22.2-1,8.7-2.1,17.5-3.2,26.2-1.2,9.3-2.5,18.6-3.8,27.8-1.2,8.9-2.5,17.9-3.8,26.8-1.1,7.7-2.2,15.4-3.4,23.1-.8,5.6-1.7,11.3-2.5,16.9-.4,2.7-1,5.4-1.2,8.1,0,.1,0,.2,0,.3,0,.3.4.4.6.4,5.6-.7,11.4-.4,17,0,17.7,1.1,35.4,4.3,52.6,8.3,20,4.7,39.9,9.4,60,13.6,17.2,3.6,34.4,7,51.6,10.2,5.4,1,10.9,2,16.3,3,2.2.4,4.5.7,6.7,1.2h0c-.4,0-.3-.3,0,.3l.6,1.6c.2.6,1.7.2,1.5-.4-.4-1-.4-2.2-1.6-2.4-1.1-.2-2.2-.4-3.2-.6-4.7-.8-9.4-1.7-14.1-2.6-16.5-3.1-32.9-6.3-49.3-9.7-20-4.1-40-8.4-59.9-13.3-18.5-4.5-37.2-8.4-56.2-10-5-.4-10-.7-15-.6-1.5,0-2.9,0-4.3.1-.6,0-1.5,0-2.1.2,0,0-.2,0-.3,0l.6.4c.3-1.9.6-3.8.9-5.6.8-5.1,1.5-10.2,2.3-15.2,1.1-7.3,2.2-14.7,3.2-22,1.3-8.8,2.5-17.6,3.8-26.4,1.3-9.3,2.6-18.6,3.8-28s2.3-18.1,3.4-27.1c.9-7.8,1.8-15.5,2.5-23.4.5-5.7,1-11.4,1.2-17.2,0-1.8,0-3.6,0-5.4-.4-6.5-1-13-1.8-19.5-.8-6-1.8-12-3.9-17.7-1.7-4.4-4.2-8.6-8.1-11.3-1.9-1.3-4-2.1-6.3-2.6-.5-.1-1.7.7-.9.9h0Z"/>
    <path class="st7" d="M376,585.3c-7.6-.3-15,2.8-20.3,8.2-5.6,5.7-8.6,13.6-9,21.6,0,.8,1.4.6,1.5,0,.4-7.3,2.9-14.6,7.9-20.1,4.9-5.4,12.1-8.8,19.4-8.4.7,0,1.5-1.1.5-1.1h0Z"/>
    <path class="st15" d="M574.6,670.9l15.8-.3s42.3,23.2,55.7,24.7c9.8.6,19.6-.3,29.3-2.9l10.8,5.1c5,2.3,10.5,2.5,15.7.5l4-1.5s12,10.7,15.2,6.3c3.2-4.3-.4-9.7-3.8-15-3.5-5.3-81.3-59.8-81.3-59.8,8-2.5,21.8,1.3,30,.5,12.6-1.2,17.2-7,12.4-12.8-2.9-3.5-12.8-7-19.8-4.2-7,2.8-38-9.8-50.7-6.5s-23.2,20.3-23.2,20.3c-1.1.4-5.5.8-5.5.8-.6,1.8-4.5,44.8-4.5,44.8h0Z"/>
    <path class="st25" d="M674.1,691.1c-8.6-4-17.1-7.9-25.7-11.9-1.2-.6-2.5-1.1-3.7-1.7-.4-.2-2,.5-1.3.8,8.6,4,17.1,7.9,25.7,11.9,1.2.6,2.5,1.1,3.7,1.7.4.2,2-.5,1.3-.8h0Z"/>
    <path class="st25" d="M706.4,694.7c-5.1-2.9-10.3-5.8-15.4-8.8-8.2-4.7-16.4-9.3-24.6-14-1.9-1.1-3.8-2.2-5.7-3.2-.7-.4-2.1.5-1.3,1,5.1,2.9,10.3,5.8,15.4,8.8,8.2,4.7,16.4,9.3,24.6,14,1.9,1.1,3.8,2.2,5.7,3.2.7.4,2.1-.5,1.3-1h0Z"/>
    <path class="st7" d="M661.8,558.6c-3.5,3.9-7.1,7.8-10.1,12.2-3.3,4.8-5.8,10-7.1,15.7-1,4-1.4,8-1.4,12.1,0,.7,1.5.5,1.5-.1,0-6.6,1.2-13.2,3.8-19.3,2.2-5,5.3-9.5,8.8-13.7,1.8-2.2,3.8-4.3,5.7-6.4.6-.7-.8-.9-1.2-.4h0Z"/>
  </g>
  <g id="Layer_4">
    <path class="st10" d="M1069.2,607.4c8.1-4.7,42.7-3.6,52.1-3.3,18.5.6,15.2-1.1,25.2-4.3-2.2-45.4-12.3-94.9-20.4-119.2-14.1-35.5-59.7-43.5-59.7-43.5l-5.6,123.5v57.2c5.6-2.8,2.9-7.2,8.3-10.3h0Z"/>
    <g>
      <path class="st12" d="M1080.9,467.3c-11.3,2.8-17.2,15.3-19.9,26.7-10.5,42.9,4.6,78.4,15,121.2"/>
      <path class="st13" d="M1080.8,466.8c-8.3,2.1-13.8,9-17.2,16.5-4.2,9.4-6,20-6.8,30.2-1.8,21.8,2.6,43.2,8.1,64.2,3.3,12.7,7,25.2,10.1,37.9.2.8,2.4.2,2.2-.6-5.2-21.3-12.1-42.2-15.9-63.9-1.8-10.4-2.9-21-2.6-31.7.3-10.4,1.8-21.1,5-31,2.8-8.6,8-18.2,17.5-20.6,1.3-.3,1-1.5-.3-1.1h0Z"/>
    </g>
    <path class="st15" d="M972.9,391.3c-.3,6.8,9.8,22.5,9.8,22.5,0,0-3.1,42.9-1.3,51.6.5,2.2,10.6,8.5,13.2,14.3,8.2,17.8,11.5,36.5,11.5,36.5l33.7-28.8-10.1-20.5,2.8-43.9-1.9-41.8-25.1-25.7c-.2.1-.4.2-.6.4-1.7,1.4-2,4-.6,5.7l-9.8-8.8c-7.3,5.1,2.6,19.8,2.6,19.8l-11.8-12.5c-6.4,6,.6,16.5.6,16.5l11.9,19s.5,13-.6,17.3-1.8,8.8-1.8,8.8l-2.8-14.5-16.3-25.4s-3.2,2.7-3.6,9.4h0Z"/>
    <path class="st3" d="M1028,376c-6.5-6.1-12.9-12.2-19.4-18.2-.9-.9-1.8-1.7-2.8-2.6-.3-.3-.8-.2-1.1,0-2.4,1.5-3.1,4.4-1.4,6.7l1.3-.6c-3.3-2.9-6.5-5.9-9.8-8.8-.3-.3-.8-.2-1.1,0-3.9,2.8-3.2,7.9-1.8,12,1,3,2.5,5.9,4.2,8.5l1.3-.6c-3.9-4.2-7.9-8.3-11.8-12.5-.3-.4-1-.2-1.3.1-6.7,6.5-.2,15.8,3.7,22,2.5,4,5,8,7.5,12.1.3.5.6,1,1,1.5,0,.1.2.2.2.3,0,0,0-.3,0,0,0,2,.1,4.1.1,6.1,0,3.2,0,6.5-.4,9.8-.5,3.4-1.5,6.7-2,10.1l1.5-.3c-.6-3.1-1.2-6.2-1.8-9.3-.3-1.6-.6-3.2-.9-4.7,0-.5-.2-.7-.5-1.1-3.9-6.1-7.9-12.2-11.8-18.4-1.4-2.1-2.8-4.3-4.2-6.5-.2-.3-.9-.2-1.1,0-1.3,1.1-2.1,2.7-2.7,4.2-1.1,2.8-1.4,5.9-.7,8.9,1.3,5.6,4.4,10.9,7.3,15.9.5.8,1,1.7,1.5,2.5.2.3.5.7.7,1-.2-.5-.1.2-.2.4,0,.6-.2,1.3-.2,2-.6,5.2-1.2,10.5-1.5,15.7-.2,3.4-.4,6.8-.5,10.3,0,2.6,0,5.3.5,7.8.1.6,1.6.3,1.5-.4-1-5-.5-10.4-.2-15.5.3-5.5.9-11,1.5-16.4.2-1.3.4-2.7.5-4,0-.7-.4-1.2-.8-1.8-2.8-4.6-5.5-9.3-7.4-14.4-1.2-3.1-1.8-6-1.2-9.3.3-1.7.9-3.4,1.8-4.9.3-.4.5-.8.9-1.2,0,0,.5-.5.3-.3h-1.1c3.4,5.2,6.7,10.5,10.1,15.7,1.8,2.8,3.6,5.6,5.4,8.5.2.3.4.6.6.9.1.2.2.3.1.2.4,1.1.5,2.5.7,3.7.7,3.6,1.4,7.2,2,10.8.1.6,1.4.2,1.5-.3.5-3.1,1.2-6.1,1.9-9.2.5-2.6.5-5.4.6-8,0-2.6,0-5.1,0-7.7,0-.9,0-1.4-.5-2.1-3.8-6.1-7.7-12.3-11.5-18.5-2.9-4.6-5.1-11.6-.7-15.9h-1.3c3.9,4.3,7.9,8.4,11.8,12.6.4.4,1.8,0,1.3-.6-1.6-2.3-2.9-4.9-3.8-7.5-1.4-3.6-2.7-9,1.1-11.7h-1.1c3.3,3,6.5,5.9,9.8,8.8.4.4,1.8,0,1.3-.6-1.4-1.8-1-4.3,1-5.5h-1.1c6.5,6.1,12.9,12.2,19.4,18.2.9.9,1.8,1.7,2.8,2.6.4.4,1.8-.2,1.3-.6h0Z"/>
    <path class="st3" d="M1012.9,408.6c0-4.5,0-10.6-.1-17.3v-1.9s0-.3,0-.3l-.2-.2c-4.1-4.8-7.9-9.1-10.6-12.1s-4.5-4.8-4.7-4.6c1.1,1.9,2.3,3.7,3.8,5.4,2.5,3.2,6.1,7.6,10.2,12.5l-.2-.5c0,.6,0,1.2,0,1.9.2,6.8.4,12.9.6,17.3.3,4.4.5,7.2.8,7.2.2,0,.4-2.7.4-7.2Z"/>
    <path class="st3" d="M1023.1,396.4c0-4.1,0-9.8,0-16.1v-.3l-.2-.2-1.4-1.5c-4.7-4.9-9-9.3-12.2-12.4-3.2-3.1-5.3-5-5.4-4.8s1.6,2.3,4.6,5.6c3,3.3,7.2,7.8,11.9,12.8l1.4,1.5-.2-.6c.2,6.4.3,12,.6,16.1,0,2.2.2,4.4.7,6.6.2,0,.3-2.5.4-6.6h0Z"/>
    <path class="st15" d="M1138.1,603.6l-36.8.3-31.3-62.9-40.2-74.1c-2,1.5,1,1.7-1.4,2.5-11.5,4-21.7,10.3-33.8,10.2,11.3,46.5,33,137,44.2,160.4,31.1,64.6,58.6,65.3,85.8,28.7,14.8-20,13.4-65.1,13.4-65.1h0Z"/>
    <path class="st10" d="M886.5,679.2c8.1-10.4,19.5-22.9,25.2-34.8,7.1-15-4.2-59.1-.5-75.3,3.7-16.5,5.9-33.3,7.1-50.2,1.2-17,1.3-34,.9-51-.3-14.1,3.3-21.1,2.5-35.2-13,6.9-35,10.4-46.2,22.3-13.8,14.6-14.5,16.2-25.3,43.9-5.5,13.9-5.5,14.1-11.4,40.5-.8,3.6-14.4,65.7-13.8,66.2,8,7.2,8,5.9,24.2,13.9,2.7,1.3,17.5,9.5,20.2,8.2,5,4.3,11,11.2,13.7,20.2,3.7,12.4,3,27.2,3.5,31.3h0Z"/>
    <path class="st13" d="M859.7,498.1c1.9,3.6,3,7.8,3.7,11.8.7,4,1,8,.2,12-1.4,7.2-3.5,14.2-5.2,21.3-2.4,10.3-4.5,20.8-5.5,31.4-1.1,11.3-1.3,22.8.8,33.9,2,10.9,6.4,21.5,13.8,29.9.9,1.1,1.9,2.1,2.9,3.1.6.6,2.7-.3,2-.9-8.1-7.9-13.2-18.1-15.8-29.1-2.6-11.1-2.8-22.7-1.9-34.1.9-10.7,2.8-21.2,5.2-31.7,1.7-7.6,3.9-15.1,5.5-22.7.6-2.8.9-5.3.8-8.1-.3-5.7-1.5-11.6-4-16.8-.1-.3-.2-.5-.4-.8-.4-.8-2.5-.1-2.2.6h0Z"/>
    <path class="st3" d="M1102.5,604.4c7.2,13.6,12.2,28.3,14.6,43.5.1.7,1.6.3,1.4-.4-2.4-15.3-7.4-30.1-14.7-43.8-.3-.6-1.7,0-1.3.7h0Z"/>
    <path class="st3" d="M953.1,291.1c-2.3,0-3.9-2.5-4.1-4.6-.3-2.8,1.4-5.4,2.8-7.7.2-.2-.5-.2-.6-.2-.3,0-.7.1-.8.4-1.5,2.4-3.3,5.4-2.7,8.4.5,2.4,2.3,4.4,4.8,4.3.3,0,.8-.1,1-.4.2-.3-.1-.3-.3-.3h0Z"/>
    <path class="st25" d="M546.1,189.9c3.5.9,7.4-.3,9.7-3.1,2.3-2.9,2.6-7.1.6-10.2-.3-.5-1.7,0-1.3.6,1.6,2.7,1.6,6.3-.3,8.9-1.8,2.5-5,3.6-7.9,2.9-.3,0-.8,0-1,.3-.2.2-.2.6.2.6h0Z"/>
  </g>
</svg>