<?xml version="1.0" encoding="UTF-8"?>
<svg id="Layer_2" data-name="Layer 2" xmlns="http://www.w3.org/2000/svg" xmlns:xlink="http://www.w3.org/1999/xlink" viewBox="0 0 1163.28 1163.33">
  <defs>
    <style>
      .cls-1 {
        fill: none;
      }

      .cls-2 {
        fill: #171514;
      }

      .cls-3 {
        fill: #aa60a6;
      }

      .cls-4 {
        fill: #ababab;
      }

      .cls-5 {
        fill: #f1edf6;
      }

      .cls-6 {
        fill: url(#linear-gradient);
      }

      .cls-7 {
        fill: #a66e53;
      }

      .cls-8 {
        fill: #663d2e;
      }

      .cls-9 {
        fill: #020202;
      }

      .cls-10 {
        fill: #a66f54;
      }

      .cls-11 {
        fill: #a960a6;
      }

      .cls-12 {
        fill: #232f35;
      }

      .cls-13 {
        fill: #5e2c7f;
      }

      .cls-14 {
        fill: #43231b;
      }

      .cls-15 {
        fill: #cd8c2a;
      }

      .cls-16 {
        fill: #301912;
      }

      .cls-17 {
        fill: #653e2b;
      }

      .cls-18 {
        clip-path: url(#clippath);
      }
    </style>
    <clipPath id="clippath">
      <circle class="cls-1" cx="581.68" cy="581.74" r="581.59"/>
    </clipPath>
    <linearGradient id="linear-gradient" x1="584.08" y1="791.9" x2="570.79" y2="-371.21" gradientUnits="userSpaceOnUse">
      <stop offset=".11" stop-color="#bbe5f5"/>
      <stop offset=".63" stop-color="#76c7db"/>
    </linearGradient>
  </defs>
  <g class="cls-18">
    <circle class="cls-6" cx="581.68" cy="581.74" r="581.59"/>
    <path class="cls-12" d="M383.2,696.93c-.11.95-.21,1.9-.32,2.85l-.9,8.11c-.47,4.27-.95,8.54-1.42,12.81-.63,5.67-1.26,11.34-1.89,17.01l-2.27,20.51-2.61,23.49c-.96,8.67-1.92,17.35-2.89,26.02-1.03,9.26-2.05,18.51-3.08,27.77s-2.15,19.36-3.22,29.04l-3.31,29.87c-1.1,9.96-2.21,19.93-3.31,29.89s-2.18,19.64-3.27,29.46-2.11,19.05-3.17,28.57c-.99,8.96-1.99,17.92-2.98,26.88-.91,8.25-1.83,16.49-2.74,24.74-.82,7.37-1.63,14.74-2.45,22.11-.69,6.24-1.38,12.49-2.08,18.73-.55,4.96-1.1,9.92-1.65,14.88-.39,3.5-.78,7-1.16,10.5l-.6,5.45c-.03.23-.05.45-.08.68-.1.88,1.62.67,1.71-.12.11-.95.21-1.9.32-2.85l.9-8.11,1.42-12.81c.63-5.67,1.26-11.34,1.89-17.01l2.27-20.51,2.61-23.49,2.89-26.02c1.03-9.26,2.05-18.51,3.08-27.77s2.15-19.36,3.22-29.04l3.31-29.87c1.1-9.96,2.21-19.93,3.31-29.89s2.18-19.64,3.27-29.46,2.11-19.05,3.17-28.57l2.98-26.88c.91-8.25,1.83-16.49,2.74-24.74.82-7.37,1.63-14.74,2.45-22.11.69-6.24,1.38-12.49,2.08-18.73.55-4.96,1.1-9.92,1.65-14.88.39-3.5.78-7,1.16-10.5l.6-5.45c.03-.23.05-.45.08-.68.1-.88-1.62-.67-1.71.12h0Z"/>
    <path class="cls-8" d="M1004.6,666.85s3.48,11.12,8.03,15.09c4.55,3.97,32.8,19.67,32.8,19.67,0,0-31.59-12.24-36.04-16.46-4.46-4.23-4.88-19.92-4.88-19.92"/>
    <path class="cls-7" d="M941.89,539.58l4.41,96.77-4.55,18.26s9.76,50.97,13.12,61.35c3.36,10.37,37.38,58.3,37.38,58.3l-11,58.76,93.88-.6s5.25-51.83,9.52-59.11c3.58-10.68,3.89-22.19.88-33.05-2.18-10.02-11.93-70.82-11.93-70.82,0,0,11.8-75.9-4.3-73.22-3.91,1.14-7.69,2.69-11.27,4.64,0,0-5.87,49.25-11.48,52.19l-10.17-1.52s-7.3-68.88-11.04-80.86c-3.73-11.97-9.29-19.26-18.82-17.07,0,0-5.63,5.35-5.09,8.53.54,3.18,10.75,79.23,6.39,79.41-4.36.19-5-6.81-5-6.81,0,0-10.2-92.71-13.3-97.4-3.49-6.42-11.28-9.14-18-6.28l.74,52.99s-7.11-42.08-16.35-46.44c-4.58-2.61-10.35-1.8-14.04,1.96Z"/>
    <path class="cls-11" d="M1086.63,811.23l-101.71-23.33-30.06,153.93-23.83-104.84c-15.85-69.72-89.76-125.89-136.08-146.68-1.14-.51-2.4-.71-3.61-1.06l-70.61-21.58,121.81,500.36,18.79,36.58c12.63,21.98,32.97,38.49,57.09,46.3,44.44,14.75,85.94-4.72,112.23-42.13,20.28-28.86,31.57-63.08,34.14-98.25"/>
    <path class="cls-11" d="M304.4,1341.67s-.91,2.08-2.57,6.08c26.35,1.11,52.7,2.46,79.03,4.01,34.49,2.02,68.97,4.36,103.43,6.92,34.52,2.56,69.03,5.33,103.53,8.21,34.47,2.87,68.93,5.85,103.4,8.81,34.42,2.96,68.85,5.9,103.29,8.73,1.56.13,3.13.25,4.69.38-.41-2.43-.75-4.87-1-7.31-1.25-12.2-.82-24.58.97-36.71,29.88-202.53,52.77-257.75,53.64-288.01,1.25-43.51-67.49-365.72-67.49-365.72l-100.66-34.44-7.31,5.23-2.44-1.42s-.49,3.46,0,5.69l.42,3.01c-16.58,29.32-47.32,50.86-83.46,53.8-12.51,1.02-24.77,1.09-36.42.38-39.78-2.45-69.77-21.67-92.86-54.16l-.76-13.06-74.6,21.43-57.4,20.93-33.33,616.34,7.9,30.91Z"/>
    <path class="cls-13" d="M793.78,1205.69c.76-7.68,1.29-15.44.71-23.16-.23-3.09-.86-6.23-.28-9.31.35-1.89,1.05-3.71,1.79-5.48s1.4-3.42,2.39-4.96c1.43-2.22,3.32-4.18,5.19-6.1,5.87-6.03,12.08-11.71,17.78-17.92,7.47-8.12,14.23-16.94,19.56-26.62,6.35-11.52,10.59-24.16,12.3-37.21,2.18-16.62.35-33.55-3.95-49.69-1.41-5.29-3.18-10.46-4.78-15.69-1.67-5.44-3.21-10.92-4.62-16.44-2.45-9.65-4.47-19.41-5.89-29.27-2.11-14.61-2.95-29.5-1.5-44.21.88-8.9,2.59-17.81,5.73-26.2,1.35-3.62,2.99-7.13,5.1-10.36.09-.13.18-.26.28-.39.34-.44-.29-.73-.62-.77-.54-.07-1.1.21-1.43.63-1.61,2.08-2.78,4.6-3.84,6.98-3.15,7.06-5.11,14.64-6.35,22.26-2.12,12.91-2.18,26.13-1.09,39.14,1.65,19.79,6.01,39.31,11.78,58.29,2.99,9.86,6.19,19.55,7.96,29.73,1.44,8.27,2.16,16.68,1.91,25.08-.4,13.91-3.47,27.68-9.22,40.36-4.77,10.5-11.23,20.13-18.69,28.89-5.9,6.93-12.42,13.25-18.91,19.62-2.3,2.26-4.62,4.53-6.69,7s-3.43,5.2-4.68,8.24-2.11,6.19-1.88,9.61c.31,4.73.79,9.37.69,14.12s-.46,9.37-.93,14.03c-.1.99,2.1.63,2.19-.22h0Z"/>
    <path class="cls-11" d="M121.34,1169.61l-11.83-63.37,76.53-274.76c7.68-28.66,52.84-101.69,108.62-123.21l64.66-25.06-54.44,512.09-13.78,38.75c-9.6,23.46-27.58,42.52-50.45,53.46-42.09,20.51-85.81,6.7-116.82-26.88-23.93-25.92-39.65-58.34-46.86-92.86"/>
    <path class="cls-13" d="M332.85,1210.01c-.8-8.05-1.33-16.18-.6-24.25.31-3.41.72-6.65-.26-9.99-1.05-3.59-2.59-7.35-4.86-10.36-1.97-2.63-4.32-4.97-6.63-7.3-6.88-6.93-13.86-13.75-20.06-21.31-8.14-9.92-14.98-20.91-19.64-32.89-5.8-14.9-8.06-30.95-7.24-46.89.52-9.96,2.17-19.85,4.63-29.51,1.53-6,3.4-11.92,5.03-17.89s3.02-11.4,4.36-17.15c4.07-17.44,7.25-35.29,7.73-53.23.28-10.43-.28-21.13-3.27-31.19-1.6-5.38-3.97-10.74-7.71-14.99-1.55-1.77-3.48-3.57-5.68-4.5-.1-.04-.19-.08-.29-.12-.48-.17-1.11-.07-1.54.21-.23.16-.71.64-.2.82,1.6.55,2.69,1.5,3.95,2.66,3.55,3.24,5.98,7.57,7.74,11.99,3.4,8.55,4.53,17.93,4.82,27.06.51,16.08-1.7,32.22-4.78,47.96-2.2,11.27-4.95,22.43-8.04,33.49-3,10.76-6.16,21.37-7.72,32.46-2.35,16.68-1.76,33.82,2.9,50.07,3.68,12.82,9.81,24.81,17.62,35.6,6.23,8.6,13.49,16.34,21,23.83,2.75,2.74,5.54,5.44,8.17,8.31,1.9,2.08,3.69,4.22,4.88,6.79,1.69,3.66,3.47,7.52,3.33,11.64-.06,1.77-.3,3.53-.45,5.3-.26,3.01-.34,6.03-.3,9.06.07,4.99.45,9.97.94,14.93.07.68,2.25.22,2.17-.58h0Z"/>
    <path class="cls-13" d="M955.52,946.04c-1.24,4.34-2.43,8.7-3.61,13.05-2.95,10.88-5.8,21.8-8.54,32.74-3.6,14.35-7.01,28.75-10.15,43.21-3.17,14.6-6.08,29.27-8.34,44.04-1.8,11.73-3.4,23.66-3.23,35.55.02,1.12.05,2.23.11,3.35.02.37,2.21.01,2.17-.58-.62-11.35.81-22.84,2.4-34.05,2.08-14.67,4.89-29.24,7.96-43.73,3.09-14.56,6.48-29.07,10.05-43.52,2.84-11.47,5.8-22.92,8.87-34.33.97-3.62,1.96-7.24,2.96-10.85.31-1.1.61-2.2.92-3.3.15-.53.46-1.18.49-1.74,0-.07.04-.15.06-.22.12-.43-1.99-.16-2.14.38h0Z"/>
    <path class="cls-8" d="M949.69,631.36c4.87-10.39,9.75-20.78,14.62-31.17.69-1.47,1.38-2.95,2.07-4.42l-1.67.58c3.04.5,6.06,2.25,8.33,4.27,2.46,2.18,4.31,4.94,5.49,8,1.82,4.74,1.89,9.73,1.78,14.74-.19,8.24-.75,16.59-2.48,24.67-.2.93-.61,1.94-.65,2.88-.08,1.74.3,3.62.44,5.35.47,5.67.93,11.34,1.4,17.02.02.19.29.3.43.34,4.56,1.43,9.12,3.72,13.37,6.08,10,5.55,19.1,12.8,26.46,21.56,5.27,6.28,9.58,13.3,12.76,20.86.34.82,2.49.17,2.17-.58-5.4-12.85-14.04-24.04-24.8-32.85-7.16-5.86-15.15-10.78-23.66-14.41-1.63-.7-3.29-1.38-4.99-1.92l.43.34c-.41-4.99-.82-9.98-1.23-14.98-.19-2.35-.36-4.71-.58-7.05-.05-.52-.08,0,.05-.45.16-.54.28-1.09.41-1.64,1.75-7.65,2.34-15.6,2.59-23.42.17-5.19.37-10.46-1.17-15.49-1-3.28-2.7-6.38-5.09-8.86-2.62-2.72-6.35-5.1-10.15-5.72-.5-.08-1.42.03-1.67.58-4.87,10.39-9.75,20.78-14.62,31.17-.69,1.47-1.38,2.95-2.07,4.42-.47,1,1.71.82,2.04.11h0Z"/>
    <path class="cls-8" d="M1000.44,651.75c4.1-.62,8.31-.72,12.44-.67,9.49.1,19.06,1.43,28.08,4.45,6.1,2.04,11.91,4.88,17.16,8.61.58.42,2.55-.45,2.03-.82-15.6-11.1-35.86-14.47-54.66-13.13-1.57.11-3.15.23-4.71.47-.32.05-1.22.26-1.25.7s.6.44.92.4h0Z"/>
    <path class="cls-7" d="M670.58,643.17c-2.09-6.65-.24-77.39-.24-77.39l-104.65,16.09-104.65-16.09s2.09,78.12,0,84.77c-2.09,6.65-12.39,6.78-12.39,6.78,0,0,18.15,89.65,117.04,83.18s123.68-85.41,123.68-85.41c0,0-16.7-5.28-18.79-11.92Z"/>
    <circle class="cls-1" cx="581.59" cy="581.59" r="581.59"/>
    <path class="cls-10" d="M670.77,639.64c-2.07-6.56-.23-67.39-.23-67.39l-103.67,15.97-103.67-15.97s2.05,68.11,0,74.62-21.37,10.31-21.37,10.31c0,0,34.88,100.97,125.04,100.97s123.65-103.93,123.65-103.93c0,0-17.69-7.97-19.74-14.58Z"/>
    <path class="cls-14" d="M455.37,578c1.74,1.24,14.44,17.08,16.28,18.32,45.18,30.17,51.84,38.39,90.9,39.91,39.01-1.5,55.75-6.56,97.71-43.41,14.1-12.44,11.02-16.59,14.1-18.79-70.06-.29-148.82,3.52-218.99,3.97Z"/>
    <path class="cls-10" d="M385.51,369.12s-19.88-30.51-31.1-29.26c-6.87.73,9.02,16.17,10.96,33.69,2.59,23.48-14.67,26.39-9.23,39.63,5.44,13.24,12.49,59.43,30.66,57.46,7.21-.78,14.59-16.74,14.59-16.74,0,0-9.95-63.91-15.89-84.78Z"/>
    <path class="cls-15" d="M390.36,455.28c-7.78.86-15.19,6.32-16.07,14.54-.4,3.68.59,7.38,2.77,10.37,1.65,2.23,3.96,3.88,6.61,4.72,5.69,2.02,12,1.19,16.98-2.23.86-.57,1.53-1.79.39-2.59-1.3-.56-2.8-.39-3.94.44-2.92,1.95-6.62,2.33-9.87,1.01-.9-.33-1.77-.75-2.59-1.24,0,0-.54-.36-.23,0-.68-.54-1.29-1.17-1.81-1.87-3.66-4.49-3.8-10.9-.34-15.55.9-1.22,2.05-2.22,3.37-2.95-.34.18,0,0,0,0l.75-.36.54-.23h.26c.76-.26,1.56-.42,2.36-.49,1.06,0,2.9-.75,3.08-2.05s-1.56-1.58-2.59-1.48l.34-.03Z"/>
    <path class="cls-10" d="M738.89,370.86s16.69-32.37,28.02-32.29c6.92,0-7.31,17-7.49,34.58-.26,23.48,17.24,24.78,13.19,38.51-4.04,13.74-6.45,60.36-24.73,60.23-7.26,0-16.22-15.19-16.22-15.19,0,0,3.53-64.51,7.23-85.84Z"/>
    <path class="cls-10" d="M752.16,387.35h0c-4.02,20.45-8.99,41.96-12.44,66.66-9.07,65.13-19.96,106.97-69.8,130.06-49.84,23.09-58.06,38.75-98.13,40.23-40.04-1.48-55.02-13.61-106.6-33.69-47.51-18.43-62.49-71.53-71.56-136.67-2.02-14.54-4.56-27.94-7.05-40.69-1.89-9.41-3.84-18.58-5.6-27.47v-.49c-6.38-32.71-10.37-62.88-1.5-99.32,9.02-37.69,40.23-84.55,87.63-114.04h0c29.84-18.7,64.34-28.63,99.55-28.64,102.77,0,173.03,82.94,187.39,142.84,8.92,37.19,4.72,67.83-1.89,101.24Z"/>
    <path class="cls-9" d="M579.9,479.51c-5.96,3.37-13.33,3.01-18.95-.91-1.19-.86-5.18,0-3.55,1.27,7.83,5.05,17.8,5.35,25.92.78.73-.47.6-1.06-.26-1.37-1-.34-2.1-.26-3.03.23"/>
    <path class="cls-9" d="M554.71,478.09c-4.39-1.99-9.11-3.17-13.92-3.47-.76-.03-1.52.21-2.13.67-.41.36-.49.83,0,1.14,2.34,1.24,4.97,1.84,7.62,1.74.88.08,1.75-.26,2.36-.91.44-.65-.36-1.06-.98-1.06-2.15.08-4.29-.4-6.19-1.4l-2.07,1.81c4.3.27,8.52,1.32,12.44,3.11.86.33,1.82.22,2.59-.29.52-.29,1.06-.98.31-1.35"/>
    <path class="cls-9" d="M535.82,478.66c-5.08-.03-9.82-2.57-12.65-6.79-3.52-6.35-.26-13.89,5.68-17.96.62-.44.31-1.04-.36-1.19-.92-.14-1.85.1-2.59.65-5.24,3.22-8.24,9.1-7.78,15.24.75,5.57,5.18,9.41,10.99,11.09,1.69.49,3.43.77,5.18.86.73,0,2-.23,2.33-.91s-.31-.96-.98-.98"/>
    <path class="cls-9" d="M585.53,478.09c4.39-1.99,9.11-3.16,13.92-3.47.77-.03,1.53.21,2.15.67.39.36.49.83,0,1.14-2.35,1.24-4.99,1.84-7.65,1.74-.88.08-1.74-.26-2.33-.91-.44-.65.36-1.06,1.01-1.06,2.14.09,4.27-.4,6.17-1.4l2.1,1.81c-4.31.27-8.54,1.32-12.47,3.11-.86.34-1.83.23-2.59-.29-.52-.29-1.09-.98-.31-1.35"/>
    <path class="cls-9" d="M604.45,478.66c5.08-.03,9.82-2.57,12.65-6.79,3.52-6.35.26-13.89-5.68-17.96-.65-.44-.31-1.04.34-1.19.92-.13,1.85.11,2.59.67,5.23,3.24,8.23,9.13,7.78,15.27-.73,5.57-5.18,9.41-10.96,11.09-1.69.49-3.43.77-5.18.86-.75,0-2.02-.26-2.36-.91s.31-.96.98-.98"/>
    <path class="cls-4" d="M615.26,326.88v19.65c10.37-2.36,19.05-4.04,25.92-5.18,14.1-2.33,21.15-3.32,29.42-2.07,6.45,1.04,12.76,2.83,18.79,5.34,3.44,1.21,6.74,2.78,9.85,4.69,7.05,4.56,9.8,9.75,10.94,9.28s-.7-4.95-.86-5.42c-3.11-7.51-8.24-14.02-14.83-18.79-5.83-3.73-12.28-6.36-19.05-7.78-8.06-1.89-30.53-3.16-60.13.23"/>
    <path class="cls-2" d="M650.95,371.61c4.61-1.96,9.95-.99,13.58,2.46,1.74,1.51,3.01,3.48,3.68,5.68.97,4.07-.14,8.36-2.98,11.43-3.5,3.55-8.87,4.49-13.37,2.36-5.36-2.88-7.99-9.1-6.32-14.95.78-2.99,2.73-5.53,5.42-7.05"/>
    <path class="cls-2" d="M613.16,389s25.35-18.45,38.33-19.65c18.95-1.74,42.27,7.96,48.96,16.61,0,0-30.87-14.49-44.06-12.96-12.83,1.58-43.23,15.99-43.23,15.99Z"/>
    <path class="cls-4" d="M523.95,327.29v19.62c-10.37-2.33-19.1-4.04-25.92-5.18-14.07-2.23-21.12-3.32-29.42-2.1-6.45,1.04-12.76,2.85-18.79,5.37-3.45,1.28-6.75,2.93-9.85,4.92-7.05,4.69-9.82,9.77-10.96,9.38s.7-4.95.88-5.42c3.11-7.51,8.24-14.02,14.83-18.79,5.8-3.76,12.24-6.45,19-7.93,8.11-1.87,30.53-3.14,60.18.26"/>
    <path class="cls-2" d="M488.2,372c-4.72-2.59-10.37-.34-13.61,2.36-1.74,1.5-3.01,3.47-3.65,5.68-.98,4.06.13,8.35,2.95,11.43,3.5,3.55,8.87,4.49,13.37,2.36,5.36-2.88,7.99-9.1,6.32-14.95-.76-2.99-2.71-5.53-5.39-7.05"/>
    <path class="cls-2" d="M525.94,389.37s-25.32-18.43-38.28-19.62c-18.92-1.74-42.27,7.96-48.96,16.61,0,0,30.84-14.49,44.06-12.96,12.67,1.58,43.18,15.97,43.18,15.97Z"/>
    <path class="cls-15" d="M743.58,459.92c6.22.2,11.46,4.69,12.6,10.81.57,2.97.08,6.04-1.4,8.68-.38.7-.83,1.36-1.35,1.97-.13.18-.29.34-.41.49s-.34.41-.13.23h0l-.73.52-.23.16c-.27.18-.54.34-.83.49-1.07.64-2.26,1.03-3.5,1.14-2.26.15-4.51-.36-6.48-1.48-1.18-.47-2.5-.41-3.63.16-.31,0-2.59,1.32-1.58,1.87,4.69,2.46,10.21,2.8,15.16.91,2.64-.78,5.06-2.17,7.05-4.07,5.2-5.58,5.2-14.24,0-19.83-3.23-3.14-7.6-4.84-12.1-4.69-1.37-.05-2.7.47-3.68,1.43-.73,1.04.6,1.22,1.37,1.22h-.13Z"/>
    <path class="cls-17" d="M571.19,514.92c-29.57,0-77.5-3.37-77.5-3.37,0,0,8.94,67.39,77.5,67.39s77.5-67.39,77.5-67.39c0,0-47.9,3.37-77.5,3.37Z"/>
    <path class="cls-16" d="M571.48,514.92c-14.07,0-70.78-2.33-70.78-2.33,13.72,25.57,40.64,41.25,69.64,40.59,55.18,0,71.38-40.17,71.38-40.17l-70.24,1.92Z"/>
    <path class="cls-5" d="M572.15,516.96c-14.1,0-57.02-2.36-57.02-2.36,0,0,15.55,14.98,57.64,14.98s55.6-14.54,55.6-14.54l-56.22,1.92Z"/>
    <path class="cls-17" d="M651.98,507.4c-1.5-.34-9.69,2.36-16.67,1.71-11.74-.98-25.92-3.97-34.16-4.59-14.44-1.09-23.48,4.46-29.83,4.46s-15.4-5.55-29.83-4.46c-8.42.62-22.52,3.6-34.16,4.59-7.05.57-15.16-2.05-16.67-1.71-2.07.49,1.94,15.34,80.68,15.34s82.58-14.9,80.63-15.34Z"/>
    <path class="cls-4" d="M387.92,268.93s140.09-21.88,164.79-59.12c-2.59,4.02,26.18,24.31,28.51,25.58,24.18,13.71,53.08,18.14,78.12,8.71,9.54-3.58,9.54-5.18,15.86-12.96,0,0,25.35,52.93,63.29,59.61,0,0-44.5-96.6-162.35-98.31-.1.29-96.68-49.34-188.22,76.49Z"/>
    <path class="cls-4" d="M397.39,296.92s-20.86,39.1-19.48,56.37,11.3,73.13,11.3,73.13c0,0-29.28-4.2-27.3-34.44s-12.49-19.56-16.97-43.25-22.4-48.56-9.71-70.06c12.69-21.5,6.5-38.27,5.21-57.44-1.29-19.17,14.32-72.67,47.49-87.85s34.78-4.79,50.78-15.17c16-10.38,24.07-43.78,51.4-43.78s32.3,6.39,46.62,6.39,53.89-8.78,72.56-6.39,54.35,23.16,54.64,35.94c0,0,12.24-11.18,32.4-7.19s46.03,17.12,56.71,45.07c10.68,27.95,22.93,22.36,35.1,43.92,12.17,21.56,10.67,42.33,7.69,64.69-2.99,22.36-5.7,11.18-9.43,37.53s3.27,31.51-6.86,66.59c-10.14,35.08-24.04,38.02-24.46,51-.42,12.97-12.36,23.17-12.36,23.17,0,0,5.75-27.95,6.13-59.56.37-31.62,1.15-41.28-2.03-66.33-3.18-25.05-8.31-18.51-8.31-18.51-17.49-32.17-81.69-72.64-81.69-72.64l-118.48-15.6-82.96,36.36-57.98,58.05Z"/>
    <path class="cls-14" d="M615.53,396.66c6.51,8.37,15.03,14.94,24.92,18.83s20.33,4.91,30.68,3.97c6.29-.57,12.5-1.89,18.53-3.78.52-.16,1.39-.61,1.21-1.3s-1.19-.68-1.69-.52c-19.35,6.05-41.15,5.67-58.26-6.24-4.85-3.38-9.08-7.53-12.71-12.19-.74-.95-3.52.13-2.66,1.23h0Z"/>
    <path class="cls-14" d="M523.57,398.18c-6.25,8.04-14.35,14.38-23.86,18.12s-19.37,4.6-29.21,3.66c-5.93-.57-11.75-1.83-17.43-3.61-.67-.21-1.59.02-2.05.55-.43.49-.3,1.08.34,1.28,20.3,6.35,43.31,5.84,61.27-6.58,5.07-3.5,9.54-7.83,13.32-12.69,1.11-1.42-1.65-1.69-2.39-.74h0Z"/>
    <path class="cls-14" d="M491.73,281.72c28.1-2.05,56.37-1.39,84.34,2,7.91.96,15.79,2.13,23.64,3.52,1.42.25,2.94-1.75,1.01-2.09-27.99-4.93-56.43-7.15-84.85-6.62-7.97.15-15.93.52-23.87,1.1-1.62.12-2.24,2.25-.26,2.11h0Z"/>
  </g>
  <g>
    <path class="cls-3" d="M448.65,657.32s31.06,85.7,107.37,86.48,110.7-36.34,128.61-91.21l25.83,6.1s-22.14,105.58-138.91,111.81-148.3-107.36-148.3-107.36l25.39-5.82Z"/>
    <path class="cls-13" d="M447.2,657.71c.9,2.47,1.98,4.89,3.08,7.28,2.82,6.14,6.01,12.12,9.52,17.9,4.84,7.97,10.31,15.58,16.43,22.61,7.03,8.06,14.95,15.41,23.76,21.48,9.64,6.65,20.38,11.76,31.72,14.71,13.74,3.58,27.96,3.69,42.04,2.62,13.74-1.04,27.41-3.6,40.34-8.4,11.1-4.12,21.55-9.95,30.71-17.47,8.74-7.18,16.21-15.77,22.41-25.21,6.52-9.94,11.66-20.73,15.81-31.86,1.06-2.85,2.06-5.72,3-8.6l-2.22.81c7.53,1.78,15.06,3.56,22.58,5.33l3.25.77-.63-.87c-.81,3.83-1.84,6.93-3.12,10.64-3.12,9.05-7.1,17.81-11.79,26.15-6.46,11.48-14.36,22.16-23.58,31.58-11.25,11.49-24.49,20.95-39.02,27.84-18.14,8.6-37.98,13.06-57.96,14.31-19.62,1.23-39.48-.84-58.08-7.37-15.31-5.37-29.46-13.67-41.79-24.2-10.5-8.97-19.63-19.49-27.37-30.91-6.01-8.85-11.22-18.26-15.54-28.05-2.21-5-4.25-10.12-5.84-15.36-.07-.23-.14-.46-.21-.7l-1.18,1.39c7.39-1.69,14.78-3.39,22.17-5.08,1.07-.25,2.15-.49,3.22-.74,1.81-.42,1.26-2.41-.54-2-7.39,1.69-14.78,3.39-22.17,5.08-1.07.25-2.15.49-3.22.74-.57.13-1.37.71-1.18,1.39,1.04,3.76,2.46,7.43,3.92,11.04,3.7,9.17,8.18,18.04,13.34,26.48,7.01,11.49,15.33,22.21,24.96,31.63,11.37,11.12,24.5,20.34,38.99,26.93,17.19,7.82,35.98,11.69,54.82,12.16,21.11.52,42.59-2.54,62.46-9.81,16.14-5.9,31.18-14.61,44.16-25.89,10.76-9.35,20.03-20.29,27.71-32.28,5.78-9.02,10.65-18.62,14.53-28.6,2-5.17,3.81-10.46,5.09-15.86.06-.24.11-.48.17-.73.08-.38-.28-.79-.63-.87-7.53-1.78-15.06-3.56-22.58-5.33l-3.25-.77c-.69-.16-1.95-.03-2.22.81-3.7,11.32-8.25,22.41-14.12,32.79-5.5,9.73-12.22,18.78-20.26,26.56s-17.55,14.23-27.78,18.97c-11.73,5.44-24.39,8.71-37.18,10.41-7.47.99-15.01,1.48-22.55,1.58-6.86.09-13.67-.22-20.44-1.38-11.54-1.98-22.64-6.2-32.7-12.19-9.25-5.51-17.62-12.43-25.04-20.21-6.6-6.92-12.48-14.51-17.7-22.51-3.97-6.08-7.58-12.42-10.76-18.95-1.61-3.31-3.1-6.67-4.45-10.09-.06-.15-.12-.3-.17-.46-.48-1.32-3.37-.51-2.9.78Z"/>
  </g>
  <path class="cls-14" d="M504.33,488.32c-8.65.51-15.57,6.6-20.2,13.5-5.37,8.01-8.65,17.59-9.88,27.12-.71,5.47-.71,11.02-.05,16.5.13,1.06,3.04.4,2.9-.78-1.1-9.16-.22-18.5,2.53-27.3,2.51-8.02,6.51-16.24,12.81-21.98,3.24-2.95,7.12-5.05,11.55-5.32.53-.03,1.56-.4,1.63-1.03.08-.69-.81-.74-1.27-.71h0Z"/>
  <path class="cls-14" d="M636.62,490.07c8.18.49,14.47,6.96,18.59,13.51,4.87,7.73,7.84,16.75,8.98,25.79.66,5.26.66,10.57.03,15.84-.15,1.24,2.78.75,2.91-.32,1.16-9.66.2-19.55-2.86-28.79-2.77-8.37-7.17-17.04-14.13-22.69-3.58-2.91-7.78-4.82-12.42-5.1-.6-.04-1.63.21-1.91.82s.24.92.81.95h0Z"/>
</svg>