<?xml version="1.0" encoding="UTF-8"?>
<svg xmlns="http://www.w3.org/2000/svg" xmlns:xlink="http://www.w3.org/1999/xlink" viewBox="0 0 1334 1000">
  <defs>
    <style>
      .cls-1 {
        fill: #815639;
      }

      .cls-2 {
        stroke: #4f2e25;
        stroke-width: .5px;
      }

      .cls-2, .cls-3 {
        fill: none;
        stroke-miterlimit: 10;
      }

      .cls-4 {
        fill: #66412f;
      }

      .cls-5 {
        fill: #091722;
      }

      .cls-6 {
        fill: #638e9f;
      }

      .cls-7 {
        fill: #9871aa;
      }

      .cls-8 {
        fill: #0d1232;
      }

      .cls-9 {
        fill: #151212;
      }

      .cls-10 {
        fill: #320f43;
      }

      .cls-11 {
        fill: #8058a2;
      }

      .cls-12 {
        fill: #9e6a41;
      }

      .cls-13 {
        fill: #24170e;
      }

      .cls-14 {
        fill: url(#linear-gradient);
      }

      .cls-15 {
        fill: #804388;
      }

      .cls-16 {
        fill: #8d6528;
      }

      .cls-17 {
        fill: #f0ecf5;
      }

      .cls-18 {
        fill: #cd8c2a;
      }

      .cls-3 {
        stroke: #000;
        stroke-width: .96px;
      }

      .cls-19 {
        fill: #083325;
      }

      .cls-20 {
        fill: #a66e53;
      }

      .cls-21 {
        fill: #384259;
      }

      .cls-22 {
        fill: #7c5443;
      }

      .cls-23 {
        fill: #543f19;
      }

      .cls-24 {
        fill: #b7b7b7;
      }

      .cls-25 {
        fill: #643b2a;
      }

      .cls-26 {
        fill: #745145;
      }

      .cls-27 {
        fill: #384044;
      }

      .cls-28 {
        fill: #381c13;
      }

      .cls-29 {
        fill: #dbdbda;
      }

      .cls-30 {
        fill: #14110f;
      }

      .cls-31 {
        fill: #0f294b;
      }

      .cls-32 {
        fill: #513834;
      }

      .cls-33 {
        fill: #321042;
      }

      .cls-34 {
        fill: #3b5b2c;
      }

      .cls-35 {
        fill: #dd8a27;
      }

      .cls-36 {
        fill: #f2ead0;
      }

      .cls-37 {
        fill: #4f2e25;
      }

      .cls-38 {
        fill: #739287;
      }
    </style>
    <linearGradient id="linear-gradient" x1="7965.36" y1="492.93" x2="7990.61" y2="-106.47" gradientTransform="translate(9230.54) rotate(-180) scale(1 -1)" gradientUnits="userSpaceOnUse">
      <stop offset=".29" stop-color="#bae4f4"/>
      <stop offset=".81" stop-color="#76c5da"/>
    </linearGradient>
  </defs>
  <g id="Layer_3" data-name="Layer 3">
    <polyline class="cls-36" points="1388.2 1002.44 1388.2 -7.55 -34.35 -7.55 -34.35 1002.44"/>
    <path class="cls-22" d="M605.23,857.73h129.77c18.61,0,22.06,8.81,22.03,26.85,0,16.58-3.72,26.32-22.55,26.36-4.24,0-8.57.47-12.7-.08-12.45-1.68-14.96,2.93-13.32,12.56,15.92,93.94,31.47,181.45,47.37,275.41,1.07,6.4.1,8.93-8.51,9.04-21.48.27-21.92.69-24.9-16.87-10.15-59.93-20.03-119.89-29.65-179.88-1.3-8.16-4.62-10.62-14.29-10.55-49.18.41-98.38.41-147.59,0-9.44-.08-12.19,2.8-13.35,10.17-10.09,63.19-20.66,126.34-30.82,189.52-.95,5.89-3.83,7.64-10.67,7.75-22.13.34-22.73.49-19.89-17.22,10.31-64.24,21.02-128.45,31.66-192.65,4.52-27.3,9.03-48.14,13.96-75.39,1.53-8.44-.25-13.17-11.81-11.57-2.47.35-5.1-.1-7.62.07-33.18,2.35-30.48-21.35-28.55-43.27.75-8.51,9.55-10.51,19.12-10.46,44.11.22,88.21,5.48,132.32,5.48v-5.27ZM604.25,979.02c24.56,0,49.14-.19,73.69.12,7.52.08,10.85-1.29,9.64-8.44-3.97-21.92-7.56-28.64-10.97-50.62-1.04-6.67-3.8-9.49-12.7-9.37-38.95.49-77.93.57-116.91,0-9.64-.16-12.34,2.94-13.41,10-3.28,21.29-6.76,27.29-10.63,48.5-1.34,7.35.63,10.18,10.16,9.98,23.62-.57,47.36-.18,71.14-.18Z"/>
    <path class="cls-4" d="M487.92,998.21c-1.61,9.91-3.25,19.81-4.93,29.72,10.31,2.02,20.49,4.41,30.77,6.88,1.29-8,2.58-15.99,3.87-24,1.21-7.38,3.92-10.26,13.35-10.18,49.2.43,98.4.43,147.59,0,9.64-.08,12.99,2.41,14.28,10.53,1.25,7.78,2.49,15.54,3.75,23.3,9.86-3.55,19.52-7.65,28.93-12.28-5.63-32.47-11.26-65.16-16.87-98.68-.57-2.57-.59-5.22-.06-7.8-6.73.45-13.46.8-20.2,1.05-4.12.16-8.25.29-12.39.37.32,1,.55,2.03.7,3.07,3.42,22,7.01,28.71,10.98,50.62,1.28,7.09-2.09,8.44-9.64,8.44-24.55-.3-49.13-.11-73.69-.11s-47.45-.35-71.11.17c-9.53.22-11.5-2.63-10.16-9.97,3.87-21.21,7.35-27.22,10.63-48.51.21-2.37,1.04-4.65,2.41-6.59-11.68-.36-23.36-.65-35.05-.78,1.59,2.05,1.65,5.28.9,9.39-4.99,27.22-9.53,48.05-14.05,75.35Z"/>
    <path class="cls-8" d="M502.53,654.03s-69.96,108.16-27.04,189.44c20.45,38.71,81.64,38.67,81.64,38.67l62.77-78.93v-130.54l-117.36-18.64Z"/>
    <path class="cls-8" d="M874.67,733.32c-3.39-2.9-26.39-12.83-30.23-15.24-125.86-10.65-301.98,3.94-301.98,3.94,0,0-90.9,28.72-64.43,108.37,35.09,105.56,296.22,36.96,385.82,4.16.43-.16.84-.32,1.26-.48.52-6.12,1.34-12.22,2.39-18.24,2.38-13.61,5.98-26.96,10.44-39.93,4.54-13.21,3.02-15.25,9.47-27.5-5.82-7.57-5.5-8.9-12.75-15.08Z"/>
    <rect class="cls-14" x="984.41" y="-18.96" width="538.72" height="482.2"/>
    <path class="cls-34" d="M1118.37,27.41s-18.2-9.57-16-25.58c0,0,23.54-.63,28.56,10.04,0,0-10.36-9.21-7.85-19.82l2.51-10.62,30.75,3.14-9.73,32.64"/>
    <g>
      <path class="cls-34" d="M1027.72,125.19c.63-24.52,20.97-23.69,20.97-23.69v.02c2.31-7.12,6.76-13.72,13.4-18.82l-13.64,4.21c1.43-7.87,5.42-15.29,11.56-21.48l-18.1,6.55c3.68-12.91,18.96-23.04,35.33-23.38l2.99-2.1c-8.26-6.32-15.25-13.66-20.75-21.72,6.17.65,12.35,1.21,18.54,1.71,6.15,2.25,11.61,5.75,15.78,10.28-1.46-2.97-2.14-6.12-2.15-9.29,4.18.27,8.35.52,12.53.73-.93,2.56-1.98,5.09-3.15,7.58,2.12-2.62,4.51-5.09,7.11-7.39,1.23.06,31.26-39.37,32.49-39.32,72.73,3.19,124.4,2.2,197.08,0,63.14-1.91,118.51-4.78,181.67-4.48v241.08s-1.18-.72-1.18-.72c-18.94,3.62-11.46-1.37-28.06,6.89,10.42,8.17,3.02,21.79-1.46,26.29-10.19-6.16-20.38-12.31-30.59-18.45,8.88,8.04,12.27,19.14,9.05,29.63-6.16-8.4-14.52-15.59-24.5-21.05,6.9,9.6,8.61,21.1,4.72,31.76-8.84-8.63-15.38-18.66-19.18-29.46.55,12.76-5.38,25.14-16.38,34.23-.64-8.78-1.28-17.55-1.91-26.31-4.64,10.97-9.28,21.96-13.94,32.97-8.03-11.38-8.69-25.24-1.76-37.09-11.79-3.51-24.82-3.05-36.2,1.27-14.11,10.2-35.82,8.81-47.79-3.07l-3.69-3.66c4.2,8.52,4.66,17.96,1.29,26.73-3.36-10.28-9.34-19.86-17.56-28.13,4.26,11.02,4.88,22.75,1.81,34.03-11.08-8.94-16.99-21.28-16.28-33.97-4.19,6.31-8.37,12.66-12.54,19.05-4.22-8.64-4.28-18.25-.17-26.92-7.07,3.45-12.94,8.3-17.09,14.1-3.53-8.08-1.35-17.09,5.69-23.48l-23.25-6.58-8.95,28.41s-9.41-2.04-11.92-19.92c-.9-6.4.39-10.74,2.39-13.72l-14.06-3.98c-4.49,5.64-7.09,12.13-7.54,18.84-5.38-5.49-9.14-11.92-11-18.77-3.1,5.49-6.2,10.98-9.3,16.47-4.83-4.55-7.37-10.42-7.11-16.43-1.87-1.34-3.52-2.83-5.06-4.39-60.28,22.15-98.13-30.21-100.24-44.29-1.15-7.69.74-17.33,2.94-25.12-7.1-6.96-11-15.88-11.62-24.99l-19.25,9.32Z"/>
      <path class="cls-12" d="M1349.72,245.91s-6.42,15.36-6.36,26.5c.06,11.14-2.67,23.43-1.78,36.11.89,12.68,12.22,165.18,12.22,165.18l-50.91.61s3.4-136.44,4.67-163.04c1.11-23.4,42.17-65.36,42.17-65.36Z"/>
      <path class="cls-12" d="M1381.3,221.08l62.56-60.39-4.66-9.17-52.88,51.93-33.66,28.64,35.46-116.95-5.19-4.4-29.27,67.79-21.6-30.68h-3.56l25.17,36-12.56,59.32-21.39,19.48c-.38-1.62-.76-3.06-1.09-4.21l-23.76-55.36,17.92-59.71-4.03-2.05s-16.87,44.16-19.4,46.65c-2.53,2.49-20.6-45-20.6-45l-29.37-62.26-9.71,5.3,28.02,58.19-35.55-27.18-3.24,3.36,33.27,29.52s26.65,41.73,25.63,45.81-78.42-20.05-78.42-20.05l-2.54,4.71s70.87,23.12,76.39,30.49c5.53,7.37,16.63,31.09,19.09,38.86,1.96,6.05,6.24,14.59,5.94,18.07,0,0,9.92,21.5,10.7,49.11-4.71,12.46,5.82,28.44,4.21,41.41l2.79,29.17,13.83-22.76-2.26-11.34c-1.31-30.77,12.17-65.77,12.89-75.44l39.39-51.12,55.28-20.04v-3.69s-53.77,18-53.77,18Z"/>
      <polygon class="cls-12" points="1263.37 143.62 1300.71 70.68 1308.88 75.93 1270.37 156.46 1263.37 143.62"/>
      <polygon class="cls-12" points="1380.08 115.54 1333.61 48.05 1349.31 53.24 1394.71 115.47 1380.08 115.54"/>
      <path class="cls-34" d="M1244.63,222.41s2.59,7.76-6.79,16.8l-9.37,9.05s-5.17-19.71,1.94-25.85c7.11-6.14,14.22,0,14.22,0Z"/>
      <path class="cls-34" d="M1209.98,212.17s2.59,7.76-6.79,16.8l-9.37,9.05s-5.17-19.71,1.94-25.85c7.11-6.14,14.22,0,14.22,0Z"/>
    </g>
    <path class="cls-29" d="M962.82-29.32v482.05s569.86,0,569.86,0V-29.32s-569.86,0-569.86,0ZM1509.64,430.84h-521.58s0-438.79,0-438.79h521.58s0,438.79,0,438.79Z"/>
    <rect class="cls-24" x="962.82" y="452.4" width="525.59" height="24.31"/>
    <path class="cls-38" d="M395.02,486.82l41.8,45.55,146.11-81.91c1.24,13.09,16.55,34.53,27.08,48.36,0,0-118.92,113.71-134.38,124.99-54.67,39.88-99.23,30.25-115.88,6.73-9.58-13.54-47.95-105.86-41.65-120.3,1.44-3.29,77.64-23.25,76.93-23.41Z"/>
    <path class="cls-38" d="M328.68,302.86s59.55,40.55,75.24,60.43c20.07,25.42,34.83,167.04,41.21,193.99,6.38,26.95-41.36,2.67-41.36,2.67l-81.33-18.22-5.76-52.95,14.39-165.73-2.39-20.19Z"/>
    <path class="cls-20" d="M316.09,290.76l-84.61-15.37-18.02,27.06s20.82,25.29,23.18,26.74c2.36,1.44,58.6,23.74,58.6,23.74,0,0,69.36-10.66,68.44-10.65-.92.01-47.59-51.52-47.59-51.52Z"/>
    <path class="cls-20" d="M233.89,210.46s8.92,38.28-12.14,70.15c-2.02,3.06-22.3,4.68-22.3,4.68l27.18,12.89c18.85,6.97,62.3,12.58,81.84,9.19l16.86-6.77s-19.24-6.91-19.65-11.21c-.41-4.31,7.26-35.35,7.26-35.35"/>
    <path class="cls-1" d="M230.33,225.85c0,.11,0,.2,0,.3-.03-.13-.04-.24,0-.3Z"/>
    <path class="cls-20" d="M297.29,292.04l34.37,1.4,17.43-2.55c1.74.17,11.79-16.46,13.15-18.6,4.22-6.63,8.6-15.66,11.45-22.99,3.05-7.86,8.68-14.44,10.66-24.03,1.45-7.03,1.87-11.99-1.03-23.86-.74-3.01-.54-5.95.43-9.04,2.07-6.53,3.23-14.26,5.8-23.03.2-.69,1.29-4.01,1.07-4.79,0,0,4.5-37.03-1.16-50.85-5.67-13.82-15.21-20.7-24.78-23.98-9.58-3.29-38.56-3.81-38.56-3.81l-39.41-8.86-35.2,14.08-20.46,39.79-1.3,47.96,1.73,43.07"/>
    <path d="M355.25,190.89s9.74-7.87,16.25-7.77c9.5.14,11.68,2.51,14.56,7.18,0,0-5.68-5.16-12.37-5.07-6.4.08-18.44,5.67-18.44,5.67Z"/>
    <path d="M323.52,186.94s-11.97-9.69-18.26-10.53c-9.18-1.23-20.73,3.17-24.18,7.38,0,0,15.32-6.65,21.77-5.61,6.16,1,20.67,8.76,20.67,8.76Z"/>
    <path d="M330.36,145.04c.04,2.26.08,4.52.12,6.79.03,1.73.22,5.66.24,7.38-5.84-1.33-11.13-3.4-14.9-3.94-7.48-1.08-15.14-2.67-22.66-1.42-3.6.6-6.75,1.54-9.73,3.34-.94.57-3.46,3-4.89,2.42-.59-.24.31-3.04.4-3.33,1.84-5.64,6.88-8.08,13.08-9.55,12.63-2.99,25.4-2.96,38.33-1.7"/>
    <path d="M392.97,159.81s-3.02-1.89-3.04-1.91c-8.43-5.34-17.78-7.81-27.59-9.13-.64,2.16-1.29,4.33-1.93,6.51-.49,1.66-1.46,4.61-1.94,6.26,4.64-.14,8.78-.71,11.68-.49,5.76.42,11.86.79,17.02,3.47.41.21,2.6,1.4,2.98,1.63,2.63-2.47,3.44-5.64,2.82-6.34Z"/>
    <path class="cls-30" d="M320.3,261.28l24.37,1.1s-6.63,8.85-12.55,8.28c-3.7-.36-8.27-4.83-11.82-9.38Z"/>
    <g>
      <path d="M343.06,227.95c-2.91,1.21-7.09.46-9.7-1.58-.58-.45-2.67-.27-1.86.36,3.45,2.69,9.48,3.49,13.23,1.93.37-.16.34-.44-.09-.63-.45-.2-1.18-.24-1.58-.08"/>
      <path d="M330.38,225.8c-1.77-1.08-3.81-1.76-5.87-2.12-.3-.05-.71.03-.95.21-.19.14-.25.35-.03.51.9.66,2.1,1.01,3.23,1.1.35.03.83-.02,1.06-.31.21-.27-.11-.49-.39-.51-.93-.07-1.86-.35-2.6-.89-.33.24-.66.48-.99.72,1.84.33,3.66.95,5.24,1.92.31.19.8.13,1.11-.02.23-.11.5-.4.19-.6"/>
      <path d="M322.1,225.26c-2.43-.3-5.18-1.66-6.19-3.65-1.53-3,.58-7.22,3.79-8.73.35-.16.2-.44-.13-.54-.43-.14-.96-.02-1.32.15-2.8,1.32-4.86,4.73-4.72,7.42.13,2.51,2.29,4.47,5.13,5.47.85.3,1.75.53,2.66.64.37.04,1.04,0,1.25-.28.21-.28-.11-.44-.46-.49"/>
      <path d="M347.64,227.12c-.1-.3.16-.46.35-.44.66.08,1.34-.04,1.95-.45.19.29.38.58.56.87-1.33.02-2.69.33-3.94,1.02-.25.14-.58,0-.77-.2-.14-.15-.28-.48-.03-.62"/>
      <path d="M345.76,227.3c1.4-.77,2.92-1.1,4.41-1.12.22,0,.49.14.62.36.11.17.11.39-.06.51"/>
      <path d="M352.66,227.95c1.59.09,3.55-.81,4.51-2.61,1.45-2.71.68-6.18-1.12-8.18-.2-.22-.06-.46.17-.51.29-.07.61.13.82.36,1.57,1.74,2.43,4.41,1.92,7.04-.48,2.45-2.17,4.04-4.13,4.57-.58.16-1.2.24-1.79.21-.24-.02-.66-.17-.75-.48-.09-.31.14-.42.37-.41"/>
    </g>
    <path class="cls-2" d="M305.89,132.69s37.9-1.97,63.06,5.52"/>
    <g>
      <g>
        <path d="M389.55,110.45c-.51,1.03-.68,2.17.14,2.87.49.42,1.29.72,1.85,1.07-.29-1.55-.89-2.98-1.99-3.93Z"/>
        <path d="M388.84,110.58c-.37.75-.67,1.76-.21,2.53s1.49,1.07,2.24,1.53c.23.14.61.04.84-.04.15-.05.61-.19.56-.41-.29-1.49-.87-2.97-2.04-3.99-.08-.07-.28-.06-.37-.06-.19.01-.39.06-.56.12-.11.04-.63.26-.43.44,1.13.99,1.67,2.44,1.95,3.88l1.41-.45c-.39-.24-.8-.42-1.2-.64-.35-.19-.74-.42-.95-.77-.44-.75-.16-1.67.19-2.39.12-.25-.5-.18-.59-.17-.25.05-.71.14-.85.41Z"/>
      </g>
      <g>
        <path d="M391.78,105.17c-.65-1.19-2.43-1.37-3.1-2.55-.75-1.34.38-3.01.1-4.52-.37-2.01-2.84-2.71-4.86-3,1.37-1.45.72-4.23-1.14-4.93-.75-.28-1.68-.31-2.16-.96-.7-.97.17-2.6-.7-3.42-.58-.56-1.56-.33-2.32-.54-.15-.5-.29-.99-.44-1.49-.18-.09-.35-.2-.53-.3.14-.99.63-2.14.23-3.05-.42-.95-1.64-1.31-2.74-1.67.14-.28.34-.53.65-.73-.87.3-1.65.18-2.4-.17-.21-.24-.31-.54-.25-.94l-.1.77c-2.45-1.38-4.52-5.09-7.55-5.22-1.17-.05-2.29.48-3.46.6-3.04.33-5.98-2.6-5.67-5.64-3.05,1.46-6.69,1.66-9.87.52l-.59.15c-1.57-2.07-4.16-4.07-5.7-3.79-2.33.43-4.66,1.63-6.94,1-2.72-.75-4.61-3.95-7.42-3.72-1.65.14,2.29,2.21.64,2.2-2.36-.01-3.94-2.72-6.28-3.04-2.94-.4-5.42,3.09-8.33,2.53-1.87-.36-3.08-2.29-4.91-2.84-3.63-1.1-7.51,3.64-10.86,1.85-1.44-.77-2.15-2.53-3.61-3.23-3.41-1.64-6.3,4.48-10.02,3.84-2.29-.39-3.97-2.94-6.29-2.75-2.52.2,1.07,3.06-1.46,3.13-1.41.04-2.66-1-4.08-1.07-3.85-.19-5.47,5.21-9.25,6-1.74.36-3.62-.61-5.3,0-2.06.75-2.82,3.5-4.54,4.69-.21.11-.43.23-.64.35-.12.05-.23.09-.36.12-1.65.42-3.42-.71-5.05-.22-2.6.79-3.25,5.16-5.97,5.13-1.22-.02-2.51-1.01-3.55-.37-1.01.63-.72,2.14-.85,3.32-.27,2.37-3.19,4.01-5.36,3-.28.97-1.07,3.97-1.8,6.75l.2-1.32c-.77-1.07-2.61-.34-3.16.86-.55,1.2-.37,2.6-.64,3.89-.58,2.74-3.52,4.76-6.29,4.32,1.9,3.53,3.48,8.64.19,10.94-.8.56-1.79.83-2.49,1.52-1.13,1.12-1.09,3.04-.34,4.44.75,1.4-.88,1.58.39,2.55-2.37,1.88-4.99,4.98-3.34,7.51.91,1.39-2.36,1.48-2.43,3.14-.09,1.94.03,3.18-1.1,4.76-.94,1.32-.46,3.25.64,4.43,1.1,1.18-2.36,2.28-.85,2.86.59,2.18,0,.62-1.36,2.43-1.2,1.6-.41,6.34,1.5,6.96,1.9.61,1.55-.66,2.91.81-2.14,1.09-4.66,3-3.92,5.29.7,2.17,3.59,2.32,5.69,3.36.06,1.05.12,2.13.18,3.28-1.21.72-2.84,1.27-3.48,2.49-.68,1.3.09,2.99,1.3,3.82,1,.68,2.22.92,3.44,1.08,2.47,5.6,7.35,18.71,11.49,30.08l14.7,1.43.03.89c1.06.17,2.11.34,3.17.5.33.05.69.1.98-.06.73-.4.38-1.47.21-2.28-.4-1.88.73-3.7,1.62-5.4.9-1.7,1.56-3.92.37-5.43-.62-.8-1.73-1.36-1.79-2.37-.09-1.32,1.58-1.92,2.51-2.86,1.45-1.47.76-4.39-1.2-5.05,0,0,2.44-2.42,1.86-7.47-.58-5.05-1.79-10.48-1.79-10.48h0c.32-.34.63-.69.87-1.1,1.71-2.95-.87-6.95.58-10.03.65-1.39,2.03-2.35,2.57-3.79,1.02-2.74-1.46-5.69-1.01-8.58.5-3.25,4.54-5.81,3.44-8.91-.54-1.51-2.2-2.43-2.65-3.97-.79-2.68,2.35-5.99.44-8.03-.66-.71-1.76-.94-2.3-1.75-1.08-1.63.95-3.45,1.79-5.21.87-1.82.42-3.98.75-5.97.33-1.99,2.31-4.09,4.11-3.17-.59-2.04.15-6.18,1.6-8.82l6.48-1.84c.23-.03.44-.09.63-.18l18.96-5.4c.88.26,1.76.42,2.67.3,1.02-.14,1.96-.87,2.44-1.75l2.42-.69c1.09.58,2.23,1.03,3.45,1.18,2.15.26,4.62-.75,5.31-2.8.42,3.06,5,4.47,7.07,2.17.82-.92,1.42-2.32,2.65-2.4.55-.04,1.07.23,1.54.51,1.53.93,3.31,4.77,4.58,7.65.2,1.16.53,2.09,1.16,2.6.51.16,3.73,1.15,7.42,2.24-.51.72-.37,1.68.7,2.11,1.43.58,3.66-.03,4.61.88,1.04,1-1.19,2.19-.61,3.33.36.71,1.64,1.04,2.44,1.59.96.66,1.22,1.63,2.11,2.32.91.71,2.47,1.04,3.75.8,1.35.21,3.21-.19,3.56.77.1.26,0,.53-.03.79-.14,1.03.63,2.12,1.86,2.64,1.23.51,2.83.42,3.86-.24,1-.64,1.43-1.69,2.49-2.27.33-.18.72-.31,1.11-.45.31.34.72.63,1.2.84,1.23.51,2.83.42,3.86-.24,1-.64,1.43-1.69,2.49-2.27.89-.49,2.2-.63,2.69-1.37.77-1.19-1.22-2.94-.02-3.89,1.09-.87,3.18.22,4.69-.19.59-.16.94-.52,1.11-.96,2.88-1.04,6.08-3.88,9.86-4.63.09.04.18.08.27.12-.13.45-.34.9-.28,1.36.24,2.12,4.39.55,5.41,2.42.76,1.41-1.07,3.5.11,4.59.56.52,1.43.37,2.19.47,1.3.17,2.44,1.23,2.69,2.52.19.96-.06,2.04.43,2.88.6,1.03,1.96,1.23,3.01,1.79.33.17.62.38.89.61.22-.44.49-.86.79-1.21.99-1.17,2.17-2.72,1.44-4.07Z"/>
        <path d="M392.45,104.87c-.72-1.11-2.16-1.28-2.93-2.29-.96-1.28.2-3.06,0-4.49-.33-2.47-3.29-3.13-5.33-3.44l.32.62c1.1-1.31,1.17-3.23.05-4.57-.64-.76-1.46-.94-2.36-1.24-1.67-.54-.85-1.98-1.21-3.24-.25-.89-1.05-1.17-1.89-1.27-.33-.04-.63.02-.88-.25-.19-.19-.15-.69-.27-.93-.2-.41-.47-.47-.47-.94,0-1.12.63-2.07-.18-3.09-.65-.81-1.79-1.11-2.73-1.42l.25.48.43-.51c.6-.48-.04-.83-.57-.68-.79.33-1.39.08-1.81-.77.02-.67-1.39-.39-1.46.15l-.1.77,1.3-.45c-2.58-1.55-4.3-4.93-7.54-5.28-2.14-.23-4.07,1.19-6.15.13-1.78-.91-2.95-2.8-2.82-4.81.03-.51-.75-.41-1.03-.28-1.96.9-4.06,1.29-6.21,1.09-1.41-.13-2.67-.84-4.06-.48l.78.12c-1.4-1.79-3.76-4.24-6.29-3.94-1.63.19-3.15.96-4.79,1.13-1.81.19-3.15-.64-4.53-1.68s-3.74-2.97-5.7-2.01c-.53.26-.67.62-.37,1.12.21.35.92,1.16,1.26,1.31l.28-.41c-.31-.05-.61-.14-.89-.27-.19-.08-.38-.19-.56-.3-.57-.34-1.08-.75-1.62-1.13-.97-.69-1.99-1.29-3.21-1.35-2.6-.14-4.36,1.93-6.72,2.52-1.56.38-2.72-.67-3.87-1.54-.97-.74-1.98-1.33-3.22-1.42-2.36-.16-4.43,1.23-6.56,2.01-1.38.51-2.7.58-3.86-.45-1.02-.91-1.7-2.17-2.99-2.76-1.76-.79-3.58.09-5.02,1.12-1.82,1.3-3.73,3.5-6.14,2.34-1.96-.94-3.94-3.18-6.36-2.21-.53.21-.92.57-.92,1.16,0,.51.64,1.38.42,1.82l.12-.06c-.35.03-.69-.01-1.03-.13-.31-.09-.61-.21-.91-.33-.6-.23-1.18-.47-1.82-.56-1.04-.15-2.1.07-3.03.54-2.06,1.04-3.28,3.11-5.06,4.5-1.26.98-2.46,1.05-4.01.86-1.37-.17-2.71-.26-3.96.43-1.09.61-1.8,1.63-2.51,2.62-.46.64-.9,1.34-1.55,1.8-1.05.75-2.15.34-3.31.15-2.71-.46-4.27.83-5.74,2.94-.9,1.29-1.54,2.43-3.26,2.01-1.23-.31-2.49-.73-3.58.21s-.71,2.27-.88,3.47c-.26,1.87-2.22,3.3-4.06,2.55-.42-.17-1.15-.05-1.3.45-.64,2.24-1.21,4.5-1.8,6.75l1.46-.15c.15-.98.47-1.74-.71-2.13s-2.57.27-3.3,1.16c-1.24,1.5-.58,3.68-1.31,5.39-.84,1.99-2.89,3.22-5.03,2.96-.23-.03-1.21.23-.99.65.95,1.8,1.77,3.74,2.02,5.77.12.97.11,2.01-.23,2.94-.47,1.29-1.47,1.86-2.62,2.48-1.66.89-2.59,2.31-2.29,4.24.15.98.81,1.68.53,2.67-.19.67-.18.96.4,1.45l.21-.56c-1.44,1.16-2.86,2.51-3.65,4.21-.32.69-.52,1.43-.47,2.19.04.61.82,1.74.54,2.19-.24.38-1.03.62-1.39.87-.44.31-.85.69-1.01,1.22-.25.83-.07,1.81-.2,2.67-.17,1.14-.82,1.87-1.24,2.89-.27.66-.28,1.39-.13,2.08.09.42.25.82.46,1.2.18.32.73.77.78,1.12.14.91-1.6,1.23-1.43,2.18.03.2.16.23.25.38.16.29.25.52.35.86.08.28.29-.09-.03.05-.26.11-.5.26-.72.44-1.12.89-1.42,2.19-1.38,3.57s.41,3.2,1.52,4.2c.49.44,1.13.63,1.78.68.29.02.62-.08.9-.05.39.04.48.17.83.53l.37-.65c-2.13,1.11-5.71,3.51-4.1,6.38.62,1.11,1.83,1.62,2.97,2.03.65.23,1.86.37,2.34.83.28.28.19.99.21,1.32.03.64.07,1.27.11,1.9l.26-.46c-1.71.98-4.32,1.93-3.96,4.38.38,2.63,3.19,3.42,5.42,3.72l-.46-.26c4.32,9.81,7.83,20.02,11.49,30.08.07.19.27.25.46.26,4.9.48,9.8.95,14.7,1.43l-.46-.38.03.89c0,.18.1.33.3.36,1.34.21,3.36.95,4.69.43,1.2-.47,1.11-1.49.89-2.58-.71-3.54,2.95-6.04,2.54-9.56-.07-.62-.3-1.2-.67-1.69-.49-.64-1.45-1.13-1.68-1.95-.4-1.43,1.88-2.2,2.6-3.16,1.39-1.85.41-4.5-1.63-5.31l.16.59c1.94-1.97,2.26-5.23,1.99-7.82s-.7-5.01-1.18-7.48c-.16-.82-.32-1.63-.49-2.45-.05-.24-.05-.6-.28-.75l.02.54c1.5-1.61,1.76-3.37,1.51-5.5-.31-2.68-.82-4.94,1.02-7.2,1.47-1.82,2.2-3.36,1.63-5.72s-1.65-4.56-.47-6.95c.83-1.69,2.23-3.09,2.84-4.89.7-2.09-.43-3.44-1.7-4.97-1.61-1.94-.8-3.78-.16-5.94.53-1.79.46-3.3-1.22-4.36-.59-.37-1.24-.63-1.53-1.32-.32-.76,0-1.46.38-2.13.56-1.02,1.34-1.91,1.74-3.02.55-1.52.36-3.14.48-4.71.1-1.28,1.01-4.38,2.91-3.58.34.14,1.44.02,1.29-.57-.7-2.74.27-6.15,1.56-8.58l-.57.37c8.24-2.34,16.47-4.69,24.71-7.03.33-.09.68-.24,1.02-.29.53-.08.04-.04.46.09,2.11.64,4.41-.13,5.56-2.01l-.57.37,2.42-.69-.68-.04c1.85.95,3.85,1.58,5.93,1.14,1.75-.37,3.41-1.38,4.07-3.1l-1.41.15c.42,2.37,2.87,3.69,5.14,3.57,1.12-.06,2.24-.46,3.06-1.24.53-.51.87-1.17,1.36-1.71.8-.88,1.79-.35,2.48.39,1.17,1.26,1.95,2.93,2.68,4.46.38.79.86,1.62,1.12,2.46.24.77.3,1.57.8,2.25.58.79,1.65.9,2.54,1.17,1.84.56,3.69,1.12,5.53,1.66l-.25-.48c-.82,1.39.16,2.45,1.56,2.76.84.18,1.7.11,2.54.19,1.15.12,1.69.59,1.07,1.65s-.96,1.93.25,2.74c.87.59,1.79.81,2.5,1.64.55.65.95,1.38,1.7,1.85,1.54.97,3.39.73,5.12.77.38,0,1.02-.08,1.37.11.57.3.3.73.36,1.3.08.79.37,1.41.97,1.95,1.22,1.11,3.11,1.31,4.66.89.77-.21,1.45-.6,2.02-1.15.91-.86,1.48-1.61,2.71-2.05l-.97-.05c2.17,2.11,5.5,1.53,7.42-.56.64-.7,1.22-1.15,2.1-1.47.55-.2,1.13-.39,1.6-.77.96-.79.69-1.73.34-2.77-.07-.22-.22-.53-.22-.77,0-.74.65-.77,1.24-.74.74.03,1.46.23,2.21.21.58-.01,1.17-.12,1.69-.4.41-.22.59-.59.92-.87.5-.41,1.43-.67,2.01-.99.65-.36,1.3-.75,1.94-1.12,1.72-1,3.46-1.92,5.42-2.34l-.68-.04s-.2,1.25-.13,1.51c.09.31.28.56.53.75.62.49,1.55.53,2.3.6.92.09,2.27.06,2.65,1.11s-.48,2.26-.41,3.36c.07.94.76,1.43,1.63,1.6.72.13,1.45.01,2.12.36.8.41,1.32,1.16,1.52,2.01.29,1.22-.12,2.49.88,3.47s2.46,1.06,3.5,1.91c.36.29,1.12.17,1.35-.25.91-1.71,3.19-3.36,2.28-5.53-.24-.56-1.67-.13-1.45.39.83,1.96-1.36,3.49-2.19,5.05l1.35-.25c-.95-.77-2.08-.99-3.09-1.63-1.49-.93-.81-2.49-1.27-3.9-.33-1.01-1.15-1.83-2.14-2.21-1.12-.43-3.17.12-3.03-1.64s1.2-3.65-1.04-4.43c-.85-.3-1.77-.28-2.65-.39-1.45-.19-1.58-.9-1.17-2.23.03-.11-.06-.26-.16-.3-1.12-.48-2.54.24-3.6.69-1.44.61-2.79,1.41-4.14,2.2-1.15.67-2.46,1.15-3.56,1.85-.1.11-.17.23-.21.37l-1,.38c-.32.05-.71-.06-1.03-.1-.66-.08-1.31-.2-1.98-.13-.86.09-1.91.52-2.1,1.47-.2,1,1.12,2.39.37,3.25-.43.49-1.38.57-1.95.84s-1.03.6-1.46,1.03c-.65.64-1.13,1.45-2.06,1.72-1.19.35-2.46-.05-3.33-.89-.26-.25-.67-.16-.97-.05-.75.26-1.43.56-2.03,1.09-.77.69-1.28,1.67-2.33,1.97s-2.31.03-3.13-.71-.71-1.33-.74-2.27c-.04-1.3-1.57-1.32-2.55-1.35-1.7-.04-3.78.31-5.13-.96-.59-.55-.93-1.31-1.54-1.85-.48-.43-1.06-.67-1.63-.96-2.08-1.08-.41-1.68-.17-3.17.17-1.08-.99-1.51-1.85-1.64-1.09-.17-5.03.14-3.76-2.01.13-.23-.03-.41-.25-.48-1.8-.53-3.59-1.07-5.38-1.62-.52-.16-1.06-.28-1.57-.48-.61-.24-.81-.64-1.05-1.31-.27-.75-.41-1.49-.75-2.23-.38-.84-.77-1.68-1.19-2.5-.64-1.25-1.31-2.57-2.27-3.6-.79-.85-1.95-1.47-3.14-1.25s-1.85,1.11-2.54,2.01c-.95,1.24-2.07,1.77-3.63,1.28-1.35-.43-2.37-1.45-2.62-2.86-.1-.53-1.27-.21-1.41.15-.58,1.5-1.96,2.36-3.56,2.42-.97.04-1.95-.24-2.84-.6-.62-.26-1.1-.67-1.79-.57s-1.38.39-2.04.58c-1.09.32-1.36,1.48-2.48,1.79s-2.06-.4-3.1-.21c-.36.07-.72.21-1.07.31l-4.25,1.21c-5.69,1.62-11.38,3.24-17.06,4.85l-2.79.8c-.68.19-1.14.26-1.53.9-1.4,2.34-2.16,6.09-1.48,8.76l1.29-.57c-1.81-.76-3.61.18-4.64,1.74-1.6,2.42-.31,5.52-1.63,8.05-.81,1.56-3.02,3.71-1.42,5.49.74.82,2.03,1,2.49,2.09.4.94.03,2.05-.26,2.96-.64,2.05-1.28,3.94.16,5.81.7.91,1.64,1.68,1.95,2.83s-.23,2.34-.83,3.34c-1.05,1.74-2.59,3.41-2.75,5.53-.18,2.49,1.49,4.71,1.28,7.18-.13,1.62-1.39,2.64-2.26,3.89-.77,1.1-1.03,2.33-.99,3.66.09,2.85,1.35,5.8-.86,8.17-.16.17-.2.4.02.54-.18-.11-.15-.22-.1.04.04.2.09.41.13.61.15.72.3,1.45.44,2.18.43,2.26.81,4.53,1.1,6.81.31,2.48.27,5.84-1.65,7.79-.24.24-.13.48.16.59,1.09.43,1.68,1.62,1.67,2.75-.02,1.42-1.02,1.99-2.02,2.79-.63.51-1.29,1.13-1.26,2.01.04,1.13,1.1,1.69,1.74,2.47,2,2.42-.69,5.57-1.58,7.85-.44,1.12-.53,2.15-.29,3.32.06.28.26.9.15,1.17-.16.39-.37.21-.78.15-.88-.13-1.75-.28-2.63-.42l.3.36-.03-.89c0-.27-.21-.36-.46-.38-4.9-.48-9.8-.95-14.7-1.43l.46.26c-2.78-7.63-5.58-15.26-8.53-22.83-.58-1.48-1.16-2.95-1.76-4.42-.24-.59-.48-1.17-.73-1.75-.16-.37-.31-1.01-.62-1.26-.27-.22-.81-.15-1.14-.21-.54-.11-1.09-.24-1.59-.47-.91-.42-1.65-1.14-1.96-2.1-.74-2.27,1.82-3.09,3.33-3.96.17-.1.27-.26.26-.46-.06-1.09-.12-2.18-.18-3.28-.03-.08-.08-.14-.16-.18-1.61-.75-4.09-.97-5.19-2.49-1.68-2.34,1.35-4.48,3.15-5.42.19-.1.62-.39.37-.65-.88-.91-1.28-.79-2.41-.79-1.58,0-2.16-1.9-2.39-3.16-.24-1.36-.28-3.25,1.05-4.09.79-.5,1.16-.61.84-1.68-.16-.54-.51-.53-.24-.95s.78-.65,1.03-1.09c.19-.34.24-.65.09-1.02-.35-.84-1.04-1.35-1.21-2.33-.19-1.12.33-1.76.82-2.69.39-.74.58-1.54.66-2.36.06-.69-.14-1.73.22-2.34.31-.52,1.06-.75,1.54-1.07.36-.24.8-.56.88-1.02.13-.67-.53-1.29-.63-1.95-.34-2.33,1.93-4.48,3.56-5.8.13-.1.42-.38.21-.56-.69-.6-.14-.91-.13-1.64.01-.93-.69-1.75-.72-2.73-.09-2.7,2.77-2.83,4.16-4.58,2.38-2.97.53-7.49-1.01-10.4l-.99.65c2.67.33,5.54-1.06,6.79-3.49.74-1.44.51-3,.89-4.53.13-.53.34-1.06.84-1.35.36-.21.96-.34,1.09.07.09.27-.13.87-.18,1.15-.1.66,1.32.37,1.46-.15.59-2.25,1.16-4.51,1.8-6.75l-1.3.45c2.02.82,4.46.18,5.83-1.55.7-.88.84-1.82.88-2.92.02-.59-.01-1.81.8-1.98.72-.15,1.78.55,2.56.58,2.01.06,3.19-1.54,4.22-3.02.74-1.06,1.47-2.23,2.9-2.23s2.79.7,4.28.3c1.1-.29,1.96-1.04,2.66-1.92.83-1.04,1.52-2.61,2.78-3.19,1.44-.67,3.27.21,4.8.05,1.08-.11,2.11-.57,2.99-1.2,1.79-1.28,2.97-3.37,4.89-4.45,2.34-1.31,4.72,1.74,7,.35.56-.34.67-.78.53-1.39-.2-.89-.9-1.79.68-1.3,2.3.7,3.75,2.95,6.39,2.63,2.05-.25,3.63-1.76,5.22-2.93.75-.55,1.67-1.29,2.66-1.19,1.48.15,2.32,1.82,3.31,2.73,1.78,1.63,4.02,1.27,6.09.44,1.14-.46,2.23-1.06,3.41-1.42,1.54-.48,2.77-.16,4.06.79,1.97,1.45,3.64,2.54,6.14,1.62,1.13-.41,2.13-1.09,3.2-1.62,1.52-.75,2.76-.73,4.19.2,1.12.73,2.12,1.7,3.44,2.08.62.18,1.88.4,2.35-.25.39-.53-.21-.97-.58-1.32-.1-.1-.62-.77-.72-.78l-.42.32c.3-.02.6.01.89.09.36.09.69.25,1.01.42,1.27.68,2.31,1.73,3.55,2.47,1.34.79,2.8,1.05,4.34.84.88-.12,1.73-.36,2.59-.59.94-.26,1.94-.7,2.89-.37,1.71.6,3.12,2.09,4.21,3.49.17.21.56.18.78.12.63-.16,1.25.25,2.08.4.92.17,1.85.24,2.78.22,2.01-.04,3.96-.52,5.78-1.36l-1.03-.28c-.23,3.66,3.19,6.53,6.75,5.95,1.19-.19,2.37-.75,3.59-.41.93.26,1.75.89,2.47,1.52,1.34,1.17,2.49,2.58,4.03,3.5.35.21,1.23.02,1.3-.45l.1-.77-1.46.15c-.04,1.85,2.13,1.81,3.49,1.45l-.57-.68c-.36.29-.63.55-.86.95-.14.23.04.41.25.48.78.26,1.88.51,2.35,1.27.56.9.02,2.16-.14,3.09-.02.13.05.24.16.3.57.32.64,1.01.81,1.6.04.12.17.22.29.24.54.11,1.25.03,1.74.23.86.35.69,1.21.69,1.93,0,.99.16,1.77,1.11,2.24,1.07.53,2.13.46,2.79,1.61.57,1,.59,2.34-.17,3.25-.29.34-.05.56.32.62,1.24.19,2.67.48,3.63,1.36,1.08.99.78,2.3.54,3.58-.2,1.04-.23,2.09.56,2.9s2.06,1.05,2.72,2.07c.3.46,1.7-.04,1.34-.6Z"/>
      </g>
      <g>
        <path d="M392.07,115.55c.29-.5-.02-.85-.53-1.16.09.48.16.97.2,1.47.13-.08.25-.18.33-.31Z"/>
        <path d="M392.75,115.59c.08-.14.15-.3.16-.46,0-.18-.02-.31-.1-.47-.15-.28-.42-.48-.69-.65-.11-.07-.26-.08-.39-.08-.16,0-.33.04-.48.11-.2.1-.47.28-.43.54.09.49.16.98.2,1.47.03.08.08.14.15.18.09.05.19.07.3.08.25.02.52-.06.73-.2s.42-.31.55-.53c.06-.11.07-.24-.01-.34-.09-.11-.27-.15-.4-.16-.19,0-.4.02-.57.11-.15.07-.29.16-.38.31-.02.03-.03.05-.05.08l.09-.11c-.04.05-.09.1-.15.14l.13-.1s-.09.06-.13.09l1.19.06c-.04-.49-.1-.98-.2-1.47l-1.29.57c.09.06.18.12.27.18l-.1-.08c.12.09.23.2.3.33l-.06-.1c.04.08.07.17.07.26v-.12c0,.08-.02.16-.05.24l.05-.12s-.04.09-.07.14c-.06.11-.07.24.01.34.09.11.27.15.4.16.19,0,.4-.02.57-.11.15-.07.3-.16.38-.31Z"/>
      </g>
      <g>
        <path d="M391.74,115.86c-.23.14-.5.25-.72.41-.7.51-.72,1.6-.34,2.38.26.56.67,1.03,1.06,1.51,0-.69.02-1.37.04-2.03.02-.74.01-1.5-.05-2.27Z"/>
        <path d="M391.28,115.6s-.19.11-.1.06c-.06.03-.11.06-.17.09-.15.08-.31.16-.45.26-.22.15-.4.34-.55.56-.25.39-.32.84-.3,1.3.05,1.02.75,1.83,1.36,2.58.16.2.56.18.78.11.2-.06.62-.23.62-.49,0-1.47.11-2.95,0-4.42,0-.12-.2-.21-.29-.23-.17-.05-.38-.03-.54.02-.28.08-.64.26-.61.6.11,1.4,0,2.79,0,4.19l1.4-.37c-.54-.66-1.13-1.32-1.24-2.2-.04-.31.01-.67.14-.91.02-.04.05-.08.07-.12l.03-.05s-.03.04,0,0c.03-.03.07-.07.1-.1-.06.05-.02.02.02-.01.01,0,.16-.1.11-.07-.04.02.12-.06.12-.06.14-.07.28-.15.42-.23.22-.14.4-.46.11-.63s-.75-.05-1.03.12Z"/>
      </g>
      <g>
        <path d="M392.2,120.77c-.14-.21-.3-.41-.46-.61,0,2.54.27,5.11,2.06,6.8,2.28-1.77.03-3.81-1.6-6.19Z"/>
        <path d="M392.87,120.47c-.15-.21-.3-.41-.46-.61-.17-.21-.55-.18-.78-.12-.2.05-.61.24-.62.5,0,2.48.23,5.2,2.12,7.02.28.27.85.19,1.13-.03.53-.42,1-.91,1.18-1.58.14-.54.02-1.12-.19-1.62-.56-1.31-1.58-2.4-2.38-3.56-.32-.46-1.72.05-1.34.6.71,1.03,1.58,1.98,2.15,3.1.46.91.51,1.85-.35,2.53l1.13-.03c-1.76-1.7-2-4.25-2-6.57l-1.4.37c.16.2.31.4.46.61.32.46,1.72-.05,1.34-.6Z"/>
      </g>
    </g>
    <path d="M276.08,171.86l1.88,7.43c.99,5.73,4.42,17.2,6.13,20.39,2.41,4.46,32.22,8.29,38.35,5.29,6.13-3,10.68-19.87,12.54-23.72l11.93,1.55c.69,5.21,3.23,21.73,5.34,24.09,2.11,2.36,15.87,2.98,17.43,3.04,1.29.04,3.09.1,5.06.09,5.22,0,11.58-.41,13.66-2.19,3.09-2.64,7.04-13.29,10.51-23.38l.56-1.58c.12-.38.27-.64.28-.76h0l.62-1.82c-16.63-9.49-39.36-9.79-53.84-.7l.09.19-11.63-1.57c-12.54-9.74-34.99-16.18-51.77-11.05h0l-51.27,4.72-.48,4.48,44.62-4.51ZM353.77,205.33c-1.32-1.47-3.45-13.07-4.81-22.08,12.57-7.65,33.05-7.35,47.98.25l-.02.23c-1.86,5.41-6.81,19.81-9.85,22.4-3.59,3.06-30.98,1.53-33.31-.75v-.05ZM287.73,198.73c-3.45-8.58-6.13-17.45-7.99-26.51,15-5.54,40.01.01,52.28,9.28-2.59,7.01-6.12,19.33-10.52,21.46-6.32,3.09-32.28-1.41-33.78-4.23h0Z"/>
    <path d="M372.86,183.51c1.9-.75,4.15.24,5.22,1.4.25.27.71,1.07.94,2.3.29,1.56-.48,3.22-1.54,4.16-1.41,1.27-3.55,1.3-5.1.38-2.1-1.25-2.55-3.97-1.81-5.85.14-.34.76-1.78,2.29-2.39"/>
    <path d="M308.19,178.28c-1.66-1.11-4.52-1.14-5.77-.21-.3.22-1.09.85-1.55,2-.59,1.47-.17,3.25.66,4.38,1.1,1.52,3.14,1.96,4.8,1.37,2.25-.81,3.21-3.39,2.87-5.38-.06-.36.35-1.01-.99-1.91"/>
    <path class="cls-30" d="M301.33,236.86c-1.55,1.14-3.23,2.48-3.53,4.38-.11.69-.03,1.4.06,2.09.13,1.07.27,2.15.4,3.22.03.21.06.44.19.61.14.19.38.27.6.35.71.25,1.45.5,2.19.42.75-.08,1.5-.59,1.61-1.33.04-.31-.02-.64.13-.91.29-.52,1.06-.39,1.65-.49,1.49-.25,1.95-2.09,2.71-3.4,1.03-1.77,2.99-2.8,4.97-3.29,1-.25,2.05-.38,2.98-.83.93-.45,1.76-1.3,1.81-2.33"/>
    <path class="cls-30" d="M363.51,242.72c1.32,1.41,2.72,3.02,2.68,4.95-.02.7-.23,1.38-.44,2.04-.32,1.03-.65,2.06-.97,3.1-.06.21-.14.42-.3.57-.17.16-.42.2-.65.24-.74.12-1.51.23-2.23.02-.72-.21-1.37-.85-1.34-1.6.01-.31.14-.62.04-.92-.19-.57-.97-.58-1.53-.78-1.42-.52-1.54-2.41-2.05-3.83-.69-1.92-2.43-3.29-4.29-4.13-.94-.42-1.94-.75-2.78-1.35-.83-.61-1.49-1.59-1.36-2.62"/>
    <path class="cls-20" d="M235.33,227.11c-16.63,13.8-17.65-12.05-17.65-12.05-9.58-13.92-8.32-27.71-7.06-37.09,1.25-9.39,11.61-8.3,11.61-8.3,8.72,1.77,12.22,6.85,16.86,37.23"/>
    <path class="cls-28" d="M232.4,200.72c-1.65-4.58-3.51-9.15-6.03-13.33-1.24-2.06-2.67-4.13-4.51-5.7-.67-.57-1.5-1.23-2.39-1.41-1.18-.24-1.8.65-2.35,1.51-2.29,3.63-2.55,8.19-1.94,12.33.04.24,1.5-.06,1.45-.39-.5-3.37-.43-6.88.84-10.08.43-1.08,1.17-2.5,1.87-3.22l-1.25.34c.76.07,1.7.8,2.33,1.33,2.67,2.25,4.53,5.5,6.11,8.56,1.74,3.37,3.15,6.89,4.44,10.46.11.3,1.54-.15,1.45-.39h0Z"/>
    <path class="cls-28" d="M229,202.15c-6.26-.84-3.44,7.74-4.2,11.1-.04.19-.09.4-.18.57-.03.05-.19.25-.19.29l-.05.05c-.19.18-.01.15.54-.09,0,.01-.41-.4-.42-.43-.21-.3-.35-.67-.48-1.01-.67-1.8-.94-3.77-1.16-5.67-.31-2.74-.41-5.2.13-7.88s1.68-6.9,4.75-7.91c.97-.32.07-.67-.54-.47-2.85.94-4.31,3.78-5.12,6.48-.59,1.96-1.05,4.11-.97,6.17.1,2.58.34,5.18.9,7.7.23,1.04.54,3,1.6,3.59.8.44,1.89-.11,2.33-.83.54-.9.45-2.18.42-3.19-.04-1.54-1.07-8.14,1.72-7.77.39.05,1.68-.59.91-.7h0Z"/>
    <g id="freepik--Character--inject-2">
      <path class="cls-38" d="M391.37,479.45l-8.08-111.75s17.5-14.38-3.79-26.67c-10.8-6.23-45.31-35.92-51.95-39.17.39,9.54,11.39,25.82-2.43,37.07-8.93,7.27-17.43,3.57-28.85,2.15-10.95-1.37-24.64-10.69-34.34-15.85-18.14-9.67-35.31-29.35-36.61-50.9l-27.63,20.67s-66.27,28.01-76.17,30.39c-9.9,2.38-6.66,227.93-6.66,227.93l-39.96,73.92c-3.64,9.58-35.39,37.18-22.01,98.36,0,0,200.57,22.73,222.34,25.71,25.28,3.46,79.81-1.08,88.03-12.14,8.21-11.06,28.12-259.7,28.12-259.7Z"/>
    </g>
    <path class="cls-27" d="M451.97,842.18c1.41-5.98,3.13,15.78,5.09,9.97,4.42-13.13,10.09-25.83,16.61-38.05,6.7-12.56,14.38-24.62,22.99-35.96,5.85-7.71,12.15-15.11,18.94-22.02-123.7-35.68-407.13-51.75-407.13-51.75,0,0-86.2,55.05-45.94,148.23,12.06,27.92,40.28,25.88,80.52,27.51,95.31,3.87,237.52-3.77,307.53-18.25.47-.1.93-19.57,1.4-19.67Z"/>
    <path class="cls-32" d="M252.35,489.29c.08,0,.15,0,.23.03.03.29.16.59-.09.85-.05-.29-.09-.59-.14-.88Z"/>
    <path class="cls-32" d="M265.19,572.44c-.06.04-.13.07-.21.09"/>
    <path class="cls-26" d="M320.13,479.13c-.1-.01-.21-.02-.31-.03.1-.05.2-.11.3-.16.04.06.05.12.01.19Z"/>
    <path class="cls-26" d="M276.61,485.64c.09-.07.19-.14.28-.2.03.05.06.1.09.15-.13.02-.25.03-.38.05Z"/>
    <path class="cls-26" d="M319.19,479.2c-.14.02-.27.04-.41.06.12-.14.25-.17.41-.06Z"/>
    <path class="cls-6" d="M253.31,489.17c.1-.13.21-.16.35-.06-.12.02-.23.04-.35.06Z"/>
    <path class="cls-37" d="M348.66,680.96c.48,0,1.56-.73.59-.73-.48,0-1.56.73-.59.73h0Z"/>
    <path class="cls-38" d="M65.7,574.64c-11.09.14-11.86-1.87-22.92-1.23-.03-7.32.2-14.22.77-20.98,2.43-28.78,21.53-163.32,40.63-205.79,12.3-46.43,141.14-72.32,141.14-72.32l-64.34,167.48-20.07,131.02c-18.97,2.64-56.06,1.57-75.22,1.82Z"/>
    <path class="cls-38" d="M55.65,484.66s-11.95,64.34-12.09,67.77c-.66,16.19-10.98,48.5,3.45,84.56,12.41,31.01,44.36,37.96,85.87,17.78,41.51-20.17-28.5-98.33-28.5-98.33l-48.72-71.79Z"/>
    <path class="cls-37" d="M336.84,160.29c3.55.91,7.71-.35,10.02-3.23s2.38-7.49.08-10.55c-.24-.32-1.64.15-1.36.53,1.96,2.61,2.2,6.38.55,9.21s-4.99,4.23-8.12,3.43c-.33-.09-.72,0-1.02.16-.13.08-.49.38-.15.46h0Z"/>
    <path class="cls-30" d="M305.85,235.24c-1-.32-1.01-.44-.02-.36l.84-.11c.87-.34,1.83-.42,2.7-.79.69-.29,1.32-.54,1.91-1.02,2.11-1.74-.75-.41-.85-.48,2.74,2,7.56-1.13,9.79-2.47l-4.08,1.27c-.24.01,1.51.79,1.74.83.89.15,2.01-.11,2.88-.29,2.86-.59,4.03-2.4,6.51-3.73-1.6.43-3.21.86-4.81,1.29,1.96.21,2,1.48,2.53,2.72.43,1.01,3.06.27,3.68.12l.21-.05c3.96-.98,3.46-3.05-.55-2.06l-.21.05c1.23.04,2.45.08,3.68.12-2.8-6.61-9.39-2.75-13.47.57l4.56-1.62c-1.17.14-2.67-.83-4.2-.6-2.12.32-3.25,1.46-5.14,2.14,1.32-.19,2.65-.37,3.97-.56-2.87-.55-4.31-1.43-7.33-.55-2.52.73-3.87,2.06-5.32,4.16.73-.45,1.46-.9,2.18-1.36,3.45-1.2-1.91.16-2.81.46-1.78.59-3.24,1.48-4.52,2.85-1.36,1.46,5.03.68,6.15-.53h0Z"/>
    <path class="cls-30" d="M345.55,233.6c1.69-.14,3.02,1.1,3.89,2.17,1.33,1.62,2.52.98,4.34,1.31,1.34.24.58-.12.89,1.17.21.87.85,1.48,1.62,1.88.45.23,1.3.19,1.61.59.42.55.28,1.96.34,2.63.12.31.34.52.66.62l.15.07c1.47.64,4.31-.04,5.42-1.13.2-.21.42-.41.64-.6-1.6.43-3.21.86-4.81,1.29l.27.02-1.28-.78c.07.69-1.15,1.97-1.48,2.65-.67,1.33,2.33,1.26,2.86,1.19,1.41-.18,3.23-.8,3.91-2.16.61-1.21,1.66-2.06,1.52-3.5-.05-.48-.94-.75-1.28-.78-2.14-.18-4.17.35-5.72,1.86,1.81-.38,3.62-.75,5.42-1.13.87.38.31-1.87.06-2.32-.41-.74-.78-.78-1.45-1.21-1.09-.69-1.29-.94-1.84-1.81-.21-.34-.2-.77-.46-1.1-.74-.96-1.81-1.07-2.98-1.09-.39,0-1.36.25-1.68.12-1.11-.44.4.14-.43-.64-.72-.68-1.06-1.11-2.03-1.51-2.38-.97-4.58-1.35-7.13-1.14-3.16.27-5.79,3.74-1.04,3.34h0Z"/>
    <g>
      <path class="cls-9" d="M364.13,273.86c.77-1.12,1.32-2.66,1.76-4.33,3.47-7.66,3.59-5.91,5.19-12.53-6.23,13.58-14.57,26.58-18.56,28.82-.14.08-.92.21-1.97.24-.1-.06-.2-.11-.32-.15-1.19-.37-2.95.26-3.77-.41-.91-.74.82-1.85.28-2.72-.34-.55-1.39-.73-2.07-1.12-.82-.47-1.09-1.23-1.85-1.74-.78-.52-2.06-.68-3.08-.4-1.1-.08-2.57.36-2.92-.39-.09-.2-.04-.42-.03-.64.05-.84-.65-1.67-1.67-2.01-1.02-.34-2.31-.15-3.1.44-.77.58-1.04,1.46-1.86,1.99-.26.17-.56.3-.87.43-.28-.25-.62-.46-1.03-.6-1.02-.34-2.31-.15-3.1.44-.77.58-1.04,1.46-1.86,1.99-.69.45-1.74.65-2.08,1.28-.54,1.01,1.18,2.29.27,3.14-.83.77-2.58.03-3.78.45-.22.08-.38.2-.52.33-6.73-1.19-20.22-3.75-20.48-3.79l-8.96-5.15c-1.48-1.09-34.02-33.28-34.02-33.28-.45-1.02-6.2-8.52-6.37-9.48-.1-.06-.2-.13-.32-.19-.04-.02-.13-.06-.21-.11-.02.06-.05.14-.07.18-.09.4-.12.82-.13,1.22-.06,1.76.16,3.52.55,5.25.6,2.65.86,5.33,1.36,7.98.18.94.4,1.87.65,2.78.68.5,1.99,2.04,3.75,4.24.27.56.66,1.06,1.13,1.43.48.61.99,1.27,1.53,1.96-.58,2.48,1.57,5.56,4.2,5.42.1.12.19.25.29.37-.6,1.75.73,3.99,2.63,4.11.19.01.39,0,.59,0,.76.96,1.53,1.93,2.31,2.91-.06.34-.12.68-.15,1.01-.19,2.25,2.09,4.29,4.29,4.08.14.17.29.35.43.52-.75,2.91,2.09,6.3,5.11,5.92.12.14.24.27.37.41.2,2.1,2.01,3.89,4.06,4.32.72.74,1.44,1.44,2.15,2.12.59,2.13,2.5,3.92,4.72,4.12.05.04.11.09.16.13-1.28,2.26,1.49,5.54,3.94,4.56.69-.27,1.3-.79,2.04-.82,2-.08,2.77,3.26,4.78,3.28.82,0,1.51-.58,2.24-.94,2.21-1.09,3.48-1.2,4.32,1.12,0,0,.17,2.34,3.46,1.5,1.84-.47,3.4-2.26,4.77-.95.6.57.96,1.4,1.68,1.82,1.65.97,3.69-.83,5.58-.53,1.74.28,3.12,2.3,4.82,1.83,1.66-.46,1.88-2.84,3.18-3.92,1.02-.01,1.66,2.69,2.69,2.64,2.2,1.14,4.83,1.17,6.96-.04.89-.51,1.37-1.62,2.33-1.99,1.55-.6,3.05,1.09,4.7,1.26,2.41.25,3.73-2.49,4.29-4.97.26-.14.52-.27.76-.42,1.2.47,2.81-.15,3.19-1.43.16-.54.13-1.15.29-1.68.23-.3.45-.6.66-.92.94-.67,2.53-.75,2.62-1.87.05-.63-.48-1.15-.62-1.76.38-.71.77-1.46,1.18-2.24.31-.25.63-.48.93-.7,1.04-.73,1.97-2.29,1.05-3.13,0-.02.02-.03.02-.05,1.5-.32,3.36-1.15,3.15-2.66-.07-.49-.36-.91-.44-1.4-.23-1.39,1.28-2.34,2.38-3.22,1.1-.88,1.77-2.93.45-3.44Z"/>
      <path class="cls-30" d="M364.81,273.86c1.14-1.76,1.51-3.81,2.39-5.68.69-1.48,1.44-2.94,2.2-4.38,1.16-2.2,1.83-4.47,2.41-6.89.13-.54-1.28-.17-1.44.2-2.41,5.24-5.08,10.36-8.04,15.3-2.21,3.68-4.55,7.37-7.38,10.61-.72.83-1.74,2.18-2.82,2.55-.87.3-2.01-.17-2.93-.16-.57.01-1.27.17-1.79-.08-.72-.34-.42-.78-.16-1.35.96-2.12-1.28-1.94-2.49-3.06-.77-.71-1.21-1.43-2.27-1.73-.94-.27-1.84-.14-2.79-.06-.41.03-1.74.26-2.06-.08-.26-.27-.15-1.29-.36-1.66-.51-.92-1.58-1.35-2.58-1.43s-2,.12-2.83.6c-1.15.67-1.6,1.97-2.84,2.53h.95c-1.27-1.02-3-1.11-4.48-.49-.71.3-1.22.76-1.69,1.35-.42.52-.72.96-1.33,1.28-.34.18-.71.3-1.05.5-.52.3-.98.7-1.01,1.34-.03.69.56,1.21.61,1.87.08,1.04-1.85.58-2.54.65s-1.3.29-1.83.73l1.02-.27c-4.77-.84-9.54-1.74-14.31-2.63-1.72-.32-3.44-.65-5.16-.97-.98-.18-.92-.17-1.77-.66-2.64-1.52-5.45-2.88-7.97-4.58-.12-.08-.02-.01-.22-.17-.21-.18-.41-.37-.62-.56-.68-.63-1.35-1.27-2.01-1.92-9.71-9.34-19.26-18.85-28.85-28.32-.97-.96-2.02-1.88-2.72-2.95-1.14-1.75-2.41-3.41-3.61-5.11-.59-.83-1.18-1.66-1.73-2.52-.44-.68-.53-1.17-1.27-1.55-.35-.18-1.16.04-1.3.43-.37,1.03-.24,2.36-.16,3.42.11,1.53.47,3,.76,4.5.56,2.88.81,5.82,1.52,8.68.24.97.59,1.2,1.24,1.9.82.88,1.61,1.82,2.35,2.77.69.89,1.39,1.74,2.08,2.63.4.51.86.94.91,1.6.04.51-.03.97.09,1.48.39,1.67,1.7,3.21,3.4,3.64.37.09.79.02.94.32s-.04.84,0,1.2c.09.9.57,1.77,1.27,2.35.3.25.65.45,1.02.58.33.11.75.05,1.04.17.46.19.88.93,1.2,1.34.52.66,1.01,1.12,1.01,1.97,0,1.88.64,3.42,2.46,4.28.5.23.96.28,1.48.4.73.17.62.31.62,1.03,0,1.01.21,1.91.73,2.78,1.1,1.83,3,2.79,5.11,2.62l-.57-.1c.47.52.5,1.35.83,1.98.29.55.67,1.04,1.13,1.46,1.05.96,2.38,1.22,3.39,2.22.58.58,1.04,1.04,1.4,1.77.28.56.55,1.09.96,1.57.9,1.08,1.88,1.41,3.12,1.95.67.29.29.48.26,1.16-.02.48.08.95.26,1.4.43,1.01,1.27,1.85,2.31,2.22.87.32,1.82.25,2.68-.08.66-.25,1.36-.86,2.09-.53.56.25,1,.88,1.38,1.33,1.39,1.64,2.8,2.25,4.81,1.17.97-.52,2.43-1.65,3.42-.62.52.55.55,1.2.84,1.82.76,1.64,3.03,1.39,4.44.94.46-.15.9-.35,1.34-.57.95-.47,1.71-.97,2.57-.07s1.35,1.85,2.73,1.95c1.55.11,3-1.05,4.51-.82s2.44,1.59,3.89,1.86c1.02.19,2.12-.15,2.87-.86,1-.95,1.25-2.43,2.26-3.37l-1.02.27c.8.11,1.25,1.63,1.75,2.15.68.7,1.92.99,2.85,1.19,2.36.51,5.22.01,6.95-1.76.74-.76,1.19-1.25,2.29-.79.59.24,1.13.58,1.72.8.99.37,2.04.43,3.04.05.93-.35,1.67-1.03,2.21-1.86.33-.51.6-1.07.81-1.64.28-.73.27-1.42.99-1.83l-1.02.15c1.35.42,3.04.12,4-.99.77-.89.4-2.18,1.17-3.05.57-.65,1.54-.72,2.22-1.25.55-.43.77-.99.56-1.67-.23-.75-.54-.97-.2-1.75.21-.49.49-1.04.83-1.45.65-.77,1.53-1.12,2.04-2.05.17-.32.31-.66.33-1.02,0-.17-.32-1.03-.34-.98l-.63.43c1.16-.27,2.57-.72,3.34-1.7,1.05-1.34-.49-2.57.21-3.9s2.22-1.74,2.92-3.01c.55-.98.68-2.2-.45-2.77-.39-.2-1.72.38-1.16.67,1.41.72.04,2.59-.71,3.21-.82.68-1.91,1.36-2.21,2.46-.35,1.26,1.02,2.4-.11,3.49-.68.66-2.25.54-2.67,1.37-.02.07,0,.13.05.18.77.9-.08,2.05-.82,2.66s-1.16.89-1.61,1.76c-.15.29-.72,1.08-.77,1.47-.04.32.25.69.37.97.6,1.35-.51,1.56-1.5,2.05-.63.31-1.01.67-1.37,1.29-.57.97-.07,2.36-1.36,2.86-.67.26-1.3-.11-2.01.2-.99.43-1.02.77-1.32,1.73-.26.84-.6,1.68-1.12,2.39-.89,1.2-1.93,1.18-3.2.59s-2.52-1.22-3.95-.66c-.64.25-1.11.72-1.58,1.21-.99,1.05-2.18,1.55-3.63,1.56-1.15,0-2.26-.34-3.28-.83-.62-.3-.88-.76-1.25-1.34-.52-.81-1.23-1.72-2.31-1.17-1.21.61-1.51,2.3-2.3,3.28-1.15,1.43-3.47-1.09-4.88-1.33-.62-.1-1.28-.02-1.89.11-.98.22-2.26.95-3.26.6-1.55-.55-1.66-2.61-3.61-2.47-1.72.12-3.04,1.66-4.78,1.58-2.18-.1-1.5-3.2-3.7-3.52-1.56-.23-2.9.75-4.24,1.35-1.9.86-2.72-1.7-4.06-2.55-.5-.32-1.05-.45-1.63-.4-1.03.08-1.88.94-2.86.95-2.07.04-3.31-2.78-2.5-4.43.02-.07,0-.13-.05-.18-.42-.33-.94-.28-1.45-.46-.63-.22-1.19-.57-1.69-1.01-1.05-.93-1.27-2.31-2.21-3.22-.52-.5-1.08-1.3-1.69-1.68-.42-.26-.96-.3-1.41-.54-1.41-.75-2.05-1.91-2.55-3.36-.41-1.18-.86-.76-1.96-.99-1.36-.28-2.53-1.37-3.15-2.58-.24-.47-.42-1-.49-1.53-.07-.49.19-1.14.08-1.58-.08-.31-.44-.57-.71-.7-.22-.1-.76,0-.99-.05-.38-.07-.77-.23-1.11-.43-1.17-.68-1.98-1.96-1.92-3.32.03-.59.2-.87-.05-1.37-.35-.71-1.1-1.38-1.59-2.01-.41-.52-.49-.75-1.1-.83-.74-.09-1.26-.19-1.82-.73-.46-.45-.77-1.04-.89-1.67-.1-.5.2-1.18.03-1.6-.22-.57-.65-.43-1.13-.5-.64-.09-1.21-.39-1.7-.8-.93-.78-1.59-1.98-1.68-3.19-.03-.42.14-.93.03-1.3-.14-.46-.96-1.27-1.28-1.65-.98-1.13-1.84-2.34-2.81-3.5-.45-.53-.89-1.07-1.37-1.58-.39-.42-.83-.72-1.02-1.28-.61-1.77-.78-3.77-1.06-5.61s-.67-3.76-1.02-5.64c-.31-1.66-.74-3.98-.16-5.61l-1.3.43c.56.28.75.9,1.08,1.43.55.86,1.14,1.69,1.73,2.52,1.2,1.7,2.48,3.36,3.61,5.11.74,1.15,1.79,2.03,2.77,3,5.44,5.37,10.88,10.74,16.34,16.1,4.79,4.71,9.53,9.47,14.44,14.05,1.53,1.43,3.52,2.3,5.32,3.34,1.44.83,2.88,1.82,4.39,2.52.74.34,1.65.4,2.45.55,5.12.96,10.25,1.93,15.38,2.86,1,.18,2.32.66,3.33.53.59-.08,1.03-.44,1.66-.45.69-.02,1.37.11,2.06-.04.87-.18,1.84-.72,1.64-1.75-.1-.53-.52-.98-.58-1.52-.1-1.01,1.18-1.2,1.87-1.64.48-.31.83-.72,1.18-1.17.97-1.25,2.36-1.64,3.69-.58.25.2.7.11.95,0,.85-.38,1.53-.81,2.11-1.55s1-1.36,2.07-1.37c.94-.01,2.01.56,2.26,1.52.22.84-.12,1.42.94,1.68.85.21,1.93.03,2.79-.03.79-.06,1.49-.16,2.23.22.63.33.95.91,1.45,1.38.59.55,2.51.93,2.7,1.71.17.69-.67,1.27-.63,1.95.04.8.97,1.01,1.62,1.06.45.04.9,0,1.35-.02.62-.02,1.08.16,1.66.25.77.12,1.87-.03,2.6-.31,1.03-.39,1.91-1.33,2.66-2.1,2.92-3.02,5.25-6.65,7.44-10.21,3.36-5.44,6.33-11.11,9.01-16.91l-1.44.2c-.58,2.41-1.25,4.67-2.4,6.87-.64,1.21-1.27,2.43-1.86,3.66-.97,2.03-1.4,4.33-2.63,6.23-.34.53,1.1.37,1.34,0Z"/>
    </g>
    <path class="cls-19" d="M440.18,529.54c-13.55,6.51-24.58,17.9-30.76,31.6-1.74,3.86-3.09,7.9-4.02,12.03-.14.64,1.33.44,1.46-.14,3.21-14.29,11.61-27.27,23.23-36.17,3.33-2.55,6.92-4.75,10.7-6.57.9-.43.09-1.09-.61-.75h0Z"/>
    <path class="cls-34" d="M1096.41,41.06s-12.24-11.93,0-27.3c0,0,16.32,3.14,7.22,22.91"/>
    <path class="cls-34" d="M1054.86,132.63s-18.55-6.48-27.14,16.2l39.04-8.53"/>
    <path class="cls-34" d="M1072.29,133.42s-23.09,5.9-26.11,20.71l-3.03,14.81,41.34-32.79"/>
    <path class="cls-34" d="M1082.88,166.69s-23.09,5.9-26.11,20.71l-3.03,14.81,41.34-32.79"/>
    <path class="cls-22" d="M199.79,858.95h132.97c19.07,0,22.6,9.03,22.58,27.52,0,16.99-3.82,26.97-23.11,27.01-4.35,0-8.78.48-13.02-.09-12.76-1.72-15.33,3-13.65,12.87,16.31,96.25,32.25,185.93,48.53,282.19,1.1,6.56.1,9.15-8.72,9.26-22.01.27-22.46.7-25.51-17.29-10.4-61.4-20.53-122.84-30.38-184.31-1.33-8.36-4.73-10.88-14.65-10.81-50.4.42-100.8.42-151.22,0-9.67-.09-12.49,2.87-13.68,10.42-10.34,64.75-21.17,129.45-31.58,194.19-.98,6.04-3.93,7.83-10.93,7.94-22.67.35-23.29.51-20.38-17.65,10.56-65.82,21.54-131.61,32.44-197.4,4.63-27.97,9.25-49.32,14.3-77.25,1.57-8.64-.26-13.5-12.1-11.86-2.53.36-5.22-.1-7.81.07-34,2.41-31.23-21.87-29.26-44.34.77-8.72,9.78-10.77,19.59-10.72,45.2.22,90.39,5.62,135.58,5.62v-5.4ZM198.79,983.22c25.17,0,50.35-.2,75.51.12,7.71.09,11.11-1.32,9.88-8.64-4.06-22.46-7.74-29.34-11.24-51.87-1.06-6.83-3.89-9.72-13.02-9.6-39.91.51-79.85.58-119.79,0-9.88-.16-12.65,3.01-13.75,10.25-3.36,21.81-6.93,27.96-10.89,49.7-1.37,7.53.64,10.44,10.41,10.23,24.21-.58,48.52-.19,72.89-.19Z"/>
    <path class="cls-4" d="M79.59,1002.88c-1.65,10.15-3.33,20.3-5.05,30.45,10.56,2.07,20.99,4.52,31.53,7.05,1.33-8.19,2.65-16.39,3.96-24.59,1.23-7.56,4.01-10.51,13.68-10.44,50.41.44,100.82.44,151.22,0,9.88-.09,13.31,2.47,14.63,10.79,1.28,7.97,2.56,15.93,3.84,23.87,10.11-3.64,20-7.84,29.64-12.58-5.77-33.27-11.53-66.76-17.29-101.11-.58-2.63-.61-5.35-.06-7.99-6.89.46-13.79.82-20.7,1.07-4.22.16-8.46.29-12.7.38.33,1.03.57,2.08.72,3.15,3.51,22.54,7.19,29.42,11.25,51.87,1.31,7.26-2.14,8.64-9.88,8.64-25.16-.31-50.34-.11-75.51-.11s-48.62-.36-72.86.17c-9.77.22-11.78-2.69-10.41-10.21,3.96-21.74,7.53-27.89,10.89-49.71.21-2.43,1.06-4.76,2.47-6.76-11.97-.37-23.93-.67-35.91-.8,1.63,2.1,1.69,5.41.93,9.62-5.11,27.89-9.77,49.24-14.4,77.21Z"/>
    <path class="cls-27" d="M455.17,864.24c2.18-5.52,4.66-10.93,7.34-16.21,6.07-11.94,13.26-23.29,21.2-34.07,8.17-11.07,17.19-21.53,27.01-31.18,6.67-6.55,3.02.81,10.48-4.85-13.62-134.63-450.41-62.25-450.41-62.25,0,0-30.45-7.77-19.96,98.81,9.85,100.14,305.54,42.21,402.96,36.48.47-.03.92,13.3,1.38,13.27Z"/>
    <path class="cls-27" d="M551.58,860.25c-24.55,70.18-78.78,243.94-112.6,328.8,0,0-93,4.73-100.01-16.67,0,0,2.53-430.91,59.54-438.59,42.02-5.66,108.96-10.12,130.66,7.72,26.04,21.41,41.74,63.47,22.41,118.74Z"/>
    <path class="cls-27" d="M506.12,813.21s-14.28-2.74-34.67-2.33c3.95-8.56,5.29-14.94,5.29-14.94-1.89-2.16-3.9-4.38-5.99-6.64-11.67,2.73-23.08,6.49-34.15,10.98-12.87,5.22-25.32,11.43-37.21,18.51-11.45,6.82-22.4,14.52-32.5,23.12-2.86,2.43-5.64,4.96-8.35,7.56.34.11-5.6-.77-5.26-.67-39.44,41.19-38.44,133.13-61.26,216.55-16.73,61.19-34.76,111.06-34.76,111.06,9.06,20.59,121.86,29.04,121.86,29.04,40.1-111.04,127-392.24,127-392.24Z"/>
    <path class="cls-5" d="M388.88,1189.12c.54-1.58,1.08-3.17,1.62-4.75,1.51-4.44,3.02-8.88,4.53-13.33,2.33-6.87,4.66-13.73,6.99-20.6,3.01-8.89,6.02-17.78,9.03-26.67,3.52-10.42,7.03-20.84,10.54-31.27,3.88-11.54,7.76-23.09,11.63-34.64,4.11-12.28,8.21-24.56,12.3-36.84,4.16-12.49,8.31-24.99,12.43-37.5,4.07-12.32,8.12-24.64,12.15-36.97s7.66-23.5,11.45-35.26c3.43-10.66,6.84-21.33,10.21-32.01,2.89-9.18,5.76-18.38,8.56-27.59,2.22-7.29,4.4-14.59,6.46-21.93,1.39-4.91,2.76-9.84,3.87-14.82,3.81-17.05,4.26-35.28-1.38-51.99-5.5-16.3-16.66-30.2-31.47-38.98-7.81-4.63-16.49-7.8-25.44-9.35-2.89-.5-5.81-.77-8.73-1.12-8.32-1-16.63-1.99-24.95-2.99-11.95-1.43-23.9-2.86-35.85-4.29-8.98-1.08-17.96-2.15-26.94-3.23-1.36-.16-2.71-.32-4.07-.49-.61-.07-1.52.78-.54.9,5.21.62,10.43,1.25,15.64,1.87,11.26,1.35,22.52,2.7,33.79,4.05,10.9,1.31,21.79,2.61,32.69,3.92,6.36.76,12.9,1.25,19.19,2.43,18.06,3.4,34.64,13.55,45.42,28.5,10.11,14.02,14.42,31.29,14.01,48.43-.24,10.15-2.08,20.1-4.67,29.88-1.68,6.34-3.51,12.64-5.37,18.93-2.49,8.4-5.05,16.77-7.65,25.13-3.12,10.05-6.3,20.08-9.5,30.1-3.6,11.27-7.23,22.53-10.89,33.78-3.93,12.11-7.89,24.21-11.87,36.3-4.09,12.44-8.2,24.87-12.32,37.29s-8.25,24.83-12.4,37.24c-3.97,11.88-7.95,23.76-11.94,35.64-3.68,10.97-7.37,21.93-11.07,32.89-3.24,9.62-6.49,19.24-9.75,28.85-2.66,7.87-5.33,15.73-8,23.6-1.92,5.65-3.84,11.29-5.76,16.94-1.02,2.99-2.04,5.98-3.06,8.97-.13.37-.25.75-.38,1.12-.19.55,1.27.37,1.46-.16h0Z"/>
    <path class="cls-38" d="M47.46,762.8s28.9-34.41,52.22-42.33c90.19-30.6,266.27-48.09,266.27-48.09,0,0-291.25-38.33-302.76-28.71-11.51,9.61-24.55,99.43-15.73,119.13Z"/>
    <g>
      <polyline class="cls-38" points="137.5 583.23 350.78 669.32 348.13 681.86"/>
      <path class="cls-19" d="M136.93,583.61c2.1.85,4.21,1.7,6.31,2.55,5.72,2.31,11.43,4.61,17.15,6.92l25.07,10.12c10.12,4.08,20.24,8.17,30.35,12.25,10.88,4.39,21.75,8.78,32.63,13.17,10.74,4.33,21.48,8.67,32.22,13,9.67,3.9,19.34,7.81,29.02,11.71,7.68,3.1,15.35,6.2,23.03,9.29l14.25,5.75c.91.37,1.99,1.03,2.96,1.2.09.02.16.08.25.1.02,0,.03.01.04.02-.37-.1,0-.44-.22,0-.37.74-.4,1.9-.57,2.71l-.9,4.24-1.12,5.3c-.13.62,1.34.41,1.46-.15.89-4.18,1.77-8.36,2.66-12.54.02-.11-.05-.26-.16-.3-1.91-.77-3.82-1.54-5.72-2.31-5.17-2.09-10.33-4.17-15.5-6.26-7.64-3.08-15.27-6.16-22.91-9.25-9.35-3.77-18.71-7.55-28.06-11.32-10.25-4.14-20.49-8.27-30.74-12.41-10.3-4.16-20.61-8.32-30.91-12.48-9.61-3.88-19.21-7.76-28.82-11.63-8.15-3.29-16.3-6.58-24.44-9.87-5.84-2.36-11.67-4.71-17.51-7.07-2.77-1.12-5.54-2.24-8.3-3.35-.12-.05-.24-.1-.36-.15-.49-.2-1.79.49-1.14.76h0Z"/>
    </g>
    <path class="cls-19" d="M154.24,336.86c7.32,2.11,11.14,9.57,13.29,16.31,2.62,8.19,3.52,16.93,3.8,25.49.19,5.78.16,11.66-.54,17.41-.56,4.59-1.36,9.15-2.16,13.7-2.81,16.13-5.94,32.2-9.03,48.28-3.92,20.45-7.87,40.89-11.69,61.36-3.58,19.21-7.1,38.45-10.19,57.75-.33,2.04-.65,4.08-.96,6.12-.11.71,1.37.51,1.47-.12,2.92-18.99,6.34-37.89,9.84-56.78,3.85-20.83,7.86-41.64,11.85-62.44,3.24-16.88,6.52-33.75,9.54-50.66.92-5.14,1.83-10.29,2.55-15.46s.88-10.08.86-15.14c-.04-8.5-.67-17.12-2.65-25.41-1.68-7.03-4.51-15.03-10.75-19.3-1.34-.92-2.83-1.61-4.39-2.06-.6-.17-1.71.7-.84.95h0Z"/>
    <path class="cls-19" d="M137.9,582.85c-6.31-.35-12.77,0-18.76,2.17-5.35,1.95-9.91,5.44-13.44,9.88-2.33,2.94-4.19,6.2-5.81,9.58-.2.41,1.23.27,1.45-.19,2.57-5.36,5.88-10.51,10.54-14.28,4.25-3.44,9.41-5.34,14.79-6.07,3.54-.47,7.11-.49,10.67-.29.54.03,1.54-.75.57-.81h0Z"/>
    <g>
      <path class="cls-38" d="M57.47,652.99c5.66,13.2,28.12,19.52,46.93,26.58,66.97,25.13,166.66,35.23,232.55,39.26l7.56-23.78"/>
      <path class="cls-19" d="M56.74,653.19c3.16,7.2,10.43,11.67,17.2,15.03,8.78,4.35,18.15,7.39,27.33,10.76,17.71,6.5,35.69,11.89,54.06,16.23,19.9,4.71,40.03,8.42,60.24,11.53,20.04,3.08,40.17,5.56,60.34,7.6,18.16,1.84,36.35,3.32,54.55,4.5,2.06.13,4.12.26,6.18.39.31.02.9-.15,1.01-.49,2.21-6.94,4.41-13.89,6.62-20.83l.94-2.95c.15-.47-1.3-.28-1.45.19-2.21,6.94-4.41,13.89-6.62,20.83l-.94,2.95,1.01-.49c-17.86-1.09-35.7-2.47-53.5-4.18-19.91-1.92-39.79-4.24-59.58-7.13s-40.04-6.42-59.83-10.82c-18.5-4.12-36.88-9-54.73-15.38-9.02-3.22-18.12-6.38-26.99-10.03-7.72-3.18-16.19-6.95-21.61-13.56-1.13-1.38-2.08-2.89-2.8-4.53-.21-.48-1.63-.03-1.45.39h0Z"/>
    </g>
    <path class="cls-19" d="M404.84,455.87c-3.06,16.85-7.17,33.44-11.13,50.09-3.8,15.95-6.88,32-8.57,48.32-.84,8.13-1.64,16.25-2.55,24.36-1.24,11.07-2.46,22.14-3.59,33.22-.83,8.19-1.94,16.48-2.04,24.72,0,.42,0,.84.02,1.25.02.5,1.48.2,1.45-.39-.13-2.67.18-5.41.39-8.07.36-4.7.81-9.39,1.28-14.07,1.1-11.15,2.32-22.28,3.57-33.41.77-6.92,1.7-13.83,2.28-20.76,1.42-16.9,4.18-33.59,8-50.11s7.84-31.93,11-48.08c.47-2.41.93-4.83,1.37-7.25.11-.59-1.36-.36-1.45.17h0Z"/>
    <path class="cls-20" d="M346.99,679.43l-8.86,33.69-.86.49s36.26,15.21,45.48,15.69c9.22.48,30.69,4.28,30.69,4.28-1.54,2.41-2.19,5.27-1.84,8.11.63,3.23,2.55,6.06,5.33,7.83l11.73-12.68c1.53,7.01,8.24,3.03,8.24,3.03l8.87-11.39c1.49,8.76,10.34,3.81,10.34,3.81l6.79-16.88c1.72,3.23,4.06,6.08,6.88,8.4,3.74,2.57,6.21-4.16,6.21-4.16l-10.82-29.81-39.16-19.06-76.32,9.76-2.69-1.13Z"/>
    <path class="cls-37" d="M462.99,717.09c.25.19.12-.1.15-.46.04-.54.12-1.07.19-1.61.22-1.81.41-3.62.56-5.44s.49-3.7-.22-5.38-2.38-3.03-3.69-4.27c-3.04-2.89-6.41-5.38-9.87-7.73-3.34-2.27-6.66-4.68-10.21-6.6-.54-.29-1.82.45-1.12.83,3.55,1.92,6.87,4.33,10.21,6.6,3.57,2.43,7.06,4.99,10.15,8.01,1.35,1.31,3.06,2.71,3.41,4.66s-.12,4.26-.32,6.22c-.15,1.49-.35,2.97-.51,4.45-.05.44-.26,1.22.16,1.54.5.38,1.78-.33,1.12-.83h0Z"/>
    <path class="cls-37" d="M447.29,728.19c.6-1.31,1.39-2.52,1.9-3.87.6-1.58.89-3.28.93-4.97s-.21-3.44-.52-5.12c-.16-.87-.32-1.94-.74-2.72-.3-.55-.83-1.01-1.28-1.43-1.29-1.19-2.87-2.06-4.36-2.97-1.58-.97-3.18-1.9-4.79-2.82-2.72-1.55-5.5-3.05-8.1-4.8-.55-.37-1.81.38-1.11.85,5.14,3.48,10.88,6.02,15.98,9.57.62.43,1.24.93,1.74,1.5.69.79.91,1.75,1.12,2.75.37,1.72.64,3.54.59,5.3-.04,1.66-.32,3.34-.93,4.88-.51,1.28-1.25,2.43-1.82,3.68-.35.76,1.11.79,1.39.18h0Z"/>
    <path class="cls-37" d="M428.85,737.61c-.16-.27,1.13-1.59,1.28-1.78.84-1.07,1.69-2.2,2.36-3.39,1.36-2.43,1.57-5.38-.14-7.7-1.61-2.17-4.63-3.42-7.14-4.21-1.34-.42-2.67-.88-3.99-1.34-1.88-.65-3.72-1.45-5.61-2.06-.34-.11-1.62.43-1.19.57,2.98.95,5.86,2.22,8.85,3.17,2.46.79,5.24,1.75,7.11,3.64,2.13,2.16,2.18,5.27.85,7.88-.74,1.45-1.79,2.78-2.81,4.04-.18.23-1.21,1.21-1,1.56s1.58-.17,1.45-.39h0Z"/>
  </g>
  <g id="Layer_1" data-name="Layer 1">
    <path class="cls-20" d="M1019.74,500.85l-29.37,49.19-92.02-108.95c-4.7,9.57-18.5,8.14-30.45,15.6,0,0,64,128.61,72.48,141.6,40.98,62.79,67.04,40.2,86.15,15.01,8.13-10.72,56.03-93.93,55.4-106.69-.14-2.76-45.21,24.86-46.52,20.7-9.72-30.99-15.17-26.71-15.67-26.46Z"/>
    <path class="cls-15" d="M736.81,369.17c21.26,7.54,44.38,34.34,53,66.28,8.62,31.94-11.78,171.83-7.6,199.96,5.33,32.77,1.15,40.6,32.37,95.31l4.66,8.52-59.41,3.97s-4.42-55.99-19.64-100.64c-15.22-44.65-3.39-273.4-3.39-273.4Z"/>
    <path class="cls-15" d="M744.63,598.86c1.41-8.48,2.41-17.65,4.8-25.91,4.6-15.94,21.24-24.5,35.1-31.08,3.37-1.6-5.79-2.84-2.36-4.22.03-12.12,7.31-26.35,7.39-38.47.13-19.52,3.78-37.29,2.19-56.78-1.51-18.41-9.45-40.2-23.73-53.24-5.99-5.46-8.02-9.13-15.03-13.06l-20.98-12.36c-.8-.24-12.68-6.59-13.5-6.78-1.75-.4-3.01-.37-3.76-1.46l-8.78-3.43-55.9-29.98-39.67,13.26s-55.09,13.18-66.38,20.67c-13.82,9.12-11.07,192.91-11.07,192.91,0,0-6.4,71.72-54.65,142.08-.32.46-1.69,3.79-1.9,4.32-.63,1.66,9.6,9.53,10.95,10.5,4.18,3.01,11.38,4.16,16.13,6.13,9.68,4.02,17.97,3.72,28.2,5.78,13.92,2.8,27.93,5.18,42.07,6.56,13.18,1.29,27.05-.45,40.04,1.54l147.29,1.01s-11.27-67.07-11.27-67.07c-1.29-7.71-3.41-15.2-4.39-22.99-1.02-8.11-1.51-16.3-1.45-24.47.03-4,.15-8.01.48-11.99.04-.49.1-.98.18-1.46Z"/>
    <path class="cls-8" d="M903.54,805.99c-3.17,95.07-3.22,250.84-18.32,347.88,0,0-73.2,36.37-84.02,15.09,0,0-26.33-198.44-62.36-314.97-31.72-102.62-224.23-110.45-199.79-119.75,38.48-14.64,275.94-32.75,323.62-15.56,31.62,11.4,42.97,24.28,40.87,87.31Z"/>
    <path class="cls-8" d="M816.6,799.42c-14.87-.86-29.73-1.72-44.61-2.49-14.96-.77-29.92-1.45-44.88-1.93-5.84-.19-11.67-.34-17.51-.46.09,5.17-.01,16.36.24,16.38-27.17,51.34,15.52,127.31,12.86,218.63-2.34,80.17-2.55,91.63-6.86,134.22,12.82,19.27,112.4,10.25,112.4,10.25,8.58-85.02,22.7-266.84,30.69-372.24-14.12-.73-28.23-1.54-42.34-2.36Z"/>
    <line class="cls-16" x1="708.58" y1="512.54" x2="708.48" y2="514.08"/>
    <path class="cls-15" d="M583.06,556.76l2.67,41.34c.49.38,1.18.51,1.78.03,5.09-4.01,10.13-6.38,14.91-10.82l126.72,33.56,1.63,58.01s-129.49-4.79-160.6-8.96c-1.77-.24-21.15-3.72-22.86-4.01-16.58-2.83-31.87-22.99-38.61-37.34-8.37-17.82-8.81-39.49-9.14-58.82-.66-38.25-4.4-76.1-4.51-114.36-.06-18.28-1.27-30.2,3.32-47.9,6.44-24.84,11.45-38.39,37.14-49.69l59.91-18.97"/>
    <path class="cls-10" d="M547.5,386.81c10.71.42,17.54,11.08,21.56,19.79,3.21,6.96,5.8,14.53,6.86,22.15,1.58,11.38,2,22.96,2.57,34.43.8,16.2,1.35,32.41,1.83,48.63.44,14.78.8,29.57,1.11,44.35.11,5.05.21,10.11.3,15.16.03,1.56.06,3.11.08,4.67.01.81-.09,1.72.04,2.52.02.1,0,.22,0,.32,0,.38,1.46.12,1.45-.39-.1-6.24-.22-12.47-.35-18.71-.29-14.43-.64-28.86-1.05-43.29-.47-16.43-1.01-32.87-1.77-49.29-.57-12.28-1.06-24.63-2.53-36.85-.77-6.42-2.56-12.61-4.85-18.66-2.02-5.35-4.51-10.6-7.9-15.22-2.78-3.79-6.3-7.26-10.71-9.06-1.93-.79-3.98-1.2-6.06-1.28-.5-.02-1.56.7-.59.74h0Z"/>
    <path class="cls-10" d="M779.91,441.53c-5.29,6.21-8.04,15.28-7.48,23.33.28,4.02,1.08,8.02,1.8,11.98,1.03,5.61,2.08,11.22,2.95,16.86,2.06,13.42,3.2,27.15,1.47,40.67-.9,6.99-2.6,13.94-5.15,20.51-1.76,4.55-4,8.96-6.96,12.86-2.06,2.71-4.47,5.1-7.06,7.3-1.91,1.62-3.96,3.13-5.61,5.02-1.75,1.99-2.57,4.37-3.4,6.85-1.59,4.75-2.83,9.62-3.86,14.52-2.55,12.24-3.98,25.31-1.63,37.7,1.62,8.56,3.63,17.05,5.59,25.54,3.57,15.48,7.27,30.94,11.05,46.37.07.28.14.56.2.84.15.61,1.6.23,1.45-.39-3.24-13.21-6.41-26.44-9.51-39.69-2.13-9.11-4.24-18.22-6.17-27.38-1.06-5.01-1.99-9.99-2.2-15.12-.26-6.43.22-12.88,1.14-19.24.82-5.67,1.98-11.3,3.47-16.83.95-3.53,1.84-7.44,3.57-10.7,1.06-1.99,2.78-3.51,4.48-4.95,2.22-1.87,4.47-3.7,6.49-5.79,7.05-7.3,10.94-16.93,13.45-26.61,3.46-13.39,3.49-27.36,2.06-41.04-1.17-11.18-3.52-22.14-5.34-33.22-.73-4.43-1.21-8.74-.49-13.22.79-4.96,2.72-9.75,5.5-13.93.43-.65.88-1.3,1.39-1.9.58-.68-.81-.81-1.19-.36h0Z"/>
    <path class="cls-20" d="M621.85,260.46s8.97,41.15-3.34,68.04c-1.72,3.75-26.67,11.12-26.67,11.12l33.4,15.89c15.52,4.63,41.97,9.73,64.33,7.76,9.77-.86,23.18.83,30.63-5.54h0s-17.13-7.88-17.83-12.69c-.7-4.81,4.92-44.98,4.92-44.98"/>
    <path class="cls-37" d="M702.78,333.7s-9.15-5.04-14.91-6.64c-5.76-1.61-15.62-1.24-42.22-24.2,0,0,7.86,28.28,41.75,34.26,0,0,9.49,2.04,15.24.63l.13-4.05Z"/>
    <path class="cls-20" d="M731.48,160.38c.12.1.24.19.36.29-.13-.2-.25-.4-.34-.61l-.03.32ZM745.74,164.49c.19.21.41.43.64.64l.02-.26s-.64-.69-.67-.38ZM642.24,302.14c12.47,14.96,32.61,29.38,53.94,32.16,21.34,2.78,23.63-7.13,28.97-12.08,8.89-8.26,12.28-9.89,18.94-18.3,6.43-8.12,10.97-18.03,12.92-28.34,2.11-11.15-.35-22.08,1.39-33.19.79-5.04,4.65-24.86,6.02-36.56,1.37-11.7-9.15-30.92-9.15-30.92-.42-3.23-1.95-5.6-3.46-8.29l-1.38-.12s.66.38.58,1.33c-1.73-.42-3.39-1.52-4.64-2.69v.05c-2.16.77-4.15-.36-5.74-2.1-.03.32.26.98.61,1.01-2.1.14-4.09-.99-5.36-2.38-.03.32.27.98.24,1.3-1.55-.42-3.04-1.37-4.28-2.35.28.44,8.18-.09,8.16.13-2.1.14.21,1.03-1.38-.7l-1.61-1.33c-1.76.17-1.78,1.21-3.05-.17.32.35-.65-3.58-.68-3.26-2.07-.18-1.5-.27-3.14-1.37-.03.32-5.83,1.57-5.86,1.89-1.73-.15-1.41,1.47-2.68.09.32.35,1.36-1.22,1.68-.87-2.1.14-2.99,1.4-4.58-.33.32.35-6.53-4.07-6.53-4.07-2.1.14-1.81.82-3.42-.6.64.69-9.51-1.42-9.22-.76-1.73-.15,2.75,6.62,1.45,5.55-.03.32-3.89-1.3-3.89-1.3-1.76.17.7,1.98-.57.59-.03.32.24,1.3.58,1.33-2.16.77-4.52-.07-6.48-1.52.64.7.93,1.36,1.24,1.71-1.73-.15-3.14.05-4.75-1.37-.03.32.58,1.33.93,1.36-1.78.48-3.83-.01-5.47-1.11-.03.32.61,1.01.92,1.36-1.41.2-2.79.08-4.09-.99l.92,1.36c-1.38-.12-2.47.42-4.49-.39-.03.32.64.69.61,1.01-1.04-.09-2.42-.21-3.43-.62-.03.32.95,1.04.61,1.01-1.38-.12-2.47.42-4.14-.36.32.35.61,1.01.93,1.36-1.38-.12-2.79.08-4.12-.68-.03.32.26.98.58,1.33-1.38-.12-2.47.42-4.15-.36-.03.32.61,1.01.93,1.36-1.38-.12-2.79.08-4.15-.36-.03.32.64.7.96,1.04-1.38-.12-2.79.08-4.47-.71-.06.63.26.98.23,1.3-1.04-.09-1.7-.47-2.73-.56l-1.78.48c-5.39,5.92-6.89,27.2-6.89,27.2-11.45,7.63-17.11,24.71-17.29,30.76-.18,6.05-3.04,18.9-3.04,18.9-1.53-2.37-4.92-7.45-5.74-10.08-.84-2.31.1-5.1-.75-7.41-2.67-5.34-9.71-4.36-13.79-1.52l-.72.99c-5.91,6.71-2.05,29.49,1.3,36.44,0,13.58,11.26,21.66,18.75,12.49l1.42,5.42"/>
    <path class="cls-18" d="M617.8,263.58c-4.05.1-7.85,2.87-8.49,6.99-.29,1.85.19,3.77,1.23,5.31.8,1.18,1.8,1.87,3.09,2.44,2.56,1.12,5.51.96,7.95-.4.53-.3,1.14-.94.69-1.57-.42-.58-1.45-.56-2.02-.24-1.58.88-3.04.91-4.62.29-.65-.26-.77-.31-1.35-.71-.11-.07-.22-.15-.32-.23-.03-.02-.09-.08.01.02.16.14-.08-.09-.11-.13-.09-.1-.17-.2-.25-.3-.91-1.13-1.43-2.56-1.37-3.96.06-1.41.56-2.62,1.44-3.6.06-.07.12-.13.18-.2.29-.31-.1.08.08-.09.15-.14.31-.27.47-.39.43-.33.37-.29.86-.52.09-.04.17-.08.26-.12.4-.19-.27.07.16-.06.21-.06.42-.13.64-.18.04,0,.34-.07.17-.04-.16.03.26-.04.25-.03.26-.03.53-.04.79-.05.66-.02,1.55-.5,1.62-1.22.08-.77-.78-1.03-1.38-1.01h0Z"/>
    <path d="M631.82,213.1l-4.51,30.68-9.66-14.56s10.09-11.56,14.18-16.13Z"/>
    <g>
      <path d="M714.94,274c-2.66,1.11-6.52.46-8.95-1.35-.54-.4-2.46-.23-1.71.34,3.21,2.38,8.77,3.06,12.2,1.63.34-.14.3-.4-.09-.57-.41-.18-1.09-.21-1.45-.06"/>
      <path d="M703.24,272.17c-1.64-.95-3.53-1.54-5.43-1.86-.28-.04-.65.03-.87.19-.17.13-.22.32-.02.46.84.58,1.95.89,2.98.96.33.02.76-.02.97-.28.19-.24-.11-.44-.36-.46-.86-.06-1.71-.3-2.41-.78-.3.22-.6.43-.9.65,1.7.28,3.38.82,4.85,1.68.29.17.74.11,1.02-.02.21-.1.46-.36.16-.54"/>
      <path d="M695.61,271.74c-2.24-.25-4.79-1.45-5.74-3.22-1.44-2.68.45-6.55,3.39-7.93.32-.15.18-.39-.13-.48-.39-.12-.88-.01-1.22.14-2.56,1.2-4.43,4.36-4.27,6.76.15,2.25,2.16,3.99,4.78,4.86.78.26,1.62.46,2.46.56.34.04.96-.01,1.15-.26.19-.25-.11-.4-.43-.43"/>
      <path d="M719.14,273.22c-.1-.27.14-.42.32-.4.6.07,1.24-.05,1.79-.42.18.26.35.52.53.77-1.22.03-2.47.32-3.62.94-.23.13-.53,0-.71-.17-.13-.13-.26-.43-.04-.55"/>
      <path d="M717.41,273.4c1.28-.7,2.68-1.01,4.05-1.04.2,0,.45.12.58.32.1.15.11.35-.05.45"/>
      <path d="M723.77,273.93c1.46.07,3.26-.75,4.12-2.37,1.3-2.44.56-5.53-1.12-7.31-.18-.19-.06-.41.15-.46.27-.06.57.11.76.31,1.46,1.55,2.29,3.93,1.85,6.29-.42,2.2-1.95,3.63-3.74,4.12-.54.15-1.1.23-1.65.2-.22-.01-.61-.15-.69-.42-.09-.28.13-.38.33-.37"/>
    </g>
    <path d="M727.11,237.51s11.28-7.22,16.04-7.06c6.94.23,13.74,6.36,15.7,10.12,0,0-9.27-8.4-14.16-8.42-4.68-.02-17.57,5.35-17.57,5.35Z"/>
    <path d="M695.74,236.07s-9.6-9.22-14.73-10.07c-7.5-1.23-17.07,3.1-19.99,6.37,0,0,12.72-6.04,17.98-5.03,5.03.97,16.75,8.72,16.75,8.72Z"/>
    <path d="M760.78,230.39c.06-.18.1-.38.19-.53.3-.51.58-1.02.85-1.54.12-.38.29-.73.5-1.06,0-.03,0-.03,0-.06-.11-.51-.14-1.01-.13-1.49-.4-1.01-.76-1.66-.82-1.77,0,0-1.6-2.87-5.13-5.46-2.44-1.79-9.84-5.39-20.53-8.37-.62,1.3-1.24,2.61-1.86,3.93-.47,1-.94,2-1.4,2.99,3.91.59,7.18,1.27,9.63,1.84,5.16,1.2,7.8,1.83,10.38,3.41,2.71,1.66,4.7,3.71,5.47,4.51,1.08,1.13,1.82,1.87,2.55,3.06.12.19.21.37.31.56Z"/>
    <path d="M698.75,203.79c.27,1.39.54,2.78.82,4.18.2,1.06.41,2.13.6,3.19-4.94.07-9.14.31-12.29.55-6.67.51-10.08.79-13.77,2.03-3.87,1.3-7.02,3.09-8.24,3.79-1.72.99-2.88,1.63-4.19,2.72-2.86,2.38-3.78,4.59-4.34,4.52-.51-.06-.07-1.93-.02-2.12,1.14-4.71,5.11-8.17,5.41-8.44,0,0,2.97-2.66,8.19-4.79,3.59-1.47,13.85-4.08,27.84-5.64"/>
    <path d="M748.77,231.84c-.39,0-.78.06-1.16.2-1.44.54-2.05,1.87-2.18,2.19-.73,1.73-.36,4.28,1.58,5.49,1.43.89,3.42.9,4.76-.25,1-.86,1.75-2.39,1.51-3.84-1.62-1.11-3.07-2.45-4.51-3.78Z"/>
    <path d="M687.69,230.09c-.4-.27-.8-.53-1.21-.79-.85-.56-1.68-1.19-2.26-2.04-.01-.02-.02-.03-.02-.05-1.06-.06-2.08.12-2.7.55-.29.2-1.06.77-1.52,1.83-.58,1.36-.21,3.03.55,4.1,1.03,1.44,2.97,1.9,4.57,1.38,2.11-.69,3.07-2.97,2.85-4.8-.09-.06-.16-.12-.25-.19Z"/>
    <path class="cls-3" d="M620.58,245.56c-6.39-20.05-12.22-20.75-12.22-20.75,0,0-4.37,4.08-3.28,13.2"/>
    <path class="cls-3" d="M617.39,247.02c-5.19-1.03-2.11,9.1-3.78,11.25-1.67,2.15-3-4.12-2.94-11.52,0,0,.95-9.91,6.09-11.24"/>
    <path class="cls-11" d="M756.69,187.33c-6.78-19.19-27.37-31.29-70.58-40.4-43.22-9.11-78.74,3.91-78.74,3.91,25.74-60.8,89.02-53.25,103.17-52.02,14.15,1.23,76.85,65.64,54.02,112.49l-1.6,4.8s-5.04-25.28-6.27-28.77Z"/>
    <path class="cls-11" d="M597.27,136.87s-1.84-39.65,27.92-50.33c39.75-14.26,92.57-17.5,107.77,24.39l-135.69,25.94Z"/>
    <path class="cls-7" d="M592.96,232.31c-2.89-3.47-1.26-12.46-3.66-16.28-12.59-19.99-6.47-37.98-.09-48.42,2.78-4.55.17-13.17.76-17.32,3.08-21.74,5.64-22.19,40.06-41.8,28.01-15.95,56.59-12.65,73.1-10.33,26.44,3.72,38,6.39,45.66,26.03,1,2.56-.48,4.43.28,7.48,1.07,4.31,6.5,8.64,7.13,14.04,0,0-34.17,7.45-64.77,20.71-30.6,13.26-87.82,69.92-87.28,88.42.02.58-7.98-18.7-11.18-22.53Z"/>
    <path class="cls-11" d="M582.04,189.64s55.47-57.49,110.32-53.27c0,0-69.35-15.23-104.84,32.7l-.91,1.96c-2.41,5.16-3.89,10.69-4.37,16.36l-.19,2.26Z"/>
    <path class="cls-11" d="M749.75,132.45l-3.59-1.71c-8.36-3.97-17.25-6.71-26.39-8.14l-15.32-2.39s37.79-3.29,45.26,6.85l.05,5.39Z"/>
    <path class="cls-11" d="M614.28,197.44s-21.2,18.42-23.38,26.25l-1.6-7.65s7.09-13.9,24.98-18.6Z"/>
    <path class="cls-28" d="M708.8,213.08c3.33.96,7.23-.22,9.48-2.85s2.46-6.87.51-9.84c-.25-.38-1.66.08-1.35.56,1.69,2.57,1.7,6.18-.08,8.71s-4.81,3.48-7.67,2.66c-.44-.13-1.69.53-.89.76h0Z"/>
    <path class="cls-22" d="M1156.59,843.39h129.77c18.61,0,22.06,8.81,22.03,26.85,0,16.58-3.72,26.32-22.55,26.36-4.24,0-8.57.47-12.7-.08-12.45-1.68-14.96,2.93-13.32,12.56,15.92,93.94,31.47,181.45,47.37,275.41,1.07,6.4.1,8.93-8.51,9.04-21.48.27-21.92.69-24.9-16.87-10.15-59.93-20.03-119.89-29.65-179.88-1.3-8.16-4.62-10.62-14.29-10.55-49.18.41-98.38.41-147.59,0-9.44-.08-12.19,2.8-13.35,10.17-10.09,63.19-20.66,126.34-30.82,189.52-.95,5.89-3.83,7.64-10.67,7.75-22.13.34-22.73.49-19.89-17.22,10.31-64.24,21.02-128.45,31.66-192.65,4.52-27.3,9.03-48.14,13.96-75.39,1.53-8.44-.25-13.17-11.81-11.57-2.47.35-5.1-.1-7.62.07-33.18,2.35-30.48-21.35-28.55-43.27.75-8.51,9.55-10.51,19.12-10.46,44.11.22,88.21,5.48,132.32,5.48v-5.27ZM1155.61,964.67c24.56,0,49.14-.19,73.69.12,7.52.08,10.85-1.29,9.64-8.44-3.97-21.92-7.56-28.64-10.97-50.62-1.04-6.67-3.8-9.49-12.7-9.37-38.95.49-77.93.57-116.91,0-9.64-.16-12.34,2.94-13.41,10-3.28,21.29-6.76,27.29-10.63,48.5-1.34,7.35.63,10.18,10.16,9.98,23.62-.57,47.36-.18,71.14-.18Z"/>
    <path class="cls-4" d="M1039.28,983.86c-1.61,9.91-3.25,19.81-4.93,29.72,10.31,2.02,20.49,4.41,30.77,6.88,1.29-8,2.58-15.99,3.87-24,1.21-7.38,3.92-10.26,13.35-10.18,49.2.43,98.4.43,147.59,0,9.64-.08,12.99,2.41,14.28,10.53,1.25,7.78,2.49,15.54,3.75,23.3,9.86-3.55,19.52-7.65,28.93-12.28-5.63-32.47-11.26-65.16-16.87-98.68-.57-2.57-.59-5.22-.06-7.8-6.73.45-13.46.8-20.2,1.05-4.12.16-8.25.29-12.39.37.32,1,.55,2.03.7,3.07,3.42,22,7.01,28.71,10.98,50.62,1.28,7.09-2.09,8.44-9.64,8.44-24.55-.3-49.13-.11-73.69-.11s-47.45-.35-71.11.17c-9.53.22-11.5-2.63-10.16-9.97,3.87-21.21,7.35-27.22,10.63-48.51.21-2.37,1.04-4.65,2.41-6.59-11.68-.36-23.36-.65-35.05-.78,1.59,2.05,1.65,5.28.9,9.39-4.99,27.22-9.53,48.05-14.05,75.35Z"/>
    <path class="cls-20" d="M1172.61,397.25c-26.51,12.39-56.14,11.28-78.08-7.69,5.86-3.02,5.66-8.49,6.01-9.76,1.3-4.71.91-36.91.91-36.91l83.29-26.88s-5.86,50.64.45,66.54c.34.85,3.11,4.64,5.2,6.42-4.97,4.23-11.8,5.48-17.78,8.28Z"/>
    <path class="cls-20" d="M1183.1,317.85s-3,49.76,3.06,66.62c1.47,4.09,20.27,12.21,20.27,12.21l-96.32,55.88-52.18-43.21s40.01-18.55,41.48-23.46c1.47-4.91.08-41.91.08-41.91"/>
    <path class="cls-31" d="M963.56,854.78c-1.65-5.01-1.18,13.84-3.27,9.03-4.72-10.88-10.41-21.28-16.75-31.19-6.52-10.18-13.78-19.85-21.74-28.81-5.41-6.09-11.16-11.88-17.26-17.2,97.26-41.95,365.91-85.75,365.91-85.75,0,0,34.52,43.6,9.88,127.36-7.38,25.09-30.44,25.91-62.94,30.98-76.97,12.01-192.98,18.42-251.01,12.36-.39-.04-2.44-16.73-2.83-16.78Z"/>
    <path class="cls-31" d="M955.87,874.02c-2.24-4.55-4.72-8.97-7.35-13.26-5.95-9.71-12.76-18.81-20.13-27.34-7.58-8.77-15.8-16.94-24.59-24.33-5.98-5.02,12.03-21.01,5.5-25.2-20.28-67.59,345.56-51.21,345.56-51.21,0,0,24.03-30.84,24.7,61.71.63,86.96-244.19,64.14-323.71,68.1-.38.02.4,11.52.02,11.53Z"/>
    <path class="cls-31" d="M887.99,865.67c21.21,60.65,68.09,232.21,97.32,305.56,0,0,80.38,4.09,86.43-14.4,0,0,1.75-410.82-47.51-417.45-36.31-4.89-98.11,8.26-116.86,23.68-22.5,18.5-36.08,54.85-19.37,102.62Z"/>
    <path class="cls-31" d="M927.28,825.02s12.35-2.37,29.97-2.01c-3.41-7.4-4.58-12.91-4.58-12.91,1.64-1.87,3.37-3.78,5.18-5.74,10.09,2.36,19.95,5.61,29.52,9.49,11.13,4.51,21.89,9.88,32.16,16,9.9,5.9,19.36,12.55,28.09,19.98,2.47,2.1,4.88,4.28,7.21,6.53-.3.09,4.84-.67,4.55-.58,34.09,35.6,33.22,115.06,52.94,187.16,14.46,52.88,33.33,114.08,33.33,114.08-7.83,17.79-105.32,25.1-105.32,25.1-34.66-95.97-113.05-357.09-113.05-357.09Z"/>
    <path class="cls-21" d="M1035.37,1169.01c-.57-1.7-1.14-3.41-1.72-5.11-1.59-4.75-3.18-9.5-4.77-14.25-2.45-7.32-4.89-14.63-7.33-21.95-3.11-9.32-6.22-18.65-9.32-27.97-3.61-10.84-7.2-21.68-10.8-32.53-3.92-11.85-7.84-23.71-11.75-35.56-4.08-12.4-8.16-24.8-12.21-37.2-4.05-12.39-8.09-24.78-12.11-37.18-3.83-11.83-7.65-23.66-11.44-35.5-3.46-10.8-6.89-21.61-10.28-32.43-2.91-9.26-5.78-18.54-8.6-27.83-2.19-7.24-4.36-14.49-6.41-21.77-1.31-4.65-2.62-9.31-3.65-14.03-3.79-17.5-3.38-36.36,4.91-52.56,3.96-7.75,9.59-14.51,16.66-19.62,7.34-5.31,15.87-8.76,24.72-10.54,5.53-1.11,11.22-1.42,16.82-1.91,9.09-.8,18.18-1.59,27.27-2.39,11.92-1.04,23.83-2.09,35.75-3.13,11.27-.99,22.55-1.98,33.82-2.96,7.17-.63,14.35-1.26,21.52-1.88,1-.09,2-.18,3-.26,1.16-.1,1.86-1.51.28-1.37-4.04.35-8.08.71-12.12,1.06-9.8.86-19.61,1.72-29.41,2.58-12.08,1.06-24.17,2.12-36.25,3.18-10.88.95-21.77,1.91-32.65,2.86-6.2.54-12.39,1.09-18.59,1.63-12.76,1.12-25.32,4.88-35.76,12.48-13.72,9.99-21.83,25.65-23.97,42.31-1.58,12.26-.05,24.65,3.02,36.55,1.54,5.99,3.27,11.94,5.01,17.88,2.45,8.33,4.98,16.63,7.54,24.92,3.13,10.15,6.32,20.28,9.52,30.4,3.62,11.41,7.27,22.81,10.94,34.2,3.94,12.24,7.91,24.47,11.89,36.69,4.06,12.47,8.14,24.93,12.23,37.38,4.03,12.26,8.06,24.52,12.11,36.78,3.8,11.5,7.61,23,11.42,34.49,3.39,10.22,6.79,20.43,10.19,30.65,2.8,8.42,5.61,16.83,8.42,25.25,2.04,6.1,4.08,12.2,6.12,18.29,1.09,3.26,2.18,6.51,3.28,9.77.14.41.28.82.41,1.23.29.86,2.56.22,2.28-.61h0Z"/>
    <path class="cls-35" d="M1215.15,731.45c15.39,1.05,55.36.7,70.05,5.26,2.82.88-3.03-1.27,0,0,.48-5.84-.42-16.06-.4-21.92.22-66.91-23.02-55.07-22.28-147.68l3.6-9.65,28.01-4.66c-2.07-53.25-3.57-88.45-15.19-114.51-4.66-10.43-29.5-27.92-40.4-33.05-28.4-13.31-53.65-25.4-53.65-25.4,0,0-26.04,37.58-69.41,28.89-35.32-7.08-16.06-22.96-16.06-22.96h0c-20.62,9.68-48.27,18.51-64.19,33.2-13.55,12.5-12,18.1-16.21,35.17-3.25,13.19-9.63,42.14-14.49,75.47-1.45,9.93-8.98,11.99-9.14,12.61-1.14,4.58,5.36-.18,24.74,6.39,9.81,3.32,6.7,33.3,7.66,44.1.47,1,1.37,39.97,1.44,41.31,1.06,21.29,2.99,43.6,1.22,67.03-.04.53-.41,36.08-.44,36.61,1.8.01-7.36-.02-5.56,0,28.44.35,33.08-.06,63.83-1.18,0,0,109.27-6.25,126.88-5.05Z"/>
    <path class="cls-37" d="M1084.48,346.71c2.61,4.68,4.97,9.53,7.77,14.08.04.07.06.14.07.2.26-.18.59-.2.82.15,1.97,3.07,3.93,4.4,5.64,7.66,1.47,2.81,1.28,7,1.27,10.3,2.2.48,6.33.33,9.12.66,18.92.62,19.43-1.9,45.48-16.97,8.27-4.78,7.03-11.31,8.63-12.45-25.88-2.05-51.67-2.27-78.78-3.65Z"/>
    <path d="M1206.4,286.38s4.53-12.16,10.74-41.44c5.56-26.22-34.94-50.22-59.84-55.45-13.69-2.87-60.16.58-72.38,5.59-12.22,5.02-19.29,20.86-21.89,43.97,0,0,8.48-22.64,23.13-21.34,11.95,1.06,50.87-2.93,60.76,1.9,9.89,4.83,31.72,15.04,30.83,51.44-.24,9.92,17.88.38,22.41,6.6,4.53,6.22,6.25,8.73,6.25,8.73Z"/>
    <path class="cls-20" d="M1184.27,327.85l5.79-35.52,3.77-39.88-14.14-31.1-27.75-15.23-32.35-.59s-26.19,5.11-34.46,6.86c-8.27,1.75-14.51,11.44-20.61,22.32-6.09,10.88-4.63,29.51-4.63,29.51-.26.63.31,3.49.4,4.08,1.24,7.52,1.43,14.05,2.48,19.67.49,2.67.36,5.12-.56,7.54-3.6,9.54-3.76,13.7-3.27,19.67.67,8.15,1.82,15.12,4.49,21.63,2.83,6.91,6.44,14.41,7.18,15.88,0,0,8.14,15.58,9.99,17.16,1.86,1.58,4.66,3.1,6.01,3.32,1.35.21,19.06,2.22,19.06,2.22l8.26.2c2.81.07,5.6-.42,8.22-1.44,7.1-2.76,27.38-11.07,32.99-14.61,7.55-4.77,17.27-25.65,17.27-25.65"/>
    <path d="M1178.1,292.97c-.3,3.08-.77,15.36-1.25,18.36l15.99.39c5.28-10.38,11.61-22.58,13.56-25.34,3.05-4.31,4.45-25.8,4.98-33.89l.11-1.74c.53-7.76-6.35-20.42-18.41-33.86-13.26-14.8-37.54-23.95-61.86-23.3-2.31.06-4.62.21-6.86.44-21.19,2.18-39.14,11.92-53.35,28.95-10.25,12.28-11.53,26.76-11.11,35.64,1.35-17.44,8.03-29.46,8.31-29.97,6.33-11.62,13.86-14.7,19.07-15.24,4.54-.47,7.88.89,8.54,1.19,5.07,1.38,12.59,1,18.03.44,4.05-.42,7.28-.97,8.15-1.13,2.8-1.77,6.93-2.97,11.96-3.49,11.69-1.2,28.42,1.58,31.67,6.85,3.6,5.83,11.38,26.4,11.24,31.12"/>
    <path class="cls-20" d="M1182.71,328.58c9.01,9.89,15.84-8.2,15.84-8.2,9.35-10.57,9.69-22.12,9.6-30.03-.09-7.91-8.78-8.05-8.78-8.05-7.4.58-10.82,4.44-17.74,29.15"/>
    <path d="M1070.96,220.09c5.68-8.46,16.51-18.94,22.75-26.99,2.85-.17,16.89,0,19.84-.02,30.08-.18,69.81,18.49,73.3,29.55,2.17,6.9-.73,43.96-2.15,47.29-3.91,9.14-5.75,21.22-5.75,21.22-.75-13.97-10.17-29.83-11.26-34.65-1.09-4.82,6.07-27.24,4.56-28.25-1.51-1.01-28.64-10.35-59.29-10.93-9.04-.17-18.12.31-26.2,1.1.06-.09-15.87,1.77-15.81,1.68Z"/>
    <path d="M1126.66,280.96c1.86-.91,3.99-1.63,5.16-.53.28.26,1.02.99,1.34,2.21.42,1.55-.24,3.29-1.24,4.33-1.33,1.39-3.49,1.58-5.12.77-2.22-1.1-2.88-3.82-2.28-5.77.11-.36.63-.26,2.13-1"/>
    <path d="M1072.89,279.39c-1.81-1-3.98-.23-5.21.81-.29.24-1.07.94-1.45,2.14-.49,1.53.08,3.29,1.02,4.38,1.26,1.45,3.41,1.75,5.08,1.02,2.27-.99,3.07-3.67,2.56-5.65-.1-.36-.54-1.89-2-2.69"/>
    <path d="M1087.82,287.06s-7.21-7.57-12.61-8.2c-7.88-.92-9.94.81-12.83,4.36,0,0,5.26-3.65,10.79-2.86,5.29.76,14.65,6.7,14.65,6.7Z"/>
    <path d="M1114.39,285.29s11.35-6.52,16.78-6.43c7.93.12,17.17,5.19,19.56,9.09,0,0-12.16-7.39-17.74-7.33-5.34.06-18.6,4.68-18.6,4.68Z"/>
    <path d="M1117.78,252.73c-.63,1.78-1.26,3.56-1.89,5.34-.48,1.36-1.67,4.42-2.14,5.78,4.74.4,9.25.08,12.23.59,5.9,1.01,12.07,1.66,17.39,4.52,2.54,1.37,4.66,2.9,6.42,5.07.55.68,1.8,3.24,3.03,3.13.5-.04.57-2.48.58-2.73.11-4.93-3.03-8.11-7.29-10.81-8.69-5.51-18.28-8.67-28.32-10.89"/>
    <path d="M1058.18,264.8s2.71-1.72,2.73-1.74c7.58-4.86,16-7.34,24.82-8.87.58,1.79,1.17,3.59,1.75,5.39.44,1.37,1.32,3.82,1.76,5.18-4.18.08-7.9-.22-10.52.09-5.19.61-10.67,1.18-15.32,3.66-.37.2-3.47,1.48-3.81,1.68-2.37-1.97-1.97-4.78-1.41-5.4Z"/>
    <g>
      <path d="M1092.94,318.14c2.29,1.3,5.83,1.09,8.2-.33.53-.32,2.24.04,1.51.49-3.13,1.88-8.21,1.94-11.16.26-.29-.17-.23-.4.14-.52.39-.12,1-.08,1.31.1"/>
      <path d="M1103.67,317.65c1.58-.72,3.33-1.07,5.08-1.17.26-.01.58.09.77.27.14.14.17.32-.02.43-.81.45-1.84.62-2.79.58-.3-.01-.69-.1-.85-.36-.15-.24.14-.39.37-.38.78.03,1.58-.1,2.25-.48.25.23.5.46.75.7-1.56.08-3.13.42-4.54,1.06-.28.13-.68.03-.92-.13-.18-.12-.38-.38-.09-.51"/>
      <path d="M1110.59,318.04c2.04,0,4.46-.85,5.5-2.4,1.57-2.33.25-6.1-2.26-7.68-.27-.17-.12-.38.16-.44.37-.07.8.08,1.08.26,2.19,1.38,3.55,4.47,3.16,6.69-.36,2.07-2.35,3.47-4.8,4.02-.73.16-1.51.26-2.27.26-.31,0-.86-.11-1.01-.36-.15-.25.14-.36.43-.36"/>
      <path d="M1089.23,316.99c.12-.24-.08-.4-.25-.4-.55,0-1.11-.17-1.57-.57-.19.22-.37.44-.56.66,1.1.15,2.2.55,3.17,1.25.19.14.48.06.66-.09.13-.11.28-.37.09-.51"/>
      <path d="M1090.77,317.33c-1.08-.78-2.31-1.21-3.54-1.38-.18-.02-.42.07-.55.24-.11.13-.13.31,0,.43"/>
      <path d="M1084.99,317.17c-1.33-.08-2.86-1.03-3.48-2.62-.93-2.39.06-5.19,1.75-6.66.18-.16.09-.38-.09-.44-.24-.09-.52.05-.71.21-1.48,1.29-2.46,3.41-2.3,5.64.15,2.08,1.39,3.57,2.96,4.21.47.19.97.32,1.46.36.2.01.56-.07.67-.32.11-.25-.08-.36-.26-.37"/>
    </g>
    <path class="cls-28" d="M1189.52,307.16c1.38-4.26,2.98-8.6,5.44-12.38.92-1.41,2.13-3,3.5-3.77.23-.13-.06.04.14-.07.23-.12.04,0,.03-.02,0-.04.29-.04-.02,0l-.57-.09c.7.68,1.2,1.62,1.58,2.51,1.09,2.52,1.26,5.32.94,8.02-.06.52,1.39.25,1.44-.2.37-3.16.12-6.52-1.49-9.33-.46-.79-.92-1.84-1.97-1.58-2.45.6-4.24,3.36-5.44,5.35-2.2,3.66-3.72,7.72-5.03,11.76-.14.44,1.3.25,1.44-.2h0Z"/>
    <path class="cls-28" d="M1191.07,308.42c2.5-.06,1.61,3.91,1.38,5.34-.16,1.04-1.1,4.58.86,4.52,1.02-.03,1.64-.78,2.07-1.62.79-1.57,1.2-3.35,1.55-5.06.45-2.16.65-4.04.41-6.22-.28-2.51-1.01-5.6-3.53-6.75-.34-.16-1.67.38-1.18.61,2.12.96,2.83,3.64,3.16,5.74.25,1.61.34,3.23.08,4.85-.29,1.83-.68,3.67-1.26,5.43-.2.61-.43,1.23-.74,1.8-.1.18-.29.37-.35.55-.07.19-.47.21.2.09.75-.14.25.02.19-.19-.08-.31-.28-.53-.31-.88-.05-.48,0-.97.06-1.44.13-1.1.35-2.19.48-3.29.11-.96.24-2.09-.17-3s-1.33-1.16-2.28-1.14c-.44.01-1.57.69-.61.66h0Z"/>
    <path class="cls-28" d="M1106.88,264.16c-2.21-.99-3.58-3.19-4.07-5.5-.61-2.89.17-5.88,1.21-8.57.31-.8-1.15-.84-1.39-.2-1.14,2.95-1.96,6.22-1.22,9.37.6,2.56,2.22,4.84,4.65,5.93.65.29,1.67-.64.82-1.02h0Z"/>
    <path class="cls-23" d="M1233.29,428.1c-3.1-.41-6.58.69-9.3,2.04-7.84,3.89-12.63,11.87-15.59,19.81-2.78,7.45-4.2,15.37-5.03,23.26-1.17,11.24-1.09,22.62-1.35,33.91-.38,16.38-.68,32.77-.81,49.15-.03,4.24-.05,8.48-.05,12.73,0,1.72-.22,3.62.02,5.32,0,.07,0,.15,0,.22,0,.2.1.29.29.35,1.97.62,3.93,1.23,5.9,1.85.51.16,1.7-.59.87-.85-1.97-.62-3.93-1.23-5.9-1.85l.29.35c-.05-4.66-.02-9.33,0-13.99.08-14.49.31-28.99.62-43.48.23-11.19.38-22.4.84-33.59.37-9.01,1.33-18.09,3.64-26.83,2.4-9.09,6.55-19.07,14.72-24.44,2.06-1.36,4.32-2.34,6.74-2.82,1.14-.22,2.24-.25,3.38-.25.06,0,.11,0,.17.02.61.08,1.51-.77.54-.9h0Z"/>
    <path class="cls-25" d="M334.94,239.63c-10.38-1.04-27.08-3.91-27.08-3.91,0,0,.16,26.86,24.23,29.28,24.07,2.42,26.32-24.77,26.32-24.77,0,0-13.08.44-23.46-.6Z"/>
    <path class="cls-13" d="M335.04,239.64c-4.94-.5-23.24-2.99-23.24-2.99,0,0,3.67,16.7,21.52,18.49,19.35,1.95,22.57-14.63,22.57-14.63l-20.84-.87Z"/>
    <path class="cls-17" d="M335.19,240.37c-4.94-.5-19.87-2.81-19.87-2.81,0,0,4.88,5.78,19.69,7.27,14.81,1.49,20.02-3.12,20.02-3.12l-19.83-1.33Z"/>
    <path class="cls-25" d="M359.61,240.21c-.51-.18-1.1.03-3.53-.42-4.05-.75-4.98-2.02-7.92-2.53-5.02-.88-8.42.72-10.61.5-2.2-.22-5.21-2.47-10.3-2.61-2.98-.08-10.41.23-14.53.16-2.47-.04-5.25-1.25-5.79-1.18-.75.1.15,5.42,27.76,8.2,27.61,2.78,25.64-1.87,24.93-2.12Z"/>
    <path class="cls-25" d="M707.9,284.55c-10.38-1.04-27.08-3.91-27.08-3.91,0,0,.16,26.86,24.23,29.28,24.07,2.42,26.32-24.77,26.32-24.77,0,0-13.08.44-23.46-.6Z"/>
    <path class="cls-13" d="M708,284.56c-4.94-.5-23.24-2.99-23.24-2.99,0,0,3.67,16.7,21.52,18.49,19.35,1.95,22.57-14.63,22.57-14.63l-20.84-.87Z"/>
    <path class="cls-17" d="M708.15,285.3c-4.94-.5-19.87-2.81-19.87-2.81,0,0,4.88,5.78,19.69,7.27,14.81,1.49,20.02-3.12,20.02-3.12l-19.83-1.33Z"/>
    <path class="cls-25" d="M732.57,285.14c-.51-.18-1.1.03-3.53-.42-4.05-.75-4.98-2.02-7.92-2.53-5.02-.88-8.42.72-10.61.5-2.2-.22-5.21-2.47-10.3-2.61-2.98-.08-10.41.23-14.53.16-2.47-.04-5.25-1.25-5.79-1.18-.75.1.15,5.42,27.76,8.2,27.61,2.78,25.64-1.87,24.93-2.12Z"/>
    <path class="cls-25" d="M1099.22,330.93c9.5.13,24.9-.74,24.9-.74,0,0-2.92,24.28-24.94,23.98-22.02-.3-21.24-25.12-21.24-25.12,0,0,11.78,1.75,21.28,1.88Z"/>
    <path class="cls-13" d="M1099.13,330.93c4.51.06,21.33-.3,21.33-.3,0,0-5.04,14.73-21.37,14.51-17.7-.24-18.9-15.57-18.9-15.57l18.94,1.37Z"/>
    <path class="cls-17" d="M1098.92,331.58c4.51.06,18.26-.49,18.26-.49,0,0-5.01,4.72-18.55,4.54-13.54-.18-17.78-4.89-17.78-4.89l18.07.84Z"/>
    <path class="cls-25" d="M1076.85,328.91c.48-.11,1,.14,3.24-.02,3.74-.26,4.71-1.31,7.42-1.48,4.63-.28,7.54,1.52,9.55,1.55,2.01.03,4.97-1.7,9.59-1.29,2.71.24,9.39,1.28,13.13,1.64,2.24.22,4.88-.59,5.36-.47.66.17-.69,4.89-25.95,4.55-25.26-.34-23-4.34-22.33-4.49Z"/>
    <path class="cls-35" d="M1085.54,402.14s-51.93,2.91-67.49,40.46c-12.26,29.6-35.2,94.74-35.2,94.74,0,0,16.98,36.66,62.96,34.41,45.98-2.25,39.74-169.62,39.74-169.62Z"/>
    <path class="cls-23" d="M1023.57,473.7c-.42,11.52-.02,23.08.37,34.59.46,13.82,1.09,27.64,1.61,41.46.26,6.87.5,13.75.64,20.62,0,.49,1.46.2,1.45-.39-.25-12.73-.82-25.45-1.34-38.17-.55-13.43-1.11-26.85-1.34-40.29-.1-6-.15-12,.07-18,.02-.62-1.43-.34-1.45.17h0Z"/>
    <path class="cls-20" d="M878.66,472.9l-10.75-16.21s-24.57-11.01-33.09-20.16c-5.91-6.85-10.84-14.49-14.65-22.7l-19.76-20.48s-13.46-3.93-12.54-8.23c.92-4.3,6.34-4.16,11.61-4.01s73.49,26.41,73.49,26.41c-2.94-6.98-6.47-13.69-10.56-20.07-6.35-9.75-4.08-17.95,2.22-17.06,3.88.55,16.07,12.3,16.01,19.04-.06,6.74,13.72,14,18.75,24.73,5.03,10.73.32,26.18.32,26.18,1.94,6.02,6.46,13.84,6.46,13.84-5.48,10.04-27.5,18.72-27.5,18.72Z"/>
    <path class="cls-37" d="M805.4,397.41c-.11-.35.45-.88.65-1.1.65-.7,1.56-1.2,2.47-1.44,1.47-.38,3.04.08,4.46.51,2.28.69,4.45,1.73,6.5,2.94,1.57.93,3.09,1.96,4.53,3.08.23.18,1.99,1.59,1.96,1.64l1.18-.44c.29.04-.25-.27-.4-.4-.46-.38-.89-.78-1.33-1.18-.29-.26-1.62.25-1.36.51,2.7,2.62,5.12,5.51,7.19,8.66s3.97,6.27,5.07,9.76c.12.37,1.56-.04,1.45-.39-1.14-3.62-3.2-6.98-5.3-10.12s-4.41-5.86-7.04-8.42l-1.36.51c.53.48,1.39,1.6,2.16,1.7.33.04,1.01-.1,1.18-.44.2-.38-2.15-2-2.39-2.18-2.11-1.62-4.38-3.05-6.78-4.21s-5.53-2.55-8.32-2.31c-1.34.11-2.67.54-3.82,1.22-.59.35-2.42,1.56-2.14,2.47.11.37,1.55-.04,1.45-.39h0Z"/>
    <path class="cls-37" d="M828.63,403.08c-.6.88-1.03.18-.63.34.11.05.27.05.39.08.3.07.6.17.9.26.85.27,1.69.57,2.52.88,1.58.58,3.15,1.2,4.71,1.83,1.77.71,3.5,1.5,5.22,2.32,1.22.58,2.44,1.18,3.61,1.85.21.12,1.51.82,1.47.99-.11.49,1.34.27,1.44-.2.18-.79-2.53-1.89-2.99-2.13-2.19-1.14-4.44-2.19-6.72-3.15-2.61-1.09-5.26-2.15-7.96-3.02-.81-.26-2.65-1.02-3.31-.06-.35.51,1.09.37,1.34,0h0Z"/>
    <path class="cls-37" d="M899.05,440.25c-3.89,3.42-8.72,5.66-13.85,6.39-.26.04-.8.19-.81.53s.38.42.64.38c5.64-.81,10.92-3.23,15.2-6.99.26-.23.11-.5-.16-.6-.34-.12-.77.05-1.02.27h0Z"/>
    <path class="cls-37" d="M990.04,550.49c5.37,6.32,9.37,13.65,11.39,21.72s2.01,16.53.78,24.76c-.09.62,1.62.32,1.7-.23,1.93-12.93.64-26.2-5.85-37.74-1.83-3.26-4.01-6.31-6.43-9.16-.36-.42-1.99.18-1.59.65h0Z"/>
    <path class="cls-37" d="M872.13,407.85c-5.26,6.88-7.21,15.94-5.23,24.38.11.46,1.56.09,1.45-.39-1.95-8.3-.06-17.21,5.12-23.99.37-.48-1.07-.35-1.34,0h0Z"/>
    <path class="cls-37" d="M837.56,426.33c.6-1.87,1.87-3.49,2.99-5.07,1.24-1.75,2.53-3.46,3.88-5.13,2.57-3.18,5.34-6.2,8.27-9.06.63-.61-.78-.74-1.19-.34-3.1,3.02-6.02,6.23-8.71,9.62-1.29,1.62-2.53,3.27-3.72,4.96s-2.36,3.26-2.97,5.18c-.19.6,1.28.42,1.46-.14h0Z"/>
  </g>
  <g id="Layer_2" data-name="Layer 2">
    <path class="cls-20" d="M764.73,576.16l13.76-5.48s44.36,5.29,56.66,2.09c8.79-2.68,17.15-6.74,24.82-12.04l11.07.63c5.1.29,10.04-1.38,13.99-4.74l3.04-2.59s13.85,4.89,15.32.25c1.47-4.64-3.35-7.96-8.03-11.19-4.68-3.22-90.07-22.79-90.07-22.79,6.26-4.7,19.58-6.07,26.52-9.47,10.71-5.14,12.91-11.51,6.93-14.68-3.69-1.96-13.42-1.58-18.74,3.03-5.3,4.6-36.46,4.45-46.54,11.35-10.07,6.9-14.13,24.46-14.13,24.46-.8.71-4.57,2.52-4.57,2.52,0,1.7,9.96,38.65,9.96,38.65Z"/>
    <path class="cls-37" d="M887.44,553.69c-5.27-1.32-10.76-1.87-16.14-2.57-6.62-.87-13.26-1.65-19.86-2.72-2.64-.43-5.31-.86-7.89-1.61-.59-.17-2.08.7-1.08,1,5.21,1.51,10.74,2.08,16.1,2.81,6.62.9,13.26,1.67,19.87,2.65,2.65.39,5.32.79,7.92,1.44.59.15,2.09-.74,1.08-1h0Z"/>
    <path class="cls-37" d="M858.38,560.13c-8.77-.48-17.54-.95-26.3-1.43-1.25-.07-2.5-.14-3.76-.2-.7-.04-1.88.98-.68,1.04,8.77.48,17.54.95,26.3,1.43,1.25.07,2.5.14,3.76.2.7.04,1.88-.98.68-1.04h0Z"/>
  </g>
  <g id="Layer_4" data-name="Layer 4">
    <path class="cls-20" d="M1282.88,553.21c-22.64,2.62-49.23,5.64-71.87,8.26l4.42,108.17-29.33,10.01-131.94,54,7.68,28.46s96.55-8.96,123.02-15.02c1.51-.34,59.01-10.33,68.63-13.81,16.65-6.03,22.68-14.65,27.36-27.55,5.8-16.02,5.67-48.11,4.42-64.79-1.23-16.54-1.79-71.22-2.41-87.73Z"/>
    <path class="cls-20" d="M1055.4,733.37l10.62,28.13-4.17.62s-32.92,13.16-41.09,13.01c-8.16-.15-27.33,1.87-27.33,1.87,1.21,2.22,1.6,4.79,1.12,7.27-.76,2.81-2.63,5.19-5.18,6.58l-9.56-11.91c-1.78,6.08-7.46,2.16-7.46,2.16l-7.12-10.59c-1.86,7.63-9.35,2.72-9.35,2.72l-4.94-15.31c-1.72,2.74-3.96,5.11-6.59,6.98-3.45,2.03-5.22-4.05-5.22-4.05l11.4-25.62,35.73-14.38,66.71,13.35,2.44-.83Z"/>
    <path class="cls-37" d="M951.85,758.96c.35-.26.24-.84.22-1.21-.04-1.27-.13-2.55-.17-3.82-.05-1.76-.27-3.74.05-5.49.34-1.86,1.94-3,3.3-4.14,2.87-2.43,6.05-4.45,9.29-6.35,3.06-1.78,6.11-3.7,9.34-5.16.92-.42.06-.73-.53-.46-3.2,1.45-6.23,3.32-9.27,5.08-3.28,1.9-6.52,3.91-9.45,6.32-1.2.99-2.74,2.07-3.54,3.42s-.68,2.82-.67,4.29c.01,1.71.05,3.41.14,5.12.03.52.06,1.04.08,1.57,0,.28-.11.83.09.68-.62.45.82.36,1.13.14h0Z"/>
    <path class="cls-37" d="M965.32,769.04c-.4-1.05-.93-2.04-1.29-3.1-.51-1.49-.7-3.09-.63-4.66.07-1.46.39-2.92.76-4.33.2-.79.44-1.77.96-2.41s1.31-1.13,2.01-1.52c4.73-2.67,9.82-4.64,14.51-7.36.85-.49-.4-.8-.92-.5-2.44,1.41-5.03,2.56-7.57,3.79-2.74,1.32-5.85,2.56-8.25,4.45-1.15.91-1.6,1.71-2.02,3.11-.46,1.51-.82,3.13-.92,4.71s.01,3.08.44,4.53c.37,1.28,1.01,2.44,1.48,3.68.21.55,1.65.13,1.45-.39h0Z"/>
    <path class="cls-37" d="M980.99,778.8c.19-.27-.42-.93-.55-1.12-.68-.98-1.31-1.98-1.91-3.02-1.24-2.14-1.68-4.76-.22-6.91s4.41-2.92,6.8-3.5c1.07-.26,2.14-.57,3.2-.86,1.63-.43,3.23-1.01,4.86-1.41.11-.03.74-.21.67-.41-.08-.21-.66-.05-.78-.02-2.72.67-5.38,1.61-8.11,2.27-2.35.57-4.9,1.32-6.83,2.85-1.96,1.55-2.58,4.01-1.92,6.37.41,1.45,1.27,2.77,2.1,4.02.14.21,1.43,1.76,1.26,2-.15.21.53.14.58.13.27-.04.68-.15.85-.39h0Z"/>
    <path class="cls-37" d="M1214.88,669.98c4.78-1.71,9.69.85,13.53,3.59,4.08,2.91,7.76,6.34,11.03,10.13.52.6,2.13-.09,1.56-.76-3.6-4.17-7.71-8.03-12.31-11.08-4.11-2.73-9.22-4.84-14.13-3.08-1.01.36-.72,1.57.32,1.19h0Z"/>
    <path class="cls-35" d="M1285.18,477.96c7.57,53.9,7.83,54.24,9.67,91.57,0,0-104.65,26.73-85.54-8.81,5.36-9.98-.51-51.37-.51-51.37l76.38-31.4Z"/>
  </g>
  <g id="Layer_6" data-name="Layer 6">
    <g>
      <path class="cls-15" d="M510.3,633.69c13.83,23.77,40.46,23.77,40.46,23.77,38.61-2.04,85.66-22.74,117.31-33.43,37.99-12.84,106.18-46.42,106.18-46.42l-7.38-13.8-11.61-29.31s-93.08,20.27-114.46,24.26c-21.38,3.99-58.42,9.42-65.83,19.39,0,0-16.82,12.75-22.42,35.38"/>
      <path class="cls-33" d="M509.58,633.88c8.22,14,23.53,22.94,39.7,23.85,3.29.18,6.67-.34,9.93-.72,6.28-.74,12.51-1.84,18.69-3.19,12.94-2.83,25.63-6.68,38.17-10.91,12.25-4.13,24.35-8.66,36.49-13.1,9.52-3.48,19.16-6.64,28.63-10.27,19.62-7.53,38.83-16.12,57.9-24.92,11.74-5.42,23.43-10.94,35.04-16.63.18-.09.37-.18.55-.27.06-.03.37-.18.3-.31-1.56-2.92-3.12-5.83-4.68-8.75-1-1.88-2.18-3.73-2.96-5.71-2.8-7.07-5.6-14.15-8.41-21.22-.98-2.48-1.96-4.95-2.94-7.43-.07-.18-.47-.12-.6-.09-8.37,1.82-16.74,3.64-25.11,5.45-16.82,3.63-33.64,7.25-50.48,10.82-13.12,2.78-26.23,5.66-39.42,8.1-10.44,1.94-20.92,3.67-31.3,5.91-9.45,2.05-19.36,4.21-28.03,8.65-1.47.75-2.91,1.59-4.22,2.61-.93.72-1.65,1.59-2.45,2.4-1.24,1.25-2.71,2.3-3.98,3.54-6.72,6.6-12.18,14.6-15.74,23.33-1.15,2.81-2.08,5.69-2.82,8.63-.09.34,1.34.14,1.43-.24,2.64-10.5,7.96-20.19,15.12-28.29,1.9-2.14,3.91-4.19,6.09-6.06,1.28-1.1,2.38-2.44,3.78-3.48,3.16-2.34,6.93-3.84,10.62-5.14,4.8-1.7,9.74-3,14.69-4.18,10.63-2.53,21.41-4.37,32.16-6.3,13.08-2.35,26.08-5.15,39.08-7.9,16.8-3.55,33.58-7.15,50.36-10.77,6.54-1.41,13.08-2.83,19.61-4.24,3.28-.71,6.67-1.25,9.91-2.15.14-.04.29-.06.44-.1l-.6-.09c2.42,6.11,4.84,12.22,7.26,18.32l3.84,9.7c.68,1.71,1.57,3.27,2.44,4.9,1.82,3.4,3.63,6.79,5.45,10.19l.3-.31c-9.37,4.62-18.82,9.09-28.29,13.51-18.71,8.74-37.55,17.25-56.72,24.96-8.92,3.59-17.95,6.76-27.01,9.96-11.41,4.03-22.72,8.34-34.11,12.4-24.48,8.73-49.77,17.06-75.87,18.79-4.19.28-8.69-.83-12.66-1.99-8.89-2.6-17.05-7.54-23.12-14.58-1.89-2.19-3.55-4.55-5.01-7.05-.22-.38-1.59.16-1.45.39h0Z"/>
    </g>
    <path class="cls-30" d="M333.21,230.7l-1,4.98c-.16.76-.77,1.34-1.55,1.44-5.31.69-25.49,3.24-30.3,3.13-.12,0,.4,2,.29,1.98l-1.12-.09c-1.79-.37-.43-6.38,1.28-7.03,5.21-1.97,9.87-3.35,12.75-3.99,3.6-.8,13.57-2.7,17.9-2.61,1.14.02,1.97,1.08,1.74,2.2Z"/>
    <path class="cls-30" d="M342.31,229.68l-1.37,4.41c-.1.77.25,1.52.9,1.86,4.41,2.35,16.23,9.41,20.45,10.84.1.03.19.05.3.07l1.44.19c1.68.22,2.01-3.61.73-4.77-3.92-3.54-3.81-5.01-6.12-6.54-2.89-1.91-10.3-6.27-14.11-7.57-1-.34-2.06.39-2.21,1.52Z"/>
  </g>
</svg>