<svg id="Layer_1" data-name="Layer 1" xmlns="http://www.w3.org/2000/svg" viewBox="0 0 496.11 275.13"><defs><style>.cls-1,.cls-9{fill:#0d4060;}.cls-1{opacity:0.15;}.cls-14,.cls-16,.cls-2,.cls-7{fill:none;stroke-linecap:round;stroke-miterlimit:10;}.cls-2{stroke:#198ab1;stroke-width:5.18px;}.cls-3{fill:#fbad18;}.cls-4{fill:#e59425;}.cls-5{fill:#00a1cd;}.cls-6{fill:#a1cbec;}.cls-7{stroke:#0f8ab2;stroke-width:5.68px;}.cls-8{fill:#a2cced;}.cls-10{fill:#fff;}.cls-11{fill:#5652a3;}.cls-12{fill:#504b48;}.cls-13{fill:#ed1651;}.cls-14{stroke:#0d4060;stroke-width:2.01px;}.cls-15{fill:#282826;}.cls-16{stroke:#0d4161;stroke-width:2.2px;}</style></defs><ellipse class="cls-1" cx="251.9" cy="255.49" rx="157.18" ry="10.04"/><path class="cls-2" d="M305.29,142.13s-11,34.53-38.93,26.1"/><polyline class="cls-3" points="387.17 251.78 378.93 251.78 378.93 216.29 312.57 216.29 312.57 251.78 304.16 251.78 304.16 212.97 304.29 212.97 304.29 205.41 387.17 205.41 387.17 213.08"/><rect class="cls-4" x="297.77" y="188.52" width="96.45" height="19.29" rx="5.83"/><path class="cls-5" d="M409.08,103.35c0,39.15-32,94.26-69.52,94.26-39.54,0-69.51-54.31-69.51-93.46s31.12-48.32,69.51-48.32S409.08,64.2,409.08,103.35Z"/><path class="cls-6" d="M271.13,163.62c1.91,1,3.11,3.46,2.84,6.32-.35,3.65-3,6.57-5.81,6.5l-7-.17h-.22l-9.49-.23a1.47,1.47,0,0,1-1.19-1.77,1.73,1.73,0,0,1,1.52-1.7l5.17.13a7.52,7.52,0,0,1-.31-1.44l-6.19-.15c-.75,0-1.28-.82-1.19-1.77a1.73,1.73,0,0,1,1.52-1.7l6.19.15a8.54,8.54,0,0,1,.51-1.28l-5.32-.13c-.74,0-1.28-.81-1.19-1.77a1.74,1.74,0,0,1,1.52-1.7l8.87.22a4.32,4.32,0,0,1,.88-.11l-1.64-.7a1.75,1.75,0,0,1-.69-2.18h0a1.44,1.44,0,0,1,1.8-1.12"/><path class="cls-7" d="M240.63,160.64s-14-4.58-18.64-10.27-6.81-20.79-6.81-20.79"/><path class="cls-8" d="M245.14,154.9a6.58,6.58,0,0,0-6.52,3.35c-1.83,3.12-1,7,1.78,8.67l6.94,4.07.15.07.07.06,9.37,5.49a1.73,1.73,0,0,0,1.74-3l-5.1-3a6.57,6.57,0,0,0,1.15-1l6.12,3.59a1.73,1.73,0,0,0,1.74-3l-6.12-3.58a7,7,0,0,0,.27-1.33l5.25,3.08a1.73,1.73,0,0,0,1.74-3L255,160.37a4.75,4.75,0,0,0-.79-.61l2,.41a1.77,1.77,0,0,0,2-1.33h0a1.53,1.53,0,0,0-1.09-2"/><polyline class="cls-3" points="195.99 252.27 187.75 252.27 187.75 216.78 121.4 216.78 121.4 252.27 112.98 252.27 112.98 213.47 113.12 213.47 113.12 205.9 195.99 205.9 195.99 213.57"/><rect class="cls-4" x="106.6" y="189.02" width="96.45" height="19.29" rx="5.83"/><path class="cls-5" d="M167,5.65C129.71,3.85,99,11.61,97.14,51c-.48,10,.36,20.1,1.28,30,1,11,3.58,22.09,5.94,32.92,1,4.76,2.19,8.94,1.47,13.85-.64,4.31-3.07,8.6-5.19,12.4-5.71,10.27-7.61,21-4.3,32.44,2.2,7.58,8.1,13.81,14.84,17.88,14,8.42,19.67,8.29,49,9.71,17.38.83,35.58.38,50.38-10.09a37.92,37.92,0,0,0,13.37-17.31,42.74,42.74,0,0,0,2.6-10.22c1-5.95-.54-13.7-2.54-19.24-3-8.32-5.74-19.36-3.08-28.2,6.2-20.59,10.78-47.89,11.29-58.46,1.89-39.35-27.92-49.22-65.2-51"/><path class="cls-9" d="M213.5,76.08s-1.64,8.66-13.45,8.17-13.51-8.72-13.51-8.74h0Z"/><path class="cls-10" d="M205.56,69c.26-5.37,5.11-9.5,10.84-9.23s10.16,4.86,9.9,10.23"/><path class="cls-9" d="M215.51,69.52a4.52,4.52,0,0,1,9,.43"/><path class="cls-10" d="M174.72,67.55c.26-5.37,5.14-9.5,10.9-9.22s10.21,4.86,10,10.22"/><path class="cls-9" d="M184.73,68a4.52,4.52,0,0,1,9,.44"/><path class="cls-9" d="M175.62,62.78l-5.28-2.54,4.58,4.23c-.07.23-.12.44-.18.65l-4.65-.84,4.38,2.21a9.84,9.84,0,0,0-.1,1c2.91-8.3,8-9.18,9.41-9.26C179.18,58.19,176.82,60.45,175.62,62.78Z"/><path class="cls-9" d="M183.78,58.27h0Z"/><path class="cls-9" d="M230.9,67.21l-4.7.39c0-.21-.07-.43-.12-.66l5-3.77-5.5,2c-1-2.43-3.11-4.92-7.69-5.28,1.43.22,6.38,1.58,8.48,10.13,0,0,0-.41,0-1.05Z"/><polyline class="cls-5" points="147.42 196.27 169.03 250.32 177.71 248.09 170.65 190.49"/><polygon class="cls-11" points="179.14 255.25 171.67 257.17 162.12 233.65 175.52 230.21 179.14 255.25"/><path class="cls-12" d="M194.23,252.38a11.74,11.74,0,0,0-22.75,5.84"/><polyline class="cls-5" points="176.74 189.02 198.34 243.07 207.03 240.84 199.97 183.24"/><polygon class="cls-11" points="207.73 248.44 200.26 250.36 191.75 226.57 204.87 223.2 207.73 248.44"/><path class="cls-12" d="M224.61,244.06a11.74,11.74,0,0,0-22.75,5.84"/><path class="cls-7" d="M131.5,129.25s-1.7,17.82,10.27,29.47c9.91,9.63,34.78,14.2,34.78,14.2"/><polyline class="cls-5" points="314.56 179.5 300.91 241.9 305.9 243.63 332.23 185.9"/><polygon class="cls-13" points="306.91 242.56 300.76 240.1 307.44 211.85 318.63 215.73 306.91 242.56"/><path class="cls-12" d="M306.63,245.17a9.83,9.83,0,0,0-18.58-6.44"/><polyline class="cls-5" points="338.07 186.6 324.42 249 329.41 250.73 355.74 193"/><polygon class="cls-13" points="330.42 249.67 324.27 247.21 330.95 218.96 342.14 222.83 330.42 249.67"/><path class="cls-12" d="M330.14,252.27a9.83,9.83,0,0,0-18.58-6.44"/><line class="cls-14" x1="294.68" y1="84.82" x2="282.38" y2="89.76"/><line class="cls-14" x1="318.5" y1="85.23" x2="332.2" y2="89.31"/><path class="cls-9" d="M320.22,111.94s-2.2,8.39-14,8.4-12.86-7.8-12.86-7.8Z"/><path class="cls-10" d="M311.94,104.89c0-5.34,4.63-9.68,10.33-9.68s10.32,4.34,10.32,9.68"/><path class="cls-10" d="M281.24,104.89c0-5.34,4.65-9.68,10.38-9.68S302,99.55,302,104.89"/><path class="cls-9" d="M291.4,95.21a10.27,10.27,0,0,0-10,7.29,6.63,6.63,0,0,0,10-7.29Z"/><path class="cls-2" d="M379.09,142.9s-1.53,36.22-30.67,35.43"/><path class="cls-6" d="M351.06,173.24c2,.64,3.64,2.89,3.84,5.76.26,3.66-1.84,7-4.66,7.37l-7,1h-.15l-.07,0-9.4,1.33c-.74.1-1.4-.59-1.47-1.55a1.74,1.74,0,0,1,1.22-1.92l5.12-.73a7.41,7.41,0,0,1-.54-1.36l-6.13.86c-.74.11-1.4-.59-1.47-1.55a1.74,1.74,0,0,1,1.22-1.92l6.14-.87a8.39,8.39,0,0,1,.29-1.34l-5.27.74c-.73.1-1.39-.59-1.46-1.55a1.72,1.72,0,0,1,1.22-1.92l8.79-1.24a3.53,3.53,0,0,1,.84-.25l-1.73-.43a1.76,1.76,0,0,1-1-2h0c.15-.94.87-1.57,1.59-1.39"/><path class="cls-9" d="M322.25,95.21a10.28,10.28,0,0,0-10,7.29,6.63,6.63,0,0,0,10-7.29Z"/><rect class="cls-15" x="175.57" y="152.91" width="19.84" height="33.84" rx="3" transform="translate(-30.82 41.53) rotate(-11.8)"/><path class="cls-8" d="M185.38,184.54a1.73,1.73,0,0,0,1-3.3l-5.67-1.67a7.26,7.26,0,0,0,.89-1.21l6.8,2a1.73,1.73,0,0,0,1-3.3l-6.8-2a7.65,7.65,0,0,0-.07-1.36l5.84,1.72a1.73,1.73,0,0,0,1-3.3l-9.74-2.86a5.33,5.33,0,0,0-.91-.4l2.05-.09a1.75,1.75,0,0,0,1.59-1.76h0a1.54,1.54,0,0,0-1.53-1.65l-11,.44a1.6,1.6,0,0,0-1.09.53,6.59,6.59,0,0,0-5.52,4.83c-1,3.47.7,7.06,3.83,8l7.72,2.27.16,0,.08,0Z"/><path class="cls-16" d="M174.65,50.16s9,4.25,13.28-5.85"/><path class="cls-16" d="M227.91,53.81s-9.46,3-12.4-7.55"/></svg>