<svg id="Layer_1" data-name="Layer 1" xmlns="http://www.w3.org/2000/svg" viewBox="0 0 245.14 236.92"><defs><style>.cls-1{fill:#faad1c;}.cls-2{fill:#ffcc04;}.cls-14,.cls-16,.cls-3,.cls-9{fill:none;stroke-miterlimit:10;}.cls-3{stroke:#188ab2;stroke-width:4.5px;}.cls-14,.cls-16,.cls-3{stroke-linecap:round;}.cls-4{fill:#02a1cd;}.cls-5{fill:#5753a4;}.cls-6{fill:#514c49;}.cls-7{fill:#f4e1b0;}.cls-8{fill:#5a3616;}.cls-9{stroke:#f4e1b0;stroke-width:2.62px;}.cls-10{fill:#a2cced;}.cls-11{fill:#e92254;}.cls-12{fill:#504b48;}.cls-13{fill:#fff;}.cls-14{stroke:#0d4161;stroke-width:2.04px;}.cls-15{fill:#0d4161;}.cls-16{stroke:#0d4060;stroke-width:1.96px;}</style></defs><polygon class="cls-1" points="156.61 233.03 164.57 233.03 164.57 198.75 228.65 198.75 228.65 233.03 236.78 233.03 236.78 195.55 236.65 195.55 236.65 188.24 156.61 188.24 156.61 195.65 156.61 233.03"/><path class="cls-2" d="M159.11,171.93h74.52a9.31,9.31,0,0,1,9.32,9.31h0a9.32,9.32,0,0,1-9.32,9.32H159.11a9.32,9.32,0,0,1-9.32-9.32h0A9.32,9.32,0,0,1,159.11,171.93Z"/><polygon class="cls-1" points="22.75 232.45 30.71 232.45 30.71 198.17 94.8 198.17 94.8 232.45 102.92 232.45 102.92 194.97 102.8 194.97 102.8 187.66 22.75 187.66 22.75 195.07 22.75 232.45"/><path class="cls-2" d="M25.25,171.35H99.77a9.31,9.31,0,0,1,9.32,9.31h0A9.32,9.32,0,0,1,99.77,190H25.25a9.32,9.32,0,0,1-9.32-9.32h0A9.32,9.32,0,0,1,25.25,171.35Z"/><path class="cls-3" d="M133.82,109.31s-16.37,17.84-33.66,6.28"/><path class="cls-4" d="M62.2,3.8C28.88,3.8,1.88,12.37,1.88,49A206.66,206.66,0,0,0,4.29,76.8,263.94,263.94,0,0,0,10,107.09c1.13,4.37,2.47,8.2,2,12.79a35.08,35.08,0,0,1-3.15,11.79c-4.65,9.79-5.88,19.86-2.44,30.3,2.28,6.94,7.82,12.46,14,15.93,12.83,7.19,28.15,6.82,42.3,6.82,15.54,0,33.56-1.24,46.31-11.62a35.19,35.19,0,0,0,11.18-16.66,61.56,61.56,0,0,0,2.15-11.8c.67-5.57-.81-10.38-2.83-15.44-3-7.58-6.49-17.82-4.49-26.14,4.64-19.39,7.55-44.94,7.55-54.77,0-36.61-27-44.44-60.35-44.44"/><polyline class="cls-4" points="75.83 179.61 89 222.59 96.58 221.41 96.03 176.44"/><polyline class="cls-4" points="45.97 181.12 59.16 224.24 66.72 223.06 66.19 178.11"/><polygon class="cls-5" points="68.23 233.77 61.37 233.51 53.84 207.1 66.53 205.42 68.23 233.77"/><polygon class="cls-5" points="97.8 231.27 90.94 231.01 83.41 204.61 96.35 202.89 97.8 231.27"/><path class="cls-6" d="M60.65,235c-1-6.53,3.15-12.6,9.29-13.56s12,3.56,13,10.09"/><path class="cls-6" d="M90.75,233.3c-1-6.53,3.14-12.6,9.29-13.56s12,3.56,13,10.09"/><path class="cls-3" d="M24.76,122.71s-3.12,18.38,0,23.5C29,153.15,46,156.53,46,156.16"/><path class="cls-7" d="M80.91,146.89a4.31,4.31,0,0,1,4.28,4.3v15.26h0a4.84,4.84,0,0,1-4.84,4.84h-12a5.22,5.22,0,0,1-5.21-5.21V151.54h0a4.66,4.66,0,0,1,4.65-4.65Z"/><ellipse class="cls-8" cx="74.11" cy="149.2" rx="8.93" ry="1.65"/><path class="cls-9" d="M63.41,164.27h-.53a6.19,6.19,0,1,1,.5-12.36"/><path class="cls-10" d="M59.59,169.22a1.43,1.43,0,0,0,1.85-.82.83.83,0,0,0,0-.15,1.67,1.67,0,0,0-.48-2.16l-4.45-2.37a7.41,7.41,0,0,0,1-1.05l5.35,2.83a1.43,1.43,0,0,0,1.83-.86.64.64,0,0,0,0-.07,1.68,1.68,0,0,0-.48-2.17l-5.33-2.84a9.67,9.67,0,0,0,.16-1.33l4.58,2.42a1.42,1.42,0,0,0,1.82-.85l0-.08a1.68,1.68,0,0,0-.47-2.17l-7.66-4.06a4.83,4.83,0,0,0-.68-.51l1.7.21A1.71,1.71,0,0,0,60,151.67h0a1.41,1.41,0,0,0-.86-1.79l-.17,0-9.24-1a1.37,1.37,0,0,0-1,.4c-2.08-.09-4.31,1.46-5.44,4-1.44,3.26-.62,7,1.85,8.31l6,3.21.13,0,.06.05Z"/><path class="cls-10" d="M151.6,106a1.43,1.43,0,0,0,.19-2l-.1-.12a1.7,1.7,0,0,0-2.13-.64l-4.25,2.71a8.07,8.07,0,0,0-.43-1.37l5.09-3.26a1.42,1.42,0,0,0,.15-2l0-.06a1.69,1.69,0,0,0-2.13-.65l-5.1,3.25a8.28,8.28,0,0,0-1.07-.8l4.36-2.8a1.42,1.42,0,0,0,.15-2l-.06-.06a1.66,1.66,0,0,0-2.12-.66l-7.29,4.66a3.73,3.73,0,0,0-.79.35l1-1.38a1.71,1.71,0,0,0-.52-2.17h0a1.41,1.41,0,0,0-2-.13l-.12.13-5.4,7.55a1.34,1.34,0,0,0-.16,1.1c-1.1,1.77-.85,4.47.82,6.71,2.13,2.87,5.79,4,8.14,2.49l5.77-3.69.12-.09.07,0Z"/><path class="cls-3" d="M140.71,130.45s20.62,12.69,34.1-3.15"/><path class="cls-10" d="M122.69,132.07a1.43,1.43,0,0,1-.73-1.88.61.61,0,0,1,.07-.14,1.67,1.67,0,0,1,1.86-1.2l4.83,1.44a7.58,7.58,0,0,1,.05-1.43L123,127.12a1.43,1.43,0,0,1-.7-1.9l0-.07a1.7,1.7,0,0,1,1.87-1.21l5.79,1.74a8.35,8.35,0,0,1,.81-1.07l-5-1.5a1.42,1.42,0,0,1-.7-1.88l0-.08a1.67,1.67,0,0,1,1.86-1.21l8.29,2.5a3.48,3.48,0,0,1,.85.11l-1.36-1a1.73,1.73,0,0,1-.09-2.23h0a1.41,1.41,0,0,1,1.87-.67l.15.09,7.26,5.79a1.33,1.33,0,0,1,.45,1c1.55,1.4,2,4.06,1.05,6.67-1.27,3.35-4.49,5.42-7.15,4.62l-6.56-2-.14-.05h-.07Z"/><rect class="cls-4" x="153.34" y="13.48" width="83.69" height="169.59" rx="36.73" transform="translate(391.91 193.4) rotate(179.08)"/><polyline class="cls-4" points="212.09 168.42 188.74 234.76 183.3 233.55 191.13 163.95"/><polyline class="cls-4" points="186.38 167.33 165.6 230.73 160.16 229.52 167.07 159.72"/><polygon class="cls-11" points="183.19 233.53 185.56 212.71 195.53 215.46 189.41 233.98 183.19 233.53"/><polygon class="cls-11" points="165.43 231.32 171.93 211.96 162.15 209.46 159.6 229.1 165.43 231.32"/><path class="cls-12" d="M189.85,235a10.52,10.52,0,1,0-20.54-4.57"/><path class="cls-12" d="M165.5,231.71A10.52,10.52,0,0,0,145,227.14"/><path class="cls-13" d="M203.22,64.72a9.43,9.43,0,1,0-18.85,0"/><path class="cls-13" d="M178.82,64.72a9.43,9.43,0,1,0-18.86,0"/><path class="cls-14" d="M191.75,47.28,202,51.14"/><path class="cls-14" d="M171.46,46.93s-3.93,1.18-10.08,3.42"/><path class="cls-15" d="M194.16,64.72a4.07,4.07,0,1,0-8.14,0"/><path class="cls-15" d="M169.75,64.72a4.07,4.07,0,1,0-8.13,0"/><path class="cls-15" d="M191.49,78.66a1.65,1.65,0,0,0,1.07-2.81c-1.83-1.85-5.26-3.9-11.33-3.46s-8.84,2.76-10.1,4.69a1.64,1.64,0,0,0,1.44,2.56Z"/><path class="cls-3" d="M224,114.82s1,16.5-2.09,21.62c-4.22,6.94-19.18,12.19-19.12,11.82"/><path class="cls-7" d="M164.81,140H178a4.66,4.66,0,0,1,4.65,4.65h0v14.55a5.22,5.22,0,0,1-5.21,5.21h-12a4.84,4.84,0,0,1-4.84-4.84h0V144.3a4.31,4.31,0,0,1,4.27-4.31Z"/><ellipse class="cls-8" cx="171.62" cy="142.3" rx="8.93" ry="1.65"/><path class="cls-9" d="M182.35,145a6.19,6.19,0,1,1,.5,12.36h-.53"/><path class="cls-10" d="M186.14,162.33a1.43,1.43,0,0,1-1.85-.82l0-.15a1.7,1.7,0,0,1,.49-2.17l4.45-2.36a7.41,7.41,0,0,1-1-1.05l-5.35,2.83a1.44,1.44,0,0,1-1.83-.86.19.19,0,0,1,0-.07,1.69,1.69,0,0,1,.48-2.18l5.33-2.83a9.87,9.87,0,0,1-.17-1.33l-4.57,2.42a1.42,1.42,0,0,1-1.82-.85l0-.09a1.66,1.66,0,0,1,.47-2.16l7.65-4.06a3.85,3.85,0,0,1,.69-.51l-1.7.21a1.71,1.71,0,0,1-1.63-1.53h0a1.39,1.39,0,0,1,.86-1.78l.17-.05,9.23-1a1.35,1.35,0,0,1,1,.41c2.08-.09,4.31,1.46,5.43,4,1.45,3.27.62,7-1.84,8.31l-6,3.21-.14.06,0,0Z"/><path class="cls-13" d="M59.25,62.68a10,10,0,0,1,20,0"/><path class="cls-13" d="M85.15,62.68a10,10,0,0,1,20,0"/><path class="cls-15" d="M67.81,62.68a4.32,4.32,0,1,1,8.63,0"/><path class="cls-15" d="M93.71,62.68a4.32,4.32,0,1,1,8.64,0"/><path class="cls-15" d="M92,71.8a1.74,1.74,0,0,1,1.28,2.91c-1.83,2-5.36,4.39-11.82,4.26s-9.51-2.43-11-4.39a1.74,1.74,0,0,1,1.39-2.78Z"/><path class="cls-16" d="M71.76,43.27s-4,7.14-12.78,3.8"/><path class="cls-16" d="M93.45,43.25s2.06,6.62,11.16,4.19"/></svg>