<?xml version="1.0" encoding="UTF-8"?>
<svg xmlns="http://www.w3.org/2000/svg" xmlns:xlink="http://www.w3.org/1999/xlink" viewBox="0 0 1334 1000">
  <defs>
    <style>
      .cls-1 {
        stroke-width: .14px;
      }

      .cls-1, .cls-2, .cls-3 {
        stroke: #000;
      }

      .cls-1, .cls-2, .cls-3, .cls-4 {
        stroke-miterlimit: 10;
      }

      .cls-2 {
        stroke-width: .14px;
      }

      .cls-3 {
        stroke-width: .14px;
      }

      .cls-5 {
        fill: #101931;
      }

      .cls-6 {
        fill: #010101;
      }

      .cls-7 {
        fill: #20120c;
      }

      .cls-8 {
        fill: #222323;
      }

      .cls-9 {
        fill: #653c29;
      }

      .cls-10 {
        fill: #231f20;
      }

      .cls-11 {
        fill: #715446;
      }

      .cls-12 {
        fill: #f1edf6;
      }

      .cls-13 {
        fill: #f1eef7;
      }

      .cls-14 {
        fill: #919191;
      }

      .cls-15 {
        fill: #3d4e83;
      }

      .cls-16 {
        fill: #643c2a;
      }

      .cls-17 {
        fill: #a66e53;
      }

      .cls-18 {
        fill: url(#linear-gradient);
        opacity: .5;
      }

      .cls-19 {
        fill: #3d3d3d;
      }

      .cls-20, .cls-4 {
        fill: #fff;
      }

      .cls-21 {
        fill: #070505;
      }

      .cls-22 {
        fill: #a3a3a3;
      }

      .cls-23 {
        fill: #d7b029;
      }

      .cls-24 {
        fill: #f2ebd1;
      }

      .cls-25 {
        fill: #24180f;
      }

      .cls-26 {
        fill: #723317;
      }

      .cls-27 {
        fill: #381c13;
      }

      .cls-4 {
        stroke: #231f20;
        stroke-width: .47px;
      }

      .cls-28 {
        fill: #3d4f84;
      }

      .cls-29 {
        fill: #5b481c;
      }

      .cls-30 {
        fill: #787878;
      }

      .cls-31 {
        fill: #4f2e25;
      }
    </style>
    <linearGradient id="linear-gradient" x1="3203.55" y1="-869.58" x2="4230.7" y2="-869.58" gradientTransform="translate(1514.68 -3235.72) rotate(90) scale(1 -1)" gradientUnits="userSpaceOnUse">
      <stop offset="0" stop-color="#f0ebe0"/>
      <stop offset=".18" stop-color="#eee8dd" stop-opacity=".99"/>
      <stop offset=".33" stop-color="#e8e1d4" stop-opacity=".97"/>
      <stop offset=".46" stop-color="#ded4c5" stop-opacity=".93"/>
      <stop offset=".59" stop-color="#d0c2b0" stop-opacity=".88"/>
      <stop offset=".72" stop-color="#bdab95" stop-opacity=".82"/>
      <stop offset=".84" stop-color="#a78e73" stop-opacity=".73"/>
      <stop offset=".96" stop-color="#8d6d4d" stop-opacity=".64"/>
      <stop offset="1" stop-color="#83603d" stop-opacity=".6"/>
    </linearGradient>
  </defs>
  <g id="Layer_1" data-name="Layer 1">
    <polyline class="cls-24" points="1377.75 977.14 1377.75 -47.14 -87.55 -47.14 -87.55 977.14"/>
    <polyline class="cls-18" points="1377.75 991.59 -87.55 991.59 -87.55 -35.55 1377.75 -35.55"/>
    <polyline class="cls-11" points="-79.62 1034.79 1369.82 1034.79 1369.82 959.25 -79.62 959.25"/>
    <rect class="cls-22" x="842.33" y="896.5" width="36.52" height="21.97" transform="translate(-62.13 63.25) rotate(-4.06)"/>
    <g>
      <path d="M895.6,935.1s5.54,6.49,4.01,9.91c-1.53,3.43-17.78,5.36-22.03,6.08-4.25.73-59.19,10.71-64.7,11.17-5.5.47-35.24.98-39.92-5.03,0,0-7.93-10.13,1.73-14.43,9.66-4.3,17.14-3.47,26.11-8.63,8.97-5.16,18.6-12.97,26.8-23.15,0,0,8.46-8.41,12.86-7.5,4.4.91,9.85,8.68,13.5,10.39,3.65,1.7,20.62,3.04,24.36-5.34,3.74-8.37,5.18-5.38,8.55-4.43,3.38.96,9.88,14.74,9.06,21.4-.81,6.66-.34,9.55-.34,9.55Z"/>
      <path class="cls-24" d="M836.21,914.08l.05-.06c.38-.47.02-1.28-.8-1.8l-5.93-3.77c-.82-.52-1.81-.57-2.19-.1l-.05.06c-.38.47-.02,1.28.8,1.8l5.93,3.77c.82.52,1.81.57,2.19.1Z"/>
      <path class="cls-24" d="M829.99,917.71l.14-.17c.28-.33-.11-.99-.85-1.46l-4.41-2.82c-.74-.48-1.57-.59-1.85-.26l-.14.17c-.28.33.11.99.85,1.46l4.41,2.82c.74.48,1.57.59,1.85.26Z"/>
      <path class="cls-24" d="M824.88,921.12l.25-.29c.25-.3-.09-.89-.76-1.32l-3.15-2.02c-.67-.43-1.41-.53-1.66-.24l-.25.29c-.25.3.09.89.76,1.32l3.15,2.02c.67.43,1.41.53,1.66.24Z"/>
      <path class="cls-24" d="M820.83,924.65l.29-.35c.29-.35-.02-.98-.69-1.41l-3.15-2.01c-.67-.43-1.45-.49-1.74-.14l-.29.35c-.29.35.02.98.69,1.41l3.15,2.01c.67.43,1.45.49,1.74.14Z"/>
    </g>
    <path class="cls-17" d="M780.93,503.16l-4.14,33.29,2.79,15.82,8.26,14.69,23.16,19.05s3.98-.82.2-7.22c-3.71-5.61-7.87-11.01-12.47-16.15l-2.42-17.14,4.25-7.56,4.89.84s-1.34,21.52,1.98,25.85c.58.75,1.06,1.38,1.48,1.89,1.16,1.45,3.3,1.57,4.64.29l1.98-1.9.88-32.01s-2.01-14.09-2.96-17.41c-1.33-3.28-3.6-8.03-5.5-11.13l-.45-4.44-23.17-6.79-3.41,9.99Z"/>
    <path class="cls-17" d="M837.15,186.01c-3.53,1.5-54.55,28.43-61.27,56.78-6.72,28.35.51,117.19-2.4,142.06-3.79,28.99,8.52,107.86,8.24,115.03l.3,25.95,19.26-9.04s2.07-146.82,14.28-186.53c12.2-39.72,21.59-144.25,21.59-144.25Z"/>
    <polygon class="cls-22" points="933.35 920.22 896.74 924.41 897.29 897.5 933.81 898.25 933.35 920.22"/>
    <path class="cls-17" d="M896.95,121.95s-.01,37.16,5.25,49.43c1.28,2.98,21.01,10.84,21.01,10.84l-74.56,43.21-40.75-29.82s28.94-15.59,29.82-19.3c.88-3.72-1.81-31.18-1.81-31.18"/>
    <path class="cls-19" d="M972.71,468.75l3.01,24.73c2.52,20.74-2.99,44.74-6.52,65.33l-16.56,130.3s-2.19,80.07.17,125.45c2.07,39.34-6.9,97.93-6.9,97.93l-12.12,2.2c-11.43,2.07-23.15,1.83-34.49-.71l-19.5-4.37-25.72-214.59,3.33-147.21-21.02-74.8,136.33-4.25Z"/>
    <path class="cls-19" d="M788.84,475.78l14.53,203.07c-.71,10.93,2.97,53.1,6.18,63.57l19.65,135.53,2.35,24.32,11.59,2.49c8.23,1.77,16.72,1.97,25.03.59l16.38-2.71-9.08-431.61-86.64,4.75Z"/>
    <path class="cls-8" d="M876.6,899.7c-.15-1.47-.3-2.93-.46-4.4-.41-4-.83-7.99-1.24-11.99-.62-6-1.25-11.99-1.87-17.99-.77-7.42-1.54-14.83-2.31-22.25-.85-8.23-1.71-16.45-2.56-24.68s-1.78-17.1-2.66-25.65-1.72-16.54-2.58-24.8l-2.31-22.25c-.62-5.97-1.24-11.94-1.86-17.92l-1.25-12.06c-.15-1.47-.29-2.94-.46-4.4-.98-8.35-1.76-16.67-1.88-25.08-.04-2.94.08-5.89.02-8.83-.07-3.38-.14-6.77-.21-10.15-.13-6.35-.26-12.69-.39-19.04-.16-8.03-.33-16.06-.49-24.09-.18-8.56-.35-17.12-.53-25.69-.16-7.82-.32-15.64-.48-23.47-.12-5.82-.24-11.65-.36-17.47-.05-2.64.02-5.32-.16-7.95-.09-1.23-.44-2.49-.74-3.68-.98-3.87-2.41-7.71-4.61-11.07s-5.46-6.3-9.63-7.18c-.38-.08-1.68.52-.92.68,8.42,1.78,12.27,11.6,13.97,19.08.44,1.95.5,3.66.54,5.65.09,4.59.19,9.17.28,13.76.15,7.08.29,14.15.44,21.23.17,8.39.34,16.78.52,25.17s.34,16.8.52,25.19c.15,7.23.3,14.45.44,21.68.1,4.84.2,9.67.3,14.51s-.04,9.67.09,14.5c.21,8.05,1.14,15.99,1.97,23.99.3,2.91.6,5.82.91,8.73.53,5.14,1.07,10.27,1.6,15.41.71,6.8,1.41,13.6,2.12,20.4.82,7.9,1.64,15.81,2.46,23.71.88,8.49,1.76,16.98,2.64,25.47.88,8.43,1.75,16.86,2.63,25.29.82,7.85,1.63,15.7,2.45,23.55.7,6.71,1.39,13.42,2.09,20.13.52,5.01,1.04,10.02,1.56,15.03.29,2.75.57,5.5.86,8.25.04.35.07.71.11,1.06s1.5.07,1.45-.39h0Z"/>
    <path class="cls-15" d="M772.43,343.16c-3.18-1.05-6.61-4.16-6.68-5.81-.02-.51,4.31-61.62,4.4-64.34.35-10.91.77-21.87,2.55-32.66,2.31-13.96,9.29-23.1,18.77-33.79,11.13-12.56,26.68-19.34,34.06-26.05l8.92-3.88s-15.21,19.11,17.59,23.26c32.8,4.15,54.33-30.63,54.33-30.63,0,0,11.12,8.56,32.9,18.03,8.36,3.65,25.32,16.8,29.29,25,9.91,20.5,11.5,29.95,9.32,67.42l-2.41,28.66-12.84-7.97c3.64,25.7,6.72,66.48,6.43,107.16-.05,5.46,5.24,36.11,5.15,41.57-.05,3.24,2.38,26.01.68,28.68-1.61,2.53-11.76,9.72-14.86,10.84-33.16,12.04-124.55,10.37-124.55,10.37-13.97-1.51-25.56-2.31-38.03-8.12-8.83-4.12-7.57-6.7-12.39-10.6,2.04-11.66-1.27-28.75-1.16-40.56.19-18.98,1.49-38.94,1.26-57.93-.01-1.08-2.26-35.99-2.66-36.78-3.28-1.46-2.59.35-10.06-1.86Z"/>
    <path class="cls-15" d="M978.07,243.96s2.52,61.23,2.59,81.41c0,0-29.05,8.36-57.89,3.06-30.57-5.62,2.7-68.52,2.7-68.52l52.6-15.95Z"/>
    <path class="cls-5" d="M776.71,259.22c.23,10.05.68,20.1,1.14,30.15.57,12.33,1.2,24.65,1.97,36.97.38,6.02.77,12.05,1.32,18.06l.83-.59c-1.92.23-3.94.09-5.84-.23-2.97-.51-6.51-1.74-8.59-4.05-.64-.71-.6-1.12-.65-1.99-.09-1.55-.19-3.11-.28-4.66l-1.45.39c.64,1.3,1.86,2.36,3.01,3.18,3.34,2.39,7.46,3.33,11.48,3.7.55.05,1.54-.72.57-.81-3.86-.35-7.89-1.31-11.03-3.7-.95-.72-2.06-1.71-2.58-2.77-.23-.47-1.48-.14-1.45.39.1,1.71.22,3.42.31,5.13.04.7.42,1.47,1.17,2.14,3.9,3.5,10.03,4.67,15.13,4.07.27-.03.86-.21.83-.59-1.03-11.16-1.61-22.37-2.22-33.57-.66-12.19-1.24-24.38-1.72-36.57-.2-5.01-.38-10.03-.5-15.04,0-.44-1.46-.16-1.45.39h0Z"/>
    <path class="cls-17" d="M892.69,181.5c-19.17,10.4-41.27,10.9-58.44-2.24,4.23-2.51,3.83-6.57,4.04-7.53.76-3.56-.97-27.5-.97-27.5l60.77-23.71s-2.1,37.94,3.31,49.49c.29.62,2.52,3.31,4.15,4.55-3.51,3.37-8.53,4.61-12.86,6.95Z"/>
    <path class="cls-31" d="M824.86,147.83c2.15,3.37,4.13,6.87,6.41,10.13.03.05.05.1.06.15.18-.15.43-.17.62.08,1.6,2.2,4.23,3.32,5.65,5.67,1.22,2.02.47,4.76.61,7.22,1.66.26,4.4.13,6.49.26,14.11-.38,14.37-2.28,33.08-14.65,5.94-3.93,4.72-8.73,5.86-9.65-19.35-.37-38.55.62-58.78.8Z"/>
    <path d="M912.88,97.5s2.83-9.25,6.14-31.31c2.96-19.75-28.24-35.81-47-38.58-10.31-1.53-44.74,3.11-53.6,7.39-8.87,4.28-13.42,16.38-14.33,33.69,0,0,5.3-17.22,16.26-16.91,8.94.25,37.72-4.45,45.29-1.29,7.58,3.15,24.27,9.78,25.23,36.9.26,7.39,13.32-.51,16.97,3.91,3.65,4.43,5.04,6.22,5.04,6.22Z"/>
    <path class="cls-17" d="M898.27,129.34l2.72-26.69,1.03-29.84-11.91-22.51-21.33-10.09-24.09,1.01s-19.26,4.97-25.33,6.64c-6.07,1.67-10.29,9.16-14.34,17.53-4.05,8.37-2.13,22.17-2.13,22.17-.17.48.38,2.58.48,3.02,1.26,5.54,1.69,10.39,2.72,14.52.48,1.96.5,3.79-.08,5.63-2.26,7.26-2.19,10.36-1.55,14.78.86,6.03,2.03,11.17,4.31,15.9,2.41,5.02,5.44,10.43,6.05,11.49,0,0,6.75,11.23,8.2,12.32,1.45,1.09,3.61,2.1,4.62,2.2,1.01.1,14.28.8,14.28.8l6.16-.22c2.09-.07,4.15-.56,6.05-1.44,5.16-2.37,19.88-9.46,23.89-12.34,5.4-3.89,11.71-19.85,11.71-19.85"/>
    <path d="M892.12,103.67c-.08,2.31.11,11.46-.11,13.71l11.91-.42c3.46-7.96,7.63-17.32,8.96-19.46,2.08-3.34,2.16-19.39,2.19-25.43v-1.3c.05-5.79-5.63-14.91-15.2-24.37-10.53-10.42-29-16.14-47.07-14.57-1.72.15-3.43.36-5.09.63-15.67,2.57-28.59,10.62-38.41,23.92-7.08,9.59-7.39,20.42-6.68,27.02.23-13.03,4.66-22.28,4.85-22.67,4.19-8.93,9.66-11.56,13.51-12.19,3.36-.55,5.9.31,6.41.5,3.83.8,9.41.18,13.43-.48,3-.49,5.37-1.05,6.02-1.2,2-1.44,5.02-2.52,8.74-3.13,8.64-1.42,21.22-.09,23.87,3.68,2.94,4.18,9.65,19.14,9.75,22.65"/>
    <path class="cls-17" d="M897.14,129.95c7.14,6.96,11.42-6.81,11.42-6.81,6.49-8.28,6.23-16.89,5.81-22.77-.42-5.88-6.89-5.6-6.89-5.6-5.48.76-7.85,3.79-11.9,22.48"/>
    <path d="M809.15,54.22c3.85-6.55,11.44-14.83,15.73-21.1,2.11-.25,12.57-.75,14.76-.9,22.37-1.48,52.76,10.64,55.85,18.72,1.93,5.04,1.42,32.74.51,35.28-2.5,6.97-3.33,16.05-3.33,16.05-1.18-10.36-8.9-21.74-9.92-25.28-1.02-3.54,3.3-20.54,2.14-21.23-1.17-.68-21.77-6.42-44.6-5.49-6.73.28-13.47,1.04-19.44,1.99.04-.07-11.73,2.03-11.69,1.96Z"/>
    <path d="M853.31,97.03c1.34-.76,2.89-1.39,3.82-.63.22.18.8.69,1.1,1.58.38,1.14-.03,2.46-.73,3.27-.93,1.09-2.53,1.33-3.78.8-1.7-.72-2.31-2.71-1.95-4.19.07-.27.46-.22,1.54-.84"/>
    <path d="M813.23,98.26c-1.39-.66-2.97,0-3.84.83-.2.19-.75.75-.98,1.66-.3,1.16.21,2.45.96,3.21,1,1.02,2.61,1.15,3.83.53,1.64-.84,2.12-2.87,1.65-4.32-.09-.26-.48-1.38-1.61-1.91"/>
    <path d="M824.69,103.3s-5.7-5.31-9.75-5.54c-5.9-.33-7.36,1.05-9.35,3.82,0,0,3.75-2.95,7.9-2.61,3.97.33,11.2,4.33,11.2,4.33Z"/>
    <path d="M844.37,100.8s8.15-5.36,12.2-5.54c5.91-.26,13.01,3.09,14.96,5.89,0,0-9.37-4.96-13.53-4.66-3.97.28-13.63,4.31-13.63,4.31Z"/>
    <path d="M843.82,80.11c-.04,1.4-.07,2.81-.11,4.22-.03,1.07-.17,3.52-.19,4.59,3.45-.81,6.58-2.07,8.81-2.39,4.41-.64,8.94-1.6,13.37-.79,2.12.39,3.97.98,5.71,2.12.55.36,2.02,1.88,2.87,1.53.35-.15-.16-1.89-.22-2.07-1.05-3.52-4.01-5.06-7.65-5.99-7.43-1.91-14.96-1.94-22.58-1.21"/>
    <path d="M801.89,83.96s2.32-.59,2.34-.59c6.5-1.67,13.04-1.47,19.64-.49,0,1.4-.01,2.81-.02,4.22,0,1.07.05,3.01.04,4.08-2.98-.91-5.54-2-7.47-2.39-3.82-.78-7.83-1.65-11.7-.98-.31.05-2.8.24-3.09.3-1.22-1.95-.28-3.85.26-4.15Z"/>
    <g>
      <path class="cls-6" d="M829.88,126.2c1.76.86,4.39.55,6.09-.61.38-.26,1.67-.07,1.14.3-2.25,1.54-6.02,1.81-8.29.69-.23-.11-.19-.29.08-.39.28-.11.74-.11.98.01"/>
      <path class="cls-6" d="M837.85,125.35c1.14-.6,2.43-.94,3.73-1.09.19-.02.44.04.58.17.11.1.14.23,0,.32-.59.37-1.34.55-2.05.56-.22,0-.51-.04-.65-.23-.12-.18.09-.3.26-.3.58,0,1.17-.15,1.65-.46.2.16.39.32.59.48-1.16.13-2.31.45-3.33.99-.2.11-.5.05-.69-.05-.14-.08-.3-.27-.09-.38"/>
      <path class="cls-6" d="M843.01,125.33c1.52-.09,3.28-.83,3.99-2.03,1.07-1.81-.08-4.55-2.02-5.61-.21-.12-.11-.28.1-.33.27-.07.6.02.82.14,1.69.93,2.84,3.17,2.65,4.84-.18,1.56-1.59,2.69-3.4,3.2-.54.15-1.11.26-1.68.3-.23.01-.65-.04-.77-.22-.12-.18.09-.27.3-.28"/>
      <path class="cls-6" d="M827.07,125.51c.08-.18-.08-.29-.2-.29-.41.03-.83-.08-1.19-.35-.13.17-.26.35-.38.52.83.06,1.66.31,2.41.79.15.1.36.02.48-.1.09-.09.19-.29.04-.38"/>
      <path class="cls-6" d="M828.23,125.69c-.84-.53-1.77-.8-2.7-.87-.14,0-.31.07-.4.2-.07.1-.09.24.02.32"/>
      <path class="cls-6" d="M823.92,125.83c-.99,0-2.18-.64-2.7-1.79-.8-1.74-.19-3.86,1.01-5.04.13-.13.05-.28-.08-.32-.18-.05-.39.06-.52.19-1.04,1.02-1.68,2.65-1.46,4.3.21,1.54,1.19,2.59,2.39,3,.36.12.73.2,1.1.2.15,0,.42-.08.48-.27.07-.19-.07-.27-.21-.27"/>
    </g>
    <path class="cls-13" d="M835.8,137.25c3.38-.16,13.56-.39,13.56-.39,0,0-3.43,3.28-13.58,3.77-10.14.49-13.63-2.34-13.63-2.34l13.64-1.04Z"/>
    <g>
      <path class="cls-28" d="M903.54,167.68s-15.46,28.88-44.97,28.63-24.3-15.9-24.3-15.9l3.44-6.64-9.83,5.91s-2.59,6.79,1.34,13.68c3.93,6.89,19.04,12.18,37.77,9.43,10.99-1.61,25.08-9.24,33.39-18,9.95-10.48,10.65-11.81,10.65-11.81l-7.5-5.3Z"/>
      <path class="cls-5" d="M902.86,167.64c-1.8,3.35-4.18,6.46-6.64,9.34-5.46,6.38-12.13,11.86-19.85,15.25-4.71,2.07-9.76,3.29-14.91,3.57-5.46.3-11.28-.11-16.53-1.73-4.88-1.5-9.72-4.71-10.25-10.2-.11-1.11-.07-2.37.28-3.45.07-.21-.07.14.1-.2.35-.71.73-1.41,1.09-2.11.74-1.43,1.49-2.87,2.23-4.3.35-.67-.88-.46-1.14-.3-2.23,1.34-4.46,2.68-6.7,4.02-.97.58-2.1,1.09-2.99,1.8-.6.47-.69,1.26-.85,1.99-.97,4.46-.27,9.64,2.51,13.35,2.2,2.94,5.68,4.82,9.03,6.15,4.7,1.86,9.78,2.75,14.81,3.05,5.72.34,11.66.02,17.25-1.29,10.49-2.47,20.7-8.24,28.57-15.56,3.83-3.56,7.35-7.55,10.79-11.49.68-.77,1.56-1.59,2.05-2.51.09-.17.04-.31-.11-.42-2.5-1.77-5-3.54-7.5-5.3-.44-.31-1.75.32-1.14.75,2.5,1.77,5,3.54,7.5,5.3l-.11-.42c-.33.61-.86,1.11-1.31,1.64-2.45,2.86-5.04,5.6-7.62,8.33-7.44,7.89-16.6,14.08-26.93,17.57-5.24,1.77-10.73,2.5-16.26,2.58-5.24.08-10.53-.45-15.57-1.9-3.72-1.07-7.55-2.65-10.45-5.29-3.42-3.11-4.77-7.97-4.38-12.48.08-.94.23-1.88.47-2.8.06-.23.19-.49.21-.73.04-.44.3-.09-.17.07.9-.31,1.83-1.1,2.64-1.59,2.4-1.44,4.79-2.88,7.19-4.32l-1.14-.3c-.67,1.29-1.34,2.58-2.01,3.87-.49.94-1.12,1.9-1.49,2.9-.3.83-.35,1.81-.35,2.68.01,5.12,3.7,8.82,8.19,10.76,4.62,2,9.79,2.6,14.78,2.78,5.53.2,11.01-.39,16.3-2.09,8.72-2.81,16.41-8.19,22.67-14.81,3.43-3.62,6.72-7.68,9.09-12.1.35-.65-1.11-.56-1.36-.08Z"/>
    </g>
    <path class="cls-4" d="M896.1,949.78s-24.94,1.03-35.84,3.72c-10.9,2.69-39.61,6.62-54.49,6.04-14.88-.58-35.37-6.37-35.37-6.37,0,0-1.49,1.88,4.8,5.49,6.29,3.61,26.28,6.65,43.81,5.85,17.53-.8,43.2-1.67,48.59-1.69,5.38-.02,27.81-.42,30.98-3.82,2.65-2.85-2.48-9.22-2.48-9.22Z"/>
    <path class="cls-20" d="M826.88,962.93c-2.37-2.31-4.66-5.24-4.78-8.69-.09-2.47,1.09-4.73,2.94-6.31,1.92-1.65,4.2-2.36,6.68-2.53,3.43-.24,6.84-.69,10.19-1.48,12.69-2.98,22.73-11.47,31.97-20.23,3.6-3.42,7.13-6.93,10.48-10.61.42-.46-.59-.49-.84-.21-2.84,3.12-5.82,6.12-8.86,9.05-5.28,5.11-10.8,10.13-16.9,14.27-5.32,3.61-11.15,6.17-17.45,7.47-1.82.37-3.65.64-5.49.85-1.59.17-3.22.17-4.79.45-2.1.37-4.11,1.31-5.74,2.68-1.92,1.62-3.24,3.93-3.25,6.48-.01,3.66,2.38,6.79,4.87,9.23.28.27,1.26-.12.96-.42h0Z"/>
    <g>
      <path d="M948.4,941.62s2.3,7.19.69,10.59c-1.61,3.41-14.82,4.5-19.08,5.17-4.26.67-59.41,9.92-64.92,10.31-5.51.39-35.25.51-39.77-5.57,0,0-7.69-10.24,2.07-14.41,9.76-4.17,17.21-3.24,26.29-8.28,9.08-5.04,18.89-12.72,27.33-22.8,0,0,8.65-8.3,13.02-7.33,4.38.97,9.64,8.82,13.25,10.57,3.61,1.75,20.53,3.31,24.46-5.01,3.93-8.33,5.3-5.32,8.65-4.32,3.35,1,9.52,14.87,8.55,21.52-.97,6.65-.56,9.55-.56,9.55Z"/>
      <path class="cls-24" d="M889.54,919.79l.05-.06c.39-.46.05-1.28-.76-1.81l-5.84-3.85c-.81-.53-1.79-.59-2.19-.13l-.05.06c-.39.46-.05,1.28.76,1.81l5.84,3.85c.81.53,1.79.59,2.19.13Z"/>
      <path class="cls-24" d="M883.24,923.34l.15-.17c.28-.33-.08-.99-.81-1.48l-4.34-2.88c-.73-.49-1.56-.62-1.84-.29l-.15.17c-.28.33.08.99.81,1.48l4.34,2.88c.73.49,1.56.62,1.84.29Z"/>
      <path class="cls-24" d="M878.05,926.68l.25-.29c.25-.29-.07-.89-.73-1.33l-3.1-2.06c-.66-.44-1.4-.55-1.66-.26l-.25.29c-.25.29.07.89.73,1.33l3.1,2.06c.66.44,1.4.55,1.66.26Z"/>
      <path class="cls-24" d="M873.92,930.16l.29-.34c.3-.35,0-.98-.66-1.42l-3.1-2.05c-.66-.43-1.44-.51-1.73-.16l-.29.34c-.3.35,0,.98.66,1.42l3.1,2.05c.66.43,1.44.51,1.73.16Z"/>
    </g>
    <path class="cls-4" d="M948.39,946.87s-24.79,2.85-35.47,6.34-39.02,9.49-53.9,10.01c-14.88.51-35.74-3.77-35.74-3.77,0,0-1.35,1.99,5.19,5.13,6.53,3.14,26.7,4.71,44.12,2.63,17.43-2.08,42.96-4.83,48.33-5.24,5.37-.41,27.71-2.45,30.62-6.07,2.44-3.04-3.15-9.02-3.15-9.02Z"/>
    <path class="cls-27" d="M901.34,112.03c.84-3.23,1.83-6.51,3.47-9.43.42-.75.9-1.47,1.47-2.12.19-.21.36-.39.54-.54.08-.07.16-.13.23-.19.07-.05.28-.18.13-.1.06-.04.13-.07.19-.11.17-.09-.17.06,0,0,.16-.06-.17.04-.09.03.1-.02-.02,0-.15.03l-.56-.07c.55.47.96,1.14,1.28,1.78.92,1.82,1.18,3.9,1.06,5.91-.03.5,1.42.2,1.44-.21.14-2.39-.2-4.86-1.53-6.9-.44-.67-.83-1.37-1.72-1.12-1.91.53-3.16,2.71-4,4.32-1.47,2.81-2.41,5.89-3.21,8.94-.11.43,1.33.22,1.44-.21h0Z"/>
    <path class="cls-27" d="M902.49,113.09c1.54-.13,1.02,2.89.94,3.73-.1,1-.6,3.66,1.15,3.52.86-.07,1.31-.8,1.6-1.52.49-1.24.73-2.58.91-3.88.23-1.64.28-3.08-.02-4.71-.35-1.93-1.1-4.14-3.09-4.9-.52-.2-1.69.55-.87.87,1.56.6,2.14,2.63,2.45,4.1.26,1.25.35,2.36.23,3.54-.14,1.39-.35,2.8-.73,4.15-.12.42-.25.85-.46,1.24-.03.05-.22.3-.22.34,0-.08.65-.43.66-.11,0-.05-.11-.1-.12-.15-.09-.59-.16-1.09-.12-1.71.06-.8.17-1.59.2-2.39.03-.73.04-1.56-.34-2.21-.42-.72-1.22-.86-2-.8-.26.02-.8.2-.81.53-.02.34.38.4.64.38h0Z"/>
    <path class="cls-20" d="M847.4,137.78s-6.44-.26-11.56-.02c-5.12.24-11.5,1.11-11.5,1.11,0,0-1.02-4.11,8.26-4.55,9.28-.44,14.8,3.46,14.8,3.46Z"/>
    <path class="cls-17" d="M970.3,322.51c-10.86,3.38-18.34-.22-29.5,2.17-7.67,1.64-12.44.88-20.22.48,1.57,12.13-.02,34.7.89,43.96l-120.72,35.71-.03,24.53c37.41-.26,100.06,1.69,138.72-10.48,10.86-3.42,21.77-5.47,27.75-16.03,0,0,7.25-10.15,6.8-55.43-.07-6.89,1.59-20.07,1.12-26.65-2,.54-2.86,1.12-4.82,1.73Z"/>
    <path class="cls-17" d="M815.85,428.86l-12.38.52s-28.26,12.66-37.12,13.31c-6.42.21-12.84-.51-19.09-2.15l-7.2,2.74c-3.32,1.26-6.96,1.28-10.32.05l-2.58-.94s-8.12,5.94-10.11,3.4c-1.99-2.54.48-5.61,2.88-8.58,2.4-2.98,54.76-33.13,54.76-33.13-5.18-1.56-14.31.42-19.66-.2-8.23-.89-11.07-4.34-7.8-7.57,2.02-1.99,8.55-3.82,13.09-2.11,4.52,1.7,25.16-5,33.34-2.89,8.19,2.11,14.71,12.05,14.71,12.05.68.27,3.58.58,3.58.58.37,1.04,3.89,24.92,3.89,24.92Z"/>
    <path class="cls-31" d="M728.51,442.49c4.41-2.65,9.27-4.6,13.93-6.74,4.58-2.11,9.42-4.06,13.66-6.81,1-.65-.54-.87-1.1-.51-4.3,2.79-9.21,4.75-13.85,6.88-4.6,2.11-9.39,4.06-13.74,6.67-1.02.61.53.85,1.1.51h0Z"/>
    <path class="cls-31" d="M748.89,440.52c5.71-2.15,11.43-4.31,17.14-6.46.81-.31,1.62-.61,2.44-.92.31-.12.67-.46.45-.8s-.9-.18-1.19-.07c-5.71,2.15-11.43,4.31-17.14,6.46-.81.31-1.62.61-2.44.92-.31.12-.67.46-.45.8s.9.18,1.19.07h0Z"/>
    <g>
      <path class="cls-15" d="M940.91,206.16s-28.91-2.04-32.26,43.52c-3.39,46.02,1.04,73.8,1.04,73.8,0,0,15.44,7.22,34.13,6.19,18.69-1.03,36.84-4.3,36.84-4.3l.47-8.47s-28.5,5.01-47.02,3.8c-18.52-1.21-25.56-3.55-25.56-3.55"/>
      <path class="cls-5" d="M941.15,205.62c-5.42-.37-11.21,1.89-15.6,4.87-12.83,8.7-16.65,25.49-17.69,39.99-1.45,20.08-1.77,40.32-.24,60.41.3,3.98.67,7.97,1.22,11.93.1.7.07.98.75,1.31,2.26,1.1,4.75,1.86,7.14,2.59,4.61,1.41,9.35,2.44,14.14,3.03,6.18.77,12.32.58,18.52.1,9.96-.77,19.89-2.02,29.74-3.67.56-.09,1.12-.19,1.68-.29.25-.04.58-.29.6-.56.16-2.82.32-5.65.47-8.47.03-.48-.53-.52-.87-.46-8.03,1.41-16.54,2.46-24.79,3.18-6.55.57-13.16.96-19.73.7-6.7-.26-13.45-.95-20.08-2.03-2.48-.4-5.04-.79-7.43-1.58-.64-.21-1.7.71-.83,1,1.91.63,3.93.99,5.9,1.34,6.55,1.19,13.2,1.82,19.83,2.24,12.63.8,25.45-.65,37.96-2.38,3.15-.44,6.31-.9,9.45-1.45l-.87-.46c-.16,2.82-.32,5.65-.47,8.47l.6-.56c-7.09,1.28-14.26,2.21-21.43,2.99-6.25.68-12.59,1.37-18.88,1.37-5.53,0-11.06-.68-16.45-1.88-3.71-.82-7.37-1.89-10.92-3.24-.81-.31-1.61-.73-2.44-.99-.05-.02-.25-.16-.31-.14,4.47-1.65.1.52.3.28.01-.02-.02-.08-.02-.1.08-.17-.1-.71-.13-.89-.08-.57-.15-1.15-.22-1.72-.24-1.95-.44-3.9-.62-5.85-1.63-17.63-1.63-35.43-.77-53.1.79-16.29,1.57-36.01,14.61-47.85,4.64-4.22,10.89-7.11,17.24-7.06.23,0-.12-.01.16,0,.73.05,1.47-1.02.49-1.08h0Z"/>
    </g>
    <path class="cls-31" d="M920.38,369.53c8.21,0,15.01,5.94,20.14,11.76.32.36,1.99-.26,1.66-.63-5.43-6.17-12.42-11.93-21.06-11.93-.54,0-1.92.8-.75.8h0Z"/>
    <path class="cls-16" d="M835.55,135.18c6.87-.47,17.94-2.01,17.94-2.01,0,0-1.29,17.69-17.21,18.77-15.92,1.08-16.21-16.86-16.21-16.86,0,0,8.61.57,15.48.1Z"/>
    <path class="cls-21" d="M835.48,135.18c3.26-.22,15.39-1.48,15.39-1.48,0,0-3.39,10.91-15.19,11.72-12.8.87-13.95-10.11-13.95-10.11l13.76-.13Z"/>
    <path class="cls-12" d="M835.37,135.67c3.26-.22,13.16-1.43,13.16-1.43,0,0-3.34,3.71-13.13,4.37-9.79.67-13.13-2.48-13.13-2.48l13.1-.46Z"/>
    <path class="cls-16" d="M819.28,135.05c.34-.11.73.04,2.34-.2,2.69-.41,3.33-1.22,5.27-1.5,3.33-.48,5.53.66,6.99.56,1.45-.1,3.49-1.52,6.85-1.5,1.97.01,6.86.37,9.58.41,1.63.02,3.49-.72,3.84-.66.49.08-.21,3.57-18.48,4.82-18.26,1.24-16.86-1.78-16.39-1.92Z"/>
    <path class="cls-17" d="M584.47,317.54l12.19-6.89s19.35.96,27.81-2.14c6.03-2.47,11.68-5.76,16.8-9.78l19.36-6.69s9.92,1.87,10.73-1.18c.81-3.06-2.71-4.74-6.14-6.36-3.42-1.63-55.76-7.04-55.76-7.04,4.16-3.52,8.62-6.67,13.32-9.43,7.25-4.18,8.48-10.19,4.14-11.67-2.67-.91-14.32,2.65-16.48,6.99s-13.37,4.5-20.1,9.74c-6.73,5.24-8.75,16.69-8.75,16.69-3.21,3.23-8.66,6.77-8.66,6.77.24,8.23,11.53,20.98,11.53,20.98Z"/>
    <path class="cls-31" d="M616.09,295.51c.39-.01,1.09-.1,1.27-.52.11-.27.06-.66.03-.93-.13-1.38-.61-2.74-1.25-3.96-1.37-2.65-3.72-4.95-6.56-5.97-.35-.13-.72-.24-1.1-.26-.32-.01-1.27.09-1.37.48-.08.28,1.33.1,1.43-.26.01-.04-1.41.21-.96.36-.08-.03.11.02.14.03.17.04.34.09.5.14.49.16.95.39,1.4.63,1.4.77,2.65,1.82,3.65,3.06,1.09,1.34,1.91,2.91,2.37,4.58.15.54.26,1.09.31,1.65.01.17.03.35.01.52-.03.32-.16.23.2.07l.89-.2h-.02c-.33.01-.75.07-1.02.27-.19.14-.23.31.08.3h0Z"/>
    <path class="cls-17" d="M492.14,313.6l18.43,31.37,73.57-58.38c1.37,7.11,10.39,12.02,16.89,19.05,0,0-63.86,81.03-71.74,88.03-27.89,24.74-47.36,5.85-57.73-6.19-5.97-6.93-1.87-59.39.83-67.64.62-1.88,20.15-6.2,19.76-6.25Z"/>
    <path class="cls-31" d="M509.86,345.1c-1.88,2.29-3.63,4.72-5.28,7.18-2.93,4.35-5.81,9.05-7.25,14.14-.61,2.17-1,4.61-.16,6.78.13.33,1.55-.12,1.45-.39-1.64-4.24.91-9.45,2.82-13.17,2.23-4.34,4.98-8.42,7.91-12.31.63-.84,1.27-1.68,1.94-2.49.08-.09-1.15-.07-1.43.26h0Z"/>
    <path class="cls-17" d="M463.65,635.13c-10.14,2.91-21.11.93-31.62,1.62-17.06,1.13-25.33.72-42.28-.58,8.74,34.21,12.68,105.05,11.14,120.08-2.36,22.95-22.37,43.85-2.39,172.48l28.56,6.78s12.74-90.4,24.35-159.53c5.42-32.24,11.29-95.33,18.47-140.98-7.43,3.15,1.57-2.12-6.23.12Z"/>
    <path class="cls-17" d="M408.71,634.74c-10.14,2.91-21.11.93-31.62,1.62-17.06,1.13-25.33.72-42.28-.58,8.74,34.21,12.68,90.73,11.14,105.77-2.36,22.95-22.37,58.16-2.39,186.8l28.95,20.69s13.78-104.31,25.4-173.44c5.42-32.24,11.29-95.33,18.47-140.98-7.43,3.15.13-2.12-7.66.12Z"/>
    <path class="cls-31" d="M389.21,831.26c-.04.2-.08.4-.12.6-.03.13-.09.29-.09.42,0,.5-.32-.32.74-.33l.59.19c.2.19.01.27.11-.12s.13-.82.2-1.22c.34-2.01.7-4.02,1.06-6.03,2.06-11.53,4.18-23.05,6.29-34.57,2.76-15.05,5.32-30.09,7.45-45.24,2.41-17.16,4.62-34.34,6.94-51.51,2.36-17.52,4.8-35.04,7.68-52.49.33-2,.67-4.01,1.01-6.01.09-.55-.77-.44-1.04-.33-1.66.67-3.36,1.43-4.98.42-1.29-.8-2.57-1.01-4.09-.82s-3.09.72-4.64,1.07c-2.03.45-4.09.74-6.16.93-3.95.35-7.91.32-11.87.27-4.32-.06-8.64-.15-12.96.14-.79.05-1.14,1.06-.15.99,8.04-.54,16.11.28,24.14-.35,1.82-.14,3.64-.37,5.44-.69,1.87-.34,3.67-.94,5.53-1.28.92-.16,1.94-.28,2.82.09.49.2.89.55,1.36.79,1.94,1,4.33-.02,6.18-.76l-1.04-.33c-3.61,20.91-6.48,41.95-9.3,62.98-2.68,19.99-5.2,40-8.2,59.94-2.71,18.01-6.24,35.89-9.5,53.8-1.22,6.72-2.57,13.43-3.61,20.18-.02.16-.14.5-.07.66.33.76,1.29.15,1.5-.39.1-.25.24-.77.22-1.03,0-.03.01-.06.02-.09.13-.68-1.34-.48-1.46.13h0Z"/>
    <path class="cls-23" d="M476.91,254.56c9.16,8.58,9.92,8.36,16.04,25.83,4.32,12.34,3.14,9.05,7.85,25.28.64,2.22,5.65,18.36,11.45,30.25.15.31-1.25,2.97-4.86,5.91-1.43,1.99-13.96,10.28-15.46,12.23-4.95,6.47,2.35-2.12-4.53,2.36-3.71,2.42-3.98,11.17-8.15,12.26-3.1-4.13-5.92-8.48-8.43-13.01-5.03-9.05-8.85-18.73-11.75-28.66-2.96-10.13-4.97-20.53-6.35-30.99-1.39-10.54-2.15-21.15-2.56-31.76-.35-8.81-2.88-13.63-2.91-22.44,8.33,3.82,22.21,5.76,29.65,12.73Z"/>
    <path class="cls-23" d="M464.91,696.71c-12.91.13-25.81.32-38.72.55-12.9.23-25.79.51-38.69.83-12.89.32-25.78.69-38.66,1.09-11.88.37-23.75.77-35.63,1.2,2.85-51.88,6.85-96.1,1.04-117.77-17.24-64.23-2.14-107.68,17.6-135.07l157.28,20.92,1.7,129.78c-.49,15.56-.59,41.45-2.35,98.28-7.85.04-15.71.1-23.56.18Z"/>
    <path class="cls-23" d="M488.72,293.9c-.54-17.53-6.39-29.36-10.88-35.94-2.49-3.65-5.94-6.52-9.93-8.42-5.75-2.74-10.81-5.53-18.47-8.29-1.42-.51-14.18-4.1-14.04-3.79,3.92,9.11-4.4,17.32-14.51,18.48-3.63.42-7.19.57-10.58.51-11.59-.24-28.05-11.39-35.07-20.08l-1.24-1.61-1.38.8-37.22,16.24,3.85,166.17,7.03,5.44c18.99,7.11,38.08,14.03,57.75,18.98,23,5.79,47.15,9.04,70.74,5.1,5.4-.9-.16.45,5.03-1.23-1.32-5.73,1.56-14.35,1.61-20.41.27-33.46,1.11-50.17,2.24-51.55,0,0,6.12-9.73,8.29-20.25"/>
    <path class="cls-23" d="M481.41,422.67s7.72,29.67,7.72,46.79c0,0-53.02,30.2-114.49,22.31-61.48-7.89-55.97-13.5-55.97-13.5l13.66-55.6,7.07-26.31,135.98,8.38"/>
    <g>
      <path class="cls-23" d="M484.84,292.73s-2.68,5.63-2.14,13.28c.55,7.64,18.96,49.92.12,73.12"/>
      <path class="cls-29" d="M484.11,292.84c-.91,1.93-1.43,4.1-1.79,6.2-.47,2.78-.7,5.79-.14,8.58.79,3.98,2.11,7.86,3.18,11.77,3.43,12.52,6.24,25.72,4.85,38.76-.81,7.59-3.24,15-8.06,21-.36.45,1.07.31,1.34-.02,8.65-10.76,9.46-25.31,7.85-38.49-.78-6.37-2.15-12.65-3.77-18.85-1.16-4.43-2.56-8.8-3.64-13.25-1.24-5.1-.62-11.14,1.63-15.91.17-.36-1.24-.22-1.44.21h0Z"/>
    </g>
    <path class="cls-17" d="M372.47,192.4s10.63,28.54,4.79,41.05c-.78,1.67-4,3.72-4.19,5.24,0,0,13.89,22.24,42.55,20.87,28.66-1.37,22.41-21.9,22.41-21.9-1.04-.65-.76.62-1.8-.03-.29-.18-1.58-1.36-1.77-1.63-.29-.41-.3-.93-.3-1.43,0-13.82.38-26.63.84-40.44"/>
    <path class="cls-31" d="M394.58,215.86s5.29,12.13,29.94,15.68c0,0,5.43,1.6,9.5.06l.24-5-39.69-10.74Z"/>
    <path class="cls-2" d="M460.75,185.25c-7.78-5.13-9.6-14.81-8.99-23.51.58-8.34-6.17-20.84,4.03-20.8.19,0-3.92-6.98-.9-6.47-2.01-4.52,4.74-4.33,5.49-9.53.15-1.05,1.28-10.3-5.32-10.68-24.96-32.2-56.52-24-74.27-20.91-34.83,6.06-51.77,8.75-41.19,63.83,7.11,36.98,42.41,45.83,77.67,43.39,15.07-1.04,33.01-1.15,43.8-15.11-.11-.07-.22-.13-.32-.2Z"/>
    <path class="cls-2" d="M382.23,61.31c-1.09-1.93-10.82-8.86-16.48-8.01-4.05.61-8.67,2.6-15.24,8.96-6.52-1.57-14.5-2.49-18.2,1.01-1.43,1.35-2.69,3.14-3.81,5.13,0,0-.02,0-.02,0l-.05.12c-1,1.79-1.88,3.73-2.65,5.71-4.2,6.27-12.85,19.62-14.29,25.45-.72,2.9,3.71,8.85,9.54,15.15-1.16,1.33-2.28,3.16-2.69,5.56-.94,5.43,5.51,16.8,19.42,10.69,3.93,3.54,6.7,5.88,6.7,5.88l3.96-3.62s-.36-.74-.99-2.04l4.84-4.32-3.63-2.93c.95-1.03,2.12-2.15,3.61-3.3,4.69-4.45,9.7-10.63,14.2-15.27,2.08-2.14,7.84-3.5,10.02-5.54-.83-.59-2.12-1.06-3.7-1.42.59-.55,1.17-1.1,1.76-1.64,2.09.75,3.85,1.43,4.42,1.74,1.92-1.77,7.02-3.57,8.91-5.36.38.56.76,1.13,1.12,1.72,1.73-1.65,5.48-3.58,7.2-5.24-.84-9.11-5.12-16.75-13.8-20.46.27-3.42.39-7.01-.15-7.95ZM324.34,121.76c-.62-1.56-.86-3.05-.89-4.37,2.45,2.54,5.05,5.08,7.54,7.45-2.67.1-5.61-.45-6.65-3.07ZM376.52,61.46c0,1.55-1.06,3.95-1.97,5.73-.22-.03-.44-.06-.67-.09-2.07-.24-6.03-.97-10.72-1.12,1.65-2.82,3.32-5.54,3.85-5.99,2.74-2.31,9.5-1.23,9.51,1.47Z"/>
    <path class="cls-17" d="M436.41,113.16c.09.05.18.11.28.16-.11-.12-.21-.25-.29-.38l.02.22ZM446.52,114.44c.15.12.33.25.5.37v-.18s-.52-.4-.5-.19ZM390.56,213.19c10.06,8.82,26.57,14.19,37.36,14.9,5.28.34,9.93,1.45,14.96-2.69,12.6-10.39,24.67-28.68,21.5-45.59-.59-3.12-2.85-8.85-2.85-11.89,0-3.51-1.23-20.31-5.14-30.69-4.77-12.65-9.11-18.79-9.11-18.79-.63-2.15,4.91-1.55,3.6-3.21l-.95.07s.49.18.53.84c-1.22-.1-2.47-.67-3.43-1.33v.04c-1.38.75-2.85.2-4.11-.81.02.22.28.64.52.62-1.41.32-2.88-.24-3.89-1.05.02.22.28.64.3.86-1.09-.12-2.21-.61-3.15-1.14.24.27,5.54-.93,5.55-.78-1.41.32.25.68-1.01-.33l-1.23-.73c-1.17.3-1.08,1.01-2.09.21.25.2-.82-2.36-.81-2.14-1.43.1-1.04-.02-2.28-.6.02.22-3.79,1.69-3.77,1.9-1.19.08-.8,1.15-1.81.34.25.2.8-.97,1.05-.77-1.41.32-1.88,1.27-3.15.26.25.2-4.87-2.07-4.87-2.07-1.41.32-1.14.75-2.39-.04.51.4-6.61.05-6.34.47-1.19.08,2.57,4.2,1.58,3.61.02.22-2.78-.47-2.78-.47-1.17.3.69,1.27-.33.46.02.22.3.86.54.84-1.38.75-3.07.43-4.56-.34.51.4.77.82,1.03,1.03-1.19.08-2.12.37-3.37-.42.02.22.53.84.77.82-1.16.52-2.6.4-3.83-.17.02.22.52.62.77.82-.93.28-1.88.35-2.88-.24l.77.82c-.95.07-1.63.55-3.09.21.02.22.51.4.52.62-.71.05-1.66.12-2.39-.05.02.22.76.6.52.62-.95.07-1.63.55-2.85.2.25.2.52.62.77.82-.95.07-1.89.35-2.87-.02.02.22.28.64.54.84-.95.07-1.63.55-2.85.2.02.22.52.62.77.82-.95.07-1.89.35-2.85.2.02.22.51.4.76.6-.95.07-1.89.35-3.11,0,.03.44.28.64.3.85-.71.05-1.2-.14-1.91-.09l-1.16.52c-3.02,4.59-11.21,13.92-11.21,13.92-6.96,6.4-6.39,16.64-5.87,20.76.52,4.13,6.8,20.37,6.8,20.37-1.29-1.44-2.59-4.89-3.42-6.58-.82-1.48-2.03-3.12-2.84-4.6-2.38-3.34-7.06-1.92-9.52.44l-.39.75c-3.29,5.18-1.35,17.38,6.04,25.09,1.44,9.21,11.05,12.97,12.78,5.98l1.54,3.52"/>
    <g>
      <path class="cls-6" d="M439.7,189.05c-1.48.9-3.85.91-5.48.1-.36-.18-1.5.11-.99.36,2.15,1.06,5.54.91,7.45-.25.19-.12.14-.26-.11-.32-.26-.06-.67-.01-.87.11"/>
      <path class="cls-6" d="M432.53,189.14c-1.07-.39-2.26-.55-3.43-.54-.17,0-.39.08-.5.2-.09.09-.1.21.03.27.56.25,1.25.32,1.88.26.2-.02.45-.09.55-.26.09-.16-.11-.24-.26-.23-.52.05-1.05,0-1.52-.22-.16.16-.32.31-.47.47,1.04,0,2.1.15,3.06.5.19.07.45,0,.61-.11.12-.08.24-.26.05-.33"/>
      <path class="cls-6" d="M427.93,189.64c-1.36.08-3-.37-3.75-1.3-1.13-1.41-.37-3.99,1.25-5.08.18-.12.07-.24-.12-.27-.25-.03-.53.08-.71.2-1.41.95-2.22,3.11-1.88,4.49.31,1.29,1.68,2.1,3.34,2.35.49.07,1.01.11,1.52.08.21-.01.57-.1.66-.26.09-.17-.1-.22-.3-.21"/>
      <path class="cls-6" d="M442.14,188.18c-.08-.15.04-.25.15-.26.37-.02.73-.15,1.03-.42.13.13.26.26.39.4-.73.14-1.45.43-2.07.9-.12.1-.32.05-.44-.03-.09-.06-.2-.22-.08-.32"/>
      <path class="cls-6" d="M441.13,188.45c.7-.53,1.5-.85,2.32-1,.12-.02.28.03.38.13.08.08.1.19.01.27"/>
      <path class="cls-6" d="M444.98,188.14c.88-.1,1.88-.76,2.23-1.78.54-1.54-.21-3.27-1.39-4.13-.13-.09-.07-.23.04-.28.15-.06.35,0,.48.11,1.03.75,1.75,2.05,1.72,3.46-.03,1.32-.81,2.3-1.84,2.76-.31.14-.63.24-.96.28-.13.01-.38-.03-.46-.18-.08-.15.04-.23.16-.25"/>
    </g>
    <path class="cls-6" d="M370.78,180.84c-1.54-2.75-3.19-5.48-5.23-7.91-.93-1.1-1.96-2.23-3.22-2.96-.53-.31-1.13-.53-1.75-.48-.95.08-1.44.66-1.95,1.4-1.68,2.45-1.87,5.51-.97,8.29.1.3,1.54-.11,1.45-.39-.71-2.2-.78-4.57.15-6.72.36-.84.87-1.73,1.55-2.36l-.6.27c.07-.02-.46.09-.27.05-.12.02-.12-.04-.03,0,.02.01-.1-.02.07.01.38.08.68.21,1.06.44,1.82,1.07,3.21,2.89,4.43,4.57,1.43,1.96,2.69,4.05,3.87,6.16.19.33,1.55-.21,1.45-.39h0Z"/>
    <path d="M459.83,150.74c0-.05,0-.27,0-.3,0-.14,0-.28-.01-.43-.02-.48-.09-.95-.19-1.42-.02-.06-.06-.22-.07-.25-.04-.13-.08-.25-.13-.38-.08-.21-.17-.43-.26-.63-.08-.04-.16-.08-.24-.12-3.68-.15-7.43.53-14.08,2.2v.22c.01,1.26.01.55.02,1.82,0,.96.02,1.92.03,2.88,3.07-.82,5.28-1.71,7.26-2.06,2.43-.43,5.06-1.07,7.67-1.37,0-.06,0-.11.01-.17Z"/>
    <path d="M421.96,148.31c.14,1.25.06.55.19,1.81.1.96.2,1.91.29,2.86-3.67-.41-6.33-1-8.68-1.08-4.66-.17-10.04-.87-14.61.25-2.19.54-5.32,1.37-6.73,3.25-.38.5-1,2.24-1.91,2-.37-.1.04-1.7.09-1.87.86-3.24,3.85-4.87,7.6-6.04,7.64-2.38,11.6-2.59,23.74-1.39"/>
    <path d="M452.83,159.23c1.32-.8,2.96-.3,3.91.43.22.17.83.66,1.15,1.54.42,1.12.05,2.46-.62,3.3-.89,1.12-2.48,1.42-3.75.93-1.72-.66-2.41-2.63-2.09-4.12.06-.27.34-1.42,1.4-2.07"/>
    <path d="M440.81,164.68s6.38-5.7,9.8-6.28c4.99-.84,8.61,1.18,10.56,3.51,0,0-5.71-3.24-9.21-2.55s-11.15,5.31-11.15,5.31Z"/>
    <path d="M413.67,162.45c-1.41-.61-2.97.11-3.81.96-.2.2-.73.77-.93,1.69-.26,1.17.29,2.44,1.07,3.18,1.04.99,2.65,1.06,3.84.4,1.62-.89,2.02-2.94,1.5-4.37-.1-.26-.53-1.36-1.67-1.86"/>
    <path d="M421.38,166.13s-7.56-4.72-11.27-4.82c-6.68-.19-12.59,4-14.32,6.59,0,0,9.23-5.63,13.03-5.44,3.64.18,12.55,3.67,12.55,3.67Z"/>
    <path class="cls-3" d="M447.75,117.33c1.33,5.93,9.14.3,4.57-.86.35-2.94-3.85-3.85-3.93-6.82-.16.27-.26.48-.26.48,0,0-.35-3.55-1.6-4.33-1.25-.78-6.78-3.11-6.78-3.11l-1.54,1.33c.04-.09.53-1.29-.35-1.94-.89-.66-10.26-4.76-16.01-4-.19.02-.38.05-.57.09l-2.32,1.41-.08.05s.06-.04.09-.06c.41-.28,1.28-.96.77-1.44-.17-.17-.52-.31-1.1-.4-.86-.13-2.14-.15-3.53-.1,0,0,0-.01,0-.02-.13.01-.26.02-.39.04-.13,0-.26.01-.39.02,0,0,0,.01,0,.02-1.38.14-2.64.34-3.48.59-.57.17-.89.36-1.04.55-.43.54.52,1.1.97,1.32.03.02.07.03.09.05l-.09-.04-2.49-1.08c-.19-.01-.38-.02-.57-.01-5.8.04-14.52,5.4-15.31,6.17-.78.76-.13,1.89-.08,1.97l-1.7-1.11s-6.74,3.18-7.87,4.12c-1.13.94-1.53,3.03-1.53,3.03,0,0-2.06.92-2.84.72-.77-.19-4.56,2.12-6.03,4.57-.94,1.57-.46,2.95-.89,4.3h0c-.24.76-.37,1.26-.37,1.26l-3.97,1.64c-3.15,1.79-1.87,8.45-1.87,8.45-5.86,8.31-5.72,15.03-2.35,22.05,1.3,2.7-6.44,6.06-1.36,5.6,5.15-.46,10.51,15.39,10.51,15.39,0,0,3.94-6.59,3.95-9.53.02-2.94-2.02-11.5-2.02-11.5l2.46-.52s1.47-.72,3.06-4.16c1.6-3.44-2.15-9.1-2.15-9.1l-1.22-3.49h4.87c4.62-1.13,4.54-6.22,4.54-6.22l-1.39-8.39,3.01,2.64s1.18,1.26,2.79,1.03c7.22-1.05,7.77-5.63,7.77-5.63l.68-4.32,1.93,1.1c2.06,1.46,8.18,3.51,11.13,2,.77-.4,3.95-3.22,4.46-3.61,1.85-1.55,1.95-4.28,1.92-5.28-.3-.26-.6-.58-.89-.86-1.11-1.06-1.58-.55-.46.51,1.92,1.82,5.13,4.35,7.81,4.28,2.58-.07,8.06-1.52,8.66-2.76.41-.83-.42-.87.53-.9.83-.02,1.57.52,2.14,1.09,1.33,1.33,2.3,3.34,4.09,4.11,2.61,1.11,4.03-.38,6.52-1.09.55-.16,1.35.08,1.5.74Z"/>
    <path class="cls-1" d="M453.44,112.24s1.36-5.58-2.02-8.5c-3.38-2.92-16.37-14.7-37.24-13.29l39.26,21.79Z"/>
    <g>
      <path class="cls-23" d="M376.75,232.14s15.01,27.06,41.78,24.32c19.62-2.01,17.86-14.33,17.86-14.33v-4.71s7.15,2.33,7.15,2.33c0,0,1.56,4.25-1.64,11.34-3.2,7.1-13.37,13.67-30.56,12.04-10.08-.95-19.24-4.87-30.17-12.82-10.93-7.95-13.41-13.8-13.41-13.8l9.01-4.38Z"/>
      <path class="cls-29" d="M376.03,232.34c1.47,2.64,3.34,5.1,5.27,7.4,4.26,5.09,9.37,9.55,15.24,12.7,7.47,4,15.92,5.4,24.29,4.06,5.98-.96,12.86-3.46,15.43-9.46,1.3-3.05.85-6.58.85-9.8l-1.31.52c2.04.67,4.08,1.33,6.12,2,.28.09.68.15.94.31,0,0-.04-.16.03.18.21.99.32,1.97.29,2.99-.17,7.09-4.28,13.12-10.44,16.36-7.76,4.08-17.45,4.17-25.87,2.5-9.67-1.92-18.41-7-26.2-12.88-3.54-2.67-6.93-5.64-9.71-9.11-.92-1.15-1.9-2.39-2.49-3.75l-.29.36c3-1.46,6.01-2.92,9.01-4.38.87-.42-.45-.54-.87-.33-3,1.46-6.01,2.92-9.01,4.38-.09.05-.35.21-.29.36.5,1.16,1.3,2.23,2.05,3.22,2.4,3.17,5.36,5.91,8.45,8.39,7.9,6.36,17.04,11.84,27,14.15,14.32,3.31,36.03.98,39.72-16.34.37-1.73.54-3.56.29-5.32-.08-.58-.08-1.13-.56-1.43-.39-.24-1-.33-1.43-.47-.78-.25-1.56-.51-2.34-.76-1.07-.35-2.15-.7-3.22-1.05-.34-.11-1.31.03-1.31.52,0,2.56.35,5.47-.29,7.99-1.45,5.7-6.98,8.62-12.33,9.82-8.23,1.84-16.8.66-24.32-3.11-5.79-2.9-10.85-7.16-15.11-12-2.26-2.57-4.46-5.36-6.13-8.36-.24-.44-1.63.06-1.45.39Z"/>
    </g>
    <path class="cls-6" d="M369.12,182.34c-.83.06-1.74.34-2.24,1.06-.41.6-.4,1.35-.31,2.05.11.85.38,1.67.61,2.49.18.65.51,1.48.38,2.16,0,.03-.11.3-.11.32h0c-.11.16.05.11.47-.12.04-.16.09.16.01-.02-.03-.08-.27-.23-.34-.3-.18-.19-.33-.41-.47-.62-.7-1.08-1.18-2.33-1.6-3.55-.51-1.49-.84-2.77-.81-4.34.03-1.85.37-4.43,2.22-5.36.89-.45.08-1.05-.6-.7-1.95.98-2.78,2.96-3.01,5.04-.14,1.31-.16,2.72.2,4,.44,1.56.97,3.12,1.72,4.56.38.74.87,1.75,1.69,2.1.72.31,1.63-.05,1.96-.76.3-.65.08-1.47-.09-2.13-.27-1.08-1.89-4.82.13-4.97.76-.06,1.17-.99.17-.91h0Z"/>
    <path class="cls-9" d="M436.67,197.22c-6.85.59-16.84,1.41-16.84,1.41,0,0,1.5,14.59,17.38,13.21,15.88-1.38,12.84-15.67,12.84-15.67,0,0-6.53.45-13.37,1.05Z"/>
    <path class="cls-25" d="M436.73,197.22c-3.26.28-15.24,1.58-15.24,1.58,0,0,3.93,8.25,15.71,7.23,12.77-1.11,10.77-8.99,10.77-8.99l-11.23.18Z"/>
    <path class="cls-13" d="M435.96,197.9c-3.26.28-13.02,1.41-13.02,1.41,0,0,3.73,2.98,13.5,2.13,9.77-.85,11.6-4.22,11.6-4.22l-12.08.68Z"/>
    <path class="cls-9" d="M450.99,194.84c-.35-.07-.35-.07-1.96-.1-2.68-.04-3.71-.93-5.65-.94-3.31-.02-4.12,1.48-5.55,1.61-1.43.12-3.65-1.25-6.91-.66-1.91.34-6.41,2.51-9.04,3.02-1.58.3-2.73.57-3.06.7-.46.18-.16,2.51,17.81.95,17.97-1.56,14.86-4.47,14.38-4.57Z"/>
    <path class="cls-23" d="M490.82,587.58l1.37,111.75s-8.52,7.86-29.43,6.48c-20.9-1.39-26.7-11.56-43.61-9.25s-14.49,12.03-35.27,12.03c-20.78,0-24.47-7.86-38.81-7.86-14.34,0-23.83,5.55-32.61,5.55-8.78,0-7.41-3.24-7.41-3.24l11.94-103.18,173.84-12.27Z"/>
    <path class="cls-31" d="M586.61,301.46c1.95,3.47,4.88,6.28,8.41,8.11.35.18,1.69-.36,1.17-.63-3.4-1.76-6.26-4.54-8.14-7.87-.23-.42-1.62.09-1.45.39h0Z"/>
    <g>
      <path class="cls-20" d="M426.04,920.07s-5.65-5.78-3.98-10.44c1.66-4.66,5.62-3.91,6.92-2.64,1.31,1.27,35.5,25.76,35.5,25.76"/>
      <path class="cls-10" d="M426.3,919.95c-1.59-1.63-2.97-3.67-3.74-5.81-.6-1.67-.74-3.41-.02-5.06.64-1.46,1.82-2.78,3.51-2.88.99-.06,1.95.28,2.69.93.23.2.48.39.72.58,1.11.85,2.24,1.68,3.37,2.51,3.91,2.87,7.84,5.71,11.77,8.55,4.22,3.05,8.45,6.09,12.69,9.13,1.53,1.1,3.06,2.2,4.59,3.29.73.53,1.47,1.19,2.26,1.62.04.02.07.05.1.07.16.12.69-.12.45-.29-1.99-1.43-3.98-2.85-5.97-4.28-4.3-3.09-8.6-6.18-12.9-9.28s-8.22-5.93-12.3-8.93c-1.2-.88-2.41-1.76-3.59-2.67-.24-.18-.47-.37-.7-.56-.75-.65-1.68-1-2.68-1.02-3.13-.09-5.25,3.08-5.11,5.99s2,5.72,3.88,7.87c.14.16.28.32.43.47s.69-.06.53-.23h0Z"/>
    </g>
    <g>
      <path class="cls-20" d="M387.63,940.43s.8-9.45,3.86-15.42c3.06-5.97,2.78-6.92,7.21-4.79,4.43,2.13,7.79,10.73,15.02,11.16,5.17.31,7.96-2.87,10.39-6.3.97-1.37,1.89-2.78,2.88-4.02,3.47-4.34,3.4-6.02,11.07-1.65,7.67,4.38,20.45,12.22,29.98,13.54,9.54,1.32,12.01.74,20,2.53,7.99,1.79,10.54,7.15,10.54,7.15,0,0,5.8,7.75-2.88,11.27-8.67,3.52-85.11-.79-85.11-.79l-22.96-12.68Z"/>
      <path class="cls-10" d="M387.92,940.4c.14-1.65.39-3.3.68-4.93.58-3.24,1.36-6.51,2.71-9.52.67-1.5,1.44-2.97,2.2-4.43.37-.7.86-1.84,1.69-2.11.89-.29,2.07.4,2.84.75,1.09.51,2,1.19,2.86,2.02,3.83,3.72,6.96,9.13,12.91,9.38,3.2.14,6.01-1.2,8.19-3.5,1.12-1.18,2.07-2.52,3-3.86,1.07-1.53,2.19-3.01,3.32-4.5.6-.78,1.19-1.67,2.01-2.25s1.7-.49,2.59-.23c1.62.46,3.14,1.33,4.59,2.15,1.37.77,2.73,1.57,4.09,2.35,6.26,3.61,12.64,7.22,19.47,9.63,1.54.54,3.1,1.02,4.69,1.37,1.78.4,3.61.6,5.42.8,3.04.35,6.09.53,9.13.85,5.93.62,12.51,1.65,16.63,6.39.57.65,1,1.37,1.46,2.09.77,1.2,1.4,2.49,1.67,3.91.46,2.46-.52,4.67-2.62,6.05-1.14.75-2.27,1.16-3.58,1.4-2.67.48-5.42.6-8.13.71-4,.16-8,.19-12,.19-4.75,0-9.49-.09-14.24-.2s-9.91-.27-14.87-.44c-4.63-.16-9.26-.35-13.89-.55-3.77-.16-7.54-.34-11.31-.53-2.37-.12-4.74-.24-7.11-.37-.49-.03-.99-.09-1.48-.08-.18,0-.11-.03-.05,0-.25-.12-.5-.27-.74-.41-3.21-1.77-6.41-3.54-9.62-5.32-3.57-1.97-7.14-3.95-10.72-5.92-.62-.34-1.24-.68-1.86-1.03-.17-.1-.7.15-.45.29,2.32,1.28,4.63,2.56,6.95,3.84,3.97,2.19,7.93,4.38,11.9,6.57l3.62,2c.29.16.49.29.82.31,1.6.1,3.2.17,4.8.26,3.29.17,6.58.33,9.87.48,4.42.2,8.83.39,13.25.57,4.98.19,9.96.37,14.93.51s9.95.25,14.92.31c4.4.05,8.81.06,13.21-.03,3.26-.07,6.54-.17,9.78-.51,2.82-.3,5.64-.82,7.71-2.99,2.63-2.76,1.5-6.48-.3-9.33-.45-.71-1.14-1.74-1.82-2.46-1.95-2.05-4.48-3.48-7.16-4.32-3.1-.97-6.43-1.43-9.65-1.75s-6.32-.51-9.47-.89c-1.85-.22-3.69-.46-5.51-.91s-3.47-1.01-5.16-1.66c-3.53-1.35-6.93-3.01-10.27-4.77-3.13-1.65-6.19-3.41-9.25-5.18-1.53-.88-3.05-1.79-4.62-2.58-1.13-.57-2.35-1.16-3.63-1.3-1.96-.22-3.15,1.15-4.24,2.57s-2.1,2.71-3.08,4.12c-1.06,1.52-2.09,3.07-3.36,4.44-1.1,1.19-2.39,2.22-3.91,2.81-1.69.66-3.63.76-5.4.35-2.9-.68-5.17-2.76-7.13-4.89-1.72-1.88-3.29-4.07-5.42-5.52-.93-.63-2.05-1.14-3.13-1.43-.72-.2-1.48-.21-2.12.22-.77.51-1.21,1.45-1.63,2.24-.79,1.52-1.6,3.05-2.28,4.62-1.3,3-2.07,6.23-2.64,9.44-.28,1.58-.52,3.18-.66,4.78-.02.24.56.14.57-.07Z"/>
    </g>
    <g>
      <path class="cls-20" d="M371.94,941.46s-.62-6.56,2.44-12.54c3.06-5.97,5.02-8.24,5.02-8.24"/>
      <path class="cls-10" d="M372.23,941.38c-.25-2.67.11-5.49.78-8.07.61-2.37,1.66-4.51,2.83-6.64.83-1.51,1.71-3,2.67-4.43.36-.54.73-1.09,1.16-1.58.11-.13-.43-.06-.52.04-1.37,1.59-2.44,3.5-3.46,5.32-1.19,2.1-2.32,4.23-3.01,6.55-.57,1.92-.9,3.91-1.02,5.91-.06,1.01-.09,2.04,0,3.05,0,.11.59,0,.57-.15h0Z"/>
    </g>
    <path class="cls-10" d="M477.1,949.2c.53-.03,1.1-.26,1.24-.82.15-.6-.04-1.31-.14-1.9-.38-2.26-.47-4.48.35-6.66.74-1.95,2.04-3.62,3.54-5.04.24-.23-.33-.21-.46-.08-2.25,2.14-4.02,4.83-4.29,7.99-.08,1.02-.02,2.04.13,3.05.11.73.29,1.46.32,2.2.01.24,0,.52-.12.73s-.24.22-.5.23c-.28.02-.48.33-.08.3h0Z"/>
    <g>
      <path class="cls-20" d="M436.12,923.86l-.05-.06c-.42-.51-.03-1.51.87-2.21l6.5-5.07c.9-.7,1.99-.86,2.41-.35l.05.06c.42.51.03,1.51-.87,2.21l-6.5,5.07c-.9.7-1.99.86-2.41.35Z"/>
      <path class="cls-10" d="M436.39,923.76c-.67-.8.34-1.83.95-2.31l1.59-1.24c1.44-1.12,2.88-2.25,4.33-3.37.55-.43,1.24-1.05,1.98-.8.63.21.63.92.38,1.43-.21.42-.54.76-.91,1.05-1.25.98-2.51,1.96-3.77,2.94l-2.06,1.6c-.51.4-1.05.92-1.72.98-.29.03-.58-.05-.78-.27-.1-.11-.63.09-.54.2.47.52,1.38.32,1.94.1.4-.16.76-.39,1.1-.65l1.69-1.31c1.49-1.16,2.98-2.33,4.48-3.49.19-.15.38-.29.55-.46.43-.43.98-1.2.69-1.84-.26-.58-.96-.63-1.51-.52-.6.11-1.15.39-1.63.77-1.34,1.04-2.67,2.08-4.01,3.12l-2.07,1.61c-.65.5-1.39,1.09-1.46,1.97-.02.27.07.49.24.69.09.11.63-.09.54-.2Z"/>
    </g>
    <g>
      <path class="cls-20" d="M443.26,926.59l-.2-.25c-.39-.48-.04-1.38.78-2.01l4.86-3.75c.82-.63,1.81-.76,2.2-.28l.2.25c.39.48.04,1.38-.78,2.01l-4.86,3.75c-.82.63-1.81.76-2.2.28Z"/>
      <path class="cls-10" d="M443.52,926.48c-.1-.12-.22-.24-.28-.38-.09-.21-.06-.45.01-.66.14-.41.45-.76.79-1.02.37-.29.74-.57,1.11-.85,1.15-.89,2.31-1.78,3.46-2.67.48-.37,1.14-.9,1.78-.65.18.07.28.22.39.36s.19.3.19.49c0,.55-.43,1.05-.83,1.37-.92.73-1.86,1.44-2.79,2.16l-1.66,1.28c-.47.36-.95.79-1.57.81-.22,0-.44-.05-.58-.23s-.69.05-.53.23c.4.46,1.12.39,1.64.23.39-.13.75-.33,1.07-.58l1.39-1.07c1.12-.87,2.24-1.73,3.36-2.6.64-.5,1.51-1.52.85-2.33-.13-.16-.25-.31-.44-.41-.26-.13-.57-.15-.85-.11-.55.06-1.08.31-1.52.65-1.09.83-2.17,1.67-3.25,2.51-.49.38-.98.76-1.48,1.14-.26.2-.5.41-.7.66-.31.39-.62,1-.37,1.5.07.15.2.28.3.4.14.17.69-.04.53-.23Z"/>
    </g>
    <g>
      <path class="cls-20" d="M449.86,929.22l-.27-.31c-.27-.31.11-1.04.84-1.61l3.45-2.72c.73-.57,1.55-.79,1.81-.48l.27.31c.27.31-.11,1.04-.84,1.61l-3.45,2.72c-.73.57-1.55.79-1.81.48Z"/>
      <path class="cls-10" d="M450.13,929.12c-.15-.17-.34-.33-.34-.57.02-.42.39-.83.69-1.1.26-.24.55-.45.83-.67l2.64-2.08c.08-.06.16-.12.24-.19.2-.15.42-.29.66-.38.13-.05.28-.09.42-.04.11.04.18.13.25.22s.16.17.21.27c.15.34-.17.77-.38,1.01-.27.32-.63.57-.96.84l-1.39,1.1-1.3,1.02c-.09.07-.19.15-.28.22-.26.2-.6.45-.94.49-.13.01-.26-.02-.35-.12s-.62.11-.54.19c.29.31.89.13,1.23.02.41-.14.79-.36,1.13-.63s.66-.52.99-.78c.81-.64,1.63-1.28,2.44-1.92.37-.29.75-.67.9-1.12.05-.15.08-.32.01-.47-.05-.11-.16-.2-.24-.29-.09-.1-.16-.18-.29-.23-.2-.07-.43-.04-.64,0-.56.1-1.07.38-1.51.72-.81.63-1.6,1.26-2.41,1.9-.34.27-.68.53-1.02.8-.31.24-.59.52-.79.86-.16.27-.28.61-.06.88.08.09.16.19.24.28.09.1.62-.1.54-.19Z"/>
    </g>
    <g>
      <path class="cls-20" d="M455.08,932.32l-.32-.38c-.32-.38.02-1.16.75-1.74l3.46-2.7c.73-.57,1.59-.73,1.91-.35l.32.38c.32.38-.02,1.16-.75,1.74l-3.46,2.7c-.73.57-1.59.73-1.91.35Z"/>
      <path class="cls-10" d="M455.37,932.24c-.14-.17-.35-.35-.41-.56-.12-.4.18-.85.43-1.14.27-.3.62-.54.93-.79.9-.71,1.81-1.41,2.71-2.12.37-.29.89-.74,1.39-.53.21.09.37.33.5.51.24.31.08.73-.11,1.02-.26.41-.65.69-1.03.99l-1.4,1.09-1.34,1.05c-.36.28-.77.66-1.24.65-.17,0-.32-.07-.44-.19-.09-.1-.62.1-.54.19.3.33.87.24,1.24.14.44-.12.85-.34,1.21-.62.34-.27.68-.53,1.02-.8l1.62-1.27c.3-.23.6-.45.89-.7.36-.31.72-.73.8-1.21.06-.35-.14-.55-.35-.8-.08-.1-.16-.2-.29-.25-.19-.09-.42-.09-.62-.07-.58.06-1.14.31-1.6.67-.83.64-1.65,1.29-2.48,1.94-.33.26-.66.52-.99.78s-.65.6-.81.99c-.07.17-.12.37-.09.56.02.13.1.23.18.33l.24.29c.11.13.61-.11.57-.15Z"/>
    </g>
    <path class="cls-10" d="M466.49,932.82c.53,1.6.2,3.59-1.17,4.66-1.67,1.32-4.25,1.27-6.24,1.04-1.62-.19-3.21-.63-4.75-1.13-4.09-1.33-8.03-3.14-11.89-5.03s-7.33-3.75-10.92-5.76c-1.89-1.06-3.78-2.13-5.64-3.25-.15-.09-.68.13-.46.27,5.25,3.16,10.66,6.1,16.16,8.81,3.99,1.96,8.05,3.85,12.29,5.23,1.61.52,3.26.99,4.95,1.17,2.06.22,4.41.21,6.27-.81,1.91-1.04,2.64-3.32,1.97-5.35-.06-.19-.63-.02-.57.15h0Z"/>
    <g>
      <path class="cls-30" d="M386.53,940.43s-.87.26-1.01,2.61c-.14,2.35-.75,12.39-.75,12.39,0,0,7.32,3.75,20.65,4.55,13.33.8,57.3,3.45,63.55,3.83,6.25.38,31-1.45,31.94-7.28.94-5.83-.62-14.03-1.66-13.77-1.04.26-11.05,5.66-21.05,6.19-10,.53-32.94.49-49.04-.75-16.1-1.24-40.54-4.3-42.63-7.76Z"/>
      <path class="cls-10" d="M386.48,940.27c-.7.23-.98,1.1-1.12,1.74-.23,1.08-.21,2.25-.27,3.35l-.48,8.01c-.04.7-.08,1.39-.13,2.09,0,.05.01.09.06.12,1.87.95,3.95,1.59,5.96,2.16,5.06,1.44,10.28,2.14,15.52,2.46,7.32.44,14.65.88,21.97,1.32,8.76.53,17.52,1.05,26.28,1.58,3.3.2,6.59.4,9.89.6,1.9.11,3.8.28,5.7.32,3.35.07,6.72-.16,10.05-.48,4.07-.38,8.15-.93,12.13-1.89,1.67-.4,3.33-.87,4.91-1.53,1.18-.49,2.4-1.08,3.31-2,1.08-1.08,1.09-2.53,1.17-3.99.14-2.63-.03-5.3-.5-7.89-.16-.9-.35-1.81-.68-2.66-.14-.35-.33-.91-.74-1.01-.33-.08-.75.17-1.04.29-.7.3-1.39.62-2.09.93-5.22,2.29-10.71,4.21-16.4,4.82-2.1.22-4.24.26-6.35.32-2.38.07-4.77.1-7.15.12-5.65.05-11.31,0-16.96-.13-11.09-.25-22.15-.92-33.18-2.15-5.34-.6-10.68-1.29-15.98-2.22-3.78-.66-7.74-1.31-11.3-2.78-.78-.32-1.79-.72-2.26-1.48-.11-.18-.67.01-.53.23.53.85,1.7,1.29,2.59,1.64,1.67.66,3.42,1.11,5.16,1.52,5.09,1.19,10.28,1.95,15.45,2.64,11.62,1.53,23.31,2.45,35.02,2.82,10.98.35,22.02.51,33-.01,6.1-.29,11.98-2.06,17.59-4.41.93-.39,1.86-.8,2.79-1.22.28-.13.56-.25.85-.38.14-.06.41-.23.54-.22-.1,0-.04,0,.02.07.07.09.14.18.2.28.19.33.3.7.41,1.05.33,1.09.53,2.22.69,3.34.4,2.87.61,6.01.05,8.88-.22,1.11-1.15,1.86-2.08,2.41-1.46.88-3.12,1.43-4.75,1.89-2.01.57-4.07.99-6.14,1.34-6.63,1.12-13.45,1.73-20.17,1.33-7.1-.43-14.2-.85-21.3-1.28-9.44-.57-18.88-1.14-28.32-1.7-8.9-.54-17.96-.64-26.62-3.03-1.63-.45-3.25-.97-4.82-1.6-.39-.16-.77-.32-1.15-.5-.08-.04-.15-.08-.23-.11-.11-.05,0,.16.02.02.19-1.38.17-2.82.25-4.21.13-2.13.26-4.26.38-6.38.05-.78.06-1.57.16-2.34.07-.5.18-1.05.46-1.48.07-.11.15-.2.24-.29.05-.04.11-.06,0-.02.34-.11.26-.44-.09-.32Z"/>
    </g>
    <g>
      <path class="cls-20" d="M373.58,926.14s-5.65-5.78-3.98-10.44c1.66-4.66,5.62-3.91,6.92-2.64,1.31,1.27,35.5,25.76,35.5,25.76"/>
      <path class="cls-10" d="M373.85,926.01c-1.58-1.63-2.97-3.67-3.74-5.8-.61-1.69-.73-3.43.02-5.1.65-1.44,1.83-2.69,3.48-2.79,1.01-.06,1.96.27,2.72.93.23.2.46.38.7.56,1.11.85,2.24,1.68,3.37,2.51,3.91,2.87,7.84,5.71,11.77,8.55,4.22,3.05,8.45,6.09,12.69,9.13,1.53,1.1,3.06,2.2,4.59,3.29.75.54,1.48,1.14,2.26,1.62.03.02.07.05.1.07.22.15.71-.14.44-.34-1.99-1.43-3.98-2.85-5.97-4.28-4.3-3.09-8.6-6.18-12.9-9.28s-8.22-5.93-12.3-8.93c-1.2-.88-2.41-1.76-3.6-2.67-.24-.19-.49-.38-.72-.58-.74-.64-1.66-.98-2.64-1.02-3.2-.13-5.3,3.19-5.11,6.13s2,5.65,3.88,7.79c.14.16.28.32.43.47.19.19.73-.05.52-.26h0Z"/>
    </g>
    <g>
      <path class="cls-20" d="M335.18,946.51s.8-9.45,3.86-15.42c3.06-5.97,2.78-6.92,7.21-4.79,4.43,2.13,7.79,10.73,15.02,11.16,5.17.31,7.96-2.87,10.39-6.3.97-1.37,1.89-2.78,2.88-4.02,3.47-4.34,3.4-6.02,11.07-1.65,7.67,4.38,20.45,12.22,29.98,13.54,9.54,1.32,12.01.74,20,2.53,7.99,1.79,10.54,7.15,10.54,7.15,0,0,5.8,7.75-2.88,11.27s-85.11-.79-85.11-.79l-22.96-12.68Z"/>
      <path class="cls-10" d="M335.47,946.47c.14-1.65.39-3.3.68-4.93.57-3.2,1.34-6.42,2.66-9.41.67-1.51,1.45-2.99,2.21-4.46.37-.71.88-1.93,1.72-2.21s2.03.4,2.77.74c1.12.52,2.05,1.2,2.93,2.06,3.83,3.72,6.95,9.12,12.9,9.36,3.12.12,5.89-1.14,8.06-3.35,1.19-1.21,2.17-2.6,3.13-3.99,1.05-1.52,2.16-2.98,3.28-4.45.61-.8,1.21-1.7,2.03-2.3s1.71-.5,2.61-.24c1.68.49,3.25,1.4,4.76,2.26,1.32.75,2.63,1.52,3.95,2.27,6.22,3.58,12.56,7.17,19.34,9.58,1.56.55,3.15,1.04,4.77,1.39,1.8.4,3.63.6,5.46.81,3.03.34,6.07.52,9.1.84,5.92.63,12.47,1.66,16.59,6.37.58.66,1.02,1.39,1.5,2.12.77,1.18,1.39,2.47,1.66,3.87.47,2.44-.45,4.67-2.52,6.07-1.14.78-2.3,1.22-3.63,1.46-2.67.48-5.41.6-8.11.71-3.99.16-7.99.2-11.99.19-4.74,0-9.49-.09-14.23-.19s-9.91-.27-14.87-.44c-4.63-.16-9.27-.35-13.9-.55-3.77-.16-7.53-.34-11.3-.53-2.37-.12-4.74-.24-7.11-.37-.49-.03-.99-.03-1.48-.08-.1-.01-.15-.02-.11,0-.25-.09-.51-.28-.74-.41-3.21-1.77-6.41-3.54-9.62-5.32-3.58-1.98-7.17-3.96-10.75-5.94-.61-.34-1.22-.67-1.82-1.01-.14-.08-.67.14-.46.25,2.32,1.28,4.63,2.56,6.95,3.84,3.97,2.19,7.93,4.38,11.9,6.57l3.62,2c.28.15.46.28.77.3,1.62.11,3.23.17,4.85.26,3.3.17,6.61.33,9.91.48,4.4.2,8.81.39,13.21.57,4.98.19,9.96.37,14.93.51,4.97.14,9.95.25,14.92.31,4.4.05,8.81.06,13.21-.03,3.26-.07,6.54-.17,9.78-.52,2.8-.3,5.56-.82,7.65-2.92,1.56-1.57,1.95-3.74,1.41-5.84-.33-1.29-.95-2.4-1.64-3.51-.47-.75-1.13-1.74-1.82-2.46-1.98-2.08-4.56-3.52-7.3-4.35-6.18-1.87-12.77-1.85-19.13-2.62-1.84-.22-3.67-.47-5.47-.92s-3.39-1-5.04-1.63c-3.53-1.35-6.93-3.01-10.27-4.77-3.16-1.67-6.26-3.46-9.36-5.24-1.49-.86-2.98-1.75-4.52-2.52-1.14-.57-2.37-1.18-3.66-1.3-1.94-.19-3.13,1.15-4.21,2.56s-2.1,2.71-3.08,4.12c-1.04,1.49-2.06,3.01-3.28,4.36-1.11,1.22-2.42,2.3-3.98,2.9-1.72.67-3.71.76-5.5.31-2.86-.72-5.09-2.77-7.03-4.88-1.73-1.89-3.31-4.13-5.48-5.55-.92-.61-2.04-1.12-3.11-1.4-.71-.18-1.45-.17-2.07.24-.75.48-1.19,1.38-1.59,2.14-.79,1.5-1.59,3.03-2.27,4.58-1.34,3.03-2.12,6.31-2.69,9.56-.28,1.58-.52,3.18-.66,4.78-.02.19.56.08.57-.09Z"/>
    </g>
    <path class="cls-10" d="M339.86,947.46c-.25-2.67.11-5.49.78-8.07.61-2.37,1.66-4.51,2.83-6.64.83-1.51,1.71-3,2.67-4.43.36-.54.73-1.09,1.16-1.58.12-.13-.43-.06-.52.04-1.37,1.59-2.44,3.51-3.46,5.32-1.19,2.1-2.32,4.23-3.01,6.55-.57,1.92-.9,3.91-1.02,5.91-.06,1.01-.09,2.04,0,3.05,0,.11.59,0,.57-.15h0Z"/>
    <path class="cls-10" d="M424.65,955.28c.54-.03,1.09-.26,1.24-.83.15-.6-.04-1.31-.14-1.9-.38-2.26-.47-4.48.36-6.66.74-1.95,2.05-3.61,3.54-5.04.24-.23-.32-.23-.46-.1-2.25,2.14-4.02,4.84-4.28,8-.08,1.02-.02,2.04.13,3.06.11.73.29,1.46.32,2.2,0,.24,0,.51-.12.72s-.24.21-.51.23c-.29.02-.47.35-.08.32h0Z"/>
    <g>
      <path class="cls-20" d="M383.66,929.93l-.05-.06c-.42-.51-.03-1.51.87-2.21l6.5-5.07c.9-.7,1.99-.86,2.41-.35l.05.06c.42.51.03,1.51-.87,2.21l-6.5,5.07c-.9.7-1.99.86-2.41.35Z"/>
      <path class="cls-10" d="M383.93,929.82c-.65-.78.34-1.77.94-2.24l1.61-1.26c1.44-1.12,2.87-2.24,4.31-3.36.55-.43,1.25-1.04,2-.83.64.19.61.92.36,1.4-.21.4-.52.71-.87.98-1.26.99-2.53,1.97-3.8,2.96l-2.04,1.59c-.52.41-1.06.9-1.74.99-.29.03-.57-.02-.77-.24-.13-.15-.68.06-.53.22.48.54,1.37.37,1.95.14.39-.15.74-.39,1.07-.64.57-.44,1.14-.89,1.71-1.33,1.49-1.16,2.97-2.32,4.46-3.48.2-.16.41-.31.59-.5.43-.44.95-1.2.66-1.85-.26-.59-.96-.68-1.53-.57s-1.12.39-1.59.75c-1.35,1.05-2.69,2.1-4.04,3.15-.68.53-1.37,1.07-2.05,1.6s-1.44,1.13-1.47,2.04c-.01.27.07.49.24.7.13.15.68-.05.53-.22Z"/>
    </g>
    <g>
      <path class="cls-20" d="M390.81,932.67l-.2-.25c-.39-.48-.04-1.38.78-2.01l4.86-3.75c.82-.63,1.81-.76,2.2-.28l.2.25c.39.48.04,1.38-.78,2.01l-4.86,3.75c-.82.63-1.81.76-2.2.28Z"/>
      <path class="cls-10" d="M391.08,932.57c-.1-.12-.23-.24-.29-.39-.09-.22-.06-.46,0-.68.15-.44.47-.8.83-1.08s.72-.56,1.08-.84l3.47-2.68c.48-.37,1.11-.89,1.74-.62.31.13.59.55.6.88,0,.58-.45,1.11-.88,1.44-.91.72-1.84,1.42-2.76,2.13l-1.67,1.29c-.45.35-.93.79-1.53.79-.23,0-.45-.08-.6-.26-.11-.12-.65.08-.54.21.39.45,1.13.35,1.63.19.41-.13.78-.34,1.12-.6.46-.35.91-.7,1.37-1.06,1.13-.87,2.26-1.74,3.39-2.61.62-.48,1.46-1.47.82-2.25-.13-.16-.24-.3-.44-.39-.26-.12-.57-.13-.85-.09-.57.07-1.12.33-1.57.67-1.08.83-2.15,1.66-3.23,2.49l-1.5,1.15c-.24.19-.47.38-.67.62-.3.38-.63.99-.38,1.48.07.14.2.27.3.39s.65-.07.54-.21Z"/>
    </g>
    <g>
      <path class="cls-20" d="M397.41,935.29l-.27-.31c-.27-.31.11-1.04.84-1.61l3.45-2.72c.73-.57,1.55-.79,1.81-.48l.27.31c.27.31-.11,1.04-.84,1.61l-3.45,2.72c-.73.57-1.55.79-1.81.48Z"/>
      <path class="cls-10" d="M397.68,935.19c-.14-.17-.35-.33-.33-.57.02-.42.4-.82.69-1.09.26-.23.54-.44.81-.65l2.63-2.07c.09-.07.18-.14.27-.21.2-.15.42-.28.66-.37.13-.05.28-.09.42-.05.11.03.18.13.25.21s.16.16.21.26c.15.34-.18.77-.38,1.01-.27.31-.61.56-.93.81-.47.37-.93.73-1.4,1.1l-1.29,1.01c-.09.07-.18.14-.27.21-.28.22-.65.49-1.01.52-.12,0-.23-.03-.32-.12-.11-.11-.64.09-.54.2.29.31.89.15,1.23.03.4-.13.77-.35,1.1-.61s.67-.53,1.01-.79c.81-.63,1.62-1.27,2.42-1.9.38-.3.78-.69.94-1.16.05-.15.08-.33.01-.47-.05-.11-.16-.21-.24-.3-.09-.1-.16-.19-.29-.23-.2-.07-.43-.05-.63-.01-.54.1-1.04.37-1.47.7-.81.63-1.62,1.28-2.43,1.91-.33.26-.67.52-1,.79s-.62.54-.82.89c-.16.28-.28.62-.05.89.08.09.16.19.24.28.1.12.64-.08.54-.2Z"/>
    </g>
    <g>
      <path class="cls-20" d="M402.63,938.39l-.32-.38c-.32-.38.02-1.16.75-1.74l3.46-2.7c.73-.57,1.59-.73,1.91-.35l.32.38c.32.38-.02,1.16-.75,1.74l-3.46,2.7c-.73.57-1.59.73-1.91.35Z"/>
      <path class="cls-10" d="M402.91,938.31c-.14-.17-.35-.35-.41-.56-.12-.4.17-.84.42-1.13.27-.31.62-.55.94-.8.9-.71,1.81-1.41,2.71-2.12.37-.29.89-.74,1.39-.53.21.09.37.33.5.51.24.31.08.73-.11,1.02-.26.41-.65.7-1.03.99l-1.4,1.09c-.45.35-.9.7-1.34,1.05-.36.28-.77.67-1.24.65-.17,0-.32-.07-.44-.19-.09-.1-.62.11-.54.19.3.33.87.23,1.24.13.44-.12.85-.33,1.21-.62.34-.27.68-.53,1.02-.8l1.62-1.27c.3-.23.6-.45.89-.7.36-.31.72-.73.8-1.21.06-.35-.14-.55-.35-.8-.08-.1-.16-.2-.29-.25-.19-.09-.42-.09-.62-.07-.58.06-1.14.31-1.6.66-.83.64-1.65,1.29-2.48,1.94-.33.26-.66.52-.99.78s-.65.6-.81.99c-.07.17-.12.37-.09.56.02.13.1.23.18.33l.24.29c.11.13.6-.12.57-.15Z"/>
    </g>
    <path class="cls-10" d="M414.04,938.9c.53,1.6.2,3.59-1.17,4.67-1.67,1.32-4.25,1.27-6.24,1.04-1.62-.19-3.21-.63-4.75-1.13-4.09-1.33-8.03-3.14-11.89-5.03s-7.33-3.75-10.92-5.76c-1.89-1.06-3.78-2.13-5.64-3.25-.15-.09-.68.13-.46.26,5.25,3.16,10.66,6.1,16.16,8.81,3.99,1.96,8.05,3.85,12.29,5.23,1.61.52,3.26.99,4.95,1.17,2.06.22,4.41.2,6.27-.81s2.64-3.32,1.97-5.35c-.06-.18-.63-.02-.57.15h0Z"/>
    <g>
      <path class="cls-30" d="M335.18,946.51s-.87.26-1.01,2.61c-.14,2.35-.75,12.39-.75,12.39,0,0,7.32,3.75,20.65,4.55,13.33.8,57.3,3.45,63.55,3.83,6.25.38,31-1.45,31.94-7.28.94-5.83-.62-14.03-1.66-13.77-1.04.26-11.05,5.66-21.05,6.19-10,.53-32.94.49-49.04-.75s-40.54-4.3-42.63-7.76Z"/>
      <path class="cls-10" d="M335.08,946.45c-.72.24-.97,1.18-1.09,1.83-.19,1.04-.18,2.15-.25,3.21-.16,2.67-.32,5.34-.48,8.01-.04.7-.08,1.39-.13,2.09l.02.02c1.86.95,3.94,1.58,5.94,2.15,5.05,1.44,10.27,2.14,15.5,2.45,7.32.44,14.65.88,21.97,1.32,8.76.53,17.52,1.05,26.28,1.58,3.3.2,6.59.4,9.89.6,1.9.11,3.8.28,5.7.32,3.35.07,6.71-.17,10.04-.48,4.05-.38,8.11-.93,12.07-1.87,1.68-.4,3.34-.87,4.94-1.51,1.18-.48,2.41-1.06,3.35-1.95,1.07-1.01,1.13-2.26,1.22-3.68.19-2.68.02-5.42-.45-8.06-.16-.92-.35-1.85-.68-2.72-.12-.34-.31-.94-.71-1.04-.32-.08-.75.16-1.03.28-.67.28-1.32.59-1.98.88-5.24,2.32-10.77,4.27-16.49,4.88-2.11.23-4.24.26-6.36.32-2.38.07-4.77.1-7.15.12-5.65.05-11.31,0-16.96-.13-11.14-.25-22.24-.92-33.32-2.16-5.3-.59-10.6-1.28-15.86-2.21-3.78-.66-7.75-1.32-11.32-2.79-.78-.32-1.81-.73-2.28-1.49-.08-.14-.62.09-.57.15.53.85,1.68,1.28,2.56,1.63,1.68.66,3.45,1.12,5.21,1.53,5.1,1.19,10.31,1.95,15.51,2.63,11.58,1.52,23.22,2.43,34.89,2.8,10.98.35,22.01.51,32.99-.02,6.04-.29,11.88-2.02,17.44-4.33.97-.4,1.93-.82,2.88-1.25.43-.19,1.05-.62,1.54-.67-.31.03-.08,0-.03.1.04.08.13.16.18.24.2.32.32.69.43,1.05.32,1.01.52,2.07.67,3.12.43,2.87.56,5.84.18,8.72-.18,1.35-.9,2.18-2.04,2.9-1.41.88-3.02,1.43-4.61,1.9-2.04.6-4.13,1.03-6.23,1.38-6.65,1.14-13.51,1.75-20.25,1.34-7.1-.43-14.2-.85-21.3-1.28-9.4-.57-18.79-1.13-28.19-1.7s-18.07-.64-26.76-3.04c-1.64-.45-3.26-.97-4.84-1.61-.39-.16-.77-.32-1.15-.5-.18-.08-.23-.09-.26-.19-.04-.13.02-.35.03-.47l.06-.99.17-2.75c.13-2.13.26-4.26.38-6.38.05-.78.06-1.57.16-2.34.07-.51.19-1.06.47-1.5.08-.12.16-.23.27-.32.05-.04.12-.06.02-.03.39-.13.02-.19-.2-.12Z"/>
    </g>
    <path class="cls-17" d="M360.51,597.13c-4.34-4.48-10.07-10.6-10.09-11.68-.02-1.08-1.28-8.26-2.4-14.54-.72-3.17,1.19-6.36,4.27-7.11.8-.2,7.82,13.61,13.8,10.08l-3.5-12.86c-1.72-4-3.92-7.75-6.56-11.16-6.05-12.92-18.83-17-18.83-17l-.3,7.44-22.39.09-.86,22.64s6.36,30.33,9.65,33.33,12.87,4.83,12.87,4.83c3.66,4.65,11.55,3.13,11.55,3.13,8.48,5.63,8.35-.99,8.35-.99.24.26.55.45.89.53,3.68.99,6.15-4.07,3.54-6.73Z"/>
    <path class="cls-31" d="M338.14,579.67c.17,5.36,1.61,10.98,5.08,15.17,1.58,1.91,3.45,3.59,5.53,4.94,2.17,1.41,4.47,2.73,6.96,3.46.33.09,1.59-.43,1.19-.55-2.48-.72-4.8-2.07-6.95-3.5-2.15-1.42-4.07-3.19-5.67-5.21-3.23-4.07-4.54-9.58-4.7-14.7,0-.23-1.46,0-1.45.39h0Z"/>
    <path class="cls-31" d="M331.2,582.49c.24,3.19.71,6.54,2.07,9.46,1.28,2.75,3.5,4.84,5.84,6.71,2.54,2.04,5.04,4.48,7.96,5.94.38.19,1.55-.41,1.36-.5-2.91-1.46-5.41-3.9-7.95-5.93-2.36-1.89-4.59-3.99-5.85-6.78s-1.75-6.17-1.99-9.29c-.02-.27-1.48-.02-1.45.39h0Z"/>
    <path class="cls-31" d="M324.5,583.22c-1.16.38-.69,1.69-.48,2.59.56,2.41,1.28,4.78,1.94,7.16.4,1.46.88,2.54,1.93,3.65,1.06,1.12,2.24,2.15,3.51,3.03,1.11.76,2.32,1.48,3.61,1.88.56.18,1.45.39,1.88-.17.55-.71-.82-.86-1.2-.37.87-1.12.83-.04.48-.29-.1-.07-.39-.11-.5-.15-.52-.18-1.02-.42-1.51-.69-1.03-.56-2.01-1.23-2.91-1.97-.99-.81-2.01-1.71-2.79-2.75s-.96-2.19-1.28-3.35c-.52-1.87-1.06-3.74-1.54-5.62-.14-.55-.28-1.11-.37-1.68-.03-.16-.02-.35-.06-.5-.12-.38.46-.16-.47.15.86-.28.64-1.21-.25-.92h0Z"/>
    <path class="cls-31" d="M656.8,292.79c.37-.49-.07-1.49-.29-1.92-.46-.9-1.21-1.66-2.09-2.16-1.75-.99-4.25-1.07-6.21-1.07-1.81,0-3.62.19-5.4.52-.77.15-1.98.23-2.64.73-.13.1-.32.28-.26.47h0c.07.2.27.27.46.29.66.07,1.5-.28,2.11-.46l-.23-.87c-2.6.83-5.1,1.91-7.46,3.27s-4.65,2.81-6.52,4.74c-.62.63.79.75,1.19.34,1.69-1.74,3.8-3.07,5.88-4.3,2.26-1.33,4.66-2.38,7.15-3.18.86-.28.66-1.12-.23-.87-.38.11-.76.19-1.14.31-.17.05-.47.04-.21.07l.46.28h0c-.09.15-.17.31-.26.47-.25.19.11,0,.33-.06.42-.11.84-.2,1.27-.29,1.37-.27,2.77-.43,4.17-.49,1.7-.07,3.43.02,5.08.43.98.24,1.79.61,2.47,1.37.33.37,1.41,1.74,1,2.28-.43.58,1.04.55,1.37.1h0Z"/>
    <path class="cls-31" d="M640.96,288.98c-.08-.5-1.44-.57-1.78-.62-1.17-.17-2.35-.29-3.53-.4-2.58-.24-5.18-.39-7.77-.33-.69.01-3.05-.17-3.31.81-.15.54,1.31.34,1.45-.17-.1.18-.24.29-.42.34.08-.02.09-.02.04-.01.09.02.24-.03.33-.04.35-.04.71-.05,1.06-.06.99-.03,1.98-.02,2.97.01,1.2.03,2.39.09,3.58.19s2.46.21,3.69.35c.53.06,1.06.13,1.59.23.2.04.4.1.6.13.12.02.08.07.06-.02.08.51,1.54.17,1.45-.39h0Z"/>
  </g>
  <g id="Layer_4" data-name="Layer 4">
    <path class="cls-26" d="M330.77,452.73c10.9-.65,40.38-.04,51.28,1.13,3.37.39,6.88.91,9.34,2.73,3.11,2.47,3.11,6.23,2.99,9.73-.78,18.69-2.99,37.25-6.49,55.68-.13,1.43-.78,2.73-1.69,3.76-1.43,1.3-3.76,1.56-5.84,1.69-17.65,1.3-31.67,2.73-49.32.91-4.8-.52-10.38-1.56-12.33-5.06-1.56-2.73-.39-5.84.78-8.57,1.82-4.41,5.97-31.41,7.27-36.08,7.53-24.79-12.99-25.42-2.09-25.03"/>
    <path class="cls-7" d="M382.96,458.79c-2.08,9.35-8.7,17-17.39,20.77-5.32,2.21-11.29,2.6-17,2.73-6.23,0-12.46-.26-18.56-.91-1.04-.13-1.95.26-2.47,1.17-.26.65.13,1.3.78,1.56.13,0,.26.13.39.13,10.12,1.04,20.9,1.69,31.02-.13,8.57-1.43,16.22-6.23,21.42-13.11,2.73-3.63,4.67-7.92,5.71-12.33.39-1.95-3.5-1.56-3.89.13h0Z"/>
    <path class="cls-26" d="M391.4,456.58s58.27-117,71.35-209.82c0,0,.71-5.66-6.57-4.62,0,0-24.39,119.11-74.13,211.72"/>
    <path class="cls-14" d="M410.36,416.53l-8.74-4.07c-1.78-.83-3.89-.06-4.72,1.72l-3.39,7.28c-.83,1.78-.06,3.89,1.72,4.72l8.74,4.07c1.78.83,3.89.06,4.72-1.72l3.39-7.28c.83-1.78.06-3.89-1.72-4.72ZM406.32,426.67c-.37.79-1.31,1.14-2.11.77l-7-3.26c-.79-.37-1.14-1.31-.77-2.11l2.81-6.05c.37-.79,1.31-1.14,2.11-.77l7,3.26c.79.37,1.14,1.31.77,2.11l-2.81,6.05Z"/>
  </g>
  <g id="Layer_3" data-name="Layer 3">
    <path class="cls-17" d="M296.45,364.78c1.13.57,3.01-28.34,4.16-27.8,3.18,1.5,7.26-2.91,10.68-2.13,3.16.72,9.36,3.5,12.59,3.75,9.51.75,16.18,4.98,25.66,4.01l-15.6,83.34,1.44,9.16c1.62,10.26,2.16,20.66,1.61,31.03l1.03,73.93-23.05,6.29c-9.72-51.4-23.19-92.62-24.51-119.29-.33-6.68,3.8-42.57,5.99-62.28Z"/>
    <g>
      <path class="cls-23" d="M342.51,269.82c7.69,1.9,13.38,10.3,14.94,18.06,3.82,19.06.09,45.6-3.74,61.45h-7.45"/>
      <path class="cls-29" d="M342.07,270.22c5.35,1.39,9.44,5.72,11.97,10.47,2.57,4.81,3.35,10.21,3.84,15.57,1.09,11.92.15,24.03-1.59,35.84-.86,5.81-1.94,11.6-3.32,17.31l1-.51c-2.48,0-4.97,0-7.45,0-.56,0-1.53.84-.56.84,2.48,0,4.97,0,7.45,0,.31,0,.91-.13,1-.51,2.68-11.15,4.39-22.6,5.07-34.04.36-6.04.41-12.12-.06-18.16-.44-5.55-1.13-11.24-3.69-16.25-2.65-5.21-6.99-9.86-12.79-11.37-.48-.12-1.7.59-.88.8h0Z"/>
    </g>
    <path class="cls-23" d="M332.69,348.16c-10.5-1.77-20.5-5.52-30.06-10.13-2.91-1.4-5.78-2.88-8.63-4.38,4.66-27.28,10.21-41.74,14.74-55.36,9.56-24.06,40.54-32.28,40.54-32.28l3.77,85.1-1.16,18.26c-4.76-.03-14.51-.4-19.22-1.2Z"/>
  </g>
</svg>