<?xml version="1.0" encoding="UTF-8"?>
<svg id="Layer_1" xmlns="http://www.w3.org/2000/svg" xmlns:xlink="http://www.w3.org/1999/xlink" version="1.1" viewBox="0 0 1334 1000">
  <!-- Generator: Adobe Illustrator 29.6.1, SVG Export Plug-In . SVG Version: 2.1.1 Build 9)  -->
  <defs>
    <style>
      .st0 {
        fill: none;
        stroke: #4f2e25;
        stroke-width: .5px;
      }

      .st0, .st1 {
        stroke-miterlimit: 10;
      }

      .st2 {
        fill: #101931;
      }

      .st3 {
        fill: #8c542a;
      }

      .st4 {
        fill: #010101;
      }

      .st5 {
        fill: #5c483b;
      }

      .st6 {
        fill: #27153c;
      }

      .st7 {
        fill: #653c29;
      }

      .st8 {
        fill: #231f20;
      }

      .st9 {
        fill: #715446;
      }

      .st10 {
        fill: #f1eef7;
      }

      .st11 {
        fill: #222323;
      }

      .st12 {
        fill: #745245;
      }

      .st13 {
        fill: #3d4e83;
      }

      .st14 {
        fill: #271313;
      }

      .st15 {
        fill: #57362f;
      }

      .st16 {
        fill: #3d3d3d;
      }

      .st17 {
        fill: #a66e53;
      }

      .st18 {
        fill: #0a2f44;
      }

      .st19 {
        fill: #131429;
      }

      .st20, .st1 {
        fill: #fff;
      }

      .st21 {
        fill: #59341c;
      }

      .st22 {
        fill: #0d0b09;
      }

      .st23 {
        fill: #cb9a2c;
      }

      .st24 {
        fill: #513835;
      }

      .st25 {
        fill: #381c13;
      }

      .st26 {
        fill: #a3a3a3;
      }

      .st27 {
        fill: #151210;
      }

      .st28 {
        fill: #98a754;
      }

      .st29 {
        fill: #161312;
      }

      .st30 {
        fill: #f2ebd1;
      }

      .st31 {
        fill: #628e9f;
      }

      .st32 {
        fill: #0a1722;
      }

      .st33 {
        fill: #825639;
      }

      .st34 {
        fill: url(#linear-gradient);
        isolation: isolate;
        opacity: .5;
      }

      .st35 {
        fill: #28160e;
      }

      .st1 {
        stroke: #231f20;
        stroke-width: .5px;
      }

      .st36 {
        fill: #3d4f84;
      }

      .st37 {
        fill: #24180f;
      }

      .st38 {
        fill: #eb9944;
      }

      .st39 {
        fill: #4f2e25;
      }
    </style>
    <linearGradient id="linear-gradient" x1="1300.5" y1="-57.1" x2="2293.4" y2="-57.1" gradientTransform="translate(589.1 -1312.3) rotate(90)" gradientUnits="userSpaceOnUse">
      <stop offset="0" stop-color="#f0ebe0"/>
      <stop offset=".2" stop-color="#eee8dd" stop-opacity="1"/>
      <stop offset=".3" stop-color="#e8e1d4" stop-opacity="1"/>
      <stop offset=".5" stop-color="#ded4c5" stop-opacity=".9"/>
      <stop offset=".6" stop-color="#d0c2b0" stop-opacity=".9"/>
      <stop offset=".7" stop-color="#bdab95" stop-opacity=".8"/>
      <stop offset=".8" stop-color="#a78e73" stop-opacity=".7"/>
      <stop offset="1" stop-color="#8d6d4d" stop-opacity=".6"/>
      <stop offset="1" stop-color="#83603d" stop-opacity=".6"/>
    </linearGradient>
  </defs>
  <polyline class="st30" points="1354.5 963.9 1354.5 -26.3 -62.1 -26.3 -62.1 963.9"/>
  <polyline class="st34" points="1354.5 977.8 -62.1 977.8 -62.1 -15.1 1354.5 -15.1"/>
  <path class="st5" d="M1235.8,670.3l-1.1-.4-2-78.9c-2.9-59.5-19-102.7-53.3-106.1-23.3,0-102.2-1.1-110,5-2.2-103.4,9.1-185.9-159.9-185.9l-186.2.5c-2,45.6-7.4,91.1-14.1,136.3-8.4,56.7,8.1,113-.5,169.7-4.3,28.5,33.1,57.1,29.5,85.7-3.8,29.1-7.5,58.2-11.2,87.3-5.6,44.3-11,88.6-15.6,133h531.6v-92.2c13.2-4.3,22.4-18.6,22.5-35v-65.8c0-25.2-10.7-41.7-29.6-53h0Z"/>
  <path class="st5" d="M740.1,915.4c.5-13,1-25.9,1.4-38.9.9-29.8,31.5-59.7,31.5-89.5l-6.9-482.9-400.7-1.1c-86.8,0-101.2,82.5-103.4,185.9-7.9-6-86.7-5-110-5-34.2,3.4-50.3,46.6-53.3,106.1l-2,78.9-1.1.4c-18.9,11.3-29.6,27.8-29.6,53v65.8c0,16.4,9.3,30.7,22.5,35v92.2h651.5,0Z"/>
  <path class="st17" d="M684.7,378.5l10.7-10.9s20.6-4.8,28.5-10.5c5.6-4.4,10.5-9.5,14.7-15.2l18.3-12.8s11-1,10.9-4.4c0-3.5-4.2-4.2-8.3-4.8-4.1-.7-60.5,9.2-60.5,9.2,3.3-4.9,7-9.6,11.2-13.9,6.4-6.5,5.9-13.2.9-13.5-3.1-.2-11.8,7-15.2,12.2-2.9,4.4-12.7,8.7-18.2,16.2s-4.2,20.1-4.2,20.1c-2.4,4.3-7.1,9.7-7.1,9.7,2.7,8.5,18.3,18.6,18.3,18.6h0Z"/>
  <path class="st39" d="M753.2,331.5c.3-.8-.9-1.9-1.4-2.4-.8-.7-1.9-1.2-2.9-1.4-2.3-.3-4.8.2-7,.9-1.9.6-3.8,1.3-5.6,2.2-.6.3-2.1.8-2.3,1.5,0,.2.2.3.3.4.9.2,2-.7,2.6-1.1l-.9-.5c-2.5,1.6-4.8,3.5-6.9,5.6s-4.1,4.4-5.5,6.9c-.3.6,1.1.5,1.4,0,1.4-2.5,3.4-4.7,5.4-6.7,2-2,4.3-3.9,6.7-5.4.8-.5-.4-.8-.9-.5-.4.2-.8.4-1.1.7-.5.3-.5,0,.3.1l.3.4c-.2.4,0,.1.3,0,.4-.3.9-.5,1.3-.7,1.4-.7,2.8-1.3,4.2-1.7,1.7-.6,3.5-1,5.4-1.1,1.2,0,2.2,0,3.3.7.5.3,2,1.5,1.7,2.2-.2.5,1.2.4,1.5-.2h0Z"/>
  <path class="st39" d="M735,332.3c-.3-.6-1.6-.4-2.2-.3-1.3.1-2.6.4-3.9.6-2.8.5-5.6,1.1-8.3,1.9-.8.2-1.6.5-2.4.8-.3.1-1,.4-1,.8,0,.7,1.5.4,1.5-.1,0,.3-.2.1-.1.2,0,0,.3-.1.3-.1.3-.1.7-.2,1-.4,1-.3,2-.6,3-.8,1.4-.4,2.8-.7,4.2-1,1.3-.2,2.6-.5,3.9-.7.6-.1,1.3-.2,1.9-.3.2,0,.5,0,.7,0,0,0,.1,0,.1,0q0,0,0,0c.1,0,0,0-.2-.2.3.6,1.7.1,1.5-.4h0Z"/>
  <path class="st39" d="M711.8,345.8c.3-.1.7-.2.7-.6,0-.3-.2-.6-.3-.9-.5-1.2-1.2-2.3-2.1-3.3-2.2-2.6-5.5-4.4-8.9-4.8-.5,0-1,0-1.6,0-.3,0-1.1.2-1.1.6,0,.2,1.4,0,1.5-.4-.2.2-.4.3-.6.3,0,0,0,0,0,0,0,0,.1,0,.2,0,.3,0,.5,0,.8,0,.7,0,1.3.2,2,.4,1.9.6,3.6,1.6,5.1,2.9,1.2,1,2.2,2.3,2.9,3.6.2.4.4.9.6,1.3,0,.1,0,.3.1.5,0,.1,0,.2,0,.1l.6-.3h0c-.1,0-.7.2-.7.4s.7,0,.8,0h0Z"/>
  <path class="st31" d="M549.9,408.7l37.4,22.3,82.1-84.8c3.5,8.6,23.3,21.3,33.2,28.5,0,0-60.3,91-68.5,101.7-28.8,38-60.9,24.4-76.9,11.9-9.2-7.2-37.8-50.1-36.5-61.1.3-2.5,29.7-18.7,29.2-18.7h0Z"/>
  <path class="st31" d="M501.4,276.6s40.3,20.8,53.1,33.3c16.3,16,47.4,112.6,54.2,130.9,6.8,18.3-36.9,6.6-36.9,6.6l-58.4-5.5-8.7-36.5-4.6-117.1,1.4-11.6h0Z"/>
  <path class="st31" d="M500.8,277s39.7,20.5,52.2,32.8c16,15.7,46.6,110.8,53.4,128.8,6.7,18-36.3,6.5-36.3,6.5l-57.5-5.4-8.6-35.9-4.6-115.2,1.4-11.4h0Z"/>
  <path class="st31" d="M581.8,434.7c6.1,16.4,6,19.8,6,19.8l-56.9-47.2-27.6-13.5-4.2-104.8,1.3-10.4s36.1,18.6,47.5,29.8"/>
  <path class="st17" d="M598.8,640.2l2.4,33-7.5,14.5-9.8,13.1-24.8,15.3s-3.7-1.3.7-7c4.3-4.9,9-9.6,14.1-13.9l4.5-16.2-3.1-7.8-4.8.2s-1.5,20.9-5.2,24.6c-.7.7-1.2,1.2-1.7,1.6-1.3,1.2-3.4,1.1-4.5-.3l-1.7-2.1,3.3-30.9s3.8-13.3,5.1-16.4c1.7-3,4.5-7.3,6.7-10l1-4.2,24.6,2.2.5,4.3h0Z"/>
  <path class="st6" d="M561.5,373.3c-1.1,20.3-4.7,40.5-5,60.8-.1,9.1.4,18.3.7,27.5.4,13.1.9,26.2,1.4,39.3s1,25.7,1.8,38.6c.4,6,.8,11.9,2.3,17.7,1.9,7.1,5.8,14.3,4.3,21.8-.4,2.1-1.2,4.2-2.2,6.1-.3.6,1.1.5,1.3,0,1.7-3.5,2.8-7.2,2.6-11.1-.2-3.6-1.4-7-2.5-10.4-1.4-4.3-2.7-8.5-3.4-13-.4-2.5-.6-5.1-.8-7.7-.8-12.1-1.3-24.2-1.8-36.2-.5-13.6-1-27.3-1.5-40.9-.3-7.7-.6-15.4-.8-23.2-.2-10.3.3-20.5,1.3-30.8,1-10,2.3-19.9,3-29.9.2-3,.4-5.9.6-8.9,0-.6-1.4-.3-1.5.2h0Z"/>
  <polyline class="st9" points="-54.4 1017.6 1346.8 1017.6 1346.8 944.6 -54.4 944.6"/>
  <polygon class="st35" points="1242.5 915.9 1183.1 915.9 1196.7 945.2 1242.5 945.2 1242.5 915.9"/>
  <polygon class="st35" points="90.7 915.4 150.1 915.4 136.6 945.7 90.7 945.7 90.7 915.4"/>
  <path class="st22" d="M96.1,826.9h1141.5c.4,0,1.6-.7.6-.7H96.7c-.4,0-1.6.7-.6.7h0Z"/>
  <path class="st22" d="M101.8,670.3h7.8c3.1,0,6.3,0,9.4,0h12.8c5.3,0,10.7,0,16,0,6.4,0,12.7,0,19.1,0,7.3,0,14.6,0,21.9,0,8.2,0,16.4,0,24.5,0,9,0,18,0,27,0,9.7,0,19.4,0,29.1,0,10.4,0,20.8,0,31.3,0,11,0,22,0,33,0,11.6,0,23.2,0,34.8,0,12.1,0,24.1,0,36.2,0,12.5,0,25,0,37.5,0,12.9,0,25.7,0,38.6,0,13.1,0,26.3,0,39.4,0,13.4,0,26.8,0,40.1,0,13.5,0,27.1,0,40.6,0,13.6,0,27.3,0,40.9,0,13.7,0,27.3,0,41,0,13.6,0,27.2,0,40.8,0,13.5,0,27.1,0,40.6,0s26.7,0,40,0,26.3,0,39.4,0c12.8,0,25.7,0,38.5,0,12.5,0,25,0,37.5,0,12.1,0,24.1,0,36.2,0,11.6,0,23.1,0,34.7,0,11,0,22,0,33,0,10.4,0,20.8,0,31.2,0,9.7,0,19.4,0,29.1,0,9,0,17.9,0,26.9,0,8.1,0,16.3,0,24.4,0,7.2,0,14.5,0,21.7,0,6.3,0,12.6,0,18.9,0,5.3,0,10.6,0,15.9,0,4.2,0,8.5,0,12.7,0,3.1,0,6.2,0,9.3,0h5.6c.6,0,1.2,0,1.8,0s1.6-.8.6-.8h-7.8c-3.1,0-6.3,0-9.4,0h-12.8c-5.3,0-10.7,0-16,0-6.3,0-12.7,0-19.1,0-7.3,0-14.6,0-21.9,0-8.2,0-16.3,0-24.5,0-9,0-18,0-27,0-9.7,0-19.4,0-29.1,0-10.4,0-20.8,0-31.3,0-11,0-22,0-33,0-11.6,0-23.2,0-34.8,0-12.1,0-24.2,0-36.2,0-12.5,0-25,0-37.5,0-12.9,0-25.7,0-38.6,0s-26.3,0-39.4,0c-13.4,0-26.8,0-40.1,0-13.5,0-27.1,0-40.6,0s-27.3,0-40.9,0c-13.7,0-27.3,0-41,0-13.6,0-27.2,0-40.8,0-13.5,0-27.1,0-40.6,0s-26.7,0-40,0-26.3,0-39.4,0c-12.8,0-25.7,0-38.5,0-12.5,0-25,0-37.5,0-12.1,0-24.1,0-36.2,0-11.6,0-23.1,0-34.7,0-11,0-22,0-33,0-10.4,0-20.8,0-31.2,0-9.7,0-19.4,0-29.1,0-9,0-17.9,0-26.9,0-8.1,0-16.3,0-24.4,0-7.2,0-14.5,0-21.7,0-6.3,0-12.6,0-18.9,0-5.3,0-10.6,0-15.9,0-4.2,0-8.5,0-12.7,0-3.1,0-6.2,0-9.3,0h-5.6c-.6,0-1.2,0-1.8,0s-1.6.8-.6.8h0Z"/>
  <path class="st22" d="M1068.3,493c-7.5,10-14.6,20.7-19.7,32.2-2.7,5.9-4.4,12.1-5.4,18.6-1.1,7.2-1.4,14.5-1.7,21.8-.8,21.3-1.2,42.6-1.6,63.9-.2,11.2-.4,22.3-.7,33.5,0,.7,1.4.4,1.5-.2.5-21.3.8-42.5,1.3-63.8.2-10.1.5-20.3.8-30.4.5-13.2.8-26.7,5.5-39.2,2.5-6.7,6-13,9.7-19.1,3.6-5.9,7.5-11.6,11.7-17.2.4-.6-1.1-.5-1.4,0h0Z"/>
  <path class="st22" d="M1110.2,493.1c-7.5,10-14.6,20.7-19.7,32.2-5.7,12.8-6.6,26.5-7.1,40.3-.8,21.3-1.2,42.6-1.6,63.9-.2,11.2-.4,22.3-.7,33.5,0,.2,1.4,0,1.4-.4.5-21.3.8-42.5,1.3-63.8.2-10.1.5-20.3.8-30.4.5-13.3.8-27,5.6-39.5,2.5-6.6,5.9-12.8,9.6-18.9,3.6-5.9,7.5-11.6,11.7-17.2,0,0-1.2,0-1.4.3h0Z"/>
  <path class="st22" d="M263.6,494.8c7.5,10,14.6,20.7,19.7,32.2,2.7,6,4.5,12.4,5.5,18.9,1.1,7.1,1.4,14.2,1.7,21.3.8,21.3,1.2,42.6,1.6,63.9.2,11.2.4,22.3.7,33.5,0,.3,1.5,0,1.5-.4-.5-21.3-.8-42.5-1.3-63.8-.2-10.2-.5-20.5-.9-30.7-.5-13.2-.8-26.8-5.6-39.3-2.5-6.6-6-12.8-9.6-18.9-3.6-5.9-7.5-11.6-11.7-17.2-.3-.4-1.6.2-1.5.4h0Z"/>
  <path class="st22" d="M221.7,494.9c7.6,10.1,14.7,20.9,19.8,32.4,5.6,12.7,6.4,26.4,7,40.2.8,21.2,1.2,42.4,1.6,63.6.2,11.2.4,22.3.7,33.5,0,.4,1.5.1,1.4-.4-.5-21.4-.8-42.8-1.3-64.2-.2-10.1-.5-20.2-.9-30.3-.5-13.3-.8-27-5.8-39.6-2.6-6.6-6-12.8-9.7-18.9-3.6-5.8-7.4-11.5-11.5-16.9-.3-.4-1.7.1-1.4.5h0Z"/>
  <path class="st17" d="M486.3,267.6l-59.5-3.2-10,20.2s16.5,15.6,18.3,16.4c1.8.8,42.4,11.2,42.4,11.2,0,0,46.8-13.4,46.1-13.3s-37.2-31.3-37.2-31.3h0Z"/>
  <path class="st17" d="M422.8,219.5s8,23.3-3.7,47.1c-1.1,2.3-13.4,7.4-13.4,7.4l19.8,6.5c13.6,3.1,43.9,3.2,57.1-.8l11-6.1s-13.8-3.1-14.5-6,1.9-24.9,1.9-24.9"/>
  <path class="st33" d="M421.7,230.4c0,0,0,.1,0,.2,0,0,0-.2,0-.2Z"/>
  <path class="st17" d="M473.5,270.1l23.8-2,11.8-3.3c1.2,0,6.7-12.4,7.4-13.9,2.3-4.9,4.5-11.5,5.9-16.8,1.4-5.7,4.7-10.7,5.2-17.5.4-5,.2-8.4-2.8-16.3-.8-2-.9-4-.5-6.3.8-4.7,1-10.1,2-16.3,0-.5.5-2.9.3-3.4,0,0-.1-25.9-5.2-34.9-5.1-9-12.3-12.9-19.1-14.3s-26.9.7-26.9.7l-27.9-2.7-23,12.8-10.6,29.1,3.3,33.1,5,29.5"/>
  <path d="M504.5,195.5s6-6.3,10.5-6.8c6.5-.7,8.2.7,10.6,3.7,0,0-4.3-3.1-9-2.4-4.4.6-12.2,5.5-12.2,5.5Z"/>
  <path d="M482.4,195.5s-9.1-5.6-13.5-5.6c-6.4,0-14,4-16,7.2,0,0,10-5.9,14.5-5.8,4.3.1,15,4.2,15,4.2h0Z"/>
  <path d="M484.9,163c.3,1.5.6,3.1,1,4.6.2,1.2.9,3.8,1.1,5-4.1-.1-8-.9-10.7-.7-5.2.2-10.7.2-15.6,2-2.4.9-4.4,1.9-6.2,3.6-.6.5-2,2.5-3,2.3-.4,0-.2-2.1-.2-2.3.5-4.1,3.6-6.4,7.6-8.2,8.2-3.7,16.9-5.4,25.9-6.2"/>
  <path d="M528.8,171s-2-1.4-2-1.5c-5.6-4.1-11.9-6.2-18.7-7.6-.5,1.5-1.1,2.9-1.6,4.4-.4,1.1-1.2,3.1-1.6,4.2,3.2.1,6.1,0,8.1.2,4,.6,8.2,1.1,11.6,3.2.3.2,1.7,1.1,2,1.3,1.9-1.6,2.6-3.7,2.2-4.3h0Z"/>
  <path class="st27" d="M486.6,246.9l16.9-1.4s-3.8,6.7-7.9,6.8c-2.6,0-6.1-2.6-9-5.4h0Z"/>
  <g>
    <path class="st4" d="M499.4,222c-1.9,1.1-4.8.9-6.8-.2-.4-.3-1.9,0-1.2.4,2.6,1.6,6.8,1.6,9.3.2.2-.1.2-.3-.1-.4-.3-.1-.8,0-1.1,0"/>
    <path class="st4" d="M490.5,221.6c-1.3-.6-2.8-.9-4.2-.9-.2,0-.5,0-.6.2-.1.1-.1.3,0,.4.7.4,1.5.5,2.3.5.2,0,.6,0,.7-.3.1-.2-.1-.3-.3-.3-.6,0-1.3,0-1.9-.4-.2.2-.4.4-.6.6,1.3,0,2.6.3,3.8.9.2.1.6,0,.8-.1.1-.1.3-.3,0-.4"/>
    <path class="st4" d="M484.7,222c-1.7,0-3.7-.7-4.6-2-1.3-1.9-.2-5,1.8-6.3.2-.1.1-.3-.1-.4-.3,0-.7,0-.9.2-1.8,1.1-2.9,3.7-2.6,5.5.3,1.7,2,2.9,4,3.3.6.1,1.2.2,1.9.2s.7,0,.8-.3c.1-.2-.1-.3-.4-.3"/>
    <path class="st4" d="M502.4,221.1c-.1-.2,0-.3.2-.3.5,0,.9-.1,1.3-.5.2.2.3.4.5.6-.9.1-1.8.5-2.6,1.1-.2.1-.4,0-.5,0-.1,0-.2-.3,0-.4"/>
    <path class="st4" d="M501.2,221.3c.9-.6,1.9-1,2.9-1.2.1,0,.4,0,.5.2,0,.1.1.3,0,.4"/>
    <path class="st4" d="M506,221.2c1.1,0,2.4-.9,2.9-2.2.8-2,0-4.3-1.5-5.5-.1-.1,0-.3,0-.4.2,0,.4,0,.6.2,1.2,1.1,2.1,2.8,1.9,4.7-.1,1.7-1.1,3-2.4,3.5-.4.2-.8.3-1.2.3-.2,0-.5,0-.6-.3,0-.2,0-.3.2-.3"/>
  </g>
  <path class="st0" d="M465.5,155.6s25.9-4.7,43.8-1.7"/>
  <g>
    <g>
      <path d="M521.1,137.2c-.3.8-.3,1.6.3,2,.4.2,1,.4,1.4.6-.3-1-.9-2-1.7-2.5h0Z"/>
      <path d="M520.3,137.3c-.2.6-.3,1.3,0,1.9s.5.4.8.6c.2,0,.4.1.6.2,0,0,.2,0,.2,0,0,0,0,0,.1,0-.1,0,0,0,0,0,.3.1.6.1.9,0,0,0,.2-.1.3-.2s.2-.2.1-.4c-.3-1.1-.9-2.1-1.9-2.7-.1,0-.3,0-.5,0-.2,0-.4,0-.5.2-.2.2-.4.4,0,.6,0,0,.1.1.2.1,0,0,0,0,0,0,0,0,0,0,0,0,0,0,0,0,0,0,.1.1.2.2.3.3.2.2.4.5.5.8h0c.2.2.3.6.5,1l1.3-.6c-.2,0-.4-.2-.6-.2,0,0-.2,0-.3,0,0,0,0,0-.1,0-.1,0,0,0,0,0,0,0-.2,0-.2-.1,0,0-.2,0-.2-.1h0s0,0,0,0c0,0,0,0,0,0,0,0,0-.1-.1-.2h0c0,0-.1-.3-.2-.5h0c0-.2,0-.5.2-.8,0-.1,0-.2-.2-.3-.1,0-.3-.1-.5,0-.3,0-.7.2-.8.5h0Z"/>
    </g>
    <g>
      <path d="M522.2,133.3c-.5-.8-1.8-.7-2.3-1.5-.6-.9,0-2.1-.3-3.1-.4-1.3-2.2-1.6-3.6-1.6.8-1.1.1-3-1.2-3.3-.5-.1-1.2,0-1.6-.5-.6-.6-.1-1.8-.8-2.3-.5-.3-1.1,0-1.6-.2-.1-.3-.3-.7-.4-1-.1,0-.3-.1-.4-.2,0-.7.2-1.5-.1-2.1-.4-.6-1.2-.8-2-.9,0-.2.2-.4.4-.6-.6.3-1.1.3-1.7,0-.2-.2-.3-.3-.2-.6v.5c-1.8-.7-3.6-3.1-5.6-2.9-.8,0-1.5.5-2.3.7-2.1.5-4.3-1.3-4.4-3.4-2,1.3-4.5,1.7-6.7,1.2l-.4.2c-1.3-1.3-3.2-2.4-4.2-2.1-1.6.5-3.1,1.5-4.7,1.3-1.9-.3-3.5-2.3-5.4-1.9-1.1.2,1.8,1.3.6,1.5-1.6.2-2.9-1.5-4.6-1.5-2,0-3.5,2.6-5.5,2.5-1.3,0-2.3-1.3-3.6-1.5-2.6-.4-4.9,3.2-7.3,2.2-1-.4-1.7-1.6-2.8-1.9-2.5-.8-3.9,3.6-6.6,3.5-1.6,0-3-1.7-4.6-1.3-1.7.4,1,2-.7,2.3-1,.2-1.9-.4-2.9-.4-2.7.2-3.3,4.1-5.8,4.9-1.2.4-2.5,0-3.6.5-1.4.7-1.6,2.7-2.7,3.6-.1,0-.3.2-.4.3,0,0-.1,0-.2.1-1.1.4-2.4-.2-3.5.3-1.7.8-1.8,3.8-3.7,4.1-.8.1-1.8-.5-2.5,0-.6.5-.3,1.5-.3,2.4,0,1.7-1.9,3-3.4,2.5-.1.7-.4,2.8-.6,4.8v-.9c-.6-.7-1.8,0-2.1.9-.3.9,0,1.8-.1,2.7-.2,1.9-2,3.6-4,3.5,1.6,2.3,3.1,5.6,1.1,7.5-.5.4-1.2.7-1.6,1.3-.7.9-.5,2.2.1,3.1.6.9-.5,1.2.5,1.7-1.5,1.5-3,3.9-1.6,5.5.7.9-1.5,1.2-1.4,2.4.1,1.3.3,2.2-.3,3.4-.5,1,0,2.3.8,3s-1.4,1.8-.3,2c.6,1.4,0,.4-.7,1.8-.7,1.2.3,4.4,1.6,4.6s1-.6,2.1.3c-1.4.9-2.9,2.5-2.2,4,.7,1.4,2.7,1.3,4.2,1.8.1.7.3,1.5.4,2.2-.8.6-1.8,1.1-2.2,2-.4,1,.3,2.1,1.2,2.5.8.4,1.6.4,2.5.4,2.2,3.6,6.7,12.2,10.5,19.7l10.2-.3v.6c.8,0,1.6,0,2.3,0,.2,0,.5,0,.7-.1.5-.3.1-1.1,0-1.6-.4-1.3.2-2.6.6-3.9.5-1.2.7-2.8-.2-3.8-.5-.5-1.3-.8-1.4-1.5-.2-.9.9-1.5,1.5-2.2.9-1.1.1-3.1-1.3-3.4,0,0,1.5-1.9.6-5.3-.8-3.4-2.1-7.1-2.1-7.1h0c.2-.3.4-.5.5-.8.9-2.2-1.2-4.7-.5-6.9.3-1,1.2-1.8,1.4-2.8.5-2-1.5-3.8-1.4-5.8,0-2.3,2.6-4.4,1.6-6.4-.5-1-1.7-1.5-2.2-2.5-.8-1.8,1.1-4.3-.4-5.6-.5-.4-1.3-.5-1.7-1-.9-1,.4-2.5.8-3.7.4-1.3,0-2.8,0-4.2,0-1.4,1.2-3,2.5-2.5-.6-1.4-.4-4.3.3-6.2l4.3-1.8c.1,0,.3-.1.4-.2l12.6-5.4c.6.1,1.2.1,1.9,0,.7-.2,1.3-.8,1.5-1.4l1.6-.7c.8.3,1.6.5,2.5.5,1.5,0,3.1-.9,3.4-2.4.5,2.1,3.8,2.6,5,.9.5-.7.8-1.7,1.6-1.9.4,0,.8,0,1.1.2,1.1.5,2.7,3,3.8,4.9.2.8.5,1.4,1,1.7.4,0,2.7.5,5.3.9-.3.5-.1,1.2.7,1.4,1,.3,2.5-.3,3.2.2.8.6-.6,1.6-.1,2.3.3.5,1.2.6,1.8.9.7.4,1,1,1.6,1.4.7.4,1.8.5,2.6.2,1,0,2.2-.4,2.5.2,0,.2,0,.4,0,.5,0,.7.6,1.4,1.5,1.6s2,0,2.6-.5c.6-.5.8-1.3,1.5-1.8.2-.1.5-.3.7-.4.2.2.5.4.9.5.9.2,2,0,2.6-.5.6-.5.8-1.3,1.5-1.8.6-.4,1.5-.6,1.7-1.2.4-.9-1.1-1.9-.4-2.7.7-.7,2.2-.1,3.2-.5.4-.2.6-.4.7-.8,1.9-1,3.8-3.2,6.4-4.1,0,0,.1,0,.2,0,0,.3-.1.7,0,1,.4,1.4,3.1,0,3.9,1.2.7.9-.4,2.5.5,3.1.4.3,1,.1,1.5.1.9,0,1.8.6,2.1,1.5.2.6.1,1.4.5,1.9.5.6,1.5.7,2.2,1,.2,0,.5.2.7.3.1-.3.3-.6.4-.9.6-.9,1.3-2.1.6-2.9h0Z"/>
      <path d="M522.8,133.1c-.6-.7-1.8-.7-2.3-1.5-.7-.9,0-2.2-.4-3.2-.6-1.5-2.6-1.7-4-1.7l.4.4c.9-1.5,0-3.3-1.6-3.7-.7-.2-1.3-.2-1.4-1,0-.4,0-.9-.3-1.3-.5-.7-1.5-.5-2.3-.6l.4.2c-.2-.4-.5-.9-.7-1.3-.2-.5,0-1.1-.1-1.7-.3-1-1.5-1.2-2.4-1.4l.3.3.3-.5c.4-.5-.8-.3-1-.3l-.9-.5c0-.5-1.5,0-1.5.4v.5c.4-.2.9-.3,1.3-.5-2-.9-3.5-3.1-5.9-3-1.4,0-2.6,1.1-4,.6-1.3-.5-2.2-1.7-2.3-3.1,0-.4-1,0-1.2,0-1.4.9-3,1.3-4.7,1.2-.9,0-1.4-.2-2.3,0h1c-1.1-1.1-2.7-2.4-4.4-2.3-.8,0-1.6.5-2.3.8s-1.5.7-2.4.6c-.6,0-1.3-.4-1.8-.7-1.3-.7-2.9-1.7-4.5-1-.9.4-.4,1.2.3,1.5,0,0,.1.2.2.2,1.1,0-.2-.5-.2-.5-.3-.2-.8-.4-1.2-.6-.8-.4-1.5-.8-2.4-.8-1.6,0-2.9,1-4.1,1.9-2,1.4-3.5-1-5.6-1-1.6,0-2.9,1-4.3,1.8-1,.6-1.9.9-3,0-.7-.5-1.3-1.2-2.1-1.5-1.2-.3-2.4.2-3.3.9-1.1.9-2.3,2.9-3.9,2.5-1.7-.4-3-1.8-4.8-1.1-.4.1-.8.3-.9.7-.1.5.4.8.4,1.2s-.4.1-.8,0c-.5-.1-.9-.2-1.4-.2-.7,0-1.3.2-1.9.5-1.3.7-2.1,2-3,3.2-.8,1-1.4,1.4-2.8,1.5-1,0-1.9,0-2.7.5-.8.4-1.3,1.1-1.7,1.9-.2.4-.4.8-.7,1.2-.5.7-.9.8-1.8.8-1.9,0-3.3.2-4.3,2-.3.6-.7,1.8-1.3,2.1-.5.2-1.3-.1-1.8,0-.3,0-.7,0-1,.2-.7.3-1,.9-1.1,1.7,0,.6.2,1.2,0,1.8-.2.9-1.2,1.7-2.2,1.4-.3,0-1.1,0-1.2.5-.2,1.6-.4,3.2-.6,4.8l1.5-.3c0-.7.1-1.1-.7-1.3-.7-.2-1.6.1-2.2.6-.9.8-.8,1.8-.8,2.9,0,1.8-.8,3.8-2.9,3.9-.2,0-1.3.2-1,.7,1.1,1.6,2.4,3.7,2,5.7s-2.9,2.2-2.9,4.2c0,.9.7,1.5.8,2.3,0,.2-.1.4,0,.7,0,.2.2.4.2.7,0,.3-.7.9-.9,1.1-.2.3-.4.6-.6.9-.4.8-.7,1.7-.4,2.6.2.8.8.9.1,1.6-.4.3-.9.6-1,1.2-.2.8.2,1.7,0,2.6s-.8,1.6-.6,2.5c0,.4.2.7.4,1,.1.2.8.7.8,1,0,.5-.6.8-.8,1.2-.1.5.2.5.4.9.2.4.1.1,0,.4-.2.3-.6.5-.8.9-.7,1.2-.1,3,.6,4.1.4.5.8.9,1.4.9.3,0,.7,0,1,0,0,0,.3,0,.4,0,.4,0-.5-.3.3.3v-.4c-1.1.9-3.1,2.5-2.3,4.3.3.7.9,1.1,1.6,1.3.8.3,2.3.2,2.7.9.1.3.4,1.4.2,1.7s-.8.6-1.1.8c-.6.5-1.1,1.1-1,1.9,0,2.1,2.6,2.5,4.2,2.5l-.4-.2c3.8,6.4,7.1,13.1,10.5,19.7,0,.2.3.2.4.2,3.4-.1,6.8-.2,10.2-.3l-.4-.2v.6c.1.2.4.2.5.2,1.1,0,4.5.6,4.1-1.5-.1-.8-.5-1.3-.3-2.1,0-.7.4-1.3.6-1.9.4-1,.7-2,.5-3s-.8-1.4-1.5-2c-1.2-1.2.2-1.8.9-2.7,1-1.3.2-3.3-1.4-3.7v.3c1.3-1.6,1.1-4.1.7-5.9-.4-1.7-.9-3.4-1.5-5-.1-.4-.3-1.6-.7-1.8v.3c2.1-2.8-1.1-5.9.6-8.7.7-1.3,1.4-2.3.9-3.8s-1.6-2.9-1.3-4.6c.3-1.4,1.3-2.6,1.7-4,.3-1.4-.3-2.3-1.3-3.2-1.5-1.4-1.2-2.6-.9-4.4.2-1.2,0-2.2-1.1-2.8-1-.5-1.7-.9-1.3-2.1.3-.9.9-1.6,1-2.5.2-.9,0-1.7,0-2.6,0-.6-.1-3.6,1.3-3.2s1.3-.1,1.2-.6c-.7-1.9-.4-4.3.3-6.1l-.4.4c5.5-2.4,11-4.7,16.5-7.1.2,0,.4-.2.6-.3,0,0,0,0,.1,0-.7.1.4.2.6.2,1.4,0,2.6-.7,3.2-2l-.4.4,1.6-.7h-.9c2.5.9,6.3.9,7.2-2.2-.5,0-1,.2-1.5.3.5,1.6,2.2,2.3,3.8,2.1.8,0,1.5-.3,2.1-.8.4-.3.6-.7.9-1.1.4-.7.6-1.1,1.4-.6.9.6,1.6,1.8,2.2,2.6.4.6.9,1.2,1.2,1.9.2.5.3,1,.6,1.4.5.6,1.1.6,1.8.7,1.4.2,2.7.5,4.1.7l-.3-.3c-.4,1,.3,1.6,1.3,1.7.6,0,1.3,0,1.9,0,1.1,0,1,.5.7,1.3-.4,1,0,1.4,1,1.8.8.3,1.2.6,1.9,1.2.4.4.8.6,1.4.8,1.1.3,2.2,0,3.2,0,1.1-.1.9.5,1.3,1.2.2.5.7.9,1.1,1.1,1,.5,2.3.3,3.3-.1,1.3-.6,1.7-2,3-2.6h-1.1c1.5,1.2,3.8.9,5.1-.4.4-.4.6-.9,1.1-1.3s1-.5,1.4-.9c.7-.6.8-1.1.4-1.9-.2-.5-.7-1,.1-1.3.4-.1,1,0,1.5,0,.9-.1,1.4-.4,2-1,.6-.7,1.6-1.2,2.4-1.8,1.2-.9,2.3-1.8,3.7-2.3h-.9c-.1,0,.1,1.3.4,1.5.4.3,1,.3,1.5.3.8,0,1.8-.3,2.2.6.3.7-.2,1.6,0,2.3s.7,1,1.4,1c1.3,0,2.3.1,2.7,1.6.2.9.2,1.6,1,2.1.8.5,1.7.5,2.5.9.3.2,1.2,0,1.3-.4.5-1.3,1.8-2.5,1.1-3.9-.2-.5-1.6,0-1.5.4.7,1.3-.6,2.6-1.1,3.7l1.3-.4c-.8-.5-2.1-.5-2.7-1.2-.5-.6-.3-1.6-.7-2.3-.3-.6-.9-1-1.5-1.2-.9-.3-2.3.2-2.3-1.2,0-1.1.3-2.3-1-2.6-1.2-.4-3.3.6-3-1.5,0,0,0-.2-.1-.2-1.6-.4-3.6,1.3-4.8,2.2-.9.7-1.8,1.3-2.7,1.9-.3.2-.7.7-1,.8-.4.1-1,0-1.5,0-.6,0-1.4.2-1.8.7-.5.6-.1,1.1.1,1.7.6,1.3-.7,1.5-1.5,2.1-.3.3-.6.6-.8,1-.7,1-1.8,1.2-2.8.5-.3-.2-.8,0-1.1,0-.4.2-.9.5-1.2.8-.4.4-.6.9-1,1.3-.8.7-2.1.6-2.8-.3-.3-.4,0-1-.3-1.4-.4-.6-1.2-.5-1.8-.5-1.3.1-2.8.6-3.9-.4-.4-.4-.7-.8-1.2-1.1-.4-.2-.7-.3-1.1-.4-1.4-.6-.3-1.1-.3-2.1,0-2.1-5,.2-4.1-2.1,0-.2-.2-.2-.3-.3-1.2-.2-2.4-.4-3.7-.6-.8-.1-1.5,0-2-.8-.6-.9-1-1.9-1.6-2.8s-1.2-1.9-2.1-2.6c-1.1-.9-2.8-1-3.8.1-.8.9-.9,2.2-2.3,2-1,0-1.9-.8-2.2-1.7-.1-.5-1.4,0-1.5.3-.4,1.5-1.8,2.1-3.3,1.8-.9-.2-1.4-.6-2.2-.3-.5.2-1,.4-1.5.6-.2,0-.3.1-.4.3-.2.2-.2.5-.4.7-.6.6-1.3.4-2,.4-.6,0-1,.3-1.6.5l-3.1,1.3c-3.7,1.6-7.3,3.1-11,4.7-.8.3-2.2.6-2.7,1.3-.6.8-.6,2.5-.7,3.5s0,1.9.4,2.8l1.2-.6c-1.2-.3-2.4.2-3.1,1.2-1.1,1.5-.5,3.1-.5,4.8,0,1-.4,1.8-.8,2.6-.3.6-.6,1.4-.3,2.1.3.6.9.8,1.5,1.1.9.5,1.1,1.2,1,2.2-.2,1.4-.7,2.8.1,4.1.5.7,1.2,1.1,1.7,1.8.5.8.4,1.6.1,2.5-.5,1.4-1.5,2.6-1.5,4.2,0,1.8,1.5,3.3,1.5,5.1,0,1.1-.7,1.9-1.2,2.8-.4.8-.5,1.5-.4,2.3.2,2.1,1.5,4.1.1,6-.1.1,0,.3,0,.3-.3-.1,0,.2,0,.5.1.4.3.9.4,1.3.5,1.5.9,3,1.3,4.5.5,1.8.8,4.1-.4,5.8,0,.1,0,.3,0,.3.9.2,1.5,1,1.5,1.9s-.6,1.4-1.2,2c-.4.4-.7.9-.6,1.5.1.7.9,1,1.4,1.5,1.6,1.5.1,3.7-.3,5.4-.2.9-.2,1.6,0,2.5,0,.2.1.4.2.6.2.3.1.4-.3.2-.5.1-1.3,0-1.8,0l.4.2v-.6c-.1-.2-.4-.2-.5-.2-3.4.1-6.8.2-10.2.3l.4.2c-2.6-5-5.1-9.9-7.8-14.8-.5-1-1-1.9-1.6-2.9-.3-.5-.7-1.6-1.2-2-.3-.2-.8-.1-1.2-.2-.9,0-1.8-.4-2.3-1.2-1-1.6.7-2.4,1.8-3.3,0,0,.2-.2.1-.3-.1-.8-.3-1.5-.4-2.2,0,0,0-.1-.1-.1-1.2-.4-2.9-.3-3.8-1.3-1.4-1.5.6-3.3,1.8-4.1.1,0,.2-.3.1-.4-.4-.3-.7-.5-1.2-.5s-1,.3-1.5-.1c-.9-.7-1.4-2.7-1.1-3.7.4-1.3,1.5-.9.9-2.3,0,0-.3-.2-.3-.2,0-.1.2-.3.3-.4.2-.3.5-.6.5-.9,0-.5-.6-.8-.9-1.3-.5-.9-.3-1.6,0-2.5.3-.8.3-1.5.2-2.2s0-1.2.5-1.7,1.1-.8.7-1.6c-.5-1-.6-1.7-.1-2.8.4-.9,1.1-1.7,1.8-2.4,0,0,0-.2,0-.3-.5-.4-.2-.6-.2-1.1,0-.7-.7-1.2-.8-1.9-.2-1.8,1.8-2.2,2.5-3.6,1.3-2.3-.4-5.1-1.7-7l-1,.7c1.8,0,3.5-.9,4.5-2.5.5-.9.5-1.8.5-2.8,0,0,.2-2.8.8-2,.1.1,0,.7,0,.9,0,.4,1.4.1,1.5-.3.2-1.6.4-3.2.6-4.8l-1.2.5c1.4.3,3.1-.2,4-1.4.5-.6.6-1.3.6-2,0-.4-.3-1.2,0-1.5.3-.4,1.2,0,1.6,0,1.4,0,2.3-.8,2.9-2,.4-.6.6-1.5,1.2-2,.8-.6,2.2-.1,3.2-.3,1.7-.4,2.3-1.8,3.1-3.2.5-.8.8-1.1,1.9-1.2.5,0,1,0,1.4,0,.8,0,1.5-.3,2.1-.7,1.2-.8,2-2.2,2.9-3.3.3-.3.6-.7.9-.9.6-.3,1.3,0,2,0,.8.2,1.6.2,2.4-.1.3-.2.6-.4.7-.8,0-.3-.5-.9-.4-1.2.2-.4,2.3.8,2.7.9.7.3,1.4.4,2.1.3,1.4-.2,2.4-1.1,3.3-2.1.5-.4,1-1.1,1.6-1.4,1.1-.4,2,.9,2.8,1.5,1.2.8,2.6.7,3.8.1,1.7-.7,3.2-2.5,5.2-1.6,1.6.8,2.8,1.6,4.6.9.7-.3,1.3-.7,1.9-1.2,1.1-.8,2-1.2,3.3-.5.9.4,1.7,1,2.7,1.1.4,0,1.3,0,1.6-.4.3-.4,0-.5-.3-.8-.1-.1-.4-.4-.6-.4,0,0-.4-.2-.1,0,.2.1.5.3.8.4,2,.9,3.4,2.1,5.8,1.5,1-.3,2.2-1.2,3.3-1.2,1.2,0,2.5,1.2,3.3,2,.2.2.7,0,1,0,.4-.2.3,0,0,0,.3,0,.6,0,1,.1.8,0,1.5,0,2.2,0,1.4-.2,2.8-.7,4-1.5h-1.2c.2,2.3,2.4,3.9,4.7,3.6.6,0,1.1-.3,1.7-.5,1.2-.4,1.9-.2,2.9.4,1.1.7,2,1.6,3.2,2.2.4.2,1.3,0,1.3-.5v-.5c-.5.1-1,.3-1.5.4.2,1.4,2,.9,2.9.6l-1-.3c-.3.3-.3.3-.4.7,0,.2.2.2.3.3.6.1,1.4.2,1.8.8.3.6.1,1.3.1,1.9,0,.1,0,.2.1.2.4.2.5.7.7,1,0,.2.3.2.4.2.6,0,1.3,0,1.6.7,0,.3,0,.6,0,.9.1.6.3.9.9,1.1.7.3,1.5.1,2,.8s.7,1.7.2,2.4c-.2.3.2.4.4.4.8,0,1.9,0,2.6.6.9.7.7,1.6.6,2.6,0,2.1,1.5,1.7,2.7,2.9.3.3,1.7-.2,1.3-.6h0Z"/>
    </g>
    <g>
      <path d="M523.2,140.5c.2-.4,0-.6-.5-.8.1.3.2.7.3,1,0,0,.2-.1.2-.2Z"/>
      <path d="M524,140.4c0-.1,0-.2,0-.4,0-.1,0-.2-.1-.3,0-.1-.2-.2-.3-.2,0,0-.2-.1-.3-.1-.1,0-.2,0-.4,0-.2,0-.3,0-.5.1,0,0-.2.1-.3.2,0,0-.2.2-.1.3.1.3.2.7.3,1h0c0,0,0,.2,0,.2h.1c0,0,.2,0,.2,0,.3,0,.5-.1.8-.3,0,0,.1-.1.2-.2s0-.1.1-.2c0,0,0-.1,0-.2,0,0,0-.1,0-.1,0-.1-.3-.1-.4-.1-.2,0-.4,0-.6.1h-.2c0,.1-.2.2-.2.3,0,0,0,0,0,.1h0c0-.1,0,0-.1,0h1.3c0-.4-.2-.7-.3-1.1l-1.3.6c0,0,.2.1.3.2h0c0,0,.1,0,.2.1h0s0,0,0,.1h0s0,0,0,.1c0,.1,0,.2.2.3,0,0,.1,0,.2,0,0,0,.2,0,.3,0,.2,0,.4,0,.5-.2h.1c0-.2.1-.2.1-.3h0Z"/>
    </g>
    <g>
      <path d="M523,140.7c-.1.1-.3.2-.5.3-.4.4-.3,1.2,0,1.7.2.4.5.6.9.9,0-.5,0-.9-.2-1.4,0-.5-.1-1-.2-1.6h0Z"/>
      <path d="M522.5,140.6c-.3.2-.6.4-.8.7-.1.3-.2.6-.1.9.1.7.7,1.2,1.2,1.7,0,0,.3,0,.4,0,.2,0,.3,0,.5,0,.2,0,.6-.2.5-.4-.1-1-.2-2-.4-3,0-.1-.2-.1-.3-.1-.2,0-.4,0-.5,0s-.3.1-.5.2c0,0-.2.1-.2.2.2,1,.3,2,.4,3l1.4-.5c-.4-.4-.9-.8-1-1.4,0-.2,0-.5,0-.7,0,0,0,0,0,0,0,0,0,0,0,0,0,0,0,0,0,0s0,0,0,0c.1-.1.3-.2.4-.3,0,0,.2-.1.2-.2s-.2-.1-.3-.1c-.3,0-.8,0-1,.3h0Z"/>
    </g>
    <g>
      <path d="M523.8,144c-.1-.1-.2-.2-.4-.4.2,1.8.6,3.5,2,4.5,1.4-1.4-.3-2.6-1.6-4.1Z"/>
      <path d="M524.5,143.7c-.1-.1-.2-.2-.4-.4-.2-.2-.6-.3-.9-.1-.3.1-.5.3-.5.7.2,1.8.7,3.6,2.2,4.7.3.3.9,0,1.2-.2.3-.3.6-.8.7-1.2,0-.4-.1-.9-.3-1.2-.5-.8-1.3-1.5-1.9-2.2-.2-.3-.7-.3-1-.1-.2.1-.6.5-.3.8.6.7,1.3,1.2,1.8,2,0,0,0,.1.2.2,0,.1,0,0,0,.2,0,0,0,.1,0,.2,0,0,0,0,0,.1,0,0,0,0,0,0,0,0,0,.2,0,.2,0,0,0,0,0,0,0,0,0,0,0,.1,0,0,0,0,0,.1,0,0,0,0,0,0h0c0,.2-.2.2-.2.3l1.2-.2c-.6-.4-1-1.1-1.3-1.8-.3-.8-.4-1.6-.5-2.5l-1.4.5c.1.1.2.2.4.4.2.3.7.3,1,.1.2-.1.6-.5.3-.8h0Z"/>
    </g>
  </g>
  <path d="M448.4,189.3l1.9,4.9c1.2,3.9,4.5,11.4,6,13.5,2,2.9,22.9,2.9,26.8.3,4-2.6,5.6-14.6,6.5-17.4h8.3c.9,3.5,4.1,14.7,5.8,16.1,1.7,1.4,11.2.7,12.2.6.9,0,2.1-.2,3.5-.4,3.6-.4,7.9-1.3,9.2-2.7,1.9-2.1,3.7-9.8,5.2-17l.2-1.1c0-.3.1-.5.1-.6h0l.3-1.3c-12.3-5.1-27.9-3.3-37.1,4.2h0c0,.1-8.1,0-8.1,0-9.5-5.6-25.5-8.1-36.6-3.1h0l-34.8,7.7v3.1c0,0,30.4-7,30.4-7h0ZM504.8,205.5c-1-.9-3.5-8.7-5.2-14.8,8-6.4,22.1-7.9,33-4v.2c-.8,3.9-3,14.2-4.8,16.3-2.2,2.4-21.2,3.8-23,2.4h0s0,0,0,0ZM458.8,206.8c-3.1-5.6-5.7-11.5-7.8-17.5,9.8-5.1,27.5-3.5,36.8,1.8-1.2,5-2.5,13.8-5.4,15.7-4.1,2.7-22.3,1.9-23.6,0h0Z"/>
  <path d="M516,188.9c1.2-.7,2.9-.2,3.7.5.2.2.6.7.8,1.5.3,1.1,0,2.2-.7,3-.9,1-2.3,1.2-3.5.7-1.5-.7-2.1-2.5-1.8-3.9,0-.2.4-1.3,1.4-1.8"/>
  <path d="M471.1,190.9c-1.2-.6-3.2-.4-4,.4-.2.2-.7.7-.9,1.5-.3,1.1.2,2.2.8,3,.9.9,2.3,1.1,3.4.5,1.5-.8,1.9-2.6,1.5-3.9,0-.2.1-.7-.9-1.2"/>
  <path class="st27" d="M471.5,231.8c-1,.9-2,2-2,3.3,0,.5.1,1,.2,1.4.2.7.4,1.4.5,2.2,0,.1,0,.3.2.4.1.1.3.2.4.2.5.1,1,.2,1.5.1.5-.1,1-.5,1-1.1,0-.2,0-.4,0-.6.1-.4.7-.4,1.1-.5,1-.3,1.2-1.6,1.6-2.6.5-1.3,1.8-2.2,3.1-2.7.7-.3,1.4-.4,2-.8s1.1-1.1,1-1.8"/>
  <path class="st27" d="M514.7,230.4c1,.9,2.1,1.8,2.3,3.2,0,.5,0,1-.1,1.4-.1.7-.3,1.5-.4,2.2,0,.1,0,.3-.2.4-.1.1-.3.2-.4.2-.5.1-1,.3-1.5.2-.5,0-1-.5-1.1-1,0-.2,0-.4,0-.6-.2-.4-.7-.3-1.1-.4-1-.2-1.3-1.5-1.7-2.5-.6-1.3-2-2.1-3.3-2.5-.7-.2-1.4-.3-2-.7-.6-.3-1.2-1-1.2-1.7"/>
  <path class="st17" d="M425.2,230.8c-10.2,10.9-13.2-6.7-13.2-6.7-7.8-8.7-8.1-18.3-8.1-24.9,0-6.6,7.3-6.7,7.3-6.7,6.1.4,9,3.6,14.8,24.1"/>
  <path class="st25" d="M421.1,213c-1.5-2.9-3.1-5.9-5.2-8.5-1.1-1.4-2.2-2.7-3.7-3.7-.6-.4-1.2-.8-1.9-.9-.3,0-.6,0-.9,0-.4.2-.7.7-.9,1.1-1.3,2.8-1.1,6-.3,8.9.1.5,1.6.1,1.5-.4-.6-2.2-.9-4.6-.3-6.9.2-.8.5-1.6,1-2.3l-1,.4c0,0,.2,0,0,0,.1,0,.2,0,.3,0,.2,0,0,0,.1,0,.1,0,.2,0,.3.1.3.1.5.3.7.4,2,1.3,3.5,3.3,4.8,5.2,1.5,2.2,2.8,4.5,4,6.8.3.5,1.7,0,1.5-.4h0Z"/>
  <path class="st25" d="M418.9,214.2c-.8,0-1.8.2-2.4.8-.5.5-.5,1.3-.5,2,0,1,.2,2,.4,2.9.1.8.4,1.6.2,2.4,0,.1-.1.3-.1.4s-.1.2-.1.2h.4c.4-.1.5-.2.4-.3,0,0-.3-.3-.3-.4-.2-.2-.3-.5-.4-.7-.6-1.2-.9-2.6-1.2-3.9-.4-1.8-.6-3.3-.5-5.1.1-1.9.5-5,2.6-5.9.2-.1.4-.2.2-.4-.2-.1-.8.1-1,.2-1.9.9-2.7,3-3,5-.2,1.4-.3,2.9,0,4.3.3,1.7.7,3.4,1.2,5,.3.7.6,2,1.4,2.4.6.3,1.6,0,2-.6.4-.6.2-1.5.1-2.1-.2-1.1-.4-2.3-.5-3.4,0-.5,0-1.1,0-1.6,0-.2.1-.4.2-.6,0,0,0-.1.1-.2.1-.1-.2,0,.1,0s.8,0,1-.3c.2-.2.2-.3,0-.3h0Z"/>
  <rect class="st32" x="498.3" y="872.2" width="30.2" height="54.6" transform="translate(-397.6 1392.2) rotate(-88.7)"/>
  <rect class="st32" x="559" y="863.7" width="30.2" height="54.6" transform="translate(-329.8 1444.6) rotate(-88.7)"/>
  <g>
    <path class="st21" d="M682.3,940.3s2-9.3-5.5-13c-7.5-3.7-24.6-9.9-37.2-17.2-17.4-10.1-27.4-24.8-35.2-25.7-8-.9-6.8,12.9-24.3,12.8-17.3-.1-30-10.2-30.8-10.5-4,2.3-12,30.4-7.5,37.7s46.5,11.9,46.5,11.9l33.5,8.3,33.7,2.5,26.8-6.7h0Z"/>
    <path class="st19" d="M573.8,934c.4-5.5.1-13.4-5.4-16.5-6.4-3.5-15.2-4.6-19.7-10.9-2.8-3.9-2.7-8.8-1.9-13.4.1-.7-1.3-.5-1.4.1-.7,4-.9,8.1.8,11.8,1.3,2.9,3.7,5,6.4,6.6,3.3,2,7,3.3,10.5,4.8,1.9.8,4.1,1.4,5.6,2.9,1.2,1.1,2,2.6,2.6,4.1,1.2,3.4,1.3,7.1,1,10.7,0,.7,1.4.5,1.4-.1h0Z"/>
    <path class="st14" d="M546.9,888.9c5.4,4.4,11.4,8,18.3,9.5,4.2,1,8.4,1.2,12.7,1.1,3.5,0,7-.2,10.4-.8,5.9-1,11.9-4.3,17.9-3.3,4.2.7,8.1,3.2,11.6,5.6,4,2.8,7.8,5.8,11.7,8.6,2.2,1.6,4.4,3.1,6.7,4.6.9.6,1.2.8,2.2.7,2.8-.3,3.5-2.7,3.1-5.2,0-.3-1.5,0-1.4.4.2,1.1.3,4.8-1.8,4.2-.3,0-.7-.5-1-.7-.5-.3-.9-.6-1.4-.9-1-.6-1.9-1.3-2.9-2-1.8-1.3-3.7-2.6-5.5-4-3.6-2.7-7.2-5.5-11-7.9-3-1.9-6.2-3.6-9.8-4.1-5.7-.8-11.1,1.8-16.5,3-2.9.7-5.8.9-8.8,1.1-4.3.2-8.7.2-12.9-.5-7.7-1.3-14.4-5-20.4-9.9-.3-.3-1.6.3-1.3.5h0Z"/>
    <path class="st14" d="M599.4,938.5c-1.3-.3-2.7-.7-4-1-.8-.2-1.5-.4-2.3-.6-.2,0-.5,0-.7-.2-.2-.2-.2.4.2,0,.4-.4.8-.8,1.3-1.2,4.8-4.1,10.9-6.2,17.2-6.5,7.1-.3,14.3.1,21.5,0,5.6-.1,11.5-.2,16.9-1.8,1.7-.5,3.6-1.2,4.9-2.5,2-2.1,1-5.3,0-7.6-.2-.4-1.5,0-1.4.4.9,2,2,4.7.6,6.8-.8,1.2-2.2,1.8-3.5,2.3-4.2,1.5-8.9,1.6-13.3,1.8-5.7.2-11.4.2-17.1.2-5.3,0-10.5-.2-15.6,1.2-4.9,1.3-9.3,3.9-12.9,7.5,0,0,0,.2,0,.3,2.3.6,4.7,1.2,7,1.7.4,0,1.6-.5,1.1-.6h0Z"/>
    <g>
      <path class="st38" d="M594.5,937.5l.2.2h-.3c0,0,0-.2.1-.2h0Z"/>
      <path class="st8" d="M593.8,937.8c0,0,0,.1.1.2h0s1.1-.7,1.1-.7h-.2c0,0,0,0,0,0,0,.2,0,.3.1.5,0,0,0,0,.1-.1s0,0,.1-.2c0,0,0,0,0-.2,0,0,0,0,0-.1,0,0-.1,0-.2,0h-.2c-.1,0-.2,0-.4,0h-.2c0,0-.2.2-.3.2,0,0,0,0-.1.1s0,0-.1.2c0,0,0,0,0,.2h0c0,.2.1.2.2.2h.2c0,0,0,0,0,0,0,0,0,0,.2,0,0,0,.2,0,.3,0,0,0,.1,0,.2,0,0,0,.2,0,.2-.1h.1c0,0,0-.2,0-.2,0,0,0,0,0-.2,0,0,0-.1,0-.2,0,0,0-.1-.1-.2h0s0-.1-.2-.1c0,0-.1,0-.2,0s-.2,0-.3,0c0,0-.2,0-.3,0h-.2c0,.1-.2.2-.2.3h0c0,.2,0,.2,0,.3h0Z"/>
    </g>
    <g>
      <path class="st38" d="M582.8,932.9h1.4c0,1.2,0,2.2,0,2.8-.4,0-.9-.1-1.4-.2,0-.6,0-1.5,0-2.6h0Z"/>
      <path class="st8" d="M582.5,933.3c.5,0,.9,0,1.4,0l-.4-.3c0,.9,0,1.9,0,2.8l1-.6c-.5,0-1-.1-1.4-.2l.4.2c0-.8,0-1.6,0-2.5,0-.3-.4-.4-.6-.3-.2,0-.4,0-.5.2,0,0-.2.2-.3.3,0,.9,0,1.8,0,2.7,0,.2.3.2.4.2.5,0,1,.1,1.4.2.3,0,1-.2,1-.6,0-.9-.1-1.7,0-2.6,0-.2-.2-.3-.4-.3-.5,0-.9,0-1.4,0-.2,0-.4,0-.5.1-.1,0-.3.2-.4.3-.2.3.1.5.4.5h0Z"/>
    </g>
    <g>
      <path class="st38" d="M576.6,931c0,1.1,0,2.3-.1,3.5h-.2c-.4,0-.8-.1-1.2-.2,0-1.1.1-2.2.1-3.3h1.4Z"/>
      <path class="st8" d="M575.9,931.2c0,1.2,0,2.3-.1,3.5l1.2-.5c0,0-.1,0-.2,0,0,0,.1,0,0,0,0,0-.1,0-.2,0-.3,0-.6,0-.9-.1h.1c0-1,.1-2.1.1-3.2-.4.2-.8.3-1.2.5.5,0,.9,0,1.4,0,.3,0,.7,0,1-.3,0,0,.2-.1.2-.2s-.2,0-.2,0c-.5,0-.9,0-1.4,0-.3,0-.5,0-.8.2s-.4.1-.4.3c0,1.1,0,2.2-.1,3.3,0,0,0,0,.1,0,.5,0,1,.2,1.5.2.2,0,.5,0,.8-.2.1,0,.4-.1.4-.3,0-1.2.1-2.3.1-3.5s-.2,0-.2,0c-.2,0-.3,0-.5,0s-.6.2-.6.4h0Z"/>
    </g>
    <g>
      <path class="st4" d="M537.8,924.4s.5,0,1.3.2l.3-1.3c5.2.8,23,3.7,33.8,6.1,3.3.7,7.5,1.9,12.3,3.3,11.2,3.2,26.5,7.5,42.8,9.4,2.9.3,5.8.6,8.6.8,23.3,1.3,42.8-2.3,46.9-3.2v1.3c.8-.1,1.1-.2,1.1-.2,0,0,.3,1.8.6,3.5h0c0,.2,0,.3,0,.4,0,.6.2,1.1.2,1.5-11.7,6.5-61.4,4.8-72.4,1-.7-.2-1.5-.5-2.2-.7-.3,0-.7-.2-1-.3-.5-.2-1-.3-1.6-.5-11.9-3.6-29.6-7.8-29.6-7.8,0,0,0,1.9,0,4h0c0,1-.1,2-.2,2.9-21-.8-42.6-5.6-42.6-5.6l1.8-14.8h0Z"/>
      <path class="st8" d="M537.4,924.8l1.3.2c.3,0,1,0,1.1-.5l.3-1.3-1.1.5c7.9,1.3,15.8,2.6,23.7,4.1,4.5.8,9.1,1.7,13.6,2.9,5.1,1.3,10.1,2.8,15.1,4.2,11.2,3.1,22.5,5.8,34.1,7.3,11.8,1.5,23.8,1.7,35.6.8,7.7-.5,15.3-1.5,22.8-3l-.8-.2v1.3c.2.3.8.2.9.2.3,0,.7-.1,1-.2l-.8-.2c.2,1.2.4,2.3.6,3.5,0,.4.9.1,1.1,0h0c-.4,0-.8,0-1.1,0,.1.7.2,1.3.3,2l.3-.4c-2.1,1.1-4.5,1.7-6.8,2.2-3.3.7-6.6,1-10,1.3-8,.7-16,.8-24,.6-7.4-.2-14.9-.6-22.2-1.5-2.4-.3-4.9-.7-7.3-1.3-4.2-1.1-8.2-2.5-12.3-3.7-7.8-2.2-15.6-4.2-23.4-6-.4,0-1.1,0-1.1.6,0,1.3,0,2.6,0,3.9,0,.2.2.3.4.3h0c-.1,0-.3-.2-.4-.3,0,1-.1,1.9-.2,2.9l1-.5c-13.2-.6-26.5-2.4-39.5-5-1-.2-2-.4-3-.6l.3.3c.6-4.9,1.2-9.9,1.8-14.8,0-.5-1.3-.3-1.4.2-.6,4.9-1.2,9.9-1.8,14.8,0,.2.1.3.3.3,9.5,2.1,19.2,3.5,28.9,4.6,4.6.5,9.2.8,13.8,1,.2,0,.9-.1,1-.5,0-1,.1-1.9.2-2.9,0-.2-.2-.3-.4-.3h0c.1,0,.3.2.4.3,0-1.4,0-2.8,0-4.1l-1.1.6c6.9,1.7,13.7,3.4,20.5,5.2,4.8,1.3,9.6,2.8,14.3,4.2,2.2.7,4.6,1.1,6.9,1.4,7.3,1,14.7,1.5,22,1.7,8.2.2,16.4.2,24.5-.4,3.9-.3,7.8-.7,11.6-1.5,2.7-.5,5.5-1.2,7.9-2.5.1,0,.3-.2.3-.4,0-.7-.2-1.3-.3-2,0-.4-.9-.1-1.1,0h0c.4,0,.8,0,1.1,0-.2-1.2-.4-2.3-.6-3.5,0-.3-.6-.2-.8-.2-.3,0-.7.1-1,.2l.8.2v-1.3c-.2-.3-.8-.2-.9-.2-6.2,1.3-12.6,2.1-19,2.7-11.8,1-23.8,1.1-35.5-.2s-23.1-3.9-34.3-7c-9.4-2.5-18.7-5.3-28.3-7.2-8.9-1.7-17.8-3.2-26.7-4.6-.3,0-1,0-1.1.5l-.3,1.3,1.1-.5-1.3-.2c-.4,0-1.6.6-.8.8h0Z"/>
    </g>
    <g>
      <path class="st4" d="M609.2,892.8c-.2.4-.6.5-1,.5-.2,0-.3,0-.5-.2-.5-.3-.6-1-.3-1.6l3.6-5.8c.6.4,1.1.8,1.7,1.3l-3.6,5.8h0Z"/>
      <path class="st8" d="M608.5,893s-.1.2-.2.2h.2c.2,0,.2-.1,0-.2-.1,0-.2-.2-.3-.3-.2-.2-.2-.5-.2-.8,0-.2.1-.4.2-.5.2-.4.5-.8.7-1.2.8-1.2,1.5-2.4,2.3-3.6l.6-.9c-.5.1-.9.2-1.3.4.6.4,1.2.8,1.7,1.3h0c-1.1,1.6-2.1,3.2-3.2,4.9-.2.2-.3.5-.5.7-.1.2.5.2.6.1.3,0,.7-.1.8-.4,1.1-1.7,2.1-3.4,3.2-5.1.2-.2.3-.5.5-.7,0,0,0,0,0-.1-.6-.4-1.1-.9-1.7-1.3-.3-.2-1.2,0-1.3.4-.6,1-1.3,2-1.9,3-.4.7-.8,1.3-1.3,2-.2.3-.5.7-.6,1.1-.2.7.3,1.4,1,1.5.8.1,1.8-.2,2.2-.9.2-.2-.5-.2-.6-.1-.3,0-.7.1-.8.4h0Z"/>
    </g>
    <g>
      <path class="st4" d="M614.2,896.5c-.2.4-.6.5-1,.5-.2,0-.3,0-.5-.2-.5-.3-.6-1-.3-1.6l3.5-5.6c.5.5,1.1.9,1.6,1.4l-3.4,5.4h0Z"/>
      <path class="st8" d="M613.5,896.6s-.2.2-.2.2h.2c.2,0,.3,0,0,0-.1,0-.3-.1-.4-.2-.2-.2-.3-.5-.3-.7s0-.5.2-.7c.2-.4.4-.7.7-1.1.7-1.2,1.5-2.3,2.2-3.5.2-.3.4-.6.6-.9l-1.3.4c.5.5,1.1.9,1.6,1.4h0c-1,1.5-2,3-3,4.6-.1.2-.3.5-.4.7-.1.2.5.1.5.1.2,0,.7-.1.8-.4,1-1.6,2-3.1,3-4.7l.4-.7s0,0,0-.1c-.5-.5-1.1-1-1.6-1.4-.1-.1-.6,0-.7,0-.2,0-.5.1-.6.3-.6,1-1.2,2-1.8,2.9-.4.6-.8,1.3-1.2,1.9-.2.4-.5.7-.6,1.2-.1.7.3,1.3,1,1.4.8.1,1.8-.2,2.2-.9.1-.2-.5-.1-.5-.1-.3,0-.7.1-.8.4h0Z"/>
    </g>
    <g>
      <path class="st4" d="M622.2,895.2l-3,4.8c-.2.4-.6.5-1,.5-.2,0-.3,0-.5-.2-.5-.3-.6-1-.3-1.6l3.2-5c.5.5,1.1,1,1.6,1.4h0Z"/>
      <path class="st8" d="M621.6,895.2c-1,1.5-1.9,3.1-2.9,4.6,0,0,0,.2-.1.2,0,0-.2.2,0,.2.1,0,0,0,0,0,0,0-.2-.1-.3-.2-.3-.4-.2-.9,0-1.3.5-.8,1.1-1.7,1.6-2.5.5-.8,1-1.5,1.5-2.3l-1.3.3c.5.5,1.1,1,1.6,1.4.3.3,1.6-.2,1.3-.5-.5-.5-1.1-1-1.6-1.4-.3-.3-1.1,0-1.3.3-1,1.6-2.1,3.3-3.1,4.9-.3.5-.4,1.1,0,1.7.7,1,2.4.6,3-.3.5-.7.9-1.5,1.4-2.2.6-.9,1.1-1.8,1.7-2.7.2-.3-.2-.4-.4-.4s-.8.1-.9.4h0Z"/>
    </g>
    <g>
      <path class="st4" d="M624.2,903.7c-.2.4-.6.5-1,.5-.2,0-.3,0-.5-.2-.5-.3-.6-1-.3-1.6l2.8-4.5c.5.5,1.1.9,1.6,1.4l-2.8,4.4h0Z"/>
      <path class="st8" d="M623.5,903.6s0,0-.1,0c0,0,0,0,0,0-.2,0-.3-.2-.4-.3-.2-.3-.1-.6,0-.9s.3-.5.5-.8c.6-1,1.2-2,1.9-3,.2-.3.3-.5.5-.8-.4.1-.8.2-1.2.3.5.5,1.1.9,1.6,1.4v-.5c-1,1.5-2,2.9-2.9,4.4-.2.3.2.5.4.6.3,0,.7-.1.9-.4.9-1.5,1.8-2.9,2.8-4.4.1-.2,0-.3-.1-.5-.5-.5-1.1-.9-1.6-1.4-.3-.3-1,0-1.2.3-.5.8-1.1,1.7-1.6,2.6-.3.5-.7,1-1,1.6-.3.4-.5.8-.5,1.4,0,.7.6,1.2,1.3,1.3.8.1,1.5-.2,2-.9.2-.3-.2-.5-.4-.6-.4,0-.7.1-.9.4h0Z"/>
    </g>
    <g>
      <path class="st4" d="M629.2,907.3c-.2.4-.6.5-1,.5-.2,0-.3,0-.5-.2-.5-.3-.6-1-.3-1.6l2.7-4.2c.6.4,1.1.9,1.7,1.3l-2.6,4.2h0Z"/>
      <path class="st8" d="M628.6,907.4s-.2.2-.2.2c0,0,.4,0,.3,0,0,0-.2,0-.3-.2s-.2-.2-.2-.2c-.2-.4-.2-.8,0-1.1.1-.2.3-.4.4-.6.6-.9,1.2-1.9,1.8-2.8.2-.3.3-.5.5-.8l-1.3.4c.6.4,1.1.9,1.7,1.3h0c-.9,1.2-1.8,2.6-2.6,4-.2.2.5.2.6.2.3,0,.6-.2.8-.4.9-1.4,1.8-2.8,2.6-4.2,0,0,0,0,0-.1-.6-.4-1.1-.9-1.7-1.3-.2-.1-.5,0-.7,0-.2,0-.5.2-.6.4-.5.8-1,1.6-1.5,2.4l-.9,1.5c-.3.4-.5.8-.4,1.3.3,1.4,2.5,1.1,3.2.1.2-.2-.2-.3-.3-.3-.3,0-.8,0-.9.3h0Z"/>
    </g>
    <g>
      <path class="st38" d="M533.2,907.8h0s0,0,0,0h0Z"/>
      <path class="st8" d="M533,907.5h0c.3,0,.7,0,1,.1h0s-1.2.5-1.2.5c0,0,0,0,0,0,0,0,.1,0,.2,0,0,0,.2,0,.2,0,0,0,.2,0,.3,0,0,0,.2,0,.2-.1h.1c0-.2.1-.2.1-.3h0c0-.2,0-.2-.1-.3,0,0,0,0,0,0h-.1c0,0-.2,0-.2,0,0,0-.1,0-.2,0,0,0-.2,0-.3,0h-.2c0,0-.1.2-.1.2,0,0,0,0-.1.2,0,0,0,0,0,.2h0c0,0,0,.1.1.2,0,0,.1,0,.2,0,0,0,.2,0,.2,0,.1,0,.2,0,.4,0h0c0,0,.2,0,.2-.1,0,0,.1,0,.2-.2,0,0,0,0,0-.2s0,0,0-.1h0c0-.1-.2-.1-.3-.1h-.2c-.1,0-.2,0-.4.1h0Z"/>
    </g>
  </g>
  <g>
    <g>
      <path class="st21" d="M618.9,947.9s2-9.3-5.5-13c-7.5-3.7-24.6-9.9-37.2-17.2-17.4-10.1-27.4-24.8-35.2-25.7-8-.9-6.8,12.9-24.3,12.8-17.3-.1-30-10.2-30.8-10.5-4,2.3-12,30.4-7.5,37.7s46.5,11.9,46.5,11.9l33.5,8.3,33.7,2.5,26.8-6.7h0Z"/>
      <path class="st14" d="M620.4,947.8c.4-1.9.3-4.1,0-6-.8-3.8-3.2-6.5-6.6-8.1-8.4-4-17.1-7.2-25.5-11.2-4.9-2.3-9.7-4.8-14.2-7.7s-8.5-6.1-12.5-9.5c-3.3-2.8-6.4-5.8-9.8-8.6-2.4-2-5-4.1-8-5.2-2.3-.9-4.8-.9-7,.3-2,1.2-3.4,3.1-4.9,4.9-1.8,2.1-3.7,4-6.2,5.2-3.9,1.9-8.5,1.9-12.7,1.5-8.2-.8-16.2-3.9-23.1-8.2-1.5-.9-3.3-2.9-5.1-1.6-1.6,1.2-2.6,3.5-3.4,5.3-2.8,6.4-4.5,13.5-5.4,20.5-.4,3.1-.6,6.3-.2,9.5.3,2.1,1,3.9,2.7,5.2,1.8,1.4,4,2.3,6.1,3,2.9,1,5.9,1.8,8.9,2.6,6.5,1.6,13.2,2.7,19.8,3.7,2.5.4,4.9.7,7.4,1,1.2.2,2.3.4,3.5.4.3,0-.3,0-.2,0,.1,0,.3,0,.4,0,.6.2,1.2.3,1.9.5,2.3.6,4.7,1.2,7,1.7,6,1.5,12,3,18,4.4,2.5.6,5,1.5,7.5,1.7,10.4.8,20.8,1.5,31.2,2.3.9,0,1.8.2,2.7,0,1.8-.4,3.7-.9,5.5-1.4,5.8-1.4,11.6-2.9,17.4-4.3,1.2-.3,2.4-.6,3.6-.9,1.8-.5,1.2-2.5-.5-2-5.7,1.4-11.3,2.8-17,4.2-2.9.7-5.9,1.5-8.8,2.2-.3,0-.6,0-.8.2-.5.2,1,0,.5,0-.6-.2-1.4,0-2-.2-7.1-.5-14.1-1-21.2-1.6l-8.9-.7c-.5,0-1-.1-1.5-.1.5,0,.3,0,0,0-.3,0-.6-.2-1-.2-6.5-1.6-13.1-3.2-19.6-4.8-3.2-.8-6.5-1.6-9.7-2.4-1.2-.3-2.3-.7-3.5-.8-5.3-.8-10.7-1.4-16-2.3-7.9-1.3-16.1-2.7-23.6-5.6-2.1-.8-4.8-1.8-5.9-3.7-1.6-2.8-1.2-6.9-.9-10,.4-4.5,1.4-9,2.5-13.3,1-3.7,2.2-7.5,4-10.8.3-.5.5-.9.9-1.4.4-.5.3-.4.7-.7l-1.8.3c-.5-.2.4.3.5.4.6.4,1.1.8,1.7,1.1,1.9,1.2,3.8,2.3,5.8,3.3,5.8,2.9,12.2,4.9,18.7,5.6,6,.6,12.4.3,17.5-3.2,3.1-2.1,5-5.2,7.6-7.8.3-.3,1-.9,1.3-1.1.6-.3.9-.4,1.5-.4,1.5,0,3.2.7,4.6,1.6,4.7,2.8,8.6,6.9,12.7,10.5,5.6,4.9,11.4,9.6,17.8,13.3,6.5,3.8,13.5,7,20.4,10,5.6,2.5,11.4,4.7,16.9,7.3,4.3,2.1,5.8,6.7,5.3,11.3,0,.3,0,.6-.1.9-.3,1.5,2.7,1.1,2.9-.2h0Z"/>
    </g>
    <path class="st14" d="M510.4,941.6c.4-5.5.1-13.4-5.4-16.5-6.4-3.6-15.2-4.6-19.7-10.9-2.8-3.9-2.7-8.8-1.9-13.4.1-.7-1.3-.5-1.4.1-.7,4-.9,8.1.8,11.8,1.4,2.9,3.7,5,6.4,6.6,3.3,2,7,3.3,10.5,4.8,1.9.8,4.1,1.4,5.6,2.9,1.2,1.1,2,2.6,2.6,4.1,1.2,3.4,1.3,7.1,1,10.7,0,.7,1.4.5,1.4-.1h0Z"/>
    <path class="st14" d="M483.6,896.5c5.4,4.4,11.2,7.9,18,9.5,4.2,1,8.6,1.2,13,1.2,3.5,0,7-.2,10.4-.8,5.9-1,11.9-4.3,17.9-3.3,4.2.7,8.1,3.2,11.6,5.6,4,2.8,7.8,5.8,11.7,8.6,2.2,1.6,4.4,3.1,6.7,4.6.9.5,1.3.8,2.3.7,2.8-.3,3.5-2.7,3.1-5.3,0-.4-1.5,0-1.4.4.2,1.2.2,4.8-1.8,4.2-.5-.1-1-.6-1.4-.9-.5-.3-.9-.6-1.4-.9-1-.6-1.9-1.3-2.9-2-1.8-1.3-3.6-2.6-5.4-4-3.6-2.7-7.1-5.4-10.8-7.8-3-1.9-6.2-3.6-9.8-4-5.7-.7-11,1.9-16.4,3.1-2.9.7-5.9.9-8.8,1.1-4.3.2-8.7.2-12.9-.5-7.7-1.3-14.3-5-20.2-9.9-.4-.3-1.6.2-1.3.5h0Z"/>
    <path class="st14" d="M535.9,946c-2.3-.6-4.7-1.2-7-1.7v.5c3.7-3.5,8.2-6,13.1-7.2,5.8-1.4,11.8-.8,17.7-.8,5.5,0,11.1,0,16.6-.4,4-.3,8.3-.6,12-2.2,1.2-.5,2.5-1.3,3.3-2.4,1.4-2.1.4-5-.6-7.1-.2-.5-1.6,0-1.4.4.9,1.9,2,4.7.6,6.7-.8,1.1-2.2,1.8-3.5,2.2-4.1,1.4-8.6,1.6-12.9,1.8-5.7.3-11.4.2-17.1.2-5.3,0-10.6-.3-15.7,1.1s-9.5,3.9-13.1,7.5c-.2.2-.2.5.1.5,2.3.6,4.7,1.2,7,1.7.5.1,1.6-.6.8-.8h0Z"/>
    <g>
      <path class="st38" d="M531.1,945.1l.2.2h-.3c0,0,0-.2.1-.2h0Z"/>
      <path class="st8" d="M530.5,945.4c0,0,0,.1.1.2h0s1.2-.5,1.2-.5h-.2c0,0,0,0,0,0,0,.1,0,.2,0,.4,0,0,.1,0,.2-.2,0,0,0,0,0,0h0c0,0,0,0,.1,0,0,0,0,0,0-.1,0,0,0,0,0,0,0,0-.1,0-.2,0h-.2c-.1,0-.2,0-.4,0h-.2c0,0-.2.2-.3.2,0,0-.1,0-.2.2,0,0,0,0,0,0h0c0,0,0,0,0,0s0,0,0,.1c0,0,0,0,0,0,0,0,0,0,.1,0h.2c0,0,0,0,0,0,0,0,.1,0,.2,0s.2,0,.2,0h.2c0,0,.2,0,.3-.1,0,0,0,0,.1,0,0,0,.1,0,.2-.1h0c0-.2,0-.2,0-.2,0,0,0-.1-.1-.2h0s0,0-.2,0c0,0-.1,0-.2,0,0,0-.2,0-.3,0,0,0-.2,0-.3,0h-.2c0,.1-.2.2-.2.2h0c0,.2,0,.2,0,.2Z"/>
    </g>
    <g>
      <path class="st38" d="M519.5,940.5h1.4c0,1.2,0,2.2,0,2.8-.4,0-.9-.1-1.4-.2,0-.6,0-1.5,0-2.6h0Z"/>
      <path class="st8" d="M519.2,940.9c.5,0,.9,0,1.4,0l-.4-.3c0,.9,0,1.9,0,2.8l1-.6c-.5,0-1-.1-1.4-.2l.4.2c0-.8,0-1.6,0-2.5,0-.3-.4-.4-.6-.3-.2,0-.4,0-.5.2,0,0-.2.2-.3.3,0,.9,0,1.8,0,2.7,0,.2.3.2.4.2.5,0,1,.1,1.4.2.3,0,1-.2,1-.6,0-.4,0-.7,0-1.1,0-.1,0-.2,0-.3,0,0,0,0,0,0h0v-1.1c0-.2-.2-.3-.4-.3-.5,0-.9,0-1.4,0-.2,0-.4,0-.5,0-.1,0-.3.2-.4.3-.2.3.1.5.4.5h0Z"/>
    </g>
    <g>
      <path class="st38" d="M513.3,938.6c0,1.1,0,2.3-.1,3.5h-.2c-.4,0-.8-.1-1.2-.2,0-1.1.1-2.2.1-3.3h1.4Z"/>
      <path class="st8" d="M512.6,938.7c0,1.2,0,2.3-.1,3.5l1-.5c0,0-.1,0-.2,0-.1,0,.2,0,0,0,0,0-.1,0-.2,0-.3,0-.6,0-.9-.1l.3.3c0-1.1.1-2.2.1-3.3l-1,.5c.5,0,.9,0,1.4,0,.3,0,.7,0,.9-.4.2-.3-.1-.4-.4-.4-.5,0-.9,0-1.4,0-.2,0-.4,0-.6.2-.1,0-.3.2-.3.3,0,1.1,0,2.2-.1,3.3,0,.2.1.3.3.3.5,0,1,.2,1.5.2.2,0,.4,0,.6-.2.1,0,.3-.2.3-.3,0-1.2.1-2.3.1-3.5s-.4-.4-.6-.3c-.2,0-.4,0-.5.2,0,0-.3.2-.3.3h0Z"/>
    </g>
    <g>
      <path class="st4" d="M477.3,937s-.4-4.7.4-4.6l.3-1.3c5.1.8,22.6,3.7,33.4,6,3.3.7,7.4,1.9,12.1,3.3,11,3.2,26.1,7.5,42.2,9.3,2.9.3,5.7.6,8.5.7,23,1.3,42.2-2.4,46.3-3.3v1.3c.8-.1,1.1-.2,1.1-.2,0,0,.3,1.8.5,3.5h0c0,.2,0,.3,0,.4,0,.6.2,1.1.2,1.5-11.6,6.5-60.5,4.9-71.5,1.1-.7-.2-1.4-.5-2.2-.7-.3,0-.7-.2-1-.3-.5-.2-1-.3-1.6-.5-11.7-3.6-29.2-7.8-29.2-7.8,0,0,0,1.9,0,4h0c0,1-.1,2-.2,2.9-20.7-.8-39.8-5.3-39.8-5.3l.4-10.2h0Z"/>
      <path class="st8" d="M478,936.8c0-.6,0-1.2,0-1.9s0-.9,0-1.4c0-.2,0-.3,0-.5,0-.5.5-.3-.4-.2.3,0,.7-.2.8-.5l.3-1.3-1.1.5c7.9,1.3,15.7,2.6,23.5,4.1,4.5.8,9,1.7,13.4,2.8,5,1.3,10.1,2.8,15.1,4.2,11,3.1,22.1,5.7,33.4,7.2,11.6,1.5,23.4,1.6,35.1.8,7.5-.6,15-1.5,22.4-3l-.8-.2v1.3c.2.3.8.2.9.2.3,0,.7-.1,1-.2l-.8-.2c.2,1.2.4,2.3.5,3.5,0,.4.8.2,1,.1h0c-.3,0-.7,0-1-.1,0,.7.2,1.3.3,2l.2-.4c-2,1.1-4.4,1.7-6.7,2.2-3.2.7-6.6,1.1-9.9,1.4-7.9.7-15.8.8-23.7.6-7.2-.2-14.5-.5-21.7-1.5-2.5-.3-4.9-.7-7.3-1.3-4.1-1.1-8.1-2.5-12.2-3.7-7.7-2.2-15.4-4.2-23.1-6-.3,0-1.1,0-1.1.5,0,1.3,0,2.7,0,4,0,.2.2.3.4.3h0c-.1-.1-.3-.2-.4-.3,0,1-.1,1.9-.2,2.9l1-.5c-13.3-.5-26.7-2.3-39.6-5.3l.3.3.4-10.2c0-.6-1.4-.4-1.4.2-.1,3.4-.3,6.8-.4,10.2,0,.2.1.3.3.3,8.7,2,17.6,3.4,26.5,4.3,4.5.5,8.9.8,13.4,1,.3,0,.9-.1,1-.5,0-1,.1-1.9.2-2.9,0-.2-.2-.3-.4-.3h0c.1.1.3.2.4.3,0-1.3,0-2.7,0-4l-1.1.5c6.8,1.6,13.5,3.4,20.2,5.2,4.8,1.3,9.5,2.8,14.2,4.2,2.2.7,4.5,1,6.8,1.4,7.1,1,14.4,1.5,21.6,1.7,8.1.2,16.2.2,24.2-.5,3.8-.3,7.7-.7,11.5-1.5,2.7-.5,5.4-1.2,7.8-2.5.2,0,.3-.2.2-.4,0-.7-.2-1.3-.3-2,0-.4-.8-.2-1-.1h0c.3,0,.7,0,1,.1-.2-1.2-.4-2.3-.5-3.5,0-.3-.6-.2-.8-.2-.3,0-.6.1-1,.2l.8.2v-1.3c-.2-.3-.8-.2-.9-.2-6.2,1.3-12.5,2.1-18.8,2.7-11.4,1-22.9,1.2-34.2,0-11.6-1.2-23-3.8-34.3-6.9-9.4-2.6-18.7-5.4-28.2-7.3-8.8-1.7-17.6-3.2-26.4-4.6-.4,0-1,0-1.1.5l-.3,1.3.8-.5c-2,0-1.3,4-1.2,5.2,0,.5,1.4.2,1.4-.4h0Z"/>
    </g>
    <g>
      <path class="st4" d="M545.8,900.4c-.2.4-.6.5-1,.5-.2,0-.3,0-.5-.2-.5-.3-.6-1-.3-1.6l3.6-5.8c.6.4,1.1.8,1.7,1.3l-3.6,5.8h0Z"/>
      <path class="st8" d="M545.1,900.5s-.1.2-.2.2h.2c.2,0,.2-.1,0-.2-.1,0-.2-.2-.3-.3-.2-.2-.2-.5-.2-.8,0-.2.1-.4.2-.5.2-.4.5-.8.7-1.2l2.3-3.6.6-.9-1.3.4c.6.4,1.2.8,1.7,1.3h0c-1.1,1.6-2.1,3.3-3.2,5-.2.2-.3.5-.5.7-.1.2.5.1.6.1.3,0,.7-.1.8-.4,1.1-1.7,2.1-3.4,3.2-5.1.2-.2.3-.5.5-.7,0,0,0,0,0-.1-.6-.4-1.1-.9-1.7-1.3-.3-.2-1.2,0-1.3.4-.6,1-1.3,2-1.9,3-.4.7-.8,1.3-1.3,2-.2.3-.5.7-.6,1.1-.2.7.3,1.4,1,1.5.8.1,1.8-.2,2.2-.9.1-.2-.5-.1-.6-.1-.3,0-.7.1-.8.4h0Z"/>
    </g>
    <g>
      <path class="st4" d="M550.8,904c-.2.4-.6.5-1,.5-.2,0-.3,0-.5-.2-.5-.3-.6-1-.3-1.6l3.5-5.6c.5.5,1.1.9,1.6,1.4l-3.4,5.4h0Z"/>
      <path class="st8" d="M550.2,904.1s-.1.1-.1.2h0c0,0,0,0,.2,0,0,0-.3-.2-.3-.2-.2-.2-.3-.4-.3-.6s0-.5.2-.7c.2-.4.5-.7.7-1.1.7-1.2,1.5-2.3,2.2-3.5.2-.3.4-.6.6-.9l-1.3.3c.5.5,1.1.9,1.6,1.4v-.3c-1,1.6-2,3.1-3,4.7l-.4.7c-.2.3.2.4.4.4s.8,0,.9-.4c1-1.6,2-3.1,3-4.7.1-.2.3-.5.4-.7,0,0,0-.2,0-.3-.5-.5-1.1-1-1.6-1.4-.3-.2-1.1,0-1.3.3-.6,1-1.2,2-1.8,2.9l-1.2,1.9c-.2.3-.5.8-.6,1.2-.2.7.2,1.4.9,1.6.8.2,1.8-.1,2.3-.8.2-.3-.2-.4-.4-.4-.3,0-.7.1-.9.4h0Z"/>
    </g>
    <g>
      <path class="st4" d="M558.9,902.8l-3,4.8c-.2.4-.6.5-1,.5-.2,0-.3,0-.5-.2-.5-.3-.6-1-.3-1.6l3.2-5c.5.5,1.1,1,1.6,1.4h0Z"/>
      <path class="st8" d="M558.3,902.6c-1,1.5-1.9,3.1-2.9,4.6-.2.2-.3.6-.5.3s-.2-.3-.2-.4c0,0,0-.2,0-.3,0,0,.1-.3,0-.2,0,0,0-.1.1-.2.5-.8,1.1-1.7,1.6-2.5.5-.8,1-1.5,1.5-2.3l-1.1.2c.5.5,1.1,1,1.6,1.4.5.4,1.7-.3,1.1-.8-.5-.5-1.1-1-1.6-1.4-.3-.2-.9-.1-1.1.2-1,1.6-2.1,3.3-3.1,4.9-.4.6-.5,1.2-.2,1.9.6,1.1,2.3.9,3,0,.5-.7.9-1.5,1.4-2.2.6-.9,1.1-1.8,1.7-2.7.5-.8-.8-1-1.2-.5h0Z"/>
    </g>
    <g>
      <path class="st4" d="M560.8,911.3c-.2.4-.6.5-1,.5-.2,0-.3,0-.5-.2-.5-.3-.6-1-.3-1.6l2.8-4.5c.5.5,1.1.9,1.6,1.4l-2.8,4.4h0Z"/>
      <path class="st8" d="M560.2,911.3s0,0,0,.1c0,0-.1,0,0,0,.1,0,.1,0,0,0-.2-.1-.3-.2-.4-.4-.1-.3-.1-.7,0-.9.2-.3.3-.5.5-.8.6-1,1.2-2,1.9-3,.2-.3.3-.5.5-.8l-1.3.3c.5.5,1.1.9,1.6,1.4v-.3c-.9,1.5-1.8,2.9-2.8,4.4-.2.3.2.4.4.4s.8-.1.9-.4c.9-1.5,1.8-2.9,2.8-4.4,0,0,0-.2,0-.3-.5-.5-1.1-.9-1.6-1.4-.3-.3-1.1,0-1.3.3-.5.8-1.1,1.7-1.6,2.6-.3.5-.7,1-1,1.6-.3.4-.5.8-.5,1.3.1,1.7,2.5,1.4,3.2.3.2-.3-.2-.4-.4-.4-.3,0-.7.1-.9.4h0Z"/>
    </g>
    <g>
      <path class="st4" d="M565.8,914.9c-.2.4-.6.5-1,.5-.2,0-.3,0-.5-.2-.5-.3-.6-1-.3-1.6l2.7-4.2c.6.4,1.1.9,1.7,1.3l-2.6,4.2h0Z"/>
      <path class="st8" d="M565.2,915.1s-.2.2-.2.2c0,0,.5,0,.4-.1,0,0-.1,0-.2,0-.2,0-.3-.3-.4-.5-.2-.3-.1-.8,0-1.1.1-.2.3-.4.4-.7.6-.9,1.2-1.9,1.8-2.8.2-.2.3-.5.5-.8l-1.3.4c.6.4,1.1.9,1.7,1.3h0c-.9,1.3-1.8,2.7-2.6,4.1-.1.2.5.1.5.1.2,0,.7-.1.8-.4.9-1.4,1.8-2.8,2.6-4.2,0,0,0,0,0,0-.6-.4-1.1-.9-1.7-1.3-.2-.1-.5,0-.7,0-.2,0-.5.1-.6.3-.5.8-1,1.7-1.5,2.5-.3.5-.6,1-.9,1.5-.3.4-.5.8-.3,1.3.4,1.4,2.6.9,3.2,0,.1-.2-.5-.1-.5-.1-.2,0-.7.1-.8.4h0Z"/>
    </g>
  </g>
  <polygon class="st3" points="609 711 634.7 711 622.4 775 599.3 775 609 711"/>
  <g id="freepik--Character--inject-2">
    <path class="st31" d="M554.5,390.7l-15.3-76.1s10.8-11.4-4.9-18c-8-3.3-31-15-35.9-16.7,1.1,6.5,2.9,16.6-1.7,20-6.4,4.8-11.7,4-19.6,4-7.6,0-17.9-5.2-25-7.9-13.3-5.1-26.8-17.1-29.6-31.8l-17.2,16.6s-43.1,25-49.7,27.5,15.3,157.3,15.3,157.3l-21,54.3c-1.7,6.9-21.1,28.7-6.5,69.5,0,0,139.9-1.9,155.1-1.7,17.7.2,54.8-7.7,59.5-16s-3.3-181-3.3-181h0Z"/>
  </g>
  <path class="st18" d="M613.4,645.7c1-4.2,2.2,10.9,3.5,6.9,3.1-9.1,7-17.9,11.5-26.4,4.7-8.7,10-17.1,15.9-24.9,4.1-5.3,8.4-10.5,13.1-15.3-85.7-24.7-282.2-35.9-282.2-35.9,0,0-59.8,38.2-31.8,102.7,8.4,19.3,27.9,17.9,55.8,19.1,66.1,2.7,164.6-2.6,213.1-12.7.3,0,.6-13.6,1-13.6h0Z"/>
  <path class="st18" d="M615.6,661c1.5-3.8,3.2-7.6,5.1-11.2,4.2-8.3,9.2-16.1,14.7-23.6,5.7-7.7,11.9-14.9,18.7-21.6,4.6-4.5,20.5,8,25.7,4-9.4-93.3-330.6-50.6-330.6-50.6,0,0-21.1-5.4-13.8,68.5,6.8,69.4,211.8,29.3,279.3,25.3.3,0,.6,9.2,1,9.2h0Z"/>
  <path class="st24" d="M475,401.1s.1,0,.2,0c0,.2.1.4,0,.6,0-.2,0-.4-.1-.6Z"/>
  <path class="st24" d="M483.9,458.7s0,0-.1,0"/>
  <path class="st12" d="M522,394c0,0-.1,0-.2,0,0,0,.1,0,.2-.1,0,0,0,0,0,.1h0Z"/>
  <path class="st12" d="M491.8,398.6c0,0,.1,0,.2-.1,0,0,0,0,0,.1,0,0-.2,0-.3,0h0Z"/>
  <path class="st12" d="M521.4,394.1c0,0-.2,0-.3,0,0-.1.2-.1.3,0Z"/>
  <path class="st31" d="M475.7,401c0,0,.1-.1.2,0,0,0-.2,0-.2,0Z"/>
  <path class="st18" d="M682.4,658.2c-17,48.6-54.6,169.1-78,227.9,0,0-64.5,3.3-69.3-11.5,0,0,1.8-298.7,41.3-304,29.1-3.9,75.5-7,90.6,5.3,18,14.8,28.9,44,15.5,82.3h0Z"/>
  <path class="st18" d="M650.9,625.6s-9.9-1.9-24-1.6c2.7-5.9,3.7-10.4,3.7-10.4-1.3-1.5-2.7-3-4.2-4.6-8.1,1.9-16,4.5-23.7,7.6-8.9,3.6-17.5,7.9-25.8,12.8-7.9,4.7-15.5,10.1-22.5,16-2,1.7-3.9,3.4-5.8,5.2.2,0-3.9-.5-3.7-.5-27.3,28.5-26.6,92.3-42.5,150.1-11.6,42.4-24.1,77-24.1,77,6.3,14.3,84.5,20.1,84.5,20.1,27.8-77,88-271.9,88-271.9h0Z"/>
  <path class="st32" d="M570.3,886c.4-1.1.8-2.2,1.1-3.3,1-3.1,2.1-6.2,3.2-9.3,1.6-4.8,3.2-9.5,4.8-14.3,2.1-6.2,4.2-12.3,6.2-18.5,2.5-7.2,4.9-14.5,7.3-21.7,2.7-8,5.4-16,8-24,2.8-8.5,5.7-17,8.5-25.5,2.9-8.7,5.8-17.4,8.6-26.1,2.8-8.6,5.6-17.1,8.4-25.7,2.7-8.1,5.3-16.2,7.9-24.3,2.4-7.4,4.8-14.8,7.1-22.2,2-6.4,4-12.8,5.9-19.2,1.5-5,3-10.1,4.5-15.2,1-3.4,1.9-6.8,2.7-10.2,2.7-11.8,3-24.5-1-36.1-3.8-11.3-11.5-20.9-21.8-27-5.4-3.2-11.4-5.4-17.5-6.5-2.1-.4-4.2-.6-6.3-.8-5.8-.7-11.5-1.4-17.3-2.1l-24.8-3c-6.2-.8-12.5-1.5-18.7-2.2-.9-.1-1.9-.2-2.8-.3-.5,0-1.2,0-1.6.4-.3.3-.3.7.2.8,3.6.4,7.2.9,10.8,1.3,7.8.9,15.6,1.9,23.4,2.8,7.5.9,15.1,1.8,22.6,2.7,4.3.5,8.8.9,13.1,1.6,12.6,2.3,24.1,9.3,31.7,19.7,7,9.7,10,21.8,9.7,33.6-.2,7-1.5,13.8-3.2,20.6-1.2,4.4-2.4,8.7-3.7,13.1-1.7,5.8-3.5,11.6-5.3,17.4-2.2,7-4.4,13.9-6.6,20.9-2.5,7.8-5,15.6-7.6,23.5-2.7,8.3-5.4,16.7-8.2,25-2.8,8.6-5.7,17.3-8.5,25.9-2.8,8.6-5.7,17.2-8.6,25.8-2.8,8.2-5.5,16.5-8.3,24.7-2.6,7.6-5.1,15.2-7.7,22.8-2.2,6.7-4.5,13.3-6.8,20-1.8,5.4-3.7,10.9-5.5,16.3-1.3,3.9-2.7,7.8-4,11.7-.7,2.1-1.4,4.2-2.1,6.2,0,.3-.2.5-.3.8-.2.7,2,.4,2.3-.3h0Z"/>
  <path class="st31" d="M333,590.7s20-13.5,36.2-18.9c62.5-21.2,184.6-43.7,184.6-43.7,0,0-200.5-13.1-208.5-6.5s-18.3,55.5-12.2,69.1h0Z"/>
  <path class="st31" d="M338.9,484.6c-7.6,1.1-8.3-.2-15.9,1.2-.7-5-1.1-9.8-1.3-14.5-.8-20,.5-114.2,10-145,4.4-33,90.7-62,90.7-62l-29.6,120.8-2.4,91.8c-12.8,3.5-38.4,6-51.6,7.8h0Z"/>
  <g>
    <polyline class="st31" points="391.9 485.2 536.8 509 536.1 517.9"/>
    <path class="st6" d="M391.7,485.7c4.8.8,9.6,1.6,14.5,2.4,11.5,1.9,23.1,3.8,34.6,5.7l41.9,6.9c12,2,24.1,4,36.1,5.9,4,.6,7.9,1.3,11.9,2,1.2.2,2.5.4,3.7.6.6.1,1.3.4,1.9.3,0,0,.2,0,.2,0l-.5-.5c-.2,2.9-.5,5.9-.7,8.9,0,.7,1.4.5,1.5-.1.2-3,.5-5.9.7-8.9,0-.3-.2-.4-.5-.5-4.8-.8-9.6-1.6-14.5-2.4-11.5-1.9-23.1-3.8-34.6-5.7-14-2.3-28-4.6-41.9-6.9-12-2-24.1-4-36.1-5.9l-11.9-2c-1.9-.3-3.8-.7-5.6-.9,0,0-.2,0-.2,0-.7-.1-1.5.9-.5,1h0Z"/>
  </g>
  <path class="st6" d="M381.7,313.3c5.3.8,8.6,5.9,10.6,10.4,2.5,5.5,3.9,11.4,4.8,17.3.6,3.9,1.1,7.9,1.1,11.9,0,3.3-.1,6.6-.3,9.9-.5,11.4-1.3,22.8-2,34.1-.9,14.5-1.8,29-2.7,43.4-.8,13.6-1.5,27.2-2,40.8,0,1.4,0,2.8-.1,4.3,0,.3,1.4,0,1.5-.4.4-13.3,1-26.6,1.8-39.9.8-14.7,1.8-29.5,2.7-44.2.8-12,1.5-24,2.1-36,.4-7.2.6-14.2-.3-21.4-.8-5.9-2-11.9-4.1-17.5-1.8-4.7-4.5-10-9.2-12.3-1-.5-2-.8-3.1-.9-.3,0-1.7.5-.9.6h0Z"/>
  <path class="st31" d="M324.1,423.6s-2.6,45.3-2.4,47.7c1,11.2-3.8,30.2,9.2,53.7,11.2,20.2,34.3,26.3,61.1,8.9,26.8-17.5-28.2-65.1-28.2-65.1l-39.8-45.1h0Z"/>
  <path class="st6" d="M392.3,484.8c-5.9.4-11.9,1.4-17.1,4.3-5.1,2.9-8.5,7.5-10.4,13-.1.4,1.3.3,1.4-.2,1.7-5.1,4.9-9.5,9.6-12.2,4.8-2.8,10.4-3.7,15.9-4.1.5,0,1.5-.8.6-.8h0Z"/>
  <g>
    <path class="st31" d="M339.7,535.8c5,8.6,21,11,34.6,14.2,48.2,11.4,111.6,6.2,157.3,3.3l4.3-30.3"/>
    <path class="st6" d="M339,536c2.6,4.3,7.4,6.7,12,8.4,5.8,2.2,11.9,3.4,17.9,4.8,6.2,1.4,12.5,2.8,18.8,3.9,6.4,1.1,12.7,1.9,19.1,2.5,27.4,2.7,55,2,82.4.6,14.1-.7,28.2-1.7,42.2-2.6.2,0,.8-.2.8-.5,1.3-8.9,2.5-17.7,3.8-26.6.2-1.2.4-2.5.5-3.8,0-.6-1.4-.3-1.5.2-1.3,8.9-2.5,17.7-3.8,26.6-.2,1.2-.4,2.5-.5,3.8l.8-.5c-25.7,1.7-51.5,3.5-77.3,3.8s-53.4-.9-79.3-6.9c-6.9-1.6-13.8-2.9-20.5-5.1-5.3-1.7-11.2-4.1-14.2-9.1-.2-.4-1.6,0-1.4.6h0Z"/>
  </g>
  <g>
    <path class="st31" d="M421.5,263.2s30.9,42,58,41c27.1-1.1,17.8-28.4,17.8-28.4h0l9.6,4.6s2.9,15.6-.5,21.6c-3.4,6-17.1,11-34.4,9.2-10.1-1.1-23.4-7.2-31.3-14.5-9.5-8.7-28.4-28.9-28.4-28.9l9.1-4.7h0Z"/>
    <path class="st2" d="M420.8,263.5c3,4.1,6.3,7.9,9.7,11.6,6.9,7.6,14.5,14.8,23,20.5,8.4,5.6,18.2,10.1,28.5,8.9,4.4-.5,8.9-1.9,12.2-5,2.5-2.4,4.1-5.5,4.8-8.9.6-3,.6-6.2.2-9.2-.1-1.1-.4-2.3-.6-3.4-.1-.6-.2-1.4-.5-2,0,0,0-.2,0-.3l-1.3.6c2.8,1.4,5.6,2.7,8.4,4.1.4.2.9.3,1.2.6,0,0-.1-.3-.1,0,0,.2,0,.3,0,.5.3,1.6.5,3.2.6,4.7.5,4.6,1,10-.6,14.5-1.4,4.1-5.8,6.4-9.6,7.8-6.2,2.3-13,3-19.6,2.8s-13.2-1.8-19.5-4.5c-6-2.6-11.8-6.1-16.7-10.5-3.6-3.3-7.1-6.8-10.5-10.3-3.6-3.7-7.2-7.4-10.8-11.2-1.3-1.4-2.7-2.8-4-4.2-.8-.8-1.5-1.8-2.3-2.5-.1,0-.2-.2-.3-.3l-.4.7c3-1.6,6.1-3.1,9.1-4.7.9-.5,0-1.2-.6-.8-3,1.6-6.1,3.1-9.1,4.7-.2.1-.6.5-.4.7,5.1,5.5,10.4,10.9,15.6,16.3,3.7,3.8,7.5,7.6,11.4,11.3,4.7,4.4,9.9,7.9,15.7,10.6,6.1,2.9,12.5,4.9,19.2,5.4,6.9.5,14,.1,20.8-1.8,4.3-1.2,9.2-3.2,12-7s2.5-9.1,2.3-13.5c-.1-2.2-.3-4.4-.6-6.6-.1-.7-.2-1.4-.3-2.1,0-.2,0-.6-.2-.8-.2-.2-.7-.4-1-.5l-2.4-1.2c-1.8-.9-3.5-1.7-5.3-2.6-.3-.2-.7-.3-1-.5-.4-.2-1.5,0-1.3.6,1.2,3.7,1.7,7.9,1.5,11.8-.2,3.2-1.1,6.5-3,9.2-2.4,3.4-6.2,5.3-10.2,6.1-10.1,2.1-20-1.8-28.5-7.2-8.5-5.5-16.1-12.4-23-19.8-2.6-2.8-5-5.6-7.4-8.5-1.2-1.5-2.3-3.1-3.5-4.5,0,0-.1-.1-.2-.2-.4-.5-1.8,0-1.3.6h0Z"/>
  </g>
  <path class="st32" d="M532.6,668.8c5.7-2.4,11.2-5.3,16.4-8.7.3-.2.7-.6.2-.9-.4-.3-1.2,0-1.6.2-5,3.3-10.3,6.1-15.9,8.4-.3.1-.9.5-.6.9s1.2.2,1.5,0h0Z"/>
  <path class="st39" d="M488.3,174.2c2.6.3,5.6-1,6.9-3.4s.8-5.3-1-7.2c-.4-.4-1.7.2-1.3.6,1.5,1.6,2.1,4.1,1.2,6.2-.9,2-3,3.2-5.1,3-.6,0-1.5.7-.5.9h0Z"/>
  <path class="st37" d="M495.9,229.8c-5.6.1-17.9,4.4-20.3,6.9,0,0,5.7,7.9,18.7,7.7s15.8-8.4,15.8-8.4c0,0-7.1-6.3-14.2-6.2h0Z"/>
  <path class="st20" d="M480.8,233.8s7.1-.8,12.8-.9c5.7-.1,12.8.3,12.8.3,0,0,.8-4.6-9.5-4.4s-16.1,5-16.1,5h0Z"/>
  <path class="st7" d="M495.9,242.1c-6.1-.9-13.3-6.1-20.3-5.4,0,0,3.1,12.1,18.4,11.8,15.3-.4,16.2-12.6,16.2-12.6-7.1-.4-8.1,5.1-14.2,6.2h0Z"/>
  <path class="st7" d="M502.4,226.1c-3.2-.2-5.2,1.2-6.6,1.3s-3.5-1.3-6.7-1c-3,.3-15.5,9.1-14.1,10.2,1.5,1.1,11.2-5.4,20.8-5.6,9.7-.2,13.3,5.9,14.7,4.8,1.4-1.1-5.1-9.5-8.1-9.7h0Z"/>
  <path class="st27" d="M475.5,230.7c-.9,0-1,0-.2-.1.3,0,.6-.1.9-.2.6-.2,1.3-.4,1.8-.8.3-.2,1.2-.7,1.2-1.1,0-.2-3.5-.2-1.8.2,2.8.7,5.4-1,7.4-2.6-1.1.4-2.1.9-3.2,1.3h.7c-.7-.2-1.5-.2-2.2-.3,1.6.7,2.9.8,4.7.3,2.4-.6,2.9-1.9,4.8-3.3-1.4.4-2.7.9-4.1,1.3.5,0,.6.7.8,1,.9,1.5,3.5.8,4.7.3h.1c.9-.4,2.7-1.4,1.9-2.6s-3.6-.3-4.5,0h-.1c1.6.2,3.1.3,4.7.4-1.2-2-1.9-2.7-4.4-2.7s-4.9,1.7-7,3.9c.9-.5,1.8-1,2.7-1.5l-.9.2h3.1c-3.4-1.5-5.5.2-8.4,1.7,1.1-.3,2.3-.6,3.4-.9-1.9-.1-3.2-.6-5.2.2s-2.9,1.9-3.9,3.8l1.3-1.3c.8-.4,1.9-.7.4-.3-.7.2-1.5.4-2.2.8-1.2.6-2,1.4-2.8,2.4-1.7,2.3,5.1,1.6,6.3,0h0Z"/>
  <path class="st27" d="M502.4,226.9c.3.2.7.3,1.1.3.8.1.7,0-.2-.2.4.5.7.9,1.3,1.2,1.7,1,3.1.2,4.9.2l-2.3-.6c-.6-.5.1.6.3.9.4.7.9,1.1,1.6,1.4.3.2.7.3,1.1.4.8.2.8.2,0-.2-.5-.5-.6-.5-.4.2,0,.3.1.6.2.8.1.6.9,1.3,1.5,1.4h.1c1.6.5,3.7.1,4.8-1.3.1-.2.2-.3.4-.5-1,.5-2.1,1-3.1,1.5h.2c-1-.6-2.1-1.1-3.1-1.7-.1-.7-.5.7-.6.9-1.3,3.8,5.5,3.8,6.5.9.4-1.2,1.2-2.2.9-3.6s-2-1.7-3.1-1.7c-1.6,0-2.8.8-3.7,2,1.6-.4,3.2-.9,4.8-1.3h-.1s1.5,1.4,1.5,1.4c-.2-.9-.3-2-1-2.7-.3-.4-.7-.6-1.1-.8-.3-.2-.7-.3-1.1-.4-.7,0-.8,0-.3,0,.5.7,0-.8-.2-1-.3-.5-1-.9-1.5-1.1-1.5-.6-2.8.1-4.2.1l2.3.6c-.7-.4-1-1.1-1.7-1.5s-1.1-.4-1.7-.5c-1.8-.4-3.3-.5-5.2-.1-1.4.3-3.1,1.7-2.8,3.3.4,1.7,2.7,1.8,4,1.5h0Z"/>
  <path class="st27" d="M492.8,224.8l-.2,3.5c0,.5-.4,1-.9,1.1-3.6.9-17.2,4.4-20.6,4.8,0,0,.5,1.3.4,1.3h-.8c-1.3,0-.9-4.3.3-4.9,3.4-1.8,6.5-3.2,8.4-3.9,2.4-.9,9.1-3,12.1-3.4.8,0,1.5.6,1.4,1.4Z"/>
  <path class="st27" d="M499,223.3l-.6,3.1c0,.5.3,1,.8,1.2,3.2,1.2,12,5.1,15,5.7,0,0,.1,0,.2,0h1c1.2,0,1.1-2.6,0-3.3-3-2.1-3.1-3.1-4.8-4-2.1-1.1-7.6-3.4-10.4-4-.7-.1-1.4.4-1.4,1.2h0Z"/>
  <g>
    <path class="st28" d="M611.3,491h0c0,0-13.9-4.6-13.9-4.6,0,0,0,0,0,0h0c.7-2.8,1.4-5.5,2.1-8.1.7-2.7,1.4-5.2,2.3-7.8,2-5.8,3.7-11.7,6-17.4.8-2,1.5-4,2.2-5.9,0-.1,0-.2.1-.3,1.5-2.8,2.4-5.8,3.7-8.7l2.2-4.6,2-4.1c1,.3,2.1.7,3.1,1l8,2.8.4.2c-.8,3.7-1.6,7.5-2.5,11.2l-4,17.9c-.4,1.6-.7,3.2-1.1,4.8-.7,2.5-.4,5.2.8,7.6.7,1.4,1.6,2.8,2.3,4.2.9,1.7,1.1,3.6.5,5.5-1.1,3.4-2.3,6.8-3.5,10.1h-.6c0-.2-.1-.2-.2-.2h0l-2.9-1h0"/>
    <path class="st23" d="M618.2,493.5l2.9,1h.2c0,0,.4.2.4.2h.2c0,.3,0,.5-.2.7-5.2,15.5-10.5,31-15.7,46.5,0,.2-.1.3-.2.5l-13.8-4.6-.3-.2c0-.4,0-.8,0-1.2-.1-.7-.2-1.4-.2-2.1,0-1.5-.1-3.1-.2-4.7,0-2.2,0-4.3,0-6.4.2-3.8.5-7.5,1-11.3.1-.9,0-1.9.3-2.9.3-1.5.5-3.1.8-4.7.5-2.5.9-5.1,1.4-7.6.3-1.5.6-3,1-4.5.4-2,.8-4,1.4-6l13.9,4.7"/>
    <path class="st23" d="M597.3,486.4c-.6,2-1,3.9-1.4,6-.4,1.5-.7,3-1,4.5-.5,2.5-.9,5.1-1.4,7.6-.3,1.6-.5,3.1-.8,4.7-.2.9-.2,1.9-.3,2.9-.5,3.7-.8,7.5-1,11.3-.1,2.1-.2,4.3,0,6.4,0,1.5.1,3.1.2,4.7,0,.7,0,1.4.2,2.1,0,.4,0,.8,0,1.2-.3,0-.5-.2-.8-.2l-23.1-7.8-.7-.2v-.3c0-.2,0-.3.1-.5l15.5-45.8c0-.2.1-.3.2-.5s.2-.3.3-.4h.4c0,.1.2.2.2.2l13.1,4.4h.2c0,0,0,0,0,.1h0Z"/>
    <path class="st28" d="M567.2,529.2l.7.2,23.1,7.8c.3,0,.5.2.8.2l.3.2c0,1.1,0,2.2.3,3.2.4,2.4,1,4.8,1.8,7.1.6,1.5,1.3,3,2.2,4.4,1.1,1.8,2.7,3.2,4.7,3.9-.4,2.3-2.6,3.5-5,2.7-10.5-3.6-21-7.1-31.6-10.7-2.2-.8-3.1-2.5-2.4-4.7,1.6-4.8,3.2-9.6,4.9-14.4,0,0,0,0,.1,0h0Z"/>
    <path class="st28" d="M597,486.3l-13.1-4.4c0,0,0-.1-.2,0,0,0,0,0,0,0h-.4c0-.1,0-.2-.1-.2,1.1-3.3,2.2-6.6,3.4-10,.8-2.3,2.7-4.1,5-4.8,1.2-.5,2.4-1,3.6-1.6,2.3-1.3,4.1-3.3,5-5.8,4-8.7,8-17.3,12-26,.8-1.7,1.6-3.4,2.3-5.1,1.1.2,2.3.5,3.3,1l-2,4.1-2.2,4.6c-1.3,2.9-2.3,5.9-3.7,8.7,0,.1,0,.2-.1.3-.7,2-1.4,4-2.2,5.9-2.3,5.7-4,11.6-6,17.4-.9,2.5-1.6,5.1-2.3,7.8-.7,2.6-1.4,5.4-2.1,8h-.2Z"/>
    <path class="st28" d="M601.1,556.3c-2-.8-3.6-2.2-4.7-3.9-.9-1.4-1.7-2.9-2.2-4.4-.8-2.3-1.5-4.7-1.8-7.1-.3-1.1-.3-2.2-.3-3.2l13.8,4.6-4.8,14.1h0Z"/>
    <path class="st15" d="M617.8,429.4c-1.1-.5-2.2-.8-3.3-1-.3-.2-.7-.4-1-.5-.4-.1-.6-.4-.4-.8.3-1,.6-1.9,1-2.9.3-1.1,1.5-1.6,2.5-1.3,0,0,0,0,.1,0,4.8,1.6,9.5,3.2,14.3,4.8,1.1.3,1.7,1.4,1.4,2.5,0,0,0,.1,0,.2-.3.9-.6,1.7-.9,2.6-.2.6-.5.8-1.1.5-.3-.1-.6-.2-1-.3h-.4c0-.1-8-2.9-8-2.9-1-.4-2-.6-3.1-1h0Z"/>
  </g>
  <path class="st17" d="M618.9,521.4c-7,2.5-16.3,5.7-17.5,5.2-1.2-.5-9.5-2.6-16.8-4.3-3.8-.7-6.2-4.3-5.5-7.9.2-.9,18.5-1.8,17.6-9.9l-15.5-2.4c-5.1,0-10.3.5-15.2,1.7-6.1,1.8-21.4,12.5-21.4,12.5l-10.2-.6-3.3,32.3,10.2.8,18,6.2s35.8,7.6,40.6,5.6,11.5-11.4,11.5-11.4c6.8-1.7,9-10.8,9-10.8,10.2-6.3,3-9.3,3-9.3.4-.1.8-.4,1-.7,2.9-3.4-1.3-8.5-5.5-6.9h0Z"/>
  <path class="st39" d="M617.7,531.7c-4,2.7-8.6,4.5-13.5,5.3-5,.3-10-.4-14.7-2-1-.4-2.1-.7-3.2-1,0,.4.1.7.2,1.1.9.4,1.8.8,2.8,1,4.8,2,10,2.9,15.2,2.6,5.1-.8,9.9-2.8,14-5.9,1.8-1.1,3.3-2.4,4.7-4-1.9.8-3.7,1.8-5.3,3h0Z"/>
  <path class="st39" d="M615,540.2c-1.6.7-3.5,1.5-5.6,2.4-2.2,1.1-4.5,1.9-6.9,2.5-2.4.4-4.9.4-7.4-.1-2-.3-4-.8-6-1.3-.5-.2-1-.3-1.5-.4,0,.3,0,.7.1,1,.4.1.8.3,1.1.4,2,.7,4.1,1.3,6.1,1.7,2.6.6,5.3.7,7.9.3,2.5-.7,4.9-1.6,7.2-2.8l5.5-2.7c1.8-.7,3.4-1.7,4.8-2.9-1.9.4-3.7,1-5.4,1.9h0Z"/>
  <path class="st39" d="M607.7,550.9c-1.3.7-2.6,1.3-3.9,1.8-.8.3-1.6.6-2.4.8-.8.3-1.6.4-2.4.3-4-.6-7.5-1-10-1.3-.2,0-.3,0-.5,0,0,.4,0,.7,0,1.1,2.6.6,6.2,1.2,10.2,1.8,1.1.1,2.2,0,3.2-.4.9-.3,1.7-.6,2.5-1,1.4-.6,2.7-1.3,4-2.2,2.1-1.5,3.1-2.7,2.9-2.9s-1.4.8-3.6,1.9h0Z"/>
  <g>
    <path class="st29" d="M517.9,251.8c.4-.8.7-1.9.8-3.1,1.7-5.6,2-4.4,2.5-9.1-3.1,9.9-7.7,19.5-10.2,21.4,0,0-.6.2-1.3.3,0,0-.1,0-.2,0-.9-.1-2,.4-2.6,0-.7-.4.4-1.3,0-1.9-.3-.4-1-.4-1.5-.6-.6-.2-.9-.8-1.4-1-.6-.3-1.5-.3-2.1,0-.8,0-1.7.5-2,0,0-.1,0-.3,0-.4,0-.6-.6-1.1-1.3-1.2-.7-.1-1.6.1-2.1.6-.5.5-.6,1.1-1.1,1.5-.2.1-.4.3-.6.4-.2-.1-.5-.3-.8-.3-.7-.1-1.6.1-2.1.6-.5.5-.6,1.1-1.1,1.5-.4.4-1.1.6-1.3,1.1-.3.7,1,1.5.5,2.1-.5.6-1.8.2-2.6.6-.1,0-.2.2-.3.3-4.7-.2-14.2-.8-14.4-.8l-6.6-2.8c-1.1-.6-26.3-19.9-26.3-19.9-.4-.7-5-5.3-5.2-6,0,0-.1,0-.2-.1,0,0,0,0-.2,0,0,0,0,.1,0,.1,0,.3,0,.6,0,.9.1,1.2.4,2.4.8,3.6.6,1.8,1.1,3.6,1.6,5.4.2.6.4,1.2.7,1.9.5.3,1.5,1.2,3,2.6.2.4.5.7.9.9.4.4.8.8,1.2,1.2-.2,1.8,1.6,3.7,3.4,3.4,0,0,.1.1.2.2-.3,1.3.9,2.7,2.2,2.6.1,0,.3,0,.4,0,.6.6,1.2,1.2,1.8,1.8,0,.2,0,.5,0,.7,0,1.6,1.8,2.8,3.3,2.4.1.1.2.2.3.3-.3,2.1,2,4.1,4,3.6.1,0,.2.2.3.2.3,1.4,1.7,2.5,3.2,2.6.6.4,1.1.9,1.7,1.3.6,1.4,2.1,2.5,3.6,2.4,0,0,0,0,.1,0-.7,1.7,1.5,3.7,3.1,2.8.5-.2.8-.6,1.3-.7,1.4-.2,2.2,2,3.6,1.8.6,0,1-.5,1.5-.8,1.4-.9,2.3-1.1,3.1.4,0,0,.3,1.6,2.5.7,1.2-.5,2.1-1.9,3.2-1.1.5.3.8.9,1.3,1.1,1.2.5,2.5-.9,3.8-.9,1.2,0,2.4,1.3,3.5.8,1.1-.5,1-2.1,1.8-3,.7-.1,1.4,1.7,2.1,1.6,1.6.6,3.4.4,4.8-.6.6-.4.8-1.2,1.4-1.6,1-.5,2.2.5,3.3.5,1.7,0,2.4-2,2.5-3.8.2-.1.3-.2.5-.4.9.2,1.9-.4,2.1-1.3,0-.4,0-.8,0-1.2.1-.2.3-.5.4-.7.6-.5,1.7-.7,1.6-1.5,0-.4-.4-.8-.6-1.2.2-.5.4-1.1.6-1.6.2-.2.4-.4.6-.6.7-.6,1.2-1.7.5-2.2,0,0,0,0,0,0,1-.4,2.2-1.1,1.9-2.1,0-.3-.3-.6-.4-.9-.3-.9.7-1.7,1.3-2.4s1-2.2,0-2.4h0Z"/>
    <path class="st27" d="M518.6,251.6c.7-1.4.8-3,1.2-4.4.3-1,.7-1.9,1-2.9.6-1.6.9-3.2,1-4.9,0-.5-1.3-.1-1.4.2-1.2,3.8-2.6,7.5-4.1,11.1-1.2,2.8-2.6,5.7-4.3,8.3-.5.7-1.1,1.9-2,1.9-.5,0-1.1,0-1.7,0-1.5,0-.7-.5-.7-1.4,0-.6-.5-.7-.9-.9-.4-.1-.8-.2-1.2-.5s-.6-.6-1-.8c-1.3-.6-2.3.1-3.5,0-.8,0-.6-.9-1.2-1.4-.5-.4-1.3-.5-1.9-.5-.6,0-1.3.2-1.8.6-.9.5-1.1,1.6-1.9,2.1h1.1c-1-.7-2.2-.7-3.3-.2-.6.3-1,.6-1.4,1.2-.5.7-1,1-1.5,1.5-.3.2-.5.5-.5.9,0,.5.7,1,.6,1.4s-1.4.4-1.8.5c-.5.1-.9.3-1.2.7l1.1-.4c-3.3-.2-6.6-.4-10-.6-1.2,0-2.5-.1-3.7-.2-.7,0-.5,0-1.2-.3-2-.8-4-1.5-5.9-2.5-.5-.3-1.6-1.1-2.2-1.6-7.5-5.6-14.9-11.3-22.4-17-.8-.6-1.5-1.1-2.1-1.8-1-1.1-2-2.2-3-3.3-.6-.7-1.3-2-2.2-2.3-.3-.1-1.2,0-1.3.4-.5,2.2,1,5,1.6,7.1.4,1.2.7,2.5,1.1,3.7.1.4.3.9.5,1.2.2.2.6.4.8.6.8.7,1.6,1.5,2.3,2.3.4.4.8.7,1.2,1.1.5.5.5.9.7,1.5.5,1.8,2.1,2.7,3.9,2.5h-.6c.3.2.2.8.3,1.2.1.4.4.8.8,1.1.7.5,1.5.6,2.3.5h-.6c.8.7,1.6,1.2,1.8,2.4.1.6.3,1.1.7,1.6.8.9,2,1.2,3.2,1h-.6c.4.3.4,1.5.7,2.1.3.5.7,1,1.2,1.3.9.6,2,.8,3,.6h-.6c.3.2.5.8.7,1.1.3.4.6.8,1,1.1.8.5,1.6.6,2.4,1.1.9.6,1.3,1.6,2.2,2.3.3.2.6.5,1,.6.2.1,1.2.2,1.4.3.1.1,0,.4,0,.6,0,.4.1.7.4,1.1.4.6,1,1.1,1.7,1.3.6.2,1.3.1,1.9-.1.3-.1.6-.3.9-.5.7-.3,1,.1,1.5.6,1.1,1,2.2,1.4,3.5.6.8-.4,1.6-1.6,2.4-.7.3.3.4.8.6,1.1.8.9,2.4.5,3.4,0,.8-.3,1.5-1.3,2.4-.7.7.5,1.1,1.1,2,1.1,1.2,0,2.4-1.1,3.5-.9.9.2,1.5.8,2.5.9.7,0,1.5-.3,2-.8.7-.7.8-1.9,1.4-2.6l-1.1.4c.6,0,1,1.1,1.5,1.5.6.4,1.7.5,2.4.5,1.7,0,3.6-.6,4.6-2,.4-.5.5-.7,1.2-.5.5.1.9.3,1.3.4.7.1,1.4,0,2.1-.3s1.1-.8,1.4-1.4c.4-.8.4-2.2,1-2.7l-1,.3c1,.1,2.1-.1,2.8-.8.6-.7.3-1.3.5-2,.2-.7,1-.9,1.5-1.3.3-.2.6-.5.5-1,0-.3-.2-.4-.3-.7-.2-.8,0-1.3.4-2,.4-.6,1-1,1.2-1.7,0-.2.1-.4.1-.6,0,0-.3-.7-.3-.6l-.5.3c.8-.3,1.8-.7,2.2-1.5.6-1-.6-1.8-.1-2.8.4-.9,3.3-3.2,1.1-4.1-.4-.1-1.7.4-1.2.6,1.8.7-1.5,3.3-1.5,4.3,0,.9.9,1.4.3,2.3-.4.5-1.5.6-1.7,1.1,0,0,0,.1,0,.1.6.6.1,1.4-.3,1.9-.5.6-.8.8-1.1,1.6-.2.6-.3.7-.1,1.2.5,1.1.3,1.1-.7,1.7-.4.3-.6.4-.8.8-.3.5,0,1.3-.3,1.8-.6.9-2.1.3-2.5,1.5s-.3,3.6-2.2,3c-1-.3-1.8-.6-2.9-.3-1.1.4-1.4,1.4-2.3,2-1,.6-2.3.7-3.4.2-.5-.2-.7-.5-1.1-.9-.5-.5-.9-.8-1.6-.6-.9.2-1.1,1.3-1.5,2-.4.9-.9.9-1.7.5-.5-.2-1-.5-1.6-.5-1.1,0-1.9.6-3,.9-1.2.3-1.7-1.3-2.8-1.3-1,0-1.8.5-2.5,1-2.6,1.6-1.8-1.5-3.9-1.6-1,0-1.9.5-2.7,1s-1.1.5-1.8-.1c-.4-.3-.7-.7-1.1-.9-.9-.5-1.8-.2-2.6.3s-1.3.5-2-.2c-.6-.6-.8-1.3-.5-2.1,0,0,0-.1,0-.1-.6-.4-1.5-.2-2.1-.6-.9-.5-1.2-1.5-1.9-2.1s-1.2-1-2.1-1.2c-1.1-.3-1.7-1.1-2.3-2.1-.3-.5-.4-.7-1-.7-1.3,0-2.3-.4-3-1.6-.2-.3-.3-.7-.4-1.1,0-.3,0-.7,0-.9-.1-.3-.4-.3-.6-.4-.5-.1-1,0-1.5-.2-.8-.4-1.4-1.2-1.4-2.1,0-.4,0-.6-.2-.9-.3-.5-.9-.8-1.2-1.2-.8-.7-1.3-.3-2.2-.9-.4-.2-.6-.7-.8-1.1s0-.8-.2-1.1c-.4-.4-1.2-.2-1.8-.4-.9-.4-1.5-1.4-1.6-2.3-.1-.6,0-.6-.4-1.1-.3-.3-.7-.7-1-1-.7-.6-1.3-1.4-2-2-.6-.6-1.5-1.1-1.9-1.9-.5-1.1-.8-2.4-1.1-3.6s-.7-2.4-1.1-3.6-1-2.8-.7-4l-1.3.4c.4.1.5.5.8.8.5.6,1,1.1,1.4,1.6,1,1.1,2,2.1,3,3.3.6.7,1.4,1.2,2.1,1.8,4.2,3.2,8.5,6.5,12.8,9.8,3.7,2.8,7.4,5.7,11.2,8.4,1.2.9,2.7,1.3,4.1,1.9,1,.4,2,1,3.1,1.3.6.2,1.3.1,1.9.2,4,.2,8.1.5,12.1.7.4,0,.8,0,1.2,0,.5-.1.7-.4,1.2-.5.7-.1,1.6,0,2.2-.7.7-.7-.2-1.1-.3-1.9s.8-.9,1.2-1.3c.8-.7,1-2.5,2.7-1.5.3.2.8,0,1.1-.1.5-.3.9-.7,1.3-1.2.4-.6,1.2-1.3,2-.9.6.3.4.7.6,1.2.5.9,2.1.3,2.9.2.6-.1,1.1-.2,1.7.2.3.2.6.5,1,.8.2.1.5.2.8.3.6.2,1,.3.9,1,0,.4-.4.7-.1,1.1s1,.4,1.4.4c1.2,0,2.6,0,3.8-.5.7-.3,1.2-1,1.7-1.6,1.7-2.2,3-4.9,4.2-7.4,1.9-4.1,3.5-8.4,4.9-12.8l-1.4.2c-.2,1.7-.5,3.3-1,4.9-.3.9-.7,1.9-1,2.9-.5,1.5-.6,3-1.2,4.4-.2.3,1.2.2,1.4-.2h0Z"/>
  </g>
  <rect class="st26" x="945.5" y="889.5" width="36.5" height="22" transform="translate(-8 8.6) rotate(-.5)"/>
  <g>
    <path d="M995,927.3s5.1,6.8,3.4,10.1c-1.7,3.3-18.1,4.2-22.4,4.7-4.3.5-59.7,7-65.2,7.1s-35.2-1.2-39.5-7.5c0,0-7.3-10.6,2.6-14.3s17.3-2.4,26.6-7c9.3-4.6,19.4-11.8,28.2-21.4,0,0,9-7.9,13.3-6.7s9.3,9.3,12.8,11.2c3.5,1.9,20.4,4.3,24.6-3.8,4.2-8.1,5.5-5,8.8-3.9s8.9,15.3,7.7,21.9c-1.2,6.6-.9,9.5-.9,9.5h0Z"/>
    <path class="st30" d="M937,902.6h0c.4-.5,0-1.3-.7-1.9l-5.7-4.1c-.8-.6-1.8-.7-2.2-.2h0c-.4.5,0,1.3.7,1.9l5.7,4.1c.8.6,1.8.7,2.2.2Z"/>
    <path class="st30" d="M930.6,905.8l.2-.2c.3-.3,0-1-.8-1.5l-4.2-3.1c-.7-.5-1.5-.7-1.8-.4l-.2.2c-.3.3,0,1,.8,1.5l4.2,3.1c.7.5,1.5.7,1.8.4Z"/>
    <path class="st30" d="M925.3,908.9l.3-.3c.3-.3,0-.9-.7-1.4l-3-2.2c-.6-.5-1.4-.6-1.6-.3l-.3.3c-.3.3,0,.9.7,1.4l3,2.2c.6.5,1.4.6,1.6.3Z"/>
    <path class="st30" d="M921,912.2l.3-.3c.3-.3,0-1-.6-1.5l-3-2.2c-.6-.5-1.4-.6-1.7-.2l-.3.3c-.3.3,0,1,.6,1.5l3,2.2c.6.5,1.4.6,1.7.2Z"/>
  </g>
  <path class="st17" d="M882.6,496.2l-4.1,33.3,2.8,15.8,8.3,14.7,23.2,19s4-.8.2-7.2c-3.7-5.6-7.9-11-12.5-16.2l-2.4-17.1,4.2-7.5,4.9.8s-1.3,21.5,2,25.8c.6.8,1.1,1.4,1.5,1.9,1.2,1.5,3.3,1.6,4.6.3l2-1.9.9-32s-2-14.1-3-17.4c-1.3-3.3-3.6-8-5.5-11.1l-.5-4.4-23.2-6.8-3.4,10h0Z"/>
  <path class="st17" d="M938.8,179.1c-3.5,1.5-54.5,28.4-61.3,56.8-6.7,28.3.5,117.2-2.4,142-3.8,29,8.5,107.8,8.2,115l.3,26,19.3-9s2.1-146.8,14.3-186.5c12.2-39.7,21.6-144.2,21.6-144.2h0Z"/>
  <polygon class="st26" points="1035.6 917.8 998.8 919.7 1001 892.8 1037.4 895.9 1035.6 917.8"/>
  <path class="st17" d="M998.6,113.1s0,37.2,5.2,49.4c1.3,3,21,10.8,21,10.8l-74.5,43.2-40.7-29.8s28.9-15.6,29.8-19.3-1.8-31.2-1.8-31.2"/>
  <path class="st16" d="M1069.3,464.8l3,24.7c2.5,20.7,2,41.7-1.5,62.3l-16.6,130.3s-2.2,80,.2,125.4c2.1,39.3-6.9,97.9-6.9,97.9l-66.1-2.9-25.7-214.5,3.3-147.2-21-74.8,131.3-1.2h0Z"/>
  <path class="st16" d="M890.5,468.9l14.5,203c-.7,10.9,3,53.1,6.2,63.6l19.7,135.5,1.9,19.6,53.4,5.1-9.1-431.5-86.6,4.8h0Z"/>
  <path class="st11" d="M978.2,892.7c-.2-1.5-.3-2.9-.5-4.4-.4-4-.8-8-1.2-12-.6-6-1.2-12-1.9-18-.8-7.4-1.5-14.8-2.3-22.1-.9-8.3-1.7-16.5-2.6-24.8-.9-8.5-1.8-17.1-2.7-25.6-.8-8.2-1.7-16.5-2.6-24.7-.8-7.4-1.5-14.8-2.3-22.3-.6-6-1.2-12-1.9-17.9-.4-4-.8-8.1-1.3-12.1-.2-1.5-.3-3-.5-4.4-1-8.3-1.8-16.5-1.9-24.8,0-3,0-6,0-9,0-3.4-.1-6.7-.2-10.1-.1-6.3-.3-12.6-.4-18.9-.2-8.1-.3-16.1-.5-24.2-.2-8.5-.3-17-.5-25.6-.2-7.8-.3-15.7-.5-23.5l-.4-17.6c0-2.7,0-5.3-.2-8,0-1.2-.4-2.4-.7-3.6-1-3.8-2.4-7.6-4.5-10.9-2.2-3.5-5.4-6.4-9.6-7.3-.3,0-1.6.5-1.2.5,8.5,1.8,12.3,11.5,14.1,19,.5,2,.5,3.7.6,5.7,0,4.6.2,9.2.3,13.8.1,7.1.3,14.1.4,21.2l.5,25c.2,8.4.3,16.8.5,25.2.2,7.2.3,14.5.5,21.7,0,4.9.2,9.8.3,14.6,0,4.8,0,9.5,0,14.3.2,8.1,1.1,16.1,2,24.2.3,2.9.6,5.8.9,8.7.5,5.1,1.1,10.2,1.6,15.4.7,6.8,1.4,13.7,2.1,20.5.8,7.9,1.6,15.8,2.5,23.7.9,8.4,1.8,16.9,2.6,25.3.9,8.4,1.8,16.9,2.6,25.3.8,7.8,1.6,15.7,2.5,23.6.7,6.7,1.4,13.5,2.1,20.2.5,5,1,10,1.6,15l.9,8.2c0,.3,0,.7.1,1.1,0,.3,1.5,0,1.5-.4h0Z"/>
  <path class="st13" d="M874.1,336.3c-3.2-1-6.6-4.2-6.7-5.8,0-.5,4.3-61.6,4.4-64.3.3-10.9.8-21.9,2.5-32.6,2.3-14,9.3-23.1,18.8-33.8,11.1-12.6,26.7-19.3,34-26l8.9-3.9s-15.2,19.1,17.6,23.2c32.8,4.1,54.3-30.6,54.3-30.6,0,0,11.1,8.6,32.9,18,8.4,3.6,25.3,16.8,29.3,25,9.9,20.5,11.5,29.9,9.3,67.4l-2.4,28.6-12.8-8c3.6,25.7,6.7,66.5,6.4,107.1,0,5.5,5.2,36.1,5.1,41.6,0,3.2,3.4,26,1.7,28.7-1.6,2.5-12.8,4.7-15.9,5.8-33.2,12-124.5,10.4-124.5,10.4-14-1.5-25.6-2.3-38-8.1-8.8-4.1-10.6-6.7-15.4-10.6,2-11.7,1.7-23.8,1.8-35.5.2-19,1.5-38.9,1.3-57.9,0-1.1-2.3-36-2.7-36.8-3.3-1.5-2.6.4-10.1-1.9h0Z"/>
  <path class="st13" d="M1079.7,237.1s2.5,61.2,2.6,81.4c0,0-29.1,8.4-57.9,3-30.6-5.6,2.7-68.5,2.7-68.5l52.6-15.9h0Z"/>
  <path class="st2" d="M878.4,252.3c.2,10,.7,20.1,1.1,30.1.6,12.3,1.2,24.6,2,37,.4,6,.8,12,1.3,18.1l1-.5c-1.9.2-4,.1-5.9-.2-3-.5-6.5-1.8-8.7-4-.7-.7-.7-1.2-.7-2,0-1.6-.2-3.2-.3-4.7l-1.5.4c.6,1.2,1.8,2.3,2.9,3.1,3.3,2.4,7.4,3.3,11.4,3.7.3,0,1.7-.5.9-.6-3.9-.4-7.9-1.3-11.1-3.7-1-.8-2.1-1.7-2.7-2.9-.2-.3-1.5,0-1.5.4,0,1.7.2,3.3.3,5,0,.8.3,1.5,1.1,2.2,3.8,3.5,10,4.7,15,4.1.2,0,1.1-.1,1-.5-1-11.2-1.6-22.4-2.2-33.6-.7-12.2-1.2-24.4-1.7-36.6-.2-5-.4-10-.5-15,0-.2-1.5,0-1.5.4h0Z"/>
  <path class="st17" d="M994.3,172.6c-19.2,10.4-41.3,10.9-58.4-2.2,4.2-2.5,3.8-6.6,4-7.5.8-3.6-1-27.5-1-27.5l60.8-23.7s-2.1,37.9,3.3,49.5c.3.6,2.5,3.3,4.2,4.6-3.5,3.4-8.5,4.6-12.8,6.9h0Z"/>
  <path class="st39" d="M926.5,139c2.2,3.4,4.1,6.9,6.4,10.1,0,0,0,.1,0,.1.2-.1.4-.2.6,0,1.6,2.2,4.2,3.3,5.7,5.7,1.2,2,.5,4.8.6,7.2,1.7.3,4.4.1,6.5.3,14.1-.4,14.4-2.3,33.1-14.6,5.9-3.9,4.7-8.7,5.9-9.6-19.3-.4-38.5.6-58.8.8h0Z"/>
  <path d="M1014.5,88.7s2.8-9.2,6.1-31.3c3-19.8-28.2-35.8-47-38.6-10.3-1.5-44.7,3.1-53.6,7.4-8.9,4.3-13.4,16.4-14.3,33.7,0,0,5.3-17.2,16.3-16.9,8.9.2,37.7-4.5,45.3-1.3,7.6,3.2,24.3,9.8,25.2,36.9.3,7.4,13.3-.5,17,3.9,3.6,4.4,5,6.2,5,6.2h0Z"/>
  <path class="st17" d="M999.9,120.5l2.7-26.7,1-29.8-11.9-22.5-21.3-10.1-24.1,1s-19.2,5-25.3,6.6c-6.1,1.7-10.3,9.2-14.3,17.5-4,8.4-2.1,22.2-2.1,22.2-.2.5.4,2.6.5,3,1.3,5.5,1.7,10.4,2.7,14.5.5,2,.5,3.8,0,5.6-2.2,7.3-2.2,10.4-1.5,14.8.9,6,2,11.2,4.3,15.9,2.4,5,5.4,10.4,6,11.5,0,0,6.8,11.2,8.2,12.3,1.5,1.1,3.6,2.1,4.6,2.2s14.3.8,14.3.8l6.2-.2c2.1,0,4.2-.6,6-1.4,5.2-2.4,19.9-9.5,23.9-12.3,5.4-3.9,11.7-19.8,11.7-19.8"/>
  <path d="M993.8,94.8c0,2.3.1,11.5-.1,13.7l11.9-.4c3.5-7.9,7.6-17.3,9-19.5,2.1-3.3,2.2-19.4,2.2-25.4v-1.3c0-5.8-5.6-14.9-15.2-24.4-10.5-10.4-29-16.1-47-14.6-1.7.1-3.4.4-5.1.6-15.7,2.6-28.6,10.6-38.4,23.9-7.1,9.6-7.4,20.4-6.7,27,.2-13,4.7-22.3,4.8-22.7,4.2-8.9,9.7-11.5,13.5-12.2,3.4-.5,5.9.3,6.4.5,3.8.8,9.4.2,13.4-.5,3-.5,5.4-1,6-1.2,2-1.4,5-2.5,8.7-3.1,8.6-1.4,21.2,0,23.9,3.7,2.9,4.2,9.6,19.1,9.8,22.6"/>
  <path class="st17" d="M998.8,121.1c7.1,6.9,11.4-6.8,11.4-6.8,6.5-8.3,6.2-16.9,5.8-22.8-.4-5.9-6.9-5.6-6.9-5.6-5.5.8-7.8,3.8-11.9,22.5"/>
  <path d="M910.8,45.4c3.8-6.5,11.4-14.8,15.7-21.1,2.1-.2,12.6-.8,14.8-.9,22.4-1.5,52.8,10.6,55.8,18.7,1.9,5,1.4,32.7.5,35.3-2.5,7-3.3,16-3.3,16-1.2-10.4-8.9-21.7-9.9-25.3-1-3.5,3.3-20.5,2.1-21.2s-21.8-6.4-44.6-5.5c-6.7.3-13.5,1-19.4,2,0,0-11.7,2-11.7,2Z"/>
  <path d="M955,88.2c1.3-.8,2.9-1.4,3.8-.6.2.2.8.7,1.1,1.6.4,1.1,0,2.5-.7,3.3-.9,1.1-2.5,1.3-3.8.8-1.7-.7-2.3-2.7-2-4.2,0-.3.5-.2,1.5-.8"/>
  <path d="M914.9,89.4c-1.4-.7-3,0-3.8.8-.2.2-.8.8-1,1.7-.3,1.2.2,2.4,1,3.2,1,1,2.6,1.2,3.8.5,1.6-.8,2.1-2.9,1.7-4.3,0-.3-.5-1.4-1.6-1.9"/>
  <path d="M926.3,94.5s-5.7-5.3-9.8-5.5c-5.9-.3-7.4,1.1-9.3,3.8,0,0,3.8-2.9,7.9-2.6,4,.3,11.2,4.3,11.2,4.3h0Z"/>
  <path d="M946,92s8.2-5.4,12.2-5.5c5.9-.3,13,3.1,15,5.9,0,0-9.4-5-13.5-4.7-4,.3-13.6,4.3-13.6,4.3h0Z"/>
  <path d="M947.1,67.6c-.4,1.3-.8,2.7-1.2,4.1-.3,1-1,3.4-1.3,4.4,3.5,0,6.9-.3,9.1-.1,4.4.5,9,.7,13.1,2.6,2,.9,3.6,1.9,5,3.5.4.5,1.5,2.3,2.4,2.2.4,0,.3-1.9.3-2.1-.1-3.7-2.6-5.9-5.9-7.7-6.7-3.7-14-5.6-21.5-6.8"/>
  <path d="M903.3,79.2s1.9-1.4,2-1.4c5.4-3.9,11.6-6.2,18.1-7.7.5,1.3,1,2.6,1.5,3.9.4,1,1.2,2.8,1.5,3.8-3.1.2-5.9.2-7.8.5-3.8.7-7.9,1.3-11.2,3.4-.3.2-2.5,1.2-2.8,1.4-1.8-1.4-1.7-3.5-1.3-3.9h0Z"/>
  <g>
    <path class="st4" d="M931.5,117.4c1.8.9,4.4.6,6.1-.6.4-.3,1.7,0,1.1.3-2.2,1.5-6,1.8-8.3.7-.2-.1-.2-.3,0-.4.3-.1.7-.1,1,0"/>
    <path class="st4" d="M939.5,116.5c1.1-.6,2.4-.9,3.7-1.1.2,0,.4,0,.6.2.1,0,.1.2,0,.3-.6.4-1.3.6-2,.6-.2,0-.5,0-.7-.2-.1-.2,0-.3.3-.3.6,0,1.2-.2,1.7-.5.2.2.4.3.6.5-1.2.1-2.3.4-3.3,1-.2.1-.5,0-.7,0-.1,0-.3-.3,0-.4"/>
    <path class="st4" d="M944.7,116.5c1.5,0,3.3-.8,4-2,1.1-1.8,0-4.6-2-5.6-.2-.1-.1-.3,0-.3.3,0,.6,0,.8.1,1.7.9,2.8,3.2,2.7,4.8-.2,1.6-1.6,2.7-3.4,3.2-.5.2-1.1.3-1.7.3-.2,0-.7,0-.8-.2s0-.3.3-.3"/>
    <path class="st4" d="M928.7,116.7c0-.2,0-.3-.2-.3-.4,0-.8,0-1.2-.3-.1.2-.3.3-.4.5.8,0,1.7.3,2.4.8.2,0,.4,0,.5,0,0,0,.2-.3,0-.4"/>
    <path class="st4" d="M929.9,116.8c-.8-.5-1.8-.8-2.7-.9-.1,0-.3,0-.4.2,0,0,0,.2,0,.3"/>
    <path class="st4" d="M925.6,117c-1,0-2.2-.6-2.7-1.8-.8-1.7-.2-3.9,1-5,.1-.1,0-.3,0-.3-.2,0-.4,0-.5.2-1,1-1.7,2.6-1.5,4.3.2,1.5,1.2,2.6,2.4,3,.4.1.7.2,1.1.2s.4,0,.5-.3c0-.2,0-.3-.2-.3"/>
  </g>
  <path class="st10" d="M937.5,128.4c3.4-.2,13.6-.4,13.6-.4,0,0-3.4,3.3-13.6,3.8s-13.6-2.3-13.6-2.3l13.6-1h0Z"/>
  <g>
    <path class="st36" d="M1007.2,161.3s-16.4,29.9-47.6,29.7-25.7-16.4-25.7-16.4l3.7-6.9-10.4,6.1s-2.8,7,1.4,14.1,20.1,12.6,40,9.7c11.6-1.7,26.6-9.6,35.4-18.7,10.5-10.9,11.3-12.2,11.3-12.2l-7.9-5.5h0Z"/>
    <path class="st2" d="M1006.5,161.4c-1.9,3.5-4.5,6.8-7.1,9.8-5.9,6.7-13.1,12.4-21.4,15.9-5.2,2.2-10.7,3.4-16.3,3.5s-11.6-.2-17.1-2c-5-1.6-9.8-5-10.3-10.6,0-1.1,0-2.4.3-3.5.3-.9.9-1.7,1.3-2.5.8-1.5,1.6-2.9,2.3-4.4.2-.4-1-.1-1.2,0-2.3,1.4-4.7,2.7-7,4.1-1.1.6-2.2,1.2-3.3,1.9-.6.4-.7,1.1-.9,1.8-1.1,4.7-.3,10.1,2.7,14,2.3,3,6,4.9,9.5,6.2,5,1.9,10.4,2.8,15.8,3.1,6,.3,12.2,0,18.1-1.4,11.1-2.6,21.9-8.5,30.3-16.2,4-3.6,7.7-7.7,11.3-11.8.7-.8,1.7-1.7,2.2-2.7,0,0,0-.1,0-.1-2.6-1.8-5.3-3.6-7.9-5.5-.4-.3-1.7.3-1.4.5,2.4,1.7,4.9,3.4,7.3,5,.2.1.6.6.6.3,0,0,0,0,0,0-.4.4-.7.9-1.1,1.3-2.9,3.4-6,6.5-9.1,9.7-4.5,4.7-9.6,8.6-15.3,11.8-5.5,3.1-11.3,5.7-17.5,7-6.7,1.5-13.8,1.7-20.6.9-5.4-.6-10.9-1.9-15.7-4.6-4.3-2.4-7.1-5.9-8-10.9-.4-2.6-.3-5.3.4-7.8,0-.2.2-.4.2-.6,0,.2-.5.3,0,.1.5-.2,1-.6,1.5-.9,2.9-1.7,5.8-3.4,8.7-5.1h-1.2s-2.1,3.9-2.1,3.9c-.5.9-1.2,1.9-1.5,2.9-.3.9-.4,1.9-.4,2.8,0,5.3,4,9,8.6,10.9,4.9,2.1,10.5,2.7,15.8,2.8,5.9.2,11.8-.5,17.4-2.3,9.1-2.9,17.2-8.4,23.8-15.3,2.4-2.5,4.6-5.1,6.7-8,.7-.9,1.3-1.8,1.9-2.8s.8-1.1,1-1.6c0,0,0-.1.1-.2.2-.3-1.2-.2-1.4.2h0Z"/>
  </g>
  <path class="st1" d="M994.6,941.9s-24.9-.5-36,1.5c-11,2-39.9,4.2-54.7,2.7s-34.9-8.5-34.9-8.5c0,0-1.6,1.8,4.5,5.8,6,4,25.8,8.3,43.4,8.5s43.2,1,48.6,1.3,27.8,1.3,31.2-1.9c2.8-2.7-1.9-9.4-1.9-9.4h0Z"/>
  <path class="st20" d="M926.7,953.7c-2.2-2.5-4.4-5.6-4.2-9,.1-2.5,1.5-4.6,3.5-6s4.3-2,6.7-2c3.4,0,6.9-.3,10.3-.8,13-2.2,23.7-10.3,33.5-18.6,3.7-3.1,7.3-6.3,10.7-9.6.5-.5-.5-.7-.9-.3-3.1,3-6.3,5.9-9.6,8.7-5.6,4.8-11.4,9.4-17.8,13.1-5.5,3.2-11.5,5.4-17.8,6.2-1.8.2-3.7.4-5.6.5-1.6,0-3.2,0-4.8.2-2.1.3-4.2,1.1-5.9,2.4-2,1.5-3.3,3.7-3.5,6.2-.2,3.7,2,7,4.3,9.5.3.4,1.3,0,1-.5h0Z"/>
  <g>
    <path d="M1049.3,940s1.8,7.3,0,10.6c-1.8,3.3-15.1,3.6-19.4,4-4.3.4-59.9,6.2-65.4,6.3-5.5,0-35.2-1.7-39.3-8,0,0-7-10.7,3-14.2s17.4-2.2,26.8-6.6,19.6-11.5,28.7-21c0,0,9.2-7.7,13.5-6.5,4.3,1.2,9.1,9.4,12.6,11.4,3.5,2,20.3,4.6,24.7-3.5,4.4-8.1,5.6-5,8.9-3.8,3.3,1.2,8.6,15.4,7.2,22s-1.2,9.5-1.2,9.5h0Z"/>
    <path class="st30" d="M991.9,914.6h0c.4-.5.1-1.3-.6-1.9l-5.6-4.2c-.8-.6-1.8-.7-2.2-.3h0c-.4.5-.1,1.3.6,1.9l5.6,4.2c.8.6,1.8.7,2.2.3Z"/>
    <path class="st30" d="M985.4,917.8l.2-.2c.3-.3,0-1-.7-1.5l-4.2-3.2c-.7-.5-1.5-.7-1.8-.4l-.2.2c-.3.3,0,1,.7,1.5l4.2,3.2c.7.5,1.5.7,1.8.4Z"/>
    <path class="st30" d="M980,920.8l.3-.3c.3-.3,0-.9-.7-1.4l-3-2.2c-.6-.5-1.4-.6-1.6-.4l-.3.3c-.3.3,0,.9.7,1.4l3,2.2c.6.5,1.4.6,1.6.4Z"/>
    <path class="st30" d="M975.7,924l.3-.3c.3-.3,0-1-.6-1.5l-3-2.2c-.6-.5-1.4-.6-1.7-.3l-.3.3c-.3.3,0,1,.6,1.5l3,2.2c.6.5,1.4.6,1.7.3Z"/>
  </g>
  <path class="st1" d="M1048.9,945.3s-24.9,1.3-35.8,4.1c-10.9,2.8-39.5,7.1-54.4,6.7s-35.4-6-35.4-6c0,0-1.5,1.9,4.9,5.4,6.3,3.5,26.3,6.3,43.9,5.4s43.2-2.2,48.5-2.2c5.4,0,27.8-.7,30.9-4.2,2.6-2.9-2.6-9.2-2.6-9.2h0Z"/>
  <path class="st25" d="M1003,103.2c.8-3.2,1.8-6.5,3.5-9.4.4-.7.9-1.4,1.4-2,.4-.4.5-.6,1-.8.2,0-.1,0,0,0,0,0,0,0,.2,0,0,0-.2,0,0,0,0,0,.3,0-.2,0l-.6-.2c2,1.8,2.5,5.1,2.3,7.6,0,.7,1.4.4,1.5-.1.1-2.4-.2-4.9-1.5-7-.4-.6-.9-1.5-1.8-1.2-1.9.5-3.2,2.8-4,4.4-1.5,2.8-2.4,5.9-3.2,8.9-.2.6,1.3.4,1.5-.1h0Z"/>
  <path class="st25" d="M1003.9,104.2c1.7-.2,1.3,2.7,1.2,3.7,0,.9-.7,3.5.9,3.5.9,0,1.4-.6,1.7-1.3.5-1.2.8-2.5.9-3.8.2-1.7.3-3.1,0-4.8-.3-1.9-1-4.2-3-4.9-.3-.1-.8,0-1,.2-.2,0-.5.3-.2.5,1.6.6,2.2,2.6,2.6,4.1.2,1.2.4,2.4.3,3.6-.1,1.4-.3,2.8-.7,4.1-.1.5-.3.9-.5,1.4,0,.1-.2.3-.2.4,0,.2-.5.2.3,0,.9-.2.3,0,.3-.2,0-.2-.2-.4-.2-.6,0-.3,0-.7,0-1,0-.8.2-1.6.2-2.4,0-.7,0-1.6-.3-2.2s-1.1-.8-1.8-.8c-.3,0-.8,0-1,.4s.1.3.4.3h0Z"/>
  <path class="st37" d="M935.2,126.3c5-.2,16.4,2.8,18.7,5,0,0-4.6,7.5-16.4,8.1s-14.8-6.6-14.8-6.6c0,0,6-6.1,12.4-6.4h0Z"/>
  <path class="st20" d="M949,128.9s-6.4-.3-11.6,0c-5.1.2-11.5,1.1-11.5,1.1,0,0-1-4.1,8.3-4.6s14.8,3.5,14.8,3.5Z"/>
  <path class="st7" d="M936,137.4c5.4-1.2,11.5-6.3,18-6.1,0,0-2,11.1-15.8,11.8s-15.4-10.3-15.4-10.3c6.4-.8,7.7,4,13.2,4.7h0Z"/>
  <path class="st7" d="M929.1,123.4c2.9-.4,4.8.8,6,.7,1.3,0,3-1.4,5.9-1.3,2.7,0,14.5,7.2,13.3,8.3-1.2,1.1-10.4-4.2-19.1-3.8-8.7.4-11.6,6.2-12.9,5.3-1.3-.9,4-8.9,6.7-9.2h0Z"/>
  <path class="st17" d="M1068.7,315c-11.1,2.6-18.3-1.6-29.6,0-7.8,1.1-15.5.7-23.2-.2.7,12.2,1.2,23.9,1.4,33.1l-123,26.7-1.8,24.5c37.3,2.5,99.6,10.1,139,.8,11.1-2.6,24.2-4.7,30.9-14.8,0,0,8-9.6,10.9-54.8.4-6.9.3-10.1.3-16.7-2,.4-2.9.9-4.9,1.4Z"/>
  <path class="st17" d="M907.6,399.6l-12.4-.4s-29.1,10.5-38,10.5c-6.4-.3-12.8-1.5-18.9-3.5l-7.4,2.2c-3.4,1-7,.8-10.3-.7l-2.5-1.1s-8.5,5.3-10.3,2.6c-1.8-2.7.9-5.6,3.5-8.4,2.6-2.8,57-29,57-29-5-1.9-14.3-.6-19.6-1.6-8.1-1.5-10.7-5.1-7.2-8.1,2.2-1.8,8.8-3.2,13.2-1.1,4.4,2,25.5-3.1,33.5-.4,8,2.7,13.8,13.1,13.8,13.1.7.3,3.5.8,3.5.8.3,1.1,2,25.1,2,25.1h0Z"/>
  <path class="st39" d="M819.4,407c4.6-2.3,9.5-3.9,14.3-5.7,4.8-1.8,9.8-3.4,14.2-5.8,1.1-.6,0-1.5-.8-1-4.5,2.5-9.5,4-14.2,5.8-4.8,1.8-9.7,3.4-14.3,5.7-1.1.5-.1,1.5.8,1h0Z"/>
  <path class="st39" d="M839.8,406.4c5.8-1.7,11.7-3.4,17.5-5.2.8-.2,1.7-.5,2.5-.8,1.1-.3.8-1.4-.3-1.1-5.8,1.7-11.7,3.4-17.5,5.2-.8.2-1.7.5-2.5.8-1.1.3-.8,1.4.3,1.1h0Z"/>
  <g>
    <path class="st13" d="M1042.5,199.3s-28.9-2-32.2,43.5c-3.4,46,1,73.8,1,73.8,0,0,15.4,7.2,34.1,6.2s36.8-4.3,36.8-4.3l.5-8.5s-28.5,5-47,3.8c-18.5-1.2-25.6-3.5-25.6-3.5"/>
    <path class="st2" d="M1042.8,198.9c-5.4-.4-11.2,1.9-15.6,4.9-12.8,8.6-16.6,25.2-17.7,39.6-1.5,20.1-1.8,40.4-.3,60.5.3,4,.7,8,1.2,12,0,.6,0,.9.6,1.2,2.2,1.1,4.8,1.9,7.1,2.6,4.6,1.4,9.3,2.4,14.1,3,6.2.8,12.3.6,18.4.1,10-.8,20-2,29.9-3.7.5,0,1.1-.2,1.6-.3.2,0,.8-.2.8-.5.2-2.8.3-5.6.5-8.5,0-.3-.4-.3-.6-.3-8.1,1.4-16.4,2.5-24.6,3.2-6.6.6-13.2,1-19.8.7-6.8-.2-13.6-.9-20.2-2-2.4-.4-5.4-.9-7.5-1.6-.4-.1-1.7.5-1.2.7,1.9.6,3.9,1,5.9,1.3,6.4,1.2,13,1.8,19.5,2.2,12.7.9,25.6-.6,38.2-2.3,3.2-.4,6.3-.9,9.5-1.5l-.6-.3c-.2,2.8-.3,5.6-.5,8.5l.8-.5c-7,1.3-14.1,2.2-21.2,3-6.3.7-12.8,1.4-19.1,1.4s-11.1-.7-16.5-1.9c-3.7-.8-7.4-1.9-11-3.2-.8-.3-1.6-.7-2.4-1,0,0-.2,0-.3-.1.2.2.2.2.1,0-.5-2.8-.7-5.6-1-8.5-1.6-17.6-1.6-35.5-.8-53.1.8-16.3,1.6-36,14.6-47.9,4.6-4.3,10.9-7.1,17.1-7.1.1,0,.2,0,.3,0,.5,0,1.5-.7.6-.8h0Z"/>
  </g>
  <path class="st39" d="M1016.1,348.3c8.3.6,14.6,6.9,19.4,13.2.3.4,2-.2,1.7-.7-4.9-6.5-11.4-12.8-19.9-13.4-.4,0-1,0-1.2.3-.2.2-.3.5.2.5h0Z"/>
  <path class="st39" d="M876.6,359.8c0,0,.2,0,.3,0,.2,0,.2,0,.4,0,.4,0,.7-.1,1.1-.1.8,0,1.5,0,2.2,0,1.4,0,2.8.2,4.2.3.4,0,1-.1,1.2-.5.2-.4-.2-.5-.5-.5-3.1-.2-6.5-.8-9.6.3-.2,0-.7.4-.5.7s.9,0,1.2,0h0Z"/>
  <path class="st39" d="M875,406.9c2,0,3.8-.8,5.6-1.5s3.7-1.5,5.6-2.2c.3-.1.7-.5.4-.8s-.9-.2-1.2,0c-1.7.7-3.3,1.3-5,2-1.5.6-3.1,1.5-4.8,1.5s-1,.1-1.2.5c-.2.4.2.6.5.6h0Z"/>
  <path class="st6" d="M597.8,418.8c-2.4,3-4.5,6.3-6.5,9.5-3.6,5.8-6.9,12.1-8.3,18.9-.7,3.2-.8,6.6.5,9.7.2.5,1.7,0,1.5-.4-2.5-5.7,0-12.7,2.4-18.1,2.5-5.8,5.9-11.2,9.5-16.4.8-1.1,1.5-2.2,2.4-3.2.4-.5-1-.4-1.3,0h0Z"/>
</svg>