<?xml version="1.0" encoding="UTF-8"?>
<svg id="Layer_1" data-name="Layer 1" xmlns="http://www.w3.org/2000/svg" xmlns:xlink="http://www.w3.org/1999/xlink" viewBox="0 0 1334 1000">
  <defs>
    <style>
      .cls-1 {
        fill: #131429;
      }

      .cls-2 {
        fill: none;
        stroke: #4f2e25;
        stroke-width: .5px;
      }

      .cls-2, .cls-3 {
        stroke-miterlimit: 10;
      }

      .cls-4 {
        fill: #8c542a;
      }

      .cls-5 {
        fill: #101931;
      }

      .cls-6 {
        fill: #010101;
      }

      .cls-7 {
        fill: #222323;
      }

      .cls-8 {
        fill: #653c29;
      }

      .cls-9 {
        fill: #231f20;
      }

      .cls-10 {
        fill: #715446;
      }

      .cls-11 {
        fill: #27153c;
      }

      .cls-12 {
        fill: #f1eef7;
      }

      .cls-13 {
        fill: #3d4e83;
      }

      .cls-14 {
        fill: #745245;
      }

      .cls-15 {
        fill: #5c483b;
      }

      .cls-16 {
        fill: #271313;
      }

      .cls-17 {
        fill: #57362f;
      }

      .cls-18 {
        fill: #a66e53;
      }

      .cls-19 {
        fill: #0a2f44;
      }

      .cls-20 {
        fill: url(#linear-gradient);
        opacity: .5;
      }

      .cls-21 {
        fill: #3d3d3d;
      }

      .cls-22, .cls-3 {
        fill: #fff;
      }

      .cls-23 {
        fill: #a3a3a3;
      }

      .cls-24 {
        fill: #59341c;
      }

      .cls-25 {
        fill: #0d0b09;
      }

      .cls-26 {
        fill: #513835;
      }

      .cls-27 {
        fill: #cb9a2c;
      }

      .cls-28 {
        fill: #151210;
      }

      .cls-29 {
        fill: #f2ebd1;
      }

      .cls-30 {
        fill: #98a754;
      }

      .cls-31 {
        fill: #24180f;
      }

      .cls-32 {
        fill: #628e9f;
      }

      .cls-33 {
        fill: #0a1722;
      }

      .cls-34 {
        fill: #28160e;
      }

      .cls-35 {
        fill: #825639;
      }

      .cls-36 {
        fill: #381c13;
      }

      .cls-3 {
        stroke: #231f20;
        stroke-width: .47px;
      }

      .cls-37 {
        fill: #3d4f84;
      }

      .cls-38 {
        fill: #eb9944;
      }

      .cls-39 {
        fill: #4f2e25;
      }

      .cls-40 {
        fill: #161312;
      }
    </style>
    <linearGradient id="linear-gradient" x1="-2732.25" y1="5093.71" x2="-1739.29" y2="5093.71" gradientTransform="translate(-4448.62 2727.58) rotate(90) scale(1 -1)" gradientUnits="userSpaceOnUse">
      <stop offset="0" stop-color="#f0ebe0"/>
      <stop offset=".18" stop-color="#eee8dd" stop-opacity=".99"/>
      <stop offset=".33" stop-color="#e8e1d4" stop-opacity=".97"/>
      <stop offset=".46" stop-color="#ded4c5" stop-opacity=".93"/>
      <stop offset=".59" stop-color="#d0c2b0" stop-opacity=".88"/>
      <stop offset=".72" stop-color="#bdab95" stop-opacity=".82"/>
      <stop offset=".84" stop-color="#a78e73" stop-opacity=".73"/>
      <stop offset=".96" stop-color="#8d6d4d" stop-opacity=".64"/>
      <stop offset="1" stop-color="#83603d" stop-opacity=".6"/>
    </linearGradient>
  </defs>
  <polyline class="cls-29" points="1353.37 971.04 1353.37 -19.15 -63.17 -19.15 -63.17 971.04"/>
  <polyline class="cls-20" points="1353.37 985.01 -63.17 985.01 -63.17 -7.95 1353.37 -7.95"/>
  <path class="cls-15" d="M1234.71,677.45l-1.12-.42-1.98-78.87c-2.94-59.53-19.03-102.73-53.28-106.08-23.31,0-102.17-1.08-110.02,4.96-2.18-103.41,9.06-185.91-159.86-185.91l-186.21.45c-1.99,45.65-7.41,91.14-14.13,136.32-8.43,56.68,8.08,113.01-.55,169.66-4.34,28.47,33.14,57.14,29.46,85.7-3.75,29.1-7.53,58.19-11.21,87.29-5.6,44.26-10.97,88.58-15.58,132.98h531.58v-92.25c13.24-4.33,22.43-18.64,22.5-35v-65.8c-.04-25.21-10.72-41.67-29.6-53.03Z"/>
  <path class="cls-15" d="M738.97,922.52c.52-12.96,1.02-25.92,1.42-38.89.91-29.83,31.52-59.65,31.52-89.48l-6.92-482.91-400.68-1.13c-86.76.01-101.19,82.5-103.37,185.91-7.85-6.04-86.71-4.96-110.02-4.96-34.25,3.35-50.34,46.55-53.28,106.08l-1.98,78.87-1.12.42c-18.88,11.35-29.57,27.81-29.6,53.03v65.8c.07,16.36,9.27,30.67,22.5,35v92.25h651.54Z"/>
  <path class="cls-18" d="M631.92,219.98l-6.19,30.63-2.85,5.36s-.93,16.72-.69,20.23c.24,3.51,7.14,21.17,7.14,21.17l-8.04,17.53,29.43,7.16s5.7-15.81,7.61-17.76c1.96-3.06,2.95-6.64,2.86-10.28.1-3.31,1.81-23.1,1.81-23.1,0,0,9.63-22.83,4.38-23.25-1.31.05-2.62.24-3.89.57,0,0-5.69,14.96-7.68,15.44l-3.06-1.27s3.1-22.13,2.87-26.17c-.23-4.04-1.4-6.76-4.55-6.81,0,0-2.18,1.23-2.26,2.27-.08,1.04-2.83,25.64-4.21,25.36s-1.03-2.52-1.03-2.52c0,0,4.06-29.82,3.46-31.53-.59-2.28-2.82-3.74-5.14-3.37l-3.91,16.64s1.07-13.73-1.48-15.81c-1.23-1.17-3.1-1.37-4.55-.49Z"/>
  <path class="cls-39" d="M646.94,284.1c-.05-2.67-.51-5.42-1.35-7.95-1.04-3.17-3.05-5.62-5.4-7.94-1.02-1-2.08-1.97-3.16-2.89-.45-.39-1.33-1.45-1.93-1.59-.14-.03-.05.32.09.07.16-.29.1-.96.13-1.28l.37-3.61c.08-.76.02-.68.29-1.24.56-1.15,1.08-2.32,1.57-3.51,1.13-2.75,1.89-5.51,2.05-8.49.08-1.44-.02-2.93-.64-4.25-.57-1.22-1.81-2.71-3.16-3.11-1.52-.44-2.02.68-2.8,1.71-2.63,3.47-5.25,6.93-7.88,10.4-.55.73.82.9,1.2.4,3.01-3.97,6.01-7.93,9.02-11.9l-.86.31c2.05.23,3.33,2.67,3.59,4.53s-.04,3.84-.39,5.65c-.4,2.11-1.3,4.16-2.17,6.12-.39.87-.98,1.78-1.21,2.7-.31,1.25-.28,2.69-.41,3.97-.07.7-.44,1.77.05,2.33.79.88,1.94,1.58,2.83,2.37,1.62,1.44,3.18,2.95,4.56,4.63,2.89,3.51,4.05,8.21,4.13,12.71.01.74,1.48.5,1.46-.12h0Z"/>
  <path class="cls-39" d="M642.91,260.97c2.05.2,4.09.73,6.03,1.38,4.13,1.37,8.03,3.58,10.89,6.9.44.51,1.81-.08,1.32-.65-2.95-3.43-6.95-5.75-11.2-7.19-2.1-.71-4.33-1.31-6.55-1.52-.73-.07-1.47.98-.5,1.08h0Z"/>
  <path class="cls-32" d="M499.71,284.17s39.68,20.46,52.21,32.75c16.02,15.72,46.63,110.78,53.37,128.76,6.74,17.97-36.31,6.47-36.31,6.47l-57.51-5.43-8.58-35.9-4.57-115.21,1.39-11.44Z"/>
  <path class="cls-32" d="M539.38,432.02s49.43-9.03,48.87-19.1c-.37-6.72-9.82-3.61-10.59-10.29l29.89-61.07c1.62-4.55,19.03-44.48,20.45-43.44l.06,3.54c5.57,4.95,18.03,9.51,25.57,9.45l6.52,1.89c2.06,1.05-9.57,40.54-10.49,44.85-3.96,18.42-17.31,63.16-19.82,73.21-3.54,14.22-28.53,45.19-44.67,40.12-39.02-12.24-38.16-29.7-45.79-39.15Z"/>
  <path class="cls-32" d="M580.69,441.84c6.13,16.35,5.95,19.77,5.95,19.77l-56.86-47.16-27.6-13.46-4.16-104.79,1.27-10.41s36.09,18.61,47.48,29.79"/>
  <path class="cls-1" d="M583.92,388.48c-3.84,7.88-7.1,16.11-9.05,24.67-1.9,8.33-2.63,17.24-.3,25.57,1.3,4.64,3.58,8.92,6.75,12.56.28.32,1.51-.32,1.45-.39-11.97-13.76-8.79-33.6-3.1-49.37,1.64-4.54,3.56-8.98,5.68-13.31.07-.15-1.25-.08-1.42.27h0Z"/>
  <path class="cls-18" d="M597.74,647.4l2.42,32.96-7.46,14.5-9.85,13.08-24.76,15.35s-3.73-1.3.74-6.97c4.29-4.93,9-9.59,14.09-13.94l4.54-16.19-3.12-7.82-4.81.18s-1.49,20.89-5.25,24.63c-.65.65-1.2,1.19-1.67,1.63-1.3,1.24-3.38,1.09-4.51-.32l-1.66-2.08,3.29-30.93s3.75-13.3,5.1-16.38c1.7-2.99,4.5-7.27,6.73-10l1-4.22,24.64,2.22.54,4.31Z"/>
  <path class="cls-11" d="M560.4,380.48c-1.09,20.22-4.68,40.26-5,60.52-.15,9.31.36,18.65.67,27.96.44,13.08.9,26.16,1.41,39.24.5,12.84,1,25.68,1.79,38.5.37,6.01.8,11.97,2.37,17.82,1.92,7.14,5.85,14.35,4.22,21.93-.44,2.06-1.22,4.03-2.15,5.91-.19.38,1.23.25,1.44-.2,1.74-3.51,2.8-7.27,2.53-11.22-.25-3.6-1.47-7.03-2.61-10.42-1.42-4.23-2.69-8.49-3.37-12.91-.39-2.54-.58-5.1-.75-7.66-.84-12.11-1.3-24.25-1.79-36.37-.55-13.58-1.04-27.17-1.5-40.75-.26-7.68-.59-15.37-.77-23.05-.25-10.29.28-20.54,1.32-30.77,1.01-9.95,2.28-19.87,3.05-29.85.23-2.95.42-5.91.58-8.86.03-.55-1.42-.25-1.44.2h0Z"/>
  <polyline class="cls-10" points="-55.5 1025.8 1345.7 1025.8 1345.7 952.78 -55.5 952.78"/>
  <polygon class="cls-34" points="1240.4 924.02 1181.01 924.02 1194.55 953.4 1240.4 953.4 1240.4 924.02"/>
  <polygon class="cls-34" points="89.64 922.52 149.02 922.52 135.49 952.84 89.64 952.84 89.64 922.52"/>
  <path class="cls-25" d="M94.97,834.03h1141.52c.44,0,1.57-.66.61-.66H95.58c-.44,0-1.57.66-.61.66h0Z"/>
  <path class="cls-25" d="M100.74,677.41c.66,0,1.31,0,1.97,0h5.78c3.13-.02,6.26-.02,9.39-.03l12.81-.02c5.34,0,10.69-.02,16.03-.03,6.35-.01,12.71-.02,19.06-.03,7.3-.01,14.6-.03,21.89-.04l24.53-.04c8.99-.02,17.98-.03,26.97-.05,9.71-.02,19.41-.03,29.12-.05,10.42-.02,20.84-.04,31.26-.06l33.01-.06c11.59-.02,23.18-.04,34.76-.06,12.08-.02,24.15-.04,36.23-.06,12.5-.02,25-.04,37.49-.07s25.71-.05,38.57-.07l39.44-.07c13.37-.02,26.75-.05,40.12-.07s27.07-.05,40.61-.07l40.9-.07c13.66-.02,27.33-.05,40.99-.07s27.18-.05,40.76-.07c13.53-.02,27.06-.05,40.59-.07s26.65-.05,39.98-.07c13.14-.02,26.28-.05,39.41-.07,12.84-.02,25.69-.05,38.53-.07,12.48-.02,24.97-.04,37.45-.07,12.06-.02,24.12-.04,36.18-.06s23.14-.04,34.71-.06,22.03-.04,33.04-.06c10.39-.02,20.79-.04,31.18-.06,9.71-.02,19.41-.03,29.12-.05,8.96-.02,17.91-.03,26.87-.05,8.14-.01,16.28-.03,24.42-.04,7.24-.01,14.48-.03,21.71-.04,6.32-.01,12.63-.02,18.95-.03,5.29,0,10.58-.02,15.87-.03l12.69-.02,9.26-.02h5.64c.61-.01,1.22-.01,1.83-.01.51,0,1.55-.77.58-.76-.66,0-1.31,0-1.97,0h-5.78c-3.13.02-6.26.02-9.39.03l-12.81.02c-5.34,0-10.69.02-16.03.03-6.35.01-12.71.02-19.06.03-7.3.01-14.6.03-21.89.04l-24.53.04c-8.99.02-17.98.03-26.97.05l-29.12.05c-10.42.02-20.84.04-31.26.06l-33.01.06c-11.59.02-23.18.04-34.76.06-12.08.02-24.15.04-36.23.06-12.5.02-25,.04-37.49.07s-25.71.05-38.57.07l-39.44.07c-13.37.02-26.75.05-40.12.07-13.54.02-27.07.05-40.61.07l-40.9.07c-13.66.02-27.33.05-40.99.07s-27.18.05-40.76.07c-13.53.02-27.06.05-40.59.07s-26.65.05-39.98.07c-13.14.02-26.28.05-39.41.07-12.84.02-25.69.05-38.53.07-12.48.02-24.97.04-37.45.07-12.06.02-24.12.04-36.18.06s-23.14.04-34.71.06-22.03.04-33.04.06c-10.39.02-20.79.04-31.18.06-9.71.02-19.41.03-29.12.05-8.96.02-17.91.03-26.87.05-8.14.01-16.28.03-24.42.04-7.24.01-14.48.03-21.71.04-6.32.01-12.63.02-18.95.03-5.29,0-10.58.02-15.87.03l-12.69.02-9.26.02h-5.64c-.61.01-1.22.01-1.83.01-.51,0-1.55.77-.58.76h0Z"/>
  <path class="cls-25" d="M1067.23,500.14c-7.53,10.02-14.58,20.7-19.69,32.17-2.65,5.94-4.43,12.14-5.44,18.56-1.14,7.21-1.44,14.52-1.73,21.8-.84,21.29-1.19,42.59-1.62,63.89-.22,11.16-.43,22.33-.68,33.49-.01.66,1.44.39,1.46-.16.48-21.26.83-42.53,1.33-63.79.24-10.13.49-20.26.85-30.39.48-13.17.78-26.74,5.5-39.22,2.52-6.68,6-13,9.7-19.09s7.53-11.65,11.69-17.19c.42-.56-1.05-.5-1.36-.08h0Z"/>
  <path class="cls-25" d="M1109.12,500.31c-7.53,10.02-14.58,20.7-19.69,32.17-5.7,12.77-6.59,26.51-7.14,40.3-.84,21.29-1.19,42.59-1.62,63.89-.22,11.16-.43,22.33-.68,33.49,0,.18,1.44,0,1.45-.39.48-21.26.83-42.53,1.33-63.79.24-10.13.49-20.26.85-30.39.48-13.28.79-26.95,5.62-39.51,2.53-6.59,5.95-12.84,9.62-18.86s7.53-11.65,11.69-17.19c.06-.08-1.17-.07-1.43.27h0Z"/>
  <path class="cls-25" d="M262.47,501.93c7.53,10.02,14.58,20.7,19.69,32.17,2.7,6.05,4.47,12.37,5.47,18.91,1.08,7.06,1.38,14.21,1.66,21.34.84,21.29,1.19,42.59,1.62,63.89.22,11.16.43,22.33.68,33.49,0,.26,1.46.03,1.45-.39-.48-21.26-.83-42.53-1.33-63.79-.24-10.22-.49-20.45-.86-30.67-.48-13.21-.82-26.8-5.62-39.29-2.53-6.59-5.95-12.84-9.62-18.86-3.61-5.92-7.53-11.65-11.69-17.19-.27-.36-1.57.23-1.45.39h0Z"/>
  <path class="cls-25" d="M220.59,502.01c7.59,10.09,14.7,20.86,19.8,32.45,5.61,12.72,6.44,26.43,6.98,40.15.83,21.2,1.19,42.42,1.61,63.63.22,11.16.43,22.33.68,33.49,0,.39,1.46.13,1.45-.39-.48-21.38-.84-42.77-1.34-64.16-.24-10.1-.49-20.2-.86-30.3-.48-13.34-.84-27.05-5.75-39.64-2.57-6.59-6.01-12.85-9.7-18.87-3.56-5.82-7.42-11.46-11.52-16.91-.27-.35-1.66.13-1.35.55h0Z"/>
  <path class="cls-18" d="M485.2,274.72l-59.52-3.18-10.03,20.18s16.53,15.57,18.27,16.36c1.75.79,42.36,11.21,42.36,11.21,0,0,46.76-13.38,46.13-13.3-.63.09-37.22-31.27-37.22-31.27Z"/>
  <path class="cls-18" d="M421.67,226.68s7.99,23.31-3.71,47.06c-1.12,2.28-13.44,7.39-13.44,7.39l19.81,6.49c13.57,3.15,43.93,3.21,57.07-.82l11-6.12s-13.83-3.07-14.49-6c-.66-2.93,1.91-24.94,1.91-24.94"/>
  <path class="cls-35" d="M420.57,237.57c0,.07.02.14.03.21-.03-.09-.05-.16-.03-.21Z"/>
  <path class="cls-18" d="M472.38,277.24l23.75-2.04,11.76-3.27c1.21-.04,6.67-12.35,7.42-13.94,2.32-4.92,4.55-11.52,5.87-16.81,1.41-5.67,4.71-10.69,5.23-17.46.38-4.96.24-8.41-2.79-16.31-.77-2.01-.89-4.04-.49-6.26.85-4.67.98-10.09,1.98-16.34.08-.49.54-2.87.32-3.39,0,0-.14-25.85-5.24-34.86-5.1-9-12.26-12.9-19.13-14.33-6.87-1.43-26.85.74-26.85.74l-27.87-2.65-22.97,12.75-10.59,29.15,3.29,33.09,4.95,29.46"/>
  <path d="M503.4,202.63s6.01-6.26,10.5-6.76c6.54-.74,8.25.71,10.63,3.66,0,0-4.35-3.05-8.95-2.41-4.39.61-12.18,5.51-12.18,5.51Z"/>
  <path d="M481.24,202.69s-9.07-5.62-13.47-5.65c-6.42-.04-13.98,3.99-15.98,7.18,0,0,9.96-5.91,14.48-5.76,4.32.15,14.97,4.22,14.97,4.22Z"/>
  <path d="M485.71,179.39c-.46,1.49-.93,2.99-1.39,4.49-.36,1.14-1.08,3.77-1.44,4.91-3.56-2.15-6.59-4.65-8.95-5.83-4.69-2.33-9.39-5.04-14.61-5.85-2.5-.39-4.78-.45-7.13.09-.74.17-2.93,1.23-3.74.53-.34-.28.86-1.93.99-2.1,2.44-3.32,6.28-3.82,10.68-3.44,8.96.78,17.36,3.57,25.6,7.2"/>
  <path d="M524.97,171.06s-2.47.05-2.49.05c-6.92.11-13.28,2.23-19.46,5.19.45,1.5.9,3,1.35,4.51.35,1.15.91,3.23,1.25,4.37,2.63-1.84,4.82-3.75,6.58-4.73,3.5-1.95,7.17-4.05,11.18-4.46.32-.03,2.04-.18,2.35-.19.59-2.43-.15-4.58-.78-4.75Z"/>
  <path class="cls-28" d="M485.52,254.33l16.85-1.37s-3.79,6.67-7.91,6.79c-2.58.08-6.11-2.6-8.95-5.42Z"/>
  <g>
    <path class="cls-6" d="M498.26,229.17c-1.89,1.09-4.83.93-6.81-.24-.44-.26-1.86.05-1.25.41,2.61,1.55,6.82,1.57,9.27.17.24-.14.19-.33-.12-.43-.32-.1-.83-.06-1.09.09"/>
    <path class="cls-6" d="M489.35,228.81c-1.31-.59-2.77-.87-4.22-.95-.21,0-.48.08-.64.23-.12.12-.14.27.02.35.68.37,1.53.51,2.32.47.25-.01.57-.08.7-.3.12-.2-.12-.33-.31-.32-.65.03-1.31-.08-1.87-.39-.21.19-.41.39-.62.58,1.3.06,2.6.33,3.77.86.23.11.56.02.76-.11.15-.1.31-.32.08-.43"/>
    <path class="cls-6" d="M483.61,229.16c-1.69,0-3.71-.69-4.58-1.97-1.31-1.93-.23-5.01,1.84-6.33.23-.14.1-.32-.14-.36-.31-.06-.66.07-.9.22-1.81,1.15-2.93,3.68-2.6,5.52.31,1.72,1.96,2.88,4,3.32.61.13,1.25.21,1.88.21.26,0,.72-.09.83-.3.12-.21-.12-.3-.36-.29"/>
    <path class="cls-6" d="M501.34,228.2c-.1-.2.07-.33.2-.33.46,0,.92-.15,1.3-.48.16.18.31.37.46.55-.91.13-1.82.46-2.62,1.05-.16.12-.4.05-.55-.07-.11-.09-.24-.3-.07-.42"/>
    <path class="cls-6" d="M500.06,228.49c.9-.65,1.91-1.01,2.94-1.16.15-.02.35.06.46.19.09.11.11.26,0,.35"/>
    <path class="cls-6" d="M504.86,228.34c1.1-.08,2.37-.87,2.88-2.19.76-1.99-.07-4.31-1.48-5.52-.15-.13-.08-.31.07-.37.2-.07.43.04.59.17,1.23,1.06,2.06,2.82,1.93,4.67-.12,1.73-1.14,2.97-2.44,3.5-.39.16-.8.27-1.21.3-.17.01-.47-.06-.56-.26-.09-.21.06-.3.22-.31"/>
  </g>
  <path class="cls-2" d="M464.39,166.93s25.88-4.66,43.84-1.71"/>
  <g>
    <g>
      <path d="M519.97,144.33c-.26.75-.28,1.55.35,1.96.38.24.95.38,1.37.57-.34-1.04-.87-1.97-1.71-2.53Z"/>
      <path d="M519.24,144.41c-.21.61-.28,1.33.1,1.89.19.28.5.45.8.58.19.08.39.15.58.22.08.03.16.06.23.08.04.01.08.02.11.04-.14-.08,0,0,.04.02.27.12.6.1.87-.03.1-.05.21-.11.29-.19s.17-.23.13-.36c-.35-1.07-.92-2.08-1.87-2.72-.13-.09-.34-.09-.48-.08-.18.02-.4.08-.55.19-.23.17-.4.45-.1.65.07.05.13.1.2.14.03.02.02.02-.03-.02.01.01.03.02.04.04.03.02.06.05.08.07.12.11.23.22.33.34.21.25.38.52.54.8l-.06-.11c.18.34.33.71.45,1.08l1.29-.58c-.19-.08-.38-.16-.58-.23-.09-.03-.17-.06-.26-.09-.05-.02-.09-.03-.14-.05-.11-.04.1.04-.02,0-.07-.03-.15-.06-.22-.1-.04-.02-.21-.09-.22-.13l.04.04s-.03-.03-.05-.05c-.02-.02-.05-.05-.07-.07-.05-.06-.09-.12-.13-.19l.06.11c-.1-.19-.14-.4-.15-.61v.12c0-.33.07-.65.17-.95.04-.12-.07-.25-.16-.31-.13-.08-.34-.1-.48-.08-.33.04-.7.19-.81.53Z"/>
    </g>
    <g>
      <path d="M521.04,140.5c-.55-.76-1.79-.73-2.35-1.48-.63-.85,0-2.1-.32-3.12-.43-1.35-2.19-1.61-3.6-1.64.81-1.12.13-2.97-1.22-3.29-.54-.13-1.19-.07-1.57-.47-.57-.6-.11-1.8-.78-2.29-.45-.33-1.1-.09-1.65-.17-.14-.33-.28-.66-.43-.99-.13-.05-.26-.11-.39-.16,0-.69.25-1.53-.11-2.12-.37-.62-1.24-.76-2.03-.91.07-.2.19-.4.38-.56-.57.28-1.12.26-1.67.09-.16-.15-.26-.35-.25-.62v.54c-1.8-.73-3.56-3.11-5.65-2.93-.81.07-1.53.53-2.33.72-2.06.49-4.34-1.27-4.39-3.38-1.97,1.27-4.45,1.72-6.74,1.22l-.39.16c-1.26-1.29-3.22-2.44-4.25-2.11-1.56.5-3.06,1.53-4.68,1.29-1.93-.28-3.51-2.31-5.42-1.91-1.12.24,1.77,1.32.63,1.46-1.62.2-2.94-1.52-4.58-1.54-2.05-.02-3.45,2.6-5.5,2.47-1.32-.08-2.32-1.3-3.62-1.52-2.59-.44-4.85,3.16-7.31,2.22-1.05-.4-1.7-1.55-2.77-1.91-2.49-.83-3.94,3.63-6.56,3.51-1.61-.07-2.99-1.67-4.56-1.34-1.72.36,1,2.01-.73,2.28-.97.15-1.92-.45-2.9-.38-2.67.2-3.31,4.06-5.83,4.93-1.17.4-2.55-.1-3.64.46-1.35.69-1.64,2.65-2.71,3.62-.14.1-.27.2-.41.29-.08.04-.15.08-.23.12-1.1.43-2.41-.19-3.49.29-1.72.77-1.78,3.83-3.66,4.05-.84.1-1.82-.48-2.47.06-.64.52-.31,1.53-.3,2.36.02,1.66-1.85,3.04-3.42,2.53-.11.69-.39,2.83-.65,4.8l.02-.92c-.62-.67-1.82,0-2.1.87-.27.87-.03,1.82-.1,2.73-.16,1.94-2,3.58-3.95,3.52,1.62,2.26,3.15,5.64,1.09,7.51-.5.45-1.16.73-1.58,1.26-.68.87-.49,2.18.15,3.08.64.9-.46,1.16.49,1.72-1.47,1.5-3,3.86-1.64,5.46.74.88-1.49,1.23-1.4,2.37.11,1.34.3,2.19-.34,3.37-.53.99-.03,2.27.83,2.99.86.72-1.42,1.78-.34,2.04.59,1.45.05.43-.72,1.79-.68,1.2.28,4.4,1.64,4.65s1.01-.59,2.07.3c-1.38.93-2.94,2.47-2.23,3.98.67,1.43,2.67,1.28,4.21,1.81.13.72.27,1.46.41,2.24-.77.6-1.84,1.12-2.17,2.01-.36.96.32,2.05,1.23,2.51.75.38,1.61.44,2.46.44,2.19,3.63,6.69,12.23,10.53,19.68l10.23-.3.1.61c.74.02,1.48.05,2.22.07.23,0,.48,0,.67-.13.46-.34.13-1.05-.06-1.59-.44-1.26.18-2.61.64-3.85.47-1.25.73-2.83-.22-3.77-.5-.5-1.31-.78-1.44-1.48-.17-.9.92-1.46,1.48-2.19.87-1.14.14-3.08-1.27-3.37,0,0,1.46-1.87.63-5.3-.84-3.42-2.14-7.05-2.14-7.05h0c.19-.26.38-.53.5-.83.92-2.18-1.2-4.7-.48-6.95.33-1.01,1.19-1.79,1.43-2.83.46-1.97-1.5-3.79-1.44-5.81.06-2.28,2.62-4.39,1.59-6.43-.5-.99-1.72-1.48-2.17-2.5-.78-1.77,1.09-4.32-.4-5.56-.52-.43-1.29-.49-1.73-1-.88-1.02.35-2.46.78-3.74.44-1.33-.06-2.77,0-4.17.05-1.4,1.23-3.02,2.55-2.54-.58-1.35-.44-4.27.33-6.2l4.29-1.83c.15-.04.29-.1.42-.18l12.57-5.37c.63.1,1.25.14,1.86-.03.69-.18,1.27-.77,1.52-1.42l1.6-.68c.8.3,1.62.52,2.47.51,1.5-.01,3.11-.92,3.4-2.39.55,2.07,3.83,2.64,5.05.88.49-.7.78-1.72,1.61-1.88.37-.07.76.06,1.1.22,1.13.51,2.69,2.99,3.82,4.86.24.78.55,1.39,1.03,1.69.36.06,2.66.46,5.29.89-.29.54-.11,1.18.66,1.39,1.03.27,2.51-.34,3.24.2.8.6-.63,1.61-.13,2.34.31.46,1.21.57,1.82.88.72.37.98,1.01,1.65,1.41.69.41,1.79.5,2.65.22.95.03,2.19-.41,2.52.22.09.17.05.36.05.54,0,.72.62,1.4,1.51,1.65.89.25,1.98.04,2.63-.5.63-.52.83-1.29,1.51-1.78.21-.15.47-.28.72-.41.25.21.55.37.9.47.89.25,1.98.04,2.63-.5.63-.52.83-1.29,1.51-1.78.57-.41,1.46-.62,1.73-1.18.42-.89-1.1-1.91-.35-2.67.68-.69,2.21-.13,3.21-.54.39-.16.6-.44.68-.76,1.89-.97,3.84-3.2,6.37-4.05.07.02.13.04.2.06-.05.32-.15.65-.08.96.35,1.44,3.07,0,3.93,1.19.65.9-.43,2.5.48,3.15.43.31,1.02.13,1.54.13.91,0,1.78.63,2.07,1.5.21.65.14,1.4.55,1.94.5.65,1.45.68,2.22.96.24.09.46.21.66.34.11-.32.26-.64.44-.9.58-.89,1.26-2.06.63-2.93Z"/>
      <path d="M521.72,140.23c-.64-.7-1.75-.74-2.31-1.48-.68-.89.03-2.17-.38-3.17-.6-1.5-2.61-1.65-3.98-1.69l.38.38c.9-1.49.1-3.34-1.6-3.68-.73-.15-1.26-.23-1.43-1.02-.1-.45-.01-.94-.29-1.35-.5-.74-1.5-.51-2.26-.55l.43.19c-.18-.42-.54-.88-.69-1.27-.19-.5.06-1.12-.11-1.68-.31-1.03-1.53-1.22-2.44-1.4l.27.27.33-.46c.42-.46-.81-.32-.95-.26l-.92-.46c-.08-.47-1.45-.09-1.45.39v.54c.43-.18.87-.35,1.3-.53-2.01-.91-3.53-3.12-5.94-2.98-1.36.08-2.61,1.13-3.97.62s-2.2-1.7-2.31-3.1c-.03-.41-1.01-.09-1.17,0-1.43.88-3.02,1.32-4.7,1.2-.88-.07-1.44-.23-2.27.1h.95c-1.13-1.11-2.74-2.37-4.42-2.27-.82.05-1.59.46-2.33.77s-1.55.65-2.41.58c-.63-.05-1.27-.43-1.81-.73-1.31-.73-2.93-1.74-4.48-1.03-.9.41-.44,1.16.34,1.46.07.03.15.18.21.18,1.08,0-.24-.53-.16-.48-.34-.23-.81-.39-1.19-.59-.75-.41-1.49-.78-2.36-.81-1.65-.06-2.87,1.01-4.15,1.88-2.05,1.39-3.51-1.03-5.63-.98-1.6.04-2.93.99-4.26,1.77-1.04.6-1.91.88-2.95.08-.69-.54-1.26-1.23-2.13-1.48-1.18-.35-2.39.16-3.31.89-1.1.88-2.27,2.89-3.85,2.51-1.68-.4-2.97-1.77-4.81-1.09-.35.13-.8.34-.9.74-.12.48.39.79.39,1.22,0,.37-.39.12-.81.02-.47-.11-.92-.22-1.4-.23-.67,0-1.34.16-1.94.47-1.32.69-2.06,2.02-2.96,3.15-.8,1-1.43,1.44-2.78,1.48-.95.03-1.87.02-2.74.48-.79.42-1.27,1.13-1.69,1.89-.23.41-.42.84-.69,1.23-.49.72-.93.85-1.8.85-1.93,0-3.27.24-4.28,2.03-.33.58-.68,1.76-1.31,2.08-.5.25-1.29-.12-1.84-.09-.33.02-.68.09-.98.22-.73.32-1.05.87-1.06,1.65,0,.62.17,1.23.01,1.84-.25.94-1.16,1.66-2.16,1.42-.29-.07-1.11.09-1.17.47-.24,1.59-.44,3.2-.65,4.8l1.45-.29c.02-.7.15-1.15-.67-1.34-.73-.17-1.62.15-2.18.62-.89.75-.8,1.8-.78,2.87.03,1.78-.84,3.82-2.93,3.87-.25,0-1.26.24-.96.66,1.08,1.55,2.37,3.7,1.97,5.69-.39,1.92-2.9,2.16-2.93,4.25-.01.91.68,1.48.75,2.28.02.24-.11.45-.09.68.02.25.24.44.2.67-.05.27-.71.85-.86,1.07-.21.3-.4.61-.57.93-.41.8-.7,1.74-.42,2.63.24.75.82.94.11,1.55-.4.34-.9.64-1.05,1.18-.23.8.17,1.73.02,2.57s-.75,1.55-.59,2.47c.06.36.21.71.4,1.02.15.24.76.71.8.98.07.49-.62.8-.75,1.22-.15.48.17.49.37.91.19.39.11.11-.04.37-.17.3-.58.52-.77.85-.66,1.21-.15,3.04.59,4.1.37.52.81.85,1.44.94.34.05.67.05,1.01-.02.09-.02.26-.08.36-.09.39-.02-.51-.34.3.29l.1-.37c-1.25.88-3.18,2.51-2.38,4.27.31.68.94,1.05,1.62,1.29.75.26,2.26.19,2.66.95.15.28.37,1.42.22,1.71s-.84.57-1.12.81c-.58.49-1.07,1.1-1.03,1.9.09,2.1,2.59,2.51,4.21,2.54l-.43-.19c3.82,6.37,7.13,13.08,10.53,19.68.08.16.27.19.43.19,3.41-.1,6.82-.2,10.23-.3l-.43-.19.1.61c.03.17.32.18.43.19,1.12.04,4.5.6,4.08-1.49-.15-.78-.45-1.26-.34-2.13.09-.67.35-1.31.59-1.94.35-.96.71-1.97.55-3s-.8-1.35-1.51-2.02c-1.21-1.16.21-1.78.89-2.72.97-1.34.19-3.26-1.35-3.7l.09.33c1.25-1.65,1.04-4.05.57-5.92-.42-1.69-.94-3.36-1.49-5.01-.12-.35-.3-1.57-.7-1.75l.09.33c2.02-2.84-1.19-5.86.49-8.73.74-1.27,1.36-2.27.92-3.78s-1.58-2.94-1.26-4.65c.27-1.44,1.32-2.6,1.66-4.02.33-1.38-.31-2.29-1.3-3.18-1.5-1.36-1.16-2.56-.9-4.38.17-1.17.05-2.17-1.09-2.76-.98-.51-1.7-.87-1.32-2.12.27-.88.86-1.62,1.04-2.53.17-.86.03-1.74-.05-2.6-.06-.61-.13-3.6,1.31-3.24.24.06,1.33-.15,1.17-.56-.72-1.89-.36-4.26.33-6.11l-.44.37c5.52-2.35,11.03-4.71,16.55-7.07.19-.08.42-.23.62-.26.04,0,.07-.04.11-.04-.67.1.42.2.61.19,1.42-.07,2.6-.69,3.23-2l-.44.37,1.6-.68-.86.07c2.45.87,6.34.79,7.18-2.31l-1.45.29c.53,1.59,2.23,2.26,3.81,2.08.75-.09,1.51-.35,2.1-.83.39-.32.63-.71.88-1.14.39-.66.62-1.07,1.43-.58.92.56,1.61,1.77,2.19,2.64.4.6.89,1.24,1.19,1.89.21.47.32.96.65,1.37.48.59,1.12.57,1.83.7,1.37.24,2.74.46,4.12.69l-.27-.27c-.39.98.32,1.59,1.26,1.72.65.09,1.27-.09,1.92-.07,1.09.03.96.53.67,1.3-.38,1.01.07,1.41,1.01,1.77.8.3,1.25.64,1.86,1.22.41.39.83.65,1.38.81,1.08.3,2.16.02,3.24-.08,1.14-.1.93.51,1.26,1.24.22.48.67.85,1.15,1.06,1.01.46,2.29.33,3.29-.1,1.31-.57,1.72-1.97,2.96-2.6l-1.12.09c1.48,1.07,3.81.84,5.07-.5.4-.43.64-.95,1.09-1.34s.99-.53,1.43-.88c.7-.55.76-1.1.4-1.89-.23-.51-.71-1.03.13-1.32.4-.14,1.04.02,1.48-.04.87-.11,1.38-.44,1.96-1.04.64-.66,1.6-1.18,2.35-1.75,1.16-.89,2.33-1.75,3.72-2.26l-.86.07c-.12-.03.1,1.24.35,1.44.39.3.97.31,1.45.32.75,0,1.82-.28,2.24.55.34.69-.17,1.55-.02,2.27s.7.96,1.37,1c1.33.07,2.29.11,2.69,1.6.23.87.19,1.61,1.04,2.12.76.46,1.69.48,2.46.94.34.2,1.16-.06,1.3-.43.49-1.26,1.84-2.51,1.08-3.93-.25-.46-1.64.03-1.45.39.71,1.32-.6,2.55-1.07,3.74l1.3-.43c-.82-.49-2.14-.49-2.73-1.23-.52-.65-.34-1.56-.74-2.28-.33-.57-.86-.98-1.5-1.17-.92-.28-2.34.19-2.3-1.16.03-1.1.35-2.26-1-2.65-1.25-.37-3.33.6-2.96-1.46.02-.1-.03-.2-.14-.23-1.58-.45-3.6,1.27-4.78,2.16-.88.66-1.78,1.27-2.68,1.9-.3.21-.66.69-.99.8-.41.13-1.03-.02-1.47.02-.61.06-1.37.23-1.79.73-.47.58-.15,1.12.12,1.72.59,1.28-.73,1.48-1.53,2.15-.34.29-.57.64-.83,1-.71.96-1.83,1.25-2.83.52-.32-.23-.81-.07-1.12.09-.44.23-.86.46-1.22.82-.37.38-.58.91-.97,1.26-.77.68-2.12.61-2.76-.26-.31-.43-.08-.97-.34-1.38-.37-.58-1.19-.5-1.78-.46-1.31.1-2.76.59-3.85-.36-.42-.36-.73-.79-1.22-1.07-.35-.2-.74-.29-1.11-.44-1.39-.59-.27-1.15-.28-2.13-.02-2.08-5.05.17-4.15-2.06.07-.17-.16-.25-.27-.27-1.22-.2-2.44-.4-3.66-.61-.83-.14-1.51-.06-1.98-.83-.57-.93-.98-1.93-1.59-2.85-.6-.92-1.24-1.92-2.09-2.64-1.12-.95-2.8-1.03-3.8.13-.75.87-.9,2.18-2.34,2.04-1.02-.1-1.86-.75-2.18-1.72-.15-.47-1.35-.08-1.45.29-.41,1.51-1.8,2.08-3.28,1.82-.85-.15-1.36-.55-2.19-.29-.49.15-1.02.39-1.48.63-.16.08-.3.14-.43.26-.19.18-.19.47-.4.66-.61.56-1.28.41-1.99.45-.57.03-1.04.28-1.56.5l-3.12,1.33c-3.66,1.56-7.33,3.13-10.99,4.69-.76.32-2.19.62-2.7,1.33-.6.83-.64,2.52-.68,3.5s0,1.91.35,2.8l1.17-.56c-1.17-.29-2.37.22-3.07,1.19-1.06,1.48-.45,3.14-.48,4.81-.02,1.01-.42,1.76-.83,2.65-.29.64-.61,1.4-.29,2.09.29.62.91.79,1.47,1.07.94.47,1.1,1.22.98,2.21-.16,1.37-.74,2.81.15,4.05.48.67,1.24,1.08,1.7,1.77.54.79.44,1.64.11,2.5-.52,1.38-1.52,2.63-1.54,4.16-.02,1.83,1.46,3.27,1.5,5.08.02,1.1-.69,1.85-1.17,2.78-.39.75-.52,1.5-.44,2.34.22,2.09,1.55,4.07.15,6.03-.1.14-.06.26.09.33-.29-.13-.01.22.08.48.15.43.29.86.44,1.3.49,1.48.94,2.98,1.33,4.49.46,1.78.8,4.15-.41,5.75-.09.12-.07.29.09.33.87.25,1.45,1,1.49,1.91s-.64,1.41-1.22,2.04c-.37.4-.74.88-.63,1.47.14.72.9,1,1.38,1.46,1.57,1.53.12,3.72-.32,5.4-.25.93-.21,1.62.06,2.52.07.19.13.39.17.59.25.31.15.4-.31.25-.49.13-1.26-.04-1.78-.06l.43.19-.1-.61c-.03-.17-.32-.19-.43-.19-3.41.1-6.82.2-10.23.3l.43.19c-2.56-4.97-5.12-9.93-7.79-14.83-.52-.96-1.05-1.91-1.58-2.86-.31-.54-.68-1.64-1.18-2.03-.31-.24-.79-.15-1.18-.18-.92-.09-1.76-.37-2.26-1.19-.97-1.57.72-2.45,1.8-3.26.08-.06.17-.18.15-.29-.14-.75-.27-1.49-.41-2.24-.03-.07-.07-.12-.14-.14-1.18-.37-2.89-.32-3.78-1.26-1.42-1.49.64-3.29,1.8-4.1.1-.07.24-.26.1-.37-.37-.29-.7-.52-1.18-.52-.59,0-.97.3-1.53-.13-.9-.7-1.41-2.66-1.1-3.73.36-1.26,1.48-.86.87-2.28-.03-.08-.29-.21-.29-.23,0-.14.23-.31.32-.42.2-.27.52-.58.5-.95-.02-.52-.61-.84-.86-1.26-.53-.9-.32-1.57.02-2.46.29-.75.29-1.46.24-2.25s-.07-1.17.54-1.7,1.12-.79.73-1.59c-.49-.99-.58-1.73-.12-2.76.41-.91,1.07-1.7,1.75-2.42.06-.06.09-.21,0-.27-.55-.39-.17-.6-.23-1.12-.08-.67-.66-1.19-.76-1.89-.25-1.83,1.77-2.21,2.53-3.55,1.3-2.27-.39-5.15-1.69-7.01l-.96.66c1.78-.04,3.54-.87,4.45-2.46.51-.9.52-1.79.5-2.79,0-.09.19-2.76.76-1.99.1.14-.02.68-.02.86-.01.4,1.39.12,1.45-.29.21-1.6.41-3.2.65-4.8l-1.17.47c1.43.34,3.12-.2,4.01-1.4.46-.61.6-1.27.57-2.01-.02-.36-.26-1.17,0-1.47.3-.36,1.18-.04,1.6-.05,1.37-.02,2.27-.82,2.9-1.96.35-.64.64-1.53,1.24-1.98.81-.62,2.21-.11,3.2-.34,1.71-.39,2.26-1.82,3.08-3.18.48-.79.77-1.08,1.86-1.2.47-.05.96.02,1.43-.03.77-.08,1.5-.32,2.15-.74,1.25-.81,1.95-2.16,2.89-3.27.26-.3.56-.68.93-.86.65-.33,1.31-.08,1.98.06.77.16,1.63.24,2.36-.11.33-.16.63-.37.66-.76.03-.35-.55-.9-.44-1.19.16-.44,2.3.77,2.66.91.68.27,1.39.41,2.12.29,1.37-.21,2.39-1.14,3.34-2.08.45-.45.98-1.12,1.58-1.37,1.06-.45,1.98.93,2.76,1.46,1.18.81,2.56.66,3.82.11,1.69-.73,3.25-2.54,5.18-1.59,1.62.79,2.8,1.63,4.63.89.69-.28,1.29-.72,1.89-1.15,1.12-.81,1.99-1.18,3.3-.51.87.45,1.69,1,2.69,1.06.44.03,1.33.01,1.63-.41.26-.37.01-.54-.29-.79-.13-.11-.43-.41-.59-.45.03,0-.44-.23-.11.01.19.14.54.29.84.43,2.03.88,3.41,2.09,5.75,1.49,1.01-.26,2.24-1.2,3.28-1.16,1.21.04,2.5,1.25,3.31,2.04.22.22.72.08.95,0,.4-.16.26.05.07.03.33.05.65.09.98.11.75.05,1.5.01,2.24-.1,1.43-.22,2.77-.74,4-1.49h-1.17c.18,2.32,2.42,3.92,4.68,3.63.59-.08,1.12-.31,1.68-.49,1.2-.39,1.9-.2,2.9.44,1.1.71,2.05,1.62,3.25,2.17.35.16,1.3-.04,1.31-.53v-.54c-.48.13-.96.26-1.45.39.24,1.36,1.98.95,2.92.6l-.95-.26c-.26.29-.27.32-.43.66-.08.16.17.25.27.27.64.12,1.39.21,1.75.81.34.57.15,1.31.11,1.94,0,.11.03.19.14.23.4.16.52.65.68,1,.07.17.27.18.43.19.63.03,1.32-.05,1.58.66.1.26.05.59.1.86.11.55.33.91.86,1.14.72.31,1.45.12,2.03.76s.71,1.66.25,2.42c-.17.28.15.37.38.38.85.02,1.86.08,2.56.62.87.66.65,1.63.64,2.58-.03,2.13,1.55,1.67,2.69,2.93.31.34,1.69-.17,1.35-.55Z"/>
    </g>
    <g>
      <path d="M522.15,147.61c.16-.37-.09-.58-.46-.75.11.32.19.66.26.99.08-.07.16-.14.2-.24Z"/>
      <path d="M522.87,147.53c.05-.12.06-.23.04-.36,0-.11-.07-.21-.13-.29-.07-.1-.17-.17-.27-.23-.08-.06-.17-.1-.26-.14-.12-.06-.25-.07-.39-.06-.16,0-.33.04-.48.11-.1.05-.21.11-.29.18-.08.07-.18.21-.14.33.11.33.19.66.26.99l.05.09.1.07.13.05c.08.02.17.03.25.02.28-.01.55-.11.77-.29.06-.05.11-.1.16-.16s.1-.12.13-.19c.04-.05.06-.11.05-.17,0-.06-.01-.11-.05-.15-.09-.1-.27-.14-.39-.14-.19,0-.39.03-.57.11l-.16.09c-.09.05-.16.12-.22.21-.02.05-.05.09-.08.13l.09-.11s-.07.08-.12.11l1.31-.06c-.07-.34-.16-.67-.26-.99l-1.3.56c.1.05.2.1.28.16l-.1-.07c.07.05.13.11.18.19l-.05-.09c.03.06.05.12.05.19v-.11c0,.07-.02.15-.05.21-.05.11.07.23.15.28.07.03.14.05.22.06.09.02.18.02.26,0,.19-.03.39-.08.55-.19l.13-.1c.07-.06.12-.13.14-.22Z"/>
    </g>
    <g>
      <path d="M521.95,147.86c-.14.12-.32.21-.46.34-.44.42-.35,1.16-.03,1.67.23.36.55.65.86.95-.06-.47-.1-.94-.15-1.4-.05-.51-.12-1.04-.23-1.56Z"/>
      <path d="M521.38,147.8c-.29.23-.6.4-.78.74-.14.26-.16.6-.11.89.12.7.67,1.19,1.16,1.66.08.08.28.08.38.08.16,0,.32-.04.47-.09.18-.06.58-.2.55-.44-.12-.99-.18-1.98-.38-2.96-.02-.1-.19-.13-.27-.14-.17-.02-.37,0-.53.06s-.35.11-.49.22c-.08.06-.18.14-.16.25.2.98.26,1.97.38,2.96l1.4-.46c-.43-.42-.91-.83-1.05-1.44-.06-.24-.06-.49.04-.72.01-.03.03-.06.04-.09.01-.02.03-.05,0-.01.02-.03.04-.05.06-.08.02-.03.07-.06.02-.02.12-.1.26-.18.39-.28.06-.05.19-.15.16-.25s-.18-.13-.27-.14c-.33-.03-.76.06-1.02.27Z"/>
    </g>
    <g>
      <path d="M522.7,151.19c-.12-.13-.24-.25-.37-.38.22,1.75.63,3.49,2.01,4.5,1.42-1.41-.31-2.62-1.64-4.12Z"/>
      <path d="M523.36,150.87c-.12-.13-.24-.25-.37-.38-.25-.24-.57-.27-.89-.15-.29.11-.54.33-.5.66.22,1.76.68,3.61,2.17,4.72.35.26.89.08,1.17-.2.33-.33.6-.76.65-1.24.05-.44-.11-.85-.32-1.23-.48-.84-1.27-1.48-1.91-2.19-.24-.27-.68-.27-.99-.11-.23.12-.59.47-.34.75.59.66,1.28,1.25,1.78,1.99.05.08.1.15.15.23.06.1.04.07.07.16.03.08.05.15.07.23,0,.03.01.07.02.1.02.09,0-.01,0,.04,0,.08,0,.16-.02.24,0,.03-.02.07,0,.02-.01.05-.03.09-.05.13-.02.04-.04.07-.05.11-.02.03-.02.04,0,0l-.04.05c-.07.1-.15.19-.24.27l1.17-.2c-.59-.44-1.03-1.1-1.29-1.81-.3-.79-.44-1.63-.55-2.46l-1.39.52c.13.12.25.25.37.38.24.27.68.27.99.11.23-.12.59-.48.34-.75Z"/>
    </g>
  </g>
  <path d="M447.31,196.46l1.94,4.95c1.18,3.86,4.54,11.44,5.99,13.49,2.04,2.86,22.87,2.89,26.83.29,3.95-2.6,5.61-14.59,6.55-17.41l8.34.02c.93,3.52,4.12,14.66,5.77,16.1,1.66,1.44,11.17.66,12.25.57.89-.08,2.13-.2,3.49-.38,3.59-.45,7.93-1.29,9.2-2.7,1.89-2.08,3.68-9.75,5.19-16.99l.25-1.14c.05-.27.13-.47.13-.55h0l.27-1.31c-12.26-5.07-27.92-3.3-37.08,4.22l.08.12-8.13-.06c-9.47-5.6-25.47-8.07-36.56-3.08h0l-34.84,7.72.06,3.12,30.29-7ZM503.65,212.69c-1.03-.9-3.51-8.69-5.23-14.76,7.98-6.36,22.08-7.94,33.01-4.01v.16c-.81,3.88-2.95,14.21-4.81,16.26-2.2,2.42-21.17,3.76-22.97,2.39v-.03ZM457.67,213.91c-3.12-5.6-5.74-11.46-7.81-17.53,9.83-5.12,27.51-3.48,36.76,1.82-1.17,5.04-2.52,13.82-5.36,15.67-4.08,2.68-22.31,1.85-23.59.04h0Z"/>
  <path d="M514.87,196.02c1.24-.68,2.87-.2,3.71.51.2.17.58.68.84,1.5.34,1.05-.05,2.25-.69,3-.86.99-2.33,1.2-3.47.7-1.55-.68-2.1-2.51-1.76-3.86.06-.25.37-1.29,1.36-1.84"/>
  <path d="M469.95,198.07c-1.24-.62-3.21-.39-3.99.36-.18.18-.68.68-.89,1.51-.27,1.06.17,2.25.83,2.96.89.95,2.33,1.08,3.42.52,1.48-.76,1.91-2.61,1.51-3.95-.08-.24.15-.73-.85-1.23"/>
  <path class="cls-28" d="M470.35,238.95c-.97.92-2,1.99-2.04,3.32-.02.48.1.96.22,1.43.18.73.37,1.45.55,2.18.04.14.08.3.18.4.11.12.28.16.44.19.51.11,1.04.22,1.55.1.51-.12.98-.54.99-1.06,0-.21-.07-.44,0-.64.15-.39.69-.36,1.09-.48,1-.3,1.16-1.61,1.57-2.57.55-1.3,1.81-2.19,3.13-2.69.67-.26,1.37-.44,1.97-.83.6-.39,1.1-1.05,1.04-1.76"/>
  <path class="cls-28" d="M513.61,237.55c1.03.85,2.14,1.84,2.27,3.17.05.48-.04.97-.12,1.44-.13.74-.27,1.48-.4,2.21-.03.15-.06.3-.15.41-.11.12-.27.17-.43.22-.5.14-1.02.29-1.53.21-.51-.08-1.02-.47-1.06-.99-.02-.21.04-.44-.05-.63-.18-.37-.72-.31-1.12-.4-1.02-.23-1.27-1.52-1.74-2.46-.64-1.26-1.96-2.05-3.31-2.47-.68-.21-1.4-.34-2.03-.69-.63-.34-1.17-.97-1.16-1.68"/>
  <path class="cls-18" d="M424.11,238c-10.23,10.94-13.18-6.74-13.18-6.74-7.81-8.74-8.14-18.32-8.09-24.89.04-6.57,7.26-6.72,7.26-6.72,6.15.45,9,3.65,14.84,24.13"/>
  <path class="cls-36" d="M420.04,220.11c-1.51-2.96-3.15-5.89-5.19-8.52-1.06-1.37-2.25-2.71-3.69-3.71-.6-.42-1.29-.8-2.02-.92-.9-.15-1.35.47-1.7,1.2-1.32,2.77-1.13,6.02-.31,8.9.17.59,1.62.2,1.45-.39-.64-2.25-.88-4.63-.29-6.92.2-.79.5-1.64.99-2.3l-.76.42c-.48.02-.09.02-.07.01.14-.04-.15-.04,0,0,.07.02.14.03.21.05.28.08.26.08.45.17.27.13.52.28.77.44,1.97,1.3,3.48,3.31,4.79,5.22,1.47,2.14,2.75,4.41,3.93,6.73.29.56,1.71.12,1.45-.39h0Z"/>
  <path class="cls-36" d="M417.56,221.2c-4.79-.03-1.73,5.67-2.16,8.25-.02.1-.09.26-.09.35,0-.15-.07.14-.08.12l.66-.14-.07-.04c-.02-.08-.23-.26-.28-.33-.17-.23-.29-.49-.41-.75-.58-1.27-.93-2.65-1.24-4-.39-1.73-.59-3.1-.45-4.83.14-1.86.51-4.72,2.43-5.63.9-.43.09-1.07-.61-.74-1.99.95-2.78,3.1-3.11,5.15-.24,1.45-.34,3-.09,4.45.29,1.69.66,3.38,1.24,4.99.28.79.65,1.99,1.41,2.48.69.44,1.62.08,1.99-.61s.2-1.56.1-2.28c-.12-.86-1.39-5.48.25-5.47.3,0,.82-.09.95-.42.11-.3-.1-.53-.42-.53h0Z"/>
  <rect class="cls-33" x="484.96" y="891.53" width="54.61" height="30.21" transform="translate(20.87 -11.48) rotate(1.31)"/>
  <rect class="cls-33" x="545.67" y="883.09" width="54.61" height="30.21" transform="translate(20.69 -12.87) rotate(1.31)"/>
  <g>
    <path class="cls-24" d="M681.17,947.43s2.02-9.29-5.52-12.95c-7.54-3.66-24.62-9.93-37.16-17.23-17.42-10.14-27.41-24.83-35.24-25.74-7.96-.92-6.84,12.9-24.27,12.76-17.29-.14-29.99-10.2-30.79-10.52-4,2.33-11.95,30.44-7.5,37.69,4.45,7.25,46.49,11.87,46.49,11.87l33.52,8.29,33.71,2.5,26.76-6.66Z"/>
    <path class="cls-1" d="M572.64,941.13c.4-5.54.14-13.44-5.39-16.53-6.38-3.55-15.18-4.6-19.69-10.93-2.79-3.92-2.71-8.85-1.89-13.39.12-.67-1.3-.48-1.41.12-.72,3.95-.9,8.13.84,11.85,1.35,2.88,3.7,4.98,6.41,6.57,3.31,1.95,6.96,3.29,10.49,4.76,1.91.8,4.08,1.44,5.63,2.87,1.2,1.11,2.01,2.57,2.56,4.1,1.21,3.4,1.29,7.14,1.03,10.7-.05.7,1.36.49,1.41-.12h0Z"/>
    <path class="cls-16" d="M545.84,896.08c5.41,4.42,11.4,7.97,18.27,9.55,4.18.96,8.43,1.17,12.7,1.1,3.49-.05,6.99-.24,10.43-.84,5.89-1.03,11.86-4.33,17.93-3.31,4.25.72,8.1,3.19,11.59,5.59,3.98,2.75,7.76,5.76,11.67,8.6,2.19,1.59,4.41,3.13,6.69,4.57.9.56,1.25.8,2.25.67,2.82-.35,3.52-2.65,3.1-5.2-.06-.34-1.46-.03-1.39.37.18,1.1.31,4.79-1.84,4.22-.31-.08-.71-.49-1-.68-.46-.29-.92-.59-1.38-.89-.97-.64-1.93-1.29-2.88-1.96-1.84-1.29-3.66-2.63-5.46-3.98-3.62-2.71-7.18-5.51-11.01-7.91-2.99-1.87-6.25-3.58-9.78-4.08-5.66-.81-11.07,1.82-16.47,3.04-2.87.65-5.81.93-8.75,1.07-4.31.2-8.66.21-12.93-.5-7.73-1.28-14.43-5.02-20.44-9.92-.32-.26-1.57.28-1.3.5h0Z"/>
    <path class="cls-16" d="M598.32,945.63c-1.32-.33-2.65-.65-3.97-.98-.75-.19-1.51-.37-2.26-.56-.15-.04-.55-.06-.66-.16-.16-.15-.19.44.25-.01.39-.42.84-.79,1.27-1.16,4.82-4.12,10.87-6.24,17.17-6.5,7.14-.29,14.32.13,21.46-.03,5.6-.13,11.5-.24,16.91-1.82,1.73-.51,3.61-1.2,4.88-2.53,2.02-2.11,1.04-5.29-.05-7.61-.19-.4-1.54.06-1.39.37.92,1.96,1.96,4.74.61,6.76-.79,1.18-2.21,1.81-3.5,2.26-4.2,1.45-8.9,1.63-13.3,1.82-5.7.25-11.41.19-17.12.15-5.27-.04-10.51-.25-15.64,1.17-4.87,1.35-9.26,3.9-12.86,7.45-.1.1-.07.24.07.27,2.33.58,4.66,1.15,6.99,1.73.36.09,1.59-.48,1.13-.59h0Z"/>
    <g>
      <path class="cls-38" d="M593.38,944.68l.15.2-.28-.07s.09-.09.14-.13Z"/>
      <path class="cls-9" d="M592.73,944.96c.04.06.09.12.13.17l.02.02,1.06-.68-.25-.06h-.04c.05.17.1.35.14.53.05-.04.09-.09.14-.13.05-.04.09-.1.11-.16.03-.05.04-.1.02-.16-.02-.06-.05-.1-.1-.13-.05-.05-.11-.07-.18-.08l-.16-.02c-.12,0-.25,0-.36.04l-.18.06c-.1.04-.2.1-.28.18-.05.04-.09.09-.14.13-.05.04-.09.1-.11.16-.03.05-.04.1-.02.16l.05.09c.06.06.14.1.22.12l.25.06h.04c.05.02.1.02.16.03.09,0,.18,0,.27-.02.06,0,.13-.02.18-.05.09-.03.17-.06.25-.11l.12-.1.09-.11c.04-.05.05-.1.04-.16,0-.06-.01-.11-.05-.15-.04-.06-.09-.12-.13-.17l-.02-.02s-.1-.08-.16-.1c-.07-.03-.14-.05-.22-.05-.09,0-.18,0-.27.02-.1.01-.19.04-.28.08l-.16.08c-.09.05-.16.12-.21.2l-.05.11c-.02.08,0,.14.05.2Z"/>
    </g>
    <g>
      <path class="cls-38" d="M581.71,940.07l1.39.04c-.04,1.19.03,2.15.09,2.71-.44-.06-.92-.12-1.42-.19-.05-.63-.1-1.51-.07-2.57Z"/>
      <path class="cls-9" d="M581.45,940.49c.46.01.93.03,1.39.04l-.43-.34c-.03.94,0,1.89.1,2.82l.96-.61c-.47-.06-.95-.12-1.42-.19l.43.24c-.07-.85-.09-1.61-.06-2.46,0-.31-.36-.37-.61-.34-.18.02-.37.08-.53.18-.1.07-.25.18-.26.31-.03.89,0,1.79.07,2.68.02.19.3.22.43.24.47.06.95.13,1.42.19.33.04,1-.19.96-.61-.09-.9-.12-1.72-.09-2.61,0-.24-.22-.34-.43-.34-.46-.01-.93-.03-1.39-.04-.18,0-.38.03-.55.11-.12.05-.3.16-.37.29-.15.29.13.45.39.45Z"/>
    </g>
    <g>
      <path class="cls-38" d="M575.53,938.21c0,1.14-.04,2.33-.14,3.51l-.21-.02c-.39-.06-.78-.12-1.18-.18.09-1.11.13-2.23.13-3.3h1.39Z"/>
      <path class="cls-9" d="M574.84,938.39c0,1.17-.05,2.34-.14,3.51l1.15-.46c-.06,0-.11,0-.17-.01-.1-.01.14.03-.05-.01-.06-.01-.13-.02-.2-.03-.29-.04-.57-.09-.86-.13l.12.08c.08-1.1.13-2.2.13-3.3l-1.15.46c.46,0,.93,0,1.39-.01.33,0,.7-.09.98-.26.06-.04.19-.11.17-.2s-.18-.09-.24-.09c-.46,0-.93,0-1.39.01-.26,0-.53.06-.77.16-.12.05-.38.14-.38.3,0,1.1-.05,2.2-.13,3.3.03.05.07.07.12.08.5.08,1,.17,1.51.21.25.02.54-.07.77-.16.13-.05.37-.14.38-.3.09-1.17.14-2.34.14-3.51,0-.08-.22-.09-.24-.09-.16,0-.35.03-.51.07s-.64.16-.64.39Z"/>
    </g>
    <g>
      <path class="cls-6" d="M536.71,931.58s.5.08,1.32.21l.32-1.3c5.17.82,22.96,3.7,33.81,6.09,3.31.73,7.46,1.91,12.28,3.27,11.17,3.17,26.46,7.5,42.77,9.38,2.92.34,5.81.59,8.6.75,23.33,1.32,42.75-2.34,46.92-3.21l.12,1.34c.64-.13.98-.21.98-.21,0,0,.3,1.83.57,3.5,0,0,0,0,0,0,.02.15.05.29.07.44.1.59.18,1.14.25,1.55-11.73,6.49-61.37,4.8-72.44,1.05-.7-.24-1.45-.48-2.24-.73-.33-.1-.68-.21-1.02-.31-.52-.16-1.04-.32-1.59-.49-11.89-3.57-29.6-7.83-29.6-7.83,0,0,0,1.86-.1,4.04h0s0,.05,0,.07c-.05.92-.11,1.89-.21,2.81-20.96-.85-42.56-5.59-42.56-5.59l1.76-14.82Z"/>
      <path class="cls-9" d="M536.29,931.96c.44.07.88.14,1.32.21.34.05,1.02-.06,1.12-.47l.32-1.3-1.12.47c7.91,1.26,15.81,2.59,23.68,4.06,4.55.85,9.1,1.71,13.59,2.87,5.06,1.31,10.07,2.81,15.1,4.2,11.21,3.1,22.55,5.81,34.1,7.32s23.75,1.68,35.61.83c7.65-.55,15.31-1.47,22.82-3.02l-.79-.16.12,1.34c.03.3.64.19.79.16.33-.07.65-.14.98-.21l-.79-.16c.19,1.17.38,2.33.57,3.5.07.42.94.13,1.13.02h0c-.38,0-.75-.02-1.13-.02.11.66.21,1.32.32,1.98l.26-.4c-2.08,1.13-4.49,1.69-6.79,2.16-3.29.67-6.63,1.05-9.97,1.34-7.98.7-16.01.79-24.01.6-7.42-.17-14.87-.56-22.24-1.53-2.44-.32-4.9-.68-7.28-1.31-4.15-1.09-8.21-2.55-12.35-3.71-7.76-2.16-15.57-4.16-23.4-6.04-.37-.09-1.12.1-1.12.57,0,1.31-.04,2.63-.1,3.94-.01.25.22.29.43.31h0c-.14-.1-.28-.21-.43-.31-.07.96-.12,1.92-.21,2.88l.97-.48c-13.24-.56-26.46-2.4-39.46-4.97-.98-.19-1.97-.39-2.95-.61l.27.29c.59-4.94,1.18-9.88,1.76-14.82.07-.55-1.33-.3-1.39.17-.59,4.94-1.18,9.88-1.76,14.82-.02.18.11.26.27.29,9.52,2.08,19.23,3.53,28.92,4.56,4.59.49,9.19.85,13.8,1.05.25.01.93-.14.97-.48.09-.96.14-1.92.21-2.88.02-.25-.23-.29-.43-.31h0c.14.1.28.21.43.31.06-1.38.1-2.76.1-4.14l-1.12.57c6.86,1.65,13.7,3.4,20.5,5.25,4.82,1.31,9.58,2.77,14.35,4.25,2.24.69,4.58,1.06,6.89,1.39,7.29,1.05,14.67,1.47,22.03,1.69,8.17.24,16.37.18,24.53-.44,3.87-.29,7.75-.71,11.56-1.47,2.7-.53,5.46-1.2,7.89-2.53.14-.08.29-.22.26-.4-.1-.66-.21-1.32-.32-1.98-.07-.42-.94-.13-1.13-.02h0c.38,0,.75.02,1.13.02-.19-1.17-.38-2.33-.57-3.5-.05-.3-.63-.2-.79-.16-.33.07-.65.14-.98.21l.79.16-.12-1.34c-.03-.3-.64-.19-.79-.16-6.25,1.29-12.63,2.1-18.98,2.67-11.8,1.05-23.75,1.14-35.53-.18-11.63-1.31-23.06-3.9-34.34-6.95-9.41-2.55-18.69-5.35-28.27-7.21-8.88-1.72-17.8-3.22-26.73-4.64-.34-.05-1.02.06-1.12.47l-.32,1.3,1.12-.47c-.44-.07-.88-.14-1.32-.21s-1.63.64-.85.76Z"/>
    </g>
    <g>
      <path class="cls-6" d="M608.04,899.99c-.23.36-.61.53-.98.49-.16-.02-.32-.08-.47-.18-.48-.34-.6-1.04-.28-1.56l3.64-5.8c.56.39,1.13.82,1.72,1.27l-3.63,5.78Z"/>
      <path class="cls-9" d="M607.35,900.12s-.14.19-.16.18l.16-.05c.21-.03.21-.07,0-.11-.12-.06-.23-.16-.31-.26-.17-.22-.25-.52-.21-.8.02-.21.12-.38.22-.55.24-.39.48-.77.72-1.15l2.27-3.61c.2-.31.39-.63.59-.94l-1.34.36c.58.41,1.16.83,1.72,1.27l-.03-.12c-1.06,1.69-2.12,3.37-3.18,5.06-.15.24-.3.48-.45.72-.14.22.5.15.56.14.26-.05.66-.14.81-.38,1.06-1.69,2.12-3.37,3.18-5.06.15-.24.3-.48.45-.72.02-.05.01-.09-.03-.12-.56-.44-1.14-.86-1.72-1.27-.3-.21-1.16.07-1.34.36-.63,1.01-1.27,2.02-1.9,3.03l-1.27,2.02c-.22.35-.54.74-.63,1.14-.16.71.3,1.38,1.02,1.5.79.13,1.78-.22,2.24-.88.15-.21-.51-.15-.56-.14-.27.05-.65.14-.81.38Z"/>
    </g>
    <g>
      <path class="cls-6" d="M613.05,903.62c-.23.36-.61.54-.98.49-.16-.02-.32-.08-.47-.18-.48-.35-.6-1.04-.28-1.56l3.49-5.56c.53.46,1.07.93,1.62,1.42l-3.39,5.39Z"/>
      <path class="cls-9" d="M612.37,903.75s-.15.2-.16.19l.21-.04c.24-.02.28-.04.1-.06-.14-.07-.26-.12-.37-.23-.19-.19-.29-.45-.31-.72s.07-.49.21-.71c.22-.36.44-.71.67-1.06.73-1.17,1.47-2.34,2.2-3.51.19-.31.39-.62.58-.93l-1.34.36c.54.47,1.08.94,1.62,1.42l-.03-.11c-.99,1.57-1.97,3.14-2.96,4.71-.14.23-.28.45-.42.68-.13.2.5.12.55.11.25-.05.67-.13.82-.37.99-1.57,1.97-3.14,2.96-4.71.14-.23.28-.45.42-.68.02-.04.01-.08-.03-.11-.54-.48-1.08-.95-1.62-1.42-.14-.12-.56,0-.71.03-.2.05-.51.14-.63.33-.61.98-1.23,1.96-1.84,2.93l-1.21,1.92c-.22.36-.54.74-.61,1.16-.12.69.34,1.31,1.03,1.42.78.12,1.78-.23,2.24-.88.14-.2-.5-.12-.55-.11-.26.05-.66.13-.82.37Z"/>
    </g>
    <g>
      <path class="cls-6" d="M621.12,902.39l-3.05,4.85c-.23.36-.61.54-.98.49-.16-.02-.32-.08-.47-.18-.48-.34-.6-1.04-.28-1.56l3.16-5.04c.53.47,1.06.95,1.61,1.43Z"/>
      <path class="cls-9" d="M620.47,902.39c-.97,1.54-1.94,3.08-2.91,4.63-.05.07-.09.15-.14.22-.06.09-.2.18-.06.15.13-.03.05,0-.02-.06-.1-.08-.21-.13-.29-.24-.32-.4-.22-.89.02-1.28l1.6-2.55c.49-.77.97-1.55,1.46-2.32l-1.29.27c.54.48,1.07.96,1.61,1.43.34.3,1.64-.23,1.3-.53-.54-.48-1.08-.95-1.61-1.43-.29-.26-1.09-.05-1.29.27-1.03,1.64-2.06,3.28-3.09,4.92-.33.53-.44,1.14-.05,1.68.68.95,2.36.58,2.97-.27.51-.71.94-1.5,1.41-2.24.56-.88,1.11-1.77,1.67-2.65.17-.27-.15-.36-.36-.36-.28,0-.76.11-.92.37Z"/>
    </g>
    <g>
      <path class="cls-6" d="M623.08,910.87c-.23.36-.61.54-.98.49-.16-.02-.32-.08-.47-.18-.48-.35-.6-1.04-.28-1.56l2.85-4.54c.54.46,1.08.92,1.64,1.38l-2.77,4.41Z"/>
      <path class="cls-9" d="M622.42,910.8s-.09.09-.12.09c.02,0,.05-.02.02-.03-.15-.04-.29-.18-.36-.32-.15-.29-.11-.6.05-.87s.32-.51.48-.77c.62-.99,1.24-1.97,1.86-2.96.17-.27.34-.53.5-.8l-1.2.32c.54.47,1.09.93,1.64,1.38l-.12-.46c-.92,1.47-1.85,2.94-2.77,4.41-.18.29.16.53.42.56.35.04.72-.12.91-.42.92-1.47,1.85-2.94,2.77-4.41.11-.17.01-.35-.12-.46-.55-.46-1.1-.92-1.64-1.38-.35-.3-.99,0-1.2.32-.54.85-1.07,1.71-1.61,2.56-.33.52-.66,1.05-.99,1.57-.28.44-.52.84-.47,1.39.07.68.62,1.19,1.28,1.31.8.14,1.54-.25,1.99-.89.2-.29-.17-.53-.42-.56-.36-.04-.71.12-.91.42Z"/>
    </g>
    <g>
      <path class="cls-6" d="M628.1,914.49c-.23.36-.61.53-.98.49-.16-.02-.32-.08-.47-.19-.48-.34-.6-1.04-.28-1.56l2.66-4.23c.56.43,1.12.87,1.7,1.3l-2.63,4.18Z"/>
      <path class="cls-9" d="M627.46,914.52s-.2.22-.2.23c0-.1.37,0,.26-.09-.07-.06-.2-.09-.29-.16s-.15-.15-.2-.24c-.21-.36-.18-.78.03-1.13.13-.22.27-.43.4-.64.59-.94,1.18-1.88,1.77-2.81.16-.26.33-.52.49-.78l-1.34.36c.56.44,1.12.88,1.7,1.3l-.04-.14c-.88,1.39-1.75,2.79-2.63,4.18-.15.24.5.21.57.2.29-.05.64-.15.81-.42.88-1.39,1.75-2.79,2.63-4.18.02-.06,0-.1-.04-.14-.57-.43-1.13-.86-1.7-1.3-.18-.14-.53-.07-.72-.02-.23.06-.49.16-.62.38-.51.81-1.02,1.63-1.54,2.44l-.91,1.45c-.26.41-.49.82-.37,1.34.35,1.44,2.54,1.1,3.21.12.17-.25-.15-.31-.35-.3-.27,0-.76.1-.93.35Z"/>
    </g>
    <g>
      <path class="cls-38" d="M532.13,914.98h-.02s0,0,0-.01c0,0,.02,0,.03.01Z"/>
      <path class="cls-9" d="M531.85,914.69h-.02c.32.05.65.08.97.12,0,0,0-.01,0-.02l-1.25.53s.02,0,.03.01c.07.03.13.05.21.05.08.01.17.01.25,0,.1,0,.19-.03.28-.07.09-.03.17-.06.25-.11l.13-.09c.07-.06.11-.12.14-.21v-.1c-.03-.07-.07-.12-.14-.16,0,0-.02,0-.03-.01l-.13-.04c-.08-.02-.16-.02-.24-.01-.06,0-.12,0-.18.02-.1.01-.19.04-.28.08l-.16.08-.13.09c-.05.04-.09.09-.11.15-.03.05-.04.1-.02.15,0,0,0,.01,0,.02.02.07.07.12.14.16.07.03.13.05.21.05.08.01.17.01.25,0,.13-.02.25-.05.37-.1h.02c.08-.04.15-.08.22-.14.06-.04.11-.09.15-.15.04-.05.05-.1.05-.16,0-.05,0-.1-.05-.14l-.09-.07c-.09-.04-.18-.06-.28-.06h-.18c-.13.02-.25.06-.37.11Z"/>
    </g>
  </g>
  <g>
    <g>
      <path class="cls-24" d="M617.8,955.02s2.02-9.29-5.52-12.95c-7.54-3.66-24.62-9.93-37.16-17.23-17.42-10.14-27.41-24.83-35.24-25.74-7.96-.92-6.84,12.9-24.27,12.76-17.29-.14-29.99-10.2-30.79-10.52-4,2.33-11.95,30.44-7.5,37.69,4.45,7.25,46.49,11.87,46.49,11.87l33.52,8.29,33.71,2.5,26.76-6.66Z"/>
      <path class="cls-16" d="M619.27,954.92c.41-1.93.33-4.06-.06-5.97-.77-3.79-3.17-6.48-6.62-8.12-8.38-3.98-17.09-7.22-25.48-11.19-4.87-2.31-9.69-4.77-14.22-7.7-4.39-2.84-8.5-6.08-12.46-9.5-3.28-2.82-6.44-5.79-9.75-8.58-2.4-2.02-4.98-4.13-7.95-5.24-2.29-.86-4.84-.92-7,.33-2.04,1.17-3.43,3.14-4.9,4.91-1.75,2.11-3.68,4.02-6.18,5.23-3.92,1.89-8.49,1.9-12.73,1.47-8.23-.82-16.16-3.86-23.15-8.23-1.47-.92-3.32-2.88-5.09-1.56-1.64,1.23-2.57,3.5-3.35,5.33-2.76,6.44-4.51,13.53-5.39,20.47-.39,3.11-.63,6.33-.16,9.45.31,2.06,1.02,3.89,2.68,5.2,1.78,1.4,4.01,2.28,6.11,3.04,2.91,1.05,5.91,1.85,8.92,2.57,6.54,1.57,13.18,2.72,19.83,3.71,2.46.37,4.92.71,7.38,1.02,1.15.15,2.35.4,3.52.43.28,0-.28-.08-.22-.07.13.02.26.06.39.1.62.15,1.24.31,1.86.46,2.34.58,4.67,1.15,7.01,1.73,5.99,1.48,11.99,2.96,17.98,4.44,2.45.61,4.99,1.51,7.52,1.7,10.39.77,20.78,1.54,31.17,2.31.92.07,1.8.2,2.71-.01,1.84-.43,3.68-.92,5.51-1.37,5.79-1.44,11.58-2.88,17.37-4.33,1.19-.3,2.38-.59,3.56-.89,1.8-.45,1.25-2.49-.55-2.04-5.65,1.41-11.31,2.82-16.96,4.23-2.94.73-5.88,1.46-8.82,2.2-.27.07-.58.1-.83.21-.49.21.95.07.54-.03-.63-.15-1.38-.1-2.03-.15-7.06-.52-14.13-1.05-21.19-1.57-2.96-.22-5.93-.44-8.89-.66-.5-.04-1.01-.11-1.51-.11.49,0,.32.08.05.01-.32-.08-.64-.16-.96-.24-6.53-1.61-13.07-3.23-19.6-4.84-3.25-.8-6.49-1.6-9.74-2.41-1.15-.28-2.3-.65-3.47-.83-5.33-.83-10.7-1.37-16.03-2.26-7.93-1.31-16.08-2.7-23.62-5.58-2.06-.79-4.81-1.82-5.9-3.71-1.62-2.82-1.18-6.94-.9-10.02.42-4.5,1.35-8.96,2.55-13.32,1.01-3.68,2.19-7.46,4.02-10.83.28-.52.51-.93.86-1.38.39-.5.27-.42.69-.68l-1.8.31c-.48-.22.36.26.55.39.56.37,1.12.75,1.69,1.11,1.87,1.19,3.81,2.27,5.79,3.26,5.84,2.92,12.19,4.92,18.7,5.6,6.02.63,12.36.29,17.53-3.18,3.13-2.1,5.03-5.22,7.63-7.84.35-.35,1.05-.91,1.33-1.07.58-.32.89-.43,1.52-.44,1.53-.03,3.18.73,4.56,1.56,4.68,2.83,8.63,6.91,12.71,10.51,5.57,4.92,11.38,9.59,17.81,13.35,6.53,3.83,13.45,6.99,20.39,10,5.64,2.45,11.41,4.65,16.94,7.34,4.33,2.1,5.85,6.71,5.33,11.26-.04.32-.08.63-.14.94-.31,1.45,2.66,1.12,2.94-.21Z"/>
    </g>
    <path class="cls-16" d="M509.28,948.73c.4-5.55.14-13.44-5.39-16.54-6.37-3.57-15.17-4.59-19.68-10.93-2.79-3.92-2.71-8.84-1.88-13.38.13-.69-1.3-.51-1.41.11-.72,3.95-.9,8.13.84,11.85,1.35,2.88,3.7,4.99,6.41,6.58,3.31,1.95,6.96,3.29,10.5,4.77,1.91.8,4.08,1.44,5.63,2.86,1.2,1.11,2.01,2.57,2.56,4.09,1.21,3.4,1.29,7.13,1.03,10.69-.05.72,1.36.52,1.41-.11h0Z"/>
    <path class="cls-16" d="M482.47,903.68c5.35,4.37,11.25,7.88,18.03,9.51,4.25,1.02,8.59,1.24,12.95,1.18,3.49-.05,7-.24,10.44-.84,5.88-1.03,11.86-4.33,17.93-3.32,4.25.71,8.1,3.17,11.58,5.57,3.98,2.75,7.76,5.76,11.67,8.6,2.19,1.59,4.41,3.13,6.69,4.57.86.54,1.28.83,2.26.71,2.84-.33,3.5-2.74,3.08-5.26-.07-.42-1.47-.1-1.39.37.2,1.2.16,4.76-1.85,4.18-.46-.13-.98-.64-1.39-.91-.46-.29-.92-.59-1.37-.9-.97-.64-1.92-1.3-2.87-1.97-1.83-1.29-3.64-2.63-5.43-3.98-3.56-2.67-7.07-5.41-10.85-7.77-2.98-1.86-6.24-3.56-9.77-4.02-5.66-.74-11.01,1.86-16.41,3.07-2.9.65-5.87.93-8.84,1.06-4.31.19-8.66.2-12.92-.53-7.66-1.31-14.28-5-20.24-9.87-.35-.29-1.64.25-1.3.53h0Z"/>
    <path class="cls-16" d="M534.81,953.12c-2.33-.58-4.66-1.15-6.99-1.73l.14.53c3.6-3.55,8.01-6.03,12.94-7.2,5.75-1.36,11.85-.79,17.71-.77,5.53.02,11.08.02,16.6-.36,4-.28,8.32-.63,12.04-2.25,1.24-.54,2.51-1.29,3.26-2.44,1.39-2.14.43-4.97-.56-7.06-.24-.51-1.6-.08-1.39.37.91,1.94,1.97,4.72.6,6.7-.79,1.14-2.19,1.75-3.45,2.19-4.09,1.41-8.64,1.62-12.92,1.83-5.69.27-11.4.22-17.1.18-5.28-.04-10.58-.3-15.74,1.06-4.97,1.31-9.47,3.89-13.12,7.5-.21.21-.16.46.14.53,2.33.58,4.66,1.15,6.99,1.73.48.12,1.64-.6.84-.79h0Z"/>
    <g>
      <path class="cls-38" d="M530.01,952.27l.15.2-.28-.07s.09-.09.14-.13Z"/>
      <path class="cls-9" d="M529.36,952.52c.04.06.09.12.13.17l.02.02,1.21-.56-.25-.06h-.04c0,.11-.01.24-.02.36.05-.05.11-.1.16-.15.02-.02.04-.04.07-.06l-.09.09h0c.05-.04.09-.08.12-.13.03-.03.04-.08.03-.12-.02-.05-.04-.08-.09-.09-.05-.03-.11-.05-.17-.05h-.15c-.12,0-.24.02-.36.05l-.18.06c-.1.04-.2.09-.29.15-.05.05-.11.1-.16.15-.02.02-.04.04-.07.06l.09-.09h0s-.06.06-.09.09c-.04.04-.06.08-.05.13,0,.03,0,.05.02.07.02.04.06.07.11.08l.25.06h.04c.07.03.13.04.2.04.08,0,.17,0,.25-.01l.19-.04c.09-.02.18-.05.26-.1.05-.02.1-.04.14-.08.06-.03.11-.07.16-.13l.05-.09c.02-.06,0-.11-.04-.15-.04-.06-.09-.12-.13-.17l-.02-.02s-.09-.06-.15-.06c-.07-.02-.14-.03-.21-.02-.09,0-.18.01-.27.04-.09.02-.19.04-.28.08l-.16.07c-.08.04-.16.1-.22.17l-.05.09c-.02.06,0,.11.04.15Z"/>
    </g>
    <g>
      <path class="cls-38" d="M518.34,947.66l1.39.04c-.04,1.19.03,2.15.09,2.71-.44-.06-.92-.12-1.42-.19-.05-.63-.1-1.51-.07-2.57Z"/>
      <path class="cls-9" d="M518.08,948.08c.46.01.93.03,1.39.04l-.44-.35c-.03.94,0,1.89.1,2.82l.96-.61c-.47-.06-.95-.12-1.42-.19l.43.24c-.07-.85-.09-1.6-.06-2.46,0-.32-.36-.38-.61-.35-.18.02-.37.08-.53.18-.1.07-.25.18-.26.32-.03.89,0,1.79.07,2.68.02.19.3.22.43.24.47.06.95.13,1.42.19.34.04,1-.19.96-.61-.04-.37-.06-.73-.08-1.1,0-.12,0-.23-.01-.35,0-.07,0,.05,0-.03,0-.03,0-.06,0-.09,0-.06,0-.13,0-.19,0-.28,0-.57,0-.85,0-.24-.22-.35-.44-.35-.46-.01-.93-.03-1.39-.04-.18,0-.38.03-.55.1-.12.06-.3.16-.37.29-.15.29.13.45.39.46Z"/>
    </g>
    <g>
      <path class="cls-38" d="M512.17,945.8c0,1.14-.04,2.33-.14,3.51l-.21-.02c-.39-.06-.78-.12-1.18-.18.09-1.11.13-2.23.13-3.3h1.39Z"/>
      <path class="cls-9" d="M511.47,945.88c0,1.17-.05,2.34-.14,3.51l.96-.49c-.06,0-.11,0-.17-.01-.12,0,.19.03-.01,0-.06-.01-.13-.02-.2-.03-.29-.04-.57-.09-.86-.13l.27.31c.08-1.1.13-2.2.13-3.3l-.96.49c.46,0,.93,0,1.39-.01.31,0,.74-.1.92-.39.17-.27-.14-.44-.38-.44-.46,0-.93,0-1.39.01-.22,0-.43.04-.62.15-.11.06-.34.19-.34.35,0,1.1-.05,2.2-.13,3.3-.01.17.11.28.27.31.51.08,1.03.18,1.54.22.21.02.44-.05.62-.15.12-.06.33-.19.34-.35.09-1.17.14-2.34.14-3.51,0-.31-.36-.36-.61-.32-.18.03-.37.08-.53.18-.09.06-.26.18-.26.31Z"/>
    </g>
    <g>
      <path class="cls-6" d="M476.21,944.15s-.37-4.73.43-4.6l.32-1.3c5.1.81,22.65,3.67,33.35,6.05,3.26.73,7.36,1.9,12.11,3.26,11.02,3.15,26.1,7.47,42.18,9.33,2.88.34,5.74.58,8.48.74,23.01,1.3,42.18-2.39,46.3-3.26l.12,1.34c.63-.13.97-.21.97-.21,0,0,.29,1.83.55,3.5,0,0,0,0,0,0,.02.15.04.29.07.44.09.59.18,1.14.24,1.55-11.58,6.51-60.55,4.87-71.47,1.14-.69-.24-1.43-.48-2.21-.73-.32-.1-.67-.21-1.01-.31-.52-.16-1.02-.32-1.57-.49-11.73-3.56-29.2-7.79-29.2-7.79,0,0,0,1.86-.1,4.04h0s0,.05,0,.07c-.05.92-.11,1.89-.21,2.81-20.68-.83-39.77-5.34-39.77-5.34l.41-10.21Z"/>
      <path class="cls-9" d="M476.9,943.97c-.05-.63-.08-1.25-.08-1.88,0-.47,0-.94.04-1.41.01-.15.08-.35.06-.5-.09-.55.52-.26-.36-.22.28-.01.7-.2.78-.5l.32-1.3-1.11.48c7.86,1.26,15.71,2.59,23.52,4.06,4.47.84,8.95,1.7,13.36,2.85,5.05,1.32,10.06,2.84,15.09,4.24,10.99,3.06,22.1,5.72,33.42,7.21,11.64,1.53,23.44,1.64,35.14.77,7.51-.56,15.04-1.48,22.41-3.04l-.79-.2.12,1.34c.03.31.63.23.79.2.32-.07.65-.14.97-.21l-.79-.2c.19,1.17.37,2.33.55,3.5.06.38.78.22.97.14h0c-.32-.05-.65-.09-.97-.14.1.66.21,1.32.31,1.98l.25-.42c-2.05,1.14-4.44,1.69-6.71,2.16-3.25.67-6.56,1.06-9.86,1.36-7.88.7-15.81.81-23.72.63-7.23-.16-14.48-.55-21.66-1.47-2.45-.31-4.92-.68-7.31-1.31-4.1-1.08-8.12-2.55-12.21-3.7-7.67-2.16-15.4-4.15-23.14-6.03-.28-.07-1.11.06-1.11.48,0,1.35-.04,2.69-.1,4.04-.01.25.22.33.43.35h0c-.14-.12-.29-.23-.43-.35-.07.96-.12,1.92-.21,2.88l.95-.5c-13.26-.55-26.69-2.27-39.62-5.32l.28.33c.14-3.4.27-6.81.41-10.21.02-.61-1.37-.36-1.39.15-.14,3.4-.27,6.81-.41,10.21,0,.18.1.28.28.33,8.71,2.05,17.65,3.39,26.54,4.35,4.45.48,8.91.82,13.39,1.01.27.01.92-.13.95-.5.09-.96.14-1.92.21-2.88.02-.25-.23-.33-.43-.35h0c.14.12.29.23.43.35.06-1.34.1-2.69.1-4.04l-1.11.48c6.77,1.64,13.52,3.38,20.23,5.22,4.77,1.31,9.48,2.79,14.21,4.25,2.21.68,4.52,1.04,6.81,1.37,7.14,1.03,14.37,1.45,21.57,1.66,8.07.24,16.18.17,24.24-.46,3.84-.3,7.67-.73,11.45-1.48,2.67-.53,5.4-1.21,7.8-2.54.15-.08.28-.24.25-.42-.1-.66-.21-1.32-.31-1.98-.06-.38-.78-.22-.97-.14h0c.32.05.65.09.97.14-.18-1.17-.37-2.33-.55-3.5-.05-.31-.61-.24-.79-.2-.32.07-.64.14-.97.21l.79.2-.12-1.34c-.03-.31-.63-.23-.79-.2-6.18,1.3-12.48,2.12-18.77,2.69-11.36,1.04-22.86,1.16-34.21-.05-11.62-1.24-23.04-3.82-34.3-6.89-9.39-2.56-18.66-5.4-28.23-7.27-8.77-1.71-17.58-3.2-26.4-4.61-.36-.06-1,.04-1.11.48l-.32,1.3.78-.5c-1.98.09-1.31,3.95-1.21,5.21.04.5,1.43.2,1.38-.37Z"/>
    </g>
    <g>
      <path class="cls-6" d="M544.67,907.58c-.23.36-.61.53-.98.49-.16-.02-.32-.08-.47-.18-.48-.34-.6-1.04-.28-1.56l3.64-5.8c.56.39,1.13.82,1.72,1.27l-3.63,5.78Z"/>
      <path class="cls-9" d="M543.99,907.71s-.14.19-.16.18l.16-.05c.21-.03.21-.07,0-.11-.12-.06-.23-.16-.31-.26-.17-.22-.25-.52-.22-.8.02-.21.12-.38.22-.55.24-.39.48-.77.72-1.15.76-1.2,1.51-2.41,2.27-3.61.2-.31.39-.63.59-.94l-1.34.36c.58.41,1.16.83,1.72,1.27l-.03-.11c-1.06,1.69-2.12,3.37-3.18,5.06-.15.24-.3.48-.45.72-.13.21.5.14.56.13.26-.05.66-.14.82-.38,1.06-1.69,2.12-3.37,3.18-5.06.15-.24.3-.48.45-.72.02-.05.01-.08-.03-.11-.56-.44-1.14-.86-1.72-1.27-.3-.21-1.16.07-1.34.36-.63,1.01-1.27,2.02-1.9,3.03l-1.27,2.02c-.22.35-.54.74-.63,1.14-.16.71.3,1.38,1.02,1.5.79.13,1.78-.22,2.24-.88.14-.21-.51-.14-.56-.13-.27.05-.65.14-.82.38Z"/>
    </g>
    <g>
      <path class="cls-6" d="M549.69,911.21c-.23.36-.61.54-.98.49-.16-.02-.32-.08-.47-.18-.48-.35-.6-1.04-.28-1.56l3.49-5.56c.53.46,1.07.93,1.62,1.42l-3.39,5.39Z"/>
      <path class="cls-9" d="M549.05,911.21s-.12.14-.12.16l-.02.02c-.08.06-.02.04.19-.05,0,.01-.29-.17-.31-.18-.18-.16-.28-.4-.3-.64s.05-.45.17-.65c.22-.37.46-.73.69-1.1.73-1.16,1.46-2.32,2.19-3.48.19-.3.38-.6.57-.9l-1.29.27c.54.47,1.08.94,1.62,1.42v-.26c-.98,1.57-1.97,3.14-2.96,4.71-.14.23-.28.45-.42.68-.17.26.15.36.36.36.28,0,.76-.1.92-.37.99-1.57,1.97-3.14,2.96-4.71.14-.23.28-.45.42-.68.05-.08.09-.18,0-.26-.54-.48-1.08-.95-1.62-1.42-.29-.25-1.09-.05-1.29.27-.61.98-1.23,1.96-1.84,2.93l-1.21,1.92c-.22.35-.55.75-.64,1.16-.16.69.23,1.37.91,1.58.8.24,1.83-.11,2.31-.79.18-.26-.16-.36-.36-.36-.29,0-.74.11-.92.37Z"/>
    </g>
    <g>
      <path class="cls-6" d="M557.75,909.98l-3.05,4.85c-.23.36-.61.54-.98.49-.16-.02-.32-.08-.47-.18-.48-.34-.6-1.04-.28-1.56l3.16-5.04c.53.47,1.06.95,1.61,1.43Z"/>
      <path class="cls-9" d="M557.16,909.76c-.97,1.54-1.94,3.08-2.91,4.63-.15.23-.26.57-.55.28-.11-.11-.18-.27-.2-.43-.01-.09-.01-.18,0-.27.01-.05.11-.28.05-.17.03-.06.07-.11.11-.17.53-.85,1.07-1.7,1.6-2.55.49-.77.97-1.55,1.46-2.32l-1.12.19c.54.48,1.07.96,1.61,1.43.49.43,1.68-.29,1.06-.83-.54-.48-1.08-.95-1.61-1.43-.28-.25-.93-.11-1.12.19-1.03,1.64-2.06,3.28-3.09,4.92-.37.59-.52,1.24-.15,1.88.63,1.06,2.28.92,2.95-.02.51-.71.94-1.5,1.41-2.24.56-.88,1.11-1.77,1.67-2.65.47-.75-.81-1.02-1.17-.45Z"/>
    </g>
    <g>
      <path class="cls-6" d="M559.72,918.46c-.23.36-.61.54-.98.49-.16-.02-.32-.08-.47-.18-.48-.35-.6-1.04-.28-1.56l2.85-4.54c.54.46,1.08.92,1.64,1.38l-2.77,4.41Z"/>
      <path class="cls-9" d="M559.07,918.45s-.06.08-.09.12c-.05.07-.12.04-.01.03.14-.02.13,0,.06-.04-.17-.14-.33-.2-.43-.41-.14-.3-.13-.65.04-.93.15-.26.32-.51.48-.77.62-.99,1.24-1.97,1.86-2.96.17-.27.34-.53.5-.8l-1.29.26c.54.47,1.09.93,1.64,1.38v-.28c-.92,1.47-1.85,2.94-2.77,4.41-.17.27.15.4.37.4.29,0,.75-.11.92-.38.92-1.47,1.85-2.94,2.77-4.41.05-.08.09-.21,0-.28-.55-.46-1.1-.92-1.64-1.38-.32-.27-1.08-.08-1.29.26-.54.85-1.07,1.71-1.61,2.56-.33.52-.66,1.05-.99,1.57-.26.42-.53.81-.49,1.33.14,1.68,2.51,1.43,3.25.35.18-.27-.16-.4-.37-.4-.3,0-.73.11-.92.38Z"/>
    </g>
    <g>
      <path class="cls-6" d="M564.73,922.08c-.23.36-.61.53-.98.49-.16-.02-.32-.08-.47-.19-.48-.34-.6-1.04-.28-1.56l2.66-4.23c.56.43,1.12.87,1.7,1.3l-2.63,4.18Z"/>
      <path class="cls-9" d="M564.05,922.21c-.03.05-.19.18-.21.22.02-.06.5-.06.41-.13-.04-.03-.13-.04-.18-.07-.2-.1-.35-.26-.44-.46-.17-.35-.14-.75.06-1.08.13-.22.28-.44.42-.66.59-.94,1.18-1.88,1.77-2.81.16-.25.32-.51.48-.76l-1.34.36c.56.44,1.12.88,1.7,1.3l-.03-.1c-.88,1.39-1.75,2.79-2.63,4.18-.13.2.5.12.55.11.24-.04.67-.13.82-.36.88-1.39,1.75-2.79,2.63-4.18.02-.04.01-.08-.03-.1-.57-.43-1.13-.86-1.7-1.3-.15-.12-.55,0-.71.04-.2.05-.51.13-.63.32-.52.82-1.03,1.65-1.55,2.47-.3.48-.61.97-.91,1.45-.26.41-.49.82-.34,1.33.4,1.42,2.6.92,3.25-.02.13-.2-.5-.12-.55-.11-.25.05-.66.13-.82.36Z"/>
    </g>
  </g>
  <polygon class="cls-4" points="607.91 718.2 633.56 718.2 621.31 782.12 598.25 782.12 607.91 718.2"/>
  <g id="freepik--Character--inject-2">
    <path class="cls-32" d="M553.43,397.89l-15.31-76.13s10.78-11.41-4.94-18.01c-7.97-3.34-31.03-15.05-35.87-16.7,1.1,6.53,2.85,16.57-1.7,20-6.38,4.8-11.67,3.98-19.65,3.99-7.65.01-17.88-5.2-24.99-7.9-13.32-5.06-26.84-17.1-29.62-31.8l-17.19,16.62s-43.12,25.04-49.72,27.54c-6.6,2.5,15.32,157.3,15.32,157.3l-21.03,54.32c-1.67,6.9-21.09,28.65-6.55,69.55,0,0,139.89-1.88,155.12-1.73,17.69.17,54.78-7.71,59.46-16.03,4.68-8.32-3.33-181.02-3.33-181.02Z"/>
  </g>
  <path class="cls-19" d="M612.28,652.83c.97-4.15,2.17,10.93,3.53,6.91,3.07-9.1,6.99-17.91,11.51-26.37,4.65-8.71,9.96-17.07,15.93-24.93,4.06-5.34,8.42-10.47,13.13-15.26-85.74-24.73-282.18-35.87-282.18-35.87,0,0-59.75,38.15-31.84,102.74,8.36,19.35,27.92,17.93,55.81,19.07,66.06,2.68,164.62-2.61,213.14-12.65.33-.07.64-13.56.97-13.63Z"/>
  <path class="cls-19" d="M614.49,668.12c1.51-3.83,3.23-7.58,5.09-11.24,4.2-8.27,9.19-16.14,14.7-23.61,5.66-7.68,11.91-14.93,18.72-21.61,4.63-4.54,20.52,7.98,25.68,4.05-9.44-93.31-330.6-50.56-330.6-50.56,0,0-21.1-5.38-13.84,68.48,6.83,69.41,211.77,29.26,279.29,25.29.32-.02.64,9.22.96,9.2Z"/>
  <path class="cls-26" d="M473.92,408.24c.05,0,.11,0,.16.02.02.2.11.41-.06.59-.03-.2-.06-.41-.1-.61Z"/>
  <path class="cls-26" d="M482.82,465.88s-.09.05-.14.06"/>
  <path class="cls-14" d="M520.9,401.21c-.07,0-.14-.01-.21-.02.07-.04.14-.07.21-.11.03.04.03.09,0,.13Z"/>
  <path class="cls-14" d="M490.74,405.71c.07-.05.13-.09.2-.14.02.04.04.07.06.11-.09.01-.17.02-.26.03Z"/>
  <path class="cls-14" d="M520.25,401.26c-.09.01-.19.03-.28.04.08-.1.18-.11.28-.04Z"/>
  <path class="cls-32" d="M474.59,408.16c.07-.09.15-.11.24-.04-.08.01-.16.03-.24.04Z"/>
  <path class="cls-19" d="M681.31,665.36c-17.01,48.64-54.6,169.07-78.04,227.89,0,0-64.46,3.28-69.31-11.55,0,0,1.76-298.66,41.26-303.98,29.12-3.92,75.52-7.02,90.56,5.35,18.05,14.84,28.93,43.99,15.53,82.3Z"/>
  <path class="cls-19" d="M649.81,632.76s-9.9-1.9-24.03-1.61c2.73-5.93,3.67-10.36,3.67-10.36-1.31-1.5-2.7-3.04-4.15-4.6-8.09,1.89-16,4.5-23.67,7.61-8.92,3.62-17.55,7.92-25.79,12.83-7.94,4.73-15.53,10.06-22.53,16.02-1.98,1.69-3.91,3.44-5.78,5.24.24.07-3.88-.54-3.65-.46-27.33,28.55-26.64,92.27-42.46,150.09-11.6,42.41-24.09,76.97-24.09,76.97,6.28,14.27,84.46,20.13,84.46,20.13,27.8-76.96,88.02-271.86,88.02-271.86Z"/>
  <path class="cls-33" d="M569.18,893.2c.37-1.1.75-2.19,1.12-3.29,1.05-3.09,2.1-6.18,3.15-9.27,1.62-4.75,3.23-9.5,4.84-14.26,2.09-6.16,4.17-12.32,6.25-18.48,2.45-7.24,4.89-14.49,7.33-21.74,2.69-7.99,5.37-15.97,8.05-23.97,2.85-8.51,5.69-17.01,8.52-25.52,2.89-8.68,5.77-17.37,8.64-26.06,2.83-8.56,5.64-17.13,8.44-25.69,2.65-8.1,5.28-16.2,7.89-24.3,2.39-7.41,4.76-14.82,7.1-22.25,2.01-6.38,4-12.76,5.94-19.16,1.53-5.04,3.04-10.09,4.47-15.16.95-3.39,1.9-6.79,2.67-10.22,2.65-11.85,2.95-24.53-.98-36.14-3.83-11.28-11.54-20.86-21.78-26.97-5.38-3.21-11.37-5.41-17.54-6.52-2.09-.37-4.2-.57-6.31-.82l-17.27-2.07-24.82-2.97c-6.24-.75-12.47-1.49-18.71-2.24l-2.81-.34c-.51-.06-1.24.04-1.61.43-.29.3-.32.69.2.75,3.6.43,7.19.86,10.79,1.29,7.8.93,15.61,1.87,23.41,2.8s15.08,1.81,22.62,2.71c4.34.52,8.78.86,13.09,1.64,12.59,2.26,24.14,9.31,31.66,19.69,7.03,9.71,10.03,21.75,9.72,33.64-.18,6.99-1.45,13.84-3.23,20.58-1.16,4.39-2.43,8.74-3.71,13.09-1.73,5.83-3.51,11.64-5.31,17.44-2.17,6.97-4.37,13.94-6.59,20.89-2.5,7.82-5.02,15.64-7.56,23.45-2.71,8.33-5.43,16.66-8.17,24.99-2.84,8.63-5.69,17.26-8.55,25.88-2.85,8.59-5.71,17.18-8.58,25.76-2.76,8.25-5.52,16.5-8.29,24.74-2.56,7.61-5.12,15.22-7.68,22.83-2.25,6.68-4.51,13.35-6.77,20.03-1.84,5.44-3.69,10.89-5.53,16.33-1.33,3.91-2.66,7.82-3.99,11.73-.71,2.08-1.42,4.16-2.13,6.25-.09.26-.18.52-.27.79-.24.72,2.03.43,2.28-.31h0Z"/>
  <path class="cls-32" d="M331.92,597.81s20.03-13.45,36.19-18.94c62.51-21.21,184.55-43.73,184.55-43.73,0,0-200.55-13.11-208.53-6.45-7.98,6.66-18.33,55.46-12.21,69.12Z"/>
  <path class="cls-32" d="M337.81,491.76c-7.61,1.07-8.32-.25-15.87,1.16-.66-5.03-1.1-9.79-1.3-14.49-.84-20,.55-114.18,9.97-145.04,4.4-33,90.73-62.05,90.73-62.05l-29.62,120.77-2.36,91.84c-12.81,3.47-38.41,5.97-51.56,7.82Z"/>
  <g>
    <polyline class="cls-32" points="390.81 492.36 535.72 516.19 534.99 525.05"/>
    <path class="cls-11" d="M390.56,492.88c4.82.79,9.64,1.59,14.46,2.38,11.53,1.9,23.06,3.79,34.59,5.69,13.98,2.3,27.96,4.6,41.94,6.9,12.04,1.98,24.09,3.96,36.13,5.94,3.97.65,7.93,1.3,11.9,1.96l3.7.61c.59.1,1.33.35,1.94.32.08,0,.17.03.24.04l-.48-.46c-.24,2.95-.49,5.9-.73,8.86-.06.73,1.41.52,1.47-.12.24-2.95.49-5.9.73-8.86.02-.29-.24-.42-.48-.46-4.82-.79-9.64-1.59-14.46-2.38-11.53-1.9-23.06-3.79-34.59-5.69-13.98-2.3-27.96-4.6-41.94-6.9-12.04-1.98-24.09-3.96-36.13-5.94-3.97-.65-7.93-1.3-11.9-1.96-1.87-.31-3.75-.72-5.64-.93-.08,0-.16-.03-.24-.04-.7-.12-1.48.87-.51,1.03h0Z"/>
  </g>
  <path class="cls-11" d="M380.8,320.66c5.27.84,8.55,5.95,10.57,10.44,2.44,5.43,3.78,11.36,4.69,17.22.6,3.89,1.08,7.86,1.08,11.8,0,3.3-.16,6.59-.31,9.89-.53,11.37-1.27,22.74-1.99,34.1-.91,14.54-1.84,29.07-2.68,43.61-.78,13.48-1.51,26.96-1.95,40.45-.05,1.42-.09,2.84-.12,4.26-.02.69,1.44.44,1.46-.14.35-13.38,1.06-26.75,1.81-40.11.83-14.79,1.77-29.58,2.7-44.37.75-11.96,1.54-23.92,2.13-35.89.36-7.21.62-14.26-.31-21.45-.78-5.97-1.99-11.98-4.16-17.61-1.8-4.66-4.5-9.92-9.22-12.19-1.01-.49-2.06-.8-3.16-.97-.65-.1-1.5.8-.53.96h0Z"/>
  <path class="cls-32" d="M323.05,430.77s-2.6,45.28-2.4,47.66c.96,11.19-3.84,30.18,9.23,53.72,11.24,20.24,34.33,26.35,61.12,8.86,26.78-17.49-28.18-65.12-28.18-65.12l-39.77-45.11Z"/>
  <path class="cls-11" d="M390.99,491.96c-5.86.41-11.88,1.46-17.04,4.4s-8.43,7.46-10.26,12.9c-.17.5,1.28.31,1.45-.18,1.74-5.17,4.94-9.56,9.72-12.28,4.82-2.75,10.48-3.64,15.95-4.03.72-.05,1.2-.88.19-.81h0Z"/>
  <g>
    <path class="cls-32" d="M338.55,542.92c5.05,8.58,21.04,10.97,34.59,14.18,48.24,11.43,111.64,6.25,157.3,3.27l4.35-30.35"/>
    <path class="cls-11" d="M337.88,543.2c2.6,4.31,7.43,6.71,11.99,8.4,5.79,2.15,11.88,3.42,17.9,4.76,6.24,1.39,12.45,2.84,18.76,3.9,6.35,1.06,12.73,1.87,19.14,2.49,27.38,2.66,55,2.05,82.43.64,14.09-.73,28.17-1.71,42.25-2.63.24-.02.78-.19.82-.49,1.27-8.86,2.54-17.72,3.81-26.58.18-1.25.36-2.51.54-3.76.08-.56-1.38-.31-1.45.18-1.27,8.86-2.54,17.72-3.81,26.58-.18,1.25-.36,2.51-.54,3.76l.82-.49c-25.74,1.68-51.48,3.53-77.28,3.76-26.49.24-53.41-.87-79.3-6.93-6.86-1.61-13.84-2.89-20.55-5.06-5.29-1.71-11.18-4.12-14.18-9.09-.24-.4-1.65.05-1.35.57h0Z"/>
  </g>
  <g>
    <path class="cls-32" d="M420.35,270.33s30.86,42.04,57.95,40.97c27.09-1.08,17.83-28.36,17.83-28.36h0l9.61,4.65s2.87,15.56-.5,21.59c-3.38,6.03-17.07,11.01-34.36,9.19-10.14-1.06-23.35-7.2-31.28-14.47-9.5-8.71-28.37-28.86-28.37-28.86l9.14-4.7Z"/>
    <path class="cls-5" d="M419.68,270.64c2.98,4.06,6.3,7.89,9.68,11.61,6.91,7.58,14.47,14.75,23,20.48,8.41,5.65,18.19,10.06,28.54,8.87,4.44-.51,8.91-1.93,12.24-5.03,2.54-2.37,4.09-5.55,4.77-8.93.61-3.04.57-6.19.16-9.25-.15-1.15-.36-2.3-.63-3.43-.14-.61-.24-1.39-.52-1.96-.04-.08-.06-.18-.09-.27l-1.29.6c2.79,1.35,5.59,2.7,8.38,4.06.38.18.85.33,1.2.58-.04-.03-.15-.32-.11-.08.03.17.06.34.09.5.26,1.57.47,3.16.64,4.74.49,4.64.97,9.98-.57,14.49-1.41,4.1-5.77,6.35-9.57,7.78-6.2,2.34-13.05,3.01-19.64,2.78s-13.24-1.77-19.5-4.47c-6.04-2.6-11.82-6.07-16.66-10.55-3.6-3.33-7.06-6.81-10.5-10.3-3.64-3.7-7.25-7.43-10.83-11.18-1.33-1.39-2.66-2.79-3.98-4.19-.75-.8-1.48-1.76-2.32-2.46-.11-.09-.21-.22-.31-.33l-.35.72c3.05-1.57,6.1-3.13,9.14-4.7.88-.45.09-1.18-.63-.81-3.05,1.57-6.1,3.13-9.14,4.7-.21.11-.6.45-.35.72,5.15,5.49,10.36,10.93,15.62,16.31,3.74,3.83,7.51,7.64,11.41,11.3,4.66,4.39,9.93,7.9,15.71,10.65s12.49,4.91,19.2,5.44,14.05.13,20.75-1.81c4.31-1.25,9.24-3.23,12.02-6.97,2.73-3.67,2.5-9.14,2.27-13.48-.12-2.2-.33-4.39-.63-6.57-.1-.72-.2-1.43-.32-2.14-.04-.23-.03-.6-.18-.8-.19-.25-.7-.38-.96-.51l-2.41-1.17c-1.78-.86-3.55-1.72-5.33-2.58l-1-.48c-.35-.17-1.5-.03-1.29.6,1.25,3.71,1.73,7.87,1.45,11.76-.24,3.25-1.11,6.52-3.04,9.19-2.44,3.38-6.23,5.26-10.23,6.11-10.15,2.15-20-1.81-28.45-7.19-8.54-5.45-16.09-12.41-22.99-19.79-2.57-2.75-5.05-5.59-7.44-8.5-1.2-1.46-2.27-3.06-3.53-4.47-.06-.06-.11-.14-.16-.21-.37-.51-1.76.04-1.33.63Z"/>
  </g>
  <path class="cls-33" d="M531.54,675.99c5.73-2.36,11.23-5.26,16.42-8.65.33-.22.65-.61.2-.88-.43-.26-1.24-.03-1.61.22-5.03,3.29-10.35,6.1-15.91,8.39-.31.13-.92.51-.61.91s1.17.16,1.51.02h0Z"/>
  <path class="cls-39" d="M486.98,189.26c2.62.33,5.59-.92,6.98-3.21s.91-5.31-.91-7.19c-.26-.27-1.6.26-1.36.5,1.55,1.6,2.05,4.11,1.22,6.18s-2.81,3.39-4.99,3.12c-.32-.04-.76.09-1.02.27-.23.17-.19.29.09.33h0Z"/>
  <path class="cls-31" d="M494.77,237.17c-5.61.13-17.89,4.37-20.33,6.94,0,0,5.72,7.95,18.72,7.66,13-.29,15.84-8.44,15.84-8.44,0,0-7.09-6.32-14.24-6.16Z"/>
  <path class="cls-22" d="M479.67,241.21s7.11-.78,12.78-.91c5.68-.13,12.8.33,12.8.33,0,0,.81-4.62-9.48-4.39-10.29.23-16.1,4.97-16.1,4.97Z"/>
  <path class="cls-8" d="M494.79,249.52c-6.11-.87-13.26-6.08-20.34-5.4,0,0,3.07,12.12,18.35,11.78,15.28-.35,16.21-12.56,16.21-12.56-7.11-.35-8.15,5.05-14.22,6.19Z"/>
  <path class="cls-8" d="M501.34,233.51c-3.22-.2-5.22,1.25-6.62,1.28-1.4.03-3.47-1.33-6.67-.98-3,.33-15.53,9.12-14.09,10.2,1.45,1.07,11.17-5.4,20.83-5.62,9.67-.22,13.27,5.95,14.67,4.82,1.4-1.14-5.12-9.5-8.13-9.69Z"/>
  <path class="cls-28" d="M474.36,237.87c-.86.02-.95-.02-.25-.12.31-.04.61-.13.9-.24.6-.2,1.27-.45,1.8-.81.31-.2,1.24-.67,1.2-1.1-.02-.24-3.46-.25-1.81.18,2.82.74,5.36-.97,7.42-2.6l-3.21,1.28.68-.13-2.22-.15c1.65.7,2.87.8,4.67.32,2.4-.63,2.85-1.9,4.75-3.26l-4.06,1.34c.46,0,.61.68.8,1.01.86,1.48,3.47.78,4.7.31l.14-.05c.93-.36,2.68-1.33,1.88-2.5s-3.59-.28-4.47.06l-.14.05,4.7.31c-1.17-2.01-1.9-2.73-4.44-2.73-3.26,0-4.88,1.68-6.96,3.86l2.74-1.54-.88.22,3.14-.04c-3.44-1.51-5.48.21-8.44,1.72l3.43-.92c-1.94-.12-3.23-.57-5.21.21s-2.91,1.94-3.86,3.78l1.32-1.33c.76-.38,1.9-.66.39-.28-.73.19-1.52.45-2.19.79-1.17.59-2.04,1.36-2.8,2.41-1.66,2.3,5.09,1.62,6.29-.04h0Z"/>
  <path class="cls-28" d="M501.32,234.07c.33.17.69.27,1.06.31.76.14.7.06-.19-.24.41.49.67.86,1.26,1.2,1.68.96,3.1.23,4.86.21l-2.33-.57c-.63-.53.15.61.31.87.4.67.89,1.1,1.6,1.44.34.21.71.33,1.12.37.75.23.78.16.09-.21-.52-.51-.65-.46-.37.16.06.28.11.55.17.83.14.64.85,1.27,1.45,1.44l.11.03c1.64.48,3.7.11,4.81-1.29.12-.16.25-.32.39-.47l-3.14,1.51h.19c-1.04-.56-2.08-1.12-3.12-1.67-.15-.68-.54.66-.63.9-1.32,3.76,5.48,3.84,6.53.87.43-1.23,1.22-2.21.9-3.59-.3-1.33-1.98-1.71-3.12-1.66-1.56.06-2.77.79-3.72,1.98,1.6-.43,3.21-.86,4.81-1.29l-.11-.03,1.45,1.44c-.19-.91-.35-1.98-.96-2.72-.31-.37-.67-.59-1.1-.8-.34-.21-.71-.33-1.12-.37-.72-.09-.81-.07-.26.05.47.69-.03-.82-.17-1-.35-.47-1.02-.94-1.55-1.15-1.47-.58-2.78.12-4.2.14l2.33.57c-.67-.36-.96-1.12-1.72-1.5-.56-.28-1.13-.35-1.74-.48-1.82-.36-3.34-.48-5.19-.12-1.42.28-3.15,1.73-2.75,3.33.43,1.74,2.69,1.77,4.05,1.51h0Z"/>
  <path class="cls-28" d="M491.73,231.93l-.25,3.51c-.04.54-.42.99-.94,1.13-3.59.93-17.25,4.45-20.56,4.8-.08,0,.45,1.34.37,1.33l-.78.04c-1.26-.1-.85-4.35.27-4.95,3.41-1.81,6.49-3.16,8.42-3.86,2.41-.87,9.09-3.04,12.08-3.36.79-.08,1.45.57,1.39,1.36Z"/>
  <path class="cls-28" d="M497.89,230.43l-.56,3.15c0,.54.31,1.02.78,1.2,3.24,1.23,11.98,5.05,15.01,5.67.07.01.14.02.21.02h1.01c1.17.01,1.07-2.65.08-3.34-3-2.09-3.06-3.11-4.78-3.96-2.15-1.06-7.63-3.41-10.37-3.98-.72-.15-1.38.45-1.39,1.24Z"/>
  <g>
    <path class="cls-30" d="M610.2,498.14l-.05.09-13.92-4.68s-.06-.05-.1-.06v-.11c.7-2.67,1.42-5.35,2.09-8.03.67-2.69,1.41-5.21,2.27-7.76,1.97-5.82,3.73-11.7,6-17.41.78-1.95,1.45-3.95,2.18-5.92.03-.1.07-.2.11-.29,1.46-2.8,2.39-5.84,3.74-8.69l2.16-4.63,1.95-4.13c1.04.34,2.08.69,3.11,1.01l8.03,2.77.4.21c-.83,3.74-1.64,7.47-2.46,11.2-1.32,5.97-2.64,11.94-3.96,17.91-.36,1.6-.69,3.2-1.08,4.8-.69,2.54-.39,5.25.84,7.58.72,1.41,1.57,2.76,2.29,4.18.89,1.68,1.06,3.65.46,5.46-1.1,3.4-2.28,6.76-3.46,10.14h-.2s-.36-.1-.36-.1c-.04-.08-.13-.12-.21-.09,0,0-.01,0-.02,0l-2.92-.97s0-.08,0-.11"/>
    <path class="cls-27" d="M617.13,500.61l2.92.97.23.08.36.12.15.1c-.05.2-.1.4-.17.6-5.22,15.51-10.45,31-15.68,46.46-.06.17-.13.34-.21.51l-13.77-4.62-.28-.15c.09-.38.09-.77,0-1.15-.12-.69-.19-1.38-.21-2.08-.02-1.55-.11-3.1-.15-4.65-.06-2.15-.01-4.29.1-6.42.21-3.76.46-7.53,1-11.26.14-.94.1-1.92.28-2.85.31-1.55.49-3.11.76-4.66.45-2.54.88-5.08,1.37-7.62.29-1.5.59-2.99.97-4.47.36-2.01.82-4,1.4-5.95l13.92,4.68"/>
    <path class="cls-27" d="M596.23,493.55c-.58,1.96-1.05,3.94-1.4,5.95-.38,1.48-.68,2.97-.97,4.47-.49,2.54-.92,5.08-1.37,7.62-.27,1.56-.46,3.11-.76,4.66-.19.93-.15,1.91-.28,2.85-.54,3.74-.79,7.51-1,11.26-.12,2.13-.16,4.28-.1,6.42.04,1.55.13,3.09.15,4.65.02.7.09,1.39.21,2.08.09.38.09.77,0,1.15-.27-.08-.55-.15-.83-.25l-23.12-7.8-.65-.25-.02-.29c.05-.17.09-.35.15-.52l15.46-45.79c.06-.17.13-.33.2-.51s.21-.27.28-.42l.43.12.2.06,13.13,4.44.22.08s.07,0,.1.03Z"/>
    <path class="cls-30" d="M566.1,536.36l.65.25,23.12,7.79c.27.1.55.17.83.25l.28.15c-.08,1.09.01,2.18.27,3.24.38,2.42.99,4.79,1.83,7.1.58,1.55,1.33,3.02,2.23,4.4,1.1,1.78,2.74,3.15,4.68,3.92-.38,2.31-2.61,3.51-4.97,2.7-10.51-3.63-21.05-7.14-31.58-10.7-2.22-.75-3.11-2.52-2.36-4.74,1.62-4.8,3.25-9.61,4.89-14.42.04.03.09.04.13.05Z"/>
    <path class="cls-30" d="M595.91,493.41l-13.13-4.44c-.02-.07-.1-.1-.17-.08-.01,0-.02.01-.03.02l-.43-.12s-.07-.06-.11-.08c1.12-3.32,2.21-6.65,3.37-9.97.84-2.29,2.68-4.07,5-4.83,1.22-.45,2.42-.97,3.58-1.56,2.29-1.29,4.07-3.32,5.05-5.75,3.95-8.67,7.96-17.32,11.95-25.96.79-1.68,1.57-3.38,2.34-5.12,1.14.21,2.26.55,3.32,1.02l-1.95,4.13-2.16,4.63c-1.35,2.85-2.28,5.89-3.74,8.69-.04.1-.08.19-.11.29-.7,1.97-1.39,3.97-2.18,5.92-2.27,5.71-4.03,11.59-6,17.41-.86,2.55-1.61,5.15-2.27,7.76s-1.4,5.36-2.1,8.03h-.23Z"/>
    <path class="cls-30" d="M599.99,563.5c-1.95-.77-3.59-2.16-4.68-3.94-.91-1.39-1.67-2.88-2.25-4.44-.84-2.3-1.45-4.68-1.83-7.1-.26-1.06-.35-2.15-.27-3.24l13.77,4.62-4.75,14.1Z"/>
    <path class="cls-17" d="M616.64,436.52c-1.06-.47-2.18-.81-3.32-1.02-.3-.24-.66-.4-1.05-.47-.43-.14-.59-.39-.43-.83.33-.96.62-1.93.98-2.88.35-1.06,1.49-1.63,2.54-1.29.04.01.08.03.12.04,4.77,1.59,9.53,3.2,14.29,4.84,1.07.31,1.69,1.43,1.38,2.51-.02.06-.04.12-.06.18-.27.87-.6,1.72-.86,2.59-.17.61-.47.84-1.07.55-.32-.12-.64-.22-.97-.29l-.43-.15-8.03-2.77c-1.01-.35-2.05-.63-3.09-1.01Z"/>
  </g>
  <path class="cls-18" d="M617.76,528.57c-6.96,2.48-16.35,5.66-17.52,5.16s-9.51-2.56-16.81-4.34c-3.77-.74-6.25-4.28-5.54-7.9.18-.94,18.49-1.84,17.63-9.86l-15.55-2.39c-5.14-.07-10.26.48-15.23,1.66-6.09,1.83-21.36,12.53-21.36,12.53l-10.24-.62-3.34,32.28,10.2.84,18.02,6.16s35.75,7.63,40.59,5.56c4.84-2.07,11.53-11.36,11.53-11.36,6.81-1.67,9.05-10.76,9.05-10.76,10.23-6.32,3.05-9.32,3.05-9.32.4-.13.75-.37,1.01-.69,2.88-3.44-1.35-8.45-5.49-6.94Z"/>
  <path class="cls-39" d="M616.6,538.83c-4.03,2.71-8.64,4.51-13.51,5.27-4.98.26-9.98-.43-14.72-2.03-1.05-.4-2.12-.74-3.21-1.02.06.36.12.71.17,1.07.9.4,1.82.76,2.77,1.04,4.81,1.98,10.02,2.86,15.21,2.56,5.13-.76,9.93-2.81,13.95-5.94,1.77-1.08,3.35-2.43,4.68-4-1.89.82-3.69,1.84-5.35,3.04Z"/>
  <path class="cls-39" d="M613.86,547.39c-1.61.65-3.52,1.47-5.62,2.43-2.19,1.06-4.49,1.9-6.86,2.53-2.43.42-4.93.39-7.37-.11-2.03-.34-4.04-.78-6.03-1.32-.55-.15-1.05-.3-1.53-.44.05.35.09.69.14,1.04.37.13.75.26,1.13.36,2,.72,4.06,1.3,6.14,1.72,2.59.63,5.29.74,7.91.32,2.49-.65,4.89-1.57,7.16-2.75l5.46-2.74c1.76-.73,3.4-1.7,4.85-2.89-1.88.36-3.7.99-5.39,1.86Z"/>
  <path class="cls-39" d="M606.6,558.07c-1.26.67-2.57,1.27-3.9,1.8-.79.32-1.6.59-2.42.83-.76.29-1.59.39-2.41.29-3.95-.64-7.45-1.03-10.03-1.34-.16-.03-.32-.03-.48-.06.02.37.04.74.06,1.11,2.56.59,6.18,1.25,10.17,1.85,1.07.14,2.16.01,3.16-.37.86-.27,1.71-.59,2.52-.97,1.39-.6,2.71-1.33,3.95-2.17,2.12-1.45,3.11-2.73,2.94-2.87-.17-.14-1.38.77-3.57,1.9Z"/>
  <g>
    <path class="cls-40" d="M516.76,258.9c.43-.84.67-1.94.83-3.13,1.71-5.57,1.95-4.38,2.47-9.07-3.1,9.88-7.7,19.55-10.25,21.43-.09.07-.61.22-1.33.34-.07-.03-.15-.06-.23-.07-.85-.15-2.01.44-2.63.05-.69-.43.4-1.34-.05-1.9-.28-.35-1.02-.38-1.52-.59-.6-.25-.86-.75-1.43-1.03-.58-.29-1.47-.29-2.15,0-.76.04-1.74.48-2.04-.01-.08-.13-.06-.29-.08-.44-.04-.58-.59-1.09-1.33-1.23-.73-.14-1.6.1-2.09.57-.48.46-.59,1.09-1.11,1.53-.16.14-.36.26-.56.37-.21-.15-.47-.26-.76-.32-.73-.14-1.6.1-2.09.57-.48.46-.59,1.09-1.11,1.53-.43.37-1.14.6-1.32,1.06-.29.74,1.01,1.47.46,2.14-.5.6-1.77.25-2.56.64-.14.07-.24.17-.33.27-4.73-.23-14.23-.81-14.41-.82l-6.61-2.76c-1.11-.62-26.29-19.91-26.29-19.91-.4-.66-5-5.31-5.21-5.96-.08-.03-.15-.07-.24-.1-.03,0-.09-.03-.16-.06,0,.04-.02.1-.03.13-.03.28-.01.57.02.85.11,1.22.42,2.41.84,3.56.64,1.77,1.06,3.59,1.63,5.37.2.63.44,1.25.69,1.86.51.29,1.55,1.23,2.95,2.59.23.36.54.67.9.89.38.38.8.79,1.22,1.21-.18,1.75,1.57,3.68,3.36,3.36.08.08.15.15.23.23-.26,1.26.85,2.68,2.16,2.6.13,0,.27-.03.4-.05.6.59,1.22,1.2,1.84,1.8-.01.24-.02.48-.01.7.07,1.57,1.81,2.76,3.3,2.43.11.11.23.21.34.32-.26,2.07,1.99,4.15,4.03,3.63.1.08.19.16.29.25.32,1.43,1.72,2.5,3.17,2.62.56.44,1.11.86,1.66,1.27.59,1.41,2.06,2.48,3.61,2.42.04.02.08.05.12.08-.68,1.67,1.51,3.68,3.1,2.79.45-.25.83-.65,1.33-.74,1.37-.23,2.19,2,3.57,1.84.56-.07.99-.53,1.46-.84,1.42-.94,2.29-1.13,3.07.4,0,0,.32,1.59,2.51.73,1.22-.48,2.14-1.85,3.2-1.07.46.34.79.88,1.31,1.11,1.22.52,2.46-.89,3.79-.85,1.22.04,2.35,1.31,3.47.84,1.1-.46,1.04-2.11,1.84-2.97.7-.1,1.38,1.7,2.08,1.58,1.61.59,3.42.38,4.78-.63.57-.43.8-1.23,1.43-1.57,1.02-.55,2.19.48,3.34.45,1.68-.04,2.35-2.04,2.51-3.79.17-.12.33-.23.49-.36.86.22,1.92-.35,2.07-1.26.06-.39,0-.8.05-1.18.13-.22.26-.45.37-.69.59-.54,1.67-.73,1.64-1.52-.02-.44-.43-.75-.58-1.16.2-.52.4-1.07.61-1.64.19-.2.39-.39.58-.56.65-.59,1.15-1.74.45-2.25,0-.01,0-.02.01-.03,1-.35,2.21-1.09,1.93-2.11-.09-.33-.33-.6-.43-.92-.28-.94.67-1.72,1.35-2.42.68-.7.96-2.17.01-2.4Z"/>
    <path class="cls-28" d="M517.48,258.79c.66-1.4.76-2.96,1.24-4.42.32-.96.66-1.91,1.02-2.86.6-1.61.86-3.22,1.05-4.92.05-.48-1.32-.15-1.44.22-1.19,3.77-2.56,7.49-4.14,11.11-1.24,2.83-2.56,5.72-4.33,8.27-.46.67-1.12,1.85-2.03,1.89-.53.03-1.15.06-1.69.07-1.52,0-.71-.54-.74-1.38-.02-.56-.45-.73-.93-.88-.43-.14-.84-.22-1.21-.48s-.61-.58-1.01-.77c-1.26-.62-2.28.12-3.52.09-.82-.02-.65-.93-1.24-1.4-.54-.42-1.27-.52-1.93-.46-.62.06-1.26.24-1.79.57-.87.54-1.07,1.59-1.94,2.13l1.11-.11c-1.03-.58-2.21-.55-3.28-.06-.63.29-.98.65-1.36,1.22-.47.7-.95.99-1.55,1.49-.28.24-.53.52-.52.91,0,.48.74,1.01.63,1.44s-1.4.4-1.76.51c-.47.13-.86.33-1.19.69l1.12-.36c-3.32-.16-6.64-.36-9.97-.56-1.25-.07-2.5-.15-3.74-.22-.7-.04-.55,0-1.18-.26-1.96-.82-4.05-1.51-5.94-2.48-.51-.26-1.56-1.11-2.21-1.59-7.52-5.6-14.94-11.32-22.39-17.02-.78-.59-1.5-1.11-2.11-1.82-.98-1.14-2.04-2.22-3.05-3.33-.63-.69-1.32-1.98-2.2-2.29-.3-.11-1.22.03-1.31.42-.49,2.25.99,4.98,1.59,7.08.35,1.23.67,2.47,1.11,3.67.15.4.27.91.55,1.22.22.24.59.43.83.64.84.71,1.57,1.51,2.34,2.28.39.39.84.68,1.2,1.1.45.51.5.92.67,1.54.47,1.77,2.14,2.69,3.87,2.51l-.56-.07c.26.26.17.92.28,1.26.15.43.43.82.78,1.11.68.55,1.46.58,2.29.47l-.56-.07c.82.8,1.56,1.31,1.78,2.44.12.61.27,1.11.7,1.58.83.91,2.03,1.16,3.21.98l-.56-.07c.44.41.39,1.56.71,2.13.29.51.69.95,1.17,1.29.91.64,1.98.8,3.05.59l-.56-.07c.31.27.45.82.67,1.17.27.43.63.79,1.05,1.07.76.51,1.64.62,2.4,1.14.91.64,1.32,1.6,2.16,2.29.3.25.63.45.99.61.22.1,1.24.19,1.39.34.1.1,0,.41.01.64.02.4.14.74.35,1.08.37.62.99,1.08,1.69,1.28.62.17,1.31.11,1.91-.12.33-.12.58-.34.9-.49.69-.33,1.05.12,1.54.56,1.08.97,2.16,1.38,3.52.59.76-.44,1.64-1.6,2.43-.68.29.34.35.78.64,1.11.81.92,2.4.51,3.35.09.77-.34,1.55-1.3,2.35-.73.73.52,1.07,1.1,2.04,1.08,1.22-.02,2.35-1.11,3.55-.87.88.17,1.55.83,2.49.85.72.01,1.54-.26,2.04-.79.7-.74.75-1.86,1.38-2.65l-1.12.36c.62.05,1.02,1.15,1.55,1.45.65.36,1.68.46,2.4.46,1.73.02,3.56-.61,4.63-2.01.39-.51.51-.71,1.19-.51.45.13.87.32,1.33.39.71.12,1.43.03,2.09-.27s1.1-.77,1.44-1.37c.43-.78.35-2.21,1.02-2.72l-1.02.27c.96.14,2.09-.12,2.78-.84.64-.68.27-1.26.51-2.04.23-.73.96-.89,1.48-1.33.3-.25.56-.54.53-.96-.02-.3-.21-.4-.29-.66-.23-.77-.06-1.3.36-1.95.39-.59.99-.99,1.23-1.69.07-.2.13-.43.11-.64,0-.03-.29-.74-.33-.62l-.45.34c.8-.3,1.79-.73,2.23-1.52.57-1.03-.57-1.75-.14-2.79.39-.93,3.3-3.19,1.1-4.08-.37-.15-1.69.42-1.17.63,1.77.72-1.51,3.29-1.55,4.28-.03.85.9,1.4.26,2.26-.39.52-1.51.56-1.73,1.15-.02.06,0,.11.04.15.6.59.13,1.39-.33,1.9-.54.6-.77.83-1.06,1.6-.22.59-.35.69-.11,1.25.48,1.1.28,1.12-.65,1.73-.41.27-.57.4-.78.84-.27.55-.02,1.32-.33,1.81-.57.91-2.08.32-2.49,1.49s-.31,3.57-2.23,3.01c-.98-.28-1.83-.62-2.85-.3-1.11.36-1.4,1.4-2.3,2.01-.95.64-2.32.67-3.37.22-.53-.23-.74-.51-1.12-.94-.45-.51-.93-.8-1.62-.61-.91.24-1.13,1.26-1.45,2.03-.38.92-.93.91-1.74.54-.51-.23-1.02-.45-1.58-.49-1.15-.07-1.93.61-2.97.85-1.21.28-1.67-1.27-2.81-1.34-.98-.07-1.76.5-2.54,1-2.57,1.64-1.79-1.45-3.89-1.56-.97-.05-1.91.47-2.69,1s-1.14.47-1.8-.11c-.37-.32-.7-.69-1.14-.92-.87-.46-1.84-.24-2.65.26s-1.34.49-2.04-.23c-.57-.58-.8-1.31-.55-2.09.02-.06,0-.11-.04-.15-.64-.39-1.45-.22-2.14-.64-.87-.54-1.21-1.45-1.92-2.1s-1.24-.96-2.08-1.19c-1.14-.31-1.74-1.08-2.28-2.06-.28-.52-.37-.7-.99-.7-1.28-.01-2.32-.44-3.01-1.61-.19-.33-.33-.7-.39-1.07-.04-.26.04-.66-.07-.88-.14-.27-.39-.33-.64-.4-.52-.14-1,.04-1.53-.22-.81-.4-1.36-1.16-1.43-2.06-.03-.43.03-.58-.19-.93-.29-.45-.85-.83-1.23-1.2-.75-.74-1.31-.28-2.18-.85-.36-.24-.63-.71-.75-1.12s.09-.82-.21-1.13c-.39-.42-1.24-.17-1.76-.44-.86-.44-1.5-1.35-1.65-2.3-.1-.63.08-.57-.38-1.05-.33-.34-.68-.67-1.03-.99-.71-.63-1.34-1.36-2.05-2.01-.63-.58-1.49-1.08-1.85-1.86-.51-1.12-.8-2.37-1.13-3.55s-.73-2.38-1.12-3.56-.95-2.79-.68-4.03l-1.31.42c.38.14.51.46.77.77.45.56.95,1.09,1.43,1.62.99,1.08,2.04,2.13,2.98,3.26.59.72,1.37,1.22,2.11,1.78,4.25,3.25,8.51,6.5,12.77,9.75,3.71,2.82,7.38,5.7,11.17,8.41,1.21.87,2.72,1.3,4.09,1.87,1.01.42,2.05.99,3.1,1.29.59.17,1.27.13,1.89.16,4.04.24,8.07.49,12.11.69.39.02.79.08,1.17-.02.45-.12.67-.37,1.17-.45.73-.11,1.65-.09,2.2-.69.68-.74-.16-1.15-.29-1.9s.75-.94,1.2-1.34c.76-.68,1.03-2.46,2.66-1.55.31.17.82.06,1.11-.11.54-.33.94-.66,1.29-1.19.42-.63,1.25-1.27,2.03-.88.64.31.41.73.64,1.19.47.92,2.12.33,2.88.21.62-.1,1.13-.2,1.71.17.34.22.59.55.95.75.24.14.48.21.75.29.63.18.98.29.91,1-.04.41-.37.72-.1,1.13s1,.39,1.43.36c1.23-.09,2.6,0,3.77-.5.72-.31,1.25-.97,1.72-1.57,1.73-2.24,3-4.88,4.18-7.43,1.92-4.15,3.53-8.45,4.91-12.81l-1.44.22c-.19,1.7-.45,3.31-1.05,4.92-.35.95-.7,1.9-1.02,2.86-.48,1.46-.59,3.02-1.24,4.42-.15.32,1.24.19,1.44-.22Z"/>
  </g>
  <rect class="cls-23" x="944.41" y="896.72" width="36.51" height="21.97" transform="translate(-8.02 8.58) rotate(-.51)"/>
  <g>
    <path d="M993.89,934.42s5.12,6.82,3.39,10.14c-1.74,3.32-18.08,4.24-22.36,4.7-4.28.46-59.73,7.01-65.25,7.14-5.52.13-35.23-1.21-39.52-7.49,0,0-7.29-10.6,2.62-14.29,9.91-3.69,17.32-2.4,26.58-6.99,9.27-4.59,19.36-11.78,28.18-21.44,0,0,8.96-7.87,13.29-6.69,4.33,1.18,9.29,9.27,12.83,11.2,3.54,1.93,20.39,4.31,24.63-3.82,4.25-8.12,5.5-5.05,8.81-3.89,3.31,1.16,8.94,15.32,7.72,21.91-1.23,6.6-.93,9.51-.93,9.51Z"/>
    <path class="cls-29" d="M935.93,909.76l.05-.06c.41-.44.1-1.28-.69-1.85l-5.69-4.13c-.79-.57-1.77-.68-2.18-.23l-.05.06c-.41.44-.1,1.28.69,1.85l5.69,4.13c.79.57,1.77.68,2.18.23Z"/>
    <path class="cls-29" d="M929.5,913l.15-.16c.3-.31-.04-.99-.75-1.51l-4.22-3.09c-.71-.52-1.53-.69-1.83-.38l-.15.16c-.3.31.04.99.75,1.51l4.22,3.09c.71.52,1.53.69,1.83.38Z"/>
    <path class="cls-29" d="M924.19,916.08l.26-.28c.27-.28-.04-.89-.68-1.36l-3.02-2.21c-.64-.47-1.38-.62-1.64-.34l-.26.28c-.27.28.04.89.68,1.36l3.02,2.21c.64.47,1.38.62,1.64.34Z"/>
    <path class="cls-29" d="M919.93,919.35l.31-.33c.31-.33.04-.98-.6-1.45l-3.02-2.2c-.64-.47-1.42-.58-1.72-.25l-.31.33c-.31.33-.04.98.6,1.45l3.02,2.2c.64.47,1.42.58,1.72.25Z"/>
  </g>
  <path class="cls-18" d="M881.49,503.38l-4.14,33.29,2.79,15.81,8.26,14.69,23.16,19.05s3.98-.81.2-7.22c-3.7-5.61-7.87-11.01-12.46-16.15l-2.42-17.14,4.25-7.55,4.89.84s-1.34,21.51,1.98,25.85c.57.75,1.06,1.37,1.48,1.89,1.16,1.45,3.3,1.57,4.64.29l1.98-1.9.88-32s-2.01-14.08-2.96-17.4c-1.33-3.28-3.6-8.03-5.5-11.13l-.45-4.44-23.16-6.78-3.41,9.99Z"/>
  <path class="cls-18" d="M937.7,186.31c-3.53,1.5-54.54,28.42-61.26,56.76-6.72,28.34.51,117.16-2.39,142.03-3.79,28.98,8.52,107.83,8.24,115l.3,25.95,19.26-9.04s2.07-146.78,14.27-186.48c12.2-39.71,21.59-144.22,21.59-144.22Z"/>
  <polygon class="cls-23" points="1034.48 924.91 997.69 926.83 999.91 900.01 1036.29 903.02 1034.48 924.91"/>
  <path class="cls-18" d="M997.48,120.27s-.01,37.15,5.25,49.42c1.28,2.98,21.01,10.84,21.01,10.84l-74.54,43.2-40.74-29.81s28.93-15.58,29.81-19.3c.88-3.72-1.81-31.18-1.81-31.18"/>
  <path class="cls-21" d="M1068.22,471.98l3.01,24.72c2.52,20.74,2.01,41.73-1.52,62.32l-16.56,130.26s-2.19,80.05.17,125.42c2.07,39.33-6.9,97.9-6.9,97.9l-66.1-2.88-25.72-214.54,3.33-147.17-21.02-74.78,131.3-1.25Z"/>
  <path class="cls-21" d="M889.4,476.01l14.53,203.02c-.71,10.92,2.97,53.09,6.18,63.56l19.65,135.49,1.89,19.57,53.44,5.11-9.07-431.5-86.61,4.75Z"/>
  <path class="cls-7" d="M977.13,899.81c-.15-1.47-.3-2.93-.46-4.4-.41-3.99-.83-7.99-1.24-11.98-.62-6-1.24-11.99-1.87-17.99-.77-7.38-1.53-14.75-2.3-22.13-.86-8.26-1.72-16.53-2.57-24.79s-1.78-17.1-2.66-25.64c-.85-8.23-1.71-16.45-2.56-24.68-.77-7.42-1.54-14.84-2.31-22.26-.62-5.98-1.24-11.96-1.86-17.94-.42-4.03-.84-8.06-1.26-12.09-.15-1.48-.29-2.96-.46-4.44-.97-8.27-1.75-16.5-1.88-24.83-.05-3.02.08-6.04.02-9.05l-.21-10.1c-.13-6.3-.26-12.59-.39-18.89-.17-8.06-.33-16.12-.5-24.18-.17-8.52-.35-17.04-.52-25.56-.16-7.83-.32-15.67-.48-23.5-.12-5.87-.24-11.74-.36-17.61-.05-2.65.02-5.35-.16-7.99-.08-1.21-.43-2.44-.72-3.62-.96-3.82-2.36-7.61-4.49-10.94-2.25-3.53-5.44-6.44-9.63-7.33-.33-.07-1.58.47-1.19.55,8.45,1.79,12.33,11.46,14.07,18.99.46,1.98.53,3.69.57,5.72.09,4.58.19,9.17.28,13.75.14,7.06.29,14.13.43,21.19.17,8.34.34,16.68.51,25.03.17,8.4.34,16.8.52,25.2.15,7.24.3,14.48.45,21.73l.3,14.64c.1,4.77-.03,9.53.09,14.3.2,8.13,1.14,16.13,1.97,24.2.3,2.9.6,5.8.9,8.69.53,5.12,1.06,10.25,1.6,15.37.71,6.83,1.42,13.65,2.13,20.48.82,7.9,1.64,15.8,2.46,23.7.88,8.44,1.75,16.89,2.63,25.33s1.75,16.86,2.63,25.29c.82,7.85,1.63,15.7,2.45,23.56.7,6.74,1.4,13.49,2.1,20.23.52,5.01,1.04,10.02,1.56,15.03.29,2.75.57,5.5.86,8.25.04.35.07.71.11,1.06.03.26,1.49-.01,1.45-.39h0Z"/>
  <path class="cls-13" d="M872.99,343.42c-3.18-1.05-6.61-4.16-6.68-5.81-.02-.51,4.31-61.61,4.4-64.32.35-10.91.77-21.86,2.55-32.65,2.3-13.96,9.29-23.09,18.76-33.78,11.13-12.56,26.67-19.34,34.05-26.04l8.92-3.88s-15.21,19.1,17.58,23.25c32.79,4.15,54.32-30.63,54.32-30.63,0,0,11.12,8.56,32.89,18.02,8.36,3.65,25.31,16.79,29.28,25,9.91,20.5,11.49,29.95,9.32,67.41l-2.41,28.65-12.84-7.96c3.64,25.7,6.72,66.46,6.43,107.13-.05,5.46,5.24,36.1,5.14,41.56-.05,3.24,3.38,36,1.68,38.67-1.61,2.53-12.76,4.72-15.86,5.84-33.15,12.03-124.51,10.36-124.51,10.36-13.96-1.51-23.56,5.69-36.02-.12-8.83-4.12-10.57-6.7-15.39-10.6,2.04-11.66-.27-41.75-.16-53.55.19-18.97,1.49-38.93,1.26-57.92-.01-1.08-2.26-35.98-2.66-36.77-3.28-1.46-2.59.35-10.06-1.86Z"/>
  <path class="cls-13" d="M1078.58,244.25s2.52,61.21,2.59,81.39c0,0-29.05,8.35-57.88,3.05-30.56-5.62,2.7-68.5,2.7-68.5l52.58-15.95Z"/>
  <path class="cls-5" d="M877.28,259.5c.23,10.05.68,20.1,1.14,30.14.57,12.32,1.2,24.65,1.97,36.96.38,6.02.77,12.05,1.32,18.06l.83-.57c-1.92.23-3.94.09-5.84-.24-2.97-.51-6.51-1.75-8.59-4.05-.65-.72-.6-1.12-.65-2-.09-1.55-.19-3.1-.28-4.66l-1.45.39c.62,1.27,1.81,2.31,2.93,3.12,3.3,2.39,7.4,3.37,11.4,3.74.43.04,1.69-.68.9-.76-3.88-.36-7.93-1.28-11.11-3.66-.99-.74-2.1-1.69-2.66-2.83-.23-.46-1.48-.12-1.45.39.1,1.71.22,3.42.31,5.13.04.71.42,1.46,1.17,2.13,3.9,3.49,10.03,4.66,15.12,4.06.26-.03.86-.21.83-.57-1.03-11.16-1.61-22.37-2.22-33.56-.66-12.18-1.24-24.37-1.72-36.56-.2-5.01-.38-10.02-.5-15.04,0-.42-1.46-.15-1.45.39h0Z"/>
  <path class="cls-18" d="M993.22,179.8c-19.17,10.4-41.26,10.9-58.43-2.24,4.23-2.5,3.83-6.57,4.04-7.53.76-3.56-.97-27.5-.97-27.5l60.76-23.71s-2.1,37.93,3.31,49.48c.29.62,2.52,3.31,4.15,4.55-3.51,3.37-8.53,4.6-12.85,6.95Z"/>
  <path class="cls-39" d="M925.41,146.14c2.15,3.37,4.12,6.87,6.41,10.13.03.05.05.1.06.15.18-.15.43-.17.62.08,1.6,2.2,4.23,3.32,5.65,5.67,1.22,2.02.47,4.76.61,7.22,1.66.26,4.4.13,6.49.26,14.11-.38,14.37-2.28,33.07-14.65,5.94-3.93,4.72-8.72,5.86-9.64-19.34-.37-38.54.62-58.77.8Z"/>
  <path d="M1013.41,95.83s2.83-9.25,6.14-31.3c2.96-19.75-28.23-35.8-46.99-38.57-10.31-1.53-44.72,3.11-53.59,7.39-8.87,4.28-13.42,16.38-14.32,33.68,0,0,5.3-17.22,16.26-16.91,8.94.25,37.71-4.45,45.28-1.29,7.58,3.15,24.26,9.77,25.22,36.89.26,7.39,13.32-.51,16.96,3.91,3.64,4.42,5.04,6.21,5.04,6.21Z"/>
  <path class="cls-18" d="M998.79,127.66l2.72-26.68,1.03-29.83-11.9-22.5-21.32-10.09-24.09,1.01s-19.25,4.97-25.33,6.64c-6.07,1.67-10.29,9.16-14.33,17.52-4.05,8.36-2.13,22.16-2.13,22.16-.17.48.38,2.58.48,3.02,1.26,5.54,1.69,10.39,2.72,14.52.48,1.96.5,3.79-.08,5.63-2.25,7.26-2.19,10.36-1.55,14.78.86,6.03,2.03,11.16,4.3,15.89,2.41,5.02,5.44,10.43,6.05,11.49,0,0,6.75,11.23,8.2,12.32,1.45,1.09,3.61,2.1,4.62,2.2,1.01.1,14.28.8,14.28.8l6.16-.22c2.09-.07,4.15-.56,6.05-1.44,5.16-2.37,19.87-9.46,23.89-12.34,5.4-3.88,11.71-19.85,11.71-19.85"/>
  <path d="M992.65,101.99c-.08,2.31.11,11.46-.11,13.71l11.91-.42c3.46-7.95,7.63-17.31,8.96-19.45,2.08-3.34,2.16-19.39,2.19-25.43v-1.3c.05-5.79-5.63-14.9-15.19-24.37-10.52-10.42-29-16.14-47.05-14.57-1.72.15-3.43.36-5.08.63-15.67,2.57-28.59,10.61-38.4,23.91-7.07,9.59-7.38,20.42-6.68,27.01.23-13.03,4.66-22.27,4.85-22.66,4.19-8.93,9.65-11.55,13.51-12.19,3.36-.55,5.9.31,6.4.5,3.83.8,9.41.18,13.43-.48,2.99-.49,5.37-1.05,6.01-1.2,2-1.44,5.02-2.52,8.74-3.13,8.64-1.42,21.21-.09,23.86,3.68,2.94,4.18,9.64,19.13,9.75,22.65"/>
  <path class="cls-18" d="M997.67,128.27c7.14,6.95,11.42-6.8,11.42-6.8,6.48-8.28,6.22-16.89,5.8-22.77-.42-5.88-6.89-5.6-6.89-5.6-5.48.76-7.85,3.79-11.89,22.47"/>
  <path d="M909.7,52.56c3.85-6.54,11.44-14.82,15.72-21.09,2.11-.25,12.56-.75,14.76-.9,22.36-1.48,52.75,10.64,55.84,18.71,1.93,5.03,1.42,32.73.51,35.27-2.5,6.97-3.33,16.04-3.33,16.04-1.18-10.36-8.9-21.73-9.92-25.27-1.02-3.54,3.3-20.54,2.13-21.22-1.17-.68-21.77-6.42-44.59-5.49-6.73.28-13.46,1.04-19.44,1.99.04-.07-11.72,2.03-11.68,1.96Z"/>
  <path d="M953.85,95.35c1.34-.76,2.89-1.39,3.82-.63.22.18.8.69,1.1,1.58.38,1.14-.03,2.46-.73,3.27-.93,1.09-2.52,1.33-3.78.8-1.7-.72-2.31-2.71-1.95-4.19.07-.27.46-.22,1.54-.84"/>
  <path d="M913.79,96.58c-1.39-.66-2.97,0-3.84.83-.2.19-.75.75-.98,1.65-.3,1.16.21,2.45.96,3.21,1,1.02,2.61,1.15,3.82.53,1.64-.84,2.12-2.87,1.65-4.32-.09-.26-.48-1.38-1.61-1.91"/>
  <path d="M925.24,101.62s-5.7-5.31-9.75-5.54c-5.9-.33-7.36,1.05-9.35,3.82,0,0,3.75-2.95,7.9-2.61s11.19,4.33,11.19,4.33Z"/>
  <path d="M944.92,99.12s8.15-5.36,12.2-5.53c5.9-.26,13,3.09,14.96,5.89,0,0-9.37-4.96-13.53-4.66-3.97.28-13.63,4.31-13.63,4.31Z"/>
  <path d="M945.99,74.75c-.39,1.35-.78,2.7-1.17,4.06-.29,1.03-1.04,3.37-1.33,4.4,3.54.09,6.89-.35,9.12-.11,4.43.49,9.05.69,13.13,2.59,1.95.91,3.6,1.95,5,3.48.44.48,1.48,2.33,2.39,2.2.37-.05.31-1.87.31-2.06-.14-3.67-2.61-5.9-5.9-7.72-6.71-3.71-13.99-5.63-21.55-6.83"/>
  <path d="M902.19,86.38s1.94-1.4,1.96-1.41c5.42-3.95,11.57-6.17,18.07-7.71.51,1.31,1.03,2.62,1.54,3.93.39,1,1.16,2.78,1.54,3.78-3.1.25-5.89.19-7.82.54-3.83.68-7.89,1.35-11.23,3.4-.26.16-2.51,1.25-2.76,1.42-1.85-1.36-1.68-3.47-1.29-3.95Z"/>
  <g>
    <path class="cls-6" d="M930.43,124.51c1.76.86,4.38.55,6.08-.61.38-.26,1.67-.07,1.14.3-2.25,1.54-6.02,1.81-8.29.69-.23-.11-.19-.29.08-.39.28-.11.74-.11.98.01"/>
    <path class="cls-6" d="M938.39,123.67c1.14-.6,2.43-.94,3.73-1.09.19-.02.44.04.58.17.11.1.14.23,0,.32-.59.37-1.34.55-2.05.56-.22,0-.51-.04-.65-.23-.12-.18.09-.3.26-.3.58,0,1.17-.15,1.65-.46.2.16.39.32.59.48-1.16.13-2.31.45-3.33.99-.2.11-.5.05-.69-.05-.14-.08-.3-.27-.09-.38"/>
    <path class="cls-6" d="M943.55,123.65c1.52-.09,3.28-.83,3.99-2.03,1.07-1.81-.08-4.55-2.02-5.61-.21-.12-.11-.28.1-.33.27-.07.6.02.82.14,1.69.93,2.84,3.17,2.65,4.83-.18,1.56-1.59,2.69-3.39,3.2-.54.15-1.11.26-1.68.3-.23.01-.65-.04-.77-.22-.12-.18.09-.27.3-.28"/>
    <path class="cls-6" d="M927.62,123.82c.08-.18-.08-.29-.2-.29-.41.03-.83-.08-1.19-.35-.13.17-.26.35-.38.52.82.06,1.66.31,2.41.79.15.1.36.02.48-.09.09-.09.19-.29.04-.38"/>
    <path class="cls-6" d="M928.78,124.01c-.84-.53-1.77-.8-2.7-.87-.14,0-.31.07-.4.2-.07.1-.09.24.02.32"/>
    <path class="cls-6" d="M924.47,124.15c-.99,0-2.18-.64-2.7-1.79-.8-1.74-.19-3.86,1.01-5.03.13-.13.05-.28-.08-.32-.18-.05-.39.06-.52.19-1.04,1.02-1.68,2.64-1.46,4.3.21,1.54,1.19,2.59,2.39,3,.36.12.73.2,1.1.2.15,0,.42-.08.48-.27.07-.19-.07-.27-.21-.27"/>
  </g>
  <path class="cls-12" d="M936.35,135.57c3.38-.16,13.56-.39,13.56-.39,0,0-3.43,3.28-13.57,3.77-10.14.49-13.63-2.34-13.63-2.34l13.64-1.04Z"/>
  <g>
    <path class="cls-37" d="M1006.12,168.48s-16.4,29.89-47.63,29.67c-31.22-.21-25.69-16.41-25.69-16.41l3.65-6.87-10.41,6.12s-2.75,7.02,1.4,14.14c4.15,7.12,20.13,12.56,39.95,9.69,11.63-1.69,26.56-9.59,35.36-18.66,10.54-10.85,11.28-12.22,11.28-12.22l-7.92-5.47Z"/>
    <path class="cls-5" d="M1005.44,168.44c-1.93,3.5-4.47,6.74-7.1,9.74-5.85,6.67-12.99,12.34-21.2,15.83-5.09,2.16-10.54,3.41-16.07,3.65s-11.73-.16-17.21-1.84c-5.04-1.55-10.13-4.83-10.66-10.52-.11-1.13-.06-2.42.31-3.52.08-.23-.07.14.1-.2.38-.75.79-1.5,1.19-2.24.78-1.47,1.56-2.94,2.34-4.41.36-.67-.89-.46-1.14-.31-2.33,1.37-4.66,2.74-6.99,4.11-1.06.62-2.31,1.17-3.28,1.93-.58.45-.68,1.22-.84,1.92-1.08,4.68-.33,10.18,2.69,14.03,2.33,2.97,5.91,4.85,9.36,6.2,4.98,1.94,10.35,2.86,15.67,3.16,5.96.35,12.13.03,17.97-1.28,11.11-2.49,21.97-8.44,30.39-16.05,4.08-3.68,7.83-7.85,11.5-11.94.74-.83,1.72-1.71,2.26-2.7.1-.17.04-.32-.11-.42-2.64-1.82-5.28-3.65-7.92-5.47-.44-.31-1.76.33-1.14.76,2.64,1.82,5.28,3.65,7.92,5.47l-.11-.42c-.33.6-.93,1.17-1.45,1.76-2.6,2.96-5.35,5.8-8.09,8.64-7.96,8.25-17.76,14.64-28.7,18.21-5.61,1.83-11.48,2.57-17.37,2.63-5.47.06-10.99-.5-16.27-1.99-3.91-1.1-7.94-2.74-11-5.49-3.57-3.21-4.98-8.28-4.52-12.97.09-.96.26-1.91.51-2.84.06-.22.19-.47.21-.7.04-.43.29-.04-.16.08.94-.26,1.98-1.17,2.81-1.65,2.53-1.49,5.06-2.97,7.59-4.46l-1.14-.31c-.7,1.33-1.41,2.65-2.11,3.98-.52.98-1.2,1.98-1.59,3.02-.31.85-.37,1.85-.37,2.74,0,5.26,3.81,9.04,8.4,11.04,4.86,2.11,10.31,2.75,15.56,2.95,5.94.22,11.83-.38,17.52-2.17,9.17-2.89,17.3-8.44,23.96-15.31,2.41-2.48,4.63-5.14,6.66-7.95.97-1.34,2.25-2.84,2.88-4.39.03-.07.08-.15.12-.22.36-.65-1.1-.57-1.36-.09Z"/>
  </g>
  <path class="cls-3" d="M993.48,949.1s-24.94-.51-35.99,1.49c-11.05,2.01-39.93,4.15-54.74,2.65-14.81-1.5-34.9-8.55-34.9-8.55,0,0-1.6,1.79,4.45,5.78,6.05,3.99,25.81,8.26,43.36,8.55,17.55.29,43.21,1.01,48.58,1.33,5.37.32,27.78,1.31,31.15-1.89,2.82-2.68-1.9-9.36-1.9-9.36Z"/>
  <path class="cls-22" d="M925.57,960.88c-2.22-2.46-4.37-5.56-4.21-9.03.11-2.47,1.48-4.61,3.46-6.04,2.01-1.45,4.3-1.98,6.73-2,3.44-.02,6.88-.27,10.28-.85,12.99-2.24,23.65-10.26,33.5-18.56,3.67-3.09,7.28-6.28,10.72-9.62.47-.45-.53-.65-.87-.32-3.09,3-6.33,5.87-9.61,8.66-5.59,4.76-11.42,9.43-17.78,13.13-5.51,3.21-11.47,5.36-17.79,6.22-1.84.25-3.7.41-5.56.49-1.58.07-3.19-.05-4.75.16-2.12.28-4.18,1.12-5.87,2.43-1.95,1.52-3.35,3.73-3.51,6.24-.23,3.66,1.96,6.96,4.31,9.55.32.36,1.31-.07.95-.46h0Z"/>
  <g>
    <path d="M1048.17,947.2s1.85,7.31.04,10.61c-1.82,3.3-15.06,3.57-19.36,3.97-4.29.4-59.89,6.21-65.41,6.27-5.52.05-35.2-1.68-39.34-8.02,0,0-7.04-10.69,2.96-14.25,10-3.56,17.37-2.17,26.75-6.63s19.64-11.52,28.68-21.05c0,0,9.15-7.74,13.45-6.51,4.31,1.24,9.07,9.4,12.57,11.37,3.49,1.97,20.28,4.58,24.72-3.49,4.44-8.06,5.62-4.98,8.9-3.77,3.28,1.21,8.58,15.43,7.2,22.01-1.38,6.58-1.15,9.49-1.15,9.49Z"/>
    <path class="cls-29" d="M990.79,921.77l.05-.05c.42-.44.13-1.27-.64-1.86l-5.59-4.2c-.77-.58-1.75-.7-2.17-.26l-.05.05c-.42.44-.13,1.27.64,1.86l5.59,4.2c.77.58,1.75.7,2.17.26Z"/>
    <path class="cls-29" d="M984.28,924.92l.16-.16c.3-.31-.02-.99-.72-1.52l-4.15-3.15c-.7-.53-1.52-.71-1.82-.4l-.16.16c-.3.31.02.99.72,1.52l4.15,3.15c.7.53,1.52.71,1.82.4Z"/>
    <path class="cls-29" d="M978.9,927.93l.27-.27c.27-.28-.02-.89-.65-1.37l-2.96-2.25c-.63-.48-1.36-.64-1.64-.36l-.27.27c-.27.28.02.89.65,1.37l2.96,2.25c.63.48,1.36.64,1.64.36Z"/>
    <path class="cls-29" d="M974.56,931.15l.31-.32c.32-.33.06-.98-.57-1.46l-2.97-2.24c-.63-.47-1.4-.59-1.72-.27l-.31.32c-.32.33-.06.98.57,1.46l2.97,2.24c.63.47,1.4.59,1.72.27Z"/>
  </g>
  <path class="cls-3" d="M1047.83,952.43s-24.92,1.31-35.79,4.12c-10.87,2.81-39.52,7.06-54.4,6.65s-35.43-5.97-35.43-5.97c0,0-1.47,1.9,4.86,5.44,6.33,3.54,26.35,6.35,43.87,5.36,17.52-.99,43.17-2.15,48.55-2.23,5.38-.08,27.8-.73,30.93-4.16,2.62-2.88-2.58-9.19-2.58-9.19Z"/>
  <path class="cls-36" d="M1001.87,110.36c.84-3.22,1.82-6.52,3.47-9.43.42-.74.9-1.47,1.46-2.11.19-.22.32-.35.54-.54.08-.07.16-.13.23-.19.04-.03.08-.06.11-.08,0,0-.11.06.02,0,.06-.04.13-.07.19-.11.09-.05-.18.07,0,0,.15-.06-.17.04-.09.03.1-.02-.02,0-.15.03l-.57-.09c.55.47.96,1.14,1.28,1.77.92,1.82,1.18,3.89,1.06,5.9-.03.53,1.42.23,1.44-.2.14-2.4-.2-4.86-1.53-6.91-.43-.66-.85-1.38-1.73-1.13-1.91.53-3.15,2.73-4,4.33-1.47,2.8-2.41,5.89-3.21,8.94-.12.46,1.33.25,1.44-.2h0Z"/>
  <path class="cls-36" d="M1002.79,111.28c1.71-.14,1.28,2.72,1.19,3.71-.08.9-.69,3.58.9,3.53.86-.03,1.42-.55,1.75-1.3.52-1.18.75-2.51.94-3.77.25-1.67.34-3.13.05-4.78-.32-1.87-1.01-4.15-2.96-4.89-.34-.13-1.65.41-1.18.59,1.63.62,2.26,2.61,2.59,4.17.25,1.17.38,2.36.26,3.55-.14,1.42-.35,2.86-.74,4.24-.12.43-.25.85-.45,1.25-.07.14-.19.28-.25.43-.01.03-.06.05-.07.08.81.04,1.08-.03.82-.21-.03-.02-.06-.05-.08-.07-.56-1.25-.14-2.74-.06-4.07.05-.75.1-1.64-.26-2.32s-1.11-.83-1.83-.77c-.26.02-.82.1-.97.36s.12.3.35.28h0Z"/>
  <path class="cls-31" d="M934.1,133.42c5.05-.24,16.37,2.8,18.73,4.96,0,0-4.64,7.52-16.36,8.07-11.72.55-14.79-6.6-14.79-6.6,0,0,5.99-6.13,12.42-6.44Z"/>
  <path class="cls-22" d="M947.94,136.09s-6.44-.26-11.56-.02c-5.12.24-11.5,1.11-11.5,1.11,0,0-1.02-4.11,8.26-4.55,9.28-.44,14.8,3.46,14.8,3.46Z"/>
  <path class="cls-8" d="M934.86,144.52c5.44-1.16,11.55-6.3,17.97-6.14,0,0-2,11.1-15.77,11.75-13.77.65-15.38-10.28-15.38-10.28,6.38-.76,7.65,4.03,13.18,4.67Z"/>
  <path class="cls-8" d="M927.96,130.54c2.88-.38,4.78.8,6.04.74,1.26-.06,3.03-1.42,5.94-1.31,2.72.1,14.55,7.23,13.32,8.29-1.24,1.06-10.39-4.16-19.1-3.75-8.71.41-11.57,6.19-12.9,5.26-1.33-.93,4.01-8.87,6.71-9.23Z"/>
  <path class="cls-18" d="M1067.62,322.13c-11.08,2.57-18.27-1.58-29.57-.02-7.77,1.07-15.53.73-23.25-.24.67,12.21,1.22,23.85,1.44,33.15l-123,26.69-1.84,24.45c37.32,2.51,99.56,10.08,139.01.8,11.08-2.61,24.17-4.69,30.92-14.78,0,0,7.98-9.59,10.87-54.76.44-6.88.33-10.07.35-16.66-2.04.39-2.93.9-4.93,1.37Z"/>
  <path class="cls-18" d="M906.51,406.78l-12.38-.39s-29.12,10.54-37.99,10.52c-6.41-.26-12.77-1.46-18.88-3.55l-7.39,2.2c-3.4,1.01-7.04.76-10.29-.71l-2.51-1.13s-8.53,5.33-10.33,2.65c-1.79-2.68.89-5.56,3.51-8.35,2.61-2.79,57.04-28.98,57.04-28.98-5.05-1.94-14.3-.64-19.59-1.65-8.14-1.49-10.72-5.15-7.22-8.12,2.16-1.83,8.81-3.18,13.21-1.14,4.38,2.03,25.45-3.12,33.46-.42,8.01,2.71,13.78,13.11,13.78,13.11.66.32,3.53.84,3.53.84.3,1.07,2.04,25.13,2.04,25.13Z"/>
  <path class="cls-39" d="M818.29,414.13c4.56-2.3,9.52-3.89,14.29-5.67s9.76-3.36,14.22-5.81c1.06-.58.1-1.48-.77-1-4.46,2.45-9.47,4.04-14.22,5.81s-9.73,3.37-14.29,5.67c-1.08.55-.11,1.45.77,1h0Z"/>
  <path class="cls-39" d="M838.7,413.54c5.84-1.72,11.68-3.44,17.52-5.16.85-.25,1.7-.5,2.55-.75,1.07-.31.79-1.4-.29-1.08-5.84,1.72-11.68,3.44-17.52,5.16-.85.25-1.7.5-2.55.75-1.07.31-.79,1.4.29,1.08h0Z"/>
  <g>
    <path class="cls-13" d="M1041.43,206.45s-28.9-2.04-32.25,43.51c-3.39,46.01,1.04,73.78,1.04,73.78,0,0,15.44,7.22,34.12,6.19,18.68-1.03,36.84-4.3,36.84-4.3l.47-8.47s-28.49,5-47.01,3.8c-18.51-1.2-25.56-3.55-25.56-3.55"/>
    <path class="cls-5" d="M1041.71,206.05c-5.38-.37-11.24,1.92-15.6,4.87-12.76,8.65-16.64,25.19-17.7,39.63-1.47,20.1-1.8,40.38-.28,60.49.3,4.01.67,8.02,1.23,12,.09.63.02.89.59,1.19,2.21,1.15,4.77,1.86,7.14,2.59,4.6,1.41,9.32,2.44,14.1,3.03,6.16.76,12.26.59,18.43.12,10-.77,19.98-2.01,29.88-3.67.53-.09,1.05-.18,1.58-.27.22-.04.81-.18.83-.48.16-2.82.32-5.65.47-8.47.02-.31-.4-.34-.62-.3-8.14,1.43-16.39,2.45-24.62,3.18-6.56.58-13.17.96-19.76.73s-13.57-.94-20.24-2.03c-2.38-.39-5.43-.91-7.47-1.58-.43-.14-1.74.5-1.16.69,1.9.63,3.9.99,5.86,1.34,6.44,1.17,12.98,1.79,19.5,2.23,12.7.85,25.59-.59,38.17-2.32,3.18-.44,6.35-.9,9.51-1.45l-.62-.3c-.16,2.82-.32,5.65-.47,8.47l.83-.48c-7.01,1.26-14.09,2.2-21.17,2.98-6.34.7-12.76,1.41-19.14,1.41-5.54,0-11.07-.67-16.47-1.87-3.72-.82-7.39-1.89-10.95-3.24-.81-.31-1.61-.73-2.44-.99-.07-.02-.25-.08-.31-.14.18.19.15.18.12.02-.51-2.78-.71-5.65-.97-8.46-1.63-17.64-1.64-35.45-.78-53.13.8-16.33,1.6-35.97,14.57-47.9,4.63-4.26,10.92-7.09,17.09-7.1.11,0,.21,0,.32.01.54.04,1.54-.73.57-.8h0Z"/>
  </g>
  <path class="cls-39" d="M1014.97,355.43c8.29.6,14.64,6.94,19.39,13.22.32.43,2.04-.16,1.66-.66-4.88-6.46-11.43-12.82-19.94-13.44-.4-.03-.96.03-1.25.34-.22.22-.26.52.15.55h0Z"/>
  <path class="cls-39" d="M875.45,366.91c-.06.02.24-.07.32-.09.15-.04.19-.05.36-.08.36-.06.72-.1,1.08-.13.75-.05,1.5-.04,2.25-.02,1.39.05,2.78.19,4.16.3.36.03.97-.15,1.17-.47.22-.36-.19-.46-.47-.48-3.08-.25-6.53-.77-9.56.28-.23.08-.72.38-.48.67s.9.09,1.17,0h0Z"/>
  <path class="cls-39" d="M873.87,414.1c2,0,3.79-.75,5.62-1.47s3.73-1.48,5.6-2.22c.3-.12.68-.49.44-.82s-.88-.21-1.19-.08c-1.67.66-3.35,1.33-5.02,1.99-1.51.6-3.14,1.45-4.8,1.45-.4,0-.96.11-1.16.52-.18.36.16.65.51.65h0Z"/>
</svg>