<?xml version="1.0" encoding="UTF-8"?>
<svg xmlns="http://www.w3.org/2000/svg" xmlns:xlink="http://www.w3.org/1999/xlink" viewBox="0 0 1334 1000">
  <defs>
    <style>
      .cls-1 {
        stroke-width: .14px;
      }

      .cls-1, .cls-2, .cls-3 {
        stroke: #000;
      }

      .cls-1, .cls-2, .cls-3, .cls-4, .cls-5 {
        stroke-miterlimit: 10;
      }

      .cls-2 {
        stroke-width: .14px;
      }

      .cls-3 {
        stroke-width: .14px;
      }

      .cls-6 {
        fill: #273339;
      }

      .cls-7 {
        fill: #010101;
      }

      .cls-8 {
        fill: #20120c;
      }

      .cls-9 {
        fill: url(#linear-gradient-2);
      }

      .cls-10 {
        fill: #653c29;
      }

      .cls-11 {
        fill: #231f20;
      }

      .cls-4 {
        stroke-width: 2.21px;
      }

      .cls-4, .cls-12 {
        fill: #fff;
      }

      .cls-4, .cls-5 {
        stroke: #231f20;
      }

      .cls-13 {
        fill: #956243;
      }

      .cls-14 {
        fill: url(#linear-gradient);
      }

      .cls-15 {
        fill: #f1eef7;
      }

      .cls-16 {
        fill: #919191;
      }

      .cls-17 {
        fill: #1e1e1e;
      }

      .cls-18 {
        fill: #a66e53;
      }

      .cls-19 {
        fill: #31160e;
      }

      .cls-20 {
        fill: #797979;
      }

      .cls-21 {
        fill: #d7b029;
      }

      .cls-5 {
        stroke-width: 1.1px;
      }

      .cls-5, .cls-22 {
        fill: #f9f2df;
      }

      .cls-23 {
        fill: #772515;
      }

      .cls-24 {
        fill: #653c2a;
      }

      .cls-25 {
        fill: #383838;
      }

      .cls-26 {
        fill: #4a1611;
      }

      .cls-27 {
        fill: #24180f;
      }

      .cls-28 {
        fill: #232323;
      }

      .cls-29 {
        fill: #723317;
      }

      .cls-30 {
        fill: #15171d;
      }

      .cls-31 {
        fill: #5b481c;
      }

      .cls-32 {
        fill: #787878;
      }

      .cls-33 {
        fill: #29305e;
      }

      .cls-34 {
        fill: #4f2e25;
      }

      .cls-35 {
        fill: #ffd215;
      }
    </style>
    <linearGradient id="linear-gradient" x1="685.95" y1="295.53" x2="706.03" y2="-181.29" gradientUnits="userSpaceOnUse">
      <stop offset="0" stop-color="#29305e" stop-opacity="0"/>
      <stop offset=".24" stop-color="#212554" stop-opacity=".38"/>
      <stop offset=".51" stop-color="#1b1c4b" stop-opacity=".72"/>
      <stop offset=".77" stop-color="#171645" stop-opacity=".93"/>
      <stop offset="1" stop-color="#161544"/>
    </linearGradient>
    <linearGradient id="linear-gradient-2" x1="-85.06" y1="843.17" x2="1288.58" y2="843.17" gradientUnits="userSpaceOnUse">
      <stop offset=".01" stop-color="#2c2d2d"/>
      <stop offset=".98" stop-color="#4f4f4f"/>
    </linearGradient>
  </defs>
  <g id="Layer_1" data-name="Layer 1">
    <rect class="cls-33" x="-97.86" y="-65.85" width="1607.83" height="874.13"/>
    <rect class="cls-14" x="-87.55" y="-87.75" width="1565.16" height="335.72"/>
    <polygon id="City_02" class="cls-33" points="941.74 181.79 941.74 240.46 919.9 240.46 919.9 100.37 832.18 116.82 832.18 207.45 767.3 208.17 767.44 187.41 767.44 112.3 712.05 137.34 712.05 190.19 661.4 190.19 661.4 135.95 634.49 119.26 609.16 133.17 609.16 233.28 552.18 233.28 552.18 168.5 487.29 168.5 487.29 117.33 430.97 116.24 430.3 214.65 368.6 213.71 365.41 119.1 303.64 137.23 302.1 190.19 264.1 163.86 264.11 92.71 192.88 123.31 192.88 199.92 159.64 199.92 158.06 155.17 112.16 155.17 112.16 226.92 70.96 226.77 71.01 142.9 44.1 126.21 45.68 69.19 -11.3 38.51 -12.88 495.66 654.1 697.36 1028.92 686.96 1028.92 229.56 941.74 181.79"/>
    <polygon class="cls-9" points="1288.58 1008.33 -85.06 1018.33 -85.06 668 1288.58 668 1288.58 1008.33"/>
    <g id="border">
      <polygon class="cls-17" points="526.26 577.4 526.26 587.46 1282.9 1066.67 1282.9 1007.83 526.26 577.4"/>
      <polygon class="cls-28" points="526.26 577.4 1337.68 1048.4 1473.64 983.03 600.28 577.4 526.26 577.4"/>
    </g>
    <path class="cls-33" d="M1410.77,401.08c-1.5-16.6-2.89-33.21-4.17-49.83-1.28-16.67-2.46-33.35-3.53-50.03-1.06-16.62-2.02-33.24-2.87-49.88-.6-11.65-1.12-23.31-1.62-34.97l-43.93-.66-3.19-94.61-61.77,18.12-1.54,52.96-38-26.33v-71.15s-71.21,30.6-71.21,30.6v76.62h-33.24l-1.58-44.75h-45.9v71.75l-41.2-.15.04-83.87-26.91-16.69,1.58-57.02-56.98-30.68-.55,647.37,439.8,9.48c-.76-7.81-2.52-288.46-3.23-296.28Z"/>
    <path class="cls-30" d="M1486.38,1036.23l90.34-13.46,1.69-358.21-593.51-5.7c-46.65-1.98-202.11-.06-248.75,1.98l750.23,375.39Z"/>
    <g id="freepik--Characters--inject-342">
      <rect x="217.71" y="171.67" width="118.1" height="47.52" rx="12.15" ry="12.15"/>
      <path d="M323.66,220.72h-93.8c-7.54-.02-13.65-6.13-13.67-13.67v-23.2c0-7.55,6.12-13.68,13.67-13.7h93.8c7.55.02,13.67,6.15,13.67,13.7v23.2c0,7.55-6.12,13.67-13.67,13.67ZM229.86,173.2c-5.87.02-10.63,4.78-10.63,10.66v23.2c0,5.87,4.76,10.63,10.63,10.63h93.8c5.87,0,10.63-4.76,10.63-10.63v-23.2c0-5.87-4.75-10.64-10.63-10.66h-93.8Z"/>
      <rect x="266.67" y="143.02" width="11.51" height="41.62"/>
      <path d="M278.21,186.17h-11.54c-.84,0-1.52-.68-1.52-1.52v-41.62c.02-.83.69-1.51,1.52-1.52h11.54c.83.02,1.51.69,1.52,1.52v41.62c0,.84-.68,1.52-1.52,1.52ZM268.19,183.12h8.49v-32.97h-8.49v32.97Z"/>
      <path d="M682.7,415.09l-41.28-31.88-64.82-220.97-88.53-11.81,41.44,162.22H45.09l41.5-162.37L-.91,162.08l-66.74,224.17-43.66,28.83h794.01ZM500.03,154.61l61.8,5.24,56.36,205.1-67.77-52.58h-3.65l-46.73-157.76ZM10.84,167.32l63.87-5.24-50.51,161.42,1.7.58-71,47.13L10.84,167.32Z"/>
      <path class="cls-20" d="M190.43,424.8l-7.09-101.29c-1.74-23.96-21.64-42.54-45.67-42.62H44.42c-24.03.08-43.93,18.66-45.67,42.62l-7.09,101.29h198.78Z"/>
      <path class="cls-20" d="M585.55,434.14l-16.44-110.64c-1.75-24.03-40.45-42.62-64.54-42.62h-93.07c-24.08,0-44.08,18.6-45.82,42.62l-7.12,101.29,227,9.35Z"/>
      <path class="cls-22" d="M669.19,432.45c.02-.19.08-.36.16-.5-.95-3.39,9.3-14.06,12.23-16.02,9.51-6.36-4.93-15.99-8.97-21.35-4.5-5.99-8.25-12.49-12.59-18.59-3.53-4.97-8.11-9.54-10.99-14.94-18.41-34.49-26.38-32.61-31.22-35.92-9.43-6.29-65.55-19.27-65.55-19.27l-84.08.95s-59.9,15.76-64.18,21.67c-10.43,12.97-24.36,31.15-30.89,46.46-.97,2.39-14.16,24.35-15.17,26.74-10.56,25.69-.75,43.51,1.76,47.38l311.44-.06c-1.53-5.43-2.57-10.95-1.95-16.56Z"/>
      <polygon points="558.03 399.29 551.66 391.13 485.81 432.44 438.56 432.44 373.17 395.21 367.72 401.11 399.9 446.72 521.13 446.72 558.03 399.29"/>
      <path d="M400.69,445.2h119.68l35.71-45.91-4.78-6.09-64.7,40.58c-.24.15-.51.24-.79.24h-47.25c-.26,0-.51-.07-.73-.21l-64.36-36.53-3.74,3.96,30.96,43.96Z"/>
      <path class="cls-6" d="M385.34,427.96c-.2.05-.41.05-.61,0l-23.66-10.47c-.77-.34-1.12-1.25-.78-2.02.34-.77,1.25-1.12,2.02-.78h0l23.63,10.5c.76.31,1.13,1.18.82,1.94,0,.02-.02.04-.03.07-.3.49-.83.78-1.4.76Z"/>
      <path class="cls-6" d="M358.19,415.94c-.2.04-.41.04-.61,0l-4.69-2.07c-.77-.34-1.12-1.25-.78-2.02s1.25-1.12,2.02-.78h0l4.69,2.07c.75.36,1.09,1.24.76,2.01-.28.51-.82.82-1.4.79Z"/>
      <path class="cls-6" d="M605.22,438.59c-.32,0-.62-.1-.88-.27-.67-.48-.84-1.42-.37-2.1,1.08-1.58,1.97-3.29,2.65-5.08.29-.79,1.17-1.19,1.96-.9.79.29,1.19,1.17.9,1.96-.79,2.02-1.81,3.94-3.04,5.72-.27.41-.73.66-1.22.67Z"/>
      <path class="cls-6" d="M541.74,427.96c-.84-.01-1.51-.71-1.5-1.55,0-.58.34-1.1.86-1.35l23.66-10.5c.77-.34,1.67.02,2.01.79s-.02,1.67-.79,2.01l-23.63,10.47c-.19.08-.4.12-.61.12Z"/>
      <path class="cls-6" d="M568.87,415.94c-.6,0-1.14-.36-1.37-.91-.34-.77,0-1.66.76-2.01l4.69-2.07c.77-.34,1.67.01,2.01.78h0c.33.77-.01,1.66-.76,2.02l-4.69,2.07c-.2.08-.42.13-.64.12Z"/>
      <path d="M666.69,646.74v192.29H-85.06v-192.29h-141.3v281.04c0,21.86,17.72,39.58,39.58,39.58h62.38c21.86,0,39.58-17.72,39.58-39.58h0v-12.97H-16.35l32.06-20.4h547.55l40.89,23.29h62.66v10.08c0,21.86,17.72,39.58,39.58,39.58h62.17c21.86,0,39.58-17.72,39.58-39.58h0v-281.04h-141.45Z"/>
      <path d="M768.56,968.76h-62.38c-22.67.05-41.08-18.28-41.13-40.95,0-.01,0-.02,0-.03v-8.56h-60.89c-.26,0-.51-.06-.73-.18l-40.46-23.11H15.92l-31.69,20.06c-.25.16-.53.24-.82.24h-66.98v11.45c-.03,22.62-18.36,40.95-40.98,40.98h-62.35c-22.62-.03-40.95-18.36-40.98-40.98v-280.95c0-.84.68-1.52,1.52-1.52H-85.06c.84,0,1.52.68,1.52,1.52v190.77h748.58v-190.77c0-.84.68-1.52,1.52-1.52h141.57c.84,0,1.52.68,1.52,1.52v281.04c-.03,22.67-18.43,41.01-41.1,40.98h0ZM604.46,916.18h62.23c.84,0,1.52.68,1.52,1.52v10.08c.03,20.95,17.02,37.92,37.96,37.93h62.38c20.95-.02,37.93-16.99,37.96-37.93v-279.52h-138.43v190.77c0,.84-.68,1.52-1.52,1.52H-85.06c-.84,0-1.52-.68-1.52-1.52v-190.77h-138.25v279.52c.02,20.94,16.99,37.92,37.93,37.93h62.38c20.94-.02,37.92-16.99,37.93-37.93v-12.97c0-.84.68-1.52,1.52-1.52H-16.93l31.66-20.15c.24-.17.53-.25.82-.24h547.71c.26,0,.51.06.73.18l40.46,23.11Z"/>
      <path class="cls-23" d="M778.88,508.34c-5.24-10.47-43.45-50.36-51.12-58.33-.88-.92-1.63-1.94-2.25-3.04-9.35-17.84-88.63-230.53-102.54-256.38-25.48-47.56-45.97-55.36-73.22-58.83-.79,0-72.07-3.05-72.9-3.05l-136.35-4.59c-34.07-1.72-68.2-1.72-102.26,0-55.98,2.8-111.97,6.54-167.97,9.34-46.73,2.37-91.76,10.58-117.43,57.07-14.25,25.76-93.19,238.45-102.54,256.35-.61,1.11-1.37,2.13-2.25,3.04-7.73,8.01-45.88,47.86-51.12,58.33-5.82,11.66-29.14,55.35-29.14,63.93,0,7.55,5.42,132.19,29.38,229.86,6.94,29.27,29.12,52.53,58.03,60.86,1.42.46,2.89.77,4.38.91H41.07c4.9,0,9.42-2.61,11.87-6.85l42.93-74.16c.85-1.46,1.96-2.75,3.29-3.81,18.19-14.06,40.55-21.63,63.54-21.52h250.59c22.93-.06,45.23,7.51,63.39,21.52,1.31,1.06,2.41,2.35,3.26,3.81l42.93,74.16c2.45,4.24,6.98,6.85,11.87,6.85h181.48c1.49-.14,2.96-.45,4.38-.91,28.84-8.29,51.01-31.44,58.03-60.62,23.96-97.67,29.38-222.25,29.38-229.86.12-8.74-23.32-52.43-29.14-64.09ZM-111.31,415.09C-74.77,343.72-6.42,171.7-6.42,171.7c236.54-23.74,431.3-18.1,526.34-10.74,39.02,3.02,63.68,9.27,63.68,9.27h0c11.4,14.85,20.51,34.11,27.05,51.65l72.02,193.2c-225.78-21.83-793.98,0-793.98,0Z"/>
      <path class="cls-20" d="M48.99,863.81l-10.2,23.29h495.34l-7.28-23.29-48.07-83.05s-18.94-21.86-65.55-23.29c-46.61-1.43-250.59,0-250.59,0-23.98-.61-47.33,7.69-65.55,23.29l-48.1,83.05Z"/>
      <path class="cls-25" d="M91.21,587.01s39.33,70.02,51,81.59c11.66,11.57,24.78,11.63,40.8,13.09,16.01,1.46,236.01,0,236.01,0,0,0,17.48-3.04,26.24-16.01,8.77-12.97,37.87-78.67,37.87-78.67H91.21Z"/>
      <path class="cls-20" d="M130.24,596.51s31.51,55.99,40.86,65.33c9.35,9.35,19.82,9.32,32.67,10.5,12.85,1.19,189,0,189,0,0,0,13.97-2.34,20.98-12.85,7-10.5,30.45-62.99,30.45-62.99H130.24Z"/>
      <path class="cls-25" d="M451.53,839.03l-8.74-24.05c-5.5-15.23-20.1-25.26-36.29-24.93l-236.59,2.37c-16.7.33-31.21,11.58-35.68,27.67l-5.91,18.94h323.2Z"/>
      <polygon class="cls-25" points="124.7 850.69 117.46 874.01 464.2 874.01 455.73 850.69 124.7 850.69"/>
      <path d="M726.42,448.61s7.28-56.81,20.4-56.81,71.39,16.01,72.82,27.67c1.43,11.66-11.51,24.63-23.29,27.67-11.78,3.04-36.53,5.85-36.53,5.85l-5.85,21.83-27.55-26.21Z"/>
      <path d="M754.09,476.34c-.38,0-.76-.13-1.04-.4l-27.67-26.24c-.36-.32-.55-.8-.49-1.28.76-6.09,7.89-58.15,21.92-58.15,12.45,0,72.7,15.95,74.35,29.01,1.55,12.48-12.18,26.24-24.36,29.35-10.41,2.59-30.72,5.15-35.59,5.72l-5.57,20.85c-.13.52-.52.94-1.04,1.1l-.52.03Z"/>
      <path class="cls-20" d="M18.39,579.73s26.21,27.67,34.95,78.67c0,0-123.82-5.85-171.89-24.78-48.07-18.94-53.92-20.4-55.38-29.14-1.46-8.74,3.04-71.39,21.86-81.59,18.81-10.2,39.33-7.28,58.27,7.31,18.94,14.58,42.26,36.53,55.38,40.8,13.12,4.26,56.81,8.74,56.81,8.74Z"/>
      <path class="cls-20" d="M561.53,579.73s-26.21,27.67-34.95,78.67c0,0,123.82-5.85,171.89-24.78,48.07-18.94,53.92-20.4,55.38-29.14,1.46-8.74-3.04-71.39-21.86-81.59-18.81-10.2-39.33-7.28-58.27,7.31-18.94,14.58-42.26,36.53-55.38,40.8s-56.81,8.74-56.81,8.74Z"/>
      <path class="cls-16" d="M654.23,579.93c0,18.87,15.29,34.16,34.16,34.16s34.16-15.29,34.16-34.16-15.29-34.16-34.16-34.16h0c-18.85-.02-34.14,15.25-34.16,34.1v.06Z"/>
      <path class="cls-16" d="M593.25,619.71c0,8.76,7.1,15.86,15.86,15.86,8.76,0,15.86-7.1,15.86-15.86,0-8.76-7.1-15.86-15.86-15.86h0c-8.76,0-15.86,7.1-15.86,15.86Z"/>
      <path class="cls-25" d="M717.68,709.4s-135.48,26.21-141.33,30.45c-5.85,4.23-17.48,29.14-17.48,29.14l27.67-7.28s64.12,3.04,85.95-7.28c21.83-10.32,45.18-45.03,45.18-45.03Z"/>
      <path class="cls-25" d="M-131.67,709.4s135.48,26.21,141.33,30.45c5.85,4.23,17.48,29.14,17.48,29.14l-27.67-7.28s-64.12,3.04-85.95-7.28c-21.83-10.32-45.18-45.03-45.18-45.03Z"/>
      <path class="cls-26" d="M650.43,440.72c-.55,0-1.06-.29-1.34-.76-.29-.74.02-1.58.73-1.95,3.74-2.16,7.55-4.17,11.26-6.09.78-.31,1.67.08,1.97.86.28.7,0,1.51-.66,1.88-3.65,1.77-7.37,3.74-11.05,5.88-.28.14-.6.21-.91.18Z"/>
      <path class="cls-26" d="M490.04,647.53c-.21.04-.43.04-.64,0-.75-.34-1.09-1.22-.75-1.97,0-.01.01-.02.02-.04,24.36-53.61,76.11-150.79,148.27-199.57.67-.47,1.6-.31,2.08.36,0,.01.02.02.02.03.48.69.31,1.64-.38,2.12,0,0-.01,0-.02.01-71.61,48.22-122.97,144.8-147.14,198.17-.26.57-.84.92-1.46.88Z"/>
      <path class="cls-26" d="M477.23,677.77c-.17.05-.35.05-.52,0-.79-.29-1.2-1.16-.91-1.95,0,0,1.86-4.9,5.3-13.06.32-.78,1.21-1.15,1.99-.83,0,0,.02,0,.02.01.76.33,1.11,1.21.79,1.98-3.41,8.13-5.21,12.94-5.24,12.97-.27.54-.82.89-1.43.88Z"/>
      <path class="cls-26" d="M83.72,648.66c-.66,0-1.25-.41-1.46-1.04-16.14-48.26-54.8-137.22-132.5-190.98-.71-.44-.93-1.38-.49-2.1.44-.71,1.38-.93,2.1-.49.04.03.09.06.13.09,78.4,54.25,117.4,143.91,133.65,192.5.26.79-.16,1.64-.94,1.92l-.49.09Z"/>
      <path class="cls-26" d="M91.31,674.29c-.71.02-1.33-.47-1.49-1.16,0,0-1.1-4.69-3.44-12.57-.25-.8.2-1.66,1-1.91.01,0,.02,0,.04-.01.81-.22,1.64.24,1.89,1.04,2.37,7.98,3.47,12.73,3.5,12.76.19.82-.32,1.64-1.14,1.82,0,0,0,0-.01,0l-.33.03Z"/>
      <path class="cls-12" d="M706.39,516.01c4.16-15.83,7.05-31.96,8.62-48.26"/>
      <path class="cls-26" d="M706.39,517.53c-.15.03-.31.03-.46,0-.79-.23-1.25-1.06-1.02-1.85,0-.01,0-.03.01-.04,4.13-15.73,6.99-31.76,8.56-47.95.09-.84.85-1.45,1.69-1.35.84.09,1.45.85,1.35,1.69-1.57,16.38-4.47,32.6-8.68,48.5-.21.62-.81,1.03-1.46,1Z"/>
      <path class="cls-26" d="M558.21,822.47c-.46,0-.89-.21-1.19-.55-1.34-1.64-33.03-40.19-34.8-57.66-1.86-18.63,23.2-44.63,30.45-46.43,7.25-1.8,122.63-24.87,127.56-25.88.83-.15,1.63.39,1.8,1.22.17.81-.35,1.6-1.16,1.76,0,0-.02,0-.03,0-1.22.24-120.65,24.14-127.44,25.85-6.33,1.58-29.78,26.7-28.13,43.17,1.55,15.44,29.59,50.48,33.64,55.44l189.12-8.52,10.23-133.04c.08-.83.81-1.45,1.64-1.4.84.06,1.47.8,1.4,1.63,0,0,0,0,0,0l-10.35,134.41c-.06.76-.67,1.36-1.43,1.4l-191.26,8.62-.06-.03Z"/>
      <path class="cls-26" d="M25.7,822.47h0l-191.23-8.62c-.77-.03-1.4-.63-1.46-1.4l-10.32-134.38c-.07-.84.55-1.57,1.39-1.64,0,0,0,0,0,0,.82-.07,1.54.54,1.61,1.36,0,.01,0,.03,0,.04l10.23,133.04,189.15,8.52c4.02-4.96,32.09-40,33.49-55.44,1.64-16.47-21.83-41.59-28.16-43.17-6.33-1.58-126.22-25.6-127.41-25.85-.8-.13-1.34-.88-1.2-1.68,0-.03.01-.06.02-.09.15-.82.94-1.37,1.77-1.22,4.93,1,120.74,24.17,127.56,25.88,6.82,1.7,32.3,27.8,30.45,46.43-1.74,17.48-33.49,56.02-34.8,57.66-.27.33-.67.52-1.1.55Z"/>
      <path class="cls-25" d="M293.61,632.62c-3.11,0-6.15-.12-9.13-.37l-140.6-11.26c-.84-.07-1.47-.8-1.4-1.64.07-.84.8-1.47,1.64-1.4l140.35,11.26c5.89.46,11.8.46,17.69,0l129.57-10.08c.8-.1,1.53.47,1.63,1.27,0,.04,0,.09.01.13.07.84-.55,1.57-1.39,1.64,0,0,0,0,0,0l-129.57,10.05c-2.9.26-5.84.4-8.8.4Z"/>
      <path class="cls-25" d="M293.61,646.59c-3.11,0-6.15-.12-9.13-.37l-131.34-10.5c-.83-.1-1.44-.81-1.4-1.64.06-.84.8-1.47,1.63-1.4,0,0,0,0,0,0l131.1,10.5c5.89.44,11.8.44,17.69,0l125.04-9.71c.78-.12,1.51.42,1.63,1.2,0,.07.02.13.02.2.05.83-.57,1.55-1.4,1.61l-125.04,9.71c-2.9.26-5.84.4-8.8.4Z"/>
      <path class="cls-25" d="M293.61,660.56c-3.11,0-6.15-.12-9.13-.37l-121.78-9.77c-.84-.07-1.47-.8-1.4-1.64.07-.84.8-1.47,1.64-1.4l121.54,9.83c5.89.46,11.8.46,17.69,0l118.74-9.13c.78-.12,1.51.42,1.63,1.2,0,.07.02.13.02.2.05.84-.57,1.56-1.4,1.64l-118.74,9.13c-2.9.2-5.84.3-8.8.3Z"/>
    </g>
    <ellipse class="cls-5" cx="506.71" cy="389.65" rx="3.56" ry="2.41"/>
    <path class="cls-12" d="M384.14,367.21s-5.88-3.22-14.38-2.27c-8.5.96-19.1,3.12-26.43,11.55-2.95,3.39-1.83,6.87-2.97,10.13-1.7,4.83-4.77,9.18-4.16,12.04,1.03,4.79-.36,6.78-.36,6.78l18.18-.03"/>
    <ellipse class="cls-35" cx="350.42" cy="374.95" rx="9.18" ry="3.69" transform="translate(-161.01 417.68) rotate(-51.71)"/>
    <path class="cls-35" d="M346.08,379.82s-4.35,12.42,1,14.66,18.4-27.19,18.4-27.19c0,0-17.81,5.21-19.4,12.53Z"/>
    <path class="cls-4" d="M519.12,385.1c.66,5.4.37,12.69-.05,20.82"/>
    <g>
      <path class="cls-12" d="M414.37,354.86s7.28,37.34,9.27,51.07"/>
      <path class="cls-11" d="M413.64,355.05c2.55,13.09,5.04,26.2,7.34,39.33.68,3.9,1.36,7.81,1.93,11.73.09.62,1.54.27,1.45-.39-2.26-15.53-5.39-30.96-8.36-46.36-.3-1.57-.6-3.14-.91-4.71-.12-.62-1.57-.26-1.45.39h0Z"/>
    </g>
    <g>
      <path class="cls-12" d="M622.82,361.05s-3.08,23.5-5.07,37.23"/>
      <path class="cls-11" d="M622.08,361.1c-1.18,9.03-2.39,18.06-3.64,27.09-.47,3.38-.94,6.76-1.43,10.14-.11.75,1.37.57,1.47-.1,1.65-11.37,3.16-22.77,4.66-34.16.13-1.02.27-2.04.4-3.07.1-.75-1.38-.57-1.47.1h0Z"/>
    </g>
    <path class="cls-22" d="M474.59,295.48l-12.09,11.34s4.45,25.56,27.75,36c0,0,6.68-15.06,11.65-14.63,0,0-24.48-17.18-27.3-32.71Z"/>
    <path class="cls-22" d="M539.7,303.15s6.47-2.26,10.93,3.74c0,0,1.09,25.79-11.14,37.4,0,0-5.11-16.24-10.07-15.81,0,0,10-8.74,10.28-25.34Z"/>
    <g>
      <path class="cls-12" d="M653.33,396.26c-41.01-2.03-83.64,11.94-83.64,11.94"/>
      <path class="cls-11" d="M653.58,395.72c-15.44-.74-30.93.6-46.16,3.12-10.79,1.78-21.5,4.13-32.03,7.1-1.95.55-3.9,1.11-5.83,1.74-.87.29-.61,1.33.28,1.03,5.44-1.78,11.02-3.21,16.59-4.54,13.07-3.14,26.36-5.46,39.75-6.68,8.94-.81,17.94-1.12,26.91-.69.73.03,1.47-1.04.49-1.09h0Z"/>
    </g>
    <path class="cls-13" d="M539.35,317.79c-1.46,2.49-3.23,5.02-5.47,6.87-2.74,2.26-.24,1.26-3.68,2.19l-.45,1.18c-2.73.62-7.72,57.92-10.52,57.8l-17.58-58.1c-1.31-.17-5.79-1.62-7.04-1.94-10.33-2.64-13.17-4.4-17.44-13.94.97-13.88-1.22-43.55-1.22-43.55l64.81,8.38s1.36,25.81,2.69,29.24c.07.19,6.45,4.13,2.74,4.97.09,2.78-5.47,4.58-6.84,6.92Z"/>
    <path class="cls-13" d="M521.79,302.82l20.78-2.62,10.21-3.28c1.06-.07,4.72-11.17,5.32-12.59,1.87-4.4,4.3-10.17,5.27-14.86,1.04-5.03,3.76-9.55,3.99-15.51.16-4.37-.08-7.39-3.02-14.22-.75-1.74-.92-3.52-.65-5.48.58-4.13.51-8.89,1.17-14.41.05-.43.37-2.54.16-2.99,0,0-2.11-20.16-6.9-27.89-4.79-7.73-10.21-7.83-16.29-8.84-6.08-1.01-23.46-4.01-23.46-4.01l-23.55,1.48-19.72,12-9.29,23.12,4.04,28.93,5.37,25.69"/>
    <path d="M478.12,226.55c.32,2.24,1.52,26.34,1.97,28.51l-11.64.8c-4.18-7.39-9.19-16.08-10.7-18.02-2.36-3.04-4.08-18.65-4.73-24.53l-.14-1.27c-.63-5.63,3.97-15.08,12.31-25.27,9.18-11.21,26.58-18.66,44.32-18.98,1.69-.03,3.37,0,5.01.1,15.51.9,28.37,4.12,39.27,16.07,7.86,8.61,9.76,16.28,9.74,22.77-1.55-12.66-8.55-19.87-8.77-20.23-4.99-8.26-10.66-5.34-14.47-5.56-3.32-.19-5.71.91-6.18,1.14-3.65,1.17-7.27,1.01-11.25.78-2.96-.17-5.33-.47-5.98-.56-2.1-1.2-5.15-1.94-8.83-2.15-8.55-.5-20.66,2.07-22.85,6.01-2.43,4.37-13.03,5.39-12.77,8.82"/>
    <path class="cls-13" d="M476.37,267.82c-6.24,7.5-11.81-5.46-11.81-5.46-7.16-7.4-7.78-15.8-7.97-21.57-.19-5.77,6.14-6.15,6.14-6.15,5.41.18,8.03,2.89,13.87,20.66"/>
    <path d="M457.32,237.09s-10.02-16.79-7.5-36.17c2.52-19.38,25.04-30.89,34.93-33.41,9.89-2.51,41.39-4.83,50.45-1.57,9.07,3.26,25.79,8.54,27.79,37.49,0,0-1.35-18.37-20.89-17.05-8.73.59-24.42,2.79-36.31,3.12-4.92.14-23.5-.46-25.36,2.49-4.27,6.76,4.72,20.06-1.8,40.98-2.16,6.91-13.51-6.36-16.61-1.69-3.1,4.68-4.69,5.81-4.69,5.81Z"/>
    <path class="cls-11" d="M472,252.25c-1.41-2.52-2.95-5.01-4.82-7.23-.96-1.14-2.03-2.26-3.3-3.07-.54-.35-1.17-.68-1.82-.75s-.96.4-1.2.96c-1.08,2.47-.8,5.32.01,7.82.13.4,1.12.13.99-.27-.64-1.96-.94-4.05-.5-6.09.15-.71.38-1.48.8-2.08l-.52.29c-.09,0-.1-.04-.02,0,.03.02.09,0,.12.01-.17-.03.05.01.09.02.42.12.71.26,1.12.5,1.81,1.1,3.23,2.85,4.48,4.52,1.36,1.83,2.55,3.78,3.67,5.77.19.34,1.15,0,.91-.41h0Z"/>
    <path class="cls-11" d="M470.02,253.47c-4.09.14-1.05,5.06-1.46,7.25-.02.09-.09.21-.09.3,0,.14-.32.2.13.08.52-.14.16.01.13-.11-.01-.06-.21-.21-.26-.27-.15-.18-.26-.39-.37-.6-.58-1.09-.94-2.3-1.27-3.49-.41-1.52-.67-2.87-.61-4.44.07-1.75.36-4.28,2.1-5.19.17-.09.26-.22.1-.35s-.55.03-.7.1c-1.64.86-2.2,2.76-2.4,4.48-.15,1.3-.18,2.65.1,3.93.32,1.46.7,2.92,1.27,4.3.25.62.61,1.66,1.27,1.98.51.25,1.19-.02,1.45-.5.32-.57.14-1.36.02-1.97-.16-.86-1.49-4.96.19-5.01.18,0,.58-.07.66-.26s-.06-.26-.26-.25h0Z"/>
    <path d="M515.41,234.26c-1.38-.6-2.91.11-3.73.94-.19.2-.71.75-.91,1.65-.25,1.15.28,2.39,1.04,3.11,1.01.97,2.59,1.04,3.76.39,1.58-.87,1.98-2.88,1.47-4.28-.09-.26-.52-1.33-1.64-1.82"/>
    <path d="M555.47,231.87c1.29-.78,2.89-.29,3.82.42.22.17.81.65,1.13,1.51.41,1.1.05,2.4-.6,3.23-.87,1.1-2.43,1.38-3.67.91-1.69-.65-2.35-2.58-2.05-4.03.06-.27.33-1.39,1.37-2.03"/>
    <path d="M544.71,237.69s5.01-5.75,8.92-6.38c5.71-.92,7.27.27,9.49,2.76,0,0-3.95-2.49-7.96-1.73-3.83.73-10.45,5.35-10.45,5.35Z"/>
    <path d="M524.44,237.58s-8.4-4.53-12.36-4.36c-5.78.25-12.42,4.12-14.08,7.01,0,0,8.71-5.63,12.79-5.7,3.89-.06,13.66,3.04,13.66,3.04Z"/>
    <path d="M524.18,222.04c-.27,1.35-.54,2.7-.81,4.05-.21,1.03-.61,3.39-.82,4.42-3.07-1.51-5.74-3.39-7.77-4.17-4.01-1.56-8.07-3.44-12.4-3.62-2.08-.08-3.95.09-5.83.8-.6.22-2.31,1.36-3.03.84-.3-.21.56-1.77.65-1.93,1.75-3.13,4.87-3.97,8.5-4.08,7.4-.23,14.49,1.35,21.51,3.68"/>
    <path d="M565.02,216.86s-2.41-.4-2.42-.41c-6.74-1.16-13.38-.49-20.04.94.1,1.37.21,2.74.31,4.12.08,1.05.16,2.94.25,3.99,2.97-1.11,5.51-2.35,7.44-2.87,3.83-1.04,7.86-2.18,11.85-1.81.31.03,2.02.22,2.32.26,1.11-1.99.87-3.96.3-4.22Z"/>
    <path d="M536.4,265.04l-.18,1.4c-.05.36-.38.64-.84.7-3.16.42-15.17,1.99-18.08,2.02-.07,0-.13,0-.2-.01l-.95-.12c-1.1-.14-1.39-1.29-.4-1.63,3.01-1.02,7.22-2.39,8.91-2.75,2.12-.44,7.91-.58,10.53-.61.69-.01,1.26.47,1.2.99Z"/>
    <path d="M540.04,264.88l.38,1.35c.1.34.45.58.88.58,2.96,0,12.66.03,15.33-.3.06,0,.12-.02.18-.04l.85-.24c.99-.28,1.08-1.44.12-1.64-2.92-.61-5.42-1.45-7.03-1.58-2.01-.16-7.35.45-9.76.75-.64.08-1.09.62-.95,1.12Z"/>
    <path d="M530.31,282.88l16.02-.89s-2.87,5.8-6.63,6.06c-2.35.16-6.72-3-9.39-5.17Z"/>
    <g>
      <path class="cls-7" d="M541.81,260.54c-1.62,1.02-4.21.99-5.98.03-.39-.21-1.63.1-1.08.4,2.34,1.27,6.04,1.14,8.14-.17.21-.13.16-.3-.12-.37-.29-.08-.73-.03-.95.11"/>
      <path class="cls-7" d="M533.98,260.53c-1.17-.47-2.46-.67-3.74-.68-.19,0-.42.09-.55.22-.1.11-.11.24.03.31.61.3,1.36.39,2.05.33.22-.02.5-.09.61-.29.1-.18-.12-.28-.28-.27-.57.05-1.15-.03-1.65-.27-.17.18-.35.35-.52.53,1.14.01,2.29.2,3.34.62.21.08.49,0,.67-.12.13-.09.26-.29.05-.38"/>
      <path class="cls-7" d="M528.95,261.04c-1.49.06-3.28-.48-4.09-1.57-1.22-1.65-.38-4.39,1.4-5.62.19-.13.08-.28-.13-.31-.27-.04-.58.08-.78.22-1.55,1.07-2.44,3.33-2.09,4.93.33,1.5,1.82,2.46,3.63,2.77.54.09,1.11.14,1.66.12.23-.01.62-.11.72-.29.1-.19-.11-.26-.32-.25"/>
      <path class="cls-7" d="M543.37,259.88c.76-.6,1.65-.96,2.54-1.12.13-.02.31.04.41.16.08.09.11.22.01.31"/>
      <path class="cls-7" d="M547.58,259.58c.96-.1,2.05-.84,2.45-2.02.6-1.77-.21-3.78-1.49-4.8-.14-.11-.08-.27.05-.32.17-.07.38.02.53.13,1.12.89,1.9,2.4,1.86,4.03-.04,1.52-.89,2.64-2.02,3.16-.33.15-.69.27-1.05.31-.15.01-.41-.04-.5-.21-.09-.18.04-.27.18-.28"/>
    </g>
    <path class="cls-24" d="M542.57,300.2l.44,4.09s-22.89,1.87-26.63,1.62c-3.73-.25-12.03-3.35-26.63-23.3,0,0,17.47,19.1,30.5,20.21l22.31-2.62Z"/>
    <path class="cls-35" d="M492.96,335.8c4.32,4.25,9.63,7.98,15.32,10.07,4,1.47,8.48,2.08,12.56.56,2.81-1.05,5.4-2.94,7.88-4.59,2.09-1.4,4.14-2.88,6.09-4.47,1.64-1.34,3.4-2.78,4.68-4.49.36-.48-2.97-3.4-3.01-3.36-.95,1.27-2.2,2.36-3.39,3.39-3.87,3.38-8.21,6.26-12.63,8.86-7.83,4.61-16.81.91-23.63-3.85-1.39-.96-2.72-2-4.01-3.1-.19-.16-.65-.58-.95-.85-.11-.1-.21-.2-.32-.3.49.46.28.27.17.16-.25-.24-.95-1.12-.77-.4s1.46,1.83,2,2.35h0Z"/>
    <path class="cls-22" d="M473.78,294.33l-12.35,11.58s4.54,26.09,28.33,36.75c0,0,6.82-15.38,11.89-14.94,0,0-25-17.53-27.87-33.39Z"/>
    <path class="cls-22" d="M542.72,300.72s3.58-.86,8.13,5.26c0,0,1.12,26.33-11.38,38.19,0,0-5.21-16.58-10.28-16.14,0,0,13.23-10.37,13.52-27.31Z"/>
    <path class="cls-11" d="M459.71,307.83c.72,3.14,2.01,6.22,3.4,9.11,3.17,6.6,7.52,12.64,12.98,17.53,3.94,3.53,8.39,6.39,13.21,8.57.33.15.96-.06,1.11-.4,1.06-2.39,2.29-4.72,3.64-6.96,1.06-1.77,2.2-3.51,3.57-5.06.88-1,2.25-2.57,3.74-2.49.67.04,1.5-.94.52-.99-3.79-.21-6.61,4.32-8.37,7.06-1.69,2.64-3.19,5.44-4.47,8.31l1.11-.4c-13.32-6.03-23.41-17.9-28.1-31.67-.34-.99-.66-1.99-.9-3.01-.14-.63-1.59-.25-1.45.39h0Z"/>
    <path class="cls-11" d="M551.64,305.97c.13,3.13-.06,6.3-.35,9.41-.6,6.48-1.87,13.03-4.5,19.01-1.55,3.53-3.61,6.83-6.4,9.51h1.32c-1.11-2.97-2.45-5.88-3.97-8.66s-4.12-7.92-7.93-7.71c-.79.04-1.14,1.05-.15.99,1.49-.08,2.83,1.54,3.67,2.57,1.36,1.67,2.45,3.55,3.45,5.45,1.31,2.5,2.49,5.09,3.48,7.74.2.53,1.02.28,1.32,0,4.96-4.77,7.68-11.38,9.32-17.95,1.39-5.56,2.05-11.3,2.19-17.02.03-1.16.04-2.32,0-3.47-.03-.72-1.49-.47-1.46.13h0Z"/>
    <path class="cls-10" d="M537.9,270.06c-6.4.15-16.78-.39-16.78-.39,0,0,2.26,16.28,17.09,15.93,14.83-.36,16.44-16.74,16.44-16.74,0,0-10.35,1.04-16.74,1.2Z"/>
    <path class="cls-19" d="M537.96,270.06c-3.04.07-15.31-.17-15.31-.17,0,0,4.23,9.98,15.22,9.71,11.93-.29,15.26-10.35,15.26-10.35l-15.17.81Z"/>
    <path class="cls-15" d="M538.11,270.54c-3.04.07-12.31-.24-12.31-.24,0,0,3.42,3.43,12.54,3.21,9.12-.22,11.94-3.7,11.94-3.7l-12.17.73Z"/>
    <path class="cls-10" d="M555.29,267.87c-.33-.08-2.08.59-3.59.49-2.52-.17-4.11-.83-5.94-.93-3.12-.18-5.07,1.16-6.42,1.2-1.35.03-3.36-1.21-6.47-.89-1.82.19-6.32,1-8.83,1.29-1.51.17-3.29-.4-3.61-.31-.45.13.51,3.58,17.53,3.17,17.02-.41,17.8-3.91,17.34-4.01Z"/>
    <polygon class="cls-13" points="504.59 216.66 499.76 224.4 498.44 224.05 503.64 216.41 504.59 216.66"/>
    <polygon class="cls-13" points="451.27 221.17 483.11 214.04 483.15 215.16 451.55 222.22 451.27 221.17"/>
    <polygon class="cls-13" points="452.82 226.81 485.21 219.6 485.24 220.73 453.24 227.81 452.82 226.81"/>
    <polygon class="cls-13" points="454.5 231.61 486.92 224.61 486.95 225.73 454.98 232.63 454.5 231.61"/>
    <polygon class="cls-13" points="456.59 235.43 488.59 228.29 488.62 229.42 457.14 236.46 456.59 235.43"/>
    <polygon class="cls-13" points="459.24 238.63 491.45 232.03 491.49 233.15 459.51 239.68 459.24 238.63"/>
    <polygon class="cls-13" points="466.14 241.04 494.69 235.35 494.73 236.47 467.93 241.83 466.14 241.04"/>
    <polygon class="cls-13" points="469.4 244.51 492.34 239.96 492.37 241.09 469.67 245.56 469.4 244.51"/>
    <polygon class="cls-13" points="472.93 247.42 505.14 241.85 505.17 242.97 473.2 248.47 472.93 247.42"/>
    <polygon class="cls-13" points="474.25 250.23 506.46 244.66 506.49 245.78 474.52 251.29 474.25 250.23"/>
    <polygon class="cls-13" points="474.81 253.16 507.02 247.58 507.05 248.71 475.08 254.21 474.81 253.16"/>
    <path d="M564.62,408.2c-17.78-43.41-60.89-72.06-110.41-69.63-43.87,2.15-81.16,29.01-98.26,66.98,5.68.06,17.62-.17,17.62-.17,17.44-32.94,52.32-53.3,91.96-50.98,35.73,2.09,66.26,23.16,81.71,53.29l17.38.51Z"/>
    <path class="cls-13" d="M392.29,371.85c-.17.12-.27.2-.27.2-4.74-4.73-10.36-8.3-16.49-10.49-2.85-.69-5.81.6-7.41,3.23-.8-.25-1.62-.39-2.46-.42-5.52-.19-10.13,4.48-10.31,10.42-4,.84-6.86,4.66-6.78,9.05,0,0-2.94,2.72-3.71,6.56-.4,4.25,1.95,10.02,5.54,11.83,6.51,2.35,11.04,2.19,17.85,3.14,3.47.32,4.64-4.16,4.64-4.16,1.71.32,3.47-.07,4.93-1.1,1.67-1.29,2.77-3.26,3.04-5.46,10.35,1.62,8.41-6.37,8.41-6.37,0,0,1.55,3.67,6.72,2.58,4.78-1,2.63-9.4,2.28-10.68-1.29-3.24-3.59-5.98-6-8.33Z"/>
    <path class="cls-34" d="M354.84,392.51c2.77,1.93,5.75,3.48,8.88,4.6,2.46,1.12,4.7,2.17,6.2,3.09s2.52,1.45,2.63,1.29-.67-1.02-2.18-2.09c-1.98-1.34-4.07-2.49-6.23-3.44-2.96-1.54-6.07-2.7-9.28-3.45Z"/>
    <path class="cls-34" d="M359.93,383.33c3.14,2.53,6.51,4.71,10.07,6.48,3.37,2.17,7.02,3.82,10.82,4.89-3.28-2.29-6.71-4.32-10.26-6.07-3.36-2.16-6.92-3.94-10.63-5.31Z"/>
    <path class="cls-34" d="M368.93,373.63c-.16.35,4.97,2.83,10.87,6.7,2.52,1.6,4.93,3.38,7.22,5.34.85.87,1.61,1.84,2.26,2.89.08-.09.06-1.76-1.59-3.67-2.18-2.24-4.6-4.19-7.21-5.81-3.52-2.53-7.43-4.38-11.55-5.46Z"/>
    <path class="cls-18" d="M999.82,454.23l-4.89,24.61,1.22,11.95,5.37,11.41,16.24,15.47s3.01-.39.54-5.37c-2.46-4.39-5.28-8.64-8.42-12.72l-.87-12.92,3.58-5.41,3.6.89s-2.16,15.98.08,19.39c.39.59.72,1.08,1,1.49.79,1.14,2.38,1.35,3.45.47l1.58-1.31,2.39-23.82s-.74-10.61-1.26-13.14c-.81-2.52-2.25-6.19-3.5-8.6l-.09-3.33-16.91-6.32-3.09,7.27Z"/>
    <path class="cls-18" d="M1058.92,220.73c-2.71.92-42.23,18.25-48.77,39.03-6.55,20.78-5.96,87.43-9.48,105.83-4.39,21.42.51,80.9-.08,86.24l-1.18,19.37,14.86-5.7s9.5-109.39,20.74-138.35c11.25-28.96,23.91-106.42,23.91-106.42Z"/>
  </g>
  <g id="Layer_2" data-name="Layer 2">
    <path class="cls-18" d="M1035.27,555.33c8.67,2.49,18.07.79,27.06,1.39,14.6.96,21.67.62,36.17-.49-7.48,29.27-10.85,89.88-9.53,102.74,2.02,19.64,19.14,37.52,2.04,147.58l-24.43,6.04s-10.9-77.59-20.84-136.74c-4.63-27.58-9.66-81.56-15.8-120.63,6.36,2.7-1.34-1.81,5.33.1Z"/>
    <path class="cls-18" d="M1082.27,554.99c8.67,2.49,18.07.79,27.06,1.39,14.6.96,21.67.62,36.17-.49-7.48,29.27-10.85,77.63-9.53,90.5,2.02,19.64,19.14,49.76,2.04,159.83l-24.24,16.41s-12.32-87.96-22.26-147.11c-4.63-27.58-9.66-81.56-15.8-120.63,6.36,2.7-.11-1.81,6.55.1Z"/>
    <path class="cls-34" d="M1097.61,723.28c.05.25.08.52.16.77.27.85,1.49.76,1.52-.19.03-1.02-.37-2.2-.54-3.2-.6-3.4-1.21-6.8-1.83-10.19-2.71-14.93-5.69-29.83-8.06-44.82-2.62-16.57-4.72-33.22-6.94-49.85-2.42-18.21-4.86-36.42-7.83-54.55-.34-2.07-.69-4.14-1.04-6.2l-1.15.66c1.88.76,3.86,1.44,5.72.32,2.2-1.33,4.8.04,7.12.5,8.53,1.7,17.28.43,25.9,1.01.67.04,1.5-.93.52-.99-8.64-.58-17.46.74-26.01-1.03-2.34-.49-5.12-1.78-7.48-.68-.48.22-.9.65-1.41.78-1.09.28-2.54-.45-3.51-.84-.4-.16-1.24.13-1.15.66,2.53,14.65,4.62,29.37,6.63,44.1,2.04,14.92,3.96,29.85,6.01,44.77,1.73,12.54,3.62,25.03,5.91,37.48,2.07,11.27,4.14,22.54,6.17,33.82.39,2.16.78,4.32,1.15,6.49.1.6.07,1.62.36,2.17.05.09-.03-.11.13-.29l.86-.31c.9.05.35.5.42.11.02-.1-.06-.27-.08-.37-.04-.17-.07-.34-.1-.52-.12-.63-1.58-.26-1.45.39h0Z"/>
    <path class="cls-21" d="M998.81,299.32c8.26,7.02,17.38,7.01,18.65,8.68,4.23,5.54-8.41,5.03-2.53,8.86,3.18,2.07,3.4,9.56,6.97,10.49,2.66-3.54,5.06-7.26,7.21-11.13,4.3-7.75,7.58-16.02,10.06-24.52,2.53-8.67,4.25-17.56,5.43-26.51,1.19-9.01,1.84-18.09,2.19-27.18.3-7.53,2.46-11.66,2.49-19.2-7.13,3.27-19,4.93-25.37,10.89-7.84,7.34-8.49,7.15-13.73,22.1-3.23,9.21-1.87,8.25-4.4,17.06.06.14-6.98,30.27-6.98,30.45"/>
    <path class="cls-21" d="M1034.2,608.01c11.04.12,22.09.28,33.13.47,11.03.2,22.07.44,33.1.71,11.03.28,22.06.59,33.08.93,10.16.32,20.33.66,30.49,1.03-2.44-44.39-5.86-82.22-.89-100.76,14.75-54.96,1.83-92.14-15.06-115.57l-134.57,17.9-1.45,111.04c.42,13.31.51,35.47,2.01,84.09,6.72.04,13.44.08,20.16.16Z"/>
    <path class="cls-21" d="M1013.81,263.36c.47-15,5.47-25.12,9.31-30.75,2.13-3.12,5.08-5.58,8.49-7.21,4.92-2.34,9.25-4.73,15.81-7.09,1.22-.44,12.13-3.51,12.01-3.24-3.36,7.79,3.77,14.82,12.41,15.82,3.1.36,6.15.49,9.06.43,9.91-.2,24-9.74,30.01-17.18l1.06-1.38,1.18.69,31.85,13.89-3.29,142.18-6.02,4.66c-16.24,6.08-32.58,12-49.41,16.24-19.68,4.96-40.34,7.73-60.52,4.37-4.62-.77.14.39-4.31-1.05,1.13-4.9-1.33-12.27-1.37-17.46-.23-28.63-.95-42.92-1.92-44.1,0,0-3.23-8.32-5.09-17.33"/>
    <path class="cls-21" d="M1020.08,373.54s-6.6,25.38-6.6,40.04c0,0,45.36,25.84,97.96,19.09,52.6-6.75,47.89-11.55,47.89-11.55l-11.69-47.58-6.05-22.51-116.35,7.17"/>
    <g>
      <path class="cls-21" d="M1017.14,262.36s2.3,4.82,1.83,11.36c-.47,6.54-16.23,42.71-.1,62.56"/>
      <path class="cls-31" d="M1016.42,262.55c1.76,3.74,2.45,8.69,1.6,12.72-.75,3.53-1.9,6.98-2.85,10.46-2.89,10.67-5.2,21.93-3.94,33.03.74,6.44,2.87,12.69,6.96,17.78.27.34,1.67-.15,1.35-.54-7.53-9.38-8.02-22.17-6.5-33.6.71-5.32,1.88-10.56,3.26-15.74.98-3.68,2.15-7.31,3.02-11.01,1.01-4.31.43-9.48-1.46-13.49-.21-.45-1.62.02-1.45.39h0Z"/>
    </g>
    <path class="cls-18" d="M1113.29,176.51s-9.1,24.42-4.1,35.12c.67,1.43,3.42,3.18,3.59,4.48,0,0-11.89,19.03-36.41,17.86-24.52-1.17-19.18-18.74-19.18-18.74.89-.55.65.53,1.54-.02.24-.15,1.35-1.17,1.52-1.4.25-.35.26-.8.26-1.22,0-11.82-.32-22.79-.72-34.6"/>
    <path class="cls-34" d="M1094.37,196.58s-4.53,10.38-25.62,13.42c0,0-4.65,1.37-8.13.05l-.21-4.28,33.96-9.19Z"/>
    <path class="cls-2" d="M1037.75,170.4c6.66-4.39,8.21-12.67,7.69-20.12-.5-7.13,5.28-17.83-3.45-17.8-.17,0,3.35-5.97.77-5.53,1.72-3.87-4.05-3.71-4.69-8.16-.13-.9-1.1-8.82,4.55-9.14,21.36-27.55,48.36-20.54,63.55-17.89,29.8,5.19,44.3,7.48,35.24,54.62-6.08,31.64-36.28,39.21-66.46,37.13-12.89-.89-28.24-.98-37.47-12.93.09-.06.18-.11.28-.17Z"/>
    <path class="cls-2" d="M1104.81,71.16c-7.43,3.18-11.09,9.71-11.81,17.51,1.47,1.42,4.68,3.07,6.16,4.48.31-.5.63-.99.96-1.47,1.62,1.54,5.98,3.08,7.62,4.59.49-.27,2-.84,3.78-1.49.5.47,1.01.94,1.51,1.41-1.36.31-2.46.71-3.17,1.21,1.87,1.75,6.8,2.91,8.57,4.74,3.85,3.97,8.14,9.26,12.15,13.06,1.27.99,2.28,1.94,3.09,2.82l-3.1,2.5,4.14,3.69c-.53,1.11-.85,1.74-.85,1.74l3.39,3.1s2.37-2,5.73-5.03c11.91,5.23,17.42-4.5,16.62-9.15-.35-2.05-1.31-3.62-2.31-4.76,4.99-5.4,8.78-10.48,8.16-12.96-1.23-4.99-8.63-16.41-12.23-21.78-.66-1.69-1.41-3.35-2.27-4.88l-.04-.1s-.01,0-.02,0c-.96-1.7-2.04-3.23-3.26-4.39-3.16-3-9.99-2.2-15.57-.86-5.62-5.45-9.58-7.15-13.04-7.67-4.84-.73-13.17,5.21-14.1,6.86-.46.81-.35,3.88-.12,6.81ZM1148.78,118.7c2.14-2.03,4.36-4.2,6.45-6.37-.03,1.13-.24,2.41-.76,3.74-.89,2.24-3.41,2.71-5.69,2.63ZM1117.96,63.22c.45.38,1.88,2.71,3.29,5.12-4.01.13-7.4.76-9.17.96-.19.02-.38.05-.57.08-.78-1.52-1.69-3.58-1.69-4.9.01-2.32,5.79-3.23,8.14-1.26Z"/>
    <path class="cls-18" d="M1058.59,108.53c-.07.11-.16.22-.25.32.08-.05.16-.09.24-.14v-.19ZM1049.5,109.97v.16c.14-.1.29-.21.42-.31.01-.19-.42.16-.42.16ZM1110.03,184.57l1.32-3.02c1.49,5.98,9.7,2.77,10.94-5.12,6.32-6.59,7.99-17.03,5.17-21.47l-.33-.64c-2.11-2.02-6.11-3.24-8.14-.38-.7,1.26-1.73,2.67-2.43,3.94-.71,1.45-1.82,4.4-2.93,5.63,0,0,5.37-13.9,5.82-17.43.45-3.53.93-12.29-5.02-17.77,0,0-7-7.98-9.59-11.91l-.99-.44c-.61-.04-1.03.12-1.64.07.01-.19.23-.36.25-.73-1.04.3-1.84.06-2.66,0,.22-.17.64-.33.65-.52-.83.13-1.63-.11-2.44-.17.22-.17.65-.52.66-.7-1.04.3-1.63-.11-2.44-.17.22-.17.45-.53.46-.72-.84.32-1.64.07-2.45.02.22-.17.45-.53.66-.7-1.04.3-1.63-.11-2.44-.17-.2-.01.43-.34.44-.53-.62.14-1.44.09-2.05.05.01-.19.43-.35.45-.53-1.25.29-1.83-.13-2.64-.18l.66-.7c-.85.5-1.67.45-2.46.2.21-.17.65-.52.66-.7-1.05.49-2.29.59-3.28.15.2.01.65-.52.66-.7-1.07.68-1.87.43-2.88.36.22-.17.45-.53.88-.88-1.27.66-2.72.94-3.9.29.2.01.45-.53.46-.72-.87.69.73-.14-.28-.4,0,0-2.39.59-2.38.4-.85.5,2.36-3.02,1.35-3.09.23-.36-5.86-.06-5.43-.4-1.07.68-.83.31-2.04.03,0,0-4.38,1.94-4.16,1.77-1.08.86-1.49.05-2.69-.22.21-.17.68.83.9.66-.87.69-.53-.22-1.55-.29.01-.19-3.24-1.44-3.23-1.63-1.06.49-.73.59-1.95.51.01-.19-.91,2-.69,1.83-.87.69-.78.08-1.79-.18l-1.06.62c-1.08.86.34.55-.86.28,0-.13,4.55.9,4.75.67-.81.45-1.76.87-2.7.97.01-.19.24-.55.26-.73-.87.69-2.12,1.17-3.33.89.2.01.43-.34.45-.53-1.08.86-2.34,1.34-3.52.69v-.03c-.83.57-1.89,1.05-2.94,1.14.04-.56.46-.72.46-.72l-.81-.06c-1.12,1.42,3.62.91,3.08,2.75,0,0-3.71,5.25-7.79,16.07-3.35,8.88-4.4,23.26-4.4,26.26,0,2.6-1.94,7.5-2.44,10.17-2.72,14.46,7.61,30.11,18.39,39.01,4.3,3.54,8.28,2.6,12.8,2.3,9.23-.6,23.36-5.2,31.97-12.75"/>
    <g>
      <path class="cls-7" d="M1055.76,173.64c1.27.77,3.3.78,4.69.09.31-.15,1.28.1.85.31-1.84.91-4.74.78-6.38-.22-.16-.1-.12-.22.09-.27.23-.05.57-.01.75.09"/>
      <path class="cls-7" d="M1061.9,173.72c.92-.34,1.93-.47,2.93-.47.15,0,.33.07.43.17.08.08.09.18-.03.23-.48.22-1.07.28-1.61.23-.17-.02-.39-.07-.47-.22-.08-.14.09-.21.22-.2.44.04.9,0,1.3-.19.14.13.27.27.41.4-.89,0-1.8.12-2.62.42-.16.06-.39,0-.52-.1-.1-.07-.2-.22-.04-.28"/>
      <path class="cls-7" d="M1065.83,174.15c1.17.06,2.57-.32,3.21-1.12.96-1.21.32-3.41-1.07-4.34-.15-.1-.06-.21.1-.23.21-.03.45.07.61.17,1.21.81,1.9,2.66,1.61,3.84-.27,1.1-1.44,1.8-2.85,2.01-.42.06-.87.09-1.3.07-.18-.01-.49-.09-.56-.23-.08-.14.09-.19.25-.18"/>
      <path class="cls-7" d="M1053.67,172.91c.07-.12-.04-.22-.13-.22-.31-.02-.63-.13-.88-.36-.11.11-.22.23-.34.34.62.12,1.24.37,1.77.77.11.08.27.05.38-.03.08-.05.17-.19.06-.27"/>
      <path class="cls-7" d="M1054.54,173.14c-.6-.46-1.29-.72-1.98-.86-.1-.02-.24.02-.32.11-.07.07-.08.16-.01.23"/>
      <path class="cls-7" d="M1051.25,172.87c-.75-.09-1.61-.65-1.91-1.52-.46-1.32.18-2.79,1.19-3.53.11-.08.06-.2-.04-.24-.13-.05-.3,0-.41.09-.88.65-1.5,1.76-1.47,2.96.03,1.13.69,1.97,1.57,2.36.26.12.54.21.83.24.11.01.32-.02.39-.15.07-.13-.03-.2-.14-.21"/>
    </g>
    <path class="cls-7" d="M1116.06,166.66c1.23-2.2,2.55-4.38,4.14-6.36.76-.94,1.68-1.99,2.64-2.61.08-.05.15-.1.23-.14.08-.05.23-.12.12-.07.06-.03.12-.06.19-.09-.13.06-.05.05.04-.01.08-.06-.2.06-.08.03.04,0,.13-.03-.02,0-.17.04.18,0-.12.02.21-.01-.12.02.03,0-.07,0-.03,0-.03,0,0,.01-.1-.06-.04,0,.29.3.54.63.76.98,1.29,2.04,1.42,4.5.69,6.76-.08.24,1.31.09,1.43-.27.72-2.21.67-4.6-.52-6.64-.25-.43-.55-.93-.94-1.26-.09-.07-.14-.11-.25-.13-.67-.14-1.52.21-2.09.5-1.05.54-1.92,1.38-2.7,2.26-1.95,2.19-3.49,4.73-4.91,7.28-.12.22.51.12.57.11.24-.04.72-.14.85-.38h0Z"/>
    <path d="M1038.07,140.99s-.09-.21-.1-.24c-.04-.11-.09-.23-.13-.34-.14-.39-.24-.78-.31-1.18,0-.05-.03-.19-.03-.22-.01-.11-.02-.23-.02-.34,0-.2,0-.39,0-.59.05-.06.1-.12.15-.17,2.86-1.31,6.05-2,11.86-2.84l.07.18c.4,1,.18.44.58,1.44.31.76.61,1.52.92,2.29-2.7.35-4.73.37-6.42.74-2.06.45-4.36.8-6.51,1.41-.02-.04-.04-.08-.06-.13Z"/>
    <path d="M1072.21,135.24c-.4,1-.17.44-.57,1.45-.3.76-.6,1.53-.9,2.29,3.11.51,5.44.63,7.4,1.1,3.88.93,8.47,1.59,11.99,3.56,1.68.95,4.07,2.35,4.8,4.22.19.5.31,2.07,1.12,2.08.33,0,.35-1.41.36-1.56.03-2.87-2.06-4.9-4.88-6.72-5.75-3.71-8.97-4.8-19.24-6.6"/>
    <path d="M1044.53,148.13c-1.13-.69-2.53-.26-3.34.37-.19.15-.71.57-.98,1.32-.36.96-.04,2.1.53,2.82.76.96,2.12,1.21,3.21.79,1.47-.57,2.06-2.25,1.79-3.53-.05-.23-.29-1.22-1.2-1.77"/>
    <path d="M1054.81,152.79s-5.46-4.88-8.38-5.37c-4.27-.72-7.37,1.01-9.03,3.01,0,0,4.89-2.77,7.88-2.18,2.86.57,9.54,4.54,9.54,4.54Z"/>
    <path d="M1078.03,150.89c1.21-.52,2.54.09,3.26.82.17.17.62.66.79,1.44.22,1-.25,2.09-.91,2.72-.89.85-2.27.91-3.29.34-1.38-.77-1.73-2.52-1.29-3.74.08-.22.45-1.17,1.43-1.59"/>
    <path d="M1071.44,154.04s6.47-4.04,9.64-4.13c5.72-.16,10.77,3.42,12.25,5.64,0,0-7.89-4.82-11.15-4.66s-10.74,3.14-10.74,3.14Z"/>
    <path class="cls-3" d="M1048.88,112.28c-1.14,5.08-7.82.26-3.91-.73-.3-2.52,3.29-3.29,3.36-5.83.14.23.22.41.22.41,0,0,.3-3.04,1.37-3.7,1.07-.66,5.8-2.66,5.8-2.66l1.31,1.14c-.03-.08-.45-1.11.3-1.66.76-.56,8.78-4.07,13.7-3.42.17.02.33.04.49.08l1.98,1.21.07.04s-.05-.03-.07-.05c-.35-.24-1.09-.82-.66-1.23.15-.14.44-.27.94-.35.74-.11,1.83-.13,3.02-.09,0,0,0-.01,0-.02.11,0,.22.02.33.03.11,0,.22,0,.34.02,0,0,0,.01,0,.02,1.18.12,2.26.29,2.98.5.49.15.76.31.89.47.37.46-.45.94-.83,1.13-.03.01-.06.03-.08.04l.07-.03,2.13-.93c.16-.01.32-.02.49-.01,4.97.03,12.42,4.62,13.1,5.28.67.65.11,1.62.07,1.69l1.46-.95s5.77,2.72,6.73,3.52c.97.81,1.31,2.59,1.31,2.59,0,0,1.76.79,2.43.62.66-.16,3.91,1.82,5.16,3.91.8,1.34.4,2.52.76,3.68h0c.21.65.32,1.08.32,1.08l3.4,1.4c2.7,1.53,1.6,7.23,1.6,7.23,5.02,7.11,4.89,12.86,2.01,18.86-1.11,2.31,5.51,5.18,1.16,4.79s-8.99,13.17-8.99,13.17c0,0-3.37-5.64-3.38-8.15-.01-2.51,1.73-9.84,1.73-9.84l-2.1-.45s-1.26-.62-2.62-3.56c-1.36-2.94,1.84-7.79,1.84-7.79l1.04-2.99h-4.17c-3.96-.97-3.88-5.32-3.88-5.32l1.19-7.18-2.57,2.26s-1.01,1.08-2.39.88c-6.18-.9-6.64-4.82-6.64-4.82l-.58-3.7-1.65.94c-1.76,1.25-7,3.01-9.52,1.71-.66-.34-3.38-2.75-3.82-3.09-1.59-1.33-1.67-3.66-1.64-4.52.26-.22.51-.5.76-.73.95-.9,1.35-.47.4.44-1.64,1.56-4.39,3.72-6.68,3.66-2.21-.06-6.89-1.3-7.41-2.36-.35-.71.36-.75-.45-.77-.71-.02-1.35.45-1.83.93-1.14,1.14-1.97,2.86-3.5,3.52-2.23.95-3.45-.32-5.58-.93-.47-.14-1.16.07-1.29.63Z"/>
    <path class="cls-1" d="M1044,107.93s-1.16-4.77,1.73-7.28c2.89-2.5,14.01-12.58,31.86-11.37l-33.59,18.65Z"/>
    <g>
      <path class="cls-21" d="M1109.62,210.52s-12.84,23.15-35.75,20.81c-16.79-1.72-15.28-12.26-15.28-12.26v-4.03s-6.11,2-6.11,2c0,0-1.33,3.63,1.41,9.71,2.74,6.07,11.44,11.69,26.15,10.31,8.63-.81,16.46-4.16,25.82-10.97,9.35-6.81,11.48-11.81,11.48-11.81l-7.71-3.75Z"/>
      <path class="cls-31" d="M1108.9,210.64c-1.14,2.05-2.59,3.97-4.08,5.78-3.41,4.15-7.46,7.86-12.13,10.54-6.17,3.54-13.13,4.89-20.18,3.81-5.01-.77-10.76-2.92-12.65-8.09-.91-2.47-.54-5.26-.54-7.84,0-.29-.91-.03-.98,0-1.89.62-3.78,1.22-5.66,1.85-.45.15-.77.24-.97.67-.33.71-.28,1.82-.27,2.58.1,6.31,3.83,11.65,9.3,14.5,6.77,3.53,15.08,3.77,22.47,2.48,8.39-1.47,15.96-5.56,22.81-10.49,3.52-2.54,6.92-5.36,9.67-8.74.87-1.07,1.81-2.25,2.36-3.53.02-.06,0-.1-.04-.14-2.57-1.25-5.14-2.5-7.71-3.75-.4-.19-1.59.4-1.36.51,1.65.8,3.3,1.6,4.95,2.41.82.4,1.63.85,2.47,1.2.3.12.33-.05.09.33-1.01,1.5-1.96,2.95-3.18,4.3-2.82,3.12-6.13,5.75-9.57,8.15-7.08,4.94-14.89,8.8-23.59,9.58-7.16.64-15.15-.2-21.02-4.74-2.45-1.89-4.15-4.29-5.18-7.21-.82-2.33-1.58-5.44-.71-7.88l-.46.32c2.04-.67,4.08-1.33,6.11-2h-.98c0,2.43-.36,4.91.36,7.3,1.52,5.06,6.73,7.55,11.55,8.55,7.09,1.47,14.4.61,20.97-2.43,5.33-2.46,10-6.22,13.9-10.57,2.11-2.35,4.14-4.92,5.69-7.69.14-.25-1.22-.15-1.43.24Z"/>
    </g>
    <path class="cls-7" d="M1115.94,168.72c3.18.25-1.85,6.77,1.19,6.81.86.01,1.49-.62,1.94-1.28.67-1,1.12-2.16,1.5-3.29.49-1.42.74-2.6.69-4.09-.06-1.89-.58-4.03-2.41-4.95-.43-.22-1.76.41-1.15.71,1.49.75,1.95,2.49,2.08,4.03.09,1.03.06,2.08-.22,3.08-.35,1.23-.77,2.46-1.35,3.61-.19.37-.39.73-.64,1.06-.08.11-.23.22-.3.34-.15.26.48-.03.48-.06s-.12-.17-.13-.22c-.04-.11-.05-.24-.05-.35,0-.29.07-.6.13-.88.17-.73.41-1.44.59-2.17.16-.67.33-1.49.06-2.15-.31-.77-1.09-.99-1.85-1.05-.29-.02-.82.11-.96.4-.15.31.13.42.4.44h0Z"/>
    <path class="cls-15" d="M1058.96,181.22c2.79.24,11.14,1.21,11.14,1.21,0,0-3.2,2.55-11.55,1.83-8.36-.73-9.92-3.61-9.92-3.61l10.33.58Z"/>
    <path class="cls-21" d="M1012.02,514.64l-1.17,95.61s7.29,6.73,25.18,5.54c17.88-1.19,22.85-9.89,37.31-7.92,14.47,1.98,12.4,10.29,30.18,10.29s20.94-6.73,33.21-6.73c12.27,0,20.39,4.75,27.91,4.75s6.34-2.77,6.34-2.77l-10.21-88.28-148.74-10.5Z"/>
    <g>
      <path class="cls-12" d="M1067.45,799.12s4.83-4.94,3.41-8.93c-1.42-3.99-4.81-3.35-5.92-2.26s-30.38,22.04-30.38,22.04"/>
      <path class="cls-11" d="M1067.69,799.18c1.36-1.4,2.53-3.13,3.22-4.96.49-1.31.71-2.76.24-4.11-.44-1.27-1.28-2.47-2.58-2.95-1.48-.54-2.91-.06-4.07.89-.79.65-1.62,1.24-2.44,1.84-3.32,2.45-6.67,4.87-10.02,7.29-3.78,2.73-7.57,5.46-11.36,8.18-1.37.99-2.75,1.97-4.13,2.96-.69.49-1.42.95-2.08,1.49-.03.03-.06.05-.1.07-.32.23.17.33.36.19,1.59-1.14,3.19-2.29,4.78-3.43,3.52-2.53,7.04-5.06,10.56-7.59s6.98-5.04,10.45-7.58c1.13-.83,2.27-1.66,3.39-2.5.61-.46,1.25-1.12,1.95-1.43,2.79-1.22,5.05,1.93,4.97,4.46s-1.66,4.86-3.25,6.68c-.12.13-.24.27-.36.39-.24.24.32.26.46.11h0Z"/>
    </g>
    <g>
      <path class="cls-12" d="M1100.31,816.55s-.68-8.08-3.3-13.19c-2.62-5.11-2.38-5.92-6.17-4.1s-6.67,9.18-12.85,9.55c-4.42.27-6.81-2.46-8.89-5.39-.83-1.17-1.62-2.38-2.46-3.44-2.97-3.72-2.91-5.15-9.47-1.41-6.56,3.75-17.49,10.45-25.66,11.58-8.16,1.13-10.28.63-17.12,2.16-6.84,1.53-9.02,6.12-9.02,6.12,0,0-4.96,6.63,2.46,9.64,7.42,3.01,72.82-.68,72.82-.68l19.64-10.85Z"/>
      <path class="cls-11" d="M1100.6,816.47c-.13-1.52-.36-3.03-.64-4.52-.52-2.8-1.21-5.63-2.44-8.21-.61-1.28-1.24-2.58-1.93-3.82-.32-.58-.7-1.26-1.33-1.56s-1.32-.12-1.93.09c-.92.32-1.85.74-2.63,1.31-3.79,2.76-5.93,8.11-11.04,8.83-3.12.44-5.76-.98-7.75-3.28-1.07-1.24-1.96-2.61-2.9-3.94-.78-1.1-1.61-2.16-2.44-3.22-1-1.28-2.05-2.18-3.76-1.83-1.14.23-2.21.77-3.23,1.31-1.32.69-2.61,1.46-3.91,2.21-5.43,3.14-10.93,6.3-16.83,8.48-1.44.53-2.91,1-4.41,1.34-1.64.37-3.31.55-4.98.74-2.6.29-5.22.44-7.82.72-5.02.55-10.55,1.47-14.11,5.39-1.27,1.39-2.46,3.34-2.88,5.17s0,3.66,1.38,4.97c1.02.96,2.34,1.62,3.71,1.92,2.16.48,4.42.57,6.62.68,3.36.16,6.73.2,10.1.2,8.41,0,16.82-.22,25.23-.52,7.38-.26,14.76-.58,22.14-.94,2.12-.1,4.24-.21,6.36-.33.44-.02.89-.03,1.33-.07.32-.03.55-.19.83-.34,5.84-3.23,11.69-6.46,17.53-9.68.55-.3,1.09-.6,1.64-.91.34-.19-.16-.29-.36-.18-5.28,2.92-10.57,5.84-15.85,8.76l-3.2,1.77c-.09.05-.54.21-.58.32.05-.15.33-.04.07-.06-.43-.03-.9.05-1.33.07-.84.05-1.69.09-2.53.13-6.36.33-12.72.62-19.08.87-8.39.33-16.77.61-25.17.72-6.66.09-13.38.22-20.02-.36-2.1-.18-4.17-.39-5.98-1.57s-2.71-3.08-2.31-5.22c.22-1.21.77-2.31,1.42-3.34.4-.63.78-1.25,1.27-1.81,1.64-1.87,3.85-3.18,6.21-3.91,5.2-1.62,10.78-1.58,16.14-2.22,3-.36,5.85-.96,8.69-2s5.8-2.43,8.58-3.87,5.24-2.84,7.82-4.32c1.16-.67,2.31-1.35,3.48-2,1.25-.7,2.59-1.5,4.01-1.8,1.83-.39,2.82,1.15,3.79,2.43s1.93,2.56,2.85,3.88c.8,1.15,1.63,2.31,2.63,3.31,1.94,1.96,4.45,2.98,7.23,2.7,2.33-.23,4.33-1.48,6.01-3.04s3.05-3.45,4.7-5.04c.76-.73,1.57-1.3,2.53-1.74.66-.3,1.59-.82,2.32-.47s1.15,1.33,1.49,2c.65,1.27,1.33,2.55,1.9,3.86,1.1,2.55,1.75,5.3,2.23,8.03.24,1.35.44,2.7.56,4.07.02.2.59.07.57-.15Z"/>
    </g>
    <g>
      <path class="cls-12" d="M1113.74,817.43s.53-5.62-2.09-10.73c-2.62-5.11-4.3-7.05-4.3-7.05"/>
      <path class="cls-11" d="M1114.03,817.35c.21-2.29-.1-4.71-.67-6.93-.53-2.07-1.46-3.95-2.49-5.81-.7-1.27-1.44-2.52-2.26-3.72-.31-.46-.62-.92-.98-1.34-.09-.11-.63.09-.54.2,1.17,1.36,2.08,3.01,2.96,4.57,1.01,1.8,1.98,3.62,2.56,5.61.48,1.65.76,3.35.85,5.07.05.83.07,1.68,0,2.51,0,.08.56.02.57-.15h0Z"/>
    </g>
    <path class="cls-11" d="M1023.84,823.76c-.42-.03-.61-.29-.64-.7-.03-.58.13-1.17.22-1.74.32-1.95.27-3.89-.53-5.73-.67-1.55-1.73-2.88-2.95-4.04-.14-.13-.68.08-.53.22,1.98,1.89,3.49,4.27,3.62,7.06.04.89-.06,1.78-.2,2.66-.09.57-.25,1.17-.2,1.75s.45.79.98.83c.21.01.61-.29.23-.31h0Z"/>
    <g>
      <path class="cls-12" d="M1058.83,802.37l.05-.05c.36-.44.03-1.29-.74-1.89l-5.57-4.34c-.77-.6-1.7-.74-2.06-.3l-.05.05c-.36.44-.03,1.29.74,1.89l5.57,4.34c.77.6,1.7.74,2.06.3Z"/>
      <path class="cls-11" d="M1059.09,802.35c.61-.74-.21-1.65-.8-2.11l-1.48-1.16c-1.27-.99-2.53-1.97-3.8-2.96-.7-.55-1.61-.97-2.48-.54-.48.24-.61.73-.42,1.22.17.43.5.78.85,1.06,1.16.91,2.32,1.81,3.48,2.71l1.74,1.35c.62.48,1.31.93,2.13.79.28-.05.58-.15.77-.37.08-.09-.07-.1-.14-.1-.11,0-.3.05-.38.14-.16.18-.39.12-.61.06-.34-.09-.64-.27-.92-.48-.09-.07-.17-.13-.25-.2l-1.54-1.2-3.56-2.77c-.1-.08-.2-.16-.3-.24-.4-.34-.94-.98-.76-1.56.04-.14.16-.33.31-.36.3-.05.69.12.94.26.2.11.38.25.56.39,1.15.9,2.3,1.8,3.45,2.69l1.62,1.27c.52.4,1.1.85,1.2,1.55.03.22-.01.42-.15.59-.08.1.07.1.14.1.11,0,.31-.05.38-.14Z"/>
    </g>
    <g>
      <path class="cls-12" d="M1052.72,804.71l.17-.21c.33-.41.03-1.18-.67-1.72l-4.16-3.21c-.7-.54-1.55-.65-1.88-.24l-.17.21c-.33.41-.03,1.18.67,1.72l4.16,3.21c.7.54,1.55.65,1.88.24Z"/>
      <path class="cls-11" d="M1052.95,804.77c.1-.12.22-.24.28-.37.1-.2.1-.42.05-.63-.12-.47-.46-.86-.84-1.15-.32-.25-.63-.49-.95-.74l-3.07-2.37c-.61-.47-1.48-.87-2.22-.45-.28.16-.59.53-.61.87-.03.52.32,1.01.69,1.34.3.26.62.49.94.73.57.44,1.15.88,1.72,1.33l1.44,1.11c.55.43,1.2.81,1.93.67.24-.05.48-.15.64-.34.23-.26-.33-.28-.47-.12-.27.31-.87.02-1.15-.15-.15-.09-.28-.19-.41-.29l-1.22-.94c-.91-.7-1.82-1.41-2.73-2.11-.22-.17-.42-.37-.57-.6-.12-.19-.23-.42-.23-.64,0-.17.06-.3.14-.39s.16-.22.27-.25c.19-.06.43,0,.61.07.27.09.51.25.74.43.91.71,1.83,1.41,2.74,2.12l1.21.94c.14.11.27.21.39.34.27.28.62.79.45,1.21-.04.1-.12.18-.21.29-.22.27.33.29.47.12Z"/>
    </g>
    <g>
      <path class="cls-12" d="M1047.07,806.95l.23-.27c.23-.27-.09-.89-.72-1.38l-2.95-2.32c-.62-.49-1.32-.68-1.55-.41l-.23.27c-.23.27.09.89.72,1.38l2.95,2.32c.62.49,1.32.68,1.55.41Z"/>
      <path class="cls-11" d="M1047.35,806.9c.14-.16.32-.31.3-.54-.02-.38-.35-.73-.61-.98s-.53-.43-.8-.64l-2.3-1.81c-.54-.43-1.26-.78-1.94-.46-.13.06-.21.15-.3.25-.06.07-.15.15-.19.24-.14.32.14.7.33.92.26.31.59.54.9.79l1.31,1.03,1.07.84c.47.37,1.04.73,1.66.62.18-.03.41-.1.54-.24.08-.09-.08-.09-.13-.09-.11.01-.3.04-.38.13-.03.03-.03.02-.01.02.02,0,.09-.03.11-.03.07-.02.02,0,.01,0-.07,0-.15-.01-.22-.03-.2-.05-.39-.14-.57-.25-.15-.09-.29-.2-.43-.3l-.95-.75c-.64-.5-1.27-1-1.91-1.5-.3-.24-.6-.54-.73-.91-.04-.12-.08-.26-.01-.38.04-.08.12-.15.18-.23.02-.02.07-.08.07-.09,0,0,.03-.01,0,0-.01,0-.15.05-.14.04,0,0,.04,0,.02,0,.18.02.35.06.52.14.24.11.45.25.65.41.71.56,1.42,1.11,2.12,1.67.26.2.51.4.77.6s.48.43.65.71c.13.22.22.47.04.69l-.19.22c-.06.08.21.05.23.05.12-.02.26-.06.34-.15Z"/>
    </g>
    <g>
      <path class="cls-12" d="M1042.6,809.6l.27-.32c.27-.33-.02-1-.64-1.48l-2.96-2.31c-.63-.49-1.36-.62-1.63-.3l-.27.32c-.27.33.02,1,.64,1.48l2.96,2.31c.63.49,1.36.62,1.63.3Z"/>
      <path class="cls-11" d="M1042.88,809.55c.13-.16.32-.32.37-.53.08-.38-.19-.76-.43-1.03s-.58-.5-.87-.73c-.79-.61-1.57-1.23-2.36-1.84-.57-.44-1.36-.74-2.04-.35-.19.11-.35.32-.48.5-.21.28-.05.68.12.94.24.37.61.63.95.9l1.32,1.03,1.11.87c.5.39,1.08.69,1.73.54.2-.04.41-.12.55-.27.08-.09-.07-.09-.13-.08-.11.01-.3.04-.38.13-.02.02-.05.04-.06.06,0,0-.02,0-.02.01,0,0,.06-.01.08-.03.02-.02.02,0-.01,0-.05,0-.09,0-.14-.01-.21-.03-.41-.11-.6-.22-.16-.09-.3-.2-.45-.31l-.98-.76c-.65-.51-1.33-1-1.96-1.53-.3-.25-.6-.6-.65-1-.03-.27.13-.43.29-.62.02-.02.06-.07.07-.08,0,0,.03-.03.04-.03.01-.01.03,0,.02,0,0,0-.09.02-.09.03,0-.02.16,0,.19.01.1.02.21.05.31.08.24.09.47.23.67.4.73.57,1.45,1.13,2.17,1.7.25.19.49.38.74.58.28.23.55.51.67.85.05.14.08.29.04.44-.03.1-.1.17-.16.25l-.19.23c-.06.08.21.05.23.05.11-.02.26-.06.34-.15Z"/>
    </g>
    <path class="cls-11" d="M1032.3,810.01c-.46,1.39-.17,3.09.96,4.07,1.28,1.1,3.18,1.25,4.79,1.2,1.51-.05,2.98-.36,4.43-.78,3.55-1.03,6.95-2.57,10.27-4.17,3.38-1.62,6.7-3.38,9.97-5.2,1.75-.98,3.5-1.97,5.22-3,.33-.2-.18-.26-.35-.15-4.23,2.55-8.59,4.92-13,7.13-3.34,1.67-6.74,3.27-10.27,4.51-1.41.5-2.86.95-4.34,1.19-1.72.28-3.73.35-5.35-.4s-2.34-2.74-1.77-4.47c.06-.18-.51-.1-.57.08h0Z"/>
    <g>
      <path class="cls-32" d="M1101.26,816.55s.74.22.87,2.24c.12,2.01.64,10.6.64,10.6,0,0-6.26,3.2-17.67,3.89-11.41.69-49.03,2.95-54.37,3.27-5.35.32-26.52-1.24-27.33-6.23-.8-4.99.53-12,1.42-11.78s9.45,4.84,18.01,5.3c8.56.46,28.18.42,41.96-.64,13.78-1.06,34.69-3.68,36.47-6.64Z"/>
      <path class="cls-11" d="M1101.1,816.75c.26.09.45.58.54.85.2.63.21,1.3.25,1.96l.23,3.77c.12,2.03.24,4.05.37,6.08l.16-.2c-1.61.82-3.4,1.36-5.13,1.85-4.3,1.21-8.73,1.78-13.18,2.05-6.18.37-12.35.74-18.53,1.12-7.42.45-14.83.89-22.25,1.34-4.44.27-8.89.65-13.34.79-2.74.09-5.5-.1-8.22-.34-3.46-.31-6.92-.75-10.3-1.52-1.5-.34-2.99-.74-4.42-1.31-1.02-.4-2.09-.89-2.88-1.68-1.01-1.01-.91-2.62-.94-3.95-.06-2.21.12-4.46.59-6.62.14-.65.28-1.38.62-1.97.05-.08.1-.15.15-.22s-.2-.03-.08.01c.15.05.3.12.44.18,1.41.61,2.81,1.26,4.24,1.83,4.53,1.81,9.23,3.1,14.12,3.33,8.64.4,17.33.3,25.98.06,9.34-.25,18.64-.88,27.92-1.97,4.39-.51,8.77-1.1,13.11-1.9,3.06-.56,6.28-1.11,9.14-2.37.65-.28,1.44-.65,1.83-1.27.19-.31-.34-.42-.48-.18-.42.67-1.35,1.01-2.05,1.28-1.37.54-2.82.91-4.25,1.25-4.1.96-8.29,1.59-12.46,2.16-9.23,1.24-18.51,2.04-27.81,2.41s-18.65.48-27.96.21c-1.95-.06-3.91-.1-5.85-.36-2.7-.36-5.34-1.06-7.92-1.93-1.96-.67-3.88-1.45-5.77-2.29-.52-.23-1.04-.48-1.57-.7-.28-.12-.55-.25-.84-.09-.38.2-.55.73-.68,1.1-.27.76-.43,1.56-.57,2.36-.39,2.25-.53,4.58-.36,6.86.09,1.22.15,2.29,1.06,3.16.8.76,1.85,1.26,2.86,1.67,2.98,1.2,6.23,1.78,9.39,2.25,3.36.5,6.75.81,10.14.95,4.14.17,8.27-.21,12.4-.46,7.12-.43,14.23-.86,21.35-1.29,6.96-.42,13.92-.84,20.88-1.26,7.01-.42,14.07-.98,20.65-3.63.42-.17.84-.34,1.24-.54.07-.03.17-.11.16-.2-.21-3.57-.38-7.15-.65-10.71-.05-.67-.18-2.03-.98-2.31-.26-.09-.67.28-.33.4Z"/>
    </g>
    <g>
      <path class="cls-12" d="M1112.33,804.32s4.83-4.94,3.41-8.93c-1.42-3.99-4.81-3.35-5.92-2.26-1.12,1.09-30.38,22.04-30.38,22.04"/>
      <path class="cls-11" d="M1112.57,804.41c1.38-1.42,2.58-3.2,3.25-5.06.46-1.29.66-2.71.2-4.03s-1.28-2.49-2.59-2.99c-1.47-.56-2.88-.08-4.04.86-.8.65-1.64,1.25-2.47,1.86-3.32,2.45-6.67,4.87-10.02,7.29-3.78,2.73-7.57,5.46-11.36,8.18-1.37.99-2.75,1.97-4.13,2.96-.69.49-1.42.95-2.08,1.49-.03.03-.06.05-.1.07-.32.23.15.45.38.28,1.59-1.14,3.19-2.29,4.78-3.43,3.52-2.53,7.04-5.06,10.56-7.59s6.98-5.04,10.45-7.58c1.13-.83,2.27-1.66,3.39-2.5.61-.46,1.25-1.13,1.95-1.42,2.78-1.19,5.04,1.84,4.95,4.4s-1.67,4.84-3.26,6.66c-.12.13-.24.27-.36.39-.25.26.3.37.48.18h0Z"/>
    </g>
    <g>
      <path class="cls-12" d="M1145.19,821.75s-.68-8.08-3.3-13.19c-2.62-5.11-2.38-5.92-6.17-4.1-3.79,1.82-6.67,9.18-12.85,9.55-4.42.27-6.81-2.46-8.89-5.39-.83-1.17-1.62-2.38-2.46-3.44-2.97-3.72-2.91-5.15-9.47-1.41-6.56,3.75-17.49,10.45-25.66,11.58-8.16,1.13-10.28.63-17.12,2.16-6.84,1.53-9.02,6.12-9.02,6.12,0,0-4.96,6.63,2.46,9.64,7.42,3.01,72.82-.68,72.82-.68l19.64-10.85Z"/>
      <path class="cls-11" d="M1145.48,821.67c-.13-1.52-.36-3.03-.64-4.52-.52-2.8-1.21-5.63-2.44-8.21-.61-1.28-1.24-2.58-1.93-3.82-.32-.57-.7-1.26-1.32-1.54s-1.32-.1-1.92.1c-.9.31-1.81.72-2.59,1.27-1.83,1.3-3.18,3.21-4.7,4.84-1.73,1.86-3.78,3.66-6.39,4.03-3.12.44-5.77-1.01-7.76-3.31-1.07-1.24-1.96-2.61-2.9-3.94-.78-1.1-1.61-2.16-2.44-3.22-.47-.61-.98-1.26-1.68-1.62-.65-.34-1.38-.33-2.08-.19-1.14.23-2.21.77-3.23,1.3-1.33.69-2.61,1.46-3.91,2.21-5.43,3.14-10.93,6.31-16.83,8.49-1.44.53-2.91,1-4.41,1.34-1.64.37-3.31.55-4.98.73-2.6.29-5.22.44-7.82.72-5.01.55-10.5,1.47-14.08,5.34-.55.59-1.13,1.47-1.48,2.04-.63.99-1.17,2.01-1.43,3.16-.42,1.82,0,3.64,1.37,4.95,1.02.96,2.34,1.6,3.7,1.9,2.17.47,4.43.57,6.64.68,3.35.16,6.71.2,10.07.2,8.41,0,16.82-.22,25.23-.52,7.39-.26,14.77-.58,22.15-.94,2.11-.1,4.21-.21,6.32-.32.43-.02.87-.04,1.3-.07.34-.03.59-.18.89-.35,5.84-3.23,11.69-6.46,17.53-9.68.55-.3,1.09-.6,1.64-.91.34-.19-.18-.22-.34-.13-5.28,2.92-10.57,5.84-15.85,8.76l-3.2,1.77c-.08.05-.55.22-.58.32.04-.13.45-.06.13-.06-1.27-.02-2.58.14-3.85.21-6.38.33-12.77.62-19.15.88-8.34.33-16.69.6-25.04.72-6.68.09-13.42.22-20.08-.36-2.16-.19-4.3-.4-6.15-1.65-1.73-1.17-2.59-3.01-2.24-5.08.21-1.25.76-2.39,1.44-3.45.39-.61.76-1.22,1.24-1.78,1.57-1.81,3.68-3.11,5.94-3.86,2.71-.91,5.68-1.29,8.51-1.57,2.64-.26,5.29-.43,7.92-.74,2.94-.35,5.73-.93,8.52-1.93,2.97-1.07,5.84-2.43,8.65-3.87s5.31-2.87,7.93-4.38c1.16-.67,2.31-1.35,3.48-2s2.52-1.45,3.89-1.78c1.89-.45,2.9,1.11,3.91,2.43s1.93,2.56,2.85,3.88c.8,1.15,1.63,2.31,2.63,3.31,1.92,1.94,4.4,2.94,7.15,2.68,2.36-.23,4.39-1.46,6.09-3.04s3.02-3.4,4.65-4.99c.77-.76,1.59-1.35,2.58-1.8.65-.3,1.57-.81,2.3-.47s1.17,1.34,1.53,2.04c.65,1.27,1.33,2.55,1.9,3.86,1.1,2.55,1.75,5.3,2.23,8.03.24,1.35.44,2.7.56,4.07.01.15.59.04.57-.15Z"/>
    </g>
    <path class="cls-11" d="M1141.72,822.55c.21-2.29-.1-4.71-.67-6.93-.53-2.07-1.46-3.95-2.49-5.81-.7-1.27-1.44-2.52-2.26-3.72-.31-.46-.62-.92-.98-1.34-.09-.11-.63.09-.54.2,1.17,1.36,2.08,3.01,2.96,4.57,1.01,1.8,1.98,3.62,2.56,5.61.48,1.65.76,3.35.85,5.07.05.83.07,1.68,0,2.51,0,.08.56.02.57-.15h0Z"/>
    <path class="cls-11" d="M1068.71,828.95c-.42-.03-.61-.27-.64-.69-.03-.57.13-1.17.22-1.73.32-1.95.27-3.89-.53-5.73-.67-1.55-1.73-2.88-2.95-4.04-.15-.14-.69.08-.53.23,1.98,1.89,3.49,4.26,3.62,7.06.04.89-.06,1.78-.2,2.66-.09.57-.25,1.17-.2,1.75s.45.8.99.84c.22.01.61-.31.22-.33h0Z"/>
    <g>
      <path class="cls-12" d="M1103.71,807.57l.05-.05c.36-.44.03-1.29-.74-1.89l-5.57-4.34c-.77-.6-1.7-.74-2.06-.3l-.05.05c-.36.44-.03,1.29.74,1.89l5.57,4.34c.77.6,1.7.74,2.06.3Z"/>
      <path class="cls-11" d="M1103.97,807.57c.62-.75-.22-1.69-.81-2.15l-1.48-1.16c-1.27-.99-2.53-1.97-3.8-2.96-.68-.53-1.64-1.04-2.49-.57-1.05.59-.2,1.82.45,2.33,1.16.91,2.32,1.81,3.48,2.71l1.74,1.35c.62.48,1.31.96,2.14.83.3-.05.56-.17.77-.4.09-.11-.08-.16-.16-.17-.14,0-.29.05-.38.16-.14.16-.42.1-.61.06-.34-.08-.65-.25-.92-.46-.09-.07-.17-.13-.25-.2-.51-.4-1.03-.8-1.54-1.2-1.19-.92-2.37-1.85-3.56-2.77-.1-.08-.2-.16-.3-.24-.4-.33-.94-.96-.75-1.53.25-.8,1.43-.02,1.82.29,1.15.9,2.3,1.8,3.45,2.69l1.62,1.27c.51.4,1.1.84,1.2,1.53.03.22-.02.39-.16.56-.09.11.08.16.16.17.14,0,.29-.05.38-.16Z"/>
    </g>
    <g>
      <path class="cls-12" d="M1097.59,809.91l.17-.21c.33-.41.03-1.18-.67-1.72l-4.16-3.21c-.7-.54-1.55-.65-1.88-.24l-.17.21c-.33.41-.03,1.18.67,1.72l4.16,3.21c.7.54,1.55.65,1.88.24Z"/>
      <path class="cls-11" d="M1097.86,809.9c.09-.11.2-.23.27-.36.09-.19.08-.41.02-.61-.12-.43-.44-.8-.79-1.07s-.66-.51-.99-.77c-1.02-.78-2.03-1.57-3.05-2.35-.63-.49-1.5-.85-2.27-.42-.29.16-.57.52-.59.85-.02.52.36,1,.73,1.31.29.24.6.47.9.7l1.73,1.33,1.42,1.09c.57.44,1.23.8,1.97.64.24-.05.48-.16.65-.35.09-.1-.08-.13-.14-.13-.12,0-.3.05-.38.15-.11.13-.24.11-.41.08-.28-.04-.54-.17-.77-.32-.12-.08-.22-.16-.33-.25l-1.25-.96c-.9-.69-1.8-1.39-2.7-2.08-.47-.36-1.16-1.14-.67-1.74.06-.07.14-.2.22-.23.19-.07.49.04.66.11.25.1.46.24.67.4.92.71,1.85,1.43,2.77,2.14l1.18.91c.16.12.31.24.44.39.27.3.6.81.4,1.23-.05.11-.15.21-.23.31s.07.13.14.13c.12,0,.3-.05.38-.15Z"/>
    </g>
    <g>
      <path class="cls-12" d="M1091.95,812.15l.23-.27c.23-.27-.09-.89-.72-1.38l-2.95-2.32c-.62-.49-1.32-.68-1.55-.41l-.23.27c-.23.27.09.89.72,1.38l2.95,2.32c.62.49,1.32.68,1.55.41Z"/>
      <path class="cls-11" d="M1092.21,812.14c.14-.17.33-.32.33-.56,0-.38-.34-.75-.59-.99s-.53-.43-.8-.64c-.77-.61-1.54-1.22-2.32-1.82-.53-.41-1.27-.81-1.94-.48-.12.06-.2.15-.29.25-.07.08-.16.17-.21.27-.13.31.13.68.31.9.26.32.6.56.92.81l1.3,1.03,1.08.85c.47.37,1.04.73,1.67.63.19-.03.4-.1.54-.25.09-.1-.08-.11-.14-.11-.12,0-.29.05-.38.14-.05.05,0,.01,0,.01,0,.02-.11.04.04-.02.01,0,.03,0,.04-.01.02,0,.04,0,.02,0-.04-.02-.15-.01-.21-.03-.2-.05-.39-.14-.57-.25-.15-.09-.29-.2-.43-.3l-.95-.75c-.64-.5-1.27-1-1.91-1.5-.29-.23-.59-.53-.72-.89-.04-.11-.08-.25-.03-.37.04-.08.12-.15.18-.22.02-.03.05-.06.07-.08.01-.02.05-.03,0-.01-.02,0-.04.02-.06.02-.03.01-.06,0-.02,0,.15.03.31.06.47.12.24.1.47.25.67.42.7.55,1.4,1.11,2.11,1.66.26.21.52.41.78.62.24.19.47.41.63.67.12.2.25.48.08.68l-.19.22c-.08.1.07.11.14.11.12,0,.3-.05.38-.14Z"/>
    </g>
    <g>
      <path class="cls-12" d="M1087.48,814.8l.27-.32c.27-.33-.02-1-.64-1.48l-2.96-2.31c-.63-.49-1.36-.62-1.63-.3l-.27.32c-.27.33.02,1,.64,1.48l2.96,2.31c.63.49,1.36.62,1.63.3Z"/>
      <path class="cls-11" d="M1087.72,814.87c.15-.18.35-.36.41-.59.1-.37-.15-.78-.38-1.05-.26-.31-.61-.54-.92-.79-.79-.62-1.59-1.24-2.38-1.86-.51-.4-1.28-.77-1.93-.44-.22.11-.37.33-.52.52-.24.31-.13.7.05,1.01.24.41.62.68.99.96l1.31,1.03,1.13.89c.48.38,1.07.71,1.7.6.2-.04.4-.12.53-.28.08-.09.06-.21-.07-.24s-.31,0-.41.11c-.04.04-.03.02-.05.04,0,0,.04-.02,0,0-.04.02.04-.02,0,0,0,0-.06.02-.03,0,.03,0-.02,0-.02,0-.05,0-.06,0-.11,0-.19-.02-.37-.08-.54-.16-.18-.09-.35-.21-.51-.34l-.95-.74c-.64-.5-1.29-1-1.93-1.51-.3-.24-.6-.57-.67-.96-.05-.26.09-.37.25-.55.02-.03.04-.05.06-.08.02-.03.03-.03.04-.04.04-.03-.03.02,0,0s-.06.02.02,0c0,0,.05-.01.02,0-.03,0,.03,0,.04,0,.04,0,.04,0,.07,0,.09,0,.17.02.26.05.28.08.53.24.76.41.71.56,1.43,1.12,2.14,1.67.26.2.52.4.78.61s.48.45.61.74c.06.13.1.28.08.43-.02.1-.06.13-.13.21l-.19.22c-.08.1-.06.21.07.24s.32,0,.41-.11Z"/>
    </g>
    <path class="cls-11" d="M1077.19,815.22c-.46,1.38-.18,3.07.95,4.05,1.28,1.1,3.18,1.23,4.78,1.17,1.51-.05,2.99-.36,4.43-.78,3.57-1.04,6.99-2.59,10.34-4.19,3.39-1.63,6.72-3.39,10.01-5.23,1.74-.97,3.47-1.95,5.17-2.98.24-.15-.33-.09-.44-.02-4.21,2.54-8.55,4.9-12.95,7.1-3.34,1.67-6.74,3.27-10.27,4.51-1.41.5-2.86.95-4.34,1.19-1.73.29-3.8.35-5.41-.45-1.65-.82-2.28-2.75-1.72-4.47.04-.12-.52-.05-.57.1h0Z"/>
    <g>
      <path class="cls-32" d="M1145.19,821.75s.74.22.87,2.24c.12,2.01.64,10.6.64,10.6,0,0-6.26,3.2-17.67,3.89-11.41.69-49.03,2.95-54.37,3.27s-26.52-1.24-27.33-6.23c-.8-4.99.53-12,1.42-11.78.89.22,9.45,4.84,18.01,5.3,8.56.46,28.18.42,41.96-.64,13.78-1.06,34.69-3.68,36.47-6.64Z"/>
      <path class="cls-11" d="M1144.96,821.88c.3.1.47.53.56.79.23.63.24,1.31.28,1.97.08,1.27.15,2.53.23,3.8.12,2.07.25,4.15.37,6.22l.11-.14c-1.57.8-3.46,1.37-5.2,1.86-4.29,1.19-8.7,1.75-13.14,2.01-6.22.37-12.44.75-18.66,1.12-7.43.45-14.85.89-22.28,1.34-4.38.26-8.77.66-13.16.78-2.81.08-5.63-.12-8.43-.38-3.47-.32-6.95-.78-10.35-1.58-1.46-.34-2.91-.75-4.29-1.32-.99-.41-2.03-.91-2.77-1.71-.98-1.06-.86-2.8-.88-4.14-.04-2.18.14-4.4.62-6.53.14-.64.28-1.38.63-1.94,0-.01.16-.21.16-.21.03.11-.33-.09-.15.08.11.1.38.15.52.22,1.44.63,2.88,1.29,4.34,1.87,4.52,1.79,9.19,3.02,14.05,3.24,8.68.39,17.4.29,26.09.05,9.32-.26,18.61-.9,27.87-1.99,4.4-.52,8.8-1.11,13.16-1.92,3-.56,6.18-1.1,8.98-2.36.64-.28,1.41-.64,1.8-1.26.13-.2-.44-.13-.53,0-.43.69-1.38,1.02-2.09,1.3-1.39.54-2.85.91-4.3,1.25-4.12.96-8.32,1.59-12.51,2.15-9.28,1.24-18.61,2.03-27.96,2.39-9.27.35-18.57.47-27.84.18-2.01-.06-4.03-.12-6.02-.41-2.68-.39-5.31-1.11-7.86-2-1.91-.66-3.77-1.43-5.61-2.25-.57-.25-1.66-1.04-2.31-.66-.36.21-.52.7-.65,1.07-.28.79-.44,1.63-.58,2.46-.37,2.22-.5,4.5-.34,6.74.09,1.24.16,2.28,1.11,3.14.83.75,1.9,1.24,2.93,1.64,3.01,1.17,6.27,1.75,9.46,2.21s6.68.79,10.03.92c4.15.17,8.3-.24,12.45-.48,7.14-.43,14.29-.86,21.43-1.29,6.93-.42,13.86-.83,20.78-1.25s14.03-.99,20.58-3.65c.42-.17.84-.34,1.24-.55.06-.03.12-.08.11-.14-.21-3.5-.41-7.01-.63-10.51-.04-.64-.12-2.11-.93-2.38-.16-.05-.67.19-.46.26Z"/>
    </g>
    <path class="cls-18" d="M1123.52,522.82c3.71-3.83,8.62-9.07,8.63-9.99.02-.92,1.09-7.07,2.05-12.44.62-2.72-1.02-5.44-3.66-6.08-.69-.17-6.69,11.65-11.8,8.62l2.99-11.01c1.47-3.42,3.35-6.63,5.61-9.55,5.17-11.06,16.11-14.55,16.11-14.55l.26,6.36,19.15.07.73,19.37s-5.44,25.95-8.26,28.52c-2.82,2.56-11.01,4.13-11.01,4.13-3.13,3.98-9.88,2.68-9.88,2.68-7.25,4.81-7.14-.85-7.14-.85-.21.22-.47.38-.76.46-3.15.85-5.26-3.48-3.03-5.75Z"/>
    <path class="cls-34" d="M1141.31,507.9c-.13,4.23-1.19,8.84-3.81,12.25-1.27,1.66-2.81,3.14-4.53,4.34-1.79,1.25-3.83,2.48-5.93,3.09-.83.24-.73.68.11.43,2.15-.63,4.07-1.69,5.97-2.87s3.66-2.69,5.12-4.42c3.08-3.64,4.35-8.51,4.5-13.22,0-.2-1.44-.02-1.45.39h0Z"/>
    <path class="cls-34" d="M1147.26,510.31c-.2,2.65-.59,5.44-1.69,7.88s-2.97,4.16-4.98,5.77-4.17,3.73-6.57,4.93c-.85.43.49.38.84.2,2.59-1.3,4.79-3.43,7.04-5.23,2.01-1.61,3.93-3.41,5.03-5.78,1.17-2.52,1.57-5.42,1.78-8.16.02-.21-1.42-.05-1.45.39h0Z"/>
    <path class="cls-34" d="M1153.8,511.76c-.35-.12-.13-.19-.19-.08-.04.08-.02.3-.04.4-.06.45-.18.9-.29,1.35-.39,1.56-.84,3.1-1.27,4.65-.26.95-.44,1.99-.95,2.84-.56.93-1.49,1.7-2.3,2.4s-1.63,1.28-2.54,1.77c-.4.22-.81.43-1.24.58-.11.04-.32.05-.41.12-.21.17-.25-.57.32.16-.37-.48-1.76.07-1.33.62.36.46,1.24.16,1.68,0,1.13-.38,2.18-.99,3.16-1.67,1.99-1.37,4-3.09,4.66-5.49.57-2.09,1.2-4.16,1.71-6.27.14-.56.7-2.05-.14-2.32-.57-.19-1.7.64-.85.92h0Z"/>
    <path class="cls-27" d="M1057.79,179.55c4.32.44,13.59,4.2,15.33,6.16,0,0-4.85,5.27-14.88,4.26-10.03-1.01-11.79-6.95-11.79-6.95,0,0,5.82-4.03,11.33-3.47Z"/>
    <path class="cls-12" d="M1069.24,183.34s-5.45-.99-9.83-1.44c-4.38-.44-9.91-.56-9.91-.56,0,0-.38-3.32,7.56-2.52,7.94.8,12.17,4.51,12.17,4.51Z"/>
    <path class="cls-10" d="M1056.74,187.91c4.91-.27,10.89-3.74,16.48-2.78,0,0-3.14,8.93-15.27,7.71-12.13-1.22-12.15-10.48-12.15-10.48,5.67.19,6.19,4.31,10.94,5.55Z"/>
    <path class="cls-10" d="M1052.91,176.56c2.5.06,3.97,1.21,5.04,1.32,1.08.11,2.75-.73,5.21-.28,2.3.42,11.51,7.41,10.33,8.08-1.18.67-8.34-4.51-15.79-5.26-7.46-.75-10.57,3.39-11.59,2.5-1.02-.89,4.47-6.4,6.8-6.35Z"/>
    <path class="cls-29" d="M1154.58,391.4c9-.32-7.94.2-1.73,20.65,1.07,3.86,4.5,26.13,6,29.77.96,2.25,1.93,4.82.64,7.07-1.61,2.89-6.21,3.75-10.17,4.18-14.56,1.5-26.13.32-40.7-.75-1.71-.11-3.64-.32-4.82-1.39-.75-.86-1.29-1.93-1.39-3.11-2.89-15.21-4.71-30.52-5.35-45.94-.11-2.89-.11-6,2.46-8.03,2.03-1.5,4.93-1.93,7.71-2.25,9-.96,33.32-1.46,42.32-.93"/>
    <path class="cls-8" d="M1106.48,395.66c-.32-1.39-3.53-1.71-3.21-.11.86,3.64,2.46,7.18,4.71,10.17,4.28,5.68,10.6,9.64,17.67,10.82,8.35,1.5,17.24.96,25.6.11.11,0,.21-.11.32-.11.54-.21.86-.75.64-1.29-.43-.75-1.18-1.07-2.03-.96-5.03.54-10.17.75-15.31.75-4.71-.11-9.64-.43-14.03-2.25-7.18-3.11-12.64-9.42-14.35-17.13h0Z"/>
    <path class="cls-29" d="M1099.52,393.84s-48.08-96.54-58.88-173.13c0,0-.59-4.67,5.42-3.82,0,0,20.12,98.28,61.16,174.69"/>
    <path class="cls-16" d="M1082.46,364.68l2.8,6.01c.68,1.47,2.42,2.1,3.89,1.42l7.21-3.36c1.47-.68,2.1-2.42,1.42-3.89l-2.8-6.01c-.68-1.47-2.42-2.1-3.89-1.42l-7.21,3.36c-1.47.68-2.1,2.42-1.42,3.89ZM1084.88,364.17c-.31-.66-.02-1.43.63-1.74l5.78-2.69c.66-.31,1.43-.02,1.74.63l2.32,4.99c.31.66.02,1.43-.63,1.74l-5.78,2.69c-.66.31-1.43.02-1.74-.63l-2.32-4.99Z"/>
    <path class="cls-18" d="M1178.33,324.01c-.97.49-2.58-24.25-3.56-23.79-2.72,1.28-6.21-2.49-9.14-1.82-2.7.62-8.01,2.99-10.77,3.21-8.14.64-13.85,4.26-21.95,3.43l13.35,71.3-1.23,7.84c-1.38,8.78-1.85,17.68-1.38,26.55l-.88,63.26,19.72,5.38c8.32-43.98,19.85-79.25,20.97-102.07.28-5.72-3.26-36.42-5.13-53.29Z"/>
    <path class="cls-21" d="M1147.32,309.79c8.99-1.51,17.54-4.72,25.72-8.67,2.49-1.2,4.94-2.46,7.38-3.75-3.98-23.35-8.73-35.71-12.61-47.37-8.18-20.58-34.69-27.62-34.69-27.62l-3.23,72.81.99,15.62c4.07-.02,12.42-.35,16.44-1.02Z"/>
    <g>
      <path class="cls-21" d="M1138.92,242.76c-6.58,1.63-11.45,8.81-12.78,15.45-3.27,16.31-.08,39.02,3.2,52.58h6.37"/>
      <path class="cls-31" d="M1138.84,242.46c-4.41,1.16-7.93,4.3-10.3,8.11-2.53,4.06-3.44,8.58-3.96,13.27-1.16,10.45-.39,21.12,1.08,31.49.75,5.26,1.72,10.48,2.96,15.64.04.16.31.16.43.16h6.37c.47,0,1.56-.71.59-.71h-6.37l.43.16c-2.17-9.02-3.58-18.26-4.23-27.51-.36-5.18-.48-10.39-.15-15.58.28-4.5.7-9.26,2.42-13.47,1.95-4.8,5.69-9.61,10.91-10.98.85-.22.71-.82-.16-.59h0Z"/>
    </g>
  </g>
</svg>