<?xml version="1.0" encoding="UTF-8"?>
<svg xmlns="http://www.w3.org/2000/svg" xmlns:xlink="http://www.w3.org/1999/xlink" viewBox="0 0 1334 1000">
  <defs>
    <style>
      .cls-1, .cls-2, .cls-3 {
        fill: none;
      }

      .cls-2 {
        stroke: #4f2e25;
        stroke-width: .5px;
      }

      .cls-2, .cls-3 {
        stroke-miterlimit: 10;
      }

      .cls-4 {
        fill: #c4d092;
      }

      .cls-5 {
        fill: #101931;
      }

      .cls-6 {
        fill: #010101;
      }

      .cls-7 {
        fill: #222323;
      }

      .cls-8 {
        fill: #653c29;
      }

      .cls-9 {
        fill: #905222;
      }

      .cls-10 {
        fill: #97a756;
      }

      .cls-11 {
        fill: #27153c;
      }

      .cls-12 {
        opacity: .69;
      }

      .cls-12, .cls-13 {
        fill: #fff;
      }

      .cls-14 {
        fill: #3d4e83;
      }

      .cls-15 {
        fill: #745245;
      }

      .cls-16 {
        fill: #c9c9c9;
      }

      .cls-17 {
        fill: #a66e53;
      }

      .cls-18 {
        fill: url(#linear-gradient);
        opacity: .5;
      }

      .cls-19 {
        fill: #6f453a;
      }

      .cls-3 {
        stroke: #010101;
        stroke-width: .75px;
      }

      .cls-20 {
        fill: #3d3d3d;
      }

      .cls-21 {
        fill: #fcb01a;
      }

      .cls-22 {
        fill: #56352e;
      }

      .cls-23 {
        fill: #513835;
      }

      .cls-24 {
        fill: #663c18;
      }

      .cls-25 {
        fill: #383838;
      }

      .cls-26 {
        fill: #cc9a2b;
      }

      .cls-27 {
        fill: #e2b354;
      }

      .cls-28 {
        fill: #a4752b;
      }

      .cls-29 {
        fill: #151210;
      }

      .cls-30 {
        fill: #f2ebd1;
      }

      .cls-31 {
        fill: #24180f;
      }

      .cls-32 {
        fill: #628e9f;
      }

      .cls-33 {
        fill: #eae9e8;
      }

      .cls-34 {
        fill: #825639;
      }

      .cls-35 {
        fill: #381c13;
      }

      .cls-36 {
        fill: #40403f;
      }

      .cls-37 {
        fill: #3d4f84;
      }

      .cls-38 {
        fill: #a8b87b;
      }

      .cls-39 {
        clip-path: url(#clippath);
      }

      .cls-40 {
        fill: #4f2e25;
      }

      .cls-41 {
        fill: #fffceb;
      }

      .cls-42 {
        fill: #161312;
      }
    </style>
    <linearGradient id="linear-gradient" x1="5551.53" y1="-3181.55" x2="6788.04" y2="-3181.55" gradientTransform="translate(3887.84 -5608.88) rotate(90) scale(1 -1)" gradientUnits="userSpaceOnUse">
      <stop offset="0" stop-color="#f0ebe0"/>
      <stop offset=".18" stop-color="#eee8dd" stop-opacity=".99"/>
      <stop offset=".33" stop-color="#e8e1d4" stop-opacity=".97"/>
      <stop offset=".46" stop-color="#ded4c5" stop-opacity=".93"/>
      <stop offset=".59" stop-color="#d0c2b0" stop-opacity=".88"/>
      <stop offset=".72" stop-color="#bdab95" stop-opacity=".82"/>
      <stop offset=".84" stop-color="#a78e73" stop-opacity=".73"/>
      <stop offset=".96" stop-color="#8d6d4d" stop-opacity=".64"/>
      <stop offset="1" stop-color="#83603d" stop-opacity=".6"/>
    </linearGradient>
    <clipPath id="clippath">
      <polygon class="cls-1" points="645.38 -24.74 -46.62 712.26 -52.9 -22.78 645.38 -24.74"/>
    </clipPath>
  </defs>
  <g id="Layer_1" data-name="Layer 1">
    <polyline class="cls-30" points="1523.87 1179.38 1523.87 -53.69 -152.52 -53.69 -152.52 1179.38"/>
    <polyline class="cls-18" points="1544.49 1175.09 -131.91 1175.09 -131.91 -61.43 1544.48 -61.43"/>
    <path class="cls-17" d="M535.91,307.42c9.5-2.16,13.95-16.4,15.83-19.18,1.88-2.77,10.64-11.65,15.31-17.73,4.67-6.08-1.56-8.32-1.56-8.32-7.81-2.35-18.38,14.27-18.38,14.27l-6.33,2.62s-14.38,30.5-4.88,28.34Z"/>
    <path class="cls-36" d="M535.75,247.59s19.89-52.12,23.23-54.78c3.33-2.65,5.54-1.04,5.54-1.04l13.96,28.68-9.78,25.13-11.43,33.69s.24,5.27-4.53,6.34-5.58-2.2-5.58-2.2c-.38-2.04-6.48-20.35-6.72-21.65l-4.69-14.18Z"/>
    <path class="cls-17" d="M560.63,232.78s.01,0,.02,0c1.57.53,2.41,2.22,1.88,3.79-5.92,7.06-15.42.77-15.42.77l-3.75,1.52s6.5,2.46,9.09,4.72c2.58,2.25,8.95,12.81,6.47,14.82-2.48,2.02-6.37.25-6.37.25,1.04,1.71-1.81,3.67-1.81,3.67-6.86,1.39-8.92-8.31-8.92-8.31l-4.9-.16-7.46,16.62,1.26,3.57s7.45,1.81,10.07,5c2.62,3.19-.64,25.67-5.61,28.97s-4.01,4.56-4.01,4.56l-27.95-2.01c1.57-4.92,1.69-8.03,2.19-16.8s2.61-25.96,1.86-31.25c-.75-5.29,7.25-12.01,7.25-12.01,0,0,11.56-17.51,13.91-18.3,2.02-.68,15.78-2.52,19.58-3.02.64-.09,1.29-.03,1.9.18l10.72,3.42Z"/>
    <path class="cls-40" d="M553.25,258.5c-.1-1.88-.77-3.86-1.29-5.66s-.94-4.11-2.18-5.51c-1.17-1.32-3.42-1.79-5.03-2.32-2.08-.68-4.21-1.19-6.36-1.63-1.69-.34-3.69-.87-5.42-.55-1.52.28-2.62,1.24-3.72,2.27-1.51,1.4-2.82,2.97-4.08,4.59-1.09,1.4-2.34,2.89-3.1,4.51-.14.31,1.25.18,1.44-.23.66-1.43,1.76-2.74,2.71-3.99s1.99-2.56,3.11-3.73c.67-.7,1.37-1.38,2.11-1.99,1.01-.84,2.13-.85,3.38-.68,1.8.24,3.57.65,5.33,1.07s3.49.96,5.18,1.59c.84.32,1.84.61,2.57,1.14s1.05,1.32,1.37,2.11c.65,1.63,1.14,3.33,1.59,5.02.38,1.42.85,2.9.93,4.37.02.34,1.47.07,1.45-.39h0Z"/>
    <path class="cls-40" d="M543.92,238.54c-2.46-1.14-5.19-1.83-7.86-2.3-2.21-.39-4.03-.15-5.82,1.3-2,1.61-3.78,3.68-5.52,5.57-1.92,2.08-3.91,4.19-5.47,6.57-.34.53,1.1.38,1.34,0,1.25-1.91,2.81-3.59,4.32-5.3,1.53-1.72,3.12-3.4,4.77-5.01.75-.74,1.45-1.55,2.34-2.11,1.22-.77,2.64-.38,3.96-.12,2.3.46,4.63,1.08,6.76,2.07.4.18,1.73-.41,1.16-.67h0Z"/>
    <path class="cls-17" d="M530.49,302.49l-5.45,64.37s1.62,37.86-.91,68.17c-1.76,21.09,31.65,22.29,31.65,22.29,0,0-36.52,57.87-67.11,47.71-31.58-10.49-19.53-60.55-17.18-70.37,2.36-9.82,40.13-129.29,40.13-129.29l18.85-2.88Z"/>
    <path class="cls-40" d="M528.37,270.7c.52,4.22,1.04,8.44,1.56,12.66.49,3.95.98,8.12-.78,11.85-.33.7,1.13.62,1.37.11,1.7-3.62,1.42-7.6.96-11.46-.54-4.52-1.11-9.03-1.67-13.54-.07-.59-1.53-.24-1.45.39h0Z"/>
    <path class="cls-16" d="M995.52,531.42h55.14s9.24,16.63,1.48,49.9c-7.76,33.26-4.07,55.81-4.07,55.81,0,0,1.85,11.09-3.33,11.46-5.17.37-43.24,0-43.24,0,0,0-6.63.37-5.54-10.35,2.96-29.2,2.22-29.44-3.39-57.59-4.62-23.16,2.96-49.22,2.96-49.22Z"/>
    <path class="cls-33" d="M1048,581.61l-50.31-.57-.8-13.46c-.47-7.97.13-15.96,1.8-23.77l1.59-7.44h46.82l2.7,11.84c.98,7.16.05,14.41-.65,21.61l-1.14,11.79Z"/>
    <path class="cls-21" d="M996.2,557.91h53.94s.16,11.45-2.46,24.77c-5.57,28.29-4.51,47.1-4.51,47.1,0,0,1.56,9.36-2.81,9.67-4.37.31-34.37,0-34.37,0,0,0-5.6.31-4.68-8.73,2.5-24.64,3.52-25.55-3.94-48.61-3.66-11.3-1.16-24.2-1.16-24.2Z"/>
    <path class="cls-12" d="M1014.74,548.18s-2.92,26.88.63,39.64c3.55,12.77,1.08,44.31,1.08,44.31h-8.51s3.18-26.09-1.08-38.75c-4.26-12.66-1.35-45.35-1.35-45.35l9.23.14Z"/>
    <path class="cls-16" d="M1228.94,529.27h55.14s9.24,16.63,1.48,49.9c-7.76,33.26-4.07,55.81-4.07,55.81,0,0,1.85,11.09-3.33,11.46-5.17.37-43.24,0-43.24,0,0,0-6.63.37-5.54-10.35,2.96-29.2,2.22-29.44-3.39-57.59-4.62-23.16,2.96-49.22,2.96-49.22Z"/>
    <path class="cls-33" d="M1278.21,595.51l-44.55-1.78-3.68-27.22c-.47-7.97.13-15.96,1.8-23.77l1.59-7.44h46.82l2.7,11.84c.98,7.16.05,14.41-.65,21.61l-4.02,26.77Z"/>
    <path class="cls-9" d="M795.16,823.99c38.62,0,77.23-.02,115.85,0,16.61.01,19.69,7.69,19.66,23.45-.02,14.49-3.32,22.99-20.13,23.03-3.79,0-7.65.41-11.34-.08-11.12-1.47-13.35,2.56-11.89,10.97,14.22,82.05,28.1,212.29,42.28,294.35.97,5.59.09,7.8-7.59,7.89-19.17.23-19.57.61-22.23-14.76-9.06-52.35-17.98-158.51-26.48-210.92-1.15-7.12-4.11-9.28-12.76-9.21-43.91.35-87.83.36-131.74,0-8.43-.07-8.73,2.45-9.78,8.89-9,55.2-20.59,164.14-29.67,219.33-.85,5.14-3.41,6.67-9.51,6.76-19.76.3-20.29.43-17.76-15.04,9.2-56.11,22-165.98,31.49-222.06,4.04-23.85,4.84-42.05,9.24-65.85,1.36-7.35-.23-11.51-10.55-10.11-2.21.3-4.55-.09-6.8.06-29.62,2.05-27.2-18.65-25.49-37.8.67-7.43,8.53-9.18,17.07-9.14,39.37.19,78.74.22,118.12.22,0-4.58,0-.04,0,0ZM794.23,929.93c21.93,0,43.86-.17,65.79.1,6.71.08,9.71-1.13,8.57-7.32-3.53-19.15-6.74-25.01-9.79-44.22-.92-5.82-3.38-8.28-11.33-8.19-34.78.43-69.57.49-104.35-.03-8.62-.13-11.01,2.57-11.98,8.74-2.92,18.59-6.03,23.84-9.48,42.37-1.2,6.42.55,8.89,9.06,8.71,21.16-.46,42.34-.15,63.52-.15Z"/>
    <path class="cls-24" d="M693.66,945.61c-1.47,8.65-2.93,18.38-4.4,27.04,9.2,1.77,17.26,2.77,26.39,4.94,1.15-6.99,2.31-13.98,3.46-20.97,1.05-6.44,1.35-8.96,9.78-8.89,43.91.36,86.76.36,130.67,0,8.65-.07,11.6,2.08,12.76,9.21,1.1,6.78,2.22,13.56,3.34,20.34,8.79-3.1,16.32-6.68,24.71-10.73-5.02-28.35-7.89-56.91-12.97-86.18-.48-2.76-.55-5.04-.05-6.81-6,.39-12.02.7-18.03.92-3.69.14-7.38.24-11.07.33.27.8.47,1.69.63,2.68,3.05,19.21,4.11,25.07,7.64,44.22,1.14,6.2-1.86,7.4-8.57,7.32-21.93-.27-41.71-.1-63.64-.1-21.17,0-42.36-.31-63.52.15-8.51.18-8.11-2.29-6.91-8.71,3.45-18.53,4.41-23.78,7.33-42.37.39-2.46,1.01-4.37,2.16-5.76-10.43-.31-20.86-.56-31.29-.69,1.42,1.79,1.47,4.61.81,8.21-4.4,23.8-5.2,42-9.24,65.85Z"/>
    <path class="cls-9" d="M1325.92,829.35c38.62,0,77.23-.02,115.85,0,16.61.01,19.69,7.69,19.66,23.45-.02,14.49-3.32,22.99-20.13,23.03-3.79,0-7.65.41-11.34-.08-11.12-1.47-13.35,2.56-11.89,10.97,14.22,82.05,28.1,212.29,42.28,294.35.97,5.59.09,7.8-7.59,7.89-19.17.23-19.57.61-22.23-14.76-9.06-52.35-17.98-158.51-26.48-210.92-1.15-7.12-4.11-9.28-12.76-9.21-43.91.35-87.83.36-131.74,0-8.43-.07-8.73,2.45-9.78,8.89-9,55.2-20.59,164.14-29.67,219.33-.85,5.14-3.41,6.67-9.51,6.76-19.76.3-20.29.43-17.76-15.04,9.2-56.11,22-165.98,31.49-222.06,4.04-23.85,4.84-42.05,9.24-65.85,1.36-7.35-.23-11.51-10.55-10.11-2.21.3-4.55-.09-6.8.06-29.62,2.05-27.2-18.65-25.49-37.8.67-7.43,8.53-9.18,17.07-9.14,39.37.19,78.74.22,118.12.22,0-4.58,0-.04,0,0ZM1324.99,935.28c21.93,0,43.86-.17,65.79.1,6.71.08,9.71-1.13,8.57-7.32-3.53-19.15-6.74-25.01-9.79-44.22-.92-5.82-3.38-8.28-11.33-8.19-34.78.43-69.57.49-104.35-.03-8.62-.13-11.01,2.57-11.98,8.74-2.92,18.59-6.03,23.84-9.48,42.37-1.2,6.42.55,8.89,9.06,8.71,21.16-.46,42.34-.15,63.52-.15Z"/>
    <path class="cls-24" d="M1224.42,950.96c-1.47,8.65-2.93,18.38-4.4,27.04,9.2,1.77,17.26,2.77,26.39,4.94,1.15-6.99,2.31-13.98,3.46-20.97,1.05-6.44,1.35-8.96,9.78-8.89,43.91.36,86.76.36,130.67,0,8.65-.07,11.6,2.08,12.76,9.21,1.1,6.78,2.22,13.56,3.34,20.34,8.79-3.1,16.32-6.68,24.71-10.73-5.02-28.35-7.89-56.91-12.97-86.18-.48-2.76-.55-5.04-.05-6.81-6,.39-12.02.7-18.03.92-3.69.14-7.38.24-11.07.33.27.8.47,1.69.63,2.68,3.05,19.21,4.11,25.07,7.64,44.22,1.14,6.2-1.86,7.4-8.57,7.32-21.93-.27-41.71-.1-63.64-.1-21.17,0-42.36-.31-63.52.15-8.51.18-8.11-2.29-6.91-8.71,3.45-18.53,4.41-23.78,7.33-42.37.39-2.46,1.01-4.37,2.16-5.76-10.43-.31-20.86-.56-31.29-.69,1.42,1.79,1.47,4.61.81,8.21-4.4,23.8-5.2,42-9.24,65.85Z"/>
    <rect class="cls-9" x="845.82" y="646.96" width="511.75" height="51.27" rx="17.33" ry="17.33"/>
    <rect class="cls-9" x="714.57" y="946.94" width="487.92" height="34.99" transform="translate(-5.91 1922.97) rotate(-90)"/>
    <rect class="cls-9" x="1012.42" y="946.94" width="487.92" height="34.99" transform="translate(291.94 2220.81) rotate(-90)"/>
    <rect class="cls-24" x="882.31" y="698.23" width="443.32" height="34.99"/>
    <rect class="cls-9" x="959.43" y="778.52" width="287.8" height="34.99"/>
    <path class="cls-38" d="M963.82,487.49c.52,4.69,1.04,9.38,1.55,14.07.81,7.5,1.62,14.99,2.43,22.49.22,2.01.47,4.02.63,6.03.27,3.34,1.57,6.2,3.97,8.53,1.4,1.36,2.93,2.6,4.33,3.97,1.73,1.69,2.65,3.8,2.69,6.2.06,4.4,0,8.8,0,13.2-.08.03-.16.06-.23.08-.15,0-.31,0-.46,0-.1-.09-.2-.1-.3,0-1.26,0-2.52,0-3.78.01,0-.05-.01-.09-.02-.14.08-3.14-.2-6.25-.98-9.3-.39-1.51-.86-3.02-1.78-4.32-.8-1.13-2.03-1.42-2.87-.6-.54.52-1.03,1.13-1.34,1.85-1.66,3.96-2.03,8.14-2.09,12.38-.01.04-.02.09-.02.13-6.04,0-12.07,0-18.11.01-.04-.03-.09-.04-.14-.02-.02-.04-.03-.08-.05-.12-.23-3.4-.44-6.81-.71-10.21-.26-3.31-.41-6.64-.41-9.96,0-7.57-.26-15.14.14-22.71.14-2.59.14-5.18.21-7.78,0-.13,0-.26.02-.38.61-3.85.49-7.76.94-11.63.24-2.09.47-4.18.71-6.27.21-1.87.43-3.73.64-5.6,1.34-.01,2.69-.05,4.03-.04,3.49,0,6.98.03,10.47.05.18.03.36.06.54.09Z"/>
    <path class="cls-26" d="M974.64,562.08c1.26,0,2.52,0,3.79,0,.1,0,.2,0,.3,0,.15,0,.31,0,.46,0,.07.02.15.04.22.06.01.26.04.51.04.77,0,20.16,0,40.32,0,60.48,0,.22-.02.45-.04.67-5.97.01-11.94.02-17.91.04-.13-.03-.26-.05-.38-.08-.02-.49-.22-.91-.45-1.34-.4-.76-.78-1.54-1.06-2.35-.63-1.8-1.35-3.57-2.01-5.37-.91-2.49-1.71-5.01-2.41-7.54-1.25-4.48-2.43-8.98-3.28-13.56-.21-1.16-.64-2.28-.79-3.45-.25-1.93-.65-3.83-.94-5.74-.48-3.15-.98-6.29-1.4-9.45-.25-1.86-.49-3.73-.64-5.6-.2-2.51-.79-4.98-.71-7.52,6.04,0,12.07,0,18.11-.01,0,1.82.21,3.63.38,5.44.26,2.76.9,5.41,2.21,7.87.96,1.79,2.63,1.89,3.78.24,1.03-1.48,1.52-3.17,1.91-4.88.65-2.84.89-5.74.81-8.65Z"/>
    <path class="cls-28" d="M947.43,562.08c-.08,2.54.51,5.01.71,7.52.15,1.88.39,3.74.64,5.6.42,3.16.92,6.3,1.4,9.45.29,1.92.7,3.82.94,5.74.15,1.16.58,2.29.79,3.45.84,4.58,2.03,9.08,3.28,13.56.71,2.54,1.51,5.06,2.41,7.54.65,1.79,1.38,3.56,2.01,5.37.28.81.66,1.59,1.06,2.35.23.43.43.85.45,1.34-.35.01-.7.03-1.06.03-10.03,0-20.06,0-30.09,0-.29,0-.57-.02-.86-.04-.05-.12-.11-.25-.16-.37-.01-.22-.03-.45-.03-.67,0-19.87,0-39.73,0-59.6,0-.22.02-.45.03-.67.21-.16.15-.4.16-.61.18,0,.36-.02.55-.02.09,0,.17,0,.26,0,5.7,0,11.4,0,17.1,0,.09,0,.19,0,.28,0,.05-.01.1,0,.14.02Z"/>
    <path class="cls-10" d="M929.11,624c.29.01.57.04.86.04,10.03,0,20.06,0,30.09,0,.35,0,.7-.02,1.06-.03.13.03.26.05.38.08.27,1.33.94,2.49,1.58,3.65,1.46,2.64,2.98,5.24,4.93,7.56,1.32,1.57,2.74,3.06,4.38,4.3,2.07,1.57,4.34,2.69,7.02,2.74.46,2.85-1.66,5.13-4.75,5.11-13.71-.09-27.42-.04-41.12-.04-2.89,0-4.63-1.71-4.62-4.58,0-6.26.02-12.52.03-18.78.06,0,.11-.02.16-.04Z"/>
    <path class="cls-10" d="M947.01,562.05c-5.7,0-11.4,0-17.1,0-.09-.09-.17-.08-.26,0-.18,0-.36.02-.55.02-.05-.02-.11-.04-.16-.05,0-4.34-.04-8.68,0-13.01.03-3.17,1.56-5.63,3.93-7.62,1.23-1.03,2.48-2.05,3.57-3.23,2.29-2.45,3.29-5.41,3.63-8.71,1.2-11.69,2.47-23.37,3.72-35.06.24-2.3.48-4.6.72-6.89,1.41-.33,2.84-.11,4.26-.11-.22,1.87-.43,3.73-.64,5.6-.24,2.09-.46,4.18-.71,6.27-.45,3.87-.33,7.78-.94,11.63-.02.13-.02.26-.02.38-.07,2.59-.07,5.19-.21,7.78-.4,7.57-.14,15.14-.14,22.71,0,3.32.15,6.66.41,9.96.27,3.4.48,6.81.71,10.21-.08.04-.15.08-.23.12Z"/>
    <path class="cls-38" d="M979.42,642.34c-2.68-.05-4.95-1.17-7.02-2.74-1.64-1.24-3.06-2.73-4.38-4.3-1.95-2.32-3.47-4.93-4.93-7.56-.64-1.16-1.31-2.32-1.58-3.65,5.97-.01,11.94-.02,17.91-.04,0,6.1,0,12.2,0,18.29Z"/>
    <path class="cls-22" d="M948.78,487.39c-1.42,0-2.84-.21-4.26.11-.45-.25-.94-.13-1.41-.13-.56,0-.83-.22-.83-.8,0-1.25-.04-2.51.01-3.76.06-1.51,1.1-2.5,2.62-2.5,6.2-.01,12.4-.02,18.6,0,1.55,0,2.57,1.06,2.6,2.62.02,1.12-.03,2.25.02,3.37.03.78-.23,1.14-1.04,1.07-.41-.04-.83.03-1.25.05-.19,0-.38,0-.56-.01-3.49-.02-6.98-.04-10.47-.05-1.34,0-2.69.03-4.03.04Z"/>
    <path class="cls-27" d="M974.64,562.08c.08,2.92-.16,5.81-.81,8.65-.39,1.71-.88,3.41-1.91,4.88-1.15,1.65-2.83,1.55-3.78-.24-1.31-2.46-1.95-5.1-2.21-7.87-.17-1.81-.38-3.62-.38-5.44,0-.04.01-.09.02-.13,3.02,0,6.03,0,9.05,0,.01.04.02.09.02.14Z"/>
    <path class="cls-4" d="M974.62,561.94c-3.02,0-6.03,0-9.05,0,.05-4.23.42-8.41,2.09-12.38.3-.72.8-1.32,1.34-1.85.83-.81,2.07-.52,2.87.6.92,1.3,1.39,2.81,1.78,4.32.78,3.04,1.06,6.15.98,9.3Z"/>
    <path class="cls-38" d="M1183.11,630.41c-4.69.52-9.38,1.04-14.07,1.55-7.5.81-14.99,1.62-22.49,2.43-2.01.22-4.02.47-6.03.63-3.34.27-6.2,1.57-8.53,3.97-1.36,1.4-2.6,2.93-3.97,4.33-1.69,1.73-3.8,2.65-6.2,2.69-4.4.06-8.8,0-13.2,0-.03-.08-.06-.16-.08-.23,0-.15,0-.31,0-.46.09-.1.1-.2,0-.3,0-1.26,0-2.52-.01-3.78.05,0,.09-.01.14-.02,3.14.08,6.25-.2,9.3-.98,1.51-.39,3.02-.86,4.32-1.78,1.13-.8,1.42-2.03.6-2.87-.52-.54-1.13-1.03-1.85-1.34-3.96-1.66-8.14-2.03-12.38-2.09-.04-.01-.09-.02-.13-.02,0-6.04,0-12.07-.01-18.11.03-.04.04-.09.02-.14.04-.02.08-.03.12-.05,3.4-.23,6.81-.44,10.21-.71,3.31-.26,6.64-.41,9.96-.41,7.57,0,15.14-.26,22.71.14,2.59.14,5.18.14,7.78.21.13,0,.26,0,.38.02,3.85.61,7.76.49,11.63.94,2.09.24,4.18.47,6.27.71,1.87.21,3.73.43,5.6.64.01,1.34.05,2.69.04,4.03,0,3.49-.03,6.98-.05,10.47-.03.18-.06.36-.09.54Z"/>
    <path class="cls-26" d="M1108.52,641.23c0,1.26,0,2.52,0,3.79,0,.1,0,.2,0,.3,0,.15,0,.31,0,.46-.02.07-.04.15-.06.22-.26.01-.51.04-.77.04-20.16,0-40.32,0-60.48,0-.22,0-.45-.02-.67-.04-.01-5.97-.02-11.94-.04-17.91.03-.13.05-.26.08-.38.49-.02.91-.22,1.34-.45.76-.4,1.54-.78,2.35-1.06,1.8-.63,3.57-1.35,5.37-2.01,2.49-.91,5.01-1.71,7.54-2.41,4.48-1.25,8.98-2.43,13.56-3.28,1.16-.21,2.28-.64,3.45-.79,1.93-.25,3.83-.65,5.74-.94,3.15-.48,6.29-.98,9.45-1.4,1.86-.25,3.73-.49,5.6-.64,2.51-.2,4.98-.79,7.52-.71,0,6.04,0,12.07.01,18.11-1.82,0-3.63.21-5.44.38-2.76.26-5.41.9-7.87,2.21-1.79.96-1.89,2.63-.24,3.78,1.48,1.03,3.17,1.52,4.88,1.91,2.84.65,5.74.89,8.65.81Z"/>
    <path class="cls-28" d="M1108.52,614.02c-2.54-.08-5.01.51-7.52.71-1.88.15-3.74.39-5.6.64-3.16.42-6.3.92-9.45,1.4-1.92.29-3.82.7-5.74.94-1.16.15-2.29.58-3.45.79-4.58.84-9.08,2.03-13.56,3.28-2.54.71-5.06,1.51-7.54,2.41-1.79.65-3.56,1.38-5.37,2.01-.81.28-1.59.66-2.35,1.06-.43.23-.85.43-1.34.45-.01-.35-.03-.7-.03-1.06,0-10.03,0-20.06,0-30.09,0-.29.02-.57.04-.86.12-.05.25-.11.37-.16.22-.01.45-.03.67-.03,19.87,0,39.73,0,59.6,0,.22,0,.45.02.67.03.16.21.4.15.61.16,0,.18.02.36.02.55,0,.09,0,.17,0,.26,0,5.7,0,11.4,0,17.1,0,.09,0,.19,0,.28.01.05,0,.1-.02.14Z"/>
    <path class="cls-10" d="M1046.6,595.7c-.01.29-.04.57-.04.86,0,10.03,0,20.06,0,30.09,0,.35.02.7.03,1.06-.03.13-.05.26-.08.38-1.33.27-2.49.94-3.65,1.58-2.64,1.46-5.24,2.98-7.56,4.93-1.57,1.32-3.06,2.74-4.3,4.38-1.57,2.07-2.69,4.34-2.74,7.02-2.85.46-5.13-1.66-5.11-4.75.09-13.71.04-27.42.04-41.12,0-2.89,1.71-4.63,4.58-4.62,6.26,0,12.52.02,18.78.03,0,.06.02.11.04.16Z"/>
    <path class="cls-10" d="M1108.55,613.6c0-5.7,0-11.4,0-17.1.09-.09.08-.17,0-.26,0-.18-.02-.36-.02-.55.02-.05.04-.11.05-.16,4.34,0,8.68-.04,13.01,0,3.17.03,5.63,1.56,7.62,3.93,1.03,1.23,2.05,2.48,3.23,3.57,2.45,2.29,5.41,3.29,8.71,3.63,11.69,1.2,23.37,2.47,35.06,3.72,2.3.24,4.6.48,6.89.72.33,1.41.11,2.84.11,4.26-1.87-.22-3.73-.43-5.6-.64-2.09-.24-4.18-.46-6.27-.71-3.87-.45-7.78-.33-11.63-.94-.13-.02-.26-.02-.38-.02-2.59-.07-5.19-.07-7.78-.21-7.57-.4-15.14-.14-22.71-.14-3.32,0-6.66.15-9.96.41-3.4.27-6.81.48-10.21.71-.04-.08-.08-.15-.12-.23Z"/>
    <path class="cls-38" d="M1028.26,646c.05-2.68,1.17-4.95,2.74-7.02,1.24-1.64,2.73-3.06,4.3-4.38,2.32-1.95,4.93-3.47,7.56-4.93,1.16-.64,2.32-1.31,3.65-1.58.01,5.97.02,11.94.04,17.91-6.1,0-12.2,0-18.29,0Z"/>
    <path class="cls-22" d="M1183.21,615.37c0-1.42.21-2.84-.11-4.26.25-.45.13-.94.13-1.41,0-.56.22-.83.8-.83,1.25,0,2.51-.04,3.76.01,1.51.06,2.5,1.1,2.5,2.62.01,6.2.02,12.4,0,18.6,0,1.55-1.06,2.57-2.62,2.6-1.12.02-2.25-.03-3.37.02-.78.03-1.14-.23-1.07-1.04.04-.41-.03-.83-.05-1.25,0-.19,0-.38.01-.56.02-3.49.04-6.98.05-10.47,0-1.34-.03-2.69-.04-4.03Z"/>
    <path class="cls-27" d="M1108.52,641.23c-2.92.08-5.81-.16-8.65-.81-1.71-.39-3.41-.88-4.88-1.91-1.65-1.15-1.55-2.83.24-3.78,2.46-1.31,5.1-1.95,7.87-2.21,1.81-.17,3.62-.38,5.44-.38.04,0,.09.01.13.02,0,3.02,0,6.03,0,9.05-.04.01-.09.02-.14.02Z"/>
    <path class="cls-4" d="M1108.66,641.2c0-3.02,0-6.03,0-9.05,4.23.05,8.41.42,12.38,2.09.72.3,1.32.8,1.85,1.34.81.83.52,2.07-.6,2.87-1.3.92-2.81,1.39-4.32,1.78-3.04.78-6.15,1.06-9.3.98Z"/>
    <path class="cls-21" d="M1278.21,595.51c-3.27,26.59-1.63,32.12-1.63,32.12,0,0,1.56,9.36-2.81,9.67s-34.37,0-34.37,0c0,0-5.6.31-4.68-8.73,2.5-24.64,1.43-11.66-1.06-34.84"/>
    <path class="cls-12" d="M1248.16,546.02s-2.92,26.88.63,39.64c3.55,12.77,1.08,44.31,1.08,44.31h-8.51s3.18-26.09-1.08-38.75c-4.26-12.66-1.35-45.35-1.35-45.35l9.23.14Z"/>
    <rect class="cls-24" x="1233.09" y="829.25" width="5.79" height="63.13"/>
    <rect class="cls-24" x="1273.87" y="829.25" width="5.79" height="46.37"/>
    <path class="cls-17" d="M672.58,222.4s-.01,44.73,6.32,59.5c1.54,3.59,25.3,13.05,25.3,13.05l-89.76,52.02-49.06-35.9s34.84-18.77,35.9-23.24c1.06-4.47-2.18-37.54-2.18-37.54"/>
    <path class="cls-20" d="M763.79,639.89l3.62,29.77c3.04,24.97-3.6,53.86-7.85,78.65l-19.94,156.86s-2.64,96.4.2,151.02c2.49,47.36-8.31,117.89-8.31,117.89l-14.6,2.65c-13.76,2.5-27.87,2.21-41.51-.85l-23.48-5.26-30.97-258.33,4.01-177.21-25.31-90.05,164.13-5.12Z"/>
    <path class="cls-20" d="M542.44,648.36l17.49,244.46c-.85,13.15,3.57,63.93,7.44,76.53l23.66,163.15,2.82,29.28,13.95,3c9.91,2.13,20.13,2.37,30.13.72l19.72-3.27-10.93-519.59-104.3,5.72Z"/>
    <path class="cls-7" d="M647.94,1158.72c-.18-1.76-.37-3.53-.55-5.29-.5-4.84-1-9.67-1.51-14.51-.75-7.19-1.49-14.39-2.24-21.58-.93-8.93-1.85-17.85-2.78-26.78-1.03-9.95-2.07-19.9-3.1-29.85-1.06-10.25-2.13-20.5-3.19-30.75-1.03-9.95-2.07-19.9-3.1-29.85-.93-8.93-1.85-17.85-2.78-26.78-.75-7.19-1.49-14.39-2.24-21.58-.5-4.84-1-9.67-1.51-14.51-.18-1.76-.34-3.53-.55-5.29-1.19-10.16-2.13-20.28-2.27-30.52-.05-3.45.1-6.9.03-10.35-.08-4.1-.17-8.19-.25-12.29-.16-7.64-.31-15.29-.47-22.93-.2-9.67-.4-19.34-.59-29.01-.21-10.29-.42-20.59-.63-30.88-.19-9.4-.39-18.8-.58-28.2-.14-7-.29-14.01-.43-21.01-.07-3.17.02-6.39-.2-9.56-.1-1.48-.53-2.98-.89-4.41-1.17-4.64-2.89-9.25-5.5-13.28-2.74-4.22-6.56-7.63-11.58-8.68-.38-.08-1.68.52-.92.68,10.13,2.13,14.78,13.89,16.84,22.88.54,2.37.62,4.43.67,6.85.11,5.49.23,10.98.34,16.47.17,8.5.35,16.99.52,25.49.21,10.08.41,20.16.62,30.24.21,10.11.41,20.22.62,30.34.18,8.72.36,17.44.54,26.15.12,5.86.24,11.72.36,17.58.12,5.68-.04,11.36.1,17.04.22,9.33,1.12,18.56,2.22,27.81.06.53.11,1.06.17,1.59l1.09,10.49c.64,6.18,1.28,12.36,1.92,18.54.85,8.19,1.7,16.37,2.55,24.56.99,9.56,1.98,19.12,2.98,28.67,1.06,10.18,2.11,20.35,3.17,30.53,1.05,10.15,2.11,20.31,3.16,30.46.98,9.46,1.96,18.91,2.95,28.37.84,8.08,1.68,16.17,2.52,24.25.63,6.04,1.25,12.07,1.88,18.11l1.03,9.93c.04.42.09.85.13,1.27.04.37,1.5.07,1.45-.39h0Z"/>
    <path class="cls-14" d="M519.68,454.7c-3.83-1.26-7.96-5.01-8.04-6.99-.02-.62,8.19-40.18,8.3-43.45.43-13.13.92-26.33,3.07-39.31,2.78-16.81,11.19-32.8,22.59-45.68,13.4-15.12,32.12-18.29,41-26.35l10.74-4.67s-18.31,23,21.17,28c39.49,4.99,65.41-36.88,65.41-36.88,0,0,13.39,10.31,39.6,21.7,10.06,4.39,30.48,20.22,35.26,30.1,11.93,24.68,13.84,36.06,11.23,81.17l-2.9,34.5-15.46-9.59c4.38,30.94,8.09,80.03,7.74,129-.07,6.57,6.3,43.47,6.19,50.04-.07,3.9,2.87,31.31.82,34.53-1.94,3.04-14.16,11.7-17.89,13.05-39.92,14.49-149.93,12.48-149.93,12.48-16.81-1.81-30.77-2.78-45.78-9.78-10.63-4.96-9.12-8.07-14.92-12.76,2.46-14.04-1.53-34.62-1.39-48.83.22-22.85,1.79-46.88,1.52-69.74-.02-1.31-.72-78.33-1.2-79.28-3.95-1.76-8.12,1.42-17.11-1.23Z"/>
    <path class="cls-5" d="M536.59,384.53c-.02,8.44-.49,16.89-.8,25.32-.38,10.24-.74,20.5-.67,30.75.03,4.91.22,9.8.74,14.69l1.01-.6c-3.83.15-7.73.01-11.53-.47-2.93-.38-5.78-1.06-8.45-2.36-.74-.36-2.1-1.06-2.26-1.74-.33-1.37-.16-3.03-.24-4.44l-1.17.58c7.4,1.65,15.04,2.46,22.58,3.05.55.04,1.54-.73.57-.81-7.43-.58-14.97-1.39-22.26-3.02-.35-.08-1.2.11-1.17.58.08,1.37.05,3.06.24,4.28.11.69.88,1.27,1.6,1.7,4.85,2.87,10.92,3.29,16.43,3.45,1.7.05,3.41.07,5.11,0,.31-.01,1.05-.15,1.01-.6-.98-9.33-.81-18.75-.6-28.12.23-10.21.68-20.42,1.04-30.63.14-4,.29-8.01.3-12.01,0-.43-1.45-.17-1.45.39h0Z"/>
    <path class="cls-17" d="M667.45,294.09c-23.08,12.52-49.68,13.12-70.35-2.7,5.09-3.02,4.61-7.91,4.86-9.07.92-4.29-1.17-33.11-1.17-33.11l73.16-28.55s-2.53,45.68,3.98,59.58c.35.74,3.04,3.99,5,5.47-4.22,4.06-10.27,5.54-15.48,8.37Z"/>
    <path class="cls-40" d="M585.8,253.56c2.59,4.05,4.97,8.27,7.72,12.2.04.06.06.12.08.18.22-.18.52-.21.74.09,1.93,2.65,5.1,4,6.8,6.82,1.47,2.44.57,5.73.74,8.69,1.99.31,5.3.16,7.81.31,16.98-.46,17.3-2.74,39.82-17.64,7.15-4.73,5.69-10.5,7.06-11.61-23.29-.45-46.41.74-70.76.96Z"/>
    <path d="M691.77,192.97s3.41-11.13,7.39-37.7c3.57-23.78-34-43.11-56.58-46.45-12.42-1.84-53.85,3.75-64.53,8.9-10.68,5.15-16.16,19.72-17.25,40.56,0,0,6.38-20.73,19.58-20.36,10.76.3,45.41-5.35,54.53-1.56,9.12,3.8,29.22,11.77,30.37,44.42.32,8.9,16.04-.62,20.42,4.71,4.39,5.33,6.06,7.48,6.06,7.48Z"/>
    <path class="cls-17" d="M674.17,231.3l3.28-32.13,1.24-35.92-14.33-27.1-25.67-12.15-29.01,1.21s-23.18,5.98-30.5,8c-7.31,2.02-12.39,11.03-17.26,21.1-4.87,10.07-2.57,26.68-2.57,26.68-.2.58.46,3.11.58,3.63,1.52,6.67,2.03,12.51,3.28,17.48.58,2.36.6,4.56-.09,6.78-2.72,8.74-2.63,12.47-1.87,17.79,1.04,7.26,2.45,13.44,5.18,19.14,2.9,6.04,6.54,12.56,7.29,13.83,0,0,8.13,13.52,9.87,14.83,1.75,1.31,4.34,2.53,5.56,2.65,1.22.12,17.19.97,17.19.97l7.41-.26c2.52-.09,5-.68,7.29-1.73,6.21-2.86,23.93-11.39,28.76-14.86,6.5-4.68,14.1-23.9,14.1-23.9"/>
    <path d="M666.77,200.39c-.1,2.78.13,13.8-.14,16.51l14.34-.51c4.17-9.58,9.19-20.85,10.79-23.42,2.5-4.02,2.6-23.35,2.64-30.62v-1.57c.06-6.98-6.78-17.95-18.3-29.34-12.67-12.55-34.91-19.43-56.66-17.54-2.07.18-4.13.44-6.12.76-18.86,3.09-34.42,12.78-46.23,28.79-8.52,11.55-8.89,24.59-8.04,32.52.28-15.69,5.61-26.82,5.83-27.29,5.04-10.75,11.63-13.91,16.26-14.67,4.04-.66,7.11.38,7.71.61,4.61.96,11.33.22,16.17-.57,3.61-.59,6.46-1.26,7.24-1.45,2.41-1.73,6.05-3.03,10.53-3.77,10.4-1.71,25.54-.11,28.73,4.43,3.54,5.03,11.61,23.04,11.74,27.27"/>
    <path class="cls-17" d="M672.81,232.04c8.6,8.37,13.75-8.19,13.75-8.19,7.81-9.97,7.49-20.33,6.99-27.41-.51-7.08-8.3-6.74-8.3-6.74-6.6.92-9.45,4.56-14.32,27.06"/>
    <path d="M566.88,140.87c4.64-7.88,13.77-17.85,18.93-25.4,2.54-.31,15.13-.91,17.77-1.08,26.93-1.78,63.52,12.81,67.24,22.53,2.32,6.06,1.71,39.41.61,42.47-3.01,8.39-4.01,19.32-4.01,19.32-1.43-12.47-10.71-26.17-11.94-30.43-1.23-4.26,3.98-24.73,2.57-25.55-1.41-.82-26.21-7.73-53.7-6.61-8.1.33-16.21,1.25-23.41,2.4.05-.08-14.12,2.44-14.07,2.35Z"/>
    <path d="M620.05,192.4c1.62-.91,3.48-1.67,4.6-.76.26.21.97.83,1.32,1.9.46,1.37-.04,2.96-.88,3.94-1.11,1.31-3.04,1.6-4.55.96-2.05-.87-2.79-3.27-2.35-5.05.08-.33.55-.27,1.85-1.01"/>
    <path d="M571.8,193.88c-1.68-.79-3.58.01-4.62,1-.25.23-.91.9-1.18,1.99-.36,1.4.25,2.95,1.15,3.87,1.2,1.23,3.15,1.38,4.6.64,1.98-1.01,2.55-3.46,1.99-5.2-.1-.32-.58-1.66-1.94-2.3"/>
    <path d="M585.59,199.95s-6.87-6.39-11.73-6.67c-7.1-.4-8.86,1.26-11.26,4.6,0,0,4.52-3.56,9.51-3.14,4.78.4,13.48,5.21,13.48,5.21Z"/>
    <path d="M609.29,196.94s9.81-6.45,14.69-6.66c7.11-.31,15.66,3.72,18.01,7.09,0,0-11.29-5.97-16.29-5.61-4.78.34-16.41,5.19-16.41,5.19Z"/>
    <path d="M611.75,165.86c-.64,1.56-1.28,3.13-1.93,4.71-.49,1.2-1.69,3.89-2.17,5.09,4.23.57,8.29.48,10.93,1.06,5.24,1.16,10.75,2.01,15.38,4.81,2.22,1.34,4.05,2.8,5.53,4.82.47.64,1.47,2.98,2.58,2.94.45-.02.62-2.2.64-2.42.32-4.41-2.36-7.4-6.06-10.01-7.55-5.32-16.01-8.57-24.91-11"/>
    <path d="M558.04,181.57s2.17-1.89,2.19-1.91c6.07-5.33,13.2-8.67,20.83-11.21.76,1.51,1.52,3.03,2.28,4.55.58,1.16,1.69,3.21,2.26,4.36-3.69.64-7.04.87-9.32,1.49-4.52,1.24-9.31,2.48-13.1,5.3-.3.22-2.88,1.78-3.16,2.01-2.37-1.43-2.4-3.98-1.98-4.6Z"/>
    <g>
      <path class="cls-6" d="M591.85,227.51c2.12,1.04,5.28.67,7.33-.73.45-.31,2.01-.08,1.38.36-2.71,1.85-7.25,2.18-9.98.83-.27-.13-.23-.35.1-.47.34-.13.89-.13,1.18.02"/>
      <path class="cls-6" d="M601.43,226.49c1.37-.73,2.93-1.14,4.49-1.32.23-.02.53.05.7.2.14.12.17.28,0,.38-.71.45-1.62.66-2.46.67-.27,0-.62-.05-.78-.28-.15-.21.11-.36.31-.36.7-.01,1.41-.18,1.99-.55.24.19.47.39.7.58-1.39.16-2.78.54-4.01,1.19-.24.13-.6.06-.83-.06-.17-.1-.36-.32-.11-.46"/>
      <path class="cls-6" d="M607.65,226.47c1.83-.11,3.95-1,4.8-2.44,1.28-2.17-.1-5.48-2.43-6.76-.25-.14-.13-.34.12-.4.33-.08.72.03.98.17,2.03,1.11,3.42,3.81,3.19,5.82-.21,1.87-1.92,3.24-4.09,3.86-.65.18-1.34.32-2.02.36-.28.02-.78-.05-.92-.27-.15-.22.1-.33.36-.34"/>
      <path class="cls-6" d="M588.46,226.68c.09-.22-.1-.35-.24-.34-.49.03-1-.09-1.44-.43-.15.21-.31.42-.46.62.99.08,2,.37,2.9.95.18.11.43.03.58-.11.11-.11.23-.35.05-.46"/>
      <path class="cls-6" d="M589.86,226.9c-1.01-.64-2.14-.96-3.25-1.04-.16-.01-.37.08-.48.24-.09.12-.1.29.02.38"/>
      <path class="cls-6" d="M584.67,227.07c-1.19,0-2.62-.77-3.25-2.16-.96-2.1-.23-4.65,1.21-6.06.16-.15.06-.34-.1-.39-.22-.06-.46.07-.63.23-1.25,1.23-2.02,3.18-1.76,5.17.25,1.86,1.43,3.12,2.88,3.61.43.14.88.24,1.33.24.18,0,.5-.1.58-.32.08-.23-.09-.32-.26-.32"/>
    </g>
    <g>
      <path class="cls-37" d="M680.51,277.45s-18.62,34.77-54.14,34.47c-35.52-.3-29.25-19.15-29.25-19.15l4.14-7.99-11.84,7.11s-3.12,8.17,1.62,16.47c4.74,8.29,22.92,14.66,45.47,11.35,13.23-1.94,30.2-11.12,40.2-21.66,11.98-12.62,12.82-14.21,12.82-14.21l-9.02-6.39Z"/>
      <path class="cls-5" d="M679.83,277.4c-2.18,4.07-5.08,7.85-8.07,11.34-6.59,7.68-14.64,14.27-23.95,18.34-5.7,2.49-11.8,3.96-18.01,4.3-6.59.36-13.61-.13-19.95-2.09-5.88-1.82-11.71-5.67-12.36-12.29-.13-1.33-.04-2.7.29-4,.02-.09.05-.19.08-.28-.02.04-.05.14.02-.02.13-.27.28-.54.42-.81.99-1.91,1.98-3.82,2.97-5.72.23-.44.46-.89.69-1.33.35-.68-.88-.49-1.15-.33-2.64,1.59-5.28,3.17-7.92,4.76-1.23.74-2.57,1.41-3.75,2.25-.68.48-.77,1.48-.94,2.26-1.2,5.39-.35,11.69,3.03,16.17,2.62,3.47,6.7,5.7,10.66,7.29,5.61,2.25,11.69,3.33,17.7,3.71,6.95.43,14.16.06,20.94-1.54,6.34-1.5,12.44-4.09,18.14-7.21,5.85-3.21,11.41-7.04,16.28-11.61,4.26-3.99,8.18-8.44,12.05-12.8.79-.89,1.59-1.79,2.34-2.72.24-.29.7-.7.82-1.07.01-.03.04-.06.06-.09.09-.18.04-.33-.12-.44-3.01-2.13-6.02-4.26-9.02-6.39-.46-.32-1.76.33-1.13.77,3.01,2.13,6.02,4.26,9.02,6.39l-.12-.44c-.34.64-1.03,1.32-1.59,1.98-2.95,3.45-6.08,6.75-9.19,10.05-4.48,4.75-9.28,8.94-14.76,12.49-5.57,3.6-11.59,6.64-17.89,8.75-6.2,2.07-12.66,2.93-19.18,3.06s-12.98-.52-19.19-2.31c-4.44-1.28-8.97-3.17-12.45-6.29-4.12-3.69-5.79-9.47-5.38-14.89.08-1.11.25-2.22.51-3.31.08-.35.22-.7.29-1.06.08-.43.29-.35-.11-.1,1.03-.64,2.09-1.25,3.13-1.88,2.9-1.74,5.8-3.49,8.7-5.23l-1.15-.33c-.79,1.52-1.57,3.03-2.36,4.55-.6,1.17-1.39,2.35-1.84,3.58-.36.99-.42,2.16-.42,3.2.01,6.12,4.39,10.56,9.75,12.9,5.57,2.43,11.81,3.16,17.83,3.38,6.72.24,13.38-.49,19.79-2.59,10.41-3.41,19.57-9.88,27.04-17.8,2.69-2.85,5.17-5.9,7.43-9.11,1.13-1.6,2.41-3.29,3.25-5.08.04-.09.09-.17.14-.25.36-.67-1.1-.6-1.37-.1Z"/>
    </g>
    <path class="cls-35" d="M677.72,210.48c1.01-3.88,2.2-7.83,4.18-11.35.51-.91,1.09-1.79,1.78-2.57.21-.24.43-.46.67-.67.09-.08.19-.15.28-.23.07-.05.3-.2.18-.13.08-.05.15-.09.23-.13.19-.1-.14.08.04-.02.04-.02-.07.02-.21.05l-.56-.07c.67.57,1.16,1.38,1.55,2.15,1.11,2.19,1.42,4.7,1.28,7.13-.03.5,1.42.2,1.44-.21.16-2.86-.24-5.83-1.83-8.28-.48-.73-.95-1.61-1.92-1.34-2.23.6-3.71,3.26-4.69,5.12-1.78,3.38-2.9,7.09-3.86,10.77-.11.43,1.33.22,1.44-.21h0Z"/>
    <path class="cls-35" d="M679.27,211.64c2-.17,1.37,3.44,1.26,4.56s-.72,4.31,1.25,4.15c.96-.08,1.44-.94,1.76-1.74.59-1.48.87-3.09,1.1-4.66.28-1.97.34-3.69-.02-5.65-.42-2.29-1.3-4.94-3.66-5.85-.52-.2-1.69.55-.87.87,1.91.73,2.63,3.17,3,4.98.3,1.48.42,2.85.27,4.28-.17,1.68-.43,3.37-.88,4.99-.15.52-.31,1.04-.56,1.52-.02.03-.28.42-.28.44h0c-.09.18.09.15.56-.08,0-.04-.15-.16-.16-.2-.04-.26-.16-.51-.18-.79-.04-.43,0-.88.03-1.31.07-.96.2-1.91.24-2.87.03-.86.05-1.85-.4-2.62-.48-.83-1.39-1-2.29-.93-.76.06-1.17,1-.17.91h0Z"/>
    <path class="cls-35" d="M602.16,175.96c-2.61.43-5.33-.89-6.66-3.18-1.37-2.34-1.08-5.55.65-7.62.57-.68-.82-.76-1.19-.33-1.98,2.38-2.39,5.85-.8,8.54s4.85,3.99,7.83,3.5c.28-.05.77-.19.81-.54s-.39-.43-.65-.39h0Z"/>
    <path class="cls-31" d="M595.33,236.7c6.19-.31,20.06,3.02,22.93,5.42,0,0-5.71,8.46-20.07,9.17-14.36.71-18.1-7.28-18.1-7.28,0,0,7.35-6.92,15.23-7.31Z"/>
    <path class="cls-13" d="M612.28,239.59s-7.89-.24-14.16.07c-6.27.31-14.09,1.33-14.09,1.33,0,0-1.24-4.6,10.13-5.16,11.37-.56,18.13,3.76,18.13,3.76Z"/>
    <path class="cls-8" d="M595.63,248.7c6.86-1.42,14.55-7.59,22.64-7.44,0,0-2.52,13.26-19.88,14.12-17.36.86-19.37-12.18-19.37-12.18,8.04-.95,9.64,4.76,16.61,5.5Z"/>
    <path class="cls-8" d="M587.81,233.51c3.53-.45,5.85.86,7.39.78,1.54-.08,3.72-1.61,7.28-1.51,3.33.1,17.81,8,16.29,9.19-1.52,1.19-12.72-4.58-23.39-4.05-10.67.53-14.19,7.03-15.81,5.99-1.63-1.04,4.93-9.98,8.24-10.4Z"/>
    <path class="cls-17" d="M496.74,496.78c5.78-3.58.79-6.23,5.05-11.54,9.23-11.49,12.28-7.51,12.09-22.12-.23-17.25,3.57,6.14,4.23-8.38.04-.9,3.25-64.85,3.86-65.17,1.7-17.71,3.66-39.27,3.66-39.27l5.97-45.55-22.93-10.05s-36.15,113.39-39.07,123.06c-2.92,9.66-17.04,72.7,13.89,84.99,4.33,1.72,9-6.14,13.25-5.96Z"/>
    <path class="cls-17" d="M779.39,462.19c-1.44.72-3.83-36.04-5.29-35.35-4.04,1.9-9.23-3.7-13.58-2.71-4.01.91-11.91,4.45-16.01,4.77-12.09.96-20.57,6.33-32.62,5.1l19.83,105.96-1.83,11.64c-2.05,13.05-2.74,26.27-2.05,39.46l-1.31,94.01,29.31,7.99c12.36-65.35,29.49-117.77,31.17-151.68.42-8.49-4.84-54.12-7.62-79.2Z"/>
    <path class="cls-17" d="M697.94,757.64c5.52-5.7,12.8-13.47,12.83-14.85.02-1.37,1.62-10.5,3.05-18.48.92-4.04-1.52-8.08-5.43-9.04-1.02-.25-9.95,17.31-17.54,12.82l4.45-16.36c2.18-5.08,4.98-9.85,8.34-14.2,7.69-16.43,23.95-21.62,23.95-21.62l.38,9.46,28.46.11,1.09,28.78s-8.09,38.57-12.27,42.38c-4.19,3.81-16.36,6.14-16.36,6.14-4.65,5.92-14.68,3.98-14.68,3.98-10.78,7.15-10.61-1.26-10.61-1.26-.31.33-.7.57-1.13.68-4.68,1.26-7.82-5.18-4.5-8.55Z"/>
    <path class="cls-40" d="M724.73,735.37c-.19,6.35-1.8,13.25-5.75,18.36-1.92,2.48-4.22,4.67-6.8,6.46-2.72,1.89-5.78,3.71-8.97,4.64-.83.24-.73.67.11.43,3.22-.93,6.14-2.58,8.96-4.37,2.74-1.74,5.21-3.91,7.3-6.4,4.51-5.37,6.38-12.58,6.59-19.5,0-.2-1.44-.02-1.45.39h0Z"/>
    <path class="cls-40" d="M733.56,738.96c-.29,3.92-.87,8.05-2.48,11.66-1.59,3.58-4.44,6.28-7.46,8.69-3.15,2.52-6.28,5.6-9.88,7.4-.85.43.49.38.84.2,3.81-1.91,7.04-5.05,10.36-7.71,3.07-2.46,5.95-5.2,7.57-8.84s2.2-7.84,2.5-11.8c.02-.21-1.42-.05-1.45.39h0Z"/>
    <path class="cls-40" d="M743.14,740.98c-.35-.12-.04-.15-.13.08-.06.15-.03.43-.05.6-.09.67-.26,1.34-.42,2-.57,2.31-1.24,4.61-1.88,6.9-.4,1.43-.66,3-1.43,4.29-.86,1.42-2.27,2.62-3.53,3.68-1.19,1.01-2.48,1.93-3.85,2.67-.59.32-1.21.63-1.84.86-.2.07-.52.1-.69.22-.31.21-.27-.3.1.17-.37-.48-1.76.07-1.33.62s1.59.11,2.11-.06c1.62-.55,3.13-1.43,4.53-2.4,2.89-1.99,5.84-4.49,6.8-7.97.85-3.1,1.78-6.19,2.54-9.31.16-.68,1-2.91-.06-3.26-.57-.19-1.7.64-.85.92h0Z"/>
    <path class="cls-14" d="M770.11,365.35s10.42,73.03,12.94,97.2c0,0-33.79,13.52-68.97,10.66-37.29-3.03-5.04-82.39-5.04-82.39l61.07-25.47Z"/>
    <g>
      <path class="cls-14" d="M721.03,324.56s-34.87,1.05-33.38,56.03c1.5,55.53,10.17,88.27,10.17,88.27,0,0,19.37,6.78,41.63,3.29,22.26-3.49,43.61-9.6,43.61-9.6l-.46-10.21s-33.53,9.44-55.86,10.23c-22.33.79-31.05-1.16-31.05-1.16"/>
      <path class="cls-5" d="M721.33,324.21c-6.48.2-13.18,3.57-18.05,7.62-14.05,11.69-16.8,31.76-16.36,48.95.62,24.28,2.68,48.64,6.91,72.58.85,4.82,1.79,9.64,2.93,14.4.15.62.12,1.21.7,1.49.89.43,2.01.62,2.96.88,1.9.51,3.81.96,5.74,1.35,5.9,1.2,11.92,1.88,17.94,2,7.72.16,15.26-.91,22.84-2.29,11.56-2.11,23.05-4.74,34.38-7.85.6-.16,1.2-.33,1.8-.5.21-.06.66-.2.65-.48-.15-3.4-.3-6.81-.46-10.21-.01-.26-.71-.12-.8-.09-9.59,2.7-19.35,4.93-29.14,6.79-7.79,1.48-15.66,2.75-23.58,3.25-8.12.51-16.36.51-24.49,0-2.29-.14-4.59-.33-6.86-.64-.57-.08-1.14-.16-1.71-.26-.12-.02-.68-.13-.46-.09-.31-.07-.76-.04-1.02.16-.1.08-.52.38-.15.46,2.34.52,4.78.71,7.17.9,7.87.62,15.79.58,23.67.31,15.31-.52,30.56-3.81,45.41-7.39,3.79-.92,7.57-1.86,11.32-2.92l-.8-.09c.15,3.4.3,6.81.46,10.21l.65-.48c-8.14,2.33-16.4,4.28-24.68,6.06-7.43,1.59-14.96,3.19-22.53,4.01-7.06.76-14.21.59-21.25-.3-4.48-.57-8.94-1.42-13.29-2.62-.87-.24-1.83-.43-2.65-.8-.2-.09-.06.19-.12-.22-.18-1.14-.55-2.27-.8-3.39-.54-2.43-1.04-4.86-1.51-7.31-4.03-20.93-6.17-42.24-7.25-63.51-.99-19.59-2.22-42.92,11.85-58.67,3.38-3.78,7.58-6.84,12.29-8.73,1.55-.62,3.16-1.12,4.8-1.47.39-.08,1.06-.2,1.57-.28.21-.03.42-.06.63-.08.32-.04.07-.01.32-.03.13-.01.25-.02.38-.02.46-.01,1.56-.72.6-.69h0Z"/>
    </g>
  </g>
  <g id="Layer_3" data-name="Layer 3">
    <g class="cls-39">
      <polygon class="cls-41" points="645.38 -24.74 -46.62 712.26 -52.9 -22.78 645.38 -24.74"/>
      <path class="cls-32" d="M260.39,242.86c3.91,1.75,31.6,16.4,38.48,48.31,6.87,31.91,3.76,132.64,6.45,160.57,3.59,32.56,3.99,63.8,5.45,105.59l-3.96,81.1-25.67,2.75s-15.58-197.7-28.32-242.47c-12.74-44.77,7.57-155.84,7.57-155.84Z"/>
      <path class="cls-17" d="M206.06,209.93l-69.44-3.71-11.7,23.54s19.28,18.17,21.32,19.09c2.04.92,49.42,13.08,49.42,13.08,0,0,54.56-15.62,53.82-15.51-.74.1-43.42-36.48-43.42-36.48Z"/>
      <path class="cls-17" d="M131.95,153.89s9.32,27.2-4.33,54.91c-1.31,2.66-15.67,8.63-15.67,8.63l23.11,7.58c15.83,3.67,51.25,3.75,66.58-.96l12.83-7.15s-16.13-3.58-16.9-6.99c-.77-3.41,2.23-29.09,2.23-29.09"/>
      <path class="cls-34" d="M130.66,166.59c0,.09.02.16.03.24-.04-.1-.06-.19-.03-.24Z"/>
      <path class="cls-17" d="M191.11,212.87l27.71-2.38,13.72-3.82c1.41-.04,7.78-14.41,8.65-16.26,2.71-5.74,5.3-13.44,6.84-19.61,1.65-6.62,5.5-12.47,6.11-20.36.45-5.78.28-9.81-3.26-19.03-.9-2.34-1.04-4.72-.57-7.3.99-5.45,1.14-11.77,2.31-19.06.09-.57.63-3.35.37-3.95,0,0-.16-30.16-6.11-40.67-5.95-10.51-14.31-15.06-22.32-16.72-8.02-1.66-31.32.87-31.32.87l-32.51-3.1-26.8,14.88-12.36,34,3.84,38.6,5.77,34.37"/>
      <path d="M227.3,125.83s7.01-7.3,12.24-7.89c7.63-.86,9.63.82,12.41,4.27,0,0-5.08-3.56-10.44-2.81-5.12.72-14.21,6.43-14.21,6.43Z"/>
      <path d="M201.45,125.9s-10.59-6.56-15.72-6.59c-7.49-.05-16.31,4.65-18.64,8.38,0,0,11.62-6.9,16.89-6.71,5.04.17,17.47,4.93,17.47,4.93Z"/>
      <path d="M203.12,91.19c.41,1.78.81,3.56,1.22,5.35.31,1.36,1.11,4.44,1.41,5.8-4.85-.09-9.37-.85-12.44-.66-6.1.38-12.43.39-18.17,2.62-2.75,1.07-5.09,2.33-7.15,4.25-.65.61-2.24,2.95-3.47,2.72-.51-.09-.26-2.46-.23-2.7.53-4.77,4.11-7.53,8.78-9.72,9.51-4.45,19.62-6.54,30.06-7.68"/>
      <path d="M255.54,101.19s-2.28-1.75-2.3-1.77c-6.37-4.95-13.71-7.66-21.5-9.47-.69,1.69-1.37,3.39-2.06,5.09-.52,1.29-1.53,3.6-2.05,4.89,3.74.25,7.12.11,9.44.5,4.61.79,9.48,1.55,13.43,4.11.31.2,1.98,1.33,2.28,1.54,2.31-1.79,3.2-4.28,2.76-4.89Z"/>
      <path class="cls-29" d="M206.43,185.86l19.66-1.6s-4.42,7.78-9.23,7.92c-3.01.09-7.13-3.04-10.44-6.32Z"/>
      <g>
        <path class="cls-6" d="M221.3,156.8c-2.21,1.27-5.64,1.09-7.94-.28-.51-.3-2.17.05-1.46.48,3.04,1.8,7.96,1.84,10.81.2.28-.16.22-.39-.14-.5-.38-.12-.97-.07-1.27.1"/>
        <path class="cls-6" d="M210.91,156.37c-1.53-.69-3.23-1.02-4.92-1.1-.25-.01-.56.09-.74.26-.14.13-.16.31.03.41.79.44,1.79.59,2.7.55.29-.01.66-.1.82-.36.14-.24-.14-.38-.36-.37-.75.04-1.53-.09-2.18-.45-.24.23-.48.45-.72.68,1.51.07,3.03.39,4.4,1,.27.12.66.03.89-.13.18-.11.36-.37.09-.5"/>
        <path class="cls-6" d="M204.21,156.78c-1.98,0-4.32-.8-5.34-2.3-1.53-2.25-.27-5.85,2.15-7.39.26-.17.12-.37-.16-.42-.36-.07-.77.08-1.05.25-2.11,1.34-3.42,4.29-3.03,6.43.36,2,2.29,3.35,4.67,3.87.71.15,1.46.25,2.2.25.3,0,.83-.11.97-.35.14-.25-.14-.34-.42-.34"/>
        <path class="cls-6" d="M224.89,155.67c-.11-.23.08-.39.24-.39.53,0,1.07-.17,1.52-.56.18.21.36.43.54.64-1.06.15-2.12.54-3.06,1.22-.19.14-.46.06-.64-.08-.13-.11-.27-.36-.09-.49"/>
        <path class="cls-6" d="M223.4,156c1.05-.76,2.23-1.18,3.42-1.35.17-.02.4.06.54.23.1.13.13.3,0,.41"/>
        <path class="cls-6" d="M229,155.82c1.28-.09,2.77-1.01,3.35-2.55.89-2.32-.08-5.03-1.73-6.44-.18-.15-.09-.36.08-.43.23-.08.5.04.69.2,1.43,1.24,2.4,3.29,2.25,5.45-.14,2.02-1.33,3.46-2.85,4.09-.45.19-.94.32-1.42.35-.19.01-.55-.07-.65-.31-.1-.24.07-.35.25-.36"/>
      </g>
      <path class="cls-2" d="M181.78,84.17s30.2-5.44,51.14-1.99"/>
      <g>
        <g>
          <path d="M246.63,57.81c-.31.88-.32,1.81.41,2.29.44.28,1.11.45,1.59.67-.39-1.21-1.02-2.3-2-2.95Z"/>
          <path d="M245.9,57.9c-.24.69-.34,1.51.1,2.14.45.65,1.37.78,2.05,1.08.26.12.61.07.86-.05.17-.08.51-.27.44-.5-.4-1.23-1.06-2.38-2.15-3.11-.12-.08-.35-.07-.48-.06-.18.02-.4.09-.55.19-.11.07-.24.17-.27.31-.03.13.05.2.15.27,0,0,.1.07.06.04-.04-.03.05.04.06.04.06.04.11.09.17.14.11.09.21.19.3.29.2.21.38.44.53.68.08.13.13.21.19.32.07.13.13.26.2.39.13.29.24.58.34.88l1.3-.55c-.35-.16-.71-.26-1.06-.41-.16-.07-.32-.14-.47-.23-.02-.01-.04-.02-.05-.03.03.03.04.03.01,0-.03-.02-.06-.05-.09-.08-.06-.05-.11-.11-.16-.17-.02-.03-.04-.05-.05-.08.04.07-.01-.03-.02-.04-.03-.07-.06-.14-.08-.22s-.04-.15-.05-.23c0-.04,0-.08-.01-.12,0,0,0-.13,0-.06,0-.35.09-.7.2-1.03.04-.11-.06-.22-.15-.27-.13-.07-.34-.08-.48-.06-.3.04-.71.18-.82.5Z"/>
        </g>
        <g>
          <path d="M247.88,53.35c-.64-.89-2.09-.85-2.74-1.73-.74-1,0-2.45-.38-3.63-.5-1.57-2.55-1.88-4.2-1.91.95-1.3.15-3.46-1.42-3.83-.63-.15-1.38-.08-1.83-.55-.66-.7-.13-2.1-.91-2.67-.53-.39-1.28-.11-1.92-.2-.17-.38-.33-.77-.5-1.15-.16-.06-.3-.12-.46-.18.01-.81.29-1.78-.13-2.47-.43-.72-1.45-.88-2.37-1.06.08-.24.22-.46.44-.65-.66.33-1.31.31-1.95.11-.19-.17-.3-.4-.29-.73v.63c-2.11-.86-4.15-3.63-6.59-3.42-.95.08-1.79.62-2.71.84-2.4.58-5.07-1.48-5.12-3.95-2.3,1.49-5.19,2.01-7.87,1.42l-.46.18c-1.47-1.5-3.76-2.84-4.96-2.46-1.82.58-3.57,1.78-5.46,1.51-2.26-.33-4.1-2.7-6.33-2.23-1.31.28,2.06,1.54.74,1.7-1.89.23-3.44-1.78-5.34-1.8-2.4-.03-4.03,3.03-6.42,2.88-1.54-.1-2.71-1.52-4.23-1.78-3.03-.52-5.66,3.68-8.53,2.59-1.23-.47-1.98-1.81-3.23-2.23-2.9-.97-4.6,4.23-7.65,4.1-1.88-.08-3.48-1.95-5.32-1.56-2,.42,1.17,2.35-.86,2.66-1.13.18-2.24-.53-3.38-.44-3.11.24-3.86,4.74-6.81,5.76-1.36.47-2.97-.12-4.25.54-1.58.81-1.91,3.09-3.17,4.23-.16.11-.32.23-.48.34-.09.05-.18.1-.27.13-1.28.51-2.82-.22-4.07.34-2.01.9-2.08,4.47-4.26,4.72-.98.11-2.12-.56-2.88.07-.75.61-.36,1.79-.35,2.75.02,1.93-2.15,3.54-3.99,2.96-.13.81-.45,3.3-.76,5.6l.03-1.08c-.73-.78-2.13,0-2.45,1.01-.32,1.02-.03,2.12-.12,3.19-.19,2.26-2.34,4.18-4.6,4.11,1.88,2.64,3.68,6.58,1.27,8.76-.58.53-1.35.85-1.84,1.47-.79,1.01-.57,2.55.18,3.6.74,1.05-.54,1.36.57,2-1.71,1.75-3.5,4.5-1.92,6.37.87,1.03-1.74,1.43-1.63,2.77.13,1.57.35,2.55-.4,3.93-.62,1.15-.04,2.65.96,3.49,1,.84-1.66,2.07-.39,2.38.69,1.69.06.5-.84,2.09-.8,1.4.32,5.13,1.91,5.43s1.18-.69,2.42.35c-1.61,1.09-3.43,2.88-2.61,4.64.79,1.67,3.11,1.5,4.91,2.11.15.84.31,1.7.48,2.61-.89.7-2.15,1.3-2.54,2.35-.42,1.11.37,2.39,1.43,2.93.88.45,1.88.52,2.87.52,2.56,4.24,7.81,14.26,12.28,22.96l11.94-.35.11.71c.86.03,1.73.05,2.59.08.27,0,.56.01.78-.15.54-.39.15-1.22-.07-1.85-.52-1.47.21-3.04.75-4.5.55-1.46.85-3.3-.25-4.39-.58-.58-1.53-.92-1.68-1.72-.2-1.05,1.07-1.7,1.72-2.55,1.02-1.33.16-3.6-1.48-3.93,0,0,1.71-2.19.73-6.18-.98-3.99-2.5-8.23-2.5-8.23h0c.23-.31.44-.62.59-.97,1.07-2.54-1.4-5.48-.55-8.11.38-1.18,1.39-2.09,1.67-3.3.54-2.3-1.75-4.42-1.68-6.78.07-2.66,3.05-5.13,1.86-7.5-.58-1.16-2.01-1.73-2.53-2.92-.91-2.07,1.27-5.04-.47-6.49-.6-.5-1.51-.57-2.02-1.17-1.03-1.2.41-2.87.91-4.36.52-1.55-.07-3.23,0-4.87.06-1.63,1.44-3.52,2.97-2.96-.68-1.57-.51-4.98.38-7.24l5.01-2.14c.18-.04.34-.11.49-.21l14.66-6.26c.73.12,1.46.16,2.17-.03.8-.21,1.49-.9,1.77-1.65l1.87-.8c.93.35,1.89.6,2.89.59,1.75-.01,3.63-1.07,3.97-2.79.65,2.41,4.47,3.08,5.89,1.02.57-.82.91-2,1.88-2.19.44-.08.88.07,1.29.26,1.32.59,3.14,3.49,4.46,5.67.28.91.64,1.62,1.2,1.97.42.07,3.11.54,6.18,1.04-.34.63-.13,1.38.77,1.62,1.2.32,2.93-.4,3.78.24.94.7-.73,1.88-.15,2.73.36.54,1.42.66,2.12,1.03.84.43,1.14,1.18,1.93,1.65.8.48,2.08.58,3.09.26,1.1.03,2.55-.48,2.94.26.1.2.06.42.06.63,0,.84.72,1.64,1.76,1.93,1.04.29,2.31.05,3.07-.58.74-.61.97-1.5,1.76-2.08.25-.18.55-.33.84-.47.29.24.64.43,1.05.55,1.04.29,2.31.05,3.07-.58.74-.61.97-1.5,1.76-2.08.66-.48,1.7-.73,2.01-1.38.49-1.03-1.28-2.23-.41-3.12.79-.81,2.58-.15,3.75-.63.45-.19.7-.52.79-.88,2.2-1.13,4.48-3.73,7.44-4.72.08.02.15.04.23.07-.06.38-.18.75-.09,1.12.41,1.67,3.58,0,4.59,1.39.76,1.05-.5,2.92.55,3.67.5.36,1.19.15,1.8.16,1.06,0,2.08.74,2.42,1.75.25.75.16,1.64.64,2.27.58.76,1.7.79,2.6,1.13.28.1.54.24.77.4.13-.38.31-.74.51-1.06.68-1.04,1.47-2.4.74-3.41Z"/>
          <path d="M248.56,53.08c-.69-.79-1.82-.8-2.55-1.51-.97-.93-.21-2.47-.49-3.61-.46-1.93-2.87-2.18-4.51-2.23l.26.22c.76-1.22.39-2.91-.82-3.71-.68-.45-1.6-.25-2.24-.69-.87-.59-.32-1.78-.89-2.55-.4-.53-.95-.47-1.54-.55-.76-.1-.72-.38-1.08-1-.03-.06-.11-.07-.14-.11l-.23-.09-.04-.62c0-.82.18-1.63-.52-2.24-.61-.53-1.51-.64-2.28-.79l.26.22.39-.57c.38-.42-.8-.23-.93-.19-.87.19-1.28-.01-1.25-.6-.04-.36-1.45-.05-1.45.39v.63c.44-.17.87-.33,1.31-.5-2.34-1.04-4.07-3.64-6.87-3.45-1.65.11-3.03,1.33-4.71.69-1.54-.59-2.59-2.03-2.7-3.66-.03-.41-1.14.05-1.29.14-1.63,1.01-3.5,1.49-5.42,1.35-1.04-.07-1.64-.29-2.6.09l.94-.05c-1.32-1.3-3.31-2.86-5.29-2.56-1.02.15-1.98.7-2.93,1.08-1.84.73-3.11.42-4.76-.52-1.41-.8-3.38-1.93-5.03-1-.92.52.09,1.39.78,1.64l.09.09c.35-.21.35-.32,0-.32-.17-.14-.66-.22-.87-.31-.51-.24-.98-.54-1.48-.79-.84-.42-1.69-.7-2.63-.61-1.99.19-3.17,1.65-4.83,2.52-1.41.74-2.51-.23-3.73-.87-.84-.45-1.68-.68-2.63-.59-1.85.17-3.33,1.32-4.9,2.19-1.17.65-2.09.8-3.23-.04-.86-.64-1.54-1.53-2.63-1.8-1.4-.34-2.79.36-3.83,1.24-1.34,1.14-2.62,3.33-4.61,2.72-1.87-.58-3.51-2.09-5.56-1.12-.38.18-.72.4-.74.85s.65,1.03.54,1.43c-.1.35-1.26-.1-1.63-.18-.41-.09-.81-.15-1.23-.15-.8.01-1.6.24-2.3.64-1.53.87-2.35,2.51-3.46,3.82-.91,1.08-1.74,1.5-3.19,1.5-1.1,0-2.18.05-3.16.61-.82.47-1.33,1.22-1.78,2.02-.34.62-.63,1.3-1.08,1.85-.62.76-1.36.74-2.27.7-2.04-.1-3.54.49-4.57,2.29-.41.72-.86,2.22-1.68,2.58-.5.22-1.38-.14-1.9-.15-.48,0-.98.08-1.42.28-.97.45-1.09,1.29-1.03,2.26.11,1.54-.37,4.02-2.6,3.46-.28-.07-1.24.02-1.31.42-.29,1.86-.51,3.73-.76,5.6l1.44-.31c.02-.76.2-1.29-.69-1.5s-1.92.22-2.54.8c-1.17,1.09-.65,2.7-.77,4.11-.16,1.86-1.6,3.65-3.57,3.68-.22,0-1.24.23-.98.6,1.26,1.81,2.7,4.23,2.34,6.54-.19,1.24-.95,1.89-1.91,2.6-.81.6-1.44,1.23-1.53,2.28-.04.47.03.94.18,1.39.16.47.59.9.69,1.37.07.33-.14.6-.1.9.03.26.3.55.27.79-.04.32-.91,1.09-1.1,1.36-.28.4-.53.81-.74,1.25-.42.89-.68,1.96-.32,2.91.33.85.91,1.03.07,1.75-.49.42-1.12.77-1.25,1.46-.18.95.23,1.94.04,2.92-.21,1.08-.91,1.85-.63,3,.09.38.26.73.47,1.05.24.37.9.8.88,1.27-.03.54-.8.83-.91,1.34-.13.55.5.6.55,1.15.04.41.08,0-.23.39-.23.29-.53.48-.74.81-.84,1.4-.25,3.57.65,4.82.45.63.99.98,1.77,1.05.39.03.76,0,1.14-.09.12-.03.24-.11.36-.11-.38,0-.03.14.34.43l.11-.32c-1.43,1.01-3.69,2.88-2.77,4.89.36.79,1.12,1.22,1.92,1.48s2.43.21,2.94.85c.26.33.5,1.56.44,1.94-.11.65-.7.84-1.21,1.25-.67.53-1.29,1.17-1.34,2.06-.14,2.55,2.94,3.05,4.82,3.08l-.42-.14c4.46,7.43,8.32,15.26,12.28,22.96.08.15.28.15.42.14,3.98-.12,7.96-.23,11.94-.35l-.42-.14.11.71c.02.1.2.14.26.14,1.22.04,3.39.53,4.44-.38.51-.44.41-.97.22-1.56-.37-1.16-.4-2.11-.03-3.29.5-1.61,1.49-3.33.95-5.07-.47-1.5-3.29-2.21-1.8-3.94.94-1.09,2.01-1.81,1.59-3.42-.15-.58-.49-1.13-.96-1.51-.23-.18-.47-.25-.71-.4-.39-.24-.14.43-.11.06.02-.23.34-.6.44-.82.26-.61.42-1.26.5-1.92.21-1.8-.23-3.51-.7-5.23-.51-1.83-1.08-3.65-1.69-5.45-.1-.28-.33-.68-.34-.98,0-.05-.14-.13-.14-.13-.11.43.34-.11.34-.12.18-.24.32-.53.42-.82.56-1.52-.05-3.15-.43-4.63-.22-.85-.44-1.76-.33-2.65s.64-1.68,1.12-2.46c.97-1.58.9-2.94.19-4.62-.73-1.72-1.53-3.25-.87-5.14.53-1.52,1.66-2.9,1.82-4.53s-.93-2.4-1.96-3.42c-1.55-1.53-.91-3.17-.66-5.08.09-.7.13-1.45-.27-2.07s-1.07-.82-1.71-1.14c-2.35-1.18.18-3.84.4-5.58.14-1.14-.14-2.28-.17-3.42-.02-.74.29-3.49,1.65-3.13.21.06,1.47-.09,1.31-.5-.85-2.2-.43-5,.38-7.16l-.45.33c6.44-2.75,12.88-5.5,19.32-8.25.22-.09.45-.23.68-.29.05-.01.1-.06.15-.06-.7.07.13.21.33.21,1.72.03,3.34-.6,4.09-2.23l-.45.33,1.87-.8-.85.09c2.74.98,7.25.89,8.16-2.61l-1.44.31c.6,1.86,2.62,2.59,4.44,2.33.87-.12,1.75-.45,2.41-1.05.87-.8,1.21-2.86,2.66-1.9,1.12.74,1.96,2.14,2.68,3.23.39.59.81,1.2,1.14,1.82.3.56.45,1.19.82,1.72.56.8,1.24.78,2.13.93,1.63.28,3.25.55,4.88.82l-.26-.22c-.53,1.25.56,1.85,1.67,1.92.63.04,1.25-.1,1.88-.11,1.28-.02,1.38.5,1.01,1.46-.43,1.11-.24,1.63.9,2.08.91.36,1.5.63,2.2,1.34.5.5.99.88,1.68,1.07,1.27.35,2.57.02,3.84-.11.61-.06,1.12-.17,1.35.51.09.28,0,.63.12.94.24.61.81,1.05,1.4,1.29,1.16.49,2.6.32,3.72-.18,1.47-.66,1.93-2.27,3.35-2.98l-1.11.12c1.69,1.23,4.45.9,5.82-.7.45-.52.74-1.19,1.3-1.62.51-.39,1.17-.54,1.66-.95.78-.65.63-1.32.23-2.16-.3-.63-.71-1.32.4-1.54.55-.11,1.17.03,1.74-.05.98-.14,1.52-.51,2.16-1.2.72-.78,1.91-1.38,2.78-2.05,1.34-1.03,2.69-2.03,4.3-2.61l-.85.09s-.01,1.03.04,1.18c.09.26.25.44.48.58.49.31,1.17.27,1.72.26.83-.01,2.05-.25,2.49.68.4.84-.16,1.82,0,2.69.14.74.72,1.05,1.44,1.1s1.48-.15,2.17.27c.53.33.91.85,1.08,1.45.26.89.17,1.87.98,2.49.87.67,2.09.65,3.03,1.21.33.2,1.24.02,1.4-.37.56-1.44,2.16-2.93,1.26-4.55-.23-.41-1.61.1-1.45.39.86,1.55-.7,3.01-1.25,4.39l1.4-.37c-.85-.51-1.8-.59-2.67-1.01-1.17-.57-.93-1.69-1.29-2.72-.28-.79-.92-1.4-1.69-1.69-.93-.34-2.6.17-2.94-.96-.23-.76.28-1.64.08-2.43-.15-.62-.61-.96-1.2-1.13-.63-.18-1.31-.12-1.95-.1-1.29.04-1.82-.31-1.56-1.7.02-.1-.03-.16-.13-.19-.87-.25-1.73.24-2.5.63-1.14.57-2.18,1.32-3.19,2.09-.49.37-.97.75-1.46,1.11s-1.11.61-1.54.99c-.37.33-.48.78-1.03.87-.58.1-1.22-.03-1.81.04-.69.07-1.58.27-2.01.88-.54.76.12,1.46.38,2.19.49,1.35-1.29,1.63-2.08,2.34-.42.37-.68.85-1.02,1.29-.87,1.17-2.26,1.18-3.35.39-.29-.21-.84-.01-1.11.12-.46.23-.92.47-1.3.83-.44.41-.66.96-1.07,1.39-.9.94-2.38,1.1-3.35.16-.7-.68-.27-1.16-.63-1.86s-1.5-.55-2.14-.49c-1.57.15-3.23.63-4.51-.55-.45-.42-.8-.89-1.35-1.19-.49-.27-1.08-.33-1.57-.61-1.34-.76.03-1.51-.06-2.53-.2-2.2-6.03.46-4.86-2.33.07-.16-.16-.2-.26-.22-1.53-.25-3.05-.5-4.58-.77-1.09-.19-1.66-.13-2.19-1.22-1.05-2.13-2.33-4.71-4.24-6.24-1.41-1.12-3.37-.91-4.37.59-.8,1.19-1.27,2.4-2.98,2.02-1.07-.24-1.92-.97-2.26-2.02-.13-.4-1.36-.01-1.44.31-.44,1.69-1.95,2.49-3.64,2.29-.99-.12-1.81-.73-2.8-.41-.56.18-1.12.46-1.65.7-.16.07-.35.12-.49.24-.19.17-.14.25-.3.49-.52.78-1.25,1.06-2.18.98-1.8-.14-3.77,1.17-5.38,1.86-4.37,1.86-8.73,3.73-13.1,5.59l-2.26.97c-.35.15-.8.27-1.03.58-.67.85-.71,2.74-.78,3.77-.07,1.18-.05,2.42.39,3.54l1.31-.5c-1.37-.36-2.8.22-3.59,1.39-1.28,1.88-.27,3.98-.52,6.04-.19,1.54-2.11,3.52-1.21,5.07.49.85,1.53.83,2.2,1.43.79.71.69,1.75.53,2.71-.25,1.53-.73,3.13.36,4.45.52.63,1.24,1.07,1.75,1.71.74.94.67,2.03.27,3.1-.62,1.67-1.85,3.18-1.82,5.04.04,2.01,1.63,3.6,1.75,5.58.08,1.36-.73,2.29-1.35,3.4-.51.93-.65,1.89-.51,2.94.32,2.39,1.75,4.65.15,6.89-.09.13-.07.21.07.28-.25-.11.06.43.14.67.19.55.38,1.11.56,1.67.57,1.76,1.11,3.54,1.56,5.34.5,2,.79,4.68-.56,6.46-.09.11-.08.23.07.28.95.26,1.6,1.07,1.74,2.04.18,1.27-.62,1.86-1.41,2.69-.5.53-.95,1.17-.63,1.92.38.89,1.53,1.14,2,1.99,1.17,2.13-.78,4.53-1.05,6.62-.06.51-.05,1.01.08,1.51.12.45.67,1.33.1,1.66-.19.11-1.53.04-1.73-.05-.22-.1-.04.01-.22-.23-.05-.06-.04-.27-.06-.36-.02-.15-.33-.14-.42-.14-3.98.12-7.96.23-11.94.35l.42.14c-2.98-5.78-5.97-11.56-9.07-17.27-.58-1.07-1.17-2.14-1.77-3.21-.4-.7-.85-2.04-1.48-2.55-.4-.32-1.33-.1-1.83-.2-.92-.18-1.8-.63-2.26-1.5-.97-1.84.98-2.85,2.21-3.78.07-.05.18-.15.16-.25-.16-.87-.32-1.74-.48-2.61-.03-.06-.07-.1-.14-.11-1.36-.43-3.37-.37-4.4-1.47-1.7-1.81.67-3.93,2.08-4.92.09-.06.25-.21.11-.32-.42-.33-.78-.58-1.33-.56-.65.03-.99.36-1.64-.04-1.1-.68-1.57-2.58-1.58-3.78,0-.97.33-1.35.99-2,.33-.32.42-.29.36-.78-.04-.29-.3-.54-.38-.74-.19-.02-.25-.1-.18-.25.06-.11.14-.22.23-.32.23-.34.65-.65.7-1.1.06-.56-.45-.79-.76-1.19-.83-1.06-.71-2.04-.24-3.2.33-.82.39-1.6.33-2.47-.06-.97-.23-1.55.57-2.22.32-.27.8-.51,1-.9.32-.61-.16-.86-.42-1.41-.94-2,.95-4.27,2.23-5.62.05-.06.1-.17.02-.23-.66-.46-.2-.77-.29-1.39-.11-.77-.79-1.36-.89-2.19-.26-2.15,1.97-2.54,2.91-4.06,1.61-2.61-.41-6.04-1.92-8.19l-.98.6c2.02-.03,4.03-1.02,5.06-2.81.69-1.2.53-2.35.54-3.67,0-.46.01-.98.2-1.4.1-.23.6-.88.95-.51.11.12-.02.84-.03,1.02,0,.32,1.39.06,1.44-.31.25-1.87.47-3.74.76-5.6l-1.31.42c1.65.41,3.57-.17,4.63-1.54.52-.66.71-1.42.66-2.25-.03-.49-.32-1.47,0-1.86.41-.5,1.29-.1,1.84-.09,1.6.02,2.66-.89,3.4-2.22.42-.76.75-1.69,1.4-2.29.9-.84,2.58-.22,3.74-.46,1.9-.39,2.61-1.85,3.49-3.4.51-.9.92-1.58,2.11-1.73.59-.07,1.2.02,1.79-.02.92-.07,1.8-.32,2.58-.82,1.52-.95,2.33-2.59,3.48-3.91.33-.38.71-.81,1.17-1.03.7-.34,1.42-.07,2.13.09.88.2,1.81.31,2.68-.03.4-.16.81-.37.84-.84.03-.45-.66-1.03-.53-1.43.21-.69,2.49.65,3,.87.84.38,1.72.6,2.65.46,1.6-.23,2.79-1.31,3.9-2.4.55-.55,1.15-1.3,1.88-1.63,1.21-.55,2.28.94,3.14,1.58,1.4,1.06,3.04.92,4.58.24,1.9-.83,3.77-2.92,5.96-1.91,1.83.85,3.11,1.93,5.21,1.19,2.01-.71,3.6-3.25,5.88-2.27,1.08.47,2.02,1.24,3.21,1.43.56.09,1.63.15,2.09-.31.37-.37.13-.56-.23-.86-.24-.2-.57-.35-.78-.6-.16-.19-.04.06-.03.06.38.04.78.2,1.13.35,1.17.52,2.19,1.35,3.43,1.73,1.09.34,2.23.25,3.31-.05,1.26-.35,2.82-1.52,4.12-1.23s2.62,1.4,3.57,2.34c.2.2.74.03.94-.05l.46-.18-.85.09c3.15.62,6.29.01,9.02-1.67l-1.29.14c.2,2.84,3.04,4.62,5.72,4.07.85-.17,1.61-.6,2.46-.73,1.02-.16,1.86.3,2.69.85,1.24.82,2.32,1.84,3.68,2.45.3.14,1.31-.08,1.31-.5v-.63c-.48.13-.96.26-1.45.39.16,1.51,2.27,1.02,3.23.64l-.93-.19c-.31.35-.3.33-.5.74-.08.16.17.2.26.22.84.16,1.91.31,2.24,1.23.24.67.02,1.46-.01,2.16.03.06.07.1.14.11.5.2.62.76.82,1.22.04.1.17.13.26.14.59.03,1.05-.08,1.57.24.57.35.51.64.59,1.26.12.87.32,1.44,1.22,1.7,1,.29,1.89.23,2.48,1.27.47.82.44,1.78-.05,2.57-.09.14.18.22.26.22.98.03,2.03.09,2.91.58,1.14.65,1.17,1.7,1.1,2.88-.06.92-.03,1.82.78,2.41.74.54,1.69.61,2.32,1.33.27.31,1.64-.2,1.36-.52Z"/>
        </g>
        <g>
          <path d="M249.17,61.64c.18-.43-.11-.68-.54-.87.12.38.22.77.31,1.16.1-.08.18-.17.23-.28Z"/>
          <path d="M249.89,61.53c.05-.11.07-.24.06-.37-.01-.11-.07-.2-.13-.29-.15-.19-.38-.3-.6-.4l-.13-.02c-.08,0-.17,0-.25,0-.16.02-.33.05-.48.11-.1.04-.21.09-.3.15-.06.04-.19.15-.16.24.12.38.22.77.31,1.16l.04.06.09.04c.12.04.25.03.38.02.13-.01.26-.04.38-.08s.29-.09.4-.18c.16-.13.3-.26.39-.45.04-.1-.05-.16-.13-.18-.14-.05-.33-.03-.47,0-.19.03-.38.08-.55.18-.11.06-.24.13-.29.25-.02.03-.03.07-.05.1l.06-.08c-.05.07-.1.12-.17.17l.1-.08h-.01c.43-.04.86-.08,1.29-.13-.08-.39-.18-.78-.31-1.16-.44.17-.88.33-1.31.5.02,0,.04.02.06.03l-.09-.04c.17.08.34.18.45.33l-.04-.06c.07.1.09.2.08.32v-.08c0,.07-.02.13-.05.2-.04.1.05.16.13.18.14.05.33.03.47,0,.19-.03.38-.08.55-.18.11-.06.24-.13.29-.25Z"/>
        </g>
        <g>
          <path d="M248.94,61.93c-.17.14-.37.25-.53.4-.51.48-.41,1.35-.03,1.95.27.42.64.76,1.01,1.1-.07-.55-.12-1.1-.17-1.64-.06-.59-.14-1.21-.27-1.81Z"/>
          <path d="M248.37,61.86c-.33.26-.68.45-.88.84-.17.31-.19.69-.13,1.02.14.81.78,1.38,1.34,1.92.19.18.64.06.85,0,.18-.06.58-.2.55-.45-.14-1.15-.21-2.31-.44-3.45-.02-.1-.19-.14-.27-.15-.17-.02-.37,0-.53.05-.17.05-.35.11-.49.22-.08.06-.18.15-.16.26.24,1.14.3,2.3.44,3.45l1.4-.46c-.51-.49-1.07-.97-1.23-1.69-.06-.29-.07-.58.05-.85.03-.06.04-.09.07-.13.02-.03.05-.06.07-.09.02-.02.02-.02,0,0l.04-.04c.15-.12.3-.21.45-.33.07-.05.19-.16.16-.26s-.18-.14-.27-.15c-.33-.03-.76.06-1.02.27Z"/>
        </g>
        <g>
          <path d="M249.81,65.82c-.14-.15-.28-.3-.43-.44.25,2.04.74,4.07,2.34,5.25,1.65-1.65-.36-3.06-1.91-4.81Z"/>
          <path d="M250.47,65.49c-.17-.19-.35-.37-.54-.55-.21-.2-.65-.14-.88-.02-.26.13-.43.36-.39.65.25,2.03.78,4.19,2.51,5.49.37.27.88.09,1.17-.2.37-.38.68-.87.73-1.41.05-.5-.12-.98-.37-1.4-.56-.98-1.49-1.73-2.23-2.56-.25-.28-.67-.29-.99-.13-.24.12-.58.51-.33.79.69.77,1.49,1.46,2.08,2.32.11.16.21.33.27.47.03.09.06.18.08.27.02.08.03.18.03.19,0,.42-.19.68-.49.99l1.17-.2c-1.55-1.16-1.94-3.19-2.17-5l-1.28.63c.11.11.22.22.32.33.25.28.67.29.99.13.24-.12.58-.51.33-.79Z"/>
        </g>
      </g>
      <path d="M161.86,118.63l2.27,5.77c1.38,4.5,5.3,13.35,6.99,15.73,2.38,3.33,26.69,3.37,31.3.34,4.61-3.03,6.54-17.03,7.64-20.31l9.72.03c1.08,4.11,4.8,17.1,6.74,18.78,1.93,1.68,13.04.77,14.29.67,1.04-.1,2.49-.23,4.07-.45,4.19-.53,9.25-1.51,10.73-3.14,2.21-2.43,4.3-11.37,6.05-19.83l.29-1.32c.06-.32.15-.54.15-.64h0l.31-1.52c-14.31-5.92-32.57-3.85-43.26,4.92l.1.14-9.49-.07c-11.05-6.53-29.72-9.41-42.66-3.59h0l-40.65,9.01.07,3.64,35.33-8.16ZM227.59,137.57c-1.21-1.05-4.1-10.13-6.1-17.22,9.31-7.42,25.76-9.26,38.52-4.68v.18c-.94,4.53-3.44,16.58-5.62,18.97-2.57,2.82-24.7,4.38-26.8,2.79v-.04ZM173.94,138.99c-3.64-6.53-6.69-13.37-9.11-20.45,11.47-5.97,32.09-4.06,42.88,2.12-1.37,5.88-2.94,16.13-6.25,18.29-4.76,3.12-26.03,2.16-27.53.05h0Z"/>
      <path d="M240.68,118.12c1.44-.8,3.35-.23,4.33.59.23.19.68.79.99,1.75.39,1.22-.06,2.63-.81,3.5-1,1.16-2.72,1.4-4.05.82-1.81-.79-2.45-2.93-2.05-4.5.08-.29.43-1.51,1.59-2.15"/>
      <path d="M188.27,120.5c-1.45-.72-3.74-.45-4.65.42-.22.2-.79.79-1.04,1.76-.32,1.24.2,2.62.97,3.45,1.04,1.11,2.72,1.26,3.99.61,1.72-.88,2.23-3.05,1.76-4.61-.09-.28.18-.85-.99-1.43"/>
      <path class="cls-29" d="M188.74,168.2c-1.13,1.08-2.33,2.32-2.39,3.88-.02.57.12,1.12.26,1.67.22.85.43,1.7.65,2.54.04.17.09.35.21.47.13.14.33.18.52.22.59.13,1.21.25,1.8.11.59-.14,1.15-.63,1.16-1.23,0-.25-.08-.51.01-.74.18-.45.81-.42,1.27-.56,1.17-.35,1.35-1.88,1.83-3,.64-1.52,2.11-2.55,3.65-3.14.78-.3,1.6-.52,2.3-.97.7-.45,1.28-1.22,1.21-2.05"/>
      <path class="cls-29" d="M239.21,166.57c1.2.99,2.49,2.15,2.65,3.7.06.56-.04,1.13-.14,1.68-.16.86-.31,1.72-.47,2.58-.03.17-.07.35-.18.48-.12.14-.32.2-.5.26-.58.17-1.19.34-1.79.24-.6-.1-1.19-.54-1.24-1.15-.02-.25.05-.51-.06-.74-.21-.44-.84-.36-1.31-.47-1.19-.27-1.48-1.78-2.03-2.86-.75-1.47-2.29-2.39-3.87-2.88-.8-.24-1.63-.4-2.37-.8-.73-.4-1.36-1.13-1.35-1.96"/>
      <path class="cls-17" d="M134.79,167.09c-11.94,12.77-15.38-7.87-15.38-7.87-9.11-10.19-9.49-21.38-9.44-29.04.05-7.66,8.47-7.84,8.47-7.84,7.17.53,10.5,4.25,17.32,28.15"/>
      <path class="cls-35" d="M129.92,146.26c-1.76-3.46-3.69-6.88-6.09-9.94-1.21-1.55-2.55-3.07-4.19-4.19-.64-.44-1.38-.86-2.15-.98-.36-.06-.7-.03-1.05.1-.53.2-.74.67-.97,1.16-1.55,3.17-1.3,6.94-.37,10.24.09.31,1.54-.08,1.45-.39-.75-2.66-1.05-5.52-.34-8.23.25-.94.6-1.97,1.19-2.76l-1.03.41c-.3.01.02.04-.12,0,.13.04.27.05.4.09.5.15,1.03.45,1.49.75,2.35,1.55,4.16,3.93,5.72,6.22,1.72,2.51,3.21,5.18,4.59,7.89.18.35,1.56-.17,1.45-.39h0Z"/>
      <path class="cls-35" d="M127.11,147.57c-5.38-.03-1.87,6.65-2.35,9.53-.02.13-.11.3-.12.43,0-.1-.09.18-.1.16l.58-.12-.08-.05c-.01-.07-.3-.33-.35-.4-.2-.28-.35-.59-.49-.9-.67-1.48-1.09-3.09-1.45-4.67-.45-1.97-.68-3.66-.53-5.65.17-2.22.62-5.57,2.9-6.65.9-.43.09-1.07-.61-.73-2.28,1.09-3.18,3.58-3.56,5.93-.27,1.69-.4,3.48-.11,5.18.34,1.97.78,3.94,1.44,5.82.32.91.74,2.3,1.62,2.86.74.47,1.72.08,2.11-.65.41-.77.23-1.8.11-2.62-.16-1.14-1.71-6.51.46-6.5.3,0,.82-.09.95-.42.11-.3-.1-.52-.42-.52h0Z"/>
      <g id="freepik--Character--inject-2">
        <path class="cls-32" d="M285.66,353.63l-17.86-88.82s12.58-13.32-5.76-21.01c-9.29-3.9-36.2-17.56-41.85-19.49,1.28,7.61,3.33,19.34-1.98,23.34-7.44,5.6-13.62,4.64-22.92,4.66-8.92.02-20.85-6.06-29.16-9.22-15.53-5.91-31.32-19.95-34.55-37.11l-20.06,19.4s-50.31,29.22-58.01,32.13c-7.7,2.92,17.87,183.51,17.87,183.51l-24.53,63.37c-1.95,8.06-25.1,89.06-8.13,136.77,0,0,163.7-57.82,181.46-57.65,20.63.2,63.91-8.99,69.37-18.7,5.46-9.71-3.89-211.19-3.89-211.19Z"/>
      </g>
      <path class="cls-23" d="M192.91,365.71c.06,0,.12,0,.18.02.03.23.13.48-.07.69-.04-.24-.07-.47-.11-.71Z"/>
      <path class="cls-23" d="M203.29,432.95c-.05.03-.11.06-.17.08"/>
      <path class="cls-15" d="M247.71,357.5c-.08,0-.17-.02-.25-.02.08-.04.16-.09.24-.13.03.05.04.1,0,.15Z"/>
      <path class="cls-15" d="M212.53,362.76c.08-.05.15-.11.23-.16.03.04.05.08.08.12-.1.01-.2.03-.3.04Z"/>
      <path class="cls-15" d="M246.96,357.56c-.11.02-.22.03-.33.05.1-.12.21-.13.33-.05Z"/>
      <path class="cls-32" d="M193.68,365.62c.08-.11.17-.13.28-.05-.09.02-.19.03-.28.05Z"/>
      <path class="cls-32" d="M34.11,463.15c-8.88,1.24-8.53-24.92-17.34-23.28-.77-5.87-1.29-11.42-1.52-16.91-.98-23.34-.53-108.58,10.46-144.59,5.14-38.5,105.85-72.39,105.85-72.39l-34.55,140.9-2.75,107.15c-14.95,4.05-44.81,6.97-60.15,9.12Z"/>
      <path class="cls-11" d="M78.26,262.14c8.28,1.3,12.39,10.8,14.69,17.82,2.59,7.9,3.95,16.29,4.5,24.58.44,6.52-.07,13.08-.52,19.59-.72,10.33-1.59,20.66-2.32,30.99-1.12,15.96-1.96,31.93-2.38,47.92,0,.34,1.44.11,1.45-.39.68-25.69,2.71-51.27,4.55-76.89.48-6.64,1.07-13.36.75-20.03-.39-8.16-1.68-16.42-4-24.26-2.33-7.84-6.57-18.58-15.82-20.03-.39-.06-1.69.58-.91.7h0Z"/>
      <path class="cls-32" d="M16.88,361.07s-3.04,52.83-2.8,55.6c1.12,13.05-4.48,39.9,10.77,67.36,13.11,23.61,40.06,30.75,71.3,10.34s-32.88-80.66-32.88-80.66l-46.39-52.63Z"/>
      <g>
        <path class="cls-32" d="M130.4,204.81s36,49.05,67.61,47.8c31.6-1.26,20.8-33.09,20.8-33.09h0l11.21,5.42s3.35,18.15-.59,25.18c-3.94,7.03-19.91,12.84-40.09,10.73-11.84-1.24-27.24-8.4-36.5-16.88-11.08-10.16-33.1-33.67-33.1-33.67l10.67-5.48Z"/>
        <path class="cls-5" d="M129.68,205c3.42,4.66,7.23,9.07,11.11,13.35,8.08,8.9,16.94,17.31,26.94,24.03,9.78,6.57,21.11,11.66,33.14,10.26,5.1-.59,10.33-2.17,14.22-5.66,3.04-2.74,4.9-6.46,5.69-10.45.69-3.49.66-7.09.19-10.61-.18-1.36-.43-2.71-.74-4.05-.17-.71-.28-1.6-.6-2.26-.05-.09-.06-.21-.1-.3-.47.15-.94.29-1.41.44,3.3,1.6,6.6,3.19,9.9,4.79.3.15,1.09.36,1.31.63-.02-.02.09.65.11.8.31,1.92.56,3.85.76,5.78.55,5.42,1.08,11.59-.75,16.82-1.68,4.81-6.78,7.51-11.27,9.19-7.38,2.76-15.49,3.48-23.31,3.16-7.96-.33-15.5-2.25-22.78-5.47-6.89-3.04-13.46-7.02-19-12.14-4.23-3.91-8.31-8.01-12.35-12.11-6.74-6.84-13.39-13.78-19.96-20.78-.12-.13-.24-.25-.36-.38l-.27.33c3.56-1.83,7.11-3.65,10.67-5.48.85-.44-.49-.35-.83-.18-3.56,1.83-7.11,3.65-10.67,5.48-.1.05-.41.19-.27.33,5.95,6.35,11.96,12.63,18.04,18.84,4.35,4.45,8.73,8.88,13.26,13.16,5.44,5.14,11.58,9.27,18.34,12.49,7.02,3.34,14.48,5.69,22.26,6.31,8.03.64,16.3.15,24.07-2.06,4.99-1.41,10.55-3.58,13.97-7.67,3.36-4.01,3.2-10.21,3-15.14-.11-2.73-.37-5.46-.73-8.17-.11-.84-.23-1.68-.37-2.52-.04-.25-.02-.81-.17-1.02-.18-.26-.79-.42-1.07-.55l-2.71-1.31c-2.1-1.02-4.21-2.03-6.31-3.05-.39-.19-.78-.38-1.17-.56-.2-.1-1.53.09-1.41.44,1.46,4.33,2.02,9.2,1.71,13.74-.26,3.81-1.29,7.63-3.49,10.8-2.8,4.03-7.23,6.39-11.96,7.37-11.91,2.48-23.46-2.17-33.37-8.49-9.92-6.32-18.69-14.4-26.71-22.97-3.03-3.24-5.96-6.58-8.78-10.01-1.41-1.71-2.66-3.69-4.18-5.3-.07-.07-.12-.16-.18-.24-.25-.34-1.55.25-1.45.39Z"/>
      </g>
      <path class="cls-40" d="M209.4,101.99c3.01.38,6.36-1.06,7.94-3.69,1.59-2.64,1.06-6.19-1.06-8.38-.27-.28-1.61.24-1.36.51,1.81,1.87,2.4,4.8,1.43,7.23-.97,2.41-3.42,4.03-6.02,3.7-.31-.04-.78.07-1.02.27-.22.17-.2.31.09.35h0Z"/>
      <path class="cls-31" d="M217.23,165.84c-6.54.15-20.87,5.1-23.71,8.1,0,0,6.67,9.28,21.84,8.94,15.17-.34,18.48-9.85,18.48-9.85,0,0-8.28-7.37-16.61-7.18Z"/>
      <path class="cls-13" d="M199.61,170.54s8.29-.91,14.91-1.06c6.62-.15,14.94.39,14.94.39,0,0,.94-5.39-11.06-5.12-12.01.27-18.79,5.8-18.79,5.8Z"/>
      <path class="cls-8" d="M217.25,180.24c-7.13-1.01-15.47-7.09-23.73-6.3,0,0,3.58,14.14,21.41,13.74,17.83-.4,18.91-14.65,18.91-14.65-8.3-.41-9.51,5.89-16.59,7.22Z"/>
      <path class="cls-8" d="M224.89,161.57c-3.75-.24-6.09,1.46-7.72,1.5-1.63.04-4.04-1.55-7.78-1.15-3.5.38-18.12,10.65-16.43,11.9,1.69,1.25,13.03-6.3,24.31-6.56,11.28-.26,15.48,6.94,17.11,5.62,1.63-1.33-5.97-11.09-9.49-11.31Z"/>
      <path class="cls-29" d="M193.1,166.35l-.57-.24c.46-.08.92-.2,1.36-.35.65-.27,1.3-.44,1.92-.79.45-.26,2.06-2.35,1.62-2.21-1.32.19-2.64.39-3.96.58,4.38.78,7.14.15,10.68-2.65-1.24.49-2.48.99-3.72,1.48l.79-.15-2.56-.05c1.92.81,3.2.81,5.26.26,2.6-.69,3.19-2.03,5.2-3.46-1.6.43-3.21.86-4.81,1.29,1.5-.03,1.6.85,2.13,1.75.65,1.12,3.79.09,4.56-.21l.16-.06c4.51-1.74.24-2.39-2.32-1.41l-.16.06c1.52-.07,3.04-.14,4.56-.21-2.98-5.13-8.95-1.92-12.14,1.43l2.81-1.27-1.03.26,3.47-.16c-3.77-1.66-6.17.29-9.4,1.94l4.16-.95c-3.18-.2-7.06-.89-9.47,2.05-1.18,1.44-1.21,1.15,1.37.58-.97.21-1.96.46-2.88.84-1.6.66-2.73,1.48-3.76,2.9-.7.97,2.49.6,2.7.57,1.28-.21,3.19-.68,4-1.81h0Z"/>
      <path class="cls-29" d="M223.46,160.85c1.7-.33,2.52,1.34,3.74,1.93,1.41.68,3.09-.22,4.5-.28.84-.24.51-.05-1.02.58.11.43.29.82.56,1.18.32.37.7.56,1.16.72.5.18,1.04.02,1.35.39.39.45.42,1.51.54,2.07.13.22.32.34.59.36l.13.04c1.69.5,5.05-.5,6.16-1.89.14-.19.29-.37.45-.54-1.86.65-3.72,1.3-5.57,1.94h.22c-.39-.14-.78-.28-1.18-.42.17.74-.59,1.64-.84,2.33-.37,1.06,6.11.43,6.7-1.25.32-.9,1.17-1.9.94-2.91-.09-.38-.96-.42-1.18-.41-2.31.09-4.75.62-6.24,2.5l6.16-1.89c.71.21.04-1.65-.19-1.95-.43-.56-.72-.47-1.32-.74-2.33-1.07-1.68-2.89-4.75-2.67-.56.04-1.11.12-1.66.24-.27.05-.54.12-.81.21-.59.19-.47.13.34-.19.25-.62,1.03-.2.16-1.03-.21-.2-.64-.3-.92-.39-2.15-.68-4.51-.69-6.7-.26-.69.14-4.01.8-4.01,1.79,0,1.08,2,.67,2.69.54h0Z"/>
      <path class="cls-29" d="M213.68,160.01l-.3,4.09c-.05.63-.48,1.15-1.09,1.31-4.19,1.09-20.12,5.2-23.99,5.6-.09,0,.53,1.56.44,1.56l-.91.04c-1.47-.12-1-5.08.31-5.77,3.98-2.11,7.58-3.69,9.82-4.5,2.81-1.01,10.61-3.55,14.1-3.91.92-.1,1.69.66,1.62,1.59Z"/>
      <path class="cls-29" d="M220.87,158.27l-.65,3.68c0,.63.36,1.19.91,1.4,3.78,1.43,13.98,5.89,17.51,6.61.08.02.16.02.25.02h1.17c1.37.01,1.25-3.09.1-3.89-3.51-2.44-3.57-3.63-5.57-4.62-2.51-1.24-8.9-3.98-12.09-4.64-.84-.17-1.61.52-1.62,1.45Z"/>
      <g>
        <path class="cls-42" d="M242.88,191.48c.5-.98.78-2.27.97-3.65,2-6.49,2.28-5.1,2.89-10.58-3.61,11.53-8.98,22.81-11.96,25.01-.1.08-.72.26-1.55.39-.08-.03-.17-.07-.27-.08-.99-.18-2.34.51-3.07.06-.8-.5.47-1.56-.05-2.21-.33-.41-1.19-.44-1.78-.69-.7-.29-1-.88-1.66-1.21-.68-.34-1.72-.34-2.51,0-.89.04-2.03.55-2.39-.02-.1-.15-.08-.34-.09-.51-.05-.68-.69-1.27-1.55-1.44-.86-.17-1.87.11-2.44.67-.56.54-.69,1.28-1.29,1.79-.19.16-.42.3-.65.44-.25-.18-.55-.31-.88-.37-.85-.17-1.87.11-2.44.67-.55.54-.69,1.28-1.29,1.79-.51.43-1.33.7-1.54,1.24-.33.87,1.18,1.72.53,2.49-.58.7-2.07.29-2.98.75-.17.08-.29.2-.38.32-5.52-.27-16.6-.95-16.82-.96l-7.71-3.22c-1.3-.72-30.68-23.23-30.68-23.23-.46-.78-5.84-6.2-6.08-6.95-.09-.04-.18-.09-.27-.12-.03-.01-.11-.04-.18-.07-.01.05-.03.12-.03.15-.04.33-.01.67.02.99.13,1.42.49,2.81.98,4.16.75,2.07,1.23,4.19,1.9,6.27.24.74.51,1.46.81,2.17.6.34,1.8,1.43,3.44,3.02.27.42.63.79,1.06,1.03.45.44.93.92,1.42,1.41-.21,2.05,1.83,4.3,3.92,3.92.09.09.18.18.27.27-.3,1.47.99,3.12,2.52,3.03.15,0,.31-.03.47-.06.7.69,1.42,1.39,2.15,2.1-.01.28-.03.56-.01.82.08,1.83,2.11,3.23,3.85,2.83.13.12.27.25.4.37-.31,2.41,2.32,4.84,4.71,4.23.11.1.22.19.33.29.38,1.66,2.01,2.92,3.69,3.05.65.52,1.3,1.01,1.94,1.48.69,1.65,2.41,2.89,4.21,2.82.05.03.1.06.15.09-.79,1.94,1.76,4.29,3.62,3.26.52-.29.96-.76,1.55-.86,1.6-.27,2.55,2.34,4.16,2.14.66-.08,1.15-.62,1.7-.98,1.66-1.1,2.67-1.31,3.58.46,0,0,.37,1.86,2.93.85,1.43-.56,2.49-2.16,3.73-1.25.54.4.92,1.03,1.53,1.29,1.42.61,2.87-1.04,4.42-.99,1.42.05,2.74,1.53,4.05.97,1.28-.54,1.22-2.47,2.15-3.47.82-.11,1.61,1.99,2.42,1.85,1.88.69,4,.45,5.58-.74.67-.5.93-1.44,1.67-1.83,1.19-.64,2.56.56,3.9.53,1.96-.04,2.74-2.37,2.93-4.43.19-.13.39-.27.57-.42,1.01.25,2.24-.41,2.41-1.47.07-.45-.01-.93.06-1.37.16-.26.3-.53.44-.8.69-.63,1.95-.86,1.91-1.77-.02-.51-.5-.87-.67-1.35.23-.61.47-1.25.72-1.92.22-.23.46-.45.68-.65.76-.69,1.34-2.04.52-2.62,0-.01,0-.03.01-.04,1.17-.41,2.58-1.27,2.26-2.46-.1-.38-.39-.7-.5-1.08-.32-1.09.79-2.01,1.58-2.82.79-.82,1.12-2.53.01-2.8Z"/>
        <path class="cls-29" d="M243.58,191.57c.8-1.69.93-3.58,1.51-5.34.37-1.1.77-2.19,1.17-3.28.69-1.87.99-3.77,1.21-5.75.08-.72-1.26-.58-1.43-.04-1.4,4.42-3,8.78-4.86,13.03-1.44,3.28-2.97,6.63-5.03,9.59-.55.79-1.2,1.89-2.16,2.18-.64.19-1.28,0-1.94.08-.36.04-.8.22-1.15.18-.76-.09-.4-.52-.28-1.05.4-1.71-1.62-1.54-2.6-2.25-.64-.46-1.05-.94-1.86-1.12-.89-.2-1.69,0-2.56.19-.46.1-1.16.31-1.46-.13-.2-.29-.17-.69-.43-1-.49-.6-1.32-.87-2.07-.91-.84-.04-1.75.2-2.43.69-.94.68-1.19,1.82-2.21,2.45l1.04-.08c-1.1-.67-2.46-.7-3.62-.13-.62.31-1.04.77-1.4,1.35-.28.45-.46.82-.91,1.15-.33.24-.7.39-1,.68-.33.32-.57.66-.55,1.14.02.54.63.97.64,1.45.01.74-1.26.54-1.84.66s-1.04.36-1.46.79l.86-.32c-3.92-.19-7.84-.42-11.76-.66-1.43-.08-2.86-.17-4.29-.26-.24-.01-.51,0-.75-.04.34.07-.5-.23-.62-.28-2.27-.95-4.66-1.77-6.86-2.86-.05-.02.09.06-.14-.09-.18-.12-.35-.25-.52-.37-.6-.43-1.2-.88-1.8-1.32-8.77-6.52-17.42-13.19-26.1-19.84-.56-.43-1.12-.85-1.67-1.28-.45-.35-.38-.36-.79-.83-1.14-1.31-2.35-2.56-3.52-3.84-.79-.87-1.64-2.44-2.74-2.83-.44-.16-1.04.07-1.15.55-.23,1.06.1,2.37.35,3.4.37,1.53.97,2.99,1.41,4.5.44,1.49.82,3,1.34,4.47.19.53.36,1.32.75,1.74.23.24.61.42.87.64,1.06.88,1.96,1.9,2.94,2.86.46.45.99.81,1.42,1.28.48.52.44.78.58,1.43.44,2.05,2.44,3.54,4.52,3.3l-.6-.22c.28.28.18,1.02.31,1.4.16.48.45.91.81,1.26.77.75,1.72.94,2.75.8l-.6-.22c.59.58,1.86,1.42,2.06,2.25.16.65.06,1.25.43,1.88s.95,1.15,1.61,1.48c.34.17.69.3,1.06.37.21.04.79-.04.97.07.3.18.24,1.11.41,1.57.26.7.7,1.32,1.25,1.82,1.15,1.05,2.6,1.42,4.11,1.12l-.69-.09c.4.34.56,1.12.88,1.55.34.45.76.84,1.23,1.14.43.27.9.48,1.39.62.68.19,1.1.49,1.66.92.94.72,1.38,1.83,2.34,2.55.42.31.91.57,1.4.74.37.12,1.17.08,1.41.22l-.14-.52c-.88,2.71,2.3,5.05,4.72,3.75.41-.22.95-.76,1.45-.69.31.05.69.43.92.63.49.43.93.92,1.52,1.22,1.42.72,2.47-.13,3.61-.9.86-.58,1.61-.96,2.25.11.16.27.24.59.42.85.62.87,1.78.97,2.75.75.8-.18,1.49-.56,2.17-1.01.45-.3,1.02-.8,1.6-.55.41.17.75.76,1.11,1.03,1.26.95,2.66.34,3.94-.22s2.05-.16,3.26.35c.72.3,1.46.48,2.23.25,1.85-.54,1.74-2.53,2.77-3.8l-.86.32c.61.03,1.16,1.29,1.68,1.61.61.38,1.58.52,2.28.59,2.12.22,4.31-.52,5.61-2.23.49-.64.75-.97,1.64-.75.55.14,1.07.39,1.62.5.85.17,1.72.08,2.47-.37.71-.42,1.21-1.13,1.54-1.87.34-.79.3-2.21.96-2.71l-.73.2c1.26.2,2.77-.35,3.27-1.61.18-.46.07-.91.15-1.37.14-.81.41-1.01,1.04-1.39.44-.27.93-.54,1.18-1.02.26-.51.13-.97-.12-1.45-.29-.55-.37-.5-.16-1.12.23-.69.54-1.12,1.03-1.69.82-.96,1.56-2.23.47-3.27l.14.52c-.15.41.36.02.54-.08.24-.13.5-.28.71-.45.36-.27.7-.61.91-1.02.19-.39.25-.81.15-1.24-.09-.36-.43-.74-.5-1.08-.11-.55.16-.96.47-1.37.66-.88,1.52-1.38,1.77-2.52.2-.91-.06-1.71-.96-2.05-.64-.24-1.69.67-.83,1,1.1.42-.17,2.03-.58,2.45-.56.57-1.25,1.25-1.37,2.09-.14.99.96,1.85.3,2.74-.46.62-1.74.61-2,1.32-.08.22-.02.36.14.52.78.75-.48,1.82-.92,2.28-.55.57-.73,1.28-1,2.02-.25.7-.06.66.2,1.32.41,1.01-.2,1.12-.9,1.57-.5.33-.94.79-1.11,1.39-.26.89.27,2.21-1.1,2.43-.68.11-.85-.08-1.45.37-.55.41-.51.56-.62,1.25-.24,1.53-.86,3.56-2.8,3.03-1.18-.32-2.34-.92-3.54-.29-.49.26-.82.66-1.14,1.09-.56.75-1.15,1.25-2.07,1.54-1.24.39-3.19.36-4.09-.65-.53-.59-1.06-1.47-1.99-1.37-1.05.12-1.37,1.56-1.7,2.36-.39.96-.88,1.38-1.93.96-.59-.24-1.12-.56-1.74-.71-1.27-.32-2.33.21-3.48.69s-1.6.06-2.45-.67c-.38-.32-.73-.6-1.23-.69-1.15-.2-2.07.62-2.96,1.19s-1.99.97-2.62-.07c-.45-.74-.76-1.47-1.69-1.71-1.11-.29-2.25.38-3.14.98-.83.56-1.36.98-2.24.26-.48-.4-.9-.88-1.43-1.22-.93-.58-1.92-.5-2.84.06s-1.62.89-2.56.1c-.68-.57-1.07-1.45-.79-2.32.06-.19.05-.4-.14-.52-.23-.14-.38-.17-.64-.21-.79-.12-1.35-.2-2.02-.65-.97-.66-1.27-1.73-2.17-2.41-.43-.32-.84-.71-1.29-.99s-.8-.24-1.3-.41c-1.27-.43-1.75-1.28-2.34-2.37-.47-.87-.83-.73-1.7-.71-1.22.02-2.36-.87-2.95-1.89-.43-.75-.18-1.68-.6-2.31-.55-.82-1.61-.3-2.4-.64-1.09-.47-1.66-1.44-1.68-2.59s-1.13-1.73-1.9-2.5c-.81-.79-1.72-.21-2.54-.99-.49-.47-.67-1.02-.72-1.68-.03-.45.13-.59-.36-.91-.27-.18-.4-.13-.71-.15-.72-.05-1.22-.16-1.79-.61-.44-.35-.82-.85-1.04-1.37s-.07-1.15-.26-1.61c-.3-.71-1.32-1.35-1.9-1.85-.91-.78-1.7-1.76-2.6-2.58-.8-.72-1.46-1.08-1.85-2.11-.52-1.38-.9-2.81-1.3-4.23s-.96-2.89-1.38-4.35c-.34-1.17-.81-2.72-.55-3.94l-1.15.55c.32.12.07-.08.35.26.16.19.3.4.46.59.57.7,1.19,1.36,1.8,2.03,1.12,1.22,2.32,2.4,3.37,3.68.68.84,1.61,1.42,2.47,2.08,4.9,3.75,9.8,7.5,14.71,11.23,4.36,3.32,8.69,6.7,13.15,9.9,1.39,1,3.08,1.51,4.64,2.16,1.24.52,2.48,1.15,3.76,1.57.63.21,1.3.18,1.97.22,4.73.28,9.45.57,14.18.81.42.02,1.02.15,1.43.02.63-.19,1.1-.5,1.8-.57.84-.09,2.05-.29,2.29-1.28.1-.43-.08-.79-.28-1.16-.43-.79-.51-1.01.33-1.57,1.34-.9,2.19-3.59,4.15-2.4.34.21.72.12,1.04-.08.81-.5,1.13-1.07,1.67-1.82.5-.69,1.28-1.13,2.16-.83.82.28.68.81.94,1.42.53,1.28,2.48.59,3.46.4.8-.16,1.36-.25,2.08.27.32.23.57.54.91.75.8.52,2.08.26,1.88,1.5-.07.46-.32.85-.02,1.3.33.49,1.05.56,1.58.55.44-.01.87-.15,1.31-.19.39-.04.76.07,1.14.06.62-.01,1.43-.18,1.98-.47.83-.43,1.48-1.36,2.02-2.09,1.92-2.62,3.37-5.61,4.73-8.56,2.2-4.78,4.04-9.72,5.63-14.73l-1.43-.04c-.22,1.96-.52,3.81-1.2,5.65-.41,1.09-.8,2.18-1.17,3.28-.56,1.7-.68,3.53-1.45,5.15-.36.76,1.11.79,1.39.18Z"/>
      </g>
      <path class="cls-11" d="M287.91,321.27c-.59,10.9-1.98,21.7-3.75,32.46-1.57,9.54-3.33,19.06-4.39,28.68-1.06,9.68-1.29,19.37-.92,29.1.07,1.94.12,3.89.19,5.83.35,10.67.71,21.34,1.09,32.01.51,14.13,1.04,28.26,1.66,42.38.48,10.87.91,21.76,1.76,32.62.06.8.13,1.6.2,2.39.05.58,1.51.25,1.45-.39-.93-10.02-1.29-20.11-1.75-30.17-.64-14.09-1.18-28.19-1.7-42.29-.42-11.4-.81-22.81-1.18-34.21-.33-10.12-.73-20.22,0-30.33,1.46-19.96,6.37-39.46,8.16-59.39.26-2.94.47-5.88.63-8.83.04-.69-1.43-.44-1.46.14h0Z"/>
      <path class="cls-3" d="M138.94,149.4c-6.56-15.83-11.32-15.98-11.32-15.98,0,0-3.24,3.62-1.71,10.96"/>
      <path class="cls-3" d="M136.47,150.81c-4.26-.46-1.06,7.54-2.25,9.4-1.2,1.86-2.71-3.13-3.18-9.15,0,0,.07-8.12,4.11-9.57"/>
      <path class="cls-25" d="M131.89,121.63c-.05.84,24.62,95.27,24.62,95.27l-20.22,29.49-5.62-1.75-20.32-86.46s14.54-36.21,15.98-36.96c1.44-.75,5.55.4,5.55.4Z"/>
      <path class="cls-17" d="M104.9,265.81s-1.03-19.59-3.93-28.9c-2.9-9.31-1.8-14.94-1.46-20.3.26-4.21,3.91-11.6,3.91-11.6,0,0,10.12-28.65,11.44-33.27,1.32-4.62.47-13.69,5.56-13.16,5.09.53,6.08,4.2,5.64,11.2-.44,7-2.01,9.29-2.01,9.29,0,0,9.56-5.34,14.63-4.61,5.07.74,15.65,7.41,15.65,7.41,0,0,3.29,6.23-11.62,3.29-3.04-.61-8.33,2.14-8.33,2.14l17.44,2.73,8.08,11.56s-3.65,6.11-12.77-2.04l-12.82-1.41-7.39,13.46,12.71-6.5,16.15,4.14,5.03,11.3s.61,3.99-4.21,2.26c-3.12-1.36-5.64-3.79-7.1-6.86l-8.91.74-7.06,8.16s4.22,27.5,2.82,36.83c-.94,5.97-2.4,11.84-4.36,17.55l-2.86,30.29-33.93-7.22,9.71-36.49Z"/>
      <path class="cls-40" d="M139.68,205.38c5.19,1.33,10.38,2.66,15.57,3.99.1.03.66.21.51.08-.13-.11.19.51.25.65.62,1.39,1.23,2.78,1.85,4.16.69,1.55,1.38,3.1,2.07,4.65.26.59.68,1.24.8,1.88.08.43-.02.98-.2,1.37-.46.99-1.54.65-2.4.37-3.19-1.05-5.83-3.89-7.27-6.84-.1-.21-.42-.17-.61-.16-2.97.25-5.94.5-8.91.74-.67.06-1.24.79-.22.7,2.97-.25,5.94-.5,8.91-.74l-.61-.16c1.33,2.72,3.41,4.95,6.06,6.41,1.66.92,4.25,1.72,5.89.29,1.74-1.51.3-3.61-.4-5.19-.8-1.79-1.59-3.58-2.39-5.38l-.97-2.17c-.13-.29-.24-.79-.46-1.03-.38-.43-1.46-.48-1.99-.62-1.67-.43-3.35-.86-5.02-1.29-3.1-.79-6.19-1.59-9.29-2.38-.32-.08-.74-.04-1.02.15-.12.09-.5.4-.15.5h0Z"/>
      <path class="cls-40" d="M147.09,199.77c2.4,2.13,5.36,4.27,8.7,4.33,1.74.03,3.52-.59,4.78-1.82.23-.23.47-.47.63-.75.06-.11.08-.16,0-.26-1.29-1.84-2.57-3.68-3.86-5.52-.91-1.3-1.82-2.61-2.74-3.91l-.98-1.4c-.15-.21-.3-.54-.49-.7-.3-.25-.91-.29-1.28-.38l-2.01-.51c-.34-.08-.72-.02-1.02.15-.14.08-.49.41-.15.5.55.14,1.1.28,1.65.41l1.1.28c.1.03.21.05.31.08.12.03.12.06.03-.02.15.14.27.38.38.55l.9,1.29,5.33,7.63c.49.7.97,1.39,1.46,2.09v-.26c-.35.6-.88,1.03-1.43,1.34s-1.07.46-1.79.48c-1.09.03-2.15-.28-3.14-.71-1.88-.81-3.53-2.08-5.05-3.43-.34-.31-1.69.24-1.35.54h0Z"/>
      <path class="cls-19" d="M110.16,193.17c1.61-3,3.6-5.78,5.9-8.28,1.75-1.66,3.78-3.01,5.98-4,1.7-.91,2.5-1.85,2.39-1.93s-.99.59-2.7,1.32c-.84.37-1.96.78-3.01,1.4-1.22.67-2.33,1.51-3.29,2.51-1.76,1.77-3.22,3.81-4.31,6.05-.56.88-.89,1.89-.97,2.94Z"/>
      <path class="cls-40" d="M123.32,214.19c-1.34,1.27-2.79,2.49-3.97,3.93-1.07,1.3-1.9,2.87-1.89,4.58,0,.73,1.47.49,1.46-.13-.02-1.64.77-3.09,1.82-4.3,1.15-1.33,2.5-2.49,3.78-3.7.25-.23.11-.56-.18-.66-.35-.13-.77.03-1.02.27h0Z"/>
      <path class="cls-40" d="M135.61,187.32c-2.94.63-6.05-.02-8.9,1.12-2.45.98-3.82,3.1-4.89,5.41-.6,1.3-1.11,2.64-1.82,3.89-.84,1.48-2,2.71-3.15,3.94-2.24,2.41-3.96,4.99-4.83,8.2-.14.51,1.32.3,1.45-.18.89-3.27,2.68-5.77,4.95-8.22,1.8-1.93,3.13-3.9,4.19-6.31,1.03-2.34,2.11-5.11,4.67-6.13,2.64-1.05,5.76-.4,8.52-.99.88-.19.68-.9-.19-.71h0Z"/>
      <path class="cls-40" d="M123.91,178.56c-3.03,1.92-6.3,3.68-9,6.07-2.53,2.24-4.1,5.2-5.47,8.23-.18.4,1.24.25,1.44-.2,1.34-2.96,2.87-5.85,5.36-8,2.58-2.22,5.67-3.9,8.55-5.72.21-.13.41-.35.14-.52-.25-.16-.8,0-1.02.15h0Z"/>
      <g>
        <path class="cls-32" d="M44.81,503.79c21.61,2.98,50.94-2.38,69.87-61.13,17.74-55.05,20.91-112.63,23.55-165.94l-23.9-9.1-13.74-1.44-52.15,131.23s-17.24,22.39-5.83,52.27"/>
        <path class="cls-11" d="M44.21,504.06c9.05,1.24,18.32.74,26.94-2.47,11.49-4.28,20.56-12.89,27.42-22.87,11.71-17.04,17.83-37.47,22.92-57.29,5.78-22.52,9.51-45.51,12.05-68.61,2.5-22.63,3.86-45.36,5.01-68.1.14-2.74.28-5.47.41-8.21l-.04-.05c-5.21-1.98-10.41-3.96-15.62-5.95l-7.64-2.91c-1.57-.6-3.38-.55-5.04-.72-3.14-.33-6.28-.66-9.42-.99-.3-.03-1.17.05-1.31.4-.71,1.78-1.41,3.56-2.12,5.34-1.87,4.71-3.74,9.42-5.62,14.13-2.66,6.7-5.33,13.4-7.99,20.1-3.1,7.79-6.19,15.58-9.29,23.37-3.12,7.86-6.25,15.72-9.37,23.58-2.79,7.02-5.58,14.05-8.37,21.07-2.09,5.25-4.17,10.5-6.26,15.74-1,2.52-1.89,5.12-3.02,7.59-.25.54-.62.99-.95,1.49-1.64,2.48-3.02,5.14-4.2,7.87-4.44,10.28-5.81,21.77-3.77,32.79.66,3.58,1.68,7.07,2.96,10.47.12.31,1.54-.14,1.45-.39-4.54-12.02-5.16-25.13-1.33-37.42,1.17-3.77,2.72-7.43,4.66-10.87.76-1.35,1.75-2.58,2.49-3.93.89-1.62,1.42-3.57,2.1-5.29l5.6-14.1c2.66-6.69,5.32-13.39,7.98-20.08,3.08-7.75,6.16-15.5,9.24-23.25,3.11-7.83,6.22-15.65,9.33-23.48,2.8-7.04,5.6-14.09,8.4-21.13,2.1-5.28,4.2-10.56,6.3-15.84.67-1.69,1.34-3.37,2.01-5.06.35-.87.82-1.77,1.06-2.68.03-.11.09-.23.13-.34l-1.31.4c2.82.3,5.65.59,8.47.89,1.84.19,4.23.16,5.74.74,6.2,2.36,12.4,4.72,18.61,7.08,1.21.46,2.42.92,3.63,1.38.24.09.66.17.87.33.49.39.12,1.58.09,2.26-.36,7.15-.72,14.31-1.13,21.46-.82,14.48-1.82,28.96-3.23,43.4-2.93,30.11-7.67,60.13-16.13,89.22-3.74,12.85-8.11,25.6-14.59,37.36-4.54,8.24-10.14,16.06-17.34,22.19-5.32,4.53-11.51,8.02-18.28,9.84-5.67,1.52-11.6,1.86-17.43,1.38-1.29-.11-2.58-.25-3.86-.43-.33-.04-1.54.49-1.2.54h0Z"/>
      </g>
    </g>
    <path class="cls-34" d="M686.05,227.65c0,.08-.02.15-.03.22.04-.09.05-.17.03-.22Z"/>
    <path class="cls-40" d="M517.39,454.93c-.53,7.47-2.25,14.92-5.66,21.63-1.24,2.45-2.69,5.01-4.61,7-.33.35,1.06.21,1.32-.07,1.23-1.27,2.23-2.82,3.14-4.33,2.5-4.1,4.28-8.64,5.47-13.29.95-3.72,1.51-7.52,1.79-11.34.02-.26-1.42-.08-1.45.39h0Z"/>
  </g>
</svg>