<?xml version="1.0" encoding="UTF-8"?>
<svg xmlns="http://www.w3.org/2000/svg" xmlns:xlink="http://www.w3.org/1999/xlink" viewBox="0 0 1334 1000">
  <defs>
    <style>
      .cls-1 {
        stroke-width: .14px;
      }

      .cls-1, .cls-2, .cls-3 {
        stroke: #000;
      }

      .cls-1, .cls-2, .cls-3, .cls-4, .cls-5 {
        stroke-miterlimit: 10;
      }

      .cls-2 {
        stroke-width: .14px;
      }

      .cls-3 {
        stroke-width: .14px;
      }

      .cls-4 {
        stroke-width: .5px;
      }

      .cls-4, .cls-5 {
        fill: none;
        stroke: #4f2e25;
      }

      .cls-6 {
        fill: #8c542a;
      }

      .cls-7 {
        fill: #101931;
      }

      .cls-8 {
        fill: #010101;
      }

      .cls-9 {
        fill: #653c29;
      }

      .cls-10 {
        fill: #27153c;
      }

      .cls-11 {
        fill: #f1eef7;
      }

      .cls-12 {
        fill: #3d4e83;
      }

      .cls-13 {
        fill: #745245;
      }

      .cls-14 {
        fill: #5c483b;
      }

      .cls-15 {
        fill: #a66e53;
      }

      .cls-16 {
        fill: #0a2f44;
      }

      .cls-17 {
        fill: url(#linear-gradient);
        opacity: .5;
      }

      .cls-18 {
        fill: #212121;
      }

      .cls-19 {
        fill: #3d3d3d;
      }

      .cls-20 {
        fill: #fff;
      }

      .cls-21 {
        fill: #d7b029;
      }

      .cls-22 {
        fill: #0d0b09;
      }

      .cls-23 {
        fill: #513835;
      }

      .cls-24 {
        fill: #151210;
      }

      .cls-25 {
        fill: #f2ebd1;
      }

      .cls-26 {
        fill: #24180f;
      }

      .cls-27 {
        fill: #628e9f;
      }

      .cls-28 {
        fill: #0a1722;
      }

      .cls-29 {
        fill: #825639;
      }

      .cls-30 {
        fill: #381c13;
      }

      .cls-31 {
        fill: #3d4f84;
      }

      .cls-32 {
        fill: #5b481c;
      }

      .cls-33 {
        fill: #4f2e25;
      }

      .cls-34 {
        fill: #161312;
      }
    </style>
    <linearGradient id="linear-gradient" x1="6444.61" y1="-4170.43" x2="7520.37" y2="-4170.43" gradientTransform="translate(4843.74 -6564.78) rotate(90) scale(1 -1)" gradientUnits="userSpaceOnUse">
      <stop offset="0" stop-color="#f0ebe0"/>
      <stop offset=".18" stop-color="#eee8dd" stop-opacity=".99"/>
      <stop offset=".33" stop-color="#e8e1d4" stop-opacity=".97"/>
      <stop offset=".46" stop-color="#ded4c5" stop-opacity=".93"/>
      <stop offset=".59" stop-color="#d0c2b0" stop-opacity=".88"/>
      <stop offset=".72" stop-color="#bdab95" stop-opacity=".82"/>
      <stop offset=".84" stop-color="#a78e73" stop-opacity=".73"/>
      <stop offset=".96" stop-color="#8d6d4d" stop-opacity=".64"/>
      <stop offset="1" stop-color="#83603d" stop-opacity=".6"/>
    </linearGradient>
  </defs>
  <g id="Layer_2" data-name="Layer 2">
    <polyline class="cls-25" points="1671.92 1207.9 1671.92 -123.71 -140.85 -123.71 -140.85 1207.9"/>
    <polyline class="cls-17" points="1582.21 952.05 -235.6 952.05 -235.6 -123.71 1582.21 -123.71"/>
    <path class="cls-14" d="M1457.56,813.08l-1.51-.57-2.67-106.07c-3.95-80.05-25.59-138.15-71.65-142.66-31.35,0-137.4-1.45-147.96,6.67-2.93-139.07,12.19-250.01-214.98-250.01l-401.94.6c-2.67,61.39-9.96,122.56-19,183.33-11.34,76.22,10.87,151.98-.75,228.16-5.84,38.28,44.57,76.85,39.62,115.26-5.04,39.13-10.13,78.25-15.08,117.39-7.53,59.52-26.4,119.13-32.61,178.84h878.05v-124.06c17.8-5.82,30.17-25.06,30.26-47.07v-88.49c-.05-33.91-14.42-56.04-39.81-71.31Z"/>
    <path class="cls-14" d="M721.01,1143.95c.7-17.43,1.37-34.86,1.91-52.29,1.23-40.11,42.39-80.21,42.39-120.34l-9.31-649.42-538.83-1.52c-116.67.02-136.08,110.94-139.01,250.01-10.56-8.12-116.61-6.67-147.96-6.67-46.05,4.51-67.7,62.6-71.65,142.66l-2.67,106.07-1.51.57c-25.39,15.27-39.76,37.4-39.81,71.31v88.49c.09,22.01,12.47,41.25,30.26,47.07v124.06h876.19Z"/>
    <path class="cls-15" d="M768.12,403.28c-3.65,1.16-53.93,31.19-63.26,58.77-9.33,27.58-2.43,108.65-7.64,133.12-6.48,28.49-4.59,108.1-5.54,115.22l-10.12,25.85,44.75-5.54s-8.97-147.53,6.88-185.91c15.85-38.38,34.95-141.51,34.95-141.51Z"/>
    <path class="cls-15" d="M522.08,360.44l11.01-16.92s25.39-11.65,34.15-21.23c6.07-7.16,11.12-15.14,14.99-23.69l20.31-21.44s13.93-4.2,12.94-8.65c-.99-4.45-6.62-4.25-12.08-4.06-5.46.2-76.02,28.09-76.02,28.09,2.99-7.27,6.59-14.27,10.77-20.93,6.5-10.18,4.07-18.67-2.46-17.68-4.02.61-13.39,12.17-16.43,19.91-2.56,6.51-14.11,14.66-19.23,25.84-5.12,11.18-.08,27.17-.08,27.17-1.95,6.26-6.57,14.42-6.57,14.42,5.78,10.36,28.72,19.17,28.72,19.17Z"/>
    <path class="cls-33" d="M598.09,281.45c.29-1-1.56-2.22-2.24-2.62-1.39-.8-3.11-1.23-4.71-1.02-2.98.41-5.88,1.62-8.51,3.03-2.27,1.22-4.43,2.64-6.44,4.24-.4.32-2.53,1.66-2.35,2.35.05.18.29.28.46.28,1.1-.01,2.13-1.34,2.86-2.02l-1.19-.34c-2.76,2.73-5.23,5.73-7.35,8.97s-4.23,6.79-5.38,10.56c-.18.6,1.29.42,1.46-.14,1.12-3.68,3.2-7.11,5.29-10.32s4.48-6.08,7.17-8.74c.63-.63-.79-.72-1.19-.34-.44.41-.87.82-1.33,1.2-.09.07-.26.17-.32.26-.18.28-.87-.03.5-.05l.46.28c.1.37-.23.27.06.13.14-.07.3-.29.42-.4.46-.42.95-.82,1.44-1.21,1.56-1.23,3.2-2.36,4.91-3.36,2.11-1.24,4.37-2.3,6.73-2.96,1.53-.43,2.97-.7,4.52-.22.72.22,1.43.57,2.03,1.03.22.17,1.35,1.11,1.23,1.54-.18.61,1.3.42,1.46-.14h0Z"/>
    <path class="cls-33" d="M574.71,287.22c-.45-.64-2.27.13-2.79.3-1.63.53-3.22,1.16-4.81,1.79-3.43,1.37-6.8,2.85-10.08,4.55-1.01.52-2.04,1.05-2.98,1.69-.31.21-1.1.65-.98,1.12.12.52,1.58.15,1.45-.39,0-.04,1.37-.85,1.58-.97,1.3-.74,2.65-1.41,4-2.06,1.65-.79,3.31-1.55,5-2.25s3.27-1.34,4.92-1.96c.82-.31,1.64-.61,2.48-.88.29-.09.57-.18.86-.24.43-.1.16.09.01-.12.29.41,1.69-.08,1.34-.58h0Z"/>
    <path class="cls-33" d="M548.6,310.96c1.15-.65-.28-2.28-.78-2.91-1.58-2.02-3.68-3.66-5.95-4.83-2.76-1.43-5.87-2.18-8.98-2.12-.69.01-4.03.05-3.82,1.36.1.67,1.56.31,1.45-.39.05.32-.27.39-.18.42.02,0,.15-.06.18-.06.28-.05.54-.13.82-.17.9-.12,1.83-.13,2.74-.07,2.62.19,5.19.98,7.47,2.28,1.73.99,3.32,2.26,4.61,3.78.4.47.78.96,1.09,1.49.1.16.17.37.28.53.28.41-.31.26.45-.17-.85.49-.08,1.27.64.86h0Z"/>
    <path class="cls-27" d="M364.43,450.92l55.46,15.66,75.76-136.51c7.39,9.77,31.13,19.26,46.25,25.07,0,0-44.87,137.03-51.6,153.54-23.83,58.4-64.44,52.14-89.17,41.64-14.23-6.05-65.56-50.98-67.63-65.52-.47-3.32,31.58-34.1,30.93-33.88Z"/>
    <path class="cls-27" d="M312.6,284.2s53.37,27.51,70.21,44.05c21.54,21.15,62.71,148.98,71.77,173.16,9.06,24.17-48.83,8.71-48.83,8.71l-77.34-7.3-11.54-48.28-6.15-154.93,1.88-15.39Z"/>
    <path class="cls-15" d="M444.44,772.67l3.26,44.32-10.04,19.5-13.25,17.59-33.3,20.65s-5.01-1.75,1-9.38c5.77-6.63,12.11-12.89,18.95-18.75l6.11-21.77-4.19-10.52-6.47.24s-2.01,28.09-7.06,33.13c-.88.87-1.62,1.6-2.24,2.2-1.75,1.67-4.55,1.46-6.06-.43l-2.23-2.8,4.42-41.6s5.05-17.89,6.85-22.03c2.29-4.02,6.06-9.77,9.05-13.45l1.35-5.67,33.14,2.98.73,5.79Z"/>
    <path class="cls-22" d="M-149.08,812.82c.22,0,.44,0,.66,0,.66,0,1.32,0,1.98,0h3.25c1.51,0,3.01-.01,4.52-.01h5.71c2.31-.01,4.61-.02,6.92-.02,2.68,0,5.36,0,8.03-.01,3.06,0,6.13-.01,9.19-.02,3.41,0,6.82-.01,10.23-.02,3.78,0,7.55-.01,11.33-.02,4.1,0,8.19-.01,12.29-.02,4.42,0,8.85-.02,13.27-.02,4.76,0,9.52-.02,14.29-.03,5.05,0,10.09-.02,15.14-.03,5.36,0,10.73-.02,16.09-.03,5.62,0,11.25-.02,16.87-.03,5.92-.01,11.85-.02,17.77-.03,6.16-.01,12.32-.02,18.48-.03s12.88-.02,19.32-.03c6.65-.01,13.3-.02,19.95-.04,6.91-.01,13.82-.02,20.73-.04,7.1-.01,14.19-.03,21.29-.04,7.3-.01,14.61-.03,21.91-.04,7.53-.01,15.07-.03,22.6-.04,7.69-.01,15.37-.03,23.06-.04,7.9-.01,15.79-.03,23.69-.04,8.02-.01,16.05-.03,24.07-.04,8.21-.01,16.43-.03,24.64-.04,8.32-.01,16.64-.03,24.95-.04,8.49-.02,16.97-.03,25.46-.05,8.57-.02,17.14-.03,25.71-.05,8.68-.02,17.35-.03,26.03-.05s17.63-.03,26.44-.05,17.72-.03,26.59-.05c8.98-.02,17.96-.03,26.94-.05,9-.02,18.01-.03,27.01-.05,9.1-.02,18.2-.03,27.3-.05,9.1-.02,18.2-.03,27.3-.05,9.17-.02,18.35-.03,27.52-.05,9.15-.02,18.31-.03,27.46-.05,9.16-.02,18.33-.03,27.49-.05,9.21-.02,18.41-.03,27.62-.05,9.15-.02,18.31-.03,27.46-.05,9.17-.02,18.34-.03,27.52-.05,9.1-.02,18.2-.03,27.29-.05l27.28-.05c9-.02,18-.03,27-.05,8.97-.02,17.95-.03,26.92-.05,8.86-.02,17.71-.03,26.57-.05s17.54-.03,26.3-.05c8.71-.02,17.42-.03,26.13-.05,8.56-.02,17.12-.03,25.68-.05,8.48-.02,16.95-.03,25.43-.05,8.31-.01,16.61-.03,24.92-.04,8.2-.01,16.4-.03,24.61-.04,8.01-.01,16.02-.03,24.03-.04s15.77-.03,23.65-.04l23.02-.04c7.49-.01,14.97-.03,22.46-.04,7.32-.01,14.64-.03,21.97-.04l21.24-.04c6.89-.01,13.79-.02,20.68-.04,6.63-.01,13.26-.02,19.9-.04,6.42-.01,12.84-.02,19.26-.03,6.14-.01,12.28-.02,18.42-.03s11.81-.02,17.71-.03c5.6,0,11.21-.02,16.81-.03,5.32,0,10.64-.02,15.96-.03,5.05,0,10.09-.02,15.14-.03,4.72,0,9.43-.02,14.15-.03l13.26-.02c4.07,0,8.14-.01,12.21-.02l11.25-.02c3.38,0,6.76-.01,10.15-.02,3.03,0,6.07-.01,9.1-.02,2.65,0,5.3,0,7.95-.01,2.27,0,4.53,0,6.8-.01,1.88,0,3.76,0,5.64,0,1.47,0,2.94,0,4.4,0h3.17c.63,0,1.25,0,1.88,0,.19,0,.38,0,.57,0,.32,0,1.64-.61.94-.61-.22,0-.44,0-.66,0h-1.98c-1.08,0-2.17,0-3.25,0-1.51,0-3.01,0-4.52,0h-5.71c-2.31.01-4.61.02-6.92.02-2.68,0-5.36,0-8.03.01-3.06,0-6.13.01-9.19.02-3.41,0-6.82.01-10.23.02-3.78,0-7.55.01-11.33.02l-12.29.02c-4.42,0-8.85.02-13.27.02-4.76,0-9.52.02-14.29.03-5.05,0-10.09.02-15.14.03-5.36,0-10.73.02-16.09.03-5.62,0-11.25.02-16.87.03-5.92.01-11.85.02-17.77.03-6.16.01-12.32.02-18.48.03-6.44.01-12.88.02-19.32.03s-13.3.02-19.95.04c-6.91.01-13.82.02-20.73.04-7.1.01-14.19.03-21.29.04-7.3.01-14.61.03-21.91.04-7.53.01-15.07.03-22.6.04-7.69.01-15.37.03-23.06.04-7.9.01-15.79.03-23.69.04-8.02.01-16.05.03-24.07.04-8.21.01-16.43.03-24.64.04-8.32.01-16.64.03-24.95.04-8.49.02-16.97.03-25.46.05-8.57.02-17.14.03-25.71.05-8.68.02-17.35.03-26.03.05-8.81.02-17.63.03-26.44.05s-17.72.03-26.59.05-17.96.03-26.94.05c-9,.02-18.01.03-27.01.05-9.1.02-18.2.03-27.3.05s-18.2.03-27.3.05c-9.17.02-18.35.03-27.52.05-9.15.02-18.31.03-27.46.05-9.16.02-18.33.03-27.49.05-9.21.02-18.41.03-27.62.05-9.15.02-18.31.03-27.46.05-9.17.02-18.34.03-27.52.05-9.1.02-18.2.03-27.29.05-9.09.02-18.19.03-27.28.05-9,.02-18,.03-27,.05s-17.95.03-26.92.05c-8.86.02-17.71.03-26.57.05-8.77.02-17.54.03-26.3.05-8.71.02-17.42.03-26.13.05-8.56.02-17.12.03-25.68.05-8.48.02-16.95.03-25.43.05-8.31.01-16.61.03-24.92.04-8.2.01-16.4.03-24.61.04-8.01.01-16.02.03-24.03.04s-15.77.03-23.65.04c-7.67.01-15.34.03-23.02.04-7.49.01-14.97.03-22.46.04-7.32.01-14.64.03-21.97.04-7.08.01-14.16.03-21.24.04-6.89.01-13.79.02-20.68.04-6.63.01-13.26.02-19.9.04-6.42.01-12.84.02-19.26.03-6.14.01-12.28.02-18.42.03s-11.81.02-17.71.03c-5.6,0-11.21.02-16.81.03-5.32,0-10.64.02-15.96.03-5.05,0-10.09.02-15.14.03-4.72,0-9.43.02-14.15.03l-13.26.02c-4.07,0-8.14.01-12.21.02l-11.25.02c-3.38,0-6.76.01-10.15.02-3.03,0-6.07.01-9.1.02-2.65,0-5.3,0-7.95.01h-6.8c-1.88.02-3.76.02-5.64.02h-4.4c-1.06,0-2.11.01-3.17.01h-1.88c-.19,0-.38,0-.57,0-.32,0-1.64.61-.94.61h0Z"/>
    <path class="cls-22" d="M1267.54,574.69c-10.04,13.36-19.43,27.59-26.32,42.86-3.65,8.09-6.1,16.53-7.48,25.29-1.51,9.63-1.93,19.39-2.32,29.11-.52,13.11-.86,26.22-1.18,39.33-.38,15.57-.7,31.14-1.01,46.72-.27,13.7-.53,27.4-.83,41.1-.03,1.37-.06,2.75-.09,4.12,0,.37,1.44.13,1.45-.39.3-13.13.55-26.25.81-39.38.31-15.45.62-30.9.98-46.35.32-13.75.66-27.49,1.16-41.23.65-17.78,1.11-36.07,7.58-52.89,3.02-7.83,6.98-15.29,11.24-22.51,4.31-7.29,9-14.36,13.96-21.22,1.11-1.54,2.24-3.07,3.38-4.58.36-.47-1.08-.33-1.34.01h0Z"/>
    <path class="cls-22" d="M1318.09,574.65c-10.06,13.38-19.47,27.64-26.34,42.94-3.63,8.07-6.07,16.48-7.44,25.22-1.51,9.59-1.93,19.3-2.31,28.98-.52,13.18-.86,26.36-1.18,39.55-.38,15.51-.7,31.02-1.01,46.53-.27,13.7-.53,27.4-.83,41.1-.03,1.37-.06,2.75-.09,4.12-.01.64,1.44.36,1.45-.16.3-13.13.55-26.25.81-39.38.31-15.51.62-31.02.99-46.53.32-13.67.66-27.34,1.16-41,.64-17.76,1.09-36.05,7.52-52.85,3.02-7.89,7.02-15.4,11.31-22.66,4.31-7.29,9-14.36,13.96-21.22,1.11-1.54,2.24-3.07,3.38-4.58.41-.55-1.05-.47-1.36-.06h0Z"/>
    <path class="cls-22" d="M12.47,577.05c10.08,13.41,19.51,27.7,26.38,43.04,3.63,8.12,6.04,16.6,7.39,25.39,1.47,9.56,1.88,19.25,2.26,28.91.52,13.17.86,26.35,1.18,39.52.37,15.45.69,30.9,1,46.36.27,13.64.53,27.28.83,40.92.03,1.37.06,2.75.09,4.12,0,.38,1.46.12,1.45-.39-.3-13.19-.55-26.37-.81-39.56-.31-15.51-.62-31.02-.99-46.54-.32-13.7-.66-27.4-1.16-41.09-.65-17.86-1.14-36.23-7.71-53.09-6.08-15.59-15.4-30.04-25.16-43.55-1.11-1.54-2.24-3.07-3.38-4.58-.26-.35-1.66.13-1.35.54h0Z"/>
    <path class="cls-15" d="M293.09,271.49l-80.04-4.28-13.49,27.14s22.22,20.94,24.57,22c2.35,1.06,56.97,15.07,56.97,15.07,0,0,62.89-18,62.04-17.88-.85.12-50.05-42.05-50.05-42.05Z"/>
    <path class="cls-15" d="M207.66,206.89s10.74,31.35-4.99,63.29c-1.51,3.07-18.07,9.94-18.07,9.94l26.64,8.73c18.25,4.23,59.08,4.32,76.75-1.11l14.79-8.24s-18.6-4.13-19.48-8.06c-.88-3.94,2.57-33.53,2.57-33.53"/>
    <path class="cls-29" d="M206.17,221.53c0,.1.03.18.04.28-.04-.12-.07-.22-.04-.28Z"/>
    <path class="cls-15" d="M275.85,274.88l31.94-2.74,15.82-4.4c1.63-.05,8.97-16.61,9.98-18.74,3.12-6.62,6.11-15.49,7.89-22.61,1.9-7.63,6.33-14.37,7.04-23.47.52-6.67.32-11.31-3.75-21.94-1.04-2.7-1.19-5.44-.66-8.41,1.14-6.28,1.31-13.57,2.66-21.97.11-.66.72-3.86.43-4.56,0,0-.18-34.77-7.04-46.88-6.86-12.11-16.49-17.35-25.73-19.27-9.24-1.92-36.1,1-36.1,1l-37.48-3.57-30.9,17.15-14.25,39.2,4.43,44.5,6.65,39.62"/>
    <path d="M317.57,174.55s8.09-8.42,14.11-9.1c8.8-.99,11.1.95,14.3,4.93,0,0-5.86-4.1-12.03-3.24s-16.38,7.41-16.38,7.41Z"/>
    <path d="M287.77,174.63s-12.2-7.56-18.12-7.6c-8.63-.06-18.8,5.36-21.49,9.66,0,0,13.39-7.95,19.47-7.74,5.81.2,20.14,5.68,20.14,5.68Z"/>
    <path d="M289.18,135.07c.3,2.08.61,4.17.91,6.26.23,1.59.87,5.21,1.09,6.79-5.56-.55-10.69-1.84-14.24-1.89-7.04-.12-14.31-.69-21.12,1.35-3.26.98-6.06,2.21-8.6,4.23-.8.64-2.84,3.18-4.24,2.81-.57-.15-.07-2.84-.02-3.12,1.04-5.44,5.42-8.28,10.97-10.36,11.33-4.25,23.14-5.72,35.24-6.07"/>
    <path d="M348.81,141.38s-3.01-1.39-3.03-1.41c-8.42-3.95-17.36-5.14-26.58-5.2-.34,2.07-.68,4.16-1.02,6.24-.26,1.59-.81,4.44-1.06,6.02,4.27-.67,8.03-1.69,10.74-1.83,5.38-.28,11.06-.66,16.14,1.21.4.15,2.57.99,2.95,1.16,2.14-2.6,2.52-5.62,1.86-6.19Z"/>
    <path class="cls-24" d="M293.52,243.74l22.67-1.84s-5.09,8.97-10.64,9.13c-3.46.1-8.22-3.5-12.03-7.29Z"/>
    <g>
      <path class="cls-8" d="M310.65,210.24c-2.55,1.46-6.5,1.25-9.16-.32-.59-.35-2.5.06-1.68.55,3.51,2.08,9.18,2.12,12.46.23.33-.19.26-.45-.16-.58-.44-.14-1.12-.09-1.47.11"/>
      <path class="cls-8" d="M298.67,209.75c-1.76-.79-3.73-1.18-5.68-1.27-.29-.01-.65.11-.85.31-.16.15-.19.36.03.47.91.5,2.06.69,3.11.64.33-.02.77-.11.94-.41.16-.27-.16-.44-.42-.43-.87.04-1.76-.11-2.51-.52-.28.26-.55.52-.83.78,1.74.09,3.5.45,5.07,1.16.31.14.76.03,1.03-.15.2-.13.42-.43.1-.57"/>
      <path class="cls-8" d="M290.95,210.22c-2.28,0-4.98-.93-6.16-2.65-1.77-2.6-.31-6.74,2.48-8.52.3-.19.13-.43-.18-.49-.41-.08-.89.09-1.21.29-2.43,1.55-3.94,4.95-3.5,7.42.42,2.31,2.64,3.87,5.39,4.46.82.18,1.68.29,2.53.28.34,0,.96-.13,1.12-.41.16-.28-.16-.4-.48-.4"/>
      <path class="cls-8" d="M314.79,208.94c-.13-.27.09-.45.27-.45.62,0,1.24-.2,1.75-.65.21.25.42.49.62.74-1.23.17-2.45.62-3.53,1.41-.21.16-.53.07-.73-.1-.15-.12-.32-.41-.1-.57"/>
      <path class="cls-8" d="M313.08,209.33c1.21-.88,2.57-1.36,3.95-1.56.2-.03.47.07.62.26.12.15.15.35,0,.48"/>
      <path class="cls-8" d="M319.53,209.12c1.48-.1,3.19-1.17,3.87-2.94,1.02-2.68-.09-5.79-1.99-7.43-.21-.18-.11-.42.1-.49.26-.1.58.05.8.23,1.65,1.43,2.77,3.79,2.6,6.28-.16,2.33-1.53,3.99-3.28,4.71-.52.21-1.08.37-1.63.4-.22.01-.63-.08-.75-.35-.12-.28.08-.4.29-.42"/>
    </g>
    <path class="cls-4" d="M265.1,126.53s34.81-6.27,58.95-2.29"/>
    <g>
      <g>
        <path d="M339.85,96.15c-.35,1.01-.37,2.09.47,2.63.5.33,1.28.51,1.84.77-.45-1.4-1.17-2.65-2.3-3.4Z"/>
        <path d="M339.16,96.06c-.29.84-.46,1.85.08,2.64s1.66.96,2.49,1.34c.25.11.6.02.82-.11.18-.11.4-.34.32-.57-.46-1.41-1.21-2.78-2.47-3.63-.3-.2-.77-.13-1.04.09-.23.19-.39.54-.08.75.14.1.28.2.41.31.03.02.05.04.08.07,0,0,.11.1.06.05s.05.05.06.06c.03.03.06.06.09.09.23.24.43.51.61.79.09.14.18.28.25.43.04.08.08.16.12.23.04.09-.05-.11.02.04.02.03.03.06.05.1.15.33.28.67.39,1.02l1.14-.68c-.38-.17-.78-.29-1.17-.45-.1-.04-.2-.08-.3-.13-.16-.07.1.06-.05-.02-.04-.02-.09-.05-.13-.08-.08-.05-.14-.1-.21-.16-.03-.03-.02-.02.02.02-.02-.02-.03-.03-.05-.05-.03-.03-.06-.07-.08-.1-.02-.03-.04-.06-.06-.09-.02-.04-.06-.11-.02-.03-.04-.08-.07-.16-.09-.25s-.04-.18-.05-.27c0-.01-.01-.14,0-.07,0,.06,0-.08,0-.1,0-.19.02-.38.05-.56.02-.1.04-.2.07-.3,0-.01.04-.14.02-.08-.01.05.04-.11.04-.13.05-.14.06-.27-.03-.4-.09-.12-.27-.19-.41-.21-.31-.03-.83.1-.94.44Z"/>
      </g>
      <g>
        <path d="M341.29,91c-.74-1.03-2.41-.98-3.16-1.99-.85-1.15,0-2.83-.44-4.19-.57-1.81-2.94-2.17-4.84-2.2,1.09-1.5.17-3.99-1.63-4.42-.73-.17-1.59-.09-2.11-.64-.76-.81-.15-2.42-1.05-3.08-.61-.45-1.48-.12-2.21-.23-.19-.44-.38-.89-.58-1.33-.18-.07-.35-.14-.52-.21.01-.93.33-2.06-.15-2.85-.5-.83-1.67-1.02-2.73-1.22.09-.28.26-.53.51-.75-.77.37-1.51.36-2.24.12-.22-.2-.35-.47-.34-.84v.72c-2.43-.99-4.78-4.18-7.6-3.94-1.09.09-2.06.71-3.13.96-2.77.66-5.84-1.7-5.9-4.55-2.65,1.71-5.99,2.32-9.07,1.64l-.53.21c-1.69-1.73-4.33-3.27-5.72-2.83-2.1.67-4.12,2.05-6.3,1.74-2.6-.37-4.72-3.11-7.29-2.57-1.51.32,2.38,1.78.85,1.96-2.18.26-3.96-2.05-6.16-2.07-2.76-.03-4.65,3.49-7.4,3.32-1.77-.11-3.12-1.75-4.87-2.05-3.49-.59-6.52,4.25-9.83,2.99-1.42-.54-2.28-2.09-3.72-2.57-3.34-1.12-5.3,4.88-8.82,4.73-2.16-.09-4.01-2.25-6.13-1.8-2.31.48,1.34,2.7-.99,3.07-1.3.2-2.58-.61-3.89-.51-3.59.27-4.44,5.46-7.85,6.64-1.57.54-3.42-.14-4.9.62-1.82.93-2.2,3.56-3.65,4.87-.18.13-.37.27-.55.4-.1.06-.2.11-.31.15-1.48.58-3.25-.26-4.7.39-2.31,1.03-2.4,5.15-4.92,5.44-1.13.13-2.44-.64-3.33.08-.86.7-.41,2.06-.4,3.17.03,2.23-2.48,4.08-4.6,3.41-.15.93-.52,3.8-.88,6.45l.03-1.24c-.84-.9-2.45-.01-2.82,1.17-.37,1.18-.04,2.45-.14,3.68-.22,2.6-2.69,4.81-5.31,4.74,2.17,3.04,4.24,7.58,1.46,10.09-.67.61-1.56.98-2.12,1.69-.92,1.17-.66,2.94.2,4.15.86,1.21-.62,1.57.66,2.31-1.97,2.01-4.03,5.19-2.21,7.34,1,1.18-2.01,1.65-1.88,3.19.15,1.81.4,2.94-.46,4.54-.72,1.33-.05,3.06,1.11,4.02,1.16.96-1.92,2.39-.45,2.74.8,1.95.07.57-.97,2.4-.92,1.62.37,5.91,2.2,6.26s1.36-.79,2.79.4c-1.85,1.26-3.96,3.32-3,5.35.91,1.93,3.59,1.72,5.66,2.43.18.96.36,1.96.55,3.01-1.03.81-2.47,1.5-2.92,2.71-.48,1.28.43,2.75,1.65,3.37,1.01.51,2.16.59,3.3.6,2.95,4.89,9,16.44,14.16,26.47l13.76-.4.13.82c1,.03,1.99.06,2.99.09.31,0,.65.01.9-.17.63-.45.18-1.41-.08-2.13-.59-1.69.24-3.51.87-5.18.63-1.68.98-3.8-.29-5.07-.67-.67-1.76-1.06-1.94-1.98-.23-1.21,1.24-1.96,1.99-2.94,1.17-1.53.19-4.15-1.7-4.53,0,0,1.97-2.52.84-7.12-1.13-4.6-2.88-9.48-2.88-9.48h0c.26-.35.51-.71.67-1.11,1.24-2.93-1.62-6.32-.64-9.35.44-1.36,1.6-2.41,1.93-3.8.62-2.66-2.01-5.09-1.94-7.82.08-3.06,3.52-5.91,2.14-8.64-.67-1.33-2.32-1.99-2.92-3.36-1.05-2.39,1.47-5.81-.54-7.48-.7-.58-1.74-.66-2.33-1.34-1.19-1.38.47-3.31,1.05-5.03.59-1.79-.08-3.73,0-5.61s1.66-4.06,3.43-3.41c-.78-1.81-.59-5.74.44-8.34l5.77-2.46c.21-.05.4-.13.56-.24l16.9-7.21c.84.14,1.68.18,2.5-.03.92-.25,1.71-1.04,2.05-1.91l2.15-.92c1.08.41,2.18.69,3.33.68,2.02-.02,4.18-1.23,4.58-3.21.74,2.78,5.15,3.55,6.79,1.18.65-.94,1.04-2.31,2.17-2.53.5-.1,1.02.09,1.48.29,1.52.68,3.62,4.02,5.14,6.53.32,1.05.74,1.87,1.38,2.27.49.08,3.58.62,7.12,1.2-.39.72-.15,1.59.89,1.87,1.39.37,3.38-.46,4.36.27,1.08.8-.84,2.17-.18,3.15.42.62,1.63.77,2.44,1.18.96.5,1.32,1.36,2.22,1.9.92.55,2.4.67,3.56.3,1.27.04,2.94-.56,3.38.29.12.23.07.49.07.73,0,.97.84,1.89,2.03,2.22,1.19.33,2.66.05,3.54-.67.85-.71,1.12-1.73,2.03-2.39.29-.21.63-.38.97-.55.33.28.74.5,1.21.63,1.19.33,2.66.05,3.54-.67.85-.71,1.12-1.73,2.03-2.39.77-.55,1.96-.84,2.32-1.59.57-1.19-1.47-2.57-.47-3.6.91-.93,2.97-.17,4.32-.72.52-.21.81-.59.91-1.02,2.54-1.3,5.17-4.3,8.57-5.44.09.03.18.05.27.08-.06.43-.21.87-.1,1.29.48,1.93,4.12,0,5.29,1.6.87,1.21-.57,3.36.64,4.23.58.41,1.37.18,2.08.18,1.22,0,2.4.85,2.79,2.01.29.87.19,1.89.74,2.62.67.88,1.95.91,2.99,1.3.32.12.62.28.89.46.15-.43.36-.86.59-1.22.78-1.2,1.69-2.77.85-3.94Z"/>
        <path d="M341.97,90.71c-.8-.93-2.11-.94-2.96-1.76-1.09-1.07-.22-2.84-.55-4.16-.57-2.25-3.41-2.54-5.33-2.59l.39.43c1.25-1.97.04-4.46-2.18-4.89-.81-.16-1.6-.18-1.87-1.11-.16-.55-.06-1.16-.25-1.7-.48-1.37-1.95-1.02-3.09-1.09l.44.22c-.19-.44-.35-1.04-.63-1.42-.15-.19-.34-.1-.46-.38-.22-.55.19-1.48.02-2.11-.37-1.41-1.97-1.66-3.19-1.9l.28.3.37-.54c.55-.56-.56-.54-.87-.42-.82.34-1.49.21-1.57-.61-.05-.47-1.45-.15-1.45.29v.72c.43-.15.86-.29,1.3-.44-2.71-1.2-4.81-4.31-8.07-3.99-1.94.19-3.51,1.57-5.5.72-1.67-.72-2.79-2.29-2.91-4.1-.03-.44-1.01-.13-1.17-.02-1.78,1.11-3.78,1.73-5.89,1.71-1.3,0-2.32-.43-3.54.05h.96c-1.51-1.47-3.87-3.37-6.16-2.97-1.26.22-2.44.94-3.64,1.38-1.91.7-3.35.31-5.05-.65-1.49-.84-4.09-2.48-5.85-1.24-.38.27-.43.51-.19.88.12.19,1.19,1.13,1.39,1.14l.47-.35-.61-.03c-.38-.06-.74-.22-1.09-.38-.51-.23-.99-.53-1.49-.8-1.03-.55-2.09-.96-3.27-.86-2.36.21-3.72,2.18-5.76,3.06-1.4.6-2.59-.25-3.78-.93-1.04-.59-2.09-1.01-3.3-.91-2.17.18-3.88,1.61-5.74,2.59-1.37.72-2.56.84-3.84-.17-.89-.7-1.64-1.61-2.76-1.95-1.63-.49-3.19.31-4.4,1.36-1.38,1.21-2.98,3.73-5.09,3.27-2.2-.48-4.03-2.48-6.43-1.55-.52.2-1,.52-1,1.13s.64,1.06.62,1.61c-.02.36.74.33-.8.13-.39-.05-.78-.19-1.16-.28-.57-.13-1.14-.24-1.73-.21-.92.04-1.81.36-2.58.87-1.69,1.13-2.59,3.05-3.93,4.51-1.05,1.14-2.1,1.49-3.63,1.49-1.25,0-2.51.04-3.61.74-.98.62-1.54,1.63-2.08,2.62-.29.55-.57,1.13-.95,1.63-.78,1.02-1.69,1.06-2.86.99-1.3-.07-2.56-.03-3.65.77-.85.62-1.35,1.56-1.83,2.48-.6,1.13-1.14,2.58-2.66,2.37-1.12-.15-2.35-.41-3.3.42s-.61,2.05-.56,3.15c.08,1.86-1.44,3.68-3.42,3.16-.31-.08-1.11.08-1.17.48-.33,2.14-.59,4.3-.88,6.45l1.45-.18c.02-.85.25-1.56-.72-1.85-1.04-.32-2.31.26-2.99,1.05-1.27,1.46-.37,3.56-.77,5.26-.46,1.92-2.17,3.55-4.19,3.57-.28,0-1.27.25-.95.69,1.16,1.65,2.22,3.49,2.61,5.5.18.92.21,1.9-.12,2.8-.4,1.1-1.3,1.64-2.2,2.31-1.51,1.13-1.99,2.84-1.18,4.59.17.37.57.78.63,1.19.05.34-.11.54-.13.85-.04.56.24.78.68,1.08v-.47c-1.2,1.24-2.36,2.66-2.86,4.34-.22.73-.29,1.53-.07,2.26.16.54.92,1.2.66,1.72-.21.41-.92.72-1.26,1.03-.38.36-.66.75-.71,1.28-.08.76.16,1.57.14,2.34-.02,1.05-.51,1.81-.79,2.78-.2.69-.11,1.44.16,2.1.12.3.28.6.47.86.22.31.8.69.89,1.05.2.81-1.31,1.3-1.07,2.12.13.45.6.33.64.91.03.4.13.04-.08.36-.13.19-.45.34-.62.52-.89.98-.94,2.26-.7,3.5s.81,2.81,1.94,3.52c.51.32,1.13.41,1.73.38.28-.01.54-.06.81-.13.08-.02.24-.12.33-.11-.47,0,.38.44.41.46l.22-.5c-1.38.97-3.02,2.24-3.44,3.98s.75,2.94,2.24,3.47c.72.26,1.48.38,2.22.53.29.06,1.11.1,1.31.31.29.3.31,1.43.38,1.81.22,1.23-.64,1.42-1.47,2.1-.61.5-1.18,1.13-1.35,1.93-.35,1.73,1.18,3.14,2.67,3.62.45.14.91.22,1.37.28.31.03.82-.05,1.09.1.48.26.9,1.45,1.17,1.91,1.92,3.38,3.75,6.81,5.57,10.24,2.47,4.67,4.91,9.37,7.33,14.07.08.16.26.22.44.22,4.59-.13,9.17-.27,13.76-.4l-.44-.22.13.82c.03.18.31.21.44.22,1.31.04,3.24.49,4.45-.19,1.13-.63.65-1.63.36-2.63-.94-3.18,2.4-6.06,1.21-9.24-.19-.52-.51-.95-.93-1.31-.49-.42-1.3-.76-1.56-1.39-.56-1.36,1.41-2.26,2.01-3.26,1.11-1.84-.14-4.18-2.09-4.7l.23.41c1.63-2.14,1.39-5.33.79-7.77-.55-2.2-1.21-4.37-1.92-6.52-.15-.46-.48-2.44-1.02-2.69l.1.37c1.28-1.79,1.14-3.55.6-5.6-.26-.99-.58-1.98-.68-3-.14-1.37.31-2.44,1.02-3.58,1.13-1.81,1.47-3.29.67-5.34s-1.98-3.86-1.27-6.13c.57-1.83,1.97-3.46,2.18-5.41s-1.24-2.93-2.48-4.23c-1.61-1.67-.76-3.68-.53-5.69.21-1.86-.44-2.82-2.1-3.59-2.96-1.36-.04-4.18.26-6.32.19-1.34-.12-2.67-.19-4.01-.06-1.16.4-4.2,2.24-3.7.26.07,1.34-.14,1.17-.59-.99-2.52-.48-5.78.44-8.24l-.44.39c7.39-3.15,14.78-6.31,22.17-9.46.28-.12.56-.25.85-.36.57-.22-.62.05.49.12,2.02.12,3.85-.64,4.71-2.55l-.44.39c.72-.31,1.44-.61,2.15-.92l-.86.05c3.16,1.14,8.17,1.08,9.21-2.97-.48.1-.97.19-1.45.29.69,2.19,3.14,3.09,5.27,2.72,1.01-.17,1.99-.63,2.67-1.4.38-.43.62-.95.91-1.44.27-.47.51-1.04,1.15-1,.35.02.82.32,1.1.53,1.19.88,2.07,2.29,2.87,3.5.5.76,1.06,1.53,1.47,2.34.33.65.49,1.38.94,1.97.62.83,1.37.82,2.33.98,1.88.32,3.77.64,5.66.95l-.28-.3c-.56,1.3.46,2.1,1.67,2.25.97.12,1.92-.17,2.89-.11,1.17.08,1.06.78.72,1.61-.55,1.36-.22,1.99,1.19,2.51.89.33,1.56.62,2.25,1.33.57.58,1.08,1.06,1.87,1.34,1.44.5,2.9.13,4.36-.01.44-.04,1.3-.29,1.67.05.19.17.15,1.1.24,1.4.18.57.63,1.04,1.12,1.36,1.28.84,3.06.8,4.44.25,1.78-.71,2.28-2.63,3.93-3.47h-.96c2.1,1.57,5.27.97,6.8-1.11.5-.69.9-1.3,1.67-1.74.6-.34,1.28-.57,1.74-1.11.77-.9.16-1.74-.23-2.65-.42-.99-.08-1.36,1.03-1.39.63-.01,1.26.03,1.89-.06.52-.08,1.08-.24,1.52-.55.4-.27.52-.65.83-.97.42-.43,1.16-.73,1.66-1.09.63-.46,1.24-.94,1.86-1.41.66-.5,1.33-1,2.03-1.44.32-.2.65-.4.99-.58.28-.15.57-.29.87-.41.39-.16.47-.19.25-.1l-.28-.3c-.41,2.25.9,2.59,2.86,2.53,1.01-.03,2.31-.15,2.58,1.1.21.98-.36,2.02-.05,2.99.27.82,1.08,1.07,1.87,1.07.86,0,1.53-.16,2.31.34.59.37.99.92,1.18,1.59.32,1.13.22,2.29,1.31,3.02,1.03.68,2.36.67,3.41,1.32.37.23,1.15-.05,1.3-.44.64-1.64,2.51-3.39,1.44-5.26-.28-.49-1.67,0-1.45.39,1,1.75-.82,3.47-1.44,5.05l1.3-.44c-.99-.61-2.13-.64-3.14-1.16-1.32-.69-.94-2.36-1.54-3.51-.39-.75-1.09-1.3-1.89-1.58-.99-.34-3.02.25-3.26-1.02-.29-1.5.87-3.4-1.16-4.11-.79-.27-1.65-.18-2.47-.16-1.45.04-2-.28-1.71-1.9.03-.19-.13-.26-.28-.3-1.08-.31-2.34.54-3.25,1.06-1.2.68-2.3,1.53-3.39,2.37-.61.47-1.22.94-1.86,1.38-.39.27-1.05.5-1.37.84-.16.17-.17.42-.31.58-.34.4-.91.36-1.37.37-.62.01-1.24-.04-1.85.05-.76.12-1.76.45-2.05,1.26-.35.99.66,1.72.75,2.65.12,1.18-2.16,1.78-2.87,2.6-.5.56-.81,1.34-1.41,1.8-1.03.78-2.51.62-3.49-.12-.26-.19-.68-.15-.96-.01-.67.34-1.28.66-1.79,1.21-.43.46-.7,1.03-1.11,1.5-.84.99-2.32,1.19-3.45.58-.98-.52-1.06-1.14-1.2-2.12-.16-1.07-1.18-1.12-2.08-1.07-1.62.09-3.62.81-5.09-.09-.7-.43-1.13-1.16-1.79-1.63-.55-.4-1.18-.53-1.8-.78-1.86-.78-.54-1.48-.42-2.81.25-2.96-6.98.34-5.58-2.88.07-.17-.16-.28-.28-.3-1.74-.28-3.47-.57-5.2-.87-1.21-.21-2-.12-2.61-1.33-.31-.61-.49-1.22-.85-1.81-.41-.68-.84-1.35-1.28-2.01-.8-1.2-1.65-2.49-2.77-3.42-.82-.67-1.89-1.06-2.95-.83-1.12.24-1.72,1.11-2.25,2.04-.72,1.25-1.56,2.05-3.11,1.8-1.3-.21-2.38-1.06-2.78-2.32-.16-.51-1.35-.12-1.45.29-.42,1.66-1.9,2.65-3.57,2.71-1.11.04-1.98-.49-3.03-.62-.34-.04-.55-.04-.89.06-.64.2-1.3.53-1.9.81-.18.08-.37.14-.52.27-.19.16-.32.59-.42.73-.59.87-1.41,1.08-2.42,1.02-1.1-.06-1.51.05-2.48.47-1.31.56-2.62,1.12-3.93,1.68-4.97,2.12-9.93,4.24-14.9,6.36l-2.52,1.08c-.45.19-.97.32-1.26.74-.77,1.12-.86,3.35-.91,4.65s0,2.6.47,3.79l1.17-.59c-1.74-.48-3.36.59-4.12,2.13-1.13,2.29.25,4.8-.41,7.16-.43,1.57-2.45,3.84-1.05,5.43.68.77,1.86.79,2.54,1.54.76.84.54,2.06.36,3.08-.34,1.93-.74,3.75.75,5.3.7.73,1.61,1.28,2.08,2.21.52,1.03.29,2.11-.11,3.14-.75,1.9-2.16,3.68-2.02,5.82.14,2.29,1.95,4.14,2.03,6.43.05,1.53-1.01,2.63-1.67,3.91-.51,1-.64,2.05-.5,3.16.35,2.8,2.03,5.39.16,8.01-.1.14-.06.3.1.37-.2-.09-.14-.18-.06.07.07.21.14.41.21.62.21.62.42,1.23.62,1.85.66,2.03,1.28,4.08,1.81,6.15.6,2.34.96,5.47-.63,7.56-.16.21.05.36.23.41,1.06.28,1.75,1.27,1.89,2.32.18,1.31-.62,2-1.47,2.85-.52.53-1.09,1.15-1.01,1.95.11,1.01,1.08,1.41,1.76,2.01,2.16,1.87.44,4.87-.23,7.02-.4,1.29-.46,2.4-.04,3.68.26.8.56,1.32-.43,1.36-.82.04-1.67-.05-2.49-.08l.44.22-.13-.82c-.03-.17-.31-.22-.44-.22-4.59.13-9.17.27-13.76.4l.44.22c-3.46-6.72-6.94-13.44-10.56-20.09-.68-1.25-1.36-2.49-2.06-3.72-.29-.51-.58-1.02-.87-1.52-.21-.36-.48-1.07-.82-1.29-.52-.33-1.63-.08-2.25-.23-1.08-.25-2.1-.89-2.51-1.96-.78-2,1.43-3.04,2.73-4.02.09-.07.17-.2.14-.31-.18-1-.37-2.01-.55-3.01-.02-.12-.19-.17-.28-.2-1.56-.5-3.84-.41-5-1.7-1.81-2.02.78-4.37,2.36-5.48.11-.08.43-.34.22-.5-.86-.69-1.27-.67-2.28-.51-1.5.24-2.26-1.4-2.63-2.59s-.67-3.01.45-3.96c.67-.57,1.25-.91.5-1.92-.3-.4-.45-.2-.12-.72.23-.35.58-.62.73-1.02.14-.36.14-.63-.07-.96-.48-.73-1.16-1.17-1.39-2.09-.26-1.05.18-1.66.52-2.58.24-.67.31-1.37.29-2.08s-.37-1.76.02-2.42c.27-.45.82-.71,1.21-1.04.3-.25.69-.58.71-1.01.03-.63-.67-1.17-.82-1.78-.53-2.15,1.32-4.39,2.69-5.82.16-.17.2-.33,0-.47-.7-.47-.11-.95-.25-1.61-.2-.94-.96-1.6-1.02-2.63-.15-2.38,2.46-2.79,3.46-4.57,1.71-3.03-.55-6.89-2.29-9.36l-.95.69c2.41-.02,4.75-1.3,5.82-3.51.73-1.5.33-2.92.47-4.51.03-.32.85-2.81,1.53-1.76.11.17-.02.9-.03,1.12-.02.59,1.39.3,1.45-.18.29-2.15.55-4.31.88-6.45l-1.17.48c1.91.5,4.12-.35,5.19-2.02.63-.98.58-1.91.5-3.02-.07-1.01-.07-1.75,1.23-1.74.6,0,1.13.21,1.75.13,1.96-.24,2.79-1.88,3.63-3.45.62-1.17,1.19-2.13,2.63-2.24s2.71.32,4.05-.4c2.08-1.12,2.17-3.72,3.93-5.06,1.18-.9,3.02-.33,4.42-.62.92-.19,1.76-.61,2.49-1.21,1.63-1.33,2.47-3.36,4.04-4.74,1.33-1.16,2.5-.6,4.06-.33.84.14,1.9.17,2.65-.33.45-.3.57-.66.43-1.18-.21-.75-1.21-1.78.39-1.49,2.27.4,3.86,2.31,6.33,1.64,1.77-.48,3.01-1.91,4.28-3.14.59-.57,1.37-1.45,2.23-1.55,1.36-.16,2.4,1.35,3.38,2.06,1.68,1.22,3.61.93,5.37.04,2.17-1.09,4.24-3.23,6.79-1.98,1.06.52,1.98,1.29,3.16,1.54,1.01.22,2.04.05,2.98-.37,2.3-1.02,3.94-3.7,6.7-2.41,1.14.54,2.19,1.33,3.45,1.57.63.12,1.85.23,2.32-.35.38-.48-.06-.76-.45-1.06-.28-.22-.56-.42-.83-.65-.32-.28.18.21-.25.1.62.16,1.13.12,1.75.39,1.29.56,2.41,1.45,3.74,1.93,1.2.43,2.44.44,3.67.14.74-.18,1.44-.46,2.14-.75.81-.33,1.74-.92,2.63-.86,1.63.11,3.38,1.68,4.47,2.75.23.23.7.12.96.01l.26-.1c.26-.12.24-.09-.06.07.46.04.92.14,1.38.17.95.07,1.91.03,2.85-.11,1.9-.28,3.7-.95,5.33-1.97l-1.17-.02c.2,3.2,3.47,5.39,6.53,4.76,1.09-.23,2.14-.96,3.27-.97.88,0,1.72.43,2.46.88,1.55.95,2.84,2.27,4.52,3.01.28.13,1.3.02,1.3-.44v-.72c-.48.1-.96.19-1.45.29.18,1.73,2.46,1.28,3.59.82l-.87-.42c-.3.3-.49.57-.65.96-.07.17.16.28.28.3.87.17,1.95.28,2.45,1.1.47.77.18,1.82.14,2.67,0,.12.03.21.15.26.58.24.72.84.96,1.38.08.18.27.21.44.22.78.05,1.81-.19,2.21.66.17.37.12.88.18,1.28.12.82.42,1.4,1.22,1.69,1.02.37,2.02.15,2.77,1.12s.86,2.2.22,3.19c-.18.29.16.42.39.43,1.2.03,2.61.11,3.61.88,1.11.85.9,2.13.84,3.36-.04.95.08,1.84.88,2.45.85.65,1.99.72,2.72,1.56.33.38,1.71-.14,1.35-.57Z"/>
      </g>
      <g>
        <path d="M342.78,100.56c.21-.5-.12-.78-.62-1.01.14.44.26.88.35,1.34.11-.09.21-.19.27-.33Z"/>
        <path d="M343.5,100.46c.06-.14.08-.28.06-.43-.01-.13-.08-.24-.15-.34-.07-.09-.15-.16-.24-.23-.14-.09-.28-.17-.43-.24-.12-.05-.26-.05-.38-.04-.16.01-.33.05-.48.11-.1.05-.21.1-.3.17-.07.06-.18.18-.15.29.14.44.26.89.35,1.34.01.06.09.11.14.14.12.05.26.05.38.04.27-.02.57-.11.77-.28.18-.15.32-.31.42-.52.05-.1-.06-.2-.14-.23-.13-.06-.33-.06-.47-.03-.19.03-.39.08-.55.18-.12.07-.22.15-.28.28,0,.02-.02.04-.03.06l.05-.1c-.04.06-.08.12-.13.17l.1-.1s-.07.07-.11.1l1.3-.1c-.09-.45-.21-.9-.35-1.34l-1.31.53c.1.05.2.1.29.15l-.09-.06c.12.08.24.17.32.3l-.05-.08c.05.09.08.18.08.28v-.09c0,.1-.03.19-.06.27-.04.11.06.2.14.23.13.06.33.06.47.03.19-.03.39-.08.55-.18.12-.07.23-.15.28-.28Z"/>
      </g>
      <g>
        <path d="M342.51,100.89c-.19.16-.43.29-.61.46-.59.56-.47,1.56-.04,2.24.31.49.74.87,1.16,1.27-.08-.63-.14-1.27-.2-1.89-.06-.68-.16-1.39-.31-2.09Z"/>
        <path d="M341.86,100.96c-.34.27-.73.47-.93.87-.17.34-.2.75-.13,1.12.17.91.89,1.54,1.53,2.15.06.06.3.03.36.03.16-.02.31-.05.47-.1.13-.04.6-.16.58-.36-.16-1.33-.24-2.66-.51-3.98-.04-.19-.67-.03-.78,0-.17.05-.34.1-.5.19-.06.04-.19.11-.18.19.27,1.31.35,2.65.51,3.98l1.41-.43c-.6-.57-1.26-1.16-1.44-2.01-.07-.33-.07-.7.07-1.01.17-.38.52-.54.83-.79.25-.2-.23-.2-.33-.19-.32.04-.71.13-.97.33Z"/>
      </g>
      <g>
        <path d="M343.51,105.37c-.16-.18-.33-.34-.5-.51.29,2.35.85,4.69,2.7,6.05,1.91-1.9-.42-3.53-2.2-5.54Z"/>
        <path d="M344.18,105.07c-.16-.18-.33-.34-.5-.51-.37-.36-1.47-.13-1.39.5.29,2.33.88,4.77,2.86,6.24.32.24.92.03,1.16-.22.41-.42.78-.94.84-1.54.06-.55-.13-1.06-.4-1.53-.65-1.13-1.71-1.99-2.57-2.95-.39-.44-1.78.11-1.33.61.79.89,1.72,1.68,2.39,2.67.24.35.45.76.46,1.19,0,.48-.26.87-.58,1.2l1.16-.22c-1.81-1.35-2.28-3.75-2.54-5.85l-1.39.5c.17.16.34.33.5.51.4.44,1.78-.12,1.33-.61Z"/>
      </g>
    </g>
    <path d="M242.14,166.25l2.61,6.65c1.59,5.19,6.11,15.39,8.06,18.13,2.75,3.84,30.76,3.88,36.08.39,5.32-3.49,7.54-19.63,8.81-23.41l11.21.03c1.25,4.74,5.54,19.71,7.76,21.65,2.23,1.94,15.03.89,16.47.77,1.2-.11,2.87-.27,4.69-.51,4.82-.61,10.66-1.74,12.37-3.62,2.55-2.8,4.95-13.11,6.98-22.85l.34-1.53c.07-.37.17-.63.17-.73h0l.36-1.76c-16.49-6.82-37.54-4.43-49.87,5.67l.11.17-10.94-.08c-12.73-7.53-34.26-10.85-49.17-4.14h0l-46.85,10.38.08,4.2,40.73-9.41ZM317.9,188.08c-1.39-1.21-4.72-11.68-7.04-19.85,10.73-8.55,29.7-10.67,44.4-5.4v.21c-1.08,5.22-3.97,19.12-6.47,21.87-2.97,3.25-28.47,5.05-30.89,3.21v-.05ZM256.06,189.72c-4.2-7.53-7.71-15.42-10.5-23.57,13.22-6.88,36.99-4.69,49.43,2.44-1.58,6.78-3.39,18.59-7.21,21.08-5.48,3.6-30.01,2.49-31.73.05h0Z"/>
    <path d="M332.99,165.66c1.66-.92,3.86-.27,4.99.68.27.22.78.91,1.14,2.01.46,1.41-.07,3.03-.93,4.03-1.15,1.34-3.13,1.61-4.67.95-2.09-.91-2.83-3.37-2.36-5.19.09-.33.49-1.74,1.84-2.48"/>
    <path d="M272.58,168.41c-1.67-.83-4.31-.52-5.36.49-.25.24-.91.91-1.2,2.03-.37,1.43.23,3.02,1.12,3.98,1.19,1.27,3.13,1.45,4.6.7,1.99-1.02,2.57-3.52,2.02-5.31-.1-.33.21-.98-1.14-1.65"/>
    <path class="cls-24" d="M273.12,223.39c-1.3,1.24-2.69,2.67-2.75,4.47-.02.65.14,1.29.3,1.93.25.98.5,1.96.75,2.93.05.19.1.4.25.54.15.16.38.21.6.25.68.15,1.4.29,2.08.13.68-.16,1.32-.72,1.33-1.42,0-.29-.09-.59.01-.85.21-.52.93-.49,1.47-.65,1.35-.41,1.56-2.16,2.11-3.46.74-1.75,2.44-2.94,4.21-3.62.9-.35,1.85-.59,2.66-1.12.81-.52,1.47-1.41,1.4-2.37"/>
    <path class="cls-24" d="M331.3,221.51c1.38,1.14,2.87,2.48,3.06,4.26.07.65-.05,1.3-.17,1.94-.18.99-.36,1.99-.54,2.98-.04.2-.08.41-.21.56-.14.17-.37.24-.58.3-.67.19-1.37.39-2.06.28-.69-.11-1.37-.63-1.43-1.33-.02-.29.05-.59-.07-.85-.24-.5-.96-.42-1.51-.54-1.37-.31-1.71-2.05-2.35-3.3-.86-1.7-2.64-2.76-4.46-3.32-.92-.28-1.88-.46-2.73-.93-.84-.46-1.57-1.3-1.56-2.26"/>
    <path class="cls-15" d="M210.94,222.11c-13.76,14.72-17.73-9.07-17.73-9.07-10.5-11.75-10.94-24.64-10.88-33.47.06-8.83,9.76-9.04,9.76-9.04,8.27.61,12.1,4.9,19.96,32.44"/>
    <path class="cls-30" d="M205.15,198c-2.02-3.96-4.23-7.87-6.96-11.39-1.41-1.81-3-3.6-4.9-4.91-.79-.55-1.72-1.08-2.69-1.22-1.04-.15-1.45.68-1.84,1.51-1.76,3.7-1.49,8.06-.4,11.91.18.64,1.63.25,1.45-.39-.85-3.01-1.18-6.19-.41-9.26.2-.81.48-1.6.86-2.34.1-.21.24-.4.34-.6s.03-.06.09-.14l-.67.31c-.26,0-.12-.05-.02,0,.04.02.13.02.17.03-.25-.06.07.02.14.04.64.21,1.09.44,1.68.84,2.69,1.77,4.75,4.51,6.54,7.13,1.99,2.9,3.7,5.97,5.29,9.1.28.55,1.67.03,1.33-.63h0Z"/>
    <path class="cls-30" d="M202.25,199.89c-6.35-.04-2.09,7.45-2.78,10.89-.04.18-.18.41-.2.57,0,.04-.19.27-.2.26l.42-.12c.44-.03.55-.08.32-.16,0-.04-.45-.41-.47-.44-.21-.27-.38-.58-.53-.88-.81-1.58-1.28-3.36-1.7-5.08-.6-2.45-.97-4.69-.8-7.19.19-2.7.76-6.78,3.53-8.1.85-.41-.5-.28-.82-.13-2.52,1.2-3.48,3.88-3.91,6.48-.32,1.93-.48,3.99-.15,5.93.39,2.27.89,4.54,1.66,6.71.33.94.82,2.67,1.81,3.17.68.34,1.82-.06,2.22-.68.51-.79.3-1.96.18-2.82-.17-1.22-1.95-7.9.45-7.89.28,0,.82-.06,1.02-.27.15-.16.28-.27-.07-.27h0Z"/>
    <polygon class="cls-6" points="458.11 867.89 492.61 867.89 476.13 953.85 445.12 953.85 458.11 867.89"/>
    <g id="freepik--Character--inject-2">
      <path class="cls-27" d="M384.84,437.13l-20.59-102.38s14.5-15.35-6.64-24.22c-10.71-4.5-41.72-20.24-48.24-22.46,1.48,8.78,3.84,22.29-2.29,26.9-8.57,6.46-15.7,5.35-26.42,5.37-10.29.02-24.04-6.99-33.61-10.63-17.91-6.81-36.1-23-39.83-42.77l-23.12,22.36s-57.99,33.68-66.87,37.04c-8.88,3.36,20.6,211.53,20.6,211.53l-28.28,73.04c-2.24,9.29-28.36,38.53-8.81,93.54,0,0,188.13-2.53,208.6-2.33,23.78.23,73.67-10.37,79.97-21.56,6.3-11.19-4.48-243.43-4.48-243.43Z"/>
    </g>
    <path class="cls-16" d="M463.98,779.98c1.31-5.58,2.92,14.7,4.74,9.29,4.12-12.24,9.4-24.08,15.48-35.47,6.25-11.71,13.4-22.95,21.43-33.52,5.45-7.18,11.33-14.08,17.65-20.53-115.3-33.26-379.47-48.23-379.47-48.23,0,0-80.35,51.31-42.82,138.16,11.24,26.02,37.54,24.12,75.05,25.64,88.84,3.6,221.38-3.51,286.64-17.01.44-.09.87-18.24,1.3-18.33Z"/>
    <path class="cls-16" d="M466.96,800.54c2.03-5.15,4.34-10.19,6.84-15.11,5.65-11.13,12.36-21.71,19.76-31.75,7.61-10.32,16.02-20.07,25.18-29.06,6.22-6.11,27.59,10.73,34.54,5.45-12.7-125.49-444.59-68-444.59-68,0,0-28.38-7.24-18.61,92.1,9.18,93.34,284.79,39.34,375.59,34.01.43-.03.86,12.4,1.28,12.37Z"/>
    <path class="cls-23" d="M277.93,451.05c.07,0,.14,0,.21.03.03.27.15.55-.08.79-.04-.27-.09-.55-.13-.82Z"/>
    <path class="cls-23" d="M289.9,528.56c-.06.04-.12.07-.19.09"/>
    <path class="cls-13" d="M341.1,441.59c-.1,0-.19-.02-.29-.03.09-.05.19-.1.28-.15.04.06.04.12.01.18Z"/>
    <path class="cls-13" d="M300.54,447.65c.09-.06.17-.13.26-.19.03.05.06.1.09.14-.12.02-.23.03-.35.05Z"/>
    <path class="cls-13" d="M340.23,441.66c-.13.02-.25.04-.38.05.11-.13.24-.15.38-.05Z"/>
    <path class="cls-27" d="M278.82,450.95c.09-.12.2-.15.32-.05-.11.02-.22.04-.32.05Z"/>
    <path class="cls-16" d="M556.82,796.82c-22.88,65.41-73.43,227.37-104.95,306.47,0,0-86.68,4.41-93.21-15.53,0,0,2.36-401.64,55.49-408.8,39.16-5.28,101.56-9.44,121.78,7.19,24.27,19.96,38.91,59.16,20.89,110.67Z"/>
    <path class="cls-16" d="M514.45,752.98s-13.31-2.55-32.32-2.17c3.68-7.98,4.94-13.93,4.94-13.93-1.77-2.02-3.63-4.08-5.59-6.19-10.88,2.54-21.51,6.05-31.83,10.24-12,4.87-23.6,10.65-34.68,17.25-10.68,6.36-20.88,13.53-30.29,21.55-2.66,2.27-5.26,4.62-7.78,7.04.32.1-5.22-.72-4.9-.62-36.76,38.39-35.83,124.08-57.1,201.84-15.6,57.03-32.4,103.51-32.4,103.51,8.44,19.19,113.59,27.07,113.59,27.07,37.38-103.5,118.37-365.59,118.37-365.59Z"/>
    <path class="cls-28" d="M405.62,1103.21c.5-1.48,1.01-2.96,1.51-4.44,1.41-4.12,2.81-8.25,4.21-12.37,2.18-6.42,4.36-12.85,6.54-19.27,2.79-8.23,5.57-16.46,8.35-24.69,3.29-9.75,6.58-19.5,9.86-29.25,3.61-10.72,7.21-21.45,10.8-32.17,3.83-11.45,7.66-22.9,11.47-34.36s7.72-23.22,11.55-34.83c3.81-11.53,7.6-23.06,11.37-34.6,3.56-10.88,7.1-21.77,10.61-32.66,3.22-9.99,6.41-19.98,9.57-29.99,2.7-8.57,5.38-17.15,7.99-25.75,2.06-6.79,4.09-13.59,6.02-20.42,1.3-4.6,2.58-9.21,3.63-13.88,3.54-15.78,4.02-32.62-1.11-48.11-5.04-15.22-15.37-28.26-29.15-36.5-7.23-4.32-15.26-7.29-23.54-8.77-2.79-.5-5.62-.76-8.43-1.1-7.77-.93-15.55-1.86-23.32-2.79-11.11-1.33-22.22-2.66-33.33-3.99-8.37-1-16.74-2-25.11-3.01-1.26-.15-2.52-.3-3.78-.45-.51-.06-1.13.08-1.59.31-.14.07-.82.46-.3.52,4.86.58,9.73,1.17,14.59,1.75l31.51,3.77c10.16,1.22,20.32,2.43,30.47,3.65,5.89.71,11.93,1.16,17.76,2.24,16.9,3.12,32.47,12.6,42.56,26.56,9.36,12.94,13.43,28.86,13.17,44.71-.16,9.64-1.87,19.1-4.33,28.38-1.55,5.88-3.25,11.72-4.97,17.54-2.31,7.81-4.7,15.6-7.12,23.38-2.92,9.39-5.88,18.77-8.88,28.13-3.35,10.5-6.74,20.99-10.15,31.48-3.67,11.29-7.36,22.57-11.07,33.84-3.81,11.59-7.64,23.18-11.48,34.76-3.83,11.54-7.67,23.07-11.52,34.6s-7.44,22.24-11.17,33.36c-3.45,10.26-6.9,20.52-10.36,30.78-3.02,8.97-6.05,17.93-9.09,26.89-2.47,7.31-4.95,14.62-7.43,21.93-1.79,5.27-3.58,10.54-5.37,15.81-.95,2.79-1.9,5.59-2.85,8.38-.12.35-.24.7-.36,1.05-.11.33,2.06.12,2.24-.43h0Z"/>
    <path class="cls-27" d="M86.95,705.99s26.93-18.09,48.67-25.47c84.06-28.52,248.19-58.81,248.19-58.81,0,0-269.7-17.64-280.43-8.67-10.73,8.96-24.65,74.59-16.43,92.95Z"/>
    <path class="cls-27" d="M94.88,563.37c-10.23,1.44-11.18-.33-21.34,1.55-.89-6.77-1.48-13.17-1.75-19.49-1.13-26.9.74-153.55,13.41-195.06,5.92-44.37,122.01-83.44,122.01-83.44l-39.83,162.41-3.17,123.51c-17.23,4.67-51.65,8.03-69.34,10.51Z"/>
    <g>
      <polyline class="cls-27" points="162.28 562.89 361.03 609.14 360.04 621.05"/>
      <path class="cls-10" d="M161.84,563.28c1.77.41,3.54.82,5.3,1.23,4.81,1.12,9.63,2.24,14.44,3.36l21.46,4.99c8.69,2.02,17.39,4.05,26.08,6.07,9.52,2.22,19.04,4.43,28.56,6.65,9.61,2.24,19.22,4.47,28.83,6.71,8.96,2.09,17.92,4.17,26.89,6.26,7.58,1.76,15.15,3.53,22.73,5.29,5.45,1.27,10.9,2.54,16.35,3.81,1.7.4,3.41.79,5.11,1.19.85.2,1.79.56,2.67.62.11,0,.22.05.33.08l-.28-.3c-.33,3.97-.66,7.94-.98,11.91-.05.57,1.41.3,1.45-.18.33-3.97.66-7.94.98-11.91.02-.19-.11-.26-.28-.3-1.77-.41-3.54-.82-5.3-1.23-4.81-1.12-9.63-2.24-14.44-3.36l-21.46-4.99c-8.69-2.02-17.39-4.05-26.08-6.07-9.52-2.22-19.04-4.43-28.56-6.65-9.61-2.24-19.22-4.47-28.83-6.71-8.96-2.09-17.92-4.17-26.89-6.26-7.58-1.76-15.15-3.53-22.73-5.29-5.45-1.27-10.9-2.54-16.35-3.81-2.59-.6-5.17-1.26-7.78-1.81-.11-.02-.22-.05-.33-.08-.46-.11-1.7.59-.89.78h0Z"/>
    </g>
    <path class="cls-10" d="M148.73,333.03c6.99,1.09,11.41,7.5,14.2,13.46,3.4,7.25,5.25,15.22,6.53,23.09.87,5.38,1.55,10.88,1.58,16.34.03,4.34-.19,8.68-.39,13.01-.7,15.18-1.71,30.35-2.67,45.51-1.23,19.37-2.47,38.74-3.6,58.12-1.06,18.24-2.06,36.49-2.65,54.76-.06,1.89-.12,3.77-.17,5.66-.02.61,1.44.31,1.45-.18.47-17.98,1.42-35.94,2.44-53.89,1.12-19.68,2.37-39.35,3.62-59.02,1.01-15.95,2.07-31.9,2.87-47.86.24-4.87.49-9.75.54-14.63.05-4.68-.36-9.35-.96-13.98-1.03-7.89-2.63-15.82-5.45-23.28-2.38-6.31-5.95-13.39-12.25-16.56-1.32-.67-2.74-1.11-4.21-1.34-.47-.07-1.7.67-.88.8h0Z"/>
    <path class="cls-27" d="M75.02,481.35s-3.5,60.9-3.23,64.09c1.29,15.05-5.16,40.59,12.41,72.24,15.11,27.22,46.17,35.44,82.19,11.91,36.02-23.53-37.9-87.57-37.9-87.57l-53.48-60.67Z"/>
    <path class="cls-10" d="M162.49,562.5c-5.82.41-11.7,1.47-16.94,4.13-4.75,2.41-8.6,6.15-11.35,10.69-1.82,2.99-3.17,6.24-4.28,9.55-.16.47,1.29.29,1.45-.19,1.75-5.26,4.19-10.44,8.07-14.49,3.52-3.66,8.01-6.05,12.89-7.36,3.25-.88,6.6-1.32,9.95-1.55.7-.05,1.21-.85.2-.78h0Z"/>
    <g>
      <path class="cls-27" d="M95.88,632.16c6.79,11.54,28.29,14.75,46.51,19.07,64.87,15.38,150.14,8.41,211.53,4.39l1.84-6.71"/>
      <path class="cls-10" d="M95.16,632.36c3.42,5.7,9.71,8.89,15.72,11.17,7.79,2.95,16.01,4.65,24.12,6.46,8.25,1.84,16.46,3.77,24.8,5.19,8.77,1.49,17.6,2.62,26.45,3.47,18.34,1.77,36.78,2.41,55.21,2.42,18.47.01,36.94-.62,55.38-1.56,17.03-.87,34.04-2.03,51.06-3.16,1.91-.13,3.82-.25,5.73-.38.25-.02.93-.13,1.02-.45.61-2.24,1.23-4.47,1.84-6.71.1-.38-1.32-.18-1.44.23-.61,2.24-1.23,4.47-1.84,6.71l1.02-.45c-16.54,1.08-33.08,2.24-49.63,3.16-18.12,1.01-36.26,1.75-54.41,1.91-18.39.17-36.8-.24-55.14-1.69-17.44-1.38-34.85-3.69-51.89-7.7-8.13-1.92-16.35-3.5-24.37-5.83-6.8-1.98-14.15-4.49-19.32-9.55-1.11-1.08-2.07-2.29-2.87-3.62-.24-.4-1.61.12-1.45.39h0Z"/>
    </g>
    <g>
      <path class="cls-27" d="M205.87,265.59s41.5,56.54,77.93,55.09c36.43-1.45,23.97-38.15,23.97-38.15h0l12.92,6.25s3.86,20.92-.68,29.03c-4.54,8.11-22.95,14.81-46.21,12.37-13.64-1.43-31.4-9.68-42.07-19.46-12.77-11.71-38.16-38.81-38.16-38.81l12.3-6.32Z"/>
      <path class="cls-7" d="M205.21,265.91c3.96,5.39,8.37,10.5,12.87,15.44,9.26,10.19,19.4,19.82,30.84,27.54,11.24,7.59,24.32,13.59,38.18,12.08,6.03-.66,12.13-2.56,16.61-6.82,3.36-3.19,5.38-7.45,6.27-11.96.79-4.04.72-8.23.17-12.29-.21-1.55-.49-3.09-.85-4.61-.2-.83-.34-1.8-.69-2.59-.05-.11-.07-.24-.11-.35l-1.14.68c3.78,1.83,7.56,3.66,11.34,5.48.41.2,1.1.72,1.56.75-.45-.03-.14-.46-.25-.08-.05.17.09.53.12.69.36,2.18.65,4.37.87,6.56.34,3.32.55,6.66.49,9.99-.06,3.14-.28,6.43-1.33,9.42-1.92,5.45-7.74,8.48-12.81,10.41-8.33,3.17-17.52,4.12-26.38,3.85-4.62-.14-9.23-.58-13.74-1.66-4.3-1.03-8.5-2.49-12.57-4.22-8.15-3.47-15.99-8.09-22.54-14.1-4.91-4.51-9.62-9.26-14.3-14.01-7.82-7.93-15.53-15.98-23.15-24.1-.14-.15-.28-.3-.43-.45l-.34.75c4.1-2.11,8.2-4.21,12.3-6.32.88-.45.09-1.23-.64-.85-4.1,2.11-8.2,4.21-12.3,6.32-.22.11-.6.47-.34.75,6.87,7.33,13.82,14.58,20.84,21.76,5.01,5.12,10.05,10.21,15.26,15.13,6.18,5.84,13.1,10.54,20.76,14.25,8.21,3.98,17,6.82,26.12,7.55,9.34.75,18.97.21,28-2.43,5.74-1.67,12.33-4.33,15.99-9.33,1.62-2.22,2.31-4.91,2.69-7.6.48-3.47.46-7,.27-10.49-.16-2.99-.46-5.98-.87-8.95-.12-.9-.26-1.8-.41-2.69-.06-.36-.05-.8-.31-1.07-.3-.32-1.04-.51-1.43-.69-1.03-.5-2.06-1-3.09-1.49-2.39-1.16-4.79-2.32-7.18-3.47l-1.36-.66c-.37-.18-1.32.16-1.14.68,1.7,5.03,2.35,10.69,1.94,15.96-.33,4.35-1.53,8.74-4.12,12.31-3.29,4.55-8.37,7.11-13.76,8.27-13.64,2.96-26.91-2.22-38.32-9.42-11.6-7.33-21.84-16.76-31.19-26.75-3.47-3.72-6.83-7.54-10.06-11.47-1.64-1.99-3.16-4.09-4.8-6.08-.08-.09-.14-.19-.21-.29-.39-.53-1.77.04-1.33.64Z"/>
    </g>
    <path class="cls-28" d="M355.24,810.91c7.68-3.16,15.05-7.04,22-11.58,1.28-.84-.72-1.01-1.39-.57-6.79,4.44-13.97,8.24-21.48,11.33-.32.13-.88.43-.63.84.24.37,1.22.09,1.5-.02h0Z"/>
    <path class="cls-33" d="M297.22,148.59c3.5.44,7.17-1.33,8.88-4.44s1.08-7.16-1.35-9.66c-.46-.48-1.83.12-1.33.64,2.1,2.16,2.79,5.56,1.54,8.34s-4.27,4.44-7.25,4.06c-.72-.09-1.47.94-.5,1.06h0Z"/>
    <path class="cls-26" d="M305.96,220.67c-7.54.17-24.06,5.87-27.34,9.33,0,0,7.69,10.7,25.18,10.3,17.48-.4,21.3-11.35,21.3-11.35,0,0-9.54-8.5-19.14-8.28Z"/>
    <path class="cls-20" d="M285.65,226.09s9.56-1.05,17.19-1.23c7.63-.17,17.22.45,17.22.45,0,0,1.09-6.22-12.75-5.9-13.84.31-21.65,6.68-21.65,6.68Z"/>
    <path class="cls-9" d="M305.98,237.27c-8.22-1.16-17.83-8.17-27.36-7.27,0,0,4.13,16.3,24.68,15.84,20.55-.47,21.8-16.89,21.8-16.89-9.56-.47-10.96,6.79-19.12,8.32Z"/>
    <path class="cls-9" d="M314.79,215.74c-4.32-.27-7.02,1.68-8.9,1.73-1.88.04-4.66-1.79-8.97-1.32-4.04.44-20.89,12.27-18.94,13.71,1.95,1.44,15.02-7.26,28.02-7.56,13-.29,17.85,8.01,19.73,6.48,1.88-1.53-6.88-12.78-10.94-13.04Z"/>
    <path class="cls-24" d="M277.44,221.98c.78-1.09,2.51-1.01,3.68-1.86.44-.32,1.24-.72,1.3-1.33.07-.79-1.85-.55-.68-.21,3.2.95,6.03-1.23,8.33-3.05l-3.2,1.29c-1.28.24.25.38.77.45,1.07.15,2.09-.06,3.12-.33,2.82-.74,3.3-2.39,5.59-4.02-1.35.45-2.7.9-4.06,1.35,1.23-.02,1.29.78,1.76,1.59.88,1.52,3.43.87,4.72.37l.19-.07c4.44-1.71.37-3.73-2.63-2.57l-.19.07c1.57.12,3.14.25,4.72.37-3.56-6.12-9.19-2.93-13.09,1.16l2.73-1.57-1.19.3c1.05,0,2.1,0,3.15,0-4.15-1.82-6.14.23-9.7,2.04l3.43-.92c-3.14-.2-6.46-1.12-8.87,1.84l-.45.46c-.84.96-.77,1.22.2.79,1.05-.24.99-.24-.18,0l-1.23.41c-1.94.71-3.31,1.7-4.53,3.39-1.71,2.37,5.07,1.74,6.3.02h0Z"/>
    <path class="cls-24" d="M314.38,215.38c.16-.03,2.51.38,2.77.55-.11-.07.52,1.16.98,1.43,1.76,1.05,3.37.04,5.12.01-.62-.22-1.23-.44-1.85-.66,1.32,1.1,1.03,2.57,2.89,3.32.61.24,1.63.44,1.65.47-.08-.12.13,1.59.19,1.88.13.59.85.86,1.34,1.01l.15.04c1.76.52,4.14-.41,5.25-1.8l.09-.12c-1.35.46-2.7.92-4.05,1.39h.25c-.7-.38-1.4-.75-2.1-1.11.13.59-.82,1.9-1.03,2.51-.85,2.41,5.98,1.57,6.82-.8.42-1.2,1.33-2.19,1.02-3.53-.19-.82-1.4-1.13-2.1-1.1-2.26.09-3.86.78-5.25,2.53,1.75-.6,3.5-1.2,5.25-1.8l-.15-.04,1.34,1.01c-.39-1.85-.63-2.99-2.28-3.92-.85-.48-1.15-.33-1.87-1.1-.27-.29-.27-.81-.55-1.11-.84-.86-1.69-1.04-2.87-1.08-.62-.02-1.22.05-1.82.13-.3.04-.59.11-.87.21-.57.17-.54.17.1-.02.55.02.65-.13.31-.44-.14-.28-.36-.5-.65-.63-.32-.25-.84-.41-1.22-.52-2.61-.71-5.15-.82-7.79-.3-1.06.21-3.3,1.31-2.92,2.71.4,1.5,2.88,1.09,3.88.89h0Z"/>
    <path class="cls-24" d="M301.87,213.95l-.34,4.72c-.06.72-.56,1.33-1.26,1.51-4.83,1.26-23.19,5.99-27.65,6.45-.11.01.61,1.8.5,1.79l-1.05.05c-1.7-.13-1.15-5.85.36-6.65,4.59-2.44,8.73-4.26,11.32-5.19,3.23-1.17,12.23-4.09,16.25-4.51,1.06-.11,1.95.77,1.87,1.83Z"/>
    <path class="cls-24" d="M310.16,211.94l-.75,4.24c0,.73.41,1.37,1.05,1.61,4.36,1.65,16.11,6.79,20.18,7.62.1.02.19.03.29.03h1.35c1.58.02,1.44-3.56.11-4.49-4.04-2.81-4.11-4.19-6.43-5.33-2.89-1.43-10.26-4.59-13.94-5.35-.97-.2-1.86.6-1.87,1.67Z"/>
    <g>
      <path class="cls-34" d="M335.53,250.22c.58-1.13.9-2.61,1.12-4.21,2.31-7.49,2.63-5.88,3.33-12.19-4.16,13.29-10.35,26.29-13.78,28.82-.12.09-.83.3-1.79.45-.1-.04-.2-.08-.31-.1-1.14-.21-2.7.59-3.54.06-.92-.58.54-1.8-.06-2.55-.38-.47-1.37-.51-2.05-.79-.81-.34-1.15-1.01-1.92-1.39-.78-.39-1.98-.39-2.9,0-1.03.05-2.34.64-2.75-.02-.11-.18-.09-.39-.1-.59-.06-.78-.8-1.47-1.78-1.66-.99-.19-2.15.13-2.81.77-.64.62-.79,1.47-1.49,2.06-.22.19-.49.34-.75.5-.29-.2-.63-.36-1.02-.43-.99-.19-2.15.13-2.81.77-.64.62-.79,1.47-1.49,2.06-.58.5-1.53.8-1.77,1.43-.38,1,1.36,1.98.62,2.87-.67.81-2.39.33-3.44.86-.19.1-.33.23-.44.37-6.36-.31-19.14-1.09-19.39-1.1l-8.89-3.71c-1.5-.83-35.36-26.78-35.36-26.78-.53-.89-6.73-7.15-7-8.01-.1-.05-.21-.1-.32-.13-.04-.01-.13-.04-.21-.08-.01.06-.03.13-.04.18-.04.38-.01.77.02,1.15.15,1.64.56,3.24,1.12,4.79.87,2.38,1.42,4.83,2.19,7.22.27.85.59,1.68.93,2.5.69.39,2.08,1.65,3.96,3.48.31.49.73.91,1.22,1.19.52.51,1.07,1.06,1.64,1.63-.24,2.36,2.11,4.95,4.52,4.52.1.1.21.21.31.31-.35,1.69,1.15,3.6,2.91,3.49.18-.01.36-.04.54-.07.81.8,1.64,1.61,2.48,2.42-.01.32-.03.65-.02.95.09,2.11,2.43,3.72,4.44,3.27.15.14.31.29.46.43-.35,2.78,2.67,5.58,5.42,4.88.13.11.26.22.39.33.43,1.92,2.31,3.36,4.26,3.52.75.6,1.5,1.16,2.23,1.7.79,1.9,2.77,3.33,4.85,3.25.06.03.11.07.17.1-.91,2.24,2.03,4.94,4.17,3.76.6-.33,1.11-.88,1.79-.99,1.84-.31,2.94,2.69,4.8,2.47.76-.09,1.32-.71,1.96-1.13,1.92-1.27,3.08-1.51,4.12.53,0,0,.43,2.14,3.38.98,1.65-.65,2.88-2.49,4.3-1.44.62.46,1.06,1.18,1.77,1.49,1.64.7,3.31-1.2,5.1-1.14,1.64.05,3.15,1.76,4.67,1.12,1.48-.62,1.4-2.84,2.48-4,.94-.13,1.85,2.29,2.79,2.13,2.17.8,4.61.52,6.43-.85.77-.57,1.08-1.66,1.92-2.11,1.37-.73,2.95.65,4.5.61,2.26-.05,3.16-2.74,3.38-5.1.22-.16.45-.31.66-.48,1.16.29,2.58-.47,2.78-1.69.08-.52-.01-1.08.07-1.58.18-.3.35-.61.5-.92.79-.73,2.25-.99,2.2-2.04-.03-.59-.58-1.01-.78-1.56.26-.7.54-1.44.83-2.21.25-.27.53-.52.78-.75.87-.8,1.55-2.35.6-3.02,0-.02.01-.03.02-.05,1.35-.47,2.97-1.46,2.6-2.83-.12-.44-.44-.8-.57-1.24-.37-1.26.91-2.31,1.82-3.26.91-.94,1.29-2.92.02-3.23Z"/>
      <path class="cls-24" d="M336.21,250.28c.86-1.79.97-3.77,1.57-5.63.46-1.43.97-2.84,1.5-4.25.81-2.17,1.16-4.34,1.42-6.64.08-.72-1.3-.37-1.46.14-1.6,5.08-3.45,10.08-5.58,14.95-1.62,3.68-3.35,7.39-5.59,10.74-.57.85-1.35,2.22-2.29,2.74-.79.43-1.92.11-2.78.23-.48.07-1.11.3-1.58.12-.65-.25-.37-.55-.19-1.13.64-2.07-1.87-1.81-3.01-2.75-.64-.53-1.16-.98-1.99-1.15-1.06-.22-2.01.06-3.04.26-.48.1-1.34.44-1.66-.08-.21-.34-.11-.85-.4-1.23-.57-.73-1.54-1.04-2.43-1.06-.94-.02-1.93.24-2.7.79-1.08.77-1.34,2.08-2.51,2.79l1.03-.11c-1.3-.79-2.98-.74-4.28.03-.66.39-1.03.9-1.43,1.53-.36.57-.64.95-1.2,1.34-.31.21-.64.37-.92.62-.4.37-.67.79-.59,1.35s.69,1.01.77,1.57c.13.9-1.53.72-2.17.85s-1.22.37-1.69.86l.86-.3c-4.55-.22-9.1-.49-13.65-.76-1.59-.09-3.18-.19-4.77-.28-.96-.06-.75,0-1.63-.38-2.63-1.1-5.41-2.04-7.95-3.32-.09-.05.06.04-.19-.13-.21-.14-.41-.28-.61-.43-.7-.51-1.4-1.03-2.1-1.54-10.07-7.49-20.01-15.16-29.98-22.79-1.1-.84-2.16-1.63-2.93-2.52-1.3-1.5-2.69-2.92-4.02-4.38-.61-.67-1.23-1.34-1.8-2.04-.48-.59-.61-.94-1.36-1.21-.38-.14-1.06.08-1.16.52-.29,1.34.16,3.02.51,4.31.45,1.72,1.12,3.37,1.61,5.08s.94,3.45,1.55,5.12c.18.5.35,1.25.73,1.64.32.33.83.59,1.19.9,1.11.95,2.11,1.98,3.1,3.04.54.58,1.22,1.02,1.76,1.6.61.66.52,1.04.73,1.85.58,2.23,2.76,3.8,5.05,3.51l-.59-.17c.35.35.24,1.31.42,1.78.21.55.57,1.03,1.01,1.41.84.71,1.85.88,2.92.71l-.59-.17c.82.81,2.24,1.74,2.4,2.9.11.85.2,1.55.74,2.27,1.01,1.32,2.74,1.91,4.35,1.64l-.59-.17c.57.53.39,1.56.68,2.28.32.8.85,1.5,1.5,2.05,1.28,1.09,2.86,1.44,4.48,1.11l-.79-.14c.47.41.58,1.08.91,1.6.27.43.61.8,1,1.13.98.83,2.17.89,3.21,1.51.61.36,1.42.96,1.85,1.54.36.48.59,1,1.01,1.44.83.85,1.89,1.46,3.06,1.67.78.15.63-.11.61.64-.01.43.08.85.25,1.24.39.92,1.18,1.68,2.09,2.06.83.35,1.73.39,2.58.1.46-.16.79-.43,1.2-.67.94-.52,1.33-.38,2.07.25,1.43,1.21,2.7,2.47,4.65,1.37.92-.52,2.25-2.14,3.38-1.5.65.37.73,1.14,1.1,1.69.98,1.45,3.11,1.01,4.44.38.48-.23.92-.54,1.37-.84.97-.65,1.47-.69,2.37.16.75.71,1.47,1.2,2.55,1.13,1.38-.09,2.49-1.2,3.84-1.28s2.53,1.14,3.91,1.25c1,.08,1.97-.32,2.59-1.11.78-.99.85-2.36,1.66-3.33l-.86.3c.72.02,1.35,1.52,1.97,1.89.75.46,1.92.6,2.79.66,2.3.16,4.77-.63,6.16-2.53.16-.22.35-.63.59-.77.46-.28,1.17-.21,1.65-.06.59.19,1.16.42,1.77.52.92.16,1.86.03,2.67-.46s1.36-1.27,1.72-2.13c.39-.92.33-2.53,1.1-3.11l-.73.2c1.23.21,2.64-.25,3.38-1.3.49-.7.31-1.35.43-2.14.16-1.04.77-1.27,1.56-1.78.46-.3.93-.63,1.11-1.18.21-.67-.19-1.01-.42-1.57-.81-1.95,1.89-3.21,2.3-4.9.07-.28.12-.59.06-.87-.1-.49-.14-.69-.53-.31.45-.44,1.29-.61,1.79-1.05.44-.39.87-.89.95-1.5.11-.79-.43-1.25-.62-1.97-.43-1.64,1.98-2.76,2.47-4.19.37-1.07.21-2.14-.93-2.55-.55-.2-1.7.6-.86.9,1.26.46.08,2.32-.44,2.87-.66.7-1.51,1.42-1.71,2.41-.23,1.12.98,2.05.48,3.09-.31.64-1.14.97-1.75,1.24-.25.11-.6.18-.71.48-.04.11-.09.26.02.36.83.78.1,1.89-.53,2.54-.25.25-.58.47-.78.75-.29.4-.42,1-.59,1.47-.28.76-.45.99-.05,1.69.36.62.65,1.03.06,1.56-.29.27-.72.4-1.05.62-.54.36-.86.76-1.12,1.36-.37.85.12,1.93-.62,2.66-.58.57-1.35.21-2.02.49-.82.34-.96.76-1.08,1.53-.21,1.4-.8,4.04-2.67,3.89-1.5-.12-2.74-1.17-4.3-.66s-2.04,2.29-3.53,2.98-4.19.81-5.39-.52c-.62-.68-1.25-1.77-2.34-1.54-1.16.24-1.46,1.96-1.86,2.87s-.97,1.41-1.99,1.03c-.8-.3-1.51-.77-2.36-.95-1.45-.32-2.68.35-3.98.89-1.17.49-1.77.12-2.63-.72-.43-.41-.87-.78-1.46-.89-1.36-.26-2.46.74-3.53,1.41-1.13.7-2.42,1-3.1-.29-.45-.85-.93-1.66-1.95-1.86-1.4-.27-2.81.69-3.87,1.47-1.15.85-1.75.42-2.66-.4-.49-.44-.95-.92-1.55-1.21-1.38-.68-2.4.06-3.58.75-1.94,1.12-3.86-1.62-3.27-3.36.04-.12-.07-.26-.16-.32-.4-.24-.75-.16-1.2-.22-.73-.1-1.43-.43-2.02-.87-.45-.34-.85-.76-1.17-1.22-.55-.8-.59-1.01-1.36-1.59-.49-.37-1.02-.93-1.56-1.18-.48-.23-1.09-.19-1.6-.42-.59-.27-1.13-.67-1.55-1.16-.44-.52-.55-1.16-.88-1.71-.57-.91-1.3-.43-2.17-.53-1.29-.15-2.48-1.12-3.11-2.22-.36-.63-.5-1.27-.54-1.99-.03-.43.03-.46-.27-.78-.27-.29-.44-.37-.82-.39-.82-.03-1.4.06-2.18-.41-.48-.29-.89-.68-1.19-1.15-.18-.3-.3-.6-.37-.93-.08-.38.09-.97-.04-1.31-.16-.41-.51-.67-.85-1-.51-.5-1.08-1.3-1.69-1.66-.34-.2-.46-.13-.86-.13-.74,0-1.29-.18-1.82-.75-.37-.41-.64-.92-.73-1.47-.09-.62.25-1.04-.41-1.42-.31-.18-.53-.09-.87-.09-.72,0-1.38-.28-1.94-.72s-1-1.02-1.28-1.64-.16-1.21-.32-1.79c-.26-.91-1.58-1.69-2.29-2.32-1.06-.95-1.98-2.06-3.06-3.01-.32-.29-.65-.57-.99-.83-.57-.44-.71-.78-.98-1.49-.57-1.52-.99-3.09-1.44-4.65-.47-1.65-1.05-3.26-1.55-4.9-.44-1.43-1.07-3.42-.74-4.92l-1.16.52c.41.15.64.62,1,1.06.65.79,1.35,1.54,2.05,2.3,1.29,1.4,2.65,2.76,3.87,4.23.81.98,1.91,1.68,2.93,2.45,5.63,4.31,11.26,8.61,16.91,12.9,5.01,3.81,9.99,7.69,15.1,11.37,1.57,1.13,3.49,1.71,5.26,2.45,1.46.61,2.91,1.32,4.41,1.84.76.26,1.62.21,2.42.26,5.36.32,10.72.64,16.08.92.52.03,1.19.18,1.7.03.2-.06.3-.18.48-.27.62-.31.97-.33,1.63-.39.89-.08,2.2-.28,2.51-1.29.15-.48-.07-.9-.3-1.31-.13-.24-.38-.52-.43-.79-.13-.69.44-.93.93-1.25.62-.41,1.06-.85,1.46-1.48.79-1.28,1.9-2.11,3.39-1.21.31.19.75.07,1.03-.11.92-.57,1.34-1.19,1.91-2.06s1.53-1.39,2.6-1.02c.76.27.95.77,1.14,1.46.46,1.72,2.78.88,4.04.58,1.54-.37,2.17.44,3.31,1.21.68.46,2.56.52,2.45,1.48-.07.58-.56,1.1-.27,1.7s1.09.7,1.7.69c.46,0,.91-.12,1.36-.19.54-.08.94.04,1.49.04.73,0,1.7-.21,2.36-.56.97-.52,1.72-1.61,2.35-2.48,2.28-3.14,3.99-6.72,5.58-10.24,2.43-5.38,4.5-10.92,6.27-16.55l-1.46.14c-.26,2.28-.6,4.44-1.4,6.58-.44,1.18-.87,2.35-1.27,3.55-.67,2.01-.81,4.23-1.73,6.15-.33.7,1.12.63,1.37.11Z"/>
    </g>
    <path class="cls-10" d="M432.23,441.29c-3.21,6.32-6.08,12.84-8.75,19.4-2.36,5.8-4.54,11.68-6.36,17.68-1.7,5.61-3.16,11.37-3.71,17.22-.44,4.64-.51,10.29,2.59,14.12.27.33,1.53-.29,1.45-.39-2.67-3.3-2.93-7.99-2.74-12.05.28-5.85,1.66-11.64,3.27-17.26,3.18-11.03,7.57-21.73,12.38-32.14,1.06-2.3,2.14-4.6,3.29-6.85.08-.16-1.24-.09-1.43.27h0Z"/>
    <path class="cls-10" d="M394.47,413.67c-1.01,18.81-3.53,37.44-5.28,56.19-.84,8.94-1.37,17.89-1.45,26.87-.07,7.32.39,14.63.28,21.94-.12,7.52-.31,15.11.29,22.62.04.47,1.49.17,1.45-.39-.54-6.88-.4-13.84-.31-20.74s-.25-13.23-.27-19.86c-.05-17.83,1.94-35.46,3.89-53.15,1.23-11.2,2.26-22.41,2.86-33.66.03-.59-1.42-.3-1.45.18h0Z"/>
    <path class="cls-15" d="M359.21,617.8l-5.15,32.06-.76.53s35.02,10.8,43.62,10.41c8.6-.39,28.86,1.17,28.86,1.17-1.21,2.37-1.55,5.09-.96,7.69.88,2.94,2.92,5.39,5.65,6.78l9.72-12.83c2.05,6.36,7.92,2.06,7.92,2.06l7.19-11.37c2.19,7.99,9.94,2.59,9.94,2.59l4.76-16.27c1.89,2.83,4.32,5.27,7.15,7.17,3.7,2.04,5.38-4.42,5.38-4.42l-12.76-26.66-38.07-14.11-69.91,16.01-2.6-.8Z"/>
    <path class="cls-5" d="M469.67,641.67c-.23-.05.03-2.61-.05-6.98-.03-1.09-.02-2.34-.14-3.51-.14-1.2-.75-2.3-1.7-3.06-2.31-2.06-4.81-3.91-7.45-5.52-2.79-1.74-5.57-3.2-8.16-4.58-2.58-1.38-4.85-2.63-6.81-3.44"/>
    <path class="cls-5" d="M455.94,652.94c.36-1.11,1.22-2.65,1.6-4.56.43-2.35.28-4.77-.42-7.06-.26-1.29-.68-2.55-1.25-3.73-.98-1-2.15-1.8-3.44-2.35-5.53-2.87-10.99-4.9-14.67-6.92"/>
    <path class="cls-5" d="M439.69,663.63c-.24-.19,1.09-1.63,2.41-4.23.86-1.42,1.27-3.06,1.18-4.72-.24-1.94-1.41-3.65-3.14-4.56-1.85-1-3.84-1.69-5.91-2.04l-5.26-1.25c-1.33-.33-2.54-.75-3.31-.9"/>
    <path class="cls-21" d="M717.33,691.9s-2.06-4.44-3.7,8.98c0,0,54.57,15.39,125.43,5.9,70.85-9.5,79.85-15.07,79.85-15.07l-20.47-70.04-1.23-55.64-174.26,35.98"/>
    <path class="cls-21" d="M711.7,462.78c.64-20.71,7.55-34.68,12.86-42.45,2.94-4.31,7.02-7.71,11.73-9.95,6.8-3.24,12.78-6.53,21.82-9.79,1.68-.61,16.75-4.85,16.59-4.48-4.64,10.76,5.2,20.46,17.14,21.84,4.28.49,8.5.68,12.5.6,13.69-.28,33.14-13.45,41.43-23.73l1.46-1.9,1.63.95,45.5,22.28-6.08,193.21-8.31,6.43c-22.43,8.4-44.98,16.57-68.22,22.43-27.17,6.84-55.7,10.68-83.57,6.03-6.38-1.06.19.53-5.95-1.45,1.56-6.77-1.84-20.72-1.89-27.88-.32-39.53-1.31-55.49-2.65-57.12,0,0-7.23-11.49-9.79-23.93"/>
    <path class="cls-21" d="M720.34,602.33s1.99,55.34,1.99,75.57c0,0,51.52,15.39,124.15,6.06,72.63-9.32,65.56-4.22,65.56-4.22l-19.22-50.65v-118.85s-165.36,70.89-165.36,70.89"/>
    <path class="cls-15" d="M848.53,341.75s-14.57,33.86-7.18,48.41c.99,1.95,4.87,4.23,5.16,6.02,0,0-15.54,26.8-49.43,26.3-33.89-.5-27.32-24.99-27.32-24.99,1.2-.81,2.1.66,3.3-.14.33-.22.67-.45.89-.77.33-.49.32-1.11.3-1.7-.54-16.32-1.52-32.61-2.61-48.9"/>
    <path class="cls-33" d="M821.54,371.03s-6.57,14.19-35.78,17.73c0,0-8.69.46-11.74-.11l-.55-6.31,48.07-11.3Z"/>
    <path class="cls-2" d="M744.19,333.13c9.33-5.85,11.73-17.23,11.24-27.53-.47-9.86,7.84-24.45-4.21-24.68-.23,0,4.81-8.13,1.23-7.62,2.49-5.29-5.48-5.24-6.23-11.41-.15-1.24-1.25-12.2,6.57-12.48,30.34-37.37,67.39-26.85,88.27-22.74,40.97,8.08,60.92,11.7,46.96,76.48-9.37,43.49-51.3,53.01-92.88,49.2-17.77-1.63-38.96-2.23-51.33-19,.13-.08.26-.15.39-.23Z"/>
    <path class="cls-2" d="M839.83,198.21c-10.35,4.16-15.6,13.06-16.84,23.8,1.99,2.01,6.37,4.38,8.37,6.38.44-.68.9-1.34,1.37-2,2.19,2.17,8.16,4.43,10.38,6.57.68-.35,2.78-1.1,5.27-1.94.68.66,1.36,1.32,2.04,1.99-1.88.38-3.42.9-4.41,1.58,2.52,2.47,9.29,4.23,11.69,6.81,5.2,5.6,10.95,13.03,16.37,18.41,1.73,1.4,3.08,2.75,4.17,3.99l-4.36,3.36,5.6,5.23c-.77,1.52-1.22,2.38-1.22,2.38l4.58,4.38s3.33-2.69,8.07-6.77c16.28,7.58,24.19-5.67,23.22-12.11-.43-2.84-1.7-5.04-3.04-6.64,7.05-7.29,12.44-14.2,11.67-17.64-1.55-6.92-11.41-22.92-16.2-30.44-.86-2.35-1.85-4.67-2.98-6.81l-.06-.14s-.02,0-.02,0c-1.27-2.37-2.71-4.52-4.37-6.16-4.27-4.23-13.73-3.35-21.47-1.67-7.59-7.69-13.01-10.16-17.77-10.99-6.66-1.16-18.33,6.78-19.68,9.03-.66,1.1-.61,5.34-.38,9.39ZM899.05,265.2c3.01-2.73,6.14-5.66,9.11-8.6-.08,1.56-.4,3.32-1.17,5.14-1.3,3.07-4.79,3.64-7.93,3.46ZM858.23,187.66c.61.54,2.51,3.8,4.39,7.17-5.54.05-10.24.82-12.69,1.04-.27.02-.53.06-.79.09-1.03-2.12-2.23-4.99-2.18-6.82.09-3.2,8.09-4.29,11.27-1.49Z"/>
    <path class="cls-15" d="M774.87,248.38c-.1.15-.23.3-.36.44.11-.06.23-.12.33-.18l.02-.26ZM762.28,250.08l-.02.21c.21-.14.42-.28.61-.42.02-.26-.59.21-.59.21ZM843.53,354.93l1.92-4.12c1.87,8.3,13.31,4.12,15.26-6.72,8.93-8.91,11.55-23.27,7.79-29.47l-.44-.89c-2.85-2.85-8.33-4.65-11.23-.77-1.01,1.72-2.48,3.63-3.48,5.36-1.03,1.98-2.65,6.01-4.21,7.68,0,0,7.84-19.02,8.57-23.88.73-4.86,1.66-16.94-6.39-24.68,0,0-9.42-11.24-12.87-16.74l-1.36-.64c-.84-.08-1.42.13-2.26.05.02-.26.33-.49.37-1-1.45.39-2.55.02-3.67-.08.3-.23.89-.44.91-.69-1.14.15-2.24-.21-3.36-.31.3-.23.91-.69.94-.95-1.45.38-2.24-.21-3.36-.31.3-.23.63-.72.66-.98-1.17.41-2.27.05-3.39-.05.3-.23.63-.72.93-.95-1.45.39-2.24-.21-3.36-.31-.28-.03.61-.46.63-.72-.86.18-1.99.08-2.83,0,.02-.26.61-.46.63-.72-1.73.36-2.52-.23-3.64-.33l.93-.95c-1.19.67-2.31.57-3.41.21.3-.23.91-.69.93-.95-1.47.64-3.17.75-4.53.1.28.03.91-.69.93-.95-1.5.9-2.59.54-3.99.41.3-.23.63-.72,1.24-1.18-1.78.88-3.78,1.21-5.4.28.28.03.63-.72.66-.98-1.22.93,1.01-.17-.37-.55,0,0-3.32.74-3.3.48-1.19.67,3.36-4.09,1.96-4.22.33-.49-8.09-.26-7.48-.72-1.5.9-1.16.4-2.82-.01,0,0-6.1,2.55-5.8,2.31-1.52,1.16-2.05.02-3.71-.39.3-.23.91,1.17,1.22.94-1.22.93-.73-.33-2.13-.45.02-.26-4.43-2.09-4.4-2.35-1.47.64-1.02.8-2.71.64.02-.26-1.31,2.74-1.01,2.51-1.22.93-1.09.09-2.46-.3l-1.48.83c-1.52,1.16.46.77-1.2.36.02-.18,6.25,1.39,6.54,1.07-1.13.6-2.46,1.14-3.75,1.26.02-.26.35-.75.38-1-1.22.93-2.97,1.54-4.63,1.13.28.03.61-.46.63-.72-1.52,1.16-3.27,1.77-4.88.85v-.04c-1.16.76-2.65,1.4-4.09,1.48.07-.77.65-.98.65-.98l-1.12-.1c-1.59,1.93,4.97,1.36,4.17,3.88,0,0-5.29,7.14-11.26,21.95-4.9,12.16-6.79,31.97-6.89,36.12-.08,3.59-2.91,10.3-3.68,13.96-4.2,19.88,9.58,41.8,24.18,54.41,5.82,5.02,11.34,3.84,17.59,3.57,12.76-.55,32.41-6.45,44.52-16.61"/>
    <g>
      <path class="cls-8" d="M768.95,338.17c1.73,1.11,4.53,1.17,6.47.26.43-.2,1.76.17,1.16.46-2.57,1.2-6.57.93-8.8-.5-.22-.14-.16-.31.14-.37.31-.07.79,0,1.03.15"/>
      <path class="cls-8" d="M777.42,338.46c1.28-.43,2.68-.59,4.06-.55.2,0,.45.11.59.25.11.11.12.25-.04.31-.67.29-1.49.35-2.22.26-.23-.03-.53-.11-.65-.32-.1-.19.13-.28.31-.26.61.07,1.25.02,1.8-.22.18.19.36.37.55.56-1.23-.03-2.49.12-3.63.5-.23.08-.53-.02-.72-.15-.14-.1-.27-.31-.05-.39"/>
      <path class="cls-8" d="M782.84,339.18c1.61.12,3.56-.36,4.46-1.44,1.37-1.64.55-4.7-1.34-6.03-.21-.14-.07-.29.15-.31.29-.03.62.11.84.26,1.64,1.16,2.53,3.73,2.11,5.35-.4,1.52-2.04,2.44-4,2.69-.58.07-1.2.1-1.8.06-.24-.02-.67-.13-.77-.33-.1-.2.13-.26.36-.24"/>
      <path class="cls-8" d="M766.09,337.08c.1-.17-.04-.3-.17-.31-.43-.03-.86-.2-1.2-.52-.16.15-.32.31-.47.46.86.18,1.7.54,2.42,1.12.14.12.37.07.52-.03.11-.07.24-.26.1-.37"/>
      <path class="cls-8" d="M767.29,337.43c-.81-.65-1.75-1.04-2.71-1.24-.14-.03-.33.03-.45.14-.09.09-.12.22-.02.32"/>
      <path class="cls-8" d="M762.75,336.96c-1.04-.14-2.2-.94-2.59-2.16-.6-1.84.33-3.85,1.75-4.84.15-.11.09-.27-.04-.33-.18-.08-.41,0-.57.11-1.23.86-2.13,2.38-2.12,4.05,0,1.56.89,2.73,2.1,3.31.36.17.74.3,1.13.35.16.02.45-.02.54-.2.1-.18-.04-.27-.19-.29"/>
    </g>
    <path class="cls-8" d="M852.13,330.41c1.77-3,3.66-5.97,5.91-8.65,1.1-1.31,2.33-2.66,3.8-3.57.23-.14.37-.22.52-.29.05-.02.34-.15.14-.06.06-.03.38-.15.11-.04.19-.07.05-.02.03-.01.17-.05.03,0,.01,0,.21-.04-.08.06.12,0,0,0-.02.01,0,.02.34.47.73.88,1.03,1.38,1.74,2.86,1.83,6.27.74,9.39-.08.23,1.3.09,1.43-.27,1.05-3.02,1.05-6.32-.52-9.17-.32-.59-.73-1.32-1.25-1.76-.11-.09-.16-.12-.29-.15-.78-.18-1.79.24-2.46.57-1.47.71-2.7,1.87-3.79,3.06-2.72,2.94-4.91,6.38-6.94,9.82-.13.21.52.12.57.11.25-.04.71-.14.85-.38h0Z"/>
    <path d="M765.39,287.42c-.53-1.4-.23-.62-.76-2.01l-.08-.24c-9.99,1.2-14.4,2.21-19.33,4.94-.07.19-.14.39-.18.59-.01.06-.02.12-.03.19,0,0,0,0,0,0,0,.03,0,.07,0,.1.03.11.06.23.1.34.08.24.16.47.26.7.02.05.11.26.12.29.05.1.1.21.14.31.2.42.42.83.63,1.24,3.63-1.29,7.8-1.75,11.44-2.45,2.34-.45,5.15-.41,8.88-.8-.39-1.06-.79-2.12-1.19-3.19Z"/>
    <path d="M794.06,285.65c-.65,1.33-.28.59-.94,1.93-.49,1.02-.99,2.04-1.47,3.06,4.24,1.02,7.43,1.43,10.08,2.28,5.25,1.68,11.5,3.05,16.14,6.14,2.22,1.48,5.37,3.65,6.17,6.31.22.71.21,2.89,1.32,2.98.46.04.63-1.91.65-2.11.34-3.94-2.33-6.96-6.03-9.76-7.54-5.7-11.86-7.53-25.82-11.06"/>
    <path d="M754.23,302.61c-1.53-.98-3.48-.43-4.62.4-.27.2-.99.76-1.4,1.79-.52,1.32-.12,2.9.64,3.91,1.02,1.35,2.89,1.74,4.4,1.19,2.05-.74,2.91-3.05,2.58-4.82-.06-.32-.36-1.69-1.6-2.48"/>
    <path d="M768.29,309.36s-7.38-6.9-11.41-7.67c-5.88-1.13-10.2,1.16-12.56,3.87,0,0,6.83-3.68,10.95-2.76,3.94.87,13.02,6.57,13.02,6.57Z"/>
    <path d="M800.4,307.45c1.69-.69,3.5.21,4.47,1.24.23.24.84.93,1.05,2.02.27,1.39-.41,2.87-1.34,3.73-1.25,1.14-3.16,1.18-4.55.37-1.88-1.1-2.31-3.53-1.66-5.2.12-.31.66-1.6,2.03-2.15"/>
    <path d="M791.2,311.59s9.06-5.37,13.43-5.4c7.89-.04,14.76,5.05,16.74,8.16,0,0-10.75-6.89-15.25-6.77-4.3.12-14.92,4-14.92,4Z"/>
    <path class="cls-3" d="M761.35,253.25c-1.73,6.97-10.8.12-5.38-1.13-.33-3.48,4.65-4.45,4.82-7.95.18.32.29.58.29.58,0,0,.51-4.18,2.01-5.07,1.49-.88,8.08-3.49,8.08-3.49l1.78,1.62c-.04-.11-.59-1.54.47-2.29,1.06-.75,12.24-5.35,19.02-4.3.23.03.45.07.67.12l2.7,1.73.09.06s-.07-.05-.1-.07c-.47-.34-1.48-1.17-.88-1.72.21-.2.62-.35,1.31-.45,1.02-.13,2.53-.12,4.17-.03,0,0,0-.02,0-.02.15.02.31.04.46.05.15.01.31.02.46.03,0,0,0,.02,0,.02,1.62.2,3.11.47,4.09.79.67.22,1.04.45,1.21.68.5.65-.65,1.28-1.17,1.53-.04.02-.08.04-.11.05l.1-.04,2.97-1.21c.22-.01.45-.01.68,0,6.85.2,17.01,6.76,17.92,7.69.9.92.1,2.23.04,2.33l2.04-1.27s7.88,3.93,9.19,5.07c1.31,1.14,1.72,3.62,1.72,3.62,0,0,2.41,1.14,3.33.93.92-.2,5.33,2.63,7,5.55,1.06,1.88.47,3.5.94,5.1h0c.27.9.41,1.5.41,1.5l4.65,2.04c3.67,2.2,1.99,10.03,1.99,10.03,6.71,9.97,6.36,17.9,2.19,26.1-1.61,3.16,7.45,7.32,1.46,6.65-6.07-.68-12.82,17.9-12.82,17.9,0,0-4.48-7.89-4.41-11.36.06-3.47,2.69-13.54,2.69-13.54l-2.89-.68s-1.72-.89-3.51-4.99c-1.79-4.11,2.78-10.7,2.78-10.7l1.53-4.09-5.75-.13c-5.43-1.45-5.2-7.47-5.2-7.47l1.87-9.87-3.62,3.04s-1.42,1.46-3.32,1.14c-8.5-1.43-9.02-6.86-9.02-6.86l-.69-5.12-2.3,1.25c-2.47,1.67-9.76,3.93-13.19,2.07-.9-.49-4.58-3.9-5.18-4.39-2.15-1.88-2.19-5.1-2.12-6.29.37-.3.72-.67,1.07-.99,1.34-1.22,1.88-.61.53.61-2.32,2.1-6.18,5-9.34,4.85-3.05-.15-9.48-2.01-10.16-3.49-.46-.99.52-1.02-.6-1.07-.97-.05-1.87.57-2.56,1.23-1.61,1.54-2.81,3.89-4.94,4.74-3.11,1.24-4.75-.55-7.67-1.46-.65-.2-1.6.06-1.8.83Z"/>
    <path class="cls-1" d="M754.75,247.09s-1.46-6.63,2.61-9.99c4.07-3.36,19.72-16.93,44.33-14.71l-46.94,24.7Z"/>
    <g>
      <path class="cls-21" d="M843.98,389.82s-17.73,31.97-49.35,28.73c-23.18-2.38-21.1-16.93-21.1-16.93v-5.56s-8.44,2.75-8.44,2.75c0,0-1.84,5.02,1.94,13.4,3.78,8.39,15.8,16.14,36.11,14.23,11.91-1.12,22.73-5.75,35.64-15.15,12.91-9.4,15.84-16.31,15.84-16.31l-10.64-5.17Z"/>
      <path class="cls-32" d="M842.95,389.74c-1.61,2.9-3.66,5.6-5.76,8.14-4.69,5.67-10.26,10.71-16.66,14.38-8.27,4.74-17.69,6.65-27.15,5.38-6.95-.93-15.18-3.69-17.94-10.83-1.31-3.4-.82-7.26-.82-10.85,0-.63-.8-.71-1.27-.55-2.56.84-5.12,1.67-7.68,2.51-.77.25-1.47.41-1.75,1.25-.37,1.12-.4,2.42-.37,3.57.17,8.57,5.01,15.92,12.39,20,9.24,5.1,20.73,5.6,30.95,3.94,11.88-1.93,22.53-7.67,32.19-14.65,4.8-3.47,9.45-7.35,13.21-11.95,1.24-1.51,2.58-3.17,3.36-4.99.1-.24.1-.53-.18-.67-3.55-1.72-7.1-3.45-10.64-5.17-.47-.23-1.13-.16-1.55.16-.29.22-.65.76-.15,1.01,3.55,1.72,7.1,3.45,10.64,5.17l-.18-.67c-.41.95-1.02,1.84-1.61,2.68-1.84,2.64-4.09,4.99-6.44,7.18-3.99,3.71-8.43,6.95-12.99,9.91-4.29,2.78-8.78,5.26-13.52,7.18-8.82,3.56-18.61,4.93-28.06,3.78-7.15-.87-14.59-3.48-19.58-8.89-2.7-2.92-4.33-6.59-5.17-10.46-.51-2.35-.88-5.24-.03-7.58l-.92.77c2.81-.92,5.63-1.84,8.44-2.75l-1.27-.55c0,3.23-.45,6.94.46,10.11,1.98,6.89,8.84,10.5,15.37,12.02,9.93,2.31,20.37,1.22,29.61-3.07,7.41-3.44,13.9-8.68,19.32-14.75,2.89-3.24,5.69-6.76,7.81-10.57.56-1-1.64-.91-2.06-.16Z"/>
    </g>
    <path class="cls-8" d="M852.3,333.08c4.59.46-2.39,9.34,1.43,9.44,1.03.03,1.8-.82,2.34-1.59.94-1.35,1.59-2.92,2.16-4.45.71-1.93,1.1-3.54,1.07-5.58-.03-2.58-.65-5.52-3.13-6.84-.44-.23-1.76.39-1.15.72,2.05,1.09,2.66,3.53,2.8,5.69.09,1.44.02,2.9-.4,4.28-.53,1.7-1.15,3.4-2,4.97-.27.5-.56,1-.91,1.45-.07.09-.44.38-.46.49-.03.16.18.07.19-.05,0-.05-.17-.28-.2-.35-.06-.17-.06-.35-.06-.52,0-.41.11-.82.21-1.21.26-1,.62-1.98.88-2.98.24-.9.5-2.01.15-2.93-.38-1-1.38-1.31-2.36-1.41-.58-.06-1.53.76-.55.85h0Z"/>
    <path class="cls-21" d="M676.03,789.63c-1.3-4.13-.93,11.41-2.57,7.44-3.7-8.97-8.17-17.54-13.14-25.71-5.12-8.39-10.81-16.36-17.06-23.75-4.24-5.02-8.76-9.79-13.54-14.18,76.32-34.58,250.18-41.52,250.18-41.52,0,0,60.1,6.78,40.77,75.81-5.79,20.68-19.96,26.81-45.46,30.99-60.4,9.9-151.43-1.17-196.96-6.16-.31-.03-1.91-2.89-2.22-2.93Z"/>
    <path class="cls-21" d="M675.48,805.49c-1.76-3.75-3.7-7.39-5.77-10.93-4.67-8-10.01-15.5-15.8-22.54-5.95-7.23-12.4-13.96-19.3-20.05-4.69-4.14,9.44-17.32,4.31-20.77,1.02-28.11,275.32-55.4,275.32-55.4,0,0,10.5,21.92,10.5,64.06,0,71.68-186.9,52.87-249.29,56.14-.3.02.31,9.49.02,9.51Z"/>
    <path class="cls-15" d="M617.81,802.42c15.75,47.29,62.2,174.87,83.89,232.06,0,0,48.01-3.06,52.5-17.47,0,0,1.29-307.89-35.27-313.06-26.96-3.81-72.82,6.44-86.74,18.46-16.7,14.43-26.78,42.77-14.38,80.02Z"/>
    <path class="cls-15" d="M642.56,770.73s9.16-1.85,22.24-1.57c-2.53-5.77-3.4-10.07-3.4-10.07,1.21-1.46,2.5-2.95,3.84-4.47,7.49,1.84,14.81,4.38,21.91,7.4,8.26,3.52,16.25,7.7,23.87,12.47,7.35,4.6,14.37,9.78,20.85,15.58,1.83,1.64,3.62,3.34,5.35,5.09-.22.07,3.6-.52,3.38-.45,25.3,27.75,10.67,97.87,25.31,154.09,10.73,41.23,19.8,76.25,19.8,76.25-5.81,13.87-63.3,11.86-63.3,11.86-25.73-74.83-79.86-266.18-79.86-266.18Z"/>
    <path class="cls-33" d="M723.15,1036.72c-1.18-3.63-2.36-7.27-3.54-10.9-3.12-9.62-6.22-19.24-9.33-28.87-4.41-13.69-8.81-27.39-13.2-41.09-5.07-15.85-10.12-31.7-15.15-47.57-5.07-16.01-10.11-32.02-15.1-48.05-4.49-14.42-8.94-28.85-13.3-43.32-3.26-10.83-6.5-21.67-9.5-32.58-3.39-12.3-6.2-24.7-4.51-37.59,1.43-10.9,5.99-21.59,14.11-29.18,7.58-7.08,17.55-10.87,27.79-11.83,12.5-1.17,25-2.3,37.5-3.45,1.27-.12,2.54-.23,3.81-.35.75-.07,1.17-.99.17-.9-12.02,1.11-24.05,2.21-36.07,3.32-6.41.59-12.7,1.25-18.81,3.47-10.83,3.92-19.74,11.71-24.86,22.06-7.48,15.13-6.45,32.26-2.36,48.19,2.47,9.58,5.27,19.07,8.09,28.55,4.07,13.72,8.26,27.4,12.48,41.06,4.92,15.93,9.91,31.84,14.93,47.74,5.14,16.28,10.31,32.55,15.5,48.82,4.63,14.52,9.29,29.03,13.95,43.53,3.5,10.89,7.02,21.78,10.54,32.66,1.72,5.32,3.44,10.64,5.17,15.96.08.23.15.46.23.7.18.56,1.63.16,1.45-.39h0Z"/>
    <path class="cls-21" d="M720.34,592.11c6.89-7.73,16.45-17.03,21.48-26.1,6.33-11.4-.39-46.6,3.26-59.11,3.72-12.76,6.26-25.85,7.99-39.02,1.75-13.27,2.7-26.63,3.23-40,.44-11.09,3.63-16.38,3.66-27.48-10.5,4.81-27.97,9.93-37.34,18.7-11.54,10.81-14.73,14.29-19.64,34.25-2.8,11.39-3.57,22.83-9.51,43.27-.81,2.79-12.19,41.07-11.81,41.46,5.94,6.08,7.41,5.52,18.27,12.3,2.03,1.27,11.27,6.33,13.45,5.45,3.74,3.59,4.12,4.36,5.77,11.53,2.28,9.92,1.07,21.53,1.18,24.75Z"/>
    <g>
      <path class="cls-21" d="M710.79,454.74s3.53,6.63,3.46,15.95c-.07,9.32-24.21,68.61,4.91,96.68l.68,19.91"/>
      <path class="cls-32" d="M709.71,455.03c2.27,4.3,3.26,9.54,3.44,14.35.1,2.67-.5,5.17-1.12,7.75-2.06,8.54-4.34,17.02-5.91,25.67-1.98,10.97-3.11,22.26-1.95,33.38,1.15,10.94,4.8,21.79,12.39,29.96.48.52,1.35,1.09,1.53,1.73.12.43.03,1.02.05,1.46l.19,5.68c.13,3.93.27,7.86.4,11.79l.03.75c.02.59,2.2.19,2.17-.58-.1-3.03-.21-6.06-.31-9.09l-.23-6.63c-.04-1.25.13-2.75-.13-3.97-.15-.67-.89-1.13-1.36-1.63-.96-1.01-1.87-2.07-2.72-3.18-1.7-2.21-3.18-4.58-4.42-7.08-2.44-4.92-3.98-10.25-4.86-15.65-1.83-11.2-1-22.72.8-33.87,1.47-9.12,3.75-18.07,5.99-27.03.62-2.48,1.36-5.02,1.61-7.57.51-5.21-.84-11.04-2.92-15.81-.15-.35-.31-.7-.49-1.03-.36-.67-2.45.05-2.17.58h0Z"/>
    </g>
    <path class="cls-15" d="M935.41,546.84c-18.9,1.68-37.76.93-56.66,2.61l2.13,61.11-17.04,9.06-93.5,53.59,2.69,26.19s70.44-18.84,92.6-23.29c1.26-.25,34.11-9.15,42.19-11.83,13.99-4.65,19.2-11.69,23.37-22.32,5.18-13.2,5.78-39.91,5.12-53.82-.66-13.79-.76-27.55-.91-41.3Z"/>
    <path class="cls-33" d="M879.67,611.87c3.84-1.26,8.13,1.48,11.04,3.72,3.23,2.49,6.15,5.35,8.73,8.51.32.39,1.8-.34,1.7-.46-2.96-3.62-6.37-7-10.23-9.65-3.55-2.43-7.59-3.85-11.82-2.46-.15.05-.69.23-.52.45.16.2.93-.06,1.09-.11h0Z"/>
    <path class="cls-21" d="M884.64,553.43c18.19,2.52,28.54.83,35.84,0,15.68-1.79,22.12-9.86,22.12-9.86-1.75-35.66-11.27-80.55-17.63-99.65-11.09-27.91-51.75-36.99-51.75-36.99l-4.38,97.09v45c5.54,2.19,10.91,3.73,15.8,4.41Z"/>
    <g>
      <path class="cls-21" d="M884.64,430.79c-8.92,2.21-13.49,12.03-15.68,20.96-8.25,33.69-3.27,63.91-.12,97.28,0,0,5.67,2.47,10.73,3.44"/>
      <path class="cls-32" d="M884.53,430.37c-6.37,1.65-10.72,6.59-13.46,12.37-3.45,7.26-4.81,15.6-5.96,23.49-2.54,17.47-1.91,35.14-.37,52.67.9,10.15,2.06,20.28,3.02,30.42.04.09.11.15.2.17,3.5,1.52,7.18,2.74,10.92,3.48.55.11,2.52-.77,1.38-1-2.12-.42-4.19-1.04-6.23-1.75-1.23-.43-2.79-.79-3.91-1.49-.07-.04-.31-.08-.35-.15.01.02.06-.9.04-1.05-.13-1.35-.26-2.7-.4-4.05-.24-2.36-.48-4.72-.72-7.08-.99-9.61-2.01-19.23-2.61-28.88-1.2-19.2-.77-38.99,4.39-57.64,2.05-7.42,6.08-16.56,14.27-18.69.22-.06,1.1-.34.98-.7s-.96-.18-1.2-.12h0Z"/>
    </g>
    <path class="cls-21" d="M632.19,722.41s24.5-5.55,36.28,10.2c11.78,15.75-3.74-7.31,3.25,7.99,6.99,15.29,8.69,23.8,28.17,28.82,19.48,5.02,14.19,24.3,19.96,36.08,5.77,11.78,47,21.15,47,21.15,0,0-12.83-13.4,12.36-30.9,25.19-17.49-26.9-72.16-26.9-72.16l-28.78-58.92-91.33,57.74Z"/>
    <path class="cls-15" d="M779.29,668.81l15.27,21.77-3.2,1.43s-23.89,16.32-30.47,18.03c-6.58,1.71-21.49,7.62-21.49,7.62,1.46,1.51,2.36,3.48,2.52,5.57.02,2.42-.95,4.75-2.68,6.43l-10.33-7.41c-.06,5.28-5.49,3.41-5.49,3.41l-8.08-6.9c.22,6.54-6.89,4.27-6.89,4.27l-7.39-11.16c-.76,2.58-2.03,4.98-3.72,7.08-2.31,2.4-5.09-2.08-5.09-2.08l3.4-23.09,25.42-19.53,56.47-4.24,1.77-1.21Z"/>
    <path class="cls-5" d="M701.41,712.36c.16-.09-.62-1.93-1.57-5.19-.23-.81-.52-1.74-.7-2.64-.17-.92.03-1.88.56-2.66,1.24-2.06,2.67-4,4.26-5.81,1.67-1.93,3.4-3.65,5-5.27,1.6-1.62,2.99-3.07,4.27-4.12"/>
    <path class="cls-5" d="M715.69,719.16c-.52-.74-1.52-1.69-2.24-3.02-.86-1.65-1.31-3.48-1.31-5.33-.1-1.02-.08-2.05.07-3.06.5-.97,1.18-1.83,2.01-2.54,3.45-3.41,7.03-6.16,9.3-8.5"/>
    <path class="cls-5" d="M729.27,722.16c.14-.2-1.2-.98-2.8-2.63-.98-.87-1.67-2.01-1.99-3.28-.27-1.52.21-3.08,1.3-4.17,1.16-1.18,2.5-2.17,3.98-2.92l3.68-2.17c.92-.56,1.74-1.16,2.29-1.45"/>
    <path class="cls-26" d="M771.45,347.35c5.78.42,18.24,5.42,20.63,8.2,0,0-6.31,7.92-19.71,6.95-13.4-.96-15.92-9.52-15.92-9.52,0,0,7.64-6.16,15-5.63Z"/>
    <path class="cls-20" d="M786.84,352.28s-7.29-1.17-13.15-1.59c-5.85-.42-13.23-.31-13.23-.31,0,0-.6-4.81,10.01-4.05,10.61.76,16.37,5.95,16.37,5.95Z"/>
    <path class="cls-9" d="M770.81,360.09c6.35-.58,13.99-5.6,21.27-4.54,0,0-3.78,12.36-19.54,11.22-15.76-1.13-16.09-13.79-16.09-13.79,7.36,0,8.16,5.62,14.36,7.11Z"/>
    <path class="cls-9" d="M764.86,343.24c3.33-.04,5.33,1.56,6.76,1.66,1.44.1,3.64-1.2,6.93-.68,3.08.49,15.57,10.21,14.02,11.24-1.55,1.03-11.25-6.14-21.22-6.86-9.97-.72-14,5.47-15.38,4.23-1.39-1.24,5.77-9.55,8.89-9.59Z"/>
  </g>
  <g id="Layer_3" data-name="Layer 3">
    <path class="cls-15" d="M1068.24,401.35c-3.65,1.16-56.93,23.19-66.26,50.77-9.33,27.58-10.43,116.65-15.64,141.12-6.48,28.49-1.59,108.1-2.54,115.22l-2.12,25.85,40.01-7.19s-4.23-145.88,11.61-184.25c15.85-38.38,34.95-141.51,34.95-141.51Z"/>
    <path class="cls-19" d="M962.1,808.4c-1.58-4.79-1.13,13.22-3.12,8.63-4.51-10.39-9.94-20.33-16-29.79-6.23-9.73-13.16-18.96-20.76-27.52-5.17-5.82-10.66-11.34-16.48-16.43,92.89-40.06,311.12-77.93,311.12-77.93,0,0,71.3,37.67,47.77,117.66-7.05,23.96-29.07,24.75-60.11,29.59-73.51,11.47-184.3,17.59-239.72,11.81-.37-.04-2.33-15.98-2.7-16.02Z"/>
    <path class="cls-19" d="M961.44,826.79c-2.14-4.34-4.51-8.57-7.02-12.67-5.68-9.27-12.19-17.96-19.23-26.11-7.24-8.38-15.09-16.18-23.49-23.24-5.71-4.8,11.49-20.07,5.25-24.07-23.41-69.85,330.02-48.91,330.02-48.91,0,0,22.95-29.45,23.59,58.94.6,83.05-233.21,61.26-309.15,65.04-.36.02.38,11,.02,11.01Z"/>
    <path class="cls-19" d="M889.93,818.8c20.26,57.93,65.03,221.77,92.94,291.82,0,0,76.76,3.9,82.54-13.76,0,0,1.67-392.34-45.38-398.68-34.68-4.67-93.7,7.89-111.61,22.61-21.49,17.67-34.46,52.39-18.5,98.01Z"/>
    <path class="cls-19" d="M927.45,779.98s11.79-2.26,28.62-1.92c-3.26-7.07-4.37-12.33-4.37-12.33,1.56-1.79,3.22-3.61,4.95-5.48,9.64,2.25,19.05,5.36,28.19,9.07,10.63,4.31,20.9,9.44,30.71,15.28,9.45,5.63,18.49,11.98,26.83,19.08,2.36,2.01,4.66,4.09,6.89,6.24-.28.09,4.63-.64,4.34-.55,32.55,34,31.73,109.88,50.56,178.74,13.81,50.5,31.83,108.95,31.83,108.95-7.48,16.99-100.59,23.97-100.59,23.97-33.1-91.66-107.97-341.04-107.97-341.04Z"/>
    <path class="cls-18" d="M1030.73,1108.5c-.55-1.63-1.09-3.26-1.64-4.89-1.52-4.52-3.03-9.04-4.54-13.56-2.34-6.99-4.67-13.98-7.01-20.97-2.97-8.91-5.94-17.81-8.9-26.72-3.45-10.36-6.88-20.72-10.32-31.08-3.75-11.33-7.49-22.65-11.23-33.99-3.89-11.81-7.77-23.62-11.63-35.43-3.86-11.8-7.71-23.6-11.54-35.41-3.67-11.31-7.31-22.62-10.94-33.94-3.3-10.33-6.59-20.66-9.83-31.01-2.78-8.86-5.53-17.73-8.22-26.61-2.1-6.93-4.17-13.86-6.13-20.83-1.25-4.44-2.5-8.89-3.48-13.39-3.62-16.66-3.23-34.58,4.61-50.02,3.77-7.43,9.15-13.88,15.9-18.78,6.92-5.02,14.97-8.3,23.32-10.03,5.38-1.11,10.91-1.42,16.37-1.9,8.69-.76,17.39-1.52,26.08-2.28,11.36-1,22.72-1.99,34.08-2.99,10.75-.94,21.51-1.88,32.26-2.83,6.88-.6,13.75-1.2,20.63-1.81.96-.08,1.92-.17,2.88-.25,1.26-.11,1.78-1.74.22-1.61-3.87.34-7.75.68-11.62,1.02-9.39.82-18.78,1.65-28.17,2.47-11.52,1.01-23.05,2.02-34.57,3.03l-31.12,2.73c-5.92.52-11.83,1.04-17.75,1.55-12.24,1.07-24.25,4.7-34.25,12.01-13.14,9.61-20.84,24.73-22.84,40.7-1.46,11.65.02,23.41,2.93,34.71,1.47,5.71,3.11,11.38,4.78,17.04,2.34,7.96,4.76,15.89,7.2,23.82,3,9.7,6.04,19.39,9.11,29.06,3.46,10.91,6.95,21.81,10.46,32.7,3.76,11.66,7.53,23.31,11.33,34.95,3.89,11.96,7.81,23.91,11.73,35.86,3.83,11.68,7.68,23.36,11.54,35.03,3.63,10.99,7.27,21.98,10.92,32.97,3.23,9.73,6.47,19.46,9.71,29.19,2.67,8.02,5.35,16.04,8.03,24.06,1.95,5.84,3.9,11.67,5.86,17.51,1.05,3.12,2.09,6.24,3.14,9.37.13.39.26.78.39,1.17.34,1,2.61.37,2.28-.61h0Z"/>
    <path class="cls-15" d="M1165.08,285.11s-2.86,47.52,2.92,63.62c1.4,3.91,26.04,15.48,26.04,15.48l-98.68,49.54-49.83-41.26s38.21-17.72,39.62-22.4c1.41-4.69.08-40.02.08-40.02"/>
    <path class="cls-12" d="M1263.3,404.87c-4.45-10.11-28.18-27.07-38.59-32.03-27.13-12.9-51.37-23.94-51.37-23.94,0,0-30.21,40.08-71.84,32.77-41.63-7.32-20.71-29.1-20.71-29.1l-12.99,3.93c-19.5,7.08-27.19,14.28-42.39,28.51-12.94,12.12-22.58,22.55-26.6,39.1-3.11,12.78-7.11,38.43-17.65,69.27-1.05,3.08-10.25,32.61-10.39,33.21-1.09,4.44-.33,8.71,18.18,15.07,9.37,3.22,13.22,3.35,17.3,5.33.45.97,4.17,46.28,4.24,47.58,1.01,20.63.95,42.26-.74,64.96-.04.51,1.52,34.97,1.49,35.48,1.72.01-7.03-.02-5.31,0,27.16.34,45.92-5.06,75.28-6.14,13.66-.51,30.72-.38,44.31,1.09,2.75.3,4.59.55,7.5.82,2.52.24,5.05.43,7.58.63,13.87,1.06,47.97-3.99,61.79-2.43,14.64,1.65,42.84,1.3,56.86,5.72,2.7.85,3.13,3.31,6.02,4.54.46-5.66,1.08-24.23,1.5-29.9,3.5-48.66-20.81-49.88-20.11-139.64l4.39-9.35,29.65-14.93c-7.34-54.44-6.3-75.31-17.4-100.56Z"/>
    <path class="cls-7" d="M1006.67,454c-.95,25.39-1.38,50.83-1.12,76.24.06,5.7.08,11.42.25,17.13l1.18-.55c-2.7-.66-5.38-1.42-8.05-2.22-4.4-1.33-8.86-2.75-12.93-4.94-4.29-2.31-8.71-4.72-12.44-7.88-.96-.81-2.82-2.23-2.76-3.69.01-.38.19-.51.31-.64,0,0,.1-.04,0,0,.18-.05.59-.19.64-.42.59-3.01,1.18-6.03,1.77-9.04l-1.4.37c6.97,5.92,14.92,11.25,23.29,14.95,3.16,1.39,6.45,2.53,9.87,3.05.4.06,1.69-.59.91-.71-6.2-.94-12.04-3.87-17.39-7.02-4.5-2.65-8.81-5.65-12.92-8.86-.81-.64-1.62-1.28-2.41-1.94-.29-.24-1.32-.04-1.4.37-.59,3.01-1.18,6.03-1.77,9.04l.64-.42c-2.43.61-1.42,2.81-.17,4.14,2.71,2.89,6.41,4.97,9.79,6.94,2.53,1.47,5.07,2.93,7.77,4.06,2.39,1,4.84,1.84,7.31,2.62,3.45,1.09,6.93,2.08,10.45,2.94.32.08,1.19-.12,1.18-.55-.76-24.84-.33-49.75.29-74.59.16-6.26.34-12.52.58-18.78.01-.35-1.43-.13-1.45.39h0Z"/>
    <path class="cls-15" d="M1155.07,360.94c-25.32,11.83-53.62,10.77-74.57-7.35,5.6-2.88,5.41-8.11,5.74-9.32,1.25-4.5.87-35.25.87-35.25l79.55-25.67s-5.6,48.36.43,63.55c.32.81,2.97,4.43,4.96,6.14-4.75,4.04-11.27,5.24-16.98,7.91Z"/>
    <path class="cls-33" d="M1070.9,312.68c2.49,4.47,4.75,9.1,7.42,13.45.04.07.05.13.07.19.25-.18.57-.19.78.15,1.88,2.93,3.75,4.21,5.38,7.31,1.41,2.68,1.22,6.69,1.21,9.84,2.1.46,6.05.32,8.71.63,18.07.6,18.56-1.81,43.43-16.2,7.9-4.57,6.71-10.8,8.24-11.89-24.72-1.96-49.35-2.17-75.24-3.49Z"/>
    <path d="M1187.34,255.06s4.33-11.61,10.26-39.58c5.31-25.04-33.37-47.96-57.15-52.95-13.08-2.74-57.45.55-69.13,5.34-11.67,4.79-18.42,19.93-20.91,41.99,0,0,8.1-21.62,22.09-20.38,11.42,1.01,48.58-2.8,58.03,1.82,9.45,4.61,30.29,14.37,29.44,49.13-.23,9.48,17.08.36,21.4,6.3,4.32,5.94,5.97,8.34,5.97,8.34Z"/>
    <path class="cls-15" d="M1166.2,294.66l5.53-33.92,3.6-38.09-13.5-29.7-26.5-14.55-30.89-.56s-25.01,4.88-32.91,6.56c-7.9,1.68-13.86,10.93-19.68,21.31-5.82,10.39-4.43,28.19-4.43,28.19-.25.6.29,3.33.38,3.9,1.19,7.18,1.36,13.42,2.37,18.78.47,2.55.34,4.89-.53,7.2-3.44,9.11-3.59,13.08-3.12,18.78.64,7.78,1.74,14.44,4.29,20.66,2.7,6.6,6.15,13.76,6.86,15.16,0,0,7.77,14.88,9.54,16.39,1.77,1.51,4.45,2.96,5.74,3.17,1.29.2,18.2,2.12,18.2,2.12l7.89.19c2.68.07,5.35-.4,7.85-1.37,6.78-2.64,26.15-10.57,31.5-13.96,7.21-4.55,16.5-24.5,16.5-24.5"/>
    <path d="M1160.31,261.36c-.28,2.94-.74,14.67-1.2,17.53l15.27.37c5.04-9.91,11.09-21.56,12.95-24.2,2.92-4.11,4.25-24.64,4.76-32.36l.11-1.67c.5-7.41-6.07-19.5-17.58-32.34-12.66-14.14-35.86-22.87-59.08-22.25-2.21.06-4.41.2-6.55.42-20.24,2.08-37.38,11.38-50.95,27.64-9.79,11.73-11.01,25.55-10.61,34.04,1.29-16.65,7.67-28.14,7.94-28.62,6.04-11.1,13.24-14.04,18.21-14.55,4.34-.45,7.53.85,8.15,1.14,4.84,1.31,12.03.96,17.22.42,3.87-.4,6.95-.93,7.79-1.08,2.67-1.69,6.62-2.84,11.42-3.33,11.16-1.15,27.14,1.51,30.24,6.54,3.44,5.57,10.87,25.21,10.73,29.72"/>
    <path class="cls-15" d="M1164.71,295.36c8.6,9.44,15.13-7.83,15.13-7.83,8.93-10.09,9.26-21.13,9.17-28.68-.09-7.55-8.39-7.69-8.39-7.69-7.07.56-10.33,4.24-16.94,27.84"/>
    <path d="M1057.98,191.75c5.43-8.08,15.77-18.09,21.73-25.78,2.72-.16,16.13,0,18.95-.02,28.72-.18,66.67,17.66,70,28.23,2.08,6.59-.7,41.98-2.06,45.16-3.73,8.73-5.49,20.27-5.49,20.27-.72-13.34-9.71-28.48-10.75-33.09-1.04-4.6,5.8-26.02,4.36-26.98-1.44-.96-27.35-9.89-56.63-10.44-8.63-.16-17.3.3-25.02,1.05.06-.09-15.16,1.69-15.1,1.6Z"/>
    <path d="M1111.18,249.89c1.78-.87,3.81-1.55,4.93-.51.27.24.97.94,1.28,2.11.4,1.48-.23,3.14-1.18,4.13-1.27,1.33-3.33,1.51-4.89.73-2.12-1.05-2.75-3.65-2.17-5.51.11-.34.6-.25,2.03-.95"/>
    <path d="M1059.83,248.38c-1.73-.95-3.8-.22-4.97.77-.28.23-1.02.9-1.38,2.04-.47,1.46.08,3.15.98,4.18,1.2,1.39,3.25,1.67,4.85.97,2.17-.95,2.93-3.51,2.44-5.4-.09-.35-.51-1.8-1.91-2.57"/>
    <path d="M1074.09,255.71s-6.89-7.23-12.04-7.83c-7.52-.88-9.5.77-12.25,4.17,0,0,5.02-3.49,10.31-2.73,5.05.73,13.99,6.39,13.99,6.39Z"/>
    <path d="M1099.46,254.02s10.84-6.23,16.03-6.14c7.57.12,16.4,4.95,18.69,8.68,0,0-11.61-7.06-16.95-7-5.1.06-17.77,4.47-17.77,4.47Z"/>
    <path d="M1102.7,222.93c-.6,1.7-1.2,3.4-1.8,5.1-.46,1.3-1.59,4.23-2.04,5.52,4.53.38,8.84.08,11.68.56,5.63.96,11.53,1.58,16.6,4.32,2.43,1.31,4.45,2.77,6.13,4.84.53.65,1.72,3.09,2.89,2.99.48-.04.55-2.37.55-2.61.11-4.71-2.89-7.75-6.96-10.33-8.3-5.26-17.46-8.28-27.05-10.4"/>
    <path d="M1045.78,234.45s2.59-1.64,2.61-1.66c7.24-4.64,15.28-7.01,23.71-8.47.56,1.71,1.11,3.43,1.67,5.15.42,1.31,1.26,3.65,1.68,4.95-3.99.08-7.55-.21-10.05.09-4.96.58-10.19,1.13-14.63,3.49-.35.19-3.31,1.41-3.64,1.61-2.27-1.88-1.89-4.57-1.35-5.16Z"/>
    <g>
      <path class="cls-8" d="M1078.98,285.39c2.18,1.24,5.57,1.05,7.83-.31.5-.3,2.14.04,1.44.47-2.99,1.79-7.84,1.85-10.66.25-.28-.16-.22-.38.13-.49.37-.12.96-.08,1.25.09"/>
      <path class="cls-8" d="M1089.23,284.92c1.51-.68,3.18-1.02,4.85-1.11.24-.01.56.09.73.26.14.13.16.3-.02.41-.78.43-1.76.6-2.66.56-.28-.01-.66-.09-.81-.35-.14-.23.13-.38.36-.37.74.03,1.5-.1,2.15-.46.24.22.47.44.71.66-1.49.08-2.99.4-4.34,1.01-.27.12-.65.03-.88-.12-.17-.11-.36-.37-.09-.49"/>
      <path class="cls-8" d="M1095.83,285.29c1.95,0,4.26-.81,5.26-2.29,1.5-2.23.24-5.83-2.15-7.33-.26-.16-.12-.36.15-.42.35-.07.76.07,1.03.25,2.09,1.31,3.39,4.27,3.02,6.39-.35,1.98-2.24,3.32-4.59,3.84-.7.15-1.44.25-2.17.25-.3,0-.82-.1-.96-.34-.14-.24.13-.34.41-.34"/>
      <path class="cls-8" d="M1075.44,284.29c.11-.23-.08-.38-.24-.38-.53,0-1.06-.16-1.5-.54-.18.21-.35.42-.53.63,1.05.14,2.1.52,3.02,1.19.18.13.46.06.63-.08.13-.1.27-.35.08-.49"/>
      <path class="cls-8" d="M1076.91,284.62c-1.04-.75-2.21-1.15-3.38-1.31-.17-.02-.4.07-.53.23-.1.13-.13.3,0,.41"/>
      <path class="cls-8" d="M1071.39,284.47c-1.27-.08-2.73-.99-3.32-2.5-.89-2.29.06-4.96,1.67-6.36.18-.15.09-.36-.08-.42-.23-.08-.5.04-.68.2-1.41,1.23-2.35,3.25-2.2,5.38.15,1.99,1.32,3.41,2.83,4.02.45.18.92.31,1.4.34.19.01.54-.07.64-.3.1-.24-.07-.35-.25-.36"/>
    </g>
    <path class="cls-11" d="M1085.7,299.99c4.34.05,17.38.54,17.38.54,0,0-4.64,3.93-17.65,3.78-13.01-.15-17.25-4.03-17.25-4.03l17.53-.28Z"/>
    <g>
      <path class="cls-31" d="M1168.66,343.45s-17.54,37.8-58.89,34.74c-8.02-.59-14-2.16-18.44-4.18-9.24-4.19-13.15-15.24-8.88-24.44h0s-12.85,4.84-12.85,4.84c0,0-4.35,11.53.59,21.3,4.94,9.76,25.68,18.25,52.18,16.02,15.54-1.31,30.19-9.83,42.59-21.14,14.84-13.55,15.3-20.78,15.3-20.78l-11.59-6.36Z"/>
      <path class="cls-7" d="M1167.94,343.55c-.98,2.12-2.58,4.65-4,6.75-3.5,5.14-7.65,9.85-12.38,13.89-6.32,5.4-13.71,9.54-21.73,11.77-10.51,2.92-22.17,2.69-32.63-.35-5.69-1.65-10.85-4.45-13.67-9.89-2.61-5.03-2.73-11.09-.35-16.24.21-.45-.89-.24-1.01-.19-3.29,1.24-6.57,2.48-9.86,3.72l-2.27.85c-.3.11-.79.21-1.02.45-.26.26-.33.75-.44,1.08-.28.91-.52,1.83-.71,2.77-1.31,6.15-1.21,13.28,2.18,18.79,2.41,3.91,6.5,6.66,10.52,8.7,5.78,2.95,12.17,4.7,18.55,5.73,7.88,1.27,16,1.48,23.95.68,15.5-1.55,29.53-9.91,41.01-20.04,5.07-4.47,10.01-9.39,13.69-15.1.93-1.45,1.78-2.96,2.43-4.55.29-.7.69-1.57.73-2.35,0-.1.03-.19.04-.29,0-.13-.03-.19-.15-.25-3.86-2.12-7.73-4.24-11.59-6.36-.4-.22-1.74.37-1.16.69,2.87,1.58,5.75,3.15,8.62,4.73l2.15,1.18c.18.1.4.29.6.33.35.07.06.22.07-.13-.02.4-.15.81-.26,1.19-.92,3.15-2.87,6.03-4.83,8.62-4.39,5.8-9.82,10.87-15.48,15.41-6.04,4.85-12.66,9.06-19.83,12.04-7.21,2.99-14.66,4.3-22.44,4.5-7.41.19-14.86-.43-22.08-2.13-5.66-1.33-11.29-3.33-16.21-6.48-4.07-2.61-7.27-5.97-8.74-10.66-1.72-5.48-1.32-11.6.34-17.05.1-.34.21-.68.34-1.02l-.44.38c4.28-1.61,8.57-3.23,12.85-4.84l-1.01-.19c-2.17,4.68-2.3,10.19-.34,14.96s5.74,8.26,10.46,10.21c5.58,2.31,11.64,3.32,17.64,3.76,5.27.39,10.6.14,15.8-.84,15.77-2.99,29.29-12.68,38.64-25.52,2.03-2.79,3.99-5.74,5.45-8.87.2-.42-1.23-.27-1.45.19Z"/>
    </g>
    <path class="cls-30" d="M1171.25,274.94c1.32-4.06,2.85-8.19,5.2-11.79.59-.91,1.25-1.78,2.02-2.54.26-.25.44-.41.7-.61.11-.08.21-.15.32-.23.05-.03.1-.06.15-.09.14-.09-.11.05.03-.02.08-.04.17-.08.26-.12.18-.09.02-.02.02-.01s.39-.06-.03,0l-.59-.17c.66.64,1.14,1.53,1.5,2.36,1.04,2.4,1.19,5.06.89,7.63-.08.67,1.39.44,1.46-.14.36-3.04.09-6.23-1.43-8.95-.42-.74-.95-1.86-1.95-1.62-2.34.56-4.07,3.31-5.2,5.18-2.11,3.5-3.54,7.39-4.8,11.26-.19.59,1.28.42,1.46-.14h0Z"/>
    <path class="cls-30" d="M1172.7,276.17c2.36-.06,1.5,3.67,1.29,5.04-.16,1.02-1.05,4.41.86,4.39,1.01-.01,1.6-.78,2.01-1.6.75-1.5,1.14-3.2,1.48-4.83.43-2.06.62-3.87.39-5.96-.27-2.39-.97-5.38-3.39-6.48-.39-.18-1.72.41-1.16.66,2.02.92,2.69,3.44,3,5.45.23,1.48.33,2.99.1,4.44-.28,1.81-.66,3.61-1.23,5.35-.19.57-.39,1.14-.68,1.67-.09.17-.3.39-.37.57,0,.02-.14.13-.13.13l.67-.14s-.09-.08-.13-.13c-.06-.29-.24-.52-.27-.85-.04-.46.01-.92.07-1.38.13-1.02.33-2.04.45-3.06.22-1.93.07-4.08-2.37-4.02-.25,0-.85.1-.96.38s.09.37.38.37h0Z"/>
    <path class="cls-30" d="M1092.32,233.85c-2.1-.94-3.42-3.08-3.89-5.28-.58-2.76.15-5.63,1.15-8.2.29-.76-1.16-.72-1.38-.14-1.09,2.81-1.88,5.93-1.18,8.93.58,2.45,2.13,4.6,4.45,5.64.58.26,1.68-.57.84-.95h0Z"/>
    <path class="cls-26" d="M1082.99,297.06c6.48.08,20.73,4.84,23.58,7.79,0,0-6.52,9.26-21.55,9.07-15.03-.19-18.41-9.58-18.41-9.58,0,0,8.13-7.39,16.38-7.28Z"/>
    <path class="cls-20" d="M1100.49,301.55s-8.22-.82-14.79-.91-14.8.53-14.8.53c0,0-.99-5.33,10.91-5.18,11.9.15,18.67,5.56,18.67,5.56Z"/>
    <path class="cls-9" d="M1083.11,311.33c7.05-1.07,15.25-7.18,23.45-6.48,0,0-3.41,14.05-21.08,13.82-17.67-.22-18.88-14.33-18.88-14.33,8.22-.49,9.48,5.74,16.51,6.99Z"/>
    <path class="cls-9" d="M1075.35,292.91c3.72-.27,6.05,1.39,7.66,1.41,1.61.02,3.99-1.58,7.7-1.21,3.47.34,18.06,10.37,16.4,11.62-1.66,1.26-12.97-6.12-24.15-6.26-11.18-.14-15.27,7.03-16.9,5.74-1.63-1.3,5.81-11.05,9.29-11.3Z"/>
    <path class="cls-15" d="M1272.96,512.25c-21.62,2.5-43.2,5.38-64.82,7.89l4.22,103.31-19.41,9.56-106.18,50.53,3.89,29.95s80.79-11.97,106.08-17.76c1.44-.33,38.98-8.18,48.17-11.51,15.9-5.76,21.66-13.99,26.13-26.31,5.54-15.3,5.41-45.95,4.23-61.88-1.18-15.8-1.71-68.02-2.3-83.79Z"/>
    <path class="cls-15" d="M1094.66,680.9l13.49,27.37-3.88,1.06s-29.96,14.31-37.71,15.1c-7.76.78-25.71,4.87-25.71,4.87,1.4,1.97,2.06,4.36,1.88,6.76-.4,2.75-1.91,5.22-4.17,6.82l-10.41-10.21c-1,5.97-6.83,2.9-6.83,2.9l-7.95-9.24c-.9,7.45-8.56,3.63-8.56,3.63l-6.42-13.96c-1.32,2.79-3.17,5.29-5.46,7.37-3.04,2.32-5.41-3.25-5.41-3.25l7.91-25.58,32.25-17.68,64.77,5.1,2.22-1.06Z"/>
    <path class="cls-5" d="M998.81,716.9c.2-.07-.37-2.33-.88-6.26-.12-.98-.29-2.1-.34-3.17-.03-1.1.37-2.16,1.12-2.96,1.8-2.15,3.79-4.14,5.95-5.93,2.27-1.93,4.57-3.6,6.71-5.18,2.13-1.58,4-3,5.65-3.99"/>
    <path class="cls-5" d="M1012.61,725.19c-.47-.95-1.45-2.21-2.04-3.88-.69-2.05-.89-4.24-.56-6.38.06-1.19.27-2.37.62-3.51.75-1.03,1.69-1.9,2.77-2.57,4.58-3.31,9.2-5.84,12.23-8.14"/>
    <path class="cls-5" d="M1028.59,732.62c.19-.2-1.19-1.32-2.72-3.47-.96-1.16-1.54-2.58-1.68-4.07-.04-1.77.78-3.45,2.21-4.5,1.52-1.14,3.22-2.02,5.02-2.61l4.55-1.82c1.15-.47,2.17-1,2.85-1.24"/>
    <path class="cls-33" d="M1211.08,624.57c4.48-1.6,9.29,1.12,12.83,3.67,3.83,2.76,7.3,6.01,10.38,9.58.43.5,2.07-.13,1.57-.7-3.48-4.04-7.49-7.78-11.96-10.7-4.03-2.63-8.8-4.37-13.53-2.68-.29.1-.65.45-.43.77.23.34.85.17,1.14.06h0Z"/>
    <path class="cls-12" d="M1273.34,440.05s6.97,45.06,8.98,79.98c0,0-52.93,15.9-89.72,8.24-38.99-8.12,5.54-61.14,5.54-61.14l75.2-27.07Z"/>
    <path class="cls-7" d="M1219.54,386.29c-3.23.42-6.4,2.32-8.94,4.22-7.31,5.49-11.83,14-14.73,22.49-6.11,17.91-5.76,37.27-5.96,55.95-.16,14.74-.08,29.49.7,44.21.19,3.6.42,7.19.76,10.78.09.99.19,1.98.3,2.96.05.41.01,1,.17,1.38.02.05.02.12.02.17.02.12.19.18.28.2,10.36,2.19,21.21,3,31.77,2.88,9.01-.11,17.76-1.42,26.57-3.19,7.39-1.48,14.75-3.18,22.04-5.12,3.31-.88,6.62-1.78,9.88-2.83.26-.08.65-.24.63-.56-.23-3.62-.46-7.24-.7-10.85-.02-.3-.68-.22-.82-.18-9.92,3.07-20.1,5.49-30.3,7.43-15.74,2.99-31.87,4.1-47.87,3.19-2.55-.15-5.18-.27-7.69-.78-.47-.1-1.71.63-.88.8,2.04.41,4.15.55,6.22.7,6.72.49,13.49.44,20.22.21,8.84-.3,17.58-1.14,26.3-2.67,7.62-1.33,15.18-3.02,22.67-4.94,3.86-.99,7.72-2.03,11.53-3.2l-.82-.18c.23,3.62.46,7.24.7,10.85l.63-.56c-6.81,2.18-13.78,3.92-20.74,5.53-7.29,1.7-14.66,3.32-22.06,4.4-7.37,1.08-14.85,1.3-22.29,1.02-5.79-.22-11.57-.76-17.31-1.59-1.69-.24-3.37-.51-5.04-.82-.43-.08-.87-.19-1.31-.25-.65-.08-.12-.13-.15.12.05-.43-.13-1-.18-1.43-.17-1.44-.3-2.89-.43-4.34-.52-6.13-.82-12.27-1.03-18.42-.38-11.28-.44-22.57-.33-33.85.14-14.29-.03-28.77,2.4-42.89,1.54-8.9,4.06-17.87,8.71-25.68,2.66-4.47,6.09-8.63,10.46-11.51,2.01-1.33,4.09-2.35,6.28-2.82-.18.04-.03,0,.14-.02.71-.09,1.2-.95.19-.82h0Z"/>
  </g>
</svg>