<?xml version="1.0" encoding="UTF-8"?>
<svg id="Layer_1" data-name="Layer 1" xmlns="http://www.w3.org/2000/svg" xmlns:xlink="http://www.w3.org/1999/xlink" viewBox="0 0 1334 1000">
  <defs>
    <style>
      .cls-1 {
        fill: #131429;
      }

      .cls-2 {
        fill: none;
        stroke: #4f2e25;
        stroke-miterlimit: 10;
        stroke-width: .5px;
      }

      .cls-3 {
        fill: #8c542a;
      }

      .cls-4 {
        fill: #101931;
      }

      .cls-5 {
        fill: #010101;
      }

      .cls-6 {
        fill: #653c29;
      }

      .cls-7 {
        fill: #231f20;
      }

      .cls-8 {
        fill: #715446;
      }

      .cls-9 {
        fill: #27153c;
      }

      .cls-10 {
        fill: #745245;
      }

      .cls-11 {
        fill: #5c483b;
      }

      .cls-12 {
        fill: #271313;
      }

      .cls-13 {
        fill: #57362f;
      }

      .cls-14 {
        fill: #a66e53;
      }

      .cls-15 {
        fill: #0a2f44;
      }

      .cls-16 {
        fill: url(#linear-gradient);
        opacity: .5;
      }

      .cls-17 {
        fill: #fff;
      }

      .cls-18 {
        fill: #59341c;
      }

      .cls-19 {
        fill: #0d0b09;
      }

      .cls-20 {
        fill: #513835;
      }

      .cls-21 {
        fill: #cb9a2c;
      }

      .cls-22 {
        fill: #4f2f26;
      }

      .cls-23 {
        fill: #151210;
      }

      .cls-24 {
        fill: #f2ebd1;
      }

      .cls-25 {
        fill: #98a754;
      }

      .cls-26 {
        fill: #24180f;
      }

      .cls-27 {
        fill: #628e9f;
      }

      .cls-28 {
        fill: #0a1722;
      }

      .cls-29 {
        fill: #28160e;
      }

      .cls-30 {
        fill: #825639;
      }

      .cls-31 {
        fill: #381c13;
      }

      .cls-32 {
        fill: #eb9944;
      }

      .cls-33 {
        fill: #4f2e25;
      }

      .cls-34 {
        fill: #161312;
      }
    </style>
    <linearGradient id="linear-gradient" x1="-1037.17" y1="3334.61" x2="22.26" y2="3334.61" gradientTransform="translate(-2689.51 968.48) rotate(90) scale(1 -1)" gradientUnits="userSpaceOnUse">
      <stop offset="0" stop-color="#f0ebe0"/>
      <stop offset=".18" stop-color="#eee8dd" stop-opacity=".99"/>
      <stop offset=".33" stop-color="#e8e1d4" stop-opacity=".97"/>
      <stop offset=".46" stop-color="#ded4c5" stop-opacity=".93"/>
      <stop offset=".59" stop-color="#d0c2b0" stop-opacity=".88"/>
      <stop offset=".72" stop-color="#bdab95" stop-opacity=".82"/>
      <stop offset=".84" stop-color="#a78e73" stop-opacity=".73"/>
      <stop offset=".96" stop-color="#8d6d4d" stop-opacity=".64"/>
      <stop offset="1" stop-color="#83603d" stop-opacity=".6"/>
    </linearGradient>
  </defs>
  <polyline class="cls-24" points="1400.78 972.33 1400.78 -84.14 -110.58 -84.14 -110.58 972.33"/>
  <polyline class="cls-16" points="1400.78 987.24 -110.58 987.24 -110.58 -72.19 1400.78 -72.19"/>
  <path class="cls-11" d="M1274.17,659.09l-1.19-.45-2.12-84.15c-3.13-63.51-20.3-109.6-56.84-113.18-24.87,0-109.01-1.15-117.39,5.29-2.32-110.33,9.67-198.35-170.56-198.35l-198.67.48c-2.12,48.7-7.9,97.24-15.07,145.45-9,60.47,8.62,120.58-.59,181.01-4.63,30.37,35.36,60.97,31.44,91.44-4,31.04-8.03,62.08-11.96,93.14-5.97,47.22-11.7,94.51-16.62,141.88h567.16v-98.43c14.12-4.62,23.94-19.88,24.01-37.34v-70.2c-.04-26.9-11.44-44.46-31.59-56.58Z"/>
  <path class="cls-11" d="M745.25,921.64c.55-13.83,1.09-27.66,1.51-41.49.97-31.82,33.63-63.64,33.63-95.47l-7.38-515.24-427.5-1.21c-92.56.02-107.97,88.02-110.29,198.35-8.38-6.44-92.52-5.29-117.39-5.29-36.54,3.58-53.71,49.67-56.84,113.18l-2.12,84.15-1.19.45c-20.15,12.11-31.54,29.67-31.59,56.58v70.2c.08,17.46,9.89,32.72,24.01,37.34v98.43h695.15Z"/>
  <path class="cls-14" d="M594.57,627.03l2.58,35.16-7.96,15.47-10.51,13.96-26.42,16.38s-3.98-1.39.79-7.44c4.58-5.26,9.61-10.23,15.03-14.87l4.85-17.27-3.33-8.35-5.14.19s-1.59,22.29-5.6,26.28c-.69.69-1.28,1.27-1.78,1.74-1.39,1.33-3.61,1.16-4.81-.34l-1.77-2.22,3.51-33s4.01-14.19,5.44-17.47c1.82-3.19,4.81-7.75,7.18-10.67l1.07-4.5,26.29,2.36.58,4.59Z"/>
  <polyline class="cls-8" points="-102.4 1030.79 1392.6 1030.79 1392.6 952.88 -102.4 952.88"/>
  <polygon class="cls-29" points="1280.25 923.19 1216.89 923.19 1231.32 953.54 1280.25 954.54 1280.25 923.19"/>
  <polygon class="cls-29" points="52.46 921.6 115.81 921.6 101.38 952.95 52.46 952.95 52.46 921.6"/>
  <path class="cls-19" d="M58.17,826.15h1217.93c.47,0,1.56-.7.6-.7H58.77c-.47,0-1.56.7-.6.7h0Z"/>
  <path class="cls-19" d="M64.14,658.94c.7,0,1.4,0,2.1,0h6.17c3.34-.02,6.68-.02,10.02-.03,4.56,0,9.11-.02,13.67-.02,5.7-.01,11.41-.02,17.11-.03l20.34-.04c7.79-.01,15.57-.03,23.36-.04,8.72-.02,17.45-.03,26.17-.05,9.56-.02,19.13-.03,28.69-.05,10.36-.02,20.72-.04,31.07-.05,11.12-.02,22.23-.04,33.35-.06l35.32-.06c12.36-.02,24.73-.04,37.09-.07,12.88-.02,25.77-.05,38.65-.07l40.01-.07,41.15-.07c14.03-.02,28.06-.05,42.09-.07l42.81-.08c14.44-.03,28.89-.05,43.33-.08s29.01-.05,43.51-.08c14.54-.03,29.07-.05,43.61-.08l43.63-.08,43.31-.08c14.26-.03,28.52-.05,42.79-.08s28.03-.05,42.05-.07c13.7-.02,27.41-.05,41.11-.07,13.32-.02,26.64-.05,39.96-.07s25.73-.05,38.6-.07c12.34-.02,24.68-.04,37.03-.07s23.43-.04,35.15-.06c11.09-.02,22.18-.04,33.27-.06,10.33-.02,20.66-.04,30.99-.05,9.56-.02,19.12-.03,28.68-.05,8.69-.02,17.38-.03,26.06-.05,7.75-.01,15.5-.03,23.24-.04,6.74-.01,13.48-.02,20.21-.04l16.98-.03c4.51,0,9.02-.02,13.53-.02l9.87-.02h6.01c.65-.01,1.29-.01,1.94-.01.32,0,1.64-.6.94-.6s-1.4,0-2.1,0h-6.17c-3.34.02-6.68.02-10.02.03l-13.67.02c-5.7.01-11.41.02-17.11.03l-20.34.04-23.36.04-26.17.05c-9.56.02-19.13.03-28.69.05-10.36.02-20.72.04-31.07.05-11.12.02-22.23.04-33.35.06-11.77.02-23.55.04-35.32.06-12.36.02-24.73.04-37.09.07-12.88.02-25.77.05-38.65.07l-40.01.07-41.15.07c-14.03.02-28.06.05-42.09.07l-42.81.08c-14.44.03-28.89.05-43.33.08s-29.01.05-43.51.08c-14.54.03-29.07.05-43.61.08l-43.63.08-43.31.08c-14.26.03-28.52.05-42.79.08s-28.03.05-42.05.07c-13.7.02-27.41.05-41.11.07-13.32.02-26.64.05-39.96.07s-25.73.05-38.6.07c-12.34.02-24.68.04-37.03.07s-23.43.04-35.15.06c-11.09.02-22.18.04-33.27.06-10.33.02-20.66.04-30.99.05-9.56.02-19.12.03-28.68.05-8.69.02-17.38.03-26.06.05-7.75.01-15.5.03-23.24.04-6.74.01-13.48.02-20.21.04l-16.98.03c-4.51,0-9.02.02-13.53.02l-9.87.02h-6.01c-.65.01-1.29.01-1.94.01-.32,0-1.64.6-.94.6h0Z"/>
  <path class="cls-19" d="M1095.54,469.96c-8,10.65-15.5,22-20.96,34.19-2.87,6.4-4.79,13.07-5.87,20-1.2,7.66-1.52,15.42-1.83,23.15-.9,22.72-1.28,45.47-1.73,68.21-.24,11.94-.46,23.87-.73,35.8,0,.37,1.44.13,1.45-.39.51-22.67.89-45.34,1.42-68.01.25-10.81.52-21.62.91-32.43.51-14.1.85-28.62,5.93-41.97,2.68-7.03,6.32-13.7,10.22-20.12,3.86-6.35,8.07-12.5,12.54-18.45.36-.47-1.08-.33-1.34.02h0Z"/>
  <path class="cls-19" d="M1140.26,469.9c-7.98,10.62-15.45,21.94-20.91,34.09-2.89,6.44-4.83,13.15-5.92,20.12-1.18,7.57-1.52,15.25-1.82,22.89-.9,22.78-1.28,45.58-1.74,68.37-.24,11.94-.46,23.87-.73,35.8-.02.69,1.45.43,1.46-.14.51-22.67.89-45.34,1.42-68.01.25-10.9.53-21.81.92-32.71.51-14.11.85-28.67,6.01-42,2.68-6.94,6.28-13.52,10.14-19.87,3.86-6.35,8.07-12.5,12.54-18.45.43-.58-1.04-.55-1.37-.11h0Z"/>
  <path class="cls-19" d="M236.91,471.81c7.98,10.62,15.45,21.94,20.91,34.09,2.87,6.4,4.79,13.07,5.87,20,1.2,7.66,1.52,15.42,1.83,23.15.9,22.69,1.27,45.41,1.73,68.12.24,11.94.46,23.87.73,35.8,0,.24,1.46.02,1.45-.39-.52-22.79-.89-45.59-1.43-68.38-.25-10.78-.52-21.56-.91-32.34-.51-14.17-.88-28.74-6.05-42.13-2.68-6.94-6.28-13.52-10.14-19.87s-8.07-12.5-12.54-18.45c-.26-.35-1.56.24-1.45.39h0Z"/>
  <path class="cls-19" d="M192.17,471.81c7.98,10.62,15.45,21.94,20.91,34.09,2.87,6.4,4.79,13.07,5.87,20,1.2,7.66,1.52,15.42,1.83,23.15.9,22.69,1.27,45.41,1.73,68.12.24,11.94.46,23.87.73,35.8,0,.26,1.46.03,1.45-.39-.52-22.79-.89-45.59-1.43-68.38-.25-10.78-.52-21.56-.91-32.34-.51-14.17-.88-28.74-6.05-42.13-2.68-6.94-6.28-13.52-10.14-19.87s-8.07-12.5-12.54-18.45c-.27-.36-1.57.23-1.45.39h0Z"/>
  <path class="cls-14" d="M561.05,246.4l-65.88-19.09-15.38,18.48s13.33,20.23,14.95,21.48c1.62,1.25,41.23,22.06,41.23,22.06,0,0,51.84-2.39,51.16-2.46-.68-.06-26.08-40.47-26.08-40.47Z"/>
  <path class="cls-14" d="M502.04,179.76s2.56,26.17-15.43,47.95c-1.73,2.09-15.77,4.37-15.77,4.37l18.97,11.61c13.31,6.6,44.82,14.14,59.46,13.18l12.93-3.65s-13.6-6.59-13.57-9.79c.04-3.2,8.12-25.42,8.12-25.42"/>
  <path class="cls-30" d="M498.73,184.47c-.02.08-.04.14-.06.22,0-.1.02-.18.06-.22Z"/>
  <path class="cls-14" d="M532.75,245.22l24.13,8.03,12.91,1.76c1.2.48,11.75-9.28,13.15-10.52,4.36-3.84,9.32-9.36,12.85-13.99,3.78-4.96,9.13-8.48,12.5-14.89,2.47-4.7,3.78-8.14,4.15-17.16.09-2.29.84-4.34,2.16-6.34,2.81-4.21,5.22-9.47,8.84-15.17.28-.45,1.74-2.58,1.74-3.19,0,0,10.78-25.39,9.59-36.37-1.2-10.98-6.56-17.82-12.7-22.12-6.13-4.3-26.62-10.61-26.62-10.61l-26.18-14.37-27.9,2.79-22.69,24.08-10.75,33.81-7.6,30.96"/>
  <path d="M594.65,185.23s8.53-3.59,13.14-2.19c6.72,2.04,7.79,4.18,8.87,8.08,0,0-2.98-4.83-7.75-6.14-4.56-1.25-14.26.25-14.26.25Z"/>
  <path d="M572.92,175.92s-6.52-9.34-10.81-11.22c-6.27-2.75-15.38-2-18.69.29,0,0,12.25-1.59,16.61.47,4.17,1.97,12.89,10.46,12.89,10.46Z"/>
  <path d="M584.26,149.72c-.3,1.64-.61,3.29-.92,4.93-.24,1.25-.68,4.13-.92,5.38-3.76-1.78-7.03-4.02-9.5-4.93-4.9-1.82-9.85-4.05-15.12-4.19-2.52-.07-4.79.17-7.07,1.07-.72.28-2.78,1.7-3.66,1.07-.36-.26.66-2.16.76-2.35,2.07-3.83,5.84-4.9,10.25-5.09,8.98-.4,17.62,1.4,26.18,4.12"/>
  <path d="M625.19,176.94s-1.7-2.42-1.72-2.44c-4.74-6.82-10.99-11.98-17.91-16.52-1.1,1.26-2.19,2.52-3.3,3.79-.84.96-2.41,2.65-3.24,3.61,3.49,1.62,6.73,2.76,8.83,3.98,4.17,2.43,8.59,4.94,11.67,8.7.24.3,1.53,1.93,1.75,2.23,2.66-.74,4.17-2.63,3.91-3.34Z"/>
  <path class="cls-23" d="M555.39,228.08l17.09,5.78s-6.53,4.93-10.62,3.31c-2.56-1.01-4.89-5.13-6.48-9.09Z"/>
  <g>
    <path class="cls-5" d="M578.4,209.06c-2.31.27-5.13-1.13-6.57-3.11-.32-.44-1.84-.74-1.4-.12,1.9,2.62,6.02,4.42,9.01,4.08.3-.04.33-.24.06-.47-.27-.24-.79-.41-1.1-.38"/>
    <path class="cls-5" d="M569.83,204.94c-1.04-1.13-2.35-2.03-3.74-2.71-.2-.1-.51-.13-.72-.05-.17.06-.25.2-.13.36.51.65,1.29,1.15,2.07,1.44.25.09.59.16.82,0,.21-.15.02-.37-.17-.44-.65-.24-1.25-.63-1.67-1.17-.28.1-.56.21-.85.31,1.24.61,2.41,1.42,3.33,2.44.18.2.54.26.79.22.19-.03.44-.18.25-.39"/>
    <path class="cls-5" d="M564.06,202.86c-1.66-.71-3.34-2.24-3.65-3.86-.47-2.45,1.89-5.01,4.48-5.43.28-.05.23-.27.02-.41-.28-.19-.68-.21-.97-.17-2.26.36-4.42,2.37-4.88,4.31-.42,1.81.71,3.65,2.52,4.94.54.38,1.14.74,1.76,1,.25.11.74.21.95.06.21-.16.01-.34-.23-.44"/>
    <path class="cls-5" d="M581.82,209.41c-.01-.23.21-.3.34-.24.45.19.96.25,1.48.08.08.24.15.49.22.73-.95-.26-1.98-.32-3.01-.08-.21.05-.41-.12-.5-.3-.07-.14-.1-.4.11-.45"/>
    <path class="cls-5" d="M580.45,209.15c1.15-.26,2.3-.18,3.36.11.15.04.32.2.37.39.04.14,0,.3-.15.35"/>
    <path class="cls-5" d="M585.22,211.03c1.11.39,2.69.15,3.74-.93,1.59-1.63,1.75-4.25.88-6.04-.09-.19.05-.34.22-.33.22.01.41.22.51.42.76,1.56.83,3.63-.08,5.39-.85,1.64-2.37,2.43-3.87,2.4-.45,0-.9-.07-1.32-.22-.17-.06-.43-.26-.43-.49,0-.24.19-.27.34-.21"/>
  </g>
  <path class="cls-2" d="M571.5,133.77s27.33,6.36,43.67,16.84"/>
  <g>
    <g>
      <path d="M635.51,135.1c-.57.63-.93,1.4-.49,2.07.26.4.77.78,1.1,1.14.11-1.16-.02-2.3-.61-3.2Z"/>
      <path d="M634.92,134.96c-.49.54-.97,1.27-.79,2.03.17.69.86,1.12,1.32,1.61.18.19.55.18.78.11.12-.04.24-.09.35-.15.1-.06.26-.2.27-.33.11-1.19-.01-2.39-.67-3.42-.07-.11-.29-.14-.4-.15-.18-.01-.4.03-.57.11-.24.11-.56.34-.37.63.55.86.64,1.98.55,2.99l1.4-.37c-.21-.23-.45-.43-.67-.65s-.43-.43-.51-.68c-.02-.07-.04-.13-.05-.2,0-.03,0-.06,0-.09,0,.06,0-.03,0-.05.01-.14.05-.28.1-.42.03-.08-.03.05.01-.02.02-.04.04-.08.06-.11.04-.07.08-.14.12-.2s.09-.13.14-.2c.02-.03.05-.06.01-.02.04-.04.07-.08.11-.12.08-.09.17-.21.14-.34-.03-.12-.17-.2-.29-.23-.32-.07-.79.02-1.02.27Z"/>
    </g>
    <g>
      <path d="M638.18,131.8c-.21-.98-1.45-1.47-1.68-2.45-.26-1.1.89-2.06,1-3.19.15-1.5-1.46-2.51-2.84-3.13,1.27-.75,1.38-2.85.2-3.73-.48-.35-1.13-.57-1.34-1.13-.3-.83.65-1.81.2-2.57-.3-.51-1.04-.55-1.54-.86,0-.38,0-.77,0-1.15-.11-.1-.21-.21-.32-.32.3-.67.89-1.39.79-2.12-.1-.76-.9-1.26-1.6-1.75.15-.17.35-.31.61-.39-.68.03-1.21-.21-1.67-.61-.1-.21-.11-.45.02-.72l-.23.53c-1.46-1.48-2.17-4.55-4.29-5.26-.82-.28-1.73-.13-2.58-.28-2.23-.39-3.72-3.08-2.87-5.17-2.47.42-5.09-.19-7.12-1.65h-.45c-.69-1.8-2.13-3.76-3.28-3.87-1.74-.17-3.64.2-5.14-.71-1.78-1.09-2.46-3.75-4.51-4.16-1.2-.24,1.18,2.04,0,1.7-1.67-.49-2.24-2.74-3.84-3.45-2-.89-4.48,1.09-6.44.09-1.26-.64-1.72-2.26-2.91-3.02-2.35-1.53-6.08,1.05-8.1-.91-.86-.84-1.01-2.24-1.9-3.04-2.08-1.86-5.39,1.89-7.91.67-1.55-.75-2.22-2.9-3.9-3.24-1.83-.37.13,2.39-1.68,1.92-1.01-.26-1.69-1.26-2.68-1.59-2.7-.93-4.95,2.58-7.8,2.37-1.31-.1-2.45-1.18-3.76-1.09-1.62.11-2.72,1.91-4.19,2.4-.17.04-.35.08-.53.12-.09,0-.18.02-.28.01-1.26-.04-2.28-1.21-3.54-1.19-2.01.03-3.37,3-5.29,2.42-.87-.26-1.58-1.23-2.45-.99-.85.24-.95,1.37-1.29,2.19-.68,1.63-3.09,2.19-4.42,1.04-.4.63-1.58,2.6-2.66,4.42l.41-.9c-.33-.92-1.78-.78-2.42-.04-.64.74-.8,1.77-1.26,2.64-.98,1.83-3.47,2.66-5.35,1.78.63,2.9.7,6.86-2.1,7.81-.68.23-1.44.22-2.08.57-1.03.56-1.4,1.93-1.15,3.08.25,1.15-.95.94-.25,1.89-2.07.85-4.57,2.51-3.92,4.65.36,1.18-1.98.57-2.37,1.74-.46,1.36-.63,2.27-1.76,3.16-.94.74-.99,2.21-.45,3.28.54,1.07-2.15,1.14-1.19,1.86-.03,1.67-.13.44-1.46,1.45-1.18.89-1.59,4.42-.36,5.25s1.24-.15,1.9,1.17c-1.74.33-3.93,1.18-3.87,2.95.06,1.69,2.07,2.38,3.36,3.55-.18.76-.36,1.54-.54,2.36-1,.27-2.27.32-2.98,1.05-.75.79-.55,2.14.14,2.98.57.69,1.39,1.11,2.22,1.47.61,4.48,1.39,14.8,2,23.73l10.15,4.03-.16.64c.72.34,1.43.67,2.15,1.01.22.1.47.21.71.16.6-.13.57-.97.61-1.58.1-1.42,1.27-2.48,2.26-3.5.99-1.02,1.91-2.46,1.38-3.78-.28-.7-.95-1.32-.79-2.05.21-.96,1.52-1.04,2.37-1.52,1.33-.74,1.44-2.96.18-3.83,0,0,2.23-1.22,2.85-4.93.63-3.71.88-7.82.88-7.82h0c.3-.18.59-.36.84-.6,1.82-1.75.81-5.11,2.47-7.01.75-.85,1.93-1.25,2.6-2.17,1.29-1.74.13-4.34,1.04-6.3,1.02-2.21,4.42-3.2,4.27-5.63-.07-1.18-1.06-2.18-1.07-3.37-.01-2.07,2.89-3.77,1.96-5.62-.33-.64-1.06-1.03-1.27-1.71-.43-1.38,1.38-2.26,2.34-3.34.99-1.11,1.11-2.74,1.76-4.09s2.48-2.44,3.57-1.41c0-1.57,1.37-4.36,2.94-5.94l4.98.02c.17.03.33.03.49,0l14.58.05c.57.37,1.17.66,1.83.76.75.11,1.57-.22,2.09-.75h1.86c.66.64,1.37,1.2,2.21,1.55,1.48.62,3.43.41,4.34-.9-.33,2.26,2.64,4.2,4.58,2.99.77-.48,1.49-1.36,2.38-1.16.4.09.71.38.99.68.9.98,1.38,4.07,1.69,6.37-.1.86-.05,1.59.29,2.09.33.21,2.41,1.58,4.81,3.11-.51.41-.61,1.11.06,1.64.9.7,2.61.73,3.09,1.57.53.93-1.29,1.31-1.12,2.24.11.58.95,1.07,1.41,1.63.55.66.53,1.41,1.02,2.08.5.69,1.54,1.25,2.5,1.33.91.43,2.32.52,2.37,1.28.01.2-.1.37-.18.55-.31.7.02,1.64.78,2.25.77.62,1.92.87,2.79.62.84-.25,1.36-.91,2.23-1.1.27-.06.58-.07.88-.09.15.31.38.6.68.84.77.62,1.92.87,2.79.62.84-.25,1.36-.91,2.23-1.1.73-.16,1.69,0,2.19-.43.79-.69-.27-2.34.78-2.77.95-.39,2.22.81,3.37.83.45,0,.78-.18.99-.46,2.26-.15,5.12-1.51,7.95-1.27.06.05.11.09.17.14-.18.29-.42.57-.48.91-.26,1.56,3.01,1.29,3.35,2.83.26,1.16-1.47,2.27-.86,3.28.29.48.94.56,1.46.78.89.39,1.48,1.38,1.4,2.34-.06.72-.46,1.43-.28,2.14.21.85,1.14,1.28,1.77,1.89.2.19.36.4.5.62.25-.27.53-.51.81-.7.95-.63,2.1-1.49,1.86-2.6Z"/>
      <path d="M638.9,131.61c-.29-.87-1.1-1.26-1.51-2.04-.57-1.11.37-2.02.7-3.04.61-1.9-1.28-3.05-2.75-3.73l-.13.25c1.04-.73,1.57-2.08.92-3.29-.31-.59-.87-.79-1.37-1.19-.91-.73-.42-1.32-.25-2.28.1-.59-.02-.99-.53-1.32-.48-.3-.91-.14-1.08-.81-.06-.23-.01-.6-.04-.81-.12-.77.2-.89.41-1.6.07-.24.14-.53.1-.79-.05-.36-.25-.64-.49-.9-.09-.1-1.13-.8-.81-.95.23-.11.49-.36.06-.37-.6-.02-1.64-.25-1.41-1.18.07-.3-1.29-.05-1.43.26l-.23.53,1.4-.37c-1.5-1.63-2.06-4.53-4.38-5.29-1.57-.51-3.14.02-4.42-1.3-1.03-1.06-1.4-2.62-.92-4.01.08-.24-.5-.13-.58-.12-1.91.28-3.88-.1-5.57-1.01-.31-.17-.67-.52-1-.63-.07-.02-.28-.02-.33-.05-.31-.19-.19-.15-.39-.64-.15-.36-.38-.72-.59-1.05-.58-.91-1.38-1.96-2.5-2.17-1.69-.31-3.47.26-5.05-.68-1.75-1.04-2.54-4.17-4.87-4.22-.39,0-1.27.12-1.38.58-.06.26.68,1.48.77,1.43l1.02-.27c-1.35.04-2.3-2.29-3.24-3.03-1.1-.86-2.46-.74-3.76-.48-.9.18-1.88.57-2.81.35-1.01-.23-1.57-1.09-2.15-1.87-.84-1.11-1.72-1.8-3.15-1.89-1.54-.09-3.05.48-4.58.34-2.11-.2-2.14-2.17-3.29-3.49-1.86-2.14-4.83.3-6.9.59-2.86.4-3.62-4.64-6.75-3.28-.59.26-.96,1.06-.65,1.7v.11c-.07.17,0,.18.22.03l.25-.08c-.25-.07-.48-.18-.69-.33-.35-.21-.66-.49-.99-.73-.56-.39-1.14-.65-1.83-.69-1.17-.08-2.33.35-3.35.89-.64.34-1.25.74-1.89,1.08-1.31.7-2.22.54-3.52-.02s-2.43-.68-3.73-.14c-.55.23-1.04.56-1.51.92-.94.72-1.53,1.5-2.78.97-1.43-.6-2.42-1.2-3.99-.68-.64.22-1.2.57-1.74.98-.85.65-1.43,1.47-2.59.93-.67-.31-1.09-.78-1.87-.76-.52.01-1.12.18-1.55.49-.66.48-.74,1.3-1.04,2-.56,1.34-1.94,1.68-3.08.8-.29-.22-1.22.1-1.4.37-.91,1.46-1.78,2.95-2.66,4.42l1.43-.26c.3-.65.69-1.14-.14-1.55-.68-.33-1.68-.09-2.33.2-1.02.46-1.4,1.29-1.79,2.3-.74,1.89-2.21,3.32-4.39,2.43-.22-.09-1.49.06-1.41.44.29,1.42.48,2.9.28,4.34-.1.72-.3,1.47-.7,2.08-.62.97-1.59,1.06-2.6,1.36-1.21.36-2.1,1.06-2.34,2.36-.13.7.19,1.43-.1,2.08-.23.53-.51.53-.13,1.14l.31-.28c-1.25.53-2.53,1.2-3.45,2.23-.36.41-.68.88-.81,1.41-.11.45.22,1.27.04,1.59-.15.27-.94.33-1.27.47s-.7.31-.93.62c-.36.48-.43,1.2-.67,1.75-.34.81-.9,1.23-1.46,1.87-.35.4-.53.88-.58,1.4-.03.33-.02.66.05.98.06.29.33.67.33.95,0,.79-1.28.62-1.45,1.31-.03.14.13.89.17.96l-.02.11c-.1.34.12.28.68-.18-.04-.02-.19.03-.23.03-.22.02-.44.09-.65.16-.88.3-1.55.84-1.91,1.71-.44,1.05-.65,2.58-.17,3.64.52,1.15,1.85.81,2.4,1.82l.86-.45c-1.64.34-4.49,1.05-4.72,3.1-.12,1.12.68,1.91,1.51,2.52.45.34,1.34.69,1.63,1.17.36.59-.18,1.84-.33,2.47l.66-.34c-1.1.26-2.4.37-3.32,1.11s-1,2.07-.37,3.07c.34.54.87.95,1.41,1.27.65.38,1.01.5,1.11,1.27.14,1.15.26,2.31.37,3.46.63,6.48,1.08,12.98,1.53,19.47l.04.05c1.81.72,3.61,1.43,5.42,2.15l3.47,1.38c.29.12.78.21,1.02.4.28.23.17.11.04.62-.02.05-.01.08.03.11,1.11.52,3.89,2.27,4.73.31.15-.36.1-.78.15-1.16.09-.7.37-1.28.79-1.84.79-1.07,1.9-1.85,2.54-3.03s.48-2.1-.15-3.26c-.48-.89-.45-1.46.57-1.97.4-.2.84-.29,1.23-.52,1.52-.87,1.76-3,.38-4.12l-.13.25c1.76-1,2.67-3.18,3.01-5.07.33-1.83.53-3.69.7-5.54.04-.45.45-2.05.14-2.39l-.13.25c1.33-.81,1.91-1.89,2.18-3.41.34-1.9.36-3.73,2.04-4.96,1.43-1.05,2.4-1.87,2.51-3.75s-.23-3.67,1.13-5.18c.92-1.02,2.19-1.71,2.99-2.84,1.03-1.45.23-2.64-.3-4.1-.62-1.7.51-2.86,1.33-4.23.79-1.32.68-2.16-.31-3.3-1.68-1.94.99-2.98,2.01-4.39.72-1.01,1.68-6.39,3.7-4.84.24.19,1.39-.09,1.41-.44.09-2.11,1.45-4.32,2.87-5.81l-1.13.35c6.44.02,12.87.05,19.31.07.82,0,1.04.35,1.87.61,1.36.43,2.87-.01,3.92-.94l-1.13.35c.48,0,1.39-.18,1.82,0,.15.06.39.47.56.6.25.2.51.39.79.55.48.28,1,.5,1.55.62,1.72.37,3.77-.14,4.88-1.55l-1.44.33c-.14,1.62,1.1,2.97,2.63,3.35,1.43.35,2.76-.18,3.9-1.02.65-.48,1.05-.31,1.55.35.21.27.34.6.47.92.38.98.58,2.05.76,3.08s.22,2.12.3,3.21c.06.8.3,1.1.92,1.5.79.51,1.57,1.02,2.36,1.53.37.24,1.26.59,1.5.96.29.44-.06.48-.06.98.02,1.71,4.08,1.41,3.62,2.94-.17.57-.98.76-1.15,1.37-.19.74.65,1.25,1.08,1.69.78.78.83,1.9,1.57,2.69s1.7.95,2.67,1.23c.47.14,1.11.27,1.52.54.66.42.29.74.18,1.34-.18.92.45,1.81,1.21,2.28.8.49,1.78.63,2.69.49,1.17-.18,2.11-1.17,3.27-1.24l-.41-.09c.87,1.47,2.66,1.93,4.25,1.48.96-.27,1.71-.98,2.7-1.12.68-.1,1.36-.1,1.98-.45.52-.3.71-.7.73-1.28.01-.4-.14-.89.03-1.28.13-.29-.22-.13.22-.03.26.06.5.2.74.3,1.23.53,2.74.75,3.77-.33l-.97.34c1.27-.12,2.49-.45,3.73-.75.83-.21,1.67-.41,2.52-.5.35-.03,1.07-.28,1.2.11.1.3-.16.45-.21.77-.26,1.65,2.61,1.46,3.23,2.6.54,1-.66,1.87-.84,2.79-.24,1.18.98,1.27,1.75,1.7.67.38,1.14,1.07,1.2,1.84.06.71-.35,1.37-.33,2.08.05,1.38,1.6,1.92,2.32,2.92.22.31,1.17-.05,1.38-.26,1.01-1.02,2.91-1.71,2.74-3.43-.03-.25-1.49.02-1.45.39.16,1.57-1.67,2.23-2.6,3.17l1.38-.26c-.51-.71-1.25-1.1-1.83-1.74-.93-1.02-.07-2.1-.16-3.26-.07-.89-.66-1.64-1.44-2.03-1.01-.51-1.91-.68-1.27-2.01.58-1.19,1.24-2.24-.23-3.04-1.26-.69-3.15-.81-1.93-2.64.02-.05.01-.08-.03-.11-.62-.51-2.1-.18-2.84-.07-1.3.19-2.57.55-3.85.85-.66.16-1.32.21-1.98.34-.27.05-.55.28-.79.32-.8.13-1.77-.73-2.68-.79-.59-.04-1.45.12-1.9.55-.6.58-.18,1.36-.34,2.07-.15.69-.59.53-1.21.62-.42.06-.84.15-1.24.31-.63.25-1.07.61-1.76.74-1.09.2-1.97-.34-2.53-1.28-.07-.13-.29-.09-.41-.09-1.13.07-1.89.4-2.88.89-1.62.82-3.93-.49-3.41-2.42.25-.93,0-1.18-.95-1.51-1.19-.41-2.68-.55-3.57-1.52-.52-.56-.58-1.32-.96-1.95-.26-.44-.63-.72-.99-1.08-.49-.49-.87-.9-.41-1.52.21-.28.54-.44.74-.73,1.42-2.05-5.12-1.87-3.1-3.95.05-.05.11-.13.03-.18-1.16-.74-2.31-1.48-3.46-2.23-.75-.49-1.49-.77-1.62-1.74-.08-.57.03-1.14-.06-1.71-.09-.62-.18-1.24-.29-1.86-.2-1.1-.4-2.27-.89-3.28-.81-1.69-2.46-1.78-3.93-.87-.47.3-.92.86-1.49.93s-1.25-.29-1.68-.61c-.89-.63-1.37-1.58-1.28-2.67.03-.31-1.31.17-1.44.33-1.16,1.48-3.08.65-4.27-.25-.69-.52-.85-.8-1.68-.81-.46,0-.96-.05-1.42,0-.33.04-.57.15-.87.27-.59.23,1.59.79-1.33.4-.51-.07-.89-.52-1.35-.65s-1.01-.05-1.48-.05h-3.7c-4.4-.03-8.81-.04-13.21-.06-1.11,0-2.38-.24-3.23.59-1.45,1.4-2.69,3.8-2.78,5.83l1.41-.44c-1.01-.78-2.45-.41-3.47.2-1.72,1.03-1.81,2.92-2.57,4.59-.65,1.44-2.9,2.28-3.08,3.89-.09.81.52,1.27.98,1.84.63.76.63,1.52.18,2.39-.67,1.29-1.99,2.47-1.76,4.05.13.89.73,1.63.95,2.49.24.96-.08,1.78-.71,2.5-.98,1.11-2.36,1.83-3.18,3.09-1.1,1.68-.38,3.71-.79,5.55-.3,1.36-1.33,1.93-2.36,2.72-.79.6-1.29,1.32-1.57,2.27-.63,2.11-.2,4.59-2.34,5.89-.09.06-.23.15-.13.25.13.14-.19,1.98-.22,2.3-.16,1.68-.34,3.36-.62,5.03-.3,1.81-1.01,4.18-2.75,5.17-.08.04-.25.16-.13.25.71.58,1,1.52.76,2.41-.3,1.13-1.33,1.29-2.24,1.74-.48.24-1,.55-1.12,1.12-.21,1.01.89,1.81.94,2.81.1,2.22-2.42,3.44-3.37,5.18-.22.4-.47,2.4-.44,2.38.15-.11-.35-.24-.54-.33-.29-.13-.57-.27-.86-.4-.55-.27-.6-.26-.45-.83.02-.05.01-.08-.03-.11-1.39-.55-2.77-1.1-4.16-1.65-1.8-.71-3.83-1.27-5.53-2.19-.09-.05-.38-.09-.45-.18-.11-.15-.05-1.01-.06-1.24-.04-.58-.08-1.16-.12-1.73-.15-2.11-.3-4.21-.46-6.32-.28-3.65-.57-7.29-.93-10.93-.08-.8-.17-1.61-.26-2.41-.03-.25,0-.73-.12-.94-.17-.31-.59-.39-.93-.58-.92-.51-1.75-1.26-1.9-2.35-.23-1.71,1.45-1.97,2.76-2.28.14-.03.61-.16.66-.34.18-.79.36-1.58.54-2.36.02-.05.01-.08-.03-.11-.99-.85-2.63-1.51-3.15-2.78-.78-1.91,1.32-2.91,2.84-3.23.06-.01.98-.24.86-.45-.29-.53-.42-.66-.94-.86-.64-.24-1.14-.27-1.46-.96-.53-1.14-.31-3.06.43-4.07.49-.67.5-.4,1.21-.67.3-.11.48-.22.62-.49.25-.48-.21-.95.02-1.25s.8-.34,1.06-.65c.34-.4.2-.6.03-1.07-.31-.9-.31-1.89.33-2.65.53-.63,1.09-1.04,1.44-1.81.37-.83.32-1.77,1.26-2.11s1.74-.34,1.65-1.46c-.18-2.24,1.79-3.43,3.64-4.22.04-.02.38-.17.31-.28-.41-.66.08-.72.24-1.31.22-.81-.21-1.57.15-2.43.59-1.42,2.61-1.22,3.78-2.04,2.3-1.63,1.91-5.19,1.42-7.57l-1.41.44c1.79.74,4,.37,5.54-.79.96-.72,1.33-1.65,1.77-2.73.19-.45.77-1.93,1.44-1.26.39.38.02.78-.16,1.18-.1.22,1.24.05,1.43-.26.88-1.48,1.75-2.97,2.66-4.42l-1.4.37c1.06.81,2.45.78,3.67.36,1.56-.54,1.96-1.5,2.55-2.93.2-.5.24-.59.72-.34.42.22.76.54,1.22.68.54.17,1.1.13,1.64,0,1.45-.36,2.2-1.59,3.48-2.17,1.06-.48,2.07.53,3.05.83.65.2,1.23.18,1.88.03.6-.14,1.15-.37,1.67-.7.98-.63,1.8-1.74,3.07-1.61.93.1,1.77.82,2.72.96.67.1,1.36.02,2.02-.15,1.56-.39,2.76-1.42,4.2-2.05,2.18-.96,2.99,1.53,4.98,1.52.84,0,1.58-.33,1.62-1.21,0-.19.02-.47-.02-.66,0-.03.07-.35.08-.34l-.27.11c-.43.11-.36.2.2.27.68.5,1.2.99,1.75,1.64.97,1.13,1.96,1.83,3.5,1.68,1.46-.15,2.7-.89,4.08-1.28,2.46-.69,2.51,2.13,3.83,3.38,1.09,1.04,2.76.85,4.13.67.82-.11,1.67-.29,2.51-.22,1.21.1,1.94.77,2.65,1.7,1.12,1.47,2.11,2.29,4.05,2.05,1.07-.13,2.15-.6,3.24-.54,1.29.08,1.97.98,2.72,1.92s1.88,2.22,3.26,1.6c1.19-.54-.63-1.59-.19-1.91l-.79.32c-.54.08.32.18.51.29.25.14.47.32.68.51.5.47.89,1.04,1.3,1.58.69.91,1.42,1.75,2.53,2.14.67.23,1.38.29,2.09.32.83.03,1.93-.15,2.72.17,1.37.56,2.24,2.4,2.76,3.67.03.08.18.09.25.09.58.02,1.07.52,1.59.78.68.33,1.4.58,2.13.75,1.39.32,2.78.31,4.18.11l-.58-.12c-.88,2.53.91,5.15,3.54,5.38.94.08,1.89,0,2.7.57.64.45,1.1,1.11,1.51,1.77.65,1.05,1.17,2.18,2.02,3.1.22.23,1.28-.11,1.4-.37l.23-.53-1.43.26c-.28,1.17.94,1.45,1.9,1.49l.06-.37c-.36.17-.55.28-.85.53-.05.05-.11.13-.03.18.57.39,1.33.83,1.52,1.54.2.77-.41,1.56-.74,2.21-.02.05-.01.08.03.11.36.37.28.96.28,1.42l.04.05c.93.47,1.84.59,1.51,1.86-.17.64-.47,1.22-.04,1.82.53.74,1.47.79,1.83,1.74.34.9.12,2.04-.7,2.61-.04.03-.28.19-.13.25.85.4,1.81.87,2.37,1.65.68.94.36,1.86-.12,2.81-.37.72-.69,1.44-.28,2.21s1.22,1.18,1.51,2.04c.11.32,1.54-.11,1.45-.39Z"/>
    </g>
    <g>
      <path d="M636.25,139.24c.31-.3.16-.61-.14-.93-.03.36-.09.72-.16,1.09.11-.03.22-.07.3-.15Z"/>
      <path d="M636.84,139.4c.22-.21.35-.49.29-.8-.02-.12-.09-.23-.15-.33-.06-.1-.13-.18-.2-.26-.08-.09-.2-.13-.32-.15-.15-.02-.32-.02-.46.03-.12.04-.24.09-.35.16-.07.04-.13.1-.17.16-.05.05-.08.11-.09.18-.03.36-.09.73-.16,1.09-.03.17.09.28.23.34.19.08.42.07.61.01.29-.09.55-.21.78-.42.09-.08.17-.23.13-.36s-.17-.21-.29-.24c-.36-.09-.76.03-1.02.27,0,0-.02.02-.03.02l.13-.11s-.06.04-.09.06l.16-.09s-.08.04-.11.05l.19-.07s-.05.02-.07.02l.84.35c.07-.36.13-.72.16-1.09l-1.4.37c.09.1.17.2.23.31l-.06-.11c.04.08.07.16.08.26v-.12c0,.06-.01.11-.03.16l.05-.12s-.05.09-.08.13l.09-.12s-.04.05-.07.07c-.09.09-.17.23-.13.36s.17.21.29.24c.18.04.37.04.55-.01s.35-.13.48-.26Z"/>
    </g>
    <g>
      <path d="M635.95,139.39c-.19.06-.4.07-.59.14-.61.22-.84.99-.73,1.62.07.45.27.87.45,1.29.14-.49.3-.97.45-1.44.17-.52.32-1.07.43-1.62Z"/>
      <path d="M635.87,139.08s-.22.06-.02.01c-.1.03-.21.04-.31.06-.15.03-.29.07-.43.13-.22.08-.43.19-.61.34-.27.23-.47.53-.56.87-.2.76.12,1.47.41,2.16.1.24.52.18.71.14.15-.03.32-.08.45-.16.11-.06.24-.15.28-.28.3-1.02.66-2.02.88-3.06.06-.3-.44-.28-.61-.25-.19.03-.38.08-.55.18-.1.06-.26.15-.28.28-.21,1.04-.58,2.04-.88,3.06l1.45-.3c-.24-.57-.55-1.21-.45-1.81.02-.13.06-.25.11-.37.01-.03.03-.06.04-.09.03-.07,0,.01.02-.03.03-.05.07-.09.1-.14.07-.09-.05.03,0,0,0,0,.08-.05.07-.06,0,.02-.14.07-.02.02.08-.03-.17.07-.04.02-.05.02-.12.03-.03.02.18-.02-.11.02,0,0,.15-.03.29-.06.44-.1.17-.05.35-.12.49-.23.07-.06.18-.17.15-.28-.07-.27-.64-.17-.81-.12Z"/>
    </g>
    <g>
      <path d="M635.28,142.97c-.06-.18-.13-.35-.2-.53-.53,1.8-.85,3.69.07,5.25,1.99-.79.8-2.7.13-4.73Z"/>
      <path d="M636,142.78c-.06-.18-.13-.35-.2-.53-.23-.54-1.32-.18-1.45.27-.52,1.8-.85,3.76.13,5.47.16.28.76.13.97.04.51-.21,1.02-.53,1.3-1.02.22-.39.26-.82.21-1.26-.11-1.03-.62-2-.95-2.98-.1-.31-.58-.27-.83-.21-.21.06-.72.29-.62.6.3.89.72,1.75.9,2.68.07.33.1.68-.03,1.01-.03.09-.13.23-.19.29-.01.01-.13.11-.07.06.05-.04-.1.06-.09.06-.04.02-.08.05-.02.01-.07.03-.14.06-.21.09l.97.04c-.89-1.55-.48-3.43-.01-5.04l-1.45.27c.07.17.14.35.2.53.11.31.58.27.83.21.21-.06.72-.29.62-.6Z"/>
    </g>
  </g>
  <path d="M542.3,155.49l-.18,5.67c-.47,4.28-.38,13.13.18,15.74.8,3.66,21.19,12.49,26.16,11.62,4.97-.87,11.66-11.93,13.77-14.29l8.16,3.54c-.58,3.84-2.16,16.1-1.14,18.21,1.01,2.11,10.67,5.37,11.76,5.73.91.29,2.17.71,3.58,1.1,3.71,1.07,8.31,2.08,10.15,1.24,2.74-1.24,7.73-8,12.26-14.46l.72-1.01c.17-.25.32-.4.35-.48h0l.82-1.17c-9.87-10.15-25.96-15.02-38.11-11.53l.03.15-7.94-3.49c-6.91-9.49-21.55-18.66-34.52-18.46h0l-37.4-7.15-1.26,3.08,32.63,5.94ZM590.64,195.19c-.64-1.32.23-9.99,1.11-16.67,10.5-2.86,24.99,1.55,34.04,10.01l-.06.16c-2.43,3.46-8.9,12.68-11.59,13.9-3.18,1.44-22.33-5.26-23.51-7.36v-.03ZM545.07,176.96c-.7-6.8-.78-13.65-.24-20.47,11.79-.86,28.42,8.2,35.25,17.3-3.28,4.45-8.31,12.48-11.87,13.09-5.13.9-22.64-7.61-23.13-9.92h0Z"/>
  <path d="M608.68,183.59c1.5-.15,2.9,1.02,3.42,2.07.12.25.28.91.2,1.82-.11,1.17-1,2.19-1.95,2.64-1.26.61-2.79.19-3.7-.78-1.24-1.32-1-3.34-.09-4.52.17-.22.9-1.11,2.12-1.23"/>
  <path d="M563.8,166.62c-.96-1.13-2.98-1.73-4.06-1.33-.25.09-.95.38-1.51,1.1-.72.93-.78,2.27-.43,3.25.47,1.3,1.83,2.04,3.13,1.95,1.77-.12,2.98-1.75,3.14-3.23.03-.27.46-.65-.31-1.56"/>
  <path class="cls-23" d="M546.92,206.85c-1.34.49-2.8,1.1-3.41,2.39-.22.47-.3.99-.39,1.5-.13.79-.25,1.58-.38,2.37-.03.16-.05.32,0,.47.06.16.21.27.36.37.45.32.93.65,1.47.75.55.1,1.19-.11,1.42-.62.09-.21.12-.46.28-.62.31-.31.83-.06,1.27,0,1.11.13,1.82-1.09,2.62-1.86,1.09-1.04,2.7-1.38,4.21-1.32.76.03,1.53.15,2.28.02.75-.13,1.52-.56,1.76-1.28"/>
  <path class="cls-23" d="M589.9,223.75c.65,1.27,1.32,2.71.89,4.07-.15.49-.44.93-.73,1.36-.44.67-.88,1.33-1.33,2-.09.13-.18.27-.33.34-.16.08-.34.06-.51.03-.55-.07-1.12-.15-1.59-.45-.47-.3-.8-.89-.62-1.41.07-.22.22-.42.21-.64-.02-.44-.57-.61-.93-.87-.9-.66-.6-2.03-.67-3.14-.1-1.51-1.05-2.84-2.2-3.82-.58-.49-1.23-.93-1.7-1.53-.47-.6-.73-1.44-.43-2.14"/>
  <path class="cls-14" d="M502.02,186.39c-14.65,6.4-10.07-12.17-10.07-12.17-3.96-11.86-.23-21.39,2.58-27.8,2.82-6.41,9.95-3.52,9.95-3.52,5.83,3.04,7.28,7.37,4.35,29.91"/>
  <path class="cls-31" d="M505.52,166.84c-.23-3.61-.62-7.25-1.57-10.76-.47-1.74-1.08-3.52-2.08-5.04-.37-.56-.85-1.19-1.45-1.52-.83-.45-1.66.36-2.23.9-2.35,2.18-3.49,5.37-3.9,8.48-.09.69,1.38.48,1.46-.13.32-2.41,1.05-4.83,2.55-6.78.38-.49.8-.96,1.28-1.37.14-.12.29-.22.43-.33.07-.06.37-.22.04-.04l-.74.07c-.24-.09.16.12.28.21.03.02.25.23.38.38.2.23.39.48.56.74,1.4,2.11,2.04,4.76,2.52,7.21.54,2.75.83,5.55,1.01,8.35.04.61,1.49.27,1.45-.39h0Z"/>
  <path class="cls-31" d="M502.67,167.06c-4.15-1.83-4.33,4.86-5.32,7.08-.02.05-.38.65-.4.6-.02-.06.46-.02.46-.02,0-.01-.07-.06-.07-.08.01-.13-.14-.42-.17-.57-.24-1.33,0-2.8.21-4.12.32-2.05.72-3.93,1.65-5.77s2.44-4.51,4.74-4.6c.8-.03,1.14-1.03.15-.99-2.44.09-4.22,2.05-5.43,3.98-.95,1.51-1.66,3.1-2.06,4.83-.42,1.83-.77,3.72-.8,5.6-.01.74-.1,2.06.64,2.53s1.75-.13,2.18-.78c.46-.69.64-1.57.84-2.36.28-1.12.48-2.28.92-3.35.36-.86.65-1.47,1.59-1.05.56.25,1.68-.56.85-.93h0Z"/>
  <rect class="cls-28" x="474.24" y="887.5" width="58.27" height="32.23" transform="translate(20.8 -11.28) rotate(1.31)"/>
  <rect class="cls-28" x="539.01" y="878.5" width="58.27" height="32.23" transform="translate(20.61 -12.76) rotate(1.31)"/>
  <g>
    <path class="cls-18" d="M683.58,947.14s2.15-9.91-5.89-13.81c-8.04-3.9-26.26-10.59-39.65-18.39-18.59-10.82-29.25-26.5-37.6-27.46-8.5-.98-7.3,13.76-25.89,13.61-18.44-.15-32-10.88-32.85-11.23-4.26,2.48-12.75,32.48-8.01,40.21,4.75,7.74,49.6,12.67,49.6,12.67l35.77,8.84,35.97,2.67,28.55-7.11Z"/>
    <path class="cls-1" d="M567.74,940.41c.43-5.94.15-14.49-5.9-17.67-3.97-2.08-8.35-3.4-12.41-5.32-3.16-1.5-6.32-3.32-8.4-6.22-3.01-4.19-2.94-9.5-2.05-14.38.11-.61-1.3-.4-1.4.14-.78,4.28-.97,8.82.99,12.83,1.47,3.01,3.99,5.18,6.85,6.84,3.6,2.09,7.56,3.53,11.39,5.13,1.96.82,4.16,1.49,5.74,2.99,1.25,1.18,2.1,2.71,2.68,4.32,1.31,3.64,1.39,7.66,1.12,11.48-.05.64,1.36.4,1.4-.14h0Z"/>
    <path class="cls-12" d="M539.24,892.35c5.74,4.69,12.09,8.45,19.37,10.16,4.5,1.06,9.09,1.28,13.7,1.21,3.65-.06,7.31-.25,10.91-.87,6.33-1.08,12.75-4.64,19.27-3.57,4.51.74,8.6,3.33,12.3,5.88,4.25,2.92,8.29,6.15,12.47,9.18,2.33,1.69,4.69,3.34,7.12,4.88.99.62,1.42.96,2.53.82,2.98-.37,3.67-2.89,3.22-5.54-.06-.38-1.46-.07-1.39.37.21,1.27.28,5.09-2.03,4.52-.67-.16-1.64-1.06-2.23-1.44-1.11-.73-2.21-1.47-3.3-2.23-1.93-1.35-3.82-2.74-5.7-4.15-3.87-2.9-7.69-5.9-11.78-8.49-3.21-2.03-6.7-3.91-10.5-4.48-6.14-.93-11.99,1.95-17.85,3.25-3.07.68-6.22.97-9.36,1.11-4.58.21-9.2.21-13.73-.55-8.21-1.38-15.32-5.35-21.71-10.56-.34-.27-1.6.26-1.3.51h0Z"/>
    <path class="cls-12" d="M595,945.1c-2.48-.61-4.97-1.23-7.45-1.84l.16.6c3.87-3.82,8.65-6.47,13.95-7.7,6.09-1.42,12.52-.83,18.72-.81,5.93.03,11.88.03,17.8-.38,4.24-.3,8.81-.67,12.76-2.38,1.33-.57,2.69-1.38,3.49-2.62,1.48-2.3.46-5.32-.6-7.56-.26-.56-1.63-.14-1.39.37.99,2.09,2.14,5.14.56,7.24-.86,1.14-2.31,1.77-3.62,2.22-4.38,1.51-9.24,1.75-13.83,1.96-5.95.28-11.91.24-17.86.2-5.7-.04-11.43-.36-17,1.08-5.35,1.39-10.19,4.15-14.12,8.04-.21.21-.14.53.16.6,2.48.61,4.97,1.23,7.45,1.84.54.13,1.64-.66.82-.87h0Z"/>
    <g>
      <path class="cls-32" d="M589.91,944.21l.16.21-.3-.07s.1-.09.14-.14Z"/>
      <path class="cls-7" d="M589.27,944.49c.05.06.09.12.14.18l.02.03,1.06-.68c-.09-.02-.18-.04-.27-.07h-.04c.05.17.1.35.14.53.05-.04.1-.09.14-.14.05-.04.09-.1.11-.16.03-.05.04-.1.02-.16-.02-.06-.05-.1-.1-.13-.05-.05-.11-.07-.18-.08l-.16-.02c-.12,0-.25,0-.36.04l-.18.06c-.1.04-.2.1-.28.18-.05.04-.1.09-.14.14-.05.04-.09.1-.11.16-.03.05-.04.1-.02.16l.05.09c.06.06.14.1.22.12.09.02.18.04.27.07h.04c.05.02.1.02.16.03.09,0,.18,0,.27-.02.06,0,.13-.02.18-.05.09-.03.17-.06.25-.11l.12-.1.09-.11c.04-.05.05-.1.04-.16,0-.06-.01-.11-.05-.15-.05-.06-.09-.12-.14-.18l-.02-.03s-.1-.08-.16-.1c-.07-.03-.14-.05-.22-.05-.09,0-.18,0-.27.02-.1.01-.19.04-.28.08l-.16.08c-.09.05-.16.12-.21.2l-.05.11c-.02.08,0,.14.05.2Z"/>
    </g>
    <g>
      <path class="cls-32" d="M577.47,939.28l1.48.05c-.04,1.27.04,2.29.1,2.9-.47-.06-.98-.13-1.51-.2-.06-.67-.11-1.61-.07-2.74Z"/>
      <path class="cls-7" d="M577.2,939.71c.49.02.99.03,1.48.05l-.43-.34c-.03,1,0,2.01.1,3l.96-.61c-.51-.06-1.01-.13-1.51-.2l.43.24c-.08-.89-.09-1.74-.07-2.64,0-.31-.36-.37-.61-.34-.18.02-.37.08-.53.18-.1.07-.25.18-.26.31-.03.95,0,1.9.07,2.85.02.19.3.22.43.24.5.07,1.01.14,1.51.2.33.04,1-.19.96-.61-.1-.94-.13-1.85-.1-2.79,0-.24-.22-.34-.43-.34-.49-.02-.99-.03-1.48-.05-.18,0-.38.03-.55.11-.12.05-.3.16-.37.29-.15.29.13.45.39.45Z"/>
    </g>
    <g>
      <path class="cls-32" d="M570.88,937.3c0,1.22-.05,2.48-.15,3.75l-.22-.02c-.41-.06-.83-.13-1.26-.2.09-1.19.14-2.38.14-3.52h1.49Z"/>
      <path class="cls-7" d="M570.18,937.49c0,1.22-.05,2.43-.15,3.65l.97-.48c-.06,0-.12,0-.18-.01-.12-.01.18.03-.03,0-.07-.01-.14-.02-.21-.03-.3-.05-.61-.1-.91-.14l.27.29c.09-1.2.14-2.41.14-3.62l-.97.58c.5,0,.99,0,1.49-.01.31,0,.74-.1.92-.38s-.15-.41-.38-.41c-.5,0-.99,0-1.49.01-.34,0-.97.15-.97.58,0,1.14-.05,2.28-.14,3.42-.01.17.11.26.27.29.54.08,1.09.19,1.63.23.21.02.44-.05.62-.15.12-.06.33-.18.34-.33.1-1.28.15-2.56.15-3.85,0-.11-.2-.18-.27-.19-.16-.04-.36-.02-.52.03-.26.08-.6.22-.6.53Z"/>
    </g>
    <g>
      <path class="cls-5" d="M529.46,930.23s.53.08,1.4.22l.35-1.39c5.51.88,24.5,3.95,36.07,6.5,3.53.78,7.96,2.04,13.1,3.49,11.92,3.38,28.24,8,45.63,10.01,3.12.36,6.2.63,9.18.8,24.89,1.41,45.61-2.5,50.06-3.42l.13,1.43c.68-.14,1.05-.22,1.05-.22,0,0,.32,1.95.6,3.73,0,0,0,0,0,0,.03.16.05.31.07.47.1.63.19,1.22.26,1.65-12.51,6.93-65.48,5.12-77.29,1.12-.75-.25-1.55-.52-2.39-.78-.35-.11-.73-.22-1.09-.34-.56-.17-1.11-.34-1.69-.52-12.69-3.81-31.58-8.35-31.58-8.35,0,0,0,1.99-.11,4.31h0s0,.05,0,.07c-.05.99-.12,2.02-.22,3-22.37-.91-45.41-5.96-45.41-5.96l1.88-15.81Z"/>
      <path class="cls-7" d="M529.2,930.69c.47.07.94.15,1.4.22.35.05.86-.16.95-.53l.35-1.39-.95.53c8.5,1.35,16.99,2.78,25.45,4.37,4.78.9,9.58,1.81,14.29,3.03,5.47,1.42,10.88,3.04,16.33,4.54,11.94,3.3,24.03,6.17,36.33,7.76,12.64,1.64,25.45,1.76,38.15.82,7.99-.59,16.01-1.56,23.86-3.18l-.81-.24.13,1.43c.03.33.62.28.81.24.35-.07.7-.15,1.05-.22l-.81-.24c.2,1.24.4,2.49.6,3.73.08.49.91.23,1.15.09h0c-.38-.03-.76-.06-1.15-.09.11.71.23,1.41.34,2.12l.4-.55c-2.23,1.22-4.77,1.84-7.24,2.35-3.47.72-7,1.13-10.52,1.45-8.61.77-17.27.88-25.91.68-7.87-.18-15.76-.6-23.57-1.6-2.63-.34-5.28-.72-7.85-1.39-4.45-1.15-8.8-2.73-13.23-3.97-8.3-2.31-16.64-4.45-25.02-6.46-.31-.07-1.11.04-1.11.5,0,1.44-.04,2.87-.11,4.31-.01.26.22.38.45.4h0c-.15-.13-.3-.26-.45-.4-.08,1.02-.12,2.05-.22,3.07l.95-.53c-14.16-.59-28.31-2.55-42.2-5.31-1.02-.2-2.03-.41-3.05-.63l.29.37c.63-5.27,1.25-10.54,1.88-15.81.08-.65-1.33-.44-1.4.13-.63,5.27-1.25,10.54-1.88,15.81-.02.18.12.33.29.37,10.16,2.22,20.51,3.77,30.84,4.88,4.9.52,9.81.91,14.73,1.12.3.01.91-.13.95-.53.1-1.02.15-2.05.22-3.07.02-.26-.23-.38-.45-.4h0c.15.13.3.26.45.4.07-1.43.11-2.87.11-4.31l-1.11.5c7.28,1.75,14.53,3.6,21.75,5.56,5.16,1.4,10.25,2.94,15.35,4.54,2.4.75,4.92,1.15,7.4,1.51,7.69,1.12,15.48,1.57,23.24,1.8,8.73.27,17.49.21,26.2-.43,4.14-.31,8.29-.75,12.37-1.54,2.87-.55,5.86-1.24,8.45-2.65.21-.11.44-.28.4-.55-.11-.71-.22-1.41-.34-2.12-.08-.49-.91-.23-1.15-.09h0c.38.03.76.06,1.15.09-.2-1.24-.4-2.49-.6-3.73-.05-.33-.6-.29-.81-.24-.35.08-.7.15-1.05.22l.81.24-.13-1.43c-.03-.33-.62-.28-.81-.24-6.61,1.37-13.34,2.23-20.06,2.83-12.4,1.12-24.95,1.25-37.34-.08-12.68-1.36-25.14-4.16-37.43-7.49-10.11-2.74-20.09-5.75-30.39-7.74-9.45-1.83-18.95-3.42-28.46-4.94-.35-.06-.86.16-.95.53l-.35,1.39.95-.53c-.47-.07-.94-.15-1.4-.22-.63-.1-1.44.78-.5.93Z"/>
    </g>
    <g>
      <path class="cls-5" d="M605.56,896.53c-.24.38-.65.57-1.05.52-.17-.02-.35-.08-.5-.2-.51-.37-.64-1.11-.3-1.66l3.89-6.19c.6.42,1.21.87,1.83,1.35l-3.87,6.17Z"/>
      <path class="cls-7" d="M604.91,896.5s-.07.1-.11.13c-.05.03-.06,0,.01,0-.09,0-.23-.11-.28-.16-.21-.19-.32-.49-.3-.77.01-.22.1-.39.21-.57.25-.41.51-.82.77-1.23l2.42-3.85c.21-.33.42-.67.63-1l-1.2.32c.62.44,1.23.89,1.83,1.35l-.1-.39c-1.13,1.8-2.26,3.6-3.39,5.4-.16.26-.32.51-.48.77-.18.28.15.45.39.46.31.02.74-.11.91-.39,1.13-1.8,2.26-3.6,3.39-5.4.16-.26.32-.51.48-.77.1-.16.03-.29-.1-.39-.6-.46-1.21-.92-1.83-1.35-.33-.23-1,0-1.2.32-.68,1.08-1.35,2.15-2.03,3.23-.45.72-.9,1.43-1.35,2.15-.24.38-.57.79-.69,1.22-.22.76.21,1.57.96,1.82.87.29,1.86-.1,2.38-.83.19-.28-.17-.45-.39-.46-.33-.02-.72.12-.91.39Z"/>
    </g>
    <g>
      <path class="cls-5" d="M610.91,900.4c-.24.38-.65.57-1.05.53-.17-.02-.34-.08-.5-.2-.51-.37-.64-1.11-.3-1.66l3.73-5.93c.57.49,1.14.99,1.73,1.51l-3.61,5.75Z"/>
      <path class="cls-7" d="M610.32,900.17c-.11.16-.17.27-.38.17s-.33-.34-.36-.56c-.01-.11-.01-.22.01-.33,0-.04.11-.27.05-.16.01-.03.04-.05.05-.08.24-.4.49-.78.73-1.17.78-1.24,1.56-2.47,2.33-3.71.2-.32.4-.64.61-.96l-1.12.19c.58.5,1.16,1.01,1.73,1.51l-.06-.65c-1.05,1.68-2.11,3.35-3.16,5.03l-.45.72c-.48.76.81,1.04,1.18.46,1.05-1.68,2.11-3.35,3.16-5.03l.45-.72c.15-.24.16-.46-.06-.65-.57-.51-1.15-1.01-1.73-1.51-.28-.25-.92-.12-1.12.19-.66,1.04-1.31,2.09-1.97,3.13l-1.29,2.05c-.25.39-.59.82-.71,1.27-.21.77.13,1.59.85,1.94.84.41,1.89.08,2.41-.67s-.78-1.02-1.18-.46Z"/>
    </g>
    <g>
      <path class="cls-5" d="M619.51,899.09l-3.25,5.18c-.24.38-.65.57-1.05.52-.17-.02-.35-.08-.5-.2-.51-.37-.64-1.11-.3-1.66l3.38-5.37c.56.5,1.13,1.01,1.72,1.53Z"/>
      <path class="cls-7" d="M618.92,898.86c-1.03,1.65-2.07,3.29-3.1,4.94-.16.26-.32.64-.66.32-.13-.12-.2-.3-.23-.47-.01-.1-.01-.2,0-.29.01-.06.11-.29.06-.19.03-.06.08-.12.11-.18.57-.91,1.14-1.81,1.71-2.72.52-.82,1.04-1.65,1.55-2.47l-1.12.19c.57.51,1.15,1.02,1.72,1.53.5.44,1.68-.29,1.06-.84-.58-.51-1.15-1.02-1.72-1.53-.28-.25-.93-.12-1.12.19-1.1,1.75-2.2,3.5-3.3,5.25-.39.62-.54,1.31-.15,1.97.65,1.11,2.36.97,3.06-.01.54-.76,1.01-1.6,1.5-2.39.59-.94,1.19-1.89,1.78-2.83.48-.76-.81-1.04-1.18-.46Z"/>
    </g>
    <g>
      <path class="cls-5" d="M621.61,908.13c-.24.38-.65.57-1.05.52-.17-.02-.35-.08-.5-.2-.51-.37-.64-1.11-.3-1.66l3.05-4.84c.57.49,1.16.98,1.75,1.48l-2.96,4.7Z"/>
      <path class="cls-7" d="M620.95,908.08c-.09.12-.1.12-.16.11-.17-.02-.35-.26-.41-.39-.16-.31-.12-.67.05-.97.16-.28.34-.55.52-.82l1.99-3.16c.18-.28.36-.57.54-.85l-1.3.24c.61.52,1.23,1.04,1.85,1.56l-.11-.42c-.99,1.57-1.97,3.14-2.96,4.7-.18.29.16.48.4.5.33.03.73-.11.91-.4.99-1.57,1.97-3.14,2.96-4.7.11-.17.02-.31-.11-.42-.56-.46-1.11-.93-1.66-1.4-.36-.31-1.05-.16-1.3.24-.57.91-1.14,1.82-1.72,2.73l-1.05,1.67c-.29.45-.56.87-.51,1.45.07.71.63,1.23,1.32,1.34.81.12,1.61-.24,2.06-.91.19-.28-.17-.48-.4-.5-.34-.03-.72.12-.91.4Z"/>
    </g>
    <g>
      <path class="cls-5" d="M626.96,912c-.24.38-.65.57-1.05.53-.17-.02-.34-.08-.5-.2-.51-.37-.64-1.11-.3-1.66l2.84-4.52c.6.46,1.19.93,1.81,1.39l-2.8,4.46Z"/>
      <path class="cls-7" d="M626.38,911.81c-.08.12-.17.24-.24.23s-.25-.15-.33-.25c-.24-.31-.22-.73-.03-1.05.14-.23.29-.46.43-.69.63-1,1.26-2,1.89-3,.17-.28.35-.55.52-.83l-1.2.32c.6.47,1.2.93,1.81,1.39l-.13-.47c-.93,1.49-1.87,2.98-2.8,4.46-.19.3.16.54.42.57.35.04.72-.12.91-.42.93-1.49,1.87-2.98,2.8-4.46.11-.17.02-.36-.13-.47-.61-.46-1.21-.92-1.81-1.39-.37-.29-.98-.02-1.2.32-.55.87-1.09,1.74-1.64,2.61l-.97,1.55c-.3.47-.54.93-.43,1.52.28,1.58,2.5,1.61,3.29.45.49-.73-.81-.91-1.16-.39Z"/>
    </g>
    <g>
      <path class="cls-32" d="M524.57,912.52h-.02s0,0,0-.01c0,0,.02,0,.03.01Z"/>
      <path class="cls-7" d="M524.29,912.23h-.02c.32.05.65.08.97.12,0,0,0-.02,0-.02l-1.25.53s.02,0,.03.01c.07.03.13.05.21.05.08.01.17.01.25,0,.1,0,.19-.03.28-.07.09-.03.17-.06.25-.11l.13-.09c.07-.06.11-.12.14-.21v-.1c-.03-.07-.07-.12-.14-.16,0,0-.02,0-.03-.01l-.13-.04c-.08-.02-.16-.02-.24-.01-.06,0-.12,0-.18.02-.1.01-.19.04-.28.08l-.16.08-.13.09c-.05.04-.09.09-.11.15-.03.05-.04.1-.02.15,0,0,0,.02,0,.02.02.07.07.12.14.16.07.03.13.05.21.05.08.01.17.01.25,0,.13-.02.25-.05.37-.1h.02c.08-.04.15-.08.22-.14.06-.04.11-.09.15-.15.04-.05.05-.1.05-.16,0-.05,0-.1-.05-.14l-.09-.07c-.09-.04-.18-.06-.28-.06h-.18c-.13.02-.25.06-.37.11Z"/>
    </g>
  </g>
  <g>
    <g>
      <path class="cls-18" d="M615.97,955.24s2.15-9.91-5.89-13.81c-8.04-3.9-26.26-10.59-39.65-18.39-18.59-10.82-29.25-26.5-37.6-27.46-8.5-.98-7.3,13.76-25.89,13.61-18.44-.15-32-10.88-32.85-11.23-4.26,2.48-12.75,32.48-8.01,40.21,4.75,7.74,49.6,12.67,49.6,12.67l35.77,8.84,35.97,2.67,28.55-7.11Z"/>
      <path class="cls-12" d="M617.41,955.03c.43-2,.37-4.21-.03-6.21-.8-4.02-3.34-6.74-6.98-8.45-8.98-4.22-18.28-7.71-27.25-11.97-5.3-2.52-10.53-5.21-15.44-8.43-4.69-3.08-9.08-6.58-13.31-10.25-3.48-3.02-6.84-6.18-10.38-9.13-2.43-2.02-5.07-4.15-8.09-5.21-2.54-.89-5.34-.77-7.7.61-2.1,1.23-3.56,3.29-5.08,5.13-1.88,2.28-3.98,4.38-6.68,5.66-4.19,1.99-9.13,1.88-13.64,1.38-8.78-.97-17.25-4.28-24.68-9-1.73-1.1-3.33-2.85-5.41-1.24-1.66,1.28-2.59,3.6-3.39,5.46-2.95,6.87-4.81,14.44-5.71,21.85-.4,3.27-.67,6.69-.12,9.95.34,2.04,1.07,3.82,2.75,5.08,1.97,1.46,4.35,2.39,6.64,3.2,3.14,1.1,6.37,1.95,9.61,2.71,6.85,1.62,13.79,2.81,20.75,3.84,3.8.56,7.66.86,11.44,1.51,3.35.58,6.69,1.64,9.99,2.46,6.41,1.58,12.82,3.17,19.23,4.75,2.51.62,5.06,1.52,7.65,1.71,11.1.82,22.2,1.65,33.3,2.47,1.04.08,2.01.2,3.03-.05,1.95-.47,3.89-.97,5.83-1.45,6.2-1.54,12.4-3.09,18.6-4.63,1.27-.32,2.53-.63,3.8-.95.37-.09,1.43-.46,1.28-1.01s-1.29-.32-1.62-.23c-6.03,1.5-12.07,3.01-18.1,4.51-3.13.78-6.26,1.56-9.38,2.34-.29.07-.65.11-.93.23-.53.23,1.31.08.83-.07-.62-.19-1.49-.11-2.13-.16-7.59-.56-15.19-1.13-22.78-1.69l-9.36-.69c-1.02-.08-1.86-.19-2.85-.43-6.98-1.72-13.96-3.45-20.94-5.17-3.48-.86-6.96-1.72-10.43-2.58-1.11-.28-2.23-.63-3.37-.8-5.81-.87-11.64-1.5-17.44-2.46-8.43-1.41-17.12-2.89-25.12-5.99-2.19-.85-5.18-1.94-6.41-4.12-1.75-3.08-1.37-7.46-1.06-10.82.44-4.87,1.45-9.7,2.74-14.4,1.09-3.98,2.35-8.04,4.3-11.7.29-.54.6-1.08.97-1.57.14-.19.29-.38.45-.55-.02.02.46-.35.18-.18l-2.04.31c.14.06-.08-.1.12.07.17.15.4.26.59.39.6.4,1.21.8,1.82,1.19,1.98,1.26,4.03,2.42,6.13,3.47,6.26,3.12,13.08,5.26,20.06,5.94,6.35.63,13.1.24,18.59-3.34,3.42-2.23,5.49-5.54,8.28-8.4.47-.48,1.04-.97,1.55-1.28.55-.33.71-.36,1.26-.38,1.79-.05,3.59.87,5.08,1.77,5.04,3.05,9.28,7.46,13.67,11.33,5.95,5.25,12.16,10.19,19.02,14.2,7,4.1,14.41,7.46,21.84,10.68,5.96,2.58,12.08,4.89,17.9,7.76,4.69,2.31,6.44,7.45,5.87,12.41-.04.34-.08.68-.15,1.01-.2.93,2.69.47,2.88-.42Z"/>
    </g>
    <path class="cls-12" d="M500.14,948.53c.43-5.97.13-14.51-5.92-17.73-3.9-2.08-8.23-3.38-12.23-5.24-3.21-1.5-6.46-3.34-8.57-6.28-3.01-4.19-2.93-9.47-2.04-14.33.13-.71-1.29-.54-1.41.1-.78,4.27-.96,8.77.96,12.77,1.46,3.05,4.01,5.28,6.9,6.95,3.52,2.04,7.37,3.47,11.12,5.03,1.99.83,4.26,1.5,5.89,2.97,1.31,1.17,2.2,2.75,2.78,4.39,1.31,3.64,1.39,7.64,1.11,11.46-.05.73,1.36.55,1.41-.1h0Z"/>
    <path class="cls-12" d="M471.62,900.42c5.74,4.69,12.09,8.45,19.36,10.14,4.6,1.07,9.28,1.27,13.98,1.18,3.55-.07,7.11-.28,10.62-.87,6.4-1.09,12.91-4.73,19.49-3.51,4.43.82,8.43,3.35,12.09,5.86,4.25,2.92,8.29,6.15,12.47,9.18,2.33,1.69,4.69,3.34,7.12,4.88.98.62,1.36.91,2.46.77.93-.12,1.92-.46,2.58-1.15,1.09-1.14.96-2.9.72-4.33-.05-.27-1.45.03-1.39.37.2,1.21.21,5.2-1.92,4.58-.9-.26-1.94-1.23-2.73-1.75-1.04-.69-2.07-1.39-3.1-2.11-1.98-1.39-3.93-2.83-5.86-4.28-3.81-2.85-7.57-5.81-11.61-8.34-3.25-2.04-6.83-3.92-10.7-4.39-6.08-.73-11.79,2.11-17.6,3.36-3.1.66-6.26.95-9.42,1.08-4.61.2-9.25.18-13.81-.63-8.11-1.44-15.13-5.38-21.45-10.54-.29-.23-1.51.31-1.31.47h0Z"/>
    <path class="cls-12" d="M527.42,953.29c-2.48-.61-4.97-1.23-7.45-1.84l.21.33c3.93-3.88,8.82-6.55,14.22-7.74,6.11-1.34,12.6-.72,18.81-.7,5.85.02,11.72.02,17.55-.41,4.18-.31,8.66-.69,12.55-2.36,1.32-.57,2.7-1.34,3.51-2.56,1.5-2.26.47-5.28-.58-7.49-.2-.43-1.56.02-1.39.37,1,2.11,2.12,5.14.59,7.28-.83,1.17-2.25,1.82-3.56,2.28-4.45,1.58-9.46,1.78-14.12,1.99-6.02.27-12.06.22-18.09.18-5.68-.04-11.37-.31-16.91,1.19-5.26,1.42-9.99,4.17-13.86,7.99-.18.18.06.3.21.33,2.48.61,4.97,1.23,7.45,1.84.39.1,1.62-.5.87-.69h0Z"/>
    <g>
      <path class="cls-32" d="M522.31,952.3l.16.21-.3-.07s.1-.09.14-.14Z"/>
      <path class="cls-7" d="M521.65,952.56c.05.06.09.12.14.18l.02.03,1.21-.56c-.09-.02-.18-.04-.27-.07h-.04c0,.11-.01.24-.02.36.05-.05.11-.1.16-.15.02-.02.05-.05.07-.07l-.09.09h0c.05-.04.09-.08.12-.13.03-.03.04-.08.03-.12-.02-.05-.04-.08-.09-.09-.05-.03-.11-.05-.17-.05h-.15c-.12,0-.24.02-.36.05l-.18.06c-.1.04-.2.09-.29.15-.08.07-.16.15-.23.22l.09-.09h0s-.06.06-.09.09c-.04.04-.06.08-.05.13,0,.03,0,.05.02.07.02.04.06.07.11.08.09.02.18.04.27.07h.04c.07.03.13.04.2.04.08,0,.17,0,.25-.01l.19-.04c.09-.02.18-.05.26-.1.05-.02.1-.04.14-.08.06-.03.11-.07.16-.13l.05-.09c.02-.06,0-.11-.04-.15-.05-.06-.09-.12-.14-.18l-.02-.03s-.09-.06-.15-.06c-.07-.02-.14-.03-.21-.02-.09,0-.18.01-.27.04-.09.02-.19.04-.28.08l-.16.07c-.08.04-.16.1-.22.17l-.05.09c-.02.06,0,.11.04.15Z"/>
    </g>
    <g>
      <path class="cls-32" d="M509.86,947.38l1.48.05c-.04,1.27.04,2.29.1,2.9-.47-.06-.98-.13-1.51-.2-.06-.67-.11-1.61-.07-2.74Z"/>
      <path class="cls-7" d="M509.6,947.81c.49.02.99.03,1.48.05l-.44-.35c-.03,1,0,2.01.1,3.01l.96-.61c-.51-.06-1.01-.13-1.51-.2l.43.24c-.08-.9-.09-1.73-.07-2.63,0-.32-.36-.38-.61-.35-.18.02-.37.08-.53.18-.1.07-.25.18-.26.32-.03.95,0,1.91.07,2.85.02.19.3.22.43.24.5.07,1.01.14,1.51.2.34.04,1-.19.96-.61-.1-.95-.13-1.84-.1-2.79,0-.24-.22-.35-.44-.35-.49-.02-.99-.03-1.48-.05-.18,0-.38.03-.55.1-.12.06-.3.16-.37.29-.15.29.13.45.39.46Z"/>
    </g>
    <g>
      <path class="cls-32" d="M503.27,945.4c0,1.22-.05,2.48-.15,3.75l-.22-.02c-.41-.06-.83-.13-1.26-.2.09-1.19.14-2.38.14-3.52h1.49Z"/>
      <path class="cls-7" d="M502.57,945.58c0,1.25-.05,2.5-.15,3.75l1.14-.48c-.06,0-.12-.01-.18-.01-.11,0,.14.02-.06,0-.07-.01-.14-.02-.21-.03-.3-.05-.61-.1-.91-.14l.13.09c.09-1.17.14-2.35.14-3.52l-.99.48c.5,0,.99,0,1.49-.01.29,0,.72-.12.93-.34.22-.24-.2-.26-.34-.26-.5,0-.99,0-1.49.01-.23,0-.5.08-.7.19-.12.06-.29.14-.29.3,0,1.17-.05,2.35-.14,3.52.02.05.07.08.13.09.53.08,1.06.19,1.6.23.26.02.54-.06.77-.15.14-.06.36-.15.37-.33.1-1.25.15-2.5.15-3.75,0-.25-1.39-.05-1.39.37Z"/>
    </g>
    <g>
      <path class="cls-5" d="M464.91,943.65s-.4-5.05.46-4.91l.34-1.39c5.44.87,24.17,3.92,35.58,6.46,3.48.77,7.86,2.03,12.92,3.47,11.75,3.36,27.85,7.97,45.01,9.96,3.07.36,6.12.62,9.05.79,24.55,1.38,45-2.55,49.4-3.48l.12,1.43c.68-.14,1.03-.23,1.03-.23,0,0,.31,1.95.59,3.73,0,0,0,0,0,0,.03.16.05.31.07.47.1.63.19,1.22.26,1.65-12.36,6.94-64.61,5.19-76.26,1.21-.74-.25-1.53-.51-2.36-.78-.34-.11-.72-.22-1.07-.33-.55-.17-1.09-.34-1.67-.52-12.51-3.8-31.15-8.31-31.15-8.31,0,0,0,1.99-.11,4.31h0s0,.05,0,.07c-.05.99-.12,2.02-.22,3-22.07-.88-42.44-5.7-42.44-5.7l.44-10.89Z"/>
      <path class="cls-7" d="M465.6,943.46c-.05-.67-.08-1.35-.09-2.03,0-.51,0-1.02.04-1.53.02-.2.03-.41.07-.6.17-.78.38-.34-.7-.31.23,0,1.06-.1,1.13-.39l.34-1.39-1.25.38c8.37,1.34,16.73,2.76,25.06,4.33,4.83.91,9.66,1.84,14.42,3.08,5.37,1.41,10.7,3.02,16.05,4.51,11.85,3.3,23.85,6.17,36.06,7.73,12.32,1.57,24.81,1.66,37.19.72,7.91-.6,15.85-1.57,23.62-3.21l-.55-.04c.04.48.08.95.12,1.43.01.14.5.05.55.04.41-.09.81-.18,1.22-.27h-.74c.2,1.24.4,2.49.59,3.73.04.25.97-.07,1.08-.12h0c-.36.04-.72.08-1.08.12.06.39.47,1.78.32,2.03-.09.14-.55.28-.7.34-.53.24-1.07.45-1.62.64-1.3.45-2.63.79-3.97,1.07-3.45.74-6.97,1.18-10.49,1.5-8.45.78-16.97.9-25.46.72-7.82-.17-15.67-.58-23.43-1.58-2.67-.34-5.35-.74-7.95-1.43-4.36-1.16-8.64-2.72-12.99-3.94-8.16-2.29-16.38-4.42-24.62-6.41-.23-.06-1.26.11-1.26.44,0,1.44-.04,2.87-.11,4.31.03.04.07.07.12.07-.18-.02-.31,2.63-.34,3l1.14-.45c-11.06-.46-22.07-1.82-32.96-3.79-2.79-.5-5.57-1.05-8.33-1.66-.25-.06-.53-.08-.76-.17-.32-.12-.13-.02-.14-.04-.24-.72.08-2.02.11-2.78.11-2.69.22-5.38.32-8.07,0-.16-1.37,0-1.38.37-.15,3.63-.29,7.26-.44,10.89.03.04.07.07.12.07,9.36,2.21,18.96,3.64,28.51,4.66,4.67.5,9.35.85,14.05,1.05.25.01,1.11-.12,1.14-.45.1-1.02.15-2.05.23-3.07-.03-.04-.07-.07-.12-.07.21.02.23-3.73.23-4.24l-1.26.44c7.27,1.76,14.52,3.63,21.73,5.61,5.04,1.38,10,2.94,14.99,4.48,2.38.74,4.88,1.13,7.35,1.48,7.63,1.09,15.37,1.53,23.07,1.75,8.74.25,17.51.17,26.23-.54,4-.33,8-.78,11.93-1.58,2.84-.58,5.76-1.31,8.31-2.72.05-.03.18-.1.17-.18-.11-.71-.22-1.41-.33-2.12-.04-.25-.97.07-1.08.12h0c.36-.04.72-.08,1.08-.12-.2-1.24-.39-2.49-.59-3.73-.03-.19-.68-.01-.74,0-.2.05-.59.13-.85.18l.55.04c-.04-.48-.08-.95-.12-1.43-.01-.14-.5-.05-.55-.04-6.54,1.38-13.2,2.25-19.85,2.87-12.35,1.14-24.86,1.27-37.2-.09-12.16-1.34-24.12-4.04-35.92-7.24-10.07-2.74-20.01-5.8-30.26-7.81-9.4-1.84-18.85-3.44-28.3-4.95-.24-.04-1.17.07-1.25.38l-.34,1.39,1.13-.39c-1.24.04-1.56.67-1.66,1.8s-.04,2.38.05,3.56c.02.2,1.41-.03,1.38-.37Z"/>
    </g>
    <g>
      <path class="cls-5" d="M537.95,904.63c-.24.38-.65.57-1.05.52-.17-.02-.35-.08-.5-.2-.51-.37-.64-1.11-.3-1.66l3.89-6.19c.6.42,1.21.87,1.83,1.35l-3.87,6.17Z"/>
      <path class="cls-7" d="M537.27,904.75s-.16.21-.17.2c-.09-.14.59.1.09-.15-.13-.07-.24-.17-.33-.28-.18-.24-.26-.56-.23-.85.03-.22.12-.41.24-.59.25-.41.51-.82.77-1.23l2.42-3.85c.21-.33.42-.67.63-1l-1.34.36c.28.2.57.4.85.61.14.11.29.21.43.32.08.06.16.12.25.19.03.02.24.14.23.13.04.07.03-.06.01.04,0,.05-.07.11-.1.15l-.84,1.34-2.33,3.7c-.19.3-.38.61-.57.91-.14.22.5.15.56.14.26-.05.66-.14.81-.38,1.13-1.8,2.26-3.6,3.39-5.4.16-.26.32-.51.48-.77.02-.05.01-.09-.03-.12-.6-.46-1.21-.92-1.83-1.35-.3-.21-1.16.07-1.34.36-.68,1.08-1.35,2.15-2.03,3.23l-1.35,2.15c-.23.37-.58.79-.67,1.22-.16.76.31,1.47,1.08,1.6.82.14,1.83-.23,2.31-.92.15-.21-.51-.15-.56-.14-.27.05-.65.14-.81.38Z"/>
    </g>
    <g>
      <path class="cls-5" d="M543.3,908.5c-.24.38-.65.57-1.05.53-.17-.02-.34-.08-.5-.2-.51-.37-.64-1.11-.3-1.66l3.73-5.93c.57.49,1.14.99,1.73,1.51l-3.61,5.75Z"/>
      <path class="cls-7" d="M542.61,908.61s-.16.2-.17.19c-.09-.14.58.11.08-.14-.12-.06-.23-.16-.32-.26-.16-.2-.25-.47-.25-.72s.1-.49.24-.71c.24-.39.49-.78.73-1.17.78-1.24,1.56-2.47,2.33-3.71.2-.32.4-.64.61-.96l-1.34.36c.58.5,1.16,1.01,1.73,1.51l-.03-.12c-1.05,1.68-2.11,3.35-3.16,5.03l-.45.72c-.14.22.5.16.56.15.27-.05.66-.14.81-.39,1.05-1.68,2.11-3.35,3.16-5.03l.45-.72s.01-.09-.03-.12c-.57-.51-1.15-1.01-1.73-1.51-.28-.25-1.17.08-1.34.36-.66,1.04-1.31,2.09-1.97,3.13l-1.29,2.05c-.24.38-.58.79-.65,1.24-.12.74.36,1.4,1.09,1.53.83.14,1.82-.23,2.31-.92.15-.22-.51-.16-.56-.15-.28.05-.64.14-.81.39Z"/>
    </g>
    <g>
      <path class="cls-5" d="M551.9,907.19l-3.25,5.18c-.24.38-.65.57-1.05.52-.17-.02-.35-.08-.5-.2-.51-.37-.64-1.11-.3-1.66l3.38-5.37c.56.5,1.13,1.01,1.72,1.53Z"/>
      <path class="cls-7" d="M551.25,907.16c-1.03,1.65-2.07,3.29-3.1,4.94-.05.08-.09.16-.15.23s-.22.2-.11.16c.1-.04.03,0-.05-.03-.12-.06-.22-.14-.31-.24-.35-.42-.22-.92.04-1.34l1.71-2.72c.52-.82,1.04-1.65,1.55-2.47l-1.29.25c.57.51,1.15,1.02,1.72,1.53.25.22.65.15.93.03.16-.07.61-.37.36-.59-.58-.51-1.15-1.02-1.72-1.53-.33-.3-1.07-.11-1.29.25-1.1,1.75-2.2,3.5-3.3,5.25-.36.57-.45,1.24-.05,1.82.73,1.05,2.43.65,3.08-.26.54-.76,1.01-1.6,1.5-2.39.59-.94,1.19-1.89,1.78-2.83.18-.28-.15-.43-.39-.45-.31-.02-.74.11-.92.39Z"/>
    </g>
    <g>
      <path class="cls-5" d="M554,916.23c-.24.38-.65.57-1.05.52-.17-.02-.35-.08-.5-.2-.51-.37-.64-1.11-.3-1.66l3.05-4.84c.57.49,1.16.98,1.75,1.48l-2.96,4.7Z"/>
      <path class="cls-7" d="M553.35,916.2s-.13.13-.14.16c.02-.08.15.05.02-.03-.2-.12-.36-.21-.46-.43-.15-.32-.13-.69.05-.99.16-.28.34-.55.52-.82.66-1.05,1.32-2.11,1.99-3.16.18-.28.36-.57.54-.85l-1.29.25c.58.5,1.17.99,1.75,1.48v-.31c-.99,1.57-1.98,3.14-2.96,4.7-.18.28.15.43.39.45.31.02.74-.11.92-.39.99-1.57,1.97-3.14,2.96-4.7.05-.08.08-.23,0-.31-.59-.49-1.17-.98-1.75-1.48-.34-.29-1.06-.12-1.29.25-.57.91-1.14,1.82-1.72,2.73l-1.05,1.67c-.28.45-.56.86-.51,1.43.06.68.6,1.19,1.26,1.3.8.14,1.66-.22,2.12-.89.19-.27-.16-.43-.39-.45-.32-.02-.73.11-.92.39Z"/>
    </g>
    <g>
      <path class="cls-5" d="M559.35,920.1c-.24.38-.65.57-1.05.53-.17-.02-.34-.08-.5-.2-.51-.37-.64-1.11-.3-1.66l2.84-4.52c.6.46,1.19.93,1.81,1.39l-2.8,4.46Z"/>
      <path class="cls-7" d="M558.67,920.22s-.18.19-.18.2c0-.08.45,0,.32-.09-.05-.03-.14-.03-.19-.06-.21-.1-.38-.27-.48-.48-.18-.38-.15-.79.06-1.15.14-.24.3-.47.44-.71.63-1,1.26-2,1.89-3,.17-.27.34-.54.51-.81l-1.34.36c.6.47,1.2.93,1.81,1.39l-.03-.12c-.93,1.49-1.87,2.98-2.8,4.46-.14.22.5.15.56.14.26-.05.66-.14.81-.38.93-1.49,1.87-2.98,2.8-4.46.02-.05.01-.09-.03-.12-.61-.46-1.21-.92-1.81-1.39-.16-.13-.54-.03-.71.02-.21.06-.5.15-.63.34-.55.88-1.1,1.76-1.66,2.63l-.97,1.55c-.28.44-.52.88-.36,1.42.42,1.5,2.68,1.02,3.37,0,.15-.21-.5-.15-.56-.14-.27.05-.65.14-.81.38Z"/>
    </g>
  </g>
  <polygon class="cls-3" points="605.42 702.57 632.79 702.57 619.71 770.77 595.11 770.77 605.42 702.57"/>
  <g id="freepik--Character--inject-2">
    <path class="cls-27" d="M606.66,381.78l-7.41-78.06s14-9.2-.69-19.91c-7.45-5.43-28.51-23.25-33.13-26.16-.46,7.05-1.11,17.91-6.69,20.35-7.8,3.42-13.1,1.26-21.38-.69-7.94-1.87-17.28-9.79-24-14.35-12.58-8.53-23.66-24.36-22.93-40.3l-21.94,13.03s-50.93,15.39-58.4,16.36c-7.47.97-22.79,167.07-22.79,167.07l-35.19,51.22c-3.43,6.76-28.94,24.56-23.91,70.6,0,0,145.7,32.46,161.47,36.35,18.32,4.53,58.77,5.47,65.68-2.02,6.91-7.49,51.3-193.5,51.3-193.5Z"/>
  </g>
  <path class="cls-15" d="M610.08,632.82c1.04-4.42,2.32,11.67,3.76,7.37,3.27-9.71,7.46-19.1,12.28-28.14,4.96-9.29,10.63-18.21,17-26.59,4.33-5.7,8.99-11.17,14.01-16.29-91.48-26.39-301.06-38.27-301.06-38.27,0,0-63.75,40.71-33.97,109.61,8.92,20.64,29.78,19.13,59.54,20.34,70.48,2.86,175.64-2.79,227.41-13.49.35-.07.69-14.47,1.03-14.55Z"/>
  <path class="cls-15" d="M612.45,649.13c1.61-4.08,3.44-8.08,5.43-11.99,4.49-8.83,9.81-17.23,15.68-25.19,6.04-8.19,12.71-15.92,19.97-23.05,4.93-4.85,21.89,8.51,27.4,4.32-10.07-99.56-352.73-53.95-352.73-53.95,0,0-22.52-5.74-14.76,73.07,7.29,74.05,225.94,31.22,297.99,26.98.34-.02.68,9.84,1.02,9.82Z"/>
  <path class="cls-20" d="M511.33,377.73c.06.01.11.03.16.06-.03.21.01.45-.21.6.02-.22.03-.44.05-.66Z"/>
  <path class="cls-20" d="M506.4,439.75c-.05.02-.11.03-.17.03"/>
  <path class="cls-10" d="M561.83,381.98c-.07-.02-.14-.05-.22-.07.08-.02.16-.04.24-.06.02.05.01.1-.02.14Z"/>
  <path class="cls-10" d="M529.41,379.24c.08-.03.16-.07.24-.1.01.04.03.08.04.13-.09,0-.19-.02-.28-.03Z"/>
  <path class="cls-10" d="M561.15,381.87c-.1,0-.2-.02-.3-.03.11-.08.21-.08.3.03Z"/>
  <path class="cls-27" d="M512.04,377.81c.09-.08.18-.08.26.02-.09,0-.17-.01-.26-.02Z"/>
  <path class="cls-15" d="M683.74,646.19c-18.15,51.9-58.26,180.39-83.27,243.14,0,0-68.77,3.5-73.95-12.32,0,0,1.87-318.65,44.03-324.33,31.07-4.19,80.57-7.49,96.62,5.71,19.25,15.83,30.87,46.93,16.57,87.81Z"/>
  <path class="cls-15" d="M650.12,611.4s-10.56-2.03-25.64-1.72c2.92-6.33,3.92-11.05,3.92-11.05-1.4-1.6-2.88-3.24-4.43-4.91-8.63,2.02-17.07,4.8-25.25,8.12-9.52,3.86-18.73,8.45-27.52,13.69-8.47,5.05-16.57,10.73-24.03,17.09-2.11,1.8-4.17,3.67-6.17,5.59.26.08-4.14-.57-3.89-.5-29.16,30.46-28.43,98.45-45.3,160.14-12.37,45.25-25.7,82.13-25.7,82.13,6.7,15.23,90.12,21.47,90.12,21.47,29.66-82.12,93.91-290.05,93.91-290.05Z"/>
  <path class="cls-28" d="M564.03,889.33c.4-1.17.8-2.35,1.2-3.52,1.12-3.28,2.24-6.57,3.35-9.85,1.73-5.1,3.46-10.2,5.19-15.3,2.22-6.55,4.44-13.1,6.65-19.65,2.61-7.74,5.22-15.48,7.83-23.22,2.89-8.57,5.77-17.15,8.64-25.73,3.03-9.04,6.05-18.09,9.06-27.14,3.09-9.28,6.17-18.55,9.23-27.84,3.02-9.14,6.03-18.29,9.02-27.44,2.83-8.65,5.64-17.3,8.43-25.95,2.55-7.91,5.07-15.82,7.57-23.74,2.13-6.77,4.24-13.55,6.31-20.35,1.63-5.38,3.24-10.76,4.76-16.17,1.02-3.61,2.02-7.23,2.84-10.89,2.82-12.69,3.13-26.27-1.12-38.68-4.11-12.01-12.37-22.27-23.3-28.75-5.75-3.41-12.13-5.77-18.72-6.93-2.24-.4-4.51-.62-6.76-.89l-18.45-2.21c-8.85-1.06-17.69-2.12-26.54-3.18-6.65-.8-13.29-1.59-19.94-2.39-1.01-.12-2.02-.24-3.03-.36s-2.38,1.28-.84,1.47c3.86.46,7.71.92,11.57,1.39l24.95,2.99c8.06.97,16.12,1.93,24.18,2.9,4.72.56,9.57.92,14.24,1.81,13.31,2.54,25.46,10.05,33.36,21.1,7.41,10.35,10.52,23.12,10.17,35.74-.21,7.4-1.55,14.66-3.44,21.79-1.24,4.68-2.59,9.34-3.97,13.99-1.84,6.23-3.75,12.44-5.68,18.64-2.31,7.42-4.65,14.82-7.01,22.22-2.67,8.36-5.36,16.71-8.08,25.05-2.91,8.95-5.84,17.89-8.77,26.83-3.02,9.18-6.05,18.35-9.09,27.53s-6.1,18.35-9.16,27.52c-2.93,8.77-5.87,17.54-8.81,26.31-2.73,8.13-5.47,16.26-8.21,24.39-2.4,7.13-4.81,14.26-7.23,21.39-1.96,5.79-3.92,11.57-5.88,17.36-1.42,4.18-2.84,8.36-4.26,12.53-.75,2.21-1.51,4.43-2.26,6.64-.1.28-.19.56-.29.84-.31.9,2,.63,2.3-.23h0Z"/>
  <path class="cls-27" d="M318.76,542.02s36.8-1.92,54.93-3.64c70.11-6.64,188.17-9.53,188.17-9.53,0,0-204.99-62.94-214.91-57.99-9.92,4.95-31.18,55.48-28.2,71.16Z"/>
  <path class="cls-27" d="M349.48,430.96c-8.16-.76-8.57-2.3-16.76-2.7.55-5.39,1.26-10.44,2.21-15.36,4.05-20.97,28.65-118.4,46.03-148.13,12.69-33.18,109.46-42.1,109.46-42.1l-60.45,118.1-25.04,94.77c-14.16.46-41.35-3.25-55.45-4.57Z"/>
  <g>
    <polyline class="cls-27" points="404.36 444.62 548.94 505 546 514.01"/>
    <path class="cls-9" d="M403.93,445.07c4.81,2.01,9.61,4.02,14.42,6.02,11.54,4.82,23.08,9.64,34.62,14.46,13.87,5.79,27.75,11.59,41.62,17.38,12.06,5.03,24.11,10.07,36.17,15.1,3.97,1.66,7.93,3.31,11.9,4.97l3.7,1.54c.59.25,1.28.68,1.91.8.08.02.17.07.24.1l-.3-.37c-.98,3.01-1.96,6.01-2.94,9.02-.19.59,1.28.41,1.46-.14.98-3.01,1.96-6.01,2.94-9.02.07-.2-.16-.31-.3-.37-4.81-2.01-9.61-4.02-14.42-6.02-11.54-4.82-23.08-9.64-34.62-14.46-13.87-5.79-27.75-11.59-41.62-17.38-12.06-5.03-24.11-10.07-36.17-15.1-3.97-1.66-7.93-3.31-11.9-4.97-1.85-.77-3.7-1.7-5.61-2.34-.08-.03-.16-.07-.24-.1-.53-.22-1.68.54-.86.89h0Z"/>
  </g>
  <path class="cls-9" d="M436.01,263.82c5.33,2.19,7.54,8.08,8.59,13.33,1.28,6.37,1.21,12.99.69,19.44-.34,4.17-.83,8.38-1.79,12.45-.81,3.42-1.79,6.81-2.76,10.19-3.37,11.75-6.96,23.44-10.52,35.13-4.5,14.78-9.01,29.56-13.43,44.37-4.13,13.83-8.22,27.67-11.99,41.6-.39,1.46-.79,2.91-1.17,4.37-.15.56,1.31.35,1.45-.17,3.63-13.7,7.62-27.31,11.66-40.9,4.47-15.06,9.06-30.1,13.63-45.13,3.72-12.24,7.48-24.47,11.05-36.75,2.14-7.37,4.2-14.6,5.03-22.25.69-6.35.93-12.83.16-19.18-.65-5.38-2.07-11.68-6.4-15.37-.92-.78-1.94-1.4-3.05-1.86-.46-.19-1.77.47-1.15.73h0Z"/>
  <path class="cls-27" d="M349.15,364s-13.84,46.37-14.21,48.89c-1.75,11.85-11.41,30.39-3.63,58.04,6.69,23.78,29.16,35.8,61.27,24.23,32.11-11.58-13.24-74.54-13.24-74.54l-30.19-56.62Z"/>
  <path class="cls-9" d="M404.7,444.17c-6.2-1.01-12.76-1.42-18.84.45-5.88,1.8-10.51,5.73-13.73,10.91-.39.63,1.07.58,1.37.1,3.09-4.96,7.53-8.73,13.2-10.32s11.73-1.13,17.47-.19c.64.11,1.5-.79.53-.95h0Z"/>
  <g>
    <path class="cls-27" d="M337.67,484.25c3.13,10.15,19.14,16.56,32.42,23.23,47.27,23.73,114.37,33.95,162.5,42.08l11.98-30.44"/>
    <path class="cls-9" d="M336.94,484.45c1.7,5.31,6.38,9.06,10.89,12,5.82,3.78,12.17,6.68,18.39,9.72,5.98,2.92,11.94,5.82,18.09,8.37,6.49,2.7,13.08,5.13,19.74,7.37,13.71,4.6,27.68,8.39,41.75,11.7,14.01,3.3,28.13,6.12,42.29,8.71,13.13,2.4,26.3,4.59,39.47,6.8,1.48.25,2.96.5,4.44.75.33.06,1.16-.03,1.31-.41,3.49-8.88,6.99-17.76,10.48-26.64.5-1.27,1-2.53,1.49-3.8.11-.29-1.28-.15-1.43.24-3.49,8.88-6.99,17.76-10.48,26.64-.5,1.27-1,2.53-1.49,3.8l1.31-.41c-12.83-2.17-25.66-4.27-38.47-6.56-14.02-2.51-28.01-5.21-41.9-8.35-14.02-3.17-27.95-6.76-41.65-11.11-13.16-4.18-26.15-9.04-38.57-15.11-6.21-3.04-12.51-5.95-18.56-9.3-5.19-2.87-10.88-6.29-14.1-11.44-.65-1.05-1.17-2.16-1.55-3.33-.12-.36-1.56.05-1.45.39h0Z"/>
  </g>
  <g>
    <path class="cls-27" d="M490.42,222.66s20.9,49.95,49.29,55.49c28.39,5.55,24.74-21.93,24.74-21.93h0l8.83,7.19s-.1,13.72-5.09,19.15c-4.99,5.43-20.43,7.23-37.94,1.09-10.27-3.6-22.47-13.22-28.92-22.72-7.72-11.38-22.36-36.94-22.36-36.94l11.44-1.34Z"/>
    <path class="cls-4" d="M489.7,222.85c1.9,4.54,4.17,8.96,6.53,13.28,4.97,9.11,10.68,17.95,17.61,25.7,6.79,7.59,15.25,14.75,25.49,16.82,8.67,1.75,18.78.72,23.38-7.84,1.46-2.71,2.2-5.79,2.49-8.85.11-1.17.15-2.34.13-3.52-.01-.67.05-1.48-.12-2.13-.02-.09-.02-.2-.03-.29l-1.28.61c2.47,2.01,4.94,4.02,7.41,6.03.3.25.91.98,1.31,1.06.28.06-.13-.06-.07-.24-.04.11,0,.3,0,.42-.15,1.55-.16,3.12-.34,4.67-.52,4.62-1.37,10.41-4.75,13.9-3.34,3.45-9.12,4.21-13.65,4.43-7.51.38-15.1-1.05-22.19-3.44-6.55-2.2-12.5-5.95-17.83-10.31s-9.46-9-13.08-14.51c-2.86-4.35-5.57-8.79-8.26-13.24s-5.37-8.98-8.01-13.49c-.98-1.68-1.96-3.36-2.93-5.04-.54-.93-1.01-1.95-1.63-2.82-.09-.12-.15-.27-.23-.4l-.73.84c3.81-.45,7.63-.89,11.44-1.34.8-.09,1.12-1.17.13-1.05-3.81.45-7.63.89-11.44,1.34-.39.05-1,.37-.73.84,3.75,6.55,7.57,13.05,11.45,19.52,2.87,4.79,5.77,9.56,8.81,14.24,3.49,5.39,7.48,10.21,12.33,14.45,5.3,4.63,11.34,8.72,17.94,11.25,7.09,2.71,14.84,4.25,22.43,4.26,5.16,0,10.89-.64,15.34-3.48,4.09-2.6,5.58-7.59,6.45-12.11.43-2.24.7-4.51.85-6.78.05-.72.38-2.08-.09-2.7-.25-.33-.74-.6-1.06-.86l-2.2-1.79c-1.56-1.27-3.12-2.54-4.67-3.8l-.88-.72c-.42-.34-1.36.04-1.28.61.51,3.9.02,8.24-1.35,11.91-1.16,3.12-3.13,5.91-5.99,7.68-4.14,2.56-9.32,2.67-14,2.03-10.42-1.44-18.96-7.96-25.96-15.46s-12.6-15.93-17.57-24.74c-1.86-3.3-3.62-6.65-5.27-10.06-.81-1.67-1.5-3.41-2.33-5.07-.04-.08-.07-.16-.1-.24-.27-.64-1.71-.23-1.45.39Z"/>
  </g>
  <path class="cls-28" d="M523.98,657.77c6.12-2.52,11.96-5.63,17.5-9.25.45-.29.51-.93.1-1.26-.48-.39-1.19-.18-1.64.12-5.37,3.51-11.07,6.49-17,8.93-.47.19-.82.79-.52,1.25.33.51,1.09.41,1.56.21h0Z"/>
  <path class="cls-33" d="M585.3,160.54c2.54,1.5,5.98,1.27,8.25-.64,2.14-1.81,3.01-4.93,2.01-7.56-.26-.68-1.7-.27-1.45.39.81,2.12.33,4.71-1.34,6.3-1.68,1.6-4.39,1.82-6.37.65-.32-.19-.75-.15-1.04.08-.22.18-.39.59-.07.78h0Z"/>
  <path class="cls-26" d="M571.71,215.18c-5.55-2.24-19.38-3.28-22.85-1.79,0,0,2.24,10.21,15.11,15.41,12.86,5.2,19.09-1.58,19.09-1.58,0,0-4.28-9.19-11.35-12.05Z"/>
  <path class="cls-17" d="M555.21,212.75s7.29,2.23,12.91,4.51c5.62,2.27,12.4,5.73,12.4,5.73,0,0,2.74-4.19-7.44-8.31-10.18-4.12-17.87-1.93-17.87-1.93Z"/>
  <path class="cls-6" d="M566.51,227.28c-5.62-3.43-10.42-11.55-17.65-13.89,0,0-2.11,13.17,13.01,19.29,15.12,6.12,21.19-5.46,21.19-5.46-6.82-3.35-10.12,1.5-16.54.06Z"/>
  <path class="cls-6" d="M579.69,214.37c-3.07-1.56-5.65-.98-7.03-1.54-1.38-.56-2.83-2.77-6.12-3.78-3.08-.95-19.07,2.38-18.11,4.04.97,1.66,13.22-.58,22.79,3.29,9.56,3.87,10.49,11.44,12.34,10.91,1.85-.52-1-11.47-3.87-12.93Z"/>
  <path class="cls-23" d="M550.25,206.87c-1.1.66-1.38.4.19.44.67.02,1.36-.08,2.01-.22,1.4-.3,2.25-1.28,3.46-1.72l-3.4.54c1.07.1,1.98,1.31,3.22,1.47,1.55.19,3.08-.42,4.54-.81l-3.12.12c1.46.32,2.11,1.43,3.9,1.39s3.01-1.1,4.62-1.44l-3.12.12c1.55.63,1.19,1.16,1.35,2.47.05.46.94.67,1.25.68h.16c1.49.06,3.68-.16,4.81-1.28.8-.8,1.09-1.83-.51-1.89h-.16c.42.22.83.45,1.25.67-.64-5.37-5.92-3.52-9.49-2l3.4-.54c-.44-.07-.78-.75-1.22-.95-.53-.24-1.5-.32-2.07-.31-.9.01-1.67.34-2.55.49-2.06.34,1.32.31-.1-.94-2.27-2.01-7.02.74-8.78,2.19l4.07-1.31c-2.93.16-5.03-.19-7.76,1.44-3.9,2.33,2.2,2.5,4.05,1.39h0Z"/>
  <path class="cls-23" d="M578.57,215.07c1.48.29,1.67,1.41,2.26,2.43.64,1.11,2.42,1.93,3.68,1.85,1.04.21.78-.1-.78-.91l-.04.61c-.17.79.28,1.8.77,2.38.45.54,1.28.73,1.68,1.2-1.06-1.26-.79-.11-.96.77-.14.7.35,1.37.85,1.78l.09.08c1.05.87,3.02.69,4.14.09.19-.11.38-.2.58-.29l-3.48.26.19.07-1.51-2.13c.13-.73.93-1.19-.1-.41-.37.28-.69.64-1.01.98-1.13,1.22-.48,2.85.92,3.44,1.63.68,3.67-.05,4.81-1.29,1-1.08,1.99-1.62,2.28-3.18.18-.99-.67-1.81-1.51-2.13-1.47-.56-2.9-.23-4.24.48l4.14.09-.09-.08.85,1.78c.29-1.45.62-3-.56-4.14-.36-.34-.73-.46-.89-.83-.15-.34.03-.89-.07-1.25-.24-.9-.9-1.56-1.71-1.96-.41-.2-.86-.35-1.32-.42-.23-.03-.97-.33-.51.03.39.31-.54-1.54-1.02-1.92-1.54-1.21-3.22-2.12-5.14-2.5-3.46-.69-6.83,4.22-2.31,5.12h0Z"/>
  <path class="cls-23" d="M570.84,209l-1.73,3.33c-.27.51-.82.79-1.39.71-3.91-.6-18.78-2.92-22.17-3.98-.08-.03-.12,1.5-.2,1.46l-.78-.29c-1.2-.63,1-4.62,2.35-4.73,4.11-.34,7.7-.36,9.88-.23,2.72.17,10.19.86,13.26,1.82.81.25,1.18,1.17.79,1.92Z"/>
  <path class="cls-23" d="M577.51,210.14l-1.88,2.85c-.23.53-.13,1.13.26,1.5,2.65,2.57,9.6,10.01,12.31,11.89.06.05.13.08.2.11l.98.43c1.15.5,2.17-2.15,1.49-3.24-2.06-3.32-1.68-4.34-3.01-5.9-1.66-1.95-6.04-6.57-8.48-8.27-.64-.45-1.54-.15-1.88.63Z"/>
  <g>
    <path class="cls-34" d="M583.97,246c.78-.64,1.48-1.62,2.14-2.71,4.03-4.73,3.76-3.46,6.25-7.84-7.21,8.37-15.8,15.9-19.09,16.67-.11.03-.7-.04-1.45-.23-.06-.06-.12-.12-.2-.17-.77-.51-2.15-.42-2.6-1.06-.49-.71.96-1.14.76-1.88-.13-.46-.84-.8-1.24-1.22-.48-.5-.52-1.1-.96-1.62-.45-.53-1.32-.91-2.11-.91-.77-.29-1.9-.27-2-.88-.03-.16.06-.31.11-.46.2-.59-.12-1.32-.78-1.77s-1.61-.58-2.29-.32c-.66.25-1.04.82-1.73,1.04-.22.07-.46.1-.7.13-.14-.24-.35-.46-.61-.63-.66-.45-1.61-.58-2.29-.32-.66.25-1.04.82-1.73,1.04-.58.18-1.37.11-1.74.49-.59.61.37,1.87-.45,2.29-.74.38-1.84-.51-2.78-.45-.17.01-.31.06-.43.13-4.54-2.22-13.6-6.81-13.78-6.89l-5.31-5.49c-.83-1.08-17.35-30.61-17.35-30.61-.11-.82-2.66-7.32-2.59-8.04-.06-.07-.12-.14-.19-.2-.02-.02-.08-.07-.13-.12-.03.04-.06.09-.08.12-.15.26-.25.56-.34.84-.41,1.24-.61,2.53-.68,3.84-.12,2.01-.48,3.96-.67,5.95-.07.7-.1,1.41-.11,2.11.38.5,1,1.85,1.8,3.78.07.45.25.89.51,1.25.22.53.45,1.11.68,1.7-.92,1.64-.02,4.27,1.87,4.71.04.11.09.22.13.32-.78,1.12-.3,2.98,1.02,3.46.13.05.27.08.42.12.34.84.69,1.69,1.04,2.54-.11.23-.22.46-.31.69-.6,1.56.61,3.47,2.21,3.77.07.15.13.31.2.46-1.13,1.92.19,4.9,2.42,5.26.06.12.12.24.18.36-.29,1.53.63,3.17,2,3.9.36.67.73,1.32,1.09,1.94-.02,1.63.98,3.3,2.51,3.89.03.04.06.09.09.13-1.37,1.34-.08,4.24,1.86,4.05.54-.05,1.09-.29,1.61-.16,1.44.36,1.3,2.89,2.72,3.31.58.17,1.19-.1,1.79-.21,1.79-.32,2.72-.14,2.84,1.68,0,0-.36,1.7,2.15,1.78,1.4.05,2.88-.91,3.58.3.31.53.4,1.19.82,1.64.97,1.03,2.79.17,4.07.77,1.18.55,1.75,2.27,3.05,2.28,1.27.01,1.91-1.63,3.06-2.14.73.2,1.46.39,2.19.57,1.33,1.26,2.37,3.68,4.13,3.26.74-.18,1.3-.87,2.06-.93,1.23-.1,1.95,1.4,3.09,1.86,1.66.67,3.16-1,4.07-2.65.21-.04.42-.09.63-.14.75.58,2.03.47,2.56-.36.22-.35.33-.79.55-1.13.23-.16.45-.33.66-.52.81-.28,1.95-.01,2.24-.8.16-.44-.11-.91-.08-1.38.41-.43.84-.88,1.3-1.35.27-.11.55-.21.81-.3.89-.31,1.87-1.22,1.39-2.01,0,0,.02-.02.03-.03,1.13.08,2.63-.13,2.78-1.25.05-.36-.07-.72-.03-1.08.12-1.03,1.39-1.4,2.35-1.8.96-.4,1.86-1.72,1.03-2.35Z"/>
    <path class="cls-23" d="M584.56,246.15c1.22-1.07,1.95-2.52,3.01-3.73.75-.85,1.53-1.68,2.32-2.5,1.28-1.34,2.23-2.83,3.15-4.44.37-.65-1.01-.49-1.27-.19-2.73,3.15-5.6,6.18-8.64,9.04-2.38,2.24-4.87,4.46-7.63,6.22-.8.51-1.82,1.31-2.81,1-.6-.18-1.12-.51-1.74-.68-.28-.07-.75-.11-.98-.29-.59-.49-.02-.7.24-1.07.89-1.26-.62-1.66-1.24-2.58-.45-.67-.58-1.33-1.29-1.79-.63-.41-1.35-.5-2.07-.65-.39-.08-1.26-.16-1.38-.67-.06-.24.17-.65.12-.96-.15-.79-.88-1.37-1.59-1.63-.61-.23-1.3-.28-1.94-.16-1,.2-1.65,1.09-2.64,1.24l.58.15c-.71-1-1.99-1.39-3.17-1.19-.61.1-1.07.38-1.58.71-.69.45-1.36.48-2.1.75-.4.14-.81.36-1.01.76s.18,1.38-.02,1.64c-.15.21-1.28-.32-1.64-.38-.53-.08-1,0-1.48.2l.87-.03c-3.26-1.6-6.5-3.23-9.75-4.86-1.14-.57-2.28-1.15-3.42-1.72-.63-.32-.54-.25-1.05-.78-1.56-1.62-3.35-3.16-4.75-4.91-.58-.72-.99-1.62-1.45-2.41-4.99-8.63-9.83-17.34-14.7-26.04-.53-.94-1.08-1.87-1.35-2.76-.46-1.49-1.03-2.95-1.54-4.42-.25-.72-.51-1.43-.71-2.17-.14-.52-.12-.83-.53-1.21-.36-.34-1.09-.11-1.35.26-1.37,1.9-1.11,5-1.38,7.21-.17,1.36-.38,2.71-.49,4.08-.04.5-.18,1.2-.07,1.69.07.29.27.54.42.81.49.91.95,1.9,1.29,2.87s1.27,2.34,1.16,3.31c-.1.82-.33,1.4-.12,2.25.19.78.63,1.51,1.26,2,.17.13.81.33.87.47.1.23-.21.77-.24,1.01-.11.79.14,1.67.7,2.25.25.26.54.36.83.55.45.31.57.7.78,1.2.31.75.41,1.04.24,1.79-.1.45-.21.83-.16,1.3.1.86.56,1.66,1.23,2.2.28.23.81.34,1.02.57.31.34.14.43.01.88-.44,1.54.23,3.33,1.5,4.29.31.23.8.32,1.07.55.38.32.23.99.33,1.48.22,1.12.88,1.81,1.68,2.55.58.54,1.08,1.32,1.31,2.09.19.62.22,1.23.5,1.83.22.46.49.89.85,1.25s1.12.62,1.38,1l.08-.45c-1.63,1.85-.1,4.85,2.36,4.64.57-.05,1.2-.34,1.71.11.24.22.39.58.52.86.24.49.42,1.04.77,1.48,1.05,1.3,2.53.43,3.89.38s1.26.93,1.42,1.94c.15.96,1.04,1.39,1.91,1.55.69.13,1.35.06,2.04-.05.5-.08,1.2-.35,1.66.02.39.32.48,1.09.74,1.51.77,1.27,2.17,1.03,3.45,1.08,1.92.07,2.37,2.33,4.2,2.51s2.4-1.5,3.77-2.23l-.73.08c1.17.32,2.04.44,2.81,1.41.55.68,1.05,1.43,1.77,1.95.51.37,1.08.56,1.71.54.86-.04,1.34-.6,2.09-.83,1.01-.32,1.68.83,2.41,1.33.59.4,1.28.59,2,.52,1.8-.19,3.03-1.75,3.86-3.2l-.57.37c.21-.04.42-.09.63-.14l-.68-.03c.99.63,2.39.58,3.32-.17.58-.46.66-1.44,1.28-1.79.53-.31,1.28-.15,1.85-.43.52-.25.84-.61.9-1.19.03-.26-.15-.56-.11-.81.08-.49.85-1.11,1.25-1.33.63-.35,1.28-.48,1.79-1.04.2-.21.39-.45.47-.73.02-.06.21-1-.16-.6l-.86.3c.92.04,1.92-.02,2.74-.47.35-.19.68-.45.87-.81.29-.54.04-1.01.14-1.57.22-1.17,2.24-1.33,3.01-2.14.61-.63.98-1.52.3-2.23-.38-.4-1.76.15-1.34.59,1.08,1.13-1.15,1.87-1.86,2.22-.57.29-1.2.68-1.45,1.3-.4,1,.35,2.02-1.17,2.21-.55.07-1.16-.14-1.59.33-.07.08-.18.23-.13.35.49,1.21-1.07,1.36-1.77,1.78-.5.3-.88.79-1.28,1.22-.49.52-.38.41-.42,1.02-.04.54.07.81-.5,1.03-.28.11-.64.07-.93.16-.47.14-.97.43-1.28.81-.59.72-.3,1.65-1.7,1.42-.37-.06-.5-.24-.92-.19-.58.07-.97.22-1.3.68-.48.67-.85,1.45-1.57,1.92-.98.64-1.62,0-2.32-.62-.78-.68-1.5-1.23-2.59-1.04-.46.08-.84.28-1.25.49-.92.48-1.34.45-2.04-.22-.8-.75-1.37-2.12-2.36-2.62-.54-.27-1.62-.52-2.19-.57-.4-.03-.64.04-.99.22-1.14.59-1.96,2.58-3.3,1.22-.66-.67-1.18-1.42-2.12-1.7-.59-.18-1.23-.14-1.84-.14-1.09,0-1.65-.19-2.16-1.25-.42-.88-.75-1.49-1.83-1.55-1.18-.06-2.88.87-3.88-.12-.86-.85.01-2.4-1.46-2.99-.97-.39-2.01-.04-2.99.1-1.21.17-1.42-.39-1.86-1.36-.19-.41-.37-.87-.66-1.22-.91-1.08-1.9-.39-3.05-.5-1.48-.14-2.19-2.41-1.27-3.45.12-.14.2-.28.08-.45-.2-.28-.53-.34-.81-.52-.45-.29-.83-.71-1.11-1.16-.58-.93-.47-1.98-1-2.91-.24-.42-.45-1-.76-1.37-.29-.35-.8-.53-1.11-.9-.36-.43-.65-.94-.77-1.48s.07-1.12-.14-1.6c-.3-.65-1.25-.63-1.78-1.13-.64-.61-1.05-1.48-1.12-2.36-.06-.75.53-1.53.29-2.17-.27-.73-1.29-.71-1.8-1.34-.32-.39-.56-.88-.63-1.38-.11-.75.31-1.07.39-1.74.05-.39-.15-.71-.31-1.09-.2-.49-.37-1.34-.72-1.74-.21-.24-.54-.22-.81-.37-.44-.25-.74-.7-.88-1.18-.14-.52-.08-.98.08-1.49.12-.39.37-.42.04-.86-.18-.24-.53-.25-.79-.39-.41-.23-.71-.59-.94-.99-.45-.78-.61-1.77-.33-2.64.19-.59.28-.44.04-1.08-.16-.44-.33-.89-.53-1.31-.5-1.02-.85-2.11-1.32-3.15-.3-.66-.86-1.42-.95-2.13-.15-1.26.21-2.72.37-3.97.19-1.44.31-2.87.45-4.32.12-1.25.27-2.99,1.02-4.03l-1.35.26c.33.31.33.69.47,1.18.22.76.48,1.5.74,2.25.5,1.43,1.07,2.86,1.5,4.32.29.99.88,1.85,1.38,2.75,2.8,5,5.6,9.99,8.42,14.98,2.43,4.31,4.8,8.66,7.36,12.9.86,1.42,2.24,2.53,3.38,3.71.74.76,1.45,1.71,2.29,2.37.59.46,1.38.73,2.05,1.07,1.93.97,3.87,1.95,5.8,2.92,1.08.54,2.15,1.08,3.23,1.61.89.44,1.87,1.11,2.82,1.39.34.1.55-.03.87-.03.67,0,1.28.41,1.93.5.7.09,1.64-.11,1.96-.82.14-.31.07-.64.05-.96-.03-.44-.15-.53.2-.8.26-.21.61-.18.92-.26,1.46-.39,2.7-2.06,4-.23.11.16.41.17.58.15.68-.1,1.28-.25,1.86-.63s1-.7,1.73-.56c.87.17,1.39.9,1.28,1.74-.07.51-.17.76.29,1.11s1.4.47,1.97.59c1.32.27,1.62.57,2.3,1.7.2.33.39.62.67.89.25.23.93.55.96.92.05.5-.77.86-.85,1.37-.09.57.41.91.86,1.11.67.29,1.42.47,2.08.74.54.22,1.2.41,1.81.39.85-.02,1.7-.49,2.42-.89,2.66-1.47,5.02-3.52,7.28-5.54,3.66-3.28,7.07-6.83,10.29-10.54l-1.27-.19c-.91,1.59-1.84,3.04-3.1,4.36-.74.77-1.47,1.55-2.18,2.35-1.06,1.2-1.81,2.66-3.01,3.73-.64.57.78.65,1.18.3Z"/>
  </g>
  <path class="cls-14" d="M593.54,244.16c-1.67,4.88,2.47,18.49,2.47,18.49,0,0-11.25,30.77-11.75,37.55-.12,1.67,5.98,8.43,6.72,13.26,2.26,14.71.76,29.13.76,29.13l29.71-11.58-2.07-19.55,11.22-31.61,7.37-31.03-12.98-24.09c-.18.04-.36.1-.53.17-1.57.67-2.3,2.48-1.63,4.05l-5.32-8.51c-6.43,2.22-2.25,15.07-2.25,15.07l-6.03-11.6c-5.9,3.04-3,12.18-3,12.18l4.72,16.41s-2.36,9.65-4.03,12.57c-1.67,2.93-3.15,6.11-3.15,6.11l1.01-11.17-6.63-22.01s-2.92,1.28-4.59,6.16Z"/>
  <path class="cls-22" d="M621.51,252.14c-1.31,5-2.44,9.53-3.17,12.83-.06.28-.12.54-.18.8.3-.02.6-.04.89-.07.05-.16.1-.33.15-.5.97-3.26,2.22-7.74,3.53-12.73l.36-1.38.07-.21-.1-.21c-2-4.4-3.86-8.33-5.25-11.08-1.4-2.75-2.3-4.46-2.46-4.38.37,1.64.93,3.23,1.68,4.73,1.11,2.82,2.84,6.74,4.79,11.07-.08.38-.19.75-.31,1.13Z"/>
  <path class="cls-22" d="M629.24,258.41c.9-2.97,2.08-7.13,3.33-11.81l.07-.23-.12-.22-.71-1.36c-2.43-4.59-4.69-8.71-6.38-11.67-1.69-2.96-2.82-4.74-2.97-4.66s.68,2.02,2.17,5.08c1.49,3.06,3.67,7.21,6.05,11.84l.72,1.36-.06-.47c-1.24,4.75-2.26,8.89-2.93,11.93-.49,1.61-.78,3.27-.86,4.95.17.04.79-1.78,1.69-4.75Z"/>
  <path class="cls-27" d="M632.65,379.6l-11.55-61.03c-11.16,1.72-22.66,1.8-33.95,1.26l-4.01,88.91c-.49,49.69,1.51,48.46,1.51,48.46,0,0,1.52,14.38,20.73,21.3,7.36,2.65,18.67-3.73,24.95-9.86,6.28-6.13,10.19-22.97,10.37-32.38.18-9.04-3.08-40.48-8.06-56.67Z"/>
  <path class="cls-9" d="M586.42,319.89c-.3,6.72-.61,13.44-.91,20.15-.59,13.12-1.18,26.24-1.77,39.36-.42,9.28-.84,18.56-1.25,27.84-.28,6.28-.16,12.6-.14,18.89.02,7.23.07,14.46.42,21.69.13,2.75.21,5.56.71,8.28.11.59.19,1.5.91,1.62.18.03.43-.01.59-.1l-1.04-.21c.5,1.61,1.1,3.19,1.76,4.74,1.01,2.4,2.16,4.98,4.01,6.87.44.45,1.81-.13,1.33-.63-2.89-2.96-4.43-7.49-5.65-11.37-.12-.39-.76-.38-1.04-.21.31-.18.56-.04.84,0s-.04.09.01-.01c-.02.03,0,.03-.07-.19-.06-.19-.11-.39-.15-.59-.5-2.33-.57-4.8-.7-7.17-.35-6.52-.42-13.06-.46-19.59-.04-7.14-.22-14.34.1-21.47.38-8.48.76-16.97,1.15-25.45l1.75-38.9c.23-5.14.46-10.27.69-15.41.12-2.62.34-5.25.35-7.87,0-.12.01-.24.02-.36.03-.73-1.44-.5-1.46.12h0Z"/>
  <g>
    <path class="cls-25" d="M625.97,498.64l-.06.1-14.67-5.49s-.06-.06-.11-.07v-.11c.84-2.82,1.71-5.65,2.52-8.49s1.69-5.5,2.7-8.19c2.31-6.13,4.4-12.35,7.03-18.35.9-2.05,1.69-4.16,2.53-6.23.04-.1.08-.21.13-.31,1.66-2.93,2.76-6.14,4.3-9.13l2.47-4.86,2.23-4.33c1.09.4,2.19.81,3.28,1.19l8.46,3.25.41.24c-1.01,3.96-2.01,7.9-3.03,11.86-1.62,6.32-3.24,12.64-4.87,18.96-.44,1.69-.85,3.39-1.32,5.07-.82,2.69-.6,5.58.62,8.11.72,1.53,1.58,3,2.3,4.54.89,1.82,1,3.93.29,5.84-1.29,3.58-2.67,7.13-4.06,10.69h-.22s-.38-.13-.38-.13c-.03-.09-.14-.13-.22-.1,0,0-.01,0-.02,0l-3.07-1.14s0-.08,0-.12"/>
    <path class="cls-21" d="M633.27,501.52l3.07,1.14.25.09.38.14.16.12c-.06.21-.12.43-.2.63-6.13,16.35-12.26,32.68-18.39,48.98-.07.18-.16.36-.24.54l-14.52-5.42-.29-.17c.11-.4.13-.82.05-1.22-.1-.74-.15-1.48-.15-2.23.03-1.66,0-3.3,0-4.96.02-2.29.14-4.57.34-6.84.35-4,.76-8.01,1.47-11.97.18-1,.17-2.04.41-3.03.38-1.64.63-3.3.98-4.94.57-2.7,1.12-5.39,1.74-8.08.37-1.59.74-3.17,1.19-4.73.45-2.13,1.02-4.23,1.71-6.3l14.67,5.49"/>
    <path class="cls-21" d="M611.24,493.24c-.69,2.07-1.26,4.17-1.71,6.3-.45,1.56-.83,3.14-1.19,4.73-.61,2.69-1.17,5.38-1.74,8.08-.35,1.65-.6,3.3-.98,4.94-.23.99-.22,2.03-.41,3.03-.71,3.97-1.12,7.97-1.47,11.97-.2,2.27-.32,4.55-.34,6.84-.02,1.66.03,3.3,0,4.96,0,.74.05,1.49.15,2.23.08.41.07.83-.05,1.22-.29-.1-.58-.18-.88-.3l-24.37-9.15-.68-.29v-.31c.05-.18.1-.37.17-.55l18.13-48.27c.06-.18.15-.35.23-.54s.24-.28.31-.44l.45.14.21.07,13.84,5.2.23.09s.07.01.1.03Z"/>
    <path class="cls-25" d="M577.57,537.81l.68.29,24.37,9.14c.29.11.58.2.88.3l.29.17c-.12,1.16-.07,2.33.17,3.47.32,2.59.88,5.15,1.69,7.63.56,1.67,1.31,3.27,2.22,4.77,1.11,1.93,2.81,3.46,4.85,4.35-.49,2.45-2.91,3.65-5.39,2.7-11.08-4.25-22.19-8.38-33.29-12.54-2.34-.88-3.22-2.79-2.35-5.14,1.9-5.06,3.81-10.13,5.73-15.2.04.03.09.05.14.06Z"/>
    <path class="cls-25" d="M610.91,493.08l-13.84-5.2c-.02-.07-.1-.11-.17-.09-.01,0-.02,0-.04.02l-.45-.14s-.07-.07-.12-.09c1.31-3.5,2.6-7.01,3.96-10.51.98-2.41,3.01-4.24,5.51-4.97,1.32-.43,2.61-.94,3.87-1.53,2.49-1.29,4.46-3.39,5.59-5.95,4.52-9.11,9.11-18.18,13.68-27.25.9-1.76,1.79-3.55,2.68-5.37,1.21.26,2.39.67,3.5,1.21l-2.23,4.33-2.47,4.86c-1.54,2.99-2.64,6.2-4.3,9.13-.05.1-.09.2-.13.31-.81,2.08-1.62,4.18-2.53,6.23-2.63,6-4.72,12.22-7.03,18.35-1,2.69-1.9,5.44-2.7,8.19s-1.68,5.66-2.53,8.49h-.24Z"/>
    <path class="cls-25" d="M612.73,567.96c-2.05-.9-3.75-2.43-4.85-4.37-.92-1.52-1.67-3.13-2.23-4.82-.81-2.48-1.38-5.04-1.69-7.63-.24-1.14-.29-2.31-.17-3.47l14.52,5.42-5.57,14.87Z"/>
    <path class="cls-13" d="M635.06,433.16c-1.12-.54-2.29-.94-3.5-1.21-.31-.27-.69-.46-1.1-.53-.46-.17-.61-.43-.43-.9.39-1.01.73-2.04,1.15-3.04.41-1.12,1.64-1.69,2.76-1.28.04.02.08.03.12.05,5.03,1.87,10.05,3.76,15.07,5.68,1.13.37,1.75,1.59,1.38,2.72-.02.06-.05.13-.07.19-.32.92-.71,1.81-1.01,2.73-.21.65-.53.88-1.17.55-.33-.14-.68-.25-1.02-.35l-.46-.18-8.46-3.25c-1.07-.41-2.16-.75-3.26-1.19Z"/>
  </g>
  <path class="cls-14" d="M629.82,536.62c-7.74.97-18.15,2.11-19.22,1.33s-9.04-4.85-16.04-8.38c-3.65-1.64-5.27-5.88-3.61-9.48.43-.94,19.35,2.34,20.54-6.18l-15.26-6.06c-5.23-1.26-10.6-1.86-15.98-1.78-6.68.5-25.04,8.1-25.04,8.1l-10.29-3-11.24,30.66,10.19,3.22,16.28,12.62s34.51,16.14,39.99,15.11c5.48-1.04,14.7-9.14,14.7-9.14,7.38-.17,12.02-9.09,12.02-9.09,12.07-4.21,5.52-8.98,5.52-8.98.44-.05.86-.21,1.21-.49,3.83-2.91.81-9.09-3.81-8.47Z"/>
  <path class="cls-33" d="M625.99,547c-4.81,1.88-9.98,2.69-15.15,2.36-5.15-.87-10.08-2.74-14.49-5.49-.97-.66-1.97-1.25-3.01-1.79-.03.38-.06.77-.1,1.15.81.63,1.66,1.2,2.56,1.71,4.4,3.17,9.49,5.27,14.86,6.16,5.43.39,10.86-.63,15.77-2.96,2.09-.72,4.05-1.76,5.81-3.07-2.15.42-4.24,1.07-6.25,1.93Z"/>
  <path class="cls-33" d="M620.98,555.26c-1.82.31-3.98.72-6.37,1.23-2.51.59-5.08.94-7.66,1.04-2.59-.12-5.14-.73-7.49-1.81-1.98-.82-3.92-1.74-5.81-2.76-.52-.28-.99-.55-1.44-.81-.04.37-.08.74-.13,1.11.35.22.69.45,1.06.64,1.86,1.21,3.8,2.28,5.82,3.2,2.48,1.25,5.2,1.99,7.99,2.15,2.71-.1,5.4-.5,8.01-1.21l6.28-1.59c1.98-.35,3.9-.99,5.7-1.89-2.02-.06-4.03.17-5.98.69Z"/>
  <path class="cls-33" d="M610.8,564.68c-1.46.4-2.95.73-4.45.97-.89.15-1.78.25-2.68.3-.85.12-1.72.04-2.53-.25-3.86-1.57-7.34-2.79-9.89-3.69-.15-.07-.32-.11-.47-.17-.07.39-.15.78-.22,1.17,2.46,1.2,5.98,2.71,9.9,4.26,1.06.39,2.2.51,3.32.34.95-.08,1.89-.23,2.83-.43,1.57-.3,3.11-.75,4.59-1.35,2.54-1.02,3.88-2.12,3.74-2.3-.13-.18-1.61.48-4.14,1.16Z"/>
</svg>