<?xml version="1.0" encoding="utf-8"?>
<!-- Generator: Adobe Illustrator 25.2.1, SVG Export Plug-In . SVG Version: 6.00 Build 0)  -->
<svg version="1.1" id="Layer_1" xmlns="http://www.w3.org/2000/svg" xmlns:xlink="http://www.w3.org/1999/xlink" x="0px" y="0px"
	 viewBox="0 0 336.8 241.7" style="enable-background:new 0 0 336.8 241.7;" xml:space="preserve">
<style type="text/css">
	.st0{fill:none;stroke:#0A8AB2;stroke-width:3.5395;stroke-linecap:round;stroke-miterlimit:10;}
	.st1{fill:#A1CBEC;}
	.st2{fill:#00A0CC;}
	.st3{fill:#FFFFFF;}
	.st4{fill:#0D3F60;}
	.st5{fill:none;stroke:#0D3F60;stroke-width:1.135;stroke-linecap:round;stroke-miterlimit:10;}
	.st6{fill:none;stroke:#108AB2;stroke-width:5.1557;stroke-linecap:round;stroke-miterlimit:10;}
	.st7{fill:none;stroke:#108AB2;stroke-width:5.5102;stroke-linecap:round;stroke-miterlimit:10;}
	.st8{fill:none;stroke:#00A0CC;stroke-width:5.5102;stroke-linecap:round;stroke-miterlimit:10;}
	.st9{fill:#56C4CF;}
	.st10{fill:#4F4A47;}
	.st11{fill:none;stroke:#0D3F60;stroke-width:2.2041;stroke-linecap:round;stroke-miterlimit:10;}
	.st12{fill:#EC1651;}
	.st13{fill:none;stroke:#0D3F60;stroke-width:2.0753;stroke-linecap:round;stroke-miterlimit:10;}
	.st14{fill:none;stroke:#1689B0;stroke-width:4.3972;stroke-linecap:round;stroke-miterlimit:10;}
	.st15{fill:#049FCB;}
	.st16{fill:#0B4060;}
	.st17{fill:#FFCA05;}
	.st18{fill:none;stroke:#221F1F;stroke-width:1.6489;stroke-linecap:round;stroke-miterlimit:10;}
	.st19{fill:#A0CAEB;}
	.st20{fill:none;stroke:#049FCB;stroke-width:5.5739;stroke-linecap:round;stroke-miterlimit:10;}
	.st21{fill:none;stroke:#0B4060;stroke-width:2.1986;stroke-linecap:round;stroke-miterlimit:10;}
	.st22{fill:none;stroke:#049FCB;stroke-width:6.0573;stroke-linecap:round;stroke-miterlimit:10;}
	.st23{fill:none;stroke:#1689B0;stroke-width:4.1746;stroke-linecap:round;stroke-miterlimit:10;}
	.st24{fill:none;stroke:#0B4060;stroke-width:2.4377;stroke-linecap:round;stroke-miterlimit:10;}
	.st25{fill:#5753A2;}
	.st26{fill:none;stroke:#1689B0;stroke-width:3.299;stroke-linecap:round;stroke-miterlimit:10;}
	.st27{fill:none;stroke:#0B4060;stroke-width:1.9264;stroke-linecap:round;stroke-miterlimit:10;}
	.st28{fill:#E91C52;}
	.st29{fill:none;stroke:#353230;stroke-width:3.8528;stroke-linecap:round;stroke-miterlimit:10;}
	.st30{fill:none;stroke:#1689B0;stroke-width:3.5102;stroke-linecap:round;stroke-miterlimit:10;}
	.st31{fill:#56C3CE;}
	.st32{fill:none;stroke:#0B4060;stroke-width:1.6781;stroke-linecap:round;stroke-miterlimit:10;}
</style>
<path class="st26" d="M147.2,176c0,0,13.7,8.3,11.5,26.5"/>
<path class="st19" d="M154.1,201.8c0.8-1.2,2.6-1.8,4.5-1.4c2.4,0.5,4.2,2.5,4,4.4l-0.6,4.7c0,0,0,0.1,0,0.1c0,0,0,0,0,0.1l-0.9,6.4
	c-0.1,0.5-0.6,0.8-1.3,0.7c-0.6-0.1-1.1-0.7-1-1.2l0.5-3.5c-0.3,0.1-0.7,0.1-1,0.1l-0.6,4.2c-0.1,0.5-0.6,0.8-1.3,0.7
	c-0.6-0.1-1.1-0.7-1-1.2l0.6-4.2c-0.3-0.1-0.6-0.3-0.8-0.4l-0.5,3.6c-0.1,0.5-0.6,0.8-1.3,0.7c-0.6-0.1-1.1-0.7-1-1.2l0.8-6
	c0-0.2,0-0.4,0-0.6l-0.6,1.1c-0.3,0.4-0.9,0.6-1.5,0.3l0,0c-0.6-0.3-0.9-0.9-0.6-1.3"/>
<path class="st26" d="M66.1,176.7c0,0-12.9,9.5-9.1,27.4"/>
<path class="st19" d="M61.5,203.1c-0.9-1.1-2.7-1.6-4.6-1c-2.4,0.7-4,2.9-3.5,4.8l1.1,4.7c0,0,0,0.1,0,0.1c0,0,0,0,0,0.1l1.4,6.3
	c0.1,0.5,0.7,0.7,1.3,0.6c0.6-0.2,1-0.7,0.9-1.2l-0.8-3.4c0.3,0,0.7,0,1,0l0.9,4.1c0.1,0.5,0.7,0.7,1.3,0.6s1-0.7,0.9-1.2l-0.9-4.1
	c0.3-0.2,0.5-0.3,0.8-0.5l0.8,3.5c0.1,0.5,0.7,0.7,1.3,0.6c0.6-0.2,1-0.7,0.9-1.2l-1.3-5.9c0-0.2,0-0.4,0-0.6l0.7,1
	c0.3,0.4,1,0.5,1.6,0.2l0,0c0.6-0.3,0.8-0.9,0.5-1.3"/>
<path class="st15" d="M161.6,139.7c0,31.5-9.5,65.2-54,66.3c-42.2,1.1-54-34.2-54-65.7s24.2-38.9,54-38.9S161.6,108.2,161.6,139.7z"
	/>
<path class="st3" d="M85.1,143.7c0-5.4,4.4-9.8,9.8-9.8c5.4,0,9.8,4.4,9.8,9.8"/>
<path class="st3" d="M113.7,143.7c0-5.4,4.4-9.8,9.8-9.8c5.4,0,9.8,4.4,9.8,9.8"/>
<path class="st27" d="M87.4,129.5c0,0,3.1-6.2,9.8-2.6"/>
<path class="st27" d="M131.4,129.5c0,0-2.2-6.4-9-2.7"/>
<path class="st16" d="M90.1,143.7c0-2.4,1.9-4.3,4.3-4.3s4.3,1.9,4.3,4.3"/>
<path class="st16" d="M119.7,143.7c0-2.4,1.9-4.3,4.3-4.3s4.3,1.9,4.3,4.3"/>
<path class="st16" d="M122.3,152.6c0,0-2.4,7.8-14.3,7.5s-12.8-7.5-12.8-7.5H122.3z"/>
<polyline class="st15" points="92.3,204.2 95.7,241.9 99.9,241.9 103.4,204.3 "/>
<polygon class="st28" points="93.7,219.6 101.9,219.6 100.1,241.8 95.5,241.8 "/>
<path class="st10" d="M84,241.9c0-4.5,3.6-8.1,8.1-8.1c4.5,0,8.1,3.6,8.1,8.1"/>
<polyline class="st15" points="122,204.2 118.5,241.9 114.4,241.9 110.9,204.3 "/>
<polygon class="st28" points="120.6,219.6 112.4,219.6 114.2,241.8 118.8,241.8 "/>
<path class="st10" d="M130.3,241.9c0-4.5-3.6-8.1-8.1-8.1c-4.5,0-8.1,3.6-8.1,8.1"/>
<path class="st30" d="M265.4,168.4c0,0,10.3,5.4,8.6,25.6"/>
<path class="st30" d="M179.8,169.1c0,0-10.5,7.2-6.6,26.3"/>
<path class="st19" d="M178,195.5c-0.7-1.2-2.4-1.8-4.2-1.5c-2.3,0.4-4.1,2.2-3.9,4l0.4,4.5c0,0,0,0.1,0,0.1c0,0,0,0,0,0l0.6,6.1
	c0,0.5,0.6,0.8,1.2,0.7c0.6-0.1,1.1-0.6,1-1.1l-0.3-3.3c0.3,0.1,0.6,0.1,0.9,0.1l0.4,4c0,0.5,0.6,0.8,1.2,0.7c0.6-0.1,1.1-0.6,1-1.1
	l-0.4-4c0.3-0.1,0.5-0.2,0.8-0.4l0.3,3.4c0,0.5,0.6,0.8,1.2,0.7c0.6-0.1,1.1-0.6,1-1.1l-0.6-5.7c0-0.2,0-0.4,0-0.6l0.5,1
	c0.2,0.4,0.9,0.6,1.4,0.3h0c0.6-0.2,0.8-0.8,0.6-1.2"/>
<path class="st19" d="M270.2,192.8c0.7-1.2,2.3-1.9,4.1-1.7c2.3,0.3,4.2,2,4.1,3.8l-0.2,4.5c0,0,0,0.1,0,0.1c0,0,0,0,0,0l-0.3,6.1
	c0,0.5-0.5,0.8-1.2,0.7s-1.1-0.5-1.1-1l0.2-3.3c-0.3,0.1-0.6,0.1-0.9,0.2l-0.2,4c0,0.5-0.5,0.8-1.2,0.7c-0.6-0.1-1.1-0.5-1.1-1
	l0.2-4c-0.3-0.1-0.6-0.2-0.8-0.3l-0.2,3.4c0,0.5-0.5,0.8-1.2,0.7c-0.6-0.1-1.1-0.5-1.1-1l0.3-5.7c0-0.2-0.1-0.4-0.1-0.6l-0.5,1
	c-0.2,0.4-0.8,0.6-1.4,0.4l0,0c-0.6-0.2-0.9-0.7-0.7-1.2"/>
<path class="st15" d="M267.6,136.8c0-0.4,0-0.8,0-1.1c0-27.3-19.7-49.4-44.1-49.4s-44.1,22.1-44.1,49.4c0,0.4,0,0.8,0,1.1
	c-0.3,1.8-0.4,3.7-0.4,5.6v23.1c0,19,16.8,36.4,33.7,36.4h23.9c16.8,0,31.3-17.4,31.3-36.4v-23.1C268,140.5,267.8,138.6,267.6,136.8
	z"/>
<polyline class="st15" points="226.9,199.4 231.1,240.4 234.8,240.4 239,199.3 "/>
<polyline class="st15" points="206.8,199.2 212.1,240.4 215.8,240.4 219.9,199.4 "/>
<polygon class="st31" points="234.9,239.6 230.3,240.7 228.2,212.9 237.7,212.9 "/>
<polygon class="st31" points="216.4,239.3 211.7,237.5 208.7,212.9 218.6,212.9 "/>
<path class="st10" d="M216.9,241.3c0-4.2-3.4-7.7-7.7-7.7s-7.7,3.4-7.7,7.7"/>
<path class="st10" d="M245.5,241.3c0-4.2-3.4-7.7-7.7-7.7c-4.2,0-7.7,3.4-7.7,7.7"/>
<path class="st32" d="M201.4,117.2c0,0,3.2-6.5,10.3-2.7"/>
<path class="st32" d="M243.6,117.2c0,0-2.4-6.6-9.4-2.8"/>
<path class="st16" d="M234.7,136.7c0,0-2,6.4-11.8,6.2s-10.6-6.2-10.6-6.2H234.7z"/>
<path class="st3" d="M227.7,128.8c0-4.5,3.9-8.1,8.6-8.1s8.6,3.6,8.6,8.1"/>
<path class="st16" d="M232.6,128.8c0-2.1,1.7-3.7,3.7-3.7c2.1,0,3.7,1.7,3.7,3.7"/>
<path class="st3" d="M202.1,128.8c0-4.5,3.9-8.1,8.7-8.1s8.7,3.6,8.7,8.1"/>
<path class="st16" d="M207,128.8c0-2.1,1.7-3.7,3.7-3.7s3.7,1.7,3.7,3.7"/>
<g>
	<path class="st16" d="M203,124.7l-4.6-1.8l4.1,3.2c-0.1,0.2-0.1,0.4-0.1,0.5l-4-0.5l3.8,1.6c0,0.5,0,0.8,0,0.8
		c2.1-6.8,6.4-7.7,7.7-7.8C205.9,120.9,203.9,122.8,203,124.7z"/>
	<path class="st16" d="M209.8,120.7c0.1,0,0.2,0,0.3,0C210.1,120.7,210,120.7,209.8,120.7z"/>
</g>
<g>
	<path class="st16" d="M248.7,126.1l-4,0.5c0-0.2-0.1-0.3-0.1-0.5l4.1-3.2l-4.6,1.8c-0.9-1.9-2.9-3.8-6.8-4c1.2,0.1,5.5,1,7.7,7.8
		c0,0,0-0.3,0-0.8L248.7,126.1z"/>
	<path class="st16" d="M237.2,120.7c-0.2,0-0.3,0-0.3,0C237,120.7,237.1,120.7,237.2,120.7z"/>
</g>
</svg>
