<?xml version="1.0" encoding="utf-8"?>
<!-- Generator: Adobe Illustrator 25.2.1, SVG Export Plug-In . SVG Version: 6.00 Build 0)  -->
<svg version="1.1" id="Layer_1" xmlns="http://www.w3.org/2000/svg" xmlns:xlink="http://www.w3.org/1999/xlink" x="0px" y="0px"
	 viewBox="0 0 336.8 241.7" style="enable-background:new 0 0 336.8 241.7;" xml:space="preserve">
<style type="text/css">
	.st0{fill:none;stroke:#0A8AB2;stroke-width:3.5395;stroke-linecap:round;stroke-miterlimit:10;}
	.st1{fill:#A1CBEC;}
	.st2{fill:#00A0CC;}
	.st3{fill:#FFFFFF;}
	.st4{fill:#0D3F60;}
	.st5{fill:none;stroke:#0D3F60;stroke-width:1.135;stroke-linecap:round;stroke-miterlimit:10;}
	.st6{fill:none;stroke:#108AB2;stroke-width:5.1557;stroke-linecap:round;stroke-miterlimit:10;}
	.st7{fill:none;stroke:#108AB2;stroke-width:5.5102;stroke-linecap:round;stroke-miterlimit:10;}
	.st8{fill:none;stroke:#00A0CC;stroke-width:5.5102;stroke-linecap:round;stroke-miterlimit:10;}
	.st9{fill:#56C4CF;}
	.st10{fill:#4F4A47;}
	.st11{fill:none;stroke:#0D3F60;stroke-width:2.2041;stroke-linecap:round;stroke-miterlimit:10;}
	.st12{fill:#EC1651;}
	.st13{fill:none;stroke:#0D3F60;stroke-width:2.0753;stroke-linecap:round;stroke-miterlimit:10;}
	.st14{fill:none;stroke:#1689B0;stroke-width:4.3972;stroke-linecap:round;stroke-miterlimit:10;}
	.st15{fill:#049FCB;}
	.st16{fill:#0B4060;}
	.st17{fill:#FFCA05;}
	.st18{fill:none;stroke:#221F1F;stroke-width:1.6489;stroke-linecap:round;stroke-miterlimit:10;}
	.st19{fill:#A0CAEB;}
	.st20{fill:none;stroke:#049FCB;stroke-width:5.5739;stroke-linecap:round;stroke-miterlimit:10;}
	.st21{fill:none;stroke:#0B4060;stroke-width:2.1986;stroke-linecap:round;stroke-miterlimit:10;}
	.st22{fill:none;stroke:#049FCB;stroke-width:6.0573;stroke-linecap:round;stroke-miterlimit:10;}
	.st23{fill:none;stroke:#1689B0;stroke-width:4.1746;stroke-linecap:round;stroke-miterlimit:10;}
	.st24{fill:none;stroke:#0B4060;stroke-width:2.4377;stroke-linecap:round;stroke-miterlimit:10;}
	.st25{fill:#5753A2;}
	.st26{fill:none;stroke:#1689B0;stroke-width:3.299;stroke-linecap:round;stroke-miterlimit:10;}
	.st27{fill:none;stroke:#0B4060;stroke-width:1.9264;stroke-linecap:round;stroke-miterlimit:10;}
	.st28{fill:#E91C52;}
	.st29{fill:none;stroke:#353230;stroke-width:3.8528;stroke-linecap:round;stroke-miterlimit:10;}
	.st30{fill:none;stroke:#1689B0;stroke-width:3.5102;stroke-linecap:round;stroke-miterlimit:10;}
	.st31{fill:#56C3CE;}
	.st32{fill:none;stroke:#0B4060;stroke-width:1.6781;stroke-linecap:round;stroke-miterlimit:10;}
</style>
<path class="st14" d="M131.9,149.4c0,0,13.7,4.7,15.5,30.1"/>
<path class="st14" d="M58.1,150.4c0,0-14.6,6.2-14.6,30.7"/>
<path class="st15" d="M101.2,194.5H90.1c-31.5,0-36.9-24.2-36.9-44.6V85.5c0-22.5,18.3-40.8,40.8-40.8h3.3
	c22.5,0,40.8,18.3,40.8,40.8V150C138.1,170.3,131.7,194.5,101.2,194.5z"/>
<path class="st16" d="M105.8,109.4c0,0-2,6.3-11.6,6.1s-10.4-6.1-10.4-6.1H105.8z"/>
<path class="st3" d="M65.5,98.3c0-5.3,4.3-9.7,9.7-9.7c5.3,0,9.7,4.3,9.7,9.7"/>
<path class="st3" d="M106,98.3c0-5.3,4.3-9.7,9.7-9.7c5.3,0,9.7,4.3,9.7,9.7"/>
<path class="st16" d="M70.7,98.3c0-2.3,1.9-4.2,4.2-4.2s4.2,1.9,4.2,4.2"/>
<path class="st16" d="M111.2,98.3c0-2.3,1.9-4.2,4.2-4.2s4.2,1.9,4.2,4.2"/>
<polyline class="st15" points="100.7,180.1 105,234.2 110.2,234.2 114.7,173.4 "/>
<polyline class="st15" points="75.1,179.9 79.4,234.2 84.5,234.2 88.8,180.1 "/>
<polygon class="st17" points="84.5,241 79.7,241 77.1,211.3 86.4,211.3 "/>
<polygon class="st17" points="109.8,241 105,241 103,211.3 112.4,211.3 "/>
<path class="st10" d="M67.3,241.3c0-4.8,3.9-8.7,8.7-8.7s8.7,3.9,8.7,8.7"/>
<path class="st10" d="M105.1,241.3c0-4.8,3.9-8.7,8.7-8.7s8.7,3.9,8.7,8.7"/>
<circle class="st18" cx="72.7" cy="93.1" r="16.8"/>
<circle class="st18" cx="117.9" cy="93.1" r="16.8"/>
<path class="st18" d="M89.5,91.1c0,0,5.5-7.6,11,0"/>
<path class="st19" d="M50.1,181.1c-0.7-1.8-2.7-3.2-5.4-3.3c-3.3-0.1-6.3,1.9-6.5,4.5l-0.7,6.3c0,0,0,0.1,0,0.1c0,0,0,0,0,0.1
	l-0.9,8.6c-0.1,0.7,0.6,1.2,1.5,1.3c0.9,0,1.6-0.5,1.7-1.2l0.5-4.7c0.4,0.2,0.8,0.3,1.3,0.4l-0.6,5.6c-0.1,0.7,0.6,1.2,1.5,1.3
	c0.9,0,1.6-0.5,1.7-1.2l0.6-5.6c0.4-0.1,0.8-0.2,1.2-0.3l-0.5,4.8c-0.1,0.7,0.6,1.2,1.5,1.3c0.9,0,1.6-0.5,1.7-1.2l0.8-8
	c0.1-0.3,0.2-0.5,0.2-0.8l0.4,1.6c0.2,0.7,1,1,1.9,0.9h0c0.9-0.2,1.4-0.8,1.2-1.5"/>
<path class="st19" d="M141.2,179.4c0.6-1.8,2.6-3.3,5.3-3.4c3.3-0.2,6.3,1.7,6.6,4.3l0.8,6.3c0,0,0,0.1,0,0.1c0,0,0,0,0,0.1l1.1,8.5
	c0.1,0.7-0.5,1.3-1.4,1.3c-0.9,0.1-1.6-0.4-1.7-1.1l-0.6-4.6c-0.4,0.2-0.8,0.4-1.2,0.5l0.7,5.6c0.1,0.7-0.5,1.3-1.4,1.3
	c-0.9,0.1-1.6-0.4-1.7-1.1l-0.7-5.6c-0.4-0.1-0.8-0.2-1.2-0.3l0.6,4.8c0.1,0.7-0.5,1.3-1.4,1.3c-0.9,0.1-1.6-0.4-1.7-1.1l-1.1-8
	c-0.1-0.2-0.2-0.5-0.2-0.8l-0.4,1.6c-0.2,0.7-1,1.1-1.9,0.9h0c-0.9-0.1-1.4-0.8-1.3-1.5"/>
<line class="st21" x1="65.3" y1="85.6" x2="79.2" y2="83.1"/>
<path class="st21" d="M125.9,85.7c0,0-10.2-3.2-12.7-2.9"/>
<path class="st23" d="M288.5,154.2c0,0,16.3,12.1,11.3,34.8"/>
<path class="st19" d="M294.2,187.8c1-1.6,3.2-2.4,5.7-1.9c3.1,0.6,5.4,3.1,5.1,5.5l-0.8,6c0,0,0,0.1,0,0.1c0,0,0,0,0,0.1l-1,8.1
	c-0.1,0.6-0.8,1-1.6,0.9c-0.8-0.2-1.4-0.8-1.3-1.4l0.6-4.4c-0.4,0.1-0.8,0.1-1.3,0.1l-0.7,5.3c-0.1,0.6-0.8,1-1.6,0.9
	c-0.8-0.2-1.4-0.8-1.3-1.4l0.7-5.3c-0.4-0.2-0.7-0.3-1.1-0.5l-0.6,4.5c-0.1,0.6-0.8,1-1.6,0.9s-1.4-0.8-1.3-1.4l0.9-7.6
	c0-0.3,0-0.5,0-0.8l-0.7,1.3c-0.3,0.6-1.2,0.7-1.9,0.4h0c-0.8-0.3-1.1-1.1-0.8-1.6"/>
<path class="st23" d="M180.9,152.2c0,0-17.4,10.5-14.6,33.5"/>
<ellipse class="st15" cx="233.4" cy="133.6" rx="67.8" ry="67.3"/>
<path class="st24" d="M201.6,104.7c0,0,4.7-9.5,14.9-3.9"/>
<path class="st24" d="M262.9,104.7c0,0-3.4-9.7-13.7-4.1"/>
<path class="st16" d="M249.9,133c0,0-2.9,9.3-17.1,9s-15.3-9-15.3-9H249.9z"/>
<polyline class="st15" points="215.1,192.3 219.2,241.5 223.1,241.5 228.3,192.5 "/>
<polyline class="st15" points="238.3,192.3 243.5,241.5 247.4,241.5 251.5,192.5 "/>
<path class="st19" d="M172.1,184.9c-1-1.5-3.2-2.3-5.7-1.8c-3.1,0.6-5.3,3.2-5,5.6l0.8,6c0,0,0,0.1,0,0.1c0,0,0,0,0,0.1l1.1,8.1
	c0.1,0.6,0.8,1,1.6,0.9s1.4-0.8,1.3-1.5l-0.6-4.4c0.4,0.1,0.8,0.1,1.3,0.1l0.7,5.3c0.1,0.6,0.8,1,1.6,0.9c0.8-0.2,1.4-0.8,1.3-1.5
	l-0.7-5.3c0.4-0.2,0.7-0.3,1-0.6l0.6,4.5c0.1,0.6,0.8,1,1.6,0.9c0.8-0.2,1.4-0.8,1.3-1.5l-1-7.6c0-0.3,0-0.5,0-0.8l0.8,1.3
	c0.3,0.6,1.2,0.7,1.9,0.4h0c0.7-0.3,1.1-1.1,0.8-1.6"/>
<polygon class="st25" points="247.4,241.1 243,240.1 240.4,211.1 249.9,211.1 "/>
<polygon class="st25" points="223.9,241.1 219.1,240 216.7,211.1 226.5,211.1 "/>
<path class="st10" d="M224,241.5c0-4.1-3.7-7.5-8.2-7.5c-4.5,0-8.2,3.3-8.2,7.5"/>
<path class="st10" d="M258.8,241.5c0-4.1-3.7-7.5-8.2-7.5s-8.2,3.3-8.2,7.5"/>
<path class="st3" d="M239.8,121.6c0-6.2,5.6-11.3,12.5-11.3c6.9,0,12.5,5,12.5,11.3"/>
<path class="st16" d="M246.9,121.6c0-3,2.4-5.4,5.4-5.4c3,0,5.4,2.4,5.4,5.4"/>
<path class="st3" d="M202.6,121.6c0-6.2,5.6-11.3,12.6-11.3c6.9,0,12.6,5,12.6,11.3"/>
<path class="st16" d="M209.7,121.6c0-3,2.4-5.4,5.4-5.4s5.4,2.4,5.4,5.4"/>
<g>
	<path class="st16" d="M203.6,116.1l-6.1-2.5l5.5,4.6c-0.1,0.3-0.1,0.5-0.2,0.8l-5.3-0.6l5.1,2.2c0,0.7,0,1.2,0,1.2
		c2.6-9.9,8.7-11,10.3-11.2C207.7,110.8,204.7,113.3,203.6,116.1z"/>
	<path class="st16" d="M269.9,117.9l-5.2,0.8c-0.1-0.2-0.1-0.5-0.2-0.8l5.3-4.8l-6,2.8c-1.3-2.8-4.8-5.5-9.9-5.5
		c1.6,0.1,8.2,1.3,11.2,11.1c0,0,0-0.5-0.1-1.2L269.9,117.9z"/>
</g>
</svg>
