<svg id="Layer_1" data-name="Layer 1" xmlns="http://www.w3.org/2000/svg" viewBox="0 0 348 282.35"><defs><style>.cls-1{fill:#f8d979;}.cls-2{fill:#ffcb05;}.cls-3{fill:#faad1c;}.cls-4{fill:#e59525;}.cls-11,.cls-17,.cls-18,.cls-5,.cls-9{fill:none;stroke-linecap:round;stroke-miterlimit:10;}.cls-5{stroke:#138ab2;stroke-width:6.38px;}.cls-6{fill:#a1cbec;}.cls-7{fill:#0aa0cc;}.cls-8{fill:#fff;}.cls-9{stroke:#0d4061;stroke-width:2.1px;}.cls-10{fill:#0d4061;}.cls-11{stroke:#231f20;stroke-width:1.26px;}.cls-12{fill:#5754a3;}.cls-13{fill:#504b48;}.cls-14{fill:#049fcb;}.cls-15{fill:#57c4cf;}.cls-16{fill:#0b4161;}.cls-17{stroke:#0b4161;stroke-width:2.4px;}.cls-18{stroke:#198ab1;stroke-width:4.53px;}</style></defs><polyline class="cls-1" points="0 282.35 0 0.06 348 0.06 348 282.35"/><polyline class="cls-2" points="348 282.45 0 282.45 0 254.43 348 254.43"/><polyline class="cls-3" points="124.55 266.32 116.48 266.32 116.48 231.78 51.97 231.78 51.97 266.32 43.8 266.32 43.8 228.57 43.89 228.57 43.89 221.18 124.55 221.18 124.55 228.67"/><path class="cls-4" d="M43.21,204.73h82.51a5.65,5.65,0,0,1,5.64,5.65v7.39a5.65,5.65,0,0,1-5.64,5.64H43.21a5.65,5.65,0,0,1-5.64-5.64v-7.3A5.73,5.73,0,0,1,43.21,204.73Z"/><polyline class="cls-3" points="311.59 266.29 303.52 266.29 303.52 231.75 239.01 231.75 239.01 266.29 230.84 266.29 230.84 228.54 230.93 228.54 230.93 221.15 311.59 221.15 311.59 228.64"/><path class="cls-4" d="M230.25,204.7h82.51a5.65,5.65,0,0,1,5.64,5.65v7.39a5.65,5.65,0,0,1-5.64,5.65H230.25a5.65,5.65,0,0,1-5.64-5.65v-7.3A5.73,5.73,0,0,1,230.25,204.7Z"/><path class="cls-5" d="M257.42,134.33s-21.9,5.72-34.15,1.35-21.58-19.79-21.58-19.79"/><path class="cls-6" d="M207.9,113.71a6.2,6.2,0,0,1-1.66,6.7c-2.46,2.36-6.21,2.46-8.33.24l-5.23-5.47a1.13,1.13,0,0,1-.1-.13l-.07,0-7.06-7.39a1.63,1.63,0,0,1,2.35-2.24l3.84,4a6.3,6.3,0,0,1,.64-1.27l-4.61-4.83a1.63,1.63,0,0,1,2.34-2.24l4.61,4.83a6.38,6.38,0,0,1,1.16-.53l-4-4.14A1.63,1.63,0,0,1,194.16,99l6.6,6.91a5.1,5.1,0,0,1,.73.59l-.81-1.75a1.66,1.66,0,0,1,.79-2.1h0a1.45,1.45,0,0,1,2,.58"/><rect class="cls-7" x="213.33" y="21.26" width="99.08" height="190.58" rx="35.26" transform="translate(533.14 214.76) rotate(176.06)"/><path class="cls-8" d="M265.69,71.19a9.82,9.82,0,1,0-19.59,1.35"/><path class="cls-8" d="M230.93,73.59a9.81,9.81,0,1,0-19.58,1.35"/><line class="cls-9" x1="262.92" y1="57.74" x2="244.65" y2="53.68"/><line class="cls-9" x1="211.64" y1="62.08" x2="225.93" y2="54.23"/><path class="cls-10" d="M257,71.79a4.24,4.24,0,1,0-8.47.58"/><path class="cls-10" d="M222.28,74.18a4.25,4.25,0,1,0-8.47.59"/><ellipse class="cls-11" cx="256.81" cy="69.2" rx="13.34" ry="9.07" transform="translate(-3.59 15.05) rotate(-3.33)"/><ellipse class="cls-11" cx="220.38" cy="71.37" rx="13.34" ry="9.07" transform="translate(-3.78 12.94) rotate(-3.33)"/><path class="cls-11" d="M243.54,70.87s-5.8-6.56-10,.68"/><polyline class="cls-7" points="282.42 204.66 261.24 262.82 254 261.09 260.61 206.94"/><polyline class="cls-7" points="252.44 203.97 233.72 255.38 226.49 253.65 233.09 199.5"/><path class="cls-10" d="M252.41,87.59S249.68,79.7,239.34,81s-10.58,9.13-10.58,9.13Z"/><path class="cls-5" d="M294.51,135.69S282.84,159,269.87,160s-27.82-9.1-27.82-9.1"/><path class="cls-6" d="M246.8,146.39a6.21,6.21,0,0,1,1.27,6.79c-1.27,3.16-4.64,4.81-7.49,3.66l-7-2.82-.14-.07-.08,0-9.49-3.82a1.63,1.63,0,0,1,1.21-3l5.16,2.07a6.72,6.72,0,0,1,.06-1.41l-6.19-2.49a1.63,1.63,0,0,1,1.2-3l6.2,2.49a6.42,6.42,0,0,1,.84-1L227,141.66a1.62,1.62,0,0,1,1.2-3l8.87,3.56a4.89,4.89,0,0,1,.91.24l-1.47-1.26a1.65,1.65,0,0,1-.14-2.23h0a1.44,1.44,0,0,1,2.09-.33"/><polygon class="cls-12" points="252.88 267.13 259.1 268.62 267.37 246.25 256.21 243.57 252.88 267.13"/><path class="cls-13" d="M237.9,263.71a11.06,11.06,0,1,1,21.55,5"/><polygon class="cls-12" points="224.94 260.82 231.16 262.32 239.43 239.94 228.55 237.33 224.94 260.82"/><path class="cls-13" d="M210.74,257.7a11.06,11.06,0,0,1,21.59,4.79"/><polyline class="cls-14" points="96.32 205.25 115.83 252.22 111.59 254.5 74.73 206.3"/><polygon class="cls-15" points="114.92 259.98 118.92 257.83 107.57 232.34 98.83 237.82 114.92 259.98"/><path class="cls-13" d="M128.75,255.56a8.1,8.1,0,0,0-15.51,4.7"/><polyline class="cls-14" points="114.2 194.34 133.71 241.31 129.47 243.59 92.61 195.38"/><polygon class="cls-15" points="132.79 249.07 136.8 246.92 125.45 221.42 116.71 226.91 132.79 249.07"/><path class="cls-13" d="M146.75,241.85a8.1,8.1,0,0,0-14.27,7.67"/><path class="cls-7" d="M26.21,121C25,148.57,38.67,175.93,57,195.83c47.26,51.29,105.31-17.32,107.63-71.1C166.34,85,132.75,74,98.72,72.48S27.92,81.35,26.21,121Z"/><path class="cls-16" d="M143.48,136.66s-1.15-8.88-11.71-8.67-11.39,8.67-11.39,8.67Z"/><path class="cls-8" d="M158.68,123.24a10.57,10.57,0,0,0-21.14,0"/><path class="cls-8" d="M126.39,123.24a10.58,10.58,0,0,0-21.15,0"/><line class="cls-17" x1="158.71" y1="112.34" x2="144.56" y2="103.78"/><line class="cls-17" x1="102.74" y1="111.47" x2="120.38" y2="103.56"/><path class="cls-16" d="M116,112.67c-.35,0-.69,0-1,0a7.12,7.12,0,0,0,10.91,6.79A10.56,10.56,0,0,0,116,112.67Z"/><path class="cls-16" d="M148.24,112.67c-.34,0-.69,0-1,0a7.11,7.11,0,0,0,10.9,6.79A10.56,10.56,0,0,0,148.24,112.67Z"/><path class="cls-18" d="M77.65,172.83s30.67,8.19,41.18-22.3"/><path class="cls-6" d="M112.79,149.53c-.28,2,1,4.23,3.33,5.55,3,1.67,6.62,1.22,8.08-1l3.61-5.48.06-.12,0-.06,4.87-7.41a1.37,1.37,0,0,0-.73-1.85,1.61,1.61,0,0,0-2.11.26l-2.65,4a6.8,6.8,0,0,0-.94-1l3.18-4.84a1.37,1.37,0,0,0-.73-1.85,1.61,1.61,0,0,0-2.11.26l-3.18,4.84a6.86,6.86,0,0,0-1.25-.29l2.73-4.15a1.38,1.38,0,0,0-.73-1.86,1.61,1.61,0,0,0-2.11.27l-4.55,6.92a4.13,4.13,0,0,0-.55.62l.33-1.63a1.64,1.64,0,0,0-1.3-1.7h0a1.34,1.34,0,0,0-1.81.79"/><path class="cls-18" d="M146.34,150.17s5,16.51,7.48,23.87"/><path class="cls-6" d="M152.86,151.29c-.31,2-2.16,3.77-4.78,4.37-3.33.75-6.69-.71-7.46-3.26l-1.9-6.28,0-.14,0-.06-2.56-8.49c-.2-.66.35-1.37,1.22-1.57a1.62,1.62,0,0,1,2,.85l1.4,4.62a6.77,6.77,0,0,1,1.18-.69l-1.67-5.54c-.2-.66.35-1.37,1.22-1.57a1.62,1.62,0,0,1,1.95.85l1.67,5.54a7.84,7.84,0,0,1,1.29.08l-1.44-4.76c-.2-.66.35-1.37,1.22-1.57a1.63,1.63,0,0,1,1.95.85l2.4,7.93a4.26,4.26,0,0,1,.35.75l.14-1.65a1.66,1.66,0,0,1,1.74-1.26h0c.89,0,1.57.58,1.51,1.27"/></svg>