<svg id="Layer_1" data-name="Layer 1" xmlns="http://www.w3.org/2000/svg" viewBox="0 0 348 282.35"><defs><style>.cls-1{fill:#f8d979;}.cls-10,.cls-12,.cls-18,.cls-2,.cls-7{fill:none;stroke-linecap:round;stroke-miterlimit:10;}.cls-2{stroke:#198ab1;stroke-width:4.53px;}.cls-3{fill:#a1cbec;}.cls-4{fill:#ffcb05;}.cls-5{fill:#faad1c;}.cls-6{fill:#e59525;}.cls-7{stroke:#138ab2;stroke-width:6.38px;}.cls-8{fill:#0aa0cc;}.cls-9{fill:#fff;}.cls-10{stroke:#0d4061;stroke-width:2.1px;}.cls-11{fill:#0d4061;}.cls-12{stroke:#231f20;stroke-width:1.26px;}.cls-13{fill:#5754a3;}.cls-14{fill:#504b48;}.cls-15{fill:#049fcb;}.cls-16{fill:#57c4cf;}.cls-17{fill:#0b4161;}.cls-18{stroke:#0b4161;stroke-width:2.4px;}</style></defs><polyline class="cls-1" points="0.11 282.42 0.11 0.13 348.11 0.13 348.11 282.42"/><path class="cls-2" d="M153,163.38s23.66-2.56,27.43-38"/><path class="cls-3" d="M175.9,126.71c.47,2,2.46,3.59,5.12,4,3.38.48,6.61-1.26,7.17-3.86l1.37-6.42s0-.09,0-.14,0,0,0-.06l1.85-8.67c.15-.68-.46-1.34-1.34-1.47a1.63,1.63,0,0,0-1.88,1l-1,4.72a7.08,7.08,0,0,0-1.24-.59l1.21-5.66c.14-.68-.46-1.34-1.35-1.46a1.6,1.6,0,0,0-1.87,1l-1.21,5.66a7.59,7.59,0,0,0-1.28.18l1-4.86c.15-.68-.46-1.34-1.34-1.46a1.62,1.62,0,0,0-1.88,1l-1.73,8.1a4.49,4.49,0,0,0-.29.77l-.28-1.63a1.63,1.63,0,0,0-1.83-1.11h0c-.89.08-1.52.71-1.4,1.39"/><polyline class="cls-4" points="348.11 282.11 0.11 282.11 0.11 254.08 348.11 254.08"/><polyline class="cls-5" points="128.44 266.98 120.37 266.98 120.37 232.44 55.86 232.44 55.86 266.98 47.69 266.98 47.69 229.23 47.78 229.23 47.78 221.84 128.44 221.84 128.44 229.33"/><path class="cls-6" d="M47.1,205.39h82.51a5.65,5.65,0,0,1,5.64,5.65v7.39a5.65,5.65,0,0,1-5.64,5.65H47.1a5.65,5.65,0,0,1-5.64-5.65v-7.3A5.73,5.73,0,0,1,47.1,205.39Z"/><polyline class="cls-5" points="305.48 266.96 297.41 266.96 297.41 232.41 232.9 232.41 232.9 266.96 224.72 266.96 224.72 229.2 224.82 229.2 224.82 221.81 305.48 221.81 305.48 229.3"/><path class="cls-6" d="M224.14,205.37h82.51a5.65,5.65,0,0,1,5.64,5.64v7.39a5.65,5.65,0,0,1-5.64,5.65H224.14a5.65,5.65,0,0,1-5.64-5.65v-7.29A5.73,5.73,0,0,1,224.14,205.37Z"/><path class="cls-7" d="M229.44,116.89s-.83,22.62-8.54,33.09-25.16,15-25.16,15"/><path class="cls-3" d="M195.44,158.37a6.21,6.21,0,0,1,5.94,3.52c1.55,3,.57,6.66-2.16,8.05l-6.76,3.43-.14.06-.07,0-9.12,4.63a1.63,1.63,0,0,1-1.47-2.89l5-2.52a6.3,6.3,0,0,1-1-1l-5.95,3a1.62,1.62,0,0,1-1.47-2.88l5.95-3a6.06,6.06,0,0,1-.17-1.26l-5.12,2.6a1.63,1.63,0,0,1-1.46-2.89L185.9,163a4.57,4.57,0,0,1,.77-.53l-1.91.28a1.67,1.67,0,0,1-1.78-1.37h0a1.44,1.44,0,0,1,1.14-1.78"/><rect class="cls-8" x="207.22" y="21.92" width="99.08" height="190.58" rx="35.26" transform="translate(520.97 216.51) rotate(176.06)"/><path class="cls-9" d="M259.58,71.85A9.82,9.82,0,0,0,240,73.2"/><path class="cls-9" d="M224.82,74.25a9.81,9.81,0,1,0-19.58,1.35"/><line class="cls-10" x1="256.8" y1="58.46" x2="238.55" y2="54.28"/><line class="cls-10" x1="205.19" y1="62.04" x2="220.16" y2="55.59"/><path class="cls-11" d="M250.93,72.45a4.24,4.24,0,0,0-8.47.58"/><path class="cls-11" d="M216.17,74.84a4.25,4.25,0,1,0-8.47.59"/><ellipse class="cls-12" cx="250.7" cy="69.86" rx="13.34" ry="9.07" transform="translate(-3.64 14.7) rotate(-3.33)"/><ellipse class="cls-12" cx="214.27" cy="72.03" rx="13.34" ry="9.07" transform="translate(-3.83 12.58) rotate(-3.33)"/><path class="cls-12" d="M237.43,71.53s-5.8-6.56-10,.68"/><polyline class="cls-8" points="276.31 205.32 255.13 263.48 247.89 261.75 254.5 207.6"/><polyline class="cls-8" points="246.34 204.63 227.61 256.05 220.38 254.31 226.98 200.16"/><path class="cls-11" d="M246.3,88.26s-2.73-7.9-13.07-6.61-10.58,9.12-10.58,9.12Z"/><path class="cls-7" d="M287.7,139.2S261.94,143,253.63,133s-8.48-28-8.48-28"/><path class="cls-3" d="M251.6,106.23a6.22,6.22,0,0,1-4.84,4.93c-3.32.76-6.6-1-7.29-4l-1.71-7.38a.9.9,0,0,1,0-.16l0-.08-2.31-10a1.63,1.63,0,0,1,3.16-.73l1.26,5.42a6.34,6.34,0,0,1,1.19-.76L239.49,87a1.63,1.63,0,0,1,3.16-.73l1.5,6.5a7.48,7.48,0,0,1,1.27.14l-1.29-5.58a1.63,1.63,0,0,1,3.15-.74l2.16,9.32a4.85,4.85,0,0,1,.33.88l.19-1.93a1.67,1.67,0,0,1,1.75-1.4h0A1.45,1.45,0,0,1,253.17,95"/><polygon class="cls-13" points="246.76 267.79 252.99 269.29 261.26 246.91 250.09 244.23 246.76 267.79"/><path class="cls-14" d="M231.79,264.37a11.06,11.06,0,0,1,21.55,5"/><polygon class="cls-13" points="218.82 261.49 225.05 262.98 233.32 240.6 222.44 237.99 218.82 261.49"/><path class="cls-14" d="M204.63,258.36a11.06,11.06,0,0,1,21.59,4.79"/><polyline class="cls-15" points="102.6 206.16 122.12 253.14 117.87 255.42 81.01 207.21"/><polygon class="cls-16" points="121.2 260.9 125.21 258.75 113.86 233.25 105.12 238.74 121.2 260.9"/><path class="cls-14" d="M135,256.47a8.1,8.1,0,0,0-15.51,4.7"/><polyline class="cls-15" points="120.48 195.25 140 242.22 135.75 244.5 98.89 196.3"/><polygon class="cls-16" points="139.08 249.98 143.08 247.83 131.74 222.34 123 227.82 139.08 249.98"/><path class="cls-14" d="M153,242.77a8.1,8.1,0,0,0-14.27,7.67"/><path class="cls-8" d="M32.49,122C31.31,149.49,45,176.85,63.28,196.74c47.27,51.29,105.31-17.32,107.63-71.09C172.62,86,139,74.86,105,73.4S34.21,82.27,32.49,122Z"/><path class="cls-17" d="M149.76,137.58s-1.14-8.89-11.7-8.68-11.39,8.68-11.39,8.68Z"/><path class="cls-9" d="M165,124.15a10.58,10.58,0,0,0-21.15,0"/><path class="cls-9" d="M132.67,124.15a10.57,10.57,0,1,0-21.14,0"/><line class="cls-18" x1="165" y1="113.25" x2="150.84" y2="104.7"/><line class="cls-18" x1="109.02" y1="112.38" x2="126.66" y2="104.48"/><path class="cls-17" d="M122.26,113.58c-.34,0-.68,0-1,0a7.11,7.11,0,0,0,10.9,6.79A10.55,10.55,0,0,0,122.26,113.58Z"/><path class="cls-17" d="M154.53,113.58c-.35,0-.69,0-1,0a7.12,7.12,0,0,0,10.91,6.79A10.57,10.57,0,0,0,154.53,113.58Z"/><path class="cls-2" d="M87.1,164.28s-31.19-5.93-27.43-38"/><path class="cls-3" d="M65.54,128.05c-.61,1.9-2.73,3.38-5.41,3.54-3.41.22-6.49-1.77-6.84-4.4l-.87-6.51c0-.05,0-.09,0-.14a.25.25,0,0,0,0-.07l-1.17-8.78c-.09-.69.56-1.3,1.46-1.36a1.62,1.62,0,0,1,1.79,1.15l.63,4.79a6.64,6.64,0,0,1,1.29-.5L55.62,110c-.09-.69.57-1.3,1.46-1.36a1.62,1.62,0,0,1,1.79,1.16l.76,5.73a7.23,7.23,0,0,1,1.26.29l-.66-4.93c-.09-.69.56-1.3,1.46-1.35a1.62,1.62,0,0,1,1.79,1.15l1.09,8.21a3.75,3.75,0,0,1,.23.79l.41-1.61a1.65,1.65,0,0,1,1.91-1h0c.88.15,1.46.82,1.29,1.5"/></svg>