<svg id="Layer_1" data-name="Layer 1" xmlns="http://www.w3.org/2000/svg" viewBox="0 0 348 282.35"><defs><style>.cls-1{fill:#f8d979;}.cls-10,.cls-12,.cls-18,.cls-2,.cls-4{fill:none;stroke-linecap:round;stroke-miterlimit:10;}.cls-2{stroke:#138ab2;stroke-width:6.38px;}.cls-3{fill:#a1cbec;}.cls-4{stroke:#198ab1;stroke-width:4.53px;}.cls-5{fill:#ffcb05;}.cls-6{fill:#faad1c;}.cls-7{fill:#e59525;}.cls-8{fill:#0aa0cc;}.cls-9{fill:#fff;}.cls-10{stroke:#0d4061;stroke-width:2.1px;}.cls-11{fill:#0d4061;}.cls-12{stroke:#231f20;stroke-width:1.26px;}.cls-13{fill:#5754a3;}.cls-14{fill:#504b48;}.cls-15{fill:#049fcb;}.cls-16{fill:#57c4cf;}.cls-17{fill:#0b4161;}.cls-18{stroke:#0b4161;stroke-width:2.4px;}</style></defs><polyline class="cls-1" points="-0.6 282.32 -0.6 0.03 347.4 0.03 347.4 282.32"/><path class="cls-2" d="M217.48,125.59s-19.06,12.21-32.06,11.85-26.63-12.14-26.63-12.14"/><path class="cls-3" d="M176,121.3a6.21,6.21,0,0,1,.5,6.89c-1.61,3-5.15,4.26-7.85,2.81L162,127.4l-.13-.08-.08,0-9-4.85a1.63,1.63,0,0,1,1.53-2.85l4.91,2.64a6.08,6.08,0,0,1,.21-1.4l-5.88-3.17a1.63,1.63,0,0,1,1.54-2.85L161,118a7.6,7.6,0,0,1,.94-.86l-5.05-2.72a1.63,1.63,0,0,1,1.54-2.85l8.42,4.53a5.41,5.41,0,0,1,.87.34L166.37,115a1.65,1.65,0,0,1,.1-2.24h0a1.44,1.44,0,0,1,2.11-.09"/><path class="cls-4" d="M135.55,161.45s11.44,20.87,45.58,10.76"/><path class="cls-3" d="M178.21,166.56c-1.62,1.18-2.36,3.64-1.69,6.24.86,3.31,3.7,5.63,6.32,5.14l6.45-1.2.14,0h.07l8.71-1.61a1.37,1.37,0,0,0,.84-1.81,1.62,1.62,0,0,0-1.65-1.34l-4.75.88a6.88,6.88,0,0,0,.07-1.37l5.69-1.06a1.36,1.36,0,0,0,.84-1.8,1.61,1.61,0,0,0-1.66-1.34l-5.68,1.05a8.06,8.06,0,0,0-.67-1.1l4.89-.91a1.36,1.36,0,0,0,.84-1.8,1.63,1.63,0,0,0-1.66-1.35l-8.14,1.51a3.85,3.85,0,0,0-.83,0l1.41-.89a1.65,1.65,0,0,0,.32-2.12h0a1.36,1.36,0,0,0-1.83-.76"/><polyline class="cls-5" points="347.4 282.01 -0.6 282.01 -0.6 253.98 347.4 253.98"/><polyline class="cls-6" points="143.73 266.89 135.66 266.89 135.66 232.35 71.15 232.35 71.15 266.89 62.97 266.89 62.97 229.13 63.07 229.13 63.07 221.74 143.73 221.74 143.73 229.23"/><path class="cls-7" d="M62.39,205.3H144.9a5.65,5.65,0,0,1,5.64,5.64v7.39A5.65,5.65,0,0,1,144.9,224H62.39a5.65,5.65,0,0,1-5.64-5.65V211A5.73,5.73,0,0,1,62.39,205.3Z"/><polyline class="cls-6" points="285.77 266.86 277.7 266.86 277.7 232.32 213.19 232.32 213.19 266.86 205.01 266.86 205.01 229.11 205.11 229.11 205.11 221.71 285.77 221.71 285.77 229.2"/><path class="cls-7" d="M204.43,205.27h82.51a5.65,5.65,0,0,1,5.64,5.64v7.4a5.65,5.65,0,0,1-5.64,5.64H204.43a5.65,5.65,0,0,1-5.64-5.64V211A5.73,5.73,0,0,1,204.43,205.27Z"/><rect class="cls-8" x="187.48" y="20.99" width="99.08" height="190.58" rx="35.26" transform="translate(487.75 198.96) rotate(172.12)"/><path class="cls-9" d="M236.71,70.84a9.81,9.81,0,1,0-19.44,2.69"/><path class="cls-9" d="M202.2,75.61a9.81,9.81,0,0,0-19.44,2.69"/><line class="cls-10" x1="233.12" y1="55.78" x2="214.42" y2="56.64"/><line class="cls-10" x1="181.15" y1="63.14" x2="196.9" y2="58.95"/><path class="cls-11" d="M228.13,72a4.25,4.25,0,1,0-8.41,1.17"/><path class="cls-11" d="M193.62,76.8A4.25,4.25,0,0,0,185.2,78"/><ellipse class="cls-12" cx="227.72" cy="69.45" rx="13.34" ry="9.07" transform="translate(-6.96 29.39) rotate(-7.27)"/><ellipse class="cls-12" cx="191.53" cy="74.13" rx="13.34" ry="9.07" transform="translate(-7.84 24.85) rotate(-7.27)"/><path class="cls-12" d="M214.6,72s-6.24-6.15-10,1.36"/><polyline class="cls-8" points="258.6 205.23 237.41 263.39 230.18 261.65 236.79 207.5"/><polyline class="cls-8" points="228.62 204.54 209.9 255.95 202.67 254.21 209.27 200.07"/><path class="cls-11" d="M204.16,84.31c-2.13.51-2.74,2.84-1,3.78,2.12,1.14,5.44,1.92,10.34.67s7.28-3.36,8.48-5.24c1-1.62-.57-3.34-2.65-2.84Z"/><polygon class="cls-13" points="229.05 267.69 235.28 269.19 243.55 246.81 232.38 244.13 229.05 267.69"/><path class="cls-14" d="M214.08,264.27a11.06,11.06,0,0,1,21.55,5"/><polygon class="cls-13" points="201.12 261.39 207.34 262.88 215.61 240.5 204.72 237.89 201.12 261.39"/><path class="cls-14" d="M186.92,258.26a11.06,11.06,0,0,1,21.59,4.79"/><polyline class="cls-15" points="117.89 206.06 137.41 253.04 133.16 255.32 96.3 207.11"/><polygon class="cls-16" points="136.49 260.8 140.5 258.65 129.15 233.15 120.41 238.64 136.49 260.8"/><path class="cls-14" d="M150.36,253.55a8.1,8.1,0,1,0-13.3,9.25"/><polyline class="cls-15" points="135.77 195.15 155.28 242.13 151.04 244.41 114.18 196.2"/><polygon class="cls-16" points="154.37 249.89 158.37 247.74 147.03 222.24 138.29 227.73 154.37 249.89"/><path class="cls-14" d="M168.33,242.67a8.1,8.1,0,0,0-14.27,7.67"/><path class="cls-8" d="M47.78,121.86c-1.18,27.53,12.46,54.89,30.79,74.78,47.27,51.29,105.31-17.31,107.63-71.09,1.71-39.69-31.88-50.78-65.9-52.25S49.49,82.17,47.78,121.86Z"/><path class="cls-17" d="M146.89,130.26c-2.61-.24-4.2,2-2.64,3.62s4.26,3.23,9,3.59,7.5-.66,9.26-1.92.64-3.78-2-4Z"/><path class="cls-9" d="M180.25,124.05a10.57,10.57,0,0,0-21.14,0"/><path class="cls-9" d="M148,124.05a10.57,10.57,0,0,0-21.14,0"/><line class="cls-18" x1="180.79" y1="114.88" x2="167.63" y2="104.87"/><line class="cls-18" x1="122.41" y1="115.14" x2="137.86" y2="103.53"/><path class="cls-17" d="M137.55,113.48c-.34,0-.68,0-1,0a7.12,7.12,0,0,0,10.9,6.8A10.56,10.56,0,0,0,137.55,113.48Z"/><path class="cls-17" d="M169.82,113.48c-.35,0-.69,0-1,0a7.12,7.12,0,0,0,10.91,6.8A10.57,10.57,0,0,0,169.82,113.48Z"/><path class="cls-4" d="M91.78,158.85s13.18,28.88,43.39,17.61"/><path class="cls-3" d="M132.1,171.17c-1.7,1.05-2.63,3.45-2.16,6.1.61,3.36,3.27,5.88,5.91,5.59l6.53-.7.14,0h.07l8.81-1a1.36,1.36,0,0,0,1-1.73,1.63,1.63,0,0,0-1.55-1.47l-4.79.52a7.44,7.44,0,0,0,.17-1.36l5.75-.62a1.37,1.37,0,0,0,1-1.74,1.6,1.6,0,0,0-1.54-1.46l-5.76.62a7.24,7.24,0,0,0-.57-1.15l4.94-.54a1.36,1.36,0,0,0,1-1.73,1.63,1.63,0,0,0-1.55-1.47l-8.23.89a4.61,4.61,0,0,0-.83,0l1.47-.78a1.65,1.65,0,0,0,.48-2.09h0c-.36-.82-1.15-1.22-1.76-.89"/><path class="cls-2" d="M239,131s-9.81,24.66-22.13,28.82-35.11-.74-35.11-.74"/><path class="cls-3" d="M185.23,153.48a6.19,6.19,0,0,1,2.85,6.28c-.47,3.38-3.35,5.79-6.39,5.36l-7.5-1.06-.16,0H174l-10.12-1.42a1.63,1.63,0,0,1,.45-3.21l5.51.78a7.15,7.15,0,0,1-.29-1.39l-6.6-.93a1.63,1.63,0,0,1,.45-3.21l6.61.93a6.33,6.33,0,0,1,.58-1.13l-5.68-.81a1.62,1.62,0,0,1,.46-3.2l9.46,1.33a5.91,5.91,0,0,1,.94,0l-1.73-.86a1.67,1.67,0,0,1-.68-2.14h0a1.45,1.45,0,0,1,2-.81"/></svg>