<svg id="Layer_1" data-name="Layer 1" xmlns="http://www.w3.org/2000/svg" viewBox="0 0 348 282.35"><defs><style>.cls-1{fill:#f8d979;}.cls-10,.cls-12,.cls-17,.cls-2,.cls-4{fill:none;stroke-linecap:round;stroke-miterlimit:10;}.cls-2{stroke:#138ab2;stroke-width:6.38px;}.cls-3{fill:#a1cbec;}.cls-4{stroke:#198ab1;stroke-width:4.53px;}.cls-5{fill:#ffcb05;}.cls-6{fill:#faad1c;}.cls-7{fill:#e59525;}.cls-8{fill:#0aa0cc;}.cls-9{fill:#fff;}.cls-10{stroke:#0d4061;stroke-width:2.1px;}.cls-11{fill:#0d4061;}.cls-12{stroke:#231f20;stroke-width:1.26px;}.cls-13{fill:#5754a3;}.cls-14{fill:#504b48;}.cls-15{fill:#049fcb;}.cls-16{fill:#57c4cf;}.cls-17{stroke:#0b4161;stroke-width:2.4px;}.cls-18{fill:#0b4161;}.cls-19{fill:#56c5d0;}</style></defs><polyline class="cls-1" points="0 282.32 0 0.03 348 0.03 348 282.32"/><path class="cls-2" d="M218.08,125.59S199,137.8,186,137.44s-26.63-12.14-26.63-12.14"/><path class="cls-3" d="M176.61,121.3a6.21,6.21,0,0,1,.5,6.89c-1.61,3-5.15,4.26-7.85,2.81l-6.67-3.6-.13-.08-.08,0-9-4.85a1.63,1.63,0,0,1,1.53-2.85l4.91,2.64a6.08,6.08,0,0,1,.21-1.4l-5.88-3.17a1.63,1.63,0,0,1,1.54-2.85l5.87,3.16a7.6,7.6,0,0,1,.94-.86l-5.05-2.72a1.63,1.63,0,0,1,1.54-2.85l8.42,4.53a5.41,5.41,0,0,1,.87.34L167,115a1.65,1.65,0,0,1,.1-2.24h0a1.44,1.44,0,0,1,2.11-.09"/><path class="cls-4" d="M136.15,161.45s11.44,20.87,45.58,10.76"/><path class="cls-3" d="M178.81,166.56c-1.62,1.18-2.36,3.64-1.69,6.24.86,3.31,3.7,5.63,6.32,5.14l6.45-1.2.14,0h.07l8.71-1.61a1.37,1.37,0,0,0,.84-1.81,1.62,1.62,0,0,0-1.65-1.34l-4.75.88a6.88,6.88,0,0,0,.07-1.37l5.69-1.06a1.36,1.36,0,0,0,.84-1.8,1.61,1.61,0,0,0-1.66-1.34l-5.68,1.05a8.06,8.06,0,0,0-.67-1.1l4.89-.91a1.36,1.36,0,0,0,.84-1.8,1.63,1.63,0,0,0-1.66-1.35l-8.14,1.51a3.85,3.85,0,0,0-.83,0l1.41-.89a1.65,1.65,0,0,0,.32-2.12h0a1.36,1.36,0,0,0-1.83-.76"/><polyline class="cls-5" points="348 282.01 0 282.01 0 253.98 348 253.98"/><polyline class="cls-6" points="144.33 266.89 136.26 266.89 136.26 232.35 71.75 232.35 71.75 266.89 63.57 266.89 63.57 229.13 63.67 229.13 63.67 221.74 144.33 221.74 144.33 229.23"/><path class="cls-7" d="M63,205.3H145.5a5.65,5.65,0,0,1,5.64,5.64v7.39A5.65,5.65,0,0,1,145.5,224H63a5.65,5.65,0,0,1-5.64-5.65V211A5.73,5.73,0,0,1,63,205.3Z"/><polyline class="cls-6" points="286.37 266.86 278.3 266.86 278.3 232.32 213.79 232.32 213.79 266.86 205.62 266.86 205.62 229.11 205.71 229.11 205.71 221.71 286.37 221.71 286.37 229.2"/><path class="cls-7" d="M205,205.27h82.51a5.65,5.65,0,0,1,5.64,5.64v7.4a5.65,5.65,0,0,1-5.64,5.64H205a5.65,5.65,0,0,1-5.64-5.64V211A5.73,5.73,0,0,1,205,205.27Z"/><rect class="cls-8" x="188.08" y="20.99" width="99.08" height="190.58" rx="35.26" transform="translate(488.95 198.88) rotate(172.12)"/><path class="cls-9" d="M237.31,70.84a9.81,9.81,0,1,0-19.44,2.69"/><path class="cls-9" d="M202.8,75.61a9.81,9.81,0,0,0-19.44,2.69"/><line class="cls-10" x1="233.69" y1="57.13" x2="215.06" y2="55.28"/><line class="cls-10" x1="182.22" y1="64.44" x2="197.04" y2="57.66"/><path class="cls-11" d="M228.73,72a4.25,4.25,0,1,0-8.41,1.17"/><path class="cls-11" d="M194.22,76.8A4.25,4.25,0,0,0,185.8,78"/><ellipse class="cls-12" cx="228.32" cy="69.45" rx="13.34" ry="9.07" transform="translate(-6.96 29.47) rotate(-7.27)"/><ellipse class="cls-12" cx="192.13" cy="74.13" rx="13.34" ry="9.07" transform="translate(-7.84 24.93) rotate(-7.27)"/><path class="cls-12" d="M215.2,72s-6.24-6.15-10,1.36"/><polyline class="cls-8" points="259.19 205.23 238.01 263.39 230.78 261.65 237.39 207.5"/><polyline class="cls-8" points="229.22 204.54 210.5 255.95 203.27 254.21 209.87 200.07"/><polygon class="cls-13" points="229.65 267.69 235.88 269.19 244.15 246.81 232.99 244.13 229.65 267.69"/><path class="cls-14" d="M214.68,264.27a11.06,11.06,0,0,1,21.55,5"/><polygon class="cls-13" points="201.72 261.39 207.94 262.88 216.21 240.5 205.32 237.89 201.72 261.39"/><path class="cls-14" d="M187.52,258.26a11.06,11.06,0,0,1,21.59,4.79"/><polyline class="cls-15" points="118.49 206.06 138.01 253.04 133.76 255.32 96.9 207.11"/><polygon class="cls-16" points="137.09 260.8 141.09 258.65 129.75 233.15 121.01 238.64 137.09 260.8"/><path class="cls-14" d="M151,253.55a8.1,8.1,0,1,0-13.3,9.25"/><polyline class="cls-15" points="136.37 195.15 155.88 242.13 151.64 244.41 114.78 196.2"/><polygon class="cls-16" points="154.97 249.89 158.97 247.74 147.63 222.24 138.89 227.73 154.97 249.89"/><path class="cls-14" d="M168.93,242.67a8.1,8.1,0,0,0-14.27,7.67"/><path class="cls-8" d="M48.38,121.86c-1.18,27.53,12.46,54.89,30.79,74.78,47.27,51.29,105.31-17.31,107.63-71.09,1.71-39.69-31.88-50.78-65.9-52.25S50.09,82.17,48.38,121.86Z"/><path class="cls-9" d="M180.85,124.05a10.57,10.57,0,1,0-21.14,0"/><path class="cls-9" d="M148.56,124.05a10.57,10.57,0,0,0-21.14,0"/><line class="cls-17" x1="181.39" y1="114.88" x2="168.23" y2="104.87"/><line class="cls-17" x1="123.01" y1="115.14" x2="138.46" y2="103.53"/><path class="cls-18" d="M138.15,113.48c-.34,0-.68,0-1,0a7.12,7.12,0,0,0,10.9,6.8A10.56,10.56,0,0,0,138.15,113.48Z"/><path class="cls-18" d="M170.42,113.48c-.35,0-.69,0-1,0a7.12,7.12,0,0,0,10.91,6.8A10.57,10.57,0,0,0,170.42,113.48Z"/><path class="cls-4" d="M92.38,158.85s13.18,28.88,43.39,17.61"/><path class="cls-3" d="M132.7,171.17c-1.7,1.05-2.63,3.45-2.16,6.1.61,3.36,3.27,5.88,5.91,5.59l6.53-.7.14,0h.07l8.81-1a1.36,1.36,0,0,0,1-1.73,1.63,1.63,0,0,0-1.55-1.47l-4.79.52a7.44,7.44,0,0,0,.17-1.36l5.75-.62a1.37,1.37,0,0,0,1-1.74,1.6,1.6,0,0,0-1.54-1.46l-5.76.62a7.24,7.24,0,0,0-.57-1.15l4.94-.54a1.36,1.36,0,0,0,1-1.73,1.63,1.63,0,0,0-1.55-1.47l-8.23.89a4.61,4.61,0,0,0-.83,0l1.47-.78a1.65,1.65,0,0,0,.48-2.09h0c-.36-.82-1.15-1.22-1.76-.89"/><path class="cls-2" d="M239.55,131s-9.81,24.66-22.13,28.82-35.11-.74-35.11-.74"/><path class="cls-3" d="M185.83,153.48a6.19,6.19,0,0,1,2.85,6.28c-.47,3.38-3.35,5.79-6.39,5.36l-7.5-1.06-.16,0h-.08l-10.12-1.42a1.63,1.63,0,0,1,.45-3.21l5.51.78a7.15,7.15,0,0,1-.29-1.39l-6.6-.93a1.63,1.63,0,0,1,.45-3.21l6.61.93a6.33,6.33,0,0,1,.58-1.13l-5.68-.81a1.62,1.62,0,0,1,.46-3.2l9.46,1.33a5.91,5.91,0,0,1,.94,0l-1.73-.86a1.67,1.67,0,0,1-.68-2.14h0a1.45,1.45,0,0,1,2-.81"/><path class="cls-19" d="M141.69,126.24a12.06,12.06,0,0,0-2.82.18,6.51,6.51,0,0,1-2.66-.71,14.73,14.73,0,0,0-6.79-.6c-.74.11-1.8.29-2.4-.28a1.23,1.23,0,0,1-.28-1.16,2.21,2.21,0,0,1,.7-1,4,4,0,0,1,3.48-.86,14.23,14.23,0,0,1,3,1.4,3.63,3.63,0,0,0,2.93.32c.69-.3,1-1.07,1.69-1.33a2.86,2.86,0,0,1,2,.32,8.14,8.14,0,0,0,4.86.21,7.89,7.89,0,0,1,2.84-.59c1.62.15,2.4,3,1,3.84a2.05,2.05,0,0,1-1.18.18c-1.75-.12-2.9-.61-4.37-.27A2.37,2.37,0,0,1,141.69,126.24Z"/><path class="cls-19" d="M176.69,125.63c1.09-.48,2.33.69,3.5.5a1.49,1.49,0,0,0,.86-.39c.26-.29,1.44-.7,1.46-1.08.05-1-1.26-2.19-2.22-2.55a3.2,3.2,0,0,0-2.16.34,9.27,9.27,0,0,1-6.42-.11,2,2,0,0,0-1.41-.22c-.47.17-.68.68-1,1-.8.81-2.22.66-3.27.17a17.2,17.2,0,0,0-3.11-1.52,3.92,3.92,0,0,0-3.24.66,1.8,1.8,0,0,0-.78,2,1.88,1.88,0,0,0,1.78.86,13.38,13.38,0,0,0,2.06-.4,6.78,6.78,0,0,1,2.94.08c1.89.48,3.73,1.78,5.62,1.27a3.09,3.09,0,0,1,2.18-.06A7.9,7.9,0,0,0,176.69,125.63Z"/><path class="cls-18" d="M165.85,139s-1.15-8.89-11.71-8.68S142.76,139,142.76,139Z"/><path class="cls-11" d="M224.81,87s-2.9-7.83-13.21-6.33S201.22,90,201.22,90Z"/></svg>