<svg id="Layer_1" data-name="Layer 1" xmlns="http://www.w3.org/2000/svg" viewBox="0 0 348 282.35"><defs><style>.cls-1{fill:#a2dbe2;}.cls-18,.cls-19,.cls-2,.cls-5{fill:none;stroke-linecap:round;}.cls-2{stroke:#198ab1;stroke-width:4.63px;}.cls-11,.cls-17,.cls-18,.cls-19,.cls-2,.cls-5{stroke-miterlimit:10;}.cls-3{fill:#91bddb;}.cls-4{fill:#00a1cd;}.cls-5{stroke:#0d4060;stroke-width:1.89px;}.cls-6{fill:#fff;}.cls-7{fill:#0d4060;}.cls-8{fill:#727373;}.cls-9{fill:#309d48;}.cls-10{fill:#48494a;}.cls-11{fill:#eecb5d;}.cls-11,.cls-17{stroke:#727373;stroke-width:2.75px;}.cls-12{fill:#ed1651;}.cls-13{fill:#504b48;}.cls-14{fill:#56c5d0;}.cls-15{fill:#a91e23;}.cls-16{fill:#2e2f30;}.cls-17{fill:#d19c2a;}.cls-18{stroke:#231f20;stroke-width:1.45px;}.cls-19{stroke:#0f8ab2;stroke-width:4.38px;}.cls-20{fill:#a1cbec;}.cls-21{fill:#0b4161;}.cls-22{fill:#a2cced;}.cls-23{fill:#5754a3;}</style></defs><polyline class="cls-1" points="-2.31 256.58 -2.31 -0.47 347.13 -0.47 347.13 266.06"/><path class="cls-2" d="M106.64,135.85s-5.44,18.74,13,36.94"/><path class="cls-3" d="M124.85,164.8c-1.81-.79-4.29-.2-6.17,1.68-2.4,2.38-3,6-1.23,8l4.24,4.92.1.09,0,.06,5.73,6.63a1.35,1.35,0,0,0,2-.19,1.6,1.6,0,0,0,.32-2.08l-3.12-3.61a6.84,6.84,0,0,0,1.2-.62l3.74,4.33a1.36,1.36,0,0,0,2-.19,1.59,1.59,0,0,0,.32-2.08l-3.74-4.33a7.16,7.16,0,0,0,.61-1.12L134,180a1.34,1.34,0,0,0,1.95-.18,1.61,1.61,0,0,0,.33-2.09L131,171.5a3.52,3.52,0,0,0-.44-.69l1.46.75a1.62,1.62,0,0,0,2-.78h0a1.33,1.33,0,0,0-.27-1.94"/><path class="cls-4" d="M306.64,198.45H297c-27.27,0-31.94-22.06-31.94-40.63V95.48c0-18.56,14.3-33.61,31.94-33.61h9.64c17.64,0,31.94,15.05,31.94,33.61v62.34C338.58,176.39,333.08,198.45,306.64,198.45Z"/><path class="cls-5" d="M312.91,89.4s.11,6.87,7.53,5.26"/><path class="cls-6" d="M320.6,105.36c0-5-4.36-9.07-9.73-9.07s-9.73,4.06-9.73,9.07"/><path class="cls-7" d="M319.61,100.76l5.2-2.07-4.61,3.63c.06.21.1.41.14.6l4.52-.56-4.32,1.82a7.9,7.9,0,0,1,0,.94c-2.41-7.66-7.25-8.67-8.63-8.81C316.39,96.44,318.56,98.6,319.61,100.76Z"/><path class="cls-8" d="M-13.69,100.35-2.24,118s22,2.59,24.41-1.42,3.31-14.08,0-16.22S4.86,96.08-4.42,98.22Z"/><rect class="cls-9" x="1.48" y="238.37" width="345.8" height="43.35"/><polygon class="cls-10" points="74.51 281.71 -3.31 281.71 -3.31 238.37 53.27 238.37 74.51 281.71"/><circle class="cls-11" cx="11.39" cy="191.44" r="5.82"/><path class="cls-4" d="M40,120.36c0-.42,0-.85,0-1.28C40,88.4,62.19,63.53,89.55,63.53s49.85,25,49.85,55.71c0,.43,0,.85,0,1.28a42.76,42.76,0,0,1,.16,6.12v26c0,21.38-18.94,40.89-37.87,40.89H74.75c-18.93,0-35.17-19.51-35.17-40.89v-26A44.74,44.74,0,0,1,40,120.36Z"/><polyline class="cls-4" points="110.4 190.17 103.77 245.94 99.13 245.94 93.88 190.4"/><polygon class="cls-12" points="98.59 244.76 104.41 244.49 107 219.1 96.59 219.1 98.59 244.76"/><path class="cls-13" d="M98.08,247a8.65,8.65,0,0,1,17.29,0"/><polyline class="cls-4" points="89.46 190.17 82.84 245.94 78.19 245.94 72.94 190.4"/><polygon class="cls-12" points="77.66 244.76 83.48 244.49 86.06 219.1 75.66 219.1 77.66 244.76"/><path class="cls-13" d="M77.15,247a8.65,8.65,0,0,1,17.29,0"/><path class="cls-6" d="M101.35,107.34c0-5-4.33-9.07-9.68-9.07S82,102.33,82,107.34"/><path class="cls-6" d="M130.12,107.34c0-5-4.35-9.07-9.72-9.07s-9.73,4.06-9.73,9.07"/><path class="cls-7" d="M129.13,102.74l5.2-2.07-4.61,3.64c.06.2.1.4.15.59l4.51-.56-4.31,1.82a9.1,9.1,0,0,1,0,.94c-2.41-7.65-7.24-8.67-8.63-8.8C125.91,98.42,128.08,100.58,129.13,102.74Z"/><path class="cls-7" d="M121.48,98.3c-.13,0-.25,0-.38,0A3.41,3.41,0,0,1,121.48,98.3Z"/><path class="cls-7" d="M77.73,104.34l4.52.56c0-.19.08-.39.14-.6l-4.61-3.63,5.2,2.07c1-2.16,3.22-4.32,7.65-4.45-1.38.14-6.22,1.15-8.63,8.81a7.9,7.9,0,0,1,0-.94Z"/><path class="cls-7" d="M90.63,98.29l.39,0Z"/><polyline class="cls-4" points="299.76 193.24 294.01 241.8 290.08 241.8 284.09 187.77"/><polygon class="cls-14" points="290.36 247.88 294.06 247.88 296.39 221.47 287.55 221.47 290.36 247.88"/><path class="cls-13" d="M295.27,248.12a7.5,7.5,0,1,0-15,0"/><polyline class="cls-4" points="305.47 193.24 311.22 241.8 315.14 241.8 321.14 187.77"/><polygon class="cls-14" points="314.87 247.88 311.17 247.88 308.83 221.47 317.68 221.47 314.87 247.88"/><path class="cls-13" d="M300.43,248.12a7.5,7.5,0,1,1,15,0"/><path class="cls-7" d="M285.18,119.87s.7-5.6,9.08-5.43,9,5.43,9,5.43Z"/><path class="cls-15" d="M34.7,149.6c-.5-14.66-8.69-21.1-20.79-28.5-1.47-.9-6.58-1.68-8.07-2.54-.13-.07-2.38-.75-2.38-.75l-6.17-13.15V146q5.94-1.08,11.9-2.12c9.24-1.6,12,.79,12.1,10,0,2.31.05,4.61,0,6.91-.17,7.13-3.41,10.7-10.46,10.95l-13.53.54V239L14,254.74c6.91-.27,11.41-4.81,11.81-11.7.16-2.68.08-5.38.05-8.07-.06-4.54-.67-8.84,5.22-11.21,2.08-.83,3.67-5.46,3.71-8.38C35.07,193.45,35.46,171.51,34.7,149.6Z"/><path class="cls-16" d="M-14.5,227.12c0,4.95-.1,9.66,0,14.36.22,8.53,4.85,13.16,13.29,13.3,5.38.09,10.77.17,16.15,0,6.91-.27,11.41-4.81,11.81-11.7.16-2.68.08-5.38.05-8.07,0-2.85-.29-5.61,1-7.85Z"/><path class="cls-8" d="M-15.44,209.4H28a8.89,8.89,0,0,1,8.86,8.86h0A8.88,8.88,0,0,1,28,227.12H-15.44"/><path class="cls-17" d="M8.55,172.55c-6.51.31-30.56-.08-37.08,0-6.32.08-9-3.34-8-9.62,1.27-7.87,5.61-12.54,13.22-14,10.73-2,21.48-4,32.25-5.86,9.24-1.61,12,.79,12.1,10,0,2.3.05,4.61,0,6.91-.17,7.13-3.11,12.26-10.16,12.51Z"/><path class="cls-7" d="M90.91,107.34a4.85,4.85,0,1,1,9.69,0"/><path class="cls-7" d="M118.78,107.34a4.85,4.85,0,1,1,9.69,0"/><path class="cls-5" d="M276.32,88.73a6.79,6.79,0,0,1-8.51,4.93"/><path class="cls-6" d="M268.24,105.47c0-5,4.36-9.07,9.73-9.07s9.73,4.06,9.73,9.07"/><path class="cls-7" d="M269.24,100.87,264,98.8l4.62,3.63q-.09.31-.15.6l-4.51-.56,4.31,1.81a8.1,8.1,0,0,0-.05,1c2.42-7.66,7.25-8.68,8.63-8.81C272.45,96.55,270.28,98.71,269.24,100.87Z"/><path class="cls-7" d="M276.88,96.42l.39,0Z"/><ellipse class="cls-18" cx="274.65" cy="100.94" rx="14.58" ry="14.96"/><ellipse class="cls-18" cx="313.75" cy="100.94" rx="14.58" ry="14.96"/><path class="cls-18" d="M289.21,99.15s4.75-6.75,9.49,0"/><path class="cls-19" d="M59.57,137.89s10.85,31.55,39.23,1.76"/><path class="cls-20" d="M109.53,141.48a7.5,7.5,0,0,0,2.24-1.71,1.49,1.49,0,0,0-.26-2.38c-.25-.18-.23-.25-.08-.46a4.34,4.34,0,0,0,.37-.71,1.84,1.84,0,0,0-.76-1.74c-.47-.25-.61-.45-.37-1a1.69,1.69,0,0,0-.12-1.48c-.26-.54-.84-.65-1.24-1,0-.3.27-.36.44-.47,1.47-1.06,1.81-2.11,3.27-3.18a1.51,1.51,0,0,0,.54-2.12,1.45,1.45,0,0,0-2.24-.48c-.58.35-1.13.77-1.69,1.17-2.55,1.79-4,3.59-6.51,5.38-.26.18-.56.47-.88.28s0-.55,0-.82A5.74,5.74,0,0,0,99,124.75a2,2,0,0,0-2.23.34c-.47.76,0,1.36.45,2,1.65,2.32,1.18,4.49-.55,6.53A15.6,15.6,0,0,0,94.83,136c-1.8,3.3,1,6.68,4,8C102.49,145.52,106.41,143.44,109.53,141.48Z"/><path class="cls-21" d="M98.59,121.65a2,2,0,0,1-1.89-3.2c1.65-2.12,4.74-4.49,10.48-5.22s9,.68,10.8,2.21a2,2,0,0,1-1,3.5l-6.48-.43a13.87,13.87,0,0,0-5.81.86Z"/><path class="cls-2" d="M331.36,138.37s5.44,18.73-13,36.94"/><path class="cls-22" d="M316,171a5.23,5.23,0,0,1,5.55,1.62c2.12,2.19,2.57,5.43,1,7.2l-3.91,4.36-.09.09,0,.05-5.28,5.89a1.2,1.2,0,0,1-1.76-.2,1.43,1.43,0,0,1-.26-1.88l2.87-3.21a6.67,6.67,0,0,1-1.08-.58l-3.44,3.85a1.23,1.23,0,0,1-1.77-.2,1.45,1.45,0,0,1-.25-1.89l3.44-3.84a6.61,6.61,0,0,1-.53-1l-3,3.3a1.21,1.21,0,0,1-1.77-.2,1.44,1.44,0,0,1-.25-1.88l4.93-5.51a3.1,3.1,0,0,1,.41-.61l-1.33.65a1.45,1.45,0,0,1-1.76-.74h0a1.2,1.2,0,0,1,.26-1.74"/><path class="cls-2" d="M262.29,139.61s13.87,38.4,21.9-.94"/><path class="cls-22" d="M279.84,134.79a5.21,5.21,0,0,0,4.41,3.73c3,.56,5.94-.86,6.54-3.16l1.48-5.67,0-.12a.14.14,0,0,1,0-.06l2-7.65c.16-.6-.35-1.21-1.14-1.36a1.43,1.43,0,0,0-1.71.83l-1.09,4.16a5.81,5.81,0,0,0-1.08-.57l1.31-5c.15-.6-.36-1.21-1.15-1.36a1.44,1.44,0,0,0-1.71.83l-1.3,5a7.1,7.1,0,0,0-1.14.12l1.12-4.29c.15-.6-.36-1.22-1.15-1.36a1.44,1.44,0,0,0-1.71.82l-1.86,7.16a3.16,3.16,0,0,0-.29.68l-.19-1.47a1.45,1.45,0,0,0-1.59-1.06h0c-.79,0-1.38.57-1.3,1.18"/><polygon class="cls-1" points="265.06 132.69 265.06 154.82 260.07 143.76 258.62 133.96 265.06 132.69"/><path class="cls-3" d="M246.76,173.14c-1.81-.8-4.29-.2-6.17,1.67-2.39,2.39-3,6-1.23,8l4.25,4.91.09.1,0,.06,5.73,6.63a1.36,1.36,0,0,0,2-.19,1.59,1.59,0,0,0,.32-2.08l-3.12-3.61a6.66,6.66,0,0,0,1.21-.63l3.74,4.33a1.35,1.35,0,0,0,2-.19,1.6,1.6,0,0,0,.32-2.08l-3.74-4.33a8.61,8.61,0,0,0,.61-1.11l3.21,3.72a1.36,1.36,0,0,0,2-.19,1.59,1.59,0,0,0,.32-2.08l-5.36-6.2a5,5,0,0,0-.43-.69l1.46.76a1.62,1.62,0,0,0,2-.79h0a1.32,1.32,0,0,0-.26-1.93"/><polyline class="cls-4" points="216.27 246.29 221.13 195.75 205.68 195.75 211.99 247.75 215.73 244.02"/><polygon class="cls-23" points="208.34 217.75 218.95 217.75 216.45 247.33 211.27 247.33 208.34 217.75"/><polyline class="cls-4" points="195.48 246.29 200.34 195.75 184.89 195.75 191.2 247.75 194.95 244.02"/><polygon class="cls-23" points="187.56 217.75 198.17 217.75 195.66 247.33 190.49 247.33 187.56 217.75"/><path class="cls-13" d="M226.32,247.75c0-3.92-3.64-7.1-8.14-7.1s-8.15,3.18-8.15,7.1"/><path class="cls-13" d="M189.65,247.75c0-3.92,3.65-7.1,8.15-7.1s8.15,3.18,8.15,7.1"/><path class="cls-4" d="M260.81,156.26c0-39.32-23.67-94.67-58.14-94.67-36.32,0-58.14,54.55-58.14,93.88S167.42,204,202.67,204,260.8,195.59,260.81,156.26Z"/><path class="cls-5" d="M230.67,89.69s3.14,7.55,11.35,3.74"/><path class="cls-5" d="M207.21,90.93s-2.64,7.47-10.59,3.15"/><path class="cls-6" d="M243.28,108.49c0-5-4.36-9.07-9.73-9.07s-9.73,4.06-9.73,9.07"/><path class="cls-7" d="M242.29,103.89l5.2-2.07-4.61,3.63c.06.21.1.41.14.6l4.52-.56-4.32,1.82a7.9,7.9,0,0,1,.05.94c-2.41-7.66-7.25-8.67-8.63-8.81C239.07,99.57,241.24,101.73,242.29,103.89Z"/><path class="cls-7" d="M234.64,99.44l-.39,0Z"/><path class="cls-7" d="M203.79,99.44l.38,0Z"/><path class="cls-19" d="M164.48,135.69s5.77,33.55,39.3,14.73"/><path class="cls-22" d="M199.24,146.14a5.49,5.49,0,0,0,.45,6.17c1.86,2.69,5.22,3.83,7.47,2.52l5.57-3.21.11-.08.06,0,7.51-4.35a1.3,1.3,0,0,0,.19-1.9,1.58,1.58,0,0,0-2-.66L214.56,147a6.71,6.71,0,0,0-.38-1.26l4.9-2.83a1.3,1.3,0,0,0,.19-1.9,1.57,1.57,0,0,0-2-.66l-4.9,2.83a8.85,8.85,0,0,0-1-.77l4.21-2.43a1.3,1.3,0,0,0,.19-1.9,1.57,1.57,0,0,0-2-.66l-7,4.06a4,4,0,0,0-.75.3l1-1.27a1.52,1.52,0,0,0-.38-2h0a1.33,1.33,0,0,0-1.93-.08"/><path class="cls-6" d="M195.92,108.38c0-5,4.36-9.07,9.73-9.07s9.73,4.06,9.73,9.07"/><path class="cls-7" d="M196.92,103.78l-5.21-2.07,4.62,3.64c-.06.2-.11.4-.15.59l-4.51-.56L196,107.2a7.9,7.9,0,0,0,0,.94c2.42-7.65,7.25-8.67,8.63-8.8C200.13,99.46,198,101.62,196.92,103.78Z"/><path class="cls-7" d="M207.82,119.71s2.23-7,13.25-6.75S233,119.71,233,119.71Z"/><path class="cls-5" d="M116.62,88.72s3.14,7.54,11.35,3.74"/><path class="cls-5" d="M82.75,94.85s2.08-7.66,10.33-3.94"/><path class="cls-7" d="M203.78,108.38a4.85,4.85,0,1,1,9.69,0"/><path class="cls-7" d="M232.1,108.49a4.85,4.85,0,1,1,9.69,0"/><path class="cls-7" d="M269.74,105.48a4.85,4.85,0,1,1,9.69,0"/><path class="cls-7" d="M302.27,105.37a4.85,4.85,0,1,1,9.69,0"/></svg>