<svg id="Layer_1" data-name="Layer 1" xmlns="http://www.w3.org/2000/svg" viewBox="0 0 348 282.35"><defs><style>.cls-1{fill:#a2dbe2;}.cls-18,.cls-19,.cls-2,.cls-5{fill:none;stroke-linecap:round;}.cls-2{stroke:#198ab1;stroke-width:4.63px;}.cls-11,.cls-17,.cls-18,.cls-19,.cls-2,.cls-5{stroke-miterlimit:10;}.cls-3{fill:#91bddb;}.cls-4{fill:#00a1cd;}.cls-5{stroke:#0d4060;stroke-width:1.89px;}.cls-6{fill:#fff;}.cls-7{fill:#0d4060;}.cls-8{fill:#727373;}.cls-9{fill:#309d48;}.cls-10{fill:#48494a;}.cls-11{fill:#eecb5d;}.cls-11,.cls-17{stroke:#727373;stroke-width:2.75px;}.cls-12{fill:#ed1651;}.cls-13{fill:#504b48;}.cls-14{fill:#56c5d0;}.cls-15{fill:#a91e23;}.cls-16{fill:#2e2f30;}.cls-17{fill:#d19c2a;}.cls-18{stroke:#231f20;stroke-width:1.45px;}.cls-19{stroke:#0f8ab2;stroke-width:4.38px;}.cls-20{fill:#a1cbec;}.cls-21{fill:#0b4161;}.cls-22{fill:#a2cced;}.cls-23{fill:#5754a3;}</style></defs><polyline class="cls-1" points="-1.45 257.39 -1.45 0.34 348 0.34 348 266.88"/><path class="cls-2" d="M107.51,136.67s-5.44,18.74,13,36.94"/><path class="cls-3" d="M125.72,165.62c-1.81-.79-4.29-.2-6.17,1.67-2.4,2.39-3,6-1.23,8l4.24,4.91.1.1a.21.21,0,0,0,0,.06l5.73,6.63a1.34,1.34,0,0,0,1.95-.19,1.59,1.59,0,0,0,.33-2.08l-3.12-3.61a6.84,6.84,0,0,0,1.2-.62l3.74,4.32a1.35,1.35,0,0,0,2-.19,1.59,1.59,0,0,0,.32-2.08l-3.74-4.32a7.64,7.64,0,0,0,.61-1.12l3.22,3.72a1.34,1.34,0,0,0,1.95-.19,1.59,1.59,0,0,0,.32-2.08l-5.35-6.2a3.76,3.76,0,0,0-.44-.68l1.46.75a1.62,1.62,0,0,0,2-.79h0a1.32,1.32,0,0,0-.27-1.93"/><path class="cls-4" d="M307.51,199.26h-9.64c-27.28,0-31.94-22.06-31.94-40.62V96.29c0-18.56,14.3-33.61,31.94-33.61h9.64c17.64,0,31.94,15.05,31.94,33.61v62.35C339.45,177.2,334,199.26,307.51,199.26Z"/><path class="cls-5" d="M313.78,91.22s.11,6.86,7.53,5.26"/><path class="cls-6" d="M321.47,107.18c0-5-4.36-9.07-9.73-9.07s-9.73,4.06-9.73,9.07"/><path class="cls-7" d="M320.48,102.58l5.2-2.07-4.61,3.63c.06.21.1.4.14.6l4.52-.57L321.41,106a8.1,8.1,0,0,1,0,1c-2.42-7.66-7.25-8.68-8.63-8.81C317.26,98.25,319.43,100.41,320.48,102.58Z"/><path class="cls-8" d="M-12.82,101.17l11.45,17.64s22,2.58,24.41-1.43,3.31-14.07,0-16.21S5.73,96.9-3.55,99Z"/><rect class="cls-9" x="2.35" y="239.18" width="345.8" height="43.35"/><polygon class="cls-10" points="75.38 282.53 -2.45 282.53 -2.45 239.18 54.13 239.18 75.38 282.53"/><circle class="cls-11" cx="12.26" cy="192.26" r="5.82"/><path class="cls-4" d="M40.9,121.18c0-.43,0-.85,0-1.28,0-30.68,22.19-55.55,49.55-55.55s49.84,25,49.84,55.7c0,.43,0,.86,0,1.29a42.76,42.76,0,0,1,.16,6.12v26c0,21.39-18.94,40.9-37.87,40.9H75.62c-18.93,0-35.17-19.51-35.17-40.9v-26A44.63,44.63,0,0,1,40.9,121.18Z"/><polyline class="cls-4" points="111.27 190.99 104.64 246.75 100 246.75 94.75 191.22"/><polygon class="cls-12" points="99.46 245.58 105.28 245.31 107.87 219.91 97.46 219.91 99.46 245.58"/><path class="cls-13" d="M99,247.82a8.65,8.65,0,0,1,17.29,0"/><polyline class="cls-4" points="90.33 190.99 83.71 246.75 79.06 246.75 73.81 191.22"/><polygon class="cls-12" points="78.53 245.58 84.35 245.31 86.93 219.91 76.53 219.91 78.53 245.58"/><path class="cls-13" d="M78,247.82a8.64,8.64,0,0,1,17.28,0"/><path class="cls-6" d="M102.22,108.16c0-5-4.33-9.07-9.68-9.07s-9.67,4.06-9.67,9.07"/><path class="cls-6" d="M131,108.16c0-5-4.35-9.07-9.73-9.07s-9.72,4.06-9.72,9.07"/><path class="cls-7" d="M130,103.56l5.2-2.07-4.61,3.63c.06.21.1.41.15.6l4.51-.56L130.94,107a9.32,9.32,0,0,1,0,1c-2.41-7.66-7.24-8.67-8.63-8.81C126.78,99.24,129,101.4,130,103.56Z"/><path class="cls-7" d="M122.35,99.11l-.38,0Z"/><path class="cls-7" d="M78.6,105.15l4.52.57c0-.2.08-.39.14-.6l-4.61-3.63,5.2,2.07c1.05-2.17,3.22-4.33,7.65-4.45-1.38.13-6.22,1.15-8.63,8.81a8.1,8.1,0,0,1,0-1Z"/><path class="cls-7" d="M91.5,99.11l.39,0Z"/><polyline class="cls-4" points="300.63 194.06 294.88 242.62 290.95 242.62 284.96 188.59"/><polygon class="cls-14" points="291.23 248.69 294.93 248.69 297.26 222.29 288.42 222.29 291.23 248.69"/><path class="cls-13" d="M296.14,248.93a7.5,7.5,0,1,0-15,0"/><polyline class="cls-4" points="306.34 194.06 312.09 242.62 316.01 242.62 322.01 188.59"/><polygon class="cls-14" points="315.74 248.69 312.04 248.69 309.7 222.29 318.55 222.29 315.74 248.69"/><path class="cls-13" d="M301.3,248.93a7.5,7.5,0,1,1,15,0"/><path class="cls-7" d="M286.05,121.69s.7-5.61,9.08-5.43,9,5.43,9,5.43Z"/><path class="cls-15" d="M35.57,150.42c-.5-14.67-8.69-21.1-20.79-28.51-1.47-.89-6.58-1.68-8.07-2.53-.13-.08-2.38-.76-2.38-.76l-6.17-13.14v41.29c4-.71,7.93-1.43,11.9-2.12,9.24-1.6,12,.8,12.1,10,0,2.3.05,4.61,0,6.91-.18,7.13-3.41,10.69-10.46,11l-13.53.54v66.73l16.7,15.73c6.91-.27,11.41-4.81,11.81-11.69.16-2.68.08-5.38,0-8.08-.06-4.54-.67-8.84,5.22-11.2,2.08-.84,3.67-5.46,3.71-8.39C35.94,194.27,36.33,172.32,35.57,150.42Z"/><path class="cls-16" d="M-13.63,227.94c0,4.95-.1,9.65,0,14.35.22,8.54,4.85,13.17,13.29,13.31,5.38.09,10.77.16,16.15,0,6.91-.27,11.41-4.81,11.81-11.69.16-2.68.08-5.38.05-8.08,0-2.85-.29-5.6,1-7.84Z"/><path class="cls-8" d="M-14.57,210.22H28.84a8.89,8.89,0,0,1,8.86,8.86h0a8.89,8.89,0,0,1-8.86,8.86H-14.57"/><path class="cls-17" d="M9.67,174.11c-6.51.3-30.56-.09-37.08,0-6.32.08-9-3.34-8-9.62,1.27-7.87,5.6-12.54,13.21-14,10.74-2,21.49-4,32.26-5.87,9.24-1.6,12,.8,12.1,10,0,2.3.05,4.61,0,6.91C22,168.73,19,173.86,12,174.11Z"/><path class="cls-7" d="M90.78,108.16a4.85,4.85,0,1,1,9.69,0"/><path class="cls-7" d="M118.65,108.16a4.85,4.85,0,1,1,9.69,0"/><path class="cls-5" d="M277.19,90.55a6.79,6.79,0,0,1-8.52,4.92"/><path class="cls-6" d="M269.11,107.28c0-5,4.36-9.07,9.73-9.07s9.73,4.06,9.73,9.07"/><path class="cls-7" d="M270.11,102.68l-5.21-2.07,4.61,3.64c-.05.2-.1.4-.14.6l-4.51-.57,4.31,1.82a7.9,7.9,0,0,0-.05.94c2.42-7.65,7.25-8.67,8.63-8.8C273.32,98.36,271.15,100.52,270.11,102.68Z"/><path class="cls-7" d="M277.75,98.24c.14,0,.25,0,.39,0A3.49,3.49,0,0,0,277.75,98.24Z"/><ellipse class="cls-18" cx="275.52" cy="102.76" rx="14.58" ry="14.96"/><ellipse class="cls-18" cx="314.62" cy="102.76" rx="14.58" ry="14.96"/><path class="cls-18" d="M290.07,101s4.76-6.75,9.5,0"/><path class="cls-19" d="M60.44,138.7s10.85,31.55,39.23,1.77"/><path class="cls-20" d="M110.4,142.3a7.66,7.66,0,0,0,2.24-1.72,1.48,1.48,0,0,0-.26-2.37c-.25-.19-.23-.25-.08-.46a4.79,4.79,0,0,0,.37-.71,1.8,1.8,0,0,0-.77-1.74c-.46-.25-.6-.45-.36-1a1.71,1.71,0,0,0-.12-1.49c-.26-.53-.84-.64-1.24-1,0-.29.27-.35.44-.47,1.47-1,1.81-2.1,3.27-3.18a1.49,1.49,0,0,0,.53-2.11,1.43,1.43,0,0,0-2.23-.48c-.58.35-1.13.77-1.69,1.16-2.55,1.79-4,3.59-6.51,5.38-.27.19-.56.48-.88.29s0-.55,0-.83a5.75,5.75,0,0,0-3.25-6.09,2,2,0,0,0-2.23.34c-.47.77,0,1.36.45,2,1.65,2.32,1.18,4.48-.55,6.53a14.68,14.68,0,0,0-1.84,2.38c-1.8,3.3,1,6.67,4,8C103.36,146.34,107.28,144.26,110.4,142.3Z"/><path class="cls-21" d="M99.46,122.46a2,2,0,0,1-1.89-3.19c1.65-2.13,4.74-4.5,10.48-5.23s9,.68,10.8,2.22a2,2,0,0,1-1,3.5l-6.48-.43a14,14,0,0,0-5.81.85Z"/><path class="cls-2" d="M332.23,139.18s5.44,18.74-13,36.94"/><path class="cls-22" d="M316.83,171.78a5.22,5.22,0,0,1,5.55,1.61c2.12,2.19,2.56,5.43,1,7.2L319.45,185l-.09.08,0,.06L314.05,191a1.22,1.22,0,0,1-1.76-.2,1.43,1.43,0,0,1-.26-1.88l2.87-3.21a6.28,6.28,0,0,1-1.08-.58L310.38,189a1.23,1.23,0,0,1-1.77-.2,1.44,1.44,0,0,1-.25-1.88L311.8,183a6.19,6.19,0,0,1-.53-1l-3,3.31a1.23,1.23,0,0,1-1.77-.2,1.44,1.44,0,0,1-.25-1.88l4.93-5.51a3.17,3.17,0,0,1,.41-.62l-1.33.66a1.47,1.47,0,0,1-1.77-.74h0a1.2,1.2,0,0,1,.27-1.74"/><path class="cls-2" d="M263.16,141.42s13.87,38.4,21.9-.93"/><path class="cls-22" d="M280.71,136.61a5.22,5.22,0,0,0,4.41,3.73c3,.56,5.94-.86,6.54-3.16l1.48-5.67a.5.5,0,0,0,0-.12l0-.06,2-7.66c.16-.6-.35-1.21-1.14-1.35a1.44,1.44,0,0,0-1.71.82l-1.09,4.17a5.84,5.84,0,0,0-1.08-.58l1.3-5c.16-.6-.35-1.21-1.14-1.35a1.44,1.44,0,0,0-1.71.82l-1.3,5a7.1,7.1,0,0,0-1.14.12l1.11-4.3c.16-.6-.35-1.21-1.14-1.36a1.45,1.45,0,0,0-1.71.83l-1.86,7.16a3.31,3.31,0,0,0-.29.67l-.19-1.47a1.46,1.46,0,0,0-1.59-1.06h0c-.8,0-1.38.57-1.3,1.19"/><polygon class="cls-1" points="265.93 134.51 265.93 156.64 260.94 145.57 259.49 135.78 265.93 134.51"/><path class="cls-3" d="M159.44,174c1.81-.79,4.29-.2,6.17,1.68,2.4,2.38,2.95,6,1.23,8l-4.24,4.92-.1.09,0,.06-5.73,6.63a1.35,1.35,0,0,1-2-.19,1.6,1.6,0,0,1-.32-2.08l3.12-3.61a7.29,7.29,0,0,1-1.21-.62l-3.74,4.33a1.34,1.34,0,0,1-2-.19,1.59,1.59,0,0,1-.32-2.08l3.74-4.33a6.42,6.42,0,0,1-.61-1.12l-3.22,3.72a1.35,1.35,0,0,1-2-.18,1.62,1.62,0,0,1-.32-2.09l5.36-6.19a3.52,3.52,0,0,1,.44-.69l-1.46.75a1.61,1.61,0,0,1-2-.78h0a1.33,1.33,0,0,1,.26-1.94"/><polyline class="cls-4" points="189.94 247.1 185.07 196.57 200.53 196.57 194.22 248.56 190.47 244.83"/><polygon class="cls-23" points="197.86 218.56 187.25 218.56 189.75 248.14 194.93 248.14 197.86 218.56"/><polyline class="cls-4" points="210.72 247.1 205.86 196.57 221.31 196.57 215 248.56 211.26 244.83"/><polygon class="cls-23" points="218.64 218.56 208.04 218.56 210.54 248.14 215.72 248.14 218.64 218.56"/><path class="cls-13" d="M179.88,248.56c0-3.92,3.65-7.09,8.15-7.09s8.15,3.17,8.15,7.09"/><path class="cls-13" d="M216.55,248.56c0-3.92-3.65-7.09-8.15-7.09s-8.15,3.17-8.15,7.09"/><path class="cls-4" d="M145.4,157.08c0-39.32,23.66-94.67,58.14-94.67,36.31,0,58.13,54.55,58.13,93.87s-22.88,48.53-58.13,48.53S145.4,196.4,145.4,157.08Z"/><path class="cls-5" d="M164.64,97.29s2.17-7.88,10.79-5.13"/><path class="cls-5" d="M209.4,96.64S207.33,89,199.08,92.7"/><path class="cls-7" d="M198.65,115.47s-2.23,10.15-13.25,9.84-11.88-9.84-11.88-9.84Z"/><path class="cls-6" d="M162.92,109.3c0-5,4.36-9.06,9.73-9.06s9.73,4.06,9.73,9.06"/><path class="cls-7" d="M163.92,104.7l-5.21-2.06,4.62,3.63c-.06.21-.11.4-.15.6l-4.51-.57,4.31,1.82a8.1,8.1,0,0,0,0,.95c2.42-7.66,7.25-8.68,8.63-8.81C167.13,100.38,165,102.54,163.92,104.7Z"/><path class="cls-7" d="M171.56,100.26l.39,0Z"/><path class="cls-7" d="M202.42,100.26a3.49,3.49,0,0,0-.39,0C202.17,100.23,202.28,100.25,202.42,100.26Z"/><path class="cls-19" d="M241.72,136.51s-5.77,33.54-39.3,14.73"/><path class="cls-22" d="M207,147a5.5,5.5,0,0,1-.46,6.17c-1.85,2.69-5.22,3.82-7.47,2.52l-5.56-3.22-.11-.07-.07,0L185.79,148a1.3,1.3,0,0,1-.18-1.9,1.57,1.57,0,0,1,1.95-.66l4.09,2.37a6,6,0,0,1,.37-1.26l-4.9-2.84a1.3,1.3,0,0,1-.19-1.9,1.57,1.57,0,0,1,2-.65l4.9,2.83a6.89,6.89,0,0,1,1-.77l-4.21-2.44a1.3,1.3,0,0,1-.19-1.9,1.58,1.58,0,0,1,2-.66l7,4.06a4.4,4.4,0,0,1,.75.31l-1-1.27a1.54,1.54,0,0,1,.39-2h0a1.32,1.32,0,0,1,1.92-.07"/><path class="cls-6" d="M210.28,109.2c0-5-4.36-9.07-9.73-9.07s-9.73,4.06-9.73,9.07"/><path class="cls-7" d="M209.29,104.6l5.2-2.07-4.61,3.63c.06.21.1.41.14.6l4.52-.56L210.22,108a7.9,7.9,0,0,1,.05.94c-2.41-7.66-7.25-8.67-8.63-8.81C206.07,100.28,208.24,102.44,209.29,104.6Z"/><path class="cls-5" d="M118.42,90.05s3.15,7.54,11.35,3.74"/><path class="cls-5" d="M84.56,96.17s2.07-7.65,10.32-3.93"/><path class="cls-7" d="M164.31,109.3a4.85,4.85,0,1,1,9.69,0"/><path class="cls-7" d="M192.63,109.2a4.85,4.85,0,1,1,9.69,0"/><path class="cls-7" d="M271.3,107.28a4.85,4.85,0,1,1,9.69,0"/><path class="cls-7" d="M303.84,107.18a4.85,4.85,0,1,1,9.69,0"/></svg>