<svg xmlns="http://www.w3.org/2000/svg" viewBox="0 0 278 282.22"><defs><style>.cls-1,.cls-10,.cls-11,.cls-2,.cls-9{fill:none;stroke-linecap:round;stroke-miterlimit:10;}.cls-1{stroke:#633516;stroke-width:6.08px;}.cls-2{stroke:#2488b5;stroke-width:5.24px;}.cls-3{fill:#a1cbec;}.cls-4{fill:#0aa0cc;}.cls-5{fill:#57c4cf;}.cls-6{fill:#504b48;}.cls-7{fill:#0d4061;}.cls-8{fill:#fff;}.cls-9{stroke:#2785aa;stroke-width:1.22px;}.cls-10{stroke:#0d4061;stroke-width:2.43px;}.cls-11{stroke:#231f20;stroke-width:1.82px;}</style></defs><g id="Layer_2" data-name="Layer 2"><path class="cls-1" d="M222.87,275.21l1.09-54s.16-9.25,7.87-9.52l7.07-.79"/><path class="cls-2" d="M195.8,169.1s26.22-2.56,31.29,29.79"/><path class="cls-3" d="M219,213.81a1.59,1.59,0,0,0,1.61,1.67h0a1.82,1.82,0,0,0,1.9-1.54l.2-2.1a5.56,5.56,0,0,0,.36,1L225.5,223a1.78,1.78,0,0,0,3.44-.81l-1.45-6.1a7.13,7.13,0,0,0,1.39.15l1.68,7.09a1.78,1.78,0,0,0,3.44-.82l-1.68-7.09a7.24,7.24,0,0,0,1.3-.84l1.4,5.91a1.78,1.78,0,0,0,3.44-.81l-2.57-10.87,0-.08,0-.17-1.91-8c-.77-3.26-4.37-5.23-8-4.37a6.77,6.77,0,0,0-5.25,5.4Z"/><path class="cls-2" d="M65.88,164.9S48.09,177.15,51.19,207"/><path class="cls-3" d="M64,216.91a1.57,1.57,0,0,1-.91,2.12h0a1.83,1.83,0,0,1-2.33-.77l-.92-1.9a5.06,5.06,0,0,1,0,1l1.32,10.35a1.78,1.78,0,0,1-3.51.45L56.82,222a6.65,6.65,0,0,1-1.25.63l.93,7.23a1.78,1.78,0,0,1-3.51.44L52.07,223a7.46,7.46,0,0,1-1.52-.33l.77,6a1.78,1.78,0,0,1-3.51.45L46.4,218.11V218a.86.86,0,0,1,0-.17l-1-8.2c-.42-3.33,2.25-6.43,5.94-6.9A6.76,6.76,0,0,1,58.08,206Z"/><path class="cls-4" d="M122.43,226.74c17.92,1.26,20.61,1.89,37.51-5,30.71-12.6,47.87-52,53.45-81.86,3.17-17,5.8-36.86.83-53.7-6-20.39-23.53-36.39-44.86-38.94l-48.47-5.77C91.67,38,65.29,59.92,62,90.51a365.33,365.33,0,0,0-2.5,41.66,209.52,209.52,0,0,0,2.65,33c3,18.19,19,42.24,35.25,53.25C97.36,218.45,105.79,226,122.43,226.74Z"/><polyline class="cls-4" points="163.98 211.94 153.42 276.93 147.29 276.93 136.74 212.14"/><polygon class="cls-5" points="147.16 276.12 143.24 252.35 157.41 252.35 153.28 276.97 147.16 276.12"/><path class="cls-6" d="M174.87,277.54a14.61,14.61,0,0,0-29.22,0"/><polyline class="cls-4" points="101.74 212.53 112.29 277.51 118.43 277.51 128.98 212.73"/><polygon class="cls-5" points="118.55 277.26 122.61 252.35 108.11 252.35 112.43 278.11 118.55 277.26"/><path class="cls-6" d="M90.85,278.13a14.61,14.61,0,1,1,29.21,0"/><path class="cls-7" d="M124.75,129.76s1.51,7.88,13.21,9,13.43-6,13.43-6Z"/><path class="cls-8" d="M177.63,120.23a9,9,0,0,0-17.95-2"/><path class="cls-9" d="M159.46,118c-2,6.32,3,12.1,7.95,12.66"/><path class="cls-10" d="M180.61,106.44s-8.8-3.75-11.84-4"/><line class="cls-10" x1="107.33" y1="97.83" x2="118.96" y2="97.16"/><path class="cls-7" d="M172.78,119.68a3.9,3.9,0,1,0-7.76-.88"/><path class="cls-8" d="M123.44,113.45a9,9,0,0,0-18-2"/><path class="cls-7" d="M118.59,112.9a3.9,3.9,0,1,0-7.76-.88"/><circle class="cls-11" cx="172.29" cy="115.08" r="23.51"/><circle class="cls-11" cx="108.35" cy="107.94" r="23.51"/><path class="cls-11" d="M149.27,109.87s-8.24-12-17.65-1.87"/><path class="cls-9" d="M123.08,114.09c.54,5-5.44,11.74-12.28,9.81"/><path class="cls-9" d="M169,81.45a85.86,85.86,0,0,1-45.48-6.26"/></g></svg>