<svg xmlns="http://www.w3.org/2000/svg" viewBox="0 0 348 282.35"><defs><style>.cls-1{fill:#fee685;}.cls-2{fill:#319c47;}.cls-13,.cls-16,.cls-17,.cls-18,.cls-3{fill:none;stroke-linecap:round;stroke-miterlimit:10;}.cls-18,.cls-3{stroke:#0f8ab2;}.cls-3{stroke-width:4px;}.cls-4{fill:#00a1cd;}.cls-5{fill:#a2cced;}.cls-6{fill:#ffcb05;}.cls-7{fill:#504b48;}.cls-8{fill:#fcda5c;}.cls-9{fill:#ffcc04;}.cls-10{fill:#a1cbec;}.cls-11{fill:#282827;}.cls-12{fill:#3e3f40;}.cls-13{stroke:#010101;stroke-width:0.5px;}.cls-14{fill:#0d4060;}.cls-15{fill:#fff;}.cls-16,.cls-17{stroke:#0d4060;}.cls-16{stroke-width:2px;}.cls-17{stroke-width:1.51px;}.cls-18{stroke-width:3.81px;}</style></defs><g id="Layer_1" data-name="Layer 1"><polyline class="cls-1" points="0 282.35 0 1.02 348 1.02 348 282.35"/><rect class="cls-2" y="214.11" width="348" height="68.24"/><path class="cls-3" d="M255.28,153.13s-19.82,2.22-31.66-15.9"/><path class="cls-4" d="M240.91,133.11v27.47c0,18,4.77,39.5,32.67,39.5h9.87c27,0,32.67-21.45,32.67-39.5V94.94a27.64,27.64,0,0,0-27.64-27.65H268.55a27.64,27.64,0,0,0-27.64,27.65v38.17Z"/><path class="cls-3" d="M308.66,152.52s2,22.56-23,29"/><path class="cls-5" d="M284.83,176.07a5,5,0,0,1,3.83,4c.7,2.86-.51,5.77-2.68,6.47l-5.38,1.73-.12,0-.05,0-7.26,2.33c-.57.19-1.19-.27-1.37-1a1.39,1.39,0,0,1,.7-1.69l3.95-1.28a5.89,5.89,0,0,1-.61-1l-4.74,1.53c-.57.18-1.18-.28-1.37-1a1.4,1.4,0,0,1,.7-1.69l4.74-1.52a6.77,6.77,0,0,1,.05-1.11l-4.07,1.31c-.57.19-1.19-.28-1.37-1a1.39,1.39,0,0,1,.7-1.69l6.79-2.19a2.91,2.91,0,0,1,.64-.31l-1.43-.1a1.41,1.41,0,0,1-1.11-1.47h0c0-.77.48-1.37,1.07-1.32"/><polyline class="cls-4" points="264.44 193.08 267.94 237.22 272.13 237.22 275.62 193.22"/><polygon class="cls-6" points="272.12 242.78 268.17 242.78 266.05 218.59 273.7 218.59 272.12 242.78"/><path class="cls-7" d="M258.11,243a7,7,0,0,1,14.09,0"/><polyline class="cls-4" points="280.03 193.63 283.52 237.76 287.71 237.76 291.21 193.76"/><polygon class="cls-6" points="287.71 243.33 283.75 243.33 281.64 219.14 289.28 219.14 287.71 243.33"/><path class="cls-7" d="M273.7,243.55a7,7,0,1,1,14.08,0"/><path class="cls-8" d="M32.89,103.79c0-41.2,31-73.53,70.16-73.53S174,63.66,174,104.86v68.28H33V116.37S32.89,107.71,32.89,103.79Z"/><rect class="cls-9" x="32.98" y="148.2" width="140.97" height="24.9"/><path class="cls-10" d="M227.56,134.78a4.59,4.59,0,0,1-1.12,5c-1.81,2-4.63,2.54-6.27,1.25l-4-3.2-.08-.07-.05,0-5.46-4.32a1.07,1.07,0,0,1,.08-1.56,1.27,1.27,0,0,1,1.64-.33l3,2.35a5.79,5.79,0,0,1,.46-1L212.12,130a1.06,1.06,0,0,1,.09-1.55,1.27,1.27,0,0,1,1.64-.33l3.56,2.82a7.12,7.12,0,0,1,.86-.53L215.21,128a1.07,1.07,0,0,1,.08-1.56,1.27,1.27,0,0,1,1.64-.32l5.11,4a3.16,3.16,0,0,1,.56.33l-.65-1.14a1.28,1.28,0,0,1,.56-1.58h0a1,1,0,0,1,1.54.14"/><rect class="cls-11" x="206.38" y="112.45" width="15.25" height="27.73" rx="2.23" transform="translate(-8.01 14.68) rotate(-3.86)"/><rect class="cls-12" x="207.88" y="113.92" width="12.03" height="21.42" rx="1.63" transform="translate(-7.9 14.67) rotate(-3.86)"/><ellipse class="cls-12" cx="214.59" cy="137.47" rx="1.23" ry="0.62" transform="translate(-8.76 14.75) rotate(-3.86)"/><polyline class="cls-13" points="208.81 105.01 208.33 90.01 214.64 105.09 218.97 83.53 219.29 104.11 230.67 94.25 223.06 107.72 235.02 101.23 226.76 113.06"/><polyline class="cls-13" points="203.54 108.13 196.01 94.99 198.84 109.6 182.87 100.78 195.6 112.91 181.42 113.28 197.01 118.11 187.38 122.98 197.69 123.82"/><polyline class="cls-13" points="196.22 127.88 189.05 134.39 197.36 132.25 194.6 138.88 198.76 136.79"/><path class="cls-14" d="M275.32,115.65s-1.79,6.73-10.59,6.56-9.48-6.56-9.48-6.56Z"/><path class="cls-15" d="M243.62,109.53a8.81,8.81,0,1,1,17.61,0"/><path class="cls-15" d="M270.53,109.53a8.81,8.81,0,1,1,17.61,0"/><path class="cls-14" d="M246.37,109.53a3.81,3.81,0,0,1,7.62,0"/><path class="cls-14" d="M272.28,109.53a3.81,3.81,0,0,1,7.62,0"/><line class="cls-16" x1="244.52" y1="97.03" x2="257.16" y2="95.93"/><line class="cls-16" x1="288.58" y1="97.11" x2="275.32" y2="95.37"/><path class="cls-4" d="M114.09,178.17c-8.89,1.25-8.64,0-16.8,0-13.05,0-25.14-10.42-29-22.85-5.18-16.63-7.89-34.48-11.58-51.54-1.75-8.1-4.22-15.6-3-24.08a38.21,38.21,0,0,1,1.43-6.2c2.53-7.88,9.79-16,16.77-19.7,3-1.57,10.06-2.45,13.55-2.46,14.71,0,27.16,0,41.87.09,5.39,0,11.52.14,16.12,3.64,5.05,3.84,10,9.3,12.34,15.53,5.5,14.36-.44,30.09-3.53,44.39q-3.23,14.87-6.44,29.73c-1.86,8.66-4.72,17.08-10.16,24.08C131.05,174.67,121,177.2,114.09,178.17Z"/><path class="cls-4" d="M114.09,178.17c-8.89,1.25-8.64,0-16.8,0-13.05,0-25.14-10.42-29-22.85-5.18-16.63-7.89-34.48-11.58-51.54-1.75-8.1-4.22-15.6-3-24.08a38.21,38.21,0,0,1,1.43-6.2c2.53-7.88,9.79-16,16.77-19.7,3-1.57,10.06-2.45,13.55-2.46,14.71,0,27.16,0,41.87.09,5.39,0,11.52.14,16.12,3.64,5.05,3.84,10,9.3,12.34,15.53,5.5,14.36-.44,30.09-3.53,44.39q-3.23,14.87-6.44,29.73c-1.86,8.66-4.72,17.08-10.16,24.08C131.05,174.67,121,177.2,114.09,178.17Z"/><line class="cls-17" x1="91.52" y1="81.91" x2="101.65" y2="77.79"/><line class="cls-17" x1="129.95" y1="78.28" x2="120.88" y2="73.79"/><path class="cls-15" d="M114.61,90.38a7.78,7.78,0,0,1,15.52,0"/><path class="cls-14" d="M120.88,90.38a3.38,3.38,0,0,1,6.75,0"/><path class="cls-15" d="M91.52,90.38a7.82,7.82,0,0,1,15.61,0"/><path class="cls-14" d="M97.79,90.38a3.38,3.38,0,0,1,6.75,0"/><path class="cls-14" d="M98.61,83.11h0Z"/><path class="cls-14" d="M123.05,83.11h0Z"/><rect class="cls-1" x="23.31" y="160.66" width="161.55" height="42.89"/><path class="cls-18" d="M69.56,124.21s4.84,18.29,34.76,14.71"/><path class="cls-5" d="M102.24,134.4a5,5,0,0,0-2,5.12c.4,2.89,2.59,5.13,4.85,5l5.58-.38.12,0h.06l7.54-.52a1.15,1.15,0,0,0,.88-1.44,1.37,1.37,0,0,0-1.27-1.3l-4.1.28a6.25,6.25,0,0,0,.2-1.16l4.92-.33c.59,0,1-.69.88-1.45a1.39,1.39,0,0,0-1.27-1.3l-4.92.34a5.65,5.65,0,0,0-.45-1l4.23-.29c.59,0,1-.69.88-1.45a1.37,1.37,0,0,0-1.27-1.3l-7,.48a4.12,4.12,0,0,0-.7,0l1.27-.62a1.39,1.39,0,0,0,.48-1.76h0a1.14,1.14,0,0,0-1.47-.82"/></g><g id="Layer_2" data-name="Layer 2"><path class="cls-14" d="M104.42,103.55c-1.17.23-2.32-1.07-1.64-2,1.33-1.91,2.88-3.81,7.62-4.61s7.28.08,8.76,1.47a1.48,1.48,0,0,1-.75,2.53l-3.94-.47a11,11,0,0,0-6.56,1.24Z"/><path class="cls-3" d="M145.76,120.68s-6.35,15.36-24.4-3.11"/><path class="cls-5" d="M113.19,119.52a5.82,5.82,0,0,1-1.79-1.37,1.18,1.18,0,0,1,.21-1.89c.2-.15.18-.21.06-.38a5,5,0,0,1-.3-.56,1.45,1.45,0,0,1,.62-1.39c.37-.2.48-.37.29-.77a1.33,1.33,0,0,1,.1-1.19c.2-.43.67-.51,1-.77,0-.23-.21-.28-.34-.37-1.18-.84-1.45-1.69-2.62-2.54a1.22,1.22,0,0,1-.43-1.7,1.17,1.17,0,0,1,1.79-.38c.47.28.9.62,1.35.93,2,1.43,3.16,2.87,5.21,4.3.21.15.45.38.7.23s0-.44,0-.66a4.59,4.59,0,0,1,2.6-4.87,1.6,1.6,0,0,1,1.78.27c.38.62,0,1.09-.36,1.57-1.32,1.86-.94,3.59.44,5.23a11.22,11.22,0,0,1,1.47,1.9c1.44,2.64-.81,5.34-3.18,6.37C118.82,122.75,115.68,121.09,113.19,119.52Z"/></g></svg>