<svg id="Layer_1" data-name="Layer 1" xmlns="http://www.w3.org/2000/svg" viewBox="0 0 348 282.35"><defs><style>.cls-1{fill:#f9da78;}.cls-2{fill:#ffcb05;}.cls-3{fill:#ddbd60;}.cls-4{fill:#6d4c1e;}.cls-13,.cls-19,.cls-21,.cls-5,.cls-7{fill:none;stroke-linecap:round;stroke-miterlimit:10;}.cls-21,.cls-5,.cls-7{stroke:#0f8ab2;}.cls-5{stroke-width:3.29px;}.cls-6{fill:#757576;}.cls-7{stroke-width:5.2px;}.cls-8{fill:#a2cced;}.cls-9{fill:#00a1cd;}.cls-10{fill:#0aa0cc;}.cls-11{fill:#5754a3;}.cls-12{fill:#504b48;}.cls-13{stroke:#0d4061;stroke-width:1.56px;}.cls-14{fill:#0d4061;}.cls-15{fill:#fff;}.cls-16{fill:#252728;}.cls-17{fill:#444445;}.cls-18{fill:#ed1651;}.cls-19{stroke:#0d4060;stroke-width:1.21px;}.cls-20{fill:#0d4060;}.cls-21{stroke-width:2.86px;}</style></defs><polyline class="cls-1" points="0 282.35 0 0 348 0 348 281.99"/><rect class="cls-2" y="181.43" width="348" height="100.92"/><path class="cls-3" d="M276.56,16v0h-1v0c-30.1.54-58.15,24.78-58.15,55.59,0,3,.07,9.51.07,9.51V181.43H334.64V81.12s.08-6.55.08-9.51C334.72,40.8,306.66,16.56,276.56,16Z"/><rect class="cls-4" x="211.76" y="18.55" width="5.61" height="164.38" rx="2.81"/><path class="cls-5" d="M263.09,110s-10.78,26.05-37,4.79"/><circle class="cls-6" cx="208.62" cy="116.19" r="2.6"/><path class="cls-7" d="M136.47,159.61c-2.44-.5,26.21,6.18,37.82-26.74"/><path class="cls-8" d="M169.63,131.23c-.44,2.32.91,5.05,3.59,6.75,3.42,2.16,7.74,1.86,9.6-.67l4.6-6.26a1,1,0,0,0,.09-.13l.06-.06,6.21-8.44a1.61,1.61,0,0,0-.74-2.23,1.91,1.91,0,0,0-2.51.17l-3.38,4.6a7.59,7.59,0,0,0-1.05-1.24l4.06-5.51a1.62,1.62,0,0,0-.74-2.23,1.9,1.9,0,0,0-2.51.17l-4.06,5.51a9.67,9.67,0,0,0-1.46-.42l3.48-4.73a1.61,1.61,0,0,0-.73-2.23,1.91,1.91,0,0,0-2.52.18l-5.8,7.88a5.08,5.08,0,0,0-.69.7l.5-1.9a2,2,0,0,0-1.44-2.09h0a1.6,1.6,0,0,0-2.19.82"/><path class="cls-9" d="M17.35,163.9c0-39.47,31.55-95,68.61-95,39,0,68.62,54.74,68.62,94.21S123.86,211.8,86,211.8,17.35,203.36,17.35,163.9Z"/><path class="cls-10" d="M94.35,199.43l16.33,19.92a13.11,13.11,0,0,1,1.8,7.51l-1.87,25.49a3.34,3.34,0,0,0,3.35,3.33,3.12,3.12,0,0,0,.43,0h0a3.41,3.41,0,0,0,3.15-2.45l7.33-26.4c.8-3.21,2.66-6.58,1.44-9.68l-6.72-20.32"/><polygon class="cls-11" points="117.75 254.16 110.39 255.94 111.86 233.46 122.98 234.32 117.75 254.16"/><path class="cls-12" d="M132.3,256.69c0-4.93-4.83-9-10.87-9.07s-11,3.84-11,8.77"/><path class="cls-10" d="M55.34,191.37l10.1,24.75a11.29,11.29,0,0,1-1.78,7.66l-.11.16a11.2,11.2,0,0,1-2.86,2.76L40.81,240.3c-1.11,1.11-.19,1.82,1.12,2.59A11.83,11.83,0,0,1,44,244.42l.6.55c1.28.77-.14.7,1-.18l24.73-11.54a48.76,48.76,0,0,0,5.8-3.42c2-1.74,2.5-2.16,3.53-4.49a9.55,9.55,0,0,0,.48-1.36l4.76-23.67"/><polygon class="cls-11" points="45.14 245.66 40.14 240.53 57.91 228.6 64.19 236.22 45.14 245.66"/><path class="cls-12" d="M54.69,254.67c3.73-3.6,3.15-9.51-1.3-13.21s-11.08-3.76-14.82-.15"/><path class="cls-13" d="M137.85,106.66s-3.79-7.68-12.1-3.13"/><path class="cls-13" d="M91.27,106.66s3.81-7.83,12.13-3.31"/><path class="cls-14" d="M101.78,127.37s2.35,7.52,13.88,7.28,12.49-7.28,12.49-7.28Z"/><path class="cls-15" d="M110,120.33c0-5.2-4.54-9.5-10.13-9.5s-10.13,4.26-10.13,9.5"/><path class="cls-14" d="M106.28,118.64a5.78,5.78,0,0,0,3.72.19,10.11,10.11,0,0,0-7-7.67A5.83,5.83,0,0,0,106.28,118.64Z"/><path class="cls-15" d="M140.14,120.33c0-5.2-4.57-9.5-10.19-9.5s-10.19,4.26-10.19,9.5"/><path class="cls-14" d="M139.1,115.51l5.44-2.16-4.83,3.8a5.29,5.29,0,0,1,.16.63l4.72-.59-4.51,1.9a8.18,8.18,0,0,1,0,1c-2.67-8.45-8.15-9.18-9.24-9.24,4.78.06,7.1,2.37,8.22,4.67"/><path class="cls-14" d="M85.27,117.19l4.73.58c0-.19.09-.4.15-.62l-4.83-3.8,5.45,2.16c1.11-2.3,3.42-4.61,8.22-4.67-1,.06-6.59.79-9.25,9.24a8.18,8.18,0,0,1,0-1Z"/><rect class="cls-16" x="175.12" y="105.34" width="19.14" height="34.78" rx="3.08" transform="translate(-5.42 8.58) rotate(-2.62)"/><rect class="cls-17" x="177.07" y="107.43" width="15.15" height="28.58" rx="2.51" transform="translate(-5.37 8.57) rotate(-2.62)"/><path class="cls-7" d="M49,155.08c-.87-2.69,1.41,25.6,42.39,17.48"/><path class="cls-8" d="M92.27,165c-1.78,1-2.82,3.42-2.43,6.13.49,3.45,3.11,6.12,5.82,5.93l6.68-.48.14,0h.07l9-.65a1.39,1.39,0,0,0,1.06-1.73,1.66,1.66,0,0,0-1.52-1.55l-4.91.35a7.65,7.65,0,0,0,.23-1.38l5.88-.42c.71-.05,1.18-.83,1-1.74a1.62,1.62,0,0,0-1.52-1.54l-5.88.41a8.56,8.56,0,0,0-.55-1.19l5.06-.36a1.39,1.39,0,0,0,1.05-1.73,1.64,1.64,0,0,0-1.52-1.55l-8.43.6a3.87,3.87,0,0,0-.84-.06l1.53-.75a1.67,1.67,0,0,0,.56-2.11h0a1.37,1.37,0,0,0-1.76-1"/><path class="cls-9" d="M282.82,41.31c-21.3,0-38.57,5.52-38.57,29.09a136.13,136.13,0,0,0,1.55,17.92,173.43,173.43,0,0,0,4.29,19.5c.72,2.81,1.5,5.28,1.22,8.24-.24,2.59-1.51,5.22-2.61,7.56-3,6.3-3.77,12.78-1.57,19.51a19.13,19.13,0,0,0,9,10.26c8.2,4.63,11.44,4.39,28.19,4.39,9.94,0,20.3-.8,28.45-7.48a22.81,22.81,0,0,0,7.15-10.73,26.69,26.69,0,0,0,1.2-6.19c.43-3.58-.69-8.17-2-11.42-1.93-4.89-3.81-11.41-2.53-16.77,3-12.48,4.83-28.94,4.83-35.26,0-23.58-17.27-28.62-38.58-28.62"/><polyline class="cls-9" points="267.71 154.46 271.5 180.89 275.1 180.89 279.04 155.9"/><polygon class="cls-18" points="274.98 180.89 276.69 170.96 270.15 170.96 271.39 180.06 274.98 180.89"/><path class="cls-12" d="M275.26,181.48a6,6,0,1,0-12.09,0"/><polyline class="cls-9" points="284.91 154.46 288.7 180.89 292.3 180.89 296.24 155.9"/><polygon class="cls-18" points="292.18 180.89 293.88 170.96 287.35 170.96 288.59 180.06 292.18 180.89"/><path class="cls-12" d="M292.46,181.48a6,6,0,1,0-12.09,0"/><path class="cls-19" d="M264.63,72s2.32-4.71,7.42-1.93"/><path class="cls-19" d="M295.1,72s-1.69-4.8-6.8-2"/><path class="cls-20" d="M288.66,86.12s-1.44,4.61-8.51,4.47-7.63-4.47-7.63-4.47Z"/><path class="cls-15" d="M283.62,80.42a6.22,6.22,0,0,1,12.42,0"/><path class="cls-20" d="M287.16,80.42a2.71,2.71,0,0,1,5.41,0"/><path class="cls-15" d="M265.14,80.42a6.27,6.27,0,0,1,12.5,0"/><path class="cls-20" d="M268.69,80.42a2.7,2.7,0,0,1,5.4,0"/><path class="cls-20" d="M265.78,77.47l-3.34-1.33,3,2.34-.09.38-2.9-.36,2.77,1.17c0,.36,0,.6,0,.6,1.55-4.91,4.65-5.57,5.54-5.65C267.85,74.7,266.45,76.08,265.78,77.47Z"/><path class="cls-20" d="M270.69,74.62l.25,0Z"/><path class="cls-20" d="M298.78,78.5l-2.9.36a2.62,2.62,0,0,0-.09-.38l3-2.34-3.34,1.33c-.67-1.39-2.06-2.77-4.91-2.85.89.08,4,.74,5.54,5.65a4.53,4.53,0,0,0,0-.61Z"/><path class="cls-20" d="M290.5,74.62l-.25,0Z"/><path class="cls-21" d="M311.29,118s4.78,7.6-9.07,21.13"/><path class="cls-8" d="M293.82,138.33a.8.8,0,0,0-.33,1.12h0a1,1,0,0,0,1.09.64l.93-.32a2.24,2.24,0,0,0-.32.37l-3.7,3.18a1,1,0,0,0,0,1.25.81.81,0,0,0,1.14.28l2.22-1.9a6,6,0,0,0,.26.71l-2.58,2.22a1,1,0,0,0,0,1.25.81.81,0,0,0,1.14.29l2.59-2.22a4.11,4.11,0,0,0,.65.47l-2.16,1.85a1,1,0,0,0,0,1.26.81.81,0,0,0,1.14.28l4-3.4,0,0,.06,0,2.94-2.52c1.18-1,1.18-3.18,0-4.79a3.44,3.44,0,0,0-3.48-1.54Z"/><path class="cls-8" d="M227.37,108.85a.81.81,0,0,0-1.17,0h0a1,1,0,0,0-.3,1.23l.56.8a3.55,3.55,0,0,0-.44-.21L221.93,108a.94.94,0,0,0-1.2.35.8.8,0,0,0,0,1.17l2.45,1.6a5,5,0,0,0-.61.45l-2.85-1.86a1,1,0,0,0-1.2.36.81.81,0,0,0,0,1.17l2.86,1.86a4.67,4.67,0,0,0-.28.76l-2.38-1.55a1,1,0,0,0-1.2.35.81.81,0,0,0,.05,1.18L222,116.7l0,0,.06,0,3.24,2.11c1.31.86,3.38.24,4.6-1.36a3.45,3.45,0,0,0,.5-3.78Z"/><circle class="cls-6" cx="219.9" cy="116.19" r="2.6"/><path class="cls-14" d="M136.08,118.64a5.78,5.78,0,0,0,3.72.19,10.09,10.09,0,0,0-7-7.67A5.83,5.83,0,0,0,136.08,118.64Z"/></svg>