<svg id="Layer_1" data-name="Layer 1" xmlns="http://www.w3.org/2000/svg" viewBox="0 0 348 282.35"><defs><style>.cls-1{fill:#f9da78;}.cls-2{fill:#ffcb05;}.cls-12,.cls-14,.cls-3,.cls-9{fill:none;stroke-linecap:round;stroke-miterlimit:10;}.cls-12,.cls-3{stroke:#0f8ab2;}.cls-3{stroke-width:5.2px;}.cls-4{fill:#a2cced;}.cls-5{fill:#00a1cd;}.cls-6{fill:#0aa0cc;}.cls-7{fill:#5754a3;}.cls-8{fill:#504b48;}.cls-9{stroke:#0d4061;stroke-width:1.56px;}.cls-10{fill:#0d4061;}.cls-11{fill:#fff;}.cls-12{stroke-width:5px;}.cls-13{fill:#ed1651;}.cls-14{stroke:#0d4060;stroke-width:1.98px;}.cls-15{fill:#0d4060;}.cls-16{fill:#252728;}.cls-17{fill:#666868;}</style></defs><polyline class="cls-1" points="0.35 282.84 0.35 0.49 348.35 0.49 348.35 282.48"/><rect class="cls-2" x="0.35" y="252.58" width="348" height="30.26"/><path class="cls-3" d="M121.46,144.69c-2.79-.43,23.52,10.21,34.62-30.06"/><path class="cls-4" d="M149.69,110.41c.1,2,1.8,4,4.39,4.91,3.31,1.11,6.87,0,7.91-2.54l2.56-6.19s0-.09,0-.13,0,0,0-.06l3.47-8.35A1.4,1.4,0,0,0,167,96.33,1.64,1.64,0,0,0,165,97l-1.88,4.54a6.9,6.9,0,0,0-1.14-.82l2.26-5.45c.28-.66-.21-1.43-1.07-1.72a1.64,1.64,0,0,0-2.07.67l-2.26,5.44a8.23,8.23,0,0,0-1.31,0l1.94-4.69c.27-.65-.21-1.42-1.08-1.71a1.66,1.66,0,0,0-2.07.66L153,101.69a3.71,3.71,0,0,0-.43.72l0-1.7A1.67,1.67,0,0,0,151,99.27h0c-.9-.09-1.65.42-1.66,1.13"/><path class="cls-5" d="M10.7,164.39c0-39.47,31.55-95,68.61-95,39,0,68.62,54.75,68.62,94.21s-30.72,48.7-68.62,48.7S10.7,203.85,10.7,164.39Z"/><path class="cls-6" d="M87.7,199.92,104,219.84a13.13,13.13,0,0,1,1.81,7.52L104,252.85a3.34,3.34,0,0,0,3.35,3.32,3.09,3.09,0,0,0,.43,0h0a3.4,3.4,0,0,0,3.15-2.45l7.33-26.39c.8-3.22,2.66-6.59,1.44-9.69l-6.72-20.32"/><polygon class="cls-7" points="111.1 254.65 103.74 256.44 105.22 233.95 116.33 234.82 111.1 254.65"/><path class="cls-8" d="M125.65,257.18c0-4.92-4.83-9-10.87-9.07s-11,3.84-11,8.77"/><path class="cls-6" d="M48.69,191.86l10.1,24.75A11.29,11.29,0,0,1,57,224.27l-.11.16A11.2,11.2,0,0,1,54,227.19l-19.88,13.6c-1.11,1.11-.19,1.82,1.12,2.59a11.83,11.83,0,0,1,2.06,1.53l.6.56c1.28.76-.14.69,1.05-.19l24.74-11.54a49.44,49.44,0,0,0,5.79-3.42c2-1.74,2.5-2.16,3.53-4.49a9.55,9.55,0,0,0,.48-1.36l4.76-23.67"/><polygon class="cls-7" points="38.49 246.15 33.49 241.02 51.26 229.1 57.54 236.71 38.49 246.15"/><path class="cls-8" d="M48,255.16c3.73-3.6,3.15-9.51-1.3-13.21s-11.08-3.76-14.82-.15"/><path class="cls-9" d="M131.2,107.15s-3.79-7.68-12.1-3.12"/><path class="cls-9" d="M84.62,107.15s3.81-7.83,12.13-3.31"/><path class="cls-10" d="M95.13,127.86s2.35,7.52,13.88,7.28,12.49-7.28,12.49-7.28Z"/><path class="cls-11" d="M103.35,120.82c0-5.2-4.54-9.5-10.13-9.5s-10.13,4.26-10.13,9.5"/><path class="cls-10" d="M99.63,119.13a5.78,5.78,0,0,0,3.72.19,10.09,10.09,0,0,0-7-7.67A5.83,5.83,0,0,0,99.63,119.13Z"/><path class="cls-11" d="M133.49,120.82c0-5.2-4.57-9.5-10.19-9.5s-10.19,4.26-10.19,9.5"/><path class="cls-10" d="M132.45,116l5.44-2.16-4.83,3.8a5.83,5.83,0,0,1,.16.63l4.73-.59-4.52,1.91a8,8,0,0,1,0,1c-2.67-8.45-8.15-9.18-9.24-9.24,4.78.06,7.1,2.37,8.22,4.67"/><path class="cls-10" d="M78.62,117.68l4.73.58c0-.19.09-.4.15-.62l-4.83-3.8L84.12,116c1.11-2.3,3.42-4.61,8.22-4.67-1,.06-6.59.79-9.25,9.24a8,8,0,0,1,0-1Z"/><path class="cls-3" d="M34.34,153.78c-2.82,0,24.83,6.42,29.51-35.1"/><path class="cls-4" d="M56.88,115.51c.42,2,2.41,3.72,5.11,4.17,3.44.58,6.78-1.11,7.41-3.74L71,109.43l0-.14s0-.05,0-.07l2.12-8.79c.17-.69-.43-1.37-1.33-1.52a1.64,1.64,0,0,0-1.94,1l-1.15,4.78a7,7,0,0,0-1.25-.64l1.38-5.73c.17-.69-.43-1.38-1.33-1.53a1.65,1.65,0,0,0-1.94,1l-1.38,5.73a7.83,7.83,0,0,0-1.3.16l1.19-4.93c.16-.69-.44-1.38-1.34-1.53a1.65,1.65,0,0,0-1.94,1l-2,8.22a4.09,4.09,0,0,0-.31.78l-.25-1.68a1.68,1.68,0,0,0-1.83-1.18h0c-.91.06-1.57.68-1.47,1.39"/><path class="cls-10" d="M129.43,119.13a5.79,5.79,0,0,0,3.72.19,10.07,10.07,0,0,0-7-7.67A5.83,5.83,0,0,0,129.43,119.13Z"/><path class="cls-12" d="M241.18,120.52s8.13,41.68-39.66,45.41"/><path class="cls-4" d="M203.87,159.16c2.16.65,3.87,3,4.12,6,.32,3.83-1.84,7.34-4.79,7.8l-7.3,1.13h-.15l-.08,0-9.84,1.53c-.78.12-1.48-.6-1.56-1.6a1.82,1.82,0,0,1,1.25-2l5.36-.83a7.92,7.92,0,0,1-.58-1.43l-6.43,1c-.77.12-1.47-.61-1.56-1.61a1.82,1.82,0,0,1,1.26-2l6.42-1a9.15,9.15,0,0,1,.29-1.42l-5.52.86c-.77.12-1.47-.61-1.56-1.61a1.82,1.82,0,0,1,1.26-2l9.2-1.42a3.84,3.84,0,0,1,.89-.28l-1.82-.42a1.84,1.84,0,0,1-1.13-2.13h0c.15-1,.89-1.66,1.65-1.48"/><path class="cls-5" d="M268.43,23c-34.81,1.6-62.62,11.91-60.86,50.42.45,9.77,2.14,19.57,3.88,29.16,1.94,10.65,5.31,21.21,8.47,31.54,1.39,4.55,2.84,8.53,2.61,13.38-.21,4.25-2.08,8.65-3.71,12.54-4.38,10.52-5.19,21.17-1.09,32,2.72,7.19,8.76,12.74,15.4,16.09,13.75,7,19,6.32,46.39,5.06,16.24-.74,33.11-2.81,45.92-14.35a37.09,37.09,0,0,0,10.88-18.06,43.42,43.42,0,0,0,1.5-10.2c.44-5.89-1.73-13.3-4.08-18.52-3.53-7.84-7.08-18.36-5.39-27.2,3.91-20.62,5.72-47.65,5.25-58C331.83,28.39,303.24,21.45,268.43,23"/><polyline class="cls-5" points="251.08 210.71 257.28 253.94 263.16 253.94 269.62 213.07"/><polygon class="cls-13" points="262.97 253.94 265.76 237.7 255.08 237.7 257.1 252.6 262.97 253.94"/><path class="cls-8" d="M263.43,254.91a9.89,9.89,0,0,0-19.78,0"/><polyline class="cls-5" points="279.21 210.71 285.41 253.94 291.29 253.94 298.5 208.3"/><polygon class="cls-13" points="291.1 253.94 293.89 237.7 283.21 237.7 285.23 252.6 291.1 253.94"/><path class="cls-8" d="M291.56,254.91a9.89,9.89,0,0,0-19.78,0"/><path class="cls-14" d="M210,76.06s1.16-8.51,10.51-6.85"/><path class="cls-14" d="M262.71,71.5s-2.79-7.85-11.13-3.3"/><path class="cls-15" d="M252.33,92.73a13.49,13.49,0,0,1-13.44,10.7c-11.57.21-12.92-9.49-12.92-9.49Z"/><path class="cls-11" d="M243.67,86.81c-.24-5.26,4.11-9.72,9.72-10s10.34,3.79,10.58,9"/><path class="cls-15" d="M246.47,86.68a4.42,4.42,0,1,1,8.83-.4"/><path class="cls-11" d="M213.49,88.19c-.24-5.25,4.13-9.72,9.77-10s10.4,3.79,10.64,9.05"/><path class="cls-15" d="M216.28,88.06a4.42,4.42,0,0,1,8.83-.4"/><path class="cls-15" d="M214.31,83.32l-5.56-1.92,5,3.59c0,.22-.08.43-.12.63l-4.76-.37,4.61,1.7a8.65,8.65,0,0,0,0,1c2.16-8.15,7.18-9.45,8.63-9.65C217.47,78.63,215.3,81,214.31,83.32Z"/><path class="cls-15" d="M222.12,78.29l.4-.05Z"/><path class="cls-15" d="M268.3,82.53l-4.7.8c-.06-.2-.11-.4-.19-.62l4.67-4-5.36,2.42c-1.2-2.22-3.58-4.38-8.24-4.3,1.46.08,6.58.91,9.48,8.83,0,0,0-.39-.09-1Z"/><path class="cls-15" d="M254.48,76.8h-.4C254.22,76.79,254.34,76.81,254.48,76.8Z"/><rect class="cls-16" x="191.38" y="104.12" width="18.2" height="33.07" rx="2.93"/><path class="cls-12" d="M269.78,133.5s-15.3,32.43-55.41,4"/><path class="cls-4" d="M218.38,132.39c.89,2.06.18,4.88-2,7-2.74,2.69-6.81,3.28-9,1.31l-5.54-4.88-.11-.11-.07-.05-7.47-6.58a1.54,1.54,0,0,1,.23-2.23,1.82,1.82,0,0,1,2.37-.34l4.07,3.59a7.5,7.5,0,0,1,.72-1.37l-4.88-4.3a1.53,1.53,0,0,1,.24-2.22,1.81,1.81,0,0,1,2.37-.34l4.88,4.3a8.74,8.74,0,0,1,1.27-.69l-4.19-3.69a1.53,1.53,0,0,1,.23-2.22,1.82,1.82,0,0,1,2.37-.35l7,6.16a4.36,4.36,0,0,1,.78.51l-.84-1.67a1.83,1.83,0,0,1,.91-2.23h0a1.52,1.52,0,0,1,2.2.32"/><circle class="cls-17" cx="195.7" cy="107.79" r="1.27"/></svg>