<svg id="Layer_1" data-name="Layer 1" xmlns="http://www.w3.org/2000/svg" viewBox="0 0 348 282.35"><defs><style>.cls-1{fill:#f9da78;}.cls-11,.cls-14,.cls-2,.cls-6{fill:none;stroke-linecap:round;stroke-miterlimit:10;}.cls-11,.cls-2{stroke:#0f8ab2;}.cls-2{stroke-width:5px;}.cls-3{fill:#ffcb05;}.cls-4{fill:#a2cced;}.cls-5{fill:#00a1cd;}.cls-6{stroke:#0d4061;stroke-width:1.48px;}.cls-7{fill:#0d4061;}.cls-8{fill:#fff;}.cls-9{fill:#252728;}.cls-10{fill:#444445;}.cls-11{stroke-width:4.61px;}.cls-12{fill:#ed1651;}.cls-13{fill:#504b48;}.cls-14{stroke:#0d4060;stroke-width:1.98px;}.cls-15{fill:#0d4060;}.cls-16{fill:#5754a3;}</style></defs><polyline class="cls-1" points="0 282.4 0 0.05 348 0.05 348 282.04"/><path class="cls-2" d="M234.37,143.22s-33.23,32-58.59-17.06"/><rect class="cls-3" y="252.58" width="348" height="29.99"/><path class="cls-4" d="M182.87,125.12c.42,2.21-.86,4.81-3.41,6.42-3.25,2.05-7.36,1.77-9.13-.64L166,125l-.08-.13-.06-.06-5.9-8a1.53,1.53,0,0,1,.7-2.12,1.82,1.82,0,0,1,2.39.17l3.21,4.36a8.35,8.35,0,0,1,1-1.18l-3.86-5.23a1.55,1.55,0,0,1,.71-2.13,1.81,1.81,0,0,1,2.38.17L170.3,116a9.08,9.08,0,0,1,1.39-.4l-3.31-4.5a1.53,1.53,0,0,1,.7-2.12,1.82,1.82,0,0,1,2.39.17l5.52,7.5a4.51,4.51,0,0,1,.65.66l-.47-1.81a1.85,1.85,0,0,1,1.37-2h0a1.51,1.51,0,0,1,2.08.78"/><path class="cls-5" d="M16.7,162.55C16.7,125,46.71,72.2,82,72.2c37.12,0,65.25,52.06,65.25,89.59S118,208.1,82,208.1,16.7,200.08,16.7,162.55Z"/><path class="cls-6" d="M120.75,102.09s1.15,8.06,10,6.41"/><path class="cls-6" d="M98,102.6s-2.18,8-10.76,5.24"/><path class="cls-7" d="M121.86,133.45s-.84-8.27-11.8-8.66S97.82,132,97.82,132Z"/><path class="cls-8" d="M104.81,121.12c0-5-4.32-9-9.63-9s-9.64,4-9.64,9"/><path class="cls-7" d="M101.27,119.51a5.44,5.44,0,0,0,3.54.18,9.6,9.6,0,0,0-6.67-7.29A5.55,5.55,0,0,0,101.27,119.51Z"/><path class="cls-8" d="M133.47,121.12c0-5-4.34-9-9.69-9s-9.69,4-9.69,9"/><path class="cls-7" d="M132.48,116.54l5.18-2.06-4.59,3.61c.06.21.11.41.15.61l4.49-.57-4.3,1.82a4.92,4.92,0,0,1,0,.94c-2.53-8-7.75-8.73-8.79-8.79,4.56.06,6.76,2.25,7.82,4.44"/><path class="cls-7" d="M81.29,118.13l4.5.56c0-.19.09-.38.15-.6l-4.6-3.61,5.18,2.06c1.06-2.19,3.26-4.38,7.82-4.44-1,.06-6.27.75-8.8,8.79a7.37,7.37,0,0,1,0-.94Z"/><rect class="cls-9" x="156.74" y="96.06" width="18.2" height="33.07" rx="2.93" transform="translate(-4.98 7.7) rotate(-2.62)"/><rect class="cls-10" x="158.59" y="98.05" width="14.41" height="27.18" rx="2.38" transform="translate(-4.93 7.7) rotate(-2.62)"/><path class="cls-11" d="M47.84,162.48c-.76-2.38,1.25,22.68,37.56,15.49"/><path class="cls-4" d="M84.91,170.73c-1.82,1-2.88,3.51-2.49,6.3.51,3.54,3.2,6.28,6,6.08l6.85-.49.15,0h.07l9.26-.66c.73,0,1.21-.86,1.08-1.78a1.67,1.67,0,0,0-1.56-1.59l-5,.36a7.26,7.26,0,0,0,.23-1.42l6-.44a1.43,1.43,0,0,0,1.08-1.78,1.7,1.7,0,0,0-1.56-1.59l-6.05.43a7.13,7.13,0,0,0-.56-1.22l5.2-.37a1.43,1.43,0,0,0,1.08-1.78c-.13-.93-.84-1.65-1.56-1.59l-8.66.61a4.1,4.1,0,0,0-.86-.06l1.56-.76a1.72,1.72,0,0,0,.58-2.17h0a1.4,1.4,0,0,0-1.81-1"/><path class="cls-11" d="M143.46,160.89c2.45-.47-15.5,21.8-26.63-13.5"/><path class="cls-4" d="M122.42,146.34c0,2.09-1.7,4.22-4.33,5.21-3.35,1.25-7,.21-8.21-2.32L107,143l0-.14,0-.06-3.87-8.44a1.43,1.43,0,0,1,1-1.8,1.69,1.69,0,0,1,2.15.6l2.1,4.6a7.24,7.24,0,0,1,1.14-.89L107,131.34a1.43,1.43,0,0,1,1-1.8,1.69,1.69,0,0,1,2.15.61l2.52,5.5a7.79,7.79,0,0,1,1.35-.09l-2.17-4.74a1.43,1.43,0,0,1,1-1.8,1.69,1.69,0,0,1,2.15.61l3.61,7.88a3.78,3.78,0,0,1,.47.73L119,136.5a1.71,1.71,0,0,1,1.62-1.55h0c.93-.12,1.72.38,1.75,1.11"/><path class="cls-5" d="M253.08,24.45c-34.81,1.6-62.62,11.91-60.85,50.42.44,9.77,2.13,19.57,3.88,29.16,1.93,10.65,5.3,21.21,8.46,31.55,1.39,4.54,2.84,8.52,2.61,13.37-.2,4.25-2.08,8.65-3.71,12.54-4.38,10.52-5.19,21.18-1.09,32,2.72,7.19,8.77,12.74,15.4,16.09,13.75,6.95,19,6.32,46.4,5.07,16.23-.75,33.1-2.82,45.91-14.36A37,37,0,0,0,321,182.23a44,44,0,0,0,1.51-10.2c.43-5.89-1.74-13.3-4.09-18.52-3.53-7.84-7.08-18.35-5.39-27.2,3.91-20.62,5.72-47.65,5.25-58-1.77-38.51-30.36-45.46-65.17-43.87"/><polyline class="cls-5" points="235.74 212.12 241.94 255.35 247.82 255.35 254.27 214.49"/><polygon class="cls-12" points="247.62 255.35 250.41 239.11 239.73 239.11 241.75 254.01 247.62 255.35"/><path class="cls-13" d="M248.08,256.32a9.89,9.89,0,1,0-19.77,0"/><polyline class="cls-5" points="263.86 212.12 270.06 255.35 275.95 255.35 283.15 209.72"/><polygon class="cls-12" points="275.75 255.35 278.54 239.11 267.86 239.11 269.88 254.01 275.75 255.35"/><path class="cls-13" d="M276.21,256.32a9.89,9.89,0,1,0-19.77,0"/><path class="cls-14" d="M212.75,69.35s.54,8.57-8.95,8.79"/><path class="cls-14" d="M245.82,68.13s1.15,8.24,10.24,5.46"/><path class="cls-15" d="M220,103.66s2-7.64,13.57-7.94,12.8,6.74,12.8,6.74Z"/><path class="cls-8" d="M237.32,89.22c-.24-5.25,4.11-9.72,9.72-10s10.35,3.8,10.59,9.05"/><path class="cls-15" d="M240.12,89.09a4.42,4.42,0,0,1,8.83-.4"/><path class="cls-8" d="M207.14,90.6c-.24-5.25,4.13-9.72,9.77-10s10.4,3.79,10.64,9"/><path class="cls-15" d="M209.93,90.47a4.42,4.42,0,0,1,8.83-.4"/><path class="cls-15" d="M208,85.73l-5.56-1.92,5,3.59c-.06.22-.09.43-.13.63l-4.76-.37,4.61,1.7a8.57,8.57,0,0,0,0,1c2.16-8.15,7.18-9.44,8.63-9.65C211.13,81,209,83.41,208,85.73Z"/><path class="cls-15" d="M215.77,80.7l.41,0Z"/><path class="cls-15" d="M262,84.94l-4.71.8c-.06-.2-.11-.4-.18-.62l4.66-4-5.36,2.42c-1.2-2.22-3.58-4.38-8.23-4.3,1.45.08,6.57.91,9.47,8.83a7.39,7.39,0,0,0-.09-1Z"/><path class="cls-15" d="M248.14,79.21h-.41C247.87,79.2,248,79.22,248.14,79.21Z"/><path class="cls-2" d="M305.32,147.7s5.3,20.13-22.17,31.57"/><path class="cls-7" d="M129.61,119.51a5.44,5.44,0,0,0,3.54.18,9.6,9.6,0,0,0-6.67-7.29A5.54,5.54,0,0,0,129.61,119.51Z"/><polyline class="cls-5" points="89.23 197.68 96.51 248.82 101.48 248.82 109.07 191.92"/><polygon class="cls-16" points="101.13 255.22 96.44 255.22 93.5 227.41 104.69 227.41 101.13 255.22"/><path class="cls-13" d="M94.91,255.47c0-4.47,4.25-8.1,9.49-8.1s9.49,3.63,9.49,8.1"/><polyline class="cls-5" points="82 197.68 74.72 248.82 69.75 248.82 62.16 191.92"/><polygon class="cls-16" points="70.1 255.22 74.79 255.22 77.74 227.41 66.55 227.41 70.1 255.22"/><path class="cls-13" d="M88.38,255.47c0-4.47-4.25-8.1-9.49-8.1s-9.49,3.63-9.49,8.1"/><path class="cls-4" d="M280,173.6c2.25,0,4.57,1.71,5.7,4.51,1.44,3.56.42,7.55-2.26,8.86l-6.64,3.24-.14.06-.07,0-8.95,4.38a1.53,1.53,0,0,1-2-1.07,1.81,1.81,0,0,1,.59-2.32l4.88-2.38a7.72,7.72,0,0,1-1-1.19l-5.84,2.85a1.53,1.53,0,0,1-2-1.07,1.81,1.81,0,0,1,.59-2.32l5.84-2.85a10.31,10.31,0,0,1-.14-1.44l-5,2.45a1.54,1.54,0,0,1-2-1.07,1.81,1.81,0,0,1,.59-2.32l8.37-4.09a4.52,4.52,0,0,1,.77-.52l-1.87.13a1.83,1.83,0,0,1-1.7-1.7h0a1.51,1.51,0,0,1,1.14-1.9"/></svg>