<svg xmlns="http://www.w3.org/2000/svg" viewBox="0 0 637.33 635.77"><defs><style>.cls-1{fill:#c1e7f6;}.cls-2{fill:#8e3029;}.cls-3{fill:#163042;}.cls-4{fill:#a56d51;}.cls-11,.cls-5,.cls-8{fill:#14110f;}.cls-6{fill:#151210;}.cls-16,.cls-18,.cls-7{fill:none;}.cls-11,.cls-7,.cls-8{stroke:#151210;}.cls-11,.cls-16,.cls-18,.cls-7,.cls-8{stroke-miterlimit:10;}.cls-7{stroke-width:0.82px;}.cls-8{stroke-width:0.35px;}.cls-9{fill:#42221a;}.cls-10{fill:#221e1f;}.cls-11{stroke-width:0.35px;}.cls-12{fill:#643b29;}.cls-13{fill:#31150d;}.cls-14{fill:#f0edf6;}.cls-15{fill:#c2b2d6;}.cls-16{stroke:#5b5b5c;stroke-linecap:round;stroke-width:7.88px;}.cls-17{fill:#f4a443;}.cls-18{stroke:#db8127;stroke-width:1.74px;}.cls-19{fill:#5b5b5c;}.cls-20{fill:#665786;}.cls-21{fill:#474748;}.cls-22{fill:#d16152;}.cls-23{fill:#812a23;}.cls-24{fill:#6696a3;}.cls-25{fill:#b05e27;}.cls-26{fill:#de8b26;}.cls-27{fill:#cd8c2a;}.cls-28{fill:#12100e;}</style></defs><g id="Layer_1" data-name="Layer 1"><circle class="cls-1" cx="319.06" cy="340.56" r="288.85"/><path class="cls-2" d="M583.35,455.65a195.69,195.69,0,0,0-11.84-35.4L408.32,435.73s-4.08,86.19-4.08,133.21c0,5.18.13,27.48.15,47.33A289.65,289.65,0,0,0,583.35,455.65Z"/><path class="cls-3" d="M184.71,487.31,71.13,473.09c-1.53,3.58.93,10.61-.67,14.06,29.74,51.11,70.65,88.7,124.64,113.67-3.18-41.14-3.24-86.7-8.46-106.56Z"/><path class="cls-4" d="M110.59,266.46,112.41,277c.77,4.42,4.45,7.46,4.24,11.94L112.87,299l-15.18,5.75s60.85,46.81,72.46,40.79,4.86-33.82,1-36.41-13.31-8.09-13.31-8.09l-5.73,1.42,2.43-12Z"/><path class="cls-5" d="M190.73,257.35l-.63-.8c-5.37-3.22-10-3.89-14-.75-.05,0-7.07-4.34-15.13,4.39-7,7.57-5.61,13.21-5.61,13.21s-5.12,1.51-6.46,3.68c-3,4.89-3.77,14.76.6,16.56s4.54,4,4.54,4,7.13,1.22,10.84,2,9.34-.78,9.34-.78,8.19,2.1,10.91.59,4.88-7.27,4.88-7.27,8.74.43,9.58-6.08c0,0,3.55-3.32-.07-8.5A18.08,18.08,0,0,0,196,274s1.7-1.67,1.5-6.86C197.46,264.85,194.81,259.79,190.73,257.35Z"/><path class="cls-6" d="M191.21,257.17a7,7,0,0,0-2.78-2,16.18,16.18,0,0,0-5-1.58,10.54,10.54,0,0,0-7.77,2.15l.88-.15c-2.63-1.59-6.24-1.37-9-.37a19.72,19.72,0,0,0-8.17,6.23,20.27,20.27,0,0,0-4.36,8.24,8.82,8.82,0,0,0-.19,3.82l.46-.33a20.67,20.67,0,0,0-4.83,2.08c-2,1.26-3,3.2-3.65,5.45a19.52,19.52,0,0,0-.81,7.85c.24,2,.93,4.19,2.81,5.16,1.53.79,4.49,1.9,4.7,4,0,.07.14.09.19.09q4.2.72,8.38,1.5a25.78,25.78,0,0,0,5.24.69,28,28,0,0,0,5.32-.66,7,7,0,0,0,1.42-.32c.33-.15-.54-.15.05.05a22,22,0,0,0,3.51.69c2.48.4,5.84,1,8.1-.49s3.81-4.71,4.77-7.26l-.83.32a14.62,14.62,0,0,0,5.41-.82,8.34,8.34,0,0,0,3.52-2.24,6,6,0,0,0,1.07-1.73,11.21,11.21,0,0,1,.57-1.75,7.21,7.21,0,0,0,1.39-3.46,8.63,8.63,0,0,0-2.35-5.93,16.89,16.89,0,0,0-1.14-1.25,12.48,12.48,0,0,0-.92-.86s-.72-.56-.7-.42c0-.08.35-.48.4-.57a10.2,10.2,0,0,0,1.14-4.67c.23-4.67-3-9.13-6.84-11.52-.27-.17-1.15.24-1,.37,3.06,1.9,6,5.39,6.7,9a12.11,12.11,0,0,1-.45,5.57,4.72,4.72,0,0,1-.93,1.84s-.07.12,0,.17c2.58,2.16,5.56,5.28,5,9a5.61,5.61,0,0,1-1.08,2.56,4.94,4.94,0,0,0-.69,1.73c-1.13,3.45-5.23,4.67-8.47,4.52-.23,0-.73,0-.83.32a20.9,20.9,0,0,1-2.88,5.37,4.6,4.6,0,0,1-3.22,2.08,17.94,17.94,0,0,1-4.14-.19c-1.15-.15-2.3-.36-3.44-.6a6.63,6.63,0,0,0-1.39-.3,11.2,11.2,0,0,0-2,.44,26.45,26.45,0,0,1-4.69.55c-3,.05-6-.87-8.91-1.39l-3.6-.63a3,3,0,0,1-.8-.14c-.15-.08.16.2.06-.09-.79-2.26-3-3-4.93-4.06-2.11-1.19-2.58-4.08-2.64-6.28a18.87,18.87,0,0,1,2.12-9.41c1.21-2.23,4-3.29,6.34-4,.12,0,.5-.15.46-.33a8.9,8.9,0,0,1,.23-3.94,21.64,21.64,0,0,1,5.84-9.68c3.31-3.38,9-6.48,13.68-3.66a.91.91,0,0,0,.88-.14,8.86,8.86,0,0,1,8.14-1.38c2,.57,4.33,1.41,5.63,3.08C190.42,257.76,191.4,257.42,191.21,257.17Z"/><path class="cls-7" d="M189.46,255.78s12.73,4.79,12.34,13.44l-1,6s5.95,1.82,5.23,6"/><path class="cls-4" d="M115.12,258.57s3.52,30.26-1.78,39a7.62,7.62,0,0,1-4.44,2.95l12,9.52c16.89,10.53,10.39,5.51,29.27-.76l6,1.92a8.14,8.14,0,0,0,.81-4.74c-.22-3.15,2.83-25,2.83-25"/><path class="cls-8" d="M101.29,228.52s-13.37-41.6,12.45-41.66a17.3,17.3,0,0,1,7.36-7.1c6.38-3.36,12.38.86,12.38.86s5.85-4.74,11.39-3.53,7.51,4.52,7.51,4.52,6.8-2.85,11.56-.22a25.54,25.54,0,0,1,7.93,7.67s4.13-.43,6.63.92c6,3.24,5.91,16.93,6.44,21.81,0,0-4.16-16.59-9.57-17.51s-53.7,7.44-53.7,7.44l-16.16,41.89Z"/><path class="cls-5" d="M70.76,261.78l-.49.9c-.76,6.21.52,10.75,5,13.13,0,.05-1.5,12.3,9.74,16.13,9.76,3.33,14.35-.21,14.35-.21s3.46,4.07,6,4.41c5.69.78,10.94-5.47,10.82-10.19s.25-11.54.25-11.54a30,30,0,0,0-.16-8.6c-.81-3.69-5.82-8.13-5.82-8.13s3.55-5.92,1.06-7.8-8.62-3.84-8.62-3.84-3.15-5.85-9.44-4c0,0-4.47-1.91-7.74,3.5a18.39,18.39,0,0,0-1.91,4.64s-2.21-.88-6.88,1.4C74.89,252.59,71.34,257.07,70.76,261.78Z"/><path class="cls-6" d="M70.28,261.77c-1,1.83-.85,4.21-.61,6.24a10.63,10.63,0,0,0,2.45,5.93,9.68,9.68,0,0,0,1.09,1,12.58,12.58,0,0,1,1.37.92c.09.11.11-.06.17.08s0,.26,0,.33c0,1,0,1.9,0,2.85a15.69,15.69,0,0,0,3.68,9.06c3.29,3.7,8.67,5.26,13.48,5.43,2.55.09,5.72-.22,7.84-1.83l-.88.11c2,2.3,4.5,4.74,7.71,4.56,4-.22,7.56-3.27,9.19-6.83,1-2.09.84-4.09.85-6.33s.08-4.63.18-6.95c.13-3.06.55-6.1.19-9.16a11.53,11.53,0,0,0-2.42-5.7,25.89,25.89,0,0,0-1.86-2.21,9,9,0,0,0-1.54-1.55,1.16,1.16,0,0,1-.28-.26c.08.17,0,.25.12,0,.27-.48.51-1,.73-1.45a8.77,8.77,0,0,0,1.08-4.71c-.24-1.65-1.93-2.36-3.27-3a48.33,48.33,0,0,0-5.44-2.2c-.2-.07-1-.35-.85-.25s-.22-.44-.29-.54a9.79,9.79,0,0,0-2.65-2.6,8.06,8.06,0,0,0-5.78-1.15c-.16,0-1,.28-.75.27-.12,0-.28-.11-.4-.13a9.72,9.72,0,0,0-1.53-.22c-4.92-.13-7.43,4.71-8.6,8.81l.91-.31c-2.33-.87-5.71.44-7.69,1.54-3.46,1.92-5.72,6.59-6.25,10.35-.06.39,1,.22,1-.13.49-3.47,2.39-7.41,5.28-9.54,1.54-1.13,5-2.42,6.84-1.73.26.1.82,0,.91-.31,1-3.49,3.21-8.59,7.66-8.08a5.44,5.44,0,0,0,1.73.21,7.59,7.59,0,0,1,5.64.78,9.12,9.12,0,0,1,2.57,2.42c.27.36.39.67.76.87a31.9,31.9,0,0,0,3.62,1.33,17.57,17.57,0,0,1,4.75,2.41c2.08,1.77,0,5.74-1.06,7.59a.15.15,0,0,0,0,.21,20,20,0,0,1,5.43,7c1.22,3,.74,6.57.5,9.73-.26,3.4-.29,6.85-.26,10.25a10.65,10.65,0,0,1-1.34,5.88,11.22,11.22,0,0,1-4.81,4.52,6,6,0,0,1-6.7-.86,21.41,21.41,0,0,1-3-2.84c-.2-.24-.69,0-.88.11.15-.11-.07.05-.13.08a6.19,6.19,0,0,1-.67.36,10.36,10.36,0,0,1-2.82.82,20.88,20.88,0,0,1-11-1.64c-5-2.1-7.85-6.69-8.45-11.93a15.4,15.4,0,0,1,0-3.59.17.17,0,0,0-.11-.18A9.33,9.33,0,0,1,71,269.51c-.58-2.31-.92-5.58.23-7.72C71.45,261.37,70.44,261.47,70.28,261.77Z"/><path class="cls-9" d="M129.74,280.73s3.21,11.66,23.77,16.4c0,0,3.37.08,4.14-.4l1.19-4.8Z"/><path class="cls-4" d="M118.85,271.84c8.15,9.14,25.87,20.31,37.28,22.64,11.19,2.29,15-1.43,16.51-3.08,8.55-9.07,14.12-18.28,17.33-28.91a26.36,26.36,0,0,0,.77-9.18c-.29-4.78-1.2-13.95-1.13-18.52.18-11.63-5-21.7-11.37-31.48-13.35-20.37-41.3-20.44-53.1-14.83-13.8,6.57-20,19.89-20.87,34.07a38.46,38.46,0,0,0,1.34,12.94,41,41,0,0,1,5.1,7"/><path class="cls-5" d="M177.89,198.64s1.54,2.52,7.59,16.69c-1.48-4.51-.8-6.77-4.61-13.06-13.34-22-53.11-19-64.92-13-13.8,7.08-18.91,21.28-19.77,36.57-.34,6.21-.6,10.17,1.24,15.32.09.07,1.18,1.21,1.18,1.21s12.49,2.4,16.62,10l.17-6.6s.37-4.06,3.73-19.18c0,0,.28-2.41,4.55-12s8.7-12.35,8.7-12.35,20.34-3.32,25.18-3.28S177.89,198.64,177.89,198.64Z"/><path class="cls-6" d="M177.42,198.85a33.14,33.14,0,0,1,1.52,3c2.13,4.47,4.08,9,6,13.58.16.38,1.15.12,1-.28-.8-2.49-1.09-5.11-2-7.59a29,29,0,0,0-4.61-8.29,33.63,33.63,0,0,0-12.33-9.48c-9.77-4.57-21-5.72-31.7-5.07-9.18.55-18.48,2.31-25.75,8.28-11,9-13.68,23.42-14.18,36.88a30.57,30.57,0,0,0,1.17,10.64,3.83,3.83,0,0,0,1.61,2.14,4.63,4.63,0,0,0,.91.21c4.63,1.12,9.45,3.05,13,6.35a14,14,0,0,1,2.63,3.34c.16.29,1,.05,1-.26.06-2.22,0-4.47.18-6.68.14-1.73.53-3.47.84-5.18.86-4.68,1.88-9.34,2.89-14a45.31,45.31,0,0,1,2.64-7.52c2.14-5.19,4.45-10.55,8.34-14.69A15.16,15.16,0,0,1,132,203c.14-.13.59-.35.67-.52-.06.14-.57.11,0,.06s.85-.14,1.27-.21c7.28-1.15,14.63-2.46,22-3,4-.27,8.13-.11,12.17-.18l9.8-.21c.54,0,.82-.66.12-.64-6.86.16-13.73.21-20.59.33a91,91,0,0,0-10.54,1.11q-5.85.81-11.7,1.74c-1.41.22-2.72.21-3.84,1.14-3.38,2.81-5.75,6.92-7.59,10.83a76.17,76.17,0,0,0-4.89,12.34c-1,3.74-1.67,7.6-2.43,11.39-.55,2.77-1.18,5.57-1.46,8.38-.22,2.27-.14,4.59-.2,6.86l1-.26c-2.54-4.53-7.55-7.14-12.28-8.8-1.41-.49-2.87-.77-4.28-1.23-.06,0-.3-.09-.16,0a11.24,11.24,0,0,1-.92-1c-.87-1.18-1.1-3.34-1.31-4.77a54.2,54.2,0,0,1,0-11.46,67.19,67.19,0,0,1,1.38-9.9,40.7,40.7,0,0,1,8.2-17.64,30.09,30.09,0,0,1,13-9.13,56.47,56.47,0,0,1,12.27-2.54c10.37-1.1,21.3-.41,31.14,3.18a36.94,36.94,0,0,1,13.38,8.18,28.8,28.8,0,0,1,7.9,14.66,36.79,36.79,0,0,0,1,3.75l1-.28c-2-4.6-4-9.21-6.1-13.73a33,33,0,0,0-1.53-3C178.16,198.1,177.17,198.45,177.42,198.85Z"/><path class="cls-4" d="M117.27,266c-5.89,6.06-10.8-3.42-10.8-3.42a28.67,28.67,0,0,1-6.87-19.26c.22-5,5.71-4.9,5.71-4.9,4.66.52,4,1.06,10.29,14.35"/><path class="cls-10" d="M111.33,252.59a38.39,38.39,0,0,0-3.28-6.84,11.94,11.94,0,0,0-2.4-2.93,3.39,3.39,0,0,0-1.26-.72c-.63-.15-.94.32-1.23.79a9.42,9.42,0,0,0-.87,6.45c0,.2.81,0,.77-.2a10.1,10.1,0,0,1,.33-5.23,4.86,4.86,0,0,1,.93-1.68l-.6.19h0a1.69,1.69,0,0,0,.24.08,3.21,3.21,0,0,1,.91.58,14.44,14.44,0,0,1,3.27,4.39,46.33,46.33,0,0,1,2.39,5.33c.08.21.84,0,.77-.21Z"/><path class="cls-10" d="M111.06,254.91c-3.26.2-.66,4.47-.92,6.18l-.09.3,0,0c0,.08,0,.08.22,0,0,0-.11-.1-.09-.05a8.27,8.27,0,0,0-.53-.72,14.44,14.44,0,0,1-1.15-3,11.65,11.65,0,0,1-.59-3.6c0-1.45.18-3.65,1.61-4.45.46-.26,0-.62-.33-.41-1.42.79-1.87,2.43-2,4a10.13,10.13,0,0,0,.15,3.25,23.39,23.39,0,0,0,1.2,3.75c.25.56.57,1.41,1.16,1.71a.87.87,0,0,0,1.16-.48,2.85,2.85,0,0,0,0-1.66c-.19-.89-1.45-4.16.2-4.26.42,0,.61-.55.08-.52Z"/><path class="cls-5" d="M147,239.2a3.54,3.54,0,0,0-3.77.84,3.38,3.38,0,0,0-1,1.64,3.52,3.52,0,0,0,1,3.15,3.24,3.24,0,0,0,3.77.5,3.61,3.61,0,0,0,1.6-4.26,3.23,3.23,0,0,0-1.6-1.87"/><path class="cls-5" d="M154.28,244.52s-5-6.78-10-6.58c-7.06.3-8.55,4.47-10,6.67,0,0,4.38-5.2,9.84-5.29C149.06,239.23,154.28,244.52,154.28,244.52Z"/><path class="cls-5" d="M180.81,237.63a3.52,3.52,0,0,1,3.83.53,3.42,3.42,0,0,1,1.09,1.55,3.5,3.5,0,0,1-.7,3.22,3.26,3.26,0,0,1-3.71.81,3.6,3.6,0,0,1-1.94-4.11,3.18,3.18,0,0,1,1.43-2"/><path class="cls-5" d="M171.5,243.8s4.08-7.17,8.72-7.36c6.54-.27,8.25,3.77,9.76,5.85,0,0-4.45-4.84-9.5-4.49C175.9,238.11,171.5,243.8,171.5,243.8Z"/><path class="cls-5" d="M189.28,230.77a.36.36,0,0,0,0-.1,10.51,10.51,0,0,0-2.7-1.26c-5-1.6-7.56-1.63-15.46-.25v.18c-.08,1,0,.44-.11,1.44-.06.76-.12,1.51-.17,2.27,2.38-.45,4.11-1,5.64-1.17,3-.3,6.53-1,9.51-.32a9.42,9.42,0,0,1,3.07,1.2C189.13,232.1,189.21,231.43,189.28,230.77Z"/><path class="cls-5" d="M155.37,230.35c0,1,0,.44.06,1.44l.09,2.28c-2.47-.52-4.25-1.14-5.83-1.34-3.15-.4-6.77-1.26-9.91-.63-1.5.3-3.5.51-4.52,1.92-.28.38-.91,2-1.52,1.74-.25-.1.09-1.34.13-1.47.7-2.51,2.79-3.64,5.37-4.35,5.26-1.45,7.95-1.39,16.13.24"/><path d="M168.4,261.58a5,5,0,0,1-4.63-.15c-.3-.17-1.27,0-.85.27a7.11,7.11,0,0,0,6.31.11c.16-.09.13-.22-.08-.29a1.18,1.18,0,0,0-.75.06"/><path d="M162.34,261.34a8,8,0,0,0-2.87-.62.61.61,0,0,0-.43.15c-.08.08-.1.18,0,.23a3.16,3.16,0,0,0,1.58.32.6.6,0,0,0,.48-.21c.08-.13-.08-.21-.21-.21a2.56,2.56,0,0,1-1.28-.25l-.41.38a7.23,7.23,0,0,1,2.56.57.6.6,0,0,0,.52-.07c.1-.07.21-.21.05-.29"/><path d="M158.44,261.58a3.92,3.92,0,0,1-3.11-1.3c-.9-1.29-.16-3.52,1.26-4.4.15-.1.07-.21-.09-.24a.91.91,0,0,0-.61.14,4.25,4.25,0,0,0-1.78,3.86,3.15,3.15,0,0,0,2.72,2.2,6,6,0,0,0,1.28.14c.18,0,.49-.06.57-.2s-.08-.2-.24-.2"/><path d="M170.5,260.93a.15.15,0,0,1,.14-.22,1.35,1.35,0,0,0,.88-.32l.32.36a4.09,4.09,0,0,0-1.79.7.32.32,0,0,1-.37,0c-.08-.06-.16-.21-.05-.28"/><path d="M169.63,261.13a4.46,4.46,0,0,1,2-.78.39.39,0,0,1,.31.13.16.16,0,0,1,0,.24"/><path d="M172.89,261a2.35,2.35,0,0,0,2-1.46,3.41,3.41,0,0,0-1-3.69.14.14,0,0,1,.05-.24.42.42,0,0,1,.4.12,3.76,3.76,0,0,1,1.31,3.11A2.66,2.66,0,0,1,174,261.2a3,3,0,0,1-.83.2c-.11,0-.32,0-.37-.17s0-.21.14-.21"/><path class="cls-11" d="M181.72,194.64a23.31,23.31,0,0,0-10.64-4.49,2.81,2.81,0,0,0-.5,0l-2.25.72-.07,0,.08,0c.4-.15,1.28-.55.95-1a1.78,1.78,0,0,0-.85-.57,18.67,18.67,0,0,0-3-.82h0l-.33-.05-.34-.07v0a18.49,18.49,0,0,0-3.06-.22,1.88,1.88,0,0,0-1,.25c-.47.37.22,1,.55,1.32l.07,0-.07,0-1.88-1.42a3.36,3.36,0,0,0-.48-.13c-4.92-1.16-13.39,1.58-14.21,2.07s-.5,1.57-.48,1.65L143,190.5a73.57,73.57,0,0,0-7.5,1.86,5.32,5.32,0,0,0-1.91,2.25,6.47,6.47,0,0,1-2.55,0c-.62-.32-4.3.86-6,2.62-1.12,1.13-1,2.4-1.64,3.45h0c-.36.59-.58,1-.58,1l-3.69.57c-3,.87-3.32,6.76-3.32,6.76-6.67,5.82-7.93,11.54-6.52,18.16.54,2.56-6.69,3.8-2.3,4.46s7.82,16.49,7.82,16.49a90.21,90.21,0,0,0,3.2-8.57c.62-2.48.66-10.14.66-10.14l2.19.06s1.39-.3,3.44-2.88.06-8.14.06-8.14l-.31-3.21,4.11,1c4.15,0,5.12-4.32,5.12-4.32l.55-7.38,2,2.85a3,3,0,0,0,2.14,1.44c6.33.6,7.73-3.17,7.73-3.17l1.46-3.51,1.4,1.32c1.44,1.66,6.2,4.66,9,4,.73-.18,4-1.91,4.52-2.13a5.44,5.44,0,0,0,2.52-3.37c1.27,1.71,3,3.55,4.84,3.94,2.19.48,7.12.37,7.89-.55.51-.62-.18-.82.63-.65a2.68,2.68,0,0,1,1.58,1.36s1.28,6.33,6.53,9.44,7.12-10.45,2.23-13.22C188.31,202.29,188.64,195,181.72,194.64Z"/><path class="cls-8" d="M101.55,203.87s-6.16,1.14-8.34,4.26c-5.62,8.05-4.22,29.1.46,33.73l4.87,1.4Z"/><path class="cls-7" d="M94.41,239.65s-8.53-1.78-10.58,3.35l-.94,2.45s-9.3-3.27-12.72.94-5,13.08-5,13.08"/><path class="cls-12" d="M164.36,269.28c-5.67,0-14.86-.63-14.86-.63s1.74,11.21,14.89,11.17,14.83-11.25,14.83-11.25S170,269.26,164.36,269.28Z"/><path class="cls-13" d="M164.42,269.28c-2.7,0-13.57-.42-13.57-.42s3.61,5.94,13.36,5.91c10.57,0,13.66-5.9,13.66-5.9Z"/><path class="cls-14" d="M164.54,269.68c-2.7,0-10.91-.43-10.91-.43s3,2.95,11.05,2.92,10.65-2.89,10.65-2.89Z"/><path class="cls-12" d="M179.81,267.74a21.23,21.23,0,0,1-3.19.34c-2.23-.18-3.63-.77-5.25-.88-2.76-.21-4.51.88-5.71.89s-3-1.08-5.72-.86c-1.61.13-5.61.72-7.84.92a22.52,22.52,0,0,1-3.2-.32c-.4.09.38,3,15.47,3S180.21,267.84,179.81,267.74Z"/><path class="cls-4" d="M195.12,355.43l19.07,66.94A18.48,18.48,0,0,1,201.49,446h0c-9.27,2.51-18.91-11.38-22.61-20.36l-26.68-56.1Z"/><path class="cls-4" d="M177.54,441.9l-2.69-6.06a19.36,19.36,0,0,0,5.41,9c8.35,8.5,22.38,9.14,33.45,1.8l59.42-39.39-4.71-17.74L192.85,418.2C184.58,421.79,175.74,433.71,177.54,441.9Z"/><path class="cls-4" d="M293.49,374.49a95.24,95.24,0,0,0-13,.79,2.68,2.68,0,0,1-.85,0,14.21,14.21,0,0,1-6.11,3.33c-2.53.71-5.16,1-7.7,1.63l-.47,1.42-8.92,12.54c4.66,7.42,4.8,15.24,13.88,16.26l6.44-1.87,17.37-3.35s3.8-3,3.77-4.36a4.07,4.07,0,0,0-1-2.4l2.59-2.3a8.86,8.86,0,0,0,.32-3.24c-.21-1.47-2.71-2.37-2.71-2.37l.69-.65a3.84,3.84,0,0,0,1.1-3.66l-.16-.62a6.4,6.4,0,0,0-2.49-2.83s2.48-2.15,2.3-3.53A6.29,6.29,0,0,0,293.49,374.49Z"/><path class="cls-4" d="M276.42,378.44a2.75,2.75,0,0,1-.64-1.34,3.13,3.13,0,0,1,0-.44,40.62,40.62,0,0,0-1.74-12.1c-1.51-4.18-4.14-4.83-5.8-4.8a1.26,1.26,0,0,0-1.24,1.3,1.5,1.5,0,0,0,0,.22,69.08,69.08,0,0,1,1.33,8.47c0,1.44-2,8.6-3.25,13C269.07,381.74,273.38,381.23,276.42,378.44Z"/><path class="cls-15" d="M190.4,341.39s14.94,30.28,12.86,46.1-9.08,16.56-11.57,23.86c-8.13,23.82,7.42,100.47,7.42,100.47s-46.6,18.92-95.55,8.08c-5.1-1.13-11.34-2.17-15.22-5.59-8.85-7.78-22.89-35.37-22.89-35.37h0l4.29-11.18-.28-52.84Z"/><path class="cls-15" d="M178.57,309.47l-16.16-6c-2.65,37.92-51-.13-54.26-3.88l-32.36,12L61,393.13l21.92,46.23,101-52.5,8.9-49.23Z"/><line class="cls-16" x1="297.28" y1="508.82" x2="282.55" y2="347.58"/><polygon class="cls-17" points="250.08 513.83 245.09 560.08 348.07 560.08 342.38 513.83 250.08 513.83"/><line class="cls-18" x1="299.58" y1="560.08" x2="293.03" y2="514.96"/><line class="cls-18" x1="308.14" y1="560.08" x2="301.59" y2="514.96"/><line class="cls-18" x1="316.7" y1="560.08" x2="310.15" y2="514.96"/><line class="cls-18" x1="325.26" y1="560.08" x2="318.71" y2="514.96"/><line class="cls-18" x1="333.82" y1="560.08" x2="327.27" y2="514.96"/><line class="cls-18" x1="342.38" y1="560.08" x2="335.83" y2="514.96"/><line class="cls-18" x1="256.7" y1="560.08" x2="250.16" y2="514.96"/><line class="cls-18" x1="265.26" y1="560.08" x2="258.72" y2="514.96"/><line class="cls-18" x1="273.82" y1="560.08" x2="267.28" y2="514.96"/><line class="cls-18" x1="282.38" y1="560.08" x2="275.84" y2="514.96"/><line class="cls-18" x1="290.94" y1="560.08" x2="284.4" y2="514.96"/><path class="cls-19" d="M255.15,499.38h80.91a8.82,8.82,0,0,1,8.82,8.82v10.06a0,0,0,0,1,0,0H246.33a0,0,0,0,1,0,0V508.2A8.82,8.82,0,0,1,255.15,499.38Z"/><path class="cls-15" d="M216.28,374.22l-17.79-47.07c-5.57-14.3-16.44-16.14-19.92-17.68l-12.2,5.12c-15.68,4.88-26.92,16.21-21.65,31.76l17.68,49.56Z"/><polygon class="cls-20" points="203.46 379.39 195.53 341.92 206.43 378.19 203.46 379.39"/><line class="cls-16" x1="149.63" y1="445.5" x2="245.32" y2="549.82"/><polygon class="cls-21" points="257.48 536.95 257.48 577.41 344.41 577.41 315.07 536.95 257.48 536.95"/><polygon class="cls-19" points="233.64 536.95 233.64 577.41 296.05 577.41 307.28 577.41 265.27 536.95 233.64 536.95"/><path class="cls-4" d="M96.33,369.05l-20.7,66.77c-2.85,10.38-13.4,16.07-23.32,12.59h0c-9-3.16-9.38-20.24-7.53-29.85l8.54-62Z"/><path class="cls-4" d="M44.8,421.46l.47,1c-4,10.61,1.4,23.84,8.34,27.43l82.8,35,6.26-18.7L67.1,412.11C58.51,409.8,48,413.08,44.8,421.46Z"/><path class="cls-15" d="M96.13,389.7,103.8,345c2.63-15.12-5.54-32.18-20.44-35.86l-8.09,2.71a46.54,46.54,0,0,0-24.58,31.73l-9.13,29.64Z"/><path class="cls-20" d="M101.72,359.91a153,153,0,0,1-8.25,29.23l2.66.56s7.16-22.52,8.58-38.44c0,0,.94-26.75-10.19-32.47C104.42,330.14,104.21,345.1,101.72,359.91Z"/><path class="cls-4" d="M139.64,464.65l18.72-6.24s21.87,2.46,24.68,5.07,6.16,6.46,1,9.55c0,0,2.82,6-.18,7.79s-6.73-.12-6.73-.12,4.51,4.77,1.12,7.34-5.06.86-5.06.86-.1,3-2,2.94a50.63,50.63,0,0,1-8-1.85s-10.44,1.88-16.23.63a27.15,27.15,0,0,1-10.81-5.82Z"/><path class="cls-9" d="M172.45,470.55a14.21,14.21,0,0,1,11.21,2.26"/><path class="cls-9" d="M169.94,479.77c3.88-.84,4.86-.65,8.11,1.64"/><path class="cls-9" d="M280.56,396.3a24.16,24.16,0,0,0-3.44-2.5,22.17,22.17,0,0,0-4-1.39A9.37,9.37,0,0,1,280.56,396.3Z"/><path class="cls-4" d="M291.13,375.62l6.1,25,0,1.93s-1.7,1.48-2.92,1.11-11-2.22-11-2.22l-6.84-18.14s-.45-1.85,2-3.14S291.13,375.62,291.13,375.62Z"/><path class="cls-9" d="M296,382.52a1.37,1.37,0,0,1-.38.15l-1.11.34-4,1.17-6,1.68a33.71,33.71,0,0,1-3.6.91,4.32,4.32,0,0,1-3.86-1,3,3,0,0,1-.82-1.93,4.39,4.39,0,0,1,.43-2,5.7,5.7,0,0,1,2.72-2.57,21.7,21.7,0,0,1,3.15-1.19l2.76-.88,4-1.28,1.11-.33c.24-.06.38-.11.39-.08l-.37.17-1.09.38-4,1.39-2.74.9a22.65,22.65,0,0,0-3.09,1.19,5.35,5.35,0,0,0-2.55,2.42,3.15,3.15,0,0,0,.31,3.51,3.24,3.24,0,0,0,1.65.85,5.4,5.4,0,0,0,1.88,0c1.23-.21,2.43-.6,3.57-.88l6-1.57,4.08-1.06,1.12-.27Z"/><path class="cls-9" d="M296.46,390.27a3.24,3.24,0,0,1-.85.27l-2.37.61c-2,.47-4.81,1-7.92,1.51a19.8,19.8,0,0,1-2.3.29,4.38,4.38,0,0,1-2.16-.42,3.39,3.39,0,0,1-1.76-3.15,3.24,3.24,0,0,1,1.07-2.19,3.17,3.17,0,0,1,.56-.4c.14-.06.21-.09.22-.07-.23.18-.46.36-.68.57a3.38,3.38,0,0,0-.85,2.14,3.12,3.12,0,0,0,1.66,2.81,4.05,4.05,0,0,0,2,.36c.73,0,1.48-.16,2.26-.27,3.1-.49,5.89-1,7.9-1.42l2.39-.48A3.93,3.93,0,0,1,296.46,390.27Z"/><path class="cls-9" d="M295.72,397.35a5.72,5.72,0,0,1-.83.12l-2.24.2-7.43.49a17.33,17.33,0,0,1-2.16.08,3.85,3.85,0,0,1-1.95-.6,2.28,2.28,0,0,1-1-1.6,2.5,2.5,0,0,1,.39-1.57,3.37,3.37,0,0,1,1.81-1.36,2.44,2.44,0,0,1,.83-.19l-.76.31a3.46,3.46,0,0,0-1.64,1.33,2.28,2.28,0,0,0-.3,1.4,1.84,1.84,0,0,0,.9,1.33,3.62,3.62,0,0,0,1.78.53,15.35,15.35,0,0,0,2-.11c2.91-.17,5.53-.31,7.43-.39l2.25-.07A3,3,0,0,1,295.72,397.35Z"/><path class="cls-9" d="M294.36,403.64a13.22,13.22,0,0,1-2.43-.29c-1.49-.24-3.55-.61-5.82-1l-1.65-.3a6.53,6.53,0,0,1-1.56-.41,2.17,2.17,0,0,1-1.11-1,1.44,1.44,0,0,1-.06-1.31,2.11,2.11,0,0,1,1.43-1.14,1.06,1.06,0,0,1,.66,0s-.24,0-.61.16a2.15,2.15,0,0,0-1.24,1.09,1.19,1.19,0,0,0,.09,1.07,2,2,0,0,0,1,.83,6.48,6.48,0,0,0,1.49.36l1.65.3c2.27.4,4.31.8,5.8,1.1A16.16,16.16,0,0,1,294.36,403.64Z"/><path class="cls-22" d="M422.32,261.93l-30.24,83-23.77-29.41c10.75-44.13,24-79.54,39.16-106.61Z"/><path class="cls-22" d="M369.41,266.88l-30.23,9.53,8.94,34a109.14,109.14,0,0,0,20.11,40.47c4,4.95,8,9.1,11.27,10.42,9.72,4,45.61-23,45.61-23Z"/><path class="cls-22" d="M418,334l-8.71-49.51s-7.52-71.39-1.31-76.2c5.23-4,34-16,42.79-20.1.34,6.24,4.23,5.16,8.95,9.48,4.44,4.06,8.06-4.21,13.9-3.5s12,.83,17.62-.79c7-2,12.49,4.87,17.51-.23,4.42-4.48,12.09-5,20.21-5l34.27,20.59,6.46,5-11.85,72.61-12,74.67,27.58,55.41s3.42,7.38,2.68,6.73c-57.55,13.3-136.53,22.85-170.64,11.61l14.87-56Z"/><path class="cls-22" d="M569.57,213.8c-6.78-8.21-23.91-11.68-32.15-7.47s-66,95.86-66,95.86L397,279,380.51,315.6s92.71,45.46,107.19,45.46c10.94-.11,59.25-53.21,80.8-87.15a57.44,57.44,0,0,0,7-46.09A42.23,42.23,0,0,0,569.57,213.8Z"/><path class="cls-23" d="M561.82,210.37a25.23,25.23,0,0,0-9.84-3.05,26.37,26.37,0,0,0-13.32,2.47,30.58,30.58,0,0,0-12.35,10.78l-10.55,16.27c-7.45,11.46-15.64,24-24.21,37.24L473.27,302l-.27.41h-.44c-22.76-5.63-42-11.87-55.55-16.63-6.76-2.36-12.09-4.37-15.75-5.8l-4.15-1.65a8,8,0,0,1-1.43-.66,8.82,8.82,0,0,1,1.52.44l4.23,1.46,15.86,5.5c13.57,4.5,32.84,10.61,55.57,16.1l-.72.28c5.69-8.77,11.85-18.2,18.23-28l24.32-37.16,10.66-16.21a31.46,31.46,0,0,1,12.89-11A26.75,26.75,0,0,1,552,206.74a25.35,25.35,0,0,1,10,3.35,31.36,31.36,0,0,1,5.49,3.93,14.28,14.28,0,0,1,1.65,1.65A54.75,54.75,0,0,0,561.82,210.37Z"/><path class="cls-23" d="M385.08,318.41l5.49,2.42,20.51,8.93c17.34,7.45,41.36,17.73,68.18,28a23.52,23.52,0,0,0,10.17,1.46,16.69,16.69,0,0,0,8.88-4.21,67.84,67.84,0,0,0,6.84-7.14l6.32-7.2,22-24.9,14.87-16.71,4.09-4.48a15.58,15.58,0,0,1,1.52-1.52,12.54,12.54,0,0,1-1.3,1.68c-1,1.18-2.28,2.72-3.9,4.67l-14.56,17.18-21.69,25.09c-2.06,2.34-4.15,4.76-6.29,7.23a66.77,66.77,0,0,1-7,7.31,18.06,18.06,0,0,1-9.59,4.54,25.32,25.32,0,0,1-10.77-1.51C452,348.91,428,338.53,410.75,330.83c-8.63-3.85-15.56-7.09-20.34-9.34l-5.5-2.75a14.52,14.52,0,0,1-1.87-1A10.56,10.56,0,0,1,385.08,318.41Z"/><path class="cls-23" d="M421,228.86c-.74,1.68-1.76,4.14-3,7.17-2.35,6.08-5.86,14.5-9.42,23.88a65.54,65.54,0,0,0-4.86,20.33l1.11.61a70.55,70.55,0,0,1,5.08-20.39c3.54-9.36,6.8-17.84,9-24,1.11-3.08,2-5.64,2.59-7.34a9.67,9.67,0,0,0,.75-2.8A13.82,13.82,0,0,0,421,228.86Z"/><path class="cls-23" d="M411.29,222a82.89,82.89,0,0,1,3.28,21.33A82.89,82.89,0,0,1,411.29,222Z"/><path class="cls-23" d="M535.23,365.73a23.92,23.92,0,0,1,8.88-4.7,75.79,75.79,0,0,1-8.05,5.85,24.07,24.07,0,0,1-8.88,4.7A74.41,74.41,0,0,1,535.23,365.73Z"/><path class="cls-23" d="M542.08,374.19a29.62,29.62,0,0,1,5.63-9.07,67.2,67.2,0,0,1-4.4,9.7,23,23,0,0,1-6.4,8.58C536.55,383.12,539.49,379.36,542.08,374.19Z"/><path class="cls-4" d="M383,310.44l-25.45-22L347.4,274.54a143.38,143.38,0,0,1-11.25-11.48c-1.18-2.09,0-2.84.91-3.33s11,6.46,11,6.46-12.43-11.05-13.14-14.05,1.59-3.95,3.16-4.2,20.17,18.85,20.17,18.85l-6.35-9.45s-12.14-8.82-13.55-12.42,2.75-5.5,2.75-5.5l14.27,11.49,9.59,8.43-8.44-10.08s-10.31-8.22-10.8-11.74,3.93-3.52,3.93-3.52l15.42,11.25,14,15.19a29.15,29.15,0,0,1-1-8.1c.19-4,1.84-2.12,1.84-2.12l11.71,14.29,3,20.06Z"/><path class="cls-4" d="M311,249.86l12.37,7.29-7.67-.42a39.6,39.6,0,0,0-9.42-2.74c-2.09.24-2.34,3.32-2.34,3.32l23.64,9.51L345.44,277l23.75-13.74-2.58-12.95-1.38-13.74-2-7.34-6.16-9.59s-3.84.25-2.74,5.28,2,7.94,2,7.94l-.35,8-3.55.85-21.16-11-5.5-5.86s-2.86-8.16-8.63-9.42a1.11,1.11,0,0,0-.65.06,1.18,1.18,0,0,0-.67,1.53l5.8,14.4,6.35,5.8-8.44-4.31s-7.42-10-11.84-11.66-3.55,1.71-3.55,1.71l7.67,14.4,10.86,8.74L314,242l-9.81-7.67s-3.16-2.26-4.75,0a2.29,2.29,0,0,0,0,2.75Z"/><path class="cls-9" d="M382.41,310.05l-1.32-1-4.62-3.63c-4.48-3.77-10.85-9.18-18.88-16h0l-10.17-14h0a153.87,153.87,0,0,1-11-11.13,4.44,4.44,0,0,1-.88-2.23,2.5,2.5,0,0,1,1.4-2.14,1.54,1.54,0,0,1,.8-.25,3.47,3.47,0,0,1,.71.16l1,.5c.66.33,1.26.69,1.9,1,2.5,1.52,6.22,5,8.72,6.7l.38,1.48c-3-2.7-8.44-7.93-11.41-11a24.76,24.76,0,0,1-4.12-5.22,3.86,3.86,0,0,1,.24-3.74,4.59,4.59,0,0,1,3.38-1.76,2.1,2.1,0,0,1,1.1.47,7.3,7.3,0,0,1,.72.52c.46.33.9.72,1.32,1.08.88.74,1.7,1.48,2.55,2.25,1.65,1.57,3.33,3.13,5,4.75,3.3,3.23,6,6.13,9.34,9.54l-.44,1.27-6.37-9.46.16.17c-2.17-1.63-4.37-3.33-6.57-5.17a44.64,44.64,0,0,1-6.29-6.08,4.57,4.57,0,0,1-1.05-4.48,6.55,6.55,0,0,1,3.22-3.24l.36-.19.35.3,12.32,9.9c4,3.27,7.07,6.19,10.86,9.46l-.28,1.53-8.44-10.09h0a72.34,72.34,0,0,1-8.24-7.8,17.35,17.35,0,0,1-1.76-2.26,6.37,6.37,0,0,1-.69-1.32,4.07,4.07,0,0,1-.28-1.59,3.31,3.31,0,0,1,1.71-2.75,6.45,6.45,0,0,1,2.75-.74h.35l15.39,11.27h0l14,15.22-.82.5a26.56,26.56,0,0,1-.94-9,10.74,10.74,0,0,1,.22-1.13,1.7,1.7,0,0,1,.91-1.1,1.48,1.48,0,0,1,1.38.44l.66.83,2.47,3.05c3.1,4,6.07,7.5,8.6,10.58h0c.88,6.46,1.6,11.46,2.06,14.95.2,1.62.5,2.91.5,3.85a5.83,5.83,0,0,1,0,1.32,11.9,11.9,0,0,1-.28-1.29c-.16-.94-.35-2.2-.63-3.82-.58-3.5-1.35-8.47-2.36-14.9v.14l-8.72-10.45-2.5-3c-.41-.55-.9-1-1.1-1a2.19,2.19,0,0,0-.49,1.46,26,26,0,0,0,1,8.6l.49,1.92-1.34-1.45L364.6,245.71h0l-15.39-10.63h.36c-1.54,0-3.27.74-3.33,2.25s1.29,2.91,2.42,4.26a74.15,74.15,0,0,0,8.24,7.61h0l8.47,10.09-.52,1.1c-3.8-3.27-8-6.93-12-10.17l-12.31-9.89h.74a5,5,0,0,0-2.47,2.44,3.27,3.27,0,0,0,.83,3.19,44.85,44.85,0,0,0,6.1,5.83c2.14,1.81,4.34,3.51,6.48,5.14h0c2.2,3.24,4.35,6.46,6.35,9.45l-.44,1.27c-3.3-3.39-7.25-7.12-10.52-10.34-1.65-1.62-3.3-3.19-4.95-4.73l-2.5-2.25c-.41-.36-.83-.71-1.27-1l-.63-.47c-.14-.11-.58-.25-.36-.25a3.4,3.4,0,0,0-2.33,1.21,2.58,2.58,0,0,0,0,2.5,25,25,0,0,0,3.85,4.84c2.91,3.1,7.71,8.15,10.67,10.9l-2.51-1.36c-2.45-1.71-4.92-3.33-7.34-4.81-.63-.36-1.24-.77-1.84-1.05s-1.4-.71-1.4-.44c-.58.33-.88.66-.88,1.13a3.12,3.12,0,0,0,.66,1.59,152.07,152.07,0,0,0,11,11h0l10,14.1h0l18.64,16.29,4.92,4.37,1.26,1.16c.38.27.38.44.38.44Z"/><path class="cls-9" d="M378.64,260.14a14.9,14.9,0,0,1,7.95,12.95c-.41.08-1.24-3.25-3.38-6.82s-4.81-5.8-4.57-6.13Z"/><path class="cls-24" d="M326.13,189.56a79.08,79.08,0,0,1,4.77-13.86,79.19,79.19,0,0,1-3.42,14.24,78,78,0,0,1-4.77,13.86A79.19,79.19,0,0,1,326.13,189.56Z"/><path class="cls-24" d="M301.47,189a139.19,139.19,0,0,1,2.9,19.15,132.5,132.5,0,0,1-4.26-18.88,137.86,137.86,0,0,1-2.89-19.18A131.51,131.51,0,0,1,301.47,189Z"/><path class="cls-24" d="M276.26,208.89a57.11,57.11,0,0,1,9.83,7.76A56.87,56.87,0,0,1,275.46,210s-16.54-11.48-18.66-13.82Z"/><path class="cls-24" d="M247.26,244.62c4.21-1.89,24.54-6,24.54-6a105.69,105.69,0,0,1,16.49-2.75A101.34,101.34,0,0,1,272,240Z"/><path class="cls-24" d="M284.11,266a99.64,99.64,0,0,1,8.44-13.74,89.54,89.54,0,0,1-7.23,14.46,93.88,93.88,0,0,1-8.43,13.74A97.52,97.52,0,0,1,284.11,266Z"/><path class="cls-4" d="M501.32,134.51S499,160.7,506.76,178c1.08,2.42,22.17,10.12,22.17,10.12l-22.73,9c-12.85,3.71-42,4.72-54.8.89L440.53,192s13.1-3.64,13.58-6.73S451,159.23,451,159.23"/><path class="cls-9" d="M453.88,179.63s5.17-3.54,8.8-4.79,10-1.41,26.12-17.19c0,0-3.93,18.45-25.42,23.62,0,0-5.55,1.51-9.29.83Z"/><path class="cls-4" d="M428.11,69.47a3.62,3.62,0,0,1-.19.4l.22-.2Zm-9.37,3.67,0,.17c.14-.15.27-.29.39-.44C419.13,72.67,418.74,73.14,418.74,73.14Zm82.19,65.39.7-3.53c5.17,5.58,12.08,0,11.54-8.75,1.88-4.59,3.45-19.35-.61-23.42l-.5-.61c-2.72-1.66-7.28-2-8.78,1.52-.45,1.51.26,3.27-.19,4.78-.42,1.72-2.39,5.12-3.28,6.69,0,0-2.34-8.12-2.69-12s-4.66-14.6-12.31-19c0,0-1.8-13.58-5.48-17.17l-1.17-.23c-.66.09-1.07.36-1.73.46,0-.2.16-.44.1-.84a7.15,7.15,0,0,1-2.84.63c.19-.24.61-.51.58-.71a11.33,11.33,0,0,1-2.65.4c.19-.24.57-.71.54-.91-1,.57-1.76.26-2.64.39a1.49,1.49,0,0,0,.32-.87,6.19,6.19,0,0,1-2.62.6c.19-.24.35-.68.54-.91-1,.57-1.76.26-2.64.39-.22,0,.38-.47.35-.67a8.3,8.3,0,0,1-2.17.53c0-.2.38-.47.35-.67-1.27.6-2,.29-2.87.43l.54-.91a3.15,3.15,0,0,1-2.58.8c.19-.24.57-.71.54-.91a4.42,4.42,0,0,1-3.47.93c.22,0,.57-.71.54-.91-1,1-1.89.9-3,1.07.19-.23.35-.67.73-1.14a4.58,4.58,0,0,1-4.1,1.23c.22,0,.35-.68.32-.88-.76.94.75-.31-.39-.35,0,0-2.41,1.19-2.44,1-.79.74,1.81-3.78.71-3.61.16-.44-6.27,1.32-5.89.85-1,1-.81.52-2.17.52,0,0-4.21,3.1-4,2.86-.95,1.18-1.58.41-2.93.4.19-.24.92.73,1.11.49-.76.94-.62-.11-1.72,0,0-.2-3.8-.77-3.83-1-1,.77-.64.8-2,1,0-.2-.5,2.35-.31,2.11-.76.94-.81.27-2,.24l-1,.91c-1,1.18.5.51-.85.51,0-.14,5.06-.11,5.23-.41a8.4,8.4,0,0,1-2.66,1.68c0-.21.14-.64.11-.85A4.49,4.49,0,0,1,422,72.44c.22,0,.38-.47.35-.67-.95,1.18-2.18,2-3.6,1.57v0a7,7,0,0,1-2.87,1.91.89.89,0,0,1,.32-.88l-.88.13a14.45,14.45,0,0,0-1.89,5.45s-6,12.74-4.65,20.19,4.6,20,5.3,23.21a65.38,65.38,0,0,1,1.12,10.2c.2,6.63.43,8.36,3,14.67a42.43,42.43,0,0,0,9,14.18c4.61,5.13,10.72,9.27,16.53,13.36,3.83,2.7,8.92,4.58,13.85,4.08,13.75-1.39,25.91-12.66,33.32-22.75"/><path class="cls-25" d="M413,88c3.59-12.58,16.32-21.15,43.67-28.7a100.81,100.81,0,0,1,50.66-.59c-18.91-38-59.19-30.64-68.22-29.3s-50.37,43.46-30.21,74.27l1.22,3S412.38,90.23,413,88Z"/><path class="cls-25" d="M513.28,49.3s-.38-25.5-19.89-31.18c-26.05-7.58-60.05-7.57-68.15,19.89Z"/><path class="cls-26" d="M519.81,110.34c1.71-2.34.31-8,1.7-10.59,7.29-13.32,2.65-24.61-1.85-31-2-2.81-.63-8.44-1.17-11.08-2.83-13.82-4.49-14-27.33-25.23-18.6-9.12-36.8-5.88-47.29-3.74-16.81,3.43-24.12,5.6-28.25,18.5-.54,1.68.48,2.82.11,4.8-.51,2.81-4.66,3.72-4.85,7.21,0,0,23,5.51,43.19,12.8s59.07,41.38,59.46,53.27C513.54,125.6,517.91,112.92,519.81,110.34Z"/><path class="cls-25" d="M525.13,82.54s-37.84-34.68-72.85-29.81c0,0,43.87-12.51,68.53,16.83l.66,1.22a31.13,31.13,0,0,1,3.45,10.32Z"/><path class="cls-25" d="M415.32,52.48l2.24-1.24A62.05,62.05,0,0,1,434.16,45l9.74-2.14s-24.37-.62-28.76,6.18Z"/><path class="cls-27" d="M505,132.32a4.26,4.26,0,0,1,4.37,3.38,4.13,4.13,0,0,1-.48,2.88,3,3,0,0,1-1.28,1.26,3.86,3.86,0,0,1-3.63.06c-.25-.12-1.11.25-.76.42a5.57,5.57,0,0,0,6-1,4.45,4.45,0,0,0-.13-6.12,4.93,4.93,0,0,0-3.71-1.36c-.18,0-.52.06-.62.25s.08.24.24.23Z"/><path class="cls-28" d="M494.13,99.55l4.11,19.5,5.62-9.71S496.93,102.32,494.13,99.55Z"/><path class="cls-10" d="M503.14,118.13c.64-.09,1.6-.24,1.8.57a4.59,4.59,0,0,1-.26,2c-.35,1.42-.9,3.32.4,4.42,1.65,1.4,3.33-1.14,3.87-2.44a9.1,9.1,0,0,0,.49-5.52c-.43-1.89-1.28-4.41-3.37-5-.4-.11-1.11.47-.54.63,1.74.48,2.47,2.61,2.87,4.18a8.54,8.54,0,0,1-.11,4.93,5.3,5.3,0,0,1-1.66,2.73c-.56.39-1-.15-1.26-.69-.54-1.34.24-3,.48-4.31a2.19,2.19,0,0,0-.24-1.79c-.56-.65-1.64-.56-2.39-.46-.51.07-.72.77-.08.69Z"/><path class="cls-25" d="M504.76,88.81s14.32,11,16,15.92l.72-5A26.07,26.07,0,0,0,504.76,88.81Z"/><path d="M443.23,141.88a6.37,6.37,0,0,0,5.68-1.21c.33-.28,1.57-.25,1.11.14a9,9,0,0,1-7.76,1.53c-.22-.08-.21-.24,0-.37a1.44,1.44,0,0,1,.93-.09"/><path d="M450.66,140.25a10.26,10.26,0,0,1,3.41-1.41.78.78,0,0,1,.56.09c.12.08.16.2,0,.29a3.85,3.85,0,0,1-1.88.73.73.73,0,0,1-.63-.14c-.14-.15,0-.28.21-.31a3.08,3.08,0,0,0,1.51-.59l.61.38a9.22,9.22,0,0,0-3.05,1.27.74.74,0,0,1-.65,0c-.15-.05-.31-.21-.13-.33"/><path d="M455.53,139.67a5,5,0,0,0,3.56-2.29c.82-1.77-.55-4.19-2.49-4.95-.21-.09-.13-.25.06-.32a1.18,1.18,0,0,1,.79,0,5,5,0,0,1,3,4.17c0,1.44-1.23,2.64-2.88,3.3a8.14,8.14,0,0,1-1.55.46c-.21,0-.61,0-.74-.12s.05-.26.25-.3"/><path d="M440.5,141.55a.18.18,0,0,0-.22-.24,1.66,1.66,0,0,1-1.16-.2l-.31.52a5,5,0,0,1,2.36.46.4.4,0,0,0,.44-.14c.08-.09.16-.28,0-.36"/><path d="M441.62,141.59a5.7,5.7,0,0,0-2.64-.5.5.5,0,0,0-.36.23.21.21,0,0,0,.05.29"/><path d="M437.56,142.19a3,3,0,0,1-2.74-1.36,4.2,4.2,0,0,1,.44-4.73.17.17,0,0,0-.12-.29.55.55,0,0,0-.47.23,4.72,4.72,0,0,0-.94,4.1,3.31,3.31,0,0,0,2.57,2.5,3.44,3.44,0,0,0,1.06.06c.14,0,.39-.11.43-.29s-.1-.24-.23-.22"/><path class="cls-28" d="M424,116a3.47,3.47,0,0,0-3.51,1.13,3.29,3.29,0,0,0-.56,1.59,3.21,3.21,0,0,0,1.18,2.79,3,3,0,0,0,3.49.09,3.31,3.31,0,0,0,1-4A3,3,0,0,0,424,116"/><path class="cls-28" d="M435.54,118.41s-6.65-3.8-9.74-3.65c-4.51.22-9.62,3.5-10.86,5.94,0,0,6.69-4.76,9.88-4.82S435.54,118.41,435.54,118.41Z"/><path class="cls-28" d="M461.92,110.52a4.18,4.18,0,0,1,4-.35,3,3,0,0,1,.82,4.32,3,3,0,0,1-3.3,1.11,3.31,3.31,0,0,1-2.18-3.57c0-.25-.28-.67.63-1.33"/><path class="cls-28" d="M454.68,115s6.09-5.28,9.38-5.87c4.81-.87,11,1.1,12.9,3.18,0,0-8.22-3-11.59-2.34S454.68,115,454.68,115Z"/><path class="cls-28" d="M433.37,103.06l.21,2.73.15,2.08c-2.36-.4-4.38-.63-5.9-.76-3.21-.27-4.85-.4-6.67,0a17.91,17.91,0,0,0-4.1,1.66,12,12,0,0,0-2.13,1.35c-1.47,1.26-2,2.58-2.27,2.49s0-1.23.08-1.35a10.68,10.68,0,0,1,3-4.87,12.66,12.66,0,0,1,4.12-2.31c1.78-.6,6.8-1.34,13.55-1.07"/><path class="cls-28" d="M452.92,99l.42,2.7c.11.69.23,1.38.34,2.06,2.41-1,4.49-1.67,6.07-2.16,3.34-1,5.05-1.58,7.08-1.57a20.26,20.26,0,0,1,4.74.62,12.92,12.92,0,0,1,2.57.79c1.86.86,2.74,2,3,1.87s-.35-1.19-.41-1.29a10.79,10.79,0,0,0-4.28-4,14.17,14.17,0,0,0-4.92-1.24c-2-.16-7.52.34-14.61,2.24"/><path class="cls-12" d="M449.08,150.29c7-1,18.26-3.6,18.26-3.6s0,14.75-16.23,17.18-20.53-11.69-20.53-11.69S442.07,151.34,449.08,150.29Z"/><path class="cls-13" d="M449,150.3c3.33-.5,16.68-3.09,16.68-3.09s-3.3,8.33-15.36,10.13c-13.07,1.95-18-5-18-5Z"/><path class="cls-14" d="M449,150.84c3.33-.49,13.39-2.59,13.39-2.59s-3.08,4.34-13.09,5.83-13.73-1.72-13.73-1.72Z"/><path class="cls-12" d="M429.68,151.22c.34-.14,2.38.24,4-.16,2.72-.66,4.33-1.67,6.31-2.13,3.37-.78,5.75.3,7.24.08s3.44-1.95,6.89-2.19c2-.14,7.09-.12,9.89-.28,1.67-.1,3.52-1.06,3.88-1s.12,3.95-18.54,6.73S429.21,151.42,429.68,151.22Z"/><path class="cls-9" d="M80.1,421.41s-9.49.11-15.65,4.61C64.45,426,70.75,418.31,80.1,421.41Z"/><path class="cls-9" d="M211,411.32s-7.27,6.1-9.18,13.49C201.84,424.81,201.82,414.85,211,411.32Z"/><path class="cls-23" d="M472.14,301.48s11,4.39,15.37,13.93C487.51,315.41,483.69,301,472.14,301.48Z"/></g></svg>