<svg id="Layer_1" data-name="Layer 1" xmlns="http://www.w3.org/2000/svg" viewBox="0 0 348 282.35"><defs><style>.cls-1{fill:#f8d979;}.cls-2{fill:#fff;}.cls-3{fill:#f8ac1c;}.cls-4{fill:#e59525;}.cls-5{fill:#319c47;}.cls-10,.cls-11,.cls-14,.cls-15,.cls-16,.cls-17,.cls-18,.cls-19,.cls-25,.cls-26,.cls-27,.cls-28,.cls-29,.cls-6{fill:none;stroke-miterlimit:10;}.cls-6{stroke:#188ab2;stroke-width:1.79px;}.cls-11,.cls-14,.cls-15,.cls-18,.cls-19,.cls-25,.cls-28,.cls-29,.cls-6{stroke-linecap:round;}.cls-7{fill:#a2cced;}.cls-8{fill:#f4e1b0;}.cls-9{fill:#5a3616;}.cls-10{stroke:#f4e1b0;stroke-width:0.94px;}.cls-11{stroke:#0d4161;stroke-width:0.4px;}.cls-12{fill:#0aa0cc;}.cls-13{fill:#0b4161;}.cls-14,.cls-15,.cls-25{stroke:#2585a9;}.cls-14{stroke-width:0.42px;}.cls-15{stroke-width:0.47px;}.cls-16,.cls-17,.cls-26,.cls-27{stroke:#010101;}.cls-16{stroke-width:0.44px;}.cls-17{stroke-width:0.44px;}.cls-18,.cls-28{stroke:#0b4161;}.cls-18{stroke-width:0.66px;}.cls-19{stroke:#198ab1;stroke-width:5.13px;}.cls-20{fill:#a1cbec;}.cls-21{fill:#eaeae8;}.cls-22{fill:#b7b7b8;}.cls-23{fill:#ea1e52;}.cls-24{fill:#504b48;}.cls-25{stroke-width:1.22px;}.cls-26{stroke-width:1.28px;}.cls-27{stroke-width:1.27px;}.cls-28{stroke-width:1.92px;}.cls-29{stroke:#1789b1;stroke-width:5.17px;}.cls-30{fill:#a1caeb;}.cls-31{fill:#258f45;}.cls-32{fill:#e49024;}.cls-33{fill:#761515;}.cls-34{fill:#a51e24;}.cls-35{fill:#194a98;}.cls-36{fill:#b18962;}.cls-37{fill:#ccb193;}.cls-38{fill:#02a1cd;}.cls-39{fill:#514c49;}</style></defs><polyline class="cls-1" points="0 282.35 0 0 348 0 348 282.35"/><path class="cls-2" d="M202.46,115.62A25.76,25.76,0,0,1,197.08,76c.94-1,.93-1.05.22-2.35a25.34,25.34,0,0,1,2.52-28.8c4.9-5.84,11.48-9.16,18.37-9.24a50.32,50.32,0,0,1,5.31.23c.63,0,1-.16,1.11-.94a17.46,17.46,0,0,1,.66-2.51,25.41,25.41,0,0,1,13.34-15.32,24.54,24.54,0,0,1,12.81-2.38,24.82,24.82,0,0,1,13.42,5.15A25.4,25.4,0,0,1,271,26.64a1.08,1.08,0,0,0,.14.26.8.8,0,0,0,1.27.1,25.67,25.67,0,0,1,10-4.12,24.84,24.84,0,0,1,16.53,2.73,24.16,24.16,0,0,1,8.59,7.69A24.7,24.7,0,0,1,312,50.67c-.1.89.11,1.25.85,1.45a37.53,37.53,0,0,1,5.88,1.79,25.21,25.21,0,0,1,12.17,11.38,25.76,25.76,0,0,1-8.25,33.26,23,23,0,0,1-9.22,3.9c-1,.19-1.23.51-1,1.76a24.68,24.68,0,0,1-1.34,12.62,25.15,25.15,0,0,1-13.76,14.54,24.21,24.21,0,0,1-13.81,1.83,25.29,25.29,0,0,1-13.64-6.6,1.07,1.07,0,0,0-.14-.16.91.91,0,0,0-1.43.24,25,25,0,0,1-22.95,8.57A24.5,24.5,0,0,1,234,130.39a25.33,25.33,0,0,1-8.52-11.58c-.36-1-.82-1.15-1.63-.87a24.24,24.24,0,0,1-8.25,1.5A25.12,25.12,0,0,1,202.46,115.62Z"/><polyline class="cls-3" points="253.49 117.98 256.46 117.98 256.46 105.19 280.37 105.19 280.37 117.98 283.4 117.98 283.4 103.99 283.35 103.99 283.35 101.27 253.49 101.27 253.49 104.03"/><rect class="cls-4" x="250.95" y="95.18" width="34.75" height="6.95" rx="2.1"/><rect class="cls-5" y="256.26" width="348" height="26.09"/><path class="cls-6" d="M240.87,74.87s-4.14,4.09-6.5,4.4-6.08-1.3-6.08-1.3"/><path class="cls-7" d="M219.85,78.37a.56.56,0,0,1-.32-.74l0-.06a.67.67,0,0,1,.72-.5l1.93.51a5.23,5.23,0,0,1,0-.56l-2.31-.62a.57.57,0,0,1-.3-.75v0a.66.66,0,0,1,.72-.51l2.32.62a3.36,3.36,0,0,1,.31-.43l-2-.54a.55.55,0,0,1-.3-.73v0a.67.67,0,0,1,.72-.5l3.32.88a1.86,1.86,0,0,1,.34,0l-.55-.4a.67.67,0,0,1-.06-.88h0a.56.56,0,0,1,.73-.29l.06,0,2.95,2.21a.51.51,0,0,1,.19.4,2.42,2.42,0,0,1,.5,2.63A2.55,2.55,0,0,1,226.12,80l-2.63-.69-.06,0h0Z"/><path class="cls-8" d="M216.23,71.91H221a1.68,1.68,0,0,1,1.68,1.68h0v5.24a1.88,1.88,0,0,1-1.88,1.88h-4.33A1.75,1.75,0,0,1,214.69,79h0v-5.5a1.55,1.55,0,0,1,1.54-1.55Z"/><ellipse class="cls-9" cx="218.68" cy="72.74" rx="3.22" ry="0.59"/><path class="cls-10" d="M222.56,73.73a2.23,2.23,0,1,1,.18,4.45h-.18"/><path class="cls-11" d="M219,70.11c-.84-.21-1.4-1.5-1.5-2.38-.14-1.19.75-1.74,1.44-2.53a3.54,3.54,0,0,0,.81-3.29,3.13,3.13,0,0,0-2.29-2.52"/><path class="cls-11" d="M216.56,62.62a2.29,2.29,0,0,1-.36,2.69c-.34.48-.62,1.14-.27,1.61"/><path class="cls-11" d="M220.67,68.4s-1.19-.7,0-2.26"/><path class="cls-12" d="M291.89,64.39A127.77,127.77,0,0,1,293,78.76c.29,10.62-7.71,19.36-17.88,19.54l-16.85.3a18.78,18.78,0,0,1-17.16-11.23c-2.24-5-2.05-11.26-2.14-16.62-.16-10.4,2.21-23.08,10.6-30.06,11.17-9.29,28.66-7.17,36.53,5.29a29.74,29.74,0,0,1,3.34,7.24A72.58,72.58,0,0,1,291.89,64.39Z"/><path class="cls-13" d="M251.93,61.26s-.24,3.29,5,3.4c4.07.09,4.34-2.93,4.34-2.93Z"/><path class="cls-14" d="M263.21,56.85c-.69,2.18,1,3.33,2.76,3.52"/><path class="cls-14" d="M250.89,57.49a3.49,3.49,0,0,1-4.33,3.28"/><path class="cls-15" d="M264.87,47.07a33.15,33.15,0,0,1-17.73-.25"/><path class="cls-2" d="M251.13,57.84a4.31,4.31,0,0,0-8.6-.25"/><path class="cls-13" d="M248.12,57.86a1.87,1.87,0,1,0-3.74-.11"/><path class="cls-2" d="M271.63,57A4.34,4.34,0,0,0,263,57"/><path class="cls-13" d="M268.07,57a1.87,1.87,0,0,0-3.74,0"/><path class="cls-16" d="M259.79,56.91c0,2.81,3.9,5,8.65,5s6.91-1.79,8.53-5.17c1.22-2.53.47-5.11-4.28-5.06S259.75,54.11,259.79,56.91Z"/><path class="cls-17" d="M260.11,58.25s-3-4.24-6.43.11"/><path class="cls-13" d="M271.28,55l2.16-.94-1.92,1.64.05.27,1.87-.26-1.79.81c0,.26,0,.44,0,.44-1-3.44-3-3.89-3.53-3.95A3.26,3.26,0,0,1,271.28,55Z"/><path class="cls-13" d="M240.71,56.4l1.86.27c0-.09,0-.18.06-.28l-1.89-1.66,2.15,1a3.59,3.59,0,0,1,3.39-1.94c-.57.06-2.8.43-3.81,3.93,0,0,0-.17,0-.45Z"/><path class="cls-18" d="M242.93,51.54a3.32,3.32,0,0,1,4.78-1.47"/><path class="cls-18" d="M270.68,51.35s-1.41-3-4.54-.88"/><path class="cls-16" d="M236.6,57.5c1.34,3.06,3.9,5,8.65,5s8.57-2.38,8.53-5.18-7.78-5-12.51-5S235.46,54.91,236.6,57.5Z"/><path class="cls-19" d="M196.53,171.38s-15,7.88-38-10.91"/><path class="cls-20" d="M192.65,164.62c-2.09.87-3.56,3.4-3.5,6.44.07,3.87,2.59,7.16,5.6,7.32l7.43.38h.23l10,.51c.79.05,1.41-.75,1.39-1.76a1.81,1.81,0,0,0-1.46-1.92l-5.46-.28a7.6,7.6,0,0,0,.44-1.49l6.54.34c.79,0,1.42-.76,1.4-1.77a1.84,1.84,0,0,0-1.47-1.92l-6.54-.33a8.67,8.67,0,0,0-.44-1.39l5.62.29c.79,0,1.42-.76,1.4-1.77a1.84,1.84,0,0,0-1.47-1.92l-9.37-.48a4.58,4.58,0,0,0-.91-.18l1.78-.61a1.86,1.86,0,0,0,.9-2.25h0c-.24-1-1.06-1.57-1.8-1.31"/><path class="cls-21" d="M225.74,218.78s-8.43-24.75-11.85-38.69a20.16,20.16,0,0,1-4.09.44c.72,5.5,2.82,12.83,2.83,13.17.08,3.51-10.43,7.66-17.09,1.68-4.23-3.8,2.64-18.72,5.49-24.43.7-1.39,1.15-2.23,1.15-2.23s2.24-4,4.84-3.15c.75-.7-.26.32.53-.33-3.68-1.54-2.86-.8-2.86-.8-9.09,4.67-19.32,31.36-22.8,39.11s-5.31,28.18,2.82,35.24c2.31,2-.17.22,24.38.79C228.62,240,225.74,218.78,225.74,218.78Z"/><path class="cls-22" d="M200,173.1s-9.58,20-8.75,27.25,20.51,5.16,22,2.26-3.39-22.08-3.39-22.08.8,13.84-.81,15.36-2.7,3.35-9.1,1.41-5.07-3.7-3.87-8.45S200,173.1,200,173.1Z"/><path class="cls-21" d="M213.93,180.28s-5.22-14.63-6.75-15.37a3.82,3.82,0,0,0-2.49-.47l5.67,18.35Z"/><polyline class="cls-12" points="127.93 202.39 117.34 267.55 111.19 267.55 100.61 202.58"/><polyline class="cls-12" points="93.42 203.58 82.84 268.75 76.69 268.75 64.23 192.21"/><polygon class="cls-23" points="110.27 267.46 107.08 242.28 121.44 242.28 117.57 267.18 110.27 267.46"/><polygon class="cls-23" points="75.78 267.46 72.32 242.28 87.15 242.28 83.08 267.18 75.78 267.46"/><path class="cls-24" d="M104.79,269.37a14.66,14.66,0,0,0-29.3,0"/><path class="cls-24" d="M139.29,269.55a14.66,14.66,0,0,0-29.3,0"/><path class="cls-12" d="M170.7,119.63a369.34,369.34,0,0,1,2.55,41.78c.38,30.86-23.24,55.92-52.79,56l-49,.1c-21.54.05-40.9-13.74-49.36-33.35-6.28-14.53-5.45-32.79-5.47-48.38,0-30.21,7.43-66.93,32.11-86.82,32.86-26.51,83.56-19.56,105.87,17A88,88,0,0,1,164,87.1,209.71,209.71,0,0,1,170.7,119.63Z"/><path class="cls-13" d="M133.58,118.57s.88-7.82-14.16-7.49c-11.78.25-12.72,7.41-12.72,7.41Z"/><path class="cls-25" d="M137.6,99c-2.2,6.28,2.73,9.77,7.7,10.48"/><path class="cls-25" d="M101.78,99.81c.25,5-6.11,11.47-12.86,9.12"/><path class="cls-25" d="M143.79,69.47a86.09,86.09,0,0,1-46-2.06"/><path class="cls-2" d="M102.44,100.84c.39-6.47-4.89-12-11.78-12.43s-12.79,4.49-13.16,11"/><path class="cls-13" d="M101,100.84a5.44,5.44,0,0,0-10.86-.64"/><path class="cls-2" d="M162,100.06c.18-6.46-5.28-11.87-12.22-12.09s-12.73,4.81-12.9,11.34"/><path class="cls-13" d="M159,100a5.44,5.44,0,0,0-10.86-.33"/><path class="cls-26" d="M127.65,98.9c-.15,8.15,10.89,15,24.69,15.25s20.22-4.59,25.23-14.27c3.74-7.22,1.8-14.8-12-15S127.81,90.76,127.65,98.9Z"/><path class="cls-27" d="M128.47,102.81s-8.4-12.57-18.66-.25"/><path class="cls-13" d="M161.2,94.41l6.34-2.52-5.71,4.59.13.78,5.45-.58-5.27,2.19c0,.74,0,1.27,0,1.27-2.52-10.06-8.27-11.55-9.92-11.78A9.5,9.5,0,0,1,161.2,94.41Z"/><path class="cls-13" d="M72.31,95.75l5.37.93c.06-.26.12-.52.2-.79l-5.35-5,6.16,3c1.36-2.84,4.71-5.34,10-5.33-1.67.12-8.17,1-11.41,11.09,0,0,0-.5.08-1.32Z"/><path class="cls-28" d="M90.87,76.88S87,86.07,77.06,81.43"/><path class="cls-28" d="M145.71,77.73s1.8,9.47,12.16,5.75"/><path class="cls-29" d="M102.41,179.86s-22.24,1-34.67-2.1A35.05,35.05,0,0,1,49,155.49"/><path class="cls-26" d="M60.27,98.56c3.64,9,10.89,15,24.68,15.25s25.09-6.14,25.24-14.28S88,84.26,74.29,84,57.19,91,60.27,98.56Z"/><path class="cls-30" d="M120,185.53a1.59,1.59,0,0,0,1.48-1.68,1.62,1.62,0,0,0-1.52-1.7l-5.76.11a6.08,6.08,0,0,0,.47-1.38l6.9-.13a1.66,1.66,0,0,0-.06-3.31l-6.9.12a6.74,6.74,0,0,0-.46-1.23l5.92-.1a1.67,1.67,0,0,0,0-3.33l-9.89.22a5.24,5.24,0,0,0-1-.11l1.89-.67a1.72,1.72,0,0,0,1-2.09h0a1.51,1.51,0,0,0-1.82-1.1l-.08,0-10.06,3.57a1.47,1.47,0,0,0-.85.81,6.4,6.4,0,0,0-3.73,6,6.11,6.11,0,0,0,5.89,6.26l7.82-.14.15,0,.09,0Z"/><path class="cls-21" d="M93.85,225.67s7.55-24.92,11-38.86a30.56,30.56,0,0,0,5,.61c-.72,5.5-2.82,12.83-2.83,13.17-.08,3.51,10.43,7.66,17.09,1.67,4.23-3.79-2.64-18.71-5.49-24.42-.7-1.39-1.16-2.23-1.16-2.23s-2.23-4-4.83-3.15c-.75-.7-1.79,1.18-2.58.53a21.66,21.66,0,0,1,4.91-1.66c9.08,4.67,19.31,31.36,22.79,39.11s5.32,28.18-2.81,35.24c-2.31,2,.17.22-24.38.79C91,246.93,93.85,225.67,93.85,225.67Z"/><path class="cls-22" d="M119.61,180s9.59,20,8.76,27.25-20.51,5.16-22,2.26,3.39-22.08,3.39-22.08-.8,13.84.81,15.36,2.7,3.35,9.1,1.41,5.06-3.7,3.87-8.45S119.61,180,119.61,180Z"/><path class="cls-31" d="M117.8,197.51c-.69,0-1.65,1.54-2.17,2.49l-.11-.19c.47-1.58,1.29-4.6.61-4.23s-1.12,1.8-1.4,2.78l-.24-.42a11.59,11.59,0,0,0-.89-5.28l-.26,1.05a8.3,8.3,0,0,0,0,2.39,6.43,6.43,0,0,0-2-2.16c-2.53-1.19-3.44-.12-3.44-.12s3.53,1.69,4.13,2.77l.6,1.08s-4.37-1-4.38-.18,4.94,2,4.94,2-4,.07-4.16,1.44,5.13-.46,5.13-.46l.23.7a3.52,3.52,0,0,0-1.55.2c-1.89.63.92,1.62,2.3,2.05l2.64,8,3-.46-1.52-3.27s-1.27-2.95-2.85-6.13C117.15,200.2,118.56,197.49,117.8,197.51Z"/><path class="cls-32" d="M118.56,212.2s-1.13-10.75-12.27-7.83c0,0-1.22,4.19.1,5.13S111.55,212.8,118.56,212.2Z"/><path class="cls-33" d="M124.47,210.76a3.91,3.91,0,1,1,3.95-3.87A3.91,3.91,0,0,1,124.47,210.76Z"/><path class="cls-34" d="M118,209.86a3.9,3.9,0,1,1,7.79.08v.68a18.39,18.39,0,0,1-6.84,1.71A5.2,5.2,0,0,1,118,209.86Z"/><path class="cls-35" d="M199.64,191.47c.72-.78,3.81-1.94,3.81-1.94l-.12-2.19,4.39-.28.3,2.2a29,29,0,0,1,3.2.78c1,.35,2,12.57,2,12.57-2.38,2.76-12.7,2.65-12.7,2.65S198.93,192.25,199.64,191.47Z"/><path class="cls-36" d="M191.26,197c11.89-2.73,13.24,8.23,13.24,8.23-7.49.56-10.93-2.13-12.23-3.39C190.86,200.93,191.26,197,191.26,197Z"/><path class="cls-37" d="M203.39,205.27s-.25-10.49-12.14-7.75c0,0-.45,3.4.76,5.26C193.3,204.05,195.91,205.83,203.39,205.27Z"/><path class="cls-21" d="M104.54,187.51s4.49-14.71,6-15.45a12.62,12.62,0,0,1,4.34-.73l-5.67,18.35Z"/><path class="cls-2" d="M184.43,71.64a5.9,5.9,0,0,1-5.83-5.74,5.85,5.85,0,1,1,5.83,5.74Z"/><path class="cls-2" d="M171.14,74.31a3,3,0,1,1,3-3v.07a3,3,0,0,1-3,3Z"/><polyline class="cls-38" points="250.16 89.83 246.35 107.32 249.2 108.38 257.75 92.72"/><polygon class="cls-23" points="247.42 111.95 245.58 110.6 247.44 102.5 251.56 104.08 247.42 111.95"/><path class="cls-39" d="M239.21,109.14a4.49,4.49,0,1,1,8.39,3.13"/><polyline class="cls-38" points="260.09 93.53 256.28 111.01 259.13 112.08 267.68 96.42"/><path class="cls-6" d="M284.57,75.09s0,13.82-12.37,15.88"/><path class="cls-7" d="M266.31,96.16a.54.54,0,0,1-.66-.39s0,0,0,0a.64.64,0,0,1,.32-.8l1.89-.69a2.26,2.26,0,0,1-.31-.45l-2.26.83a.54.54,0,0,1-.67-.38.09.09,0,0,0,0,0,.66.66,0,0,1,.32-.8l2.26-.83a2.9,2.9,0,0,1,0-.51l-1.95.71a.53.53,0,0,1-.66-.4v0a.66.66,0,0,1,.32-.8l3.24-1.18.3-.16h-.69a.63.63,0,0,1-.54-.65h0a.55.55,0,0,1,.48-.63h0l3.68,0a.49.49,0,0,1,.37.18,2.26,2.26,0,0,1,1.89,1.75,2.46,2.46,0,0,1-1.21,3l-2.57.93h-.08Z"/><polygon class="cls-23" points="257.25 115.86 255.41 114.5 257.27 106.4 261.39 107.99 257.25 115.86"/><path class="cls-39" d="M249.14,112.83a4.49,4.49,0,1,1,8.39,3.13"/></svg>