<svg id="Layer_1" data-name="Layer 1" xmlns="http://www.w3.org/2000/svg" viewBox="0 0 348 282.35"><defs><style>.cls-1{fill:#f8d979;}.cls-11,.cls-12,.cls-14,.cls-15,.cls-16,.cls-2,.cls-22,.cls-5{fill:none;stroke-miterlimit:10;}.cls-2{stroke:#188ab2;stroke-width:4.76px;}.cls-11,.cls-12,.cls-16,.cls-2,.cls-22,.cls-5{stroke-linecap:round;}.cls-3{fill:#a2cced;}.cls-4{fill:#ffcb05;}.cls-5{stroke:#1b89b0;stroke-width:4.97px;}.cls-6{fill:#a1caeb;}.cls-7{fill:#f8ac1c;}.cls-8{fill:#e59525;}.cls-9{fill:#0aa0cc;}.cls-10{fill:#0b4161;}.cls-11,.cls-12{stroke:#2585a9;}.cls-11{stroke-width:1.12px;}.cls-12{stroke-width:1.25px;}.cls-13{fill:#fff;}.cls-14,.cls-15{stroke:#010101;}.cls-14{stroke-width:1.18px;}.cls-15{stroke-width:1.16px;}.cls-16,.cls-22{stroke:#0b4161;}.cls-16{stroke-width:1.76px;}.cls-17{fill:#02a1cd;}.cls-18{fill:#ea1e52;}.cls-19{fill:#514c49;}.cls-20{fill:#57c4cf;}.cls-21{fill:#504b48;}.cls-22{stroke-width:1.83px;}</style></defs><polyline class="cls-1" points="0.5 281.36 0.5 -0.43 348.5 -0.43 348.5 281.36"/><path class="cls-2" d="M159.59,135.63s15,4.1,20.84,1.74,12.43-11,12.43-11"/><path class="cls-3" d="M213,116.3a1.52,1.52,0,0,0-.23-2.13l-.13-.09a1.79,1.79,0,0,0-2.34-.22l-3.82,3.72a7.76,7.76,0,0,0-.75-1.32l4.58-4.47a1.51,1.51,0,0,0-.27-2.12l-.06,0a1.79,1.79,0,0,0-2.35-.23L203,113.86a10,10,0,0,0-1.28-.6l3.91-3.83a1.51,1.51,0,0,0-.26-2.11l-.08,0A1.75,1.75,0,0,0,203,107l-6.56,6.39a4,4,0,0,0-.74.53l.76-1.64a1.81,1.81,0,0,0-1-2.14h0a1.47,1.47,0,0,0-2.07.29l-.1.15-4,9a1.41,1.41,0,0,0,.08,1.17c-.77,2.07.07,4.82,2.27,6.78,2.83,2.51,6.86,2.89,9,.83l5.19-5,.1-.12.06,0Z"/><polyline class="cls-4" points="348 281.79 0.5 281.79 0.5 228.92 348 228.92"/><path class="cls-5" d="M226.61,149s-19.1,17.77-41.75,4.72"/><path class="cls-6" d="M186.18,148.42a5,5,0,0,1,.67,5.41c-1.09,2.66-3.73,4.25-5.85,3.54l-5.24-1.75-.08-.08h0l-7.14-2.32a1.13,1.13,0,0,1-.52-1.52.16.16,0,0,1,0-.07,1.33,1.33,0,0,1,1.53-.93l3.84,1.27a4.92,4.92,0,0,1,.1-1.15l-4.62-1.56a1.15,1.15,0,0,1-.52-1.53.25.25,0,0,1,0-.07,1.37,1.37,0,0,1,1.49-.94l4.61,1.54a8.81,8.81,0,0,1,.67-.84l-4-1.34a1.15,1.15,0,0,1-.53-1.53l0-.07a1.34,1.34,0,0,1,1.53-.92l6.63,2.22a3.32,3.32,0,0,1,.7.13l-1.07-.91a1.38,1.38,0,0,1,0-1.81,1.14,1.14,0,0,1,1.53-.47l.09.06"/><polyline class="cls-7" points="128.36 251 120.45 251 120.45 216.92 56.74 216.92 56.74 251 48.66 251 48.66 213.74 48.79 213.74 48.79 206.47 128.36 206.47 128.36 213.84"/><rect class="cls-8" x="42.53" y="190.26" width="92.61" height="18.52" rx="5.6"/><path class="cls-9" d="M32.61,78.45a80.63,80.63,0,0,1,8.91-19.32C62.5,26,109.1,20.29,138.87,45.06c22.36,18.59,28.68,52.38,28.24,80.09-.24,14.29.28,31.06-5.7,44.3-8,17.86-26,30.24-45.74,29.9l-44.9-.77c-27.1-.48-48.42-23.8-47.64-52.1a338.13,338.13,0,0,1,2.92-38.28A192.63,192.63,0,0,1,32.61,78.45Z"/><path class="cls-10" d="M104.82,99.94s-.1,8.07,10.73,8.91c13.83,1.09,14.08-7.7,14.08-7.7Z"/><path class="cls-11" d="M93,97.49c4.57-.51,9.19-3.57,7.34-9.39"/><path class="cls-11" d="M144.67,98.55c-6.25,2-11.9-4.15-11.53-8.72"/><path class="cls-12" d="M143.1,64.06a88.38,88.38,0,0,1-47.17-2.55"/><path class="cls-13" d="M155.42,90.09c-.17-5.94-5.44-10.59-11.77-10.41s-11.32,5.13-11.14,11.07"/><path class="cls-10" d="M151.56,90.51a5,5,0,0,0-10,.28"/><path class="cls-13" d="M100.94,88.4c0-6-5.15-10.77-11.52-10.76S77.9,82.45,77.89,88.38"/><path class="cls-10" d="M98.41,88.39a5,5,0,0,0-10,0"/><path class="cls-14" d="M75.06,74.32c-12.65-.15-14.65,6.74-11.41,13.47,4.31,9,10.07,13.67,22.73,13.78s23-5.82,23.06-13.3S87.71,74.46,75.06,74.32Z"/><path class="cls-15" d="M125.7,92.13c-9.07-11.59-17.12-.3-17.12-.3"/><path class="cls-10" d="M87.19,77.93c-1.52.16-6.83,1.36-9.43,10.52,0,0,0-.48.06-1.16l-4.77-2.15,5,.67.14-.71-5.11-4.36,5.75,2.48A8.71,8.71,0,0,1,87.19,77.93Z"/><path class="cls-10" d="M155.53,89.12c.05.75.05,1.21.05,1.21C152.88,81,147,80,145.42,79.85c4.89.13,7.89,2.52,9.06,5.16l5.73-2.54-5.05,4.42c.07.26.12.5.16.73l5-.7Z"/><path class="cls-16" d="M140.56,72.18c9.05-4.45,12.75,3.91,12.75,3.91"/><path class="cls-16" d="M92.52,71.12c-8.36-5.68-12.12,2.33-12.12,2.33"/><path class="cls-14" d="M158.79,76.08c-12.61-.13-33.27,5.78-33.36,13.25s10.09,13.69,22.75,13.8,19.47-5.14,23.06-13.3C174.27,83,171.39,76.22,158.79,76.08Z"/><polyline class="cls-17" points="103.39 193.76 115.22 239.79 107.98 242.66 75.31 195.77"/><path class="cls-2" d="M45.56,131.41s0,36.81,33,42.3"/><polygon class="cls-18" points="113.25 252.58 117.85 248.97 112.13 227.65 101.16 232.88 113.25 252.58"/><path class="cls-19" d="M133.88,244.43c-2.66-6.45-9.57-9.81-15.44-7.49s-8.55,9.47-5.88,15.93"/><polyline class="cls-17" points="133.58 184.1 145.41 230.13 138.17 233 105.5 186.11"/><polygon class="cls-18" points="143.44 242.92 148.04 239.31 142.32 217.99 131.35 223.21 143.44 242.92"/><path class="cls-19" d="M164.07,234.77c-2.66-6.45-9.57-9.81-15.44-7.49s-8.55,9.47-5.89,15.93"/><polyline class="cls-7" points="300.98 250.86 293.29 250.86 293.29 217.72 231.32 217.72 231.32 250.86 223.46 250.86 223.46 214.62 223.59 214.62 223.59 207.55 300.98 207.55 300.98 214.72"/><rect class="cls-8" x="217.49" y="191.79" width="90.08" height="18.01" rx="5.44"/><polyline class="cls-9" points="248.84 195.82 237.13 242.5 241.51 244.03 266.14 195.82"/><polyline class="cls-9" points="228.84 186.55 216.32 236.4 220.7 237.94 242.33 194.13"/><polygon class="cls-20" points="221.47 215.91 230.08 218.93 221.25 237.99 216.32 236.4 221.47 215.91"/><polygon class="cls-20" points="242.27 222 251.17 225.12 241.79 244 236.91 242.29 242.27 222"/><path class="cls-21" d="M203.79,233.22A9,9,0,0,1,221,238.56c-.06.22-.14.43-.22.64"/><path class="cls-21" d="M224.59,239.32a9,9,0,1,1,17.25,5.34c-.07.21-.14.42-.22.63"/><ellipse class="cls-9" cx="261.72" cy="136.38" rx="65.91" ry="65.41"/><path class="cls-10" d="M220.18,125s1.31-7.78,16.87-5.12c12.8,2.18,12.18,10.67,12.18,10.67Z"/><path class="cls-13" d="M243.2,114.76a11.43,11.43,0,0,1,22.72,2.08"/><path class="cls-13" d="M208.43,111.66c.54-5.88,6.09-10.18,12.4-9.6s11,5.82,10.44,11.7"/><path class="cls-10" d="M208.56,110.32a7.6,7.6,0,0,0,7.49-1.26,7.07,7.07,0,0,0,1.94-7A11,11,0,0,0,208.56,110.32Z"/><path class="cls-5" d="M292.47,155.55s-9.74,24.21-35.79,22"/><path class="cls-10" d="M243.33,113.42a7.59,7.59,0,0,0,7.49-1.26,7.07,7.07,0,0,0,1.94-7A11,11,0,0,0,243.33,113.42Z"/><path class="cls-9" d="M195.9,140s.78,11.66,2,12.94,4.72-10.68,4.72-10.68Z"/><path class="cls-6" d="M255.62,172.22a5,5,0,0,1,2.91,4.6c.14,2.88-1.57,5.44-3.79,5.7l-5.49.64-.1,0h0l-7.44.94a1.14,1.14,0,0,1-1.13-1.16v-.08a1.37,1.37,0,0,1,1-1.5l4-.47a6.1,6.1,0,0,1-.4-1.08l-4.83.54a1.14,1.14,0,0,1-1.13-1.16v-.08a1.37,1.37,0,0,1,1-1.48L245,177a9.3,9.3,0,0,1,.26-1l-4.17.47a1.15,1.15,0,0,1-1.13-1.16.22.22,0,0,1,0-.08,1.33,1.33,0,0,1,1-1.48l6.95-.81a4,4,0,0,1,.68-.18l-1.35-.37a1.37,1.37,0,0,1-.78-1.63,1.13,1.13,0,0,1,1.18-1.07h.1"/><path class="cls-3" d="M79.36,166.71c-2.17.37-4.13,2.46-4.73,5.36-.78,3.69.91,7.38,3.74,8.18l7,2,.15,0,.07,0L95,185a1.52,1.52,0,0,0,1.73-1.26c0-.06,0-.11,0-.16a1.8,1.8,0,0,0-1-2.14l-5.12-1.46a8.89,8.89,0,0,0,.77-1.3l6.15,1.74a1.5,1.5,0,0,0,1.7-1.29.22.22,0,0,0,0-.08,1.78,1.78,0,0,0-1-2.14l-6.15-1.75a8.3,8.3,0,0,0-.12-1.41l5.27,1.48A1.49,1.49,0,0,0,99,173.9a.28.28,0,0,0,0-.09,1.77,1.77,0,0,0-1-2.14l-8.82-2.5a4.71,4.71,0,0,0-.82-.38l1.81-.15a1.83,1.83,0,0,0,1.35-1.94h0A1.49,1.49,0,0,0,90.29,165h-.18"/><path class="cls-22" d="M266,102.63c-10.3,2.07-11.8-7.3-11.8-7.3"/><path class="cls-22" d="M212.44,97.69c9.91,3.46,12.72-5.9,12.72-5.9"/></svg>