<svg id="Layer_1" data-name="Layer 1" xmlns="http://www.w3.org/2000/svg" viewBox="0 0 348 282.35"><defs><style>.cls-1{fill:#f8d979;}.cls-11,.cls-12,.cls-14,.cls-15,.cls-16,.cls-2,.cls-22,.cls-4{fill:none;stroke-miterlimit:10;}.cls-2{stroke:#1b89b0;stroke-width:4.97px;}.cls-11,.cls-12,.cls-15,.cls-2,.cls-22,.cls-4{stroke-linecap:round;}.cls-3{fill:#a1caeb;}.cls-4{stroke:#188ab2;stroke-width:4.76px;}.cls-5{fill:#a2cced;}.cls-6{fill:#ffcb05;}.cls-7{fill:#f8ac1c;}.cls-8{fill:#e59525;}.cls-9{fill:#0aa0cc;}.cls-10{fill:#0b4161;}.cls-11,.cls-12{stroke:#2585a9;}.cls-11{stroke-width:1.12px;}.cls-12{stroke-width:1.25px;}.cls-13{fill:#fff;}.cls-14,.cls-16{stroke:#010101;}.cls-14{stroke-width:1.16px;}.cls-15,.cls-22{stroke:#0b4161;}.cls-15{stroke-width:1.76px;}.cls-16{stroke-width:1.18px;}.cls-17{fill:#02a1cd;}.cls-18{fill:#ea1e52;}.cls-19{fill:#514c49;}.cls-20{fill:#57c4cf;}.cls-21{fill:#504b48;}.cls-22{stroke-width:1.83px;}</style></defs><polyline class="cls-1" points="0 281.91 0 0.12 348 0.12 348 281.91"/><path class="cls-2" d="M212.66,141.86s-2.85,17.47-28.95,16"/><path class="cls-3" d="M182.51,152.55a5,5,0,0,1,3,4.52c.23,2.87-1.41,5.48-3.63,5.8l-5.46.8-.11,0h0l-7.41,1.14a1.13,1.13,0,0,1-1.16-1.12v-.08a1.37,1.37,0,0,1,.95-1.53l4-.58a6.23,6.23,0,0,1-.43-1.08l-4.82.69a1.15,1.15,0,0,1-1.16-1.13.22.22,0,0,1,0-.08,1.35,1.35,0,0,1,.91-1.51l4.81-.7a7.24,7.24,0,0,1,.22-1.05l-4.15.58a1.14,1.14,0,0,1-1.16-1.12V156a1.34,1.34,0,0,1,1-1.51l6.93-1a3.22,3.22,0,0,1,.67-.2l-1.35-.33a1.39,1.39,0,0,1-.84-1.61,1.14,1.14,0,0,1,1.16-1.11h.1"/><path class="cls-4" d="M156.09,139.19s15,4.09,20.84,1.73,12.43-11,12.43-11"/><path class="cls-5" d="M209.49,119.85a1.52,1.52,0,0,0-.23-2.13l-.13-.09a1.79,1.79,0,0,0-2.34-.22L203,121.13a7.43,7.43,0,0,0-.74-1.32l4.58-4.46a1.52,1.52,0,0,0-.27-2.13l-.06,0a1.79,1.79,0,0,0-2.35-.22l-4.58,4.45a10,10,0,0,0-1.28-.6l3.91-3.83a1.5,1.5,0,0,0-.26-2.1l-.08-.06a1.76,1.76,0,0,0-2.33-.23l-6.57,6.4a3.73,3.73,0,0,0-.73.52l.76-1.64a1.81,1.81,0,0,0-1-2.14h0a1.48,1.48,0,0,0-2.07.29.86.86,0,0,0-.1.16l-4,9a1.41,1.41,0,0,0,.07,1.17c-.76,2.06.08,4.81,2.28,6.77,2.82,2.52,6.86,2.89,9,.84l5.2-5.06.1-.11.06,0Z"/><polyline class="cls-6" points="347.5 282.34 0 282.34 0 229.47 347.5 229.47"/><polyline class="cls-7" points="124.86 251.55 116.95 251.55 116.95 217.47 53.24 217.47 53.24 251.55 45.16 251.55 45.16 214.29 45.29 214.29 45.29 207.03 124.86 207.03 124.86 214.39"/><rect class="cls-8" x="39.03" y="190.81" width="92.61" height="18.52" rx="5.6"/><path class="cls-9" d="M29.11,79A80.39,80.39,0,0,1,38,59.69c21-33.18,67.58-38.85,97.35-14.08C157.73,64.2,164,98,163.6,125.7c-.23,14.3.28,31.06-5.69,44.3-8,17.87-26,30.25-45.74,29.91l-44.9-.78c-27.1-.48-48.42-23.79-47.64-52.09a336,336,0,0,1,2.92-38.29A192.89,192.89,0,0,1,29.11,79Z"/><path class="cls-10" d="M101.53,99.87s-.53,8,10.23,9.47c13.75,1.84,14.48-6.93,14.48-6.93Z"/><path class="cls-11" d="M89.47,98c4.57-.5,9.19-3.57,7.34-9.39"/><path class="cls-11" d="M141.17,99.1c-6.25,2-11.9-4.15-11.53-8.72"/><path class="cls-12" d="M139.6,64.61a88.38,88.38,0,0,1-47.17-2.55"/><path class="cls-13" d="M151.92,90.65c-.17-6-5.44-10.6-11.77-10.42S128.83,85.36,129,91.31"/><path class="cls-10" d="M148.06,91.06a5,5,0,0,0-10,.28"/><path class="cls-13" d="M97.44,89c0-6-5.15-10.77-11.52-10.76S74.4,83,74.38,88.93"/><path class="cls-10" d="M94.91,88.94a5,5,0,0,0-10,0"/><path class="cls-14" d="M122.2,92.68c-9.07-11.58-17.12-.3-17.12-.3"/><path class="cls-10" d="M83.69,78.48c-1.52.16-6.84,1.37-9.43,10.52,0,0,0-.48.06-1.16l-4.77-2.15,5,.67.14-.71-5.11-4.36,5.75,2.48A8.71,8.71,0,0,1,83.69,78.48Z"/><path class="cls-10" d="M152,89.67c.05.76,0,1.21,0,1.21-2.69-9.33-8.62-10.32-10.15-10.48,4.88.13,7.89,2.53,9.05,5.17L156.71,83l-5.05,4.42c.07.25.11.49.16.73l5-.71Z"/><path class="cls-15" d="M137.52,71.43c9.76-2.54,11.7,6.39,11.7,6.39"/><path class="cls-15" d="M88,70.61c-9.18-4.22-11.57,4.29-11.57,4.29"/><path class="cls-16" d="M155.29,76.64c-12.61-.14-33.27,5.77-33.36,13.24s10.09,13.69,22.75,13.8,19.47-5.14,23.06-13.3C170.77,83.5,167.89,76.77,155.29,76.64Z"/><polyline class="cls-17" points="99.89 194.31 111.72 240.35 104.48 243.21 71.81 196.32"/><path class="cls-4" d="M42.05,132s0,36.81,33,42.3"/><polygon class="cls-18" points="109.75 253.14 114.35 249.53 108.63 228.2 97.66 233.43 109.75 253.14"/><path class="cls-19" d="M130.38,245c-2.66-6.46-9.57-9.81-15.44-7.49s-8.55,9.47-5.89,15.92"/><polyline class="cls-17" points="130.08 184.65 141.91 230.69 134.66 233.55 102 186.66"/><polygon class="cls-18" points="139.94 243.47 144.54 239.86 138.82 218.54 127.85 223.77 139.94 243.47"/><path class="cls-19" d="M160.57,235.32c-2.66-6.45-9.57-9.81-15.45-7.49s-8.54,9.48-5.88,15.93"/><polyline class="cls-7" points="301.48 251.42 293.79 251.42 293.79 218.27 231.82 218.27 231.82 251.42 223.96 251.42 223.96 215.17 224.08 215.17 224.08 208.11 301.48 208.11 301.48 215.27"/><rect class="cls-8" x="217.99" y="192.34" width="90.08" height="18.01" rx="5.44"/><polyline class="cls-9" points="249.34 196.38 237.63 243.05 242 244.59 266.64 196.38"/><polyline class="cls-9" points="229.34 187.1 216.82 236.96 221.19 238.49 242.82 194.68"/><polygon class="cls-20" points="221.97 216.46 230.58 219.48 221.74 238.54 216.82 236.96 221.97 216.46"/><polygon class="cls-20" points="242.77 222.55 251.67 225.68 242.29 244.56 237.4 242.84 242.77 222.55"/><path class="cls-21" d="M204.29,233.77a9,9,0,0,1,17.25,5.35c-.07.21-.14.42-.22.63"/><path class="cls-21" d="M225.08,239.87a9,9,0,0,1,17.26,5.34c-.07.21-.14.42-.22.63"/><ellipse class="cls-9" cx="262.21" cy="136.94" rx="65.91" ry="65.41"/><path class="cls-10" d="M250.71,121s-.5,7.87-16.26,6.83c-12.95-.85-13.21-9.36-13.21-9.36Z"/><path class="cls-13" d="M243.7,114.31a11.43,11.43,0,0,1,22.71,2.09"/><path class="cls-13" d="M208.93,111.21c.54-5.87,6.09-10.18,12.4-9.6s11,5.82,10.44,11.7"/><path class="cls-10" d="M209.05,109.88a7.62,7.62,0,0,0,7.49-1.27,7,7,0,0,0,2-7A11,11,0,0,0,209.05,109.88Z"/><path class="cls-2" d="M293,156.1s-9.74,24.21-35.79,22"/><path class="cls-10" d="M243.82,113a7.59,7.59,0,0,0,7.49-1.27,7,7,0,0,0,1.95-7A11,11,0,0,0,243.82,113Z"/><path class="cls-3" d="M256.12,172.77a5,5,0,0,1,2.91,4.61c.14,2.87-1.57,5.43-3.79,5.69l-5.49.65-.1,0h0l-7.45.93a1.14,1.14,0,0,1-1.12-1.16v-.08a1.35,1.35,0,0,1,1-1.49l4-.48a6.1,6.1,0,0,1-.4-1.08l-4.83.55a1.14,1.14,0,0,1-1.13-1.16v-.08a1.38,1.38,0,0,1,1-1.49l4.83-.56a7.32,7.32,0,0,1,.26-1.05l-4.17.47a1.15,1.15,0,0,1-1.13-1.16.22.22,0,0,1,0-.08,1.33,1.33,0,0,1,1-1.48l6.95-.81a3.22,3.22,0,0,1,.68-.17l-1.35-.37a1.37,1.37,0,0,1-.78-1.63,1.13,1.13,0,0,1,1.18-1.08h.1"/><path class="cls-5" d="M75.86,167.26c-2.18.37-4.14,2.47-4.74,5.36-.77,3.7.91,7.38,3.75,8.18l7,2,.15,0,.06,0,9.47,2.65a1.5,1.5,0,0,0,1.72-1.26.88.88,0,0,0,0-.16,1.8,1.8,0,0,0-1-2.14l-5.12-1.46a8.89,8.89,0,0,0,.77-1.3l6.15,1.74a1.5,1.5,0,0,0,1.7-1.29.19.19,0,0,0,0-.08,1.79,1.79,0,0,0-1-2.14l-6.15-1.75a8.39,8.39,0,0,0-.12-1.41l5.27,1.48a1.49,1.49,0,0,0,1.69-1.28.28.28,0,0,0,0-.09,1.77,1.77,0,0,0-1-2.14l-8.82-2.5a4,4,0,0,0-.82-.37l1.81-.16a1.83,1.83,0,0,0,1.35-1.94h0a1.48,1.48,0,0,0-1.29-1.65l-.18,0"/><path class="cls-22" d="M252.62,96.83l14.58,5.84"/><path class="cls-22" d="M225.65,95.3l-13.84,2.26"/><path class="cls-16" d="M71.56,74.87c-12.65-.15-14.65,6.74-11.42,13.47,4.32,9,10.08,13.67,22.74,13.78s23-5.82,23.06-13.3S84.21,75,71.56,74.87Z"/></svg>