<svg id="Layer_1" data-name="Layer 1" xmlns="http://www.w3.org/2000/svg" viewBox="0 0 348 282.35"><defs><style>.cls-1{fill:#f8d979;}.cls-11,.cls-12,.cls-14,.cls-15,.cls-16,.cls-2,.cls-22,.cls-4{fill:none;stroke-miterlimit:10;}.cls-2{stroke:#1b89b0;stroke-width:4.97px;}.cls-11,.cls-12,.cls-16,.cls-2,.cls-22,.cls-4{stroke-linecap:round;}.cls-3{fill:#a1caeb;}.cls-4{stroke:#188ab2;stroke-width:4.76px;}.cls-5{fill:#a2cced;}.cls-6{fill:#ffcb05;}.cls-7{fill:#f8ac1c;}.cls-8{fill:#e59525;}.cls-9{fill:#0aa0cc;}.cls-10{fill:#0b4161;}.cls-11,.cls-12{stroke:#2585a9;}.cls-11{stroke-width:1.12px;}.cls-12{stroke-width:1.25px;}.cls-13{fill:#fff;}.cls-14,.cls-15{stroke:#010101;}.cls-14{stroke-width:1.18px;}.cls-15{stroke-width:1.16px;}.cls-16,.cls-22{stroke:#0b4161;}.cls-16{stroke-width:1.76px;}.cls-17{fill:#02a1cd;}.cls-18{fill:#ea1e52;}.cls-19{fill:#514c49;}.cls-20{fill:#57c4cf;}.cls-21{fill:#504b48;}.cls-22{stroke-width:1.83px;}</style></defs><polyline class="cls-1" points="0.05 281.91 0.05 0.12 348.05 0.12 348.05 281.91"/><path class="cls-2" d="M213.15,141.23s-2.85,17.47-29,16"/><path class="cls-3" d="M183,151.92a5,5,0,0,1,3,4.52c.22,2.87-1.42,5.48-3.64,5.8l-5.46.8-.11,0h0l-7.41,1.14a1.14,1.14,0,0,1-1.16-1.12v-.08a1.37,1.37,0,0,1,1-1.53l4-.58a5.26,5.26,0,0,1-.42-1.08l-4.82.69a1.15,1.15,0,0,1-1.16-1.13v-.08a1.36,1.36,0,0,1,.91-1.51l4.81-.7a8.88,8.88,0,0,1,.22-1.05l-4.15.58a1.14,1.14,0,0,1-1.16-1.12v-.08a1.34,1.34,0,0,1,.95-1.51l6.93-1a3.31,3.31,0,0,1,.68-.2l-1.36-.33a1.38,1.38,0,0,1-.83-1.61,1.12,1.12,0,0,1,1.15-1.1h.1"/><path class="cls-4" d="M156.57,138.56s15,4.09,20.85,1.73,12.42-11,12.42-11"/><path class="cls-5" d="M210,119.22a1.51,1.51,0,0,0-.23-2.13l-.13-.09a1.78,1.78,0,0,0-2.34-.21l-3.82,3.71a8.12,8.12,0,0,0-.74-1.32l4.57-4.46a1.52,1.52,0,0,0-.27-2.13l-.06,0a1.78,1.78,0,0,0-2.34-.22L200,116.78a10.75,10.75,0,0,0-1.29-.6l3.92-3.83a1.49,1.49,0,0,0-.27-2.1l-.07-.06A1.79,1.79,0,0,0,200,110l-6.56,6.4a3.8,3.8,0,0,0-.74.52l.76-1.64a1.82,1.82,0,0,0-1-2.14h0a1.49,1.49,0,0,0-2.08.29s-.07.1-.1.16l-4,9a1.45,1.45,0,0,0,.08,1.17c-.77,2.07.07,4.81,2.28,6.77,2.82,2.52,6.85,2.89,9,.84l5.19-5.06.1-.11.07,0Z"/><polyline class="cls-6" points="348 282.34 0.5 282.34 0.5 229.47 348 229.47"/><polyline class="cls-7" points="125.35 250.92 117.44 250.92 117.44 216.84 53.73 216.84 53.73 250.92 45.64 250.92 45.64 213.66 45.77 213.66 45.77 206.4 125.35 206.4 125.35 213.76"/><rect class="cls-8" x="39.51" y="190.18" width="92.61" height="18.52" rx="5.6"/><path class="cls-9" d="M29.59,78.37a80.42,80.42,0,0,1,8.92-19.31c21-33.18,67.57-38.85,97.34-14.08,22.37,18.59,28.68,52.38,28.24,80.09-.23,14.3.28,31.06-5.69,44.3-8,17.87-26,30.25-45.74,29.91l-44.91-.78c-27.1-.48-48.41-23.79-47.63-52.09A336,336,0,0,1,23,108.12,192.89,192.89,0,0,1,29.59,78.37Z"/><path class="cls-10" d="M102,99.24s-.53,8.05,10.24,9.47c13.75,1.84,14.47-6.93,14.47-6.93Z"/><path class="cls-11" d="M90,97.41c4.57-.5,9.2-3.57,7.35-9.39"/><path class="cls-11" d="M141.66,98.47c-6.25,2-11.91-4.15-11.54-8.72"/><path class="cls-12" d="M140.08,64a88.24,88.24,0,0,1-47.16-2.55"/><path class="cls-13" d="M152.4,90c-.16-6-5.43-10.6-11.76-10.42s-11.33,5.13-11.15,11.08"/><path class="cls-10" d="M148.54,90.44a5,5,0,0,0-10,.27"/><path class="cls-13" d="M97.92,88.32c0-6-5.15-10.77-11.51-10.76S74.88,82.37,74.87,88.3"/><path class="cls-10" d="M95.39,88.31a5,5,0,0,0-10,0"/><path class="cls-14" d="M72,74.24C59.39,74.09,57.39,81,60.63,87.71c4.32,9,10.08,13.67,22.73,13.78s23-5.82,23.06-13.29S84.69,74.39,72,74.24Z"/><path class="cls-15" d="M122.69,92.05c-9.08-11.58-17.13-.3-17.13-.3"/><path class="cls-10" d="M84.17,77.85c-1.52.16-6.83,1.37-9.42,10.52,0,0,0-.48,0-1.16L70,85.06l5,.68.14-.72L70,80.66l5.75,2.48A8.71,8.71,0,0,1,84.17,77.85Z"/><path class="cls-10" d="M152.52,89c0,.76,0,1.21,0,1.21-2.69-9.33-8.63-10.32-10.16-10.48,4.89.13,7.89,2.53,9.06,5.17l5.73-2.54-5.05,4.42c.07.25.12.49.17.73l4.94-.71Z"/><path class="cls-16" d="M150.57,76.21c-9.54,3.25-12.15-5.5-12.15-5.5"/><path class="cls-16" d="M76.7,71.39c9,4.65,11.76-3.74,11.76-3.74"/><path class="cls-14" d="M155.77,76c-12.6-.14-33.27,5.77-33.35,13.24s10.09,13.69,22.74,13.8,19.47-5.14,23.06-13.29C171.25,82.87,168.37,76.15,155.77,76Z"/><polyline class="cls-17" points="100.37 193.69 112.2 239.72 104.96 242.58 72.3 195.69"/><path class="cls-4" d="M42.54,131.33s0,36.81,32.95,42.3"/><polygon class="cls-18" points="110.24 252.51 114.84 248.9 109.11 227.57 98.15 232.8 110.24 252.51"/><path class="cls-19" d="M130.86,244.36c-2.66-6.46-9.56-9.81-15.44-7.49s-8.54,9.47-5.88,15.92"/><polyline class="cls-17" points="130.56 184.02 142.39 230.06 135.15 232.92 102.49 186.03"/><polygon class="cls-18" points="140.43 242.84 145.03 239.23 139.3 217.91 128.33 223.14 140.43 242.84"/><path class="cls-19" d="M161.05,234.69c-2.66-6.45-9.57-9.81-15.44-7.49s-8.55,9.48-5.88,15.93"/><polyline class="cls-7" points="301.97 250.79 294.27 250.79 294.27 217.64 232.3 217.64 232.3 250.79 224.44 250.79 224.44 214.54 224.57 214.54 224.57 207.48 301.97 207.48 301.97 214.64"/><rect class="cls-8" x="218.48" y="191.71" width="90.08" height="18.01" rx="5.44"/><polyline class="cls-9" points="249.82 195.75 238.12 242.42 242.49 243.96 267.12 195.75"/><polyline class="cls-9" points="229.82 186.47 217.31 236.33 221.68 237.86 243.31 194.06"/><polygon class="cls-20" points="222.45 215.83 231.06 218.85 222.23 237.91 217.31 236.33 222.45 215.83"/><polygon class="cls-20" points="243.25 221.92 252.15 225.04 242.78 243.93 237.89 242.21 243.25 221.92"/><path class="cls-21" d="M204.77,233.15A9,9,0,1,1,222,238.49c-.06.21-.14.42-.22.63"/><path class="cls-21" d="M225.57,239.24a9,9,0,1,1,17.25,5.34c-.06.21-.14.42-.22.63"/><ellipse class="cls-9" cx="262.7" cy="136.31" rx="65.91" ry="65.41"/><path class="cls-10" d="M220.16,123.89s1.31-7.77,16.88-5.12c12.8,2.19,12.18,10.68,12.18,10.68Z"/><path class="cls-13" d="M243.19,114.68a11.43,11.43,0,0,1,22.71,2.09"/><path class="cls-13" d="M208.42,111.58c.53-5.87,6.08-10.18,12.39-9.6s11,5.82,10.44,11.7"/><path class="cls-10" d="M208.54,110.25A7.6,7.6,0,0,0,216,109a7.07,7.07,0,0,0,1.94-7A11,11,0,0,0,208.54,110.25Z"/><path class="cls-2" d="M293.45,155.47s-9.74,24.21-35.79,22"/><path class="cls-10" d="M243.31,113.35a7.6,7.6,0,0,0,7.49-1.27,7,7,0,0,0,1.94-7A11,11,0,0,0,243.31,113.35Z"/><path class="cls-3" d="M256.61,172.14a5,5,0,0,1,2.91,4.61c.14,2.87-1.57,5.43-3.8,5.69l-5.48.65-.11,0h0l-7.44.93a1.15,1.15,0,0,1-1.13-1.16.25.25,0,0,1,0-.08,1.34,1.34,0,0,1,1-1.49l4-.48a5.37,5.37,0,0,1-.39-1.08l-4.84.55a1.15,1.15,0,0,1-1.13-1.16.19.19,0,0,1,0-.08,1.37,1.37,0,0,1,.95-1.49L246,177a7.3,7.3,0,0,1,.25-1l-4.17.47a1.14,1.14,0,0,1-1.12-1.16v-.08a1.34,1.34,0,0,1,1-1.48l7-.8a2.62,2.62,0,0,1,.68-.18l-1.35-.37a1.37,1.37,0,0,1-.79-1.63,1.13,1.13,0,0,1,1.18-1.08h.1"/><path class="cls-5" d="M76.34,166.63c-2.17.37-4.13,2.47-4.73,5.36-.78,3.7.91,7.38,3.74,8.18l7,2,.16,0,.06,0L92,184.87a1.51,1.51,0,0,0,1.73-1.26.86.86,0,0,0,0-.16,1.78,1.78,0,0,0-1-2.14l-5.12-1.46a7.41,7.41,0,0,0,.77-1.3l6.15,1.74A1.51,1.51,0,0,0,96.27,179a.25.25,0,0,1,0-.08,1.79,1.79,0,0,0-1-2.14L89.15,175a8.39,8.39,0,0,0-.12-1.41l5.27,1.49a1.52,1.52,0,0,0,1.7-1.29.28.28,0,0,1,0-.09,1.78,1.78,0,0,0-1-2.14l-8.81-2.5a4.3,4.3,0,0,0-.82-.37l1.8-.16a1.82,1.82,0,0,0,1.35-1.94h0A1.48,1.48,0,0,0,87.27,165h-.18"/><path class="cls-22" d="M266.12,100.61c-10.3,2.06-11.79-7.31-11.79-7.31"/><path class="cls-22" d="M212.56,96.6c9.9,3.48,12.73-5.89,12.73-5.89"/></svg>