<svg id="Layer_1" data-name="Layer 1" xmlns="http://www.w3.org/2000/svg" viewBox="0 0 348 282.35"><defs><style>.cls-1{fill:#f8d978;}.cls-2{fill:#00a0cc;}.cls-3{fill:#0d3f60;}.cls-4{fill:#fff;}.cls-10,.cls-11,.cls-5,.cls-6,.cls-7,.cls-9{fill:none;stroke-miterlimit:10;}.cls-5{stroke:#108ab2;stroke-width:4.88px;}.cls-11,.cls-5,.cls-6,.cls-7,.cls-9{stroke-linecap:round;}.cls-6{stroke:#231f20;stroke-width:1.22px;}.cls-7,.cls-9{stroke:#0d3f60;}.cls-7{stroke-width:2.44px;}.cls-8{fill:#faac18;}.cls-9{stroke-width:2.39px;}.cls-10{stroke:#b5b3b0;}.cls-11{stroke:#0a8ab2;stroke-width:7.32px;}.cls-12{fill:#41c4e6;}.cls-13{fill:#e91c52;}.cls-14{fill:#a1cbec;}.cls-15{fill:#7f7f7f;}</style></defs><polyline class="cls-1" points="0.52 280.63 0.52 -1.72 348.52 -1.72 348.52 280.63"/><path class="cls-2" d="M92.81,37.7c-40.55,0-73.41,10-73.41,52.82,0,10.85,1.44,21.8,3,32.52,1.68,11.91,5,23.78,8.16,35.41,1.37,5.11,2.84,9.59,2.32,15-.47,4.71-2.88,9.49-5,13.73-5.66,11.44-7.16,23.21-3,35.42,2.78,8.11,9.51,14.57,17,18.62,15.61,8.4,21.78,8,53.66,8,18.9,0,38.63-1.44,54.13-13.58a41.21,41.21,0,0,0,13.61-19.48c1.52-4.54,1.7-6.51,2.29-11.22.82-6.52-1.31-14.84-3.76-20.75-3.69-8.87-7.25-20.71-4.82-30.43,5.65-22.67,9.18-52.54,9.18-64,0-42.79-32.87-51.95-73.41-51.95"/><path class="cls-3" d="M142.92,111.39s-2.61,9.36-15.44,9.07-13.85-9.07-13.85-9.07Z"/><path class="cls-4" d="M132.55,104.72c0-5.84,5-10.57,11.28-10.57s11.28,4.73,11.28,10.57"/><path class="cls-3" d="M143.38,104.72a4.91,4.91,0,0,1,9.81,0"/><path class="cls-4" d="M99,104.72c0-5.83,5.08-10.57,11.34-10.57s11.34,4.74,11.34,10.57"/><path class="cls-3" d="M109.9,104.72a4.91,4.91,0,0,1,9.81,0"/><path class="cls-3" d="M99.74,99.5,93.88,97l5.19,4.35c-.06.24-.11.48-.16.71l-5.09-.67,4.86,2.17c-.06.69-.05,1.13-.05,1.13,2.72-9.16,8.17-10.38,9.73-10.54C103.36,94.33,100.92,96.92,99.74,99.5Z"/><path class="cls-3" d="M108.36,94.18c.15,0,.28,0,.44,0C108.8,94.15,108.63,94.15,108.36,94.18Z"/><path class="cls-3" d="M160,101.41l-5.09.68c-.05-.23-.1-.47-.16-.72L159.9,97,154,99.5c-1.18-2.59-3.62-5.17-8.62-5.32,1.56.16,7,1.38,9.73,10.54,0,0,0-.44-.05-1.13Z"/><path class="cls-5" d="M239.19,203.67s-17.52-2.26-24.87-28.34"/><path class="cls-2" d="M282.52,250.48H270.17c-34.92,0-40.9-26.85-40.9-49.44V118.86a34.6,34.6,0,0,1,34.6-34.61h24.95a34.6,34.6,0,0,1,34.61,34.61V201C323.43,223.63,316.38,250.48,282.52,250.48Z"/><path class="cls-3" d="M272.79,152.13s-1.85,8.46-11,8.2-9.85-8.2-9.85-8.2Z"/><path class="cls-4" d="M229.43,143.69a10.74,10.74,0,0,1,21.48,0"/><path class="cls-4" d="M274.44,143.69a10.75,10.75,0,0,1,21.49,0"/><path class="cls-3" d="M229.79,141a6.26,6.26,0,0,0,8.53-8A10.75,10.75,0,0,0,229.79,141Z"/><circle class="cls-6" cx="237.51" cy="137.92" r="18.67"/><circle class="cls-6" cx="287.57" cy="137.92" r="18.67"/><path class="cls-6" d="M256.14,135.69s6.45-8.41,12.9,0"/><line class="cls-7" x1="229.31" y1="129.66" x2="244.72" y2="126.87"/><line class="cls-7" x1="296.46" y1="129.76" x2="282.33" y2="126.58"/><path class="cls-3" d="M274.77,141a6.26,6.26,0,0,0,8.53-8A10.72,10.72,0,0,0,274.77,141Z"/><rect class="cls-8" x="0.07" y="239.48" width="350.09" height="42.87"/><path class="cls-9" d="M98.11,90.15s4.58-9.29,14.65-3.81"/><path class="cls-9" d="M155.11,90.15s-3.35-9.47-13.42-4"/><circle class="cls-4" cx="149.98" cy="173.84" r="30.27"/><path class="cls-4" d="M75.72,239.82a30.27,30.27,0,0,1,60.54,0"/><circle class="cls-10" cx="150.11" cy="174.4" r="22.5"/><circle class="cls-4" cx="229.27" cy="199.3" r="30.27"/><circle class="cls-10" cx="229.39" cy="199.87" r="22.5"/><path class="cls-11" d="M53.92,171.78s15.26,22.2,30.27,22,33.34-10.55,33.34-10.55"/><circle class="cls-12" cx="123.14" cy="207.37" r="5.13"/><circle class="cls-12" cx="131.08" cy="181.36" r="5.13"/><circle class="cls-12" cx="130.05" cy="187.74" r="5.13"/><circle class="cls-12" cx="136.71" cy="202.23" r="3.63"/><circle class="cls-12" cx="202.63" cy="187.39" r="3.63"/><circle class="cls-12" cx="206.26" cy="182.44" r="3.63"/><circle class="cls-12" cx="152.75" cy="213.37" r="2.57"/><path class="cls-13" d="M206.35,170.87s-8.54,9.37-8.58,14.23-1.72,8.53,0,9.78,4.66-7.58,8.58-10.52,7.19-2,10.17-4.56,4.79-12.12,1.6-12.24S207.47,169.6,206.35,170.87Z"/><circle class="cls-12" cx="199.28" cy="199.39" r="2.09"/><path class="cls-14" d="M205,168.63a11.6,11.6,0,0,1,5.31-3.58c3-1,5.57-.25,8.63.3.1,0,1.19.54,1.28.53l1.27,2.26c.34.67-.12,1.51-1,1.87a1.77,1.77,0,0,1-2.24-.57l-.8-1.6a4.39,4.39,0,0,1,0,.89l.74,8.89a1.74,1.74,0,0,1-1.61,1.63c-1,.15-1.79-.34-1.85-1.09l-.45-5.34a8.48,8.48,0,0,1-1.25.6l.52,6.2a1.74,1.74,0,0,1-1.62,1.63,1.46,1.46,0,0,1-1.84-1.09l-.52-6.21a7.55,7.55,0,0,1-1.46-.22l.43,5.18a1.73,1.73,0,0,1-1.62,1.62,1.46,1.46,0,0,1-1.84-1.08l-.8-9.52s0-.05,0-.07l0-.15Z"/><path class="cls-14" d="M174.84,198a13.17,13.17,0,0,0,5.31-4.83c1.85-2.94,1.75-6,1.95-9.46,0-.12-.28-1.44-.24-1.53l-2.12-2a1.62,1.62,0,0,0-2.31.6,2,2,0,0,0,0,2.58l1.53,1.3a4.7,4.7,0,0,0-1-.18l-9.5-3.16a2,2,0,0,0-2.2,1.32,1.66,1.66,0,0,0,.7,2.3l5.7,1.89a10.56,10.56,0,0,0-1,1.21l-6.62-2.21a2,2,0,0,0-2.2,1.33,1.63,1.63,0,0,0,.7,2.29l6.62,2.21a8.55,8.55,0,0,0-.14,1.65l-5.53-1.84a2,2,0,0,0-2.2,1.32,1.66,1.66,0,0,0,.7,2.3l10.16,3.38.08,0a1,1,0,0,0,.16.06Z"/><path class="cls-5" d="M306.25,183.76s-2.74,29.61-39.36,23.58"/><path class="cls-14" d="M267.71,200.44c2,.86,3.35,3.28,3.25,6.17-.12,3.68-2.56,6.78-5.42,6.89l-7.07.26h-.22l-9.54.36c-.75,0-1.34-.74-1.31-1.7a1.76,1.76,0,0,1,1.42-1.8l5.2-.2a7.07,7.07,0,0,1-.4-1.42l-6.23.23c-.75,0-1.33-.73-1.3-1.7a1.74,1.74,0,0,1,1.42-1.8l6.22-.23a8.18,8.18,0,0,1,.44-1.32l-5.35.2c-.75,0-1.34-.73-1.31-1.69a1.75,1.75,0,0,1,1.42-1.81l8.92-.33a3.7,3.7,0,0,1,.87-.16l-1.68-.61a1.77,1.77,0,0,1-.84-2.15h0c.25-.93,1-1.48,1.74-1.23"/><path class="cls-13" d="M118,169s2.16-10.39,5.13-10.39,5.1-2.74,8.08,3.55,1.41,2.37,5.49,5.36-4.17,24.29-9.1,24-5.92-5.45-5.92-5.45Z"/><path class="cls-14" d="M108.66,180.86a7.15,7.15,0,0,0-.69,7.94c1.81,3.49,5.86,5,9,3.37l7.76-4,.15-.1.09,0,10.47-5.44a1.88,1.88,0,0,0-1.73-3.32l-5.69,3a8.3,8.3,0,0,0-.22-1.62l6.83-3.55a1.88,1.88,0,0,0-1.73-3.31l-6.83,3.55a7.25,7.25,0,0,0-1.07-1l5.87-3.05a1.88,1.88,0,0,0-1.72-3.32L119.36,175a6.46,6.46,0,0,0-1,.37l1.54-1.61a1.91,1.91,0,0,0-.08-2.58h0a1.66,1.66,0,0,0-2.44-.13"/><path class="cls-10" d="M83.42,240.54a22.5,22.5,0,0,1,45,0"/><path class="cls-12" d="M81.63,237.72c-4.35.7-8.39-2.42-10.62-5.88-2-3-3.11-6.66-2.09-10a8.22,8.22,0,0,1,8.55-5.66c6,.84,9.64,8.85,15.55,7.52,3.55-.8,5.17-4.67,8.45-6.13,7.06-3.16,14.32,6.5,22,5.16,5.43-.95,8.84-7.11,14.38-6.94,6,.18,9.07,7.78,15.08,8.48,7.36.85,12.76-9.14,19.89-7.31,3.46.9,5.53,4.37,9,5.24,7.2,1.8,12.56-8.51,19.95-7.51,4.74.64,8.05,5.88,12.81,5.32,4.22-.49,7-5.47,11.17-5,4.59.52,6,7,10.65,7.47,4.31.41,6.82-4.83,11.08-5.57,3.62-.63,6.72,2.15,10,3.77s8.84.83,8.58-2.5a18.47,18.47,0,0,1-.12,14.3,6.05,6.05,0,0,1-2.16,2.86,8.34,8.34,0,0,1-4.26.88q-59.85,1.81-119.76,1.05"/><path class="cls-15" d="M272.79,226v10.87c0,8.86-14.09,16.11-31.31,16.11h-148c-17.23,0-31.32-7.25-31.32-16.11V226"/><circle class="cls-12" cx="131.41" cy="217.73" r="5.13"/></svg>