<svg id="Layer_1" data-name="Layer 1" xmlns="http://www.w3.org/2000/svg" viewBox="0 0 348 282.35"><defs><style>.cls-1{fill:#f7d878;}.cls-2{fill:#1b3663;}.cls-3{fill:#edeba9;}.cls-4{fill:#ffca05;}.cls-5{fill:#102547;}.cls-6{fill:#7f5120;}.cls-15,.cls-16,.cls-19,.cls-21,.cls-7{fill:none;stroke-linecap:round;stroke-miterlimit:10;}.cls-7{stroke:#1689b0;stroke-width:4px;}.cls-8{fill:#bcdaed;}.cls-9{fill:#777677;}.cls-10{fill:#049fcb;}.cls-11{fill:#0b4060;}.cls-12{fill:#fff;}.cls-13{fill:#56c4cf;}.cls-14{fill:#4f4a47;}.cls-15{stroke:#0b4060;stroke-width:2.15px;}.cls-16{stroke:#0a8ab2;stroke-width:5.63px;}.cls-17{fill:#a1cbec;}.cls-18{fill:#00a0cc;}.cls-19{stroke:#0d3f60;stroke-width:1.85px;}.cls-20{fill:#0d3f60;}.cls-21{stroke:#231f20;stroke-width:1.11px;}.cls-22{fill:#5652a2;}</style></defs><polyline class="cls-1" points="348 282.35 348 0 0 0 0 282.35"/><path class="cls-2" d="M87.46,26.74v0l.63,0,.62,0v0c36.61.69,70.73,31.79,70.73,71.32,0,3.8-.1,12.21-.1,12.21V239H16.83V110.27s-.09-8.41-.09-12.21C16.74,58.53,50.86,27.43,87.46,26.74Z"/><polygon class="cls-3" points="56.17 61.62 54.57 66.55 49.39 66.55 53.58 69.59 51.98 74.52 56.17 71.48 60.37 74.52 58.76 69.59 62.96 66.55 57.77 66.55 56.17 61.62"/><polygon class="cls-3" points="35.37 79.33 34.27 82.73 30.69 82.73 33.58 84.84 32.48 88.24 35.37 86.14 38.26 88.24 37.16 84.84 40.05 82.73 36.48 82.73 35.37 79.33"/><polygon class="cls-3" points="80.83 43.51 80 46.07 77.31 46.07 79.49 47.65 78.66 50.21 80.83 48.63 83.01 50.21 82.18 47.65 84.36 46.07 81.67 46.07 80.83 43.51"/><polygon class="cls-3" points="100.93 56.27 99.46 60.78 94.72 60.78 98.56 63.56 97.09 68.07 100.93 65.28 104.76 68.07 103.3 63.56 107.13 60.78 102.39 60.78 100.93 56.27"/><polygon class="cls-3" points="28.59 166.24 27.76 168.8 25.06 168.8 27.24 170.39 26.41 172.95 28.59 171.36 30.77 172.95 29.93 170.39 32.11 168.8 29.42 168.8 28.59 166.24"/><polyline class="cls-4" points="0 282.35 348 282.35 348 238.91 0 238.91"/><rect class="cls-5" x="16.83" y="227.04" width="142.61" height="11.95"/><rect class="cls-6" x="159.44" y="31.21" width="10.29" height="210.93" rx="5.14" transform="translate(329.16 273.36) rotate(-180)"/><path class="cls-7" d="M103.61,141.7s12,34.13,47.08,8.66"/><path class="cls-8" d="M145.86,148.15a3.84,3.84,0,0,0-1.15,4.06c.54,2.16,2.37,3.68,4.07,3.39l4.21-.73.09,0h0l5.68-1a.89.89,0,0,0,.56-1.17,1,1,0,0,0-1.07-.88l-3.09.53a4.3,4.3,0,0,0,.06-.89l3.71-.64a.91.91,0,0,0,.56-1.17,1.06,1.06,0,0,0-1.07-.89l-3.71.64a5.2,5.2,0,0,0-.42-.72l3.19-.55a.89.89,0,0,0,.55-1.17,1,1,0,0,0-1.06-.88l-5.31.92a2.44,2.44,0,0,0-.54,0l.92-.57a1,1,0,0,0,.22-1.37h0a.87.87,0,0,0-1.18-.51"/><circle class="cls-9" cx="153.14" cy="153.68" r="6.21"/><path class="cls-10" d="M25.33,124.66c0,21.81,11.72,43,26.9,58.08,39.12,38.95,82.68-17.28,82.68-59.89C134.91,91.41,108,83.79,81,83.79S25.33,93.21,25.33,124.66Z"/><path class="cls-11" d="M106.56,139.34s-1.92-6.18-11.39-6-10.22,6-10.22,6Z"/><path class="cls-12" d="M119.89,127.35a9.48,9.48,0,1,0-19,0"/><path class="cls-12" d="M90.92,127.35a9.49,9.49,0,1,0-19,0"/><path class="cls-11" d="M119.89,126.25a4.77,4.77,0,0,1-5.1-7.47A9.45,9.45,0,0,1,119.89,126.25Z"/><polyline class="cls-10" points="81.35 193.08 77.35 233.12 73.54 233.12 69.34 188.07"/><polyline class="cls-10" points="96.29 191.32 92.29 233.12 88.48 233.12 85.3 193.08"/><polygon class="cls-13" points="88.49 239.31 92.08 239.31 94.01 217.29 87.05 217.29 88.49 239.31"/><polygon class="cls-13" points="73.81 239.31 77.4 239.31 78.85 217.29 71.89 217.29 73.81 239.31"/><path class="cls-14" d="M101.23,239.51a6.41,6.41,0,1,0-12.81,0"/><path class="cls-14" d="M86.24,239.51a6.32,6.32,0,1,0-12.64,0"/><line class="cls-15" x1="120" y1="114.96" x2="106.39" y2="112.5"/><path class="cls-15" d="M71.48,115.05s10-3.12,12.47-2.81"/><path class="cls-7" d="M45.09,163.9s-6.74,18.63,5.82,32.58"/><path class="cls-8" d="M51.85,192.92a3.82,3.82,0,0,0-4.21-.25c-2,1-3.08,3.11-2.42,4.71l1.62,4a.59.59,0,0,0,0,.08s0,0,0,.05l2.19,5.33a.89.89,0,0,0,1.26.29,1,1,0,0,0,.64-1.23L49.79,203a4.72,4.72,0,0,0,.88-.14l1.43,3.48a.88.88,0,0,0,1.26.29,1.05,1.05,0,0,0,.64-1.23l-1.43-3.48a6.63,6.63,0,0,0,.61-.57l1.23,3a.89.89,0,0,0,1.26.3,1.05,1.05,0,0,0,.63-1.24l-2-5a3,3,0,0,0-.13-.52l.75.77a1.06,1.06,0,0,0,1.39-.08h0a.87.87,0,0,0,.24-1.26"/><path class="cls-16" d="M202.2,135.77s12,9.58,18.13,10.08,15.1-7.36,15.1-7.36"/><path class="cls-17" d="M208.59,133.91a5.48,5.48,0,0,1,.8,6,5.23,5.23,0,0,1-6.77,2.88L196.57,140l-.13-.07-.07,0-8.17-3.81a1.35,1.35,0,0,1-.56-1.83,1.37,1.37,0,0,1,1.77-.76l4.45,2.08a5.93,5.93,0,0,1,.11-1.25l-5.34-2.48a1.44,1.44,0,0,1,1.21-2.59l5.33,2.48a5.44,5.44,0,0,1,.79-.8l-4.59-2.14a1.44,1.44,0,0,1,1.21-2.59l7.64,3.56a4.52,4.52,0,0,1,.79.25l-1.23-1.17a1.47,1.47,0,0,1,0-2h0a1.28,1.28,0,0,1,1.86-.19"/><rect class="cls-18" x="227.04" y="29.41" width="87.36" height="175.78" rx="31.79" transform="translate(548.86 215.71) rotate(176.06)"/><path class="cls-12" d="M275.58,73.44a8.66,8.66,0,0,0-17.27,1.19"/><path class="cls-12" d="M244.93,75.55a8.65,8.65,0,1,0-17.26,1.19"/><line class="cls-19" x1="275.97" y1="59.92" x2="260.19" y2="58.66"/><line class="cls-19" x1="227.07" y1="62.62" x2="241.38" y2="61.27"/><path class="cls-20" d="M268,74a3.74,3.74,0,1,0-7.46.51"/><path class="cls-20" d="M237.31,76.08a3.74,3.74,0,0,0-7.47.51"/><ellipse class="cls-21" cx="267.75" cy="71.68" rx="11.76" ry="8" transform="translate(-3.72 15.69) rotate(-3.33)"/><ellipse class="cls-21" cx="235.63" cy="73.6" rx="11.76" ry="8" transform="translate(-3.88 13.83) rotate(-3.33)"/><path class="cls-21" d="M256.06,73.16s-5.12-5.79-8.86.59"/><polyline class="cls-18" points="295.94 197.19 289.82 245.04 283.26 244.95 278.43 197.1"/><polyline class="cls-18" points="270.84 196.13 264.72 243.98 258.15 243.9 253.33 196.04"/><path class="cls-20" d="M243.41,83.57c-.64,0-1,.59-.55.93,1.24,1,4.2,2.64,10.46,2.19s8.51-2.29,9.28-3.4c.27-.39-.12-.84-.7-.8Z"/><path class="cls-11" d="M90.92,126.25a4.77,4.77,0,0,1-5.1-7.47A9.5,9.5,0,0,1,90.92,126.25Z"/><path class="cls-16" d="M297.87,125.17s.26,20-6.08,29.52S270.29,169,270.29,169"/><path class="cls-17" d="M269.74,163.19a5.46,5.46,0,0,1,5.39,2.83,5.24,5.24,0,0,1-1.56,7.19l-5.8,3.31-.12.07-.06,0-7.83,4.47a1.43,1.43,0,0,1-1.42-2.47l4.26-2.44a6.57,6.57,0,0,1-1-.81l-5.1,2.92a1.44,1.44,0,0,1-1.42-2.48l5.11-2.92a5.43,5.43,0,0,1-.21-1.11l-4.39,2.51a1.44,1.44,0,0,1-1.42-2.48l7.32-4.18a4.09,4.09,0,0,1,.66-.5l-1.67.33a1.47,1.47,0,0,1-1.63-1.12h0a1.28,1.28,0,0,1,.92-1.63"/><polygon class="cls-22" points="283.54 251.28 289.18 251.36 291.68 230.51 281.83 230.37 283.54 251.28"/><path class="cls-14" d="M270,251.25a9.75,9.75,0,0,1,19.5.11"/><polygon class="cls-22" points="258.29 251.28 264.47 251.37 266.44 230.51 256.83 230.38 258.29 251.28"/><path class="cls-14" d="M245.47,251.35a9.75,9.75,0,0,1,19.5-.07"/></svg>