<svg id="Layer_1" data-name="Layer 1" xmlns="http://www.w3.org/2000/svg" viewBox="0 0 348 282.35"><defs><style>.cls-1{fill:#f7d878;}.cls-2{fill:#ffcb04;}.cls-3{fill:#edca66;}.cls-4{fill:#f2ba08;}.cls-5{fill:#faac18;}.cls-6{fill:#e49425;}.cls-16,.cls-19,.cls-7,.cls-9{fill:none;stroke-linecap:round;stroke-miterlimit:10;}.cls-7{stroke:#1589b1;stroke-width:4.52px;}.cls-8{fill:#a1cbec;}.cls-9{stroke:#1689b0;stroke-width:5.15px;}.cls-10{fill:#00a0cc;}.cls-11{fill:#a0caeb;}.cls-12{fill:#eb1c52;}.cls-13{fill:#4f4a47;}.cls-14{fill:#0b4060;}.cls-15{fill:#fff;}.cls-16{stroke:#0b4060;stroke-width:2.64px;}.cls-17{fill:#514c48;}.cls-18{fill:#060707;}.cls-19{stroke:#0c4060;stroke-width:2.51px;}.cls-20{fill:#0c4060;}</style></defs><polyline class="cls-1" points="0 281.47 0 0 343.2 0 343.2 281.47"/><rect class="cls-2" y="253.15" width="343.21" height="29.32"/><polygon class="cls-3" points="203.55 0 141.36 281.47 348.01 281.47 348.01 0 203.55 0"/><polygon class="cls-4" points="140.42 282.47 348.01 282.47 348.01 253.15 147.84 253.15 140.42 282.47"/><polyline class="cls-5" points="312.24 259.33 304.37 259.33 304.37 225.45 241.04 225.45 241.04 259.33 233.01 259.33 233.01 222.29 233.14 222.29 233.14 215.07 312.24 215.07 312.24 222.39"/><rect class="cls-6" x="226.92" y="198.95" width="92.05" height="18.41" rx="5.56"/><polyline class="cls-5" points="106.55 258.62 98.69 258.62 98.69 224.74 35.36 224.74 35.36 258.62 27.33 258.62 27.33 221.58 27.46 221.58 27.46 214.36 106.55 214.36 106.55 221.68"/><rect class="cls-6" x="21.24" y="198.24" width="92.05" height="18.41" rx="5.56"/><path class="cls-7" d="M208.65,113.1s.86,24.32,21.62,26.79"/><path class="cls-8" d="M199.11,97.06a1.38,1.38,0,0,1,1.2-1.54h.1a1.62,1.62,0,0,1,1.91,1l1.15,5a6.17,6.17,0,0,1,1.22-.64l-1.4-5.94a1.38,1.38,0,0,1,1.18-1.55h.12a1.63,1.63,0,0,1,1.91,1l1.39,5.94a7.83,7.83,0,0,1,1.28.14L208,95.39a1.38,1.38,0,0,1,1.21-1.54h.08a1.63,1.63,0,0,1,1.91,1l2,8.51a3.77,3.77,0,0,1,.31.81l.24-1.74a1.59,1.59,0,0,1,1.79-1.17h0a1.41,1.41,0,0,1,1.43,1.4v0L215.67,112a1.3,1.3,0,0,1-.58.88,5.75,5.75,0,0,1-5,4.22c-3.35.53-6.61-1.26-7.24-4l-1.56-6.75a.66.66,0,0,0,0-.14v-.06Z"/><path class="cls-9" d="M97.81,137.65s-2.73,32,35,28.85"/><rect class="cls-10" x="28.72" y="30.84" width="88.96" height="179.01" rx="38.91" transform="translate(10 -5.54) rotate(4.65)"/><path class="cls-11" d="M127.06,159.23c-2.19.51-4,2.74-4.48,5.73-.56,3.8,1.37,7.44,4.3,8.08l7.2,1.59.16,0,.07,0,9.74,2.14c.76.16,1.51-.51,1.65-1.51a1.81,1.81,0,0,0-1.12-2.11l-5.3-1.17a7.45,7.45,0,0,0,.67-1.39l6.36,1.4c.76.17,1.51-.51,1.65-1.5a1.82,1.82,0,0,0-1.12-2.12L140.49,167a8.62,8.62,0,0,0-.21-1.44l5.46,1.2c.77.17,1.51-.5,1.66-1.5a1.81,1.81,0,0,0-1.13-2.11l-9.09-2a4.58,4.58,0,0,0-.87-.33l1.84-.31a1.84,1.84,0,0,0,1.26-2h0c-.09-1-.79-1.72-1.56-1.59"/><polyline class="cls-10" points="52.49 201.63 90.51 267.47 96.05 265.1 73.87 192.71"/><polyline class="cls-10" points="83.45 192.42 118.15 255.65 123.69 253.28 102.45 180.49"/><polygon class="cls-12" points="96.17 265.05 89.5 243.4 79.45 248.31 89.64 266.77 96.17 265.05"/><polygon class="cls-12" points="118.44 256.25 107.68 236.97 117.58 232.37 124.2 252.72 118.44 256.25"/><path class="cls-13" d="M89.37,267.93A11.38,11.38,0,1,1,110.29,259"/><path class="cls-13" d="M118.45,256.68a11.38,11.38,0,0,1,20.92-9"/><path class="cls-14" d="M106.38,89.42S104,95,95.29,93.91s-8.89-6.48-8.89-6.48Z"/><path class="cls-15" d="M76.88,77.67a8.81,8.81,0,0,1,17.54,1.75"/><path class="cls-15" d="M101.17,81.13a8.81,8.81,0,0,1,17.54,1.75"/><path class="cls-14" d="M85.08,78.82a3.81,3.81,0,1,1,7.58.76"/><path class="cls-14" d="M110.23,82.24a3.81,3.81,0,1,1,7.58.76"/><path class="cls-16" d="M79.39,66.28s3.7-6.31,10.52-2"/><path class="cls-16" d="M119,71.19s-1.65-6.9-9.14-3.81"/><polyline class="cls-10" points="259.26 203.53 246.02 246.74 238.4 245.55 238.94 200.34"/><polygon class="cls-10" points="237.84 254.67 243.11 257.73 250.22 233.79 238.36 231.78 237.84 254.67"/><path class="cls-17" d="M244.25,258.66c1-6.56-3.16-12.67-9.34-13.63s-12.06,3.58-13.07,10.14"/><polyline class="cls-10" points="284.83 205.71 271.6 248.92 263.98 247.73 264.52 202.53"/><rect class="cls-18" x="204.15" y="78.41" width="20.62" height="34.97" rx="3.31" transform="translate(57.99 -79.34) rotate(24.15)"/><rect class="cls-18" x="56.75" y="75.97" width="21.69" height="36.78" rx="3.48" transform="translate(-31.89 34.57) rotate(-23.38)"/><path class="cls-10" d="M272,28.8c33.49,0,60.64,8.62,60.64,45.42,0,9.34-1.17,18.79-2.43,28a262.44,262.44,0,0,1-5.7,30.45c-1.13,4.39-2.48,8.24-2,12.86a35.44,35.44,0,0,0,3.17,11.85c4.67,9.84,5.91,20,2.45,30.46-2.29,7-7.86,12.52-14.07,16-12.9,7.23-28.3,6.86-42.53,6.86-15.62,0-33.73-1.25-46.55-11.68a35.44,35.44,0,0,1-11.24-16.75,62.18,62.18,0,0,1-2.16-11.86c-.68-5.6.81-10.44,2.84-15.53,3-7.62,6.53-17.91,4.52-26.27-4.67-19.5-7.59-45.18-7.59-55.06,0-36.81,27.14-44.68,60.67-44.68"/><path class="cls-15" d="M271.62,84.13a9.32,9.32,0,0,0-18.63,0"/><path class="cls-15" d="M245.38,84.13a9.32,9.32,0,0,0-18.64,0"/><path class="cls-19" d="M263.28,66s.42,6.26,7.68,5.93"/><path class="cls-19" d="M232.7,66.09s.25,6-7,5.61"/><path class="cls-20" d="M263.65,84.13a4,4,0,0,0-8,0"/><path class="cls-20" d="M237.41,84.13a4,4,0,0,0-8,0"/><path class="cls-20" d="M262.51,98.6s-2.67-9-13.19-8.11S238.47,100,238.47,100Z"/><path class="cls-7" d="M303.89,137c.26,1.41-12.42,7.37-23.76,0-6.3-4.08-20.81-23.37-20.58-23.4"/><path class="cls-8" d="M244.18,105.06a1.43,1.43,0,0,1,.38-2l.14-.08a1.69,1.69,0,0,1,2.23,0l3.33,3.81a8,8,0,0,1,.8-1.19l-4-4.58a1.43,1.43,0,0,1,.42-2l.06,0a1.7,1.7,0,0,1,2.24,0l4,4.58a9.18,9.18,0,0,1,1.27-.47l-3.42-3.93a1.42,1.42,0,0,1,.42-2l.08-.05a1.67,1.67,0,0,1,2.23,0l5.71,6.56a3.91,3.91,0,0,1,.66.56l-.59-1.62a1.74,1.74,0,0,1,1.12-1.95h0a1.42,1.42,0,0,1,1.94.44l.09.16,3.06,8.82a1.34,1.34,0,0,1-.16,1.1c.57,2-.44,4.55-2.69,6.24-2.87,2.16-6.72,2.2-8.55.09l-4.53-5.19-.08-.12-.06,0Z"/><path class="cls-9" d="M42.52,136.5s30.68,12.69,22.31-31"/><path class="cls-11" d="M58.8,108.64c1.2,1.91,3.91,2.93,6.88,2.37,3.77-.71,6.58-3.73,6.24-6.7L71.06,97l0-.15s0-.06,0-.08l-1.15-9.9a1.53,1.53,0,0,0-2-1.07,1.81,1.81,0,0,0-1.64,1.75l.63,5.39a7.53,7.53,0,0,0-1.53-.19l-.76-6.46a1.53,1.53,0,0,0-2-1.07A1.81,1.81,0,0,0,61,87l.76,6.46a8.68,8.68,0,0,0-1.29.66l-.65-5.55a1.53,1.53,0,0,0-2-1.07,1.8,1.8,0,0,0-1.63,1.75l1.08,9.25a4.14,4.14,0,0,0,0,.93l-.89-1.65a1.84,1.84,0,0,0-2.35-.51h0a1.51,1.51,0,0,0-1,2"/><polygon class="cls-10" points="263.39 257 268.66 260.05 275.77 236.11 263.91 234.11 263.39 257"/><path class="cls-17" d="M269.83,260.84c1-6.56-3.16-12.66-9.34-13.63s-12.07,3.58-13.07,10.14"/></svg>