<svg id="Layer_1" data-name="Layer 1" xmlns="http://www.w3.org/2000/svg" viewBox="0 0 348 282.35"><defs><style>.cls-1{fill:#edca66;}.cls-2{fill:#f7d878;}.cls-3{fill:#f2ba08;}.cls-4{fill:#ffcb04;}.cls-5{fill:#faac18;}.cls-6{fill:#e49425;}.cls-7{fill:#00a0cc;}.cls-8{fill:#0b4060;}.cls-10,.cls-12,.cls-13,.cls-16,.cls-19,.cls-20,.cls-21,.cls-9{fill:none;}.cls-9{stroke:#2584a9;stroke-width:0.97px;}.cls-10,.cls-13,.cls-16,.cls-19,.cls-20,.cls-21,.cls-9{stroke-linecap:round;}.cls-10,.cls-12,.cls-13,.cls-16,.cls-20,.cls-21,.cls-9{stroke-miterlimit:10;}.cls-10{stroke:#0b4060;}.cls-10,.cls-21{stroke-width:2.23px;}.cls-11{fill:#fff;}.cls-12{stroke:#000;stroke-width:1.46px;}.cls-13{stroke:#633516;stroke-width:5.3px;}.cls-14{fill:#4f4a47;}.cls-15{fill:#060707;}.cls-16{stroke:#2287b4;stroke-width:5.56px;}.cls-17{fill:#a0caeb;}.cls-18{fill:#0c4060;}.cls-19,.cls-20{stroke:#030404;}.cls-19{stroke-miterlimit:10;stroke-width:1.01px;}.cls-20{stroke-width:1.01px;}.cls-21{stroke:#0c4060;}.cls-22{fill:#eb1c52;}.cls-23{fill:#514c48;}</style></defs><polyline class="cls-1" points="-0.01 281.35 -0.01 -0.12 343.2 -0.12 343.2 281.35"/><polygon class="cls-2" points="203.55 -0.12 141.35 281.35 348 281.35 348 -0.12 203.55 -0.12"/><rect class="cls-3" x="-0.01" y="253.03" width="343.21" height="29.32"/><polygon class="cls-4" points="141.35 282.35 348 282.35 348 253.03 147.83 253.03 141.35 282.35"/><polyline class="cls-5" points="306.23 259.17 297.48 259.17 297.48 221.48 227.01 221.48 227.01 259.17 218.07 259.17 218.07 217.96 218.22 217.96 218.22 209.92 306.23 209.92 306.23 218.07"/><rect class="cls-6" x="211.29" y="191.99" width="102.43" height="20.48" rx="6.19"/><polyline class="cls-5" points="119.74 258.38 110.99 258.38 110.99 220.69 40.52 220.69 40.52 258.38 31.58 258.38 31.58 217.16 31.73 217.16 31.73 209.13 119.74 209.13 119.74 217.28"/><rect class="cls-6" x="24.8" y="191.2" width="102.43" height="20.48" rx="6.19"/><path class="cls-7" d="M134.86,114.63a294.13,294.13,0,0,1,4.73,33.07c2.31,24.51-14.85,46-38.31,48l-38.93,3.26c-17.13,1.44-33.44-8.29-41.43-23.31-6-11.18-6.47-25.73-7.5-38.13-2-24,1.53-53.72,19.89-71.16,24.42-23.17,65.19-21,85.31,6.59a70.5,70.5,0,0,1,8.85,16.27A168.87,168.87,0,0,1,134.86,114.63Z"/><path class="cls-8" d="M83,114.37s2.28,6,11.65,5.25,9.77-6.54,9.77-6.54Z"/><path class="cls-9" d="M108.27,100c-1.36,5.14,2.81,7.6,6.79,7.83"/><path class="cls-10" d="M122.58,84.8s-3.77-5-9.1-.58"/><path class="cls-10" d="M72,86.5s-5.11-3.58-8.84,2.22"/><path class="cls-9" d="M79.86,102.91c.53,4-4.12,9.5-9.63,8.09"/><path class="cls-9" d="M111.27,76.08a68.76,68.76,0,0,1-36.71,1.36"/><path class="cls-11" d="M80.42,103.69c-.12-5.16-4.68-9.25-10.18-9.12s-9.88,4.41-9.76,9.57"/><path class="cls-8" d="M75.9,103.78a4.34,4.34,0,1,0-8.67.2"/><path class="cls-11" d="M127.76,99.2c-.27-5.16-5-9.1-10.5-8.82s-9.8,4.7-9.53,9.85"/><path class="cls-8" d="M121,99.62a4.34,4.34,0,1,0-8.66.45"/><path class="cls-8" d="M69.37,94.59h0Z"/><path class="cls-12" d="M100.35,100.51C100.76,107,110,111.69,121,111s15.79-5,19.14-13c2.51-6,.46-11.89-10.52-11.2S99.94,94,100.35,100.51Z"/><path class="cls-12" d="M46.72,104.62c3.48,6.93,9.64,11.18,20.62,10.49s19.55-6.51,19.15-13S67.9,91.4,56.92,92.09,43.8,98.81,46.72,104.62Z"/><path class="cls-12" d="M101.25,103.57s-9.18-9.7-14.65,1.07"/><path class="cls-13" d="M37.9,258.77,36.81,207.5s-.17-8.77-6.34-9.05l-5.67-.77"/><polyline class="cls-7" points="120.01 180.6 127.11 237.41 122 238.91 97.33 187.43"/><polyline class="cls-7" points="86.25 190.23 93.36 247.03 88.24 248.53 63.57 197.06"/><polygon class="cls-7" points="121.21 239.06 112.55 218.85 124.72 215.28 127.21 237.04 121.21 239.06"/><polygon class="cls-7" points="87.91 248.1 78.46 228.85 90.95 225.19 94.36 246.81 87.91 248.1"/><path class="cls-14" d="M112.63,241.68a12.7,12.7,0,0,0-24.38,7.15"/><path class="cls-14" d="M145.61,232.4a12.7,12.7,0,0,0-24.38,7.15"/><rect class="cls-15" x="106.95" y="123.92" width="21.69" height="36.79" rx="3.49" transform="translate(19.8 -14.3) rotate(7.58)"/><path class="cls-16" d="M47.76,147.32s-1.35,37.73,52.68,8.74"/><path class="cls-17" d="M91.53,154.31a6,6,0,0,0-.81,6.63c1.42,3,4.78,4.36,7.46,3.08l6.61-3.15.14-.08.07,0,8.94-4.27a1.57,1.57,0,0,0-1.36-2.82L107.72,156a5.85,5.85,0,0,0-.14-1.37l5.83-2.78a1.58,1.58,0,0,0-1.35-2.83l-5.83,2.78a6,6,0,0,0-.87-.88l5-2.39A1.58,1.58,0,0,0,109,145.7l-8.34,4a4.41,4.41,0,0,0-.87.28l1.34-1.3a1.6,1.6,0,0,0,0-2.17h0a1.39,1.39,0,0,0-2-.18"/><path class="cls-17" d="M141.35,151a6,6,0,0,1,2.21,6.3c-.75,3.21-3.72,5.29-6.62,4.61l-7.14-1.66-.14-.05h-.08L119.94,158a1.57,1.57,0,0,1,.71-3l5.25,1.22a6.83,6.83,0,0,1-.16-1.36l-6.29-1.47a1.57,1.57,0,0,1,.71-3l6.29,1.46a6.54,6.54,0,0,1,.66-1l-5.4-1.26a1.57,1.57,0,0,1,.71-3.05l9,2.1a4.58,4.58,0,0,1,.9.09l-1.59-1a1.62,1.62,0,0,1-.47-2.12h0a1.41,1.41,0,0,1,2-.61"/><path class="cls-7" d="M334,108.14c-2,42.28-40.53,97-76.64,98.4-40.26,1.58-69.07-62-67.07-104.3s34.62-50.67,74.29-48.8S336,65.85,334,108.14Z"/><path class="cls-11" d="M208,107a11,11,0,0,1,21.92,2.23"/><path class="cls-11" d="M240.77,111.48a11,11,0,0,1,21.93,2.23"/><path class="cls-18" d="M243.61,121.94s-2.6,6-12.06,4.73-9.57-7.09-9.57-7.09Z"/><ellipse class="cls-19" cx="217.37" cy="106.49" rx="7.4" ry="13.98" transform="translate(96.34 316.11) rotate(-86.1)"/><ellipse class="cls-19" cx="253.27" cy="110.81" rx="7.4" ry="13.98" transform="matrix(0.07, -1, 1, 0.07, 125.49, 355.95)"/><path class="cls-20" d="M230.8,108.8s4.69-5.36,8.53,1"/><path class="cls-18" d="M214.34,107.67a4.08,4.08,0,0,1,4.56-3.54,4,4,0,0,1,3.58,4.39"/><path class="cls-18" d="M247.68,112.22a4.18,4.18,0,0,1,4.56-3.68,4.08,4.08,0,0,1,3.54,4.56"/><path class="cls-21" d="M210.48,94.33a6.75,6.75,0,0,1,9.24-2.44l.08,0"/><path class="cls-21" d="M260.66,98a6.76,6.76,0,0,0-9.24-2.43l-.08,0"/><path class="cls-7" d="M199.77,155.22s5.79,14.84,11.75,21.95,3.39-26.84,3.39-26.84Z"/><polyline class="cls-7" points="246.83 196.19 238.29 246.44 246.69 249.35 269.25 203.92"/><polygon class="cls-22" points="241.51 261.14 235.42 258.4 239.79 237.88 250.75 241.18 241.51 261.14"/><path class="cls-23" d="M218.52,253.25c2.26-6.95,9.19-10.83,15.47-8.65s9.54,9.56,7.28,16.52"/><polyline class="cls-7" points="222.41 181.56 212.75 238.34 221.15 241.25 243.72 195.83"/><polygon class="cls-22" points="215.97 253.04 209.88 250.31 214.26 229.79 225.21 233.08 215.97 253.04"/><path class="cls-23" d="M193,245.15c2.26-7,9.19-10.83,15.47-8.65s9.55,9.57,7.28,16.52"/><rect class="cls-15" x="207.74" y="131.85" width="21.69" height="36.79" rx="3.49" transform="translate(455.09 270.34) rotate(172.42)"/><path class="cls-16" d="M288.63,155.25S290,193,236,164"/><path class="cls-17" d="M244.86,162.24a6,6,0,0,1,.81,6.63c-1.42,3-4.78,4.36-7.46,3.08l-6.61-3.16-.14-.07-.07,0-8.93-4.26a1.58,1.58,0,0,1,1.35-2.83l4.86,2.32a5.71,5.71,0,0,1,.14-1.36L223,159.77a1.57,1.57,0,0,1,1.35-2.82l5.83,2.78a5.57,5.57,0,0,1,.87-.88l-5-2.39a1.58,1.58,0,0,1,1.35-2.83l8.35,4a4.54,4.54,0,0,1,.86.28l-1.34-1.3a1.61,1.61,0,0,1,0-2.17h0a1.4,1.4,0,0,1,2-.19"/><path class="cls-17" d="M195.68,164.39a6,6,0,0,0,1.41,6.53c2.32,2.35,5.95,2.55,8.06.46l5.21-5.15.1-.12a.15.15,0,0,0,.06-.05l7-7a1.57,1.57,0,0,0-2.21-2.22l-3.83,3.79a6.14,6.14,0,0,0-.58-1.25l4.6-4.54a1.58,1.58,0,0,0-2.21-2.23l-4.59,4.54a6.31,6.31,0,0,0-1.11-.54l3.94-3.9a1.57,1.57,0,0,0-2.2-2.23L202.8,157a4.88,4.88,0,0,0-.73.56l.84-1.67a1.62,1.62,0,0,0-.71-2.06h0a1.4,1.4,0,0,0-2,.5"/></svg>