<svg xmlns="http://www.w3.org/2000/svg" viewBox="0 0 278.56 229.4"><defs><style>.cls-1,.cls-3,.cls-5{fill:none;stroke-miterlimit:10;}.cls-1{stroke:#188ab2;stroke-width:6.19px;}.cls-1,.cls-5{stroke-linecap:round;}.cls-2{fill:#a2cced;}.cls-3{stroke:#89b4d4;stroke-width:1.27px;}.cls-4{fill:#02a1cd;}.cls-5{stroke:#0d4161;stroke-width:1.98px;}.cls-6{fill:#0d4161;}.cls-7{fill:#fff;}.cls-8{fill:#f39e1e;}.cls-9{fill:#653212;}.cls-10{fill:#f6b543;}.cls-11{fill:#ec1e52;}.cls-12{fill:#514c49;}</style></defs><g id="Layer_1" data-name="Layer 1"><path class="cls-1" d="M217,111.82c6.86,5.11,14.24,6.14,25.74.32,7.77-4,12.28-19.7,14.58-21.7"/><path class="cls-2" d="M255.27,97.84a2.49,2.49,0,0,0,2.86.86,58.33,58.33,0,0,0,7.06-3.1c2.5-1.3,10.15-5.54,11.18-9.91a3.62,3.62,0,0,0-.27-2.81A2.93,2.93,0,0,0,274,81.61a4.18,4.18,0,0,0,.69-1.5,3.86,3.86,0,0,0-.88-3.34,3.9,3.9,0,0,0-2.12-1.24,4.68,4.68,0,0,0,.84-2.36,3.67,3.67,0,0,0-2.07-3.58c-1.47-.54-3.08.62-6.16,2.92a43.54,43.54,0,0,0-4.56,3.91c.79-.71-1.08-4.67-1.43-5.37-1-1.64-2.57-3.52-4.49-4-1.54-.38-3.47.52-3.63,2.11a4.92,4.92,0,0,0,.91,2.66c2.18,4,1.86,8.08.74,12.48-.54,2.17-2.12,6-.56,8.14Z"/><path class="cls-3" d="M272.12,75.41s-8.31,6.13-9.92,5.56-.72-4-.72-4"/><path class="cls-3" d="M274.39,81.29s-8.21,5.7-9.91,5.56c-3.92-.32-1.06-5.75-1.06-5.75"/><path class="cls-3" d="M274.67,86.52s-6.25,4.56-7.86,4-.73-3.94-.73-3.94"/><path class="cls-1" d="M40.86,98.52c2.75,1.3,11.46,14.67,20,16.37,12.64,2.49,19.35.06,24.57-6.71"/><path class="cls-2" d="M47.15,98.83c.92-2.5-1.64-5.74-2.75-7.68-2.26-3.93-3.67-7.77-2.66-12.22a4.9,4.9,0,0,0,.16-2.81c-.59-1.48-2.69-1.82-4.07-1-1.72,1-2.74,3.21-3.24,5-.15.77-.88,5.09.07,5.56a43.32,43.32,0,0,0-5.44-2.53C25.63,81.78,23.76,81.1,22.5,82a3.65,3.65,0,0,0-1,4,4.6,4.6,0,0,0,1.44,2,3.88,3.88,0,0,0-1.7,1.77,3.84,3.84,0,0,0,.05,3.45,4.46,4.46,0,0,0,1.07,1.26,3,3,0,0,0-1.64,1.78,3.63,3.63,0,0,0,.51,2.78C23.38,103,31.9,105,34.66,105.62a59.2,59.2,0,0,0,7.62,1.07,2.51,2.51,0,0,0,2.53-1.6Z"/><polyline class="cls-4" points="170.34 228.91 178.17 177.18 155.54 177.18 163.44 227.77 169.47 226.59"/><polyline class="cls-4" points="130.86 226.17 121.02 178.66 145.56 178.66 136.75 228.91 128.31 226.17"/><path class="cls-4" d="M67.36,116.93c0-35.1,17.45-69.23,40-93.56,58.22-62.72,123.06,27.88,123.06,96.46,0,50.65-40.09,63-80.21,63S67.36,167.56,67.36,116.93Z"/><path class="cls-5" d="M125.3,46.63s3.81-7.71,12.17-3.16"/><path class="cls-5" d="M174.18,46.63S171.4,38.78,163,43.32"/><path class="cls-6" d="M163.62,69.72s-2.36,7.55-14,7.33-12.5-7.33-12.5-7.33Z"/><path class="cls-7" d="M155.36,60.38c0-5.27,4.55-9.55,10.18-9.55s10.19,4.28,10.19,9.55"/><path class="cls-6" d="M161.16,60.38a4.44,4.44,0,0,1,8.87,0"/><path class="cls-7" d="M125.07,60.38c0-5.27,4.58-9.55,10.24-9.55s10.24,4.28,10.24,9.55"/><path class="cls-6" d="M130.88,60.38a4.43,4.43,0,0,1,8.86,0"/><path class="cls-6" d="M126,55.88l-5.3-2.34,4.7,4.13c-.06.24-.1.46-.16.68l-4.58-.64L125,59.78a8.85,8.85,0,0,0,0,1c2.45-8.63,7.38-9.78,8.78-9.93C129.23,51,127,53.44,126,55.88Z"/><path class="cls-6" d="M133.74,50.87h0Z"/><path class="cls-6" d="M180.33,57.68l-4.59.64a2.87,2.87,0,0,0-.15-.68l4.69-4.13L175,55.84a8.11,8.11,0,0,0-7.77-5c1.4.15,6.32,1.31,8.78,9.94v-1Z"/><path class="cls-6" d="M165.15,50.87h-.41A1.13,1.13,0,0,1,165.15,50.87Z"/><path class="cls-8" d="M68.56,52.31a117.92,117.92,0,0,1-8.32,17.47A28.51,28.51,0,0,1,58,73c-2.14,2.64-5.11,2.65-8.09,2.58-.87,0-.5-.56-.22-.93A66.68,66.68,0,0,0,54.44,67,91.44,91.44,0,0,0,60.5,53.18a9.56,9.56,0,0,1,.79-2.5,1,1,0,0,1,1.22-.52c.9.21,1.8.37,2.71.54h0c.9.18,1.8.37,2.71.53C68.61,51.34,68.86,51.58,68.56,52.31ZM16.47,69.07c-.23.16-.52,0-.77-.13-.94-.41-1.89-.82-2.83-1.26a7.38,7.38,0,0,1-4.28-5.37A73.45,73.45,0,0,1,7,48c-.09-2.53,0-5.07-.08-7.61,0-1,.35-1.23,1.24-1s1.88.38,2.82.56,1.81.4,2.72.53,1.1.54,1,1.42A88,88,0,0,0,15,60.28a73.58,73.58,0,0,0,1.45,8C16.54,68.5,16.79,68.85,16.47,69.07ZM71.55,48.12c-2.63-.57-5.26-1.13-7.89-1.66-.69-.15-1-.33-.77-1.15.67-2.54,1.25-5.1,1.82-7.65.36-1.59.32-1.6-1.29-1.92L18.63,26.9c-.34-.07-.68-.12-1-.2-.51-.11-.82.07-.9.6-.45,2.74-.94,5.47-1.31,8.22-.19,1.41-.17,1.48-1.61,1.19-2.64-.51-5.28-1.06-7.92-1.55-1.67-.3-2.51.4-2.55,2.08,0,2.31-.1,4.62-.08,6.93A93.77,93.77,0,0,0,4.67,62.1c.8,4,2.67,7.16,6.5,9a32.9,32.9,0,0,0,5.9,2.25,2.17,2.17,0,0,1,1.6,1.43c1.62,3.8,5.62,8.1,9,10.57L25.58,96.19c-1.19,4.7-10.64,4-10.85,5.1l1.92.37,20.9,4.13,2.16.42c.21-1.06-8.17-3.64-8.25-8.86L33.6,86.5c3.49-1.19,9.06-4.07,11.61-6.68a1.89,1.89,0,0,1,1.72-.63c1.45.14,2.91.16,4.37.19,4.65.1,8.37-1.65,10.9-5.68.74-1.17,1.53-2.32,2.21-3.53A142.54,142.54,0,0,0,73.1,50.94C73.67,49.44,73.12,48.47,71.55,48.12Z"/><path class="cls-9" d="M14.65,101.22l22.2,4.43c1.13.22,2.26.41,3.39.62s2.1.47,3.16.63,1.3.59,1.08,1.59c-.46,2.1-.81,4.24-1.29,6.34-.2.9-.08,1.31.92,1.46a9,9,0,0,1,3.1.74c-.26,1.44-.51,2.87-.78,4.31,0,.29-.26.35-.52.3l-.79-.15q-20.29-4-40.59-8c-1-.2-1.4-.52-1-1.55a9.93,9.93,0,0,0,.28-1.36c.43-2.21.43-2.21,2.69-1.76,2.1.41,2.1.41,2.51-1.64.36-1.86.76-3.71,1.08-5.57.17-.95.63-1.21,1.53-1S13.63,101,14.65,101.22Z"/><path class="cls-10" d="M27.36,30.59s-8.21,30.06,1.34,52c0,0-9-9.52-10.51-22C16.33,45.77,19.81,29.1,19.81,29.1Z"/><path class="cls-2" d="M24,82.12s9.76,3.08,10,5.52a6.19,6.19,0,0,1-.79,4L32.07,101s-7.4-.83-9.35-1.85S24,92.32,24,92.32Z"/><polygon class="cls-11" points="127.9 211.97 139.75 211.97 136.98 228.96 131.04 228.96 127.9 211.97"/><polygon class="cls-11" points="160.75 212.02 173.05 211.97 170.73 228.96 162.98 228.96 160.75 212.02"/><path class="cls-12" d="M114.32,230.1a12.11,12.11,0,0,1,24.22,0h0"/><path class="cls-12" d="M161.55,230.1a12.12,12.12,0,1,1,24.23-.71c0,.24,0,.47,0,.71"/></g><g id="Layer_2" data-name="Layer 2"><path class="cls-3" d="M31.75,96.76s1.76,3,.37,4S23.47,99,23.47,99"/><path class="cls-3" d="M33.6,86.32s1.76,3,.37,4-11-2.67-11-2.67"/><path class="cls-3" d="M32.83,90.78s4.23,4.45.54,5.82c-1.6.58-11-2.67-11-2.67"/></g></svg>