<svg id="Layer_1" data-name="Layer 1" xmlns="http://www.w3.org/2000/svg" viewBox="0 0 166.89 229.4"><defs><style>.cls-1{fill:#02a1cd;}.cls-2{fill:#ec1e52;}.cls-3,.cls-7,.cls-8,.cls-9{fill:none;stroke-miterlimit:10;}.cls-3{stroke:#0d4161;stroke-width:1.98px;}.cls-3,.cls-9{stroke-linecap:round;}.cls-4{fill:#0d4161;}.cls-5{fill:#fff;}.cls-6{fill:#f1eec7;}.cls-7,.cls-8{stroke:#e5dfa0;}.cls-7{stroke-width:1.03px;}.cls-8{stroke-width:0.92px;}.cls-9{stroke:#188ab2;stroke-width:6.19px;}.cls-10{fill:#a2cced;}.cls-11{fill:#e5dfa0;}.cls-12{fill:#514c49;}</style></defs><path class="cls-1" d="M2.2,115.68c0-35.1,17.45-69.17,40-93.55C100.46-40.6,165.3,50,165.3,118.58c0,50.65-40.1,63-80.21,63S2.2,166.33,2.2,115.68Z"/><rect class="cls-2" x="40.87" y="109.75" width="82.67" height="47.4"/><polyline class="cls-1" points="105.18 227.66 113.01 175.94 90.38 175.94 98.28 229.16 104.31 225.34"/><polyline class="cls-1" points="65.71 224.93 55.86 177.41 80.4 177.41 71.58 227.66 63.15 224.93"/><path class="cls-3" d="M60.13,45.4s3.81-7.72,12.18-3.17"/><path class="cls-3" d="M109,45.4s-2.78-7.87-11.14-3.32"/><path class="cls-4" d="M98.45,68.47S96.1,76,84.51,75.8,72,68.47,72,68.47Z"/><path class="cls-5" d="M90.2,59.14c0-5.27,4.55-9.54,10.18-9.54s10.18,4.27,10.18,9.54"/><path class="cls-4" d="M96,59.14a4.43,4.43,0,0,1,8.86,0"/><path class="cls-5" d="M59.92,59.14c0-5.27,4.58-9.54,10.23-9.54s10.24,4.27,10.24,9.54"/><path class="cls-4" d="M65.72,59.14a4.43,4.43,0,1,1,8.86,0"/><path class="cls-4" d="M60.79,54.64,55.5,52.3l4.7,4.13a6.31,6.31,0,0,0-.15.67l-4.59-.63,4.38,2.07c0,.34,0,.69,0,1,2.46-8.63,7.39-9.78,8.79-9.93A8.14,8.14,0,0,0,60.79,54.64Z"/><path class="cls-4" d="M115.17,56.43l-4.6.64a3.49,3.49,0,0,0-.14-.67l4.69-4.13-5.3,2.33a8.13,8.13,0,0,0-7.77-5c1.4.15,6.32,1.3,8.77,9.93v-1Z"/><path class="cls-6" d="M44.65,106.57v49s22.83-9.29,37.51,0v-49S61,98.35,44.65,106.57Z"/><path class="cls-6" d="M82.16,106.57v49s22.85-9.29,37.53,0v-49S98.49,98.35,82.16,106.57Z"/><line class="cls-7" x1="82.16" y1="106.57" x2="82.16" y2="154.45"/><path class="cls-8" d="M87.32,116.33s14.45-7.23,27.23,0"/><path class="cls-8" d="M87.32,123.92s14.45-7.29,27.23,0"/><path class="cls-8" d="M49.79,135.74s14.45-7.28,27.23,0"/><path class="cls-8" d="M49.79,144.32s14.45-7.29,27.23,0"/><path class="cls-9" d="M154.48,110.57s8.49,42.15-28.09,42.15"/><path class="cls-10" d="M133,142.21c2.67.37,5.16,2.83,6,6.34,1.1,4.48-.8,9-4.22,10.13l-8.42,2.69H126L114.68,165c-.89.29-1.85-.44-2.14-1.61a2.17,2.17,0,0,1,1.1-2.65l6.2-2a8.76,8.76,0,0,1-1-1.58l-7.43,2.38a1.85,1.85,0,0,1-2.14-1.61,2.19,2.19,0,0,1,1.1-2.66l7.43-2.37a10,10,0,0,1,.09-1.73l-6.38,2.07c-.9.29-1.86-.44-2.15-1.61a2.19,2.19,0,0,1,1.1-2.65l10.64-3.39a5.45,5.45,0,0,1,1-.5l-2.23-.15a2.24,2.24,0,0,1-1.74-2.31h0c0-1.21.76-2.14,1.69-2.07"/><path class="cls-9" d="M13.5,110.68S8.26,153,41.59,152.83"/><path class="cls-10" d="M35,142.34c-2.68.37-5.17,2.81-6,6.33-1,4.48.81,9,4.23,10.13l8.42,2.7H42l11.36,3.63c.89.29,1.86-.43,2.14-1.61a2.17,2.17,0,0,0-1.11-2.64l-6.19-2a9.7,9.7,0,0,0,1-1.57l7.43,2.37c.89.28,1.86-.44,2.14-1.61a2.16,2.16,0,0,0-1.11-2.65l-7.42-2.38a11.08,11.08,0,0,0-.08-1.73l6.38,2.06c.89.29,1.86-.44,2.13-1.61a2.15,2.15,0,0,0-1.1-2.64l-10.63-3.41a5.76,5.76,0,0,0-1-.48l2.24-.17a2.19,2.19,0,0,0,1.73-2.31h0c0-1.2-.74-2.13-1.68-2.07"/><path class="cls-11" d="M49.79,113.79v13.3s15.47-5.15,27.23,0V114.6S67.07,108.3,49.79,113.79Z"/><path class="cls-11" d="M87.32,130.3v13.31s15.47-5.15,27.23,0V131.12S104.6,124.81,87.32,130.3Z"/><polygon class="cls-2" points="62.69 211.3 74.55 211.3 71.78 228.29 65.84 228.29 62.69 211.3"/><polygon class="cls-2" points="95.54 211.35 107.85 211.3 105.53 228.29 98.31 228.29 95.54 211.35"/><path class="cls-12" d="M49.12,229.43a12.11,12.11,0,0,1,24.22,0h0"/><path class="cls-12" d="M96.35,229.43a12.12,12.12,0,1,1,24.23-.71v.71"/></svg>