<svg xmlns="http://www.w3.org/2000/svg" viewBox="0 0 161.97 229.4"><defs><style>.cls-1{fill:#3b3c7f;}.cls-2{fill:#5652a3;}.cls-3{fill:#02a1cd;}.cls-4,.cls-5,.cls-9{fill:none;stroke-linecap:round;stroke-miterlimit:10;}.cls-4,.cls-5{stroke:#0d4161;}.cls-4{stroke-width:0.9px;}.cls-5{stroke-width:1.8px;}.cls-6{fill:#0d4161;}.cls-7{fill:#ec1e52;}.cls-8{fill:#514c49;}.cls-9{stroke:#188ab2;stroke-width:6px;}.cls-10{fill:#a2cced;}</style></defs><g id="Layer_2" data-name="Layer 2"><polygon class="cls-1" points="39.95 229.41 48.11 229.41 48.11 194.28 113.77 194.28 113.77 229.41 122.09 229.41 122.09 191 121.96 191 121.96 183.51 39.95 183.51 39.95 191.1 39.95 229.41"/><path class="cls-2" d="M42.51,166.8H118.9a9.55,9.55,0,0,1,9.55,9.54h0a9.55,9.55,0,0,1-9.55,9.55H42.51A9.55,9.55,0,0,1,33,176.34h0a9.54,9.54,0,0,1,9.54-9.54Z"/><path class="cls-3" d="M2.21,112.62c0-34,16.9-67,38.78-90.62,56.4-60.76,119.2,27,119.2,93.43,0,49.06-38.83,60.95-77.7,60.95S2.21,161.67,2.21,112.62Z"/><path class="cls-4" d="M77,49.19c0,4.08-4.34,7.38-9.68,7.38s-9.68-3.3-9.68-7.38"/><path class="cls-4" d="M104.76,49.19c0,4.08-4.33,7.38-9.68,7.38s-9.68-3.3-9.68-7.38"/><path class="cls-5" d="M90.53,39.08c9.74-4,14.17,2.77,14.17,2.77"/><path class="cls-5" d="M71.89,38.94c-10.27-4-13.71,2.91-13.71,2.91"/><path class="cls-6" d="M96.7,66.94s-1,4-13.89,4-15.49-4-15.49-4Z"/><polyline class="cls-3" points="62.18 224.39 52.64 172.56 76.42 172.56 67.87 227.38 59.71 224.39"/><polygon class="cls-7" points="59.54 209.3 70.69 209.3 68.2 227.84 62.23 227.84 59.54 209.3"/><polyline class="cls-3" points="94.69 223.93 85.15 172.1 108.93 172.1 100.38 226.91 92.22 223.93"/><polygon class="cls-7" points="92.05 208.84 103.2 208.84 100.71 227.38 94.74 227.38 92.05 208.84"/><path class="cls-8" d="M52.19,229.4a11.73,11.73,0,0,1,23.46,0h0"/><path class="cls-8" d="M85.74,229.36a11.74,11.74,0,1,1,23.47-.69q0,.35,0,.69"/><path class="cls-9" d="M19.06,112.66s-9.3,36.46,34.74,44.59"/><path class="cls-10" d="M54.57,150.25c-2.47-.09-5.07,1.74-6.41,4.78-1.68,3.87-.69,8.29,2.19,9.8l7.18,3.76.17,0,.08,0,9.69,5.08a1.69,1.69,0,0,0,2.19-1.12,2,2,0,0,0-.58-2.56l-5.28-2.77A8.09,8.09,0,0,0,64.92,166l6.33,3.31a1.68,1.68,0,0,0,2.19-1.11,2,2,0,0,0-.59-2.57l-6.33-3.26a9.34,9.34,0,0,0,.19-1.58l5.45,2.85a1.68,1.68,0,0,0,2.18-1.11,2,2,0,0,0-.53-2.56l-9.07-4.74a4.79,4.79,0,0,0-.82-.6l2,.19A2,2,0,0,0,67.85,153h0c.21-1.09-.33-2.1-1.2-2.13"/><path class="cls-9" d="M108.93,158.19c44-8.13,34.74-44.59,34.74-44.59"/><path class="cls-10" d="M96.08,151.81c-.87,0-1.41,1.05-1.2,2.14h0a2,2,0,0,0,1.93,1.81l2-.2a4.43,4.43,0,0,0-.82.6l-9.08,4.75a2,2,0,0,0-.52,2.55,1.69,1.69,0,0,0,2.18,1.12L96,161.72a8.43,8.43,0,0,0,.19,1.59l-6.34,3.26a2,2,0,0,0-.58,2.56,1.68,1.68,0,0,0,2.19,1.12l6.33-3.31a9.09,9.09,0,0,0,1.12,1.28L93.65,171a2,2,0,0,0-.59,2.57,1.69,1.69,0,0,0,2.19,1.11l9.7-5.08H105l.16,0,7.19-3.76c2.88-1.52,3.87-5.93,2.18-9.81-1.33-3-3.93-4.87-6.4-4.78"/></g></svg>