<svg xmlns="http://www.w3.org/2000/svg" viewBox="0 0 239.64 229.4"><defs><style>.cls-1{fill:#02a1cd;}.cls-2{fill:#ec1e52;}.cls-3{fill:#514c49;}.cls-4,.cls-6{fill:none;stroke-linecap:round;stroke-miterlimit:10;}.cls-4{stroke:#188ab2;stroke-width:6.21px;}.cls-5{fill:#a2cced;}.cls-6{stroke:#0d4161;stroke-width:1.99px;}.cls-7{fill:#0d4161;}.cls-8{fill:#fff;}</style></defs><g id="Layer_2" data-name="Layer 2"><polyline class="cls-1" points="142.12 227.4 149.98 175.5 127.29 175.5 135.2 228.9 141.26 225.07"/><polyline class="cls-1" points="102.52 224.66 92.64 176.99 117.27 176.99 108.42 227.4 99.97 224.66"/><polygon class="cls-2" points="99.5 210.78 111.34 210.78 108.76 227.82 102.9 227.82 99.5 210.78"/><polygon class="cls-2" points="132.44 210.78 144.64 210.71 142.25 227.82 135 227.82 132.44 210.78"/><path class="cls-3" d="M87,229.08a12.15,12.15,0,1,1,24.3,0h0"/><path class="cls-3" d="M133.14,229.08a12.16,12.16,0,0,1,24.31-.71c0,.24,0,.48,0,.71"/><path class="cls-4" d="M45,112s-21.81-.58-27.32-39.85"/><path class="cls-5" d="M24.92,72.72c-.39,2.54-2.77,4.83-6.12,5.59-4.27,1-8.56-.94-9.54-4.15l-2.41-8v-.25L3.59,55c-.26-.85.45-1.75,1.57-2a2.06,2.06,0,0,1,2.49,1l1.77,5.91a8.84,8.84,0,0,1,1.52-.88L8.86,52a1.76,1.76,0,0,1,1.57-2,2.08,2.08,0,0,1,2.5,1L15,58.1a10,10,0,0,1,1.64.1l-1.87-6c-.26-.85.44-1.75,1.56-2a2.07,2.07,0,0,1,2.5,1l3,10.15a5.28,5.28,0,0,1,.46,1l.19-2.07a2.06,2.06,0,0,1,2.22-1.59h0c1.14,0,2,.74,1.93,1.62"/><path class="cls-4" d="M197,113.72s21.82-.58,27.33-39.85"/><path class="cls-5" d="M217,74.46c.39,2.53,2.77,4.82,6.12,5.58,4.27.95,8.57-.93,9.54-4.15l2.42-8v-.25l3.26-10.86c.25-.86-.46-1.76-1.57-2a2.07,2.07,0,0,0-2.49,1.1l-1.77,5.91a9.69,9.69,0,0,0-1.53-.89l2.13-7.08c.26-.86-.45-1.76-1.57-2a2.06,2.06,0,0,0-2.49,1.1L227,59.93a10,10,0,0,0-1.65.11l1.83-6.1c.25-.85-.45-1.75-1.56-2a2.08,2.08,0,0,0-2.5,1l-3,10.16a4.34,4.34,0,0,0-.45,1l-.2-2.07a2.06,2.06,0,0,0-2.21-1.6h0c-1.15,0-2.07.74-1.94,1.63"/><path class="cls-1" d="M39.85,117.05c0-35.22,17.5-69.4,40.16-93.87,58.42-62.94,123.47,28,123.47,96.78,0,50.81-40.22,63.13-80.48,63.13S39.85,167.85,39.85,117.05Z"/><path class="cls-6" d="M98,45.48s3.82-7.74,12.22-3.17"/><path class="cls-6" d="M147,45.48s-2.8-7.88-11.19-3.32"/><path class="cls-7" d="M136.41,68.64s-2.36,7.58-14,7.36-12.55-7.36-12.55-7.36Z"/><path class="cls-8" d="M128.13,59.28c0-5.29,4.58-9.58,10.22-9.58s10.21,4.29,10.21,9.58"/><path class="cls-7" d="M134,59.28a4.45,4.45,0,1,1,8.89,0"/><path class="cls-8" d="M97.75,59.28c0-5.29,4.6-9.58,10.27-9.58S118.3,54,118.3,59.28"/><path class="cls-7" d="M103.58,59.28a4.45,4.45,0,0,1,8.89,0h0"/><path class="cls-7" d="M98.67,54.76l-5.31-2.34,4.7,4.14a3.14,3.14,0,0,1-.15.69l-4.61-.64,4.41,2.07a4.59,4.59,0,0,0,0,1c2.46-8.66,7.39-9.81,8.8-10A8.16,8.16,0,0,0,98.67,54.76Z"/><path class="cls-7" d="M106.44,49.73h0Z"/><path class="cls-7" d="M153.18,56.56l-4.6.65a3,3,0,0,0-.15-.69l4.71-4.14-5.31,2.34a8.14,8.14,0,0,0-7.81-5c1.41.15,6.35,1.3,8.81,10a7.11,7.11,0,0,0-.05-1Z"/><path class="cls-7" d="M138,49.73h-.4A1.34,1.34,0,0,1,138,49.73Z"/></g></svg>