<svg id="Layer_1" data-name="Layer 1" xmlns="http://www.w3.org/2000/svg" viewBox="0 0 76.93 76.93"><defs><style>.cls-1{fill:#0d4060;}</style></defs><path class="cls-1" d="M23.5,34.76h0a1.1,1.1,0,0,1-1.11-1.11c0-.14.83-10.25,10-12.47.55-.14,1.1.42,1.24,1a1.09,1.09,0,0,1-.69,1.11c-7.62,1.8-8.31,10.11-8.31,10.53a1,1,0,0,1-1.11,1Z"/><path class="cls-1" d="M38.72.34a1,1,0,0,0-.9,1V5.45h0a1,1,0,0,0,1,.94,1,1,0,0,0,1-.94h0V1.21A1,1,0,0,0,38.72.34Z"/><path class="cls-1" d="M10.17,28v0l-5.63-.91a.95.95,0,0,0-.37,1.86l5.61.91h.07a1,1,0,0,0,1-.95A.94.94,0,0,0,10.17,28Z"/><path class="cls-1" d="M73.49,26.92a.9.9,0,0,0-1.12-.62l-5.06,1.28a.94.94,0,0,0,.13,1.88.82.82,0,0,0,.26-.06v0L72.87,28A.9.9,0,0,0,73.49,26.92Z"/><path class="cls-1" d="M20.25,12l-.11-.11,0,0L17,8.67a1,1,0,0,0-1.36,0,1,1,0,0,0,0,1.36l3.17,3.24h0a1,1,0,0,0,1.6-.71.91.91,0,0,0-.18-.53Z"/><path class="cls-1" d="M61.22,9.42,58.1,12.61l0,0-.11.11,0,0a1,1,0,0,0-.18.53,1,1,0,0,0,1,1A1,1,0,0,0,59.4,14h0l3.18-3.24a1,1,0,0,0-1.37-1.37Z"/><path class="cls-1" d="M71,47.29l-4.52-2.5h0a.86.86,0,0,0-.39-.09.94.94,0,0,0-.94.94.92.92,0,0,0,.71.9l4.27,2.37a.79.79,0,0,0,.5.12.83.83,0,0,0,.74-.5A1,1,0,0,0,71,47.29Z"/><path class="cls-1" d="M11.72,45.24a1,1,0,0,0-.71.29L7.29,48a.74.74,0,0,0-.38.74,1,1,0,0,0,1,1c.12,0,.37-.13.49-.13l3.67-2.46,0,0a1,1,0,0,0-.33-1.92Z"/><path class="cls-1" d="M60.48,33.51c-1.66-11.64-11.63-19.12-24-18.15a21.59,21.59,0,0,0-15.65,8.31,19.07,19.07,0,0,0-3.74,15.52,23.76,23.76,0,0,0,5.68,10.94A13.18,13.18,0,0,1,26.4,56.6a13,13,0,0,1,0,2.57,6.64,6.64,0,0,0,1.65,5,2.25,2.25,0,0,0-.83,1.8,3,3,0,0,0,1,2.08,2.43,2.43,0,0,0-1,1.94,2.72,2.72,0,0,0,1.66,2.49h.28a2.05,2.05,0,0,0-.28,1.25,2.91,2.91,0,0,0,1.53,2.49c.27.14.55.14.83.28a29.77,29.77,0,0,0,3.46.14h6.1c1.8,0,3.74,0,5.67-.14.28,0,.56-.14.84-.14a2.7,2.7,0,0,0,1.24-3.46c0-.14-.14-.14-.14-.28a2.75,2.75,0,0,0,1.67-2.49,2.64,2.64,0,0,0-1-1.94,2.51,2.51,0,0,0,1-2.08,2,2,0,0,0-.84-1.66,4,4,0,0,0,1.25-2.08,7.75,7.75,0,0,0,.42-3.6,9.6,9.6,0,0,1,2.63-7.07,50,50,0,0,0,3.32-4.29C60.07,42.51,61.18,37.94,60.48,33.51ZM47,73.9a1,1,0,0,1-1,1H31.8a1,1,0,0,1-1-1v-.17a1,1,0,0,1,1-1H46a1,1,0,0,1,1,1Zm1.21-4a1,1,0,0,1-1,1H30.35a1,1,0,0,1-1.05-1h0a1,1,0,0,1,1.05-1H47.13a1,1,0,0,1,1,1Zm-1.31-4.84a1,1,0,0,1,1,1v0a1,1,0,0,1-1,1H30.5a1,1,0,0,1-1-1v0a1,1,0,0,1,1-1Zm-8.54-1.65L35,45.84l2.35,1.8a2.16,2.16,0,0,0,2.22,0l2.91-1.94L39.71,63.43ZM55.08,46c-1,1.38-2.08,2.77-3.18,4.15a12.13,12.13,0,0,0-3,8.59,8.84,8.84,0,0,1-.42,2.77,2.37,2.37,0,0,1-2.49,1.8H41.79l2.9-17.87a1.9,1.9,0,0,0-1.52-2.21,1.61,1.61,0,0,0-1.38.27L38.6,45.7,36,43.76a2.15,2.15,0,0,0-2.22-.14,1.87,1.87,0,0,0-.83,1.94l3.19,17.73h-4.3a4.29,4.29,0,0,1-1.13,0,2.35,2.35,0,0,1-1-.48,3.64,3.64,0,0,1-1.1-2.16,7.45,7.45,0,0,1-.11-1.25c0-.48.1-1,.1-1.45A10.3,10.3,0,0,0,28.45,56a11.11,11.11,0,0,0-1.22-3.39,18.49,18.49,0,0,0-2.9-3.86,21.13,21.13,0,0,1-5.26-10,17.16,17.16,0,0,1,3.32-13.85,19.76,19.76,0,0,1,14.27-7.48c.69,0,1.25-.14,1.8-.14,10.39,0,18.42,6.51,19.95,16.35C59.1,37.8,58,41.82,55.08,46Z"/></svg>