<svg id="Layer_1" data-name="Layer 1" xmlns="http://www.w3.org/2000/svg" viewBox="0 0 75.87 75.87"><defs><style>.cls-1{fill:#0d4060;}</style></defs><path class="cls-1" d="M27.44,33.23c-4.66,0-6.5-3.19-6.82-4.89a1.61,1.61,0,1,1,3.17-.59c.08.35.66,2.26,3.65,2.26h0c2.86,0,3.47-1.91,3.57-2.3A1.62,1.62,0,0,1,33,26.52a1.6,1.6,0,0,1,1.21,1.9,6.53,6.53,0,0,1-6.71,4.81Z"/><path class="cls-1" d="M48.49,33.23c-4.66,0-6.5-3.19-6.82-4.89a1.61,1.61,0,1,1,3.17-.59c.08.35.66,2.26,3.65,2.26h0c2.86,0,3.48-1.91,3.57-2.3a1.61,1.61,0,0,1,3.15.71,6.55,6.55,0,0,1-6.72,4.81Z"/><path class="cls-1" d="M38.09,56h-.31C22.41,56,19,48,16.69,42.66a1.61,1.61,0,0,1,3-1.27c2.18,5.08,4.88,11.4,18.13,11.4h.31c12.34,0,15.6-6.43,17.76-10.68.15-.29.28-.57.42-.83a1.61,1.61,0,0,1,2.86,1.49l-.41.8C56.52,47.92,52.41,56,38.09,56Z"/><path class="cls-1" d="M37.94,75.87A37.94,37.94,0,1,1,75.87,37.93,38,38,0,0,1,37.94,75.87Zm0-72.65A34.71,34.71,0,1,0,72.65,37.93,34.76,34.76,0,0,0,37.94,3.22Z"/></svg>