<?xml version="1.0" encoding="utf-8"?>
<!-- Generator: Adobe Illustrator 26.0.1, SVG Export Plug-In . SVG Version: 6.00 Build 0)  -->
<svg version="1.1" id="Layer_1" xmlns="http://www.w3.org/2000/svg" xmlns:xlink="http://www.w3.org/1999/xlink" x="0px" y="0px"
	 viewBox="0 0 637.3 635.8" style="enable-background:new 0 0 637.3 635.8;" xml:space="preserve">
<style type="text/css">
	.st0{fill:#C1E7F6;}
	.st1{fill:#A56D51;}
	.st2{fill:#14110F;}
	.st3{fill:#151210;}
	.st4{fill:none;stroke:#151210;stroke-width:1.22;stroke-miterlimit:10;}
	.st5{fill:#14110F;stroke:#151210;stroke-width:0.53;stroke-miterlimit:10;}
	.st6{fill:#42221A;}
	.st7{fill:#221E1F;}
	.st8{fill:#14110F;stroke:#151210;stroke-width:0.52;stroke-miterlimit:10;}
	.st9{fill:#5E9FAE;}
	.st10{fill:#885522;stroke:#885522;stroke-width:1.17;stroke-miterlimit:10;}
	.st11{fill:none;stroke:#885522;stroke-width:1.17;stroke-miterlimit:10;}
	.st12{fill:#385456;}
	.st13{fill:#745145;}
	.st14{fill:#C2B2D6;}
	.st15{fill:#263238;}
	.st16{fill:#42221A;stroke:#42221A;stroke-miterlimit:10;}
	.st17{fill:#42221A;stroke:#42221A;stroke-width:1.15;stroke-miterlimit:10;}
	.st18{fill:none;stroke:#42221A;stroke-width:1.28;stroke-miterlimit:10;}
	.st19{fill:#665786;}
	.st20{fill:#151212;}
	.st21{fill:#171413;}
	.st22{fill:#171514;}
	.st23{fill:#181615;}
	.st24{fill:#020303;}
	.st25{opacity:0.14;fill:#FFFFFF;enable-background:new    ;}
	.st26{fill:#643B29;}
	.st27{fill:#31150D;}
	.st28{fill:#F0EDF6;}
	.st29{fill:#24170E;}
	.st30{fill:#FFFFFF;}
</style>
<g id="Layer_1_00000005981494230298407310000003730906081624518307_">
	<circle class="st0" cx="319.1" cy="340.6" r="288.9"/>
	<path class="st1" d="M131.8,339.4l-21.4,15.1c0,0,59,74.6,89.3-1.8l-39-20L131.8,339.4z"/>
	<path class="st2" d="M225,263.9l-1.2-1c-8.9-2.9-15.9-2.3-20.7,3.6c-0.1,0-11.8-4-20.6,11.5c-7.6,13.4-3.7,21.1-3.7,21.1
		s-7,3.9-8.2,7.5c-2.8,8.1-0.5,22.8,6.4,24s8,4.3,8,4.3s10.8,1.9,16.4,1.7s13.4-6.8,13.4-6.8s12.6,0.3,16.1-2.8s4.7-12.2,4.7-12.2
		s12.9-2.3,11.9-12.1c0,0,4.1-6-2.9-12.4c-1.9-1.6-4-3-6.3-4.1c0,0,1.9-3-0.1-10.5C237.3,272.5,231.7,266.1,225,263.9z"/>
	<path class="st3" d="M225.7,263.6c-0.4-0.4-0.8-0.7-1.2-1c-1.2-0.5-2.5-0.9-3.8-1.1c-2.4-0.6-4.9-0.8-7.3-0.6
		c-4.3,0.3-8.2,2.3-10.9,5.6l1.3-0.4c-4.2-1.4-9.2-0.1-12.9,2.1c-4.3,2.6-7.4,6.7-9.8,11.1c-2.4,4.3-3.8,9-4,13.9
		c-0.1,2.1,0.2,4.1,1,6l0.3-0.4c-2.5,1.4-4.8,3.1-6.7,5.1c-2.4,2.6-2.8,6.4-2.9,9.8c-0.2,3.9,0.5,7.8,1.9,11.4
		c1.1,2.6,3,5.1,5.9,5.7c2.2,0.5,4.6,1,6.4,2.5c0.6,0.4,1,1,1.3,1.6c0,0.1,0.2,0.2,0.3,0.2c4.1,0.7,8.2,1.3,12.3,1.6
		c2.4,0.3,4.9,0.2,7.3-0.3c2.6-0.8,5-2,7.3-3.6c1.4-0.9,2.8-1.9,4.1-3l-0.9,0.3c3.8,0.1,7.6-0.2,11.3-0.9c2-0.4,4.2-0.9,5.8-2.3
		c1.9-1.7,2.8-4.4,3.5-6.7c0.5-1.8,1-3.7,1.2-5.6l-0.9,0.5c3.9-0.6,7.5-2.5,10.3-5.2c0.9-1,1.7-2.2,2.1-3.5c0.2-0.6,0.3-1.3,0.4-2
		c0-0.6,0-1.1,0-1.7c0.2-0.7,0.7-1.4,0.9-2.1c0.4-1.4,0.4-2.8,0.1-4.2c-1.1-5-6-8.2-10.3-10.4l0.1,0.3c0.5-1,0.8-2,0.8-3.1
		c0.3-2.9-0.1-5.8-1.2-8.5c-1.1-2.3-2.8-4.4-4.7-6.1C231.5,266.4,228.7,264.7,225.7,263.6c-0.5-0.1-1.9,0.5-1.3,0.7
		c3,1,5.8,2.7,8.1,4.9c1.9,1.6,3.5,3.7,4.6,6c1.1,2.6,1.5,5.5,1.2,8.3c0,1-0.3,2-0.7,2.9c-0.1,0.1-0.1,0.3,0.1,0.3
		c5.9,3,12.7,8.6,9.3,15.9c-0.2,0.8-0.3,1.7-0.2,2.5c-0.1,1.4-0.6,2.7-1.4,3.8c-1.4,2-3.4,3.5-5.7,4.4c-0.9,0.4-1.9,0.7-2.8,1
		l-0.9,0.2c-0.3,0.1,0,0-0.2,0s-0.8,0.2-0.9,0.5c-0.4,3.1-1.2,6.1-2.4,8.9c-0.6,1.7-1.9,3.1-3.5,3.9c-1.8,0.7-3.8,1.1-5.7,1.3
		c-1.9,0.2-3.7,0.3-5.6,0.4c-0.8,0-1.7-0.1-2.5,0s-1.6,0.9-2.3,1.4c-1.7,1.3-3.4,2.4-5.2,3.4c-2,1.2-4.2,1.9-6.6,2
		c-2.3,0-4.6-0.2-6.9-0.5c-2.1-0.2-4.2-0.5-6.4-0.9l-1.7-0.3c-0.2,0-0.3-0.1-0.5-0.1c-0.2,0,0.2,0.3,0.2,0.1
		c-0.3-0.8-0.9-1.4-1.5-1.9c-1.7-1.2-3.7-2.1-5.8-2.4c-1.8-0.2-3.5-1.2-4.6-2.7c-1.1-1.6-2-3.3-2.5-5.2c-1.4-4.9-1.5-10-0.3-14.9
		c1-3.8,4.9-6.4,8.2-8.3c0.1,0,0.4-0.2,0.3-0.4c-0.5-1.2-0.9-2.6-0.9-3.9c-0.2-3.9,0.4-7.8,1.9-11.5c2.9-7.5,8.8-16.4,17.6-17.1
		c1.4-0.1,2.9,0,4.3,0.4c0.5,0.1,1,0,1.3-0.4c2.4-3,6-4.8,9.9-4.9c2,0,4,0.2,6,0.7c1.2,0.2,2.3,0.5,3.4,1c0.4,0.3,0.8,0.6,1.1,0.9
		C224.6,264.5,226.1,263.9,225.7,263.6z"/>
	<path class="st4" d="M222.6,262c0,0,20.2,2.7,22.5,15.5l0.5,9c0,0,9.3,0.6,9.7,7"/>
	<path class="st1" d="M115.2,291.1c0,0,14.8,29,6.5,48.4c-1.6,3.7-11.3,14.9-11.3,14.9l23.4,10.8c28.2,9.7,24,3.5,49.4-12l7.5-1.5
		c0,0,0.7,1.6-0.6-2.9s1.3-39.9,1.3-39.9"/>
	<path class="st5" d="M84.9,251.9c0,0-33.5-56.2,4.1-64.9c1.4-5,4.3-9.5,8.3-12.8c8.2-7,18.3-2.9,18.3-2.9s6.9-8.9,15.4-9
		s12.5,4.1,12.5,4.1s8.9-6.4,16.8-4.2s14.1,8.5,14.1,8.5s5.9-2,10-0.9c9.8,2.7,14.3,22.7,16.7,29.6c0,0-11.6-22.8-19.9-22.3
		S105.6,206,105.6,206l-9.5,66.5L84.9,251.9z"/>
	<path class="st2" d="M51.6,310.7l-0.4,1.5c1,9.3,4.4,15.5,11.7,17.5c0,0.1,2,18.4,19.6,20.2c15.3,1.6,20.8-5.1,20.8-5.1
		s6.4,4.8,10.2,4.4c8.6-0.8,14.1-11.6,12.3-18.5s-3.5-16.9-3.5-16.9s-0.7-7.4-3.1-12.5s-11.2-9.9-11.2-9.9s3.2-9.8-1.1-11.7
		s-13.9-2.7-13.9-2.7s-6.5-7.5-15.1-2.6c0,0-7.2-1.3-10.1,7.7c-0.7,2.4-1.1,4.9-1.2,7.4c0,0-3.5-0.5-9.6,4.4
		C54.5,295.9,50.8,303.6,51.6,310.7z"/>
	<path class="st3" d="M50.8,310.8c-0.2,0.4-0.3,0.9-0.4,1.4c0,0.8,0.1,1.7,0.3,2.5c0.3,1.9,0.8,3.8,1.4,5.7c1,3,3,5.7,5.6,7.6
		c0.7,0.5,1.4,0.9,2.1,1.2c0.4,0.2,0.7,0.3,1.1,0.5c0.4,0.1,0.8,0.2,1.2,0.4c0,0-0.1-0.2,0,0c0,0.2,0.1,0.3,0.1,0.5
		c0.2,1.4,0.6,2.9,1.1,4.2c1.5,4.8,4.5,9,8.6,12c6,4.2,14.4,4.6,21.4,3.3c3.7-0.7,8.3-2.2,10.8-5.2l-1.4,0.3
		c2.9,2.1,6.8,4.7,10.5,4.6c5-0.2,9.3-3.9,11.6-8.1c1.2-2.2,2-4.6,2.2-7.1c0.2-2.5-0.5-4.9-1.1-7.3c-1-4.5-2-9-2.7-13.5
		c-0.6-4.4-1.2-8.9-3.3-12.9s-6.5-6.9-10.3-9.2c-0.2-0.2-0.4-0.3-0.7-0.4c-0.4-0.1,0.1-0.1,0,0.1c0.1-0.4,0.3-0.8,0.3-1.2
		c0.5-1.8,0.8-3.7,0.8-5.6c0-1.7-0.3-3.8-1.8-4.8c-1.8-1.3-4.6-1.6-6.7-2s-4.4-0.7-6.6-0.9c-0.4-0.1-0.9-0.1-1.3-0.1
		c0.4,0,0.4,0.3,0.2,0c-0.1-0.2-0.3-0.3-0.5-0.5c-3-2.9-7.3-4.2-11.5-3.5c-1.4,0.3-2.8,0.9-4.1,1.6l0.9-0.2
		c-2.3-0.3-4.6,0.2-6.5,1.5c-4.6,3-5.8,9-6,14.1l1.2-0.5c-1.1-0.1-2.2,0.1-3.2,0.4c-2.8,0.9-5.4,2.4-7.6,4.4c-1.8,1.9-3.2,4.2-4,6.7
		c-1.3,3.3-1.8,6.9-1.5,10.4c0,0.5,1.6,0.2,1.5-0.4c-0.2-3.1,0.2-6.3,1.2-9.3c0.7-2.5,1.9-4.7,3.6-6.7c1.9-1.9,4.1-3.3,6.6-4.1
		c0.6-0.2,1.3-0.4,2-0.5c0.1,0,0.8,0,0.6,0c0.3,0,1.2-0.1,1.2-0.5c0.3-5.2,1.6-12.7,7.5-14.4c0.9-0.2,1.8-0.3,2.6-0.2
		c1.3,0,2.5-1,3.8-1.3c1.5-0.3,3-0.3,4.5,0c2.1,0.5,4,1.5,5.6,2.9c0.7,0.6,0.9,1,1.8,1.1c2.1,0.2,4.2,0.5,6.3,0.8
		c1.3,0.2,2.7,0.5,4,0.8c1.2,0.2,2.4,0.6,3.4,1.3c1.8,1.5,1.6,4.5,1.3,6.6c-0.2,1.5-0.5,3.1-1,4.5c0,0.1,0.1,0.2,0.2,0.3
		c3.9,2.1,8.1,5,10.5,8.7c2.6,4,3,9.2,3.7,13.8c0.9,5.6,2.1,11.1,3.5,16.6s-1.5,11.9-5.7,15.4c-1.3,1-2.8,1.8-4.4,2.2
		c-1.6,0.3-3.3,0.1-4.9-0.6c-2.2-0.9-4.2-2.1-6.1-3.5c-0.5-0.2-1.1-0.1-1.4,0.3c-0.3,0.3-0.7,0.6-1,0.9c-1,0.8-2.2,1.5-3.4,2
		c-4.8,2.1-10.3,2.4-15.5,1.8c-4.7-0.4-9.2-2.5-12.5-5.9c-2.3-2.5-4.1-5.5-5.2-8.7c-0.7-1.7-1.1-3.5-1.3-5.4c0-0.1-0.2-0.2-0.3-0.2
		c-3.9-1.1-7.1-3.7-8.8-7.3c-0.9-1.9-1.6-3.8-2-5.9c-0.3-1.2-0.5-2.4-0.6-3.7c0-0.6,0.2-1.2,0.4-1.8C52.5,310,51,310.2,50.8,310.8z"
		/>
	<path class="st6" d="M143.9,318.5c0,0,8.6,15.9,40.2,15.9c0,0,4.9-1,5.9-2l0.1-7.4L143.9,318.5z"/>
	<path class="st1" d="M125.1,309.2c15,10.6,44.6,20.9,62,20.5c17.1-0.4,21.3-7.1,23-10c9.4-16.1,14.4-31.4,15.6-48
		c0.1-4.6-0.5-9.3-2-13.6c-2-6.9-6.4-19.9-7.9-26.6c-3.7-17-14.6-30-27.2-42.1c-26.3-25.2-67.1-15.9-82.4-3.8
		c-17.9,14.2-22.5,35.7-19,56.7c1,6.5,3.2,12.7,6.3,18.4c3.6,2.5,6.8,5.3,9.8,8.5"/>
	<path class="st2" d="M186.5,182.6c0,0,6.8,9.2,20.4,27.9c-3.7-6.1-7.1-15.7-14.8-23.6c-26.8-27.5-83.8-9.9-99,2.9
		c-17.7,15-20.4,37.4-16.5,60c1.6,9.2,2.5,15,7,21.9c0.2,0.1,2.1,1.4,2.1,1.4s19-0.7,27.6,9l-2-9.7c0,0-0.8-6-1-29.2
		c0,0-0.4-3.6,2.6-19s8.5-20.9,8.5-20.9s28.5-11.7,35.6-13.2S186.5,182.6,186.5,182.6z"/>
	<path class="st3" d="M185.8,182.9c4.1,5.6,8.2,11.2,12.3,16.8l8.1,11.1c0.3,0.4,1.7-0.1,1.4-0.6c-2.5-4.2-4.4-8.7-6.9-12.9
		c-2.6-4.7-5.9-8.9-9.9-12.6c-6.1-5.3-13.3-9-21.2-10.8c-16.2-4-33.8-1.9-49.6,2.8c-6.8,1.9-13.4,4.6-19.7,7.8
		c-6.4,3.4-11.9,8.2-16.2,14c-12.5,17.3-11.2,39.9-6.9,59.8c1,4.6,2.5,9.4,5.2,13.3c0.4,0.5,0.9,0.9,1.5,1.2
		c0.4,0.3,0.8,0.5,1.2,0.6c0.5,0,1,0,1.5,0c7.1,0.1,14.6,1.3,20.8,4.9c1.8,1,3.4,2.4,4.8,3.9c0.3,0.3,1.6,0,1.5-0.5
		c-0.7-3.2-1.5-6.5-2-9.8c-0.3-2.6-0.5-5.3-0.5-7.9c-0.3-7.1-0.3-14.2-0.5-21.3c0.1-4.2,0.6-8.3,1.4-12.4c1.4-8.1,3-16.6,7.2-23.8
		c0.5-0.8,1-1.6,1.5-2.3c0.2-0.2,0.8-0.8,0.9-1.1c0,0.1-0.6,0.2,0,0.1s1.1-0.4,1.6-0.6c10.2-4.1,20.5-8.5,31.1-11.8
		c4.9-1.5,10-2.5,15-3.7c5.3-1.3,10.7-2.7,16-4l0.9-0.2c0.9-0.2,0.7-1-0.2-0.7c-9.9,2.5-19.8,5-29.8,7.4c-5.1,1.4-10.1,3.1-14.9,5.1
		c-5.6,2.1-11.1,4.3-16.6,6.5c-1.3,0.5-2.6,1-3.9,1.6c-0.6,0.4-1.1,0.8-1.4,1.4c-3.8,5.1-5.8,11.6-7.2,17.7c-1,4.5-1.8,9.1-2.4,13.8
		c-0.3,2.1-0.5,4.2-0.6,6.3c-0.2,5.8,0.1,11.7,0.3,17.6c0.1,4.1,0.2,8.1,0.6,12.2c0.4,2.9,1,5.7,1.7,8.5l0.4,2l1.5-0.5
		c-5.2-5.8-13.4-7.9-20.9-8.7c-2.2-0.3-4.5-0.4-6.8-0.4c-0.1,0-0.2,0-0.4,0c0.6,0.1,0-0.2-0.2-0.3l-1.1-0.7
		c-0.8-0.7-1.4-1.5-1.8-2.5c-0.6-1.1-1.1-2.2-1.6-3.4c-1.9-4.6-2.8-9.5-3.6-14.3c-1-5.2-1.6-10.5-1.8-15.8c-0.4-10,1-20.3,5.2-29.4
		c3.5-7.8,9.2-14.4,16.3-19.1c5.5-3.4,11.3-6.1,17.4-8.1c15.2-5.3,32.2-8,48.3-5.6c8,1.1,15.7,4,22.4,8.5
		c8.3,5.8,13.3,14.4,17.8,23.2c0.9,1.8,1.9,3.6,2.9,5.4l1.4-0.6c-6.4-8.8-12.9-17.7-19.3-26.5l-1-1.4
		C186.9,181.9,185.4,182.4,185.8,182.9z"/>
	<path class="st1" d="M120.8,301.1c-6.6,10.8-16.9-1.4-16.9-1.4c-10.6-8.1-15.1-18.4-16.5-25.8s6.7-9.1,6.7-9.1
		c7-0.8,6.2,0.2,19.8,17.5"/>
	<path class="st7" d="M107.6,283.7c-2-3.1-4.3-6-6.9-8.7c-1.3-1.4-2.8-2.6-4.5-3.6c-0.7-0.4-1.5-0.7-2.4-0.8c-0.1,0-0.3,0-0.4,0
		c-0.7,0.1-0.8,0.7-1,1.2c-1.2,3.2-0.5,6.9,0.8,9.9c0.2,0.5,1.3,0.1,1.2-0.3c-1.1-2.4-1.5-5.1-1.3-7.7c0.1-1,0.4-1.9,0.8-2.7
		l-0.6,0.3c0.1,0,0.1,0,0,0h0.3c0.5,0.1,1,0.3,1.4,0.5c2.4,1.3,4.5,3.1,6.2,5.3c1.9,2.2,3.7,4.6,5.3,7
		C106.8,284.5,107.9,284.1,107.6,283.7L107.6,283.7z"/>
	<path class="st7" d="M108,287.1c-4.6,1.3,0.4,6.6,0.8,9.2c0,0.1,0,0.3,0,0.4s-0.1,0.2-0.1,0.2s0.3,0,0.3-0.1
		c-0.3-0.2-0.7-0.5-1-0.8c-0.9-1.1-1.8-2.2-2.4-3.5c-1.1-1.7-1.9-3.5-2.3-5.5c-0.5-2.3-1-5.6,0.9-7.4c0.5-0.5-0.6-0.6-1-0.3
		c-1.8,1.7-1.8,4.4-1.4,6.7c0.3,1.9,0.9,3.8,1.9,5.5c0.8,1.5,1.7,3,2.8,4.4c0.5,0.6,1.2,1.5,2.1,1.6c2.3,0.2,0.9-2.9,0.5-3.8
		c-0.6-1.2-3.2-5.3-0.9-6C108.9,287.6,108.7,286.9,108,287.1L108,287.1z"/>
	<path class="st2" d="M155.6,252c-2.2-0.5-4.2,1-5.2,2.5c-0.5,0.8-0.8,1.7-0.9,2.7c0.1,1.7,1,3.3,2.5,4.3c1.8,1.1,4.1,0.8,5.7-0.5
		c1.9-1.8,2.2-4.6,0.9-6.8C157.9,253.1,156.8,252.3,155.6,252"/>
	<path class="st2" d="M167.5,257.4c0,0-9.6-8.2-16.8-6.2c-10.2,2.8-11,9.4-12.3,13.1c0,0,4.6-9.1,12.6-11
		C158.1,251.5,167.5,257.4,167.5,257.4z"/>
	<path class="st2" d="M205,237.3c1.7-1.5,4.2-1.3,5.8-0.5c0.9,0.4,1.6,1.1,2.1,1.9c0.8,1.5,0.9,3.4,0.1,4.9c-1,1.8-3.1,2.8-5.1,2.4
		c-2.5-0.6-4.3-2.8-4.2-5.4C203.6,239.5,204.1,238.2,205,237.3"/>
	<path class="st2" d="M192.4,250.6c0,0,3.5-11.8,10.2-13.7c9.4-2.6,13.3,2.7,16.2,5.2c0,0-8.1-5.6-15.4-3.4
		C196.9,240.8,192.4,250.6,192.4,250.6z"/>
	<path class="st2" d="M214.3,225.8c0,0-0.6-1.5-0.6-1.6c-0.8-0.5-1.8-0.9-2.7-1.1c-7.5-2.3-11.3-2.3-23.1-0.2v0.3
		c-0.1,1.5,0,0.7-0.1,2.1c-0.1,1.1-0.2,2.3-0.2,3.4c3.6-0.7,6.1-1.6,8.4-1.8c4.5-0.5,9.8-1.7,14.2-0.6c1.7,0.3,3.4,0.9,4.9,1.8
		C215.1,227.1,214.2,226.8,214.3,225.8z"/>
	<path class="st2" d="M159.5,233.1c0.8,1.3,0.3,0.6,1.1,1.9l1.7,3c-3.6,1-6.4,1.4-8.6,2.3c-4.4,1.7-9.8,3.1-13.5,6.1
		c-1.8,1.4-4.3,3.1-4.6,5.7c-0.1,0.7,0.2,3.3-0.8,3.4c-0.4,0-0.8-1.9-0.9-2c-0.8-3.8,1.1-6.8,4.1-9.5c6-5.6,9.5-7.4,21.5-11"/>
	<path d="M193.9,277.5c-1.9,1.5-4.5,2-6.8,1.3c-0.5-0.1-1.8,0.5-1.1,0.7c3.2,0.8,6.6,0.1,9.2-2c0.2-0.2,0.1-0.4-0.2-0.4
		C194.5,277.2,194.2,277.3,193.9,277.5"/>
	<path d="M184.9,279.2c-1.5-0.2-2.9-0.2-4.4,0c-0.2,0-0.4,0.2-0.6,0.4c-0.1,0.1-0.1,0.3,0.1,0.3c0.8,0.2,1.6,0.2,2.4-0.1
		c0.2-0.1,0.6-0.2,0.6-0.5s-0.2-0.3-0.4-0.2c-0.6,0.2-1.3,0.2-1.9,0l-0.5,0.7c1.3-0.2,2.6-0.2,3.9,0c0.3,0,0.5-0.1,0.7-0.3
		C185.1,279.5,185.2,279.3,184.9,279.2"/>
	<path d="M179.3,280.9c-1.7,0.4-3.8,0.2-5-0.9c-1.7-1.6-1.4-5.1,0.4-6.8c0.2-0.2,0-0.3-0.2-0.3c-0.3,0-0.6,0.2-0.8,0.4
		c-1.5,1.7-2,4.1-1.3,6.2c0.7,1.6,2.6,2.3,4.7,2.3c0.6,0,1.3-0.1,1.9-0.2c0.2-0.1,0.7-0.2,0.8-0.5S179.5,280.8,179.3,280.9"/>
	<path d="M196.7,275.9c-0.1-0.1-0.1-0.2,0-0.3c0,0,0.1,0,0.1,0c0.5-0.1,0.9-0.4,1.2-0.8l0.6,0.4c-0.9,0.3-1.7,0.9-2.4,1.6
		c-0.2,0.1-0.4,0.2-0.6,0.1c-0.1-0.1-0.3-0.2-0.2-0.4"/>
	<path d="M195.5,276.5c0.7-0.8,1.6-1.4,2.7-1.8c0.2,0,0.4,0,0.5,0.1c0.1,0.1,0.2,0.2,0.1,0.3c0,0,0,0,0,0"/>
	<path d="M200.2,275.2c1.2-0.4,2.2-1.5,2.4-2.8c0.2-2.1-0.9-4-2.7-5c-0.1,0-0.1-0.2-0.1-0.3c0,0,0.1-0.1,0.1-0.1
		c0.2-0.1,0.4-0.1,0.6,0c1.6,0.8,2.7,2.3,2.9,4.1c0.3,1.5-0.4,3.1-1.6,4c-0.3,0.3-0.7,0.4-1.1,0.6c-0.2,0.1-0.4,0-0.6-0.1
		C199.9,275.4,200.1,275.3,200.2,275.2"/>
	<path class="st8" d="M190.8,175.5c-3.8-1.8-10.9-3.7-17-3c-0.2,0-0.5,0.1-0.7,0.1l-3,1.8l-0.1,0.1l0.1-0.1c0.5-0.4,1.7-1.2,1-1.9
		c-0.4-0.3-0.9-0.5-1.4-0.5c-1.5-0.2-3.1-0.3-4.6-0.2l0,0h-0.5H164l0,0c-1.5,0.1-3,0.3-4.5,0.7c-0.5,0.1-1,0.3-1.4,0.7
		c-0.6,0.7,0.7,1.4,1.2,1.7l0.1,0.1l-0.1-0.1l-3.2-1.4c-0.2,0-0.5,0-0.8,0c-7.6,0-19,6.8-20,7.8s-0.2,2.5-0.1,2.6l-2.2-1.5
		c0,0-8.8,4-10.3,5.2s-2,3.9-2,3.9s-2.7,1.2-3.7,0.9s-6,2.7-7.9,5.9c-1.2,2-0.7,3.8-1.2,5.6l0,0c-0.3,1-0.5,1.6-0.5,1.6l-5.2,2.1
		c-4.1,2.3-2.6,11-2.6,11c-7.8,10.7-7.7,19.5-3.4,28.7c1.7,3.5-8.5,7.8-1.9,7.3s17,21.4,17,21.4s1.7-9.7,1.7-13.5s-2.4-15-2.4-15
		l3.2-0.6c0,0,1.9-0.9,4-5.4s-2.7-11.9-2.7-11.9l-1.5-4.6l6.4,0.1c6-1.4,6-8,6-8l-1.7-11l3.9,3.5c0.9,1,2.3,1.5,3.6,1.4
		c9.4-1.3,10.2-7.2,10.2-7.2l1-5.6l2.5,1.5c2.6,1.9,10.6,4.7,14.4,2.8c1-0.5,5.2-4.1,5.9-4.6c1.6-1.5,2.5-3.6,2.6-5.8
		c2.4,2.1,5.6,4.2,8.4,4.1c3.4,0,10.5-1.9,11.3-3.5c0.5-1.1-0.5-1.1,0.7-1.2c1.1,0.1,2.1,0.6,2.8,1.4c0,0,4,8.8,12.7,11.6
		s6.9-17.6-1.2-20C203,184.4,201,173.6,190.8,175.5z"/>
	<path class="st5" d="M77,215.9c0,0-8.6,3.7-10.7,9c-5.5,13.6,3.6,43.8,12,49l7.6,0.4L77,215.9z"/>
	<path class="st4" d="M78.6,270.4c0,0-13,0.3-14.3,8.5l-0.5,3.9c0,0-14.7-1.6-18.2,5.6s-3,20.8-3,20.8"/>
	<path class="st9" d="M322.1,628.5c107.7,0,202-51.7,254.2-137.4c-10.7-21.1-19.3-42.3-19.3-42.3l-75.5-223l-29.5-16.8
		c0,0-14.6,37-59,43c0,0-9.4,4.1-9.4,4.1c-35.4-6-22.8-17.7-21.2-21.3l-40.9,22.9l-41.8,107.9c-5,9.8-0.9,68.2,12.6,90.5l19.6,21.6
		l-9.3,52.3c0,0-16.1,20.6-10.9,38.2c11.7-1.5,6.2,32.4,4.1,59.4C304.5,628.2,313.4,628.5,322.1,628.5z"/>
	<path class="st9" d="M342.1,250.2c0,0-49.1,3.4-63.4,32.7s-50.3,127.7-50.3,127.7l-72.9-2.1l-87,0.6c0,0,75.1,60.6,107.9,77.5
		c36.6,21.9,92.2,36.2,111.8,29.7c16.3-5.4,44.2-19.7,54.1-56.2l7.9-28L342.1,250.2z"/>
	<path class="st10" d="M226.8,394.2c0,0,13.6,14.2,22.5,26.5C249.3,420.6,236.7,396.8,226.8,394.2z"/>
	<line class="st11" x1="473.3" y1="411.5" x2="471.8" y2="410.9"/>
	<path class="st9" d="M363.6,231.1c0,0-70.2,23.1-76.8,44.3c-10,32.2-9.5,102.1-9.5,102.1l29.9-2L363.6,231.1z"/>
	<path class="st9" d="M448.4,205.1c0,0,84.5,17.1,109,48.9s51.3,181,47.8,202.1c-10.5,62-141.4,149.6-141.4,149.6l-34-44.4
		L536,427.5l-16.8-85.7L448.4,205.1z"/>
	<path class="st12" d="M490.8,300.3c0.1,14.8,33.9,136.9,38.5,152.5l-3-0.7c-3.8-13.4-31.4-118.2-37.2-144
		c-5.5-24.4,11.9-47,11.9-47C488.2,288,490.8,300.3,490.8,300.3z"/>
	<polygon class="st12" points="526.2,450.1 529.1,451.3 431.6,561.8 428.7,560.7 	"/>
	<polygon class="st1" points="457,596.1 424.6,607.6 417,576.8 436.2,566.7 	"/>
	<path class="st12" d="M526.3,452.7c0,0,14.7,8.1,22.8,15.8c0,0-13.4-16.5-22.2-18.2L526.3,452.7z"/>
	<path class="st13" d="M582.6,392.4h0.2l-0.2-0.1C582.6,392.4,582.6,392.4,582.6,392.4z"/>
	<path class="st13" d="M583.3,392.5h0.3C583.6,392.4,583.4,392.4,583.3,392.5C583.3,392.5,583.3,392.5,583.3,392.5z"/>
	<path class="st14" d="M253.6,620.9l-12.3-95.7c0,0,16.6-17.3,18.1-38c1.7-24.3-6.1-48.5-6.1-48.5l-10.9-73.3
		c-5.4-0.3-46-15.7-46-15.7s-4,28-33,30.9s-49.6-30.2-49.6-30.2C94.6,355.5,59.7,365,59.7,365l15,63.1l0.1,71.8
		C116.2,559.1,186.6,609.6,253.6,620.9z"/>
	<g id="freepik--character-3--inject-2">
		<path class="st15" d="M244.4,428.9c-5.6-9.7-7.5-21-5.3-32c0.6,0,0.3,7.3,1.8,16.2S245,428.6,244.4,428.9z"/>
	</g>
	<g id="freepik--Character--inject-2">
		<path class="st14" d="M278.3,402.3c-6.9-14.5-12.3-24.4-21.1-31.1c-4.1-3.2-28.7-9.1-28.7-9.1l3.1,68.5l13.2,65.3l64.6-20.4
			C309.4,475.6,287.2,421.4,278.3,402.3z"/>
		<path class="st1" d="M132.9,513.5c0,0-33.3-17-41.1-19s-32.5,3.5-32.8,9.5c-0.2,3.2-0.2,6.3,0,9.5c0,0-7.3,5.1-4.2,10.5
			s6.2,5.3,6.2,5.3s-4.5,3.9-2,7.6s5.1,8.1,5.1,8.1s-1.1,4.8,1.9,6.7s22.8,5.1,37.1,4.2s21.3-2.8,21.3-2.8L132.9,513.5z"/>
		<path class="st1" d="M299.1,478.8c1.4,2.9,12.5,46.9,13.3,66.3c0.8,19.9-8.6,31-28.8,30.9s-112.1-11-141-25.9l-11.4-3.3l8.4-28.2
			c0,0,25.8,1.5,40.3,4.4s80.4-7.5,80.4-7.5l-2.5-19.5l-0.6-4.9l25.3-7L299.1,478.8z"/>
		<path class="st16" d="M260.3,515.5c10.1,1.9,16.9,8.9,20.6,18.5c0.6,1.4,1,2.9,1.3,4.3c0.1,0.6,0.2,1.1,0.2,1.7
			c-0.1,0-0.5-2.3-2-5.8s-8.6-15.3-22.8-18.3"/>
		<path class="st1" d="M140.4,370.8l-32.1,117.3l-8.6-16.2l-54.6,22c4.1,11,8.8,21.7,14.1,32.1c23.5,44.8,54.6,47.4,73.9,41.3
			s31.5-70.8,35.6-98.5c4.8-32,5.6-101,5.6-101L140.4,370.8z"/>
		<path class="st1" d="M173.8,390.9c0,0,0.9-19.8,1.2-27.7s-12.3-38.7-12.6-39.4s-1.8-10.4-1.8-10.4s2.8,1.4,5.5-2.3
			c1.5-2.2-1-9.1-3.3-10.6s-6.2-0.1-6.2-0.1s0-4.5-6.8-4.3c0,0-1-6.9-15-4.6c0,0,0.1-1.8-4.1-1.5s-16.2,2.9-17,5.7
			s2.6,19.7,2.6,24.5s0.1,5.1,2.2,9.3s18.5,31.1,22.4,36.9l-4.6,19.4"/>
		<path class="st16" d="M159.9,307.4c0.3,0.2,0.5,0.5,0.7,0.8c0.4,0.8,0.6,1.6,0.6,2.5c0.2,1.2,0.1,2.3-0.2,3.5
			c-0.4-1.1-0.5-2.2-0.5-3.4C160.4,309.6,160.2,308.5,159.9,307.4z"/>
		<path class="st17" d="M156.7,300.5c-0.9,0.7-2,1.3-3.1,1.7c-1.2,0.4-2.2,1.1-3.1,2c-1,1.1-1.5,2.6-1.5,4.1
			c-0.1,2.8,0.2,5.6,0.8,8.4c0.4,2.1,0.8,3.4,0.7,3.5c-0.5-1.1-0.9-2.2-1.2-3.4c-0.7-2.8-1.1-5.7-1-8.5c0-0.8,0.2-1.7,0.4-2.5
			c0.3-0.8,0.7-1.4,1.2-2c1-0.9,2.1-1.6,3.4-2C155.5,301,156.6,300.4,156.7,300.5z"/>
		<path class="st17" d="M149.9,296.1c-0.4,0.2-0.8,0.3-1.2,0.4l-3.5,0.9l-5.2,1.2c-1,0.2-1.8,0.7-2.5,1.4c-0.6,0.9-0.9,1.9-0.8,3
			c0,1.1,0.1,2.2,0.2,3.3s0.2,2.1,0.2,3.1c0.1,2,0.3,3.7,0.4,5.3s0.2,2.8,0.2,3.6c0.1,0.4,0.1,0.9,0,1.3c-0.1-0.4-0.2-0.9-0.2-1.3
			c-0.1-0.8-0.2-2.1-0.4-3.6s-0.3-3.4-0.5-5.3c-0.1-1-0.2-2.1-0.3-3.1c-0.1-1.1-0.2-2.3-0.2-3.4c0-1.2,0.3-2.4,0.9-3.4
			c0.7-0.9,1.7-1.4,2.9-1.6l5.2-1c1.5-0.3,2.7-0.5,3.5-0.7C149,296.2,149.5,296.2,149.9,296.1z"/>
		<path class="st17" d="M135.4,291.4c-0.4,0.2-0.8,0.3-1.2,0.5c-0.8,0.3-1.9,0.7-3.3,1.3l-2.3,1c-0.9,0.4-1.7,0.8-2.4,1.4
			c-1.7,1.3-2.6,3.4-2.3,5.5c0.3,2.2,0.8,4.5,1.1,6.4s0.6,3.7,0.9,5.3s0.4,2.7,0.6,3.6c0.1,0.4,0.1,0.9,0.1,1.3
			c-0.2-0.4-0.3-0.8-0.4-1.2c-0.2-0.8-0.4-2-0.8-3.5s-0.7-3.3-1.1-5.2s-0.9-4.1-1.2-6.5c-0.1-1.2,0.1-2.4,0.6-3.5
			c0.5-1,1.2-1.9,2-2.5c0.8-0.6,1.6-1.1,2.5-1.5l2.3-0.9C132.1,292.1,133.8,291.6,135.4,291.4z"/>
		<path class="st14" d="M64.8,364.8c0,0-43.3,0.9-42.8,49.2c0.4,40.8,12.8,89.4,12.8,89.4l68.2-27.5l-19.4-67.7
			C83.7,406.9,64.8,364.8,64.8,364.8z"/>
	</g>
	<path class="st18" d="M175.1,376.8c-0.2-4.5-0.2-8.9,0-13.4c0.4-7.9-12.3-38.7-12.6-39.4s-1.8-10.4-1.8-10.4s2.8,1.4,5.5-2.3
		c1.5-2.2-1-9.1-3.3-10.6s-6.2-0.1-6.2-0.1s0-4.5-6.8-4.3c0,0-1-6.9-15-4.6c0,0,0.1-1.8-4.1-1.5s-16.2,2.8-17,5.7s2.6,19.7,2.6,24.5
		s0.1,5.1,2.2,9.3s18.5,31.1,22.4,36.9l-2.4,7.8"/>
	<path class="st16" d="M158.3,520c0,0-5.7,25.8-11.5,32l2.6,1.1C149.5,553.1,158.6,533.1,158.3,520z"/>
	<path class="st16" d="M108.3,488.1c0,0-10.4,27.2-12,37.1c0,0,5.3-31.7,10.3-40.3L108.3,488.1z"/>
	<path class="st16" d="M55.2,517.7c0,0,11.2,26.3,25.9,37.4h-1.9C79.2,555.1,63.5,543,55.2,517.7z"/>
	<polygon class="st19" points="257.2,491 257.2,416.9 261.9,489.2 	"/>
	<polygon class="st19" points="88.4,408.8 102.1,476.3 108.3,488.1 	"/>
	<path class="st1" d="M437.3,603.2c-0.9,0.3-14.5,4-21.4,8.8s-23,9.9-23,9.9s-28,3.8-31.5,2.6s-7.5-6.9-7.5-6.9
		c-2.4-0.4-4.8-0.6-7.1-0.4c-6.5,0-9-7.3-9-7.3l8.4-3c-7.8,2.9-6,2.7-14,4.8c-2.1,0.1-3.8-1.5-3.9-3.5c0-0.2,0-0.3,0-0.5
		c0.5-2.8,2.2-5.2,4.5-6.7l29.7-21.5c-5-3.2-11.3,1.9-15.4-2.2s-0.5-7.5,0.8-8.4s18.4-4.7,18.4-4.7s24.5-0.8,29.5,0.2s31.4,8,31.4,8
		l8.2-2.8C435.3,569.6,438.2,602.9,437.3,603.2z"/>
	<path class="st6" d="M369.6,575.1c3.7-2.1,7.7-3.9,11.8-5.1c-3.5,2.6-7.2,4.7-11.2,6.4c-3.7,2.2-7.5,4.1-11.5,5.8
		C362,579.3,365.7,576.9,369.6,575.1z"/>
	<path class="st6" d="M356.8,602.7c-4.7,2.3-9,4.3-12.1,5.6c-1.7,0.9-3.5,1.4-5.3,1.7c1.5-1,3.2-1.9,4.9-2.7c3-1.5,7.3-3.7,12-6
		c9.4-4.7,17.5-7.4,17.6-7S366.1,598,356.8,602.7z"/>
	<path class="st6" d="M368.1,613.2c-4.5,2.2-9.3,3.7-14.2,4.2c0-0.3,6.3-2.2,13.8-5.5s13.1-6.6,13.3-6.3
		C377.2,608.9,372.8,611.5,368.1,613.2z"/>
	<polygon class="st12" points="297.6,447.5 291.6,335 294.6,439.8 	"/>
	<path class="st1" d="M364.6,246.6c3.2,2.9,6.9,5.3,10.9,7c5,1.8,10.4,2.6,15.7,2.2l6-0.5c4.2-0.4,8.4-1.3,12.4-2.7l9.9-3.5
		c1.8-0.8,3.6-1.7,5.3-2.7c13.8-8.2,25.3-20.6,27.3-35.6c-17.5-20.1-17.6-64-17.6-64l-85.7,42.5c0,0,5.1,38.1,10.4,37.5
		c5.6-0.7,0.8,11,0.5,11.5C360.8,242.3,361.6,244,364.6,246.6z"/>
	<path class="st1" d="M382.2,218.6l-29.8,5.3l-15.5-0.2c-1.5,0.4-11.3-13.4-12.7-15.1c-4.5-5.3-10.3-12.2-13.6-18.2
		c-3.6-6.5-9.3-11.6-12.1-19.7c-2.1-5.9-3-10.2-1.9-20.9c0.3-2.7-0.2-5.4-1.5-7.8c-2.6-5.4-4.5-12-7.8-19.4c-0.2-0.6-1.6-3.3-1.5-4
		c0,0-8.3-31.7-5-44.4s10.8-19.8,18.7-23.8s33.1-7.9,33.1-7.9L365,26.3l33.4,11.9l22.5,32.2l6.8,41.6l3.6,37.7"/>
	<path class="st2" d="M419,111.8c0.5,3.2,0,19.9,0.3,23.1l16.4-3.9c2.6-12,5.8-26.1,7.1-29.4c2-5.2-6.8-27.3-8.4-35.7l-0.4-1.8
		c-1.5-8-11.9-19.1-27.8-29.6c-29.5-19.5-27.7-18.2-64.7-7.4c-2.3,0.7-4.6,1.4-6.9,2.3c-21,7.9-42.6,14.4-52.5,35.5
		c-7.2,15.2-4.7,5.1-1.9,14c-3.3-18.1,1.4-13.4,2.8-16c8.2-14.7,16.4-2.7,21.6-4.6c2.9-1.1,6-1.5,9-1.1c5.5,0,10.5-1.7,15.8-3.7
		c4-1.5,14-6.1,14.8-6.5c2.4-2.5-2.4-12.8,2.6-14.7c11.6-4.3,28.5-7.7,35.4-1.1c5.6,5.3,25.3,5.1,27,23.9"/>
	<path class="st2" d="M341.1,219.8c0.2-0.1,0.4-0.2,0.5-0.3c2.7-2.8,2.7-4,4.1-4.7c0.5-0.3,1-0.5,1.5-0.7c4.3-1.6,6.9-2.6,20.4,2.3
		c0.3,0.1,15.4-5.3,15.7-5.4l7.2-5.5c1.2-1.1,25.7-33,25.7-33c0.3-0.9,4.4-8.1,4.4-9c0.1-0.1,0.2-0.1,0.3-0.2l0.2-0.1
		c0,0,0.1,0.1,0.1,0.1c0.1,0.3,0.2,0.7,0.3,1c0.2,1.5,0.3,3.1,0.1,4.6c-0.2,2.4-0.1,4.7-0.2,7.1c0,0.8-0.1,1.7-0.2,2.5
		c-3,2.9-18.8,35.1-29.8,43.9c-3.1,1.5-6.4,2.8-9.8,3.7c-12.5,3.8-24.8,6.5-38.1,5.6c-3.4-0.2-6.6-2-8.6-4.7
		c-5.6-7.8-19.2-24.3-24.1-36.7c5.1,6.7,17.1,20.2,24.5,30c0.2,0.3,5.1-0.5,5.5-0.5"/>
	<path class="st1" d="M430.3,155.4c15,9.3,13.9-12.6,13.9-12.6c6.7-13.2,4-25.1,1.8-33.1s-11.1-5.9-11.1-5.9
		c-7.4,2.6-9.8,7.4-10.3,34.4"/>
	<path class="st2" d="M442.7,101.7c0,0,2.5-28.5-9.3-54.1s-43.3-32-58-31.3s-64.2,17.1-75.4,25.5s-28,15.4-19.3,46.8
		c0,0-7.7-30.3,27-38.4c12.3-2.8,42.9-18.3,59.4-22.9c6.9-1.9,33.6,10.4,37.4,13.7c8.8,7.5-2.7,31.4,15.2,57.5
		c5.9,8.6,7.9-9.1,14.2-4S442.7,101.7,442.7,101.7z"/>
	<path class="st7" d="M431,132.2c0.9-4.9,2.5-9.7,4.6-14.2c0.8-1.7,1.9-3.2,3.4-4.4c0.1-0.1,0.3-0.1,0.4-0.2c0.1-0.1-0.2,0,0,0
		l-0.6-0.1c0.8,0.7,1.4,1.5,1.9,2.5c1.4,2.6,2,5.6,1.9,8.6c0,0.7,1.3,0.5,1.3-0.1c0.2-3.5-0.7-7-2.6-9.9c-0.5-0.7-1.3-2.1-2.3-1.8
		c-0.8,0.3-1.5,0.8-2,1.4c-1.3,1.5-2.4,3.2-3.2,5c-1.9,4.3-3.3,8.8-4.1,13.4C429.5,133,430.9,132.8,431,132.2L431,132.2z"/>
	<path class="st7" d="M433.4,133.7c2.4-0.7,2.5,3.6,2.6,5c0.1,1.3,0,5.1,2.1,4.9c1.1-0.1,1.4-1.2,1.6-2.1c0.3-1.9,0.5-3.9,0.3-5.8
		c0-2.4-0.5-4.7-1.3-6.9c-1-2.7-2.6-5.7-5.7-6.3c-0.6-0.1-1.3,0.8-0.5,1c2.5,0.5,3.9,3.3,4.8,5.5c0.7,1.8,1.2,3.8,1.3,5.7
		c0.2,1.9,0.1,3.9-0.1,5.8c-0.1,0.6-0.2,1.3-0.4,1.9c0,0.1-0.2,0.3-0.2,0.3l0.4-0.1c0,0-0.1-0.1-0.1-0.1c0-0.1-0.2-0.2-0.2-0.2
		c-0.4-0.8-0.6-1.7-0.6-2.5c-0.1-1.2-0.2-2.3-0.4-3.5c-0.3-2.2-1.3-4.3-3.9-3.6C432.3,133,432.6,133.9,433.4,133.7L433.4,133.7z"/>
	<path class="st2" d="M359.7,122c1.6-1.2,3.8-1.3,5.5-0.3c0.8,0.4,1.5,1.1,2,1.9c0.7,1.5,0.7,3.3-0.1,4.7c-1,1.7-3,2.6-5,2.1
		c-2.4-0.6-4-2.8-3.9-5.3C358.3,124,358.8,122.8,359.7,122"/>
	<path class="st2" d="M305.5,135.2c-2-0.3-4,0.5-5.1,2.2c-0.5,0.8-0.8,1.6-0.9,2.6c0,1.7,0.8,3.3,2.2,4.2c1.7,1.1,3.9,0.9,5.4-0.3
		c1.8-1.6,2.3-4.3,1.1-6.4C307.7,136.3,306.7,135.5,305.5,135.2"/>
	<path class="st2" d="M322.9,138.6c0,0-9.4-5.8-15-5c-8.3,1.2-9.9,3.5-11.9,7.9c0,0,4.4-5.1,10.2-5.8
		C311.8,135.1,322.9,138.6,322.9,138.6z"/>
	<path class="st2" d="M348.6,130.4c0,0,9.6-9.8,15.2-11.3c8.1-2.1,18.9,0.4,22.4,3.7c0,0-14.4-4-20-2.4
		C360.8,122,348.6,130.4,348.6,130.4z"/>
	<path class="st2" d="M341.6,105.7c0.5,1.9,0.9,3.9,1.4,5.8c0.4,1.5,1.1,4.9,1.5,6.3c4.3-2.4,8.1-5.2,10.9-6.5
		c5.7-2.5,11.4-5.4,17.7-6c2.8-0.3,5.7,0,8.5,0.8c0.9,0.3,3.4,1.8,4.4,1c0.4-0.3-0.9-2.5-1.1-2.7c-2.7-4.4-7.2-5.4-12.5-5.4
		C361.7,99.1,351.6,101.8,341.6,105.7"/>
	<path class="st2" d="M286.6,120.6l3.2-1.6c8.8-4.5,18.2-6.4,28-7.3c0.4,1.9,0.9,3.9,1.3,5.8c0.3,1.5,1,4.1,1.4,5.6
		c-4.6-0.3-8.6-0.9-11.5-0.8c-5.7,0.2-11.8,0.3-17.1,2.6c-0.4,0.2-2.7,1.2-3.1,1.3C286.5,124.1,285.9,121.2,286.6,120.6z"/>
	<path class="st2" d="M360.6,194.7l-22,4.9c0,0,6.5,4.7,11.8,3.5C353.7,202.3,357.8,198.8,360.6,194.7z"/>
	<path d="M336.6,168.8c3,0.6,6.1-0.4,8.3-2.5c0.5-0.5,2.3-0.6,1.7,0.1c-3,2.8-7.2,4-11.3,3.2c-0.3-0.1-0.3-0.4,0-0.6
		C335.6,168.9,336.1,168.8,336.6,168.8"/>
	<path d="M347.4,165.5c1.5-1.1,3.1-2,4.9-2.5c0.3-0.1,0.6-0.1,0.9,0.1c0.2,0.1,0.3,0.3,0.1,0.4c-0.8,0.7-1.7,1.1-2.7,1.3
		c-0.3,0.1-0.7,0.1-1-0.1c-0.2-0.2,0-0.4,0.3-0.5c0.8-0.2,1.6-0.5,2.2-1.1l0.9,0.5c-1.6,0.5-3,1.3-4.3,2.3c-0.3,0.2-0.7,0.2-1,0.1
		C347.3,165.9,347.1,165.7,347.4,165.5"/>
	<path d="M354.5,164c2.1-0.6,4.3-2.1,5-3.9c1-2.8-1.4-6.2-4.3-7.1c-0.3-0.1-0.2-0.4,0-0.5c0.4-0.1,0.8-0.1,1.2,0
		c2.6,0.9,4.5,3.2,5,5.9c0.2,2.2-1.5,4.2-3.8,5.4c-0.7,0.4-1.5,0.7-2.2,0.9c-0.4,0.1-0.8,0.1-1.1-0.1
		C354,164.3,354.2,164.1,354.5,164"/>
	<path d="M332.5,168.7c0-0.2-0.1-0.3-0.2-0.3c0,0-0.1,0-0.1,0c-0.6,0.2-1.2,0.1-1.8-0.2L330,169c1.2-0.2,2.4,0,3.5,0.4
		c0.3,0.1,0.5,0,0.6-0.3c0.1-0.1,0.2-0.4,0-0.5"/>
	<path d="M334.2,168.6c-1.3-0.5-2.6-0.6-4-0.5c-0.2,0-0.4,0.2-0.5,0.4c-0.1,0.1,0,0.3,0.1,0.4"/>
	<path d="M328.2,170c-1.6,0.3-3.3-0.4-4.2-1.7c-1.5-2.2-1.5-5,0-7.2c0.1-0.1,0.1-0.3,0-0.4c-0.1,0-0.1-0.1-0.2-0.1
		c-0.3,0-0.5,0.2-0.7,0.4c-1.2,1.9-1.5,4.2-0.8,6.4c0.6,1.9,2.2,3.2,4.1,3.5c0.5,0.1,1.1,0.1,1.6,0c0.2,0,0.5-0.2,0.6-0.5
		S328.4,170,328.2,170"/>
	<path class="st2" d="M374,171.7c1.5,0.8,3.1,1.8,3.6,3.4c0.2,0.6,0.2,1.2,0.2,1.8v2.9c0,0.2,0,0.4-0.1,0.6
		c-0.1,0.2-0.3,0.3-0.5,0.4c-0.6,0.3-1.2,0.6-1.9,0.6c-0.7,0.1-1.3-0.4-1.5-1c0-0.3-0.1-0.5-0.2-0.8c-0.3-0.4-1-0.2-1.5-0.2
		c-1.3,0-1.9-1.6-2.8-2.6c-1.2-1.4-2.9-2.2-4.7-2.3c-0.9,0-1.8-0.2-2.7-0.4c-0.9-0.2-1.6-0.9-1.9-1.8"/>
	<path class="st2" d="M318.5,183.6c-1,1.4-2,3-1.8,4.6c0.1,0.6,0.3,1.2,0.6,1.7l1.2,2.6c0.1,0.2,0.2,0.3,0.3,0.4
		c0.2,0.1,0.4,0.2,0.6,0.1c0.7,0.1,1.3,0,2-0.2c0.6-0.2,1-0.9,1-1.6c-0.1-0.3-0.1-0.5-0.1-0.8c0.1-0.5,0.8-0.6,1.2-0.9
		c1.2-0.6,1-2.3,1.3-3.6c0.5-1.7,1.7-3.2,3.2-4.1c0.8-0.4,1.6-0.9,2.3-1.5c0.7-0.6,1-1.5,0.9-2.4"/>
	<path class="st2" d="M302.5,56.8c0.9-0.9,2.1-1.6,3.3-2l1.3-0.8c4.1-1,8.3-1.8,12.5-2.5c1-0.2,2.1-0.3,3.1-0.2l0.3,0.1
		c3-0.8,6.1-1.5,9.2-2.2l1.5,0.1c1.3-0.2,2.6-0.1,3.8,0.3c0.7,0.2,1.1,0.9,0.9,1.5c-0.1,0.4-0.3,0.6-0.7,0.8
		c-1.2,0.7-3.2,0.4-3.9,1.3s1.3,1.8,0.9,2.8c-0.2,0.7-1.3,1.1-1.9,1.7s-0.9,1.6-1.6,2.3c-0.9,0.8-2,1.2-3.2,1.1
		c-1.1,0.3-2.8,0.2-3,1.1c0,0.2,0,0.5,0.1,0.7c0.2,1-0.4,2-1.3,2.5c-1,0.6-2.3,0.7-3.4,0.2c-1-0.4-1.4-1.3-2.4-1.7
		c-0.3-0.1-0.7-0.2-1-0.3c-0.3,0.4-0.6,0.6-1,0.9c-1,0.6-2.3,0.7-3.4,0.2c-1-0.4-1.5-1.3-2.4-1.7c-0.8-0.3-2-0.3-2.5-0.9
		c-0.8-0.9,0.7-2.7-0.4-3.4s-2.8,0.6-4.1,0.4c-0.8-0.1-1.4-0.8-1.3-1.6C302.1,57.3,302.2,57,302.5,56.8z"/>
	<path class="st2" d="M366,218.6c-0.8,0.7-1.8,1.2-2.8,1.4l-1.1,0.5c-3.4,0.5-6.8,0.9-10.3,1.2c-0.8,0.1-1.7,0.1-2.5-0.1l-0.2-0.1
		c-2.5,0.4-5,0.8-7.6,1.2l-1.2-0.2c-1.1,0.1-2.1-0.1-3.1-0.5c-0.5-0.2-0.8-0.8-0.6-1.3c0.1-0.3,0.3-0.5,0.6-0.6
		c1-0.5,2.6-0.1,3.2-0.8s-0.9-1.5-0.6-2.3c0.2-0.5,1.1-0.8,1.7-1.2s0.8-1.2,1.4-1.7c0.7-0.6,1.7-0.8,2.6-0.7c1-0.2,2.3,0,2.5-0.7
		c0-0.2,0-0.4,0-0.6c-0.1-0.8,0.4-1.6,1.2-1.9c0.9-0.4,1.9-0.4,2.8,0c0.7,0.4,1.1,1.1,1.9,1.5c0.3,0.1,0.5,0.2,0.8,0.3
		c0.2-0.3,0.5-0.5,0.8-0.6c0.9-0.4,1.9-0.4,2.8,0c0.7,0.4,1.1,1.1,1.9,1.5s1.6,0.4,2,0.9c0.6,0.8-0.8,2.1,0.1,2.8s2.2-0.3,3.3,0
		c0.6,0.2,1,0.8,0.9,1.5C366.3,218.2,366.2,218.4,366,218.6z"/>
	<path class="st20" d="M441.5,103.7c1.3-0.2,2.5-0.7,3.5-1.5c1-0.8,1.3-2.3,0.7-3.5c-1.2-1.7-4.6-1.3-4.8-3.3
		c1.3-2.3,5.3-2.3,5.8-4.9c0.4-2.1-2-3.4-4-4.1c1-1.4,0.9-0.3,2.4-1s1.7-5,0.5-6.2c-1.4-1.4-1.7,0-1.5-2c1.2-0.7-1.9-1.2-1.1-2.4
		c0.9-1.2,0.9-2.8,0-3.9c-1.2-1.2-3.7-1.3-4-2.9c-0.3-1.4,1.5-2.4,2.1-3.7c1.1-2.4-1.5-4.8-3.8-6.1c1.1-0.9,1.9-2.1,2.5-3.3
		c0.6-1.3,0.2-2.9-0.8-3.8c-0.7-0.4-1.5-0.7-2.3-1c-3.1-1.6-2.4-6.2-1.1-9.5c-2.5,0.7-5.1-0.6-6-3c-0.4-1.1-0.4-2.3-1-3.3
		s-2.3-1.4-2.9-0.4"/>
	<path class="st2" d="M441.7,104.4c1.7-0.3,3.2-1,4.6-2c1.2-0.9,1.6-2.4,1.2-3.8c-0.6-1-1.6-1.7-2.7-1.9c-0.6-0.2-2.5-0.7-2.1-1.7
		s2.1-1.4,2.9-1.8c1.1-0.5,2-1.3,2.6-2.2c1.4-2.7-2-4.6-4.1-5.3l0.2,0.7c0.8-1-2.3,0.1-0.7,0.1c0.3,0,0.7-0.1,1-0.1
		c0.8-0.2,1.6-0.5,2.2-1c0.9-0.8,1.4-1.9,1.4-3.1c0.2-1.2-0.1-2.3-0.7-3.3c-0.3-0.5-0.8-0.8-1.3-1.1c-0.2-0.1-0.6-0.2-0.5-0.1
		c0.2,0.3,0.2-0.6,0.2-0.7l-0.6,0.6c0.6-0.4,1.3-0.9,0.6-1.6c-0.4-0.4-1.2-0.6-1.2-1.2c0-0.2,0.4-0.6,0.5-0.8c0.1-0.3,0.2-0.7,0.3-1
		c0.1-0.6,0-1.3-0.2-1.9c-0.6-1-1.5-1.7-2.5-2c-1-0.4-2.2-1-1.8-2.3s1.6-1.9,2.1-3c1.1-2.8-1.9-5.1-4-6.3V58c1.4-1.4,2.8-3,2.9-5
		s-1.4-2.9-3.2-3.6c-3.6-1.5-2.4-6.5-1.3-9.3c0.3-0.8-1.5-0.5-1.8-0.5c-1.2,0.3-2.7-0.6-3.5-1.5c-1-1.2-0.9-2.7-1.5-4.1
		c-1-2.3-4.7-2.5-6.1-0.4c-0.7,1,2.4,0.7,2.9,0c-1.1,0-1.4,0.1-0.9,0.3c0.1,0,0.2,0.1,0.3,0.2c0.2,0.3,0.5,0.4,0.6,0.7
		c0.3,0.6,0.4,1.2,0.5,1.9c0.2,1.2,0.8,2.2,1.6,3.1c1.8,1.6,4.2,2.1,6.5,1.4l-1.8-0.5c-1,2.7-2,6.7,0.2,9.1c1.2,1.3,3.5,1.1,4.2,2.9
		c0.8,2.2-1,4.1-2.4,5.5c-0.1,0.1-0.2,0.5,0,0.6c1.5,0.9,3.2,2.1,3.8,3.7s-0.7,2.7-1.6,4c-0.8,0.9-0.7,2.3,0.2,3.1c0,0,0,0,0.1,0.1
		c1,0.8,2.6,0.9,3.4,2c0.5,0.7,0.6,1.7,0.2,2.5c-0.2,0.5-0.7,1-0.6,1.6c0.1,0.4,0.4,0.7,0.7,0.9c0.1,0.1,0.7,0.6,0.8,0.6
		s0.7-0.6,0.2-0.3c-0.1,0.1-0.3,0.2-0.4,0.3c-0.1,0.3-0.2,0.6-0.2,0.9c0,0.5,0,0.7,0.5,0.9s0.6,0.1,1.1,0.5c0.4,0.4,0.6,0.9,0.7,1.5
		c0.2,0.7,0.2,1.5,0,2.3c-0.1,0.6-0.4,1.2-0.6,1.7c0,0,1.3-0.2,0.1-0.2c-0.5,0-0.9,0.1-1.4,0.3c-0.7,0.3-1.3,0.7-1.7,1.3
		c-0.2,0.3-0.2,0.6,0.2,0.7c1.6,0.6,5.2,2.5,3.2,4.7c-0.7,0.6-1.5,1.1-2.4,1.4c-1,0.4-1.8,1.1-2.5,1.8c-1.4,1.8,1.5,2.8,2.7,3.2
		s2.2,1,2,2.4c-0.2,1.7-1.8,2.1-3.1,2.5c-0.4,0.1-1.6,0.5-1.4,1.1S441.3,104.5,441.7,104.4L441.7,104.4z"/>
	<path class="st21" d="M427.8,38.9c-0.6-1.5-3.5-8.4-4.1-9.9c-1.7,0.9-3.8,0.3-4.7-1.4c-0.1-0.2-0.2-0.4-0.3-0.6
		c-0.3-1-0.2-2.4-1.1-2.8s-2,0.6-3,0.7c-2.4,0.4-3.4-3.4-5.8-3.8c-1.5-0.2-2.9,1-4.4,0.8c-2.2-0.3-3.2-3.4-5.4-3.8
		c-1.5-0.3-3,0.7-4.6,0.6c-3.4-0.2-5.1-5.6-8.4-5c-1.2,0.2-2.2,1.3-3.4,1.4c-2.2,0.2,0.6-2.7-1.6-2.6c-2,0.1-3.2,2.5-5.1,3.1
		c-3.2,1-6.8-3.1-9.5-1.3c-1.2,0.8-1.6,2.4-2.8,3.2c-2.7,2-6.6-1.7-9.7-0.3c-1.5,0.7-2.4,2.5-3.9,3c-2.5,0.8-5-1.9-7.5-1.2
		c-2,0.5-3,3.1-5.1,3.4c-1.4,0.2-2.8-0.8-4.3-0.7c-2.5,0.1-3.7,3.1-6,4.1c-1.9,0.8-4.1,0-6.1,0s-5.7,4.6-5.3,6.7"/>
	<path class="st2" d="M429.4,38.5c-1.4-3.3-2.7-6.6-4.1-9.9c-0.3-0.8-2.1-0.1-2.5,0.1s-1.9-0.9-2.2-1.4c-0.6-1-0.3-2.3-1-3.2
		s-2.1-0.8-3.1-0.5c-0.6,0.2-1.2,0.4-1.8,0.7c0.3-0.1,0.4,0.1,0.2-0.1s-0.6-0.3-0.9-0.5c-1.5-1.3-2.5-3.1-4.6-3.2
		c-1.4-0.1-2.4,0.6-3.7,0.8c-1.1,0.1-2-1-2.6-1.7c-0.6-0.8-1.4-1.4-2.2-1.8c-1.3-0.4-2.6-0.4-3.9,0c-1.2,0.3-1.9,0.5-3-0.2
		c-0.8-0.6-1.6-1.3-2.2-2c-1.3-1.4-2.6-2.5-4.6-2.5c-1.3,0.1-2.5,0.5-3.6,1.1l-0.2,0.1c-0.4,0.1-0.4,0.2-0.1,0.3c0,0.1,0-0.2,0-0.2
		c0.1-0.3,0.1-0.6,0.1-0.8c0.3-2.2-2.7-1.5-3.9-1c-1,0.5-1.9,1.1-2.7,1.9c-0.4,0.4-0.8,0.7-1.3,1c0.3-0.1-0.2,0-0.3-0.1
		c-0.4-0.1-0.7-0.1-1.1-0.2c-2.1-0.7-4-1.9-6.3-1.6c-2.6,0.3-4,2-5.3,4l-0.3,0.2c0.2,0,0.2,0,0,0c-0.2,0-0.4,0-0.5-0.1
		c-0.5-0.1-1-0.2-1.5-0.4c-1.1-0.4-2.2-0.6-3.4-0.8c-2.4-0.2-4.8,0.8-6.4,2.7c-0.3,0.3-0.7,0.8-1,0.8c-0.6-0.1-1.3-0.3-1.9-0.6
		c-1.1-0.5-2.4-0.8-3.6-0.9c-2.7,0-4.2,1.5-6.1,3.2c-0.6,0.5-0.8,0.3-1.7,0c-0.7-0.2-1.4-0.4-2.2-0.4c-1.3,0-2.7,0.4-3.8,1.1
		c-1,0.7-1.9,1.5-2.7,2.4c-0.4,0.5-1,0.8-1.6,1c-0.9,0-1.9-0.1-2.8-0.3c-2.4-0.4-4.9,0.4-6.6,2.3c-1.3,1.3-2.9,3.4-2.7,5.4
		c0.1,0.8,3.3,0.1,3.2-0.8c-0.2-1.8,1.4-3.8,2.6-4.9c0.3-0.3,0.6-0.5,0.9-0.7c-0.4,0.2-0.5,0,0.1,0.2c0.3,0.1,0.6,0.1,0.9,0.1
		c1.5,0.3,3.1,0.3,4.7,0c2.6-0.6,3.8-2.4,5.8-3.9c0.5-0.4,0.5-0.3,1.2-0.1s1.2,0.4,1.8,0.5c1.3,0.2,2.6,0,3.8-0.5
		c0.9-0.5,1.8-1.1,2.5-1.9c0.3-0.3,0.8-0.9,1.2-1c0.5,0,1,0.2,1.5,0.4c2.4,0.9,4.6,1.6,7.1,0.4c1-0.5,1.8-1.2,2.5-2.1
		c0.2-0.2,0.6-0.7,0.9-0.8c0.6,0,1.2,0.1,1.8,0.3c2.2,0.6,4.2,1.3,6.5,0.6c1.1-0.3,2-0.9,2.8-1.7c0.4-0.4,0.6-0.9,0.9-1.4
		c0.1-0.2,0.3-0.4,0.4-0.5c0.1-0.2,0.3-0.3,0.5-0.4c-0.3,0.1-0.4,0.1-0.1,0.1c2.1,0.3,3.9,1.7,6.1,1.9c2.5,0.2,4.4-1.1,6.2-2.6
		c0.3-0.2,0.5-0.4,0.8-0.6l0.1-0.1c0.3-0.1,0.1-0.1-0.4,0c0.1-0.1,0.1,0.6,0.1,0.6c0,0.5-0.4,1.1,0,1.6c0.4,0.5,1.7,0.4,2.4,0.2
		c0.7-0.1,1.3-0.3,1.9-0.6c0.3-0.1,0.5-0.3,0.8-0.4s0.3-0.2,0.5-0.3c-0.2,0-0.2,0,0,0c1.6,0.1,3.1,2.5,4.3,3.5
		c1.6,1.4,3.7,1.9,5.7,1.3c1.4-0.3,2.1-0.6,3.2,0.4c0.8,0.7,1.4,1.6,2.2,2.2c1,0.7,2.3,1,3.5,0.8c1.3-0.2,2.5-1.2,3.7-0.3
		c1.8,1.2,2.6,3.4,5.1,3.4c0.8,0,1.5-0.2,2.2-0.5c0.2-0.1,0.5-0.2,0.7-0.3c0.5-0.2,0.4-0.2-0.2,0c0.1,0.1,0.3,0.3,0.3,0.4
		c0.6,1,0.3,2.3,1.1,3.2c1.6,2.1,4.9,1.9,6.9,0.7l-2.5,0.1c1.4,3.3,2.7,6.6,4.1,9.9C426.6,40.2,429.7,39.2,429.4,38.5L429.4,38.5z"
		/>
	<path class="st22" d="M315.6,29.9c-2.7,1.4-5.8,1.6-8.6,0.7c0.5,2.6-1.2,5-3.8,5.5c-0.2,0-0.3,0.1-0.5,0.1c-1-0.1-2.1-0.2-3.1-0.1
		c-3.5,0.6-4.8,6.8-8.3,6c1.7,0.8,0.9,3.5-0.5,4.6s-3.4,2-3.9,3.8c-0.2,0.6-0.1,1.3-0.3,1.9c-0.3,0.8-0.9,1.4-1.5,1.9
		c-2.4,2.4-4.2,5.4-5.1,8.7c-1.7,5.6-2.8,10.4,0.3,23.3c-3.9-15.4,2-18.9,5-24c2.6-4.4,8.5-6.4,12.5-9.5s8.7-4.8,13.4-6.4
		c14.5-4.7,29.1-15.5,44.2-17.8c12.8-2,23.3-4.5,36.1-2.2s18.3,5.5,26.4,15.6c0,0-19-22.8-35.4-22.5s-42.6,8.3-42.6,8.3L315.6,29.9z
		"/>
	<path class="st2" d="M314.9,28.9c-2.2,1.1-4.7,1.3-7,0.6c-0.9-0.3-2.7,0.2-2.5,1.5c0.3,1.6-0.6,3.8-2.4,4c-1.1,0.1-2.3-0.3-3.5-0.1
		c-0.8,0.2-1.6,0.5-2.3,1c-1.2,0.9-2.2,1.9-3,3.1c-0.5,0.7-1.4,2.1-2.4,2s-3.2,1.2-1.8,2.1s0.1,2.7-0.8,3.3c-1.3,1-2.9,1.9-3.7,3.4
		c-0.3,0.8-0.4,1.6-0.5,2.5c-0.3,0.9-1.2,1.6-1.9,2.3c-1.3,1.4-2.4,3-3.3,4.7c-2.3,4.6-3.4,9.8-3.2,15c0.3,4.2,0.9,8.4,2,12.4
		l3.2-0.8c-1.2-4.7-2-9.9-0.4-14.6c1-2.8,2.8-5,4.4-7.4c1.1-1.8,2.5-3.5,4.2-4.8c2.1-1.6,4.5-2.8,6.7-4.2c2.5-1.6,4.7-3.4,7.5-4.7
		c3-1.4,6.1-2.3,9.1-3.4c12.1-4.4,23-11.7,35.3-15.5c3.1-0.9,6.2-1.6,9.3-2c3.4-0.5,6.7-1.1,10.1-1.6c6.7-1.1,13.6-1.3,20.3-0.5
		c5.5,0.8,11.3,2,16.2,4.8c4.7,2.7,8.4,6.6,11.7,10.9l2.9-1.4c-4-4.7-8.5-9-13.4-12.9c-3.8-3.1-8.1-5.8-12.6-7.8
		c-4.4-1.9-9.1-2.6-13.9-2.2c-10.6,0.7-21.1,3.1-31.3,5.8c-2.8,0.7-5.6,1.4-8.3,2.3c-0.4,0.1-0.5,0,0.1,0c-0.2,0-0.4,0-0.6,0.1
		l-3.4,0.3l-20.2,1.7c-0.7,0.1-1.7,0.5-1.7,1.3s0.8,1.1,1.5,1l17.4-1.5c2.2-0.2,4.5-0.3,6.8-0.6c1.8-0.4,3.5-0.8,5.2-1.4
		c9.5-2.8,19.3-4.8,29.1-6.2c4.6-0.6,9.4-1.1,14,0.2c4.6,1.5,8.9,3.7,12.7,6.6c5.9,4.2,11.2,9.1,15.8,14.6c0.9,1.1,3.9-0.1,2.9-1.4
		c-3.1-4-6.6-7.8-11-10.6c-4.2-2.5-8.9-4.2-13.8-5.1c-6.8-1.4-13.7-1.8-20.6-1.1c-3.5,0.3-7,0.9-10.5,1.4s-7,1-10.5,1.7
		c-13.4,2.7-25,10.6-37.4,15.7c-6,2.5-12.5,3.9-17.8,7.7c-2.4,1.7-4.8,3.2-7.3,4.8c-2.4,1.3-4.4,3.1-6.1,5.2c-2,2.8-4.3,5.6-5.6,8.8
		c-2.2,5.3-1.4,11.3,0,16.7c0.4,1.5,3.5,0.7,3.2-0.8c-1.5-6.2-2.7-12.7-1.4-19c0.5-2.8,1.5-5.6,2.9-8.1c1.1-1.6,2.4-3.2,3.8-4.6
		c0.5-0.6,0.9-1.3,1.1-2.1c0.2-1,0.1-1.8,1-2.6c1.4-1.4,3.2-2,4.1-3.9c0.7-1.5,0.7-3.4-0.9-4.3l-1.8,2.1c1.9,0.2,3.8-0.5,5-2
		c1.1-1.2,2-3,3.4-3.8c1-0.6,2.3,0,3.4-0.1c1.2-0.1,2.4-0.5,3.4-1.2c2-1.3,3-3.7,2.6-6l-2.5,1.5c3.4,1,7.1,0.7,10.3-0.8
		c0.6-0.3,1.2-1,0.7-1.6S315.5,28.6,314.9,28.9z"/>
	<path class="st20" d="M318.2,203.1c1.4,3,3.2,5.7,5.4,8.2c-1.1,0.6-0.3,2.3,0.8,2.9s2.5,1.3,2.5,2.5c0,0.4-0.2,0.8-0.2,1.3
		c0,1.4,1.8,1.9,3.1,1.9c-0.8,0.8,0.3,2.1,1.3,2.6s2.3,1.2,2.2,2.3c0,0.6-0.5,1.1-0.3,1.6c0.2,1.1,2.1,0.8,2.9,1.6
		c0.5,0.5,0.5,1.2,0.7,1.9c0.6,1,1.9,1.4,2.9,0.9c0.2-0.1,0.3-0.2,0.5-0.4c0.7,2.2,2.2,5,4.5,4.5c1.4-0.3,2.5-2,4-1.6
		c0.9,0.2,1.4,1.1,2.3,1.5c2.8,1.1,5-4.7,7.8-3.6c1.5,0.6,1.9,3,3.5,3.2s2.5-1.7,4-2.1s3.6,0.8,4.9-0.2c0.6-0.4,0.8-1.2,1.2-1.8
		c1-1.3,2.6,0.1,4.3,0.3c3,0.3,2.8-1.7,2.8-1.7c0.5-2.1,1.6-2.2,3.6-1.5c0.6,0.3,1.3,0.5,2.1,0.6c1.8-0.2,2-3.2,3.8-3.4
		c0.6,0.1,1.3,0.2,1.9,0.5c2.3,0.6,4.3-2.7,2.8-4.5c2.7-0.6,4.3-3.2,3.7-5.9c0-0.1,0-0.1,0-0.2c2.5,0.2,4.6-1.7,4.8-4.1
		c0-0.2,0-0.5,0-0.7c3,0.2,5.4-3.7,3.8-6.3c1.9,0.2,3.7-1.2,3.9-3.1c0-0.3,0-0.6,0-0.9c-0.2-1.1-1-2.4-0.2-3.2
		c0.5-0.5,1.4-0.4,2.1-0.5c1.5-0.4,2.4-2,1.9-3.5c-0.1-0.3-0.2-0.5-0.3-0.7c3,0.2,4.9-4.3,2.7-6.3c2.3,0.1,3.8-3.4,2.1-5
		c3.1-0.7,4.4-5.2,2.1-7.4l-28.7,43.3l-8.4,5.9c0,0-32,9.1-38.6,7.5S318.2,203.1,318.2,203.1z"/>
	<path class="st2" d="M316.7,203.6c1.4,3,3.3,5.8,5.5,8.3l0.3-0.6c-0.8,0.5-1.1,1.5-0.6,2.3c0.1,0.1,0.1,0.2,0.2,0.3
		c0.7,1.1,2,1.3,2.8,2.2c1,1.1-0.3,2.4,0.7,3.5c0.9,0.7,2,1.1,3.2,1.1l-0.5-0.4c-1.3,2,2,2.9,3,3.9s-0.1,1.7,0.1,2.8
		c0.2,0.7,0.9,0.9,1.5,1.1c1,0.3,1.5,0.5,1.9,1.5c0.1,0.8,0.6,1.5,1.4,1.9c1.8,0.6,3.9,0.2,5.3-1.1l-3,0.5c0.8,2.6,2.4,5.2,5.5,4.7
		c0.8-0.1,1.5-0.4,2.2-0.7c0.3-0.2,0.6-0.3,0.9-0.5c0.3-0.2,1.4-0.8,0.5-0.5c-0.7,0.2-0.3,0,0,0.3c0.1,0.1,0.3,0.2,0.4,0.3
		c0.3,0.2,0.5,0.4,0.8,0.6c0.5,0.3,1.1,0.5,1.6,0.5c2.6,0.1,4.3-1.5,6.1-3.1c0.1-0.1,1.1-0.7,1.1-0.9c0,0.3-0.8-0.1-0.7,0.2
		c0,0,0.3,0.1,0.3,0.1c0.3,0.2,0.6,0.5,0.8,0.7c0.7,0.9,1.2,2.1,2.4,2.4c1.4,0.3,2.9,0,4.1-0.9c0.6-0.3,1.1-0.8,1.6-1.3
		c0.2-0.3,0,0-0.2,0c0.2,0,0.4,0,0.5,0.1c0.4,0.1,0.8,0.1,1.2,0.2c1.5,0.3,3.1-0.1,4.4-0.9c0.4-0.3,1.3-1.1,1.3-1.7s-0.6,0.4-0.8,0
		c0.2,0.1,0.3,0.1,0.5,0.1c0.5,0.1,1,0.4,1.5,0.5c1.8,0.4,5.6,0.2,6.2-2.1c0-0.2,0-0.4,0.1-0.6c0.1-0.3,0.1-0.5,0.3-0.8
		c0.1-0.1,0.1-0.2,0.2-0.3c0-0.4-1,0.4-1,0.3c0.7,0.3,1.4,0.5,2.1,0.7c0.9,0.3,1.8,0.4,2.7,0.1c1.3-0.3,2.5-1.1,3.2-2.3
		c0.2-0.3,0.3-0.5,0.5-0.8c0.1-0.1,0.2-0.2,0.2-0.4c0.3-0.3,0-0.2-0.8,0.2l0.4,0.1c0.7,0.3,1.4,0.4,2.2,0.3c2.4-0.2,6.4-2.8,4.3-5.6
		l-1.9,1c3.3-0.7,6.6-3.4,5.5-7.1l-2.6,1.1c3.4,0.3,7.8-2,7.4-5.9l-2.6,1.1c2.1,0.1,4.2-0.7,5.7-2.3c1.3-1.4,1.6-3.4,0.7-5.1
		l-2.6,1.1c1.9,0.2,3.8-0.4,5.2-1.7c0.6-0.6,1.1-1.4,1.2-2.2c0-0.9-0.1-1.8-0.5-2.7c0-0.2,0-0.6-0.1-0.7s0-0.3-0.2-0.3
		s-0.3,0-0.1-0.1c0.5-0.1,0.9-0.2,1.4-0.2c0.8-0.2,1.6-0.6,2.3-1.1c1.2-1,1.4-2.7,0.7-4l-2.6,1.1c2.1,0.1,4.2-0.8,5.5-2.6
		c1.1-1.5,1-3.6-0.3-5l-2.2,1.2c1.8,0,3.4-0.8,4.5-2.2c0.9-1.2,0.8-2.9-0.3-4l-1.4,1.1c1.9-0.4,3.6-1.7,4.4-3.5
		c0.7-1.7,0.4-3.6-0.8-5c-0.6-0.6-2.7,0.2-3,0.8l-13.1,19.8l-9.7,14.6c-1.9,2.8-3.9,5.6-5.6,8.5c-0.4,0.7,0,0,0.1,0.1
		c-0.7,0.4-1.4,0.9-2,1.4l-3.7,2.6c-0.9,0.5-1.7,1.1-2.5,1.7c-0.4,0.4,1-0.3,0.9-0.3c-0.1,0-0.3,0.1-0.4,0.1l-1.9,0.5
		c-2.3,0.6-4.5,1.2-6.8,1.8c-6.2,1.6-12.4,3.1-18.8,4.2c-2.4,0.5-4.9,0.8-7.4,0.9c-1.7,0-3.3-0.5-4.6-1.5c-4.9-3.4-9-8.1-12.9-12.5
		c-3.3-3.7-6.6-7.6-9.7-11.5l-0.5-0.6c-0.5-0.6-3.5,0.4-3,1.1c2.4,3,4.8,5.9,7.3,8.8c4.1,5.1,8.7,9.8,13.6,14.1
		c1.5,1.3,3.2,2.7,5.2,3.2c2.1,0.4,4.2,0.4,6.3,0c6.5-0.8,12.9-2.1,19.2-3.7c4.7-1.1,9.3-2.3,13.9-3.6c1.3-0.5,2.5-1.1,3.5-2
		c2.1-1.5,4.2-2.9,6.3-4.5c0.5-0.4,1-1,1.3-1.6l2.8-4.1l9.1-13.7l15.9-23.9l0.3-0.4l-3,0.8c0.9,1,1.2,2.3,0.9,3.6
		c-0.2,0.9-0.8,2.5-1.7,2.8c-0.2,0.1-1.8,0.6-1.4,1.1c0.5,0.6,0.8,1.4,0.6,2.2c-0.1,0.4-0.2,0.7-0.4,1c-0.1,0.2-0.2,0.3-0.3,0.5
		c-0.2,0.4-0.6,0.1,0.2,0.1c-0.4,0-2.8,0.6-2.2,1.2c0.7,0.8,1,1.9,0.8,2.9c-0.1,0.5-0.3,0.9-0.5,1.4c-0.2,0.2-0.3,0.4-0.5,0.6
		c-0.3,0.4-0.7,0.1,0.1,0.2c-0.3,0-3,0.5-2.6,1.1c0.7,1,0.6,2.4-0.3,3.2h0.3c-0.2,0-0.5,0-0.7,0.1c-0.3,0-0.6,0.1-0.9,0.2
		c-0.7,0.2-1.3,0.5-1.9,0.9c-1,0.9-0.5,2.1-0.2,3.3c0.2,0.7,0.2,1.5-0.1,2.2c-0.1,0.3-0.3,0.6-0.5,0.8c-0.1,0.1-0.3,0.3-0.4,0.4
		c0.4,0,0.4-0.1,0-0.1s-3,0.5-2.6,1.1c0.6,0.9,0.7,2.1,0.3,3.1c-0.2,0.6-1.1,2.1-1.5,2.1s-2.7,0.3-2.6,1.1c0.1,1.1-0.6,3.9-2.2,3.8
		c-0.4,0-2.8,0.3-2.6,1.1c0.3,1,0.2,2-0.2,2.9c-0.3,0.6-1,2-1.6,2.1c-0.1,0-2.2,0.6-1.9,1c0.7,0.9,0.7,2.2,0,3.1
		c0,0-0.5,0.6-0.6,0.6l0.7-0.2c-0.2-0.1-0.5-0.2-0.8-0.2c-0.7-0.2-1.4-0.3-2.1-0.2c-1.2,0.1-2.3,0.7-3.1,1.6
		c-0.3,0.3-0.5,0.7-0.7,1.1s-0.3,0.5-0.5,0.7c-0.1,0.1-0.2,0.2-0.3,0.3c1.1-0.2,1.3-0.4,0.6-0.5c-1.7-1.3-5.5-1-6.8,0.7
		c-0.3,0.5-0.5,1.1-0.6,1.7c0,0.1-0.3,0.8-0.4,0.7l0.5-0.3c-0.3,0-0.6-0.1-0.9-0.1c-0.4-0.1-0.7-0.2-1.1-0.4
		c-1.3-0.5-2.8-0.4-4.1,0.2c-0.5,0.2-0.9,0.6-1.3,1.1c-0.2,0.2-0.4,0.5-0.5,0.8c-0.4,0.4-0.2,0.5,0.4,0.3c-0.2,0-0.5,0-0.7-0.1
		c-1.3-0.3-2.7-0.2-4,0.1c-0.6,0.2-1.2,0.5-1.7,0.8c-0.3,0.2-1.7,1.1-1.8,1.4l0.9-0.2c-0.2-0.1-0.3-0.2-0.5-0.3
		c-0.2-0.2-0.4-0.4-0.6-0.7c-0.3-0.3-0.5-0.7-0.8-1c-0.7-0.9-1.7-1.4-2.9-1.3c-2.2,0.1-3.8,1.4-5.4,2.9c-0.3,0.2-1.2,0.8-1.3,1.1
		l-0.1,0.1c0.8-0.1,1-0.1,0.6-0.2c-0.4-0.3-0.7-0.5-1.1-0.8c-1.2-0.9-2.7-1.1-4.1-0.5c-0.7,0.3-1.4,0.6-2,1.1
		c-0.2,0.1-0.4,0.2-0.5,0.4c-0.4,0.2-0.4,0.2,0.2,0c-0.2-0.1-0.4-0.1-0.6-0.3c-1.4-0.8-2-2.6-2.5-4c-0.3-0.8-2.7,0.2-3,0.5
		c0.8,0,1-0.1,0.5-0.2c-0.1-0.1-0.3-0.1-0.4-0.2c-0.3-0.2-0.5-0.4-0.6-0.8c-0.2-0.6-0.2-1.3-0.8-1.8c-0.7-0.7-2.4-0.5-2.8-1.4
		c-0.2-0.6,0.4-1.4,0.3-2c-0.1-0.5-0.4-1-0.9-1.3c-0.9-0.7-3.6-1.6-2.6-3.2c0.2-0.3-0.4-0.4-0.5-0.4c-0.8-0.1-2.1-0.3-2.4-1.2
		s0.5-1.9-0.3-2.9c-0.6-0.6-1.2-1.1-2-1.5c-0.4-0.3-2-1.8-1.2-2.4c0.2-0.1,0.5-0.4,0.3-0.6c-2.1-2.4-3.9-5.1-5.3-8
		C319.4,201.9,316.4,203,316.7,203.6z"/>
	<path class="st2" d="M373.9,169.1c-0.9-0.8-2.1-1.3-3.4-1.4c-0.3,0-0.7,0-1,0c-0.4,0.1-0.8,0.2-1.1,0.2c-0.3-0.1-0.8-0.8-1.1-1.1
		c-1-0.7-2.3-1-3.5-0.7c-0.6,0.1-1.1,0.4-1.6,0.8c-0.2,0.2-0.5,0.3-0.7,0.5c-0.3,0.2-0.4,0.3-0.1,0.1c0.2-0.1,0.1-0.1-0.2-0.2
		c-0.9-0.6-2-0.8-3-0.6c-0.7,0.1-1.3,0.4-1.8,0.8c-0.2,0.2-0.4,0.3-0.6,0.6c-0.3,0.3-0.3,0.3,0.1,0c0.4-0.1,0.4-0.2,0.1-0.3
		c-0.5-0.5-1-0.8-1.6-1.1c-0.5-0.3-1.1-0.4-1.6-0.4c-0.7,0-1.3,0.2-1.9,0.4c-0.3,0.2-0.7,0.3-1,0.6l-0.3,0.2c-0.4,0.2-0.3,0.2,0.1,0
		c-0.8-0.8-3.8,0.4-2.9,1.2c0.9,0.7,2.2,0.9,3.3,0.4c0.6-0.2,1.2-0.5,1.8-0.9c0.5-0.3,0-0.1,0.2,0s0.5,0.3,0.8,0.5
		c1,0.8,2.3,1.1,3.5,0.9c0.6-0.1,1.2-0.4,1.7-0.8c0-0.1,0.6-0.4,0.5-0.6c-0.7,0-0.9,0.1-0.6,0.2l0.4,0.2c1,0.5,2.1,0.7,3.2,0.5
		c0.6-0.1,1.2-0.4,1.8-0.8c0.2-0.2,0.5-0.3,0.7-0.5c0.3-0.2,0.3-0.2,0-0.2s-0.2,0,0,0.1s0.6,0.3,0.8,0.5s0.4,0.5,0.7,0.7
		c0.4,0.3,0.9,0.5,1.4,0.6c0.6,0,1.2-0.1,1.9-0.2c0.8-0.1,1.5,0.2,2.1,0.7c0.9,0.7,3.8-0.5,2.9-1.3L373.9,169.1z"/>
	<path class="st2" d="M336.7,171.2c-1.2-0.2-2.4,0.2-3.3,1c-0.5,0.4-1.3,1.3-1.8,1.4c-0.7,0.1-1.4,0.3-2,0.5
		c-0.6,0.3-1.1,0.8-1.4,1.4l-0.1,0.3c0.7-0.2,0.9-0.3,0.5-0.3c-0.2-0.1-0.5-0.2-0.7-0.2c-0.7-0.2-1.4-0.3-2.2-0.2
		c-1.3,0.2-2.3,1.1-2.5,2.4c-0.1,0.2-0.2,0.4-0.2,0.6c0,0,0.3,0,0,0c-0.6,0-1.3,0.1-1.9,0.3c-0.7,0.2-1.3,0.6-1.8,1.1
		c-0.3,0.3-0.8,1.2-0.6,1.7c0,0.3,0.1,0.2,0.4-0.1c0.1,0,0.1,0-0.1,0c-0.3,0.1-0.6,0.2-0.9,0.4c-0.5,0.3-1,0.7-1,1.3
		c0,0.8,0.8,1,1.4,0.9s1.8-0.5,1.8-1.2c0,0.5-1,0.6-0.5,0.5c0.3-0.1,0.6-0.2,0.9-0.4c0.5-0.2,0.9-0.7,1-1.2c0.1-0.3,0.1-0.6,0.1-0.9
		c0-0.4,0.1-0.1-0.2-0.1c0.4-0.1,0.9-0.1,1.3-0.2c1.2-0.1,2.3-0.8,3-1.8c0.2-0.4,0.3-0.8,0.4-1.2c0-0.1,0.1-0.2,0.2-0.4l-1,0.4
		c0.3,0.1,0.5,0.2,0.8,0.2c1.2,0.4,2.5,0.3,3.7-0.3c0.4-0.3,0.8-0.7,1.1-1.1l0.1-0.2c0.2-0.3,0.1-0.3-0.4,0c0.2,0,0.5,0,0.7-0.1
		c1-0.2,2-0.6,2.8-1.3c0.4-0.3,0.7-0.6,1-0.9l0.3-0.2c0,0.1-0.8,0-0.2,0.1c0.8,0.1,1.6-0.3,2.1-0.9
		C337.9,171.7,337.3,171.3,336.7,171.2L336.7,171.2z"/>
	<path class="st23" d="M418.8,113.9c-3.8-2.6-0.9-9.4-4.1-12.7c-0.8-0.7-1.6-1.4-2.4-2.1c-1.8-2.4-0.1-6.1-1.7-8.7
		c-0.7-1.1-2-1.8-2.7-3c-1.2-2.3,0.6-5.1-0.1-7.6c-0.8-2.8-4.6-4.5-4-7.3c0.3-1.4,1.6-2.4,1.8-3.8c0.4-2.4-2.8-4.9-1.3-6.9
		c0.5-0.7,1.4-1,1.8-1.8c0.7-1.5-1.2-2.9-2.2-4.3s-0.8-3.4-1.4-5.1s-2.5-3.3-3.9-2.3c0.4-2.9-2.6-10-5.4-9.2c-1.4,0.4-3.1,1.5-4,0.4
		c-0.7-0.8-0.3-2.1-0.9-2.9c-1.5-2.1-4.9,2.1-7.2,0.9c-0.6-0.3-1-1-1.6-1.4c-1.3-1-3.1-0.5-4.6,0.2s-1-1.4-2.6-1.4s-3.5-2.8-2.7-4.2
		c-1.4,1.2-5.1,4.1-6.9,4.6s-4.7-2.7-5.5-4.4c0,2.7-2.9,9.7-4.9,8c-0.8-0.7-1.5-1.8-2.6-1.8c-0.5,0.1-0.9,0.3-1.3,0.6
		c-1.7,1.4-3.1,7.5-3.8,9.6l-1.3-11.7L374.7,25l34.1,9.7l11.6,33.1l-2.5,48.6"/>
	<path class="st2" d="M420,113c-1.9-1.4-1.8-4.1-2-6.2c-0.1-2.3-0.4-4.7-2.1-6.4c-1-1-2.4-1.6-2.8-3.2c-0.2-1.4-0.3-2.8-0.2-4.2
		c0-1.2-0.4-2.5-1.1-3.5c-0.9-1.2-2.4-1.9-2.7-3.4c-0.2-1.3,0.2-2.8,0.4-4.1c0.2-1.3-0.1-2.7-0.8-3.8c-1-1.6-3.9-3.5-3.4-5.7
		c0.3-1.3,1.5-2.2,1.8-3.4c0.2-1.2,0-2.5-0.7-3.6c-0.4-0.8-1.2-2.1-0.9-3c0.2-0.5,0.6-0.7,1-1c0.6-0.5,1.1-1.1,1.3-1.8
		c0.3-1.4-0.7-2.5-1.6-3.5c-1.2-1.4-1.5-2.9-1.8-4.7c-0.5-3-3.4-5.8-6.5-4l2.3,0.8c0.3-2.7-1-5.8-2.5-7.9c-0.7-1.1-1.7-1.9-2.9-2.2
		c-0.6-0.2-1.3-0.2-1.9,0c-0.5,0.1-1.9,1-2.3,0.8s-0.5-2-0.7-2.5c-0.3-0.6-0.8-1.1-1.5-1.3c-1.4-0.5-2.8,0.1-4.1,0.7
		c-0.5,0.3-1.1,0.5-1.7,0.8c-0.7,0.2-0.9-0.2-1.4-0.7c-1.4-1.3-3.5-1.8-5.3-1.1c-0.5,0.1-1,0.3-1.5,0.5c-1.1,0.7,1,0,0.8,0.3
		c-0.1-0.1-0.2-0.2-0.2-0.3c-0.3-0.6-0.8-1-1.4-1.3c-0.8-0.3-1.3-0.2-1.9-0.9c-0.4-0.5-1-1.5-0.7-2.1c0.6-1.5-1.8-1.5-2.5-0.9
		c-1.8,1.6-3.7,3-5.8,4.1c-0.1,0.1-0.2,0.1-0.4,0.1c0.4,0-0.1-0.1-0.2-0.2c-0.5-0.3-1-0.6-1.4-1c-0.9-0.8-1.6-1.8-2.2-2.8
		c-0.5-1.1-3-0.3-3,0.8c-0.1,2.1-0.8,4.2-1.9,5.9c-0.2,0.3-0.7,0.7-0.7,1s-0.2-0.1,0,0.1h0.6l-0.1-0.1c-0.1-0.3-1.1-1.2-1.5-1.4
		c-0.5-0.4-1.2-0.6-1.8-0.6c-2.7-0.1-4.2,2.3-5,4.5s-1.4,4.5-2.1,6.7l3.1-0.2l-1.3-11.7l-1.3,1.5l27.6-9.3l3.9-1.3h-1.2l29.9,8.5
		l4.2,1.2l-0.7-0.7l11.5,32.6c0,0.2,0.1,0.3,0.2,0.5c-0.1-0.3,0-0.4,0-0.1c-0.1,0.6,0,1.2-0.1,1.7l-0.4,7.8l-1.3,23.3l-0.8,15.5
		c-0.1,1.6,3.1,1.2,3.2-0.2l1.7-32.7l0.8-15.1c0-0.7-0.1-1.5-0.4-2.2l-2.5-7l-7-19.8c-0.5-1.7-1.1-3.4-1.8-5.1c-0.5-1-2-1.2-3-1.4
		l-18.9-5.4l-9.1-2.6c-1.3-0.5-2.7-0.9-4.1-1.2c-0.6,0-1.2,0.1-1.7,0.4l-2.9,1l-9.2,3.1L343.8,34l-1.1,0.3c-0.7,0.2-1.4,0.7-1.3,1.5
		l1.3,11.7c0.1,1.3,2.8,0.7,3.1-0.2c0.7-2.2,1.2-4.5,2.1-6.7c0.2-0.6,0.5-1.1,0.8-1.7c0.2-0.3,0.6-0.7,0.8-0.9c-0.4,0-0.5,0-0.2,0.1
		c0.1,0.1,0.3,0.2,0.4,0.3c0.3,0.2,0.5,0.5,0.7,0.7c0.3,0.4,0.8,0.7,1.3,0.8c4.3,1.4,6.9-6.3,7-9.4l-3,0.8c1.2,2.4,4.1,5.5,7.2,4.8
		s5.6-3.1,7.8-5l-2.6-0.9c-0.5,1.4-0.1,2.9,0.9,4c0.5,0.6,1,1,1.7,1.3c0.6,0.2,1,0.1,1.4,0.5s0.5,0.9,1.1,1.2
		c0.8,0.2,1.6,0.1,2.4-0.2c0.7-0.5,1.5-0.6,2.3-0.4c0.9,0.4,1.4,1.4,2.3,1.8c1.4,0.4,3,0.3,4.3-0.5c0.6-0.3,1.2-0.6,1.8-0.8
		c0.4-0.1,0.3-0.3,0.5,0.2c0.4,0.7,0.2,1.7,0.7,2.5c0.5,0.7,1.3,1.2,2.2,1.2c0.9,0,1.8-0.1,2.7-0.5c0.4-0.2,0.7-0.3,1.1-0.4
		c-0.2,0,0,0.1,0.1,0.1c1.2,0.6,2,2.4,2.5,3.6c0.7,1.4,1,3,0.9,4.5c-0.1,1.2,1.6,1.2,2.3,0.8c0.8-0.5,1.7,2,1.9,2.6
		c0.1,1.5,0.5,3,1.2,4.4c0.6,1,1.7,1.8,2.2,2.8s-1.3,1.8-1.8,2.7c-1.2,2.2,0.9,4.1,1.3,6.3c0.2,1.2-0.6,2.1-1.1,3
		c-0.7,1-0.9,2.3-0.5,3.5c0.8,2.2,3,3.3,3.8,5.4c1,2.5-1,5.3,0.2,7.9c0.6,1.2,1.7,1.8,2.5,2.8c0.8,1.1,1.1,2.5,0.9,3.9
		c-0.1,1.2,0,2.4,0.3,3.6c0.5,1.3,1.4,2.4,2.5,3.2c4.2,3.4,0.5,10.2,5,13.5C418.7,115.6,421.5,114,420,113L420,113z"/>
	<path class="st20" d="M423.1,134.8l-2.7,0.8c-0.3,0.1-0.6,0.1-0.9,0.1c-0.7-0.3-0.5-1.2-0.4-2c0.1-1.7-1.1-3.1-2-4.5
		s-1.8-3.2-1-4.7c0.5-0.8,1.4-1.4,1.3-2.3c-0.1-1.2-1.6-1.5-2.5-2.2c-1.2-1-1.3-2.8-0.2-4c0.2-0.2,0.4-0.4,0.7-0.5
		c0,0-2.4-1.8-2.5-6.3s0.3-9.3,0.3-9.3l5.8-4.8L423.1,134.8z"/>
	<path class="st2" d="M422.9,134l-2,0.6l-0.7,0.2l0.5-0.1c0-0.2,0-0.4,0-0.6c0.1-1-0.1-2.1-0.5-3c-0.9-1.9-3.9-4.4-2.5-6.6
		c0.5-0.8,1.4-1.4,1.3-2.5c-0.1-0.8-0.7-1.5-1.4-1.8c-0.8-0.5-1.7-0.8-2-1.7c-0.3-0.8,0-1.8,0.7-2.3c0.3-0.2,0.9-0.8,0.5-1.2
		c-1.3-1.2-2.1-2.8-2.2-4.5c-0.5-3.2-0.1-6.7,0.1-10c0-0.2,0.1-0.5,0.1-0.7c0.2,0.1-0.7,0.7,0,0.2s1.3-1.1,2-1.6l3.5-2.9l-2.9,0.1
		l3.6,34.8l0.5,5c0.1,1.1,3.3,0.4,3.2-0.9L421,99.6l-0.5-5c-0.1-1.2-2.4-0.2-2.9,0.1l-3.8,3.2c-0.6,0.5-1.3,1-1.8,1.5
		c-0.4,0.4-0.5,0.9-0.5,1.4c-0.2,3.4-0.7,7-0.1,10.3c0.2,1.9,1.1,3.6,2.5,4.9l0.5-1.2c-1.9,1.1-2.8,3.8-1.1,5.5
		c0.6,0.6,2.3,1,2.6,1.9c0.2,0.7-0.6,1.3-1,1.8c-0.4,0.5-0.6,1.1-0.6,1.8c-0.2,3.2,3.4,4.9,3.4,8c0,0.9-0.3,2.1,0.8,2.6
		c1.5,0.7,3.6-0.4,5-0.8c0.5-0.1,1.5-0.6,1.4-1.3S423.4,133.8,422.9,134z"/>
	<path class="st23" d="M295.1,54.2c0.5,0.8-0.5,1.8-1.5,2.1s-2.2,0.7-2.2,1.7c0,0.6,0.5,1.1,0.6,1.7c0,1.9-3.8,1-4.4,2.7
		c-0.5,1.3,1.3,2.9,0.4,4c-0.4,0.5-1.2,0.5-1.8,0.7c-1.1,0.3-1.9,1.3-2,2.5c0,0.9,0.3,1.8,0,2.6c-0.4,1-1.6,1.3-2.4,1.9
		c-2.2,1.6-2.2,4.9-1.7,7.6s1,5.8-0.7,7.9c-2.2-1.4-3.1-4.2-2-6.6c0.4-0.6,0.8-1.3,1.1-2c0.3-0.7,0-1.5-0.6-2
		c-0.3-0.2-0.8-0.2-1-0.5c-0.7-0.8,1.1-1.4,1.8-2.2c0.9-1,0-2.6-1-3.5s-2.2-2.1-1.7-3.4c0.4-1.1,2-1.5,2.4-2.6s-0.7-2.6-0.6-3.9
		c0.1-1.8,2.1-2.7,3.9-3.2c-1.1-1.1-1.2-2.8-0.1-4c0.2-0.2,0.3-0.3,0.5-0.4c0.6-0.3,1.4-0.5,1.8-1.1c0.5-0.9-0.5-2.2,0.2-3
		s1.8-0.4,2.4-1c1-1-0.8-2.7-0.4-4c0.5-1.8,4.2-1.8,3.7-3.6"/>
	<path class="st2" d="M293.5,54.6c0.4,0.9-0.7,1-1.3,1.2c-0.8,0.3-1.5,0.7-2,1.3c-0.4,0.5-0.4,1.2-0.2,1.7c0.2,0.4,0.3,0.8,0.4,1.2
		c0,0.2-0.1,0.2,0.1,0.1c-0.3,0.2-1.2,0.3-1.5,0.4c-0.6,0.2-1.3,0.4-1.8,0.8c-1.1,0.6-1.6,2-1,3.1c0.2,0.6,0.4,1.2,0.5,1.8
		c0,0.1,0.5-0.2,0.2,0c-0.2,0.1-0.4,0.1-0.5,0.1c-0.5,0.1-0.9,0.3-1.4,0.5c-1.5,0.6-2.4,2.1-2.4,3.8c0,1,0.3,1.8-0.6,2.4
		c-0.7,0.4-1.4,0.9-2,1.4c-1,1.1-1.6,2.4-1.7,3.9c-0.4,3.7,2,8.1-0.4,11.4l2.7-0.7c-1.4-0.9-2.2-2.5-2.1-4.2c0-1.7,1.4-2.7,1.6-4.2
		c0.1-0.6,0-1.3-0.4-1.8c-0.2-0.2-1.4-0.7-1.4-0.9s1.4-1,1.6-1.3c0.5-0.4,0.7-1,0.7-1.7c-0.1-1.7-1.7-2.6-2.6-3.8
		c-0.5-0.6-0.9-1.4-0.4-2.1c0.4-0.5,1.1-0.8,1.6-1.4c1.2-1.3,0.6-2.5,0.2-4c-0.5-1.8,0.8-2.6,2.4-3.1c0.3-0.1,1.9-0.8,1.2-1.4
		c-0.8-0.7-1-1.9-0.5-2.9c0.5-0.9,1.9-0.9,2.5-1.8c0.3-0.4,0.4-0.8,0.4-1.3c0-0.4-0.4-1.3-0.2-1.7l-0.1-0.1c0.1,0,0.3-0.1,0.5-0.1
		s0.6-0.2,0.9-0.3c0.6-0.2,1-0.5,1.4-1c1.1-1.5-1.5-3.7,0.3-4.8c1.2-0.7,3.5-1.3,3.1-3.2c-0.2-1.1-3.4-0.3-3.2,0.8
		c0.1,0.7-0.9,0.9-1.4,1.2c-0.8,0.4-1.5,0.9-2,1.7c-0.4,0.9-0.4,1.9,0.1,2.8c0.1,0.3,0.2,0.5,0.3,0.8c0,0.1,0.1,0.8,0.2,0.5
		c0.3-0.1,0.2-0.1-0.1,0l-0.3,0.1c-0.3,0.1-0.7,0.2-1,0.3c-1,0.3-1.7,1.2-1.7,2.3c0,0.4,0.4,1.3,0.1,1.7s-1.1,0.5-1.5,0.7
		c-1.6,1-2.1,3.1-1.1,4.7c0.1,0.2,0.3,0.4,0.5,0.6l1.2-1.4c-1.6,0.5-3.5,1.2-4.6,2.6c-0.4,0.5-0.6,1.2-0.6,1.8c0,1,0.6,1.9,0.7,2.9
		c0.1,1.7-2.3,2.1-2.6,3.8c-0.4,2,1.9,3,2.8,4.4c0.5,0.8,0.6,1.5-0.2,2.1c-0.5,0.4-1.4,0.8-1.6,1.6c-0.1,0.5,0.1,1.1,0.6,1.3
		c0.4,0.2,0.8,0.2,1,0.7c0.2,0.5,0.1,1.1-0.2,1.6c-0.8,1.6-1.6,2.8-1.3,4.7c0.3,1.7,1.3,3.2,2.7,4.1c1,0.3,2.1,0.1,2.7-0.7
		c2.2-2.9,0.9-6.5,0.6-9.8c-0.1-1.6-0.1-3.6,1-4.9c1-1.1,2.6-1.3,3.3-2.8c0.2-0.8,0.2-1.6,0.1-2.5c0-0.5,0.1-1,0.4-1.4
		c0.3-0.4,0.6-0.4,1.1-0.5c1.4-0.3,2.9-1.2,2.6-2.8c-0.1-0.7-0.6-1.3-0.7-2s0-0.7,0.4-0.9c1.1-0.5,2.4-0.4,3.4-1.3
		c0.4-0.4,0.7-0.9,0.7-1.5c-0.1-0.8-1-1.6-0.1-2.1c0.9-0.3,1.7-0.7,2.5-1.2c0.7-0.5,1-1.4,0.7-2.2C296.2,52.7,293.1,53.6,293.5,54.6
		L293.5,54.6z"/>
	<path class="st24" d="M423.8,117.7l-0.9-3.7l-41-2.6l0,0c-15-2.4-33.6,5.7-43.3,15.4l-9.8,2.7l0.1-0.2c-13.4-6-32.9-3.1-46.2,6.9
		l0.7,1.5l0,0c0,0.1,0.2,0.3,0.3,0.6l0.7,1.3c4.1,8.1,8.6,16.6,11.5,18.5c2,1.2,7.5,0.9,12,0.2c1.7-0.2,3.2-0.5,4.3-0.7
		c1.3-0.2,13.1-2.4,14.6-4.6s2-16.5,2-20.9l10.1-2.7c2,3,7.7,16.7,13.3,18.5s30.8-4.9,32.4-8.9c1.1-2.9,3.9-13,4.2-18l0.8-6.5
		L423.8,117.7z M325.4,151.8c-1.8,2.2-25.1,6.7-28.5,4.5c-2.9-1.8-8.7-13.4-10.9-17.7v-0.2c12-8.2,29.6-10.8,41.2-5.8
		C327,140.3,326.4,150.4,325.4,151.8L325.4,151.8z M381.4,138.5c-1,2.6-22.8,9.4-28.6,7.5c-4-1.3-8.4-11.3-11.3-16.9
		c9.5-9.2,31.6-17.2,45.1-14.2C385.9,122.7,384.3,132.1,381.4,138.5z"/>
	<path class="st25" d="M325.1,151.6c-1.8,2.2-25.1,6.7-28.5,4.5c-2.9-1.8-8.7-13.4-10.9-17.7l0-0.2c12-8.2,29.6-10.8,41.2-5.8
		C326.6,140.2,326.1,150.2,325.1,151.6L325.1,151.6z"/>
	<path class="st25" d="M381.4,138.5c-1,2.6-22.8,9.4-28.6,7.5c-4-1.3-8.4-11.3-11.3-16.9c9.5-9.2,31.6-17.2,45.1-14.2
		C385.9,122.7,384.5,131.6,381.4,138.5z"/>
	<path class="st1" d="M446.8,210.9c0,0-11.2,44.3-60.6,49.5c-40,4.2-25.2-23.5-25.2-23.5L446.8,210.9z"/>
	<path class="st16" d="M435,157.6c0,0-5.3,0.1-7.2-2.7c0,0,0.9,5.9,7,6L435,157.6z"/>
	<path class="st26" d="M345.8,180c9.5-2.1,24.6-6.6,24.6-6.6s1.4,20.1-20.6,24.9s-29.1-14.1-29.1-14.1S336.3,182.1,345.8,180z"/>
	<path class="st27" d="M345.7,180.1c4.5-1,22.5-5.8,22.5-5.8s-3.7,11.7-20,15.2c-17.7,3.9-25.1-5.2-25.1-5.2L345.7,180.1z"/>
	<path class="st28" d="M345.7,180.8c4.5-1,18-4.8,18-4.8s-3.8,6.2-17.3,9.2s-18.9-1.1-18.9-1.1L345.7,180.8z"/>
	<path class="st26" d="M319.4,183.1c0.5-0.2,3.3,0.1,5.5-0.6c3.6-1.1,5.8-2.7,8.4-3.5c4.5-1.4,7.9-0.1,9.9-0.6s4.5-3,9.2-3.6
		c2.8-0.4,9.7-0.8,13.5-1.3c2.3-0.3,4.7-1.8,5.2-1.8c0.7,0,0.5,5.4-24.7,10.9S318.8,183.4,319.4,183.1z"/>
	<path class="st2" d="M345.4,171.4l1.8,4.1c0.3,0.6,0.9,1,1.6,0.9c4.7-0.4,22.5-2.1,26.6-3.2c0.1,0,0,1.8,0.1,1.8l1-0.3
		c1.5-0.7-0.9-5.6-2.5-5.8c-3.9-0.6-7.8-0.9-11.7-0.9c-3.2,0-12.1,0.3-15.9,1.2c-0.9,0.2-1.4,1.1-1.2,1.9
		C345.3,171.2,345.4,171.3,345.4,171.4z"/>
	<path class="st2" d="M340.2,173.2l0.8,4c0,0.7-0.4,1.3-1,1.5c-4.1,1.6-17.4,7.1-21.2,7.9c-0.1,0-0.2,0-0.3,0h-1.3
		c-1.5,0-1.4-3.3-0.2-4.2c2.6-2,5.4-3.9,8.3-5.5c2.7-1.4,9.6-4.6,13-5.3c0.8-0.2,1.6,0.3,1.8,1.1C340.2,172.9,340.2,173,340.2,173.2
		z"/>
	<polygon class="st12" points="431.1,558.7 436.2,566.7 434,567.8 428.7,560.7 	"/>
	<path class="st29" d="M194.3,290.2c-6.1,1.7-18.7,9.1-20.8,12.3c0,0,8.4,2.9,22.6-1s15.3-9.4,15.3-9.4S202.1,288,194.3,290.2z"/>
	<path class="st30" d="M178.6,298.2c0,0,7.2-2.6,13-4.2s13.3-3,13.3-3s-0.2-4.6-10.8-1.7S178.6,298.2,178.6,298.2z"/>
	<path class="st26" d="M195.6,299.5c-6.9,0.9-14.4,0.3-22.1,2.9c0,0,4.6,8.3,21.4,3.7s16.5-14.1,16.5-14.1
		C203.5,293.7,202,296.8,195.6,299.5z"/>
	<path class="st26" d="M200.7,284.9c-3.6,0.7-5.5,2.6-7,3.1s-4.1-0.3-7.6,0.9c-3.2,1.1-15,13-13.1,13.6s11.1-8.2,21.7-11.2
		s16,2,17.3,0.5S204.1,284.2,200.7,284.9z"/>
	<path class="st6" d="M166,226.3c4.1,2.2,5.6,7.4,3.4,11.5c0,0,0,0,0,0C169.4,237.8,171.1,232.2,166,226.3z"/>
	<path class="st6" d="M182.5,232.8c0,0-6.6-6.2-2.6-11.5C179.9,221.3,173.7,227.6,182.5,232.8z"/>
</g>
</svg>
