<svg id="Layer_1" data-name="Layer 1" xmlns="http://www.w3.org/2000/svg" viewBox="0 0 348 282.4"><defs><style>.cls-1{fill:#f8d979;}.cls-2{fill:#ffcd05;}.cls-3{fill:#faad1c;}.cls-4{fill:#e59525;}.cls-11,.cls-17,.cls-18,.cls-5,.cls-9{fill:none;stroke-linecap:round;stroke-miterlimit:10;}.cls-5{stroke:#138ab2;stroke-width:6.38px;}.cls-6{fill:#a1cbec;}.cls-7{fill:#0aa0cc;}.cls-8{fill:#fff;}.cls-9{stroke:#0d4061;stroke-width:2.1px;}.cls-10{fill:#0d4061;}.cls-11{stroke:#231f20;stroke-width:1.26px;}.cls-12{fill:#5754a3;}.cls-13{fill:#504b48;}.cls-14{fill:#02a1cd;}.cls-15{fill:#ec1e52;}.cls-16{fill:#514c49;}.cls-17{stroke:#198ab1;stroke-width:4.42px;}.cls-18{stroke:#0d4060;stroke-width:2px;}.cls-19{fill:#0d4060;}</style></defs><polyline class="cls-1" points="0 282.4 0 0 348 0 348 282.4"/><rect class="cls-2" y="256.2" width="348" height="26.1"/><polyline class="cls-3" points="57.83 263.96 65.91 263.96 65.91 229.42 130.41 229.42 130.41 263.96 138.59 263.96 138.59 226.21 138.49 226.21 138.49 218.82 57.83 218.82 57.83 226.31"/><path class="cls-4" d="M139.17,202.37H56.66A5.65,5.65,0,0,0,51,208v7.39a5.65,5.65,0,0,0,5.64,5.65h82.51a5.65,5.65,0,0,0,5.65-5.65v-7.29A5.74,5.74,0,0,0,139.17,202.37Z"/><path class="cls-5" d="M119.3,125.46s18,13.71,31,14.39,27.52-9.95,27.52-9.95"/><path class="cls-6" d="M172.94,125.49a6.22,6.22,0,0,0-1.06,6.83c1.37,3.12,4.79,4.66,7.6,3.43l6.94-3,.14-.08.08,0L196,128.5a1.62,1.62,0,0,0-1.3-3l-5.1,2.23a6.73,6.73,0,0,0-.09-1.41l6.11-2.68a1.63,1.63,0,0,0-1.3-3l-6.12,2.68a5.92,5.92,0,0,0-.87-.93l5.26-2.31a1.63,1.63,0,0,0-1.3-3L182.53,121a4.36,4.36,0,0,0-.9.26l1.43-1.3a1.67,1.67,0,0,0,.08-2.24h0a1.45,1.45,0,0,0-2.1-.26"/><rect class="cls-7" x="57.01" y="18.93" width="99.08" height="190.58" rx="35.26" transform="matrix(1, 0.07, -0.07, 1, 8.1, -7.05)"/><path class="cls-8" d="M103.74,68.86a9.81,9.81,0,0,1,19.58,1.35"/><path class="cls-8" d="M138.49,71.26a9.82,9.82,0,0,1,19.59,1.35"/><line class="cls-9" x1="106.52" y1="55.47" x2="124.76" y2="51.29"/><line class="cls-9" x1="158.12" y1="59.05" x2="143.15" y2="52.6"/><path class="cls-10" d="M112.39,69.46a4.24,4.24,0,1,1,8.47.58"/><path class="cls-10" d="M147.14,71.85a4.25,4.25,0,0,1,8.47.59"/><ellipse class="cls-11" cx="112.62" cy="66.87" rx="9.07" ry="13.34" transform="translate(39.31 175.4) rotate(-86.67)"/><ellipse class="cls-11" cx="149.04" cy="69.04" rx="9.07" ry="13.34" transform="translate(71.45 213.82) rotate(-86.67)"/><path class="cls-11" d="M125.88,68.54s5.8-6.56,10.05.68"/><polyline class="cls-7" points="87.01 202.33 108.19 260.49 115.42 258.76 108.82 204.61"/><polyline class="cls-7" points="116.98 201.64 135.7 253.06 142.94 251.32 136.33 197.17"/><path class="cls-10" d="M117,85.26s2.73-7.89,13.07-6.6,10.57,9.12,10.57,9.12Z"/><path class="cls-5" d="M75.61,136.21S101.37,140,109.68,130s8.49-28,8.49-28"/><path class="cls-6" d="M111.72,103.24a6.2,6.2,0,0,0,4.83,4.92c3.32.77,6.6-1,7.3-4l1.71-7.38c0-.06,0-.11,0-.16l0-.08,2.31-10a1.63,1.63,0,0,0-3.16-.73l-1.25,5.42a7,7,0,0,0-1.2-.77l1.51-6.5a1.63,1.63,0,0,0-3.15-.73l-1.51,6.5a7.6,7.6,0,0,0-1.27.14l1.3-5.59a1.63,1.63,0,0,0-3.16-.73l-2.16,9.31a5.22,5.22,0,0,0-.32.89l-.19-1.93a1.67,1.67,0,0,0-1.75-1.4h0A1.46,1.46,0,0,0,110.14,92"/><polygon class="cls-12" points="116.55 264.8 110.33 266.29 102.05 243.92 113.22 241.24 116.55 264.8"/><path class="cls-13" d="M131.52,261.38a11.06,11.06,0,1,0-21.54,5"/><polygon class="cls-12" points="144.49 258.5 138.26 259.99 129.99 237.61 140.88 235 144.49 258.5"/><path class="cls-13" d="M158.68,255.37a11.06,11.06,0,0,0-21.59,4.79"/><polyline class="cls-3" points="288.9 263.9 280.7 263.9 280.7 228.4 214.3 228.4 214.3 263.9 205.9 263.9 205.9 225.1 206.1 225.1 206.1 217.5 288.9 217.5 288.9 225.2"/><path class="cls-4" d="M205.4,200.6h84.8a5.8,5.8,0,0,1,5.8,5.8V214a5.8,5.8,0,0,1-5.8,5.8H205.4a5.8,5.8,0,0,1-5.8-5.8v-7.6A5.8,5.8,0,0,1,205.4,200.6Z"/><path class="cls-14" d="M289,128.2v-1.4c0-33.8-23.1-61.2-51.6-61.2S185.8,93,185.8,126.8v1.4a53.37,53.37,0,0,0-.5,6.9v28.6c0,23.6,19.7,45,39.4,45h28c19.7,0,36.6-21.5,36.6-45V135.1A39.86,39.86,0,0,0,289,128.2Z"/><polyline class="cls-14" points="206.9 194.9 200.4 256.5 205.4 257.6 224.6 199.2"/><polygon class="cls-15" points="206.3 256.5 200.1 254.7 203.5 226.8 214.7 229.4 206.3 256.5"/><path class="cls-16" d="M206.3,259a9.53,9.53,0,1,0-18.6-4.2"/><polyline class="cls-14" points="232.4 200 225.9 261.6 230.9 262.7 250.1 204.3"/><polygon class="cls-15" points="231.8 261.6 225.6 259.9 229 231.9 240.2 234.5 231.8 261.6"/><path class="cls-16" d="M231.8,264.1a9.53,9.53,0,1,0-18.6-4.2"/><path class="cls-17" d="M196.53,183.82c-15.69-9.24-14.29-16.1-14.29-16.1s-1-5,4-12.21,4-6.82,4-6.82"/><path class="cls-6" d="M199.84,178.86c-1.94-.21-4.1,1.08-5.31,3.4-1.55,3-1,6.49,1.19,7.85l5.44,3.36.12.07.06,0,7.35,4.54a1.32,1.32,0,0,0,1.78-.75,1.56,1.56,0,0,0-.31-2.05l-4-2.48a7,7,0,0,0,1-.94l4.8,3a1.33,1.33,0,0,0,1.78-.76,1.56,1.56,0,0,0-.31-2.05l-4.8-3a7.67,7.67,0,0,0,.25-1.23l4.12,2.55a1.33,1.33,0,0,0,1.79-.75,1.59,1.59,0,0,0-.32-2.06l-6.87-4.24a3.36,3.36,0,0,0-.61-.52l1.59.28a1.61,1.61,0,0,0,1.62-1.32h0a1.32,1.32,0,0,0-.82-1.75"/><path class="cls-17" d="M272.22,148.67S271,181,240.92,164.54"/><path class="cls-6" d="M239.09,158.53c1.35,1.41,1.65,3.9.57,6.29-1.38,3-4.5,4.77-6.93,3.87l-6-2.24-.12,0-.07,0-8.1-3a1.33,1.33,0,0,1-.49-1.88,1.58,1.58,0,0,1,1.81-1l4.41,1.64a6.19,6.19,0,0,1,.16-1.33l-5.29-2a1.34,1.34,0,0,1-.5-1.88,1.57,1.57,0,0,1,1.81-1l5.29,2a7.57,7.57,0,0,1,.82-.95l-4.54-1.69a1.33,1.33,0,0,1-.5-1.88,1.58,1.58,0,0,1,1.81-1l7.57,2.82a4.28,4.28,0,0,1,.79.17l-1.2-1.09a1.61,1.61,0,0,1,.05-2.09h0a1.31,1.31,0,0,1,1.88-.42"/><path class="cls-14" d="M185.3,146.71s-.25,16.24.08,19.54,8.26-11.84,8.26-11.84v-8.65Z"/><path class="cls-10" d="M206.13,128.39s2.06-8.56,12.23-8.3,11,8.3,11,8.3Z"/><path class="cls-18" d="M243.4,100.63s-7.6,4.14-11.85-4.45"/><path class="cls-18" d="M195.47,100s7.53,3.71,10.35-5.44"/><path class="cls-8" d="M191.41,114a10.18,10.18,0,0,1,20.36,0"/><path class="cls-8" d="M222.52,114a10.18,10.18,0,0,1,20.36,0"/><path class="cls-19" d="M248,110.23l-5.49.91c-.06-.25-.13-.5-.21-.77l5.48-4.88-6.27,2.89c-1.37-2.75-4.41-4.69-9.83-4.67,1.7.12,7.94.47,11.22,10.26a11.19,11.19,0,0,0-.09-1.22Z"/><path class="cls-19" d="M186.26,110.24l5.49.91c.06-.25.12-.5.21-.76l-5.48-4.82,6.27,2.85c1.37-2.71,4.41-4.62,9.82-4.59-1.69.11-7.94.45-11.21,10.11a10.86,10.86,0,0,1,.09-1.2Z"/><path class="cls-10" d="M229.57,111.9a7.2,7.2,0,0,0,3.56-8.08c-.15,0-.29,0-.44,0a10.19,10.19,0,0,0-9.95,8A6.68,6.68,0,0,0,229.57,111.9Z"/><path class="cls-10" d="M198.6,111.9a7.2,7.2,0,0,0,3.56-8.08c-.15,0-.29,0-.44,0a10.19,10.19,0,0,0-9.95,8A6.68,6.68,0,0,0,198.6,111.9Z"/></svg>