<svg id="Layer_1" data-name="Layer 1" xmlns="http://www.w3.org/2000/svg" viewBox="0 0 348 281.79"><defs><style>.cls-1{fill:#f8d979;}.cls-10,.cls-11,.cls-17,.cls-2{fill:none;stroke-linecap:round;stroke-miterlimit:10;}.cls-2{stroke:#0f8ab2;stroke-width:5.62px;}.cls-3{fill:#a2cced;}.cls-4{fill:#ffcb05;}.cls-5{fill:#f8ac1c;}.cls-6{fill:#e59525;}.cls-7{fill:#0aa0cc;}.cls-8{fill:#5754a3;}.cls-9{fill:#504b48;}.cls-10{stroke:#1b89b0;stroke-width:4.92px;}.cls-11{stroke:#0b4161;stroke-width:1.85px;}.cls-12{fill:#0b4161;}.cls-13{fill:#fff;}.cls-14{fill:#a1caeb;}.cls-15{fill:#00a1cd;}.cls-16{fill:#56c5d0;}.cls-17{stroke:#0d4060;stroke-width:2.06px;}.cls-18{fill:#0d4060;}</style></defs><polyline class="cls-1" points="0 281.79 0 0 348 0 348 281.79"/><path class="cls-2" d="M128,144.89s26.05,16.94,39.47-15.48"/><path class="cls-3" d="M165.44,113.19a1.53,1.53,0,0,1,2.15-.67h0a1.86,1.86,0,0,1,1.27,2.08l-.58,1.8a4.69,4.69,0,0,1,.7-.63l6-7.28a1.85,1.85,0,0,1,2.43,0,1.57,1.57,0,0,1,.59,2.19L174.4,115a9.55,9.55,0,0,1,1.39.48l4.19-5.08a1.84,1.84,0,0,1,2.43,0,1.55,1.55,0,0,1,.59,2.18l-4.2,5.08a7.93,7.93,0,0,1,.94,1.26l3.5-4.24a1.85,1.85,0,0,1,2.43,0,1.56,1.56,0,0,1,.59,2.19l-6.43,7.79-.06.05-.09.13-4.77,5.77c-1.93,2.33-6.1,2.39-9.27.13-2.49-1.78-3.65-4.48-3.09-6.69Z"/><polyline class="cls-4" points="347.5 282.22 0 282.22 0 255.79 347.5 255.79"/><polyline class="cls-5" points="302.88 260.33 295.26 260.33 295.26 227.5 233.88 227.5 233.88 260.33 226.09 260.33 226.09 224.43 226.22 224.43 226.22 217.43 302.88 217.43 302.88 224.53"/><rect class="cls-6" x="220.19" y="201.82" width="89.22" height="17.84" rx="5.39"/><polyline class="cls-5" points="132.16 260.65 124.54 260.65 124.54 227.82 63.16 227.82 63.16 260.65 55.37 260.65 55.37 224.75 55.5 224.75 55.5 217.76 132.16 217.76 132.16 224.85"/><rect class="cls-6" x="49.47" y="202.14" width="89.22" height="17.84" rx="5.39"/><polyline class="cls-7" points="250.23 206.81 238.64 253.04 242.97 254.56 267.37 206.81"/><polyline class="cls-7" points="230.43 197.62 218.03 247 222.36 248.52 243.78 205.14"/><polygon class="cls-8" points="223.13 226.71 231.66 229.7 222.9 248.57 218.03 247 223.13 226.71"/><polygon class="cls-8" points="243.73 232.74 252.54 235.83 243.26 254.53 238.41 252.83 243.73 232.74"/><path class="cls-9" d="M205.61,243.85a8.95,8.95,0,1,1,17.09,5.29c-.06.22-.14.42-.22.63"/><path class="cls-9" d="M226.21,249.89a8.95,8.95,0,0,1,17.09,5.29c-.06.21-.14.42-.22.63"/><path class="cls-10" d="M223.09,171.05s-24.75,7.43-39.16-14.08"/><ellipse class="cls-7" cx="262.99" cy="147.94" rx="65.28" ry="64.79"/><path class="cls-11" d="M227.2,106.73s-3.43,8.91-13.14,4.71"/><path class="cls-11" d="M260,109.12s0,9.84,10.56,9.36"/><path class="cls-12" d="M221.92,141.41s.88-7.77,16.42-6c12.77,1.47,12.62,9.9,12.62,9.9Z"/><path class="cls-13" d="M244.65,130.48a11.32,11.32,0,0,1,22.5,2.07"/><path class="cls-13" d="M211.2,127.41c.54-5.82,6-10.08,12.28-9.51s10.88,5.77,10.34,11.59"/><path class="cls-12" d="M211.33,126.09a7.51,7.51,0,0,0,7.41-1.25,7,7,0,0,0,1.93-6.9A10.86,10.86,0,0,0,211.33,126.09Z"/><path class="cls-10" d="M276.35,182.4s-25.57,3.68-36.65-19.72"/><path class="cls-14" d="M243.76,159.11a4.92,4.92,0,0,1-2.5,4.78c-2.39,1.55-5.44,1.36-6.76-.42l-3.28-4.37,0-.11h0l-4.5-5.92a1.12,1.12,0,0,1,.43-1.54l.07,0a1.34,1.34,0,0,1,1.78.11l2.4,3.2a5.17,5.17,0,0,1,.73-.88l-2.87-3.87a1.13,1.13,0,0,1,.43-1.55l.07,0a1.34,1.34,0,0,1,1.74.08l2.89,3.85a8.57,8.57,0,0,1,1-.3l-2.47-3.34a1.12,1.12,0,0,1,.43-1.54l.07,0a1.33,1.33,0,0,1,1.76.12l4.15,5.55a3.86,3.86,0,0,1,.49.5l-.36-1.34a1.36,1.36,0,0,1,1-1.48A1.12,1.12,0,0,1,242,151a1,1,0,0,1,0,.1"/><path class="cls-12" d="M244.77,129.16a7.53,7.53,0,0,0,7.42-1.25,7,7,0,0,0,1.93-6.9A10.9,10.9,0,0,0,244.77,129.16Z"/><path class="cls-14" d="M187.41,152.84a4.91,4.91,0,0,1-1.76,5.1c-2.14,1.89-5.18,2.15-6.75.59L175,154.68l0-.1h0l-5.32-5.18a1.12,1.12,0,0,1,.2-1.59l.06-.05a1.33,1.33,0,0,1,1.77-.15l2.85,2.81a5.66,5.66,0,0,1,.59-1l-3.41-3.4a1.14,1.14,0,0,1,.2-1.59l.06,0a1.37,1.37,0,0,1,1.74-.18l3.42,3.39a9.42,9.42,0,0,1,1-.45l-2.94-2.94a1.14,1.14,0,0,1,.2-1.59l.06,0a1.33,1.33,0,0,1,1.77-.15l4.92,4.88a3.28,3.28,0,0,1,.56.42l-.55-1.27a1.37,1.37,0,0,1,.77-1.62,1.13,1.13,0,0,1,1.57.25.35.35,0,0,0,0,.08"/><polyline class="cls-15" points="106.04 199.99 136.55 256.67 141.43 254.86 127.81 192.16"/><polygon class="cls-16" points="140.87 253.6 137.23 235.49 127.15 239.22 135.51 255.29 140.87 253.6"/><path class="cls-9" d="M159.21,248.93a12.3,12.3,0,1,0-23.08,8.53"/><polyline class="cls-15" points="81.69 208.99 112.2 265.67 117.09 263.86 103.46 201.16"/><polygon class="cls-16" points="116.52 262.6 112.88 244.49 102.81 248.22 111.16 264.29 116.52 262.6"/><path class="cls-9" d="M134.86,257.93a12.3,12.3,0,1,0-23.08,8.53"/><path class="cls-15" d="M103.93,211.19c-12.11,1.7-11.78-.07-22.9-.07-17.79,0-34.27-14.2-39.55-31.16-7.06-22.67-10.75-47-15.79-70.27-2.39-11-5.75-21.26-4.09-32.83a52.84,52.84,0,0,1,1.95-8.45C27,57.67,36.9,46.59,46.41,41.55c4-2.14,13.71-3.34,18.48-3.34,20.06,0,37,0,57.08.11,7.35,0,15.7.2,22,5,6.88,5.24,13.58,12.68,16.83,21.17,7.49,19.58-.6,41-4.82,60.52q-4.4,20.28-8.78,40.54c-2.54,11.8-6.44,23.28-13.85,32.82C127.06,206.41,113.39,209.86,103.93,211.19Z"/><line class="cls-17" x1="87.42" y1="77.97" x2="105.1" y2="74.69"/><line class="cls-17" x1="142.08" y1="79.33" x2="126.06" y2="74.87"/><path class="cls-18" d="M101.42,104.73s2.12-8,14.16-8.22,13.31,7.06,13.31,7.06Z"/><path class="cls-13" d="M120.19,91.5c0-5.48,4.74-9.92,10.58-9.92S141.36,86,141.36,91.5"/><path class="cls-18" d="M130.35,91.5a4.61,4.61,0,0,1,9.21,0"/><path class="cls-13" d="M88.71,91.5c0-5.48,4.77-9.92,10.64-9.92S110,86,110,91.5"/><path class="cls-18" d="M97.77,91.5a4.61,4.61,0,0,1,9.21,0"/><path class="cls-18" d="M98.38,81.58h0Z"/><path class="cls-18" d="M131.69,81.58h0Z"/><path class="cls-2" d="M69.11,153.7s31.31,7.33,36.72-27.34"/><path class="cls-3" d="M100,111.07c.06-.79.92-1.31,1.93-1.16h0a1.87,1.87,0,0,1,1.72,1.73l-.13,1.89a4.12,4.12,0,0,1,.53-.78l4.13-8.49a1.84,1.84,0,0,1,2.35-.6,1.56,1.56,0,0,1,1.09,2l-2.48,5.1a8.11,8.11,0,0,1,1.46.14l2.88-5.93a1.84,1.84,0,0,1,2.35-.61,1.55,1.55,0,0,1,1.09,2l-2.88,5.93a8.41,8.41,0,0,1,1.21,1l2.4-4.94a1.84,1.84,0,0,1,2.35-.61,1.57,1.57,0,0,1,1.09,2l-4.42,9.08a.43.43,0,0,1,0,.07.94.94,0,0,0-.06.15l-3.28,6.72c-1.32,2.73-5.36,3.77-9,2.32-2.84-1.14-4.6-3.5-4.58-5.78Z"/></svg>