<svg id="Layer_1" data-name="Layer 1" xmlns="http://www.w3.org/2000/svg" viewBox="0 0 348 281.79"><defs><style>.cls-1{fill:#f8d979;}.cls-10,.cls-12,.cls-13,.cls-14,.cls-19,.cls-2,.cls-24,.cls-9{fill:none;stroke-miterlimit:10;}.cls-2{stroke:#188ab2;stroke-width:4.76px;}.cls-10,.cls-14,.cls-19,.cls-2,.cls-24,.cls-9{stroke-linecap:round;}.cls-3{fill:#a2cced;}.cls-4{fill:#ffcb05;}.cls-5{fill:#f8ac1c;}.cls-6{fill:#e59525;}.cls-7{fill:#0aa0cc;}.cls-8{fill:#0b4161;}.cls-10,.cls-9{stroke:#2585a9;}.cls-9{stroke-width:1.12px;}.cls-10{stroke-width:1.25px;}.cls-11{fill:#fff;}.cls-12,.cls-13{stroke:#010101;}.cls-12{stroke-width:1.18px;}.cls-13{stroke-width:1.16px;}.cls-14{stroke:#0b4161;stroke-width:1.76px;}.cls-15{fill:#02a1cd;}.cls-16{fill:#ea1e52;}.cls-17{fill:#514c49;}.cls-18{fill:#00a1cd;}.cls-19{stroke:#0d4061;stroke-width:1.67px;}.cls-20{fill:#0d4061;}.cls-21{fill:#5754a3;}.cls-22{fill:#504b48;}.cls-23{fill:#56c5d0;}.cls-24{stroke:#0f8ab2;stroke-width:5.18px;}</style></defs><polyline class="cls-1" points="0 281.79 0 0 348 0 348 281.79"/><path class="cls-2" d="M143.19,131.69s12.48,9.21,18.82,9.13,15.54-5.75,15.54-5.75"/><path class="cls-3" d="M176.33,128.55c-1.46,1.66-1.67,4.52-.32,7.14,1.73,3.37,5.36,5.17,8.06,4l6.67-2.84.13-.08H191l9-3.89a1.52,1.52,0,0,0,.55-2.07l-.09-.13a1.79,1.79,0,0,0-2.11-1.05l-4.9,2.09a8.36,8.36,0,0,0-.21-1.49l5.87-2.52a1.5,1.5,0,0,0,.51-2.08l0-.06a1.78,1.78,0,0,0-2.11-1l-5.87,2.5a10.47,10.47,0,0,0-1-1l5-2.16a1.51,1.51,0,0,0,.51-2.06.35.35,0,0,1,0-.08,1.78,1.78,0,0,0-2.1-1l-8.42,3.6a4.36,4.36,0,0,0-.88.22l1.3-1.26a1.81,1.81,0,0,0-.17-2.35h0a1.48,1.48,0,0,0-2-.48l-.15.11"/><polyline class="cls-4" points="347.5 282.22 0 282.22 0 255.79 347.5 255.79"/><polyline class="cls-5" points="122.86 261.43 114.95 261.43 114.95 227.35 51.24 227.35 51.24 261.43 43.16 261.43 43.16 224.17 43.29 224.17 43.29 216.91 122.86 216.91 122.86 224.27"/><rect class="cls-6" x="37.03" y="200.7" width="92.61" height="18.52" rx="5.6"/><polyline class="cls-5" points="296.88 261.02 288.98 261.02 288.98 226.94 225.26 226.94 225.26 261.02 217.18 261.02 217.18 223.76 217.31 223.76 217.31 216.49 296.88 216.49 296.88 223.86"/><rect class="cls-6" x="211.05" y="200.28" width="92.61" height="18.52" rx="5.6"/><path class="cls-7" d="M27.11,88.88A80.39,80.39,0,0,1,36,69.57c21-33.18,67.58-38.85,97.35-14.08,22.36,18.59,28.67,52.38,28.23,80.09-.23,14.3.28,31.06-5.69,44.3-8,17.87-26,30.25-45.74,29.91L65.27,209c-27.1-.48-48.42-23.79-47.64-52.09a336,336,0,0,1,2.92-38.29A192.89,192.89,0,0,1,27.11,88.88Z"/><path class="cls-8" d="M130.84,116.73s.37-8.06-10.42-9.26c-13.78-1.56-14.33,7.22-14.33,7.22Z"/><path class="cls-9" d="M93.47,107.92c4.57-.5,9.19-3.57,7.34-9.39"/><path class="cls-9" d="M145.17,109c-6.25,2-11.9-4.15-11.53-8.72"/><path class="cls-10" d="M141.6,73.49a88.28,88.28,0,0,1-47.17-2.55"/><path class="cls-11" d="M155.92,100.53c-.17-6-5.44-10.6-11.77-10.42S132.83,95.24,133,101.19"/><path class="cls-8" d="M152.06,101a5,5,0,0,0-10,.27"/><path class="cls-11" d="M101.44,98.83c0-6-5.15-10.77-11.52-10.76S78.4,92.88,78.38,98.81"/><path class="cls-8" d="M98.91,98.82a5,5,0,0,0-10,0"/><path class="cls-12" d="M75.56,84.75c-12.65-.15-14.65,6.74-11.42,13.47,4.32,9,10.08,13.67,22.74,13.78s23-5.82,23.06-13.29S88.21,84.9,75.56,84.75Z"/><path class="cls-13" d="M126.2,102.56c-9.07-11.58-17.12-.3-17.12-.3"/><path class="cls-8" d="M87.69,88.36c-1.52.16-6.84,1.37-9.43,10.52,0,0,0-.48.06-1.16l-4.77-2.15,5,.68.14-.72-5.11-4.36,5.75,2.48A8.71,8.71,0,0,1,87.69,88.36Z"/><path class="cls-8" d="M156,99.55c.05.76,0,1.21,0,1.21-2.69-9.33-8.62-10.32-10.15-10.48,4.88.14,7.89,2.53,9.05,5.17l5.74-2.54-5.05,4.42c.07.25.11.49.16.73l5-.71Z"/><path class="cls-14" d="M151.5,83c-8.42,5.55-13.14-2.27-13.14-2.27"/><path class="cls-14" d="M80.22,80.8c8,6.11,12.22-1.68,12.22-1.68"/><path class="cls-12" d="M159.29,86.52c-12.61-.14-33.27,5.77-33.36,13.25s10.09,13.68,22.75,13.79,19.47-5.14,23.06-13.29C174.77,93.38,171.89,86.66,159.29,86.52Z"/><polyline class="cls-15" points="97.89 204.2 109.72 250.23 102.48 253.09 69.81 206.21"/><path class="cls-2" d="M59.12,151.86s21.5,27.88,62.41,11.34"/><polygon class="cls-16" points="107.75 263.02 112.35 259.41 106.63 238.08 95.66 243.31 107.75 263.02"/><path class="cls-17" d="M128.38,254.87c-2.66-6.46-9.57-9.81-15.44-7.49s-8.55,9.47-5.89,15.92"/><polyline class="cls-15" points="128.08 194.53 139.91 240.57 132.66 243.43 100 196.54"/><polygon class="cls-16" points="137.94 253.35 142.54 249.74 136.82 228.42 125.85 233.65 137.94 253.35"/><path class="cls-17" d="M158.57,245.21c-2.66-6.46-9.57-9.82-15.45-7.5s-8.54,9.48-5.88,15.93"/><path class="cls-18" d="M330.78,159.92c0-42.2-33.74-101.58-73.36-101.58-41.74,0-73.36,58.53-73.36,100.72s32.85,52.07,73.36,52.07S330.78,202.11,330.78,159.92Z"/><path class="cls-19" d="M214.26,92.58s-2.31,8.86-12,5.88"/><path class="cls-19" d="M238.76,93.71s4.12,8.35,13,3.47"/><path class="cls-20" d="M213.44,123.51s.25-8,12.53-7,12.81,8.67,12.81,8.67Z"/><path class="cls-11" d="M231.72,113.34c0-5.56,4.85-10.16,10.83-10.16s10.84,4.55,10.84,10.16"/><path class="cls-11" d="M199.5,113.34c0-5.56,4.88-10.16,10.89-10.16s10.89,4.55,10.89,10.16"/><path class="cls-20" d="M200.61,108.19l-5.82-2.32,5.16,4.06c-.06.24-.12.46-.16.68l-5-.63,4.82,2a9.2,9.2,0,0,0,0,1c2.85-9,8.72-9.81,9.89-9.88-5.12.07-7.6,2.54-8.79,5"/><path class="cls-20" d="M258.16,110l-5.05.62c-.05-.21-.1-.43-.17-.67l5.16-4.06-5.81,2.32c-1.2-2.46-3.67-4.93-8.8-5,1.12.07,7,.85,9.9,9.88a9.19,9.19,0,0,0,0-1Z"/><polyline class="cls-18" points="246.76 195.37 223.04 248.37 217.67 246.83 227.11 182.99"/><polygon class="cls-21" points="216.07 253.86 221.13 255.31 232.94 226.17 220.84 222.7 216.07 253.86"/><path class="cls-22" d="M221.24,255.31c1.39-4.83-2.08-10.07-7.74-11.69s-11.38,1-12.77,5.81"/><polyline class="cls-18" points="269.04 198.54 245.32 251.55 239.95 250.01 249.39 186.17"/><polygon class="cls-21" points="238.35 257.03 243.41 258.49 255.22 229.35 243.13 225.88 238.35 257.03"/><path class="cls-22" d="M243.52,258.74c1.39-4.83-2.08-10.06-7.74-11.69s-11.38,1-12.77,5.81"/><path class="cls-8" d="M231.72,112a7.13,7.13,0,0,0,6.74-.52,7.7,7.7,0,0,0,3.58-8.34A10.62,10.62,0,0,0,231.72,112Z"/><path class="cls-8" d="M199.5,112a7.11,7.11,0,0,0,6.73-.52,7.7,7.7,0,0,0,3.58-8.34A10.61,10.61,0,0,0,199.5,112Z"/><path class="cls-23" d="M213.2,115.53a12.71,12.71,0,0,0-2.83.17,6.3,6.3,0,0,1-2.65-.7,14.73,14.73,0,0,0-6.79-.6c-.75.11-1.81.29-2.4-.29a1.16,1.16,0,0,1-.28-1.15,2.14,2.14,0,0,1,.69-1,4,4,0,0,1,3.48-.85,14.3,14.3,0,0,1,3,1.4,3.61,3.61,0,0,0,2.92.32c.69-.31,1-1.07,1.69-1.34a2.94,2.94,0,0,1,2,.32,8,8,0,0,0,4.85.21,8.34,8.34,0,0,1,2.84-.59c1.62.16,2.41,3,1,3.84a2,2,0,0,1-1.18.18c-1.75-.11-2.9-.6-4.37-.27A2.32,2.32,0,0,1,213.2,115.53Z"/><path class="cls-23" d="M248.2,114.91c1.08-.47,2.32.7,3.49.51a1.46,1.46,0,0,0,.86-.39c.27-.29,1.45-.7,1.46-1.08.05-1-1.25-2.2-2.22-2.55a3.25,3.25,0,0,0-2.16.33,9.27,9.27,0,0,1-6.42-.1,2,2,0,0,0-1.4-.23c-.47.18-.68.68-1,1-.81.81-2.23.66-3.28.17a17.59,17.59,0,0,0-3.11-1.53,3.9,3.9,0,0,0-3.23.67,1.77,1.77,0,0,0-.78,2,1.85,1.85,0,0,0,1.77.86,12.21,12.21,0,0,0,2.07-.4,6.89,6.89,0,0,1,2.93.09c1.9.48,3.74,1.77,5.63,1.27a3,3,0,0,1,2.17-.06A8.07,8.07,0,0,0,248.2,114.91Z"/><path class="cls-23" d="M251.39,126.46s-2.93,5.14-1.46,6.31,3.55.87,2.8-3.16-1.09-4.48-1.09-4.48Z"/><path class="cls-24" d="M293.24,153.64c2.37-1.52-17.31,18.78-43.66-13.42"/><path class="cls-3" d="M255.18,134.28c.84,2.2,0,5.11-2.34,7.25-3,2.71-7.27,3.16-9.54,1l-5.6-5.33a1.31,1.31,0,0,1-.11-.12l-.06-.05L230,129.84a1.6,1.6,0,0,1,.33-2.32,1.9,1.9,0,0,1,2.5-.26l4.11,3.92a7.93,7.93,0,0,1,.81-1.4l-4.93-4.7a1.61,1.61,0,0,1,.33-2.32,1.9,1.9,0,0,1,2.5-.26l4.93,4.7a8.57,8.57,0,0,1,1.36-.67l-4.24-4a1.61,1.61,0,0,1,.34-2.32,1.89,1.89,0,0,1,2.49-.26l7.07,6.72a5.39,5.39,0,0,1,.79.56l-.81-1.78a1.93,1.93,0,0,1,1-2.29h0a1.59,1.59,0,0,1,2.29.42"/><path class="cls-24" d="M176.64,158c-2.55-1.18,18,13.5,27.85-18.3"/><path class="cls-3" d="M196.58,139.21c-.16,2.35,1.5,4.89,4.36,6.25,3.64,1.72,7.88.9,9.41-1.83l3.8-6.73a1,1,0,0,0,.07-.15l.05-.06,5.13-9.09a1.61,1.61,0,0,0-1-2.12,1.89,1.89,0,0,0-2.46.48l-2.79,4.94a7.88,7.88,0,0,0-1.19-1.1l3.35-5.93a1.61,1.61,0,0,0-1-2.12,1.89,1.89,0,0,0-2.46.48l-3.35,5.93a8.68,8.68,0,0,0-1.49-.23l2.87-5.1a1.6,1.6,0,0,0-1-2.12,1.9,1.9,0,0,0-2.46.48l-4.79,8.49a4.49,4.49,0,0,0-.59.77l.25-1.94a1.93,1.93,0,0,0-1.67-1.89h0a1.58,1.58,0,0,0-2.06,1.08"/><path class="cls-1" d="M184.06,152s-.35,11.29.62,16.54-23.46,0-23.46,0l8.28-23.44Z"/><path class="cls-3" d="M119.21,156.81c-1.44,1.68-1.6,4.54-.21,7.14,1.78,3.34,5.44,5.09,8.12,3.88l6.62-2.94.14-.08H134l9-4a1.51,1.51,0,0,0,.52-2.08l-.09-.13a1.79,1.79,0,0,0-2.12-1l-4.87,2.16a7.59,7.59,0,0,0-.24-1.49l5.83-2.61a1.5,1.5,0,0,0,.48-2.08.16.16,0,0,0,0-.07,1.79,1.79,0,0,0-2.12-1l-5.84,2.6a9.54,9.54,0,0,0-1-1l5-2.23a1.51,1.51,0,0,0,.48-2.07l-.05-.08a1.77,1.77,0,0,0-2.12-1l-8.36,3.73a4.59,4.59,0,0,0-.88.24l1.29-1.28a1.83,1.83,0,0,0-.21-2.36h0a1.49,1.49,0,0,0-2-.44l-.15.11"/></svg>