<?xml version="1.0" encoding="utf-8"?>
<!-- Generator: Adobe Illustrator 25.0.1, SVG Export Plug-In . SVG Version: 6.00 Build 0)  -->
<svg version="1.1" id="Layer_1" xmlns="http://www.w3.org/2000/svg" xmlns:xlink="http://www.w3.org/1999/xlink" x="0px" y="0px"
	 viewBox="0 0 348 282.4" style="enable-background:new 0 0 348 282.4;" xml:space="preserve">
<style type="text/css">
	.st0{fill:#F8D979;}
	.st1{fill:none;stroke:#198AB1;stroke-width:4.53;stroke-linecap:round;stroke-miterlimit:10;}
	.st2{fill:#A1CBEC;}
	.st3{fill:#FFCD05;}
	.st4{fill:#FAAD1C;}
	.st5{fill:#E59525;}
	.st6{fill:#049FCB;}
	.st7{fill:#57C4CF;}
	.st8{fill:#504B48;}
	.st9{fill:#0AA0CC;}
	.st10{fill:#FFFFFF;}
	.st11{fill:none;stroke:#0B4161;stroke-width:2.4;stroke-linecap:round;stroke-miterlimit:10;}
	.st12{fill:#0B4161;}
	.st13{fill:#00A1CD;}
	.st14{fill:#5754A3;}
	.st15{fill:#0D4060;}
	.st16{fill:none;stroke:#2585AA;stroke-width:1.07;stroke-linecap:round;stroke-miterlimit:10;}
	.st17{fill:none;stroke:#0D4060;stroke-width:2.14;stroke-linecap:round;stroke-miterlimit:10;}
	.st18{fill:none;stroke:#231F20;stroke-width:1.61;stroke-linecap:round;stroke-miterlimit:10;}
	.st19{fill:none;stroke:#633413;stroke-width:5.36;stroke-linecap:round;stroke-miterlimit:10;}
</style>
<polyline class="st0" points="0,282.4 0,0 348,0 348,282.4 "/>
<path class="st1" d="M223.4,153.3c0,0,0.3,31.8-31.9,34.3"/>
<path class="st2" d="M196.6,187.1c-0.7-2.6-2.5-4.4-4.5-4.6l-9.8-1c-0.7,0-1.2,0.7-1.2,1.6l0,0c0,0.8,0.5,1.5,1.3,1.7l1.7,0.1
	c-0.3,0.1-0.5,0.2-0.7,0.4l-7.8,2.7c-0.7,0.4-1.1,1.2-0.8,2c0.1,0.5,0.4,0.9,0.8,1.1h1l4.5-1.6c0,0.4,0,0.9,0,1.3l-1.4,0.5
	c1.5,0.2,2.9,0.6,4.3,1.2c1.8,0.8,4,2.1,4.8,3.9l4.9-1.6C196.1,193.8,197.5,190.4,196.6,187.1z"/>
<rect y="256.2" class="st3" width="348" height="26.1"/>
<path class="st1" d="M117.8,149.8c0,0,13.2,28.9,43.4,17.6"/>
<path class="st2" d="M158.1,162.1c-1.7,1-2.6,3.4-2.2,6.1c0.6,3.4,3.3,5.9,5.9,5.6l6.5-0.7h0.1h0.1l8.8-1c0.7-0.2,1.2-0.9,1-1.6
	c0,0,0-0.1,0-0.1c-0.1-0.8-0.7-1.4-1.5-1.5l-4.8,0.5c0.1-0.4,0.2-0.9,0.2-1.4l5.8-0.6c0.7-0.2,1.2-0.9,1-1.6c0,0,0-0.1,0-0.1
	c-0.1-0.8-0.7-1.4-1.5-1.5l-5.8,0.6c-0.2-0.4-0.4-0.8-0.6-1.1l4.9-0.5c0.7-0.2,1.2-0.9,1-1.6c0,0,0-0.1,0-0.1
	c-0.1-0.8-0.7-1.4-1.5-1.5l-8.2,0.9c-0.3,0-0.6,0-0.8,0l1.5-0.8c0.7-0.5,0.9-1.4,0.5-2.1l0,0c-0.2-0.7-0.9-1.1-1.7-0.9
	c0,0-0.1,0-0.1,0"/>
<polyline class="st4" points="108.5,262.7 100.4,262.7 100.4,228.1 36,228.1 36,262.7 27.8,262.7 27.8,224.9 27.9,224.9 27.9,217.5 
	108.5,217.5 108.5,225 "/>
<path class="st5" d="M27.2,201.1h82.5c3.1,0,5.6,2.5,5.6,5.6v7.4c0,3.1-2.5,5.6-5.6,5.6H27.2c-3.1,0-5.6-2.5-5.6-5.6v-7.3
	C21.5,203.7,24.1,201.1,27.2,201.1z"/>
<polyline class="st4" points="311.1,262.6 303.1,262.6 303.1,228.1 238.6,228.1 238.6,262.6 230.4,262.6 230.4,224.9 230.5,224.9 
	230.5,217.5 311.1,217.5 311.1,225 "/>
<path class="st5" d="M229.8,201h82.5c3.1,0,5.6,2.5,5.6,5.6v7.4c0,3.1-2.5,5.6-5.6,5.6h-82.5c-3.1,0-5.6-2.5-5.6-5.6v-7.3
	C224.2,203.6,226.7,201,229.8,201z"/>
<polyline class="st6" points="82.7,201.8 102.2,248.8 98,251.1 61.1,202.9 "/>
<polygon class="st7" points="101.3,256.6 105.3,254.4 93.9,228.9 85.2,234.4 "/>
<path class="st8" d="M115.2,249.3c-2.6-3.7-7.6-4.6-11.3-2c-3.7,2.6-4.6,7.6-2,11.3l0,0"/>
<polyline class="st6" points="100.6,190.9 120.1,237.9 115.8,240.2 79,192 "/>
<polygon class="st7" points="119.2,245.7 123.2,243.5 111.8,218 103.1,223.5 "/>
<path class="st8" d="M133.1,238.4c-2.1-3.9-7-5.4-11-3.3s-5.4,7-3.3,11l0,0"/>
<path class="st9" d="M13.6,117.6c-1.2,27.5,12.4,54.9,30.8,74.8c47.3,51.3,105.3-17.3,107.6-71.1c1.7-39.7-31.9-50.8-65.9-52.2
	S15.3,77.9,13.6,117.6z"/>
<path class="st10" d="M145.1,119.8c0-5.8-4.7-10.6-10.6-10.6c-5.8,0-10.6,4.7-10.6,10.6l0,0"/>
<path class="st10" d="M112.8,119.8c0-5.8-4.7-10.6-10.6-10.6s-10.6,4.7-10.6,10.6l0,0"/>
<line class="st11" x1="145.6" y1="110.6" x2="132.4" y2="100.6"/>
<line class="st11" x1="87.2" y1="110.9" x2="102.7" y2="99.3"/>
<path class="st12" d="M105.2,109.6c-0.3-0.1-0.7-0.2-1-0.2c-1.5,3.6,0.2,7.8,3.8,9.3c1.5,0.6,3.2,0.7,4.7,0.3
	C112.4,114.5,109.4,110.8,105.2,109.6z"/>
<path class="st12" d="M137.5,109.6c-0.3-0.1-0.7-0.2-1-0.2c-1.5,3.6,0.2,7.8,3.8,9.3c1.5,0.6,3.2,0.7,4.7,0.3
	C144.7,114.5,141.7,110.8,137.5,109.6z"/>
<path class="st1" d="M56.6,154.6c0,0,13.2,28.9,43.4,17.6"/>
<path class="st2" d="M96.9,166.9c-1.7,1.1-2.6,3.4-2.2,6.1c0.6,3.4,3.3,5.9,5.9,5.6l6.5-0.7h0.1h0.1l8.8-1c0.7-0.2,1.2-0.9,1-1.6
	c0,0,0-0.1,0-0.1c-0.1-0.8-0.7-1.4-1.6-1.5l-4.8,0.5c0.1-0.4,0.2-0.9,0.2-1.4l5.8-0.6c0.7-0.2,1.2-0.9,1-1.6c0,0,0-0.1,0-0.1
	c-0.1-0.8-0.7-1.4-1.6-1.5l-5.8,0.6c-0.2-0.4-0.3-0.8-0.6-1.1l4.9-0.5c0.7-0.2,1.2-0.9,1-1.6c0,0,0-0.1,0-0.1
	c-0.1-0.8-0.7-1.4-1.6-1.5l-8.2,0.9c-0.3,0-0.6,0-0.8,0l1.5-0.8c0.7-0.5,0.9-1.4,0.5-2.1l0,0c-0.2-0.7-0.9-1.1-1.6-0.9
	c0,0-0.1,0-0.1,0"/>
<path class="st12" d="M131,132.7c0,0-1.1-8.9-11.7-8.7s-11.3,8.7-11.3,8.7H131z"/>
<path class="st13" d="M275.8,211.6c-15.8,1.1-18.2,1.6-33.1-4.5c-27.1-11.2-42.1-46-46.9-72.3c-2.8-15-5-32.5-0.6-47.4
	c5.4-18,20.8-32,39.6-34.2l42.8-5c25.8-3,49,16.4,51.9,43.4c1.4,12.2,2.1,24.5,2.1,36.8c0,9.8-0.8,19.5-2.4,29.1
	c-2.7,16-16.8,37.2-31.2,46.9C291.3,208.8,283.7,211.3,275.8,211.6z"/>
<polyline class="st13" points="230.8,196.2 226.2,254.1 231.5,255.4 254.1,202.1 "/>
<polygon class="st14" points="232,254.6 240.4,234.2 228,231.2 226.3,254.2 "/>
<path class="st8" d="M206.7,249.9c1.4-7,8.2-11.5,15.2-10s11.5,8.2,10,15.2c-0.1,0.3-0.1,0.7-0.2,1"/>
<polyline class="st13" points="260.1,204.3 255.5,262.2 260.8,263.4 283.4,210.2 "/>
<polygon class="st14" points="261.3,262.7 269.7,242.3 257.3,239.2 255.6,262.2 "/>
<path class="st8" d="M236,257.9c1.4-7,8.2-11.5,15.2-10c7,1.4,11.5,8.2,10,15.2c-0.1,0.3-0.1,0.7-0.2,1"/>
<path class="st15" d="M220.1,129.9c0,0,1.7-6.9,12-7.3s11.6,5.8,11.6,5.8L220.1,129.9z"/>
<path class="st16" d="M214,114.6c1.2,4.7-1.7,9.5-6.4,10.6c-0.4,0.1-0.7,0.2-1.1,0.2"/>
<path class="st17" d="M195.8,103.5c0,0,7.9-3,10.6-3.1"/>
<line class="st17" x1="260.7" y1="98.8" x2="250.5" y2="97.7"/>
<path class="st10" d="M245.9,111.9c0.1-4.4,3.8-7.9,8.2-7.8c3.8,0.1,7.1,2.9,7.7,6.7"/>
<path class="st15" d="M246.7,112c-0.1-1.9,1.3-3.5,3.2-3.7c1.9-0.1,3.5,1.3,3.7,3.2l0,0"/>
<path class="st10" d="M198.5,115.3c0.1-4.4,3.8-7.9,8.2-7.8c3.8,0.1,7.1,2.9,7.7,6.7"/>
<path class="st15" d="M199.3,115.4c-0.1-1.9,1.3-3.5,3.2-3.7c1.9-0.1,3.5,1.3,3.7,3.2l0,0"/>
<circle class="st18" cx="202.8" cy="111.5" r="20.7"/>
<ellipse transform="matrix(0.1602 -0.9871 0.9871 0.1602 111.5789 346.4653)" class="st18" cx="259.4" cy="107.7" rx="20.7" ry="20.7"/>
<path class="st18" d="M223.3,107.8c0,0,6.9-9.8,14.8-0.5"/>
<path class="st16" d="M246.2,112.5c-0.7,4.3,4.3,10.6,10.4,9.1"/>
<path class="st16" d="M207,82c13.5,2.4,27.5,1.1,40.3-3.8"/>
<path class="st1" d="M288.1,159.5c0,0-29.2,12.4-43.9-16.4"/>
<path class="st2" d="M250.1,141.3c0.5,1.9-0.4,4.3-2.5,6c-2.7,2.1-6.4,2.1-8.1,0.1l-4.3-4.9c0,0-0.1-0.1-0.1-0.1h-0.1l-5.8-6.7
	c-0.4-0.6-0.2-1.5,0.4-1.9c0,0,0,0,0.1,0c0.6-0.5,1.5-0.5,2.1,0l3.2,3.6c0.2-0.4,0.5-0.8,0.8-1.1l-3.8-4.4c-0.4-0.6-0.2-1.5,0.4-1.9
	c0,0,0,0,0.1,0c0.6-0.5,1.5-0.5,2.1,0l3.8,4.4c0.4-0.2,0.8-0.3,1.2-0.5l-3.3-3.9c-0.4-0.6-0.2-1.5,0.4-1.9c0,0,0,0,0.1,0
	c0.6-0.5,1.5-0.5,2.1,0l5.5,6.2c0.2,0.2,0.4,0.3,0.6,0.5l-0.6-1.6c-0.2-0.8,0.3-1.6,1.1-1.9l0,0c0.6-0.4,1.5-0.2,1.9,0.5
	c0,0,0,0.1,0,0.1"/>
<path class="st19" d="M190.8,256.5l-1-57.6c0,0-0.1-8.1-6.9-8.4l-6.2-0.7"/>
<path class="st2" d="M183.6,195.4c0.6,0.3,1.4,0.1,1.7-0.5l1.2-2c0.3-0.7,0-1.5-0.7-1.8c0,0-0.1,0-0.1,0c-0.7-0.4-1.6-0.3-2.1,0.4
	l-1,1.8c-0.4,0.6-0.2,1.4,0.5,1.7c0,0,0,0,0,0L183.6,195.4z"/>
<path class="st2" d="M180.5,193.9c0.6,0.3,1.4,0.1,1.7-0.4l1.7-2.9c0.3-0.7,0-1.5-0.7-1.8c0,0-0.1,0-0.1,0c-0.7-0.4-1.6-0.3-2.1,0.4
	l-1.6,2.7c-0.4,0.6-0.1,1.4,0.5,1.7c0,0,0,0,0,0L180.5,193.9z"/>
<path class="st2" d="M175.6,193.2c0.6,0.3,1.1,0.5,1.7,0.8c0.6,0.3,1.3,0.1,1.7-0.5l1-1.7c0.3-0.7-0.1-1.5-0.8-1.8c0,0,0,0-0.1,0
	c-0.7-0.4-1.6-0.3-2.1,0.4l-1.6,2.8L175.6,193.2z"/>
</svg>
