<?xml version="1.0" encoding="UTF-8"?>
<svg xmlns="http://www.w3.org/2000/svg" xmlns:xlink="http://www.w3.org/1999/xlink" viewBox="0 0 1334 1000">
  <defs>
    <style>
      .cls-1 {
        fill: #622515;
      }

      .cls-2 {
        fill: #13110f;
      }

      .cls-3 {
        fill: #18536d;
      }

      .cls-4 {
        fill: #273339;
      }

      .cls-5 {
        fill: #5e5f5f;
      }

      .cls-6 {
        fill: #010101;
      }

      .cls-7 {
        fill: #ababab;
      }

      .cls-8 {
        fill: #a63d2e;
      }

      .cls-9 {
        fill: #f1edf6;
      }

      .cls-10 {
        fill: #745245;
      }

      .cls-11 {
        fill: #643c2a;
      }

      .cls-12 {
        fill: #a66e53;
      }

      .cls-13 {
        fill: url(#linear-gradient);
        opacity: .5;
      }

      .cls-14 {
        fill: #070505;
      }

      .cls-15 {
        fill: #5e1a15;
      }

      .cls-16 {
        fill: #ccb631;
      }

      .cls-17 {
        fill: #f2ebd1;
      }

      .cls-18 {
        fill: #706027;
      }

      .cls-19 {
        fill: #a53b23;
      }

      .cls-20 {
        fill: #4f2e25;
      }

      .cls-21 {
        fill: #89772e;
      }
    </style>
    <linearGradient id="linear-gradient" x1="1559.03" y1="726.07" x2="2631.84" y2="726.07" gradientTransform="translate(-127.26 -1593.78) rotate(90) scale(1 -1)" gradientUnits="userSpaceOnUse">
      <stop offset="0" stop-color="#f0ebe0"/>
      <stop offset=".18" stop-color="#eee8dd" stop-opacity=".99"/>
      <stop offset=".33" stop-color="#e8e1d4" stop-opacity=".97"/>
      <stop offset=".46" stop-color="#ded4c5" stop-opacity=".93"/>
      <stop offset=".59" stop-color="#d0c2b0" stop-opacity=".88"/>
      <stop offset=".72" stop-color="#bdab95" stop-opacity=".82"/>
      <stop offset=".84" stop-color="#a78e73" stop-opacity=".73"/>
      <stop offset=".96" stop-color="#8d6d4d" stop-opacity=".64"/>
      <stop offset="1" stop-color="#83603d" stop-opacity=".6"/>
    </linearGradient>
  </defs>
  <g id="Layer_2" data-name="Layer 2">
    <polyline class="cls-17" points="1362.18 1057.34 1362.18 -38.29 -147.86 -38.29 -147.86 1057.34"/>
    <polyline class="cls-13" points="1354 1034.52 -156.37 1034.52 -156.37 -38.29 1354 -38.29"/>
  </g>
  <g id="Layer_3" data-name="Layer 3">
    <path class="cls-16" d="M626.72,454.92s25.06,20.21,36.49,43.4c8.62,17.49,32.29,205.92,37.23,231.5-7.38,7.79,50.45,35.51,44.4,44.39-14.09,20.69-27.02-.63-33.49,23.52-4.89,18.26-41.98,4.13-42.93,23.03-18.23-5.12-40.89-20.1-48.09-31.78-7.78-12.62-26.14-49.45-26.14-49.45l32.53-284.61Z"/>
    <path class="cls-16" d="M662.19,620.84l29.33,79.03,226.64-28.22c-5.17,17.17,9.27,60.49,15.44,83.37,0,0-201.48,63.99-226.8,70.28-89.56,22.22-121.51-37.08-130.42-75.36-5.13-22.04,3.7-121.43,19.08-136.43,3.51-3.42,67.52,7.9,66.71,7.33Z"/>
    <path class="cls-12" d="M744.58,755.57c-11.25-3.07-21.68-18.29-32.13-23.35-7.41-3.59-14.55-3.75-21.35-8.39-7.55-5.15-14.8-7.78-20.9-14.61-2.2-2.47-4.3-2.13-6.1-4.96l-5.95,12.16c-32.26-6.36-206.19,19.05-206.19,19.05l-8.05,62.36s180.2,38.91,253.15,12.96c0,0,24.25-5.09,44.7-43.04,1.83-3.39,3.81-7.25,5.92-11.47-1.03-.2-2.05-.42-3.08-.7Z"/>
    <path class="cls-8" d="M656.15,700.42c37.25,33.72,67.19,35.69,73.16,37.99,5.25,2.02,10.74,4.02,16.31,5.06,23.8-48.16,59.95-134.61,59.95-134.61l-43.21-65.17c-22.97,7.41-39.62-3.68-48.88,18.61l-56.32,137.11"/>
    <path class="cls-10" d="M647.05,605.82c-.13-.03-.26-.06-.39-.09.14-.05.27-.11.41-.16.04.09.04.17-.02.25Z"/>
    <path class="cls-10" d="M645.83,605.75c-.18,0-.36,0-.54,0,.18-.17.36-.17.54,0Z"/>
    <path class="cls-5" d="M463.77,108.38c9.9-8.84,23.17-13.22,34.75-7.04,5.01-24.25,31.65-33.09,55.93-28.22,12.34,3.06,23.79,11.58,36.42,10.17,7.88-.87,14.71-5.31,22.04-8.65,30.56-13.35,66.39,18.56,83.06,47.47,16.67,28.91,5.07,54.2-13.25,82.05-8.52,12.95-9.44,20.85-14.53,35.61-4.8,13.92-19.54,38.46-22.96,52.6-3.42,14.14,15.31,34.07.74,31.9l-151.51-54.19c-24.19-.76-37.36-11.16-44.51-34.29-4.53-15.63-1.81-15.68.81-31.7,2.91-21.07-14.5-41.44-8.5-61.85,3.37-12.92,12.11-24.36,21.51-33.84Z"/>
    <path class="cls-19" d="M444.63,103.06s60-14.3,127.69,9.38c67.7,23.69,91.81,74.06,96.92,107.39,5.11,33.32-15.22,62.43-15.22,62.43,0,0,16.28,8.71,42.22-51.14,37.81-87.24-42.66-163.63-65.2-168.5-22.54-4.87-132.05-54.54-186.41,40.44Z"/>
    <path class="cls-12" d="M464.17,269.58s3.08,50.42-31.81,87.84c-3.95,4.24-42.37,20.81-42.37,20.81l46.48,27.57c26.26,12.86,88,64.67,117.05,61.29l25.56-39.11s-27.09-20.28-26.95-27.1c.14-6.82,17.61-55.89,17.61-55.89"/>
    <path class="cls-20" d="M554.63,391.37s-11.13-4.65-18.59-8.79c-7.45-4.14-21.24-6.91-50.47-47.57,0,0,1.49,41.81,46.47,61.36,0,0,11.54,5.42,19.98,5.38l2.6-10.39Z"/>
    <path class="cls-12" d="M652.51,162.54c.13.17.27.35.41.53-.11-.32-.21-.64-.26-.96l-.14.43ZM670.91,172.98c.2.36.43.73.68,1.1l.12-.36s-.65-1.17-.8-.74ZM481.71,329.35c12.31,24.88,42.81,56.2,72.32,64.52,10.57,2.98,20.87,5.06,32.41-5.43,11.67-10.6,20.36-13.6,32.4-23.04,11.55-9.05,17.31-15.15,25.14-27.51,8.09-12.79,9.25-16.47,12.26-30.89,1.34-6.44,3.94-16.02,6.34-21.84,2.77-6.73,14.71-32.91,20.49-48.67,5.78-15.77,2.95-50.01,2.95-50.01.5-4.62-6.19-4.29-7.38-8.52l-1.87-.63s.79.74.36,2.03c-2.26-1.16-4.2-3.24-5.53-5.27l-.02.07c-3.25.35-5.63-1.88-7.26-4.81-.14.43.04,1.45.51,1.6-2.96-.51-5.34-2.74-6.64-5.08-.14.43.04,1.45-.1,1.88-2-1.1-3.76-2.92-5.15-4.68.24.71,11.37,2.59,11.27,2.89-2.95-.51-.05,1.5-1.68-1.43l-1.79-2.38c-2.49-.35-2.87,1.09-4.17-1.26.32.59.29-5.17.15-4.74-2.81-.94-1.99-.87-3.9-2.94-.14.43-8.6.24-8.74.67-2.34-.78-2.44,1.57-3.74-.77.33.59,2.3-1.24,2.62-.65-2.95-.51-4.62.95-6.24-1.99.32.59-7.7-7.81-7.7-7.81-2.96-.51-2.78.54-4.55-1.97.65,1.17-12.71-5.13-12.53-4.11-2.34-.78,1.61,10.09.17,8.17-.14.43-4.96-3.09-4.96-3.09-2.49-.35.31,2.98-.99.63-.14.43-.1,1.88.37,2.03-3.25.35-6.24-1.6-8.48-4.26.65,1.17.83,2.19,1.16,2.78-2.35-.78-4.36-.98-6.13-3.48-.14.43.36,2.03.83,2.19-2.63.08-5.3-1.29-7.21-3.36-.14.43.51,1.6.83,2.19-2.01-.19-3.89-.82-5.33-2.74l.83,2.19c-1.87-.63-3.57-.23-6.09-2.03-.14.43.65,1.17.51,1.6-1.41-.47-3.28-1.1-4.55-2-.14.43.98,1.76.51,1.6-1.87-.63-3.57-.23-5.62-1.88.32.59.51,1.6.83,2.19-1.88-.63-3.89-.82-5.48-2.31-.14.43.04,1.45.36,2.04-1.88-.63-3.57-.24-5.63-1.88-.14.43.51,1.6.83,2.19-1.88-.63-3.9-.82-5.63-1.88-.14.43.65,1.18.98,1.76-1.88-.63-3.89-.82-5.95-2.46-.29.86.04,1.45-.11,1.88-1.41-.47-2.2-1.21-3.61-1.68l-2.63.08c-9.43,6.42-31.74-8.75-31.74-8.75-18.41,6.77-18.77,72.71-21.03,81.04-2.26,8.33-7.66,9.06-7.66,9.06-1.34-3.79-7.17,4.16-7.43.25-.4-3.48,1.83-7.04,1.43-10.52-1.92-8.29-12.01-9.27-18.61-6.69l-1.33,1.13c-10.42,7.33-12.65,40.19-10.31,50.94-4.52,18.82,8.41,33.77,21.84,23.55l.17,7.98"/>
    <g>
      <path class="cls-6" d="M591.81,314.51c-4.06.65-9.19-1.53-11.95-4.84-.61-.73-3.34-1.13-2.48-.1,3.66,4.37,11.13,7.16,16.37,6.32.52-.09.55-.45.06-.82-.51-.38-1.44-.65-1.99-.56"/>
      <path class="cls-6" d="M576.21,308.08c-1.96-1.87-4.37-3.31-6.9-4.38-.37-.15-.91-.18-1.27-.02-.28.12-.42.37-.18.62.97,1.08,2.4,1.88,3.82,2.32.44.14,1.07.23,1.44-.07.35-.27,0-.64-.35-.75-1.17-.37-2.27-.99-3.07-1.88-.49.2-.97.4-1.46.6,2.26.95,4.41,2.27,6.16,3.94.35.33.98.4,1.43.31.33-.07.75-.35.41-.69"/>
      <path class="cls-6" d="M565.78,304.96c-3.02-1.09-6.15-3.6-6.89-6.38-1.11-4.19,2.81-8.93,7.34-9.86.49-.1.38-.48-.01-.71-.51-.3-1.22-.31-1.73-.21-3.95.81-7.58,4.57-8.16,7.96-.54,3.17,1.67,6.24,5.01,8.33,1,.62,2.09,1.18,3.22,1.59.46.16,1.33.3,1.68.02.35-.29-.02-.59-.45-.74"/>
      <path class="cls-6" d="M597.9,314.83c-.05-.4.33-.53.57-.44.81.3,1.73.35,2.62.02.16.42.32.83.48,1.25-1.7-.37-3.53-.38-5.33.1-.36.1-.74-.17-.92-.48-.14-.23-.22-.68.14-.78"/>
      <path class="cls-6" d="M595.45,314.5c2.01-.54,4.05-.5,5.95-.09.28.06.58.32.69.64.09.25.04.52-.22.61"/>
      <path class="cls-6" d="M604.08,317.35c2,.58,4.77.04,6.5-1.91,2.62-2.95,2.61-7.49.87-10.51-.19-.33.06-.59.36-.59.39,0,.75.34.94.69,1.51,2.63,1.87,6.21.47,9.32-1.31,2.91-3.9,4.38-6.56,4.47-.79.02-1.6-.05-2.35-.27-.3-.09-.8-.41-.82-.81-.03-.41.3-.48.58-.4"/>
    </g>
    <path d="M643.76,265.26c3.05-.48,6.04,1.74,7.24,3.81.28.49.69,1.82.62,3.7-.09,2.4-1.79,4.59-3.66,5.63-2.5,1.4-5.67.73-7.65-1.15-2.68-2.54-2.44-6.71-.72-9.23.32-.46,1.71-2.38,4.18-2.77"/>
    <path d="M617.62,266.18s16-5.74,22.69-4.23c9.76,2.21,19.66,11.34,21.45,17.15,0,0-12.8-12.98-19.72-14.34-6.62-1.3-24.41,1.42-24.41,1.42Z"/>
    <path d="M564.55,239.91c-2.15-2.22-6.46-3.24-8.67-2.3-.52.22-1.93.87-3.01,2.42-1.37,1.97-1.33,4.74-.46,6.7,1.16,2.62,4.1,3.99,6.81,3.68,3.67-.42,5.98-3.9,6.12-6.95.02-.56.87-1.37-.87-3.16"/>
    <path d="M578.66,252.36s-11.27-13.87-18.24-16.43c-10.17-3.73-24.43-1.8-29.4,2,0,0,19.12-3.47,26.21-.65,6.78,2.69,21.42,15.08,21.42,15.08Z"/>
    <path class="cls-7" d="M631.98,229.93c-.68,1.9-1.35,3.81-2.03,5.72-.51,1.46-1.02,2.91-1.53,4.37,5.62.63,10.35,1.43,13.88,2.11,7.48,1.43,11.3,2.19,15.18,4.32,4.08,2.23,7.2,5.05,8.41,6.16,1.7,1.56,2.86,2.57,4.07,4.24,2.64,3.61,3.11,6.79,3.76,6.76.6-.03.58-2.67.58-2.94-.07-6.67-3.69-11.91-3.96-12.32,0,0-2.7-4.02-8.09-7.54-3.72-2.43-14.73-7.18-30.29-10.87"/>
    <path class="cls-7" d="M601.3,223.32c-.91,1.8-1.83,3.61-2.75,5.41-.7,1.38-1.41,2.75-2.11,4.11-5.29-4.09-9.94-7.36-13.49-9.75-7.5-5.06-11.35-7.62-16.32-9.33-5.22-1.8-10.1-2.44-11.99-2.68-2.67-.33-4.45-.59-6.79-.47-5.08.27-7.96,2-8.49,1.45-.49-.49,1.59-2.23,1.81-2.41,5.28-4.36,12.46-4.92,13.01-4.97,0,0,5.44-.49,12.8,1.5,5.07,1.38,18.17,7.08,34.33,17.13"/>
    <path class="cls-6" d="M470.47,243.46c-.92-6.35-2.13-12.74-4.28-18.81-1.06-3-2.36-6.04-4.31-8.57-.72-.94-1.65-2.04-2.77-2.54-1.19-.53-2.29.83-3.01,1.61-3.82,4.15-5.38,9.86-5.66,15.37-.03.61,1.42.33,1.45-.17.23-4.44,1.24-8.92,3.67-12.7.82-1.28,2.13-2.9,3.2-3.63l-.89.18c-.25-.07.03,0,.1.05.16.13.38.21.55.33.71.5,1.36,1.22,1.91,1.92,2.86,3.63,4.4,8.31,5.62,12.69,1.35,4.8,2.25,9.72,2.97,14.65.07.51,1.53.17,1.45-.39h0Z"/>
    <path class="cls-6" d="M465.69,244.39c-7.21-2.54-6.18,9.64-7.82,13.36-.09.21-.19.43-.33.61-.11.14-.44.39-.38.39.17.02-.15-.26-.21-.37-.19-.33-.27-.73-.36-1.09-.57-2.53-.34-5.31-.12-7.87.3-3.61.77-6.81,2.15-10.12,1.46-3.52,3.97-8.64,8.27-9.13.81-.09,1.11-1.2.12-1.08-4.14.47-6.84,4.1-8.62,7.54-1.47,2.83-2.48,5.73-2.92,8.88-.45,3.17-.77,6.42-.61,9.63.07,1.28.04,3.77,1.38,4.52,1.11.61,2.31-.38,2.83-1.32.75-1.36.94-3.06,1.18-4.56.38-2.4.65-9.78,4.62-8.38.63.22,1.7-.69.83-.99h0Z"/>
    <path class="cls-7" d="M681.75,164.81c-.14-.36.06.15,0,0-2.71-6.89-3.79-13.78-6.79-20.54-2.94-6.63-5.92-12.7-9.23-19.15-.19-.38-5.64-1.89-5.83-2.27-.04-.07-.17-.32-.21-.4-.11-.2-.21-.4-.32-.61-.25-.47-.5-.93-.76-1.39-23.17-17.79-54.15-27.18-84.63-25.52-59.2,3.23-104.58,53.84-101.36,113.04.27,5.07-3.96,10.08,0,13.88,3.96,3.8,4.83,2.62,9.96.67,5-2.27,9.4-5.67,12.86-9.93,17.6-19.76,29.48-55.23,30.31-81.68,1.87,5.5,24.28,5.83,28.22,10.09,15.59,16.86,41.89,17.9,58.76,2.31,1.22,3.27,2.71,6.43,4.46,9.46,15.93,27.68,41.26,45.47,68.6,35.49,1-.37-2.35-19.1-4.03-23.46Z"/>
    <path class="cls-4" d="M529.37,224.88l.12,9.68c-.47,7.33.36,22.43,1.52,26.85,1.64,6.19,37.12,19.67,45.54,17.8,8.41-1.87,18.97-21.26,22.39-25.44l14.19,5.42c-.69,6.6-2.44,27.64-.54,31.16,1.89,3.52,18.62,8.33,20.5,8.87,1.57.43,3.76,1.04,6.19,1.6,6.41,1.54,14.34,2.91,17.42,1.34,4.57-2.33,12.57-14.24,19.8-25.62l1.16-1.77c.26-.43.52-.71.57-.85h0l1.3-2.05c-17.63-16.55-45.45-23.62-65.92-16.73l.06.26-13.82-5.35c-12.53-15.65-38.21-30.18-60.33-28.82h0l-64.36-9.31-1.91,5.36,56.13,7.61ZM614.92,288.88c-1.19-2.2-.38-17.07.6-28.53,17.7-5.69,42.76.72,58.86,14.45l-.1.27c-3.88,6.1-14.2,22.32-18.7,24.61-5.32,2.7-38.5-7.25-40.69-10.74l.02-.06ZM535.76,261.3c-1.72-11.55-2.38-23.24-2-34.91,20.06-2.38,49.13,11.8,61.48,26.8-5.25,7.84-13.21,21.93-19.24,23.26-8.68,1.93-39.22-11.24-40.24-15.15h0Z"/>
    <path class="cls-1" d="M442.81,211.79s-43.16-50.56-13.39-86.48c5.72-6.9,5.52-4.23,7.37-10.93,9.73-35.15-4.7-29.7,57.2-58.61,61.91-28.91,69.36-26.36,147.16-1.33,40.12,12.91,58.37,35.38,63.28,63.96,2.21,12.85,1.72,26.93-.68,41.93,0,0-77.74-43.96-133.92-29.15-56.18,14.81-129.44,89.49-125.59,120.04,1.08,8.58-1.44-39.44-1.44-39.44Z"/>
    <path class="cls-19" d="M419.92,165.24s95.76-86.12,190.96-66.48c0,0-113.65-40.63-185.38,30.23l-3.13,9.61c-1.95,5.98-2.85,12.25-2.68,18.54l.23,8.1Z"/>
    <path class="cls-16" d="M606.18,1057.45c5.02-3.08-11.78-170.94-11.72-171.57,3.09-35.99-2.29-84.84,3.03-110.54,0,0,3.04-15.89,8.69-26.99,0,0,20.04-12.59,27.01-23.42,7.46-11.6,14.39-26.31,16.94-39.89,2.99-15.95,4.47-53.21,4.8-69.42.32-15.61.16-31.15-.59-46.75-.71-15.05-1.51-30.09-1.95-45.15-.64-21.81-11.55-31.43-9.22-53.17-3.53-3.3-12.63-12.62-16.45-15.63l-73.27-50.6s19.39,35.43-40.33,25.77c-59.72-9.66-81.75-73.66-81.75-73.66-30,4.14-114.4,27.51-127.9,35.65-21.56,12.93-56.28,287.13-56.28,287.13,0,0-75.57,128.52-89.77,161.14-14.21,32.62-28.61,172.78-28.61,172.78v56.43"/>
    <path class="cls-20" d="M657.25,214.91c-17.58-2.2-34.64-8.1-49.83-17.21-4.28-2.57-8.4-5.39-12.34-8.43-.49-.38-1.77.32-1.12.82,14.15,10.91,30.57,18.83,47.92,23.1,4.9,1.21,9.86,2.12,14.87,2.75.69.09,1.49-.9.51-1.02h0Z"/>
    <path class="cls-18" d="M658.37,564.57c-7.11,9.88-11.01,21.42-12.24,33.48s-.15,24.24,1.11,36.25c1.31,12.51,2.88,25.05,2.73,37.66-.16,12.74-2.3,25.49-7.75,37.08-6.69,14.26-17.89,25.76-30.57,34.87-2.01,1.44-4.05,2.82-6.13,4.16-1.23.79.68.96,1.32.54,13.72-8.84,26.37-19.91,34.58-34.2,6.48-11.28,9.7-23.92,10.5-36.85.77-12.59-.51-25.18-1.85-37.68-1.31-12.26-2.78-24.6-2.17-36.95.6-12.09,3.44-24.05,9.83-34.43.83-1.35,1.72-2.67,2.65-3.96.53-.74-1.63-.52-2.01.01h0Z"/>
    <path class="cls-3" d="M801.69,1268.27c30.46,1.23,60.91,2.55,91.36,3.98,30.29,1.42,60.57,2.93,90.85,4.54,9.13.48,18.25.99,27.38,1.49,12.03-67.14,30.73-124.36,38.65-154.15,29.95-112.61,23.21-188.78-11.11-236.8l-292.21,19.65-1.75,52.64c-11.21,42.7,1.1,176.09,10.87,306.88,15.32.57,30.63,1.16,45.95,1.77Z"/>
    <path d="M778.69,289.16c3.28-6.3,8.8-11.6,10.9-18.31,1.89-6.07.78-12.65,1.52-18.98,2.37-13.07,11.49-24.2,24.56-29.97,12.99-5.57,44.86-17.85,59.35-16.85,14.03.53,28.9,3.26,39.3,12.07,7.33,6.16,11.72,14.71,19.06,20.83,9.96,8.37,23.92,11.11,36.91,14.49,13,3.38,26.82,8.36,33.72,18.98,9.64,14.84,1.67,33.74,6.34,50.36,5.15,2.82,10.65,4.97,16.4,6.41,3.22,1.01,6.26,2.49,9.02,4.39,3,1.99,5.32,4.83,6.71,8.19,1.27,3.63,1.17,7.68-.28,11.41-1.44,3.63-3.19,7.13-5.25,10.47-2,3.23-3.58,6.68-4.72,10.26-1.03,3.46-1.4,7.04-1.09,10.55.52,6.72,3.83,12.73,9.12,16.57,5.03,3.74,11.43,3.8,17.08,5.16,2.82.58,5.47,1.7,7.82,3.31,2.21,1.54,3.77,3.86,4.39,6.54,1.03,4.6-.64,9.56-4.31,12.81-4.89,3.66-11.48,3.37-15.58-.69-.47-.49-.87-1.04-1.17-1.66,1.72,2.13,4.15,3.56,6.88,4.05,3.19.62,6.57-.24,9.23-2.35,3.32-3.02,4.78-7.58,3.79-11.77-.6-2.38-2.01-4.43-4.01-5.78-2.23-1.46-4.72-2.47-7.37-2.99-5.39-1.25-12.13-1.22-17.69-5.24-5.72-4.07-9.32-10.51-9.89-17.72-.32-3.74.07-7.54,1.15-11.22,1.17-3.75,2.82-7.35,4.9-10.72,2-3.24,3.71-6.63,5.13-10.14,1.28-3.3,1.39-6.89.31-10.12-1.25-3.06-3.37-5.65-6.1-7.45-2.63-1.84-5.53-3.27-8.61-4.26-5.31-1.38-10.39-3.4-15.19-5.96,2.4,7,6.76,13.44,9.57,20.35.55,1.37.96,2.87,1.29,4.42,3.92,5.77,6.73,12.15,6.03,18.18-1.44,12.29-7.96,25.12-11.1,35.29-.24.3-.42.65-.48,1.12-.03.27-.06.55-.09.82-.27.99-.48,1.93-.66,2.86.11.2.19.43.31.62-.38,4.67-.34,9.37,1.31,13.83,2.31,6.23,7.66,10.81,13.02,14.43,5.54,3.74,11.9,6.75,18.51,8.28-8.84,7.43-23.15,18.92-28.67,20.16-.33.08-4.01,2.04-4.26,1.83-8.01-4.28-18.29-15.63-23.8-23.56,0,0,8.74,20.48,20.11,26.09l-7.38,4.7c-26.19,16.49-69.28,26.3-100.22,24.9,6.79-5.26,8.63-14.94,7.21-23.42-2.04-8.33-4.08-15.36-7.88-23.05-2.48-6.1,9.43-11.45,9.77-18.05-.64-.16-1.33-.29-1.92-.48l-104.4-113.87c-13.3-9.68-35.33-16.26-28.6-30.13Z"/>
    <path d="M824.53,272.07c-4.98.65-11.42-3.94-17.97-.68-1.85.92-3.04-11.38-4.59-10.39-39.07,12.87-38.36,47.36-39.42,70.04-.44,10.81,6.36,27.37-1.97,34.54-8.33,7.17-22.48,4.88-30.44,12.25-9.37,8.66-4.25,24.18-8.66,36-4.67,11.32-17.39,17.49-30.01,14.56,13.16,13.21,29.79,22.82,48.05,27.76l16.18-15.29c-5.69,5.96-8.95,20.36-8.95,20.36,6.2,8.94,22.99,14.86,27.13,16.33,17.83,6.36,58.64,28.91,113.75,20.83-15.67-68.14-29.69-158.96-45.36-227.1"/>
    <path d="M686.3,401.94c-1.19,2.46-1.51,5.25-.91,7.92.67,3.13,2.69,5.8,5.52,7.3,3.87,1.69,8.37,1.06,11.62-1.63,1.84-1.55,3.07-3.7,3.49-6.08.42-2.62.36-5.3-.2-7.9-.96-5.38-3.53-11.43-2.14-18.14,1.36-6.89,5.58-12.87,11.61-16.47,3.11-1.89,6.56-3.16,10.15-3.77,3.68-.55,7.43-.61,11.13-.18,3.56.41,7.14.5,10.71.28,3.34-.26,6.49-1.7,8.88-4.05,2.18-2.44,3.62-5.44,4.15-8.67.6-3.15.74-6.37.44-9.56-.91-6.05-1.06-12.19-.43-18.27,1-5.38,3.58-10.33,7.41-14.24,3.2-3.05,6.96-5.46,11.06-7.1,2.99-1.28,5.89-2.78,8.67-4.47,2.29-1.55,4.24-3.53,5.75-5.84l-.15.53c-.22.5-.49.97-.81,1.4-1.17,1.77-2.69,3.28-4.46,4.45-2.75,1.83-5.64,3.44-8.65,4.81-3.93,1.7-7.52,4.11-10.57,7.12-3.57,3.74-5.95,8.45-6.84,13.54-.54,5.96-.33,11.97.62,17.88.34,3.33.21,6.69-.39,9.98-.59,3.54-2.17,6.85-4.56,9.53-2.66,2.7-6.21,4.34-9.99,4.63-3.68.26-7.38.18-11.05-.25-3.55-.41-7.13-.37-10.67.15-3.38.55-6.62,1.75-9.55,3.53-5.62,3.34-9.57,8.89-10.9,15.28-1.34,6.12,1.02,11.9,1.98,17.57.57,2.78.59,5.65.08,8.44-.5,2.65-1.92,5.04-4.01,6.75-3.6,2.89-8.52,3.51-12.72,1.6-5.02-2.83-7.25-8.88-5.28-14.3.24-.63.58-1.22.99-1.76Z"/>
    <path class="cls-12" d="M923.73,419.8s-18.9,42.13-10.59,77.07c1.16,4.87,17.67,25.06,17.67,25.06l-13.18,9.37c-22.08,10.59-47.18,13.55-70.97,7.73-.23-.06-.45-.11-.67-.17-16.27-4.05-30.89-13-42.14-25.45l2.91,10.71s10.84-26,12.81-31.56c1.97-5.56,2.48-49.56,2.48-49.56"/>
    <path class="cls-12" d="M819.76,421.94c-.65,25.92-6.96,50.42-8.47,76.3-.05.92-.13,1.91-.72,2.64-.39.48-.96.79-1.51,1.1-2.02,1.1-10.61,9.15-12.63,10.25.13,5.39-3.64,4.81-.47,9.32,6.29,8.94,10.21,23.41,20.88,25.94,27.95,6.61,79.32-11.86,101.1-26.61,2.61-1.77,7.62-7.17,7.42-10.11-.19-2.87-8.88-7.29-10.16-10.51-9.58-24.07,5.5-72.73,5.5-72.73"/>
    <path class="cls-20" d="M893.28,466.31s-12.1,24.06-58.65,28.01c0,0-15.49-.06-22.94-3.4l1.16-9.96,80.42-14.65Z"/>
    <g>
      <path class="cls-12" d="M918,437.1c.74-4.4,6.22-7.69,6.77-11.63,1.6-11.57,4.39-22.93,6.33-34.44,1.61-2.75,3.13-5.96,4.22-7.9,1.69-2.68,4.13-5.63,5.83-8.3,4.82-6,13.43-2.83,17.78,1.86l.64,1.44c5.6,10.07.62,32.7-14.05,46.32-3.27,15.06-17.82,21.85-27.52,12.65Z"/>
      <path class="cls-12" d="M766.52,391.17c1.44-5.77,6.3-16.26,6.63-21.95.39-6.57,4.52-37.91,12.99-56.92,10.32-23.16,19.11-34.18,19.11-34.18,1.41-3.95-9.03-3.43-6.4-6.4l1.77.23s-.94.29-1.09,1.51c2.29-.06,4.69-.99,6.58-2.12,0,.06,0,.07,0,.07,2.51,1.56,5.32.68,7.8-1.07-.05.41-.6,1.16-1.04,1.11,2.61.75,5.42-.13,7.41-1.53-.05.41-.6,1.16-.65,1.57,2.06-.11,4.21-.9,6.03-1.79-.38.39-6.62-1.32-9.18-1.89.15-.18.37-.39.79-.69l2.39-1.23c2.17.69,1.91,2.02,3.89.62-.49.35,1.8-4.33,1.74-3.92,2.66.34,1.96.07,4.33-.87-.05.41,6.91,3.57,6.86,3.98,2.21.28,1.37,2.24,3.35.84-.37.26-.96-.92-1.44-1.4,2.25.81,3.1,2.32,5.42.67-.49.35,9.34-3.34,9.34-3.34,2.61.75,2.05,1.53,4.47.19-.99.7,12.37.81,11.82,1.57,2.21.28-5.27,7.58-3.35,6.59-.05.41,5.26-.57,5.26-.57.92.29.79.74.51,1.06-.14.48-.65,1.4-1.05,1.35,2.5,1.56,5.71,1.15,8.58-.14-.99.7-1.54,1.46-2.03,1.81,2.22.28,3.94.92,6.36-.43-.05.41-1.09,1.51-1.54,1.46,2.11,1.1,4.82,1.03,7.19.1-.05.41-1.04,1.11-1.53,1.46,1.72.63,3.49.86,5.42-.13l-1.54,1.46c1.77.23,3,1.21,5.76.74-.05.41-.99.7-1.05,1.11,1.33.17,3.1.4,4.49.16-.05.41-1.48,1.05-1.04,1.11,1.77.23,3,1.21,5.32.68-.49.35-1.04,1.11-1.54,1.46,1.77.23,3.49.86,5.37.27-.05.41-.6,1.16-1.1,1.52,1.77.23,3,1.21,5.32.68-.05.41-1.04,1.11-1.54,1.46,1.77.23,3.5.86,5.32.68-.05.41-.99.7-1.49,1.05,1.77.23,3.49.86,5.82.33-.1.81-.6,1.16-.65,1.57,1.33.17,2.27-.12,3.59.05l2.11,1.1c5.16,8.93,19.46,27.3,19.46,27.3,12.33,12.74-20.8,28.77-22.23,36.44-1.07,5.75,8.43,25.59,13.27,35.2-1.99,12.28-4.89,24.4-6.66,36.73-.69,4.82-15.28,13.07-15.88,18.2l-13.29,15.7c-19.8,15.42-51.31,23.67-71.59,23.81-9.93.07-18.76,1.63-27.71-6.68-22.46-20.84-43.06-56.41-35.27-87.72Z"/>
      <path class="cls-12" d="M826.18,269.43c-.17.09-.36.18-.54.27.22-.21.43-.44.59-.67l-.05.41Z"/>
      <path class="cls-12" d="M807.1,270.71c-.3.22-.64.43-.98.63l.04-.34s.99-.7.94-.29Z"/>
    </g>
    <g>
      <path class="cls-6" d="M811.71,411.17c2.68,1.85,7.11,2.12,10.25.79.7-.3,2.79.37,1.81.79-4.14,1.76-10.48,1.1-13.93-1.29-.34-.24-.24-.5.24-.59.5-.09,1.26.05,1.62.3"/>
      <path class="cls-6" d="M825.13,412.12c2.06-.62,4.29-.78,6.48-.64.32.02.71.19.92.43.16.18.17.4-.09.5-1.07.42-2.38.47-3.54.29-.37-.06-.84-.21-1.01-.55-.15-.31.23-.44.51-.4.96.15,1.98.1,2.86-.24.28.31.56.62.84.92-1.95-.12-3.95.04-5.79.59-.37.11-.85-.06-1.13-.28-.21-.16-.42-.51-.05-.62"/>
      <path class="cls-6" d="M833.69,413.57c2.54.29,5.67-.36,7.16-2.03,2.26-2.52,1.14-7.43-1.78-9.64-.32-.24-.1-.47.26-.49.47-.03.98.21,1.31.46,2.54,1.93,3.81,6.06,3.04,8.61-.72,2.38-3.38,3.75-6.51,4.04-.93.08-1.91.09-2.86-.01-.38-.05-1.06-.25-1.21-.57-.15-.32.22-.4.58-.36"/>
      <path class="cls-6" d="M807.24,409.28c.17-.26-.05-.48-.26-.51-.69-.08-1.36-.36-1.88-.9-.26.23-.52.47-.78.7,1.35.33,2.66.96,3.78,1.92.22.19.59.14.83,0,.18-.11.4-.39.18-.59"/>
      <path class="cls-6" d="M809.11,409.9c-1.25-1.07-2.72-1.75-4.23-2.12-.22-.05-.53.02-.72.2-.15.14-.21.35-.06.5"/>
      <path class="cls-6" d="M801.93,408.89c-1.64-.29-3.43-1.62-3.99-3.57-.84-2.95.75-6.09,3.05-7.58.25-.16.17-.43-.05-.53-.28-.14-.65-.02-.92.15-2,1.3-3.51,3.65-3.6,6.3-.08,2.47,1.26,4.39,3.14,5.37.56.29,1.16.52,1.78.63.25.04.71,0,.87-.28.16-.28-.05-.44-.28-.48"/>
    </g>
    <path d="M774.8,334.39c10.68-2.98,17.48-2.81,35.45.24l.02.41c.17,2.35.07,1.04.24,3.4.13,1.8.25,3.59.37,5.39-5.87-1.08-10.12-2.42-13.89-2.78-7.13-.69-15.29-2.34-22.44-1-1.32-3.14-.47-3.81.25-5.65Z"/>
    <path d="M850.45,343.35c-.17,2.35-.07,1.04-.24,3.4-.13,1.8-.25,3.59-.37,5.39,6.56-1.02,11.31-2.32,15.53-2.64,8.37-.65,17.99-2.35,26.27-.57,3.96.85,9.64,2.18,12.27,5.61.71.92,1.92,4.12,3.54,3.6.67-.21-.18-3.19-.26-3.49-1.73-6-7.19-8.86-13.99-10.78-13.86-3.91-21-4.03-42.73-.93"/>
    <path d="M898.69,251.2c7.84-.39,16.25-.38,22.83,3.86,6.95,4.53,7.46,14.62,13.31,20.78,33.96,35.74,13.03,60.15,24.9,91.02-3.4.79-6.74,2.06-9.97,3.9-6.29,3.59-13.12,11.31-17.18,16.95-10.09-3.07-10.17-10.15-13.52-21.91-3.11-10.87,1.54-27.19-6.1-35.31-10.15-10.69-32.77-2.75-42.96-13.43-5.95-6.18-9.35-21.06-15.21-26.62-5.86-5.56-9.77-5.69-17.8-5.2-8.02.49-16.3,1.94-24.07-.09-7.77-2.03-19.48-6.6-18.44-14.57,32.49-9.61,70.38-17.73,104.22-19.38Z"/>
    <path class="cls-8" d="M735.2,768.76c2.36,2.34.57,8.74,7.43,70.76,1.24,11.24,2.99,53.18,1.63,64.06,9.96,2.12,11.15,2.73,21.33,3.37,44.51,2.82,88.7-7.8,130.27-22.92,35.56-12.93,69.66-29.4,103.53-46.2l-1.3-2.37-43.55-323.55-39.73-17.59-2.71-1.22-1.99,3.22c-11.37,17.47-39.79,41.29-61.25,43.93-6.28.77-12.93,1.16-19.73,1.08-18.97-.24-44.13-14.54-20.07-39.36.45-.46-33.15,16.3-35.69,17.52-13.69,6.58-22.54,12.71-32.7,18.89-7.03,4.28-12.89,10.27-16.81,17.51-7.08,13.06-15.68,36.12-13.36,68.74"/>
    <path class="cls-8" d="M742.62,839.53s-5.21,119.16-5.62,140.1c0,0,105.79,17.22,213.48-8.61,107.7-25.83,114.36-35.92,114.36-35.92l-36.29-104.64-19.03-116.5-254.53,113.91"/>
    <path class="cls-15" d="M911.28,493.37c-.61,1.02-1.17,1.86-1.98,3.03-1.89,2.74-3.91,5.39-6.03,7.95-6.78,8.2-14.6,15.58-23.38,21.62-11.14,7.66-23.94,12.99-37.43,14.53-8.11.92-16.68.8-24.58-1.39-5.22-1.45-10.3-3.94-13.94-8.05-1.6-1.82-3.03-3.94-3.7-6.28-1.06-3.67-.31-7.61,1.79-10.76,2.37-3.56,4.81-7.08,7.21-10.62.24-.36.49-.72.73-1.07.67-.99-.67-1.33-1.4-1-4.06,1.8-8.12,3.6-12.17,5.4-1.02.45-1.53,1.13-2.21,2.01-1.65,2.13-3.13,4.41-4.4,6.79-3.4,6.39-5.4,14.28-1.7,21,2.83,5.14,7.51,9.23,12.54,12.12,15.22,8.75,34.29,8.14,50.87,4.33,19.16-4.4,37.22-13.74,52.33-26.25,7.11-5.89,13.89-12.32,20.32-18.95,2.23-2.3,4.56-4.64,6.45-7.25.06-.09.13-.17.19-.26.28-.41.23-.9-.29-1.09-5.85-2.14-11.7-4.27-17.55-6.41-.96-.35-2.54,1.03-1.25,1.5,5.85,2.14,11.7,4.27,17.55,6.41l-.29-1.09c-1.07,1.59-2.44,3.02-3.73,4.43-4.84,5.29-10.08,10.23-15.37,15.07-7.83,7.16-16.09,13.69-25.3,19-8.04,4.64-16.58,8.44-25.45,11.18-16.46,5.08-35.48,7.25-51.81.52-5.6-2.31-10.86-5.77-14.69-10.52-1.97-2.45-3.57-5.17-4.11-8.31-.62-3.6.09-7.33,1.35-10.72,1.11-2.97,2.63-5.8,4.41-8.42.6-.88,1.22-1.74,1.88-2.58.21-.27.9-.84.97-1.19,0-.01-.62.27-.23.21.29-.05.64-.28.9-.4,1.01-.45,2.02-.89,3.02-1.34,2.44-1.08,4.88-2.17,7.33-3.25.47-.21.94-.42,1.41-.62l-1.4-1c-2.35,3.47-4.71,6.94-7.06,10.41-1.39,2.04-2.63,4.07-3.19,6.52-.84,3.71-.03,7.45,1.97,10.65,7.13,11.36,22.47,13.59,34.73,13.42,14.57-.2,28.78-4.64,41.24-12.08,10.04-6,18.98-13.74,26.7-22.5,2.61-2.96,5.08-6.04,7.39-9.24,1.12-1.56,2.47-3.2,3.32-4.94.04-.08.09-.15.13-.22.63-1.06-1.58-1.12-2.08-.27Z"/>
    <path class="cls-6" d="M930.12,406.18c2.95-5.43,6.15-10.78,10.02-15.61,2.02-2.52,4.24-4.98,6.88-6.87.69-.49,1.42-.95,2.19-1.29.18-.08.68-.27.64-.25.16-.05.62-.16.46-.13.07-.02.15-.02.22-.04.2-.04,0,.02,0,0-.07.2.38-.44,0-.01-.44.47-.13-.36-.15.03,0,.07.13.2.16.26.22.5.51.98.73,1.49,2.18,5.25,1.61,11.21-.04,16.51-.13.42,1.3.23,1.44-.21,1.61-5.2,2.2-11.01.24-16.2-.39-1.04-.76-2.71-2.08-2.57-1.31.14-2.59.76-3.7,1.43-2.64,1.59-4.87,3.82-6.88,6.13-4.6,5.3-8.24,11.4-11.58,17.54-.18.32,1.21.21,1.44-.21h0Z"/>
    <path class="cls-6" d="M932.99,409.48c4.45.07,2.73,6.4,2.19,9.05-.29,1.44-2.2,7.98,1.03,7.74,1.49-.11,2.35-1.7,2.94-2.87,1.33-2.68,2.16-5.62,2.88-8.51.44-1.78.94-3.59,1.03-5.42.08-1.52.06-3.05-.05-4.57-.3-4.13-1.29-9.41-5.37-11.46-.43-.22-1.76.41-1.15.71,3.52,1.77,4.54,6.24,4.95,9.82.3,2.64.37,5.35-.16,7.96-.61,3.02-1.37,6.04-2.43,8.94-.4,1.09-.84,2.18-1.41,3.18-.19.34-.4.69-.65.99-.1.11-.22.22-.31.33-.2.26.09.11.02.04-.85-1.04-.69-2.35-.51-3.62.26-1.86.73-3.69,1.05-5.54.55-3.2.84-7.52-3.49-7.59-.56,0-1.54.82-.56.84h0Z"/>
    <path class="cls-2" d="M791.41,352.03c-2.41-1.67-5.59-.9-7.47.38-.44.3-1.64,1.17-2.36,2.81-.92,2.09-.36,4.67.81,6.34,1.57,2.23,4.56,2.97,7.03,2.18,3.35-1.07,4.86-4.74,4.43-7.61-.08-.52-.48-2.74-2.43-4.1"/>
    <path class="cls-2" d="M813.66,363.71s-11.49-11.55-17.93-13.02c-9.4-2.15-16.49,1.28-20.46,5.51,0,0,11.22-5.53,17.8-3.82,6.29,1.63,20.6,11.33,20.6,11.33Z"/>
    <path class="cls-2" d="M865.5,362.5c2.76-1.01,5.63.54,7.14,2.25.35.4,1.3,1.55,1.58,3.31.36,2.25-.82,4.61-2.38,5.93-2.08,1.77-5.16,1.72-7.35.34-2.97-1.88-3.51-5.81-2.37-8.48.21-.49,1.16-2.53,3.39-3.35"/>
    <path class="cls-2" d="M850.44,368.64s14.9-8.13,21.95-7.91c12.72.39,23.49,8.99,26.49,14.12,0,0-16.92-11.73-24.17-11.79-6.93-.06-24.27,5.59-24.27,5.59Z"/>
    <path class="cls-8" d="M778.07,518.75c-16,9.42-43.54,16.19-57.07,31.76-16.68,19.17-15.47,21.23-27.76,56.64-6.18,17.82-12.96,38.58-15.59,51.82-.2,1-1,4.53-2.16,9.45,4.69,2.12,8.71,5.83,11.94,10.05,5.89,7.7,9.77,16.84,13.17,25.85,3.42,9.07,6.21,18.36,9.25,27.57,1.18,3.58,2.39,7.2,3.86,10.65,2.69,6.31,7.71,11.47,12.33,16.4,2.51,2.68,4.99,5.38,7.24,8.28,2.11,2.71,4,5.36,4.99,8.68.56,1.88.86,3.81,1.02,5.75,5.6-9.21,10.55-18.82,14.8-28.75,8.26-19.27,13.96-39.54,17.75-60.15,3.86-21.01,5.78-42.36,6.39-63.71.62-21.5-.04-43.03-1.39-64.49-1.12-17.81,2.99-28.04,1.22-45.79Z"/>
    <path class="cls-16" d="M566.12,815.67l-218.86-101.57,9.84-187.54,23.34-138.61s-125.42-28.42-151.23,82.01c-11.8,60.45-21.7,177.06-21.4,212.56,0,24.21-.8,54.03.22,71.4-2.74,26.69,12.54,65.83,32.18,74.4,47.07,20.53,103.37,37.18,103.37,37.18,0,0,59.18,12.76,60.18,12.78,51.49,2.35,90.39,20.37,127.77,24.1l17.94,9.65c1.43-27.59,19.19-70.56,16.66-96.35Z"/>
    <path class="cls-21" d="M207.41,735.01c.22,17.19,2.95,34.4,8.11,50.8,4.75,15.1,11.66,29.98,21.96,42.13,4.02,4.74,8.59,9.09,13.81,12.48,4.1,2.66,8.49,4.88,12.9,6.96,12.69,5.98,25.83,11.01,38.78,16.38,17.51,7.25,34.86,14.88,51.81,23.36,6.25,3.13,12.39,6.44,18.77,9.31,5.45,2.46,10.99,4.72,16.56,6.88,12.71,4.93,25.62,9.34,38.6,13.51,12.88,4.15,25.84,8.05,38.85,11.8,10.44,3.01,20.92,5.92,31.42,8.72,5.39,1.44,10.78,2.86,16.19,4.23.24.06.48.12.72.18.48.12,1.82,0,1.96-.64,1.91-9.01,3.83-18.03,5.74-27.04,3.04-14.31,6.08-28.62,9.12-42.93.7-3.28,1.39-6.56,2.09-9.84.03-.09,0-.18-.07-.24-2.94-1.91-5.89-3.82-8.83-5.73-7.49-4.85-14.98-9.71-22.47-14.56-9.92-6.43-19.83-12.86-29.75-19.28-10.33-6.7-20.67-13.4-31-20.1-8.62-5.58-17.23-11.17-25.85-16.75-4.87-3.16-9.74-6.31-14.61-9.47-2.9-1.88-5.3-4.44-7.84-6.78-4.56-4.2-9.09-8.46-14.23-11.94-9.06-6.13-18.11-12.26-27.17-18.38-1.9-1.29-3.81-2.58-5.71-3.87-.87-.59-1.88-1.56-2.87-1.94-.25-.09-.15-.13-.11.09-.01-.07.01-.2.03-.27.09-.41.08-.87.12-1.29.46-4.79.92-9.57,1.37-14.36.83-8.69,1.66-17.38,2.49-26.07,1.07-11.17,2.14-22.34,3.21-33.51,1.18-12.35,2.36-24.69,3.54-37.04,1.16-12.08,2.31-24.15,3.47-36.23,1-10.48,2.01-20.96,3.01-31.44.72-7.52,1.44-15.04,2.16-22.56.31-3.19.53-6.4.92-9.58.58-4.67,1.28-9.32,1.71-14.01,1.04-11.41,1.4-22.95.4-34.37-.97-11.18-3.09-23.46-9.96-32.68-2.85-3.82-6.64-6.85-11.15-8.47-.58-.21-2.55.68-1.75.96,12.18,4.37,17.01,18.12,19.21,29.75,2.58,13.62,2.44,27.75,1.39,41.53-.45,5.93-1.32,11.78-2.02,17.68-.51,4.33-.83,8.7-1.25,13.04-.94,9.81-1.88,19.61-2.82,29.42l-3.78,39.53c-1.37,14.34-2.74,28.67-4.12,43.01-1.28,13.4-2.56,26.8-3.85,40.2-.99,10.33-1.98,20.67-2.97,31l-1.47,15.41c-.02.22-.04.45-.06.67-.03.09,0,.18.07.24,8.76,5.93,17.52,11.85,26.27,17.78,3.83,2.59,7.69,5.16,11.5,7.78,3.56,2.45,6.77,5.55,9.95,8.46,2.42,2.21,4.81,4.45,7.24,6.64.6.54,1.17,1.13,1.83,1.6,1.37.99,2.86,1.85,4.27,2.77,3.11,2.02,6.22,4.03,9.33,6.05,9.87,6.4,19.75,12.8,29.62,19.2,11.92,7.73,23.85,15.46,35.77,23.19,10.88,7.05,21.76,14.11,32.64,21.16,6.61,4.29,13.23,8.58,19.84,12.86.6.39,1.2.86,1.83,1.19.12.06.25.15.36.23-.13-.1.04-.34-.08-.02-.33.89-.42,1.96-.61,2.88l-1.21,5.68c-2.71,12.77-5.42,25.54-8.13,38.3-2.2,10.36-4.4,20.72-6.6,31.07-.12.55-.23,1.11-.35,1.66.65-.21,1.3-.43,1.96-.64-3.74-.94-7.47-1.91-11.2-2.9-9.48-2.5-18.94-5.08-28.38-7.74-12.58-3.55-25.11-7.24-37.59-11.13-13.14-4.1-26.22-8.4-39.15-13.13-11.21-4.1-22.39-8.46-33.09-13.78-8.36-4.16-16.63-8.49-25.08-12.47-8.63-4.07-17.35-7.95-26.13-11.69-14.07-6.01-28.32-11.56-42.36-17.63-9.66-4.18-19.62-8.49-27.62-15.49-11.66-10.2-19.66-24.16-25.37-38.39-6.35-15.82-10.1-32.73-11.52-49.7-.34-4.1-.54-8.21-.59-12.33,0-.54-2.18-.17-2.17.58h0Z"/>
    <path class="cls-12" d="M975.56,626.89c-15.94-1.95-25.9,71.02-41.58,67.62l1.67,90.08.56,24.45c-36.14,4.62-216.38,80.29-216.38,80.29l9.25,44.06s135.27-5.24,252.28-43.63c0,0,40.7-12.96,48.89-60.02,3.5-20.11,4.29-170.49,4.52-202.85-17.41,4.58-41.49,2.16-59.21,0Z"/>
    <path class="cls-12" d="M534.73,864.55l-7.86,32.9-5.04,27.62s46.42,20.26,58.56,20.31c12.13.05,42.14-.67,42.14-.67-1.93,3.52-2.67,7.63-2.1,11.63.95,4.54,3.59,8.42,7.3,10.74l14.91-18.79c2.28,9.84,10.94,3.74,10.94,3.74l11.21-16.76c2.31,12.33,13.73,4.69,13.73,4.69l8.26-24.41c2.39,4.46,5.57,8.35,9.37,11.45,5.01,3.38,8-6.33,8-6.33l-15.38-41.54-52.19-24.35-90.08,12.03-11.77-2.27Z"/>
    <path class="cls-12" d="M739.13,930.63c-1.21.51-18.18,3.76-27.16,10.92-8.98,7.15-30.67,15.66-30.67,15.66,0,0-38.1,7.67-43.02,6.44-4.91-1.24-10.95-8.82-10.95-8.82-3.23-.38-6.53-.35-9.84.09-8.94.53-12.93-9.22-12.93-9.22l11.19-4.79c-10.42,4.72-21.06,8.88-31.86,12.45-3.22.56-3.81-1.38-3.64-3.88.4-3.7,2.46-7.2,5.64-9.55l49.69-38c-7.12-3.97-13.76-8.64-19.82-13.95-6.2-5.37-1.34-10.31.4-11.59,1.75-1.28,23.34,4.24,23.34,4.24,0,0,33.45-3.31,40.43-2.35,6.97.96,43.8,8.17,43.8,8.17l7.33-.62s9.27,44.31,8.06,44.82Z"/>
    <path class="cls-20" d="M646.01,962.36c-6.52-.06-12.47-3.17-16.93-7.8-.82-.85-1.85-.81-3.03-.89-2.83-.19-5.56.09-8.38.27-3.27.21-6.27-1.56-8.41-3.89-1.27-1.38-2.43-3.01-3.15-4.76l-.9,1.18c3.73-1.6,7.46-3.19,11.19-4.79l-1.29-1.53c-7.04,3.18-14.18,6.12-21.42,8.79-1.82.67-3.65,1.33-5.49,1.97-.91.32-1.82.63-2.73.93-.72.24-1.59.72-2.36.61-2.33-.34-1.11-4.75-.64-6.04,1.66-4.57,6.13-7.23,9.81-10.05,11.45-8.76,22.9-17.51,34.35-26.27,3.31-2.54,6.63-5.07,9.94-7.61.43-.33.9-1,.22-1.39-5.5-3.08-10.76-6.58-15.69-10.51-2.24-1.78-5.31-3.75-6.43-6.49-.76-1.85-.34-3.78.79-5.38.4-.56.88-1.03,1.37-1.51.22-.21.48-.19.08-.13-.21.03-.68.07-.21.09.4.02-.15-.02.31,0,.24,0,.48.02.72.04.66.05,1.31.13,1.96.23,3.32.47,6.61,1.21,9.89,1.95,2.7.61,5.38,1.25,8.06,1.92,1.03.26,1.87.27,2.91.17,6.01-.58,12.02-1.1,18.04-1.54,4.13-.31,8.26-.58,12.4-.75,2.76-.11,5.63-.3,8.38.07,1.35.18,3.21-1.71,1.14-1.98-2.59-.34-5.27-.18-7.87-.1-3.83.13-7.66.37-11.48.64-6.61.47-13.22,1.03-19.82,1.66-.47.04-1.14-.01-1.59.15-.23.09,1.05.21.51.01-.28-.1-.6-.15-.9-.23-2.89-.72-5.79-1.41-8.7-2.06-3.45-.77-6.92-1.52-10.43-1.97-1.11-.14-2.26-.28-3.38-.15-1.36.16-2.36,1-3.26,1.98-1.44,1.55-2.52,3.53-2.44,5.69.13,3.18,2.62,5.27,4.88,7.17,5.7,4.79,11.84,9.02,18.33,12.66l.22-1.39c-2.89,2.21-5.78,4.42-8.67,6.63-6.18,4.73-12.36,9.46-18.55,14.18-5.75,4.4-11.51,8.8-17.26,13.2-4.13,3.16-8.82,6.06-10.68,11.19-.71,1.96-1.5,5.28.24,6.96,2.3,2.23,6.37.12,8.79-.72,7.57-2.63,15.05-5.52,22.41-8.68,1.85-.8,3.69-1.61,5.53-2.44.5-.22,1.21-.81.78-1.4s-1.54-.35-2.07-.12c-3.73,1.6-7.46,3.19-11.19,4.79-.35.15-1.11.67-.9,1.18,1.12,2.71,3.05,5.21,5.34,7.02,1.96,1.55,4.29,2.51,6.78,2.75,1.75.17,3.48-.17,5.23-.27,2.13-.12,4.26-.03,6.38.21l-.85-.35c4.52,5.45,11.95,8.81,18.96,8.87.68,0,1.7-.2,2.02-.89.3-.64-.26-1.08-.89-1.09h0Z"/>
    <path class="cls-20" d="M633.8,904.25c4.02-4.16,8.58-7.37,13.58-10.24,2.51-1.44,4.9-3.05,7.48-4.38s5.46-2.63,8.29-3.72c.58-.22,1.15-.96.74-1.55-.45-.65-1.49-.44-2.09-.21-2.9,1.12-5.74,2.39-8.49,3.82-2.76,1.44-5.33,3.17-8.04,4.69-5.19,2.9-9.89,6.44-14.03,10.72-.51.53-.24,1.21.39,1.45.73.28,1.66-.05,2.18-.58h0Z"/>
    <path class="cls-20" d="M651.03,921.53c-.02-.22.14-1.04.37-.99-.03,0-.19.15-.21.16-.42.23-.16.12-.48.31-.82.49-1.65.96-2.48,1.43-2.66,1.49-5.35,2.96-8.02,4.44-7.37,4.1-14.6,8.44-22.03,12.42-3.75,2.01-7.53,4.3-11.7,5.26-1.94.45-1.32,2.69.6,2.25,4.05-.94,7.65-3,11.3-4.92,3.89-2.05,7.72-4.22,11.53-6.4,6.76-3.87,13.58-7.62,20.36-11.45,1.11-.63,4.01-1.71,3.85-3.32-.15-1.49-3.24-.73-3.08.83h0Z"/>
    <path class="cls-20" d="M662.09,936.11c-4.69,4.45-10.03,8.16-15.9,10.88-3,1.39-5.79,3.09-8.9,4.28s-6.33,2.1-9.61,2.7c-.34.06-1.8.36-1.81.84,0,.52.9.36,1.23.3,3.62-.67,7.18-1.63,10.63-2.9,3.42-1.27,6.56-2.95,9.79-4.59,3.12-1.59,6.21-3.14,9.12-5.11s5.67-4.19,8.23-6.62c.51-.48-.45-.52-.73-.5-.66.04-1.57.27-2.06.74h0Z"/>
    <path class="cls-15" d="M707,615.28c2.79,4.02,4.65,8.9,5.95,13.57,1.24,4.46,2.04,8.95,1.52,13.55-.93,8.28-2.71,16.47-4,24.69-1.81,11.61-3.17,23.32-3.35,35.08-.19,12.23.83,24.71,4.64,36.4,3.68,11.29,10.24,21.57,19.94,28.59,1.27.92,2.58,1.77,3.92,2.57.53.32,2.32-.57,2.05-.74-10.46-6.25-17.98-15.92-22.38-27.2-4.44-11.4-5.89-23.8-6.02-35.97-.12-11.95,1.08-23.88,2.81-35.68,1.29-8.78,3.07-17.49,4.29-26.28.43-3.09.58-5.9.13-9.01-.97-6.71-3.21-13.43-6.75-19.24-.19-.31-.38-.63-.59-.93-.36-.52-2.34.34-2.17.58h0Z"/>
    <path class="cls-21" d="M342.9,732.15c-14.38-1.67-29.22,2.05-41.26,10.06-3.4,2.27-6.55,4.89-9.41,7.81-.37.37.32.48.55.49.49.01,1.1-.2,1.45-.55,9.48-9.67,22.41-15.77,35.9-16.95,3.8-.33,7.62-.27,11.4.17.46.05,1.19-.07,1.54-.41.28-.28.33-.56-.16-.61h0Z"/>
    <path class="cls-20" d="M934.35,809.51c14.07,1.33,26.39,12.38,29.66,26.05.28,1.18,3.37.38,3.08-.83-3.5-14.59-16.73-25.72-31.59-27.13-.65-.06-1.71.24-2.03.88s.29.98.87,1.03h0Z"/>
    <path class="cls-11" d="M575.47,326.27c-12.62-5.44-32.43-15.71-32.43-15.71,0,0-13.63,33.55,15.64,46.12,31.61,13.57,46.02-20.34,46.02-20.34,0,0-16.61-4.62-29.22-10.06Z"/>
    <path class="cls-14" d="M575.6,326.32c-6-2.59-27.98-13.01-27.98-13.01,0,0-.99,22.05,20.7,31.4,23.52,10.14,31.07-8.06,31.07-8.06l-23.79-10.33Z"/>
    <path class="cls-9" d="M575.48,327.31c-6-2.59-23.82-11.45-23.82-11.45,0,0,3.79,9.27,21.79,17.03,17.99,7.76,26.4,3.97,26.4,3.97l-24.37-9.55Z"/>
    <path class="cls-11" d="M606.21,336.79c-.57-.43-1.4-.4-4.27-1.94-4.78-2.56-5.44-4.54-8.92-6.36-5.94-3.11-10.87-2.42-13.54-3.57-2.67-1.15-5.55-5.21-11.89-7.39-3.71-1.28-13.17-3.84-18.32-5.56-3.09-1.03-6.09-3.67-6.79-3.8-.98-.17-2.01,6.95,31.55,21.42,33.56,14.47,32.96,7.79,32.17,7.19Z"/>
    <path class="cls-11" d="M820.17,426.78c11.73,1.47,30.89,2.64,30.89,2.64,0,0-4.19,27.99-31.38,24.53-29.36-3.74-25.61-32.28-25.61-32.28,0,0,14.36,3.64,26.09,5.11Z"/>
    <path class="cls-14" d="M820.06,426.76c5.58.7,26.42,2.64,26.42,2.64,0,0-8.69,15.16-28.86,12.62-21.87-2.75-19.71-17.99-19.71-17.99l22.15,2.73Z"/>
    <path class="cls-9" d="M819.72,427.47c5.58.7,22.65,2,22.65,2,0,0-6.79,4.67-23.52,2.57-16.73-2.1-21.38-8.05-21.38-8.05l22.25,3.49Z"/>
    <path class="cls-11" d="M792.76,421.36c.61-.05,1.21.3,4.01.43,4.66.23,5.99-.83,9.37-.64,5.76.33,9.13,2.79,11.62,3.1,2.48.31,6.36-1.24,12.02-.13,3.32.65,11.46,2.77,16.03,3.71,2.74.56,6.11,0,6.69.21.8.28-1.47,5.47-32.68,1.54-31.21-3.92-27.9-8.15-27.05-8.23Z"/>
    <path class="cls-8" d="M954.53,511.92s58.26,26.73,75.72,64.5c11.73,25.38,17.07,126.32,17.07,126.32l-28.72,9.95c-23.75,8.22-48.88,10.74-73.62,7.36l-36-4.92,45.56-203.21Z"/>
    <path class="cls-15" d="M931.43,716.29c-4.32-1.18-8.63-2.36-12.95-3.54l.46.46c-.59-5.22-1.02-10.47-1.4-15.72-.89-12.25-1.42-24.53-1.46-36.81-.04-14.17.48-28.43,2.54-42.47s6.54-29.15,14.46-41.79c3.41-5.45,7.64-10.45,12.85-14.26,4.27-3.12,9.12-5.28,14.21-6.66,1.23-.33,2.47-.62,3.72-.88,1.37-.28.94-1.83-.41-1.54-5.23,1.08-10.35,2.79-14.99,5.46-5.23,3.01-9.73,7.11-13.45,11.84-5.13,6.53-8.87,14.09-11.89,21.79-2.49,6.38-4.34,12.92-5.62,19.65-2.66,14.06-3.44,28.46-3.6,42.74-.15,13.07.3,26.15,1.16,39.2.3,4.46.64,8.92,1.04,13.38.19,2.09.24,4.28.63,6.35.02.1.02.2.03.29.02.2.29.41.46.46,4.32,1.18,8.63,2.36,12.95,3.54.51.14,1.2.05,1.54-.41.28-.38.24-.95-.29-1.09h0Z"/>
    <path class="cls-20" d="M656.95,717.33c12.78,8.39,17.2,24.04,18.78,38.41.12,1.06,3.22.38,3.08-.83-1.62-14.8-6.32-30.5-19.42-39.1-.87-.57-3.71.7-2.45,1.52h0Z"/>
  </g>
</svg>