<?xml version="1.0" encoding="UTF-8"?>
<svg id="Layer_2" data-name="Layer 2" xmlns="http://www.w3.org/2000/svg" xmlns:xlink="http://www.w3.org/1999/xlink" viewBox="0 0 1334 1000">
  <defs>
    <style>
      .cls-1 {
        fill: #131429;
      }

      .cls-2 {
        fill: #040404;
      }

      .cls-3 {
        fill: #101931;
      }

      .cls-4 {
        fill: #010101;
      }

      .cls-5 {
        fill: #231f20;
      }

      .cls-6 {
        fill: #f1edf6;
      }

      .cls-7 {
        fill: #f1eef7;
      }

      .cls-8 {
        fill: #3d4e83;
      }

      .cls-9 {
        fill: #643c2a;
      }

      .cls-10 {
        fill: #a66e53;
      }

      .cls-11 {
        fill: #0a2f44;
      }

      .cls-12 {
        fill: url(#linear-gradient);
        opacity: .5;
      }

      .cls-13 {
        fill: #3d3d3d;
      }

      .cls-14 {
        fill: #070505;
      }

      .cls-15 {
        fill: #f2ebd1;
      }

      .cls-16 {
        fill: #628e9f;
      }

      .cls-17 {
        fill: #825639;
      }

      .cls-18 {
        fill: #0f1930;
      }

      .cls-19 {
        fill: #381c13;
      }

      .cls-20 {
        fill: #4f2e25;
      }
    </style>
    <linearGradient id="linear-gradient" x1="5223.64" y1="-2822.65" x2="6283.07" y2="-2822.65" gradientTransform="translate(-2163.79 -5222.54) rotate(90)" gradientUnits="userSpaceOnUse">
      <stop offset="0" stop-color="#f0ebe0"/>
      <stop offset=".18" stop-color="#eee8dd" stop-opacity=".99"/>
      <stop offset=".33" stop-color="#e8e1d4" stop-opacity=".97"/>
      <stop offset=".46" stop-color="#ded4c5" stop-opacity=".93"/>
      <stop offset=".59" stop-color="#d0c2b0" stop-opacity=".88"/>
      <stop offset=".72" stop-color="#bdab95" stop-opacity=".82"/>
      <stop offset=".84" stop-color="#a78e73" stop-opacity=".73"/>
      <stop offset=".96" stop-color="#8d6d4d" stop-opacity=".64"/>
      <stop offset="1" stop-color="#83603d" stop-opacity=".6"/>
    </linearGradient>
  </defs>
  <polyline class="cls-15" points="-44.67 1042.13 -44.67 -14.34 1362.37 -14.34 1362.37 1042.13"/>
  <polyline class="cls-12" points="-44.67 1057.04 1362.37 1057.04 1362.37 -2.39 -44.67 -2.39"/>
  <path class="cls-16" d="M733.64,611.44s-85.81,48.5-99.43,34.67c-9.1-9.23,7.57-18.67-.97-28.42l-125.77-36.43c-8.59-3.58-88.06-30.45-88.42-27.08l4.97,4.66c-.15,14.35-9.78,38.03-19.62,48.69l-6.57,12.38c-1.16,4.29,70.18,38.84,77.53,43.1,31.39,18.2,114.25,55.99,131.82,65.43,24.86,13.36,79.93,9.16,102.71-14.14,15.96-16.31,27.35-79.75,23.76-102.87Z"/>
  <path class="cls-10" d="M604.41,782.48c1.71-10.32,5.23-20.32,9.78-29.72,4.7-9.7,10.61-18.86,17.63-27.04,5.44-6.35,12.08-12.67,19.55-17.42l-35.57-174.3c-3.63-20.83-20.81,58.41-39.02,47.66l-58.63-2.79s32.52,120.44,43.8,160.72c11.28,40.28,33.16,50.26,33.16,50.26,2.53,1.6,5.28,3.15,8.22,4.65.03-4.04.43-8.09,1.08-12.03Z"/>
  <path class="cls-10" d="M637.5,713.59l-1.83-4.23c-6.64,6.67-73.18-16.96-77.41-8.59-4.71,9.32-12.57,25.76-14.8,35.96-2.12,9.69,32.59,53.05,63.37,54.88,14.6.87-3.34,6.82-2.59,10.04,78.46,19.26,258.3-8.75,258.3-8.75l.87-1.54-8.64-49.48-1.25-9.64s-184.63-24.41-216.02-18.66Z"/>
  <path class="cls-16" d="M724.96,335.37s-68.39,40.82-86.68,65.35c-23.4,31.37-46.62,210.97-53.43,243.74-6.81,32.77,35.9,28.44,35.9,28.44l92.59-19.33,34.48-104.16-22.87-199.72.02-14.32Z"/>
  <path class="cls-16" d="M622.03,623.61c-6.19,29.8-4.98,35.65-4.98,35.65l94.51-23.93,34.83-103.05-20.8-181.65-.81-6.3s-61.37,30.4-78.01,52.71"/>
  <path class="cls-10" d="M839.64,196.98s2.04,59.54,19.4,90.75c2.78,5.01,32.48,13.65,32.48,13.65l-6.08,9.97c-5.25,8.61-16.87,17.05-25.36,22.49-42.25,27.04-105.93,43.49-131.93,19.22l8.1-20.98s6.5-8.2,6.74-14.96c.23-6.75-16.59-56.16-16.59-56.16"/>
  <path class="cls-17" d="M847.04,219.9c.02.12.02.23.04.35.02-.15.02-.28-.04-.35Z"/>
  <path class="cls-10" d="M778.69,305.2l-39.44,6.22-20.44-.6c-1.98.43-14.55-17.96-16.41-20.24-5.75-7.08-13.26-16.35-17.53-24.43-4.58-8.65-11.95-15.49-15.52-26.29-2.61-7.91-3.76-13.58-2.01-27.65.45-3.58-.18-6.93-1.71-10.37-3.26-7.25-5.63-16.01-9.77-25.78-.33-.77-2.02-4.45-1.88-5.38,0,0-10.15-42.1-5.47-58.79,4.69-16.69,14.76-25.91,25.37-30.98,10.61-5.08,42.04-17.23,42.04-17.23l46.17-7.84,42.48,11.52,28.92,43.15,7.93,55.13,3.78,49.9"/>
  <path d="M827.69,164.15c.61,4.26-.55,26.33-.22,30.54l21.74-4.69c3.75-15.75,8.32-34.31,10.06-38.67,2.72-6.82-14.33-34.66-16.25-45.76l-.42-2.4c-1.82-10.66-15.26-25.52-35.94-39.76-35.58-24.51-34.18-25.13-79.3-12.95-3.1.84-6.18,1.79-9.13,2.84-27.93,9.87-52.03,14.12-65.67,41.78-9.84,19.94-4.08-3.83-.61,8.05-3.86-24.01-4.59-3.45-2.67-6.74,11.25-19.23,21.79-3.1,28.66-5.53,5.99-2.12,10.94-1.37,11.93-1.18,7.3.2,13.85-2.01,21.02-4.54,5.34-1.88,18.63-7.74,19.77-8.24,3.21-3.3-2.81-17.03,3.82-19.37,15.4-5.44,38.44-2.69,46.78-.62,9.87,2.44,33.3,7.34,35.02,32.2"/>
  <path d="M722.04,304.81c.26-.09.5-.23.69-.42,3.61-3.58,3.63-5.2,5.57-6.09.45-.2.65-.42,2.08-.92,5.71-1.99,9.16-3.3,26.88,3.55.36.14,20.45-6.57,20.84-6.68l9.64-7.14c1.56-1.45,34.77-42.93,34.77-42.93.38-1.24,6.01-10.65,6.08-11.78.11-.09.22-.18.34-.26.04-.03.14-.09.23-.16.03.07.07.15.1.2.16.44.25.93.32,1.39.31,2.03.29,4.08.07,6.13-.34,3.14-.28,6.26-.5,9.39-.08,1.11-.21,2.21-.38,3.3-3.98,3.73-25.68,45.87-40.54,57.3-1.01.49-4.19,2.11-13.03,4.65-16.6,4.77-32.91,7.98-50.48,6.45-4.58-.4-8.69-2.8-11.23-6.48-7.25-10.49-23.27-33.85-29.37-50.45,6.57,9.02,20.5,28.38,30.06,41.55.29.4,6.77-.52,7.33-.47"/>
  <path class="cls-10" d="M841.45,222.03c15.61,15.05,18.74-16.25,18.74-16.25,9.19-17.34,5.88-33.06,3.17-43.72-2.7-10.66-14.5-8.01-14.5-8.01-9.82,3.2-13.17,9.54-14.46,45.19"/>
  <path d="M682.39,79.97c16.33-3.44,57.14-23.08,79.1-28.78,9.09-2.36,44.05,14.51,49.02,18.93,11.4,10.12-4.38,41.47,18.66,76.32,7.61,11.51,10.66-11.81,18.81-4.88,8.15,6.93,11.29,9.76,11.29,9.76-2.16-37.2-2.05-35.9-16.96-70.16-14.87-34.17-56.84-42.27-76.28-41.64-19.44.64-78.8,18.3-93.68,29.07"/>
  <path d="M748.99,176.09c2.22-1.83,5.38-1.34,7.32-.25.46.26,1.7,1,2.54,2.54,1.07,1.96.75,4.52-.26,6.25-1.34,2.31-4.2,3.27-6.67,2.71-3.36-.77-5.14-4.22-4.96-7.06.04-.52.24-2.72,2.03-4.2"/>
  <path d="M677.11,192.14c-2.77-.75-5.45.99-6.78,2.79-.31.42-1.14,1.62-1.26,3.36-.16,2.23,1.19,4.43,2.81,5.59,2.17,1.55,5.18,1.25,7.2-.28,2.74-2.08,2.94-5.97,1.61-8.47-.25-.46-1.34-2.38-3.58-2.99"/>
  <path d="M699.92,197.11s-12.22-7.88-19.72-6.96c-10.95,1.33-13.18,4.34-15.91,10.08,0,0,5.92-6.66,13.65-7.39,7.39-.7,21.98,4.27,21.98,4.27Z"/>
  <path d="M734.21,186.97s12.99-12.74,20.34-14.53c10.71-2.61,24.92.98,29.51,5.39,0,0-18.94-5.7-26.44-3.66-7.17,1.95-23.4,12.8-23.4,12.8Z"/>
  <path d="M722.76,153.49c.88,2.47,1.77,4.94,2.65,7.42.68,1.89,2.09,6.23,2.77,8.11,5.38-3.7,9.89-7.98,13.49-10.03,7.14-4.05,14.26-8.74,22.39-10.27,3.89-.74,7.47-.93,11.22-.12,1.18.26,4.73,1.93,5.95.75.5-.49-1.56-3.18-1.77-3.46-4.18-5.42-10.28-6.13-17.16-5.33-14.03,1.62-26.96,6.58-39.55,12.93"/>
  <path d="M652.09,169.96s4.02-2.34,4.05-2.36c11.24-6.6,23.55-9.87,36.39-11.8.74,2.51,1.48,5.03,2.21,7.56.56,1.92,1.69,5.36,2.24,7.28-6.04.02-11.41-.49-15.21-.12-7.54.72-15.49,1.4-22.35,4.74-.54.26-3.45,1.75-3.97,2.03-3.32-2.8-4.22-6.49-3.37-7.33Z"/>
  <path d="M749.88,270.06l-27.75,5.68s9.21,8.95,15.89,7.22c4.18-1.08,8.61-7.04,11.86-12.9Z"/>
  <g>
    <path class="cls-4" d="M717.32,237.43c3.51,1.01,8.24-.42,10.98-3.12.61-.6,3.05-.67,2.2.17-3.62,3.56-10.46,5.3-15,4-.45-.13-.45-.46.02-.74.49-.29,1.33-.44,1.81-.3"/>
    <path class="cls-4" d="M731.67,233.25c1.9-1.48,4.16-2.53,6.48-3.23.34-.1.82-.06,1.12.11.24.14.33.38.11.58-.95.88-2.29,1.44-3.58,1.7-.4.08-.96.09-1.26-.21-.28-.28.06-.58.38-.64,1.06-.21,2.1-.66,2.88-1.38.41.23.82.46,1.23.7-2.08.62-4.1,1.59-5.79,2.91-.34.26-.9.26-1.29.13-.28-.1-.63-.4-.29-.66"/>
    <path class="cls-4" d="M741.14,231.52c2.76-.67,5.75-2.61,6.65-5.04,1.36-3.67-1.63-8.25-5.54-9.56-.42-.14-.29-.48.08-.64.47-.22,1.1-.15,1.55,0,3.4,1.14,6.24,4.81,6.44,7.93.18,2.92-2.04,5.46-5.18,7-.93.46-1.95.85-2.98,1.1-.42.1-1.2.13-1.48-.16-.28-.3.07-.53.46-.62"/>
    <path class="cls-4" d="M711.93,237.08c.08-.36-.24-.51-.46-.46-.74.18-1.56.13-2.31-.26-.18.36-.36.72-.53,1.08,1.54-.16,3.15.02,4.68.65.31.13.66-.08.86-.33.15-.19.26-.59-.05-.72"/>
    <path class="cls-4" d="M714.12,237.04c-1.72-.7-3.52-.88-5.24-.7-.25.03-.54.23-.67.5-.1.21-.08.46.14.58"/>
    <path class="cls-4" d="M706.26,238.71c-1.82.32-4.21-.46-5.55-2.4-2.03-2.93-1.61-7.03.19-9.58.2-.28,0-.54-.26-.57-.35-.04-.69.23-.89.52-1.57,2.22-2.22,5.41-1.27,8.37.89,2.77,3.04,4.37,5.37,4.72.69.1,1.41.12,2.09,0,.28-.05.74-.28.8-.65.06-.37-.22-.46-.48-.42"/>
  </g>
  <path d="M675.01,88.48c.99-1.23,2.78-1.94,4.46-2.57l1.75-.96c5.51-1.14,11.05-2.12,16.61-2.94,1.4-.2,2.85-.4,4.16-.12.14.03.28.07.41.11,4.06-.95,8.13-1.85,12.22-2.65l1.97.13c1.79-.1,3.7-.18,5.07.44,1.37.62,1.71,2.24.21,3.06-1.57.86-4.22.45-5.19,1.63-1.07,1.29,1.67,2.37,1.15,3.75-.32.87-1.75,1.41-2.6,2.16-1.02.89-1.19,2.04-2.12,2.96-.95.94-2.7,1.53-4.22,1.42-1.53.43-3.72.21-4,1.37-.08.31.06.61.14.9.3,1.17-.45,2.53-1.79,3.29-1.35.76-3.21.86-4.48.24-1.24-.6-1.87-1.76-3.17-2.29-.41-.16-.88-.27-1.34-.37-.32.44-.75.83-1.28,1.12-1.35.76-3.21.86-4.48.24-1.24-.6-1.87-1.76-3.17-2.29-1.09-.44-2.62-.43-3.28-1.23-1.05-1.27,1.02-3.55-.5-4.49-1.38-.85-3.64.68-5.44.41-1.72-.25-2.08-2.13-1.08-3.36Z"/>
  <path d="M760.47,304.43c-.86.95-2.34,1.44-3.72,1.88l-1.46.69c-4.51.67-9.03,1.21-13.57,1.61-1.14.1-2.33.19-3.37-.09-.11-.03-.22-.07-.33-.11-3.32.58-6.66,1.12-10,1.58l-1.59-.2c-1.45,0-3-.03-4.07-.59-1.07-.57-1.28-1.89-.03-2.49,1.31-.62,3.44-.17,4.27-1.08.92-1-1.24-1.99-.76-3.09.3-.69,1.48-1.06,2.2-1.62.86-.67,1.05-1.59,1.85-2.3.81-.72,2.26-1.11,3.48-.95,1.25-.27,3.02,0,3.3-.92.08-.25-.02-.49-.07-.74-.19-.96.48-2.03,1.6-2.58,1.12-.55,2.63-.55,3.63.01.97.54,1.43,1.51,2.46,1.99.32.15.7.26,1.06.36.28-.34.64-.63,1.08-.85,1.12-.55,2.63-.55,3.63.01.97.54,1.43,1.51,2.46,1.99.86.41,2.1.47,2.6,1.14.79,1.07-.98,2.82.2,3.65,1.07.75,2.98-.38,4.41-.08,1.38.28,1.58,1.82.72,2.76Z"/>
  <path d="M857.56,153.97c1.66-.38,3.4-.8,4.69-1.92,1.29-1.12,1.95-3.16.99-4.57-1.52-2.23-6.05-1.85-6.26-4.55,1.72-2.99,7.12-2.91,7.79-6.29.55-2.73-2.61-4.61-5.23-5.57,1.37-1.87,1.14-.36,3.25-1.32,2.11-.96,2.39-6.54.8-8.22-1.8-1.9-2.27-.02-1.89-2.62,1.67-.87-2.48-1.67-1.36-3.18,1.11-1.51,1.4-3.81.14-5.2-1.52-1.67-1.55-3.12-1.91-5.35-.31-1.9-4.08-1.57-3.22-3.3,1.56-3.15-1.88-6.37-4.86-8.21,1.33-1.28-.57-1.27.11-2.99.68-1.72.46-3.94-.99-5.07-.89-.7-2.07-.88-3.07-1.42-4.1-2.21-2.96-8.31-1.24-12.64-3.14.87-6.79-1.06-7.83-4.15-.49-1.45-.47-3.09-1.26-4.4-.8-1.31-3.01-1.91-3.76-.57"/>
  <path d="M835.08,69.54c-.81-1.94-4.4-11.22-5.21-13.16-2.36,1.45-5.95-.05-6.58-2.75-.32-1.35-.18-3.12-1.43-3.72-1.28-.61-2.64.72-4.04.9-3.13.4-4.46-4.56-7.57-5.11-1.94-.35-3.84,1.2-5.79.93-2.96-.4-4.17-4.53-7.08-5.21-2.01-.47-4.05.9-6.11.72-4.46-.4-7.05-6.42-11.47-5.68-1.62.27-2.92,1.63-4.56,1.78-2.93.26.83-3.52-2.11-3.41-2.7.1-4.29,3.25-6.88,4.01-4.21,1.24-8.37-5.43-12.07-3.08-1.6,1.01-2.18,3.14-3.73,4.21-3.62,2.51-8.73-2.44-12.77-.68-2.03.88-3.17,3.27-5.28,3.93-3.28,1.03-6.61-2.66-9.94-1.81-2.65.68-4.11,4.01-6.83,4.35-1.9.23,2.36-2.69.44-2.62-3.27.11-5.02,4.05-8.05,5.28-2.54,1.03-5.4-.04-8.14-.22-2.74-.18-7.59,5.97-7.19,8.69"/>
  <path d="M787.31,51.99c16.77,3.37,24.17,7.78,34.53,21.38l-95.29-15.53c6.32-2.53,12.68-4.54,19.08-5.41,16.95-2.29,24.91-3.81,41.68-.44Z"/>
  <path d="M658.68,75.72c.4-.27.8-.55,1.17-.84,1.92-1.52,3.01-5,.82-6.1,4.64,1,6.45-7.05,11.13-7.79,1.35-.21,2.71.24,4.07.23,3.55-.02,6.55-3.8,5.78-7.26,3.71,1.28,7.93,1.01,11.45-.72l33.46,4.61c-13.4,5.35-26.65,13.02-39.72,17.03-6.29,1.93-12.66,4.09-17.9,8.08-3.81,2.9-8.94,5.04-12.84,8.1.83-5.12,1.65-10.23,2.57-15.33Z"/>
  <path d="M693.78,281.63c1.76,3.96,2.55,8.29,5.39,11.56-1.45.76-.4,3.04.98,3.9,1.39.87,3.25,1.76,3.17,3.39-.03.57-.31,1.1-.32,1.67-.04,1.79,2.27,2.5,4.05,2.66-1.01,1.1.29,2.8,1.6,3.51,1.31.71,2.98,1.61,2.83,3.1-.07.73-.62,1.4-.48,2.12.3,1.5,2.76,1.08,3.8,2.2.6.65.56,1.65.91,2.47.71,1.68,3.33,2.09,4.52.72.86,3,2.85,6.72,5.89,6.04,1.88-.42,3.39-2.56,5.26-2.08,1.16.3,1.85,1.51,2.95,1.98,3.71,1.57,6.66-6.13,10.37-4.55,1.99.85,2.46,4.01,4.6,4.35,2.02.32,3.34-2.2,5.31-2.75,2.14-.6,4.73,1.2,6.51-.14.77-.58,1.08-1.59,1.69-2.33,1.41-1.7,3.44.16,5.63.45,3.91.52,3.79-2.2,3.79-2.2.65-2.79,2.13-2.84,4.83-1.87.9.32,1.77.9,2.71.79,2.31-.28,2.75-4.24,5.07-4.42.85-.07,1.63.45,2.46.67,3,.81,5.8-3.49,3.85-5.91,3.49-.55,6.01-4.55,4.99-7.94,3.43.52,6.86-2.84,6.41-6.28,3.99.4,7.26-4.81,5.15-8.22,2.84.55,5.75-2.38,5.18-5.22-.29-1.46-1.23-3.19-.16-4.22.71-.68,1.84-.49,2.81-.67,2.34-.43,3.63-3.62,2.24-5.55,3.93.3,6.55-5.57,3.7-8.29,3.09.15,5.07-4.43,2.85-6.58,4.06-.82,5.91-6.75,3.03-9.74l-39,56.52-11.24,7.62s-42.5,11.24-51.27,8.95c-8.77-2.29-32.06-35.72-32.06-35.72Z"/>
  <path d="M729.2,61.35l41.88-13.17,38.8,15.24,20.61,42.45-2.52,36.17h0l4.57,52.61c-1.19.33-2.39.67-3.58,1-.37.1-.78.21-1.13.06-.89-.36-.64-1.65-.54-2.6.21-2.22-1.33-4.17-2.6-6.01-1.26-1.84-2.32-4.31-1.16-6.21.61-1.01,1.81-1.8,1.75-2.98-.08-1.54-2.08-2-3.28-2.96-1.87-1.5-1.46-4.96.71-5.98,0,0-3.13-2.46-3.15-8.36-.01-5.9.66-12.33.66-12.33h0c-.42-.35-.82-.71-1.15-1.15-2.37-3.17.07-8.13-2.02-11.49-.94-1.51-2.66-2.44-3.47-4.02-1.54-3.03.92-6.76.02-10.03-1.01-3.68-6.02-6.1-5.17-9.82.42-1.81,2.21-3.1,2.52-4.94.55-3.2-3.51-6.59-1.58-9.2.67-.9,1.91-1.32,2.42-2.32,1.02-2.02-1.56-3.86-2.77-5.77-1.25-1.98-1.02-4.53-1.67-6.79-.65-2.25-3.21-4.41-5.16-3.1.64-3.83-3.21-13.3-6.94-12.24-1.84.52-4.1,1.83-5.35.39-.89-1.03-.38-2.74-1.17-3.85-2-2.84-6.52,2.64-9.59,1.02-.83-.44-1.32-1.33-2.06-1.91-1.67-1.32-4.13-.78-6.06.14-1.92.92-3.82,2.18-5.95,2.15-2.13-.04-4.33-2.29-3.32-4.17-1.94,1.6-3.97,3.24-6.42,3.83-2.45.58-5.42-.25-6.49-2.52-.07,3.59-5.17,5.83-7.86,3.45-1.07-.95-1.95-2.48-3.38-2.41-.64.03-1.2.41-1.71.8-2.25,1.75-4.32,9.9-5.25,12.59l-1.45-15.54Z"/>
  <path d="M667.38,82.32c.71,1.11-.76,2.34-2.02,2.7-1.26.36-1.05.97-1.06,2.28,0,.81-1.14,1.42-1.14,2.23,0,2.48-3.09,1.08-4.01,3.38-.69,1.72-.2,4.04-1.41,5.45-.57.67-1.6.62-2.46.84-1.48.37-2.65,1.75-2.77,3.27-.09,1.14.34,2.34-.11,3.38-.55,1.27-1.96,1.39-2,2.77-.19,7.13-2.89,4.6-2.36,8.19.54,3.58,1.72,9.16-.61,11.94-2.87-1.73-2.45-4.39-.89-7.36.47-.9-1.42-.63-1.1-1.58.33-.96.17-2.2-.71-2.7-.43-.25.71-4.5.41-4.89-.85-1.14-1.16-2.99-.19-4.03,1.22-1.3,3.5.88,2.2-.34s-2.87-2.85-2.21-4.5c.59-1.46,2.62-1.9,3.23-3.35.69-1.64-.84-3.42-.72-5.2.15-2.36,2.91-3.5,5.2-4.11-1.77-1.49-1.4-4.78.66-5.83.83-.43,1.9-.59,2.36-1.4.68-1.21-.54-2.97.35-4.04.75-.9,2.36-.46,3.18-1.29,1.31-1.32-.92-3.54-.37-5.32.73-2.35,5.65-2.3,5-4.68"/>
  <path class="cls-2" d="M833.86,171.96l-1.09-4.94-54.16-4.49h0c-19.73-3.5-44.51,6.69-57.61,19.23l-13.05,3.3.08-.23c-17.59-8.22-43.43-4.86-61.21,7.95l.93,1.95h0c.03.13.22.4.41.81l.83,1.69c5.17,10.82,10.97,22.19,14.8,24.72,2.58,1.71,9.88,1.32,15.81.62,2.25-.24,4.29-.55,5.75-.77,1.76-.28,17.36-2.8,19.47-5.72,2.11-2.92,3.01-21.71,3.16-27.63l13.39-3.32c2.58,4.06,9.81,22.3,17.15,24.83,7.34,2.53,40.82-5.71,43.02-11.02,1.56-3.79,5.53-17.14,5.96-23.68l1.24-8.55,45.1,5.22ZM702.92,214.61c-2.38,2.86-33.37,8.21-37.83,5.28-3.77-2.49-11.15-17.92-13.93-23.72l-.06-.25c16.08-10.48,39.36-13.54,54.6-6.67-.45,10.24-1.47,23.49-2.79,25.31v.05ZM777.3,198.38c-1.37,3.35-30.37,11.83-37.94,9.22-5.27-1.8-10.78-15.09-14.58-22.57,12.85-11.99,42.15-21.91,59.9-17.72-1.02,10.37-3.32,22.78-7.38,31.07h0Z"/>
  <path class="cls-5" d="M765.66,238.97c-1.21-1.11-2.68-1.72-4.34-1.73-.8,0-1.78.43-2.51.15-.67-.26-.98-.99-1.67-1.28-1.5-.64-3.11.22-4.58.53-.82.17-1.86.43-2.7.28-.75-.13-1.44-.64-2.15-.89-1.23-.43-2.55-.27-3.55.59-.44.38-.64.95-1.36.81-.39-.07-.77-.42-1.09-.62-.66-.42-1.28-.74-2.06-.86-1.55-.24-3.33-.01-4.73.7-.48.25-.94.56-1.4.83-.25.15-.51.29-.77.42-.34.17-.75.15-.5.39-.62-.61-2.69.24-2,.91,1.66,1.63,4.43-1.01,5.96-1.62.9-.36,2.28-.42,3.17,0,.69.33,1.24.86,1.97,1.13,1.4.52,2.85.21,3.91-.84.82-.81,1.17-.49,2.18-.04.55.24,1.1.47,1.7.55,1.66.2,3.58-.34,5.16-.8.38-.11.87-.34,1.26-.24.41.1.64.56.91.84.5.5,1.09.76,1.8.8.9.05,1.74-.34,2.64-.3,1.04.05,1.99.52,2.75,1.22.64.59,2.7-.27,2-.91h0Z"/>
  <path class="cls-5" d="M715.6,239.59c-1.3-.06-2.47.48-3.36,1.42-.77.81-1.41,2.09-2.46,2.56-.7.32-1.49.33-2.17.75s-.92.94-1.19,1.64c-.19.48-.16.66-.64.75-.35.07-.83-.08-1.17-.13-.72-.1-1.43-.18-2.15,0-1.48.36-1.98,1.36-2.23,2.75-.14.77-.25,1.42-1.07,1.7-.67.23-1.37.3-2.03.57-.61.25-1.2.59-1.63,1.09-.52.62-.5,1.16-.45,1.93.06.95-.58.88-1.2,1.39-.38.31-.61.65-.51,1.16.16.78,2.34.25,2.17-.58-.03-.17.76-.51.97-.66.49-.36.77-.76.79-1.39.03-.8-.31-1.49.61-1.93.49-.24,1.08-.28,1.6-.43,1.15-.34,2.28-.93,2.71-2.12.2-.56.21-1.16.37-1.73.21-.78.76-.5,1.44-.42,1.19.15,2.49.17,3.53-.54.5-.34.8-.81,1.01-1.38.12-.33.15-.74.47-.97.23-.17.7-.18.98-.26,1.14-.33,2.01-.97,2.78-1.86.44-.51,1.3-2.06,2.03-2.03.44.02,1.22-.16,1.43-.6s-.18-.66-.6-.68h0Z"/>
  <path class="cls-11" d="M1051.07,813.23l6.38,30.1c8.62,40.66,2.64,94.25-7.71,134.51-9.62,37.4-22.9,75.56-32.37,105.79l-38.01,221.17s-2.78,96.55,4.23,176.62c6.11,69.42-18.9,192.95-18.9,192.95l-23.5,3.82c-21.23,3.45-42.84,3.59-64.1.42l-45.64-6.83-30.76-410.54-24.04-251.54-38.83-151.96,313.25-44.51Z"/>
  <path class="cls-11" d="M692.61,846.63l16.42,444.52c-.57,19.36,6.46,37.17,12.28,130.61l11.63,159.28,3.82,69.21,13.22,2.77c18.14,4.33,36.78,6.11,55.39,5.29l40.74-.45-20.89-797.99-132.6-13.24Z"/>
  <path class="cls-16" d="M860.52,291.33l18.78,5.55c25.16,7.5,99.24,18.57,118.21,36.76,28.48,27.15-63.96,135.29-64.31,160.86-.24,12.41.24,104.27,19.74,173.47,12.87,46.03,22.95,92.79,30.19,140.03l-74.94,19.23c-36.61,9.39-74.38,13.6-112.12,12.5l-97.64-30.34c-3.77-48.86-16.33-72.19-18.59-136.59l-17.82-199.13,5.45-94.38s12.99-9.49,14.63-14.41l62.61-44.54s-23.38,33.28,21.31,34.2c39.69.82,49.34-5.23,75.97-31.44,0,0,17.12-17.84,18.52-31.77Z"/>
  <path class="cls-16" d="M1026.46,473.35s-2.24,164.45,8.05,211.52c10.3,47.07,27.75,113.86,25.94,144.67-5.13,87.09-201.91,95.18-268.23,94.38-66.31-.79-106.09,12.37-113.26-68.4-3.37-37.95,2.71-36.73-3.31-164.47-6.2-131.77,165.31-233.22,165.31-233.22l185.48,15.52Z"/>
  <path class="cls-1" d="M641.36,462.82c3.36,13.6,5.78,27.43,8,41.25,2.73,17.03,5.05,34.12,7.23,51.22,2.35,18.43,4.5,36.88,6.62,55.34,2.01,17.48,3.97,34.96,6.03,52.43,1.7,14.42,3.44,28.85,5.54,43.22.21,1.45.43,2.91.65,4.36.14.89,2.32.37,2.17-.58-2.12-13.89-3.83-27.84-5.5-41.79-2.05-17.16-3.98-34.33-5.95-51.5-2.11-18.46-4.25-36.92-6.55-55.35-2.18-17.42-4.48-34.84-7.17-52.19-2.21-14.3-4.63-28.61-7.89-42.71-.33-1.43-.67-2.86-1.02-4.28-.22-.9-2.4-.33-2.17.58h0Z"/>
  <path d="M770.11,973.57c20.02,16.45,26.97,43.96,28.8,68.69.55,7.4.68,14.82.64,22.23-.04,6.17-.34,12.34-.37,18.51,0,1.04.04,2.08.05,3.12.12,6.76.23,13.53.35,20.29.19,11.35.39,22.7.58,34.06.24,14.19.49,28.37.73,42.56.26,15,.51,30,.77,44.99l.72,42.28c.19,11.17.38,22.33.57,33.5.11,6.48.22,12.97.33,19.45.03,1.59.08,3.14.21,4.71.39,4.97.78,9.95,1.17,14.92l2.1,26.77c.94,11.97,1.88,23.94,2.82,35.91,1.09,13.89,2.18,27.78,3.27,41.67l3.52,44.87c1.17,14.87,2.33,29.73,3.5,44.6,1.09,13.94,2.19,27.87,3.28,41.81.93,11.86,1.86,23.71,2.79,35.57.7,8.91,1.4,17.81,2.1,26.72.38,4.86.76,9.72,1.15,14.58.05.63.1,1.25.15,1.88.04.49,1.15.23,1.1-.3-.2-2.59-.41-5.18-.61-7.78-.56-7.1-1.12-14.21-1.67-21.31l-2.49-31.73c-1.03-13.06-2.05-26.12-3.08-39.19-1.15-14.59-2.29-29.18-3.44-43.77-1.18-15.08-2.37-30.16-3.55-45.23-1.14-14.48-2.27-28.96-3.41-43.44-1.02-13.04-2.05-26.08-3.07-39.12-.83-10.51-1.65-21.02-2.48-31.53-.55-6.95-1.09-13.89-1.64-20.84l-.44-5.57c-.04-.47-.07-.93-.11-1.4,0-.08-.03-.54-.02-.3-.15-3.68-.13-7.38-.19-11.06-.16-9.24-.32-18.48-.47-27.72-.22-13.02-.45-26.03-.67-39.05-.25-14.86-.51-29.73-.76-44.59-.25-14.78-.51-29.57-.76-44.35-.22-12.87-.44-25.74-.66-38.61-.16-9.1-.31-18.19-.47-27.29-.06-3.71-.25-7.45-.15-11.16.73-27.39,1.39-56.07-9.71-81.73-4.49-10.37-10.86-20.03-19.65-27.24-.37-.3-1.34.23-.85.63h0Z"/>
  <g>
    <path class="cls-16" d="M862.12,290.64s-18.3,53.51-73.74,62.09c-55.44,8.59-49.91-20.51-49.91-20.51l4.88-10.4-18.38,13.54s-2.75,14.42,6.5,25.32c9.25,10.9,39.04,15.57,73.44,5.01,20.18-6.2,44.56-23.91,57.77-41.83,15.82-21.46,17.94-28.3,17.94-28.3l-18.49-4.93Z"/>
    <path class="cls-3" d="M861.02,290.75c-2.02,5.88-5.47,12.15-8.9,17.61-7.91,12.57-18.35,23.65-30.97,31.57-7.89,4.95-16.58,8.57-25.64,10.74-5.55,1.33-11.23,2.1-16.91,2.58-4.76.4-9.56.53-14.33.15-9.36-.75-20.7-3.97-24.01-13.89-.71-2.12-1-4.31-.84-6.45.02-.25.05-.49.08-.74.04-.34-.02-.06.01-.14,1.01-2.69,2.48-5.29,3.71-7.89.38-.8.75-1.6,1.13-2.4.46-.98-1.29-.77-1.72-.46-3.83,2.82-7.66,5.64-11.48,8.46-2.02,1.49-4.05,2.98-6.07,4.48-.34.25-.94.56-1.15.94-.24.41-.21,1.09-.26,1.54-.84,7.66.76,15.81,5.17,22.19,4.01,5.8,10.46,8.84,17.08,10.69,9.03,2.52,18.62,2.96,27.94,2.4,11.66-.7,23.5-2.98,34.5-6.9,9.76-3.48,18.92-8.71,27.36-14.67,8.83-6.24,17.1-13.46,24.1-21.73,3.47-4.1,6.58-8.52,9.65-12.93,2.46-3.53,4.86-7.1,7.11-10.77,1.29-2.1,2.54-4.23,3.66-6.42.48-.94,1.03-1.92,1.34-2.93.03-.11.08-.21.12-.32.09-.28-.23-.48-.44-.54-6.16-1.64-12.33-3.29-18.49-4.93-.8-.21-2.56.96-1.3,1.3,6.16,1.64,12.33,3.29,18.49,4.93l-.44-.54c-.02.05-.04.18-.07.21-.12.09.04-.1-.05.12-.06.14-.12.29-.18.43-.43.99-.92,1.95-1.42,2.9-2.43,4.6-5.29,8.97-8.2,13.27-4.86,7.16-9.87,14.26-15.87,20.53-6.08,6.36-12.85,12.06-20.06,17.09-6.92,4.83-14.28,9.1-22.08,12.34-8.57,3.56-17.83,5.73-26.99,7.09-8.46,1.25-17.08,1.69-25.61.87-6.47-.62-13.1-1.93-18.98-4.8-5.65-2.75-9.66-7.09-12.01-12.97-2.07-5.17-2.76-11.01-2.07-16.54.04-.33.08-.65.14-.98l-.4.51c5.35-3.94,10.7-7.89,16.05-11.83.78-.57,1.55-1.14,2.33-1.72l-1.72-.46c-1.17,2.5-2.35,5-3.52,7.5-.49,1.05-1.24,2.17-1.47,3.31-.36,1.8-.1,3.88.27,5.65,2,9.43,11.12,14.13,19.88,15.77,9.82,1.84,20.08,1.03,29.89-.44,9.91-1.48,19.57-4.43,28.49-9.02,14.27-7.35,26.25-18.5,35.39-31.62,3.17-4.56,6.02-9.35,8.47-14.33,1.22-2.47,2.55-5.05,3.36-7.7.04-.12.09-.23.13-.35.29-.85-1.91-.58-2.19.23Z"/>
  </g>
  <path class="cls-19" d="M841.32,188.51c1.21-6.5,2.73-13.18,5.67-19.15,1.07-2.17,2.46-4.68,4.45-6.08.12-.08.24-.16.37-.24.16-.09.05-.03.2-.11.05-.02.13-.04.17-.07-.04.03-.1.03-.03.01l-.39-.04c.72.53,1.32,1.26,1.85,1.97,1.47,1.94,2.45,4.23,3.04,6.58.52,2.05.74,4.16.76,6.26,0,.31.73.16.73-.09-.04-4.52-1.02-9.19-3.74-12.89-.53-.72-1.13-1.47-1.84-2.01-.25-.19-.47-.17-.75-.06-.91.37-1.69,1.11-2.34,1.82-1.74,1.93-2.96,4.31-3.98,6.67-2.41,5.57-3.8,11.57-4.91,17.51-.05.28.68.17.73-.09h0Z"/>
  <path class="cls-19" d="M844.75,189.4c3.49-.59,3.38,4.14,3.35,6.41-.02,1.58-.15,3.16-.03,4.74.06.85.23,2.36,1.25,2.62,1.24.32,1.89-1.19,2.2-2.09.81-2.33,1.07-4.88,1.27-7.32.14-1.77.36-3.63.15-5.4-.15-1.25-.37-2.49-.67-3.71-.83-3.43-2.42-7.92-6.2-9.02-.17-.05-.81.23-.59.29,3.32.97,4.89,4.74,5.76,7.77.68,2.36,1.09,4.73,1.01,7.18-.09,2.83-.32,5.68-.92,8.45-.2.89-.42,1.81-.81,2.64-.12.26-.26.53-.45.75-.07.08-.14.14-.22.2s.16.04.07-.03c-.04-.03-.12-.03-.16-.07-.88-.75-.95-1.9-.99-3-.06-1.56.06-3.11.06-4.67s.03-3.26-.67-4.65c-.65-1.3-1.92-1.6-3.28-1.37-.3.05-.64.37-.13.29h0Z"/>
  <path class="cls-19" d="M749.16,113.47c-8.83,3.3-17.69,6.57-26.75,9.21-8.99,2.62-18.2,4.64-27.55,5.3-5.24.37-10.51.29-15.73-.31-.36-.04-.74.48-.25.54,9.3,1.07,18.7.45,27.89-1.22,9.41-1.71,18.59-4.48,27.61-7.59,5.06-1.75,10.09-3.61,15.1-5.49.46-.17.06-.58-.32-.44h0Z"/>
  <path d="M696.34,257.73c-1.33,1.8-2.74,3.85-2.43,6.07.11.8.45,1.56.78,2.3.51,1.15,1.03,2.29,1.54,3.44.1.23.21.47.42.61.22.16.51.18.79.19.87.03,1.78.06,2.58-.28.8-.34,1.47-1.17,1.33-2.03-.06-.35-.24-.7-.17-1.05.14-.68,1.04-.79,1.66-1.11,1.57-.78,1.45-2.99,1.85-4.69.54-2.31,2.36-4.12,4.4-5.34,1.03-.62,2.14-1.12,3.02-1.93.88-.81,1.51-2.04,1.21-3.2"/>
  <path class="cls-9" d="M731.5,249.53c11.9-1.73,31-5.79,31-5.79,0,0-.21,28.8-27.8,32.82-27.59,4.02-30.17-24.99-30.17-24.99,0,0,15.06-.3,26.96-2.04Z"/>
  <path class="cls-14" d="M731.38,249.55c5.66-.82,26.62-4.58,26.62-4.58,0,0-4.64,18.14-25.1,21.12-22.19,3.23-25.46-14.37-25.46-14.37l23.94-2.17Z"/>
  <path class="cls-6" d="M731.24,250.34c5.66-.82,22.75-4.19,22.75-4.19,0,0-5.39,6.47-22.36,8.94-16.97,2.47-23.15-2.15-23.15-2.15l22.76-2.6Z"/>
  <path class="cls-9" d="M703.15,251.62c.58-.22,1.27-.03,4.05-.66,4.63-1.04,5.65-2.45,9.01-3.18,5.73-1.24,9.71.27,12.23-.09,2.52-.37,5.9-2.96,11.75-3.4,3.43-.26,11.99-.37,16.72-.69,2.84-.19,5.99-1.65,6.61-1.61.86.06.04,5.81-31.61,10.42-31.66,4.61-29.57-.48-28.76-.78Z"/>
  <path d="M729.06,239.6l1.91,5.58c.3.85,1.09,1.43,2,1.42,6.21-.02,29.84-.15,35.35-1.01.13-.02-.16,2.36-.03,2.32l1.28-.27c2-.7-.48-7.41-2.54-7.9-6.3-1.48-11.87-2.35-15.28-2.66-4.27-.38-16.03-1.04-21-.28-1.31.2-2.11,1.54-1.67,2.8Z"/>
  <path d="M719.54,241.34l1.59,5.1c.13.89-.22,1.76-.89,2.16-4.59,2.73-19.6,11.71-24.01,13.38-.11.04-.2.06-.31.08l-1.52.22c-1.77.26-2.24-4.17-.92-5.52,4.03-4.11,6.62-6.58,9.01-8.36,2.99-2.23,10.68-7.3,14.67-8.82,1.05-.4,2.19.45,2.38,1.76Z"/>
  <path d="M766.08,243.98c1.94,1.11,4.05,2.43,4.66,4.58.22.78.22,1.61.21,2.42,0,1.26-.02,2.51-.03,3.77,0,.25,0,.51-.14.73-.14.23-.4.37-.65.49-.78.38-1.6.77-2.47.78s-1.81-.48-2.04-1.32c-.09-.35-.06-.74-.27-1.03-.41-.57-1.27-.31-1.97-.34-1.75-.09-2.53-2.15-3.58-3.55-1.42-1.9-3.82-2.83-6.17-3.13-1.19-.15-2.41-.17-3.54-.56-1.13-.39-2.2-1.26-2.4-2.44"/>
  <path class="cls-10" d="M396.95,366.38s8,61.12,1.99,82.43c-1.46,5.17-32.23,22.35-32.23,22.35l131.94,55.05,60.42-53.64s-50.75-23.59-52.99-29.51c-2.24-5.93-3.73-51.68-3.73-51.68"/>
  <path class="cls-13" d="M320.22,937.7l-4.99,41.02c-4.19,34.41-3.34,69.24,2.52,103.4l27.47,216.15s3.64,132.83-.28,208.1c-3.43,65.26,11.45,162.45,11.45,162.45l109.67-4.78,42.67-355.98-5.53-244.2,34.88-124.09-217.87-2.08Z"/>
  <path class="cls-13" d="M616.94,944.39l-24.1,336.87c1.17,18.13-4.92,88.09-10.26,105.46l-32.61,224.82-3.13,32.48-88.68,8.49,15.06-716,143.72,7.89Z"/>
  <path class="cls-8" d="M631.8,717.6c5.17-2.05,21.92-11.15,21.86-13.88-.02-.85-18.02-98.41-18.44-102.9-1.67-18.03-3.44-36.14-7.46-53.82-5.2-22.89-17.68-37.32-34.43-54.09-19.68-19.7-38.7-29.65-63.95-39.45l-16.82-5.44s27.09,30.13-26.81,40.26c-53.9,10.12-87.95-44.92-87.95-44.92,0,0-22.62,14.86-57.74,32.71-13.48,6.87-48.01,29.72-53.77,43.7-14.37,34.94-26.37,111-19.05,172.83l24.89-12.44,20.48-14.47c-3.47,42.92-4.52,110.75,0,178.08.63,9.03-5.09,60.31-4.39,69.34.41,5.35-3.02,43.41.07,47.66,2.92,4.03,21.61,6.55,26.84,8.1,56.11,16.64,207.27,4.79,207.27,4.79,22.98-3.88,42.1-6.36,62.16-17.23,14.21-7.7,16.84-12.14,24.44-19.09-4.54-19.11-5.22-39.16-6.58-58.71-2.19-31.41-6.33-64.33-7.84-95.81-.09-1.8.16-59.83.75-61.17,5.29-2.75,4.33.32,16.48-4.07Z"/>
  <path class="cls-18" d="M614.06,579.07c.63,16.76.87,33.53,1.11,50.29.28,20.35.46,40.7.41,61.05-.02,10.05-.07,20.1-.39,30.15,0,.23.52.23.64.22,10.49-.46,20.49-4.22,29.5-9.44,3.01-1.75,5.98-3.66,8.61-5.95.39-.34.74-.54.81-1.04.15-1.1-.2-2.49-.28-3.59-.25-3.15-.5-6.3-.75-9.46-.05-.68-1.87.13-2.08.33-6.24,5.92-13.99,10.83-21.9,14.13-3.72,1.55-7.58,2.72-11.56,3.32-.29.04-1.23.25-1.26.65-.03.43.63.36.9.32,12.39-1.87,23.96-8.47,33.47-16.44.8-.67,1.59-1.35,2.35-2.06-.69.11-1.39.22-2.08.33.2,2.52.4,5.05.6,7.57l.35,4.46c.03.34.09.7.08,1.05,0,.1.25-.2-.05-.02-.63.39-1.29,1.11-1.94,1.61-1.4,1.08-2.86,2.08-4.35,3.02-5.14,3.25-10.8,6.15-16.63,7.89-4.14,1.24-8.54,2.1-12.87,2.29l.64.22c.61-18.74.45-37.52.34-56.26-.12-20.11-.37-40.23-.79-60.34-.17-8.3-.36-16.6-.67-24.89-.02-.51-2.2-.13-2.17.58h0Z"/>
  <path class="cls-10" d="M416.76,463.41c33.77,12.99,70.23,9.06,95.65-16.25-7.49-3.21-7.72-9.99-8.26-11.52-2.02-5.69-4.31-45.45-4.31-45.45l-105.06-25.95s11.61,61.96,5.2,82.11c-.34,1.07,2.42-2.38,0,0,6.5,4.79,9.17,14.12,16.79,17.05Z"/>
  <path class="cls-20" d="M520.91,394.4c-2.38,6.19-4.43,12.53-7.07,18.59-.04.09-.05.18-.06.26-.35-.18-.76-.14-.98.33-1.88,4.1-5.78,6.8-7.31,11.08-1.32,3.69-1.15,8.5-.56,12.54-2.61.97-5.15,1.07-8.5,1.96-23.06,4.05-24.12,1.05-58.62-12.87-10.95-4.42-10.56-12.62-12.72-13.74,31.33-7,62.87-11.75,95.82-18.15Z"/>
  <path d="M361.17,341.72s-7.66-14.1-20.34-48.87c-11.36-31.13,34.06-67.55,63.64-78.27,16.26-5.89,73.75-9.74,89.58-5.72,15.83,4.02,27.24,22.19,34.43,50.02,0,0-14.31-26.24-32.03-22.11-14.45,3.37-62.78,5.25-74.06,12.88-11.27,7.63-36.22,23.92-28.8,68.33,2.02,12.1-21.82,3.57-26.28,11.97-4.46,8.4-6.13,11.77-6.13,11.77Z"/>
  <path class="cls-10" d="M395.47,388.63l-13.25-42.48-11.54-48.17,11.9-40.53,31.33-23.47,39.5-6.34s32.95,1.7,43.38,2.42c10.43.71,19.76,11.49,29.11,23.74,9.35,12.26,10.8,35.33,10.8,35.33.43.72.23,4.33.22,5.07-.22,9.43.69,17.45.38,24.51-.14,3.35.45,6.33,1.99,9.13,6.07,11.05,6.98,16.12,7.42,23.51.6,10.09.39,18.83-1.74,27.27-2.26,8.95-5.39,18.76-6.04,20.68,0,0-7.26,20.49-9.25,22.74-2,2.25-5.17,4.61-6.78,5.1-1.61.5-22.95,6.03-22.95,6.03l-10.08,1.68c-3.43.57-6.93.46-10.32-.33-9.17-2.15-35.44-8.8-42.92-12.16-10.07-4.53-25.6-28.4-25.6-28.4"/>
  <path d="M396.96,344.87c.9,3.72,3.61,18.67,4.72,22.25l-19.51,3.26c-8.26-11.79-18.13-25.63-21-28.66-4.49-4.74-9.93-30.81-11.98-40.62l-.44-2.12c-1.99-9.4,4.23-26.1,16.65-44.65,13.66-20.42,41.8-35.84,71.69-39.27,2.84-.32,5.7-.54,8.48-.65,26.32-1.01,49.99,7.79,70.34,26.17,14.68,13.25,18.76,30.75,19.79,41.71-4.69-21.11-14.94-34.68-15.38-35.24-9.76-13.13-19.52-15.59-25.99-15.34-5.64.22-9.49,2.46-10.25,2.94-5.97,2.56-15.24,3.41-22,3.67-5.03.19-9.08.07-10.18.04-3.73-1.68-9-2.43-15.25-2.19-14.52.56-34.52,6.87-37.58,13.88-3.39,7.77-9.35,34.3-8.35,40.05"/>
  <path class="cls-10" d="M397.5,389.25c-9.31,13.67-20.82-7.28-20.82-7.28-13.28-11.31-15.71-25.4-16.97-35.09-1.26-9.7,9.35-11.38,9.35-11.38,9.16-.57,14.02,3.56,26.78,32.6"/>
  <path d="M515.48,237.03c-8.43-9.37-23.51-20.32-32.55-29.1-3.52.29-20.68,2.93-24.3,3.42-36.85,5-82.25,34.76-84.6,48.91-1.46,8.82,8.53,53.69,10.85,57.52,6.37,10.51,10.73,24.98,10.73,24.98-1.5-17.23,7.27-38.28,7.76-44.37.49-6.09-12.17-32.3-10.49-33.8,1.67-1.5,33.26-17.65,70.69-23.68,11.03-1.78,22.23-2.77,32.26-3.2-.09-.1,19.73-.59,19.64-.69Z"/>
  <path d="M457.86,321.23c-2.43-.79-5.16-1.3-6.41.24-.3.36-1.08,1.39-1.26,2.93-.24,1.97.87,3.98,2.27,5.08,1.87,1.47,4.55,1.33,6.41.05,2.52-1.73,2.86-5.18,1.78-7.46-.2-.42-.82-.21-2.78-.85"/>
  <path d="M523.41,309.96c2.05-1.53,4.83-.97,6.52.09.4.25,1.47.96,2.15,2.37.87,1.79.47,4.05-.49,5.54-1.29,2-3.87,2.73-6.04,2.13-2.95-.82-4.39-3.97-4.11-6.47.05-.46.33-2.4,1.98-3.64"/>
  <path d="M506.46,321.95s7.51-10.52,14.01-12.23c9.48-2.49,12.31-.73,16.46,3.11,0,0-7.08-3.56-13.71-1.62-6.34,1.85-16.77,10.74-16.77,10.74Z"/>
  <path d="M473.63,324.4s-15.03-6.01-21.66-4.96c-9.69,1.53-20.12,9.33-22.37,14.52,0,0,13.6-11.16,20.45-12.05,6.55-.85,23.59,2.49,23.59,2.49Z"/>
  <path d="M467.28,289.85c.6,2.25,1.19,4.51,1.79,6.77.45,1.72,1.61,5.62,2.06,7.34-5.88.02-11.41-.83-15.13-.5-7.37.65-15.05.83-21.88,3.83-3.27,1.44-6.03,3.1-8.41,5.6-.75.79-2.54,3.81-4.05,3.56-.62-.1-.46-3.12-.44-3.43.35-6.08,4.54-9.69,10.06-12.6,11.26-5.92,23.4-8.85,36-10.58"/>
  <path d="M537.09,285.54s-2.85-.78-2.88-.79c-10.91-2.25-21.72-1.38-32.58.77.12,2.33.25,4.66.37,7,.1,1.78.16,4.99.27,6.76,4.86-1.76,9.02-3.76,12.18-4.56,6.26-1.6,12.84-3.37,19.3-2.57.51.06,3.62.17,4.11.25,1.87-3.32.16-6.4-.76-6.86Z"/>
  <g>
    <path class="cls-4" d="M505.59,360.89c-2.57,1.99-6.95,2.35-10.1,1.02-.7-.29-2.74.44-1.76.86,4.16,1.75,10.39.94,13.71-1.62.33-.26.22-.53-.26-.61-.5-.08-1.24.07-1.59.35"/>
    <path class="cls-4" d="M492.37,362.15c-2.05-.6-4.27-.73-6.42-.54-.31.03-.7.22-.89.46-.15.19-.15.42.1.52,1.08.41,2.37.44,3.51.23.36-.07.82-.24.97-.59.14-.33-.24-.46-.52-.41-.95.18-1.95.15-2.83-.19-.27.33-.53.65-.79.98,1.93-.17,3.91-.03,5.74.51.37.11.83-.08,1.11-.32.2-.18.39-.54.03-.65"/>
    <path class="cls-4" d="M483.97,363.83c-2.5.35-5.61-.27-7.15-1.98-2.33-2.58-1.37-7.43,1.43-9.79.3-.26.08-.49-.27-.5-.46-.02-.96.23-1.28.5-2.44,2.06-3.57,6.09-2.71,8.74.8,2.47,3.48,3.85,6.58,4.08.92.07,1.89.06,2.82-.07.38-.05,1.04-.28,1.17-.62.14-.34-.23-.41-.59-.36"/>
    <path class="cls-4" d="M509.93,358.84c-.18-.27.03-.5.23-.53.68-.09,1.33-.4,1.82-.97.27.24.53.48.8.72-1.32.37-2.59,1.05-3.66,2.07-.21.2-.57.15-.82,0-.18-.11-.41-.4-.2-.61"/>
    <path class="cls-4" d="M508.11,359.52c1.19-1.14,2.62-1.88,4.1-2.3.22-.06.52.01.72.19.15.14.22.36.07.52"/>
    <path class="cls-4" d="M515.16,358.32c1.61-.33,3.33-1.76,3.8-3.81.72-3.09-.97-6.34-3.3-7.85-.25-.16-.18-.44.03-.56.27-.15.65-.03.91.14,2.03,1.32,3.61,3.74,3.8,6.5.17,2.58-1.08,4.61-2.89,5.66-.54.31-1.13.56-1.73.69-.24.05-.7,0-.87-.27-.17-.29.03-.46.26-.5"/>
  </g>
  <path class="cls-7" d="M499.63,380.82c-5.55.85-22.18,3.85-22.18,3.85,0,0,6.66,4.19,23.32,1.64,16.65-2.56,21.38-8.31,21.38-8.31l-22.52,2.82Z"/>
  <path class="cls-18" d="M396.81,443.84c3.16,6.17,7.59,11.88,12.17,17.04,10.08,11.35,22.72,20.57,37.18,25.46,9.02,3.05,18.55,4.34,28.06,3.97,9.91-.38,20.2-1.78,29.48-5.45,8.62-3.41,17.11-10.01,17.43-20.03.06-2.04-.15-4.21-.83-6.15-.22-.64-.59-1.18-.95-1.75-1.7-2.78-3.4-5.56-5.1-8.35-.39-.63-.77-1.27-1.16-1.9l-1.62,1.22c6.13,2.57,12.26,5.15,18.4,7.72l-.46-.45c2.35,5.77,2.82,12.7,1.6,18.76-.74,3.69-2.17,7.31-4.58,10.23-1.81,2.19-4.02,4.03-6.37,5.62-6.3,4.29-13.69,6.93-21.06,8.71-9.52,2.31-19.4,3.14-29.18,2.87-9.39-.26-18.44-1.8-27.36-4.75-9.03-2.98-17.74-7.02-25.89-11.93-8.22-4.96-15.6-10.93-22.33-17.77-2.31-2.35-4.57-4.78-6.48-7.46-.88-1.24-1.81-2.59-2.2-4.08-.13-.5-.15-.58-.12-.97.01-.19.2-.35.13-.43,0,0-.12.25-.09.12,0,0-.5.39.03-.02.14-.11.29-.22.43-.34,3.83-3,7.65-6,11.48-8.99.37-.29.74-.58,1.11-.87,1.16-.91-.58-1.69-1.45-1.01-4.14,3.25-8.29,6.49-12.43,9.74-.19.15-.38.3-.57.45.21-.17.24-.25-.07.05-.22.21-.4.36-.55.64-.43.81-.24,1.82.04,2.64.74,2.17,2.23,4.11,3.65,5.87,3.13,3.89,6.76,7.4,10.42,10.79,8.32,7.71,17.94,13.84,28.13,18.77,9.91,4.79,20.52,8.56,31.43,10.21,11.68,1.77,23.98,1.37,35.6-.63,9.46-1.62,18.97-4.46,27.17-9.55,2.99-1.86,5.83-4.06,8.12-6.76,2.95-3.47,4.62-7.87,5.36-12.33.8-4.85.46-9.91-.73-14.66-.27-1.07-.53-2.24-.99-3.25-.24-.53-.56-.69-1.07-.9-5.46-2.29-10.92-4.58-16.39-6.88-.5-.21-1-.42-1.49-.63-.67-.28-2.15.35-1.62,1.22,1.27,2.08,2.54,4.15,3.81,6.23.79,1.29,1.58,2.59,2.37,3.88.21.35.42.71.64,1.06.1.16.19.36.06.07.56,1.32.79,2.86.9,4.27.23,2.89-.35,6.09-1.69,8.81-2.16,4.37-6.12,7.53-10.38,9.74-7.88,4.1-16.99,5.67-25.74,6.51-9.84.95-19.68.57-29.26-2.03-14.81-4.01-27.96-12.64-38.48-23.71-3.67-3.87-7.05-8.02-10.08-12.41-1.54-2.23-2.87-4.56-4.27-6.87-.06-.11-.12-.22-.17-.33-.45-.87-2.51-.06-1.99.96Z"/>
  <path class="cls-19" d="M386.32,361.35c-2.06-4.22-4.33-8.39-7.14-12.16-1.45-1.94-3.07-3.86-5.04-5.29-.8-.58-1.71-1.14-2.69-1.33-.22-.04-.46-.08-.67.01-.45.2-.73.97-.92,1.37-1.88,3.82-1.66,8.39-.58,12.41.06.23.79.04.72-.19-1.1-4.11-1.34-8.96.84-12.79.13-.23.26-.45.42-.66l-.48.19c.13,0-.05-.02.09,0,.17.03.36.07.44.1.66.21,1.28.55,1.86.94,2.86,1.94,5.03,4.9,6.92,7.73,2.09,3.14,3.88,6.47,5.53,9.85.11.23.82,0,.72-.19h0Z"/>
  <path class="cls-19" d="M383.1,362.77c-1.02.11-2.13.49-2.54,1.52s-.15,2.35.1,3.43c.33,1.38.8,2.72,1.18,4.08.26.92.7,2.2.27,3.13-.04.09-.11.17-.15.26-.01.02-.08.07-.08.09-.01.15.22-.11.23-.04,0,.04-.47-.23-.51-.25-.49-.39-.84-.96-1.17-1.48-1.06-1.74-1.83-3.68-2.51-5.6-.46-1.29-.98-2.61-1.19-3.97-.15-1.01-.25-2.02-.29-3.04-.12-2.95.09-7.12,2.91-8.87.29-.18-.43-.08-.55,0-2.54,1.57-3.05,4.92-3.1,7.66-.02,1.25.05,2.5.21,3.73.12.96.35,1.8.64,2.74.7,2.23,1.51,4.45,2.59,6.53.36.68.74,1.37,1.23,1.97.26.32.58.71,1,.82.87.24,1.51-.48,1.6-1.28.12-1.18-.36-2.45-.7-3.56-.52-1.71-2.78-7.26.49-7.6.18-.02.79-.32.32-.27h0Z"/>
  <path class="cls-10" d="M380.99,759.21c31.53,4.91,189.7,84.04,189.7,84.04l15.5.69-8.14,49.57-1.33,1.17s-204.65-14.46-262.54-62.35c0,0-20.42-12.69-26.46-54.09-6.04-41.39-13.51-194.2-13.51-194.2l57.79,10.26c16.68,12.99,43.85,9.59,44.79,30.71l4.19,134.2"/>
  <path class="cls-8" d="M274.21,572.7s-5.74,100.49-6.42,133.97c0,0,47.96,14.66,95.94,6.67,50.86-8.47-2.59-113.72-2.59-113.72l-86.93-26.92Z"/>
  <g>
    <path class="cls-8" d="M327.04,508.43s49.1-1,58.97,74.14c9.86,75.14,6.22,123.98,6.22,123.98,0,0-32.47,10.49-63.44,8.27-30.97-2.22-60.99-8.15-60.99-8.15l-.55-14.07s47.13,9.09,77.88,7.6c30.75-1.49,42.5-5.18,42.5-5.18"/>
    <path class="cls-18" d="M326.61,509.01c1.57-.03,2.48.11,4.1.34,3.62.53,7.16,1.51,10.56,2.84,11.84,4.63,21.46,13.47,28.28,24.09,12.92,20.13,15.41,44.41,17.87,67.62,2.53,23.84,4.09,47.81,4.34,71.78.08,7.08.04,14.16-.17,21.23-.06,2.07-.14,4.13-.24,6.2-.05,1.04-.21,2.13-.18,3.18,0,.13-.02.27-.03.4.32-.22.63-.43.95-.65-3.92,1.26-7.94,2.27-11.94,3.21-9.32,2.19-18.8,3.79-28.34,4.65-5.7.51-11.43.74-17.15.59-6.18-.16-12.36-.78-18.51-1.41-10.68-1.1-21.33-2.54-31.94-4.23-5.26-.84-10.53-1.72-15.76-2.75l.41.27c-.18-4.69-.37-9.38-.55-14.07l-1.76.85c13.88,2.67,27.94,4.65,41.99,6.09,10.91,1.12,21.91,1.92,32.88,1.65,11.25-.28,22.6-1.23,33.73-2.88,4.19-.62,8.53-1.22,12.58-2.49,1.27-.4,1.03-1.41-.27-1.01-3.05.95-6.28,1.46-9.43,1.97-10.74,1.76-21.64,2.61-32.51,3.13-10.8.51-21.66-.16-32.42-1.17-9.99-.95-19.95-2.25-29.87-3.79-5.13-.8-10.26-1.63-15.35-2.61-.51-.1-1.79.15-1.76.85.18,4.69.37,9.38.55,14.07,0,.17.31.25.41.27,14.67,2.89,29.54,5.01,44.39,6.63,11.91,1.3,23.79,2.3,35.78,1.5,10.09-.67,20.1-2.21,29.97-4.38,5.07-1.11,10.16-2.33,15.11-3.93.25-.08.92-.29.95-.65.62-8.32.66-16.7.66-25.03,0-22.74-1.26-45.48-3.39-68.12-.71-7.56-1.53-15.12-2.44-22.66-.85-7-1.73-14-3.2-20.91-2.18-10.17-5.46-20.19-10.46-29.33-6.5-11.88-16.06-22.13-28.46-27.89-5.58-2.59-12.04-4.63-18.27-4.62-.09,0-.19,0-.28,0-.39,0-1.27.14-1.44.58s.14.59.57.59h0Z"/>
  </g>
  <path class="cls-16" d="M1071.41,671.11s.04-4.84,0-13.26c-.19-41.93-7.06-172.4-24.98-235.57-21.51-75.85-32.06-86.05-71.05-94.82-38.99-8.77-61.42,81.14-61.42,81.14l8.93,185.55,148.85,124.58-.34-47.62Z"/>
  <path class="cls-1" d="M731.84,810.34c-.41-2.36-.82-4.72-1.23-7.08l-.39.69c6.82-3.99,13.66-7.93,20.51-11.86,15.87-9.11,31.8-18.12,47.81-27,18.21-10.09,36.5-20.04,55.04-29.51,21.75-11.12,43.65-21.94,65.63-32.59,10.76-5.21,21.54-10.4,32.36-15.48.16-.07.32-.15.47-.22.35-.16.66-.41.64-.82-1.39-23.35-2.89-46.69-4.57-70.02-1.32-18.31-2.76-36.61-4.38-54.9-1.24-13.98-2.59-27.95-4.12-41.89-1.15-10.45-2.4-20.88-3.84-31.3-1.06-7.67-2.21-15.33-3.52-22.97-.96-5.6-2-11.19-3.14-16.76-.87-4.26-1.79-8.5-2.71-12.74-.79-3.66-1.57-7.32-2.25-11-.82-4.48-1.61-9.03-1.92-13.57-.58-8.71.82-17.63,3.62-25.87,2.6-7.66,6.67-15.44,13.02-20.65,2.67-2.19,5.74-3.79,9.13-4.49,1.35-.28.99-1.53-.34-1.26-7.39,1.53-13.22,6.82-17.35,12.91-4.84,7.14-7.79,15.59-9.3,24.04-1.2,6.73-1.38,13.53-.49,20.31.25,1.94.54,3.87.86,5.8.61,3.69,1.34,7.36,2.12,11.01.86,4.04,1.75,8.08,2.6,12.12,1.09,5.15,2.11,10.32,3.04,15.5,1.27,7.03,2.4,14.09,3.44,21.16,1.42,9.68,2.65,19.38,3.79,29.09,1.53,13.08,2.86,26.18,4.09,39.3,1.61,17.24,3.04,34.51,4.35,51.78,1.68,22.09,3.17,44.19,4.54,66.29.39,6.23.77,12.46,1.14,18.69l.64-.82c-8.94,4.18-17.83,8.45-26.72,12.74-21.29,10.27-42.49,20.73-63.58,31.4-19.06,9.65-37.9,19.71-56.61,30.02-16.74,9.22-33.39,18.6-49.98,28.09-8.36,4.78-16.84,9.43-25.05,14.46-.12.07-.24.14-.37.21-.24.14-.44.4-.39.69.41,2.36.82,4.72,1.23,7.08.15.85,2.33.32,2.17-.58h0Z"/>
  <path class="cls-1" d="M954.5,687.63c2.9.32,5.79,1.17,8.53,2.15,5.98,2.15,11.61,5.55,15.82,10.37,3,3.43,5.13,7.46,6.41,11.83.29.99,2.46.4,2.17-.58-2.22-7.56-7.03-13.91-13.56-18.29-4.59-3.08-9.83-5.2-15.22-6.42-1.12-.25-2.26-.5-3.4-.63-1.06-.12-2.22,1.41-.76,1.57h0Z"/>
  <path class="cls-16" d="M1038.57,778.47s31.53-24.73,32.99-59.48c1.46-34.75-66.01-45.9-66.01-45.9l33.02,105.38Z"/>
  <path class="cls-1" d="M746.92,861.78c1.68,4.65,3.36,9.3,5.04,13.95.17.48.87.44,1.26.34,3.15-.79,6.3-1.57,9.45-2.35,8.96-2.2,17.92-4.37,26.89-6.51,14.12-3.37,28.25-6.69,42.39-9.96,14.08-3.26,28.24-6.21,42.24-9.8,10.32-2.65,20.55-5.62,30.72-8.79,11.85-3.69,23.62-7.64,35.3-11.85,12.1-4.35,24.11-8.98,35.96-13.96,11.25-4.72,22.39-9.76,33.24-15.34,9.16-4.71,18.21-9.78,26.63-15.74,6.13-4.34,12.31-9.23,16.65-15.43.81-1.16,1.54-2.37,2.15-3.64.49-1.02-1.69-.87-2.05-.13-2.93,6.1-8.34,10.91-13.58,15.02-7.66,6-16.09,11.03-24.64,15.66-10.39,5.62-21.09,10.66-31.91,15.38-11.69,5.1-23.55,9.81-35.51,14.25-11.74,4.36-23.58,8.45-35.51,12.28-10.5,3.37-21.06,6.55-31.7,9.42-12.19,3.29-24.54,5.94-36.84,8.76-15.16,3.48-30.31,7.01-45.45,10.6-10.18,2.42-20.36,4.86-30.53,7.35-4.57,1.12-9.13,2.24-13.69,3.38-.19.05-.38.09-.57.14l1.26.34c-1.68-4.65-3.36-9.3-5.04-13.95-.31-.86-2.47-.24-2.17.58h0Z"/>
  <path class="cls-10" d="M731.11,813.07l11.63,29.86,8.3,25.26s-40.95,25.01-52.33,26.62c-11.38,1.61-39.63,4.82-39.63,4.82,2.26,3.05,3.49,6.82,3.47,10.64-.31,4.38-2.28,8.37-5.46,11.03l-16.42-15.7c-.87,9.52-9.79,4.92-9.79,4.92l-12.69-14.28c-.57,11.86-12.28,6.18-12.28,6.18l-10.9-21.84c-1.66,4.49-4.15,8.55-7.31,11.95-4.26,3.82-8.32-4.9-8.32-4.9l9.06-40.97,45.83-29.59,86.08-.35,10.75-3.65Z"/>
  <path class="cls-10" d="M556.24,890.15c1.16.59,15.79-.25,24.16,7.49,8.37,7.74,29.22,17.75,29.22,17.75,0,0,37.17,10.39,42.12,9.53,4.96-.87,11.49-7.93,11.49-7.93,3.22-.14,6.49.13,9.73.81,8.81,1.18,13.48-8.18,13.48-8.18l-10.73-5.56c9.98,5.44,20.21,10.33,30.64,14.66,3.15.79,3.87-1.09,3.89-3.58-.12-3.69-1.91-7.31-4.89-9.87l-46.41-41.27c7.34-3.41,14.25-7.55,20.64-12.36,6.54-4.86,2.09-10.11.45-11.51-1.64-1.4-23.42,2.49-23.42,2.49,0,0-32.88-5.73-39.86-5.29-6.98.44-43.96,4.88-43.96,4.88l-7.21-1.15s-10.49,48.5-9.33,49.09Z"/>
  <path class="cls-20" d="M706.77,904.66c-5.23-4.69-10.46-9.38-15.69-14.07-8.26-7.41-16.52-14.81-24.78-22.22-1.91-1.71-3.81-3.42-5.72-5.12l-.81,1.28c6.72-3.14,13.15-6.86,19.17-11.19,2.41-1.74,5.28-3.67,5.79-6.85.32-2-.43-3.94-1.61-5.53-.69-.94-1.44-1.83-2.63-2.05-1.41-.26-2.93-.1-4.34,0-3.9.28-7.78.86-11.64,1.46-1.72.26-3.43.54-5.14.83-.51.09-1.87.07-2.31.4.21-.16,1.04.13.47-.01-.3-.07-.61-.11-.92-.16-1.16-.2-2.32-.4-3.49-.59-8.1-1.35-16.22-2.65-24.37-3.66-3.57-.44-7.25-1.01-10.86-.9-5.43.16-10.92,1.11-16.25,2.14-.47.09-1.5.59-1.33,1.22.18.67,1.31.48,1.76.39-.82.16-.15.03.04,0,.34-.06.69-.13,1.03-.19,1.15-.2,2.3-.4,3.45-.58,3.1-.48,6.21-.89,9.33-1.12.32-.02.63-.05.95-.06-.36.02-.08,0,.01,0,.24,0,.48,0,.72,0,.64,0,1.28.04,1.92.08,1.6.1,3.19.26,4.78.44,8.01.88,15.98,2.16,23.93,3.46,2.38.39,4.76.79,7.13,1.2,1.34.23,2.6-.12,3.93-.34,3.61-.6,7.22-1.17,10.85-1.64,1.8-.23,3.6-.44,5.4-.58.67-.05,1.2-.09,1.84-.09.29,0,.59,0,.88.01.32.01.46.04.45.03.32.05.21.06.1-.03.23.21.46.42.67.65.64.69,1.21,1.46,1.61,2.32,1.22,2.67.35,5.21-1.82,7.08-3.02,2.61-6.61,4.77-10.02,6.83-3.47,2.1-7.05,3.99-10.72,5.71-.33.15-1.36.79-.81,1.28,5.23,4.69,10.46,9.38,15.69,14.07,8.26,7.41,16.52,14.81,24.78,22.22,1.91,1.71,3.81,3.42,5.72,5.12.83.74,3.73-.45,2.86-1.22h0Z"/>
  <path class="cls-20" d="M663.28,865.56c-3.79-4.55-8.2-8.2-13.08-11.51-2.5-1.7-4.87-3.54-7.46-5.12-2.57-1.57-5.22-2.99-7.94-4.27-.74-.35-3.58.81-2.5,1.32,2.79,1.32,5.51,2.79,8.13,4.43s4.78,3.41,7.25,4.99c4.8,3.08,9.07,6.9,12.72,11.28.55.67,3.49-.39,2.89-1.11h0Z"/>
  <path class="cls-20" d="M639.16,882.19c-.1.56,2.46,1.93,2.8,2.16,2.56,1.71,5.16,3.38,7.73,5.07,7.33,4.81,14.49,9.87,21.91,14.56,3.64,2.3,7.24,4.78,11.38,6.07.63.2,1.58-.13,2.15-.4.29-.14,1.03-.56.39-.76-3.65-1.13-6.8-3.31-10.02-5.31-3.57-2.23-7.07-4.56-10.56-6.91-6.33-4.26-12.68-8.46-19.05-12.66-.45-.3-3.73-2.13-3.65-2.63.05-.28-2.93-.1-3.08.83h0Z"/>
  <path class="cls-20" d="M627.39,896.34c4.59,5.05,9.92,9.14,15.82,12.56,3.09,1.79,5.99,3.74,9.25,5.23s6.44,2.61,9.8,3.49c.7.18,1.67-.05,2.18-.58.46-.48.34-1.06-.33-1.24-3.31-.87-6.53-2.01-9.63-3.45s-5.89-3.34-8.85-5.05c-5.75-3.33-10.92-7.29-15.4-12.22-.8-.88-3.74.28-2.85,1.26h0Z"/>
  <path class="cls-20" d="M380.92,756.4c-12.23-.71-24.75,6.71-28.96,18.41-.26.72,2.74.37,3.06-.49,3.52-9.79,13.37-17.14,23.94-16.53.7.04,1.63-.12,2.18-.58.42-.35.46-.77-.22-.81h0Z"/>
  <path class="cls-9" d="M499.99,375.47c-11.04,1.6-29.12,2.92-29.12,2.92,0,0,8.07,27.6,33.68,23.9,25.6-3.7,19.95-32.26,19.95-32.26,0,0-13.46,3.83-24.51,5.43Z"/>
  <path class="cls-14" d="M500.1,375.45c-5.25.76-24.9,2.89-24.9,2.89,0,0,9.09,16.15,28.08,13.4,20.59-2.97,18.68-20.77,18.68-20.77l-21.86,4.48Z"/>
  <path class="cls-6" d="M500.44,376.18c-5.25.76-21.35,2.21-21.35,2.21,0,0,6.56,4.74,22.31,2.46,15.75-2.28,19.97-8.41,19.97-8.41l-20.93,3.74Z"/>
  <path class="cls-9" d="M525.74,369.71c-.58-.05-1.14.31-3.78.47-4.4.27-5.69-.81-8.87-.59-5.43.38-8.55,2.92-10.89,3.26-2.34.34-6.05-1.22-11.37-.05-3.12.69-10.75,2.92-15.04,3.91-2.58.59-5.77.05-6.31.27-.75.3,1.55,5.59,30.93,1.35,29.38-4.24,26.13-8.56,25.33-8.63Z"/>
</svg>