<?xml version="1.0" encoding="UTF-8"?>
<svg xmlns="http://www.w3.org/2000/svg" xmlns:xlink="http://www.w3.org/1999/xlink" viewBox="0 0 1334 1000">
  <defs>
    <style>
      .cls-1 {
        fill: #a99231;
      }

      .cls-2 {
        fill: #622515;
      }

      .cls-3 {
        fill: #13110f;
      }

      .cls-4 {
        fill: #18536d;
      }

      .cls-5 {
        fill: #273339;
      }

      .cls-6 {
        fill: #5e5f5f;
      }

      .cls-7 {
        fill: #010101;
      }

      .cls-8 {
        fill: #653c29;
      }

      .cls-9 {
        fill: #ababab;
      }

      .cls-10 {
        fill: #a63d2e;
      }

      .cls-11 {
        fill: #002935;
      }

      .cls-12 {
        fill: #745245;
      }

      .cls-13 {
        stroke-width: .5px;
      }

      .cls-13, .cls-14 {
        fill: none;
        stroke: #010101;
        stroke-miterlimit: 10;
      }

      .cls-15 {
        fill: #a66e53;
      }

      .cls-16 {
        fill: url(#linear-gradient);
        opacity: .5;
      }

      .cls-14 {
        stroke-width: .75px;
      }

      .cls-17 {
        fill: #fff;
      }

      .cls-18 {
        fill: #756661;
      }

      .cls-19 {
        fill: #5e1a15;
      }

      .cls-20 {
        fill: #0d0b09;
      }

      .cls-21 {
        fill: #ccb631;
      }

      .cls-22 {
        fill: #4f2f26;
      }

      .cls-23 {
        fill: #f2ebd1;
      }

      .cls-24 {
        fill: #24180f;
      }

      .cls-25 {
        fill: #706027;
      }

      .cls-26 {
        fill: #a53b23;
      }

      .cls-27 {
        fill: #4f2e25;
      }

      .cls-28 {
        fill: #89772e;
      }
    </style>
    <linearGradient id="linear-gradient" x1="-493.83" y1="2886.79" x2="415.38" y2="2886.79" gradientTransform="translate(-2179.58 458.54) rotate(90) scale(1 -1)" gradientUnits="userSpaceOnUse">
      <stop offset="0" stop-color="#f0ebe0"/>
      <stop offset=".18" stop-color="#eee8dd" stop-opacity=".99"/>
      <stop offset=".33" stop-color="#e8e1d4" stop-opacity=".97"/>
      <stop offset=".46" stop-color="#ded4c5" stop-opacity=".93"/>
      <stop offset=".59" stop-color="#d0c2b0" stop-opacity=".88"/>
      <stop offset=".72" stop-color="#bdab95" stop-opacity=".82"/>
      <stop offset=".84" stop-color="#a78e73" stop-opacity=".73"/>
      <stop offset=".96" stop-color="#8d6d4d" stop-opacity=".64"/>
      <stop offset="1" stop-color="#83603d" stop-opacity=".6"/>
    </linearGradient>
  </defs>
  <g id="Layer_2" data-name="Layer 2">
    <polyline class="cls-23" points="1570.79 974.6 1570.79 -38.29 -147.86 -38.29 -147.86 974.6"/>
    <polyline class="cls-16" points="1570.79 870.92 -156.37 870.92 -156.37 -38.29 1570.79 -38.29"/>
    <path class="cls-18" d="M1527.05,914.13l-1.65-.63-2.93-116.53c-4.34-87.95-28.12-151.77-78.71-156.73-34.44,0-150.95-1.6-162.55,7.32-3.22-152.78,13.39-274.66-236.18-274.66l-275.1.66c-2.94,67.44-10.94,134.65-20.87,201.41-12.46,83.74,11.94,166.97-.82,250.65-6.41,42.06,48.96,84.42,43.53,126.62-5.53,42.99-11.13,85.97-16.56,128.97-8.27,65.39-16.2,130.88-23.02,196.47h785.36v-136.3c19.55-6.4,33.14-27.53,33.25-51.71v-97.21c-.06-37.25-15.84-61.57-43.74-78.34Z"/>
    <path class="cls-18" d="M794.64,1274.92c.77-19.15,1.51-38.3,2.09-57.45,1.35-44.07,46.57-88.12,46.57-132.2l-10.23-713.46-591.97-1.67c-128.17.02-149.5,121.88-152.72,274.66-11.6-8.92-128.11-7.32-162.55-7.32-50.6,4.96-74.38,68.78-78.71,156.73l-2.93,116.53-1.65.63c-27.9,16.77-43.68,41.09-43.74,78.34v97.21c.1,24.18,13.69,45.31,33.25,51.71v136.3h962.59Z"/>
    <path class="cls-21" d="M623.65,530.69l23.05,62.1,178.08-22.17c-4.07,13.49,7.28,47.53,12.13,65.5,0,0-158.3,50.28-178.2,55.22-70.37,17.46-104.25-15.86-111.25-45.93-4.03-17.31,11.68-108.69,23.77-120.47,2.76-2.69,53.05,6.21,52.42,5.76Z"/>
    <path class="cls-21" d="M595.78,390.33s19.69,15.88,28.67,34.1c6.77,13.74,25.37,161.79,29.26,181.9-5.8,6.12,39.64,27.9,34.89,34.87-11.07,16.26-21.23-.49-26.32,18.48-3.85,14.35-32.98,3.25-33.73,18.09-14.32-4.02-32.13-15.79-37.79-24.97-6.11-9.91-20.54-38.85-20.54-38.85l25.56-223.62Z"/>
    <path class="cls-15" d="M704.59,597.44c-29.65-4.65-187.34,24.7-187.34,24.7l-5.12,57.15s165.27,18.08,230.87-8.18c0,0,21.81-8.5,39.11-43.84,17.29-35.33,51.36-111.21,51.36-111.21l-37.65-52.24c-18.67,6.84-32.72-1.76-39.63,16.88l-51.59,116.73"/>
    <path class="cls-19" d="M705.86,597.91c11.38,6.15,19.19,17.93,20.49,30.8.09.88,2.27.37,2.17-.58-1.33-13.1-9.4-25.12-20.97-31.38-.74-.4-2.7.63-1.7,1.17h0Z"/>
    <path class="cls-20" d="M-148.33,919.34c.24,0,.49,0,.73,0,.72,0,1.45,0,2.17,0,1.2,0,2.4,0,3.59,0,1.65,0,3.3,0,4.95,0,2.09,0,4.19,0,6.28-.01,2.53,0,5.05,0,7.58-.01,2.96,0,5.92-.01,8.87-.02,3.35,0,6.71-.01,10.06-.02,3.75,0,7.5-.01,11.25-.02,4.13,0,8.27-.01,12.4-.02,4.51,0,9.01-.02,13.52-.02,4.87,0,9.73-.02,14.6-.03,5.24,0,10.47-.02,15.71-.03,5.55,0,11.1-.02,16.65-.03,5.87-.01,11.75-.02,17.62-.03l18.56-.03c6.51-.01,13.03-.02,19.54-.03,6.77-.01,13.55-.02,20.32-.04,7.05-.01,14.1-.02,21.15-.04,7.31-.01,14.63-.03,21.94-.04,7.57-.01,15.13-.03,22.7-.04,7.81-.01,15.61-.03,23.42-.04,8.07-.01,16.13-.03,24.2-.04,8.25-.01,16.5-.03,24.75-.04,8.45-.01,16.91-.03,25.36-.04,8.65-.02,17.29-.03,25.94-.05s17.72-.03,26.59-.05l26.98-.05c9.15-.02,18.3-.03,27.45-.05,9.29-.02,18.59-.03,27.88-.05,9.42-.02,18.85-.03,28.27-.05,9.54-.02,19.09-.03,28.63-.05,9.69-.02,19.38-.03,29.08-.05,9.75-.02,19.5-.03,29.24-.05,9.83-.02,19.66-.03,29.49-.05,9.9-.02,19.81-.04,29.71-.05,10-.02,20.01-.04,30.01-.05l30.03-.05c10.05-.02,20.09-.04,30.14-.05,10.07-.02,20.14-.04,30.21-.05,10.08-.02,20.16-.04,30.24-.05,10.08-.02,20.16-.04,30.24-.05,10.11-.02,20.22-.04,30.33-.05,10.04-.02,20.09-.04,30.13-.05,10.01-.02,20.01-.04,30.02-.05,9.96-.02,19.92-.04,29.88-.05,9.94-.02,19.88-.04,29.82-.05,9.83-.02,19.65-.03,29.48-.05,9.74-.02,19.48-.03,29.22-.05,9.64-.02,19.29-.03,28.93-.05,9.54-.02,19.07-.03,28.61-.05,9.42-.02,18.83-.03,28.25-.05l27.96-.05c9.14-.02,18.27-.03,27.41-.05,8.98-.02,17.96-.03,26.94-.05,8.81-.02,17.62-.03,26.44-.05l26-.05c8.44-.01,16.88-.03,25.31-.04,8.23-.01,16.47-.03,24.7-.04,8.02-.01,16.03-.03,24.05-.04,7.79-.01,15.58-.03,23.37-.04,7.55-.01,15.1-.03,22.64-.04,7.32-.01,14.65-.03,21.97-.04l21.09-.04c6.75-.01,13.51-.02,20.26-.04,6.46-.01,12.93-.02,19.39-.03,6.19-.01,12.38-.02,18.56-.03,5.85-.01,11.7-.02,17.55-.03l16.57-.03c5.19,0,10.38-.02,15.56-.03,4.84,0,9.68-.02,14.52-.03l13.44-.02c4.11,0,8.21-.01,12.32-.02,3.74,0,7.47-.01,11.21-.02,3.32,0,6.65-.01,9.97-.02,2.91,0,5.83-.01,8.74-.02,2.49,0,4.99,0,7.48-.01,2.07,0,4.14,0,6.21-.01h4.84c1.16-.01,2.31-.01,3.47-.01h2.07c.21,0,.42,0,.63,0,.31,0,1.64-.59.94-.59-.24,0-.49,0-.73,0-.72,0-1.45,0-2.17,0-1.2,0-2.4,0-3.59,0-1.65,0-3.3,0-4.95,0-2.09,0-4.19,0-6.28.01-2.53,0-5.05,0-7.58.01-2.96,0-5.92.01-8.87.02l-10.06.02c-3.75,0-7.5.01-11.25.02-4.13,0-8.27.01-12.4.02-4.51,0-9.01.02-13.52.02-4.87,0-9.73.02-14.6.03l-15.71.03c-5.55,0-11.1.02-16.65.03-5.87.01-11.75.02-17.62.03l-18.56.03c-6.51.01-13.03.02-19.54.03-6.77.01-13.55.02-20.32.04l-21.15.04c-7.31.01-14.63.03-21.94.04s-15.13.03-22.7.04c-7.81.01-15.61.03-23.42.04-8.07.01-16.13.03-24.2.04-8.25.01-16.5.03-24.75.04-8.45.01-16.91.03-25.36.04-8.65.02-17.29.03-25.94.05-8.86.02-17.72.03-26.59.05l-26.98.05c-9.15.02-18.3.03-27.45.05-9.29.02-18.59.03-27.88.05-9.42.02-18.85.03-28.27.05-9.54.02-19.09.03-28.63.05-9.69.02-19.38.03-29.08.05-9.75.02-19.5.03-29.24.05-9.83.02-19.66.03-29.49.05-9.9.02-19.81.04-29.71.05-10,.02-20.01.04-30.01.05l-30.03.05c-10.05.02-20.09.04-30.14.05-10.07.02-20.14.04-30.21.05-10.08.02-20.16.04-30.24.05-10.08.02-20.16.04-30.24.05-10.11.02-20.22.04-30.33.05-10.04.02-20.09.04-30.13.05-10.01.02-20.01.04-30.02.05-9.96.02-19.92.04-29.88.05-9.94.02-19.88.04-29.82.05-9.83.02-19.65.03-29.48.05-9.74.02-19.48.03-29.22.05s-19.29.03-28.93.05c-9.54.02-19.07.03-28.61.05-9.42.02-18.83.03-28.25.05-9.32.02-18.64.03-27.96.05-9.14.02-18.27.03-27.41.05-8.98.02-17.96.03-26.94.05-8.81.02-17.62.03-26.44.05-8.67.02-17.33.03-26,.05-8.44.01-16.88.03-25.31.04-8.23.01-16.47.03-24.7.04-8.02.01-16.03.03-24.05.04-7.79.01-15.58.03-23.37.04-7.55.01-15.1.03-22.64.04-7.32.01-14.65.03-21.97.04s-14.06.02-21.09.04c-6.75.01-13.51.02-20.26.04-6.46.01-12.93.02-19.39.03s-12.38.02-18.56.03c-5.85.01-11.7.02-17.55.03l-16.57.03c-5.19,0-10.38.02-15.56.03-4.84,0-9.68.02-14.52.03l-13.44.02c-4.11,0-8.21.01-12.32.02-3.74,0-7.47.01-11.21.02-3.32,0-6.65.01-9.97.02-2.91,0-5.83.01-8.74.02-2.49,0-4.99,0-7.48.01-2.07,0-4.14,0-6.21.01h-4.84c-1.16.01-2.31.01-3.47.01h-2.07c-.21,0-.42,0-.63,0-.31,0-1.64.59-.94.59h0Z"/>
    <path class="cls-20" d="M1279.9,657.89c-11.06,14.71-21.41,30.39-28.96,47.22-4.01,8.94-6.67,18.27-8.17,27.95-1.61,10.42-2.07,20.98-2.49,31.5-.58,14.48-.95,28.97-1.3,43.45-.41,17.04-.77,34.09-1.11,51.13-.3,15.05-.59,30.11-.92,45.16-.03,1.5-.07,3.01-.1,4.51,0,.24,1.44.05,1.45-.39.33-14.49.6-28.98.89-43.47.34-16.98.68-33.97,1.08-50.95.35-15.02.72-30.04,1.27-45.06.71-19.6,1.21-39.76,8.38-58.28,3.33-8.61,7.7-16.82,12.4-24.76s9.87-15.73,15.3-23.25c1.22-1.69,2.45-3.36,3.7-5.02.11-.14-1.17-.1-1.43.25h0Z"/>
    <path class="cls-20" d="M1341.85,657.89c-11.06,14.71-21.41,30.39-28.96,47.22-4.01,8.94-6.67,18.27-8.17,27.95-1.61,10.42-2.07,20.97-2.49,31.5-.58,14.48-.95,28.97-1.3,43.45-.41,17.04-.77,34.09-1.11,51.13-.3,15.05-.59,30.11-.92,45.16-.03,1.5-.07,3.01-.1,4.51,0,.23,1.44.04,1.45-.39.33-14.49.6-28.98.89-43.47.34-16.98.68-33.97,1.08-50.95.35-15.02.72-30.04,1.27-45.06.71-19.6,1.21-39.76,8.38-58.28,3.33-8.61,7.7-16.82,12.4-24.76,4.73-7.99,9.87-15.73,15.3-23.25,1.22-1.69,2.45-3.36,3.7-5.02.1-.13-1.17-.09-1.43.25h0Z"/>
    <path class="cls-20" d="M91.06,660.37c11.07,14.73,21.45,30.43,28.98,47.29,4,8.95,6.64,18.31,8.12,28,1.6,10.45,2.04,21.04,2.46,31.59.57,14.49.94,28.99,1.29,43.48.41,16.98.76,33.97,1.1,50.96.3,14.93.58,29.86.91,44.79.03,1.5.07,3.01.1,4.51.02.7,1.47.44,1.46-.14-.33-14.55-.61-29.1-.9-43.65-.34-17.05-.69-34.09-1.08-51.13-.35-15.08-.73-30.16-1.28-45.24-.72-19.55-1.26-39.63-8.44-58.1-3.31-8.52-7.63-16.65-12.28-24.52-4.76-8.05-9.93-15.86-15.41-23.44-1.22-1.69-2.45-3.36-3.7-5.02-.35-.47-1.75.06-1.33.61h0Z"/>
    <path class="cls-20" d="M29.11,660.38c11.07,14.72,21.45,30.43,28.98,47.28,4,8.95,6.64,18.31,8.12,28,1.6,10.45,2.04,21.03,2.45,31.58.57,14.49.94,28.99,1.29,43.48.41,16.98.76,33.97,1.1,50.96.3,14.93.58,29.86.91,44.79.03,1.5.07,3.01.1,4.51.02.73,1.48.48,1.46-.13-.33-14.55-.61-29.1-.9-43.65-.34-17.05-.69-34.09-1.08-51.13-.35-15.08-.73-30.16-1.28-45.24-.72-19.55-1.26-39.64-8.44-58.11-3.31-8.52-7.64-16.66-12.28-24.52-4.76-8.05-9.93-15.86-15.41-23.44-1.22-1.69-2.45-3.36-3.7-5.02-.37-.49-1.76.05-1.33.62h0Z"/>
    <path class="cls-12" d="M611.76,508.89c-.1-.02-.21-.05-.31-.07.11-.04.22-.08.32-.12.03.07.03.13-.01.2Z"/>
    <path class="cls-12" d="M610.8,508.84c-.14,0-.28,0-.42,0,.14-.13.28-.13.42,0Z"/>
    <path class="cls-6" d="M467.75,118.04c7.78-6.95,18.21-10.38,27.31-5.53,3.94-19.05,24.87-26,43.94-22.17,9.7,2.4,18.69,9.1,28.62,7.99,6.19-.68,11.56-4.17,17.32-6.8,24.01-10.49,52.16,14.58,65.26,37.29,13.1,22.71,3.98,42.58-10.41,64.46-6.69,10.18-7.42,16.39-11.42,27.98-3.77,10.94-15.35,30.22-18.04,41.33-2.69,11.11,12.03,26.77.59,25.06l-119.05-42.58c-19.01-.6-29.36-8.77-34.97-26.94-3.56-12.28-1.42-12.32.64-24.91,2.29-16.56-11.39-32.56-6.68-48.59,2.64-10.15,9.52-19.14,16.9-26.59Z"/>
    <path class="cls-26" d="M452.71,113.87s47.14-11.24,100.33,7.37c53.19,18.61,72.14,58.19,76.15,84.37,4.01,26.18-11.96,49.05-11.96,49.05,0,0,12.79,6.84,33.17-40.18,29.7-68.55-33.52-128.57-51.23-132.39-17.71-3.83-103.75-42.85-146.47,31.77Z"/>
    <path class="cls-15" d="M468.07,244.7s2.42,39.61-24.99,69.02c-3.1,3.33-33.29,16.35-33.29,16.35l36.52,21.66c20.64,10.1,69.15,50.81,91.97,48.15l20.08-30.73s-20.51-16.71-20.4-22.07c.11-5.36,13.06-43.14,13.06-43.14"/>
    <path class="cls-27" d="M539.14,340.39s-8.75-3.65-14.6-6.91c-5.86-3.25-16.69-5.43-39.65-37.38,0,0,1.17,32.85,36.52,48.21,0,0,9.07,4.26,15.7,4.23l2.04-8.16Z"/>
    <path class="cls-15" d="M616.05,160.6c.1.14.21.27.32.41-.09-.25-.17-.51-.21-.75l-.11.34ZM630.5,168.8c.16.28.34.58.53.87l.09-.28s-.51-.92-.63-.58ZM481.84,291.66c9.67,19.55,33.64,44.16,56.82,50.7,8.31,2.34,16.4,3.97,25.47-4.27,9.17-8.33,16-10.69,25.45-18.1,9.07-7.11,13.6-11.9,19.75-21.61,6.36-10.05,7.27-12.94,9.63-24.27,1.06-5.06,3.1-12.58,4.98-17.16,2.17-5.29,11.56-25.86,16.1-38.24,4.54-12.39,2.32-39.29,2.32-39.29.39-3.63-4.86-3.37-5.8-6.69l-1.47-.49s.62.58.28,1.6c-1.77-.91-3.3-2.54-4.35-4.14l-.02.06c-2.55.28-4.42-1.48-5.7-3.78-.11.34.03,1.14.4,1.26-2.32-.4-4.19-2.15-5.22-4-.11.34.03,1.14-.08,1.48-1.57-.87-2.96-2.29-4.05-3.67.19.56,8.93,2.04,8.86,2.27-2.32-.4-.04,1.18-1.32-1.12l-1.41-1.87c-1.96-.28-2.26.86-3.28-.99.25.46.23-4.06.12-3.73-2.21-.74-1.56-.68-3.06-2.31-.11.34-6.76.19-6.87.53-1.84-.61-1.92,1.24-2.94-.61.26.46,1.8-.97,2.06-.51-2.32-.4-3.63.74-4.9-1.56.25.46-6.05-6.14-6.05-6.14-2.32-.4-2.18.42-3.57-1.54.51.92-9.99-4.03-9.85-3.23-1.84-.61,1.27,7.92.13,6.42-.11.34-3.9-2.43-3.9-2.43-1.96-.28.25,2.34-.78.49-.11.34-.08,1.47.29,1.6-2.55.28-4.9-1.26-6.66-3.35.51.92.65,1.72.91,2.18-1.84-.62-3.43-.77-4.82-2.73-.11.34.28,1.6.65,1.72-2.07.06-4.17-1.01-5.67-2.64-.11.34.4,1.26.65,1.72-1.58-.15-3.06-.64-4.19-2.15l.65,1.72c-1.47-.49-2.8-.18-4.79-1.6-.11.34.51.92.4,1.26-1.11-.37-2.58-.86-3.57-1.57-.11.34.77,1.38.4,1.26-1.47-.49-2.8-.18-4.42-1.47.25.46.4,1.26.65,1.72-1.47-.49-3.06-.65-4.31-1.81-.11.34.03,1.14.29,1.6-1.47-.49-2.8-.19-4.42-1.48-.11.34.4,1.26.66,1.72-1.48-.49-3.06-.65-4.42-1.48-.11.34.51.92.77,1.38-1.47-.49-3.06-.64-4.68-1.94-.23.68.03,1.14-.08,1.47-1.1-.37-1.73-.95-2.83-1.32l-2.07.06c-7.41,5.04-24.94-6.87-24.94-6.87-14.46,5.32-14.75,57.13-16.53,63.68-1.78,6.55-6.02,7.12-6.02,7.12-1.05-2.98-5.64,3.27-5.84.2-.31-2.74,1.44-5.53,1.12-8.27-1.51-6.52-9.44-7.28-14.62-5.25l-1.05.89c-8.19,5.76-9.94,31.58-8.1,40.02-3.55,14.78,6.61,26.53,17.16,18.5l.14,6.27"/>
    <g>
      <path class="cls-7" d="M568.36,280c-3.19.51-7.22-1.2-9.39-3.8-.48-.58-2.62-.89-1.95-.08,2.87,3.43,8.75,5.62,12.86,4.96.41-.07.44-.35.05-.64-.4-.3-1.13-.51-1.57-.44"/>
      <path class="cls-7" d="M556.1,274.95c-1.54-1.47-3.44-2.6-5.42-3.44-.29-.12-.72-.14-1-.02-.22.1-.33.29-.14.49.76.85,1.89,1.48,3,1.82.35.11.84.18,1.13-.05.27-.21,0-.5-.28-.59-.92-.29-1.79-.78-2.42-1.48-.38.16-.76.32-1.15.47,1.78.75,3.47,1.78,4.84,3.09.27.26.77.32,1.12.24.26-.06.59-.28.32-.54"/>
      <path class="cls-7" d="M547.9,272.5c-2.37-.86-4.83-2.83-5.41-5.01-.87-3.29,2.21-7.02,5.77-7.75.39-.08.3-.38-.01-.56-.4-.24-.96-.25-1.36-.16-3.1.64-5.96,3.59-6.41,6.25-.42,2.49,1.31,4.91,3.94,6.55.78.49,1.64.93,2.53,1.25.36.13,1.05.24,1.32.02.27-.23-.02-.46-.35-.58"/>
      <path class="cls-7" d="M573.14,280.26c-.04-.32.26-.42.45-.35.64.23,1.36.27,2.06.01.13.33.25.65.37.98-1.34-.29-2.77-.3-4.19.08-.28.08-.58-.13-.73-.37-.11-.18-.18-.53.11-.61"/>
      <path class="cls-7" d="M571.21,280c1.58-.43,3.18-.4,4.68-.07.22.05.46.25.55.5.07.19.03.41-.17.48"/>
      <path class="cls-7" d="M577.99,282.23c1.57.46,3.75.03,5.11-1.5,2.05-2.32,2.05-5.88.69-8.25-.15-.26.04-.46.28-.46.31,0,.59.27.74.54,1.19,2.07,1.47,4.88.37,7.33-1.03,2.29-3.07,3.45-5.15,3.51-.62.02-1.26-.04-1.84-.21-.24-.07-.63-.32-.65-.64-.02-.32.24-.38.46-.31"/>
    </g>
    <path d="M609.17,241.3c2.4-.38,4.75,1.36,5.69,3,.22.38.54,1.43.48,2.91-.07,1.89-1.4,3.6-2.88,4.43-1.97,1.1-4.46.57-6.01-.9-2.11-2-1.92-5.28-.57-7.26.25-.36,1.35-1.87,3.28-2.17"/>
    <path d="M588.64,242.03s12.57-4.51,17.83-3.32c7.67,1.74,15.45,8.91,16.85,13.47,0,0-10.06-10.2-15.5-11.26-5.2-1.02-19.18,1.11-19.18,1.11Z"/>
    <path d="M546.93,221.39c-1.69-1.74-5.08-2.55-6.81-1.81-.41.17-1.52.69-2.36,1.9-1.08,1.55-1.04,3.72-.36,5.27.91,2.06,3.22,3.13,5.35,2.89,2.89-.33,4.7-3.07,4.81-5.46.02-.44.68-1.08-.68-2.48"/>
    <path d="M558.03,231.17s-8.86-10.9-14.33-12.91c-7.99-2.93-19.2-1.42-23.1,1.57,0,0,15.02-2.72,20.6-.51,5.33,2.12,16.83,11.85,16.83,11.85Z"/>
    <path class="cls-9" d="M602.52,210.75c-.79,1.37-1.59,2.75-2.38,4.13-.6,1.05-1.2,2.1-1.8,3.16,4.25,1.29,7.79,2.58,10.43,3.61,5.58,2.17,8.42,3.3,11.12,5.5,2.83,2.3,4.85,4.93,5.62,5.96,1.09,1.45,1.84,2.4,2.54,3.85,1.53,3.17,1.44,5.69,1.95,5.76.46.07.83-1.98.87-2.19.9-5.17-1.16-9.73-1.31-10.08,0,0-1.51-3.49-5.18-6.98-2.53-2.41-10.36-7.64-21.86-12.71"/>
    <path class="cls-9" d="M576.05,200.03c-.2,1.57-.41,3.15-.62,4.73-.16,1.2-.32,2.4-.49,3.6-4.99-1.65-9.29-2.86-12.54-3.7-6.88-1.79-10.4-2.68-14.53-2.65-4.34.03-8.12.83-9.59,1.15-2.07.45-3.45.72-5.15,1.43-3.69,1.53-5.38,3.56-5.92,3.29-.49-.24.6-2.07.71-2.26,2.77-4.61,7.95-6.9,8.34-7.08,0,0,3.9-1.79,9.87-2.23,4.12-.31,15.32.5,29.92,3.73"/>
    <path class="cls-14" d="M472.45,224.33c-3.12-21.76-8.99-23.46-8.99-23.46,0,0-5.17,3.47-5.61,13.07"/>
    <path class="cls-14" d="M468.93,225.3c-5.14-1.93-3.71,9.03-5.79,10.97-2.08,1.94-2.37-4.75-1.05-12.38,0,0,2.66-10.07,8.15-10.58"/>
    <path class="cls-9" d="M639.02,162.38c-.11-.28.05.12,0,0-2.13-5.41-2.98-10.83-5.34-16.14-2.31-5.21-4.65-9.98-7.25-15.04-.15-.3-4.43-1.48-4.58-1.78-.03-.06-.13-.25-.17-.31-.08-.16-.17-.32-.25-.48-.2-.37-.4-.73-.59-1.1-18.2-13.97-42.55-21.36-66.5-20.05-46.52,2.53-82.17,42.3-79.64,88.82.21,3.98-3.11,7.92,0,10.91,3.11,2.99,3.8,2.06,7.83.53,3.92-1.79,7.38-4.46,10.1-7.8,13.83-15.53,23.16-43.39,23.81-64.17,1.47,4.32,19.08,4.58,22.18,7.93,12.25,13.25,32.91,14.06,46.16,1.82.96,2.57,2.13,5.05,3.5,7.43,12.52,21.75,32.42,35.72,53.9,27.88.79-.29-1.85-15.01-3.16-18.43Z"/>
    <path class="cls-5" d="M519.29,209.58l.1,7.61c-.37,5.76.28,17.62,1.19,21.09,1.29,4.86,29.17,15.46,35.78,13.98,6.61-1.47,14.91-16.7,17.59-19.99l11.15,4.26c-.54,5.19-1.91,21.72-.43,24.48,1.49,2.77,14.63,6.55,16.11,6.97,1.24.34,2.96.82,4.86,1.25,5.03,1.21,11.27,2.29,13.69,1.05,3.59-1.83,9.87-11.19,15.56-20.13l.91-1.39c.21-.34.41-.56.44-.67h0l1.02-1.61c-13.85-13.01-35.71-18.56-51.79-13.14l.05.21-10.86-4.2c-9.84-12.3-30.02-23.71-47.4-22.65h0l-50.57-7.31-1.5,4.21,44.1,5.98ZM586.51,259.86c-.93-1.72-.3-13.41.47-22.42,13.9-4.47,33.59.56,46.24,11.35l-.08.21c-3.05,4.79-11.16,17.54-14.69,19.34-4.18,2.12-30.25-5.69-31.97-8.44l.02-.05ZM524.32,238.19c-1.35-9.08-1.87-18.26-1.57-27.43,15.76-1.87,38.6,9.27,48.3,21.06-4.12,6.16-10.38,17.23-15.12,18.27-6.82,1.52-30.82-8.83-31.61-11.9h0Z"/>
    <path class="cls-2" d="M451.28,199.29s-33.91-39.72-10.52-67.95c4.49-5.42,4.33-3.32,5.79-8.59,7.65-27.62-3.7-23.33,44.94-46.05,48.64-22.72,54.5-20.71,115.62-1.05,31.53,10.14,45.86,27.8,49.72,50.26,1.74,10.09,1.35,21.16-.53,32.95,0,0-61.08-34.54-105.23-22.9-44.14,11.64-101.7,70.32-98.68,94.32.85,6.74-1.13-30.98-1.13-30.98Z"/>
    <path class="cls-26" d="M433.3,162.72s75.24-67.66,150.04-52.23c0,0-89.29-31.93-145.66,23.75l-2.46,7.55c-1.53,4.7-2.24,9.63-2.1,14.57l.18,6.36Z"/>
    <path class="cls-1" d="M256.83,680.55s-82.26,115.16-31.8,201.7c24.04,41.21,95.99,41.18,95.99,41.18l73.8-84.04v-138.99l-138-19.85Z"/>
    <path class="cls-1" d="M694.81,862.16c.61-6.37,1.58-12.7,2.81-18.96,2.8-14.15-11.07,11.62-5.83-1.86,5.39-13.86,1.56,13.65,9.23.8,5.22-8.73-11.11-23.11-4.75-31.15-63.91-50.36-229.46-154.89-229.46-154.89,0,0-279.62,123.07-248.48,205.87,41.26,109.74,357.41,69.99,462.77,35.89.5-.16,9.4,14.58,13.69-35.69Z"/>
    <path class="cls-21" d="M465.7,721.14c33.09,5.5,73.71,6.3,106.09,14.68,3.94-2.42-1.4-6.39-1.36-6.89,2.43-28.28-1.8-66.66,2.38-86.85,0,0,2.39-12.49,6.83-21.21,0,0,15.75-9.89,21.22-18.41,5.86-9.11,11.31-20.67,13.31-31.34,2.35-12.53,3.51-41.81,3.77-54.55.25-12.26.12-24.48-.46-36.73-.56-11.82-1.19-23.64-1.53-35.47-.5-17.13-9.08-24.69-7.24-41.78-2.77-2.6-9.92-9.91-12.92-12.28l-54.14-38.25s11.81,26.32-35.11,18.74c-46.92-7.59-63.46-57.1-63.46-57.1-23.57,3.25-90.66,20.84-101.27,27.24-16.94,10.16-44.22,225.6-44.22,225.6,0,0-59.37,100.98-70.54,126.61-11.16,25.63-7.46,57.68-7.46,57.68l19.18-12.14c14.42-9.13,30.77-14.76,47.75-16.53,20.52-2.13,41.51-2.71,60.56-2.34,2.17-.17,4.32-.31,6.44-.44,18.23-1.14,36.46-2.55,54.75-2.63,12.35-.06,24.69.47,36.96,1.68"/>
    <path class="cls-1" d="M715.02,932.41c-22.49,100.27-58.31,200.38-97.33,299.84,0,0-35.55,20.83-46.14-4.43,0,0-43.08-187.33-69.54-319.97-23.3-116.81-233.36-170.14-198.49-174.07,54.89-6.18,305.79,27.61,367.05,57.5,40.62,19.82,59.36,74.63,44.44,141.12Z"/>
    <path class="cls-1" d="M473.28,894.33c-1.5,4.15-1.66,15.92-11.12,59.16-18.51,84.64-4.43,198.84-18.41,243.05,13.67,23.61,150.78,38.41,150.78,38.41,23.54-74.52,62.77-205.47,91.56-302.28l-212.81-38.33Z"/>
    <path class="cls-27" d="M620.03,201.81c-17.74-2.23-34.71-9.25-48.87-20.16-.34-.26-1.64.3-1.36.52,14.29,11.01,31.42,18.05,49.31,20.3.36.05,1.68-.57.92-.66h0Z"/>
    <path class="cls-25" d="M620.76,476.42c-5.57,7.76-8.63,16.82-9.6,26.28-.97,9.47-.12,19.03.87,28.46,1.03,9.81,2.27,19.64,2.15,29.52-.12,10.03-1.78,20.07-6.08,29.21-5.31,11.27-14.15,20.34-24.2,27.52-1.54,1.1-3.12,2.16-4.72,3.19-.82.53.4.9.93.55,10.72-6.91,20.57-15.57,27.02-26.71,5.12-8.85,7.68-18.82,8.32-28.98.62-9.85-.37-19.71-1.42-29.5-1.03-9.67-2.2-19.4-1.73-29.14.45-9.56,2.69-18.98,7.74-27.19.66-1.07,1.36-2.1,2.09-3.12.42-.59-1.05-.55-1.37-.1h0Z"/>
  </g>
  <g id="Layer_3" data-name="Layer 3">
    <path d="M773.05,253.56c1.84-5.55,5.64-10.58,6.47-16.32.75-5.18-1.02-10.39-1.24-15.63.22-10.94,6.18-21.18,16.06-27.58,9.84-6.23,34.15-20.37,46.06-21.45,11.48-1.4,23.93-1.12,33.53,4.68,6.77,4.05,11.45,10.43,18.22,14.45,9.2,5.5,20.9,5.91,31.91,6.96,11.01,1.05,22.9,3.29,29.9,11.03,9.78,10.81,5.77,27.22,11.73,40.12,4.55,1.62,9.31,2.65,14.17,3.07,2.75.4,5.41,1.2,7.9,2.39,2.7,1.22,4.96,3.23,6.52,5.78,1.51,2.79,1.96,6.09,1.27,9.32-.69,3.14-1.67,6.22-2.91,9.2-1.2,2.88-2.04,5.9-2.5,8.96-.38,2.94-.22,5.91.49,8.72,1.3,5.39,4.78,9.85,9.58,12.28,4.58,2.38,9.79,1.6,14.57,1.97,2.37.1,4.67.67,6.79,1.67,2,.97,3.57,2.65,4.42,4.75,1.44,3.61.73,7.86-1.83,10.98-3.5,3.62-8.9,4.24-12.76,1.47-.45-.33-.84-.74-1.17-1.19,1.68,1.51,3.84,2.35,6.12,2.39,2.67.09,5.31-1.06,7.2-3.12,2.31-2.89,2.9-6.79,1.54-10.07-.8-1.86-2.22-3.34-4.01-4.18-2-.89-4.16-1.39-6.38-1.46-4.55-.31-10.02.59-15.07-1.95-5.18-2.56-8.95-7.33-10.36-13.12-.75-3-.93-6.14-.53-9.27.46-3.2,1.33-6.34,2.58-9.35,1.2-2.89,2.15-5.87,2.85-8.91.61-2.85.23-5.78-1.07-8.27-1.42-2.33-3.48-4.15-5.93-5.26-2.38-1.15-4.92-1.94-7.56-2.34-4.5-.43-8.89-1.41-13.13-2.86,2.87,5.38,7.25,10.04,10.44,15.29.63,1.04,1.15,2.2,1.62,3.43,3.94,4.18,7.06,9,7.28,13.99.44,10.18-3.19,21.47-4.41,30.15-.15.27-.26.58-.24.97.01.23.02.45.03.68-.09.84-.14,1.64-.16,2.41.12.14.21.33.34.46.3,3.85.95,7.67,2.87,11.07,2.69,4.77,7.64,7.79,12.47,10.03,4.99,2.32,10.56,3.94,16.13,4.31-6.21,7.2-16.35,18.41-20.68,20.14-.26.11-3,2.18-3.22,2.04-7.07-2.44-16.91-10.32-22.43-16.05,0,0,9.79,15.51,19.76,18.59l-5.39,4.79c-19.14,16.83-52.9,30.44-78.24,33.34,4.83-5.16,5.07-13.27,2.8-19.98-2.75-6.5-5.33-11.96-9.42-17.72-2.81-4.64,6.17-10.54,5.59-15.95-.54-.05-1.12-.07-1.62-.14l-99.76-78.95c-12.08-6.13-30.85-8.6-27.19-20.76Z"/>
    <path d="M808.09,233.68c-3.97,1.18-9.8-1.72-14.7,1.8-1.39.99-3.96-8.86-5.09-7.85-30.09,15.57-25,43.52-22.91,62.1,1.06,8.85,8.75,21.42,2.91,28.35-5.84,6.92-17.64,6.9-23.15,13.94-6.49,8.27-.3,20.22-2.34,30.4-2.32,9.81-11.85,16.49-22.5,15.76,12.43,9.03,27.21,14.67,42.7,16.3l11.16-14.55c-3.85,5.59-4.61,17.73-4.61,17.73,6.21,6.46,20.64,9.08,24.19,9.73,15.33,2.84,51.46,15.85,95.21,2.08-21.64-53.36-44.9-125.38-66.54-178.74"/>
    <path d="M712.65,357.34c-.65,2.16-.55,4.47.29,6.55.95,2.46,2.95,4.37,5.44,5.21,3.37.87,6.94-.23,9.24-2.84,1.29-1.5,2.01-3.41,2.04-5.4,0-2.19-.4-4.36-1.19-6.4-1.48-4.25-4.36-8.83-4.11-14.47.21-5.78,2.86-11.19,7.29-14.91,2.29-1.94,4.92-3.43,7.76-4.39,2.92-.93,5.96-1.47,9.02-1.6,2.94-.13,5.87-.52,8.75-1.17,2.68-.65,5.05-2.23,6.69-4.45,1.45-2.27,2.23-4.9,2.24-7.59.07-2.64-.23-5.28-.89-7.83-1.53-4.8-2.45-9.77-2.74-14.8.11-4.5,1.56-8.87,4.17-12.54,2.21-2.9,4.94-5.35,8.06-7.22,2.27-1.43,4.43-3.03,6.47-4.77,1.66-1.56,2.99-3.42,3.91-5.5l-.05.45c-.11.43-.27.85-.47,1.25-.72,1.59-1.76,3.02-3.04,4.2-2,1.85-4.14,3.53-6.4,5.04-2.98,1.9-5.58,4.33-7.67,7.17-2.42,3.5-3.74,7.65-3.8,11.9.34,4.92,1.3,9.77,2.84,14.45.72,2.66,1.05,5.41.98,8.17-.02,2.96-.87,5.85-2.46,8.35-1.81,2.54-4.48,4.34-7.51,5.07-2.96.69-5.98,1.11-9.01,1.24-2.94.13-5.85.63-8.66,1.51-2.68.89-5.16,2.29-7.3,4.12-4.13,3.45-6.62,8.48-6.87,13.85-.29,5.15,2.38,9.54,3.9,14.03.82,2.19,1.22,4.52,1.17,6.85-.06,2.22-.9,4.35-2.38,6.01-2.55,2.82-6.47,3.97-10.13,2.97-4.45-1.65-7.06-6.28-6.16-10.94.12-.55.31-1.07.58-1.56Z"/>
    <path class="cls-15" d="M908.04,340.86s-9.87,36.72,1.46,64.05c1.58,3.81,17.64,18.07,17.64,18.07l-9.49,9.34c-16.57,11.5-36.59,17.18-56.69,15.55-.19-.02-.38-.03-.57-.05-13.76-1.17-26.82-6.54-37.59-15.19l-9.14-7.34s18.33-6.88,19.2-11.66c.88-4.78-4.46-40.62-4.46-40.62"/>
    <path class="cls-15" d="M823.79,356.17c2.86,21.16.93,41.91,3.07,63.15.08.76.14,1.57-.24,2.24-.25.44-.68.77-1.09,1.09-1.5,1.16-3,2.31-4.5,3.47.81,4.37-6.77,10.9-3.6,14.15,6.28,6.45,19.48,9.67,28.48,10.33,23.59,1.73,54.83-11.96,70.61-26.8,1.89-1.78,5.26-6.83,4.72-9.19-.53-2.31-8.17-4.77-9.64-7.22-10.93-18.32-5.03-59.86-5.03-59.86"/>
    <path class="cls-27" d="M889.36,382.65s-6.7,21.14-44.03,30.44c0,0-12.6,1.97-19.1.23l-.35-8.25,63.48-22.42Z"/>
    <g>
      <path class="cls-15" d="M905.65,355.67c.03-3.68,4.05-7.06,3.98-10.34-.21-9.62.57-19.22.65-28.83.95-2.45,1.76-5.26,2.4-6.97,1.03-2.4,2.63-5.11,3.66-7.51,3.14-5.51,10.55-4.05,14.7-.81l.71,1.09c5.87,7.45,4.78,26.51-5.37,39.5-.69,12.67-11.64,20.09-20.72,13.88Z"/>
      <path class="cls-15" d="M776.48,338.11c.41-4.88,3-14.05,2.53-18.71-.54-5.39-1.27-31.41,3.13-47.98,5.36-20.18,11.08-30.29,11.08-30.29.63-3.4-7.79-1.61-6.04-4.37l1.47-.05s-.72.36-.69,1.37c1.86-.34,3.68-1.41,5.07-2.58,0,.05,0,.06,0,.06,2.24.94,4.42-.14,6.2-1.89.01.34-.33,1.02-.7,1.04,2.22.27,4.39-.82,5.82-2.21.01.34-.34,1.02-.33,1.36,1.66-.36,3.3-1.28,4.67-2.24-.26.36-5.55-.21-7.71-.34.1-.16.25-.36.55-.66l1.78-1.31c1.85.28,1.82,1.39,3.25,0-.36.35.9-3.75.9-3.41,2.21-.07,1.6-.2,3.41-1.27.01.34,6.08,2,6.09,2.34,1.84-.06,1.41,1.64,2.84.25-.27.26-.9-.63-1.35-.95,1.93.37,2.82,1.48,4.5-.16-.36.35,7.16-3.94,7.16-3.94,2.22.27,1.87.97,3.66-.43-.72.7,10.16-.95,9.82-.27,1.84-.06-3.3,6.85-1.86,5.79.01.34,4.2-1.15,4.2-1.15.78.12.74.5.55.8-.05.41-.34,1.22-.67,1.23,2.24.94,4.79.19,6.96-1.24-.72.7-1.06,1.39-1.42,1.74,1.84-.06,3.32.23,5.12-1.18,0,.34-.69,1.37-1.06,1.39,1.86.62,4.06.21,5.86-.86.01.34-.7,1.04-1.06,1.38,1.48.29,2.95.24,4.39-.82l-1.06,1.39c1.47-.05,2.59.59,4.78-.15.01.34-.72.7-.71,1.04,1.1-.04,2.58-.08,3.67-.46.01.34-1.07,1.05-.7,1.04,1.47-.05,2.59.59,4.41-.14-.36.35-.7,1.04-1.06,1.39,1.47-.05,2.95.24,4.4-.48.01.34-.33,1.02-.69,1.38,1.47-.05,2.6.59,4.41-.14.01.34-.7,1.04-1.06,1.38,1.47-.05,2.96.24,4.42-.14.01.34-.72.7-1.07,1.05,1.47-.05,2.95.24,4.77-.49.02.67-.33,1.02-.32,1.36,1.1-.04,1.83-.39,2.93-.43l1.86.62c5.36,6.59,19.39,19.66,19.39,19.66,11.69,8.75-13.16,26.11-13.32,32.53-.12,4.81,10.2,19.71,15.39,26.89-.01,10.24-.79,20.48-.62,30.73.07,4.01-10.72,12.62-10.54,16.87l-8.75,14.5c-14.08,15.13-38.63,25.95-55.11,28.71-8.07,1.35-15.04,3.78-23.41-1.81-20.98-14.01-42.38-40.25-40.14-66.72Z"/>
      <path class="cls-15" d="M809.08,231.32c-.13.1-.27.19-.4.29.15-.2.29-.41.39-.63v.34Z"/>
      <path class="cls-15" d="M793.74,234.85c-.22.22-.46.43-.72.64v-.28s.71-.7.72-.36Z"/>
    </g>
    <g>
      <path class="cls-7" d="M815.83,348.46c2.42,1.16,6.06.8,8.44-.7.53-.33,2.32-.06,1.58.4-3.14,1.97-8.37,2.26-11.5.77-.31-.15-.26-.38.12-.51.4-.14,1.03-.13,1.36.03"/>
      <path class="cls-7" d="M826.87,347.49c1.59-.77,3.39-1.2,5.18-1.37.26-.02.61.06.8.23.15.13.19.3,0,.41-.82.48-1.87.69-2.84.7-.31,0-.71-.06-.89-.31-.17-.23.13-.39.37-.39.8,0,1.62-.17,2.29-.57.27.21.53.43.8.64-1.61.15-3.21.55-4.63,1.24-.28.14-.7.06-.96-.08-.19-.11-.41-.36-.12-.5"/>
      <path class="cls-7" d="M834.02,347.55c2.1-.1,4.56-1.04,5.56-2.59,1.51-2.34-.05-6.19-2.71-7.61-.29-.15-.14-.37.15-.43.38-.09.83.04,1.13.2,2.32,1.24,3.89,4.43,3.6,6.6-.28,2.03-2.26,3.49-4.76,4.13-.75.19-1.54.33-2.33.36-.32.01-.89-.07-1.06-.3-.16-.24.13-.35.42-.37"/>
      <path class="cls-7" d="M811.95,347.52c.11-.24-.1-.38-.27-.38-.57.03-1.15-.11-1.65-.48-.18.22-.36.45-.54.67,1.14.09,2.29.43,3.32,1.07.21.13.49.04.67-.12.13-.11.27-.37.07-.5"/>
      <path class="cls-7" d="M813.55,347.78c-1.16-.71-2.44-1.07-3.72-1.17-.19-.01-.43.09-.56.26-.1.13-.12.31.02.41"/>
      <path class="cls-7" d="M807.58,347.89c-1.37-.02-3-.87-3.71-2.39-1.07-2.29-.19-5.05,1.49-6.56.18-.16.08-.37-.11-.43-.25-.07-.53.07-.73.24-1.46,1.32-2.38,3.43-2.1,5.59.26,2.02,1.6,3.41,3.25,3.96.49.16,1.01.27,1.53.28.21,0,.58-.1.67-.34.1-.25-.1-.35-.29-.35"/>
    </g>
    <path d="M776.01,294.73c7.01-5.84,12.18-8.01,26.71-11.79l.15.3c.92,1.71.4.75,1.33,2.47.7,1.31,1.4,2.61,2.1,3.92-4.77,1.17-8.42,1.6-11.37,2.6-5.59,1.89-12.28,3.41-17.19,6.82-2.06-1.91-1.64-2.71-1.73-4.33Z"/>
    <path d="M840.66,278.65c-.62,1.84-.27.81-.89,2.66-.47,1.41-.94,2.82-1.4,4.22,5.45.54,9.5.48,12.93,1.09,6.81,1.2,14.83,1.83,21.07,4.96,2.99,1.5,7.24,3.72,8.63,7,.37.88.68,3.68,2.08,3.6.58-.03.52-2.58.51-2.84-.14-5.14-3.91-8.55-8.94-11.48-10.25-5.97-15.91-7.54-33.89-9.54"/>
    <path d="M865.67,207.02c6.32-1.34,13.17-2.44,19.07.16,6.25,2.78,7.98,10.92,13.53,15.16,32.28,24.63,18.45,47.21,32.13,70.76-2.66,1.09-5.21,2.55-7.59,4.47-4.64,3.74-9.19,10.91-11.76,16.02-8.6-1.18-9.6-6.92-13.86-16.05-3.95-8.43-2.3-22.31-9.57-27.92-9.65-7.37-27.01,2.04-36.69-5.31-5.64-4.25-10.35-15.9-15.85-19.66-5.49-3.76-8.69-3.35-15.15-1.91-6.46,1.44-13,3.71-19.58,3.07-6.58-.64-16.7-2.83-16.9-9.44,25.16-12.05,54.92-23.61,82.22-29.37Z"/>
    <path class="cls-13" d="M910.89,329.13c7.8-22.3,14.33-22.87,14.33-22.87,0,0,4.74,4.74,3.21,14.95"/>
    <path class="cls-13" d="M914.4,330.88c5.82-.97,2.04,10.29,3.83,12.76,1.79,2.47,3.49-4.52,3.67-12.84,0,0-.72-11.17-6.41-12.85"/>
    <path class="cls-24" d="M822.48,361.09c7.35-.29,23.8,4.64,27.21,8.04,0,0-8.11,7.55-25.16,8.23-17.05.68-20.16-6.43-20.16-6.43,0,0,8.75-9.47,18.11-9.84Z"/>
    <path class="cls-17" d="M842.6,365.49s-8.79-.53-15.76-.25c-6.98.28-21.41,2.08-21.41,2.08,0,0,4.34-7.01,17-7.51,12.65-.5,20.18,5.68,20.18,5.68Z"/>
    <path class="cls-8" d="M824.4,374.5c7.93-1.73,15.95-5.72,25.28-5.37,0,0-2.09,13.35-22.13,14.15-20.04.79-23.18-12.35-23.18-12.35,9.28-1.09,12,2.48,20.04,3.57Z"/>
    <path class="cls-8" d="M813.57,356.5c4.19-.55,6.94,1.32,8.77,1.25,1.83-.07,4.42-2.16,8.65-1.94,3.96.21,21.12,11.51,19.31,13.14-1.8,1.63-15.08-6.65-27.76-6.15-12.67.5-16.87,9.47-18.8,7.99-1.93-1.48,5.89-13.77,9.82-14.29Z"/>
    <path class="cls-22" d="M832.99,289.88c-1.36.17-2.81.3-4.13-.13-1.4-.46-2.32-1.61-2.56-3.05s.1-2.91.48-4.29c.48-1.76,1-3.51,1.49-5.26.09-.33-1.32-.14-1.43.24-.54,1.91-1.13,3.8-1.62,5.72-.38,1.49-.7,3.17-.2,4.67,1.07,3.24,4.98,3.02,7.71,2.67.17-.02.84-.17.84-.41,0-.27-.42-.19-.59-.17h0Z"/>
    <path class="cls-3" d="M791.6,303.03c-2.18-1.04-4.66,0-6.03,1.29-.32.3-1.18,1.17-1.55,2.59-.47,1.82.31,3.84,1.48,5.05,1.56,1.61,4.09,1.82,6,.85,2.58-1.31,3.34-4.49,2.61-6.77-.13-.42-.75-2.17-2.51-3.01"/>
    <path class="cls-3" d="M811.22,309.62s-10.85-7.89-16.28-8.25c-7.92-.52-13.25,3.19-15.92,7.15,0,0,8.4-5.96,13.97-5.43,5.33.51,18.23,6.52,18.23,6.52Z"/>
    <path class="cls-3" d="M853.21,301.86c2.11-1.18,4.65-.3,6.1.9.34.28,1.26,1.09,1.71,2.49.59,1.79-.07,3.85-1.16,5.13-1.46,1.71-3.97,2.07-5.93,1.23-2.66-1.14-3.62-4.27-3.04-6.59.11-.42.61-2.21,2.32-3.17"/>
    <path class="cls-3" d="M841.77,308.83s11.05-8.56,16.82-9.3c10.39-1.35,20.27,4.25,23.38,8.02,0,0-15.29-7.32-21.19-6.43-5.65.86-19.01,7.71-19.01,7.71Z"/>
    <path class="cls-4" d="M653.55,912.91c22.22,63.52,71.3,234.86,101.91,311.67,0,0,84.18-4.11,90.52-23.47,0,0,1.83-413.5-49.76-420.46-38.03-5.12-102.74,8.65-122.38,24.8-23.56,19.38-37.78,57.44-20.29,107.46Z"/>
    <path class="cls-4" d="M694.69,870.34s12.93-2.48,31.38-2.11c-3.57-7.75-4.79-13.52-4.79-13.52,1.71-1.96,3.53-3.96,5.42-6.01,10.57,2.47,20.89,5.88,30.91,9.94,11.65,4.73,22.92,10.35,33.68,16.75,10.37,6.17,20.28,13.14,29.42,20.92,2.59,2.2,5.11,4.49,7.55,6.84-.31.1,5.07-.7,4.76-.61,35.69,37.28,34.79,120.49,55.44,195.99,15.14,55.38,27.93,102.41,27.93,102.41-8.2,18.63-109.03,26.88-109.03,26.88-36.3-100.5-112.67-357.49-112.67-357.49Z"/>
    <path class="cls-21" d="M595.85,687.42l-215.41-95.15,7.73-147.35,18.34-108.91s-98.55-22.33-118.83,64.44c-9.27,47.5-11.98,139.12-11.74,167.01,0,19.02-.63,42.45.17,56.1-2.16,20.97,4.78,51.73,20.21,58.46,36.99,16.13,81.22,29.21,81.22,29.21,0,0,46.5,10.03,47.28,10.04,40.46,1.85,71.02,16.01,100.39,18.94l58.82,10.07c1.12-21.68,13.8-42.59,11.82-62.85Z"/>
    <path class="cls-28" d="M274.07,608.56c.27,19.15,7.04,37.96,17.36,53.96,4.79,7.43,10.44,14.39,17.03,20.31,4.97,4.47,10.38,7.95,16.53,10.54,6.76,2.85,13.85,4.89,20.91,6.86,9.35,2.61,18.74,5.06,28.05,7.81,8.99,2.65,17.9,5.28,27.01,7.46,10.51,2.51,21.07,4.81,31.64,7.05,12.52,2.65,25.06,5.2,37.61,7.7,12.85,2.56,25.72,5.06,38.59,7.52,11.62,2.23,23.24,4.42,34.86,6.59,8.8,1.64,17.6,3.27,26.4,4.88,4.31.79,8.62,1.58,12.92,2.35.19.03.37.07.56.1.36.07,1.07-.05,1.16-.5,1.46-7.23,2.92-14.45,4.37-21.68,2.3-11.42,4.61-22.84,6.91-34.27.53-2.64,1.06-5.27,1.6-7.91.02-.11-.05-.25-.16-.29-2.08-.79-4.17-1.58-6.25-2.38-5.63-2.14-11.27-4.28-16.9-6.43-8.17-3.11-16.35-6.21-24.52-9.32-9.76-3.71-19.52-7.42-29.28-11.13-10.42-3.96-20.85-7.93-31.27-11.89-10.04-3.82-20.08-7.63-30.12-11.45-8.73-3.32-17.46-6.64-26.18-9.96-6.45-2.45-12.9-4.91-19.35-7.36-3.21-1.22-6.42-2.44-9.63-3.66-5.68-2.16-11.46-4.07-17.19-6.1-1.11-.39-2.21-.78-3.32-1.17l.29.34c.09-2.8.18-5.59.27-8.39l.7-21.77c.32-10.01.64-20.03.97-30.04.36-11.07.71-22.15,1.07-33.22.34-10.43.67-20.87,1.01-31.3.26-8.09.52-16.19.78-24.28l.39-12.14c.02-.61.12-1.19.21-1.8.43-2.88.77-5.78,1.05-8.68.98-10.14,1.3-20.44.15-30.58-1.05-9.34-3.36-20.55-11.05-26.82-1.63-1.33-3.44-2.34-5.41-3.05-.5-.18-1.69.54-.87.84,9.31,3.35,13.11,13.85,14.87,22.74,2.07,10.48,2.03,21.37,1.28,31.99-.26,3.73-.63,7.45-1.11,11.16-.17,1.27-.43,2.55-.55,3.82-.28,3-.2,6.08-.29,9.09-.24,7.35-.47,14.7-.71,22.04-.32,10-.64,20.01-.96,30.01-.35,11-.71,21.99-1.06,32.99-.33,10.33-.66,20.66-1,30.99-.26,8.02-.52,16.04-.77,24.06-.13,3.99-.26,7.97-.38,11.96l-.02.53c0,.21.11.28.29.34,4.98,1.76,9.97,3.53,14.95,5.29,1.22.43,2.44.86,3.66,1.3.3.11.61.22.91.32.07.02.46.16.15.05.26.09.51.2.77.29,4.99,1.9,9.98,3.79,14.97,5.69,9.8,3.73,19.6,7.45,29.39,11.18,12.56,4.78,25.13,9.55,37.69,14.33,13.29,5.05,26.58,10.1,39.86,15.16,11.97,4.55,23.94,9.1,35.91,13.65,8.61,3.27,17.22,6.55,25.83,9.82,2.41.92,4.81,1.83,7.22,2.75.62.23,1.23.47,1.85.7.12.04.33.18.45.17.27,0-.17.08-.05-.22-.3.8-.36,1.79-.53,2.62l-1.23,6.12c-1.25,6.21-2.51,12.43-3.76,18.64-2.31,11.46-4.63,22.93-6.94,34.39-.14.68-.28,1.37-.41,2.05l1.16-.5c-2.94-.53-5.88-1.07-8.83-1.6-7.77-1.42-15.54-2.85-23.3-4.29-11.01-2.04-22.01-4.11-33.01-6.2-12.66-2.41-25.3-4.84-37.94-7.33-12.72-2.5-25.42-5.05-38.11-7.68-11.19-2.32-22.37-4.71-33.51-7.26-8.08-1.85-16.18-3.74-24.15-6.05s-15.8-4.76-23.76-6.95c-8.29-2.28-16.63-4.41-24.84-6.98-6.33-1.98-12.67-4.24-18.39-7.64-6.6-3.92-12.25-9.52-17.19-15.32-12.28-14.41-21.08-32.33-24.46-50.99-.85-4.67-1.33-9.41-1.39-14.16,0-.65-1.46-.36-1.45.16h0Z"/>
    <path class="cls-28" d="M380.76,606.7c-1.76-.43-3.68-.11-5.42.3-2.62.61-5.14,1.62-7.55,2.79-6.31,3.08-12.09,7.46-16.71,12.75-2.88,3.3-5.3,6.99-7.05,11.01-.11.25,1.27.13,1.43-.25,2.83-6.51,7.42-12.1,12.86-16.61,4.52-3.74,9.79-7.01,15.43-8.76,1.81-.56,3.93-1.12,5.83-.66.34.08,1.61-.47,1.19-.57h0Z"/>
    <path class="cls-27" d="M628.73,719.77c7.12,3.86,14.95,6.32,23.03,7,3.83.32,7.91-.39,11.63-1.26,3.76-.89,7.42-2.24,10.84-4.02,3.83-2,7.59-4.04,10.76-7.03.5-.47-.43-.61-.72-.6-.66.01-1.44.26-1.93.73-1.72,1.62-3.63,3.03-5.71,4.14-1.86,1-3.71,2.07-5.62,2.97-3.97,1.87-8.26,3.03-12.61,3.54-9.16,1.07-18.96-2.17-26.94-6.5-.56-.3-1.32-.12-1.88.1-.15.06-1.34.66-.83.94h0Z"/>
    <path class="cls-27" d="M627.41,733.2c4.26,2.09,8.82,4,13.45,5.08,2.25.52,4.54.83,6.84.88,2.32.06,4.55-.33,6.81-.81,5.27-1.13,10.33-3.19,15.4-5,3.36-1.2,6.59-2.3,9.64-4.23.53-.34.28-.66-.21-.77-.65-.14-1.51.21-2.05.55-2.52,1.6-5.21,2.46-7.99,3.45-1.97.7-3.93,1.41-5.9,2.11-2.09.75-4.17,1.53-6.31,2.11s-4.43,1.19-6.65,1.27c-2.26.08-4.58-.2-6.78-.68-4.8-1.04-9.51-3.03-13.91-5.18-.68-.33-3.34.74-2.36,1.22h0Z"/>
    <path class="cls-27" d="M661.72,744.02s.09-.1-.07.04c-.17.15-.32.35-.5.51-.67.61-1.42,1.12-2.18,1.59-2.12,1.31-4.44,2.31-6.81,3.05-3.02.95-6.09,1.81-9.16.74-3.67-1.28-7.33-2.56-11-3.84-.66-.23-1.46-.09-2.05.28-.32.2-.94.87-.26,1.11,3.34,1.17,6.69,2.34,10.03,3.5,1.77.62,3.41,1.17,5.34,1.15,4.13-.04,8.65-1.65,12.36-3.38,1.94-.91,3.85-1.96,5.52-3.31.4-.32,2.05-1.52,1.68-2.22-.51-.97-3.32-.02-2.9.78h0Z"/>
    <path class="cls-24" d="M560.31,289.75c-8.01-2.85-27.86-3.09-32.79-.5,0,0,6.35,11.13,24.93,17.75,18.58,6.62,24.46-.15,24.46-.15,0,0-6.39-13.46-16.6-17.1Z"/>
    <path class="cls-17" d="M536.59,287.66s9.88,2.45,17.48,5.16c7.61,2.71,22.91,9.68,22.91,9.68,0,0-2.38-9.23-16.17-14.15-13.79-4.91-24.22-.68-24.22-.68Z"/>
    <path class="cls-8" d="M553.57,303.88c-8.15-4.64-15.63-11.8-26.05-14.64,0,0-2.29,15.46,19.55,23.24,21.84,7.78,29.84-5.64,29.84-5.64-9.87-4.4-14.09-1.4-23.34-2.96Z"/>
    <path class="cls-8" d="M571.73,287.75c-4.44-2.06-8.12-.93-10.11-1.64-1.99-.71-4.14-3.91-8.87-5.12-4.44-1.14-27.27,5.43-25.84,7.84,1.43,2.42,18.94-2.14,32.75,2.78,13.81,4.92,15.35,16.26,17.99,15.3,2.64-.97-1.75-17.23-5.91-19.16Z"/>
    <path class="cls-15" d="M596.25,693.03l-6.36,26.61-4.08,22.34s37.55,16.39,47.36,16.43c9.81.04,34.08-.54,34.08-.54-1.56,2.85-2.16,6.17-1.7,9.41.77,3.67,2.9,6.81,5.91,8.69l12.06-15.2c1.84,7.96,8.85,3.02,8.85,3.02l9.07-13.56c1.86,9.97,11.1,3.79,11.1,3.79l6.68-19.74c1.93,3.61,4.5,6.75,7.58,9.26,4.05,2.74,6.47-5.12,6.47-5.12l-12.44-33.6-42.21-19.7-72.86,9.73-9.52-1.83Z"/>
    <path class="cls-15" d="M765.26,740.89c-.98.52-15.38,4.1-22.41,10.83-7.03,6.73-24.69,15.57-24.69,15.57,0,0-31.58,9.4-35.83,8.73-4.24-.67-9.92-6.61-9.92-6.61-2.75-.07-5.54.21-8.3.83-7.51,1.13-11.62-6.79-11.62-6.79l9.08-4.9c-8.44,4.78-17.1,9.11-25.95,12.96-2.68.72-3.32-.88-3.37-3,.05-3.16,1.53-6.27,4.03-8.5l39.04-35.9c-6.32-2.81-12.28-6.24-17.8-10.26-5.65-4.06-1.93-8.6-.55-9.82s20.03,1.79,20.03,1.79c0,0,27.99-5.36,33.95-5.09,5.96.28,37.6,3.54,37.6,3.54l6.14-1.08s11.54,37.17,10.56,37.69Z"/>
    <path class="cls-27" d="M688.99,774.5c-5.63.45-10.64-1.87-14.87-5.38-.75-.62-1.72-.45-2.68-.42-2.23.05-4.43.35-6.61.77-2.89.56-5.59-.64-7.71-2.57-1.2-1.09-2.32-2.4-3.08-3.84l-.62.73c3.03-1.63,6.05-3.27,9.08-4.9l-1.84-.64c-5.66,3.2-11.43,6.22-17.31,9.02-1.37.65-2.75,1.3-4.13,1.93-.73.33-1.47.66-2.2.99-.54.24-1.38.86-2,.76-1.98-.31-1.08-4.57-.75-5.64,1.19-3.93,4.79-6.56,7.7-9.24,9.02-8.29,18.04-16.59,27.06-24.88,2.57-2.37,5.15-4.73,7.72-7.1.27-.25.1-.5-.17-.62-5.02-2.25-9.85-4.89-14.43-7.94-1.95-1.3-4.54-2.67-5.62-4.86-.73-1.5-.56-3.14.21-4.59.28-.53.64-1.01,1.04-1.46.03-.03.4-.41.4-.42-.02-.02-1,.56-.83.35.06-.07.4-.03.79-.04.49,0,.98.01,1.47.04,2.91.16,5.81.52,8.69.9,2.29.3,4.57.63,6.85.99.9.14,1.64.11,2.53-.06,4.92-.93,9.84-1.81,14.77-2.63,3.53-.59,7.07-1.15,10.62-1.63,1.38-.18,2.77-.36,4.15-.48.54-.05,1.08-.09,1.61-.12.24-.01.48-.02.71-.03.1,0,.7,0,.44,0,.73.03,1.6-.1,2.18-.58.42-.35.44-.84-.23-.87-2.32-.09-4.65.21-6.95.5-3.24.4-6.47.9-9.7,1.42-5.59.91-11.17,1.9-16.74,2.95-.35.07-.93.06-1.25.24.03-.02.97.11.51-.05-.25-.09-.57-.09-.83-.13-2.57-.4-5.15-.77-7.74-1.1-2.95-.38-5.92-.74-8.89-.82-2.26-.06-4.22.17-5.7,2.03-1.03,1.28-1.76,2.84-1.69,4.51.11,2.61,2.29,4.27,4.24,5.65,5.3,3.73,10.97,6.92,16.89,9.57l-.17-.62c-7.15,6.57-14.3,13.15-21.44,19.72-4.5,4.14-9.01,8.28-13.51,12.43-3.29,3.03-7.13,5.89-8.03,10.56-.37,1.9-.53,4.94,1.9,5.46,1.45.31,2.93-.14,4.24-.72,1.71-.75,3.42-1.52,5.11-2.3,6.91-3.19,13.69-6.68,20.32-10.43.43-.24.89-.64.33-.99s-1.69.09-2.17.35c-3.03,1.63-6.05,3.27-9.08,4.9-.16.09-.78.44-.62.73,1.16,2.21,3.02,4.24,5.14,5.54,1.84,1.13,3.9,1.71,6.06,1.68,1.44-.02,2.83-.41,4.25-.62,1.78-.27,3.58-.36,5.38-.32l-.81-.18c4.26,4.27,10.81,6.46,16.75,5.98.59-.05,1.73-.2,2.05-.79s-.26-.73-.78-.69h0Z"/>
    <path class="cls-27" d="M674.29,725.95c3.06-3.8,6.64-6.98,10.67-9.72,2.02-1.38,3.89-2.94,5.96-4.26,2.17-1.39,4.42-2.64,6.73-3.79.48-.24.85-.72.31-1.07s-1.66.07-2.17.32c-2.37,1.17-4.69,2.47-6.91,3.9s-4.24,3.07-6.4,4.56c-4.14,2.86-7.86,6.16-11.02,10.09-.45.56.39.77.8.78.67.01,1.6-.26,2.05-.81h0Z"/>
    <path class="cls-27" d="M689.59,739.45c-.04-.3.14-.1.02-.15-.05-.02-.11.1-.13.11-.27.2-.54.41-.82.61-.96.69-1.95,1.36-2.93,2.03-3.24,2.2-6.5,4.39-9.71,6.63-3.84,2.67-7.64,5.39-11.52,7.99-3.36,2.25-6.83,4.92-10.69,6.2-.38.13-1.19.48-.9.96.27.45,1.7-.02,2-.12,3.28-1.09,6.09-3.01,8.97-4.86,3.12-2.01,6.18-4.12,9.23-6.25,5.5-3.84,11.05-7.61,16.57-11.42.53-.37,3.12-1.71,3-2.55-.11-.72-3.21-.06-3.08.83h0Z"/>
    <path class="cls-27" d="M700.08,750.84c-3.62,4.12-7.85,7.67-12.6,10.43-2.39,1.39-4.59,3-7.08,4.24s-5.32,2.34-8.12,3.13c-.32.09-1.54.44-1.4.96s1.42.21,1.69.14c2.96-.83,5.85-1.89,8.63-3.21s5.42-3.05,8.08-4.73c5.05-3.18,9.63-6.61,13.6-11.12.46-.52-.41-.61-.75-.6-.64.02-1.61.25-2.06.76h0Z"/>
    <path class="cls-10" d="M748.53,477.37l-42.34,85.84s27.45,39.04,67.14,39.78-24.8-125.62-24.8-125.62Z"/>
    <path class="cls-10" d="M781.46,638.32c2.02,1.85.61,3.79,8.25,54.61,1.38,9.21,4.17,43.66,3.4,52.66,8.26,1.43,9.26,1.89,17.66,2.09,36.72.89,72.74-9.26,106.47-23.04,28.85-11.78,56.38-26.43,83.72-41.34l-1.14-1.91-38.17-254.73-45.32-20.34-2.27-.92-1.54,2.71c-8.8,14.74-27.42,32.26-44.99,35.12-5.15.84-10.6,1.37-16.21,1.52-15.62.41-30.06-10.27-26.06-24.97.14-.51-18.48,7.71-20.53,8.8-11.05,5.85-18.14,11.19-26.3,16.59-5.65,3.75-10.28,8.87-13.28,14.95-5.41,10.97-11.74,30.23-8.78,57"/>
    <path class="cls-10" d="M789.71,692.94s-.46,98.23-.13,115.47c0,0,87.61,10.77,175.41-13.94,87.8-24.71,103.96-23.23,103.96-23.23l-39.23-94.95-24.4-95.26-205.8,101.91"/>
    <path class="cls-19" d="M913.18,404.93c-1.7,3.65-4,7.1-6.37,10.34-5.51,7.56-12.31,14.29-20.17,19.39-10.71,6.95-23.31,10.45-36.08,9.91-8.69-.37-18.6-3.06-22.9-11.37-.89-1.73-1.52-3.64-1.74-5.58-.02-.21-.05-.43-.05-.64s0-.14,0-.18c.14-1.87.58-3.76.87-5.62.09-.59.18-1.17.27-1.76s-1.49-.06-1.7.04c-1.62.79-3.23,1.59-4.85,2.38-1.8.89-3.72,1.67-5.46,2.68-1,.58-1.15,2.2-1.33,3.25-.53,3.25,0,6.58,1.16,9.64,4.91,12.87,18.88,18.19,31.71,18.79,17.27.8,34.79-5.26,49.45-14.04,8.43-5.05,15.87-11.27,22.84-18.17,3.63-3.59,7.59-7.22,10.54-11.43.19-.27.7-.84.68-1.22-.03-.45-.52-.49-.92-.67l-12.74-5.8-1.11-.51c-.42-.19-.99-.03-1.4.12-.09.03-.99.47-.65.62,3.55,1.62,7.09,3.23,10.64,4.85l2.78,1.27c.33.15,1.04.31,1.29.59-.1-.11,0-.03-.14.23-1.41,2.62-3.84,4.85-5.86,6.98-6.26,6.56-12.78,12.91-20.17,18.2-13.91,9.97-30.67,17.16-47.91,18.08-12.14.65-26.79-2.36-34.07-13.13-2.18-3.22-3.76-6.98-4.09-10.87-.19-2.22.15-4.22.75-6.33,0-.03.19-.38.17-.4.11.14-.77.4-.17.18.78-.3,1.53-.75,2.27-1.12l6.46-3.17,1.38-.68-1.7.04c-.28,1.8-.55,3.59-.83,5.39-.12.78-.33,1.59-.33,2.38,0,1.63.56,3.38,1.17,4.87,3.32,8.04,11.85,11.63,19.98,12.66,13.1,1.66,26.94-1.23,38.53-7.46,9.02-4.85,16.86-11.69,23.24-19.68,2.2-2.75,4.24-5.63,6.07-8.64.58-.96,1.15-1.93,1.69-2.92.26-.48.73-1.1.85-1.64.02-.07.07-.15.11-.22.16-.34-1.88-.18-2.14.38Z"/>
    <path class="cls-10" d="M808.58,427.82c-12.86,8.26-35.31,14.72-45.95,27.97-13.11,16.31-13.7,18.03-22.67,47.56-4.51,14.86-5.54,15.18-9.52,43.08-.12.83-.68,3.76-1.48,7.84,3.93,1.59,7.36,4.52,10.15,7.88,5.09,6.15,8.58,13.54,11.67,20.85,3.11,7.36,5.7,14.91,8.5,22.39,1.09,2.91,2.2,5.85,3.52,8.64,2.42,5.1,6.72,9.19,10.67,13.1,2.15,2.12,4.28,4.27,6.22,6.58,1.82,2.16,3.46,4.28,4.39,6.99.52,1.53.83,3.1,1.02,4.7,4.31-7.76,8.08-15.83,11.26-24.13,6.18-16.12,10.22-32.99,12.68-50.07,2.5-17.42,3.39-35.05,3.21-52.63-.18-17.72-1.42-35.41-3.21-53.03-1.49-14.62,1.56-23.17-.47-37.72Z"/>
    <path class="cls-15" d="M928.3,652.49c-29.79,3.58-192.24,58.04-192.24,58.04l6.89,32.28s207.09-.25,238.47-26.13c0,0,19.72-8.26,26.76-46.97,7.03-38.71,2.94-151.99,2.94-151.99l-33.45-40.54c-16.1,11.66-46.96,7.71-48.53,27.53l-.84,147.78"/>
    <path class="cls-27" d="M927.78,653.19c10.4-.24,20.25,7.25,23.4,17.04.24.76,3.31-.12,3.08-.83-3.43-10.67-14.08-17.78-25.17-17.53-.55.01-1.75.23-2.06.75-.33.55.29.57.74.56h0Z"/>
    <path class="cls-10" d="M954.4,423.36s48.85,19.42,63.02,48.36c9.52,19.45,11.04,93.46,11.04,93.46l-22.3,6.67c-22.67,6.78-46.69,7.72-69.82,2.74l-31.82-4.56,49.89-146.66Z"/>
    <path class="cls-19" d="M753.09,509.75c2.5,3.32,4.21,7.41,5.42,11.35,1.12,3.65,1.76,6.94,1.47,10.63-.55,6.93-1.75,13.82-2.54,20.73-1.1,9.64-1.82,19.35-1.55,29.05s1.56,20.24,5.11,29.68c3.45,9.17,9.21,17.4,17.45,22.87,1.06.7,2.15,1.35,3.26,1.96.84.46,2.74-.68,1.67-1.27-8.78-4.79-15.28-12.5-19.2-21.64s-5.54-19.37-6-29.34c-.45-9.81.17-19.64,1.22-29.39.78-7.19,1.96-14.34,2.66-21.54.25-2.59.27-4.96-.21-7.54-1.03-5.55-3.13-11.07-6.26-15.78-.17-.25-.34-.5-.52-.74-.6-.8-2.67.06-1.99.96h0Z"/>
    <path class="cls-19" d="M927.95,569.53c-3.42-.87-6.85-1.73-10.27-2.6l.46.46c-.39-3.95-.65-7.92-.88-11.88-.53-9.07-.78-18.16-.65-27.24.14-10.06.68-20.22,2.53-30.13.77-4.12,1.78-8.24,3.39-12.12,2.26-5.44,6.08-10.28,9.83-14.75,7.61-9.08,17.33-16.95,28.92-20.15,1.13-.31,2.26-.57,3.41-.79,1.38-.27.94-1.81-.41-1.54-11.26,2.18-21.16,8.67-29.13,16.73-2.67,2.7-5.15,5.6-7.45,8.62-2.03,2.67-4.08,5.43-5.71,8.37-1.94,3.49-3.14,7.37-4.09,11.24-2.38,9.75-3.09,19.92-3.4,29.92-.3,9.68-.11,19.37.38,29.03.17,3.38.38,6.76.64,10.14.12,1.58.05,3.37.41,4.92.02.07.01.15.02.22.02.19.29.42.46.46,3.42.87,6.85,1.73,10.27,2.6.52.13,1.19.06,1.54-.41.27-.37.24-.96-.29-1.09h0Z"/>
    <path class="cls-4" d="M744.19,901.5c-1.73-5.25-1.24,14.5-3.42,9.46-4.94-11.4-10.9-22.29-17.54-32.66-6.83-10.67-14.43-20.79-22.77-30.17-5.66-6.38-11.68-12.44-18.07-18.01,101.85-43.93,339.76-54.8,339.76-54.8,0,0,79.56,10.66,53.76,98.36-7.73,26.28-31.88,34.06-65.91,39.37-80.61,12.58-202.08-1.48-262.85-7.83-.41-.04-2.55-3.68-2.96-3.72Z"/>
    <path class="cls-4" d="M743.46,921.66c-2.35-4.76-4.94-9.39-7.7-13.89-6.23-10.17-13.36-19.7-21.08-28.63-7.94-9.19-16.54-17.74-25.75-25.48-6.26-5.26,12.6-22.01,5.76-26.39-25.67-76.59,371.75-59.82,371.75-59.82,0,0,15.98,17.28,15.98,70.82,0,91.07-255.72,67.17-338.98,71.32-.4.02.42,12.06.03,12.08Z"/>
    <path class="cls-11" d="M847.82,916.27c-7.37-3.04-14.44-6.76-21.11-11.13-.72-.47-2.79.55-1.79,1.2,6.67,4.37,13.74,8.09,21.11,11.13.52.22,1.15.15,1.62-.18.29-.2.7-.8.16-1.02h0Z"/>
    <path class="cls-11" d="M808.5,1227.53c-.44-1.29-.88-2.58-1.32-3.87-1.25-3.65-2.49-7.31-3.73-10.96-1.94-5.69-3.87-11.38-5.8-17.07-2.51-7.4-5.02-14.79-7.52-22.19-2.97-8.77-5.93-17.55-8.9-26.32-3.31-9.82-6.62-19.65-9.92-29.47-3.54-10.54-7.08-21.09-10.61-31.64-3.66-10.93-7.31-21.87-10.94-32.81-3.66-11-7.3-22-10.94-33.01-3.54-10.73-7.07-21.47-10.58-32.21-3.31-10.14-6.61-20.28-9.88-30.43-2.97-9.22-5.92-18.44-8.83-27.67-2.51-7.96-5-15.93-7.44-23.92-1.95-6.38-3.87-12.77-5.7-19.19-1.28-4.47-2.54-8.95-3.62-13.47-3.18-13.26-4.11-27.29-1.23-40.69,3.16-14.65,11.05-28.15,23.28-37.02,10.39-7.53,22.81-11.26,35.48-12.37,8.06-.71,16.11-1.41,24.17-2.12,9.49-.83,18.98-1.66,28.47-2.49,1.63-.14,3.27-.29,4.9-.43,1.25-.11,1.78-1.74.22-1.6-6.04.53-12.08,1.06-18.11,1.59-10.27.9-20.53,1.8-30.8,2.7-8.08.71-16.14,1.24-24.01,3.42-15.42,4.27-29.21,13.62-37.59,27.41-7.94,13.06-10.78,28.45-9.87,43.58.49,8.1,2.04,16,4.12,23.81,1.45,5.44,3.02,10.85,4.62,16.25,2.13,7.19,4.33,14.36,6.55,21.52,2.69,8.66,5.43,17.31,8.18,25.95,3.11,9.74,6.24,19.46,9.4,29.18,3.41,10.51,6.84,21.01,10.29,31.51,3.6,10.95,7.21,21.89,10.83,32.83,3.68,11.1,7.37,22.2,11.07,33.29,3.61,10.83,7.24,21.67,10.87,32.49,3.46,10.32,6.92,20.63,10.4,30.94,3.16,9.39,6.33,18.77,9.5,28.15,2.76,8.16,5.52,16.33,8.29,24.49,2.24,6.61,4.48,13.22,6.73,19.83,1.61,4.74,3.22,9.48,4.83,14.21.85,2.5,1.7,4.99,2.55,7.49.11.31.21.62.32.94.34,1,2.62.37,2.28-.61h0Z"/>
  </g>
</svg>