<?xml version="1.0" encoding="UTF-8"?>
<svg xmlns="http://www.w3.org/2000/svg" xmlns:xlink="http://www.w3.org/1999/xlink" viewBox="0 0 1334 1000">
  <defs>
    <style>
      .cls-1 {
        fill: #131429;
      }

      .cls-2 {
        fill: #101931;
      }

      .cls-3 {
        fill: #010101;
      }

      .cls-4 {
        fill: #653c29;
      }

      .cls-5 {
        fill: #27153c;
      }

      .cls-6 {
        fill: #f1eef7;
      }

      .cls-7 {
        fill: #3d4e83;
      }

      .cls-8 {
        fill: #745245;
      }

      .cls-9 {
        fill: #5c483b;
      }

      .cls-10 {
        fill: #a66e53;
      }

      .cls-11 {
        fill: #0a2f44;
      }

      .cls-12 {
        fill: url(#linear-gradient);
        opacity: .5;
      }

      .cls-13 {
        fill: #212121;
      }

      .cls-14 {
        fill: #3d3d3d;
      }

      .cls-15 {
        fill: #fff;
      }

      .cls-16 {
        fill: #5e1a15;
      }

      .cls-17 {
        fill: #0d0b09;
      }

      .cls-18 {
        fill: #513835;
      }

      .cls-19 {
        fill: #4f2f26;
      }

      .cls-20 {
        fill: #f2ebd1;
      }

      .cls-21 {
        fill: #24180f;
      }

      .cls-22 {
        fill: #628e9f;
      }

      .cls-23 {
        fill: #381c13;
      }

      .cls-24 {
        fill: #757d8a;
      }

      .cls-25 {
        fill: #c8e8eb;
      }

      .cls-26 {
        fill: #4f2e25;
      }
    </style>
    <linearGradient id="linear-gradient" x1="7349.68" y1="-4636.07" x2="8830.93" y2="-4636.07" gradientTransform="translate(-4093.73 -7584.62) rotate(90)" gradientUnits="userSpaceOnUse">
      <stop offset="0" stop-color="#f0ebe0"/>
      <stop offset=".18" stop-color="#eee8dd" stop-opacity=".99"/>
      <stop offset=".33" stop-color="#e8e1d4" stop-opacity=".97"/>
      <stop offset=".46" stop-color="#ded4c5" stop-opacity=".93"/>
      <stop offset=".59" stop-color="#d0c2b0" stop-opacity=".88"/>
      <stop offset=".72" stop-color="#bdab95" stop-opacity=".82"/>
      <stop offset=".84" stop-color="#a78e73" stop-opacity=".73"/>
      <stop offset=".96" stop-color="#8d6d4d" stop-opacity=".64"/>
      <stop offset="1" stop-color="#83603d" stop-opacity=".6"/>
    </linearGradient>
  </defs>
  <g id="Layer_1" data-name="Layer 1">
    <polyline class="cls-20" points="-430.39 1220.58 -430.39 -256.54 1574.38 -256.54 1574.38 1220.58"/>
    <polyline class="cls-12" points="-460.05 1241.43 1544.72 1241.43 1544.72 -239.82 -460.05 -239.82"/>
    <path class="cls-9" d="M-60.85,1478.15c-.78-19.33-1.52-38.67-2.11-58.01-1.36-44.49-47.02-88.98-47.02-133.49l10.32-720.38,597.71-1.69c129.42.02,150.96,123.07,154.2,277.33,11.71-9.01,129.35-7.4,164.13-7.4,51.09,5,75.1,69.44,79.48,158.25l2.96,117.66,1.67.63c28.17,16.94,44.1,41.49,44.16,79.1v98.16c-.11,24.41-13.83,45.75-33.57,52.21v137.62H-60.85Z"/>
    <path class="cls-17" d="M648.21,848.92c-11.11,14.77-21.47,30.51-29.11,47.38-4.09,9.03-6.83,18.44-8.37,28.23-1.67,10.63-2.14,21.4-2.56,32.14-.58,14.59-.96,29.18-1.31,43.77-.42,17.23-.77,34.47-1.12,51.71-.31,15.22-.59,30.44-.93,45.66-.03,1.5-.07,3.01-.1,4.51-.01.61,1.44.31,1.45-.18.33-14.59.61-29.19.9-43.79.34-17.17.69-34.35,1.09-51.52.36-15.19.73-30.38,1.28-45.56.72-19.72,1.22-40,8.38-58.65,3.36-8.75,7.79-17.07,12.56-25.13,4.78-8.08,9.99-15.92,15.49-23.53,1.22-1.68,2.45-3.35,3.69-5.01.39-.52-1.06-.42-1.35-.04h0Z"/>
    <path class="cls-17" d="M710.72,849.06c-11.16,14.84-21.59,30.66-29.22,47.63-4.07,9.06-6.77,18.52-8.28,28.33-1.62,10.5-2.08,21.14-2.5,31.74-.58,14.59-.96,29.18-1.31,43.77-.42,17.23-.77,34.47-1.12,51.71-.31,15.22-.59,30.44-.93,45.66-.03,1.5-.07,3.01-.1,4.51,0,.24,1.44.04,1.45-.39.33-14.59.61-29.19.9-43.79.34-17.17.69-34.35,1.09-51.52.36-15.19.73-30.38,1.28-45.56.72-19.82,1.24-40.2,8.51-58.92,3.36-8.66,7.75-16.91,12.48-24.89,4.78-8.08,9.99-15.92,15.49-23.53,1.22-1.68,2.45-3.35,3.69-5.01.1-.14-1.17-.1-1.43.25h0Z"/>
  </g>
  <g id="Layer_5" data-name="Layer 5">
    <path class="cls-18" d="M626.18,782.93c.08.03.16.04.25.05"/>
    <path class="cls-8" d="M544.01,697.78c.11-.04.21-.07.32-.11-.12-.03-.24-.06-.36-.09-.03.08-.02.14.04.21Z"/>
    <path class="cls-8" d="M591.91,693.59c-.12-.05-.23-.1-.35-.14-.02.06-.04.12-.06.19.14-.01.27-.03.41-.04Z"/>
    <path class="cls-8" d="M545.02,697.62c.15-.01.3-.03.45-.04-.16-.12-.31-.11-.45.04Z"/>
    <path class="cls-22" d="M617.58,691.41c-.14-.12-.26-.11-.38.03.13,0,.26-.02.38-.03Z"/>
    <path class="cls-10" d="M855.24,199.81s4.88,51.31,21.51,77.36c2.67,4.18,28.77,10.08,28.77,10.08l-4.72,8.93c-4.08,7.71-13.68,15.61-20.72,20.75-35.07,25.57-89.21,43.11-112.93,23.51l5.89-18.54s5.19-7.43,5.03-13.27c-.15-5.84-17.27-47.63-17.27-47.63"/>
    <path d="M862.83,219.22c.02.1.03.2.05.3,0-.13,0-.24-.05-.3Z"/>
    <path class="cls-10" d="M808.28,296.47l-33.74,7.44-17.69.55c-1.69.47-13.51-14.75-15.23-16.62-5.34-5.81-12.31-13.43-16.42-20.18-4.4-7.23-11.13-12.75-14.78-21.89-2.67-6.69-3.96-11.53-3.18-23.77.2-3.11-.52-5.98-2.02-8.87-3.19-6.09-5.71-13.54-9.79-21.75-.32-.65-1.98-3.74-1.9-4.55,0,0-10.97-35.83-7.8-50.49,3.17-14.66,11.39-23.15,20.28-28.08,8.89-4.94,37.46-13.56,37.46-13.56l37.41-12.7,37.29,7.72,27.24,35.75,9.73,47.2,5.88,42.9"/>
    <path d="M843.2,172.08c.75,3.65.91,22.77,1.41,26.39l18.53-5.19c2.41-13.8,5.38-30.07,6.66-33.93,1.99-6.03-14.19-29.18-16.44-38.67l-.48-2.05c-2.13-9.11-14.51-21.24-33.12-32.45-32.01-19.3-30.84-19.91-69.16-7.03-2.63.89-5.24,1.87-7.74,2.93-23.6,9.99-44.19,14.92-54.53,39.52-7.45,17.74-3.73-3.09-.11,6.98-4.6-20.53-4.14-2.74-2.66-5.68,8.71-17.2,18.66-3.82,24.46-6.28,5.06-2.14,9.38-1.75,10.24-1.65,6.31-.21,11.86-2.46,17.91-5.02,4.51-1.91,15.68-7.66,16.64-8.15,2.6-3.02-3.32-14.56,2.28-16.93,13.02-5.51,33.05-4.34,40.37-2.99,8.65,1.59,29.14,4.6,31.93,25.97"/>
    <path d="M759.33,299.1c.22-.09.42-.23.57-.4,2.93-3.28,2.86-4.68,4.49-5.55.38-.2.54-.4,1.74-.9,4.82-2.01,7.74-3.33,23.4,1.66.31.1,17.32-6.74,17.65-6.86l7.95-6.67c1.27-1.34,27.78-38.9,27.78-38.9.26-1.09,4.63-9.51,4.63-10.49.09-.08.18-.17.28-.24.04-.02.12-.09.19-.15.03.06.07.13.1.17.16.37.26.79.35,1.19.37,1.73.46,3.51.38,5.29-.13,2.73.09,5.42.06,8.13,0,.96-.07,1.92-.16,2.87-3.24,3.43-19.77,40.96-32,51.61-.85.48-3.51,2.04-11.01,4.7-14.09,4.99-28,8.62-43.26,8.22-3.98-.1-7.65-1.96-10.04-5-6.81-8.68-21.87-28.01-28.01-42.03,6.15,7.45,19.19,23.44,28.14,34.3.27.33,5.82-.8,6.31-.79"/>
    <path class="cls-10" d="M858.11,221.34c14.27,12.18,15.33-15.02,15.33-15.02,7.03-15.46,3.34-28.86.45-37.93-2.89-9.06-12.94-6.16-12.94-6.16-8.31,3.28-10.88,8.93-10.12,39.78"/>
    <path d="M713.31,107c13.92-3.83,48.14-22.93,66.8-29,7.73-2.51,38.8,10.23,43.33,13.78,10.38,8.15-1.61,36.05,20.11,64.93,7.17,9.54,8.58-10.76,15.99-5.2,7.4,5.56,10.27,7.83,10.27,7.83-3.82-32.01-3.65-30.9-18.33-59.7-14.64-28.73-51.3-33.53-68.06-31.96-16.76,1.57-67.09,19.94-79.38,30.02"/>
    <path d="M775.86,186.52c1.82-1.7,4.57-1.44,6.31-.6.41.2,1.52.78,2.32,2.06,1.03,1.64.88,3.87.1,5.41-1.04,2.06-3.46,3.05-5.62,2.69-2.94-.48-4.66-3.38-4.65-5.83,0-.45.07-2.36,1.54-3.73"/>
    <path d="M714.62,204.15c-2.44-.51-4.66,1.14-5.7,2.77-.25.38-.9,1.46-.91,2.97-.02,1.93,1.26,3.76,2.72,4.68,1.96,1.23,4.54.81,6.2-.62,2.26-1.94,2.23-5.31.94-7.4-.24-.38-1.29-1.98-3.25-2.39"/>
    <path d="M734.58,207.24s-10.97-6.16-17.4-4.98c-9.38,1.72-11.15,4.44-13.22,9.54,0,0,4.76-6.06,11.4-7.1,6.35-.99,19.21,2.53,19.21,2.53Z"/>
    <path d="M763.67,196.69s10.55-11.68,16.8-13.61c9.12-2.81,21.58-.46,25.77,3.11,0,0-16.66-3.93-23.03-1.77-6.09,2.06-19.54,12.28-19.54,12.28Z"/>
    <path d="M747.71,159.3c.09,2.26.18,4.54.27,6.81.07,1.73.1,5.69.18,7.41,5.92-1.67,11.23-4.05,15.07-4.81,7.62-1.51,15.39-3.55,23.19-2.73,3.73.39,7.02,1.15,10.18,2.79,1,.52,3.72,2.81,5.16,2.15.59-.27-.49-3.03-.61-3.31-2.22-5.55-7.53-7.71-13.98-8.82-13.14-2.27-26.25-1.5-39.46.51"/>
    <path d="M693.3,191.69s2.55-3.12,2.57-3.14c7.1-8.77,16.07-15.16,25.89-20.62,1.36,1.81,2.73,3.63,4.09,5.45,1.04,1.39,3,3.83,4.03,5.21-4.89,1.85-9.39,3.07-12.35,4.53-5.88,2.88-12.12,5.84-16.66,10.64-.36.38-2.27,2.47-2.6,2.85-3.54-1.26-5.39-3.97-4.96-4.91Z"/>
    <path d="M779.67,268.12l-23.91,5.38s8.12,7.59,13.87,5.98c3.6-1.01,7.33-6.24,10.04-11.36Z"/>
    <g>
      <path d="M751.72,241.15c3.09.69,7.09-.8,9.32-3.27.49-.55,2.6-.74,1.91.03-2.94,3.26-8.76,5.12-12.75,4.24-.4-.09-.41-.38-.02-.64.4-.28,1.12-.45,1.55-.35"/>
      <path d="M763.89,236.79c1.56-1.38,3.46-2.41,5.43-3.13.29-.1.7-.1.98.04.21.11.31.31.12.5-.78.81-1.9,1.37-3,1.65-.35.09-.82.13-1.1-.12-.26-.23.02-.5.29-.57.91-.24,1.77-.68,2.42-1.34.37.18.73.36,1.1.54-1.77.65-3.45,1.58-4.85,2.82-.28.25-.77.27-1.1.18-.25-.07-.57-.31-.29-.56"/>
      <path d="M771.98,234.8c2.35-.72,4.83-2.55,5.48-4.7.98-3.24-1.84-7.04-5.28-7.97-.37-.1-.27-.4.03-.56.4-.21.94-.19,1.34-.09,3,.81,5.64,3.82,5.98,6.51.31,2.51-1.48,4.83-4.11,6.32-.78.44-1.64.83-2.52,1.1-.36.11-1.03.18-1.29-.06-.26-.24.03-.46.37-.56"/>
      <path d="M747.05,241.14c.05-.31-.24-.43-.43-.37-.63.2-1.34.2-2.01-.1-.14.32-.27.64-.41.96,1.32-.22,2.72-.15,4.08.32.27.09.57-.1.72-.33.12-.17.19-.52-.08-.62"/>
      <path d="M748.94,240.99c-1.52-.52-3.09-.57-4.56-.33-.22.04-.45.23-.55.47-.08.19-.04.41.15.49"/>
      <path d="M742.23,242.84c-1.55.37-3.66-.18-4.92-1.78-1.91-2.43-1.76-5.99-.34-8.28.16-.25-.02-.47-.26-.48-.3-.02-.58.24-.75.5-1.24,2-1.63,4.79-.66,7.3.91,2.34,2.85,3.61,4.89,3.8.61.05,1.23.03,1.81-.11.23-.06.62-.28.66-.6.03-.32-.21-.39-.44-.34"/>
    </g>
    <path d="M707.38,114.74c.79-1.11,2.3-1.82,3.72-2.46l1.46-.92c4.7-1.28,9.43-2.41,14.19-3.41,1.2-.25,2.44-.49,3.59-.32.12.02.24.05.36.08,3.45-1.03,6.92-2.03,10.41-2.93h1.71c1.54-.17,3.19-.34,4.4.13,1.21.46,1.6,1.85.34,2.63-1.31.82-3.62.61-4.4,1.68-.85,1.17,1.56,1.96,1.19,3.18-.23.77-1.44,1.31-2.13,2-.83.82-.92,1.82-1.68,2.67-.77.87-2.25,1.46-3.57,1.45-1.29.45-3.2.37-3.39,1.39-.05.27.09.52.17.77.32.99-.25,2.21-1.38,2.93-1.12.73-2.72.91-3.85.44-1.1-.45-1.71-1.42-2.86-1.81-.36-.12-.77-.18-1.18-.25-.25.39-.6.75-1.04,1.04-1.12.72-2.72.91-3.85.44-1.1-.45-1.71-1.42-2.86-1.81-.97-.32-2.29-.23-2.9-.89-.97-1.04.69-3.12-.67-3.85-1.23-.67-3.11.78-4.67.64-1.5-.13-1.9-1.73-1.11-2.84Z"/>
    <path d="M787.74,296.54c-.71.85-1.97,1.32-3.16,1.74l-1.24.65c-3.87.73-7.77,1.34-11.68,1.83-.98.12-2,.24-2.92.03-.1-.02-.19-.05-.29-.09-2.85.61-5.72,1.19-8.6,1.69l-1.38-.12c-1.25.05-2.59.08-3.54-.38-.95-.45-1.17-1.59-.1-2.15,1.11-.58,2.96-.26,3.66-1.07.76-.89-1.13-1.68-.76-2.65.24-.61,1.24-.97,1.85-1.48.73-.61.86-1.41,1.53-2.05.68-.65,1.91-1.04,2.98-.94,1.07-.28,2.61-.09,2.82-.9.06-.22-.04-.43-.08-.64-.19-.82.35-1.77,1.3-2.28.95-.51,2.26-.56,3.14-.11.86.44,1.29,1.26,2.19,1.64.28.12.61.2.93.28.23-.3.53-.57.91-.77.95-.51,2.26-.56,3.14-.11.86.44,1.29,1.26,2.19,1.64.76.32,1.83.34,2.28.9.71.9-.76,2.47.29,3.15.95.62,2.56-.42,3.81-.22,1.2.2,1.42,1.52.71,2.37Z"/>
    <path d="M868.46,161.73c1.42-.42,2.89-.87,3.95-1.91,1.06-1.03,1.52-2.83.62-4-1.43-1.85-5.32-1.28-5.64-3.6,1.33-2.67,5.99-2.88,6.4-5.84.33-2.39-2.5-3.84-4.81-4.54,1.08-1.69.96-.37,2.74-1.31,1.77-.94,1.72-5.77.26-7.14-1.66-1.55-1.96.1-1.77-2.16,1.39-.84-2.23-1.31-1.35-2.68.88-1.36,1.01-3.36-.15-4.5-1.4-1.36-1.5-2.61-1.93-4.52-.36-1.63-3.61-1.14-2.96-2.68,1.18-2.8-1.95-5.4-4.63-6.84,1.08-1.18-.56-1.07-.06-2.59.49-1.52.2-3.42-1.12-4.33-.81-.55-1.84-.65-2.73-1.06-3.66-1.69-2.99-7.02-1.73-10.85-2.66.92-5.92-.56-6.98-3.17-.5-1.23-.57-2.65-1.32-3.74-.76-1.09-2.7-1.49-3.28-.29"/>
    <path d="M844.62,89.99c-.8-1.63-4.39-9.46-5.19-11.09-1.96,1.38-5.14.27-5.83-2.03-.34-1.15-.32-2.69-1.43-3.14-1.14-.46-2.24.76-3.45.99-2.68.51-4.09-3.7-6.8-4.02-1.7-.2-3.25,1.24-4.96,1.11-2.58-.19-3.84-3.69-6.39-4.13-1.76-.3-3.45.99-5.24.94-3.88-.11-6.42-5.18-10.2-4.31-1.38.32-2.44,1.57-3.84,1.78-2.51.38.53-3.08-2-2.84-2.32.22-3.54,3.03-5.73,3.83-3.57,1.29-7.51-4.25-10.59-2.03-1.33.96-1.72,2.82-3,3.83-3,2.36-7.67-1.65-11.07.08-1.71.87-2.57,2.99-4.35,3.67-2.78,1.06-5.85-1.95-8.68-1.04-2.26.73-3.34,3.68-5.67,4.11-1.63.3,1.9-2.45.25-2.29-2.82.27-4.12,3.76-6.68,4.98-2.14,1.02-4.66.25-7.04.23-2.38-.01-6.24,5.56-5.75,7.88"/>
    <path d="M802.45,77.33c14.66,2.03,21.28,5.45,30.94,16.66l-83.11-8.42c5.33-2.51,10.72-4.59,16.19-5.67,14.52-2.87,21.31-4.6,35.97-2.57Z"/>
    <path d="M692.6,104.57c.33-.26.66-.52.97-.79,1.58-1.42,4.68-2.82,2.73-3.66-1.6-2.91,2.86-8.08,6.86-8.97,1.15-.26,2.35.07,3.53-.01,3.06-.21,5.46-3.63,4.61-6.58,3.27.91,6.9.46,9.85-1.23l29.14,2.23c-11.29,5.33-22.33,12.64-33.41,16.79-5.33,2-10.72,4.2-15.03,7.92-3.14,2.71-7.46,4.82-10.66,7.67.45-4.46.89-8.92,1.42-13.38Z"/>
    <path d="M733.71,280.56c1.73,3.32,2.64,7.03,5.26,9.7-1.21.73-.19,2.64,1.05,3.32,1.24.68,2.9,1.35,2.92,2.77,0,.49-.21.97-.19,1.46.06,1.55,2.09,2.04,3.64,2.08-.82,1,.4,2.4,1.57,2.95,1.17.55,2.66,1.24,2.61,2.53-.03.63-.46,1.24-.3,1.86.33,1.28,2.44.79,3.4,1.71.55.53.57,1.4.91,2.08.71,1.41,2.98,1.63,3.95.38.9,2.54,2.81,5.65,5.41,4.91,1.61-.46,2.79-2.39,4.43-2.07,1.01.19,1.68,1.21,2.65,1.55,3.29,1.16,5.43-5.64,8.71-4.47,1.76.63,2.34,3.33,4.2,3.51,1.76.17,2.77-2.07,4.44-2.65,1.82-.63,4.15.79,5.61-.46.63-.54.85-1.43,1.34-2.1,1.13-1.54,2.98-.04,4.88.1,3.4.25,3.16-2.1,3.16-2.1.42-2.44,1.69-2.56,4.07-1.87.79.23,1.57.69,2.38.54,1.98-.37,2.15-3.81,4.15-4.08.73-.1,1.43.3,2.16.45,2.63.54,4.82-3.32,3.02-5.3,2.99-.66,4.95-4.24,3.89-7.12,2.99.27,5.77-2.81,5.21-5.76,3.47.14,6.01-4.53,4.02-7.37,2.48.33,4.84-2.36,4.2-4.78-.33-1.24-1.23-2.69-.36-3.64.58-.62,1.56-.52,2.39-.72,2-.49,2.94-3.32,1.65-4.91,3.41.05,5.36-5.15,2.76-7.36,2.68-.03,4.15-4.09,2.11-5.83,3.47-.92,4.75-6.14,2.11-8.57l-30.72,50.86-9.31,7.17s-36.11,11.94-43.81,10.41c-7.69-1.52-29.56-29.17-29.56-29.17Z"/>
    <path d="M752.75,88.46l35.48-13.57,34.31,11.13,20.02,35.58-.28,31.37h0l6.7,45.2c-1.01.35-2.03.7-3.04,1.06-.32.11-.66.22-.98.11-.79-.26-.64-1.39-.61-2.22.07-1.93-1.37-3.53-2.56-5.05-1.19-1.52-2.23-3.6-1.33-5.3.48-.9,1.47-1.65,1.36-2.66-.15-1.32-1.9-1.62-2.99-2.39-1.7-1.2-1.52-4.21.3-5.2,0,0-2.83-1.96-3.15-7.06-.32-5.1-.08-10.68-.08-10.68h0c-.38-.28-.75-.57-1.05-.93-2.22-2.62-.36-7.02-2.34-9.82-.89-1.26-2.42-1.97-3.2-3.29-1.49-2.53.44-5.88-.51-8.66-1.07-3.12-5.52-4.95-4.98-8.21.26-1.59,1.74-2.79,1.92-4.4.31-2.79-3.38-5.51-1.85-7.86.53-.82,1.58-1.24,1.96-2.13.78-1.8-1.55-3.25-2.69-4.84-1.18-1.65-1.12-3.86-1.79-5.77-.68-1.91-3.01-3.64-4.62-2.41.35-3.34-3.47-11.32-6.64-10.21-1.56.55-3.45,1.8-4.6.62-.82-.84-.48-2.34-1.21-3.26-1.87-2.35-5.49,2.62-8.23,1.38-.74-.34-1.21-1.08-1.88-1.54-1.51-1.05-3.61-.46-5.22.44-1.61.89-3.19,2.09-5.03,2.16-1.84.08-3.86-1.75-3.09-3.43-1.59,1.48-3.26,3.01-5.34,3.64-2.08.63-4.7.07-5.74-1.84.13,3.1-4.16,5.3-6.61,3.4-.98-.76-1.82-2.04-3.05-1.9-.55.06-1.02.41-1.43.78-1.85,1.63-3.21,8.77-3.88,11.15l-2.06-13.35Z"/>
    <path d="M700.2,108.99c.67.92-.53,2.06-1.61,2.43-1.07.37.34,1.11.41,2.24.04.7-2.12,1.07-2.07,1.77.13,2.14-1.91,1.57-2.59,3.6-.51,1.53-.66,3.02-1.63,4.3-.46.61-1.35.62-2.08.85-1.26.4-.42,1.13-.45,2.45-.02.98-1.36,2.52-1.7,3.45-.41,1.12-.81,5.56-1.75,6.29-2.48,1.92-.85-.43-.2,2.64.65,3.07-.91,8.69-2.77,11.21-2.57-1.34-.7-3.76.49-6.41.36-.8.9-1.52,1.13-2.36.23-.84.38,1.29-.24,1.92-2.26,2.29-1.4-4.42-1.68-4.74-.8-.94-1.97-4.14-1.19-5.09.99-1.19,2.97-.47,1.78-1.45s-2.63-2.31-2.14-3.77c.43-1.29,2.17-1.78,2.61-3.07.51-1.45-.9-2.91-.9-4.45,0-2.05,2.33-3.18,4.28-3.82-1.61-1.19-1.46-4.05.26-5.07.69-.41,1.61-.61,1.96-1.33.53-1.08-.62-2.54.09-3.5.6-.81,2.01-.52,2.68-1.28,1.06-1.21-.98-3.01-.6-4.58.51-2.07,4.76-2.29,4.07-4.3"/>
    <path d="M848.94,178.5l-1.2-4.21-47.01-1.04h0c-17.22-1.99-38.09,8.11-48.74,19.63l-11.1,3.53.06-.2c-15.62-6.18-37.76-1.92-52.45,10.08l.91,1.64h0c.03.11.21.33.4.68l.81,1.42c5.03,9.07,10.63,18.59,14.08,20.57,2.32,1.34,8.6.63,13.69-.29,1.93-.33,3.67-.7,4.93-.97,1.5-.34,14.84-3.33,16.51-5.96,1.67-2.63,1.46-18.91,1.28-24.02l11.39-3.57c2.44,3.37,9.64,18.74,16.11,20.55,6.48,1.8,34.95-7.07,36.57-11.77,1.15-3.35,3.87-15.09,3.9-20.76l.62-7.45,39.23,2.14ZM738.09,222.2c-1.9,2.6-28.39,8.84-32.4,6.54-3.39-1.96-10.57-14.89-13.27-19.75l-.06-.21c13.34-9.89,33.28-13.76,46.8-8.62.14,8.87-.04,20.36-1.09,22v.05ZM801.47,204.29c-1,2.96-25.61,11.81-32.28,9.95-4.64-1.28-10.1-12.47-13.77-18.73,10.47-11.02,35.25-21.13,50.8-18.44-.34,9.01-1.67,19.85-4.75,27.22h0Z"/>
    <path d="M794.56,242.62c1.74.86,3.63,1.88,4.26,3.71.23.66.27,1.38.31,2.08.06,1.09.12,2.17.17,3.26.01.22.02.44-.08.64-.11.21-.33.34-.53.45-.66.37-1.34.75-2.1.8s-1.59-.32-1.83-1.04c-.1-.29-.09-.63-.29-.87-.38-.47-1.12-.2-1.72-.19-1.51.01-2.3-1.73-3.28-2.88-1.33-1.56-3.45-2.24-5.5-2.38-1.03-.07-2.09-.02-3.09-.29-1-.28-1.97-.97-2.2-1.98"/>
    <path d="M731.72,258.92c-1.06,1.62-2.16,3.47-1.78,5.37.14.69.47,1.32.79,1.94.5.96,1.01,1.93,1.51,2.89.1.19.21.39.39.51.2.13.45.12.69.12.75-.02,1.54-.04,2.21-.38s1.21-1.09,1.04-1.82c-.07-.3-.24-.59-.2-.9.09-.6.86-.74,1.38-1.04,1.31-.76,1.1-2.66,1.35-4.15.34-2.02,1.83-3.69,3.52-4.84.86-.59,1.79-1.08,2.51-1.83.72-.75,1.2-1.84.88-2.83"/>
    <path d="M792.71,240.39c-1.06-.93-2.57-1.3-3.94-.98-.64.15-1.32.44-1.92.18-.33-.14-.57-.43-.81-.69-.81-.85-1.78-.41-2.88,0-1.05.39-1.95.54-3.05.74-1.45.27-2.99-1.37-4.23-.59-.49.31-.73.91-1.21,1.23-.78.52-1.83.12-2.61-.39-.78-.51-1.46-.63-2.39-.55-.84.08-1.65.22-2.36.67s-2.95,2.2-3.49,1.54"/>
    <path d="M751.38,245.05c-1.83-.38-2.82,2.31-4.61,2.85-.71.22-1.58.1-2.1.64-.35.37-.41.95-.74,1.34-.75.89-2.15.32-3.29.09-.36-.07-.74-.1-1.07.05-.96.45-.74,1.92-1.4,2.74-.55.67-1.52.73-2.38.84-.86.11-1.85.5-2.01,1.35-.08.48.12,1.03-.17,1.42-.43.57-1.71.53-1.54,1.22"/>
    <path class="cls-4" d="M763.24,254.66c10.26-2.91,26.55-8.83,26.55-8.83,0,0,2.65,21.16-21.14,27.91-23.79,6.75-32.64-12.66-32.64-12.66,0,0,16.97-3.51,27.23-6.42Z"/>
    <path class="cls-21" d="M763.14,254.69c4.88-1.38,24.31-7.78,24.31-7.78,0,0-3.45,12.61-21.09,17.61-19.13,5.43-27.76-3.59-27.76-3.59l24.54-6.24Z"/>
    <path class="cls-6" d="M763.14,255.48c4.88-1.38,19.49-6.42,19.49-6.42,0,0-3.83,6.85-18.47,11-14.63,4.15-20.75.29-20.75.29l19.73-4.87Z"/>
    <path class="cls-4" d="M734.51,259.89c.48-.27,3.59-.14,5.95-1.03,3.94-1.49,6.16-3.27,9.03-4.32,4.89-1.8,8.62-.73,10.79-1.35,2.17-.62,4.79-3.48,9.89-4.52,2.99-.61,10.53-1.6,14.67-2.4,2.48-.48,5.05-2.23,5.61-2.25.77-.03.87,5.65-26.42,13.39-27.3,7.74-30.18,2.85-29.51,2.47Z"/>
    <path d="M761.93,243.7l2.27,4.56c.35.7,1.1,1.1,1.88.99,5.33-.72,25.57-3.53,30.2-4.9.11-.03.13,2.05.23,1.99l1.07-.38c1.64-.83-1.25-6.3-3.08-6.48-5.57-.55-10.45-.67-13.41-.54-3.7.16-13.86.93-18.05,2.16-1.1.32-1.63,1.56-1.11,2.59Z"/>
    <path d="M756.02,245.91l1.1,4.5c.05.78-.35,1.5-1.01,1.81-4.57,2.08-19.52,8.91-23.85,10.09-.1.03-.2.04-.3.05l-1.46.1c-1.7.12-1.79-3.74-.43-4.82,4.15-3.3,6.8-5.28,9.21-6.67,3.01-1.74,10.72-5.65,14.62-6.72,1.03-.28,2.04.52,2.12,1.66Z"/>
    <path class="cls-11" d="M1105.45,727.2l7.44,45c6.64,40.13,3.2,81.3-10.1,119.74-6.91,19.97-14.7,39.71-20.84,59.12l-32.89,189.7s-2.4,82.81,3.66,151.49c5.29,59.54-16.35,165.49-16.35,165.49l-20.33,3.28c-18.37,2.96-37.07,3.08-55.46.36l-39.49-5.86-26.61-352.12-20.8-215.75-33.6-130.33,265.37-30.13Z"/>
    <path class="cls-11" d="M800.98,747.79l14.21,381.26c-.5,16.6,5.59,31.88,10.62,112.03l10.06,136.61,3.31,59.36,11.44,2.37c15.7,3.71,31.82,5.24,47.92,4.54l35.25-.38-18.08-684.43-114.73-11.36Z"/>
    <path class="cls-22" d="M878.38,278.7l16.78,2.34c22.49,3.19,86.33,9.32,104.89,22.44,27.85,19.58-36.4,117.81-33.42,139.73,1.38,10.65,13.58,89.19,39.14,145.9,16.92,37.74,31.54,76.45,43.79,115.94l-61.66,26.07c-30.12,12.73-61.9,21.18-94.33,25.07l-85.99,9.26c-9.5-41.32-21.26-75.57-31.45-130.38l-44.22-174.9-7.44-81.45s12.75-19.16,13.52-23.58l38.6-40.85s-3.95,34.89,29.04,30.62c34.06-4.41,39.18-10.98,58.61-36.81,0,0,14.73-17.29,14.14-29.39Z"/>
    <path class="cls-22" d="M1004.57,416.71s59.01,140.32,75.08,178.78c16.08,38.46,30.01,114.41,33.94,140.82,3.93,26.42-65.32,47.88-121.89,57.51-56.57,9.63-180.87,30.08-194.54-38.74-5.87-29.53,47.13-322.76,47.13-322.76l160.28-15.61Z"/>
    <path class="cls-24" d="M867.98,857.68c16.99,13.97,23.11,37.2,24.8,58.23.51,6.3.66,12.63.65,18.95-.01,5.81-.31,11.62-.32,17.43,0,.83.03,1.66.04,2.48.1,5.6.19,11.21.29,16.81l.49,28.72c.2,11.98.41,23.97.61,35.95.22,12.88.44,25.76.66,38.64.21,12.13.41,24.26.62,36.39.17,9.89.34,19.78.51,29.67.1,6.03.21,12.05.31,18.08.03,1.51.03,3.01.15,4.51.31,3.8.61,7.59.92,11.39.59,7.36,1.18,14.71,1.77,22.07.81,10.03,1.61,20.07,2.42,30.1.95,11.79,1.9,23.58,2.84,35.37,1.02,12.71,2.04,25.41,3.06,38.12,1.02,12.75,2.05,25.5,3.07,38.25.96,11.96,1.92,23.92,2.88,35.88.82,10.25,1.65,20.5,2.47,30.75.61,7.64,1.23,15.29,1.84,22.93l1.01,12.6c.04.54.09,1.08.13,1.61s1.15.26,1.1-.3c-.18-2.25-.36-4.5-.54-6.75-.49-6.11-.98-12.22-1.47-18.32-.73-9.13-1.47-18.26-2.2-27.39-.9-11.26-1.81-22.51-2.71-33.77-1-12.46-2-24.93-3.01-37.39-1.03-12.88-2.07-25.75-3.1-38.63-.99-12.37-1.99-24.74-2.98-37.11-.88-10.95-1.76-21.91-2.64-32.86-.7-8.75-1.41-17.51-2.11-26.26l-1.34-16.7-.32-4.04c-.02-.26-.05-.52-.06-.78,0-.06,0,.1,0-.19-.08-3.79-.13-7.58-.19-11.37-.14-8.32-.28-16.64-.43-24.96-.19-11.37-.39-22.74-.58-34.11-.22-12.71-.43-25.43-.65-38.14-.22-12.6-.43-25.2-.65-37.8-.19-10.88-.37-21.75-.56-32.63-.13-7.56-.26-15.13-.39-22.69-.06-3.62-.16-7.24-.07-10.86.61-23.34.92-47.79-8.73-69.56-3.88-8.74-9.31-16.86-16.74-22.97-.4-.33-1.35.24-.85.66h0Z"/>
    <path class="cls-2" d="M879.4,279.05c-1.4,5.81-3.8,11.49-6.4,16.85-5.83,12.04-13.94,23.15-24.39,31.59-6.39,5.16-13.61,9.23-21.35,11.95-4.76,1.67-9.71,2.81-14.68,3.68-4.37.77-8.81,1.29-13.25,1.27-8.37-.04-18.51-2.36-21.65-11.19-.58-1.62-.91-3.53-.86-5.15.1-3.69.24-7.37.36-11.06.02-.65.04-1.29.06-1.94.02-.6-1.2-.12-1.39.11-2.75,3.12-5.49,6.24-8.24,9.36l-2.1,2.39c-.25.29-.71.64-.87.99-.14.29-.1.7-.11,1.02-.03.92-.01,1.85.04,2.77.42,6.77,3.02,13.88,8.25,18.43,4.32,3.75,10.39,5.25,15.93,5.98,8.14,1.07,16.49.48,24.55-.98,9.5-1.72,19.05-4.56,27.74-8.8,8.01-3.91,15.39-9.18,22.1-15.02,6.84-5.96,13.15-12.67,18.31-20.15,4.6-6.67,8.62-13.91,12.22-21.16.9-1.82,1.77-3.66,2.53-5.55.31-.76.79-1.66.89-2.48.01-.1.05-.19.08-.29.04-.17-.13-.24-.27-.26-5.44-.95-10.87-1.9-16.31-2.84-.42-.07-1.69.59-.9.73l16.31,2.84-.27-.26c-.36,1.63-1.14,3.24-1.82,4.75-2.72,6.09-6.06,11.92-9.47,17.64-4.55,7.65-9.83,14.61-16.11,20.92s-13.46,12.18-21.16,16.9c-8,4.91-16.81,8.24-25.88,10.59-8.55,2.22-17.45,3.5-26.3,3.14-6.16-.25-12.74-1.24-18.16-4.38-5.84-3.39-9.18-10-10.35-16.47-.39-2.14-.58-4.35-.48-6.53,0-.17-.01-.39.03-.56.05-.19-.08.13.03-.08.27-.47.8-.91,1.15-1.31,3.08-3.5,6.16-7.01,9.25-10.51l.74-.84-1.39.11c-.13,4.23-.24,8.47-.4,12.7-.06,1.41.07,2.8.4,4.18,2.02,8.23,10.17,11.88,17.95,12.74,8.88.97,17.98-.61,26.59-2.7,8.37-2.04,16.37-5.45,23.56-10.21,11.93-7.9,21.33-19.09,28.14-31.59,2.43-4.46,4.55-9.08,6.33-13.83.87-2.34,1.95-4.86,2.38-7.34.02-.11.06-.23.09-.34.11-.47-1.33-.25-1.44.2Z"/>
    <path class="cls-23" d="M856.28,192.25c.81-5.98,1.87-12.12,4.23-17.71.86-2.03,2.02-4.46,3.73-5.8.11-.09.23-.17.34-.25.18-.12-.02.08.11-.07.08-.09.36-.13.04-.03l-.69-.07c1.08.72,1.95,1.85,2.66,2.92,2.04,3.06,2.89,6.73,3.12,10.35.04.62,1.49.29,1.45-.39-.27-4.22-1.43-8.56-4.19-11.86-.66-.79-1.72-2.29-2.9-1.8-.87.36-1.61,1.14-2.19,1.85-1.54,1.86-2.57,4.13-3.42,6.37-2,5.32-3.01,10.99-3.77,16.6-.1.71,1.38.5,1.46-.12h0Z"/>
    <path class="cls-23" d="M859.29,193.3c3.09-.64,2.78,4.72,2.83,6.53.04,1.48-.31,6.19,2.24,5.97,1.25-.11,1.72-1.54,1.99-2.55.63-2.32.75-4.8.8-7.2.06-2.95-.16-5.47-1.03-8.28-1.03-3.32-2.81-7.13-6.48-8.05-.74-.19-1.44.87-.49,1.1,3.06.77,4.58,4.42,5.44,7.12.74,2.31,1.08,4.46,1.09,6.88s-.09,4.81-.51,7.16c-.14.76-.28,1.56-.62,2.26-.08.17-.38.49-.17.47.25-.02-.14-.28-.23-.43-.54-.87-.49-2.22-.53-3.19-.05-1.43-.04-2.86-.17-4.29-.24-2.71-1.28-5.23-4.45-4.56-.92.19-.62,1.24.28,1.05h0Z"/>
    <path class="cls-23" d="M744.52,175.34c-3.14,1.52-7.18.08-8.91-2.89-1.04-1.79-1.38-3.97-1.62-5.99-.26-2.24-.2-4.51.72-6.6.18-.4-1.25-.25-1.44.2-1.02,2.32-.99,4.88-.66,7.34.31,2.24.76,4.64,2.22,6.44,2.4,2.95,6.89,3.68,10.24,2.05.91-.44.07-.84-.56-.54h0Z"/>
    <path class="cls-22" d="M448.68,634.55l170.98-63.52,45.12-10.03-.11-1.53c7.11,3.86-11.43,10.37-5.5,15.87,14.97,13.87,39.07,17.22,45.44,36.55,2.5,7.6,10.47,25.25,11.45,33.23-4.54,7.21-27.78,16.04-30.1,16.83-14.54,4.92-26.08,5.3-61.51,13.45-39.7,9.13-163.16,15.63-163.16,15.63l-12.6-56.49Z"/>
    <path class="cls-22" d="M677.27,613.19c-4.88-17.86-14.84-25.07-27.71-38.34l54.63-165.49s7.54-38.18,37.86-56.55l41.02,193.95c-6.9,24.13-24.14,62.52-40.61,82.06-11.29,13.39-28.7,26.48-52.31,30.41,3.87-19.52-7.64-26.86-12.88-46.04Z"/>
    <path class="cls-1" d="M716.12,453.26c7.41,17.36,13.99,35.07,20.13,52.91,6.21,18.03,11.99,36.21,17.69,54.42,3.15,10.06,6.27,20.13,9.44,30.19.13.4,1.57,0,1.45-.39-5.67-18.02-11.21-36.08-17-54.07-5.83-18.15-11.9-36.23-18.57-54.09-3.69-9.87-7.56-19.67-11.7-29.35-.17-.41-1.59.05-1.45.39h0Z"/>
    <path class="cls-1" d="M654.91,564.14c5.58,2.96,11.67,5.9,16.19,10.42,3.61,3.61,5.34,8.23,6.33,13.16.8,3.99,1.22,8.05,1.63,12.1.06.62,1.52.27,1.45-.39-.64-6.35-1.11-13.17-3.72-19.09-2.06-4.68-5.72-8.03-9.92-10.8-3.47-2.29-7.16-4.25-10.84-6.19-.52-.28-1.81.44-1.13.8h0Z"/>
  </g>
  <g id="Layer_2" data-name="Layer 2">
    <path class="cls-14" d="M506.42,1097.85c1.67-5.04,1.19,13.93,3.29,9.09,4.75-10.95,10.47-21.42,16.86-31.39,6.56-10.25,13.87-19.98,21.88-29,5.44-6.13,11.23-11.95,17.37-17.31-97.89-42.22-327.85-82.12-327.85-82.12,0,0-75.14,39.7-50.34,123.99,7.43,25.25,30.64,26.08,63.34,31.18,77.47,12.09,194.21,18.54,252.61,12.44.39-.04,2.45-16.84,2.84-16.89Z"/>
    <path class="cls-14" d="M507.12,1117.22c2.26-4.58,4.75-9.03,7.4-13.35,5.99-9.77,12.84-18.93,20.26-27.52,7.63-8.83,15.9-17.05,24.75-24.49,6.01-5.06-12.11-21.15-5.53-25.36,24.67-73.61-337.11-66.31-337.11-66.31,0,0-34.85-16.27-35.52,76.88-.63,87.52,245.76,64.55,325.78,68.54.38.02-.4,11.59-.02,11.61Z"/>
    <path class="cls-14" d="M593.54,1108.81c-21.35,61.04-68.52,233.7-97.94,307.51,0,0-80.89,4.11-86.98-14.5,0,0-1.76-413.45,47.82-420.13,36.55-4.92,98.74,8.31,117.61,23.83,22.65,18.62,36.31,55.2,19.5,103.28Z"/>
    <path class="cls-10" d="M364.08,562.28s-5.11,49.91-13.86,65.67c-2.12,3.82-29.72,11.66-29.72,11.66l94.19,68.31,58.84-34.43s-36.72-24.93-37.39-30.04c-.67-5.11,6.73-41.63,6.73-41.63"/>
    <path class="cls-7" d="M463.19,974c-22.86,0-47.98-2.6-70.84-2.89-20.63-.26-41.1.91-61.71,0-19.85-.89-39.64,1.48-59.48.53-10.67-.51-21.5-.67-32.3-.14-14.72-1.63-19.27-1.3-29.82.22-2.95.43-12.2-1.88-15.42-1.09.49-5.96,1.22-23.99,1.39-29.98.71-25.81,21.59-54.02,29.66-85.83l9.97-62.53-25.53-20.12c16.9-55.37,16.61-77.7,32.45-102.07,6.34-9.75,33.91-23.35,45.58-26.74,30.4-8.8,57.49-16.16,57.49-16.16,0,0,24.59,46.82,69.13,46.3,44.54-.53,26.49-26.74,26.49-26.74l12.84,6.3c19.08,10.68,33.13,20.66,46.51,38.06,11.39,14.8,23.78,27.97,25.15,45.86,1.05,13.82,4.66,13.65,7.68,38.62.41,3.41,8.26,46.42,8.17,47.06-.29,2.06-16.71,33.31-37.04,36.79-10.29,1.76-8.22,1.82-12.81,3.19-.64.93-12.56-17.4-12.71-16.03-2.65,23.86-14.48,98.08-16.58,121.98-.01.17,1.95-1.1,1.73,5.41Z"/>
    <path class="cls-2" d="M504.7,765.61c-1.57,12.51-3.31,24.99-5.14,37.47-2.06,14.05-4.24,28.08-6.68,42.06-1.03,5.9-2.02,11.83-3.17,17.71-.09.44.61.45.85.38,2.8-.73,5.59-1.55,8.35-2.42,4.51-1.42,9.18-2.87,13.32-5.2,1.11-.63,2.33-1.31,3.08-2.38,1.32-1.91,2.55-3.89,3.82-5.83,1.23-1.87,2.45-3.74,3.68-5.62.41-.63-.89-.54-1.16-.35-2.57,1.85-5.43,3.35-8.29,4.67-6.23,2.88-13.02,4.8-19.93,4.73-.64,0-1.5.96-.52.97,7.09.08,14.05-1.77,20.49-4.67,3.17-1.43,6.36-3.08,9.19-5.12l-1.16-.35c-2.35,3.6-4.71,7.19-7.06,10.79-.15.23-.3.47-.45.69-.18.26,0,.03-.06.09-.45.49-1.03.87-1.59,1.22-3.77,2.38-8.23,3.73-12.43,5.09-3.14,1.01-6.31,1.96-9.51,2.79l.85.38c2.32-11.86,4.26-23.81,6.17-35.74,2.23-13.94,4.29-27.91,6.22-41.89.9-6.53,1.77-13.06,2.59-19.6.09-.68-1.39-.46-1.46.14h0Z"/>
    <path class="cls-10" d="M361.59,642.84c24.32,16.61,53.93,20.33,78.8,5.05-5.33-3.95-4.24-9.36-4.38-10.67-.53-4.89,5.1-36.8,5.1-36.8l-78.36-40.23s-2.41,51.25-11.26,66.01c-.47.79-3.84,4.1-6.21,5.54,4.25,5.01,10.82,7.36,16.31,11.11Z"/>
    <path class="cls-26" d="M457.34,606.97c-3.35,4.23-6.49,8.65-10.01,12.73-.05.06-.08.13-.11.19-.23-.22-.56-.29-.84.02-2.46,2.73-4.61,3.74-6.84,6.69-1.92,2.55-2.41,6.75-2.93,10.03-2.26.12-6.34-.7-9.16-.82-18.9-2.45-18.99-5.04-42.41-24.24-7.43-6.09-5.14-12.37-6.54-13.76,26.04,2.17,51.69,6.15,78.84,9.18Z"/>
    <path d="M346.05,527.24s-2.53-12.81-3.93-42.9c-1.26-26.94,42.87-44.2,68.45-45.34,14.06-.63,59.66,10.35,70.98,17.32,11.32,6.97,15.77,23.86,14.6,47.22,0,0-4.74-23.86-19.51-24.96-12.05-.89-50.05-11.17-60.66-7.98-10.61,3.19-33.95,9.79-38.98,46.08-1.37,9.89-17.82-2.53-23.33,2.91-5.51,5.44-7.62,7.65-7.62,7.65Z"/>
    <path class="cls-10" d="M361.29,572.02l.02-36.22,2.73-40.22,19.09-28.59,30.04-10.62,32.22,4.67s25.18,9.33,33.11,12.42c7.93,3.09,12.56,13.72,16.84,25.51,4.28,11.79-.19,30.07-.19,30.07.16.67-.87,3.42-1.06,3.99-2.46,7.27-3.7,13.72-5.66,19.13-.92,2.57-1.19,5.02-.67,7.58,2.03,10.06,1.51,14.21.05,20.06-1.99,7.98-4.27,14.72-7.97,20.76-3.93,6.41-8.74,13.26-9.71,14.6,0,0-10.61,14.15-12.71,15.42-2.1,1.27-5.14,2.32-6.51,2.32-1.37,0-19.29-.89-19.29-.89l-8.24-1.14c-2.8-.39-5.5-1.33-7.93-2.77-6.6-3.9-25.39-15.44-30.39-19.87-6.72-5.96-12.99-28.28-12.99-28.28"/>
    <path d="M373.08,538.38c-.21,3.11-1.73,15.38-1.74,18.43l-15.94-2.21c-3.56-11.16-7.86-24.31-9.35-27.37-2.33-4.77-.23-26.35.56-34.46l.17-1.75c.74-7.79,9.63-19.24,23.78-30.64,15.58-12.55,41.18-17.68,65.23-13.09,2.28.44,4.56.96,6.74,1.55,20.69,5.61,36.94,18.2,48.29,37.42,8.18,13.86,7.11,28.45,5.24,37.21,1.49-17.54-3.18-30.57-3.38-31.11-4.39-12.57-11.38-16.85-16.46-18.23-4.44-1.2-7.97-.39-8.67-.21-5.26.54-12.67-1.05-17.98-2.49-3.96-1.07-7.07-2.15-7.91-2.44-2.49-2.21-6.4-4.08-11.31-5.41-11.41-3.09-28.48-3.05-32.56,1.65-4.52,5.21-15.6,24.37-16.22,29.08"/>
    <path class="cls-10" d="M362.72,573c-10.55,8.36-14.4-10.72-14.4-10.72-7.57-12.02-6.03-23.54-4.66-31.38,1.37-7.84,10.03-6.57,10.03-6.57,7.26,1.78,10.02,6.17,12.88,31.83"/>
    <path d="M491.34,483.41c-4.27-9.32-13.32-21.49-18.21-30.51-2.8-.63-16.78-2.75-19.7-3.24-29.84-5.07-72.34,7.02-77.6,17.44-3.28,6.5-6.42,43.78-5.55,47.31,2.4,9.71,2.26,22.01,2.26,22.01,3.02-13.75,14.95-27.97,16.81-32.58,1.86-4.61-1.61-28.05.06-28.8,1.66-.76,30.13-5.63,60.66-1.22,9,1.3,17.94,3.25,25.84,5.35-.05-.1,15.47,4.34,15.43,4.24Z"/>
    <path d="M465.87,542.66s5.93,8.69,11.19,10.19c7.67,2.19,10.01.81,13.45-2.25,0,0-5.82,2.77-11.18,1.08-5.13-1.62-13.46-9.03-13.46-9.03Z"/>
    <path d="M439.19,540.1s-12.33,4.63-17.71,3.66c-7.85-1.41-16.21-7.94-17.96-12.2,0,0,10.87,9.32,16.43,10.16,5.31.81,19.24-1.62,19.24-1.62Z"/>
    <path d="M439.53,508.22c.34,1.87.67,3.74,1.01,5.61.25,1.43.94,4.66,1.18,6.09-4.77-.37-9.2-1.43-12.24-1.4-6.02.04-12.26-.32-18,1.66-2.75.95-5.1,2.12-7.2,3.99-.66.59-2.31,2.92-3.52,2.62-.49-.12-.16-2.56-.13-2.81.69-4.91,4.32-7.56,9-9.55,9.53-4.06,19.57-5.64,29.9-6.21"/>
    <path d="M496.77,529.89s-2.41-2.15-2.43-2.17c-6.74-6.06-14.7-9.89-23.21-12.84-.87,1.68-1.74,3.37-2.61,5.07-.66,1.29-1.94,3.58-2.59,4.86,4.13.76,7.88,1.07,10.43,1.8,5.06,1.44,10.41,2.91,14.62,6.12.33.25,3.2,2.03,3.52,2.29,2.68-1.57,2.74-4.43,2.28-5.13Z"/>
    <g>
      <path class="cls-3" d="M453.57,577.22c-2.48.92-5.97.14-8.09-1.66-.47-.4-2.24-.32-1.58.24,2.81,2.37,7.84,3.26,11.04,2.07.32-.12.3-.36-.06-.54-.37-.19-.98-.24-1.32-.12"/>
      <path class="cls-3" d="M443,574.99c-1.45-.97-3.14-1.6-4.86-1.98-.25-.05-.59,0-.81.14-.17.11-.22.29-.04.43.74.58,1.73.92,2.67,1.03.3.04.7.01.9-.22.19-.22-.08-.41-.31-.44-.78-.09-1.55-.36-2.15-.84-.29.19-.57.38-.85.57,1.54.34,3.04.92,4.34,1.79.26.17.67.14.94.02.2-.09.44-.32.18-.5"/>
      <path class="cls-3" d="M436.06,574.25c-2.03-.33-4.29-1.57-5.08-3.28-1.18-2.57.74-6.1,3.49-7.26.3-.13.18-.36-.09-.46-.35-.13-.8-.05-1.12.08-2.4,1.01-4.25,3.86-4.23,6.13.02,2.12,1.77,3.83,4.12,4.77.7.28,1.45.51,2.21.63.31.05.87.03,1.06-.19.19-.23-.08-.38-.37-.42"/>
      <path class="cls-3" d="M457.44,576.68c-.08-.26.15-.38.31-.36.55.09,1.13.01,1.65-.31.15.25.3.5.44.75-1.12-.03-2.27.19-3.35.72-.21.11-.48-.02-.64-.19-.12-.13-.22-.41,0-.52"/>
      <path class="cls-3" d="M455.86,576.77c1.2-.6,2.49-.82,3.74-.79.18,0,.4.14.51.33.09.15.08.33-.07.42"/>
      <path class="cls-3" d="M461.63,577.55c1.33.13,3.01-.56,3.88-2.03,1.31-2.23.78-5.16-.66-6.9-.16-.19-.03-.39.16-.42.25-.05.51.13.67.33,1.26,1.52,1.89,3.79,1.37,5.97-.49,2.04-1.96,3.32-3.62,3.7-.5.11-1.01.16-1.51.12-.2-.02-.55-.16-.61-.43-.06-.26.13-.35.32-.33"/>
    </g>
    <path class="cls-6" d="M444.1,591.26c-4.52-.69-18.16-2.4-18.16-2.4,0,0,4.16,4.88,17.71,6.94,13.56,2.06,18.63-1.26,18.63-1.26l-18.18-3.28Z"/>
    <path class="cls-2" d="M343.17,627.62c2.28,5.4,5.54,10.5,8.94,15.24,7.39,10.29,16.81,19.33,28.01,25.36,6.78,3.65,14.14,6.13,21.75,7.3,8.15,1.25,16.86,1.55,25,0,7.62-1.44,15.86-5.37,17.74-13.6.39-1.71.5-3.56.23-5.3-.08-.49-.25-.88-.44-1.34-1-2.45-1.99-4.91-2.99-7.36-.25-.61-.5-1.23-.75-1.84l-1.29.58,9.62,5.16c1.37.73,2.85,1.38,4.15,2.23.24.16-.07-.22-.03-.07.05.17.06.35.09.52.12.8.21,1.6.27,2.4.49,6.54-.65,13.79-4.76,19.09-3.18,4.1-8.44,6.34-13.27,7.77-7.17,2.11-14.77,2.66-22.21,2.35-8.55-.36-17.33-1.72-25.42-4.58-7.58-2.68-14.72-6.64-21.32-11.21s-12.87-9.93-18.13-16.08c-4.56-5.34-8.78-11.05-12.94-16.71-.96-1.3-1.9-2.61-2.81-3.95-.32-.47-.65-1.27-1.08-1.64-.04-.04-.07-.12-.1-.17l-.55.73c4.38-1.55,8.76-3.09,13.14-4.64.84-.3.64-1.16-.23-.85-4.38,1.55-8.76,3.09-13.14,4.64-.3.11-.77.34-.55.73.75,1.33,1.69,2.56,2.57,3.8,3.78,5.29,7.79,10.42,11.81,15.53,10.12,12.86,24.02,23.27,39.18,29.46,8.05,3.29,16.78,4.97,25.43,5.67,7.82.63,15.8.36,23.46-1.39,5.45-1.24,11.09-3.27,15.35-7.01,4.9-4.3,6.85-11.21,7.11-17.53.09-2.2,0-4.43-.32-6.61-.15-1.02-.55-1.07-1.45-1.56-3.91-2.09-7.81-4.19-11.72-6.28l-.99-.53c-.31-.16-1.52.02-1.29.58.76,1.87,1.52,3.74,2.28,5.61.59,1.46,1.4,2.96,1.82,4.48.31,1.12.25,2.45.14,3.6-.67,7.24-6.56,11.73-13.16,13.65-7.4,2.16-15.4,2.01-23,1.35-7.9-.69-15.61-2.67-22.78-6.06-11.62-5.48-21.45-14.21-29.22-24.36-2.73-3.56-5.22-7.3-7.44-11.19-1.13-1.98-2.07-4.03-3.11-6.04-.05-.09-.08-.19-.12-.28-.24-.57-1.67-.14-1.45.39Z"/>
    <path class="cls-23" d="M360.86,550.65c-.6-3.88-1.36-7.78-2.7-11.48-.67-1.85-1.49-3.74-2.72-5.3-.47-.6-1.04-1.24-1.74-1.57-.92-.45-1.66.39-2.25,1.02-2.37,2.58-3.32,6.17-3.47,9.6-.03.73,1.44.5,1.46-.12.15-3.32,1.15-7.85,4.03-9.84l-.9.16c.1.03.1.08,0,0,.09.08.24.13.34.2.46.31.8.69,1.16,1.15,1.73,2.18,2.68,4.98,3.44,7.62.85,2.93,1.43,5.94,1.89,8.96.1.64,1.55.28,1.45-.39h0Z"/>
    <path class="cls-23" d="M357.69,550.69c-4.92-.93-3.18,6.3-3.85,8.9-.05.2-.42.8-.06.57.28-.18.12.08.03-.24-.07-.23-.22-.46-.29-.7-.51-1.57-.64-3.3-.72-4.94-.1-2.06-.07-3.89.44-5.88.55-2.15,1.58-5.36,4-6.02.9-.24.62-1.29-.28-1.05-2.49.67-3.86,3.07-4.66,5.35-.63,1.79-1.03,3.63-1.03,5.53,0,1.99.09,4.01.45,5.97.17.91.37,2.4,1.28,2.91.8.45,1.72-.14,2.09-.88.41-.83.39-1.86.4-2.76.02-1.3-.04-2.63.16-3.92.15-.98.4-1.96,1.56-1.74.75.14,1.45-.92.49-1.1h0Z"/>
    <path class="cls-23" d="M448.9,522.16c2.57-.68,4.62-2.49,5.73-4.9,1.38-3,1.11-6.47.44-9.61-.07-.33-1.53.02-1.45.39.6,2.85.89,5.91-.11,8.71-.78,2.16-2.43,4.32-4.74,4.93-.14.04-.72.2-.66.44s.67.08.79.05h0Z"/>
    <path class="cls-21" d="M447.42,588.68c-6.76-1.02-22.39,1.51-25.84,4.09,0,0,5.2,10.74,20.87,13.1,15.67,2.36,20.77-6.83,20.77-6.83,0,0-7.2-9.06-15.8-10.36Z"/>
    <path class="cls-15" d="M428.45,590.36s8.69.54,15.53,1.57c6.84,1.03,15.3,3.07,15.3,3.07,0,0,1.93-5.38-10.47-7.25-12.4-1.87-20.36,2.6-20.36,2.6Z"/>
    <path class="cls-4" d="M444.86,603.49c-7.15-2.31-14.64-10.06-23.29-10.73,0,0,1.15,15.19,19.57,17.96,18.42,2.77,22.07-11.69,22.07-11.69-8.46-1.9-10.84,4.35-18.36,4.46Z"/>
    <path class="cls-4" d="M456.06,585.65c-3.82-.91-6.53.41-8.21.16-1.68-.25-3.88-2.32-7.8-2.57-3.67-.24-20.55,7.71-19.03,9.3,1.51,1.59,14.53-4.15,26.18-2.4,11.65,1.75,14.68,9.91,16.6,8.84,1.92-1.07-4.16-12.48-7.74-13.33Z"/>
    <path class="cls-7" d="M234.73,694.46s-26.97,78.59-33.98,105.8c0,0,36.35,21.22,77.08,23.94,43.17,2.88,19.8-93.39,19.8-93.39l-62.91-36.36Z"/>
    <path class="cls-2" d="M502.96,751.63c-.8,5.98-1.69,11.96-2.58,17.93-1.19,7.9-2.41,15.79-3.66,23.68-1.37,8.66-2.77,17.31-4.2,25.96-1.37,8.25-2.76,16.5-4.2,24.74-1.23,7.02-2.48,14.03-3.86,21.03-.25,1.28-.51,2.57-.77,3.85-.03.15.14.23.25.26,1.87.44,3.82.61,5.73.67,4.01.13,7.95-.48,11.66-2.02,1.39-.58,2.78-1.24,3.99-2.15.56-.42,1.12-.93,1.46-1.56.12-.22.17-.43.2-.66.02-.14-.01.07.02-.09.02-.11.04-.21.05-.32l.21-1.2c.34-1.97.68-3.93,1.02-5.9.06-.35-.56-.3-.69-.1-.6.95-1.55,1.74-2.44,2.42-2.61,1.98-5.78,3.14-8.97,3.79-2.87.59-5.81.76-8.74.69-.43-.01-.55.56-.06.57,4.74.11,9.59-.41,13.99-2.26,2.23-.94,4.38-2.24,6.05-4.01.28-.3.56-.61.78-.95l-.69-.1c-.28,1.59-.55,3.19-.83,4.78l-.42,2.46c-.01.08-.07.4-.05.28,0,.05-.02.19-.02.16-.14.45-.46.82-.79,1.14-.87.83-1.96,1.42-3.03,1.93-3.61,1.74-7.47,2.54-11.47,2.56-2.24,0-4.55-.16-6.73-.68l.25.26c1.52-7.35,2.84-14.74,4.15-22.13,1.43-8.11,2.81-16.23,4.17-24.35,1.44-8.66,2.85-17.32,4.23-25.99,1.28-8.04,2.54-16.09,3.76-24.14.95-6.26,1.88-12.53,2.74-18.81.08-.58.16-1.16.24-1.74.05-.39-.7-.3-.75.05h0Z"/>
    <g>
      <path class="cls-7" d="M276.54,664.57s37,8.01,31.55,71.37c-5.45,63.36-14.27,88.93-14.27,88.93,0,0-26.15,2.76-49-4.63-22.85-7.39-44.35-17.65-44.35-17.65l1.99-11.63s33.8,15.92,57.11,20.23c23.32,4.31,32.76,3.4,32.76,3.4"/>
      <path class="cls-2" d="M276.32,664.79c1.09.24,2.16.65,3.19,1.08,2.75,1.14,5.33,2.67,7.72,4.44,3.58,2.66,6.69,5.91,9.3,9.52,3.57,4.95,6.17,10.55,7.98,16.37,2.51,8.06,3.56,16.54,3.73,24.97.11,5.49-.18,10.96-.66,16.42-.54,6.17-1.15,12.34-1.82,18.49-1.09,9.93-2.38,19.85-3.93,29.72-1.11,7.03-2.35,14.04-3.81,21.01-.89,4.25-1.86,8.5-2.98,12.7-.31,1.18-.64,2.36-.99,3.53-.17.56-.39,1.12-.52,1.69-.02.07-.04.13-.07.2l.41-.27c-4.55.48-9.17.54-13.73.49-9.94-.11-19.94-1.1-29.59-3.54-5.59-1.41-11.05-3.38-16.46-5.36-5.14-1.87-10.23-3.86-15.29-5.94-5.89-2.42-11.75-4.95-17.52-7.66-.11-.05-.34-.22-.46-.22-.14,0,.17-.19.04.13.03-.06.02-.14.04-.21.28-.94.35-2.01.51-2.98.45-2.63.9-5.26,1.35-7.89l.09-.54-.66.23c2.96,1.39,5.96,2.71,8.97,4.01,6.91,2.98,13.89,5.79,20.96,8.35,7.95,2.88,16.04,5.52,24.32,7.32,4.79,1.04,9.66,1.81,14.52,2.49,3.81.54,7.64.99,11.48,1.28,2.29.17,4.58.3,6.88.31.95,0,1.93.04,2.88-.07.04,0,.08,0,.11,0,.39-.04.59-.52.08-.47-2.54.24-5.17.06-7.71-.09-8.48-.51-16.93-1.79-25.26-3.36-8.17-1.55-16.15-4.06-23.99-6.81-7.36-2.58-14.62-5.45-21.8-8.5-3.6-1.53-7.14-3.18-10.72-4.75-.05-.02-.1-.05-.15-.07-.19-.09-.62-.03-.66.23-.58,3.39-1.16,6.78-1.74,10.17-.08.49-.17.98-.25,1.46-.01.06.03.13.08.16,3.1,1.48,6.25,2.87,9.4,4.24,7.46,3.25,15.01,6.32,22.65,9.14,4.51,1.66,9.04,3.29,13.64,4.69,4.23,1.29,8.56,2.25,12.92,2.97,7.66,1.27,15.45,1.8,23.22,1.78,3.86,0,7.77-.05,11.61-.49.05,0,.11-.01.16-.02.17-.02.35-.1.41-.27.4-1.16.73-2.35,1.06-3.53,1.02-3.62,1.9-7.28,2.71-10.95,1.4-6.31,2.61-12.67,3.69-19.05,1.57-9.3,2.88-18.65,4.01-28.02.69-5.77,1.32-11.54,1.88-17.33.59-6.04,1.21-12.09,1.4-18.15.29-9.03-.28-18.16-2.37-26.98-1.52-6.39-3.86-12.61-7.3-18.22-2.51-4.09-5.61-7.84-9.27-10.95-2.55-2.17-5.37-4.06-8.39-5.5-1.48-.71-3.03-1.36-4.63-1.76-.07-.02-.14-.04-.21-.05-.27-.06-.87.35-.44.45h0Z"/>
    </g>
    <path class="cls-10" d="M471.77,620.13c-1.8,6.33,4.35,23.37,4.35,23.37,0,0-12.3,39.9-12.49,48.57-.05,2.14,8.16,10.34,9.42,16.43,3.84,18.58,2.87,37.03,2.87,37.03l37.05-16.68-3.91-24.74,12.22-40.97,7.35-39.98-18.1-29.81c-.23.06-.45.15-.67.25-1.95.95-2.77,3.31-1.81,5.26l-7.33-10.49c-8.03,3.24-1.88,19.33-1.88,19.33l-8.43-14.37c-7.32,4.25-3.02,15.7-3.02,15.7l7.08,20.57s-2.37,12.43-4.3,16.27c-1.94,3.84-3.62,7.98-3.62,7.98l.55-14.29-9.88-27.59s-3.63,1.82-5.44,8.15Z"/>
    <path class="cls-19" d="M505.81,645.23c1.02-4.21,2.32-10,3.66-16.44l.37-1.78.07-.27-.14-.26c-2.84-5.47-5.46-10.35-7.41-13.76-1.96-3.41-3.23-5.52-3.42-5.41.58,2.06,1.4,4.05,2.44,5.92,1.63,3.57,4.13,8.53,6.94,14.01l-.07-.54c-.06.58-.21,1.17-.37,1.76-1.34,6.45-2.48,12.29-3.2,16.54-.72,4.25-1.06,6.89-.85,6.95.22.04.96-2.51,1.97-6.72Z"/>
    <path class="cls-19" d="M518.14,635.94c.95-3.84,2.18-9.22,3.47-15.24l.08-.3-.17-.27-.99-1.68c-3.39-5.68-6.54-10.78-8.88-14.44-2.34-3.66-3.9-5.85-4.09-5.74s1,2.53,3.09,6.33c2.1,3.8,5.15,8.94,8.48,14.67l1.01,1.69-.1-.59c-1.27,6.13-2.29,11.47-2.95,15.38-.51,2.08-.77,4.21-.78,6.36.22.04.89-2.32,1.84-6.16Z"/>
    <path class="cls-10" d="M480.28,707.26c4.23-.54,8.13-1.7,12.01-3.1,5.75-2.07,9.25-7.68,15.93-7.98l27.06,99.98c6.49,18.33,6.29,37.38,6.6,47.8.33,10.84-4.14,33.78-10.8,41.21-6.67,7.43-30.62,7.6-38.65,4.06-8.03-3.54-9.35-7-9.35-7,0,0-11.11-3.96-13.39-61.15l4.59-111.92c1.34-.07,4.68-1.73,6-1.9Z"/>
    <path class="cls-25" d="M394.96,574.66s.38,3.38,0,4.02-2.18.47-1.6-1.26,1.6-2.76,1.6-2.76Z"/>
    <path class="cls-10" d="M413.09,604.36c-.79,6.53-13.07,19.86-13.07,19.86,0,0-4.11,41.56-7.29,49.61-.79,1.99-11.53,6.37-15.05,11.5-10.73,15.64-16.99,33.02-16.99,33.02l-27.52-33.09,13.01-17.94,4.61-42.5,8.71-39.71,28.23-20.47c.19.15.36.31.52.49,1.43,1.64,1.27,4.12-.37,5.56l10.82-6.83c6.15,6.1-5.75,18.55-5.75,18.55l13.34-9.98c5.1,6.76-3.29,15.65-3.29,15.65l-14.5,16.22s-2.63,12.38-2.33,16.66c.3,4.29.24,8.76.24,8.76l5.03-13.38,19.79-21.6s2.64,3.08,1.86,9.62Z"/>
    <path class="cls-19" d="M396.85,659.42c1.79-4.63,2.25-9.87,2.79-14.76.6-5.41,1-10.83,1.31-16.26.05-.83.09-1.66.13-2.5.02-.42.15-1,.07-1.42-.08-.37-.25.07.05-.16.47-.37.86-.96,1.25-1.41,3.57-4.1,7.09-8.42,9.73-13.19,1.59-2.87,2.37-5.61,2.15-8.94-.14-2.08-.63-4.6-2.03-6.26-.31-.36-.99-.18-1.27.12-4.11,4.48-8.21,8.97-12.32,13.45-2.21,2.41-4.42,4.82-6.62,7.23-.31.34-.72.68-.95,1.09-.56.97-.84,2.25-1.24,3.3-1.26,3.35-2.52,6.7-3.78,10.05h1.42c.04-3.14-.23-6.26-.26-9.4-.03-2.71.45-5.47.88-8.14.38-2.36.82-4.7,1.3-7.04.05-.24.11-.48.15-.72.05-.31-.16.2-.06.08.25-.33.56-.62.83-.93,4.66-5.22,9.44-10.36,14-15.67,3.61-4.21,6.68-10.64,2.99-15.73-.24-.33-.87-.19-1.14,0-4.45,3.33-8.89,6.65-13.34,9.98l1.07.49c2.08-2.19,3.93-4.7,5.4-7.34,1.96-3.52,3.64-8.4.42-11.72-.3-.31-.81-.2-1.14,0-3.61,2.28-7.21,4.55-10.82,6.83l1.07.49c2-1.91,1.88-4.84-.19-6.64-.26-.23-.8-.07-1.04.1-7.86,5.7-15.73,11.4-23.59,17.11-1.41,1.02-2.82,2.04-4.23,3.07-.57.41-1.03.85-1.44,1.43-1.95,2.77-2.82,6.39-3.54,9.64-.88,3.98-1.54,8.02-2.24,12.04-1.15,6.58-2.25,13.17-3.3,19.76-.11.69,1.37.49,1.46-.13.86-5.4,1.76-10.79,2.68-16.17.69-4.01,1.39-8.02,2.14-12.02.75-3.96,1.5-8.1,3.39-11.71,1.13-2.14,2.9-3.05,4.98-4.56,4.73-3.43,9.47-6.86,14.2-10.3,3.47-2.52,6.95-5.04,10.42-7.56l-1.04.1c1.7,1.48,1.72,3.91.11,5.45-.65.63.7.73,1.07.49,3.61-2.28,7.21-4.55,10.82-6.83h-1.14c3.16,3.27,1.23,8.05-.72,11.42-1.38,2.38-3.07,4.65-4.97,6.64-.6.63.68.79,1.07.49,4.45-3.33,8.89-6.65,13.34-9.98h-1.14c5.29,7.3-3.29,15.22-7.87,20.35l-8.76,9.81c-.47.53-1.07,1.01-1.27,1.7-.53,1.87-.77,3.88-1.11,5.8-.54,3.06-1.09,6.17-1.19,9.27-.11,3.37.29,6.76.25,10.13,0,.68,1.24.49,1.42,0,1.07-2.85,2.14-5.69,3.21-8.54.55-1.46,1.13-2.92,1.65-4.39.07-.19.23-.54.11-.36.13-.19.33-.36.49-.53,4.77-5.21,9.55-10.42,14.32-15.63,1.65-1.8,3.31-3.61,4.96-5.41l-1.27.12c1.12,1.34,1.59,3.32,1.81,4.99.41,3.11-.12,5.88-1.54,8.63-2.51,4.86-6.08,9.22-9.64,13.35-.54.63-1.65,1.46-1.91,2.28s-.09,2.03-.14,2.88c-.27,5.02-.62,10.04-1.12,15.05-.32,3.23-.7,6.46-1.23,9.66-.4,2.45-.84,4.97-1.74,7.3-.29.75,1.16.7,1.38.13h0Z"/>
    <path class="cls-19" d="M371.99,614.32c.69-4.27,1.73-10.12,3-16.57l.34-1.78.04-.28.23-.19c4.73-3.94,9.04-7.43,12.16-9.81,3.13-2.39,5.11-3.84,5.25-3.67-1.33,1.68-2.85,3.19-4.54,4.51-2.88,2.66-7.11,6.26-11.83,10.22l.27-.47c-.17.56-.26,1.16-.34,1.77-1.27,6.46-2.48,12.29-3.46,16.49-.98,4.2-1.69,6.77-1.91,6.74-.21-.05.09-2.68.78-6.96Z"/>
    <path class="cls-19" d="M364.22,600.97c.61-3.91,1.56-9.34,2.71-15.4l.04-.31.26-.18,1.57-1.17c5.33-3.92,10.2-7.41,13.78-9.87,3.58-2.47,5.86-3.88,5.99-3.7s-1.9,1.94-5.3,4.64c-3.41,2.69-8.21,6.25-13.5,10.24l-1.58,1.17.32-.51c-1.21,6.14-2.33,11.46-3.23,15.32-.33,2.12-.92,4.18-1.75,6.16-.21-.05.08-2.48.69-6.39Z"/>
    <path class="cls-10" d="M347.08,669.98c-2.13-1.18,2.6-3.84.91-5.59l-52.55,67.21-46.82,63.78-.23-.13c-1.04,1.4-2.1,2.78-3.12,4.18-2.58,3.54-5.29,7.36-6.28,11.69-.17.73-1.33,4.5-2.04,4.47-9.4-.45-26.88-7.51-26.88-7.51-2.17,15.96-2.34,32.85,4.57,45.19,21.61,38.69,58.2,32.24,92.53-12.24,15.4-19.96,52.03-113.1,70.52-155.71-11.54-1.94-20.24-9.62-30.61-15.35Z"/>
    <path class="cls-16" d="M248,795.17c-8.46,10.28-14.36,22.49-17.16,35.51-.16.72,1.33.55,1.47-.1,2.75-12.81,8.58-24.85,16.91-34.96.59-.71-.79-.97-1.22-.44h0Z"/>
    <path class="cls-22" d="M1082.47,559.46c10.88-.87,11.45-2.92,22.34-3.31-.64-7.18-1.5-13.91-2.68-20.48-5.02-27.98-37.32-164.31-59.92-204.17-16.3-44.36-143.66-50.41-143.66-50.41l78.39,156.94,31.67,126.53c18.83.85,55.07-3.6,73.86-5.11Z"/>
    <path class="cls-5" d="M1008.58,576.37c-1.73.95-3.45,1.89-5.18,2.84-4.65,2.55-9.3,5.1-13.95,7.64-6.93,3.8-13.85,7.59-20.78,11.39-8.42,4.61-16.84,9.23-25.26,13.84-9.22,5.05-18.44,10.11-27.66,15.16-9.31,5.1-18.61,10.2-27.92,15.3-8.68,4.76-17.36,9.51-26.04,14.27-7.33,4.02-14.67,8.04-22,12.06-5.28,2.89-10.55,5.78-15.83,8.67-2.5,1.37-5.04,2.68-7.51,4.11-.11.06-.22.12-.33.18-.18.1-.45.35-.38.59,1.25,4.02,2.5,8.03,3.75,12.05.23.73,2.24.17,2.02-.54-1.25-4.02-2.5-8.03-3.75-12.05l-.38.59c1.73-.95,3.45-1.89,5.18-2.84,4.65-2.55,9.3-5.1,13.95-7.64,6.93-3.8,13.85-7.59,20.78-11.39,8.42-4.61,16.84-9.23,25.26-13.84,9.22-5.05,18.44-10.11,27.66-15.16,9.31-5.1,18.61-10.2,27.92-15.3,8.68-4.76,17.36-9.51,26.04-14.27,7.33-4.02,14.67-8.04,22-12.06,5.28-2.89,10.55-5.78,15.83-8.67,2.5-1.37,5.04-2.68,7.51-4.11.11-.06.22-.12.33-.18.37-.2.5-.55.17-.82-.35-.29-1.11,0-1.43.18h0Z"/>
    <path class="cls-5" d="M968.98,339.85c-7.26,2.85-10.9,10.05-12.54,17.27-1.84,8.13-1.68,16.69-.92,24.95.47,5.08,1.17,10.15,2.34,15.12s2.47,9.66,3.79,14.46c4.33,15.72,8.91,31.38,13.45,47.04,5.61,19.35,11.24,38.7,16.75,58.08,5.15,18.11,10.24,36.25,14.93,54.49.49,1.89.97,3.78,1.44,5.68.21.86,2.2.33,1.98-.53-4.39-17.52-9.23-34.92-14.14-52.3-5.48-19.4-11.09-38.77-16.71-58.13-4.75-16.36-9.53-32.71-14.12-49.11-2.6-9.28-5.48-18.6-6.88-28.16-1.16-7.91-1.73-15.98-1.07-23.96.61-7.36,2.25-15.99,8.07-21.13,1.32-1.17,2.84-2.06,4.48-2.7,1.27-.5.14-1.47-.85-1.08h0Z"/>
    <path class="cls-22" d="M1084.08,470.37s17.61,61.95,18.06,65.3c2.13,15.8,14.65,40.63,3.82,77.29-9.32,31.52-39.43,54.65-81.95,38.69-42.52-15.96,18.92-106.47,18.92-106.47l41.16-74.81Z"/>
    <path class="cls-5" d="M1009.01,577.42c11.77-1.77,24.79-1.71,34.28,6.51,2.72,2.36,4.95,5.23,6.8,8.3.45.74,2.34,0,1.82-.86-3.28-5.43-7.78-10.01-13.53-12.79-5.43-2.63-11.47-3.54-17.46-3.55-3.93,0-7.84.38-11.72.97-.4.06-1.07.28-1.1.79-.02.47.5.69.91.63h0Z"/>
    <path class="cls-5" d="M1096.3,630.47c-2.44,7.4-8.27,13.55-13.87,18.74-6.96,6.44-14.81,12.03-23.06,16.7-7.8,4.41-16.09,8.03-24.24,11.74-8.74,3.98-17.54,7.82-26.39,11.53-18.59,7.79-37.41,15.05-56.42,21.74-18.83,6.63-37.85,12.73-57.09,18.08-17.42,4.84-35.03,9.12-52.86,12.2-2.03.35-4.07.68-6.1,1l.92.45c-1.26-3.87-2.51-7.75-3.77-11.62-.29-.9-2.31-.35-2.02.54,1.26,3.87,2.51,7.75,3.77,11.62.11.35.58.5.92.45,17.78-2.77,35.35-6.8,52.73-11.45,19.43-5.2,38.64-11.21,57.65-17.77,19.23-6.63,38.27-13.83,57.08-21.58,9.1-3.74,18.14-7.62,27.13-11.64,8.43-3.77,16.89-7.57,25.12-11.75,8.4-4.27,16.36-9.54,23.61-15.55,6.4-5.3,12.75-11.37,16.82-18.7.8-1.44,1.49-2.95,2-4.52.36-1.09-1.65-1.04-1.93-.21h0Z"/>
    <path class="cls-10" d="M833.3,732.31l-13.56,3.58s-38.94,34.91-52.8,40.4c-10.17,3.56-20.83,5.59-31.66,6.02l-10.17,8.09c-4.68,3.73-10.51,5.58-16.5,5.24l-4.61-.26s-10.03,13.81-14.48,10.64c-4.46-3.18-2.04-9.45.31-15.53,2.35-6.08,71.13-81.75,71.13-81.75-9.08.03-22.71,7.84-31.59,9.5-13.62,2.65-19.91-1.59-16.29-8.52,2.24-4.27,11.79-10.55,19.91-10.01,8.09.53,37.79-20.78,51.97-21.41,14.17-.63,29.61,12.43,29.61,12.43,1.23.1,6.03-.84,6.03-.84,1.12,1.53,12.7,42.42,12.7,42.42Z"/>
    <path class="cls-26" d="M706.05,794.72c4.22-4.83,9.16-9.08,13.88-13.41,5.76-5.28,11.58-10.49,17.17-15.94,2.2-2.15,4.43-4.31,6.37-6.7.45-.55-1.31-.39-1.64.02-4.03,4.97-8.99,9.26-13.68,13.59-5.74,5.3-11.57,10.5-17.23,15.88-2.23,2.12-4.48,4.25-6.5,6.57-.46.52,1.29.37,1.64-.02h0Z"/>
    <path class="cls-26" d="M736.95,781.41c8.26-6.54,16.52-13.08,24.78-19.61,1.18-.94,2.36-1.87,3.54-2.81.94-.75-.5-1.27-1.16-.75-8.26,6.54-16.52,13.08-24.78,19.61-1.18.94-2.36,1.87-3.54,2.81-.94.75.5,1.27,1.16.75h0Z"/>
  </g>
  <g id="Layer_3" data-name="Layer 3">
    <path class="cls-13" d="M447.49,1414.24c.42-1.26.85-2.53,1.27-3.79,1.21-3.59,2.41-7.19,3.61-10.78,1.87-5.57,3.73-11.14,5.59-16.72,2.42-7.24,4.83-14.47,7.24-21.71,2.87-8.61,5.74-17.23,8.6-25.84,3.19-9.6,6.37-19.2,9.55-28.8,3.41-10.29,6.8-20.58,10.2-30.88,3.51-10.66,7.01-21.32,10.51-31.99,3.51-10.71,7-21.42,10.49-32.13,3.39-10.43,6.77-20.86,10.13-31.3,3.18-9.87,6.34-19.74,9.47-29.62,2.83-8.9,5.63-17.81,8.41-26.72,2.38-7.65,4.74-15.31,7.05-22.98,1.83-6.1,3.64-12.2,5.37-18.33,1.17-4.17,2.33-8.35,3.31-12.57,3.16-13.64,3.87-28.17.26-41.8s-11.96-26.47-24.1-34.51c-10.01-6.63-21.62-9.9-33.5-10.94-8.01-.7-16.01-1.4-24.02-2.1-9.22-.81-18.44-1.62-27.66-2.42-1.59-.14-3.17-.28-4.76-.42-.5-.04-1.23.06-1.61.43-.29.28-.34.61.18.66,5.81.51,11.61,1.02,17.42,1.53,9.95.87,19.9,1.74,29.84,2.61,7.44.65,14.94,1.05,22.21,2.89,15.19,3.85,28.87,12.93,36.91,26.56,7.63,12.92,10.15,28.09,8.91,42.93-.6,7.23-2.08,14.26-3.94,21.24-1.41,5.29-2.93,10.56-4.47,15.82-2.06,7.02-4.18,14.02-6.33,21.01-2.57,8.37-5.18,16.72-7.81,25.07-2.98,9.46-5.99,18.92-9.01,28.37-3.25,10.17-6.53,20.33-9.82,30.48-3.44,10.63-6.9,21.25-10.36,31.87-3.49,10.69-6.99,21.37-10.5,32.05-3.44,10.47-6.89,20.93-10.34,31.39-3.29,9.96-6.59,19.92-9.89,29.88-3.02,9.1-6.04,18.19-9.06,27.28-2.62,7.88-5.25,15.75-7.87,23.63-2.13,6.38-4.26,12.75-6.39,19.13-1.53,4.57-3.06,9.14-4.59,13.71-.81,2.41-1.62,4.82-2.43,7.23-.1.3-.2.61-.31.91-.21.62,2.04.33,2.27-.34h0Z"/>
  </g>
</svg>