<?xml version="1.0" encoding="UTF-8"?>
<svg id="Layer_2" data-name="Layer 2" xmlns="http://www.w3.org/2000/svg" xmlns:xlink="http://www.w3.org/1999/xlink" viewBox="0 0 1334 1000">
  <defs>
    <style>
      .cls-1 {
        fill: #8c542a;
      }

      .cls-2 {
        fill: #101931;
      }

      .cls-3 {
        fill: #010101;
      }

      .cls-4 {
        fill: #653c29;
      }

      .cls-5 {
        fill: #27153c;
      }

      .cls-6 {
        fill: #f1eef7;
      }

      .cls-7 {
        fill: #3d4e83;
      }

      .cls-8 {
        fill: #745245;
      }

      .cls-9 {
        fill: #5c483b;
      }

      .cls-10 {
        stroke: #4f2e25;
      }

      .cls-10, .cls-11 {
        fill: none;
        stroke-miterlimit: 10;
      }

      .cls-12 {
        fill: #a66e53;
      }

      .cls-13 {
        fill: #0a2f44;
      }

      .cls-14 {
        fill: url(#linear-gradient);
        opacity: .5;
      }

      .cls-15 {
        fill: #212121;
      }

      .cls-16 {
        fill: #3d3d3d;
      }

      .cls-17 {
        fill: #fff;
      }

      .cls-11 {
        stroke: #60382b;
      }

      .cls-18 {
        fill: #0d0b09;
      }

      .cls-19 {
        fill: #513835;
      }

      .cls-20 {
        fill: #60382b;
      }

      .cls-21 {
        fill: #151210;
      }

      .cls-22 {
        fill: #f2ebd1;
      }

      .cls-23 {
        fill: #24180f;
      }

      .cls-24 {
        fill: #628e9f;
      }

      .cls-25 {
        fill: #0a1722;
      }

      .cls-26 {
        fill: #825639;
      }

      .cls-27 {
        fill: #381c13;
      }

      .cls-28 {
        fill: #4f2e25;
      }

      .cls-29 {
        fill: #161312;
      }
    </style>
    <linearGradient id="linear-gradient" x1="4528.6" y1="-2178.95" x2="5950.6" y2="-2178.95" gradientTransform="translate(-1545.21 -4622.97) rotate(90)" gradientUnits="userSpaceOnUse">
      <stop offset="0" stop-color="#f0ebe0"/>
      <stop offset=".18" stop-color="#eee8dd" stop-opacity=".99"/>
      <stop offset=".33" stop-color="#e8e1d4" stop-opacity=".97"/>
      <stop offset=".46" stop-color="#ded4c5" stop-opacity=".93"/>
      <stop offset=".59" stop-color="#d0c2b0" stop-opacity=".88"/>
      <stop offset=".72" stop-color="#bdab95" stop-opacity=".82"/>
      <stop offset=".84" stop-color="#a78e73" stop-opacity=".73"/>
      <stop offset=".96" stop-color="#8d6d4d" stop-opacity=".64"/>
      <stop offset="1" stop-color="#83603d" stop-opacity=".6"/>
    </linearGradient>
  </defs>
  <polyline class="cls-22" points="-125.12 1302.94 -125.12 -115.1 1437.82 -115.1 1437.82 1302.94"/>
  <polyline class="cls-14" points="-125.12 1322.95 1392.59 1322.95 1392.59 -99.06 -125.12 -99.06"/>
  <path class="cls-9" d="M-159.5,882.5l1.6-.61,2.84-112.96c4.2-85.25,27.25-147.11,76.3-151.92,33.38,0,146.32-1.55,157.56,7.1,3.12-148.09-12.98-266.24,228.93-266.24l266.66.64c2.85,65.37,10.61,130.52,20.23,195.23,12.07,81.17-11.57,161.84.79,242.97,6.21,40.77-47.46,81.83-42.19,122.74,5.36,41.67,10.78,83.33,16.06,125.01,8.02,63.38,15.71,126.86,22.31,190.44H-169.66v-132.12c-18.95-6.2-32.13-26.69-32.23-50.12v-94.23c.06-36.11,15.36-59.68,42.4-75.94Z"/>
  <path class="cls-9" d="M550.44,1234.9c-.74-18.56-1.46-37.12-2.03-55.69-1.31-42.72-45.14-85.42-45.14-128.15l9.91-691.57,573.81-1.62c124.24.02,144.92,118.15,148.03,266.24,11.24-8.65,124.18-7.1,157.56-7.1,49.04,4.8,72.09,66.67,76.3,151.92l2.84,112.96,1.6.61c27.04,16.26,42.34,39.83,42.4,75.94v94.23c-.1,23.43-13.27,43.92-32.23,50.12v132.12h-933.06Z"/>
  <path class="cls-18" d="M1464.31,881.45c-.24,0-.47,0-.71,0-.7,0-1.41,0-2.11,0-1.15,0-2.31,0-3.46,0h-4.8c-2.03-.01-4.07-.02-6.1-.02-2.45,0-4.91,0-7.36-.01-2.86,0-5.72-.01-8.58-.02-3.24,0-6.49-.01-9.73-.02-3.64,0-7.28-.01-10.92-.02-4.01,0-8.03-.01-12.04-.02-4.38,0-8.75-.02-13.13-.02l-14.18-.03c-5.04,0-10.08-.02-15.13-.03-5.39,0-10.78-.02-16.17-.03-5.7-.01-11.41-.02-17.11-.03-5.98-.01-11.96-.02-17.94-.03-6.3-.01-12.6-.02-18.89-.03-6.58-.01-13.16-.02-19.73-.03-6.85-.01-13.69-.02-20.54-.04s-14.21-.03-21.31-.04c-7.32-.01-14.63-.03-21.95-.04-7.58-.01-15.16-.03-22.74-.04-7.8-.01-15.6-.03-23.4-.04-8.01-.01-16.02-.03-24.03-.04-8.21-.01-16.42-.03-24.63-.04s-16.72-.03-25.08-.04c-8.57-.02-17.14-.03-25.71-.05-8.73-.02-17.47-.03-26.2-.05-8.88-.02-17.77-.03-26.65-.05-9.02-.02-18.05-.03-27.07-.05-9.11-.02-18.23-.03-27.34-.05-9.27-.02-18.54-.03-27.8-.05s-18.74-.03-28.12-.05c-9.43-.02-18.85-.03-28.28-.05-9.55-.02-19.09-.03-28.64-.05-9.62-.02-19.23-.03-28.85-.05-9.67-.02-19.35-.03-29.02-.05-9.72-.02-19.44-.03-29.16-.05-9.71-.02-19.43-.03-29.14-.05-9.78-.02-19.56-.03-29.33-.05-9.79-.02-19.58-.03-29.37-.05-9.79-.02-19.58-.03-29.37-.05-9.78-.02-19.55-.03-29.33-.05-9.71-.02-19.42-.03-29.13-.05-9.72-.02-19.43-.03-29.15-.05-9.67-.02-19.34-.03-29.01-.05-9.61-.02-19.22-.03-28.83-.05-9.5-.02-19-.03-28.5-.05-9.46-.02-18.92-.03-28.38-.05-9.36-.02-18.73-.03-28.09-.05-9.26-.02-18.52-.03-27.78-.05-9.1-.02-18.21-.03-27.31-.05s-18.03-.03-27.04-.05c-8.87-.02-17.75-.03-26.62-.05-8.72-.02-17.44-.03-26.16-.05-8.56-.02-17.11-.03-25.67-.05-8.35-.01-16.69-.03-25.04-.04-8.19-.01-16.39-.03-24.58-.04-8-.01-15.99-.03-23.99-.04-7.78-.01-15.57-.03-23.35-.04-7.56-.01-15.12-.03-22.69-.04-7.3-.01-14.6-.03-21.89-.04-7.08-.01-14.17-.03-21.25-.04-6.83-.01-13.65-.02-20.48-.04-6.56-.01-13.11-.02-19.67-.03-6.25-.01-12.5-.02-18.75-.03-5.98-.01-11.97-.02-17.95-.03-5.68-.01-11.36-.02-17.04-.03-5.36,0-10.73-.02-16.09-.03-5.02,0-10.03-.02-15.05-.03-4.7,0-9.4-.02-14.1-.02-4.35,0-8.7-.02-13.05-.02-3.99,0-7.97-.01-11.96-.02-3.61,0-7.22-.01-10.84-.02-3.21,0-6.43-.01-9.64-.02-2.83,0-5.66-.01-8.49-.02-2.42,0-4.84,0-7.26-.01h-6c-1.57-.01-3.13-.02-4.7-.02-1.12,0-2.24,0-3.36,0h-2.01c-.2,0-.4,0-.61,0-.57,0-1.53.86-.55.86.24,0,.47,0,.71,0h2.11c1.15,0,2.31,0,3.46,0h4.8c2.03.01,4.07.02,6.1.02,2.45,0,4.91,0,7.36.01,2.86,0,5.72.01,8.58.02,3.24,0,6.49.01,9.73.02l10.92.02c4.01,0,8.03.01,12.04.02,4.38,0,8.75.02,13.13.02,4.73,0,9.45.02,14.18.03,5.04,0,10.08.02,15.13.03,5.39,0,10.78.02,16.17.03,5.7.01,11.41.02,17.11.03s11.96.02,17.94.03c6.3.01,12.6.02,18.89.03,6.58.01,13.16.02,19.73.03,6.85.01,13.69.02,20.54.04,7.1.01,14.21.03,21.31.04s14.63.03,21.95.04c7.58.01,15.16.03,22.74.04,7.8.01,15.6.03,23.4.04,8.01.01,16.02.03,24.03.04,8.21.01,16.42.03,24.63.04,8.36.01,16.72.03,25.08.04,8.57.02,17.14.03,25.71.05,8.73.02,17.47.03,26.2.05,8.88.02,17.77.03,26.65.05s18.05.03,27.07.05c9.11.02,18.23.03,27.34.05,9.27.02,18.54.03,27.8.05,9.37.02,18.74.03,28.12.05,9.43.02,18.85.03,28.28.05,9.55.02,19.09.03,28.64.05,9.62.02,19.23.03,28.85.05,9.67.02,19.35.03,29.02.05,9.72.02,19.44.03,29.16.05,9.71.02,19.43.03,29.14.05,9.78.02,19.56.03,29.33.05,9.79.02,19.58.03,29.37.05,9.79.02,19.58.03,29.37.05,9.78.02,19.55.03,29.33.05,9.71.02,19.42.03,29.13.05,9.72.02,19.43.03,29.15.05,9.67.02,19.34.03,29.01.05,9.61.02,19.22.03,28.83.05,9.5.02,19,.03,28.5.05,9.46.02,18.92.03,28.38.05,9.36.02,18.73.03,28.09.05,9.26.02,18.52.03,27.78.05,9.1.02,18.21.03,27.31.05,9.01.02,18.03.03,27.04.05,8.87.02,17.75.03,26.62.05s17.44.03,26.16.05c8.56.02,17.11.03,25.67.05,8.35.01,16.69.03,25.04.04,8.19.01,16.39.03,24.58.04,8,.01,15.99.03,23.99.04,7.78.01,15.57.03,23.35.04,7.56.01,15.12.03,22.69.04,7.3.01,14.6.03,21.89.04,7.08.01,14.17.03,21.25.04,6.83.01,13.65.02,20.48.04,6.56.01,13.11.02,19.67.03,6.25.01,12.5.02,18.75.03,5.98.01,11.97.02,17.95.03,5.68.01,11.36.02,17.04.03,5.36,0,10.73.02,16.09.03,5.02,0,10.03.02,15.05.03,4.7,0,9.4.02,14.1.02,4.35,0,8.7.02,13.05.02,3.99,0,7.97.01,11.96.02,3.61,0,7.22.01,10.84.02,3.21,0,6.43.01,9.64.02,2.83,0,5.66.01,8.49.02h7.26c2,.02,4,.02,6,.02h4.7c1.12.01,2.24.01,3.36.01h2.01c.2,0,.4,0,.61,0,.57,0,1.53-.86.55-.86h0Z"/>
  <path class="cls-18" d="M78.71,628.94c10.7,14.23,20.73,29.41,28.03,45.7,3.88,8.65,6.45,17.67,7.9,27.04,1.58,10.25,2.01,20.64,2.42,30.99.55,14.02.91,28.05,1.25,42.08.4,16.42.74,32.84,1.07,49.26.29,14.49.57,28.98.88,43.47.03,1.46.06,2.92.1,4.38.02.74,1.48.5,1.46-.12-.32-14.06-.59-28.13-.87-42.19-.33-16.54-.66-33.08-1.05-49.62-.34-14.59-.71-29.19-1.24-43.78-.7-19.05-1.22-38.62-8.24-56.6-3.2-8.21-7.36-16.04-11.84-23.61-4.61-7.81-9.64-15.39-14.95-22.74-1.18-1.64-2.38-3.26-3.59-4.87-.38-.5-1.76.05-1.33.63h0Z"/>
  <path class="cls-18" d="M18.66,628.93c10.7,14.24,20.73,29.42,28.04,45.71,3.88,8.65,6.45,17.67,7.9,27.04,1.58,10.25,2.02,20.64,2.42,30.99.55,14.02.91,28.05,1.25,42.08.4,16.42.74,32.84,1.07,49.26.29,14.49.57,28.98.88,43.47.03,1.46.06,2.92.1,4.38.02.71,1.47.45,1.46-.14-.32-14.06-.59-28.13-.87-42.19-.33-16.54-.66-33.08-1.05-49.62-.34-14.59-.71-29.19-1.24-43.78-.7-19.05-1.22-38.61-8.24-56.59-3.2-8.2-7.36-16.03-11.84-23.61-4.61-7.81-9.64-15.39-14.95-22.74-1.18-1.64-2.38-3.26-3.59-4.87-.36-.48-1.75.06-1.33.61h0Z"/>
  <path class="cls-18" d="M1231.14,630.89c-10.67,14.2-20.66,29.32-27.99,45.54-3.92,8.68-6.55,17.75-8.02,27.16-1.59,10.18-2.04,20.5-2.45,30.79-.56,14.05-.92,28.12-1.26,42.18-.4,16.54-.74,33.08-1.07,49.62-.29,14.55-.57,29.1-.88,43.65-.03,1.46-.06,2.92-.1,4.38,0,.28,1.44.07,1.45-.39.32-13.94.58-27.89.86-41.83.33-16.48.66-32.96,1.05-49.43.34-14.55.7-29.1,1.23-43.64.69-19.01,1.14-38.58,8.05-56.56,3.19-8.29,7.37-16.19,11.87-23.83s9.66-15.46,15-22.84c1.18-1.64,2.38-3.26,3.59-4.87.31-.41-1.09-.23-1.32.07h0Z"/>
  <path class="cls-18" d="M1291.16,630.81c-10.73,14.27-20.77,29.49-28.09,45.82-3.83,8.54-6.41,17.45-7.87,26.69-1.62,10.28-2.07,20.69-2.48,31.07-.56,14.01-.92,28.03-1.26,42.05-.4,16.54-.74,33.08-1.07,49.62-.29,14.55-.57,29.1-.88,43.65-.03,1.46-.06,2.92-.1,4.38-.02.67,1.44.4,1.46-.15.32-14,.58-28.01.86-42.01.33-16.48.66-32.96,1.05-49.44.34-14.53.7-29.07,1.23-43.59.69-19.07,1.15-38.71,8.14-56.72,3.22-8.29,7.43-16.2,11.95-23.85,4.58-7.75,9.57-15.26,14.84-22.56,1.18-1.64,2.38-3.26,3.59-4.87.43-.57-1.04-.52-1.36-.09h0Z"/>
  <path class="cls-12" d="M875.67,290.27l91.51-10.07,16.07,27.98s-22.28,23.68-24.71,24.96c-2.43,1.27-59.6,19.66-59.6,19.66,0,0-68-15.11-67.09-15.04.91.07,43.81-47.5,43.81-47.5Z"/>
  <path class="cls-12" d="M969.05,215.74s-9.42,34.01,9.35,66.96c1.8,3.17,19.84,9.42,19.84,9.42l-27.76,10.99c-19.12,5.66-62.52,8.37-81.66,3.73l-16.25-7.81s19.5-5.58,20.19-9.82c.69-4.24-4.87-35.48-4.87-35.48"/>
  <path class="cls-26" d="M971.48,226.71c0,.11,0,.2,0,.3.03-.13.04-.24,0-.3Z"/>
  <path class="cls-12" d="M904.68,292.06l-34.12,1.21-17.29-2.62c-1.72.16-11.62-16.4-12.95-18.53-4.15-6.6-8.45-15.59-11.25-22.88-2.99-7.82-8.54-14.38-10.46-23.91-1.4-6.98-1.79-11.91,1.15-23.67.75-2.99.56-5.9-.38-8.98-2.02-6.49-3.13-14.17-5.64-22.88-.2-.68-1.26-3.99-1.04-4.76,0,0-4.27-36.78,1.42-50.46,5.7-13.68,15.2-20.47,24.72-23.68,9.53-3.21,38.29-3.59,38.29-3.59l34.75-12.52,39.28,18.09,20.1,39.6,1.04,47.61-1.94,42.74"/>
  <path d="M847.68,191.37s-9.63-7.86-16.09-7.8c-9.43.09-11.61,2.43-14.48,7.05,0,0,5.66-5.09,12.31-4.97,6.35.11,18.27,5.72,18.27,5.72Z"/>
  <path d="M879.19,187.62s11.93-9.56,18.18-10.36c9.12-1.17,20.56,3.25,23.96,7.45,0,0-15.18-6.68-21.57-5.68-6.12.96-20.56,8.59-20.56,8.59Z"/>
  <path d="M874.51,149.58c-.23,2.23-.46,4.46-.69,6.7-.17,1.7-.69,5.58-.85,7.28,5.51-.87,10.57-2.51,14.1-2.76,7-.49,14.22-1.48,21.06.33,3.27.87,6.11,2.04,8.7,4.05.82.63,2.94,3.24,4.31,2.77.56-.19-.03-3.03-.09-3.32-1.22-5.72-5.67-8.52-11.27-10.44-11.42-3.92-23.22-4.87-35.27-4.61"/>
  <path d="M811.49,169.14s3.11-2.48,3.14-2.5c8.69-6.98,18.7-11.27,29.32-14.49.94,2.03,1.87,4.08,2.81,6.12.71,1.56,2.09,4.32,2.8,5.88-5.11.76-9.71,1-12.88,1.78-6.28,1.55-12.93,3.1-18.32,6.78-.43.29-2.7,1.91-3.1,2.21-3.15-1.96-4.37-4.96-3.76-5.79Z"/>
  <path class="cls-21" d="M882,261.42l-24.2.97s6.54,8.82,12.42,8.28c3.68-.34,8.24-4.76,11.78-9.25Z"/>
  <g>
    <path class="cls-3" d="M859.58,228.21c2.88,1.22,7.03.49,9.64-1.52.58-.44,2.66-.26,1.85.37-3.44,2.65-9.43,3.42-13.14,1.85-.37-.16-.33-.44.1-.63.44-.2,1.17-.23,1.56-.07"/>
    <path class="cls-3" d="M872.18,226.15c1.76-1.06,3.79-1.72,5.84-2.08.3-.05.7.03.94.21.19.14.24.35.03.51-.9.65-2.09.99-3.21,1.07-.35.03-.82-.02-1.05-.31-.21-.27.11-.48.39-.51.92-.07,1.85-.34,2.59-.87.33.24.65.48.98.72-1.83.32-3.64.92-5.21,1.87-.31.19-.79.13-1.1-.02-.23-.11-.5-.4-.18-.59"/>
    <path class="cls-3" d="M880.4,225.66c2.41-.28,5.15-1.62,6.17-3.59,1.53-2.97-.54-7.17-3.72-8.69-.35-.17-.2-.43.13-.54.42-.14.95-.02,1.31.15,2.77,1.32,4.8,4.72,4.65,7.39-.14,2.49-2.3,4.43-5.12,5.41-.84.29-1.74.52-2.64.63-.36.04-1.03,0-1.24-.29-.21-.28.11-.44.46-.48"/>
    <path class="cls-3" d="M855.04,227.37c.1-.3-.15-.46-.35-.44-.65.08-1.33-.05-1.93-.46-.19.29-.38.57-.57.86,1.32.03,2.67.34,3.91,1.03.25.14.57,0,.76-.19.14-.15.28-.47.03-.61"/>
    <path class="cls-3" d="M856.9,227.56c-1.39-.77-2.9-1.11-4.37-1.14-.22,0-.48.14-.62.36-.11.17-.11.39.06.5"/>
    <path class="cls-3" d="M850.05,228.16c-1.58.08-3.52-.82-4.47-2.61-1.42-2.7-.65-6.14,1.15-8.11.2-.21.06-.46-.16-.51-.29-.07-.61.13-.81.35-1.56,1.72-2.44,4.36-1.94,6.97.47,2.44,2.13,4.02,4.07,4.56.58.16,1.19.25,1.78.22.24-.01.66-.16.75-.47.09-.31-.14-.42-.36-.4"/>
  </g>
  <path class="cls-11" d="M896.97,133.86s-37.6-2.15-62.61,5.15"/>
  <path d="M811.86,106.09c.65-1.18,2.42-1.34,3.09-2.51.75-1.32-.36-2.99-.08-4.48.37-1.99,2.83-2.67,4.84-2.95-1.35-1.45-.69-4.2,1.16-4.88.75-.28,1.67-.3,2.15-.95.7-.96-.15-2.58.71-3.39.58-.55,1.55-.32,2.31-.53.15-.49.29-.99.44-1.48.18-.09.35-.19.53-.29-.13-.98-.62-2.13-.21-3.03.42-.94,1.63-1.29,2.73-1.64-.13-.28-.34-.53-.64-.73.86.3,1.64.18,2.39-.16.21-.24.31-.54.25-.93l.1.76c2.44-1.36,4.52-5.03,7.52-5.14,1.16-.04,2.27.48,3.43.62,3.01.35,5.95-2.55,5.65-5.57,3.02,1.47,6.63,1.68,9.79.57l.58.15c1.57-2.05,4.15-4.02,5.68-3.73,2.31.44,4.62,1.64,6.88,1.03,2.7-.73,4.59-3.9,7.38-3.65,1.63.14-2.29,2.18-.65,2.18,2.34,0,3.92-2.68,6.24-2.98,2.92-.39,5.36,3.09,8.25,2.56,1.86-.35,3.07-2.25,4.89-2.79,3.61-1.08,7.44,3.65,10.77,1.89,1.43-.75,2.14-2.5,3.6-3.19,3.39-1.61,6.23,4.48,9.93,3.86,2.28-.38,3.96-2.89,6.25-2.7,2.5.21-1.07,3.03,1.44,3.11,1.4.05,2.65-.98,4.05-1.04,3.83-.17,5.4,5.2,9.15,6.01,1.73.37,3.6-.59,5.26.02,2.04.75,2.78,3.49,4.48,4.68.21.11.42.23.63.35.11.05.23.09.35.12,1.64.43,3.4-.69,5.01-.19,2.58.79,3.2,5.14,5.9,5.12,1.21,0,2.5-.99,3.53-.34,1,.63.7,2.12.83,3.3.26,2.36,3.15,4,5.3,3.01.27.96,1.04,3.95,1.75,6.71l-.19-1.31c.77-1.06,2.59-.33,3.13.87.54,1.2.35,2.58.62,3.87.57,2.73,3.47,4.74,6.22,4.33-1.91,3.5-3.5,8.56-.25,10.86.79.56,1.78.84,2.46,1.52,1.12,1.12,1.07,3.02.32,4.41-.75,1.39.86,1.57-.4,2.53,2.35,1.87,4.93,4.96,3.28,7.47-.91,1.38,2.33,1.48,2.4,3.13.07,1.93-.04,3.16,1.07,4.74.93,1.31.44,3.23-.66,4.4-1.1,1.17,2.33,2.28.83,2.84-.59,2.16,0,.61,1.33,2.42,1.18,1.59.37,6.3-1.52,6.9-1.89.6-1.54-.66-2.89.78,2.12,1.09,4.61,3.01,3.86,5.27-.71,2.15-3.57,2.28-5.67,3.3-.06,1.04-.13,2.12-.2,3.25,1.19.72,2.81,1.27,3.44,2.49.67,1.3-.1,2.97-1.31,3.78-1,.67-2.21.91-3.42,1.06-2.49,5.54-7.4,18.54-11.56,29.8l-14.6,1.34-.03.88c-1.05.16-2.1.32-3.14.48-.33.05-.68.1-.97-.06-.72-.4-.37-1.46-.19-2.27.41-1.86-.7-3.68-1.58-5.37-.88-1.69-1.53-3.89-.34-5.39.62-.79,1.72-1.34,1.79-2.35.09-1.31-1.56-1.92-2.48-2.85-1.43-1.46-.73-4.36,1.22-5,0,0-2.41-2.41-1.81-7.42.6-5.01,1.83-10.4,1.83-10.4h0c-.32-.34-.63-.69-.86-1.09-1.69-2.94.9-6.89-.53-9.96-.64-1.38-2.01-2.34-2.53-3.77-1-2.73,1.47-5.64,1.05-8.51-.48-3.23-4.48-5.8-3.37-8.86.54-1.5,2.19-2.4,2.65-3.93.8-2.66-2.3-5.96-.39-7.97.66-.7,1.75-.92,2.29-1.72,1.08-1.61-.92-3.43-1.75-5.18-.86-1.81-.4-3.95-.71-5.93-.32-1.98-2.27-4.08-4.06-3.17.59-2.02-.11-6.14-1.54-8.76l-6.42-1.86c-.23-.03-.44-.09-.63-.18l-18.79-5.45c-.87.26-1.75.41-2.65.29-1.01-.14-1.94-.88-2.41-1.75l-2.39-.69c-1.09.57-2.22,1.01-3.43,1.15-2.14.24-4.58-.77-5.25-2.81-.43,3.04-4.99,4.41-7.03,2.12-.81-.91-1.4-2.31-2.62-2.39-.54-.04-1.06.22-1.53.5-1.52.92-3.31,4.72-4.59,7.57-.2,1.15-.54,2.07-1.17,2.58-.51.15-3.7,1.12-7.37,2.18.51.72.36,1.67-.7,2.09-1.42.57-3.63-.05-4.58.85-1.04.99,1.17,2.18.59,3.31-.36.71-1.63,1.02-2.43,1.56-.96.65-1.22,1.61-2.11,2.3-.91.7-2.45,1.02-3.73.77-1.34.2-3.18-.21-3.54.75-.1.26,0,.52.02.78.13,1.02-.64,2.1-1.86,2.61-1.22.5-2.81.4-3.83-.26-.99-.64-1.41-1.69-2.46-2.27-.33-.18-.72-.32-1.1-.45-.31.34-.72.63-1.2.82-1.22.5-2.81.4-3.83-.26-.99-.64-1.41-1.69-2.46-2.27-.88-.49-2.18-.63-2.66-1.38-.76-1.19,1.23-2.91.04-3.86-1.08-.87-3.16.2-4.66-.21-.58-.16-.93-.52-1.1-.96-2.85-1.05-6.01-2.42-9.76-3.18-.09.04-.18-1.39-.27-1.35.12.45.33.89.27,1.35-.25,2.1-1.38,2.32-2.4,4.18-.77,1.39-1.94,1.68-3.12,2.75-.56.51-1.57,2.59-2.32,2.68-1.29.16-.71.18-.97,1.46-.19.95-1.52.83-2.01,1.67-.6,1.02-1.16,2.9-2.2,3.44-.33.17-1.04,1.22-1.31,1.44-.22-.44-.86-3.39-1.15-3.74-.98-1.17-2.14-2.71-1.41-4.05Z"/>
  <path d="M970.62,177.6l-.46-4.45-50.86-4.95h0c-16.63-5.18-38.95,1.1-51.45,10.7l-11.55,1.49.09-.19c-14.33-9.09-36.89-8.91-53.44.42l.61,1.81h0c.01.11.15.38.27.75l.55,1.57c3.39,10.04,7.26,20.63,10.31,23.26,2.05,1.78,8.37,2.22,13.54,2.24,1.96.03,3.74-.03,5.02-.06,1.54-.06,15.21-.6,17.31-2.93,2.1-2.33,4.72-18.72,5.42-23.88l11.85-1.48c1.83,3.83,6.25,20.6,12.32,23.61,6.07,3.01,35.68-.64,38.09-5.05,1.71-3.15,5.17-14.52,6.19-20.21l1.91-7.37,44.26,4.71ZM849.07,205.76c-2.32,2.26-29.51,3.63-33.07.57-3-2.59-7.84-16.91-9.66-22.29l-.02-.23c14.86-7.47,35.19-7.66,47.63,0-1.4,8.93-3.57,20.44-4.88,21.89v.05ZM914.65,199.5c-1.5,2.79-27.29,7.12-33.55,4.02-4.35-2.14-7.79-14.39-10.33-21.35,12.23-9.13,37.08-14.51,51.94-8.94-1.89,8.98-4.59,17.77-8.07,26.27h0Z"/>
  <path d="M830.23,183.95c-1.88-.76-4.12.22-5.19,1.36-.25.27-.71,1.06-.94,2.27-.3,1.55.46,3.19,1.5,4.14,1.39,1.27,3.52,1.3,5.06.4,2.09-1.23,2.55-3.93,1.83-5.79-.13-.34-.74-1.77-2.26-2.39"/>
  <path d="M894.45,179.09c1.66-1.09,4.49-1.1,5.73-.17.29.22,1.08.85,1.53,1.99.57,1.46.15,3.22-.67,4.35-1.1,1.5-3.12,1.93-4.77,1.33-2.23-.82-3.17-3.39-2.82-5.35.07-.36-.35-1,.99-1.89"/>
  <path class="cls-21" d="M900.95,237.28c1.53,1.14,3.19,2.48,3.48,4.37.11.69.02,1.39-.07,2.07-.14,1.07-.27,2.13-.41,3.2-.03.21-.06.43-.19.6-.14.18-.38.27-.6.35-.71.24-1.44.49-2.18.41-.74-.08-1.49-.59-1.59-1.33-.04-.3.02-.63-.12-.9-.29-.52-1.05-.39-1.63-.49-1.47-.26-1.93-2.09-2.67-3.38-1.01-1.76-2.95-2.79-4.92-3.29-.99-.25-2.03-.39-2.95-.84-.92-.45-1.74-1.3-1.78-2.32"/>
  <path class="cls-21" d="M839.21,242.77c-1.32,1.39-2.72,2.99-2.68,4.9.01.69.22,1.37.42,2.03.32,1.03.63,2.05.95,3.08.06.2.13.42.29.56.17.16.42.2.65.24.74.12,1.5.24,2.22.03.72-.21,1.37-.84,1.34-1.59-.01-.31-.13-.62-.03-.91.19-.56.97-.57,1.53-.77,1.41-.5,1.54-2.39,2.05-3.79.69-1.9,2.43-3.26,4.28-4.08.94-.42,1.93-.73,2.76-1.33.83-.6,1.49-1.57,1.36-2.59"/>
  <path class="cls-12" d="M966.52,227.94c16.44,13.79,17.58-11.86,17.58-11.86,9.59-13.77,8.4-27.46,7.2-36.78-1.2-9.33-11.48-8.3-11.48-8.3-8.66,1.71-12.16,6.74-16.93,36.86"/>
  <path class="cls-27" d="M970.99,201.83c1.56-4.28,3.32-8.53,5.62-12.47,1.21-2.07,2.58-4.13,4.33-5.79.47-.44.96-.85,1.51-1.19.21-.13.28-.16.43-.24.27-.14.08.02.31-.12-.06.04-.06.03-.11.03.04,0-.47.05-.46,0-.04.16.92,1.3,1.03,1.49,2.01,3.55,2.21,7.83,1.6,11.77-.02.15,1.38.05,1.45-.39.61-3.91.41-8.12-1.53-11.65-.27-.49-.66-1.36-1.15-1.68-.27-.17-.62-.08-.93,0-3.05.74-5.29,3.94-6.89,6.39-2.84,4.37-4.86,9.25-6.64,14.13-.09.25,1.29.11,1.43-.26h0Z"/>
  <path class="cls-27" d="M973.31,204.08c3.02-.39,2.33,4.49,2.23,6.3-.07,1.34-.7,5.67,1.69,5.56,1.22-.06,1.77-1.39,2.1-2.37.72-2.12,1.02-4.4,1.23-6.63.25-2.62.21-4.89-.36-7.46-.68-3.06-2.03-6.81-5.3-7.91-.62-.21-1.7.69-.84.98,2.74.92,3.89,4.14,4.53,6.69.51,2.04.75,3.96.63,5.91-.14,2.32-.39,4.66-.92,6.92-.17.73-.37,1.47-.69,2.16-.07.14-.38.5-.39.65l-.03.03c-.11.1,0,.09.32-.03-.04-.1-.19-.14-.22-.25-.66-2.24-.19-4.56-.2-6.89-.01-2.45-.65-5.11-3.66-4.72-.8.1-1.11,1.19-.13,1.06h0Z"/>
  <polygon class="cls-1" points="738.14 940.86 701.39 940.86 718.95 1032.4 751.97 1032.4 738.14 940.86"/>
  <g id="freepik--Character--inject-2">
    <path class="cls-24" d="M786.35,448.09l25.6-90.82s-15.7-19.35,6.2-30.13c11.1-5.46,42.37-20.21,49.15-22.99-1.01,9.42-2.65,23.94,4.15,28.45,9.53,6.32,17.03,4.68,28.43,4.02,10.93-.64,25.11-8.97,35.05-13.45,18.6-8.38,36.9-26.75,39.6-48.01l26.01,22.29s63.79,32.09,73.45,35.1c9.65,3.01-8.37,226.18-8.37,226.18l34.73,75.84c2.98,9.73,32.61,39.15,15.34,98.86,0,0-200.14,9.34-221.89,10.86-25.27,1.77-71.57,5.19-78.97-6.31-7.41-11.5-28.47-289.87-28.47-289.87Z"/>
  </g>
  <path class="cls-13" d="M731.88,847.24c-1.39-5.94-3.11,15.66-5.05,9.89-4.39-13.03-10.01-25.64-16.49-37.77-6.65-12.47-14.27-24.44-22.82-35.7-5.81-7.65-12.06-15-18.8-21.86,122.78-35.42,404.1-51.36,404.1-51.36,0,0,85.56,54.64,45.6,147.13-11.97,27.71-39.98,25.68-79.92,27.3-94.6,3.84-235.75-3.74-305.24-18.11-.47-.1-.92-19.42-1.39-19.52Z"/>
  <path class="cls-13" d="M728.7,869.13c-2.16-5.48-4.62-10.85-7.29-16.09-6.02-11.85-13.16-23.12-21.05-33.81-8.11-10.99-17.06-21.37-26.81-30.94-6.62-6.5-29.38,11.42-36.78,5.8,13.52-133.63,473.45-72.41,473.45-72.41,0,0,30.22-7.71,19.81,98.07-9.78,99.4-303.27,41.9-399.97,36.21-.46-.03-.91,13.21-1.37,13.17Z"/>
  <path class="cls-19" d="M911.14,475.38c-.08,0-.15.02-.22.04-.02.29-.12.59.14.84.03-.29.06-.59.08-.88Z"/>
  <path class="cls-19" d="M903.38,558.53c.07.04.14.07.21.08"/>
  <path class="cls-8" d="M843.39,469.36c.1-.02.2-.03.3-.05-.1-.05-.2-.09-.3-.14-.04.06-.04.13,0,.19Z"/>
  <path class="cls-8" d="M886.89,473.21c-.1-.06-.19-.12-.29-.18-.03.05-.06.11-.08.16.12,0,.25.02.37.03Z"/>
  <path class="cls-8" d="M844.32,469.37c.14.01.27.02.41.03-.13-.14-.26-.15-.41-.03Z"/>
  <path class="cls-24" d="M910.19,475.32c-.1-.13-.22-.14-.35-.04.12.01.23.02.35.04Z"/>
  <path class="cls-13" d="M633.01,865.18c24.36,69.66,78.2,242.12,111.76,326.36,0,0,92.31,4.69,99.26-16.54,0,0-2.52-427.71-59.09-435.33-41.71-5.62-108.15-10.05-129.68,7.66-25.84,21.25-41.43,63-22.25,117.86Z"/>
  <path class="cls-13" d="M678.13,818.49s14.18-2.72,34.42-2.31c-3.92-8.5-5.26-14.83-5.26-14.83,1.88-2.15,3.87-4.35,5.95-6.59,11.59,2.71,22.91,6.45,33.9,10.9,12.78,5.18,25.14,11.35,36.93,18.37,11.37,6.77,22.24,14.41,32.26,22.95,2.84,2.42,5.6,4.92,8.28,7.5-.34.1,5.56-.77,5.22-.67,39.15,40.88,38.16,132.14,60.8,214.94,16.61,60.73,34.5,110.23,34.5,110.23-8.99,20.44-120.96,28.82-120.96,28.82-39.81-110.22-126.05-389.32-126.05-389.32Z"/>
  <path class="cls-25" d="M796.36,1191.38c-.53-1.55-1.06-3.11-1.59-4.66-1.49-4.38-2.98-8.76-4.47-13.14-2.3-6.78-4.6-13.55-6.9-20.33-2.97-8.75-5.93-17.5-8.88-26.25-3.48-10.29-6.95-20.59-10.41-30.88-3.84-11.41-7.67-22.82-11.5-34.24-4.05-12.1-8.1-24.21-12.13-36.32-4.12-12.37-8.22-24.74-12.31-37.12-4.03-12.21-8.05-24.42-12.05-36.64-3.8-11.62-7.58-23.25-11.33-34.88-3.42-10.61-6.81-21.22-10.17-31.84-2.89-9.16-5.75-18.34-8.55-27.53-2.22-7.29-4.41-14.6-6.49-21.93-1.42-4.99-2.81-10-3.97-15.06-3.75-16.35-4.36-33.78.61-49.95,5.04-16.39,15.83-30.57,30.5-39.51,7.8-4.75,16.52-7.99,25.53-9.48,2.72-.45,5.48-.7,8.22-1.03,8.33-1,16.66-2,24.99-2.99,11.79-1.41,23.58-2.82,35.37-4.24,8.85-1.06,17.71-2.12,26.56-3.18,1.33-.16,2.66-.32,3.99-.48,1.11-.13,1.89-1.45.31-1.26-5.21.62-10.42,1.25-15.63,1.87-11.23,1.35-22.46,2.69-33.7,4.04-10.79,1.29-21.58,2.58-32.37,3.88-6.45.77-13.09,1.27-19.47,2.5-17.72,3.42-34.08,13.11-45.05,27.53-10.22,13.44-15.01,30.15-15.11,46.92-.07,10.84,1.71,21.52,4.45,31.98,1.62,6.18,3.4,12.32,5.2,18.45,2.44,8.28,4.97,16.53,7.53,24.77,3.1,9.99,6.25,19.95,9.43,29.91,3.56,11.16,7.16,22.3,10.77,33.44,3.91,12.05,7.85,24.09,11.81,36.12,4.07,12.39,8.17,24.78,12.27,37.16,4.09,12.34,8.2,24.68,12.32,37.02s7.96,23.81,11.96,35.7c3.68,10.95,7.36,21.9,11.06,32.85,3.24,9.61,6.49,19.22,9.74,28.83,2.66,7.86,5.33,15.73,8,23.59,1.91,5.63,3.82,11.26,5.74,16.89,1.02,3,2.04,5.99,3.06,8.99.13.38.26.75.39,1.13.27.8,2.54.15,2.28-.61h0Z"/>
  <path class="cls-24" d="M1127.93,737s-48.22-11.02-71.8-17.47c-91.18-24.94-239.01-12.7-239.01-12.7,0,0,277.94-79.26,289.93-70.42,11.98,8.84,28.45,80.55,20.89,100.6Z"/>
  <path class="cls-24" d="M1112.9,583.06c10.97.87,11.87-1.07,22.78.29.51-7.25.73-14.09.61-20.83-.52-28.67-10.6-163.17-26.73-206.48-9.13-46.79-135.03-80.89-135.03-80.89l52.72,170.09,11.27,131.08c18.61,3.86,55.42,5.24,74.38,6.74Z"/>
  <g>
    <path class="cls-29" d="M838.43,273.67c-.76-1.12-1.29-2.64-1.72-4.3-3.4-7.62-3.54-5.88-5.08-12.46,6.11,13.51,14.32,26.46,18.28,28.7.14.08.91.21,1.95.25.1-.05.2-.1.32-.14,1.18-.36,2.93.28,3.75-.39.9-.73-.8-1.84-.26-2.71.34-.55,1.38-.72,2.06-1.1.81-.46,1.09-1.22,1.85-1.72.78-.51,2.05-.67,3.06-.38,1.09-.08,2.55.38,2.9-.37.09-.2.04-.42.03-.63-.04-.83.65-1.66,1.67-1.98,1.02-.33,2.29-.14,3.07.46.76.58,1.03,1.45,1.84,1.99.25.17.56.3.86.44.28-.25.62-.46,1.02-.59,1.02-.33,2.29-.14,3.07.46.76.58,1.03,1.45,1.84,1.99.68.45,1.72.65,2.06,1.29.53,1.01-1.18,2.27-.28,3.11.82.77,2.57.04,3.74.47.22.08.38.2.51.33,6.69-1.14,20.09-3.62,20.35-3.66l8.92-5.06c1.47-1.07,33.94-32.85,33.94-32.85.45-1.01,6.19-8.42,6.37-9.37.1-.06.2-.13.32-.18.04-.02.13-.06.21-.11.02.06.05.14.06.18.09.39.11.81.13,1.21.05,1.75-.17,3.49-.57,5.21-.61,2.63-.88,5.28-1.39,7.92-.18.93-.41,1.85-.66,2.76-.68.5-1.99,2.01-3.74,4.19-.27.55-.66,1.05-1.13,1.42-.48.61-.99,1.26-1.52,1.93.56,2.46-1.59,5.51-4.19,5.36-.1.12-.19.25-.29.37.59,1.74-.75,3.95-2.63,4.06-.19.01-.39,0-.58,0-.76.95-1.52,1.91-2.31,2.88.06.34.11.68.14,1,.18,2.24-2.1,4.24-4.28,4.02-.14.17-.29.34-.43.52.73,2.89-2.11,6.24-5.11,5.85-.12.13-.24.27-.36.4-.21,2.08-2.01,3.85-4.05,4.27-.72.73-1.43,1.42-2.14,2.09-.6,2.11-2.5,3.88-4.71,4.06-.05.04-.11.09-.16.13,1.25,2.25-1.51,5.49-3.93,4.51-.68-.27-1.29-.79-2.02-.82-1.99-.09-2.77,3.23-4.76,3.23-.81,0-1.49-.58-2.22-.95-2.19-1.09-3.45-1.2-4.29,1.09,0,0-.18,2.32-3.44,1.47-1.82-.47-3.36-2.26-4.73-.97-.6.57-.96,1.39-1.68,1.8-1.64.96-3.66-.84-5.54-.55-1.73.27-3.11,2.27-4.79,1.79-1.65-.47-1.85-2.82-3.13-3.91-1.01-.02-2.02-.05-3.03-.1-2.19,1.12-4.45,3.85-6.55,2.64-.88-.51-1.35-1.61-2.3-1.98-1.54-.6-3.03,1.06-4.68,1.22-2.4.24-3.69-2.49-4.23-4.96-.26-.14-.51-.27-.76-.42-1.19.46-2.79-.17-3.16-1.43-.16-.54-.12-1.14-.28-1.66-.23-.3-.45-.6-.65-.91-.93-.67-2.51-.76-2.59-1.87-.05-.62.48-1.14.62-1.75-.37-.71-.76-1.45-1.16-2.23-.3-.25-.62-.48-.92-.7-1.03-.73-1.94-2.28-1.03-3.12,0-.02-.02-.03-.02-.05-1.49-.33-3.33-1.16-3.11-2.66.07-.48.37-.91.45-1.39.23-1.38-1.26-2.33-2.34-3.21-1.09-.88-1.74-2.92-.43-3.42Z"/>
    <path class="cls-21" d="M839.1,273.4c-1.21-1.9-1.63-4.18-2.58-6.21-.61-1.29-1.26-2.55-1.91-3.81-1.1-2.13-1.71-4.34-2.26-6.66l-1.45.39c2.38,5.23,5.01,10.35,7.93,15.29,2.21,3.73,4.54,7.47,7.39,10.74.82.94,1.72,1.97,2.8,2.62,1.5.91,3.43.24,5.04.27,1.1.02,3.27-.28,2.74-1.87-.11-.34-.49-.73-.5-1.1-.02-.69.74-.83,1.28-1.07,1.02-.45,1.43-1.2,2.26-1.86,1.5-1.18,5.3.94,6.36-1.08.36-.69-.2-1.38.62-1.97.95-.68,2.26-.45,3.07.31.92.86,1.32,1.71,2.53,2.26.35.16.88-.02,1.16-.24,1.06-.84,2.53-.39,3.33.52.48.55.81,1.16,1.44,1.57.52.35,1.42.49,1.81,1.01.5.68-.12,1.37-.33,2.03-.35,1.12.46,1.67,1.5,1.77.62.06,1.24-.05,1.87-.03.75.03,1.15.52,1.91.42,5.28-.7,10.54-1.87,15.77-2.82,1.41-.26,2.85-.45,4.25-.78.97-.22,1.86-.9,2.72-1.39,1.76-1,3.51-1.99,5.27-2.99.65-.37,1.34-.69,1.92-1.17,1.63-1.34,3.11-2.91,4.63-4.37,2.78-2.67,5.55-5.35,8.31-8.04,5.71-5.55,11.41-11.1,17.1-16.67,1.19-1.17,2.56-2.28,3.64-3.56.77-.91,1.38-2.03,2.09-3,1.27-1.76,2.59-3.5,3.77-5.32.32-.5.52-1.06.95-1.28h-1.17c.51,1.46.18,3.39-.06,4.86-.28,1.72-.71,3.41-.98,5.13-.26,1.63-.48,3.27-.82,4.89-.14.65-.19,1.64-.55,2.19-.19.29-.58.54-.82.79-.9.95-1.8,1.97-2.59,3.02-.86,1.16-1.83,2.22-2.7,3.39-.58.78-.16,1.89-.54,2.85-.24.6-.6,1.18-1.06,1.63-.65.62-1.23.68-2.08.83-.31.06-.55.16-.78.37-.49.46-.27.57-.22,1.16.06.64-.13,1.31-.46,1.85-.57.92-1.09.81-2.04,1.04-1.03.25-1.58,1.38-2.21,2.17-.29.36-.84.82-.93,1.28-.05.27.13.71.14,1,.02.41-.03.82-.17,1.2-.22.65-.65,1.24-1.19,1.65-.69.53-1.31.48-2.09.6-.32.05-.54.17-.78.37-.6.51-.43.68-.38,1.36.09,1.32-.53,2.66-1.46,3.58-.52.51-1.19.95-1.93,1.05-.53.07-1.05-.11-1.54.19-.46.28-.54.59-.69,1.04-.27.76-.46,1.42-1,2.06-.68.8-1.43,1.05-2.36,1.44-.59.24-.95.7-1.41,1.15-.43.42-1.07.85-1.37,1.37-.38.68-.56,1.4-1.09,2.03-.64.75-1.47,1.31-2.44,1.52-.47.1-.8.14-1.19.45-.06.05-.2.2-.15.3.7,1.46-.2,4.28-2.19,4.09-.79-.07-1.45-.75-2.22-.92-.59-.13-1.22-.06-1.78.16-1.1.43-1.74,1.41-2.51,2.24-.19.2-.56.66-.86.73-.48.11-1.04-.3-1.44-.52-.69-.39-1.39-.76-2.16-.98-.99-.28-2.09-.22-2.93.44-.69.54-.88,1.29-1.19,2.05-.64,1.57-2.6.58-3.7.02-1.17-.6-2.33-1.1-3.6-.48-.62.31-1.01.83-1.44,1.36-.98,1.2-1.97.74-3.26.36-1.38-.41-2.66-.46-3.98.19-.71.35-1.42,1.04-2.18,1.25-1.19.33-1.81-.77-2.27-1.63-.32-.59-.59-1.22-1.02-1.73-.54-.65-1.04-.52-1.86-.54-.76-.02-1.68-.21-2.42,0s-1.42.82-2.04,1.26c-.73.52-1.6,1.32-2.51,1.51-1.27.26-1.82-.77-2.62-1.52-1.04-.98-2.34-.94-3.61-.44-.81.32-1.69,1-2.59,1-1.08,0-1.92-.99-2.41-1.84-.71-1.23-.65-3.69-2.54-3.53-1.29.11-2.27-.3-2.53-1.68-.17-.91-.2-1.67-.98-2.31-.65-.53-1.85-.54-2.29-1.31-.33-.57.03-1.03.26-1.55.29-.65.16-.72-.16-1.34-.25-.48-.45-1.1-.78-1.51-.26-.32-.65-.52-.97-.78-.79-.62-1.87-1.86-1.03-2.84.05-.06.07-.12.05-.2-.15-.29-.56-.29-.84-.37-.62-.19-1.3-.46-1.77-.92-1.13-1.12.17-2.14-.08-3.4-.22-1.11-1.32-1.82-2.13-2.48-.63-.52-2.24-2.48-.92-3.15.86-.44-.43-.62-.89-.39-1.19.6-1.19,1.84-.6,2.9.73,1.32,2.81,1.92,3.08,3.5.14.82-.51,1.47-.46,2.28.04.72.54,1.26,1.11,1.65.53.36,1.14.46,1.69.75s.08-.18.04.39c-.02.29-.08.49-.03.79.12.71.63,1.37,1.16,1.84.83.73,1.48,1.24,1.91,2.32.31.77.17.95-.09,1.66-.12.35-.23.7-.11,1.06.16.49.63.77,1.07.99.77.39,1.47.53,1.94,1.32.51.87.22,1.94.93,2.73.87.97,2.32,1.09,3.49.72h-.67c.91.53.95,1.7,1.37,2.61.32.71.75,1.42,1.33,1.95,1.07.96,2.48,1.06,3.8.62.89-.29,2.19-1.33,3.17-1.02.92.29,1.39,1.43,2.21,1.92,1.18.71,2.6.39,3.76-.2.8-.4,1.51-.94,2.24-1.45.39-.27.9-.78,1.37-.91.2-.05.98.09,1.3.1.53.02.92-.06,1.3.32.31.31.51.78.72,1.17.34.65.66,1.37,1.21,1.87,1.04.94,2.49.71,3.65.14.79-.39,1.54-1.12,2.4-1.33,1.08-.26,2.26.44,3.3.68,1.42.32,2.81.01,3.79-1.1.25-.28.47-.74.78-.97.66-.49,1.21-.1,1.78.19.85.43,1.67.85,2.62,1.01,1.11.18,2.41.07,3.3-.7.5-.43.62-.95.83-1.53.4-1.11.95-1.32,2-.91.88.34,1.65.97,2.54,1.26,1.22.39,2.44-.06,3.34-.9.45-.42.82-.92,1.24-1.38s.8-.83,1.48-.68c.51.12.96.53,1.46.7,1.23.42,2.62.06,3.65-.68.61-.44,1.11-1.02,1.42-1.7.2-.42.67-1.89.2-2.3-.16-.14-.77.03-.32-.03.24-.03.47-.1.7-.17.4-.12.78-.28,1.15-.47.81-.42,1.52-1.01,2.09-1.73.67-.85.92-1.87,1.7-2.62.37-.35.79-.95,1.23-1.21.36-.21.86-.29,1.24-.49.79-.41,1.5-.97,2.05-1.67.27-.35.51-.73.69-1.13.24-.54.27-1.18.68-1.63l-1.12.37c1.78.15,3.48-.45,4.75-1.72.61-.62,1.1-1.35,1.38-2.18s-.01-2.2.53-2.84l-.96.39c1.78.09,3.62-.73,4.63-2.23.48-.71.71-1.52.66-2.38s.12-1.18.68-1.89c.48-.6.96-1.19,1.43-1.79l-.96.39c1.24.04,2.43-.3,3.31-1.22.41-.43.73-.96.91-1.53s-.1-1.64.24-2.07l-.96.39c2.31.02,4.39-1.5,5.09-3.72.17-.55.15-1.06.2-1.62.08-.92.73-1.56,1.36-2.25,1.1-1.21,2.01-2.58,3.09-3.83.66-.76,1.71-1.45,1.99-2.42.58-1.96.84-4.02,1.16-6.03.29-1.88.73-3.73,1.05-5.6.27-1.57.64-3.74.1-5.29-.14-.41-.93-.12-1.17,0-1.14.57-1.81,2.28-2.53,3.31-1.14,1.62-2.32,3.21-3.47,4.83-.35.49-.72.98-1.02,1.5-.24.42.1-.04-.12.21-.35.39-.76.74-1.13,1.11-4.36,4.26-8.72,8.53-13.09,12.78-5.14,5.01-10.28,10.02-15.46,14.99-1.29,1.23-2.55,2.51-3.9,3.67-.19.16-.21.17-.17.15-.4.26-.84.48-1.25.71-1.61.91-3.22,1.83-4.83,2.74l-2.15,1.22c-.16.09-.38.17-.51.29-.29.28.72-.1.31-.1-1.42-.01-3.07.56-4.46.81-5.25.96-10.5,1.92-15.76,2.82l.57.1c-.55-.45-1.16-.57-1.87-.59-.82-.02-2.72.44-2.57-.91.07-.65.65-1.16.62-1.85-.03-.64-.48-.98-1.01-1.26-.86-.47-1.52-.77-2.14-1.56-.54-.7-1.05-1.25-1.91-1.53-1.49-.49-3.12-.13-4.33.82l1.16-.24c-1.18-.53-1.54-1.46-2.47-2.25-.69-.59-1.61-.84-2.51-.84s-1.83.23-2.57.73c-.34.23-.68.53-.89.89-.25.42-.14.98-.39,1.35s-.33.23-.78.2c-.23-.01-.47-.02-.71-.04-.54-.04-1.05-.14-1.59-.12-.9.03-1.84.25-2.6.76-.38.25-.64.57-.95.88-.54.55-.98.84-1.68,1.14-.61.26-1.48.59-1.59,1.35-.1.66.86,1.47.61,2.03-.2.45-2.42.12-2.96.22-1.72.32-2.58-.28-3.75-1.45-2.86-2.85-5.11-6.39-7.22-9.8-3.44-5.55-6.46-11.37-9.16-17.32-.2-.45-1.56-.1-1.45.39.57,2.4,1.22,4.65,2.35,6.84.69,1.32,1.36,2.65,1.99,3.99.92,1.98,1.33,4.16,2.52,6.02.24.38,1.65-.08,1.35-.55Z"/>
  </g>
  <path class="cls-5" d="M1037,587.81c-1.89.43-3.77.87-5.66,1.3-5.11,1.18-10.21,2.35-15.32,3.53-7.55,1.74-15.09,3.48-22.64,5.21-9.21,2.12-18.41,4.24-27.62,6.36-10.08,2.32-20.16,4.64-30.25,6.96-10.22,2.35-20.43,4.71-30.65,7.06-9.49,2.18-18.98,4.37-28.46,6.55-8.02,1.85-16.04,3.69-24.06,5.54-5.77,1.33-11.53,2.66-17.3,3.98-2.73.63-5.49,1.2-8.2,1.89-.12.03-.24.05-.36.08-.43.1-.9.46-.83.94.6,4.2,1.21,8.4,1.81,12.6.13.9,2.16.4,2.02-.54-.6-4.2-1.21-8.4-1.81-12.6l-.83.94c1.89-.43,3.77-.87,5.66-1.3,5.11-1.18,10.21-2.35,15.32-3.53,7.55-1.74,15.09-3.48,22.64-5.21,9.21-2.12,18.41-4.24,27.62-6.36,10.08-2.32,20.16-4.64,30.25-6.96,10.22-2.35,20.43-4.71,30.65-7.06,9.49-2.18,18.98-4.37,28.46-6.55,8.02-1.85,16.04-3.69,24.06-5.54,5.77-1.33,11.53-2.66,17.3-3.98,2.73-.63,5.49-1.2,8.2-1.89.12-.03.24-.05.36-.08,1.26-.29.89-1.62-.36-1.34h0Z"/>
  <path class="cls-5" d="M1035.28,346.37c-7.58,1.65-12.41,7.9-15.26,14.75-3.22,7.76-4.48,16.31-5.07,24.64-.37,5.18-.51,10.4-.14,15.58s.89,9.94,1.43,14.9c1.78,16.32,3.83,32.61,5.84,48.91,2.51,20.32,5.03,40.64,7.43,60.98,2.23,18.91,4.4,37.83,6.15,56.79.18,1.94.35,3.89.52,5.83.05.54,2.04.14,1.98-.53-1.57-18.2-3.61-36.35-5.72-54.5-2.35-20.25-4.85-40.48-7.35-60.71-2.11-17.06-4.25-34.11-6.2-51.18-1.1-9.63-2.45-19.34-2.3-29.06.13-8.05.87-16.19,2.82-24.01,1.78-7.16,4.8-15.44,11.33-19.61,1.46-.93,3.05-1.56,4.75-1.93,1.19-.26.96-1.1-.23-.85h0Z"/>
  <path class="cls-24" d="M1128.76,494.6s7.61,64.51,7.53,67.92c-.41,16.08,8.08,42.81-8.58,77.58-14.33,29.9-46.82,40.62-86.6,17.92-39.79-22.71,34.69-95.51,34.69-95.51l52.97-67.91Z"/>
  <path class="cls-5" d="M1036.66,588.95c12.07.12,25.07,2.4,33.23,12.14,2.35,2.81,4.13,6.02,5.49,9.41.22.56,2.17-.06,1.98-.53-2.37-5.88-6.07-11.14-11.3-14.8-5-3.49-10.92-5.34-16.9-6.28-3.87-.6-7.78-.82-11.69-.86-.62,0-2.14.91-.82.92h0Z"/>
  <path class="cls-5" d="M1115.27,656.14c-3.7,7.12-11.74,10.94-18.86,13.75-9.05,3.58-18.54,5.92-27.85,8.7-17.8,5.32-36.02,8.94-54.4,11.57-19.98,2.86-40.12,4.63-60.27,5.81-19.98,1.17-40,1.74-60.01,1.98-18.03.22-36.07.16-54.1.07-1.99-.01-3.98-.02-5.98-.03l.92.46c-.63-4.06-1.26-8.12-1.89-12.18-.14-.92-2.17-.42-2.02.54.63,4.06,1.26,8.12,1.89,12.18.06.4.61.46.92.46,17.91.09,35.82.19,53.73.03,20.16-.18,40.32-.66,60.46-1.72,20.42-1.08,40.83-2.72,61.11-5.44,18.73-2.51,37.42-5.88,55.61-11.07,9.34-2.67,18.78-5.21,27.95-8.41,7.72-2.69,16.12-6,21.73-12.21,1.17-1.29,2.17-2.73,2.98-4.28.52-1.01-1.52-1.01-1.93-.22h0Z"/>
  <path class="cls-24" d="M472.19,594.54l7.85-36.15,5.52-10.31,220.98-1.22,42.95,86.53c-13.68,6.71-30.62,6.86-45.68,7.83-70.85,4.55-168.82-19.2-232.55-34.39l.92-12.29Z"/>
  <path class="cls-24" d="M700.14,560.99l65.28-164.89c7.85-21.88,18.57-40.78,36.11-56.03l8.95-7.78s93.68-9.86,78.86,35.46c-6.98,45.51-63.27,167.11-77.05,193.05-.07.13-.12.24-.16.31-.47.89-.97,1.77-1.46,2.66-7.5,14.49-14.23,40.02-43.81,60.92-6.24,4.41-12.84,7.45-19.57,9.05-.42.13-.84.23-1.26.35l-45.87-73.09Z"/>
  <path class="cls-12" d="M833.81,687.71l-12.55,1.32s-39.58,27.11-52.68,30.19c-9.55,1.82-19.3,2.12-28.98.88l-10.19,6.11c-4.69,2.81-10.14,3.68-15.41,2.45l-4.06-.95s-10.88,11.54-14.39,7.86c-3.51-3.68-.46-9.25,2.5-14.65,2.96-5.4,74.87-66.53,74.87-66.53-8.07-1.36-21.3,3.96-29.42,4.18-12.48.44-17.46-4.54-13.25-10.54,2.6-3.7,11.98-8.18,19.12-6.44s36.55-13.91,49.23-12.35c12.68,1.56,24.53,16.26,24.53,16.26,1.08.28,5.48.12,5.48.12.78,1.62,5.22,42.07,5.22,42.07Z"/>
  <path class="cls-28" d="M711.69,727.67c4.44-3.93,9.48-7.24,14.32-10.63,5.85-4.11,11.76-8.14,17.48-12.43,2.32-1.73,4.64-3.49,6.74-5.49.79-.76-.92-1.03-1.48-.5-4.24,4.03-9.26,7.33-14.02,10.7-5.8,4.1-11.67,8.11-17.41,12.29-2.32,1.69-4.65,3.39-6.8,5.29-.9.8.52,1.36,1.17.78h0Z"/>
  <path class="cls-28" d="M741.13,719.62c8.27-4.93,16.54-9.86,24.82-14.79,1.18-.7,2.36-1.41,3.55-2.11,1.03-.61.09-1.64-.8-1.11-8.27,4.93-16.54,9.86-24.82,14.79-1.18.7-2.36,1.41-3.55,2.11-1.03.61-.09,1.64.8,1.11h0Z"/>
  <g>
    <path class="cls-24" d="M974.53,275.15s-39.15,61.23-77.96,62.02c-38.82.79-27.66-34.7-27.66-34.7h0l-13.33,7.47s-3.03,18.17,2.32,26.5c5.34,8.33,25.35,14.27,49.91,10.19,14.41-2.39,32.76-12.3,43.48-23.38,12.83-13.26,38.08-43.7,38.08-43.7l-14.82-4.4Z"/>
    <path class="cls-2" d="M973.92,274.91c-3.5,5.47-7.45,10.7-11.49,15.78-8.56,10.78-18.02,21.03-28.81,29.63-10.67,8.5-23.51,16.14-37.55,16.3-6.61.08-13.76-.85-19.31-4.73-3.74-2.61-6.3-6.44-7.56-10.81-1.69-5.91-1.14-12.49.3-18.19.03-.11.06-.22.1-.33.19-.6-.6-.79-1.02-.55-3.95,2.21-7.91,4.43-11.86,6.64-.47.27-1.03.5-1.47.82s-.44.66-.51,1.17c-.34,2.38-.56,4.78-.67,7.18-.17,3.61-.12,7.26.44,10.84.49,3.17,1.38,6.49,3.41,9.04,3.9,4.92,10.61,7.32,16.49,8.78,9.47,2.36,19.49,2.48,29.14,1.29,9.33-1.15,18.12-4.14,26.45-8.48,8.22-4.27,15.96-9.64,22.39-16.34,4.87-5.08,9.53-10.36,14.16-15.65,7.79-8.91,15.44-17.93,23.01-27.03.14-.17.28-.33.42-.5.21-.25.14-.64-.2-.74-4.94-1.47-9.88-2.94-14.82-4.4-.66-.2-1.71.76-.83,1.02,4.94,1.47,9.88,2.94,14.82,4.4l-.2-.74c-4.93,5.94-9.91,11.83-14.93,17.7-4.24,4.95-8.5,9.88-12.83,14.76-3.97,4.47-7.91,9.07-12.27,13.17-5.94,5.58-12.85,10.15-20.1,13.84-7.13,3.63-14.7,6.42-22.63,7.58-8.62,1.26-17.46,1.47-26.08.06-6.07-.99-12.47-2.75-17.51-6.42-1.85-1.35-3.45-2.99-4.49-5.05-1.37-2.71-1.92-5.83-2.21-8.83-.5-5.09-.21-10.31.5-15.37.04-.29.08-.59.13-.88l-.41.5c4.44-2.49,8.89-4.98,13.33-7.47l-1.02-.55c-1.59,5.09-1.97,10.86-1.12,16.11.72,4.4,2.55,8.63,5.69,11.84,4.14,4.23,9.92,6.24,15.68,7,7.17.95,14.4.28,21.25-2s13.08-5.79,18.94-9.86c11.91-8.28,22.2-18.84,31.45-29.95,5.27-6.33,10.34-12.9,14.82-19.82.07-.11.14-.21.21-.32.5-.78-.84-1.06-1.22-.47Z"/>
  </g>
  <path class="cls-25" d="M849.05,879.17c-8.08-3.33-15.83-7.42-23.15-12.2-.66-.43-2.75.52-1.8,1.14,7.32,4.79,15.06,8.87,23.15,12.2.51.21,1.17.11,1.62-.2.28-.19.71-.73.19-.95h0Z"/>
  <path class="cls-5" d="M799.25,593.65c-.29-3.38-.61-6.75-.93-10.13-.8-8.45-1.67-16.89-2.59-25.32-1.2-10.99-2.5-21.96-3.96-32.92-1.46-11-3.07-22-5.03-32.92-.93-5.14-1.99-10.25-3.09-15.35-1.58-7.34-3.22-14.76-6.36-21.62-.73-1.59-1.54-3.14-2.42-4.64-.4-.68-2.31,0-1.82.83,3.83,6.53,5.9,13.85,7.57,21.18,1.28,5.6,2.48,11.23,3.54,16.88,2.02,10.71,3.64,21.5,5.11,32.3,1.51,11.03,2.84,22.08,4.08,33.15.99,8.86,1.91,17.74,2.77,26.61.27,2.8.53,5.59.79,8.39.11,1.22.01,2.73.35,3.92.01.05.01.12.01.17.07.8,2.06.35,1.98-.53h0Z"/>
  <path class="cls-5" d="M702.84,546.38c11.62,7.17,18.94,20.39,18.86,34.04,0,.31,1.98.04,1.98-.53.08-13.7-7.31-26.99-18.97-34.18-.48-.29-2.13.51-1.87.67h0Z"/>
  <path class="cls-12" d="M632.03,504.08l11.94-14.53s24.72-8.16,33.82-16.13c6.36-6.01,11.86-12.87,16.33-20.39l21.02-17.75s13.34-2.45,12.88-6.68c-.46-4.23-5.69-4.62-10.77-5.01s-73.3,18.16-73.3,18.16c3.52-6.42,7.58-12.53,12.14-18.27,7.07-8.75,5.7-16.87-.45-16.63-3.79.15-16.67,10.25-17.27,16.74-.61,6.49-14.58,12.12-20.48,21.94-5.89,9.82-2.89,25.15-2.89,25.15-2.46,5.6-7.58,12.68-7.58,12.68,4.28,10.19,24.61,20.72,24.61,20.72Z"/>
  <path class="cls-28" d="M711.34,438.84c.34-.83-1.22-2.14-1.73-2.52-1.1-.81-2.51-1.38-3.88-1.42-2.73-.07-5.62.81-8.14,1.77-2.32.88-4.55,2-6.66,3.3-.74.46-2.33,1.15-2.73,2-.02.07,0,.13.05.17.6.77,2.94-1.3,3.28-1.56l-1.15-.19c-2.88,2.27-5.51,4.84-7.84,7.67-2.28,2.79-4.53,5.76-5.97,9.08-.17.4,1.25.25,1.44-.2,1.4-3.24,3.63-6.17,5.86-8.89,2.27-2.77,4.84-5.26,7.65-7.48.64-.5-.82-.43-1.15-.19-.43.32-.86.64-1.31.94-.38.25-.68.25-.04.17l.57.09c.23.3-.21.29.15.13.16-.07.32-.24.46-.34.52-.37,1.06-.72,1.6-1.05,1.63-1,3.33-1.89,5.09-2.64,2.14-.91,4.39-1.63,6.71-1.92,1.47-.18,2.81-.02,4.11.73.54.32,2.52,1.7,2.18,2.52-.17.41,1.26.25,1.44-.2h0Z"/>
  <path class="cls-28" d="M688.34,441.6c-.37-.66-2.12-.12-2.63-.02-1.57.32-3.13.75-4.67,1.17-3.39.93-6.75,1.99-10.03,3.27-.94.37-1.89.73-2.77,1.22-.4.22-1.02.53-.96,1.07.07.63,1.52.28,1.45-.39.05.47-.19.18.09.15.09,0,.22-.12.3-.16.4-.21.81-.39,1.23-.56,1.27-.54,2.58-1.02,3.88-1.48,1.59-.55,3.19-1.08,4.8-1.54s3.25-.92,4.88-1.33c.78-.19,1.55-.39,2.34-.54.24-.04.47-.09.71-.11.49-.05.17.08.05-.13.3.54,1.69.02,1.33-.63h0Z"/>
  <path class="cls-28" d="M661.71,460.79c.86-.36.4-1.12.08-1.76-.69-1.36-1.68-2.6-2.76-3.67-3.05-3.03-7.3-4.97-11.62-5.03-.5,0-3.02-.03-2.97.87.02.35,1.47.08,1.45-.39.01.27-.48.24-.32.28.04,0,.24-.04.31-.05.28-.03.56-.03.84-.03.9.01,1.81.14,2.69.33,2.41.53,4.68,1.61,6.63,3.11,1.43,1.1,2.72,2.44,3.7,3.95.31.48.61.99.83,1.53.06.15.09.33.16.47.17.35-.34.26.43-.06-.17.07-.58.25-.41.49.15.21.78.03.94-.04h0Z"/>
  <path class="cls-12" d="M486.69,550.79l43.85,20.66,85.35-102.79c4.78,9.13,16.34,13.98,28.08,20.89,0,0-56.01,114.5-63.88,127.27-27.85,45.17-57.63,32.46-76.7,20.32-10.97-6.99-41.34-57.37-41.06-69.72.07-2.82,24.92-16.72,24.35-16.63Z"/>
  <path class="cls-12" d="M463.68,432.87s16.73,9.75,25.62,22.5c6.71,9.62,55,119.49,60.26,134.26-3.68,5.3,16.03,16.55,13.24,22.37-6.51,13.58-16.12,2.07-17.78,17.01-1.26,11.3-24.58,6.26-23.44,17.57-11.3-1.39-18.6-8.25-23.93-14.54-5.77-6.8-28.64-56.42-28.64-56.42l-5.32-142.75Z"/>
  <path class="cls-28" d="M614.38,471.05c3.63,3.92,8.36,6.7,13.54,7.99.32.08.8-.02,1.02-.27.2-.23.18-.47-.15-.55-5.01-1.25-9.57-3.96-13.08-7.74-.36-.39-1.75.15-1.34.58h0Z"/>
  <path class="cls-20" d="M868.42,161.98c-3.11.78-6.56-.72-8.3-3.36-1.86-2.82-1.64-6.73.38-9.39.21-.28-.18-.43-.4-.45-.34-.02-.75.13-.95.4-2.25,2.96-2.38,7.31-.16,10.32s6.15,4.11,9.63,3.24c.22-.06.7-.27.62-.57s-.62-.24-.83-.18h0Z"/>
  <path class="cls-16" d="M536.57,869.82c1.6-4.84,1.14,13.38,3.16,8.73,4.56-10.51,10.05-20.56,16.18-30.13,6.3-9.84,13.31-19.18,21.01-27.84,5.23-5.88,10.78-11.47,16.67-16.62-93.97-40.53-314.74-78.84-314.74-78.84,0,0-72.13,38.11-48.33,119.03,7.13,24.24,29.41,25.03,60.81,29.94,74.37,11.61,186.44,17.8,242.51,11.94.38-.04,2.36-16.17,2.73-16.21Z"/>
  <path class="cls-16" d="M537.25,888.42c2.17-4.39,4.56-8.67,7.1-12.82,5.75-9.38,12.33-18.17,19.45-26.42,7.32-8.48,15.26-16.37,23.76-23.51,5.77-4.85-11.63-20.3-5.31-24.35,23.68-70.66-333.86-49.48-333.86-49.48,0,0-23.21-29.79-23.86,59.62-.61,84.02,235.93,61.97,312.75,65.8.37.02-.39,11.13-.02,11.14Z"/>
  <path class="cls-16" d="M620.2,880.34c-20.5,58.6-65.78,224.35-94.02,295.21,0,0-77.66,3.95-83.51-13.92,0,0-1.69-396.91,45.91-403.32,35.09-4.73,94.79,7.98,112.91,22.88,21.74,17.88,34.86,53,18.72,99.15Z"/>
  <path class="cls-16" d="M582.24,841.07s-11.93-2.29-28.95-1.94c3.29-7.15,4.42-12.48,4.42-12.48-1.58-1.81-3.25-3.66-5-5.54-9.75,2.28-19.27,5.42-28.52,9.17-10.75,4.36-21.15,9.55-31.07,15.46-9.57,5.7-18.71,12.12-27.14,19.3-2.39,2.03-4.71,4.14-6.97,6.31.29.09-4.68-.65-4.39-.56-32.93,34.39-32.1,111.16-51.15,180.82-13.97,51.09-32.2,110.22-32.2,110.22,7.56,17.19,101.76,24.25,101.76,24.25,33.49-92.72,109.22-345,109.22-345Z"/>
  <path class="cls-15" d="M480.04,1173.54c.56-1.66,1.11-3.32,1.67-4.97,1.55-4.62,3.1-9.24,4.64-13.86,2.37-7.08,4.74-14.17,7.1-21.25,3.03-9.09,6.06-18.17,9.08-27.26,3.51-10.57,7.02-21.14,10.52-31.71,3.8-11.46,7.58-22.93,11.36-34.4,3.96-12.02,7.91-24.05,11.84-36.08,3.93-12,7.84-24.01,11.73-36.03,3.71-11.44,7.4-22.89,11.06-34.35,3.34-10.43,6.65-20.87,9.92-31.32,2.8-8.95,5.58-17.9,8.29-26.88,2.09-6.9,4.15-13.81,6.09-20.76,1.23-4.39,2.47-8.79,3.41-13.25,3.66-17.33,3.09-35.91-5.38-51.8-3.96-7.42-9.53-13.86-16.4-18.73-7.03-4.99-15.12-8.28-23.53-10.08-5.61-1.2-11.35-1.55-17.05-2.05-8.78-.77-17.56-1.54-26.34-2.31-11.51-1.01-23.01-2.02-34.52-3.02s-21.84-1.91-32.77-2.87c-7.02-.61-14.03-1.23-21.05-1.84-.98-.09-1.96-.17-2.93-.26-.5-.04-1.23.06-1.61.43-.29.28-.34.61.18.66,3.88.34,7.77.68,11.65,1.02,9.43.83,18.85,1.65,28.28,2.48,11.6,1.02,23.19,2.03,34.79,3.05,10.52.92,21.05,1.84,31.57,2.77,6.08.53,12.16,1.07,18.24,1.6,12.24,1.07,24.2,4.68,34.12,12.13,13.26,9.95,20.66,25.59,22.28,41.87,1.13,11.33-.46,22.64-3.31,33.6-1.53,5.89-3.23,11.73-4.95,17.57-2.38,8.07-4.84,16.12-7.32,24.16-3.04,9.82-6.12,19.63-9.23,29.44-3.51,11.06-7.05,22.11-10.61,33.15-3.79,11.76-7.6,23.51-11.43,35.25-3.92,12.04-7.86,24.08-11.82,36.12-3.87,11.79-7.76,23.59-11.65,35.37-3.64,11.01-7.28,22.02-10.94,33.03-3.25,9.78-6.5,19.56-9.76,29.34-2.69,8.09-5.39,16.17-8.09,24.26-1.96,5.86-3.92,11.71-5.88,17.57-1.05,3.13-2.1,6.25-3.15,9.38-.13.4-.27.79-.4,1.19-.21.62,2.04.33,2.27-.34h0Z"/>
  <path class="cls-15" d="M441.22,888.13c6.97-2.87,13.64-6.38,19.95-10.5.41-.27.24-.49-.15-.57-.5-.1-1.2.16-1.61.43-6,3.93-12.36,7.29-19,10.03-.27.11-.89.34-.66.71.19.32,1.27,0,1.48-.1h0Z"/>
  <path class="cls-12" d="M331.23,340.44s2.9,48.08-2.95,64.36c-1.42,3.95-26.35,15.66-26.35,15.66l99.83,50.12,50.41-41.75s-38.65-17.92-40.08-22.66c-1.42-4.74-.08-40.49-.08-40.49"/>
  <path class="cls-7" d="M231.88,461.58c4.5-10.22,28.5-27.38,39.04-32.4,27.44-13.05,51.96-24.22,51.96-24.22,0,0,30.56,40.55,72.67,33.15,42.12-7.4,20.95-29.44,20.95-29.44l13.14,3.98c19.73,7.16,34.59,14.44,49.97,28.85,13.09,12.26,26.87,22.81,30.93,39.55,3.14,12.93,6.53,12.21,13.27,35.4.92,3.17,15.02,42.7,15.03,43.32.05,2-10.67,34.15-29.39,40.59-9.48,3.26-7.51,3-11.64,5.01-.46.98-1.67,46.82-1.6,48.13,1.18,23.02,1.2,41.41,2.91,64.38.04.52,1.14,35.38,1.18,35.9-1.74.01-1.9.01-3.64.03-27.48.34-53.22-4.66-80.57-2.22-13.77,1.23-34.75-2.95-48.5-1.46-2.78.3-4.64.55-7.59.83-2.55.24-5.11.44-7.66.63-14.03,1.07-44.85-4.15-58.83-2.57-14.81,1.67-43.34,1.31-57.53,5.78-2.73.86-3.17,3.35-6.09,4.6-.46-5.73.25-28.54-.18-34.27-3.54-49.23,43.13-105.85,45.84-137.23l-31.29-9.46-29.99-15.11c7.43-55.08,6.37-76.18,17.6-101.73Z"/>
  <path class="cls-2" d="M495.92,511.16c.45,12.1.74,24.21.94,36.32.22,13.64.33,27.27.19,40.91-.06,5.74-.08,11.48-.25,17.22-.02.53.72.46,1.04.32,2.6-1.15,5.16-2.39,7.7-3.67,4.01-2.02,8.18-4.1,11.69-6.95.91-.74,1.9-1.54,2.43-2.61.99-2.02,1.83-4.13,2.75-6.19.85-1.92,1.71-3.85,2.56-5.77.33-.75-.99-.54-1.28-.24-2.15,2.15-4.64,4.01-7.14,5.71-5.45,3.69-11.58,6.56-18.12,7.56-.76.12-1.14,1.13-.15.98,6.74-1.03,13.05-3.86,18.71-7.61,2.78-1.84,5.53-3.9,7.9-6.27l-1.28-.24c-1.66,3.75-3.33,7.5-4.99,11.25-.45,1.01-.73,1.45-1.58,2.23-3.16,2.9-7.22,4.88-11,6.83-2.89,1.49-5.83,2.91-8.8,4.23l1.04.32c.36-11.55.34-23.12.3-34.67-.05-13.57-.26-27.13-.6-40.69-.16-6.36-.35-12.72-.58-19.08-.03-.71-1.48-.45-1.46.13h0Z"/>
  <path class="cls-12" d="M341.37,417.15c25.61,11.97,54.24,10.9,75.44-7.43-5.66-2.91-5.47-8.21-5.81-9.43-1.26-4.55-.88-35.66-.88-35.66l-80.47-25.97s5.66,48.93-.44,64.29c-.33.82-3.01,4.48-5.02,6.21,4.8,4.09,11.4,5.3,17.17,8Z"/>
  <path class="cls-28" d="M426.51,368.32c-2.52,4.52-4.8,9.21-7.51,13.61-.04.07-.06.13-.07.2-.25-.18-.57-.19-.79.15-1.9,2.97-3.79,4.25-5.44,7.4-1.42,2.71-1.24,6.77-1.22,9.95-2.12.46-6.12.32-8.81.64-18.28.6-18.78-1.83-43.94-16.39-7.99-4.62-6.79-10.92-8.33-12.03,25-1.98,49.92-2.19,76.12-3.53Z"/>
  <path d="M308.72,310.04s-4.38-11.75-10.38-40.04c-5.37-25.33,33.76-48.52,57.82-53.57,13.23-2.77,58.12.56,69.93,5.4,11.81,4.85,18.64,20.16,21.15,42.48,0,0-8.19-21.87-22.35-20.62-11.55,1.02-49.15-2.83-58.71,1.84-9.56,4.67-30.64,14.53-29.78,49.7.23,9.59-17.27.37-21.65,6.38-4.37,6.01-6.04,8.43-6.04,8.43Z"/>
  <path class="cls-12" d="M330.11,350.1l-5.59-34.32-3.65-38.53,13.66-30.05,26.81-14.71,31.25-.57s25.3,4.93,33.29,6.63c7.99,1.7,14.02,11.05,19.91,21.56,5.89,10.51,4.48,28.51,4.48,28.51.25.61-.29,3.37-.39,3.94-1.2,7.27-1.38,13.57-2.39,19-.47,2.58-.35,4.94.54,7.28,3.48,9.22,3.63,13.23,3.16,19-.65,7.87-1.76,14.61-4.34,20.9-2.73,6.68-6.22,13.92-6.94,15.34,0,0-7.86,15.05-9.65,16.58-1.79,1.53-4.51,3-5.81,3.2-1.3.21-18.41,2.15-18.41,2.15l-7.98.2c-2.72.07-5.41-.41-7.95-1.39-6.86-2.67-26.45-10.69-31.87-14.12-7.29-4.61-16.69-24.78-16.69-24.78"/>
  <path d="M336.06,316.4c.29,2.98.75,14.84,1.21,17.73l-15.45.38c-5.1-10.03-11.22-21.82-13.1-24.48-2.95-4.16-4.3-24.92-4.81-32.74l-.11-1.69c-.51-7.49,6.14-19.72,17.78-32.72,12.81-14.3,36.27-23.14,59.77-22.51,2.23.06,4.47.2,6.63.43,20.47,2.11,37.82,11.52,51.55,27.97,9.9,11.86,11.14,25.85,10.74,34.44-1.31-16.85-7.76-28.47-8.03-28.95-6.11-11.23-13.39-14.2-18.43-14.72-4.39-.45-7.61.86-8.25,1.15-4.9,1.33-12.17.97-17.42.43-3.91-.4-7.03-.94-7.88-1.09-2.7-1.71-6.69-2.87-11.56-3.37-11.29-1.16-27.46,1.53-30.6,6.61-3.48,5.64-11,25.51-10.86,30.06"/>
  <path class="cls-12" d="M331.61,350.8c-8.7,9.55-15.31-7.92-15.31-7.92-9.04-10.21-9.37-21.37-9.28-29.01.09-7.64,8.49-7.78,8.49-7.78,7.15.56,10.45,4.29,17.14,28.16"/>
  <path d="M439.58,245.99c-5.49-8.17-15.95-18.3-21.98-26.08-2.75-.16-16.32,0-19.17-.02-29.06-.18-67.44,17.87-70.81,28.55-2.1,6.66.7,42.47,2.08,45.69,3.78,8.83,5.56,20.5,5.56,20.5.73-13.49,9.83-28.82,10.88-33.47,1.05-4.66-5.87-26.32-4.41-27.3,1.46-.98,27.67-10,57.28-10.56,8.73-.17,17.5.3,25.31,1.07-.06-.09,15.33,1.71,15.27,1.62Z"/>
  <path d="M385.76,304.8c-1.8-.88-3.85-1.57-4.99-.52-.27.25-.99.96-1.3,2.13-.4,1.5.23,3.18,1.2,4.18,1.28,1.34,3.37,1.53,4.95.74,2.14-1.06,2.78-3.69,2.2-5.57-.11-.34-.61-.25-2.06-.96"/>
  <path d="M437.71,303.28c1.75-.96,3.85-.22,5.03.78.28.23,1.03.91,1.4,2.07.47,1.48-.08,3.18-.99,4.23-1.22,1.4-3.29,1.69-4.91.98-2.19-.96-2.96-3.55-2.47-5.46.09-.35.52-1.82,1.93-2.6"/>
  <path d="M423.28,310.7s6.97-7.31,12.18-7.92c7.61-.89,9.61.78,12.39,4.21,0,0-5.08-3.53-10.43-2.76-5.11.74-14.15,6.47-14.15,6.47Z"/>
  <path d="M397.62,308.98s-10.96-6.3-16.21-6.22c-7.66.12-16.59,5.01-18.9,8.78,0,0,11.74-7.14,17.14-7.08,5.16.06,17.97,4.52,17.97,4.52Z"/>
  <path d="M394.34,277.53c.61,1.71,1.22,3.44,1.82,5.16.46,1.31,1.61,4.27,2.06,5.58-4.58.39-8.94.08-11.81.57-5.7.97-11.66,1.6-16.8,4.37-2.46,1.33-4.5,2.8-6.2,4.9-.54.66-1.74,3.13-2.93,3.03-.49-.04-.55-2.4-.56-2.64-.11-4.76,2.92-7.84,7.04-10.45,8.4-5.32,17.66-8.37,27.36-10.52"/>
  <path d="M451.93,289.18s-2.62-1.66-2.64-1.68c-7.33-4.7-15.46-7.09-23.98-8.57-.56,1.73-1.13,3.47-1.69,5.21-.43,1.33-1.28,3.69-1.7,5.01,4.03.08,7.63-.21,10.16.09,5.01.59,10.31,1.14,14.8,3.53.35.19,3.35,1.43,3.69,1.63,2.29-1.9,1.91-4.62,1.37-5.22Z"/>
  <g>
    <path class="cls-3" d="M418.34,340.72c-2.21,1.25-5.63,1.06-7.92-.32-.51-.3-2.17.04-1.46.47,3.03,1.81,7.93,1.87,10.78.25.28-.16.23-.39-.14-.5-.38-.12-.97-.08-1.27.09"/>
    <path class="cls-3" d="M407.97,340.24c-1.52-.69-3.22-1.03-4.91-1.13-.25-.01-.56.09-.74.26-.14.13-.16.31.02.41.79.44,1.78.6,2.69.56.29-.01.66-.09.82-.35.14-.24-.14-.38-.36-.37-.75.03-1.52-.1-2.17-.46-.24.22-.48.45-.72.67,1.51.08,3.02.4,4.39,1.02.27.12.65.03.89-.12.18-.11.36-.37.09-.5"/>
    <path class="cls-3" d="M401.29,340.62c-1.97,0-4.31-.82-5.32-2.32-1.52-2.25-.25-5.89,2.18-7.42.26-.17.12-.37-.16-.42-.36-.07-.77.08-1.05.25-2.11,1.33-3.43,4.32-3.05,6.46.35,2,2.27,3.36,4.64,3.88.71.16,1.46.25,2.19.26.3,0,.83-.1.97-.35.14-.25-.13-.34-.41-.34"/>
    <path class="cls-3" d="M421.92,339.61c-.11-.23.08-.39.24-.39.53,0,1.07-.16,1.52-.55.18.21.36.43.54.64-1.06.14-2.12.53-3.06,1.2-.19.13-.46.06-.63-.09-.13-.11-.27-.36-.08-.49"/>
    <path class="cls-3" d="M420.44,339.94c1.05-.75,2.23-1.17,3.42-1.33.17-.02.4.07.53.23.1.13.13.3,0,.41"/>
    <path class="cls-3" d="M426.02,339.78c1.28-.08,2.77-1,3.36-2.53.9-2.31-.06-5.01-1.69-6.44-.18-.15-.09-.36.08-.43.23-.08.5.04.69.21,1.43,1.24,2.38,3.29,2.22,5.45-.15,2.01-1.34,3.45-2.86,4.06-.45.18-.93.31-1.41.34-.19.01-.55-.07-.65-.31-.1-.24.07-.35.25-.36"/>
  </g>
  <path class="cls-6" d="M411.54,355.49c-4.39.05-17.58.54-17.58.54,0,0,4.7,3.98,17.86,3.82,13.16-.15,17.45-4.08,17.45-4.08l-17.73-.29Z"/>
  <path class="cls-2" d="M321.55,405.61c3.1,4.91,7.12,9.37,11.23,13.43,8.87,8.76,19.5,15.92,31.42,19.76,7.15,2.3,14.67,3.36,22.19,3.09,7.74-.28,15.79-1.37,23.04-4.21,6.7-2.63,13.32-7.71,13.62-15.49.06-1.61-.1-3.33-.64-4.86-.17-.48-.43-.88-.7-1.31-1.32-2.16-2.63-4.31-3.95-6.47-.33-.53-.65-1.06-.98-1.6l-1.08.81c3.34,1.14,6.69,2.29,10.03,3.43l2.67.91c.25.08,1.28.62,1.53.52.16-.06-.15-.34-.2-.2-.04.1.17.5.2.6.28.88.52,1.78.72,2.68,1.41,6.29,1.4,13.9-2.4,19.41-2.82,4.08-7.38,6.81-11.82,8.81-6.44,2.91-13.47,4.49-20.47,5.26-7.91.87-16.13.9-23.98-.52-7.43-1.35-14.64-3.92-21.46-7.13-6.88-3.24-13.49-7.22-19.36-12.07-5.33-4.4-10.33-9.31-15.27-14.15-1.13-1.11-2.26-2.23-3.35-3.37-.37-.38-.82-1.13-1.28-1.39-.05-.03-.09-.11-.13-.15l-.34.75c3.91-2.14,7.82-4.29,11.73-6.43.86-.47.08-1.27-.65-.87-3.91,2.14-7.82,4.29-11.73,6.43-.24.13-.58.46-.34.75.95,1.18,2.07,2.24,3.14,3.31,4.44,4.46,9.07,8.73,13.72,12.98,11.47,10.5,26.13,18.1,41.27,21.65,7.82,1.84,15.97,2.15,23.97,1.62,7.45-.49,14.92-1.85,21.92-4.48,5.07-1.9,10.16-4.52,13.93-8.49,4.42-4.66,5.59-11.38,5.07-17.6-.21-2.48-.67-4.95-1.42-7.32-.33-1.04-.72-1.09-1.73-1.44-4.03-1.38-8.07-2.76-12.1-4.14-.35-.12-.69-.24-1.04-.36-.44-.15-1.45.21-1.08.81.97,1.59,1.94,3.18,2.92,4.77l1.88,3.09c.17.29.36.57.53.86.06.11.15.29.06.08.45,1.01.61,2.23.7,3.31.53,6.67-4,11.81-9.65,14.71-6.25,3.2-13.44,4.41-20.36,5.06-7.84.74-15.67.32-23.3-1.71-12.15-3.24-23.08-10.01-32.23-18.53-3.24-3.02-6.27-6.27-9.05-9.71-1.39-1.72-2.59-3.56-3.93-5.3-.06-.08-.11-.16-.16-.24-.35-.56-1.73,0-1.33.64Z"/>
  <path class="cls-27" d="M326.45,330.02c-1.17-3.61-2.52-7.19-4.37-10.51-.92-1.65-1.98-3.29-3.37-4.58-.57-.53-1.24-1.08-2.01-1.29-.98-.28-1.54.61-2,1.32-1.85,2.82-2.15,6.38-1.77,9.65.07.63,1.53.28,1.45-.39-.3-2.56-.15-5.25.9-7.64.36-.81.81-1.68,1.46-2.3l-.86.31c.1.01-.19-.09-.03,0,.07.04.41.16.25.09.47.22.89.55,1.28.89,1.98,1.78,3.34,4.33,4.46,6.7,1.25,2.63,2.26,5.38,3.16,8.15.21.64,1.65.24,1.45-.39h0Z"/>
  <path class="cls-27" d="M323.29,330.45c-4.89-.12-1.81,6.6-2.25,9.16,0,.04-.12.35-.11.39.05.18-.17-.04.02.05.04.02.37-.06.37-.06.01-.05-.65-1-.7-1.1-.65-1.43-1.02-3.01-1.34-4.55-.4-1.9-.6-3.54-.41-5.46.2-2.14.7-5.24,2.91-6.24.9-.41.1-1.26-.66-.91-2.22,1.01-3.11,3.47-3.51,5.71-.3,1.63-.44,3.36-.18,5.01.3,1.96.7,3.93,1.35,5.81.31.89.72,2.27,1.65,2.73.8.39,1.65-.15,1.95-.91.33-.82.14-1.84.02-2.68-.17-1.26-.46-2.52-.48-3.8-.01-.99.06-2.05,1.25-2.02.85.02,1.09-1.09.11-1.12h0Z"/>
  <path class="cls-27" d="M405.57,289.42c2.34-1.05,3.93-3.19,4.57-5.65.79-3.04,0-6.24-1.11-9.09-.22-.57-1.66-.15-1.45.39,1.01,2.6,1.76,5.45,1.24,8.24-.42,2.24-1.71,4.44-3.85,5.39-.25.11-.55.37-.37.66s.74.16.97.06h0Z"/>
  <path class="cls-23" d="M414.28,352.53c-6.56.08-20.97,4.9-23.85,7.88,0,0,6.59,9.37,21.8,9.18,15.21-.19,18.62-9.69,18.62-9.69,0,0-8.22-7.47-16.58-7.37Z"/>
  <path class="cls-17" d="M396.57,357.07s8.32-.83,14.96-.92c6.64-.08,14.97.54,14.97.54,0,0,1-5.4-11.04-5.24-12.04.15-18.89,5.62-18.89,5.62Z"/>
  <path class="cls-4" d="M414.16,366.96c-7.14-1.08-15.43-7.26-23.73-6.56,0,0,3.45,14.21,21.33,13.99,17.88-.23,19.1-14.5,19.1-14.5-8.31-.49-9.59,5.81-16.7,7.07Z"/>
  <path class="cls-4" d="M422,348.32c-3.76-.27-6.12,1.4-7.75,1.43-1.63.02-4.04-1.6-7.79-1.23-3.51.35-18.27,10.49-16.59,11.76,1.68,1.27,13.12-6.19,24.43-6.33,11.31-.14,15.45,7.12,17.1,5.8,1.65-1.31-5.88-11.17-9.4-11.43Z"/>
  <path class="cls-12" d="M221.96,601.59c21.64,2.5,43.23,5.39,64.87,7.9l-4.23,66.91,19.43,5.56,106.26,42.57-3.89,29.98s-80.86-1.97-106.16-7.76c-1.44-.33-39.01-6.19-48.2-9.52-15.92-5.77-21.68-14-26.15-26.33-5.55-15.31-5.42-45.98-4.23-61.93,1.18-15.81,1.71-31.6,2.3-47.38Z"/>
  <path class="cls-12" d="M404.27,723.44l-9.35,29.07,4,.48s31.75,9.79,39.55,9.43c7.8-.36,26.16,1.06,26.16,1.06-1.1,2.15-1.4,4.62-.87,6.97.8,2.66,2.65,4.89,5.13,6.15l8.82-11.63c1.86,5.77,7.18,1.87,7.18,1.87l6.52-10.31c1.98,7.24,9.01,2.35,9.01,2.35l4.31-14.75c1.71,2.57,3.92,4.78,6.48,6.5,3.35,1.85,4.88-4.01,4.88-4.01l-11.57-24.17-34.51-12.79-63.38,14.52-2.35-.73Z"/>
  <path class="cls-10" d="M504.42,745.08c-.21-.04.03-2.37-.04-6.33-.03-.99-.02-2.12-.13-3.19-.13-1.09-.68-2.09-1.54-2.77-2.1-1.87-4.36-3.54-6.75-5-2.53-1.58-5.05-2.9-7.4-4.15-2.34-1.25-4.4-2.39-6.18-3.12"/>
  <path class="cls-10" d="M491.97,755.3c.33-1.01,1.11-2.4,1.45-4.14.39-2.13.26-4.33-.38-6.4-.24-1.17-.62-2.31-1.13-3.39-.89-.91-1.95-1.63-3.12-2.13-5.02-2.61-9.96-4.44-13.3-6.27"/>
  <path class="cls-10" d="M477.24,764.99c-.22-.17.99-1.48,2.18-3.84.78-1.29,1.15-2.78,1.07-4.28-.22-1.76-1.28-3.31-2.85-4.14-1.67-.9-3.48-1.53-5.35-1.85l-4.77-1.13c-1.2-.3-2.3-.68-3-.82"/>
  <path class="cls-28" d="M286.11,676.58c-4.69-1.68-9.62.33-13.57,2.91-4.49,2.93-8.51,6.69-12,10.74-.68.79.95.93,1.4.41,3.07-3.57,6.53-6.8,10.35-9.56s8.25-5.08,12.81-3.45c.65.23,2-.7,1.01-1.05h0Z"/>
  <path class="cls-23" d="M865.88,238.63c7.99-.79,26.19,3.12,30.1,6.35,0,0-6.75,12.3-25.29,14.13-18.53,1.83-23.98-9.26-23.98-9.26,0,0,8.99-10.21,19.17-11.21Z"/>
  <path class="cls-17" d="M888.05,241.75s-10.24.12-18.33.91c-8.09.8-18.14,2.69-18.14,2.69,0,0-1.95-6.43,12.72-7.88,14.67-1.45,23.75,4.28,23.75,4.28Z"/>
  <path class="cls-4" d="M867.99,256.18c8.54-2.29,17.79-10.93,27.99-11.2,0,0-2.27,17.77-24.06,19.92-21.79,2.15-25.21-15.05-25.21-15.05,10.05-1.73,12.46,5.76,21.28,6.34Z"/>
  <path class="cls-4" d="M855.91,234.56c4.54-.84,7.64.88,9.63.68,1.99-.2,4.7-2.49,9.31-2.55,4.32-.06,23.66,10.29,21.79,12.06-1.87,1.77-16.81-5.75-30.59-4.39-13.78,1.36-17.84,10.76-20.02,9.38-2.18-1.37,5.63-14.4,9.89-15.19Z"/>
  <path class="cls-7" d="M221.28,509.57s-8.96,72.22-11.92,107.48c0,0,53.11,17.49,90.51,10.72,39.64-7.17-3.27-88.82-3.27-88.82l-75.33-29.38Z"/>
  <path class="cls-2" d="M276.75,457.43c2.92.46,6.06,2.49,8.41,4.42,7.33,6,11.56,15.07,14.15,23.98,2.28,7.84,3.4,15.99,3.91,24.12.71,11.38.33,22.86.12,34.26-.35,19.04-1.1,38.08-2.26,57.1-.36,5.97-.77,11.93-1.22,17.89-.14,1.83-.29,3.67-.44,5.5-.08.9-.29,1.9-.24,2.81,0,.12-.02.24-.03.36l.83-.48c-4.39.81-8.87,1.27-13.32,1.62-10.06.8-20.27.8-30.28-.59-10.28-1.42-20.49-4.12-30.48-6.87-5.18-1.42-10.35-2.93-15.44-4.67-.15-.05-.3-.11-.46-.16.12.04-.04.33.11-.02s.09-.95.12-1.33l.19-2.09c.22-2.43.44-4.86.66-7.29l-1.3.44c10.11,3.42,20.51,6.18,30.94,8.44,15.92,3.45,32.32,5.01,48.62,4.49,2.66-.08,5.4-.15,8.03-.61.67-.12,1.21-.94.21-.76-2,.35-4.06.43-6.08.52-6.73.3-13.49.08-20.21-.32-9.03-.54-17.92-1.66-26.78-3.47-7.46-1.52-14.85-3.39-22.17-5.48-3.82-1.09-7.63-2.22-11.4-3.49-.3-.1-1.26-.02-1.3.44-.33,3.65-.66,7.3-.99,10.96,0,.11.03.2.14.24,9.25,3.24,18.8,5.75,28.32,8.03,8.93,2.14,17.86,4.03,27.04,4.62,7.86.5,15.77.31,23.62-.38,4.01-.35,8.04-.78,12.01-1.51.22-.04.8-.17.83-.48.68-7.28,1.17-14.59,1.64-21.88,1.19-18.42,1.99-36.87,2.42-55.32.26-11.39.55-22.82.3-34.21-.2-8.93-1.03-17.9-3.08-26.61-2.32-9.81-6.32-19.97-13.82-27.01-2.7-2.53-6.44-5.35-10.24-5.94-.06,0-.11-.02-.17-.03-.44-.07-1.7.63-.89.76h0Z"/>
  <g>
    <path class="cls-12" d="M541.3,558.36s-26.89,26.51-21.27,48.08"/>
    <path class="cls-28" d="M540.64,558.39c-3.25,3.2-6.17,6.79-8.9,10.44-5.24,7.01-9.95,14.84-12.12,23.39-1.2,4.72-1.52,9.68-.32,14.43.1.41,1.56.03,1.45-.39-2.22-8.77.75-17.89,4.8-25.67,3.54-6.79,8.13-13.05,13.19-18.78,1.04-1.18,2.1-2.35,3.22-3.46.36-.36-1.04-.24-1.33.04h0Z"/>
  </g>
  <path class="cls-21" d="M902.67,234.52c-1.85-2-3.86-1.93-5.97-3.17s-2.45-2.88-5.47-2.61c-.83.07-2.08.93-2.87.81.22.03-1.64-1.31-2.28-1.43-2.25-.41-4.04.61-5.89,1.71l3.43-.92c-1.1-.14-2.19-2.07-3.43-2.48-1.3-.43-2.78-.26-4.1.06-2.96.72-4.03,2.16-5.16,4.79,1.75-.61,3.49-1.22,5.24-1.83l-.21-.05c-2.52-.64-8.04,3.1-4.06,4.11l.21.05c1.54.39,4.51-.14,5.24-1.83.74-1.72-1.01-.81.6.63.58.52,1.13.6,1.88.77,2.39.56,4.19-.47,6.2-1.62l-3.43.92c.96.06,2.04,1.32,3.1,1.55,1.31.27,2.38-.36,3.62-.26,1.56.13.72.63,2.18,1.72,1.53,1.14,3.39.28,4.9,1.92,1.82,1.97,8.31-.61,6.28-2.82h0Z"/>
  <path class="cls-21" d="M857.83,229.97c-2.4-.21-4.31.41-6.56,1.13-1.06.34-2.05.59-2.95,1.3-.47.37-1.06,1.65-1.3,1.82.86-.3,1.71-.6,2.57-.9-2.09.23-3.8-.54-5.85.62-.66.37-1.27.87-1.69,1.5-.46.69-.51,1.97-1.16,2.51l2.25-1.23c-3.68,1.25-5.14,2.1-5.5,6.14.67-.68,1.34-1.35,2-2.03l-.15.06c1.52.09,3.04.18,4.56.27-1.13-1.12-2.01-1.46-3.65-1.33-1.27.1-3.65.97-3.81,2.51-.16,1.53.86,2.33,1.49,3.62,1.29,2.61,7.97.53,6.8-1.82-.25-.5-1.51-1.98-1.45-2.5l-3.81,2.51.27-.02-2.75-.75c.22.19.43.39.63.6,1.17,1.16,3.19.86,4.56.27l.15-.06c.76-.33,1.92-1.08,2-2.03.04-.4.07-.81.1-1.21.33-1.1-.06-1.09-1.19.03.02-.13,2.26-.89,2.45-1.01.58-.36,1.29-.99,1.66-1.56s.38-1.78.81-2.24c-1.06.47-2.12.93-3.17,1.4,2.42-.25,4.3.52,6.55-1.06.41-.29.83-.59,1.14-1,.17-.18.29-.38.37-.62.3-.46.18-.49-.35-.08-.64.28-.69.34-.15.18.28-.06.55-.14.81-.25.68-.21,1.11-.48,1.81-.41,2.95.26,7.11-3.95,2.51-4.36h0Z"/>
  <path class="cls-21" d="M869.34,231l.97,4.94c.15.76.76,1.33,1.53,1.44,5.26.71,25.29,3.35,30.06,3.26.11,0-.41,1.98-.3,1.96l1.12-.08c1.78-.36.46-6.33-1.23-6.99-5.16-1.99-9.78-3.38-12.64-4.03-3.57-.82-13.45-2.75-17.76-2.68-1.13.02-1.97,1.06-1.74,2.17Z"/>
  <path class="cls-21" d="M860.32,229.94l1.34,4.38c.1.77-.26,1.5-.9,1.84-4.39,2.31-16.16,9.25-20.36,10.65-.1.03-.19.05-.3.07l-1.43.18c-1.67.21-1.98-3.59-.7-4.74,3.91-3.49,3.81-4.95,6.11-6.46,2.87-1.88,10.26-6.17,14.05-7.45,1-.34,2.04.4,2.19,1.52Z"/>
</svg>