<?xml version="1.0" encoding="UTF-8"?>
<svg id="Layer_1" data-name="Layer 1" xmlns="http://www.w3.org/2000/svg" viewBox="0 0 637.3 635.8">
  <defs>
    <style>
      .cls-1 {
        fill: #a7bcac;
      }

      .cls-2 {
        fill: #4f2f26;
      }

      .cls-3 {
        fill: #010101;
      }

      .cls-4 {
        fill: #133a43;
      }

      .cls-5 {
        fill: #653c29;
      }

      .cls-6 {
        fill: #231f20;
      }

      .cls-7 {
        fill: #331d17;
      }

      .cls-8 {
        fill: #231e1f;
      }

      .cls-9 {
        fill: #f1eef7;
      }

      .cls-10 {
        fill: #415c47;
      }

      .cls-11 {
        fill: #a66e53;
      }

      .cls-12 {
        fill: #0a2f44;
      }

      .cls-13 {
        fill: #67876f;
      }

      .cls-14 {
        fill: #26170f;
      }

      .cls-15 {
        fill: #c95843;
      }

      .cls-16 {
        fill: #1d170f;
      }

      .cls-17 {
        fill: #0f1516;
      }

      .cls-18 {
        fill: #f1ecf6;
      }

      .cls-19 {
        fill: #151210;
      }

      .cls-20 {
        fill: #bc5a27;
      }

      .cls-21 {
        fill: #542d24;
      }

      .cls-22 {
        fill: #6e1810;
      }

      .cls-23 {
        fill: #d68828;
      }

      .cls-24 {
        fill: #e98624;
      }

      .cls-25 {
        fill: #4f2e25;
      }
    </style>
  </defs>
  <path class="cls-11" d="M302.62,233.08c15.22-21.81-50.02,76.35-50.02,76.35l-100.77-29.94c.45,7.57-6.86,12.47-11.65,21.42,0,0,59.17,29.61,68.87,34.72,61.06,32.22,75.73,15.36,93.29-7.85,5.86-7.74,36.47-48.58,31.51-56.09-1.12-1.73-31.67-38.45-31.28-38.62h.06Z"/>
  <path class="cls-11" d="M381.64,282.55c-21.25,6.4-30.84,7.9-61.56,15.14-19.07,4.51-35.52,6.51-44.33-3.84-22.86-24.21-28.33-66.33-34.52-83.03-3.46-9.79.17-20.7,8.81-26.43l34.96,26.6,13.89,51.81,3.12,4.9,71.27-4.4"/>
  <path class="cls-25" d="M148.94,368.09c3.18,4.62,5.35,11.13,1.67,16.14-.5.67.78.78,1.12.33,3.9-5.34,1.9-12.08-1.51-17.03-.33-.45-1.56,0-1.23.56h-.06Z"/>
  <path class="cls-11" d="M197.12,609.55s4.8,14.52,14,14.86c9.2.28,44.33-5.95,44.33-5.95,0,0-23.92-16.53-26.15-20.65-1.23-2.28,8.09-75.79,13.44-110.35,3.74-23.98,4.63-43.13,4.63-43.13l-42.55,2.67-5.58,35-2.01,6.68c-1.06,3.51-2.62,9.68-2.96,13.3-1.06,9.74-2.34,26.21-2.06,31.16.45,8.46,5.58,29.44,5.86,32.44l3.57,26.54-4.52,17.47h0v-.06Z"/>
  <path class="cls-11" d="M153.73,602.53s1.39,22.43,10.6,22.76c9.2.28,41.82-12.97,41.82-12.97,0,0-21.13-15.8-23.37-19.92-1.23-2.28,7.81-69.56,13.16-104.06,3.74-23.98,4.63-43.13,4.63-43.13l-42.55,2.67-5.58,35-2.01,6.68c-1.06,3.51-2.62,9.68-2.96,13.3-1.06,9.74-2.34,26.21-2.06,31.16.45,8.46,5.58,29.44,5.86,32.44l3.57,26.54-1.12,9.52h0Z"/>
  <path class="cls-12" d="M128.19,497.8c5.74.72,10.6,4.17,25.99,7.4,6.69,1.39,17.57,3.73,24.37,3.95,6.75.22,6.86.67,13.49-.67,2.12-.39,14.05-1.84,16.12-2.34l1.73-9.79,5.63-98.78,8.76-49.81-98.09-25.21-3.46,30.33c-2.34,13.91-1.95,20.98-.39,35l5.24,25.54c1.51,5.34,2.23,10.85,2.12,16.42-.33,18.64-1.17,62.49-1.45,67.95h-.06Z"/>
  <path class="cls-12" d="M231.52,499.47c8.87-.33,20.41-1.28,26.99-6.4l2.4-152.76-43.61,4.67-15.5,149.47c9.81.45,19.91,5.45,29.78,5.06h0l-.06-.06Z"/>
  <path d="M209.83,494.41c.28-4.01.56-7.96.84-11.96.61-9.13,1.23-18.2,1.84-27.27.67-9.91,1.34-19.81,2.01-29.72.45-6.4.89-12.85,1.28-19.25,0-.56.11-1.11.11-1.67,0-.11.06-.39,0,0,.11-.39.33-.72.56-1.06,1-2,2.12-3.95,3.35-5.9,1.34-2.11,2.84-4.34,4.74-6.01.33-.28.78-.61,1.12-.78q.45-.22.84-.22c1.06,0,1.56-1.39.22-1.34-2.23.11-4.13,2-5.46,3.62-1.78,2.11-3.29,4.45-4.68,6.84-.84,1.5-1.78,3.01-2.45,4.56-.11.28-.11.56-.17.89-.39,5.51-.72,10.96-1.12,16.47-.67,9.74-1.34,19.48-1.95,29.22-.67,9.63-1.28,19.25-1.95,28.83-.33,4.95-.78,9.91-1,14.8v.22c-.06.95,1.95.61,2.01-.17h0l-.11-.11Z"/>
  <path class="cls-11" d="M234.42,149.44c-1.45-.22-2.12-.33-3.57-.61-5.86-1.11-11.88-2.34-17.57-4.01-8.81-2.62-15.5-8.63-22.42-14.3-.39,5.62-1.56,12.47-4.07,16.14v1.67c10.82,20.7,17.18,32.72,60.11,24.21l-11.82-22.48-.67-.61Z"/>
  <path class="cls-11" d="M261.14,100.19c.28-2.56.61-5.56.95-9.18.11-1.06.17-2.06.22-3.06,0-.5,0-1.06.11-1.56.78-17.7-4.35-27.38-4.35-27.38-6.58-12.24-19.13-20.09-33.07-20.59-16.34-.89-31.84,7.85-40.26,17.25-4.18,4.62-6.52,10.68-6.52,16.92,0,5.34,2.84,10.52,3.79,16.36-5.69-.67-11.43.95-10.15,11.57,1.73,14.69,10.76,19.87,15.45,16.25,1,.28,2.57,6.84,2.57,9.85,0,.22-1.28,16.14-1.28,16.36,7.14,5.79,22.19,8.29,31.12,11.07,5.58,1.78,6.13,1,11.93,2.06,1.39.28,1.73-4.23,3.18-4.01l.5-6.34c.39,0,.78,0,2.68-.39,13.38-2.39,20.58-19.25,21.86-25.77,1.06-5.51,1.78-16.03,1.34-19.48h0l-.06.06Z"/>
  <path class="cls-1" d="M269.89,251.56s-1.51,12.52-2.29,26.27c-.67,12.52-5.68,44.18-4.96,71.17-10.32,3.45-11.77,8.79-33.4,8.96-11.99.11-22.47,1.17-34.3-.89-23.37-4.01-48.29-11.85-70.32-20.53-1-.61,4.41-31.44,5.13-34.28,2.4-9.24,6.13-18.31,7.08-27.82,1.62-16.53,1.39-21.09,4.96-30.66.72-1.95,8.59-8.68,12.99-23.87,0,0-15.73-6.46-20.91-10.35,0,0-9.2-42.29,23.59-53.03,9.2-3.01,19.52-11.57,29.05-13.69,0,0-1.95,20.26,32.12,23.87,20.24,2.17,18.79-16.36,18.79-16.36"/>
  <path class="cls-1" d="M238.89,151.5c11.32,3.9,20.3,10.35,32.9,21.54,6.86,6.12,11.38,16.53,13.61,25.38,2.29,9.13,10.65,37.17,11.65,42.07,0,0-4.24,10.74-32.01,13.91"/>
  <path class="cls-7" d="M235.32,145.83s-15.61.06-28.89-10.18c0,0,1.34,4.79,10.99,9.07,9.65,4.28,17.68,3.67,17.68,3.67l.17-2.5h0l.06-.06Z"/>
  <ellipse class="cls-6" cx="254.75" cy="95.21" rx="3.51" ry="3.46" transform="translate(76.18 300.33) rotate(-69.45)"/>
  <path class="cls-19" d="M259.02,92.57c-1.56-1.17-3.79-2.06-7.19-2-5.41,0-8.36,6.57-8.36,6.57,0,0,3.29-4.9,8.59-5.12,2.57-.11,6.64,1.73,8.53,2.89,0-.5-.61-1.61-1.56-2.34h0Z"/>
  <path class="cls-25" d="M177.54,102.64c-.45-1.73-.67-4.12.5-5.62l-.84.33c.11,0-.17-.06,0,0,.17.11.06,0,.22.06.45.22.84.5,1.23.83,2.01,1.84,3.4,4.51,4.57,6.9l1.23-.45c-.61-.5-1.39-.89-2.17-.78-1,.11-1.62.89-1.73,1.89-.33,2.28,1.67,3.62,3.68,4.01.28,0,.72,0,.89-.22.17-.17.17-.39-.11-.45-1.56-.28-3.07-1.17-3.18-2.89,0-.56.11-1,.33-1.5.06-.17.22-.11,0-.11.06,0,.17,0,.22.06.17.06.28.11.45.22s.33.22.5.33c.22.22,1.45,0,1.23-.45-.89-1.84-1.9-3.67-3.12-5.34-.61-.83-1.34-1.67-2.23-2.28-.39-.28-.78-.5-1.23-.56-.67-.11-1.12.28-1.39.83-.84,1.67-.78,3.67-.33,5.51.11.45,1.39.11,1.28-.33h0Z"/>
  <ellipse class="cls-16" cx="218.63" cy="92.77" rx="3.51" ry="3.46" transform="translate(55.01 264.92) rotate(-69.45)"/>
  <path class="cls-19" d="M228.12,95.8s-4.68-7.46-10.65-7.4c-8.36,0-10.09,3.34-11.93,5.9,0,0,5.52-4.62,11.99-4.45,5.86.11,10.54,6.01,10.54,6.01h0l.06-.06Z"/>
  <path class="cls-5" d="M235.65,121.29c-5.02-.39-14.39-2.45-14.39-2.45,0,0-.33,13.36,13.55,14.25,11.6.72,12.77-11.19,12.77-11.19,0,0-6.91-.22-11.93-.61h0Z"/>
  <path d="M235.71,121.29c-2.4-.17-11.21-1-11.21-1,0,0,2.06,7.68,10.65,8.35,9.31.72,10.71-6.07,10.71-6.07l-10.09-1.34h0l-.06.06Z"/>
  <path class="cls-9" d="M235.71,122.4c-2.4-.17-9.54-1.17-9.54-1.17,0,0,2.68,2.17,9.81,2.73,7.14.56,9.31-1.17,9.31-1.17l-9.54-.45h0l-.06.06Z"/>
  <path class="cls-5" d="M247.53,121.84c0-.28-.5-.39-1.67-.61-1.95-.33-2.51-1.06-3.96-1.28-2.4-.39-4.02.45-5.07.33s-2.51-1.11-4.96-1.17c-1.45,0-4.63-.39-6.64-.39-1.17,0-4.29-.72-4.52-.67-.33.06,1.62,4.06,14.89,5.12,13.27,1.06,11.93-1.06,11.93-1.39v.06Z"/>
  <path d="M228.57,81.83c0-.11-.39-.17-.39-.33-6.3-2.39-11.21-3.17-13.05-3.06-1.39.11-2.79.5-4.18,1.06,0,0-3.74,1.61-4.29,2.34-.56.78,2.17-.17,2.17-.17.56-.11.95-.28,1.56-.28,3.12-.11,6.19-.67,9.26.11,2.62.67,5.97,2.73,8.36,4.06.28-1.34.22-2.56.56-3.84h0v.11Z"/>
  <path d="M243.63,84c0-.11.33-.11.33-.22,5.8-1.34,10.15-1.28,11.71-.83,1.17.33,2.34.95,3.4,1.78,0,0,3.01,2.17,3.35,3.01s-1.84-.5-1.84-.5c-.5-.17-.78-.45-1.28-.56-2.68-.67-5.24-1.73-7.97-1.45-2.34.22-5.52,1.73-7.81,2.62,0-1.34.22-2.56.11-3.9h0v.06Z"/>
  <g>
    <path class="cls-1" d="M268.78,255.12c2.17-14.86,2.96-29.1,2.96-29.1,0,0-.22-14.08,2.9-21.48"/>
    <path class="cls-10" d="M270.28,254.06c1.28-8.9,2.23-17.92,2.84-26.88.28-3.84.17-7.68.5-11.52.39-4.12.89-8.4,2.51-12.24.11-.22-.84-.11-.95.17-1.39,3.39-1.95,7.12-2.34,10.8-.33,3.01-.5,6.07-.5,9.07,0,4.28-.5,8.63-.89,12.91-.56,5.95-1.23,11.91-2.12,17.86,0,.28.89.11.95-.17h0Z"/>
  </g>
  <g>
    <path class="cls-19" d="M187.86,102.75c0-.11-.22-.45-.28-.56-.61-2.11-2.17-6.01-3.79-7.62-.72-.72-1.62-1.56-2.57-2.06s-1.95-1.11-3.01-1.28c-1.51-.5-3.01-.56-4.52-.22-.28.11-.5.17-.78.28-3.01-12.8-6.08-25.6,4.18-40.4,2.96-4.28,10.26-8.68,12.49-10.13,13.61-8.51,25.21-8.46,39.37-6.07,16.39,2.73,29.28,12.3,31.95,29.22.67,4.06.45,2,.61,5.56,0,0-.39-8.01-8.03-13.24-7.64-5.29-9.54,1.61-20.86,1.11-13.05-.67-16.9-8.01-27.71-3.28-9.93,4.34-13.27,12.47-13.27,12.47-1.84,5.56-4.68,9.18-3.57,15.8.28,1.56.5,3.17.67,4.73-.11,2.89,1.73,4.62,1,7.4-.33,1.39.61,7.12-.67,7.9-1.39.83.11.89-1.28.33h0l.06.06Z"/>
    <path class="cls-6" d="M188.08,102.7c-.06-.22-.17-.39-.28-.61-.11-.28-.17-.5-.28-.78-.22-.61-.45-1.17-.67-1.73-.5-1.22-1.06-2.45-1.73-3.56-1.56-2.5-4.13-4.17-6.91-4.95-.89-.28-1.78-.39-2.73-.39-.5,0-.95.06-1.39.17-.39.06-.78.22-1.17.39h.28c-1.17-4.84-2.29-9.74-2.73-14.75s0-10.52,1.73-15.47c1-2.89,2.34-5.68,3.96-8.24.72-1.17,1.51-2.28,2.4-3.34.84-.89,1.73-1.73,2.62-2.5,1.84-1.56,3.79-2.95,5.8-4.28,1.78-1.17,3.57-2.34,5.41-3.34,5.02-2.84,10.54-4.73,16.28-5.45,5.46-.67,10.99-.33,16.45.45,4.91.67,9.81,1.67,14.39,3.56,4.07,1.67,7.92,4.01,11.21,6.96,3.23,3.01,5.86,6.62,7.58,10.63.95,2.11,1.62,4.4,2.12,6.68.28,1.22.45,2.45.67,3.67.11.5.17,1,.22,1.5.06.78.06,1.56.11,2.34l.39-.11c0-.72-.17-1.39-.33-2.11-.39-1.73-1.06-3.34-1.9-4.9-1.17-2.11-2.79-4.01-4.74-5.51-1.56-1.28-3.4-2.45-5.46-2.73-1.51-.22-2.96.06-4.41.56-1.67.56-3.35,1.28-5.07,1.73-5.02,1.34-10.43.78-15.39-.72-3.85-1.17-7.53-3.06-11.6-3.34-4.8-.33-9.54,1.89-13.33,4.67-2.96,2.17-5.52,4.95-7.36,8.12-.33.61-.67,1.22-.89,1.89-.84,2.45-2.01,4.79-2.84,7.29-.84,2.62-1,5.34-.56,8.07.28,1.67.61,3.34.67,5.01,0,1.34.45,2.5.84,3.78.17.61.33,1.22.33,1.84s-.11,1.17-.22,1.73c-.11.78,0,1.56,0,2.28,0,1,.11,2.06,0,3.06,0,.67,0,1.61-.5,2.11-.22.28-.67.39-.84.72-.06.17,0,.28.17.28,0,0,.28-.06.22-.17-.11-.22-.5-.33-.67-.39-.11,0-.45.11-.33.17.11.06.56.22.61.33l.22-.17h.17c-.11-.17.56-.56.67-.67.22-.17.33-.39.39-.67.28-.78.28-1.61.28-2.45,0-1.67-.28-3.45,0-5.06.22-1.22,0-2.39-.39-3.56-.17-.61-.39-1.17-.5-1.78-.17-.72-.11-1.39-.22-2.11-.17-1.61-.45-3.28-.67-4.9-.22-1.45-.28-2.89-.11-4.34.28-2.45,1.23-4.79,2.17-7.01.5-1.22,1-2.45,1.45-3.73.06-.22.17-.45.28-.67,1.28-2.62,3.18-4.95,5.3-6.96,1.84-1.73,3.9-3.17,6.13-4.34s4.57-2.06,7.08-2.28c3.96-.39,7.64,1.28,11.32,2.56,4.68,1.67,9.7,2.73,14.72,2.11,2.01-.22,3.96-.78,5.86-1.45,1.51-.56,2.96-1.17,4.52-1.45,1.67-.28,3.23.11,4.74.83,2.23,1.11,4.24,2.89,5.8,4.84,2.01,2.56,3.46,5.68,3.85,8.9v.5c0,.11.39,0,.39-.11,0-.78,0-1.61-.11-2.39,0-.56-.17-1.06-.28-1.61-.45-2.5-.84-4.95-1.62-7.35-1.39-4.28-3.68-8.24-6.69-11.52s-6.58-5.84-10.54-7.79c-4.24-2.11-8.81-3.45-13.44-4.23-5.58-.95-11.21-1.61-16.84-1.28s-10.93,1.56-15.95,3.78c-2.57,1.11-4.96,2.5-7.36,4.01-1.73,1.11-3.46,2.23-5.13,3.45-2.01,1.45-3.96,3.01-5.63,4.84-.89,1-1.62,2.11-2.34,3.23-.84,1.34-1.62,2.73-2.34,4.17-2.4,4.95-3.62,10.41-3.62,15.92,0,5.06.95,10.07,2.06,14.97.28,1.22.56,2.45.84,3.67,0,.11.22,0,.28,0,1.73-.61,3.4-.5,5.13,0,1.51.39,2.96,1.11,4.18,2.11.95.78,1.78,1.61,2.4,2.67.67,1.11,1.23,2.28,1.73,3.45.28.61.5,1.22.72,1.84.11.28.17.5.22.78.06.22.22.45.28.67,0,.11.45,0,.39-.11h0l.11.06Z"/>
  </g>
  <g>
    <path class="cls-3" d="M238.5,115.11c-1.23.56-3.01.33-4.13-.45-.28-.17-1.12-.06-.78.17,1.51,1.06,4.07,1.22,5.63.5.17-.06.11-.17,0-.28-.17-.06-.5-.06-.67,0"/>
    <path class="cls-3" d="M233.09,114.5c-.78-.39-1.67-.67-2.51-.78-.11,0-.28,0-.39.11-.06.06-.11.17,0,.22.39.28.89.39,1.39.39.17,0,.33,0,.45-.17.11-.11-.06-.22-.17-.22-.39,0-.78-.11-1.12-.33-.11.11-.28.22-.39.33.78.11,1.56.33,2.23.67.11.06.33,0,.45,0s.22-.17.06-.28"/>
    <path class="cls-3" d="M229.57,114.44c-1-.06-2.23-.56-2.68-1.39-.72-1.22.11-3.17,1.45-3.84.17-.06.06-.17-.06-.22-.17,0-.39,0-.56.11-1.17.61-1.95,2.23-1.84,3.34.11,1.06,1.06,1.78,2.29,2.17.33.11.78.17,1.12.22.17,0,.45,0,.5-.17.11-.11-.06-.17-.22-.17"/>
    <path class="cls-3" d="M240.39,114.66c0-.11.06-.17.17-.17.28,0,.56,0,.84-.22.11.11.17.22.28.33-.56,0-1.12.17-1.62.5-.11.06-.22,0-.33-.06-.06-.06-.11-.17,0-.28"/>
    <path class="cls-3" d="M239.61,114.77c.56-.33,1.23-.5,1.84-.56.11,0,.22,0,.28.11,0,.06.06.17,0,.22"/>
    <path class="cls-3" d="M242.57,114.89c.67,0,1.51-.39,1.84-1.17.56-1.17.17-2.56-.67-3.34-.11-.11,0-.17.06-.22.11,0,.28,0,.33.11.72.67,1.12,1.78.95,2.84-.17,1-.84,1.73-1.67,1.95-.22.06-.5.11-.78.11-.11,0-.28-.06-.33-.17,0-.11,0-.17.17-.17"/>
  </g>
  <g>
    <path class="cls-1" d="M235.76,147.38s-.11,16.03-13.49,19.64c0,0,11.71,4.34,14.72,13.02,0,0,9.37-5.45,12.16-24.87,0,0-5.07-4.73-9.81-6.96-4.68-2.23-3.51-.83-3.51-.83h-.06Z"/>
    <path class="cls-10" d="M235.26,147.44c0,1.78-.33,3.62-.78,5.4-.89,3.67-2.62,7.29-5.35,9.96-1.95,1.89-4.35,3.23-6.97,3.95-.28.06-.61.45-.17.61,4.24,1.61,8.48,4.34,11.43,7.74,1.34,1.5,2.4,3.23,3.07,5.12.11.28.5.28.67.17.89-.5,1.67-1.28,2.45-2,2.01-2,3.68-4.4,5.02-6.9,2.23-4.17,3.62-8.74,4.52-13.36.11-.67.28-1.39.33-2.06.06-.39.22-.78,0-1.11-.28-.39-.78-.72-1.12-1-1.78-1.56-3.68-3.01-5.69-4.28-1.28-.83-2.68-1.56-4.07-2.17-.72-.33-1.62-.78-2.45-.83-.56,0-1.23.39-.78.95.28.33,1.17,0,.84-.39-.06-.06-.11-.17-.11-.17,0,0-.33.33-.33.28h.17c.28.17.67.17.95.28,2.29.83,4.46,2.11,6.41,3.51,1.62,1.11,3.18,2.34,4.68,3.67.17.17.39.28.5.45,0,0,.11.11.17.11.06.17,0,0,0,.11,0,0-.11.28-.11.33,0,.17-.06.39-.11.56,0,.33-.11.67-.17.95-.11.67-.22,1.34-.39,2-1.39,6.62-3.96,13.47-8.76,18.42-.56.56-1.17,1.11-1.78,1.61-.17.11-.33.28-.5.39-.06,0-.33.22-.11.06l.67.17c-2.12-5.95-7.81-9.96-13.33-12.52-.5-.22-1.06-.5-1.56-.67l-.17.61c4.52-1.22,8.25-4.12,10.6-8.18,1.73-2.95,2.73-6.29,3.12-9.68.11-.67.17-1.39.17-2.11s-.95-.33-.95.06h0Z"/>
  </g>
  <g>
    <polyline class="cls-1" points="221.26 166.86 222.94 167.7 222.32 199.19 215.41 198.58"/>
    <path class="cls-10" d="M220.99,167.2l1.62.83-.22-.28c-.06,3.56-.11,7.07-.22,10.63-.11,5.68-.22,11.3-.33,16.97,0,1.28,0,2.62-.06,3.9l.61-.39c-2.29-.22-4.63-.39-6.91-.61-.45,0-.95.67-.33.67,2.29.22,4.63.39,6.91.61.22,0,.61-.11.61-.39.06-3.56.11-7.07.22-10.63.11-5.68.22-11.3.33-16.97,0-1.28,0-2.62.06-3.9,0-.17-.06-.22-.22-.28l-1.62-.83c-.39-.22-1.06.39-.56.67h.11Z"/>
  </g>
  <ellipse class="cls-13" cx="218.02" cy="176.4" rx="1.84" ry="2.34" transform="translate(23.79 378.69) rotate(-85.14)"/>
  <ellipse class="cls-13" cx="217.19" cy="186.13" rx="1.84" ry="2.34" transform="translate(13.34 386.77) rotate(-85.14)"/>
  <path class="cls-11" d="M202.53,599.36c1,3.34-.17,10.74-1.06,14.47-1,4.28.95,7.51,5.86,9.29,4.13,1.5,6.25,1.39,10.76,1.17,5.86-.33,12.1-1.39,17.96-1.67,5.02-.28,20.8-1.61,25.71-.83,7.7,1.28,12.38.17,15.78-1,.95-.33,1.51-.28,1.95-.95,1.12-1.78,1-3.73-1.56-5.23-3.18-1.89-6.97.78-9.98-1.45-.5-.39-1-.83-1.62-1.11-1.17-.56-2.62-.39-3.96-.39-6.75.11-6.25-2.67-15.11-4.84-2.62-.61-15.5-7.96-17.9-9.02l-5.52-23.82-20.24-1.28-1.06,26.71h0v-.06Z"/>
  <path class="cls-11" d="M154.35,597.19c.39,3.78-1.06,9.13-2.01,17.08-.45,3.51-3.68,8.51.61,11.02,7.64,4.45,18.68,2.95,22.14,3.62,7.25,1.45,11.43,1.17,18.4,3.06,7.03,1.95,8.53,2.39,16.23,2.78,1.06,0,2.17,0,3.12-.39.61-.28,1.12-.72,1.73-1,2.17-1,4.96.28,7.47,0,1.12-.11,2.12-.56,3.12-.89,2.73-.89,5.69-1.22,8.59-1.73,2.9-.56,5.8-1.39,7.81-3.06s2.73-4.45,1-6.29c-2.62-2.78-5.97-1.11-9.54-1.39-3.51-.22-4.85-.72-7.97-1.95-7.97-3.06-9.2-3.67-15.95-6.07-5.24-1.84-18.51-5.4-25.87-9.63l-3.85-17.58"/>
  <g>
    <path class="cls-25" d="M215.02,633.31c.78-.22,1.39-.67,1.62-1.45.22-.67.11-1.34-.17-1.89-.72-1.28-2.29-2-3.57-2.5-.78-.33-1.62-.61-2.4-.89-.17-.06-.45,0-.61.06,0,0-.45.22-.28.28,1.28.5,2.62.95,3.85,1.56,1.06.56,2.29,1.45,2.4,2.78,0,.56-.22,1.67-.89,1.84-.11,0-.45.11-.45.28s.45,0,.5,0h0v-.06Z"/>
    <path class="cls-25" d="M222.1,633.42c.89,0,1.73-.39,2.12-1.22.33-.72.33-1.67.22-2.45-.17-.89-.5-1.61-1.23-2.23-1-.89-2.29-1.34-3.57-1.73-1.45-.45-2.79-1.28-4.35-1.22-.17,0-.5.06-.61.22s.06.28.22.22c1.17,0,2.29.56,3.4.95s2.23.67,3.23,1.28c.78.45,1.51,1.11,1.78,1.95.22.67.33,1.39.22,2.11-.06.61-.28,1.56-1.06,1.56-.17,0-.5.06-.61.22s.06.28.22.22h0v.11Z"/>
    <path class="cls-25" d="M227.62,631.75c1.9-.61,2.57-2.89,1.62-4.56-.95-1.67-2.96-2.62-4.68-3.28-1.12-.45-2.34-.83-3.57-1.06-.22,0-.45,0-.67.11-.06,0-.33.22-.11.28,1.23.22,2.45.61,3.62,1.06s2.23.95,3.18,1.73c.84.67,1.51,1.5,1.67,2.56.17,1.06-.33,2.56-1.39,2.89-.11,0-.39.17-.28.28s.5,0,.61,0h0Z"/>
    <path class="cls-25" d="M232.86,630.91c2.06-.83,3.96-3.67,2.51-5.79-.61-.89-1.56-1.45-2.51-1.95-1.06-.56-2.17-.95-3.35-1.28-.56-.17-1.12-.33-1.67-.5-.72-.22-1.45-.5-2.17-.5-.5,0-.72.61-.11.61.56,0,1.17.28,1.67.45.45.17.89.28,1.34.39,1,.28,1.95.61,2.9,1.06s1.84.89,2.57,1.56,1,1.5.84,2.5c-.22,1.34-1.17,2.5-2.4,3.01-.17.06-.33.22-.22.45s.45.11.61,0h0Z"/>
  </g>
  <path class="cls-25" d="M197.56,606.21c4.74,2.39,9.54,4.62,14.39,6.79,3.79,1.67,7.53,3.28,11.43,4.73,2.79,1.06,5.8,2.23,8.81,2.5,1.45.11,2.79-.39,4.24-.5s2.84,0,4.07.83c.78.56,1.67,1.17,2.23,2,.17.22,1-.17.95-.28-.33-.56-.89-1-1.39-1.39-1-.83-2.01-1.45-3.29-1.61-1.84-.22-3.57.22-5.35.56.28,0-.06,0-.28,0-.28,0-.56,0-.84-.06-.61-.06-1.23-.22-1.84-.33-1.62-.39-3.18-.89-4.74-1.45-7.58-2.67-14.89-6.07-22.14-9.52-1.78-.83-3.62-1.73-5.41-2.62-.22-.11-1,.28-.89.33h.06Z"/>
  <path class="cls-11" d="M334.86,307.32c-3.18,1.22-7.08,3.84-9.81,5.73-3.18,2.56-9.54,12.63-9.54,12.63l-11.38,5.4,5.52,18.31,12.16-5.01,13.22.33s23.87-4.34,26.27-6.79c2.4-2.39,3.9-9.52,3.9-9.52,3.68-2.67,2.57-8.57,2.57-8.57,4.46-6.23-.72-6.23-.72-6.23.22-.17.33-.39.45-.67.84-2.73-3.12-4.62-5.24-2.73-3.57,3.17-8.42,7.35-9.26,7.35s-6.47.83-11.43,1.61c-2.51.5-4.96-.95-5.52-3.28,0-.22-.95-1.39.67-2.56"/>
  <path class="cls-20" d="M414.6,124.12s-50.08-49.42-89-45.24c0,0,59.05-7.85,85.32,25.43l.67,1.39c1.84,3.62,3.01,7.51,3.46,11.52l-.5,6.9h.06Z"/>
  <path class="cls-11" d="M446.22,564.8c2.73-5.06,9.59-10.07,14.33-12.24s9.98.78,11.38,1.5c10.43,5.68,15.17,15.19,23.03,23.76,5.97,6.57,12.77,12.41,20.19,17.31,7.53,5.01,13.77,8.01,21.41,12.58,0,0,.84.06.89.11,3.79,2.28,5.97,5.84,7.42,10.02.56,1.5,1.12,3.01,1.73,4.45.89,2,1.9,3.51.56,5.62-2.45,3.9-8.81-1.45-10.76-2.5-.33-.17-.78-.28-1.17-.28-1.62,0-4.18-.28-12.05-2.84-.78-.22-1.51-.45-2.23-.56h0c-4.18-1.11-23.31-3.84-26.71-4.51-6.75-1.34-27.1-7.74-27.1-7.74-2.34-.56-42.72-26.27-54.98-20.31l10.54-15.58s20.69-3.73,23.42-8.79h.11Z"/>
  <path class="cls-11" d="M447.28,527.02c3.46-4.62,10.99-8.51,16-9.96,5.02-1.45,9.76,2.28,11.04,3.23,9.48,7.12,12.77,17.31,19.18,26.93,4.96,7.4,10.76,14.13,17.34,20.14,6.69,6.07,14.61,10.29,21.47,15.97,0,0,.11.11.17.11,3.4,2.84,5.74,6.79,6.58,11.13.33,1.61.61,3.17,1.06,4.67.56,2.11,1.34,3.73-.28,5.62-3.01,3.51-8.53-2.78-10.26-4.06-.33-.22-.72-.39-1.12-.45-1.62-.28-6.3-1.28-13.66-4.9-.72-.33-1.45-.67-2.12-.89h0c-3.96-1.73-22.47-7.29-25.71-8.46-6.47-2.28-25.6-11.69-25.6-11.69-2.23-.89-29-15.53-42.05-11.46l3.51-30.66s21.02-.61,24.48-5.23h0l-.06-.06Z"/>
  <path class="cls-11" d="M487.43,522.68c-6.69,23.54,18.85,49.08-12.38,58.15l-7.36,10.74c7.75,20.37,16.17-3.01,8.64,17.42l-10.26-3.06s-175.88,33-206.22,19.14c-12.32-3.28-35.86-31.83-30.95-70.06,4.91-38.23,21.25-28.49,32.23-32.89,10.99-4.45,122.18-10.91,162.89-6.79l49.02-25.38,14.33,32.83h0l.06-.11Z"/>
  <path class="cls-4" d="M474.82,381.94c-.67-.56-8.98-1.45-9.15-2.39-1.78-1.17,3.9,2.89,0,0-6.08,2.17-11.82,4.84-18.07,6.23-15.34,3.51-.61,22.43-16.28,22.09-17.12-.39-34.18-2.11-51.25-3.78-14.78-1.45-29.56-2.78-44.39-3.12l-2.45,31.11-94.86,68.5s-61.17,51.47-25.15,83.25c27.05,23.82,105.39,9.63,105.39,9.63.72,1.34,19.07-3.78,29.83-5.29,13.33-2.95,97.92-10.46,105.73-12.02,38.42-7.57,70.71-29.83,74.22-69.67,1.9-21.81-.67-49.42-10.93-68.89-13.77-26.27-27.71-43.41-42.66-55.7h0v.06Z"/>
  <path class="cls-21" d="M518.15,596.41c-4.24-3.23-8.48-6.4-12.71-9.63-2.79-2.11-5.52-4.17-8.31-6.29-1.78-1.34-3.68-2.67-5.3-4.23-1.78-1.78-3.01-3.95-4.52-5.95-1-1.34-2.01-2.62-2.96-3.95-.28-.39-1.45,0-1.12.5.84,1.17,1.73,2.28,2.57,3.45,1.17,1.56,2.17,3.28,3.4,4.79,1.78,2.17,3.96,3.78,6.13,5.45,5.63,4.28,11.26,8.51,16.84,12.74,1.67,1.28,3.35,2.56,5.02,3.78.39.28,1.45-.28.95-.67h0Z"/>
  <path class="cls-4" d="M370.88,579.5s24.48,27.38,14.94,48.19c-1.78,3.84-70.6,4.12-70.6,4.12,0,0-65.47,8.9-90.78-15.97-43.78-43.07-35.63-77.63,14.55-115.25,51.3-38.45,0,0,0,0l101.66,87.03"/>
  <path class="cls-17" d="M374.62,583.17c-10.2.39-20.35,2.11-30.45,3.78-10.93,1.84-21.86,3.9-32.85,5.51-4.57.67-9.2,1.34-13.89,1.5-.39,0-1.06.11-1.23.5s.17.5.5.5c4.07-.17,8.14-.67,12.16-1.22,5.19-.72,10.37-1.61,15.56-2.45,11.21-1.89,22.36-3.95,33.63-5.51,5.24-.72,10.54-1.39,15.84-1.56.39,0,1.06-.11,1.23-.5s-.17-.5-.5-.5h0v-.06Z"/>
  <path class="cls-11" d="M414.26,175.82c.28.67,4.07,4.79,6.36,5.56-2.57,5.12-2.96,20.59-7.81,23.93-9.15,6.34-32.01,25.71-43.05,25.04-9.87-.61-32.85-12.52-19.46-36.34,3.29-6.46,5.02-7.46,5.24-8.57.56-3.39-4.96-24.6-4.96-24.6l57.72-27.71s-2.84,23.59,6.02,42.74h0l-.06-.06Z"/>
  <path class="cls-21" d="M354.88,182.22s4.63-3.84,8.7-5.12c4.07-1.28,11.1-1.22,29.5-18.09-.17.17-.17,1.22-.22,1.45-.28,1.34-.78,2.62-1.39,3.84-2.34,4.79-6.3,8.63-10.6,11.63-3.23,2.28-6.69,4.23-10.37,5.84-3.35,1.5-6.8,2.78-10.48,3.17-1.06.11-2.12.22-3.23.22s-1.67.39-1.67.17l-.33-3.06h0l.11-.06Z"/>
  <path class="cls-11" d="M327.83,60.07c-.06.17-.17.28-.22.45.11-.06.17-.17.28-.22v-.22h-.06ZM317.29,63.8v.17c.17-.17.33-.33.45-.45,0-.22-.45.28-.45.28h0ZM406.07,138.87l.89-3.9c5.52,6.34,13.38.39,13.05-9.29,2.23-5.01,4.52-21.26.17-25.88l-.56-.67c-2.96-1.95-7.97-2.5-9.76,1.39-.56,1.67.17,3.62-.39,5.29-.5,1.89-2.84,5.56-3.85,7.29,0,0-2.29-9.07-2.57-13.36s-4.63-16.31-12.94-21.48c0,0-1.51-15.08-5.46-19.14l-1.28-.28c-.72.11-1.17.39-1.95.45,0-.22.17-.5.17-.95-1.17.61-2.17.5-3.18.61.22-.28.67-.56.67-.78-.95.33-1.95.22-2.96.33.22-.28.67-.78.61-1-1.17.61-1.95.22-2.96.33.22-.28.39-.72.39-.95-.95.56-1.95.45-2.9.56.22-.28.39-.72.61-1-1.17.61-1.95.22-2.96.33-.22,0,.45-.5.39-.72-.72.33-1.67.45-2.45.5,0-.22.45-.5.39-.72-1.39.61-2.23.28-3.18.39l.61-1c-.89.78-1.9.89-2.9.78.22-.28.67-.78.61-1-1.17.83-2.57,1.22-3.85.89.22,0,.67-.78.61-1-1.12,1.06-2.12.95-3.35,1.06.22-.28.39-.72.84-1.22-1.34,1.06-3.01,1.73-4.57,1.22.22,0,.39-.72.39-.95-.89,1,.84-.33-.45-.39,0,0-2.73,1.22-2.73,1-.89.78,2.12-4.12.89-3.95.17-.5-6.97,1.22-6.52.72-1.12,1.06-.95.56-2.4.5,0,0-4.8,3.28-4.57,3.01-1.12,1.28-1.78.39-3.23.33.22-.28,1,.83,1.23.61-.89,1-.67-.17-1.9,0,0-.22-4.18-1-4.18-1.22-1.17.83-.72.89-2.23,1.06,0-.22-.61,2.56-.39,2.34-.89,1-.89.28-2.17.17l-1.12,1c-1.12,1.28.5.56-.95.5,0-.17,5.63.06,5.8-.28-.84.72-1.9,1.45-3.01,1.78,0-.22.17-.72.17-.95-.89,1-2.29,1.84-3.79,1.78.22,0,.45-.5.39-.72-1.12,1.28-2.51,2.11-4.02,1.61-.84.83-2.01,1.61-3.23,1.95-.06-.67.39-.95.39-.95l-1,.11c-1,1.95-2.06,3.67-2.29,5.95,0,0-6.25,13.24-5.02,21.48,1.23,8.29,3.62,22.93,4.24,26.49.56,3.12.33,7.23,0,10.52-1.45,14.8,4.41,20.81,9.98,29.27,2.51,3.78,5.58,7.01,8.31,10.52,3.07,3.9,5.86,7.9,9.87,10.91,4.13,3.12,10.65,3.01,16.12,2.62,15.28-1.06,31-13.02,39.59-23.93"/>
  <path class="cls-23" d="M411.03,131.91c2.4,0,3.74,1.73,4.24,3.73.89,3.51-2.57,6.79-5.91,5.29-.11-.06-.28-.11-.39-.17,0,0,4.24,4.01,7.64,1.06,3.4-3.01,1.34-7.23,0-8.29-3.07-2.39-5.58-1.56-5.58-1.56h0v-.06Z"/>
  <path class="cls-3" d="M399.88,95.58l3.85,21.7,6.58-10.52s-7.42-8.01-10.43-11.13v-.06Z"/>
  <path class="cls-8" d="M409.36,116.22c.72-.06,1.78-.11,1.95.78.17.72-.11,1.5-.33,2.17-.39,1.45-1.12,3.34-.06,4.67,1.51,1.84,3.46-.28,4.18-1.73,1.06-2,1.34-4.23.95-6.4-.39-2.17-1.23-4.84-3.51-5.51-.28-.11-.89.22-.39.39,2.01.61,2.73,3.28,3.12,5.06.39,2,.22,4.01-.61,5.9-.28.61-.61,1.22-1,1.73-.28.33-.78.89-1.23.95-.72,0-1.12-1.11-1.17-1.67-.17-1.56.61-3.01.89-4.56.11-.61.11-1.28-.39-1.67-.67-.56-1.73-.5-2.51-.39-.5.06-.17.45.22.39h0l-.11-.11Z"/>
  <g>
    <path class="cls-3" d="M339.43,140.93c1.78.72,4.35.22,5.91-1.11.33-.28,1.62-.22,1.17.22-2.06,1.73-5.74,2.28-8.09,1.34-.22-.11-.22-.28,0-.39s.72-.17.95-.06"/>
    <path class="cls-3" d="M347.18,139.48c1.06-.72,2.29-1.17,3.57-1.39.17,0,.45,0,.61.11.11.11.17.22,0,.33-.56.45-1.28.67-1.95.72-.22,0-.5,0-.67-.17-.11-.17.06-.33.22-.33.56,0,1.12-.22,1.56-.61.22.17.39.28.61.45-1.12.22-2.23.61-3.18,1.28-.17.11-.5.11-.67,0-.17-.06-.33-.28-.11-.39"/>
    <path class="cls-3" d="M352.25,139.04c1.51-.22,3.12-1.11,3.74-2.39.89-1.95-.5-4.62-2.45-5.56-.22-.11-.11-.28.06-.33.28-.11.61,0,.84.11,1.73.83,3.07,3.01,3.01,4.73,0,1.61-1.34,2.84-3.07,3.51-.5.22-1.06.33-1.62.45-.22,0-.61,0-.78-.17-.11-.17.06-.28.28-.33"/>
    <path class="cls-3" d="M336.58,140.48c.06-.17-.11-.28-.22-.28-.39.06-.84,0-1.23-.28-.11.17-.22.39-.33.56.84,0,1.67.17,2.45.61.17.11.33,0,.45-.11s.17-.33,0-.39"/>
    <path class="cls-3" d="M337.76,140.54c-.89-.5-1.78-.67-2.73-.67s-.28.11-.39.22c-.06.11-.06.28,0,.33"/>
    <path class="cls-3" d="M333.57,141.04c-.95.06-2.17-.5-2.79-1.61-.95-1.73-.5-3.9.56-5.18.11-.17,0-.28-.11-.33-.17,0-.39.11-.5.22-.95,1.11-1.45,2.84-1.06,4.51.33,1.56,1.39,2.56,2.62,2.84.33.11.72.17,1.12.11.17,0,.39-.11.45-.33,0-.22-.11-.28-.22-.28"/>
  </g>
  <path class="cls-3" d="M318.35,112.16c-1.45-.56-3.12.22-3.9,1.11-.17.22-.5.83-.67,1.73-.22,1.17.39,2.45,1.23,3.12,1.06.95,2.68.95,3.85.22,1.56-.95,1.9-3.01,1.28-4.45-.11-.28-.61-1.34-1.78-1.78"/>
  <path class="cls-3" d="M332.4,114.66s-7.25-4.45-10.65-4.34c-5.02.11-10.76,3.56-12.21,6.18,0,0,7.58-5.01,11.1-5.01s11.77,3.17,11.77,3.17Z"/>
  <path class="cls-3" d="M359.34,107.26c1.28-.83,3.51-.95,4.46-.22.22.17.84.61,1.23,1.5.45,1.11.17,2.45-.45,3.34-.84,1.17-2.4,1.5-3.68,1.11-1.73-.56-2.51-2.5-2.29-4.01,0-.28-.28-.78.72-1.45"/>
  <path class="cls-3" d="M353.43,111.44s6.91-5.62,10.6-6.18c5.35-.78,12.16,1.61,14.16,3.95,0,0-8.98-3.62-12.77-3.01-3.57.61-11.99,5.18-11.99,5.18h0v.06Z"/>
  <path class="cls-3" d="M308.59,107.54c-.17-.06-.33-.11-.5-.11-.11-.28-.22-.56-.28-.83,0-.17-.06-.39-.11-.56v-.17c1-1.78,2.23-2.89,2.4-3.01,0,0,1.73-1.56,4.63-2.5,2.01-.67,7.53-1.39,15-1,.06,1,.11,2,.17,3.01,0,.78.11,1.56.11,2.28-2.62-.5-4.85-.78-6.52-.95-3.57-.33-5.35-.5-7.36,0-2.12.5-3.9,1.39-4.57,1.78-.95.5-1.62.83-2.4,1.45-.22.17-.39.39-.61.56h0l.06.06Z"/>
  <path class="cls-3" d="M349.41,95.52c.22,1,.45,1.95.67,2.95.17.78.33,1.5.5,2.23,2.84-1.28,5.35-2.23,7.25-2.95,3.96-1.45,6.02-2.17,8.48-2.34,2.57-.17,4.85.17,5.74.28,1.28.17,2.12.28,3.12.67,2.29.78,3.4,2,3.74,1.78.28-.17-.5-1.28-.56-1.39-1.95-2.78-5.13-3.95-5.35-4.06,0,0-2.45-.95-6.02-.95s-9.09,1.06-17.57,3.78"/>
  <path class="cls-5" d="M346.46,150.17c7.81-1.11,19.57-6.01,19.57-6.01,0,0,1.84,20.7-16.17,23.21-18.01,2.56-19.63-15.19-19.63-15.19,0,0,8.48-.89,16.23-2h0Z"/>
  <path class="cls-14" d="M346.34,150.17c3.68-.5,17.12-4.51,17.12-4.51,0,0-1.78,13.63-15.17,15.53-14.5,2.06-15.67-8.96-15.67-8.96l13.66-2h0l.06-.06Z"/>
  <path class="cls-18" d="M346.29,150.78c3.68-.5,14.83-2.78,14.83-2.78,0,0-3.46,4.79-14.55,6.34-11.1,1.56-15.17-2-15.17-2l14.89-1.56h0Z"/>
  <path class="cls-5" d="M329.22,151.11c.39-.17,1.67-.56,1.67-.56,3.01-.72,3.35-1.5,5.52-2,3.74-.83,6.36.39,8.03.17s3.85-2.11,7.64-2.34c2.23-.11,5.35-.33,8.36-1.06,4.41-1,5.13-1.22,5.52-1.17.56.06,1.45,5.29-19.24,8.18-20.69,2.95-18.01-1-17.51-1.22h0Z"/>
  <path class="cls-15" d="M262.07,284.78c-.43,1.21-.83,2.43-1.19,3.65.07.22.16.45.25.68.4-1.38.72-2.79.97-4.21,0-.04-.02-.08-.03-.12Z"/>
  <path class="cls-15" d="M340.6,249.72c1.78-8.46-12.04-12.24-12.1-20.87,0-7.51-1.06-19.03-4.41-25.99-14.67,10.91-17.12,2.78-33.07,37.95-8.75,19.26-16.91,28.94-22.63,35.29-.27,6.68-1.86,13.28-2.43,19.95,10.9,12.25,36.08,29.98,52.5,28.62,1.28-6.12,19.46-25.04,21.08-31.05h.06c3.46-12.97-1.78-30.77,1-43.91Z"/>
  <path class="cls-15" d="M363.18,218.89c-28.5-3.34-7.7-33.44-7.7-33.44,0,0-39.65,19.25-46.9,26.21-.95.89-5.58,7.01-6.52,8.12,4.52,6.29,12.38,10.91,13.49,18.36,1.39,8.9,1.73,18.09,1.17,27.1-.78,12.8-14.78,26.66-16.67,39.34-1.95,13.02-4.02,20.53-2.01,33.67.11.72,10.71,6.18,10.32,6.62,1.34,5.95,14.11,0,17.12,3.17,8.25,8.79-.95,18.09,3.46,25.43,8.7,14.47-1.17,39.68-5.35,62.05,0,0,61.62,10.68,101.32,10.13,39.7-.56,89.28-19.14,89.28-19.14-18.12-33.95-29.89-52.87-29.89-52.87l.17-66.22,3.46-49.3c1-35-19.02-56.65-39.98-64.5l-32.12-16.47s-15.61,43.52-49.07,41.96"/>
  <path class="cls-20" d="M309.32,79.38c4.35-13.58,19.85-22.26,49.96-29.49,30.06-7.29,55.21,1.06,55.21,1.06-19.29-41.96-63.46-35.34-73.33-34.17-9.87,1.17-56.38,45.58-35.47,79.74l1.84,2.67s1-17.36,1.78-19.81h0Z"/>
  <path class="cls-20" d="M421.24,40.98s.45-27.77-20.63-34.56c-28.16-9.13-65.19-10.29-74.95,19.31l95.58,15.25h0Z"/>
  <path class="cls-24" d="M426.31,107.6c1.95-2.5.61-8.74,2.23-11.46,8.42-14.25,3.74-26.66-.95-33.83-2.06-3.12-.39-9.18-.89-12.08-2.62-15.14-4.41-15.41-28.94-28.38-19.96-10.57-39.87-7.62-51.41-5.68-18.46,3.17-26.49,5.29-31.4,19.14-.67,1.84.17,2.34-.28,4.51-.67,3.01-4.96,4.62-5.3,8.4,0,0,24.93,6.79,46.62,15.41,21.69,8.63,64.46,48.3,64.52,61.27,0,.39,3.68-14.52,5.86-17.25h0l-.06-.06Z"/>
  <path class="cls-20" d="M432.33,82.78s-49.24-48.64-87.61-44.52c0,0,58.11-7.68,83.98,25.04l.67,1.34c1.78,3.56,2.96,7.4,3.4,11.35l-.5,6.79h.06Z"/>
  <path class="cls-11" d="M479.17,254.67c12.99-22.59-3.23-40.96-21.8-45.46-9.42-2.28-18.12,14.58-18.12,14.58-27.99,23.09-86.71,98.44-97.87,113.41,2.17,2.67,5.52,2.84,7.08,5.9,5.46,10.68,12.27,10.35,11.65,22.26-.28,5.9-2.57,14.3-4.57,19.98,16.23-3.84,30.73-20.09,42.05-31.39,17.01-17.03,32.12-35.73,47.4-54.26,11.88-14.36,24.93-28.88,34.24-45.08h0l-.06.06Z"/>
  <path class="cls-15" d="M443.71,201.92s43.66,14.08,40.88,43.24c-2.79,29.16-32.73,81.14-32.73,81.14,0,0-50.13-22.32-70.21-43.74-20.08-21.42,62.12-80.63,62.12-80.63h-.06Z"/>
  <path class="cls-22" d="M480.35,271.65c-1.62,6.07-4.41,11.74-7.36,17.2-2.96,5.4-5.91,10.85-9.09,16.14-3.18,5.34-6.47,10.63-8.98,16.36-.28.67-.56,1.34-.84,2.06-.28.61-.45,1.39-.78,1.95-.06.11-.22.22-.28.33-.22.5.61-.28.61,0l-.45-.11c-.45-.17-.95-.33-1.39-.5-1.67-.67-3.01-1.84-4.63-2.56-1.78-.83-3.74-1.5-5.52-2.34-2.17-1-4.29-2.06-6.36-3.12-4.52-2.34-8.92-4.84-13.27-7.4-7.92-4.73-15.61-9.74-23.2-14.97-3.68-2.56-7.47-5.06-11.04-7.85-1.67-1.34-3.29-2.78-4.96-4.12l-1.39-1.17c-.06,0-.28-.17-.28-.22s1.06-1.34,1.23-1.56c1.84-2.56,3.68-5.12,5.46-7.68,5.74-8.29,11.15-16.81,16.28-25.49,3.57-6.07,7.03-12.3,10.87-18.2,3.07-4.73,6.52-9.24,10.71-13.02,4.46-4.01,9.59-7.07,15.5-8.29,2.45-.5,4.96-.67,7.47-.22.33.06.89,0,1.17-.17.22-.17.33-.28,0-.33-7.14-1.22-14.83,1.28-20.8,5.18-3.79,2.5-7.19,5.79-10.09,9.29-3.51,4.17-6.41,8.85-9.2,13.52-3.68,6.18-7.19,12.41-10.93,18.53-5.19,8.51-10.76,16.86-16.62,24.99-.89,1.22-1.78,2.45-2.68,3.67v.11c3.07,2.56,6.08,5.18,9.31,7.51,6.86,4.95,13.77,9.68,20.91,14.25,9.48,6.12,19.24,11.96,29.44,16.81,2.12,1,4.29,1.78,6.41,2.73,1.06.5,2.01,1.17,3.01,1.84.72.45,1.56.78,2.34,1.06.84.33,1.73.67,2.68.45,1.39-.33,1.62-1.78,2.12-2.95,1.28-3.34,2.9-6.51,4.68-9.63,1.73-3.06,3.57-6.07,5.35-9.13,1.84-3.06,3.51-6.18,5.24-9.29,3.4-6.12,6.97-12.24,9.37-18.86.61-1.61,1.12-3.23,1.56-4.84,0-.17-1.51-.28-1.67.22h0l.06-.17Z"/>
  <path class="cls-11" d="M316.18,382.56s14.72,6.62,31.17,4.62c18.79-2.34,31.34-33.11,36.36-47.25,5.13-14.47-43.66-4.12-43.66-4.12l-23.87,46.74h0Z"/>
  <path class="cls-11" d="M326.38,385.89c5.3.67,11.15,1.84,16.12.78q.33-.67.61-1.39c4.24-10.24,5.41-21.87,3.96-32.78-1-7.57.5-13.75-3.74-20.2-1,1.11-3.62,4.23-3.62,4.23l-128.82-30.11-11.77,19.25c39.54,24.93,79.52,44.85,123.96,59.21,1.12.33,2.17.72,3.29,1.06h0v-.06Z"/>
  <path class="cls-21" d="M192.71,299.25c-4.41.39-8.59,2.67-11.26,6.23-.33.39.61.56.89.22,2.51-3.28,6.36-5.45,10.48-5.79.61,0,.5-.67-.06-.61h0l-.06-.06Z"/>
  <path class="cls-11" d="M275.24,289.01c-21.53,5.4-31.17,6.4-62.23,12.13-19.24,3.56-35.8,4.79-44.11-6.01-21.69-25.26-25.04-67.61-30.39-84.64-3.01-9.96,1.17-20.65,10.09-25.99l33.63,28.27,14.22,57.48h0l71.38-.89"/>
  <path class="cls-1" d="M178.33,144.94s-40.82,14.08-49.02,40.46c-2.9,18.03,5.63,64.11,5.63,64.11,0,0,30.61,4.56,52.64-11.74,13.44-9.91-9.03-90.76-9.03-90.76"/>
  <g>
    <path class="cls-1" d="M187.81,237.59l2.96-1.17s-6.64-36.95-13.1-51.14c-6.47-14.19-17.68-13.97-17.68-13.97"/>
    <path class="cls-10" d="M187.97,237.87c1-.39,1.95-.78,2.96-1.17.17-.06.28-.22.28-.39-.5-2.67-1-5.29-1.51-7.96-1.17-6.01-2.45-11.96-3.9-17.92-1.51-6.4-3.18-12.8-5.24-18.98-2.12-6.23-4.8-12.24-10.04-16.31-2.79-2.17-6.52-4.01-10.15-4.01h-.28c-.5,0-.72.61-.11.61-.22,0,0,0,.11,0h.5c.61.06,1.28.17,1.9.33,2.17.5,4.29,1.45,6.13,2.73,5.52,3.73,8.53,9.79,10.65,15.92,2.12,6.12,3.74,12.19,5.24,18.36,1.51,6.18,2.79,12.02,3.96,18.09.45,2.11.84,4.17,1.23,6.29.11.67.28,1.34.39,2.06.06.28,0,.78.17,1.06v.17l.28-.39c-1,.39-1.95.78-2.96,1.17-.61.22-.06.67.39.5h0v-.17Z"/>
  </g>
  <g>
    <path class="cls-1" d="M173.25,145.83s7.97-8.79,13.77-11.24c0,0,16.62,30.94,35.24,32.44,0,0-14.5,5.45-16.51,14.97,0,0-35.24-21.59-32.57-35.34"/>
    <path class="cls-10" d="M173.64,145.83c1.45-1.56,2.96-3.06,4.52-4.51,2.68-2.5,5.63-5.12,9.03-6.62h-.61c2.01,3.67,4.29,7.18,6.75,10.57,4.68,6.51,10.15,12.91,16.84,17.42,3.51,2.34,7.53,4.17,11.77,4.51l.11-.39c-1.78.67-3.57,1.56-5.24,2.5-3.23,1.84-6.36,4.06-8.7,6.96-1.34,1.67-2.4,3.62-2.84,5.73l.89-.22c-4.02-2.45-7.92-5.23-11.65-8.07-3.4-2.56-6.69-5.23-9.76-8.12-3.07-2.89-5.8-5.73-8.09-9.13-1.9-2.84-3.68-6.4-3.01-9.91,0-.28-.89-.11-.95.17-.56,3.06.67,6.12,2.17,8.74,2.01,3.39,4.74,6.4,7.53,9.13,5.63,5.51,11.99,10.29,18.51,14.69,1.45.95,2.9,1.95,4.35,2.84.17.11.84,0,.89-.22.84-3.73,3.46-6.79,6.36-9.13,2.45-1.95,5.24-3.56,8.09-4.9.56-.28,1.17-.5,1.73-.72.17-.06.5-.33.11-.39-7.92-.67-14.72-6.23-20.02-11.74-4.91-5.06-9.15-10.85-12.83-16.86-.78-1.22-1.51-2.5-2.23-3.78-.11-.17-.5-.11-.61,0-3.4,1.5-6.36,4.01-9.09,6.51-1.73,1.56-3.35,3.17-4.91,4.9-.22.28.67.17.84,0h0l.06.06Z"/>
  </g>
  <path class="cls-22" d="M299.06,318.73c-.17-3.23.22-6.4,1.06-9.52.78-3.01,2.12-5.73,3.51-8.46,1.39-2.73,2.79-5.45,3.57-8.4s1.17-6.07,1.28-9.13c.11-3.56-.11-7.12-.33-10.68,0-.45-1.9-.11-1.84.5.39,6.29.78,12.74-.78,18.86-1.51,6.01-5.41,11.07-7.14,17.08-.95,3.34-1.34,6.84-1.23,10.29,0,.45,1.9.11,1.84-.5h0l.06-.06Z"/>
  <path class="cls-11" d="M267.88,270.03s8.81-12.69,10.09-15.8c1.34-3.12,4.13-11.19,5.74-11.8s2.79,2.39,3.12,5.56-4.68,9.4-3.29,10.63c1.39,1.17,21.75-2.11,25.99-2.78s16.12-1.95,15.89,3.73c0,0,5.69.28,5.8,2.67.17,1.11,0,2.28-.28,3.34.45,2.34-.84,4.62-3.07,5.51-2.06.67-4.13,1.06-6.3,1.22,0,0,2.79,1.67,0,4.45-2.79,2.78-13.94,5.9-13.94,5.9,0,0-7.75,6.29-14.11,7.29-6.19.5-14.55-.06-20.74-.67l-4.91-19.25h0Z"/>
  <path class="cls-2" d="M321.31,272.93c-4.74-1.78-9.81-.11-14.39,1.34-.61.17-1.67-.83-.95-1.11,4.96-1.61,10.32-3.17,15.45-1.28.78.22.89,1.39-.11,1h0v.06Z"/>
  <path class="cls-2" d="M330.12,264.91c-4.29-1.5-8.98-1.56-13.27-.22-4.52,1-9.09,2.11-13.61,3.17-.56.11-1.67-.89-.89-1.11,4.96-1.22,9.93-2.45,14.94-3.45,4.29-1.17,8.81-.95,12.94.61.78.22.84,1.45-.11,1h0Z"/>
  <path class="cls-2" d="M324.87,259.41c-1.9-.61-3.9-.61-5.86-.11-1.78.33-3.57.67-5.41,1.11-3.74.83-7.42,1.84-11.04,3.01-.45.11-1.56-.78-1.23-.89,4.02-1.22,8.03-2.28,12.1-3.23,3.68-.78,7.92-2.11,11.54-.61.67.17,1.06,1.11.06.72h-.22.06Z"/>
  <path class="cls-21" d="M337.76,335.92c6.75,5.45,6.86,14.86,6.75,22.76,0,.33,1.84.06,1.84-.5.11-8.01,0-17.42-6.86-22.93-.39-.33-2.06.39-1.78.67h.06Z"/>
  <path class="cls-11" d="M175.93,263.97c2.84,6.29,6.8,14.64,7.92,15.08s7.92,4.51,13.83,8.12c2.96,2,6.97,1.17,8.92-1.73.5-.78-10.76-13.47-4.8-18.36l11.71,8.63c3.4,3.34,6.36,7.07,8.76,11.19,2.73,5.29,5.41,22.65,5.41,22.65l15.17,10.63-18.35,20.53-15.11-8.12-17.23-6.29s-28.38-18.36-30.11-22.93c-1.73-4.62.17-15.36.17-15.36-3.29-5.62,1.39-13.3,1.39-13.3-2.4-11.07,4.29-8.35,4.29-8.35-.17-.33-.22-.78-.17-1.17.45-4.23,6.58-4.9,8.25-1.11h0l-.06-.11Z"/>
  <path class="cls-2" d="M162.88,287.73c-1.39-2.5-1.39-5.4-.72-8.07.45-1.78,1.23-3.28,1.95-4.9.11-.22.11-.33.06-.61-.11-.78-.28-1.61-.39-2.39-.11-1.11-.11-2.23.11-3.28.17-.61.39-1.22.89-1.67.33-.33.61-.39.89-.45s.67,0,1.06.06c.17,0,.28.06.45.11-.17,0,0,0,0,0,.28.11,1.45,0,1.28-.5-.5-1.28.11-2.78,1.23-3.56.84-.61,2.01-.72,3.01-.45,1.34.39,2.12,1.34,2.68,2.56.72,1.61,1.45,3.23,2.23,4.79,1.34,2.78,2.62,5.62,4.24,8.24.33.61.72,1.34,1.34,1.73.67.39,1.34.72,2.01,1.06,3.01,1.73,6.02,3.51,8.98,5.34,1.45.89,2.96,2.06,4.63,2.56,1.45.45,3.01.45,4.46,0s2.62-1.22,3.51-2.34c.45-.56.56-.72.28-1.34-.78-1.45-1.78-2.78-2.62-4.17-1.34-2.17-2.62-4.51-3.35-7.01-.61-2.17-.67-4.67,1.23-6.23l-1.23.17c3.18,2.34,6.41,4.67,9.59,7.07.61.45,1.28.89,1.9,1.39,1,.78,1.78,1.73,2.62,2.67,3.07,3.39,6.02,7.18,7.64,11.46,1.06,2.89,1.84,6.01,2.17,9.07,0,.45,1.45.17,1.39-.39-.28-2.56-.89-5.18-1.67-7.62-.67-2.06-1.56-4.01-2.73-5.84-1.28-2-2.68-3.9-4.18-5.73-1.17-1.39-2.34-2.89-3.74-4.01-.45-.39-.95-.67-1.39-1l-5.91-4.34c-1.45-1.06-2.9-2.11-4.29-3.17-.33-.28-.89-.11-1.23.17-3.62,3.06-1.28,8.29.56,11.69,1,1.84,2.12,3.56,3.29,5.29.28.45.67.89.78,1.39,0,0,0,.22,0,.11,0,.06,0,0,0,0,0,.17-.28.39-.39.56-.56.67-1.23,1.17-2.01,1.5-1.51.67-3.29.5-4.74-.28-1.78-.95-3.46-2.06-5.13-3.12-2.73-1.61-5.41-3.28-8.2-4.84-.56-.28-1.06-.45-1.45-.95-.67-.83-1.23-1.89-1.73-2.84-1.62-3.01-3.07-6.12-4.52-9.24-.67-1.45-1.17-3.17-2.45-4.12-1-.78-2.29-1.06-3.57-1s-2.51.56-3.46,1.45c-1,.95-1.67,2.56-1.12,3.9l1.28-.5c-1.73-.67-4.07-.39-5.19,1.22-1.23,1.78-.95,4.4-.61,6.4.06.45.33.89.22,1.22-.06.28-.28.56-.45.78-.5.95-.89,1.95-1.23,2.89-1.06,3.12-1.39,6.68.28,9.68.28.45,1.62,0,1.39-.39h0l.06-.17Z"/>
  <path class="cls-2" d="M190.82,295.47c-1.95-.39-3.85-1.06-5.58-2-4.46-1.84-8.42-4.67-11.6-8.29-2.84-3.9-4.57-8.46-5.07-13.24-.45-1.89-.56-3.9-.33-5.79.67,1.84,1.17,3.67,1.45,5.62.78,4.51,2.57,8.79,5.24,12.52,3.07,3.45,6.75,6.29,10.93,8.29,1.78.78,3.46,1.78,5.02,2.89h-.06Z"/>
  <path class="cls-2" d="M184.96,301.2c-1.84-.06-3.62-.61-5.24-1.56-1.78-.83-3.51-1.78-5.13-2.89-2.12-1.28-3.96-3.01-5.35-5.01-1.17-2.06-2.12-4.28-2.79-6.57l-1.67-5.45c-.67-1.67-1.06-3.39-1.23-5.18,1,1.5,1.73,3.12,2.23,4.84.61,1.5,1.28,3.34,2.01,5.34.72,2.17,1.62,4.28,2.73,6.23,1.28,1.89,2.96,3.51,4.85,4.79,1.56,1.11,3.18,2.11,4.8,3.06,2.84,1.61,4.74,2.34,4.74,2.34h0l.06.06Z"/>
  <path class="cls-2" d="M177.32,307.49c-.33.56-5.41-2.73-11.21-7.01-.78-.61-1.39-1.45-1.78-2.34-.39-.78-.72-1.5-1-2.34-.5-1.34-.89-2.67-1.12-4.06-.39-2.39-.17-3.9,0-3.9s.39,1.45,1.06,3.67c.39,1.28.84,2.56,1.34,3.78.28.72.61,1.45,1,2.17.28.72.78,1.34,1.39,1.78,3.01,2.17,5.52,4.23,7.42,5.68,1.06.78,2.06,1.61,2.96,2.56h-.06Z"/>
  <path class="cls-21" d="M297.4,324.65c-9.63-2.26-19.27-4.52-28.9-6.79-1.37-.32-2.74-.64-4.11-.97-.74-.17-1.44.87-.49,1.1,9.63,2.26,19.27,4.52,28.9,6.79,1.37.32,2.74.64,4.11.97.74.17,1.44-.87.49-1.1h0Z"/>
  <path class="cls-2" d="M277.6,252.38c-.57,1.43-1.21,2.86-2,4.18-.6.99-1.34,1.9-2.01,2.83-1.88,2.61-3.74,5.24-5.6,7.86-.49.69-.98,1.39-1.48,2.08-.14.2.53.12.57.11.27-.04.68-.14.85-.38,2.86-4.04,5.77-8.05,8.64-12.09,1.05-1.47,1.79-3.2,2.45-4.87.08-.21-1.28-.09-1.43.27h0Z"/>
</svg>