<?xml version="1.0" encoding="UTF-8"?>
<svg id="Layer_1" xmlns="http://www.w3.org/2000/svg" version="1.1" viewBox="0 0 637.3 635.8">
  <!-- Generator: Adobe Illustrator 29.6.1, SVG Export Plug-In . SVG Version: 2.1.1 Build 9)  -->
  <defs>
    <style>
      .st0 {
        fill: #101931;
      }

      .st1 {
        stroke-width: .6px;
      }

      .st1, .st2, .st3, .st4 {
        stroke-miterlimit: 10;
      }

      .st1, .st3 {
        stroke: #000;
      }

      .st5 {
        fill: #b589be;
      }

      .st6 {
        fill: #010101;
      }

      .st7 {
        fill: #638e9f;
      }

      .st8 {
        fill: #231f20;
      }

      .st9 {
        fill: #f68e46;
      }

      .st10 {
        fill: #f1edf6;
      }

      .st11 {
        fill: #643c2a;
      }

      .st12 {
        fill: #5a3122;
      }

      .st13 {
        fill: #a66e53;
      }

      .st14 {
        fill: #0a2f44;
      }

      .st2 {
        stroke: #4f2e25;
      }

      .st2, .st4 {
        fill: none;
      }

      .st3 {
        stroke-width: .7px;
      }

      .st15 {
        fill: #131429;
      }

      .st16 {
        fill: #fff;
      }

      .st17 {
        fill: #070505;
      }

      .st18 {
        fill: #040404;
      }

      .st19 {
        fill: #32154c;
      }

      .st20 {
        fill: #513835;
      }

      .st21 {
        fill: #1d170f;
      }

      .st22 {
        fill: #381c13;
      }

      .st23 {
        fill: #151210;
      }

      .st24 {
        fill: #8a4c98;
      }

      .st25 {
        fill: #628e9f;
      }

      .st26 {
        fill: #008dce;
      }

      .st27 {
        fill: #825639;
      }

      .st28 {
        fill: #f9da03;
      }

      .st29 {
        fill: #4f2e25;
      }

      .st4 {
        stroke: #131429;
      }
    </style>
  </defs>
  <path class="st13" d="M356.8,607.1s-9.2,19.5-32.5,17.2c-11.1-1.1-39-18.8-39-18.8l41.8-24.1,29.8,25.7h0Z"/>
  <path class="st13" d="M326.7,578.9c-28.8-13.3-101-47.7-101-47.7l-6.2,26.9s57.7,46.3,89.6,60.2c10.6-10.3,13.7-25.5,17.6-39.4h0Z"/>
  <path class="st13" d="M384.6,541.8c-7.6-6.6-15.1-13.7-23-20.1l-46.1,60.9c10.7,9.8,21.4,25.3,28.1,38.1,24.1-16.7,35.2-44.1,55.5-67.1h0c-4.9-3.8-9.7-7.7-14.4-11.7h0Z"/>
  <path class="st29" d="M319.6,575.8c4.1,4,6,10,4.9,15.6-.1.6,1.1.4,1.2,0,1.1-5.8-.9-11.9-5-16-.4-.4-1.5.1-1.1.5h0Z"/>
  <path class="st7" d="M483.6,556.1l-59.7,33.8-49.6-57.2c-9.2-10.6-.9-24.5-2.1-38.5l-69.3-175.7,50-108.1s31.7,23.7,51.3,63.7c12.3,25.1,19.5,165.1,26.1,188.1l53.3,93.9h0Z"/>
  <path class="st7" d="M357,214s38.7,37.3,47,56.2c10.6,24.2-1.6,145.9-2.1,168.5-.5,22.6-28,13.2-28,13.2l-33.3-63.1-31.4-37.6,45.5-127.8,2.2-9.4h0Z"/>
  <path class="st25" d="M380.6,419.2c-.5,20.5-2.2,24.2-2.2,24.2l-58.5-30.2-7.2-73.1,41.4-116.3,1.5-4s35.7,29.4,43.2,46.6"/>
  <path class="st13" d="M302.7,105.4s-10.4,38.8-26.6,56.7c-2.6,2.9-23.4,4-23.4,4l2.5,7.5c2.1,6.5,8.5,13.8,13.2,18.7,23.6,24.2,63,44.8,83.8,32.8l-2.1-15s-3-6.4-2.1-10.9c.9-4.5,19.5-34.4,19.5-34.4"/>
  <path class="st27" d="M294.3,119.4c0,0,0,.2,0,.2,0,0,0-.2,0-.2Z"/>
  <path class="st13" d="M326.2,185.9l25,10.1,13.5,2.7c1.2.6,12.3-9.6,13.9-10.8,4.9-3.8,11.2-8.7,15.3-13.4,4.3-5,10.2-8.4,14.2-14.9,2.9-4.8,4.5-8.4,5.5-17.9.2-2.4,1.2-4.5,2.7-6.6,3.2-4.3,6.1-9.7,10.4-15.5.3-.4,2-2.6,2.1-3.2,0,0,13.1-26.1,12.6-37.8-.5-11.7-5.8-19.3-12-24.2s-25-17.8-25-17.8l-29.2-12.2-29.7,1.1-25.6,24-13.6,35-10.1,32.2"/>
  <path d="M315.5,85.7c-1,2.7-3.7,17.4-4.5,20.1l-13.6-6.4c0-10.9-.2-23.8-.7-27-.8-4.9,14.7-20.6,17.7-27.6l.6-1.5c2.8-6.7,13.9-14.5,29.7-20.7,27.1-10.7,26.3-11.3,54.1,3.6,1.9,1,3.8,2.1,5.6,3.3,16.9,10.8,32,17.2,36.8,37.5,3.4,14.6,3.3-1.9-.8,5.4.8-8.4,3.5-1.6,2.8-4-4.5-14.4-13.9-5.4-18-8-3.6-2.3-7-2.6-7.7-2.6-4.8-1-8.8-3.4-13.1-6.2-3.2-2.1-11.1-7.9-11.7-8.4-1.6-2.7,4.5-10.8.5-13.3-9.3-5.9-24.9-7.6-30.7-7.6-6.9.1-23-.3-28,15.8"/>
  <path d="M362.9,194.2c-.2-.1-.3-.2-.4-.4-1.8-2.9-1.6-4-2.7-4.9-.3-.2-.4-.4-1.2-.9-3.5-2.2-5.5-3.6-18.2-1.8-.3,0-12.5-7.4-12.7-7.6l-5.2-6.2c-.8-1.2-16.3-33.5-16.3-33.5,0-.9-2.3-7.9-2.2-8.7,0,0-.1-.2-.2-.2,0,0,0,0-.1-.1,0,0,0,0-.1.1-.2.3-.3.6-.4.9-.5,1.3-.8,2.6-1,4-.3,2.1-.8,4.2-1.1,6.2-.1.7-.2,1.5-.2,2.2,2,3.1,9.9,34.1,17.9,43.9.6.5,2.4,2,7.9,5.1,10.2,5.7,20.4,10.3,32.2,11.9,3.1.4,6.1-.5,8.4-2.5,6.4-5.8,20.5-18.7,27-28.7-5.7,4.9-17.8,15.5-26.1,22.7-.2.2-4.4-1.4-4.8-1.4"/>
  <path class="st13" d="M297.7,121.6c-12.6,7.5-9.8-13.6-9.8-13.6-3.4-12.8,1.2-22.6,4.6-29.2s10.8-3.1,10.8-3.1c6,3.6,7.2,8.3,2.6,31.9"/>
  <path d="M424,52.5c-10.2-4.8-34-23.9-47.6-31-5.6-2.9-31.2,2.8-35.1,5-9,4.9-3.5,27.9-23.9,47.3-6.8,6.4-5.2-9.4-11.6-6.1-6.4,3.3-8.9,4.7-8.9,4.7,7.1-24.1,6.8-23.3,21.9-43.5,15-20.2,43.8-19.1,56.5-15.7,12.7,3.4,49,24.1,57.2,33.4"/>
  <path d="M365.5,105.6c-1.2-1.5-3.3-1.7-4.8-1.3-.3,0-1.3.4-2.1,1.3-1,1.1-1.2,2.9-.8,4.2.5,1.7,2.3,2.8,4,2.8,2.3,0,4-2,4.3-3.9,0-.3.3-1.8-.7-3.1"/>
  <path d="M410.3,127.1c1.9,0,3.4,1.5,4,2.9.1.3.5,1.2.3,2.4-.2,1.5-1.5,2.7-2.7,3.2-1.7.7-3.6,0-4.7-1.3-1.5-1.8-1-4.4.2-5.8.2-.3,1.2-1.4,2.8-1.4"/>
  <path d="M394.5,126.9s9.2-3.3,14-1.6c7,2.6,8,4.9,8.9,9.1,0,0-2.9-5.3-7.9-6.9-4.8-1.6-15.1-.6-15.1-.6h0Z"/>
  <path d="M373.5,115s-6.6-10.4-11.1-12.7c-6.6-3.3-16.5-3.2-20.2-1,0,0,13.3-.9,18,1.6,4.4,2.4,13.4,12,13.4,12Z"/>
  <path d="M386.2,94.7c-1,1.5-1.9,3-2.9,4.5-.7,1.1-2.3,3.8-3.1,4.9-3-3.2-5.3-6.8-7.3-8.7-4.1-3.8-8-7.9-13.2-10.2-2.5-1.1-4.8-1.8-7.4-1.8-.8,0-3.4.6-4-.4-.2-.4,1.5-1.8,1.7-2,3.6-2.9,7.7-2.5,12.1-.9,9,3.2,16.7,8.4,24,14.5"/>
  <path d="M430.1,116.3s-2.3-2.2-2.3-2.2c-6.4-6.1-14-10.1-22.1-13.3-.9,1.5-1.7,3.1-2.6,4.6-.7,1.2-1.9,3.3-2.6,4.4,4,.9,7.6,1.4,10,2.2,4.8,1.6,10,3.3,14,6.5.3.3,2,1.7,2.3,1.9,2.6-1.3,3.8-3.6,3.3-4.3h0Z"/>
  <path d="M350.5,167.2l17.4,8s-7.4,4.5-11.5,2.3c-2.6-1.4-4.6-5.9-5.8-10.3h0Z"/>
  <path class="st6" d="M376.9,150.7c-2.5.1-5.4-1.5-6.7-3.7-.3-.5-1.9-.9-1.5-.2,1.8,2.9,6.1,5.1,9.2,4.9.3,0,.4-.2.1-.5-.3-.3-.8-.5-1.1-.5"/>
  <path class="st6" d="M368.1,145.8c-1-1.3-2.3-2.3-3.8-3.1-.2-.1-.5-.2-.8-.1-.2,0-.3.2-.2.4.5.7,1.3,1.3,2.1,1.7.2.1.6.2.9,0,.2-.1,0-.4-.1-.5-.7-.3-1.3-.8-1.7-1.4-.3,0-.6.2-.9.3,1.3.7,2.5,1.7,3.4,2.8.2.2.6.3.8.3.2,0,.5-.2.3-.4"/>
  <path class="st6" d="M362.2,143.2c-1.7-.9-3.4-2.6-3.6-4.3-.3-2.6,2.3-5.2,5.1-5.4.3,0,.3-.3,0-.4-.3-.2-.7-.3-1-.2-2.4.2-4.8,2.2-5.5,4.2-.6,1.9.5,3.9,2.3,5.4.5.4,1.1.9,1.8,1.2.3.1.8.3,1,.1.2-.1,0-.4-.2-.5"/>
  <path class="st6" d="M380.5,151.3c0-.2.2-.3.4-.2.5.2,1,.3,1.5.2,0,.3.1.5.2.8-1-.3-2.1-.5-3.2-.3-.2,0-.4-.1-.5-.4,0-.1,0-.4.1-.5"/>
  <path class="st6" d="M379.1,151c1.2-.2,2.5,0,3.5.3.2,0,.3.2.4.4,0,.2,0,.3-.2.4"/>
  <path class="st6" d="M384,153.3c1.1.5,2.8.3,4-.7,1.8-1.6,2.1-4.4,1.3-6.3,0-.2,0-.4.3-.3.2,0,.4.3.5.5.7,1.7.6,3.9-.4,5.7-1,1.7-2.7,2.4-4.2,2.3-.5,0-1-.1-1.4-.3-.2,0-.4-.3-.4-.6s.2-.3.4-.2"/>
  <path d="M427.5,59.2c-.5-1-1.5-1.7-2.5-2.4l-1-.9c-3.5-1.6-6.9-3.1-10.5-4.5-.9-.3-1.8-.7-2.7-.7-.1,0-.2,0-.3,0-2.5-1.2-5.1-2.5-7.6-3.6l-1.3-.2c-1.2-.3-2.4-.7-3.4-.5s-1.5,1.2-.6,2c.9.8,2.7.9,3.2,1.9.5,1-1.5,1.3-1.3,2.3,0,.6.9,1.2,1.4,1.8.5.7.5,1.5.9,2.3.5.8,1.5,1.4,2.6,1.6.9.5,2.4.7,2.4,1.5s-.1.4-.2.6c-.4.7,0,1.7.7,2.4s2,1,2.9.8c.9-.2,1.5-.9,2.4-1,.3,0,.6,0,.9,0,.1.3.4.7.7.9.8.7,2,1,2.9.8.9-.2,1.5-.9,2.4-1,.8-.1,1.8.1,2.3-.3.9-.7-.1-2.5,1-2.9,1-.3,2.3,1,3.5,1.1,1.2,0,1.7-1.1,1.2-2h0Z"/>
  <path d="M338.3,188.2c.4.8,1.3,1.3,2.2,1.8l.9.7c2.9,1.1,5.8,2.2,8.7,3.1.7.2,1.5.5,2.2.4,0,0,.2,0,.2,0,2.1.9,4.2,1.8,6.3,2.6h1.1c1,.3,2,.6,2.8.3.8-.2,1.1-1.1.4-1.6-.8-.6-2.2-.6-2.6-1.4-.5-.8,1.1-1.1,1-1.9,0-.5-.8-.9-1.2-1.4-.5-.6-.5-1.2-.9-1.8-.4-.6-1.3-1.1-2.1-1.2-.8-.4-2-.5-2-1.1,0-.2,0-.3.2-.5.3-.6,0-1.4-.7-1.9-.6-.5-1.6-.8-2.4-.6-.7.2-1.2.8-1.9.9-.2,0-.5,0-.8,0-.1-.3-.3-.5-.6-.7-.6-.5-1.6-.8-2.4-.6-.7.2-1.2.8-1.9.9-.6.1-1.5,0-1.9.4-.7.6.2,2-.7,2.4-.8.3-1.9-.7-2.9-.7-1,0-1.3.9-.9,1.7h0,0Z"/>
  <path d="M297.5,74.4c-1-.5-2.1-1.1-2.8-2-.7-.9-.8-2.4,0-3.2,1.4-1.2,4.3-.3,4.8-2-.7-2.2-4.2-3-4.2-5.3,0-1.9,2.4-2.6,4.3-2.9-.6-1.4-.7-.4-1.9-1.4s-.6-4.7.7-5.5c1.5-1,1.5.3,1.6-1.4-1-.8,1.9-.7,1.4-1.9-.5-1.2-.3-2.7.7-3.4,1.2-.9,1.5-1.8,2.1-3.2.5-1.2,2.9-.4,2.6-1.7-.5-2.3,2.2-3.9,4.5-4.7-.7-1,.6-.8.4-2-.2-1.2.3-2.7,1.4-3.2.7-.3,1.5-.3,2.2-.5,3-.8,3.2-5,2.7-8.1,1.9,1,4.6.3,5.8-1.5.5-.9.8-2,1.5-2.7s2.3-.8,2.6.2"/>
  <path d="M325.1,22.3c.8-1.1,4.6-6.7,5.4-7.9,1.3,1.3,3.9.9,4.8-.8.4-.8.6-2,1.5-2.2.9-.2,1.6.9,2.5,1.2,2,.7,3.6-2.3,5.8-2.2,1.3,0,2.3,1.4,3.7,1.5,2,.2,3.4-2.3,5.5-2.3s2.5,1.2,3.9,1.4c3,.4,5.6-3.2,8.4-2,1,.4,1.7,1.5,2.7,1.9,1.9.6,0-2.4,1.9-1.9,1.8.5,2.3,2.8,3.9,3.7,2.6,1.5,6.3-2.3,8.4-.2.9.9,1,2.4,1.8,3.3,2,2.2,6.1-.3,8.5,1.5,1.2.9,1.6,2.6,2.9,3.4,2,1.2,4.8-.7,6.8.3,1.6.9,2.1,3.3,3.8,3.9,1.2.4-1.1-2.1.1-1.8,2.1.6,2.7,3.4,4.5,4.7,1.5,1.1,3.5.8,5.4,1.1s4.1,5.1,3.4,6.8"/>
  <path d="M359.2,18.1c-11.5-.4-17.1,1.4-26,8.8l65,4.3c-3.8-2.6-7.6-4.9-11.7-6.5-10.8-4.1-15.8-6.3-27.3-6.7h0Z"/>
  <path d="M440.2,53.3c-.2-.2-.4-.5-.6-.7-1-1.3-1.2-3.8.4-4.1-3.2,0-3.2-5.6-6.1-6.8-.9-.3-1.8-.2-2.7-.5-2.3-.6-3.7-3.5-2.7-5.7-2.6.3-5.4-.5-7.4-2.2l-22.7-2.1c8,5.6,15.5,12.6,23.5,17.3,3.9,2.2,7.7,4.6,10.5,8,2.1,2.5,5.1,4.7,7.2,7.3.2-3.5.5-7,.6-10.5h0Z"/>
  <path d="M385.7,183.4c-1.8,2.3-2.9,5.1-5.3,6.8.8.7-.2,2.1-1.2,2.4-1,.4-2.4.7-2.6,1.8,0,.4,0,.8,0,1.1-.2,1.2-1.9,1.3-3.1,1.1.5.9-.6,1.8-1.6,2.1s-2.2.6-2.3,1.6c0,.5.2,1,0,1.5-.4.9-2,.3-2.8.9-.5.3-.6,1-1,1.5-.7,1-2.5.9-3.1-.2-1,1.8-2.9,4-4.8,3.1-1.2-.6-1.8-2.2-3.1-2.2-.8,0-1.5.7-2.2.9-2.7.5-3.4-5.1-6.1-4.6-1.4.3-2.2,2.3-3.7,2.2-1.4-.1-1.9-2-3.1-2.6-1.3-.7-3.3,0-4.3-1.1-.4-.5-.5-1.2-.8-1.8-.7-1.3-2.3-.4-3.8-.6-2.6-.2-2.1-2-2.1-2,0-1.9-1-2.2-2.9-2-.6,0-1.3.3-1.9.1-1.5-.5-1.2-3.2-2.7-3.7-.5-.2-1.1,0-1.7,0-2.1,0-3.3-3.2-1.6-4.5-2.2-.9-3.2-3.9-2.1-6-2.3-.2-4.1-2.9-3.2-5.1-2.7-.4-4-4.3-2.1-6.2-2,0-3.4-2.4-2.6-4.2.4-.9,1.3-1.9.8-2.8-.4-.6-1.1-.6-1.7-.9-1.5-.6-1.8-2.9-.6-4-2.6-.4-3.5-4.7-1.2-6-2.1-.4-2.7-3.7-.9-4.8-2.5-1.2-2.9-5.4-.5-6.9l17,43.1,6.2,6.7s26.2,13.9,32.4,13.7c6.1-.2,26.5-18.6,26.5-18.6h0,0Z"/>
  <path d="M396,33.1l-25.5-15.1-27.8,4.1-20,24.8-3.9,24.2h0l-11,33.9c.7.4,1.5.8,2.2,1.2.2.1.5.3.7.2.6,0,.7-1,.8-1.6.2-1.5,1.5-2.5,2.6-3.6,1.1-1,2.2-2.5,1.7-3.9-.2-.8-.9-1.5-.7-2.2.3-1,1.7-1,2.6-1.4,1.5-.7,1.7-3,.5-4,0,0,2.4-1.1,3.4-5,.9-3.9,1.5-8.2,1.5-8.2h0c.3-.2.6-.3.9-.6,2-1.7,1.2-5.3,3.1-7.2.9-.8,2.1-1.2,2.9-2.1,1.5-1.8.4-4.6,1.5-6.6,1.2-2.3,4.9-3.1,4.9-5.7,0-1.3-1-2.4-.9-3.6.1-2.2,3.3-3.8,2.5-5.8-.3-.7-1-1.2-1.2-1.9-.4-1.5,1.6-2.3,2.7-3.4,1.1-1.1,1.4-2.8,2.1-4.2.8-1.4,2.8-2.4,3.9-1.3.2-2.6,4.1-8.3,6.4-7,1.1.6,2.4,1.8,3.5,1.1.7-.5.7-1.7,1.4-2.4,1.8-1.6,3.9,2.7,6.1,2.1.6-.2,1.1-.7,1.6-.9,1.3-.6,2.8.1,4,1s2.2,2,3.6,2.3,3.2-.8,2.8-2.2c1,1.4,2.1,2.7,3.6,3.5,1.5.8,3.6.7,4.6-.7-.5,2.4,2.5,4.6,4.6,3.5.9-.5,1.7-1.3,2.6-1.1.4.1.7.5,1,.8,1.2,1.5,1.3,7.2,1.5,9.1l3.3-10h0Z"/>
  <path d="M432.8,56.2c-.6.6.1,1.7.9,2.1.8.4,1.8,1,1.6,1.9-.1.5-.7.9-.8,1.4-.4,1.6,3.1,1.6,3.4,3.2.2,1.2-1.7,2.3-1.1,3.4.3.5,1,.7,1.5.9.9.5,1.5,1.6,1.3,2.6-.1.8-.6,1.5-.4,2.2.2.9,1.9,1.2,1.8,2.1-1,4.7,1,4.7.1,6.9-.9,2.3-2,4.9-.9,7.1,2.1-.7,1-2.8.5-5-.2-.7,1-.2,1-.9s.2-1.5.9-1.7c.3,0,.2-3.1.5-3.3.7-.6,1.2-1.8.7-2.6-.6-1-2.4,0-1.4-.6s2.3-1.4,2.1-2.6c-.2-1.1-1.4-1.7-1.6-2.7-.2-1.2,1.1-2.1,1.3-3.3.3-1.6-1.4-2.7-2.8-3.5,1.4-.7,1.6-2.9.5-3.9-.5-.4-1.2-.7-1.3-1.3-.3-.9.8-1.9.4-2.7-.4-.7-1.5-.7-1.9-1.3-.7-1.1,1.1-2.2,1.1-3.4-.1-1.7-3.4-2.4-2.6-3.8"/>
  <path class="st18" d="M340.8,93.3l-.5,5.8c-.7,4.4-.1,13.8.3,16.5.6,3.8,21.4,14.4,26.6,13.8,5.2-.5,12.8-11.4,15.1-13.7l8.3,4.2c-.8,3.9-3.1,16.4-2.1,18.6.9,2.2,10.8,6.3,11.9,6.7.9.4,2.2.9,3.7,1.4,3.8,1.4,8.5,2.7,10.5,2,2.9-1.1,8.5-7.7,13.5-14l.8-1c.2-.2.4-.4.4-.5h0l.9-1.1c-9.7-11.2-26.2-17.3-39-14.6v.2s-8.1-4.2-8.1-4.2c-6.7-10.2-21.4-20.7-34.9-21.4h0l-36.3-5.3-1.5,3.1,30.5,3.5h0ZM389.9,137.9c-.6-1.4.8-10.3,2-17.1,11.1-2.2,25.9,3.4,34.9,12.7v.2c-2.8,3.4-10,12.4-12.9,13.5-3.4,1.2-23-7-24.1-9.2h0s0,0,0,0ZM343.5,115.9c-1.4-6.1-1-14.6-.1-21.6,12.3,0,30.1,11,36.7,20.8-3.6,4.3-9.3,12.2-13,12.6-5.4.6-23.2-9.4-23.5-11.9h0Z"/>
  <path class="st8" d="M346,144.8c1.4-.8,2.5.6,3.8.4.5,0,.8-.3,1.2-.5.5-.2,1.1.3,1.6.5.9.5,2,1,3,1,.5,0,1-.2,1.5-.2.8,0,1,.4,1.4,1,.5.8,1.5.7,2.3.5.7-.2,1.3-.4,2-.3.6.2,1.2.4,1.7.8,1,.9,2.1,2.3,3.5,1.4.2-.1.1-.2,0-.2-.3,0-.7.1-.9.2.7,0,.9-.1.5-.2,0,0-.2,0-.2-.1-.2-.1-.4-.2-.5-.4-.3-.3-.6-.6-.9-.9-.8-.7-1.8-1.2-2.9-1.2-.5,0-1.1,0-1.6.3-.7.2-1.2.4-1.7-.4-.3-.4-.4-.9-1-1-.4-.1-.8,0-1.2,0-.7.1-1.2.3-1.9,0-.6-.2-1.2-.4-1.8-.8-1-.5-1.7-1-2.8-.6-.3,0-.5.2-.7.3-.4.2,0,.3-.6,0s-1.1-.4-1.7-.5c-1.1,0-2.1.2-3,.7-.2.1-.1.2,0,.2.3,0,.7-.1.9-.2h0Z"/>
  <path class="st8" d="M377.5,153.3c.8.1,1.1.9,1.4,1.5s.6,1.3,1.2,1.7c.3.2.8.4,1.1.7.4.4.2.9.4,1.4.3.7,1.1.9,1.8,1,.4,0,1,0,1.4.2.5.3.3,1,.3,1.5,0,.9.3,1.5,1.1,1.9.4.2.9.4,1.3.7.5.4.4.8.2,1.4-.1.3-.1.6.1.9.1.1.8.6.7.8-.3.6,1,.5,1.2,0,.1-.3.1-.6-.1-.8-.4-.4-.8-.5-.6-1.1.1-.4.3-.8,0-1.2s-.6-.8-1-1c-.4-.2-.8-.4-1.2-.6-.5-.4-.5-1-.5-1.6,0-1-.2-1.6-1.3-1.8-.9-.1-2.1,0-2.2-1.1,0-.5,0-.9-.5-1.3-.3-.3-.7-.4-1-.6-1.3-.9-1.2-3.1-3-3.4-.3,0-.7,0-.9.2-.2.2-.2.5.1.5h0Z"/>
  <path class="st14" d="M62.6,474.8l-6.8,44.1c-6.7,27.2-2,63.5,4.1,90.9,5.7,25.5,13.8,51.5,19.6,72.1l20.9,150.1s-.2,65.2-6.7,119.1c-5.6,46.7,8.6,130.6,8.6,130.6l15.8,3.1c14.2,2.8,28.8,3.3,43.2,1.7l30.9-3.6,29.6-276.4,21.7-169.2,29.5-101.7-212.2-36.8,1.8-23.9h0Z"/>
  <path class="st14" d="M303.7,529l-20.7,299.6c0,13.1-5.2,24.9-11.1,87.9l-11.3,107.2-4.1,46.6-9,1.6c-12.3,2.5-24.9,3.3-37.5,2.4l-27.5-1.2,31.4-538,89.8-6.1h0Z"/>
  <path class="st7" d="M274.5,164.3l-13.2.8c-17.7,1.1-77.7,2.8-92.9,11.8-22.9,13.5,31,93,27.3,109.9-1.7,8.2-16.1,68.5-39.5,111.1-15.5,28.3-29.3,57.5-41.2,87.5l46.3,24.1c22.6,11.8,46.8,20.3,71.8,25.3l68.9-5c10-31.5,21.8-45,33.1-87l42.1-128.2,10.8-62.9s-7.1-8.2-7.4-11.7l-34.4-38.8s10.3,25.5-19.2,19.2c-26.2-5.5-31.6-11-45.2-32.3,0,0-8.5-14.4-7.3-23.7h0Z"/>
  <path class="st7" d="M137.6,258.6s-38,108.5-52,137.9-24.9,70.6-28.4,91.2c-9.9,58.1,94.2,71.7,137.9,81.3,43.7,9.6,104.5,19.7,114.1-8.5,8-24.4,15.8-55.5,39.2-138.6,24.2-85.7-86.5-145.1-86.5-145.1l-124.4-18.1h0Z"/>
  <path class="st15" d="M388.5,325.8c-6.7,13.2-12.6,26.9-18,40.8-5.2,13.4-9.9,27-14.9,40.5-2.9,8-5.9,16-9.1,23.9-.3.7,1,.7,1.2.2,5.5-13.8,10.5-27.9,15.6-41.9,4.9-13.5,9.9-27,15.5-40.1,3.4-7.8,6.9-15.5,10.8-23.1.3-.7-1-.7-1.2-.2h0Z"/>
  <path d="M248.1,612.8c-6.3,4.8-10.9,11.5-14.2,18.7-3.7,8.1-5.6,16.8-6.7,25.5-.6,4.9-.9,9.8-1.1,14.7-.2,4.9,0,9.7-.2,14.6,0,.6,0,1.2,0,1.9,0,1.7-.2,3.5-.3,5.2-.1,2.7-.3,5.4-.4,8.1-.2,3.5-.3,7-.5,10.4-.2,4.1-.4,8.2-.6,12.3-.2,4.6-.4,9.2-.7,13.8-.2,4.9-.5,9.8-.7,14.7s-.5,10.2-.8,15.3c-.2,5.1-.5,10.2-.8,15.2-.2,5.1-.5,9.8-.7,14.8l-.7,13.9c-.2,4.1-.4,8.2-.6,12.4-.2,3.5-.4,7-.5,10.5-.1,2.7-.3,5.4-.4,8.1,0,1.8-.2,3.5-.3,5.3,0,.7,0,1.3-.1,2,0,.4-.1.8-.1,1.3l-.4,3.8c-.2,2-.4,4.1-.7,6.1-.3,2.7-.6,5.4-.9,8.1-.4,3.3-.7,6.6-1.1,9.9-.4,3.8-.8,7.6-1.3,11.4-.5,4.2-.9,8.4-1.4,12.7-.5,4.6-1,9.2-1.5,13.7-.5,4.8-1.1,9.6-1.6,14.4-.6,5-1.1,10-1.7,14.9-.6,5.1-1.1,10.1-1.7,15.2s-1.1,10.2-1.7,15.3-1.1,10-1.7,14.9c-.5,4.8-1.1,9.6-1.6,14.4-.5,4.6-1,9.1-1.5,13.7-.5,4.2-.9,8.5-1.4,12.7-.4,3.8-.8,7.6-1.3,11.4-.4,3.3-.7,6.6-1.1,9.9l-.9,8.1c-.2,2-.4,4.1-.7,6.1l-.4,3.8c0,.4-.1.8-.1,1.3,0,0,.6,0,.7-.2,0-.4.1-.9.1-1.3.1-1.3.3-2.6.4-3.9.2-2.1.4-4.1.7-6.1.3-2.7.6-5.4.9-8.2.4-3.3.7-6.6,1.1-9.9.4-3.8.8-7.6,1.3-11.4.5-4.2.9-8.5,1.4-12.7.5-4.6,1-9.1,1.5-13.7.5-4.8,1.1-9.7,1.6-14.5.5-4.8,1.1-10,1.7-14.9s1.1-10.1,1.7-15.2c.6-5.1,1.1-10.1,1.7-15.2.6-5,1.1-10,1.7-14.9s1.1-9.6,1.6-14.4c.5-4.5,1-9.1,1.5-13.7.5-4.2.9-8.4,1.4-12.6.4-3.8.8-7.6,1.3-11.4.4-3.3.7-6.6,1.1-9.8.3-2.7.6-5.4.9-8.1.2-2,.4-4,.7-6l.4-3.8c0-.4.1-.8.1-1.2,0-.7,0-1.3.1-2l.3-5.3c.1-2.7.3-5.4.4-8.1.2-3.5.4-7,.5-10.5.2-4.1.4-8.3.6-12.4l.7-13.9c.2-4.9.5-9.8.7-14.8s.5-10.2.8-15.2l.8-15.2c.2-5.1.5-9.8.7-14.7.2-4.6.4-9.2.7-13.8.2-4.1.4-8.2.6-12.3.2-3.5.3-7,.5-10.4.1-2.7.3-5.4.4-8,0-1.7.2-3.5.3-5.2,0-.6,0-1.2,0-1.9.1-4.9,0-9.7.2-14.6.2-4.9.5-9.8,1.1-14.7,1.1-8.9,3.1-17.7,6.8-25.8,3.2-7,7.8-13.5,13.9-18.3.1,0-.5,0-.6,0h0Z"/>
  <path class="st25" d="M273.6,163.6s3.9,38,39,52.1c35.1,14.1,36-5.9,36-5.9l-1.6-7.6,10,11.7s-.4,9.9-8.1,15.7c-7.8,5.8-28,4.3-49.1-7.9-12.3-7.2-25.6-22.5-31.6-36.3-7.1-16.5-7.5-21.4-7.5-21.4l12.9-.4h0Z"/>
  <path class="st0" d="M272.9,163.8c.5,4.5,1.8,9,3.2,13.2,3.3,9.5,8.5,18.4,15.6,25.6,4.5,4.5,9.7,8.3,15.3,11.1,3.5,1.8,7.1,3.2,10.8,4.4,3.2,1.1,6.5,1.9,9.9,2.5,6.8,1.1,15.5.6,19.6-5.7.9-1.4,1.5-2.9,1.7-4.5,0-.2,0-.5,0-.8,0-.8-.3-1.6-.5-2.3l-.8-3.5-.4-1.7-1.3.4c2,2.3,4,4.7,6,7l3.4,4c.2.2.5.5.6.7,0-.1,0,0,0,.1,0,.2,0,.4,0,.6-.5,4.5-2.4,9.1-5.5,12.4-1.6,1.7-3.5,3.1-5.7,3.9s-4.5,1.1-6.9,1.2c-6.4.3-12.8-.9-18.8-2.7-7.5-2.2-14.8-5.5-21.3-9.8-5.8-3.8-10.9-8.6-15.4-13.7-4.8-5.4-9-11.4-12.3-17.8-1.6-3.3-3-6.7-4.4-10.1-1-2.6-2-5.1-2.9-7.7-.5-1.5-1-3-1.4-4.6-.2-.6-.2-1.3-.4-2,0,0,0-.1,0-.2l-.9.5c3.8-.1,7.5-.2,11.3-.4.5,0,1.1,0,1.6,0,.4,0,1.4-.6.5-.6-3.8.1-7.5.2-11.3.4-.5,0-1.1,0-1.6,0-.2,0-.9.1-.9.5.1,1.5.6,3.1,1.1,4.5,1.7,5.7,4,11.3,6.4,16.8,2.8,6.5,6.8,12.6,11.3,18.1,4.6,5.6,9.8,10.9,15.6,15.2,6.3,4.6,13.6,8.1,21,10.6,6.3,2.2,13,3.6,19.7,3.7,4.6,0,9.6-.5,13.6-3,4.5-2.9,7.3-7.9,8.5-13.1.2-.8.3-1.6.4-2.3,0-.3.2-.7,0-1,0-.2-.4-.4-.5-.6l-1.4-1.7c-2.5-2.9-5.1-5.9-7.6-8.9-.2-.2-.4-.4-.5-.6-.2-.2-1.3,0-1.3.4.4,1.7.7,3.5,1.1,5.2.2.8.5,1.7.5,2.5,0,1-.5,2.5-1,3.5-1,2.1-2.5,3.8-4.5,5-3.3,1.9-7.4,2.1-11.1,1.7-6.9-.6-13.8-2.9-20.1-5.7-5.9-2.6-11.3-6.1-16-10.4-7.6-6.9-13.2-15.8-16.9-25.4-1.2-3.3-2.3-6.6-3-10-.4-1.7-.6-3.4-.9-5.1,0,0,0-.2,0-.2,0-.3-1.3,0-1.3.4h0Z"/>
  <path class="st22" d="M303.5,99.7c.2-3.8.2-7.7-.4-11.4-.3-1.9-.7-3.8-1.6-5.6-.3-.6-.8-1.4-1.4-1.8s-1.5.3-1.9.7c-2.7,2-4.2,5.2-5,8.4-.1.4.8.3.9,0,.6-2.6,1.7-5,3.6-7,.6-.7,1.4-1.3,2.2-1.7h-.5c.6.3,1,1,1.3,1.6,1.3,2.4,1.6,5.3,1.9,7.9.3,3,.2,6,.1,8.9,0,.4.9.3.9,0h0Z"/>
  <path class="st22" d="M300.7,99.3c-4.1-1.7-4,5.5-5,7.7,0,.2-.3.6-.5.6.1,0,0,0,0-.2,0-.2-.1-.4-.2-.6-.3-1.5,0-3.2.1-4.7.3-2.1.6-4,1.5-5.9,1-2.1,2.6-5.1,5.2-5.2.5,0,.7-.7,0-.7-2.5.2-4.2,2.3-5.3,4.3-1,1.7-1.6,3.3-2,5.2s-.6,3.8-.6,5.8c0,.7,0,2.2.7,2.6.7.4,1.4-.2,1.8-.8.4-.8.6-1.7.8-2.6.2-1.2.4-2.4.9-3.6.4-1,1-1.7,2.1-1.2.4.2,1-.4.5-.6h0,0Z"/>
  <path d="M387.6,167.3c.6,1.4,1.2,2.9.7,4.4-.2.5-.5,1-.9,1.4-.5.7-1,1.4-1.5,2-.1.1-.2.3-.4.3-.2,0-.4,0-.5,0-.6-.1-1.2-.2-1.6-.6s-.8-1-.6-1.5c0-.2.3-.4.3-.7,0-.5-.6-.7-.9-1-.9-.8-.5-2.2-.5-3.4s-.9-3.1-2.1-4.2c-.6-.6-1.2-1.1-1.7-1.7s-.7-1.6-.3-2.3"/>
  <path class="st11" d="M365.8,156.5c-7.6-2.9-19.5-8.6-19.5-8.6,0,0-4.3,19,13.3,25.8s23.7-11.8,23.7-11.8c0,0-9.9-2.5-17.4-5.5h0Z"/>
  <path class="st17" d="M365.8,156.6c-3.6-1.4-16.8-7.1-16.8-7.1,0,0,.3,12.6,13.3,17.7,14.1,5.5,18.9-5.6,18.9-5.6l-15.4-5.1h0Z"/>
  <path class="st10" d="M365.8,157.1c-3.6-1.4-14.3-6.2-14.3-6.2,0,0,2.5,5.1,13.3,9.3,10.8,4.2,15.5,2.1,15.5,2.1l-14.6-5.2h0Z"/>
  <path class="st11" d="M384.1,162.2c-.4-.2-.8-.2-2.6-1.1-2.9-1.4-3.3-2.5-5.4-3.5-3.6-1.7-6.4-1.3-8-1.9-1.6-.6-3.4-2.9-7.2-4-2.2-.7-7.8-2.1-10.9-3-1.8-.6-3.7-2-4.1-2.1-.6,0-.9,3.8,19.2,11.7,20.1,7.9,19.5,4.2,19,3.9h0Z"/>
  <path d="M368.9,150.4l-2.1,3.4c-.3.5-.9.8-1.5.6-4.1-1-19.6-4.6-23.1-6.1,0,0-.3,1.6-.3,1.5l-.8-.4c-1.2-.8,1.5-4.8,2.9-4.8,4.4,0,8.2.3,10.5.6,2.9.4,10.7,1.8,13.9,3,.8.3,1.1,1.3.7,2.1h0Z"/>
  <path d="M374.9,153l-1.8,3.1c-.2.6-.1,1.2.2,1.6,2.6,2.5,11.1,10.7,13.8,12.5,0,0,.1,0,.2.1l1,.4c1.1.4,2.1-2.4,1.5-3.5-2-3.3-3.3-5.3-4.6-6.9-1.6-1.9-5.9-6.4-8.3-8-.6-.4-1.5,0-1.8.8h0Z"/>
  <path d="M343.9,147.6c-1.5.4-3,1-3.8,2.3-.3.5-.4,1-.5,1.6-.2.8-.4,1.7-.6,2.5,0,.2,0,.3,0,.5,0,.2.2.3.4.4.5.4.9.8,1.5.9.6.1,1.3,0,1.5-.6.1-.2.2-.5.3-.6.4-.3.9,0,1.4,0,1.2.2,2-1,2.9-1.8,1.2-1,2.9-1.3,4.5-1.1.8,0,1.6.3,2.4.2.8,0,1.6-.5,2-1.2"/>
  <path class="st7" d="M58.7,395.2s6.2-15.7,11.9-31.4c8.6-27,33.7-77.4,55.3-126.1,27.2-55.5,40.8-67.7,67.7-65.5s31.5,62.5,31.5,62.5l-43,117.8-116.1,56-3.7-.8-3.7-12.6h0Z"/>
  <path class="st15" d="M141.3,397.3c4.8-8.6,9.4-17.4,13.9-26.1,4.4-8.5,8.7-17.1,13-25.7,4-8.1,8-16.3,11.9-24.5,3.6-7.6,7.2-15.3,10.7-23,3.1-6.9,6.3-13.8,9.4-20.7,2.6-5.9,5.3-11.8,7.9-17.8,2.1-4.7,4.1-9.5,6.2-14.2.8-1.9,1.6-3.7,2.5-5.6.9-2,1.8-3.9,2.5-6,2.2-6.2,2.9-13,2.3-19.6-.5-5.8-2.3-12.1-6.5-16.3-.9-.9-2-1.7-3.1-2.3-.5-.3-1.6.4-1,.8,5.1,2.8,7.6,8.5,8.7,14,1.3,6.4,1,13.3-.6,19.7-1.1,4.5-3.2,8.6-5.1,12.9-2,4.4-3.9,8.9-5.9,13.3-2.5,5.6-5,11.3-7.5,16.9-2.9,6.7-5.9,13.3-9,19.9-3.4,7.5-6.9,15-10.4,22.4-3.8,8.1-7.6,16.1-11.5,24.1-4.1,8.5-8.3,16.9-12.6,25.3s-8.9,17.3-13.6,25.8c-1.2,2.1-2.3,4.3-3.5,6.4-.4.6,1,.7,1.2.2h0Z"/>
  <path class="st15" d="M291,497.9c.5-1.5,1-3.1,1.5-4.6,0-.1,0-.2-.1-.3-1-.7-2-1.3-3-2-2.8-1.8-5.5-3.7-8.3-5.5-4.2-2.8-8.4-5.5-12.6-8.3-5.3-3.5-10.6-7-15.9-10.5-6.1-4-12.1-7.9-18.2-11.9-6.4-4.2-12.9-8.4-19.4-12.5-6.5-4.2-13.1-8.4-19.6-12.6-6.3-4-12.6-8-18.9-11.9-5.7-3.5-11.4-7.1-17.1-10.5-4.7-2.9-9.4-5.7-14.2-8.4-1-.6-2-1.1-2.9-1.7-.4-.2-1.6.3-1.1.6,4.5,2.5,9,5.2,13.4,7.8,5.5,3.3,11,6.7,16.5,10.1,6.2,3.8,12.3,7.7,18.5,11.6,6.5,4.1,13.1,8.3,19.6,12.5,6.5,4.2,13.1,8.4,19.6,12.6,6.2,4,12.3,8,18.5,12.1,5.5,3.6,11,7.2,16.5,10.8,4.5,3,9,5.9,13.5,8.9,3.1,2.1,6.3,4.2,9.5,6.3,1,.6,1.9,1.3,2.9,1.9.5.3,1,.7,1.5,1,0,0,.1,0,.2.1v-.3c-.6,1.5-1.2,3.1-1.7,4.6-.2.5,1.1.4,1.3,0h0s0,0,0,0Z"/>
  <path class="st15" d="M141.2,397c-2.2-.4-4.5-.5-6.7-.3-4.6.2-9.1,1.4-13.1,3.8-2.7,1.7-5,3.9-6.7,6.6-.1.2.5.2.5.2.3,0,.6-.1.8-.4,2.8-4.3,7.1-7.3,12-8.7,3.3-.9,6.8-1.2,10.1-.9.7,0,1.4.1,2,.2.3,0,.6,0,.9-.2.1,0,.5-.3.1-.4h0Z"/>
  <path class="st25" d="M81,451.3s-32.2-10.9-21.7-57.6c8.3-22,53-16.3,53-16.3l-31.3,70v4Z"/>
  <path class="st20" d="M558.9,485.2s0,0,0,0v-.2c0,0,0,.1,0,.2h0Z"/>
  <path class="st29" d="M574,404.4c.5-.4.7-1,.7-1s.2.2.2.5c0,.4-.2.8-.5,1-.3.3-.7.4-1.1.4s-.4-.1-.4-.2c0-.2.6-.2,1.1-.7h0Z"/>
  <path class="st1" d="M525,372.4s-68.9-24.7-78.8-27.8c1.8-8.6,6.7-17.6,15.9-19.4,2.7-.5,5,.1,7.6.2,2.3,0,4.2-1.8,6-3,6.5-4.1,12.8-1.1,19,1.9.4.2.8.2,1.1.1.6.6,1,1,1,1,0,0,4.8-3.1,13.1-1,8.3,2.1,13,12.2,13,12.2,0,0,10.8-1.6,17.2,7.1,5.4,7.3,5.3,14.3,5.3,14.3,15.8,7.9,18.4,23.3,12.9,36.1,1.9,2,3.8,4.7,4.2,7.3,0,.3,0,.7.1,1.1,0,.2,0,.5-.1.8-.4,1.8-.9,4-1.4,5.3-1.4,3.8-3,6.5-6.4,8.4-.1,0-.2.2-.3.3-1.3.4-2.7.8-3.7,1.6-1.4,1.1.5,5.7.2,7.3-1,4.8.2,5.7-4.2,11.9-1.7,2.5-3.6,4.8-5.6,7.1-2.3,1.2-4.7,1.8-7.1,1.7l-3.7-1.2s-5.1,13.4-15.1,15.8c-9.9,2.5-20.4-2-20.4-2,0,0-6.5,10.2-16.2,5.8s-18.2-27.9-18.2-27.9l60.2-12.8,4.4-52.1h0Z"/>
  <path class="st13" d="M425.5,441.4c6.3.4,31.1,4.9,37.4,4.2,2.9-.3,25-4.3,27.8-5.2-15.8,17.7-14.3,28.5-13,33l2.5,8.4c-22.7,14.6-76.8,36.3-80.1-9.8l17.2-8.9,8.3-21.7h0Z"/>
  <path class="st5" d="M521.4,587.6c-.7-2.5-18-11.5-21.7-30.7,0,0,20.2-5.4,27.1-9.6,0,0,21-42.7-23.1-72.3-9.4-6.3-17.5-8.4-24.4-16.3-5.5,9.7-16.3,21.4-41.2,25.5-5,.8-12.1-1-16.3-3.6-4.8-2.9-6.5-4.6-7.9-10.6-.5-2.1.3-5.7,2-8.6-7.4,3.2-32.4,13.2-36.9,15.8-21.4,12.2-34.5,35.2-42.9,55,.1.5-1.1,4.7-1.4,5.2-4,8.2-7,14-9.2,25.2,9.5,8.1,35.1,19.1,35.1,19.1,0,0-.4,2-1,19-.6,15.4,2,88.5-1.9,121.5,10.9,4.8,21.9,9.8,33.7,12.3,11.6,2.4,24.3,2,36.2,2,24.8,0,49.6-2.5,74.2-5.7,9-1.2,18.4-1.8,27.1-4.7-8-40.8-7.2-137.4-7.5-138.5h0Z"/>
  <path class="st13" d="M486.1,539l-26.7,77c13.2,6.1,25.8,16.4,36.1,26.4,17.8-23.3,22.2-51.8,34.3-79.9l-1.4-8.7c10.5-31,6.9-40.8,1.5-52.9-5.5-12.1-18.5-17.7-18.5-17.7-8.9,3.1-13.8,29.5-17.8,44.5l-7.6,11.2h0Z"/>
  <path class="st19" d="M360,519.9c-.3,3.8-.4,7.6-.5,11.4,0,4.4,0,8.9,0,13.3,0,3,0,5.9,0,8.8,0,1.9.2,3.7.2,5.7.1,3.4.2,6.9.1,10.3,0,4-.2,8.1-.9,12.1l1.2-.6c-5.6-2-11.1-4.3-16.5-6.9-4.2-2-8.3-4.2-12.1-6.8-1.6-1.1-3.1-2.3-4.5-3.7-.2-.2-.5-.8-.8-.9-.2,0,0,0,0,0,0,0,0-.1,0-.2.2-.5.3-1,.4-1.5.9-3.1,1.8-6.3,2.7-9.4l-1.4.5c4.4,3.8,8.8,7.6,13.2,11.3,1.9,1.6,4.3,2.7,6.5,3.8,2.5,1.2,5.1,2.2,7.8,3.2,1.5.6,3,1.1,4.5,1.6.6.2,1.8-.7.9-1-3.8-1.2-7.5-2.7-11.1-4.3-2.4-1.1-4.8-2.2-6.9-3.8-1.4-1.1-2.7-2.3-4.1-3.4-1.5-1.2-2.9-2.5-4.4-3.7-1.8-1.5-3.5-3-5.3-4.5-.4-.4-1.2,0-1.4.5-.8,2.8-1.6,5.7-2.4,8.5l-.5,2c-.1.4-.3.6,0,1,.5.7,1.2,1.4,1.9,1.9.7.7,1.5,1.3,2.2,1.9,3.7,2.8,7.8,5.1,12,7.1,3.9,2,7.9,3.7,12,5.4,2.1.9,4.2,1.7,6.4,2.5.4.2,1.1,0,1.2-.6,1.1-6.7,1-13.7.8-20.5,0-2-.1-4-.2-6,0-.2,0-.4,0-.5,0,0,0-.5,0-.2v-.5c-.1-7-.1-13.9,0-20.9,0-4.4.1-8.8.5-13.1,0-.8-1.5-.5-1.5.1h0Z"/>
  <path class="st5" d="M496.8,473.5s37.7,8.6,40.4,48.9c2.7,40.3-7.4,67.9-7.4,67.9,0,0-34.7,2.8-59.4-15.1-15.2-11.1,25.7-99.4,25.7-99.4"/>
  <path class="st19" d="M510.5,497.4c-2.7.3-5.5,1.2-8,2.3-5.6,2.4-10.6,6.1-14.1,11.1-2,2.9-3.4,6.1-4.7,9.3-1.3,3.4-2.5,6.9-3.6,10.3-2.5,7.8-4.8,15.6-6.7,23.6-1.7,7-3.1,14-4.4,21,0,.2,0,.4-.1.6,0,0,0,.1,0,.2,2.8,2.2,6.1,3.9,9.3,5.4,8.6,4.1,17.9,6.7,27.2,8.1,7.6,1.2,15.3,1.6,22.9,1.3.3,0,1-.1,1.1-.5.9-3.5,1.9-7.1,2.8-10.6.1-.5-1.1-.1-1.2,0,0,0,0,0,0,0-.3.1.1,0,0,0-.3.1-.6.2-.9.4-.2,0,0,0-.2,0-.1,0-.2,0-.3,0-.3,0-.6.2-1,.2-.7.2-1.5.3-2.2.4-5.4.8-11,.2-16.2-1-2-.4-3.9-.9-5.8-1.5-.7-.2-1.3-.4-2-.6-1.1-.3-2.3-.6-3.5-.9-4.5-1.2-9-2.5-13.4-4-2.6-.9-5.2-1.9-7.8-3.1-2-.9-4-2-5.5-3.5-.3-.3-1.7.2-1.4.5,1.4,1.3,3.2,2.3,4.9,3.2,2.2,1.1,4.6,2,6.9,2.9,4.7,1.7,9.4,3.1,14.2,4.4,1.3.3,2.7.7,4,1,2.3.6,4.6,1.4,7,1.9,5.7,1.3,11.6,2,17.4,1.4,2.3-.3,4.9-.7,6.9-1.8h-1.2c-.9,3.5-1.9,7-2.8,10.6l1.1-.5c-13.8.4-27.7-1.3-40.8-5.8-6-2.1-12-4.7-17.3-8.4-.1,0-.3-.3-.5-.3,0,0,0,0-.1,0,0,0,0,.2,0,0,.3-.8.3-1.7.5-2.5.3-1.8.7-3.7,1-5.5,1.2-6.3,2.7-12.5,4.3-18.6,1.8-6.8,3.8-13.6,6-20.3,1-2.9,2-5.8,3.1-8.7s2.4-5.7,4.1-8.3c3-4.5,7.2-8,12.1-10.4,1.7-.8,3.4-1.5,5.2-2,1.2-.3,2-.5,3.1-.7.1,0,.3,0,.4,0,.7,0,1.3-.8.2-.7h0Z"/>
  <path class="st19" d="M478.6,458.8c-1.9,2.9-4.3,5.5-6.7,8-5.3,5.4-11.3,10.2-18.2,13.4-8.4,3.9-17.8,4.9-26.7,2.4-3.3-.9-6.5-2.4-8.9-4.9-1.7-1.8-2.7-4-3.2-6.3-.4-1.9-.3-3.9,0-5.8.2-1.1.6-2.1.8-3.1,0,0,0-.1,0-.1.2-.4-.9-.1-1-.1-2.5,1-4.9,2-7.4,3-.5.2-1.2.3-1.4.9s-.2,1.1-.3,1.6c-.8,6.1,1.6,12.1,6.1,16.3,4,3.7,9.3,6,14.6,7.4,5.5,1.5,11.3,1.8,16.9,1.1,5.5-.7,10.9-2.3,15.9-4.7,5.1-2.5,9.6-5.8,13.9-9.5,3.4-3.1,6.7-6.3,9.5-10,.7-.9,1.4-1.9,2-2.9.3-.5.6-1,.8-1.5,0,0,0-.1,0-.2,0,0,0-.1,0-.1-1.8-1.7-3.5-3.4-5.3-5-.3-.3-1.7.3-1.4.5.8.7,1.5,1.4,2.3,2.2l1.7,1.6c.4.4.8.9,1.2,1.1.2.1,0,.2,0,0,0,0,0,0,0,0,0,.1-.1.2-.2.4-.3.6-.6,1.2-1,1.7-1.7,2.7-3.8,5.1-6,7.4-3.7,3.9-7.8,7.6-12.3,10.6-8.8,5.9-19.5,9-30.1,7.9-5.5-.5-11.1-2.1-16-4.9-3.7-2-7-4.9-9.1-8.6-1.4-2.5-2.2-5.3-2.3-8.1,0-1,0-1.9.1-2.9,0-.5.2-1.1.3-1.6,0,0,0-.1,0-.2l-.5.3c2.7-1.1,5.5-2.2,8.2-3.3h-1c-1,2.3-1.3,5.2-1.1,7.8.2,2.3,1,4.6,2.4,6.5,1.9,2.6,4.7,4.4,7.7,5.5,4.5,1.7,9.4,2.4,14.2,2.2s9.1-1,13.4-2.6c7.6-2.8,14.5-7.6,20.3-13.2,3.2-3,6.2-6.3,8.7-10,0,0,0-.1.1-.2.3-.5-1.2-.3-1.4,0h0s0,0,0,0Z"/>
  <path class="st3" d="M513.7,442.3c-5.9,4.5-16.9,6.4-24.2,7.9-7.5,1.5-10.4,1.2-17.1-1.6-13.2-5.5-25.3-14.3-33.3-26.3-8.3-12.4-11.6-27.5-9.4-42.6,1.5-10.5,4.9-20.3,9.8-29.2.7-.9,1.7-2.2,2.4-3.1,15.1-14.6,23-16.8,42-11.9,11.7,2.9,23.9.5,37.6,14.6,3,3,5,8.9,8.5,13.4,5.4,6.6,10.2,16.1,10.4,23.4.3,10.6-4.9,22.5-9.8,33.7-3.7,8.5-9.3,16-16.7,21.7,0,0,0,0-.1.1h0Z"/>
  <path class="st13" d="M421.2,385.1c1.3-2.8,2.8-6,4.7-9.8.5-1.1,1.1-2.2,1.6-3.2.3-.5.6-1,.9-1.6,10-18.3,21.1-24.9,21.1-24.9,14.1-8.4,31.5-8.6,45.7-.6,17,9,27.2,27.3,29.9,41.9,1.4,7.2,0,14.7-3.7,21-3.2,5.4-9.1,7.3-13.6,12.6,6.1,2.8,12.6,5.9,3.8,14.9-9.7,10-20,11-23.2,3.9-2.1.1,4.1-3,1.4,1.1-.5.1-8.2,12.5-8.6,12.9-4.1,4.4-10.8,1.8-16.4,2-5.9.3-12,0-17.9-.5-8.3-.8-16.9-2.5-24.8-5.7l.5-.9c-3.2-1.9-1.9-.8-5.6-3.7-12-10.6-6.1-40.2-3.3-47.5,2.3-6.2,5-8.9,7.5-12h0,0Z"/>
  <path class="st29" d="M422.4,448.2s16.4,11.4,41.3,6.5c0,0-9,5.3-21.3,3.7-12.3-1.6-20.7-7.1-20.7-7.1l.6-3.1h0Z"/>
  <path class="st23" d="M496.9,423.9c0,0,1.4-3.7-1,.4-1.2,2,5-3.5,7.5-4,1.1-.2,2.5-.5,3.7-.4s5.1,1.4,6.3,1.8c1.8.4,4.5,4.6,5.8,5.8.2.2-.8-2.9-.6-2.7,10.4-10,17.5-18.9,16-38.2-.5-5.6-5.1-13.8-6.5-16.4-8.5-15.5-20-22.1-35.3-28-17.8-6.9-39.1-10.4-51.5,3.5-3,3.4-5.1,9.7-4.3,12.2,0,0,4.9-9.5,15.5-9.9s12.2.3,23.6,6.3c13.3,6.9,18.4,6.8,26.4,17.4,7.2,9.6,7.2,14.7,7.2,14.7-.6,2.6-.2,5.3-.3,7.9-.1,2.6-1,5-2,7.4-2.2,4.8-5.1,7-8,11.5-1.8,2.8-6.1,7.9-4.2,11.3.9,1.5,0-.6,1.7-.3h0Z"/>
  <path class="st8" d="M497.5,423.9c.2-.4.5-1,.5-1.5,0-1-1.3-.2-1.7.2-.4.5-.9,1.2-1.1,1.8-.1.2-.2.5,0,.6.6.4,1.5-.4,2-.6,1-.7,2-1.4,3-2s2-1.4,3.1-1.7c1.5-.5,3.2-.6,4.7-.2s2.9.8,4.3,1.3c.6.2,1.1.4,1.6.8.7.5,1.2,1.1,1.8,1.8,1,1.1,1.8,2.5,3,3.4.2.2.7.1.9,0,1.1-.5-.4-2.3-.2-3l-.4.4h0-.9,0c.3.2.9.1,1.2-.1,3.8-3.6,7.5-7.4,10.3-11.8,2.9-4.4,4.8-9.5,5.5-14.8.5-3.1.5-6.3.4-9.5,0-1.6-.2-3.1-.5-4.6-.3-1.4-.8-2.8-1.3-4.2-1-2.7-2.3-5.3-3.7-7.8-1.2-2.3-2.5-4.6-4-6.8-3.3-5-7.4-9.4-12.2-12.9-4.8-3.6-9.8-6.1-15-8.4-11.4-4.9-24-9-36.6-8.2-5.7.4-11.5,2-16.2,5.2-2.4,1.6-4.7,3.6-6.4,6s-2.8,5.2-3.3,8c-.2,1-.2,2,0,3,.1.4,1.1.1,1.3-.2,1-2,2.6-3.7,4.2-5.2s3.4-2.6,5.4-3.3c2.6-1,5.3-1.1,8-1.1,2.1,0,4.3,0,6.4.3,2,.3,3.8,1,5.7,1.8,2.6,1.1,5.1,2.5,7.6,3.8s5.2,2.6,7.9,3.9c3.9,1.8,7.9,3.4,11.4,5.9,4.2,3,7.5,7.1,10.2,11.3,2,3.1,4,6.6,4.6,10.2,0,.3.1.6.1.8h0c0,0-.1.7-.1.8,0,.5-.1,1-.2,1.5-.1,1.8,0,3.5,0,5.3,0,1.6-.4,3.3-.9,4.8-1,3.1-2.5,5.8-4.5,8.4-.9,1.1-1.8,2.2-2.7,3.4s-1.6,2.3-2.5,3.5c-1.4,2-2.8,4-3.6,6.2-.4,1-.6,2.2-.4,3.2.1.6.5,1.9,1.3,1.9.3,0,.7-.1.9-.4,0,0,0-.2.1-.3,0,0,0,0,0-.1.1-.2,0,0,0,0,.3,0,.7,0,1-.2.2-.2.2-.4-.1-.5-.6,0-1.3,0-1.8.4-.2.1-.3.3-.4.5,0,0-.2.4,0,.3l.6-.3c1,0,.4.2.4,0,0,0-.2-.3-.2-.3-.1-.2-.2-.4-.3-.6-.2-.6-.2-1.2-.2-1.8.1-1.2.6-2.3,1.1-3.3,1.1-2.2,2.6-4.2,4-6.2,1.7-2.4,3.7-4.6,5.4-7,1.8-2.6,3.2-5.6,3.8-8.7.3-1.6.4-3.1.3-4.7,0-.9,0-1.8,0-2.8s.3-1.9.3-2.8c0-.5,0-1-.2-1.4-.8-3.9-2.9-7.5-5.1-10.7-2.8-4.1-6-8.1-10.1-10.9-3.5-2.4-7.4-4-11.2-5.8-2.6-1.2-5.3-2.5-7.9-3.9s-5-2.6-7.5-3.8c-1.8-.8-3.6-1.4-5.5-1.8-2-.4-4.1-.5-6.1-.5-2.6,0-5.3,0-7.8.7-2.2.6-4.3,1.5-6.2,2.9-2.4,1.7-4.6,3.9-6.1,6.5,0,.1-.2.3-.2.4l1.3-.2c-.3-1-.2-2.1,0-3.2.3-1.4.7-2.7,1.2-4,1.2-2.8,2.9-5,5.1-7,4.3-3.8,9.7-6,15.4-6.7,6-.8,12-.1,17.9,1.1s12,3.3,17.8,5.7c5.3,2.2,10.6,4.6,15.3,7.8,4.8,3.2,8.8,7,12.2,11.5,3.2,4.2,5.8,9,8.1,13.9,1.2,2.6,2.4,5.4,2.9,8.2.6,3.1.5,6.4.4,9.6-.3,5.4-1.5,10.8-4.1,15.5-2.3,4.4-5.6,8.2-9.1,11.8-.9.9-1.8,1.8-2.7,2.7l1.2-.2h0c-.2-.2-.7-.1-.9,0-1.1.5.4,2.3.2,3l.4-.4h0,.9c-.9-.7-1.6-1.8-2.3-2.7-.8-1-1.7-2-2.7-2.7-.8-.5-1.9-.8-2.8-1.1-1.3-.4-2.5-.8-3.9-1.1-2.5-.5-5.3.3-7.4,1.6-1,.6-1.9,1.3-2.9,1.9-.4.3-.8.6-1.2.9-.2.1-.8.4-.8.5,0,0-.4-.1.2,0,.2,0,.5.1.5.1.1,0,.3-.5.4-.7.2-.3.4-.7.6-1,0,0,.2-.2.2-.3.2-.4-1,.2-1,0,0,.1-.1.5-.2.7,0,.1-.1.3-.1.4,0,0-.1.3,0,.2-.3.5,1,.4,1.2,0h0s0,0,0,0Z"/>
  <ellipse class="st8" cx="429.1" cy="383.1" rx="4.1" ry="4.1" transform="translate(-41.6 713.8) rotate(-76.8)"/>
  <path class="st23" d="M427,378.5c2.3-.2,4.5-.3,7.9,1.8,5.4,3.4,5.4,11.5,5.4,11.5,0,0-1.6-5.9-6.9-9.4-2.5-1.7-7-2.9-9.6-2.9.3-.5,1.8-.9,3.2-1.1Z"/>
  <path class="st8" d="M498.7,430.6c1-.1,2.4.1,2.3,1.4-.1,1.4-1.4,2.8-2.6,3.3-1.1.5-2.3.3-3.4-.1-.1,0-.7.2-.5.3,2.1.8,4.4.4,6-1.2.8-.9,2.1-3.1.3-3.8-.5-.2-1.2-.2-1.8-.2-.1,0-.4,0-.4.2s0,.1.2.1h0Z"/>
  <path class="st21" d="M470.8,403.8c-.8,2.7-3.9,3.8-6.2,2.2-1.4-1-2.1-2.9-1.6-4.5.8-2.7,3.9-3.8,6.2-2.2,1.4,1,2.1,2.9,1.6,4.5Z"/>
  <path class="st23" d="M457,400.7s7.1-6,15.2-1.7c6.9,3.7,7.8,8.5,8.1,11.5,0,0-2.5-5.6-9.1-9.4-6-3.4-14.3-.4-14.3-.4h0Z"/>
  <path d="M464.6,384c0-.1.5,0,.6,0,7.7,2,12.9,4.6,14.6,6,1.3,1,2.4,2.4,3.3,3.9,0,0,2.5,4.1,2.5,5.2s-2-1.6-2-1.6c-.5-.5-.8-.9-1.3-1.3-2.9-2.3-5.5-4.9-8.9-6.2-3-1.1-7.6-1.4-10.8-1.8.6-1.4,1.5-2.6,2.1-4.1h0Z"/>
  <path d="M447.1,375.6c0-.1-.3-.3-.3-.4-5.7-4-10.5-5.8-12.4-6.1-1.5-.2-3,0-4.5.4,0,0-1.8,0-2.5.8-.7.8-.2,1.4-.2,1.4.6,0,1-.1,1.6,0,3.2.5,6.5.4,9.3,2,2.4,1.3,5.3,4.3,7.4,6.3.6-1.5.9-2.9,1.6-4.3h0Z"/>
  <path class="st6" d="M435,410.6c.9,1.3,2.9,2.2,4.6,2.1.4,0,1.2.6.7.7-2.2.1-5.1-1.2-6.2-3-.1-.2,0-.3.2-.2.2,0,.6.2.7.4"/>
  <path class="st6" d="M441,413.3c1.1,0,2.1.3,3.1.8.1,0,.3.2.4.4,0,.1,0,.2-.1.2-.6,0-1.2-.2-1.7-.5-.2,0-.4-.2-.4-.4,0-.2.2-.2.3-.1.4.2.9.4,1.4.4,0,.2.1.4.2.6-.9-.4-1.8-.6-2.8-.7-.2,0-.4-.2-.5-.3,0-.1-.1-.3,0-.3"/>
  <path class="st6" d="M444.8,415.5c1.1.6,2.7.8,3.7.2,1.5-.8,1.9-3.4.9-4.9-.1-.2,0-.2.2-.2.2,0,.4.3.5.4.8,1.4.7,3.5-.1,4.6-.8,1-2.2,1.2-3.7.9-.5-.1-.9-.3-1.3-.5-.2,0-.5-.3-.5-.5,0-.2.2-.2.3,0"/>
  <path class="st6" d="M433.2,409c.1-.1,0-.2,0-.3-.3-.1-.6-.4-.7-.7-.2,0-.3.1-.5.2.6.4,1.1.9,1.4,1.5,0,.1.2.2.4.1.1,0,.3-.1.2-.2"/>
  <path class="st6" d="M434,409.6c-.4-.7-1-1.3-1.6-1.7-.1,0-.2,0-.4,0-.1,0-.2.1-.1.2"/>
  <path class="st6" d="M430.8,407.9c-.7-.4-1.3-1.4-1.2-2.4.1-1.5,1.4-2.8,2.8-3.1.1,0,.2-.2,0-.3-.1-.1-.3-.1-.5,0-1.2.3-2.3,1.2-2.8,2.4-.5,1.2-.2,2.3.5,3.1.2.2.5.4.7.6.1,0,.3.1.5,0,.1-.1,0-.2,0-.3"/>
  <path class="st13" d="M507.8,415.1c-.9,0-5.5-6.2-6.6-5.6-2.3-28.2-37.8-58.8-66-50.1,2.5-3,12-11.3,13.2-12.1,13-8.3,29.7-7.4,45.8-1.4s32.8,20.1,34.7,40.4c1.8,19.7-3.4,34.3-21.1,28.9h0Z"/>
  <path d="M502.9,387.4l.6-.5c.1,1.7.9,3.4,2.1,4.6.7.7,1.7,1.6,1.3,2.5-.1.3-.3.5-.4.8-.7,1.8,3,2.2,3.4,4.1.3,1.6-2,2.7-1.8,4.3.2,1.4,2.2,2,2.4,3.4.2,1.8-2.6,3-2,4.7.4,1.2,2.3,1.4,2.6,2.6.2.6,0,1.2-.3,1.8-3.2-.4-6.4-.6-9.8-1,.3-.6.6-1.3,1-1.8.4-.5.8-1,.7-1.6-.1-1.3-2.1-1.5-2.8-2.7-1.2-2,2.7-4.1,2.1-6.3-.4-1.4-2.2-2-2.2-3.4,0-1.8,3-3.1,2.2-4.7-.2-.5-.8-.8-1.2-1.2-.8-.8-.7-2.1-.2-3.1.5-1,1.4-1.7,2.2-2.5h0Z"/>
  <path d="M503.2,387.4l.6-.5h-.6c.1,1.6.6,3,1.6,4.1.5.6,1.2,1.1,1.6,1.8.2.3.3.5.3.9,0,.5-.3.8-.5,1.2-.6,1.7,2.4,2.4,3.1,3.5,1.4,2.1-2.7,3.6-1.1,5.8.6.8,1.9,1.4,2,2.5.1,1.1-.8,1.9-1.4,2.7-.7.9-.9,1.9,0,2.7.5.4,1.1.6,1.5,1.1.8.7.6,1.6.3,2.5l.5-.2c-2-.2-4-.4-6-.6-1-.1-2-.2-3.1-.3-.2,0-.5,0-.5-.3,0-.1.2-.5.3-.6.2-.4.5-.8.8-1.1.4-.5.8-1.1.5-1.8-.2-.5-.6-.8-1-1-1-.6-2.2-1.3-1.8-2.6.5-2,3.4-3.7,1.7-5.9-.7-.9-2.1-1.8-1.6-3.2.4-1.1,1.4-1.7,2-2.7.2-.4.3-.9.1-1.4-.4-.8-1.3-1-1.6-1.9-.8-2,1-3.7,2.4-4.8.1-.1-.4,0-.6,0-1,.8-2.1,1.8-2.5,3.1-.3,1.2,0,2.2,1,3,2.2,1.9-1,3.1-1.4,5-.2,1,.5,1.7,1.1,2.4.8.8,1.4,1.7,1,2.9-.5,1.5-2.8,3.2-2,4.9.5,1,1.7,1.2,2.4,2,.6.6.5,1.3,0,2-.5.8-1,1.4-1.4,2.3,0,0,0,0,.1,0,3.2.4,6.5.6,9.8,1,.1,0,.5,0,.5-.2.2-.7.5-1.4.1-2.1-.2-.5-.7-.7-1.1-1-1-.6-1.9-1.3-1.3-2.5.5-1,1.5-1.6,1.8-2.7s-.4-1.8-1.1-2.5c-1-.9-1.6-1.8-.9-3.1.5-.9,1.5-1.7,1.4-2.8,0-.9-1-1.5-1.7-2-.6-.4-1.8-.9-1.8-1.8,0-.7.7-1.1.6-1.9s-.8-1.3-1.3-1.8c-1.3-1.3-2.1-2.9-2.2-4.7,0-.2-.5,0-.6.1l-.6.5c-.1.1.4,0,.6,0h0s0,0,0,0Z"/>
  <path d="M510.3,380c-1.2.4-2.1,1.6-2,2.9s1,2.5,2.2,2.8c-1.2,1.1-1.1,3.3,0,4.4.5.5,1.2.8,1.5,1.4.8,1.5-1.4,3.4-.6,5,.3.6,1,.9,1.2,1.5.6,1.2-.6,2.6-.4,3.9.3,1.6,2.5,2.3,2.7,3.9.1,1.1-.8,2.4-.2,3.3.3.5,1,.7,1.3,1.3.3.7-.3,1.4-.7,2-.8,1.6.5,3.8,2.3,3.9-.5,1.1-.5,2.4,0,3.5,1.2-.7,2.4-1.5,3.2-2.6.8-1.1,1.1-2.8.3-3.9-.3-.4-.8-.8-1-1.3-.5-1.3.9-2.8.3-4-.4-.8-1.6-1.2-1.7-2.1,0-.4.2-.9.3-1.3.5-1.5-.5-3.3-2-3.8-.4-.1-.9-.2-1.2-.5-.8-1,.9-2.2.9-3.5s-1.7-2.1-1.6-3.3c0-.4.3-.8.4-1.2.1-.6-.2-1.3-.4-1.9-1.5-3.1-3.1-6.1-4.7-9.1"/>
  <path d="M510.1,379.9c-1.4.5-2.5,2-2.2,3.5.1.7.5,1.4,1,1.8.1.1.9.5.9.6s-.4.8-.5.9c-.6,1.5,0,3,1.2,3.9.7.6,1.3,1.1,1.1,2.1-.1.7-.5,1.4-.7,2.1-.2.6-.3,1.2,0,1.8.5,1,1.6,1.3,1.3,2.6-.1.8-.5,1.5-.6,2.3,0,.7.3,1.3.8,1.8.4.5.9.9,1.4,1.4.7.8.7,1.5.5,2.5-.2.7-.5,1.5,0,2.1s1.5.9,1.3,1.8-.9,1.5-.9,2.5c0,.8.3,1.5.8,2,.3.3.6.5.9.7.1,0,.3.1.4.1.4.1.4,0,.2.4-.3,1.1-.2,2.1.2,3.1,0,.2.4,0,.5,0,1.3-.8,2.8-1.7,3.5-3.1.7-1.1.8-2.6,0-3.7-.5-.7-1.1-1.2-.9-2.2.1-.7.5-1.3.5-2,0-.5,0-1-.5-1.4-.4-.5-1.2-.8-1.3-1.5-.2-.7.4-1.5.4-2.2,0-.6-.2-1.3-.5-1.8-.3-.5-.7-.9-1.2-1.1s-1.9-.4-1.7-1.5c.2-1.2,1.5-2,1-3.4-.2-.5-.6-.9-.9-1.3-.5-.7-.6-1.2-.3-2.1.3-1,0-1.8-.4-2.7s-.9-1.9-1.4-2.8c-1-2-2.1-4-3.2-6-.1-.2-.7,0-.6.2.9,1.6,1.8,3.3,2.7,5,.4.8.9,1.7,1.3,2.5.4.8.9,1.6,1.1,2.5.1.5,0,.9,0,1.4,0,.3-.2.6-.2.9,0,.5.3,1,.7,1.4.3.4.8.9.9,1.4.2.8-.3,1.5-.7,2.1-.6,1.1-.5,1.9.8,2.2,1.4.4,2.4,1.7,2.3,3.2,0,.7-.6,1.4-.4,2.1.2.5.6.9,1,1.2.6.5.9,1,.8,1.8,0,.7-.4,1.3-.5,1.9,0,.7.2,1.2.6,1.8.7.8,1,1.5.9,2.5-.3,2.1-2.2,3.3-3.8,4.3h.5c-.5-1.1-.5-2.3,0-3.5,0,0,0-.1-.1-.1-1.3-.1-2.2-1.2-2.4-2.4,0-.7.1-1.2.5-1.8.3-.5.6-1,.4-1.5-.1-.5-.6-.7-.9-1-.6-.5-.7-1.1-.5-1.8.2-1.1.6-2-.1-3-.6-.9-1.7-1.4-2.1-2.4-.5-1.2.4-2.4.4-3.6,0-1.3-1.5-1.7-1.6-2.9,0-1.1.8-2.2.9-3.3.2-1.5-1.2-1.8-2-2.8-.9-1.2-.8-2.9.2-4,0,0,0-.1,0-.1-2.5-.8-2.9-4.5-.3-5.5.4-.2,0-.3-.2-.2h0s0,0,0,0Z"/>
  <path d="M513.9,377.9c-1.2,1.5-.8,4.1.8,5.2.3.2.7.4.9.7.4.7,0,1.5,0,2.4-.2,1.8,1.4,3.3,3.1,4.1,1,.5,2.4,1.2,2.2,2.4,0,.5-.3.9-.3,1.3,0,1.2,2.2,1.7,2,2.9,0,.6-.7.9-.8,1.5-.2,1.2,1.5,1.7,2,2.8.2.5,0,1.1,0,1.6-.3,1.6-.7,3.3-1,5,0,.4-.2.9.1,1.2.5.5,1.3,0,1.8-.6,2.5-3,4.3-6.7,5.1-10.5.2-1,.2-2.2-.7-2.6-.3-.1-.7-.1-.9-.4-.3-.4,0-1,.3-1.5,1.2-1.9,0-4.7-2.1-5.3-.6-.1-1.3-.2-1.5-.8-.2-.4,0-.8,0-1.2,0-1-.9-1.8-1.8-2.2-.9-.5-1.9-.8-2.6-1.5-.9-.9-1-2.4-2.1-3.1-1.3-.9-3.4-.3-4.2-1.6"/>
  <path d="M513.6,378c-.7,1-.9,2.3-.5,3.4.2.5.4.9.8,1.3.5.6,1.5.8,1.6,1.7,0,.8-.3,1.5-.3,2.2,0,.7.3,1.4.8,1.9.9,1.1,2.2,1.6,3.4,2.4.5.3,1,.8,1.1,1.4.1.7-.5,1.3-.3,2,.3,1,1.7,1.2,1.9,2.2.2.6-.4,1-.6,1.5s-.2.9.1,1.3.8.7,1.1,1c.7.6.8,1.3.6,2.1-.3,1.8-.9,3.6-1.1,5.4-.2,1.2.8,1.5,1.8,1,.5-.3.9-.7,1.2-1.1.5-.7,1.1-1.4,1.5-2.1.8-1.4,1.5-2.8,2.1-4.3.5-1.4,1.1-2.9,1.1-4.4,0-.5,0-1.1-.4-1.5-.4-.5-1.5-.4-1.4-1.2,0-.6.6-1.1.8-1.7.1-.5.1-1.1,0-1.6-.2-1.1-1-2.2-2-2.7-.6-.3-1.7-.2-2-.9-.2-.4,0-.8,0-1.2,0-.4-.2-.8-.4-1.2-1-1.3-2.9-1.4-4-2.6-1-1-1-2.7-2.5-3.4-1.2-.5-3-.2-3.8-1.4,0-.1-.7.1-.6.2.6.9,1.7,1,2.7,1.1.6.1,1.1.2,1.6.6.6.4.8,1.1,1.1,1.7.2.5.5,1,.8,1.4.5.6,1.3.9,2,1.2.6.3,1.2.5,1.7,1,.7.6.8,1.2.7,2,0,1.5,1.5,1.3,2.5,1.9s1.6,1.8,1.7,3c0,.6,0,1.2-.4,1.7-.2.4-.8,1-.5,1.5.3.5,1,.4,1.4.8.4.5.5,1.1.4,1.7-.1,1.5-.7,3.1-1.2,4.5s-1.3,2.8-2.1,4.1c-.4.6-.8,1.2-1.3,1.8-.2.3-.5.6-.8.9-.9.6-1.1-.2-1-.8.2-1.8.8-3.6,1.1-5.4.2-1.3-.3-1.9-1.2-2.7-.4-.3-.8-.7-.9-1.2,0-.7.7-1.1.8-1.8.1-.9-.8-1.4-1.3-1.9-.5-.4-.8-.9-.6-1.5s.4-1.1,0-1.8c-.7-1.2-2.3-1.5-3.3-2.3-.7-.5-1.3-1.1-1.6-1.9-.3-.8-.2-1.5,0-2.4.2-.7.1-1.4-.5-1.8s-1.2-.8-1.6-1.6c-.6-1.2-.6-2.8.3-3.9,0,0-.5,0-.6.1h0Z"/>
  <path d="M517.6,377.2c1.7,2.1,5.7.1,7.3,2.2.8,1,.8,2.8,2,3.1.6.2,1.2,0,1.7.3,1,.6,0,2.3.2,3.5.4,1.5,2.7,1.7,3.1,3.2.1.4,0,.9.1,1.3.2.8.8,1.4,1.3,2,.5.6.9,1.5.5,2.2,2.8-1.7,3.9-5.6,2.6-8.5-.1-.3-.3-.6-.3-1,0-.3.1-.7.2-1,.5-1.6,0-3.5-1.2-4.8-.4-.4-.9-.8-1.1-1.4-.2-.8.3-1.6.4-2.5.2-2-2-3.2-2.8-5.1-.3-.8-.4-1.6-.7-2.4-.3-.8-.8-1.6-1.5-2.1-.5-.4-1.3-.8-1.9-.4-.4.2-.6.7-1,1.1-.9.8-2.3.4-3.4,0s-2.4-1.1-3.5-.5c-1.5.9-1.1,3.2-2,4.6-.4.6-1.1,1-1.5,1.7-.3.6-.4,1.3-.4,2,0,1.2,0,2.4-.1,3.7"/>
  <path d="M517.3,377.4c1.1,1.3,2.9,1.1,4.4,1.2.8,0,1.8,0,2.5.6.8.6.9,1.6,1.3,2.4.3.7.7,1.1,1.5,1.3.6.1,1.4-.1,1.7.6.2.4,0,1,0,1.5-.1.8-.2,1.6.3,2.2.5.6,1.2.9,1.8,1.3.4.3.8.7.9,1.3.1.6,0,1.2.3,1.8.5,1.1,2.2,2.1,1.5,3.5-.2.3.4.2.5.1,3-2,4-5.8,2.6-9-.4-1.1.2-2.1.2-3.2,0-.9-.3-1.8-.8-2.5-.5-.8-1.7-1.5-1.8-2.5,0-.9.6-1.8.4-2.7-.3-1.8-2.1-2.8-2.8-4.4-.4-1-.5-2.1-1-3-.4-.8-1.1-1.5-1.9-1.9-.7-.3-1.4-.3-2,.2-.3.3-.5.7-.8,1-.6.5-1.4.4-2.1.1-1.6-.5-3.4-1.9-5-.5-1.5,1.2-.9,3.5-2.2,4.9-.8.8-1.3,1.5-1.5,2.7-.1,1.4,0,2.9-.1,4.3,0,.3.7.2.7,0,0-1.1,0-2.2,0-3.4,0-1.2.2-2.1,1-3,.5-.5,1-1,1.2-1.7s.3-1.4.5-2.1c.3-1.2,1.1-2,2.4-1.6.9.2,1.7.8,2.7,1,.6.2,1.3.3,1.9,0,.8-.2,1-.8,1.6-1.3,1.1-1,2.5,1,3,1.8.5,1,.5,2,.9,3,.7,1.4,2.1,2.3,2.6,3.8.3.9,0,1.6-.2,2.4-.2,1,0,1.6.8,2.3,1.4,1.4,2,3.1,1.5,5-.2.6-.3,1,0,1.6.1.4.4.8.5,1.2.3.9.3,1.8.2,2.7-.3,2-1.3,3.8-3,4.8h.5c.4-.8,0-1.7-.6-2.4-.3-.4-.8-.8-1-1.4-.2-.6,0-1.2-.3-1.8-.6-1.7-3.2-1.7-3.1-3.8,0-.8.5-1.7,0-2.5-.6-1-1.9-.3-2.6-1-.6-.6-.8-1.6-1.1-2.4s-1-1.2-1.7-1.4c-1.8-.5-4.5.4-5.9-1.3-.2-.2-.8,0-.6.3h0s0,0,0,0Z"/>
  <path d="M511.3,373.9c-1-1.2-.5-3.3.9-4.1.5-.2,1.1-.5,1.1-1,0-.2,0-.4-.2-.6-.5-1.4.4-3,1.8-3.4.3,0,.6-.1.9-.2,1.1-.6.3-2.9,1.5-3.2,1-.3,1.7,1.2,2.8,1.3,1,0,1.6-1.3,2.7-1.4,1.5-.1,2.5,2.6,3.9,1.9.7-.4.6-1.5,0-2.1s-1.3-.9-1.9-1.4c-1.6-1.3-1.9-3.6-3-5.4-1.2-1.8-3.1-2.9-5-4-.8-.4-1.7-.9-2.6-1-1.4-.1-2.9.7-3.4,2-.1.2-.2.5-.5.7-.1,0-.3,0-.5,0-.8,0-1.6-.2-2.4-.2-.3,0-.6,0-.9.1-.6.4,0,1.3.5,1.7.6.4,1.4.8,1.4,1.5,0,1.3-2.5,1-2.9,2.3-.4,1.3,2,2.1,1.8,3.5-.1.8-1.1,1.2-1.4,1.9-.3.8.2,1.6.8,2.2.6.6,1.3,1.1,1.6,1.9.2.6,0,1.3.1,1.9,0,1.9,1.3,3.6,2.5,5.1"/>
  <path d="M511.6,373.8c-1-1.4-.4-3.2,1-4,.4-.2.9-.5,1-1,0-.3-.2-.6-.2-.9-.1-.4,0-.9,0-1.3.3-.9.9-1.5,1.8-1.7.6-.2,1-.3,1.3-.9.2-.4.2-.9.3-1.4,0-.3,0-.6.2-.8.3-.6.9-.2,1.3,0,.9.7,1.7,1.2,2.7.5.6-.4,1.2-1.2,1.9-1.1.6.1,1.1.7,1.5,1.1.6.6,1.4,1.2,2.3.7,1.2-.7.5-2.2-.3-2.8-.6-.5-1.3-.8-1.8-1.4-.6-.6-.9-1.4-1.3-2.1-.6-1.5-1.2-2.9-2.3-4.1s-2.7-2-4.2-2.8c-1.3-.7-2.7-1.2-4.2-.6-.6.2-1.1.6-1.5,1-.2.2-.4.5-.6.8,0,.1-.1.4-.2.5-.3.2-.7.1-1,0-.8,0-3.4-.7-3.3.8,0,.6.5,1,1,1.3.6.4,1.6,1.1.9,1.8s-2,.5-2.6,1.5c-.6,1.1.7,1.9,1.3,2.7.6.8.4,1.4-.3,2.1-.5.5-.9,1-.7,1.8.2.9,1,1.4,1.6,2,.4.4.7.7.9,1.2.2.6,0,1.2.1,1.8,0,2,1.3,3.7,2.5,5.2.1.2.7,0,.6-.2-1.1-1.4-2.3-3-2.5-4.8,0-.9.2-1.7-.3-2.5-.4-.6-1-1.1-1.5-1.6-.6-.6-1.1-1.5-.6-2.3.4-.5,1-.8,1.2-1.5.3-1-.7-1.8-1.3-2.4-2.1-2.4,3.6-1.9,2.4-4.1-.3-.5-.8-.7-1.2-1-.3-.2-.8-.6-.8-1.1,0-.7,1-.5,1.5-.4.7,0,1.6.4,2.2.1.6-.2.7-.9,1-1.4.6-.8,1.5-1.3,2.5-1.3s1.8.5,2.7,1c1.5.8,3.1,1.7,4.2,3,1.1,1.2,1.5,2.7,2.2,4.1.3.6.6,1.1,1,1.6.5.6,1.1.9,1.8,1.4s1.5,1.3,1,2.2-1.4-.2-1.8-.5c-.6-.6-1.4-1.3-2.3-1.1-.5,0-.8.3-1.2.6-.2.2-.5.5-.8.6-.6.3-1,0-1.5-.4-.7-.5-1.5-1.1-2.3-.5-1,.7-.3,2.2-1.1,3-.3.3-.9.3-1.3.5-.3.1-.5.3-.8.5-.5.4-.8,1-1,1.7,0,.3,0,.6,0,.9,0,.6.5,1,0,1.5-.5.4-1.1.5-1.5,1.1-.8,1-.9,2.5-.1,3.6.1.2.7,0,.6-.2h0,0Z"/>
  <path d="M508.5,376.7c.7-1.8-1.8-3.1-2.7-4.9-.7-1.3-.4-3.1-1.3-4.2-.7-.8-1.9-1.3-2.1-2.4,0-.6.2-1.2.3-1.9.2-2.4-3.4-3.9-3.1-6.2.3-2.1,3.7-3.2,3.3-5.3-.1-.7-.6-1.2-.6-1.9,0-1.4,1.6-2,3-2.2,1.9-.3,3.7-.6,5.6-.9-2.2-3.1-5.4-5.6-9-7-1.3-.5-2.8-.9-4.1-.6s-2.6,1.6-2.5,3c0,.4.2.8.2,1.2-.1,1.8-3.4,2.6-2.8,4.4.1.4.5.7.6,1.1.4,1.2-1.2,2.2-1.1,3.4.1,1.1,1.5,1.5,2,2.5.3.6.2,1.3.3,1.9.1.9.6,1.7,1.1,2.5,1.3,2.2,2.7,4.4,4,6.6.9,1.5,2,3.2,3.6,3.9-.4,3.4,2.3,6.9,5.7,7.3"/>
  <path d="M508.9,376.6c.4-1.1-.3-2-1-2.8-.4-.5-.9-1-1.3-1.5-.5-.6-.7-1.3-.8-2.1-.1-.7-.2-1.5-.5-2.2-.3-.6-.8-1-1.3-1.5-.5-.4-1-.8-1.1-1.5-.1-.8.4-1.5.3-2.2-.2-2.3-3.3-3.4-3.1-5.7.2-2.2,3.4-2.9,3.3-5.1,0-.8-.7-1.5-.7-2.3,0-.9,1-1.4,1.8-1.6.9-.3,2-.4,2.9-.5,1.2-.2,2.4-.4,3.5-.6.1,0,.5-.1.3-.3-1.4-1.9-3.1-3.6-5-4.9-1.9-1.3-4.3-2.6-6.7-2.8-1.8-.2-3.9.6-4.4,2.4-.3,1,.4,2-.2,3-.4.7-1.1,1.1-1.7,1.7-.4.4-.9.9-.9,1.5,0,1,1,1.5.6,2.5-.3.8-1,1.5-1,2.3,0,.9.9,1.4,1.4,2,1,.9.6,2.1,1.1,3.3s1.2,2.2,1.9,3.3c1.4,2.3,2.7,4.7,4.3,6.9.4.5.8,1,1.3,1.4.5.4,1.1.5,1.1,1.1,0,1.1.2,2.2.7,3.1,1,2,2.9,3.4,5.1,3.8.2,0,.7-.3.4-.3-3.4-.5-5.9-3.8-5.6-7.2,0,0,0,0,0-.1-1.7-.8-2.7-2.4-3.6-3.9-1.1-1.9-2.2-3.7-3.4-5.6-.5-.8-1-1.6-1.4-2.5s-.2-2-.6-2.8c-.6-1.2-2.5-1.7-1.8-3.3.2-.6.7-1.1.9-1.8.2-.7-.2-1.2-.5-1.8-.6-1.2.9-2.1,1.6-2.8.3-.3.7-.6.9-1.1.4-.8,0-1.5,0-2.3s.7-1.6,1.4-2c1.1-.7,2.5-.5,3.7-.1,4,1.2,7.5,4,9.9,7.3l.3-.3c-2,.3-4,.6-6,1-1,.2-2.4.6-2.8,1.7-.6,1.3,1,2.4.3,3.8-.5,1-1.6,1.7-2.3,2.5s-1,1.8-.6,2.8c.5,1.1,1.4,1.9,2.1,2.9.4.5.6,1,.8,1.5.1.8-.3,1.5-.3,2.2,0,1.5,1.9,2,2.5,3.2.4.8.4,1.8.6,2.6.2.8.5,1.4,1,2,.9,1.1,2.6,2.3,2.1,3.9,0,.2.5.1.6,0h0,0Z"/>
  <path d="M503.9,378.1c-2.7.4-5.4-1.4-6.2-4-.2-.9-.3-1.8-.6-2.6-1-2.4-4.2-3.4-5-5.8-.5-1.3-.2-2.8-.6-4.2-.9-2.7-4.3-4-5-6.7-.2-.7-.1-1.5-.5-2.1-.5-1-1.7-1.5-2.3-2.5-.8-1.3-.3-3.1-1.1-4.4-.5-.8-1.5-1.2-1.7-2.1-.5-1.5,1.3-3.1.7-4.5-.2-.6-.8-.9-1-1.5-.6-1.4.9-2.7,2.4-3.1,1.8-.4,3.8-.2,5.6.1.4,0,.9.1,1.3.2,2.2.3,4.8,1,5.7,3,.2.4.2,1-.1,1.2-.2.1-.4.2-.6.2-1.7.2-3.4.4-5,.5,1,.9.4,2.6-.3,3.7-.8,1.1-1.7,2.5-1.1,3.7.3.6,1,1.1,1,1.8s-.4,1-.5,1.5c-.4,1.5,1.5,2.6,2.4,3.9.6.9.8,2,1.2,3.1.4,1.2,1,2.4,1.6,3.5.5,1,1.1,2.1,1.6,3.1,1.5,2.9,3.1,5.7,4.8,8.5,1.2,1.9,2.5,3.8,3.9,5.7"/>
  <path d="M503.9,377.9c-2.5.3-5-1.3-5.8-3.7-.4-1.2-.4-2.4-1.1-3.5-.5-.8-1.3-1.5-2-2.1-.8-.7-1.7-1.3-2.2-2.2-.8-1.2-.6-2.6-.8-3.9-.3-2.2-1.9-3.5-3.4-5-.7-.7-1.4-1.5-1.7-2.5-.3-1.1-.2-2.2-1.1-3.1-.8-.9-1.8-1.4-2.1-2.7-.2-1.1-.1-2.2-.6-3.2-.6-1-2-1.5-1.9-2.9,0-1,.8-1.9.9-2.9,0-.4,0-.8-.2-1.1-.3-.6-.9-.9-1-1.6-.5-1.6,1.7-2.6,3-2.7,1.8-.2,3.5.1,5.2.4,1.3.2,2.6.4,3.9.9,1,.4,2.6,1.4,2.5,2.7,0,.8-2.1.8-2.8.8-.9.1-1.9.2-2.8.3-.1,0-.5.2-.3.4,2.1,2.1-2.2,4.8-1.6,7.1.2.6.6.9.9,1.4.5.8-.1,1.4-.3,2.1-.3,1,.4,1.8,1.1,2.5,1,1,1.7,1.8,2.1,3.1.4,1.4.9,2.8,1.6,4.1,1.5,2.9,3.1,5.9,4.7,8.7,1.8,3.2,3.8,6.4,6.1,9.4.2.2.8,0,.6-.3-4-5.3-7.1-11.1-10.2-17-.8-1.4-1.5-2.8-1.9-4.4-.4-1.3-.8-2.3-1.7-3.3-.8-.8-2.1-1.8-1.6-3.1.2-.5.5-.9.5-1.4,0-.6-.5-1-.8-1.5-1.1-1.6.5-3.1,1.2-4.5.6-1,.9-2.4,0-3.4l-.3.4c.9-.1,1.8-.2,2.7-.3s1.8-.1,2.6-.3c1.1-.2,1.1-1.2.6-2.1-1.1-2-3.9-2.5-5.9-2.8-2.7-.4-6.5-1.4-8.7.7-.7.7-1.2,1.7-.6,2.6.3.6.9,1,1,1.6s-.2,1.4-.5,2c-.4,1-.7,2,.1,3,.4.5.9.8,1.3,1.3.5.6.5,1.4.6,2.1.1,1.3.3,2.3,1.3,3.2.5.5,1,.8,1.4,1.4.5.7.4,1.5.6,2.3.5,2.3,2.8,3.5,4.1,5.3,1,1.3,1.1,2.6,1.2,4.1,0,1.3.5,2.4,1.4,3.3s2,1.7,2.9,2.6c.5.5.9,1.1,1.1,1.7.3.9.3,1.8.7,2.6.9,2.6,3.7,4.1,6.4,3.9.3,0,.5-.5,0-.5h0Z"/>
  <path d="M483.1,356.3c1-.3,1-1.8.4-2.6s-1.6-1.4-2.1-2.2c-.7-1.1-.5-2.6-.9-3.9-.5-1.3-1.7-2.3-2.6-3.4s-1.5-2.8-.6-3.9c.5-.6,1.3-1.1,1.2-1.9-.2-.8-1.3-1-1.4-1.8-.1-.9,1.1-1.3,1.4-2.1.2-.6-.2-1.1-.7-1.5-1.6-1.2-3.9-.7-5.8,0l-6.7,2.2c-.2,0-.3.1-.4.2-.6.4-.4,1.5.2,1.9.6.4,1.4.5,2.1.6s1.5.4,1.9,1,0,1.5.2,2.2c.4,1.8,2.9,2.1,3.9,3.6.7.9.7,2.1,1.4,3,.7.9,1.9,1.3,2.8,2,1.2,1,1.7,2.7,2.3,4.2s1.8,2.4,3.4,2.4"/>
  <path d="M483.2,356.3c.8-.3,1.1-1,1-1.9-.2-1.3-1.5-1.8-2.2-2.8-.9-1.1-.7-2.5-1-3.8-.3-1.3-1.3-2.2-2.2-3.2s-1.9-2.5-1.4-3.9c.3-.8,1.9-1.6,1.5-2.6-.3-.8-2-1.2-1.2-2.3.6-.8,1.7-1.4.9-2.5-1.4-1.9-4.3-1.1-6.1-.5-1.6.5-3.2,1.1-4.7,1.6-.8.3-1.6.5-2.4.8-.4.1-.8.3-.9.7-.4,1.1.8,1.8,1.7,2,1.5.3,3,.4,3,2.2,0,1.2.2,2,1.2,2.7.8.6,1.8,1,2.5,1.7,1,1.1.9,2.7,2,3.7.5.5,1.1.8,1.7,1.1.7.4,1.3,1,1.7,1.7.7,1.2,1,2.7,1.9,3.9.7,1,1.8,1.5,3,1.5.1,0,.7-.2.4-.2-1.2,0-2.3-.6-2.9-1.7-.6-1-.9-2.2-1.5-3.2s-1.2-1.7-2.2-2.3c-1.1-.7-1.9-1.3-2.4-2.5-.4-1-.7-1.9-1.5-2.5-.7-.6-1.6-.9-2.4-1.5-.3-.3-.6-.6-.8-1-.2-.6,0-1.2-.1-1.8,0-1.2-1-1.6-2.1-1.8-.6-.1-1.3-.1-1.9-.4-.5-.3-1-1-.7-1.5.2-.6,1.5-.8,2.1-1,.7-.2,1.5-.5,2.2-.8,1.4-.5,2.7-1,4.1-1.4s2.9-.5,4.1.4c.5.4,1,1,.7,1.7-.2.5-.7.8-1,1.1-.6.7-.3,1.2.3,1.7.4.3.8.6.8,1.1s-.7,1-1,1.5c-.7.8-.7,1.8-.4,2.7.5,1.3,1.5,2.2,2.4,3.2.5.5.8,1.1,1,1.8s.2,1.4.4,2.1c.2,1.4.9,2.1,1.9,3,.5.5,1,.9,1.1,1.6.1.5.1,1.4-.5,1.7-.4.2,0,.2.2.1h0Z"/>
  <path d="M474.2,349c-.3-1.7-2.7-1.9-3.7-3.3-.6-.9-.6-2.1-1.5-2.8-1-.7-2.8-.2-3.5-1.2-.5-.7-.1-1.8-.6-2.4-.5-.6-1.4-.6-2.2-.4-2.6.5-5.1,1.5-7.4,2.8-.3.1-.5.3-.7.6-.3.6.3,1.4.9,1.5s1.3-.2,1.9-.5,1.2-.7,1.9-.6c2,0,2.8,3,4.8,3.2.6,0,1.2-.2,1.8,0,1.4.3,1.7,2.4,3,2.7.5.1,1,0,1.5-.1.8,0,1.7.3,2.3.9.3.3.5.6.9.8.4.2.9,0,.9-.4"/>
  <path d="M474.5,348.9c-.3-1.5-2-1.9-3.1-2.8-1.3-1-1.1-3.2-2.9-3.8-.8-.2-1.9,0-2.5-.6-.8-.7-.2-1.9-.8-2.7-.4-.5-1.2-.6-1.8-.6-1,0-2.1.4-3.1.7-1.1.3-2.1.8-3.2,1.2-.8.4-2,.8-2.5,1.5-.4.5-.3,1.2.2,1.6.6.5,1.4.4,2.1.1,1.1-.4,2.1-1.4,3.3-.7.7.4,1.2,1.1,1.7,1.6.4.5.9.9,1.5,1.1.9.3,2-.2,2.9.4.7.5,1,1.4,1.6,2,.7.7,1.5.5,2.5.4.8,0,1.6.2,2.2.8.3.3.5.7.9.9.6.3,1.3,0,1.5-.6,0-.3-.5-.2-.6,0-.2.6-1.2-.6-1.4-.8-.2-.2-.4-.3-.7-.5-.9-.4-1.6-.3-2.5-.2-1.7.1-1.9-1.7-3.1-2.5-.6-.4-1.3-.3-1.9-.2-.9,0-1.5-.3-2.1-.9-.8-.8-1.5-1.9-2.7-2.2-.6-.1-1.1,0-1.7.2-.9.4-2.8,1.8-3.3.2-.3-1,1.6-1.6,2.3-1.9,1-.5,2-.9,3-1.2.9-.3,1.9-.6,2.9-.7.4,0,.9,0,1.3.2.5.3.5.9.5,1.4,0,.6.1,1.3.7,1.7.5.4,1.2.4,1.9.5,1.1.1,1.6.6,2,1.6.3.7.5,1.4,1,1.9,1,1,3,1.3,3.4,2.9,0,.3.7.1.6-.2h0Z"/>
  <path d="M465.2,348c-.8-1.5-3.2-.9-4.6-1.9-.9-.6-1.3-1.8-2.3-2.1-1.2-.4-2.7.7-3.7,0-.7-.5-.7-1.6-1.4-2.1-.6-.4-1.5,0-2.2.3-2.3,1.3-4.4,3.1-6.1,5.1-.2.2-.4.5-.4.8-.1.7.7,1.2,1.3,1.1.7-.1,1.2-.6,1.6-1.1s.9-1,1.6-1.2c1.9-.6,3.7,1.9,5.6,1.4.6-.1,1.1-.6,1.7-.6,1.4-.1,2.4,1.7,3.8,1.6.5,0,.9-.4,1.4-.6.8-.3,1.7-.3,2.5,0,.4.2.7.4,1.1.5s.9-.3.8-.6"/>
  <path d="M465.5,347.9c-.8-1.4-2.6-1.2-3.9-1.6-1.6-.6-2-2.7-3.9-2.6-.9,0-2.1.7-2.9,0-.6-.5-.6-1.5-1.2-1.9-1.4-1.1-3.6.8-4.8,1.6-.9.7-1.8,1.4-2.5,2.1-.6.6-1.5,1.3-1.9,2.1-.3.6,0,1.2.6,1.5.6.3,1.4.1,1.9-.3.8-.6,1.4-1.7,2.4-2,.9-.2,1.8.4,2.5.8.7.4,1.4.7,2.2.8.9,0,1.7-.8,2.6-.7s1.5.9,2.3,1.3,1.5.3,2.2,0c.7-.4,1.3-.6,2.1-.4.6.1,1,.5,1.5.7.6.2,1.4-.1,1.4-.9,0-.3-.6-.3-.6,0,0,.8-1.1,0-1.3,0-.2,0-.3-.1-.5-.2-.3,0-.5-.1-.8-.2-.8,0-1.4.2-2.1.6-1.6.8-2.4-1-3.8-1.3-.6-.1-1.1,0-1.6.3-1,.4-1.7.4-2.6,0-1.1-.5-2.2-1.3-3.4-1.1-.6.1-1.1.5-1.6.9-.6.6-1.9,2.2-2.7,1.1-.6-.8.9-2,1.4-2.5.7-.7,1.5-1.4,2.3-2s1.6-1.2,2.5-1.7c.5-.3,1.1-.6,1.7-.4.5.2.6.7.9,1.2.6,1.3,1.5,1.5,2.8,1.2.5-.1,1-.2,1.5-.1.5.1.9.5,1.2.9.5.5.9,1.1,1.5,1.4,1.3.7,3.4.3,4.2,1.7.2.2.7,0,.6-.3h0s0,0,0,0Z"/>
  <path d="M511.2,415c1.1,1.5-10.9,1-10.1-.6.8-1.6,1.3-7.8.7-9.5-.6-1.7,5.1,8.7,8.3.6,1.9-.2,1.2,5.8,3,6.2,2.4.5,1.1-4.3,1.2-6.8s.5-3.2.4-5.6c0-.9,2.2-1.7,3.1-1.7.3,0,.7.2,1,.3,1.4.5,3.1,0,4.2-1.2,1.1-1.1-1.9-5.2-1.7-6.7.5-2.6,1.8-4,.7-6.4-.4-1,.9-.5.9-1.5,0-1,.8-2.2,1.8-2.1.6,0,1.1.5,1.5.9,2,2,3.9,4.1,4.9,6.8s1,5.8-.7,8c-.7.9-1.6,1.6-1.9,2.7-.4,1.3.2,2.8,0,4.1-.4,2.8.7,6.2.5,9,0,.9-4.4-.1-4.3.8,0,1.5-1,3.1-2.4,3.7-.9.4-1.8.4-2.7.8-3.2,1.4-1,4.8-3.7,7"/>
  <path d="M527.4,358.9c-1.5-.6-2.1-2.3-2.8-3.7-1.2-2.2-3.1-4-5.3-5-1.7-.8-3.6-1.2-5-2.4-.8-.7-1.4-1.6-2-2.5-2.2-3-5.4-5.4-8.9-6.7-.8-.3-1.5-.5-2.2-1-.8-.6-1.2-1.5-1.8-2.2-1.3-1.7-3.5-2.8-5.7-2.8-3.2,0-6.7,2-9.5.3-2-1.3-3.2-4.4-5.6-4.1-1.1.1-2,1.1-3,1.4-2.3.7-4.6-1.6-7-1.2-1.9.4-3.2,2.5-5.1,3-1.3.3-2.6-.1-3.9-.2s-2.9.6-3,1.9l-1.6,1c-8.1,1.7-16.3,15.3-14.8,15.4,1.5,0,11.5-6.3,12.4-7.5,5.6-7.2,14.8-7.1,17.2-6.7,2.2.4,4.3,1.2,6.5,1,1.4-.1,2.7,2,4.1,2.3,1.9.5,3.2-.2,5.1,0,1,.1,1.4,2.1,2.3,1.8,2.5-.8,5.4.9,7.5,2.4,1.8,1.3,3.3-.8,5.2.4s.8,3.4,2.1,3.9c2,.7,3.4,1.3,5,2.6,2.8,2.4,7.9,3,10.6,5.4,1.9,1.6,2,5.8,3.2,7.9,1.8,3.1,3.8,4.6,6.6,6.7,1.9-1.4,3-3.8,2.8-6.1-.2-2.3-1.7-4.5-3.8-5.5"/>
  <path d="M531.2,362.9c2-3.4,0-5.9-3-7.5-2.1-1-1.7-3.7-3.3-5.4-1.1-1.2-2.7-2.1-4.3-2.5-.9-.2-2.2.1-3-.4s-1.1-1.6-1.4-2.4c-.8-2-1.3-3.6-3-5-1.2-1-2.7-1.6-4.3-1.9-2.7-.4-5.4,1.2-8,.8-1.1-.2-2.7,0-3.5.9-.6.8-.6,1.8.5,2,3.7.7,8.2-2,11.2.7,2.3,2.1,1.8,6.1,4.8,7.6,1.6.8,3.4.3,5,1.1,1.9,1.1,2.1,2.6,2.7,4.5,1,2.9,6.9,3.1,4.7,7-1.3,2.2,3.7,1.9,4.7.3h0Z"/>
  <path class="st24" d="M513.4,420.8s20.7-55.2-22.3-72.7c0,0-18-12-42.8-4.8,0,0,10.8-9,23-10.4,0,0,38.1.4,51.9,32.8,13.8,32.4-3.3,57.9-3.3,57.9l-6.4-2.7h0Z"/>
  <path class="st26" d="M515.5,429.6s.5-4.2-1.9-6.1c-2.3-2-8.1-4.4-12.1-1.3,0,0-1.3-3.7,3.3-6,5.2-2.7,11.2-1,13.7,3,4.3,6.9-3.1,10.5-3.1,10.5h0Z"/>
  <path class="st8" d="M515.9,429.6c.1-1.1,0-2.3-.3-3.4-.5-1.8-1.5-3-3.1-3.9-3.4-2-7.9-2.8-11.2-.3h.6c-.5-1.3,0-2.9.9-3.9,2.1-2.5,6.1-3.4,9.2-2.8,3,.5,5.7,2.5,7,5.3,1,2.2.8,4.5-.7,6.4-.8,1-1.8,1.9-2.9,2.4-.4.2,0,.6.3.4,3.4-1.7,5.6-5.4,4.2-9-2.5-6.5-11.6-8.1-16.8-3.7-1.5,1.2-2.5,3.3-1.9,5.2,0,.2.4.2.6,0,3.1-2.3,7.6-1.3,10.6.7,1.4.9,2.2,2.1,2.6,3.8.2.9.3,1.9.2,2.8,0,.4.7.2.7,0h0Z"/>
  <path class="st9" d="M501.9,418.7s-7.6,5.9-4.4,10.2c1.9,2.5,3.5,1,3.7,2.6.3,1.6-1,2.7-1,2.7,0,0,.6,2.6,2.6.1,1.1-1.5,1.1-5.3-1.8-5.6,0,0-3,.4-2-3.1.4-1.6,1.8-3,3.9-4.3,2.1-1.2-1.1-2.6-1.1-2.6h0Z"/>
  <path class="st8" d="M501.6,418.7c-1.6,1.3-3.2,2.9-4.2,4.7-.7,1.2-1.2,2.6-1,3.9.3,1.6,1.5,3,3.1,3.4.8.2,1.3.2,1.4,1.1,0,.8-.3,1.8-.9,2.4,0,0,0,0,0,.1.4,1.6,1.9,1.5,2.9.4,1.2-1.3,1.6-3.6.5-5.1-.5-.7-1.4-1.1-2.2-1.2-.3,0-.8,0-1.2-.2-.9-.6-.8-1.9-.5-2.8.4-1.5,1.5-2.6,2.8-3.5.7-.5,2.4-1.1,1.7-2.2-.3-.6-1.1-1-1.7-1.3-.2,0-.8.2-.6.3.4.2.9.4,1.2.8.2.2.5.5.5.8,0,.6-.8.9-1.2,1.2-1.8,1.2-3.4,2.8-3.6,5,0,1.2.5,2.1,1.7,2.3.3,0,.6,0,.8,0,.9,0,1.6.8,1.9,1.5s.4,1.6.2,2.4-.6,2-1.4,2.3c-.6.2-.9-.5-1-.9,0-.1,0,.1,0,0,0,0,.1-.1.2-.2.2-.3.4-.6.6-.9.3-.6.5-1.7,0-2.4-.4-.5-1-.4-1.5-.6-1.9-.6-3-2.7-2.7-4.6.5-2.7,2.9-5.2,5-6.9.3-.2-.4-.2-.6-.1h0Z"/>
  <path class="st28" d="M498.8,430.5s5.1-6.1,9.4-4c1.8.9,1.2,4.7-3.1,8-2.3,1.8-5.6.4-5.6.4,0,0,3.4-2.8.7-4.3-1-.5-1.5-.2-1.5-.2h0Z"/>
  <path class="st8" d="M499.1,430.5c.6-.7,1.4-1.4,2.1-2,1.4-1.1,3-2.2,4.8-2.2.7,0,1.7.1,2.3.7.4.4.5,1.1.5,1.7-.2,2.1-1.8,4-3.4,5.4-.6.5-1.2.9-2,1.1-.6.1-1.2.2-1.8.1-.6,0-1.3-.2-1.9-.4v.2c.8-.7,1.7-1.6,1.8-2.7.2-1.5-1.8-2.8-3.1-2-.4.3.2.4.4.2.4-.3,1.4.4,1.7.8.4.5.3,1.1.1,1.6-.3.7-.9,1.4-1.5,1.9,0,0-.1.2,0,.2,1.6.6,3.7.7,5.3,0,1.2-.6,2.3-1.7,3.2-2.8.7-.9,1.3-1.9,1.6-3,.2-.7.3-1.6-.1-2.3s-1.1-1-1.9-1.1c-2-.4-4.1.5-5.7,1.6-1.2.8-2.3,1.8-3.2,2.9-.1.1.1.2.2.2.2,0,.4,0,.5-.2h0,0Z"/>
  <path d="M433.3,421.1c4.5,2.1,14.2,5.8,15.4,8.5,0,0-8.8,6.7-19.4,1.8-10.5-4.9-7.9-13.9-7.9-13.9,0,0,6,.8,11.8,3.5h0Z"/>
  <path class="st16" d="M445.2,428.2s-6.4-1.9-11-4c-4.6-2.1-11.7-6.2-11.7-6.2,0,0,2-1.7,10.3,2.2,8.3,3.9,12.4,8.1,12.4,8.1h0Z"/>
  <path class="st12" d="M429.6,430.2c5.3,1.6,13-.8,20.7-.7,0,0-8.6,11.7-21,5.9-12.4-5.8-8.2-18-8.2-18,1.1,2.2,4,9.8,8.6,12.8h0Z"/>
  <path class="st12" d="M429,416.2c2.7,1,3.9,2.8,5,3.3,1.1.5,3.5-.1,5.8,1.7,6.2,5.3,11.3,8,11.3,8-3,1.7-10.4-3.6-18.2-7.2-7.8-3.6-12.8-3.6-12.2-5,.2-.4,5.8-1.8,8.3-.8h0Z"/>
  <path class="st13" d="M469.2,606.3c-26.4-17.5-92.6-62.5-92.6-62.5l-10.2,25.6s50,54.5,79.4,73.1c12.1-8.5,17.4-23.2,23.4-36.2h0Z"/>
  <path class="st13" d="M497.1,640.5s-12.1,17.8-34.8,12c-10.9-2.8-35.7-24.5-35.7-24.5l44.9-17.5,25.5,30h0Z"/>
  <path class="st29" d="M462.6,601.7c2.8,2,4.9,5,6.4,8,1.4,2.8,2.4,6.4,1.1,9.4,0,.2,1.1,0,1.2-.2,1.3-3.1.3-6.7-1.1-9.5-1.5-3.1-3.6-6.1-6.4-8.1-.3-.2-1.3.3-1.1.4h0Z"/>
  <path class="st4" d="M69.1,443s-5.7,4.6,80.9,42.4c39.7,17.4,121.4,38.2,121.4,38.2l3.4-6.7"/>
  <path class="st13" d="M283.3,487.9l5.3,1.6,47.6-5,31.1,16.9,7.6,24.4s-2.3,5.3-5.2,3.1c-2.2-2-4-4.4-5.3-7l-6.2,13.3s-7.4,3.6-8.3-3.5l-7.7,8.8s-5.6,2.9-6.6-2.8l-10,9.8c-2.2-1.6-3.6-3.9-4-6.5-.2-2.3.5-4.6,1.8-6.5,0,0-17.3-3.9-24.8-4.6-7.5-.8-20.6-8.6-20.6-8.6l-5.1-2.2c5.1-10.2,10.3-31.2,10.3-31.2h0Z"/>
  <path class="st13" d="M329.5,499.6c2.8,6.2,6.7,14.5,7.8,15,1.1.5,7.9,4.8,13.9,8.5,3,2.1,7,1.5,9.1-1.3.5-.7-10.7-13.6-4.6-18l11.7,8.9c3.4,3.4,6.3,7.2,8.7,11.3,2.7,5.2,5.2,22.2,5.2,22.2l7.2,7.7-19.7,18.8-6.4-5.1-17.3-7s-28.5-19.2-30.2-23.7c-1.7-4.5.4-14.9.4-14.9-3.3-5.6,1.6-12.8,1.6-12.8-2.2-10.8,4.5-7.9,4.5-7.9-.2-.4-.2-.7-.2-1.1.5-4.1,6.7-4.4,8.4-.7h0Z"/>
  <path class="st29" d="M317.4,509c-.4-1.8-.7-3.8-.3-5.6.2-.8.6-1.7,1.3-2,.6-.3,1.6-.1,2.4.2.2,0,1.3,0,1.1-.5-.5-1.3.2-2.8,1.3-3.4,1-.6,2.2-.6,3.3-.2,1.3.5,2,1.4,2.6,2.6.7,1.6,1.5,3.2,2.2,4.9,1.3,2.8,2.6,5.6,4.1,8.2.4.6.7,1.3,1.3,1.7.7.4,1.4.7,2,1.1,3,1.8,5.9,3.6,8.8,5.5,1.5,1,3.1,2.3,4.9,2.8,1.4.5,3,.5,4.4.1s2.7-1.1,3.6-2.2c.4-.5.4-.7,0-1.1-.8-1.5-1.8-2.8-2.6-4.2-1.3-2.2-2.6-4.5-3.3-7-.5-2.1-.5-4.5,1.4-5.9h-1c1.9,1.6,3.8,3,5.7,4.5,2,1.5,4.1,3,6,4.6,1.1.9,2,2.1,2.9,3.1,1,1.2,2,2.5,3,3.7,1.4,2,2.8,4,3.6,6.3,1.4,3.8,2.2,7.8,2.9,11.8.5,2.8,1,5.6,1.5,8.5,0,.4,1.3.1,1.2-.3-.4-2.4-.8-4.7-1.2-7.1-.8-4-1.5-8.2-2.8-12.1-.6-2-1.5-3.6-2.6-5.4-1.8-2.7-3.8-5.3-6-7.7-1.8-2-4-3.4-6.2-5-2.3-1.7-4.6-3.5-6.9-5.2-.3-.2-.8,0-1,.1-3.7,2.8-1.3,8.1.5,11.3,1,1.8,2.1,3.5,3.2,5.2.3.5.5.9.8,1.4,0,0,0,.1,0,.2,0-.2-.1.1-.2.2-.6.7-1.4,1.2-2.3,1.5-1.6.5-3.3.3-4.8-.5-1.7-.9-3.3-2.1-4.9-3.1-2.8-1.8-5.6-3.5-8.5-5.2-.5-.3-1.1-.5-1.5-1-.7-.8-1.2-1.7-1.6-2.6-1.6-3-3.1-6.1-4.5-9.3-.6-1.4-1.1-3.2-2.4-4.3-1-.8-2.2-1.2-3.5-1.2s-2.5.4-3.5,1.1c-1.1.9-1.8,2.4-1.3,3.7l1.1-.5c-.8-.4-1.8-.5-2.6-.4-1.8.2-2.9,1.4-3.3,3.1-.4,1.8,0,3.8.3,5.6,0,.4,1.3,0,1.2-.3h0Z"/>
  <path class="st29" d="M341.6,528.1c-1.9-.4-3.7-1.1-5.3-2.1-4.2-1.9-8-4.7-10.9-8.3-2.6-3.8-4.1-8.3-4.5-12.9-.4-1.9-.4-3.7-.2-5.6.6,1.8,1,3.6,1.2,5.4.6,4.4,2.2,8.5,4.6,12.2,2.8,3.4,6.3,6.3,10.2,8.3,1.7.8,3.3,1.8,4.8,3h0Z"/>
  <path class="st29" d="M335.7,533.4c-1.8-.1-3.5-.7-5-1.6-1.7-.8-3.3-1.8-4.9-2.9-2-1.3-3.7-3-5-5-1.1-2-1.9-4.2-2.5-6.4l-1.5-5.3c-.6-1.6-.9-3.3-1-5,.9,1.5,1.6,3.1,2,4.7.5,1.5,1.1,3.2,1.8,5.2.6,2.1,1.4,4.2,2.5,6.1,1.2,1.9,2.7,3.5,4.5,4.8,1.5,1.1,3,2.2,4.5,3.1,2.7,1.6,4.5,2.4,4.5,2.4h0Z"/>
  <path class="st29" d="M329.6,539.7c-.3.5-5.1-2.8-10.6-7.1-.7-.6-1.3-1.4-1.7-2.3-.3-.7-.6-1.5-.9-2.3-.4-1.3-.8-2.6-.9-4-.3-2.3,0-3.8.1-3.8.2,0,.3,1.4.9,3.5.3,1.3.7,2.5,1.1,3.7.3.7.6,1.4.9,2.1.3.7.7,1.3,1.3,1.8,2.8,2.2,5.2,4.2,7,5.7,1,.8,1.9,1.6,2.7,2.6h0Z"/>
  <path class="st29" d="M316.3,509.2c-1.3,1.5-2.3,3.5-2.6,5.5-.3,1.6,0,3.2.3,4.8.2.9.4,1.7.6,2.6.1.3,0,.4-.1.9-.3,1.1-.5,2.2-.7,3.3-.6,3.3-.5,6.5.5,9.8.3,1,.7,2.2,1.4,3,.2.2.4.5.7.5.3,0,.6,0,.9-.2.1,0,.4-.3.1-.3,0,0-.3-.3-.5-.4-.5-.7-.9-1.6-1.1-2.4-1.1-3.2-1.2-6.4-.7-9.8.2-1.2.4-2.3.7-3.4,0-.3.3-.8.3-1.1,0-.5-.4-1.1-.5-1.5-.3-1.5-.6-3-.6-4.5,0-2.4,1-5,2.6-6.8.3-.3-.9-.2-1.1,0h0Z"/>
  <path class="st2" d="M315.5,539s13.5,11.6,24.5,18.2,17.2,8.5,17.2,8.5"/>
</svg>