<?xml version="1.0" encoding="UTF-8"?>
<svg id="Layer_1" data-name="Layer 1" xmlns="http://www.w3.org/2000/svg" viewBox="0 0 637.3 635.8">
  <defs>
    <style>
      .cls-1 {
        fill: #151312;
      }

      .cls-2 {
        fill: #13100f;
      }

      .cls-3 {
        fill: #072b3a;
      }

      .cls-4 {
        fill: #010101;
      }

      .cls-5 {
        fill: #273339;
      }

      .cls-6 {
        fill: #3e525a;
      }

      .cls-7 {
        fill: #653c29;
      }

      .cls-8 {
        fill: #331d17;
      }

      .cls-9 {
        fill: #f2f2f3;
      }

      .cls-10 {
        fill: #89ac95;
      }

      .cls-11 {
        fill: #acabab;
      }

      .cls-12 {
        fill: #11394c;
      }

      .cls-13 {
        fill: #f1eef7;
      }

      .cls-14 {
        fill: #c4c4c4;
      }

      .cls-15 {
        fill: #a66e53;
      }

      .cls-16 {
        fill: none;
        stroke: #4f2e25;
        stroke-miterlimit: 10;
      }

      .cls-17 {
        fill: #fff;
      }

      .cls-18 {
        fill: #e0e1e0;
      }

      .cls-19 {
        fill: #6b6b6b;
      }

      .cls-20 {
        fill: #825639;
      }

      .cls-21 {
        fill: #38211a;
      }

      .cls-22 {
        fill: #787878;
      }

      .cls-23 {
        fill: #24180f;
      }

      .cls-24 {
        fill: #89ad96;
      }

      .cls-25 {
        fill: #4f2e25;
      }
    </style>
  </defs>
  <path class="cls-15" d="M327.79,391.58c-14.27,3.62-24.73.9-36.42,9.82-4.97,3.81-11.95-1.1-16.02,3.68-4.84-22.09-3.16-88.8-3.16-88.8l35.39-113.08c1.1,1.74,2.26,3.42,3.42,5.1,3.04,4.39,5.68,7.88,8.07,11.56,1.23,1.94,2.45,3.87,3.49,5.94.32.58,2.45,5.75,1.81,3.87,2.52,7.81,9.24,13.43,17.82,11.75-.84,44.56,0,128.32-.9,150.22-3.04.45-10.53-.71-13.5,0h0v-.06Z"/>
  <path class="cls-15" d="M268.25,393c13.05-5.42,27.51-7.49,41.59-6.85,8.78.39,18.34-7.43,26.8-4.84-1.23,2.2-2.65,12.59-2.65,12.59,0,0,73.3,87.83,82.73,109.21l-19.7,18.86c-7.36-9.17-91.84-62.45-91.84-62.45,0,0-43.14-32.48-39.91-64.26.71-.32,2.2-2,2.91-2.32h0l.06.06Z"/>
  <path class="cls-9" d="M286.59,323.58c5.68.84,11.37,1.49,17.05,2,.58-.45-16.02,30.42-15.18,31,4.07,2.58,44.63,10.4,64.45-6.65-1.55-65.16-.32-93.26-1.29-110.56-1.61-28.67-53.47-69.04-56.96-71.23,0,0-13.89,104.88-8.65,145.63.39,2.78.52,6.07.58,9.88h0v-.06Z"/>
  <path class="cls-11" d="M318.49,23.98c-5.23-4.91-9.04-4-14.85-8.33-.52-.39-4.39-.26-4.97-.26s-3.16.77-3.55,1.1c-8.01,6.85-11.69,10.66-17.95,18.99-2.65,3.55-5.23,7.3-6.59,11.56-1.23,3.87-3.75,7.69-3.94,11.88-.19,3.68-.39,7.3-.58,10.98-.06,1.36-.13,2.78.45,4.13,1.68,3.94,7.36,4.84,11.43,3.94,8.65-1.87,15.24-7.81,19.76-14.72,4.59-6.91,7.43-14.72,11.17-22.15,2.52-5.1,5.49-10.01,8.78-14.66"/>
  <path class="cls-15" d="M270.96,87.79s-11.5,22.54-29.45,32.42c-2.91,1.55-31.58,11.04-31.58,11.04l-3.75,70.07c10.53,12.66,39.59,17.05,55.35,21.89l47.27-13.95s-12.08-26.87-10.46-30.35c1.68-3.49,19.83-24.73,19.83-24.73"/>
  <path class="cls-15" d="M403.55,82.3h0c-1.23.19-5.23-10.72-5.94-12.01-7.56-13.56-9.95-22.15-23.77-29.13-7.23-3.68-17.89-1.42-25.51-4.2-7.3-2.65-10.66-11.3-17.24-15.44-2.26-1.42-7.75,5.42-5.94,4.33-2.52-2.45-4.26-4.71-4.26-4.71-10.91.39-22.67,35.33-25.32,39.4-2.65,4-7.94,9.62-7.94,9.62,0-2.26-.45-4.2.06-6.26.39-1.94.45-4.39.84-6.33.45-4.71-5.1-8.07-9.04-7.81l-2.52.9c-6.78,2.13-11.75,19.7-12.4,25.77-5.68,9.24-1.49,19.37,7.36,16.27l-1.29,4.26v26.03c2.07,15.31,12.66,37.2,26.8,46.69,5.04,3.42,11.62,8.59,19.57,4.97,8.01-3.62,11.62-6.01,19.7-8.91,7.69-2.84,11.82-5.04,18.08-10.27,6.52-5.36,7.75-7.17,11.88-14.27,1.81-3.16,4.91-7.81,7.17-10.53,2.65-3.1,13.56-14.92,19.37-22.28,5.81-7.36,10.33-26.03,10.33-26.03h0v-.06Z"/>
  <path class="cls-25" d="M280.77,74.1c.58-3.49,1.03-7.04.97-10.59,0-1.81-.19-3.68-.84-5.36-.19-.52-.52-1.36-1.03-1.74-.58-.45-1.68.26-2.2.58-2.71,1.55-4.52,4.26-5.62,7.17-.13.32,1.03.19,1.16-.13.84-2.26,2.13-4.39,4-5.88.45-.39.97-.77,1.55-1.03.13,0,.32-.13.45-.19.19-.13,0,0,.06,0h-.58c.52.32.77,1.1,1.03,1.61.9,2.39.9,5.1.84,7.62-.13,2.78-.45,5.49-.97,8.2-.06.39,1.1.19,1.16-.13h0v-.13Z"/>
  <path class="cls-25" d="M278.06,73.71c-3.42-2.58-5.1,3.81-6.52,5.62-.13.13-.32.39-.45.39.13,0,.13.06.06,0,0-.13-.06-.26-.06-.45,0-1.23.58-2.58,1.03-3.75.77-1.94,1.61-3.75,2.91-5.3,1.36-1.68,3.55-3.94,5.94-3.49.58.13,1.16-.71.39-.84-2.39-.52-4.59,1.16-6.2,2.78-1.42,1.42-2.39,2.91-3.23,4.71-.71,1.49-1.29,2.97-1.74,4.59-.19.65-.52,1.94.13,2.45.58.45,1.55,0,2-.45.58-.58.97-1.42,1.36-2.13.52-.97.97-2.07,1.68-2.91.58-.77,1.1-1.1,1.94-.45.39.32,1.42-.26.9-.71h-.13v-.06Z"/>
  <path class="cls-25" d="M386.3,90.18s-10.66-5.23-18.86-10.14c-8.2-4.91-14.14-12.92-14.14-12.92,0,0,8.07,8.14,14.53,12.08,6.46,3.87,18.47,10.98,18.47,10.98h0Z"/>
  <path class="cls-11" d="M350.59,83.4c-7.3-8.14-13.3-12.66-16.02-14.08-2.13-1.16-4.39-1.87-6.78-2.39,0,0-7.69.26-8.91.71s3.23,1.74,3.23,1.74c.9.39,1.55.52,2.45,1.03,4.65,2.65,9.49,4.65,13.43,8.27,3.36,3.1,6.97,8.59,9.62,12.34,1.23-1.36,3.1-4.59,4.39-5.81"/>
  <path class="cls-11" d="M389.6,113.23c0-.19.45-1.16.45-1.29v-.19c-.77-.9-1.49-2.32-2.71-3.42-2.2-1.87-7.56-6.85-16.92-10.79-.97,1.49-2.97,4.2-3.94,5.68,4.13,1.16,6.78,2.32,10.59,4.33,3.55,1.87,8.46,4.71,11.69,7.23.26-.26,0,0,.26-.32.13-.19.26-.45.39-.65,0-.19.13-.39.19-.65h0v.06Z"/>
  <path class="cls-15" d="M321.2,166.77c-.13-.13-.26-.26-.32-.45-1.36-3.04-.97-4.07-1.94-5.04-.26-.26-.32-.39-1.03-1.03-3.04-2.58-4.78-4.2-17.24-4.2s-10.91-8.85-11.11-9.04l-4.2-6.65c-.58-1.23-10.98-34.49-10.98-34.49.06-.84-1.1-7.94-.9-8.65,0-.06-.06-.19-.13-.26,0,0-.06-.06-.13-.13,0,0-.06.06-.13.13-.19.26-.39.52-.52.77-.65,1.16-1.16,2.45-1.49,3.75-.52,2-1.29,3.87-1.94,5.88-.19.71-.39,1.42-.58,2.13,1.55,3.23-1.03,30.81,11.04,44.69.52.52,2.07,2.26,6.85,5.94,8.98,6.85,15.05,14.79,26.16,18.02,2.91.84,5.94.32,8.4-1.29,6.91-4.71,31.65-24.48,39.33-33.26-6.14,3.94-24.73,16.08-33.71,21.89-.26.19-4.78,1.68-5.17,1.61"/>
  <path class="cls-15" d="M303.64,15.65s16.27-13.56,40.11-6.39c17.95,5.36,46.89,25.64,54.7,38.49,11.37,18.6,4,38.17,4,38.17L303.64,15.65h0Z"/>
  <path class="cls-21" d="M302.22,172.84s-23.25-15.89-26.61-23.25c-3.36-7.36-5.62-17.89-4.91-30.93,0,0-6.26,26.48,5.23,37.07,15.18,13.95,24.28,18.79,24.28,18.79l1.94-1.68h.06Z"/>
  <path class="cls-1" d="M373.39,117.43c1.61.19,2.84,1.68,3.16,2.91,0,.26.13,1.03-.19,1.94-.39,1.23-1.55,2.07-2.65,2.32-1.49.39-2.97-.39-3.75-1.61-1.03-1.68-.32-3.75.9-4.78.19-.19,1.16-.97,2.52-.84"/>
  <path class="cls-1" d="M357.89,112.59s8.91-.71,12.08.97c4.65,2.45,8.4,8.4,8.52,11.62,0,0-4.71-8.33-8.01-9.95-3.16-1.55-12.53-2.58-12.53-2.58h0l-.06-.06Z"/>
  <path class="cls-1" d="M336.25,93.21c-.77-1.42-2.84-2.52-4.07-2.32-.32,0-1.1.19-1.87.84-.97.84-1.29,2.2-1.16,3.36.26,1.49,1.55,2.58,2.97,2.78,1.94.26,3.55-1.16,4.07-2.65,0-.26.65-.58,0-1.74"/>
  <path class="cls-1" d="M340.06,100.25s-3.81-8.59-6.97-10.79c-4.65-3.29-12.14-4.26-15.18-3.04,0,0,10.14.84,13.37,3.23,3.23,2.39,8.78,10.53,8.78,10.53h0v.06Z"/>
  <path class="cls-4" d="M337.35,133.32c-2.13-.19-4.46-2-5.42-4-.19-.45-1.55-1.03-1.23-.39,1.29,2.71,4.71,5.1,7.49,5.36.26,0,.32-.13.13-.39-.19-.26-.65-.52-.97-.52"/>
  <path class="cls-4" d="M330.24,128.02c-.77-1.23-1.81-2.26-2.91-3.1-.19-.13-.45-.19-.65-.19s-.26.13-.19.32c.32.71.97,1.29,1.61,1.68.19.13.52.26.77.13.19-.06,0-.32,0-.45-.52-.32-1.03-.77-1.29-1.36-.26,0-.52.06-.84.13,1.03.77,1.94,1.74,2.58,2.78.13.19.45.32.71.32s.45-.06.32-.32"/>
  <path class="cls-4" d="M325.34,125.05c-1.42-.97-2.65-2.65-2.65-4.13,0-2.26,2.58-4.2,5.04-4.07.26,0,.26-.19,0-.39-.19-.19-.58-.32-.84-.32-2.13-.13-4.46,1.36-5.17,2.97-.71,1.55,0,3.42,1.49,4.91.45.45.9.9,1.42,1.23.19.13.65.32.84.26.19-.13,0-.32-.13-.45"/>
  <path class="cls-4" d="M340.38,134.29c0-.19.26-.26.32-.13.39.26.84.39,1.29.32v.71c-.84-.39-1.74-.65-2.71-.65s-.32-.19-.39-.39c0-.13,0-.39.19-.39"/>
  <path class="cls-4" d="M339.16,133.77c1.1,0,2.13.26,3.04.71s.26.26.26.39,0,.26-.19.26"/>
  <path class="cls-4" d="M343.23,136.36c.97.58,2.39.65,3.55-.13,1.74-1.16,2.32-3.49,1.81-5.23,0-.19.13-.32.26-.26.19,0,.32.26.39.45.45,1.55.13,3.42-.97,4.78-1.03,1.29-2.58,1.74-3.94,1.42-.39-.06-.84-.26-1.16-.45-.13-.06-.32-.32-.32-.52s.19-.19.32-.13"/>
  <path class="cls-5" d="M316.17,78.55l-1.36,5.04c-1.36,3.75-3.16,11.75-3.23,14.21,0,3.49,16.4,15.82,21.12,16.08,4.65.26,13.05-8.27,15.5-9.95l6.59,4.97c-1.36,3.36-5.42,14.08-4.91,16.15s8.46,7.1,9.36,7.69c.77.45,1.81,1.1,2.97,1.74,3.1,1.74,7.04,3.68,8.91,3.29,2.71-.52,8.65-5.55,14.14-10.4l.84-.77c.19-.19.39-.32.45-.39h0l.97-.9c-6.72-11.24-20.15-19.12-31.9-18.6v.13l-6.39-4.84c-4.2-10.01-15.44-21.44-27.19-24.02h0l-32.16-14.47-1.81,2.52,28.16,12.34v.19h-.06ZM351.23,124.73c-.32-1.29,2.32-8.98,4.59-14.79,10.07-.32,22.22,6.78,28.55,16.34v.13c-3.04,2.58-10.85,9.49-13.5,10.01-3.16.58-18.99-9.56-19.63-11.69h0ZM314.1,98.51c.84-6.26,2.26-12.46,4.2-18.54,10.85,1.74,23.9,13.5,28.09,23.18-3.87,3.29-10.14,9.49-13.5,9.24-4.84-.26-18.79-11.75-18.73-13.89h-.06Z"/>
  <path class="cls-6" d="M32.91,395.14l-7.04,18.34c-13.82,36.17-16.21,76.08-6.2,113.6,6.14,23.06,14.4,42.82,18.79,57.22l26.93,113.47s-2.2,30.22-8.14,75.95c-5.17,39.65,3.1,149.89,3.1,149.89l14.72,2.58c13.3,2.32,26.93,2.84,40.36,1.36l28.87-3.1,27.25-234.63,19.96-143.63,27.38-86.35-186.06-64.71h.06Z"/>
  <path class="cls-6" d="M241.77,451.64l-14.98,251.48c0,11.11-7.43,46.69-16.21,82.08l-8.78,68.65-8.78,71.43-2.84-1.94c-11.5,2.13-23.31-5.3-35-6.14l-25.64-.97,28.48-456.72,83.83-7.81h0l-.06-.06Z"/>
  <path class="cls-9" d="M273.48,410.25l4.13-8.65c-.13,0,3.87-6.65,3.75-6.78l55.22-116.12,1.42-43.33s-4.78-19.44-4.91-22.47l-24.09-32.74s-5.3-1.23-16.15,9.43c-4.65,4.52-7.04,24.35-13.82,22.09,0,0,.97-17.37-10.14-37.07,0,0-33.78-39.33-32.16-47.14-16.15-1.16-67.36,2.13-81.7,8.07-16.92,6.91,2.52,54.44,9.11,80.99l-22.28-6.65s-32.29,20.73-53.47,59.03c-.77,1.36-13.82,32.68-14.66,34.23-2.58,4.59-12.98,20.21-14.85,23.25.32.13-6.2,6.72-17.63,33.32-12.98,28.42-13.76,26.67-17.76,40.04-5.04,16.79,110.63,75.75,154.54,83.05,40.17,6.65,63.87,16.66,82.15-45.01h0s-1.29,7.23,13.37-27.58h-.06v.06Z"/>
  <path d="M195.4,525.98c-11.04,7.81-16.66,20.99-18.99,33.91-1.74,10.01-1.74,20.28-1.74,30.42v97c0,4.84,0,9.62-.19,14.47-.32,8.72-1.1,17.5-2.32,26.16-.32,2.52-.71,4.97-1.03,7.49-.65,4.59-1.29,9.11-1.94,13.69-.84,6.14-1.74,12.27-2.58,18.47-1.03,7.3-2.07,14.66-3.1,21.96-1.1,8.01-2.26,16.02-3.36,24.02-1.16,8.2-2.32,16.4-3.42,24.61-1.1,8.2-2.26,16.02-3.36,24.02-1.03,7.3-2.07,14.6-3.1,21.96-.84,6.14-1.74,12.27-2.58,18.41-.65,4.52-1.29,9.11-1.94,13.63-.32,2.45-.71,4.97-1.03,7.43,0,.32-.06.65-.13.9-.06.58,1.81.26,1.87-.32.19-1.29.39-2.58.52-3.87.52-3.62,1.03-7.17,1.49-10.79.77-5.42,1.55-10.85,2.26-16.21.97-6.78,1.87-13.56,2.84-20.34,1.1-7.75,2.2-15.44,3.23-23.18,1.16-8.14,2.26-16.27,3.42-24.48,1.16-8.14,2.26-16.27,3.42-24.48,1.1-7.69,2.13-15.37,3.23-23.06.97-6.78,1.87-13.63,2.84-20.41.77-5.42,1.49-10.79,2.26-16.21.52-3.55.97-7.17,1.49-10.72.19-1.42.39-2.84.58-4.26,1.55-11.69,2.32-23.51,2.32-35.33v-106.69c.13-14.92.9-30.42,8.01-43.85,2.97-5.62,7.04-10.66,12.27-14.34.32-.26.19-.45-.13-.52-.39-.13-1.03.13-1.36.39h0l.26.13h0Z"/>
  <path class="cls-20" d="M267.02,87.66c0,.06-.06.13-.13.19,0-.06.06-.19.13-.19Z"/>
  <path class="cls-9" d="M264.69,179.11l-19.96,8.07-5.49-7.43c-14.47-19.5-21.38-54.25-21.38-54.25l24.28-8.33c1.87,12.59,29.32,56.25,29.32,56.25l9.17,36.3,14.21-27.96c6.26-5.42,6.07-4.46,7.3-8.78.26,0,.58.58.84.65,1.1.13,3.16,2.13,4.33,2.32l11.43,14.14c-7.94,21.83-10.98,13.82-10.98,13.82l-10.46-12.46c-5.17,7.1-10.72,14.01-15.5,21.31-1.49,2.2-2.78,4.59-3.94,7.04l1.68-4.39c-.32-1.29-14.79-36.23-14.79-36.23h-.06v-.06Z"/>
  <path class="cls-19" d="M319.65,188.73c-1.74,4.71-3.62,9.69-6.65,13.76-.71.9-1.49,1.81-2.45,2.45-.52.32-1.1.52-1.49.52s-.9-.26-1.16-.45c-1.74-1.81-3.29-3.94-4.97-5.88-1.81-2.2-3.68-4.39-5.49-6.52-.26-.32-.9-.06-1.1.19-5.17,7.1-10.66,13.95-15.5,21.31-.32.52.84.52,1.1.13,4.84-7.36,10.33-14.21,15.5-21.31l-1.1.19c1.68,2,3.36,4,5.04,6.01,1.16,1.42,2.39,2.84,3.62,4.26.58.71,1.16,1.49,1.81,2.2,1.94,1.94,4.84-.06,6.26-1.61s2.52-3.36,3.49-5.17c1.68-3.16,3.04-6.46,4.26-9.82.19-.58-.97-.52-1.1-.13h0v-.13h-.06Z"/>
  <path class="cls-19" d="M280.71,215.66c-.39-1.36-1.1-2.71-1.68-3.94-1.23-2.84-2.52-5.68-3.75-8.46-2.78-6.26-5.62-12.46-8.4-18.66-.65-1.42-1.29-2.84-1.94-4.26-.13-.32-.58-.26-.84-.19-5.81,2.39-11.69,4.71-17.5,7.1-.84.32-1.68.65-2.45,1.03h.77c-1.81-2.39-3.62-4.91-5.49-7.36-3.68-5.04-6.65-10.53-9.17-16.21-4.52-10.07-7.81-20.73-10.4-31.45-.52-2.26-1.1-4.52-1.49-6.78-.13-.52-1.29-.19-1.16.32,1.23,6.46,2.97,12.85,4.91,19.12,3.55,11.69,8.01,23.51,14.98,33.65,2.2,3.16,4.52,6.2,6.78,9.3.19.26.58.19.77.06,5.81-2.39,11.69-4.71,17.5-7.1.84-.32,1.68-.65,2.45-1.03l-.84-.19c1.74,3.87,3.49,7.69,5.23,11.56,2.84,6.33,5.68,12.59,8.46,18.92.71,1.55,1.61,3.23,2.07,4.91.13.52,1.36.19,1.16-.32h0Z"/>
  <path class="cls-15" d="M98.91,343.92c-14.6-1.81-23.38-8.2-37.46-4.2-6.01,1.74-13.76-6.46-19.37-3.49,3.55-22.35,32.55-82.79,32.55-82.79l74.27-92.35c.39,2,.84,4,1.29,6.01,1.23,5.17,2.45,9.43,3.29,13.69.45,2.26.84,4.52,1.1,6.85.06.71.13,6.26.26,4.26-.52,8.14,3.68,15.89,12.34,17.44-17.05,41.14-48.89,118.77-57.74,138.79-2.97-.65-7.49-3.81-10.53-4.2h0Z"/>
  <path class="cls-15" d="M61.26,324.22c11.75-7.88,9.88,6.26,23.83,4.2,8.72-1.29,14.4-10.85,23.18-9.88-.77,2.39-.13,12.92-.13,12.92,0,0,102.1,79.5,115.47,98.68l-13.11,27.58c-8.98-7.56-110.11-46.56-110.11-46.56,0,0-73.95-30.16-57.93-76.59.65-.45,18.21-9.82,18.86-10.27h-.06v-.06Z"/>
  <path class="cls-9" d="M147.35,292.39l28.03-59.29,16.21-102.56s-54.06-4.78-77.43,23.57c-12.08,15.31-40.69,69.23-55.61,102.17,44.69,26.22,66.97,33.52,88.8,36.17h0v-.06Z"/>
  <path class="cls-19" d="M175.96,151.6c4.2,2.32,6.91,6.72,8.72,11.04,1.94,4.59,3.04,9.62,3.36,14.6.52,7.88-1.68,15.89-3.81,23.38-2.84,9.95-6.52,19.76-10.4,29.32-4.26,10.53-8.98,20.92-13.89,31.19-4.52,9.36-9.24,18.6-14.27,27.64-.52.97-1.1,1.94-1.68,2.91l.77-.32c-1.94,0-3.87,0-5.88-.06-2.97-.13-6.14-.19-9.04-1.03-.39-.13-1.42.45-.71.65,2.26.65,4.71.77,7.1.97s4.59.19,6.91.19.84,0,1.23,0c1.03-.13,1.55-1.81,2-2.58,1.36-2.39,2.65-4.78,3.94-7.23,6.01-11.17,11.56-22.6,16.79-34.16,5.23-11.56,10.27-23.64,14.53-35.84,3.29-9.43,6.46-19.18,7.43-29.13.52-5.1,0-10.2-1.36-15.18-1.42-5.36-3.81-11.04-7.94-14.79-.84-.77-1.81-1.49-2.84-2.07-.32-.19-1.42.32-.97.58h0v-.06Z"/>
  <path class="cls-25" d="M114.67,335.66c-9.88-3.29-22.15-4.13-31.13,1.87-.65.45.32.58.71.32,8.52-5.68,20.21-4.71,29.51-1.61.39.13,1.42-.45.9-.58h0Z"/>
  <path class="cls-19" d="M300.47,358.58c1.36-3.49,2.84-6.91,4.33-10.33,1.68-3.94,3.36-7.88,5.3-11.69,1.1-2.13,2.45-4.13,3.68-6.2,1.36-2.39,2.65-4.78,4-7.23,2.65-4.84,5.55-9.49,8.65-14.01,3.29-4.84,6.65-9.62,10.2-14.27.32-.45-.84-.39-1.1,0-6.52,8.52-12.72,17.37-18.02,26.74-1.29,2.32-2.52,4.65-3.81,6.97-1.36,2.45-2.97,4.78-4.33,7.23-1.94,3.55-3.49,7.36-5.1,11.11-1.68,3.94-3.42,7.88-4.97,11.88-.19.45,1.03.26,1.16-.13h0v-.06Z"/>
  <path class="cls-15" d="M397.93,647.91c0,.32,0,.58-.19.9-1.23,2.32-7.23,11.95-7.94,21.44-.65,8.52-1.61,20.92-2,25.25,0,1.03.77,1.87,1.81,1.81,1.49-.13,3.42-.97,4.71-4.26,1.29-3.68,2.2-7.43,2.78-11.24.19-1.36,1.87-1.87,2.91-.97h0c.39.39.58.9.52,1.42l-1.55,11.88c0,.65-.52,1.16-1.16,1.36-2.32.77-7.94,2.84-9.75,6.46-.52,1.1.32,2.32,1.55,2.39l7.88.19h.32l7.88-1.23c.32,0,.58-.19.84-.39l7.43-6.2c.26-.19.39-.45.52-.71l7.23-20.67c.65-1.87.84-3.87.45-5.88-1.03-5.62-1.81-11.24-2.26-16.92-.58-11.11-.84-18.28-.9-21.57,0-1.1-1.1-1.87-2.2-1.55l-18.6,4.97c-.77.19-1.29.97-1.23,1.74l.9,11.88h0v-.13h.06Z"/>
  <path class="cls-15" d="M392.76,433.5c2.39,1.1,26.48,28.42,29.97,45.01,3.49,16.6.52,51.08,1.42,65.49,1.23,14.85,1.36,31.32,1.16,49.73,0,4.78-.45,9.62-1.16,14.34l-6.01,39.01-15.56-4.65s-2.13-101.2-8.98-124.64c-6.85-23.44-.9-84.28-.9-84.28h.06Z"/>
  <path class="cls-3" d="M260.24,808.2c-.13,1.87,29.06,8.14,31.26,8.46,15.24,2.26,33.97,1.61,48.76-2.07l2.26-12.27,10.33-124.26,15.5-62.58-102.69-9.56-7.81,20.8c-3.1,17.44-4.13,35.33-3.1,53.02l9.17,63.23s-2.97,56.38-3.68,65.16h0v.06Z"/>
  <path class="cls-3" d="M368.35,810.98c9.49-.19,21.76-1.16,29-7.43l13.63-167.53-51.08-19.96-24.41,192.97c10.46.77,22.28,2.26,32.81,2h0l.06-.06Z"/>
  <path class="cls-15" d="M400.25,366.33c.97-5.88,1.23-12.46.65-16.02.26-2.71.45-5.88.77-9.75,0-1.1.13-2.2.19-3.23v-1.61c.39-18.73-5.23-28.8-5.23-28.8-7.17-12.79-20.67-20.8-35.33-20.99-17.24-.58-33.32,9.04-42.04,19.12-4.33,4.97-6.65,11.43-6.52,18.02,0,5.62,1.03,12.01,2.26,18.21-6.01-.58-12.01,1.23-10.4,12.46,2.2,15.44,11.82,20.73,16.66,16.79,1.03.26,2.91,4.97,3.04,8.2.13,6.14-.71,16.99-4,22.15v1.74c11.88,21.63,29.77,42.3,74.08,17.76l-23.18-16.86.26-4.71c1.68,0,3.36-.45,5.04-.71,6.91-.97,11.75-5.36,15.63-10.79,3.23-4.59,6.59-14.47,7.94-19.96,0-.32.13-.71.19-1.03h0Z"/>
  <path class="cls-25" d="M314.87,340.76c-2.78-.26-5.88,0-8.27,1.55-3.04,2.07-3.55,5.88-3.36,9.24.32,4.65,1.61,9.56,4.07,13.63,1.61,2.58,3.81,4.97,6.72,6.07,2.39.9,5.17.58,7.23-1.03l-1.03.26c.65.19,1.03,1.29,1.29,1.81.45,1.03.84,2.13,1.16,3.23.52,2.13.52,4.26.45,6.46-.13,4.84-.65,9.82-2.07,14.4-.32,1.03-.71,2-1.16,2.97-.32.71-.71,1.16-.71,1.94s0,1.23.45,1.94.84,1.49,1.23,2.2c1.68,2.91,3.49,5.68,5.42,8.4,3.87,5.23,8.52,10.01,14.27,13.17,6.26,3.49,13.37,4.78,20.47,4.33,10.07-.65,19.83-4.33,28.74-8.85,1.49-.77,2.91-1.55,4.39-2.32.71-.39-.39-.32-.71-.19-12.08,6.65-26.28,12.66-40.36,10.53-9.56-1.49-17.44-7.04-23.51-14.34-2.97-3.62-5.55-7.62-7.88-11.69-.45-.84-1.23-1.74-1.36-2.78,0-.39-.13-1.03,0-1.42.19-.65.71-1.23.97-1.87,1.29-2.97,1.94-6.2,2.32-9.36.45-3.16.65-6.39.65-9.62s-.58-6.2-2.2-8.65c-.45-.71-1.03-1.1-1.87-.65-.71.39-1.23.84-2.07.97-1.87.26-3.75-.52-5.23-1.55-4.97-3.42-7.17-9.82-8.14-15.5-.52-3.1-.84-6.72.77-9.62,1.1-2,3.04-3.1,5.3-3.29,1.1-.13,2.2,0,3.29,0,.26,0,1.36-.45.77-.52h0v.19h-.06Z"/>
  <path class="cls-24" d="M292.46,484.97c-4.46,16.86-31.32,24.28-32.03,26.48-.32.9-1.36,74.08-3.62,116.12,8.72,3.55,20.41,5.94,29.58,8.2,13.37,3.23,31.71,9.75,45.4,10.33,12.34.58,36.94,3.36,49.28,3.16,14.14-.26,17.37-3.04,31.45-8.01-1.42-29.64-.26-85.38.19-99.2.52-15.18,2.39-26.48,2.39-26.48,0,0,7.94,2.84,17.89-3.23-4.97-17.63-.58-72.91-27.96-91-3.87-2.58-26.54-13.76-32.94-17.05,1.36,2.71,1.36,6.91.77,8.72-1.61,5.23-1.68,6.52-6.14,8.78-3.94,2-10.46,3.62-14.79,2.2-21.89-7.17-27.19-16.4-31.45-25.45-10.07,4.65-16.92,7.81-26.48,11.17-35.78,12.59-31.26,64.9-31.26,64.9,5.81,4.2,29.77,10.4,29.77,10.4h0l-.06-.06Z"/>
  <path class="cls-8" d="M371.38,398.82s-16.47.45-30.68-10.07c0,0,1.49,5.04,11.82,9.3,10.33,4.26,18.73,3.42,18.73,3.42l.13-2.65h0Z"/>
  <circle cx="393.86" cy="345.02" r="3.68"/>
  <path d="M398.51,342.31c-1.68-1.23-4.07-2.07-7.62-1.94-5.68.19-8.65,7.17-8.65,7.17,0,0,3.29-5.23,8.98-5.62,2.71-.13,7.04,1.68,9.04,2.84,0-.52-.71-1.68-1.68-2.45h-.06Z"/>
  <path class="cls-25" d="M309.45,354.64c-.52-1.81-.77-4.33.45-5.94l-.77.32s-.13,0,0,0h.26c.52.19.9.52,1.29.84,2.2,1.94,3.68,4.65,4.97,7.23l1.16-.39c-.65-.52-1.42-.9-2.26-.77-1.03.13-1.61.9-1.74,1.94-.32,2.39,1.81,3.75,3.94,4.13.26,0,.65,0,.84-.19.13-.19.19-.39-.13-.39-1.68-.26-3.29-1.16-3.49-3.04,0-.52,0-1.23.32-1.61.09-.09.22-.09.39,0,.19,0,.32.13.52.26.19,0,.32.19.45.32.19.19,1.36,0,1.16-.39-.97-1.94-2.07-3.81-3.42-5.55-.71-.9-1.49-1.74-2.39-2.39-.39-.26-.84-.52-1.29-.58-.65-.13-1.03.26-1.29.84-.9,1.81-.71,3.94-.19,5.81.13.39,1.29,0,1.16-.32h0v-.19l.06.06Z"/>
  <circle cx="355.82" cy="343.34" r="3.68"/>
  <path d="M366.02,346.38s-5.1-7.75-11.37-7.56c-8.85.19-10.59,3.81-12.4,6.52,0,0,5.68-4.97,12.53-5.04,6.2,0,11.24,6.07,11.24,6.07h0Z"/>
  <path class="cls-12" d="M418.01,460.43c.13,5.17-.26,10.4-.58,15.56-.26,4.59-.65,9.11-.97,13.69-.26,3.29-.71,6.59-.97,9.88-.32,4.26-.58,8.59-.45,12.85v1.61c0,.32,0,1.23.13,1.49,0,0,.13,0,.19.13.26.19.71.32.97.39,5.55,1.87,11.95-.71,16.79-3.29.13,0,.26-.19.19-.32,0-1.87-.13-3.68-.26-5.55,0-.39-.9,0-1.1,0-2.2,2.2-5.55,3.36-8.52,3.87-2.07.32-4.52.71-6.59.19-.26,0-.58-.19-.77-.39s0-.26-.13-.13c0-.45-1.16-.26-1.16.13s.65.77,1.03.9c2.07.71,4.71.32,6.78,0,3.55-.45,7.69-1.81,10.33-4.39h-1.1c0,1.87.13,3.75.26,5.62l.19-.32c-4.39,2.32-10.2,4.71-15.18,3.1-.26,0-.77-.19-.97-.39-.19-.26.13.39,0-.32-.19-1.1-.13-2.32-.19-3.42,0-4.33.19-8.59.58-12.92.26-2.97.65-5.88.9-8.85.32-4.26.65-8.59.9-12.92.32-5.49.77-11.04.65-16.6,0-.39-1.16-.13-1.16.32h.13l.06.06Z"/>
  <path d="M398.18,309.56c-3.23-17.76-15.31-25.12-32.61-27.64-14.98-2.2-29.51-4.46-43.59,4.91-2.32,1.55-9.95,6.39-12.98,10.98-10.46,15.82-7.04,32.55-3.49,46.05.26-.13.52-.19.84-.32,1.61-.39,3.16-.32,4.78.13,1.16.19,2.2.77,3.23,1.29s1.94,1.36,2.71,2.13c1.74,1.68,2.58,3.75,3.29,5.94v.26c1.42.58.65,0,2.07-.84,1.29-.84,1.23-3.68,1.61-5.17.71-2.97.32-6.07.39-9.11-.19-1.68-.45-3.36-.84-4.97-1.36-6.97,1.55-10.85,3.36-16.79,0,0,3.36-8.65,13.69-13.5,11.3-5.23,15.5,2.45,29.32,2.78,11.88.26,13.76-7.04,21.96-1.61,0,0,2.71.9,3.68,2.2.97,1.29,2.58,3.29,2.58,3.29h0Z"/>
  <path d="M398.44,309.5c-.84-4.52-2.32-8.91-4.78-12.72-2.2-3.42-5.1-6.26-8.46-8.46-3.62-2.32-7.62-3.87-11.75-4.97-5.17-1.36-10.46-2-15.76-2.65-5.68-.71-11.5-1.16-17.24-.52-5.81.58-11.5,2.39-16.6,5.3-1.81,1.03-3.55,2.2-5.23,3.42-2,1.42-3.94,2.84-5.81,4.46s-3.49,3.49-4.84,5.62c-1.68,2.65-3.04,5.55-4,8.52-1.81,5.42-2.45,11.17-2.2,16.86.26,5.36,1.23,10.66,2.52,15.89.32,1.23.58,2.39.9,3.62h.32c1.94-.71,3.75-.52,5.68,0,1.49.39,3.1,1.23,4.33,2.2,1.16.97,2.2,2,2.97,3.29.32.58.65,1.23.9,1.87s.58,1.42.71,2.13h0c.52.26,1.16.45,1.61,0,.58-.71,1.42-1.1,1.81-2s.45-1.94.58-2.91c.19-1.23.45-2.45.58-3.68.13-1.49,0-2.97,0-4.46v-2.32c0-.77-.19-1.55-.32-2.32-.26-1.49-.58-2.97-.71-4.46-.13-1.29,0-2.58.13-3.81.32-2.32,1.23-4.52,2.07-6.72.45-1.16.9-2.32,1.29-3.55.13-.32.19-.58.32-.9.97-2.2,2.45-4.26,4-6.07,3.1-3.49,7.1-6.39,11.56-7.94,1.94-.71,4-1.03,6.07-.9,1.74.13,3.49.52,5.17,1.03,1.81.58,3.62,1.23,5.49,1.81,2.13.65,4.33,1.16,6.52,1.49,4.46.58,8.85.26,13.05-1.23,2.78-.97,5.62-2.65,8.65-1.94.84.19,1.61.52,2.39.9s1.23.77,1.87,1.03c.84.32,1.68.71,2.39,1.23.9.65,1.49,1.61,2.13,2.45.39.52.84,1.1,1.23,1.61.13.13.52-.06.52-.13-.52-.71-1.1-1.36-1.61-2.07-.71-.9-1.29-1.74-2.32-2.39-.71-.45-1.55-.71-2.32-1.1-.39-.19-.77-.52-1.16-.71-.45-.26-.97-.52-1.42-.71-1.49-.58-3.1-.77-4.65-.45s-3.1.97-4.59,1.55c-2.07.77-4.13,1.42-6.33,1.74-2.97.39-5.94.19-8.85-.32-2.39-.39-4.71-1.1-6.97-1.87-1.94-.65-3.87-1.36-5.88-1.81s-3.94-.58-5.94-.32c-2.45.32-4.78,1.23-6.97,2.32-4.13,2.13-7.75,5.23-10.4,9.04-.71,1.03-1.42,2.13-1.94,3.29-.58,1.16-.9,2.45-1.36,3.75-.97,2.45-2,4.91-2.45,7.56-.26,1.36-.26,2.78-.19,4.13.13,1.68.52,3.29.77,4.97.13.84.32,1.74.32,2.58v2.65c0,1.81,0,3.62-.32,5.36-.19,1.1-.32,2.26-.52,3.42-.13.52-.26,1.1-.52,1.55-.32.58-.77.77-1.23,1.16-.13.13-.26.26-.39.45-.13.19,0,0,0,0-.13,0-.32,0-.45-.13-.39-.19-.39-.71-.52-1.1s-.26-.71-.39-1.1c-.52-1.29-1.16-2.52-2.13-3.55-2.07-2.39-5.1-4.07-8.27-4.39-1.42-.13-2.84,0-4.2.58h.32c-1.29-4.97-2.45-10.01-3.04-15.11-.65-5.49-.58-11.11.52-16.53.58-2.91,1.55-5.75,2.78-8.46,1.16-2.65,2.58-5.3,4.46-7.49,2.97-3.49,6.91-6.14,10.66-8.65,2.2-1.49,4.46-2.84,6.85-3.87,2.78-1.23,5.68-2.13,8.65-2.71,5.68-1.1,11.5-.97,17.18-.39,2.97.26,5.88.71,8.85,1.1,2.52.39,5.04.71,7.49,1.23,4.26.9,8.4,2.26,12.27,4.33,3.49,1.87,6.65,4.39,9.17,7.56,2.65,3.36,4.46,7.3,5.55,11.43.32,1.16.58,2.32.77,3.49,0,.13.52,0,.52-.13h0l.13.06Z"/>
  <path class="cls-4" d="M377.39,366.53c-1.23.65-3.16.45-4.39-.39-.26-.19-1.23,0-.84.19,1.61,1.03,4.33,1.23,5.94.39.19,0,.13-.19,0-.26h-.71"/>
  <path class="cls-4" d="M371.71,366.01c-.84-.39-1.74-.65-2.65-.71-.13,0-.32,0-.39.13,0,0-.13.19,0,.19.45.26.97.39,1.49.39s.39,0,.45-.19c0-.13,0-.19-.19-.19-.39,0-.84-.13-1.16-.32-.13.13-.26.26-.39.32.84,0,1.68.32,2.39.65h.52c.13,0,.19-.19,0-.26"/>
  <path class="cls-4" d="M368.02,366.01c-1.1,0-2.32-.58-2.84-1.42-.77-1.23,0-3.29,1.42-4.07.13,0,0-.19,0-.26-.19,0-.45,0-.58.13-1.23.65-2,2.39-1.87,3.55.13,1.1,1.16,1.87,2.45,2.2.39.13.77.19,1.23.19s.45,0,.52-.19,0-.19-.19-.19"/>
  <path class="cls-4" d="M379.39,366.01c0-.13,0-.19.13-.19.32,0,.58,0,.84-.26,0,.13.19.26.26.39-.58,0-1.16.26-1.74.58h-.32s-.13-.19,0-.26"/>
  <path class="cls-4" d="M378.62,366.14c.58-.39,1.29-.58,1.94-.65.13,0,.19,0,.26.13v.19"/>
  <path class="cls-4" d="M381.65,366.2c.71,0,1.55-.45,1.94-1.29.58-1.23.13-2.71-.77-3.55v-.26c.13,0,.26,0,.39.13.77.71,1.23,1.87,1.1,3.04-.13,1.1-.84,1.81-1.68,2.13-.26,0-.52.13-.77.13s-.32,0-.32-.19,0-.19.13-.19"/>
  <path class="cls-10" d="M319.91,398.49s11.82,25.06,35.91,24.54,15.76-19.96,15.76-19.96l7.1,3.49s5.3,16.02-10.79,22.22c-16.15,6.2-31.71-.9-42.62-11.43s-11.95-15.89-11.95-15.89l6.59-2.91h0v-.06Z"/>
  <path class="cls-12" d="M319.39,398.75c1.36,2.91,3.23,5.55,5.17,8.07,4.07,5.3,9.17,9.88,15.11,12.98,7.23,3.68,16.08,4.84,23.96,2.58,5.1-1.49,9.11-5.04,9.82-10.46.39-2.97-.13-6.26-1.29-9.04l-.9.58c2.07,1.03,4.2,2,6.26,3.04.13,0,.71.45.84.39-.45,0-.19-.45-.19,0s.26,1.03.32,1.49c.97,4.97.26,10.46-2.91,14.47-2.71,3.42-6.78,5.3-10.85,6.52-4.97,1.42-10.27,1.61-15.37.65-10.14-1.94-18.79-8.01-25.9-15.31-2.97-3.04-5.88-6.39-8.01-10.07-.58-1.03-1.29-2.2-1.55-3.42l-.32.52c2.2-.97,4.39-1.94,6.59-2.91.71-.32,0-1.03-.52-.77-2.2.97-4.39,1.94-6.59,2.91-.19,0-.39.32-.32.52.19,1.03.77,2.13,1.29,3.04,1.74,3.23,4.13,6.07,6.59,8.78,6.97,7.69,15.5,14.27,25.64,16.92,5.1,1.36,10.46,1.61,15.63.65,4.59-.84,9.3-2.52,12.79-5.68,4.39-4,5.94-9.88,5.23-15.63-.13-.84-.26-1.74-.45-2.58-.13-.45-.13-.71-.52-.97-1.16-.77-2.58-1.23-3.81-1.87-1.1-.52-2.13-1.03-3.23-1.55-.32-.13-1.1.13-.9.58.9,2.2,1.36,4.65,1.36,7.04s-.39,4.13-1.42,5.88c-1.29,2.26-3.42,3.87-5.81,4.78-3.75,1.49-8.14,1.81-12.14,1.55-4-.26-7.75-1.29-11.3-2.91-6.07-2.78-11.17-7.3-15.37-12.4-2.2-2.71-4.33-5.75-5.81-8.91-.26-.52-1.36,0-1.1.52h0v.06Z"/>
  <path class="cls-15" d="M282.48,572.3c5.17-6.46-3.87-14.6,3.81-17.11,4.13-1.36,0-7.43,4.65-6.97l8.07-82.86-41.4-5.04s-15.82,79.05-8.52,106.11c.58,2.2,2.09,12.08,18.76,17.38,1.1-2.52,12.95-9.37,14.7-11.5h-.06Z"/>
  <path class="cls-15" d="M289.53,538.16c-2.18,1.13-6.94,9.77-8.27,11.99-1.92,3.17,1.62,6.51.54,10.04-1.05,3.45-19.05,2.77-19.46,6.33-.78,6.51-9.99,10.53,1.55,15.92,6.68,4.62,39.6.13,63.83-10.37,19.32-8.32,69.98-32.27,69.98-32.27l-.95-18.99-107.16,17.33-.06.03h0Z"/>
  <path class="cls-24" d="M304.99,405.4s-42.95,10.46-50.7,39.4c-10.01,37.52-11.62,68.39-11.62,68.39,0,0,33.32,13.37,61.81,4.84,17.57-5.23,9.69-107.4,9.69-107.4"/>
  <path class="cls-12" d="M293.95,437.05c2.07.71,4,2.26,5.55,3.81,4.33,4.33,6.46,10.27,7.1,16.21.77,6.52.26,13.17-.26,19.7-.58,7.43-1.42,14.79-2.32,22.15-.84,6.52-1.74,13.05-2.84,19.57l.45-.45c-3.16,1.1-6.65,1.55-9.95,1.87-9.04.97-18.21.45-27.12-1.16-7.36-1.29-14.53-3.36-21.51-5.94l.26.39c.26-3.49.52-7.04.77-10.53l-1.03.39c1.42,1.03,2.91,1.81,4.46,2.65,4,2.07,8.27,3.62,12.59,4.78,8.59,2.26,17.7,2.71,26.54,2.45,5.04-.13,10.59-.39,15.31-2.45.71-.32,0-1.03-.52-.77-4.07,1.81-8.91,2.07-13.3,2.26-3.55.13-7.04.13-10.59,0-5.1-.26-10.07-.71-15.05-1.87-4.52-1.03-8.98-2.58-13.11-4.59-1.87-.9-3.75-1.87-5.36-3.1-.32-.26-1.03,0-1.03.39-.26,3.49-.52,7.04-.77,10.53,0,.19.13.32.26.39,11.37,4.26,23.31,7.04,35.46,7.56,6.91.32,13.95,0,20.73-1.49,1.16-.26,2.26-.52,3.42-.84.26,0,.45-.19.45-.45,2.2-13.24,3.94-26.54,5.04-39.91.52-6.59,1.03-13.3.52-19.89-.45-6.26-2.32-12.53-6.52-17.31-1.81-2.07-4.2-4.13-6.78-5.04-.52-.19-1.42.58-.65.84h0l-.19-.13h0Z"/>
  <path d="M369.19,329.2c0-.13-.45-.13-.45-.26-7.62-1.68-13.43-1.74-15.56-1.36-1.61.26-3.16.9-4.65,1.68,0,0-4.07,2.2-4.59,3.04s2.52-.45,2.52-.45c.65-.19,1.1-.39,1.74-.52,3.62-.58,7.04-1.61,10.66-1.16,3.1.32,7.3,2,10.27,3.1,0-1.42-.19-2.71,0-4.07h.06Z"/>
  <path d="M401.93,334.23v-.19h0v-.39h0v-.58h0c0-.19-.06-.39-.13-.52,0-.06,0-.19-.06-.26v-.19h0c0-.06-.06-.13-.13-.26-.84-.52-1.68-.9-2.58-1.16-1.74-.52-6.59-.9-13.11.19,0,.13-.39.13-.39.26,0,1.42-.19,2.65-.19,4.07,2.58-.84,6.2-2.2,8.85-2.32,2.58-.13,5.1.77,7.56,1.55,0,0,0-.06.06-.13l.13-.06Z"/>
  <path class="cls-17" d="M364.8,374.47s4.84,0,8.65.32,8.59,1.1,8.59,1.1c0,0,.84-2.97-6.07-3.55-6.97-.58-11.17,2.13-11.17,2.13h0Z"/>
  <path class="cls-7" d="M327.08,139.65c-6.72-4.26-17.57-12.66-17.57-12.66,0,0-7.75,18.08,7.81,27.96,15.63,9.82,25.12-6.14,25.12-6.14,0,0-8.65-4.91-15.37-9.17h0Z"/>
  <path class="cls-2" d="M327.14,139.65c-3.23-2-15.18-9.62-15.18-9.62,0,0-2.58,11.37,8.98,18.66,12.53,7.94,19.12-.84,19.12-.84l-12.92-8.2h0Z"/>
  <path class="cls-13" d="M326.95,140.23c-3.23-2-12.59-8.72-12.59-8.72,0,0,1.23,5.75,10.85,11.82,9.62,6.07,14.85,4.52,14.85,4.52l-13.11-7.62h0Z"/>
  <path class="cls-7" d="M343.42,148.75c-.26-.32-1.16-.52-2.52-1.68-2.39-2.13-2.97-3.87-4.71-5.17-3.04-2.26-5.88-2.2-7.23-3.1-1.36-.9-2.58-3.49-5.94-5.23-1.94-1.03-5.23-2.2-7.94-3.62-1.61-.84-5.04-3.81-5.36-3.94-.52-.19-1.68,4.13,15.69,15.05,17.37,10.98,18.41,8.07,18.02,7.62h0v.06Z"/>
  <path class="cls-11" d="M334.25,135.26l-1.68,3.49c-.26.52-.26,1.1,0,1.49,1.87,2.39,12.66,9.75,10.46,12.53-.32.39-1.03,2.32-.97,2.32h.84c.9.32,3.16-4.2,2.78-5.23-1.29-3.16-2.65-5.68-3.55-7.17-1.16-1.81-4.39-6.65-6.26-8.2-.45-.39-1.23,0-1.61.77h0Z"/>
  <path class="cls-11" d="M330.5,132.87l-2.45,2.97c-.39.45-1.03.58-1.55.39-3.81-1.49-19.57-11.75-20.92-8.4-.19.45-2.07,2.91-2.13,2.91l-.26-1.42c.19-2.71,2.78-5.55,4.13-5.36,4.2.58,7.81,1.36,9.95,2,2.71.77,10.01,3.16,12.92,4.78.77.45.9,1.42.39,2.13h-.06Z"/>
  <path class="cls-7" d="M372.55,372.73c-4.97-.45-12.98-1.74-12.98-1.74,0,0-1.94,13.69,11.95,14.72,11.56.84,12.98-12.27,12.98-12.27,0,0-6.91-.32-11.88-.77h0l-.06.06Z"/>
  <path class="cls-23" d="M372.93,372.79c-2.45-.19-11.5-1.1-11.5-1.1,0,0,1.36,8.27,10.14,9.04,9.56.84,11.69-6.52,11.69-6.52l-10.33-1.42h0Z"/>
  <path class="cls-13" d="M372.93,373.89c-2.45-.19-9.82-1.23-9.82-1.23,0,0,2.71,2.2,10.01,2.84s9.56-1.03,9.56-1.03l-9.75-.58h0Z"/>
  <path class="cls-7" d="M385.07,373.5c0-.26-.52-.39-1.68-.58-2-.32-2.58-1.1-4-1.29-2.45-.39-4.13.39-5.23.26s-2.58-1.16-5.1-1.16-5.1.13-7.17.13-2.58-.58-2.84-.52c-.39,0,.19,3.29,13.76,4.52s12.21-.9,12.27-1.23h0v-.13Z"/>
  <path class="cls-14" d="M606.64,518.64l-14.6,20.15-92.87,23.83-37.33,41.46,134.07-52.38,24.86,3.87s5.49-22.54-14.14-36.88h0v-.06Z"/>
  <path class="cls-18" d="M449.79,591.34c-.58.45.52-.58,0,0h0Z"/>
  <path class="cls-14" d="M404.62,582.58h0c.65,1.36,10.2,20.09,36.17,33.78,22.15,11.69,50.24,13.3,59.42,13.5,5.23,1.81,6.2-2.45,8.2-8.65l39.01-118.12c.97-2.13-34.81-4.33-40.23-6.78l-22.67-18.34c-4.65-2.13-3.81-10.2-7.17-6.33l-3.87-3.49-8.72,14.34c-1.29-.84-2.58-1.61-3.87-2.45-10.98-7.1-22.28-14.4-32.55-12.08-4.84,1.1-8.85,4.2-11.95,9.24-9.49,15.44-16.99,69.43-1.16,86.73l-7.23,11.88c-2.13,3.68-3.87,5.36-3.36,6.72h0v.06ZM420.51,555.33c-8.85-14.47-4.78-58.9,4-73.17,1.74-2.84,3.68-4.46,6.01-4.97,6.33-1.42,15.95,4.78,25.25,10.85,1.36.9,2.71,1.74,4.07,2.65l-39.33,64.71h0v-.06Z"/>
  <path class="cls-22" d="M547.48,503.14s-26.93.65-47.21-9.88c-20.28-10.53-27.25-25.06-27.25-25.06,0,0,24.15.9,41.66,8.78,17.5,7.88,28.42,20.34,32.74,26.16h.06Z"/>
  <path class="cls-15" d="M377.13,525.2s9.88-3.95,10.91-5.06c1.02-1.11,11.47-16.62,12.85-17.19,1.38-.57,14.01-4.41,14.01-4.41l5.75,4.51s7.48,1.8,8.6,3.84c1.04,2.01-.78,4.55-2.15,5.11-.92.47-1.72,1.18-2.31,2,1.17.71,1.99,1.88,2.33,3.23.11,1.76-3.16,3.6-3.16,3.6.68,1.32,1.22,2.64,1.44,4.05.11,1.76-2.04,2.95-2.04,2.95,0,0,2.96,3.34,2.84,4.78-.12,1.45-9.04,6.42-13.06,6.25-1.53,1.81-3.68,3-6.02,3.26-3.84.46-24.73,4.21-24.73,4.21l-4.89-15.07"/>
  <path class="cls-22" d="M606.64,518.64s1.36,23.96,14.14,36.88c12.79,12.92,0,0,0,0,0,0,6.65-23.64-14.14-36.88"/>
  <path class="cls-15" d="M298.21,454.94c-8.27.58-19.31,1.23-20.47.32-1.16-.9-9.82-5.68-17.37-9.88-3.94-1.94-5.81-6.59-4.13-10.33.45-.97,20.73,3.62,21.76-5.49l-16.47-7.36c-5.62-1.61-11.37-2.58-17.11-2.78-7.1.19-26.48,7.3-26.48,7.3l-20.8-9.82-7.17,25.38,16.79,16.86,17.76,14.4s37.39,19.25,43.21,18.41c5.81-.77,15.44-8.98,15.44-8.98,7.88.26,12.53-9.04,12.53-9.04,12.79-3.81,5.62-9.3,5.62-9.3.45,0,.9-.19,1.29-.45,4-2.91.58-9.69-4.33-9.3h0l-.06.06Z"/>
  <path class="cls-25" d="M262.89,463.21c5.42,3.75,11.88,6.72,18.6,6.85,3.49,0,7.04-.39,10.4-1.42,3.36-1.03,6.59-2.2,9.43-4.2.71-.45,0-.9-.58-.52-2.65,1.87-5.75,2.97-8.78,3.94-3.29,1.03-6.72,1.49-10.14,1.42-6.39-.13-12.72-3.04-17.89-6.65-.39-.26-1.49.32-1.03.65h0v-.06Z"/>
  <path class="cls-25" d="M258.88,471.6c5.36,3.42,10.98,6.97,17.57,6.65,4.07-.19,8.07-1.16,12.08-1.94,2.52-.52,4.97-.9,7.3-2,.71-.32.45-1.03-.26-.71-3.49,1.55-7.49,2-11.17,2.71-1.94.39-3.81.77-5.81.97-1.68.13-3.42.26-5.17,0-1.49-.26-2.97-.71-4.39-1.23-3.29-1.29-6.26-3.29-9.24-5.17-.39-.26-1.42.39-.84.77h-.06v-.06Z"/>
  <path class="cls-25" d="M256.17,481.16c2.26,1.23,4.65,2.39,6.97,3.49,1.42.65,2.91,1.36,4.39,1.94,1.29.52,2.65.65,4,.52,3.04-.19,6.07-.77,8.85-1.94.65-.26,3.68-1.42,3.36-2.52-.19-.58-1.36-.13-1.16.45-.06-.26,0-.19-.32,0s-.65.39-.97.58c-1.03.58-2.2.97-3.36,1.36-2.52.77-5.68,1.49-8.27.97-1.36-.26-2.58-.9-3.75-1.49-1.1-.52-2.26-1.03-3.36-1.55-1.87-.9-3.75-1.81-5.55-2.78-.52-.26-1.49.45-.84.84h0v.13h0Z"/>
  <path class="cls-16" d="M291.96,537.75s-12.42.78-21.02,14.78"/>
</svg>