<?xml version="1.0" encoding="UTF-8"?>
<svg id="Layer_1" xmlns="http://www.w3.org/2000/svg" xmlns:xlink="http://www.w3.org/1999/xlink" version="1.1" viewBox="0 0 637.3 635.8">
  <!-- Generator: Adobe Illustrator 29.6.1, SVG Export Plug-In . SVG Version: 2.1.1 Build 9)  -->
  <defs>
    <style>
      .st0, .st1 {
        fill: none;
      }

      .st2 {
        fill: #e79731;
      }

      .st1 {
        stroke: #4f2e25;
        stroke-linecap: round;
      }

      .st1, .st3 {
        stroke-miterlimit: 10;
      }

      .st3 {
        stroke: #000;
        stroke-width: .6px;
      }

      .st4 {
        fill: #010101;
      }

      .st5 {
        fill: #0b0909;
      }

      .st6 {
        fill: #aacad4;
      }

      .st7 {
        fill: #ce8d2a;
      }

      .st8 {
        fill: #727272;
      }

      .st9 {
        fill: #27153c;
      }

      .st10 {
        fill: #653c29;
      }

      .st11 {
        fill: #231f20;
      }

      .st12 {
        fill: #13110f;
      }

      .st13 {
        fill: #11394c;
      }

      .st14 {
        fill: #f1eef7;
      }

      .st15 {
        fill: #263238;
      }

      .st16 {
        fill: #eaebf4;
      }

      .st17 {
        fill: #661d0d;
      }

      .st18 {
        fill: #a66e53;
      }

      .st19 {
        fill: #e9f6f8;
      }

      .st20 {
        fill: #0a2f44;
      }

      .st21 {
        clip-path: url(#clippath-1);
      }

      .st22 {
        fill: #c95744;
      }

      .st23 {
        fill: #4454a5;
      }

      .st24 {
        fill: #fff;
      }

      .st25 {
        fill: #9b9a9a;
      }

      .st26 {
        fill: #1d170f;
      }

      .st27 {
        fill: #111424;
      }

      .st28 {
        fill: #151210;
      }

      .st29 {
        fill: #6c256d;
      }

      .st30 {
        fill: #2b7d3d;
      }

      .st31 {
        fill: #3a221a;
      }

      .st32 {
        fill: #1b1c4d;
      }

      .st33 {
        fill: #4696a3;
      }

      .st34 {
        fill: #db5434;
      }

      .st35 {
        fill: #2a5c8f;
      }

      .st36 {
        fill: #5e3527;
      }

      .st37 {
        fill: #b7ac8a;
      }

      .st38 {
        clip-path: url(#clippath);
      }

      .st39 {
        fill: #4f2e25;
      }

      .st40 {
        fill: #444443;
      }
    </style>
    <clipPath id="clippath">
      <path class="st0" d="M250.9,294.6c3.9,11.1,7.9,22.1,11.8,33.2,1.5,4.3,3.1,8.7,3.3,13.3.2,6.4-2.2,12.5-3.5,18.9-.6,3-.9,6.2-.2,9.2s2.7,5.8,5.6,7c4.7,1.9,9.9-1.1,13.4-4.7,9.3-9.3,12.1-18.7,15-29.8.8-3,3-4.6,3.5-6.6,1.5-6,.1-8.9-1.6-11.6-2.4-3.9-7.7-2.9-9.7-5.9-.7-1.1-1-2.4-1.3-3.7-2-8.4-3.9-16.9-5.9-25.4-.2-.6-.3-1.3-.8-1.6-.4-.3-.9-.3-1.4-.3-9.6,0-19.3,2.3-27.9,6.6l-.2,1.3h0Z"/>
    </clipPath>
    <clipPath id="clippath-1">
      <path class="st0" d="M201.4,344.9c4.2,11.9,10.7,23.2,15,35.2,1.6,4.7,3.3,9.4,3.6,14.4.3,6.9-2.1,13.5-3.3,20.2-.6,3.2-.9,6.7,0,9.9.8,3.2,2.9,6.3,5.9,7.6,4.8,2.1,10.2-1.1,13.8-4.9,9.4-9.9,10.7-18.9,13.5-30.7.8-3.2,4.6-6,5.1-8.1,1.5-6.5,0-9.5-1.8-12.4-2.5-4.2-8.1-3.2-10.1-6.5-.8-1.2-1.1-2.6-1.4-4-2.1-9.1-4.3-18.2-6.4-27.3-.2-.7-.3-1.4-.9-1.7-.4-.3-1-.3-1.5-.3-10,0-19.9,2.2-28.8,6.7l-2.5,2h0s0,0,0,0Z"/>
    </clipPath>
  </defs>
  <path class="st37" d="M243.9,195.4s-10-10.1-16.7-20.3c0,0,7.8,7.4,16.7,20.3h0Z"/>
  <path class="st37" d="M239,202.3s-18.7-4.6-31.4-11.5c0,0,14.2,4.3,31.4,11.5Z"/>
  <path class="st37" d="M237.9,212.2s-15.7,2.5-27.7,1.3c0,0,12.2-1.3,27.7-1.3Z"/>
  <path class="st37" d="M261.7,193s5.6-15.4,10.4-23.8c0,0-3.4,11.2-10.4,23.8Z"/>
  <path class="st37" d="M268.6,198.1s13.4-12.7,22.5-18.7c0,0-9.1,9.6-22.5,18.7h0Z"/>
  <path class="st37" d="M252.6,191.9s-5-18.9-5-33.1c0,0,3.4,13.8,5,33.1h0Z"/>
  <path class="st35" d="M407.3,345.4c12.4.2,23.7-5.9,29.4-17.1,0-1.5.1-3,0-4.5-.2-7,1.9-12.5-1.4-18.7-1,.9-4.9-.4-4.9-.4l-121.1-51.8s-4,3.9-7.7,7.6c-3.4,3.3-3.3,8.8.1,12.1,10.7,10.1,31.2,29.9,32.9,31.2,8.9,6.7,18,13.3,27.3,19.5,7.8,5.2,15.8,10.1,24,14.7,3,1.7,6,3.8,9.1,5.3,3,1.4,6.6,2,9.9,2.2.8,0,1.6.1,2.4.1h0s0,0,0,0Z"/>
  <path class="st18" d="M528.4,495.2c1.4-5,6.4-10.9,10.2-13.8,3.8-2.9,9-1.4,10.4-1,10.4,2.9,16.5,10.4,25.3,16.4,6.6,4.6,13.9,8.4,21.4,11.2,7.7,2.9,15.8,3.8,23.5,6.4,0,0,.1,0,.2,0,3.8,1.3,7.1,3.8,9.3,7.2.8,1.3,1.6,2.5,2.5,3.6,1.2,1.6,2.4,2.7,1.6,4.9-1.4,3.9-8,.1-9.9-.4-.3-.1-.7-.1-1.1,0-1.4.3-5.8,1-13.2.4-.7,0-1.4,0-2.1,0h0c-3.9-.1-25.2,1.4-28.3,1.5-6.2.2-21.9-.9-21.9-.9,0,0-25.5-.2-33,5.9l-13.6-28.7s17.6-7.6,19-12.6h0s0,0,0,0Z"/>
  <path class="st18" d="M492.7,465.8c1.4-5,6.4-10.9,10.2-13.8,3.8-2.9,9-1.4,10.4-1,10.4,2.9,16.5,10.4,25.3,16.4,6.6,4.6,13.9,8.4,21.4,11.2,7.7,2.9,15.8,3.8,23.5,6.4,0,0,.1,0,.2,0,3.8,1.3,7.1,3.8,9.3,7.2.8,1.3,1.6,2.5,2.5,3.6,1.2,1.6,2.4,2.7,1.6,4.9-1.4,3.9-7.9,2.5-9.8,1.9-.3-.1-.7-.1-1.1,0-1.4.3-5.8,1-13.2.4-.7,0-1.4,0-2.1,0h0c-3.9,0-21,1.6-24.2,1.8-6.2.2-26.2-3.6-26.2-3.6,0,0-25.5-.2-33,5.9l-13.6-28.7s17.6-7.6,19-12.6h0,0Z"/>
  <path class="st39" d="M523.5,494.3c.7-3.2,2.5-6.2,4.4-8.8.9-1.3,2-2.6,3.1-3.7,1-1.1,2.1-2.1,3.5-2.7,2.3-1,4.9-.8,7.3-.4,3.1.6,6,1.7,8.8,3.1,6,3.1,11.1,7.6,16.8,11.1,2.5,1.5,5,3,7.5,4.5,2.8,1.7,5.6,3.4,8.4,5,0,0,.1,0,.2.1.5.3,1.5-.4.9-.7-2.5-1.5-5-3-7.5-4.5-2.5-1.5-5.1-3.1-7.6-4.6-5.9-3.6-11.1-8.1-17.1-11.3-3-1.6-6.2-2.9-9.5-3.6-2.4-.5-4.9-.7-7.2,0-3.1.8-5.2,3.3-7.2,5.6-2.2,2.6-4.1,5.6-5.3,8.8-.3.7-.4,1.4-.6,2.1-.1.6,1.1.5,1.2,0h-.1q0-.1,0-.1Z"/>
  <path class="st8" d="M472.2,385.8l26.9,83.5-30.2,6.5,4.9,56.4s-155.7,6.1-165.2-5.5c-17-20.7-17.3-33.1-9-48.4,15-28,124.4-95.1,126.4-94.1l46.4,1.5h0Z"/>
  <path class="st8" d="M497,407.1l30.5,77.2.3,6.7,3.2,6.1c5.7,10.9,8.9,22.9,9.5,35.2h0c.3,6.5-4.1,12.3-10.4,13.8-37.3,8.8-158.8,35.3-190,14.7-22.3-14.7-19-32.2-11.6-47.9,13.4-28.5,118.5-107.2,122.1-107.5h.1l46.4,1.5h0Z"/>
  <path class="st8" d="M571.2,388.4s-15.1,17.8-46.7,3.2c-9.8,7-20,13-30.6,18.7-19.7,10.7-40.1,20.2-59.5,31.4,15.5,12.9,43.7,35.1,61.6,44.3,23.4,12.3,54.3,1.4,72.8-17.4,7.5-7.8,21.2-40.9,2.4-80.3h0Z"/>
  <path class="st40" d="M527.6,490.5c-6.4,1.7-12.8,3.1-19.3,4.4-9.1,1.9-18.2,3.8-27.3,5.6-9.3,1.9-18.6,3.7-28,5.5-7.2,1.4-14.4,2.7-21.6,4.1-.7.1-1.3.2-1.9.3-.3,0-.5.1-.8.2-.1,0-.3,0-.4,0,0,0-.3,0,0,0h-.2c-.8.2-1.6.3-2.4.5-3.3.9-7.2,2.5-9.3,5.4-.5.8-.9,1.6-1.1,2.6-.1.8,1.7.5,1.8-.2.3-2,1.8-3.4,3.4-4.4,1.5-.9,3.1-1.6,4.7-2.1.4-.1.8-.2,1.1-.3,0,0,.2,0-.2,0,.1,0,.2,0,.3,0,.2,0,.4-.1.7-.1,1.1-.2,2.2-.4,3.4-.7,6.9-1.3,13.7-2.6,20.5-3.9,9.2-1.8,18.4-3.6,27.6-5.4,9.1-1.8,18.2-3.6,27.3-5.6,6.8-1.4,13.6-2.9,20.4-4.6.5-.2,1.1-.3,1.6-.4.3,0,.9-.3.8-.8s-.7-.3-1-.3h0c0,.1,0,.1,0,.1Z"/>
  <path class="st40" d="M323.1,530.1c-.2-11.2-.3-23,4.1-33.6,2.1-5.2,5.5-9.7,9.5-13.6,4-3.9,8.5-7.2,13.1-10.4,8.9-6.2,17.4-13.1,25.7-20,8.7-7.2,17.4-14.6,26.6-21.3,2.1-1.6,4.3-3.1,6.6-4.7,1-.7,2.1-1.4,3.2-2.1.5-.3,1-.7,1.5-1,.5-.3,1.1-.6,1.5-1,.7-.7,1.2-1.8,1.6-2.7.9-1.9,1.5-3.9,1.4-6,0-1.2-.4-2.4-1-3.5-.3-.5-2,.1-1.8.5,2,3.7.7,8-1.6,11.3-.1.1-.2.3-.3.4h0s.3-.1,0,0-.3.2-.5.3c-1.1.7-2.1,1.3-3.2,2-2.2,1.4-4.4,2.9-6.5,4.4-9.2,6.6-17.9,13.9-26.6,21.1-8.4,7-16.8,14.1-25.8,20.4-8.9,6.3-18.3,12.7-23.6,22.6-5.4,10-5.9,21.8-5.8,32.9v4.3c0,.4,1.8.1,1.8-.5h.1s0,0,0,0Z"/>
  <path d="M475.5,131c3.7,2.2,5.8,6.7,5.2,11-.3,2-1.1,3.8-1.6,5.8-.8,2.9-1.1,5.9-.8,8.9.3,2.7,1.6,5.9,4.3,6.2.6,0,1.1,0,1.8.2.5.2,1,.7.9,1.3-.1.5-.7.8-1.1.9-1.5.6-3,1.1-4.6,1.1s-3.3-.5-4.3-1.7c-.9-1-1.2-2.4-1.4-3.7-.5-3.7-.5-7.4.2-11,.7-3.8,2.1-7.8.8-11.4"/>
  <path d="M472.1,126.5c3.7,2.2,5.8,6.7,5.2,11-.3,2-1.1,3.8-1.6,5.8-.8,2.9-1.1,5.9-.8,8.9.3,2.7,1.6,5.9,4.3,6.2.6,0,1.1,0,1.8.2.5.2,1,.7.9,1.3-.1.5-.7.8-1.1.9-1.5.6-3,1.1-4.6,1.1s-3.3-.5-4.3-1.7c-.9-1-1.2-2.4-1.4-3.7-.5-3.7-.5-7.4.2-11,.7-3.8,2.1-7.8.8-11.4"/>
  <path class="st18" d="M415.7,199.7c4.5-2.4,9.3-6.9,9.6-7.2.2-.2.5-.5.6-.8.2-.4,0-.9,0-1.4-3.1-13-6.6-26-10.1-38.9l58.7-15.7s-3.6,29.3,4.7,39.8c.1.2,1.7,1.6,1.7,1.6l14.6,5.9c-6.6,8.1-7.8,14.2-16.4,19.8-9.3,6.1-17.3,23.7-28.3,25.5-6.2,1-12.5,1-18.8.9-4.2,0-7.8-13.3-10.5-14.2-1.9-1.9-3.6-4.1-5-6.4-1.1-3.6-2.1-5-.7-9h0c0,0,0,0,0,0Z"/>
  <path class="st19" d="M392.1,292c-2.7,26.3.4,34.2,6.1,40.1,7.3,7.6-4.5,7.1-.7,13.4,7.7,12.5,16.2,28.3,12.7,47.9,0,0,49.9,5.5,84.5,4.7,34.6-.8,70-7.6,70-7.6-16.1-29.5-18.7-45.8-18.7-45.8l3-58,.4-29.8c.6-30.6-5-54-38-65.7l-28.4-13.6s-11.6,33.9-40.7,32.9c-29.2-1.1-16.8-18.7-16.8-18.7,0,0-22.1,8.4-28.4,14.6-6.3,6.1-16.1,18.6-18.7,37.9s-13.1,44-14.5,47.3c-1.3,3.3,27.6,9,27.6,9"/>
  <path class="st17" d="M390.4,263.6c3,3.5,3.5,8.2,3,12.6-.5,4.8-1.3,9.6-1.8,14.4-.3,3.1-.5,6.1-.5,9.3s1.1.4,1.1,0c0-5.4.6-10.9,1.3-16.3.3-2.4.6-4.7.9-7,.3-2.2.3-4.5,0-6.7-.4-2.5-1.4-4.8-3-6.7-.3-.4-1.4,0-1,.5h0s0,0,0,0Z"/>
  <path class="st18" d="M534.9,241.2c-.7-22.2-20.7-28.4-36.3-23.3-7.8,2.6-7.4,18.7-7.4,18.7-10,29.4-18.9,110.6-20.2,126.4,2.8,1,6-.4,8.5,1.1,8.8,5.4,13.5,2,18.5,11,2.5,4.4,3.8,15.9,4.9,20.9,10.1-10.1,14-32.7,17.2-46,4.8-20,7.3-40.4,10.1-60.8,2.2-15.8,5.2-32.2,4.6-48.2h.1Z"/>
  <path class="st22" d="M493,190.2s40.2,8.4,47.2,30.1,0,62.5,0,62.5c0,0-44.6,0-66.4-9-21.8-8.9,19.3-83.5,19.3-83.5h0c0,0,0,0,0,0Z"/>
  <path class="st17" d="M515.4,198.7c-3.2-.6-6.6,0-9.8.8-3.4,1-6.7,2.5-9.6,4.5-1.3.9-2.6,1.9-3.7,3.1-1.2,1.3-2.2,2.7-3.3,4.1-2.1,2.9-4.2,5.9-6,9-2.9,4.8-5.1,9.9-6.6,15.3-1.4,5-2,10.2-2.6,15.4-.7,6.6-1.3,13.3-2.3,19.9-.2,1-.3,2-.4,3,0,0,0,0,.1,0,2.2.6,4.4,1.2,6.6,1.9.2,0,.5,0,.8-.2.1,0,.4-.2.2-.3-1.9-.5-3.8-1.1-5.8-1.6-.2,0-.7-.1-.8-.2,0,0,.2-.4.2-.5,0-.3.1-.5.1-.8.1-.6.2-1.1.3-1.8.3-2,.5-4.1.8-6.1.8-6.6,1.3-13.3,2.2-19.9.8-5.7,2.1-11.2,4.4-16.6,2.9-6.8,7.1-13,11.6-18.9,2.4-3.1,5.4-5.4,8.9-7.1,3.5-1.8,7.5-3,11.4-3s1.8,0,2.6.2c.2,0,.5,0,.8-.2,0,0,.4-.2.2-.3h-.1,0Z"/>
  <path class="st18" d="M477.7,400.8s9.1,6.1,22.8-2.6c13.6-8.7,7.9-38.1,5.2-50.7-2.8-12.9-35.9,16.6-35.9,16.6l7.9,36.6h0Z"/>
  <path class="st17" d="M530.2,282.6c1.3.2,2.5.3,3.7.4.7,0,1.3.1,1.9.2.8.1,1.5.3,2.2,0,.6-.2,1-.7,1-1.3.1-.8,0-1.8,0-2.6,0-2.1,0-4.2.3-6.2.3-4,.9-8.1,1.4-12.2.5-4,1-8.1,1.4-12.1.5-4.6.7-9.1,0-13.6,0-.3-1.2,0-1.1.3,1,7.7-.3,15.4-1.2,23-.8,7.4-2.2,14.8-2,22.2,0,.5.1,1,0,1.5-.1.5-.4.4-.9.3-.7-.1-1.5-.2-2.2-.3-1.3-.1-2.6-.2-3.9-.4-.2,0-.6,0-.8.2-.2.2-.2.3.1.3h-.1s0,0,0,0Z"/>
  <path class="st39" d="M484.8,373.6c-.8-3.5-2.4-6.9-5.2-9.3-1.8-1.5-4-2.6-6.2-3.2-.7-.2-1.5-.3-2.1-.7-.4-.2-1,.4-.5.7s1.1.4,1.7.5c.9.3,1.9.5,2.7.9,2.5,1,4.7,2.8,6.2,5.1,1.3,1.9,2,4,2.5,6.2.1.4,1,.2.9-.2h0s0,0,0,0Z"/>
  <path class="st35" d="M469,401.6c1.2.2,3.9,5.4,5.1,5.4,5.1.2,10.2-.4,15.2-1.4,9.4-1.8,18.6-4.8,27.9-6.9,5.6-1.3,11.2-2.1,16.9-3.1,6.2-1.1,12.4-2.4,18.4-4.2,2.8-.8,5.6-1.8,8.3-3,2.5-1.1,5-2.4,7.2-4,3.7-2.9,6-7,7.1-11.5,1.2-4.7,1-9.7.2-14.5-.5-2.9-1.3-5.6-2.2-8.3-5.1-8.4-9.3-16.3-11.2-26.5-3.7-19.2-3.6-56.3-7.9-81.6-2.2-28.9-11.9-36.7-29.1-48.8-9.9-7-28.8-13.1-41.4-15.6l-6.5-4.4c0,6.9-5.4,16.7-5.4,16.7-7.1,8.6-11.7,13.4-18.6,16.2,0,.7,0,1.5-.1,2.2-.9,15.1-3.2,30.1-5.2,45.1-2,14.9-3.7,29.8-3.3,44.8.4,15.8,3.3,31.4,7.3,46.7,3.9,15.1,8.7,32.4,13.5,47.2,1.8,5.7,2.2,3.7,3.9,9.5h0Z"/>
  <path class="st35" d="M550.2,242.3c-6-17.8-12.6-28.7-23.8-43.6-5-6.6-23.2-.2-34.4,22.7-.4.8-.7,1.6-.8,2.5-7.6,34.2-13.8,99.9-15.5,119.8,0,.3-.1.7-.2,1,4,.3,7.9,1.1,11.7,2.5,9.8,3.4,18.5,9.5,25.5,17.1,4.1,4.5,7.7,9.5,10.5,15,5.5-14.4,6.1-39.5,15.3-68.9.2-.7.4-1.4.4-2.1.9-7.6,11.7-64.6,11.2-66.1h0Z"/>
  <path class="st35" d="M569.6,380.3c.3,4.3,3.6,7.8,3.9,12.1,0,.5-2.8,2.1-3.1,2.6-.3.5-.9.8-1.5,1.1-26.7,15.1-67.8,18.9-98,12.7-.7-.2-1.5-.3-1.9-.9-.3-.5-3.8-.2-3.8-.8,0-2.2,1.3-11.6,1.3-13.8,22-2.3,54.4,1.8,76.1-2.8,9.1-1.9,18.3-4.3,26.1-9.5"/>
  <path class="st35" d="M363.7,299.7l31.1,36.3,16.3-78.1,9.1-45.4,5.3-21.1s-25,9.4-35.4,18.1c-13.3,11.1-19.9,53.1-25.4,66.8l-1,23.5h0Z"/>
  <path class="st35" d="M398.6,390.2h11.6c5.2-1,4.2-27.8,1.9-42.8-1.4-8.5.3-21.1,0-29.8-.2-8.3.2-16.7,1.2-24.9,1.9-15.9,2.7-31.5,6.4-47.1,3.2-13.5,9.1-27.1,10.8-40.9-8.3-5.3-4.4-13.6-4.4-13.6l-21.5,15.2c-.8,2.4-14.5,12.4-14.5,12.4l-9.8,45.6,10.1,94.5c.2,8.3,0,17.9.7,22.7.8,5.9,1.8,7.4,7.6,8.8h0Z"/>
  <path class="st35" d="M425.4,178.9s.1,11.6,5.8,21.7l-2.6,13.4s-11.1-7.8-11.7-19.3l7.3-9.8c.5-1.4,3.6-2.2,5.1-3,2.2-1.1-4-4.5-3.9-3h0Z"/>
  <path class="st32" d="M424.5,176.6c0,1.1.1,2.4.2,3.5.3,3.2,1,6.4,1.9,9.5.6,2.2,1.3,4.4,2.1,6.5.4,1.2.9,2.4,1.4,3.6.2.4.5.8.4,1.2-.4,2.1-.7,4.2-1.1,6.3-.3,2-.7,4.1-1,6.1l1.1-.4s0,0,0,0-.2-.1-.3-.2c-.3-.2-.5-.4-.8-.6-.9-.8-1.8-1.5-2.6-2.4-2.5-2.6-4.7-5.5-6.1-8.8-.9-2.2-1.5-4.6-1.6-7,0-.4-1.2-.2-1.2.3.4,7.2,4.9,13.6,10.3,18.2.5.4.9.8,1.4,1.1.3.2,1,0,1.1-.4.7-4,1.4-8,2.1-11.9,0-.2.1-.4.1-.6s-.1-.4-.2-.6c-.3-.7-.5-1.4-.8-2-.9-2.2-1.7-4.5-2.4-6.8-1-3.3-1.8-6.8-2.2-10.2-.2-1.1-.3-2.2-.3-3.3v-1.1c0-.5-1.2-.3-1.2.2h0c0-.1,0-.1,0-.1Z"/>
  <path class="st35" d="M451.6,213.2s-.7-6.3,4.2-13.5,18.6-15.2,19.7-20.1c1.4-6.3.5-10.7.5-10.7,0,0,12.2,5,12.2,9.8,0,14-36.5,34.6-36.5,34.6h0Z"/>
  <path class="st32" d="M453,212.9c-.5-2.5-.1-5.3.6-7.6,1.3-4.3,4-7.7,7.2-10.8,3.1-2.9,6.5-5.5,9.7-8.2,1.4-1.1,2.7-2.3,3.9-3.6.9-.9,1.8-1.9,2.3-3.1.9-2.1.8-4.6.6-6.8-.1-1.4-.3-2.9-.7-4.2l-1.2.4c1.9.8,3.7,1.7,5.5,2.7,2.4,1.3,5.2,2.9,6.2,5.6,1.6,4.4.2,9-2.4,12.8-3.1,4.5-7.4,8.1-11.8,11.2-4.3,3.1-8.8,5.8-13.4,8.2-2.4,1.3-4.8,2.4-7.3,3.6h-.1c-.2.1-.3.2-.2.3s.7-.1.9-.2c2.1-.9,4.2-1.9,6.2-3,4.6-2.4,9.1-4.9,13.4-7.8,4.6-3.1,9.1-6.7,12.5-11.1,2.8-3.6,5-8.1,4-12.8-.2-1.1-.6-2.3-1.3-3.2-.9-1.1-2.1-2-3.2-2.8-2.2-1.5-4.7-2.7-7.2-3.8-.2,0-.3-.2-.5-.2-.2,0-1.3,0-1.2.4.3,1.1.5,2.2.6,3.4.3,2.2.3,4.6-.3,6.8-.3,1.3-1.1,2.2-2,3.2-1.1,1.3-2.5,2.4-3.8,3.6-3.2,2.7-6.6,5.3-9.6,8.2-3.2,2.9-6,6.1-7.5,10.2-.8,2-1.2,4.2-1.3,6.3,0,.9,0,1.8.2,2.7,0,.2,1.3,0,1.3-.3h-.1c0,.1,0,.2,0,.2Z"/>
  <path class="st32" d="M488.9,183c-1.6-1.8-3.3-3.6-5.1-5.3s-3.8-3-6.2-3.6c-.3,0-.7,0-.9.2-.2.2-.2.4.2.5,2.4.6,4.3,2,6.1,3.6,1.8,1.5,3.3,3.3,4.8,5,.3.4,1.5-.1,1.1-.6h0c0,.1,0,.1,0,.1Z"/>
  <path class="st32" d="M487.5,187.8c-1.3-1.9-2.9-3.6-4.7-5.1-1.8-1.5-3.8-2.9-6-3.5-.3-.1-.7,0-.9.2-.1,0-.4.3-.1.4,2.2.7,4.3,2,6,3.6,1.7,1.4,3.3,3.1,4.5,5,.2.3,1.4-.1,1.1-.4h0c0-.1,0-.1,0-.1Z"/>
  <path class="st32" d="M483.2,191.6c-.3-2-1.7-3.6-3.2-4.9-1.6-1.4-3.5-2.5-5.3-3.6-.2-.2-.6,0-.8,0,0,0-.6.3-.3.4,1.8,1,3.6,2.1,5.2,3.5,1.5,1.3,2.9,2.9,3.2,4.9,0,.3,1.3,0,1.3-.3h0Z"/>
  <path class="st32" d="M479.8,196.1c-1.1-4.2-4.6-7.3-8.5-8.7-.3-.1-.7,0-.9.1-.2,0-.4.3-.1.4,3.9,1.4,7.2,4.4,8.3,8.5.1.4,1.4,0,1.3-.3h0Z"/>
  <path class="st32" d="M475.8,199c-2.9-3.1-6.1-5.8-9.8-7.9-.4-.2-1.5.3-1,.7,3.5,2.1,6.8,4.8,9.6,7.8.3.3,1.5-.1,1.1-.5h0Z"/>
  <path class="st32" d="M470.2,201.7c-2.4-3-5.4-5.5-8.8-7.4-.3-.2-.7-.1-.9,0-.2.2-.3.5,0,.7,3.3,1.9,6.2,4.3,8.5,7.2.3.4,1.5,0,1.1-.6h0Z"/>
  <path class="st32" d="M466,204.8c-1.1-3.2-3.6-5.6-6.6-7.1-.3-.1-.7,0-.9.1-.2.1-.4.4-.1.6,2.9,1.4,5.3,3.8,6.4,6.9.2.5,1.4.1,1.3-.3h0Z"/>
  <path class="st32" d="M461.5,207.5c-2-1.8-4.2-3.4-6.5-4.8-.3-.2-.7,0-.9.1-.2.1-.3.4-.1.6,2.2,1.3,4.4,2.9,6.3,4.7.2.2.6.2.8,0,.2,0,.5-.4.3-.6h0Z"/>
  <path class="st32" d="M428.5,194.9c-2.1,1.3-2.8,4-3.3,6.2-.3,1.1-.5,2.2-.7,3.3-.2,1.3-.2,2.7-.5,4-.2.6,1.1.5,1.3-.1.3-1.2.3-2.4.5-3.6.1-1,.3-2.1.6-3.1.3-1.1.5-2.3,1-3.4.4-.9.9-2,1.8-2.6.7-.4,0-1.1-.5-.8h0c0,0,0,0,0,0Z"/>
  <path class="st32" d="M426.9,188.5c0,0,.1,0-.2.1-.3,0-.7.1-.9.2-.1,0,0-.1-.1,0,0,0-.1.2-.2.2-.2.3-.4.6-.7.9-.8,1-1.4,2.1-2,3.2-1.6,2.9-2.9,6.2-2.9,9.6s1.3,0,1.3-.3c0-3.4,1.3-6.7,3-9.6.6-1,1.3-2,2-3,.2-.3.4-.6.7-.9,0-.1.2-.2.3-.3h0c-.3-.3-.9,0-1.2.2-.2.2.2.2.3.2.3,0,.7-.1.8-.3h0q0-.1,0-.1Z"/>
  <path class="st32" d="M425.1,182.4c-1.7,1.1-2.9,3-4,4.6-1.1,1.8-2.2,3.6-3.2,5.5-.2.3-.3.6-.5.8,0,0-.1.2-.2.2,0,0,1.1,0,1.1-.2,0-.4-1.2-.2-1.3.2-.1.7,1.1.2,1.4-.2.4-.6.8-1.3,1.1-1.9,1.2-2.1,2.5-4.3,3.9-6.4.7-.9,1.4-1.9,2.4-2.5.2-.1.4-.3.1-.4-.2-.1-.7,0-.9.1h.1c0,.1,0,.1,0,.1Z"/>
  <path class="st32" d="M424,178.6c-1.8.6-3.3,1.5-4.7,2.8s-2.3,2.7-3.5,4.1c-.5.6.7.7,1,.3,1.1-1.3,2.1-2.7,3.2-3.9s2.5-2,4-2.5c.2,0,.6-.3.5-.6s-.5-.3-.7-.2h0q0,0,0,0Z"/>
  <path class="st3" d="M390.2,74.2c2.4-1.8,6.7-2.2,6.7-2.2,0,0,2.4-5.5,6.8-9,4.4-3.5,12-2.2,12-2.2,0,0,1.4-3.6,7-5.9,5.5-2.3,12.5,1,12.5,1,0,0,5.4-5.3,12.7-3.4,6.1,1.6,9,5.3,9,5.3,12.2-2.4,17.6,5.2,19.9,14.1,1.9.3,4.1.9,5.5,2.1,7.3,6.6,10.2,28.9,6.2,34.3l-5.8,2-4.7-18.1c-.2,1.9-.3,3.1-.3,3.1l-1.5,15.3-24.7-36.8s-50.2,6.3-55.6,8.3-8.2,14.5-8.2,14.5c-.4-4.8-3.1-17.9,2.6-22.2h0c0,0,0,0,0,0Z"/>
  <path d="M480.6,125.9c3.7,2.2,5.8,6.7,5.2,11-.3,2-1.1,3.8-1.6,5.8-.8,2.9-1.1,5.9-.8,8.9.3,2.7,1.6,5.9,4.3,6.2.6,0,1.1,0,1.8.2.5.2,1,.7.9,1.3-.1.5-.7.8-1.1.9-1.5.6-3,1.1-4.6,1.1s-3.3-.5-4.3-1.7c-.9-1-1.2-2.4-1.4-3.7-.5-3.7-.5-7.4.2-11,.7-3.8,2.1-7.8.8-11.4"/>
  <path d="M486.2,122.1c3.7,2.2,5.8,6.7,5.2,11-.3,2-1.1,3.8-1.6,5.8-.8,2.9-1.1,5.9-.8,8.9.3,2.7,1.6,5.9,4.3,6.2.6,0,1.1,0,1.8.2.5.2,1,.7.9,1.3-.1.5-.7.8-1.1.9-1.5.6-3,1.1-4.6,1.1s-3.3-.5-4.3-1.7c-.9-1-1.2-2.4-1.4-3.7-.5-3.7-.5-7.4.2-11,.7-3.8,2.1-7.8.8-11.4"/>
  <path d="M487.4,114.6c3.7,2.2,5.8,6.7,5.2,11-.3,2-1.1,3.8-1.6,5.8-.8,2.9-1.1,5.9-.8,8.9.3,2.7,1.6,5.9,4.3,6.2.6,0,1.1,0,1.8.2.5.2,1,.7.9,1.3-.1.5-.7.8-1.1.9-1.5.6-3,1.1-4.6,1.1s-3.3-.5-4.3-1.7c-.9-1-1.2-2.4-1.4-3.7-.5-3.7-1.5-9.6-.8-13.3.7-3.8-3.7-8.7-5-12.3"/>
  <path class="st31" d="M464,162.7s3.6,19.3-27.6,25.3l-10.6,2.3-1.4-5.3,39.5-22.3h0Z"/>
  <path class="st18" d="M483.5,114.2l-.5-.6c-2.7-1.6-7.3-1.9-8.8,1.6-.4,1.5-1.1,3.3-1.6,4.8-.4,1.7-.8,5.2-1.7,6.7,0,0,2.2-16.1,1.8-20-.4-3.9-2.1-13.3-9.8-17.6,0,0-3.7-2.6-7.5-5.5-1.8-.7-3.6-1.3-5.5-1.8-6.3-1.6-12.8-2.3-19.2-2.3s-12.6.5-18.7,1.6c-8.6,1.6-17.3,4.9-23.2,11.3-.9,3.1-2.2,8.4-3.2,16-1.3,10.3,3.2,25,3.9,28.2.7,2.7.1,6.6.2,9.5.8,16.1,11.2,24.6,24.8,40.3,4,4.6,17.9.4,22.7-.8,20.5-5.2,23.4-14.2,26.9-23.1l8.4-12.7.7-3.6c3.1,6,11,.5,10.4-8.2,5-8.6,4.2-20.1,0-24.1h0,0Z"/>
  <path class="st18" d="M410.7,92.8c9.1.9,17.3,4.7,25,9.4,3.8,2.2,7.5,4.7,11.2,7,3.1,2,5.9,4.3,8.8,6.6,2.9,2.2,5.9,4.6,9.4,5.7,3.1,1,6.1.4,9-.9,2.5-1.2,4.8-2.6,7.1-4.1.1-1.7,1.7-29.7-10.6-43-12.7-13.8-34.1-13.6-49.1-9-15.1,4.6-24.9,8.8-29.8,22.1-.9,2.4-1.6,5.2-2.2,8.2,7-1.4,13.9-2.7,21-2,0,0,0,0,0,0Z"/>
  <path d="M454.1,90.7c-.2,1-.4,2-.2,3,.2,1,.9,2,1.9,2.1.5.1,1,0,1.5.2,1.5.7,0,3.4,1,4.7.8,1,2.5.5,3.6,1.3,1.7,1.3,0,4.9,2,5.8,1.1.5,2.7-.5,3.5.4.4.4.4,1,.4,1.6,0,1.6.4,3.4,1.9,3.9s3.5-.7,4.4.6c.5.6.4,1.5.8,2.1.5.8,1.8.8,2.7.4s2.1-2.5,3.1-2.7c2-.5,3.7,2.3,5.5,1.4,1.3-.6,1.9-2.4,1.2-3.6-.7-1.3-2.4-1.9-3.6-1.3-.5.2-.9.6-1.5.7-1.8.3-2.6-2.6-4.4-3-.4,0-.9,0-1.4-.2-1-.4-.8-2-1.6-2.6-.9-.7-2.4.2-3.4-.4-1.4-.9,0-3.4-1.1-4.5-.9-.9-2.7-.2-3.7-1.2-1-1,0-3.2-1.1-4.1-1.3-1.2-4.3.6-4.8-1.1,0-.3,0-.6-.1-.8-.3-.9-1.5-1-2.4-1.1-1.6-.2-3.1-1-4.1-2.2"/>
  <path d="M453.7,90.7c-.4,1.8-.7,4.8,1.8,5.3.5.1,1.1,0,1.6.2.4.2.5.6.5.9.1.8-.1,1.6,0,2.5,0,.8.4,1.4,1.1,1.7.8.3,1.8.2,2.6.6,1.4.8,1,3,1.2,4.3.1.6.3,1.2.9,1.5.7.4,1.6.3,2.4.2.5,0,1.1,0,1.4.6.2.5.2,1,.2,1.6,0,.9.2,1.8.5,2.5.4.7,1,1.2,1.8,1.3.9.2,1.8-.1,2.7-.1s.9.1,1.3.5c.3.4.3,1,.5,1.5.3.8.9,1.3,1.7,1.3.8,0,1.6-.1,2.2-.6.7-.5,1.1-1.2,1.7-1.8.3-.3.5-.6.9-.7.4-.1,1,.1,1.4.3.8.3,1.4.9,2.2,1.2,1.5.6,3-.3,3.5-1.8.6-1.8-.6-3.4-2.4-3.7-.8-.1-1.6,0-2.3.5-.5.3-1,.6-1.5.3-.4-.2-.7-.5-.9-.8-.5-.6-1-1.2-1.6-1.6-.3-.2-.5-.3-.8-.4-.5-.1-1.1,0-1.6-.3-.7-.4-.7-1.5-1.1-2.1-.4-.7-1.2-.8-2-.7-.5,0-1,.2-1.5,0s-.7-.6-.8-1.1c-.2-.8,0-1.6-.1-2.5s-.7-1.3-1.4-1.5c-.8-.2-1.9,0-2.6-.6-1.4-1.1.2-3.6-1.6-4.4-.6-.3-1.4-.3-2-.2-.6,0-1.6.3-2.1-.2-.3-.4-.2-.9-.3-1.3-.2-.3-.5-.6-.8-.7-.9-.4-1.8-.3-2.7-.6-1.1-.3-2.1-1-2.9-1.9-.2-.2-.9,0-.7.3.7.8,1.5,1.4,2.5,1.8.9.4,1.8.4,2.7.6.5.1,1,.3,1.2.7.2.4,0,.8.3,1.2.3.5.9.6,1.4.7.8,0,1.5-.2,2.2-.1,1,0,1.4.7,1.5,1.6,0,.8,0,1.7.3,2.5.3.7,1,.9,1.8,1,.9.1,2,0,2.5,1,.3.7.2,1.6.2,2.4s.1,1.4.7,1.8c.7.4,1.6.2,2.4.2,1.2,0,1.4.8,1.8,1.8.3.7.6,1.2,1.4,1.3.5,0,1,0,1.4.3.3.2.6.4.9.7.5.6.9,1.2,1.5,1.6.5.4,1,.6,1.6.5,1-.2,1.8-1,2.9-.9,2.1.3,2.9,3.1,1.3,4.4-1.4,1.2-3.2-.9-4.5-1.2-1.6-.4-2.5.8-3.5,1.9-.7.7-1.4,1.3-2.4,1-1.2-.3-.9-1.6-1.5-2.5-.9-1.6-3.1-.4-4.5-.8-.9-.2-1.4-1.1-1.6-2s-.1-1.8-.3-2.7c-.1-.8-.7-1.3-1.5-1.4-.9,0-1.9.4-2.7-.1-1.2-.8-.8-2.8-.9-4.1-.1-.6-.3-1.2-.9-1.6-.7-.6-1.6-.5-2.4-.7-2.1-.4-1.3-2.6-1.4-4.1-.1-.7-.5-1.2-1.2-1.3-.5-.1-1.1,0-1.6-.2s-.9-.7-1.1-1.2c-.5-1.2-.2-2.5,0-3.7,0-.3-.7-.2-.7.1h0Z"/>
  <path d="M455.8,83.6c-.7,1-.6,2.4.2,3.2.7.9,2.1,1.3,3.2.8-.2,1.5,1,3,2.5,3.2.7,0,1.3-.1,1.9.2,1.4.7.9,3.3,2.4,3.9.5.3,1.2.1,1.8.4,1.1.6,1,2.2,1.9,3.1,1.1,1,3.2.3,4.2,1.3.7.8.7,2.2,1.8,2.5.5.2,1.1,0,1.6.2.5.3.5,1.2.7,1.8.3,1.6,2.5,2.5,3.9,1.6.3,1.1,1,2,2,2.6.4-1.2.9-2.4.9-3.7,0-1.3-.8-2.6-2-3-.5-.2-1-.2-1.4-.4-1.1-.7-.9-2.5-2-3.1-.8-.4-1.8,0-2.4-.6-.3-.3-.4-.7-.5-1.1-.5-1.4-2.2-2.1-3.5-1.6-.4.1-.8.3-1.1.3-1.1-.2-.6-2.1-1.3-3.1s-2.4-.6-3-1.5c-.2-.3-.2-.7-.4-1.1-.3-.6-.8-.9-1.4-1.2-2.8-1.4-5.6-2.7-8.5-4"/>
  <path d="M455.5,83.5c-.7,1.2-.6,2.7.3,3.6.9.9,2.2,1.1,3.3.7l-.4-.2c-.1,1.2.4,2.3,1.5,3,.4.3,1,.4,1.5.4.8,0,1.5-.1,2.1.6.6.8.6,1.8,1,2.6.2.4.5.7.9.9.7.3,1.5.1,2,.6.8.7.7,2,1.5,2.8s2,.7,3,.8c.6.1,1.1.3,1.5.9.3.5.4,1,.7,1.5.2.4.6.7,1,.8.7.2,1.5-.2,1.8.8.2.6.1,1.2.4,1.7.3.5.7.9,1.2,1.2,1,.5,2.1.4,3.1-.1h-.6c.3,1.1,1,2,2,2.6.2.1.5,0,.6-.2.5-1.5,1.2-3.1.8-4.7-.3-1.2-1.2-2.1-2.5-2.4-.8-.2-1.3-.4-1.6-1.1-.2-.5-.3-1-.7-1.5-.3-.4-.6-.7-1.1-.9-.7-.2-1.6.1-2.1-.5-.4-.6-.4-1.3-.9-1.8-.4-.4-.9-.8-1.5-.9-.5-.2-1-.2-1.6,0-.3,0-.6.2-.9.3-.5.1-.8-.2-.9-.6-.3-1-.1-2.1-1.1-2.7-.4-.3-1-.3-1.5-.5-.3-.1-.7-.2-.9-.4-.3-.3-.3-.7-.5-1-.3-.7-.9-1.1-1.5-1.4-.9-.5-1.9-.9-2.8-1.4-1.9-.9-3.8-1.8-5.8-2.6-.3-.1-.8.3-.4.4,1.8.8,3.5,1.5,5.2,2.4.7.3,1.4.7,2.2,1,.7.3,1.7.7,2.2,1.3.4.6.3,1.3.9,1.7.4.3.9.4,1.3.6.5.2,1.1.3,1.5.8.3.5.3,1.1.4,1.6.2,1,.7,1.7,1.8,1.4.7-.2,1.3-.4,2-.2.7.2,1.3.7,1.6,1.4.2.5.3,1.1.8,1.5.5.3,1.1.3,1.6.3,1.5.1,1.4,1.6,2.1,2.6.3.6.8.8,1.4.9.9.2,1.5.4,2,1.2,1.1,1.7.4,3.7-.3,5.4l.6-.2c-.9-.6-1.6-1.4-1.9-2.5,0-.3-.4-.2-.6,0-1,.6-2.4.1-3-.8-.5-.8-.2-2-.9-2.6-.4-.4-1-.2-1.5-.3-.7,0-.9-.6-1.1-1.2-.4-.9-.8-1.6-1.7-1.9-1-.3-2.3,0-3.1-.7-.8-.7-.8-1.8-1.4-2.6-.3-.4-.6-.6-1-.7-.6-.2-1.3,0-1.8-.6-.6-.7-.7-1.8-1-2.6-.5-1.2-1.4-1.3-2.6-1.3s-2.9-1.4-2.6-3c0-.2-.3-.3-.4-.2-2.4.8-4.1-1.9-2.9-3.8.2-.3-.5-.3-.7,0h0c0,.1,0,0,0,0Z"/>
  <path d="M457.4,80c0,1.8,1.7,3.4,3.5,3.3.3,0,.7-.1,1,0,.7.2.9,1.2,1.3,1.8.9,1.4,2.9,1.6,4.5,1.3,1-.2,2.4-.4,3,.5.2.4.2.8.5,1.2.7.9,2.5,0,3.1,1,.2.4,0,1,.3,1.5.5,1,2.1.3,3,.9.4.3.7.7.9,1.2.7,1.4,1.4,2.8,2,4.2.2.3.4.7.8.8.7.1.9-.8,1-1.4.2-3.6-.6-7.3-2.2-10.5-.4-.8-1.1-1.7-2-1.5-.3,0-.5.3-.9.2-.5-.1-.5-.8-.6-1.2-.2-2-2.6-3.4-4.5-2.6-.5.2-1,.6-1.5.3-.3-.2-.4-.6-.7-.8-.5-.8-1.6-.8-2.6-.6-.9.2-1.8.6-2.7.4-1.1-.2-2.1-1.2-3.3-1.2-1.4,0-2.6,1.6-3.9,1.1"/>
  <path d="M457,80c0,1.2.6,2.2,1.5,2.8.4.3.9.6,1.5.7.7.1,1.6-.2,2.1.3.4.4.5,1,.8,1.5.3.4.7.8,1.1,1,1,.6,2.2.6,3.3.4.6-.1,1.2-.2,1.8-.2.9,0,1.1.4,1.4,1.2.4,1,1.3,1,2.3,1.1.8,0,1.1.3,1.1,1.2,0,.5.1.9.5,1.3.9.6,2.3,0,3.1.8.5.6.8,1.4,1,2,.4.8.8,1.5,1.1,2.3s1.1,2.2,2.1,1.3c.9-.7.7-2.5.6-3.4,0-1.5-.3-3.1-.7-4.6s-.9-2.9-1.6-4.2c-.5-.9-1.4-1.8-2.5-1.4-.5.2-.7.1-.8-.4,0-.3,0-.5-.1-.8-.1-.5-.3-1-.7-1.4-.7-.8-1.6-1.3-2.6-1.4-.5,0-1.1,0-1.6.3-.2,0-.5.3-.7.3-.4,0-.7-.2-.8-.5s-.3-.5-.6-.7c-1.3-.9-2.8-.2-4.1,0-.9.2-1.6-.2-2.5-.6-.6-.3-1.2-.6-1.9-.6-.6,0-1.2.3-1.8.6-.6.3-1.3.8-2,.6-.3-.1-.8.4-.4.5,1,.3,1.9-.2,2.7-.6.5-.3,1-.6,1.6-.5.7,0,1.2.5,1.8.7,1.3.7,2.5.3,3.8,0,.6-.1,1.3-.2,1.9,0,.6.3.7,1,1.3,1.3.4.3.9.2,1.4,0,.6-.2,1.1-.5,1.8-.4,1.1.1,2.2.9,2.6,1.9.3.7,0,2.1,1.1,2.2.6,0,1-.4,1.6,0,.5.4.9,1.2,1.1,1.8,1.3,2.7,1.9,5.7,1.9,8.7s0,1.3-.2,1.8c-.4,1-1-.6-1.2-.9-.3-.7-.7-1.4-1-2.1s-.6-1.5-1-2.1c-.6-.9-1.5-.8-2.5-.9-.7,0-1.1-.2-1.1-1s0-.9-.4-1.3c-.7-.6-1.8-.2-2.5-.5-.5-.2-.5-.9-.8-1.4-.2-.4-.7-.7-1.1-.7-1.1-.3-2.4.3-3.5.3s-1.4-.1-2-.4-.9-.9-1.1-1.5c-.2-.4-.4-.9-.9-1.2-.6-.3-1.3,0-2-.2-1.4-.3-2.5-1.6-2.6-3.1,0-.4-.7-.3-.7,0h0v.2c-.1,0-.1,0-.1,0Z"/>
  <path d="M459.6,77.5c2.4.6,4.2-3.1,6.6-2.5,1.1.3,2.1,1.6,3.2,1.2.5-.2.9-.7,1.4-.8,1.1-.1,1.3,1.7,2.1,2.4,1.1.9,2.9-.2,4,.6.3.2.5.6.8.9.5.5,1.4.6,2.1.7s1.5.6,1.6,1.4c1-2.8-.3-6.2-2.9-7.7-.3-.2-.6-.3-.8-.6-.2-.2-.3-.6-.4-.8-.5-1.5-2-2.6-3.5-2.8-.5,0-1.1,0-1.6-.4-.6-.4-.7-1.4-1.1-2-.9-1.5-3.3-1.2-4.9-2.1-.7-.4-1.1-.9-1.8-1.4s-1.5-.7-2.3-.7-1.4.2-1.6.8c-.2.4,0,.9-.1,1.3-.2,1.1-1.4,1.6-2.5,1.9-1.1.3-2.4.6-2.8,1.6-.6,1.5,1,2.9,1.1,4.5,0,.7-.2,1.4-.1,2.1.1.6.5,1.2.8,1.7.7.9,1.3,1.8,2,2.7"/>
  <path d="M459.5,77.7c1.5.3,2.7-.7,3.8-1.5.6-.4,1.3-1,2-1,.9-.1,1.6.7,2.4,1,.7.3,1.4.4,2.1,0,.3-.2.7-.7,1.1-.5.3.2.5.6.6.8.3.6.6,1.3,1.3,1.6.8.4,1.6.2,2.5.1.7,0,1.1.1,1.6.7.3.4.7.7,1.1.9.9.4,2.6.3,2.9,1.5,0,.3.7.2.8,0,.5-1.5.5-3.2-.1-4.7-.3-.7-.7-1.4-1.2-2-.6-.7-1.3-1-2-1.5-.8-.5-.9-1.6-1.5-2.3-.5-.7-1.2-1.2-2-1.5-.4-.2-.8-.2-1.1-.3-.5,0-1.1,0-1.5-.5-.5-.6-.5-1.5-1.1-2.2-1-1.1-2.8-1-4.2-1.6-1-.4-1.6-1.2-2.5-1.7-.7-.4-1.6-.7-2.5-.7s-1.5.2-1.9.9c-.2.4-.2.8-.2,1.2,0,.6-.2.9-.6,1.3-1.3,1-3.2.6-4.4,1.9-1.4,1.6.6,3.4.7,5.2,0,.6-.2,1.2-.1,1.9,0,.6.3,1,.5,1.5.7,1.1,1.5,2.2,2.3,3.2.2.3.9,0,.7-.3l-1.9-2.6c-.3-.4-.5-.8-.8-1.2-.2-.6-.1-1.1,0-1.7.1-.9,0-1.6-.4-2.4-.3-.7-.8-1.4-.8-2.2,0-1.8,2.5-1.8,3.7-2.2.6-.2,1.1-.6,1.5-1.2.4-.7,0-1.9.8-2.3.8-.4,2.1.1,2.9.6.7.5,1.3,1.1,2,1.4,1.3.6,3,.5,4.1,1.4.6.5.7,1.3,1.1,2,.3.7.9.9,1.6,1,.9.1,1.7.3,2.5.9.7.6,1.2,1.2,1.5,2,.2.4.3.7.7,1,.3.3.8.4,1.1.7.7.5,1.3,1.2,1.7,1.9.9,1.5,1.1,3.4.5,5.2h.8c-.2-1-1.1-1.4-1.9-1.6-.5-.1-1-.2-1.5-.4s-.7-.8-1.1-1.1c-.7-.5-1.6-.4-2.4-.3-.5,0-1,.1-1.4-.2-.4-.2-.6-.7-.8-1-.3-.6-.5-1.3-1.3-1.5-.3-.1-.6,0-.9,0-.4.2-.8.7-1.3.8s-1-.3-1.4-.6-.8-.5-1.2-.7c-.7-.2-1.4-.1-2,.2-1.5.6-3,2.7-4.7,2.3-.4,0-.8.4-.3.6h0v-.2s0,0,0,0Z"/>
  <path d="M453.2,78.6c-1.4-.4-2.2-2.1-1.6-3.4.2-.4.5-.9.3-1.4-.1-.2-.3-.3-.5-.4-1.1-.7-1.4-2.5-.5-3.5.2-.2.4-.4.5-.7.4-1.1-1.4-2.2-.7-3.2.5-.8,1.9,0,2.7-.7.8-.6.4-1.9,1.1-2.5,1-.9,3.3.5,3.8-.8.3-.7-.4-1.4-1.1-1.5s-1.5,0-2.2,0c-1.9,0-3.4-1.6-5.2-2.2-1.9-.7-3.9-.4-5.9,0-.8.1-1.7.3-2.4.7-1.1.7-1.7,2.1-1.4,3.4,0,.2.2.5,0,.8,0,.1-.2.2-.3.3-.7.4-1.3.8-1.9,1.1-.2.2-.5.3-.6.6-.2.6.7,1,1.4.9s1.4-.2,1.8.3c.7,1-1.3,2.2-.8,3.3.4,1.2,2.6.4,3.2,1.5.3.7-.2,1.5,0,2.2.2.7,1,1,1.8,1.2s1.6,0,2.2.5c.5.3.8.9,1.1,1.3,1.1,1.4,3,1.9,4.7,2.3"/>
  <path d="M453.5,78.4c-1.3-.4-2.1-1.9-1.6-3.2.2-.5.7-1,.3-1.6-.2-.3-.5-.4-.7-.6-.3-.2-.4-.6-.6-.9-.2-.6-.2-1.2,0-1.8s.9-.9.9-1.6-1.6-2.6-.5-3c.5-.2,1.1,0,1.6,0s.9-.3,1.2-.8.3-1,.4-1.5c.3-.8,1-.8,1.7-.7.8,0,1.9.2,2.4-.5.8-1.1-.7-2-1.6-2s-1.6.2-2.5,0-1.5-.6-2.2-1c-1.4-.8-2.6-1.4-4.3-1.5-1.6-.1-3.3.2-4.9.5-1.3.3-2.5.9-3.1,2.1-.3.5-.4,1.2-.3,1.8,0,.4.3.8-.1,1.2-.1.2-.4.3-.7.4-.3.2-.5.3-.8.5-.4.3-1.1.6-1.1,1.2,0,.5.5.8.9.9.6.2,1.2-.1,1.8,0,.9.2.7,1,.4,1.5-.4.7-1.3,1.8-.4,2.5.8.7,2.4.1,3,1.1.4.7-.2,1.6.1,2.4.2.6.9.9,1.4,1,.8.2,1.8,0,2.5.4s1.1,1.4,1.8,1.9c1.1,1,2.7,1.4,4.3,1.8.2,0,.8-.3.4-.4-1.4-.4-2.9-.8-4-1.8-.5-.4-.8-1-1.3-1.5s-1-.7-1.7-.8-1.3,0-1.9-.3c-.8-.4-.9-1-.8-1.9.2-1.2-.4-1.7-1.5-1.9-.4,0-1,0-1.4-.3-.5-.3-.5-.9-.3-1.4.3-.7,1.3-1.6.8-2.4-.7-1-2.6.2-3.1-.9s2.9-1.5,2.9-2.8c0-.3-.2-.6-.2-.9s0-.7.1-1c.2-.8.8-1.5,1.5-1.9.8-.4,1.6-.4,2.5-.5s1.8-.2,2.6-.2c1.8,0,3.1.7,4.6,1.6,1.2.7,2.4,1.2,3.8,1,.8,0,1.9-.2,2.3.7.2.3.2.7,0,.9s-.5.2-.8.2c-.9,0-1.9-.3-2.7.3-.3.2-.5.6-.7,1-.2.7-.2,1.7-1,1.7-.8,0-2-.2-2.5.7-.5,1,1,2,.8,3-.1.3-.4.6-.6.9-.2.2-.3.5-.3.8-.2.6,0,1.2.2,1.8.1.3.3.5.4.7.2.2.5.3.8.6.5.6-.3,1.5-.4,2.1-.1,1.3.7,2.5,1.9,2.8.2,0,.9-.2.6-.3h-.1c0,0,0,0,0,0Z"/>
  <path d="M452.7,82.1c-.5-1.8-3.1-1.3-4.7-2-1.3-.6-2-2-3.3-2.4-1-.2-2.1.1-2.9-.6-.4-.4-.5-1-.8-1.5-1.1-1.9-4.7-.9-5.8-2.8-1-1.7.9-4.4-.5-5.7-.4-.4-1.1-.6-1.5-1-.8-.9.1-2.4.9-3.2,1.2-1.3,2.4-2.5,3.6-3.8-3.4-1-7.1-1-10.5,0-1.3.4-2.5.9-3.3,1.9-.8,1-1,2.6-.1,3.6.3.3.6.5.8.8.9,1.4-1,3.8.4,4.8.3.2.8.3,1,.5.9.7.3,2.3,1.1,3.1.7.7,1.9.3,2.8.7.5.3.9.8,1.3,1.2.6.6,1.4.9,2.2,1.2,2.2.9,4.4,1.7,6.6,2.6,1.5.6,3.2,1.2,4.8.8,1.6,2.7,5.5,3.7,8.2,2.1"/>
  <path d="M453.1,82c-.3-.9-1.1-1.3-2.1-1.5-1.1-.2-2.4-.3-3.3-1-1-.7-1.7-1.8-3-2.1-.5-.1-1.1,0-1.7-.1-1-.1-1.1-.8-1.5-1.6-1-2-3.6-1.4-5.2-2.4-2.2-1.4.3-4.4-1-6.2-.4-.6-1.3-.7-1.8-1.3-.6-.7-.1-1.6.3-2.3.5-.8,1.3-1.4,1.9-2.1.7-.8,1.5-1.6,2.2-2.4.1-.1,0-.3-.1-.3-3.6-1.1-7.6-1.1-11.2,0-1.4.4-2.9,1.2-3.6,2.6-.3.7-.4,1.4-.2,2,.2.8.8,1.1,1.3,1.7.8,1-.1,2.5,0,3.7,0,.5.2.9.6,1.2.3.2.8.3,1.1.6.3.3.3.6.4.9.1.6.1,1.3.4,1.8.3.6,1,.7,1.6.8.4,0,.8,0,1.1.1.4.1.8.4,1.1.8.5.6,1.1,1,1.9,1.4,2.1.9,4.3,1.6,6.4,2.5,2,.8,4,1.7,6.1,1.2h-.4c1.8,2.8,5.8,3.7,8.7,2.1.4-.2,0-.6-.3-.4-2.6,1.5-6.2.4-7.7-2.1,0-.1-.3-.1-.4,0-1.9.4-3.8-.5-5.5-1.2-1.8-.7-3.5-1.4-5.2-2-.8-.3-1.6-.6-2.2-1-.6-.4-1-1.1-1.6-1.5-.5-.3-1.1-.3-1.7-.3-.9,0-1.3-.5-1.5-1.4-.1-.6,0-1.1-.3-1.6-.3-.7-.9-.7-1.5-1-.9-.7-.2-2.2-.1-3.1,0-.5,0-1-.2-1.4-.3-.6-1-.9-1.3-1.5-.7-1.6.4-3.2,1.8-3.9,1.7-.9,3.8-1.3,5.8-1.4,2.1-.1,4.2.2,6.2.8v-.3c-1.4,1.4-2.7,2.7-3.9,4-.7.8-1.5,2.2-.7,3.2.4.6,1.1.7,1.6,1.2.4.4.5,1.1.4,1.7-.1,1.1-.5,2.3-.2,3.4.7,2.2,3.6,1.6,5.3,2.6,1,.6.9,2.1,2,2.6.5.2,1.2.2,1.8.2.7,0,1.3.3,1.9.8s1.1,1,1.8,1.5c.5.3,1.1.4,1.6.6,1.1.2,2.9.2,3.3,1.5.1.3.8.1.7-.2h0v.2s0,0,0,0Z"/>
  <path d="M450.1,85.7c-1.8,1.8-4.8,2-6.7.6-.7-.5-1.2-1.1-1.9-1.5-2.1-1.2-4.9-.1-6.9-1.4-1.1-.7-1.7-2-2.8-2.7-2.1-1.5-5.4-.5-7.4-2.1-.5-.4-.9-1-1.5-1.3-.9-.5-2.1-.2-3.1-.6-1.3-.5-1.9-2.1-3.2-2.6-.8-.3-1.7,0-2.4-.6-1.2-.8-.8-3-2-3.7-.5-.3-1.1-.2-1.6-.5-1.2-.7-.8-2.5,0-3.6,1.1-1.4,2.6-2.2,4.2-3.1.3-.2.7-.4,1-.6,1.8-1,4-2,5.8-.9.3.2.7.5.6,1,0,.2-.2.4-.4.5-1.1,1-2.2,2.1-3.3,3.2,1.3.1,1.8,1.6,1.8,2.9,0,1.3.2,2.8,1.3,3.3.5.3,1.3.3,1.7.8.3.4.2.9.4,1.4.5,1.4,2.5,1,3.9,1.5,1,.3,1.8,1,2.6,1.6,1,.7,2.1,1.2,3.1,1.6,1,.4,2,.9,2.9,1.3,2.7,1.2,5.4,2.5,8.3,3.5,2,.8,3.9,1.4,6,2"/>
  <path d="M449.9,85.7c-1.6,1.6-4.3,1.8-6.2.4-.9-.7-1.6-1.5-2.7-1.9-1-.3-2-.3-3.1-.4-1.2,0-2.4-.2-3.4-.9-.9-.7-1.4-1.7-2.3-2.4-1.6-1.3-3.7-1-5.6-1.4-.5-.1-1-.3-1.5-.5-.5-.3-.9-.8-1.4-1.2-.9-.8-1.8-.7-2.9-.8-1.2-.1-1.9-.9-2.7-1.8-.7-.7-1.4-1-2.3-1.2-.6,0-1.3,0-1.7-.6-.3-.3-.4-.8-.6-1.2-.2-.7-.3-1.6-1-2.1-.7-.7-2-.3-2.5-1.3-.3-.8,0-1.9.5-2.6.8-1.2,2.1-1.9,3.3-2.6,1.3-.7,2.6-1.5,4-2,.7-.2,1.4-.4,2.1-.3.6.1,2,.7,1.4,1.5-.5.6-1.1,1.1-1.7,1.6-.6.6-1.1,1.1-1.8,1.7-.2.2,0,.3.2.3,1.2.2,1.5,1.8,1.6,2.8s.1,2.1.7,2.9c.3.4.8.6,1.2.7.3,0,.6.1.8.3.4.2.4.6.5,1,.2,1,.8,1.5,1.8,1.7,1.1.3,2.2.2,3.3.8.5.3,1,.8,1.6,1.2.6.4,1.3.8,1.9,1.1,2.9,1.4,5.8,2.6,8.7,3.9,3.2,1.4,6.5,2.6,9.9,3.5.3,0,.9-.3.4-.4-6.2-1.8-12.1-4.4-17.9-7.1-.7-.3-1.3-.7-2-1-.6-.4-1.1-.8-1.7-1.2-1-.7-2-.8-3.1-1-.5,0-1-.2-1.4-.4-.6-.4-.6-1-.8-1.6-.4-1.2-1.9-.8-2.5-1.7-1.3-1.6.1-5.5-2.7-5.8l.2.3c1.1-1.1,2.4-2.1,3.5-3.3.8-.9-.2-1.6-1-1.9-2.5-.8-5.2,1-7.2,2.2-1.9,1-4.4,2.5-4.5,4.9,0,.9.4,1.6,1.4,1.9.6.2,1.1.2,1.5.7.3.4.4.9.5,1.4.2.9.5,1.8,1.4,2.1.5.2,1.1.2,1.6.3.7.1,1.2.5,1.7,1,.8.8,1.4,1.6,2.6,1.9.5.1,1.1,0,1.7.2.9.1,1.4.7,2,1.2,1.8,1.7,4.3,1.2,6.5,1.8,1.3.4,2,1.3,2.9,2.3.8.9,1.8,1.5,3,1.7,1.4.2,2.8,0,4.2.4,1.5.4,2.3,1.7,3.6,2.4,2.1,1,4.9.6,6.6-1.1.3-.3-.4-.3-.6-.2h0Z"/>
  <path d="M422.8,81.5c.5-.8-.3-1.9-1.2-2.1s-1.9-.1-2.8-.4c-1.1-.4-1.8-1.6-2.9-2.3-1.1-.7-2.5-.7-3.8-1-1.3-.3-2.6-1.2-2.6-2.5s.4-1.5-.2-2c-.5-.4-1.5,0-2-.5-.5-.6.1-1.6-.2-2.3-.2-.5-.8-.7-1.3-.7-1.9,0-3.2,1.7-4.2,3.2-1.2,1.8-2.4,3.6-3.6,5.4-.1.1-.2.3-.2.4-.2.7.5,1.3,1.2,1.2.7,0,1.3-.4,1.9-.8.6-.3,1.3-.6,1.9-.3.6.3.9,1,1.4,1.5,1.3,1.1,3.2,0,4.9.4,1,.3,1.8,1.2,2.7,1.4,1,.3,2.1-.2,3.1-.1,1.5,0,2.7,1,4,1.7,1.3.7,3,1.2,4.2.2"/>
  <path d="M423.1,81.5c.5-.8,0-1.6-.8-2.1-1.1-.7-2.6-.2-3.7-.9-1-.6-1.5-1.6-2.5-2.2-1-.6-2.3-.7-3.5-.9-1-.2-2.3-.8-2.7-1.9-.3-.8.4-2-.3-2.7-.3-.2-.7-.3-1.1-.3s-.6,0-.8-.1c-.3-.2-.3-.6-.2-.9.1-.9.2-1.8-.8-2.1-1.9-.7-3.7,1-4.8,2.4-.8,1.1-1.5,2.2-2.3,3.4-.4.6-.8,1.3-1.3,1.9-.3.4-.9,1.1-.9,1.6,0,.9,1,1.4,1.8,1.3,1.1-.2,2.7-1.9,3.7-.8.4.4.6.9,1,1.2.3.3.8.5,1.2.6,1.1.2,2.1-.2,3.2-.2,1.4.1,2.2,1.4,3.6,1.6.7.1,1.4,0,2.1-.1.9-.1,1.6,0,2.5.4,2.1,1,4.5,3.1,6.9,1.4.4-.3-.2-.4-.4-.3-2,1.4-4.5-1-6.4-1.7-1-.4-2-.3-3.2-.2-.7,0-1.3,0-1.9-.3-.5-.2-.9-.6-1.4-.9-.8-.4-1.7-.5-2.6-.4-1,.1-2.2.4-3.1-.4-.6-.6-.9-1.5-1.8-1.6s-1.8.4-2.6.9c-.6.3-1.5.4-1.8-.3-.2-.6.7-1.4.9-1.9.7-1.1,1.5-2.2,2.2-3.3.6-.9,1.2-1.9,2-2.7.7-.7,1.8-1.5,2.9-1.2,1.1.4.3,1.6.5,2.4.2.8,1.1.7,1.8.8,1.3.1.5,1.6.7,2.4s.8,1.4,1.5,1.8c1,.6,2.1.6,3.2.9.7.1,1.3.3,1.8.7.5.3.9.8,1.3,1.2.8.8,1.6,1.2,2.7,1.3.7,0,1.4,0,2,.4.5.3,1,1,.6,1.6-.2.3.5.3.7,0h0c0,0,0,0,0,0Z"/>
  <path d="M409,81.1c-1.1-1.1-3.1.1-4.6-.3-.9-.3-1.6-1.2-2.6-1.2-1.1,0-2.1,1.4-3.2,1-.7-.3-1-1.2-1.8-1.4-.7-.2-1.4.4-1.8.9-1.6,1.8-2.9,3.9-3.8,6.2-.1.3-.2.6-.2.8.1.6.9.8,1.5.6s.9-.9,1.1-1.4c.3-.6.5-1.2,1-1.5,1.5-1.1,3.7.6,5.3-.4.5-.3.8-.8,1.3-1,1.1-.5,2.6.8,3.7.3.4-.2.7-.6,1-.9.6-.5,1.4-.8,2.1-.7.4,0,.7.2,1.1.1s.7-.5.5-.8"/>
  <path d="M409.4,81c-1.3-1-2.9-.2-4.3-.3-.9-.1-1.5-.8-2.4-1.2-.7-.2-1.3-.2-1.9.2-.7.3-1.5,1.2-2.4.6-.5-.4-.9-1.1-1.6-1.3-1.6-.3-2.9,1.7-3.6,2.8-.6.8-1.1,1.7-1.6,2.6-.2.4-.4.9-.7,1.4-.2.4-.4.8-.4,1.3,0,.6.5,1,1,1,.7.1,1.3-.2,1.7-.7.5-.6.7-1.4,1.1-2.1.7-.9,1.6-.7,2.6-.5.7.1,1.4.2,2.1.1.8-.2,1.2-.6,1.8-1.1.9-.7,1.9,0,2.9.2.7.1,1.4-.1,1.9-.6.4-.4.8-.8,1.3-1,.7-.2,1.2,0,1.8,0s1.5-.4,1.2-1.2c-.1-.3-.8,0-.7.2.3.7-.9.4-1.3.3-.3,0-.7,0-.9,0-.7.2-1.2.5-1.7,1-.3.3-.5.6-.9.7-.3,0-.8-.1-1.1-.2-.5-.2-1.1-.4-1.8-.3-.5,0-1,.3-1.4.7-.3.3-.6.6-1,.7-.4.1-.8,0-1.2,0-1.1-.2-2.4-.5-3.4,0-.5.3-.9.8-1.1,1.3-.3.6-.8,2-1.6,1.8-1-.3-.2-1.6,0-2.2.4-.8.8-1.6,1.3-2.4.4-.7.9-1.4,1.4-2,.5-.7,1.5-2.1,2.5-1.2.4.4.7.9,1.2,1,.5.2,1,.1,1.4-.1.7-.3,1.4-1,2.2-.9s1.4.8,2.1,1.1c.7.2,1.4.2,2.1.1.9-.1,1.9-.4,2.6.2.2.2.9-.1.7-.3h.1c0,.1,0,.1,0,.1Z"/>
  <path d="M474.3,134.4c.9-3.2,1.9-6.4,3.5-9.3.6-1.1,1.4-2.2,2.5-3,.1,0,.2,0,.3-.2,0,0,.1,0,0,0h-.2c.5.4.9,1.1,1.3,1.8.9,1.8,1.1,3.8,1,5.8,0,.3.6.1.6,0,.2-2.3-.2-4.7-1.4-6.6-.3-.4-.7-1.3-1.3-1.2-.5.1-.9.5-1.3.8-1,.9-1.7,2-2.3,3.2-1.5,2.7-2.4,5.8-3.2,8.7,0,.2.5.1.6,0h0Z"/>
  <path class="st7" d="M478.3,144.8c1.5.7,2.4,2.3,1.9,3.9-.2.8-.8,1.4-1.5,1.8-.1,0-.2.1-.3.1h0c-.1,0,0,0,0,0-.2,0-.5,0-.8,0-1,0-1.9-.5-2.5-1.3-.2-.2-.8,0-.6.3.9,1.2,2.7,1.8,4.2,1.3,1.8-.6,2.8-2.5,2.3-4.2-.3-1-1-1.8-2-2.2-.2,0-.3,0-.5,0-.1,0-.2.2,0,.3h0c0,0,0,0,0,0Z"/>
  <path d="M474,134.7c.7-.1,1.6-.3,1.9.5.2.6,0,1.3-.1,1.9-.3,1.3-.8,3.1.2,4.2,1.3,1.4,2.7-.1,3.3-1.4s.9-2.5,1-3.8v-1.1c0-.2.1-.5.1-.7.2-1.7,0-3.9-1.9-4.4-.2,0-.7.3-.3.4,1.8.4,1.9,2.5,1.7,3.9,0,.4-.2.8-.2,1.2,0,1.4-.2,2.7-.7,3.9-.3.7-.8,1.9-1.6,2.1-.7.2-1.1-.7-1.3-1.2-.3-1.4.3-2.8.5-4.1,0-.6,0-1.1-.4-1.5-.5-.5-1.5-.4-2.1-.3-.3,0-.5.5,0,.4h0Z"/>
  <path d="M470.6,116.6c-.6,1.4-1.1,2.9-1.4,4.4-.2.7-.3,1.3-.2,2,0,.5.2.9.3,1.4.3,1.5-.2,3.1-.1,4.7,0,.6.1,1.1.5,1.6.3.4,1,.7,1.5.4.5-.3.7-1,.7-1.6,0-1,.2-2.1.2-3.2,0-.9.2-1.9.7-2.7.8-1.2,2.5-1.5,3.1-2.8.3-.8.1-1.8.4-2.6.2-.6.6-1,.6-1.6,0-.7-.8-1.2-1.5-1.4-1.4-.4-3.3-4.2-4.8-4"/>
  <path d="M481.1,112.8c1.6.5-5.9,2.2-6.2.6-.3-1.6-.7-5.8-2.1-6.6s5.9,2.7,3.7-4.9c1.3-1.2,4.1,3.6,5.7,2.8,2-1-1.6-3.8-2.9-5.6s-1.4-2.6-2.9-4.3c-.5-.7.7-2.4,1.3-3,.2-.2.6-.3.9-.4,1.3-.4,2.2-1.8,2.4-3.2.2-1.4-4.3-2.7-4.9-3.9-1.1-2.1-1-3.9-3.1-5.1-.8-.4.4-.9-.2-1.6s-.7-2,.2-2.5c.5-.3,1.1-.3,1.6-.2,2.6.3,5.1.8,7.3,2.2s3.9,3.7,3.9,6.2-.3,2.1.1,3c.4,1.2,1.7,1.9,2.3,3,1.3,2.2-.4,5.4,1,7.5.4.7,1.1,1.1,1.6,1.8.9,1.2,1,2.8.3,4.1-.4.8-1.1,1.3-1.5,2.1-1.6,2.8,1,6.3.3,9.4-.7,3-2.6,4-4.9,2"/>
  <path d="M456.5,58.6c-1.4.4-2.8-.5-4.1-1.1-2.1-.9-4.4-1.2-6.7-.7-1.6.4-3.3,1.2-5,1.1-1,0-1.9-.4-2.9-.7-3.3-.9-6.9-.9-10.2.1-.7.2-1.4.5-2.2.5s-1.7-.4-2.6-.6c-1.9-.5-4.1,0-5.7,1.2-2.4,1.8-3.8,5.2-6.7,5.5-2.2.2-4.8-1.4-6.4.2-.7.7-.8,1.9-1.4,2.7-1.3,1.8-4.3,1.4-5.8,3-1.2,1.4-.9,3.6-2.1,5-.8.9-2,1.4-3,2-1,.7-1.8,2.1-1,3.1l-.6,1.6c-4.9,5.8-4.8,17.8-3.7,17,1.1-.8,6.4-8.5,6.4-9.9,0-8.4,6.8-13.4,8.8-14.5,1.8-.9,3.8-1.5,5.3-2.9.9-.9,3.1-.1,4.3-.6,1.6-.7,2.2-2,3.7-2.8.8-.4,2.2.8,2.7,0,1.4-2,4.4-2.4,6.8-2.5,2,0,2-2.4,4-2.6,1.3-.2,2.5,2,3.7,1.6,1.8-.7,3.2-.9,5.1-.9,3.3.2,7.4-2.2,10.7-2,2.2.1,4.7,3.1,6.8,3.9,3,1.3,5.3,1.2,8.5,1.3.7-2,.1-4.4-1.4-6-1.5-1.6-3.8-2.3-5.9-1.9"/>
  <path class="st4" d="M416.3,153.7c1.6.6,3.9,0,5.3-1.3.3-.3,1.5-.3,1,.1-1.8,1.6-5.1,2.3-7.3,1.6-.2,0-.2-.2,0-.3s.7-.2.9-.1"/>
  <path class="st4" d="M423.3,152c.9-.7,2-1.1,3.2-1.4.2,0,.4,0,.5,0,.1,0,.2.2,0,.3-.5.4-1.1.7-1.8.7-.2,0-.4,0-.6-.1-.1-.1,0-.3.2-.3.5,0,1-.3,1.4-.6.2.1.4.2.6.3-1,.3-2,.7-2.9,1.3-.2.1-.4.1-.6,0-.1,0-.3-.2-.1-.3"/>
  <path class="st4" d="M427.9,151.4c1.3-.3,2.8-1.1,3.3-2.2.7-1.7-.6-3.9-2.5-4.6-.2,0-.1-.2,0-.3.2-.1.5,0,.8,0,1.6.6,2.9,2.4,2.9,3.8s-1.1,2.5-2.6,3.2c-.4.2-.9.4-1.5.5-.2,0-.6,0-.7-.1-.1-.2,0-.2.2-.3"/>
  <path class="st4" d="M413.7,153.5c0-.2-.1-.2-.2-.2-.4,0-.8,0-1.1-.2-.1.2-.2.3-.3.5.8,0,1.5,0,2.2.4.2,0,.3,0,.4-.2,0-.1.1-.3,0-.3"/>
  <path class="st4" d="M414.8,153.5c-.8-.3-1.6-.5-2.5-.4-.1,0-.3.1-.3.2,0,.1,0,.2,0,.3"/>
  <path class="st4" d="M411,154.2c-.9.1-2-.3-2.6-1.2-.9-1.4-.6-3.3.3-4.5.1-.1,0-.3-.1-.3-.2,0-.3.1-.4.2-.8,1-1.1,2.5-.8,3.9.4,1.3,1.4,2.1,2.5,2.3.3,0,.7,0,1,0,.1,0,.4-.1.4-.3s-.1-.2-.2-.2"/>
  <path class="st12" d="M395.9,131.1c-1.3-.4-2.6.3-3.3,1.1-.2.2-.4.7-.5,1.5-.1,1,.4,2,1.2,2.6,1,.8,2.4.7,3.3,0,1.3-.9,1.4-2.7.9-3.8-.1-.2-.5-1.1-1.6-1.4"/>
  <path class="st12" d="M408.4,132.5s-6.4-3.4-9.3-3.2c-4.2.3-9,3.5-10.1,5.9,0,0,6.2-4.7,9.2-4.8,2.9-.1,10.2,2.1,10.2,2.1h0Z"/>
  <path class="st12" d="M430.8,125.2c1-.8,2.9-.9,3.8-.4.2.1.8.5,1.1,1.2.4.9.3,2.1-.2,2.9-.7,1-2,1.4-3.1,1.1-1.5-.4-2.2-2-2.1-3.3,0-.2-.3-.7.5-1.3"/>
  <path class="st12" d="M426.4,128.8s5.6-5.1,8.7-5.8c4.5-.9,10.4.8,12.2,2.7,0,0-7.8-2.7-11-1.9-3,.7-10,5-10,5h0Z"/>
  <path d="M421.5,161.2c4.8-1,14.1-5.1,16.6-3.7,0,0-2.7,11.8-13.8,14s-14.1-6.3-14.1-6.3c0,0,5.1-2.8,11.2-4.1h0Z"/>
  <path class="st24" d="M434.6,158.6s-5.8,3.4-10.6,4.4c-4.8,1-12.8,1.9-12.8,1.9,0,0,.5-2.5,9.3-4.2,8.7-1.8,14.1-2.1,14.1-2.1h0Z"/>
  <path class="st10" d="M423.9,170.4c10.4-3.4,9.4-9.9,15.5-14.2,0,0,.3,15.8-12.7,18.5-13,2.6-16.8-9.3-16.8-9.3,2.1,1.1,8.7,5.4,14,5h0Z"/>
  <path class="st10" d="M415.3,159.8c2.7-.8,4.6,0,5.8-.3,1.2-.2,2.7-2.1,5.5-2,7.9.6,13-1.8,13-1.8-1.4,3.1-9.7,4.7-17.9,6.4-8.2,1.6-12,4.6-12.3,3.1-.1-.4,3.5-4.8,6-5.4h0Z"/>
  <path class="st12" d="M387.8,127.4c-.1,0-.3,0-.4-.1-.1-.2-.2-.4-.3-.7,0-.2,0-.3-.1-.5h0c.7-1.6,1.6-2.6,1.8-2.7,0,0,1.3-1.3,3.6-2.2,1.5-.6,6-1.4,12-1.4.1.8.2,1.6.3,2.5,0,.7.2,1.3.2,1.9-2.1-.3-3.9-.4-5.3-.6-2.9-.2-4.3-.2-5.9.2-1.6.5-3,1.3-3.6,1.6-.8.4-1.3.8-1.8,1.3-.2.2-.3.3-.4.5h0Z"/>
  <path class="st12" d="M421.1,115.8c.2.8.5,1.6.7,2.4.2.6.4,1.2.5,1.9,2.4-1.2,4.5-2.1,6.1-2.8,3.4-1.4,5.1-2.1,7.2-2.4,2.2-.3,4.2-.1,5,0,1.1.1,1.8.2,2.7.4,2,.6,3.1,1.5,3.3,1.3s-.5-1-.5-1.2c-1.8-2.2-4.7-3.1-4.9-3.1,0,0-2.1-.7-5.3-.5-2.1.1-7.8,1.3-15,3.9"/>
  <path class="st9" d="M465.9,393.5c5.5,2.5,11.7,3.5,17.8,3.9,7.6.6,15.2.4,22.8-.2,8.1-.7,16.2-1.8,24.2-3.2,7.5-1.4,14.8-3.1,22.1-5.1,5.6-1.6,11.2-3.4,16.5-5.9.5-.2,1-.5,1.5-.7h-.9c0,2.7,1.6,5,2.5,7.4.2.6.4,1.2.5,1.8,0,.4.2,1,0,1.4-.5.7-1.6,1.1-2.3,1.5-.9.5-1.4,1.4-2.3,2-.9.6-2,1-3,1.5-2,1-4,1.9-6,2.7-9,3.6-18.4,6-27.9,7.6-10.3,1.8-20.8,2.6-31.2,2.5-10,0-20-.9-29.8-2.9-1.1-.2-2.3-.5-3.4-.8-.2,0-1-.1-1-.2v-3.6c0-1.6,0-3.3.2-4.9.1-1.4.2-2.8.5-4.2,0-.3.3-.8.4-.9.2-.1.1-.2,0-.3-.3,0-.7.1-.8.2-.5.3-.7,1.1-.8,1.7-.2,1.1-.3,2.2-.4,3.3-.2,2.4-.2,4.9-.2,7.3v1.6s0,0,.1,0c7.9,2,15.9,3.1,24,3.6,8.7.5,17.3.5,26-.2,8.5-.7,17.1-1.9,25.4-3.8,7.7-1.8,15.3-4,22.5-7.3,1.6-.7,3.2-1.5,4.8-2.3.9-.4,1.8-.9,2.5-1.5.3-.3.5-.6.8-.9s.6-.4.9-.6c.7-.4,1.4-.7,2-1.3s.4-1.1.3-1.9c-.4-2.2-1.6-4.1-2.4-6.1-.4-1-.7-2-.7-3s-.9,0-.9.1c-4.8,2.5-10,4.2-15.2,5.8-7,2.1-14.1,3.8-21.2,5.2-7.8,1.5-15.8,2.7-23.7,3.5-7.6.7-15.2,1-22.7.7-6.2-.3-12.5-1.1-18.4-3.3-.6-.2-1.2-.5-1.8-.8-.2-.1-.5,0-.8,0,0,0-.5.2-.4.3h0c0,.1,0,.1,0,.1Z"/>
  <path class="st9" d="M564.8,385c.2,2,1,3.9,1.4,5.9.4,2.1.4,4.2.2,6.3,0,.6,1.2.4,1.2-.1.2-2.1.2-4.2-.2-6.3s-1.2-4-1.4-6.1c0-.5-1.3-.3-1.2.3h0Z"/>
  <path class="st9" d="M558.4,388.1c.3,4.2,1.2,8.4.6,12.7,0,.4,1.2.2,1.2-.2.5-4.3-.3-8.5-.6-12.8,0-.3-1.2-.1-1.2.3h0Z"/>
  <path class="st9" d="M549.8,390.7c0,1,.3,2,.7,3,.3,1,.7,2.1.8,3.1.4,2.2.4,4.4.1,6.6-.1.5,1.2.4,1.2-.1.3-2.1.3-4.2,0-6.4-.2-1-.4-2.1-.8-3.1-.3-1-.8-2.1-.8-3.2s-1.2-.4-1.2.1h0,0Z"/>
  <path class="st9" d="M540.2,393.5c.8,4.4,3.4,8.8,2.5,13.4-.1.5,1.1.4,1.2-.1.9-4.7-1.7-9.1-2.5-13.6-.1-.5-1.3-.2-1.2.3h0Z"/>
  <path class="st9" d="M531.8,394.6c0,1.2.6,2.2,1,3.3.4,1.1.7,2.3.8,3.5.3,2.5.2,5,.1,7.5,0,.6,1.2.4,1.2-.1.1-2.4.2-4.8,0-7.2-.1-1.1-.3-2.3-.7-3.5s-1.2-2.4-1.2-3.6-1.2-.4-1.2.1h0,0Z"/>
  <path class="st9" d="M522.7,396.3c1,4.7,2,9.4,1.4,14.2,0,.4,1.2.2,1.2-.2.5-4.9-.4-9.6-1.4-14.4,0-.3-1.3,0-1.2.3h0Z"/>
  <path class="st9" d="M513,396.3c.9,5,1.4,10.2.1,15.2-.2.5,1.1.4,1.2-.1,1.3-5,.8-10.3-.1-15.4-.1-.5-1.3-.2-1.2.3h0Z"/>
  <path class="st9" d="M504.3,397.4c.5,4.6.6,9.3.2,13.9,0,.4,1.1.2,1.2-.2.4-4.7.4-9.4-.2-14,0-.3-1.3,0-1.2.3h0Z"/>
  <path class="st9" d="M495.2,398.7c.5,2.6.8,5.3.4,7.9-.2,1.5-.7,3-.7,4.5s1.2.1,1.2-.3c0-1.5.5-3.1.8-4.6.4-2.6.2-5.3-.4-7.8,0-.4-1.3,0-1.2.3h0Z"/>
  <path class="st9" d="M485.4,410.6c.8-4,1.4-8.1.7-12.2,0-.4-1.3-.1-1.2.3.8,4,.1,8-.7,12,0,.4,1.1.2,1.2-.2h0Z"/>
  <path class="st9" d="M476.2,408.6v-11.5c0-.2-1.2,0-1.2.3v11.5c0,.2,1.2,0,1.2-.3h0Z"/>
  <path class="st18" d="M254,236.9l13.1,5.5-7.6.6c-3.1-.8-6.4-1.3-9.6-1.4-2,.5-1.8,3.6-1.8,3.6l24.5,6.1,11.6,4.7c4.5,1.8,16.5,2,20.2-1l8.3-12.9-4.3-12.3-3.2-13.3-2.9-6.9-7.3-8.6s-3.8.8-2,5.6c1.8,4.8,3,7.5,3,7.5l.7,7.9-3.3,1.3-22.3-7.9-6.2-5s-3.9-7.6-9.8-8.1c-.2,0-.5,0-.6.2-.6.3-.7,1-.5,1.6l7.7,13.3,7,4.8-8.9-3.1s-8.6-8.8-13.2-9.8c-4.5-1-3.2,2.2-3.2,2.2l9.5,13.1,11.8,7-9.1-2.8-10.7-6.2s-3.4-1.8-4.7.7c-.5.9-.3,2,.4,2.7l13.2,11h0c0,.1,0,.1,0,.1Z"/>
  <path class="st39" d="M348.5,299.5c8.9,3.8,17.5,8.4,26.2,12.7,2.6,1.3,5.2,2.6,7.8,3.9.3.2,1.2-.3.8-.5-4.6-2.4-9.2-4.6-13.8-7-4.2-2.1-8.4-4.3-12.8-6.4-2.5-1.1-4.9-2.3-7.4-3.3-.2-.1-.5,0-.7,0-.1.1-.3.3,0,.4h0c0,.1,0,.1,0,.1Z"/>
  <path class="st35" d="M436.5,367.2s16.9,3.7,32.8-3.3c15.8-7.1-3.8-64.9-4.8-78.6-.9-14-20.2,30.5-20.2,30.5l-7.8,51.3h0s0,0,0,0Z"/>
  <path class="st39" d="M437,339c.1-3.8-.6-7.7-2.8-11-1.4-2.1-3.5-3.7-5.6-5-.7-.4-1.4-.7-2-1.2-.3-.2-1.2.2-.9.4.5.4,1.1.7,1.6,1,.9.5,1.8,1.1,2.6,1.7,2.4,1.8,4.2,4.2,5.1,7,.8,2.3,1,4.7.9,7.1,0,.4,1,.2,1-.1h0,0Z"/>
  <path class="st18" d="M325,274.3l-30-12.8-13.3-13c-4.9-3.1-9.5-6.6-14-10.2-1.6-2-.5-3,.4-3.7s12.9,4.9,12.9,4.9c0,0-15.2-9.5-16.5-12.6s1-4.5,2.6-5.1,24.9,16.5,24.9,16.5l-8.5-8.9s-14.5-7.2-16.6-10.8c-2.2-3.6,1.9-6.4,1.9-6.4l17.3,9.7,11.8,7.3-10.8-9.3s-12.4-6.9-13.6-10.6,3.6-4.4,3.6-4.4l18.5,9.2,17.7,13.7c-1.3-2.7-3-4.4-3.4-7.3-.5-4.3,2.5-3.7,2.5-3.7l15,13.1,9.9,26-12,18.5h0c0-.1,0-.1,0-.1Z"/>
  <path class="st39" d="M312.6,227.3h0c-.2,0-.7.3-.3.4,2.2.7,4.1,1.8,5.6,3.6,1.3,1.6,2.2,3.5,3.3,5.2.1.2.8,0,.7-.3-1.1-1.8-2.1-3.8-3.5-5.4-1.5-1.8-3.5-2.8-5.7-3.6l-.3.4h0c.3,0,.7-.4.3-.5h0q0,.1,0,.1Z"/>
  <path class="st39" d="M308.8,224.3c-4-3.3-8.1-6.5-12.1-9.8-1-.8-2-1.3-3.2-1.8-3-1.5-5.8-3-8.8-4.4l-6.8-3.4c-.1,0-.3-.2-.5-.2-.3,0-.7.1-1,.2-1.3.4-2.7,1.1-3.2,2.5-.5,1.4.2,2.8,1.1,3.9,1.1,1.3,2.5,2.4,3.9,3.3,2.6,1.9,5.3,3.6,8.2,5.2.5.3.5.3,1,.7,1,.8,1.9,1.6,3,2.5,2.3,2,4.6,3.9,6.9,5.9l.5.4.6-.3c-3.9-2.4-7.7-4.9-11.6-7.2-1.3-.7-2.5-1.4-3.8-2.1-2.7-1.5-5.5-3.1-8.2-4.6-1.8-1-3.6-2-5.4-3-.2-.1-.4,0-.5,0-1,.6-1.8,1.6-2.3,2.6-.7,1.5-.5,3.3.7,4.6.9,1.1,2.1,1.9,3.2,2.7,1.5,1,3,2,4.5,2.9,2.6,1.5,5.2,3,7.8,4.3.2.1.5.2.6.3,0,0,0,0,0,0l.3.3c.8.8,1.6,1.8,2.5,2.6,1.9,2,3.8,4,5.7,6l.6-.3c-2.1-1.5-4.3-3.1-6.4-4.6-3.9-2.8-7.9-5.6-11.9-8.2-1.5-1-3.1-2-4.7-2.9-.5-.3-1-.5-1.4-.7-.6-.2-1.1,0-1.8.3-1,.5-3,1.8-2.4,3.2.3.7,1,1.4,1.5,1.9,1.9,2.2,4.3,3.9,6.6,5.6,3.9,2.8,7.8,5.5,11.8,8.2.1,0,.2.1.2.2l.6-.4c-2.2-1-4.3-2-6.5-3-1.6-.7-3.1-1.4-4.7-2-1-.3-2-.8-3.1-.8-.8,0-1.8.2-2.6.7-.3.2-.3.4-.3.7,0,1.8,1.6,3.2,2.9,4.3,2.2,1.9,4.5,3.4,6.8,5.1,1.3.9,2.5,1.9,3.7,2.9,1.9,1.5,3.8,3,5.5,4.7.2.2.9,0,.7-.3-2.7-2.6-5.6-4.9-8.6-7.2-1.8-1.4-3.6-2.6-5.4-4-1.4-1.1-2.8-2.2-3.9-3.6-.5-.7-.8-1.4-.9-2.3,0-.3.1,0,0,0h.2c.2-.2.4-.3.6-.3,1.3-.5,2.3,0,3.6.4,1.5.6,3,1.1,4.4,1.8,2.4,1,4.8,2.2,7.2,3.2.2.1.9-.2.6-.4-3.3-2.2-6.6-4.5-9.8-6.8-2-1.4-4.1-2.8-6-4.4-1.3-1.1-2.4-2.3-3.5-3.6-.2-.3-.5-.6-.7-.9-.2-.5,0-1,.3-1.4.6-.7,1.5-1.2,2.4-1.5-.1,0,0,0,.1,0,.5.1.8.3,1.3.6,1.5.8,3,1.7,4.4,2.7,3.9,2.6,7.7,5.2,11.5,7.9,1.6,1.1,3.1,2.3,4.7,3.4.8.6,1.6,1.3,2.4,1.8,0,0,0,0,.1.1.2.1.8-.1.6-.3-1.5-1.6-3.1-3.2-4.7-4.9-1-1-2-2.1-3-3.1-.3-.3-.6-.7-1-1-.7-.5-1.5-.7-2.2-1.1-1.4-.7-2.7-1.5-4.1-2.2-3-1.7-6.1-3.4-8.7-5.7-1.3-1.1-2.4-2.5-2.2-4.4.2-1.4,1.3-2.7,2.4-3.5h-.5c4.2,2.4,8.5,4.8,12.7,7.2,1.5.8,3.1,1.7,4.6,2.6,1.8,1,3.5,2.2,5.3,3.2,2.2,1.4,4.3,2.7,6.5,4,.2.1.8-.1.6-.3-1.8-1.5-3.5-3-5.2-4.5-1.3-1.1-2.4-2.1-3.7-3.2-.6-.5-1.3-1.1-1.9-1.6-.5-.3-1-.6-1.5-.8-1.4-.8-2.7-1.6-4-2.5-1.6-1-3.2-2.1-4.7-3.3-1.1-.9-2.4-2-3.2-3.3-.8-1.5-.4-3.1,1-4,.5-.3,1-.5,1.6-.6,0,0,.2,0,.2,0q0,0,0,0c-.5-.2-.2,0-.2,0,.2.2.5.2.7.3.5.2.8.5,1.3.6,1.3.6,2.6,1.3,3.8,1.9,3,1.5,6,3,8.9,4.4,1,.5,2,1,3,1.5.3.2.6.3.8.5,2,1.5,3.9,3.2,5.8,4.8,2.2,1.8,4.3,3.5,6.4,5.2l.4.3c.2.2.8-.1.6-.4h0l.2.3h0Z"/>
  <path class="st35" d="M435.9,366.5c4.5,2.5,19.5-6.7,24.4-5.8.5-.5-15.2,7.9-14.7,7.4,7.4-7.2,12.5-16.6,15.1-26.4,1.8-6.7,5.3-11.5,3.7-18.5-1.3.6-4.9-4.8-4.9-4.8l-108.5-58c-4.9-2.8-9.1-5.5-12.2-.9-5,7.6-14.1,17.1-14.1,17.1,27,35.1,56.3,60.5,97,83.5,10.3,5.8,13.4,5.6,14.2,6.3h0Z"/>
  <path class="st9" d="M525,200.1c-4.2-.7-8.5-.4-12.6,1-3.7,1.3-7,3.3-9.9,5.9-4.9,4.3-8.8,9.6-11.8,15.4-.7,1.3-1.3,2.6-1.9,3.8-.3.6-.6,1.1-.9,1.6-.9,1.6-1.8,3.1-2.6,4.7-1.7,3.1-3.4,6.2-5.1,9.4-6,11.3-11.8,22.8-17.5,34.2-5.1,10.4-10.3,20.7-15.8,30.9-.7,1.2-1.3,2.5-2,3.7.3-.1.6-.2.9-.3-.9-.5-1.9-1-2.9-1.5l-7.7-4.1c-3.7-2-7.5-4-11.2-6-4.5-2.4-9-4.8-13.6-7.2-4.8-2.6-9.7-5.1-14.5-7.7-4.7-2.5-9.4-5-14.2-7.6-4.2-2.2-8.4-4.5-12.6-6.7-3.2-1.7-6.5-3.5-9.6-5.1-1.8-1-3.6-1.9-5.4-2.9-.2-.1-.4-.2-.5-.3,0,0-.3-.2,0,0-1.8-1.3-3.7-2.6-5.8-3.6-.9-.4-2.1-.9-3.1-.7-.8.2-.5,1,.2.9.8-.2,2.2.7,3,1.1,1.2.7,2.4,1.4,3.5,2.2.5.4,1,.8,1.6,1,1.5.8,3,1.6,4.4,2.4,3,1.6,5.9,3.1,8.8,4.7,4,2.1,8,4.3,12,6.4,4.7,2.5,9.3,4.9,13.9,7.4,4.8,2.6,9.7,5.1,14.5,7.7,4.6,2.5,9.2,4.9,13.8,7.3,3.9,2.1,7.9,4.2,11.9,6.4,2.9,1.5,5.8,3.1,8.6,4.6,1.4.7,2.7,1.5,4.2,2.2,0,0,.1,0,.2.1.3.2.8,0,.9-.3,5.5-10,10.6-20.2,15.7-30.4,5.5-11.1,11-22.2,16.8-33.2,3.2-6.1,6.5-12.3,9.9-18.3.5-1,1.2-2,1.6-3,.3-.6.5-1.2.8-1.8,2.6-5.3,5.9-10.2,9.9-14.4,5.4-5.5,12.5-9.5,20.4-9.2,1.1,0,2.2.2,3.3.4.6.1,1.2-.8.4-.9h0c0-.1,0-.2,0-.2Z"/>
  <path class="st9" d="M547.8,242.9c-4.3,11.8-10.7,22.7-17.2,33.3-3.2,5.3-6.6,10.6-9.8,16-2.8,4.8-5.7,9.7-8.5,14.5-5.5,9.4-11.3,18.5-17.8,27.2-.7,1-1.5,1.9-2.1,3-.6.9-1.1,1.9-1.8,2.9-2.1,3.3-4.3,6.6-6.6,9.8-2.5,3.5-5.1,7-8.1,10-2.7,2.8-6,4.6-9.7,5.8-4.6,1.5-9.5,2.2-14.3,2.4-5.1.1-10.4-.4-15.3-1.9-2.5-.8-4.9-1.8-7.3-2.9-2.6-1.1-5.1-2.4-7.6-3.7-5-2.6-9.9-5.5-14.6-8.6-9.4-6.1-18.4-13-27-20.1-8.7-7.1-16.8-14.4-25.1-21.6-4-3.5-8.1-7-12.3-10.4-2-1.7-4.1-3.3-6.1-5-2.1-1.7-4.4-3.3-6.2-5.4-1.7-2-3-4.5-2.1-7.1.2-.7-1-.7-1.1-.2-2,5.6,3.9,9.7,7.7,12.7,4.2,3.3,8.4,6.7,12.5,10.2,8.5,7.2,16.8,14.6,25.3,21.8,8.7,7.4,17.5,14.6,26.8,21.1,9.3,6.5,19.1,12.4,29.4,17.1,2.5,1.1,4.9,2.2,7.5,3,2.5.7,5,1.3,7.6,1.5,5.1.6,10.4.5,15.4-.3,4.4-.7,8.8-1.9,12.7-4.1,3.4-1.9,6-4.8,8.4-7.8,4.8-5.9,9-12.3,13-18.7.5-.8,1-1.5,1.6-2.4,1.8-2.4,3.6-4.9,5.4-7.4,3.1-4.4,6-9,8.8-13.6,6-9.8,11.5-19.8,17.5-29.5,6.6-10.8,13.4-21.5,18.7-33.1,1.3-2.7,2.4-5.6,3.5-8.4.2-.7-.9-.7-1.2-.2h0c0,.1,0,0,0,0Z"/>
  <path class="st35" d="M327.9,279.7c-2.5-1.6-4.9-3.2-7.4-4.8,6-6.9,11.2-14.4,15.6-22.4,2.6,1.4,5.3,2.7,7.9,4.1.3.2.5.3.6.6,0,.2,0,.4-.1.5-3.4,8.3-7.9,16.2-13.4,23.3"/>
  <path class="st9" d="M328.4,279.4c-2.5-1.6-4.9-3.2-7.4-4.8v.5c6-6.9,11.3-14.4,15.7-22.5-.3.1-.7.2-1,.3,2.5,1.3,4.9,2.6,7.3,3.8.5.3,1.2.4.9,1.1-.2.5-.4,1.1-.7,1.6-.5,1.1-1,2.1-1.6,3.2-2.2,4.1-5,7.9-8.2,11.3-1.8,2-3.8,3.9-5.8,5.7-.2.2,0,.4.2.5.3.1.7,0,.8-.2,3.7-3.3,7.2-7,10.1-11,1.5-2,2.8-4,4-6.2.6-1,1.1-2.1,1.6-3.2.2-.5.5-1,.7-1.6.2-.4.2-.8-.1-1.2-.5-.4-1.2-.7-1.8-1-.7-.4-1.5-.8-2.2-1.1-1.5-.8-2.9-1.5-4.4-2.3-.3-.2-.9,0-1,.3-4.4,7.9-9.6,15.4-15.6,22.2-.1.2-.2.3,0,.5,2.5,1.6,4.9,3.2,7.4,4.8.4.3,1.5-.3.9-.7h0s0,0,0,0Z"/>
  <path class="st9" d="M322.7,273.2c2.2,1.6,4.6,3,7.1,4.1.3.1.6.1.9-.1.2-.1.4-.4,0-.5-2.5-1.1-4.9-2.5-7.1-4.1-.4-.3-1.5.3-.9.7h0Z"/>
  <path class="st9" d="M326.6,268.2c1.3,1,2.6,1.9,3.9,2.7.7.4,1.4.8,2,1.2s1.3.7,2.1.7c.2,0,.7-.1.8-.3s-.1-.2-.3-.2c-.7,0-1.5-.5-2-.9-.7-.4-1.3-.8-1.9-1.1-1.3-.8-2.4-1.6-3.6-2.5-.2-.1-.6,0-.8,0,0,0-.5.2-.4.3h0Z"/>
  <path class="st9" d="M329.7,264.2c2.6,1.6,5.8,2.5,7.9,4.8.3.3,1.4-.1,1.1-.5-2.2-2.4-5.4-3.3-8-4.9-.3-.2-1.4.3-.9.6h0Z"/>
  <path class="st9" d="M332.5,260.1c1.7.8,3.3,1.5,5,2.3,1.1.5,2.5,1.2,3,2.5.2.5,1.4.2,1.2-.3-.5-1.4-1.8-2.2-3.1-2.9-1.8-.8-3.6-1.6-5.4-2.5-.5-.2-1.4.5-.7.8h0s0,0,0,0Z"/>
  <path class="st9" d="M334.7,256.1c1.6.7,3.1,1.3,4.7,2.1.7.3,1.4.7,2,1,.5.3,1.1.7,1.3,1.4.2.5,1.4.2,1.2-.3-.5-1.4-2.2-2-3.5-2.6-1.6-.8-3.3-1.5-5-2.2-.5-.2-1.4.5-.7.8h0Z"/>
  <path class="st35" d="M393.6,387.9c-.2,2.4-.1,4.8.3,7.1.1.5.2.9.5,1.3.3.4.9.7,1.4.8,5.1,2,10.8,2.7,16.3,2.2.3,0,.5,0,.7-.3.1-.2.1-.3.1-.5.2-3.1-.1-6.2-.8-9.3-.1-.4-.2-.8-.5-1-.2-.2-.5-.2-.8-.2-5.4-.6-10.9-1.1-16.3-1.6"/>
  <path class="st9" d="M393,388c-.2,2-.1,4.1.2,6.1.1.8.2,1.9.8,2.5.5.6,1.4.8,2.1,1.1,3.7,1.4,7.7,2.1,11.7,2.1,1,0,2,0,3,0,.7,0,1.7,0,2.3-.5.3-.2.3-.5.3-.9v-1.7c0-1,0-2-.1-3-.1-1-.2-2.1-.4-3.1-.1-.8-.2-1.9-.7-2.5-.5-.5-1.6-.5-2.3-.5-1,0-2-.1-3-.1-4.4,0-8.8.4-13.3.1-.5,0-1.3.7-.4.7,3.5.3,7,0,10.5,0,1.7,0,3.4,0,5.1,0,.7,0,2,0,2.4.5.2.3.3.8.3,1.2.1.5.2.9.3,1.4.3,1.9.4,3.7.4,5.6s0,.9,0,1.4v.5c0,.1-.2.1-.4.1-.9.1-1.9.2-2.9.2-3.6,0-7.3-.5-10.7-1.6-.9-.3-1.9-.5-2.7-1-.9-.5-1-1.5-1.2-2.4-.3-2.1-.4-4.2-.2-6.3,0-.5-1.1-.3-1.2.1h0s0,0,0,0Z"/>
  <path class="st9" d="M398.1,388.6c-.4,3.3.2,6.7,1.8,9.8.2.4,1.4,0,1.2-.3-1.5-3-2.1-6.3-1.8-9.6,0-.5-1.1-.3-1.2.2h0Z"/>
  <path class="st9" d="M406.6,388.2c-.2,3.9,1,7.7,2.2,11.3.2.5,1.4.2,1.2-.3-1.2-3.6-2.4-7.3-2.2-11.1,0-.7-1.2-.5-1.2,0h0Z"/>
  <path class="st9" d="M445.7,311c1.9.1,3.5,2,4.6,3.4,1.1,1.4,2.1,3,2.8,4.7,1.4,3.4,1.9,7.1,1.3,10.7,0,.4,1.1.2,1.2-.2.7-3.8.1-7.8-1.5-11.4-.8-1.8-1.8-3.4-3.1-4.8-1.3-1.5-2.7-2.9-4.8-3-.4,0-1.3.5-.5.6h0Z"/>
  <path class="st9" d="M388.3,280c-.7-8.9-1.3-17.8-1.9-26.7,0-.4-1.2-.2-1.2.3.7,8.9,1.3,17.8,1.9,26.7,0,.4,1.2.2,1.2-.3h0Z"/>
  <path class="st18" d="M286.1,318.8c-.2-.3-.4-.6-.6-.9-2.5,1.6-4.8,3.3-5.3,2.9-.4-.3,1.8-2.2,4.3-4.5-.8-1.8-1.4-3.7-2-5.5-4.4,3.4-6.1,5-6.3,4.8s1.4-2,6-5.7c0-.2-.1-.3-.2-.4-.6-1.6-1.2-3.4-1.6-5.2-4,3.3-8,7.3-8.4,7.7.3-.4,3.1-4.2,5-7,.9-1.3,2.1-2.8,3.1-4.3,0-.8.1-1.5.3-2.2s.5-1.5.9-2.1c0,0-.1-.1-.2-.1-1.9-1.2-4.7,1.8-7.9,4.8-3.6,3.3-14.2,12.9-14.2,12.9.3-1.8.9-4.5,1.9-8.2,1-4.9-6,0-6,0,0,0-3.3,3.8-5.9,12.5-.9,3.1-2.4,7.7-1.8,9.4l-10.3,9c.8.8,12.9,15.8,13.9,16.2,0,0,9.8-8.8,13.5-10,5.4,1,18.6-17.1,23.9-22.1-.9-.5-1.7-1.3-2.3-2h0s0,0,0,0Z"/>
  <path class="st33" d="M250.8,294.4c3.9,11.1,7.9,22.1,11.8,33.2,1.5,4.3,3.1,8.7,3.3,13.3.2,6.4-2.2,12.5-3.5,18.9-.6,3-.9,6.2-.2,9.2s2.7,5.8,5.6,7c4.7,1.9,9.9-1.1,13.4-4.7,9.3-9.3,11-15.3,14.4-28,1.1-4,6.5-8.1,4.4-15.7-2.2-8-9.8-7-11.7-10.1-.7-1.1-1-2.4-1.3-3.7-2-8.4-3.9-16.9-5.9-25.4-.2-.6-.3-1.3-.8-1.6-.4-.3-.9-.4-1.4-.3-9,2.6-17.8,5.4-27.9,6.6"/>
  <path class="st18" d="M106.8,335.2c5.5,6.9,12.3,12.4,19.8,16.5,18.7,10.2,50.7,40.5,71.4,39.6,24.2-1,60.4-46.4,60.4-46.4l-13.4-14.7-45.3,25.7s-28.7-19.7-41.6-29.8c-5.4-4.1-6.1-5.1-19.3-6.5-.9-.1-11.5-7.7-12-7.7"/>
  <path class="st39" d="M199.2,356.3c-3.1,2.3-3.9,7.2-1.6,10.2.2.3,1.3-.1,1-.4-2.1-2.9-1.5-7.6,1.4-9.7.2-.2.1-.3-.1-.3-.2,0-.6,0-.8.2h0Z"/>
  <path class="st39" d="M261.1,339.7c-2.4.5-4.5-1.5-4.8-3.8,0-.4-1.2-.1-1.1.3.2,1.3.9,2.5,2,3.2,1.2.9,2.7,1.1,4.2.8.2,0,.5-.2.5-.4,0-.3-.5-.2-.7-.2h0s0,0,0,0Z"/>
  <g class="st38">
    <g>
      <path class="st16" d="M257.8,360.1c2.3-.7,4.7-.3,7,.2,2.3.5,4.6.9,7,1.1,4.7.5,9.5.3,14.2-.4,2.7-.4,5.3-1.1,7.9-1.9.3-.1.8-.4.7-.8-.1-.4-.7-.5-1-.4-4.5,1.5-9.3,2.4-14,2.5-4.8.2-9.5-.4-14.2-1.4-2.6-.5-5.3-.9-7.9-.1-.3.1-.8.4-.7.8.1.4.7.5,1,.4h0Z"/>
      <path class="st16" d="M259.4,354c2.9-1.2,6.1-.8,9.1-.7,2.8,0,5.6.1,8.4,0,5.7-.3,11.5-1.2,16.8-3.3,3.1-1.2,6-2.8,8.6-4.8.3-.2.4-.6.1-.8s-.9-.1-1.2.1c-9.3,7-21.2,8-32.4,7.7-3.5-.1-7-.4-10.2.9-.3.1-.7.5-.4.8s.8.2,1.1.1h0s0,0,0,0Z"/>
      <path class="st16" d="M260.7,346.7c5.9-1.6,11.9-2,17.9-2.9,6.2-.9,12.5-2.1,18.1-5,3-1.6,5.7-3.7,7.8-6.5.7-.9-.9-1.1-1.4-.5-3.6,4.8-9.1,7.3-14.7,8.9-6,1.6-12.2,2.2-18.3,3.1-3.2.4-6.5.9-9.6,1.8-1,.3-.7,1.5.3,1.2h0Z"/>
      <path class="st16" d="M263,337c11-1.5,22.5-3.2,32-9.3,2.7-1.7,5.1-3.7,7.3-6.1.7-.7-1-.7-1.4-.3-3.6,3.9-8.1,6.9-13,9-4.9,2.1-10.2,3.3-15.5,4.3-3.1.5-6.1,1-9.2,1.4-.3,0-.9.2-.9.5s.5.4.7.4h0s0,0,0,0Z"/>
      <path class="st16" d="M258.1,329.4c5.9-1,11.9-1.4,17.7-3.1,4.8-1.5,9.6-3.2,14.1-5.6,2.4-1.3,4.7-2.8,6.5-4.8.3-.3-.2-.3-.4-.2-.3,0-.9.1-1.1.4-3.2,3.4-7.7,5.5-11.9,7.2-2.1.9-4.3,1.6-6.5,2.4-2.7.9-5.5,1.5-8.3,1.9-3.2.5-6.4.8-9.6,1.4-.2,0-1,.2-1,.4s.5.2.7.1h-.1s0,0,0,0Z"/>
      <path class="st16" d="M255.3,321c9.5-1,19.3-2.6,27.7-7.3,2.4-1.3,4.5-2.8,6.5-4.5.3-.2.2-.5-.2-.5-.4-.1-.9,0-1.2.3-7,6.1-16,8.8-24.9,10.2-2.6.4-5.2.8-7.8,1-.3,0-.9.2-.9.5s.5.3.7.3h0s0,0,0,0Z"/>
      <path class="st16" d="M252.4,313.8c9.9-3.3,20.8-3.6,29.8-9.1,2.2-1.4,4.3-3.1,6-5.2.7-.8-.9-1-1.4-.4-6.3,7.7-16.7,9.4-25.8,11.4-3,.7-6,1.4-8.9,2.3-.3.1-.8.3-.7.8.1.4.7.4,1,.3h0Z"/>
      <path class="st16" d="M251.2,303.4c9.5-1.1,19.3-2.6,28.1-6.7,2.5-1.1,4.9-2.5,7.1-4,.3-.2.4-.5.1-.7s-.9,0-1.2.2c-7.7,5.4-16.9,7.8-26,9.3-2.6.4-5.3.8-7.9,1-.3,0-.9.2-.9.6s.4.4.7.4h0s0,0,0,0Z"/>
      <path class="st16" d="M258.9,366.6c9.3,3.3,19.3,4.2,28.7,1,.3-.1.8-.3.7-.7s-.7-.3-1-.3c-9,3-18.6,2-27.5-1.1-.6-.2-2,.7-1,1h0s0,0,0,0Z"/>
    </g>
  </g>
  <path class="st18" d="M254.5,306.1c2.3-1.6,5.3-2.1,8.1-1.9,1.1.1,2.4.3,3.4.9,1,.5,1.9,1.4,2.5,2.4.4.8.7,1.7.4,2.5-.5,1.3-2.2,1.6-3.7,1.7-1.6.1-3.4.3-4.8,1-1.5.8-2.4,3-2.1,4.7"/>
  <path class="st18" d="M284.2,294.9s-10.6,4.3-6.7,8.5c3.9,4.3,10.7-2.2,10.2-4.2-.5-2-1.9-5.1-3.5-4.4h0Z"/>
  <path class="st18" d="M288.6,311.2s-10.6,4.3-6.7,8.5c3.9,4.3,10.7-2.2,10.2-4.2-.5-2-1.9-5.1-3.5-4.4h0Z"/>
  <path class="st18" d="M286.5,303s-11.1,4.5-7,8.9c4.1,4.4,11.2-2.3,10.7-4.3s-2-5.4-3.7-4.6h0Z"/>
  <path class="st39" d="M258.2,316.8c1.1,2.2,2,4.4,2.9,6.7.4,1,.8,2.2.9,3.3,0,1-.3,2.4-1.3,2.9-.8.3,0,.5.4.3,2.4-1,2.2-3.5,1.6-5.6-.9-2.7-2-5.3-3.2-7.8-.2-.3-1.3.1-1.1.3h-.1s0,0,0,0Z"/>
  <rect class="st36" x="54.2" y="436.9" width="46.3" height="17.5"/>
  <path class="st20" d="M45.2,459.7c0,14.4-4.7,45.3,38.5,48.7l-19.6-5-1,35s114.3-3.7,118.1-3.6c7.3.1,27.9-2.2,31.2-24.6,3.3-22.4-10.9-28.6-16.2-32.9-5.3-4.3-52.2-38.9-75.2-43.1l-69.3,17.8-6.5,7.9h0c0-.1,0-.1,0-.1Z"/>
  <path class="st20" d="M44.6,482.1c7.1,12.8,22,39.6,38.6,46.5l-18.5-3.9,8,22.2s73.7,8.9,94.7,6.7c11.1.6,31.3-7.6,33-30.1,1.7-22.6-9.5-28.2-14.7-32.1-5.2-4-62.1-22.2-83.7-25.2l-51.8,7.7-5.6,8.2h0Z"/>
  <path class="st18" d="M144.4,269.3c.3-4.8-.3-13.9-1-16.7,0-2.2-.1-4.8-.2-7.9,0-.9-.1-1.8-.2-2.6,0-.4-.1-.9-.1-1.3-1.3-15.2-6.7-22.9-6.7-22.9-7-9.7-18.5-15-30.3-13.9-14,1-26.1,10.2-32.3,19.2-3.1,4.4-4.3,9.8-3.7,15.1.6,4.6,1.9,9.6,3.4,14.5-4.9,0-9.6,2-7.3,11,3.1,12.3,11.3,15.7,15,12.1.9.1,2.8,3.8,3.2,6.4.7,4.9.9,13.8-1.3,18.2l.2,1.4c11.4,16.4,22,18.6,57.5,6.6l-16.3-10.8-.3-3.3c2.7-.3,3.5,0,6-1.2,11.1-3.5,14.2-18.2,14.6-23.9h0s0,0,0,0Z"/>
  <path class="st39" d="M123.8,294.4s-13.3,1.8-25.7-5.5c0,0,1.6,3.9,10.3,6.5,8.7,2.6,15.4,1.1,15.4,1.1v-2.2h-.1s0,0,0,0Z"/>
  <ellipse class="st11" cx="137.3" cy="248.9" rx="3" ry="3" transform="translate(-132.6 338.1) rotate(-79.4)"/>
  <path class="st28" d="M140.7,246.3c-1.5-.8-3.4-1.3-6.3-.9-4.6.7-6.4,6.5-6.4,6.5,0,0,2.2-4.6,6.7-5.3,2.2-.4,5.9.7,7.6,1.5,0-.4-.7-1.3-1.6-1.8h0q0,0,0,0Z"/>
  <path class="st11" d="M69.7,264.2c-.4-1.1-.8-2.4-.6-3.6,0-.3.1-.7.2-.9,0-.1.1-.2.1-.3,0,0,.1-.2,0-.1l-.3.2c-.1,0,0,0,0,0,.1,0,.2,0,.3,0,.4.1.8.4,1.2.6,1.9,1.4,3.3,3.5,4.7,5.4l.6-.2c-.5-.3-1.2-.5-1.8-.4-.7.2-1,.8-1,1.5,0,2,1.8,2.9,3.5,3,.2,0,.7-.3.3-.3-1.4,0-2.8-.8-3.1-2.2,0-.4,0-1.1.2-1.4s1,0,1.4.2c.1.1.7,0,.6-.2-1-1.5-2-2.9-3.2-4.2-.6-.6-1.3-1.2-2.1-1.6-.3-.2-.7-.3-1.1-.3s-.6.2-.7.5c-.6,1.5-.3,3.2.3,4.7,0,.2.7,0,.6-.2h0s0,0,0,0Z"/>
  <ellipse class="st26" cx="106.4" cy="250.8" rx="3" ry="3" transform="translate(-159.8 309.3) rotate(-79.4)"/>
  <path class="st28" d="M114.8,252.4s-4.8-5.8-9.9-5.1c-7.1.9-8.2,4-9.5,6.4,0,0,4.2-4.6,9.7-5.1,5-.6,9.6,3.9,9.6,3.9h0Z"/>
  <path class="st10" d="M124.1,273.3c-4.3.2-11.2.1-11.2.1,0,0,0,12,11.9,11.2,9.9-.7,9.5-12.1,9.5-12.1,0,0-5.9.5-10.2.8h0Z"/>
  <path class="st5" d="M124.1,273.3c-2,.1-9.6.4-9.6.4,0,0,2.1,7,9.5,6.6,8-.4,8.9-7,8.9-7h-8.7s0,0,0,0Z"/>
  <path class="st14" d="M124.2,274.3c-2,.1-8.3.1-8.3.1,0,0,2.5,1.5,8.7,1.3,6.1-.3,7.8-2,7.8-2l-8.2.7h0Z"/>
  <path class="st10" d="M134.2,272.5c0-.2-.4-.3-1.5-.3-1.7,0-2.3-.7-3.5-.7-2.1,0-3.4.8-4.3.9s-2.2-.7-4.3-.4c-1.2.2-4.2.7-5.9.9-1,.1-2.2-.2-2.4-.1-.3.1.6,2.8,11.9,2.2,11.4-.6,10-2.2,10-2.5h0Z"/>
  <path class="st12" d="M113.7,240.6c0-.1-.3-.1-.3-.2-5.6-1.4-9.9-1.4-11.4-1.1-1.2.2-2.4.7-3.4,1.4,0,0-3,1.8-3.4,2.5s1.8-.4,1.8-.4c.5-.2.8-.3,1.3-.4,2.6-.4,5.2-1.3,7.9-.9,2.3.3,5.4,1.6,7.6,2.5,0-1.1-.1-2.2,0-3.3h.1c0,.1,0,0,0,0Z"/>
  <path class="st12" d="M126.7,240.7c0-.1.3-.2.3-.3,4.8-1.8,8.4-2.2,9.9-2,1,.2,2.1.6,3.1,1.1,0,0,2.8,1.5,3.2,2.2s-1.6-.2-1.6-.2c-.4-.1-.7-.3-1.1-.3-2.4-.3-4.7-.9-6.9-.3-2,.4-4.6,2.1-6.4,3.1-.2-1.1-.1-2.2-.3-3.3h0s0,.1,0,.1Z"/>
  <path class="st28" d="M78.5,262s0-.2,0-.2c-.8-1.8-1.6-3.3-3.2-4.5-.7-.5-1.5-1.1-2.4-1.5-.9-.3-1.8-.7-2.7-.8-1.3-.2-2.6-.2-3.9.3l-.7.3c-4-10.6-6.2-22,.8-35.7,2-3.9,7.8-8.6,9.5-10,10.6-8.8,20.5-10,32.8-9.5,14.2.5,28.1,8.8,32.2,22.9,1,3.4,1.9,5.6,1.8,9.2,0,0-3.6-12.8-10.7-16.4-7.1-3.7-7.9,2.4-17.6,3.2-11.2.9-15.2-4.9-23.9.3-7.9,4.8-9.9,12.1-9.9,12.1-.9,4.9-3,8.3-1.3,13.9.4,1.3.8,2.6,1.1,4,.2,2.5.8,4.9.5,7.4-.2,1.2-.5,2.5-1.5,3.3-1.1.8.3,2.2-.9,1.9h.1q0-.1,0-.1Z"/>
  <path class="st11" d="M79.2,261.8c-.3-1.3-1.2-2.5-2-3.5-.9-1.1-2.1-2-3.4-2.6-2.7-1.3-5.8-1.5-8.6-.1h1c-1.5-4.2-2.8-8.4-3.4-12.7-.6-4.7-.4-9.4.8-14,.7-2.6,1.6-5.1,2.7-7.6,1-2,2.2-3.8,3.7-5.5,2.6-2.9,5.6-5.4,8.8-7.7,3.7-2.7,7.9-4.8,12.4-6,4.3-1.1,8.8-1.5,13.2-1.4,4.4,0,8.7.3,12.9,1.5,4,1.1,7.8,2.9,11.2,5.3,3.4,2.4,6.3,5.4,8.5,8.9,1.1,1.8,2,3.7,2.7,5.7.8,2.2,1.5,4.6,1.9,6.9.2,1.2.3,2.5.3,3.7.4-.1.9-.2,1.3-.3-.5-1.8-1.2-3.6-2-5.3-1.4-3.2-3.2-6.4-5.6-8.9-2.3-2.3-5.6-4.1-8.9-3.4-1.4.3-2.7.9-3.9,1.6-1.5.8-3.1,1.6-4.8,2-4.4,1.3-9.1.7-13.5-.3-3.5-.8-6.9-1.5-10.5-.4-4.2,1.3-8.1,4.2-10.7,7.7-1.4,1.9-2.8,4.1-3.4,6.4-.2.7-.3,1.3-.4,1.9-.3,1.2-.7,2.4-.9,3.6-.6,2.3-.8,4.7-.3,7,.3,1.5.8,2.9,1.2,4.4.4,1.4.5,2.9.7,4.3.2,1.5.3,3.1,0,4.6-.1.5-.2,1.1-.4,1.6-.3.6-.7.9-1.1,1.4-.2.3-.3.6-.3,1v.7c.1.3,1.2-.1.7-.2-.3,0-.7,0-.9.2-.1,0-.4.3-.2.4.6.1,1.7.1,1.8-.7,0-.3-.1-.6,0-.9.1-.5.7-.8,1-1.3,1.5-2,1-5.1.8-7.5-.1-.7-.2-1.4-.3-2.1,0-.8-.3-1.5-.5-2.2-.4-1.4-.9-2.8-1.2-4.2-.4-2.4,0-4.8.6-7.2.7-2.5,1-5,2.2-7.3,1.8-3.6,4.5-6.6,7.8-8.8,1.8-1.1,3.7-2.1,5.8-2.4,1.7-.2,3.4,0,5,.3,1.9.4,3.7.8,5.5,1.1,2.2.4,4.5.6,6.8.4,2.2-.1,4.5-.6,6.6-1.3,1.5-.6,3-1.3,4.4-2.1,1.1-.6,2.2-1.1,3.4-1.1s3.3.8,4.7,1.8c3,2,5,5.3,6.6,8.4,1.1,2.2,2.1,4.6,2.8,7,0,.1,0,.3.1.4.1.3,1.3,0,1.3-.3,0-2.6-.5-5-1.2-7.4-.7-2.2-1.4-4.4-2.4-6.5-1.9-3.8-4.6-7.1-7.8-9.8-6.7-5.5-15.2-8.2-23.7-8.4-4.6-.1-9.3,0-13.8.8-4.5.8-8.8,2.4-12.8,4.7-3.6,2.1-6.8,4.8-9.9,7.6-1.6,1.5-3.2,3.1-4.6,4.9-1.5,2-2.5,4.4-3.3,6.7-1.8,4.7-2.6,9.7-2.5,14.7.2,4.6,1.2,9,2.6,13.3.3,1,.7,2.1,1.1,3.1.1.3.9,0,1,0,2.4-1.2,5.5-.4,7.7,1,1,.7,1.9,1.4,2.6,2.4.7.9,1.3,2,1.6,3,0,.3,1.4,0,1.3-.3h0v-.3c0,0,0,0,0,0Z"/>
  <path class="st12" d="M122.5,267c1.1.4,2.3.6,3.5.5,1.1,0,2.3-.2,3.3-.6.8-.3,1.5-.9,1.9-1.6.4-.8.4-1.5,0-2.3-.2-.4-.5-.9-.7-1.3-.3-.6-.6-1.3-.8-1.9,0-.1-.6,0-.5.1.3.9.8,1.8,1.3,2.7.3.5.6,1.1.6,1.8-.1.9-.7,1.8-1.4,2.2-.8.5-1.9.7-2.7.7-1.3.1-2.6,0-3.8-.5h-.3s-.2.1-.2.1h0s0,0,0,0Z"/>
  <path class="st12" d="M117.2,263.1c-1.2,0-1.3,1.5-1.3,2.4,0,.5.2,1,.6,1.4.5.5,1.3.7,2,.8.5,0,.9,0,1.4-.2.5-.2.9-.5,1.4-.6,0,0,.2,0,.2-.2s-.2,0-.3,0c-.4.1-.7.3-1,.4s-.7.3-1,.3c-.6,0-1.4-.1-1.9-.4-.8-.5-.9-1.7-.8-2.6,0-.3.2-1,.6-1s.3,0,.3-.1,0-.1-.1-.1h0v-.2c0,0,0,0,0,0Z"/>
  <path class="st18" d="M67.5,519.7c-1.1-3.4-4.5-7.1-7-8.8s-5.6-.4-6.4,0c-6.2,2.6-9.6,8.1-14.6,12.8-3.8,3.6-8,6.6-12.5,9-4.5,2.5-9.5,3.6-14.1,5.8h-.1c-2.3,1.1-4.2,3.1-5.3,5.5-.4.9-.9,1.8-1.3,2.6-.7,1.2-1.3,2-.8,3.5,1,2.6,4.9,1.2,6.1.7.2-.1.4-.1.7,0,.9.1,3.6.3,8.1-.5.4-.1.9-.1,1.3-.2h0c2.4-.2,12.9-.1,14.9-.3,3.1-.2,2.7.1,15.9-4,0,0,12.6-4.1,19.7-1.5l1.9-20.5s-5.4-.6-6.5-3.9h0Z"/>
  <path class="st18" d="M90.8,493.8c-1.2-3.3-4.8-6.9-7.3-8.5-2.5-1.6-5.6-.1-6.4.3-6.1,2.9-9.3,8.5-14.1,13.4-3.7,3.7-7.8,7-12.2,9.6-4.4,2.7-9.3,4-13.9,6.4h-.1c-2.2,1.2-4,3.2-5.1,5.8-.4.9-.8,1.8-1.2,2.7-.6,1.2-1.3,2.1-.6,3.5,1.1,2.6,5,1,6.1.4.2-.1.4-.1.7-.1.9.1,3.6.2,8-.9.4-.1.9-.2,1.3-.2h0c2.4-.3,12.9-.7,14.9-.9,3.8-.4,15.7-4.8,15.7-4.8,0,0,15.6-2.4,20.7,1.1l6-20.8s-11.3-3.6-12.6-6.9h0s0,0,0,0Z"/>
  <path class="st20" d="M134.3,433.9l-.9-3.9c-13.5,2.4-22.8-10-36.5-8.5-10.4,1.1-20.7,2.6-31.2,2.7-5,0-10-.1-14.9-1.2-3.1-.7,5.4-1.5,2.4-2.3l-10.3,12.5-4.7,8.5c-1.6,6.2-9.3,23-9.6,29.3-4.2,72.5,84.8,47,84.8,47,0,0,4.2-18.5,6.2-23.3l4.5-9.5c2.1-.1,7.4-14.7,12.9-21.4,11.7-14.4,44.3,2.8,44.3,2.8l-46.9-32.8h0s0,0,0,0Z"/>
  <path class="st6" d="M44.5,354.9s1.4,43.2-1.7,58.6c-4,19.8-11.2,36.7-11.2,36.7,0,0,30.7,13.7,77.9,12.7,25.9-.5,41.6-14.9,39.3-25.6-.6-2.8-3.9-8-3.9-8l4.5-54-104.9-20.3h0Z"/>
  <path class="st6" d="M61.8,409.3c4.4,1.8,8.8,2.8,13.5,3.5,9.3,1.3,18.6,1.5,27.9,1.8,12.6.4,25.2,1.1,37.7.8l4.8,14.5c3.4-6,4.8-34,6.7-50.5l.6-5.5c1.9-1,7.9,4.5,9.6,2.5,11-12.5,18.7-39.5,18.7-39.5,0,0-23.2-18.8-29.2-25.1-6-6.4-24.8-12.6-24.8-12.6,8.5,8.8-5,12.2-5,12.2-11.8,2.5-37.2-4.4-40-19.5,0,0-10.6,9-18.2,14.6-18.2,13.3-18.3,31.3-18.3,40.7s11.2,33.6,10.2,49.4c2.3.9,3.6,11.8,5.9,12.7h0s0,0,0,0Z"/>
  <path class="st13" d="M153.5,373.9c1.3-8.8,2.7-17.6,3.2-26.6.1-2.6.2-5.3.2-7.9s-1.1-.3-1.1.1c0,8.9-.9,17.8-2.2,26.6-.4,2.6-.8,5.2-1.1,7.8,0,.4,1,.3,1.1-.1h0Z"/>
  <path class="st27" d="M147.1,473c3.6,1.9,7.1,3.7,10.7,5.6,6.5,3.4,13,6.8,19.5,10.2,2.4,1.3,4.8,2.5,7.2,3.8.7.3,1.3.7,2,1,.2,0,.3.2.4.2.1,0,.3.2.1,0,1.8.9,3.4,2.1,4.8,3.5,3.2,3.1,5.4,7.1,6.7,11.3.9,3.1,1.4,6.3,1.8,9.5.3,2.4.4,4.7.4,7.1,0,1.7,0,3.8-.9,5.3,0,.1,0,0,0,0-.5.5.6.7.9.3.8-.8.9-2.3,1-3.3.6-4.7-.1-9.6-.8-14.2-1.3-7.7-5-15.7-12.1-19.8-.2-.1-.4-.3-.7-.4-.2,0-.3-.2-.2,0-.4-.2-.7-.4-1.1-.6l-6.1-3.2c-6.5-3.4-13-6.8-19.4-10.2-4.3-2.2-8.6-4.5-12.9-6.8,0,0-.2,0-.2-.1-.4-.2-1.4.3-.9.7h0s0,0,0,0Z"/>
  <path class="st39" d="M34,528.3c2.5-1.5,4.6-3.5,6.7-5.5,2-2,4.2-4,5.7-6.5.2-.3-.2-.5-.4-.5-.3,0-.7.1-.8.4-1.4,2.3-3.5,4.3-5.4,6.1-1.9,1.9-4,3.8-6.3,5.3-.7.4,0,1.1.5.8h0s0,0,0,0Z"/>
  <path class="st6" d="M74.7,297.3s5.7-7.1,10-9.2c0,0,13.9,23.1,28.2,23.5,0,0-10.8,4.8-11.9,12.2,0,0-27.8-15.1-26.3-25.8"/>
  <path class="st13" d="M75.2,297.5c1-1.3,2.1-2.5,3.3-3.7,1.9-2,4.1-4.1,6.5-5.4-.2,0-.5,0-.7,0,1.7,2.8,3.6,5.4,5.6,7.9,3.8,4.8,8.3,9.5,13.6,12.7,2.8,1.7,6,2.9,9.3,3v-.7c-1.4.6-2.7,1.4-3.9,2.1-2.4,1.5-4.8,3.5-6.4,5.8-1,1.4-1.7,2.9-2,4.6l1-.3c-3.2-1.7-6.2-3.7-9.2-5.7-2.7-1.8-5.3-3.7-7.7-5.8-2.4-2-4.7-4.2-6.6-6.7-1.5-2.1-3.1-4.7-2.7-7.4,0-.5-1-.4-1.1.1-.3,2.4.8,4.8,2,6.7,1.7,2.5,3.9,4.7,6.1,6.7,4.6,4,9.6,7.5,14.8,10.6,1.2.7,2.3,1.4,3.4,2,.3.2.9,0,1-.3.4-2.9,2.4-5.3,4.5-7.2,1.8-1.6,3.8-2.9,5.9-4,.4-.2.9-.4,1.3-.7.3-.2.4-.7,0-.7-6-.2-11.4-4.2-15.6-8.1-3.9-3.7-7.3-7.9-10.4-12.3-.7-.9-1.3-1.9-1.9-2.9-.1-.2-.6-.2-.7,0-2.6,1.3-4.8,3.4-6.7,5.5-1.2,1.3-2.4,2.6-3.5,3.9-.4.5.6.7.9.3h-.1c0-.1,0-.1,0-.1Z"/>
  <path class="st6" d="M124,296.5s.9,11.5-9.2,14.8c0,0,7.9,3.8,10.6,10.2,0,0,7-5.2,8.3-20.2,0,0-2.6-2.6-6.2-4.1s-3.4-.8-3.4-.8h0s0,0,0,0Z"/>
  <path class="st13" d="M123.4,296.6c0-.3,0,.2,0,.2v.8c0,.9-.1,1.9-.3,2.8-.5,2.7-1.6,5.3-3.4,7.3-1.4,1.4-3.1,2.5-5,3.1-.4.1-.7.5-.2.8,1.5.7,2.8,1.6,4.2,2.6,2.6,2,5,4.4,6.2,7.5.2.4.7.3.9.1.7-.5,1.2-1.1,1.7-1.7,1.4-1.6,2.5-3.5,3.4-5.4,1.5-3.1,2.4-6.5,3-10,.2-1.1.4-2.2.4-3.3,0-.4-.2-.5-.5-.7-1.1-1-2.4-1.9-3.7-2.7-1-.6-2.1-1.1-3.3-1.5-.7-.3-1.4-.5-2.1-.6-.4,0-1.4,0-1.3.7.2.5,1.3.2,1.1-.3,0,.2-.4.4-.4.4,0,0,.9.2,1,.2,1.8.5,3.5,1.4,5,2.4,1,.7,2,1.4,2.9,2.2,0,0,.1,0,.1.1,0,.1,0,0,0,0,0-.2-.2.3,0,.1v.3c0,.3,0,.6-.1.9-.1,1-.3,1.9-.4,2.9-.9,4.9-2.6,9.9-5.9,13.8-.6.7-1,1.2-1.6,1.7h.9c-1.3-3-3.7-5.6-6.4-7.6-1.4-1-2.9-2-4.4-2.8l-.2.8c3.4-1.1,6.2-3.4,7.8-6.6,1.2-2.2,1.7-4.7,1.8-7.2v-1.6c0-.5-1.2-.3-1.1.3h0s0,0,0,0Z"/>
  <path class="st13" d="M113.1,312c.7,0,1.3-.1,1.9-.2l-.5-.2.7,7.2c.3,3.8.7,7.7,1,11.5,0,.9.2,1.8.2,2.7l.6-.5c-2,.2-3.9.4-5.9.5-.6,0-.9.8-.1.7,2-.2,3.9-.4,5.9-.5.3,0,.7-.2.6-.5l-.7-7.2c-.3-3.8-.7-7.7-1-11.5,0-.9-.2-1.8-.2-2.7,0-.2-.3-.2-.5-.2-.7,0-1.3.1-1.9.2-.6,0-.9.8-.1.7h0Z"/>
  <ellipse class="st13" cx="111.8" cy="319.5" rx="1.4" ry="1.8" transform="translate(-211.1 421.2) rotate(-88.2)"/>
  <ellipse class="st13" cx="112.5" cy="327" rx="1.4" ry="1.8" transform="translate(-217.8 429.1) rotate(-88.2)"/>
  <path class="st27" d="M74.2,522.3c1.6.1,3.2.2,4.8.3,4.1.2,8.2.5,12.3.8,5.6.3,11.2.7,16.8,1,6.1.4,12.2.8,18.3,1.2,5.5.4,11,.8,16.6,1.2.6,0,1.2.1,1.8.1s.7,0,.8-.2c.2-.1.2-.2,0-.2-5.4-.4-10.7-.8-16.1-1.2-6.1-.4-12.1-.8-18.2-1.2-5.8-.4-11.4-.7-17.2-1.1-4.4-.3-8.8-.5-13.2-.8-2-.1-3.9-.3-5.9-.3h0c-.2,0-.7,0-.8.2-.2.1-.2.2,0,.2h0s0,0,0,0Z"/>
  <path class="st2" d="M274.7,456.2c6.1-3.2,12.3-6.5,19-8.2,15.9-4.2,34,.7,45.5,12.5-10,2.7-20.1,4.9-30.4,6.5-5,.8-10.1,1.4-15.1.5-7.9-1.4-14.6-6.4-20.9-11.2"/>
  <path class="st29" d="M305.1,477.7c6.9.3,27.7,1.3,27.7,1.3,0,0,29.9-3.9,39.8-5.2-7.1-1.9-10.9-7.7-17.4-10.9-11.3-5.3-23.8-9.8-36.2-7.6-8,1.4-45.1,14.7-51.5,19.8,0,0,16.3,1.3,19.8,1.6,7.1.6,17.8,1,17.8,1h0Z"/>
  <path class="st34" d="M212.6,471.8c6.8-3.7,11.5-10.2,18.1-14.1,3.9-2.3,8.3-3.6,12.7-4.5,12.6-2.7,17.9-3,29.1,3.1,1.6.9,13.5,3.1,15.1,4,2.7,1.5,11.5,1.1,10.3,2.5-1.2,1.5-11.2,4.2-12.9,5-8,3.7-6.3,7.2-15.1,7.4,0,0-43.3-2.2-56.5-3.3"/>
  <path class="st25" d="M203.1,471.8h201.3c5.1,0,9.3,4.2,9.3,9.3h0c0,5.1-4.2,9.3-9.3,9.3h-201.3c-5.1,0-9.3-4.2-9.3-9.3h0c0-5.1,4.2-9.3,9.3-9.3Z"/>
  <path class="st25" d="M205.6,490.3l11.4,87.4c1,7.5,7.4,13.2,15,13.2h146.7c7.6,0,14-5.6,15-13.2l11.3-87.4h-199.4,0,0Z"/>
  <path class="st15" d="M404.4,490.9c0,.2-45.4.4-101.4.4s-101.4-.2-101.4-.4,45.4-.4,101.4-.4,101.4.2,101.4.4Z"/>
  <path class="st34" d="M220.2,505.9l2.1-1.1c2.2-1.1,4.9-.3,6.1,1.9l6.6,12.6c1.1,2.2.3,4.9-1.9,6.1l-2.1,1.1c-2.2,1.2-4.9.3-6.1-1.9l-6.6-12.6c-1.1-2.2-.3-4.9,1.9-6.1h0Z"/>
  <path class="st34" d="M250.8,505.9l2.1-1.1c2.2-1.1,4.9-.3,6.1,1.9l6.6,12.6c1.1,2.2.3,4.9-1.9,6.1l-2.1,1.1c-2.2,1.2-4.9.3-6.1-1.9l-6.6-12.6c-1.1-2.2-.3-4.9,1.9-6.1h0Z"/>
  <path class="st34" d="M279.4,505.9l2.1-1.1c2.2-1.1,4.9-.3,6.1,1.9l6.6,12.6c1.1,2.2.3,4.9-1.9,6.1l-2.1,1.1c-2.2,1.2-4.9.3-6.1-1.9l-6.6-12.6c-1.1-2.2-.3-4.9,1.9-6.1h0Z"/>
  <path class="st29" d="M309.5,505.9l2.1-1.1c2.2-1.1,4.9-.3,6.1,1.9l6.6,12.6c1.1,2.2.3,4.9-1.9,6.1l-2.1,1.1c-2.2,1.2-4.9.3-6.1-1.9l-6.6-12.6c-1.1-2.2-.3-4.9,1.9-6.1h0Z"/>
  <path class="st29" d="M339.2,506.2l2.1-1.1c2.2-1.1,4.9-.3,6.1,1.9l6.6,12.6c1.1,2.2.3,4.9-1.9,6.1l-2.1,1.1c-2.2,1.2-4.9.3-6.1-1.9l-6.6-12.6c-1.1-2.2-.3-4.9,1.9-6.1h0Z"/>
  <path class="st29" d="M368.8,505.9l2.1-1.1c2.2-1.1,4.9-.3,6.1,1.9l6.6,12.6c1.1,2.2.3,4.9-1.9,6.1l-2.1,1.1c-2.2,1.2-4.9.3-6.1-1.9l-6.6-12.6c-1.1-2.2-.3-4.9,1.9-6.1h0Z"/>
  <path class="st34" d="M244.7,532.4l2.1-1.1c2.2-1.2,4.9-.3,6.1,1.9l6.6,12.6c1.1,2.2.3,4.9-1.9,6.1l-2.1,1.1c-2.2,1.2-4.9.3-6.1-1.9l-6.6-12.6c-1.1-2.2-.3-4.9,1.9-6.1h0Z"/>
  <path class="st34" d="M274,532.4l2.1-1.1c2.2-1.2,4.9-.3,6.1,1.9l6.6,12.6c1.1,2.2.3,4.9-1.9,6.1l-2.1,1.1c-2.2,1.2-4.9.3-6.1-1.9l-6.6-12.6c-1.1-2.2-.3-4.9,1.9-6.1h0Z"/>
  <path class="st23" d="M303.3,532.4l2.1-1.1c2.2-1.2,4.9-.3,6.1,1.9l6.6,12.6c1.1,2.2.3,4.9-1.9,6.1l-2.1,1.1c-2.2,1.2-4.9.3-6.1-1.9l-6.6-12.6c-1.1-2.2-.3-4.9,1.9-6.1h0Z"/>
  <path class="st23" d="M332.6,532.4l2.1-1.1c2.2-1.2,4.9-.3,6.1,1.9l6.6,12.6c1.1,2.2.3,4.9-1.9,6.1l-2.1,1.1c-2.2,1.2-4.9.3-6.1-1.9l-6.6-12.6c-1.1-2.2-.3-4.9,1.9-6.1h0Z"/>
  <path class="st29" d="M362,532.4l2.1-1.1c2.2-1.2,4.9-.3,6.1,1.9l6.6,12.6c1.1,2.2.3,4.9-1.9,6.1l-2.1,1.1c-2.2,1.2-4.9.3-6.1-1.9l-6.6-12.6c-1.1-2.2-.3-4.9,1.9-6.1h0Z"/>
  <path class="st30" d="M267.7,555.9l2.1-1.1c2.2-1.2,4.9-.3,6.1,1.9l6.6,12.6c1.1,2.2.3,4.9-1.9,6.1l-2.1,1.1c-2.2,1.2-4.9.3-6.1-1.9l-6.6-12.6c-1.1-2.2-.3-4.9,1.9-6.1h0Z"/>
  <path class="st30" d="M237.1,555.9l2.1-1.1c2.2-1.2,4.9-.3,6.1,1.9l6.6,12.6c1.1,2.2.3,4.9-1.9,6.1l-2.1,1.1c-2.2,1.2-4.9.3-6.1-1.9l-6.6-12.6c-1.1-2.2-.3-4.9,1.9-6.1h0Z"/>
  <path class="st23" d="M297.9,555.4h0c2.8-1.5,6.2-.4,7.7,2.4l5.5,10.5c1.5,2.8.4,6.2-2.4,7.7h0c-2.8,1.5-6.2.4-7.7-2.4l-5.5-10.5c-1.5-2.8-.4-6.2,2.4-7.7Z"/>
  <path class="st23" d="M326.1,555.9l2.1-1.1c2.2-1.2,4.9-.3,6.1,1.9l6.6,12.6c1.1,2.2.3,4.9-1.9,6.1l-2.1,1.1c-2.2,1.2-4.9.3-6.1-1.9l-6.6-12.6c-1.1-2.2-.3-4.9,1.9-6.1h0Z"/>
  <path class="st23" d="M355.3,555.9l2.1-1.1c2.2-1.2,4.9-.3,6.1,1.9l6.6,12.6c1.1,2.2.3,4.9-1.9,6.1l-2.1,1.1c-2.2,1.2-4.9.3-6.1-1.9l-6.6-12.6c-1.1-2.2-.3-4.9,1.9-6.1h0Z"/>
  <path class="st33" d="M202.1,345.1c4.6,11.8,9.1,23.6,13.7,35.4,1.8,4.6,3.6,9.3,3.9,14.2.4,6.9-2,13.6-3.1,20.4-.6,3.3-.8,6.7.1,9.9.9,3.2,3.1,6.2,6.2,7.3,5.1,1.9,10.6-1.5,14.3-5.5,9.7-10.4,8.2-13.9,11.6-27.6,1-4.4,11.3-11.7,5.7-20.8-2.1-3.3-9-6.6-11.2-9.8-.8-1.1-1.1-2.6-1.5-3.9-2.4-9-4.7-18.1-7.1-27.1-.2-.7-.4-1.3-.9-1.7-.4-.3-1-.3-1.5-.3-10.4.3-20.7,3.1-29.9,7.9"/>
  <path class="st18" d="M51.5,379.5c16.1,16.8,59.4,50.4,70.3,50.6,25.9.4,78.2-34.7,78.2-34.7l-7.2-15.8-66.5,15.7s-50.9-47.6-56.8-55.5c0,0-11-15.6-24.7,4.2"/>
  <path class="st39" d="M126,395.2c-2.4.7-3.8,3.5-4.6,5.6-.7,2-1.5,5.1-.1,7.1.3.5,1.5,0,1.1-.5-.6-.8-.6-1.8-.6-2.7s.3-2.4.7-3.5.9-2.2,1.6-3.2c.5-.7,1.2-1.5,2.1-1.8.7-.2.5-1.1-.2-.9h0s0,0,0,0Z"/>
  <path class="st6" d="M55.8,387c15.7-1.5,27.3-16.8,38.6-27.7,1-1,2-2,2.6-3.3,1.5-3.4-.9-7.1-3.2-10.1-5.7-7.5-11.4-14.9-18.6-20.9-7.2-6-6-13.8-15.4-14.1-.8,0,4.8-4.8,4-4.4-.8.4-15.1,11.6-15.8,12.2-9,7-13,21.1-12.3,30.3,1.2,13.9,6.7,22.2,14.4,33.8"/>
  <path class="st13" d="M88.2,365.5c3.1-1,6.2-1.9,9.4-2.9.2,0,.4-.2.4-.4,0-1-.6-2-1-2.9-.7-1.3-1.6-2.5-2.4-3.8s-1.8-2.4-2.6-3.6c-.8-1-1.4-2.1-2-3.2-2.2-3.9-4.9-7.7-7.7-11.3-2.4-3.1-4.8-6.2-7.8-8.8-3.3-2.9-7.4-4.8-11.8-4.7-.6,0-.8.8-.1.8,8-.2,13.6,6.7,18.1,12.4,2.7,3.5,5.3,7,7.5,10.8.8,1.3,1.4,2.6,2.2,3.8.8,1.1,1.5,2.2,2.3,3.2.9,1.3,1.9,2.7,2.7,4.1.6.9,1.4,2.1,1.4,3.3l.4-.4c-3.1.9-6.3,1.8-9.4,2.9-.7.2-.5,1,.2.8h0,0Z"/>
  <path class="st13" d="M56.7,388.5c-.5-.2-1-.7-1.4-1.1-.4-.4-.9-.8-1.3-1.3-1.6-1.6-3-3.5-4.3-5.3-.3-.4-1.3,0-1,.5,1.4,1.9,2.8,3.7,4.4,5.4.4.5.9.9,1.4,1.4.4.4.9.9,1.5,1.1.3.1.6,0,.8-.2s.1-.5-.2-.5h0Z"/>
  <path class="st6" d="M60.1,394.3s4.7.5,22.8-13.9c18.2-14.4,17.3-16.8,17.3-16.8l-5.5-7s-5.7,8.7-18.5,18.6c-12.8,9.9-22.5,12.3-22.5,12.3l6.3,6.7h0Z"/>
  <path class="st13" d="M59.8,394.5c.4,0,.8,0,1.2-.1,1-.2,2.1-.7,3.1-1.1,5.5-2.5,10.5-6.1,15.2-9.7,3.9-2.9,7.6-6,11.3-9.1,2.2-1.9,4.5-3.9,6.6-6.1,1-1,2-2.1,2.8-3.3.3-.4.7-.9.7-1.4s-.5-.9-.8-1.2l-4.4-5.6-.3-.4c-.2-.2-.9,0-1,.2-.8,1.2-1.7,2.4-2.6,3.5-2.6,3.1-5.4,6-8.3,8.7-7.3,6.7-15.6,12.7-24.7,16.7-1.6.7-3.2,1.4-4.9,1.8-.1,0-.7.2-.4.4l6.3,6.7c.2.2,1.3-.2,1-.4-2.1-2.2-4.2-4.4-6.3-6.7l-.4.4c1.4-.4,2.8-.9,4.2-1.5,3.7-1.5,7.2-3.3,10.5-5.4,8.6-5.3,16.5-12,23.1-19.7,1.2-1.4,2.5-2.9,3.4-4.5-.3,0-.7.2-1,.2,1.2,1.5,2.4,3,3.6,4.5.6.8,1.2,1.5,1.8,2.2,0,0,.1.2.1.1h0v.2c0,.2-.2.5-.3.6-.6,1-1.3,1.8-2.1,2.7-1.6,1.8-3.4,3.5-5.3,5.1-3.2,2.9-6.5,5.6-9.9,8.3-5.4,4.2-11,8.5-17,11.6-.7.4-1.4.7-2.1,1-.3.1-.5.2-.8.3-.2,0-.4.1-.6.2-.2,0-.3.1-.5.2-.2,0,.1,0-.1,0h-.2c-.1,0-.3,0-.2,0h-.2c-.1,0,.2,0,0,0-.2,0-.6,0-.8.2-.1.2-.2.3.1.3h0Z"/>
  <path class="st6" d="M162.6,378.8s4.4-.8,15.4-18.5c11.1-17.8,9.4-19.5,9.4-19.5l-7.5-4.7s-1.9,9.3-9.8,21.4-15.7,17-15.7,17l8.2,4.2h0Z"/>
  <path class="st13" d="M162.5,379.1c1.4-.2,2.6-1.4,3.6-2.3,1.5-1.4,2.9-3,4.2-4.6,2.2-2.8,4.3-5.8,6.2-8.7,2.4-3.6,4.6-7.3,6.7-11,1.3-2.2,2.5-4.5,3.5-7,.5-1.1,1-2.3,1.2-3.5,0-.3.2-.9,0-1.2,0,0,0-.1,0-.2-.1-.1-.3-.2-.4-.3l-1.1-.7-5.6-3.5-.4-.3c-.2-.2-1,0-1,.3-.3,1.3-.7,2.6-1.1,3.8-1.1,3.4-2.6,6.7-4.2,10-4.1,7.9-9.4,15.6-16.1,21.5-.9.8-1.9,1.6-2.8,2.3-.3.2-.6.4-.8.5,0,0-.4.3-.2.1-.1,0-.3.2-.1.3,2.7,1.4,5.4,2.8,8.2,4.2.3.1,1.3-.3.9-.5-2.7-1.4-5.4-2.8-8.2-4.2v.3c1-.7,2.1-1.5,3.1-2.4,2.7-2.3,5.2-4.9,7.5-7.6,5.8-7,10.5-15.2,13.5-23.7.6-1.6,1.1-3.2,1.5-4.9-.3.1-.7.2-1,.3,1.4.9,2.9,1.8,4.3,2.7.9.5,1.8,1.1,2.6,1.6.2.1.4.2.6.3h0c.1.2,0,.5,0,.7-.1.9-.4,1.8-.7,2.6-.7,2-1.7,3.8-2.6,5.7-1.8,3.3-3.7,6.5-5.6,9.7-3.4,5.5-7.1,11.2-11.6,15.9-.9.9-1.8,1.8-2.9,2.5-.3.2-.4.3-.7.4-.1,0,0,0,0,0h-.1c-.2.1.1,0,0,0s0,0,.1,0c-.2,0-.6.1-.7.3s.3.2.4.2h0c0,.1,0,.1,0,.1Z"/>
  <g class="st21">
    <g>
      <path class="st16" d="M211.7,414.6c2.4-.8,4.9-.2,7.3.3s4.8,1,7.2,1.3c4.9.5,9.9.4,14.7-.3,2.7-.4,5.5-1.1,8.1-2,.3-.1.9-.3.8-.8-.1-.4-.7-.4-1-.3-4.7,1.5-9.5,2.4-14.4,2.5-2.5,0-4.9,0-7.3-.3-2.5-.3-4.9-.8-7.4-1.4-2.7-.6-5.5-1-8.2-.2-.3.1-.9.3-.8.8s.7.4,1,.3h0s0,0,0,0Z"/>
      <path class="st16" d="M213.3,408c3-1.3,6.4-.7,9.5-.5,3,.1,5.9.2,8.9,0,5.9-.3,11.8-1.2,17.3-3.4,3.2-1.3,6.1-3,8.8-5,.3-.2.2-.4-.2-.5-.4,0-.9.1-1.3.3-9.4,7.3-21.7,8.2-33.2,7.7-3.6-.2-7.2-.5-10.6.9-.2.1-.7.3-.5.6s.9,0,1.1,0h0,0Z"/>
      <path class="st16" d="M214.5,400c6-1.6,12.4-2,18.5-2.9,6.4-.9,13-2.1,18.7-5.3,3.1-1.7,5.9-3.9,7.9-6.8.2-.3-.2-.3-.4-.3-.3,0-1,.1-1.1.4-3.7,5-9.1,7.8-15,9.4-6.2,1.6-12.6,2.2-18.9,3-3.3.4-6.6.9-9.9,1.8-.2,0-.9.3-.8.5s.8.1,1,0h0Z"/>
      <path class="st16" d="M216.8,389.9c11.4-1.4,23.4-3.2,33.3-9.6,2.7-1.8,5.2-3.9,7.3-6.4.3-.3-.2-.3-.4-.3-.4,0-.9.2-1.1.4-3.7,4.2-8.3,7.3-13.4,9.5-5,2.1-10.4,3.4-15.8,4.3-3.2.5-6.3,1-9.5,1.4-.2,0-1,.2-1,.5,0,.3.6.2.7.2h0Z"/>
      <path class="st16" d="M211.7,381.9c6.1-1,12.3-1.3,18.3-3.1,4.9-1.5,9.9-3.3,14.4-5.9,2.5-1.4,4.8-3,6.7-5.1.3-.3-.2-.5-.5-.5-.4,0-.9.2-1.1.5-3.3,3.6-7.9,5.8-12.3,7.5-2.2.9-4.4,1.7-6.7,2.4-2.8.9-5.7,1.5-8.6,1.9-3.3.5-6.6.8-9.9,1.4-.3,0-.9.2-1,.6s.5.4.8.3h0Z"/>
      <path class="st16" d="M208.7,372.9c9.7-1,19.8-2.5,28.4-7.4,2.4-1.4,4.7-3,6.8-4.9.9-.8-.5-1.4-1.1-.8-7.1,6.5-16.4,9.3-25.8,10.7-2.7.4-5.4.8-8.1,1-.4,0-.9.3-1,.7s.4.7.8.6h0s0,0,0,0Z"/>
      <path class="st16" d="M205.6,364.9c10.2-3.4,21.5-3.6,30.8-9.5,2.3-1.5,4.4-3.3,6.1-5.4.7-.9-1-1.1-1.5-.5-6.4,8.1-17.1,9.9-26.5,11.9-3.1.7-6.2,1.4-9.1,2.4-.3.1-.8.4-.7.8.1.4.7.5,1,.4h0,0Z"/>
      <path class="st16" d="M204.2,353.5c9.9-1.1,20.1-2.6,29.1-6.9,2.6-1.2,5-2.6,7.3-4.3.3-.2.2-.5-.2-.5-.4-.1-.9.1-1.3.3-7.8,5.7-17.3,8.1-26.7,9.5-2.7.4-5.4.7-8.1,1-.3,0-1,.2-1,.5,0,.4.6.3.8.3h0s0,0,0,0Z"/>
      <path class="st16" d="M212.7,421.6c7.4,2.9,15.4,4.2,23.4,3.1,2.3-.3,4.6-.9,6.8-1.6.2,0,.7-.3.6-.5s-.9,0-1.1.1c-9.1,3-19,1.8-27.9-1.6-.3-.1-.8,0-1.1.1,0,0-.8.4-.6.5h0Z"/>
    </g>
  </g>
  <path class="st18" d="M241.8,367.3c.2-.2.4-.4.4-.6.9-2.4-2.6-3.9-4.8-2.1-3.6,2.9-8.4,6.7-9.2,6.8s-6.1,1-10.9,1.9c-1.8.4-3.5-.2-4.4-1.3-.5-.3-.9-.9-1.1-1.6-.2-.5-.3-1-.4-1.5-.8-1.3-1.1-3-1.7-4.5-2.5,1.1-5.1,2.7-7.4,4.2-3.2,2.4-9.8,11.3-9.8,11.3l-12.6,3.7,5.5,17.1,11.8-4.9,12.4-.3s22.7-4.8,25.1-7,4.3-8.4,4.3-8.4c3.6-2.5,3-7.5,3-7.5,4.6-5.6-.3-5.4-.3-5.4h.2s0,0,0,0Z"/>
  <path class="st1" d="M219.2,379c1.3.2,2.7.1,4,0,3.3-.2,6.5-1,9.5-2.4,2.9-1.6,5.2-3.8,6.9-6.3.8-1,1.4-2,1.9-3.1"/>
  <path class="st1" d="M221.2,383.2c1.1.3,2.4.3,3.7.1,1.3-.1,2.7-.3,4-.6,1.6-.3,3.3-.9,4.7-1.8,1.3-.9,2.5-2,3.6-3.1l2.6-2.7c.9-.8,1.6-1.6,2.2-2.6"/>
  <path class="st1" d="M224.1,388.1c0,.3,4.1-.5,8.9-1.8.7-.2,1.3-.5,1.8-.9.4-.3.9-.7,1.3-1.1.7-.7,1.3-1.3,1.9-2,.9-1.2,1.2-2.1,1.1-2.1"/>
  <path class="st39" d="M208.7,364.4c-7.7,2.6-12.1,9.4-16.8,15.6l.7-.3c-5.1,1-10.2,2.1-15.3,3.2-.7.2-1.4.3-2.1.4-.1,0-.7.1-.7.3s.4.1.5.1c3.9-.8,7.8-1.6,11.7-2.4l5.5-1.1c.1,0,.2,0,.3,0,.9-.2,1.4-1.1,1.9-1.9,1.3-1.6,2.5-3.3,3.8-4.9,3-3.7,6.5-7,11.1-8.5.1,0,.5-.2.4-.3-.1-.2-.7,0-.8,0h0s0,0,0,0Z"/>
</svg>