<?xml version="1.0" encoding="UTF-8"?>
<svg id="Layer_1" data-name="Layer 1" xmlns="http://www.w3.org/2000/svg" xmlns:xlink="http://www.w3.org/1999/xlink" viewBox="0 0 637.3 635.8">
  <defs>
    <style>
      .cls-1, .cls-2, .cls-3 {
        fill: none;
      }

      .cls-4 {
        fill: #7ac143;
      }

      .cls-5 {
        fill: #a99231;
      }

      .cls-6 {
        fill: #622515;
      }

      .cls-7 {
        fill: #010101;
      }

      .cls-8 {
        fill: #273339;
      }

      .cls-9 {
        fill: #5e5f5f;
      }

      .cls-10 {
        fill: #653c29;
      }

      .cls-11 {
        fill: #231f20;
      }

      .cls-12 {
        fill: #3d469d;
      }

      .cls-13 {
        fill: #13110f;
      }

      .cls-14 {
        fill: #f1edf6;
      }

      .cls-15 {
        fill: #ee3326;
      }

      .cls-16 {
        fill: #643c2a;
      }

      .cls-17 {
        fill: #a66e53;
      }

      .cls-18 {
        fill: #cf75af;
      }

      .cls-19 {
        fill: #fff;
      }

      .cls-20 {
        fill: #070505;
      }

      .cls-21 {
        fill: #513835;
      }

      .cls-22 {
        fill: #1d170f;
      }

      .cls-2 {
        stroke: #010101;
        stroke-width: 3.3px;
      }

      .cls-2, .cls-3 {
        stroke-miterlimit: 10;
      }

      .cls-23 {
        fill: #ccb631;
      }

      .cls-24 {
        fill: #82236b;
      }

      .cls-25 {
        fill: #ababab;
      }

      .cls-26 {
        fill: #50b4e6;
      }

      .cls-27 {
        fill: #f99e1d;
      }

      .cls-28 {
        fill: #a53b23;
      }

      .cls-29 {
        fill: #706027;
      }

      .cls-30 {
        clip-path: url(#clippath);
      }

      .cls-31 {
        fill: #4f2e25;
      }

      .cls-3 {
        stroke: #4f2e25;
        stroke-width: 2px;
      }
    </style>
    <clipPath id="clippath">
      <path class="cls-1" d="M573.06,585.01c-7.74-21.42-12.47-30.08-13.05-52.94,0-.06-1.1.17-.87-5.48-.17-3.46-2.71-11.26,0-13.51,2.66-2.19,8.72-3.98,8.72-5.95.17-21.36,2.31-42.78-12.87-60.15-8.72-9.99-19.74-14.14-32.1-17.84-12.3-3.69-20.96-7.68-20.96-7.68,0,0-10.68,34.46-45.26,30.71-26.55-2.89-13.16-29.27-13.16-29.27l-1.39.58c-14.84,3.12-28.75,3.23-45.72,28.17-5.54,8.14-17.61,20.55-24.94,25.23.98.12,10.97,34.41,31.98,49.01l8.72-6.81s14.95,42.2,12.93,53.4c-2.94,16.74,46.41,42.55,86.94,33.71,40.52-8.83,54.15-5.2,54.15-5.2l3.35-.75,3.46-15.3.06.06Z"/>
    </clipPath>
  </defs>
  <path class="cls-18" d="M547.49,557.3s22.28,29.33,29.56,59.81c7.27,30.48,4.91,69.91-19.86,80.47-24.71,10.56-189.35,3.75-189.35,3.75l-9.18-81.63s33.6-40.58,44.91-52.42c0,0,101.31,40.81,114.7,35.39,13.39-5.43,34.35-28.11,34.35-28.11"/>
  <path class="cls-15" d="M484.97,634.19c-19.4,1.79-33.66,18.99-31.81,38.39l4.16-.4c-1.62-17.09,10.97-32.21,28.06-33.83,17.09-1.62,32.21,10.97,33.83,28.06l4.16-.4c-1.79-19.4-18.99-33.66-38.39-31.81h0Z"/>
  <path class="cls-23" d="M379.79,478.5c13.57-5.48,28-9.18,42.6-10.28,13.74-1.04-.12-21.24,13.16-17.55l109.39,102.35s-29.04,37.47-27.19,42.89c0,0-76.49-38.68-110.61-64.77-11.89-9.06-37.18-29.56-44.85-50.4,4.27-2.19,13.1-.46,17.55-2.25h-.06Z"/>
  <path class="cls-23" d="M381.29,274.95s12.47,9.87,25.34,33.31c10.68,19.4,27.07,131.16,28.92,147.44-5.02,4.5,8.31,19.69,4.1,24.94-9.81,12.24-3.18,13.1-14.61,23.84-9.53,9.01-33.02,9.06-42.2,4.21-11.14-4.1-18.53-13.1-22.46-20.78-4.27-8.26-13.34-36.37-13.34-36.37l34.23-176.59h0Z"/>
  <path class="cls-21" d="M341.4,611.91h.17c-.06-.17-.17-.29-.23-.46v.46h.06Z"/>
  <path class="cls-17" d="M245.98,509.67c.58-4.91,5.31,1.62,17.55,1.33,0,0-21.47-8.95-16.86-17.9,1.21-2.37,7.22,6,11.78,7.33,4.68,1.39,9.18-.17,9.18-.17,0,0-16.45-9.06-14.26-14.03,1.1-2.48,7.04,1.44,11.78,2.89,4.91,1.5,8.6.58,8.6.58,0,0-9.7-3.58-7.97-8.37,1.73-4.79,11.03-1.5,17.78,1.56,4.27,1.96,14.2,11.78,18.99,17.43,11.26,3.23,38.16-1.79,48.32,1.79l52.24-47.34,27.02,50.63s-61.83,39.54-73.2,38.91c-18.99-1.04-40.7-1.67-61.19-12.24-16.11,3.64-27.94-1.39-31.87-1.73-7.39-.63-13.74-5.08-13.57-8.08.06-1.27,13.16-.46,13.16-.46,0,0-18.18-7.1-17.61-12.01h0l.12-.12Z"/>
  <path class="cls-5" d="M453.33,718.18c-13.39,83.24-25.05,171.8-51.61,254.98,0,0-89.94,7.79-99.46-12.53,0,0,7.74-146.45-19.22-254.4-23.73-95.08-232.01-130.46-204.47-135.02,43.3-7.22,274.72-6,324.77,16.16,33.14,14.72,58.88,75.62,50.05,130.81h-.06Z"/>
  <path class="cls-5" d="M430.99,666.75c3.18-6.41,10.91-2.6,18.3-.17-.98-9.64-2.83-19.11-6.18-28.4-5.31-14.84-13.1-30.6-23.67-41.79-2.48-2.6-20.72-19.11-19.97-21.82-47.05-39.66-115.57-81.92-115.57-81.92,0,0-248.29,83.65-232.35,156.96,21.19,97.16,294.53,74.12,379.5,56.63.4-.12,5.83,50.45,14.14,8.43,1.1-5.31,2.48-10.56,4.04-15.7,3.58-11.66-23.67-21.42-18.3-32.21h.06Z"/>
  <path class="cls-9" d="M318.43,44.45c7.39-4.91,16.57-6.58,23.67-1.44,5.54-15.59,24.01-18.99,39.6-13.51,7.91,3.18,14.66,9.87,23.15,10.1,5.31.17,10.22-2.14,15.41-3.69,21.47-6,42.2,18.42,50.57,39.08,8.37,20.67-1.67,36.37-16.39,53.05-6.81,7.79-8.2,12.93-12.93,22.23-4.45,8.77-16.51,23.67-20.09,32.67-3.58,9.06,6.99,23.96-2.48,21.19l-95.25-49.88c-15.93-2.77-23.73-10.85-26.27-26.79-1.56-10.74.23-10.56,3.46-20.9,3.87-13.68-5.77-28.75.12-41.74,3.41-8.26,10.28-15.01,17.38-20.44h0l.06.06Z"/>
  <path class="cls-28" d="M306.24,39.19s41.04-3.93,83.65,18.01c42.6,21.94,53.92,57.5,54.21,80.07.29,22.51-15.82,39.89-15.82,39.89,0,0,9.99,7.27,32.67-29.96,33.08-54.26-13.1-112.22-27.54-117.53-14.49-5.31-82.38-48.32-127.12,9.53h-.06Z"/>
  <path class="cls-17" d="M304.34,151.99s-4.33,33.02-31.63,56.4c-3,2.54-30.42,9.99-30.42,9.99l28.92,20.72c16.45,11.08,53.05,51.72,72.85,52.13l20.84-23.84s-15.53-16.74-14.78-21.3c.75-4.56,16.34-35.33,16.34-35.33"/>
  <path class="cls-31" d="M352.37,240.14s-6.93-4.1-11.49-7.56c-4.56-3.46-13.39-6.52-28.98-36.14,0,0-2.89,27.82,25.05,44.91,0,0,7.16,4.68,12.7,5.43l2.66-6.64h.06Z"/>
  <path class="cls-17" d="M438.32,97.79c.06.12.17.23.23.4,0-.23-.06-.46-.12-.64l-.12.29h0v-.06ZM449.58,106.39c.12.29.23.52.35.81l.12-.23s-.35-.81-.46-.58h0ZM309.88,192.4c5.83,17.61,23.15,41.16,41.91,49.41,6.7,2.94,13.34,5.25,21.94-.58,8.72-5.95,14.72-7.1,23.55-12.24,8.49-4.91,12.87-8.43,19.17-15.88,6.52-7.74,7.62-10.04,10.97-19.34,1.5-4.16,4.1-10.22,6.23-13.85,2.48-4.21,12.76-20.44,18.07-30.31,5.31-9.93,6.58-32.85,6.58-32.85.75-3-3.69-3.41-4.1-6.29l-1.21-.58s.46.58,0,1.39c-1.39-.98-2.48-2.54-3.18-3.98h0c-2.19,0-3.58-1.73-4.33-3.81-.12.29-.12.98.17,1.1-1.9-.64-3.29-2.31-3.93-3.98-.12.29-.12.98-.23,1.21-1.21-.92-2.19-2.25-3-3.58.12.52,7.27,2.77,7.22,2.94-1.9-.64-.17.98-.98-1.1l-.98-1.73c-1.62-.46-2.02.46-2.66-1.21.17.4.69-3.41.52-3.12-1.79-.87-1.21-.75-2.31-2.31-.12.29-5.72-.64-5.83-.35-1.5-.75-1.79.81-2.42-.87.17.4,1.62-.58,1.79-.17-1.9-.64-3.12.17-3.93-1.91.17.4-4.39-5.89-4.39-5.89-1.9-.64-1.9.12-2.83-1.73.35.81-7.97-4.56-7.91-3.87-1.5-.75.12,6.81-.63,5.43-.12.29-3-2.48-3-2.48-1.62-.46-.06,2.02-.69.35-.12.29-.23,1.21,0,1.39-2.19-.06-3.98-1.62-5.2-3.64.35.81.35,1.56.52,1.96-1.5-.75-2.77-1.04-3.75-2.89-.12.29,0,1.39.35,1.5-1.73-.17-3.41-1.33-4.45-2.89-.12.29.17,1.1.35,1.5-1.33-.29-2.48-.92-3.29-2.31l.35,1.5c-1.21-.58-2.37-.46-3.87-1.91-.12.29.35.81.17,1.1-.87-.46-2.08-1.04-2.83-1.73-.12.29.46,1.27.17,1.1-1.21-.58-2.37-.46-3.52-1.79.17.4.17,1.1.35,1.5-1.21-.58-2.48-.92-3.41-2.02-.12.29-.12.98,0,1.39-1.21-.58-2.37-.46-3.52-1.79-.12.29.17,1.1.35,1.5-1.21-.58-2.48-.92-3.58-1.79-.12.29.35.87.46,1.27-1.21-.58-2.48-.92-3.69-2.19-.29.52-.12.98-.23,1.21-.87-.46-1.33-.98-2.25-1.44l-1.73-.17c-6.81,3.35-20.2-8.72-20.2-8.72-12.82,2.77-19.17,46.41-21.42,51.67-2.25,5.31-5.89,5.31-5.89,5.31-.52-2.66-5.14,2.08-4.96-.52,0-2.37,1.85-4.5,1.9-6.81-.52-5.66-7.1-7.27-11.72-6.12l-.98.64c-7.56,3.87-12.07,25.4-11.55,32.73-4.73,12.01,2.42,23.15,12.3,17.61l-.63,5.31"/>
  <g>
    <path class="cls-7" d="M384.12,192.75c-2.77,0-5.95-1.85-7.45-4.33-.35-.52-2.08-1.04-1.62-.29,2.02,3.23,6.7,5.77,10.28,5.72.35,0,.4-.23.12-.52s-.87-.58-1.27-.58"/>
    <path class="cls-7" d="M374.36,187.03c-1.1-1.44-2.6-2.6-4.16-3.52-.23-.12-.58-.23-.87-.12-.17,0-.29.23-.17.4.52.81,1.39,1.44,2.31,1.9.29.12.69.23.98.12.23-.17,0-.4-.17-.52-.75-.35-1.44-.87-1.85-1.56-.35.12-.69.17-1.04.29,1.39.87,2.71,1.9,3.69,3.18.17.23.63.35.92.35.23,0,.52-.17.35-.4"/>
    <path class="cls-7" d="M367.78,184.03c-1.9-.98-3.75-2.94-3.98-4.85-.35-2.89,2.71-5.66,5.77-5.83.35,0,.29-.29,0-.46-.29-.23-.75-.35-1.15-.29-2.71.17-5.43,2.31-6.12,4.5-.63,2.02.52,4.27,2.54,6,.58.52,1.27.98,1.96,1.33.29.17.87.35,1.1.17.23-.17,0-.4-.23-.52"/>
    <path class="cls-7" d="M388.1,193.5c0-.29.29-.35.4-.23.52.29,1.1.4,1.73.23.06.29.12.58.17.87-1.1-.4-2.31-.58-3.52-.4-.23,0-.46-.17-.58-.4-.06-.17-.12-.46.17-.52"/>
    <path class="cls-7" d="M386.54,193.09c1.39-.17,2.71,0,3.93.46.17.06.35.29.4.46,0,.17,0,.35-.23.4"/>
    <path class="cls-7" d="M391.97,195.75c1.27.58,3.18.46,4.5-.64,2.02-1.73,2.42-4.73,1.56-6.87-.12-.23.12-.4.29-.35.23,0,.46.29.58.52.75,1.9.63,4.27-.58,6.23-1.15,1.79-3,2.54-4.73,2.37-.52,0-1.04-.17-1.56-.4-.17-.12-.46-.35-.46-.64s.23-.29.4-.23"/>
  </g>
  <path class="cls-13" d="M423.03,164.92c2.08,0,3.87,1.73,4.45,3.18.12.35.29,1.27.06,2.48-.29,1.56-1.62,2.89-2.94,3.41-1.79.69-3.81,0-4.96-1.44-1.56-1.9-.98-4.68.4-6.18.23-.29,1.33-1.44,3-1.44"/>
  <path class="cls-13" d="M405.65,163.13s11.14-2.31,15.41-.69c6.23,2.37,11.95,9.35,12.58,13.34,0,0-7.27-9.76-11.72-11.31-4.27-1.5-16.28-1.33-16.28-1.33h0Z"/>
  <path class="cls-13" d="M372.98,140.85c-1.21-1.67-3.98-2.71-5.54-2.31-.35.12-1.39.4-2.19,1.33-1.1,1.15-1.33,3-.92,4.39.52,1.85,2.37,3,4.16,3.06,2.48.06,4.33-2.02,4.68-4.04.06-.35.69-.81-.29-2.19"/>
  <path class="cls-13" d="M381.17,150.38s-6.18-10.22-10.56-12.58c-6.41-3.41-15.99-3.46-19.63-1.39,0,0,12.99-.52,17.43,2.02,4.21,2.42,12.76,11.95,12.76,11.95h0Z"/>
  <path class="cls-25" d="M417.31,141.72c-.46,1.27-.98,2.54-1.44,3.81-.35.98-.75,1.9-1.1,2.89,3.52.4,6.47.98,8.72,1.44,4.68.98,7.04,1.5,9.47,2.89,2.54,1.5,4.39,3.35,5.14,4.1,1.04,1.04,1.73,1.73,2.42,2.83,1.56,2.42,1.73,4.5,2.19,4.5.4,0,.46-1.79.46-1.96.17-4.45-1.96-7.91-2.14-8.2,0,0-1.56-2.66-4.91-5.02-2.25-1.62-9.06-4.79-18.82-7.27"/>
  <path class="cls-25" d="M394.16,128.9c-.69,1.15-1.39,2.31-2.08,3.46-.52.87-1.04,1.79-1.62,2.66-2.77-2.66-5.25-4.79-7.16-6.35-3.98-3.29-6.06-4.96-8.89-6.06-2.94-1.15-5.77-1.62-6.87-1.79-1.56-.23-2.6-.4-3.98-.35-3,.17-4.85,1.27-5.14.92-.23-.35,1.15-1.44,1.27-1.56,3.46-2.77,7.79-3.12,8.14-3.18,0,0,3.23-.29,7.45.98,2.89.92,10.16,4.62,18.88,11.14"/>
  <path class="cls-2" d="M309.88,134.56c-.06-18.7-4.79-20.84-4.79-20.84,0,0-4.79,2.31-6.29,10.33"/>
  <path class="cls-2" d="M306.82,134.96c-4.1-2.25-4.21,7.16-6.18,8.54-1.96,1.39-1.44-4.27.58-10.56,0,0,3.41-8.2,8.14-7.97"/>
  <path class="cls-31" d="M438.04,129.82s-13.8-3.75-24.53-7.97c-10.74-4.16-19.05-13.8-19.05-13.8,0,0,10.97,9.01,19.45,12.35,8.49,3.35,24.13,9.41,24.13,9.41h0Z"/>
  <path class="cls-25" d="M457.49,102c-.06-.23,0,.12,0,0-1.15-4.79-1.21-9.47-2.6-14.2-1.33-4.68-2.77-8.95-4.33-13.51-.12-.29-3.58-1.79-3.64-2.02,0,0-.06-.23-.12-.29,0-.12-.12-.29-.17-.4l-.35-.98c-13.68-13.91-33.31-22.98-53.63-24.71-39.49-3.35-74.18,25.98-77.53,65.46-.29,3.41-3.58,6.29-1.27,9.18s2.94,2.19,6.52,1.39c3.52-1.04,6.75-2.89,9.41-5.37,13.45-11.43,24.59-33.83,27.59-51.26.75,3.81,15.53,6.12,17.72,9.29,8.77,12.58,26.09,15.7,38.68,6.99.52,2.25,1.21,4.5,2.08,6.7,7.97,19.8,23.09,33.89,42.14,29.85.69-.17.23-12.87-.52-15.88h0v-.23Z"/>
  <path class="cls-8" d="M351.1,127.63l-.81,6.41c-.98,4.79-1.85,14.89-1.5,17.9.52,4.27,22.74,16.45,28.52,15.99,5.72-.46,14.55-12.3,17.15-14.78l8.89,4.91c-1.04,4.33-4.16,18.07-3.23,20.55.92,2.48,11.55,7.22,12.76,7.79.98.4,2.37,1.04,3.93,1.62,4.1,1.62,9.24,3.23,11.43,2.48,3.23-1.1,9.64-8.26,15.47-15.12l.92-1.04c.23-.23.4-.4.46-.52h0l1.04-1.21c-10.16-12.58-27.88-19.86-42.08-17.15v.17l-8.66-4.79c-6.87-11.55-22.51-23.5-37.29-24.65h0l-41.74-12.12-1.79,3.35,36.43,10.22h.12ZM401.78,177.91c-.58-1.56,1.33-11.31,3.06-18.82,12.24-2.14,28.23,4.45,37.64,15.01l-.12.17c-3.12,3.69-11.49,13.45-14.66,14.55-3.75,1.27-24.82-8.37-25.92-10.85h0v-.06ZM351.96,152.34c-.06-7.79.58-15.59,1.9-23.26,13.51.29,31.4,12.35,38.22,23.44-4.21,4.73-10.8,13.28-14.89,13.62-5.95.46-24.94-11.08-25.23-13.74h0v-.06Z"/>
  <path class="cls-6" d="M294.99,110.95s-23.9-37.47-.87-58.48c4.45-4.04,4.04-2.31,5.89-6.52,9.7-22.34-.35-20.09,43.3-33.48,43.64-13.39,48.38-11.03,97.5,12.76,25.34,12.24,35.33,28.81,35.96,48.2.29,8.72-1.33,18.01-4.33,27.71,0,0-47.39-36.31-85.96-31.69-38.56,4.62-93.98,47.28-94.21,67.83-.06,5.77,2.71-26.21,2.71-26.21h0v-.12Z"/>
  <path class="cls-28" d="M284.13,78.04s71.35-48.14,132.54-26.32c0,0-71.47-37.41-125.5,2.83l-2.94,6.06c-1.85,3.75-3,7.85-3.46,12.01l-.58,5.37h0l-.06.06Z"/>
  <path class="cls-16" d="M372.63,199.67c-9.24-4.85-23.67-13.8-23.67-13.8,0,0-8.83,24.94,12.58,36.2,21.42,11.26,32.62-13.05,32.62-13.05,0,0-12.3-4.5-21.53-9.41h0v.06Z"/>
  <path class="cls-20" d="M372.69,199.73c-4.39-2.31-20.44-11.49-20.44-11.49,0,0-1.85,16.97,14.03,25.34,17.26,9.06,25.46-5.2,25.46-5.2l-18.99-8.66h-.06Z"/>
  <path class="cls-14" d="M372.57,200.43c-4.39-2.31-17.38-10.04-17.38-10.04,0,0,2.42,7.1,15.59,14.03s19.74,4.68,19.74,4.68l-17.9-8.72h0l-.06.06Z"/>
  <path class="cls-16" d="M395.26,209.49c-.4-.35-1.04-.4-3.12-1.73-3.46-2.19-3.87-3.69-6.41-5.31-4.33-2.71-8.08-2.54-10.04-3.52-1.96-1.04-3.93-4.21-8.6-6.23-2.71-1.21-9.76-3.69-13.57-5.31-2.25-.98-4.39-3.12-4.96-3.29-.75-.17-1.85,5.02,22.74,17.95,24.59,12.93,24.48,7.97,23.9,7.45h.06Z"/>
  <path class="cls-5" d="M52.01,487.45s-50.11,92.02-9.81,161.17c19.22,32.96,76.72,32.9,76.72,32.9l59-67.14,24.59-112.05-150.5-14.89h0Z"/>
  <path class="cls-23" d="M350.46,246.32l33.71,31.63c2.14,2.19,13.68,20.78,15.59,23.15-3.35,13.34-5.89,19.11-7.39,32.73-1.04,9.41-1.85,18.82-2.71,28.23-.92,9.76-2.14,19.45-3.69,29.15-1.62,10.04-3.69,20.03-6.93,29.73-2.77,8.2-7.27,15.24-12.87,21.76-5.25,6.12-11.37,17.61-15.99,24.25-4.5,6.41-12.01,26.09-12.01,26.09-5.54,15.53-.46,16.22-5.48,38.33-.29,1.39-.17-1.39,0,0-16.57,2.25-33.19,5.66-49.82,4.73-8.49-.46-16.91,1.56-25.4,1.96-21.13.92-39.95-8.77-59.4-15.3-17.84-5.95-59.57-5.95-98.83-4.56-39.25,1.39-26.79,3.64-39.08,9.24l-27.59,12.64s7.85-33.6,19.51-52.65c11.66-19.05,74.87-92.13,74.87-92.13,0,0,27.71-157.31,41.56-164.87,41.79-22.8,88.78-25.75,107.78-25.69,0,0,8.2,56.75,44.51,67.89,36.31,11.2,29.73-26.32,29.73-26.32h-.06Z"/>
  <path class="cls-23" d="M184.44,222.53s-39.77,13.8-51.61,49.59c-11.89,35.73-63.67,144.95-50.17,195.81,36.02,66.79,232.12,90.92,232.12,90.92l18.47-35.85-150.21-100.27s6.47-70.77,9.76-100.04c3.29-29.27-2.02-98.14-2.02-98.14l-6.23-1.96-.12-.06Z"/>
  <g>
    <path d="M444.33,271.43l.81-.98c6.87-3.81,12.82-4.45,17.72-.35.06,0,13.68-7.56,23.44,3.75,8.49,9.81,6.52,16.86,6.52,16.86,0,0,6.41,2.14,7.97,4.91,3.58,6.29-1.96,14.03-6.81,17.43-6.64,4.68-12.53,7.27-12.53,7.27,0,0-6.23,1.56-10.97,2.37-4.73.81-12.24-2.94-12.24-2.94,0,0-5.25,6.93-8.6,4.91-1.39-.87-4.39-1.85-7.33-2.77-5.43-1.62-9.35-6.35-9.99-11.95-.12-.87-.17-1.73-.29-2.71,0,0-4.33-4.33.46-10.68,1.04-1.39,2.48-2.89,4.5-4.39,0,0-2.08-2.19-1.62-8.72.17-2.83,3.75-9.06,9.01-12.01h-.06Z"/>
    <path d="M444.73,271.43c.23-.29.46-.64.75-.92.58-.52,1.56-.87,2.19-1.15,1.73-.81,3.58-1.44,5.43-1.73,3.41-.52,6.64.46,9.24,2.66.17.12.58,0,.69-.12,1.21-.69,2.54-1.15,3.87-1.5,3-.87,6.23-1.15,9.29-.46,4.27.92,7.68,3.46,10.39,6.81s4.73,6.87,5.6,10.91c.29,1.56.58,3.35.12,4.91,0,.06,0,.12.06.12,1.33.46,2.6.98,3.87,1.62,2.08,1.1,3.93,2.37,4.73,4.68,1.9,5.37-1.9,11.14-5.77,14.61-2.37,2.08-5.2,3.75-7.91,5.31-1.79,1.04-3.64,2.02-5.54,2.89-.17.06-.35.12-.46.23-.29.12.17,0,0,0-.58,0-1.33.35-1.9.46-2.66.63-5.31,1.21-8.02,1.73-2.83.52-5.54-.06-8.26-.98-1.5-.52-3.06-1.1-4.5-1.79-.23-.12-.69,0-.87.17-1.33,1.79-3.06,3.64-5.08,4.62-.63.29-1.27.52-1.96.35-.75-.17-1.5-.69-2.19-1.04-2.31-.98-4.79-1.56-7.16-2.48-3.93-1.62-6.99-4.96-8.2-9.06-.29-1.04-.46-2.08-.58-3.12-.06-.63,0-1.62-.29-2.14-.52-.81-1.04-1.44-1.33-2.37-1.67-5.08,2.6-9.64,6.29-12.47,0,0,.17-.12.06-.17-.35-.35-.58-.87-.75-1.27-.58-1.39-.81-2.94-.87-4.45-.12-1.79,0-3.52.63-5.2.69-1.67,1.67-3.29,2.77-4.73,1.5-1.9,3.29-3.58,5.43-4.79.52-.29-.29-.29-.52-.12-3.52,2.02-6.41,5.25-8.2,8.95-.75,1.56-1.04,3-1.04,4.68,0,1.85.12,3.75.75,5.48.23.63.52,1.33.98,1.85v-.17c-3.41,2.71-7.45,6.75-6.7,11.6.17,1.21.69,2.37,1.44,3.35.06.12.17.17.23.29.12.23.12.52.12.81.12,1.27.23,2.54.52,3.75,1.04,4.27,4.16,7.85,8.2,9.64,2.48,1.1,5.14,1.62,7.62,2.71.75.35,1.44.87,2.25.98.63.12,1.27,0,1.9-.17,2.66-.75,4.96-3.18,6.58-5.31l-.87.17c3,1.5,6.29,2.66,9.58,3,2.42.29,4.79-.35,7.16-.87,2.08-.46,4.21-.92,6.29-1.44.69-.17,1.27-.4,1.96-.75,1.85-.87,3.64-1.85,5.43-2.89,4.73-2.77,9.41-5.77,12.24-10.68,2.25-3.93,3.12-9.58-.92-12.7-1.5-1.15-3.29-1.96-5.02-2.66-.35-.12-1.04-.23-1.33-.46.12.12.12,0,.12-.23.46-2.6-.17-5.37-1.1-7.74-.92-2.42-2.25-4.68-3.81-6.75-1.73-2.31-3.64-4.39-6.12-5.89-5.83-3.58-13.39-3.06-19.4-.12-.12.06-.29.12-.4.17l.69-.12c-2.89-2.37-6.41-3.23-10.04-2.66-1.96.29-3.87.98-5.72,1.79-.58.23-1.15.52-1.67.81-.35.17-.81.35-1.15.64s-.58.69-.81.98c-.17.23.69.12.87,0h0l.12-.06Z"/>
  </g>
  <path d="M495.47,421.46c-23.78.06-36.83-18.13-50.05-36.66-7.74-10.8-13.45-23.78-13.05-37.35.35-11.72,4.73-23.03,10.04-33.37,4.79-9.29,10.33-17.03,19.63-22.23,8.83-4.96,19.17-7.04,29.33-6.7,3,.12,6.06.35,9.06.69,26.67,2.89,58.48,21.53,64.89,45.95.58,2.19.98,4.56,1.33,6.93,0,0,.46,5.08.23,6.75-4.62,29.73-22.74,82.72-64.71,74.06-3.64-.75-7.04-.92-6.58,1.85h0l-.12.06Z"/>
  <path class="cls-17" d="M425.51,375.4c1.15-7.04,5.54-17.49,8.2-20.55.75-3.18,1.73-6.87,2.83-11.31.35-1.27.69-2.54,1.04-3.75.23-.58.46-1.21.58-1.85,6.7-21.36,16.97-30.65,16.97-30.65,13.1-11.78,31.46-15.7,48.2-10.28,19.86,5.95,34.46,23.03,40.47,37.75,3,7.33,3.18,15.47.52,22.92-2.25,6.35-10.1,11.89-13.8,18.47,7.04,1.62,15.36,6,9.24,18.13-8.43,16.68-21.99,14.55-26.9,9.12-6.64,6.87-8.49,11.49-10.28,16.22-1.85,4.96-3.18,14.89-2.83,17.26l11.37,8.77c-21.76,20.03-76.78,26.67-82.2-14.95l14.61-7.68,1.27-3.41c-.46-.17,1.62.98-5.08-3.41-19.74-14.55-15.59-32.62-14.26-40.87h0l.06.06Z"/>
  <path class="cls-31" d="M443.4,423.37l1.15-3.69s23.61,9.53,41.68,2.02c0,0-13.34,8.08-25.28,6.52-11.95-1.56-17.55-4.85-17.55-4.85h0Z"/>
  <g>
    <path d="M521.28,380.53c-.29.52-.63,1.1-.58,1.67.12.81,1.04,1.27,1.85,1.21s1.56-.46,2.25-.81c4.62-2.37,14.95-5.37,19.45-2.83,12.07-16.45,14.95-35.68,7.79-54.78-2.25-6.06-9.76-13.62-12.01-15.99-13.8-14.43-27.88-17.84-45.78-19.28-26.73-2.14-30.42,2.6-44.68,22.4,0,0,34.87-8.95,61.77,7.74-.92.06,16.8,9.64,16.97,10.04,1.56,3.23-1.44,4.91-2.14,10.68-.52,4.21-1.79,7.16.75,10.56,1.79,2.37,2.71,7.68,1.96,10.56l-7.56,18.88h0l-.06-.06Z"/>
    <path d="M520.47,380.71c-.46.75-.92,1.67-.23,2.48.58.63,1.56.75,2.37.63,1.73-.29,3.35-1.39,4.96-2.08,3.41-1.33,7.04-2.37,10.68-2.48,1.73-.06,3.64,0,5.2.87.35.17,1.27,0,1.56-.35,4.5-6.12,7.97-12.99,9.93-20.32,1.85-7.04,2.31-14.37,1.27-21.59-.52-3.75-1.44-7.5-2.66-11.08-1.04-3.06-2.48-5.72-4.39-8.31-1.79-2.48-3.81-4.79-5.89-7.04-1.85-1.96-3.69-3.93-5.66-5.77-4.85-4.45-10.33-8.14-16.39-10.68-5.83-2.48-12.01-3.87-18.24-4.73-6.35-.87-12.82-1.39-19.22-1.33-4.56,0-9.18.46-13.45,2.02-8.37,3.06-13.74,10.56-18.82,17.49-.92,1.27-1.79,2.48-2.71,3.75-.35.46.63.29.87.23.29-.06.63-.17.92-.23.23,0-.17,0,0,0h.23c.23,0,.4-.12.63-.12.52-.12,1.04-.23,1.62-.29,3.12-.58,6.29-.98,9.47-1.21,9.93-.81,20.03-.29,29.67,2.14,6.41,1.62,12.64,4.1,18.24,7.62l.92-.63c-.23,0-1.1.23-.98.58,0,.12.23.23.35.35.58.46,1.21.81,1.85,1.15,2.19,1.33,4.45,2.6,6.7,3.87,2.25,1.27,4.27,2.42,6.41,3.64.52.29,1.1.58,1.62.98.23.17.29.46.4.87.17.63.17,1.27,0,1.85-.35,1.44-1.15,2.83-1.62,4.21-.75,2.08-.92,4.33-1.27,6.52-.29,1.9-.58,3.87,0,5.72.35.98.98,1.73,1.5,2.66.46.75.81,1.62,1.1,2.48.75,2.42,1.33,5.48.35,7.91-.75,1.79-1.44,3.64-2.19,5.43-1.67,4.21-3.52,8.43-5.08,12.7,0,.12-.06.17-.12.23-.12.35,1.44.17,1.62-.29l4.33-10.85c.87-2.14,1.73-4.33,2.6-6.47.17-.46.4-.98.58-1.5.4-1.15.35-2.42.29-3.64-.12-1.9-.52-3.93-1.33-5.66-.35-.81-.92-1.44-1.33-2.19-.52-.87-.87-1.85-.98-2.89-.23-2.02.35-4.1.63-6.12s.69-3.93,1.56-5.89c.52-1.21,1.15-2.42,1.15-3.75,0-.69-.12-1.67-.75-2.08-1.5-.98-3.12-1.85-4.68-2.71-2.37-1.33-4.73-2.66-7.1-4.04-1.56-.92-3.23-1.73-4.68-2.83l-.17-.17h0c-.12-.35-.46-.17-.92.52.12,0,1.27-.4.92-.63-9.87-6.12-21.36-9.12-32.85-9.93-8.31-.58-16.74-.17-25,1.27-1.62.29-3.23.58-4.79.98l.87.23c3.06-4.27,6.06-8.6,9.53-12.53,2.54-2.89,5.37-5.48,8.77-7.22,3.58-1.79,7.56-2.42,11.55-2.66,6-.29,12.12.17,18.13.81,6.18.69,12.35,1.73,18.18,3.81,5.95,2.08,11.43,5.2,16.34,9.12,4.45,3.58,8.43,7.79,12.07,12.12,2.02,2.42,3.93,4.91,5.37,7.68,1.62,3.06,2.54,6.64,3.29,9.99,1.62,7.1,1.9,14.43.69,21.59-1.21,7.16-3.87,14.03-7.62,20.26-.98,1.62-2.08,3.23-3.18,4.79.52-.12,1.04-.23,1.56-.35-2.77-1.5-6.35-1.15-9.35-.63-3.46.58-6.93,1.62-10.16,3.06-.35.17-.69.29-1.04.46-.46.23-1.04.69-1.62.69s-1.15-.4-1.27-.92c-.17-.63.23-1.27.52-1.73.17-.29-.58-.23-.69-.17-.29,0-.81.17-.98.46h0l.06-.12Z"/>
  </g>
  <circle class="cls-11" cx="440.52" cy="350.86" r="4.56"/>
  <path d="M436.36,345.78c2.48-.75,5.6-.81,9.7.69,6.64,2.48,7.39,11.78,7.39,11.78,0,0-1.85-7.45-8.31-10.04-3.12-1.27-6.47-1.1-9.29-.52.23-.63.4-1.27.52-1.9h0Z"/>
  <path class="cls-22" d="M485.55,347.28s17.09,6,19.17,10.8c0,0-.17-6.29-14.2-12.58,0,0-7.79-1.39-4.96,1.79h0Z"/>
  <path class="cls-22" d="M437.86,334.18c0-.12.06-.29.12-.4,2.89-.17,7.04.12,12.76,1.62,0,0,6.93,3,2.71,3.75,0,0-9.06-3.18-15.76-3.93,0-.35.12-.69.17-.98h0v-.06Z"/>
  <path class="cls-11" d="M534.56,394.5c1.27-1.79,2.19-3.98,2.02-6.23,0-.4,0-.92-.4-1.04-.58-.12-1.27,0-1.79.17-1.21.29-2.37.92-3.41,1.56-2.37,1.44-4.5,3.35-6.52,5.31-.23.17.52.06.58,0,.52-.17,1.21-.29,1.73,0,.69.4.69,1.39.52,2.08-.17.81-.58,1.5-1.21,2.02-1.04.87-2.42.87-3.69.69-.17,0-.46,0-.63.12,0,0-.35.17-.12.23,2.48.4,5.77-.23,6.47-3.06.23-.92.23-2.14-.87-2.42-.81-.23-1.79,0-2.6.29h.58c1.67-1.62,3.46-3.18,5.43-4.56,1.04-.75,2.19-1.44,3.46-1.85.46-.12.87-.23,1.27-.17.12,0,.17.06.12,0,0,0,.12.63.12.75.23,2.25-.69,4.5-1.96,6.29,0,0,.75,0,.87-.17h.06Z"/>
  <circle class="cls-22" cx="483.53" cy="363.22" r="4.56"/>
  <path d="M470.42,362.7s9.06-7.04,16.34-4.39c10.28,3.75,10.22,11.26,11.31,15.18,0,0-4.04-10.74-12.01-13.45-7.27-2.42-15.64,2.66-15.64,2.66h0Z"/>
  <g>
    <path class="cls-7" d="M451.6,379.9c1.1,1.15,3.18,1.73,4.85,1.33.35-.06,1.27.46.81.58-2.19.46-5.14-.46-6.58-1.96-.12-.17-.06-.29.17-.29s.58.12.75.29"/>
    <path class="cls-7" d="M457.95,381.63c1.04-.12,2.14,0,3.18.29.17,0,.35.17.4.29,0,.12,0,.23-.12.23-.58.12-1.21,0-1.73-.17-.17-.06-.4-.17-.4-.35s.17-.17.29-.17c.46.17.92.23,1.39.17.12.17.17.35.29.52-.92-.23-1.9-.35-2.83-.23-.17,0-.4-.12-.52-.23s-.17-.29,0-.29"/>
    <path class="cls-7" d="M461.94,383.19c1.21.4,2.77.35,3.64-.35,1.33-1.04,1.33-3.58.12-4.96-.12-.17,0-.23.17-.23.23,0,.46.17.58.35,1.04,1.21,1.21,3.35.58,4.56-.58,1.1-2.02,1.56-3.52,1.39-.46,0-.92-.12-1.39-.29-.17,0-.46-.23-.52-.4,0-.17.12-.17.29-.12"/>
    <path class="cls-7" d="M449.64,378.57c.12-.12,0-.23-.06-.29-.35-.12-.63-.29-.81-.63-.17.12-.29.17-.46.29.63.29,1.15.75,1.62,1.33.12.12.29.12.4.06.12,0,.23-.17.12-.29"/>
    <path class="cls-7" d="M450.51,379.03c-.46-.63-1.15-1.15-1.79-1.44h-.35c-.12,0-.12.17-.06.23"/>
    <path class="cls-7" d="M447.16,377.82c-.75-.29-1.5-1.15-1.56-2.14-.12-1.56.98-2.94,2.25-3.46.12,0,.12-.17,0-.29s-.29-.06-.46,0c-1.1.46-2.08,1.5-2.37,2.77-.29,1.21.17,2.31.98,2.94.23.17.52.35.81.46.12,0,.35.06.46,0,.12-.12,0-.23-.12-.29"/>
  </g>
  <path class="cls-18" d="M574.62,596.95c-7.74-21.42-13.74-37-14.26-59.86,0-.06-1.15-11.31-1.15-11.43-.17-3.46-.29-8.66-.29-8.66,0,0,5.95-1.5,6-3.52.17-21.36,5.43-44.16-9.81-61.6-8.72-9.99-20.78-14.14-32.1-20.2-12.64-6.81-21.24-10.56-21.24-10.56,0,0-10.39,34.93-44.97,31.17-26.55-2.89-13.16-29.27-13.16-29.27l-1.39.58c-14.84,3.12-28.75,3.23-45.72,28.17-5.54,8.14-17.61,20.55-24.94,25.23.98.12,9.81,32.56,31.98,49.01l8.72-6.81s8.37,23.67,6.35,34.87c-2.94,16.74,52.99,61.08,93.52,52.24,40.52-8.83,54.15-5.2,54.15-5.2l3.29-.92h0l5.02-3.29v.06Z"/>
  <g>
    <path d="M599.5,323.1l1.04.75c4.33,6.58,5.37,12.47,1.62,17.61,0,.06,8.54,13.1-2.08,23.67-9.18,9.18-16.34,7.74-16.34,7.74,0,0-1.67,6.52-4.33,8.31-6,4.04-14.09-.92-17.9-5.54-5.14-6.29-8.14-11.95-8.14-11.95,0,0-2.02-6.12-3.12-10.8-1.15-4.62,2.08-12.41,2.08-12.41,0,0-7.33-4.73-5.54-8.26s3.93-16.16,3.93-16.16c0,0,4.04-1.33,12.18-2.71,0,0,3.98-4.62,10.74-.35,1.44.92,3,2.31,4.73,4.16,0,0,2.02-2.19,8.54-2.25,2.83,0,9.35,3.06,12.58,8.08h0v.12Z"/>
    <path d="M599.1,323.27c.35.23.69.46.98.69.63.58,1.04,1.62,1.44,2.37.92,1.67,1.67,3.46,2.14,5.31.81,3.46.17,6.87-1.91,9.76v.17c.81,1.21,1.39,2.6,1.85,3.98,1.1,2.94,1.62,6.18,1.21,9.29-.52,4.45-2.89,8.14-6.12,11.14-2.89,2.71-6.29,5.08-10.16,6.12-1.39.4-3.12.69-4.5.4-.23,0-.69,0-.75.29-.35,1.33-.81,2.6-1.33,3.87-.92,2.19-2.08,4.21-4.39,5.08-2.71,1.04-5.72.4-8.2-.75-2.48-1.15-4.79-2.83-6.64-4.85-2.14-2.31-3.98-4.96-5.72-7.56-1.04-1.56-2.02-3.18-2.94-4.85-.46-.87-.69-1.9-.98-2.83-.81-2.66-1.62-5.37-2.31-8.08-.63-2.66-.12-5.48.58-8.08.4-1.5.87-3,1.44-4.5v-.12c-1.15-.75-2.25-1.67-3.29-2.66-1.27-1.27-3.06-3.29-2.31-5.25.29-.81.63-1.56.92-2.31.35-1.04.58-2.08.87-3.12.58-2.31,1.04-4.62,1.5-6.93.29-1.33.52-2.66.75-3.98l-.4.29c3.06-1.04,6.23-1.62,9.35-2.19.81-.17,1.62-.29,2.42-.4.35,0,.58-.12.81-.29s.58-.52.87-.69c1.56-1.1,3.46-1.39,5.31-.98,3.35.75,6.12,3.29,8.37,5.77.17.23.69,0,.87-.17-.12.12.17-.17.23-.17.29-.23.58-.4.92-.58,1.44-.69,3.06-.98,4.68-1.15,1.73-.17,3.23-.06,4.85.52,1.62.58,3.35,1.5,4.79,2.6,1.85,1.33,3.52,2.94,4.79,4.85.17.23,1.04,0,.87-.35-2.31-3.46-6-6.18-9.87-7.56-1.67-.58-3.23-.69-4.96-.52-1.79.12-3.64.46-5.31,1.21-.63.29-1.39.63-1.85,1.21.29,0,.58-.12.87-.17-2.77-3.12-6.58-6.35-11.08-6.06-1.9.12-3.98.92-5.25,2.37l.52-.23c-4.1.69-8.37,1.44-12.3,2.77-.12,0-.4.12-.4.29-.35,2.08-.75,4.21-1.21,6.29-.63,3.12-1.21,6.35-2.48,9.29-.23.58-.52,1.04-.52,1.62,0,.69.17,1.33.46,1.9.69,1.39,1.79,2.54,2.94,3.52.46.46.98.87,1.56,1.21.23.17.63.35.87.58.06.06,0-.17,0,0,0,.12-.12.29-.17.4-.23.52-.4,1.1-.58,1.62-1.15,3.52-2.08,7.39-1.15,11.03.58,2.25,1.21,4.45,1.9,6.7.35,1.15.63,2.37,1.1,3.46.29.69.75,1.33,1.1,1.96,1.04,1.73,2.14,3.46,3.29,5.08,2.77,3.93,5.66,7.68,9.93,10.04,3.64,2.02,8.2,2.89,12.01.69,2.71-1.62,3.87-5.14,4.73-7.97.06-.29.17-.52.23-.81l-.75.29c2.14.4,4.56-.23,6.58-.92,2.42-.87,4.68-2.19,6.75-3.75,2.6-1.96,5.14-4.33,6.81-7.22,2.48-4.21,2.83-9.24,1.62-13.91-.4-1.62-1.04-3.18-1.73-4.62-.17-.4-.4-.81-.63-1.15,0,0-.12-.17-.12-.23,0-.12.12,0,.12,0,.12-.35.52-.81.69-1.15,1.62-2.89,1.79-6.12.98-9.24-.52-1.85-1.33-3.58-2.25-5.25-.35-.63-.75-1.5-1.27-2.02-.29-.29-.69-.46-.98-.69-.23-.17-1.1.17-.87.35h0l-.17-.06Z"/>
  </g>
  <path class="cls-24" d="M524.13,446.03c-5.03,2.68-9.77,6.22-12.79,11.14-1.94,3.17-2.94,6.73-3.83,10.3-2.24,8.91-3.87,18.05-4.86,27.19-.4,3.7-.91,7.66-.35,11.38.04.11.11.19.22.23,3.01,1.03,6.02,2.07,9.01,3.18.48.18,1.12.08,1.54-.21.24-.16.7-.65.19-.84-2.49-.92-5-1.79-7.52-2.66-.38-.13-.76-.28-1.14-.39-.07-.02-.22-.05-.27-.09-.03-.03.09.15.1-.14.01-.71-.12-1.45-.14-2.16-.08-4.51.53-9.06,1.15-13.51.75-5.35,1.69-10.68,2.8-15.97.86-4.05,1.73-8.17,3.13-12.08,2.42-6.77,7.91-11.43,14.1-14.72.39-.21.54-.55.19-.84-.37-.3-1.2.03-1.54.21h0Z"/>
  <g>
    <path class="cls-18" d="M412.29,518.27c-1.15-5.37-6.75-21.47-7.91-26.84"/>
    <path class="cls-24" d="M412.92,518.1c-.75-3.35-1.85-6.64-2.83-9.87-1.27-4.04-2.54-8.02-3.75-12.07-.46-1.62-.98-3.23-1.33-4.91-.12-.4-1.39-.06-1.27.35.75,3.35,1.85,6.64,2.83,9.87,1.27,4.04,2.54,8.02,3.75,12.07.46,1.62.98,3.23,1.33,4.91.12.4,1.39.06,1.27-.35h0Z"/>
  </g>
  <g>
    <path class="cls-15" d="M485.14,505.17c-19.4,1.79-33.66,18.99-31.81,38.39l20.61-1.9h0l-16.39,1.56c-1.62-17.09,10.97-32.21,28.06-33.83,17.09-1.62,32.21,10.97,33.83,28.06l4.16-.4c-1.79-19.4-18.99-33.66-38.39-31.81h0l-.06-.06Z"/>
    <path class="cls-27" d="M485.43,508.29c-17.78,1.67-30.88,17.43-29.21,35.21l3.87-.35c-1.44-15.64,10.04-29.56,25.69-31,15.64-1.44,29.56,10.04,31,25.69l3.87-.35c-1.67-17.78-17.43-30.88-35.21-29.21h0Z"/>
    <path class="cls-4" d="M485.72,511.4c-15.64,1.44-27.19,15.36-25.69,31l13.62-1.27h0l-10.22.98c-1.27-13.8,8.83-26.04,22.63-27.31,13.8-1.27,26.04,8.83,27.31,22.63l3.41-.29c-1.44-15.64-15.36-27.19-31-25.69l-.06-.06Z"/>
    <path class="cls-26" d="M486.01,514.81c-13.8,1.27-23.96,13.51-22.63,27.31l10.22-.98h0l-7.22.69c-1.15-12.12,7.79-22.92,19.97-24.07,12.12-1.15,22.92,7.79,24.07,19.97l3-.29c-1.27-13.8-13.51-23.96-27.31-22.63h-.12Z"/>
    <path class="cls-12" d="M486.3,517.75c-12.12,1.15-21.07,11.89-19.97,24.07l7.27-.69h0l-4.62.46c-.98-10.68,6.87-20.2,17.55-21.19,10.68-.98,20.2,6.87,21.19,17.55l2.6-.23c-1.15-12.12-11.89-21.07-24.07-19.97h.06Z"/>
    <g>
      <path class="cls-19" d="M448.72,548.17c-2.02-.63-3.35-3-2.71-5.02s3.18-3.23,5.14-2.37c.52-1.27,1.04-2.6,1.9-3.69s2.14-1.96,3.52-2.02c1.33,0,2.66.63,3.52,1.67.23.29.46.63.87.81.75.35,1.56-.29,2.25-.69,2.25-1.27,5.43-.4,6.75,1.79.23.35.4.75.63,1.04.35.46.81.75,1.27,1.1.98.69,1.9,1.56,2.42,2.71.52,1.15.4,2.54-.46,3.41-.46.46-1.15.69-1.79.87-1.44.4-3,.52-4.5.4-.35,0-.75-.12-1.1,0-.58.23-.87.87-1.15,1.39-.75,1.15-2.14,1.85-3.52,1.79-1.39-.06-2.71-.92-3.35-2.14-.17-.35-.35-.69-.69-.81-.35-.06-.63.12-.92.35-1.33.98-2.89,1.79-4.5,1.79s-3.35-.98-3.81-2.6"/>
      <path class="cls-11" d="M448.72,548.06c-1.56-.46-2.71-2.02-2.77-3.64-.12-1.62.98-3.06,2.54-3.58.81-.29,1.73-.29,2.6,0,.06,0,.12,0,.17-.06.81-2.02,1.79-4.27,3.93-5.25.98-.46,2.08-.46,3.06,0,.52.23.98.52,1.33.87.4.35.63.81,1.04,1.1.92.69,1.96-.12,2.77-.58.75-.4,1.67-.58,2.54-.52.87.06,1.73.35,2.48.81.35.23.69.52.98.87.35.35.58.81.81,1.21.29.52.63.87,1.04,1.21s.92.63,1.33.98c.81.69,1.56,1.5,1.79,2.54.23.92.12,2.02-.58,2.77-.4.4-.92.63-1.44.81-.58.17-1.15.29-1.79.4s-1.27.12-1.9.12h-.92c-.29,0-.58-.06-.87-.06-.52,0-.87.23-1.21.63s-.52.87-.81,1.21c-.63.81-1.62,1.33-2.66,1.44s-2.02-.23-2.83-.87c-.4-.29-.69-.69-.98-1.15-.17-.35-.35-.81-.81-.92-.52-.12-.98.35-1.39.63-.46.35-.98.63-1.5.87-.98.46-2.14.75-3.23.58-.92-.12-1.79-.58-2.42-1.27-.29-.35-.52-.75-.63-1.21,0-.12-.23-.06-.23,0,.52,1.96,2.71,2.89,4.56,2.66,1.15-.12,2.19-.63,3.18-1.21.23-.17.52-.35.75-.52.23-.17.52-.4.81-.35.23,0,.4.29.52.52s.23.46.4.63c.58.81,1.44,1.39,2.37,1.62.92.23,2.02.12,2.89-.35.46-.23.87-.58,1.21-.92s.52-.81.81-1.27c.12-.17.35-.4.58-.52.29-.12.63-.12.92-.12.63,0,1.27.12,1.9.06,1.21,0,2.48-.23,3.64-.69.46-.17.92-.46,1.27-.87.29-.35.46-.81.58-1.27.17-1.04-.17-2.02-.75-2.83-.63-.92-1.56-1.56-2.42-2.19-.23-.17-.46-.35-.69-.58s-.4-.52-.52-.81c-.23-.4-.46-.87-.81-1.21-.58-.63-1.39-1.15-2.19-1.44s-1.73-.35-2.6-.23c-.46.06-.87.23-1.27.4-.52.23-.92.58-1.44.81-.29.12-.52.17-.81.06s-.46-.29-.69-.46c-.35-.4-.69-.81-1.1-1.1-.87-.63-1.9-1.04-2.94-.92-2.31.23-3.75,2.25-4.68,4.16-.23.52-.46,1.04-.69,1.62h.17c-1.56-.75-3.41-.17-4.5,1.04-1.21,1.33-1.15,3.29-.23,4.73.52.81,1.33,1.44,2.25,1.73.12,0,.17-.17,0-.23h0l.12.12Z"/>
    </g>
    <g>
      <path class="cls-19" d="M527.98,538.36c-.4-.35-.92-.58-1.21-1.04-.23-.4-.17-.87-.23-1.33-.17-2.42-3.29-4.1-5.43-2.89-.23.12-.4.29-.63.29-.81.12-1.1-.98-1.44-1.73-.69-1.62-2.71-2.37-4.33-1.9-1.67.46-2.89,2.02-3.35,3.64-.63-1.56-2.66-2.31-4.16-1.62s-2.19,2.77-1.39,4.21l-1.04.58c-.12.46-.35.92-.75,1.39-.35.4-.75.75-1.15,1.1-.4.75-.52,1.62-.23,2.42.46,1.21,1.79,1.96,3.06,2.02,1.27,0,2.54-.46,3.75-.98.29-.12.58-.29.92-.23.58.12.75.81.98,1.33.75,1.73,3,2.48,4.79,1.9s3.18-2.08,4.1-3.69c1.15.98,2.83,1.1,4.39.92,1.21-.12,2.42-.46,3.29-1.33.87-.87,1.04-2.42.17-3.23h0l-.12.17Z"/>
      <path class="cls-11" d="M528.09,538.3c-.35-.29-.75-.46-1.04-.81-.35-.4-.29-.92-.35-1.39,0-.69-.35-1.39-.75-1.9-.87-1.1-2.37-1.73-3.75-1.5-.35,0-.69.17-.98.29-.35.17-.75.52-1.15.23-.29-.17-.46-.58-.58-.92s-.23-.69-.46-1.04c-.75-1.33-2.48-1.96-3.98-1.67-1.9.35-3.29,2.02-3.75,3.81h.17c-.52-1.27-1.9-2.02-3.29-1.96-1.39.12-2.42,1.15-2.71,2.48-.17.75-.12,1.5.29,2.19v-.17c-.17.12-.35.23-.58.35l-.35.17c-.12.06-.12.12-.17.23-.17.58-.52,1.04-.98,1.5l-.63.63c-.12.12-.23.17-.29.29s-.12.29-.17.4c-.35.98-.23,2.14.46,2.89.58.69,1.5,1.04,2.42,1.15,1.15.12,2.31-.23,3.35-.69.29-.12.58-.29.87-.4s.58-.17.87,0c.4.23.52.75.69,1.15.69,1.62,2.54,2.37,4.16,2.19,1.96-.23,3.52-1.67,4.56-3.29.12-.23.29-.4.4-.63h-.17c1.33,1.1,3.12,1.21,4.73.98,1.56-.23,3.29-.87,3.69-2.54.17-.75.06-1.62-.52-2.19-.12-.12-.23,0-.17.17.52.46.63,1.21.46,1.85-.17.69-.58,1.33-1.21,1.73s-1.39.63-2.14.75-1.56.17-2.31.12c-.87-.12-1.79-.35-2.48-.92h-.17c-.92,1.67-2.31,3.23-4.21,3.69-1.62.4-3.58-.17-4.39-1.67-.35-.63-.52-1.79-1.5-1.62-.29,0-.52.17-.75.29-.29.12-.58.23-.81.35-.52.23-1.1.4-1.62.46-.98.17-2.02.06-2.89-.46-.87-.52-1.44-1.44-1.33-2.54,0-.29.12-.58.23-.87,0-.17.12-.29.23-.4s.23-.23.35-.29c.4-.4.81-.75,1.1-1.27.12-.23.23-.46.29-.69v-.17h.12l.69-.46.17-.12s.06-.12,0-.17c-.58-1.1-.35-2.54.52-3.46.87-.98,2.31-1.1,3.46-.52.63.29,1.15.81,1.44,1.5,0,.12.17,0,.17,0,.46-1.62,1.62-3.12,3.29-3.58,1.44-.4,3.29.12,4.04,1.5.35.58.46,1.39.98,1.85.23.23.52.29.81.23.23,0,.4-.17.63-.29.17-.12.35-.17.46-.23,1.33-.46,2.89,0,3.87,1.04.58.58.92,1.33.92,2.14,0,.46,0,.98.35,1.33s.75.58,1.1.87c.12.12.29,0,.17-.17h0l.12.23Z"/>
    </g>
  </g>
  <path class="cls-27" d="M476.54,465.16l3.23,5.25c.23.4.63.63,1.1.69l6.18.29c1.15,0,1.73,1.44.98,2.31l-3.98,4.68c-.29.35-.4.81-.29,1.27l1.62,5.95c.29,1.1-.81,2.08-1.9,1.67l-5.72-2.37c-.4-.17-.92-.12-1.27.12l-5.14,3.35c-.98.63-2.25-.12-2.14-1.27l.46-6.12c0-.46-.17-.92-.52-1.21l-4.79-3.87c-.92-.75-.58-2.19.58-2.42l6-1.44c.46-.12.81-.4.98-.87l2.19-5.77c.4-1.1,1.9-1.21,2.48-.23h-.06Z"/>
  <g>
    <path class="cls-19" d="M529.77,604.17c-1.15-2.19-.17-5.2,2.08-6.29,2.19-1.04,5.2.12,6.18,2.37.69-2.48,2.54-4.68,4.96-5.43s5.48.46,6.47,2.77c.46,1.1.92,2.71,2.08,2.54.35,0,.63-.23.98-.4,3.12-1.79,7.74.69,8.02,4.27,0,.69,0,1.39.35,1.96.4.69,1.21.98,1.79,1.5,1.27,1.21.98,3.52-.23,4.79-1.21,1.27-3.06,1.79-4.85,1.96-2.25.23-4.73.06-6.47-1.39-1.33,2.48-3.35,4.68-6.06,5.48-2.66.81-6-.29-7.1-2.83-.35-.75-.58-1.79-1.44-1.96-.46-.12-.92.12-1.33.29-1.73.81-3.58,1.56-5.54,1.44-1.9-.06-3.93-1.15-4.56-2.94-.92-2.6,1.15-5.25,3.12-7.22"/>
    <path class="cls-11" d="M529.88,604.11c-.87-1.62-.46-3.75.75-5.14.63-.69,1.44-1.1,2.37-1.27.92-.12,1.85,0,2.71.46.92.46,1.73,1.21,2.14,2.14,0,.12.29.17.29,0,.46-1.73,1.5-3.29,2.94-4.39,1.39-.98,3.12-1.39,4.79-.98.81.17,1.56.58,2.14,1.1.58.52,1.04,1.15,1.33,1.91.29.69.52,1.44,1.04,1.96.23.23.52.4.87.4.46,0,.87-.23,1.27-.46,1.27-.75,2.89-.69,4.21-.17,1.39.52,2.6,1.56,3.18,2.89.17.35.29.69.35,1.04.06.46.06.92.12,1.39s.17.92.46,1.33c.29.35.69.58,1.04.81s.69.52.98.87c.23.35.35.69.4,1.1.12.81-.06,1.67-.46,2.37-.98,1.67-3,2.31-4.79,2.54-1.79.23-3.93.29-5.66-.52-.4-.17-.81-.46-1.15-.75-.06-.06-.17-.06-.23,0-1.27,2.31-3.12,4.44-5.66,5.31-2.14.75-4.79.29-6.35-1.33-.4-.4-.69-.87-.92-1.39s-.4-1.04-.75-1.5c-.4-.52-1.04-.63-1.67-.4-.35.12-.69.29-1.04.46s-.75.35-1.1.46c-1.39.52-2.94.92-4.5.69-1.21-.17-2.37-.75-3.18-1.73-.87-1.04-.98-2.42-.58-3.69.46-1.39,1.39-2.6,2.31-3.64.23-.23.46-.52.75-.75.12-.17-.06-.4-.23-.23-1.85,1.91-4.27,4.73-3.06,7.56.46,1.15,1.5,1.96,2.66,2.42,1.33.52,2.77.52,4.16.17.81-.17,1.56-.46,2.31-.75.35-.17.75-.35,1.1-.46s.81-.35,1.21-.29c.58.12.87.75,1.04,1.27.23.52.46,1.1.81,1.56,1.39,1.91,4.04,2.6,6.29,2.14,2.66-.52,4.73-2.6,6.18-4.85.17-.29.35-.58.52-.87h-.23c1.56,1.33,3.58,1.67,5.54,1.56,1.9-.06,4.04-.46,5.54-1.67,1.33-1.04,2.02-3,1.27-4.56-.17-.4-.4-.69-.75-.98s-.75-.52-1.15-.81c-.4-.35-.63-.75-.69-1.27-.06-.46,0-.98-.12-1.5-.23-1.5-1.21-2.77-2.48-3.64-1.27-.87-2.83-1.27-4.33-.98-.4.06-.75.17-1.1.35-.4.17-.81.52-1.27.58-.75.06-1.21-.75-1.44-1.39-.17-.35-.29-.75-.46-1.1-.17-.4-.4-.75-.63-1.1-.52-.63-1.21-1.15-1.96-1.5-1.56-.69-3.41-.69-4.96,0-1.67.75-2.94,2.25-3.69,3.93-.17.4-.35.81-.46,1.27h.29c-.75-1.85-2.77-3-4.79-2.89-.98,0-1.96.46-2.66,1.1s-1.21,1.56-1.44,2.54c-.23,1.1-.17,2.25.4,3.23.12.17.4,0,.29-.17h0l-.06.23Z"/>
  </g>
  <g>
    <path class="cls-19" d="M521.68,476.59c-1.15-2.19-.17-5.2,2.08-6.29,2.19-1.04,5.2.12,6.18,2.37.69-2.48,2.54-4.68,4.96-5.43,2.42-.75,5.48.46,6.47,2.77.46,1.1.92,2.71,2.08,2.54.35,0,.63-.23.98-.4,3.12-1.79,7.74.69,8.02,4.27,0,.69,0,1.39.35,1.96.4.69,1.21.98,1.79,1.5,1.27,1.21.98,3.46-.23,4.79-1.21,1.27-3.06,1.73-4.85,1.96-2.25.23-4.73.06-6.47-1.39-1.33,2.48-3.35,4.68-6.06,5.48-2.66.81-6-.29-7.1-2.83-.35-.75-.58-1.79-1.44-1.96-.46-.12-.92.12-1.33.29-1.73.81-3.58,1.56-5.54,1.44-1.9-.06-3.93-1.15-4.56-2.94-.92-2.6,1.15-5.25,3.12-7.22"/>
    <path class="cls-11" d="M521.8,476.48c-.87-1.62-.46-3.75.75-5.14.63-.69,1.44-1.15,2.37-1.27.92-.12,1.85,0,2.71.46.92.46,1.73,1.21,2.14,2.14,0,.12.29.17.29,0,.46-1.73,1.5-3.29,2.94-4.33,1.39-.98,3.12-1.39,4.79-.98.81.17,1.56.58,2.14,1.1.63.52,1.04,1.15,1.33,1.9.29.69.52,1.44,1.04,1.96.23.23.52.4.87.4.46,0,.87-.23,1.27-.46,1.27-.75,2.89-.69,4.21-.17,1.39.52,2.6,1.56,3.18,2.89.17.35.29.69.35,1.04.06.46.06.92.12,1.39s.17.92.46,1.33c.29.35.69.58,1.04.87s.69.52.98.87c.23.35.35.69.4,1.1.12.81-.06,1.67-.46,2.37-.98,1.67-3,2.31-4.79,2.54-1.85.29-3.93.29-5.66-.58-.4-.17-.81-.46-1.15-.75-.06-.06-.17-.06-.23,0-1.27,2.31-3.12,4.45-5.66,5.31-2.14.75-4.79.29-6.35-1.33-.4-.4-.69-.87-.92-1.44s-.4-1.04-.75-1.44c-.4-.52-1.04-.63-1.67-.4-.35.12-.69.29-1.04.46s-.75.29-1.1.46c-1.39.52-2.94.92-4.5.69-1.21-.17-2.37-.75-3.18-1.73-.87-1.04-.98-2.42-.58-3.69.46-1.39,1.39-2.6,2.31-3.64.23-.29.46-.52.75-.75.12-.17-.06-.4-.23-.23-1.85,1.9-4.27,4.73-3.06,7.56.46,1.15,1.5,2.02,2.66,2.42,1.33.52,2.77.52,4.16.17.81-.17,1.56-.46,2.31-.75.35-.17.75-.35,1.1-.46s.81-.35,1.21-.29c.58.12.87.75,1.04,1.27.23.52.46,1.1.81,1.56,1.39,1.9,4.04,2.6,6.29,2.14,2.66-.52,4.73-2.6,6.18-4.85.17-.29.35-.58.52-.87h-.23c1.56,1.33,3.58,1.62,5.54,1.56,1.9-.06,4.04-.46,5.54-1.67,1.33-1.04,2.02-3,1.27-4.56-.17-.4-.4-.69-.75-.98s-.75-.52-1.15-.81c-.4-.35-.63-.75-.69-1.27-.06-.46,0-.98-.12-1.5-.23-1.5-1.21-2.77-2.48-3.64s-2.83-1.27-4.33-.98c-.4.06-.75.17-1.1.35-.4.17-.81.58-1.27.58-.75.06-1.21-.75-1.44-1.39-.17-.35-.29-.75-.46-1.1-.17-.4-.4-.75-.63-1.1-.52-.63-1.21-1.15-1.96-1.5-1.56-.69-3.41-.69-4.96,0-1.67.75-2.94,2.25-3.69,3.93-.17.4-.35.81-.46,1.27h.29c-.75-1.85-2.77-3-4.79-2.89-.98,0-1.96.46-2.66,1.15-.69.69-1.21,1.56-1.44,2.54-.23,1.1-.17,2.25.4,3.23.12.17.4,0,.29-.17h0l-.06.12Z"/>
  </g>
  <path class="cls-27" d="M490.51,583.62l3.23,5.25c.23.4.63.63,1.1.69l6.18.29c1.15,0,1.73,1.44.98,2.31l-3.98,4.68c-.29.35-.4.81-.29,1.27l1.62,5.95c.29,1.1-.81,2.08-1.9,1.67l-5.72-2.37c-.4-.17-.92-.12-1.27.12l-5.14,3.35c-.98.63-2.25-.12-2.14-1.27l.46-6.12c0-.46-.17-.92-.52-1.21l-4.79-3.87c-.92-.75-.58-2.19.58-2.42l6-1.44c.46-.12.81-.4.98-.87l2.19-5.77c.4-1.1,1.9-1.21,2.48-.23h-.06Z"/>
  <g>
    <path class="cls-19" d="M522.72,561.97c-1.15-2.19-.17-5.2,2.08-6.29,2.19-1.04,5.2.12,6.18,2.37.69-2.48,2.54-4.68,4.96-5.43s5.48.46,6.47,2.77c.46,1.1.92,2.71,2.08,2.54.35,0,.63-.23.98-.4,3.12-1.79,7.74.69,8.02,4.27,0,.69,0,1.39.35,1.96.4.69,1.21.98,1.79,1.5,1.27,1.21.98,3.52-.23,4.79-1.21,1.27-3.06,1.79-4.85,1.96-2.25.23-4.73.06-6.47-1.39-1.33,2.48-3.35,4.68-6.06,5.48-2.66.81-6-.29-7.1-2.83-.35-.75-.58-1.79-1.44-1.96-.46-.12-.92.12-1.33.29-1.73.81-3.58,1.56-5.54,1.44-1.9-.06-3.93-1.15-4.56-2.94-.92-2.6,1.15-5.25,3.12-7.22"/>
    <path class="cls-11" d="M522.84,561.86c-.87-1.62-.46-3.75.75-5.14.63-.69,1.44-1.15,2.37-1.27s1.85,0,2.71.46c.92.46,1.73,1.21,2.14,2.14,0,.12.29.17.29,0,.46-1.73,1.5-3.29,2.94-4.33,1.39-.98,3.12-1.39,4.79-.98.81.17,1.56.58,2.14,1.1s1.04,1.15,1.33,1.9c.29.69.52,1.44,1.04,1.96.23.23.52.4.87.4.46,0,.87-.23,1.27-.46,1.27-.75,2.89-.69,4.21-.17,1.33.52,2.6,1.56,3.18,2.89.17.35.29.69.35,1.04.06.46.06.92.12,1.39,0,.46.17.92.46,1.33.29.35.69.58,1.04.81s.69.52.98.87c.23.35.35.69.4,1.1.12.81-.06,1.67-.46,2.37-.98,1.67-3,2.31-4.79,2.54-1.85.29-3.93.29-5.66-.52-.4-.17-.81-.46-1.15-.75-.06-.06-.17-.06-.23,0-1.27,2.31-3.12,4.45-5.66,5.31-2.14.75-4.79.29-6.35-1.33-.4-.4-.69-.87-.92-1.39-.23-.52-.4-1.04-.75-1.5-.4-.52-1.04-.63-1.67-.4-.35.12-.69.29-1.04.46s-.75.35-1.1.46c-1.39.52-2.94.92-4.5.69-1.21-.17-2.37-.75-3.18-1.73-.87-1.04-.98-2.42-.58-3.69.46-1.39,1.39-2.6,2.31-3.64.23-.23.46-.52.75-.75.12-.17-.06-.4-.23-.23-1.85,1.9-4.27,4.73-3.06,7.56.46,1.15,1.5,1.96,2.66,2.42,1.33.52,2.77.52,4.16.17.81-.17,1.56-.46,2.31-.75.35-.17.75-.35,1.1-.46s.81-.35,1.21-.29c.58.12.87.75,1.04,1.27.23.52.46,1.1.81,1.56,1.39,1.9,4.04,2.6,6.29,2.14,2.66-.52,4.73-2.6,6.18-4.85.17-.29.35-.58.52-.87h-.23c1.56,1.33,3.58,1.67,5.54,1.56,1.9-.06,4.04-.46,5.54-1.67,1.33-1.04,2.02-3,1.27-4.56-.17-.4-.4-.69-.75-.98s-.75-.52-1.15-.81c-.4-.35-.63-.75-.69-1.27-.06-.46,0-.98-.12-1.5-.23-1.5-1.21-2.77-2.48-3.64s-2.83-1.27-4.33-.98c-.4.06-.75.17-1.1.35-.4.17-.81.58-1.27.58-.75.06-1.21-.75-1.44-1.39-.17-.35-.29-.75-.46-1.1-.17-.4-.4-.75-.63-1.1-.52-.63-1.21-1.15-1.96-1.5-1.56-.69-3.41-.69-4.96,0-1.67.75-2.94,2.25-3.69,3.93-.17.4-.35.81-.46,1.27h.29c-.75-1.85-2.77-3-4.79-2.89-.98,0-1.96.46-2.66,1.15s-1.21,1.56-1.44,2.54c-.23,1.1-.17,2.25.4,3.23.12.17.4,0,.29-.17h0l-.06.12Z"/>
  </g>
  <path class="cls-17" d="M539.64,514.81c-5.83-.98-11.78-2.02-17.38-3.93-3.29-1.1-6.52-1.85-9.76-3.23l-5.25,42.26c-10.56-2.02-60.9,5.25-72.51,3.69-5.6-4.91-16.86-13.16-21.36-14.43-7.16-2.02-16.8-3.87-17.84,1.1s9.12,7.1,9.12,7.1c0,0-3.52,1.44-8.6.69-4.91-.75-11.37-3.69-12.07-1.1-1.44,5.31,16.16,11.78,16.16,11.78,0,0-4.27,2.19-9.06,1.56-4.73-.63-11.89-8.02-12.7-5.48-3.23,9.53,19.34,15.18,19.34,15.18-12.07,2.14-17.66-3.64-17.55,1.33h0c.12,4.91,19.22,9.24,19.22,9.24,0,0-13.1,1.1-12.99,2.42.29,3.06,7.22,6.47,14.61,6,3.93-.23,16.39,3,31.75-3,21.82,7.39,86.3,14.2,103.74,6.64,15.93-6.93,21.19-60.5,22.34-75.62-6.47-.52-12.87-1.21-19.28-2.25l.06.06Z"/>
  <path class="cls-17" d="M327.95,521.45l5.25,1.56,56.17-1.56,31.12,16.86,7.62,24.42s-2.31,5.31-5.2,3.12c-2.19-1.96-3.98-4.39-5.25-7.04l-6.18,13.34s-7.39,3.64-8.26-3.46l-7.68,8.83s-5.6,2.94-6.58-2.77l-10.04,9.76c-2.19-1.56-3.64-3.87-4.04-6.52-.17-2.31.46-4.56,1.79-6.47,0,0-17.32-3.87-24.82-4.62-7.5-.75-29.15-12.01-29.15-12.01l-5.08-2.19c5.08-10.22,10.33-31.23,10.33-31.23h0Z"/>
  <path class="cls-31" d="M348.04,522.95c2.31-.06,4.68-.12,6.99-.17,5.02-.12,10.04-.29,15.07-.4,4.79-.12,9.58-.29,14.32-.4,1.39,0,2.77-.06,4.16-.12.17,0,.69.06.81,0s-.17,0-.17,0c0,0,.17.12.23.12,3,1.62,6,3.23,9.01,4.85,4.62,2.48,9.24,4.96,13.8,7.5,1.79.98,3.58,1.96,5.37,2.89.58.29,1.15.63,1.73.98.29.12.58.4.87.46.17,0,0-.06,0-.06,0,.12.06.23.12.35.17.58.35,1.1.52,1.67.63,2.08,1.27,4.1,1.9,6.18,1.44,4.62,2.89,9.29,4.33,13.91l.58,1.79c0,.12.06.35.12.46.12.12.12-.17,0,0-.58.87-.92,1.79-1.67,2.48-.4.35-.87.75-1.44.69-.92-.12-1.67-1.04-2.25-1.67-1.62-1.67-2.89-3.58-3.93-5.66-.17-.4-.98-.23-1.15.12-1.44,3.18-2.94,6.35-4.45,9.53-.4.81-.75,1.67-1.15,2.48l-.4.81c0,.12-.23.35-.23.46s.46-.23.17-.17c-.17,0-.4.17-.58.23-.69.23-1.39.46-2.14.52-.98.12-1.96,0-2.83-.52-1.21-.81-1.67-2.25-1.85-3.64,0-.4-.87-.12-1.04,0-1.79,2.02-3.52,4.1-5.31,6.12-.52.58-.98,1.15-1.5,1.73-.23.23-.69.63-.81.92-.06.17.17-.06.12-.06-.12,0-.29.12-.4.17-.46.17-.98.35-1.44.4-.75.12-1.62.06-2.31-.35-.98-.63-1.39-1.79-1.62-2.89-.06-.46-1.27-.17-1.15.29.35,1.96,1.5,3.52,3.58,3.69,1.21.12,2.6-.23,3.69-.75.69-.35,1.21-1.21,1.73-1.79,1.27-1.44,2.48-2.89,3.75-4.33.87-.98,1.67-1.96,2.54-2.94h-1.04c.35,2.48,1.67,4.39,4.27,4.62,1.56.12,3.29-.29,4.68-.92.35-.17.46-.35.58-.63l.92-2.02,3-6.47c.69-1.5,1.39-3,2.08-4.5-.4,0-.75.12-1.15.12,1.04,2.08,2.31,4.04,3.93,5.72,1.15,1.21,2.31,2.42,4.1,1.9,1.21-.35,2.14-1.33,2.77-2.37.29-.4.87-1.15.87-1.73,0-.29-.23-.69-.29-.98-.23-.75-.46-1.5-.69-2.25-.75-2.31-1.44-4.68-2.19-6.99-1.39-4.39-2.77-8.77-4.1-13.16-.12-.29-.17-.75-.29-1.04-.12-.17-.29-.23-.46-.35-1.15-.63-2.31-1.27-3.46-1.85-4.45-2.42-8.83-4.79-13.28-7.16-4.04-2.19-8.02-4.33-12.07-6.52l-1.44-.81c-.17-.12-.4-.29-.63-.29-.63-.17-1.44,0-2.08,0-4.21.12-8.37.23-12.58.35-5.37.17-10.8.29-16.16.46-3.41.12-6.81.17-10.22.29h-.52c-.23,0-.69.06-.75.35-.12.23.06.4.35.4h0l.23-.06Z"/>
  <path class="cls-31" d="M399.76,532.7c4.21,2.25,8.26,5.08,11.89,8.08,1.85,1.56,3.58,3.18,5.2,4.96.75.87,1.62,1.73,2.02,2.83.4,1.15.35,2.25.12,3.46-.4,2.66-.87,5.25-2.25,7.62-.29.52.87.46,1.1.12.58-.98,1.04-2.08,1.44-3.18.35-1.15.52-2.37.75-3.58.23-1.1.46-2.31.35-3.41s-.63-2.14-1.33-3c-3.12-3.87-6.87-6.93-10.91-9.76-2.42-1.67-4.79-3.29-7.39-4.68-.4-.23-1.44.35-.92.63h0l-.06-.12Z"/>
  <path class="cls-31" d="M390.53,544.19c3.41,2.14,6.93,3.93,10.28,6.12,1.67,1.1,3.98,2.37,4.85,4.27.46.98.58,2.25.63,3.35.06,1.21.17,2.42,0,3.64-.17,1.27-.46,2.6-1.1,3.69-.63,1.1-1.39,2.14-2.19,3.18-.17.23.17.35.35.35.29,0,.58-.12.75-.35.75-.92,1.39-1.85,2.02-2.83.58-.98.98-2.02,1.21-3.12.23-1.1.35-2.25.29-3.35,0-1.21-.12-2.42-.4-3.58-.12-.46-.17-1.04-.46-1.44-.29-.46-.63-.87-.98-1.27-.69-.75-1.5-1.33-2.37-1.9-1.96-1.39-3.98-2.66-6.06-3.87-1.96-1.15-3.93-2.19-5.83-3.35-.35-.23-1.39.29-.92.58h0l-.06-.12Z"/>
  <path class="cls-31" d="M381.41,558.22c2.02.63,4.1,1.15,6.06,1.9,2.08.81,4.39,2.08,5.48,4.04s1.04,4.21,0,6.18c-.63,1.15-1.56,2.08-2.6,2.94-.4.35-.81.63-1.21.87-.12.06-.29.17-.4.23-.23.17-.35,0,.17,0-.29,0-1.33.4-.75.52.46.06,1.04-.23,1.44-.46.81-.46,1.56-.98,2.25-1.62,1.79-1.56,3.29-3.75,3.12-6.23-.29-4.62-5.02-6.52-8.83-7.74-1.27-.4-2.48-.81-3.75-1.15-.29-.12-1.33.35-.92.46h0l-.06.06Z"/>
  <g class="cls-30">
    <g>
      <path class="cls-15" d="M387.06,471.74l-16.34,1.5c-1.62-17.09,10.97-32.21,28.06-33.83,17.09-1.62,32.21,10.97,33.83,28.06l-16.63,1.56h0l20.78-1.96c-1.79-19.4-18.99-33.66-38.39-31.81-19.4,1.79-33.66,18.99-31.81,38.39l20.49-1.9h0Z"/>
      <path class="cls-27" d="M398.67,438.38c-17.78,1.67-30.88,17.43-29.21,35.21l17.95-1.67h0l-14.14,1.33c-1.44-15.64,10.04-29.56,25.69-31,15.64-1.44,29.56,10.04,31,25.69l3.87-.35c-1.67-17.78-17.43-30.88-35.21-29.21h.06Z"/>
      <path class="cls-4" d="M386.43,471.22l-9.81.92c-1.27-13.8,8.83-26.04,22.63-27.31,13.8-1.27,26.04,8.83,27.31,22.63l-10.22.98h0l13.62-1.27c-1.44-15.64-15.36-27.19-31-25.69-15.64,1.44-27.19,15.36-25.69,31l13.22-1.21h0l-.06-.06Z"/>
      <path class="cls-26" d="M399.24,444.84c-13.8,1.27-23.96,13.51-22.63,27.31l9.81-.92h0l-6.87.63c-1.15-12.12,7.79-22.92,19.97-24.07,12.12-1.15,22.92,7.79,24.07,19.97l3-.29c-1.27-13.8-13.51-23.96-27.31-22.63h-.06Z"/>
      <path class="cls-12" d="M399.76,450.44c10.68-.98,20.2,6.87,21.19,17.55l-4.62.46h0l7.22-.69c-1.15-12.12-11.89-21.07-24.07-19.97-12.12,1.15-21.07,11.89-19.97,24.07l2.6-.23c-.98-10.68,6.87-20.2,17.55-21.19h.12Z"/>
      <g>
        <path class="cls-19" d="M361.95,478.21c-2.02-.63-3.35-3-2.71-5.02s3.18-3.23,5.14-2.37c.52-1.27,1.04-2.6,1.9-3.69s2.14-1.96,3.52-2.02c1.33,0,2.66.63,3.52,1.67.23.29.46.63.87.81.75.35,1.56-.29,2.25-.69,2.25-1.27,5.43-.4,6.75,1.79.23.35.4.75.63,1.04.35.46.81.75,1.27,1.1.98.69,1.9,1.56,2.42,2.71s.4,2.54-.46,3.41c-.46.46-1.15.69-1.79.87-1.44.4-3,.52-4.5.4-.35,0-.75-.12-1.1,0-.58.23-.87.87-1.15,1.39-.75,1.15-2.14,1.85-3.52,1.79-1.39-.06-2.71-.92-3.35-2.14-.17-.35-.35-.69-.69-.81-.35-.06-.63.12-.92.35-1.33.98-2.89,1.79-4.5,1.79s-3.35-.98-3.81-2.6"/>
        <path class="cls-11" d="M361.95,478.15c-1.56-.46-2.71-2.02-2.77-3.64-.12-1.62.98-3.06,2.54-3.58.81-.29,1.73-.29,2.6,0,.06,0,.12,0,.17-.06.81-2.02,1.79-4.27,3.93-5.25.98-.46,2.08-.46,3.06,0,.52.23.98.52,1.33.87.4.35.63.81,1.04,1.1.92.69,1.96-.12,2.77-.58.75-.4,1.67-.58,2.54-.52s1.73.35,2.48.81c.35.23.69.52.98.87.35.35.58.81.81,1.21.29.52.63.87,1.04,1.21s.92.63,1.33.98c.81.69,1.56,1.5,1.79,2.54.23.92.12,2.02-.58,2.77-.4.4-.92.63-1.44.81-.58.17-1.15.29-1.79.4s-1.27.12-1.9.12h-.92c-.29,0-.58-.06-.87-.06-.52,0-.87.23-1.21.63s-.52.87-.81,1.21c-.63.81-1.62,1.33-2.66,1.44s-2.02-.23-2.83-.87c-.4-.29-.69-.69-.98-1.15-.17-.35-.35-.81-.81-.92-.52-.12-.98.35-1.39.63-.46.35-.98.63-1.5.87-.98.46-2.14.75-3.23.58-.92-.12-1.79-.58-2.42-1.27-.29-.35-.52-.75-.63-1.21,0-.12-.23-.06-.23,0,.52,1.96,2.71,2.89,4.56,2.66,1.15-.12,2.19-.63,3.18-1.21.23-.17.52-.35.75-.52s.52-.4.81-.35c.23,0,.4.29.52.52s.23.46.4.63c.58.81,1.44,1.39,2.37,1.62.98.23,2.02.12,2.89-.35.46-.23.87-.58,1.21-.92s.52-.81.81-1.27c.12-.17.35-.4.58-.52.29-.12.63-.12.92-.12.63,0,1.27.12,1.9.06,1.21,0,2.48-.23,3.64-.69.46-.17.92-.46,1.27-.87.29-.35.46-.81.58-1.27.17-1.04-.17-2.02-.75-2.83-.63-.92-1.56-1.56-2.42-2.19-.23-.17-.46-.35-.69-.58s-.4-.52-.52-.81c-.23-.4-.46-.87-.81-1.21-.58-.63-1.39-1.15-2.19-1.44-.87-.29-1.73-.35-2.6-.23-.46.06-.87.23-1.27.4-.52.23-.92.58-1.44.81-.29.12-.52.17-.81.06s-.46-.29-.69-.46c-.35-.4-.69-.81-1.1-1.1-.87-.63-1.9-1.04-2.94-.92-2.31.23-3.75,2.25-4.68,4.16-.23.52-.46,1.04-.69,1.62h.17c-1.56-.75-3.41-.17-4.5,1.04-1.21,1.33-1.15,3.29-.23,4.73.52.81,1.33,1.44,2.25,1.73.12,0,.17-.17,0-.23h0l.12.12Z"/>
      </g>
      <g>
        <path class="cls-19" d="M418.99,466.2c-.81-1.44-.12-3.52,1.39-4.21,1.5-.69,3.52.06,4.16,1.62.46-1.67,1.73-3.18,3.35-3.64,1.67-.46,3.69.29,4.33,1.9.29.75.58,1.85,1.44,1.73.23,0,.46-.17.63-.29,2.14-1.21,5.25.46,5.43,2.89,0,.46,0,.92.23,1.33.29.46.81.63,1.21,1.04.87.81.69,2.37-.17,3.23s-2.08,1.21-3.29,1.33c-1.5.17-3.18,0-4.39-.92-.92,1.67-2.25,3.18-4.1,3.69-1.79.52-4.04-.17-4.79-1.9-.23-.52-.4-1.21-.98-1.33-.29-.06-.63.06-.92.23-1.15.58-2.42,1.04-3.75.98-1.27,0-2.66-.75-3.06-2.02-.63-1.79.81-3.52,2.08-4.91"/>
        <path class="cls-11" d="M419.1,466.14c-.58-1.1-.35-2.54.52-3.46.87-.98,2.31-1.1,3.46-.52.63.29,1.15.81,1.44,1.5,0,.12.17,0,.17,0,.35-1.15,1.04-2.25,2.02-2.94.92-.69,2.08-.92,3.23-.63.52.12,1.04.4,1.44.75s.69.81.92,1.33c.17.46.35.98.69,1.27.17.12.35.23.52.29.29,0,.52-.12.81-.23.92-.52,1.96-.58,2.94-.23.92.35,1.73,1.04,2.19,1.9.12.23.17.46.23.69,0,.29,0,.58.06.92s.06.63.29.87c.17.23.4.4.63.58.23.17.46.29.69.58.17.23.29.46.35.75.12.58,0,1.15-.29,1.62-.63,1.15-2.02,1.62-3.23,1.79s-2.66.17-3.81-.35c-.29-.12-.58-.29-.81-.52h-.17c-.87,1.56-2.08,3-3.81,3.58-1.44.52-3.23.23-4.33-.92-.29-.29-.46-.63-.63-.98-.12-.35-.23-.69-.52-.98s-.63-.4-1.04-.29c-.23.06-.4.17-.63.29-.29.12-.58.23-.81.35-.92.35-1.96.63-3,.52-.81-.12-1.67-.46-2.19-1.1-1.62-1.85.29-4.21,1.62-5.54.12-.12,0-.23-.17-.17-1.27,1.27-2.89,3.18-2.08,5.08.29.75.98,1.33,1.73,1.67.87.4,1.85.4,2.77.17.52-.12,1.04-.29,1.56-.52.23-.12.46-.23.75-.29.23-.12.52-.29.81-.23.46,0,.69.52.81.87s.29.69.52,1.04c.98,1.27,2.71,1.73,4.21,1.44,1.79-.35,3.23-1.73,4.16-3.23.12-.17.23-.4.35-.58h-.17c1.04.87,2.42,1.1,3.75,1.04,1.27,0,2.71-.29,3.75-1.1.87-.69,1.39-2.02.92-3.06-.12-.23-.29-.46-.46-.63-.23-.23-.52-.35-.75-.52-.29-.23-.46-.52-.52-.87,0-.35,0-.69-.06-.98-.29-2.08-2.6-3.52-4.56-3.12-.23,0-.46.12-.69.23-.29.12-.58.4-.92.4-.58.06-.87-.58-1.04-1.04-.23-.52-.4-1.04-.75-1.44s-.81-.75-1.33-.98c-1.04-.46-2.25-.46-3.35.06-1.1.52-1.96,1.5-2.48,2.66-.12.29-.23.58-.29.87h.17c-.52-1.27-1.9-2.02-3.29-1.96-1.39.12-2.42,1.15-2.71,2.48-.17.75-.12,1.5.29,2.19.06.12.23,0,.17-.12h0l-.06-.23Z"/>
      </g>
    </g>
  </g>
  <path d="M452.29,389.37c4.5,1.39,16.28,2.19,17.78,4.5,0,0-9.58,8.37-19.97,5.14-10.39-3.23-9.41-14.03-9.41-14.03,0,0,5.95,2.66,11.66,4.45l-.06-.06Z"/>
  <path class="cls-19" d="M469.38,393.29s-11.03,1.1-18.3-1.15c-6.93-2.14-9.93-6.64-9.93-6.64,0,0,2.42-.12,10.62,2.48,8.2,2.6,17.61,5.37,17.61,5.37h0v-.06Z"/>
  <path class="cls-10" d="M450.22,397.85c12.7,1.44,14.26-4.16,21.3-4.91,0,0-8.66,13.39-20.9,9.58-12.24-3.81-9.93-17.61-9.93-17.61,1.27,1.9.35,7.45,9.53,12.93h0Z"/>
  <path class="cls-10" d="M447.73,385.44c2.66-.29,3.98,2.02,5.08,2.42,1.1.35,4.04-.52,6.35.75,7.91,4.39,12.35,4.39,12.35,4.39-3.93,1.44-13.1.29-20.84-2.08-7.74-2.37-8.26-3.98-10.04-5.95-.29-.29,1.62,1.1,7.04.46h.06Z"/>
  <path class="cls-31" d="M505.58,549.96c5.2,3.29,9.12,8.26,11.2,14.03.12.29,1.27-.06,1.15-.29-2.08-5.77-6.06-10.8-11.26-14.14-.29-.17-1.27.29-1.1.4h0Z"/>
  <path class="cls-29" d="M79.33,455.64c-.23,4.82,1.65,10.02,3.61,14.31,5.85,12.86,16.66,22.97,28.2,30.76s23.72,13.32,36.45,18c.51.19,2.46-.62,1.78-.87-19.44-7.13-39.13-16.92-53.34-32.38-6.58-7.16-12.15-15.89-14.02-25.56-.3-1.57-.58-3.23-.5-4.84.02-.37-2.14-.09-2.17.58h0Z"/>
  <path class="cls-29" d="M170.45,433.51c-2.18-.73-4.66-.79-6.93-.73-6.41.18-12.69,2.15-18.49,4.79-1.35.61-.16,1.9.99,1.38,5.45-2.47,11.31-4.31,17.33-4.48,1.49-.04,2.97.03,4.44.27.4.07.8.14,1.2.24-.07-.02,0,0,.22.07,1,.34,2.55-1.1,1.23-1.54h0Z"/>
  <path class="cls-29" d="M208.42,237.58c1.97,1.46,3.74,3.52,5.33,5.56,4.1,5.29,6.97,11.46,8.68,17.92,4.66,17.61.32,35.48-4.85,52.43-5.17,16.95-11.33,33.61-17.68,50.16s-12.42,31.58-18.93,47.25c-3.32,8-6.82,15.92-10.12,23.92-.05.11-.1.22-.14.33-.11.26-.08.57.19.72,1.39.77,2.78,1.53,4.17,2.3,3.79,2.09,7.57,4.18,11.36,6.26,5.6,3.09,11.2,6.18,16.8,9.27,6.83,3.77,13.67,7.54,20.5,11.31,7.49,4.13,14.97,8.26,22.46,12.39s15.12,8.34,22.68,12.51c7.08,3.91,14.16,7.81,21.25,11.72,5.95,3.28,11.91,6.57,17.86,9.85,4.28,2.36,8.56,4.72,12.85,7.09,2.03,1.12,4.04,2.26,6.09,3.36.09.05.17.1.26.14.8.44,2.72-.65,1.68-1.22-1.39-.77-2.78-1.53-4.17-2.3l-11.36-6.26c-5.6-3.09-11.2-6.18-16.8-9.27-6.83-3.77-13.67-7.54-20.5-11.31-7.49-4.13-14.97-8.26-22.46-12.39-7.56-4.17-15.12-8.34-22.68-12.51-7.08-3.91-14.16-7.81-21.25-11.72-5.95-3.28-11.91-6.57-17.86-9.85-4.28-2.36-8.56-4.72-12.85-7.09l-3.98-2.2c-.66-.36-1.39-.93-2.1-1.16-.09-.03-.18-.1-.26-.14l.19.72c2.9-6.68,5.73-13.4,8.54-20.12,6.37-15.25,12.59-30.56,18.56-45.97,6.56-16.91,12.91-33.93,18.41-51.22s10.38-34.19,7.52-51.86c-1.75-10.81-6.63-22.38-15.29-29.51-.14-.11-.27-.23-.41-.33-.74-.55-2.66.5-1.68,1.22h0Z"/>
  <path class="cls-29" d="M391.37,356.65c-3.52,5.77-6.77,11.84-9.24,18.13-1.2,3.05-2.28,6.25-2.2,9.57.05,1.99.16,3.98.22,5.97.47,16.05-1.61,32.35-8.16,47.13-5.09,11.48-12.84,21.55-22.67,29.37-.37.29-.22.56.18.67.47.13,1.17-.12,1.54-.41,8.74-6.96,15.91-15.65,21.03-25.58,4.37-8.48,7.2-17.7,8.76-27.11,1.2-7.23,1.65-14.58,1.56-21.9-.03-2.38-.13-4.76-.22-7.14-.1-2.51.13-4.81.86-7.23,2.28-7.55,6.27-14.78,10.36-21.49.48-.78-1.67-.52-2,.03h0Z"/>
  <line class="cls-3" x1="333.26" y1="522.95" x2="349.54" y2="522.6"/>
</svg>