<?xml version="1.0" encoding="UTF-8"?>
<svg xmlns="http://www.w3.org/2000/svg" xmlns:xlink="http://www.w3.org/1999/xlink" viewBox="0 0 1334 1000">
  <defs>
    <style>
      .cls-1 {
        stroke-width: .14px;
      }

      .cls-1, .cls-2, .cls-3 {
        stroke: #000;
      }

      .cls-1, .cls-2, .cls-3, .cls-4 {
        stroke-miterlimit: 10;
      }

      .cls-2 {
        stroke-width: .14px;
      }

      .cls-3 {
        stroke-width: .14px;
      }

      .cls-5 {
        fill: #3c5c2c;
      }

      .cls-6 {
        fill: #622515;
      }

      .cls-7 {
        fill: #f0ebe0;
      }

      .cls-8 {
        fill: #24120e;
      }

      .cls-9 {
        fill: #273339;
      }

      .cls-10 {
        fill: #476c34;
      }

      .cls-11 {
        fill: #5e5f5f;
      }

      .cls-12 {
        fill: #010101;
      }

      .cls-13 {
        fill: #606161;
      }

      .cls-14 {
        fill: url(#linear-gradient-2);
      }

      .cls-15 {
        fill: #653c29;
      }

      .cls-16 {
        fill: #8e8e8e;
      }

      .cls-17 {
        fill: #ababab;
      }

      .cls-18 {
        fill: #a3a2a0;
      }

      .cls-19 {
        fill: #f1eef7;
      }

      .cls-20 {
        fill: #311a0e;
      }

      .cls-4 {
        fill: none;
        stroke: #010101;
        stroke-width: .67px;
      }

      .cls-21 {
        fill: #a66e53;
      }

      .cls-22 {
        fill: #c95744;
      }

      .cls-23 {
        fill: url(#linear-gradient);
        opacity: .5;
      }

      .cls-24 {
        fill: #c95843;
      }

      .cls-25 {
        fill: #5e1a15;
      }

      .cls-26 {
        fill: #d7b029;
      }

      .cls-27 {
        fill: #528293;
      }

      .cls-28 {
        fill: #354c24;
      }

      .cls-29 {
        fill: #ccb631;
      }

      .cls-30 {
        fill: #24180f;
      }

      .cls-31 {
        fill: #a53b23;
      }

      .cls-32 {
        fill: #343535;
      }

      .cls-33 {
        fill: #465b65;
      }

      .cls-34 {
        fill: #e0d6b8;
      }

      .cls-35 {
        fill: #5b481c;
      }

      .cls-36 {
        fill: #4f2e25;
      }

      .cls-37 {
        fill: #89772e;
      }

      .cls-38 {
        fill: #9ddaea;
        opacity: .2;
      }
    </style>
    <linearGradient id="linear-gradient" x1="-3218.88" y1="5585.73" x2="-2161.82" y2="5585.73" gradientTransform="translate(-4925.42 3204.38) rotate(90) scale(1 -1)" gradientUnits="userSpaceOnUse">
      <stop offset="0" stop-color="#f0ebe0"/>
      <stop offset=".18" stop-color="#eee8dd" stop-opacity=".99"/>
      <stop offset=".33" stop-color="#e8e1d4" stop-opacity=".97"/>
      <stop offset=".46" stop-color="#ded4c5" stop-opacity=".93"/>
      <stop offset=".59" stop-color="#d0c2b0" stop-opacity=".88"/>
      <stop offset=".72" stop-color="#bdab95" stop-opacity=".82"/>
      <stop offset=".84" stop-color="#a78e73" stop-opacity=".73"/>
      <stop offset=".96" stop-color="#8d6d4d" stop-opacity=".64"/>
      <stop offset="1" stop-color="#83603d" stop-opacity=".6"/>
    </linearGradient>
    <linearGradient id="linear-gradient-2" x1="682.7" y1="1124.74" x2="695.68" y2="816.45" gradientUnits="userSpaceOnUse">
      <stop offset=".01" stop-color="#769a3e"/>
      <stop offset=".98" stop-color="#496b33"/>
    </linearGradient>
  </defs>
  <g id="Layer_3" data-name="Layer 3">
    <polyline class="cls-7" points="-31.6 1016.95 -31.6 -27.98 1385.97 -27.98 1385.97 1016.95"/>
    <polyline class="cls-23" points="1388.3 1039.07 -67.68 1039.07 -67.68 -17.98 1388.3 -17.98"/>
    <rect class="cls-34" x="326.01" y="119.72" width="217.91" height="402.39"/>
    <path class="cls-29" d="M421.52,306.26c2.41.83,23.37,7.04,29.17,25.55,5.8,18.51,5.67,79.23,8.78,95.61,3.9,19.07,5.83,37.54,8.97,62.19l1.84,47.06-14.81-.84s-19.98-111.14-29.95-136.94c-9.97-25.8-4-92.63-4-92.63Z"/>
    <path class="cls-32" d="M391.44,522.83l.62,4.14c.14.9.75,1.55,1.37,1.46.61-.11,1-.91.86-1.79l-.62-4.14c.81-.73,1.18-2.13.94-3.55-.33-1.98-1.7-3.37-3.06-3.12-1.36.25-2.2,2.05-1.87,4.03.19,1.32.87,2.47,1.76,2.98Z"/>
    <path class="cls-11" d="M336.96,189.7c3-4.33,7.71-7.26,12.75-5.95-.32-9.82,9.13-15.72,18.95-16.1,5.05.03,10.26,2.25,15,.53,2.96-1.07,5.18-3.42,7.7-5.39,10.55-8,27.35.98,36.47,10.58,9.12,9.6,7,20.44,2.53,32.89-2.08,5.79-1.7,8.93-2.29,15.09-.56,5.82-3.96,16.66-3.96,22.43,0,5.77,9.08,11.72,3.26,12.24l-63.51-6.8c-9.41,1.96-15.46-.83-20.37-9.09-3.2-5.61-2.16-5.88-2.64-12.31-.84-8.4-9.45-14.64-9.04-23.07.1-5.3,2.41-10.53,5.15-15.06Z"/>
    <path class="cls-31" d="M329.08,189.43s21.82-11.11,50.15-8.27c28.33,2.84,42.32,20.03,47.4,32.41,5.07,12.38-.06,25.51-.06,25.51,0,0,7.09,1.84,11.53-23.67,6.46-37.19-31.7-59.17-40.85-58.95-9.15.22-56.03-8.75-68.17,32.96Z"/>
    <path class="cls-21" d="M354.1,252.19s-.81,22.38-6.67,38.05c-.82,2.18-14.62,12.15-14.62,12.15l20.48,5.14c11.5,2.55,40.92,13.57,51.98,9.5l5.96-14.29s-12.23-5.86-12.82-8.55c-.59-2.68,1.32-23.07,1.32-23.07"/>
    <path class="cls-29" d="M310.09,538.61c30.95.16,61.92.23,92.86-.65,7.64-.22,15.27-.6,22.9-.83,7.04-.21,14.09-.42,21.12-.77,5.59-.28,11.19-.65,16.77-1.19.6-11.14.61-22.01-.53-30.5-3.92-29.17-9.82-42.57-9.82-42.57l-3.47-9.56-3.03-19.98c2.58-13.19,9.83-19.2,9.42-40.29l-4.25-30.28-21.17-48.24-30.92-17.52c1.11,1.97,13.02,14.19-6.9,19.51-.02,0-4.9.08-4.92.09-25.71-1.05-41.6-26.25-41.6-26.25l-40.12,14.35-12.97,124.19s-24.9,57.19-25.9,81.54c-.39,9.53-.14,19.19.72,28.78,13.93.03,27.85.11,41.78.18Z"/>
    <path class="cls-29" d="M401.31,297.14s39.41,13.83,44.83,25.36c8.23,17.51,7.82,34.49,7.82,34.49l-15.33,14.78-37.33-74.63Z"/>
    <path class="cls-36" d="M398.37,290.44s-4.73-.76-7.99-1.66c-3.26-.9-8.84-.69-23.9-13.66,0,0,4.47,16,23.65,19.35,0,0,4.96,1.02,8.21.22l.04-4.25Z"/>
    <path class="cls-21" d="M414.83,193.02c.07.06.14.11.21.16-.07-.11-.14-.23-.19-.34l-.02.18ZM422.9,195.34c.11.12.23.24.36.36v-.15s-.35-.39-.36-.21ZM364.45,273.3c7.07,8.45,21.75,17.7,33.91,18.16,4.36.17,8.52,0,12-5.11,3.52-5.18,6.59-7.14,10.35-11.91,3.61-4.57,5.27-7.46,7.14-12.96,1.93-5.69,2.04-7.22,1.85-13.06-.08-2.61.03-6.55.41-9.02.44-2.85,2.61-14.07,3.37-20.69.76-6.62-3.52-19.57-3.52-19.57-.24-1.83-2.79-1.08-3.64-2.6l-.78-.07s.37.21.33.75c-.98-.24-1.92-.86-2.63-1.52v.03c-1.22.44-2.35-.2-3.25-1.18-.02.18.15.55.35.57-1.19.08-2.31-.56-3.04-1.34-.02.18.15.55.14.73-.87-.24-1.72-.78-2.42-1.33.16.25,4.63-.06,4.62.07-1.19.08.12.58-.78-.4l-.91-.75c-.99.1-1.01.69-1.73-.1.18.2-.37-2.02-.38-1.84-1.17-.1-.85-.15-1.78-.77-.02.18-3.3.89-3.31,1.07-.98-.08-.8.83-1.52.05.18.2.77-.69.95-.5-1.19.08-1.69.8-2.59-.19.18.2-3.7-2.3-3.7-2.3-1.19.08-1.02.47-1.94-.34.36.39-5.38-.8-5.22-.42-.98-.08,1.56,3.74.83,3.14-.02.18-2.2-.73-2.2-.73-.99.1.4,1.12-.32.34-.02.18.13.73.33.75-1.22.44-2.56-.04-3.67-.86.36.39.53.77.71.96-.98-.08-1.77.03-2.69-.77-.02.18.33.75.52.77-1.01.28-2.17,0-3.1-.63-.02.18.35.57.52.77-.79.11-1.58.05-2.31-.56l.52.77c-.78-.07-1.4.24-2.54-.22-.02.18.36.39.35.57-.59-.05-1.37-.12-1.94-.35-.02.18.54.59.34.57-.78-.07-1.4.24-2.34-.2.18.2.34.57.52.77-.78-.07-1.58.05-2.33-.38-.02.18.15.55.33.75-.78-.07-1.4.24-2.35-.2-.02.18.35.57.53.77-.78-.07-1.58.05-2.35-.2-.02.18.36.39.54.59-.78-.07-1.58.05-2.53-.4-.03.36.15.55.13.73-.59-.05-.96-.26-1.55-.31l-1.01.27c-3.04,3.35-13.06-.42-13.06-.42-6.47,4.33-.47,29.81-.57,33.23-.1,3.43-2.11,4.21-2.11,4.21-.87-1.34-2.38,2.27-2.84.79-.48-1.31.05-2.89-.43-4.19-1.51-3.02-5.5-2.46-7.8-.85l-.41.56c-3.34,3.8-1.14,16.69.76,20.62,0,7.68,6.39,12.25,10.62,7.05l.81,3.06"/>
    <g>
      <path class="cls-12" d="M405.56,257.32c-1.5.63-3.69.26-5.06-.75-.31-.23-1.39-.13-.97.19,1.82,1.34,4.96,1.72,6.9.91.19-.08.17-.22-.05-.32-.23-.1-.62-.12-.82-.03"/>
      <path class="cls-12" d="M398.94,256.29c-.93-.54-2-.87-3.07-1.05-.16-.02-.37.02-.49.11-.1.07-.13.18-.01.26.47.33,1.1.5,1.69.54.18.01.43-.01.55-.16.11-.14-.06-.25-.21-.26-.48-.03-.97-.17-1.36-.44-.17.12-.34.25-.51.37.96.16,1.91.46,2.74.95.17.1.42.06.58-.01.12-.06.26-.21.09-.3"/>
      <path class="cls-12" d="M394.63,256.06c-1.27-.14-2.71-.82-3.25-1.82-.82-1.51.25-3.71,1.91-4.49.18-.08.1-.22-.07-.27-.22-.07-.5,0-.69.08-1.45.68-2.5,2.47-2.41,3.83.09,1.27,1.22,2.25,2.71,2.75.44.15.92.26,1.39.31.19.02.54,0,.65-.15.11-.14-.06-.22-.24-.24"/>
      <path class="cls-12" d="M407.94,256.88c-.06-.15.08-.24.18-.22.34.04.7-.03,1.01-.24.1.15.2.29.3.44-.69.02-1.4.18-2.05.54-.13.07-.3,0-.4-.1-.08-.08-.15-.24-.02-.31"/>
      <path class="cls-12" d="M406.96,256.98c.72-.4,1.51-.57,2.29-.59.11,0,.25.07.33.18.06.09.06.2-.03.26"/>
      <path class="cls-12" d="M410.56,257.27c.83.04,1.84-.43,2.33-1.34.73-1.38.31-3.13-.64-4.14-.1-.11-.03-.23.08-.26.15-.04.32.06.43.18.83.88,1.3,2.22,1.05,3.55-.23,1.25-1.1,2.06-2.12,2.34-.3.08-.62.13-.93.12-.13,0-.35-.08-.39-.24-.05-.16.07-.21.19-.21"/>
    </g>
    <path d="M421.02,233.48c1.13-.47,2.49.11,3.15.8.15.16.43.64.58,1.37.19.93-.26,1.94-.89,2.51-.84.77-2.12.81-3.06.27-1.27-.73-1.57-2.36-1.14-3.5.08-.21.44-1.08,1.35-1.46"/>
    <path d="M411.02,236.27s5.64-3.71,8.36-3.74c3.97-.06,8.64,2.54,9.87,4.62,0,0-6.15-3.82-8.95-3.7-2.68.12-9.29,2.82-9.29,2.82Z"/>
    <path d="M388.09,231.07c-1.04-.65-2.79-.65-3.56-.08-.18.13-.67.52-.94,1.21-.35.89-.07,1.95.45,2.63.69.9,1.95,1.16,2.97.78,1.38-.51,1.95-2.06,1.72-3.25-.04-.22.21-.61-.63-1.14"/>
    <path d="M394.7,234.56s-5.64-4.3-8.57-4.64c-4.27-.49-9.6,1.58-11.16,3.51,0,0,7.05-3.12,10.05-2.69,2.87.41,9.67,3.82,9.67,3.82Z"/>
    <path class="cls-17" d="M432.4,227.53c0-.19.05-.36.12-.53-.91-1.56-2.1-2.52-2.21-2.61,0,0-1.52-1.25-4.06-2.03-1.75-.54-6.65-1.18-13.24-.94-.05.8-.11,1.6-.16,2.4-.04.61-.08,1.22-.11,1.83,2.3-.35,4.27-.55,5.75-.67,3.13-.25,4.73-.36,6.51.04,1.87.42,3.43,1.17,4.03,1.47.85.42,1.42.68,2.09,1.19.52.4.93.8,1.24,1.15.02-.44.05-.87.05-1.31Z"/>
    <path class="cls-17" d="M401.68,220.25c-.16.79-.32,1.57-.47,2.36-.12.6-.25,1.2-.37,1.8-2.57-1.02-4.78-1.79-6.46-2.34-3.55-1.16-5.37-1.75-7.54-1.89-2.28-.15-4.28.11-5.06.22-1.1.15-1.83.23-2.75.52-1.98.63-2.93,1.59-3.21,1.44-.25-.14.38-1.02.44-1.11,1.6-2.22,4.39-3.18,4.6-3.26,0,0,2.1-.75,5.25-.75,2.17,0,8.02.83,15.57,3.01"/>
    <path class="cls-4" d="M351.86,241.34c-4.11-10.32-7.19-10.45-7.19-10.45,0,0-2.13,2.32-1.21,7.09"/>
    <path class="cls-4" d="M350.25,242.23c-2.75-.34-.75,4.88-1.54,6.07-.79,1.2-1.73-2.05-1.98-5.96,0,0,.12-5.26,2.75-6.16"/>
    <path class="cls-36" d="M421.64,210.81s-8.44.92-15.29.96c-6.85.04-13.53-3.48-13.53-3.48,0,0,8.02,2.58,13.44,2.58s15.38-.07,15.38-.07Z"/>
    <path class="cls-17" d="M426.33,191.18c-.09-.12.04.05,0,0-1.69-2.41-2.75-4.97-4.53-7.29-1.75-2.28-3.47-4.35-5.34-6.53-.11-.13-2.35-.2-2.46-.33-.02-.02-.09-.11-.12-.13-.06-.07-.12-.14-.18-.2-.14-.16-.28-.31-.42-.47-10.6-4.71-23.43-5.45-35.03-1.97-22.54,6.76-35.34,30.51-28.58,53.06.58,1.93-.59,4.26,1.29,5.36,1.88,1.1,2.11.56,3.91-.67,1.72-1.34,3.1-3.06,4.04-5.03,4.95-9.26,6.23-24.06,4.09-34.34,1.23,1.95,9.91-.01,11.83,1.27,7.58,5.06,17.83,3.01,22.89-4.58.78,1.15,1.65,2.23,2.6,3.23,8.73,9.2,20.16,13.7,29.78,7.31.35-.23-2.69-7.15-3.74-8.68Z"/>
    <path class="cls-9" d="M373.12,228.55l.95,3.72c.5,2.87,2.23,8.62,3.09,10.22,1.21,2.23,16.16,4.13,19.23,2.63,3.07-1.51,5.34-9.97,6.27-11.9l5.98.77c.35,2.61,1.63,10.89,2.69,12.07,1.06,1.18,7.96,1.48,8.74,1.51.65.02,1.55.05,2.54.04,2.62,0,5.8-.21,6.85-1.11,1.55-1.32,3.52-6.67,5.25-11.73l.28-.79c.06-.19.13-.32.14-.38h0l.31-.91c-8.34-4.75-19.74-4.88-26.99-.32l.05.1-5.83-.78c-6.29-4.87-17.55-8.09-25.96-5.5h0l-25.7,2.4-.24,2.24,22.37-2.29ZM412.09,245.28c-.66-.74-1.74-6.55-2.42-11.07,6.3-3.84,16.56-3.71,24.06.09v.11c-.94,2.71-3.41,9.94-4.93,11.24-1.8,1.54-15.53.79-16.7-.36v-.02ZM378.98,242.01c-1.74-4.3-3.08-8.74-4.02-13.28,7.52-2.79,20.06-.02,26.22,4.62-1.3,3.51-3.06,9.69-5.26,10.77-3.17,1.55-16.18-.69-16.94-2.1h0Z"/>
    <path class="cls-6" d="M338.5,231.56s-21.36-15.49-13.22-32.12c1.56-3.19,1.74-2.14,1.83-4.91.48-14.47-4.58-11.02,16.62-27.94s24.31-16.63,56.66-14.22c16.68,1.24,25.82,8.22,30.38,18.79,2.05,4.75,3.17,10.23,3.64,16.24,0,0-34.09-9.72-54.39,1.22-20.3,10.95-41.61,46.59-37.28,58.01,1.22,3.21-4.23-15.08-4.23-15.08Z"/>
    <path class="cls-31" d="M325.33,215.73s28.93-42.15,67.5-43.43c0,0-47.64-5.1-68.72,28.93l-.31,4c-.19,2.49.04,4.99.69,7.4l.84,3.1Z"/>
    <path class="cls-37" d="M449.73,348.24c-.67,1.25-1.26,2.56-1.74,3.89s-1.05,2.89-.9,4.34c.22,2.11,1.08,4.25,1.69,6.26,2.38,7.89,4.73,15.81,6.25,23.92.82,4.36,1.43,8.78,1.49,13.22.07,5.03-.77,10.09-1.77,15.01-1.38,6.83-4.12,13.44-4.85,20.39-.25,2.43.47,4.97.84,7.37.19,1.2.22,2.6.61,3.76.38,1.1.95,2.16,1.35,3.26,2.87,7.84,4.51,16.16,5.86,24.37,3.02,18.3,4.19,36.91,4.67,55.43.08,3.18.14,6.36.18,9.55,0,.27,1.45.05,1.45-.39-.23-20.01-1.19-40.11-4.07-59.93-1.35-9.34-3.05-18.76-6.06-27.73-.52-1.55-1.07-3.09-1.76-4.57-.09-.2-.18-.37-.24-.58-.3-1.05-.35-2.24-.52-3.32-.24-1.54-.48-3.08-.72-4.62-.15-.97-.28-1.76-.18-2.74.16-1.64.44-3.27.81-4.88.75-3.26,1.79-6.44,2.65-9.67,2.36-8.9,3.8-18.07,2.77-27.26-.98-8.7-3.25-17.22-5.72-25.6-.88-2.99-1.83-5.97-2.67-8.98-.23-.82-.48-1.65-.61-2.5-.22-1.46.36-3.02.85-4.37s1.07-2.64,1.74-3.89c.12-.22-1.23-.13-1.43.25h0Z"/>
    <path class="cls-20" d="M464.5,535.32l-42.76-129.06-26.54-79.87c-2.01-6.11-11.5-2.91-9.46,3.2l68.11,205.62c3.55.03,7.1.07,10.65.11Z"/>
    <path class="cls-21" d="M435.62,439.78c.05-.59.19-1.14.42-1.66.03-.11.07-.22.14-.33,0-.01.02-.03.03-.04.11-.21.24-.42.39-.63.03-.04.06-.07.09-.11.75-1.13,1.58-2.39,1.31-3.71-.35-1.76-1.61-3.18-1.73-5.02-.09-1.36.5-2.65.54-4.01.05-1.58-.98-2.29-2.06-3.26-1-.89-1.83-1.95-1.91-3.34-.08-1.43.66-2.42,1.23-3.63.66-1.4-.48-2.69-1.66-3.4-.98-.59-2.1-.93-3.24-1.07,0,0,0,0,0,0,0,0-14.53.44-21.03,6.03-6.5,5.6-8.16,6.36-8.16,6.36,0,0-5.18,1.78-5.78,1.92,3.31,7.9,2.27,13.96,5.84,24.89,2.02-.25,1.08.49,1.08.49,5.64-1.43,9.32-.32,13,1.25,4.3,1.18,5.89-.84,10.34-.93l6.92-3.19c.81-.81,1.75-1.45,2.66-2.15.71-.55,1.47-1.19,1.58-2.13.09-.77-.05-1.56.01-2.33Z"/>
    <path class="cls-21" d="M429.09,446.89s.07-.02.12-.03c-.05,0-.09.02-.12.03Z"/>
    <path class="cls-21" d="M431.26,446.42s.05-.01.07-.02c-.02,0-.04,0-.07.02Z"/>
    <path class="cls-21" d="M429.58,446.79s.06-.01.08-.02c-.03,0-.05.01-.08.02Z"/>
    <path class="cls-21" d="M430.48,446.59c.06-.01.14-.03.21-.05-.07.01-.14.03-.21.05Z"/>
    <path class="cls-15" d="M400.51,272.58c-4.55-1.46-9.33-6.37-14.83-6.78,0,0,.76,9.66,12.48,11.38,11.72,1.73,14.01-7.48,14.01-7.48-5.38-1.19-6.88,2.79-11.66,2.87Z"/>
    <path class="cls-15" d="M400.12,264.72c-6.02-.92-15.67-2.42-15.67-2.42,0,0-.28,13.29,13.68,15.42,13.95,2.13,14.66-11.29,14.66-11.29,0,0-6.65-.79-12.67-1.71Z"/>
    <path class="cls-30" d="M400.17,264.73c-2.86-.44-14.33-1.95-14.33-1.95,0,0,3.13,8.42,13.48,10.01,11.22,1.72,11.49-6.07,11.49-6.07l-10.64-2Z"/>
    <path class="cls-19" d="M400.22,265.25c-2.86-.44-11.5-1.51-11.5-1.51,0,0,2.6,3.3,11.18,4.61,8.58,1.31,10.86-1.16,10.86-1.16l-10.54-1.94Z"/>
    <path class="cls-15" d="M413.33,265.75c-.29-.13-.29-.14-1.69-.49-2.33-.6-3.05-1.56-4.74-1.98-2.89-.71-3.91.39-5.18.2-1.27-.19-2.93-1.82-5.9-2.01-1.74-.11-6.12.78-8.52.66-1.44-.08-2.5-.09-2.82-.05-.44.06-.66,2.09,15.35,4.53,16.01,2.45,13.9-.67,13.5-.85Z"/>
    <path class="cls-29" d="M376.63,422.18l-58.39.82v-71.13s17.7-56.88,17.7-56.88c0,0-54.51,6.36-62.07,48.65-3.26,23.1-5.79,36.28-7.66,70.28-.91,9.57-1.2,20.54-.47,27.09-.51,10.15,6.68,24.48,14.28,27.33,18.21,6.83,39.3,1.77,39.3,1.77,0,0,8.88-.86,9.26-.87,19.52-.14,32.02-.71,68.15-7.1l-11.83-16.13c-2.33-9.54-6.79-14.12-8.26-23.83Z"/>
    <path class="cls-37" d="M267.35,454.59c3.88,10.58,13.76,17.48,24.72,19.05,11.94,1.7,23.82,2.06,35.67-.41,9.8-2.05,19.34-5.38,28.99-8.02s18.77-5.03,28.18-7.45c5.5-1.41,10.99-2.81,16.5-4.19.22-.05.7-.26.63-.56-2.15-9.12-4.29-18.24-6.44-27.36-.3-1.29-.61-2.58-.91-3.88-.06-.24-.45-.23-.63-.21-8.92.7-17.85,1.41-26.77,2.11-14.11,1.11-28.21,2.22-42.32,3.34-3.22.25-6.45.51-9.67.76l.63.32c.29-3.57.57-7.15.86-10.72.64-7.97,1.27-15.93,1.91-23.9.67-8.34,1.33-16.68,2-25.03.38-4.71.73-9.43,1.13-14.14.55-6.47.58-13.21-2.78-19.02-.73-1.26-1.61-2.42-2.64-3.45-.36-.36-1.73.18-1.34.57,5.62,5.65,6.11,14.28,5.34,21.76-.42,4.09-.65,8.2-.98,12.29-.65,8.11-1.29,16.22-1.94,24.33-.65,8.17-1.3,16.33-1.95,24.5-.23,2.87-.46,5.73-.69,8.6-.11,1.32-.46,2.87-.33,4.19,0,.06-.01.13-.01.18-.03.33.4.34.63.32,8.92-.7,17.85-1.41,26.77-2.11,14.11-1.11,28.21-2.22,42.32-3.34,3.22-.25,6.45-.51,9.67-.76l-.63-.21c2.15,9.12,4.29,18.24,6.44,27.36.3,1.29.61,2.58.91,3.88l.63-.56c-13.28,3.31-26.53,6.73-39.74,10.29-8.99,2.42-17.88,5.23-26.87,7.66-5.5,1.49-11.09,2.66-16.78,3.17-5.92.53-11.88.33-17.79-.25-7.2-.71-14.21-1.68-20.35-5.79-4.93-3.31-8.83-8.12-10.88-13.71-.19-.51-1.62-.09-1.45.39h0Z"/>
    <path class="cls-37" d="M315.6,427.6c-1.83-.48-3.93.49-5.44,1.46-2.39,1.53-4.35,3.71-5.97,6.02-1.2,1.71-2.22,3.55-3.09,5.45-.1.21,1.26.11,1.43-.26,1.56-3.45,3.65-6.74,6.42-9.34.97-.91,2.04-1.77,3.24-2.37.71-.35,1.43-.61,2.22-.4.31.08.73-.05,1.01-.19.13-.06.49-.29.18-.37h0Z"/>
  </g>
  <g id="Layer_2" data-name="Layer 2">
    <path class="cls-16" d="M114.89,102.56v437.08h447.1V102.56H114.89ZM543.91,519.79H134.7V121.94h409.22v397.85Z"/>
    <path class="cls-16" d="M544.43,118.54v404.97l133.82,38.42,11.56-.23V88.4l-145.38,30.14ZM668.56,539.78l-114.08-36.17V141.03l111.28-22.91,2.81,421.66Z"/>
    <path class="cls-18" d="M531.8,121.5v398.34l146.55,42.2-1.17-470.67-145.38,30.14ZM661.27,537.92l-111.42-36.17V139.17l109.61-22.91,1.81,421.66Z"/>
    <polygon class="cls-38" points="660.31 534.1 549.84 501.75 550.56 140.01 659.45 116.26 660.31 534.1"/>
    <path class="cls-18" d="M134.8,122.2v398.34h192.19V122.2h-192.19ZM306.7,502.44h-154.57V139.86h154.57v362.58Z"/>
    <rect class="cls-13" x="134.7" y="146.73" width="2.91" height="63.3"/>
    <rect class="cls-13" x="134.7" y="418.47" width="2.91" height="63.3"/>
    <rect class="cls-38" x="152.06" y="139.07" width="153.64" height="362.58"/>
    <rect class="cls-13" x="317.37" y="273.25" width="5.25" height="83.93" rx="2.62" ry="2.62"/>
    <path class="cls-10" d="M929.74,877.17c7.62-8.25,15.7-17.57,15.93-28.8.23-11.23-12.7-22.44-22.06-16.24,2.72-6.75.17-15.22-5.81-19.35-5.99-4.13-14.81-3.51-20.15,1.42-3.03-16.29-27.92-22.71-38.46-9.93.99-6.36-8-10.63-13.59-7.45-5.59,3.19-7.51,10.45-7.06,16.87-3.66-7.51-12.24-12.31-20.56-11.49-8.32.82-15.8,7.2-17.92,15.28-.8-7.11-1.97-14.94-7.45-19.53-5.49-4.59-16.4-1.99-16.25,5.16,1.65-10.1-3.98-20.96-13.19-25.45-9.2-4.48-21.22-2.22-28.16,5.31-1.35-9.9-5.05-20.23-13.27-25.91-8.22-5.69-21.67-4.2-25.85,4.88-4.73-7.74-12.32-14.83-21.39-14.82-9.07,0-17.5,10.77-12.58,18.39-6.71-11.19-27.62-6.78-29.23,6.17-4.82-7.48-14.88-11.12-23.38-8.47-8.5,2.66-14.68,11.38-14.39,20.28-8.45-5.2-20.18-4.36-27.81,1.98-7.63,6.35-10.58,17.74-6.99,26.99-25.39,2.03-46.64,69.21-36.76,92.69"/>
    <path class="cls-28" d="M740.46,924.93c-6.03-6.52-12.41-13.9-12.59-22.78-.18-8.88,10.04-17.75,17.45-12.84-2.15-5.34-.14-12.03,4.6-15.3,4.73-3.27,11.71-2.78,15.94,1.12,2.4-12.88,22.08-17.96,30.41-7.85-.78-5.03,6.32-8.41,10.74-5.89,4.42,2.52,5.94,8.27,5.58,13.34,2.89-5.94,9.68-9.74,16.26-9.09,6.58.65,12.49,5.69,14.17,12.09.63-5.62,1.56-11.82,5.89-15.45,4.34-3.63,12.97-1.57,12.85,4.08-1.3-7.99,3.15-16.58,10.43-20.12,7.28-3.54,16.78-1.75,22.27,4.2,1.06-7.83,3.99-15.99,10.49-20.49,6.5-4.5,17.14-3.32,20.44,3.86,3.74-6.12,9.74-11.72,16.91-11.72,7.17,0,13.84,8.51,9.95,14.54,5.3-8.85,21.84-5.36,23.11,4.88,3.81-5.92,11.77-8.8,18.48-6.69,6.72,2.1,11.61,9,11.38,16.03,6.68-4.11,15.96-3.45,21.99,1.57,6.03,5.02,8.36,14.02,5.53,21.34,20.08,1.61,34.74,25.72,26.93,44.29"/>
    <path class="cls-10" d="M375.67,903.07c7.62-8.25,15.7-17.57,15.93-28.8.23-11.23-12.7-22.44-22.06-16.24,2.72-6.75.17-15.22-5.81-19.35-5.99-4.13-14.81-3.51-20.15,1.42-3.03-16.29-27.92-22.71-38.46-9.93.99-6.36-8-10.63-13.59-7.45-5.59,3.19-7.51,10.45-7.06,16.87-3.66-7.51-12.24-12.31-20.56-11.49-8.32.82-15.8,7.2-17.92,15.28-.8-7.11-1.97-14.94-7.45-19.53-5.49-4.59-16.4-1.99-16.25,5.16,1.65-10.1-3.98-20.96-13.19-25.45-9.2-4.48-21.22-2.22-28.16,5.31-1.35-9.9-5.05-20.23-13.27-25.91s-21.67-4.2-25.85,4.88c-4.73-7.74-12.32-14.83-21.39-14.82-9.07,0-17.5,10.77-12.58,18.39-6.71-11.19-27.62-6.78-29.23,6.17-4.82-7.48-14.88-11.12-23.38-8.47-8.5,2.66-14.68,11.38-14.39,20.28-8.45-5.2-20.18-4.36-27.81,1.98-7.63,6.35-10.58,17.74-6.99,26.99-25.39,2.03-43.94,32.53-34.06,56.01"/>
    <path class="cls-28" d="M237.99,905.15c-7.63-8.26-15.72-17.6-15.95-28.85-.23-11.25,12.72-22.48,22.1-16.26-2.72-6.76-.17-15.24,5.82-19.38,6-4.14,14.83-3.52,20.19,1.42,3.04-16.32,27.97-22.75,38.52-9.94-.99-6.37,8.01-10.65,13.61-7.46,5.6,3.19,7.52,10.47,7.07,16.9,3.67-7.53,12.26-12.33,20.59-11.51,8.33.82,15.83,7.21,17.95,15.31.8-7.12,1.97-14.97,7.47-19.56,5.49-4.6,16.42-1.99,16.28,5.17-1.65-10.12,3.99-21,13.21-25.49,9.22-4.49,21.26-2.22,28.21,5.32,1.35-9.92,5.06-20.26,13.29-25.96,8.23-5.7,21.71-4.21,25.89,4.88,4.74-7.75,12.34-14.85,21.43-14.84,9.09,0,17.53,10.78,12.6,18.42,6.72-11.21,27.66-6.79,29.28,6.18,4.83-7.49,14.9-11.14,23.41-8.48,8.51,2.66,14.71,11.4,14.41,20.31,8.46-5.21,20.21-4.37,27.85,1.99,7.64,6.36,10.59,17.76,7,27.03,25.43,2.03,44.01,32.58,34.12,56.1"/>
    <path class="cls-5" d="M49.05,917.96c-6.03-6.52-12.41-13.9-12.59-22.78-.18-8.88,10.04-17.75,17.45-12.84-2.15-5.34-.14-12.03,4.6-15.3,4.73-3.27,11.71-2.78,15.94,1.12,2.4-12.88,22.08-17.96,30.41-7.85-.78-5.03,6.32-8.41,10.74-5.89,4.42,2.52,5.94,8.27,5.58,13.34,2.89-5.94,9.68-9.74,16.26-9.09,6.58.65,12.49,5.69,14.17,12.09.63-5.62,1.56-11.82,5.89-15.45,4.34-3.63,12.97-1.57,12.85,4.08-1.3-7.99,3.15-16.58,10.43-20.12,7.28-3.54,16.78-1.75,22.27,4.2,1.06-7.83,3.99-15.99,10.49-20.49,6.5-4.5,17.14-3.32,20.44,3.86,3.74-6.12,9.74-11.72,16.91-11.72,7.17,0,13.84,8.51,9.95,14.54,5.3-8.85,21.84-5.36,23.11,4.88,3.81-5.92,11.77-8.8,18.48-6.69,6.72,2.1,11.61,9,11.38,16.03,6.68-4.11,15.96-3.45,21.99,1.57,6.03,5.02,8.36,14.02,5.53,21.34,20.08,1.61,34.74,25.72,26.93,44.29"/>
    <path class="cls-5" d="M1352.33,902.65c7.46-7.73,15.37-16.47,15.63-26.96.25-10.49-12.33-20.94-21.49-15.11,2.67-6.31.21-14.22-5.62-18.06-5.83-3.84-14.44-3.24-19.67,1.38-2.91-15.21-27.19-21.15-37.51-9.17.98-5.94-7.77-9.91-13.24-6.92-5.47,2.99-7.36,9.79-6.94,15.79-3.55-7.01-11.92-11.47-20.04-10.68-8.12.79-15.44,6.77-17.54,14.33-.76-6.64-1.88-13.96-7.22-18.23-5.34-4.27-16-1.81-15.88,4.87,1.63-9.45-3.83-19.58-12.8-23.74-8.97-4.16-20.71-2.01-27.5,5.04-1.29-9.25-4.87-18.89-12.87-24.18-8-5.29-21.14-3.86-25.25,4.63-4.6-7.22-11.98-13.82-20.84-13.79-8.85.03-17.11,10.11-12.33,17.22-6.51-10.44-26.94-6.26-28.55,5.85-4.69-6.98-14.49-10.35-22.79-7.85-8.3,2.51-14.36,10.67-14.1,18.99-8.23-4.84-19.68-4.02-27.15,1.93-7.46,5.95-10.37,16.6-6.9,25.24-24.79,1.97-43.03,48.18-33.45,70.09"/>
    <path class="cls-14" d="M1421.38,1084.44H-44.25v-197.95l454.27-2.71c58.33-1.49,506.68-.89,565.02.55l446.33,2.16v197.95Z"/>
  </g>
  <g id="Layer_4" data-name="Layer 4">
    <path class="cls-21" d="M967.67,234.71s-2.61,8.52.79,24.14,28.34-16.4,28.34-16.4l-29.13-7.74Z"/>
    <path d="M766.29,218.72c-2.42.23-5.46-2.11-8.68-.64-.91.42-1.27-5.56-2.04-5.11-19.12,5.55-19.38,22.25-20.29,33.2-.4,5.22,2.6,13.35-1.55,16.68-4.16,3.33-10.96,1.97-14.94,5.4-4.68,4.03-2.47,11.62-4.81,17.27-2.46,5.4-8.71,8.16-14.77,6.52,6.14,6.62,14.02,11.56,22.77,14.26l8.09-7.12c-2.85,2.79-4.68,9.7-4.68,9.7,2.84,4.43,10.87,7.59,12.84,8.37,8.52,3.38,27.87,15,54.67,12.05-6.4-33.24-11.61-77.42-18.01-110.66"/>
    <path class="cls-21" d="M735.09,328.74c.46-1.62-15.7-6.13-20.55-21.22-9.39-21.08-28.52-70.19-30.99-81.15-1.23-8.11-.14-22.96-1.97-38.84-3.52-30.5-13.32-74.68-13.32-74.68l-17.95,2.48-2.91,54.56c-1.01,14.15-1.67,28.37-.06,42.47l2.61,22.93c5.14,79.38,50.07,130.89,50.07,130.89,0,0,34.62-35.81,35.08-37.43Z"/>
    <path class="cls-21" d="M697.38,64.3l-6.09,23.82.19,4.77s-5.06,12.16-6.43,14.57-14.22,12.57-14.22,12.57l1.62,15.15-23.3-5s1.37-13.15.69-15.18c-.34-2.84.18-5.72,1.49-8.26,1.06-2.38,6.62-16.98,6.62-16.98,0,0,.99-19.47,4.85-17.97.91.48,1.77,1.07,2.56,1.74,0,0-1.09,12.54.16,13.56l2.6.15s5.37-16.74,6.92-19.52c1.55-2.78,3.3-4.31,5.56-3.27,0,0,1.12,1.62.82,2.38s-6.76,19.13-5.69,19.4,1.59-1.43,1.59-1.43c0,0,7.32-22.51,8.34-23.51,1.2-1.42,3.28-1.69,4.8-.63l-2.92,13.13s3.94-10.09,6.46-10.69c1.27-.41,2.66.09,3.39,1.21Z"/>
    <path class="cls-36" d="M666.02,104.75c.9-1.78,2.1-3.46,3.47-4.9,1.8-1.9,4.04-2.88,6.49-3.69,1.4-.46,3.16-.86,4.41-1.2s1.37-1.85,1.78-2.98.68-1.83.69-2.97c.03-2.19.06-4.5.7-6.61.59-1.95,1.35-4.68,3.49-5.46.27-.1,1.15-.19,1.2-.12s.04.23.06.31c.18.54.23,1.16.35,1.72.64,3.16,1.27,6.32,1.91,9.48.07.34,1.53,0,1.45-.39-.38-1.88-.76-3.76-1.13-5.64-.27-1.34-.54-2.69-.81-4.03-.09-.46-.09-1.44-.37-1.84-.6-.85-2.75-.05-3.44.24-1.31.56-2.28,1.55-2.94,2.81-1.49,2.85-1.81,6.07-1.89,9.23-.03,1.14-.01,1.65-.38,2.66-.41,1.14-.83,2.28-1.24,3.42l.84-.41c-2.99.62-6.02,1.5-8.77,2.84-3.24,1.58-5.69,4.61-7.3,7.79-.13.25,1.24.15,1.43-.24h0Z"/>
    <path class="cls-36" d="M676.16,88.77c-5.01-1.85-11.13-1.97-16.05.16-.93.4-.07.81.56.53,4.38-1.89,9.88-1.66,14.33-.02.31.12.75.03,1.02-.15.16-.1.47-.4.14-.52h0Z"/>
    <path d="M743.82,226.19c1.69-2.99,4.46-5.46,5.59-8.67,1.02-2.9.6-6.11,1.06-9.15,1.37-6.28,5.98-11.51,12.4-14.08,6.38-2.47,22.01-7.86,29.01-7.12,6.78.5,13.93,2.08,18.8,6.52,3.44,3.11,5.41,7.32,8.86,10.41,4.68,4.22,11.38,5.79,17.61,7.65,6.23,1.86,12.83,4.51,15.98,9.77,4.41,7.35.22,16.35,2.19,24.47,2.44,1.45,5.07,2.59,7.82,3.38,1.54.54,2.99,1.31,4.29,2.28,1.42,1.01,2.49,2.43,3.1,4.08.55,1.78.44,3.74-.33,5.52-.76,1.73-1.67,3.39-2.72,4.97-1.02,1.53-1.85,3.17-2.46,4.88-.56,1.65-.8,3.38-.71,5.09.13,3.26,1.63,6.22,4.13,8.17,2.37,1.89,5.46,2.04,8.18,2.79,1.35.33,2.62.92,3.72,1.74,1.04.79,1.76,1.93,2.01,3.24.42,2.24-.47,4.61-2.31,6.12-2.43,1.69-5.61,1.43-7.52-.6-.22-.24-.4-.52-.54-.82.8,1.06,1.94,1.79,3.26,2.08,1.53.35,3.18,0,4.51-.98,1.66-1.41,2.45-3.58,2.04-5.63-.25-1.16-.9-2.18-1.84-2.87-1.05-.74-2.24-1.28-3.51-1.57-2.59-.7-5.85-.8-8.47-2.84-2.7-2.07-4.33-5.25-4.48-8.74-.09-1.81.16-3.65.75-5.41.63-1.79,1.49-3.51,2.56-5.1,1.02-1.53,1.91-3.14,2.66-4.82.68-1.58.79-3.31.33-4.89-.55-1.5-1.53-2.79-2.82-3.71-1.24-.93-2.62-1.68-4.09-2.21-2.54-.76-4.97-1.83-7.24-3.15,1.04,3.43,3.04,6.62,4.28,10.01.24.67.41,1.4.55,2.16,1.8,2.86,3.05,6,2.6,8.9-.91,5.92-4.29,12.02-5.98,16.88-.12.14-.22.31-.25.53-.02.13-.04.26-.06.4-.15.47-.27.93-.37,1.37.05.1.08.21.14.3-.27,2.25-.33,4.53.39,6.71,1.01,3.06,3.52,5.36,6.05,7.21,2.62,1.91,5.64,3.47,8.81,4.33-4.4,3.44-11.53,8.75-14.22,9.26-.16.03-1.98.92-2.09.81-3.8-2.21-8.58-7.88-11.1-11.81,0,0,3.88,10.06,9.27,12.97l-3.65,2.15c-12.95,7.52-33.97,11.53-48.92,10.31,3.38-2.43,4.43-7.08,3.89-11.2-.84-4.06-1.71-7.5-3.41-11.29-1.09-2.99,4.76-5.38,5.04-8.56-.3-.09-.64-.17-.92-.27l-48.53-56.9c-6.27-4.91-16.81-8.48-13.31-15.07Z"/>
    <path class="cls-21" d="M761.39,291.15c-.76,12.53-3.8,19.85-4.98,32.35-.04.45-.55,4.18-.84,4.52-.2.23-3,1.55-3.28,1.68-1,.5-1.19,2.61-2.19,3.11-.03,2.61,2.98,3.16,4.43,5.4,2.89,4.44,9.51,7.16,14.63,8.57,13.41,3.68,27.22.7,38.01-6.06,1.3-.81,3.81-3.34,3.77-4.76-.04-1.39-4.17-3.68-4.73-5.26-4.22-11.81,3.92-35.09,3.92-35.09"/>
    <path class="cls-21" d="M676.06,613.82c10.04-26.51,26.1-73.78,26.1-73.78l122.44-34.59c-6.94,8.84-13.75,17.8-20.13,27.06-7.24,10.51-13.95,21.41-19.56,32.87-5.49,11.22-9.94,22.98-12.66,35.18-1.08,4.84-1.87,9.73-2.39,14.64-1.01-1.67-1.8-2.54-2.3-2.42-5.07,1.2-77.66,132.82-77.66,132.82,0,0,1.42,16.39-7.61,46.06-9.04,29.67-75.12,115.16-75.12,115.16l-23.45-7.49s83.35-261.75,92.35-285.52Z"/>
    <path class="cls-8" d="M511.94,930.25s-2.36,2.57-.88,6.94c1.48,4.37,29.31-.63,39.01.28,9.7.91,54.75,4.6,64.18,2.28,9.43-2.32.31-13.09.31-13.09l-102.63,3.6Z"/>
    <path class="cls-21" d="M611.35,898.62c-.48,10.51,2.66,16.65,3.81,21.32,1.32,5.39-.96,9.52-6.77,11.91-4.89,2.01-8.07,1.6-13.41,1.42-6.98-.25-20.1-2.04-27.08-2.29-5.98-.21-30.27.23-36.12,1.39-9.11,1.81-14.76.56-18.82-.82-1.13-.38-1.83-.31-2.36-1.16-1.39-2.22-1.26-4.69,1.71-6.64,3.75-2.45,8.34.76,11.83-2.12.62-.51,1.2-1.08,1.91-1.46,1.41-.73,3.12-.59,4.74-.61,8.05-.06,17.97-4.36,28.46-7.28,3.08-.86,26.12-16.64,28.97-18.03"/>
    <path class="cls-36" d="M533.39,920.49c-2.18.51-4.29,1.36-6.31,2.33-.67.37-1.43.69-1.87,1.28-.81-.59-1.78-.95-2.77-1.12-.97-.16-1.97-.17-2.95,0,1.92-.44,4.07-.17,5.75.95l-.11.03c.5-.64,1.21-.94,1.88-1.29,2.04-.94,4.16-1.79,6.38-2.18h0Z"/>
    <path class="cls-8" d="M528.65,922.03s10.75-3.61,10.53,10.7l6.41.15s-2.25-13.33-8.27-13.86c-6.01-.53-8.67,3.01-8.67,3.01Z"/>
    <path class="cls-21" d="M779.69,629.3c8.87,2.91,18.66,1.25,27.94,2.09,15.06,1.36,27.21,1.28,42.27.38-9.02,31.87-19.95,97.97-19.14,112.07,1.24,21.53,19.14,41.49-3.34,161.56l-27.9-4.98s-16.53-83.01-20.57-139.15c-2.19-30.41-6.45-89.45-11.11-132.33,6.46,3.09,5.03-1.88,11.85.35Z"/>
    <path class="cls-8" d="M831.37,932.37s1.86.04,2.18,6.35c.44,8.45-25.82,8.09-32.79,8.92-6.97.83-29.04,8.34-44.76,9.41-15.72,1.06-32.03-7.96-33.77-12.88-1.73-4.92.11-7.25,3.44-8.66,3.33-1.41,100.7-8.07,100.7-8.07l5,4.92Z"/>
    <path class="cls-21" d="M826.99,895.79c-.28,5.3,1.76,12.76,3.32,23.85.69,4.88,4.85,11.77-.19,15.48-8.93,6.58-19.83,4.36-23.92,5.46-8.61,2.31-15.54,2.5-23.78,5.48-8.35,3.02-10.07,3.75-19.33,4.62-1.28.12-2.64.12-3.77-.42-.76-.36-1.36-.95-2.12-1.31-2.68-1.28-5.95.63-8.97.33-1.34-.13-2.56-.69-3.81-1.13-3.3-1.15-6.89-1.44-10.36-2.07-3.48-.62-7.03-1.66-9.5-3.93-2.47-2.27-3.5-6.07-1.51-8.73,3-4.01,7.12-1.84,11.34-2.34,4.22-.5,5.79-1.22,9.48-3.04,9.41-4.65,10.85-5.58,18.8-9.23,6.16-2.84,26.97-11.58,35.59-17.87l1.05-36.06"/>
    <g>
      <path class="cls-36" d="M757.53,949.1c-.91-.21-1.41-1.1-1.59-1.95s-.02-1.72.41-2.48c.92-1.59,2.72-2.55,4.31-3.32.93-.45,1.88-.85,2.82-1.28.08-.04.2-.13.13-.23s-.25-.06-.34-.02c-1.82.84-3.71,1.57-5.36,2.73-1.5,1.06-2.83,2.62-2.52,4.57.16,1.02.76,2.04,1.83,2.29.12.03.28,0,.36-.1.07-.08.06-.18-.06-.21h0Z"/>
      <path class="cls-36" d="M748.19,949.48c-2.23.06-2.31-3.13-2.09-4.67.06-.44.16-.88.31-1.3.22-.58.62-1.09,1.05-1.53,1.13-1.17,2.65-1.83,4.15-2.39.84-.32,1.64-.74,2.46-1.11s1.74-.75,2.67-.75c.16,0,.55-.24.21-.25-1.75,0-3.34,1-4.89,1.68-.79.35-1.61.62-2.39.99s-1.46.77-2.1,1.3c-.6.5-1.16,1.1-1.52,1.79-.2.39-.31.83-.39,1.25-.21,1.07-.24,2.23.04,3.29.14.52.38,1.05.78,1.43s.95.52,1.5.51c.08,0,.3-.04.34-.13s-.03-.12-.13-.12h0Z"/>
      <path class="cls-36" d="M741.59,947.57c-1.22-.38-1.92-1.58-2.19-2.76-.26-1.14-.11-2.3.43-3.34,1.13-2.17,3.48-3.53,5.63-4.5.62-.28,1.25-.53,1.89-.76.75-.27,1.51-.57,2.29-.75.05-.01.26-.08.23-.16-.03-.08-.23-.03-.28-.02-.74.17-1.45.46-2.17.7-.6.21-1.2.44-1.79.69-1.23.52-2.42,1.14-3.51,1.9-1.95,1.37-3.7,3.43-3.31,5.96.21,1.37.97,2.8,2.36,3.23.12.04.57-.16.41-.21h0Z"/>
      <path class="cls-36" d="M734.84,946.45c-1.49-.59-2.65-1.87-3.2-3.37-.48-1.3-.56-2.82.21-4.02.71-1.1,1.84-1.89,2.95-2.54,1.21-.71,2.5-1.27,3.81-1.78.63-.25,1.28-.47,1.92-.71.42-.15.82-.33,1.24-.49s.88-.34,1.34-.32c.11,0,.29-.03.33-.16.04-.11-.04-.21-.16-.22-.81-.04-1.59.33-2.33.63-.66.27-1.34.5-2,.75-1.4.53-2.79,1.11-4.09,1.85-1.22.68-2.47,1.51-3.3,2.66s-.95,2.63-.57,4.02c.5,1.8,1.82,3.36,3.57,4.05.22.09.59-.23.29-.35h0Z"/>
    </g>
    <path class="cls-8" d="M758.24,919.58c-2.32.09-4.51,1.09-6.09,2.8l-9.63,10.65,2.72-.61,15.02-12.92-2.02.07Z"/>
    <path class="cls-8" d="M743.18,933.02s.85-2.2,4.68-2.84c12.03-2.02,39.04-2.51,42.89,15.08l-4.35,1.86s-5.93-13.25-17.2-14.04c-11.27-.79-26.01-.05-26.01-.05Z"/>
    <path class="cls-27" d="M699.53,499.66l122.13-8.82s30.48,48.61,38.19,73.73c7.72,25.12.85,94.62.85,94.62-28.4,19.19-59.04,16.8-92.94,11.75l-5.88-42.58-21.65,42.83-21.97-3.52c-18.07-2.9-35.03-10.58-49.12-22.25l-5.25-7.68,27.99-70.81c-2.88-10.94,5.66-66.56,5.66-66.56l1.99-.71Z"/>
    <path class="cls-21" d="M876.61,372.34c-16.55,9.8-21.13,19.55-28,31.18-4.99,7.66-11.73,14.02-19.67,18.55l-13.51-41.83,21.11-31.64.55-.34-.55.34,66.03-49.87-37.25-86.77,17.82-4.66s54.98,54.12,60.67,90.01c3.43,17.33-48.49,64.04-67.2,75.03Z"/>
    <path class="cls-21" d="M829.58,368.05l1.19,57.24c.94-1.1-7.53,32.24-8.59,34.34-1.05,2.11-.53,31.18-.53,31.18,0,0-21.71,15.84-68.69,22.21-46.98,6.37-55.43-12.66-55.43-12.66l10.3-38.7s-10.83-93.99-10.3-96.65c.53-2.66,41.24-38.4,42.29-35.95,1.05,2.45,22.05,1.58,22.05,1.58,12.27,14.22,17.15,11.59,43.27,3.41l22.58,1.97,1.85,32.01Z"/>
    <polygon class="cls-22" points="698.73 390.9 669.68 327.02 713.51 294.6 744.25 332.2 698.73 390.9"/>
    <path class="cls-22" d="M814.13,404s16.65,25.44,16.51,23.15c-.09-1.74,15.41-20.35,23.58-28.94,9-9.12,19.32-16.84,30.61-22.9.78-.27-24.02-51.43-24.02-51.43l-15.98,6.97c-1.47-1.66-8.82.11-12.3,1.41-2.5-.53-7.6,4.05-7.6,4.05l-10.81,67.68Z"/>
    <path class="cls-22" d="M697.54,500.37l124.12-9.52,9.18-65.55-3.73-89.3-21.96-1.92s-11.53,24.18-42.63,20.89c-15.11-8.47-12.5-17.15-9.68-24.16l-11.91-1.83s-35.67,43.18-41.21,58.39c-5.52,15.23-2.18,113.02-2.18,113.02Z"/>
    <path class="cls-22" d="M821.66,490.85l19.28,33s-42.05,26.61-96.7,22.11c-54.64-4.5-53.58-11.96-53.58-11.96l7.23-52.73,123.76,9.58Z"/>
    <path class="cls-33" d="M762.87,629.65c1.38-14.7-2.75-29.83-11.26-41.89-2.4-3.41-5.14-6.57-8.18-9.42-1.17-1.1-2.94.66-1.77,1.77,10.37,9.74,17.07,23.24,18.62,37.38.44,4.04.47,8.11.09,12.16-.15,1.6,2.35,1.59,2.5,0h0Z"/>
    <path d="M697.16,279.16c-.62,1.17-.82,2.51-.58,3.81.27,1.53,1.2,2.85,2.54,3.63,1.84.89,4.03.66,5.65-.59.92-.72,1.55-1.74,1.79-2.88.25-1.26.26-2.56.04-3.83-.37-2.62-1.51-5.59-.72-8.82.78-3.31,2.92-6.13,5.9-7.77,1.54-.86,3.23-1.42,4.97-1.65,1.79-.2,3.6-.17,5.39.11,1.71.26,3.45.37,5.18.32,1.62-.07,3.17-.71,4.37-1.8,1.1-1.14,1.84-2.57,2.16-4.12.34-1.51.47-3.07.38-4.62-.34-2.94-.3-5.91.11-8.85.58-2.58,1.91-4.94,3.83-6.76,1.6-1.42,3.46-2.52,5.47-3.25,1.47-.57,2.9-1.24,4.27-2.01,1.13-.71,2.11-1.63,2.88-2.73l-.08.25c-.11.24-.25.46-.42.67-.6.84-1.36,1.54-2.23,2.08-1.36.84-2.79,1.57-4.27,2.18-1.93.75-3.71,1.86-5.24,3.26-1.79,1.75-3.03,3.98-3.55,6.43-.36,2.87-.37,5.78,0,8.66.11,1.62-.01,3.24-.36,4.82-.35,1.7-1.17,3.28-2.37,4.53-1.33,1.26-3.08,1.99-4.91,2.07-1.79.06-3.57-.04-5.34-.31-1.71-.26-3.44-.3-5.16-.11-1.64.21-3.23.73-4.68,1.54-2.78,1.52-4.79,4.13-5.54,7.21-.75,2.94.29,5.77.65,8.53.23,1.36.19,2.74-.11,4.09-.29,1.27-1.02,2.4-2.06,3.19-1.79,1.34-4.18,1.55-6.18.56-2.38-1.46-3.35-4.42-2.31-7.01.13-.3.3-.58.51-.83Z"/>
    <path class="cls-36" d="M796.19,313.88s-5.8,10.59-28.39,11.7c0,0-7.97.54-11.51-1.2l.74-4.8,39.16-5.7Z"/>
    <g>
      <path class="cls-21" d="M808.65,300.18c.44-2.12,3.14-3.61,3.48-5.51.97-5.57,2.52-11.02,3.66-16.55.83-1.3,1.62-2.83,2.18-3.75.87-1.27,2.1-2.65,2.96-3.92,2.44-2.82,6.54-1.14,8.57,1.21l.29.71c2.54,4.97-.27,15.83-7.6,22.17-1.84,7.23-9,10.26-13.53,5.64Z"/>
      <path class="cls-21" d="M736.16,275.34c.79-2.77,3.33-7.76,3.59-10.5.3-3.17,2.84-18.26,7.27-27.31,5.39-11.03,9.84-16.21,9.84-16.21.75-1.89-4.31-1.82-2.99-3.21l.85.14s-.46.13-.55.71c1.11.01,2.29-.4,3.22-.91,0,.03,0,.03,0,.03,1.19.8,2.56.42,3.79-.38-.03.2-.31.55-.52.52,1.25.41,2.63.03,3.61-.61-.03.2-.31.55-.34.75,1-.02,2.05-.36,2.95-.76-.19.18-3.18-.75-4.41-1.07.08-.08.19-.18.39-.32l1.18-.55c1.04.37.89,1.01,1.87.37-.25.16.94-2.06.91-1.87,1.28.21.95.07,2.11-.34-.03.2,3.28,1.85,3.25,2.04,1.07.18.62,1.11,1.61.47-.18.12-.45-.46-.67-.7,1.07.43,1.46,1.18,2.61.42-.25.16,4.58-1.45,4.58-1.45,1.25.41.97.77,2.16.17-.49.32,5.97.61,5.69.97,1.07.18-2.68,3.58-1.73,3.13-.03.2,2.55-.18,2.55-.18.44.16.37.37.23.52-.08.23-.34.67-.53.63,1.18.8,2.74.65,4.15.08-.49.32-.77.68-1.02.84,1.07.18,1.89.51,3.08-.1-.03.2-.56.71-.77.68,1,.57,2.32.58,3.48.17-.03.2-.52.52-.77.68.82.34,1.67.48,2.62.03l-.77.68c.85.14,1.43.64,2.77.46-.03.2-.49.32-.52.52.64.11,1.5.25,2.17.16-.03.2-.74.48-.52.52.85.14,1.43.64,2.56.42-.24.16-.52.52-.77.68.85.14,1.68.48,2.59.23-.03.2-.31.55-.56.71.85.14,1.43.64,2.56.42-.03.2-.52.52-.77.68.85.14,1.68.48,2.56.42-.03.2-.49.32-.74.48.85.14,1.68.48,2.81.26-.06.39-.31.55-.34.75.64.11,1.1-.02,1.74.09l1,.57c2.34,4.41,8.94,13.54,8.94,13.54,5.74,6.38-10.56,13.56-11.39,17.24-.62,2.76,3.64,12.53,5.81,17.26-1.17,5.91-5.62,11.14-6.69,17.07-.42,2.32-4.79,6.64-5.17,9.12l-6.7,7.37c-9.84,7.12-25.23,10.56-35.05,10.28-4.81-.14-9.11.46-13.29-3.71-10.5-10.47-19.86-28.04-15.54-43.05Z"/>
      <path class="cls-21" d="M767.13,217.47c-.09.04-.18.08-.27.12.11-.1.21-.21.3-.32l-.03.2Z"/>
      <path class="cls-21" d="M757.88,217.76c-.15.1-.32.2-.49.29l.03-.16s.49-.32.46-.13Z"/>
    </g>
    <g>
      <path class="cls-12" d="M757.68,285.8c1.26.94,3.41,1.15,4.95.56.34-.13,1.34.23.86.41-2.04.78-5.09.35-6.72-.87-.16-.12-.11-.25.13-.28.24-.03.61.04.78.17"/>
      <path class="cls-12" d="M764.16,286.49c1.01-.26,2.09-.3,3.14-.2.15.02.34.11.44.22.07.09.08.2-.05.24-.53.18-1.16.19-1.72.08-.18-.03-.4-.12-.48-.28-.07-.15.12-.21.26-.18.46.09.95.08,1.39-.07.13.15.26.31.39.46-.94-.09-1.91-.05-2.81.19-.18.05-.41-.04-.54-.16-.1-.08-.19-.25-.01-.3"/>
      <path class="cls-12" d="M768.27,287.34c1.22.18,2.75-.08,3.5-.86,1.14-1.18.68-3.58-.69-4.7-.15-.12-.04-.23.13-.23.23,0,.47.12.63.24,1.2.98,1.74,3,1.32,4.22-.39,1.14-1.7,1.76-3.22,1.84-.45.02-.93.01-1.38-.06-.19-.03-.51-.14-.57-.3-.07-.16.11-.19.29-.16"/>
      <path class="cls-12" d="M755.55,284.81c.09-.12-.02-.23-.11-.25-.33-.05-.65-.2-.89-.47-.13.11-.26.22-.39.33.65.18,1.27.51,1.8.99.1.1.28.08.4,0,.09-.05.2-.18.1-.28"/>
      <path class="cls-12" d="M756.44,285.14c-.59-.54-1.29-.89-2.01-1.1-.11-.03-.26,0-.35.08-.08.07-.11.16-.04.24"/>
      <path class="cls-12" d="M752.99,284.52c-.79-.17-1.63-.84-1.87-1.8-.36-1.44.47-2.93,1.61-3.62.12-.07.09-.2-.02-.26-.13-.07-.32-.02-.45.06-.99.59-1.76,1.71-1.85,2.98-.08,1.19.53,2.15,1.42,2.65.26.15.55.27.85.33.12.02.34,0,.43-.12.08-.13-.02-.21-.13-.24"/>
    </g>
    <path class="cls-30" d="M816.05,284.25c1.51-2.19,3.13-4.33,5-6.23,1-1.01,2.07-1.99,3.31-2.69.05-.03.1-.06.16-.09.17-.09-.13.06.04-.02.09-.05.19-.09.28-.14.07-.03.14-.06.22-.09.07-.03.39-.13.12-.05.13-.04.26-.07.39-.11.16-.05-.2.02-.04,0,.01,0,.15-.02.15-.02,0,0,.1,0,.11,0-.27.03-.16,0-.09,0,.13,0,.05.05-.07-.02-.46-.25-.27-.29-.22-.09s.17.4.23.6c.78,2.38.27,5.02-.71,7.27-.29.67,1.15.52,1.36.06.99-2.28,1.55-4.86.92-7.31-.09-.36-.2-.79-.41-1.11-.15-.22-.35-.24-.59-.25-.71-.01-1.43.24-2.06.54-1.3.62-2.45,1.54-3.5,2.52-2.27,2.12-4.17,4.63-5.93,7.18-.2.29.17.44.4.46.33.02.76-.12.95-.4h0Z"/>
    <path d="M741.16,246.48c5.26-1.08,8.54-.77,17.11,1.31v.2c0,1.14,0,.5,0,1.65,0,.87,0,1.74,0,2.61-2.8-.72-4.81-1.51-6.61-1.81-3.42-.58-7.31-1.64-10.8-1.24-.53-1.56-.1-1.86.31-2.72Z"/>
    <path d="M779.33,250.1c-.47,1.04-.21.46-.68,1.5-.36.8-.71,1.59-1.07,2.39,2.85.49,5,.59,6.78,1.05,3.52.91,7.73,1.54,10.8,3.55,1.47.96,3.55,2.38,4.04,4.32.13.52.08,2.14.83,2.14.31,0,.47-1.47.49-1.62.32-2.97-1.42-5.05-3.86-6.91-4.98-3.78-7.86-4.86-17.24-6.6"/>
    <path d="M748.35,257.72c-1.12-.84-2.65-.52-3.57.05-.22.14-.8.53-1.17,1.3-.47.98-.25,2.22.28,3.03.71,1.09,2.12,1.49,3.31,1.16,1.61-.45,2.4-2.18,2.24-3.55-.03-.25-.18-1.32-1.09-1.99"/>
    <path d="M758.76,263.67s-5.28-5.7-8.32-6.51c-4.44-1.19-7.88.33-9.85,2.28,0,0,5.44-2.44,8.55-1.52,2.97.89,9.62,5.75,9.62,5.75Z"/>
    <path d="M783.49,263.97c1.33-.43,2.68.35,3.36,1.2.16.2.59.76.69,1.61.13,1.08-.47,2.18-1.23,2.78-1.02.81-2.49.73-3.51.03-1.38-.95-1.57-2.83-.99-4.08.11-.23.6-1.19,1.67-1.54"/>
    <path d="M776.2,266.65s7.24-3.62,10.6-3.4c6.05.4,11.04,4.69,12.38,7.18,0,0-7.86-5.88-11.32-6.03-3.3-.15-11.66,2.25-11.66,2.25Z"/>
    <path d="M802.53,209.91c3.8-.05,7.87.1,10.98,2.26,3.29,2.31,3.36,7.2,6.08,10.28,15.81,17.88,5.26,29.33,10.47,44.47-1.66.32-3.3.88-4.89,1.71-3.1,1.63-6.54,5.24-8.61,7.9-4.83-1.66-4.75-5.09-6.16-10.83-1.32-5.31,1.22-13.13-2.34-17.19-4.73-5.35-15.81-1.9-20.55-7.24-2.77-3.09-4.16-10.35-6.9-13.14-2.74-2.79-4.63-2.92-8.52-2.83-3.89.1-7.92.66-11.64-.46-3.72-1.12-9.31-3.53-8.67-7.37,15.88-4.08,34.36-7.36,50.76-7.57Z"/>
    <path class="cls-30" d="M817.18,286.67c2.69.29-1.83,6.38.79,6.35.78,0,1.34-.52,1.74-1.14.57-.88.96-1.88,1.31-2.86.48-1.36.78-2.55.81-3.98.04-1.66-.17-3.66-1.71-4.63-.37-.23-1.71.33-1.16.67,1.19.74,1.39,2.45,1.42,3.72.02.94-.03,1.91-.29,2.81-.33,1.12-.71,2.24-1.2,3.3-.16.35-.34.7-.55,1.02-.09.13-.19.25-.28.38-.02.03-.07.05-.08.08-.13.26.73.03.72-.13,0-.15-.13-.32-.13-.5,0-.27.07-.56.14-.82.16-.67.39-1.33.57-2,.32-1.25.48-2.82-1.19-3-.34-.04-.76.04-1.02.27-.2.18-.19.44.13.47h0Z"/>
    <path class="cls-21" d="M956.68,760.23c17.29-21.99,33.69-21.09,50.73-28.09,3.08,5.56,5.53,18.69,10.53,40.64,6.88,30.24-5.65,142.51-5.65,142.51l-22.64-.12s-15.97-74.31-32.97-154.95Z"/>
    <path class="cls-21" d="M1007.32,750.02c-1.21-.21-2.43-.44-3.63-.7-16.7-3.56-29.99-16.71-45.72-23.17,20.32-55.37,36.69-99.52,40.82-109.23,11.09-26.09,29.04-72.67,29.04-72.67l123.73-29.65c-7.29,8.56-14.45,17.23-21.2,26.23-7.65,10.21-14.8,20.83-20.87,32.06-5.94,10.99-10.86,22.56-14.06,34.65-1.27,4.79-2.26,9.64-2.97,14.54-.94-1.71-1.7-2.61-2.2-2.51-5.11.99-82.93,129.6-82.93,129.6,0,0,.01.3.01.86Z"/>
    <path class="cls-8" d="M916.99,946.41s-2.16,2.74-.36,6.98c1.81,4.25,29.18-2.82,38.92-2.64,9.74.18,54.94.48,64.17-2.54,9.23-3.02-.67-13.08-.67-13.08l-102.07,11.28Z"/>
    <path class="cls-21" d="M1013.76,907.43c.31,10.52,3.9,16.4,5.4,20.98,1.72,5.27-.24,9.56-5.86,12.38-4.72,2.37-7.93,2.2-13.27,2.42-6.98.28-20.2-.53-27.18-.25-5.98.24-30.16,2.49-35.91,4.09-8.94,2.49-14.67,1.67-18.83.59-1.15-.3-1.84-.17-2.44-.98-1.55-2.11-1.61-4.59,1.21-6.75,3.55-2.73,8.38.13,11.64-2.99.58-.56,1.11-1.17,1.8-1.6,1.35-.83,3.07-.83,4.68-.96,8.02-.66,17.59-5.69,27.84-9.39,3.01-1.09,24.8-18.55,27.54-20.15"/>
    <path class="cls-36" d="M937.65,935.07c-2.14.67-4.18,1.67-6.11,2.79-.64.42-1.37.79-1.77,1.42-.85-.53-1.84-.82-2.84-.91-.98-.09-1.98-.02-2.94.23,1.89-.58,4.04-.48,5.8.52l-.11.03c.45-.68,1.14-1.03,1.77-1.42,1.96-1.09,4.01-2.1,6.2-2.65h0Z"/>
    <path class="cls-8" d="M933.04,936.96s10.45-4.4,11.3,9.88l6.41-.33s-3.25-13.13-9.28-13.2c-6.04-.08-8.42,3.65-8.42,3.65Z"/>
    <path class="cls-21" d="M1109.15,631.03c9.12,2.69,19.05.7,28.53,1.27,15.39.92,22.85.46,38.16-.93-8.2,32.75-12.38,100.42-11.12,114.76,1.93,21.89,20.78,41.67,1.61,164.68l-28.58-4.21s-19.41-84.05-25.26-141.11c-3.17-30.91-9.34-90.92-15.41-134.45,6.68,2.94,5.07-2.07,12.08,0Z"/>
    <path class="cls-8" d="M1171.17,938.17s1.89-.01,2.42,6.41c.71,8.6-26.05,9.05-33.13,10.11-7.08,1.06-29.32,9.4-45.3,10.97-15.99,1.57-32.88-7.11-34.79-12.07-1.92-4.96-.11-7.39,3.24-8.92,3.35-1.54,102.33-11.34,102.33-11.34l5.24,4.86Z"/>
    <path class="cls-21" d="M1165.58,901.04c-.12,5.41,2.19,12.94,4.13,24.19.85,4.95,5.31,11.83.29,15.78-8.89,6.98-20.07,5.06-24.2,6.31-8.7,2.62-15.75,3.03-24.05,6.32-8.42,3.34-10.14,4.13-19.54,5.3-1.3.16-2.68.2-3.85-.31-.78-.35-1.42-.92-2.2-1.27-2.77-1.22-6.04.83-9.13.61-1.36-.09-2.63-.63-3.92-1.03-3.4-1.07-7.06-1.26-10.62-1.78-3.56-.53-7.21-1.47-9.8-3.71-2.59-2.24-3.75-6.08-1.81-8.84,2.94-4.18,7.19-2.1,11.48-2.74,4.28-.64,5.86-1.42,9.56-3.39,9.44-5.03,10.88-6.02,18.86-9.99,6.19-3.08,27.12-12.63,35.7-19.3l-.05-36.76"/>
    <g>
      <path class="cls-36" d="M1096.48,957.51c-.93-.19-1.47-1.06-1.68-1.92s-.09-1.75.32-2.54c.88-1.66,2.68-2.7,4.29-3.54.94-.49,1.9-.93,2.85-1.4.31-.16.03-.37-.21-.25-1.83.91-3.75,1.72-5.39,2.96-1.49,1.12-2.8,2.75-2.41,4.73.2,1.02.84,2.04,1.92,2.26.12.02.28,0,.36-.1.06-.08.06-.19-.06-.21h0Z"/>
      <path class="cls-36" d="M1086.98,958.17c-2.29.13-2.46-3.15-2.27-4.73.05-.44.13-.88.28-1.3.2-.6.6-1.13,1.03-1.6,1.11-1.22,2.63-1.94,4.13-2.55.84-.34,1.63-.79,2.44-1.19.85-.42,1.77-.85,2.74-.87.08,0,.3-.04.34-.13s-.03-.12-.13-.12c-1.77.05-3.35,1.09-4.89,1.84-.8.39-1.63.69-2.42,1.09-.74.38-1.46.83-2.09,1.38s-1.15,1.16-1.51,1.88c-.2.41-.3.87-.37,1.31-.18,1.1-.18,2.28.15,3.35.34,1.13,1.13,1.96,2.37,1.9.09,0,.3-.03.34-.13s-.03-.12-.13-.12h0Z"/>
      <path class="cls-36" d="M1080.19,956.43c-1.27-.36-2.02-1.58-2.33-2.79-.29-1.15-.16-2.33.36-3.39,1.09-2.24,3.43-3.7,5.59-4.75.61-.3,1.24-.57,1.88-.82.77-.3,1.53-.64,2.33-.85.05-.01.26-.08.23-.16s-.23-.03-.28-.02c-.77.2-1.5.52-2.24.8-.59.23-1.17.47-1.75.74-1.23.57-2.43,1.23-3.51,2.04-1.92,1.44-3.65,3.57-3.21,6.12.24,1.4,1.06,2.87,2.51,3.28.11.03.26,0,.35-.06.05-.03.17-.11.06-.14h0Z"/>
      <path class="cls-36" d="M1073.28,955.5c-1.55-.56-2.78-1.84-3.38-3.36-.52-1.32-.64-2.85.11-4.1.69-1.15,1.85-1.99,2.97-2.69,1.23-.76,2.54-1.38,3.87-1.94.63-.27,1.28-.51,1.91-.78.8-.33,1.68-.89,2.58-.88.29,0,.38-.38.04-.38-.81-.01-1.61.41-2.33.73-.65.29-1.31.54-1.97.81-1.42.59-2.83,1.23-4.15,2.03-1.21.73-2.43,1.6-3.24,2.78-.84,1.24-.9,2.72-.46,4.13.57,1.82,1.96,3.36,3.75,4.01.22.08.59-.24.29-.35h0Z"/>
    </g>
    <path class="cls-8" d="M1096.29,927.4c-2.36.16-4.56,1.25-6.11,3.04l-9.48,11.15,2.75-.71,14.9-13.62-2.06.14Z"/>
    <path class="cls-8" d="M1081.36,941.56s.8-2.27,4.68-3.04c12.19-2.43,39.69-3.77,44.16,14.03l-4.38,2.02s-6.46-13.31-17.96-13.77c-11.51-.45-26.5.75-26.5.75Z"/>
    <path class="cls-21" d="M1033.01,304.95c-11.77-20.47-23.91-48.66-32.65-64.23-10.58,4.85-21.77,8.39-33.25,10.2l.19.93c11.78,78.67,60.87,126.23,60.87,126.23,0,0,31.49-38.58,31.82-40.24.33-1.66-20.88-18.25-26.98-32.89Z"/>
    <path class="cls-21" d="M971.29,220.05l-3.61,14.66c11.09,3.24,21.67,8.82,33.23,8.89,2.19-8.18,7.65-20.71,11.13-34.92,7.31-29.82,13.48-74.65,13.48-74.65l-17.69-3.92-21.71,50.14c-5.86,12.92-11.43,26.02-14.82,39.79Z"/>
    <path class="cls-21" d="M1265.48,285.39c-12.02-4.69-24.07-4.09-36.99-4.54l6.38-85.24,18.37-4.23s15.76,44.62,12.34,93.18c-.02.27-.06.56-.09.84Z"/>
    <path class="cls-21" d="M1155.7,348.85l.54-.36.42.36,70.64-65.08,1.83-4.75c2.09.71,4.11,1.61,6.05,2.66,9.51,5.16,17.15,13.17,25.67,19.78-12.01,25.06-53.55,58.86-71.12,69.91-16.25,10.3-32.48,20.44-38.99,32.27-4.75,7.81-1.76,10.14-9.56,14.91l-5.62-37.43,20.14-32.27Z"/>
    <path class="cls-21" d="M1149.34,368.51l2.93,57.18c.9-1.13-6.55,32.45-7.54,34.59s.42,31.19.42,31.19c0,0-21.21,16.5-67.98,24.29-46.77,7.79-50.01-10.97-50.01-10.97l3.34-38.99s-9.83-93.73-9.39-96.41,36.2-39.52,37.33-37.1,22.09.91,22.09.91c12.7,13.84,17.49,11.06,43.36,2.09l22.63,1.28,2.83,31.94Z"/>
    <path class="cls-26" d="M1024.93,392.26l-36.79-61.12h0c16.97-4.98,31.56-15.97,41.02-30.91l1.79-2.83,32,37.86-38.03,57Z"/>
    <path class="cls-26" d="M1134.98,404.91s6.41,15.92,6.2,13.64c-.14-1.74,23.78-16.81,31.69-25.64,8.72-9.39,20.8-12.42,31.9-18.82.77-.3-25.57-50.67-25.57-50.67l-18.78,8.88c-1.52-1.62-7.14,1.11-9.23.35-2.51-.45-7.47,4.28-7.47,4.28l-8.74,67.98Z"/>
    <path class="cls-26" d="M1027.15,504.78l118-13.29,10.18-95.8-9.44-59.14-22.01-1.25s4.47,18.82-26.73,16.47c-15.36-8-26.91-13.97-24.31-21.06l-13.31,1.45s-34.12,32.47-39.2,47.84c-5.05,15.39,6.82,124.81,6.82,124.81Z"/>
    <path class="cls-26" d="M1145.15,491.49l20.28,32.4s-41.22,27.88-95.98,25.04c-54.76-2.84-51.99-10.38-51.99-10.38l9.48-52.87,118.22,5.81Z"/>
    <path class="cls-26" d="M1178.08,622.06l2.96,84.56s-1.33,9.67-14.57,10.07c-13.24.4-21.12-6.24-31.4-6.61-10.27-.38-18.82,6.08-35.69,8.65-16.87,2.58-31.12,9.2-54.73,1.66-23.62-7.54-23.78-13.03-37.57-13.99-13.79-.96-25.61,3.81-36.73.02-11.12-3.79-14.12-11.95-14.12-11.95,0,0,60.83-105.33,60.06-130.6s-.16-19.34,5.47-45.61c5.62-26.27,138.06-3.73,138.06-3.73,0,0,27.35,36.33,18.26,107.52Z"/>
    <path class="cls-21" d="M959.97,720.68s-9.79,23.82-1.47,48.13c8.31,24.3,30.17,6.9,30.17,6.9l-3.06-42.9-25.64-12.13Z"/>
    <path class="cls-21" d="M1131,298.67s-11.6,23.37-7.73,34.55c.52,1.5,3.08,3.52,3.11,4.84,0,0-14.34,20.1-38.63,16.38-24.29-3.72-16.62-23.04-16.62-23.04.94-.46,1.44.68,2.39.23.26-.13.53-.26.71-.47.29-.32.34-.77.38-1.19,1.23-11.77,2.14-23.57,2.97-35.38"/>
    <path class="cls-36" d="M1110.07,316.68s-5.59,9.86-26.9,10.69c0,0-4.77.88-8.1-.8l.24-4.28,34.76-5.62Z"/>
    <path class="cls-2" d="M1056.42,284.72c7.09-3.67,9.5-11.76,9.75-19.23.24-7.15,7.11-17.2-1.58-18.08-.16-.02,3.96-5.59,1.34-5.43,2.11-3.67-3.65-4.11-3.83-8.61-.04-.91-.18-8.89,5.48-8.63,24.13-25.21,50.29-15.42,65.13-11.2,29.13,8.27,43.33,12.06,29.4,58.05-9.35,30.87-40.21,35.27-70.03,30.05-12.74-2.23-28.02-3.92-35.97-16.77.1-.05.2-.09.29-.14Z"/>
    <path class="cls-2" d="M1133.52,192.89c-7.73,2.39-12.05,8.52-13.58,16.2,1.32,1.57,4.34,3.54,5.67,5.1.36-.47.73-.92,1.11-1.36,1.45,1.7,5.63,3.69,7.11,5.36.51-.21,2.07-.63,3.92-1.09.45.52.9,1.04,1.36,1.56-1.38.16-2.52.45-3.28.88,1.68,1.93,6.46,3.61,8.04,5.62,3.42,4.35,7.14,10.06,10.74,14.27,1.17,1.12,2.06,2.17,2.78,3.13l-3.35,2.17,3.74,4.11c-.65,1.05-1.02,1.65-1.02,1.65l3.05,3.44s2.57-1.75,6.23-4.41c11.31,6.44,17.81-2.67,17.5-7.38-.14-2.08-.93-3.74-1.8-4.98,5.53-4.85,9.83-9.52,9.48-12.06-.71-5.1-6.89-17.24-9.91-22.95-.48-1.75-1.06-3.49-1.75-5.1l-.03-.1s-.01,0-.02,0c-.78-1.79-1.69-3.43-2.79-4.71-2.84-3.31-9.72-3.24-15.41-2.48-5.03-6.01-8.8-8.11-12.19-8.99-4.75-1.23-13.65,3.82-14.75,5.36-.54.75-.75,3.82-.83,6.76ZM1172.35,244.8c2.34-1.8,4.77-3.73,7.09-5.67-.15,1.13-.49,2.37-1.15,3.64-1.12,2.14-3.68,2.35-5.94,2.03ZM1147.44,186.35c.41.43,1.59,2.89,2.75,5.44-4.01-.29-7.44-.02-9.23,0-.2,0-.39.01-.58.02-.62-1.59-1.31-3.74-1.17-5.05.25-2.31,6.1-2.62,8.23-.41Z"/>
    <path class="cls-21" d="M1083.61,225.29c-.08.1-.18.2-.28.3.09-.04.17-.07.25-.11l.03-.18ZM1074.41,225.77l-.03.15c.16-.09.32-.18.46-.27.03-.18-.44.11-.44.11ZM1126.92,306.35l1.63-2.86c.86,6.11,9.37,3.76,11.42-3.96,6.98-5.91,9.72-16.13,7.38-20.84l-.26-.67c-1.89-2.23-5.75-3.86-8.07-1.22-.83,1.19-2,2.48-2.83,3.66-.86,1.37-2.27,4.19-3.5,5.3,0,0,6.79-13.28,7.61-16.75.81-3.47,2.2-12.14-3.15-18.21,0,0-6.14-8.68-8.31-12.86l-.94-.54c-.6-.11-1.04,0-1.64-.1.03-.18.27-.33.33-.7-1.07.19-1.84-.13-2.65-.27.23-.15.67-.26.7-.45-.84.04-1.61-.28-2.41-.42.23-.15.7-.45.73-.63-1.07.19-1.61-.28-2.41-.42.23-.15.5-.48.53-.67-.87.23-1.64-.1-2.44-.24.23-.15.5-.48.73-.63-1.07.19-1.61-.28-2.41-.42-.2-.04.47-.3.5-.48-.64.08-1.44-.06-2.04-.17.03-.18.47-.3.5-.48-1.27.16-1.81-.32-2.61-.46l.73-.63c-.9.41-1.7.27-2.47-.05.23-.15.7-.45.73-.63-1.1.38-2.34.35-3.28-.19.2.04.7-.45.73-.63-1.13.56-1.9.24-2.91.06.23-.15.5-.48.97-.78-1.33.53-2.81.65-3.92-.11.2.04.5-.48.53-.67-.93.6.74-.06-.24-.42,0,0-2.44.33-2.41.15-.9.41,2.67-2.76,1.66-2.93.27-.33-5.83-.67-5.36-.96-1.13.56-.86.22-2.04-.18,0,0-4.56,1.48-4.33,1.33-1.17.75-1.48-.11-2.66-.5.23-.15.59.9.82.75-.93.6-.51-.28-1.51-.45.03-.18-3.08-1.77-3.04-1.96-1.1.38-.79.52-1.99.3.03-.18-1.11,1.9-.88,1.75-.93.6-.79,0-1.76-.36l-1.12.51c-1.17.75.28.59-.89.19.02-.13,4.43,1.37,4.66,1.16-.85.37-1.84.68-2.79.69.03-.18.3-.52.33-.7-.93.6-2.24.94-3.41.54.2.04.47-.3.5-.48-1.17.75-2.47,1.09-3.58.32v-.03c-.88.48-1.99.85-3.04.83.1-.55.53-.67.53-.67l-.8-.14c-1.26,1.3,3.51,1.28,2.79,3.05,0,0-4.24,4.84-9.43,15.19-4.26,8.49-6.8,22.7-7.11,25.69-.27,2.59-2.71,7.27-3.49,9.87-4.21,14.12,4.45,30.78,14.25,40.75,3.91,3.98,7.97,3.45,12.5,3.62,9.25.36,23.8-2.74,33.15-9.36"/>
    <g>
      <path class="cls-12" d="M1074.02,289.82c1.18.9,3.2,1.12,4.66.57.32-.12,1.26.23.81.4-1.93.72-4.8.28-6.33-.88-.15-.12-.1-.23.12-.26.23-.03.57.05.73.17"/>
      <path class="cls-12" d="M1080.12,290.54c.95-.24,1.97-.27,2.97-.16.15.02.32.1.41.21.07.09.07.19-.05.22-.5.17-1.09.16-1.62.06-.17-.03-.38-.11-.45-.27-.06-.14.11-.2.24-.17.44.09.9.09,1.31-.05.12.15.24.29.36.44-.89-.1-1.8-.06-2.65.15-.17.04-.38-.05-.51-.15-.09-.08-.18-.24,0-.28"/>
      <path class="cls-12" d="M1083.99,291.38c1.15.19,2.59-.05,3.31-.78,1.08-1.1.67-3.37-.61-4.44-.14-.12-.04-.21.13-.22.21,0,.44.11.59.24,1.12.93,1.61,2.84,1.21,3.99-.38,1.07-1.62,1.64-3.05,1.7-.43.02-.87,0-1.3-.07-.17-.03-.48-.14-.54-.28-.06-.15.11-.18.27-.15"/>
      <path class="cls-12" d="M1072.02,288.87c.09-.12-.01-.22-.11-.24-.31-.05-.61-.19-.84-.45-.12.1-.25.2-.37.3.61.18,1.19.49,1.68.95.1.09.26.07.38.01.08-.05.19-.17.09-.26"/>
      <path class="cls-12" d="M1072.86,289.19c-.55-.52-1.2-.86-1.89-1.06-.1-.03-.24,0-.33.08-.07.06-.1.15-.04.23"/>
      <path class="cls-12" d="M1069.6,288.58c-.74-.17-1.53-.81-1.74-1.71-.32-1.36.47-2.76,1.55-3.39.12-.07.08-.19-.01-.24-.13-.07-.3-.02-.42.05-.94.55-1.68,1.59-1.77,2.8-.09,1.13.48,2.03,1.32,2.51.25.14.52.26.8.32.11.02.33.01.4-.11.08-.12-.01-.2-.12-.22"/>
    </g>
    <path d="M1060.67,252.72c5-.81,8.08-.38,16.07,1.92v.19c-.05,1.08-.03.47-.08,1.56-.03.82-.07,1.64-.11,2.46-2.61-.79-4.47-1.61-6.16-1.97-3.2-.68-6.82-1.84-10.13-1.6-.44-1.49-.02-1.76.4-2.55Z"/>
    <path d="M1092.46,257.78c-.14,1.07-.06.47-.2,1.54-.11.82-.21,1.63-.31,2.45,2.7-.33,4.68-.83,6.4-.9,3.43-.13,7.4-.71,10.71.26,1.59.47,3.86,1.18,4.82,2.8.26.43.65,1.92,1.33,1.71.28-.08.03-1.45,0-1.6-.52-2.77-2.66-4.18-5.37-5.19-5.52-2.06-8.42-2.25-17.37-1.27"/>
    <path d="M1065.49,263.26c-1.05-.8-2.49-.52-3.37.02-.21.13-.76.49-1.12,1.21-.46.92-.26,2.09.23,2.86.66,1.04,1.99,1.43,3.11,1.12,1.53-.41,2.28-2.03,2.15-3.33-.03-.24-.16-1.24-1.01-1.89"/>
    <path d="M1075.24,268.97s-4.93-5.43-7.79-6.22c-4.18-1.16-7.44.24-9.31,2.05,0,0,5.15-2.25,8.08-1.35s9.02,5.52,9.02,5.52Z"/>
    <path d="M1098.56,269.49c1.26-.4,2.52.36,3.16,1.16.15.19.55.72.64,1.52.12,1.02-.46,2.05-1.19,2.61-.97.75-2.35.67-3.31,0-1.3-.91-1.46-2.68-.89-3.86.1-.21.57-1.11,1.59-1.44"/>
    <path d="M1091.67,271.94s6.86-3.35,10.03-3.1c5.71.44,10.37,4.53,11.61,6.89,0,0-7.36-5.62-10.62-5.8-3.11-.17-11.02,2.01-11.02,2.01Z"/>
    <path class="cls-3" d="M1073.55,228.01c-1.66,4.94-7.81-.55-3.82-1.14-.03-2.54,3.62-2.94,3.96-5.46.11.24.18.44.18.44,0,0,.62-2.99,1.75-3.54,1.13-.55,6.05-2.04,6.05-2.04l1.19,1.27c-.02-.08-.33-1.15.47-1.62.81-.48,9.16-3.14,14-1.98.16.04.32.08.48.13l1.85,1.41.06.05s-.04-.04-.07-.06c-.32-.27-1-.93-.53-1.29.16-.13.47-.22.98-.25.75-.04,1.84.06,3.01.23,0,0,0-.01,0-.02.11.02.22.04.33.07.11.02.22.03.33.05,0,0,0,.01,0,.02,1.16.24,2.22.52,2.91.81.47.2.72.39.84.56.32.5-.54.89-.94,1.04-.03.01-.06.02-.08.03l.08-.02,2.22-.7c.16,0,.33.02.49.04,4.94.55,11.89,5.89,12.49,6.62.6.72-.06,1.62-.11,1.69l1.55-.79s5.46,3.31,6.34,4.21c.88.9,1.03,2.72,1.03,2.72,0,0,1.67.97,2.35.87.68-.09,3.7,2.22,4.73,4.43.66,1.42.13,2.55.37,3.74h0c.14.67.21,1.11.21,1.11l3.24,1.75c2.53,1.81.84,7.37.84,7.37,4.26,7.6,3.53,13.31.04,18.99-1.35,2.19,4.95,5.73.66,4.89s-10.32,12.17-10.32,12.17c0,0-2.77-5.97-2.52-8.47.25-2.5,2.74-9.62,2.74-9.62l-2.05-.66s-1.19-.74-2.24-3.81c-1.05-3.07,2.64-7.56,2.64-7.56l1.35-2.87-4.15-.43c-3.84-1.37-3.31-5.7-3.31-5.7l1.94-7.02-2.8,1.98s-1.11.97-2.47.63c-6.06-1.54-6.11-5.49-6.11-5.49l-.19-3.74-1.74.76c-1.88,1.06-7.28,2.26-9.66.71-.62-.41-3.07-3.09-3.48-3.48-1.44-1.49-1.28-3.82-1.16-4.67.28-.19.56-.44.83-.65,1.04-.8,1.39-.33.35.48-1.8,1.38-4.76,3.25-7.04,2.95-2.19-.29-6.73-2.01-7.13-3.12-.27-.74.44-.71-.37-.81-.7-.09-1.39.3-1.92.73-1.25,1.01-2.26,2.64-3.85,3.14-2.32.71-3.4-.68-5.46-1.51-.46-.18-1.16-.05-1.35.5Z"/>
    <path class="cls-1" d="M1069.15,223.17s-.66-4.88,2.48-7.07c3.14-2.19,15.26-11.07,32.9-8.01l-35.38,15.07Z"/>
    <path class="cls-15" d="M1075.68,297.63c5.48.81,14.28,2.1,14.28,2.1,0,0-1.34,12.59-16.1,10.17-12.69-2.08-8.9-13.77-8.9-13.77,0,0,5.23.68,10.72,1.49Z"/>
    <path class="cls-30" d="M1075.62,297.62c2.61.39,12.99,2.16,12.99,2.16,0,0-5.02,6.75-14.45,5.35-10.23-1.52-7.57-8.19-7.57-8.19l9.03.68Z"/>
    <path class="cls-19" d="M1076.21,298.22c2.61.39,10.42,1.78,10.42,1.78,0,0-3.16,2.27-10.98,1.11-7.82-1.16-9.12-4.02-9.12-4.02l9.69,1.13Z"/>
    <path class="cls-15" d="M1064.26,295c.29-.04.28-.04,1.58.01,2.16.09,3.04-.58,4.6-.5,2.67.14,3.24,1.41,4.39,1.58,1.14.17,3.01-.85,5.6-.21,1.52.37,5.03,2.37,7.13,2.9,1.26.32,2.17.6,2.43.72.36.17,0,2.06-14.39-.07-14.39-2.13-11.74-4.38-11.34-4.43Z"/>
    <g>
      <path class="cls-24" d="M807.81,332.03s-16.13,21.86-40.3,19.38c-17.72-1.82-16.12-12.94-16.12-12.94l1.3-10.45-6.16.95s-3,11.19-.11,17.6c2.89,6.41,12.08,12.34,27.59,10.87,9.1-.86,19.95-4.39,29.82-11.58,9.87-7.18,13.81-11.13,13.81-11.13l-9.83-2.71Z"/>
      <path class="cls-25" d="M807.14,332.01c-1.83,2.48-4.08,4.7-6.37,6.76-5.18,4.66-11.24,8.53-17.92,10.64-4.04,1.28-8.26,1.9-12.49,1.76s-8.57-.86-12.26-2.9c-3.38-1.87-6.04-5.25-6.02-9.25,0-1.2.26-2.42.4-3.61.31-2.49.62-4.99.93-7.48.04-.32-.41-.34-.63-.31-2.05.32-4.11.63-6.16.95-.28.04-.74.17-.82.49-1.33,4.99-2.11,10.92-.72,15.96,1.52,5.53,6.67,9.25,11.83,11.1,7.47,2.69,15.82,2.35,23.48.71,8.81-1.89,17.1-5.78,24.36-11.09,4.62-3.38,9.41-6.83,13.48-10.89.22-.22.17-.43-.14-.51-3.28-.9-6.56-1.8-9.83-2.71-.46-.13-1.7.56-.89.79,3.28.9,6.56,1.8,9.83,2.71l-.14-.51c-2.85,2.85-6.12,5.33-9.31,7.77-7.28,5.58-14.92,10.25-23.81,12.78-7.7,2.19-16.19,3.02-23.99.85-5.17-1.44-10.52-4.56-12.81-9.65-1.53-3.41-1.42-7.46-1.03-11.1.23-2.15.58-4.31,1.14-6.4l-.82.49c2.05-.32,4.11-.63,6.16-.95l-.63-.31c-.44,3.59-1.14,7.23-1.33,10.84s1.99,7.13,4.97,9.19c3.27,2.27,7.31,3.21,11.21,3.64,4.38.48,8.8.21,13.09-.78,7.32-1.68,14.06-5.4,19.86-10.13,3.17-2.59,6.28-5.52,8.73-8.83.39-.52-1.07-.42-1.35-.03Z"/>
    </g>
    <g>
      <path class="cls-26" d="M1127.24,332.52s-15.55,21.86-38.84,19.38c-17.08-1.82-15.54-12.94-15.54-12.94l1.25-10.45-5.94.95s-2.89,11.19-.1,17.6c2.79,6.41,11.64,12.34,26.6,10.87,8.78-.86,19.23-4.39,28.74-11.58,9.51-7.18,13.31-11.13,13.31-11.13l-9.48-2.71Z"/>
      <path class="cls-35" d="M1126.53,332.64c-1.79,2.51-4.01,4.77-6.26,6.86-5,4.65-10.89,8.54-17.42,10.64-3.98,1.28-8.18,1.83-12.35,1.58-3.99-.24-8.21-1.04-11.63-3.22-3.13-1.99-5.38-5.36-5.31-9.16.02-1.11.25-2.41.4-3.66.29-2.46.59-4.92.88-7.37.02-.17-.55-.09-.59-.09-1.98.32-3.96.63-5.94.95-.2.03-.78.16-.85.4-1.26,4.92-1.99,10.64-.78,15.62,1.33,5.51,6.16,9.31,11.24,11.26,7.21,2.77,15.43,2.4,22.85.74,8.58-1.92,16.61-5.81,23.6-11.11,4.47-3.39,9.11-6.86,13.02-10.91.1-.11.08-.2-.06-.24-3.16-.9-6.32-1.8-9.48-2.71-.34-.1-1.62.45-1.19.58,2.05.58,4.1,1.17,6.14,1.75.89.25,2.09.85,3.03.86.54,0-.02.15.23-.13-.1.11-.22.24-.33.33-1.84,1.43-3.48,3.2-5.28,4.7-3.91,3.27-7.93,6.53-12.27,9.21-8.5,5.25-18.59,8.58-28.65,8.3-7.19-.2-15.34-2.54-19.54-8.84-2.25-3.37-2.55-7.48-2.32-11.42.16-2.76.56-5.56,1.24-8.24l-.85.4c1.98-.32,3.96-.63,5.94-.95l-.59-.09c-.42,3.51-1.11,7.44-1.27,10.75-.19,3.7,1.92,7.15,4.89,9.22,3.18,2.22,7.13,3.13,10.93,3.53,4.17.44,8.38.12,12.45-.86,7.06-1.7,13.52-5.38,19.05-10.03,3.12-2.62,6.15-5.59,8.52-8.92.11-.15-1.18-.11-1.43.25Z"/>
    </g>
    <path class="cls-35" d="M1145.98,492.37c-17.09,7.95-35.19,14.46-54,16.71-17.84,2.13-36.14,0-52.26-8.26-2.26-1.16-4.47-2.43-6.62-3.79-1.13-.72-2.24-1.46-3.34-2.23-.53-.37-1.05-.74-1.57-1.12-.37-.27-1.36-.75-1.56-1.09-.14-.24-.09-.88-.11-1.14l-.22-2.19c-.1-1.03-.2-2.06-.31-3.09l-1.28.61c4.27,2.76,8.86,5.09,13.46,7.23,9.68,4.51,19.98,8.05,30.6,9.44s21.35-.15,31.8-2.25c9.9-1.98,19.66-4.62,29.3-7.61,5.18-1.6,10.35-3.28,15.44-5.17l-1.04-.23c.43,1.6.87,3.2,1.3,4.8.18.66,1.63.27,1.45-.39-.43-1.6-.87-3.2-1.3-4.8-.12-.45-.74-.34-1.04-.23-.17.06.21-.08-.08.03-.23.09-.47.17-.7.26-.84.3-1.69.6-2.53.89-2.96,1.03-5.94,2.02-8.93,2.97-9.15,2.91-18.41,5.51-27.79,7.58-10.21,2.25-20.93,4.28-31.43,3.5-10.78-.8-21.3-4.09-31.17-8.4-5.56-2.43-11.11-5.15-16.21-8.46-.45-.29-1.34,0-1.28.61l.27,2.72c.11,1.11.05,2.44.35,3.52.13.46.47.63.87.94,1.08.82,2.18,1.61,3.3,2.38,2.01,1.38,4.08,2.68,6.2,3.88,7.88,4.47,16.46,7.6,25.36,9.32,18.17,3.5,36.99,1.02,54.59-4.14,10.68-3.13,21.04-7.26,31.12-11.96.9-.42.1-1.19-.64-.84Z"/>
    <path class="cls-21" d="M1069.71,98.64l-14,20.21-1.48,4.54s-8.97,9.64-11.09,11.42-17.71,6.84-17.71,6.84l-3.75,14.77-20.1-12.79s5.86-11.85,5.92-13.99c.67-2.78,2.16-5.3,4.27-7.23,1.82-1.86,12.11-13.62,12.11-13.62,0,0,7.7-17.91,10.8-15.16.69.77,1.29,1.62,1.8,2.52,0,0-5.38,11.38-4.57,12.77l2.39,1.04s10.86-13.83,13.28-15.9c2.42-2.07,4.59-2.89,6.35-1.13,0,0,.49,1.91-.06,2.52s-12.99,15.58-12.08,16.21,1.99-.79,1.99-.79c0,0,14.69-18.56,15.99-19.15,1.62-.91,3.66-.44,4.72,1.08l-7.31,11.29s7.2-8.09,9.78-7.78c1.34.06,2.47,1.01,2.76,2.31Z"/>
    <path class="cls-36" d="M1026.01,125.89c1.47-1.37,3.2-2.53,5.01-3.4,2.39-1.15,4.96-1.22,7.57-1.11,1.49.07,3.03.44,4.51.42,1.13-.02,2.06-1.72,2.71-2.49.75-.88,1.25-1.47,1.65-2.53.77-2.01,1.59-4.16,2.9-5.89,1.42-1.87,3.13-4.12,5.77-3.63-.36-.07.86.27.72.3.17-.04-.1.07-.04-.25-.02.12-.02.26-.06.38-.17.54-.19,1.18-.27,1.74-.5,3.15-1,6.3-1.49,9.46-.12.77,1.36.61,1.47-.09.29-1.85.59-3.7.88-5.56.21-1.33.42-2.67.63-4,.09-.58.4-1.44.32-2.02-.16-1.1-2.03-1.2-2.87-1.18-1.65.04-3.09.86-4.25,1.99-2.33,2.28-3.75,5.12-4.93,8.12-.46,1.16-.42,1.21-1.14,2.06-.78.93-1.57,1.85-2.35,2.78l.86-.32c-2.99-.45-6.15-.69-9.15-.33-3.51.42-6.84,2.43-9.4,4.81-.72.66.41,1.25.98.73h0Z"/>
    <path class="cls-36" d="M1041.32,114.05c-1.33-1.14-2.87-2.07-4.42-2.86-3.16-1.63-6.66-2.6-10.23-2.41-.27.01-.82.1-.96.37s.12.32.36.31c4.92-.27,10.18,1.93,13.9,5.12.33.28,1.65-.27,1.36-.52h0Z"/>
    <path class="cls-21" d="M1219.52,134.76l2.19,24.49-.95,4.68s3.04,12.82,4.01,15.41c.97,2.59,10.12,14.37,10.12,14.37l2.48,13.63,19.19.19s.76-13.2,1.76-15.09c.79-2.75.74-5.67-.14-8.39-.66-2.52-3.81-17.82-3.81-17.82,0,0,2.15-19.37-1.9-18.52-.98.33-1.92.77-2.81,1.3,0,0-.94,12.55-2.33,13.36l-2.59-.27s-2.62-17.38-3.7-20.38c-1.08-2.99-2.57-4.78-4.96-4.12,0,0-1.37,1.42-1.19,2.22s3.61,19.97,2.5,20.06c-1.1.1-1.34-1.67-1.34-1.67,0,0-3.62-23.39-4.45-24.55-.96-1.59-2.96-2.19-4.63-1.39l.78,13.43s-2.27-10.59-4.66-11.59c-1.19-.61-2.64-.34-3.54.65Z"/>
    <path class="cls-36" d="M1245.4,179.76c-.61-1.91-1.53-3.79-2.64-5.45-1.48-2.23-3.5-3.68-5.82-4.95-1.02-.55-2.06-1.06-3.11-1.54-.49-.22-1.42-.85-1.98-.84-.27,0,.08.23.14.11.09-.17-.16-.84-.19-1.03-.18-.93-.35-1.86-.53-2.79-.13-.68-.12-.47-.03-1.09.17-1.04.3-2.09.4-3.14.22-2.31.13-4.58-.45-6.84s-2.01-4.2-4.37-4.56c-1.43-.22-1.71.59-2.12,1.7-1.23,3.27-2.46,6.54-3.69,9.81-.3.79,1.15.81,1.39.18,1.38-3.66,2.76-7.33,4.13-10.99l-.56.42c1.5-.27,2.94,1.52,3.44,2.8s.77,2.87.87,4.29c.12,1.62-.09,3.29-.3,4.9-.1.74-.34,1.55-.29,2.3.07,1.05.41,2.15.6,3.19.12.64.07,1.38.66,1.73.79.47,1.79.74,2.63,1.13,1.61.75,3.19,1.57,4.66,2.58,2.85,1.96,4.68,5.21,5.71,8.47.22.68,1.66.29,1.45-.39h0Z"/>
    <path class="cls-36" d="M1237.16,163.11c-.43.08.11-.02.21-.03.34-.05.68-.09,1.02-.13,1.15-.12,2.3-.15,3.45-.11,3.38.12,6.74.94,9.61,2.77.41.26,1.74-.33,1.15-.71-4.47-2.86-10.49-3.55-15.65-2.54-.22.04-.7.27-.62.57.08.31.62.22.83.18h0Z"/>
    <path class="cls-21" d="M829.96,156.96l8.93,22.9.39,4.76s6.49,11.46,8.15,13.68c1.65,2.22,13.73,10.97,13.73,10.97l10.03,12.4,14.63-5.16s-2.95-12.89-2.52-14.98c0-2.86-.87-5.65-2.48-8.02-1.34-2.23-8.63-16.05-8.63-16.05,0,0-3.34-19.21-6.99-17.25-.85.59-1.63,1.27-2.33,2.03,0,0,2.6,12.32,1.49,13.48l-2.57.46s-7.36-15.97-9.23-18.54-3.8-3.88-5.91-2.57c0,0-.92,1.74-.53,2.46s9.03,18.17,8,18.57-1.76-1.23-1.76-1.23c0,0-10-21.46-11.12-22.33-1.36-1.26-3.46-1.28-4.84-.04l4.49,12.68s-5.13-9.54-7.71-9.83c-1.31-.25-2.63.41-3.22,1.61Z"/>
    <path class="cls-36" d="M867.39,193.06c-1.93-2.88-4.65-5.56-7.96-6.72-2.8-.98-5.83-1.47-8.78-1.72l.45.24c-.48-.95-.96-1.9-1.45-2.85-.32-.63-.65-1.15-.74-1.83-.43-3.13-.97-6.1-2.45-8.93-.71-1.35-1.63-2.65-3.06-3.3-1.09-.49-2.82-.83-3.88-.11-.59.4-.47.9-.53,1.59-.09,1.19-.18,2.37-.28,3.56-.18,2.32-.36,4.64-.54,6.96-.05.61,1.41.35,1.45-.17.3-3.9.6-7.81.9-11.71l-.43.4c1.45-.72,3.28.75,4.12,1.87s1.48,2.5,1.94,3.81c.57,1.58.85,3.27,1.1,4.92.1.67.1,1.45.32,2.08.38,1.07,1.07,2.11,1.58,3.12.31.6.38,1.08,1.06,1.21,2.65.53,5.31.66,7.91,1.52,3.32,1.09,6.01,3.76,7.92,6.62.28.42,1.69-.06,1.34-.58h0Z"/>
    <path class="cls-36" d="M855.02,179.06c4.2-2.16,9.53-2.91,14.07-1.57.3.09.75-.03,1.01-.18.13-.07.49-.31.17-.4-3.51-1.03-7.24-.83-10.77.03-1.82.44-3.67,1.04-5.34,1.9-.23.12-.39.23-.17.4.2.16.83-.08,1.01-.18h0Z"/>
    <path class="cls-21" d="M1266.04,280.75s-.29,17.05-10.9,30.34c-10.61,13.29-21.34-33.54-21.34-33.54l32.24,3.2Z"/>
    <path class="cls-30" d="M1134.66,290.39c1.5-2.17,3.06-4.31,4.84-6.26.89-.97,1.92-2,2.9-2.67.16-.11.33-.21.49-.31s-.1.04.08-.04c.06-.03.12-.06.19-.09.05-.02.11-.04.17-.07-.15.07-.15.05-.02.01.27-.08-.12,0,.05-.01.2-.02-.16,0-.04,0s-.15-.03-.1-.02c-.27-.11-.3-.34-.21-.06.06.19.16.37.22.57.78,2.38.27,5.02-.71,7.26-.29.67,1.15.52,1.36.06.99-2.28,1.55-4.86.92-7.31-.09-.36-.2-.79-.41-1.11-.14-.21-.32-.25-.55-.25-.66-.01-1.31.28-1.87.6-1.12.63-2.08,1.54-2.97,2.45-2.13,2.19-3.96,4.68-5.7,7.19-.2.29.17.44.4.46.33.02.76-.12.95-.4h0Z"/>
    <path class="cls-30" d="M1134.79,292.81c2.69.29-1.83,6.38.79,6.35.78,0,1.34-.52,1.74-1.14.57-.88.96-1.88,1.31-2.86.48-1.36.78-2.55.81-3.98.04-1.66-.17-3.66-1.71-4.63-.37-.23-1.71.33-1.16.67,1.19.74,1.39,2.45,1.42,3.72.02.94-.03,1.91-.29,2.81-.33,1.12-.71,2.24-1.2,3.3-.16.35-.34.7-.55,1.02-.09.13-.19.25-.28.38-.02.03-.07.05-.08.08-.13.26.73.03.72-.13,0-.15-.13-.32-.13-.5,0-.27.07-.56.14-.82.16-.67.39-1.33.57-2,.32-1.25.48-2.82-1.19-3-.34-.04-.76.04-1.02.27-.2.18-.19.44.13.47h0Z"/>
    <path class="cls-15" d="M759.89,293.56c5.48.81,14.28,2.1,14.28,2.1,0,0-1.34,12.59-16.1,10.17-12.69-2.08-8.9-13.77-8.9-13.77,0,0,5.23.68,10.72,1.49Z"/>
    <path class="cls-30" d="M759.83,293.55c2.61.39,12.99,2.16,12.99,2.16,0,0-5.02,6.75-14.45,5.35-10.23-1.52-7.57-8.19-7.57-8.19l9.03.68Z"/>
    <path class="cls-19" d="M760.42,294.15c2.61.39,10.42,1.78,10.42,1.78,0,0-3.16,2.27-10.98,1.11-7.82-1.16-9.12-4.02-9.12-4.02l9.69,1.13Z"/>
    <path class="cls-15" d="M748.47,290.93c.29-.04.28-.04,1.58.01,2.16.09,3.04-.58,4.6-.5,2.67.14,3.24,1.41,4.39,1.58,1.14.17,3.01-.85,5.6-.21,1.52.37,5.03,2.37,7.13,2.9,1.26.32,2.17.6,2.43.72.36.17,0,2.06-14.39-.07-14.39-2.13-11.74-4.38-11.34-4.43Z"/>
  </g>
</svg>