<?xml version="1.0" encoding="UTF-8"?>
<svg xmlns="http://www.w3.org/2000/svg" xmlns:xlink="http://www.w3.org/1999/xlink" viewBox="0 0 1334 1000">
  <defs>
    <style>
      .cls-1 {
        fill: #131429;
      }

      .cls-2 {
        stroke-width: .14px;
      }

      .cls-2, .cls-3, .cls-4, .cls-5, .cls-6 {
        stroke-miterlimit: 10;
      }

      .cls-2, .cls-3, .cls-4, .cls-6 {
        stroke: #000;
      }

      .cls-3 {
        stroke-width: .14px;
      }

      .cls-4 {
        stroke-width: .14px;
      }

      .cls-7 {
        fill: #622515;
      }

      .cls-8 {
        fill: #f0ebe0;
      }

      .cls-9 {
        fill: #273339;
      }

      .cls-10 {
        fill: #5e5f5f;
      }

      .cls-11 {
        fill: #010101;
      }

      .cls-12 {
        fill: #653c29;
      }

      .cls-13 {
        fill: #ababab;
      }

      .cls-5 {
        stroke: #010101;
        stroke-width: .67px;
      }

      .cls-5, .cls-6 {
        fill: none;
      }

      .cls-14 {
        fill: #a66e53;
      }

      .cls-15 {
        fill: #283544;
      }

      .cls-16 {
        fill: #c95744;
      }

      .cls-17 {
        fill: url(#linear-gradient);
        opacity: .5;
      }

      .cls-18 {
        fill: #fff;
      }

      .cls-19 {
        fill: #5e1a15;
      }

      .cls-20 {
        fill: #d7b029;
      }

      .cls-21 {
        fill: #528293;
      }

      .cls-6 {
        stroke-width: .34px;
      }

      .cls-22 {
        fill: #ccb631;
      }

      .cls-23 {
        fill: #24180f;
      }

      .cls-24 {
        fill: #706027;
      }

      .cls-25 {
        fill: #a53b23;
      }

      .cls-26 {
        fill: #343535;
      }

      .cls-27 {
        fill: #5b481c;
      }

      .cls-28 {
        fill: #4f2e25;
      }

      .cls-29 {
        fill: #89772e;
      }
    </style>
    <linearGradient id="linear-gradient" x1="-2870.19" y1="5234.5" x2="-1813.14" y2="5234.5" gradientTransform="translate(-4579.21 2858.17) rotate(90) scale(1 -1)" gradientUnits="userSpaceOnUse">
      <stop offset="0" stop-color="#f0ebe0"/>
      <stop offset=".18" stop-color="#eee8dd" stop-opacity=".99"/>
      <stop offset=".33" stop-color="#e8e1d4" stop-opacity=".97"/>
      <stop offset=".46" stop-color="#ded4c5" stop-opacity=".93"/>
      <stop offset=".59" stop-color="#d0c2b0" stop-opacity=".88"/>
      <stop offset=".72" stop-color="#bdab95" stop-opacity=".82"/>
      <stop offset=".84" stop-color="#a78e73" stop-opacity=".73"/>
      <stop offset=".96" stop-color="#8d6d4d" stop-opacity=".64"/>
      <stop offset="1" stop-color="#83603d" stop-opacity=".6"/>
    </linearGradient>
  </defs>
  <g id="Layer_1" data-name="Layer 1">
    <polyline class="cls-8" points="-36.62 1019.42 -36.62 -25.51 1380.95 -25.51 1380.95 1019.42"/>
    <polyline class="cls-17" points="1383.29 1041.55 -72.7 1041.55 -72.7 -15.51 1383.29 -15.51"/>
    <path class="cls-14" d="M877.46,1080.66c-9.9-60.93-5.71-125.96,1.41-177.3-2.11.4-4.23.77-6.36,1.08-10.76,1.54-21.66,1.9-32.52,1.76-11.36-.15-22.78-.51-34.1-1.41-11.59-.92-23.04-2.67-34.35-5.36-10.35-2.46-19.58-8.25-30.07-10.23-.02,0-.04-.01-.06-.02-.1.03-.2.06-.32.07-4.36.55-8.74.98-13.13,1.3-14.45,1.03-28.95.7-43.42.41,4.74,53.42,9.77,108.99,12.16,155.81l37.86,269.41s27.74,9.36,49.04.99c0,0-.81,15.71,5.03,15.45,32.51-1.45,37.78,8.09,83.51-4.75-5.09-30.85,18.14-168.38,5.33-247.21Z"/>
    <path class="cls-28" d="M796.37,1347.53c-4.06-28.5-7.98-57.02-11.75-85.56-3.75-28.37-7.35-56.76-10.82-85.17-3.51-28.77-6.87-57.55-10.09-86.35-1.63-14.53-3.2-29.06-4.27-43.65-1.06-14.51-1.8-29.04-2.4-43.57-1.19-28.74-1.85-57.5-3.49-86.21-.21-3.63-.43-7.27-.67-10.9-.04-.59-1.49-.26-1.45.39,1.92,29.15,2.67,58.35,3.78,87.54,1.09,28.77,2.56,57.55,5.85,86.17,3.32,28.84,6.55,57.7,10.03,86.52,3.44,28.51,7.02,57,10.75,85.48,3.71,28.37,7.57,56.72,11.57,85.05.5,3.55,1.01,7.11,1.51,10.66.09.6,1.54.25,1.45-.39h0Z"/>
    <path class="cls-14" d="M1234.68,1089.23c-9.4-60.93-5.5-125.96,1.17-177.29-1.99.4-3.99.77-6.01,1.07-10.16,1.53-20.45,1.88-30.71,1.73-10.73-.16-21.5-.53-32.2-1.44-10.94-.93-21.76-2.69-32.44-5.39-9.77-2.47-18.5-8.27-28.4-10.26-.02,0-.04-.01-.06-.02-.09.03-.19.06-.3.07-4.12.55-8.25.98-12.4,1.28-13.65,1.01-27.33.68-40.99.37,4.52,53.43,9.32,109,11.62,155.82l35.98,269.44s26.2,9.39,46.3,1.04c0,0-.75,15.71,4.76,15.46,30.69-1.42,35.68,8.13,78.85-4.68-4.83-30.85,16.98-168.36,4.82-247.2Z"/>
    <path class="cls-28" d="M1153.36,1356.1c-4.06-28.5-7.98-57.02-11.75-85.56-3.75-28.37-7.35-56.76-10.82-85.17-3.51-28.77-6.87-57.55-10.09-86.35-1.63-14.53-3.2-29.06-4.27-43.65-1.06-14.51-1.8-29.04-2.4-43.57-1.19-28.74-1.85-57.5-3.49-86.21-.21-3.63-.43-7.27-.67-10.9-.04-.59-1.49-.26-1.45.39,1.92,29.15,2.67,58.35,3.78,87.54,1.09,28.77,2.56,57.55,5.85,86.17,3.32,28.84,6.55,57.7,10.03,86.52,3.44,28.51,7.02,57,10.75,85.48,3.71,28.37,7.57,56.72,11.57,85.05.5,3.55,1.01,7.11,1.51,10.66.09.6,1.54.25,1.45-.39h0Z"/>
    <path class="cls-14" d="M537.15,452.85l-14.13-14.03s-26.91-5.95-37.35-13.37c-7.34-5.65-13.87-12.28-19.38-19.73l-24.05-16.44s-14.31-1.15-14.28-5.65c.03-4.5,5.5-5.48,10.81-6.43,5.31-.95,79.15,11.27,79.15,11.27-4.39-6.39-9.32-12.39-14.74-17.94-8.38-8.46-7.81-17.16-1.31-17.56,4.01-.25,18.65,9.01,19.99,15.78,1.33,6.77,16.66,11.2,23.92,20.91,7.26,9.71,5.73,26.18,5.73,26.18,3.19,5.63,9.34,12.54,9.34,12.54-3.42,11.2-23.7,24.46-23.7,24.46Z"/>
    <path class="cls-28" d="M446.12,390.48c-.19-.35.38-1.18.52-1.39.46-.69,1.13-1.28,1.84-1.71,1.21-.73,2.4-.81,3.77-.77,2.59.09,5.16.67,7.62,1.47,1.89.61,3.74,1.36,5.53,2.24.59.29,1.17.59,1.74.91.15.08.33.25.49.29.35.1.01.26.26-.07l.96-.38c.42,0-.21-.18-.43-.29-.53-.28-1.05-.59-1.57-.9-.36-.21-1.61.39-1.26.61,3.18,2.03,6.15,4.37,8.84,7.03,2.69,2.66,5.42,5.55,7.27,8.88.25.46,1.65-.03,1.45-.39-1.82-3.27-4.44-6.09-7.06-8.74-2.76-2.78-5.84-5.22-9.14-7.33l-1.26.61c.71.42,2.71,2.04,3.54.9.05-.06.07-.12.05-.19-.16-.29-.6-.46-.87-.62-.7-.41-1.44-.78-2.17-1.13-2.38-1.14-4.88-2.07-7.44-2.73s-6.06-1.43-8.81-.75c-1.38.34-2.68,1.01-3.73,1.97-.52.48-2.06,2.04-1.61,2.88.25.46,1.64-.03,1.45-.39h0Z"/>
    <path class="cls-28" d="M470.56,391.39c-.29.65-.64.16-.32.28.04.02.2,0,.24,0,.34.01.67.04,1,.07.82.08,1.64.2,2.46.32,1.75.26,3.5.56,5.24.88,1.86.34,3.71.75,5.55,1.21,1.33.33,2.66.67,3.97,1.08.45.14.91.28,1.34.47.18.08.5.36.5.15,0,.68,1.46.41,1.46-.15,0-.95-2.66-1.42-3.3-1.6-2.5-.73-5.05-1.33-7.61-1.83-2.83-.55-5.69-1.06-8.56-1.39-.74-.09-2.92-.55-3.34.42-.31.7,1.15.6,1.37.09h0Z"/>
    <path class="cls-28" d="M501.94,409.79c.41.12.1.17.21-.04.08-.15.08-.4.13-.57.19-.63.47-1.23.78-1.81,1-1.86,2.36-3.51,3.95-4.88,1.94-1.67,4.24-2.91,6.72-3.55.77-.2,1.58-.35,2.38-.38.22,0,.45.03.67.01.27-.03.1.09.1-.02.01.45,1.46.17,1.45-.39-.02-.67-2.18-.4-2.49-.37-1.96.2-3.9.8-5.68,1.65-3.79,1.81-7.11,4.89-8.87,8.73-.22.47-1.12,2.14-.25,2.4.46.14,1.7-.54.89-.78h0Z"/>
    <path class="cls-14" d="M695.24,486.48l-43.98,26.46-99.75-97.09c-4.06,10.13-16.87,14.44-28.5,22.98,0,0,71.26,114.6,80.92,127.21,34.17,44.59,64.18,28.02,82.96,13.19,10.81-8.54,37.4-64.86,35.77-77.84-.37-2.96-28.04-14.94-27.43-14.91Z"/>
    <path class="cls-28" d="M550.75,416.07c-3.22,4.28-7.66,7.62-12.71,9.43-.14.05-.57.19-.44.39.11.18.81-.05.93-.09,5.41-1.94,10.18-5.39,13.64-9.99.15-.2-.53-.13-.57-.12-.28.05-.67.14-.85.38h0Z"/>
    <path class="cls-16" d="M694.82,381.87c-12.8,11.99-13.67,18.18-26.4,38.04-7.02,10.96-12.6,27.32-16.97,36.62-1.37,2.92-15.69,39.76-15.7,40.36-.01.48,2.82,1.55,4.05,4.81,2,2.78,2.83,3.76,4.92,6.49,6.91,9.04,14.63,17.81,24.24,24.06,5.19,3.38,10.77,5.8,16.59,7.31,4.34-5.77,8.27-11.85,11.78-18.17,7.03-12.65,12.37-26.17,16.42-40.05,4.13-14.16,6.95-28.68,8.87-43.29,1.94-14.72,3-29.55,3.58-44.38.48-12.3,4.03-19.04,4.06-31.35-11.65,5.34-25.05,9.81-35.44,19.54Z"/>
    <path class="cls-28" d="M634.67,497.8c3.4,2.9,6.53,6.19,9.46,9.55,5.66,6.5,10.91,13.86,13.52,22.16,1.44,4.58,1.95,9.43.76,14.13-.12.49,1.33.28,1.45-.19,2.18-8.63-1.21-17.46-5.63-24.8-4-6.65-9.09-12.65-14.62-18.07-1.17-1.14-2.35-2.28-3.59-3.34-.37-.32-1.72.24-1.35.55h0Z"/>
    <path class="cls-22" d="M263.41,309.44s67.41,26.31,80.77,37.87c26.14,22.61,22.43,60.55,22.43,60.55l-34.93,28.2-68.27-126.62Z"/>
    <path class="cls-24" d="M356.47,402.26c-3.56,7.96-4.47,16.56-3.43,25.17s3.77,17.01,6.41,25.29,5.45,17.08,6.59,25.96.36,18.66-3.2,27.33c-2.41,5.86-5.86,11.24-9.9,16.1-1.17,1.41-2.39,2.78-3.65,4.11-.72.76-1.44,1.5-2.18,2.23-.4.4-.77.69-.93,1.24-.42,1.43-.48,3.07-.72,4.55-.21,1.34,2.73.92,2.92-.27.22-1.4.3-2.92.67-4.28.02-.06,0-.17.04-.23.11-.24.05.09.08.04.48-.7,1.31-1.3,1.9-1.92,1.19-1.24,2.35-2.5,3.46-3.8,3.72-4.33,7.02-9.06,9.55-14.19,4.21-8.55,5.9-17.9,5.28-27.39-1.16-17.85-9.67-34.04-12.81-51.48-1.71-9.54-1.34-19.28,2.66-28.22.64-1.43-2.27-1.3-2.74-.23h0Z"/>
    <path class="cls-26" d="M249.16,716.17l1.12,7.4c.24,1.61,1.34,2.77,2.45,2.6,1.09-.19,1.78-1.62,1.54-3.2l-1.12-7.4c1.44-1.31,2.1-3.8,1.68-6.34-.59-3.53-3.03-6.03-5.47-5.58-2.44.45-3.93,3.67-3.35,7.19.34,2.36,1.55,4.41,3.15,5.33Z"/>
    <path class="cls-10" d="M151.84,121.11c5.35-7.74,13.77-12.96,22.78-10.64-.58-17.55,16.31-28.07,33.86-28.76,9.02.06,18.32,4.02,26.8.95,5.29-1.91,9.25-6.11,13.75-9.63,18.85-14.28,48.85,1.75,65.15,18.9,16.3,17.15,12.51,36.51,4.51,58.76-3.72,10.34-3.04,15.94-4.09,26.96-.99,10.39-7.07,29.76-7.08,40.07,0,10.31,16.22,20.93,5.82,21.86l-113.45-12.15c-16.8,3.5-27.61-1.48-36.38-16.23-5.72-10.02-3.85-10.5-4.71-21.98-1.5-15.01-16.89-26.15-16.15-41.22.17-9.46,4.3-18.81,9.19-26.91Z"/>
    <path class="cls-25" d="M137.76,120.63s38.98-19.84,89.58-14.77c50.6,5.07,75.6,35.78,84.66,57.9,9.06,22.12-.1,45.56-.1,45.56,0,0,12.67,3.29,20.59-42.27,11.55-66.42-56.62-105.69-72.97-105.3-16.34.39-100.09-15.63-121.76,58.88Z"/>
    <path class="cls-14" d="M182.46,232.73s-1.45,39.98-11.92,67.97c-1.46,3.9-26.12,21.7-26.12,21.7l36.58,9.19c20.54,4.56,73.1,24.24,92.84,16.97l10.65-25.53s-21.84-10.47-22.9-15.27c-1.05-4.8,2.36-41.21,2.36-41.21"/>
    <path class="cls-29" d="M330.58,1237.44l39.93-442.38-21.53-130.04H84.81l-35.52,125.1,54.58,452.99s39.24,19.53,112.15,15.75c90.82-4.71,114.57-21.42,114.57-21.42Z"/>
    <path class="cls-22" d="M377.38,660.5c-7-52.1-8.6-52.81-8.6-52.81l-6.2-17.08-5.41-35.68c4.6-23.56,15.78-34.3,15.04-71.97l-14.73-54.09-37.81-86.17-56.26-33.25c1.99,3.53,24.28,27.31-11.29,36.81-.03,0-8.76.14-8.78.15-45.92-1.87-74.31-45.11-74.31-45.11l-78.8,31.86-16.02,213.83s-44.47,102.16-46.26,145.64c-2.19,53.38,6.87,109.04,25.31,155.42,1.88,4.74,72.08,12.85,79.38,13.58,27.42,2.72,55.04,3.47,82.57,2.26,54.11-2.38,106.29-15.02,158.93-25.7,0,0,10.24-125.56,3.24-177.66Z"/>
    <path class="cls-28" d="M261.54,301.05s-8.45-1.35-14.27-2.97c-5.83-1.61-15.79-1.23-42.7-24.39,0,0,7.98,28.57,42.24,34.57,0,0,8.85,1.82,14.67.39l.06-7.59Z"/>
    <path class="cls-14" d="M290.94,127.04c.12.1.24.19.37.29-.13-.2-.25-.41-.34-.62l-.03.32ZM305.36,131.18c.2.22.42.43.65.65l.02-.27s-.65-.7-.67-.38ZM200.96,270.43c12.62,15.1,29.73,30.86,60.58,32.44,7.78.4,15.23.01,21.44-9.13,6.28-9.25,11.77-12.76,18.5-21.27,6.45-8.16,9.41-13.32,12.75-23.14,3.45-10.16,3.64-12.89,3.31-23.33-.15-4.66.05-11.7.74-16.11.79-5.1,4.66-25.13,6.03-36.96,1.36-11.83-6.29-34.96-6.29-34.96-.42-3.26-4.98-1.93-6.5-4.64l-1.4-.12s.67.38.59,1.34c-1.75-.42-3.43-1.53-4.69-2.71v.05c-2.18.78-4.2-.36-5.81-2.11-.03.32.27.99.62,1.02-2.12.14-4.13-1-5.42-2.4-.03.32.27.99.24,1.31-1.56-.43-3.08-1.38-4.33-2.37.28.45,8.27-.1,8.25.12-2.12.14.22,1.04-1.39-.71l-1.63-1.34c-1.77.17-1.8,1.23-3.09-.17.32.35-.66-3.61-.69-3.29-2.1-.18-1.51-.27-3.18-1.38-.03.32-5.89,1.6-5.91,1.92-1.74-.15-1.42,1.49-2.71.09.32.35,1.38-1.24,1.7-.89-2.12.14-3.02,1.42-4.63-.33.32.35-6.61-4.11-6.61-4.11-2.12.14-1.82.83-3.46-.6.65.7-9.62-1.42-9.32-.75-1.74-.15,2.79,6.68,1.47,5.6-.03.32-3.94-1.31-3.94-1.31-1.78.17.71,2-.58.6-.03.32.24,1.31.59,1.34-2.18.78-4.57-.07-6.55-1.53.64.7.94,1.37,1.26,1.72-1.75-.15-3.17.05-4.81-1.38-.03.32.59,1.34.94,1.37-1.8.49-3.87,0-5.53-1.12-.03.32.62,1.02.93,1.37-1.42.2-2.82.08-4.13-1l.94,1.37c-1.4-.12-2.5.43-4.54-.39-.03.32.65.7.62,1.02-1.05-.09-2.45-.21-3.47-.62-.03.32.97,1.05.61,1.02-1.4-.12-2.5.43-4.19-.36.32.35.61,1.02.94,1.37-1.4-.12-2.82.08-4.16-.68-.03.32.27.99.59,1.34-1.4-.12-2.5.43-4.19-.36-.03.32.62,1.02.94,1.37-1.4-.12-2.82.08-4.19-.36-.03.32.65.7.97,1.05-1.4-.12-2.82.08-4.51-.71-.05.64.27.99.24,1.31-1.05-.09-1.72-.47-2.76-.56l-1.8.49c-5.44,5.99-23.34-.75-23.34-.75-11.56,7.73-.84,53.24-1.02,59.36-.17,6.12-3.77,7.52-3.77,7.52-1.55-2.39-4.25,4.06-5.08,1.41-.86-2.33.09-5.16-.77-7.49-2.7-5.4-9.82-4.39-13.94-1.52l-.73,1c-5.96,6.79-2.03,29.8,1.36,36.83.02,13.72,11.41,21.88,18.97,12.6l1.45,5.47"/>
    <g>
      <path class="cls-11" d="M274.38,241.89c-2.69,1.12-6.59.47-9.04-1.35-.55-.4-2.49-.22-1.73.34,3.25,2.4,8.86,3.08,12.33,1.63.34-.15.31-.4-.09-.57-.42-.18-1.1-.21-1.47-.06"/>
      <path class="cls-11" d="M262.56,240.05c-1.66-.96-3.56-1.56-5.49-1.87-.28-.04-.66.03-.88.2-.18.13-.23.32-.02.46.85.59,1.97.89,3.02.97.33.02.77-.02.98-.29.19-.25-.11-.44-.37-.46-.87-.06-1.73-.3-2.43-.79-.3.22-.6.44-.91.66,1.72.28,3.42.83,4.9,1.69.29.17.75.12,1.04-.02.22-.1.46-.37.17-.54"/>
      <path class="cls-11" d="M254.85,239.64c-2.26-.25-4.84-1.46-5.81-3.25-1.46-2.7.45-6.62,3.42-8.02.32-.15.18-.4-.13-.49-.4-.12-.89-.01-1.23.15-2.59,1.22-4.47,4.41-4.3,6.84.16,2.27,2.19,4.03,4.84,4.91.79.26,1.64.47,2.48.56.34.04.97-.01,1.16-.27.19-.26-.11-.4-.43-.44"/>
      <path class="cls-11" d="M278.63,241.1c-.1-.27.14-.42.32-.4.61.07,1.25-.05,1.81-.42.18.26.36.52.54.78-1.24.03-2.5.32-3.65.96-.23.13-.54,0-.72-.17-.14-.13-.27-.43-.04-.56"/>
      <path class="cls-11" d="M276.89,241.28c1.29-.71,2.71-1.02,4.09-1.05.2,0,.45.12.58.32.1.16.11.35-.05.46"/>
      <path class="cls-11" d="M283.31,241.81c1.48.07,3.29-.76,4.16-2.4,1.31-2.47.55-5.59-1.15-7.39-.18-.2-.06-.42.15-.46.27-.06.57.11.76.32,1.48,1.56,2.32,3.97,1.88,6.35-.42,2.22-1.96,3.67-3.78,4.17-.54.15-1.11.23-1.66.21-.22-.01-.62-.15-.7-.42-.09-.28.13-.38.34-.37"/>
    </g>
    <path d="M301.99,199.3c2.02-.84,4.45.19,5.63,1.42.28.29.78,1.14,1.04,2.45.34,1.67-.47,3.46-1.59,4.49-1.49,1.38-3.79,1.44-5.46.48-2.27-1.31-2.8-4.22-2.03-6.24.14-.37.79-1.92,2.42-2.6"/>
    <path d="M284.13,204.28s10.07-6.62,14.93-6.69c7.1-.1,15.44,4.55,17.63,8.25,0,0-10.98-6.82-15.98-6.6-4.78.21-16.59,5.04-16.59,5.04Z"/>
    <path d="M243.18,195c-1.85-1.17-4.99-1.16-6.36-.14-.32.24-1.19.92-1.67,2.17-.62,1.59-.13,3.49.8,4.7,1.24,1.61,3.49,2.07,5.3,1.4,2.46-.9,3.48-3.69,3.06-5.81-.08-.39.37-1.09-1.12-2.04"/>
    <path d="M254.98,201.24s-10.08-7.69-15.31-8.29c-7.63-.88-17.14,2.82-19.93,6.27,0,0,12.6-5.57,17.96-4.81,5.12.73,17.28,6.83,17.28,6.83Z"/>
    <path class="cls-13" d="M323.3,181.19c-3.01-2.51-6.46-3.31-6.76-3.38,0,0-3.42-.84-8.1-.13-3.23.49-11.63,3.23-22.06,8.7.53,1.33,1.06,2.66,1.6,4,.41,1.02.82,2.03,1.23,3.04,3.44-2.35,6.45-4.18,8.74-5.51,4.85-2.81,7.34-4.23,10.52-4.96,3.33-.77,6.42-.76,7.63-.75,1.69.01,2.82,0,4.29.3.99.2,1.84.49,2.55.77.1-.69.22-1.38.37-2.07Z"/>
    <path class="cls-13" d="M265.94,185.49c-.84,1.16-1.69,2.32-2.54,3.48-.65.88-1.3,1.76-1.95,2.64-3.39-3.58-6.41-6.49-8.72-8.64-4.89-4.55-7.4-6.85-10.81-8.71-3.58-1.95-7.03-3.03-8.38-3.44-1.89-.58-3.15-.99-4.85-1.2-3.69-.46-5.95.39-6.28-.07-.3-.41,1.38-1.38,1.55-1.47,4.26-2.4,9.49-1.87,9.9-1.84,0,0,3.97.35,9.07,2.71,3.52,1.63,12.38,7.35,23,16.55"/>
    <path class="cls-5" d="M178.46,213.35c-7.35-18.43-12.85-18.67-12.85-18.67,0,0-3.8,4.14-2.16,12.66"/>
    <path class="cls-5" d="M175.58,214.95c-4.92-.6-1.34,8.71-2.75,10.85-1.41,2.14-3.09-3.67-3.54-10.64,0,0,.21-9.4,4.91-11.01"/>
    <path class="cls-28" d="M303.11,158.81s-15.08,1.65-27.32,1.72c-12.24.07-24.17-6.21-24.17-6.21,0,0,14.33,4.62,24.01,4.62s27.47-.13,27.47-.13Z"/>
    <path class="cls-13" d="M311.47,123.75c-.15-.22.07.09,0,0-3.01-4.3-4.91-8.87-8.1-13.03-3.13-4.08-6.2-7.77-9.55-11.66-.2-.23-4.2-.36-4.4-.59-.04-.04-.17-.19-.21-.24-.11-.12-.22-.24-.32-.36-.25-.28-.5-.56-.75-.84-18.93-8.4-41.85-9.73-62.58-3.51-40.27,12.07-63.13,54.5-51.06,94.77,1.03,3.45-1.05,7.61,2.31,9.57,3.36,1.96,3.77,1,6.98-1.2,3.06-2.4,5.53-5.47,7.21-8.98,8.84-16.55,11.13-42.97,7.31-61.34,2.21,3.48,17.71-.02,21.13,2.26,13.55,9.03,31.85,5.37,40.88-8.18,1.39,2.05,2.94,3.98,4.64,5.78,15.59,16.43,36,24.48,53.19,13.05.63-.42-4.8-12.77-6.68-15.5Z"/>
    <path class="cls-9" d="M216.43,190.49l1.7,6.65c.89,5.13,3.98,15.4,5.51,18.25,2.16,3.99,28.86,7.38,34.35,4.69,5.49-2.69,9.54-17.81,11.2-21.26l10.68,1.37c.62,4.66,2.92,19.46,4.81,21.57,1.89,2.11,14.22,2.65,15.61,2.71,1.16.04,2.77.09,4.53.07,4.67,0,10.37-.38,12.23-1.97,2.76-2.36,6.29-11.91,9.39-20.95l.5-1.42c.11-.34.24-.58.25-.68h0l.56-1.63c-14.91-8.48-35.26-8.72-48.22-.57l.08.17-10.42-1.39c-11.24-8.7-31.36-14.45-46.38-9.83h0l-45.91,4.29-.43,4.01,39.95-4.09ZM286.04,220.38c-1.18-1.32-3.1-11.7-4.33-19.77,11.25-6.87,29.59-6.62,42.97.17l-.02.2c-1.66,4.85-6.08,17.75-8.79,20.07-3.22,2.74-27.74,1.41-29.83-.64v-.04ZM226.9,214.54c-3.1-7.68-5.51-15.62-7.18-23.73,13.43-4.98,35.83-.04,46.83,8.25-2.31,6.28-5.46,17.31-9.39,19.23-5.66,2.78-28.91-1.22-30.25-3.75h0Z"/>
    <path class="cls-7" d="M154.59,195.87s-38.16-27.67-23.61-57.38c2.79-5.71,3.1-3.83,3.26-8.76.86-25.85-8.18-19.69,29.68-49.91,37.86-30.23,43.42-29.7,101.21-25.4,29.8,2.22,46.12,14.68,54.26,33.56,3.66,8.49,5.67,18.27,6.51,29.01,0,0-60.9-17.37-97.16,2.19-36.26,19.55-74.33,83.22-66.6,103.63,2.17,5.73-7.55-26.94-7.55-26.94Z"/>
    <path class="cls-25" d="M131.08,167.59s51.68-75.29,120.57-77.59c0,0-85.09-9.1-122.75,51.67l-.56,7.14c-.35,4.45.07,8.92,1.24,13.23l1.51,5.54Z"/>
    <path class="cls-29" d="M350.61,385.93c-.71,1.72-1.31,3.51-1.84,5.3-.83,2.82-1.73,6.03-1.44,9.01.21,2.25,1.4,4.54,2.23,6.6,3.95,9.74,8.17,19.36,11.85,29.21,4.52,12.12,8.6,24.59,10.53,37.42s.72,26.87-3.33,39.58c-2.85,8.94-7.78,17.62-8.43,27.13-.08,1.11-.09,2.23-.05,3.34.02.49,1.47.2,1.45-.39-.3-9.51,4.24-18.1,7.33-26.84,4.35-12.26,6.34-25.53,5.06-38.52s-5.06-25.2-9.33-37.21c-3.74-10.54-8.11-20.82-12.41-31.14-1.15-2.76-2.44-5.55-3.23-8.44-.47-1.72-.19-3.55.11-5.28.5-2.9,1.38-5.75,2.4-8.51.18-.48.36-.96.55-1.43s-1.25-.33-1.45.17h0Z"/>
    <path class="cls-28" d="M272.09,189.17c2.63.68,5.51-.91,6.74-3.24,1.48-2.8.52-6.17-.99-8.73-.27-.46-1.66.03-1.45.39,1.31,2.23,2.22,4.97,1.42,7.54-.63,2.01-2.61,3.87-4.82,3.29-.32-.08-.79.06-1.02.27s-.16.41.13.48h0Z"/>
    <path class="cls-23" d="M268.2,252.31c-7.68-1.13-25.42,1.79-29.34,4.73,0,0,5.95,12.18,23.75,14.81,17.8,2.63,23.57-7.83,23.57-7.83,0,0-8.2-10.27-17.98-11.71Z"/>
    <path class="cls-18" d="M246.67,254.29s9.87.59,17.65,1.73c7.77,1.15,17.38,3.44,17.38,3.44,0,0,2.18-6.12-11.91-8.2-14.09-2.08-23.12,3.03-23.12,3.03Z"/>
    <path class="cls-12" d="M265.35,269.15c-8.13-2.6-16.66-11.37-26.49-12.11,0,0,1.36,17.25,22.29,20.34,20.93,3.09,25.03-13.35,25.03-13.35-9.62-2.13-12.29,4.98-20.83,5.13Z"/>
    <path class="cls-12" d="M278.01,248.84c-4.34-1.02-7.41.49-9.32.21-1.91-.28-4.42-2.62-8.87-2.89-4.17-.26-23.31,8.83-21.58,10.63,1.73,1.8,16.49-4.77,29.72-2.81,13.23,1.95,16.71,11.21,18.88,9.99,2.17-1.22-4.77-14.15-8.83-15.11Z"/>
    <path d="M711.08,204.52c1.89-4.98,5.54-9.39,6.51-14.58.88-4.68-.52-9.48-.52-14.25.63-9.94,6.44-19.01,15.67-24.44,9.18-5.28,31.83-17.19,42.7-17.7,10.49-.82,21.79-.09,30.29,5.57,5.99,3.95,10,9.92,15.99,13.84,8.14,5.36,18.76,6.18,28.73,7.57,9.97,1.38,20.68,3.89,26.74,11.19,8.47,10.2,4.18,24.96,9.1,36.92,4.08,1.65,8.36,2.77,12.76,3.34,2.49.47,4.87,1.3,7.09,2.48,2.4,1.22,4.38,3.13,5.7,5.51,1.26,2.59,1.54,5.61.79,8.52-.75,2.82-1.76,5.58-3,8.25-1.2,2.57-2.09,5.28-2.62,8.05-.46,2.66-.43,5.36.1,7.95.97,4.95,3.96,9.14,8.23,11.53,4.07,2.34,8.83,1.84,13.16,2.36,2.15.18,4.22.79,6.1,1.78,1.78.96,3.14,2.55,3.84,4.49,1.17,3.34.36,7.17-2.09,9.91-3.32,3.15-8.25,3.51-11.65.84-.39-.32-.73-.7-1.01-1.13,1.47,1.43,3.4,2.29,5.47,2.41,2.43.18,4.87-.75,6.67-2.55,2.21-2.54,2.9-6.05,1.79-9.09-.65-1.72-1.88-3.12-3.49-3.95-1.78-.89-3.73-1.43-5.74-1.58-4.12-.46-9.13.15-13.62-2.36-4.61-2.53-7.85-7.01-8.9-12.32-.56-2.75-.61-5.62-.12-8.45.54-2.89,1.46-5.71,2.71-8.4,1.2-2.58,2.19-5.25,2.93-7.99.66-2.57.43-5.25-.65-7.56-1.2-2.17-3-3.91-5.18-5.01-2.12-1.14-4.4-1.95-6.78-2.42-4.07-.57-8.03-1.63-11.82-3.11,2.4,5,6.2,9.41,8.89,14.31.53.97.96,2.05,1.34,3.18,3.42,3.96,6.07,8.46,6.07,13,0,9.27-3.74,19.39-5.19,27.23-.15.24-.26.52-.26.87,0,.21,0,.41,0,.62-.11.76-.19,1.48-.24,2.19.1.14.18.31.29.43.12,3.51.56,7,2.17,10.18,2.26,4.44,6.64,7.37,10.94,9.6,4.45,2.3,9.44,3.99,14.49,4.55-5.93,6.3-15.58,16.09-19.58,17.5-.24.09-2.81,1.87-3.01,1.73-6.33-2.49-14.97-10.04-19.76-15.46,0,0,8.29,14.48,17.23,17.67l-5.08,4.14c-18.05,14.55-49.26,25.6-72.41,27.25,4.59-4.51,5.12-11.87,3.33-18.05-2.24-6.02-4.38-11.08-7.87-16.47-2.38-4.32,6.02-9.34,5.7-14.28-.49-.07-1.01-.1-1.47-.19l-87.59-75.65c-10.74-6.04-27.7-9.02-23.9-19.93Z"/>
    <path d="M743.71,187.82c-3.65.92-8.84-1.94-13.43,1.06-1.3.85-3.25-8.2-4.32-7.33-27.95,12.98-24.42,38.58-23.24,55.55.62,8.08,7.11,19.81,1.54,25.88-5.58,6.06-16.3,5.59-21.58,11.76-6.22,7.26-1.06,18.36-3.31,27.54-2.49,8.83-11.42,14.52-21.06,13.44,10.94,8.69,24.15,14.39,38.17,16.48l10.71-12.78c-3.71,4.93-4.89,15.93-4.89,15.93,5.39,6.12,18.4,9.05,21.61,9.79,13.82,3.18,46.15,16.41,86.45,5.61-17.59-49.34-35.92-115.7-53.51-165.04"/>
    <path d="M652.14,296.48c-.67,1.93-.67,4.04.01,5.97.77,2.27,2.51,4.08,4.74,4.95,3.03.92,6.32.06,8.51-2.22,1.23-1.32,1.96-3.02,2.07-4.82.09-1.99-.2-3.98-.84-5.86-1.18-3.92-3.62-8.2-3.17-13.32.42-5.24,3.03-10.06,7.2-13.27,2.15-1.67,4.6-2.93,7.22-3.69,2.69-.73,5.47-1.1,8.26-1.1,2.68,0,5.36-.25,7.99-.73,2.47-.49,4.68-1.83,6.26-3.78,1.41-2,2.22-4.36,2.33-6.81.17-2.4,0-4.8-.51-7.15-1.2-4.42-1.85-8.98-1.91-13.56.28-4.09,1.77-8,4.28-11.24,2.12-2.55,4.7-4.67,7.61-6.25,2.12-1.21,4.14-2.58,6.07-4.08,1.57-1.35,2.85-3,3.77-4.85l-.07.41c-.12.39-.28.76-.48,1.12-.72,1.42-1.71,2.68-2.93,3.7-1.89,1.6-3.9,3.05-6.02,4.33-2.78,1.61-5.24,3.72-7.25,6.22-2.33,3.09-3.7,6.8-3.92,10.67.12,4.48.8,8.93,2.02,13.25.55,2.45.74,4.96.57,7.46-.13,2.69-1.02,5.28-2.56,7.49-1.75,2.24-4.24,3.77-7.03,4.32-2.72.51-5.48.77-8.24.78-2.68,0-5.34.35-7.93,1.04-2.47.71-4.77,1.88-6.8,3.46-3.89,2.97-6.35,7.44-6.78,12.32-.46,4.67,1.79,8.77,3,12.9.66,2.02.93,4.15.8,6.28-.14,2.02-.99,3.92-2.4,5.37-2.42,2.47-6.03,3.36-9.32,2.3-3.98-1.67-6.17-5.98-5.17-10.18.13-.49.32-.96.59-1.4Z"/>
    <path class="cls-14" d="M830.37,289.12s-10.4,32.99-1.17,58.27c1.29,3.52,15.33,17.11,15.33,17.11l-8.99,8.12c-15.51,9.8-33.93,14.18-52.13,11.92-.17-.02-.35-.04-.52-.07-12.46-1.6-24.12-6.99-33.57-15.27l-8.02-7.03s16.92-5.54,17.91-9.85c.98-4.31-2.47-37.09-2.47-37.09"/>
    <path class="cls-14" d="M753.2,299.76c1.77,19.34-.79,38.13.33,57.51.04.69.07,1.43-.31,2.03-.25.39-.64.67-1.03.95-1.41.99-2.81,1.99-4.22,2.98.57,4,3.03,7.05,5.78,10.13,5.45,6.11,16.23,8.72,24.38,9.67,21.38,2.49,41.8-5.32,56.72-18.19,1.79-1.55,5.05-6,4.64-8.17-.39-2.12-7.24-4.65-8.48-6.94-9.22-17.08-1.24-54.6-1.24-54.6"/>
    <path class="cls-28" d="M811.77,326.38s-6.91,18.95-41.2,25.95c0,0-11.53,1.3-17.36-.53v-7.51s58.57-17.9,58.57-17.9Z"/>
    <g>
      <path class="cls-14" d="M827.62,302.5c.17-3.34,3.96-6.26,4.02-9.25.18-8.75,1.27-17.45,1.71-26.18.96-2.19,1.81-4.71,2.46-6.25,1.03-2.14,2.59-4.55,3.62-6.68,3.07-4.88,9.74-3.27,13.39-.16l.6,1.02c5.05,7,3.31,24.28-6.43,35.69-1.12,11.49-12.43,22.24-19.37,11.81Z"/>
      <path class="cls-14" d="M710.9,281.49c.57-4.42,3.27-12.65,3.03-16.91-.28-4.92.07-28.6,4.71-43.48,5.66-18.13,11.25-27.1,11.25-27.1.7-3.07-7.02-1.77-5.32-4.21h1.34s-.67.31-.68,1.24c1.7-.24,3.4-1.14,4.71-2.15,0,.05,0,.05,0,.05,2,.94,4.02.04,5.71-1.47,0,.31-.34.92-.68.91,2.01.33,4.02-.57,5.38-1.78,0,.31-.35.92-.35,1.23,1.53-.26,3.05-1.03,4.33-1.85-.25.32-5.04-.41-6.99-.61.1-.15.24-.32.53-.58l1.67-1.13c1.67.33,1.6,1.33,2.95.12-.34.3.96-3.37.96-3.07,2.01.02,1.46-.12,3.15-1.02,0,.31,5.45,2.06,5.45,2.36,1.67.02,1.22,1.55,2.57.33-.25.23-.79-.6-1.19-.92,1.74.41,2.51,1.46,4.09.03-.34.31,6.66-3.3,6.66-3.3,2.01.33,1.66.96,3.35-.25-.68.61,9.27-.47,8.93.14,1.67.02-3.27,6.1-1.92,5.19,0,.31,3.86-.88,3.86-.88.71.14.65.48.47.75-.06.37-.36,1.1-.66,1.1,2,.94,4.35.36,6.37-.85-.68.61-1.02,1.22-1.36,1.52,1.67.02,3.01.34,4.7-.87,0,.31-.68,1.22-1.02,1.22,1.67.63,3.68.35,5.36-.55,0,.31-.68.91-1.01,1.22,1.33.32,2.67.34,4.02-.57l-1.02,1.22c1.34.01,2.34.64,4.35.05,0,.31-.68.61-.68.91,1.01.01,2.34.03,3.35-.27,0,.31-1.01.91-.68.91,1.34.01,2.34.64,4.01.04-.34.3-.68.91-1.02,1.22,1.34.01,2.67.34,4.02-.26,0,.31-.34.92-.68,1.22,1.34.01,2.34.64,4.02.04,0,.31-.68.91-1.02,1.22,1.34.01,2.68.34,4.02.04,0,.31-.68.61-1.02.91,1.34.01,2.67.34,4.36-.26,0,.61-.34.92-.35,1.22,1,.01,1.68-.29,2.68-.28l1.67.63c4.62,6.2,16.86,18.62,16.86,18.62,10.28,8.41-12.98,23.22-13.37,29.05-.3,4.37,8.5,18.31,12.94,25.04-.41,9.31-1.52,18.58-1.76,27.91-.09,3.65-10.23,11.06-10.23,14.93l-8.52,12.84c-13.39,13.2-36.12,22.08-51.2,23.95-7.39.91-13.82,2.84-21.2-2.56-18.52-13.55-36.95-38.23-33.88-62.21Z"/>
      <path class="cls-14" d="M744.7,185.72c-.12.08-.25.16-.38.25.14-.18.28-.37.38-.55v.31Z"/>
      <path class="cls-14" d="M730.62,188.33c-.21.19-.44.37-.68.56v-.26s.68-.61.68-.3Z"/>
    </g>
    <g>
      <path class="cls-11" d="M746.27,292.44c2.15,1.15,5.48.96,7.7-.31.49-.28,2.11.03,1.42.43-2.93,1.67-7.7,1.73-10.48.25-.28-.15-.22-.35.13-.46.37-.11.94-.07,1.23.08"/>
      <path class="cls-11" d="M756.34,291.98c1.48-.64,3.12-.95,4.76-1.04.24-.01.55.08.72.24.14.12.16.28-.02.38-.76.4-1.73.56-2.61.52-.28-.01-.64-.09-.8-.32-.14-.22.13-.35.35-.34.73.03,1.48-.1,2.11-.43.24.2.47.41.7.61-1.46.08-2.94.38-4.26.95-.26.11-.64.03-.87-.11-.17-.1-.35-.34-.09-.46"/>
      <path class="cls-11" d="M762.84,292.32c1.92,0,4.18-.76,5.15-2.13,1.46-2.07.2-5.63-2.16-7.02-.26-.15-.12-.34.15-.39.35-.06.75.07,1.02.23,2.06,1.21,3.36,4.18,3.01,6.14-.33,1.84-2.19,3.08-4.49,3.57-.68.14-1.41.24-2.13.24-.29,0-.81-.09-.95-.32-.14-.23.13-.32.4-.32"/>
      <path class="cls-11" d="M742.78,291.43c.11-.21-.08-.35-.23-.35-.52,0-1.04-.15-1.48-.5-.17.2-.34.39-.52.59,1.03.13,2.07.48,2.98,1.1.18.12.45.05.62-.08.13-.1.26-.33.08-.45"/>
      <path class="cls-11" d="M744.22,291.73c-1.02-.69-2.18-1.07-3.33-1.21-.17-.02-.39.06-.52.21-.1.12-.12.28,0,.38"/>
      <path class="cls-11" d="M738.79,291.6c-1.25-.07-2.69-.91-3.28-2.31-.88-2.12.03-4.6,1.61-5.91.17-.14.09-.33-.08-.39-.22-.08-.49.04-.67.19-1.38,1.14-2.29,3.02-2.13,5,.15,1.85,1.32,3.16,2.8,3.72.44.17.91.28,1.38.31.19,0,.53-.07.63-.28.1-.22-.07-.32-.25-.33"/>
    </g>
    <path d="M836.32,276.64c2.27-4.67,4.8-9.4,8.24-13.34,1.28-1.47,2.84-3.03,4.57-3.69-.27.1.6-.25.25-.07.09-.05.35-.01.02-.02l-.4-.17c.69.88,1.1,2.04,1.39,3.11.84,3.06.57,6.28-.23,9.32-.16.63,1.31.44,1.46-.14.94-3.59,1.17-7.58-.3-11.08-.33-.79-.72-2.08-1.74-1.98-.94.09-1.86.61-2.64,1.12-1.77,1.16-3.24,2.77-4.55,4.42-3,3.79-5.34,8.08-7.45,12.41-.34.7,1.12.63,1.37.11h0Z"/>
    <path d="M716.11,232.17c8.3-.24,13.22,1.12,25.73,6.59l-.06.3c-.3,1.74-.13.77-.44,2.52-.23,1.33-.47,2.66-.7,3.98-4.07-1.85-6.92-3.59-9.59-4.53-5.06-1.8-10.7-4.47-16.13-4.79-.39-2.52.35-2.86,1.2-4.07Z"/>
    <path d="M768.27,242.5c.66,1.64.29.72.96,2.37.51,1.25,1.02,2.5,1.53,3.75,3.59-2.66,6.01-4.96,8.42-6.45,4.79-2.96,9.99-6.99,15.51-8.28,2.65-.62,6.47-1.43,9.15.1.72.41,2.48,2.21,3.28,1.37.33-.34-1.14-2.1-1.29-2.28-2.98-3.53-7.17-3.82-11.86-3.07-9.55,1.53-13.85,3.59-25.83,12.22"/>
    <path d="M725.42,251.69c-1.91-1.02-4.17-.18-5.45.92-.3.26-1.1,1-1.49,2.26-.49,1.61.13,3.45,1.13,4.58,1.34,1.5,3.59,1.78,5.34.99,2.36-1.07,3.16-3.89,2.6-5.96-.1-.38-.59-1.97-2.13-2.79"/>
    <path d="M742.73,258.34s-9.41-7.48-14.26-8.01c-7.07-.77-11.98,2.35-14.53,5.79,0,0,7.75-5.01,12.72-4.32,4.75.66,16.07,6.54,16.07,6.54Z"/>
    <path d="M780.63,253.01c1.93-.98,4.18-.09,5.42,1.04.29.26,1.08,1.02,1.44,2.29.46,1.62-.21,3.45-1.23,4.55-1.37,1.47-3.63,1.7-5.36.88-2.34-1.12-3.07-3.96-2.47-6.01.11-.38.63-1.96,2.2-2.75"/>
    <path d="M770.11,258.81s10.23-7.24,15.41-7.68c9.36-.8,17.99,4.58,20.63,8.08,0,0-13.4-7.15-18.73-6.57-5.09.55-17.31,6.17-17.31,6.17Z"/>
    <path d="M797.08,165.84c5.8-.97,12.06-1.7,17.32.89,5.57,2.77,6.82,10.23,11.71,14.3,28.38,23.64,14.93,43.63,26.44,65.57-2.46.88-4.83,2.12-7.08,3.77-4.36,3.22-8.78,9.56-11.31,14.1-7.77-1.41-8.45-6.67-11.97-15.13-3.26-7.81-1.22-20.37-7.61-25.74-8.48-7.07-24.62.8-33.14-6.26-4.96-4.08-8.79-14.86-13.64-18.48-4.85-3.63-7.77-3.38-13.69-2.32-5.93,1.06-11.96,2.86-17.92,2.03-5.96-.84-15.07-3.22-14.99-9.24,23.34-9.97,50.83-19.31,75.87-23.48Z"/>
    <path class="cls-21" d="M741.87,919.33l.5,2.52c2.86.96,14.21,1.59,17.14,2.28,11.53,2.72,39.82-.23,51.63.56,11.41.76,22.28.59,33.71.62,12.41.04,46.21-5.46,58.36-7.83-1.67-33.11-.34-60.87,3.69-77.66,21.64-90.1,5.49-150.72-21.53-188.57l-210.72,17.99-3.78,36.02c-6.83,28.83-5.92,118.26,1.93,206.86,1.61,5.15,17.28,9.03,21.37,9.09,15.39.23,30.11.33,45.4-1.6.21-.03,2.13-.32,2.29-.27"/>
    <path class="cls-15" d="M742.59,919.13c-1.34-16.18-1.51-32.46-1.94-48.68-.2-7.69-.4-15.39-.75-23.08-.32-7.17-2.67-14.59-6.1-20.87-3.95-7.23-10.14-13.06-18.27-15.09-.55-.14-1.71.67-.86.89,7.32,1.83,13.02,6.86,16.88,13.22,1.96,3.23,3.44,6.73,4.58,10.32,1.05,3.31,2.08,6.95,2.25,10.43.78,16.07.94,32.16,1.48,48.23.28,8.34.59,16.7,1.28,25.02.05.57,1.5.24,1.45-.39h0Z"/>
    <path class="cls-16" d="M677.31,435.08c.76-24.49,8.93-41.02,15.2-50.21,3.48-5.09,8.3-9.12,13.87-11.77,8.04-3.83,15.11-7.72,25.81-11.58,1.99-.72,19.81-5.74,19.62-5.29-5.48,12.73,6.15,24.2,20.27,25.83,5.07.58,10.05.8,14.79.71,16.19-.33,39.19-15.91,49-28.06l1.73-2.25,1.93,1.12,52,22.69-5.02,240.91-10.18-1.13c-26.53,9.94-53.2,19.6-80.69,26.52-32.14,8.09-65.88,12.63-98.84,7.13-7.54-1.26-9.98-3.09-17.24-5.43,1.85-8.01,5.35-38.11,5.28-46.58-.38-46.75,1.14-48.31-.45-50.24,0,0-5.82-4.42-8.85-19.12"/>
    <path class="cls-16" d="M684.85,597.69s-13.47,89.1-15.37,104.67c0,0,78.01,20.22,160.24,9.2,82.24-11.02,74.87-18.86,74.87-18.86l-16.66-79.93-2.1-35.1-190.86,12.28"/>
    <path class="cls-19" d="M682.02,433.63c1.16,2.44,1.84,5.17,2.35,7.81.75,3.96,1.23,8.38.39,12.36-1.11,5.31-3.2,10.46-4.86,15.61-5.17,16.02-9.5,33.02-7.8,49.98,1.03,10.27,4.57,20.11,11.08,28.18.22.28,1.6-.21,1.36-.5-11.91-14.77-12.9-34.4-9.8-52.4,1.39-8.07,3.56-15.97,6.03-23.77,1.72-5.43,3.8-10.8,5.18-16.33.96-3.87.72-8,.14-11.91-.48-3.18-1.24-6.5-2.62-9.42-.17-.36-1.57.13-1.45.39h0Z"/>
    <path class="cls-14" d="M942.86,506.29c-1.54.88-8.27-.84-9.83,0-4.33,2.32-6.3,6.41-11.02,7.74-4.35,1.23-9.41,5.96-13.89,6.55-13.21,1.74-19.4,9.71-32.69,9.06l21.7,74.69-1.34,12.88c-1.5,14.44-1.5,28.99.02,43.42l3.98,113.23,32.63,7.08c9.8-72.43,25.58-140.93,25.46-178.24-.03-9.35-10.52-69.07-15.01-96.42Z"/>
    <path class="cls-19" d="M837.14,352.55c-2.39,3.23-5.26,6.16-8.16,8.92-6.73,6.38-14.45,11.83-22.93,15.62-10.95,4.89-23.11,6.66-34.96,4.49-7.73-1.42-16.36-5.05-19.14-13.07-.57-1.64-.89-3.4-.83-5.14,0-.18.01-.37.03-.55.03-.28-.04.08.02-.14.39-1.67,1-3.31,1.5-4.95l.45-1.5c.15-.51-.4-.73-.83-.59-3.04.99-6.09,1.99-9.13,2.98-.78.25-1.27.4-1.68,1.14-.76,1.38-1.19,2.98-1.4,4.54-1.36,10.14,5.8,18.99,14.27,23.45,11.25,5.92,24.85,6.14,37.12,4.06,14.24-2.42,27.89-8.27,39.65-16.62,5.09-3.61,10.09-7.41,14.85-11.46,1.61-1.37,3.51-2.78,4.82-4.47.05-.06.1-.11.15-.17.23-.28.11-.57-.19-.71-4.2-2.04-8.39-4.08-12.59-6.12-.61-.29-1.66.58-.83.99,4.2,2.04,8.39,4.08,12.59,6.12l-.19-.71c-.8.96-1.78,1.81-2.7,2.64-3.55,3.19-7.33,6.13-11.13,9-6.01,4.53-12.16,8.75-18.93,12.09-6.25,3.09-12.83,5.5-19.6,7.15-12.16,2.95-25.71,3.74-37.61-.73-8.88-3.33-16.66-10.08-18.14-19.87-.38-2.5-.26-5.15.61-7.54.19-.53.63-1.11.75-1.65,0-.03.1-.13.09-.16.11.34-.97-1.08-.49.31,0,0,.4-.13.42-.14,3.22-.91,6.38-2.08,9.56-3.12l-.83-.59-1.41,4.66c-.22.72-.53,1.47-.64,2.22-.21,1.41.04,3,.36,4.37,1.71,7.36,8.32,11.88,15.17,14.02,11.73,3.68,24.86,2.76,36.35-1.33,9.48-3.37,18.14-8.82,25.69-15.43,2.66-2.32,5.19-4.79,7.57-7.4,1.16-1.27,2.41-2.57,3.38-3.99.05-.07.1-.13.15-.2.55-.74-.81-.98-1.22-.44Z"/>
    <path class="cls-11" d="M836.92,279.98c5.71-.2-1.05,11.01,3.09,10.85,1.13-.04,1.86-.85,2.38-1.76.98-1.72,1.49-3.74,1.92-5.66.54-2.38.76-4.36.41-6.75-.44-2.98-1.62-6.28-4.68-7.41-.34-.13-1.65.42-1.18.59,2.61.96,3.74,3.75,4.25,6.28.32,1.61.53,3.34.26,4.97-.35,2.13-.82,4.27-1.57,6.3-.25.69-.53,1.38-.9,2.01-.12.21-.49.55-.56.77l-.05.05c-.17.14-.03.14.42-.01,0,.04-.27-.18-.27-.19-.16-.37-.35-.59-.4-1.03-.06-.54,0-1.11.07-1.65.15-1.17.4-2.33.54-3.5.12-1.07.26-2.34-.29-3.32-.58-1.04-1.74-1.2-2.83-1.17-.42.01-1.57.66-.61.63h0Z"/>
    <path class="cls-28" d="M758.96,246.92c-2.14-.01-3.94-1.65-4.65-3.6-.89-2.42-.24-5.1.9-7.31.36-.69-1.11-.64-1.37-.12-1.26,2.44-1.99,5.49-.86,8.12.94,2.18,3.03,3.86,5.46,3.88.33,0,.79-.09.95-.43.14-.3-.13-.55-.43-.55h0Z"/>
    <path class="cls-1" d="M363.13,411.14c-4.29,26.48-5.7,53.37-6.88,80.14-.59,13.5-1.08,27-1.71,40.49-.3,6.32-.46,12.67-1.21,18.95-1.08,9.11-1.05,18.42-1.2,27.57-.01.76,1.46.55,1.47-.11.14-8.77.21-17.62,1.07-26.36.1-.98.24-1.95.38-2.92.12-.86.13-1.74.18-2.61.19-3.18.36-6.37.52-9.55,1.37-27.14,2-54.32,3.96-81.42,1.07-14.81,2.51-29.62,4.89-44.28.12-.73-1.36-.55-1.47.11h0Z"/>
    <path class="cls-22" d="M361.81,540.48l-138.46-3.79,3.77,61.44,126.63,21.06s59.95,7.75,67.23-29.4c4.49-22.89-7.63-69.19-12.82-81.2-7.2-16.67-19.14-94.88-42.27-138.59-5.74-10.86-20.36-24-31.37-28.67"/>
    <path class="cls-22" d="M91.7,332.69s-38.01,14.51-36.12,69.84c2.23,65.41,49.68,167.1,76.85,202.14,10.4,13.41,18.02,14.59,57.88,13.49,49.97-1.36,84.96-3.78,84.96-3.78l.3-60.15-87.1-14.54-53.54-154.89s-18.58-52.01-43.24-52.12Z"/>
    <path class="cls-29" d="M316.58,616.02c-5.67.71-11.35,1.34-17.04,1.95-13.43,1.44-26.87,2.7-40.34,3.73-16.05,1.23-32.13,2.17-48.22,2.4-3.74.05-7.47.06-11.21.02-4.29-.05-8.58.15-12.87.15-7.82,0-15.68-.45-23.39-1.83-10.94-1.95-21.62-5.9-30.13-13.22-7.34-6.3-12.5-14.58-16.66-23.22-3.86-8.01-7.07-16.33-10.38-24.57-2.49-6.19-4.97-12.38-7.46-18.57-3.96-9.86-7.93-19.73-11.89-29.59-2.64-6.58-5.29-13.17-7.93-19.75-.13-.33-.27-.67-.4-1-.2-.49-2.33.2-2.17.58,1.93,4.81,3.87,9.62,5.8,14.43,3.92,9.76,7.84,19.51,11.76,29.27,3.09,7.68,6.17,15.36,9.26,23.05,2.77,6.89,5.49,13.8,8.45,20.61,3.88,8.91,8.36,17.72,14.94,24.97,7.04,7.76,16.21,12.89,26.22,15.8,6.56,1.91,13.35,2.92,20.16,3.45,8.5.66,16.97.2,25.47.3,15.87.19,31.74-.54,47.57-1.57,14.71-.96,29.39-2.23,44.05-3.71,8.13-.82,16.25-1.7,24.35-2.69.38-.05.75-.09,1.13-.14.34-.04,1.3-.15,1.46-.51s-.13-.37-.51-.33h0Z"/>
    <path class="cls-29" d="M105.34,343.25c10.41.06,18.76,9,24.52,16.71,5.6,7.48,10.13,15.81,13.88,24.35.87,1.99,1.63,3.94,2.31,6,1.51,4.59,3.02,9.18,4.52,13.77,2.49,7.59,4.99,15.18,7.48,22.76,3.06,9.31,6.12,18.62,9.17,27.93,3.2,9.75,6.4,19.49,9.6,29.24,2.92,8.89,5.84,17.79,8.77,26.68,2.22,6.76,4.44,13.52,6.66,20.28,1.1,3.34,2.15,6.7,3.29,10.02.05.14.09.29.14.43.34,1.05,2.51.46,2.17-.58-.77-2.33-1.53-4.67-2.3-7-2.01-6.12-4.02-12.24-6.03-18.36-2.82-8.59-5.65-17.19-8.47-25.78-3.2-9.75-6.4-19.49-9.6-29.24s-6.3-19.17-9.44-28.75c-2.67-8.13-5.34-16.26-8.01-24.39l-5.21-15.87c-.59-1.79-1.13-3.6-1.86-5.34-3.16-7.63-7-15.05-11.51-21.98-5.58-8.57-12.96-17.96-23.01-21.4-2.24-.77-4.56-1.16-6.92-1.17-1.28,0-1.64,1.68-.17,1.69h0Z"/>
    <path class="cls-29" d="M352.53,390.08c-2.31,4.91-3.95,10.29-4.86,15.63-.61,3.59-.88,7.35-.21,10.95.3,1.58.73,3.13,1.16,4.68,3.19,11.45,6.83,22.75,9.52,34.34,3.23,13.94,5.82,28.65,4.23,42.99-.36,3.2-.95,6.39-1.91,9.47-1.11,3.57-2.91,6.8-4.48,10.19-1.67,3.59-3.22,7.27-4.26,11.1-.57,2.09-1.04,4.31-.89,6.49.16,2.36,1.36,4.32,3.82,4.68,1.76.26,3.65-.13,5.3-.73.17-.06.33-.12.49-.19.34-.14.58-.28.28-.51s-1.25.18-1.52.29c.17-.07.23-.08-.05.02-.1.03-.2.07-.31.1.22-.07.03,0-.22.06-.08.02-.15.04-.23.06-.17.04.26-.05-.02,0-.12.02-.69.12-.42.08-.53.07-.59.09-1.12.06-2.11-.1-3.45-1.7-3.77-3.82s.09-4.25.59-6.26c.88-3.55,2.26-6.97,3.75-10.3,1.56-3.5,3.5-6.84,4.76-10.46.97-2.8,1.63-5.71,2.07-8.65,2.05-13.76-.19-28.06-3.1-41.54-2.59-11.97-6.17-23.66-9.59-35.41-1.18-4.03-2.35-7.97-2.29-12.21.09-6.93,2.17-13.91,4.86-20.26.18-.42.36-.84.55-1.25.12-.26-1.89-.13-2.14.4h0Z"/>
    <path class="cls-29" d="M394.09,562.19c1.34-7.35-4.41-12.11-10.52-14.78-7.04-3.08-14.93-4.28-22.53-4.99-3.17-.3-6.34-.41-9.52-.52-2.96-.1-5.92-.25-8.88-.38-6.24-.27-12.47-.53-18.71-.8-8.17-.35-16.34-.7-24.51-1.04l-26.66-1.13c-8.23-.35-16.47-.7-24.7-1.05-6.37-.27-12.74-.54-19.1-.81-3.16-.13-6.32-.29-9.49-.4-.14,0-.28-.01-.41-.02-.44-.02-1.49.21-1.48.84.04,6.69.08,13.38.12,20.07.06,10.65.13,21.31.19,31.96.01,2.43.03,4.86.04,7.3,0,.29.16.54.46.6,6.55,1.36,13.1,2.71,19.65,4.07,13.31,2.76,26.63,5.52,39.94,8.27,10.9,2.26,21.8,4.52,32.69,6.77,5.58,1.16,11.16,2.04,16.81,2.79,8.11,1.08,16.25,1.94,24.41,2.43s16.43.77,24.49-.43c1.57-.23,3.14-.53,4.68-.94,1.33-.35.96-1.75-.37-1.39-7.28,1.94-15.17,1.79-22.63,1.53-8.46-.29-16.91-1.09-25.31-2.12-5.13-.63-10.26-1.34-15.36-2.17-.29-.05-.59-.1-.88-.15.55.09.03,0-.1-.02-.9-.19-1.8-.37-2.7-.56-9.99-2.07-19.98-4.14-29.96-6.21-13.5-2.8-26.99-5.59-40.49-8.39l-15.44-3.2-5.06-1.05c-.88-.18-1.83-.51-2.73-.56-.12,0-.24-.05-.35-.07l.46.6c-.04-6.69-.08-13.38-.12-20.07-.06-10.65-.13-21.31-.19-31.96-.01-2.43-.03-4.86-.04-7.3l-1.48.84c2.15.09,4.31.18,6.46.28,5.59.24,11.17.48,16.76.71l23.45,1c8.72.37,17.45.74,26.17,1.11,8.45.36,16.91.72,25.36,1.08l20.65.88,12.13.52c1.83.08,3.66.1,5.49.19,6.95.35,13.97,1.15,20.7,2.95,6.01,1.61,14.43,4.47,16.3,11.24.42,1.54.41,3.11.13,4.67-.19,1.02,2.03.73,2.19-.19h0Z"/>
    <path class="cls-14" d="M329.08,540.02l16.62-27.18,7.84-22.2,28.55-9.58s6.33,2.49,2.92,7c-3.41,4.51-20.14,9.21-20.14,9.21l-5.62,16.28,13.84-13.88,15.58-3.09,13.32,4.67s.88,6.74-5.56,5.26l-6.8-1.83-12.55,5.53-10.61,13.71,13.8-12.48,15.71-1.28,8.44,4.8s1.47,4.54-3.23,3.98-7.86-1.58-7.86-1.58l-9.58,2.81-11.46,13.48,15.67-7.13,17.19,2.48s1.7,4.6-3.03,5.11c-4.86.62-9.68,1.5-14.46,2.61l-12.36,8.81-46.26-5.49Z"/>
    <path class="cls-14" d="M134.38,544.33c2.44.52,18.11,5.06,17.35,6.86-2.47-.27-4.91-.72-7.32-1.35-4.48-.94-10.69-2.08-17.63-2.83-6.6-.72-12.48-1.04-17.08-1.16-.26.26-.5.54-.7.86-2.19,3.06.56,6.24,3.1,8.62,2.55,2.38,42.99,9.55,42.99,9.55l-12.86,1.59c-5.8-.78-11.65-1.11-17.5-.99-3.59.73-4.22,4.29-1.9,7.07,2.32,2.78,23.82.91,45.75,7.48,14.72,3.8,31.94,1.82,46.59-2.21l-2.29-42.32c-5.16-4.8-10.59-9.32-16.24-13.53-7.88-6.32-16.4-11.79-25.43-16.33-7.12-3.96-13.97-8.41-20.48-13.3-3.15,2.25-4.82,6.04-4.36,9.89.46,7.21,21.08,16.16,21.08,16.16l-28.32-5.6s-23.62.8-26.82,6.36c-3.2,5.56,4.17,6.67,4.17,6.67l19.22-.17,20.25,6.32-22.46-1.49s-18.38,2.26-19.83,2.57c-2.95.99-5.37,3.16-6.67,5.99-1.28,3.38,7.33,5.37,7.33,5.37l20.04-.1Z"/>
    <polygon class="cls-14" points="210.45 535.09 210.45 535.09 221.98 536.9 220.59 578.53 210.29 576.87 210.45 535.09"/>
    <path class="cls-23" d="M751.42,301.78c6.89,0,22.09,4.55,25.15,7.45,0,0-6.8,9.31-22.77,9.31-15.97,0-19.69-9.3-19.69-9.3,0,0,8.53-7.46,17.31-7.46Z"/>
    <path class="cls-18" d="M770.08,306.02s-8.75-.71-15.72-.71c-6.97,0-15.71.72-15.71.72,0,0-1.12-5.3,11.52-5.3,12.64,0,19.91,5.29,19.91,5.29Z"/>
    <path class="cls-12" d="M751.74,315.98c7.48-1.16,16.1-7.34,24.83-6.76,0,0-3.43,14.03-22.2,14.04-18.78,0-20.26-14.02-20.26-14.02,8.72-.59,10.15,5.59,17.63,6.74Z"/>
    <path class="cls-12" d="M743.25,297.74c3.94-.32,6.45,1.3,8.16,1.3,1.71,0,4.22-1.62,8.16-1.31,3.7.29,19.33,10.09,17.58,11.36-1.75,1.27-13.87-5.92-25.74-5.92-11.87,0-16.13,7.2-17.88,5.93-1.75-1.27,6.02-11.07,9.71-11.37Z"/>
    <path class="cls-16" d="M895.33,531.83c14.68-2.47,28.64-7.71,42-14.16,4.06-1.96,8.07-4.02,12.06-6.13-6.51-38.12-14.26-79.25-20.6-98.28-13.35-33.61-56.65-45.11-56.65-45.11l-5.27,118.91,8.59,46.44c6.65-.04,13.3-.57,19.87-1.67Z"/>
    <path class="cls-19" d="M881.5,401.02c-7.65,1.97-12.76,8.28-15.92,15.2-1.72,3.76-2.91,7.71-3.87,11.73-1.24,5.23-2.25,10.52-2.97,15.85-1.25,9.32-1.53,18.74-.87,28.11.66,9.27,2.22,18.45,4.16,27.53,2.45,11.46,5.42,22.81,8.19,34.2.04.18.29.26.45.26h10.41c.6,0,1.52-.9.54-.9h-10.41l.45.26c-4.52-18.63-9.84-37.26-11.87-56.37-.97-9.1-1.1-18.27-.26-27.39.46-4.99,1.19-9.95,2.14-14.87.88-4.53,1.86-9.08,3.34-13.46,2.76-8.17,7.74-17.03,16.7-19.33.88-.23.66-1.05-.22-.82h0Z"/>
  </g>
  <g id="Layer_2" data-name="Layer 2">
    <path class="cls-14" d="M874.76,853.97c5.47-6.54,12.67-15.46,12.61-16.97-.06-1.51,1.08-11.61,2.11-20.43.72-4.48-2.08-8.78-6.26-9.62-1.09-.22-9.44,19.51-17.7,14.99l3.71-18.17c1.99-5.69,4.66-11.07,7.93-16.01,7.11-18.43,23.91-24.98,23.91-24.98l.96,10.35,29.96-1.4,2.86,31.51s-6.21,42.73-10.39,47.13c-4.18,4.4-16.85,7.6-16.85,7.6-4.54,6.74-15.21,5.15-15.21,5.15-10.91,8.42-11.24-.81-11.24-.81-.3.38-.7.66-1.15.8-4.85,1.63-8.53-5.26-5.24-9.14Z"/>
    <path class="cls-28" d="M901.66,828.07c.18,7.19-1.19,15-5.37,20.98-1.85,2.65-4.07,5.03-6.6,7.03-2.76,2.18-5.83,4.27-9.14,5.46-.96.34-.08.76.56.53,3.32-1.19,6.3-3.21,9.11-5.31,2.76-2.07,5.19-4.58,7.19-7.38,4.43-6.2,5.9-14.19,5.71-21.7-.01-.41-1.46-.14-1.45.39h0Z"/>
    <path class="cls-28" d="M911.15,831.39c-.07,4.33-.41,8.93-1.94,13.02-1.43,3.83-4.17,6.87-7.13,9.62-1.28,1.19-2.56,2.38-3.84,3.57-1.98,1.84-3.83,3.75-6.18,5.14-.84.5-.08,1.32.65.89,3.95-2.32,7.17-5.97,10.52-9.07,3.07-2.84,5.89-6,7.37-9.96,1.57-4.19,1.95-8.87,2.02-13.31.01-.77-1.46-.58-1.47.1h0Z"/>
    <path class="cls-28" d="M921.16,833.06c.81.23-1.54,9.53-1.68,10.21-.34,1.6-.53,3.31-1.1,4.84s-1.76,2.89-2.91,4.09-2.4,2.39-3.77,3.39c-.71.52-1.45,1.02-2.23,1.44-.29.16-.6.32-.91.45l-.34.14c-.27.06-.3.09-.08.09-.24-.28-1.6.22-1.36.5.39.45,1.81-.17,2.19-.33,1.57-.62,3.02-1.58,4.35-2.61,3-2.32,6.14-5.31,6.93-9.13.7-3.41,1.49-6.8,2.1-10.23.1-.54.85-3.17-.01-3.43-.34-.1-1.62.45-1.19.58h0Z"/>
    <path class="cls-14" d="M1010.17,572.17c1.77-12.24,2.28-40.12,3-70.21,3.99,1.38.09,2.52,4.33,3.14,14.38,2.11,29.09.31,43.59-.17-.97,6.21-2.22,11.87-3.85,16.7-14.88,44.17-20,241.2-20,241.2l-31.59-2.61,3.18-90.61c0-23.09-3.82-65.04,1.33-97.44Z"/>
    <path class="cls-14" d="M1037.89,770.5c-.07.49-.02.99.17,1.45,1.62,3.91,9.93,20.27,9.94,35.72,0,13.91.03,34.11.04,41.11,0,1.66-1.46,2.96-3.1,2.7-2.27-.36-5.24-2-6.94-7.55-1.56-6.09-2.57-12.3-3.04-18.56-.16-2.2-2.69-3.33-4.42-1.95h0c-.69.55-1.07,1.39-1.03,2.27l.95,19.47c.05,1.05.7,1.98,1.68,2.39,3.59,1.5,12.21,5.63,14.6,11.71.72,1.82-.78,3.77-2.73,3.65l-12.46-.73c-.17,0-.33-.04-.5-.08l-12.25-3.03c-.48-.12-.93-.37-1.28-.72l-10.94-10.99c-.34-.34-.59-.77-.71-1.24l-8.89-34.37c-.81-3.12-.84-6.41-.03-9.53,2.34-8.94,4.2-18,5.58-27.14,2.26-17.9,3.53-29.45,4.09-34.78.19-1.76,1.97-2.87,3.64-2.27l28.71,10.38c1.22.44,1.96,1.69,1.77,2.97l-2.88,19.13Z"/>
    <path class="cls-20" d="M1043.09,381.96c-12.8,11.99-11.49,14.35-22.42,37.79-5.5,11.8-4.39,10.94-10.97,33.62-.9,3.1-9.7,41.76-9.71,42.36-.01.48.62,2.77,1.85,6.03,2,2.78,4.03,5.55,6.11,8.28,6.91,9.04,10.86,7.99,20.46,14.25,5.19,3.38,5.56,15.61,11.38,17.13,4.34-5.77,8.27-11.85,11.78-18.17,7.03-12.65,12.37-26.17,16.42-40.05,4.13-14.16,6.95-28.68,8.87-43.29,1.94-14.72,3-29.55,3.58-44.38.48-12.3,4.03-19.04,4.06-31.35-11.65,5.34-31.03,8.05-41.42,17.79Z"/>
    <path class="cls-20" d="M1068.25,931.83c16.6-3.24,32.03-1.63,48.88,2.39,9.27,2.21,24.51,4.3,35.5,6.27,9.32,1.68,20.42-1.54,29.86-1.46,10.24.09,23.25-.3,33.31-2.19,10.35-1.94,12.16-3.66,22.62-4.94,8.63-1.05,25.23-.72,33.82,0-1.5-35.06-17.01-73.87-12.47-91.56,23.06-89.75,2.87-150.46-23.55-188.73l-210.39,29.23-11.27,181.33c.37,12.45-2.88,41.06-2.33,68.38,12.24,5.42,42.36,3.94,56.02,1.28Z"/>
    <path class="cls-20" d="M1026.58,436.93c.76-24.49,8.93-41.02,15.2-50.21,3.48-5.09,8.3-9.12,13.87-11.77,8.04-3.83,15.11-7.72,25.81-11.58,1.99-.72,19.81-5.74,19.62-5.29-5.48,12.73,6.15,24.2,20.27,25.83,5.07.58,10.05.8,14.79.71,16.19-.33,39.19-15.91,49-28.06l1.73-2.25,1.93,1.12,52,22.69-7.38,232.18-7.83,7.6c-26.53,9.94-53.2,19.6-80.69,26.52-32.14,8.09-65.88,12.63-98.84,7.13-7.54-1.26.23.63-7.03-1.71,1.85-8.01-4.86-41.83-4.93-50.29-.38-46.75,1.14-48.31-.45-50.24,0,0-8.55-13.59-11.58-28.3"/>
    <path class="cls-20" d="M1036.16,616.85s-10.33,40.05-10.33,63.98c0,0,70.92,43.59,153.16,32.57,82.24-11.02,74.87-18.86,74.87-18.86l-18.27-77.69-9.46-36.77-181.9,11.71"/>
    <g>
      <path class="cls-20" d="M1032.01,435.29s3.75,7.87,2.99,18.55c-.76,10.68-28.21,62.92-1.88,95.34"/>
      <path class="cls-27" d="M1031.29,435.48c1.16,2.44,1.84,5.17,2.35,7.81.75,3.96,1.23,8.38.39,12.36-1.11,5.31-3.2,10.46-4.86,15.61-5.17,16.02-9.5,33.02-7.8,49.98,1.03,10.27,4.57,20.11,11.08,28.18.22.28,1.6-.21,1.36-.5-11.91-14.77-12.9-34.4-9.8-52.4,1.39-8.07,3.56-15.97,6.03-23.77,1.72-5.43,3.8-10.8,5.18-16.33.96-3.87.72-8,.14-11.91-.48-3.18-1.24-6.5-2.62-9.42-.17-.36-1.57.13-1.45.39h0Z"/>
    </g>
    <path class="cls-14" d="M1294.22,534.04c-1.54.88-6.28-39.32-7.84-38.49-4.33,2.32-10.34-3.53-15.06-2.19-4.35,1.23-12.81,5.57-17.29,6.16-13.21,1.74-22.21,8.13-35.5,7.48l27.87,115.14-1.34,12.88c-1.5,14.44-1.5,28.99.02,43.42l3.98,103.23,32.63,7.08c9.8-72.43,25.58-130.93,25.46-168.24-.03-9.35-8.43-59.11-12.92-86.47Z"/>
    <path class="cls-20" d="M1244.6,512.74c14.68-2.47,28.64-7.71,42-14.16,4.06-1.96,8.07-4.02,12.06-6.13-6.51-38.12-14.26-58.32-20.6-77.35-13.35-33.61-56.65-45.11-56.65-45.11l-5.27,118.91,1.62,25.51c6.65-.04,20.28-.57,26.85-1.67Z"/>
    <g>
      <path class="cls-20" d="M1230.87,403.28c-10.74,2.66-18.7,14.39-20.87,25.24-5.34,26.63-.12,63.72,5.23,85.86h10.41"/>
      <path class="cls-27" d="M1230.77,402.87c-7.24,1.86-12.94,7.29-16.72,13.56-4.05,6.72-5.44,14.27-6.24,21.97-1.77,16.98-.49,34.31,1.94,51.16,1.21,8.4,2.77,16.76,4.75,25.01.04.18.29.26.45.26h10.41c.6,0,1.52-.9.54-.9h-10.41l.45.26c-3.6-14.93-5.92-30.24-6.95-45.56-.57-8.43-.72-16.9-.16-25.33.5-7.56,1.24-15.55,4.36-22.55,3.38-7.59,9.44-14.91,17.78-17.05.88-.23.66-1.05-.22-.82h0Z"/>
    </g>
    <path class="cls-14" d="M1225.03,862.77c5.47-6.54,12.67-15.46,12.61-16.97-.06-1.51,1.08-11.61,2.11-20.43.72-4.48-2.08-8.78-6.26-9.62-1.09-.22-9.44,19.51-17.7,14.99l3.71-18.17c1.99-5.69,4.66-11.07,7.93-16.01,7.11-18.43,23.91-24.98,23.91-24.98l.96,10.35,29.96-1.4,2.86,31.51s-6.21,42.73-10.39,47.13c-4.18,4.4-16.85,7.6-16.85,7.6-4.54,6.74-15.21,5.15-15.21,5.15-10.91,8.42-11.24-.81-11.24-.81-.3.38-.7.66-1.15.8-4.85,1.63-8.53-5.26-5.24-9.14Z"/>
    <path class="cls-28" d="M1251.92,836.87c.18,7.1-1.12,14.82-5.18,20.78-1.83,2.68-4.03,5.11-6.56,7.15-1.25,1.01-2.63,1.83-3.92,2.78-1.67,1.22-3.47,2.19-5.42,2.89-.97.35-.05.45.48.26,3.26-1.16,6.12-3.08,8.9-5.11s5.21-4.49,7.24-7.25c4.56-6.22,6.1-14.29,5.91-21.89,0-.19-1.46.02-1.45.39h0Z"/>
    <path class="cls-28" d="M1261.43,840.33c-.07,4.35-.44,8.97-1.98,13.07-1.44,3.86-4.21,6.92-7.19,9.68-3.18,2.95-6.31,6.52-10.05,8.72-.84.49.45.6.88.35,3.93-2.31,7.15-5.97,10.5-9.06,3.05-2.82,5.84-5.96,7.31-9.89,1.56-4.17,1.91-8.84,1.99-13.25,0-.37-1.44-.13-1.45.39h0Z"/>
    <path class="cls-28" d="M1271.59,842.04c-.31-.09-.04-.14-.09.16-.03.18,0,.39-.02.57-.05.71-.18,1.42-.31,2.12-.45,2.52-1.01,5.03-1.54,7.53-.35,1.67-.53,3.52-1.31,5.05-.74,1.47-2.01,2.75-3.16,3.91s-2.45,2.29-3.85,3.24c-.67.46-1.37.88-2.11,1.23-.24.12-.59.2-.81.34-.39.24-.39-.2,0,.24-.41-.47-1.79.09-1.33.62.51.59,1.68.06,2.24-.17,1.65-.67,3.16-1.71,4.55-2.82,1.64-1.31,3.13-2.82,4.46-4.44,1.23-1.51,1.89-2.98,2.28-4.87.71-3.41,1.5-6.8,2.09-10.23.12-.68.84-3.12-.24-3.43-.59-.17-1.71.69-.85.94h0Z"/>
    <path class="cls-14" d="M1179.12,291.87s-10.29,41.29-.21,57.75c1.35,2.2,6.14,4.54,6.64,6.62,0,0-15.8,33.05-55.81,35.64-40.01,2.59-34.55-26.9-34.55-26.9,1.34-1.06,2.54.58,3.88-.48.37-.29.75-.59.97-1,.34-.61.27-1.34.2-2.03-2.16-19.19-4.85-38.3-7.66-57.41"/>
    <path class="cls-28" d="M1152.1,327.9s-5.45,17.67-39.11,26.46c0,0-7.29,3.08-13.18,1.57l-1.12-6.9,53.42-21.13Z"/>
    <path class="cls-3" d="M1055.42,295.78c10-8.34,11.01-22.06,8.8-34.06-2.12-11.48,5.31-29.9-8.86-28.25-.27.03,4.35-10.3.23-9.12,2.08-6.59-7.26-5.27-9.11-12.38-.37-1.43-3.4-14.11,5.71-15.67,29.61-48.62,74.71-42.18,99.84-40.67,49.3,2.96,73.25,4.03,67.19,82.17-4.07,52.46-51.69,70.28-101.04,72.42-21.08.91-46.01,3.58-63.18-14.12.14-.11.28-.21.42-.33Z"/>
    <path class="cls-3" d="M1146.06,122.45c-11.47,6.52-16.21,17.79-15.95,30.58,2.65,2.04,8.16,4.12,10.82,6.14.41-.87.84-1.72,1.29-2.56,2.91,2.2,10.26,3.9,13.21,6.05.74-.52,3.08-1.73,5.87-3.11.9.67,1.8,1.34,2.7,2.01-2.15.75-3.86,1.6-4.92,2.55,3.35,2.49,11.56,3.48,14.78,6.13,6.98,5.74,14.9,13.53,22.11,18.97,2.25,1.37,4.05,2.74,5.53,4.02l-4.58,4.63,7.39,5.24c-.66,1.9-1.05,2.99-1.05,2.99l6.07,4.4s3.47-3.68,8.38-9.21c20.28,6.3,27.44-10.49,25.29-17.89-.95-3.27-2.79-5.63-4.61-7.3,7.1-9.67,12.32-18.62,10.87-22.53-2.92-7.87-17.01-25.05-23.83-33.1-1.38-2.62-2.91-5.18-4.58-7.51l-.09-.16s-.02,0-.03,0c-1.87-2.58-3.9-4.86-6.1-6.52-5.68-4.28-16.62-1.75-25.43,1.45-10.12-7.81-16.86-9.84-22.57-10.05-7.99-.3-20.41,10.86-21.63,13.71-.6,1.39.14,6.36,1.04,11.07ZM1226.12,191.55c3.1-3.68,6.3-7.61,9.31-11.52.16,1.85.06,3.95-.56,6.21-1.03,3.8-5.03,5.03-8.75,5.31ZM1165.95,107.16c.81.54,3.55,4.05,6.28,7.71-6.48.94-11.87,2.58-14.71,3.24-.31.07-.61.15-.91.23-1.55-2.32-3.4-5.49-3.63-7.64-.41-3.76,8.8-6.31,12.97-3.54Z"/>
    <path class="cls-14" d="M1077.91,191.57c-.09.19-.22.39-.35.57.12-.09.25-.18.36-.26v-.31ZM1063.43,195.56v.25c.24-.2.46-.39.65-.59-.01-.3-.65.33-.65.33ZM1175.31,305.54l1.59-5.13c3.51,9.43,16.25,2.71,16.81-10.31,9.05-11.86,9.84-29.1,4.45-35.78l-.65-.98c-3.79-2.89-10.5-4.13-13.28.88-.91,2.18-2.32,4.65-3.23,6.83-.89,2.49-2.15,7.47-3.72,9.67,0,0,6.17-23.54,6.25-29.35.08-5.81-.74-20.12-11.41-27.91,0,0-12.82-11.67-17.74-17.58l-1.69-.54c-1,.04-1.65.38-2.65.42-.01-.3.31-.62.28-1.23-1.64.68-2.98.43-4.31.49.32-.32.97-.65.96-.96-1.32.36-2.66.12-3.99.17.32-.32.96-.96.95-1.26-1.64.68-2.66.12-3.99.17.32-.32.63-.95.61-1.25-1.3.67-2.65.42-3.98.48.32-.32.63-.94.94-1.26-1.63.68-2.66.12-3.99.17-.33.01.64-.64.62-.94-.98.35-2.31.41-3.31.45-.01-.31.64-.64.63-.94-1.97.7-2.99.13-4.32.19l.94-1.26c-1.29.97-2.62,1.03-3.96.78.32-.32.95-.96.94-1.26-1.62.99-3.6,1.38-5.29.84.33-.01.96-.96.94-1.26-1.61,1.29-2.95,1.05-4.61,1.12.32-.32.63-.94,1.26-1.58-1.94,1.31-4.24,2.02-6.28,1.19.33-.01.63-.94.61-1.25-1.28,1.28,1.15-.36-.52-.59,0,0-3.77,1.39-3.79,1.08-1.29.97,3.28-5.33,1.62-5.26.31-.63-9.52.98-8.88.34-1.61,1.29-1.3.65-3.31.43,0,0-6.75,3.95-6.43,3.63-1.59,1.6-2.4.35-4.41.13.32-.32,1.25,1.23,1.57.91-1.28,1.28-.91-.27-2.57-.19-.01-.3-5.52-1.75-5.54-2.05-1.62.99-1.07,1.1-3.07,1.18-.01-.31-1.1,3.42-.78,3.1-1.28,1.28-1.26.27-2.94.04l-1.6,1.21c-1.6,1.6.66.83-1.35.61,0-.21,7.55.63,7.83.22-1.22.88-2.7,1.73-4.2,2.07-.01-.31.3-.93.28-1.24-1.28,1.28-3.23,2.28-5.24,2.06.33-.01.64-.64.63-.94-1.6,1.6-3.55,2.6-5.59,1.77v-.05c-1.24,1.07-2.88,2.06-4.56,2.39-.04-.92.61-1.25.61-1.25l-1.33.06c-1.56,2.51,6.04.81,5.51,3.89,0,0-5.06,9.21-9.7,27.51-3.81,15.02-2.88,38.55-2.33,43.42.47,4.22-1.77,12.53-2.09,16.95-1.76,23.97,17.87,47.47,36.99,59.93,7.62,4.96,13.9,2.7,21.19,1.39,14.87-2.67,36.96-12.71,49.54-26.54"/>
    <g>
      <path class="cls-11" d="M1085.24,297.75c2.2,1.02,5.49.66,7.63-.72.47-.3,2.09-.08,1.43.35-2.82,1.82-7.55,2.13-10.39.82-.28-.13-.24-.34.1-.46.36-.13.93-.12,1.23.02"/>
      <path class="cls-11" d="M1095.21,296.75c1.43-.71,3.05-1.12,4.67-1.29.24-.02.55.05.73.2.14.11.18.27,0,.38-.74.44-1.69.65-2.57.66-.28,0-.64-.05-.81-.27-.15-.21.11-.35.33-.36.73-.01,1.46-.17,2.07-.54.24.19.49.38.73.57-1.45.16-2.9.53-4.17,1.17-.25.13-.63.06-.87-.06-.18-.09-.37-.32-.11-.45"/>
      <path class="cls-11" d="M1101.68,296.73c1.9-.11,4.11-.98,5-2.4,1.34-2.13-.11-5.6-2.53-6.85-.26-.14-.13-.33.13-.39.34-.08.75.03,1.02.17,2.11,1.09,3.56,3.97,3.32,5.94-.23,1.84-2.01,3.18-4.26,3.79-.67.18-1.39.31-2.1.35-.29.02-.81-.05-.96-.26-.15-.22.11-.32.38-.34"/>
      <path class="cls-11" d="M1081.72,296.93c.09-.22-.1-.35-.25-.34-.51.03-1.04-.09-1.49-.42-.16.2-.32.41-.48.61,1.03.07,2.08.37,3.02.93.19.11.45.03.61-.11.12-.1.24-.34.05-.45"/>
      <path class="cls-11" d="M1083.17,297.15c-1.05-.63-2.22-.94-3.38-1.02-.17-.01-.38.08-.5.24-.09.12-.11.28.02.37"/>
      <path class="cls-11" d="M1077.77,297.31c-1.24,0-2.72-.76-3.38-2.12-.99-2.06-.22-4.57,1.28-5.95.16-.15.07-.34-.11-.38-.22-.06-.48.07-.65.23-1.31,1.21-2.11,3.13-1.84,5.08.25,1.82,1.48,3.06,2.98,3.54.45.14.92.23,1.38.24.19,0,.52-.09.61-.32.09-.22-.09-.31-.27-.31"/>
    </g>
    <path class="cls-11" d="M1181.4,275.61c1.64-3.9,3.44-7.79,5.75-11.36,1.07-1.66,2.28-3.35,3.84-4.59.23-.18.35-.27.6-.42.31-.19.22-.14.47-.24s-.09,0,.22-.07c.17-.04-.21.04-.01,0,.16-.03.04.02-.03,0,.23.06-.34-.29-.11-.01.44.54,1.02.96,1.46,1.51,2.42,3.04,3.02,6.96,2.26,10.71-.11.52,1.35.29,1.45-.19.74-3.62.25-7.34-1.87-10.42-.52-.75-1.12-1.47-1.83-2.07-.23-.19-.4-.31-.71-.33-.8-.04-1.64.36-2.3.77-1.6,1.01-2.84,2.55-3.93,4.07-2.8,3.92-4.84,8.4-6.71,12.83-.18.43,1.25.27,1.45-.19h0Z"/>
    <path d="M1049.43,243.91c5.64-6.03,10.04-8.55,22.66-13.55l.17.25c1.02,1.43.45.63,1.47,2.07.78,1.1,1.55,2.19,2.32,3.29-4.15,1.58-7.38,2.37-9.92,3.6-4.81,2.32-10.64,4.42-14.67,8.04-2.06-1.49-1.78-2.25-2.03-3.69Z"/>
    <path d="M1106.27,229.47c-.7,1.61-.31.71-1.01,2.33-.53,1.23-1.06,2.47-1.58,3.7,5.06.99,8.85,1.31,12.02,2.17,6.29,1.71,13.75,3.02,19.38,6.42,2.7,1.63,6.53,4.04,7.62,7.13.29.83.4,3.4,1.72,3.46.54.02.65-2.29.66-2.53.2-4.68-3.11-8.11-7.62-11.22-9.2-6.35-14.4-8.29-31.08-11.75"/>
    <path d="M1062.34,258.41c-1.95-.91-4.15.05-5.36,1.21-.28.27-1.04,1.05-1.36,2.32-.4,1.63.32,3.42,1.37,4.48,1.41,1.42,3.66,1.58,5.35.7,2.29-1.19,2.93-4.03,2.26-6.05-.12-.37-.69-1.92-2.27-2.66"/>
    <path d="M1079.88,264.09s-9.75-6.92-14.59-7.18c-7.07-.39-11.77,2.98-14.11,6.54,0,0,7.42-5.39,12.39-4.98s16.31,5.63,16.31,5.63Z"/>
    <path d="M1117.22,256.74c1.87-1.07,4.14-.31,5.44.74.31.25,1.13.96,1.55,2.2.54,1.59-.02,3.43-.98,4.58-1.28,1.54-3.51,1.89-5.27,1.16-2.38-.99-3.26-3.77-2.77-5.84.09-.38.52-1.98,2.03-2.84"/>
    <path d="M1107.09,263.06s9.76-7.74,14.89-8.46c9.25-1.3,18.1,3.58,20.92,6.91,0,0-13.69-6.37-18.95-5.51-5.02.82-16.85,7.06-16.85,7.06Z"/>
    <path class="cls-4" d="M1062.83,199.44c-.92,8.45-12.64,1.85-6.48-.47-.94-4.03,4.74-5.95,4.39-10.08.27.35.44.63.44.63,0,0-.07-4.98,1.55-6.26,1.61-1.27,8.92-5.37,8.92-5.37l2.34,1.61c-.06-.12-.93-1.71.19-2.75,1.13-1.05,13.5-8.22,21.6-8.07.27,0,.54.01.8.04l3.44,1.6.12.06s-.08-.04-.13-.07c-.61-.32-1.92-1.13-1.3-1.87.22-.26.67-.51,1.47-.73,1.18-.32,2.95-.55,4.88-.7,0,0,0-.02,0-.03.18,0,.37,0,.55-.01.18-.01.36-.03.55-.04,0,0,0,.02,0,.03,1.94-.02,3.72.05,4.92.27.82.15,1.29.36,1.53.6.69.68-.55,1.6-1.13,1.98-.04.03-.09.06-.12.08l.12-.07,3.29-1.89c.26-.05.52-.08.8-.11,8.06-.86,21,5.22,22.22,6.16,1.21.94.48,2.6.42,2.73l2.19-1.81s9.86,3.36,11.57,4.48c1.72,1.13,2.6,3.96,2.6,3.96,0,0,3,.95,4.05.56,1.04-.39,6.67,2.23,9.08,5.4,1.54,2.03,1.11,4.02,1.91,5.83h0c.45,1.02.71,1.69.71,1.69l5.77,1.65c4.66,1.99,3.92,11.44,3.92,11.44,9.44,10.62,10.3,19.97,6.71,30.24-1.38,3.96,9.89,7.4,2.77,7.56-7.22.16-12.18,23.01-12.18,23.01,0,0-6.5-8.53-6.98-12.61-.48-4.08,1-16.29,1-16.29l-3.49-.34s-2.15-.77-4.9-5.29c-2.75-4.53,1.56-12.98,1.56-12.98l1.15-5.04-6.76.76c-6.6-.84-7.28-7.93-7.28-7.93l.62-11.87-3.76,4.14s-1.43,1.94-3.71,1.86c-10.19-.33-11.66-6.6-11.66-6.6l-1.62-5.9-2.5,1.83c-2.63,2.35-10.81,6.16-15.13,4.52-1.13-.43-5.98-3.85-6.76-4.32-2.82-1.87-3.38-5.63-3.49-7.03.38-.4.74-.9,1.1-1.33,1.38-1.64,2.11-1.01.72.64-2.38,2.83-6.45,6.84-10.18,7.17-3.6.31-11.42-.85-12.46-2.48-.69-1.09.45-1.28-.87-1.16-1.15.1-2.1.97-2.8,1.84-1.64,2.06-2.67,5-5.04,6.35-3.44,1.95-5.65.11-9.22-.49-.79-.13-1.87.32-1.97,1.26Z"/>
    <path class="cls-2" d="M1054.12,193.26s-2.76-7.54,1.47-12.12c4.23-4.59,20.43-22.98,49.62-24.29l-51.09,36.41Z"/>
    <path class="cls-6" d="M1195.06,105.84s-12.1-17.98-27.21-14.13c-15.11,3.85-4.32,28.47-4.32,28.47"/>
    <g>
      <path class="cls-20" d="M1183.03,350.63s-20.97,37.81-58.37,33.98c-27.42-2.81-24.95-20.02-24.95-20.02v-6.58s-9.98,3.26-9.98,3.26c0,0-2.18,5.93,2.3,15.85,4.47,9.92,18.69,19.09,42.7,16.83,14.09-1.33,26.88-6.8,42.16-17.91,15.27-11.11,18.74-19.29,18.74-19.29l-12.59-6.12Z"/>
      <path class="cls-27" d="M1182.33,350.55c-1.89,3.41-4.31,6.58-6.78,9.58-5.61,6.81-12.3,12.87-20,17.25-9.92,5.64-21.17,7.99-32.5,6.48-8.33-1.11-18.24-4.33-21.61-12.89-1.44-3.64-1-7.55-1-11.38,0-.54,0-1.09,0-1.63,0-.44-.52-.56-.87-.45-3,.98-5.99,1.96-8.99,2.93-.77.25-1.43.34-1.68,1.17-.41,1.36-.47,2.88-.43,4.29.12,5.18,1.85,10.67,4.83,14.92,2.51,3.58,6.01,6.42,9.83,8.51,10.92,5.98,24.45,6.52,36.5,4.49,13.86-2.33,26.28-9.15,37.54-17.32,5.2-3.77,10.19-7.97,14.4-12.85,1.67-1.94,3.58-4.14,4.61-6.52.05-.11.1-.21.15-.31.12-.27-.04-.46-.28-.58-4.2-2.04-8.39-4.08-12.59-6.12-.61-.29-1.66.58-.83.99,4.2,2.04,8.39,4.08,12.59,6.12l-.28-.58c-.49,1.14-1.23,2.21-1.94,3.22-2.27,3.2-5,6.08-7.88,8.73-4.63,4.26-9.74,8-15,11.43s-10.49,6.32-16.15,8.63c-10.51,4.29-22.18,5.98-33.47,4.68-8.6-.99-17.58-4.01-23.65-10.46-3.27-3.47-5.25-7.82-6.29-12.45-.62-2.77-1.09-6.41-.12-9.09l-.56.42c3.33-1.09,6.66-2.17,9.98-3.26l-.87-.45c0,2.29.09,4.59-.03,6.87-.09,1.68.1,3.36.56,4.98,2.29,8.05,10.25,12.27,17.88,14.07,11.66,2.76,23.92,1.45,34.76-3.63,8.61-4.04,16.15-10.18,22.46-17.25,2.23-2.5,4.32-5.14,6.24-7.89.94-1.34,2.09-2.78,2.76-4.28.03-.07.08-.14.12-.21.4-.71-1.07-.74-1.39-.17Z"/>
    </g>
    <path class="cls-23" d="M1091.22,307.27c6.89,0,22.09,4.55,25.15,7.45,0,0-6.8,9.31-22.77,9.31-15.97,0-19.69-9.3-19.69-9.3,0,0,8.53-7.46,17.31-7.46Z"/>
    <path class="cls-18" d="M1109.88,311.51s-8.75-.71-15.72-.71c-6.97,0-15.71.72-15.71.72,0,0-1.12-5.3,11.52-5.3,12.64,0,19.91,5.29,19.91,5.29Z"/>
    <path class="cls-12" d="M1091.55,321.48c7.48-1.16,16.1-7.34,24.83-6.76,0,0-3.43,14.03-22.2,14.04-18.78,0-20.26-14.02-20.26-14.02,8.72-.59,10.15,5.59,17.63,6.74Z"/>
    <path class="cls-12" d="M1083.05,303.23c3.94-.32,6.45,1.3,8.16,1.3,1.71,0,4.22-1.62,8.16-1.31,3.7.29,19.33,10.09,17.58,11.36-1.75,1.27-13.87-5.92-25.74-5.92-11.87,0-16.13,7.2-17.88,5.93-1.75-1.27,6.02-11.07,9.71-11.37Z"/>
    <path class="cls-27" d="M1235.27,616.43c-14.67,5.64-29.59,10.65-44.78,14.69-14.76,3.93-29.78,6.94-44.98,8.56-14.72,1.57-29.62,1.83-44.35.22s-28.75-4.99-42.25-10.48c-6.9-2.81-13.58-6.15-19.96-9.99-.78-.47-1.56-.95-2.33-1.43-.48-.3-.61-.09-.72-.45-.19-.59,0-1.54-.01-2.15l-.04-6.1c0-.44,0-.87,0-1.31l-1.29.47c7.35,3.77,15.1,6.87,22.85,9.7,16.52,6.04,33.78,10.61,51.34,12.24,17.6,1.64,35.34-.56,52.71-3.38,15.85-2.57,31.57-5.92,47.17-9.71,5.54-1.35,11.07-2.76,16.58-4.23,1.75-.47,3.51-.95,5.26-1.43.9-.25,1.91-.41,2.77-.78.11-.05.23-.07.35-.1l-.86-.3c.72,2.19,1.44,4.38,2.16,6.56.22.66,1.66.26,1.45-.39-.72-2.19-1.44-4.38-2.16-6.56-.11-.34-.57-.38-.86-.3-6.55,1.9-13.15,3.61-19.76,5.26-14.93,3.74-29.98,7.08-45.14,9.76-8.5,1.51-17.04,2.8-25.62,3.75-8.64.95-17.35,1.64-26.04,1.29-18.16-.72-36.1-4.96-53.24-10.81-9.32-3.18-18.66-6.84-27.44-11.22-.13-.07-.26-.13-.39-.2-.36-.18-1.3-.1-1.29.47,0,1.47.02,2.93.03,4.4,0,1.11.01,2.21.02,3.32,0,.62-.09,1.33.01,1.95.16.92,1.91,1.58,2.68,2.05,1.61.98,3.24,1.93,4.88,2.85,3.23,1.8,6.54,3.48,9.9,5.03,13.41,6.2,27.74,10.27,42.35,12.42,14.78,2.18,29.82,2.39,44.7,1.21,15.43-1.23,30.73-3.96,45.75-7.67,15.51-3.83,30.73-8.73,45.7-14.3,1.85-.69,3.69-1.39,5.53-2.09.93-.36.11-1.13-.64-.84Z"/>
    <path class="cls-11" d="M1182.07,278.3c5.71-.2-1.05,11.01,3.09,10.85,1.13-.04,1.86-.85,2.38-1.76.98-1.72,1.49-3.74,1.92-5.66.54-2.38.76-4.36.41-6.75-.44-2.98-1.62-6.28-4.68-7.41-.34-.13-1.65.42-1.18.59,2.61.96,3.74,3.75,4.25,6.28.32,1.61.53,3.34.26,4.97-.35,2.13-.82,4.27-1.57,6.3-.25.69-.53,1.38-.9,2.01-.12.21-.49.55-.56.77l-.05.05c-.17.14-.03.14.42-.01,0,.04-.27-.18-.27-.19-.16-.37-.35-.59-.4-1.03-.06-.54,0-1.11.07-1.65.15-1.17.4-2.33.54-3.5.12-1.07.26-2.34-.29-3.32-.58-1.04-1.74-1.2-2.83-1.17-.42.01-1.57.66-.61.63h0Z"/>
    <path class="cls-28" d="M1095.31,235.86c-1.66.25-3.2-1.38-3.79-2.76-.83-1.94-.54-4.15-.28-6.17.05-.38-1.38-.12-1.43.25-.29,2.22-.65,4.75.5,6.8.97,1.74,2.75,2.76,4.75,2.46.19-.03.8-.16.85-.41.04-.26-.45-.18-.59-.16h0Z"/>
  </g>
</svg>