<?xml version="1.0" encoding="UTF-8"?>
<svg xmlns="http://www.w3.org/2000/svg" xmlns:xlink="http://www.w3.org/1999/xlink" viewBox="0 0 1334 1000">
  <defs>
    <style>
      .cls-1, .cls-2, .cls-3 {
        fill: none;
      }

      .cls-4 {
        fill: #6d6d6d;
      }

      .cls-5 {
        stroke-width: .14px;
      }

      .cls-5, .cls-6, .cls-7 {
        stroke: #000;
      }

      .cls-5, .cls-6, .cls-7, .cls-2, .cls-3 {
        stroke-miterlimit: 10;
      }

      .cls-6 {
        stroke-width: .14px;
      }

      .cls-7 {
        stroke-width: .14px;
      }

      .cls-8 {
        fill: #622515;
      }

      .cls-9 {
        fill: #f0ebe0;
      }

      .cls-10 {
        fill: #24120e;
      }

      .cls-11 {
        fill: #273339;
      }

      .cls-12 {
        fill: #5e5f5f;
      }

      .cls-13 {
        fill: #010101;
      }

      .cls-14 {
        fill: #cd8b5d;
      }

      .cls-15 {
        fill: #653c29;
      }

      .cls-16 {
        fill: #ababab;
      }

      .cls-17 {
        fill: #356a89;
      }

      .cls-18 {
        fill: #715446;
      }

      .cls-19 {
        fill: #f1eef7;
      }

      .cls-20 {
        fill: #311a0e;
      }

      .cls-21 {
        fill: #4d2f15;
      }

      .cls-2 {
        stroke: #010101;
        stroke-width: .67px;
      }

      .cls-22 {
        fill: #a66e53;
      }

      .cls-23 {
        fill: #959696;
      }

      .cls-24 {
        fill: #c95744;
      }

      .cls-25 {
        fill: url(#linear-gradient);
        opacity: .5;
      }

      .cls-26 {
        fill: #1b120c;
      }

      .cls-27 {
        fill: #c95843;
      }

      .cls-28 {
        fill: #5e1a15;
      }

      .cls-29 {
        fill: #d7b029;
      }

      .cls-30 {
        fill: #528293;
      }

      .cls-3 {
        stroke: #6d6d6d;
        stroke-width: 1.8px;
      }

      .cls-31 {
        fill: #afdaef;
      }

      .cls-32 {
        fill: #ccb631;
      }

      .cls-33 {
        fill: #24180f;
      }

      .cls-34 {
        fill: #a53b23;
      }

      .cls-35 {
        fill: #343535;
      }

      .cls-36 {
        fill: #1a5988;
      }

      .cls-37 {
        fill: #465b65;
      }

      .cls-38 {
        fill: #5b481c;
      }

      .cls-39 {
        clip-path: url(#clippath);
      }

      .cls-40 {
        fill: #4f2e25;
      }

      .cls-41 {
        fill: #89772e;
      }
    </style>
    <linearGradient id="linear-gradient" x1="461.58" y1="1890.39" x2="1518.64" y2="1890.39" gradientTransform="translate(-1237.43 -483.6) rotate(90) scale(1 -1)" gradientUnits="userSpaceOnUse">
      <stop offset="0" stop-color="#f0ebe0"/>
      <stop offset=".18" stop-color="#eee8dd" stop-opacity=".99"/>
      <stop offset=".33" stop-color="#e8e1d4" stop-opacity=".97"/>
      <stop offset=".46" stop-color="#ded4c5" stop-opacity=".93"/>
      <stop offset=".59" stop-color="#d0c2b0" stop-opacity=".88"/>
      <stop offset=".72" stop-color="#bdab95" stop-opacity=".82"/>
      <stop offset=".84" stop-color="#a78e73" stop-opacity=".73"/>
      <stop offset=".96" stop-color="#8d6d4d" stop-opacity=".64"/>
      <stop offset="1" stop-color="#83603d" stop-opacity=".6"/>
    </linearGradient>
    <clipPath id="clippath">
      <polygon class="cls-1" points="1423.21 1019.42 208.38 1019.42 253.49 834.02 1378.11 834.02 1423.21 1019.42"/>
    </clipPath>
  </defs>
  <g id="Layer_3" data-name="Layer 3">
    <polyline class="cls-9" points="-36.62 995.17 -36.62 -25.51 1380.95 -25.51 1380.95 995.17"/>
    <polyline class="cls-25" points="1380.95 1031.55 -75.04 1031.55 -75.04 -25.51 1380.95 -25.51"/>
  </g>
  <g id="Layer_1" data-name="Layer 1">
    <path class="cls-32" d="M149.65,278.28c8.01,10.09,10.45,20.4,19.17,29.91,2.59,2.83,5.29,5.54,8.07,8.16l10.1-34.09,28.62-91.63s-56.29,12.62-66.76,34.67c-3.41,8.37-22.42,79.53-24.66,91.05,2.33,2.79,23.2-40.92,25.46-38.07Z"/>
    <path class="cls-32" d="M295.95,214.66s13.38,6.05,18.89,13.96c4.16,5.96,29.14,74.12,32.39,83.28-2.28,3.29,18.45,10.26,16.72,13.88-4.04,8.42-10,1.28-11.03,10.55-.78,7.01-15.25-5.12-14.54,1.9-7.01-.86-16.21-5.12-19.52-9.02-3.58-4.22-12.41-16.77-12.41-16.77l-10.5-97.78Z"/>
    <path class="cls-22" d="M391.22,267.83l6.95-8.79s14.63-5.14,19.97-9.99c3.72-3.65,6.92-7.8,9.5-12.33l12.33-10.81s7.92-1.61,7.6-4.12c-.32-2.51-3.44-2.69-6.47-2.86-3.03-.17-43.47,11.63-43.47,11.63,2.02-3.87,4.38-7.55,7.03-11.02,4.11-5.29,3.21-10.11-.45-9.9-2.26.13-8.03,6.04-10.11,10.16-1.75,3.47-8.55,7.38-11.96,13.3-3.4,5.92-1.44,15.02-1.44,15.02-1.4,3.36-4.37,7.64-4.37,7.64,2.67,6.03,14.89,12.07,14.89,12.07Z"/>
    <path class="cls-40" d="M437.62,227.99c.14-.52-.55-1.18-.89-1.45-.72-.59-1.63-.97-2.56-1.05-1.71-.13-3.6.52-5.16,1.14-1.42.56-2.78,1.29-4.06,2.11-.35.23-1.66.87-1.69,1.39-.02.35.38.41.65.39.64-.04,1.27-.67,1.74-1.04l-1.06-.43c-1.7,1.4-3.25,2.97-4.61,4.7-1.32,1.68-2.62,3.46-3.44,5.44-.29.71,1.15.61,1.37.09.82-1.99,2.13-3.79,3.46-5.47,1.3-1.63,2.79-3.11,4.4-4.44.63-.52-.67-.73-1.06-.43-.26.2-.53.4-.8.6-.38.28-.31.08.15.05l.65.39c-.01.26-.1.17.23-.07.3-.22.62-.43.93-.63.89-.57,1.82-1.08,2.78-1.52,1.17-.54,2.41-.98,3.68-1.21.72-.13,1.43-.2,2.14.07.41.16,1.85.92,1.69,1.51s1.31.41,1.46-.15h0Z"/>
    <path class="cls-40" d="M424.36,229.87c-.29-.5-1.51-.12-1.9-.03-.92.21-1.83.47-2.74.74-2.01.59-4.01,1.26-5.95,2.05-.61.25-1.23.51-1.8.84-.3.17-.7.41-.65.81.08.59,1.53.25,1.45-.39.05.35-.27.33-.06.26-.02,0,.18-.1.11-.07.23-.13.48-.24.72-.35.73-.33,1.47-.62,2.22-.89.95-.35,1.9-.68,2.87-.98s1.9-.58,2.86-.84c.46-.12.91-.24,1.38-.34.22-.05.14-.03.37-.07.04,0,.14,0,.18-.02-.07.04-.32-.01-.39-.13.29.5,1.68,0,1.33-.61h0Z"/>
    <path class="cls-40" d="M408.58,241.97c.71-.31.41-.94.14-1.44-.44-.84-1.06-1.58-1.75-2.23-1.9-1.78-4.46-2.92-7.08-2.94-.57,0-2.21,0-2.14.9.04.59,1.5.26,1.45-.39h0c-.01.07-.03.16-.04.24-.06.16-.33.26-.39.29.02-.01.19-.03.09-.02,0,0,.33-.03.45-.04.44-.02.89.03,1.33.1,1.4.21,2.73.78,3.89,1.58.91.63,1.72,1.41,2.36,2.32.2.28.39.57.53.88.05.1.08.2.12.31.01.03.01.08.03.11,0,.06,0,.04,0-.04-.03.21.1.08.39-.39-.25.11-.56.41-.36.69s.72.19.98.08h0Z"/>
    <path class="cls-32" d="M303.86,298.67l26.29,11.97,47.91-61.88c2.92,5.4,16.94,12.36,23.99,16.39,0,0-33.13,64.41-37.72,72.08-16.24,27.13-38.37,20.56-49.82,13.48-6.59-4.08-28.61-30.24-28.54-37.6.02-1.68,18.24-14.5,17.9-14.44Z"/>
    <path class="cls-41" d="M340.83,296.63c-5.6,4.67-10.35,11.63-11.79,18.81-.64,3.18-.55,6.45.27,9.59.12.47,1.57.09,1.45-.39-2.7-10.31,3.4-21.28,11.22-27.81.62-.52-.81-.49-1.15-.2h0Z"/>
    <polyline class="cls-18" points="-18.78 1045.03 1379.98 1045.03 1379.98 753.1 -18.78 753.1"/>
    <polygon class="cls-36" points="1426.21 1004.86 211.38 1004.86 256.49 819.45 1381.11 819.45 1426.21 1004.86"/>
    <g class="cls-39">
      <rect class="cls-17" x="195.85" y="880.46" width="1260.32" height="16.44"/>
      <rect class="cls-17" x="197.18" y="836.92" width="1260.32" height="16.44"/>
      <rect class="cls-17" x="189.33" y="922.13" width="1260.32" height="16.44"/>
      <rect class="cls-17" x="189.86" y="962.98" width="1260.32" height="16.44"/>
    </g>
    <path class="cls-22" d="M278.23,730.73l31.98,16.6c2.36,1.99-29.52,19.76-61.18-8.33l3.55-8.64,25.64.38Z"/>
    <g>
      <path class="cls-21" d="M333.42,761.24s1.68-4.27-1.68-5.57c-3.36-1.31-21.3-10.02-23.11-9.67.03,1.29-1.62,2.99-5.48,4.15-3.86,1.16-8.15,2.63-18.04.74-7.41-1.42-22.66-4-29.36-7.91-2.24-1.31-5.48-5.7-5.63-6.34-7.82,8.92-5.47,18.38-1.9,20.72,3.56,2.33,24.62,3.89,24.62,3.89l18.64,4.44,17.59.83,7.4-.16,8.87-1.31,8.08-3.8Z"/>
      <path class="cls-26" d="M247.31,756.45c2.29.79,9.64,2.03,15.94,2.16,16.9.35,22.57,2.5,28.3,4.24,2.88.88,5.9,1.81,10.03,2.48,19.73,3.34,31.26-3.81,31.66-4.1.27.26.4.54.53.96-.19.17-1.71,1.62-4.08,2.69-5.57,2.5-13.52,5.37-28.8,3.09-4.33-.64-6.94-.96-9.79-1.83-4.29-1.3-8.71-2.65-18.2-3.34l.04,2.87s-17.93.67-26.02-2.82c-.58-4.41.41-6.39.41-6.39Z"/>
      <path class="cls-26" d="M246.72,760.28c10.76,2.78,22.45,2.85,26.17,2.87l.03,2.52s-17.93.67-26.02-2.82c-.13-.98-.18-1.83-.18-2.57Z"/>
    </g>
    <g id="freepik--character-1--inject-1332">
      <path class="cls-22" d="M195.89,695.27s2.67,37.53,2.51,39.72l18.02,5.06,7.69-4.58,7.77-40.24-35.99.04Z"/>
    </g>
    <path class="cls-22" d="M224.16,733.71l31.98,16.6c2.36,1.99-29.52,19.76-61.18-8.33l3.55-8.64,25.64.38Z"/>
    <g>
      <path class="cls-21" d="M279.35,764.22s1.68-4.27-1.68-5.57c-3.36-1.31-21.3-10.02-23.11-9.67.03,1.29-1.62,2.99-5.48,4.15-3.86,1.16-8.15,2.63-18.04.74-7.41-1.42-22.66-4-29.36-7.91-2.24-1.31-5.48-5.7-5.63-6.34-7.82,8.92-5.47,18.38-1.9,20.72,3.56,2.33,24.62,3.89,24.62,3.89l18.64,4.44,17.59.83,7.4-.16,8.87-1.31,8.08-3.8Z"/>
      <path class="cls-26" d="M193.24,759.43c2.29.79,9.64,2.03,15.94,2.16,16.9.35,22.57,2.5,28.3,4.24,2.88.88,5.9,1.81,10.03,2.48,19.73,3.34,31.26-3.81,31.66-4.1.27.26.4.54.53.96-.19.17-1.71,1.62-4.08,2.69-5.57,2.5-13.52,5.37-28.8,3.09-4.33-.64-6.94-.96-9.79-1.83-4.29-1.3-8.71-2.65-18.2-3.34l.04,2.87s-17.93.67-26.02-2.82c-.58-4.41.41-6.39.41-6.39Z"/>
      <path class="cls-26" d="M192.65,763.26c10.76,2.78,22.45,2.85,26.17,2.87l.03,2.52s-17.93.67-26.02-2.82c-.13-.98-.18-1.83-.18-2.57Z"/>
    </g>
    <path class="cls-22" d="M249.1,710.98s3.37,20.16,3.21,22.36l5.94.71h22.25s3.8-21.58,3.8-21.58l-35.2-1.49Z"/>
    <path class="cls-35" d="M257.89,427.41l.62,4.14c.14.9.75,1.55,1.37,1.46.61-.11,1-.91.86-1.79l-.62-4.14c.81-.73,1.18-2.13.94-3.55-.33-1.98-1.7-3.37-3.06-3.12-1.36.25-2.2,2.05-1.87,4.03.19,1.32.87,2.47,1.76,2.98Z"/>
    <path class="cls-12" d="M203.4,94.28c3-4.33,7.71-7.26,12.75-5.95-.32-9.82,9.13-15.72,18.95-16.1,5.05.03,10.26,2.25,15,.53,2.96-1.07,5.18-3.42,7.7-5.39,10.55-8,27.35.98,36.47,10.58,9.12,9.6,7,20.44,2.53,32.89-2.08,5.79-1.7,8.93-2.29,15.09-.56,5.82-3.96,16.66-3.96,22.43,0,5.77,9.08,11.72,3.26,12.24l-63.51-6.8c-9.41,1.96-15.46-.83-20.37-9.09-3.2-5.61-2.16-5.88-2.64-12.31-.84-8.4-9.45-14.64-9.04-23.07.1-5.3,2.41-10.53,5.15-15.06Z"/>
    <path class="cls-34" d="M195.52,94.01s21.82-11.11,50.15-8.27c28.33,2.84,42.32,20.03,47.4,32.41,5.07,12.38-.06,25.51-.06,25.51,0,0,7.09,1.84,11.53-23.67,6.46-37.19-31.7-59.17-40.85-58.95-9.15.22-56.03-8.75-68.17,32.96Z"/>
    <path class="cls-22" d="M220.55,156.77s-.81,22.38-6.67,38.05c-.82,2.18-14.62,12.15-14.62,12.15l20.48,5.14c11.5,2.55,40.92,13.57,51.98,9.5l5.96-14.29s-12.23-5.86-12.82-8.55c-.59-2.68,1.32-23.07,1.32-23.07"/>
    <path class="cls-41" d="M303.47,719.23l22.36-247.66-12.05-72.8h-147.9l-19.88,70.03,30.55,253.6s21.97,10.93,62.78,8.82c50.85-2.63,64.14-11.99,64.14-11.99Z"/>
    <path class="cls-32" d="M329.67,409.25c-3.92-29.17-9.82-42.57-9.82-42.57l-3.47-9.56-3.03-19.98c2.58-13.19,13.83-19.2,13.42-40.29l-8.25-30.28-21.17-48.24-30.92-17.52c1.11,1.97,13.02,14.19-6.9,19.51-.02,0-4.9.08-4.92.09-25.71-1.05-41.6-25.25-41.6-25.25l-44.12,18.35-8.97,119.19s-24.9,57.19-25.9,81.54c-1.23,29.88,3.84,61.05,14.17,87.01,1.05,2.65,40.35,7.19,44.44,7.6,15.35,1.52,30.81,1.94,46.23,1.27,30.29-1.33,55.51-8.41,84.97-14.39,0,0,9.73-57.29,5.81-86.46Z"/>
    <path class="cls-32" d="M267.75,201.72s39.41,13.83,44.83,25.36c8.23,17.51,12.82,34.49,12.82,34.49l-20.33,14.78-37.33-74.63Z"/>
    <path class="cls-40" d="M264.82,195.02s-4.73-.76-7.99-1.66c-3.26-.9-8.84-.69-23.9-13.66,0,0,4.47,16,23.65,19.35,0,0,4.96,1.02,8.21.22l.04-4.25Z"/>
    <path class="cls-22" d="M281.28,97.6c.07.06.14.11.21.16-.07-.11-.14-.23-.19-.34l-.02.18ZM289.35,99.92c.11.12.23.24.36.36v-.15s-.35-.39-.36-.21ZM230.9,177.88c7.07,8.45,21.75,17.7,33.91,18.16,4.36.17,8.52,0,12-5.11,3.52-5.18,6.59-7.14,10.35-11.91,3.61-4.57,5.27-7.46,7.14-12.96,1.93-5.69,2.04-7.22,1.85-13.06-.08-2.61.03-6.55.41-9.02.44-2.85,2.61-14.07,3.37-20.69.76-6.62-3.52-19.57-3.52-19.57-.24-1.83-2.79-1.08-3.64-2.6l-.78-.07s.37.21.33.75c-.98-.24-1.92-.86-2.63-1.52v.03c-1.22.44-2.35-.2-3.25-1.18-.02.18.15.55.35.57-1.19.08-2.31-.56-3.04-1.34-.02.18.15.55.14.73-.87-.24-1.72-.78-2.42-1.33.16.25,4.63-.06,4.62.07-1.19.08.12.58-.78-.4l-.91-.75c-.99.1-1.01.69-1.73-.1.18.2-.37-2.02-.38-1.84-1.17-.1-.85-.15-1.78-.77-.02.18-3.3.89-3.31,1.07-.98-.08-.8.83-1.52.05.18.2.77-.69.95-.5-1.19.08-1.69.8-2.59-.19.18.2-3.7-2.3-3.7-2.3-1.19.08-1.02.47-1.94-.34.36.39-5.38-.8-5.22-.42-.98-.08,1.56,3.74.83,3.14-.02.18-2.2-.73-2.2-.73-.99.1.4,1.12-.32.34-.02.18.13.73.33.75-1.22.44-2.56-.04-3.67-.86.36.39.53.77.71.96-.98-.08-1.77.03-2.69-.77-.02.18.33.75.52.77-1.01.28-2.17,0-3.1-.63-.02.18.35.57.52.77-.79.11-1.58.05-2.31-.56l.52.77c-.78-.07-1.4.24-2.54-.22-.02.18.36.39.35.57-.59-.05-1.37-.12-1.94-.35-.02.18.54.59.34.57-.78-.07-1.4.24-2.34-.2.18.2.34.57.52.77-.78-.07-1.58.05-2.33-.38-.02.18.15.55.33.75-.78-.07-1.4.24-2.35-.2-.02.18.35.57.53.77-.78-.07-1.58.05-2.35-.2-.02.18.36.39.54.59-.78-.07-1.58.05-2.53-.4-.03.36.15.55.13.73-.59-.05-.96-.26-1.55-.31l-1.01.27c-3.04,3.35-13.06-.42-13.06-.42-6.47,4.33-.47,29.81-.57,33.23-.1,3.43-2.11,4.21-2.11,4.21-.87-1.34-2.38,2.27-2.84.79-.48-1.31.05-2.89-.43-4.19-1.51-3.02-5.5-2.46-7.8-.85l-.41.56c-3.34,3.8-1.14,16.69.76,20.62,0,7.68,6.39,12.25,10.62,7.05l.81,3.06"/>
    <g>
      <path class="cls-13" d="M272.01,161.9c-1.5.63-3.69.26-5.06-.75-.31-.23-1.39-.13-.97.19,1.82,1.34,4.96,1.72,6.9.91.19-.08.17-.22-.05-.32-.23-.1-.62-.12-.82-.03"/>
      <path class="cls-13" d="M265.39,160.87c-.93-.54-2-.87-3.07-1.05-.16-.02-.37.02-.49.11-.1.07-.13.18-.01.26.47.33,1.1.5,1.69.54.18.01.43-.01.55-.16.11-.14-.06-.25-.21-.26-.48-.03-.97-.17-1.36-.44-.17.12-.34.25-.51.37.96.16,1.91.46,2.74.95.17.1.42.06.58-.01.12-.06.26-.21.09-.3"/>
      <path class="cls-13" d="M261.07,160.64c-1.27-.14-2.71-.82-3.25-1.82-.82-1.51.25-3.71,1.91-4.49.18-.08.1-.22-.07-.27-.22-.07-.5,0-.69.08-1.45.68-2.5,2.47-2.41,3.83.09,1.27,1.22,2.25,2.71,2.75.44.15.92.26,1.39.31.19.02.54,0,.65-.15.11-.14-.06-.22-.24-.24"/>
      <path class="cls-13" d="M274.39,161.46c-.06-.15.08-.24.18-.22.34.04.7-.03,1.01-.24.1.15.2.29.3.44-.69.02-1.4.18-2.05.54-.13.07-.3,0-.4-.1-.08-.08-.15-.24-.02-.31"/>
      <path class="cls-13" d="M273.41,161.56c.72-.4,1.51-.57,2.29-.59.11,0,.25.07.33.18.06.09.06.2-.03.26"/>
      <path class="cls-13" d="M277,161.85c.83.04,1.84-.43,2.33-1.34.73-1.38.31-3.13-.64-4.14-.1-.11-.03-.23.08-.26.15-.04.32.06.43.18.83.88,1.3,2.22,1.05,3.55-.23,1.25-1.1,2.06-2.12,2.34-.3.08-.62.13-.93.12-.13,0-.35-.08-.39-.24-.05-.16.07-.21.19-.21"/>
    </g>
    <path d="M287.46,138.06c1.13-.47,2.49.11,3.15.8.15.16.43.64.58,1.37.19.93-.26,1.94-.89,2.51-.84.77-2.12.81-3.06.27-1.27-.73-1.57-2.36-1.14-3.5.08-.21.44-1.08,1.35-1.46"/>
    <path d="M277.47,140.85s5.64-3.71,8.36-3.74c3.97-.06,8.64,2.54,9.87,4.62,0,0-6.15-3.82-8.95-3.7-2.68.12-9.29,2.82-9.29,2.82Z"/>
    <path d="M254.54,135.65c-1.04-.65-2.79-.65-3.56-.08-.18.13-.67.52-.94,1.21-.35.89-.07,1.95.45,2.63.69.9,1.95,1.16,2.97.78,1.38-.51,1.95-2.06,1.72-3.25-.04-.22.21-.61-.63-1.14"/>
    <path d="M261.15,139.14s-5.64-4.3-8.57-4.64c-4.27-.49-9.6,1.58-11.16,3.51,0,0,7.05-3.12,10.05-2.69,2.87.41,9.67,3.82,9.67,3.82Z"/>
    <path class="cls-16" d="M298.85,132.11c0-.19.05-.36.12-.53-.91-1.56-2.1-2.52-2.21-2.61,0,0-1.52-1.25-4.06-2.03-1.75-.54-6.65-1.18-13.24-.94-.05.8-.11,1.6-.16,2.4-.04.61-.08,1.22-.11,1.83,2.3-.35,4.27-.55,5.75-.67,3.13-.25,4.73-.36,6.51.04,1.87.42,3.43,1.17,4.03,1.47.85.42,1.42.68,2.09,1.19.52.4.93.8,1.24,1.15.02-.44.05-.87.05-1.31Z"/>
    <path class="cls-16" d="M268.13,124.83c-.16.79-.32,1.57-.47,2.36-.12.6-.25,1.2-.37,1.8-2.57-1.02-4.78-1.79-6.46-2.34-3.55-1.16-5.37-1.75-7.54-1.89-2.28-.15-4.28.11-5.06.22-1.1.15-1.83.23-2.75.52-1.98.63-2.93,1.59-3.21,1.44-.25-.14.38-1.02.44-1.11,1.6-2.22,4.39-3.18,4.6-3.26,0,0,2.1-.75,5.25-.75,2.17,0,8.02.83,15.57,3.01"/>
    <path class="cls-2" d="M218.31,145.92c-4.11-10.32-7.19-10.45-7.19-10.45,0,0-2.13,2.32-1.21,7.09"/>
    <path class="cls-2" d="M216.7,146.81c-2.75-.34-.75,4.88-1.54,6.07-.79,1.2-1.73-2.05-1.98-5.96,0,0,.12-5.26,2.75-6.16"/>
    <path class="cls-40" d="M288.09,115.39s-8.44.92-15.29.96c-6.85.04-13.53-3.48-13.53-3.48,0,0,8.02,2.58,13.44,2.58s15.38-.07,15.38-.07Z"/>
    <path class="cls-16" d="M292.77,95.76c-.09-.12.04.05,0,0-1.69-2.41-2.75-4.97-4.53-7.29-1.75-2.28-3.47-4.35-5.34-6.53-.11-.13-2.35-.2-2.46-.33-.02-.02-.09-.11-.12-.13-.06-.07-.12-.14-.18-.2-.14-.16-.28-.31-.42-.47-10.6-4.71-23.43-5.45-35.03-1.97-22.54,6.76-35.34,30.51-28.58,53.06.58,1.93-.59,4.26,1.29,5.36,1.88,1.1,2.11.56,3.91-.67,1.72-1.34,3.1-3.06,4.04-5.03,4.95-9.26,6.23-24.06,4.09-34.34,1.23,1.95,9.91-.01,11.83,1.27,7.58,5.06,17.83,3.01,22.89-4.58.78,1.15,1.65,2.23,2.6,3.23,8.73,9.2,20.16,13.7,29.78,7.31.35-.23-2.69-7.15-3.74-8.68Z"/>
    <path class="cls-11" d="M239.56,133.13l.95,3.72c.5,2.87,2.23,8.62,3.09,10.22,1.21,2.23,16.16,4.13,19.23,2.63s5.34-9.97,6.27-11.9l5.98.77c.35,2.61,1.63,10.89,2.69,12.07,1.06,1.18,7.96,1.48,8.74,1.51.65.02,1.55.05,2.54.04,2.62,0,5.8-.21,6.85-1.11,1.55-1.32,3.52-6.67,5.25-11.73l.28-.79c.06-.19.13-.32.14-.38h0l.31-.91c-8.34-4.75-19.74-4.88-26.99-.32l.05.1-5.83-.78c-6.29-4.87-17.55-8.09-25.96-5.5h0l-25.7,2.4-.24,2.24,22.37-2.29ZM278.54,149.86c-.66-.74-1.74-6.55-2.42-11.07,6.3-3.84,16.56-3.71,24.06.09v.11c-.94,2.71-3.41,9.94-4.93,11.24-1.8,1.54-15.53.79-16.7-.36v-.02ZM245.42,146.59c-1.74-4.3-3.08-8.74-4.02-13.28,7.52-2.79,20.06-.02,26.22,4.62-1.3,3.51-3.06,9.69-5.26,10.77-3.17,1.55-16.18-.69-16.94-2.1h0Z"/>
    <path class="cls-8" d="M204.95,136.14s-21.36-15.49-13.22-32.12c1.56-3.19,1.74-2.14,1.83-4.91.48-14.47-4.58-11.02,16.62-27.94,21.2-16.92,24.31-16.63,56.66-14.22,16.68,1.24,25.82,8.22,30.38,18.79,2.05,4.75,3.17,10.23,3.64,16.24,0,0-34.09-9.72-54.39,1.22-20.3,10.95-41.61,46.59-37.28,58.01,1.22,3.21-4.23-15.08-4.23-15.08Z"/>
    <path class="cls-34" d="M191.78,120.31s28.93-42.15,67.5-43.43c0,0-47.64-5.1-68.72,28.93l-.31,4c-.19,2.49.04,4.99.69,7.4l.84,3.1Z"/>
    <path class="cls-41" d="M316.17,252.8c-1.25,2.31-2.87,5.43-2.65,8.13.16,1.92.96,3.89,1.5,5.72,2.22,7.4,4.45,14.8,6.02,22.37,1.8,8.73,2.67,17.46.75,26.25-.89,4.07-2.32,7.97-4.14,11.71-1.37,2.82-2.98,5.54-4.11,8.46-.58,1.49-1,3.04-1.2,4.63-.13,1.01.03,1.84.19,2.85.41,2.66.83,5.31,1.24,7.97.06.39,1.52.07,1.45-.39-.35-2.27-.71-4.53-1.06-6.8-.15-.96-.41-1.96-.46-2.93-.06-1.28.36-2.73.73-3.95.87-2.87,2.35-5.51,3.71-8.16,1.77-3.45,3.32-6.98,4.37-10.72,4.62-16.4-.52-33.39-5.27-49.17-.76-2.53-1.68-5.07-2.17-7.67-.26-1.36.15-2.72.58-4.01.52-1.56,1.19-3.08,1.97-4.52.16-.3-1.22-.19-1.44.22h0Z"/>
    <path class="cls-32" d="M142.61,260.18s-7.98,24.14-15.76,45.75c-6.39,22.73-8.94,49.81,8.59,56.56,17.53,6.75,45.36-18.53,45.36-18.53l20.84-29.32-39.43-26.16-19.6-28.31Z"/>
    <path class="cls-20" d="M403.74,742.17l-32.49-98.03-114.07-344.3-26.54-79.87c-2.01-6.11-11.5-2.91-9.46,3.2l72.11,217.72,99.86,301.36c3.53,0,7.05-.04,10.58-.08Z"/>
    <path class="cls-20" d="M399.94,733.28l-.64-1.28c-3.16.15-6.32.32-9.48.56l.45.9-50.53.92.23,16.14,115.4-2.05-.23-16.17-55.2.99Z"/>
    <path class="cls-14" d="M454.94,747.69l-113.6,2.36c-1.43,2.11-.1,11.61,1.98,12.72,2.17.86,4.52.77,6.64-.27,2.1-1.03,4.35-1.53,6.62-1.47,2.82.4,5.38,2.85,8.19,2.5,2.81-.35,4.84-3.46,7.57-3.49,3.12-.06,5.66,3.99,8.75,3.53,2.01-.31,3.55-2.45,5.54-2.78,3.09-.68,5.86,2.79,8.9,2.78,3.03,0,5.97-3.86,9.25-3.58,2.88.23,5.03,3.58,7.88,4.05,4.13.71,7.57-4.72,11.76-4.46,2.66.16,4.98,2.57,7.65,2.51s4.97-2.64,7.64-3.12c2.41-.1,4.81.6,6.92,2.02,2.13,1.44,4.63,1.83,6.99,1.08,2.22-1.22,3.19-12.53,1.32-14.36Z"/>
    <path class="cls-41" d="M162.24,311.23c2.12-1.69,4.08-3.59,6.06-5.42,3.09-2.85,6.17-5.71,9.3-8.51,3.48-3.1,7.01-6.16,10.68-9.03,3.14-2.46,6.39-4.88,9.93-6.75,1.89-1,5.36-2.89,7.37-1.2.42.35,1.78-.22,1.34-.59-1.89-1.58-4.65-.86-6.72-.07-3.55,1.35-6.78,3.6-9.83,5.83-7.65,5.6-14.65,12.07-21.6,18.5-2.53,2.34-5.01,4.79-7.71,6.94-.66.52.77.61,1.18.29h0Z"/>
    <path class="cls-41" d="M226.81,294.08c1.44,1.6-.4,4.97-1.14,6.49-1.65,3.42-3.77,6.62-5.89,9.76-2.03,3.01-4.15,5.95-6.22,8.93-1.15,1.66-2.08,3.5-3.3,5.1-2.12,2.79-4.64,5.32-7.09,7.82-3.41,3.48-6.92,6.87-10.52,10.16-2.34,2.13-5.11,4.74-7.51,6.39-2.06,1.42-4.24,2.68-6.41,3.92-4.59,2.61-9.33,4.96-14.26,6.86-5.39,2.08-11.12,3.72-16.94,3.75-.5,0-1.55.76-.58.75,10.16-.06,20.14-4.35,28.99-8.99,3.07-1.61,6.08-3.35,9-5.22,2.07-1.33,3.93-2.91,5.79-4.53,6.86-5.97,13.59-12.35,19.52-19.25,1.39-1.61,2.36-3.35,3.53-5.1,1.94-2.9,4.01-5.72,5.99-8.59,2.53-3.67,5.05-7.39,7.07-11.37.89-1.76,3.04-5.54,1.34-7.43-.31-.34-1.69.17-1.35.55h0Z"/>
    <path class="cls-41" d="M187.2,221.2c2.57,3.02,4.6,6.44,5.97,10.17,1.12,3.04,2.05,6.52,1.99,9.79-.06,3.43-1.2,6.96-2.09,10.24-2.74,10.06-6.12,19.93-9.41,29.82-1.2,3.61-2.5,7.21-3.49,10.88-.13.48,1.32.27,1.44-.2.85-3.16,1.96-6.27,2.99-9.37,1.66-4.98,3.32-9.95,4.94-14.94s3.25-10.16,4.68-15.3c.98-3.52,2.11-7.19,2.36-10.85.22-3.15-.63-6.52-1.62-9.48-1.39-4.15-3.58-7.98-6.41-11.3-.3-.35-1.69.15-1.35.55h0Z"/>
    <path class="cls-22" d="M253.67,261.71c-.55-.82-.85-1.7-.89-2.69-.09-2.04.74-3.97.93-5.98.18-1.96-1.19-2.96-2.71-3.89-.39-.24-.61-.54-.71-.87-.12-.26-.19-.55-.16-.85.05-.44.09-.88.1-1.33,0-.18,0-.36,0-.54,0-.04,0-.22-.01-.29-.03-.37-.08-.73-.15-1.1-.03-.16-.08-.31-.11-.47-.01-.05-.02-.08-.02-.1,0-.02-.02-.04-.03-.07-.14-.34-.3-.66-.47-.99-.02-.04-.03-.06-.04-.08-.01-.02-.03-.04-.06-.07-.1-.13-.19-.25-.3-.38-.46-.54-.77-.79-1.52-1.25-.58-.36-1.2-.66-1.73-1.1-.52-.44-.91-.94-1.29-1.5-.97-1.41-2.2-2.57-3.83-3.03-.33.03-.67.08-1.04.16-.93.2-9.81,6.79-9.81,6.79,0,0-11.11,9.38-12.72,17.8-1.61,8.42-2.44,10.06-2.44,10.06,0,0,2.38-2.04-3.33,5.1-3.59,4.49-8.03,7.51-.5,14.44,4.92,4.2,10.03,6.96,16.48,6.47,1.25-1.28,5.23-5.34,5.23-5.34,3.52-4.63,7.09-6.05,10.95-7.11,4.1-1.75,7.91-8.44,11.35-11.27l-.39-2.69s-3.45,4.22,0,0c.13-1.14.47-2.23.74-3.34.22-.88.41-1.84-.09-2.65-.4-.66-1.01-1.19-1.44-1.83Z"/>
    <path class="cls-15" d="M266.95,177.16c-4.55-1.46-9.33-6.37-14.83-6.78,0,0,.76,9.66,12.48,11.38,11.72,1.73,14.01-7.48,14.01-7.48-5.38-1.19-6.88,2.79-11.66,2.87Z"/>
    <path class="cls-22" d="M969.37,225.21s-2.61,8.52.79,24.14c3.4,15.62,28.34-16.4,28.34-16.4l-29.13-7.74Z"/>
    <path class="cls-4" d="M71.71,674.75c.8-1.9,2.61-2.5,4.29-3.18,4.27-1.72,8.77-2.56,13.29-3.2,15.14-2.16,30.33-2.47,45.58-1.44,7.47.5,14.88,1.31,22.16,3.09,2.49.61,4.97,1.32,7.18,2.69,1.08.67,2.26,1.36,2.04,2.96-1.63,2.5-3.94,3.84-6.92,4.04-.25-.1-.5-.23-.76-.31-10.27-2.85-20.82-3.55-31.38-3.94-11.31-.42-22.61-.1-33.86,1.28-5.13.63-10.25,1.42-15.19,3.04-1.76-.19-3.28-1.04-4.73-1.94-1.07-.66-2.06-1.55-1.7-3.09Z"/>
    <path class="cls-31" d="M159.33,679.71c-2.74,1.52-5.81,1.85-8.81,2.31-8.59,1.33-17.24,1.87-25.93,2.21-6.26.25-12.5.06-18.71-.26-8.87-.46-17.74-1.37-26.38-3.63-.47-.12-.91-.38-1.36-.57,4.94-1.62,10.06-2.4,15.19-3.04,11.25-1.38,22.55-1.7,33.86-1.28,10.56.39,21.11,1.09,31.38,3.94.26.07.51.2.76.31Z"/>
    <path class="cls-23" d="M166.25,675.67c-1.63,2.5-3.94,3.84-6.92,4.04-2.74,1.52-5.81,1.85-8.81,2.31-8.59,1.33-17.24,1.87-25.93,2.21-6.26.25-12.5.06-18.71-.26-8.87-.46-17.74-1.37-26.38-3.63-.47-.12-.91-.38-1.36-.57-1.76-.19-3.28-1.04-4.73-1.94-1.07-.66-2.06-1.55-1.7-3.09-.49,2.47-.48,4.92.34,7.33.23,1.9.47,3.8.7,5.69.04.55.05,1.11.12,1.66.48,3.93.98,7.86,1.46,11.79,1.09,8.85,2.17,17.71,3.25,26.56,1.16,9.46,2.42,18.91,3.42,28.39.33,3.09,1.6,5.22,4.21,6.74,2.78,1.63,5.78,2.65,8.89,3.33,15.86,3.48,31.77,3.46,47.68.39,4.01-.77,7.92-1.91,11.42-4.14,2.21-1.41,3.38-3.33,3.67-6.02.85-7.87,1.89-15.72,2.85-23.58,1.28-10.46,2.56-20.92,3.83-31.38.57-4.69,1.09-9.38,1.63-14.07-.07.01-.14.03-.21.05.07-.02.13-.04.21-.05.23-1.79.46-3.58.69-5.37.85-2.09.49-4.25.39-6.4ZM145.26,715.24c1.23-.93,2.41-1.91,3.54-2.93-1.13,1.03-2.31,2-3.54,2.93-.24.18-.49.35-.74.52.25-.17.5-.34.74-.52ZM96.46,715.92c-.19-.03-.37-.05-.56-.05.19,0,.37.02.56.05ZM94.15,716.28h0c-.61-.44-1.21-.88-1.81-1.33.6.45,1.2.89,1.81,1.33ZM86.1,709.3c-.76-.85-1.5-1.71-2.19-2.59.7.88,1.43,1.74,2.19,2.59ZM74.44,683.69c2.07.61,4.11,1.33,6.2,1.88-2.09-.55-4.13-1.27-6.2-1.88-.32-.59-.81-.93-1.36-1.19.55.26,1.04.6,1.36,1.19ZM144.51,717.61c.02.92-.22,1.65-.65,2.25.44-.6.67-1.33.65-2.25.05,0,.11-.01.17-.02-.06,0-.12,0-.17.02Z"/>
    <path class="cls-3" d="M112.91,695.06s-24.18,29.34-39.84,25.73"/>
    <circle class="cls-4" cx="112.91" cy="695.06" r="4.25"/>
  </g>
  <g id="Layer_2" data-name="Layer 2">
    <path d="M767.99,209.22c-2.42.23-5.46-2.11-8.68-.64-.91.42-1.27-5.56-2.04-5.11-19.12,5.55-19.38,22.25-20.29,33.2-.4,5.22,2.6,13.35-1.55,16.68-4.16,3.33-10.96,1.97-14.94,5.4-4.68,4.03-2.47,11.62-4.81,17.27-2.46,5.4-8.71,8.16-14.77,6.52,6.14,6.62,14.02,11.56,22.77,14.26l8.09-7.12c-2.85,2.79-4.68,9.7-4.68,9.7,2.84,4.43,10.87,7.59,12.84,8.37,8.52,3.38,27.87,15,54.67,12.05-6.4-33.24-11.61-77.42-18.01-110.66"/>
    <path class="cls-22" d="M736.79,319.24c.46-1.62-15.7-6.13-20.55-21.22-9.39-21.08-28.52-70.19-30.99-81.15-1.23-8.11-.14-22.96-1.97-38.84-3.52-30.5-13.32-74.68-13.32-74.68l-17.95,2.48-2.91,54.56c-1.01,14.15-1.67,28.37-.06,42.47l2.61,22.93c5.14,79.38,50.07,130.89,50.07,130.89,0,0,34.62-35.81,35.08-37.43Z"/>
    <path class="cls-22" d="M699.08,54.8l-6.09,23.82.19,4.77s-5.06,12.16-6.43,14.57-14.22,12.57-14.22,12.57l1.62,15.15-23.3-5s1.37-13.15.69-15.18c-.34-2.84.18-5.72,1.49-8.26,1.06-2.38,6.62-16.98,6.62-16.98,0,0,.99-19.47,4.85-17.97.91.48,1.77,1.07,2.56,1.74,0,0-1.09,12.54.16,13.56l2.6.15s5.37-16.74,6.92-19.52c1.55-2.78,3.3-4.31,5.56-3.27,0,0,1.12,1.62.82,2.38s-6.76,19.13-5.69,19.4,1.59-1.43,1.59-1.43c0,0,7.32-22.51,8.34-23.51,1.2-1.42,3.28-1.69,4.8-.63l-2.92,13.13s3.94-10.09,6.46-10.69c1.27-.41,2.66.09,3.39,1.21Z"/>
    <path class="cls-40" d="M667.72,95.25c.9-1.78,2.1-3.46,3.47-4.9,1.8-1.9,4.04-2.88,6.49-3.69,1.4-.46,3.16-.86,4.41-1.2s1.37-1.85,1.78-2.98.68-1.83.69-2.97c.03-2.19.06-4.5.7-6.61.59-1.95,1.35-4.68,3.49-5.46.27-.1,1.15-.19,1.2-.12s.04.23.06.31c.18.54.23,1.16.35,1.72.64,3.16,1.27,6.32,1.91,9.48.07.34,1.53,0,1.45-.39-.38-1.88-.76-3.76-1.13-5.64l-.81-4.03c-.09-.46-.09-1.44-.37-1.84-.6-.85-2.75-.05-3.44.24-1.31.56-2.28,1.55-2.94,2.81-1.49,2.85-1.81,6.07-1.89,9.23-.03,1.14-.01,1.65-.38,2.66-.41,1.14-.83,2.28-1.24,3.42l.84-.41c-2.99.62-6.02,1.5-8.77,2.84-3.24,1.58-5.69,4.61-7.3,7.79-.13.25,1.24.15,1.43-.24h0Z"/>
    <path class="cls-40" d="M677.86,79.27c-5.01-1.85-11.13-1.97-16.05.16-.93.4-.07.81.56.53,4.38-1.89,9.88-1.66,14.33-.02.31.12.75.03,1.02-.15.16-.1.47-.4.14-.52h0Z"/>
    <path d="M745.52,216.69c1.69-2.99,4.46-5.46,5.59-8.67,1.02-2.9.6-6.11,1.06-9.15,1.37-6.28,5.98-11.51,12.4-14.08,6.38-2.47,22.01-7.86,29.01-7.12,6.78.5,13.93,2.08,18.8,6.52,3.44,3.11,5.41,7.32,8.86,10.41,4.68,4.22,11.38,5.79,17.61,7.65,6.23,1.86,12.83,4.51,15.98,9.77,4.41,7.35.22,16.35,2.19,24.47,2.44,1.45,5.07,2.59,7.82,3.38,1.54.54,2.99,1.31,4.29,2.28,1.42,1.01,2.49,2.43,3.1,4.08.55,1.78.44,3.74-.33,5.52-.76,1.73-1.67,3.39-2.72,4.97-1.02,1.53-1.85,3.17-2.46,4.88-.56,1.65-.8,3.38-.71,5.09.13,3.26,1.63,6.22,4.13,8.17,2.37,1.89,5.46,2.04,8.18,2.79,1.35.33,2.62.92,3.72,1.74,1.04.79,1.76,1.93,2.01,3.24.42,2.24-.47,4.61-2.31,6.12-2.43,1.69-5.61,1.43-7.52-.6-.22-.24-.4-.52-.54-.82.8,1.06,1.94,1.79,3.26,2.08,1.53.35,3.18,0,4.51-.98,1.66-1.41,2.45-3.58,2.04-5.63-.25-1.16-.9-2.18-1.84-2.87-1.05-.74-2.24-1.28-3.51-1.57-2.59-.7-5.85-.8-8.47-2.84-2.7-2.07-4.33-5.25-4.48-8.74-.09-1.81.16-3.65.75-5.41.63-1.79,1.49-3.51,2.56-5.1,1.02-1.53,1.91-3.14,2.66-4.82.68-1.58.79-3.31.33-4.89-.55-1.5-1.53-2.79-2.82-3.71-1.24-.93-2.62-1.68-4.09-2.21-2.54-.76-4.97-1.83-7.24-3.15,1.04,3.43,3.04,6.62,4.28,10.01.24.67.41,1.4.55,2.16,1.8,2.86,3.05,6,2.6,8.9-.91,5.92-4.29,12.02-5.98,16.88-.12.14-.22.31-.25.53-.02.13-.04.26-.06.4-.15.47-.27.93-.37,1.37.05.1.08.21.14.3-.27,2.25-.33,4.53.39,6.71,1.01,3.06,3.52,5.36,6.05,7.21,2.62,1.91,5.64,3.47,8.81,4.33-4.4,3.44-11.53,8.75-14.22,9.26-.16.03-1.98.92-2.09.81-3.8-2.21-8.58-7.88-11.1-11.81,0,0,3.88,10.06,9.27,12.97l-3.65,2.15c-12.95,7.52-33.97,11.53-48.92,10.31,3.38-2.43,4.43-7.08,3.89-11.2-.84-4.06-1.71-7.5-3.41-11.29-1.09-2.99,4.76-5.38,5.04-8.56-.3-.09-.64-.17-.92-.27l-48.53-56.9c-6.27-4.91-16.81-8.48-13.31-15.07Z"/>
    <path class="cls-22" d="M763.09,281.65c-.76,12.53-3.8,19.85-4.98,32.35-.04.45-.55,4.18-.84,4.52-.2.23-3,1.55-3.28,1.68-1,.5-1.19,2.61-2.19,3.11-.03,2.61,2.98,3.16,4.43,5.4,2.89,4.44,9.51,7.16,14.63,8.57,13.41,3.68,27.22.7,38.01-6.06,1.3-.81,3.81-3.34,3.77-4.76-.04-1.39-4.17-3.68-4.73-5.26-4.22-11.81,3.92-35.09,3.92-35.09"/>
    <path class="cls-22" d="M677.76,604.32c10.04-26.51,26.1-73.78,26.1-73.78l122.44-34.59c-6.94,8.84-13.75,17.8-20.13,27.06-7.24,10.51-13.95,21.41-19.56,32.87-5.49,11.22-9.94,22.98-12.66,35.18-1.08,4.84-1.87,9.73-2.39,14.64-1.01-1.67-1.8-2.54-2.3-2.42-5.07,1.2-77.66,132.82-77.66,132.82,0,0,1.42,16.39-7.61,46.06-9.04,29.67-73.12,115.16-73.12,115.16l-25.45-7.49s83.35-261.75,92.35-285.52Z"/>
    <path class="cls-10" d="M513.64,920.75s-2.36,2.57-.88,6.94c1.48,4.37,29.31-.63,39.01.28,9.7.91,54.75,4.6,64.18,2.28,9.43-2.32.31-13.09.31-13.09l-102.63,3.6Z"/>
    <path class="cls-22" d="M613.05,889.12c-.48,10.51,2.66,16.65,3.81,21.32,1.32,5.39-.96,9.52-6.77,11.91-4.89,2.01-8.07,1.6-13.41,1.42-6.98-.25-20.1-2.04-27.08-2.29-5.98-.21-30.27.23-36.12,1.39-9.11,1.81-14.76.56-18.82-.82-1.13-.38-1.83-.31-2.36-1.16-1.39-2.22-1.26-4.69,1.71-6.64,3.75-2.45,8.34.76,11.83-2.12.62-.51,1.2-1.08,1.91-1.46,1.41-.73,3.12-.59,4.74-.61,8.05-.06,17.97-4.36,28.46-7.28,3.08-.86,26.12-16.64,28.97-18.03"/>
    <path class="cls-40" d="M535.09,910.99c-2.18.51-4.29,1.36-6.31,2.33-.67.37-1.43.69-1.87,1.28-.81-.59-1.78-.95-2.77-1.12-.97-.16-1.97-.17-2.95,0,1.92-.44,4.07-.17,5.75.95l-.11.03c.5-.64,1.21-.94,1.88-1.29,2.04-.94,4.16-1.79,6.38-2.18h0Z"/>
    <path class="cls-10" d="M530.35,912.53s10.75-3.61,10.53,10.7l6.41.15s-2.25-13.33-8.27-13.86c-6.01-.53-8.67,3.01-8.67,3.01Z"/>
    <path class="cls-22" d="M787.77,616.16c9.07,2.97,19.08,1.28,28.57,2.14,15.4,1.39,27.82,1.31,43.21.38-9.22,32.59-20.4,100.16-19.57,114.58,1.27,22.01,18.58,42.42-4.4,165.17l-27.54-5.09s-8.97-66.89-21.03-142.26c-4.93-30.78-6.59-91.45-11.36-135.28,6.61,3.16,5.14-1.92,12.11.36Z"/>
    <path class="cls-10" d="M840.6,926.01s1.9.04,2.23,6.5c.45,8.64-26.4,8.27-33.53,9.12-7.13.85-29.68,8.53-45.76,9.62-16.08,1.09-32.75-8.13-34.52-13.16-1.77-5.03.12-7.41,3.52-8.85,3.4-1.44,102.95-8.25,102.95-8.25l5.11,5.03Z"/>
    <path class="cls-22" d="M836.13,888.61c-.29,5.42,1.8,13.05,3.4,24.38.7,4.99,4.96,12.03-.19,15.83-9.12,6.72-20.27,4.46-24.45,5.58-8.8,2.37-15.88,2.56-24.31,5.61-8.54,3.09-10.3,3.83-19.76,4.72-1.31.12-2.69.12-3.85-.43-.77-.37-1.39-.97-2.17-1.34-2.74-1.3-6.08.64-9.17.34-1.36-.14-2.62-.71-3.89-1.15-3.38-1.17-7.04-1.48-10.59-2.11-3.55-.64-7.19-1.69-9.71-4.02-2.53-2.32-3.58-6.21-1.54-8.92,3.07-4.1,7.28-1.88,11.6-2.39,4.31-.51,5.92-1.25,9.69-3.11,9.62-4.75,11.1-5.7,19.22-9.44,6.3-2.9,27.57-11.84,36.39-18.27l1.08-36.86"/>
    <g>
      <path class="cls-40" d="M765.11,943.12c-.93-.22-1.45-1.12-1.63-2s-.02-1.76.42-2.54c.94-1.63,2.78-2.61,4.41-3.4.95-.46,1.93-.87,2.89-1.31.08-.04.2-.13.13-.23s-.25-.06-.34-.02c-1.86.86-3.8,1.6-5.48,2.79-1.53,1.08-2.89,2.67-2.57,4.67.17,1.04.78,2.09,1.86,2.34.12.03.28,0,.36-.1.07-.08.06-.18-.06-.21h0Z"/>
      <path class="cls-40" d="M755.56,943.5c-2.29.06-2.36-3.2-2.14-4.78.06-.45.16-.9.32-1.33.22-.59.63-1.11,1.07-1.57,1.16-1.2,2.71-1.87,4.24-2.45.86-.32,1.68-.76,2.52-1.14s1.78-.77,2.74-.77c.16,0,.55-.24.21-.25-1.79,0-3.41,1.02-4.99,1.72-.81.36-1.64.63-2.44,1.01s-1.49.79-2.14,1.33c-.61.51-1.18,1.13-1.55,1.83-.21.4-.32.84-.4,1.28-.21,1.09-.25,2.28.04,3.36.14.54.38,1.08.8,1.46s.97.54,1.53.52c.08,0,.3-.04.34-.13s-.03-.12-.13-.12h0Z"/>
      <path class="cls-40" d="M748.81,941.54c-1.24-.39-1.96-1.62-2.24-2.83s-.11-2.36.44-3.42c1.16-2.22,3.56-3.61,5.76-4.6.63-.29,1.28-.54,1.93-.77.77-.27,1.54-.59,2.34-.77.05-.01.26-.08.23-.16-.03-.08-.23-.03-.28-.02-.76.17-1.48.47-2.22.72-.62.21-1.23.45-1.83.7-1.25.54-2.47,1.16-3.59,1.95-1.99,1.4-3.78,3.5-3.39,6.1.21,1.4.99,2.86,2.41,3.3.12.04.57-.16.41-.21h0Z"/>
      <path class="cls-40" d="M741.92,940.4c-1.53-.61-2.71-1.92-3.28-3.45-.49-1.33-.57-2.89.22-4.11.72-1.12,1.89-1.94,3.02-2.6,1.24-.72,2.56-1.3,3.89-1.82.65-.25,1.31-.48,1.96-.73.42-.16.84-.34,1.26-.5s.91-.35,1.37-.33c.11,0,.29-.03.33-.16.04-.11-.04-.21-.16-.22-.83-.04-1.63.34-2.37.64-.68.28-1.37.51-2.05.77-1.43.54-2.85,1.14-4.19,1.89-1.25.7-2.52,1.54-3.37,2.72s-.97,2.69-.58,4.11c.51,1.84,1.86,3.43,3.65,4.14.22.09.59-.23.29-.35h0Z"/>
    </g>
    <path class="cls-10" d="M765.84,912.93c-2.37.09-4.61,1.12-6.22,2.86l-9.84,10.89,2.78-.62,15.35-13.21-2.07.08Z"/>
    <path class="cls-10" d="M750.45,926.67s.87-2.25,4.78-2.91c12.3-2.06,39.91-2.57,43.85,15.42l-4.45,1.9s-6.07-13.55-17.59-14.35c-11.52-.81-26.59-.06-26.59-.06Z"/>
    <path class="cls-30" d="M701.23,490.16l122.13-8.82s30.48,48.61,38.19,73.73c7.72,25.12.85,94.62.85,94.62-28.4,19.19-59.04,16.8-92.94,11.75l-5.88-42.58-21.65,42.83-21.97-3.52c-18.07-2.9-35.03-10.58-49.12-22.25l-5.25-7.68,27.99-70.81c-2.88-10.94,5.66-66.56,5.66-66.56l1.99-.71Z"/>
    <path class="cls-22" d="M878.31,362.84c-16.55,9.8-21.13,19.55-28,31.18-4.99,7.66-11.73,14.02-19.67,18.55l-13.51-41.83,21.11-31.64.55-.34-.55.34,66.03-49.87-37.25-86.77,17.82-4.66s54.98,54.12,60.67,90.01c3.43,17.33-48.49,64.04-67.2,75.03Z"/>
    <path class="cls-22" d="M831.28,358.55l1.19,57.24c.94-1.1-7.53,32.24-8.59,34.34s-.53,31.18-.53,31.18c0,0-21.71,15.84-68.69,22.21-46.98,6.37-55.43-12.66-55.43-12.66l10.3-38.7s-10.83-93.99-10.3-96.65,41.24-38.4,42.29-35.95c1.05,2.45,22.05,1.58,22.05,1.58,12.27,14.22,17.15,11.59,43.27,3.41l22.58,1.97,1.85,32.01Z"/>
    <polygon class="cls-24" points="700.43 381.4 671.38 317.52 715.2 285.09 745.95 322.7 700.43 381.4"/>
    <path class="cls-24" d="M815.83,394.5s16.65,25.44,16.51,23.15c-.09-1.74,15.41-20.35,23.58-28.94,9-9.12,19.32-16.84,30.61-22.9.78-.27-24.02-51.43-24.02-51.43l-15.98,6.97c-1.47-1.66-8.82.11-12.3,1.41-2.5-.53-7.6,4.05-7.6,4.05l-10.81,67.68Z"/>
    <path class="cls-24" d="M699.24,490.87l124.12-9.52,9.18-65.55-3.73-89.3-21.96-1.92s-11.53,24.18-42.63,20.89c-15.11-8.47-12.5-17.15-9.68-24.16l-11.91-1.83s-35.67,43.18-41.21,58.39c-5.52,15.23-2.18,113.02-2.18,113.02Z"/>
    <path class="cls-24" d="M823.36,481.35l19.28,33s-42.05,26.61-96.7,22.11c-54.64-4.5-53.58-11.96-53.58-11.96l7.23-52.73,123.76,9.58Z"/>
    <path class="cls-37" d="M764.57,620.15c1.38-14.7-2.75-29.83-11.26-41.89-2.4-3.41-5.14-6.57-8.18-9.42-1.17-1.1-2.94.66-1.77,1.77,10.37,9.74,17.07,23.24,18.62,37.38.44,4.04.47,8.11.09,12.16-.15,1.6,2.35,1.59,2.5,0h0Z"/>
    <path d="M698.86,269.66c-.62,1.17-.82,2.51-.58,3.81.27,1.53,1.2,2.85,2.54,3.63,1.84.89,4.03.66,5.65-.59.92-.72,1.55-1.74,1.79-2.88.25-1.26.26-2.56.04-3.83-.37-2.62-1.51-5.59-.72-8.82.78-3.31,2.92-6.13,5.9-7.77,1.54-.86,3.23-1.42,4.97-1.65,1.79-.2,3.6-.17,5.39.11,1.71.26,3.45.37,5.18.32,1.62-.07,3.17-.71,4.37-1.8,1.1-1.14,1.84-2.57,2.16-4.12.34-1.51.47-3.07.38-4.62-.34-2.94-.3-5.91.11-8.85.58-2.58,1.91-4.94,3.83-6.76,1.6-1.42,3.46-2.52,5.47-3.25,1.47-.57,2.9-1.24,4.27-2.01,1.13-.71,2.11-1.63,2.88-2.73l-.08.25c-.11.24-.25.46-.42.67-.6.84-1.36,1.54-2.23,2.08-1.36.84-2.79,1.57-4.27,2.18-1.93.75-3.71,1.86-5.24,3.26-1.79,1.75-3.03,3.98-3.55,6.43-.36,2.87-.37,5.78,0,8.66.11,1.62-.01,3.24-.36,4.82-.35,1.7-1.17,3.28-2.37,4.53-1.33,1.26-3.08,1.99-4.91,2.07-1.79.06-3.57-.04-5.34-.31-1.71-.26-3.44-.3-5.16-.11-1.64.21-3.23.73-4.68,1.54-2.78,1.52-4.79,4.13-5.54,7.21-.75,2.94.29,5.77.65,8.53.23,1.36.19,2.74-.11,4.09-.29,1.27-1.02,2.4-2.06,3.19-1.79,1.34-4.18,1.55-6.18.56-2.38-1.46-3.35-4.42-2.31-7.01.13-.3.3-.58.51-.83Z"/>
    <path class="cls-40" d="M797.89,304.38s-5.8,10.59-28.39,11.7c0,0-7.97.54-11.51-1.2l.74-4.8,39.16-5.7Z"/>
    <g>
      <path class="cls-22" d="M810.35,290.68c.44-2.12,3.14-3.61,3.48-5.51.97-5.57,2.52-11.02,3.66-16.55.83-1.3,1.62-2.83,2.18-3.75.87-1.27,2.1-2.65,2.96-3.92,2.44-2.82,6.54-1.14,8.57,1.21l.29.71c2.54,4.97-.27,15.83-7.6,22.17-1.84,7.23-9,10.26-13.53,5.64Z"/>
      <path class="cls-22" d="M737.86,265.84c.79-2.77,3.33-7.76,3.59-10.5.3-3.17,2.84-18.26,7.27-27.31,5.39-11.03,9.84-16.21,9.84-16.21.75-1.89-4.31-1.82-2.99-3.21l.85.14s-.46.13-.55.71c1.11.01,2.29-.4,3.22-.91,0,.03,0,.03,0,.03,1.19.8,2.56.42,3.79-.38-.03.2-.31.55-.52.52,1.25.41,2.63.03,3.61-.61-.03.2-.31.55-.34.75,1-.02,2.05-.36,2.95-.76-.19.18-3.18-.75-4.41-1.07.08-.08.19-.18.39-.32l1.18-.55c1.04.37.89,1.01,1.87.37-.25.16.94-2.06.91-1.87,1.28.21.95.07,2.11-.34-.03.2,3.28,1.85,3.25,2.04,1.07.18.62,1.11,1.61.47-.18.12-.45-.46-.67-.7,1.07.43,1.46,1.18,2.61.42-.25.16,4.58-1.45,4.58-1.45,1.25.41.97.77,2.16.17-.49.32,5.97.61,5.69.97,1.07.18-2.68,3.58-1.73,3.13-.03.2,2.55-.18,2.55-.18.44.16.37.37.23.52-.08.23-.34.67-.53.63,1.18.8,2.74.65,4.15.08-.49.32-.77.68-1.02.84,1.07.18,1.89.51,3.08-.1-.03.2-.56.71-.77.68,1,.57,2.32.58,3.48.17-.03.2-.52.52-.77.68.82.34,1.67.48,2.62.03l-.77.68c.85.14,1.43.64,2.77.46-.03.2-.49.32-.52.52.64.11,1.5.25,2.17.16-.03.2-.74.48-.52.52.85.14,1.43.64,2.56.42-.24.16-.52.52-.77.68.85.14,1.68.48,2.59.23-.03.2-.31.55-.56.71.85.14,1.43.64,2.56.42-.03.2-.52.52-.77.68.85.14,1.68.48,2.56.42-.03.2-.49.32-.74.48.85.14,1.68.48,2.81.26-.06.39-.31.55-.34.75.64.11,1.1-.02,1.74.09l1,.57c2.34,4.41,8.94,13.54,8.94,13.54,5.74,6.38-10.56,13.56-11.39,17.24-.62,2.76,3.64,12.53,5.81,17.26-1.17,5.91-5.62,11.14-6.69,17.07-.42,2.32-4.79,6.64-5.17,9.12l-6.7,7.37c-9.84,7.12-25.23,10.56-35.05,10.28-4.81-.14-9.11.46-13.29-3.71-10.5-10.47-19.86-28.04-15.54-43.05Z"/>
      <path class="cls-22" d="M768.83,207.97c-.09.04-.18.08-.27.12.11-.1.21-.21.3-.32l-.03.2Z"/>
      <path class="cls-22" d="M759.58,208.26c-.15.1-.32.2-.49.29l.03-.16s.49-.32.46-.13Z"/>
    </g>
    <g>
      <path class="cls-13" d="M759.38,276.29c1.26.94,3.41,1.15,4.95.56.34-.13,1.34.23.86.41-2.04.78-5.09.35-6.72-.87-.16-.12-.11-.25.13-.28.24-.03.61.04.78.17"/>
      <path class="cls-13" d="M765.86,276.99c1.01-.26,2.09-.3,3.14-.2.15.02.34.11.44.22.07.09.08.2-.05.24-.53.18-1.16.19-1.72.08-.18-.03-.4-.12-.48-.28-.07-.15.12-.21.26-.18.46.09.95.08,1.39-.07.13.15.26.31.39.46-.94-.09-1.91-.05-2.81.19-.18.05-.41-.04-.54-.16-.1-.08-.19-.25-.01-.3"/>
      <path class="cls-13" d="M769.97,277.84c1.22.18,2.75-.08,3.5-.86,1.14-1.18.68-3.58-.69-4.7-.15-.12-.04-.23.13-.23.23,0,.47.12.63.24,1.2.98,1.74,3,1.32,4.22-.39,1.14-1.7,1.76-3.22,1.84-.45.02-.93.01-1.38-.06-.19-.03-.51-.14-.57-.3-.07-.16.11-.19.29-.16"/>
      <path class="cls-13" d="M757.25,275.31c.09-.12-.02-.23-.11-.25-.33-.05-.65-.2-.89-.47-.13.11-.26.22-.39.33.65.18,1.27.51,1.8.99.1.1.28.08.4,0,.09-.05.2-.18.1-.28"/>
      <path class="cls-13" d="M758.14,275.64c-.59-.54-1.29-.89-2.01-1.1-.11-.03-.26,0-.35.08-.08.07-.11.16-.04.24"/>
      <path class="cls-13" d="M754.69,275.02c-.79-.17-1.63-.84-1.87-1.8-.36-1.44.47-2.93,1.61-3.62.12-.07.09-.2-.02-.26-.13-.07-.32-.02-.45.06-.99.59-1.76,1.71-1.85,2.98-.08,1.19.53,2.15,1.42,2.65.26.15.55.27.85.33.12.02.34,0,.43-.12.08-.13-.02-.21-.13-.24"/>
    </g>
    <path class="cls-33" d="M817.74,274.75c1.51-2.19,3.13-4.33,5-6.23,1-1.01,2.07-1.99,3.31-2.69.05-.03.1-.06.16-.09.17-.09-.13.06.04-.02.09-.05.19-.09.28-.14.07-.03.14-.06.22-.09.07-.03.39-.13.12-.05.13-.04.26-.07.39-.11.16-.05-.2.02-.04,0,.01,0,.15-.02.15-.02,0,0,.1,0,.11,0-.27.03-.16,0-.09,0,.13,0,.05.05-.07-.02-.46-.25-.27-.29-.22-.09s.17.4.23.6c.78,2.38.27,5.02-.71,7.27-.29.67,1.15.52,1.36.06.99-2.28,1.55-4.86.92-7.31-.09-.36-.2-.79-.41-1.11-.15-.22-.35-.24-.59-.25-.71-.01-1.43.24-2.06.54-1.3.62-2.45,1.54-3.5,2.52-2.27,2.12-4.17,4.63-5.93,7.18-.2.29.17.44.4.46.33.02.76-.12.95-.4h0Z"/>
    <path d="M742.83,237.08c5.24-1.14,8.53-.87,17.12,1.1v.2c.02,1.14,0,.5.02,1.65.01.87.02,1.74.03,2.61-2.81-.68-4.82-1.45-6.63-1.73-3.43-.53-7.33-1.56-10.82-1.11-.55-1.56-.12-1.86.28-2.73Z"/>
    <path d="M778.63,241.97c-.15,1.13-.07.5-.22,1.64-.12.87-.23,1.73-.34,2.59,2.87-.35,4.96-.87,6.79-.93,3.63-.13,7.84-.73,11.36.31,1.68.5,4.09,1.27,5.11,2.98.27.46.69,2.03,1.41,1.82.29-.09.03-1.54,0-1.69-.54-2.94-2.8-4.44-5.67-5.51-5.85-2.2-8.92-2.41-18.41-1.4"/>
    <path d="M750.05,248.22c-1.12-.84-2.65-.52-3.57.05-.22.14-.8.53-1.17,1.3-.47.98-.25,2.22.28,3.03.71,1.09,2.12,1.49,3.31,1.16,1.61-.45,2.4-2.18,2.24-3.55-.03-.25-.18-1.32-1.09-1.99"/>
    <path d="M760.46,254.17s-5.28-5.7-8.32-6.51c-4.44-1.19-7.88.33-9.85,2.28,0,0,5.44-2.44,8.55-1.52,2.97.89,9.62,5.75,9.62,5.75Z"/>
    <path d="M785.18,254.47c1.33-.43,2.68.35,3.36,1.2.16.2.59.76.69,1.61.13,1.08-.47,2.18-1.23,2.78-1.02.81-2.49.73-3.51.03-1.38-.95-1.57-2.83-.99-4.08.11-.23.6-1.19,1.67-1.54"/>
    <path d="M777.9,257.15s7.24-3.62,10.6-3.4c6.05.4,11.04,4.69,12.38,7.18,0,0-7.86-5.88-11.32-6.03-3.3-.15-11.66,2.25-11.66,2.25Z"/>
    <path class="cls-15" d="M763.96,284.93c6.03.83,15.71,2.15,15.71,2.15,0,0-3.52,12.81-17.51,10.88-13.98-1.93-10.83-15-10.83-15,0,0,6.6,1.14,12.63,1.97Z"/>
    <path class="cls-33" d="M763.9,284.92c2.87.4,14.29,2.22,14.29,2.22,0,0-5.4,7.18-15.77,5.75-11.25-1.55-9.29-9.09-9.29-9.09l10.77,1.12Z"/>
    <path class="cls-19" d="M763.7,285.4c2.87.4,11.46,1.83,11.46,1.83,0,0-3.43,2.42-12.03,1.23-8.6-1.19-10.08-4.21-10.08-4.21l10.65,1.15Z"/>
    <path class="cls-15" d="M751,282.15c.32-.04.32-.05,1.76,0,2.41.09,3.37-.63,5.11-.54,2.97.14,3.63,1.49,4.91,1.66,1.28.18,3.33-.91,6.23-.24,1.7.39,5.64,2.49,7.98,3.06,1.4.34,2.42.62,2.71.75.41.18.04,2.19-16-.03-16.05-2.22-13.14-4.6-12.7-4.67Z"/>
    <path d="M804.23,200.41c3.8-.05,7.87.1,10.98,2.26,3.29,2.31,3.36,7.2,6.08,10.28,15.81,17.88,5.26,29.33,10.47,44.47-1.66.32-3.3.88-4.89,1.71-3.1,1.63-6.54,5.24-8.61,7.9-4.83-1.66-4.75-5.09-6.16-10.83-1.32-5.31,1.22-13.13-2.34-17.19-4.73-5.35-15.81-1.9-20.55-7.24-2.77-3.09-4.16-10.35-6.9-13.14-2.74-2.79-4.63-2.92-8.52-2.83-3.89.1-7.92.66-11.64-.46-3.72-1.12-9.31-3.53-8.67-7.37,15.88-4.08,34.36-7.36,50.76-7.57Z"/>
    <path class="cls-33" d="M818.88,276.17c2.69.29-1.83,6.38.79,6.35.78,0,1.34-.52,1.74-1.14.57-.88.96-1.88,1.31-2.86.48-1.36.78-2.55.81-3.98.04-1.66-.17-3.66-1.71-4.63-.37-.23-1.71.33-1.16.67,1.19.74,1.39,2.45,1.42,3.72.02.94-.03,1.91-.29,2.81-.33,1.12-.71,2.24-1.2,3.3-.16.35-.34.7-.55,1.02-.09.13-.19.25-.28.38-.02.03-.07.05-.08.08-.13.26.73.03.72-.13,0-.15-.13-.32-.13-.5,0-.27.07-.56.14-.82.16-.67.39-1.33.57-2,.32-1.25.48-2.82-1.19-3-.34-.04-.76.04-1.02.27-.2.18-.19.44.13.47h0Z"/>
    <path class="cls-22" d="M958.38,750.73c17.29-21.99,33.69-21.09,50.73-28.09,3.08,5.56,5.53,18.69,10.53,40.64,6.88,30.24-4.65,142.51-4.65,142.51l-23.64-.12s-15.97-74.31-32.97-154.95Z"/>
    <path class="cls-22" d="M1009.02,740.52c-1.21-.21-2.43-.44-3.63-.7-16.7-3.56-29.99-16.71-45.72-23.17,20.32-55.37,36.69-99.52,40.82-109.23,11.09-26.09,29.04-72.67,29.04-72.67l123.73-29.65c-7.29,8.56-14.45,17.23-21.2,26.23-7.65,10.21-14.8,20.83-20.87,32.06-5.94,10.99-10.86,22.56-14.06,34.65-1.27,4.79-2.26,9.64-2.97,14.54-.94-1.71-1.7-2.61-2.2-2.51-5.11.99-82.93,129.6-82.93,129.6,0,0,.01.3.01.86Z"/>
    <path class="cls-10" d="M918.69,936.91s-2.16,2.74-.36,6.98c1.81,4.25,29.18-2.82,38.92-2.64,9.74.18,54.94.48,64.17-2.54,9.23-3.02-.67-13.08-.67-13.08l-102.07,11.28Z"/>
    <path class="cls-22" d="M1015.46,897.93c.31,10.52,3.9,16.4,5.4,20.98,1.72,5.27-.24,9.56-5.86,12.38-4.72,2.37-7.93,2.2-13.27,2.42-6.98.28-20.2-.53-27.18-.25-5.98.24-30.16,2.49-35.91,4.09-8.94,2.49-14.67,1.67-18.83.59-1.15-.3-1.84-.17-2.44-.98-1.55-2.11-1.61-4.59,1.21-6.75,3.55-2.73,8.38.13,11.64-2.99.58-.56,1.11-1.17,1.8-1.6,1.35-.83,3.07-.83,4.68-.96,8.02-.66,17.59-5.69,27.84-9.39,3.01-1.09,24.8-18.55,27.54-20.15"/>
    <path class="cls-40" d="M939.35,925.57c-2.14.67-4.18,1.67-6.11,2.79-.64.42-1.37.79-1.77,1.42-.85-.53-1.84-.82-2.84-.91-.98-.09-1.98-.02-2.94.23,1.89-.58,4.04-.48,5.8.52l-.11.03c.45-.68,1.14-1.03,1.77-1.42,1.96-1.09,4.01-2.1,6.2-2.65h0Z"/>
    <path class="cls-10" d="M934.74,927.46s10.45-4.4,11.3,9.88l6.41-.33s-3.25-13.13-9.28-13.2c-6.04-.08-8.42,3.65-8.42,3.65Z"/>
    <path class="cls-22" d="M1110.18,617.99c9.15,2.7,19.11.7,28.62,1.27,15.43.93,22.93.46,38.28-.93-8.22,32.85-12.42,100.74-11.15,115.12,1.94,21.96,19.86,41.8.63,165.19l-27.68-4.22s-15.44-75.44-25.34-141.56c-4.62-30.83-9.37-91.21-15.46-134.87,6.7,2.95,5.08-2.08,12.12,0Z"/>
    <path class="cls-10" d="M1172.41,926.09s1.9-.01,2.43,6.43c.71,8.63-26.13,9.07-33.23,10.14-7.1,1.07-29.41,9.43-45.45,11-16.04,1.58-32.98-7.13-34.9-12.11-1.92-4.98-.11-7.41,3.25-8.95,3.36-1.54,102.65-11.38,102.65-11.38l5.26,4.87Z"/>
    <path class="cls-22" d="M1166.8,888.85c-.12,5.43,2.2,12.98,4.14,24.27.85,4.97,5.33,11.87.29,15.83-8.92,7-20.13,5.08-24.27,6.33-8.73,2.63-15.8,3.04-24.13,6.34-8.44,3.35-10.17,4.14-19.6,5.32-1.3.16-2.69.2-3.86-.32-.79-.35-1.42-.93-2.21-1.27-2.78-1.22-6.06.83-9.16.62-1.37-.09-2.64-.63-3.93-1.03-3.41-1.07-7.08-1.26-10.65-1.79-3.57-.53-7.23-1.47-9.83-3.72-2.6-2.25-3.76-6.09-1.81-8.87,2.94-4.19,7.21-2.1,11.52-2.75,4.29-.64,5.88-1.43,9.59-3.4,9.47-5.04,10.92-6.04,18.92-10.02,6.21-3.09,27.2-12.67,35.82-19.37l-.05-36.88"/>
    <g>
      <path class="cls-40" d="M1097.48,945.49c-.93-.19-1.47-1.06-1.69-1.93s-.09-1.76.33-2.55c.88-1.67,2.69-2.71,4.3-3.55.94-.49,1.91-.93,2.86-1.41.31-.16.03-.37-.21-.25-1.84.91-3.76,1.72-5.41,2.97-1.49,1.13-2.81,2.76-2.41,4.75.2,1.02.84,2.05,1.93,2.27.12.02.28,0,.36-.1.06-.08.06-.19-.06-.21h0Z"/>
      <path class="cls-40" d="M1087.95,946.16c-2.3.13-2.47-3.16-2.28-4.75.05-.44.13-.89.28-1.31.21-.6.61-1.14,1.03-1.6,1.12-1.22,2.64-1.94,4.15-2.56.84-.35,1.63-.79,2.45-1.2.86-.42,1.78-.85,2.75-.88.08,0,.3-.04.34-.13s-.03-.12-.13-.12c-1.77.05-3.36,1.09-4.9,1.85-.8.39-1.64.69-2.43,1.1-.74.38-1.47.83-2.1,1.38s-1.16,1.16-1.51,1.88c-.2.41-.3.87-.37,1.31-.18,1.1-.18,2.29.15,3.37.34,1.13,1.13,1.97,2.38,1.9.09,0,.3-.03.34-.13s-.03-.12-.13-.12h0Z"/>
      <path class="cls-40" d="M1081.14,944.42c-1.27-.36-2.03-1.58-2.34-2.8s-.16-2.34.36-3.41c1.09-2.24,3.44-3.71,5.61-4.76.62-.3,1.24-.57,1.88-.82.77-.3,1.54-.64,2.34-.85.05-.01.26-.08.23-.16s-.23-.03-.28-.02c-.77.2-1.5.52-2.24.8-.59.23-1.18.47-1.75.74-1.23.57-2.44,1.23-3.53,2.05-1.93,1.45-3.66,3.58-3.22,6.14.24,1.41,1.07,2.88,2.52,3.29.11.03.26,0,.35-.06.05-.03.17-.11.06-.14h0Z"/>
      <path class="cls-40" d="M1074.21,943.48c-1.55-.56-2.79-1.84-3.39-3.37-.52-1.32-.64-2.86.12-4.11.7-1.15,1.85-2,2.98-2.7,1.23-.77,2.55-1.39,3.88-1.95.64-.27,1.28-.52,1.92-.78.81-.33,1.69-.9,2.58-.88.29,0,.38-.38.04-.38-.81-.01-1.61.41-2.34.73-.65.29-1.32.54-1.97.81-1.43.59-2.84,1.24-4.16,2.03-1.21.73-2.44,1.6-3.25,2.79s-.91,2.73-.46,4.14c.57,1.82,1.96,3.37,3.77,4.02.22.08.59-.24.29-.35h0Z"/>
    </g>
    <path class="cls-10" d="M1097.28,915.29c-2.37.16-4.58,1.26-6.13,3.05l-9.51,11.18,2.76-.71,14.95-13.67-2.06.14Z"/>
    <path class="cls-10" d="M1082.32,929.49s.8-2.28,4.69-3.05c12.23-2.44,39.81-3.78,44.3,14.08l-4.39,2.03s-6.48-13.36-18.02-13.81c-11.54-.46-26.58.75-26.58.75Z"/>
    <path class="cls-22" d="M1034.71,295.45c-11.77-20.47-23.91-48.66-32.65-64.23-10.58,4.85-21.77,8.39-33.25,10.2l.19.93c11.78,78.67,60.87,126.23,60.87,126.23,0,0,31.49-38.58,31.82-40.24.33-1.66-20.88-18.25-26.98-32.89Z"/>
    <path class="cls-22" d="M972.99,210.55l-3.61,14.66c11.09,3.24,21.67,8.82,33.23,8.89,2.19-8.18,7.65-20.71,11.13-34.92,7.31-29.82,13.48-74.65,13.48-74.65l-17.69-3.92-21.71,50.14c-5.86,12.92-11.43,26.02-14.82,39.79Z"/>
    <path class="cls-22" d="M1267.18,275.89c-12.02-4.69-24.07-4.09-36.99-4.54l6.38-85.24,18.37-4.23s15.76,44.62,12.34,93.18c-.02.27-.06.56-.09.84Z"/>
    <path class="cls-22" d="M1157.4,339.35l.54-.36.42.36,70.64-65.08,1.83-4.75c2.09.71,4.11,1.61,6.05,2.66,9.51,5.16,17.15,13.17,25.67,19.78-12.01,25.06-53.55,58.86-71.12,69.91-16.25,10.3-32.48,20.44-38.99,32.27-4.75,7.81-1.76,10.14-9.56,14.91l-5.62-37.43,20.14-32.27Z"/>
    <path class="cls-22" d="M1151.04,359.01l2.93,57.18c.9-1.13-6.55,32.45-7.54,34.59s.42,31.19.42,31.19c0,0-21.21,16.5-67.98,24.29-46.77,7.79-50.01-10.97-50.01-10.97l3.34-38.99s-9.83-93.73-9.39-96.41c.45-2.67,36.2-39.52,37.33-37.1,1.13,2.42,22.09.91,22.09.91,12.7,13.84,17.49,11.06,43.36,2.09l22.63,1.28,2.83,31.94Z"/>
    <path class="cls-29" d="M1026.62,382.76l-36.79-61.12h0c16.97-4.98,31.56-15.97,41.02-30.91l1.79-2.83,32,37.86-38.03,57Z"/>
    <path class="cls-29" d="M1136.68,395.41s6.41,15.92,6.2,13.64c-.14-1.74,23.78-16.81,31.69-25.64,8.72-9.39,20.8-12.42,31.9-18.82.77-.3-25.57-50.67-25.57-50.67l-18.78,8.88c-1.52-1.62-7.14,1.11-9.23.35-2.51-.45-7.47,4.28-7.47,4.28l-8.74,67.98Z"/>
    <path class="cls-29" d="M1028.85,495.28l118-13.29,10.18-95.8-9.44-59.14-22.01-1.25s4.47,18.82-26.73,16.47c-15.36-8-26.91-13.97-24.31-21.06l-13.31,1.45s-34.12,32.47-39.2,47.84c-5.05,15.39,6.82,124.81,6.82,124.81Z"/>
    <path class="cls-29" d="M1146.85,481.99l20.28,32.4s-41.22,27.88-95.98,25.04c-54.76-2.84-51.99-10.38-51.99-10.38l9.48-52.87,118.22,5.81Z"/>
    <path class="cls-29" d="M1179.78,612.56l2.96,84.56s-1.33,9.67-14.57,10.07c-13.24.4-21.12-6.24-31.4-6.61-10.27-.38-18.82,6.08-35.69,8.65-16.87,2.58-31.12,9.2-54.73,1.66-23.62-7.54-23.78-13.03-37.57-13.99-13.79-.96-25.61,3.81-36.73.02s-14.12-11.95-14.12-11.95c0,0,60.83-105.33,60.06-130.6-.77-25.27-.16-19.34,5.47-45.61,5.62-26.27,138.06-3.73,138.06-3.73,0,0,27.35,36.33,18.26,107.52Z"/>
    <path class="cls-22" d="M961.67,711.18s-9.79,23.82-1.47,48.13c8.31,24.3,30.17,6.9,30.17,6.9l-3.06-42.9-25.64-12.13Z"/>
    <path class="cls-22" d="M1132.7,289.17s-11.6,23.37-7.73,34.55c.52,1.5,3.08,3.52,3.11,4.84,0,0-14.34,20.1-38.63,16.38-24.29-3.72-16.62-23.04-16.62-23.04.94-.46,1.44.68,2.39.23.26-.13.53-.26.71-.47.29-.32.34-.77.38-1.19,1.23-11.77,2.14-23.57,2.97-35.38"/>
    <path class="cls-40" d="M1111.77,307.18s-5.59,9.86-26.9,10.69c0,0-4.77.88-8.1-.8l.24-4.28,34.76-5.62Z"/>
    <path class="cls-6" d="M1058.12,275.22c7.09-3.67,9.5-11.76,9.75-19.23.24-7.15,7.11-17.2-1.58-18.08-.16-.02,3.96-5.59,1.34-5.43,2.11-3.67-3.65-4.11-3.83-8.61-.04-.91-.18-8.89,5.48-8.63,24.13-25.21,50.29-15.42,65.13-11.2,29.13,8.27,43.33,12.06,29.4,58.05-9.35,30.87-40.21,35.27-70.03,30.05-12.74-2.23-28.02-3.92-35.97-16.77.1-.05.2-.09.29-.14Z"/>
    <path class="cls-6" d="M1135.22,183.38c-7.73,2.39-12.05,8.52-13.58,16.2,1.32,1.57,4.34,3.54,5.67,5.1.36-.47.73-.92,1.11-1.36,1.45,1.7,5.63,3.69,7.11,5.36.51-.21,2.07-.63,3.92-1.09.45.52.9,1.04,1.36,1.56-1.38.16-2.52.45-3.28.88,1.68,1.93,6.46,3.61,8.04,5.62,3.42,4.35,7.14,10.06,10.74,14.27,1.17,1.12,2.06,2.17,2.78,3.13l-3.35,2.17,3.74,4.11c-.65,1.05-1.02,1.65-1.02,1.65l3.05,3.44s2.57-1.75,6.23-4.41c11.31,6.44,17.81-2.67,17.5-7.38-.14-2.08-.93-3.74-1.8-4.98,5.53-4.85,9.83-9.52,9.48-12.06-.71-5.1-6.89-17.24-9.91-22.95-.48-1.75-1.06-3.49-1.75-5.1l-.03-.1s-.01,0-.02,0c-.78-1.79-1.69-3.43-2.79-4.71-2.84-3.31-9.72-3.24-15.41-2.48-5.03-6.01-8.8-8.11-12.19-8.99-4.75-1.23-13.65,3.82-14.75,5.36-.54.75-.75,3.82-.83,6.76ZM1174.05,235.3c2.34-1.8,4.77-3.73,7.09-5.67-.15,1.13-.49,2.37-1.15,3.64-1.12,2.14-3.68,2.35-5.94,2.03ZM1149.14,176.85c.41.43,1.59,2.89,2.75,5.44-4.01-.29-7.44-.02-9.23,0-.2,0-.39.01-.58.02-.62-1.59-1.31-3.74-1.17-5.05.25-2.31,6.1-2.62,8.23-.41Z"/>
    <path class="cls-22" d="M1085.31,215.79c-.08.1-.18.2-.28.3.09-.04.17-.07.25-.11l.03-.18ZM1076.11,216.27l-.03.15c.16-.09.32-.18.46-.27.03-.18-.44.11-.44.11ZM1128.62,296.85l1.63-2.86c.86,6.11,9.37,3.76,11.42-3.96,6.98-5.91,9.72-16.13,7.38-20.84l-.26-.67c-1.89-2.23-5.75-3.86-8.07-1.22-.83,1.19-2,2.48-2.83,3.66-.86,1.37-2.27,4.19-3.5,5.3,0,0,6.79-13.28,7.61-16.75.81-3.47,2.2-12.14-3.15-18.21,0,0-6.14-8.68-8.31-12.86l-.94-.54c-.6-.11-1.04,0-1.64-.1.03-.18.27-.33.33-.7-1.07.19-1.84-.13-2.65-.27.23-.15.67-.26.7-.45-.84.04-1.61-.28-2.41-.42.23-.15.7-.45.73-.63-1.07.19-1.61-.28-2.41-.42.23-.15.5-.48.53-.67-.87.23-1.64-.1-2.44-.24.23-.15.5-.48.73-.63-1.07.19-1.61-.28-2.41-.42-.2-.04.47-.3.5-.48-.64.08-1.44-.06-2.04-.17.03-.18.47-.3.5-.48-1.27.16-1.81-.32-2.61-.46l.73-.63c-.9.41-1.7.27-2.47-.05.23-.15.7-.45.73-.63-1.1.38-2.34.35-3.28-.19.2.04.7-.45.73-.63-1.13.56-1.9.24-2.91.06.23-.15.5-.48.97-.78-1.33.53-2.81.65-3.92-.11.2.04.5-.48.53-.67-.93.6.74-.06-.24-.42,0,0-2.44.33-2.41.15-.9.41,2.67-2.76,1.66-2.93.27-.33-5.83-.67-5.36-.96-1.13.56-.86.22-2.04-.18,0,0-4.56,1.48-4.33,1.33-1.17.75-1.48-.11-2.66-.5.23-.15.59.9.82.75-.93.6-.51-.28-1.51-.45.03-.18-3.08-1.77-3.04-1.96-1.1.38-.79.52-1.99.3.03-.18-1.11,1.9-.88,1.75-.93.6-.79,0-1.76-.36l-1.12.51c-1.17.75.28.59-.89.19.02-.13,4.43,1.37,4.66,1.16-.85.37-1.84.68-2.79.69.03-.18.3-.52.33-.7-.93.6-2.24.94-3.41.54.2.04.47-.3.5-.48-1.17.75-2.47,1.09-3.58.32v-.03c-.88.48-1.99.85-3.04.83.1-.55.53-.67.53-.67l-.8-.14c-1.26,1.3,3.51,1.28,2.79,3.05,0,0-4.24,4.84-9.43,15.19-4.26,8.49-6.8,22.7-7.11,25.69-.27,2.59-2.71,7.27-3.49,9.87-4.21,14.12,4.45,30.78,14.25,40.75,3.91,3.98,7.97,3.45,12.5,3.62,9.25.36,23.8-2.74,33.15-9.36"/>
    <g>
      <path class="cls-13" d="M1075.71,280.32c1.18.9,3.2,1.12,4.66.57.32-.12,1.26.23.81.4-1.93.72-4.8.28-6.33-.88-.15-.12-.1-.23.12-.26.23-.03.57.05.73.17"/>
      <path class="cls-13" d="M1081.82,281.04c.95-.24,1.97-.27,2.97-.16.15.02.32.1.41.21.07.09.07.19-.05.22-.5.17-1.09.16-1.62.06-.17-.03-.38-.11-.45-.27-.06-.14.11-.2.24-.17.44.09.9.09,1.31-.05.12.15.24.29.36.44-.89-.1-1.8-.06-2.65.15-.17.04-.38-.05-.51-.15-.09-.08-.18-.24,0-.28"/>
      <path class="cls-13" d="M1085.69,281.88c1.15.19,2.59-.05,3.31-.78,1.08-1.1.67-3.37-.61-4.44-.14-.12-.04-.21.13-.22.21,0,.44.11.59.24,1.12.93,1.61,2.84,1.21,3.99-.38,1.07-1.62,1.64-3.05,1.7-.43.02-.87,0-1.3-.07-.17-.03-.48-.14-.54-.28-.06-.15.11-.18.27-.15"/>
      <path class="cls-13" d="M1073.71,279.37c.09-.12-.01-.22-.11-.24-.31-.05-.61-.19-.84-.45-.12.1-.25.2-.37.3.61.18,1.19.49,1.68.95.1.09.26.07.38.01.08-.05.19-.17.09-.26"/>
      <path class="cls-13" d="M1074.55,279.69c-.55-.52-1.2-.86-1.89-1.06-.1-.03-.24,0-.33.08-.07.06-.1.15-.04.23"/>
      <path class="cls-13" d="M1071.3,279.08c-.74-.17-1.53-.81-1.74-1.71-.32-1.36.47-2.76,1.55-3.39.12-.07.08-.19-.01-.24-.13-.07-.3-.02-.42.05-.94.55-1.68,1.59-1.77,2.8-.09,1.13.48,2.03,1.32,2.51.25.14.52.26.8.32.11.02.33.01.4-.11.08-.12-.01-.2-.12-.22"/>
    </g>
    <path d="M1136.35,280.43c1.49-2.11,3.08-4.18,4.93-5.99.97-.96,2.03-1.88,3.24-2.54.5-.27,1.06-.52,1.61-.56,0,0,.09,0,.14,0,.06,0,0,0,.04,0-.05-.01-.05-.06-.04-.02s.04.09.06.13c.08.18.15.36.2.55.73,2.32.19,4.87-.78,7.03-.04.08.24.05.28-.04.93-2.07,1.45-4.46.89-6.71-.06-.25-.14-.5-.24-.75-.03-.08-.07-.23-.13-.3-.06-.06-.15-.05-.23-.05-.54,0-1.08.21-1.55.44-1.16.55-2.19,1.38-3.13,2.24-1.8,1.67-3.36,3.6-4.81,5.57-.24.33-.48.66-.72,1-.07.1.21.07.26,0h0Z"/>
    <path d="M1062.37,243.22c5-.81,8.08-.38,16.07,1.92v.19c-.05,1.08-.03.47-.08,1.56-.03.82-.07,1.64-.11,2.46-2.61-.79-4.47-1.61-6.16-1.97-3.2-.68-6.82-1.84-10.13-1.6-.44-1.49-.02-1.76.4-2.55Z"/>
    <path d="M1094.15,248.28c-.14,1.07-.06.47-.2,1.54-.11.82-.21,1.63-.31,2.45,2.7-.33,4.68-.83,6.4-.9,3.43-.13,7.4-.71,10.71.26,1.59.47,3.86,1.18,4.82,2.8.26.43.65,1.92,1.33,1.71.28-.08.03-1.45,0-1.6-.52-2.77-2.66-4.18-5.37-5.19-5.52-2.06-8.42-2.25-17.37-1.27"/>
    <path d="M1136.1,280.57c.6.11,1.53.29,1.72.99.15.55-.21,1.15-.47,1.61-.37.64-.8,1.24-1.14,1.9-.31.59-.57,1.28-.44,1.96.1.57.47,1.15,1.09,1.17.73.02,1.43-.43,1.97-.87.87-.71,1.55-1.65,2.06-2.65.34-.66.58-1.38.84-2.07.28-.75.49-1.53.58-2.32.09-.88.01-1.85-.57-2.56-.15-.18-.33-.33-.52-.46-.07-.04-.3.07-.26.1,1.59,1.04,1.16,3.32.66,4.84-.16.49-.36.97-.53,1.45-.41,1.13-1.04,2.2-1.86,3.09-.52.56-1.27,1.27-2.08,1.34-.65.06-1.02-.59-1.11-1.16-.11-.66.16-1.33.46-1.91.33-.63.74-1.22,1.1-1.83.28-.48.67-1.11.51-1.69-.2-.71-1.15-.91-1.77-1.02-.07-.01-.31.1-.23.11h0Z"/>
    <path d="M1067.19,253.76c-1.05-.8-2.49-.52-3.37.02-.21.13-.76.49-1.12,1.21-.46.92-.26,2.09.23,2.86.66,1.04,1.99,1.43,3.11,1.12,1.53-.41,2.28-2.03,2.15-3.33-.03-.24-.16-1.24-1.01-1.89"/>
    <path d="M1076.94,259.47s-4.93-5.43-7.79-6.22c-4.18-1.16-7.44.24-9.31,2.05,0,0,5.15-2.25,8.08-1.35s9.02,5.52,9.02,5.52Z"/>
    <path d="M1100.26,259.99c1.26-.4,2.52.36,3.16,1.16.15.19.55.72.64,1.52.12,1.02-.46,2.05-1.19,2.61-.97.75-2.35.67-3.31,0-1.3-.91-1.46-2.68-.89-3.86.1-.21.57-1.11,1.59-1.44"/>
    <path d="M1093.37,262.44s6.86-3.35,10.03-3.1c5.71.44,10.37,4.53,11.61,6.89,0,0-7.36-5.62-10.62-5.8-3.11-.17-11.02,2.01-11.02,2.01Z"/>
    <path class="cls-7" d="M1075.25,218.51c-1.66,4.94-7.81-.55-3.82-1.14-.03-2.54,3.62-2.94,3.96-5.46.11.24.18.44.18.44,0,0,.62-2.99,1.75-3.54,1.13-.55,6.05-2.04,6.05-2.04l1.19,1.27c-.02-.08-.33-1.15.47-1.62.81-.48,9.16-3.14,14-1.98.16.04.32.08.48.13l1.85,1.41.06.05s-.04-.04-.07-.06c-.32-.27-1-.93-.53-1.29.16-.13.47-.22.98-.25.75-.04,1.84.06,3.01.23,0,0,0-.01,0-.02.11.02.22.04.33.07.11.02.22.03.33.05,0,0,0,.01,0,.02,1.16.24,2.22.52,2.91.81.47.2.72.39.84.56.32.5-.54.89-.94,1.04-.03.01-.06.02-.08.03l.08-.02,2.22-.7c.16,0,.33.02.49.04,4.94.55,11.89,5.89,12.49,6.62.6.72-.06,1.62-.11,1.69l1.55-.79s5.46,3.31,6.34,4.21c.88.9,1.03,2.72,1.03,2.72,0,0,1.67.97,2.35.87.68-.09,3.7,2.22,4.73,4.43.66,1.42.13,2.55.37,3.74h0c.14.67.21,1.11.21,1.11l3.24,1.75c2.53,1.81.84,7.37.84,7.37,4.26,7.6,3.53,13.31.04,18.99-1.35,2.19,4.95,5.73.66,4.89s-10.32,12.17-10.32,12.17c0,0-2.77-5.97-2.52-8.47.25-2.5,2.74-9.62,2.74-9.62l-2.05-.66s-1.19-.74-2.24-3.81c-1.05-3.07,2.64-7.56,2.64-7.56l1.35-2.87-4.15-.43c-3.84-1.37-3.31-5.7-3.31-5.7l1.94-7.02-2.8,1.98s-1.11.97-2.47.63c-6.06-1.54-6.11-5.49-6.11-5.49l-.19-3.74-1.74.76c-1.88,1.06-7.28,2.26-9.66.71-.62-.41-3.07-3.09-3.48-3.48-1.44-1.49-1.28-3.82-1.16-4.67.28-.19.56-.44.83-.65,1.04-.8,1.39-.33.35.48-1.8,1.38-4.76,3.25-7.04,2.95-2.19-.29-6.73-2.01-7.13-3.12-.27-.74.44-.71-.37-.81-.7-.09-1.39.3-1.92.73-1.25,1.01-2.26,2.64-3.85,3.14-2.32.71-3.4-.68-5.46-1.51-.46-.18-1.16-.05-1.35.5Z"/>
    <path class="cls-5" d="M1070.85,213.67s-.66-4.88,2.48-7.07c3.14-2.19,15.26-11.07,32.9-8.01l-35.38,15.07Z"/>
    <path class="cls-15" d="M1078.78,288.34c6.13.91,15.96,2.35,15.96,2.35,0,0-3.57,12.03-17.78,9.93-14.21-2.11-10.15-13.96-10.15-13.96,0,0,5.85.77,11.98,1.68Z"/>
    <path class="cls-33" d="M1078.72,288.33c2.91.43,14.52,2.39,14.52,2.39,0,0-5.48,6.68-16.02,5.11-11.43-1.7-8.58-8.34-8.58-8.34l10.08.84Z"/>
    <path class="cls-19" d="M1079.38,288.94c2.91.43,11.64,1.96,11.64,1.96,0,0-3.48,2.22-12.23.92-8.74-1.3-10.24-4.18-10.24-4.18l10.82,1.3Z"/>
    <path class="cls-15" d="M1065.61,285.45c.32-.04.32-.04,1.79.04,2.44.13,3.42-.53,5.19-.41,3.02.2,3.69,1.48,4.99,1.67,1.3.19,3.38-.79,6.33-.1,1.73.4,5.73,2.47,8.11,3.05,1.43.35,2.46.64,2.76.77.41.18.04,2.07-16.26-.35-16.31-2.42-13.35-4.62-12.9-4.66Z"/>
    <g>
      <path class="cls-27" d="M809.51,322.53s-16.13,21.86-40.3,19.38c-17.72-1.82-16.12-12.94-16.12-12.94l1.3-10.45-6.16.95s-3,11.19-.11,17.6c2.89,6.41,12.08,12.34,27.59,10.87,9.1-.86,19.95-4.39,29.82-11.58,9.87-7.18,13.81-11.13,13.81-11.13l-9.83-2.71Z"/>
      <path class="cls-28" d="M808.84,322.51c-1.83,2.48-4.08,4.7-6.37,6.76-5.18,4.66-11.24,8.53-17.92,10.64-4.04,1.28-8.26,1.9-12.49,1.76-4.17-.14-8.57-.86-12.26-2.9-3.38-1.87-6.04-5.25-6.02-9.25,0-1.2.26-2.42.4-3.61.31-2.49.62-4.99.93-7.48.04-.32-.41-.34-.63-.31-2.05.32-4.11.63-6.16.95-.28.04-.74.17-.82.49-1.33,4.99-2.11,10.92-.72,15.96,1.52,5.53,6.67,9.25,11.83,11.1,7.47,2.69,15.82,2.35,23.48.71,8.81-1.89,17.1-5.78,24.36-11.09,4.62-3.38,9.41-6.83,13.48-10.89.22-.22.17-.43-.14-.51-3.28-.9-6.56-1.8-9.83-2.71-.46-.13-1.7.56-.89.79,3.28.9,6.56,1.8,9.83,2.71l-.14-.51c-2.85,2.85-6.12,5.33-9.31,7.77-7.28,5.58-14.92,10.25-23.81,12.78-7.7,2.19-16.19,3.02-23.99.85-5.17-1.44-10.52-4.56-12.81-9.65-1.53-3.41-1.42-7.46-1.03-11.1.23-2.15.58-4.31,1.14-6.4l-.82.49c2.05-.32,4.11-.63,6.16-.95l-.63-.31c-.44,3.59-1.14,7.23-1.33,10.84s1.99,7.13,4.97,9.19c3.27,2.27,7.31,3.21,11.21,3.64,4.38.48,8.8.21,13.09-.78,7.32-1.68,14.06-5.4,19.86-10.13,3.17-2.59,6.28-5.52,8.73-8.83.39-.52-1.07-.42-1.35-.03Z"/>
    </g>
    <g>
      <path class="cls-29" d="M1128.94,323.02s-15.55,21.86-38.84,19.38c-17.08-1.82-15.54-12.94-15.54-12.94l1.25-10.45-5.94.95s-2.89,11.19-.1,17.6c2.79,6.41,11.64,12.34,26.6,10.87,8.78-.86,19.23-4.39,28.74-11.58,9.51-7.18,13.31-11.13,13.31-11.13l-9.48-2.71Z"/>
      <path class="cls-38" d="M1128.28,323.05c-1.76,2.47-3.94,4.71-6.15,6.78-4.96,4.65-10.81,8.53-17.29,10.68-3.95,1.31-8.14,1.91-12.3,1.71-4.02-.2-8.29-.96-11.77-3.09-3.22-1.98-5.56-5.34-5.52-9.21.01-1.19.25-2.45.4-3.65.29-2.46.59-4.92.88-7.37.03-.28-.43-.23-.6-.21l-5.94.95c-.22.04-.77.16-.84.43-1.26,4.92-1.99,10.65-.78,15.63,1.33,5.51,6.16,9.33,11.24,11.28,7.22,2.78,15.42,2.41,22.86.76,8.58-1.91,16.61-5.83,23.6-11.12,4.47-3.39,9.11-6.87,13.02-10.92.1-.11.07-.24-.08-.28-3.16-.9-6.32-1.8-9.48-2.71-.37-.11-1.66.48-1.18.62,2.05.58,4.1,1.17,6.14,1.75.88.25,2.1.86,3.03.86.62,0-.14.14.22-.17-.12.1-.21.24-.33.33-.63.48-1.18,1.12-1.76,1.65-1.2,1.08-2.42,2.14-3.67,3.17-3.91,3.25-7.91,6.5-12.25,9.16-8.42,5.16-18.34,8.42-28.28,8.23-7.26-.14-15.52-2.46-19.79-8.82-2.25-3.36-2.55-7.48-2.32-11.42.16-2.76.56-5.55,1.25-8.23l-.84.43c1.98-.32,3.96-.63,5.94-.95l-.6-.21c-.43,3.58-1.06,7.19-1.28,10.79-.22,3.63,1.82,7.06,4.7,9.14,3.1,2.24,6.97,3.2,10.71,3.64,4.19.49,8.44.22,12.55-.73,7.14-1.65,13.69-5.35,19.26-10.04,3.12-2.63,6.18-5.59,8.56-8.93.32-.44-1.1-.27-1.33.05Z"/>
    </g>
    <path class="cls-38" d="M1147.68,482.87c-17.09,7.95-35.19,14.46-54,16.71-17.84,2.13-36.14,0-52.26-8.26-2.26-1.16-4.47-2.43-6.62-3.79-1.13-.72-2.24-1.46-3.34-2.23-.53-.37-1.05-.74-1.57-1.12-.37-.27-1.36-.75-1.56-1.09-.14-.24-.09-.88-.11-1.14l-.22-2.19c-.1-1.03-.2-2.06-.31-3.09l-1.28.61c4.27,2.76,8.86,5.09,13.46,7.23,9.68,4.51,19.98,8.05,30.6,9.44,10.64,1.39,21.35-.15,31.8-2.25,9.9-1.98,19.66-4.62,29.3-7.61,5.18-1.6,10.35-3.28,15.44-5.17l-1.04-.23c.43,1.6.87,3.2,1.3,4.8.18.66,1.63.27,1.45-.39-.43-1.6-.87-3.2-1.3-4.8-.12-.45-.74-.34-1.04-.23-.17.06.21-.08-.08.03-.23.09-.47.17-.7.26-.84.3-1.69.6-2.53.89-2.96,1.03-5.94,2.02-8.93,2.97-9.15,2.91-18.41,5.51-27.79,7.58-10.21,2.25-20.93,4.28-31.43,3.5-10.78-.8-21.3-4.09-31.17-8.4-5.56-2.43-11.11-5.15-16.21-8.46-.45-.29-1.34,0-1.28.61.09.91.18,1.82.27,2.72.11,1.11.05,2.44.35,3.52.13.46.47.63.87.94,1.08.82,2.18,1.61,3.3,2.38,2.01,1.38,4.08,2.68,6.2,3.88,7.88,4.47,16.46,7.6,25.36,9.32,18.17,3.5,36.99,1.02,54.59-4.14,10.68-3.13,21.04-7.26,31.12-11.96.9-.42.1-1.19-.64-.84Z"/>
    <path class="cls-22" d="M1071.41,89.14l-14,20.21-1.48,4.54s-8.97,9.64-11.09,11.42-17.71,6.84-17.71,6.84l-3.75,14.77-20.1-12.79s5.86-11.85,5.92-13.99c.67-2.78,2.16-5.3,4.27-7.23,1.82-1.86,12.11-13.62,12.11-13.62,0,0,7.7-17.91,10.8-15.16.69.77,1.29,1.62,1.8,2.52,0,0-5.38,11.38-4.57,12.77l2.39,1.04s10.86-13.83,13.28-15.9c2.42-2.07,4.59-2.89,6.35-1.13,0,0,.49,1.91-.06,2.52-.55.61-12.99,15.58-12.08,16.21s1.99-.79,1.99-.79c0,0,14.69-18.56,15.99-19.15,1.62-.91,3.66-.44,4.72,1.08l-7.31,11.29s7.2-8.09,9.78-7.78c1.34.06,2.47,1.01,2.76,2.31Z"/>
    <path class="cls-40" d="M1027.71,116.39c1.47-1.37,3.2-2.53,5.01-3.4,2.39-1.15,4.96-1.22,7.57-1.11,1.49.07,3.03.44,4.51.42,1.13-.02,2.06-1.72,2.71-2.49.75-.88,1.25-1.47,1.65-2.53.77-2.01,1.59-4.16,2.9-5.89,1.42-1.87,3.13-4.12,5.77-3.63-.36-.07.86.27.72.3.17-.04-.1.07-.04-.25-.02.12-.02.26-.06.38-.17.54-.19,1.18-.27,1.74-.5,3.15-1,6.3-1.49,9.46-.12.77,1.36.61,1.47-.09.29-1.85.59-3.7.88-5.56l.63-4c.09-.58.4-1.44.32-2.02-.16-1.1-2.03-1.2-2.87-1.18-1.65.04-3.09.86-4.25,1.99-2.33,2.28-3.75,5.12-4.93,8.12-.46,1.16-.42,1.21-1.14,2.06l-2.35,2.78.86-.32c-2.99-.45-6.15-.69-9.15-.33-3.51.42-6.84,2.43-9.4,4.81-.72.66.41,1.25.98.73h0Z"/>
    <path class="cls-40" d="M1043.02,104.55c-1.33-1.14-2.87-2.07-4.42-2.86-3.16-1.63-6.66-2.6-10.23-2.41-.27.01-.82.1-.96.37s.12.32.36.31c4.92-.27,10.18,1.93,13.9,5.12.33.28,1.65-.27,1.36-.52h0Z"/>
    <path class="cls-22" d="M1221.22,125.26l2.19,24.49-.95,4.68s3.04,12.82,4.01,15.41,10.12,14.37,10.12,14.37l2.48,13.63,19.19.19s.76-13.2,1.76-15.09c.79-2.75.74-5.67-.14-8.39-.66-2.52-3.81-17.82-3.81-17.82,0,0,2.15-19.37-1.9-18.52-.98.33-1.92.77-2.81,1.3,0,0-.94,12.55-2.33,13.36l-2.59-.27s-2.62-17.38-3.7-20.38c-1.08-2.99-2.57-4.78-4.96-4.12,0,0-1.37,1.42-1.19,2.22s3.61,19.97,2.5,20.06-1.34-1.67-1.34-1.67c0,0-3.62-23.39-4.45-24.55-.96-1.59-2.96-2.19-4.63-1.39l.78,13.43s-2.27-10.59-4.66-11.59c-1.19-.61-2.64-.34-3.54.65Z"/>
    <path class="cls-40" d="M1247.1,170.26c-.61-1.91-1.53-3.79-2.64-5.45-1.48-2.23-3.5-3.68-5.82-4.95-1.02-.55-2.06-1.06-3.11-1.54-.49-.22-1.42-.85-1.98-.84-.27,0,.08.23.14.11.09-.17-.16-.84-.19-1.03-.18-.93-.35-1.86-.53-2.79-.13-.68-.12-.47-.03-1.09.17-1.04.3-2.09.4-3.14.22-2.31.13-4.58-.45-6.84-.55-2.15-2.01-4.2-4.37-4.56-1.43-.22-1.71.59-2.12,1.7-1.23,3.27-2.46,6.54-3.69,9.81-.3.79,1.15.81,1.39.18,1.38-3.66,2.76-7.33,4.13-10.99l-.56.42c1.5-.27,2.94,1.52,3.44,2.8.52,1.32.77,2.87.87,4.29.12,1.62-.09,3.29-.3,4.9-.1.74-.34,1.55-.29,2.3.07,1.05.41,2.15.6,3.19.12.64.07,1.38.66,1.73.79.47,1.79.74,2.63,1.13,1.61.75,3.19,1.57,4.66,2.58,2.85,1.96,4.68,5.21,5.71,8.47.22.68,1.66.29,1.45-.39h0Z"/>
    <path class="cls-40" d="M1238.86,153.61c-.43.08.11-.02.21-.03.34-.05.68-.09,1.02-.13,1.15-.12,2.3-.15,3.45-.11,3.38.12,6.74.94,9.61,2.77.41.26,1.74-.33,1.15-.71-4.47-2.86-10.49-3.55-15.65-2.54-.22.04-.7.27-.62.57.08.31.62.22.83.18h0Z"/>
    <path class="cls-22" d="M831.66,147.46l8.93,22.9.39,4.76s6.49,11.46,8.15,13.68c1.65,2.22,13.73,10.97,13.73,10.97l10.03,12.4,14.63-5.16s-2.95-12.89-2.52-14.98c0-2.86-.87-5.65-2.48-8.02-1.34-2.23-8.63-16.05-8.63-16.05,0,0-3.34-19.21-6.99-17.25-.85.59-1.63,1.27-2.33,2.03,0,0,2.6,12.32,1.49,13.48l-2.57.46s-7.36-15.97-9.23-18.54c-1.87-2.57-3.8-3.88-5.91-2.57,0,0-.92,1.74-.53,2.46.39.72,9.03,18.17,8,18.57s-1.76-1.23-1.76-1.23c0,0-10-21.46-11.12-22.33-1.36-1.26-3.46-1.28-4.84-.04l4.49,12.68s-5.13-9.54-7.71-9.83c-1.31-.25-2.63.41-3.22,1.61Z"/>
    <path class="cls-40" d="M869.09,183.56c-1.93-2.88-4.65-5.56-7.96-6.72-2.8-.98-5.83-1.47-8.78-1.72l.45.24c-.48-.95-.96-1.9-1.45-2.85-.32-.63-.65-1.15-.74-1.83-.43-3.13-.97-6.1-2.45-8.93-.71-1.35-1.63-2.65-3.06-3.3-1.09-.49-2.82-.83-3.88-.11-.59.4-.47.9-.53,1.59l-.28,3.56c-.18,2.32-.36,4.64-.54,6.96-.05.61,1.41.35,1.45-.17.3-3.9.6-7.81.9-11.71l-.43.4c1.45-.72,3.28.75,4.12,1.87s1.48,2.5,1.94,3.81c.57,1.58.85,3.27,1.1,4.92.1.67.1,1.45.32,2.08.38,1.07,1.07,2.11,1.58,3.12.31.6.38,1.08,1.06,1.21,2.65.53,5.31.66,7.91,1.52,3.32,1.09,6.01,3.76,7.92,6.62.28.42,1.69-.06,1.34-.58h0Z"/>
    <path class="cls-40" d="M856.72,169.56c4.2-2.16,9.53-2.91,14.07-1.57.3.09.75-.03,1.01-.18.13-.07.49-.31.17-.4-3.51-1.03-7.24-.83-10.77.03-1.82.44-3.67,1.04-5.34,1.9-.23.12-.39.23-.17.4.2.16.83-.08,1.01-.18h0Z"/>
    <path class="cls-22" d="M1267.74,271.25s-.29,17.05-10.9,30.34c-10.61,13.29-21.34-33.54-21.34-33.54l32.24,3.2Z"/>
    <path class="cls-15" d="M266.56,169.3c-6.02-.92-15.67-2.42-15.67-2.42,0,0-.28,13.29,13.68,15.42,13.95,2.13,14.66-11.29,14.66-11.29,0,0-6.65-.79-12.67-1.71Z"/>
    <path class="cls-33" d="M266.62,169.31c-2.86-.44-14.33-1.95-14.33-1.95,0,0,3.13,8.42,13.48,10.01,11.22,1.72,11.49-6.07,11.49-6.07l-10.64-2Z"/>
    <path class="cls-19" d="M266.67,169.83c-2.86-.44-11.5-1.51-11.5-1.51,0,0,2.6,3.3,11.18,4.61,8.58,1.31,10.86-1.16,10.86-1.16l-10.54-1.94Z"/>
    <path class="cls-15" d="M279.78,170.33c-.29-.13-.29-.14-1.69-.49-2.33-.6-3.05-1.56-4.74-1.98-2.89-.71-3.91.39-5.18.2-1.27-.19-2.93-1.82-5.9-2.01-1.74-.11-6.12.78-8.52.66-1.44-.08-2.5-.09-2.82-.05-.44.06-.66,2.09,15.35,4.53,16.01,2.45,13.9-.67,13.5-.85Z"/>
  </g>
</svg>