<?xml version="1.0" encoding="UTF-8"?>
<svg xmlns="http://www.w3.org/2000/svg" xmlns:xlink="http://www.w3.org/1999/xlink" viewBox="0 0 1334 1000">
  <defs>
    <style>
      .cls-1 {
        fill: #a99231;
      }

      .cls-2 {
        stroke-width: .14px;
      }

      .cls-2, .cls-3, .cls-4 {
        stroke: #000;
      }

      .cls-2, .cls-3, .cls-4, .cls-5 {
        stroke-miterlimit: 10;
      }

      .cls-3 {
        stroke-width: .14px;
      }

      .cls-4 {
        stroke-width: .14px;
      }

      .cls-6 {
        fill: #3c5c2c;
      }

      .cls-7 {
        fill: #622515;
      }

      .cls-8 {
        fill: #24120e;
      }

      .cls-9 {
        fill: #67402e;
      }

      .cls-10 {
        fill: #273339;
      }

      .cls-11 {
        fill: #476c34;
      }

      .cls-12 {
        fill: #5e5f5f;
      }

      .cls-13 {
        fill: #010101;
      }

      .cls-14 {
        fill: url(#linear-gradient-2);
      }

      .cls-15 {
        fill: #653c29;
      }

      .cls-16 {
        fill: #231f20;
      }

      .cls-17 {
        fill: #ababab;
      }

      .cls-18 {
        fill: #f1edf6;
      }

      .cls-19 {
        fill: url(#linear-gradient);
      }

      .cls-20 {
        fill: #f1eef7;
      }

      .cls-21 {
        fill: #4d2f15;
      }

      .cls-22 {
        fill: #643c2a;
      }

      .cls-23 {
        fill: #a66e53;
      }

      .cls-24 {
        fill: #c95744;
      }

      .cls-5 {
        fill: none;
        stroke: #010101;
        stroke-width: .75px;
      }

      .cls-25 {
        fill: #1b120c;
      }

      .cls-26 {
        fill: #1884af;
      }

      .cls-27 {
        fill: #070505;
      }

      .cls-28 {
        fill: #c95843;
      }

      .cls-29 {
        fill: #5e1a15;
      }

      .cls-30 {
        fill: #d7b029;
      }

      .cls-31 {
        fill: #528293;
      }

      .cls-32 {
        fill: #354c24;
      }

      .cls-33 {
        fill: #7b5342;
      }

      .cls-34 {
        fill: #513835;
      }

      .cls-35 {
        fill: #ccb631;
      }

      .cls-36 {
        fill: #24180f;
      }

      .cls-37 {
        fill: #706027;
      }

      .cls-38 {
        fill: #a53b23;
      }

      .cls-39 {
        fill: #465b65;
      }

      .cls-40 {
        fill: #5b481c;
      }

      .cls-41 {
        fill: #4f2e25;
      }
    </style>
    <linearGradient id="linear-gradient" x1="680.18" y1="957.02" x2="730.16" y2="-229.7" gradientUnits="userSpaceOnUse">
      <stop offset=".29" stop-color="#bbe5f5"/>
      <stop offset=".81" stop-color="#76c7db"/>
    </linearGradient>
    <linearGradient id="linear-gradient-2" x1="682.7" y1="1124.74" x2="695.68" y2="816.45" gradientUnits="userSpaceOnUse">
      <stop offset=".01" stop-color="#769a3e"/>
      <stop offset=".98" stop-color="#496b33"/>
    </linearGradient>
  </defs>
  <g id="Layer_2" data-name="Layer 2">
    <rect class="cls-19" x="-46.45" y="-47.36" width="1498.42" height="936.5"/>
    <path class="cls-11" d="M929.74,877.17c7.62-8.25,15.7-17.57,15.93-28.8s-12.7-22.44-22.06-16.24c2.72-6.75.17-15.22-5.81-19.35-5.99-4.13-14.81-3.51-20.15,1.42-3.03-16.29-27.92-22.71-38.46-9.93.99-6.36-8-10.63-13.59-7.45-5.59,3.19-7.51,10.45-7.06,16.87-3.66-7.51-12.24-12.31-20.56-11.49-8.32.82-15.8,7.2-17.92,15.28-.8-7.11-1.97-14.94-7.45-19.53-5.49-4.59-16.4-1.99-16.25,5.16,1.65-10.1-3.98-20.96-13.19-25.45-9.2-4.48-21.22-2.22-28.16,5.31-1.35-9.9-5.05-20.23-13.27-25.91-8.22-5.69-21.67-4.2-25.85,4.88-4.73-7.74-12.32-14.83-21.39-14.82-9.07,0-17.5,10.77-12.58,18.39-6.71-11.19-27.62-6.78-29.23,6.17-4.82-7.48-14.88-11.12-23.38-8.47-8.5,2.66-14.68,11.38-14.39,20.28-8.45-5.2-20.18-4.36-27.81,1.98-7.63,6.35-10.58,17.74-6.99,26.99-25.39,2.03-46.64,69.21-36.76,92.69"/>
    <path class="cls-32" d="M740.46,924.93c-6.03-6.52-12.41-13.9-12.59-22.78-.18-8.88,10.04-17.75,17.45-12.84-2.15-5.34-.14-12.03,4.6-15.3,4.73-3.27,11.71-2.78,15.94,1.12,2.4-12.88,22.08-17.96,30.41-7.85-.78-5.03,6.32-8.41,10.74-5.89,4.42,2.52,5.94,8.27,5.58,13.34,2.89-5.94,9.68-9.74,16.26-9.09,6.58.65,12.49,5.69,14.17,12.09.63-5.62,1.56-11.82,5.89-15.45,4.34-3.63,12.97-1.57,12.85,4.08-1.3-7.99,3.15-16.58,10.43-20.12,7.28-3.54,16.78-1.75,22.27,4.2,1.06-7.83,3.99-15.99,10.49-20.49,6.5-4.5,17.14-3.32,20.44,3.86,3.74-6.12,9.74-11.72,16.91-11.72,7.17,0,13.84,8.51,9.95,14.54,5.3-8.85,21.84-5.36,23.11,4.88,3.81-5.92,11.77-8.8,18.48-6.69,6.72,2.1,11.61,9,11.38,16.03,6.68-4.11,15.96-3.45,21.99,1.57,6.03,5.02,8.36,14.02,5.53,21.34,20.08,1.61,34.74,25.72,26.93,44.29"/>
    <path class="cls-11" d="M375.67,903.07c7.62-8.25,15.7-17.57,15.93-28.8.23-11.23-12.7-22.44-22.06-16.24,2.72-6.75.17-15.22-5.81-19.35-5.99-4.13-14.81-3.51-20.15,1.42-3.03-16.29-27.92-22.71-38.46-9.93.99-6.36-8-10.63-13.59-7.45-5.59,3.19-7.51,10.45-7.06,16.87-3.66-7.51-12.24-12.31-20.56-11.49-8.32.82-15.8,7.2-17.92,15.28-.8-7.11-1.97-14.94-7.45-19.53-5.49-4.59-16.4-1.99-16.25,5.16,1.65-10.1-3.98-20.96-13.19-25.45-9.2-4.48-21.22-2.22-28.16,5.31-1.35-9.9-5.05-20.23-13.27-25.91-8.22-5.69-21.67-4.2-25.85,4.88-4.73-7.74-12.32-14.83-21.39-14.82-9.07,0-17.5,10.77-12.58,18.39-6.71-11.19-27.62-6.78-29.23,6.17-4.82-7.48-14.88-11.12-23.38-8.47-8.5,2.66-14.68,11.38-14.39,20.28-8.45-5.2-20.18-4.36-27.81,1.98-7.63,6.35-10.58,17.74-6.99,26.99-25.39,2.03-43.94,32.53-34.06,56.01"/>
    <path class="cls-32" d="M237.99,905.15c-7.63-8.26-15.72-17.6-15.95-28.85-.23-11.25,12.72-22.48,22.1-16.26-2.72-6.76-.17-15.24,5.82-19.38,6-4.14,14.83-3.52,20.19,1.42,3.04-16.32,27.97-22.75,38.52-9.94-.99-6.37,8.01-10.65,13.61-7.46,5.6,3.19,7.52,10.47,7.07,16.9,3.67-7.53,12.26-12.33,20.59-11.51,8.33.82,15.83,7.21,17.95,15.31.8-7.12,1.97-14.97,7.47-19.56,5.49-4.6,16.42-1.99,16.28,5.17-1.65-10.12,3.99-21,13.21-25.49,9.22-4.49,21.26-2.22,28.21,5.32,1.35-9.92,5.06-20.26,13.29-25.96,8.23-5.7,21.71-4.21,25.89,4.88,4.74-7.75,12.34-14.85,21.43-14.84,9.09,0,17.53,10.78,12.6,18.42,6.72-11.21,27.66-6.79,29.28,6.18,4.83-7.49,14.9-11.14,23.41-8.48,8.51,2.66,14.71,11.4,14.41,20.31,8.46-5.21,20.21-4.37,27.85,1.99,7.64,6.36,10.59,17.76,7,27.03,25.43,2.03,44.01,32.58,34.12,56.1"/>
    <path class="cls-6" d="M49.05,917.96c-6.03-6.52-12.41-13.9-12.59-22.78-.18-8.88,10.04-17.75,17.45-12.84-2.15-5.34-.14-12.03,4.6-15.3,4.73-3.27,11.71-2.78,15.94,1.12,2.4-12.88,22.08-17.96,30.41-7.85-.78-5.03,6.32-8.41,10.74-5.89,4.42,2.52,5.94,8.27,5.58,13.34,2.89-5.94,9.68-9.74,16.26-9.09,6.58.65,12.49,5.69,14.17,12.09.63-5.62,1.56-11.82,5.89-15.45,4.34-3.63,12.97-1.57,12.85,4.08-1.3-7.99,3.15-16.58,10.43-20.12s16.78-1.75,22.27,4.2c1.06-7.83,3.99-15.99,10.49-20.49,6.5-4.5,17.14-3.32,20.44,3.86,3.74-6.12,9.74-11.72,16.91-11.72,7.17,0,13.84,8.51,9.95,14.54,5.3-8.85,21.84-5.36,23.11,4.88,3.81-5.92,11.77-8.8,18.48-6.69,6.72,2.1,11.61,9,11.38,16.03,6.68-4.11,15.96-3.45,21.99,1.57,6.03,5.02,8.36,14.02,5.53,21.34,20.08,1.61,34.74,25.72,26.93,44.29"/>
    <path class="cls-6" d="M1352.33,902.65c7.46-7.73,15.37-16.47,15.63-26.96.25-10.49-12.33-20.94-21.49-15.11,2.67-6.31.21-14.22-5.62-18.06-5.83-3.84-14.44-3.24-19.67,1.38-2.91-15.21-27.19-21.15-37.51-9.17.98-5.94-7.77-9.91-13.24-6.92-5.47,2.99-7.36,9.79-6.94,15.79-3.55-7.01-11.92-11.47-20.04-10.68-8.12.79-15.44,6.77-17.54,14.33-.76-6.64-1.88-13.96-7.22-18.23-5.34-4.27-16-1.81-15.88,4.87,1.63-9.45-3.83-19.58-12.8-23.74-8.97-4.16-20.71-2.01-27.5,5.04-1.29-9.25-4.87-18.89-12.87-24.18-8-5.29-21.14-3.86-25.25,4.63-4.6-7.22-11.98-13.82-20.84-13.79-8.85.03-17.11,10.11-12.33,17.22-6.51-10.44-26.94-6.26-28.55,5.85-4.69-6.98-14.49-10.35-22.79-7.85-8.3,2.51-14.36,10.67-14.1,18.99-8.23-4.84-19.68-4.02-27.15,1.93-7.46,5.95-10.37,16.6-6.9,25.24-24.79,1.97-43.03,48.18-33.45,70.09"/>
    <path class="cls-14" d="M1421.38,1084.44H-44.25v-197.95l454.27-2.71c58.33-1.49,506.68-.89,565.02.55l446.33,2.16v197.95Z"/>
  </g>
  <g id="Layer_4" data-name="Layer 4">
    <path class="cls-35" d="M272.08,320.63s44.56,24.14,54.95,34.87c13.29,13.72,15.58,60.06,19.88,75.64,4.76,17.26,15.96,73.49,15.96,73.49l-63.54,11.29-22.56-60.87-6-129.99,1.31-4.44Z"/>
    <path class="cls-35" d="M279.23,492.23s42.38,5.07,51.58.27c6.14-3.21,11.88-11.19,17.81-14.75l54.84.82c5-.42,27.3-1.66,26.97.1h0c-2.15,7.29.3,19.62,3.74,26.61l1.02,1.69c-.06,2.36-22.98,7.47-27.44,8.44-19.05,4.14-63.91,15.5-74.46,17.44-12.37,2.28-36.88,8.12-50.31-9.93-12.78-12.21-3.75-30.69-3.75-30.69Z"/>
    <path class="cls-23" d="M967.92,223.75s-1.95,8.69,2.63,24c4.59,15.31,27-18.52,27-18.52l-29.64-5.48Z"/>
    <path d="M768.91,212.25c-2.4.41-5.6-1.68-8.71.03-.88.48-1.7-5.44-2.42-4.93-18.64,7-17.61,23.67-17.68,34.66,0,5.24,3.62,13.11-.27,16.75-3.89,3.63-10.77,2.81-14.48,6.53-4.36,4.38-1.58,11.78-3.48,17.58-2.04,5.57-8.06,8.8-14.23,7.64,6.63,6.13,14.86,10.45,23.79,12.48l7.52-7.72c-2.63,3-3.92,10.03-3.92,10.03,3.17,4.2,11.42,6.73,13.45,7.36,8.75,2.72,28.94,12.82,55.43,7.82-8.93-32.65-17.51-76.3-26.44-108.95"/>
    <path class="cls-23" d="M748.52,319.72c.07-1.69-16.69-2.31-24.92-15.86-14.04-18.31-44.07-61.63-49.02-71.71-3.08-7.6-5.47-22.3-10.95-37.32-10.52-28.84-30.33-69.53-30.33-69.53l-16.88,6.59,9.86,53.74c2.31,14,4.98,27.98,9.82,41.32l7.87,21.69c23.47,76.01,79.14,115.65,79.14,115.65,0,0,25.34-42.88,25.41-44.56Z"/>
    <path class="cls-23" d="M650.35,71.3l-.39,24.58,1.29,4.6s-2.09,13-2.87,15.66c-.77,2.66-10.91,15.53-10.91,15.53l5.1,14.36-23.82.56s-1.72-13.11-2.86-14.92c-.99-2.68-1.15-5.6-.47-8.38.48-2.56,2.49-18.05,2.49-18.05,0,0-3.57-19.16.54-18.61,1,.26,1.97.63,2.89,1.09,0,0,1.86,12.45,3.31,13.15l2.57-.46s1.33-17.53,2.19-20.6c.86-3.07,2.21-4.96,4.64-4.47,0,0,1.47,1.32,1.35,2.13s-2.13,20.18-1.02,20.19,1.22-1.77,1.22-1.77c0,0,1.89-23.6,2.64-24.81.84-1.66,2.79-2.4,4.52-1.73l.21,13.45s1.49-10.73,3.8-11.9c1.14-.7,2.61-.54,3.58.39Z"/>
    <path class="cls-41" d="M629.3,118.1c.45-1.91,1.22-3.79,2.18-5.5,1.33-2.36,3.3-3.91,5.57-5.33.91-.57,1.85-1.1,2.8-1.61.48-.25,1.12-.46,1.55-.79.78-.59.59-2.5.69-3.44.14-1.2.1-1.85-.15-3.02-.46-2.11-.9-4.3-.75-6.47.15-2.21.37-4.94,2.52-6.18l.21-.12c.56-.18.62-.24.18-.17.19-.14.55.29.22-.07.05.06.11.21.13.28.14.53.51,1.09.74,1.59,1.35,2.93,2.71,5.85,4.06,8.78.18.38,1.58-.1,1.45-.39-1.3-2.8-2.59-5.61-3.89-8.41-.32-.69-.64-2.13-1.39-2.38-.85-.29-1.99.31-2.69.72-.92.53-1.66,1.31-2.12,2.27-.87,1.81-1.01,4.3-.86,6.28.1,1.31.33,2.61.59,3.89.14.7.42,1.44.49,2.16.03.34-.13,1.21-.18,1.71-.09.76-.44,1.89-.3,2.64.07.36-.04.25.2.1-.2.13-.43.21-.64.32-.87.44-1.73.91-2.58,1.39-2.33,1.34-4.83,2.87-6.4,5.1-1.43,2.03-2.47,4.45-3.04,6.87-.09.36,1.34.15,1.43-.24h0Z"/>
    <path class="cls-41" d="M635.36,100.13c-5.36-.64-11.44.64-15.78,3.89-.26.19-.13.39.13.47.32.09.77-.08,1.02-.27,2.66-1.99,5.89-2.97,9.17-3.31,1.49-.15,3.2-.2,4.56-.04.32.04.79-.03,1.02-.27.19-.19.21-.43-.13-.47h0Z"/>
    <path d="M747.07,221.42c1.46-3.11,4.03-5.78,4.91-9.07.79-2.97.13-6.13.36-9.21.89-6.37,5.08-11.93,11.29-14.98,6.17-2.95,21.35-9.52,28.37-9.33,6.8-.02,14.05,1,19.25,5.06,3.67,2.83,5.96,6.88,9.63,9.7,4.99,3.85,11.79,4.9,18.14,6.28,6.35,1.38,13.14,3.51,16.69,8.51,4.96,6.99,1.48,16.29,4.06,24.23,2.55,1.26,5.25,2.2,8.06,2.77,1.58.42,3.08,1.08,4.45,1.94,1.49.9,2.67,2.23,3.41,3.83.69,1.73.72,3.69.09,5.53-.62,1.78-1.4,3.51-2.33,5.17-.9,1.6-1.6,3.3-2.08,5.06-.43,1.69-.54,3.43-.32,5.13.38,3.24,2.1,6.08,4.74,7.83,2.51,1.71,5.6,1.61,8.37,2.16,1.38.22,2.68.71,3.85,1.45,1.1.7,1.9,1.79,2.25,3.08.59,2.21-.12,4.64-1.83,6.28-2.3,1.87-5.49,1.86-7.55-.03-.24-.23-.44-.49-.6-.78.87,1,2.08,1.64,3.41,1.82,1.55.24,3.17-.25,4.42-1.32,1.55-1.53,2.16-3.76,1.6-5.77-.34-1.14-1.06-2.1-2.05-2.72-1.11-.66-2.33-1.1-3.62-1.3-2.63-.5-5.89-.35-8.66-2.18-2.85-1.86-4.71-4.9-5.14-8.37-.23-1.8-.12-3.65.33-5.45.49-1.84,1.22-3.61,2.16-5.28.9-1.6,1.66-3.28,2.28-5,.55-1.62.54-3.36-.05-4.9-.67-1.46-1.74-2.66-3.1-3.48-1.31-.84-2.74-1.47-4.25-1.89-2.6-.56-5.09-1.44-7.46-2.58,1.3,3.34,3.54,6.36,5.03,9.65.29.65.52,1.37.71,2.11,2.01,2.72,3.5,5.75,3.28,8.67-.45,5.97-3.35,12.31-4.67,17.29-.11.15-.19.32-.21.55,0,.13-.02.27-.03.4-.11.48-.19.94-.26,1.4.06.09.1.21.16.29-.09,2.27.02,4.54.91,6.66,1.24,2.97,3.92,5.08,6.58,6.72,2.75,1.7,5.89,3.03,9.12,3.64-4.13,3.77-10.82,9.61-13.47,10.32-.16.04-1.9,1.07-2.02.97-3.96-1.91-9.16-7.2-11.98-10.93,0,0,4.64,9.73,10.24,12.22l-3.48,2.42c-12.34,8.49-32.99,14.1-47.98,14.03,3.18-2.68,3.88-7.4,3.02-11.47-1.15-3.99-2.28-7.35-4.27-10.99-1.32-2.9,4.33-5.73,4.37-8.92-.31-.07-.65-.12-.94-.2l-52.75-53.01c-6.62-4.42-17.41-7.16-14.43-14.01Z"/>
    <path class="cls-23" d="M769.57,284.83c.2,12.55-2.27,20.09-2.49,32.63,0,.45-.22,4.21-.5,4.58-.18.24-2.88,1.77-3.14,1.93-.96.57-.99,2.7-1.94,3.27.17,2.61,3.21,2.92,4.83,5.05,3.22,4.2,10.03,6.41,15.24,7.42,13.65,2.65,27.19-1.39,37.43-8.96,1.23-.91,3.54-3.62,3.39-5.04s-4.44-3.35-5.12-4.88c-5.11-11.45,1.22-35.29,1.22-35.29"/>
    <path class="cls-23" d="M696.54,593.46c7.69-27.29,19.59-75.77,19.59-75.77l118.97-45.11c-6.15,9.41-12.15,18.93-17.7,28.71-6.3,11.1-12.04,22.54-16.63,34.45-4.49,11.65-7.91,23.75-9.56,36.15-.65,4.91-1.02,9.85-1.11,14.8-1.15-1.58-2.01-2.37-2.5-2.21-4.94,1.63-65.82,139.07-65.82,139.07,0,0,2.84,16.21-3.58,46.55-6.42,30.34-64.83,121.25-64.83,121.25l-24.01-5.42s60.28-268,67.18-292.47Z"/>
    <path class="cls-8" d="M559.93,920.96s-2.23,2.68-.54,6.97c1.7,4.29,29.25-2.07,38.98-1.63,9.73.43,54.91,1.91,64.21-.87,9.31-2.78-.33-13.09-.33-13.09l-102.33,8.63Z"/>
    <path class="cls-23" d="M657.68,884.51c.04,10.53,3.48,16.5,4.85,21.11,1.58,5.32-.49,9.55-6.18,12.22-4.78,2.25-7.98,2-13.33,2.07-6.99.1-20.18-1.05-27.16-.96-5.99.08-30.22,1.71-36.01,3.16-9.01,2.26-14.71,1.28-18.84.1-1.14-.33-1.84-.22-2.41-1.05-1.49-2.15-1.49-4.63,1.39-6.71,3.62-2.63,8.37.35,11.71-2.69.6-.54,1.14-1.14,1.84-1.55,1.37-.8,3.09-.75,4.7-.84,8.03-.45,17.73-5.23,28.07-8.67,3.04-1.01,25.28-17.9,28.05-19.43"/>
    <path class="cls-41" d="M580.88,910.17c-2.16.62-4.22,1.56-6.18,2.63-.65.4-1.39.76-1.8,1.37-.84-.55-1.82-.86-2.82-.98-.98-.11-1.98-.07-2.94.15,1.9-.53,4.06-.37,5.78.67l-.11.03c.47-.67,1.17-1,1.81-1.38,1.99-1.04,4.07-1.99,6.26-2.49h0Z"/>
    <path class="cls-8" d="M576.22,911.93s10.56-4.13,11.04,10.17l6.41-.16s-2.9-13.21-8.94-13.44c-6.03-.23-8.52,3.43-8.52,3.43Z"/>
    <path class="cls-23" d="M1022.69,605.65c7.05-27.46,17.8-76.21,17.8-76.21l117.87-47.9c-5.92,9.56-11.7,19.21-17.02,29.12-6.03,11.24-11.5,22.82-15.81,34.83-4.22,11.76-7.35,23.93-8.7,36.37-.54,4.93-.79,9.87-.76,14.82-1.19-1.55-2.07-2.33-2.55-2.15-4.9,1.75-62.53,140.58-62.53,140.58,0,0,3.22,16.14-2.48,46.62-5.71,30.48-61.95,122.75-61.95,122.75l-24.13-4.85s53.95-269.35,60.27-293.97Z"/>
    <path class="cls-8" d="M893.55,934.26s-2.22,2.69-.51,6.97c1.72,4.28,29.24-2.2,38.97-1.81,9.73.39,54.91,1.66,64.21-1.16,9.3-2.82-.39-13.09-.39-13.09l-102.29,9.08Z"/>
    <path class="cls-23" d="M991.13,897.37c.08,10.52,3.55,16.48,4.95,21.09,1.61,5.31-.45,9.56-6.12,12.25-4.77,2.27-7.97,2.03-13.32,2.13-6.98.13-20.18-.96-27.17-.83-5.99.11-30.21,1.85-35.99,3.32-9,2.3-14.7,1.35-18.84.18-1.14-.32-1.84-.21-2.42-1.04-1.5-2.14-1.51-4.62,1.36-6.72,3.61-2.65,8.37.31,11.7-2.74.59-.54,1.14-1.15,1.83-1.56,1.37-.8,3.09-.76,4.7-.86,8.03-.49,17.71-5.31,28.03-8.79,3.03-1.02,25.19-18.01,27.96-19.55"/>
    <path class="cls-41" d="M914.45,923.38c-2.15.63-4.21,1.58-6.17,2.66-.65.4-1.39.76-1.8,1.38-.84-.54-1.83-.86-2.82-.97-.98-.11-1.98-.06-2.94.16,1.9-.54,4.05-.39,5.79.64l-.11.03c.47-.67,1.16-1,1.8-1.39,1.99-1.05,4.06-2.01,6.25-2.52h0Z"/>
    <path class="cls-8" d="M909.8,925.16s10.54-4.18,11.09,10.12l6.41-.19s-2.96-13.19-9-13.4c-6.03-.21-8.5,3.47-8.5,3.47Z"/>
    <path class="cls-23" d="M799.69,609.3c8.87,2.91,18.66,1.25,27.94,2.09,15.06,1.36,27.21,1.28,42.27.38-9.02,31.87-19.95,97.97-19.14,112.07,1.24,21.53,19.14,41.49-3.34,161.56l-27.9-4.98s-16.53-83.01-20.57-139.15c-2.19-30.41-6.45-89.45-11.11-132.33,6.46,3.09,5.03-1.88,11.85.35Z"/>
    <path class="cls-8" d="M851.37,912.37s1.86.04,2.18,6.35c.44,8.45-25.82,8.09-32.79,8.92-6.97.83-29.04,8.34-44.76,9.41-15.72,1.06-32.03-7.96-33.77-12.88-1.73-4.92.11-7.25,3.44-8.66,3.33-1.41,100.7-8.07,100.7-8.07l5,4.92Z"/>
    <path class="cls-23" d="M846.99,875.79c-.28,5.3,1.76,12.76,3.32,23.85.69,4.88,4.85,11.77-.19,15.48-8.93,6.58-19.83,4.36-23.92,5.46-8.61,2.31-15.54,2.5-23.78,5.48-8.35,3.02-10.07,3.75-19.33,4.62-1.28.12-2.64.12-3.77-.42-.76-.36-1.36-.95-2.12-1.31-2.68-1.28-5.95.63-8.97.33-1.34-.13-2.56-.69-3.81-1.13-3.3-1.15-6.89-1.44-10.36-2.07-3.48-.62-7.03-1.66-9.5-3.93-2.47-2.27-3.5-6.07-1.51-8.73,3-4.01,7.12-1.84,11.34-2.34,4.22-.5,5.79-1.22,9.48-3.04,9.41-4.65,10.85-5.58,18.8-9.23,6.16-2.84,26.97-11.58,35.59-17.87l1.05-36.06"/>
    <g>
      <path class="cls-41" d="M777.53,929.1c-.91-.21-1.41-1.1-1.59-1.95s-.02-1.72.41-2.48c.92-1.59,2.72-2.55,4.31-3.32.93-.45,1.88-.85,2.82-1.28.08-.04.2-.13.13-.23s-.25-.06-.34-.02c-1.82.84-3.71,1.57-5.36,2.73-1.5,1.06-2.83,2.62-2.52,4.57.16,1.02.76,2.04,1.83,2.29.12.03.28,0,.36-.1.07-.08.06-.18-.06-.21h0Z"/>
      <path class="cls-41" d="M768.19,929.48c-2.23.06-2.31-3.13-2.09-4.67.06-.44.16-.88.31-1.3.22-.58.62-1.09,1.05-1.53,1.13-1.17,2.65-1.83,4.15-2.39.84-.32,1.64-.74,2.46-1.11s1.74-.75,2.67-.75c.16,0,.55-.24.21-.25-1.75,0-3.34,1-4.89,1.68-.79.35-1.61.62-2.39.99s-1.46.77-2.1,1.3c-.6.5-1.16,1.1-1.52,1.79-.2.39-.31.83-.39,1.25-.21,1.07-.24,2.23.04,3.29.14.52.38,1.05.78,1.43.41.38.95.52,1.5.51.08,0,.3-.04.34-.13s-.03-.12-.13-.12h0Z"/>
      <path class="cls-41" d="M761.59,927.57c-1.22-.38-1.92-1.58-2.19-2.76s-.11-2.3.43-3.34c1.13-2.17,3.48-3.53,5.63-4.5.62-.28,1.25-.53,1.89-.76.75-.27,1.51-.57,2.29-.75.05-.01.26-.08.23-.16-.03-.08-.23-.03-.28-.02-.74.17-1.45.46-2.17.7-.6.21-1.2.44-1.79.69-1.23.52-2.42,1.14-3.51,1.9-1.95,1.37-3.7,3.43-3.31,5.96.21,1.37.97,2.8,2.36,3.23.12.04.57-.16.41-.21h0Z"/>
      <path class="cls-41" d="M754.84,926.45c-1.49-.59-2.65-1.87-3.2-3.37-.48-1.3-.56-2.82.21-4.02.71-1.1,1.84-1.89,2.95-2.54,1.21-.71,2.5-1.27,3.81-1.78.63-.25,1.28-.47,1.92-.71.42-.15.82-.33,1.24-.49s.88-.34,1.34-.32c.11,0,.29-.03.33-.16.04-.11-.04-.21-.16-.22-.81-.04-1.59.33-2.33.63-.66.27-1.34.5-2,.75-1.4.53-2.79,1.11-4.09,1.85-1.22.68-2.47,1.51-3.3,2.66s-.95,2.63-.57,4.02c.5,1.8,1.82,3.36,3.57,4.05.22.09.59-.23.29-.35h0Z"/>
    </g>
    <path class="cls-8" d="M778.24,899.58c-2.32.09-4.51,1.09-6.09,2.8l-9.63,10.65,2.72-.61,15.02-12.92-2.02.07Z"/>
    <path class="cls-8" d="M763.18,913.02s.85-2.2,4.68-2.84c12.03-2.02,39.04-2.51,42.89,15.08l-4.35,1.86s-5.93-13.25-17.2-14.04c-11.27-.79-26.01-.05-26.01-.05Z"/>
    <path class="cls-31" d="M719.53,479.66l122.13-8.82s30.48,48.61,38.19,73.73c7.72,25.12.85,94.62.85,94.62-28.4,19.19-59.04,16.8-92.94,11.75l-5.88-42.58-21.65,42.83-21.97-3.52c-18.07-2.9-35.03-6.58-49.12-18.25l-5.25-7.68,23.99-74.81c-2.88-10.94,9.66-66.56,9.66-66.56l1.99-.71Z"/>
    <path class="cls-23" d="M890.67,356.95c-15.75,11.04-19.57,21.12-25.53,33.24-4.39,8.02-10.62,14.87-18.19,20l-16.68-40.67,18.62-33.17.52-.38-.52.38,62.02-54.78-43.8-83.66,17.41-6.01s58.96,49.75,67.39,85.1c4.75,17.02-43.44,67.57-61.25,79.96Z"/>
    <path class="cls-23" d="M843.46,356.29l5.57,56.98c.85-1.17-5.04,32.72-5.93,34.9s1.86,31.13,1.86,31.13c0,0-20.43,17.46-66.79,27.41-46.36,9.95-56.24-8.38-56.24-8.38l7.31-39.37s-18-92.88-17.68-95.57c.32-2.69,38.17-41.44,39.41-39.08s22.11-.11,22.11-.11c13.33,13.24,17.99,10.24,43.41.09l22.66.23,4.3,31.77Z"/>
    <polygon class="cls-24" points="714.74 389.1 680.88 327.63 722.09 291.94 755.62 327.08 714.74 389.1"/>
    <path class="cls-24" d="M830.8,393.32s18.55,24.09,18.23,21.82c-.22-1.73,13.8-21.48,21.3-30.66,8.28-9.78,17.97-18.27,28.77-25.18.76-.33-27.89-49.43-27.89-49.43l-15.39,8.17c-1.6-1.54-8.79.78-12.16,2.35-2.53-.33-7.27,4.62-7.27,4.62l-5.59,68.31Z"/>
    <path class="cls-24" d="M721.94,498.34l123.03-19.01,4.13-66.06-10.56-88.75-22.04-.23s-9.64,25-40.91,24.09c-15.72-7.29-13.77-16.15-11.51-23.35l-12.01-.91s-32.26,45.79-36.62,61.37c-4.33,15.6,6.49,112.85,6.49,112.85Z"/>
    <path class="cls-24" d="M841.66,470.85l19.28,33s-42.05,26.61-96.7,22.11-53.58-11.96-53.58-11.96l7.23-52.73,123.76,9.58Z"/>
    <path class="cls-39" d="M782.87,609.65c1.38-14.7-2.75-29.83-11.26-41.89-2.4-3.41-5.14-6.57-8.18-9.42-1.17-1.1-2.94.66-1.77,1.77,10.37,9.74,17.07,23.24,18.62,37.38.44,4.04.47,8.11.09,12.16-.15,1.6,2.35,1.59,2.5,0h0Z"/>
    <path d="M704.61,277.8c-.53,1.21-.63,2.57-.28,3.85.39,1.5,1.42,2.75,2.82,3.42,1.91.74,4.07.35,5.59-1.02.86-.79,1.41-1.85,1.57-3.01.15-1.28.07-2.57-.25-3.82-.57-2.58-1.93-5.46-1.4-8.73.52-3.36,2.44-6.34,5.29-8.2,1.47-.97,3.11-1.66,4.83-2.02,1.77-.34,3.58-.44,5.38-.31,1.73.13,3.46.1,5.19-.08,1.61-.19,3.1-.95,4.21-2.13,1.01-1.22,1.64-2.7,1.83-4.27.23-1.54.23-3.1.02-4.63-.56-2.91-.75-5.87-.57-8.83.38-2.62,1.53-5.07,3.3-7.03,1.49-1.54,3.26-2.78,5.21-3.66,1.42-.68,2.8-1.46,4.11-2.34,1.08-.79,1.98-1.79,2.67-2.94l-.06.26c-.1.24-.22.48-.36.7-.53.88-1.23,1.64-2.07,2.24-1.29.94-2.66,1.78-4.09,2.5-1.87.9-3.56,2.14-4.97,3.65-1.65,1.88-2.71,4.2-3.04,6.68-.14,2.89.08,5.79.66,8.63.23,1.6.23,3.23,0,4.84-.21,1.73-.91,3.36-2.02,4.7-1.23,1.36-2.92,2.22-4.74,2.44-1.78.2-3.57.23-5.35.1-1.72-.13-3.46-.04-5.16.28-1.62.33-3.17.98-4.55,1.9-2.65,1.73-4.45,4.49-4.97,7.61-.53,2.99.73,5.74,1.31,8.46.33,1.34.4,2.72.21,4.08-.19,1.29-.83,2.47-1.81,3.34-1.68,1.47-4.05,1.87-6.12,1.03-2.48-1.27-3.68-4.15-2.84-6.81.11-.31.26-.6.45-.87Z"/>
    <path class="cls-41" d="M806.01,304.84s-4.97,11-27.41,13.84c0,0-7.9,1.15-11.57-.32l.37-4.84,38.61-8.68Z"/>
    <g>
      <path class="cls-23" d="M817.38,290.22c.27-2.15,2.86-3.84,3.04-5.76.54-5.63,1.67-11.18,2.38-16.78.73-1.36,1.39-2.95,1.89-3.9.77-1.33,1.89-2.8,2.66-4.13,2.21-3,6.44-1.63,8.64.55l.34.68c2.91,4.76.95,15.81-5.88,22.69-1.28,7.35-8.19,10.92-13.06,6.66Z"/>
      <path class="cls-23" d="M743.2,271.01c.58-2.82,2.73-7.99,2.77-10.75.06-3.18,1.44-18.43,5.16-27.79,4.53-11.41,8.57-16.91,8.57-16.91.6-1.94-4.44-1.48-3.22-2.97l.86.07s-.45.16-.5.75c1.11-.07,2.25-.57,3.14-1.16,0,.03,0,.03,0,.03,1.24.71,2.59.22,3.75-.67-.02.2-.27.57-.48.56,1.28.31,2.62-.17,3.55-.89-.02.2-.27.57-.29.77,1-.09,2.02-.52,2.88-.98-.18.19-3.23-.51-4.48-.73.07-.09.17-.2.37-.35l1.13-.64c1.06.29.96.94,1.89.22-.23.18.78-2.13.77-1.93,1.29.11.95,0,2.08-.5-.02.2,3.41,1.59,3.39,1.79,1.08.09.71,1.06,1.64.34-.17.13-.48-.43-.72-.65,1.1.35,1.54,1.06,2.64.22-.23.18,4.45-1.8,4.45-1.8,1.28.31,1.02.7,2.17,0-.47.36,6,.15,5.75.53,1.08.09-2.4,3.77-1.49,3.25-.02.2,2.53-.38,2.53-.38.45.12.4.34.27.5-.06.24-.28.69-.48.67,1.24.71,2.78.44,4.15-.24-.47.36-.72.74-.95.91,1.08.09,1.92.37,3.07-.33-.02.2-.5.75-.72.74,1.04.49,2.35.4,3.48-.1-.02.2-.48.56-.71.73.84.27,1.71.35,2.62-.17l-.71.74c.86.07,1.47.53,2.8.24-.02.2-.47.36-.48.56.65.06,1.51.13,2.17-.01-.02.2-.7.54-.48.56.86.07,1.47.53,2.58.22-.23.18-.48.56-.72.74.86.07,1.71.35,2.6.03-.02.2-.27.57-.5.75.86.07,1.47.53,2.59.22-.02.2-.48.56-.72.73.86.07,1.71.35,2.59.22-.02.2-.47.36-.7.54.86.07,1.71.35,2.82.05-.03.4-.27.57-.28.77.65.06,1.09-.1,1.74-.05l1.04.49c2.67,4.22,9.95,12.82,9.95,12.82,6.22,5.92-9.49,14.33-10.03,18.07-.41,2.8,4.59,12.21,7.12,16.76-.72,5.98-4.75,11.53-5.36,17.53-.24,2.35-4.27,6.99-4.46,9.48l-6.12,7.86c-9.27,7.85-24.35,12.47-34.16,12.94-4.8.23-9.04,1.16-13.54-2.68-11.27-9.64-21.95-26.44-18.8-41.73Z"/>
      <path class="cls-23" d="M769.65,210.94c-.08.05-.17.09-.26.14.1-.11.2-.22.27-.34l-.02.2Z"/>
      <path class="cls-23" d="M760.44,211.93c-.14.11-.3.22-.46.33v-.17s.48-.36.46-.16Z"/>
    </g>
    <g>
      <path class="cls-13" d="M765.46,279.78c1.33.84,3.48.88,4.97.18.33-.16,1.36.13.89.35-1.97.93-5.05.74-6.76-.35-.17-.11-.13-.24.11-.29.24-.05.61,0,.79.11"/>
      <path class="cls-13" d="M771.97,279.98c.98-.34,2.06-.46,3.12-.44.16,0,.35.08.45.19.08.09.09.19-.03.24-.51.22-1.14.27-1.71.21-.18-.02-.41-.09-.5-.24-.08-.15.1-.22.24-.2.47.05.96.01,1.38-.17.14.14.28.29.42.43-.95-.02-1.91.1-2.79.4-.17.06-.41-.01-.55-.11-.11-.08-.21-.24-.04-.3"/>
      <path class="cls-13" d="M776.14,280.51c1.24.09,2.73-.29,3.42-1.12,1.04-1.26.4-3.62-1.05-4.63-.16-.11-.06-.22.12-.24.23-.02.48.08.64.2,1.27.88,1.96,2.86,1.64,4.1-.3,1.17-1.56,1.88-3.07,2.08-.45.06-.92.08-1.38.05-.19-.01-.52-.1-.6-.25-.08-.15.1-.2.27-.18"/>
      <path class="cls-13" d="M763.26,278.96c.08-.13-.03-.23-.13-.24-.33-.02-.66-.15-.93-.4-.12.12-.24.24-.36.35.66.13,1.31.41,1.87.85.11.09.29.05.4-.02.09-.06.18-.2.07-.29"/>
      <path class="cls-13" d="M764.17,279.22c-.63-.49-1.35-.79-2.09-.94-.11-.02-.25.02-.34.11-.07.07-.09.17-.02.24"/>
      <path class="cls-13" d="M760.68,278.87c-.8-.11-1.69-.72-2-1.65-.47-1.41.24-2.96,1.32-3.73.12-.08.07-.21-.04-.26-.14-.06-.32,0-.44.09-.94.67-1.63,1.84-1.62,3.12,0,1.2.7,2.1,1.62,2.54.28.13.57.23.87.27.12.02.34-.02.42-.15.07-.14-.03-.21-.14-.23"/>
    </g>
    <path class="cls-36" d="M823.53,273.82c1.69-2.89,3.54-5.82,5.95-8.18.62-.6,1.19-1.11,1.9-1.54.12-.07.24-.14.36-.21.11-.06-.13.06.04-.02.06-.03.11-.06.17-.08.1-.04.19-.08.29-.12.11-.05-.2.06-.04.01.04-.01.08-.02.12-.04.13-.04.27-.08.04-.02.05-.01.1-.02.15-.02.16,0-.22-.01-.05,0l-.39-.14s.07.16.05.07c.04.14.14.27.2.41.22.5.37,1.03.48,1.57.39,2,.05,4.06-.61,5.96-.18.52,1.28.34,1.45-.17.8-2.3,1.13-4.91.32-7.26-.12-.34-.27-.89-.54-1.15-.18-.18-.47-.16-.71-.14-2.04.19-3.86,1.97-5.16,3.39-2.11,2.29-3.82,4.94-5.39,7.62-.36.61,1.1.49,1.36.06h0Z"/>
    <path d="M746.38,240.55c5.33-.66,8.57-.09,16.95,2.66l-.02.2c-.09,1.14-.04.5-.13,1.65-.07.87-.14,1.74-.21,2.61-2.73-.94-4.67-1.88-6.45-2.33-3.36-.85-7.15-2.22-10.67-2.09-.41-1.6.05-1.86.52-2.69Z"/>
    <path d="M783.22,245.72c-.09,1.14-.04.5-.13,1.65-.07.87-.14,1.74-.2,2.61,2.84-.5,4.91-1.13,6.73-1.3,3.62-.33,7.79-1.16,11.36-.3,1.71.41,4.15,1.04,5.26,2.7.3.44.8,1.99,1.5,1.74.29-.1-.05-1.54-.09-1.69-.7-2.9-3.04-4.28-5.97-5.2-5.96-1.88-9.04-1.93-18.46-.4"/>
    <path d="M754.01,252.51c-1.18-.75-2.68-.32-3.55.33-.21.15-.76.59-1.07,1.38-.4,1.01-.08,2.23.51,3,.79,1.03,2.23,1.32,3.39.9,1.58-.58,2.23-2.35,1.96-3.71-.05-.25-.28-1.3-1.24-1.9"/>
    <path d="M764.84,257.64s-5.7-5.28-8.8-5.86c-4.52-.84-7.83.93-9.64,3.02,0,0,5.24-2.85,8.41-2.17,3.03.66,10.04,5,10.04,5Z"/>
    <path d="M789.52,256.05c1.29-.53,2.69.15,3.44.93.18.18.65.71.82,1.55.22,1.07-.3,2.21-1.02,2.87-.96.88-2.42.92-3.49.3-1.45-.84-1.79-2.7-1.3-3.99.09-.24.5-1.23,1.55-1.66"/>
    <path d="M782.46,259.27s6.94-4.16,10.31-4.2c6.07-.06,11.37,3.83,12.9,6.21,0,0-8.29-5.26-11.75-5.15-3.31.11-11.46,3.13-11.46,3.13Z"/>
    <path d="M804.36,200.68c3.78-.34,7.85-.51,11.12,1.42,3.45,2.05,3.9,6.93,6.85,9.79,17.13,16.62,7.5,28.84,13.85,43.54-1.63.45-3.22,1.13-4.74,2.08-2.97,1.86-6.12,5.73-7.97,8.54-4.94-1.29-5.12-4.71-6.97-10.33-1.72-5.19.21-13.18-3.65-16.96-5.12-4.97-15.91-.68-21.05-5.65-3-2.87-4.94-10-7.89-12.57-2.95-2.57-4.84-2.56-8.71-2.16-3.87.39-7.84,1.26-11.64.43-3.8-.83-9.55-2.81-9.21-6.68,15.52-5.29,33.69-9.97,50.03-11.44Z"/>
    <path class="cls-36" d="M824.98,276.08c1.42.04.63,2.66.47,3.41-.18.86-.8,3.02.77,2.85.76-.08,1.23-.6,1.57-1.24.52-.97.84-2.04,1.12-3.09.35-1.32.53-2.48.46-3.84-.08-1.64-.45-3.66-2.05-4.49-.39-.2-1.73.38-1.16.67,1.27.66,1.59,2.36,1.72,3.65.1,1.01.09,2-.12,2.98-.24,1.12-.54,2.24-.96,3.32-.13.35-.28.69-.46,1.01-.06.1-.22.26-.25.37,0,.02-.09.09-.09.09,0-.03.8-.12.81-.16,0-.09-.17-.37-.18-.5-.02-.29.03-.58.08-.87.12-.69.29-1.36.41-2.04.11-.63.24-1.38,0-2-.26-.67-.9-.86-1.56-.88-.28,0-.82.11-.96.38s.13.38.38.39h0Z"/>
    <path class="cls-23" d="M1129.15,611.03c9.12,2.69,19.05.7,28.53,1.27,15.39.92,22.85.46,38.16-.93-8.2,32.75-12.38,100.42-11.12,114.76,1.93,21.89,20.78,41.67,1.61,164.68l-28.58-4.21s-19.41-84.05-25.26-141.11c-3.17-30.91-9.34-90.92-15.41-134.45,6.68,2.94,5.07-2.07,12.08,0Z"/>
    <path class="cls-8" d="M1191.17,918.17s1.89-.01,2.42,6.41c.71,8.6-26.05,9.05-33.13,10.11-7.08,1.06-29.32,9.4-45.3,10.97-15.99,1.57-32.88-7.11-34.79-12.07-1.92-4.96-.11-7.39,3.24-8.92,3.35-1.54,102.33-11.34,102.33-11.34l5.24,4.86Z"/>
    <path class="cls-23" d="M1185.58,881.04c-.12,5.41,2.19,12.94,4.13,24.19.85,4.95,5.31,11.83.29,15.78-8.89,6.98-20.07,5.06-24.2,6.31-8.7,2.62-15.75,3.03-24.05,6.32-8.42,3.34-10.14,4.13-19.54,5.3-1.3.16-2.68.2-3.85-.31-.78-.35-1.42-.92-2.2-1.27-2.77-1.22-6.04.83-9.13.61-1.36-.09-2.63-.63-3.92-1.03-3.4-1.07-7.06-1.26-10.62-1.78-3.56-.53-7.21-1.47-9.8-3.71-2.59-2.24-3.75-6.08-1.81-8.84,2.94-4.18,7.19-2.1,11.48-2.74,4.28-.64,5.86-1.42,9.56-3.39,9.44-5.03,10.88-6.02,18.86-9.99,6.19-3.08,27.12-12.63,35.7-19.3l-.05-36.76"/>
    <g>
      <path class="cls-41" d="M1116.48,937.51c-.93-.19-1.47-1.06-1.68-1.92s-.09-1.75.32-2.54c.88-1.66,2.68-2.7,4.29-3.54.94-.49,1.9-.93,2.85-1.4.31-.16.03-.37-.21-.25-1.83.91-3.75,1.72-5.39,2.96-1.49,1.12-2.8,2.75-2.41,4.73.2,1.02.84,2.04,1.92,2.26.12.02.28,0,.36-.1.06-.08.06-.19-.06-.21h0Z"/>
      <path class="cls-41" d="M1106.98,938.17c-2.29.13-2.46-3.15-2.27-4.73.05-.44.13-.88.28-1.3.2-.6.6-1.13,1.03-1.6,1.11-1.22,2.63-1.94,4.13-2.55.84-.34,1.63-.79,2.44-1.19.85-.42,1.77-.85,2.74-.87.08,0,.3-.04.34-.13s-.03-.12-.13-.12c-1.77.05-3.35,1.09-4.89,1.84-.8.39-1.63.69-2.42,1.09-.74.38-1.46.83-2.09,1.38s-1.15,1.16-1.51,1.88c-.2.41-.3.87-.37,1.31-.18,1.1-.18,2.28.15,3.35.34,1.13,1.13,1.96,2.37,1.9.09,0,.3-.03.34-.13s-.03-.12-.13-.12h0Z"/>
      <path class="cls-41" d="M1100.19,936.43c-1.27-.36-2.02-1.58-2.33-2.79s-.16-2.33.36-3.39c1.09-2.24,3.43-3.7,5.59-4.75.61-.3,1.24-.57,1.88-.82.77-.3,1.53-.64,2.33-.85.05-.01.26-.08.23-.16s-.23-.03-.28-.02c-.77.2-1.5.52-2.24.8-.59.23-1.17.47-1.75.74-1.23.57-2.43,1.23-3.51,2.04-1.92,1.44-3.65,3.57-3.21,6.12.24,1.4,1.06,2.87,2.51,3.28.11.03.26,0,.35-.06.05-.03.17-.11.06-.14h0Z"/>
      <path class="cls-41" d="M1093.28,935.5c-1.55-.56-2.78-1.84-3.38-3.36-.52-1.32-.64-2.85.11-4.1.69-1.15,1.85-1.99,2.97-2.69,1.23-.76,2.54-1.38,3.87-1.94.63-.27,1.28-.51,1.91-.78.8-.33,1.68-.89,2.58-.88.29,0,.38-.38.04-.38-.81-.01-1.61.41-2.33.73-.65.29-1.31.54-1.97.81-1.42.59-2.83,1.23-4.15,2.03-1.21.73-2.43,1.6-3.24,2.78s-.9,2.72-.46,4.13c.57,1.82,1.96,3.36,3.75,4.01.22.08.59-.24.29-.35h0Z"/>
    </g>
    <path class="cls-8" d="M1116.29,907.4c-2.36.16-4.56,1.25-6.11,3.04l-9.48,11.15,2.75-.71,14.9-13.62-2.06.14Z"/>
    <path class="cls-8" d="M1101.36,921.56s.8-2.27,4.68-3.04c12.19-2.43,39.69-3.77,44.16,14.03l-4.38,2.02s-6.46-13.31-17.96-13.77c-11.51-.45-26.5.75-26.5.75Z"/>
    <path class="cls-23" d="M1038.44,288.78c-13.3-19.51-27.57-46.68-37.47-61.54-10.17,5.64-21.06,10.04-32.37,12.72l.26.91c17.77,77.53,70.36,121.19,70.36,121.19,0,0,28.44-40.88,28.64-42.56.2-1.68-22.21-16.6-29.42-30.72Z"/>
    <path class="cls-23" d="M963.13,226.48l6.7,17.67c10.66-4.44,23.51-7.53,32.55-14.74-3.44-7.74-8.47-24.12-14.68-37.36-13.04-27.79-36.39-66.56-36.39-66.56l-16.23,8.06,14.6,52.66c3.55,13.73,7.45,27.43,13.45,40.28Z"/>
    <path class="cls-23" d="M1264.13,238.56c-12.86,1.06-22.12,10.81-33.93,16.07l-33-83.3,14.64-11.87s33.75,33.17,51.99,78.3c.1.25.19.53.29.79Z"/>
    <path class="cls-23" d="M1164.14,323.15l.51-.4.45.33,65.44-70.3,1.46-4.88c2.13.55,4.22,1.29,6.23,2.19,9.88,4.42,18.1,11.82,27.11,17.75-10.05,25.91-48.89,62.79-65.55,75.15-15.41,11.51-30.82,22.87-36.4,35.17-4.14,8.15-.98,10.25-8.38,15.6l-8.47-36.89,17.61-33.72Z"/>
    <path class="cls-23" d="M1159.3,343.24l7.3,56.79c.82-1.19-4.04,32.86-4.87,35.07-.82,2.21,2.81,31.06,2.81,31.06,0,0-19.89,18.07-65.92,29.43-46.03,11.35-50.71-7.11-50.71-7.11l.35-39.13s-16.99-92.71-16.75-95.4,33.07-42.17,34.37-39.85,22.09-.79,22.09-.79c13.72,12.83,18.29,9.69,43.39-1.23l22.66-.46,5.27,31.63Z"/>
    <path class="cls-30" d="M1037.08,376.46l-41.37-58.12h0c16.54-6.27,30.24-18.34,38.54-33.96l1.57-2.96,34.8,35.3-33.55,59.75Z"/>
    <path class="cls-30" d="M1147.78,380.63s7.61,15.38,7.23,13.12c-.28-1.72,22.42-18.59,29.63-28,7.98-10.03,19.79-13.97,30.37-21.21.74-.36-29.38-48.56-29.38-48.56l-18.05,10.29c-1.64-1.49-7.03,1.66-9.17,1.06-2.54-.26-7.12,4.84-7.12,4.84l-3.51,68.45Z"/>
    <path class="cls-30" d="M1047.92,488.47l117.23-16.99,2.22-101.61-13.95-58.24-22.04-2.56s5.89,21.42-25.39,21.47c-15.93-6.8-27.9-13.87-25.85-21.14l-13.16,2.46s-31.53,36.99-35.42,52.7c-3.86,15.73,16.36,123.92,16.36,123.92Z"/>
    <path class="cls-30" d="M1165.15,471.49l20.28,32.4s-41.22,27.88-95.98,25.04c-54.76-2.84-51.99-10.38-51.99-10.38l9.48-52.87,118.22,5.81Z"/>
    <path class="cls-30" d="M1198.08,602.06l2.96,84.56s-1.33,9.67-14.57,10.07c-13.24.4-21.12-6.24-31.4-6.61-10.27-.38-18.82,6.08-35.69,8.65-16.87,2.58-31.12,9.2-54.73,1.66s-23.78-13.03-37.57-13.99c-13.79-.96-25.61,3.81-36.73.02s-8.12-11.95-8.12-11.95c0,0,54.83-105.33,54.06-130.6-.77-25.27-.16-19.34,5.47-45.61,5.62-26.27,138.06-3.73,138.06-3.73,0,0,27.35,36.33,18.26,107.52Z"/>
    <path class="cls-23" d="M1135.66,275.01s-9.77,24.19-5.06,35.04c.63,1.45,3.34,3.28,3.47,4.59,0,0-12.76,21.14-37.27,19.29-24.51-1.85-18.34-21.7-18.34-21.7.91-.53,1.49.57,2.4.04.25-.15.5-.3.68-.52.26-.34.28-.79.29-1.21.33-11.83.33-23.67.25-35.5"/>
    <path class="cls-41" d="M1116.18,294.57s-4.82,10.26-26,12.72c0,0-4.69,1.24-8.14-.17l-.09-4.29,34.23-8.26Z"/>
    <path class="cls-3" d="M1060.24,266.82c6.78-4.21,8.57-12.45,8.25-19.92-.3-7.15,5.77-17.7-2.96-17.91-.17,0,3.52-5.88.92-5.52,1.82-3.82-3.95-3.82-4.47-8.29-.1-.9-.86-8.85,4.81-9.02,22.13-26.98,48.96-19.22,64.08-16.16,29.68,6.01,44.12,8.7,33.77,55.62-6.95,31.5-37.38,38.25-67.52,35.33-12.88-1.25-28.24-1.76-37.14-13.97.09-.06.19-.11.28-.16Z"/>
    <path class="cls-3" d="M1130.07,169.34c-7.52,2.98-11.36,9.42-12.3,17.2,1.43,1.46,4.6,3.2,6.04,4.65.32-.49.66-.97,1-1.44,1.58,1.58,5.9,3.24,7.5,4.8.5-.25,2.02-.79,3.83-1.38.49.48.98.96,1.47,1.45-1.37.27-2.48.64-3.2,1.13,1.82,1.8,6.72,3.1,8.45,4.98,3.75,4.08,7.89,9.49,11.8,13.41,1.25,1.02,2.23,2.01,3.01,2.91l-3.18,2.42,4.04,3.81c-.56,1.1-.89,1.72-.89,1.72l3.31,3.19s2.42-1.94,5.87-4.88c11.77,5.56,17.56-4.02,16.88-8.7-.3-2.06-1.21-3.66-2.18-4.82,5.14-5.26,9.07-10.25,8.53-12.75-1.1-5.03-8.19-16.66-11.64-22.13-.61-1.71-1.32-3.39-2.14-4.95l-.04-.1s-.01,0-.02,0c-.91-1.73-1.95-3.29-3.14-4.48-3.08-3.08-9.94-2.48-15.56-1.29-5.48-5.6-9.39-7.42-12.84-8.03-4.83-.86-13.32,4.85-14.3,6.47-.48.79-.46,3.87-.31,6.81ZM1172.76,218.13c2.19-1.97,4.47-4.08,6.63-6.2-.06,1.13-.3,2.4-.87,3.72-.95,2.22-3.48,2.62-5.77,2.48ZM1143.45,161.76c.44.39,1.81,2.76,3.16,5.22-4.02.02-7.42.56-9.21.71-.19.02-.38.04-.57.06-.74-1.54-1.6-3.62-1.55-4.95.07-2.32,5.88-3.08,8.18-1.04Z"/>
    <path class="cls-23" d="M1082.79,205.48c-.07.11-.16.22-.26.32.08-.04.16-.09.24-.13l.02-.19ZM1073.66,206.66l-.02.16c.15-.1.3-.2.44-.3.02-.19-.43.15-.43.15ZM1132.19,282.98l1.4-2.98c1.32,6.02,9.63,3.04,11.09-4.82,6.5-6.42,8.46-16.83,5.76-21.34l-.31-.65c-2.05-2.08-6.02-3.41-8.14-.6-.74,1.25-1.81,2.63-2.54,3.87-.75,1.43-1.94,4.35-3.08,5.55,0,0,5.75-13.76,6.3-17.28.54-3.52,1.27-12.27-4.54-17.92,0,0-6.79-8.18-9.27-12.18l-.98-.47c-.61-.06-1.03.09-1.64.03.02-.19.24-.35.27-.72-1.05.27-1.85,0-2.66-.07.22-.17.65-.31.66-.5-.83.11-1.62-.16-2.44-.24.22-.17.66-.5.68-.69-1.05.27-1.62-.16-2.44-.24.22-.17.46-.52.48-.71-.85.29-1.64.03-2.46-.05.22-.17.46-.52.68-.69-1.05.27-1.62-.16-2.44-.24-.2-.02.44-.33.46-.52-.63.13-1.44.05-2.05-.01.02-.19.44-.33.46-.52-1.26.25-1.83-.18-2.64-.26l.68-.69c-.86.48-1.68.4-2.47.14.22-.17.66-.5.68-.69-1.07.46-2.3.53-3.28.06.2.02.66-.5.68-.69-1.09.65-1.88.38-2.9.28.22-.17.46-.52.9-.85-1.29.63-2.75.86-3.91.19.2.02.46-.52.48-.71-.88.67.73-.12-.27-.4,0,0-2.41.52-2.39.33-.87.48,2.45-2.95,1.43-3.05.24-.35-5.86-.22-5.42-.55-1.09.65-.84.28-2.04-.02,0,0-4.44,1.82-4.21,1.66-1.1.83-1.49,0-2.69-.3.22-.17.66.85.88.69-.88.67-.53-.24-1.54-.34.02-.19-3.2-1.53-3.19-1.72-1.07.46-.75.57-1.96.46.02-.19-.96,1.98-.74,1.81-.88.67-.79.06-1.79-.23l-1.07.6c-1.11.83.33.56-.87.26.01-.13,4.53,1.03,4.74.8-.82.43-1.79.82-2.73.9.02-.19.26-.54.28-.73-.89.67-2.16,1.11-3.36.8.2.02.44-.33.46-.52-1.11.83-2.38,1.27-3.54.6v-.03c-.84.54-1.92,1-2.97,1.06.05-.56.48-.71.48-.71l-.81-.08c-1.16,1.39,3.6,1.01,3.01,2.83,0,0-3.86,5.16-8.24,15.87-3.6,8.79-5.04,23.16-5.13,26.16-.07,2.6-2.14,7.46-2.72,10.11-3.12,14.4,6.79,30.34,17.34,39.54,4.2,3.66,8.21,2.83,12.74,2.66,9.25-.35,23.52-4.56,32.34-11.88"/>
    <g>
      <path class="cls-13" d="M1078.17,270.56c1.25.81,3.28.87,4.69.21.31-.14,1.28.13.84.33-1.87.86-4.77.65-6.38-.39-.16-.1-.12-.23.1-.27.23-.05.58,0,.75.11"/>
      <path class="cls-13" d="M1084.31,270.8c.93-.31,1.95-.42,2.95-.39.15,0,.33.08.43.18.08.08.08.18-.03.23-.48.21-1.08.25-1.61.18-.17-.02-.39-.09-.47-.24-.07-.14.1-.21.23-.19.44.06.9.02,1.3-.15.13.14.26.27.4.41-.89-.03-1.8.07-2.63.35-.17.06-.39-.02-.52-.11-.1-.07-.2-.22-.03-.28"/>
      <path class="cls-13" d="M1088.24,271.34c1.16.1,2.58-.25,3.24-1.03,1-1.18.41-3.41-.95-4.38-.15-.11-.05-.21.11-.23.21-.02.45.08.61.19,1.19.84,1.82,2.71,1.51,3.89-.3,1.1-1.49,1.76-2.91,1.93-.42.05-.87.07-1.31.03-.18-.02-.49-.1-.56-.24-.07-.14.09-.19.26-.17"/>
      <path class="cls-13" d="M1076.1,269.76c.08-.12-.03-.22-.12-.23-.31-.03-.63-.14-.87-.38-.12.11-.23.22-.35.33.62.13,1.23.4,1.75.82.1.08.27.05.38-.02.08-.05.18-.18.07-.27"/>
      <path class="cls-13" d="M1076.97,270.02c-.59-.47-1.27-.76-1.96-.91-.1-.02-.24.02-.33.1-.07.07-.09.16-.02.23"/>
      <path class="cls-13" d="M1073.68,269.65c-.75-.11-1.59-.69-1.87-1.57-.43-1.33.26-2.79,1.28-3.5.11-.08.07-.2-.03-.24-.13-.06-.3,0-.42.08-.9.62-1.55,1.72-1.55,2.93,0,1.13.64,1.99,1.51,2.41.26.12.54.22.82.26.11.02.33-.01.39-.14.07-.13-.03-.2-.13-.21"/>
    </g>
    <path d="M1062.02,234.58c4.92-1.19,8.02-1,16.17.68v.19c.04,1.08.02.47.06,1.56.03.82.06,1.64.08,2.46-2.66-.59-4.58-1.26-6.29-1.49-3.24-.43-6.94-1.31-10.22-.82-.55-1.46-.16-1.75.2-2.58Z"/>
    <path d="M1094.1,237.19c-.06,1.07-.02.47-.08,1.55-.04.82-.09,1.64-.13,2.46,2.67-.54,4.6-1.19,6.32-1.38,3.41-.39,7.32-1.28,10.7-.56,1.62.34,3.94.89,5.02,2.42.29.41.8,1.86,1.46,1.6.27-.1-.09-1.45-.12-1.59-.73-2.72-2.97-3.96-5.75-4.76-5.67-1.63-8.57-1.6-17.42.06"/>
    <path d="M1067.63,244.72c-1.11-.72-2.52-.33-3.35.28-.2.14-.72.55-1.02,1.3-.38.95-.1,2.1.45,2.84.73.98,2.09,1.27,3.19.88,1.49-.53,2.12-2.2,1.89-3.48-.04-.23-.26-1.23-1.15-1.81"/>
    <path d="M1077.8,249.67s-5.33-5.03-8.24-5.61c-4.26-.84-7.4.8-9.12,2.76,0,0,4.97-2.64,7.95-1.96,2.85.65,9.42,4.81,9.42,4.81Z"/>
    <path d="M1101.09,248.4c1.23-.49,2.54.16,3.24.91.16.18.6.68.75,1.47.19,1.01-.31,2.08-.99,2.7-.91.82-2.29.85-3.3.25-1.36-.8-1.66-2.57-1.18-3.78.09-.22.49-1.16,1.48-1.55"/>
    <path d="M1094.4,251.37s6.59-3.86,9.76-3.86c5.72,0,10.68,3.72,12.11,5.98,0,0-7.77-5.04-11.03-4.96-3.12.07-10.83,2.85-10.83,2.85Z"/>
    <path class="cls-4" d="M1072.97,208.96c-1.28,5.05-7.83.05-3.89-.84-.23-2.53,3.38-3.21,3.53-5.75.13.24.21.42.21.42,0,0,.39-3.03,1.47-3.67,1.09-.63,5.87-2.5,5.87-2.5l1.28,1.18c-.03-.08-.42-1.12.35-1.66.77-.54,8.89-3.84,13.8-3.05.17.02.33.05.48.09l1.95,1.27.07.04s-.05-.03-.07-.05c-.34-.25-1.07-.85-.63-1.25.15-.14.45-.25.95-.32.74-.09,1.84-.08,3.02,0,0,0,0-.01,0-.02.11.01.22.03.33.04.11,0,.22.02.34.02,0,0,0,.01,0,.02,1.18.15,2.25.35,2.96.58.48.16.75.33.88.5.36.47-.47.93-.86,1.1-.03.01-.06.03-.08.04l.08-.03,2.16-.87c.16,0,.33,0,.49,0,4.97.17,12.3,4.96,12.96,5.64.65.67.07,1.62.02,1.69l1.49-.91s5.7,2.88,6.64,3.71c.95.83,1.24,2.63,1.24,2.63,0,0,1.74.83,2.41.69.67-.15,3.86,1.93,5.05,4.05.76,1.36.33,2.54.66,3.7h0c.19.66.29,1.09.29,1.09l3.36,1.49c2.66,1.61,1.4,7.28,1.4,7.28,4.83,7.25,4.54,13,1.49,18.93-1.18,2.29,5.37,5.34,1.03,4.82-4.4-.52-9.36,12.93-9.36,12.93,0,0-3.22-5.74-3.16-8.25.06-2.52,2-9.8,2-9.8l-2.09-.51s-1.24-.65-2.52-3.63c-1.29-2.98,2.05-7.74,2.05-7.74l1.13-2.96-4.17-.12c-3.93-1.07-3.74-5.43-3.74-5.43l1.39-7.15-2.64,2.19s-1.04,1.06-2.41.81c-6.16-1.07-6.52-5-6.52-5l-.48-3.72-1.67.9c-1.8,1.2-7.09,2.82-9.57,1.45-.65-.36-3.3-2.85-3.74-3.2-1.55-1.37-1.57-3.71-1.52-4.57.27-.21.53-.49.78-.71.98-.88,1.37-.43.38.45-1.69,1.52-4.5,3.6-6.79,3.48-2.21-.12-6.86-1.49-7.35-2.57-.33-.72.38-.74-.43-.78-.71-.04-1.36.41-1.86.88-1.17,1.11-2.05,2.81-3.6,3.42-2.26.89-3.44-.42-5.55-1.09-.47-.15-1.16.03-1.31.6Z"/>
    <path class="cls-2" d="M1068.21,204.47s-1.03-4.81,1.93-7.23c2.96-2.42,14.36-12.2,32.19-10.5l-34.12,17.74Z"/>
    <path class="cls-15" d="M1080.43,278.21c5.53.39,14.4,1,14.4,1,0,0-.38,12.66-15.28,11.38-12.81-1.1-9.93-13.05-9.93-13.05,0,0,5.27.28,10.8.67Z"/>
    <path class="cls-36" d="M1080.37,278.21c2.63.19,13.12,1.16,13.12,1.16,0,0-4.49,7.11-14,6.44-10.31-.73-8.18-7.59-8.18-7.59h9.06Z"/>
    <path class="cls-20" d="M1081,278.76c2.63.19,10.52.97,10.52.97,0,0-2.98,2.5-10.87,1.94-7.89-.56-9.4-3.3-9.4-3.3l9.75.39Z"/>
    <path class="cls-15" d="M1068.84,276.46c.28-.06.28-.07,1.58-.11,2.16-.07,2.98-.81,4.55-.85,2.67-.06,3.34,1.16,4.5,1.24,1.15.08,2.93-1.08,5.57-.64,1.55.26,5.2,1.97,7.33,2.35,1.28.23,3.29-.35,3.56-.25.37.14-.92,2.83-15.44,1.81-14.51-1.03-12.04-3.46-11.65-3.55Z"/>
    <g>
      <path class="cls-28" d="M818.98,322.04s-14.41,23.03-38.69,22.41c-17.8-.45-17.07-11.66-17.07-11.66l.49-10.52-6.07,1.42s-2.13,11.39,1.24,17.56c3.37,6.17,12.99,11.38,28.35,8.73,9.01-1.55,19.55-5.91,28.84-13.83,9.29-7.92,12.92-12.16,12.92-12.16l-10.01-1.94Z"/>
      <path class="cls-29" d="M818.31,322.02c-1.62,2.59-3.67,4.96-5.76,7.17-4.71,4.95-10.29,9.19-16.61,11.87-3.81,1.62-7.87,2.62-12,2.91-4.27.29-8.87,0-12.84-1.7-3.7-1.57-6.76-4.71-7.12-8.85-.1-1.11.05-2.4.11-3.59.12-2.55.24-5.1.36-7.65.02-.41-.58-.33-.82-.27-2.02.47-4.05.94-6.07,1.42-.2.05-.58.21-.63.45-.93,5.01-1.24,10.85.41,15.73,1.84,5.44,7.14,8.79,12.41,10.34,7.73,2.27,16.26,1.28,23.87-.99,8.63-2.58,16.58-7.06,23.42-12.91,4.37-3.73,8.88-7.57,12.64-11.94.17-.19-.05-.38-.23-.41-3.34-.65-6.68-1.3-10.01-1.94-.46-.09-1.7.63-.89.79,3.34.65,6.68,1.3,10.01,1.94l-.23-.41c-2.67,3.11-5.84,5.9-8.89,8.63-3.48,3.1-7.01,6.11-10.95,8.61-3.66,2.32-7.55,4.26-11.62,5.77-7.54,2.79-16.04,4.28-24,2.63-5.32-1.1-11.05-3.95-13.5-9.08-1.57-3.28-1.74-7.19-1.61-10.76.08-2.06.26-4.14.63-6.17l-.63.45c2.02-.47,4.05-.94,6.07-1.42l-.82-.27c-.17,3.64-.61,7.36-.49,11,.12,3.84,2.74,7.11,6,8.91,3.58,1.97,7.84,2.54,11.87,2.6,4.3.07,8.61-.59,12.7-1.93,7.04-2.3,13.35-6.44,18.67-11.54,2.92-2.8,5.75-5.91,7.91-9.35.36-.57-1.09-.44-1.35-.03Z"/>
    </g>
    <g>
      <path class="cls-30" d="M1131.51,309.05s-10.83,22.98-34.24,22.3c-17.17-.5-16.49-11.71-16.49-11.71l.44-10.52-5.85,1.4s-2.02,11.38,1.25,17.56c3.27,6.18,12.55,11.41,27.35,8.8,8.68-1.53,16.84-3.86,25.77-11.74,8.93-7.89,9.42-15.12,9.42-15.12l-7.66-.97Z"/>
      <path class="cls-40" d="M1130.8,309.17c-1.21,2.56-2.88,4.96-4.62,7.18-3.87,4.93-8.72,9.19-14.43,11.85-3.63,1.69-7.55,2.63-11.55,2.82s-8.56-.22-12.29-2.08c-3.44-1.71-6.13-4.93-6.39-8.86-.08-1.24.07-2.5.12-3.74.1-2.47.21-4.95.31-7.42,0-.22-.74-.06-.79-.04-1.95.47-3.9.93-5.85,1.4-.14.03-.62.17-.65.36-.85,4.86-1.12,10.33.25,15.1,1.55,5.41,6.34,8.97,11.49,10.68,7.46,2.48,15.54,1.41,23.01-.41,8.23-2,15.7-5.94,21.89-11.75,3.02-2.83,5.68-6.18,7.32-10.01.59-1.39,1.16-2.92,1.27-4.44,0-.09-.23-.11-.26-.11-2.55-.32-5.11-.65-7.66-.97-.33-.04-1.66.52-.93.61,2.08.26,4.15.53,6.23.79.37.05.82.18,1.19.15.4-.03.02-.09-.03.02-.19.54-.21,1.19-.37,1.75-2.23,8.01-9.28,14.3-16.17,18.43-3.92,2.35-8.18,3.97-12.61,5.05s-9.19,1.89-13.86,1.69c-6.53-.28-13.82-2.62-17.52-8.4-2.08-3.25-2.44-7.35-2.42-11.12.01-2.44.19-4.91.61-7.31l-.65.36c1.95-.47,3.9-.93,5.85-1.4l-.79-.04c-.15,3.61-.54,7.28-.44,10.89.11,3.88,2.74,7.23,6.05,9.02,3.45,1.86,7.53,2.41,11.4,2.44,4.04.04,8.07-.62,11.88-1.95,6.4-2.24,11.99-6.38,16.44-11.46,2.46-2.8,4.79-5.95,6.39-9.34.11-.24-1.25-.13-1.43.25Z"/>
    </g>
    <path class="cls-40" d="M1165.98,472.37c-17.25,8.03-35.41,14.82-54.33,17.51-17.74,2.52-36.08,1.05-52.35-6.88-2.44-1.19-4.82-2.51-7.12-3.95-1.12-.7-2.21-1.42-3.29-2.17-.52-.36-1.03-.73-1.54-1.1-.43-.32-1.3-.75-1.62-1.17-.18-.23-.16-.72-.19-1.07l-.22-2.16c-.11-1.07-.21-2.14-.32-3.22l-1.28.61c4.43,2.47,9.14,4.54,13.84,6.43,9.96,4.02,20.42,7.13,31.12,8.34,10.71,1.2,21.41-.25,31.91-2.35,9.9-1.98,19.66-4.62,29.3-7.61,5.18-1.6,10.35-3.28,15.44-5.17l-1.04-.23c.43,1.6.87,3.2,1.3,4.8.18.66,1.63.27,1.45-.39-.43-1.6-.87-3.2-1.3-4.8-.12-.45-.74-.34-1.04-.23-.17.06.21-.08-.08.03-.23.09-.47.17-.7.26-.82.29-1.64.58-2.46.87-2.94,1.02-5.9,2.01-8.87,2.95-9.08,2.89-18.26,5.48-27.56,7.55-10.25,2.28-20.91,4.24-31.45,3.65-10.93-.61-21.68-3.51-31.88-7.35-5.73-2.16-11.47-4.58-16.83-7.57-.46-.25-1.35-.02-1.28.61.09.95.19,1.9.28,2.85.11,1.06.01,2.42.34,3.44.17.54.75.81,1.2,1.14,1.01.76,2.04,1.49,3.09,2.2,2.04,1.38,4.14,2.68,6.3,3.87,7.89,4.36,16.48,7.3,25.36,8.8,18.51,3.14,37.56.09,55.33-5.4,10.68-3.3,21.05-7.52,31.18-12.24.9-.42.1-1.19-.64-.84Z"/>
    <path class="cls-23" d="M963.48,70.19l1.8,24.52,1.7,4.47s-.93,13.14-1.46,15.85c-.54,2.71-9.49,16.44-9.49,16.44l6.36,13.85-23.67,2.67s-2.88-12.9-4.18-14.61c-1.22-2.58-1.65-5.48-1.22-8.3.25-2.59.88-18.2.88-18.2,0,0-5.26-18.77-1.12-18.58,1.02.17,2.02.45,2.98.83,0,0,2.96,12.24,4.46,12.81l2.52-.69s-.23-17.58.35-20.71c.58-3.13,1.76-5.13,4.23-4.87,0,0,1.58,1.18,1.54,2s-.33,20.29.78,20.2,1.05-1.87,1.05-1.87c0,0-.22-23.67.42-24.94.69-1.72,2.57-2.64,4.35-2.12l1.41,13.38s.53-10.82,2.72-12.19c1.08-.8,2.55-.77,3.6.07Z"/>
    <path class="cls-41" d="M946.72,118.81c.43-2.98,1.5-6.29,3.57-8.54s4.54-3.75,6.99-5.35c.59-.39.62-.65.64-1.33l.08-3.51c.02-.62-.13-1.04-.32-1.64-.48-1.49-.92-3.01-1.22-4.55s-.35-3.32-.15-4.93,1.18-3.89,3.06-3.86l-.61-.24c1.95,3.39,3.91,6.79,5.86,10.18.35.61,1.72.03,1.32-.66-.96-1.66-1.91-3.32-2.87-4.98-.65-1.13-1.3-2.27-1.96-3.4-.3-.53-.59-1.34-1.03-1.78-.85-.86-2.54.24-3.22.8-1.2.98-1.81,2.39-2.02,3.9-.45,3.24.27,6.42,1.24,9.5.14.45.35.91.45,1.36-.04-.18-.01-.01,0,.13.02.28-.01.56-.02.84-.03,1.21-.06,2.43-.09,3.64l.41-.51c-2.58,1.51-5.13,3.27-7.25,5.38-2.52,2.52-3.83,6.17-4.34,9.65-.11.77,1.37.61,1.47-.09h0Z"/>
    <path class="cls-41" d="M951.17,100.31c-5.44-.16-11.43,1.62-15.5,5.28-.26.23.22.31.36.31.34,0,.71-.14.96-.37,2.44-2.2,5.57-3.49,8.78-4.11,1.07-.2,2.15-.35,3.24-.41.32-.02.65-.03.97-.04.09,0,.6,0,.27,0,.32,0,.77-.04,1.02-.27.18-.17.23-.38-.11-.39h0Z"/>
    <path class="cls-23" d="M1156.7,123.4l12.72,21.04,1.2,4.62s8.36,10.18,10.37,12.08,15.4,8.46,15.4,8.46l8.21,11.16,17.32-8.25s-5.12-12.19-5.05-14.33c-.5-2.82-1.83-5.42-3.81-7.48-1.7-1.97-11.25-14.34-11.25-14.34,0,0-6.58-18.35-9.84-15.8-.73.73-1.39,1.53-1.95,2.4,0,0,4.67,11.69,3.77,13.03l-2.45.89s-9.98-14.47-12.27-16.69c-2.29-2.22-4.41-3.17-6.26-1.52,0,0-.61,1.88-.1,2.52s12.01,16.36,11.06,16.93-1.94-.91-1.94-.91c0,0-13.52-19.43-14.78-20.1-1.56-1.01-3.62-.67-4.77.78l6.59,11.72s-6.69-8.52-9.28-8.37c-1.34-.03-2.53.85-2.89,2.14Z"/>
    <path class="cls-41" d="M1199.81,152.63c-2.42-2.54-5.57-4.76-9.07-5.38-2.95-.52-6.08-.48-9.06-.22l.6.22c-.61-.82-1.23-1.65-1.84-2.47-.29-.39-.64-.78-.9-1.2-.11-.18-.01.02-.04-.04-.08-.17-.11-.38-.17-.56-.92-3-2.03-5.84-3.96-8.35-.98-1.27-2.19-2.42-3.8-2.8-1.02-.25-3.2-.42-3.87.68-.26.43-.04,1.22,0,1.69.12,1.24.24,2.48.35,3.72.21,2.24.43,4.47.64,6.71.07.68,1.52.33,1.45-.39-.37-3.9-.74-7.8-1.11-11.69l-.24.54c1.36-.99,3.4.18,4.41,1.21s1.88,2.27,2.54,3.51c.76,1.43,1.31,3,1.81,4.54.21.64.34,1.34.69,1.92.56.94,1.34,1.8,2,2.68.41.55.65,1.13,1.38,1.17.9.05,1.85-.11,2.75-.13,1.66-.04,3.32,0,4.96.21,3.55.45,6.7,2.52,9.15,5.08.47.49,1.84-.11,1.32-.65h0Z"/>
    <path class="cls-41" d="M1185.33,140.97c-.25.19.12-.09.21-.14.28-.2.57-.38.86-.56.95-.59,1.95-1.12,2.97-1.58,3.04-1.36,6.33-2.11,9.66-1.72.57.07,1.53-.73.56-.84-5.34-.62-11.17,1.38-15.43,4.6-.27.2-.11.45.14.53.34.11.76-.08,1.02-.27h0Z"/>
    <path class="cls-23" d="M827.65,145.79l10.66,22.15.76,4.72s7.35,10.93,9.17,13.02,14.53,9.89,14.53,9.89l10.95,11.6,14.19-6.27s-3.93-12.62-3.66-14.75c-.23-2.85-1.3-5.57-3.08-7.8-1.51-2.12-9.83-15.34-9.83-15.34,0,0-4.8-18.89-8.29-16.66-.8.66-1.53,1.39-2.17,2.21,0,0,3.53,12.08,2.52,13.33l-2.53.66s-8.56-15.35-10.63-17.78c-2.06-2.42-4.09-3.57-6.09-2.11,0,0-.78,1.81-.34,2.5s10.4,17.43,9.4,17.9-1.84-1.09-1.84-1.09c0,0-11.61-20.63-12.8-21.41-1.45-1.15-3.54-1.01-4.83.33l5.45,12.3s-5.85-9.12-8.44-9.21c-1.33-.15-2.6.61-3.08,1.86Z"/>
    <path class="cls-41" d="M867.76,178.96c-1.24-1.57-2.76-2.98-4.38-4.15-2.17-1.56-4.57-2.2-7.19-2.57-1.11-.16-2.22-.27-3.34-.34-.56-.04-1.74-.32-2.27-.1-.28.12.14.18.16.02s-.41-.67-.49-.8c-.51-.84-1.02-1.68-1.53-2.52-.63-1.05-.76-2.73-1.14-4.13-.6-2.22-1.47-4.28-2.79-6.17-1.31-1.89-3.51-3.27-5.91-2.72-1.39.32-1.31.96-1.31,2.15,0,3.47,0,6.93,0,10.4,0,.63,1.45.33,1.45-.17,0-2.88,0-5.75,0-8.63,0-1.03.08-2.09,0-3.11.06.72-.38-.05.14.07l-.1.1h.52c.71.01,1.39.22,2,.6,1,.62,1.71,1.61,2.31,2.6,1.18,1.94,1.91,3.96,2.46,6.16.27,1.1.34,2.32.93,3.29.42.7.85,1.39,1.27,2.09.24.4.56,1.27.96,1.54.28.19.78.11,1.1.12.92.03,1.83.09,2.75.17,2.68.24,5.55.59,7.88,2.03,1.95,1.2,3.74,2.86,5.16,4.66.32.41,1.72-.1,1.34-.58h0Z"/>
    <path class="cls-41" d="M854.47,165.85c3.86-2.38,9.18-3.62,13.76-2.65.32.07.73-.02,1.01-.18.11-.06.51-.33.17-.4-3.62-.77-7.35-.29-10.84.84-1.8.58-3.61,1.33-5.22,2.32-.27.17-.14.29.09.34.31.07.77-.12,1.02-.27h0Z"/>
    <path class="cls-23" d="M1262.59,234.15s7.23,15.45,3.53,32.05c-3.7,16.6-33.9-20.77-33.9-20.77l30.37-11.28Z"/>
    <path class="cls-36" d="M1138.68,266.52c1.33-2.29,2.74-4.55,4.36-6.64.83-1.07,1.72-2.11,2.77-2.96.13-.1-.01,0,.15-.11.07-.05.15-.1.22-.15.07-.04.13-.08.2-.13.03-.02.06-.03.09-.05.15-.09-.12.06-.02,0,.09-.04.18-.08.27-.12-.2.1-.08.02.06,0-.33.06-.13.03-.05.02-.29.04-.19,0-.12,0-.07,0-.44-.08-.38-.12.02-.01.07.18.03.05.06.21.21.41.29.62.93,2.35.59,4.99-.22,7.32-.18.52,1.28.34,1.45-.17.8-2.3,1.13-4.91.32-7.26-.12-.34-.27-.89-.54-1.15-.17-.17-.45-.17-.68-.14-.6.06-1.17.35-1.66.68-1.08.72-1.97,1.69-2.79,2.67-1.96,2.34-3.59,4.95-5.13,7.59-.36.61,1.1.49,1.36.06h0Z"/>
    <path class="cls-36" d="M1139.13,268.85c1.42.04.63,2.66.47,3.41-.18.86-.8,3.02.77,2.85.76-.08,1.23-.6,1.57-1.24.52-.97.84-2.04,1.12-3.09.35-1.32.53-2.48.46-3.84-.08-1.64-.45-3.66-2.05-4.49-.39-.2-1.73.38-1.16.67,1.27.66,1.59,2.36,1.72,3.65.1,1.01.09,2-.12,2.98-.24,1.12-.54,2.24-.96,3.32-.13.35-.28.69-.46,1.01-.06.1-.22.26-.25.37,0,.02-.09.09-.09.09,0-.03.8-.12.81-.16,0-.09-.17-.37-.18-.5-.02-.29.03-.58.08-.87.12-.69.29-1.36.41-2.04.11-.63.24-1.38,0-2-.26-.67-.9-.86-1.56-.88-.28,0-.82.11-.96.38s.13.38.38.39h0Z"/>
    <path class="cls-15" d="M768.25,287.35c5.53.39,14.4.49,14.4.49,0,0-.38,13.16-15.28,11.88-12.81-1.1-9.93-13.05-9.93-13.05,0,0,5.27.28,10.8.67Z"/>
    <path class="cls-36" d="M768.2,287.35c2.63.19,13.12,1.16,13.12,1.16,0,0-4.49,7.11-14,6.44-10.31-.73-8.18-7.59-8.18-7.59h9.06Z"/>
    <path class="cls-20" d="M768.83,287.9c2.63.19,10.52.97,10.52.97,0,0-2.98,2.5-10.87,1.94-7.89-.56-9.4-3.3-9.4-3.3l9.75.39Z"/>
    <path class="cls-15" d="M756.67,285.61c.28-.06.28-.07,1.58-.11,2.16-.07,2.98-.81,4.55-.85,2.67-.06,3.34,1.16,4.5,1.24,1.15.08,2.93-1.08,5.57-.64,1.55.26,5.15,1.38,7.28,1.76,1.28.23,3.59-.06,3.86.04.37.14-1.17,3.13-15.68,2.11-14.51-1.03-12.04-3.46-11.65-3.55Z"/>
    <g>
      <path class="cls-9" d="M45.51,404.29h138.91s9.6,39.5,9.47,39.12c-.13-.38-140.01-1.59-140.01-1.59l-8.37-37.53Z"/>
      <g>
        <polygon class="cls-9" points="189.47 916.87 197.12 916.87 197.12 709.34 183.19 709.34 189.47 916.87"/>
        <polygon class="cls-9" points="196.12 916.87 203.77 916.87 210.05 709.34 196.12 709.34 196.12 916.87"/>
        <rect class="cls-33" x="88.68" y="670.07" width="275.42" height="40.28"/>
        <rect class="cls-9" x="249.98" y="670.07" width="114.12" height="40.28"/>
        <polygon class="cls-33" points="242.93 916.87 250.86 916.87 250.86 709.34 236.65 709.34 242.93 916.87"/>
        <polygon class="cls-9" points="249.86 916.87 257.79 916.87 264.07 709.34 249.86 709.34 249.86 916.87"/>
        <polygon class="cls-33" points="96.21 916.87 102.76 916.87 102.76 709.34 88.68 709.34 96.21 916.87"/>
        <polygon class="cls-9" points="102.25 916.87 110.05 916.87 116.33 709.34 102.25 709.34 102.25 916.87"/>
        <polygon class="cls-33" points="340.89 904.62 349.36 904.62 349.36 710.34 334.61 710.34 340.89 904.62"/>
        <polygon class="cls-9" points="349.36 909.04 357.82 909.04 364.1 710.34 349.36 710.34 349.36 909.04"/>
        <path class="cls-33" d="M88.68,670.07s-5.85-93.92-14.48-133.21c-8.64-39.29-32.37-138.81-32.37-138.81h21.2s22.95,101.78,30.02,136.01c7.07,34.23,14.57,136.01,14.57,136.01h-18.93Z"/>
        <path class="cls-9" d="M100.17,670.07s-5.02-93.92-12.45-133.21c-7.42-39.29-32.37-138.81-32.37-138.81h15.02s23.62,101.78,29.7,136.01c6.07,34.23,16.37,136.01,16.37,136.01h-16.27Z"/>
        <path class="cls-33" d="M221.56,670.07s-5.84-93.92-14.48-133.21c-8.25-37.54-5.49-34.56-35.52-138.81h24.34s22.95,101.78,30.02,136.01c7.07,34.23,14.57,136.01,14.57,136.01h-18.93Z"/>
        <path class="cls-9" d="M233.05,670.07s-5.02-93.92-12.45-133.21c-7.42-39.29-32.37-138.81-32.37-138.81h15.02s23.62,101.78,29.7,136.01c6.07,34.23,16.37,136.01,16.37,136.01h-16.27Z"/>
      </g>
      <path class="cls-9" d="M77.06,474.44h138.91s9.6,39.5,9.47,39.12c-.13-.38-140.01-1.59-140.01-1.59l-8.37-37.53Z"/>
    </g>
    <path class="cls-12" d="M208.46,188.54c4.1-4.96,10.15-8.03,16.16-5.92.63-12,12.77-18.19,24.77-17.62,6.14.57,12.26,3.82,18.21,2.22,3.72-.99,6.67-3.62,9.94-5.76,13.69-8.63,33.2,4.05,43.31,16.7,10.11,12.65,6.39,25.63-.37,40.32-3.14,6.84-3.01,10.69-4.37,18.14-1.29,7.03-6.56,19.88-7.17,26.91-.61,7.03,9.83,15.22,2.69,15.25l-76.64-14.93c-11.66,1.4-18.74-2.63-23.86-13.2-3.31-7.17-2.01-7.39-1.93-15.27-.14-10.32-9.98-18.82-8.59-29.05.67-6.44,4.03-12.57,7.84-17.81Z"/>
    <path class="cls-38" d="M198.89,187.38s27.74-11.24,61.94-4.82c34.2,6.42,49.45,28.82,54.33,44.44,4.88,15.61-2.74,31.06-2.74,31.06,0,0,8.45,2.99,16.52-27.62,11.76-44.61-32.41-75.38-43.58-76.07-11.17-.69-67.33-16.52-86.47,33.01Z"/>
    <path class="cls-23" d="M220.43,265.84s5.16,23.96-8.84,44.46c-1.58,2.32-18.8,13.07-18.8,13.07l24.31,9.83c13.54,4.25,46.94,24.6,60.62,20.85l9.4-20.63s-14.07-8.3-14.5-11.58c-.43-3.28,3.96-27.55,3.96-27.55"/>
    <path class="cls-41" d="M272.71,317.65s-5.68-1.42-9.56-2.86c-3.88-1.44-10.69-1.76-27.68-19.13,0,0,3.77,19.95,26.77,26.04,0,0,6.42,1.54,10.46.91v-4.96Z"/>
    <path class="cls-23" d="M302.96,200.73c.07.07.15.15.23.22-.08-.14-.15-.29-.2-.44l-.04.22ZM312.54,204.4c.12.16.26.32.41.48l.03-.18s-.4-.52-.44-.3ZM233.2,293.22c7.72,11.04,24.64,23.83,39.4,25.67,5.29.66,10.38.9,15.15-4.97,4.82-5.94,8.77-8.01,13.86-13.42,4.88-5.19,7.2-8.53,10.05-15.03,2.95-6.72,3.23-8.58,3.62-15.71.17-3.19.72-7.97,1.45-10.94.84-3.43,4.65-16.86,6.28-24.85,1.62-7.98-2.24-24.2-2.24-24.2-.1-2.25-3.28-1.61-4.16-3.55l-.94-.16s.43.3.32.95c-1.17-.39-2.25-1.25-3.04-2.13v.04c-1.54.41-2.84-.49-3.84-1.78-.04.22.12.69.36.73-1.45-.03-2.76-.92-3.56-1.95-.04.22.13.69.09.91-1.04-.38-2.02-1.12-2.81-1.87.17.32,5.64.41,5.62.56-1.45-.03.09.72-.91-.56l-1.03-1.01c-1.22.01-1.3.73-2.09-.3.2.26-.24-2.5-.28-2.28-1.42-.24-1.02-.27-2.09-1.13-.04.22-4.11.74-4.14.96-1.18-.2-1.06.93-1.85-.1.2.26,1.01-.76,1.21-.5-1.45-.03-2.15.79-3.14-.5.2.26-4.26-3.19-4.26-3.19-1.46-.03-1.29.46-2.32-.61.4.52-6.47-1.53-6.31-1.06-1.18-.2,1.51,4.72.68,3.91-.04.22-2.61-1.12-2.61-1.12-1.22.01.37,1.4-.43.37-.04.22.09.91.32.95-1.53.41-3.11-.31-4.38-1.43.4.52.56.99.76,1.25-1.18-.2-2.16-.15-3.2-1.22-.04.22.32.95.56.99-1.26.23-2.64-.23-3.71-1.09-.04.22.36.73.56.99-.98.05-1.93-.11-2.76-.92l.56.99c-.94-.16-1.73.15-3.07-.53-.04.22.4.52.36.73-.71-.12-1.66-.29-2.33-.63-.04.22.6.77.36.73-.94-.16-1.73.15-2.83-.49.2.26.36.73.56.99-.95-.16-1.93-.11-2.8-.71-.04.22.12.69.32.95-.95-.16-1.73.15-2.84-.49-.04.22.36.73.56.99-.95-.16-1.93-.11-2.84-.49-.04.22.4.52.6.77-.95-.16-1.93-.11-3.04-.75-.07.43.12.69.09.91-.71-.12-1.14-.42-1.85-.54l-1.26.23c-4.06,3.77-15.87-1.88-15.87-1.88-8.34,4.59-3.69,36.25-4.17,40.41-.48,4.16-3.01,4.91-3.01,4.91-.92-1.72-3.14,2.52-3.55.66-.45-1.64.36-3.51-.08-5.15-1.53-3.84-6.44-3.57-9.41-1.85l-.56.64c-4.46,4.28-3.13,20.2-1.23,25.19-.79,9.36,6.5,15.58,12.2,9.7l.67,3.82"/>
    <g>
      <path class="cls-13" d="M284.94,278.07c-1.9.61-4.52-.06-6.09-1.45-.35-.31-1.68-.3-1.2.13,2.07,1.83,5.86,2.62,8.31,1.84.24-.08.23-.26-.03-.4-.27-.15-.74-.21-1-.12"/>
      <path class="cls-13" d="M276.98,276.12c-1.08-.75-2.34-1.27-3.63-1.6-.19-.05-.45-.02-.61.08-.13.08-.17.21-.04.31.54.45,1.29.73,2,.84.22.03.53.03.69-.14.15-.16-.05-.31-.22-.33-.59-.09-1.16-.31-1.61-.68-.22.13-.44.26-.66.4,1.16.29,2.28.77,3.24,1.44.19.13.5.12.71.04.15-.06.34-.22.14-.36"/>
      <path class="cls-13" d="M271.75,275.39c-1.53-.3-3.21-1.28-3.77-2.56-.84-1.93.69-4.49,2.8-5.27.23-.08.15-.26-.06-.34-.27-.11-.61-.06-.85.03-1.83.68-3.3,2.74-3.33,4.41-.03,1.56,1.26,2.87,3.01,3.63.52.22,1.09.41,1.66.53.23.04.66.05.81-.11.15-.16-.05-.28-.27-.32"/>
      <path class="cls-13" d="M287.88,277.78c-.05-.19.12-.28.24-.25.41.08.85.04,1.26-.18.11.19.21.38.32.56-.84-.05-1.72.07-2.55.44-.16.07-.37-.03-.48-.16-.08-.1-.16-.31,0-.38"/>
      <path class="cls-13" d="M286.68,277.8c.92-.41,1.9-.54,2.85-.48.14,0,.3.11.38.25.06.11.05.25-.06.31"/>
      <path class="cls-13" d="M291.03,278.53c1,.13,2.29-.33,2.98-1.39,1.04-1.6.71-3.78-.35-5.1-.11-.14-.02-.29.13-.31.19-.03.38.11.5.26.92,1.15,1.35,2.84.91,4.44-.42,1.49-1.55,2.39-2.82,2.62-.38.07-.77.09-1.15.04-.15-.02-.41-.14-.45-.33-.04-.2.11-.25.25-.23"/>
    </g>
    <path d="M307.69,251.1c1.43-.45,3.02.39,3.75,1.3.17.21,1.25.37,1.35,1.28.13,1.16-.52,2.33-1.34,2.97-1.1.85-2.67.76-3.75,0-1.47-1.02-1.66-3.04-1.02-4.38.12-.24.65-1.27,1.8-1.63"/>
    <path d="M293.79,253s7.25-3.92,10.57-3.68c4.85.35,10.26,4,11.54,6.66,0,0-7.09-5.29-10.51-5.44-3.27-.14-11.61,2.46-11.61,2.46Z"/>
    <path d="M267.39,244.27c-1.19-.91-3.34-1.08-4.33-.47-.23.14-.86.56-1.27,1.38-.51,1.05-.29,2.37.27,3.25.75,1.17,2.26,1.61,3.53,1.27,1.73-.47,2.59-2.31,2.43-3.78-.03-.27.32-.72-.65-1.45"/>
    <path d="M274.09,249.21s-6.42-5.83-9.95-6.55c-5.15-1.05-11.85.92-13.95,3.1,0,0,8.92-3.06,12.53-2.22,3.45.8,11.38,5.67,11.38,5.67Z"/>
    <path class="cls-17" d="M297.44,235.68c-.07.98-.15,1.96-.22,2.94-.05.75-.11,1.49-.16,2.24,2.55-.43,4.71-.68,6.35-.82,3.46-.3,5.22-.44,7.18.05,2.05.51,3.76,1.43,4.42,1.79.93.51,1.56.83,2.29,1.45,1.58,1.35,2.16,2.77,2.45,2.67.26-.09-.06-1.32-.09-1.45-.81-3.11-3.02-5.09-3.18-5.24,0,0-1.66-1.53-4.44-2.47-1.92-.65-7.32-1.44-14.59-1.14"/>
    <path class="cls-17" d="M278.69,231.57c-.24.95-.48,1.9-.72,2.86-.19.73-.37,1.45-.56,2.17-2.49-1.27-4.65-2.23-6.3-2.92-3.47-1.45-5.25-2.18-7.43-2.38-2.29-.21-4.35.08-5.15.2-1.13.17-1.88.26-2.83.6-2.07.74-3.13,1.89-3.39,1.7-.24-.17.49-1.23.56-1.34,1.85-2.67,4.77-3.79,4.99-3.89,0,0,2.21-.89,5.39-.84,2.19.03,8.03,1.11,15.44,3.85"/>
    <path class="cls-5" d="M221.21,252.99c-3.93-12.99-7.67-13.48-7.67-13.48,0,0-2.84,2.6-2.21,8.5"/>
    <path class="cls-5" d="M219.15,253.91c-3.32-.7-1.42,5.86-2.51,7.23-1.09,1.37-1.89-2.68-1.79-7.46,0,0,.69-6.39,3.99-7.22"/>
    <path class="cls-17" d="M317.15,199.69c-.09-.16.04.07,0,0-1.8-3.11-2.83-6.33-4.76-9.36-1.9-2.96-3.77-5.66-5.83-8.51-.12-.17-2.84-.49-2.96-.66-.02-.03-.1-.14-.13-.18-.07-.09-.13-.18-.2-.27-.15-.21-.31-.41-.46-.61-12.41-6.84-27.96-9.08-42.46-6.06-28.16,5.87-46.24,33.46-40.37,61.63.5,2.41-1.16,5.12,1.01,6.66,2.18,1.53,2.51.9,4.83-.41,2.23-1.46,4.09-3.41,5.44-5.7,7-10.77,10.11-28.64,8.58-41.39,1.3,2.5,12.07,1.02,14.28,2.78,8.71,6.95,21.4,5.53,28.35-3.18.83,1.48,1.77,2.89,2.83,4.21,9.66,12.11,23.11,18.8,35.5,12.01.45-.25-2.52-8.99-3.64-10.96Z"/>
    <path class="cls-10" d="M248.44,239.63l.77,4.64c.31,3.55,1.81,10.73,2.69,12.77,1.24,2.85,19.24,6.73,23.14,5.21,3.9-1.51,7.55-11.58,8.88-13.84l7.2,1.56c.15,3.22.85,13.44,2.02,14.99,1.17,1.55,9.54,2.64,10.48,2.76.79.09,1.88.22,3.09.31,3.19.27,7.09.35,8.45-.63,2.02-1.45,4.99-7.75,7.63-13.73l.43-.94c.09-.23.2-.38.21-.45h0l.47-1.08c-9.67-6.65-23.53-8.01-32.84-3.21l.05.12-7.02-1.56c-7.15-6.59-20.53-11.69-31.04-9.42h0l-31.55.23-.53,2.71,27.48-.45ZM294.15,264.08c-.73-.97-1.43-8.16-1.79-13.73,8.07-4.02,20.56-2.78,29.29,2.63l-.03.14c-1.42,3.21-5.18,11.74-7.17,13.17-2.35,1.68-19-.66-20.3-2.18v-.03ZM254.16,256.64c-1.67-5.42-2.84-10.97-3.51-16.6,9.45-2.61,24.43,2.07,31.45,8.37-1.95,4.14-4.74,11.48-7.53,12.56-4.02,1.56-19.64-2.53-20.41-4.33h0Z"/>
    <path class="cls-7" d="M205.96,239.67s-24.39-21.1-12.74-40.51c2.24-3.73,2.34-2.43,2.74-5.78,2.1-17.57-4.42-13.9,23.16-32.29,27.58-18.39,31.35-17.71,70.49-11.38,20.19,3.26,30.58,12.71,35.03,26.06,2,6,2.79,12.79,2.74,20.16,0,0-40.5-15.41-66.37-4.2-25.87,11.21-55.56,52.38-51.48,66.75,1.15,4.04-3.57-18.81-3.57-18.81Z"/>
    <path class="cls-38" d="M191.58,219.02s39.65-48.3,86.75-45.83c0,0-57.48-11.19-86.72,28.04l-.8,4.84c-.5,3.01-.47,6.09.07,9.09l.7,3.87Z"/>
    <path class="cls-22" d="M278.37,285.27c-7.44-1.47-19.34-4.67-19.34-4.67,0,0-.98,19.19,16.28,22.59,17.26,3.4,20-15.85,20-15.85,0,0-9.5-.6-16.94-2.06Z"/>
    <path class="cls-27" d="M278.44,285.28c-3.54-.7-16.62-3.75-16.62-3.75,0,0,2.23,12.2,15.03,14.72,13.88,2.73,16.62-8.9,16.62-8.9l-15.03-2.07Z"/>
    <path class="cls-18" d="M278.5,285.82c-3.54-.7-14.2-3.39-14.2-3.39,0,0,3.15,4.45,13.77,6.54,10.62,2.09,14.69-.83,14.69-.83l-14.26-2.33Z"/>
    <path class="cls-22" d="M296.18,287.41c-.36-.16-.8-.06-2.53-.55-2.88-.82-3.47-1.78-5.56-2.36-3.57-.98-6.14-.07-7.71-.38-1.58-.31-3.61-2.12-7.28-2.57-2.15-.26-7.55-.56-10.53-.9-1.79-.2-3.72-1.26-4.11-1.24-.55.02-.25,3.87,19.55,7.77,19.8,3.9,18.68.46,18.18.23Z"/>
    <path class="cls-1" d="M147.35,527.55s-49.05,68.66-18.96,120.26c14.34,24.57,57.23,24.55,57.23,24.55l44-50.11v-82.87l-82.27-11.83Z"/>
    <path class="cls-1" d="M394.89,636.73c.33-3.79.87-7.57,1.56-11.3,1.56-8.43-6.27,6.91-3.31-1.12,3.04-8.25.91,8.14,5.24.5,2.95-5.2-6.35-13.8-2.75-18.58-36.38-30.14-104.34-79.75-104.34-79.75,0,0-184.76,59.82-166.93,109.23,23.63,65.49,203.06,42.39,262.81,22.26.29-.1,5.36,8.71,7.71-21.25Z"/>
    <path class="cls-35" d="M275.69,562.32l30.64-2.63c20.76-6.99,18.34-15.13,18.27-16.17-1.11-16.89-7.04-39.13-6.39-51.41,0,0,1.19-15.67,3.03-21.21,1.9-5.74,6.66-10.28,9.12-15.79,2.64-5.9,4.36-11.85,4.58-18.32.26-7.6-.4-15.18-1.39-22.71-1.06-8.08-2.39-16.08-4.07-24.06-1.32-6.3-2.42-12.64-3.71-18.95-1.95-9.58-7.45-13.32-7.89-23.34-1.87-1.28-6.74-4.95-8.72-6.08l-36.45-19.45s10.43,16.22-17.91,15.96-42.53-29.96-42.53-29.96c-13.6,4.03-43.32,18.15-49.29,22.5-32.66,23.8-13.78,141.58-13.78,141.58,0,0-23.41,64.64-27.69,80.75-4.28,16.11-1.1,34.91-1.1,34.91l3.61-2.5c15.62-10.84,33.65-17.7,52.52-19.93,24.87-2.94,62.01-5.83,99.14-3.2Z"/>
    <g id="freepik--character-1--inject-1332">
      <path class="cls-23" d="M295.12,804.77s8.67,53.45,8.72,56.62l26.49,4.93,10.43-7.56,5.95-58.69-51.59,4.7Z"/>
    </g>
    <path class="cls-23" d="M341.14,851.21l35.94,33.6c2.37,3.48-46.09,15.11-77.37-33.49l7.85-10.05,33.58,9.94Z"/>
    <g>
      <path class="cls-21" d="M401.65,911.65s3.77-4.99-.16-7.95c-3.94-2.96-24.31-21.01-26.82-21.23-.43,1.71-3.23,3.34-8.73,3.45-5.51.11-11.68.46-23.99-5.67-9.23-4.6-28.32-13.61-35.7-21.21-2.46-2.54-5.11-9.51-5.06-10.41-13.56,8.85-13.96,22.16-10.13,26.54,3.83,4.38,30.94,14.18,30.94,14.18l22.88,12.71,22.82,7.56,9.79,2.51,12.14,1.54,12.02-2.02Z"/>
      <path class="cls-25" d="M290.19,873.65c2.72,1.89,11.93,6.22,20.16,8.7,22.1,6.68,28.76,11.6,35.65,16,3.47,2.22,7.09,4.55,12.27,6.96,24.71,11.66,42.5,6.5,43.14,6.26.26.44.33.85.34,1.46-.31.15-2.84,1.5-6.35,2.03-8.24,1.24-19.76,2.08-39.01-6.54-5.46-2.44-8.77-3.81-12.2-6.01-5.17-3.3-10.47-6.69-22.71-11.09l-1.01,3.78s-23.82-5.72-33.17-13.29c.85-6.01,2.89-8.26,2.89-8.26Z"/>
      <path class="cls-25" d="M288,878.46c13.12,7.61,28.47,12.02,33.35,13.41l-.89,3.33s-23.82-5.72-33.17-13.29c.19-1.33.44-2.47.7-3.45Z"/>
    </g>
    <g id="freepik--character-1--inject-1332-2" data-name="freepik--character-1--inject-1332">
      <path class="cls-23" d="M285.66,794.99s-10.3,50.33-11.33,53.15l21.83,13.29,11.79-3.2,25.04-50.05-47.34-13.2Z"/>
    </g>
    <path class="cls-23" d="M308.68,855.96l35.94,33.6c2.37,3.48-46.09,15.11-77.37-33.49l7.85-10.05,33.58,9.94Z"/>
    <g>
      <path class="cls-21" d="M370.02,916.39s3.77-4.99-.16-7.95c-3.94-2.96-24.31-21.01-26.82-21.23-.43,1.71-3.23,3.34-8.73,3.45-5.51.11-11.68.46-23.99-5.67-9.23-4.6-28.32-13.61-35.7-21.21-2.46-2.54-5.11-9.51-5.06-10.41-13.56,8.85-13.96,22.16-10.13,26.54,3.83,4.38,30.94,14.18,30.94,14.18l22.88,12.71,22.82,7.56,9.79,2.51,12.14,1.54,12.02-2.02Z"/>
      <path class="cls-25" d="M258.55,878.39c2.72,1.89,11.93,6.22,20.16,8.7,22.1,6.68,28.76,11.6,35.65,16,3.47,2.22,7.09,4.55,12.27,6.96,24.71,11.66,42.5,6.5,43.14,6.26.26.44.33.85.34,1.46-.31.15-2.84,1.5-6.35,2.03-8.24,1.24-19.76,2.08-39.01-6.54-5.46-2.44-8.77-3.81-12.2-6.01-5.17-3.3-10.47-6.69-22.71-11.09l-1.01,3.78s-23.82-5.72-33.17-13.29c.85-6.01,2.89-8.26,2.89-8.26Z"/>
      <path class="cls-25" d="M256.37,883.2c13.12,7.61,28.47,12.02,33.35,13.41l-.89,3.33s-23.82-5.72-33.17-13.29c.19-1.33.44-2.47.7-3.45Z"/>
    </g>
    <path class="cls-16" d="M370.36,917.88c1.96-1.79,3.44-4.78,2.5-7.42-.68-1.9-2.51-3.35-3.96-4.65-5.23-4.69-10.87-8.91-16.28-13.38-2.9-2.4-5.8-4.83-8.43-7.51-.76-.77-3.36.28-2.53,1.14,4.67,4.77,10.04,8.86,15.23,13.04,2.6,2.1,5.22,4.19,7.76,6.36,1.69,1.44,3.53,2.91,4.88,4.69,1.69,2.22.56,5.33-1.41,7.13-.46.42-.23.96.3,1.13.64.21,1.46-.08,1.94-.52h0Z"/>
    <path class="cls-1" d="M415.17,686.75c-12.31,57.07-32.29,108.45-54.04,164.98,0,0-55.73,3.48-61.91-10.98,0,0,9.99-93.34-5.82-169.13-13.92-66.74-134.17-98.28-114.27-100.33,31.31-3.23,174.77,14.37,209.92,31.74,23.3,11.52,34.29,45.88,26.13,83.72Z"/>
    <path class="cls-1" d="M276.4,655.01c-.9,2.48-.99,9.49-6.63,35.27-11.04,50.46-2.64,118.55-10.98,144.91,8.15,14.08,89.9,22.9,89.9,22.9,14.04-44.43,37.42-122.5,54.59-180.22l-126.88-22.85Z"/>
    <path class="cls-41" d="M309.27,225.43c-10.96.27-21.87-2.41-31.47-7.71-.39-.22-1.62.38-1.36.52,9.85,5.43,20.99,8.14,32.23,7.86.45-.01,1.57-.7.6-.68h0Z"/>
    <path class="cls-37" d="M330.87,390.3c-5.76,11.35-2.7,23.72.37,35.36,1.61,6.1,3.24,12.26,3.71,18.58.49,6.58-.48,13.15-3.3,19.14-1.92,4.08-4.61,7.76-7.66,11.06-.91.98-1.85,1.93-2.82,2.84-.61.58-1.65,1.2-1.99,1.97-.41.91-.45,2.16-.66,3.15-.16.75,2.14.38,2.28-.33.2-.93.27-2.01.61-2.9.23-.61.9-.99,1.4-1.46.82-.77,1.62-1.55,2.4-2.36,2.87-2.96,5.43-6.23,7.45-9.84,3.23-5.76,4.78-12.16,4.72-18.75-.11-12.61-5.52-24.31-7.14-36.69-.91-6.91-.27-13.82,2.91-20.11.28-.55-1.94-.35-2.28.33h0Z"/>
    <path class="cls-41" d="M327.82,873.06c-2.86-3.26-5.72-6.53-8.58-9.79-1.39-1.58-2.78-3.16-4.16-4.75-1.08-1.24-2.7-3.12-1.66-4.82.41-.67-1.06-.66-1.38-.14-.89,1.46-.2,3.07.7,4.35,1.28,1.82,2.93,3.43,4.39,5.1,3.12,3.56,6.24,7.12,9.36,10.68.41.47,1.79-.1,1.33-.63h0Z"/>
    <path class="cls-34" d="M508.87,480.04s.08.03.13.03c0-.1-.01-.21-.02-.31-.04.09-.07.19-.11.28Z"/>
    <path class="cls-34" d="M489.97,440.74s-.06.07-.1.1c-.06-.1-.12-.2-.18-.3.09.07.19.13.28.2Z"/>
    <path class="cls-35" d="M184.59,332.25c-21.8,6.42-37.29,41.8-29.4,61.05,10.61,46.86,42.54,112.12,64.17,127.54,26.51,18.9,157.89,2.78,157.89,2.78l3.37-38.37-119.27-5.63s-38.07-121.34-44.52-127.41"/>
    <path class="cls-37" d="M381.07,484.6c-4.3-.27-8.6-.54-12.9-.81-10.28-.65-20.56-1.3-30.84-1.95-12.43-.78-24.86-1.57-37.29-2.35-10.78-.68-21.56-1.36-32.33-2.04-3.53-.22-7.05-.44-10.58-.67-1.6-.1-3.44-.47-5.04-.32-.07,0-.15,0-.23-.01l.7.34c-1.79-5.41-3.61-10.81-5.43-16.21-4.17-12.37-8.39-24.73-12.68-37.07-4.72-13.58-9.51-27.14-14.53-40.61-2.02-5.43-4.09-10.85-6.27-16.22-1.45-3.58-2.91-7.18-4.7-10.61-.47-.89-.94-1.85-1.6-2.62-.07-.08-.31-.35-.18-.15-.11-.16-.18-.37-.27-.55-.44-.88-.91-1.74-1.39-2.6-3.59-6.39-8.23-13.33-14.85-16.89-1.57-.84-3.27-1.43-5.04-1.64-.52-.06-1.24.02-1.62.43-.29.31-.32.75.22.81,3.9.46,7.21,2.9,9.94,5.58,2.8,2.76,5.17,5.97,7.26,9.29,1.23,1.95,2.25,4,3.38,6.01.36.64.88,1.2,1.26,1.84,1.68,2.86,2.97,6.1,4.26,9.18,2.1,5.03,4.06,10.12,5.98,15.21,4.96,13.15,9.66,26.39,14.29,39.66,4.42,12.64,8.76,25.31,13.05,38,1.48,4.38,2.95,8.75,4.42,13.13.7,2.08,1.23,4.33,2.12,6.34.04.09.06.19.09.28.09.29.45.33.7.34,4.3.27,8.6.54,12.9.81,10.28.65,20.56,1.3,30.84,1.95,12.43.78,24.86,1.57,37.29,2.35,10.78.68,21.56,1.36,32.33,2.04,5.2.33,10.42.83,15.62.99.08,0,.15,0,.23.01.88.06,2.44-1.2.89-1.3h0Z"/>
    <path class="cls-37" d="M150.98,398.72c4.18,16.39,10.64,32.18,17.19,47.73,3.31,7.85,6.72,15.65,10.09,23.46,2.63,6.08,5.12,12.21,7.78,18.28,2.82,6.44,5.87,12.81,9.59,18.79,3.5,5.62,7.66,11.1,13.09,14.99,1.21.86,2.47,1.65,3.79,2.32,1.85.93,3.69,1.94,5.58,2.79,2.1.95,4.43,1.32,6.67,1.79,2.17.46,4.34.89,6.52,1.28,6.05,1.09,12.18,1.91,18.33,2.11,3.98.13,7.96-.01,11.94-.27,6.01-.4,12.01-.8,18.02-1.2,9.32-.62,18.64-1.24,27.96-1.86,10.22-.68,20.44-1.36,30.66-2.04l25.73-1.71c4.53-.3,9.05-.6,13.58-.9l.61-.04c.49-.03,1.31-.35,1.3-.94,0-3.18,0-6.36-.01-9.54,0-.7-2.3-.27-2.3.62,0,3.18,0,6.36.01,9.54.43-.31.87-.63,1.3-.94-3.1.21-6.2.41-9.3.62-7.74.51-15.48,1.03-23.22,1.54-9.92.66-19.83,1.32-29.75,1.98-9.76.65-19.52,1.3-29.27,1.95-7.12.47-14.24.95-21.35,1.42-1.84.12-3.67.24-5.51.37-.36.02-.72.06-1.07.07-.02,0-.05,0-.07,0,.4-.02-.3,0-.43,0-.66.01-1.33.03-1.99.05-4.27.11-8.53-.04-12.79-.47-3.41-.35-6.81-.85-10.19-1.45-2.14-.38-4.27-.79-6.4-1.23-2.38-.5-4.92-.84-7.14-1.85-1.89-.85-3.73-1.86-5.58-2.79-1.35-.68-2.64-1.48-3.85-2.38-2.6-1.92-4.9-4.22-6.97-6.69-4.54-5.4-8.07-11.6-11.18-17.91-2.94-5.96-5.5-12.09-8.06-18.22-2.94-7.01-6-13.97-9.02-20.95-6.81-15.79-13.59-31.67-18.83-48.06-1.15-3.6-2.21-7.22-3.15-10.88-.2-.79-2.5-.19-2.3.62h0Z"/>
    <path class="cls-37" d="M252.56,475.32c-9.26-1.38-19.28,4.1-22.44,13.05-.45,1.27,1.85,1.29,2.2.29,2.78-7.86,11.24-12.85,19.46-11.62,1.16.17,2.32-1.49.78-1.72h0Z"/>
    <path class="cls-23" d="M377.51,513.82l33.29,4.82,19.57-5.53c6.28-.47,12.55-1.29,18.75-2.47,2.63-1.09,2.13-2.64,1.65-3.79-.48-1.15-14.79-2.07-14.79-2.07,0,0,19.5-1.18,22.37-3.47s1.49-4.89.25-6.28c-1.24-1.39-32.34,2.78-32.34,2.78l12.79-4.18s17.6.7,21.54-1.64c3.95-2.34,1.58-7.19,1.58-7.19l-21.5.24-14.99.83,15.16-3.23s15.47-.09,18.54-3.03c3.06-2.94-.96-6.21-.96-6.21l-22.36-.85-24.06,3.88c2.61-1.96,5.1-2.3,7.09-4.91,2.76-3.86-.27-5.31-.27-5.31l-21.26,4.76-17.6,16.63-2.46,26.22Z"/>
    <path class="cls-23" d="M471.42,504.74l-15.41-.37,7.16,4.04c3.48.53,6.88,1.5,10.11,2.88,1.74,1.43.17,4.44.17,4.44l-26.88-4.8-13.58-.5c-5.24-.19-9.93-3.21-12.32-7.92l-9.56-18.86,9.88-10.53,9.25-11.97,6.04-5.69,11.15-5.36s3.33,2.45-.6,6.49c-3.93,4.04-6.42,6.24-6.42,6.24l-4.34,7.63,2.7,2.84,25.53,1.97,8.37-2.27s7.34-5.93,13.29-3.78c.22.09.41.24.55.43.41.57.28,1.38-.29,1.81l-13.63,10.03-9.11,1.72,10.13.86s12.53-5.01,17.49-3.99c4.96,1.02,2.21,3.63,2.21,3.63l-15.32,8.95-14.89,1.86,10.27,1.2,13.33-1.46s4.17-.27,4.29,2.74c.07,1.11-.58,2.14-1.6,2.55l-17.96,5.19Z"/>
    <path class="cls-26" d="M504.02,467.05s17.12-6.05,30.3-14.01c0,0-13.01,4.15-30.3,14.01Z"/>
    <path class="cls-26" d="M506.1,477.7s24.17,4.98,42.78,4.05c0,0-18.9-2.85-42.78-4.05Z"/>
    <path class="cls-26" d="M502,489.5s16.87,11.31,31.46,16.44c0,0-13.54-8.06-31.46-16.44Z"/>
    <path class="cls-26" d="M484.7,454.79s1.8-20.48.7-32.62c0,0-2.09,14.58-.7,32.62Z"/>
    <path class="cls-26" d="M473.89,456.83s-8.73-21.72-16.07-33.48c0,0,5.41,15.88,16.07,33.48Z"/>
    <path class="cls-26" d="M495.89,458.49s15.98-18.61,23.66-34.84c0,0-11.36,13.74-23.66,34.84Z"/>
    <path class="cls-41" d="M430.45,513.55c5.74-.43,11.45-1.14,17.12-2.15,1.73-.31,4.33-.66,5.09-2.58.29-.74.19-2.09-.47-2.62-.51-.4-1.46-.43-2.07-.52-1.17-.17-2.36-.26-3.54-.34-2.93-.2-5.86-.31-8.8-.39-1.86-.05-3.71-.1-5.57-.12l-.92,1.07c3.83-.29,7.65-.67,11.46-1.09,2.96-.33,5.91-.7,8.85-1.18,2.24-.37,4.58-.73,6.71-1.55,2.67-1.02,4.29-3.76,2.69-6.42-.38-.63-.73-1.19-1.45-1.4-.68-.19-1.43-.19-2.13-.21-5.13-.16-10.32.38-15.43.8-4.14.34-8.27.72-12.4,1.15l-.06.95c2.25-.67,4.5-1.34,6.74-2,1.38-.41,2.77-.82,4.15-1.23.24-.07.64-.11.85-.25.28-.19-.29.24-.46.06.03.03.26,0,.3,0,2.76.27,5.7,0,8.47-.13,3.45-.17,7.16-.34,10.44-1.53,3.07-1.12,5.32-4.21,3.83-7.46-.11-.24-.43-.24-.65-.24-9.38.1-18.76.09-28.13.6-2.79.15-5.57.31-8.36.46l-.34.98c5.02-1.61,10.04-3.21,15.06-4.82.14-.04.51-.09.62-.2-.58.56-1.09-.04-.66.1.16.05.37.05.53.08,1.41.19,2.82.34,4.23.44,3.55.25,7.65.49,10.99-.97,1.57-.69,2.98-2.08,2.87-3.92-.07-1.21-1.03-3.02-2.13-3.67-.45-.26-1.07-.2-1.57-.22l-3.9-.22-10.23-.58c-1.75-.1-3.66-.43-5.41-.26-2.82.28-5.64.91-8.43,1.36-2.65.43-5.31.86-7.96,1.28-.3.05-1.27.26-1.29.68-.02.44.63.38.92.34,5.05-.81,10.1-1.63,15.15-2.44.34-.05.7-.09,1.03-.17.53-.13-.27-.03-.23-.02.52.24,1.56.09,2.13.12l9.14.52c2.69.15,5.38.31,8.07.46.23.01.46.04.69.04.26,0-.18-.06-.23-.1.15.14.31.27.45.42,1.35,1.38,2.27,3.48.79,5.13-.93,1.03-2.6,1.14-3.9,1.23-1.89.14-3.79.08-5.68-.06-1.35-.1-2.7-.24-4.05-.42-.62-.08-1.11-.14-1.73.03-2.79.74-5.53,1.77-8.28,2.65-2.42.77-4.84,1.55-7.25,2.32-.57.18-1.61,1.05-.34.98,4.95-.27,9.9-.63,14.86-.82,4.91-.19,9.85-.11,14.77-.17,2.29-.03,4.57-.05,6.86-.08l-.65-.24c1.18,2.57-.06,5.47-2.78,6.28-3.18.94-6.7,1.01-9.99,1.12-2.33.08-4.67-.05-7,.06-1.73.08-3.58.94-5.21,1.43-2.44.73-4.88,1.45-7.32,2.18-.94.28-1.42,1.09-.06.95,8.13-.84,16.31-1.68,24.48-1.89,1.21-.03,3.19-.26,4.18.13.57.22,1.22,1.45,1.44,2.24.41,1.5-.41,3.16-1.56,3.77-1.22.65-3.51.95-5.1,1.23-2.73.47-5.49.83-8.24,1.15-4.06.47-8.14.88-12.21,1.19-.38.03-1.31.14-1.48.57s.14.49.56.5c3.66.05,7.33.14,10.99.33,2.22.11,4.46.2,6.66.54.36.05,1.16.19,1.27.31.19.21.36,1.01.37,1.37.02,1.05-.77,1.55-1.69,1.77-2.81.68-5.77.98-8.63,1.36s-5.92.68-8.89.91c-.38.03-1.32.15-1.48.57s.13.53.56.5h0Z"/>
    <path class="cls-41" d="M411.98,475.82c-2.7-.61-5.67.55-8.09,1.7-2.37,1.13-4.51,2.7-6.33,4.58-.37.38.32.5.56.5.51,0,1.12-.2,1.48-.57,1.43-1.47,3.07-2.72,4.88-3.68.86-.46,1.76-.84,2.69-1.15.95-.31,2.01-.66,3.01-.43.52.12,1.1,0,1.57-.25.2-.11.77-.59.24-.71h0Z"/>
    <path class="cls-34" d="M536.66,422.88s.08.01.13,0c-.02-.1-.05-.2-.07-.3-.02.1-.04.2-.06.3Z"/>
  </g>
</svg>