<?xml version="1.0" encoding="UTF-8"?>
<svg xmlns="http://www.w3.org/2000/svg" xmlns:xlink="http://www.w3.org/1999/xlink" viewBox="0 0 1334 1000">
  <defs>
    <style>
      .cls-1, .cls-2, .cls-3, .cls-4 {
        fill: none;
      }

      .cls-5 {
        fill: #6d6d6d;
      }

      .cls-6 {
        stroke-width: .14px;
      }

      .cls-6, .cls-7, .cls-8, .cls-2, .cls-3, .cls-4 {
        stroke-miterlimit: 10;
      }

      .cls-6, .cls-7, .cls-8, .cls-4 {
        stroke: #000;
      }

      .cls-7 {
        stroke-width: .14px;
      }

      .cls-8 {
        stroke-width: .14px;
      }

      .cls-9 {
        fill: #622515;
      }

      .cls-10 {
        fill: #f0ebe0;
      }

      .cls-11 {
        fill: #273339;
      }

      .cls-12 {
        fill: #5e5f5f;
      }

      .cls-13 {
        fill: #010101;
      }

      .cls-14 {
        fill: #cd8b5d;
      }

      .cls-15 {
        fill: #653c29;
      }

      .cls-16 {
        fill: #ababab;
      }

      .cls-17 {
        fill: #356a89;
      }

      .cls-18 {
        fill: #715446;
      }

      .cls-19 {
        fill: #311a0e;
      }

      .cls-20 {
        fill: #4d2f15;
      }

      .cls-2 {
        stroke: #010101;
        stroke-width: .67px;
      }

      .cls-21 {
        fill: #a66e53;
      }

      .cls-22 {
        fill: #959696;
      }

      .cls-23 {
        fill: #283544;
      }

      .cls-24 {
        fill: #c95744;
      }

      .cls-25 {
        fill: url(#linear-gradient);
        opacity: .5;
      }

      .cls-26 {
        fill: #1b120c;
      }

      .cls-27, .cls-28, .cls-29, .cls-30 {
        fill: #fff;
      }

      .cls-31 {
        fill: #5e1a15;
      }

      .cls-32 {
        fill: #d7b029;
      }

      .cls-33 {
        fill: #528293;
      }

      .cls-3 {
        stroke: #6d6d6d;
        stroke-width: 1.8px;
      }

      .cls-4 {
        stroke-width: .34px;
      }

      .cls-28 {
        filter: url(#drop-shadow-1);
      }

      .cls-29 {
        filter: url(#drop-shadow-3);
      }

      .cls-30 {
        filter: url(#drop-shadow-2);
      }

      .cls-34 {
        fill: #afdaef;
      }

      .cls-35 {
        fill: #ccb631;
      }

      .cls-36 {
        fill: #4f2f26;
      }

      .cls-37 {
        fill: #24180f;
      }

      .cls-38 {
        fill: #706027;
      }

      .cls-39 {
        fill: #a53b23;
      }

      .cls-40 {
        fill: #343535;
      }

      .cls-41 {
        fill: #1a5988;
      }

      .cls-42 {
        fill: #5b481c;
      }

      .cls-43 {
        clip-path: url(#clippath);
      }

      .cls-44 {
        fill: #4f2e25;
      }

      .cls-45 {
        fill: #89772e;
      }
    </style>
    <linearGradient id="linear-gradient" x1="-4565.35" y1="6938.55" x2="-3415.29" y2="6938.55" gradientTransform="translate(-6267.58 4546.54) rotate(90) scale(1 -1)" gradientUnits="userSpaceOnUse">
      <stop offset="0" stop-color="#f0ebe0"/>
      <stop offset=".18" stop-color="#eee8dd" stop-opacity=".99"/>
      <stop offset=".33" stop-color="#e8e1d4" stop-opacity=".97"/>
      <stop offset=".46" stop-color="#ded4c5" stop-opacity=".93"/>
      <stop offset=".59" stop-color="#d0c2b0" stop-opacity=".88"/>
      <stop offset=".72" stop-color="#bdab95" stop-opacity=".82"/>
      <stop offset=".84" stop-color="#a78e73" stop-opacity=".73"/>
      <stop offset=".96" stop-color="#8d6d4d" stop-opacity=".64"/>
      <stop offset="1" stop-color="#83603d" stop-opacity=".6"/>
    </linearGradient>
    <clipPath id="clippath">
      <polygon class="cls-1" points="1508.99 1114.27 187.27 1114.27 236.35 912.55 1459.92 912.55 1508.99 1114.27"/>
    </clipPath>
    <filter id="drop-shadow-1" x="313.55" y="22.53" width="277.2" height="197.28" filterUnits="userSpaceOnUse">
      <feOffset dx="6" dy="7"/>
      <feGaussianBlur result="blur" stdDeviation="5"/>
      <feFlood flood-color="#231f20" flood-opacity=".2"/>
      <feComposite in2="blur" operator="in"/>
      <feComposite in="SourceGraphic"/>
    </filter>
    <filter id="drop-shadow-2" x="319.31" y="166.49" width="64.32" height="57.84" filterUnits="userSpaceOnUse">
      <feOffset dx="6" dy="7"/>
      <feGaussianBlur result="blur-2" stdDeviation="5"/>
      <feFlood flood-color="#231f20" flood-opacity=".2"/>
      <feComposite in2="blur-2" operator="in"/>
      <feComposite in="SourceGraphic"/>
    </filter>
    <filter id="drop-shadow-3" x="293.19" y="182.53" width="53.52" height="48.96" filterUnits="userSpaceOnUse">
      <feOffset dx="6" dy="7"/>
      <feGaussianBlur result="blur-3" stdDeviation="5"/>
      <feFlood flood-color="#231f20" flood-opacity=".2"/>
      <feComposite in2="blur-3" operator="in"/>
      <feComposite in="SourceGraphic"/>
    </filter>
  </defs>
  <g id="Layer_1" data-name="Layer 1">
    <polyline class="cls-10" points="-79.28 1087.88 -79.28 -22.6 1463.02 -22.6 1463.02 1087.88"/>
    <polyline class="cls-25" points="1463.02 1127.46 -121.08 1127.46 -121.08 -22.6 1463.01 -22.6"/>
    <path class="cls-35" d="M296.31,372.47c.43.66,1,1.34,1.65,2.03,3.76,2.18,7.71,5.95,12.08,6.28,6.57.51,15.32.48,20.62-3.6,9.64-7.43,9.86-19.6,9.86-30.65,0-.31-1.12-6.15-.99-6.37-8.01-23.77-33.6-80.63-36.71-86.54-4.88-9.29-20.92-15.84-20.92-15.84l3.28,114.9s7.84,14.75,11.13,19.78Z"/>
    <path class="cls-38" d="M308,286.36c-5.01,9.9-2.32,20.67.35,30.81,1.38,5.23,2.76,10.5,3.17,15.91.44,5.74-.41,11.46-2.89,16.68-1.69,3.56-4.04,6.76-6.73,9.63-.76.81-1.55,1.6-2.35,2.36-.56.53-1.41,1.04-1.7,1.75-.33.79-.38,1.81-.56,2.65s2.7.38,2.87-.45c.16-.78.26-1.6.5-2.36.16-.5.24-.49.69-.9.84-.76,1.66-1.55,2.46-2.37,2.44-2.51,4.63-5.26,6.39-8.29,2.93-5.03,4.35-10.68,4.34-16.48-.03-11-4.77-21.2-6.18-31.99-.79-5.99-.24-11.95,2.52-17.4.27-.54-1-.45-1.2-.42-.56.08-1.4.32-1.68.87h0Z"/>
    <polyline class="cls-18" points="-59.87 1142.13 1461.96 1142.13 1461.96 824.51 -59.87 824.51"/>
    <polygon class="cls-41" points="1512.26 1098.42 190.54 1098.42 239.61 896.7 1463.18 896.7 1512.26 1098.42"/>
    <g class="cls-43">
      <rect class="cls-17" x="173.64" y="963.08" width="1371.22" height="17.89"/>
      <rect class="cls-17" x="175.08" y="915.71" width="1371.22" height="17.89"/>
    </g>
    <path class="cls-21" d="M263.27,800.18l34.8,18.06c2.57,2.16-32.11,21.5-66.56-9.07l3.86-9.4,27.9.41Z"/>
    <g>
      <path class="cls-20" d="M323.31,833.37s1.82-4.64-1.83-6.06c-3.66-1.42-23.17-10.9-25.14-10.53.03,1.41-1.76,3.26-5.96,4.52-4.2,1.27-8.86,2.87-19.62.8-8.07-1.55-24.66-4.35-31.95-8.6-2.44-1.42-5.97-6.2-6.12-6.9-8.5,9.7-5.95,20-2.07,22.54,3.88,2.54,26.79,4.23,26.79,4.23l20.28,4.84,19.13.9,8.05-.18,9.65-1.43,8.79-4.13Z"/>
      <path class="cls-26" d="M229.62,828.16c2.49.86,10.49,2.21,17.34,2.35,18.39.38,24.56,2.72,30.79,4.62,3.14.96,6.42,1.97,10.91,2.7,21.46,3.64,34.01-4.15,34.44-4.47.3.28.44.58.58,1.04-.21.18-1.86,1.76-4.44,2.92-6.06,2.72-14.71,5.84-31.34,3.36-4.71-.7-7.55-1.04-10.66-1.99-4.67-1.42-9.47-2.88-19.8-3.63l.04,3.12s-19.51.73-28.31-3.07c-.64-4.8.44-6.96.44-6.96Z"/>
      <path class="cls-26" d="M228.98,832.32c11.7,3.02,24.43,3.1,28.47,3.12l.03,2.74s-19.51.73-28.31-3.07c-.14-1.06-.2-1.99-.2-2.79Z"/>
    </g>
    <g id="freepik--character-1--inject-1332">
      <path class="cls-21" d="M173.68,761.59s2.91,40.83,2.73,43.22l19.61,5.51,8.36-4.99,8.46-43.78-39.16.04Z"/>
    </g>
    <path class="cls-21" d="M204.44,803.42l34.8,18.06c2.57,2.16-32.11,21.5-66.56-9.07l3.86-9.4,27.9.41Z"/>
    <g>
      <path class="cls-20" d="M264.48,836.61s1.82-4.64-1.83-6.06c-3.66-1.42-23.17-10.9-25.14-10.53.03,1.41-1.76,3.26-5.96,4.52-4.2,1.27-8.86,2.87-19.62.8-8.07-1.55-24.66-4.35-31.95-8.6-2.44-1.42-5.97-6.2-6.12-6.9-8.5,9.7-5.95,20-2.07,22.54,3.88,2.54,26.79,4.23,26.79,4.23l20.28,4.84,19.13.9,8.05-.18,9.65-1.43,8.79-4.13Z"/>
      <path class="cls-26" d="M170.79,831.4c2.49.86,10.49,2.21,17.34,2.35,18.39.38,24.56,2.72,30.79,4.62,3.14.96,6.42,1.97,10.91,2.7,21.46,3.64,34.01-4.15,34.44-4.47.3.28.44.58.58,1.04-.21.18-1.86,1.76-4.44,2.92-6.06,2.72-14.71,5.84-31.34,3.36-4.71-.7-7.55-1.04-10.66-1.99-4.67-1.42-9.47-2.88-19.8-3.63l.04,3.12s-19.51.73-28.31-3.07c-.64-4.8.44-6.96.44-6.96Z"/>
      <path class="cls-26" d="M170.15,835.56c11.7,3.02,24.43,3.1,28.47,3.12l.03,2.74s-19.51.73-28.31-3.07c-.14-1.06-.2-1.99-.2-2.79Z"/>
    </g>
    <path class="cls-21" d="M231.57,778.68s3.67,21.94,3.49,24.32l6.47.78h24.2s4.13-23.47,4.13-23.47l-38.29-1.63Z"/>
    <path class="cls-40" d="M241.13,470.16l.68,4.51c.15.98.82,1.69,1.49,1.59.67-.12,1.09-.99.94-1.95l-.68-4.51c.88-.8,1.28-2.31,1.02-3.86-.36-2.15-1.85-3.67-3.33-3.4-1.48.27-2.4,2.23-2.04,4.38.21,1.44.94,2.69,1.92,3.25Z"/>
    <path class="cls-12" d="M181.86,107.72c3.26-4.71,8.39-7.9,13.88-6.48-.35-10.69,9.94-17.1,20.62-17.51,5.49.03,11.16,2.45,16.32.58,3.22-1.16,5.64-3.72,8.38-5.87,11.48-8.7,29.75,1.07,39.68,11.51,9.93,10.45,7.62,22.24,2.75,35.79-2.26,6.3-1.85,9.71-2.49,16.42-.6,6.33-4.31,18.13-4.31,24.41,0,6.28,9.88,12.75,3.54,13.32l-69.1-7.4c-10.23,2.13-16.82-.9-22.16-9.89-3.48-6.1-2.35-6.4-2.87-13.39-.91-9.14-10.28-15.93-9.84-25.1.1-5.76,2.62-11.45,5.6-16.39Z"/>
    <path class="cls-39" d="M173.28,107.43s23.74-12.08,54.56-9c30.82,3.09,46.05,21.79,51.57,35.26,5.52,13.47-.06,27.75-.06,27.75,0,0,7.72,2.01,12.54-25.75,7.03-40.46-34.49-64.37-44.44-64.13-9.95.24-60.96-9.52-74.16,35.86Z"/>
    <path class="cls-21" d="M200.51,175.71s-.88,24.35-7.26,41.4c-.89,2.38-15.91,13.22-15.91,13.22l22.28,5.59c12.51,2.78,44.52,14.76,56.55,10.34l6.48-15.55s-13.31-6.38-13.95-9.3c-.64-2.92,1.44-25.1,1.44-25.1"/>
    <path class="cls-45" d="M290.73,787.66l24.32-269.45-13.11-79.2h-160.91l-21.63,76.19,33.24,275.91s23.9,11.89,68.31,9.59c55.32-2.87,69.78-13.05,69.78-13.05Z"/>
    <path class="cls-35" d="M319.23,436.26c-4.26-31.74-5.24-32.17-5.24-32.17l-3.77-10.4-3.29-21.73c2.8-14.35,9.61-20.89,9.16-43.84l-8.97-32.94-23.03-52.49-29.13-16.51c1.21,2.15,9.66,12.88-12.01,18.67-.02,0-5.33.09-5.35.09-27.97-1.14-45.26-27.48-45.26-27.48l-48,19.96-9.76,129.68s-27.09,62.22-28.17,88.71c-1.33,32.51,4.18,66.42,15.42,94.66,1.15,2.88,43.9,7.83,48.35,8.27,16.7,1.66,33.53,2.11,50.29,1.38,32.96-1.45,64.74-9.15,96.8-15.66,0,0,6.24-76.48,1.97-108.21Z"/>
    <path class="cls-35" d="M254.86,226.69s43.27,13.58,49.34,26.66c9.23,19.88,12.14,39.15,12.14,39.15l-22.72,16.75-38.76-82.55Z"/>
    <path class="cls-44" d="M248.67,217.32s-5.15-.82-8.69-1.81c-3.55-.98-9.62-.75-26.01-14.86,0,0,4.86,17.4,25.73,21.05,0,0,5.39,1.11,8.93.23l.04-4.62Z"/>
    <path class="cls-21" d="M266.58,111.34c.07.06.15.12.22.18-.08-.12-.15-.25-.21-.37l-.02.2ZM275.37,113.86c.12.13.26.26.4.39v-.16s-.38-.43-.4-.23ZM211.78,198.67c7.69,9.2,23.67,19.26,36.9,19.76,4.74.18,9.27,0,13.06-5.56,3.83-5.63,7.17-7.77,11.27-12.96,3.93-4.97,5.73-8.11,7.77-14.1,2.1-6.19,2.22-7.85,2.02-14.21-.09-2.84.03-7.12.45-9.81.48-3.11,2.84-15.31,3.67-22.51.83-7.2-3.83-21.29-3.83-21.29-.26-1.99-3.03-1.17-3.96-2.83l-.85-.07s.41.23.36.82c-1.06-.26-2.09-.93-2.86-1.65v.03c-1.33.48-2.56-.22-3.54-1.28-.02.2.16.6.38.62-1.29.09-2.52-.61-3.3-1.46-.02.2.16.6.15.8-.95-.26-1.87-.84-2.64-1.44.17.27,5.04-.06,5.02.07-1.29.09.13.64-.85-.43l-.99-.82c-1.08.1-1.1.75-1.88-.1.2.21-.4-2.2-.42-2.01-1.28-.11-.92-.16-1.93-.84-.02.19-3.59.97-3.6,1.17-1.06-.09-.87.91-1.65.06.2.21.84-.75,1.03-.54-1.29.09-1.84.87-2.82-.2.2.21-4.02-2.5-4.02-2.5-1.29.09-1.11.51-2.11-.36.39.43-5.86-.87-5.68-.46-1.06-.09,1.7,4.07.9,3.41-.02.2-2.4-.8-2.4-.8-1.08.11.43,1.22-.35.36-.02.19.15.8.36.82-1.33.48-2.78-.04-3.99-.93.39.43.57.84.77,1.05-1.06-.09-1.93.03-2.93-.84-.02.19.36.82.57.84-1.1.3-2.36,0-3.37-.68-.02.19.38.62.57.83-.86.12-1.72.05-2.52-.61l.57.84c-.85-.07-1.52.26-2.76-.24-.02.19.39.43.38.62-.64-.05-1.49-.13-2.11-.38-.02.2.59.64.37.62-.85-.07-1.52.26-2.55-.22.19.21.37.62.57.84-.85-.07-1.72.05-2.54-.41-.02.2.16.6.36.82-.85-.07-1.52.26-2.55-.22-.02.19.38.62.57.83-.85-.07-1.72.05-2.55-.22-.02.2.39.43.59.64-.85-.07-1.72.05-2.75-.43-.03.39.16.6.15.8-.64-.05-1.05-.29-1.68-.34l-1.1.3c-3.31,3.65-14.21-.46-14.21-.46-7.04,4.71-.51,32.43-.62,36.15-.1,3.73-2.3,4.58-2.3,4.58-.95-1.46-2.59,2.47-3.09.86-.52-1.42.05-3.14-.47-4.56-1.65-3.29-5.98-2.68-8.49-.92l-.45.61c-3.63,4.13-1.24,18.15.83,22.43,0,8.36,6.95,13.32,11.55,7.67l.88,3.33"/>
    <g>
      <path class="cls-13" d="M256.5,181.29c-1.64.68-4.01.29-5.51-.82-.33-.25-1.52-.14-1.05.21,1.98,1.46,5.4,1.88,7.51.99.21-.09.19-.24-.06-.35-.25-.11-.67-.13-.89-.03"/>
      <path class="cls-13" d="M249.3,180.17c-1.01-.59-2.17-.95-3.34-1.14-.17-.03-.4.02-.54.12-.11.08-.14.2-.01.28.52.36,1.2.54,1.84.59.2.01.47-.01.6-.18.12-.15-.07-.27-.22-.28-.53-.04-1.06-.18-1.48-.48-.19.13-.37.27-.55.4,1.05.17,2.08.5,2.99,1.03.18.1.45.07.63-.02.13-.06.28-.22.1-.33"/>
      <path class="cls-13" d="M244.6,179.92c-1.38-.15-2.95-.89-3.54-1.98-.89-1.65.27-4.03,2.08-4.88.2-.09.11-.24-.08-.3-.24-.07-.54,0-.75.09-1.58.74-2.72,2.69-2.62,4.17.09,1.38,1.33,2.45,2.95,2.99.48.16,1,.28,1.51.34.21.02.59,0,.71-.16.12-.16-.07-.24-.26-.27"/>
      <path class="cls-13" d="M259.09,180.81c-.06-.16.09-.26.2-.24.37.04.76-.03,1.1-.26.11.16.22.32.33.48-.75.02-1.52.2-2.23.58-.14.08-.33,0-.44-.11-.08-.08-.16-.26-.02-.34"/>
      <path class="cls-13" d="M258.02,180.92c.79-.43,1.65-.62,2.49-.64.12,0,.28.08.36.2.06.09.07.21-.03.28"/>
      <path class="cls-13" d="M261.93,181.24c.9.04,2.01-.46,2.54-1.46.8-1.5.34-3.41-.7-4.5-.11-.12-.04-.25.09-.28.17-.04.35.07.47.19.9.95,1.41,2.42,1.14,3.87-.25,1.35-1.19,2.24-2.3,2.54-.33.09-.68.14-1.01.13-.14,0-.38-.09-.43-.26-.05-.17.08-.23.21-.23"/>
    </g>
    <path d="M273.31,155.35c1.23-.51,2.71.12,3.43.87.17.18.47.7.63,1.49.21,1.02-.29,2.11-.97,2.74-.91.84-2.31.88-3.33.29-1.38-.8-1.71-2.57-1.24-3.8.09-.23.48-1.17,1.47-1.59"/>
    <path d="M262.44,158.39s6.13-4.03,9.1-4.07c4.32-.06,9.4,2.77,10.74,5.03,0,0-6.69-4.15-9.73-4.02-2.91.13-10.1,3.07-10.1,3.07Z"/>
    <path d="M237.49,152.73c-1.13-.71-3.04-.71-3.87-.09-.2.14-.72.56-1.02,1.32-.38.97-.08,2.12.49,2.86.75.98,2.12,1.26,3.23.85,1.5-.55,2.12-2.24,1.87-3.54-.05-.24.23-.66-.68-1.24"/>
    <path d="M244.68,156.53s-6.14-4.68-9.32-5.05c-4.65-.53-10.44,1.72-12.14,3.82,0,0,7.68-3.39,10.94-2.93,3.12.44,10.52,4.16,10.52,4.16Z"/>
    <path class="cls-16" d="M267.46,137.96c-.42.76-.84,1.53-1.26,2.3-.32.59-.64,1.17-.95,1.76,2.43.7,4.46,1.41,5.98,1.97,3.2,1.19,4.83,1.81,6.41,3.02,1.65,1.27,2.85,2.72,3.31,3.29.65.8,1.09,1.32,1.52,2.13.93,1.75.93,3.15,1.22,3.19.26.04.43-1.1.44-1.22.4-2.87-.86-5.39-.95-5.59,0,0-.93-1.93-3.08-3.86-1.48-1.33-6.02-4.21-12.64-6.99"/>
    <path class="cls-16" d="M251.36,136.78c.09.87.19,1.74.28,2.61.07.66.14,1.33.2,1.99-3-.23-5.55-.3-7.47-.33-4.07-.05-6.14-.06-8.44.5-2.41.59-4.41,1.51-5.19,1.88-1.09.51-1.83.84-2.68,1.44-1.85,1.3-2.52,2.61-2.86,2.54-.3-.06.06-1.18.1-1.3.94-2.83,3.52-4.73,3.71-4.88,0,0,1.94-1.47,5.2-2.49,2.25-.71,8.59-1.75,17.15-1.95"/>
    <path class="cls-2" d="M198.07,163.91c-4.47-11.22-7.83-11.37-7.83-11.37,0,0-2.32,2.52-1.31,7.71"/>
    <path class="cls-2" d="M196.32,164.88c-3-.37-.82,5.3-1.68,6.61-.86,1.3-1.88-2.23-2.16-6.48,0,0,.13-5.72,2.99-6.71"/>
    <path class="cls-44" d="M274,129.6s-9.19,1-16.64,1.05c-7.45.04-14.72-3.78-14.72-3.78,0,0,8.73,2.81,14.63,2.81s16.73-.08,16.73-.08Z"/>
    <path class="cls-16" d="M279.09,109.33c-.09-.14.04.06,0,0-1.83-2.62-2.99-5.4-4.93-7.94-1.91-2.48-3.77-4.73-5.81-7.1-.12-.14-2.56-.22-2.68-.36-.02-.03-.1-.12-.13-.15-.07-.07-.13-.15-.2-.22-.15-.17-.31-.34-.46-.51-11.53-5.12-25.49-5.92-38.12-2.14-24.53,7.35-38.45,33.2-31.1,57.73.63,2.1-.64,4.63,1.41,5.83,2.05,1.2,2.29.61,4.25-.73,1.87-1.46,3.37-3.33,4.39-5.47,5.39-10.08,6.78-26.17,4.45-37.36,1.34,2.12,10.79-.01,12.87,1.38,8.25,5.5,19.4,3.27,24.9-4.98.85,1.25,1.79,2.42,2.83,3.52,9.49,10,21.93,14.91,32.4,7.95.38-.26-2.92-7.78-4.07-9.44Z"/>
    <path class="cls-11" d="M221.2,149.99l1.03,4.05c.54,3.13,2.42,9.38,3.36,11.12,1.32,2.43,17.58,4.5,20.92,2.86,3.34-1.64,5.81-10.85,6.82-12.95l6.51.84c.38,2.84,1.78,11.85,2.93,13.14,1.15,1.29,8.66,1.61,9.51,1.65.7.02,1.69.05,2.76.04,2.85,0,6.32-.23,7.45-1.2,1.68-1.44,3.83-7.25,5.72-12.76l.31-.86c.07-.21.14-.35.15-.41h0l.34-.99c-9.08-5.16-21.47-5.31-29.37-.34l.05.1-6.34-.85c-6.84-5.3-19.1-8.8-28.25-5.99h0l-27.96,2.61-.26,2.44,24.33-2.49ZM263.6,168.19c-.72-.8-1.89-7.13-2.64-12.04,6.85-4.18,18.02-4.03,26.17.1v.12c-1.03,2.95-3.71,10.81-5.37,12.23-1.96,1.67-16.9.86-18.17-.39v-.03ZM227.57,164.63c-1.89-4.68-3.36-9.51-4.38-14.45,8.18-3.03,21.82-.02,28.52,5.02-1.41,3.82-3.32,10.55-5.72,11.71-3.45,1.69-17.61-.75-18.43-2.28h0Z"/>
    <path class="cls-9" d="M183.54,153.26s-23.24-16.85-14.38-34.95c1.7-3.48,1.89-2.33,1.99-5.34.53-15.74-4.98-11.99,18.08-30.4,23.06-18.41,26.45-18.09,61.65-15.47,18.15,1.35,28.09,8.94,33.05,20.44,2.23,5.17,3.45,11.13,3.96,17.67,0,0-37.09-10.58-59.18,1.33-22.09,11.91-45.28,50.68-40.56,63.12,1.32,3.49-4.6-16.41-4.6-16.41Z"/>
    <path class="cls-39" d="M169.21,136.04s31.48-45.86,73.43-47.26c0,0-51.83-5.55-74.77,31.47l-.34,4.35c-.21,2.71.04,5.43.76,8.06l.92,3.38Z"/>
    <path class="cls-35" d="M117.97,288.3s-8.13,24.59-16.05,46.61c-6.51,23.15-9.11,50.73,8.75,57.61,17.86,6.88,46.2-18.87,46.2-18.87l21.23-29.87-40.16-26.64-19.96-28.84Z"/>
    <path class="cls-35" d="M125.13,306.75c8.16,10.28,10.64,20.78,19.53,30.47,2.64,2.88,5.39,5.64,8.22,8.32l10.29-34.73,29.15-93.33s-57.34,12.85-68.01,35.32c-3.47,8.53-22.84,81.01-25.12,92.74,2.37,2.84,23.63-41.68,25.93-38.78Z"/>
    <path class="cls-19" d="M399.82,812.62l-35.34-106.65-124.1-374.6-28.87-86.9c-2.19-6.65-12.51-3.17-10.29,3.48l78.46,236.88,108.65,327.87c3.84,0,7.67-.04,11.51-.08Z"/>
    <path class="cls-19" d="M395.69,802.94l-.7-1.4c-3.44.16-6.88.34-10.32.61l.48.97-54.97,1,.25,17.56,125.56-2.23-.25-17.59-60.06,1.07Z"/>
    <path class="cls-14" d="M455.53,818.63l-123.6,2.57c-1.56,2.3-.11,12.63,2.15,13.83,2.36.94,4.92.84,7.22-.3,2.29-1.12,4.74-1.67,7.21-1.6,3.07.43,5.85,3.1,8.91,2.72,3.05-.38,5.27-3.77,8.23-3.8,3.4-.07,6.16,4.34,9.52,3.84,2.19-.34,3.87-2.66,6.03-3.03,3.36-.74,6.38,3.03,9.68,3.02s6.49-4.2,10.06-3.9c3.14.25,5.48,3.89,8.57,4.41,4.49.78,8.24-5.14,12.8-4.85,2.89.17,5.41,2.79,8.33,2.73s5.4-2.87,8.31-3.4c2.63-.11,5.23.65,7.53,2.2,2.31,1.57,5.04,1.99,7.61,1.18,2.41-1.33,3.47-13.63,1.44-15.62Z"/>
    <path class="cls-45" d="M133.95,337.31c5.67-4.49,11.64-8.64,17.67-12.63,7.6-5.04,15.57-10.26,24.2-13.36,2.23-.8,6.17-2.29,8.31-.5.42.35,1.78-.22,1.34-.59-1.99-1.67-5.09-1.09-7.38-.49-4.04,1.05-7.87,2.93-11.54,4.88-8.81,4.66-17.14,10.25-25.24,16.04-2.89,2.06-5.76,4.16-8.54,6.36-.28.22-.09.46.15.57.32.14.78-.08,1.02-.27h0Z"/>
    <path class="cls-45" d="M202.84,331.28c2.95,1.93-.56,5.91-1.97,7.69-3.04,3.82-6.24,7.46-9.11,11.42-1.2,1.65-2.77,3.09-4.21,4.53-2.53,2.52-5.13,4.98-7.74,7.42-5.53,5.16-11.12,10.29-17.02,15.03-3.33,2.67-7.58,4.98-11.55,7.08-8.61,4.54-18.36,8.83-28.26,8.88-.5,0-1.55.76-.58.75,8.95-.05,17.73-3.41,25.69-7.24,4.96-2.38,10-5.02,14.49-8.22,2.43-1.73,4.68-3.8,6.93-5.75,3.17-2.76,6.29-5.57,9.38-8.42,2.9-2.68,5.77-5.38,8.59-8.14,1.79-1.75,3.66-3.49,5.25-5.43,1.32-1.61,2.44-3.39,3.76-5.02,1.81-2.23,3.72-4.38,5.52-6.62,1.54-1.92,5.45-6.35,2.19-8.48-.4-.26-1.69.32-1.35.55h0Z"/>
    <path class="cls-45" d="M163.39,248.6c2.66,3.12,4.75,6.67,6.15,10.53,1.11,3.05,2.02,6.52,1.96,9.79-.06,3.45-1.2,7.01-2.09,10.32-2.79,10.29-6.26,20.4-9.63,30.52-1.22,3.67-2.55,7.33-3.56,11.07-.13.48,1.32.27,1.44-.2.87-3.23,2-6.39,3.05-9.56,1.67-5.03,3.36-10.05,4.99-15.09,1.69-5.22,3.34-10.45,4.81-15.73,1-3.58,2.14-7.32,2.4-11.05.22-3.21-.65-6.66-1.67-9.68-1.41-4.21-3.64-8.1-6.52-11.47-.3-.35-1.69.15-1.35.55h0Z"/>
    <path class="cls-21" d="M239.68,300.98c-.39-1-.49-2.01-.3-3.07.39-2.18,1.74-4.03,2.42-6.12.66-2.04-.55-3.42-1.95-4.78-.35-.34-.52-.72-.55-1.09-.07-.31-.07-.63.04-.94.16-.46.3-.92.42-1.39.05-.19.09-.38.14-.58,0-.04.04-.23.06-.32.06-.4.1-.8.1-1.2,0-.18,0-.35,0-.53,0-.05,0-.09,0-.11,0-.02,0-.04-.02-.08-.06-.4-.15-.77-.26-1.16-.01-.04-.02-.07-.02-.1-.01-.02-.02-.05-.04-.09-.07-.16-.14-.32-.22-.47-.36-.68-.62-1.02-1.31-1.69-.53-.52-1.12-.99-1.57-1.58-.45-.59-.74-1.21-1.02-1.9-.7-1.73-1.72-3.26-3.34-4.14-.36-.04-.73-.08-1.14-.08-1.04-.01-12.04,4.86-12.04,4.86,0,0-14.04,7.29-17.76,15.85-3.72,8.56-5,10.09-5,10.09,0,0,3.02-1.6-4.75,4.61-4.89,3.9-10.32,6.04-3.99,15.2,4.21,5.64,8.97,9.79,15.94,10.81,1.64-1.06,6.83-4.42,6.83-4.42,4.85-4.07,8.98-4.72,13.33-4.92,4.77-.88,10.42-7.06,14.74-9.24l.23-2.95s-4.68,3.66,0,0c.41-1.18,1.03-2.25,1.59-3.37.44-.88.87-1.86.54-2.84-.27-.8-.79-1.5-1.09-2.29Z"/>
    <path class="cls-44" d="M254.95,142.99c1.81.47,3.73-.55,4.56-2.19.9-1.8.27-3.92-.69-5.55-.32-.55-1.71-.01-1.33.63.75,1.27,1.31,2.94.79,4.39-.35,1-1.39,2.04-2.49,1.75-.35-.09-.78-.01-1.02.27-.2.24-.15.6.19.69h0Z"/>
    <path class="cls-37" d="M252.73,187.64c-4.68-.69-15.48,1.09-17.87,2.88,0,0,3.62,7.42,14.46,9.02,10.84,1.6,14.36-4.77,14.36-4.77,0,0-5-6.26-10.95-7.13Z"/>
    <path class="cls-27" d="M239.62,188.84s6.01.36,10.75,1.06c4.73.7,10.59,2.09,10.59,2.09,0,0,1.33-3.73-7.26-4.99-8.58-1.27-14.08,1.84-14.08,1.84Z"/>
    <path class="cls-15" d="M251,197.89c-4.95-1.59-10.15-6.93-16.13-7.37,0,0,.83,10.51,13.58,12.39,12.75,1.88,15.25-8.13,15.25-8.13-5.86-1.3-7.49,3.03-12.69,3.12Z"/>
    <path class="cls-15" d="M258.71,185.53c-2.64-.62-4.52.3-5.68.13-1.16-.17-2.69-1.6-5.4-1.76-2.54-.16-14.2,5.38-13.15,6.47,1.05,1.1,10.04-2.9,18.1-1.71,8.06,1.19,10.18,6.83,11.5,6.08,1.32-.75-2.9-8.62-5.38-9.21Z"/>
    <path class="cls-5" d="M38.57,739.27c.87-2.07,2.84-2.72,4.67-3.46,4.64-1.87,9.54-2.78,14.46-3.48,16.47-2.35,33-2.69,49.59-1.57,8.12.55,16.19,1.42,24.11,3.36,2.71.66,5.41,1.43,7.81,2.93,1.17.73,2.46,1.48,2.22,3.22-1.78,2.72-4.29,4.18-7.53,4.39-.28-.11-.55-.26-.83-.33-11.17-3.1-22.65-3.86-34.14-4.28-12.3-.46-24.6-.11-36.84,1.39-5.59.69-11.15,1.54-16.53,3.3-1.92-.21-3.57-1.13-5.15-2.11-1.16-.72-2.24-1.69-1.85-3.36Z"/>
    <path class="cls-34" d="M133.91,744.67c-2.98,1.65-6.32,2.01-9.58,2.52-9.34,1.45-18.75,2.03-28.21,2.4-6.81.27-13.59.07-20.36-.28-9.66-.5-19.3-1.49-28.71-3.95-.51-.13-.99-.41-1.48-.62,5.38-1.76,10.94-2.62,16.53-3.3,12.24-1.5,24.54-1.85,36.84-1.39,11.49.43,22.97,1.19,34.14,4.28.29.08.55.22.83.33Z"/>
    <path class="cls-22" d="M141.44,740.27c-1.78,2.72-4.29,4.18-7.53,4.39-2.98,1.65-6.32,2.01-9.58,2.52-9.34,1.45-18.75,2.03-28.21,2.4-6.81.27-13.59.07-20.36-.28-9.66-.5-19.3-1.49-28.71-3.95-.51-.13-.99-.41-1.48-.62-1.92-.21-3.57-1.13-5.15-2.11-1.16-.72-2.24-1.69-1.85-3.36-.53,2.69-.52,5.36.37,7.98.25,2.06.51,4.13.76,6.19.04.6.05,1.21.13,1.81.52,4.28,1.07,8.55,1.59,12.82,1.18,9.63,2.36,19.27,3.54,28.9,1.26,10.29,2.64,20.57,3.72,30.89.35,3.36,1.75,5.68,4.58,7.34,3.02,1.77,6.29,2.89,9.68,3.63,17.26,3.79,34.56,3.77,51.88.43,4.36-.84,8.62-2.08,12.42-4.51,2.4-1.53,3.68-3.62,3.99-6.55.92-8.56,2.05-17.11,3.1-25.66,1.39-11.38,2.79-22.76,4.17-34.14.62-5.1,1.18-10.21,1.77-15.31-.08.02-.15.03-.22.06.07-.03.15-.04.22-.06.25-1.95.5-3.9.75-5.85.92-2.27.54-4.63.42-6.96ZM118.6,783.32c1.34-1.01,2.63-2.08,3.86-3.19-1.23,1.12-2.51,2.18-3.86,3.19-.26.2-.54.38-.81.57.28-.18.55-.37.81-.57ZM65.5,784.06c-.2-.03-.4-.05-.61-.06.2,0,.41.02.61.06ZM62.99,784.45h0c-.66-.47-1.32-.95-1.97-1.44.65.49,1.31.97,1.97,1.44ZM54.23,776.86c-.83-.92-1.63-1.86-2.39-2.82.76.96,1.55,1.9,2.39,2.82ZM41.54,748.99c2.26.66,4.48,1.45,6.75,2.04-2.27-.6-4.49-1.38-6.75-2.04-.35-.65-.89-1.02-1.48-1.3.6.28,1.13.65,1.48,1.3ZM117.78,785.89c.02,1-.24,1.79-.71,2.44.47-.65.73-1.44.71-2.44.06-.01.12-.01.19-.02-.06,0-.13,0-.19.02Z"/>
    <path class="cls-3" d="M83.4,761.37s-26.3,31.93-43.34,27.99"/>
    <circle class="cls-5" cx="83.4" cy="761.37" r="4.63"/>
    <path class="cls-28" d="M444.69,183.04c-4.3,6.68-14.14,10.91-35.23,9.1-20.76-1.78-33.66-14.38-36-24.73-2,.3-4.04.46-6.16.37-25.8-1.07-45.78-21.33-44.63-45.25.99-20.47,17.12-36.98,37.92-40.66-.31-2.14-.42-4.33-.32-6.56.97-20.1,19.33-35.67,41.01-34.77,8.46.35,16.18,3.16,22.39,7.65,2.46-10.49,12.77-18.12,24.73-17.63,9.3.39,17.14,5.59,20.84,12.9,8.74-5.67,19.48-8.81,30.96-8.34,27.67,1.15,49.1,22.87,47.86,48.52-.15,3.18-.65,6.28-1.45,9.25,14.17,5.98,23.74,19.5,23,34.8-.97,20.1-19.33,35.67-41.01,34.77-4.61-.19-9-1.11-13.05-2.64.04,1.01.04,2.03,0,3.06-.97,20.1-19.33,35.67-41.01,34.77-9.81-.41-19.23-4.27-26.14-10.74-1.26-1.18-2.54-2.49-3.71-3.89"/>
    <ellipse class="cls-30" cx="345.54" cy="188.43" rx="17.08" ry="13.75"/>
    <ellipse class="cls-29" cx="313.93" cy="199.97" rx="11.56" ry="9.31"/>
    <path class="cls-35" d="M291.6,259.37l41.25,70.4,6.55,14.57c1.09,3.69-5.19,1.95-5.69,5.65-.88,6.49-2.02,3.44-4.75,9.38-2.84,6.2-6.39,12.12-10.76,17.37-1.31,1.58-2.87,3.28-4.6,4.9-2.23-.78-4.1-1.85-5.39-3.2-12.33-12.96-17.52-29.51-17.52-29.51,0,0-.09-.18-.21-.51-6.91-16.58-8.19-46.45-15.77-79.33l2.58-10.01c8.91-1.46,5.56,2.53,14.31.29Z"/>
    <path class="cls-21" d="M275.21,271.08c3.03-.34,5.95-2.09,8.58-3.42,2.91-1.47,6.03-2.75,9.2-3.68l-.5-1.27-1.68-4.07s-.78-28.74-.86-32.28c-.14-2.25-1.12-4.4-2.77-6.08,0,0-1.59-15.9-1.76-16.17-.82-1.34-10.69-5.63-13.21-5.39-1.96.18-7.97,2.91-10.58,4.13-.07.03-.13.07-.19.11-.65.43-.79,1.26-.31,1.87.7.83,1.65,1.45,2.72,1.79,3.04,1.04,7.14-.65,7.14-.65l6.4,2-.36,7.22-2.05,2.02s-11.29-2.05-13.6-2.62c-2.7-.68-5.26.41-6.22,2.48-.63,1.34-.15,4.6-.15,4.6,0,0-1.48,3.33-1.59,5.36-.11,2.03,2.78,6.8,2.78,6.8,0,0,.91,1.77,2.62,5.57.94,2.08,2.21,5.21,2.97,6.53.56,1.06,4.14,4.11,5.39,3.96l1.82.74s.05.04.07.05c.1,0,.24,0,.46.03l-.08.28c.19.19.11.2-.04.15l-1.1,3.77c-.23,1.62-.1,3.28.37,4.87,1.95,3.11,6.17,10.38,6.44,10.84l.11.45Z"/>
    <g>
      <path class="cls-36" d="M272.01,198.33c-1.48.16-2.96.79-4.34,1.34-1.75.69-3.48,1.45-5.19,2.23-.68.31-1.53.58-2.1,1.08-.77.68-.68,1.63,0,2.33,1.53,1.59,3.78,2.09,5.92,1.94,1.58-.12,3.19-.47,4.66-1.08.17-.07.59-.28.4-.52-.18-.22-.76-.06-.95.02-2.51,1.03-5.89,1.44-8.17-.44-.58-.48-1.54-1.55-.57-2.2.49-.33,1.13-.53,1.67-.77,1.48-.67,2.98-1.33,4.49-1.94,1.25-.5,2.72-1.16,3.97-1.29.23-.02.79-.17.83-.46.05-.3-.43-.27-.61-.25h0Z"/>
      <path class="cls-36" d="M259.24,239.17c-.83-1.84-1.63-3.72-2.59-5.5-.6-1.12-1.25-2.21-1.78-3.36-.39-.86-.79-1.76-.96-2.69-.22-1.19.19-2.43.55-3.56.25-.78.78-1.65.93-2.46.09-.53-.08-1.14-.11-1.68-.06-1.08-.11-2.26.43-3.23.91-1.67,2.76-2.17,4.53-1.87,1.32.22,2.64.47,3.97.7,2.5.43,4.96.93,7.44,1.48.84.18,1.68.39,2.52.56.12.02.25.07.37.08.18.01.36-.05.54-.04-.45-.02-.4.01.01.1,3.68.75,7.49.36,10.96,2.04.38.18,1.71-.39,1.17-.65-3.19-1.55-6.75-1.49-10.19-1.96-.5-.07-1.03-.2-1.54-.21-.17,0-.37.06-.54.04,1.76.11.44-.02.4-.06-.29-.3-1.57-.35-1.97-.44-2.83-.62-5.64-1.21-8.5-1.7-3.54-.61-8.45-1.89-10.59,2.08-.47.88-.49,1.9-.47,2.88.01.68.23,1.69.1,2.18-.54,2.09-1.92,4.08-1.39,6.33.48,2.05,1.63,3.89,2.63,5.71s1.8,3.74,2.65,5.62c.2.45,1.62,0,1.45-.39h0Z"/>
    </g>
    <path class="cls-36" d="M269.06,249.91c-1.85.21-3.76-1.66-4.87-2.9-1.32-1.47-2.37-3.11-3.25-4.88-1.54-3.12-4.64-8.69-1.02-11.48,1.73-1.33,4.01-1.56,6.1-1.73,1.96-.16,3.88-.31,5.78-.88,2.06-.62,3.96-1.78,6.14-1.94,1.25-.1,2.43.27,3.54.82.73.36,2.41,1.15,2.44,2.11l1.45-.27c-.05-.16-.12-.32-.21-.47-.26-.56-1.69-.12-1.45.39.08.15.15.3.21.47.18.51,1.47.25,1.45-.27-.04-1.44-2.02-2.4-3.13-2.9-1.67-.75-3.31-.98-5.11-.65-2.03.37-3.81,1.36-5.77,1.93-2.21.64-4.5.63-6.77.88-3.11.35-7.05,1.78-7.72,5.25-.37,1.91.38,4.01,1.12,5.74.75,1.73,1.49,3.47,2.43,5.11,1.6,2.78,4.77,7.01,8.49,6.59.75-.09,1.16-1.03.17-.92h0Z"/>
    <path class="cls-36" d="M270.23,250.38c.18-.8.46-1.56.76-2.32.34-.84.63-1.7.95-2.55.6-1.58,1.21-3.23,2.07-4.69.36-.62-1.09-.52-1.36-.07-.87,1.48-1.49,3.15-2.11,4.76-.33.86-.62,1.73-.96,2.58s-.63,1.61-.82,2.46c-.13.59,1.33.38,1.45-.16h0Z"/>
    <path class="cls-36" d="M273.97,240.47c-.3-.11-.47-.49-.62-.75s-.31-.55-.33-.85c-.05-.55.25-1.15.4-1.68.17-.6-1.23-.38-1.41.03l-.25.56.38-.31c-1.62.61-3.28,1.06-4.96,1.49l.68.04-.48-.28c-.28-.16-.69-.08-.95.07-.18.1-.51.39-.29.61.68.69,1.53,1.65,1.25,2.7l1.45-.27-.07-.15-1.29.57c.72.33,1.37.77,1.89,1.37.48.56,1.03,1.39,1.04,2.15,0,.67,1.46.4,1.46-.15-.03-1.83-1.69-3.43-3.25-4.14-.28-.12-.6-.1-.87.03-.16.07-.54.32-.42.55l.07.15c.26.53,1.32.24,1.45-.27.32-1.2-.58-2.35-1.37-3.14l-1.24.68c.44.26.74.42,1.28.29.69-.17,1.37-.34,2.05-.54.89-.26,1.77-.55,2.65-.86.34-.12.75-.21.93-.55.09-.16.15-.34.23-.51l-1.41.03c-.19.65-.54,1.4-.36,2.09.21.78.74,1.62,1.5,1.91.52.2,1.69-.56.86-.87h0Z"/>
    <path class="cls-36" d="M256.36,233.3v.37c.49-.09.98-.18,1.46-.27-.7-2.82-1.11-6.51,1.06-8.82,1.29-1.38,3.14-1.58,4.93-1.57,1.6,0,3.21.05,4.82.09,2.98.07,5.96.12,8.95.2,2.81.08,6.53-.29,8.71,1.83.4.39,1.77-.17,1.34-.59-2.39-2.32-6.24-2.05-9.31-2.13-3.83-.11-7.66-.19-11.5-.25-3.15-.05-6.73-.39-9.11,2.12-2.39,2.52-2.1,6.39-1.33,9.51.13.52,1.46.21,1.45-.27v-.37c-.03-.66-1.48-.37-1.46.16h0Z"/>
    <path class="cls-36" d="M255.63,221.53c.62-1.71,1.96-3.02,3.35-4.15,1.4-1.14,3.44-1.94,5.26-1.53.34.08.78-.02,1.02-.27.21-.22.17-.51-.16-.58-2.3-.51-4.95.3-6.81,1.68-1.75,1.3-3.38,2.93-4.13,5.01-.12.33.46.39.64.37.33-.03.7-.2.81-.52h0Z"/>
    <path class="cls-45" d="M276.61,270.05c-1.59.51-3.17,1.01-4.76,1.52-.28.09-.63.25-.62.59.13,3.42.38,6.83.65,10.24.66,8.29,1.58,16.56,2.79,24.78,1.51,10.24,3.46,20.44,6.21,30.42,2.58,9.35,5.83,18.73,10.86,27.07,3.91,6.5,9.3,12.76,16.76,15.14.85.27,1.72.48,2.59.64.5.09,1.71-.68.88-.83-7.6-1.38-13.32-7.08-17.46-13.28-5.31-7.96-8.69-17.16-11.37-26.29-2.91-9.91-4.97-20.06-6.56-30.26-1.33-8.47-2.33-16.99-3.06-25.53-.24-2.79-.45-5.58-.62-8.37-.05-.87-.1-1.73-.15-2.6-.02-.38.07-1-.06-1.36-.02-.05,0-.12,0-.17l-.62.59c1.59-.51,3.17-1.01,4.76-1.52.85-.27.66-1.07-.21-.79h0Z"/>
    <path class="cls-45" d="M293.14,264.27l2.77-.84-.8-.08c4.87,7.81,9.45,15.8,13.91,23.84,8.21,14.82,16.14,30.02,21.96,45.96,2.46,6.76,4.96,14.1,4.87,21.38,0,.3,1.44.08,1.45-.39.07-6.33-1.87-12.68-3.89-18.61-2.72-7.96-6.12-15.68-9.74-23.27-6.67-13.98-14.15-27.57-22.03-40.9-1.66-2.82-3.34-5.63-5.07-8.4-.14-.23-.59-.14-.8-.08l-2.77.84c-.84.25-.71.8.15.54h0Z"/>
  </g>
  <g id="Layer_2" data-name="Layer 2">
    <path class="cls-21" d="M1208.73,1036.88c-2.68-41.97.33-83.98,4.83-118.94-8.72,1.25-17.54,1.54-26.33,1.42-9.49-.14-19.01-.47-28.47-1.28-9.67-.83-19.24-2.38-28.68-4.77-8.64-2.19-16.36-7.31-25.12-9.07-.02,0-.03-.01-.05-.02-.08.03-.17.05-.26.07-3.64.48-7.3.86-10.96,1.14-12.07.9-24.17.6-36.25.33,3.78,44.74,7.79,91.17,9.93,131.13h141.37Z"/>
    <path class="cls-44" d="M1117.15,1075.08c-2.39-20.24-3.76-40.58-4.7-60.93-.93-20.1-1.48-40.21-2.29-60.32-.47-11.52-1.02-23.03-1.78-34.53-.04-.54-1.49-.22-1.45.39,1.34,20.33,2.04,40.69,2.75,61.04.7,20.11,1.43,40.22,2.83,60.29.8,11.51,1.83,23,3.19,34.45.06.55,1.52.21,1.45-.39h0Z"/>
    <path class="cls-21" d="M686.13,1040.44c4.09-55.36,10-131,16.35-189.38-11.21,5.36-8.73-3.26-20.55.61-15.38,5.04-32.37,2.18-48.47,3.63-26.13,2.37-47.21,2.22-73.32.65,14.07,49.75,30.84,147.55,33.03,184.48h92.96Z"/>
    <path class="cls-21" d="M745.42,1040.44c4.09-55.36,10-131,16.35-189.38-11.21,5.36-8.73-3.26-20.55.61-15.38,5.04-32.37,2.18-48.47,3.63-26.13,2.37-47.21,2.22-73.32.65,14.07,49.75,30.84,147.55,33.03,184.48h92.96Z"/>
    <path class="cls-21" d="M895.06,470.42l13.04-12.94s24.83-5.49,34.47-12.34c6.78-5.21,12.8-11.34,17.89-18.2l22.19-15.18s13.21-1.06,13.18-5.22c-.03-4.15-5.08-5.06-9.98-5.93-4.9-.87-73.05,10.4-73.05,10.4,4.05-5.9,8.61-11.43,13.6-16.55,7.74-7.81,7.2-15.83,1.21-16.21-3.7-.23-17.21,8.31-18.45,14.56-1.23,6.25-15.37,10.33-22.07,19.3-6.7,8.96-5.29,24.16-5.29,24.16-2.94,5.2-8.62,11.57-8.62,11.57,3.16,10.33,21.88,22.58,21.88,22.58Z"/>
    <path class="cls-44" d="M980.43,413.14c.42-.87-.73-2.19-1.28-2.72-.99-.97-2.3-1.72-3.67-1.96-2.71-.47-5.81.21-8.42.94-2.31.64-4.56,1.52-6.71,2.57-.59.29-2.64,1-2.74,1.83-.03.3.25.46.49.51.81.17,2.07-.87,2.69-1.24l-.82-.82c-3,1.91-5.78,4.13-8.31,6.64-2.54,2.52-5.05,5.24-6.81,8.38-.41.73,1.06.79,1.39.2,1.71-3.06,4.24-5.74,6.73-8.19,2.42-2.38,5.11-4.48,7.97-6.3.73-.47-.22-1.17-.82-.82-.48.29-.97.58-1.46.84-.09.05-.35.13-.41.21-.13.17-.09-.09.33,0l.49.51c-.04.39-.37.33-.01.22.13-.04.26-.15.38-.22.51-.29,1.03-.56,1.56-.82,1.69-.83,3.43-1.54,5.22-2.1,2.12-.67,4.3-1.15,6.53-1.27,1.28-.07,2.48-.03,3.64.56.66.34,1.31.81,1.79,1.37.23.26,1,1.17.85,1.49-.36.76,1.1.82,1.39.2h0Z"/>
    <path class="cls-44" d="M957.87,413.46c-.29-.67-1.91-.33-2.44-.27-1.57.16-3.13.42-4.69.68-3.38.57-6.73,1.25-10.03,2.16-.96.27-1.94.54-2.86.92-.31.13-1.17.43-1.17.88,0,.63,1.45.34,1.45-.17,0-.06-.28.2-.05.09.12-.06.24-.11.36-.16.41-.17.83-.3,1.26-.43,1.19-.37,2.4-.68,3.61-.97,1.67-.41,3.34-.78,5.03-1.08s3.21-.57,4.82-.8c.77-.11,1.55-.22,2.32-.29.27-.02.54-.04.81-.05.32-.01.25.11.15-.11.23.53,1.66.09,1.45-.39h0Z"/>
    <path class="cls-44" d="M928.05,431.39c1.01-.3.69-1.13.4-1.89-.55-1.42-1.41-2.74-2.37-3.91-2.63-3.19-6.55-5.51-10.68-5.99-.61-.07-1.25-.12-1.86-.03-.32.04-1.16.21-1.17.65-.01.58,1.44.28,1.45-.19,0-.04-.44.34-.48.32.03.01.12-.02.15-.02.27.02.55,0,.82.02.81.07,1.61.24,2.39.46,2.26.65,4.36,1.82,6.12,3.37,1.43,1.25,2.69,2.76,3.59,4.44.29.54.55,1.09.74,1.67.06.18.08.38.14.56.13.42-.42.12.58-.17-.2.06-.71.25-.63.55s.63.22.82.16h0Z"/>
    <path class="cls-21" d="M749.16,501.46l40.58,24.42,92.06-89.6c3.75,9.35,15.57,13.32,26.3,21.2,0,0-65.77,105.76-74.68,117.4-31.54,41.15-59.23,25.86-76.56,12.17-9.98-7.88-34.52-59.86-33.01-71.83.34-2.73,25.87-13.79,25.32-13.76Z"/>
    <path class="cls-44" d="M881.18,436.67c3.15,4.18,7.48,7.36,12.4,9.13.62.22,1.7-.67.84-.98-4.74-1.7-8.89-4.77-11.91-8.79-.39-.52-1.77.04-1.33.64h0Z"/>
    <path class="cls-24" d="M755.07,407.29c11.81,11.07,12.45,12.32,22.53,33.96,5.07,10.89,9.38,20.93,15.46,41.86.83,2.86,11.07,27.62,11.08,28.18.01.44,0,0-2.71,3.56-1.85,2.57-3.72,4.12-5.64,6.64-6.38,8.34-13.51,16.44-22.37,22.21-4.79,3.12-9.94,5.35-15.31,6.75-4-5.33-7.63-10.94-10.87-16.77-6.48-11.67-11.42-24.15-15.15-36.96-3.81-13.06-6.41-26.47-8.19-39.95-1.79-13.59-2.77-27.27-3.31-40.96-.45-11.36-3.71-17.57-3.75-28.94,10.75,4.93,28.64,11.43,38.23,20.42Z"/>
    <path class="cls-44" d="M795.2,521.32c-2.39,2.23-4.49,4.82-6.43,7.44-3.99,5.41-7.26,11.56-8.59,18.2-.83,4.16-.8,8.43.24,12.55.15.59,1.6.21,1.45-.39-3.25-12.84,3.82-25.79,12.22-35.07.74-.82,1.5-1.63,2.3-2.39.64-.6-.78-.73-1.19-.34h0Z"/>
    <path d="M734.54,241.25c-1.74-4.59-5.11-8.67-6.01-13.45-.81-4.32.48-8.75.48-13.15-.58-9.17-5.95-17.54-14.46-22.56-8.48-4.87-29.38-15.86-39.4-16.34-9.68-.76-20.11-.08-27.96,5.14-5.53,3.64-9.23,9.16-14.76,12.77-7.51,4.95-17.31,5.71-26.51,6.98-9.2,1.28-19.09,3.59-24.68,10.33-7.81,9.42-3.86,23.04-8.4,34.07-3.76,1.52-7.72,2.56-11.78,3.08-2.29.43-4.5,1.2-6.54,2.29-2.22,1.12-4.04,2.89-5.26,5.08-1.17,2.39-1.42,5.18-.73,7.86.69,2.61,1.62,5.15,2.77,7.61,1.11,2.38,1.92,4.87,2.42,7.43.43,2.46.4,4.95-.1,7.33-.9,4.57-3.65,8.43-7.59,10.64-3.75,2.16-8.15,1.69-12.15,2.17-1.98.17-3.9.73-5.63,1.65-1.64.88-2.9,2.35-3.54,4.14-1.08,3.08-.33,6.62,1.93,9.14,3.07,2.91,7.61,3.24,10.75.78.36-.3.68-.65.94-1.04-1.35,1.32-3.13,2.11-5.05,2.23-2.24.17-4.49-.69-6.15-2.36-2.04-2.34-2.68-5.59-1.66-8.39.6-1.59,1.74-2.88,3.22-3.65,1.65-.82,3.44-1.32,5.3-1.46,3.8-.42,8.43.14,12.57-2.18,4.26-2.34,7.24-6.47,8.22-11.37.52-2.54.56-5.19.11-7.8-.5-2.67-1.34-5.27-2.5-7.75-1.11-2.38-2.02-4.85-2.71-7.37-.61-2.37-.4-4.84.6-6.97,1.11-2,2.77-3.61,4.78-4.63,1.95-1.05,4.06-1.8,6.25-2.23,3.76-.52,7.41-1.5,10.91-2.87-2.21,4.62-5.72,8.68-8.21,13.2-.49.9-.89,1.89-1.24,2.93-3.16,3.65-5.6,7.81-5.6,12,0,8.55,3.45,17.89,4.79,25.13.14.22.24.48.24.81,0,.19,0,.38,0,.57.1.7.17,1.37.22,2.02-.09.13-.16.28-.26.4-.11,3.24-.52,6.46-2.01,9.39-2.08,4.09-6.13,6.81-10.1,8.86-4.11,2.13-8.71,3.68-13.38,4.2,5.47,5.81,14.38,14.85,18.07,16.15.22.08,2.59,1.72,2.78,1.6,5.85-2.3,13.81-9.26,18.23-14.27,0,0-7.65,13.36-15.9,16.3l4.69,3.82c16.66,13.42,45.46,23.63,66.82,25.15-4.24-4.16-4.73-10.95-3.07-16.66,2.07-5.55,4.04-10.22,7.26-15.2,2.19-3.99-5.55-8.62-5.26-13.18.45-.06.94-.1,1.36-.18l80.83-69.81c9.91-5.58,25.56-8.33,22.06-18.39Z"/>
    <path d="M704.43,225.83c3.37.85,8.16-1.79,12.4.98,1.2.78,3-7.57,3.98-6.77,25.79,11.98,22.54,35.6,21.45,51.26-.57,7.46-6.56,18.28-1.42,23.88,5.15,5.6,15.04,5.16,19.92,10.85,5.74,6.7.98,16.95,3.06,25.42,2.3,8.15,10.53,13.4,19.44,12.41-10.1,8.02-22.29,13.28-35.23,15.21l-9.88-11.8c3.43,4.55,4.51,14.7,4.51,14.7-4.97,5.65-16.98,8.36-19.94,9.04-12.76,2.93-42.59,15.14-79.78,5.17,16.23-45.53,33.15-106.78,49.38-152.31"/>
    <path d="M788.93,326.11c.62,1.78.62,3.73-.01,5.51-.71,2.1-2.31,3.77-4.38,4.57-2.79.85-5.83.06-7.85-2.05-1.14-1.22-1.81-2.79-1.91-4.45-.08-1.84.18-3.67.77-5.41,1.09-3.62,3.34-7.56,2.93-12.29-.38-4.84-2.8-9.29-6.65-12.24-1.99-1.55-4.25-2.7-6.67-3.4-2.49-.67-5.05-1.02-7.63-1.02-2.47,0-4.94-.23-7.38-.67-2.27-.45-4.32-1.69-5.77-3.49-1.3-1.85-2.05-4.03-2.15-6.28-.16-2.21,0-4.43.47-6.6,1.11-4.08,1.7-8.28,1.76-12.51-.26-3.77-1.63-7.38-3.95-10.37-1.96-2.35-4.34-4.31-7.02-5.77-1.95-1.12-3.82-2.38-5.6-3.77-1.45-1.24-2.63-2.76-3.48-4.47l.06.38c.11.36.26.7.44,1.03.66,1.31,1.58,2.47,2.7,3.41,1.74,1.48,3.6,2.82,5.55,4,2.56,1.48,4.83,3.43,6.69,5.74,2.15,2.85,3.41,6.28,3.61,9.85-.11,4.14-.74,8.24-1.86,12.23-.5,2.26-.68,4.58-.53,6.89.12,2.48.94,4.88,2.36,6.91,1.61,2.07,3.91,3.48,6.49,3.98,2.51.47,5.05.71,7.61.72,2.47,0,4.93.32,7.31.96,2.28.65,4.41,1.74,6.27,3.19,3.59,2.74,5.86,6.87,6.26,11.37.43,4.31-1.66,8.09-2.77,11.9-.61,1.87-.86,3.83-.74,5.79.13,1.86.91,3.61,2.21,4.95,2.24,2.28,5.57,3.1,8.61,2.12,3.67-1.54,5.69-5.52,4.77-9.4-.12-.45-.3-.89-.54-1.29Z"/>
    <path class="cls-21" d="M624.45,319.32s9.6,30.45,1.08,53.77c-1.19,3.25-14.15,15.79-14.15,15.79l8.3,7.49c14.31,9.05,31.31,13.09,48.11,11,.16-.02.32-.04.48-.06,11.5-1.48,22.26-6.45,30.98-14.09l7.4-6.49s-15.62-5.11-16.53-9.09c-.91-3.98,2.28-34.23,2.28-34.23"/>
    <path class="cls-21" d="M695.67,329.13c-1.64,17.85.73,35.19-.31,53.08-.04.64-.06,1.32.28,1.87.23.36.59.62.95.87,1.3.92,2.6,1.83,3.9,2.75-.52,3.69-2.79,6.5-5.33,9.35-5.03,5.64-14.98,8.05-22.5,8.93-19.73,2.3-38.58-4.91-52.35-16.79-1.65-1.43-4.66-5.54-4.29-7.54.36-1.96,6.68-4.29,7.82-6.4,8.51-15.76,1.14-50.39,1.14-50.39"/>
    <path class="cls-44" d="M641.62,353.7s6.38,17.49,38.03,23.95c0,0,10.64,1.2,16.02-.49v-6.93s-54.05-16.52-54.05-16.52Z"/>
    <g>
      <path class="cls-21" d="M626.99,331.66c-.16-3.08-3.65-5.78-3.71-8.53-.17-8.08-1.17-16.1-1.58-24.16-.89-2.02-1.67-4.34-2.27-5.76-.95-1.97-2.39-4.19-3.34-6.17-2.83-4.51-8.99-3.02-12.36-.15l-.56.94c-4.66,6.46-3.05,22.41,5.93,32.94,1.04,10.6,11.47,20.52,17.88,10.89Z"/>
      <path class="cls-21" d="M734.7,312.28c-.52-4.08-3.02-11.67-2.79-15.61.26-4.54-.06-26.39-4.35-40.13-5.23-16.73-10.38-25.01-10.38-25.01-.65-2.83,6.48-1.63,4.91-3.88h-1.23s.62.29.63,1.14c-1.57-.22-3.14-1.05-4.35-1.98,0,.05,0,.05,0,.05-1.85.87-3.71.04-5.27-1.36,0,.28.32.85.63.84-1.85.3-3.71-.53-4.96-1.65,0,.28.32.85.32,1.13-1.41-.24-2.82-.95-4-1.71.23.29,4.65-.37,6.46-.56-.09-.13-.22-.3-.49-.53l-1.54-1.04c-1.54.3-1.47,1.23-2.72.11.31.28-.89-3.11-.88-2.83-1.86.02-1.35-.11-2.9-.94,0,.28-5.03,1.9-5.03,2.18-1.54.02-1.12,1.43-2.37.31.23.21.73-.56,1.1-.85-1.61.38-2.31,1.34-3.78.03.31.28-6.14-3.04-6.14-3.04-1.85.3-1.53.88-3.09-.23.63.56-8.56-.43-8.24.13-1.54.02,3.01,5.63,1.77,4.79,0,.28-3.56-.81-3.56-.81-.65.13-.6.45-.43.69.06.34.33,1.01.61,1.01-1.84.87-4.01.33-5.88-.79.62.56.94,1.13,1.25,1.41-1.55.02-2.78.31-4.33-.8,0,.28.63,1.13.94,1.12-1.54.58-3.4.32-4.95-.51,0,.28.63.84.94,1.12-1.23.3-2.47.31-3.71-.53l.94,1.12c-1.24.01-2.16.59-4.02.04,0,.28.63.56.63.84-.93.01-2.16.02-3.09-.25,0,.28.94.84.63.84-1.24.01-2.16.59-3.7.04.31.28.63.84.94,1.12-1.24.01-2.47.31-3.71-.24,0,.28.32.85.63,1.13-1.24.01-2.16.59-3.71.04,0,.28.63.84.94,1.12-1.24.01-2.47.31-3.71.04,0,.28.63.56.94.84-1.24.01-2.47.31-4.02-.24,0,.57.32.85.32,1.13-.93.01-1.55-.27-2.47-.26l-1.54.58c-4.26,5.72-15.56,17.18-15.56,17.18-9.49,7.76,11.98,21.43,12.34,26.81.28,4.03-7.85,16.9-11.94,23.11.38,8.59,1.4,17.15,1.62,25.75.09,3.37,9.44,10.2,9.44,13.77l7.86,11.85c12.36,12.18,33.34,20.38,47.25,22.1,6.82.84,12.75,2.63,19.57-2.36,17.09-12.51,34.1-35.28,31.26-57.41Z"/>
      <path class="cls-21" d="M703.51,223.89c.11.08.23.15.35.23-.13-.16-.26-.34-.35-.51v.28Z"/>
      <path class="cls-21" d="M716.51,226.3c.19.17.4.34.63.51v-.24s-.63-.56-.63-.28Z"/>
    </g>
    <g>
      <path class="cls-13" d="M702.07,322.38c-1.99,1.06-5.06.89-7.1-.28-.45-.26-1.94.03-1.31.4,2.71,1.54,7.1,1.6,9.67.23.25-.14.2-.33-.12-.42-.34-.1-.87-.07-1.14.08"/>
      <path class="cls-13" d="M692.77,321.96c-1.36-.59-2.88-.88-4.4-.96-.22-.01-.51.08-.67.22-.13.11-.15.26.02.35.7.37,1.6.51,2.41.48.26,0,.6-.08.74-.29.13-.2-.12-.32-.32-.32-.67.03-1.36-.09-1.95-.39-.22.19-.43.38-.65.57,1.35.07,2.71.35,3.93.87.24.11.59.03.8-.1.16-.1.33-.31.08-.42"/>
      <path class="cls-13" d="M686.78,322.27c-1.77,0-3.86-.7-4.76-1.97-1.35-1.91-.18-5.19,2-6.48.24-.14.11-.31-.14-.36-.32-.06-.69.06-.94.21-1.9,1.12-3.1,3.86-2.78,5.67.3,1.69,2.02,2.85,4.14,3.29.63.13,1.3.22,1.97.22.27,0,.75-.09.87-.29.13-.21-.12-.29-.37-.29"/>
      <path class="cls-13" d="M705.29,321.45c-.1-.19.07-.33.22-.33.48,0,.96-.14,1.36-.46.16.18.32.36.48.54-.95.12-1.91.44-2.75,1.01-.17.11-.41.05-.57-.07-.12-.09-.24-.3-.07-.42"/>
      <path class="cls-13" d="M703.96,321.73c.94-.64,2.01-.98,3.08-1.12.16-.02.36.06.48.2.09.11.11.25,0,.35"/>
      <path class="cls-13" d="M708.97,321.6c1.15-.07,2.49-.84,3.03-2.13.82-1.96-.03-4.24-1.48-5.45-.16-.13-.08-.31.08-.36.21-.07.45.04.62.18,1.27,1.05,2.12,2.79,1.97,4.61-.14,1.7-1.22,2.91-2.58,3.44-.41.15-.84.26-1.27.29-.17,0-.49-.06-.58-.26-.09-.2.07-.3.23-.3"/>
    </g>
    <path d="M620.32,307.55c-1.8-3.69-3.76-7.34-6.22-10.63-1.27-1.7-2.69-3.36-4.42-4.61-.71-.51-1.51-.99-2.38-1.17-1.03-.21-1.51.51-1.93,1.35-1.69,3.38-1.52,7.39-.58,10.96.16.6,1.61.22,1.45-.39-.73-2.78-.98-5.71-.23-8.51.2-.73.46-1.44.82-2.12.11-.2.22-.39.34-.58.07-.11.15-.21.07-.1l-.67.3c-.38,0-.09-.03-.03.01.1.08-.16-.04.03,0,.08.02.16.04.24.07.48.15.99.44,1.51.79,2.42,1.65,4.25,4.19,5.85,6.6,1.77,2.68,3.3,5.53,4.71,8.42.28.58,1.71.14,1.45-.39h0Z"/>
    <path d="M729.9,266.76c-7.66-.22-12.2,1.04-23.74,6.08l.06.28c.28,1.61.12.71.4,2.32.21,1.23.43,2.45.65,3.68,3.76-1.7,6.39-3.31,8.85-4.18,4.67-1.66,9.87-4.12,14.89-4.42.36-2.33-.32-2.64-1.11-3.75Z"/>
    <path d="M681.77,276.3c-.61,1.51-.27.67-.88,2.18-.47,1.16-.94,2.31-1.41,3.46-3.31-2.46-5.54-4.58-7.77-5.96-4.42-2.73-9.22-6.45-14.32-7.64-2.44-.57-5.97-1.32-8.44.09-.66.38-2.29,2.04-3.03,1.26-.3-.32,1.05-1.94,1.19-2.1,2.75-3.26,6.62-3.52,10.94-2.83,8.81,1.41,12.78,3.31,23.84,11.28"/>
    <path d="M721.31,284.77c1.77-.94,3.85-.17,5.03.85.28.24,1.02.92,1.37,2.09.46,1.49-.12,3.18-1.05,4.22-1.24,1.39-3.32,1.65-4.93.92-2.18-.99-2.92-3.59-2.4-5.5.1-.35.54-1.82,1.97-2.58"/>
    <path d="M705.34,290.92s8.69-6.9,13.16-7.39c6.53-.71,11.06,2.17,13.41,5.35,0,0-7.15-4.63-11.74-3.99-4.38.61-14.83,6.04-14.83,6.04Z"/>
    <path d="M670.36,285.99c-1.79-.9-3.85-.08-5.01.96-.27.24-1,.94-1.33,2.12-.42,1.5.19,3.18,1.14,4.2,1.27,1.36,3.35,1.57,4.94.81,2.16-1.04,2.84-3.66,2.28-5.55-.1-.35-.58-1.81-2.03-2.53"/>
    <path d="M680.06,291.34s-9.44-6.68-14.23-7.09c-8.63-.74-16.6,4.23-19.04,7.46,0,0,12.37-6.59,17.28-6.06,4.7.51,15.98,5.7,15.98,5.7Z"/>
    <path d="M655.18,205.55c-5.35-.9-11.13-1.57-15.99.82-5.14,2.55-6.3,9.44-10.8,13.2-26.19,21.82-13.78,40.26-24.41,60.51,2.27.82,4.46,1.95,6.53,3.48,4.03,2.97,8.1,8.82,10.44,13.02,7.17-1.3,7.8-6.15,11.04-13.96,3.01-7.21,1.13-18.8,7.02-23.76,7.83-6.53,22.73.74,30.58-5.78,4.58-3.77,8.11-13.71,12.59-17.06,4.47-3.35,7.17-3.12,12.64-2.14,5.47.98,11.04,2.64,16.53,1.87,5.5-.77,13.9-2.97,13.84-8.53-21.54-9.21-46.91-17.82-70.01-21.67Z"/>
    <path class="cls-33" d="M689.85,915.88c-10.64,2.51-36.44,2.45-47.34,3.18-10.53.7-27.33.06-37.88.09-11.45.04-38.55-6.6-47.4-10.95,1.54-30.56.32-65.17-3.4-80.67-19.97-83.15-5.07-139.1,19.87-174.02l194.46,16.6,3.49,33.24c6.3,26.61,5.46,117.68-1.78,199.45-1.49,4.75-15.95,5.56-19.73,5.62-14.2.21-28.39-.04-42.49-1.82-.19-.02-1.24.38-1.39.42-.19,6.96.2-.04,0,0l-.14,6.44-16.28,2.43Z"/>
    <path class="cls-23" d="M706.99,906.82c1.22-14.79,1.28-29.69,1.59-44.52.16-7.56.3-15.12.56-22.68.11-3.19.11-6.39.7-9.53.69-3.67,1.72-7.29,3.17-10.74,3.34-7.97,9.19-15.18,17.89-17.36.85-.21.72-.75-.14-.54-14.76,3.71-22.31,20.08-22.9,34.19-.66,15.85-.75,31.72-1.2,47.57-.23,8-.46,16.01-1.12,23.98-.02.27,1.41.09,1.45-.39h0Z"/>
    <path class="cls-24" d="M765.71,454.02c-.7-22.6-8.24-37.86-14.03-46.34-3.21-4.7-7.66-8.41-12.8-10.86-7.42-3.53-13.94-7.13-23.82-10.69-1.84-.66-18.28-5.29-18.1-4.89,5.06,11.75-5.68,22.33-18.71,23.83-4.68.54-9.27.74-13.65.65-14.94-.3-36.17-14.68-45.22-25.9l-1.6-2.07-1.78,1.03-47.99,20.94,4.64,222.33,9.4-1.04c24.48,9.17,49.1,18.09,74.46,24.48,29.66,7.47,60.8,11.66,91.21,6.58,6.96-1.16,9.21-2.85,15.91-5.01-1.7-7.39-4.94-35.17-4.88-42.98.35-43.14-1.05-44.59.41-46.37,0,0,5.37-4.08,8.17-17.65"/>
    <path class="cls-24" d="M758.75,604.08s12.43,82.23,14.18,96.6c0,0-71.99,18.66-147.88,8.49-75.89-10.17-69.09-17.41-69.09-17.41l15.38-73.77,1.94-32.4,176.14,11.33"/>
    <path class="cls-31" d="M759.98,452.63c-1.02,2.16-1.64,4.57-2.1,6.9-.73,3.69-1.19,7.8-.49,11.52.9,4.75,2.81,9.37,4.3,13.95,4.79,14.74,8.87,30.31,7.53,45.94-.83,9.7-4.06,19.09-10.2,26.72-.29.36,1.09.18,1.31-.1,10.86-13.48,12-31.23,9.29-47.71-1.24-7.55-3.23-14.94-5.53-22.23-1.62-5.13-3.56-10.2-4.91-15.42-.93-3.63-.74-7.48-.19-11.15.44-2.92,1.14-5.97,2.41-8.67.11-.23-1.25-.13-1.43.25h0Z"/>
    <path class="cls-21" d="M520.64,519.73c1.42.81,7.63-.77,9.07,0,3.99,2.14,5.82,5.91,10.17,7.15,4.02,1.14,8.68,5.5,12.82,6.05,12.2,1.61,17.91,8.96,30.17,8.36l-20.02,68.93,1.24,11.89c1.39,13.32,1.38,26.75-.02,40.07l-3.67,107.27-30.11,6.54c-9.05-66.84-23.6-132.83-23.5-167.27.03-8.62,9.71-63.74,13.85-88.98Z"/>
    <path class="cls-31" d="M616.98,378.38c2.39,3.24,5.3,6.16,8.23,8.89,6.51,6.06,13.98,11.19,22.2,14.66,10.48,4.43,22.16,5.84,33.34,3.47,7.1-1.5,14.79-5.13,17.4-12.44.61-1.72.96-3.58.84-5.41-.04-.59-.23-1.1-.4-1.67-.49-1.63-.99-3.26-1.48-4.9l-1.14.69c2.69.88,5.38,1.76,8.07,2.63.35.12.78.19,1.11.36-.4-.2-.09.01.09.36.71,1.35,1.07,2.91,1.2,4.42.83,9.28-5.99,16.91-13.84,20.66-10.32,4.93-22.6,4.78-33.62,2.67-12.83-2.46-24.96-8-35.5-15.68-4.6-3.36-9.17-6.8-13.46-10.55-1.14-1-2.36-2.01-3.33-3.18l-.34.75c3.87-1.88,7.74-3.76,11.62-5.64.89-.43.1-1.23-.65-.87-3.87,1.88-7.74,3.76-11.62,5.64-.24.12-.58.47-.34.75.84,1.01,1.87,1.89,2.85,2.76,3.55,3.18,7.35,6.1,11.16,8.96,5.75,4.3,11.7,8.2,18.21,11.26,5.85,2.76,11.99,4.88,18.29,6.3,11.52,2.6,24.3,3.05,35.42-1.47,8.23-3.35,15.35-9.94,16.53-19.13.3-2.33.14-4.79-.68-7.01-.26-.71-.55-1.68-1.25-2.04-1.49-.75-3.37-1.1-4.95-1.62-1.38-.45-2.76-.9-4.14-1.35-.38-.13-1.31.12-1.14.69.61,2.02,1.5,4.11,1.85,6.19.16.96-.06,2.59-.31,3.71-1.53,6.75-7.77,10.67-14.04,12.46-19.91,5.66-40.47-2.74-55.34-15.96-3.42-3.04-6.78-6.35-9.51-10.05-.4-.53-1.77.04-1.33.64Z"/>
    <path class="cls-13" d="M618.59,310.27c-2.09-.07-3.7.84-3.77,3.05-.06,2.08.95,4.23.64,6.29-.03.18-.11.34-.14.52-.01.06-.12.16-.12.19l-.08.09.56-.15s-.45-.37-.47-.38c-.21-.23-.37-.51-.52-.79-.81-1.48-1.27-3.18-1.65-4.82-.5-2.12-.77-3.94-.5-6.08.31-2.46,1.18-5.81,3.78-6.76.96-.35.06-.59-.52-.38-2.5.92-3.8,3.18-4.39,5.67-.37,1.54-.65,3.32-.42,4.91.31,2.13.79,4.27,1.55,6.29.34.92.85,2.47,1.86,2.9.75.32,1.83-.09,2.25-.76.47-.74.28-1.82.16-2.63-.18-1.32-1.67-6.61.84-6.52.28,0,.83-.04,1.02-.27.14-.17.26-.34-.1-.36h0Z"/>
    <path class="cls-44" d="M690.3,281.17c2.32-.01,4.48-1.41,5.5-3.48,1.2-2.42.56-5.32-.62-7.62-.21-.41-1.61.08-1.45.39,1.03,2,1.65,4.39.97,6.61-.51,1.66-1.94,3.41-3.8,3.42-.27,0-.82.11-.96.37-.15.27.13.32.36.31h0Z"/>
    <path class="cls-37" d="M697.32,331c-6.36,0-20.39,4.2-23.21,6.87,0,0,6.27,8.59,21.01,8.59,14.74,0,18.17-8.58,18.17-8.58,0,0-7.87-6.88-15.97-6.89Z"/>
    <path class="cls-27" d="M680.1,334.91s8.07-.66,14.51-.66c6.44,0,14.5.67,14.5.67,0,0,1.04-4.89-10.63-4.89-11.67,0-18.37,4.88-18.37,4.88Z"/>
    <path class="cls-15" d="M697.02,344.11c-6.9-1.07-14.86-6.78-22.91-6.24,0,0,3.16,12.95,20.49,12.96,17.33,0,18.69-12.94,18.69-12.94-8.05-.55-9.37,5.16-16.27,6.22Z"/>
    <path class="cls-15" d="M704.85,327.27c-3.64-.29-5.95,1.2-7.53,1.2-1.58,0-3.89-1.5-7.53-1.21-3.41.27-17.84,9.31-16.23,10.48,1.61,1.17,12.8-5.46,23.75-5.46,10.96,0,14.88,6.65,16.5,5.47,1.61-1.17-5.55-10.22-8.96-10.49Z"/>
    <path class="cls-24" d="M564.51,543.3c-13.54-2.28-26.43-7.11-38.76-13.07-3.75-1.81-7.45-3.71-11.13-5.65,6-35.18,13.16-73.14,19.01-90.7,12.32-31.02,52.28-39.79,52.28-39.79l4.87,107.89-7.93,42.86c-6.14-.04-12.28-.52-18.34-1.54Z"/>
    <path class="cls-31" d="M576.73,423.39c7.29,1.88,11.82,8.39,14.55,15,1.52,3.68,2.51,7.53,3.37,11.41,1.04,4.64,1.86,9.33,2.43,14.06,2.04,16.88.17,33.6-3.4,50.14-2.23,10.35-4.91,20.6-7.41,30.9l1-.53c-3.2,0-6.4,0-9.61,0-.6,0-1.52.9-.54.9,3.2,0,6.4,0,9.61,0,.34,0,.9-.13,1-.53,4.3-17.71,9.38-35.43,11.12-53.63.81-8.47.81-17-.07-25.46-.5-4.82-1.27-9.6-2.27-14.34-.86-4.11-1.82-8.21-3.32-12.13-2.79-7.31-7.59-14.56-15.59-16.63-.52-.13-1.71.64-.87.85h0Z"/>
    <path class="cls-21" d="M583.64,844.45c-5.05-6.04-11.69-14.27-11.64-15.66.05-1.39-1-10.71-1.95-18.86-.67-4.13,1.92-8.11,5.77-8.88,1-.2,8.71,18.01,16.33,13.83l-3.42-16.77c-1.84-5.25-4.3-10.21-7.32-14.78-6.56-17.01-22.07-23.06-22.07-23.06l-.89,9.55-27.65-1.29-2.64,29.08s5.73,39.43,9.59,43.49c3.86,4.06,15.55,7.02,15.55,7.02,4.19,6.22,14.04,4.75,14.04,4.75,10.07,7.77,10.38-.75,10.38-.75.28.35.65.61,1.06.74,4.48,1.51,7.88-4.86,4.84-8.43Z"/>
    <path class="cls-44" d="M557.43,820.56c-.17,6.91,1.19,14.26,5.29,19.95,1.79,2.48,3.92,4.7,6.35,6.55,2.57,1.96,5.33,3.82,8.39,4.92.34.12,1.65-.42,1.18-.59-3.1-1.11-5.94-3.06-8.53-5.07-2.43-1.9-4.57-4.18-6.32-6.71-3.84-5.56-5.09-12.77-4.92-19.43,0-.27-1.44-.06-1.45.39h0Z"/>
    <path class="cls-44" d="M548.64,823.61c.07,4.04.39,8.32,1.78,12.14,1.28,3.51,3.66,6.35,6.36,8.9,1.31,1.24,2.65,2.46,3.98,3.69,1.94,1.81,3.75,3.67,6.07,5.03.57.33,1.82-.43,1.11-.85-3.51-2.07-6.42-5.37-9.4-8.14-2.78-2.57-5.34-5.42-6.66-9.02-1.36-3.73-1.7-7.9-1.76-11.85-.01-.78-1.48-.57-1.47.1h0Z"/>
    <path class="cls-44" d="M540.17,824.47c-1.3.38-.77,2.09-.61,3.06.51,3.12,1.25,6.22,1.89,9.32.39,1.87.92,3.32,2.13,4.81,1.27,1.56,2.72,3,4.31,4.24,1.24.97,2.58,1.88,4.06,2.44.61.23,1.58.53,2.1-.07.57-.66-.82-.71-1.18-.3.64-.74.8-.04.29-.35-.23-.14-.55-.21-.79-.33-.54-.25-1.05-.55-1.55-.87-1.33-.84-2.56-1.84-3.68-2.94-1.05-1.03-2.1-2.12-2.93-3.33-.97-1.41-1.18-3.11-1.52-4.75-.51-2.41-1.04-4.83-1.49-7.25-.13-.72-.27-1.44-.34-2.17-.02-.22,0-.47-.04-.68-.09-.46.42-.27-.42-.02.87-.25.66-1.07-.22-.81h0Z"/>
    <path class="cls-21" d="M1014.09,580.54c1.64-11.29,2.1-37.03,2.77-64.79,3.69,1.27.08,2.32,3.99,2.9,13.27,1.95,26.85.29,40.23-.15-.9,5.73-2.05,10.96-3.55,15.41-13.74,40.77-18.45,222.6-18.45,222.6l-29.16-2.41,2.94-83.62c0-21.3-3.52-60.02,1.23-89.92Z"/>
    <path class="cls-21" d="M1039.67,763.57c-.07.45-.01.91.16,1.33,1.49,3.61,9.17,18.71,9.17,32.97,0,12.83.03,31.48.04,37.94,0,1.53-1.35,2.73-2.86,2.49-2.1-.34-4.84-1.84-6.4-6.97-1.44-5.62-2.37-11.35-2.8-17.13-.15-2.03-2.49-3.07-4.08-1.8h0c-.63.51-.99,1.28-.95,2.09l.88,17.97c.05.97.65,1.83,1.55,2.2,3.32,1.38,11.27,5.19,13.48,10.81.66,1.68-.72,3.47-2.52,3.37l-11.5-.68c-.15,0-.31-.03-.46-.07l-11.31-2.8c-.45-.11-.85-.34-1.18-.67l-10.1-10.14c-.32-.32-.54-.71-.65-1.15l-8.2-31.72c-.75-2.88-.78-5.91-.02-8.79,2.16-8.25,3.88-16.61,5.15-25.04,2.08-16.52,3.26-27.17,3.78-32.1.17-1.63,1.82-2.65,3.36-2.09l26.5,9.58c1.13.41,1.81,1.56,1.63,2.74l-2.66,17.66Z"/>
    <path class="cls-32" d="M1044.47,405c-11.81,11.07-10.6,13.24-20.69,34.88-5.07,10.89-4.05,10.1-10.13,31.03-.83,2.86-8.95,38.54-8.96,39.1-.01.44.57,2.55,1.71,5.56,1.85,2.57,3.72,5.12,5.64,7.64,6.38,8.34,10.02,7.38,18.88,13.15,4.79,3.12,5.13,14.41,10.51,15.81,4-5.33,7.63-10.94,10.87-16.77,6.48-11.67,11.42-24.15,15.15-36.96,3.81-13.06,6.41-26.47,8.19-39.95,1.79-13.59,2.77-27.27,3.31-40.96.45-11.36,3.71-17.57,3.75-28.94-10.75,4.93-28.64,7.43-38.23,16.42Z"/>
    <path class="cls-32" d="M1020.8,919.83c4.07,1.45,12.07,3.24,16.17,4.91,9.8,3.99,18.56,3.14,28.79,1.16,9.41-1.82,18.93-3.98,28.57-3.04,10.82,1.06,20.25,5.69,30.53,8.78,19.46,5.85,37.62-2.64,56.67-6.42,10.1-2.01,20.22-2.78,30.46-1.48,9.69,1.23,19.02,3.61,28.84,3.92,4.08.13,14.01-.09,17.77-.64-6.27-42.87-12.66-81.51-8.17-98.99,21.28-82.83-3.35-138.85-27.73-174.17l-194.16,26.97-4.09,164.34c.33,11.01-2.87,40.71-3.66,74.67Z"/>
    <path class="cls-32" d="M1029.23,455.73c.7-22.6,8.24-37.86,14.03-46.34,3.21-4.7,7.66-8.41,12.8-10.86,7.42-3.53,13.94-7.13,23.82-10.69,1.84-.66,18.28-5.29,18.1-4.89-5.06,11.75,5.68,22.33,18.71,23.83,4.68.54,9.27.74,13.65.65,14.94-.3,36.17-14.68,45.22-25.9l1.6-2.07,1.78,1.03,47.99,20.94-6.81,214.27-7.22,7.02c-24.48,9.17-49.1,18.09-74.46,24.48-29.66,7.47-60.8,11.66-91.21,6.58-6.96-1.16.21.58-6.49-1.58,1.7-7.39-4.48-38.6-4.55-46.42-.35-43.14,1.05-44.59-.41-46.37,0,0-7.89-12.54-10.69-26.11"/>
    <path class="cls-32" d="M1038.07,621.77s-9.53,36.96-9.53,59.05c0,0,65.45,40.23,141.34,30.06,75.89-10.17,69.09-17.41,69.09-17.41l-16.86-71.7-8.73-33.93-167.87,10.8"/>
    <g>
      <path class="cls-32" d="M1034.25,454.21s3.46,7.26,2.76,17.12c-.7,9.86-26.03,58.07-1.73,87.98"/>
      <path class="cls-42" d="M1033.52,454.41c1.02,2.16,1.64,4.57,2.1,6.9.74,3.72,1.19,7.86.41,11.62-1.02,4.93-2.97,9.72-4.51,14.5-4.76,14.78-8.72,30.4-7.17,46.04.94,9.52,4.22,18.67,10.25,26.16.4.5,1.78-.07,1.33-.63-10.98-13.63-11.87-31.67-9-48.27,1.3-7.52,3.33-14.9,5.65-22.16,1.57-4.94,3.47-9.83,4.71-14.87.88-3.57.63-7.41.08-11.01-.44-2.92-1.14-5.97-2.41-8.67-.29-.62-1.72-.19-1.45.39h0Z"/>
    </g>
    <path class="cls-21" d="M1276.23,545.34c-1.42.81-5.8-36.29-7.24-35.52-3.99,2.14-9.54-3.26-13.9-2.02-4.02,1.14-11.82,5.14-15.96,5.68-12.2,1.61-20.5,7.51-32.77,6.9l25.72,106.26-1.24,11.89c-1.39,13.32-1.38,26.75.02,40.07l3.67,97.27,30.11,4.54c9.05-66.84,23.6-120.83,23.5-155.27-.03-8.62-7.78-54.55-11.93-79.8Z"/>
    <path class="cls-32" d="M1230.43,525.69c13.54-2.28,26.43-7.11,38.76-13.07,3.75-1.81,7.45-3.71,11.13-5.65-6-35.18-13.16-53.82-19.01-71.38-12.32-31.02-52.28-41.63-52.28-41.63l-4.87,109.73,1.49,23.54c6.14-.04,18.72-.52,24.78-1.54Z"/>
    <g>
      <path class="cls-32" d="M1217.77,424.67c-9.91,2.45-17.26,13.28-19.26,23.29-4.93,24.58-.11,58.8,4.83,79.24h9.61"/>
      <path class="cls-42" d="M1217.64,424.18c-6.63,1.71-11.84,6.66-15.34,12.38-3.79,6.2-5.1,13.18-5.86,20.31-1.67,15.75-.47,31.82,1.78,47.46,1.12,7.75,2.55,15.45,4.38,23.06.07.29.42.33.66.33h9.61c.82,0,1.11-1.05.13-1.05h-9.61l.66.33c-3.32-13.8-5.47-27.94-6.42-42.1-.52-7.68-.65-15.41-.16-23.1.45-7,1.13-14.39,3.99-20.86,3.11-7.03,8.71-13.79,16.43-15.78.9-.23.63-1.22-.26-.98h0Z"/>
    </g>
    <path class="cls-21" d="M1212.3,849.87c5.05-6.04,11.69-14.27,11.64-15.66-.05-1.39,1-10.71,1.95-18.86.67-4.13-1.92-8.11-5.77-8.88-1-.2-8.71,18.01-16.33,13.83l3.42-16.77c1.84-5.25,4.3-10.21,7.32-14.78,6.56-17.01,22.07-23.06,22.07-23.06l.89,9.55,27.65-1.29,2.64,29.08s-5.73,39.43-9.59,43.49c-3.86,4.06-15.55,7.02-15.55,7.02-4.19,6.22-14.04,4.75-14.04,4.75-10.07,7.77-10.38-.75-10.38-.75-.28.35-.65.61-1.06.74-4.48,1.51-7.88-4.86-4.84-8.43Z"/>
    <path class="cls-44" d="M1237.06,825.98c.17,6.65-1.11,13.88-4.98,19.41-1.72,2.46-3.79,4.67-6.15,6.51-2.52,1.97-5.3,3.87-8.32,4.95-.96.34-.07.7.54.48,3.08-1.1,5.84-2.97,8.45-4.92,2.52-1.89,4.75-4.17,6.58-6.73,4.13-5.74,5.5-13.13,5.33-20.1,0-.36-1.46-.11-1.45.39h0Z"/>
    <path class="cls-44" d="M1245.83,829.05c-.07,3.94-.38,8.13-1.73,11.86-1.32,3.65-3.92,6.51-6.73,9.12-2.95,2.73-5.82,5.99-9.29,8.03-.84.5.37.97.95.63,2.3-1.35,4.1-3.2,6.03-4.99,1.28-1.19,2.55-2.37,3.83-3.55,2.78-2.57,5.27-5.49,6.59-9.08,1.4-3.83,1.75-8.08,1.82-12.13.01-.73-1.45-.5-1.46.12h0Z"/>
    <path class="cls-44" d="M1255.24,830.76c-.33-.1-.04-.14-.11.11-.04.17,0,.41-.02.59-.05.68-.18,1.36-.3,2.03-.42,2.34-.94,4.66-1.43,6.99-.33,1.56-.49,3.26-1.26,4.68-.72,1.34-1.89,2.51-2.96,3.58s-2.17,2.01-3.4,2.84c-.62.42-1.26.81-1.93,1.13-.22.11-.52.19-.74.31-.41.24-.33-.22.05.22-.39-.45-1.78.1-1.33.61.48.56,1.61.05,2.14-.16,1.52-.62,2.93-1.59,4.21-2.61,2.73-2.19,5.47-4.88,6.2-8.41.66-3.18,1.39-6.35,1.95-9.55.12-.67.82-2.97-.22-3.28-.57-.17-1.71.66-.85.91h0Z"/>
    <path class="cls-21" d="M1170.01,321.85s-9.49,38.11-.2,53.29c1.24,2.03,5.67,4.19,6.13,6.11,0,0-14.58,30.5-51.51,32.9-36.92,2.39-31.89-24.82-31.89-24.82,1.24-.98,2.34.54,3.58-.44.34-.27.69-.55.9-.92.32-.56.25-1.24.18-1.87-2-17.71-4.48-35.35-7.07-52.98"/>
    <path class="cls-44" d="M1145.07,355.1s-5.03,16.31-36.1,24.42c0,0-6.73,2.84-12.16,1.45l-1.04-6.37,49.3-19.5Z"/>
    <path class="cls-7" d="M1055.85,325.46c9.23-7.69,10.16-20.36,8.12-31.43-1.95-10.6,4.9-27.59-8.17-26.07-.25.03,4.01-9.5.21-8.42,1.92-6.08-6.7-4.86-8.41-11.42-.35-1.32-3.14-13.02,5.27-14.46,27.33-44.87,68.95-38.93,92.14-37.54,45.5,2.73,67.6,3.72,62.01,75.84-3.76,48.42-47.71,64.86-93.25,66.83-19.46.84-42.46,3.3-58.3-13.03.13-.1.26-.2.38-.3Z"/>
    <path class="cls-7" d="M1139.5,165.51c-10.59,6.02-14.96,16.42-14.72,28.22,2.44,1.88,7.53,3.8,9.98,5.67.38-.8.78-1.59,1.19-2.36,2.69,2.03,9.47,3.6,12.19,5.59.69-.48,2.85-1.6,5.41-2.87.83.61,1.67,1.23,2.5,1.85-1.98.69-3.56,1.47-4.54,2.35,3.09,2.3,10.67,3.21,13.64,5.65,6.44,5.29,13.75,12.49,20.41,17.51,2.08,1.26,3.74,2.53,5.1,3.71l-4.23,4.27,6.82,4.83c-.61,1.75-.97,2.75-.97,2.75l5.6,4.06s3.21-3.4,7.73-8.5c18.72,5.81,25.33-9.68,23.34-16.51-.88-3.01-2.57-5.2-4.26-6.73,6.56-8.92,11.37-17.18,10.03-20.8-2.69-7.26-15.7-23.12-21.99-30.55-1.27-2.42-2.68-4.78-4.23-6.93l-.08-.14s-.02,0-.02,0c-1.72-2.38-3.6-4.49-5.63-6.02-5.24-3.95-15.34-1.61-23.46,1.34-9.34-7.21-15.56-9.08-20.83-9.28-7.38-.27-18.84,10.02-19.96,12.65-.55,1.28.13,5.87.96,10.21ZM1213.38,229.28c2.86-3.4,5.81-7.02,8.59-10.63.14,1.7.05,3.65-.51,5.73-.95,3.51-4.64,4.64-8.08,4.9ZM1157.85,151.4c.74.49,3.27,3.74,5.8,7.12-5.98.87-10.95,2.39-13.57,2.99-.29.07-.56.14-.84.21-1.43-2.14-3.14-5.07-3.35-7.05-.38-3.47,8.12-5.82,11.97-3.26Z"/>
    <path class="cls-21" d="M1076.61,229.29c-.08.18-.2.36-.32.53.11-.08.23-.16.33-.24v-.28ZM1063.24,232.98v.24c.22-.18.42-.36.6-.54-.01-.28-.6.31-.6.31ZM1166.5,334.47l1.47-4.74c3.23,8.7,15,2.5,15.51-9.51,8.35-10.94,9.08-26.86,4.11-33.02l-.6-.9c-3.5-2.67-9.69-3.81-12.26.81-.84,2.01-2.15,4.29-2.98,6.3-.82,2.29-1.98,6.89-3.43,8.93,0,0,5.69-21.72,5.77-27.09.07-5.36-.69-18.56-10.53-25.76,0,0-11.83-10.77-16.37-16.22l-1.56-.5c-.92.04-1.52.35-2.44.39-.01-.28.28-.58.26-1.14-1.51.63-2.75.4-3.98.45.29-.29.9-.6.89-.88-1.21.34-2.45.11-3.68.16.3-.29.89-.88.87-1.17-1.51.63-2.45.11-3.68.16.3-.3.58-.87.57-1.15-1.2.62-2.44.39-3.67.44.3-.3.58-.87.87-1.17-1.51.63-2.45.11-3.68.16-.31.01.59-.59.58-.87-.91.32-2.14.38-3.06.41-.01-.28.59-.59.58-.87-1.82.64-2.76.12-3.99.17l.87-1.17c-1.19.9-2.42.95-3.65.72.29-.29.88-.88.87-1.17-1.5.91-3.32,1.27-4.88.78.31-.01.88-.89.87-1.17-1.49,1.19-2.72.96-4.26,1.03.29-.29.58-.87,1.17-1.46-1.79,1.21-3.92,1.86-5.79,1.1.31-.01.58-.87.57-1.15-1.18,1.18,1.06-.33-.48-.55,0,0-3.48,1.28-3.49,1-1.19.9,3.03-4.92,1.5-4.85.28-.58-8.78.91-8.19.32-1.49,1.19-1.2.6-3.05.4,0,0-6.23,3.65-5.94,3.35-1.47,1.48-2.22.32-4.07.12.29-.29,1.16,1.13,1.45.84-1.18,1.18-.84-.25-2.37-.18-.01-.28-5.1-1.61-5.11-1.89-1.5.91-.99,1.01-2.83,1.09-.01-.28-1.02,3.15-.72,2.86-1.18,1.18-1.16.25-2.71.04l-1.48,1.11c-1.47,1.47.61.77-1.25.57,0-.2,6.96.58,7.23.2-1.13.81-2.49,1.6-3.88,1.91-.01-.28.27-.86.26-1.14-1.18,1.18-2.98,2.1-4.84,1.9.31-.01.59-.59.58-.87-1.47,1.47-3.28,2.4-5.16,1.63v-.05c-1.15.99-2.66,1.9-4.21,2.2-.04-.85.56-1.15.56-1.15l-1.23.05c-1.44,2.32,5.57.75,5.08,3.59,0,0-4.67,8.5-8.96,25.39-3.52,13.87-2.65,35.58-2.15,40.07.44,3.89-1.63,11.56-1.93,15.64-1.62,22.12,16.49,43.81,34.14,55.3,7.03,4.58,12.83,2.49,19.55,1.29,13.72-2.46,34.11-11.73,45.72-24.49"/>
    <g>
      <path class="cls-13" d="M1083.37,327.28c2.03.94,5.07.61,7.04-.66.44-.28,1.93-.07,1.32.32-2.6,1.68-6.97,1.97-9.59.75-.26-.12-.22-.31.1-.43.33-.12.86-.11,1.14.01"/>
      <path class="cls-13" d="M1092.57,326.36c1.32-.66,2.81-1.03,4.31-1.19.22-.02.51.05.67.18.13.11.16.25,0,.35-.68.41-1.56.6-2.37.61-.26,0-.6-.05-.75-.25-.14-.19.1-.33.3-.33.67-.01,1.35-.16,1.91-.5.23.18.45.35.68.53-1.34.14-2.67.49-3.85,1.08-.23.12-.58.06-.8-.06-.16-.09-.34-.29-.11-.41"/>
      <path class="cls-13" d="M1098.54,326.34c1.76-.1,3.8-.91,4.62-2.21,1.24-1.97-.1-5.17-2.33-6.33-.24-.13-.12-.3.12-.36.31-.08.69.03.94.16,1.95,1.01,3.29,3.66,3.06,5.48-.21,1.7-1.85,2.93-3.94,3.49-.62.17-1.28.29-1.94.32-.27.01-.75-.05-.88-.24-.14-.2.1-.3.35-.31"/>
      <path class="cls-13" d="M1080.12,326.52c.09-.2-.09-.32-.23-.31-.47.03-.96-.08-1.38-.39-.15.19-.3.38-.45.57.95.07,1.92.34,2.78.86.17.1.41.02.56-.1.11-.1.22-.31.05-.42"/>
      <path class="cls-13" d="M1081.46,326.73c-.97-.58-2.05-.87-3.11-.95-.16,0-.35.08-.46.22-.09.11-.1.26.02.35"/>
      <path class="cls-13" d="M1076.48,326.88c-1.14,0-2.51-.7-3.12-1.96-.91-1.9-.2-4.21,1.18-5.49.15-.14.06-.31-.1-.35-.21-.06-.45.06-.6.21-1.21,1.11-1.95,2.89-1.7,4.69.23,1.68,1.37,2.83,2.75,3.27.41.13.85.22,1.28.22.17,0,.48-.09.56-.29.08-.21-.08-.29-.25-.29"/>
    </g>
    <path class="cls-13" d="M1172.13,306.99c1.51-3.58,3.15-7.15,5.26-10.43.97-1.52,2.13-3.14,3.5-4.25.2-.16.41-.31.63-.44s.13-.08.43-.22c.05-.03.29-.12.02-.01.06-.02.12-.04.18-.05.21-.05-.17-.03.11-.02.14,0-.21-.05-.05,0-.17-.05-.22-.16-.18,0-.02-.07.07.06.15.13.11.1.21.19.31.3.29.29.56.59.81.91,2.23,2.79,2.77,6.38,2.07,9.83-.13.63,1.34.42,1.46-.15.68-3.35.23-6.82-1.74-9.67-.48-.7-1.04-1.35-1.68-1.91-.23-.2-.38-.33-.69-.36-.75-.08-1.55.33-2.16.71-1.47.92-2.62,2.36-3.62,3.75-2.59,3.61-4.47,7.73-6.18,11.8-.3.71,1.15.6,1.37.09h0Z"/>
    <path d="M1050.32,277.59c5.21-5.56,9.27-7.89,20.91-12.51l.16.23c.94,1.32.41.58,1.36,1.91.72,1.01,1.43,2.02,2.14,3.03-3.83,1.46-6.81,2.19-9.15,3.32-4.44,2.14-9.82,4.08-13.54,7.42-1.9-1.37-1.64-2.07-1.87-3.41Z"/>
    <path d="M1102.78,264.27c-.65,1.49-.28.66-.93,2.15-.49,1.14-.98,2.28-1.46,3.41,4.67.91,8.17,1.21,11.1,2,5.8,1.58,12.69,2.78,17.89,5.93,2.49,1.5,6.03,3.73,7.03,6.58.27.77.37,3.14,1.58,3.19.5.02.6-2.11.61-2.33.18-4.32-2.87-7.48-7.03-10.36-8.49-5.86-13.29-7.65-28.68-10.84"/>
    <path d="M1062.24,290.98c-1.8-.84-3.83.04-4.94,1.12-.26.25-.96.97-1.25,2.14-.37,1.5.29,3.16,1.27,4.14,1.3,1.31,3.38,1.45,4.94.64,2.11-1.1,2.7-3.72,2.08-5.59-.11-.34-.64-1.78-2.1-2.45"/>
    <path d="M1078.43,296.22s-9-6.38-13.46-6.63c-6.52-.36-10.86,2.75-13.02,6.03,0,0,6.85-4.98,11.44-4.6,4.38.37,15.05,5.19,15.05,5.19Z"/>
    <path d="M1112.88,289.44c1.72-.99,3.82-.29,5.02.68.28.23,1.04.88,1.43,2.03.5,1.46-.02,3.17-.9,4.23-1.18,1.42-3.24,1.74-4.86,1.07-2.2-.91-3.01-3.48-2.56-5.39.08-.35.48-1.82,1.87-2.63"/>
    <path d="M1103.54,295.27s9.01-7.14,13.74-7.81c8.53-1.2,16.71,3.3,19.3,6.37,0,0-12.64-5.88-17.49-5.09-4.63.76-15.55,6.52-15.55,6.52Z"/>
    <path class="cls-8" d="M1062.69,236.55c-.85,7.8-11.66,1.71-5.98-.44-.87-3.72,4.37-5.49,4.05-9.31.25.32.4.58.4.58,0,0-.06-4.6,1.43-5.78,1.49-1.17,8.23-4.96,8.23-4.96l2.16,1.49c-.06-.11-.86-1.58.17-2.54,1.04-.97,12.45-7.59,19.94-7.44.25,0,.5.01.74.03l3.17,1.48.11.05s-.08-.04-.12-.06c-.56-.3-1.78-1.05-1.2-1.73.2-.24.62-.47,1.36-.68,1.09-.3,2.72-.5,4.5-.64,0,0,0-.02,0-.03.17,0,.34,0,.51-.01.17-.01.34-.02.51-.03,0,0,0,.02,0,.03,1.79-.02,3.43.05,4.54.25.75.14,1.19.33,1.41.56.63.63-.51,1.48-1.05,1.83-.04.03-.08.05-.11.07l.11-.06,3.03-1.75c.24-.04.48-.08.73-.1,7.44-.79,19.38,4.81,20.51,5.69,1.11.87.44,2.4.39,2.52l2.02-1.67s9.1,3.1,10.68,4.14c1.59,1.05,2.4,3.66,2.4,3.66,0,0,2.77.88,3.74.52.96-.36,6.16,2.06,8.38,4.98,1.43,1.87,1.02,3.71,1.76,5.38h0c.42.94.66,1.56.66,1.56l5.33,1.52c4.3,1.84,3.62,10.56,3.62,10.56,8.72,9.8,9.5,18.43,6.2,27.91-1.27,3.65,9.13,6.83,2.55,6.97-6.66.15-11.24,21.24-11.24,21.24,0,0-6-7.88-6.44-11.64-.44-3.76.92-15.03.92-15.03l-3.22-.32s-1.99-.71-4.52-4.88c-2.54-4.18,1.44-11.98,1.44-11.98l1.06-4.65-6.24.7c-6.09-.78-6.71-7.31-6.71-7.31l.57-10.95-3.47,3.82s-1.32,1.79-3.43,1.72c-9.41-.3-10.76-6.09-10.76-6.09l-1.49-5.44-2.31,1.69c-2.43,2.17-9.98,5.69-13.97,4.17-1.05-.4-5.52-3.55-6.24-3.98-2.6-1.72-3.11-5.2-3.22-6.49.35-.37.68-.83,1.01-1.23,1.27-1.51,1.94-.93.67.59-2.2,2.61-5.95,6.31-9.39,6.61-3.32.29-10.54-.79-11.5-2.29-.64-1.01.41-1.18-.8-1.08-1.06.09-1.94.89-2.58,1.7-1.52,1.9-2.46,4.62-4.65,5.86-3.18,1.8-5.22.1-8.51-.45-.73-.12-1.73.29-1.82,1.17Z"/>
    <path class="cls-6" d="M1054.65,230.85s-2.55-6.95,1.36-11.19c3.91-4.24,18.85-21.2,45.79-22.41l-47.15,33.6Z"/>
    <path class="cls-4" d="M1184.72,150.18s-11.16-16.6-25.11-13.04c-13.95,3.56-3.99,26.28-3.99,26.28"/>
    <g>
      <path class="cls-32" d="M1173.61,376.09s-19.36,34.89-53.87,31.36c-25.3-2.59-23.03-18.48-23.03-18.48v-6.07s-9.21,3.01-9.21,3.01c0,0-2.01,5.47,2.12,14.63,4.13,9.15,17.25,17.62,39.41,15.53,13-1.23,24.81-6.28,38.9-16.53,14.09-10.26,17.29-17.8,17.29-17.8l-11.62-5.64Z"/>
      <path class="cls-42" d="M1172.9,376.22c-1.75,3.15-3.97,6.09-6.25,8.86-5.18,6.31-11.37,11.91-18.47,15.98-9.36,5.36-19.98,7.39-30.66,5.75-7.57-1.17-16.26-4.37-19.2-12.15-1.41-3.73-.87-8.07-.87-11.96,0-.24-.92.03-.97.05-2.79.91-5.58,1.82-8.37,2.73-.63.21-1.18.26-1.41.91-.43,1.21-.42,2.72-.39,3.97.24,9.38,5.73,17.27,13.86,21.55,10.09,5.31,22.49,5.66,33.52,3.77,12.64-2.17,24.01-8.35,34.31-15.78,5.23-3.77,10.26-7.98,14.37-12.98,1.33-1.61,2.75-3.39,3.59-5.33.02-.05.01-.08-.03-.11-3.87-1.88-7.74-3.76-11.62-5.64-.37-.18-1.5.42-1.37.48,2.52,1.23,5.05,2.45,7.57,3.68,1.26.61,2.55,1.18,3.78,1.84.23.12.21.08.21.07,0,.13-.2.41-.26.52-1.34,2.53-3.23,4.79-5.16,6.88-4.4,4.76-9.54,8.79-14.87,12.45-10.63,7.31-22.32,12.91-35.31,14.05-10.86.96-23-.37-31.87-7.3-3.77-2.94-6.32-6.69-7.86-11.2-1.16-3.42-2.22-8-.94-11.56l-.47.28c3.07-1,6.14-2,9.21-3.01l-.97.05c0,2.11.08,4.24-.03,6.35-.08,1.55.11,3.08.54,4.57,2.2,7.49,9.77,11.24,16.87,12.81,10.66,2.35,21.81,1.05,31.69-3.54,7.96-3.7,14.93-9.32,20.77-15.84,2.07-2.32,4.01-4.75,5.8-7.29.59-.84,1.16-1.69,1.71-2.56.25-.39.77-.97.87-1.42.01-.06.08-.14.11-.2.09-.16-1.23-.09-1.43.26Z"/>
    </g>
    <path class="cls-37" d="M1088.89,336.07c6.36,0,20.39,4.2,23.21,6.87,0,0-6.27,8.59-21.01,8.59-14.74,0-18.17-8.58-18.17-8.58,0,0,7.87-6.88,15.97-6.89Z"/>
    <path class="cls-27" d="M1106.11,339.98s-8.07-.66-14.51-.66c-6.44,0-14.5.67-14.5.67,0,0-1.04-4.89,10.63-4.89,11.67,0,18.37,4.88,18.37,4.88Z"/>
    <path class="cls-15" d="M1089.19,349.18c6.9-1.07,14.86-6.78,22.91-6.24,0,0-3.16,12.95-20.49,12.96-17.33,0-18.69-12.94-18.69-12.94,8.05-.55,9.37,5.16,16.27,6.22Z"/>
    <path class="cls-15" d="M1081.35,332.34c3.64-.29,5.95,1.2,7.53,1.2,1.58,0,3.89-1.5,7.53-1.21,3.41.27,17.84,9.31,16.23,10.48-1.61,1.17-12.8-5.46-23.75-5.46-10.96,0-14.88,6.65-16.5,5.47-1.61-1.17,5.55-10.22,8.96-10.49Z"/>
    <path class="cls-42" d="M1221.8,621.35c-26.69,10.26-54.49,18.46-83.01,21.48-26.93,2.85-54.63.75-79.88-9.57-3.5-1.43-6.94-3.01-10.31-4.73-1.73-.89-3.44-1.81-5.12-2.77-.85-.48-1.7-.98-2.53-1.48-.79-.47-1.66-1.22-2.52-1.54-.65-.24-.4.03-.54-.39-.09-.26,0-.71,0-.98l-.02-3.12c0-1.55-.02-3.1-.03-4.64l-1.29.47c6.78,3.48,13.93,6.33,21.07,8.95,15.35,5.62,31.4,9.85,47.72,11.34,16.14,1.47,32.41-.56,48.33-3.14,14.64-2.37,29.16-5.46,43.57-8.97,5.11-1.24,10.2-2.54,15.27-3.9,1.63-.44,3.26-.88,4.88-1.33.82-.23,1.76-.38,2.54-.72.1-.04.22-.06.33-.1l-.86-.3c.66,2.02,1.33,4.04,1.99,6.06.22.66,1.66.26,1.45-.39-.66-2.02-1.33-4.04-1.99-6.06-.11-.34-.57-.38-.86-.3-6.05,1.76-12.15,3.33-18.26,4.86-13.73,3.44-27.56,6.51-41.5,8.98-7.82,1.39-15.68,2.59-23.58,3.46s-16.09,1.53-24.16,1.21c-16.74-.65-33.29-4.56-49.1-9.95-8.62-2.94-17.26-6.32-25.37-10.37-.13-.06-.25-.13-.38-.19-.36-.18-1.3-.1-1.29.47,0,1.34.02,2.69.02,4.03,0,1.56-.22,3.33.03,4.88.14.85,1.45,1.3,2.15,1.73,1.49.91,3,1.8,4.52,2.65,2.99,1.68,6.05,3.24,9.17,4.69,12.44,5.78,25.73,9.59,39.29,11.59,13.65,2.02,27.54,2.23,41.28,1.14s28.38-3.65,42.26-7.08,28.4-8.06,42.23-13.21c1.71-.64,3.42-1.29,5.13-1.94.93-.36.11-1.13-.64-.84Z"/>
    <path class="cls-13" d="M1172.7,309.36c5.24-.18-1.04,10.17,2.85,10.01,1.07-.04,1.78-.79,2.28-1.66.9-1.59,1.38-3.45,1.78-5.22.49-2.2.7-4.03.38-6.24-.4-2.75-1.5-5.8-4.33-6.85-.34-.13-1.65.42-1.18.59,2.4.89,3.45,3.46,3.91,5.79.3,1.48.49,3.08.24,4.59-.32,1.97-.76,3.94-1.44,5.82-.23.63-.49,1.27-.83,1.86-.12.21-.43.49-.51.7l-.05.04c-.18.16-.02.14.48-.04,0,.02-.24-.16-.25-.17-.15-.34-.32-.55-.37-.94-.06-.5,0-1.02.07-1.51.14-1.08.37-2.15.5-3.23.12-.99.24-2.17-.27-3.07-.54-.97-1.63-1.12-2.64-1.09-.42.01-1.57.66-.61.63h0Z"/>
    <path class="cls-44" d="M1092.64,270.01c-1.51.23-2.87-1.11-3.42-2.4-.76-1.78-.49-3.79-.25-5.65.08-.6-1.38-.35-1.45.17-.27,2.07-.58,4.4.47,6.31.88,1.61,2.59,2.71,4.47,2.42.27-.04.77-.18.82-.51s-.42-.37-.63-.34h0Z"/>
    <path class="cls-44" d="M696.15,914.92c-.29,3.17-.58,6.34-.87,9.51-.7,7.61-1.4,15.22-2.1,22.84-.84,9.17-1.68,18.33-2.52,27.5-.73,7.97-1.46,15.93-2.19,23.9-.24,2.64-.48,5.27-.73,7.91-.11,1.16-.46,2.56-.34,3.72,0,.05-.01.11-.02.17-.05.6,1.4.33,1.45-.17.29-3.17.58-6.34.87-9.51.7-7.61,1.4-15.22,2.1-22.84.84-9.17,1.68-18.33,2.52-27.5.73-7.97,1.46-15.93,2.19-23.9l.73-7.91c.11-1.16.46-2.56.34-3.72,0-.05.01-.11.02-.17.05-.6-1.4-.33-1.45.17h0Z"/>
  </g>
</svg>