<?xml version="1.0" encoding="UTF-8"?>
<svg xmlns="http://www.w3.org/2000/svg" xmlns:xlink="http://www.w3.org/1999/xlink" viewBox="0 0 1334 1000">
  <defs>
    <style>
      .cls-1 {
        stroke-width: .14px;
      }

      .cls-1, .cls-2, .cls-3, .cls-4 {
        stroke: #000;
        stroke-miterlimit: 10;
      }

      .cls-2 {
        stroke-width: .14px;
      }

      .cls-3 {
        stroke-width: .14px;
      }

      .cls-5 {
        fill: #622515;
      }

      .cls-6 {
        fill: #f0ebe0;
      }

      .cls-7 {
        fill: #273339;
      }

      .cls-8 {
        fill: #5e5f5f;
      }

      .cls-9 {
        fill: #010101;
      }

      .cls-10 {
        fill: #653c29;
      }

      .cls-11 {
        fill: #ababab;
      }

      .cls-12 {
        fill: #f1eef7;
      }

      .cls-13 {
        fill: #a66e53;
      }

      .cls-14 {
        fill: #283544;
      }

      .cls-15 {
        fill: #c95744;
      }

      .cls-16 {
        fill: url(#linear-gradient);
        opacity: .5;
      }

      .cls-17 {
        fill: #5e1a15;
      }

      .cls-18 {
        fill: #d7b029;
      }

      .cls-19 {
        fill: #528293;
      }

      .cls-4 {
        fill: none;
        stroke-width: .34px;
      }

      .cls-20 {
        fill: #ccb631;
      }

      .cls-21 {
        fill: #4f2f26;
      }

      .cls-22 {
        fill: #24180f;
      }

      .cls-23 {
        fill: #706027;
      }

      .cls-24 {
        fill: #a53b23;
      }

      .cls-25 {
        fill: #5b481c;
      }

      .cls-26 {
        fill: #4f2e25;
      }

      .cls-27 {
        fill: #89772e;
      }
    </style>
    <linearGradient id="linear-gradient" x1="-1277.85" y1="3642.16" x2="-220.79" y2="3642.16" gradientTransform="translate(-2986.86 1265.83) rotate(90) scale(1 -1)" gradientUnits="userSpaceOnUse">
      <stop offset="0" stop-color="#f0ebe0"/>
      <stop offset=".18" stop-color="#eee8dd" stop-opacity=".99"/>
      <stop offset=".33" stop-color="#e8e1d4" stop-opacity=".97"/>
      <stop offset=".46" stop-color="#ded4c5" stop-opacity=".93"/>
      <stop offset=".59" stop-color="#d0c2b0" stop-opacity=".88"/>
      <stop offset=".72" stop-color="#bdab95" stop-opacity=".82"/>
      <stop offset=".84" stop-color="#a78e73" stop-opacity=".73"/>
      <stop offset=".96" stop-color="#8d6d4d" stop-opacity=".64"/>
      <stop offset="1" stop-color="#83603d" stop-opacity=".6"/>
    </linearGradient>
  </defs>
  <g id="Layer_3" data-name="Layer 3">
    <polyline class="cls-6" points="-36.62 1019.42 -36.62 -25.51 1380.95 -25.51 1380.95 1019.42"/>
    <polyline class="cls-16" points="1383.29 1041.55 -72.7 1041.55 -72.7 -15.51 1383.29 -15.51"/>
    <path class="cls-13" d="M190.16,238.16s-1.47,40.53-12.09,68.92c-1.48,3.96-26.48,22-26.48,22l37.09,9.31c20.83,4.62,74.11,24.57,94.13,17.2l10.79-25.88s-22.15-10.62-23.22-15.48c-1.07-4.86,2.39-41.78,2.39-41.78"/>
  </g>
  <g id="Layer_1" data-name="Layer 1">
    <path class="cls-13" d="M368.18,782.15c.1.52.06,1.06-.12,1.56-1.55,4.28-9.71,22.24-8.99,38.83.65,14.94,1.58,36.63,1.9,44.15.08,1.78,1.71,3.11,3.45,2.75,2.42-.5,5.54-2.39,7.1-8.44,1.38-6.61,2.18-13.33,2.39-20.08.07-2.37,2.74-3.7,4.65-2.31h0c.76.56,1.21,1.44,1.21,2.39l-.11,20.96c0,1.14-.66,2.16-1.69,2.64-3.79,1.78-12.85,6.62-15.13,13.26-.68,1.99,1.01,4.01,3.11,3.79l13.35-1.37c.18-.02.36-.05.53-.1l13.01-3.84c.51-.15.98-.44,1.34-.84l11.23-12.32c.35-.39.59-.86.7-1.37l7.92-37.33c.72-3.39.6-6.92-.42-10.23-2.93-9.49-5.36-19.13-7.27-28.88-3.27-19.12-5.18-31.46-6.04-37.16-.28-1.88-2.26-2.99-4.02-2.26l-30.35,12.51c-1.29.53-2.03,1.9-1.76,3.28l4,20.41Z"/>
    <path class="cls-20" d="M321.75,343.09c4.36,1.5,42.33,12.76,52.85,46.29,10.52,33.53,10.27,143.53,15.91,173.21,7.06,34.55,10.57,68.01,16.26,112.67l8.77,85.26-32.26,7.54s-36.2-210.41-54.27-257.15c-18.07-46.74-7.26-167.82-7.26-167.82Z"/>
    <path class="cls-27" d="M340.34,1256.81l40.49-448.52-21.82-131.84H91.15l-36.01,126.83,55.33,459.28s39.79,19.8,113.7,15.97c92.09-4.77,116.16-21.72,116.16-21.72Z"/>
    <path class="cls-20" d="M387.78,671.87c-7.09-52.83-8.72-53.55-8.72-53.55l-6.28-17.32-5.48-36.18c4.67-23.89,15.99-34.77,15.24-72.97l-14.94-54.84-38.34-87.37-57.04-33.72c2.01,3.57,24.62,27.69-11.45,37.32-.03,0-8.88.15-8.91.15-46.56-1.9-75.34-45.74-75.34-45.74l-64.1,28.58-32.04,220.51s-45.09,103.58-46.9,147.67c-2.22,54.12,6.96,110.56,25.66,157.57,1.91,4.8,73.08,13.03,80.49,13.76,27.8,2.76,55.81,3.52,83.72,2.29,54.86-2.41,107.77-15.23,161.14-26.06,0,0,10.38-127.3,3.28-180.13Z"/>
    <path class="cls-20" d="M283.52,320.37s64.77,20.96,74.29,41.22c14.46,30.77,22.18,60.6,22.18,60.6l-35.71,25.96-60.76-127.77Z"/>
    <path class="cls-20" d="M330.24,539.71l-139.69,13.72-37.17-121.91-15.36-104.43s-84.55,18.5-75.43,94.92c6.48,41.29,10.6,95.39,28.89,144.59.51-.17,13.81,34.27,18.48,45.11,4.43,17.66,24.23,38.46,38.74,39.38,34.78,2.19,68.28-17.49,68.28-17.49,0,0,14.77-6.11,15.41-6.33,33.39-10.43,54.52-17.94,113.1-47.75l11.34-3.27c-8.98-15.13-19.02-20.65-26.61-36.52Z"/>
    <path class="cls-13" d="M364.4,622.88l8.96-2.85s38.38,17.84,50.58,18.26c8.86-.09,17.78-1.64,26.5-4.59l9.81,3.78c4.52,1.74,9.55,1.53,14.25-.6l3.62-1.64s10.9,8.71,13.78,4.63c2.88-4.08-.36-8.69-3.52-13.17-3.15-4.47-73.89-47.94-73.89-47.94,7.24-2.77,19.75-.29,27.18-1.6,11.42-1.92,15.54-7.48,11.19-12.28-2.68-2.96-11.61-5.38-17.98-2.42-6.34,2.95-34.49-6.12-45.92-2.3-11.43,3.82-20.98,19.72-20.98,19.72-5.9,2.91-10.22,1.62-10.22,1.62-1.02,4.5,6.65,41.38,6.65,41.38Z"/>
    <path class="cls-21" d="M478.03,634.68c-4.28-2.76-9.04-4.87-13.62-7.07-5.76-2.77-11.57-5.46-17.24-8.41-2.23-1.16-4.48-2.34-6.54-3.79-.53-.38-2.45.49-2.04.78,4.16,2.93,8.95,5.06,13.51,7.28,5.75,2.8,11.56,5.47,17.27,8.35,2.25,1.13,4.51,2.28,6.63,3.64.55.36,2.44-.52,2.04-.78h0Z"/>
    <path class="cls-21" d="M449.61,632.65c-7.78-2.97-15.55-5.95-23.33-8.92-1.11-.42-2.22-.85-3.33-1.27-.48-.18-2.42.6-1.79.84,7.78,2.97,15.55,5.95,23.33,8.92,1.11.42,2.22.85,3.33,1.27.48.18,2.42-.6,1.79-.84h0Z"/>
    <path class="cls-23" d="M79.36,532.08c2.74,12.29,5.9,24.5,9.48,36.58,3.94,13.31,8.24,26.78,14.55,39.19,2.54,4.99,5.53,9.59,9.44,13.61,5.29,5.44,11.53,9.99,18.06,13.83,7.09,4.18,14.7,7.61,22.63,9.81,6.4,1.78,12.82,2.32,19.41,2.65,13.33.65,26.68.74,40.02.38,11.2-.31,22.33-.97,33.48-2.04,11.52-1.11,23.01-2.42,34.5-3.79,12.24-1.46,24.48-3.01,36.71-4.6,10.17-1.33,20.34-2.68,30.5-4.07,5.29-.72,10.58-1.45,15.87-2.2.24-.03.49-.07.73-.1.36-.05,1.8-.39,1.69-1.02-1.02-5.88-2.04-11.75-3.07-17.63-1.61-9.28-3.23-18.56-4.84-27.85-.38-2.16-.75-4.32-1.13-6.48-.03-.2-.39-.26-.53-.27-6.14-.52-12.28-1.03-18.42-1.55-14.23-1.2-28.46-2.4-42.68-3.6-15.95-1.34-31.9-2.69-47.84-4.03-11.57-.97-23.13-1.95-34.7-2.92-7.38-.62-14.7-1.55-22.05-2.46-.75-.09-1.49-.18-2.24-.28l.53.27c-.4-1.99-.8-3.98-1.19-5.97-1.06-5.3-2.12-10.61-3.18-15.91-1.52-7.61-3.04-15.22-4.56-22.83-1.78-8.91-3.56-17.82-5.34-26.73s-3.66-18.34-5.5-27.5c-1.7-8.5-3.4-17.01-5.1-25.51-1.36-6.8-2.72-13.59-4.07-20.39-.82-4.08-1.63-8.16-2.45-12.24-.42-2.08-.76-4.19-1.24-6.26-2.19-9.32-6.19-18.85-13.12-25.65-2.03-2-4.33-3.7-6.84-5.03-.56-.3-1.32-.12-1.88.1-.15.06-1.34.67-.83.94,9.68,5.13,15.28,15.4,18.44,25.51,1.01,3.23,1.65,6.51,2.31,9.82s1.33,6.64,1.99,9.96c1.25,6.23,2.49,12.46,3.74,18.69,1.63,8.16,3.26,16.31,4.89,24.47,1.83,9.13,3.65,18.26,5.48,27.4,1.81,9.03,3.61,18.06,5.42,27.1,1.6,8.01,3.2,16.02,4.8,24.03,1.18,5.92,2.37,11.84,3.55,17.77.57,2.87.99,5.82,1.73,8.66.03.12.05.25.07.37.04.2.39.25.53.27,7.3.9,14.58,1.92,21.9,2.53,10.6.89,21.19,1.79,31.79,2.68,15.74,1.33,31.48,2.65,47.22,3.98,14.78,1.25,29.56,2.49,44.34,3.74,5.04.42,10.07.85,15.11,1.27l4.72.4c.83.07,1.71.24,2.54.21.1,0,.21.02.31.03l-.53-.27c1.02,5.88,2.04,11.75,3.07,17.63,1.61,9.28,3.23,18.56,4.84,27.85.38,2.16.75,4.32,1.13,6.48l1.69-1.02c-3.65.52-7.3,1.02-10.95,1.52-9.13,1.26-18.26,2.49-27.39,3.7-11.82,1.56-23.64,3.08-35.47,4.54s-23.73,2.86-35.61,4.11c-9.1.95-18.22,1.88-27.36,2.33-15.17.75-30.39,1.02-45.57.51-5.13-.17-10.28-.32-15.39-.74-8.06-.67-15.93-3.11-23.31-6.35-7.44-3.27-14.52-7.45-20.94-12.43-5.08-3.95-9.89-8.45-13.39-13.89-3.16-4.91-5.61-10.28-7.84-15.66-2.7-6.52-5.04-13.18-7.21-19.89-4.19-12.96-7.75-26.13-10.91-39.39-.56-2.37-1.11-4.74-1.64-7.11-.17-.75-3.08-.04-2.9.78h0Z"/>
    <path class="cls-23" d="M188.12,562.68c-4.83.2-8.43,4.31-10.86,8.09-4.07,6.34-6.25,13.84-7.22,21.25-.14,1.1,2.77.58,2.89-.38.88-6.77,2.75-13.58,6.21-19.52,1.2-2.06,2.59-4.08,4.33-5.72.64-.61,1.33-1.18,2.11-1.62.58-.33,1.14-.5,1.4-.51.58-.02,1.62-.18,1.92-.78.28-.56-.24-.84-.78-.82h0Z"/>
    <path class="cls-13" d="M893.46,1082.66c-9.9-60.93-5.71-125.96,1.41-177.3-2.11.4-4.23.77-6.36,1.08-10.76,1.54-21.66,1.9-32.52,1.76-11.36-.15-22.78-.51-34.1-1.41-11.59-.92-23.04-2.67-34.35-5.36-10.35-2.46-19.58-8.25-30.07-10.23-.02,0-.04-.01-.06-.02-.1.03-.2.06-.32.07-4.36.55-8.74.98-13.13,1.3-14.45,1.03-28.95.7-43.42.41,4.74,53.42,9.77,108.99,12.16,155.81l37.86,269.41s27.74,9.36,49.04.99c0,0-.81,15.71,5.03,15.45,32.51-1.45,37.78,8.09,83.51-4.75-5.09-30.85,18.14-168.38,5.33-247.21Z"/>
    <path class="cls-26" d="M812.37,1349.53c-4.06-28.5-7.98-57.02-11.75-85.56-3.75-28.37-7.35-56.76-10.82-85.17-3.51-28.77-6.87-57.55-10.09-86.35-1.63-14.53-3.2-29.06-4.27-43.65-1.06-14.51-1.8-29.04-2.4-43.57-1.19-28.74-1.85-57.5-3.49-86.21-.21-3.63-.43-7.27-.67-10.9-.04-.59-1.49-.26-1.45.39,1.92,29.15,2.67,58.35,3.78,87.54,1.09,28.77,2.56,57.55,5.85,86.17,3.32,28.84,6.55,57.7,10.03,86.52,3.44,28.51,7.02,57,10.75,85.48,3.71,28.37,7.57,56.72,11.57,85.05.5,3.55,1.01,7.11,1.51,10.66.09.6,1.54.25,1.45-.39h0Z"/>
    <path class="cls-13" d="M689.02,480.85l-29.58,41.94-130.42-48.65c.37,10.91-9.62,20.01-16.82,32.51,0,0,111.41,76.16,125.33,83.81,49.25,27.04,70.03-.23,81.24-21.37,6.45-12.17,8.09-74.43,1.37-85.65-1.53-2.56-31.68-2.38-31.12-2.59Z"/>
    <path class="cls-15" d="M710.82,383.87c-12.8,11.99-13.43,21.21-22.4,38.04-6.12,11.49-10.6,32.32-14.98,41.62-1.23,2.6-13.54,38.89-16.2,47.12,5.84,7.57,16.84,12.21,25.07,15.69,7.38,3.13,14.99,6.01,22.71,8.18.42.12.84.22,1.27.32,2.5-3.72,4.86-7.53,7.03-11.45,7.03-12.65,12.37-26.17,16.42-40.05,4.13-14.16,6.95-28.68,8.87-43.29,1.94-14.72,3-29.55,3.58-44.38.48-12.3,4.03-19.04,4.06-31.35-11.65,5.34-25.05,9.81-35.44,19.54Z"/>
    <path class="cls-26" d="M658.14,522.22c2.39,2.12,4.51,4.63,6.43,7.18,4.07,5.38,7.32,11.55,8.64,18.2.89,4.47.8,9.04-.32,13.46-.12.49,1.33.28,1.45-.19,3.42-13.51-3.29-27-12.36-36.72-.8-.85-1.61-1.7-2.49-2.48-.36-.32-1.72.23-1.35.55h0Z"/>
    <path class="cls-20" d="M272.23,315.94s68.34,26.67,81.89,38.39c26.5,22.93,22.74,61.39,22.74,61.39l-35.41,28.59-69.22-128.37Z"/>
    <path class="cls-8" d="M159.11,124.99c5.43-7.85,13.97-13.14,23.1-10.78-.59-17.79,16.54-28.46,34.33-29.15,9.14.06,18.58,4.08,27.17.96,5.36-1.93,9.38-6.19,13.94-9.76,19.11-14.48,49.53,1.77,66.05,19.16,16.53,17.39,12.68,37.02,4.57,59.57-3.77,10.49-3.08,16.17-4.15,27.34-1.01,10.54-7.17,30.17-7.17,40.63,0,10.46,16.45,21.22,5.9,22.17l-115.02-12.32c-17.04,3.55-27.99-1.5-36.89-16.46-5.8-10.16-3.91-10.65-4.78-22.29-1.52-15.22-17.12-26.51-16.37-41.79.17-9.59,4.36-19.07,9.32-27.28Z"/>
    <path class="cls-24" d="M144.84,124.5s39.52-20.11,90.82-14.98c51.3,5.14,76.65,36.28,85.84,58.7,9.19,22.42-.11,46.2-.11,46.2,0,0,12.85,3.34,20.88-42.86,11.71-67.34-57.41-107.16-73.98-106.76-16.57.4-101.48-15.84-123.45,59.7Z"/>
    <path class="cls-26" d="M270.33,307.43s-8.56-1.37-14.47-3.01c-5.91-1.64-16.01-1.25-43.29-24.73,0,0,8.09,28.97,42.83,35.05,0,0,8.98,1.84,14.87.39l.07-7.7Z"/>
    <path class="cls-13" d="M300.15,131.01c.12.1.25.2.37.3-.13-.2-.26-.41-.35-.62l-.03.32ZM314.77,135.2c.2.22.43.44.66.66l.02-.27s-.65-.71-.68-.39ZM208.91,276.38c12.8,15.31,30.14,31.29,61.42,32.89,7.89.4,15.44.01,21.74-9.26,6.37-9.38,11.93-12.94,18.75-21.57,6.54-8.27,9.55-13.5,12.93-23.46,3.5-10.3,3.69-13.07,3.36-23.66-.15-4.73.05-11.86.75-16.33.8-5.17,4.73-25.48,6.11-37.47,1.38-11.99-6.37-35.44-6.37-35.44-.43-3.31-5.05-1.96-6.59-4.71l-1.42-.12s.68.38.6,1.36c-1.77-.43-3.48-1.55-4.75-2.75v.05c-2.21.79-4.25-.36-5.89-2.14-.03.33.27,1,.63,1.04-2.15.14-4.19-1.01-5.5-2.43-.03.33.27,1.01.25,1.33-1.58-.43-3.12-1.4-4.39-2.4.29.46,8.38-.1,8.36.12-2.15.14.22,1.06-1.41-.72l-1.65-1.36c-1.8.17-1.82,1.25-3.13-.17.33.36-.67-3.66-.7-3.34-2.13-.18-1.53-.27-3.22-1.4-.03.32-5.97,1.62-6,1.94-1.77-.15-1.44,1.51-2.75.09.33.35,1.4-1.25,1.72-.9-2.15.14-3.07,1.44-4.7-.34.33.36-6.7-4.16-6.7-4.16-2.15.14-1.85.84-3.51-.61.65.71-9.75-1.44-9.45-.76-1.77-.15,2.83,6.78,1.5,5.68-.03.33-3.99-1.32-3.99-1.32-1.8.18.72,2.03-.59.61-.03.32.24,1.33.6,1.36-2.21.79-4.63-.07-6.64-1.55.65.71.95,1.39,1.28,1.75-1.77-.15-3.21.05-4.87-1.4-.03.32.6,1.36.95,1.39-1.83.5-3.92,0-5.61-1.13-.03.32.63,1.04.95,1.39-1.44.2-2.86.08-4.19-1.01l.95,1.39c-1.42-.12-2.53.44-4.6-.39-.03.32.65.71.63,1.04-1.06-.09-2.48-.21-3.51-.63-.03.33.98,1.07.62,1.03-1.42-.12-2.53.44-4.25-.36.32.36.62,1.03.95,1.39-1.42-.12-2.86.08-4.22-.69-.03.33.27,1,.6,1.36-1.42-.12-2.53.44-4.25-.36-.03.32.63,1.03.95,1.39-1.42-.12-2.86.08-4.25-.36-.03.33.65.71.98,1.07-1.42-.12-2.86.08-4.58-.72-.06.65.27,1,.24,1.33-1.06-.09-1.74-.47-2.8-.57l-1.83.5c-5.51,6.08-23.66-.76-23.66-.76-11.72,7.83-.86,53.98-1.03,60.18-.17,6.2-3.83,7.62-3.83,7.62-1.58-2.42-4.31,4.12-5.15,1.43-.87-2.37.09-5.23-.78-7.59-2.74-5.47-9.96-4.45-14.13-1.54l-.74,1.01c-6.04,6.88-2.06,30.22,1.38,37.34.02,13.91,11.57,22.18,19.23,12.77l1.47,5.55"/>
    <g>
      <path class="cls-9" d="M283.36,247.45c-2.73,1.14-6.68.48-9.17-1.37-.55-.41-2.53-.23-1.75.35,3.29,2.43,8.99,3.12,12.5,1.66.35-.15.31-.41-.1-.58-.42-.18-1.12-.21-1.49-.06"/>
      <path class="cls-9" d="M271.37,245.59c-1.68-.98-3.61-1.58-5.56-1.9-.29-.04-.67.03-.89.2-.18.13-.23.33-.02.47.86.59,2,.91,3.06.98.33.02.78-.02.99-.29.2-.25-.11-.45-.37-.47-.88-.06-1.76-.31-2.47-.8-.31.22-.61.44-.92.67,1.74.28,3.47.84,4.97,1.71.3.17.76.12,1.05-.03.22-.11.47-.37.17-.55"/>
      <path class="cls-9" d="M263.56,245.16c-2.29-.25-4.91-1.48-5.89-3.29-1.48-2.74.46-6.72,3.46-8.13.33-.15.18-.4-.13-.5-.4-.12-.9-.01-1.25.15-2.62,1.23-4.53,4.47-4.36,6.94.16,2.3,2.22,4.08,4.91,4.98.8.27,1.66.47,2.52.57.35.04.98-.01,1.17-.27.2-.26-.11-.41-.44-.44"/>
      <path class="cls-9" d="M287.67,246.65c-.1-.27.14-.43.33-.41.62.07,1.27-.05,1.83-.43.18.26.36.53.54.79-1.25.03-2.53.33-3.71.97-.23.13-.54,0-.73-.18-.14-.14-.27-.44-.04-.57"/>
      <path class="cls-9" d="M285.9,246.83c1.31-.72,2.74-1.03,4.14-1.07.21,0,.46.13.59.33.1.16.11.36-.05.46"/>
      <path class="cls-9" d="M292.41,247.36c1.5.07,3.34-.77,4.22-2.43,1.33-2.5.56-5.67-1.16-7.49-.19-.2-.06-.42.15-.47.28-.07.58.11.78.32,1.5,1.58,2.35,4.02,1.9,6.44-.42,2.26-1.99,3.72-3.83,4.23-.55.15-1.13.23-1.69.21-.23-.01-.62-.15-.71-.43-.09-.28.13-.39.34-.38"/>
    </g>
    <path d="M311.35,204.27c2.05-.85,4.51.2,5.7,1.44.28.29.79,1.16,1.06,2.48.34,1.69-.47,3.51-1.61,4.55-1.51,1.4-3.84,1.46-5.54.49-2.31-1.33-2.84-4.28-2.06-6.33.14-.37.8-1.95,2.45-2.64"/>
    <path d="M293.24,209.32s10.21-6.71,15.14-6.78c7.2-.1,15.65,4.61,17.88,8.37,0,0-11.13-6.91-16.2-6.69-4.85.21-16.82,5.11-16.82,5.11Z"/>
    <path d="M251.72,199.91c-1.88-1.19-5.06-1.17-6.45-.15-.33.24-1.2.94-1.69,2.2-.63,1.61-.13,3.54.81,4.76,1.25,1.64,3.54,2.1,5.38,1.42,2.5-.92,3.52-3.74,3.11-5.89-.08-.39.38-1.1-1.14-2.06"/>
    <path d="M263.69,206.23s-10.22-7.79-15.52-8.4c-7.74-.89-17.38,2.86-20.21,6.35,0,0,12.78-5.65,18.21-4.87,5.19.74,17.52,6.92,17.52,6.92Z"/>
    <path class="cls-11" d="M331.83,194.94c.06-.16.11-.31.16-.47.05-.16.09-.32.12-.48.01-.07.03-.14.04-.21,0-.02,0-.03,0-.05.02-.33.02-.65-.01-.98-.04-.32.09-.6.29-.82-1.57-2.27-3.32-3.63-3.51-3.79,0,0-2.79-2.22-7.41-3.56-3.18-.92-12.08-1.95-24-1.33-.08,1.45-.15,2.9-.22,4.36-.05,1.11-.11,2.22-.15,3.32,4.16-.71,7.71-1.12,10.39-1.37,5.66-.53,8.55-.79,11.79-.11,3.4.71,6.24,2.02,7.34,2.54,1.55.73,2.6,1.19,3.82,2.09.49.36.91.71,1.28,1.06.03-.07.05-.13.08-.2Z"/>
    <path class="cls-11" d="M276.34,180.52c-.3,1.42-.6,2.84-.9,4.27-.23,1.09-.46,2.17-.7,3.25-4.63-1.89-8.63-3.33-11.66-4.35-6.41-2.17-9.7-3.25-13.62-3.55-4.12-.31-7.76.13-9.18.31-1.99.25-3.32.39-4.98.91-3.6,1.11-5.33,2.83-5.83,2.55-.45-.26.7-1.85.82-2.01,2.93-3.99,8-5.68,8.38-5.82,0,0,3.82-1.33,9.52-1.27,3.93.04,14.51,1.64,28.15,5.72"/>
    <path class="cls-9" d="M186.83,218.32c-1.71-4.28-3.63-8.54-6.15-12.41-1.25-1.92-2.67-3.85-4.48-5.29-.67-.54-1.48-1.11-2.34-1.29-1.17-.25-1.73.59-2.25,1.47-2.07,3.53-2.16,7.9-1.43,11.81.06.33,1.52,0,1.45-.39-.59-3.18-.63-6.5.46-9.58.38-1.07.89-2.25,1.66-3.1l-1.12.35c.11,0-.12-.06.05,0,.14.06.3.08.45.14.6.23,1.15.62,1.66,1.02,2.59,2.04,4.44,5.01,6.03,7.84,1.77,3.15,3.24,6.46,4.58,9.8.15.37,1.57-.08,1.45-.39h0Z"/>
    <path class="cls-9" d="M183.45,219.67c-5.83-.57-2.92,7.61-3.5,10.72-.03.16-.12.34-.13.49,0,.04-.16.23-.15.25.06.14.32.07.32-.05,0-.05-.3-.36-.34-.42-.19-.29-.33-.63-.45-.96-.7-1.81-1.02-3.79-1.29-5.7-.34-2.43-.45-4.55-.05-6.96.45-2.67,1.36-6.46,4.22-7.51.94-.35.1-.96-.6-.71-2.73,1.01-4.01,3.89-4.68,6.52-.5,1.95-.82,4.02-.66,6.03.19,2.42.51,4.86,1.14,7.22.27,1,.64,2.76,1.67,3.3.85.45,1.85-.14,2.24-.92.46-.92.32-2.12.25-3.11-.1-1.56-1.32-7.55,1.48-7.28.62.06,1.51-.83.54-.92h0Z"/>
    <path class="cls-26" d="M312.49,163.21s-15.29,1.67-27.7,1.74c-12.41.07-24.5-6.3-24.5-6.3,0,0,14.53,4.68,24.35,4.68s27.85-.13,27.85-.13Z"/>
    <path class="cls-11" d="M320.97,127.67c-.16-.23.07.1,0,0-3.05-4.36-4.97-8.99-8.21-13.21-3.17-4.13-6.28-7.88-9.68-11.82-.2-.23-4.26-.37-4.46-.6-.04-.04-.17-.19-.21-.24-.11-.12-.22-.25-.33-.37-.25-.28-.51-.56-.76-.85-19.19-8.52-42.43-9.86-63.45-3.56-40.83,12.24-64.01,55.26-51.77,96.09,1.05,3.5-1.07,7.71,2.34,9.7,3.41,1.99,3.82,1.02,7.08-1.21,3.11-2.43,5.61-5.55,7.31-9.11,8.96-16.78,11.29-43.57,7.41-62.19,2.24,3.52,17.95-.02,21.43,2.29,13.74,9.16,32.29,5.44,41.45-8.29,1.41,2.08,2.98,4.04,4.71,5.86,15.8,16.65,36.5,24.82,53.92,13.23.64-.43-4.87-12.95-6.77-15.72Z"/>
    <path class="cls-7" d="M224.6,195.34l1.72,6.75c.91,5.21,4.03,15.61,5.59,18.51,2.19,4.05,29.26,7.49,34.82,4.76,5.56-2.73,9.67-18.05,11.36-21.55l10.83,1.39c.63,4.73,2.96,19.73,4.88,21.87,1.92,2.14,14.42,2.68,15.83,2.74,1.17.04,2.81.09,4.6.07,4.74,0,10.51-.38,12.4-2,2.8-2.4,6.38-12.07,9.52-21.24l.51-1.44c.11-.35.24-.59.25-.69h0l.56-1.65c-15.11-8.6-35.75-8.84-48.89-.57l.09.17-10.56-1.41c-11.39-8.83-31.79-14.65-47.02-9.97h0l-46.55,4.35-.43,4.07,40.51-4.15ZM295.18,225.64c-1.2-1.33-3.15-11.86-4.39-20.04,11.41-6.96,30-6.71,43.57.17l-.02.21c-1.69,4.91-6.16,17.99-8.92,20.35-3.26,2.78-28.13,1.43-30.24-.64v-.04ZM235.21,219.72c-3.15-7.78-5.58-15.84-7.28-24.06,13.62-5.04,36.32-.04,47.48,8.36-2.35,6.36-5.53,17.55-9.52,19.5-5.74,2.82-29.31-1.24-30.67-3.8h0Z"/>
    <path class="cls-5" d="M161.91,200.79s-38.69-28.05-23.94-58.18c2.83-5.79,3.14-3.88,3.31-8.88.87-26.2-8.29-19.96,30.09-50.6,38.39-30.65,44.03-30.12,102.61-25.75,30.22,2.25,46.76,14.88,55.01,34.03,3.71,8.61,5.75,18.53,6.6,29.42,0,0-61.74-17.61-98.51,2.22-36.77,19.83-75.37,84.37-67.52,105.07,2.2,5.81-7.66-27.32-7.66-27.32Z"/>
    <path class="cls-24" d="M138.06,172.12s52.4-76.33,122.24-78.66c0,0-86.27-9.23-124.46,52.39l-.57,7.24c-.35,4.51.07,9.04,1.26,13.41l1.53,5.62Z"/>
    <path d="M727.08,206.52c1.89-4.98,5.54-9.39,6.51-14.58.88-4.68-.52-9.48-.52-14.25.63-9.94,6.44-19.01,15.67-24.44,9.18-5.28,31.83-17.19,42.7-17.7,10.49-.82,21.79-.09,30.29,5.57,5.99,3.95,10,9.92,15.99,13.84,8.14,5.36,18.76,6.18,28.73,7.57,9.97,1.38,20.68,3.89,26.74,11.19,8.47,10.2,4.18,24.96,9.1,36.92,4.08,1.65,8.36,2.77,12.76,3.34,2.49.47,4.87,1.3,7.09,2.48,2.4,1.22,4.38,3.13,5.7,5.51,1.26,2.59,1.54,5.61.79,8.52-.75,2.82-1.76,5.58-3,8.25-1.2,2.57-2.09,5.28-2.62,8.05-.46,2.66-.43,5.36.1,7.95.97,4.95,3.96,9.14,8.23,11.53,4.07,2.34,8.83,1.84,13.16,2.36,2.15.18,4.22.79,6.1,1.78,1.78.96,3.14,2.55,3.84,4.49,1.17,3.34.36,7.17-2.09,9.91-3.32,3.15-8.25,3.51-11.65.84-.39-.32-.73-.7-1.01-1.13,1.47,1.43,3.4,2.29,5.47,2.41,2.43.18,4.87-.75,6.67-2.55,2.21-2.54,2.9-6.05,1.79-9.09-.65-1.72-1.88-3.12-3.49-3.95-1.78-.89-3.73-1.43-5.74-1.58-4.12-.46-9.13.15-13.62-2.36-4.61-2.53-7.85-7.01-8.9-12.32-.56-2.75-.61-5.62-.12-8.45.54-2.89,1.46-5.71,2.71-8.4,1.2-2.58,2.19-5.25,2.93-7.99.66-2.57.43-5.25-.65-7.56-1.2-2.17-3-3.91-5.18-5.01-2.12-1.14-4.4-1.95-6.78-2.42-4.07-.57-8.03-1.63-11.82-3.11,2.4,5,6.2,9.41,8.89,14.31.53.97.96,2.05,1.34,3.18,3.42,3.96,6.07,8.46,6.07,13,0,9.27-3.74,19.39-5.19,27.23-.15.24-.26.52-.26.87,0,.21,0,.41,0,.62-.11.76-.19,1.48-.24,2.19.1.14.18.31.29.43.12,3.51.56,7,2.17,10.18,2.26,4.44,6.64,7.37,10.94,9.6,4.45,2.3,9.44,3.99,14.49,4.55-5.93,6.3-15.58,16.09-19.58,17.5-.24.09-2.81,1.87-3.01,1.73-6.33-2.49-14.97-10.04-19.76-15.46,0,0,8.29,14.48,17.23,17.67l-5.08,4.14c-18.05,14.55-49.26,25.6-72.41,27.25,4.59-4.51,5.12-11.87,3.33-18.05-2.24-6.02-4.38-11.08-7.87-16.47-2.38-4.32,6.02-9.34,5.7-14.28-.49-.07-1.01-.1-1.47-.19l-87.59-75.65c-10.74-6.04-27.7-9.02-23.9-19.93Z"/>
    <path d="M759.71,189.82c-3.65.92-8.84-1.94-13.43,1.06-1.3.85-3.25-8.2-4.32-7.33-27.95,12.98-24.42,38.58-23.24,55.55.62,8.08,7.11,19.81,1.54,25.88-5.58,6.06-16.3,5.59-21.58,11.76-6.22,7.26-1.06,18.36-3.31,27.54-2.49,8.83-11.42,14.52-21.06,13.44,10.94,8.69,24.15,14.39,38.17,16.48l10.71-12.78c-3.71,4.93-4.89,15.93-4.89,15.93,5.39,6.12,18.4,9.05,21.61,9.79,13.82,3.18,46.15,16.41,86.45,5.61-17.59-49.34-35.92-115.7-53.51-165.04"/>
    <path d="M668.14,298.48c-.67,1.93-.67,4.04.01,5.97.77,2.27,2.51,4.08,4.74,4.95,3.03.92,6.32.06,8.51-2.22,1.23-1.32,1.96-3.02,2.07-4.82.09-1.99-.2-3.98-.84-5.86-1.18-3.92-3.62-8.2-3.17-13.32.42-5.24,3.03-10.06,7.2-13.27,2.15-1.67,4.6-2.93,7.22-3.69,2.69-.73,5.47-1.1,8.26-1.1,2.68,0,5.36-.25,7.99-.73,2.47-.49,4.68-1.83,6.26-3.78,1.41-2,2.22-4.36,2.33-6.81.17-2.4,0-4.8-.51-7.15-1.2-4.42-1.85-8.98-1.91-13.56.28-4.09,1.77-8,4.28-11.24,2.12-2.55,4.7-4.67,7.61-6.25,2.12-1.21,4.14-2.58,6.07-4.08,1.57-1.35,2.85-3,3.77-4.85l-.07.41c-.12.39-.28.76-.48,1.12-.72,1.42-1.71,2.68-2.93,3.7-1.89,1.6-3.9,3.05-6.02,4.33-2.78,1.61-5.24,3.72-7.25,6.22-2.33,3.09-3.7,6.8-3.92,10.67.12,4.48.8,8.93,2.02,13.25.55,2.45.74,4.96.57,7.46-.13,2.69-1.02,5.28-2.56,7.49-1.75,2.24-4.24,3.77-7.03,4.32-2.72.51-5.48.77-8.24.78-2.68,0-5.34.35-7.93,1.04-2.47.71-4.77,1.88-6.8,3.46-3.89,2.97-6.35,7.44-6.78,12.32-.46,4.67,1.79,8.77,3,12.9.66,2.02.93,4.15.8,6.28-.14,2.02-.99,3.92-2.4,5.37-2.42,2.47-6.03,3.36-9.32,2.3-3.98-1.67-6.17-5.98-5.17-10.18.13-.49.32-.96.59-1.4Z"/>
    <path class="cls-13" d="M846.37,291.12s-10.4,32.99-1.17,58.27c1.29,3.52,15.33,17.11,15.33,17.11l-8.99,8.12c-15.51,9.8-33.93,14.18-52.13,11.92-.17-.02-.35-.04-.52-.07-12.46-1.6-24.12-6.99-33.57-15.27l-8.02-7.03s16.92-5.54,17.91-9.85c.98-4.31-2.47-37.09-2.47-37.09"/>
    <path class="cls-13" d="M769.2,301.76c1.77,19.34-.79,38.13.33,57.51.04.69.07,1.43-.31,2.03-.25.39-.64.67-1.03.95-1.41.99-2.81,1.99-4.22,2.98.57,4,3.03,7.05,5.78,10.13,5.45,6.11,16.23,8.72,24.38,9.67,21.38,2.49,41.8-5.32,56.72-18.19,1.79-1.55,5.05-6,4.64-8.17-.39-2.12-7.24-4.65-8.48-6.94-9.22-17.08-1.24-54.6-1.24-54.6"/>
    <path class="cls-26" d="M827.77,328.38s-6.91,18.95-41.2,25.95c0,0-11.53,1.3-17.36-.53v-7.51s58.57-17.9,58.57-17.9Z"/>
    <g>
      <path class="cls-13" d="M843.62,304.5c.17-3.34,3.96-6.26,4.02-9.25.18-8.75,1.27-17.45,1.71-26.18.96-2.19,1.81-4.71,2.46-6.25,1.03-2.14,2.59-4.55,3.62-6.68,3.07-4.88,9.74-3.27,13.39-.16l.6,1.02c5.05,7,3.31,24.28-6.43,35.69-1.12,11.49-12.43,22.24-19.37,11.81Z"/>
      <path class="cls-13" d="M726.9,283.49c.57-4.42,3.27-12.65,3.03-16.91-.28-4.92.07-28.6,4.71-43.48,5.66-18.13,11.25-27.1,11.25-27.1.7-3.07-7.02-1.77-5.32-4.21h1.34s-.67.31-.68,1.24c1.7-.24,3.4-1.14,4.71-2.15,0,.05,0,.05,0,.05,2,.94,4.02.04,5.71-1.47,0,.31-.34.92-.68.91,2.01.33,4.02-.57,5.38-1.78,0,.31-.35.92-.35,1.23,1.53-.26,3.05-1.03,4.33-1.85-.25.32-5.04-.41-6.99-.61.1-.15.24-.32.53-.58l1.67-1.13c1.67.33,1.6,1.33,2.95.12-.34.3.96-3.37.96-3.07,2.01.02,1.46-.12,3.15-1.02,0,.31,5.45,2.06,5.45,2.36,1.67.02,1.22,1.55,2.57.33-.25.23-.79-.6-1.19-.92,1.74.41,2.51,1.46,4.09.03-.34.31,6.66-3.3,6.66-3.3,2.01.33,1.66.96,3.35-.25-.68.61,9.27-.47,8.93.14,1.67.02-3.27,6.1-1.92,5.19,0,.31,3.86-.88,3.86-.88.71.14.65.48.47.75-.06.37-.36,1.1-.66,1.1,2,.94,4.35.36,6.37-.85-.68.61-1.02,1.22-1.36,1.52,1.67.02,3.01.34,4.7-.87,0,.31-.68,1.22-1.02,1.22,1.67.63,3.68.35,5.36-.55,0,.31-.68.91-1.01,1.22,1.33.32,2.67.34,4.02-.57l-1.02,1.22c1.34.01,2.34.64,4.35.05,0,.31-.68.61-.68.91,1.01.01,2.34.03,3.35-.27,0,.31-1.01.91-.68.91,1.34.01,2.34.64,4.01.04-.34.3-.68.91-1.02,1.22,1.34.01,2.67.34,4.02-.26,0,.31-.34.92-.68,1.22,1.34.01,2.34.64,4.02.04,0,.31-.68.91-1.02,1.22,1.34.01,2.68.34,4.02.04,0,.31-.68.61-1.02.91,1.34.01,2.67.34,4.36-.26,0,.61-.34.92-.35,1.22,1,.01,1.68-.29,2.68-.28l1.67.63c4.62,6.2,16.86,18.62,16.86,18.62,10.28,8.41-12.98,23.22-13.37,29.05-.3,4.37,8.5,18.31,12.94,25.04-.41,9.31-1.52,18.58-1.76,27.91-.09,3.65-10.23,11.06-10.23,14.93l-8.52,12.84c-13.39,13.2-36.12,22.08-51.2,23.95-7.39.91-13.82,2.84-21.2-2.56-18.52-13.55-36.95-38.23-33.88-62.21Z"/>
      <path class="cls-13" d="M760.7,187.72c-.12.08-.25.16-.38.25.14-.18.28-.37.38-.55v.31Z"/>
      <path class="cls-13" d="M746.62,190.33c-.21.19-.44.37-.68.56v-.26s.68-.61.68-.3Z"/>
    </g>
    <g>
      <path class="cls-9" d="M762.27,294.44c2.15,1.15,5.48.96,7.7-.31.49-.28,2.11.03,1.42.43-2.93,1.67-7.7,1.73-10.48.25-.28-.15-.22-.35.13-.46.37-.11.94-.07,1.23.08"/>
      <path class="cls-9" d="M772.34,293.98c1.48-.64,3.12-.95,4.76-1.04.24-.01.55.08.72.24.14.12.16.28-.02.38-.76.4-1.73.56-2.61.52-.28-.01-.64-.09-.8-.32-.14-.22.13-.35.35-.34.73.03,1.48-.1,2.11-.43.24.2.47.41.7.61-1.46.08-2.94.38-4.26.95-.26.11-.64.03-.87-.11-.17-.1-.35-.34-.09-.46"/>
      <path class="cls-9" d="M778.84,294.32c1.92,0,4.18-.76,5.15-2.13,1.46-2.07.2-5.63-2.16-7.02-.26-.15-.12-.34.15-.39.35-.06.75.07,1.02.23,2.06,1.21,3.36,4.18,3.01,6.14-.33,1.84-2.19,3.08-4.49,3.57-.68.14-1.41.24-2.13.24-.29,0-.81-.09-.95-.32-.14-.23.13-.32.4-.32"/>
      <path class="cls-9" d="M758.78,293.43c.11-.21-.08-.35-.23-.35-.52,0-1.04-.15-1.48-.5-.17.2-.34.39-.52.59,1.03.13,2.07.48,2.98,1.1.18.12.45.05.62-.08.13-.1.26-.33.08-.45"/>
      <path class="cls-9" d="M760.22,293.73c-1.02-.69-2.18-1.07-3.33-1.21-.17-.02-.39.06-.52.21-.1.12-.12.28,0,.38"/>
      <path class="cls-9" d="M754.79,293.6c-1.25-.07-2.69-.91-3.28-2.31-.88-2.12.03-4.6,1.61-5.91.17-.14.09-.33-.08-.39-.22-.08-.49.04-.67.19-1.38,1.14-2.29,3.02-2.13,5,.15,1.85,1.32,3.16,2.8,3.72.44.17.91.28,1.38.31.19,0,.53-.07.63-.28.1-.22-.07-.32-.25-.33"/>
    </g>
    <path d="M852.32,278.64c2.27-4.67,4.8-9.4,8.24-13.34,1.28-1.47,2.84-3.03,4.57-3.69-.27.1.6-.25.25-.07.09-.05.35-.01.02-.02l-.4-.17c.69.88,1.1,2.04,1.39,3.11.84,3.06.57,6.28-.23,9.32-.16.63,1.31.44,1.46-.14.94-3.59,1.17-7.58-.3-11.08-.33-.79-.72-2.08-1.74-1.98-.94.09-1.86.61-2.64,1.12-1.77,1.16-3.24,2.77-4.55,4.42-3,3.79-5.34,8.08-7.45,12.41-.34.7,1.12.63,1.37.11h0Z"/>
    <path d="M729.67,239.91c7.65-3.22,12.73-3.73,26.37-3.16l.05.3c.35,1.73.15.76.5,2.5.26,1.32.53,2.65.78,3.97-4.46-.25-7.75-.84-10.58-.76-5.37.16-11.59-.3-16.77,1.37-1.28-2.21-.71-2.79-.35-4.23Z"/>
    <path d="M783.68,238.24c.01,1.77,0,.78.03,2.55.01,1.35.03,2.7.05,4.04,4.32-1.16,7.41-2.42,10.2-2.92,5.54-1,11.85-2.85,17.47-2.03,2.69.39,6.54,1.04,8.48,3.44.52.64,1.5,2.96,2.56,2.47.43-.2-.29-2.37-.37-2.59-1.48-4.38-5.28-6.18-9.91-7.19-9.45-2.07-14.2-1.73-28.51,1.92"/>
    <path d="M741.42,253.69c-1.91-1.02-4.17-.18-5.45.92-.3.26-1.1,1-1.49,2.26-.49,1.61.13,3.45,1.13,4.58,1.34,1.5,3.59,1.78,5.34.99,2.36-1.07,3.16-3.89,2.6-5.96-.1-.38-.59-1.97-2.13-2.79"/>
    <path d="M758.73,260.34s-9.41-7.48-14.26-8.01c-7.07-.77-11.98,2.35-14.53,5.79,0,0,7.75-5.01,12.72-4.32,4.75.66,16.07,6.54,16.07,6.54Z"/>
    <path d="M796.63,255.01c1.93-.98,4.18-.09,5.42,1.04.29.26,1.08,1.02,1.44,2.29.46,1.62-.21,3.45-1.23,4.55-1.37,1.47-3.63,1.7-5.36.88-2.34-1.12-3.07-3.96-2.47-6.01.11-.38.63-1.96,2.2-2.75"/>
    <path d="M786.11,260.81s10.23-7.24,15.41-7.68c9.36-.8,17.99,4.58,20.63,8.08,0,0-13.4-7.15-18.73-6.57-5.09.55-17.31,6.17-17.31,6.17Z"/>
    <path d="M813.08,167.84c5.8-.97,12.06-1.7,17.32.89,5.57,2.77,6.82,10.23,11.71,14.3,28.38,23.64,14.93,43.63,26.44,65.57-2.46.88-4.83,2.12-7.08,3.77-4.36,3.22-8.78,9.56-11.31,14.1-7.77-1.41-8.45-6.67-11.97-15.13-3.26-7.81-1.22-20.37-7.61-25.74-8.48-7.07-24.62.8-33.14-6.26-4.96-4.08-8.79-14.86-13.64-18.48-4.85-3.63-7.77-3.38-13.69-2.32-5.93,1.06-11.96,2.86-17.92,2.03-5.96-.84-15.07-3.22-14.99-9.24,23.34-9.97,50.83-19.31,75.87-23.48Z"/>
    <path class="cls-19" d="M757.87,921.33l.5,2.52c2.86.96,14.21,1.59,17.14,2.28,11.53,2.72,39.82-.23,51.63.56,11.41.76,22.28.59,33.71.62,12.41.04,46.21-5.46,58.36-7.83-1.67-33.11-.34-60.87,3.69-77.66,21.64-90.1,5.49-150.72-21.53-188.57l-210.72,17.99-3.78,36.02c-6.83,28.83-5.92,118.26,1.93,206.86,1.61,5.15,17.28,9.03,21.37,9.09,15.39.23,30.11.33,45.4-1.6.21-.03,2.13-.32,2.29-.27"/>
    <path class="cls-14" d="M758.59,921.13c-1.34-16.18-1.51-32.46-1.94-48.68-.2-7.69-.4-15.39-.75-23.08-.32-7.17-2.67-14.59-6.1-20.87-3.95-7.23-10.14-13.06-18.27-15.09-.55-.14-1.71.67-.86.89,7.32,1.83,13.02,6.86,16.88,13.22,1.96,3.23,3.44,6.73,4.58,10.32,1.05,3.31,2.08,6.95,2.25,10.43.78,16.07.94,32.16,1.48,48.23.28,8.34.59,16.7,1.28,25.02.05.57,1.5.24,1.45-.39h0Z"/>
    <path class="cls-15" d="M693.31,437.08c.76-24.49,8.93-41.02,15.2-50.21,3.48-5.09,8.3-9.12,13.87-11.77,8.04-3.83,15.11-7.72,25.81-11.58,1.99-.72,19.81-5.74,19.62-5.29-5.48,12.73,6.15,24.2,20.27,25.83,5.07.58,10.05.8,14.79.71,16.19-.33,39.19-15.91,49-28.06l1.73-2.25,1.93,1.12,52,22.69-5.02,240.91-10.18-1.13c-26.53,9.94-53.2,19.6-80.69,26.52-32.14,8.09-65.88,12.63-98.84,7.13-7.54-1.26-9.98-3.09-17.24-5.43,1.85-8.01,5.35-38.11,5.28-46.58-.38-46.75,1.14-48.31-.45-50.24,0,0-5.82-4.42-8.85-19.12"/>
    <path class="cls-15" d="M700.85,599.69s-13.47,89.1-15.37,104.67c0,0,78.01,20.22,160.24,9.2,82.24-11.02,74.87-18.86,74.87-18.86l-16.66-79.93-2.1-35.1-190.86,12.28"/>
    <path class="cls-17" d="M698.02,435.63c1.16,2.44,1.84,5.17,2.35,7.81.75,3.96,1.23,8.38.39,12.36-1.11,5.31-3.2,10.46-4.86,15.61-5.17,16.02-9.5,33.02-7.8,49.98,1.03,10.27,4.57,20.11,11.08,28.18.22.28,1.6-.21,1.36-.5-11.91-14.77-12.9-34.4-9.8-52.4,1.39-8.07,3.56-15.97,6.03-23.77,1.72-5.43,3.8-10.8,5.18-16.33.96-3.87.72-8,.14-11.91-.48-3.18-1.24-6.5-2.62-9.42-.17-.36-1.57.13-1.45.39h0Z"/>
    <path class="cls-13" d="M958.86,508.29c-1.54.88-8.27-.84-9.83,0-4.33,2.32-6.3,6.41-11.02,7.74-4.35,1.23-9.41,5.96-13.89,6.55-13.21,1.74-19.4,9.71-32.69,9.06l21.7,74.69-1.34,12.88c-1.5,14.44-1.5,28.99.02,43.42l3.98,113.23,32.63,7.08c9.8-72.43,25.58-140.93,25.46-178.24-.03-9.35-10.52-69.07-15.01-96.42Z"/>
    <path class="cls-17" d="M853.14,354.55c-2.39,3.23-5.26,6.16-8.16,8.92-6.73,6.38-14.45,11.83-22.93,15.62-10.95,4.89-23.11,6.66-34.96,4.49-7.73-1.42-16.36-5.05-19.14-13.07-.57-1.64-.89-3.4-.83-5.14,0-.18.01-.37.03-.55.03-.28-.04.08.02-.14.39-1.67,1-3.31,1.5-4.95l.45-1.5c.15-.51-.4-.73-.83-.59-3.04.99-6.09,1.99-9.13,2.98-.78.25-1.27.4-1.68,1.14-.76,1.38-1.19,2.98-1.4,4.54-1.36,10.14,5.8,18.99,14.27,23.45,11.25,5.92,24.85,6.14,37.12,4.06,14.24-2.42,27.89-8.27,39.65-16.62,5.09-3.61,10.09-7.41,14.85-11.46,1.61-1.37,3.51-2.78,4.82-4.47.05-.06.1-.11.15-.17.23-.28.11-.57-.19-.71-4.2-2.04-8.39-4.08-12.59-6.12-.61-.29-1.66.58-.83.99,4.2,2.04,8.39,4.08,12.59,6.12l-.19-.71c-.8.96-1.78,1.81-2.7,2.64-3.55,3.19-7.33,6.13-11.13,9-6.01,4.53-12.16,8.75-18.93,12.09-6.25,3.09-12.83,5.5-19.6,7.15-12.16,2.95-25.71,3.74-37.61-.73-8.88-3.33-16.66-10.08-18.14-19.87-.38-2.5-.26-5.15.61-7.54.19-.53.63-1.11.75-1.65,0-.03.1-.13.09-.16.11.34-.97-1.08-.49.31,0,0,.4-.13.42-.14,3.22-.91,6.38-2.08,9.56-3.12l-.83-.59c-.47,1.55-.94,3.11-1.41,4.66-.22.72-.53,1.47-.64,2.22-.21,1.41.04,3,.36,4.37,1.71,7.36,8.32,11.88,15.17,14.02,11.73,3.68,24.86,2.76,36.35-1.33,9.48-3.37,18.14-8.82,25.69-15.43,2.66-2.32,5.19-4.79,7.57-7.4,1.16-1.27,2.41-2.57,3.38-3.99.05-.07.1-.13.15-.2.55-.74-.81-.98-1.22-.44Z"/>
    <path class="cls-9" d="M852.92,281.98c5.71-.2-1.05,11.01,3.09,10.85,1.13-.04,1.86-.85,2.38-1.76.98-1.72,1.49-3.74,1.92-5.66.54-2.38.76-4.36.41-6.75-.44-2.98-1.62-6.28-4.68-7.41-.34-.13-1.65.42-1.18.59,2.61.96,3.74,3.75,4.25,6.28.32,1.61.53,3.34.26,4.97-.35,2.13-.82,4.27-1.57,6.3-.25.69-.53,1.38-.9,2.01-.12.21-.49.55-.56.77l-.05.05c-.17.14-.03.14.42-.01,0,.04-.27-.18-.27-.19-.16-.37-.35-.59-.4-1.03-.06-.54,0-1.11.07-1.65.15-1.17.4-2.33.54-3.5.12-1.07.26-2.34-.29-3.32-.58-1.04-1.74-1.2-2.83-1.17-.42.01-1.57.66-.61.63h0Z"/>
    <path class="cls-15" d="M911.33,533.83c14.68-2.47,28.64-7.71,42-14.16,4.06-1.96,8.07-4.02,12.06-6.13-6.51-38.12-14.26-79.25-20.6-98.28-13.35-33.61-56.65-45.11-56.65-45.11l-5.27,118.91,8.59,46.44c6.65-.04,13.3-.57,19.87-1.67Z"/>
    <path class="cls-17" d="M897.5,403.02c-7.65,1.97-12.76,8.28-15.92,15.2-1.72,3.76-2.91,7.71-3.87,11.73-1.24,5.23-2.25,10.52-2.97,15.85-1.25,9.32-1.53,18.74-.87,28.11.66,9.27,2.22,18.45,4.16,27.53,2.45,11.46,5.42,22.81,8.19,34.2.04.18.29.26.45.26h10.41c.6,0,1.52-.9.54-.9h-10.41l.45.26c-4.52-18.63-9.84-37.26-11.87-56.37-.97-9.1-1.1-18.27-.26-27.39.46-4.99,1.19-9.95,2.14-14.87.88-4.53,1.86-9.08,3.34-13.46,2.76-8.17,7.74-17.03,16.7-19.33.88-.23.66-1.05-.22-.82h0Z"/>
    <path class="cls-23" d="M366.52,410.33c-4.36,11.27-4.14,23.35-1.62,35.02,2.6,12.04,7.2,23.53,10.92,35.25,3.79,11.92,6.82,24.34,5.95,36.94-1.02,14.83-7.63,28.31-17.12,39.58-.68.81-1.95,1.72-1.96,2.82,0,.5.05,1.01.07,1.51l.3,6.3c.21,4.44.43,8.88.64,13.32l.04.83c.05,1.03,2.96.42,2.9-.78-.31-6.45-.62-12.9-.93-19.35-.04-.93-.09-1.86-.13-2.78l-.27.68c8.08-9.16,14.69-19.72,17.68-31.67,2.46-9.81,2.26-20.02.47-29.92s-5-19.28-8.21-28.7c-3.13-9.18-6.34-18.41-8.07-27.98-1.68-9.28-1.75-18.82,1.05-27.9.36-1.18.77-2.34,1.22-3.48.25-.65-.92-.74-1.28-.71-.66.06-1.38.39-1.63,1.04h0Z"/>
    <path class="cls-10" d="M768.85,304.84c9.6-.25,25-.68,25-.68,0,0-1.19,22.2-23.45,22.78-22.26.58-20.28-21.46-20.28-21.46,0,0,9.13-.4,18.73-.64Z"/>
    <path class="cls-22" d="M768.75,304.84c4.56-.12,22.81-.2,22.81-.2,0,0-5.56,13.78-22.07,14.2-17.9.46-16.36-12.5-16.36-12.5l15.62-1.51Z"/>
    <path class="cls-12" d="M769.93,305.67c4.56-.12,18.3-.08,18.3-.08,0,0-4.72,4.73-18.41,5.08-13.69.35-16.76-4.05-16.76-4.05l16.87-.95Z"/>
    <path class="cls-10" d="M748.58,303.78c.48-.15.47-.16,2.7-.45,3.72-.48,5.01-1.87,7.7-2.19,4.6-.54,5.95,1.41,7.96,1.36,2-.05,4.88-2.3,9.5-2,2.71.18,9.29,2.48,13.03,2.77,2.24.17,3.88.36,4.36.49.67.18.62,3.45-24.58,4.1-25.2.65-21.34-3.88-20.68-4.1Z"/>
    <path class="cls-10" d="M273.3,258.61c-11.19-1.53-29.12-4.01-29.12-4.01,0,0-.17,25.05,25.76,28.59,25.93,3.54,25.16-21.42,25.16-21.42,0,0-10.62-1.64-21.8-3.16Z"/>
    <path class="cls-22" d="M273.41,258.62c-5.32-.73-26.62-3.17-26.62-3.17,0,0,6.02,15.77,25.25,18.4,20.85,2.85,19.43-11.45,19.43-11.45l-18.05-3.77Z"/>
    <path class="cls-12" d="M271.93,259.44c-5.32-.73-21.37-2.45-21.37-2.45,0,0,4.9,6.13,20.86,8.31,15.95,2.18,20.11-2.57,20.11-2.57l-19.59-3.28Z"/>
    <path class="cls-10" d="M297.11,259.98c-.54-.24-.53-.24-3.1-.87-4.28-1.04-5.61-2.83-8.72-3.55-5.3-1.23-7.14.88-9.47.56-2.33-.32-5.4-3.32-10.84-3.56-3.19-.14-11.18,1.71-15.58,1.56-2.64-.09-4.58-.08-5.16,0-.81.12-1.17,3.96,28.18,7.96,29.35,4.01,25.43-1.79,24.68-2.12Z"/>
    <path class="cls-13" d="M467.85,509.33c-.69-.14-5.5-.67-6.1-1.05-2.19-1.37-3.2-2.83-3.44-4.97-.06-.89-.34-4.58-.11-5.42.45-1.64.03-.57-1.38-1.51l-1.82-1.21c-.7-.47-1.28-1.12-1.56-1.92-.6-1.64-.95-3.36-1.03-5.1,0-2.97,4.57-7.03,4.57-7.03l-2.11-.99c-2.21-1.58-2.74-2.73-2.5-5.44l.16-1.28c.36-1.24.9-2.4,1.6-3.46,1.12-1.69.84-3.91-.62-5.31-1.23-1.17-2.35-2.58-2.36-3.84.45-4.86,3.67-9,8.23-10.65.3-.11.61-.18.92-.22,8.4-1.21,16.87-1.86,25.35-1.95.59,0,10-2.42,10.53-2.6,3.81,2.74-.66,6.55,4.13,7.19,4.43.59,8.91.55,13.36.88,1.44.11,2.7,1.01,3.34,2.3,0,0,0,.02.01.02.18.37.42.7.7,1l18.46,22.47c1.11,1.17,8.37,1.21,8.18,2.81-2.07,17.52-8.5,34.53-7.99,34.63.57.11-12.7-5.32-17.34-3.49,0,0-28.99.61-51.16-3.87Z"/>
    <path class="cls-13" d="M489.47,451.57c.61-.77,4.85-5.09,4.97-6.13.03-.29.05-.58.04-.87-.45-8.17.32-16.36,2.31-24.29,2.62-8.47,7.8-10.02,11.11-10.12,1.4-.03,2.57,1.08,2.6,2.48,0,.15,0,.29-.03.44-.97,5.62-1.58,11.3-1.83,16.99.1,2.88,4.77,16.96,7.71,25.58-8.1-1.6-20.55,1.18-26.88-4.09Z"/>
    <path class="cls-26" d="M463.83,452.26c4.82.41,9.6,1.14,14.31,2.21,2.44.55,4.85,1.2,7.24,1.93,2.07.63,4.29,1.23,6.12,2.44s3.02,3.08,3.22,5.24c.1,1.02-.01,2.29-.88,2.99-1.2.97-3.47.48-4.85.3-4.8-.64-9.6-1.14-14.43-1.44-5.61-.34-11.22-.41-16.84-.23-.34.01-1.01.07-1.25.34-.17.18-.35.34.09.33,5.69-.18,11.39-.1,17.08.25,2.87.18,5.74.43,8.6.74,2.6.29,5.22.82,7.83.9,1.73.05,3.98-.19,5.36-1.36,1.59-1.34,1.21-3.93.41-5.61-1-2.11-2.92-3.37-5.03-4.2-2.36-.93-4.85-1.62-7.3-2.28-5.97-1.61-12.07-2.66-18.23-3.19-.39-.03-.89.05-1.24.24-.09.05-.64.37-.23.4h0Z"/>
    <path class="cls-26" d="M487.49,468.93c2.63,1.7,6.55,5.65,3.38,8.62-2.48,2.33-6.15,2.77-9.4,2.89-7.44.26-14.93.02-22.38,0-.69,0-1.88,1.04-.68,1.04,4.73,0,9.46.02,14.19.02,3.98,0,8.07.26,12.01-.34,3.07-.47,6.79-1.64,8.63-4.36,2.24-3.33-1.77-7.07-4.34-8.74-.5-.33-2.14.41-1.41.88h0Z"/>
    <path class="cls-26" d="M485.82,481.63c1.93.26,3.59,1.2,5.14,2.34,1.18.87,3.75,2.37,3.71,4.04-.04,1.74-1.68,3.02-3.15,3.49-1.98.64-4.03,1-6.09,1.26-8.41,1.05-16.89,1.65-25.33,2.45-.98.09-1.38,1.37-.17,1.25,5.25-.5,10.49-1,15.74-1.5,4.78-.46,9.71-.65,14.39-1.8,1.85-.45,3.78-.91,5.03-2.45.89-1.09,1.78-2.63,1.15-4.04-.72-1.64-2.84-2.97-4.24-3.96-1.68-1.19-3.5-2.07-5.55-2.34-.85-.11-1.82,1.09-.62,1.25h0Z"/>
    <path class="cls-26" d="M484.94,493.92c2.15.27,2.99,2.68,2.39,4.54-.75,2.31-2.98,3.51-5.06,4.4-4.47,1.92-9.15,3.32-13.91,4.27-.27.05-.86.33-.76.69.1.38.75.27,1.01.22,2.91-.58,5.79-1.33,8.61-2.26,2.65-.88,5.38-1.81,7.84-3.16,2.02-1.11,4.06-2.95,4.26-5.4.17-2.05-1.2-4.02-3.29-4.28-.4-.05-.96.01-1.25.34-.22.24-.25.59.17.65h0Z"/>
    <path class="cls-26" d="M522.26,511.69c5.56-4.44,9.01-11.25,9.23-18.37.02-.69-1.75-.32-1.77.24-.21,6.92-3.46,13.55-8.87,17.88-.31.25-.16.5.16.59.39.12.95-.09,1.25-.34h0Z"/>
    <path class="cls-26" d="M503.34,488.75c-4.13-5.9-5.38-13.51-3.32-20.41.13-.43-1.61-.2-1.76.29-2.08,6.96-.87,14.64,3.3,20.59.33.47,1.96-.22,1.77-.48h0Z"/>
    <path class="cls-23" d="M391.71,767.68c-.22-4.36-.45-8.71-.69-13.07-.56-10.03-1.15-20.06-1.81-30.08-.74-11.32-1.55-22.64-2.56-33.94-1.03-11.55-2.5-23-4.48-34.43-2.08-12.03-4.47-24.03-7.23-35.92-.04-.19-.09-.39-.14-.58-.18-.75-3.09-.02-2.9.78,2.36,9.97,4.38,20.03,6.23,30.1,2.26,12.29,4.1,24.62,5.27,37.06,1.05,11.14,1.87,22.31,2.62,33.47.7,10.42,1.34,20.84,1.92,31.26.2,3.58.4,7.15.59,10.73.06,1.13.12,2.26.18,3.39.03.55-.06,1.26.09,1.79.02.07,0,.16.01.23.03.65,2.94.14,2.9-.78h0Z"/>
  </g>
  <g id="Layer_2" data-name="Layer 2">
    <path class="cls-13" d="M996.17,574.17c1.77-12.24,2.28-40.12,3-70.21,3.99,1.38.09,2.52,4.33,3.14,14.38,2.11,29.09.31,43.59-.17-.97,6.21-2.22,11.87-3.85,16.7-14.88,44.17-20,241.2-20,241.2l-31.59-2.61,3.18-90.61c0-23.09-3.82-65.04,1.33-97.44Z"/>
    <path class="cls-13" d="M1023.89,772.5c-.07.49-.02.99.17,1.45,1.62,3.91,9.93,20.27,9.94,35.72,0,13.91.03,34.11.04,41.11,0,1.66-1.46,2.96-3.1,2.7-2.27-.36-5.24-2-6.94-7.55-1.56-6.09-2.57-12.3-3.04-18.56-.16-2.2-2.69-3.33-4.42-1.95h0c-.69.55-1.07,1.39-1.03,2.27l.95,19.47c.05,1.05.7,1.98,1.68,2.39,3.59,1.5,12.21,5.63,14.6,11.71.72,1.82-.78,3.77-2.73,3.65l-12.46-.73c-.17,0-.33-.04-.5-.08l-12.25-3.03c-.48-.12-.93-.37-1.28-.72l-10.94-10.99c-.34-.34-.59-.77-.71-1.24l-8.89-34.37c-.81-3.12-.84-6.41-.03-9.53,2.34-8.94,4.2-18,5.58-27.14,2.26-17.9,3.53-29.45,4.09-34.78.19-1.76,1.97-2.87,3.64-2.27l28.71,10.38c1.22.44,1.96,1.69,1.77,2.97l-2.88,19.13Z"/>
    <path class="cls-13" d="M1220.82,1084.22c-9.4-60.93-5.5-125.96,1.17-177.29-1.99.4-3.99.77-6.01,1.07-10.16,1.53-20.45,1.88-30.71,1.73-10.73-.16-21.5-.53-32.2-1.44-10.94-.93-21.76-2.69-32.44-5.39-9.77-2.47-18.5-8.27-28.4-10.26-.02,0-.04-.01-.06-.02-.09.03-.19.06-.3.07-4.12.55-8.25.98-12.4,1.28-13.65,1.01-27.33.68-40.99.37,4.52,53.43,9.32,109,11.62,155.82l35.98,269.44s26.2,9.39,46.3,1.04c0,0-.75,15.71,4.76,15.46,30.69-1.42,35.68,8.13,78.85-4.68-4.83-30.85,16.98-168.36,4.82-247.2Z"/>
    <path class="cls-26" d="M1139.49,1351.09c-4.06-28.5-7.98-57.02-11.75-85.56-3.75-28.37-7.35-56.76-10.82-85.17-3.51-28.77-6.87-57.55-10.09-86.35-1.63-14.53-3.2-29.06-4.27-43.65-1.05-14.39-1.79-28.79-2.39-43.21-1.2-28.86-1.86-57.74-3.5-86.58-.21-3.63-.43-7.27-.67-10.9-.03-.4-1.48-.12-1.45.39,1.92,29.03,2.67,58.11,3.77,87.17s2.56,57.8,5.86,86.53c3.32,28.84,6.55,57.7,10.03,86.52,3.44,28.51,7.02,57,10.75,85.48s7.57,56.72,11.57,85.05c.5,3.55,1.01,7.11,1.51,10.66.06.42,1.52.1,1.45-.39h0Z"/>
    <path class="cls-18" d="M1054.39,926.82c16.6-3.24,32.03-1.63,48.88,2.39,9.27,2.21,17.85,1.81,35.5,4.27,9.38,1.31,20.42.46,29.86.54,10.24.09,23.25-.3,33.31-2.19,10.35-1.94,12.16-3.66,22.62-4.94,8.63-1.05,25.23-.72,33.82,0-1.5-35.06-17.01-73.87-12.47-91.56,23.06-89.75,2.87-150.46-23.55-188.73l-210.39,29.23-11.27,181.33c.37,12.45-2.88,41.06-2.33,68.38,12.24,5.42,42.36,3.94,56.02,1.28Z"/>
    <path class="cls-13" d="M890.76,855.97c5.47-6.54,12.67-15.46,12.61-16.97-.06-1.51,1.08-11.61,2.11-20.43.72-4.48-2.08-8.78-6.26-9.62-1.09-.22-9.44,19.51-17.7,14.99l3.71-18.17c1.99-5.69,4.66-11.07,7.93-16.01,7.11-18.43,23.91-24.98,23.91-24.98l.96,10.35,29.96-1.4,2.86,31.51s-6.21,42.73-10.39,47.13c-4.18,4.4-16.85,7.6-16.85,7.6-4.54,6.74-15.21,5.15-15.21,5.15-10.91,8.42-11.24-.81-11.24-.81-.3.38-.7.66-1.15.8-4.85,1.63-8.53-5.26-5.24-9.14Z"/>
    <path class="cls-26" d="M917.66,830.07c.18,7.19-1.19,15-5.37,20.98-1.85,2.65-4.07,5.03-6.6,7.03-2.76,2.18-5.83,4.27-9.14,5.46-.96.34-.08.76.56.53,3.32-1.19,6.3-3.21,9.11-5.31,2.76-2.07,5.19-4.58,7.19-7.38,4.43-6.2,5.9-14.19,5.71-21.7-.01-.41-1.46-.14-1.45.39h0Z"/>
    <path class="cls-26" d="M927.15,833.39c-.07,4.33-.41,8.93-1.94,13.02-1.43,3.83-4.17,6.87-7.13,9.62-1.28,1.19-2.56,2.38-3.84,3.57-1.98,1.84-3.83,3.75-6.18,5.14-.84.5-.08,1.32.65.89,3.95-2.32,7.17-5.97,10.52-9.07,3.07-2.84,5.89-6,7.37-9.96,1.57-4.19,1.95-8.87,2.02-13.31.01-.77-1.46-.58-1.47.1h0Z"/>
    <path class="cls-26" d="M937.16,835.06c.81.23-1.54,9.53-1.68,10.21-.34,1.6-.53,3.31-1.1,4.84-.59,1.57-1.76,2.89-2.91,4.09-1.17,1.23-2.4,2.39-3.77,3.39-.71.52-1.45,1.02-2.23,1.44-.29.16-.6.32-.91.45l-.34.14c-.27.06-.3.09-.08.09-.24-.28-1.6.22-1.36.5.39.45,1.81-.17,2.19-.33,1.57-.62,3.02-1.58,4.35-2.61,3-2.32,6.14-5.31,6.93-9.13.7-3.41,1.49-6.8,2.1-10.23.1-.54.85-3.17-.01-3.43-.34-.1-1.62.45-1.19.58h0Z"/>
    <path class="cls-18" d="M1029.09,383.96c-12.8,11.99-11.49,14.35-22.42,37.79-5.5,11.8-4.39,10.94-10.97,33.62-.9,3.1-9.7,41.76-9.71,42.36-.01.48.62,2.77,1.85,6.03,2,2.78,4.03,5.55,6.11,8.28,6.91,9.04,10.86,7.99,20.46,14.25,5.19,3.38,5.56,15.61,11.38,17.13,4.34-5.77,8.27-11.85,11.78-18.17,7.03-12.65,12.37-26.17,16.42-40.05,4.13-14.16,6.95-28.68,8.87-43.29,1.94-14.72,3-29.55,3.58-44.38.48-12.3,4.03-19.04,4.06-31.35-11.65,5.34-31.03,8.05-41.42,17.79Z"/>
    <path class="cls-18" d="M1012.58,438.93c.76-24.49,8.93-41.02,15.2-50.21,3.48-5.09,8.3-9.12,13.87-11.77,8.04-3.83,15.11-7.72,25.81-11.58,1.99-.72,19.81-5.74,19.62-5.29-5.48,12.73,6.15,24.2,20.27,25.83,5.07.58,10.05.8,14.79.71,16.19-.33,39.19-15.91,49-28.06l1.73-2.25,1.93,1.12,52,22.69-7.38,232.18-7.83,7.6c-26.53,9.94-53.2,19.6-80.69,26.52-32.14,8.09-65.88,12.63-98.84,7.13-7.54-1.26.23.63-7.03-1.71,1.85-8.01-4.86-41.83-4.93-50.29-.38-46.75,1.14-48.31-.45-50.24,0,0-8.55-13.59-11.58-28.3"/>
    <path class="cls-18" d="M1022.16,618.85s-10.33,40.05-10.33,63.98c0,0,70.92,43.59,153.16,32.57,82.24-11.02,74.87-18.86,74.87-18.86l-18.27-77.69-9.46-36.77-181.9,11.71"/>
    <g>
      <path class="cls-18" d="M1018.01,437.29s3.75,7.87,2.99,18.55c-.76,10.68-28.21,62.92-1.88,95.34"/>
      <path class="cls-25" d="M1017.29,437.48c1.16,2.44,1.84,5.17,2.35,7.81.75,3.96,1.23,8.38.39,12.36-1.11,5.31-3.2,10.46-4.86,15.61-5.17,16.02-9.5,33.02-7.8,49.98,1.03,10.27,4.57,20.11,11.08,28.18.22.28,1.6-.21,1.36-.5-11.91-14.77-12.9-34.4-9.8-52.4,1.39-8.07,3.56-15.97,6.03-23.77,1.72-5.43,3.8-10.8,5.18-16.33.96-3.87.72-8,.14-11.91-.48-3.18-1.24-6.5-2.62-9.42-.17-.36-1.57.13-1.45.39h0Z"/>
    </g>
    <path class="cls-13" d="M1280.22,536.04c-1.54.88-6.28-39.32-7.84-38.49-4.33,2.32-10.34-3.53-15.06-2.19-4.35,1.23-12.81,5.57-17.29,6.16-13.21,1.74-22.21,8.13-35.5,7.48l27.87,115.14-1.34,12.88c-1.5,14.44-1.5,28.99.02,43.42l3.98,103.23,32.63,7.08c9.8-72.43,25.58-130.93,25.46-168.24-.03-9.35-8.43-59.11-12.92-86.47Z"/>
    <path class="cls-18" d="M1230.6,514.74c14.68-2.47,28.64-7.71,42-14.16,4.06-1.96,8.07-4.02,12.06-6.13-6.51-38.12-14.26-58.32-20.6-77.35-13.35-33.61-56.65-45.11-56.65-45.11l-5.27,118.91,1.62,25.51c6.65-.04,20.28-.57,26.85-1.67Z"/>
    <g>
      <path class="cls-18" d="M1216.87,405.28c-10.74,2.66-18.7,14.39-20.87,25.24-5.34,26.63-.12,63.72,5.23,85.86h10.41"/>
      <path class="cls-25" d="M1216.77,404.87c-7.24,1.86-12.94,7.29-16.72,13.56-4.05,6.72-5.44,14.27-6.24,21.97-1.77,16.98-.49,34.31,1.94,51.16,1.21,8.4,2.77,16.76,4.75,25.01.04.18.29.26.45.26h10.41c.6,0,1.52-.9.54-.9h-10.41l.45.26c-3.6-14.93-5.92-30.24-6.95-45.56-.57-8.43-.72-16.9-.16-25.33.5-7.56,1.24-15.55,4.36-22.55,3.38-7.59,9.44-14.91,17.78-17.05.88-.23.66-1.05-.22-.82h0Z"/>
    </g>
    <path class="cls-13" d="M1211.03,864.77c5.47-6.54,12.67-15.46,12.61-16.97-.06-1.51,1.08-11.61,2.11-20.43.72-4.48-2.08-8.78-6.26-9.62-1.09-.22-9.44,19.51-17.7,14.99l3.71-18.17c1.99-5.69,4.66-11.07,7.93-16.01,7.11-18.43,23.91-24.98,23.91-24.98l.96,10.35,29.96-1.4,2.86,31.51s-6.21,42.73-10.39,47.13c-4.18,4.4-16.85,7.6-16.85,7.6-4.54,6.74-15.21,5.15-15.21,5.15-10.91,8.42-11.24-.81-11.24-.81-.3.38-.7.66-1.15.8-4.85,1.63-8.53-5.26-5.24-9.14Z"/>
    <path class="cls-26" d="M1237.92,838.87c.18,7.1-1.12,14.82-5.18,20.78-1.83,2.68-4.03,5.11-6.56,7.15-1.25,1.01-2.63,1.83-3.92,2.78-1.67,1.22-3.47,2.19-5.42,2.89-.97.35-.05.45.48.26,3.26-1.16,6.12-3.08,8.9-5.11,2.77-2.02,5.21-4.49,7.24-7.25,4.56-6.22,6.1-14.29,5.91-21.89,0-.19-1.46.02-1.45.39h0Z"/>
    <path class="cls-26" d="M1247.43,842.33c-.07,4.35-.44,8.97-1.98,13.07-1.44,3.86-4.21,6.92-7.19,9.68-3.18,2.95-6.31,6.52-10.05,8.72-.84.49.45.6.88.35,3.93-2.31,7.15-5.97,10.5-9.06,3.05-2.82,5.84-5.96,7.31-9.89,1.56-4.17,1.91-8.84,1.99-13.25,0-.37-1.44-.13-1.45.39h0Z"/>
    <path class="cls-26" d="M1257.59,844.04c-.31-.09-.04-.14-.09.16-.03.18,0,.39-.02.57-.05.71-.18,1.42-.31,2.12-.45,2.52-1.01,5.03-1.54,7.53-.35,1.67-.53,3.52-1.31,5.05s-2.01,2.75-3.16,3.91-2.45,2.29-3.85,3.24c-.67.46-1.37.88-2.11,1.23-.24.12-.59.2-.81.34-.39.24-.39-.2,0,.24-.41-.47-1.79.09-1.33.62.51.59,1.68.06,2.24-.17,1.65-.67,3.16-1.71,4.55-2.82,1.64-1.31,3.13-2.82,4.46-4.44,1.23-1.51,1.89-2.98,2.28-4.87.71-3.41,1.5-6.8,2.09-10.23.12-.68.84-3.12-.24-3.43-.59-.17-1.71.69-.85.94h0Z"/>
    <path class="cls-13" d="M1165.12,293.87s-10.29,41.29-.21,57.75c1.35,2.2,6.14,4.54,6.64,6.62,0,0-15.8,33.05-55.81,35.64-40.01,2.59-34.55-26.9-34.55-26.9,1.34-1.06,2.54.58,3.88-.48.37-.29.75-.59.97-1,.34-.61.27-1.34.2-2.03-2.16-19.19-4.85-38.3-7.66-57.41"/>
    <path class="cls-26" d="M1138.1,329.9s-5.45,17.67-39.11,26.46c0,0-7.29,3.08-13.18,1.57l-1.12-6.9,53.42-21.13Z"/>
    <path class="cls-2" d="M1041.42,297.78c10-8.34,11.01-22.06,8.8-34.06-2.12-11.48,5.31-29.9-8.86-28.25-.27.03,4.35-10.3.23-9.12,2.08-6.59-7.26-5.27-9.11-12.38-.37-1.43-3.4-14.11,5.71-15.67,29.61-48.62,74.71-42.18,99.84-40.67,49.3,2.96,73.25,4.03,67.19,82.17-4.07,52.46-51.69,70.28-101.04,72.42-21.08.91-46.01,3.58-63.18-14.12.14-.11.28-.21.42-.33Z"/>
    <path class="cls-2" d="M1132.06,124.45c-11.47,6.52-16.21,17.79-15.95,30.58,2.65,2.04,8.16,4.12,10.82,6.14.41-.87.84-1.72,1.29-2.56,2.91,2.2,10.26,3.9,13.21,6.05.74-.52,3.08-1.73,5.87-3.11.9.67,1.8,1.34,2.7,2.01-2.15.75-3.86,1.6-4.92,2.55,3.35,2.49,11.56,3.48,14.78,6.13,6.98,5.74,14.9,13.53,22.11,18.97,2.25,1.37,4.05,2.74,5.53,4.02l-4.58,4.63,7.39,5.24c-.66,1.9-1.05,2.99-1.05,2.99l6.07,4.4s3.47-3.68,8.38-9.21c20.28,6.3,27.44-10.49,25.29-17.89-.95-3.27-2.79-5.63-4.61-7.3,7.1-9.67,12.32-18.62,10.87-22.53-2.92-7.87-17.01-25.05-23.83-33.1-1.38-2.62-2.91-5.18-4.58-7.51l-.09-.16s-.02,0-.03,0c-1.87-2.58-3.9-4.86-6.1-6.52-5.68-4.28-16.62-1.75-25.43,1.45-10.12-7.81-16.86-9.84-22.57-10.05-7.99-.3-20.41,10.86-21.63,13.71-.6,1.39.14,6.36,1.04,11.07ZM1212.12,193.55c3.1-3.68,6.3-7.61,9.31-11.52.16,1.85.06,3.95-.56,6.21-1.03,3.8-5.03,5.03-8.75,5.31ZM1151.95,109.16c.81.54,3.55,4.05,6.28,7.71-6.48.94-11.87,2.58-14.71,3.24-.31.07-.61.15-.91.23-1.55-2.32-3.4-5.49-3.63-7.64-.41-3.76,8.8-6.31,12.97-3.54Z"/>
    <path class="cls-13" d="M1063.91,193.57c-.09.19-.22.39-.35.57.12-.09.25-.18.36-.26v-.31ZM1049.43,197.56v.25c.24-.2.46-.39.65-.59-.01-.3-.65.33-.65.33ZM1161.31,307.54l1.59-5.13c3.51,9.43,16.25,2.71,16.81-10.31,9.05-11.86,9.84-29.1,4.45-35.78l-.65-.98c-3.79-2.89-10.5-4.13-13.28.88-.91,2.18-2.32,4.65-3.23,6.83-.89,2.49-2.15,7.47-3.72,9.67,0,0,6.17-23.54,6.25-29.35.08-5.81-.74-20.12-11.41-27.91,0,0-12.82-11.67-17.74-17.58l-1.69-.54c-1,.04-1.65.38-2.65.42-.01-.3.31-.62.28-1.23-1.64.68-2.98.43-4.31.49.32-.32.97-.65.96-.96-1.32.36-2.66.12-3.99.17.32-.32.96-.96.95-1.26-1.64.68-2.66.12-3.99.17.32-.32.63-.95.61-1.25-1.3.67-2.65.42-3.98.48.32-.32.63-.94.94-1.26-1.63.68-2.66.12-3.99.17-.33.01.64-.64.62-.94-.98.35-2.31.41-3.31.45-.01-.31.64-.64.63-.94-1.97.7-2.99.13-4.32.19l.94-1.26c-1.29.97-2.62,1.03-3.96.78.32-.32.95-.96.94-1.26-1.62.99-3.6,1.38-5.29.84.33-.01.96-.96.94-1.26-1.61,1.29-2.95,1.05-4.61,1.12.32-.32.63-.94,1.26-1.58-1.94,1.31-4.24,2.02-6.28,1.19.33-.01.63-.94.61-1.25-1.28,1.28,1.15-.36-.52-.59,0,0-3.77,1.39-3.79,1.08-1.29.97,3.28-5.33,1.62-5.26.31-.63-9.52.98-8.88.34-1.61,1.29-1.3.65-3.31.43,0,0-6.75,3.95-6.43,3.63-1.59,1.6-2.4.35-4.41.13.32-.32,1.25,1.23,1.57.91-1.28,1.28-.91-.27-2.57-.19-.01-.3-5.52-1.75-5.54-2.05-1.62.99-1.07,1.1-3.07,1.18-.01-.31-1.1,3.42-.78,3.1-1.28,1.28-1.26.27-2.94.04l-1.6,1.21c-1.6,1.6.66.83-1.35.61,0-.21,7.55.63,7.83.22-1.22.88-2.7,1.73-4.2,2.07-.01-.31.3-.93.28-1.24-1.28,1.28-3.23,2.28-5.24,2.06.33-.01.64-.64.63-.94-1.6,1.6-3.55,2.6-5.59,1.77v-.05c-1.24,1.07-2.88,2.06-4.56,2.39-.04-.92.61-1.25.61-1.25l-1.33.06c-1.56,2.51,6.04.81,5.51,3.89,0,0-5.06,9.21-9.7,27.51-3.81,15.02-2.88,38.55-2.33,43.42.47,4.22-1.77,12.53-2.09,16.95-1.76,23.97,17.87,47.47,36.99,59.93,7.62,4.96,13.9,2.7,21.19,1.39,14.87-2.67,36.96-12.71,49.54-26.54"/>
    <g>
      <path class="cls-9" d="M1071.24,299.75c2.2,1.02,5.49.66,7.63-.72.47-.3,2.09-.08,1.43.35-2.82,1.82-7.55,2.13-10.39.82-.28-.13-.24-.34.1-.46.36-.13.93-.12,1.23.02"/>
      <path class="cls-9" d="M1081.21,298.75c1.43-.71,3.05-1.12,4.67-1.29.24-.02.55.05.73.2.14.11.18.27,0,.38-.74.44-1.69.65-2.57.66-.28,0-.64-.05-.81-.27-.15-.21.11-.35.33-.36.73-.01,1.46-.17,2.07-.54.24.19.49.38.73.57-1.45.16-2.9.53-4.17,1.17-.25.13-.63.06-.87-.06-.18-.09-.37-.32-.11-.45"/>
      <path class="cls-9" d="M1087.68,298.73c1.9-.11,4.11-.98,5-2.4,1.34-2.13-.11-5.6-2.53-6.85-.26-.14-.13-.33.13-.39.34-.08.75.03,1.02.17,2.11,1.09,3.56,3.97,3.32,5.94-.23,1.84-2.01,3.18-4.26,3.79-.67.18-1.39.31-2.1.35-.29.02-.81-.05-.96-.26-.15-.22.11-.32.38-.34"/>
      <path class="cls-9" d="M1067.72,298.93c.09-.22-.1-.35-.25-.34-.51.03-1.04-.09-1.49-.42-.16.2-.32.41-.48.61,1.03.07,2.08.37,3.02.93.19.11.45.03.61-.11.12-.1.24-.34.05-.45"/>
      <path class="cls-9" d="M1069.17,299.15c-1.05-.63-2.22-.94-3.38-1.02-.17-.01-.38.08-.5.24-.09.12-.11.28.02.37"/>
      <path class="cls-9" d="M1063.77,299.31c-1.24,0-2.72-.76-3.38-2.12-.99-2.06-.22-4.57,1.28-5.95.16-.15.07-.34-.11-.38-.22-.06-.48.07-.65.23-1.31,1.21-2.11,3.13-1.84,5.08.25,1.82,1.48,3.06,2.98,3.54.45.14.92.23,1.38.24.19,0,.52-.09.61-.32.09-.22-.09-.31-.27-.31"/>
    </g>
    <path class="cls-9" d="M1167.4,277.61c1.64-3.9,3.44-7.79,5.75-11.36,1.07-1.66,2.28-3.35,3.84-4.59.23-.18.35-.27.6-.42.31-.19.22-.14.47-.24s-.09,0,.22-.07c.17-.04-.21.04-.01,0,.16-.03.04.02-.03,0,.23.06-.34-.29-.11-.01.44.54,1.02.96,1.46,1.51,2.42,3.04,3.02,6.96,2.26,10.71-.11.52,1.35.29,1.45-.19.74-3.62.25-7.34-1.87-10.42-.52-.75-1.12-1.47-1.83-2.07-.23-.19-.4-.31-.71-.33-.8-.04-1.64.36-2.3.77-1.6,1.01-2.84,2.55-3.93,4.07-2.8,3.92-4.84,8.4-6.71,12.83-.18.43,1.25.27,1.45-.19h0Z"/>
    <path d="M1061.75,245.41c-.17-1.76-.07-.78-.24-2.53l-.02-.31c-11.78-1.72-17.13-1.94-23.59-.34-.14.2-.28.4-.39.62-.03.07-.06.14-.1.2,0,0,0,0,0,0-.01.04-.03.08-.04.11,0,.14,0,.28,0,.42.01.29.04.58.08.87,0,.06.05.33.05.36.02.13.05.26.07.4.1.54.22,1.07.34,1.61,4.55-.35,9.44.42,13.82.74,2.81.21,6,1.13,10.39,1.83-.12-1.33-.24-2.67-.37-4Z"/>
    <path d="M1089.39,242.35c.16,1.75.07.77.24,2.53.13,1.34.25,2.67.39,4,4.91-1.56,8.39-3.1,11.59-3.87,6.34-1.52,13.51-3.95,20.09-3.67,3.15.14,7.67.41,10.11,2.6.65.59,1.98,2.79,3.16,2.21.49-.24-.53-2.32-.63-2.53-2.07-4.2-6.62-5.62-12.07-6.19-11.12-1.16-16.61-.36-32.9,4.61"/>
    <path d="M1048.34,260.41c-1.95-.91-4.15.05-5.36,1.21-.28.27-1.04,1.05-1.36,2.32-.4,1.63.32,3.42,1.37,4.48,1.41,1.42,3.66,1.58,5.35.7,2.29-1.19,2.93-4.03,2.26-6.05-.12-.37-.69-1.92-2.27-2.66"/>
    <path d="M1065.88,266.09s-9.75-6.92-14.59-7.18c-7.07-.39-11.77,2.98-14.11,6.54,0,0,7.42-5.39,12.39-4.98s16.31,5.63,16.31,5.63Z"/>
    <path d="M1103.22,258.74c1.87-1.07,4.14-.31,5.44.74.31.25,1.13.96,1.55,2.2.54,1.59-.02,3.43-.98,4.58-1.28,1.54-3.51,1.89-5.27,1.16-2.38-.99-3.26-3.77-2.77-5.84.09-.38.52-1.98,2.03-2.84"/>
    <path d="M1093.09,265.06s9.76-7.74,14.89-8.46c9.25-1.3,18.1,3.58,20.92,6.91,0,0-13.69-6.37-18.95-5.51-5.02.82-16.85,7.06-16.85,7.06Z"/>
    <path class="cls-3" d="M1048.83,201.44c-.92,8.45-12.64,1.85-6.48-.47-.94-4.03,4.74-5.95,4.39-10.08.27.35.44.63.44.63,0,0-.07-4.98,1.55-6.26,1.61-1.27,8.92-5.37,8.92-5.37l2.34,1.61c-.06-.12-.93-1.71.19-2.75,1.13-1.05,13.5-8.22,21.6-8.07.27,0,.54.01.8.04l3.44,1.6.12.06s-.08-.04-.13-.07c-.61-.32-1.92-1.13-1.3-1.87.22-.26.67-.51,1.47-.73,1.18-.32,2.95-.55,4.88-.7,0,0,0-.02,0-.03.18,0,.37,0,.55-.01.18-.01.36-.03.55-.04,0,0,0,.02,0,.03,1.94-.02,3.72.05,4.92.27.82.15,1.29.36,1.53.6.69.68-.55,1.6-1.13,1.98-.04.03-.09.06-.12.08l.12-.07,3.29-1.89c.26-.05.52-.08.8-.11,8.06-.86,21,5.22,22.22,6.16,1.21.94.48,2.6.42,2.73l2.19-1.81s9.86,3.36,11.57,4.48c1.72,1.13,2.6,3.96,2.6,3.96,0,0,3,.95,4.05.56,1.04-.39,6.67,2.23,9.08,5.4,1.54,2.03,1.11,4.02,1.91,5.83h0c.45,1.02.71,1.69.71,1.69l5.77,1.65c4.66,1.99,3.92,11.44,3.92,11.44,9.44,10.62,10.3,19.97,6.71,30.24-1.38,3.96,9.89,7.4,2.77,7.56-7.22.16-12.18,23.01-12.18,23.01,0,0-6.5-8.53-6.98-12.61-.48-4.08,1-16.29,1-16.29l-3.49-.34s-2.15-.77-4.9-5.29c-2.75-4.53,1.56-12.98,1.56-12.98l1.15-5.04-6.76.76c-6.6-.84-7.28-7.93-7.28-7.93l.62-11.87-3.76,4.14s-1.43,1.94-3.71,1.86c-10.19-.33-11.66-6.6-11.66-6.6l-1.62-5.9-2.5,1.83c-2.63,2.35-10.81,6.16-15.13,4.52-1.13-.43-5.98-3.85-6.76-4.32-2.82-1.87-3.38-5.63-3.49-7.03.38-.4.74-.9,1.1-1.33,1.38-1.64,2.11-1.01.72.64-2.38,2.83-6.45,6.84-10.18,7.17-3.6.31-11.42-.85-12.46-2.48-.69-1.09.45-1.28-.87-1.16-1.15.1-2.1.97-2.8,1.84-1.64,2.06-2.67,5-5.04,6.35-3.44,1.95-5.65.11-9.22-.49-.79-.13-1.87.32-1.97,1.26Z"/>
    <path class="cls-1" d="M1040.12,195.26s-2.76-7.54,1.47-12.12c4.23-4.59,20.43-22.98,49.62-24.29l-51.09,36.41Z"/>
    <path class="cls-4" d="M1181.06,107.84s-12.1-17.98-27.21-14.13c-15.11,3.85-4.32,28.47-4.32,28.47"/>
    <g>
      <path class="cls-18" d="M1169.03,352.63s-20.97,37.81-58.37,33.98c-27.42-2.81-24.95-20.02-24.95-20.02v-6.58s-9.98,3.26-9.98,3.26c0,0-2.18,5.93,2.3,15.85,4.47,9.92,18.69,19.09,42.7,16.83,14.09-1.33,26.88-6.8,42.16-17.91,15.27-11.11,18.74-19.29,18.74-19.29l-12.59-6.12Z"/>
      <path class="cls-25" d="M1168.33,352.55c-1.89,3.41-4.31,6.58-6.78,9.58-5.61,6.81-12.3,12.87-20,17.25-9.92,5.64-21.17,7.99-32.5,6.48-8.33-1.11-18.24-4.33-21.61-12.89-1.44-3.64-1-7.55-1-11.38,0-.54,0-1.09,0-1.63,0-.44-.52-.56-.87-.45-3,.98-5.99,1.96-8.99,2.93-.77.25-1.43.34-1.68,1.17-.41,1.36-.47,2.88-.43,4.29.12,5.18,1.85,10.67,4.83,14.92,2.51,3.58,6.01,6.42,9.83,8.51,10.92,5.98,24.45,6.52,36.5,4.49,13.86-2.33,26.28-9.15,37.54-17.32,5.2-3.77,10.19-7.97,14.4-12.85,1.67-1.94,3.58-4.14,4.61-6.52.05-.11.1-.21.15-.31.12-.27-.04-.46-.28-.58-4.2-2.04-8.39-4.08-12.59-6.12-.61-.29-1.66.58-.83.99,4.2,2.04,8.39,4.08,12.59,6.12l-.28-.58c-.49,1.14-1.23,2.21-1.94,3.22-2.27,3.2-5,6.08-7.88,8.73-4.63,4.26-9.74,8-15,11.43-5.12,3.34-10.49,6.32-16.15,8.63-10.51,4.29-22.18,5.98-33.47,4.68-8.6-.99-17.58-4.01-23.65-10.46-3.27-3.47-5.25-7.82-6.29-12.45-.62-2.77-1.09-6.41-.12-9.09l-.56.42c3.33-1.09,6.66-2.17,9.98-3.26l-.87-.45c0,2.29.09,4.59-.03,6.87-.09,1.68.1,3.36.56,4.98,2.29,8.05,10.25,12.27,17.88,14.07,11.66,2.76,23.92,1.45,34.76-3.63,8.61-4.04,16.15-10.18,22.46-17.25,2.23-2.5,4.32-5.14,6.24-7.89.94-1.34,2.09-2.78,2.76-4.28.03-.07.08-.14.12-.21.4-.71-1.07-.74-1.39-.17Z"/>
    </g>
    <path class="cls-25" d="M1221.27,618.43c-14.67,5.64-29.59,10.65-44.78,14.69-14.76,3.93-29.78,6.94-44.98,8.56-14.72,1.57-29.62,1.83-44.35.22-14.48-1.58-28.75-4.99-42.25-10.48-6.9-2.81-13.58-6.15-19.96-9.99-.78-.47-1.56-.95-2.33-1.43-.48-.3-.61-.09-.72-.45-.19-.59,0-1.54-.01-2.15-.01-2.03-.02-4.06-.04-6.1,0-.44,0-.87,0-1.31l-1.29.47c7.35,3.77,15.1,6.87,22.85,9.7,16.52,6.04,33.78,10.61,51.34,12.24,17.6,1.64,35.34-.56,52.71-3.38,15.85-2.57,31.57-5.92,47.17-9.71,5.54-1.35,11.07-2.76,16.58-4.23,1.75-.47,3.51-.95,5.26-1.43.9-.25,1.91-.41,2.77-.78.11-.05.23-.07.35-.1l-.86-.3c.72,2.19,1.44,4.38,2.16,6.56.22.66,1.66.26,1.45-.39-.72-2.19-1.44-4.38-2.16-6.56-.11-.34-.57-.38-.86-.3-6.55,1.9-13.15,3.61-19.76,5.26-14.93,3.74-29.98,7.08-45.14,9.76-8.5,1.51-17.04,2.8-25.62,3.75s-17.35,1.64-26.04,1.29c-18.16-.72-36.1-4.96-53.24-10.81-9.32-3.18-18.66-6.84-27.44-11.22-.13-.07-.26-.13-.39-.2-.36-.18-1.3-.1-1.29.47,0,1.47.02,2.93.03,4.4,0,1.11.01,2.21.02,3.32,0,.62-.09,1.33.01,1.95.16.92,1.91,1.58,2.68,2.05,1.61.98,3.24,1.93,4.88,2.85,3.23,1.8,6.54,3.48,9.9,5.03,13.41,6.2,27.74,10.27,42.35,12.42,14.78,2.18,29.82,2.39,44.7,1.21,15.43-1.23,30.73-3.96,45.75-7.67,15.51-3.83,30.73-8.73,45.7-14.3,1.85-.69,3.69-1.39,5.53-2.09.93-.36.11-1.13-.64-.84Z"/>
    <path class="cls-9" d="M1168.07,280.3c5.71-.2-1.05,11.01,3.09,10.85,1.13-.04,1.86-.85,2.38-1.76.98-1.72,1.49-3.74,1.92-5.66.54-2.38.76-4.36.41-6.75-.44-2.98-1.62-6.28-4.68-7.41-.34-.13-1.65.42-1.18.59,2.61.96,3.74,3.75,4.25,6.28.32,1.61.53,3.34.26,4.97-.35,2.13-.82,4.27-1.57,6.3-.25.69-.53,1.38-.9,2.01-.12.21-.49.55-.56.77l-.05.05c-.17.14-.03.14.42-.01,0,.04-.27-.18-.27-.19-.16-.37-.35-.59-.4-1.03-.06-.54,0-1.11.07-1.65.15-1.17.4-2.33.54-3.5.12-1.07.26-2.34-.29-3.32-.58-1.04-1.74-1.2-2.83-1.17-.42.01-1.57.66-.61.63h0Z"/>
    <path class="cls-10" d="M1078.3,308.78c9.6-.25,25-.68,25-.68,0,0-1.19,22.2-23.45,22.78-22.26.58-20.28-21.46-20.28-21.46,0,0,9.13-.4,18.73-.64Z"/>
    <path class="cls-22" d="M1078.21,308.79c4.56-.12,22.81-.2,22.81-.2,0,0-5.56,13.78-22.07,14.2-17.9.46-16.36-12.5-16.36-12.5l15.62-1.51Z"/>
    <path class="cls-12" d="M1079.39,309.62c4.56-.12,18.3-.08,18.3-.08,0,0-4.72,4.73-18.41,5.08-13.69.35-16.76-4.05-16.76-4.05l16.87-.95Z"/>
    <path class="cls-10" d="M1058.04,307.73c.48-.15.47-.16,2.7-.45,3.72-.48,5.01-1.87,7.7-2.19,4.6-.54,5.95,1.41,7.96,1.36,2-.05,4.88-2.3,9.5-2,2.71.18,9.29,2.48,13.03,2.77,2.24.17,3.88.36,4.36.49.67.18.62,3.45-24.58,4.1-25.2.65-21.34-3.88-20.68-4.1Z"/>
  </g>
</svg>