<svg xmlns="http://www.w3.org/2000/svg" viewBox="0 0 637.33 635.77"><defs><style>.cls-1{fill:#c1e7f6;}.cls-2{fill:#42221a;}.cls-3{fill:#542f24;}.cls-4{fill:#a56d51;}.cls-5{fill:#d16152;}.cls-6{fill:#812a23;}.cls-7{fill:#cd8c2a;}.cls-8{fill:#12100e;}.cls-9{fill:#b05e27;}.cls-10{fill:#de8b26;}.cls-11{fill:#fff;}.cls-12{fill:#643b29;}.cls-13{fill:#31150d;}.cls-14{fill:#f0edf6;}</style></defs><g id="Layer_1" data-name="Layer 1"><circle class="cls-1" cx="319.06" cy="340.56" r="288.85"/><path class="cls-2" d="M514.45,318.22s1.23,4.95,3.12,6.79,13.82,9.43,13.82,9.43-13.48-6.15-15.32-8.11-1.62-8.83-1.62-8.83"/><path class="cls-3" d="M513,318.61a23.4,23.4,0,0,0,1.72,4.72,9.33,9.33,0,0,0,3.06,3.45c3.08,2.27,6.32,4.35,9.54,6.42L530,335l2.73-1q-4.35-2-8.62-4.15c-1.8-.91-3.61-1.84-5.32-2.92a6.77,6.77,0,0,1-1.39-1.05,5.85,5.85,0,0,1-1.11-2.85,26.08,26.08,0,0,1-.42-5.85c0-.52-2.87-.12-2.9.77a28,28,0,0,0,.28,5c.26,1.79.7,3.52,2.24,4.6a44.74,44.74,0,0,0,5.09,2.89c2,1,4,2,6,3L530,335a2.61,2.61,0,0,0,1.88-.13c.16-.06,1.31-.59.85-.88-2.29-1.46-4.57-2.93-6.82-4.43-1.62-1.07-3.23-2.15-4.81-3.29a10.07,10.07,0,0,1-3.12-2.94,20.75,20.75,0,0,1-2.11-5.45c-.18-.7-3.08.05-2.9.78Z"/><path class="cls-4" d="M501.39,265l-3.91,44.53-3.19,8.07s1.34,23.91,2.25,28.86,13.53,28.95,13.53,28.95l-8.62,26.21,43,5.46s5.57-23.38,8-26.45a26.18,26.18,0,0,0,2.43-15.06c-.39-4.72-1.13-33.12-1.13-33.12s10-34,2.51-33.75a26.27,26.27,0,0,0-5.44,1.43s-5.7,22.17-8.44,23.17L537.76,322s.87-31.95-.1-37.66-3.07-9.37-7.57-9c0,0-2.9,2.1-2.84,3.59s.07,36.89-1.94,36.71-1.87-3.42-1.87-3.42,1-43-.12-45.36a6.53,6.53,0,0,0-7.85-4l-2.9,24.28s-.68-19.68-4.64-22.24A5.36,5.36,0,0,0,501.39,265Z"/><path class="cls-5" d="M548.68,397l-45.11-16.2-20.22,67L457.56,358.5c-3.36-12.54-17.11-31.14-29.36-35.45l-29.89-9.55,23.82,224.07,6,17a44.73,44.73,0,0,0,22.07,23.39c18.42,9,37.55,2.93,51.12-11.77a85.39,85.39,0,0,0,20.5-40.63"/><path class="cls-5" d="M423.76,436.32c.54-19-25.45-122.82-25.45-122.82l-23.06-8-13.06-1.15-1.07-.63a9,9,0,0,0,0,2.49l.19,1.32a46.55,46.55,0,0,1-36.52,23.54,112.15,112.15,0,0,1-15.94.17c-17.4-1.07-30.52-9.48-40.63-23.7l-.2-3.51-25.69,6.37-76.29,22L205,590.07,199,603.59l0,0a289.72,289.72,0,0,0,215.77,9.29,67.52,67.52,0,0,1,.74-9.74C428.57,514.58,423.38,449.57,423.76,436.32Z"/><path class="cls-6" d="M424.46,544.14c1.45-14.43-1.62-11.16,1.69-18.21s32.68-22.77,21.41-64.67C442,440.66,430,383.59,430,383.59s15.54,54.73,19.14,69.32,7.09,41.18-4.3,55.25-13.86,14.3-15.42,17.89-3.11,23.2-3.11,23.2Z"/><path class="cls-6" d="M484.48,447.82s-23.09,53-24.59,72.57l-2.37-4.82S471.22,460.92,484.48,447.82Z"/><path class="cls-2" d="M499.94,307.47l9.81-15.26-1.74.61a5.23,5.23,0,0,1,1.09.52,8.64,8.64,0,0,1,2.4,2c2.7,3.3,2.19,7.54,1.53,11.45a58.1,58.1,0,0,1-2.51,10.25,8.06,8.06,0,0,0-.43,1.12,18,18,0,0,0-.14,2.65l-.39,7.67a.48.48,0,0,0,.25.48,41.24,41.24,0,0,1,16.39,14.85,37.29,37.29,0,0,1,4.63,10.44c.25.91,2.52.3,2.27-.61C530.25,343.27,523,334.5,513.79,329a24.76,24.76,0,0,0-2.2-1.2l.25.48.36-7c0-1.08.07-2.17.16-3.24,0-.28-.1.25,0-.07s.24-.6.35-.89a56.58,56.58,0,0,0,2.61-10.5c.68-4,1.13-8.25-1.4-11.74a9.33,9.33,0,0,0-4.55-3.39,1.69,1.69,0,0,0-1.74.62l-9.81,15.25c-.62,1,1.67.87,2.13.15Z"/><path class="cls-2" d="M521,320.34a39.86,39.86,0,0,1,8.78,1,34.88,34.88,0,0,1,16.61,8.1c.61.56,2.74-.31,2.1-.9a36.18,36.18,0,0,0-17.05-8.41,42.28,42.28,0,0,0-9.57-1.12c-.45,0-1.3.14-1.49.63s.15.72.62.71Z"/><path class="cls-4" d="M361.64,298c-.91-2.91-.1-33.87-.1-33.87l-45.79,7-45.79-7s.91,34.19,0,37.09-27.63,9.24-27.63,9.24,13.95,30.12,73.42,30.12,71.3-30.93,71.3-30.93S362.56,300.87,361.64,298Z"/><path class="cls-2" d="M270.07,265.9c.73.55,6,7.55,6.79,8.09,18.8,13.33,21.6,17,37.84,17.62,16.24-.66,23.21-2.89,40.68-19.18,5.89-5.48,4.59-7.32,5.89-8.33C332.08,264,299.29,265.69,270.07,265.9Z"/><path class="cls-2" d="M268.72,266.45a17,17,0,0,1,2.2,2.58c1,1.29,2.07,2.6,3.13,3.88a16.54,16.54,0,0,0,3.42,3q3.25,2.32,6.49,4.67c5.69,4.08,11.46,8.39,18.33,10.23,7.25,1.94,15,1.79,22.41.6a46,46,0,0,0,20.11-8.84A106.05,106.05,0,0,0,358.17,271a16.6,16.6,0,0,0,3.35-4.7c.2-.45.34-.92.52-1.38a1.93,1.93,0,0,1,.37-.65c.67-.55.07-.94-.56-.94-23.81-.06-47.6.94-71.4,1.49-6.6.15-13.2.27-19.8.32-.56,0-1.63.2-1.92.76s.25.76.76.75c23.81-.17,47.6-1.21,71.41-1.64,6.6-.11,13.19-.18,19.78-.17l-.56-.94a3.79,3.79,0,0,0-1.1,1.8,11.67,11.67,0,0,1-1.63,3.08,38.16,38.16,0,0,1-5.29,5.42c-2,1.82-4,3.6-6.12,5.31-5.61,4.59-11.69,8.55-18.86,10.09a51,51,0,0,1-21.45.14c-6.47-1.42-11.92-5.18-17.23-9-2.27-1.61-4.52-3.25-6.77-4.87a22.71,22.71,0,0,1-4.44-3.52c-1.15-1.36-2.25-2.76-3.36-4.15a18.28,18.28,0,0,0-2.45-2.88C270.68,264.75,268,265.88,268.72,266.45Z"/><path class="cls-4" d="M240.51,174.35s-8.78-13.48-13.76-12.94c-3,.33,4,7.15,4.84,14.87,1.16,10.32-6.48,11.65-4.08,17.5S233,220,241.06,219.15c3.18-.35,6.44-7.4,6.44-7.4S243.12,183.55,240.51,174.35Z"/><path class="cls-7" d="M238.2,212.65c-3.51.38-7,2.46-7.46,6.24a6.13,6.13,0,0,0,1.19,4.4,5.46,5.46,0,0,0,2.88,2,9,9,0,0,0,7.71-1.2c.39-.27.3-.54-.16-.58a2.88,2.88,0,0,0-1.73.46,3.32,3.32,0,0,1-2,.68,6.42,6.42,0,0,1-2.12-.44,4.67,4.67,0,0,1-2.14-1.58,5.93,5.93,0,0,1-.12-7.08,5.38,5.38,0,0,1,1.48-1.37,3.67,3.67,0,0,1,.72-.35c.21-.07-.16,0,.05,0l.32-.08.32-.05a2.55,2.55,0,0,0,1.63-.6c.32-.41-.28-.48-.59-.44Z"/><path class="cls-4" d="M386.77,173.94s7.38-14.3,12.39-14.27c3,0-3.24,7.52-3.32,15.28-.11,10.4,7.62,11,5.82,17s-2.84,26.66-10.92,26.6c-3.2,0-7.15-6.71-7.15-6.71S385.1,183.36,386.77,173.94Z"/><path class="cls-4" d="M397.6,182.38a.13.13,0,0,0,0,.05c-1.79,9-4,18.54-5.5,29.45-4,28.77-12.57,42-32.12,54.69-20.48,13.32-26.62,18.51-44.31,19.17-17.68-.66-23.82-5.85-44.3-19.17-19.54-12.7-28.11-25.92-32.11-54.69-.89-6.42-2-12.35-3.16-18-.84-4.18-1.69-8.2-2.47-12.14a1,1,0,0,0,0-.17.18.18,0,0,1,0,0c-2.82-14.43-4.53-27.76-.66-43.85,4-16.65,17.75-37.31,38.69-50.35h0a82.68,82.68,0,0,1,44-12.72c45.4,0,76.43,36.6,82.77,63.08C402.36,154.1,400.51,167.63,397.6,182.38Z"/><path d="M321.52,219.71a7.87,7.87,0,0,1-8.37-.41c-.52-.37-2.3,0-1.57.58a11.14,11.14,0,0,0,11.4.33c.31-.2.26-.47-.12-.61a1.72,1.72,0,0,0-1.34.11"/><path d="M310.4,219.08a17.5,17.5,0,0,0-6.15-1.53,1.4,1.4,0,0,0-.95.3c-.17.16-.21.37,0,.5a6.75,6.75,0,0,0,3.38.77,1.26,1.26,0,0,0,1-.4c.19-.29-.16-.47-.44-.47a5.34,5.34,0,0,1-2.73-.63l-.92.8a15.87,15.87,0,0,1,5.49,1.39,1.36,1.36,0,0,0,1.13-.13c.22-.13.47-.44.13-.6"/><path d="M302.05,219.34a6.8,6.8,0,0,1-5.59-3c-1.56-2.81-.11-6.15,2.51-7.94.28-.2.13-.45-.16-.52a1.46,1.46,0,0,0-1.11.27,7.27,7.27,0,0,0-3.42,6.74c.32,2.47,2.33,4.19,4.83,4.9a10.13,10.13,0,0,0,2.33.38c.32,0,.89-.1,1-.4s-.13-.42-.43-.43"/><path d="M324,219.08a17.5,17.5,0,0,1,6.15-1.53,1.38,1.38,0,0,1,.94.3c.18.16.22.37,0,.5a6.74,6.74,0,0,1-3.37.77,1.26,1.26,0,0,1-1-.4c-.19-.29.16-.47.44-.47a5.3,5.3,0,0,0,2.72-.63l.93.8a15.92,15.92,0,0,0-5.5,1.39,1.34,1.34,0,0,1-1.12-.13c-.23-.13-.47-.44-.13-.6"/><path d="M332.35,219.34a6.82,6.82,0,0,0,5.6-3c1.55-2.81.1-6.15-2.51-7.94-.29-.2-.14-.45.15-.52a1.48,1.48,0,0,1,1.12.27,7.29,7.29,0,0,1,3.42,6.74c-.33,2.47-2.33,4.19-4.84,4.9a10.13,10.13,0,0,1-2.32.38c-.32,0-.89-.1-1.05-.4s.14-.42.43-.43"/><path class="cls-8" d="M337.14,155.69c0,1.64,0,3.27,0,4.92,0,1.25,0,2.5.05,3.74,4.54-1.07,8.42-1.77,11.36-2.23,6.21-1,9.38-1.46,13-.92a36.75,36.75,0,0,1,8.27,2.36,22.83,22.83,0,0,1,4.35,2.1c3.07,2,4.33,4.31,4.83,4.1s-.3-2.19-.38-2.4a19.51,19.51,0,0,0-6.55-8.28,25.37,25.37,0,0,0-8.4-3.5c-3.57-.82-13.45-1.39-26.56.11"/><path class="cls-8" d="M352.88,175.44c2.13-1.1,4.61-.15,6,1.08A5.48,5.48,0,0,1,360.5,179a5.53,5.53,0,0,1-1.31,5,5.14,5.14,0,0,1-5.9,1,5.68,5.68,0,0,1-2.8-6.61,5,5,0,0,1,2.39-3.06"/><path class="cls-8" d="M336.2,183.11s11.21-8.15,16.94-8.67c8.36-.77,18.66,3.51,21.62,7.34,0,0-13.63-6.4-19.51-5.7C349.64,176.75,336.2,183.11,336.2,183.11Z"/><path class="cls-8" d="M296.76,155.87c0,1.63,0,3.27,0,4.91,0,1.25,0,2.5-.05,3.75-4.54-1.07-8.43-1.78-11.36-2.24-6.21-1-9.39-1.46-13-.91a36.25,36.25,0,0,0-8.26,2.36,21.78,21.78,0,0,0-4.36,2.1c-3.06,2-4.32,4.3-4.82,4.1s.3-2.2.38-2.4a19.35,19.35,0,0,1,6.55-8.28,25.5,25.5,0,0,1,8.4-3.51c3.57-.82,13.45-1.38,26.56.12"/><path class="cls-8" d="M281,175.61c-2.13-1.1-4.62-.14-6,1.09a5.34,5.34,0,0,0-1.62,2.51,5.55,5.55,0,0,0,1.31,5,5.15,5.15,0,0,0,5.91,1,5.7,5.7,0,0,0,2.8-6.62,5.12,5.12,0,0,0-2.39-3.06"/><path class="cls-8" d="M297.7,183.29s-11.21-8.15-16.94-8.68c-8.36-.76-18.66,3.52-21.62,7.35,0,0,13.63-6.4,19.5-5.7C284.26,176.93,297.7,183.29,297.7,183.29Z"/><path class="cls-9" d="M219.87,106.47s37.38-18.24,85.22-12.18,70.83,36.29,78.91,57.84,8.85,43.27,8.85,43.27,11.75,6,20.29-37.84C425.6,93.73,355.77,37.4,340.28,37.4S242.1,35.06,219.87,106.47Z"/><path class="cls-9" d="M228.44,87.83s-8-50.32,26.67-59.76S362.8,1.75,384.15,47.7Z"/><path class="cls-10" d="M226.65,191.2A30.38,30.38,0,0,1,219,178.13c-3.86-13.59-10.6-41.67-4.4-54.13,2.69-5.43,3.78-21.61,4-26.37C220,72.71,214.07,80.33,249.11,52s41.09-20.5,93.64-17.13,67.61,20.39,63.55,69.63c0,0-70.74-20.35-104.09-2.31s-69.29,76.12-66.86,97C235.43,199.92,230.65,195.23,226.65,191.2Z"/><path class="cls-9" d="M212.84,149.06s53.48-68.38,116-69c0,0-80.05-10.43-115.54,47.35Z"/><path class="cls-9" d="M405.85,81.76s-61.8-22.47-85.49-24.41,74.88,1.81,84.34,12.57Z"/><ellipse class="cls-11" cx="317.2" cy="240.46" rx="20.79" ry="4.37"/><path class="cls-7" d="M393.49,214.32a6,6,0,0,1,5.83,4.77,5.79,5.79,0,0,1-.55,3.94,5,5,0,0,1-1,1.43c-.08.07-.18.13-.26.19l-.13.08-.35.21a4.69,4.69,0,0,1-.62.29l-.25.09c.23-.08-.21,0,0,0a3.52,3.52,0,0,1-.41.07,5.3,5.3,0,0,1-3-.73c-.42-.23-1.15,0-1.57.17-.11,0-1.09.46-.74.64a8.22,8.22,0,0,0,6.59.32,7.91,7.91,0,0,0,3.13-1.7,6.25,6.25,0,0,0,.15-8.6,6.9,6.9,0,0,0-5.14-2.1,3.3,3.3,0,0,0-1.73.46c-.37.23-.36.47.13.47Z"/><path class="cls-12" d="M317.68,236.16c-11.95,0-31.32-1.37-31.32-1.37s3.61,23,31.32,23,31.32-23,31.32-23S329.63,236.16,317.68,236.16Z"/><path class="cls-13" d="M317.79,236.16c-5.68,0-28.58-.94-28.58-.94s7.57,12.21,28.12,12.21c22.29,0,28.83-12,28.83-12Z"/><path class="cls-14" d="M318,237c-5.68,0-23-.94-23-.94s6.22,6,23.27,6,22.46-5.87,22.46-5.87Z"/><path class="cls-12" d="M350.26,233.09c-.61-.14-3.92.93-6.74.69-4.7-.39-10.39-1.6-13.8-1.85-5.82-.44-9.51,1.8-12,1.8s-6.22-2.24-12-1.8c-3.41.25-9.1,1.46-13.8,1.85-2.83.24-6.13-.83-6.74-.69-.84.2.79,6.19,32.59,6.19S351.09,233.29,350.26,233.09Z"/><path class="cls-6" d="M381.23,516.3a73.94,73.94,0,0,0-33-6.5c-18.25.87-23.9,3.22-23.9,3.22s24.94-.24,32.16-1.19S381.23,516.3,381.23,516.3Z"/><path class="cls-5" d="M128.77,382.39c-7.63,28.56-18.17,97.17-24.5,151.36a290.39,290.39,0,0,0,68.16,55.79l26.78-103.93-32.46-153.3S142.69,340,128.77,382.39Z"/><path class="cls-6" d="M193.12,509.89c4.54-22.66,7.66-66.43,7.66-66.43,3.31-46.37-14.15-75.38-14.15-75.38S210.2,397.19,204.87,460l-10,63.24Z"/></g></svg>