<svg id="Layer_1" data-name="Layer 1" xmlns="http://www.w3.org/2000/svg" viewBox="0 0 253.07 245.98"><defs><style>.cls-1,.cls-9{fill:#0d3f60;}.cls-1{opacity:0.2;}.cls-11,.cls-12,.cls-13,.cls-14,.cls-2{fill:none;stroke-linecap:round;stroke-miterlimit:10;}.cls-13,.cls-2{stroke:#108ab2;}.cls-2{stroke-width:4.54px;}.cls-3{fill:#a1cbec;}.cls-4{fill:#f9ac1b;}.cls-5{fill:#ffcb04;}.cls-6{fill:#00a0cc;}.cls-7{fill:#56c4cf;}.cls-8{fill:#4f4a47;}.cls-10{fill:#fff;}.cls-11{stroke:#231f20;stroke-width:0.75px;}.cls-12,.cls-14{stroke:#0d3f60;}.cls-12{stroke-width:1.61px;}.cls-13{stroke-width:3.98px;}.cls-14{stroke-width:1.9px;}.cls-15{fill:#5652a2;}</style></defs><ellipse class="cls-1" cx="126.41" cy="234.05" rx="126.66" ry="8.97"/><path class="cls-2" d="M83.22,116s29.47,0,37.32-28.45"/><path class="cls-3" d="M126,94.4c-1.73,2.35-5.73,2.63-8.89.62-2.49-1.57-3.73-4.1-3.32-6.25L116,78.25a1.46,1.46,0,0,1,2-.75c.92.32,1.23.88,1,1.62l-.5,2.95a17,17,0,0,1,1-1.52l4.79-7.62a1.76,1.76,0,0,1,2.33-.16,1.49,1.49,0,0,1,.68,2.06l-2.65,4.7c.46.09.58,0,1,.13L129,74.1a1.78,1.78,0,0,1,2.33-.16A1.5,1.5,0,0,1,132,76l-3.33,5.56c.37.36.24.31.52.71l2.53-3.7a1.77,1.77,0,0,1,2.33-.17c.82.53.85,1.46.22,2.6l-4.2,7.12Z"/><polygon class="cls-4" points="6.55 234.05 14.17 234.05 14.17 201.25 75.48 201.25 75.48 234.05 83.26 234.05 83.26 198.19 83.14 198.19 83.14 191.19 6.55 191.19 6.55 198.28 6.55 234.05"/><path class="cls-5" d="M9,175.58h71.3a8.92,8.92,0,0,1,8.91,8.92h0a8.91,8.91,0,0,1-8.91,8.91H9A8.91,8.91,0,0,1,0,184.5H0A8.92,8.92,0,0,1,9,175.58Z"/><polygon class="cls-4" points="152.14 234.05 159.76 234.05 159.76 201.25 221.07 201.25 221.07 234.05 228.85 234.05 228.85 198.19 228.72 198.19 228.72 191.19 152.14 191.19 152.14 198.28 152.14 234.05"/><path class="cls-5" d="M154.53,175.58h71.31a8.92,8.92,0,0,1,8.91,8.92h0a8.91,8.91,0,0,1-8.91,8.91H154.53a8.91,8.91,0,0,1-8.91-8.91h0A8.92,8.92,0,0,1,154.53,175.58Z"/><rect class="cls-6" x="9.15" y="4.44" width="88.8" height="178.67" rx="32.32" transform="translate(7.26 -3.79) rotate(4.34)"/><polyline class="cls-6" points="63.89 168.95 94.89 228.11 100.06 226.02 81.69 158.24"/><polygon class="cls-7" points="95.15 228.67 85.53 210.63 94.86 206.85 100.54 225.51 95.15 228.67"/><path class="cls-8" d="M95.15,229.07a10.54,10.54,0,1,1,19.53-7.91"/><polyline class="cls-6" points="39.23 177.81 70.23 236.97 75.4 234.88 57.03 167.1"/><polygon class="cls-7" points="70.5 237.53 60.87 219.49 70.2 215.71 75.88 234.37 70.5 237.53"/><path class="cls-8" d="M70.49,237.93A10.54,10.54,0,1,1,90,230"/><path class="cls-9" d="M85.2,59.61a10.29,10.29,0,0,1-11.13,6.92c-8.74-.91-8.86-8.43-8.86-8.43Z"/><path class="cls-10" d="M52.09,48.85a8.8,8.8,0,0,1,17.54,1.34"/><path class="cls-10" d="M83.22,51.22a8.8,8.8,0,1,1,17.54,1.33"/><path class="cls-9" d="M58.63,49.35a3.81,3.81,0,0,1,7.59.58"/><path class="cls-9" d="M88.86,51.65a3.81,3.81,0,1,1,7.59.57"/><ellipse class="cls-11" cx="60.06" cy="47.12" rx="8.13" ry="11.95" transform="translate(9.12 103.98) rotate(-86.26)"/><ellipse class="cls-11" cx="92.69" cy="49.3" rx="8.13" ry="11.95" transform="translate(37.45 138.58) rotate(-86.26)"/><path class="cls-11" d="M71.93,48.71s5.24-5.85,9,.66"/><path class="cls-2" d="M20,113.21s-4.21,24.87,37,32"/><path class="cls-3" d="M60.08,152.25,68.16,154c1.29.23,2.16-.09,2.39-1a1.76,1.76,0,0,0-.88-2.15l-4.32-1.24c.3-.39.29-.25.52-.72l6.32,1.4c.73.24,1.51-.35,1.75-1.3a1.75,1.75,0,0,0-.89-2.15l-6.32-1.4c0-.48-.14-.55-.2-1l5.29,1c.72.24,1.51-.35,1.75-1.29a1.78,1.78,0,0,0-.89-2.16l-8.74-2.14a16.76,16.76,0,0,0-1.76-.44l3-.46c.77,0,1.2-.52,1.21-1.5s-.59-1.73-1.35-1.68L54.32,137c-2.17.28-4.17,2.27-4.88,5.12-.91,3.63.62,7.34,3.39,8.24Z"/><path class="cls-12" d="M99.1,38.56s-3.69-6.25-10.44-1.9"/><path class="cls-12" d="M53.54,36.07s3.17-6.53,10.25-2.73"/><path class="cls-13" d="M150.13,145.43s-16.86,9.44-34.63-3.69"/><ellipse class="cls-6" cx="190.87" cy="126.13" rx="58.85" ry="58.41"/><path class="cls-14" d="M151.43,97.26s3.65-7.38,11.66-3"/><path class="cls-14" d="M197.23,97.32s-2.67-7.53-10.67-3.17"/><path class="cls-9" d="M188,117s-2.51,8-14.85,7.8-13.31-7.8-13.31-7.8Z"/><polyline class="cls-6" points="163.88 171.4 155.62 221.88 160.59 223.13 177.12 174.94"/><path class="cls-3" d="M119,137.28a5.14,5.14,0,0,1-1.16,5.56c-2,2.26-5.13,2.94-7,1.52l-4.59-3.5-.09-.08,0,0L99.9,136a1.2,1.2,0,0,1,.06-1.75,1.42,1.42,0,0,1,1.83-.4l3.37,2.58a5.44,5.44,0,0,1,.49-1.11l-4-3.08a1.2,1.2,0,0,1,.06-1.75,1.42,1.42,0,0,1,1.83-.39l4,3.08a7,7,0,0,1,1-.6L105,130a1.21,1.21,0,0,1,.06-1.75,1.42,1.42,0,0,1,1.83-.39l5.78,4.41a4.36,4.36,0,0,1,.64.35l-.75-1.25a1.45,1.45,0,0,1,.59-1.79h0a1.19,1.19,0,0,1,1.73.13Z"/><polygon class="cls-15" points="160.97 223.05 156.48 215.8 159.31 199.64 168.08 201.98 160.97 223.05"/><path class="cls-8" d="M161.09,223.26c1-4.15-1.81-8.44-6.36-9.58s-9.09,1.29-10.13,5.43"/><polyline class="cls-6" points="182.65 176.11 174.38 226.6 179.36 227.85 195.88 179.66"/><path class="cls-10" d="M178.28,110c0-5.62,4.85-10.17,10.84-10.17S200,104.33,200,110"/><path class="cls-10" d="M148.9,110c0-5.62,4.88-10.17,10.9-10.17s10.9,4.55,10.9,10.17"/><path class="cls-9" d="M149.35,107.07a5.47,5.47,0,0,0,7.53-6.91A10.58,10.58,0,0,0,149.35,107.07Z"/><path class="cls-9" d="M178.65,107.07a5.47,5.47,0,0,0,7.53-6.92A10.58,10.58,0,0,0,178.65,107.07Z"/><path class="cls-13" d="M225.27,142.39s-3.06,19.08-24.38,24.87"/><path class="cls-3" d="M199.53,161.78a5.12,5.12,0,0,1,3.65,4.35c.53,3-.88,5.85-3.14,6.43L194.45,174l-.12,0-.06,0-7.54,1.92c-.6.15-1.2-.35-1.34-1.13a1.44,1.44,0,0,1,.83-1.68l4.1-1a7.22,7.22,0,0,1-.56-1.07l-4.92,1.25c-.59.15-1.19-.35-1.33-1.13a1.42,1.42,0,0,1,.82-1.68l4.92-1.25a6.86,6.86,0,0,1,.13-1.12l-4.24,1.07c-.59.15-1.19-.36-1.33-1.13a1.42,1.42,0,0,1,.83-1.68l7.05-1.79a3.27,3.27,0,0,1,.67-.28l-1.45-.19a1.44,1.44,0,0,1-1-1.58h0c0-.78.56-1.35,1.17-1.27"/><polygon class="cls-15" points="179.95 226.66 175.22 219.88 178.52 201.69 187.44 204.26 179.95 226.66"/><path class="cls-8" d="M179.85,228c1-4.15-1.8-8.43-6.35-9.58s-9.09,1.29-10.13,5.44"/></svg>