<svg id="Layer_1" data-name="Layer 1" xmlns="http://www.w3.org/2000/svg" viewBox="0 0 301.92 234.95"><defs><style>.cls-1{fill:#00a0cc;}.cls-2{fill:#ec1651;}.cls-3{fill:#4f4a47;}.cls-4{fill:#5652a2;}.cls-10,.cls-11,.cls-5,.cls-8{fill:none;stroke-linecap:round;stroke-miterlimit:10;}.cls-5{stroke:#0d3f60;stroke-width:2.17px;}.cls-6{fill:#fff;}.cls-7{fill:#0d3f60;}.cls-8{stroke:#108ab2;stroke-width:5.93px;}.cls-9{fill:#0b4060;}.cls-10{stroke:#0b4060;stroke-width:1.98px;}.cls-11{stroke:#1689b0;stroke-width:4.94px;}.cls-12{fill:#f98e00;}.cls-13{fill:#673118;}.cls-14{fill:#f9b458;}.cls-15{fill:#a1cbec;}.cls-16{fill:#a0caeb;}</style></defs><path class="cls-1" d="M229.65,186.11c12.74.37,12.2-1.43,23.72-2.71,18.44-2.06,33.88-18.68,37.39-36.86,4.7-24.3,5.72-49.95,8.25-74.63,1.2-11.72,3.5-22.7.44-34.5a52.89,52.89,0,0,0-3-8.53c-4.82-10.73-16.35-21.07-26.78-25.2-4.44-1.75-14.6-1.88-19.55-1.33C229.35,4.66,211.78,6.68,191,9.06c-7.61.87-16.25,2-22.21,7.69-6.52,6.22-12.6,14.7-15,23.87-5.5,21.16,5.36,42.45,12,62.17q6.89,20.49,13.77,41c4,11.93,9.36,23.38,18.14,32.41C205.13,183.83,219.69,185.83,229.65,186.11Z"/><polyline class="cls-1" points="72.51 177.82 66.9 227.85 60.71 227.95 52.92 171.92"/><polyline class="cls-1" points="96.73 175.21 91.15 227.42 84.96 227.53 78.93 177.71"/><polygon class="cls-2" points="85.08 233.85 90.92 233.75 93.57 206.25 82.28 206.44 85.08 233.85"/><polygon class="cls-2" points="61.25 234.26 67.09 234.16 68.96 206.67 57.67 206.87 61.25 234.26"/><path class="cls-3" d="M105.78,233.73c-.08-4.53-4.8-8.13-10.55-8S84.89,229.56,85,234.1"/><path class="cls-3" d="M81.43,234.16c-.08-4.54-4.8-8.14-10.54-8s-10.34,3.86-10.26,8.4"/><polyline class="cls-1" points="231.62 167.86 220.47 234.03 215.04 233.89 207.5 167.41"/><polyline class="cls-1" points="264.13 167.63 252.98 233.8 247.55 233.66 240 167.18"/><polygon class="cls-4" points="247.04 234.86 245.28 213.55 256.64 213.86 253.37 234.95 247.04 234.86"/><polygon class="cls-4" points="214.36 232.47 212.71 213.35 223.9 213.66 221.04 232.33 214.36 232.47"/><path class="cls-3" d="M227.18,235a12.83,12.83,0,1,1,25.65,0"/><path class="cls-3" d="M195.67,235a12.83,12.83,0,0,1,25.66,0"/><line class="cls-5" x1="228.88" y1="44.12" x2="210.79" y2="42.74"/><line class="cls-5" x1="170.13" y1="50.96" x2="186.2" y2="45.92"/><path class="cls-6" d="M196.3,62.74c-.64-5.68-6.06-9.74-12.12-9.06s-10.46,5.82-9.82,11.5"/><path class="cls-7" d="M186.15,63.87a4.8,4.8,0,0,0-9.54,1.06"/><path class="cls-6" d="M228.91,59.11c-.63-5.68-6.08-9.73-12.17-9.06s-10.52,5.84-9.89,11.51"/><path class="cls-7" d="M218.77,60.24a4.8,4.8,0,1,0-9.54,1.06"/><path class="cls-7" d="M217.74,50l-.21,0Z"/><path class="cls-7" d="M183.23,53.79l.21,0Z"/><path class="cls-7" d="M187.89,71.42s3.13,8,15.64,6.85,13-8.89,13-8.89Z"/><path class="cls-8" d="M245.87,111.32s-9.78,31.81-51.47,29.38"/><path class="cls-1" d="M1.51,107.57c2.57,27.07,19.62,52,40.24,68.92,53.15,43.72,100.59-31.21,95.56-84.09-3.71-39-38-45.32-71.51-42.14S-2.2,68.53,1.51,107.57Z"/><path class="cls-9" d="M90.07,107.44s3,8.66,13.47,7.38,10.53-9.66,10.53-9.66Z"/><path class="cls-6" d="M127.24,97.84a10.58,10.58,0,0,0-21.06,2"/><path class="cls-6" d="M95.07,100.9a10.58,10.58,0,0,0-21.06,2"/><line class="cls-10" x1="125" y1="82.58" x2="109.57" y2="82.5"/><line class="cls-10" x1="72.97" y1="87.85" x2="86.75" y2="84.16"/><path class="cls-9" d="M87.73,97.56a5.83,5.83,0,0,1-4.06-6.28,11.37,11.37,0,0,1,9.89,4.85A5.82,5.82,0,0,1,87.73,97.56Z"/><path class="cls-9" d="M119.89,94.27A5.85,5.85,0,0,1,115.82,88a11.36,11.36,0,0,1,9.9,4.86A5.85,5.85,0,0,1,119.89,94.27Z"/><path class="cls-11" d="M77,146.71s13.89,14.67,44.4,8.67"/><path class="cls-12" d="M187.38,129.87a113.23,113.23,0,0,1-4.56,17.95,26.34,26.34,0,0,1-1.53,3.43c-1.51,2.88-4.35,3.46-7.11,3.94-.82.16-.57-.43-.38-.84a63.94,63.94,0,0,0,3.06-8A88,88,0,0,0,180,132.22a9.06,9.06,0,0,1,.27-2.49,1,1,0,0,1,1.05-.71c.88,0,1.75,0,2.64,0h0c.88,0,1.76,0,2.65,0C187.24,129,187.53,129.13,187.38,129.87Zm-45.74,25.48c-.18.2-.48.1-.74,0-1-.21-1.94-.42-2.9-.65a7.15,7.15,0,0,1-5-4.25,71.17,71.17,0,0,1-4.13-13.15c-.57-2.36-.95-4.76-1.51-7.12-.19-1,.1-1.23,1-1.2s1.84,0,2.75,0,1.77,0,2.65,0,1.14.3,1.23,1.14a84,84,0,0,0,3.72,17.24,68.39,68.39,0,0,0,2.84,7.19C141.6,154.8,141.9,155.09,141.64,155.35Zm47.78-30c-2.57,0-5.15-.08-7.71-.08-.68,0-1-.12-.94-.94.15-2.5.22-5,.28-7.51,0-1.56,0-1.56-1.57-1.56l-43.69.1c-.34,0-.67,0-1,0-.5,0-.76.22-.74.74.1,2.65.14,5.3.32,8,.09,1.35.12,1.41-1.29,1.41l-7.72,0c-1.62,0-2.28.84-2,2.42.39,2.18.78,4.34,1.22,6.51a90.69,90.69,0,0,0,4.71,16.56c1.5,3.61,3.85,6.22,7.77,7.19a32.57,32.57,0,0,0,6,1,2,2,0,0,1,1.77,1c2.23,3.26,6.8,6.56,10.48,8.22l0,10.62c-.22,4.63-9.22,5.77-9.23,6.81h1.88l20.39,0h2.1c0-1-8.34-1.89-9.41-6.76l0-10.6c3.06-1.77,7.74-5.51,9.64-8.44a1.8,1.8,0,0,1,1.5-.9c1.38-.15,2.76-.4,4.14-.65a11.21,11.21,0,0,0,9.16-7.37c.47-1.24,1-2.46,1.4-3.72a135.66,135.66,0,0,0,4.57-19.68C191.6,126.23,191,125.41,189.42,125.37Z"/><path class="cls-13" d="M146,185.87l21.65,0c1.1,0,2.21,0,3.3,0s2,.05,3.09,0,1.33.31,1.27,1.29c0,2.07,0,4.14,0,6.19,0,.89.17,1.25,1.13,1.21a8.69,8.69,0,0,1,3.05.11l.13,4.18c0,.29-.19.38-.44.39h-.78l-39.58.11c-1,0-1.41-.23-1.26-1.26a9.84,9.84,0,0,0,0-1.33c0-2.16,0-2.16,2.2-2.15,2,0,2,0,2-2,0-1.81,0-3.61-.07-5.42,0-.92.37-1.25,1.25-1.26Z"/><path class="cls-14" d="M144.65,117.2s-2.12,29.75,11,48.59c0,0-10.18-7.26-14-18.67-4.53-13.61-4.39-29.89-4.39-29.89Z"/><path class="cls-15" d="M201.92,132.85c2.1.91,3.55,3.49,3.45,6.57-.14,3.92-2.75,7.22-5.8,7.32L192,147h-.16l-.08,0-10.16.36c-.79,0-1.42-.79-1.38-1.82a1.85,1.85,0,0,1,1.51-1.91l5.54-.2a7.89,7.89,0,0,1-.43-1.52l-6.63.24c-.8,0-1.42-.79-1.38-1.81a1.85,1.85,0,0,1,1.51-1.92l6.64-.23a8.83,8.83,0,0,1,.46-1.4l-5.7.2c-.79,0-1.42-.79-1.38-1.82a1.85,1.85,0,0,1,1.51-1.91l9.5-.34a5.06,5.06,0,0,1,.93-.17l-1.79-.64a1.89,1.89,0,0,1-.88-2.3h0c.26-1,1.1-1.57,1.85-1.3"/><path class="cls-16" d="M119.35,148.75c-1.61,1.14-2.37,3.57-1.73,6.14.81,3.28,3.59,5.59,6.17,5.14l6.39-1.11.13,0h.07l8.62-1.5a1.34,1.34,0,0,0,.84-1.77,1.59,1.59,0,0,0-1.61-1.34l-4.7.82a6.76,6.76,0,0,0,.09-1.36l5.62-1a1.34,1.34,0,0,0,.85-1.77,1.59,1.59,0,0,0-1.62-1.34l-5.62,1a7.91,7.91,0,0,0-.64-1.1l4.83-.84a1.33,1.33,0,0,0,.84-1.77,1.58,1.58,0,0,0-1.61-1.34l-8.06,1.4a3.66,3.66,0,0,0-.81,0l1.39-.86a1.62,1.62,0,0,0,.34-2.09h0a1.33,1.33,0,0,0-1.79-.77"/></svg>