<svg id="Layer_1" data-name="Layer 1" xmlns="http://www.w3.org/2000/svg" viewBox="0 0 348 282.35"><defs><style>.cls-1{fill:#cbe5f7;}.cls-10,.cls-12,.cls-2,.cls-6{fill:none;stroke-linecap:round;stroke-miterlimit:10;}.cls-12,.cls-2{stroke:#198ab1;}.cls-2{stroke-width:4.16px;}.cls-3{fill:#a1cbec;}.cls-4{fill:#0aa0cc;}.cls-5{fill:#fff;}.cls-10,.cls-6{stroke:#0d4060;}.cls-6{stroke-width:1.5px;}.cls-7{fill:#0d4060;}.cls-8{fill:#ea1e52;}.cls-9{fill:#504b48;}.cls-11{fill:#ec1c4e;}.cls-12{stroke-width:2.43px;}</style></defs><polyline class="cls-1" points="0 282.35 0 0 348 0 348 282.35"/><path class="cls-2" d="M217.68,200.54s9.76,3.37,12.16,24.25"/><path class="cls-3" d="M225.84,223.91a4.19,4.19,0,0,1,3.83-2.63c2.45-.21,4.69,1.16,5,3.05l.73,4.66a.31.31,0,0,0,0,.1s0,0,0,0l1,6.29c.08.49-.38.94-1,1a1.16,1.16,0,0,1-1.3-.8l-.54-3.43a5.28,5.28,0,0,1-.91.38l.64,4.1c.08.5-.39.94-1,1a1.17,1.17,0,0,1-1.3-.8l-.64-4.11a5.31,5.31,0,0,1-.9-.18l.55,3.53c.07.49-.39.94-1,1a1.16,1.16,0,0,1-1.3-.8l-.92-5.88a2.78,2.78,0,0,1-.17-.56l-.27,1.16a1.18,1.18,0,0,1-1.36.72h0c-.64-.09-1.06-.57-.95-1.06"/><path class="cls-2" d="M132.55,200.54s-9.76,3.37-12.15,24.25"/><path class="cls-3" d="M124.4,223.91a4.2,4.2,0,0,0-3.83-2.63c-2.45-.21-4.69,1.16-5,3.05l-.72,4.66a.38.38,0,0,0,0,.1l0,0-1,6.29c-.07.49.39.94,1,1a1.17,1.17,0,0,0,1.3-.8l.53-3.43a5.07,5.07,0,0,0,.92.38l-.64,4.1c-.08.5.38.94,1,1a1.16,1.16,0,0,0,1.3-.8l.64-4.11a5.24,5.24,0,0,0,.91-.18l-.55,3.53c-.08.49.38.94,1,1a1.17,1.17,0,0,0,1.31-.8l.91-5.88a2.81,2.81,0,0,0,.18-.56L124,231a1.17,1.17,0,0,0,1.36.72h0c.63-.09,1.06-.57,1-1.06"/><path class="cls-4" d="M129,206.51c0-19.78,9.83-39,22.55-52.68,32.79-35.33,69.31,15.67,69.31,54.32,0,28.52-22.58,35.44-45.18,35.44S129,235,129,206.51Z"/><path class="cls-5" d="M224.93,109.41a31.94,31.94,0,0,1-9.22-1.39c-.91-.26-1.42-.1-1.82.81a24.41,24.41,0,0,1-9.53,10.73,30.46,30.46,0,0,1-12.72,4.51,33.66,33.66,0,0,1-9.82-.19A29.74,29.74,0,0,1,166,116.12a1.14,1.14,0,0,0-1.76-.07A31,31,0,0,1,149,122.17a32.25,32.25,0,0,1-15.44-1.7c-6.82-2.5-12.23-6.75-15.37-13.48a19.31,19.31,0,0,1-1.5-11.7c.21-1.16,0-1.45-1.16-1.63a28.77,28.77,0,0,1-10.31-3.61C98.86,86.37,94.33,81.23,93,73.82a19.72,19.72,0,0,1,3-14.61A26.86,26.86,0,0,1,109.6,48.66,48.42,48.42,0,0,1,116.18,47c.82-.18,1.06-.52.95-1.34-.82-6.16,1.16-11.45,5.07-16.11a26.14,26.14,0,0,1,9.6-7.13,32.78,32.78,0,0,1,18.47-2.53,32.44,32.44,0,0,1,11.15,3.82,1,1,0,0,0,1.57-.33,25.91,25.91,0,0,1,6.85-6.27,31.24,31.24,0,0,1,15-4.77,32.36,32.36,0,0,1,14.32,2.2c6.82,2.78,12.05,7.26,14.9,14.21a13.61,13.61,0,0,1,.74,2.32c.16.73.54.92,1.24.88,2-.11,4-.29,5.94-.22A29.59,29.59,0,0,1,242.5,40.3,20.81,20.81,0,0,1,249,56.9,20.49,20.49,0,0,1,245.32,67c-.79,1.2-.8,1.26.25,2.18a22.67,22.67,0,0,1,6.38,9,19.54,19.54,0,0,1,.66,12.43c-1.93,7.14-6.66,11.93-13.05,15.26A32.46,32.46,0,0,1,224.93,109.41Z"/><path class="cls-5" d="M144.13,130.44a5.85,5.85,0,0,1,11.7,0,5.9,5.9,0,0,1-5.83,5.74A5.83,5.83,0,0,1,144.13,130.44Z"/><path class="cls-5" d="M158.29,141.92a3,3,0,0,1-3-3.07,3,3,0,0,1,3-3,3,3,0,1,1,0,6Z"/><path class="cls-6" d="M158.7,166.84s1.9-5.21,7.59-2.88"/><path class="cls-6" d="M191.18,166.83s-1.19-5.24-6.89-3"/><path class="cls-7" d="M183.29,181.32s-1.52,4.88-9,4.73-8.07-4.73-8.07-4.73Z"/><path class="cls-5" d="M178.6,175.3a6.58,6.58,0,0,1,13.14,0"/><path class="cls-7" d="M182.35,175.3a2.86,2.86,0,1,1,5.71,0"/><path class="cls-5" d="M159.06,175.3a6.62,6.62,0,0,1,13.21,0"/><path class="cls-7" d="M162.81,175.3a2.86,2.86,0,1,1,5.72,0"/><path class="cls-7" d="M159.74,172.17l-3.54-1.4,3.13,2.47c0,.14-.07.27-.1.4l-3.06-.38,2.93,1.23a5.16,5.16,0,0,0,0,.65c1.73-5.48,5.29-6,6-6C162,169.18,160.46,170.68,159.74,172.17Z"/><path class="cls-7" d="M165.07,169.14h0Z"/><path class="cls-7" d="M194.64,173.26l-3.07.38c0-.13-.06-.27-.1-.41l3.13-2.46-3.53,1.4c-.72-1.49-2.22-3-5.33-3,.71,0,4.27.52,6,6a5,5,0,0,0,0-.64Z"/><path class="cls-7" d="M185.74,169.14h0Z"/><polyline class="cls-4" points="181.16 105.09 183.73 88.11 176.3 88.11 178.89 105.58 180.87 104.33"/><polyline class="cls-4" points="168.2 104.19 164.97 88.6 173.03 88.6 170.13 105.09 167.37 104.19"/><polygon class="cls-8" points="167.31 99.65 171.19 99.65 170.25 105.23 167.88 105.23 167.31 99.65"/><polygon class="cls-8" points="177.94 99.87 181.83 99.87 181.25 105.45 178.89 105.45 177.94 99.87"/><path class="cls-9" d="M162.45,105.58a4,4,0,1,1,7.94,0"/><path class="cls-9" d="M178.9,105.58a4,4,0,1,1,7.95,0"/><path class="cls-4" d="M148.38,69.69c0-11.52,5.73-22.71,13.14-30.7,19.11-20.58,40.38,9.14,40.38,31.66,0,16.62-13.15,20.65-26.32,20.65S148.38,86.31,148.38,69.69Z"/><path class="cls-10" d="M165.71,46.58a3.14,3.14,0,0,1,4.42-1.68"/><path class="cls-10" d="M184.64,46.57s-.7-3-4-1.72"/><path class="cls-7" d="M180,54s-.88,2.85-5.24,2.76-4.7-2.76-4.7-2.76Z"/><path class="cls-5" d="M177.3,51.5a3.84,3.84,0,0,1,7.66,0"/><path class="cls-7" d="M179.49,51.5a1.67,1.67,0,0,1,3.33,0"/><path class="cls-5" d="M165.92,51.5a3.86,3.86,0,0,1,7.7,0"/><path class="cls-7" d="M168.1,51.5a1.67,1.67,0,0,1,3.33,0"/><path class="cls-7" d="M166.31,49.68l-2.06-.81,1.83,1.43c0,.09,0,.16-.06.24l-1.79-.22,1.71.72c0,.23,0,.37,0,.37,1-3.19,3.08-3.47,3.5-3.49A3.2,3.2,0,0,0,166.31,49.68Z"/><path class="cls-7" d="M169.42,47.92h0Z"/><path class="cls-7" d="M186.65,50.32l-1.79.22a2.1,2.1,0,0,0-.06-.24l1.83-1.43-2.06.81a3.2,3.2,0,0,0-3.11-1.76c.42,0,2.49.3,3.5,3.49,0,0,0-.14,0-.37Z"/><path class="cls-7" d="M181.46,47.92h0Z"/><path class="cls-11" d="M196.49,68.88a11.17,11.17,0,0,0-8.37-11,11.38,11.38,0,0,0-12.85,5.39,11.34,11.34,0,1,0-18.55,12.88l1.15,1.46,15.62,15.61a2.28,2.28,0,0,0,3.22,0L192.15,78.1C194.82,75,196.49,72.49,196.49,68.88Z"/><path class="cls-12" d="M199.93,69.51s-.94,13.08-9.6,6.2"/><path class="cls-3" d="M192.49,74.58a2.45,2.45,0,0,1-.55,2.65,2.59,2.59,0,0,1-3.33.73l-2.19-1.67s0,0,0,0h0l-3-2.25a.58.58,0,0,1,0-.84.67.67,0,0,1,.87-.18l1.6,1.22a4,4,0,0,1,.23-.53l-1.92-1.46a.58.58,0,0,1,0-.84.68.68,0,0,1,.87-.19L187,72.64a3.14,3.14,0,0,1,.46-.28l-1.65-1.27a.57.57,0,0,1,0-.83.68.68,0,0,1,.87-.19l2.75,2.11a1.11,1.11,0,0,1,.3.17l-.35-.6a.69.69,0,0,1,.28-.85h0a.55.55,0,0,1,.82.06"/><path class="cls-12" d="M150.84,70.31s1.2,13.28,10.76,3.06"/><path class="cls-3" d="M158.82,72.47a2.45,2.45,0,0,0,.41,2.68,2.58,2.58,0,0,0,3.29.89l2.27-1.55,0,0,0,0,3.06-2.09a.57.57,0,0,0,0-.83.68.68,0,0,0-.86-.24l-1.66,1.14a3,3,0,0,0-.21-.54l2-1.36a.56.56,0,0,0,0-.83.68.68,0,0,0-.86-.24l-2,1.37a3.28,3.28,0,0,0-.45-.31l1.72-1.18a.57.57,0,0,0,0-.83.67.67,0,0,0-.86-.23l-2.87,2a1.47,1.47,0,0,0-.31.15l.39-.58a.68.68,0,0,0-.24-.86h0a.55.55,0,0,0-.82,0"/><polyline class="cls-4" points="166.03 266.3 160.49 239.54 174.31 239.54 169.34 267.84 164.6 266.3"/><polygon class="cls-8" points="164.06 256.78 171.44 256.78 169.53 268.08 166.02 267.29 164.06 256.78"/><path class="cls-9" d="M157.15,268.68a6.82,6.82,0,1,1,13.64,0"/><polyline class="cls-4" points="186.57 266.3 192.12 239.54 178.3 239.54 183.26 267.84 188.01 266.3"/><polygon class="cls-8" points="188.54 256.78 181.17 256.78 183.07 268.08 186.58 267.29 188.54 256.78"/><path class="cls-9" d="M195.45,268.68a6.82,6.82,0,1,0-13.64,0"/></svg>