<svg id="Layer_1" data-name="Layer 1" xmlns="http://www.w3.org/2000/svg" viewBox="0 0 348 282.35"><defs><style>.cls-1{fill:#f9da78;}.cls-2{fill:#ffcb05;}.cls-3{fill:#fff;}.cls-14,.cls-4{fill:none;stroke-linecap:round;stroke-miterlimit:10;}.cls-4{stroke:#108ab2;stroke-width:3px;}.cls-5{fill:#a1cbec;}.cls-6{fill:#00a0cc;}.cls-7{fill:#56c4cf;}.cls-8{fill:#4f4a47;}.cls-9{fill:#efb21c;}.cls-10{fill:#f4ebc1;}.cls-11{fill:#261320;}.cls-12{fill:#261503;}.cls-13{fill:#1a1318;}.cls-14{stroke:#0d3f60;stroke-width:0.85px;}.cls-15{fill:#0d3f60;}</style></defs><polyline class="cls-1" points="0.02 281.8 0.02 -0.55 348.02 -0.55 348.02 281.8"/><polyline class="cls-2" points="0.02 282.55 0.02 271.3 348.02 271.3 348.02 282.55"/><path class="cls-3" d="M238.19,140a43,43,0,0,1-12.46-1.88,1.73,1.73,0,0,0-2.46,1.09,32.94,32.94,0,0,1-12.88,14.51,41.13,41.13,0,0,1-17.2,6.1,45.67,45.67,0,0,1-13.26-.26,40.23,40.23,0,0,1-21.39-10.5,1.55,1.55,0,0,0-2.38-.09,41.92,41.92,0,0,1-20.61,8.28,43.8,43.8,0,0,1-20.88-2.3c-9.22-3.38-16.52-9.12-20.76-18.23a26.05,26.05,0,0,1-2-15.81c.27-1.57.07-2-1.58-2.2a39.11,39.11,0,0,1-13.93-4.87c-8.58-5-14.7-11.94-16.49-22A26.68,26.68,0,0,1,64,72.17c4.46-6.91,10.8-11.41,18.34-14.27a64.79,64.79,0,0,1,8.9-2.26c1.11-.25,1.43-.71,1.28-1.82C91.37,45.5,94.05,38.35,99.33,32a35.25,35.25,0,0,1,13-9.63,44.56,44.56,0,0,1,40,1.75,1.39,1.39,0,0,0,2.11-.46,35.05,35.05,0,0,1,9.26-8.46,42.18,42.18,0,0,1,20.32-6.46,43.85,43.85,0,0,1,19.35,3c9.22,3.75,16.29,9.81,20.14,19.21a19,19,0,0,1,1,3.13c.21,1,.72,1.25,1.67,1.2,2.67-.16,5.36-.41,8-.31,10.66.4,20.08,4,27.69,11.61,6.16,6.12,9.34,13.63,8.79,22.45a27.85,27.85,0,0,1-5,13.68c-1.07,1.62-1.08,1.69.34,2.93a30.72,30.72,0,0,1,8.62,12.22,26.5,26.5,0,0,1,.89,16.8c-2.61,9.64-9,16.12-17.64,20.62A44,44,0,0,1,238.19,140Z"/><path class="cls-3" d="M129.64,168.22a6.56,6.56,0,0,1,13.12,0,6.61,6.61,0,0,1-6.53,6.44A6.54,6.54,0,0,1,129.64,168.22Z"/><path class="cls-3" d="M144,181.26a3.4,3.4,0,0,1,0-6.79,3.4,3.4,0,1,1,0,6.79Z"/><path class="cls-4" d="M199.64,223.51s6.48.1,9.21,13.82"/><path class="cls-4" d="M157.65,223.1s-7.11.42-9.5,13.79"/><path class="cls-5" d="M152.22,242.45c.07.33-.22.64-.65.69h0a.79.79,0,0,1-.9-.51l-.15-.78a1.63,1.63,0,0,1-.13.37l-.73,3.92a.77.77,0,0,1-.88.51c-.43-.05-.73-.36-.67-.69l.44-2.35a3.12,3.12,0,0,1-.61.11l-.51,2.74a.79.79,0,0,1-.89.51c-.42-.05-.72-.36-.66-.69l.5-2.73a5.46,5.46,0,0,1-.6-.27l-.42,2.28a.77.77,0,0,1-.89.51c-.43,0-.73-.36-.66-.69l.77-4.19v0a.15.15,0,0,0,0-.07l.57-3.1c.24-1.25,1.76-2.13,3.4-2a2.82,2.82,0,0,1,2.51,1.84Z"/><path class="cls-5" d="M204.9,242.49c-.06.33.24.63.67.68h0a.8.8,0,0,0,.89-.52l.14-.79a2.46,2.46,0,0,0,.14.38l.77,3.9a.76.76,0,0,0,.89.5c.43,0,.72-.36.66-.69l-.47-2.34a4.22,4.22,0,0,0,.62.1l.53,2.72a.78.78,0,0,0,.9.5c.42-.05.72-.36.65-.69l-.53-2.73a3.24,3.24,0,0,0,.6-.27l.45,2.27a.77.77,0,0,0,.89.5c.42,0,.72-.36.66-.69l-.83-4.18v0a.15.15,0,0,0,0-.07L211.9,238c-.25-1.26-1.78-2.12-3.41-1.91A2.79,2.79,0,0,0,206,237.9Z"/><polyline class="cls-6" points="166.63 244.14 170.41 271.02 172.6 271.02 176.38 244.22"/><polyline class="cls-6" points="179.78 244.01 183.56 270.9 185.76 270.9 189.54 244.1"/><polygon class="cls-7" points="172.64 270.31 174.22 262.62 168.95 262.62 170.28 270.2 172.64 270.31"/><polygon class="cls-7" points="185.72 270.31 187.3 262.62 182.03 262.62 183.35 270.2 185.72 270.31"/><path class="cls-8" d="M173,271.15a5.19,5.19,0,1,0-10.38,0"/><path class="cls-8" d="M193.66,271.15a5.19,5.19,0,0,0-10.38,0"/><path class="cls-6" d="M183.13,248.61c-5.11.72-5,0-9.66,0-7.5,0-14.46-6-16.68-13.14-3-9.56-4.54-19.83-6.66-29.64-1-4.65-2.43-9-1.72-13.85a20.65,20.65,0,0,1,.82-3.56,21.7,21.7,0,0,1,9.64-11.33c1.7-.9,5.78-1.41,7.79-1.41,8.46,0,15.62,0,24.08,0,3.1,0,6.62.08,9.27,2.1a21.45,21.45,0,0,1,7.1,8.92c3.16,8.26-.26,17.31-2,25.53q-1.84,8.55-3.7,17.1c-1.07,5-2.71,9.82-5.84,13.84C192.89,246.6,187.12,248.05,183.13,248.61Z"/><path class="cls-9" d="M192.72,134.45s-19.53,6.34-29.35.37c-6.65-4-5.29-9-4.2-12.23.12.13.24.25.37.37a27.26,27.26,0,0,0,6.61,4.87c-1,.69-2,1.7-1.66,2.6a3.62,3.62,0,0,0,5.83,1.11,7.55,7.55,0,0,0,1.84-2.23,24.58,24.58,0,0,0,3.68.09,7.36,7.36,0,0,0,2.15,2.89,3.62,3.62,0,0,0,5.83-1.11c.47-1.22-1.61-2.63-2.59-3.2l.13-.08s8.67-3.75,8.67-18.15c0,0,.69-7.63.08-10.63s1.16-11.87-5.68-9.17c0,0-3.68,2.37-1.69-8.7s6.6-11.7,2.15-24.19l-3.74-9.82-.05-3.43L169,44a6.27,6.27,0,0,1-.61,4c-2.44,3.94-6.47,10.88-6.79,14.28-.46,4.9,2.14,14.86,2.91,18.34s.77,7.91-1.07,9.17c0,0-4.45-3.16-6,1.9s-.82,11.86-1,13.44c-.12,1.17-1.15,7.39.85,12.42-4.36,11.63-3.59,17.31,6.84,21.9s22.58.55,22.58.55Z"/><path class="cls-10" d="M175.76,128.28s0-37.64.73-43.49,3.8-28.46-1.07-28-6.11,8.86-4.57,19.61,2.45,28.62,2,34.47-.77,17.4-.77,17.4Z"/><path class="cls-10" d="M165.1,86.51s-.46,2.85-2,3a32.52,32.52,0,0,1,2.73,14.07c-.16,8.38-.75,17.55,0,18.82s1.26,3.79,2.49,3.79,1.38-11.54,0-22.92S165.1,86.51,165.1,86.51Z"/><path class="cls-10" d="M182.09,87.25s.49,2.84,2,3a32.6,32.6,0,0,0-2.57,14.1c.25,8.38.94,17.54.2,18.81S180.52,127,179.3,127s-1.51-11.52-.25-22.92S182.09,87.25,182.09,87.25Z"/><path class="cls-10" d="M202.09,125.07c-1.15,6.17-2.88,10.48-9.49,13.15-6.09,2.45-7.48,2.15-7.48,2.15s-1.28-.1-1.16-3.66c0,0,9.6-2.76,12-6s2-5.32,2.38-9.47c0,0,1.81-3.85,3.24-1.09C202.35,121.67,202.09,125.07,202.09,125.07Z"/><path class="cls-9" d="M185.18,37.15c0,6.53-7.25,9.84-9.81,9.84-2.76,0-10.45-3.32-10.45-9.84s4.53-7.41,10.13-7.41S185.18,30.63,185.18,37.15Z"/><path class="cls-10" d="M180.63,44.52c0,1.33-3.25,3.46-4.76,3.46s-.72-2.13-.72-3.46a2.76,2.76,0,0,1,5.48,0Z"/><ellipse class="cls-10" cx="175.15" cy="46.3" rx="2.74" ry="2.82"/><path class="cls-10" d="M175.7,44.8c0,1.34.72,3.18-.79,3.18s-4.69-1.85-4.69-3.18a2.76,2.76,0,0,1,5.48,0Z"/><path class="cls-11" d="M176.91,42.71c0,.7-1.15,1.27-1.54,1.27s-1.54-.57-1.54-1.27.69-.91,1.54-.91S176.91,42,176.91,42.71Z"/><path class="cls-11" d="M175.37,44s.14,3.35-2.74,3.39C172.63,47.35,175.94,47.93,175.37,44Z"/><path class="cls-11" d="M175.35,43.81s-.13,3.35,2.74,3.39C178.09,47.2,174.79,47.78,175.35,43.81Z"/><path class="cls-10" d="M179.14,40s-.69-2.3.57-3.39L181,35.47s-2.34-.69-2.73.7S179.14,40,179.14,40Z"/><path class="cls-10" d="M171.5,39.91s.69-2.3-.57-3.39l-1.25-1.09s2.33-.69,2.73.7S171.5,39.91,171.5,39.91Z"/><path class="cls-11" d="M181,36.49a1.68,1.68,0,0,1-1.28,1.32.94.94,0,0,1,0-1.88C180.22,35.93,181,36,181,36.49Z"/><path class="cls-11" d="M171.94,37a.93.93,0,0,1-.91.94,1.69,1.69,0,0,1-1.27-1.32c0-.52.77-.56,1.27-.56A.93.93,0,0,1,171.94,37Z"/><path class="cls-11" d="M171.33,46.71A3,3,0,0,1,170,45.15c-.45-1.47.3-3.2,1-4.54s1.69-2.26,1.33-3.91C172,35.33,169,35.54,169,35.54s4.64-1,4.49,1.21C173.12,42,168.17,42.81,171.33,46.71Z"/><path class="cls-11" d="M179.23,46.38a3.06,3.06,0,0,0,1.29-1.56c.45-1.48-.3-3.2-1-4.54s-1.69-2.26-1.33-3.91c.31-1.37,3.37-1.16,3.37-1.16s-4.64-1.05-4.5,1.2C177.44,41.61,182.39,42.48,179.23,46.38Z"/><path class="cls-12" d="M175.29,35.26c.17,0,.3-.88.3-1.95s-.13-2-.3-2-.3.87-.3,2S175.12,35.26,175.29,35.26Z"/><path class="cls-9" d="M168.4,31.3s-2.58-3.1-5.29-2.26c-2.29.7-2.28,7,2.2,8Z"/><path class="cls-13" d="M165.63,35.65s.41-2.76,2-3.43c.09,0-.77-.8-.82-.84-.66-.38-2.54-.73-3,0a2.62,2.62,0,0,0,0,2.19,3.68,3.68,0,0,0,.64,1C164.51,34.76,165.64,35.61,165.63,35.65Z"/><path class="cls-9" d="M182,31s2.57-3.09,5.28-2.26c2.29.71,2.28,7-2.19,8.05Z"/><path class="cls-13" d="M184.79,35.32s-.41-2.77-1.95-3.44c-.09,0,.77-.8.82-.83.66-.38,2.55-.74,3,0a2.69,2.69,0,0,1,0,2.19,3.91,3.91,0,0,1-.65,1C185.91,34.43,184.79,35.28,184.79,35.32Z"/><ellipse class="cls-11" cx="177.84" cy="32.99" rx="1" ry="0.65" transform="translate(66.27 175.34) rotate(-62.42)"/><ellipse class="cls-11" cx="172.86" cy="32.97" rx="0.65" ry="1" transform="translate(4.37 83.77) rotate(-27.58)"/><path class="cls-11" d="M170.85,32.36c.17-.09.19-.38.05-.63s-.39-.39-.55-.29-.19.38,0,.63S170.69,32.46,170.85,32.36Z"/><path class="cls-11" d="M167.47,39.89c.16-.1.18-.38,0-.64s-.38-.38-.55-.28-.18.38,0,.63S167.3,40,167.47,39.89Z"/><path class="cls-11" d="M169.22,40.86c.17-.1.19-.38.05-.64s-.39-.38-.55-.28-.19.38-.05.63S169.06,41,169.22,40.86Z"/><path class="cls-11" d="M168.21,41.73c.17-.09.19-.38,0-.63s-.39-.39-.55-.29-.19.38-.05.63S168.05,41.83,168.21,41.73Z"/><path class="cls-11" d="M183.52,39.65c.14-.26.12-.54,0-.64s-.41,0-.55.29-.12.54,0,.63S183.38,39.9,183.52,39.65Z"/><path class="cls-11" d="M181.77,40.62c.14-.26.12-.54,0-.64s-.42,0-.56.29a.49.49,0,0,0,.05.64C181.39,41,181.63,40.87,181.77,40.62Z"/><path class="cls-11" d="M182.78,41.49c.14-.25.12-.53-.05-.63s-.41,0-.55.29-.12.54,0,.63S182.64,41.75,182.78,41.49Z"/><path class="cls-11" d="M168.42,54.87c.19-.34.16-.71-.06-.84s-.54,0-.73.38-.16.72.06.84S168.24,55.21,168.42,54.87Z"/><path class="cls-11" d="M171.13,56.53c.28-.52.24-1.1-.1-1.3s-.84.07-1.13.59-.24,1.11.1,1.3S170.84,57.06,171.13,56.53Z"/><path class="cls-11" d="M173.65,52.22c.2-.37.17-.78-.07-.92s-.59.05-.79.42-.18.78.06.92S173.45,52.59,173.65,52.22Z"/><path class="cls-11" d="M167.55,62.91c.29-.52.25-1.1-.09-1.3s-.85.07-1.13.59-.24,1.1.09,1.3S167.27,63.43,167.55,62.91Z"/><path class="cls-11" d="M170.81,52c.14-.26.12-.54,0-.64s-.42,0-.56.29-.11.54,0,.63S170.67,52.22,170.81,52Z"/><path class="cls-11" d="M170.26,49.29c.14-.25.12-.53,0-.63s-.41,0-.55.29-.12.54,0,.63S170.12,49.55,170.26,49.29Z"/><path class="cls-11" d="M165.84,56.49c.14-.26.12-.54,0-.64s-.41,0-.55.29-.12.54,0,.64S165.7,56.74,165.84,56.49Z"/><path class="cls-11" d="M168.71,51.84c.14-.25.12-.53-.05-.63s-.41,0-.55.29-.12.54,0,.63S168.57,52.1,168.71,51.84Z"/><path class="cls-11" d="M180.05,31.78c.14-.26.12-.54,0-.64s-.41,0-.55.29-.12.54,0,.63S179.92,32,180.05,31.78Z"/><path class="cls-11" d="M174.09,31.7c.16-.09.18-.38,0-.63s-.38-.39-.55-.29-.18.38,0,.63S173.92,31.8,174.09,31.7Z"/><path class="cls-11" d="M177,31.6c.14-.25.12-.54-.05-.63s-.41,0-.55.29-.12.53,0,.63S176.82,31.86,177,31.6Z"/><path class="cls-11" d="M168.33,58.66c.14-.26.12-.54,0-.64s-.41,0-.55.29-.12.54,0,.63S168.19,58.91,168.33,58.66Z"/><path class="cls-11" d="M166,76.76c.14-.25.12-.54-.05-.63s-.41,0-.55.28-.12.54.05.64S165.88,77,166,76.76Z"/><path class="cls-11" d="M169.27,81c.14-.25.12-.54,0-.63s-.42,0-.55.28-.12.54,0,.64S169.13,81.27,169.27,81Z"/><path class="cls-11" d="M168.3,88.58c.16-.09.18-.38,0-.63s-.38-.39-.55-.29-.18.38,0,.63S168.13,88.68,168.3,88.58Z"/><path class="cls-11" d="M170.48,101.68c.17-.1.19-.38.05-.64s-.39-.38-.55-.28-.19.38,0,.63S170.32,101.78,170.48,101.68Z"/><path class="cls-11" d="M164.82,59.91c.27-.5.23-1-.09-1.24s-.8.07-1.08.56-.23,1.06.09,1.25S164.55,60.41,164.82,59.91Z"/><path class="cls-11" d="M164,65.17c.37,0,.63-.52.59-1.09s-.38-1-.75-1-.63.52-.59,1.09S163.58,65.2,164,65.17Z"/><path class="cls-11" d="M167.87,67.68c.37,0,.64-.52.59-1.09s-.38-1-.75-1-.63.52-.59,1.09S167.51,67.71,167.87,67.68Z"/><ellipse class="cls-11" cx="164.54" cy="68.42" rx="1.03" ry="0.67" transform="translate(42.46 198.24) rotate(-69.34)"/><ellipse class="cls-11" cx="167.31" cy="71.57" rx="0.67" ry="1.04" transform="translate(-4.97 12.98) rotate(-4.38)"/><ellipse class="cls-11" cx="165.22" cy="73.37" rx="0.67" ry="1.04" transform="translate(-5.12 12.82) rotate(-4.38)"/><path class="cls-11" d="M168.49,78.18c.37,0,.63-.52.59-1.09s-.39-1-.76-1-.63.52-.58,1.09S168.12,78.21,168.49,78.18Z"/><ellipse class="cls-11" cx="166.39" cy="79.81" rx="0.67" ry="1.04" transform="translate(-5.61 12.93) rotate(-4.38)"/><ellipse class="cls-11" cx="169.98" cy="84.08" rx="0.67" ry="1.04" transform="translate(-5.92 13.22) rotate(-4.38)"/><ellipse class="cls-11" cx="167.32" cy="84.68" rx="0.67" ry="1.03" transform="translate(-18.15 56.95) rotate(-18.34)"/><ellipse class="cls-11" cx="170.23" cy="90.61" rx="0.67" ry="1.03" transform="translate(-19.87 58.17) rotate(-18.34)"/><ellipse class="cls-11" cx="169.08" cy="93.72" rx="0.67" ry="1.03" transform="translate(-20.9 57.96) rotate(-18.34)"/><path class="cls-11" d="M171,97.3c.16-.54,0-1.08-.35-1.19s-.77.25-.93.79,0,1.08.35,1.2S170.83,97.85,171,97.3Z"/><path class="cls-11" d="M171.84,103.53c.09-.28,0-.55-.15-.62s-.4.11-.5.39,0,.55.16.62S171.75,103.81,171.84,103.53Z"/><path class="cls-11" d="M170.22,105.56c.16-.1.18-.38.05-.64s-.39-.38-.56-.29-.18.38,0,.64S170.05,105.65,170.22,105.56Z"/><path class="cls-11" d="M171.58,107.4c.09-.28,0-.55-.15-.61s-.4.1-.5.38,0,.55.16.62S171.49,107.68,171.58,107.4Z"/><ellipse class="cls-11" cx="171.87" cy="111.42" rx="0.53" ry="0.34" transform="translate(13.35 241.13) rotate(-72.25)"/><path class="cls-11" d="M170.86,114.13c.16-.09.18-.38,0-.63s-.38-.39-.55-.29-.18.38,0,.63S170.69,114.23,170.86,114.13Z"/><path class="cls-11" d="M171,109.86c.09-.28,0-.56-.15-.62s-.4.11-.5.38,0,.56.16.62S170.9,110.13,171,109.86Z"/><path class="cls-11" d="M171.65,118.9c.1-.28,0-.55-.14-.62s-.4.09-.5.36,0,.55.13.62S171.55,119.17,171.65,118.9Z"/><path class="cls-11" d="M182.21,54.68c.22-.13.25-.51.06-.84s-.51-.51-.73-.39-.25.51-.06.85S182,54.8,182.21,54.68Z"/><path class="cls-11" d="M179.91,56.55c.34-.2.38-.78.09-1.3s-.79-.79-1.13-.59-.38.78-.09,1.3S179.57,56.74,179.91,56.55Z"/><path class="cls-11" d="M177.25,52.64c.24-.14.27-.55.07-.92s-.56-.56-.8-.42-.27.55-.07.92S177,52.78,177.25,52.64Z"/><ellipse class="cls-11" cx="180.77" cy="63.11" rx="0.71" ry="1.08" transform="translate(-8.68 90.84) rotate(-27.57)"/><path class="cls-11" d="M179.28,52.43c.16-.09.18-.38,0-.63s-.38-.39-.55-.29-.18.38,0,.63S179.11,52.53,179.28,52.43Z"/><ellipse class="cls-11" cx="179.57" cy="49.3" rx="0.34" ry="0.53" transform="translate(-2.42 88.73) rotate(-27.58)"/><path class="cls-11" d="M182.42,57.33c.17-.1.19-.38.05-.64s-.39-.38-.55-.29-.19.38,0,.64S182.26,57.42,182.42,57.33Z"/><path class="cls-11" d="M181.38,52.31c.17-.1.19-.38.05-.64s-.39-.38-.55-.28-.19.38,0,.63S181.22,52.4,181.38,52.31Z"/><path class="cls-11" d="M179.93,59.5c.17-.1.19-.38,0-.64s-.39-.38-.55-.29-.19.38-.05.64S179.77,59.59,179.93,59.5Z"/><path class="cls-11" d="M182.25,77.6c.16-.09.18-.38,0-.63s-.38-.39-.55-.29-.18.38,0,.63S182.08,77.7,182.25,77.6Z"/><path class="cls-11" d="M179,81.86c.17-.1.19-.38,0-.64s-.39-.38-.55-.28-.19.38-.05.63S178.83,82,179,81.86Z"/><path class="cls-11" d="M180,88.84c.14-.25.12-.54,0-.63s-.42,0-.56.29-.11.54,0,.63S179.83,89.1,180,88.84Z"/><path class="cls-11" d="M178.52,101.94c.14-.25.11-.54-.05-.63s-.41,0-.55.29-.12.53,0,.63S178.38,102.2,178.52,101.94Z"/><path class="cls-11" d="M184,61c.33-.19.37-.75.09-1.25s-.75-.75-1.07-.56-.37.74-.09,1.24S183.65,61.21,184,61Z"/><path class="cls-11" d="M185.24,65.12c0-.57-.22-1.06-.59-1.09s-.7.41-.75,1,.22,1.06.59,1.09S185.19,65.69,185.24,65.12Z"/><ellipse class="cls-11" cx="180.65" cy="67.58" rx="1.04" ry="0.67" transform="translate(99.48 242.54) rotate(-85.62)"/><path class="cls-11" d="M184.28,69.94c.34-.15.45-.69.24-1.22s-.66-.85-1-.7-.45.69-.24,1.22S183.94,70.08,184.28,69.94Z"/><ellipse class="cls-11" cx="180.4" cy="72.12" rx="1.04" ry="0.67" transform="translate(94.72 246.49) rotate(-85.62)"/><path class="cls-11" d="M183.17,74c0-.58-.22-1.06-.59-1.09s-.7.4-.75,1,.22,1.06.59,1.09S183.12,74.55,183.17,74Z"/><ellipse class="cls-11" cx="179.31" cy="77.69" rx="1.04" ry="0.67" transform="translate(88.15 250.55) rotate(-85.62)"/><path class="cls-11" d="M182,80.42c0-.57-.21-1.06-.58-1.09s-.71.4-.75,1,.21,1,.58,1.09S182,81,182,80.42Z"/><path class="cls-11" d="M178.4,84.69c0-.57-.21-1.06-.58-1.09s-.71.41-.75,1,.21,1.06.58,1.09S178.36,85.26,178.4,84.69Z"/><path class="cls-11" d="M181,85.47c.18-.54.05-1.08-.3-1.21s-.78.2-1,.74-.05,1.08.3,1.21S180.85,86,181,85.47Z"/><ellipse class="cls-11" cx="177.86" cy="91.16" rx="1.03" ry="0.67" transform="translate(35.36 231.3) rotate(-71.66)"/><ellipse class="cls-11" cx="179.01" cy="94.27" rx="1.03" ry="0.67" transform="translate(33.2 234.52) rotate(-71.66)"/><ellipse class="cls-11" cx="178.1" cy="97.66" rx="0.67" ry="1.03" transform="translate(-19.75 51.7) rotate(-15.66)"/><path class="cls-11" d="M177.1,104.47c.18-.07.25-.34.15-.62s-.31-.45-.49-.39-.25.34-.15.62S176.92,104.53,177.1,104.47Z"/><path class="cls-11" d="M178.41,105.82c.14-.26.12-.54,0-.64s-.41,0-.55.29-.12.54,0,.63S178.28,106.07,178.41,105.82Z"/><path class="cls-11" d="M177.36,108.34c.18-.06.25-.34.16-.61s-.32-.45-.5-.39-.24.34-.15.62S177.18,108.4,177.36,108.34Z"/><path class="cls-11" d="M176.75,112.47c.18-.06.25-.34.15-.61s-.31-.45-.49-.39-.25.34-.15.62S176.57,112.54,176.75,112.47Z"/><path class="cls-11" d="M177.42,114.4c.14-.26.12-.54,0-.64s-.41,0-.55.29-.12.54.05.64S177.28,114.65,177.42,114.4Z"/><ellipse class="cls-11" cx="177.78" cy="110.29" rx="0.34" ry="0.53" transform="translate(-25.16 59.46) rotate(-17.75)"/><path class="cls-11" d="M176.94,119.44c.18-.07.24-.34.14-.62s-.33-.43-.51-.36-.24.35-.13.62S176.77,119.51,176.94,119.44Z"/><ellipse class="cls-11" cx="161.36" cy="91.25" rx="0.7" ry="0.46" transform="translate(5.79 192.07) rotate(-62.43)"/><ellipse class="cls-11" cx="164.18" cy="100.73" rx="1.08" ry="0.71" transform="translate(-1.11 199.64) rotate(-62.43)"/><ellipse class="cls-11" cx="161.73" cy="99.17" rx="1.08" ry="0.71" transform="translate(-1.03 196.64) rotate(-62.43)"/><ellipse class="cls-11" cx="158.88" cy="92.92" rx="0.53" ry="0.34" transform="translate(2.96 190.73) rotate(-62.42)"/><path class="cls-11" d="M163.13,95.27c.14-.26.12-.54,0-.64s-.41,0-.55.29-.12.54.05.64S163,95.52,163.13,95.27Z"/><path class="cls-11" d="M160.81,113.38c.14-.26.12-.54-.05-.64s-.41,0-.55.29-.12.54,0,.63S160.67,113.63,160.81,113.38Z"/><ellipse class="cls-11" cx="163.76" cy="117.46" rx="0.53" ry="0.34" transform="translate(-16.16 208.24) rotate(-62.42)"/><path class="cls-11" d="M163.09,125.19c.16-.1.18-.38,0-.63s-.38-.39-.55-.29-.18.38,0,.63S162.92,125.29,163.09,125.19Z"/><ellipse class="cls-11" cx="159.03" cy="96.18" rx="1.03" ry="0.68" transform="translate(0.15 192.61) rotate(-62.42)"/><ellipse class="cls-11" cx="158.66" cy="100.75" rx="0.67" ry="1.04" transform="translate(-7.23 12.4) rotate(-4.38)"/><ellipse class="cls-11" cx="161.86" cy="103.26" rx="0.67" ry="1.04" transform="translate(-7.41 12.65) rotate(-4.38)"/><ellipse class="cls-11" cx="158.6" cy="105.04" rx="1.03" ry="0.67" transform="translate(4.36 216.38) rotate(-69.34)"/><ellipse class="cls-11" cx="161.74" cy="107.8" rx="0.67" ry="1.04" transform="translate(-7.76 12.66) rotate(-4.38)"/><ellipse class="cls-11" cx="158.91" cy="109.23" rx="0.67" ry="1.04" transform="translate(-7.87 12.45) rotate(-4.38)"/><ellipse class="cls-11" cx="163.2" cy="113.75" rx="0.67" ry="1.04" transform="translate(-8.21 12.79) rotate(-4.38)"/><ellipse class="cls-11" cx="161.19" cy="116.42" rx="0.67" ry="1.04" transform="translate(-8.42 12.64) rotate(-4.38)"/><ellipse class="cls-11" cx="159.03" cy="119.56" rx="0.67" ry="1.04" transform="translate(-8.66 12.49) rotate(-4.38)"/><ellipse class="cls-11" cx="156.63" cy="125.17" rx="0.67" ry="1.04" transform="translate(-9.1 12.32) rotate(-4.38)"/><path class="cls-11" d="M157.39,131c.37,0,.63-.52.58-1.09s-.38-1-.75-1-.63.52-.58,1.09S157,131,157.39,131Z"/><ellipse class="cls-11" cx="158.24" cy="133.83" rx="0.67" ry="1.04" transform="translate(-9.75 12.47) rotate(-4.38)"/><ellipse class="cls-11" cx="161.86" cy="134.87" rx="0.67" ry="1.04" transform="translate(-9.82 12.75) rotate(-4.38)"/><ellipse class="cls-11" cx="163.77" cy="137.74" rx="0.67" ry="1.04" transform="translate(-10.04 12.9) rotate(-4.38)"/><ellipse class="cls-11" cx="167.06" cy="137.74" rx="0.67" ry="1.04" transform="translate(-10.03 13.15) rotate(-4.38)"/><path class="cls-11" d="M169.62,140.85c.37,0,.63-.52.59-1.09s-.39-1-.75-1-.64.52-.59,1.09S169.25,140.88,169.62,140.85Z"/><path class="cls-11" d="M172.3,139.81c.37,0,.63-.52.59-1.09s-.38-1-.75-1-.63.52-.59,1.09S171.93,139.84,172.3,139.81Z"/><path class="cls-11" d="M175.64,140.85c.37,0,.63-.52.58-1.09s-.38-1-.75-1-.63.52-.58,1.09S175.27,140.88,175.64,140.85Z"/><path class="cls-11" d="M179.76,139.81c.36,0,.63-.52.58-1.09s-.38-1-.75-1-.63.52-.59,1.09S179.39,139.84,179.76,139.81Z"/><ellipse class="cls-11" cx="162.11" cy="121.3" rx="0.67" ry="1.03" transform="translate(-29.93 57.17) rotate(-18.34)"/><ellipse class="cls-11" cx="164.14" cy="110.29" rx="0.67" ry="1.03" transform="translate(-26.37 57.25) rotate(-18.34)"/><ellipse class="cls-11" cx="158" cy="113.21" rx="0.67" ry="1.03" transform="translate(-27.6 55.47) rotate(-18.34)"/><path class="cls-11" d="M185.89,91.25c.22-.13.24-.5.06-.84s-.51-.51-.73-.38-.25.5-.06.84S185.67,91.38,185.89,91.25Z"/><ellipse class="cls-11" cx="182.74" cy="100.12" rx="0.71" ry="1.08" transform="translate(-25.59 95.95) rotate(-27.57)"/><ellipse class="cls-11" cx="185.18" cy="98.55" rx="0.71" ry="1.08" transform="translate(-24.59 96.9) rotate(-27.57)"/><path class="cls-11" d="M188.29,92.77c.16-.09.18-.38,0-.63s-.38-.39-.55-.29-.18.38,0,.63S188.12,92.87,188.29,92.77Z"/><path class="cls-11" d="M184.34,94.94c.16-.09.19-.38,0-.63s-.39-.39-.55-.29-.19.38-.05.63S184.18,95,184.34,94.94Z"/><path class="cls-11" d="M186.65,113.05c.17-.1.19-.38,0-.64s-.39-.38-.55-.28-.19.38-.05.63S186.49,113.14,186.65,113.05Z"/><path class="cls-11" d="M183.4,117.31c.17-.1.19-.38,0-.64s-.39-.38-.55-.29-.19.38-.05.64S183.24,117.4,183.4,117.31Z"/><path class="cls-11" d="M184.38,124.29c.14-.26.12-.54,0-.64s-.41,0-.55.29-.12.54.05.63S184.24,124.54,184.38,124.29Z"/><ellipse class="cls-11" cx="187.89" cy="95.57" rx="0.68" ry="1.03" transform="translate(-22.9 97.84) rotate(-27.58)"/><path class="cls-11" d="M188.92,100.19c0-.57-.22-1-.59-1.09s-.7.41-.75,1,.22,1.06.59,1.09S188.87,100.77,188.92,100.19Z"/><ellipse class="cls-11" cx="185.06" cy="102.64" rx="1.04" ry="0.67" transform="translate(68.59 279.33) rotate(-85.62)"/><ellipse class="cls-11" cx="188.31" cy="104.43" rx="0.67" ry="1.03" transform="translate(-24.73 73.16) rotate(-20.66)"/><path class="cls-11" d="M185.84,107.25c0-.57-.22-1.06-.59-1.09s-.7.4-.75,1,.22,1.06.59,1.09S185.79,107.82,185.84,107.25Z"/><ellipse class="cls-11" cx="188" cy="108.62" rx="1.04" ry="0.67" transform="translate(65.35 287.78) rotate(-85.62)"/><path class="cls-11" d="M184.39,113.2c0-.57-.22-1.06-.59-1.09s-.7.41-.75,1,.22,1,.59,1.09S184.34,113.77,184.39,113.2Z"/><path class="cls-11" d="M186.4,115.87c0-.57-.22-1.06-.59-1.09s-.7.4-.75,1,.22,1.06.59,1.09S186.35,116.44,186.4,115.87Z"/><path class="cls-11" d="M188.55,119c0-.57-.21-1.06-.58-1.09s-.71.4-.75,1,.21,1.06.58,1.09S188.51,119.58,188.55,119Z"/><path class="cls-11" d="M185.45,120.91c.18-.54.05-1.08-.3-1.21s-.78.21-1,.75-.05,1.08.3,1.2S185.26,121.45,185.45,120.91Z"/><path class="cls-11" d="M183.42,109.91c.18-.54.05-1.08-.3-1.21s-.78.2-1,.74-.05,1.08.3,1.21S183.23,110.45,183.42,109.91Z"/><ellipse class="cls-11" cx="188.93" cy="112.59" rx="1.03" ry="0.67" transform="translate(22.61 256.49) rotate(-71.66)"/><path class="cls-11" d="M201.59,119.88c-2.22-2.14-3.24,1.09-3.24,1.09a57.09,57.09,0,0,1-.86,7.11l3.69,1.22a16.52,16.52,0,0,0,1.28-4.53S202.81,121.06,201.59,119.88Z"/><path class="cls-11" d="M184,140.7s-.55-2.72.44-2.56,1.53,2.19,1.53,2.19Z"/><path class="cls-11" d="M192.05,135.16c-.82-.13-.28,2.5-.07,3.39.49-.12,1.1-.29,1.84-.53C193.59,137.31,192.86,135.3,192.05,135.16Z"/><path class="cls-11" d="M190.6,139c-.66-1.11-1.77-2.7-2.67-2.59s-.29,2.37.17,3.56q1-.36,2.28-.87Z"/><path class="cls-11" d="M194,133.59c-.58.82.67,2.46,1.44,3.33a15.74,15.74,0,0,0,1.76-1.15C196.28,134.67,194.58,132.76,194,133.59Z"/><path class="cls-11" d="M199.56,132.84c-1-1-2.52-2.2-2.73-1.15s.61,2.17,1.3,3A11.74,11.74,0,0,0,199.56,132.84Z"/><line class="cls-14" x1="168.02" y1="191.32" x2="173.9" y2="190.7"/><line class="cls-14" x1="189.46" y1="191.61" x2="183.8" y2="190.98"/><path class="cls-15" d="M184,202.64s-1,3.24-6,3.14-5.36-3.14-5.36-3.14Z"/><path class="cls-3" d="M180.91,198.64a4.38,4.38,0,0,1,8.74,0"/><path class="cls-15" d="M183.41,198.64a1.9,1.9,0,1,1,3.79,0"/><path class="cls-3" d="M167.93,198.64a4.4,4.4,0,0,1,8.78,0"/><path class="cls-15" d="M170.42,198.64a1.9,1.9,0,0,1,3.8,0"/><path class="cls-15" d="M171.92,194.55h0Z"/><path class="cls-15" d="M185.66,194.55h0Z"/></svg>