<svg id="Layer_1" data-name="Layer 1" xmlns="http://www.w3.org/2000/svg" viewBox="0 0 348 282.35"><defs><style>.cls-1{fill:#f9da78;}.cls-2{fill:#ffcb05;}.cls-3{fill:#fff;}.cls-4{fill:#959799;}.cls-5{fill:#b0b4b7;}.cls-6{fill:#f4eddf;}.cls-7{fill:#bcbfc1;}.cls-8{fill:#ced6dc;}.cls-9{fill:#c2c8cc;}.cls-10{fill:#0a0a0a;}.cls-11,.cls-18{fill:none;stroke-linecap:round;stroke-miterlimit:10;}.cls-11{stroke:#108ab2;stroke-width:2.79px;}.cls-12{fill:#a1cbec;}.cls-13{fill:#00a0cc;}.cls-14{fill:#56c4cf;}.cls-15{fill:#4f4a47;}.cls-16{fill:#0d3f60;}.cls-17{fill:#0b4366;}.cls-18{stroke:#0b4366;stroke-width:0.93px;}</style></defs><polyline class="cls-1" points="0 283.07 0 0.72 348 0.72 348 283.07"/><polyline class="cls-2" points="0 281.82 0 270.57 348 270.57 348 281.82"/><path class="cls-3" d="M238.17,141.29a43.15,43.15,0,0,1-12.46-1.88,1.73,1.73,0,0,0-2.46,1.09A33,33,0,0,1,210.37,155a41.14,41.14,0,0,1-17.19,6.1,45.74,45.74,0,0,1-13.27-.26,40.23,40.23,0,0,1-21.39-10.5,1.55,1.55,0,0,0-2.38-.09,41.92,41.92,0,0,1-20.6,8.28,43.83,43.83,0,0,1-20.89-2.3c-9.21-3.39-16.52-9.12-20.76-18.23a26.06,26.06,0,0,1-2-15.81c.27-1.57.07-2-1.58-2.2a39.18,39.18,0,0,1-13.93-4.87c-8.58-5-14.7-11.94-16.49-21.95a26.68,26.68,0,0,1,4.08-19.74C68.4,66.53,74.75,62,82.28,59.17a65.16,65.16,0,0,1,8.9-2.26c1.11-.25,1.43-.71,1.28-1.82C91.35,46.77,94,39.62,99.32,33.31a35.21,35.21,0,0,1,13-9.63,44.56,44.56,0,0,1,40,1.75,1.39,1.39,0,0,0,2.11-.46,34.89,34.89,0,0,1,9.26-8.46A42.18,42.18,0,0,1,184,10.05a43.85,43.85,0,0,1,19.35,3c9.23,3.75,16.29,9.81,20.15,19.21a19,19,0,0,1,1,3.13c.21,1,.72,1.25,1.67,1.2,2.67-.16,5.36-.41,8-.31,10.66.4,20.09,4,27.7,11.61,6.15,6.12,9.33,13.63,8.78,22.45a27.85,27.85,0,0,1-5,13.68c-1.07,1.62-1.08,1.69.34,2.93a30.65,30.65,0,0,1,8.62,12.22,26.5,26.5,0,0,1,.9,16.8c-2.62,9.64-9,16.12-17.65,20.62A44,44,0,0,1,238.17,141.29Z"/><path class="cls-3" d="M129.62,169.49a6.56,6.56,0,1,1,6.59,6.46A6.54,6.54,0,0,1,129.62,169.49Z"/><path class="cls-3" d="M144,182.52a3.39,3.39,0,0,1,0-6.78,3.39,3.39,0,1,1,0,6.78Z"/><rect class="cls-4" x="136.38" y="119.95" width="12.57" height="19.79"/><rect class="cls-4" x="179.18" y="119.89" width="12.57" height="19.79"/><path class="cls-5" d="M203.86,94.07c0-21.12-18.94-38.24-42.3-38.24-21.83,0-39.79,15-42,34.14h-.24v51.89h19V126a45.39,45.39,0,0,0,23.3,6.32,46.77,46.77,0,0,0,5.05-.27v9.81h19V125.55C196.63,118.64,203.86,107.12,203.86,94.07Z"/><path class="cls-6" d="M202.39,97.9s.83,10.7,8.83,10.13c0,0-.48,3-4.29,2.08s-9.41-4.1-10.26-12.4Z"/><path class="cls-6" d="M173.7,97.9s-.83,10.7-8.83,10.13c0,0,.48,3,4.3,2.08s9.4-4.1,10.25-12.4Z"/><path class="cls-7" d="M181.68,70.84c0,14.84-6.61,26.87-19,26.87s-26-19.33-26-34.17S146.77,44,159.19,44,181.68,56,181.68,70.84Z"/><path class="cls-7" d="M193.87,72.38c0,14.84,6.61,26.87,19,26.87s25.95-18.56,25.95-33.4S228.78,45.5,216.36,45.5,193.87,57.53,193.87,72.38Z"/><path class="cls-8" d="M215.07,72c0,17.39-16.73,31.49-27.06,31.49-11.59,0-26.68-14.1-26.68-31.49S172.43,47,188,47,215.07,54.61,215.07,72Z"/><path class="cls-8" d="M205.12,118l0-.13s-12.33-1.38-11.36-16.58l-11.67-.38s-.07,26.26,23.87,26.26c2.22,0,3.83-3,3.25-5.48S207.24,117.62,205.12,118Z"/><path class="cls-9" d="M161,73.28s17.55-5.94,18.44,2,2.64,27.16,2.64,27.16S160.39,94.17,161,73.28Z"/><path class="cls-9" d="M215.05,73.28s-17.94-5.94-18.82,2-2.65,27.16-2.65,27.16S215.64,94.17,215.05,73.28Z"/><circle class="cls-10" cx="172.15" cy="79.32" r="2.02"/><circle class="cls-10" cx="201.65" cy="79.32" r="2.02"/><ellipse class="cls-9" cx="206.63" cy="122.6" rx="3.05" ry="4.58"/><path class="cls-9" d="M199.64,117.52a5.37,5.37,0,0,0-1,6.8"/><path class="cls-9" d="M197.23,115.89a5.36,5.36,0,0,0-1.57,6.69"/><path class="cls-9" d="M195.47,114.29a5.37,5.37,0,0,0-3.49,5.92"/><path class="cls-5" d="M119.51,90s-6.16,3.17-6.89,16.27"/><path class="cls-11" d="M199.62,222.78s6.49.1,9.21,13.82"/><path class="cls-11" d="M157.63,222.37s-7.11.42-9.49,13.79"/><path class="cls-12" d="M152.21,241.72c.06.33-.23.64-.66.69h0a.78.78,0,0,1-.89-.51l-.16-.78a1.63,1.63,0,0,1-.13.37l-.72,3.92a.78.78,0,0,1-.89.51c-.43,0-.73-.36-.67-.69l.44-2.35a3.12,3.12,0,0,1-.61.11l-.51,2.73a.77.77,0,0,1-.88.51c-.43,0-.73-.35-.67-.68l.51-2.73a4.88,4.88,0,0,1-.61-.27l-.42,2.28a.78.78,0,0,1-.89.51c-.42-.05-.72-.36-.66-.69l.77-4.19a0,0,0,0,0,0,0,.15.15,0,0,0,0-.07l.58-3.1c.23-1.26,1.76-2.13,3.39-1.95a2.82,2.82,0,0,1,2.51,1.84Z"/><path class="cls-12" d="M204.89,241.76c-.07.33.23.63.66.68h0a.8.8,0,0,0,.89-.52l.15-.79a1.71,1.71,0,0,0,.13.38l.77,3.9a.77.77,0,0,0,.89.5c.43,0,.72-.36.66-.69l-.46-2.34a5.55,5.55,0,0,0,.61.1l.54,2.72a.76.76,0,0,0,.89.5c.43,0,.72-.36.66-.69l-.54-2.73a4.06,4.06,0,0,0,.6-.27l.45,2.27a.77.77,0,0,0,.89.5c.43-.05.72-.37.66-.69l-.83-4.18a0,0,0,0,0,0,0,.15.15,0,0,0,0-.07l-.61-3.1c-.25-1.25-1.78-2.11-3.41-1.91a2.82,2.82,0,0,0-2.49,1.87Z"/><polyline class="cls-13" points="166.61 243.41 170.39 270.29 172.59 270.29 176.37 243.49"/><polyline class="cls-13" points="179.77 243.28 183.55 270.17 185.74 270.17 189.53 243.37"/><polygon class="cls-14" points="172.62 269.58 174.2 261.89 168.93 261.89 170.26 269.47 172.62 269.58"/><polygon class="cls-14" points="185.7 269.58 187.28 261.89 182.01 261.89 183.34 269.47 185.7 269.58"/><path class="cls-15" d="M173,270.42a5.19,5.19,0,0,0-10.38,0"/><path class="cls-15" d="M193.64,270.42a5.19,5.19,0,1,0-10.37,0"/><path class="cls-13" d="M183.11,247.88c-5.11.72-5,0-9.66,0-7.5,0-14.45-6-16.68-13.14-3-9.56-4.53-19.83-6.66-29.64-1-4.65-2.42-9-1.72-13.85a19.76,19.76,0,0,1,10.46-14.89c1.7-.9,5.78-1.41,7.8-1.41,8.46,0,15.61,0,24.07.05,3.1,0,6.62.08,9.27,2.09a21.47,21.47,0,0,1,7.1,8.93c3.16,8.26-.25,17.31-2,25.53q-1.86,8.55-3.7,17.1c-1.08,5-2.72,9.82-5.85,13.84C192.87,245.86,187.1,247.32,183.11,247.88Z"/><path class="cls-16" d="M171.91,193.22h0Z"/><path class="cls-16" d="M186,193.21h0Z"/><path class="cls-3" d="M176.34,193.73a4.24,4.24,0,0,1-8.48,0"/><path class="cls-16" d="M173.93,193.72a1.83,1.83,0,0,1-3.66,0"/><path class="cls-3" d="M189,193.73a4.24,4.24,0,0,1-8.48,0"/><path class="cls-16" d="M186.58,193.72a1.83,1.83,0,0,1-3.66,0"/><path class="cls-17" d="M172.82,202.38a9.85,9.85,0,0,1,2,.44c.69.2,1.38.4,2.08.55a7.54,7.54,0,0,0,3.83-.19,19,19,0,0,1,3.17-.74,4.56,4.56,0,0,1,3.51,1,8.4,8.4,0,0,1,.8.78c.12.12.24.26,0,.4s-.34.36-.59.15-.27-.26-.4-.39a3.9,3.9,0,0,0-3.62-1.1,15.33,15.33,0,0,0-2.57.64,8.19,8.19,0,0,1-4.85.12c-.82-.21-1.62-.46-2.44-.68a3.2,3.2,0,0,0-3.66,1.22c-.19.24-.33.31-.6.11s-.29-.3-.11-.54A4.23,4.23,0,0,1,172.82,202.38Z"/><path class="cls-18" d="M168.31,189a7.13,7.13,0,0,0,7.12,0"/><path class="cls-18" d="M181.19,189a7.13,7.13,0,0,0,7.12,0"/></svg>