<?xml version="1.0" encoding="utf-8"?>
<!-- Generator: Adobe Illustrator 25.0.1, SVG Export Plug-In . SVG Version: 6.00 Build 0)  -->
<svg version="1.1" id="Layer_1" xmlns="http://www.w3.org/2000/svg" xmlns:xlink="http://www.w3.org/1999/xlink" x="0px" y="0px"
	 viewBox="0 0 348 282.4" style="enable-background:new 0 0 348 282.4;" xml:space="preserve">
<style type="text/css">
	.st0{fill:#F8D979;}
	.st1{fill:none;stroke:#0F8AB2;stroke-width:5.68;stroke-linecap:round;stroke-miterlimit:10;}
	.st2{fill:#A2CCED;}
	.st3{fill:none;stroke:#198AB1;stroke-width:5.02;stroke-linecap:round;stroke-miterlimit:10;}
	.st4{fill:#A1CBEC;}
	.st5{fill:#FFCC04;}
	.st6{fill:#FBAD18;}
	.st7{fill:#E59425;}
	.st8{fill:#00A1CD;}
	.st9{fill:#0D4060;}
	.st10{fill:#FFFFFF;}
	.st11{fill:#5652A3;}
	.st12{fill:#504B48;}
	.st13{fill:#ED1651;}
	.st14{fill:none;stroke:#0D4060;stroke-width:1.89;stroke-linecap:round;stroke-miterlimit:10;}
	.st15{fill:none;stroke:#0D4060;stroke-width:2.5;stroke-linecap:round;stroke-miterlimit:10;}
</style>
<polyline class="st0" points="0,281.8 0,-0.6 348,-0.6 348,281.8 "/>
<path class="st1" d="M174.1,166c0,0-14.5-2.7-19.8-7.8s-9.5-19.7-9.5-19.7"/>
<path class="st2" d="M177.9,159.7c-2.7,0-5,1.7-6,4.2c-1.4,3.3-0.1,7.1,2.9,8.4l7.4,3.1c0.1,0,0.1,0,0.2,0.1h0.1l10,4.2
	c0.9,0.3,1.9-0.2,2.2-1.1c0.2-0.8-0.1-1.6-0.8-2l-5.4-2.3c0.4-0.3,0.7-0.7,1-1.1l6.5,2.8c0.9,0.3,1.9-0.2,2.2-1.1
	c0.2-0.8-0.1-1.6-0.8-2l-6.5-2.8c0.1-0.4,0.1-0.9,0.1-1.4l5.6,2.4c0.9,0.3,1.9-0.2,2.2-1.1c0.2-0.8-0.1-1.6-0.8-2l-9.4-3.9
	c-0.3-0.2-0.6-0.4-0.9-0.5l2.1,0.1c0.9,0,1.7-0.7,1.8-1.6l0,0c0.2-0.8-0.4-1.6-1.2-1.8c0,0-0.1,0-0.1,0"/>
<path class="st3" d="M221,167.6c0,0-35.1,0-35.5-28.3"/>
<path class="st4" d="M190.5,141.7c-0.5,2-2.7,3.6-5.4,3.9c-3.5,0.4-6.8-1.5-7.3-4.2l-1.2-6.7c0,0,0-0.1,0-0.1c0,0,0,0,0-0.1l-1.7-9
	c-0.1-0.7,0.5-1.4,1.4-1.5c0.8-0.2,1.6,0.3,1.9,1.1l0.9,4.9c0.4-0.2,0.8-0.4,1.3-0.6l-1.1-5.9c-0.1-0.7,0.5-1.4,1.4-1.5
	c0.8-0.2,1.6,0.3,1.9,1.1l1.1,5.9c0.4,0,0.9,0.1,1.3,0.2l-0.9-5.1c-0.1-0.7,0.5-1.4,1.4-1.5c0.8-0.2,1.6,0.3,1.9,1.1l1.6,8.5
	c0.1,0.3,0.2,0.5,0.3,0.8l0.3-1.7c0.3-0.8,1.1-1.3,1.9-1.1l0,0c0.9,0.1,1.6,0.8,1.4,1.5"/>
<rect y="254.1" class="st5" width="348" height="27.7"/>
<polyline class="st6" points="298.9,264.3 290.7,264.3 290.7,228.9 224.3,228.9 224.3,264.3 215.9,264.3 215.9,225.5 216.1,225.5 
	216.1,218 298.9,218 298.9,225.6 "/>
<path class="st7" d="M215.4,201.1h84.8c3.2,0,5.8,2.6,5.8,5.8v7.6c0,3.2-2.6,5.8-5.8,5.8h-84.8c-3.2,0-5.8-2.6-5.8-5.8v-7.6
	C209.5,203.7,212.2,201.1,215.4,201.1z"/>
<path class="st8" d="M297.5,134.9c0-0.4,0-0.9,0-1.3c0-30.7-22.2-55.6-49.6-55.6s-49.8,25-49.8,55.7c0,0.4,0,0.9,0,1.3
	c-0.2,2-0.3,4.1-0.2,6.1v26c0,21.4,18.9,40.9,37.9,40.9h26.9c18.9,0,35.2-19.5,35.2-40.9v-26C297.9,139.1,297.8,137,297.5,134.9z"/>
<path class="st9" d="M243.2,128.1c0,0-2.2,7.8-13.3,7.6s-11.9-7.6-11.9-7.6H243.2z"/>
<path class="st10" d="M236.2,121.9c0-5,4.3-9.1,9.7-9.1s9.7,4.1,9.7,9.1"/>
<path class="st10" d="M207.4,121.9c0-5,4.4-9.1,9.7-9.1s9.7,4.1,9.7,9.1"/>
<path class="st9" d="M208.1,120.4c3,1.3,6.4,0,7.7-3c0.7-1.5,0.7-3.3,0-4.8C211.8,113.3,208.7,116.5,208.1,120.4z"/>
<path class="st9" d="M236.2,120.7c3,1.3,6.4,0,7.7-3c0.7-1.5,0.7-3.3,0-4.8C239.9,113.6,236.8,116.7,236.2,120.7z"/>
<path class="st9" d="M208.4,117.3l-5.2-2.1l4.6,3.6c-0.1,0.2-0.1,0.4-0.1,0.6l-4.5-0.6l4.3,1.8c0,0.3,0,0.7,0,1
	c2.4-7.7,7.2-8.7,8.6-8.8C211.7,113,209.5,115.1,208.4,117.3z"/>
<path class="st9" d="M216.1,112.8h0.4H216.1z"/>
<path class="st9" d="M259.8,118.9l-4.5,0.6c0-0.2-0.1-0.4-0.1-0.6l4.6-3.6l-5.2,2.1c-1.1-2.2-3.2-4.3-7.6-4.4
	c1.4,0.1,6.2,1.2,8.6,8.8c0-0.3,0-0.7,0-1L259.8,118.9z"/>
<path class="st9" d="M246.9,112.8h-0.4H246.9z"/>
<polyline class="st6" points="133.8,264.8 125.5,264.8 125.5,229.4 59.2,229.4 59.2,264.8 50.8,264.8 50.8,226 50.9,226 50.9,218.5 
	133.8,218.5 133.8,226.1 "/>
<path class="st7" d="M50.2,201.6H135c3.2,0,5.8,2.6,5.8,5.8v7.6c0,3.2-2.6,5.8-5.8,5.8H50.2c-3.2,0-5.8-2.6-5.8-5.8v-7.6
	C44.4,204.2,47,201.6,50.2,201.6z"/>
<path class="st8" d="M104.8,18.2c-37.3-1.8-67.9,6-69.8,45.3c-0.5,10,0.4,20.1,1.3,30c1,11,3.6,22.1,5.9,32.9c1,4.8,2.2,9,1.5,13.9
	c-0.6,4.3-3.1,8.6-5.2,12.4c-5.7,10.3-7.6,21-4.3,32.4c2.2,7.6,8.1,13.9,14.9,17.9c14,8.4,19.7,8.3,49,9.7
	c17.4,0.8,35.6,0.4,50.4-10.1c6.1-4.3,10.7-10.3,13.4-17.3c1.3-3.3,2.2-6.7,2.6-10.2c1-6-0.5-13.7-2.5-19.2
	c-3-8.3-5.7-19.4-3.1-28.2c6.2-20.6,10.8-47.9,11.3-58.5C171.9,29.8,142.1,20,104.8,18.2"/>
<path class="st9" d="M146.3,88.6c0,0-2.6,9.7-14.4,9.2s-12.5-9.7-12.5-9.7l0,0L146.3,88.6z"/>
<path class="st10" d="M138.3,81.6c0.3-5.4,5.1-9.5,10.8-9.2s10.2,4.8,9.9,10.2"/>
<path class="st10" d="M107.5,80.1c0.3-5.4,5.1-9.5,10.9-9.2s10.2,4.8,10,10.2"/>
<path class="st9" d="M117.5,80.6c-0.1-2.5,1.9-4.6,4.4-4.7s4.6,1.9,4.7,4.4c0,0.2,0,0.5,0,0.7"/>
<path class="st9" d="M147.1,82c-0.1-2.5,1.9-4.6,4.4-4.7s4.6,1.9,4.7,4.4c0,0.2,0,0.5,0,0.7"/>
<path class="st9" d="M108.4,75.3l-5.3-2.5l4.6,4.2c-0.1,0.2-0.1,0.4-0.2,0.7l-4.7-0.8l4.4,2.2c-0.1,0.3-0.1,0.7-0.1,1
	c2.9-8.3,8-9.2,9.4-9.3C112,70.7,109.6,73,108.4,75.3z"/>
<path class="st9" d="M116.6,70.8c0.1,0,0.3,0,0.4,0C116.8,70.8,116.7,70.8,116.6,70.8z"/>
<path class="st9" d="M163.7,79.8l-4.7,0.4c0-0.2-0.1-0.4-0.1-0.7l5-3.8l-5.5,2c-1-2.4-3.1-4.9-7.7-5.3c1.4,0.2,6.4,1.6,8.5,10.1
	c0,0,0-0.4,0-1L163.7,79.8z"/>
<polyline class="st8" points="85.2,208.8 106.8,262.9 115.5,260.7 108.4,203.1 "/>
<polygon class="st11" points="116.9,267.8 109.4,269.7 99.9,246.2 113.3,242.8 "/>
<path class="st12" d="M132,265c-1.6-6.3-8-10.1-14.3-8.5c-6.3,1.6-10.1,8-8.5,14.3"/>
<polyline class="st8" points="114.5,201.6 136.1,255.6 144.8,253.4 137.7,195.8 "/>
<polygon class="st11" points="145.5,261 138,262.9 129.5,239.1 142.6,235.8 "/>
<path class="st12" d="M162.4,256.6c-1.6-6.3-8-10.1-14.3-8.5s-10.1,8-8.5,14.3"/>
<path class="st1" d="M61,144.2c0,0-0.7,19.7,14.2,27.4c20,10.4,37.4,3.8,37.4,3.8"/>
<polyline class="st8" points="216.9,195.4 210.4,256.9 215.4,258 234.6,199.6 "/>
<polygon class="st13" points="216.3,256.9 210.1,255.2 213.5,227.3 224.7,229.8 "/>
<path class="st12" d="M216.3,259.4c1.2-5.1-2-10.2-7.2-11.4c-5.1-1.2-10.2,2-11.4,7.2l0,0"/>
<polyline class="st8" points="242.4,200.5 235.9,262 240.9,263.1 260.1,204.8 "/>
<polygon class="st13" points="241.8,262 235.6,260.3 239,232.4 250.2,234.9 "/>
<path class="st12" d="M241.8,264.5c1.2-5.1-2.1-10.2-7.2-11.4c-5.1-1.2-10.2,2.1-11.4,7.2l0,0"/>
<path class="st3" d="M281.5,146.5c0,0,5.5,34.7-22.4,39.5"/>
<path class="st4" d="M260.7,180.7c2.1,0.2,4,2,4.8,4.7c0.9,3.4-0.4,7-3,7.9l-6.4,2.3h-0.1h-0.1l-8.7,3c-0.7,0.2-1.4-0.3-1.7-1.2
	c-0.3-0.8,0-1.7,0.8-2.1l4.7-1.7c-0.3-0.4-0.6-0.8-0.8-1.2l-5.7,2c-0.7,0.2-1.4-0.3-1.7-1.2c-0.3-0.8,0-1.7,0.8-2.1l5.7-2
	c0-0.4,0-0.9,0-1.3l-4.9,1.7c-0.7,0.2-1.4-0.3-1.7-1.2c-0.3-0.8,0-1.7,0.8-2.1l8.1-2.8c0.2-0.2,0.5-0.3,0.8-0.4l-1.7-0.1
	c-0.8-0.1-1.4-0.9-1.4-1.7l0,0c0-0.9,0.5-1.6,1.2-1.6"/>
<path class="st2" d="M123.3,185.2c0.9,0.1,1.7-0.6,1.7-1.5c0.1-0.9-0.5-1.7-1.3-1.9l-5.9-0.6c0.3-0.4,0.5-0.9,0.7-1.4l7,0.8
	c0.9,0.1,1.7-0.6,1.7-1.5c0,0,0,0,0,0c0.1-0.9-0.5-1.7-1.3-1.9l-7.1-0.8c-0.1-0.4-0.2-0.9-0.3-1.3l6,0.7c0.9,0.1,1.7-0.6,1.7-1.5
	c0,0,0,0,0,0c0.1-0.9-0.5-1.7-1.3-1.9l-10.1-1.1c-0.3-0.1-0.7-0.2-1-0.2l2-0.4c0.9-0.2,1.4-1.1,1.3-2l0,0c-0.1-0.9-0.9-1.5-1.7-1.4
	c0,0-0.1,0-0.1,0l-10.7,2.3c-0.4,0.1-0.8,0.4-1,0.7c-2.5,0.8-4.4,3.1-4.6,5.7c-0.4,3.6,1.9,6.8,5.2,7.2l8,0.9h0.2h0.1L123.3,185.2z"
	/>
<path class="st14" d="M242.6,102.9c0,0,3.1,7.6,11.4,3.7"/>
<path class="st14" d="M208.7,109c0,0,2.1-7.7,10.3-3.9"/>
<path class="st15" d="M106.8,67c0,0,3.8-9.8,13.1-4.5"/>
<path class="st15" d="M159.1,68.9c0,0-3-9.8-12.1-4.2"/>
</svg>
