<svg id="Layer_1" data-name="Layer 1" xmlns="http://www.w3.org/2000/svg" viewBox="0 0 348 282.35"><defs><style>.cls-1{fill:#f8d979;}.cls-10,.cls-15,.cls-2,.cls-4{fill:none;stroke-linecap:round;stroke-miterlimit:10;}.cls-2{stroke:#0f8ab2;stroke-width:5.68px;}.cls-3{fill:#a2cced;}.cls-4{stroke:#198ab1;stroke-width:4.6px;}.cls-5{fill:#a1cbec;}.cls-6{fill:#ffcc04;}.cls-7{fill:#fbad18;}.cls-8{fill:#e59425;}.cls-9{fill:#00a1cd;}.cls-10{stroke:#0d4060;stroke-width:1.89px;}.cls-11{fill:#0d4060;}.cls-12{fill:#fff;}.cls-13{fill:#5652a3;}.cls-14{fill:#504b48;}.cls-15{stroke:#0d4161;stroke-width:2.13px;}.cls-16{fill:#ed1651;}</style></defs><polyline class="cls-1" points="0 282.35 0 0 348 0 348 282.35"/><path class="cls-2" d="M169.51,128.34s-7.47,12.68-14,16-21.77,2.2-21.77,2.2"/><path class="cls-3" d="M162.86,126.31a6.59,6.59,0,0,0,1.87,7.09c2.66,2.45,6.64,2.5,8.85.11L179,127.6l.11-.13.06-.06,7.37-8a1.73,1.73,0,0,0-2.52-2.34l-4,4.34a6.73,6.73,0,0,0-.69-1.33l4.81-5.21a1.73,1.73,0,0,0-2.53-2.33l-4.81,5.2a6.71,6.71,0,0,0-1.24-.53l4.13-4.48a1.73,1.73,0,0,0-2.52-2.33l-6.89,7.45a6.7,6.7,0,0,0-.77.64l.84-1.87a1.75,1.75,0,0,0-.88-2.21h0a1.52,1.52,0,0,0-2.15.64"/><path class="cls-4" d="M233.54,153.45s10.4,19.72-12.07,32.48"/><path class="cls-5" d="M220.41,180.82c1.85-.45,4.09.53,5.56,2.61,1.87,2.66,1.8,6.14-.16,7.73L221,195.1l-.11.08,0,0-6.53,5.31a1.3,1.3,0,0,1-1.82-.5,1.53,1.53,0,0,1,.05-2l3.55-2.9a5.83,5.83,0,0,1-1-.79l-4.26,3.47a1.3,1.3,0,0,1-1.82-.5,1.53,1.53,0,0,1,0-2l4.26-3.47a8.32,8.32,0,0,1-.39-1.16l-3.66,3a1.3,1.3,0,0,1-1.82-.5,1.53,1.53,0,0,1,0-2l6.1-5a3.61,3.61,0,0,1,.53-.58l-1.51.47a1.55,1.55,0,0,1-1.73-1.07h0a1.28,1.28,0,0,1,.57-1.78"/><rect class="cls-6" y="254.36" width="348" height="27.73"/><polyline class="cls-7" points="315.93 261.57 307.7 261.57 307.7 226.08 241.34 226.08 241.34 261.57 232.93 261.57 232.93 222.76 233.06 222.76 233.06 215.2 315.93 215.2 315.93 222.87"/><rect class="cls-8" x="226.54" y="198.32" width="96.45" height="19.29" rx="5.83"/><path class="cls-9" d="M314.54,132.13c0-.43,0-.85,0-1.28,0-30.68-22.19-55.55-49.55-55.55s-49.85,25-49.85,55.7c0,.43,0,.86,0,1.29a42.76,42.76,0,0,0-.16,6.12v26c0,21.39,18.94,40.9,37.87,40.9h26.91c18.93,0,35.17-19.51,35.17-40.9v-26A44.63,44.63,0,0,0,314.54,132.13Z"/><line class="cls-10" x1="224.64" y1="106.05" x2="237.83" y2="100.42"/><line class="cls-10" x1="271.92" y1="106.44" x2="258.33" y2="101.25"/><path class="cls-11" d="M234.94,132.49s2.46-7.75,13.46-7.19,11.66,7.93,11.66,7.93Z"/><path class="cls-12" d="M253.22,119.11c0-5,4.33-9.07,9.68-9.07s9.67,4.06,9.67,9.07"/><path class="cls-12" d="M224.45,119.11c0-5,4.35-9.07,9.72-9.07s9.73,4.06,9.73,9.07"/><path class="cls-11" d="M225.05,117.67a5.86,5.86,0,0,0,7.7-7.8A9.37,9.37,0,0,0,225.05,117.67Z"/><path class="cls-11" d="M253.22,117.92a5.86,5.86,0,0,0,7.7-7.79A9.35,9.35,0,0,0,253.22,117.92Z"/><path class="cls-11" d="M225.44,114.51l-5.2-2.07,4.61,3.63c-.06.21-.1.41-.15.6l-4.51-.56,4.31,1.81a9.32,9.32,0,0,0,0,1c2.41-7.66,7.24-8.67,8.63-8.81C228.66,110.19,226.49,112.35,225.44,114.51Z"/><path class="cls-11" d="M233.09,110.06l.38,0Z"/><path class="cls-11" d="M276.84,116.1l-4.52.57c0-.2-.08-.39-.14-.6l4.61-3.63-5.2,2.07c-1-2.17-3.22-4.33-7.65-4.45,1.38.13,6.22,1.15,8.63,8.81a8.1,8.1,0,0,0-.05-1Z"/><path class="cls-11" d="M263.94,110.06l-.39,0Z"/><polyline class="cls-7" points="128.76 262.07 120.52 262.07 120.52 226.58 54.17 226.58 54.17 262.07 45.75 262.07 45.75 223.26 45.89 223.26 45.89 215.7 128.76 215.7 128.76 223.37"/><rect class="cls-8" x="39.37" y="198.81" width="96.45" height="19.29" rx="5.83"/><path class="cls-9" d="M99.76,15.45c-37.28-1.8-67.95,5.95-69.85,45.3-.48,10,.36,20.11,1.28,30,1,11,3.58,22.09,5.94,32.91,1,4.76,2.19,9,1.47,13.86-.64,4.3-3.07,8.59-5.19,12.4-5.71,10.26-7.61,21-4.3,32.44,2.2,7.57,8.1,13.81,14.84,17.87,14,8.42,19.67,8.3,49,9.71,17.38.84,35.58.39,50.38-10.09a37.94,37.94,0,0,0,13.37-17.3,42.74,42.74,0,0,0,2.6-10.22c1-6-.54-13.7-2.54-19.25-3-8.32-5.74-19.36-3.08-28.19,6.2-20.59,10.78-47.9,11.29-58.46,1.89-39.35-27.92-49.23-65.2-51"/><path class="cls-11" d="M114.15,93.91s2.55-9.68,14.36-9.31,12.61,9.6,12.61,9.62h0Z"/><path class="cls-12" d="M133.33,78.83c.26-5.37,5.11-9.5,10.84-9.22s10.16,4.85,9.9,10.22"/><path class="cls-11" d="M143.28,79.31a4.52,4.52,0,0,1,9,.44"/><path class="cls-12" d="M102.49,77.34c.26-5.36,5.14-9.49,10.9-9.21s10.21,4.85,10,10.22"/><path class="cls-11" d="M112.5,77.83a4.52,4.52,0,1,1,9,.43"/><path class="cls-11" d="M103.39,72.58,98.11,70l4.58,4.23c-.07.22-.12.44-.18.65l-4.65-.85,4.38,2.22a9.84,9.84,0,0,0-.1,1c2.91-8.31,8-9.19,9.41-9.26C107,68,104.59,70.25,103.39,72.58Z"/><path class="cls-11" d="M111.55,68.07c.14,0,.26,0,.4,0A3,3,0,0,0,111.55,68.07Z"/><path class="cls-11" d="M158.67,77l-4.7.4c0-.22-.07-.44-.12-.67l5-3.77-5.5,2c-1-2.43-3.11-4.91-7.69-5.27,1.43.21,6.38,1.58,8.48,10.12,0,0,0-.41,0-1Z"/><polyline class="cls-9" points="80.19 206.07 101.8 260.12 110.48 257.89 103.42 200.29"/><polygon class="cls-13" points="111.91 265.05 104.44 266.97 94.89 243.45 108.29 240 111.91 265.05"/><path class="cls-14" d="M127,262.18A11.74,11.74,0,1,0,104.25,268"/><polyline class="cls-9" points="109.51 198.81 131.11 252.87 139.8 250.64 132.74 193.03"/><polygon class="cls-13" points="140.5 258.24 133.03 260.15 124.52 236.37 137.63 233 140.5 258.24"/><path class="cls-14" d="M157.38,253.86a11.74,11.74,0,1,0-22.75,5.83"/><path class="cls-2" d="M56,141.42s-.66,19.66,14.17,27.37c20,10.4,37.36,3.82,37.36,3.82"/><path class="cls-15" d="M142.94,58.41l13.72,4.53"/><path class="cls-15" d="M99.29,61.31l16.32-4.16"/><polyline class="cls-9" points="233.91 192.6 227.43 254.13 232.42 255.26 251.6 196.88"/><polygon class="cls-16" points="233.28 254.13 227.09 252.42 230.51 224.51 241.69 227.04 233.28 254.13"/><path class="cls-14" d="M233.28,256.67a9.52,9.52,0,1,0-18.57-4.22"/><polyline class="cls-9" points="259.39 197.71 252.91 259.23 257.91 260.37 277.09 201.98"/><polygon class="cls-16" points="258.77 259.23 252.58 257.52 256 229.61 267.18 232.15 258.77 259.23"/><path class="cls-14" d="M258.77,261.77a9.52,9.52,0,0,0-18.57-4.21"/><path class="cls-4" d="M299.63,152.05s-11,45.41-39.69,1.63"/><path class="cls-5" d="M265.45,152.57c.59,1.8-.2,4.12-2.16,5.75-2.49,2.08-6,2.29-7.71.47l-4.32-4.5-.08-.1-.05,0-5.83-6.08a1.29,1.29,0,0,1,.35-1.85,1.54,1.54,0,0,1,2-.12l3.17,3.3a6.55,6.55,0,0,1,.71-1.09l-3.8-4a1.29,1.29,0,0,1,.35-1.85,1.54,1.54,0,0,1,2-.12l3.8,4a7.26,7.26,0,0,1,1.12-.48l-3.27-3.41a1.3,1.3,0,0,1,.36-1.85,1.52,1.52,0,0,1,2-.12l5.44,5.67a3.66,3.66,0,0,1,.62.48l-.59-1.46a1.55,1.55,0,0,1,.93-1.81h0a1.28,1.28,0,0,1,1.83.42"/><path class="cls-3" d="M118.27,182.43A1.64,1.64,0,0,0,120,180.9a1.66,1.66,0,0,0-1.35-1.89l-5.87-.65a7.78,7.78,0,0,0,.66-1.36l7,.79a1.63,1.63,0,0,0,1.73-1.53,1.65,1.65,0,0,0-1.34-1.89l-7.05-.78a7.34,7.34,0,0,0-.3-1.33l6,.68a1.63,1.63,0,0,0,1.73-1.53,1.65,1.65,0,0,0-1.34-1.89l-10.09-1.13a5.27,5.27,0,0,0-1-.23l2-.44a1.76,1.76,0,0,0,1.27-2h0a1.55,1.55,0,0,0-1.8-1.35l-10.71,2.33a1.62,1.62,0,0,0-1,.71,6.62,6.62,0,0,0-4.6,5.71c-.4,3.6,1.92,6.84,5.16,7.2l8,.9h.17l.09,0Z"/></svg>