<?xml version="1.0" encoding="utf-8"?>
<!-- Generator: Adobe Illustrator 25.0.1, SVG Export Plug-In . SVG Version: 6.00 Build 0)  -->
<svg version="1.1" id="Layer_1" xmlns="http://www.w3.org/2000/svg" xmlns:xlink="http://www.w3.org/1999/xlink" x="0px" y="0px"
	 viewBox="0 0 348 282.4" style="enable-background:new 0 0 348 282.4;" xml:space="preserve">
<style type="text/css">
	.st0{fill:#F8D979;}
	.st1{fill:none;stroke:#0F8AB2;stroke-width:5.68;stroke-linecap:round;stroke-miterlimit:10;}
	.st2{fill:#A2CCED;}
	.st3{fill:none;stroke:#198AB1;stroke-width:4.6;stroke-linecap:round;stroke-miterlimit:10;}
	.st4{fill:#A1CBEC;}
	.st5{fill:#FFCC04;}
	.st6{fill:#FBAD18;}
	.st7{fill:#E59425;}
	.st8{fill:#00A1CD;}
	.st9{fill:#0D4060;}
	.st10{fill:#FFFFFF;}
	.st11{fill:#5652A3;}
	.st12{fill:#504B48;}
	.st13{fill:#ED1651;}
	.st14{fill:none;stroke:#0D4060;stroke-width:2.5;stroke-linecap:round;stroke-miterlimit:10;}
	.st15{fill:none;stroke:#0D4060;stroke-width:1.89;stroke-linecap:round;stroke-miterlimit:10;}
</style>
<polyline class="st0" points="0,282.4 0,0 348,0 348,282.4 "/>
<path class="st1" d="M169.5,128.3c0,0-7.5,12.7-14,16s-21.8,2.2-21.8,2.2"/>
<path class="st2" d="M162.9,126.3c-0.9,2.5-0.1,5.3,1.9,7.1c2.7,2.4,6.6,2.5,8.9,0.1l5.4-5.9l0.1-0.1l0.1-0.1l7.4-8
	c0.6-0.8,0.4-1.9-0.4-2.4c-0.7-0.5-1.5-0.4-2.2,0.1l-4,4.3c-0.2-0.5-0.4-0.9-0.7-1.3l4.8-5.2c0.6-0.8,0.4-1.9-0.4-2.4
	c-0.7-0.5-1.6-0.4-2.2,0.1l-4.8,5.2c-0.4-0.2-0.8-0.4-1.2-0.5l4.1-4.5c0.6-0.8,0.4-1.9-0.4-2.4c-0.6-0.5-1.5-0.4-2.1,0.1l-6.9,7.4
	c-0.3,0.2-0.5,0.4-0.8,0.6l0.8-1.9c0.3-0.9-0.1-1.8-0.9-2.2l0,0c-0.7-0.4-1.7-0.2-2.1,0.5c0,0,0,0.1-0.1,0.1"/>
<path class="st3" d="M233.5,153.4c0,0,10.4,19.7-12.1,32.5"/>
<path class="st4" d="M220.4,180.8c1.9-0.4,4.1,0.5,5.6,2.6c1.9,2.7,1.8,6.1-0.2,7.7l-4.8,3.9l-0.1,0.1l0,0l-6.5,5.3
	c-0.6,0.4-1.4,0.2-1.8-0.4c0,0,0,0,0-0.1c-0.5-0.6-0.5-1.4,0.1-2l3.6-2.9c-0.4-0.2-0.7-0.5-1-0.8l-4.3,3.5c-0.6,0.4-1.4,0.2-1.8-0.4
	c0,0,0,0,0-0.1c-0.5-0.6-0.5-1.4,0-2l4.3-3.5c-0.2-0.4-0.3-0.8-0.4-1.2l-3.7,3c-0.6,0.4-1.4,0.2-1.8-0.4c0,0,0,0,0-0.1
	c-0.5-0.6-0.5-1.4,0-2l6.1-5c0.2-0.2,0.3-0.4,0.5-0.6l-1.5,0.5c-0.8,0.1-1.5-0.3-1.7-1.1l0,0c-0.3-0.6-0.1-1.4,0.5-1.7
	c0,0,0,0,0.1,0"/>
<rect y="254.4" class="st5" width="348" height="27.7"/>
<polyline class="st6" points="315.9,261.6 307.7,261.6 307.7,226.1 241.3,226.1 241.3,261.6 232.9,261.6 232.9,222.8 233.1,222.8 
	233.1,215.2 315.9,215.2 315.9,222.9 "/>
<path class="st7" d="M232.4,198.3h84.8c3.2,0,5.8,2.6,5.8,5.8v7.6c0,3.2-2.6,5.8-5.8,5.8h-84.8c-3.2,0-5.8-2.6-5.8-5.8v-7.6
	C226.5,200.9,229.2,198.3,232.4,198.3z"/>
<path class="st8" d="M314.5,132.1c0-0.4,0-0.9,0-1.3c0-30.7-22.2-55.6-49.5-55.6s-49.9,25-49.9,55.7c0,0.4,0,0.9,0,1.3
	c-0.2,2-0.3,4.1-0.2,6.1v26c0,21.4,18.9,40.9,37.9,40.9h26.9c18.9,0,35.2-19.5,35.2-40.9v-26C314.9,136.3,314.8,134.2,314.5,132.1z"
	/>
<path class="st9" d="M234.9,132.5c0,0,2.5-7.8,13.5-7.2c11,0.6,11.7,7.9,11.7,7.9L234.9,132.5z"/>
<path class="st10" d="M253.2,119.1c0-5,4.3-9.1,9.7-9.1s9.7,4.1,9.7,9.1"/>
<path class="st10" d="M224.4,119.1c0-5,4.4-9.1,9.7-9.1s9.7,4.1,9.7,9.1"/>
<path class="st9" d="M225.1,117.7c3,1.3,6.4,0,7.7-3c0.7-1.5,0.7-3.3,0-4.8C228.8,110.5,225.7,113.7,225.1,117.7z"/>
<path class="st9" d="M253.2,117.9c3,1.3,6.4,0,7.7-3c0.7-1.5,0.7-3.3,0-4.8C256.9,110.8,253.8,113.9,253.2,117.9z"/>
<path class="st9" d="M225.4,114.5l-5.2-2.1l4.6,3.6c-0.1,0.2-0.1,0.4-0.1,0.6l-4.5-0.6l4.3,1.8c0,0.3,0,0.7,0,1
	c2.4-7.7,7.2-8.7,8.6-8.8C228.7,110.2,226.5,112.3,225.4,114.5z"/>
<path class="st9" d="M233.1,110.1h0.4H233.1z"/>
<path class="st9" d="M276.8,116.1l-4.5,0.6c0-0.2-0.1-0.4-0.1-0.6l4.6-3.6l-5.2,2.1c-1-2.2-3.2-4.3-7.6-4.4c1.4,0.1,6.2,1.2,8.6,8.8
	c0-0.3,0-0.7,0-1L276.8,116.1z"/>
<path class="st9" d="M263.9,110.1h-0.4H263.9z"/>
<polyline class="st6" points="128.8,262.1 120.5,262.1 120.5,226.6 54.2,226.6 54.2,262.1 45.8,262.1 45.8,223.3 45.9,223.3 
	45.9,215.7 128.8,215.7 128.8,223.4 "/>
<path class="st7" d="M45.2,198.8H130c3.2,0,5.8,2.6,5.8,5.8v7.6c0,3.2-2.6,5.8-5.8,5.8H45.2c-3.2,0-5.8-2.6-5.8-5.8v-7.6
	C39.4,201.4,42,198.8,45.2,198.8z"/>
<path class="st8" d="M99.8,15.4c-37.3-1.8-67.9,5.9-69.8,45.3c-0.5,10,0.4,20.1,1.3,30c1,11,3.6,22.1,5.9,32.9c1,4.8,2.2,9,1.5,13.9
	c-0.6,4.3-3.1,8.6-5.2,12.4c-5.7,10.3-7.6,21-4.3,32.4c2.2,7.6,8.1,13.8,14.8,17.9c14,8.4,19.7,8.3,49,9.7
	c17.4,0.8,35.6,0.4,50.4-10.1c6.1-4.3,10.7-10.3,13.4-17.3c1.3-3.3,2.2-6.7,2.6-10.2c1-6-0.5-13.7-2.5-19.2
	c-3-8.3-5.7-19.4-3.1-28.2c6.2-20.6,10.8-47.9,11.3-58.5C166.9,27.1,137.1,17.2,99.8,15.4"/>
<path class="st9" d="M114.2,93.9c0,0,2.6-9.7,14.4-9.3s12.6,9.6,12.6,9.6l0,0L114.2,93.9z"/>
<path class="st10" d="M133.3,78.8c0.3-5.4,5.1-9.5,10.8-9.2s10.2,4.8,9.9,10.2"/>
<path class="st10" d="M102.5,77.3c0.3-5.4,5.1-9.5,10.9-9.2s10.2,4.8,10,10.2"/>
<path class="st9" d="M112.5,77.8c-0.1-2.5,1.9-4.6,4.4-4.7s4.6,1.9,4.7,4.4c0,0.2,0,0.5,0,0.7"/>
<path class="st9" d="M142.7,79.4c-0.1-2.5,1.9-4.6,4.4-4.7s4.6,1.9,4.7,4.4c0,0.2,0,0.5,0,0.7"/>
<path class="st9" d="M103.4,72.6L98.1,70l4.6,4.2c-0.1,0.2-0.1,0.4-0.2,0.7L97.9,74l4.4,2.2c-0.1,0.3-0.1,0.7-0.1,1
	c2.9-8.3,8-9.2,9.4-9.3C107,68,104.6,70.2,103.4,72.6z"/>
<path class="st9" d="M111.6,68.1c0.1,0,0.3,0,0.4,0C111.8,68.1,111.7,68.1,111.6,68.1z"/>
<path class="st9" d="M158.7,77l-4.7,0.4c0-0.2-0.1-0.4-0.1-0.7l5-3.8l-5.5,2c-1-2.4-3.1-4.9-7.7-5.3c1.4,0.2,6.4,1.6,8.5,10.1
	c0,0,0-0.4,0-1L158.7,77z"/>
<polyline class="st8" points="80.2,206.1 101.8,260.1 110.5,257.9 103.4,200.3 "/>
<polygon class="st11" points="111.9,265 104.4,267 94.9,243.4 108.3,240 "/>
<path class="st12" d="M127,262.2c-1.6-6.3-8-10.1-14.3-8.5s-10.1,8-8.5,14.3"/>
<polyline class="st8" points="109.5,198.8 131.1,252.9 139.8,250.6 132.7,193 "/>
<polygon class="st11" points="140.5,258.2 133,260.1 124.5,236.4 137.6,233 "/>
<path class="st12" d="M157.4,253.9c-1.6-6.3-8-10.1-14.3-8.5c-6.3,1.6-10.1,8-8.5,14.3"/>
<path class="st1" d="M56,141.4c0,0-0.7,19.7,14.2,27.4c20,10.4,37.4,3.8,37.4,3.8"/>
<polyline class="st8" points="233.9,192.6 227.4,254.1 232.4,255.3 251.6,196.9 "/>
<polygon class="st13" points="233.3,254.1 227.1,252.4 230.5,224.5 241.7,227 "/>
<path class="st12" d="M233.3,256.7c1.2-5.1-2-10.2-7.2-11.4c-5.1-1.2-10.2,2-11.4,7.2l0,0"/>
<polyline class="st8" points="259.4,197.7 252.9,259.2 257.9,260.4 277.1,202 "/>
<polygon class="st13" points="258.8,259.2 252.6,257.5 256,229.6 267.2,232.1 "/>
<path class="st12" d="M258.8,261.8c1.2-5.1-2.1-10.2-7.2-11.4c-5.1-1.2-10.2,2.1-11.4,7.2l0,0"/>
<path class="st3" d="M299.6,152.1c0,0-11,45.4-39.7,1.6"/>
<path class="st4" d="M265.5,152.6c0.6,1.8-0.2,4.1-2.2,5.8c-2.5,2.1-6,2.3-7.7,0.5l-4.3-4.5l-0.1-0.1h-0.1l-5.8-6.1
	c-0.4-0.6-0.3-1.4,0.3-1.8c0,0,0,0,0.1,0c0.5-0.5,1.4-0.6,2-0.1l3.2,3.3c0.2-0.4,0.4-0.8,0.7-1.1l-3.8-4c-0.4-0.6-0.3-1.4,0.3-1.8
	c0,0,0,0,0.1,0c0.5-0.5,1.4-0.6,2-0.1l3.8,4c0.4-0.2,0.7-0.4,1.1-0.5l-3.3-3.4c-0.4-0.6-0.3-1.4,0.3-1.8c0,0,0,0,0.1,0
	c0.5-0.5,1.4-0.6,2-0.1l5.4,5.7c0.2,0.1,0.4,0.3,0.6,0.5l-0.6-1.5c-0.2-0.8,0.2-1.5,0.9-1.8l0,0c0.6-0.4,1.4-0.2,1.8,0.3
	c0,0,0,0.1,0.1,0.1"/>
<path class="st2" d="M118.3,182.4c0.9,0.1,1.7-0.6,1.7-1.5c0.1-0.9-0.5-1.7-1.3-1.9l-5.9-0.6c0.3-0.4,0.5-0.9,0.7-1.4l7,0.8
	c0.9,0.1,1.7-0.6,1.7-1.5c0,0,0,0,0,0c0.1-0.9-0.5-1.7-1.3-1.9l-7.1-0.8c-0.1-0.5-0.2-0.9-0.3-1.3l6,0.7c0.9,0.1,1.7-0.6,1.7-1.5
	c0,0,0,0,0,0c0.1-0.9-0.5-1.7-1.3-1.9l-10.1-1.1c-0.3-0.1-0.7-0.2-1-0.2l2-0.4c0.9-0.2,1.4-1.1,1.3-2l0,0c-0.1-0.9-0.9-1.5-1.7-1.4
	c0,0-0.1,0-0.1,0l-10.7,2.3c-0.4,0.1-0.8,0.4-1,0.7c-2.5,0.8-4.4,3.1-4.6,5.7c-0.4,3.6,1.9,6.8,5.2,7.2l8,0.9h0.2h0.1L118.3,182.4z"
	/>
<path class="st14" d="M156,62.5c0,0-9.3,4.9-12.9-5.2"/>
<path class="st14" d="M100.8,59.8c0,0,8.4,6,12.2-4.1"/>
<path class="st15" d="M259.9,100c0,0,3.1,7.6,11.4,3.7"/>
<path class="st15" d="M235.3,100.9c0,0-2.1,7.7-10.3,3.9"/>
</svg>
