<svg id="Layer_1" data-name="Layer 1" xmlns="http://www.w3.org/2000/svg" viewBox="0 0 348 282.35"><defs><style>.cls-1{fill:#f8d979;}.cls-2,.cls-30{fill:#fff;}.cls-3{fill:#e04026;}.cls-4{fill:#e14326;}.cls-5{fill:#e14126;}.cls-6{fill:#e24226;}.cls-7{fill:#f6871f;}.cls-8{fill:#fdde13;}.cls-28,.cls-9{fill:#fffffc;}.cls-9{opacity:0.63;}.cls-10{font-size:11.57px;font-family:MyriadPro-Regular, Myriad Pro;}.cls-10,.cls-35{fill:#231f20;}.cls-11,.cls-17,.cls-21,.cls-24,.cls-32,.cls-34{fill:none;}.cls-11{stroke:#0f8ab2;stroke-width:5px;}.cls-11,.cls-17{stroke-linecap:round;}.cls-11,.cls-17,.cls-21,.cls-24,.cls-32,.cls-33,.cls-34{stroke-miterlimit:10;}.cls-12{fill:#a2cced;}.cls-13{fill:#ffcb05;}.cls-14{fill:#00a1cd;}.cls-15{fill:#5652a3;}.cls-16{fill:#504b48;}.cls-17{stroke:#0d4060;stroke-width:2.01px;}.cls-18{fill:#0d4060;}.cls-19{fill:#fbad18;}.cls-20{fill:#282b2b;}.cls-21,.cls-24{stroke:#282b2b;}.cls-21{stroke-width:2.06px;}.cls-22{fill:#f47920;}.cls-23{fill:#ad3624;}.cls-24{stroke-width:1.96px;}.cls-25{fill:#61686c;}.cls-26{fill:#777;}.cls-27{fill:#383838;}.cls-28{opacity:0.71;}.cls-29{fill:#fdc642;}.cls-30{opacity:0.15;}.cls-31{fill:#52656c;}.cls-32,.cls-34{stroke:#fff;opacity:0.51;}.cls-32{stroke-width:0.8px;}.cls-33{fill:#d6eef3;stroke:#5f6161;stroke-width:0.22px;}.cls-34{stroke-width:0.69px;}</style></defs><polyline class="cls-1" points="0.02 281.58 0.02 -0.77 348.02 -0.77 348.02 281.58"/><path class="cls-2" d="M207,101.7c-5.69-3.19-9.9-7.77-11.62-14.6A20.05,20.05,0,0,1,196,75.2a21.81,21.81,0,0,1,5.68-8.61c.94-.88.93-.94.22-2.09A20.52,20.52,0,0,1,204.42,39a25.43,25.43,0,0,1,18.27-8.2A52.55,52.55,0,0,1,228,31a.9.9,0,0,0,1.11-.84,12.88,12.88,0,0,1,.65-2.22A23.64,23.64,0,0,1,243,14.3a27.05,27.05,0,0,1,12.76-2.11,26.53,26.53,0,0,1,13.36,4.57,23.82,23.82,0,0,1,6.1,6,.79.79,0,0,0,.14.23.85.85,0,0,0,1.26.08A27.63,27.63,0,0,1,303,21.84a23.57,23.57,0,0,1,8.55,6.82,20.19,20.19,0,0,1,4.51,15.42c-.1.78.12,1.11.85,1.28A40.32,40.32,0,0,1,322.78,47c5,1.85,8.21,5.39,11.11,10.1a20,20,0,0,1,2.67,14c-1.18,7.09-4.22,12-9.88,15.53A24.53,24.53,0,0,1,317.5,90c-1,.18-1.22.45-1,1.56a19.76,19.76,0,0,1-1.33,11.2,23.69,23.69,0,0,1-13.69,12.9,27.57,27.57,0,0,1-27.33-4.23l-.14-.14a1,1,0,0,0-1.42.21,25.76,25.76,0,0,1-14.09,7.42,27.92,27.92,0,0,1-8.75.19,26,26,0,0,1-11.33-4.32,22.84,22.84,0,0,1-8.48-10.27,1.12,1.12,0,0,0-1.62-.77,26.79,26.79,0,0,1-8.22,1.33A27.36,27.36,0,0,1,207,101.7Z"/><path class="cls-2" d="M168.4,80.47a4.64,4.64,0,1,1,4.7-4.6A4.67,4.67,0,0,1,168.4,80.47Z"/><path class="cls-2" d="M183.6,73.69a8.57,8.57,0,1,1,8.68-8.48A8.6,8.6,0,0,1,183.6,73.69Z"/><path class="cls-3" d="M182.4,151.34a22.24,22.24,0,0,1,2.41,1.36A35.71,35.71,0,0,1,188.15,135c.35,1.3.61,2.38.92,3.43a8.24,8.24,0,0,0,1.26,2.72,3.88,3.88,0,0,0,1,.93c.36.23.81.57,1.18.36s.09-.73,0-1.09c-.84-4.38.9-8,3.36-11.38a60.26,60.26,0,0,0,4.86-7.21,14.62,14.62,0,0,0,1.58-10.57c-.07-.32-.28-.76.4-.53a31.92,31.92,0,0,1,11.73,6.32,17.87,17.87,0,0,1,5.88,14.59,65.15,65.15,0,0,1-.83,6.84,5.22,5.22,0,0,0-.07,1.11,1.42,1.42,0,0,0,2.08,1.16c1-.59,1.87-1.32,2.81-2s.92-.65,1.34.34a26.83,26.83,0,0,1,2,11.36c0,.26,0,.51,0,.77,0,0,0,0,.12.1.41-.24.85-.5,1.29-.74s.47-.11.48.27c.29,5.71-.07,11.31-3.44,16.21-2.83,4.11-7,5.88-11.82,6.37A25.38,25.38,0,0,1,207,174a6.8,6.8,0,0,0-2.38.07c-4.71.68-9.35.59-13.72-1.63a14.78,14.78,0,0,1-7.51-9.42,31.71,31.71,0,0,1-1.08-11.43A1.55,1.55,0,0,1,182.4,151.34Zm32.38,19.06.31-.21A4,4,0,0,0,217.2,169a16.65,16.65,0,0,0,6.09-8,17.43,17.43,0,0,0,.55-8.57,14.19,14.19,0,0,0-1.54-4.7c-.28-.47-.5-.52-.94-.23-.78.53-1.58,1-2.38,1.53a1.14,1.14,0,0,1-1.37,0,1.12,1.12,0,0,1-.57-1.07c.19-1.59.56-3.14.73-4.74a15,15,0,0,0-.47-5.78,12.84,12.84,0,0,0-4.36-6.33,27.77,27.77,0,0,0-10-4.86c-.71-.21-.44.29-.37.58a9.52,9.52,0,0,1-.52,6.14,26.51,26.51,0,0,1-4.48,6.58c-2.4,2.79-4.17,5.78-3.34,9.66.13.59-.1.6-.52.46a3.45,3.45,0,0,1-2.08-2,29.88,29.88,0,0,1-1.2-3.39.67.67,0,0,0-.28.35,29.84,29.84,0,0,0-1.66,4.3,23.51,23.51,0,0,0-.85,8.17,15.91,15.91,0,0,0,3.15,8.76,17.57,17.57,0,0,0,8.84,6.37,12.06,12.06,0,0,0,5,.74,11.63,11.63,0,0,0,2.43.09,13,13,0,0,0,7.53-2.41Z"/><path class="cls-4" d="M191.66,119.38c2.06,2.61,2.69,5.25,1.33,8.23a18.74,18.74,0,0,0-1.59,5.28c-1.5-2.1-2.73-4-2.62-6.52a6.43,6.43,0,0,1,1.15-2.84A11.44,11.44,0,0,0,191.66,119.38Z"/><path class="cls-5" d="M205,101.24a5.26,5.26,0,0,1,1.78,6.05,8.49,8.49,0,0,0-.1,5.15c-1.67-1.28-3.38-2.13-4.21-4a4.19,4.19,0,0,1,.65-4.44A11.32,11.32,0,0,0,205,101.24Z"/><path class="cls-6" d="M230,148.57a13.81,13.81,0,0,0-1.48-2.34,3.31,3.31,0,0,1-.31-3.64,10.86,10.86,0,0,0,1.22-3.19c0-.13.07-.22.21-.22s.15.11.2.22c.36.83.69,1.66,1.1,2.47C232.17,144.26,231.55,146.4,230,148.57Z"/><path class="cls-7" d="M204.62,172.87a12.06,12.06,0,0,1-5-.74,17.57,17.57,0,0,1-8.84-6.37,15.91,15.91,0,0,1-3.15-8.76,23.51,23.51,0,0,1,.85-8.17,29.84,29.84,0,0,1,1.66-4.3.67.67,0,0,1,.28-.35,29.88,29.88,0,0,0,1.2,3.39,3.45,3.45,0,0,0,2.08,2c.42.14.65.13.52-.46-.83-3.88.94-6.87,3.34-9.66a26.51,26.51,0,0,0,4.48-6.58,9.52,9.52,0,0,0,.52-6.14c-.07-.29-.34-.79.37-.58a27.77,27.77,0,0,1,10,4.86,12.84,12.84,0,0,1,4.36,6.33,15,15,0,0,1,.47,5.78c-.17,1.6-.54,3.15-.73,4.74a1.12,1.12,0,0,0,.57,1.07,1.14,1.14,0,0,0,1.37,0c.8-.49,1.6-1,2.38-1.53.44-.29.66-.24.94.23a14.19,14.19,0,0,1,1.54,4.7,17.43,17.43,0,0,1-.55,8.57,16.65,16.65,0,0,1-6.09,8,4,4,0,0,1-2.11,1.22.65.65,0,0,1,.26-.43,11.55,11.55,0,0,0,3.26-4.76,15,15,0,0,0,.37-8.62,16,16,0,0,0-1.53-4.17,3,3,0,0,0-.45,1.14,4.52,4.52,0,0,1-1.17,2.26c-.24.24-.48.58-.87.4s-.2-.56-.18-.85a5.79,5.79,0,0,0,0-1.95c-.52-2.18-1.92-3.8-3.28-5.47-1.91-2.36-3.27-4.93-2.75-8.11.1-.62-.16-.45-.5-.36a17.93,17.93,0,0,0-4.14,1.66c-3.9,2.11-6.21,5.18-6,9.81a25.28,25.28,0,0,0,.45,3.48c.09.47.25,1-.24,1.35a1.2,1.2,0,0,1-1.44-.16,8.66,8.66,0,0,1-1.06-.73c-.47-.43-.75-.4-1,.21a14.52,14.52,0,0,0-1.16,4.64,11.81,11.81,0,0,0,5.32,10.9,7.51,7.51,0,0,0,3.52,1.66Z"/><path class="cls-8" d="M202.58,172.09a7.51,7.51,0,0,1-3.52-1.66,11.81,11.81,0,0,1-5.32-10.9,14.52,14.52,0,0,1,1.16-4.64c.25-.61.53-.64,1-.21a8.66,8.66,0,0,0,1.06.73,1.2,1.2,0,0,0,1.44.16c.49-.35.33-.88.24-1.35a25.28,25.28,0,0,1-.45-3.48c-.25-4.63,2.06-7.7,6-9.81a17.93,17.93,0,0,1,4.14-1.66c.34-.09.6-.26.5.36-.52,3.18.84,5.75,2.75,8.11,1.36,1.67,2.76,3.29,3.28,5.47a5.79,5.79,0,0,1,0,1.95c0,.29-.19.68.18.85s.63-.16.87-.4a4.52,4.52,0,0,0,1.17-2.26,3,3,0,0,1,.45-1.14,16,16,0,0,1,1.53,4.17,15,15,0,0,1-.37,8.62,11.55,11.55,0,0,1-3.26,4.76.65.65,0,0,0-.26.43l-.31.21-.2.15a13,13,0,0,1-7.53,2.41.6.6,0,0,1,.15-.09c4.65-.8,7.64-5.39,5.82-10.57-.17-.49-.33-.83-.91-.35-.3.24-.62.73-1.1.41s-.16-.79-.18-1.2a2.13,2.13,0,0,1,.1-.42c.67-4.53-1.44-6.81-5.39-8.26-.4-.15-.56-.08-.48.43a4.75,4.75,0,0,1-.41,2.77,17.93,17.93,0,0,1-1.91,2.95,4.93,4.93,0,0,0-1.09,3.36c0,.2.17.5-.14.59s-.4-.17-.55-.35c-.44-.54-.43-1.27-.8-1.93a11,11,0,0,0-.71,7.6A8.14,8.14,0,0,0,202.58,172.09Z"/><path class="cls-9" d="M202.58,172.09a8.14,8.14,0,0,1-3.13-4.19,11,11,0,0,1,.71-7.6c.37.66.36,1.39.8,1.93.15.18.3.42.55.35s.16-.39.14-.59a4.93,4.93,0,0,1,1.09-3.36,17.93,17.93,0,0,0,1.91-2.95,4.75,4.75,0,0,0,.41-2.77c-.08-.51.08-.58.48-.43,4,1.45,6.06,3.73,5.39,8.26a2.13,2.13,0,0,0-.1.42c0,.41-.26.91.18,1.2s.8-.17,1.1-.41c.58-.48.74-.14.91.35,1.82,5.18-1.17,9.77-5.82,10.57a.6.6,0,0,0-.15.09,11.63,11.63,0,0,1-2.43-.09Z"/><path class="cls-7" d="M214.58,170.55l.2-.15Z"/><text class="cls-10" transform="translate(64.47 75.53)"><tspan xml:space="preserve">  </tspan><tspan x="0" y="27.77"> </tspan><tspan x="0" y="83.32"> </tspan><tspan x="0" y="138.86"> </tspan></text><path class="cls-11" d="M114.33,139.21s23.23,16.73,41-16.91"/><path class="cls-12" d="M151.26,106.42a1.52,1.52,0,0,1,2-1h0a1.84,1.84,0,0,1,1.57,1.82l-.26,1.86a4,4,0,0,1,.57-.73l4.69-8.07a1.82,1.82,0,0,1,2.36-.43,1.54,1.54,0,0,1,.93,2l-2.81,4.84a8.1,8.1,0,0,1,1.43.25l3.27-5.64a1.82,1.82,0,0,1,2.36-.43,1.54,1.54,0,0,1,.93,2L165,108.61a8.7,8.7,0,0,1,1.12,1.06l2.72-4.7a1.82,1.82,0,0,1,2.36-.43,1.53,1.53,0,0,1,.93,2l-5,8.64,0,.06s0,.1-.07.14l-3.72,6.4c-1.5,2.59-5.56,3.33-9,1.63-2.72-1.33-4.28-3.78-4.1-6Z"/><rect class="cls-13" x="0.02" y="257.35" width="348" height="24.23"/><path class="cls-14" d="M84,26c-37.09,0-67.16,9.17-67.16,48.32,0,9.93,1.32,19.94,2.71,29.75,1.54,10.9,4.61,21.76,7.46,32.39,1.26,4.68,2.61,8.78,2.12,13.69-.42,4.3-2.63,8.68-4.55,12.55C19.41,173.18,18,184,21.86,195.12c2.55,7.42,8.7,13.32,15.59,17,14.29,7.69,19.93,7.3,49.09,7.3,17.3,0,35.34-1.32,49.53-12.43a37.69,37.69,0,0,0,12.45-17.82,42.6,42.6,0,0,0,2.09-10.27c.75-6-1.2-13.57-3.44-19-3.37-8.12-6.63-18.94-4.41-27.84,5.17-20.74,8.41-48.06,8.41-58.57C151.17,34.38,121.1,26,84,26"/><polyline class="cls-14" points="91.18 212.85 97.62 263.54 105.34 263.54 111.78 211.71"/><polygon class="cls-15" points="105.34 263.54 108.31 239.56 94.57 239.56 97.12 261.78 105.34 263.54"/><path class="cls-16" d="M96.49,264.81a13,13,0,0,1,26,0"/><polyline class="cls-14" points="62.47 213.18 68.91 263.88 76.62 263.88 83.06 212.04"/><polygon class="cls-15" points="76.62 263.88 79.6 239.89 65.86 239.89 68.4 262.11 76.62 263.88"/><path class="cls-16" d="M67.78,265.14a13,13,0,0,1,25.94,0"/><path class="cls-17" d="M101.52,65.6S99,74,89.9,70.82"/><path class="cls-17" d="M131.88,66.47s2.82,8,11.29,3.36"/><path class="cls-18" d="M102.71,99.9s2.53-7.62,14.27-7.17,12.52,7.67,12.52,7.67Z"/><path class="cls-2" d="M121.21,85.19c0-5.34,4.62-9.67,10.31-9.67s10.32,4.33,10.32,9.67"/><path class="cls-18" d="M129,85.19a4.49,4.49,0,0,1,9,0"/><path class="cls-2" d="M90.52,85.19c0-5.34,4.65-9.67,10.38-9.67s10.37,4.33,10.37,9.67"/><path class="cls-18" d="M98.34,85.19a4.49,4.49,0,1,1,9,0"/><path class="cls-18" d="M91.58,80.28,86,78.08,91,82c-.06.22-.11.43-.15.64L86,82l4.59,1.94a9.1,9.1,0,0,0,0,1c2.58-8.17,7.73-9.25,9.21-9.4C95,75.68,92.7,78,91.58,80.28Z"/><path class="cls-18" d="M99.74,75.54l.41,0Z"/><path class="cls-18" d="M146.39,82l-4.81.6c-.05-.21-.09-.42-.16-.64l4.92-3.87-5.55,2.2c-1.11-2.3-3.43-4.61-8.15-4.74,1.47.14,6.63,1.23,9.2,9.39a9,9,0,0,0-.05-1Z"/><path class="cls-18" d="M132.64,75.54l-.42,0Z"/><path class="cls-11" d="M62.47,152.73s27.7,2.81,39.33-33.4"/><path class="cls-12" d="M95.08,104.4c0-.79.78-1.39,1.79-1.33h0a1.85,1.85,0,0,1,1.87,1.52l.05,1.87a4.28,4.28,0,0,1,.45-.81l3.21-8.77a1.82,1.82,0,0,1,2.25-.83c1,.28,1.54,1.11,1.27,1.85L104,103.16a7.79,7.79,0,0,1,1.45,0L107.74,97A1.81,1.81,0,0,1,110,96.2c1,.28,1.54,1.11,1.27,1.85L109,104.17a7.39,7.39,0,0,1,1.29.85l1.87-5.1a1.81,1.81,0,0,1,2.25-.83c1,.28,1.54,1.11,1.27,1.85l-3.44,9.37,0,.07,0,.15-2.54,6.94c-1,2.82-4.91,4.25-8.61,3.18-2.91-.84-4.87-3-5.08-5.23Z"/><polygon class="cls-19" points="327.5 218.37 153.08 218.37 153.08 228.36 163.47 228.36 163.47 232.45 163.25 232.45 163.25 266.36 176.75 266.36 176.75 235.35 304.12 235.35 304.12 266.36 317.33 266.36 317.33 232.54 317.33 228.36 327.5 228.36 327.5 218.37"/><rect class="cls-20" x="170.74" y="215.79" width="7.24" height="2.84"/><rect class="cls-20" x="235.35" y="215.79" width="7.24" height="2.84"/><line class="cls-21" x1="205.98" y1="198.59" x2="205.98" y2="203.08"/><path class="cls-22" d="M193.37,201.5c0,2.06-1.13,1.66-2.51,1.66s-2.52.4-2.52-1.66,2.52-5.77,2.52-5.77S193.37,199.45,193.37,201.5Z"/><path class="cls-22" d="M198.86,201.5c0,2.06-1.13,1.66-2.52,1.66s-2.51.4-2.51-1.66,2.51-5.77,2.51-5.77S198.86,199.45,198.86,201.5Z"/><path class="cls-22" d="M204.51,201.5c0,2.06-1.12,1.66-2.51,1.66s-2.52.4-2.52-1.66,2.52-5.77,2.52-5.77S204.51,199.45,204.51,201.5Z"/><path class="cls-22" d="M212.69,201.5c0,2.06-1.12,1.66-2.51,1.66s-2.52.4-2.52-1.66,2.52-5.77,2.52-5.77S212.69,199.45,212.69,201.5Z"/><path class="cls-22" d="M218.52,201.5c0,2.06-1.13,1.66-2.52,1.66s-2.51.4-2.51-1.66,2.51-5.77,2.51-5.77S218.52,199.45,218.52,201.5Z"/><path class="cls-22" d="M224.26,201.5c0,2.06-1.13,1.66-2.52,1.66s-2.51.4-2.51-1.66,2.51-5.77,2.51-5.77S224.26,199.45,224.26,201.5Z"/><path class="cls-23" d="M192.5,202.17c0,1.35-.73,1.09-1.64,1.09s-1.65.26-1.65-1.09,1.65-3.78,1.65-3.78S192.5,200.83,192.5,202.17Z"/><path class="cls-23" d="M198,202.37c0,1.35-.74,1.09-1.65,1.09s-1.64.26-1.64-1.09,1.64-3.78,1.64-3.78S198,201,198,202.37Z"/><path class="cls-23" d="M203.65,202.17c0,1.35-.74,1.09-1.65,1.09s-1.65.26-1.65-1.09,1.65-3.78,1.65-3.78S203.65,200.83,203.65,202.17Z"/><path class="cls-23" d="M211.91,202.17c0,1.35-.73,1.09-1.64,1.09s-1.65.26-1.65-1.09,1.65-3.78,1.65-3.78S211.91,200.83,211.91,202.17Z"/><path class="cls-23" d="M217.61,202.17c0,1.35-.74,1.09-1.65,1.09s-1.65.26-1.65-1.09,1.65-3.78,1.65-3.78S217.61,200.83,217.61,202.17Z"/><path class="cls-23" d="M223.39,202.17c0,1.35-.74,1.09-1.65,1.09s-1.65.26-1.65-1.09,1.65-3.78,1.65-3.78S223.39,200.83,223.39,202.17Z"/><polyline class="cls-24" points="186.43 203.08 186.43 198.69 225.88 198.69 225.88 203.08"/><rect class="cls-25" x="170.74" y="203.08" width="71.84" height="12.71"/><circle class="cls-20" cx="206.66" cy="209.44" r="4.29"/><path class="cls-26" d="M179.89,165.06a1.68,1.68,0,0,0-.48-1.14,4,4,0,0,0,.85-.26h0c-.18-1.5-.32-2.78,1.93-2.77,15.14.08,30.29.09,45.43.12,3.59-.22,3.59-.22,3.8,3h0l0,6.24c0,6.78,0,13.56-.06,20.34,0,3.63-1.82,5.55-5.3,5.95h-40.8c-3.09-.49-4.26-1.64-4.82-4.76-.73-6.24-.13-15.49-.33-21.74"/><path class="cls-26" d="M225.77,196.41a1.15,1.15,0,0,1,.25.12A1.92,1.92,0,0,0,225.77,196.41Z"/><path class="cls-27" d="M180.18,163.65a4.56,4.56,0,0,0-.76-.07h-4.8c-2,0-3.6,1.26-3.6,2.81s1.62,2.8,3.6,2.8h4.8a4.56,4.56,0,0,0,.76-.07Z"/><path class="cls-27" d="M231.31,163.65a4.54,4.54,0,0,1,.75-.07h4.81c2,0,3.6,1.26,3.6,2.81s-1.62,2.8-3.6,2.8h-4.81a4.54,4.54,0,0,1-.75-.07Z"/><path class="cls-3" d="M230,61.37a21.09,21.09,0,0,1,1.91,1.08,28.39,28.39,0,0,1,2.65-14.07c.28,1,.48,1.88.73,2.72a6.75,6.75,0,0,0,1,2.16,3.31,3.31,0,0,0,.8.74c.29.18.65.45.94.28s.07-.58,0-.87c-.68-3.47.71-6.34,2.66-9a48.86,48.86,0,0,0,3.86-5.71,11.65,11.65,0,0,0,1.25-8.39c-.06-.26-.22-.6.32-.43a25.39,25.39,0,0,1,9.31,5,14.18,14.18,0,0,1,4.66,11.58,52.25,52.25,0,0,1-.66,5.43,4.33,4.33,0,0,0-.05.88,1.13,1.13,0,0,0,1.65.92c.77-.47,1.48-1,2.23-1.58s.73-.51,1.06.28a21.23,21.23,0,0,1,1.63,9c0,.2,0,.41,0,.61,0,0,0,0,.09.08l1-.59c.24-.13.36-.09.38.22.22,4.53-.06,9-2.74,12.86-2.24,3.26-5.55,4.66-9.37,5.05a20.21,20.21,0,0,1-5.86-.25,5.72,5.72,0,0,0-1.89,0c-3.74.55-7.42.47-10.88-1.28a11.77,11.77,0,0,1-6-7.48,25.23,25.23,0,0,1-.85-9.07A1.52,1.52,0,0,1,230,61.37Zm25.7,15.13.24-.17a3.31,3.31,0,0,0,1.68-1A13.19,13.19,0,0,0,262.41,69a13.66,13.66,0,0,0,.44-6.8,11.05,11.05,0,0,0-1.22-3.73c-.22-.37-.4-.42-.74-.18-.62.42-1.26.82-1.9,1.21a.9.9,0,0,1-1.08,0,.89.89,0,0,1-.45-.85c.15-1.26.44-2.5.57-3.77a11.79,11.79,0,0,0-.37-4.58,10.14,10.14,0,0,0-3.46-5,21.88,21.88,0,0,0-7.9-3.86c-.57-.17-.35.23-.29.46a7.54,7.54,0,0,1-.42,4.87A20.67,20.67,0,0,1,242,52c-1.9,2.21-3.31,4.59-2.65,7.67.1.47-.08.47-.42.37a2.81,2.81,0,0,1-1.65-1.62,25.41,25.41,0,0,1-.95-2.68.48.48,0,0,0-.22.27,24.77,24.77,0,0,0-1.32,3.41,18.68,18.68,0,0,0-.67,6.48,12.65,12.65,0,0,0,2.5,7,13.89,13.89,0,0,0,7,5.05,9.39,9.39,0,0,0,3.93.59,8.91,8.91,0,0,0,1.93.07,10.35,10.35,0,0,0,6-1.91Z"/><path class="cls-4" d="M237.31,36c1.64,2.08,2.14,4.17,1.06,6.53a15.2,15.2,0,0,0-1.26,4.19c-1.19-1.66-2.16-3.2-2.08-5.17a5.05,5.05,0,0,1,.92-2.25A9,9,0,0,0,237.31,36Z"/><path class="cls-5" d="M247.9,21.62a4.17,4.17,0,0,1,1.42,4.8,6.75,6.75,0,0,0-.09,4.09c-1.32-1-2.68-1.69-3.34-3.14a3.33,3.33,0,0,1,.52-3.52A9.05,9.05,0,0,0,247.9,21.62Z"/><path class="cls-6" d="M267.76,59.18a11,11,0,0,0-1.18-1.86,2.62,2.62,0,0,1-.24-2.89,8.84,8.84,0,0,0,1-2.53c0-.1.05-.18.16-.18s.12.1.16.18c.28.66.55,1.32.87,2C269.46,55.76,269,57.45,267.76,59.18Z"/><path class="cls-7" d="M247.6,78.46a9.39,9.39,0,0,1-3.93-.59,13.89,13.89,0,0,1-7-5.05,12.65,12.65,0,0,1-2.5-7,18.68,18.68,0,0,1,.67-6.48A24.77,24.77,0,0,1,236.15,56a.48.48,0,0,1,.22-.27,25.41,25.41,0,0,0,.95,2.68A2.81,2.81,0,0,0,239,60c.34.1.52.1.42-.37-.66-3.08.75-5.46,2.65-7.67a20.67,20.67,0,0,0,3.55-5.22,7.54,7.54,0,0,0,.42-4.87c-.06-.23-.28-.63.29-.46a21.88,21.88,0,0,1,7.9,3.86,10.14,10.14,0,0,1,3.46,5,11.79,11.79,0,0,1,.37,4.58c-.13,1.27-.42,2.51-.57,3.77a.89.89,0,0,0,.45.85.9.9,0,0,0,1.08,0c.64-.39,1.28-.79,1.9-1.21.34-.24.52-.19.74.18a11.05,11.05,0,0,1,1.22,3.73,13.66,13.66,0,0,1-.44,6.8,13.19,13.19,0,0,1-4.82,6.36,3.31,3.31,0,0,1-1.68,1,.55.55,0,0,1,.2-.34,9.06,9.06,0,0,0,2.59-3.77,11.85,11.85,0,0,0,.29-6.85,12.52,12.52,0,0,0-1.21-3.31,2.38,2.38,0,0,0-.35.91,3.68,3.68,0,0,1-.93,1.79c-.19.19-.38.46-.69.32s-.16-.45-.14-.67a4.73,4.73,0,0,0,0-1.55,11.15,11.15,0,0,0-2.61-4.34c-1.51-1.87-2.59-3.91-2.18-6.44.08-.49-.13-.35-.4-.28a14.15,14.15,0,0,0-3.29,1.32c-3.08,1.67-4.92,4.1-4.73,7.78a19.68,19.68,0,0,0,.37,2.76c.07.38.19.79-.2,1.07a1,1,0,0,1-1.14-.12,8.41,8.41,0,0,1-.84-.59c-.37-.34-.59-.31-.79.18a11.72,11.72,0,0,0-.93,3.68,9.37,9.37,0,0,0,4.23,8.64A5.92,5.92,0,0,0,246,77.84Z"/><path class="cls-8" d="M246,77.84a5.92,5.92,0,0,1-2.79-1.32A9.37,9.37,0,0,1,239,67.88a11.72,11.72,0,0,1,.93-3.68c.2-.49.42-.52.79-.18a8.41,8.41,0,0,0,.84.59,1,1,0,0,0,1.14.12c.39-.28.27-.69.2-1.07a19.68,19.68,0,0,1-.37-2.76c-.19-3.68,1.65-6.11,4.73-7.78a14.15,14.15,0,0,1,3.29-1.32c.27-.07.48-.21.4.28-.41,2.53.67,4.57,2.18,6.44a11.15,11.15,0,0,1,2.61,4.34,4.73,4.73,0,0,1,0,1.55c0,.22-.16.54.14.67s.5-.13.69-.32a3.68,3.68,0,0,0,.93-1.79,2.38,2.38,0,0,1,.35-.91A12.52,12.52,0,0,1,259,65.37a11.85,11.85,0,0,1-.29,6.85A9.06,9.06,0,0,1,256.11,76a.55.55,0,0,0-.2.34l-.24.17-.16.12a10.35,10.35,0,0,1-6,1.91.37.37,0,0,1,.12-.07c3.69-.64,6.06-4.28,4.62-8.39-.14-.38-.27-.65-.73-.28-.24.2-.49.58-.87.33s-.13-.63-.14-1c0-.1.06-.22.07-.33.54-3.59-1.14-5.4-4.27-6.55-.32-.12-.45-.06-.38.34a3.74,3.74,0,0,1-.33,2.2,14.82,14.82,0,0,1-1.51,2.34,3.9,3.9,0,0,0-.87,2.66c0,.17.14.4-.11.47s-.32-.13-.43-.27c-.35-.43-.35-1-.64-1.53a8.69,8.69,0,0,0-.56,6A6.43,6.43,0,0,0,246,77.84Z"/><path class="cls-28" d="M246,77.84a6.43,6.43,0,0,1-2.48-3.32,8.69,8.69,0,0,1,.56-6c.29.52.29,1.1.64,1.53.11.14.24.33.43.27s.13-.3.11-.47a3.9,3.9,0,0,1,.87-2.66,14.82,14.82,0,0,0,1.51-2.34,3.74,3.74,0,0,0,.33-2.2c-.07-.4.06-.46.38-.34,3.13,1.15,4.81,3,4.27,6.55,0,.11-.07.23-.07.33,0,.33-.21.73.14,1s.63-.13.87-.33c.46-.37.59-.1.73.28,1.44,4.11-.93,7.75-4.62,8.39a.37.37,0,0,0-.12.07,8.91,8.91,0,0,1-1.93-.07Z"/><path class="cls-7" d="M255.51,76.62l.16-.12Z"/><path class="cls-26" d="M228,72.26a1.3,1.3,0,0,0-.39-.9,3.34,3.34,0,0,0,.68-.21h0c-.15-1.19-.26-2.21,1.53-2.2,12,.07,24,.07,36.05.1,2.85-.18,2.85-.18,3,2.37h0l0,5c0,5.38,0,10.75,0,16.13,0,2.88-1.44,4.41-4.21,4.73H232.2c-2.45-.39-3.37-1.31-3.82-3.78-.58-5-.1-12.29-.26-17.25"/><path class="cls-26" d="M264.39,97.14a.58.58,0,0,1,.19.1Z"/><path class="cls-27" d="M228.21,71.14a3.94,3.94,0,0,0-.6,0h-3.82c-1.57,0-2.85,1-2.85,2.22s1.28,2.23,2.85,2.23h3.82a3.94,3.94,0,0,0,.6-.05Z"/><path class="cls-27" d="M268.78,71.14a3.83,3.83,0,0,1,.6,0h3.81c1.57,0,2.86,1,2.86,2.22s-1.29,2.23-2.86,2.23h-3.81a3.83,3.83,0,0,1-.6-.05Z"/><path class="cls-27" d="M290,202.45a.88.88,0,0,1-.09-.38l0-2.41c0-1,1.61-1.81,3.59-1.82s3.6.78,3.61,1.77l0,2.41a1,1,0,0,1-.08.38Z"/><path class="cls-26" d="M293.47,201.67c-14,.1-25.25,7.47-25.19,16.45l50.6-.35C318.81,208.78,307.44,201.57,293.47,201.67Z"/><path class="cls-2" d="M263.85,191.24a1.88,1.88,0,0,1-1.45-2c0-.3,0-.6,0-.91a1.9,1.9,0,0,1,1.39-2c.52-.14.56-.4.55-.84-.06-2.12.05-4.24-.11-6.36A12.38,12.38,0,0,0,262,173a29.63,29.63,0,0,0-3.62-3.89c-.41-.41-.73-.75-.09-1.21a.48.48,0,0,0,.17-.44l-.15-.1h-3.23l-.14.06c-1.12,0-2.24-.06-3.37,0a.57.57,0,0,0,.24.55c.46.35.3.62,0,.95-.79.75-1.56,1.53-2.33,2.31a12.49,12.49,0,0,0-3.74,9.05c0,1.66,0,3.32,0,5,0,.65-.05,1.24.83,1.29.12,0,.23.15.33.24,1,.91.68,2.1.58,3.2a1.26,1.26,0,0,1-1.05,1.15c-.53.13-.69.45-.69,1,0,7,0,14,0,20.94a7,7,0,0,0,1.9,4.8,1.07,1.07,0,0,0,.84.41c2.18,0,4.35,0,6.52,0h5.17a.24.24,0,0,1,.42,0,2.29,2.29,0,0,0,2.56-1.34,8.46,8.46,0,0,0,1.2-4.66c0-6.78,0-13.55,0-20.32A.61.61,0,0,0,263.85,191.24Zm-16.77-13h0Zm16.28,35.32a5.89,5.89,0,0,1-1.46,3.48,1,1,0,0,1-.85.34c-2,0-4.07,0-6.1,0v0l-6.23,0c-.84,0-1-.75-1.31-1.26a7,7,0,0,1-.9-3.62c0-6.61,0-13.22,0-19.83a.91.91,0,0,1,.54-1A3.35,3.35,0,0,0,248.4,188c-.2-1-.49-1.91-1.61-2.22-.22-.06-.25-.25-.25-.45,0-2.22,0-4.43,0-6.65,0-.08.07-.16.11-.24l.06,0a.1.1,0,0,0-.05,0l8.27,0c2.63,0,5.27,0,7.91,0,.42,0,.51.17.51.54,0,2.08,0,4.16,0,6.24,0,.31-.11.45-.42.6a3.86,3.86,0,0,0-1.41,3.84c.1.28.12.58.22.86a2.37,2.37,0,0,0,1.2,1.34.61.61,0,0,1,.4.69C263.38,199.56,263.4,206.59,263.36,213.61Z"/><path class="cls-27" d="M258.63,163.43c.08-.3-.07-.33-.31-.27H258a.28.28,0,0,0-.28,0,.1.1,0,0,0,0,.05.1.1,0,0,1,0-.05h-2.67c-1.12,0-2.23,0-3.35,0-.33,0-.45.1-.44.44,0,1.12,0,2.24,0,3.36,0,.21,0,.43.27.47,1.13-.07,2.25,0,3.37,0l.14-.06h2.68a.15.15,0,0,1,.26,0h.29l.15.1c.24-.1.26-.27.16-.48A25.7,25.7,0,0,0,258.63,163.43Z"/><path class="cls-29" d="M263,191.84a2.37,2.37,0,0,1-1.2-1.34c-.1-.28-.12-.58-.22-.86A3.86,3.86,0,0,1,263,185.8c.31-.15.42-.29.42-.6,0-2.08,0-4.16,0-6.24,0-.37-.09-.54-.51-.54-2.64,0-5.28,0-7.91,0l-8.28,0c0,.08-.11.16-.11.24,0,2.22,0,4.43,0,6.65,0,.2,0,.39.25.45,1.12.31,1.41,1.26,1.61,2.22a3.35,3.35,0,0,1-1.33,3.76.91.91,0,0,0-.54,1c0,6.61,0,13.22,0,19.83a7,7,0,0,0,.9,3.62c.3.51.47,1.26,1.31,1.26l6.23,0v0c2,0,4.06,0,6.1,0a1,1,0,0,0,.85-.34,5.89,5.89,0,0,0,1.46-3.48c0-7,0-14.05,0-21.08A.61.61,0,0,0,263,191.84Z"/><path class="cls-30" d="M263,191.9a2.43,2.43,0,0,1-1.2-1.37c-.1-.29-.12-.6-.22-.89a4,4,0,0,1,1.41-3.95.6.6,0,0,0,.42-.62c0-2.14,0-4.28,0-6.41,0-.38-.09-.56-.51-.56-2.64,0-5.28,0-7.91,0l-8.28,0c0,.08-.11.16-.11.24q0,3.43,0,6.85c0,.2,0,.4.25.46,1.12.32,1.41,1.3,1.61,2.29a3.49,3.49,0,0,1-1.33,3.86,1,1,0,0,0-.54,1c0,6.8,0,13.6,0,20.39a7.41,7.41,0,0,0,.9,3.73c.3.52.47,1.3,1.31,1.3l6.23,0v0l6.1,0a.9.9,0,0,0,.85-.35,6.09,6.09,0,0,0,1.46-3.57c0-7.23,0-14.46,0-21.69A.64.64,0,0,0,263,191.9Z"/><path class="cls-31" d="M257.77,168.12a.15.15,0,0,1,.26,0Z"/><line class="cls-32" x1="246.07" y1="194.12" x2="263.74" y2="194.12"/><line class="cls-32" x1="246.07" y1="197.59" x2="263.74" y2="197.59"/><line class="cls-32" x1="246.07" y1="200.63" x2="263.74" y2="200.63"/><line class="cls-32" x1="246.07" y1="204.1" x2="263.74" y2="204.1"/><line class="cls-32" x1="246.07" y1="207.53" x2="263.74" y2="207.53"/><line class="cls-32" x1="246.07" y1="211" x2="263.74" y2="211"/><path class="cls-33" d="M302.34,73.77a1.63,1.63,0,0,1-1.25-1.71c0-.26,0-.53,0-.79a1.65,1.65,0,0,1,1.2-1.7c.45-.13.49-.35.48-.73,0-1.84.05-3.67-.09-5.51a10.76,10.76,0,0,0-1.93-5.4,25,25,0,0,0-3.14-3.37c-.35-.36-.63-.65-.07-1.05a.45.45,0,0,0,.15-.38l-.14-.09h-2.8l-.11.06a28.44,28.44,0,0,0-2.92,0,.49.49,0,0,0,.2.48c.4.3.26.54,0,.82-.68.66-1.35,1.33-2,2a10.77,10.77,0,0,0-3.24,7.85c0,1.43,0,2.87,0,4.31,0,.55,0,1.07.72,1.12.1,0,.2.12.29.2.89.79.58,1.82.5,2.77a1.11,1.11,0,0,1-.91,1c-.46.11-.6.39-.6.88,0,6,0,12.1,0,18.15a6,6,0,0,0,1.65,4.16.92.92,0,0,0,.72.35c1.89,0,3.77,0,5.65,0h4.48a.22.22,0,0,1,.37,0A2,2,0,0,0,301.71,96a7.46,7.46,0,0,0,1.05-4c0-5.87,0-11.73,0-17.6A.52.52,0,0,0,302.34,73.77ZM287.81,62.55h0Z"/><path class="cls-27" d="M297.83,49.67c.06-.26-.07-.29-.28-.23h-.24a.21.21,0,0,0-.24,0l0,0,0,0h-2.31l-2.91,0c-.29,0-.38.08-.38.37,0,1,0,1.95,0,2.92,0,.18,0,.37.24.4a28.44,28.44,0,0,1,2.92,0l.11-.06h2.32c.08-.08.16-.09.23,0h.25l.14.09c.2-.09.22-.24.13-.42A22,22,0,0,0,297.83,49.67Z"/><path class="cls-29" d="M301.6,74.29a2,2,0,0,1-1-1.16c-.09-.24-.11-.51-.2-.75a3.33,3.33,0,0,1,1.23-3.32c.26-.14.36-.25.36-.53,0-1.8,0-3.6,0-5.4,0-.32-.08-.47-.44-.47-2.29,0-4.58,0-6.86,0l-7.17,0c0,.07-.1.14-.1.21l0,5.76c0,.17,0,.34.22.39,1,.27,1.22,1.1,1.4,1.93a2.91,2.91,0,0,1-1.15,3.25.79.79,0,0,0-.47.83c0,5.73,0,11.46,0,17.19a6,6,0,0,0,.78,3.13c.26.45.4,1.1,1.13,1.1l5.4,0v0l5.29,0a.85.85,0,0,0,.74-.29,5.13,5.13,0,0,0,1.26-3c0-6.09,0-12.18,0-18.27A.54.54,0,0,0,301.6,74.29Z"/><path class="cls-30" d="M301.6,74.35a2,2,0,0,1-1-1.19c-.09-.25-.11-.53-.2-.78A3.5,3.5,0,0,1,301.59,69a.53.53,0,0,0,.36-.54c0-1.85,0-3.7,0-5.55,0-.33-.08-.49-.44-.48l-6.86,0-7.17,0c0,.07-.1.14-.1.21l0,5.94c0,.17,0,.34.22.4,1,.28,1.22,1.12,1.4,2a3.05,3.05,0,0,1-1.15,3.35.81.81,0,0,0-.47.85c0,5.89,0,11.78,0,17.68a6.32,6.32,0,0,0,.78,3.22c.26.46.4,1.13,1.13,1.13l5.4,0v0l5.29,0a.83.83,0,0,0,.74-.3,5.33,5.33,0,0,0,1.26-3.09c0-6.27,0-12.54,0-18.8A.55.55,0,0,0,301.6,74.35Z"/><path class="cls-31" d="M297.07,53.74c.08-.09.16-.09.23,0Z"/><line class="cls-34" x1="286.94" y1="76.26" x2="302.25" y2="76.26"/><line class="cls-34" x1="286.94" y1="79.27" x2="302.25" y2="79.27"/><line class="cls-34" x1="286.94" y1="81.91" x2="302.25" y2="81.91"/><line class="cls-34" x1="286.94" y1="84.91" x2="302.25" y2="84.91"/><line class="cls-34" x1="286.94" y1="87.89" x2="302.25" y2="87.89"/><line class="cls-34" x1="286.94" y1="90.89" x2="302.25" y2="90.89"/><polygon class="cls-35" points="272.76 42.72 277.8 48.73 291.19 34.75 277.63 45.46 272.76 42.72"/></svg>