<svg id="Layer_1" data-name="Layer 1" xmlns="http://www.w3.org/2000/svg" viewBox="0 0 348 282.35"><defs><style>.cls-1{fill:#f8d979;}.cls-10,.cls-14,.cls-17,.cls-2,.cls-24,.cls-25,.cls-31{fill:none;}.cls-2,.cls-31{stroke:#0f8ab2;}.cls-10,.cls-2,.cls-31{stroke-linecap:round;}.cls-10,.cls-14,.cls-17,.cls-2,.cls-24,.cls-25,.cls-31,.cls-32,.cls-33{stroke-miterlimit:10;}.cls-2{stroke-width:5px;}.cls-3{fill:#a2cced;}.cls-22,.cls-32,.cls-4{fill:#fff;}.cls-5{font-size:11.57px;fill:#231f20;font-family:MyriadPro-Regular, Myriad Pro;}.cls-6{fill:#ffcb05;}.cls-7{fill:#00a1cd;}.cls-8{fill:#5652a3;}.cls-9{fill:#504b48;}.cls-10{stroke:#0d4060;stroke-width:2.01px;}.cls-11{fill:#0d4060;}.cls-12{fill:#fbad18;}.cls-13{fill:#282b2b;}.cls-14,.cls-17{stroke:#282b2b;}.cls-14{stroke-width:2.06px;}.cls-15{fill:#f47920;}.cls-16{fill:#ad3624;}.cls-17{stroke-width:1.96px;}.cls-18{fill:#61686c;}.cls-19{fill:#777;}.cls-20{fill:#383838;}.cls-21{fill:#fdc642;}.cls-22{opacity:0.15;}.cls-23{fill:#52656c;}.cls-24{stroke:#fff;stroke-width:0.8px;opacity:0.51;}.cls-25,.cls-32,.cls-33{stroke:#231f20;}.cls-25{stroke-width:0.22px;}.cls-26{fill:#e04026;}.cls-27{fill:#e24226;}.cls-28{fill:#f6871f;}.cls-29{fill:#fdde13;}.cls-30{fill:#fffffc;opacity:0.71;}.cls-31{stroke-width:5.38px;}.cls-32,.cls-33{stroke-width:0.23px;}.cls-33{fill:#4ab749;}</style></defs><polyline class="cls-1" points="-0.04 282.35 -0.04 0 347.95 0 347.95 282.35"/><path class="cls-2" d="M120.39,156.82s27.55,4.05,40.8-31.59"/><path class="cls-3" d="M155.15,110c0-.79.84-1.35,1.84-1.25h0a1.85,1.85,0,0,1,1.8,1.61l0,1.87a5,5,0,0,1,.48-.8l3.61-8.61a1.81,1.81,0,0,1,2.28-.72,1.53,1.53,0,0,1,1.19,1.9l-2.16,5.16a8.72,8.72,0,0,1,1.44.06l2.52-6a1.83,1.83,0,0,1,2.29-.73c1,.32,1.49,1.18,1.18,1.9l-2.52,6a7.91,7.91,0,0,1,1.25.92l2.1-5a1.82,1.82,0,0,1,2.29-.72c.95.32,1.49,1.18,1.18,1.9L172,116.69a.43.43,0,0,0,0,.07s0,.1-.05.14l-2.86,6.83c-1.16,2.76-5.09,4-8.74,2.78-2.87-1-4.73-3.2-4.84-5.45Z"/><path class="cls-4" d="M170.33,80.24a4.64,4.64,0,1,1,4.71-4.6A4.67,4.67,0,0,1,170.33,80.24Z"/><path class="cls-4" d="M187.54,77.47A8.57,8.57,0,1,1,196.22,69,8.63,8.63,0,0,1,187.54,77.47Z"/><text class="cls-5" transform="translate(66.41 75.31)"><tspan xml:space="preserve">  </tspan><tspan x="0" y="27.77"> </tspan><tspan x="0" y="83.32"> </tspan><tspan x="0" y="138.86"> </tspan></text><rect class="cls-6" x="-0.04" y="258.12" width="348" height="24.23"/><path class="cls-7" d="M85.94,25.78c-37.1,0-67.17,9.17-67.17,48.32,0,9.93,1.32,19.94,2.71,29.76C23,114.75,26.09,125.61,29,136.25c1.26,4.67,2.6,8.77,2.12,13.68-.42,4.3-2.63,8.68-4.55,12.56C21.34,173,20,183.72,23.8,194.89c2.54,7.42,8.7,13.33,15.59,17,14.28,7.68,19.92,7.29,49.09,7.29,17.3,0,35.34-1.32,49.53-12.43A37.62,37.62,0,0,0,150.45,189a42.69,42.69,0,0,0,2.1-10.28c.75-5.95-1.2-13.57-3.44-19-3.37-8.11-6.63-18.94-4.41-27.84,5.16-20.73,8.4-48.06,8.4-58.57,0-39.15-30.07-47.53-67.16-47.53"/><polyline class="cls-7" points="93.11 212.62 99.55 263.32 107.27 263.32 113.71 211.48"/><polygon class="cls-8" points="107.27 263.32 110.25 239.33 96.51 239.33 99.05 261.55 107.27 263.32"/><path class="cls-9" d="M98.43,264.58a13,13,0,0,1,25.94,0"/><polyline class="cls-7" points="64.4 212.95 70.84 263.65 78.56 263.65 85 211.81"/><polygon class="cls-8" points="78.56 263.65 81.54 239.66 67.79 239.66 70.34 261.88 78.56 263.65"/><path class="cls-9" d="M69.71,264.91a13,13,0,0,1,26,0"/><path class="cls-10" d="M92.06,72s2.54-8.34,11.65-5.16"/><path class="cls-10" d="M144.29,72.42s-.65-8.43-10-6.18"/><path class="cls-11" d="M131.61,92.87s-2.6,7.59-14.33,7-12.46-7.79-12.46-7.79Z"/><path class="cls-4" d="M123.14,85c0-5.34,4.62-9.67,10.32-9.67s10.32,4.33,10.32,9.67"/><path class="cls-11" d="M131,85a4.49,4.49,0,1,1,9,0"/><path class="cls-4" d="M92.46,85c0-5.34,4.64-9.67,10.37-9.67s10.38,4.33,10.38,9.67"/><path class="cls-11" d="M100.27,85a4.49,4.49,0,0,1,9,0"/><path class="cls-11" d="M93.52,80.06,88,77.85l4.92,3.87c-.06.23-.11.44-.16.64l-4.81-.6,4.6,1.94a9.1,9.1,0,0,0,0,1c2.57-8.17,7.73-9.25,9.2-9.39C97,75.45,94.63,77.75,93.52,80.06Z"/><path class="cls-11" d="M101.67,75.32c.15,0,.27,0,.42,0A4.06,4.06,0,0,0,101.67,75.32Z"/><path class="cls-11" d="M148.33,81.76l-4.82.6c0-.21-.09-.42-.15-.64l4.92-3.87-5.55,2.2c-1.12-2.3-3.43-4.6-8.16-4.74,1.48.15,6.63,1.23,9.21,9.4a9.1,9.1,0,0,0-.05-1Z"/><path class="cls-11" d="M134.57,75.31l-.41,0Z"/><path class="cls-2" d="M53.85,151.55s22.66,16.18,50.72-9.49"/><path class="cls-3" d="M106.14,125.76a1.52,1.52,0,0,1,2.21-.27h0a1.84,1.84,0,0,1,.87,2.25l-.88,1.66a4.32,4.32,0,0,1,.79-.49l7.13-6a1.82,1.82,0,0,1,2.37.4,1.54,1.54,0,0,1,.19,2.23l-4.29,3.61a8.37,8.37,0,0,1,1.27.71l5-4.2a1.82,1.82,0,0,1,2.37.4,1.53,1.53,0,0,1,.18,2.23l-5,4.2a7.41,7.41,0,0,1,.69,1.38l4.16-3.5a1.82,1.82,0,0,1,2.37.4,1.53,1.53,0,0,1,.18,2.23l-7.63,6.43-.07.05-.11.1-5.66,4.77c-2.29,1.93-6.36,1.25-9-1.51-2.1-2.18-2.75-5-1.82-7.06Z"/><polygon class="cls-12" points="329.43 218.15 155.02 218.15 155.02 228.13 165.41 228.13 165.41 232.22 165.19 232.22 165.19 266.13 178.68 266.13 178.68 235.12 306.06 235.12 306.06 266.13 319.26 266.13 319.26 232.31 319.26 228.13 329.43 228.13 329.43 218.15"/><rect class="cls-13" x="172.68" y="215.56" width="7.24" height="2.84"/><rect class="cls-13" x="237.28" y="215.56" width="7.24" height="2.84"/><line class="cls-14" x1="207.91" y1="198.36" x2="207.91" y2="202.85"/><path class="cls-15" d="M195.31,201.28c0,2.05-1.13,1.65-2.52,1.65s-2.51.4-2.51-1.65,2.51-5.78,2.51-5.78S195.31,199.22,195.31,201.28Z"/><path class="cls-15" d="M200.79,201.28c0,2.05-1.12,1.65-2.51,1.65s-2.52.4-2.52-1.65,2.52-5.78,2.52-5.78S200.79,199.22,200.79,201.28Z"/><path class="cls-15" d="M206.45,201.28c0,2.05-1.13,1.65-2.52,1.65s-2.51.4-2.51-1.65,2.51-5.78,2.51-5.78S206.45,199.22,206.45,201.28Z"/><path class="cls-15" d="M214.63,201.28c0,2.05-1.13,1.65-2.52,1.65s-2.51.4-2.51-1.65,2.51-5.78,2.51-5.78S214.63,199.22,214.63,201.28Z"/><path class="cls-15" d="M220.45,201.28c0,2.05-1.12,1.65-2.51,1.65s-2.52.4-2.52-1.65,2.52-5.78,2.52-5.78S220.45,199.22,220.45,201.28Z"/><path class="cls-15" d="M226.19,201.28c0,2.05-1.12,1.65-2.51,1.65s-2.52.4-2.52-1.65,2.52-5.78,2.52-5.78S226.19,199.22,226.19,201.28Z"/><path class="cls-16" d="M194.44,202c0,1.34-.74,1.08-1.65,1.08s-1.65.26-1.65-1.08,1.65-3.79,1.65-3.79S194.44,200.6,194.44,202Z"/><path class="cls-16" d="M199.93,202.14c0,1.35-.74,1.09-1.65,1.09s-1.65.26-1.65-1.09,1.65-3.78,1.65-3.78S199.93,200.8,199.93,202.14Z"/><path class="cls-16" d="M205.58,202c0,1.34-.73,1.08-1.65,1.08s-1.64.26-1.64-1.08,1.64-3.79,1.64-3.79S205.58,200.6,205.58,202Z"/><path class="cls-16" d="M213.85,202c0,1.34-.74,1.08-1.65,1.08s-1.65.26-1.65-1.08,1.65-3.79,1.65-3.79S213.85,200.6,213.85,202Z"/><path class="cls-16" d="M219.54,202c0,1.34-.73,1.08-1.64,1.08s-1.65.26-1.65-1.08,1.65-3.79,1.65-3.79S219.54,200.6,219.54,202Z"/><path class="cls-16" d="M225.33,202c0,1.34-.74,1.08-1.65,1.08S222,203.29,222,202s1.65-3.79,1.65-3.79S225.33,200.6,225.33,202Z"/><polyline class="cls-17" points="188.37 202.85 188.37 198.46 227.81 198.46 227.81 202.85"/><rect class="cls-18" x="172.68" y="202.85" width="71.84" height="12.71"/><circle class="cls-13" cx="208.6" cy="209.21" r="4.29"/><path class="cls-19" d="M181.83,164.84a1.67,1.67,0,0,0-.49-1.15,3.4,3.4,0,0,0,.86-.26h0c-.19-1.5-.33-2.78,1.92-2.77,15.15.09,30.29.09,45.44.12,3.58-.22,3.58-.22,3.8,3h0l-.05,6.24c0,6.78,0,13.56-.05,20.33,0,3.63-1.82,5.55-5.3,6H187.15c-3.09-.5-4.25-1.65-4.82-4.77-.72-6.24-.12-15.49-.32-21.74"/><path class="cls-19" d="M227.71,196.18l.25.12Z"/><path class="cls-20" d="M182.12,163.42a4.77,4.77,0,0,0-.76-.06h-4.81c-2,0-3.6,1.26-3.6,2.8s1.62,2.8,3.6,2.8h4.81a3.84,3.84,0,0,0,.76-.07Z"/><path class="cls-20" d="M233.24,163.42a4.77,4.77,0,0,1,.76-.06h4.81c2,0,3.6,1.26,3.6,2.8s-1.62,2.8-3.6,2.8H234a3.84,3.84,0,0,1-.76-.07Z"/><path class="cls-20" d="M291.89,202.22a1,1,0,0,1-.09-.38v-2.4c0-1,1.6-1.81,3.58-1.83s3.61.79,3.62,1.78v2.4a1,1,0,0,1-.08.38Z"/><path class="cls-19" d="M295.4,201.45c-14,.09-25.24,7.46-25.18,16.45l50.59-.36C320.75,208.55,309.37,201.35,295.4,201.45Z"/><path class="cls-20" d="M203.91,144.48a1,1,0,0,1-.08-.38v-2.4c0-1,1.63-1.8,3.61-1.79s3.6.83,3.59,1.82v2.41a.81.81,0,0,1-.09.37Z"/><path class="cls-19" d="M207.43,143.75c-14-.07-25.33,7.15-25.38,16.14l50.6.26C232.69,151.16,221.4,143.82,207.43,143.75Z"/><path class="cls-4" d="M265.78,191a1.9,1.9,0,0,1-1.45-2c0-.31,0-.61,0-.91a1.9,1.9,0,0,1,1.4-2c.51-.15.56-.41.55-.85-.07-2.12.05-4.24-.11-6.36a12.46,12.46,0,0,0-2.23-6.23,29.51,29.51,0,0,0-3.61-3.89c-.41-.41-.74-.75-.09-1.21a.48.48,0,0,0,.17-.44l-.16-.1H257l-.13.06c-1.12,0-2.25-.06-3.37,0a.6.6,0,0,0,.23.56c.47.34.3.61,0,.94-.79.75-1.57,1.53-2.33,2.31a12.42,12.42,0,0,0-3.74,9.05c0,1.66,0,3.32,0,5,0,.64,0,1.23.83,1.29.11,0,.23.14.33.24,1,.91.67,2.09.58,3.19a1.27,1.27,0,0,1-1.05,1.15c-.53.13-.7.45-.7,1,0,7,0,14,0,20.94a6.93,6.93,0,0,0,1.9,4.8,1.07,1.07,0,0,0,.84.41l6.51,0h5.18a.24.24,0,0,1,.42,0,2.28,2.28,0,0,0,2.55-1.34,8.47,8.47,0,0,0,1.21-4.66c0-6.77,0-13.55,0-20.32A.61.61,0,0,0,265.78,191ZM249,178.06h0Zm16.29,35.33a6,6,0,0,1-1.46,3.47,1,1,0,0,1-.86.34c-2,0-4.06,0-6.09,0v0l-6.24,0c-.84,0-1-.75-1.3-1.26a6.92,6.92,0,0,1-.91-3.62c.05-6.61,0-13.22,0-19.83a.93.93,0,0,1,.55-1,3.37,3.37,0,0,0,1.33-3.75c-.2-1-.49-1.91-1.62-2.23-.22-.06-.25-.25-.25-.44l0-6.66c0-.08.08-.16.12-.24l.06,0-.06,0,8.27,0c2.64,0,5.28,0,7.92,0,.42,0,.51.16.51.53q0,3.12,0,6.24c0,.31-.11.45-.42.6a3.84,3.84,0,0,0-1.41,3.84c.1.28.12.59.22.87a2.32,2.32,0,0,0,1.2,1.33.62.62,0,0,1,.4.69C265.32,199.33,265.33,206.36,265.3,213.39Z"/><path class="cls-20" d="M260.57,163.2c.08-.3-.08-.33-.31-.27H260a.24.24,0,0,0-.28,0l0,0,0,0H257l-3.36,0c-.33,0-.44.09-.43.43,0,1.12,0,2.24,0,3.36,0,.21,0,.44.28.47,1.12-.07,2.25,0,3.37,0l.13-.06h2.68a.16.16,0,0,1,.27,0h.28l.16.1c.23-.1.25-.27.16-.48A27.41,27.41,0,0,0,260.57,163.2Z"/><path class="cls-21" d="M264.92,191.61a2.32,2.32,0,0,1-1.2-1.33c-.1-.28-.12-.59-.22-.87a3.84,3.84,0,0,1,1.41-3.84c.31-.15.42-.29.42-.6q0-3.12,0-6.24c0-.37-.09-.54-.51-.53-2.64,0-5.28,0-7.92,0l-8.27,0c0,.08-.12.16-.12.24l0,6.66c0,.19,0,.38.25.44,1.13.32,1.42,1.27,1.62,2.23a3.37,3.37,0,0,1-1.33,3.75.93.93,0,0,0-.55,1c0,6.61,0,13.22,0,19.83a6.92,6.92,0,0,0,.91,3.62c.29.51.46,1.26,1.3,1.26l6.24,0v0c2,0,4.06,0,6.09,0a1,1,0,0,0,.86-.34,6,6,0,0,0,1.46-3.47c0-7,0-14.06,0-21.09A.62.62,0,0,0,264.92,191.61Z"/><path class="cls-22" d="M264.92,191.68a2.35,2.35,0,0,1-1.2-1.38c-.1-.28-.12-.6-.22-.89a4,4,0,0,1,1.41-3.94.61.61,0,0,0,.42-.63c0-2.14,0-4.27,0-6.41,0-.38-.09-.56-.51-.55-2.64,0-5.28,0-7.92,0l-8.27,0c0,.08-.12.16-.12.25l0,6.84c0,.2,0,.4.25.46,1.13.33,1.42,1.3,1.62,2.29a3.54,3.54,0,0,1-1.33,3.87.94.94,0,0,0-.55,1c0,6.8,0,13.6,0,20.4a7.28,7.28,0,0,0,.91,3.72c.29.53.46,1.3,1.3,1.3l6.24,0v0c2,0,4.06,0,6.09,0a1,1,0,0,0,.86-.35,6.21,6.21,0,0,0,1.46-3.58c0-7.23,0-14.46,0-21.69A.63.63,0,0,0,264.92,191.68Z"/><path class="cls-23" d="M259.7,167.89a.16.16,0,0,1,.27,0Z"/><line class="cls-24" x1="248" y1="193.89" x2="265.68" y2="193.89"/><line class="cls-24" x1="248" y1="197.36" x2="265.68" y2="197.36"/><line class="cls-24" x1="248" y1="200.4" x2="265.68" y2="200.4"/><line class="cls-24" x1="248" y1="203.87" x2="265.68" y2="203.87"/><line class="cls-24" x1="248" y1="207.3" x2="265.68" y2="207.3"/><line class="cls-24" x1="248" y1="210.77" x2="265.68" y2="210.77"/><path class="cls-4" d="M210.08,105a22.16,22.16,0,0,1-11-14.44,20.57,20.57,0,0,1,.55-11.76A21.57,21.57,0,0,1,205,70.3c.89-.87.88-.93.21-2.07A20.92,20.92,0,0,1,207.59,43,23.78,23.78,0,0,1,225,34.87a50.15,50.15,0,0,1,5,.2c.59,0,.92-.14,1.05-.83a13.72,13.72,0,0,1,.63-2.19A22.91,22.91,0,0,1,244.27,18.6a24.84,24.84,0,0,1,12.11-2.08A24.5,24.5,0,0,1,269.08,21,23,23,0,0,1,274.87,27a1.09,1.09,0,0,0,.14.23.78.78,0,0,0,1.19.08,25.51,25.51,0,0,1,9.44-3.61,25.14,25.14,0,0,1,15.63,2.39,22.61,22.61,0,0,1,8.12,6.74,20.54,20.54,0,0,1,4.29,15.25c-.09.77.11,1.09.8,1.26a38.75,38.75,0,0,1,5.57,1.57c4.71,1.83,7.81,5.34,10.56,10a20.53,20.53,0,0,1,2.54,13.83c-1.13,7-4,11.87-9.39,15.35A22.84,22.84,0,0,1,315,93.46c-1,.17-1.16.44-1,1.54a20.19,20.19,0,0,1-1.27,11.07,22.89,22.89,0,0,1-13,12.75,25.37,25.37,0,0,1-26-4.18,1.85,1.85,0,0,0-.14-.14.9.9,0,0,0-1.35.2,24.24,24.24,0,0,1-13.39,7.35,25.76,25.76,0,0,1-8.31.18A24.14,24.14,0,0,1,239.87,118a22.44,22.44,0,0,1-8.07-10.15c-.34-.86-.77-1-1.54-.77a24.52,24.52,0,0,1-7.8,1.32A25.22,25.22,0,0,1,210.08,105Z"/><path class="cls-1" d="M222,34.63,223,33.41s2.14-5.49,3.63-7.34,1.62-13,1.62-13l-2.35-2.24-10.64.1-14,1.71L217,34.43Z"/><path class="cls-25" d="M235.18,160.15s5.37-1.14,4.7-5.71-6.4-5-7.23-7.87.09-7.65,5.17-7.88,4.16,8.91,0,7.22,0-4.23,0-4.23"/><path class="cls-25" d="M240.72,159.4s4.1-1.34,2.17-5.69,1.15-5.46,1.15-5.46"/><path class="cls-26" d="M284,69.78l-1.1.63c-.07,0-.1-.06-.1-.08,0-.22,0-.44,0-.66A22.88,22.88,0,0,0,281,60c-.36-.84-.37-.84-1.15-.29s-1.56,1.18-2.4,1.69a1.2,1.2,0,0,1-1.77-1,3.83,3.83,0,0,1,.06-1c.2-1.49.47-3,.61-4.48-1.28,0-2.56,0-3.83,0a9.88,9.88,0,0,1,1.32,2.8,12.78,12.78,0,0,1,.4,4.93c-.14,1.36-.45,2.69-.62,4a.94.94,0,0,0,.49.91,1,1,0,0,0,1.16,0c.69-.42,1.37-.85,2-1.31.37-.25.57-.2.8.2a12.06,12.06,0,0,1,1.32,4,14.91,14.91,0,0,1-.47,7.32,14.32,14.32,0,0,1-5.2,6.85,3.61,3.61,0,0,1-1.8,1l-.27.17-.17.13a11.06,11.06,0,0,1-6.43,2.06A9.64,9.64,0,0,1,263,88a10.14,10.14,0,0,1-4.23-.63A15,15,0,0,1,251.24,82a13.53,13.53,0,0,1-2.68-7.48,19.84,19.84,0,0,1,.72-7,26.71,26.71,0,0,1,1.41-3.67.63.63,0,0,1,.24-.3,25.65,25.65,0,0,0,1,2.89,3,3,0,0,0,1.78,1.74c.36.12.55.11.44-.39-.71-3.32.81-5.87,2.85-8.26a28.52,28.52,0,0,0,2.9-3.85q-3.49.34-7,.74a9.85,9.85,0,0,0-.24,4.67c.07.32.3.76,0,.94s-.7-.11-1-.31a3.09,3.09,0,0,1-.86-.79,7,7,0,0,1-1.08-2.32c-.17-.57-.32-1.15-.48-1.77l-.84.09a30.26,30.26,0,0,0-2.31,13.9,20.3,20.3,0,0,0-2.06-1.17,1.49,1.49,0,0,0-.09.23,27.06,27.06,0,0,0,.92,9.77,12.66,12.66,0,0,0,6.42,8c3.73,1.89,7.69,2,11.71,1.38a6.07,6.07,0,0,1,2-.06,21.47,21.47,0,0,0,6.3.28c4.11-.42,7.68-1.93,10.09-5.44,2.88-4.19,3.19-9,2.95-13.84C284.37,69.69,284.23,69.64,284,69.78Z"/><path class="cls-27" d="M284.71,67.29a11.4,11.4,0,0,0-1.26-2,2.82,2.82,0,0,1-.26-3.11,9.4,9.4,0,0,0,1-2.73c0-.1,0-.18.17-.18s.14.1.18.19c.3.7.59,1.42.94,2.1C286.55,63.61,286,65.43,284.71,67.29Z"/><path class="cls-28" d="M278.12,66.54c-.23-.4-.43-.45-.8-.2-.67.46-1.35.89-2,1.31a1,1,0,0,1-1.16,0,.94.94,0,0,1-.49-.91c.17-1.36.48-2.69.62-4a12.78,12.78,0,0,0-.4-4.93,9.88,9.88,0,0,0-1.32-2.8c-4.21,0-8.41.34-12.6.74a28.52,28.52,0,0,1-2.9,3.85c-2,2.39-3.56,4.94-2.85,8.26.11.5-.08.51-.44.39A3,3,0,0,1,252,66.43a25.65,25.65,0,0,1-1-2.89.63.63,0,0,0-.24.3,26.71,26.71,0,0,0-1.41,3.67,19.84,19.84,0,0,0-.72,7A13.53,13.53,0,0,0,251.24,82a15,15,0,0,0,7.55,5.44A10.14,10.14,0,0,0,263,88l-1.74-.66a6.38,6.38,0,0,1-3-1.42,10.09,10.09,0,0,1-4.55-9.31,12.46,12.46,0,0,1,1-4c.21-.52.45-.55.85-.18a8.1,8.1,0,0,0,.91.62,1,1,0,0,0,1.22.13c.43-.29.29-.74.22-1.14a21.32,21.32,0,0,1-.39-3c-.22-4,1.76-6.58,5.09-8.37a15,15,0,0,1,3.53-1.42c.3-.08.52-.23.43.3-.44,2.72.72,4.92,2.35,6.93a12.08,12.08,0,0,1,2.81,4.67,5.19,5.19,0,0,1,0,1.67c0,.24-.17.58.15.73s.54-.15.75-.35a3.91,3.91,0,0,0,1-1.92,2.63,2.63,0,0,1,.38-1A13.8,13.8,0,0,1,275.29,74a12.86,12.86,0,0,1-.32,7.37,9.85,9.85,0,0,1-2.79,4.06.54.54,0,0,0-.21.37,3.61,3.61,0,0,0,1.8-1,14.32,14.32,0,0,0,5.2-6.85,14.91,14.91,0,0,0,.47-7.32A12.06,12.06,0,0,0,278.12,66.54Z"/><path class="cls-29" d="M261.28,87.38a6.38,6.38,0,0,1-3-1.42,10.09,10.09,0,0,1-4.55-9.31,12.46,12.46,0,0,1,1-4c.21-.52.45-.55.85-.18a8.1,8.1,0,0,0,.91.62,1,1,0,0,0,1.22.13c.43-.29.29-.74.22-1.14a21.32,21.32,0,0,1-.39-3c-.22-4,1.76-6.58,5.09-8.37a15,15,0,0,1,3.53-1.42c.3-.08.52-.23.43.3-.44,2.72.72,4.92,2.35,6.93a12.08,12.08,0,0,1,2.81,4.67,5.19,5.19,0,0,1,0,1.67c0,.24-.17.58.15.73s.54-.15.75-.35a3.91,3.91,0,0,0,1-1.92,2.63,2.63,0,0,1,.38-1A13.8,13.8,0,0,1,275.29,74a12.86,12.86,0,0,1-.32,7.37,9.85,9.85,0,0,1-2.79,4.06.54.54,0,0,0-.21.37l-.27.17-.17.13a11.06,11.06,0,0,1-6.43,2.06s.08-.07.12-.07c4-.69,6.53-4.61,5-9-.15-.42-.29-.71-.78-.3-.26.2-.54.62-.94.35s-.14-.68-.15-1a1.55,1.55,0,0,1,.08-.36c.57-3.87-1.23-5.81-4.6-7.05-.34-.13-.48-.07-.41.37a4,4,0,0,1-.36,2.36,14.87,14.87,0,0,1-1.63,2.52,4.2,4.2,0,0,0-.92,2.87c0,.17.14.43-.12.5s-.35-.14-.47-.29c-.38-.46-.37-1.09-.69-1.65a9.42,9.42,0,0,0-.61,6.49A7,7,0,0,0,261.28,87.38Z"/><path class="cls-30" d="M261.28,87.38a7,7,0,0,1-2.68-3.58,9.42,9.42,0,0,1,.61-6.49c.32.56.31,1.19.69,1.65.12.15.25.35.47.29s.13-.33.12-.5a4.2,4.2,0,0,1,.92-2.87A14.87,14.87,0,0,0,263,73.36,4,4,0,0,0,263.4,71c-.07-.44.07-.5.41-.37,3.37,1.24,5.17,3.18,4.6,7.05a1.55,1.55,0,0,0-.08.36c0,.35-.22.78.15,1s.68-.15.94-.35c.49-.41.63-.12.78.3,1.55,4.42-1,8.34-5,9,0,0-.08,0-.12.07A9.64,9.64,0,0,1,263,88Z"/><path class="cls-28" d="M271.53,86.06l.17-.13Z"/><path class="cls-19" d="M241.9,81.38a1.43,1.43,0,0,0-.41-1,2.94,2.94,0,0,0,.73-.23h0c-.16-1.27-.28-2.37,1.64-2.36,12.94.07,25.87.08,38.81.1,3.06-.19,3.06-.19,3.24,2.56h0l0,5.33c0,5.79,0,11.58-.05,17.37,0,3.1-1.56,4.74-4.53,5.08H246.45c-2.64-.43-3.64-1.41-4.12-4.07-.62-5.33-.1-13.23-.27-18.57"/><path class="cls-19" d="M281.09,108.15l.21.1Z"/><path class="cls-20" d="M242.15,80.17a3.49,3.49,0,0,0-.65-.06h-4.1c-1.69,0-3.08,1.08-3.08,2.4s1.39,2.39,3.08,2.39h4.1a3.49,3.49,0,0,0,.65-.06Z"/><path class="cls-20" d="M285.81,80.17a3.49,3.49,0,0,1,.65-.06h4.11c1.69,0,3.07,1.08,3.07,2.4s-1.38,2.39-3.07,2.39h-4.11a3.49,3.49,0,0,1-.65-.06Z"/><path class="cls-20" d="M252.37,50.17a.8.8,0,0,1-.18-.27L251.46,48c-.3-.78.72-1.91,2.28-2.51s3.07-.47,3.37.31l.74,1.89a.69.69,0,0,1,0,.32Z"/><path class="cls-19" d="M254.91,48.51C243.93,52.77,237.26,62,240,69l39.74-15.44C277,46.51,265.88,44.25,254.91,48.51Z"/><path class="cls-31" d="M221.06,19s-8.41,12.24,18.18,29.64"/><path class="cls-3" d="M252,43.61c.65,0,1.16.65,1.11,1.49h0a1.53,1.53,0,0,1-1.27,1.56l-1.57.05a3.52,3.52,0,0,1,.69.37l7.32,2.68a1.52,1.52,0,0,1,.7,1.88c-.24.81-.93,1.29-1.54,1.06L253,51.09a7.09,7.09,0,0,1,0,1.22l5.11,1.87a1.52,1.52,0,0,1,.7,1.88c-.24.81-.93,1.29-1.54,1.06l-5.12-1.87a7.46,7.46,0,0,1-.71,1.08l4.26,1.56a1.52,1.52,0,0,1,.7,1.88c-.24.81-.93,1.28-1.55,1.06L247,58l-.06,0-.13,0L241,55.77c-2.35-.86-3.55-4.1-2.66-7.19a5.51,5.51,0,0,1,4.37-4.25Z"/><path class="cls-1" d="M219.8,35.53,229,35s-3.59-6.58-2.1-8.43,1.62-13,1.62-13l-2.35-2.24-10.64.1-14,1.7,15.63,21.85Z"/><circle class="cls-32" cx="306.56" cy="48.38" r="13.02"/><path class="cls-33" d="M301,47.92a7.11,7.11,0,0,0-.9-.84A1.88,1.88,0,0,0,297.76,50l2.78,2.79c.57.56,1.12,1.13,1.69,1.68a1.85,1.85,0,0,0,2.57,0l.54-.54,5.75-5.74h0l.07-.08c1.11-1.11,2.22-2.24,3.35-3.34a1.94,1.94,0,0,0,.64-1.87,1.81,1.81,0,0,0-1.33-1.43,1.74,1.74,0,0,0-1.83.47l-4,4-3.33,3.31-1.24,1.18c-.35-.35-.7-.74-1.09-1.1Z"/></svg>