<?xml version="1.0" encoding="utf-8"?>
<!-- Generator: Adobe Illustrator 25.0.1, SVG Export Plug-In . SVG Version: 6.00 Build 0)  -->
<svg version="1.1" id="Layer_1" xmlns="http://www.w3.org/2000/svg" xmlns:xlink="http://www.w3.org/1999/xlink" x="0px" y="0px"
	 viewBox="0 0 348 282.4" style="enable-background:new 0 0 348 282.4;" xml:space="preserve">
<style type="text/css">
	.st0{fill:#F8D979;}
	.st1{fill:#FFFFFF;}
	.st2{fill:#E04026;}
	.st3{fill:#E24226;}
	.st4{fill:#F6871F;}
	.st5{fill:#FDDE13;}
	.st6{opacity:0.63;fill:#FFFFFC;enable-background:new    ;}
	.st7{fill:#231F20;}
	.st8{font-family:'MyriadPro-Regular';}
	.st9{font-size:11.57px;}
	.st10{fill:none;stroke:#0F8AB2;stroke-width:5;stroke-linecap:round;stroke-miterlimit:10;}
	.st11{fill:#A2CCED;}
	.st12{fill:#FFCB05;}
	.st13{fill:#00A1CD;}
	.st14{fill:#5652A3;}
	.st15{fill:#504B48;}
	.st16{fill:none;stroke:#0D4060;stroke-width:2.01;stroke-linecap:round;stroke-miterlimit:10;}
	.st17{fill:#0D4060;}
	.st18{fill:#FBAD18;}
	.st19{fill:#282B2B;}
	.st20{fill:none;stroke:#282B2B;stroke-width:2.06;stroke-miterlimit:10;}
	.st21{fill:#F47920;}
	.st22{fill:#AD3624;}
	.st23{fill:none;stroke:#282B2B;stroke-width:1.96;stroke-miterlimit:10;}
	.st24{fill:#61686C;}
	.st25{fill:#777777;}
	.st26{fill:#383838;}
	.st27{fill:#FDC642;}
	.st28{opacity:0.15;fill:#FFFFFF;enable-background:new    ;}
	.st29{fill:#52656C;}
	.st30{opacity:0.51;fill:none;stroke:#FFFFFF;stroke-width:0.8;stroke-miterlimit:10;enable-background:new    ;}
	.st31{opacity:0.71;fill:#FFFFFC;enable-background:new    ;}
	.st32{fill:none;stroke:#0F8AB2;stroke-width:5.38;stroke-linecap:round;stroke-miterlimit:10;}
	.st33{fill:#A2CCED;stroke:#8EB9D6;stroke-miterlimit:10;}
</style>
<polyline class="st0" points="0.2,282.4 0.2,0 348.2,0 348.2,282.4 "/>
<path class="st1" d="M169.6,81.2c-2.6,0-4.6-2.1-4.6-4.7c0-2.6,2.1-4.6,4.7-4.6c2.6,0,4.6,2.1,4.6,4.7
	C174.2,79.2,172.1,81.3,169.6,81.2z"/>
<path class="st1" d="M184.8,74.5c-4.7,0-8.6-3.8-8.6-8.6s3.8-8.6,8.6-8.6s8.6,3.8,8.6,8.6S189.5,74.5,184.8,74.5z"/>
<path class="st2" d="M226.3,152.3L225,153c-0.1-0.1-0.1-0.1-0.1-0.1c0-0.2,0-0.5,0-0.8c0.2-3.9-0.5-7.8-2-11.4c-0.4-1-0.4-1-1.3-0.4
	s-1.8,1.4-2.8,2c-0.7,0.4-1.5,0.1-1.9-0.6c-0.1-0.2-0.2-0.4-0.2-0.6c0-0.4,0-0.8,0.1-1.1c0.4-2.3,0.7-4.5,0.8-6.8
	c0-1-2.6,1.3-2.7,0.3c-2.3,0.6-1.9-2.1-4.2-1.4c1.8,1.6,3.2,3.6,3.9,5.9c0.5,1.9,0.7,3.8,0.5,5.8c-0.2,1.6-0.5,3.1-0.7,4.7
	c0,0.7,0.6,1.3,1.3,1.3c0.2,0,0.5-0.1,0.7-0.2c0.8-0.5,1.6-1,2.4-1.5c0.4-0.3,0.7-0.2,0.9,0.2c0.8,1.5,1.3,3.1,1.5,4.7
	c0.5,2.9,0.3,5.8-0.6,8.6c-1.2,3.2-3.3,6-6.1,8c-0.6,0.6-1.3,1-2.1,1.2l-0.3,0.2l-0.2,0.1c-2.2,1.6-4.8,2.4-7.5,2.4
	c-0.8,0.1-1.6,0-2.4-0.1c-1.7,0.1-3.4-0.1-4.9-0.7c-3.5-1.1-6.6-3.4-8.8-6.4c-1.9-2.5-3-5.6-3.1-8.8c-0.2-2.8,0.1-5.5,0.9-8.2
	c0.4-1.5,1-2.9,1.7-4.3c0-0.1,0.1-0.3,0.3-0.3c0.3,1.1,0.7,2.3,1.2,3.4c0.4,0.9,1.1,1.7,2.1,2c0.4,0.1,0.6,0.1,0.5-0.5
	c-0.8-3.9,0.9-6.9,3.3-9.7c1-1.1,1.9-2.2,2.7-3.4c-2.6,1.1-5.3,2.1-8,3c0,0.8,0.1,1.5,0.2,2.2c0.1,0.4,0.4,0.9,0,1.1
	s-0.8-0.1-1.2-0.4c-0.4-0.2-0.7-0.6-1-0.9c-0.3-0.4-0.5-0.8-0.7-1.2c-1.2,0.3-2.4,0.6-3.6,0.9c-1.1,3.9-1.5,7.9-1.2,11.9
	c-0.8-0.5-1.6-1-2.4-1.4c0,0.1-0.1,0.2-0.1,0.3c-0.3,3.8,0,7.7,1.1,11.4c1,4.1,3.8,7.5,7.5,9.4c4.4,2.2,9,2.3,13.7,1.6
	c0.8-0.2,1.6-0.2,2.4-0.1c2.4,0.5,4.9,0.6,7.4,0.3c4.8-0.5,9-2.2,11.8-6.4c3.4-4.9,3.7-10.5,3.4-16.2
	C226.8,152.1,226.6,152.1,226.3,152.3z"/>
<path class="st3" d="M227.2,149.3c-0.4-0.8-0.9-1.6-1.5-2.3c-0.8-1-0.9-2.5-0.3-3.6c0.6-1,1-2.1,1.2-3.2c0-0.1,0.1-0.2,0.2-0.2
	s0.1,0.1,0.2,0.2c0.4,0.8,0.7,1.7,1.1,2.5C229.3,145,228.7,147.2,227.2,149.3z"/>
<path class="st4" d="M219.5,148.5c-0.3-0.5-0.5-0.5-0.9-0.2c-0.8,0.5-1.6,1-2.4,1.5c-0.6,0.4-1.4,0.2-1.8-0.4
	c-0.1-0.2-0.2-0.4-0.2-0.7c0.2-1.6,0.6-3.1,0.7-4.7c0.2-1.9,0.1-3.9-0.5-5.8c-0.7-2.3-2.1-4.4-3.9-5.9c-2.7,0.8-5.4,1.7-8.1,2.7
	c-1.7,0.6-3.3,1.3-5,1.9c-0.8,1.2-1.7,2.3-2.7,3.4c-2.4,2.8-4.2,5.8-3.3,9.7c0.1,0.6-0.1,0.6-0.5,0.5c-0.9-0.3-1.7-1.1-2.1-2
	c-0.5-1.1-0.9-2.2-1.2-3.4c-0.1,0.1-0.2,0.2-0.3,0.3c-0.7,1.4-1.2,2.8-1.7,4.3c-0.8,2.7-1,5.4-0.9,8.2c0.2,3.2,1.3,6.2,3.1,8.8
	c2.2,3,5.3,5.2,8.8,6.4c1.6,0.6,3.3,0.8,4.9,0.7l-2-0.8c-1.3-0.2-2.5-0.8-3.5-1.7c-3.6-2.4-5.7-6.6-5.3-10.9
	c0.1-1.6,0.5-3.2,1.2-4.6c0.2-0.6,0.5-0.6,1-0.2c0.3,0.3,0.7,0.5,1.1,0.7c0.4,0.4,1,0.4,1.4,0.2c0.5-0.4,0.3-0.9,0.2-1.4
	c-0.2-1.1-0.4-2.3-0.4-3.5c-0.2-4.6,2.1-7.7,6-9.8c1.3-0.7,2.7-1.3,4.1-1.7c0.3-0.1,0.6-0.3,0.5,0.4c-0.5,3.2,0.8,5.8,2.8,8.1
	c1.4,1.7,2.8,3.3,3.3,5.5c0.1,0.7,0.1,1.3,0,2c0,0.3-0.2,0.7,0.2,0.9s0.6-0.2,0.9-0.4c0.6-0.6,1-1.4,1.2-2.2
	c0.1-0.4,0.2-0.8,0.4-1.1c0.7,1.3,1.2,2.7,1.5,4.2c0.7,2.9,0.6,5.9-0.4,8.6c-0.7,1.8-1.8,3.5-3.3,4.8c-0.1,0.1-0.2,0.3-0.3,0.4
	c0.8-0.2,1.5-0.6,2.1-1.2c2.8-2,4.9-4.8,6.1-8c0.9-2.8,1.1-5.7,0.6-8.6C220.8,151.6,220.3,150,219.5,148.5z"/>
<path class="st5" d="M199.7,172.9c-1.3-0.2-2.5-0.8-3.5-1.7c-3.6-2.4-5.7-6.6-5.3-10.9c0.1-1.6,0.5-3.2,1.2-4.6
	c0.2-0.6,0.5-0.6,1-0.2c0.3,0.3,0.7,0.5,1.1,0.7c0.4,0.4,1,0.4,1.4,0.2c0.5-0.4,0.3-0.9,0.2-1.4c-0.2-1.1-0.4-2.3-0.4-3.5
	c-0.2-4.6,2.1-7.7,6-9.8c1.3-0.7,2.7-1.3,4.1-1.7c0.3-0.1,0.6-0.3,0.5,0.4c-0.5,3.2,0.8,5.8,2.8,8.1c1.4,1.7,2.8,3.3,3.3,5.5
	c0.1,0.7,0.1,1.3,0,2c0,0.3-0.2,0.7,0.2,0.9s0.6-0.2,0.9-0.4c0.6-0.6,1-1.4,1.2-2.2c0.1-0.4,0.2-0.8,0.4-1.1
	c0.7,1.3,1.2,2.7,1.5,4.2c0.7,2.9,0.6,5.9-0.4,8.6c-0.7,1.8-1.8,3.5-3.3,4.8c-0.1,0.1-0.2,0.3-0.3,0.4l-0.3,0.2l-0.2,0.1
	c-2.2,1.6-4.8,2.4-7.5,2.4c0,0,0.1-0.1,0.1-0.1c4.6-0.8,7.6-5.4,5.8-10.6c-0.2-0.5-0.3-0.8-0.9-0.4c-0.3,0.2-0.6,0.7-1.1,0.4
	s-0.2-0.8-0.2-1.2c0-0.1,0-0.3,0.1-0.4c0.7-4.5-1.4-6.8-5.4-8.3c-0.4-0.1-0.6-0.1-0.5,0.4c0.1,0.9,0,1.9-0.4,2.8
	c-0.5,1.1-1.2,2.1-1.9,3c-0.8,1-1.1,2.1-1.1,3.4c0,0.2,0.2,0.5-0.1,0.6s-0.4-0.2-0.6-0.3c-0.4-0.6-0.4-1.3-0.8-1.9
	c-1.1,2.4-1.4,5.1-0.7,7.6C197.2,170.4,198.3,171.9,199.7,172.9z"/>
<path class="st6" d="M199.7,172.9c-1.5-1-2.6-2.5-3.1-4.2c-0.7-2.5-0.4-5.2,0.7-7.6c0.4,0.6,0.4,1.4,0.8,1.9
	c0.1,0.2,0.3,0.4,0.6,0.3s0.2-0.4,0.1-0.6c-0.1-1.2,0.3-2.4,1.1-3.4c0.7-0.9,1.4-1.9,1.9-3c0.4-0.9,0.6-1.8,0.4-2.8
	c-0.1-0.5,0.1-0.6,0.5-0.4c4,1.4,6.1,3.7,5.4,8.3c0,0.1-0.1,0.3-0.1,0.4c0,0.4-0.3,0.9,0.2,1.2s0.8-0.2,1.1-0.4
	c0.6-0.5,0.7-0.1,0.9,0.4c1.8,5.2-1.2,9.8-5.8,10.6c-0.1,0-0.1,0.1-0.1,0.1c-0.8,0.1-1.6,0-2.4-0.1L199.7,172.9z"/>
<path class="st4" d="M211.7,171.3l0.2-0.1L211.7,171.3z"/>
<text transform="matrix(1 0 0 1 67.64 76.31)" class="st7 st8 st9">  </text>
<path class="st10" d="M133.5,144.2c0,0,15.2,15.1,46.3-6.8"/>
<path class="st11" d="M188.3,123.8l1.3-0.7c0,0,2.9-0.3,2.6,3c0,0,3.1-0.6,2.2,3c0,0,3.1,0.3,2.1,3l1.3,1.6l-4.2,2.7h-0.1
	c0,0-0.1,0.1-0.1,0.1l-6.2,4c-2.5,1.6-6.5,0.4-8.8-2.6c-1.8-2.4-2.1-5.3-0.9-7.2l1.9-3c1-1.1,2.1-2,3.3-2.8c1.1-0.5,4.1,0.5,4.1,0.5
	L188.3,123.8z"/>
<rect x="0.2" y="258.1" class="st12" width="348" height="24.2"/>
<path class="st13" d="M87.2,26.8C50.1,26.8,20,36,20,75.1c0,9.9,1.3,19.9,2.7,29.8c1.5,10.9,4.6,21.8,7.5,32.4
	c1.3,4.7,2.6,8.8,2.1,13.7c-0.4,4.3-2.6,8.7-4.5,12.6c-5.2,10.5-6.5,21.2-2.7,32.4c2.5,7.4,8.7,13.3,15.6,17
	c14.3,7.7,19.9,7.3,49.1,7.3c17.3,0,35.3-1.3,49.5-12.4c5.8-4.6,10.1-10.7,12.5-17.8c1.1-3.3,1.8-6.8,2.1-10.3
	c0.8-5.9-1.2-13.6-3.4-19c-3.4-8.1-6.6-18.9-4.4-27.8c5.2-20.7,8.4-48.1,8.4-58.6C154.3,35.2,124.3,26.8,87.2,26.8"/>
<polyline class="st13" points="94.3,213.6 100.8,264.3 108.5,264.3 114.9,212.5 "/>
<polygon class="st14" points="108.5,264.3 111.5,240.3 97.7,240.3 100.3,262.5 "/>
<path class="st15" d="M99.7,265.6c0.4-7.2,6.6-12.6,13.8-12.2c6.5,0.4,11.8,5.6,12.2,12.2"/>
<polyline class="st13" points="65.6,213.9 72.1,264.6 79.8,264.6 86.2,212.8 "/>
<polygon class="st14" points="79.8,264.6 82.8,240.7 69,240.7 71.6,262.9 "/>
<path class="st15" d="M70.9,265.9c-0.5-7.2,4.9-13.4,12.1-13.9c7.2-0.5,13.4,4.9,13.9,12.1c0,0.6,0,1.2,0,1.8"/>
<path class="st16" d="M93.3,73c0,0,14-6.1,13.3-5.9"/>
<path class="st16" d="M130,68.3c0,0,14.1,5.9,13.4,5.6"/>
<path class="st17" d="M105.9,100.7c0,0,2.5-7.6,14.3-7.2s12.5,7.7,12.5,7.7L105.9,100.7z"/>
<path class="st1" d="M124.4,86c0-5.3,4.6-9.7,10.3-9.7S145,80.6,145,86"/>
<path class="st17" d="M132.2,86c0-2.5,2-4.5,4.5-4.5s4.5,2,4.5,4.5"/>
<path class="st1" d="M93.7,86c0-5.3,4.7-9.7,10.4-9.7s10.4,4.3,10.4,9.7"/>
<path class="st17" d="M101.5,86c0-2.5,2-4.5,4.5-4.5s4.5,2,4.5,4.5"/>
<path class="st17" d="M94.7,81.1l-5.5-2.2l4.9,3.9c-0.1,0.2-0.1,0.4-0.2,0.6l-4.8-0.6l4.6,1.9c0,0.3,0,0.7,0,1
	c2.6-8.2,7.7-9.2,9.2-9.4C98.2,76.4,95.9,78.7,94.7,81.1z"/>
<path class="st17" d="M102.9,76.3c0.1,0,0.3,0,0.4,0C103.2,76.3,103,76.3,102.9,76.3z"/>
<path class="st17" d="M149.6,82.8l-4.8,0.6c-0.1-0.2-0.1-0.4-0.2-0.6l4.9-3.9L144,81c-1.1-2.3-3.4-4.6-8.1-4.7
	c1.5,0.2,6.6,1.2,9.2,9.4c0-0.3,0-0.7-0.1-1L149.6,82.8z"/>
<path class="st17" d="M135.8,76.3h-0.4H135.8z"/>
<path class="st10" d="M55.1,152.6c0,0,22.7,16.2,50.7-9.5"/>
<path class="st11" d="M107.4,126.8c0.5-0.7,1.4-0.8,2.1-0.3c0,0,0.1,0,0.1,0.1l0,0c0.8,0.4,1.2,1.4,0.9,2.3l-0.9,1.7
	c0.2-0.2,0.5-0.4,0.8-0.5l7.1-6c0.8-0.5,1.8-0.3,2.4,0.4c0.7,0.5,0.8,1.5,0.2,2.1c0,0,0,0.1-0.1,0.1l-4.3,3.6
	c0.4,0.2,0.9,0.4,1.3,0.7l5-4.2c0.8-0.5,1.8-0.3,2.4,0.4c0.7,0.5,0.8,1.5,0.2,2.2c0,0,0,0-0.1,0.1l-5,4.2c0.3,0.4,0.5,0.9,0.7,1.4
	l4.2-3.5c0.8-0.5,1.8-0.3,2.4,0.4c0.7,0.5,0.8,1.5,0.3,2.2c0,0,0,0-0.1,0.1l-7.6,6.4l-0.1,0.1l-0.1,0.1l-5.7,4.8
	c-2.3,1.9-6.4,1.2-9-1.5c-2.1-2.2-2.8-5-1.8-7.1L107.4,126.8z"/>
<polygon class="st18" points="324.7,219.1 150.2,219.1 150.2,229.1 160.6,229.1 160.6,233.2 160.4,233.2 160.4,267.1 173.9,267.1 
	173.9,236.1 301.3,236.1 301.3,267.1 314.5,267.1 314.5,233.3 314.5,229.1 324.7,229.1 "/>
<rect x="167.9" y="216.6" class="st19" width="7.2" height="2.8"/>
<rect x="232.5" y="216.6" class="st19" width="7.2" height="2.8"/>
<line class="st20" x1="203.1" y1="199.4" x2="203.1" y2="203.9"/>
<path class="st21" d="M190.5,202.3c0,2.1-1.1,1.6-2.5,1.6s-2.5,0.4-2.5-1.6s2.5-5.8,2.5-5.8S190.5,200.2,190.5,202.3z"/>
<path class="st21" d="M196,202.3c0,2.1-1.1,1.6-2.5,1.6s-2.5,0.4-2.5-1.6s2.5-5.8,2.5-5.8S196,200.2,196,202.3z"/>
<path class="st21" d="M201.7,202.3c0,2.1-1.1,1.6-2.5,1.6s-2.5,0.4-2.5-1.6s2.5-5.8,2.5-5.8S201.7,200.2,201.7,202.3z"/>
<path class="st21" d="M209.9,202.3c0,2.1-1.1,1.6-2.5,1.6s-2.5,0.4-2.5-1.6s2.5-5.8,2.5-5.8S209.9,200.2,209.9,202.3z"/>
<path class="st21" d="M215.7,202.3c0,2.1-1.1,1.6-2.5,1.6s-2.5,0.4-2.5-1.6s2.5-5.8,2.5-5.8S215.7,200.2,215.7,202.3z"/>
<path class="st21" d="M221.4,202.3c0,2.1-1.1,1.6-2.5,1.6s-2.5,0.4-2.5-1.6s2.5-5.8,2.5-5.8S221.4,200.2,221.4,202.3z"/>
<path class="st22" d="M189.7,203c0,1.3-0.7,1.1-1.6,1.1s-1.6,0.3-1.6-1.1s1.6-3.8,1.6-3.8S189.7,201.6,189.7,203z"/>
<path class="st22" d="M195.1,203.1c0,1.4-0.7,1.1-1.6,1.1s-1.6,0.3-1.6-1.1s1.6-3.8,1.6-3.8S195.1,201.8,195.1,203.1z"/>
<path class="st22" d="M200.8,203c0,1.3-0.7,1.1-1.6,1.1s-1.6,0.3-1.6-1.1s1.6-3.8,1.6-3.8S200.8,201.6,200.8,203z"/>
<path class="st22" d="M209.1,203c0,1.3-0.7,1.1-1.6,1.1s-1.6,0.3-1.6-1.1s1.6-3.8,1.6-3.8S209.1,201.6,209.1,203z"/>
<path class="st22" d="M214.8,203c0,1.3-0.7,1.1-1.6,1.1s-1.6,0.3-1.6-1.1s1.6-3.8,1.6-3.8S214.8,201.6,214.8,203z"/>
<path class="st22" d="M220.6,203c0,1.3-0.7,1.1-1.6,1.1s-1.6,0.3-1.6-1.1s1.6-3.8,1.6-3.8S220.6,201.6,220.6,203z"/>
<polyline class="st23" points="183.6,203.9 183.6,199.5 223,199.5 223,203.9 "/>
<rect x="167.9" y="203.9" class="st24" width="71.8" height="12.7"/>
<circle class="st19" cx="203.8" cy="210.2" r="4.3"/>
<path class="st25" d="M177.1,165.8c0-0.4-0.2-0.8-0.5-1.1c0.3,0,0.6-0.1,0.9-0.3l0,0c-0.2-1.5-0.3-2.8,1.9-2.8
	c15.1,0.1,30.3,0.1,45.4,0.1c3.6-0.2,3.6-0.2,3.8,3l0,0v6.2c0,6.8,0,13.6-0.1,20.3c0,3.6-1.8,5.6-5.3,6h-40.8
	c-3.1-0.5-4.3-1.6-4.8-4.8c-0.7-6.2-0.1-15.5-0.3-21.7"/>
<path class="st25" d="M222.9,197.2c0.1,0,0.2,0.1,0.2,0.1L222.9,197.2z"/>
<path class="st26" d="M177.3,164.4c-0.2,0-0.5-0.1-0.8-0.1h-4.8c-2,0-3.6,1.3-3.6,2.8s1.6,2.8,3.6,2.8h4.8c0.3,0,0.5,0,0.8-0.1
	V164.4z"/>
<path class="st26" d="M228.5,164.4c0.2,0,0.5-0.1,0.8-0.1h4.8c2,0,3.6,1.3,3.6,2.8S236,170,234,170h-4.8c-0.3,0-0.5,0-0.8-0.1
	L228.5,164.4z"/>
<path class="st26" d="M287.1,203.2c-0.1-0.1-0.1-0.2-0.1-0.4v-2.4c0-1,1.6-1.8,3.6-1.8s3.6,0.8,3.6,1.8v2.4c0,0.1,0,0.3-0.1,0.4
	L287.1,203.2z"/>
<path class="st25" d="M290.6,202.4c-14,0.1-25.2,7.5-25.2,16.4l50.6-0.4C316,209.6,304.6,202.4,290.6,202.4z"/>
<path class="st26" d="M189.3,136.9c-0.1-0.1-0.2-0.2-0.3-0.3l-1.2-2.1c-0.5-0.9,0.5-2.4,2.2-3.4s3.5-1.1,4-0.2l1.2,2.1
	c0.1,0.1,0.1,0.2,0.1,0.4L189.3,136.9z"/>
<path class="st25" d="M192,134.5c-12.1,7-18.3,18.9-13.9,26.7l43.9-25.2C217.5,128.2,204.1,127.6,192,134.5z"/>
<path class="st1" d="M261,192c-0.9-0.2-1.5-1.1-1.5-2c0-0.3,0-0.6,0-0.9c-0.1-0.9,0.5-1.8,1.4-2c0.5-0.1,0.6-0.4,0.5-0.9
	c-0.1-2.1,0.1-4.2-0.1-6.4c-0.2-2.2-0.9-4.4-2.2-6.2c-1.1-1.4-2.3-2.7-3.6-3.9c-0.4-0.4-0.7-0.8-0.1-1.2c0.1-0.1,0.2-0.3,0.2-0.4
	l-0.1-0.1h-3.2l-0.1,0.1c-1.1,0-2.2-0.1-3.4,0c0,0.2,0.1,0.4,0.2,0.6c0.5,0.3,0.3,0.6,0,0.9c-0.8,0.8-1.6,1.5-2.3,2.3
	c-2.4,2.4-3.8,5.7-3.7,9.1c0,1.7,0,3.3,0,5c0,0.6,0,1.2,0.8,1.3c0.1,0,0.2,0.1,0.3,0.2c1,0.9,0.7,2.1,0.6,3.2c0,0.6-0.5,1.1-1.1,1.1
	c-0.5,0.1-0.7,0.4-0.7,1c0,7,0,14,0,20.9c0,1.8,0.7,3.5,1.9,4.8c0.2,0.3,0.5,0.4,0.8,0.4h6.5h5.2c0.1-0.1,0.2-0.2,0.3-0.1
	c0,0,0.1,0.1,0.1,0.1c1.1,0.2,2.1-0.3,2.6-1.3c0.8-1.4,1.3-3,1.2-4.7c0-6.8,0-13.6,0-20.3C261.5,192.3,261.3,192.1,261,192z
	 M244.2,179.1L244.2,179.1z M260.5,214.4c-0.1,1.3-0.6,2.5-1.5,3.5c-0.2,0.2-0.5,0.4-0.9,0.3c-2,0-4.1,0-6.1,0l0,0h-6.2
	c-0.8,0-1-0.8-1.3-1.3c-0.6-1.1-0.9-2.4-0.9-3.6c0-6.6,0-13.2,0-19.8c-0.1-0.4,0.2-0.8,0.5-1c1.2-0.8,1.8-2.3,1.3-3.8
	c-0.2-1-0.5-1.9-1.6-2.2c-0.2-0.1-0.2-0.2-0.2-0.4c0-2.2,0-4.4,0-6.7c0-0.1,0.1-0.2,0.1-0.2h0.1h-0.1h8.3h7.9c0.4,0,0.5,0.2,0.5,0.5
	c0,2.1,0,4.2,0,6.2c0,0.3-0.1,0.4-0.4,0.6c-1.2,0.9-1.7,2.4-1.4,3.8c0.1,0.3,0.1,0.6,0.2,0.9c0.2,0.6,0.6,1.1,1.2,1.3
	c0.3,0.1,0.5,0.4,0.4,0.7C260.5,200.3,260.6,207.4,260.5,214.4L260.5,214.4z"/>
<path class="st26" d="M255.8,164.2c0.1-0.3-0.1-0.3-0.3-0.3h-0.3c-0.1-0.1-0.2-0.1-0.3,0l0,0l0,0h-2.7h-3.4c-0.3,0-0.4,0.1-0.4,0.4
	c0,1.1,0,2.2,0,3.4c0,0.2,0,0.4,0.3,0.5c1.1-0.1,2.2,0,3.4,0l0.1-0.1h2.7c0-0.1,0.1-0.1,0.2-0.1c0,0,0,0,0.1,0.1h0.3l0.1,0.1
	c0.2-0.1,0.3-0.3,0.2-0.5C255.9,166.6,255.9,165.4,255.8,164.2z"/>
<path class="st27" d="M260.1,192.6c-0.6-0.3-1-0.7-1.2-1.3c-0.1-0.3-0.1-0.6-0.2-0.9c-0.3-1.4,0.2-2.9,1.4-3.8
	c0.3-0.1,0.4-0.3,0.4-0.6c0-2.1,0-4.2,0-6.2c0-0.4-0.1-0.5-0.5-0.5h-7.9h-8.3c0,0.1-0.1,0.2-0.1,0.2c0,2.2,0,4.4,0,6.7
	c0,0.2,0,0.4,0.2,0.4c1.1,0.3,1.4,1.3,1.6,2.2c0.4,1.4-0.1,2.9-1.3,3.8c-0.4,0.2-0.6,0.6-0.5,1c0,6.6,0,13.2,0,19.8
	c0,1.3,0.3,2.5,0.9,3.6c0.3,0.5,0.5,1.3,1.3,1.3h6.2l0,0c2,0,4.1,0,6.1,0c0.3,0,0.6-0.1,0.9-0.3c0.9-1,1.4-2.2,1.5-3.5
	c0-7,0-14.1,0-21.1C260.6,193,260.5,192.7,260.1,192.6z"/>
<path class="st28" d="M260.1,192.7c-0.6-0.3-1-0.8-1.2-1.4c-0.1-0.3-0.1-0.6-0.2-0.9c-0.3-1.5,0.2-3,1.4-3.9
	c0.3-0.1,0.4-0.3,0.4-0.6c0-2.1,0-4.3,0-6.4c0-0.4-0.1-0.6-0.5-0.6h-7.9h-8.3c-0.1,0.1-0.1,0.2-0.1,0.2c0,2.3,0,4.6,0,6.8
	c0,0.2,0,0.4,0.2,0.5c1.1,0.3,1.4,1.3,1.6,2.3c0.4,1.4-0.1,3-1.3,3.9c-0.4,0.2-0.6,0.6-0.5,1c0,6.8,0,13.6,0,20.4
	c0,1.3,0.3,2.6,0.9,3.7c0.3,0.5,0.5,1.3,1.3,1.3h6.2l0,0c2,0,4.1,0,6.1,0c0.3,0,0.6-0.1,0.9-0.4c0.9-1,1.4-2.3,1.5-3.6
	c0-7.2,0-14.5,0-21.7C260.6,193.1,260.4,192.8,260.1,192.7z"/>
<path class="st29" d="M254.9,168.9c0-0.1,0.1-0.1,0.2-0.1c0,0,0,0,0.1,0.1H254.9z"/>
<line class="st30" x1="243.2" y1="194.9" x2="260.9" y2="194.9"/>
<line class="st30" x1="243.2" y1="198.4" x2="260.9" y2="198.4"/>
<line class="st30" x1="243.2" y1="201.4" x2="260.9" y2="201.4"/>
<line class="st30" x1="243.2" y1="204.9" x2="260.9" y2="204.9"/>
<line class="st30" x1="243.2" y1="208.3" x2="260.9" y2="208.3"/>
<line class="st30" x1="243.2" y1="211.8" x2="260.9" y2="211.8"/>
<path class="st1" d="M205.3,108c-5.6-3-9.6-8.3-11-14.4c-1-3.9-0.8-8,0.6-11.8c1.1-3.2,2.9-6.1,5.4-8.5c0.9-0.9,0.9-0.9,0.2-2.1
	c-1.8-2.9-2.9-6.2-3.1-9.5c-0.4-5.8,1.6-11.4,5.5-15.7c4.4-5,10.7-8,17.4-8.1c1.6-0.1,3.3,0.1,5,0.2c0.6,0,0.9-0.1,1-0.8
	c0.2-0.7,0.4-1.5,0.6-2.2c2.1-6.1,6.8-11,12.7-13.5c3.8-1.7,8-2.4,12.1-2.1c4.6,0.3,9,1.8,12.7,4.5c2.3,1.6,4.2,3.7,5.8,6
	c0,0.1,0.1,0.2,0.1,0.2c0.3,0.4,0.8,0.4,1.1,0.2c0,0,0.1-0.1,0.1-0.1c2.9-1.8,6.1-3,9.4-3.6c5.3-0.9,10.8-0.1,15.6,2.4
	c3.2,1.6,6,3.9,8.1,6.7c3.4,4.3,5,9.8,4.3,15.2c-0.1,0.8,0.1,1.1,0.8,1.3c1.9,0.4,3.8,0.9,5.6,1.6c4.7,1.8,7.8,5.3,10.5,10
	c2.5,4.2,3.4,9.1,2.5,13.8c-1.1,7-4,11.9-9.4,15.3c-2.6,1.7-5.6,2.9-8.7,3.4c-1,0.2-1.2,0.4-1,1.5c0.6,3.7,0.2,7.5-1.3,11
	c-2.4,5.9-7.1,10.5-13,12.8c-8.8,3.6-18.8,2-26-4.2l-0.1-0.1c-0.4-0.3-0.9-0.3-1.3,0.1c0,0-0.1,0.1-0.1,0.1
	c-3.6,3.8-8.3,6.4-13.4,7.3c-2.7,0.5-5.5,0.6-8.3,0.2c-3.9-0.5-7.5-2-10.7-4.2c-3.6-2.5-6.5-6.1-8.1-10.2c-0.3-0.9-0.8-1-1.5-0.8
	c-2.5,0.9-5.2,1.3-7.8,1.3C213.3,111.3,209.1,110.2,205.3,108z"/>
<path class="st2" d="M286.9,72.3l-1.1,0.6c-0.1-0.1-0.1-0.1-0.1-0.1c0-0.2,0-0.4,0-0.7c0.1-3.3-0.4-6.6-1.7-9.7
	c-0.4-0.8-0.4-0.8-1.1-0.3s-1.6,1.2-2.4,1.7c-0.6,0.3-1.3,0.1-1.6-0.5c-0.1-0.2-0.1-0.3-0.1-0.5c0-0.3,0-0.6,0-1
	c0.2-1.5,0.5-3,0.6-4.5c-1.3,0-2.6,0-3.8,0c0.6,0.9,1,1.8,1.3,2.8c0.5,1.6,0.6,3.3,0.4,4.9c-0.1,1.4-0.5,2.7-0.6,4
	c0,0.4,0.2,0.7,0.5,0.9c0.3,0.3,0.8,0.3,1.2,0c0.7-0.4,1.4-0.8,2-1.3c0.4-0.3,0.6-0.2,0.8,0.2c0.7,1.2,1.1,2.6,1.3,4
	c0.5,2.4,0.3,5-0.5,7.3c-1,2.8-2.8,5.2-5.2,6.8c-0.5,0.5-1.1,0.9-1.8,1l-0.3,0.2l-0.2,0.1c-1.9,1.3-4.1,2.1-6.4,2.1
	c-0.7,0-1.4,0-2.1-0.1c-1.4,0.1-2.9-0.1-4.2-0.6c-3-1-5.7-2.9-7.5-5.4c-1.6-2.1-2.5-4.7-2.7-7.3c-0.2-2.4,0.1-4.7,0.7-7
	c0.4-1.3,0.9-2.5,1.4-3.7c0-0.1,0.1-0.2,0.2-0.3c0.3,1,0.6,1.9,1,2.9c0.3,0.8,1,1.4,1.8,1.7c0.4,0.1,0.5,0.1,0.5-0.4
	c-0.7-3.3,0.8-5.9,2.9-8.2c1.1-1.2,2-2.5,2.9-3.8c-2.3,0.2-4.7,0.5-7,0.7c-0.5,1.5-0.5,3.1-0.2,4.7c0.1,0.3,0.3,0.7,0,0.9
	s-0.7-0.1-1-0.3c-0.3-0.2-0.6-0.5-0.9-0.8c-0.5-0.7-0.9-1.5-1.1-2.3c-0.2-0.6-0.3-1.2-0.5-1.8l-0.8,0.1c-1.8,4.4-2.6,9.1-2.3,13.9
	c-0.7-0.4-1.3-0.8-2.1-1.2c0,0.1-0.1,0.2-0.1,0.2c-0.3,3.3,0,6.6,0.9,9.8c0.9,3.5,3.2,6.4,6.4,8c3.7,1.9,7.7,2,11.7,1.4
	c0.7-0.1,1.3-0.1,2,0c2.1,0.4,4.2,0.5,6.3,0.3c4.1-0.4,7.7-1.9,10.1-5.4c2.9-4.2,3.2-9,3-13.8C287.3,72.2,287.2,72.1,286.9,72.3z"/>
<path class="st3" d="M287.7,69.8c-0.4-0.7-0.8-1.4-1.3-2c-0.7-0.9-0.8-2.1-0.3-3.1c0.5-0.8,0.8-1.7,1-2.7c0-0.1,0-0.2,0.2-0.2
	s0.1,0.1,0.2,0.2c0.3,0.7,0.6,1.4,0.9,2.1C289.5,66.1,289,67.9,287.7,69.8z"/>
<path class="st4" d="M281.1,69c-0.2-0.4-0.4-0.4-0.8-0.2c-0.7,0.4-1.4,0.9-2,1.3c-0.3,0.3-0.8,0.3-1.2,0c-0.3-0.2-0.5-0.5-0.5-0.9
	c0.2-1.4,0.5-2.7,0.6-4c0.2-1.7,0.1-3.3-0.4-4.9c-0.3-1-0.7-1.9-1.3-2.8c-4.2,0-8.4,0.3-12.6,0.8c-0.9,1.3-1.8,2.6-2.9,3.8
	c-2,2.4-3.6,4.9-2.9,8.2c0.1,0.5-0.1,0.5-0.5,0.4c-0.8-0.3-1.5-0.9-1.8-1.7c-0.4-0.9-0.7-1.9-1-2.9c-0.1,0.1-0.2,0.2-0.2,0.3
	c-0.6,1.2-1.1,2.4-1.5,3.7c-0.6,2.3-0.9,4.6-0.7,7c0.1,2.7,1.1,5.3,2.7,7.5c1.9,2.6,4.5,4.5,7.5,5.4c1.3,0.5,2.8,0.7,4.2,0.6
	l-1.7-0.7c-1.1-0.2-2.1-0.7-3-1.4c-3.1-2-4.9-5.6-4.5-9.3c0.1-1.4,0.4-2.7,1-4c0.2-0.5,0.5-0.6,0.9-0.2c0.3,0.2,0.6,0.4,0.9,0.6
	c0.3,0.3,0.8,0.4,1.2,0.1c0.4-0.3,0.3-0.8,0.2-1.2c-0.2-1-0.3-2-0.4-3c-0.2-4,1.8-6.6,5.1-8.4c1.1-0.6,2.3-1.1,3.5-1.4
	c0.3-0.1,0.5-0.2,0.4,0.3c-0.5,2.7,0.7,4.9,2.4,6.9c1.3,1.3,2.2,2.9,2.8,4.7c0.1,0.6,0.1,1.1,0,1.7c0,0.2-0.2,0.6,0.1,0.7
	s0.5-0.1,0.7-0.3c0.5-0.5,0.9-1.2,1-1.9c0.1-0.4,0.2-0.7,0.4-1c0.6,1.1,1,2.3,1.3,3.6c0.6,2.4,0.5,5-0.3,7.4c-0.6,1.6-1.5,3-2.8,4.1
	c-0.1,0.1-0.2,0.2-0.2,0.4c0.7-0.1,1.3-0.5,1.8-1c2.4-1.7,4.2-4.1,5.2-6.8c0.8-2.4,0.9-4.9,0.5-7.3C282.2,71.6,281.8,70.2,281.1,69z
	"/>
<path class="st5" d="M264.2,89.9c-1.1-0.2-2.1-0.7-3-1.4c-3.1-2-4.9-5.6-4.5-9.3c0.1-1.4,0.4-2.7,1-4c0.2-0.5,0.5-0.6,0.9-0.2
	c0.3,0.2,0.6,0.4,0.9,0.6c0.3,0.3,0.8,0.4,1.2,0.1c0.4-0.3,0.3-0.8,0.2-1.2c-0.2-1-0.3-2-0.4-3c-0.2-4,1.8-6.6,5.1-8.4
	c1.1-0.6,2.3-1.1,3.5-1.4c0.3-0.1,0.5-0.2,0.4,0.3c-0.5,2.7,0.7,4.9,2.4,6.9c1.3,1.3,2.2,2.9,2.8,4.7c0.1,0.6,0.1,1.1,0,1.7
	c0,0.2-0.2,0.6,0.1,0.7s0.5-0.1,0.7-0.3c0.5-0.5,0.9-1.2,1-1.9c0.1-0.4,0.2-0.7,0.4-1c0.6,1.1,1,2.3,1.3,3.6c0.6,2.4,0.5,5-0.3,7.4
	c-0.6,1.6-1.5,3-2.8,4.1c-0.1,0.1-0.2,0.2-0.2,0.4l-0.3,0.2l-0.2,0.1c-1.9,1.3-4.1,2.1-6.4,2.1c0,0,0.1-0.1,0.1-0.1
	c4-0.7,6.5-4.6,5-9c-0.1-0.4-0.3-0.7-0.8-0.3c-0.2,0.2-0.5,0.6-0.9,0.3s-0.1-0.7-0.1-1c0-0.1,0-0.2,0.1-0.4c0.6-3.9-1.2-5.8-4.6-7
	c-0.3-0.1-0.5-0.1-0.4,0.4c0.1,0.8,0,1.6-0.4,2.4c-0.5,0.9-1,1.7-1.6,2.5c-0.7,0.8-1,1.8-0.9,2.9c0,0.2,0.1,0.4-0.1,0.5
	s-0.4-0.2-0.5-0.3c-0.4-0.5-0.4-1.1-0.7-1.7c-1,2-1.2,4.3-0.6,6.5C262.1,87.8,263,89,264.2,89.9z"/>
<path class="st31" d="M264.2,89.9c-1.3-0.9-2.2-2.1-2.7-3.6c-0.6-2.2-0.4-4.5,0.6-6.5c0.3,0.6,0.3,1.2,0.7,1.7
	c0.1,0.2,0.3,0.4,0.5,0.3s0.1-0.3,0.1-0.5c-0.1-1,0.3-2.1,0.9-2.9c0.6-0.8,1.2-1.6,1.6-2.5c0.4-0.7,0.5-1.6,0.4-2.4
	c-0.1-0.4,0.1-0.5,0.4-0.4c3.4,1.2,5.2,3.2,4.6,7c0,0.1-0.1,0.2-0.1,0.4c0,0.3-0.2,0.8,0.1,1s0.7-0.1,0.9-0.3
	c0.5-0.4,0.6-0.1,0.8,0.3c1.5,4.4-1,8.3-5,9c0,0-0.1,0-0.1,0.1c-0.7,0-1.4,0-2.1-0.1L264.2,89.9z"/>
<path class="st4" d="M274.5,88.5l0.2-0.1L274.5,88.5z"/>
<path class="st25" d="M244.8,83.9c0-0.4-0.1-0.7-0.4-1c0.3,0,0.5-0.1,0.7-0.2l0,0c-0.2-1.3-0.3-2.4,1.6-2.4
	c12.9,0.1,25.9,0.1,38.8,0.1c3.1-0.2,3.1-0.2,3.2,2.6l0,0v5.3c0,5.8,0,11.6,0,17.4c0,3.1-1.5,4.7-4.5,5.1h-34.9
	c-2.6-0.4-3.6-1.4-4.1-4.1c-0.6-5.3-0.1-13.2-0.3-18.6"/>
<path class="st25" d="M284,110.6c0.1,0,0.1,0.1,0.2,0.1C284.1,110.7,284.1,110.7,284,110.6z"/>
<path class="st26" d="M245.1,82.7c-0.2,0-0.4-0.1-0.6-0.1h-4.1c-1.7,0-3.1,1.1-3.1,2.4s1.4,2.4,3.1,2.4h4.1c0.2,0,0.4,0,0.6-0.1
	V82.7z"/>
<path class="st26" d="M288.8,82.7c0.2,0,0.4-0.1,0.6-0.1h4.1c1.7,0,3.1,1.1,3.1,2.4s-1.4,2.4-3.1,2.4h-4.1c-0.2,0-0.4,0-0.6-0.1
	V82.7z"/>
<path class="st26" d="M255.3,52.7c-0.1-0.1-0.1-0.2-0.2-0.3l-0.7-1.9c-0.3-0.8,0.7-1.9,2.3-2.5s3.1-0.5,3.4,0.3l0.7,1.9
	c0,0.1,0,0.2,0,0.3L255.3,52.7z"/>
<path class="st25" d="M257.9,51c-11,4.3-17.6,13.4-14.9,20.5l39.7-15.4C279.9,49,268.8,46.7,257.9,51z"/>
<path class="st32" d="M224,21.5c0,0-8.4,12.2,18.2,29.6"/>
<path class="st11" d="M254.9,46.1c0.7,0,1.2,0.7,1.1,1.5l0,0c0,0.8-0.5,1.4-1.3,1.6h-1.6c0.2,0.1,0.5,0.2,0.7,0.4l7.3,2.7
	c0.7,0.4,1,1.2,0.7,1.9c-0.2,0.8-0.9,1.3-1.5,1.1l-4.4-1.6c0,0.4,0,0.8,0,1.2l5.1,1.9c0.7,0.4,1,1.2,0.7,1.9
	c-0.2,0.8-0.9,1.3-1.5,1.1l-5.1-1.9c-0.2,0.4-0.4,0.7-0.7,1.1l4.3,1.6c0.7,0.4,1,1.2,0.7,1.9c-0.2,0.8-0.9,1.3-1.5,1.1l-7.8-2.8
	c0,0,0,0-0.1,0h-0.1l-5.8-2.2c-2.4-0.9-3.5-4.1-2.6-7.2c0.7-2.4,2.5-4.1,4.4-4.2L254.9,46.1z"/>
<path class="st0" d="M225.2,37.6l1-1.2c0,0,2.1-5.5,3.6-7.3s1.6-13,1.6-13l-2.3-2.2l-10.6,0.1l-13.9,1.7l15.6,21.8L225.2,37.6z"/>
<path class="st33" d="M191.8,126.7l-3.4,3.2c-0.6,0.6-0.7,1.5-0.1,2.2c0,0,0,0,0,0.1c0.5,0.8,1.5,1.1,2.3,0.7l3.1-2.6"/>
<path class="st33" d="M193.3,129.9l-1.4,1.3c-0.6,0.6-0.7,1.5-0.2,2.2c0,0,0,0,0.1,0.1c0.5,0.8,1.5,1.1,2.3,0.7l1.8-2"/>
<path class="st33" d="M191.4,127.2l-1.9,1.7c-0.8,0.4-1.8,0.1-2.3-0.7c-0.6-0.6-0.6-1.6,0-2.2c0,0,0,0,0.1-0.1l2.6-2.5"/>
<path class="st33" d="M187.2,125.8c0.4,0.5,0.5,1.1,0.4,1.7c-0.2,1-0.9,1.7-1.7,1.5l-4.8-0.8"/>
</svg>
