<svg id="Layer_1" data-name="Layer 1" xmlns="http://www.w3.org/2000/svg" viewBox="0 0 348 282.35"><defs><style>.cls-1{fill:#f8d979;}.cls-2,.cls-37{fill:#fff;}.cls-3{fill:#319c47;}.cls-4{fill:#f3e1b5;}.cls-5{fill:#945124;}.cls-6{fill:#838383;}.cls-7{fill:#e04026;}.cls-8{fill:#e24226;}.cls-9{fill:#f6871f;}.cls-10{fill:#fdde13;}.cls-11,.cls-17{fill:#fffffc;}.cls-11{opacity:0.71;}.cls-12{fill:#777;}.cls-13{fill:#383838;}.cls-14{fill:#ffcb05;}.cls-15{fill:#e14326;}.cls-16{fill:#e14126;}.cls-17{opacity:0.63;}.cls-18{font-size:5.86px;}.cls-18,.cls-26{fill:#231f20;font-family:MyriadPro-Regular, Myriad Pro;}.cls-19,.cls-24,.cls-27,.cls-28,.cls-31,.cls-34,.cls-39,.cls-40,.cls-43,.cls-44{fill:none;stroke-miterlimit:10;}.cls-19,.cls-27,.cls-40,.cls-43{stroke:#0f8ab2;}.cls-19,.cls-24,.cls-27,.cls-28,.cls-40,.cls-43,.cls-44{stroke-linecap:round;}.cls-19{stroke-width:2.53px;}.cls-20{fill:#a2cced;}.cls-21{fill:#00a1cd;}.cls-22{fill:#5652a3;}.cls-23{fill:#504b48;}.cls-24,.cls-28{stroke:#0d4060;}.cls-24{stroke-width:1.02px;}.cls-25{fill:#0d4060;}.cls-26{font-size:2.7px;}.cls-27{stroke-width:1.17px;}.cls-28{stroke-width:0.47px;}.cls-29{fill:#fbad18;}.cls-30{fill:#282b2b;}.cls-31,.cls-34{stroke:#282b2b;}.cls-31{stroke-width:1.04px;}.cls-32{fill:#f47920;}.cls-33{fill:#ad3624;}.cls-34{stroke-width:0.99px;}.cls-35{fill:#61686c;}.cls-36{fill:#fdc642;}.cls-37{opacity:0.15;}.cls-38{fill:#52656c;}.cls-39{stroke:#fff;stroke-width:0.41px;opacity:0.51;}.cls-40{stroke-width:5.63px;}.cls-41{fill:#72cee6;}.cls-42{fill:#727272;}.cls-43{stroke-width:3.94px;}.cls-44{stroke:#65c1d6;stroke-width:0.54px;}</style></defs><polyline class="cls-1" points="0 282.35 0 0 348 0 348 282.35"/><path class="cls-2" d="M24.07,100.2c-5.63-3-9.79-7.37-11.49-13.86a18.29,18.29,0,0,1,.58-11.28,20.6,20.6,0,0,1,5.62-8.18c.92-.83.91-.89.22-2a19,19,0,0,1-3.24-9.17,19.22,19.22,0,0,1,5.72-15.07,25.68,25.68,0,0,1,18.06-7.79c1.71-.06,3.47.1,5.23.2.61,0,.95-.13,1.09-.8a11.87,11.87,0,0,1,.65-2.1C49,23.86,53.62,19.79,59.62,17.26a27.64,27.64,0,0,1,12.61-2,26.77,26.77,0,0,1,13.2,4.33,23,23,0,0,1,6,5.69.64.64,0,0,0,.14.22.86.86,0,0,0,1.24.08,28.23,28.23,0,0,1,26.07-1.17,23.12,23.12,0,0,1,8.45,6.47,18.65,18.65,0,0,1,4.46,14.63c-.1.75.11,1.06.83,1.22a41.54,41.54,0,0,1,5.8,1.51c4.9,1.75,8.11,5.12,11,9.58a18.4,18.4,0,0,1,2.64,13.27c-1.17,6.73-4.17,11.39-9.77,14.74a24.68,24.68,0,0,1-9.07,3.27c-1,.17-1.21.43-1,1.48a18.12,18.12,0,0,1-1.32,10.63c-2.77,6.11-7.53,10-13.53,12.24A27.51,27.51,0,0,1,103.77,115a26.78,26.78,0,0,1-13.41-5.55,1,1,0,0,0-.15-.14,1,1,0,0,0-1.4.2,25.91,25.91,0,0,1-13.93,7,28.76,28.76,0,0,1-8.64.17,26.12,26.12,0,0,1-11.19-4.1,21.94,21.94,0,0,1-8.39-9.74,1.12,1.12,0,0,0-1.6-.74,27.33,27.33,0,0,1-8.12,1.27A27.89,27.89,0,0,1,24.07,100.2Z"/><path class="cls-2" d="M202.39,212.58c-6.13-3.38-10.66-8.24-12.51-15.49a20.93,20.93,0,0,1,.63-12.62,23,23,0,0,1,6.12-9.13c1-.94,1-1,.24-2.22a21.48,21.48,0,0,1-3.53-10.25A21.78,21.78,0,0,1,199.57,146a27.6,27.6,0,0,1,19.68-8.7c1.86-.07,3.78.11,5.7.22a1,1,0,0,0,1.19-.89,13.56,13.56,0,0,1,.71-2.35c2.73-7.06,7.74-11.61,14.28-14.43a29.47,29.47,0,0,1,13.74-2.23,28.83,28.83,0,0,1,14.38,4.84,25.44,25.44,0,0,1,6.57,6.36,1,1,0,0,0,.15.25.92.92,0,0,0,1.35.09,30.1,30.1,0,0,1,28.41-1.31,25.23,25.23,0,0,1,9.2,7.24,21.21,21.21,0,0,1,4.87,16.35c-.11.83.12,1.18.91,1.36a45.22,45.22,0,0,1,6.31,1.69c5.34,2,8.84,5.72,12,10.71a21,21,0,0,1,2.88,14.83c-1.28,7.52-4.54,12.74-10.64,16.47a26.58,26.58,0,0,1-9.89,3.67c-1.11.18-1.31.48-1.11,1.65a20.66,20.66,0,0,1-1.44,11.88A25.31,25.31,0,0,1,304,227.4a29.27,29.27,0,0,1-14.81,1.73,28.81,28.81,0,0,1-14.61-6.21l-.16-.16a1.06,1.06,0,0,0-1.53.23,28,28,0,0,1-15.17,7.88,30.68,30.68,0,0,1-9.42.19,28.2,28.2,0,0,1-12.19-4.58A24.31,24.31,0,0,1,227,215.59a1.2,1.2,0,0,0-1.75-.82,29.18,29.18,0,0,1-8.84,1.41A29.73,29.73,0,0,1,202.39,212.58Z"/><path class="cls-3" d="M194.33,197.78c0,3,4.56,10.26,8,12.18a28.86,28.86,0,0,0,13.79,3.6,28,28,0,0,0,8.69-1.42c.86-.26,2.37-.39,2.74.54,1.92,4.52,4,8.6,8,11.18a27.46,27.46,0,0,0,12,4.58,29.36,29.36,0,0,0,9.26-.2,27.34,27.34,0,0,0,14.91-7.87,1,1,0,0,1,1.5-.23l.16.16a29.11,29.11,0,0,0,28.91,4.48,25.09,25.09,0,0,0,14.49-13.68,21,21,0,0,0,1.41-11.88c-.2-1.18,0-1.47,1.1-1.65a25.84,25.84,0,0,0,7.65-2.51v-1.34H193.78Z"/><path class="cls-4" d="M325.21,156.08a42.81,42.81,0,0,0-6.08-1.59c-.76-.17-1-.5-.88-1.28.76-5.89-1.07-10.94-4.68-15.4A24.18,24.18,0,0,0,304.7,131a29.57,29.57,0,0,0-27.36,1.23.9.9,0,0,1-1.3-.08,1.14,1.14,0,0,1-.15-.23,24.23,24.23,0,0,0-6.33-6,28.2,28.2,0,0,0-13.85-4.55,28.84,28.84,0,0,0-13.23,2.1c-6.3,2.65-11.13,6.94-13.76,13.58a13.94,13.94,0,0,0-.69,2.22c-.14.69-.5.88-1.14.84-1.85-.11-3.7-.28-5.49-.21a26.81,26.81,0,0,0-19,8.19,20.26,20.26,0,0,0-6,15.86,20,20,0,0,0,3.4,9.65c.73,1.15.74,1.21-.23,2.09a21.61,21.61,0,0,0-5.89,8.6,19.23,19.23,0,0,0-.61,11.88c.16.61.36,1.17.56,1.75l124.41.37c1.7-.59,9.62-1.72,11.18-2.66,5.87-3.51,9-8.43,10.25-15.51a19.39,19.39,0,0,0-2.78-14C333.73,161.46,330.35,157.92,325.21,156.08Z"/><path class="cls-5" d="M280.66,141.38v0h-.48v0c-10.7.24-20.65,8.55-20.65,19.12,0,1,0,3.27,0,3.27v34.52h41.74V163.77s0-2.25,0-3.27C301.32,149.93,291.37,141.62,280.66,141.38Z"/><ellipse class="cls-6" cx="284.41" cy="174.45" rx="1.5" ry="1.23"/><path class="cls-2" d="M175.29,97c-6.35-3.21-11-7.84-13-14.74a18.44,18.44,0,0,1,.65-12,22.1,22.1,0,0,1,6.34-8.7c1.05-.88,1-.94.25-2.1a19.43,19.43,0,0,1-3.65-9.76,19.82,19.82,0,0,1,6.45-16,29.86,29.86,0,0,1,20.39-8.28c1.93-.07,3.92.11,5.91.21.69,0,1.07-.14,1.23-.85a13,13,0,0,1,.73-2.24c2.83-6.71,8-11,14.81-13.72A32.84,32.84,0,0,1,229.66,6.7a31.57,31.57,0,0,1,14.9,4.61,25.44,25.44,0,0,1,6.81,6,1,1,0,0,0,.15.24,1,1,0,0,0,1.41.08,33.57,33.57,0,0,1,29.43-1.24,26,26,0,0,1,9.54,6.88c3.88,4.51,5.85,9.62,5,15.57-.11.79.13,1.12.95,1.29a49.11,49.11,0,0,1,6.54,1.6c5.53,1.87,9.16,5.45,12.39,10.19a18.6,18.6,0,0,1,3,14.12c-1.32,7.15-4.7,12.12-11,15.67a29.19,29.19,0,0,1-10.25,3.49c-1.15.17-1.36.45-1.15,1.57a18.18,18.18,0,0,1-1.49,11.31c-3.12,6.5-8.5,10.6-15.27,13a33,33,0,0,1-15.34,1.64,31.37,31.37,0,0,1-15.15-5.91.57.57,0,0,0-.16-.15,1.15,1.15,0,0,0-1.58.21,29.91,29.91,0,0,1-15.72,7.5,34.33,34.33,0,0,1-9.76.18,30.79,30.79,0,0,1-12.64-4.35,23.89,23.89,0,0,1-9.47-10.37c-.4-.88-.9-1-1.81-.78A32.35,32.35,0,0,1,175.29,97Z"/><path class="cls-2" d="M156.68,131.7a6,6,0,1,1,6.09-6A6.05,6.05,0,0,1,156.68,131.7Z"/><path class="cls-2" d="M148.05,137.77a3.07,3.07,0,1,1,3.1-3A3.08,3.08,0,0,1,148.05,137.77Z"/><path class="cls-2" d="M154.62,168.55a3.07,3.07,0,1,1,0-6.13,3.07,3.07,0,1,1,0,6.13Z"/><path class="cls-2" d="M73.33,151.94a3.07,3.07,0,1,1,0-6.13,3.07,3.07,0,1,1,0,6.13Z"/><path class="cls-2" d="M165.27,169.29a4.85,4.85,0,1,1,4.92-4.81A4.89,4.89,0,0,1,165.27,169.29Z"/><path class="cls-2" d="M65.85,145.49a4.85,4.85,0,1,1,4.92-4.8A4.88,4.88,0,0,1,65.85,145.49Z"/><path class="cls-2" d="M171.75,123.37a11.1,11.1,0,1,1,11.24-11A11.16,11.16,0,0,1,171.75,123.37Z"/><path class="cls-2" d="M56.8,135.59a9,9,0,1,1,0-17.92,9,9,0,1,1,0,17.92Z"/><path class="cls-2" d="M181.25,173.33a9,9,0,1,1,9.08-8.87A9,9,0,0,1,181.25,173.33Z"/><path class="cls-7" d="M263.33,57.69l-1.16.66c-.07-.06-.1-.07-.11-.09,0-.23,0-.46,0-.69a24.11,24.11,0,0,0-1.83-10.14c-.38-.89-.39-.89-1.2-.31s-1.64,1.24-2.51,1.77a1.27,1.27,0,0,1-1.86-1,5.6,5.6,0,0,1,.06-1c.22-1.56.5-3.11.65-4.68-1.34,0-2.68,0-4,0a10.52,10.52,0,0,1,1.38,2.93,13.36,13.36,0,0,1,.42,5.16c-.15,1.42-.48,2.82-.65,4.23a1,1,0,0,0,.51,1,1,1,0,0,0,1.22,0c.72-.44,1.43-.89,2.13-1.37.39-.26.59-.21.83.21a12.36,12.36,0,0,1,1.38,4.2,15.41,15.41,0,0,1-.49,7.65,15,15,0,0,1-5.43,7.16c-.58.43-1.09,1-1.89,1.08l-.28.19-.18.13a11.49,11.49,0,0,1-6.72,2.15,9.35,9.35,0,0,1-2.18-.08,10.53,10.53,0,0,1-4.42-.66,15.71,15.71,0,0,1-7.9-5.68,14.24,14.24,0,0,1-2.8-7.83,21,21,0,0,1,.75-7.3,29.27,29.27,0,0,1,1.48-3.84.62.62,0,0,1,.25-.31,31.5,31.5,0,0,0,1.07,3A3.16,3.16,0,0,0,231.7,56c.38.12.58.12.47-.41-.74-3.47.84-6.14,3-8.63a30.32,30.32,0,0,0,3-4q-3.65.36-7.31.77a10.26,10.26,0,0,0-.24,4.89c.06.33.31.79,0,1s-.73-.12-1.06-.32a3.55,3.55,0,0,1-.9-.83A7.17,7.17,0,0,1,227.53,46c-.18-.59-.34-1.2-.51-1.85l-.88.1a31.75,31.75,0,0,0-2.42,14.53,21.82,21.82,0,0,0-2.15-1.22,1.23,1.23,0,0,0-.09.24,28.43,28.43,0,0,0,1,10.22,13.22,13.22,0,0,0,6.71,8.41c3.9,2,8,2.07,12.26,1.45a6.29,6.29,0,0,1,2.12-.06,22.84,22.84,0,0,0,6.6.29c4.29-.44,8-2,10.55-5.69,3-4.38,3.33-9.38,3.08-14.48C263.74,57.59,263.6,57.54,263.33,57.69Z"/><path class="cls-8" d="M264.1,55.08A12.06,12.06,0,0,0,262.78,53a3,3,0,0,1-.28-3.25,9.8,9.8,0,0,0,1.1-2.85c0-.12,0-.2.18-.2s.14.1.18.2c.32.74.62,1.49,1,2.2C266,51.23,265.47,53.14,264.1,55.08Z"/><path class="cls-9" d="M257.2,54.3c-.24-.42-.44-.47-.83-.21-.7.48-1.41.93-2.13,1.37a1,1,0,0,1-1.22,0,1,1,0,0,1-.51-1c.17-1.41.5-2.81.65-4.23a13.36,13.36,0,0,0-.42-5.16,10.52,10.52,0,0,0-1.38-2.93c-4.4.06-8.79.36-13.18.78a30.32,30.32,0,0,1-3,4c-2.14,2.49-3.72,5.16-3,8.63.11.53-.09.53-.47.41a3.16,3.16,0,0,1-1.86-1.81,31.5,31.5,0,0,1-1.07-3,.62.62,0,0,0-.25.31A29.27,29.27,0,0,0,227,55.31a21,21,0,0,0-.75,7.3,14.24,14.24,0,0,0,2.8,7.83,15.71,15.71,0,0,0,7.9,5.68,10.53,10.53,0,0,0,4.42.66l-1.82-.69a6.59,6.59,0,0,1-3.14-1.49,10.55,10.55,0,0,1-4.76-9.73,13.27,13.27,0,0,1,1-4.14c.22-.55.47-.58.9-.19a8.72,8.72,0,0,0,.94.65,1,1,0,0,0,1.28.14c.45-.31.31-.78.23-1.2a21.7,21.7,0,0,1-.41-3.11c-.22-4.14,1.85-6.88,5.32-8.76a16.76,16.76,0,0,1,3.7-1.49c.31-.08.54-.23.45.32-.47,2.85.75,5.14,2.46,7.25a12.63,12.63,0,0,1,2.93,4.88,5.13,5.13,0,0,1,0,1.75c0,.25-.17.61.16.76s.57-.15.78-.37a4,4,0,0,0,1-2,2.5,2.5,0,0,1,.4-1,14.5,14.5,0,0,1,1.36,3.73,13.39,13.39,0,0,1-.33,7.7A10.35,10.35,0,0,1,251,74a.57.57,0,0,0-.23.38c.8,0,1.31-.65,1.89-1.08a15,15,0,0,0,5.43-7.16,15.41,15.41,0,0,0,.49-7.65A12.36,12.36,0,0,0,257.2,54.3Z"/><path class="cls-10" d="M239.59,76.09a6.59,6.59,0,0,1-3.14-1.49,10.55,10.55,0,0,1-4.76-9.73,13.27,13.27,0,0,1,1-4.14c.22-.55.47-.58.9-.19a7.49,7.49,0,0,0,.94.65,1,1,0,0,0,1.28.14c.45-.31.31-.78.23-1.2a21.7,21.7,0,0,1-.41-3.11c-.22-4.14,1.85-6.88,5.32-8.76a16.76,16.76,0,0,1,3.7-1.49c.31-.08.54-.23.45.32-.47,2.85.75,5.14,2.46,7.25a12.63,12.63,0,0,1,2.93,4.88,5.13,5.13,0,0,1,0,1.75c0,.25-.17.61.16.76s.57-.15.78-.37a4,4,0,0,0,1-2,2.5,2.5,0,0,1,.4-1,14.5,14.5,0,0,1,1.36,3.73,13.39,13.39,0,0,1-.33,7.7A10.35,10.35,0,0,1,251,74a.57.57,0,0,0-.23.38l-.28.19-.18.13a11.49,11.49,0,0,1-6.72,2.15.54.54,0,0,1,.13-.07c4.15-.72,6.82-4.82,5.2-9.44-.16-.44-.3-.74-.82-.32-.26.22-.55.65-1,.37s-.14-.71-.15-1.08a1.76,1.76,0,0,1,.08-.37c.6-4.05-1.29-6.08-4.81-7.38-.36-.13-.51-.06-.43.39a4.24,4.24,0,0,1-.37,2.47,15.9,15.9,0,0,1-1.71,2.64,4.39,4.39,0,0,0-1,3c0,.18.16.44-.12.52s-.36-.15-.49-.3c-.39-.49-.39-1.14-.72-1.73a9.87,9.87,0,0,0-.64,6.79A7.27,7.27,0,0,0,239.59,76.09Z"/><path class="cls-11" d="M239.59,76.09a7.27,7.27,0,0,1-2.8-3.74,9.87,9.87,0,0,1,.64-6.79c.33.59.33,1.24.72,1.73.13.15.27.37.49.3s.14-.34.12-.52a4.39,4.39,0,0,1,1-3,15.9,15.9,0,0,0,1.71-2.64,4.24,4.24,0,0,0,.37-2.47c-.08-.45.07-.52.43-.39,3.52,1.3,5.41,3.33,4.81,7.38a1.76,1.76,0,0,0-.08.37c0,.37-.24.82.15,1.08s.72-.15,1-.37c.52-.42.66-.12.82.32,1.62,4.62-1,8.72-5.2,9.44a.54.54,0,0,0-.13.07,9.35,9.35,0,0,1-2.18-.08Z"/><path class="cls-9" d="M250.31,74.71l.18-.13Z"/><path class="cls-12" d="M219.33,69.81a1.47,1.47,0,0,0-.44-1,3.58,3.58,0,0,0,.77-.23h0c-.17-1.34-.29-2.49,1.72-2.47,13.52.07,27.05.07,40.58.1,3.2-.2,3.2-.2,3.4,2.68h0l0,5.57c0,6.06,0,12.11-.06,18.17,0,3.24-1.62,5-4.73,5.31H224.08c-2.76-.45-3.8-1.48-4.3-4.26-.65-5.57-.11-13.84-.29-19.42"/><path class="cls-12" d="M260.31,97.81l.22.11Z"/><path class="cls-13" d="M219.59,68.55a3.82,3.82,0,0,0-.68-.06h-4.29c-1.77,0-3.22,1.13-3.22,2.5s1.45,2.51,3.22,2.51h4.29a3.82,3.82,0,0,0,.68-.06Z"/><path class="cls-13" d="M265.25,68.55a3.82,3.82,0,0,1,.68-.06h4.29c1.77,0,3.22,1.13,3.22,2.5S272,73.5,270.22,73.5h-4.29a3.82,3.82,0,0,1-.68-.06Z"/><rect class="cls-14" x="0.4" y="266.12" width="348" height="16.23"/><path class="cls-7" d="M157.12,214.09a10.3,10.3,0,0,1,1.22.69,18.07,18.07,0,0,1,1.69-9c.17.66.3,1.2.46,1.74a4.18,4.18,0,0,0,.64,1.37,1.89,1.89,0,0,0,.51.47c.18.12.41.29.6.19s0-.37,0-.56c-.43-2.21.46-4,1.7-5.76a31,31,0,0,0,2.46-3.64,7.46,7.46,0,0,0,.8-5.35c0-.16-.14-.38.2-.27a16.18,16.18,0,0,1,5.94,3.2,9,9,0,0,1,3,7.38,33.34,33.34,0,0,1-.42,3.46,2.13,2.13,0,0,0,0,.56.71.71,0,0,0,1,.59c.5-.3,1-.67,1.43-1s.47-.33.68.17a13.49,13.49,0,0,1,1,5.75c0,.13,0,.26,0,.39l.06,0,.65-.38c.16-.08.24,0,.25.14.14,2.89,0,5.72-1.75,8.21a7.77,7.77,0,0,1-6,3.22,13,13,0,0,1-3.74-.17,3.45,3.45,0,0,0-1.2,0,11.3,11.3,0,0,1-7-.82,7.5,7.5,0,0,1-3.8-4.77,16.16,16.16,0,0,1-.54-5.79A.43.43,0,0,1,157.12,214.09Zm16.38,9.64.16-.1c.45,0,.74-.37,1.07-.62a8.43,8.43,0,0,0,3.08-4,8.89,8.89,0,0,0,.28-4.34,7.48,7.48,0,0,0-.78-2.38c-.14-.24-.26-.26-.48-.11-.39.27-.8.52-1.21.77a.57.57,0,0,1-.69,0,.55.55,0,0,1-.28-.54c.09-.8.28-1.59.36-2.4a7.36,7.36,0,0,0-.23-2.92,6.53,6.53,0,0,0-2.21-3.2,14,14,0,0,0-5-2.46c-.36-.11-.22.14-.19.29a4.75,4.75,0,0,1-.26,3.11,13.45,13.45,0,0,1-2.27,3.33c-1.21,1.41-2.11,2.92-1.69,4.89.07.29-.05.3-.26.23a1.75,1.75,0,0,1-1.05-1,15.57,15.57,0,0,1-.61-1.71.32.32,0,0,0-.14.17,15.57,15.57,0,0,0-.84,2.18,11.76,11.76,0,0,0-.43,4.13,8,8,0,0,0,1.59,4.44,9,9,0,0,0,4.47,3.22,6.11,6.11,0,0,0,2.51.37,5.63,5.63,0,0,0,1.23.05,6.57,6.57,0,0,0,3.81-1.22Z"/><path class="cls-15" d="M161.8,197.91a3.73,3.73,0,0,1,.67,4.17,9.7,9.7,0,0,0-.8,2.67,5.19,5.19,0,0,1-1.32-3.29,3.14,3.14,0,0,1,.58-1.44A5.87,5.87,0,0,0,161.8,197.91Z"/><path class="cls-16" d="M168.55,188.74a2.65,2.65,0,0,1,.9,3.06,4.28,4.28,0,0,0,0,2.61c-.84-.65-1.71-1.08-2.13-2a2.14,2.14,0,0,1,.33-2.25A5.78,5.78,0,0,0,168.55,188.74Z"/><path class="cls-8" d="M181.21,212.69a7.84,7.84,0,0,0-.74-1.19,1.65,1.65,0,0,1-.16-1.84,5.78,5.78,0,0,0,.62-1.62c0-.06,0-.11.1-.11s.08.06.1.12c.18.42.35.84.56,1.24A3.1,3.1,0,0,1,181.21,212.69Z"/><path class="cls-9" d="M168.36,225a6.11,6.11,0,0,1-2.51-.37,9,9,0,0,1-4.47-3.22,8,8,0,0,1-1.59-4.44,11.76,11.76,0,0,1,.43-4.13,15.57,15.57,0,0,1,.84-2.18.32.32,0,0,1,.14-.17,15.57,15.57,0,0,0,.61,1.71,1.75,1.75,0,0,0,1.05,1c.21.07.33.06.26-.23-.42-2,.48-3.48,1.69-4.89a13.45,13.45,0,0,0,2.27-3.33,4.75,4.75,0,0,0,.26-3.11c0-.15-.17-.4.19-.29a14,14,0,0,1,5,2.46,6.53,6.53,0,0,1,2.21,3.2,7.36,7.36,0,0,1,.23,2.92c-.08.81-.27,1.6-.36,2.4a.55.55,0,0,0,.28.54.57.57,0,0,0,.69,0c.41-.25.82-.5,1.21-.77.22-.15.34-.13.48.11a7.48,7.48,0,0,1,.78,2.38,8.89,8.89,0,0,1-.28,4.34,8.43,8.43,0,0,1-3.08,4c-.33.25-.62.59-1.07.62a.32.32,0,0,1,.13-.22,5.85,5.85,0,0,0,1.65-2.41,7.62,7.62,0,0,0,.19-4.36,8,8,0,0,0-.78-2.11,1.45,1.45,0,0,0-.22.58,2.38,2.38,0,0,1-.6,1.14c-.12.12-.24.29-.44.2s-.1-.28-.09-.43a2.74,2.74,0,0,0,0-1,7,7,0,0,0-1.66-2.76,5.12,5.12,0,0,1-1.39-4.11c.05-.31-.08-.22-.25-.18a9.31,9.31,0,0,0-2.1.84,5.06,5.06,0,0,0-3,5,13.28,13.28,0,0,0,.24,1.76c0,.23.12.5-.13.68a.62.62,0,0,1-.73-.08,6.3,6.3,0,0,1-.53-.37c-.24-.22-.38-.2-.51.11a7.33,7.33,0,0,0-.59,2.34,6,6,0,0,0,2.7,5.52,3.77,3.77,0,0,0,1.78.84Z"/><path class="cls-10" d="M167.33,224.59a3.77,3.77,0,0,1-1.78-.84,6,6,0,0,1-2.7-5.52,7.33,7.33,0,0,1,.59-2.34c.13-.31.27-.33.51-.11a6.3,6.3,0,0,0,.53.37.62.62,0,0,0,.73.08c.25-.18.17-.45.13-.68a13.28,13.28,0,0,1-.24-1.76,5.06,5.06,0,0,1,3-5,9.31,9.31,0,0,1,2.1-.84c.17,0,.3-.13.25.18a5.12,5.12,0,0,0,1.39,4.11,7,7,0,0,1,1.66,2.76,2.74,2.74,0,0,1,0,1c0,.15-.1.35.09.43s.32-.08.44-.2a2.38,2.38,0,0,0,.6-1.14,1.45,1.45,0,0,1,.22-.58,8,8,0,0,1,.78,2.11,7.62,7.62,0,0,1-.19,4.36,5.85,5.85,0,0,1-1.65,2.41.32.32,0,0,0-.13.22l-.16.1-.1.08a6.57,6.57,0,0,1-3.81,1.22l.07-.05a3.88,3.88,0,0,0,3-5.34c-.09-.25-.17-.42-.46-.18s-.32.37-.56.2-.08-.4-.08-.6a.93.93,0,0,1,0-.22c.34-2.29-.73-3.44-2.72-4.17-.21-.08-.29,0-.25.22a2.32,2.32,0,0,1-.21,1.39,8.69,8.69,0,0,1-1,1.5,2.47,2.47,0,0,0-.55,1.7c0,.1.09.25-.07.3s-.21-.09-.28-.18c-.22-.27-.22-.64-.41-1a5.64,5.64,0,0,0-.36,3.85A4.1,4.1,0,0,0,167.33,224.59Z"/><path class="cls-17" d="M167.33,224.59a4.1,4.1,0,0,1-1.59-2.12,5.64,5.64,0,0,1,.36-3.85c.19.34.19.71.41,1,.07.09.15.21.28.18s.08-.2.07-.3a2.47,2.47,0,0,1,.55-1.7,8.69,8.69,0,0,0,1-1.5,2.32,2.32,0,0,0,.21-1.39c0-.26,0-.3.25-.22,2,.73,3.06,1.88,2.72,4.17a.93.93,0,0,0,0,.22c0,.2-.14.46.08.6s.41-.08.56-.2.37-.07.46.18a3.88,3.88,0,0,1-3,5.34l-.07.05a5.63,5.63,0,0,1-1.23-.05Z"/><path class="cls-9" d="M173.4,223.81l.1-.08Z"/><text class="cls-18" transform="translate(97.45 175.73)"><tspan xml:space="preserve">  </tspan><tspan x="0" y="14.05"> </tspan><tspan x="0" y="42.16"> </tspan><tspan x="0" y="70.26"> </tspan></text><path class="cls-19" d="M122.68,208s11.75,8.46,20.72-8.56"/><path class="cls-20" d="M141.36,191.36a.78.78,0,0,1,1-.51h0a.93.93,0,0,1,.79.93l-.13.93a2,2,0,0,1,.29-.36l2.37-4.09a.93.93,0,0,1,1.19-.22.78.78,0,0,1,.47,1l-1.42,2.45a4.83,4.83,0,0,1,.73.12l1.65-2.85a.93.93,0,0,1,1.2-.22.79.79,0,0,1,.47,1l-1.66,2.85a4.25,4.25,0,0,1,.57.55l1.38-2.38a.91.91,0,0,1,1.19-.22.77.77,0,0,1,.47,1l-2.53,4.37,0,0,0,.07-1.88,3.24c-.76,1.31-2.82,1.68-4.57.83a3.34,3.34,0,0,1-2.07-3Z"/><path class="cls-21" d="M107.33,150.67c-18.77,0-34,4.64-34,24.45a108.63,108.63,0,0,0,1.37,15.06,140.39,140.39,0,0,0,3.78,16.39c.64,2.36,1.32,4.44,1.08,6.92a19.66,19.66,0,0,1-2.31,6.35c-2.62,5.3-3.31,10.75-1.37,16.4,1.28,3.75,4.4,6.74,7.89,8.62,7.22,3.89,10.08,3.69,24.83,3.69,8.76,0,17.89-.67,25.06-6.29a18.93,18.93,0,0,0,6.3-9,21.17,21.17,0,0,0,1.06-5.2c.38-3-.6-6.87-1.74-9.6-1.7-4.11-3.35-9.59-2.23-14.09,2.62-10.49,4.25-24.32,4.25-29.64,0-19.81-15.21-24.05-34-24.05"/><polyline class="cls-21" points="110.96 245.21 114.22 270.86 118.12 270.86 121.38 244.63"/><polygon class="cls-22" points="118.12 270.86 119.63 258.73 112.68 258.73 113.97 269.97 118.12 270.86"/><path class="cls-23" d="M113.65,271.5a6.57,6.57,0,0,1,13.13,0"/><polyline class="cls-21" points="96.43 245.38 99.69 271.03 103.59 271.03 106.85 244.8"/><polygon class="cls-22" points="103.59 271.03 105.1 258.89 98.15 258.89 99.44 270.14 103.59 271.03"/><path class="cls-23" d="M99.12,271.67a6.57,6.57,0,0,1,13.13,0"/><path class="cls-24" d="M116.19,170.7s-1.26,4.23-5.88,2.65"/><path class="cls-24" d="M131.55,171.14s1.43,4,5.72,1.7"/><path class="cls-25" d="M116.79,188.06s1.28-3.86,7.22-3.63,6.34,3.88,6.34,3.88Z"/><path class="cls-2" d="M126.15,180.62a5.24,5.24,0,0,1,10.45,0"/><path class="cls-25" d="M130.11,180.62a2.27,2.27,0,1,1,4.54,0"/><path class="cls-2" d="M110.63,180.62a5.26,5.26,0,0,1,10.5,0"/><path class="cls-25" d="M114.58,180.62a2.27,2.27,0,0,1,4.54,0"/><path class="cls-25" d="M111.16,178.13l-2.8-1.11,2.49,2a2.14,2.14,0,0,0-.08.32l-2.44-.3,2.33,1c0,.31,0,.51,0,.51,1.31-4.13,3.91-4.68,4.66-4.75A4.33,4.33,0,0,0,111.16,178.13Z"/><path class="cls-25" d="M115.29,175.74l.21,0Z"/><path class="cls-25" d="M138.9,179l-2.44.3c0-.1-.05-.21-.08-.32l2.49-2-2.81,1.11a4.33,4.33,0,0,0-4.12-2.4c.74.08,3.35.63,4.65,4.76a3.86,3.86,0,0,0,0-.51Z"/><path class="cls-25" d="M131.94,175.73h0Z"/><path class="cls-19" d="M96.43,214.79s14,1.42,19.91-16.9"/><path class="cls-20" d="M112.94,190.34c0-.4.39-.7.9-.68h0a.93.93,0,0,1,.94.77l0,.95A2.38,2.38,0,0,1,115,191l1.62-4.44a.93.93,0,0,1,1.14-.42c.49.15.78.57.64.94l-1,2.66a5.9,5.9,0,0,1,.73,0l1.14-3.09a.92.92,0,0,1,1.14-.42.78.78,0,0,1,.64.93l-1.14,3.1a4.41,4.41,0,0,1,.66.43l.94-2.58a.93.93,0,0,1,1.14-.42c.49.14.78.56.64.93l-1.74,4.75,0,0a.24.24,0,0,1,0,.08L120.29,197c-.52,1.43-2.48,2.15-4.35,1.61a3.33,3.33,0,0,1-2.57-2.65Z"/><text class="cls-26" transform="translate(291.08 159.6)"><tspan xml:space="preserve">  </tspan><tspan x="0" y="6.48"> </tspan><tspan x="0" y="19.45"> </tspan><tspan x="0" y="32.41"> </tspan></text><path class="cls-27" d="M302.72,174.47s5.42,3.9,9.56-3.95"/><path class="cls-20" d="M311.34,166.81c0-.18.23-.28.46-.23h0a.42.42,0,0,1,.37.43l-.06.43a1.09,1.09,0,0,1,.13-.17l1.1-1.89a.44.44,0,0,1,.55-.1c.21.11.31.32.21.48l-.65,1.13a1.91,1.91,0,0,1,.33.06l.76-1.32a.44.44,0,0,1,.56-.1.36.36,0,0,1,.21.48l-.76,1.31a1.55,1.55,0,0,1,.26.25l.64-1.1a.42.42,0,0,1,.55-.09.36.36,0,0,1,.22.47l-1.17,2h0v0l-.87,1.5a1.63,1.63,0,0,1-2.1.38,1.53,1.53,0,0,1-1-1.41Z"/><path class="cls-21" d="M295.64,148C287,148,280,150.18,280,159.32a50.57,50.57,0,0,0,.63,7,63.67,63.67,0,0,0,1.75,7.56,8.69,8.69,0,0,1,.49,3.19,8.9,8.9,0,0,1-1.06,2.93,9.49,9.49,0,0,0-.63,7.57,7.49,7.49,0,0,0,3.63,4c3.34,1.8,4.65,1.71,11.46,1.71,4,0,8.25-.31,11.56-2.9a8.79,8.79,0,0,0,2.91-4.16,10.44,10.44,0,0,0,.49-2.4,9.63,9.63,0,0,0-.81-4.43c-.78-1.9-1.54-4.42-1-6.5a73.65,73.65,0,0,0,2-13.67c0-9.14-7-11.1-15.68-11.1"/><path class="cls-21" d="M288.75,191.62l1,4.52a1.08,1.08,0,0,1-.25.81l-2.66,3.55a1.09,1.09,0,0,0,.23,1.61h0a1.08,1.08,0,0,0,1.29-.09l4.86-4.19a1.06,1.06,0,0,0,.36-.64l.79-4.8"/><polygon class="cls-22" points="287.88 202.27 290.94 199.77 288.83 197.81 286.55 200.99 287.88 202.27"/><path class="cls-23" d="M285.65,201.3a2.79,2.79,0,0,1,4.06,3.78"/><path class="cls-21" d="M299,192.73l4.73,3.92a1.06,1.06,0,0,1,.4.75l.38,4.66a1.08,1.08,0,0,0,1.31,1h0a1.1,1.1,0,0,0,.84-1l.43-6.4a1.07,1.07,0,0,0-.2-.71l-2.21-4.18"/><polygon class="cls-22" points="306.54 202.54 306.91 198.61 304.19 198.37 304.54 202.81 306.54 202.54"/><path class="cls-23" d="M304.28,203.44a2.79,2.79,0,0,1,5.55-.22"/><path class="cls-28" d="M299.73,157.28A2,2,0,0,1,297,158.5"/><path class="cls-28" d="M306.81,157.49a1.69,1.69,0,0,0,2.64.78"/><path class="cls-25" d="M300,165.29s.59-1.78,3.33-1.67,2.92,1.79,2.92,1.79Z"/><path class="cls-2" d="M304.32,161.86a2.41,2.41,0,0,1,4.82,0"/><path class="cls-25" d="M306.15,161.86a1,1,0,1,1,2.09,0"/><path class="cls-2" d="M297.16,161.86a2.43,2.43,0,0,1,4.84,0"/><path class="cls-25" d="M299,161.86a1,1,0,1,1,2.09,0"/><path class="cls-25" d="M297.41,160.71l-1.3-.51,1.15.9,0,.15-1.13-.14,1.08.45a2,2,0,0,0,0,.24c.61-1.91,1.81-2.16,2.15-2.19A2,2,0,0,0,297.41,160.71Z"/><path class="cls-25" d="M299.31,159.61h0Z"/><path class="cls-25" d="M310.2,161.11l-1.12.14a.83.83,0,0,0,0-.15l1.15-.9-1.29.51a2,2,0,0,0-1.91-1.1c.35,0,1.55.28,2.15,2.19,0,0,0-.09,0-.24Z"/><path class="cls-25" d="M307,159.61h0Z"/><path class="cls-27" d="M290.61,177.62s6.47.66,9.18-7.79"/><path class="cls-20" d="M298.23,166.34c0-.18.18-.32.41-.31h0a.43.43,0,0,1,.44.36v.43a.93.93,0,0,1,.11-.19l.75-2a.43.43,0,0,1,.52-.2c.23.07.36.26.3.43l-.45,1.23a1.93,1.93,0,0,1,.34,0l.52-1.43a.41.41,0,0,1,.52-.19.36.36,0,0,1,.3.43l-.52,1.43a1.57,1.57,0,0,1,.3.2l.43-1.19a.43.43,0,0,1,.53-.2c.23.07.36.26.3.43l-.81,2.19v0l0,0-.59,1.62a1.62,1.62,0,0,1-2,.74,1.5,1.5,0,0,1-1.18-1.22Z"/><polygon class="cls-29" points="230.54 248.01 142.28 248.01 142.28 253.06 147.54 253.06 147.54 255.13 147.43 255.13 147.43 272.29 154.26 272.29 154.26 256.6 218.71 256.6 218.71 272.29 225.39 272.29 225.39 255.18 225.39 253.06 230.54 253.06 230.54 248.01"/><rect class="cls-30" x="151.22" y="246.7" width="3.66" height="1.44"/><rect class="cls-30" x="183.91" y="246.7" width="3.66" height="1.44"/><line class="cls-31" x1="169.05" y1="238" x2="169.05" y2="240.27"/><path class="cls-32" d="M162.67,239.47c0,1-.57.84-1.27.84s-1.28.2-1.28-.84a7.79,7.79,0,0,1,1.28-2.92A7.82,7.82,0,0,1,162.67,239.47Z"/><path class="cls-32" d="M165.44,239.47c0,1-.57.84-1.27.84s-1.27.2-1.27-.84a7.82,7.82,0,0,1,1.27-2.92A7.82,7.82,0,0,1,165.44,239.47Z"/><path class="cls-32" d="M168.31,239.47c0,1-.57.84-1.28.84s-1.27.2-1.27-.84a7.82,7.82,0,0,1,1.27-2.92A7.79,7.79,0,0,1,168.31,239.47Z"/><path class="cls-32" d="M172.44,239.47c0,1-.57.84-1.27.84s-1.27.2-1.27-.84a7.82,7.82,0,0,1,1.27-2.92A7.82,7.82,0,0,1,172.44,239.47Z"/><path class="cls-32" d="M175.39,239.47c0,1-.57.84-1.27.84s-1.27.2-1.27-.84a7.82,7.82,0,0,1,1.27-2.92A7.82,7.82,0,0,1,175.39,239.47Z"/><path class="cls-32" d="M178.3,239.47c0,1-.57.84-1.28.84s-1.27.2-1.27-.84a7.82,7.82,0,0,1,1.27-2.92A7.79,7.79,0,0,1,178.3,239.47Z"/><path class="cls-33" d="M162.23,239.81c0,.68-.37.55-.83.55s-.84.13-.84-.55a5.09,5.09,0,0,1,.84-1.91A5.12,5.12,0,0,1,162.23,239.81Z"/><path class="cls-33" d="M165,239.91c0,.68-.38.55-.84.55s-.83.13-.83-.55a5.12,5.12,0,0,1,.83-1.91A5.09,5.09,0,0,1,165,239.91Z"/><path class="cls-33" d="M167.87,239.81c0,.68-.38.55-.84.55s-.83.13-.83-.55a5.12,5.12,0,0,1,.83-1.91A5.09,5.09,0,0,1,167.87,239.81Z"/><path class="cls-33" d="M172.05,239.81c0,.68-.37.55-.83.55s-.84.13-.84-.55a5.09,5.09,0,0,1,.84-1.91A5.12,5.12,0,0,1,172.05,239.81Z"/><path class="cls-33" d="M174.93,239.81c0,.68-.37.55-.83.55s-.84.13-.84-.55a5.09,5.09,0,0,1,.84-1.91A5.12,5.12,0,0,1,174.93,239.81Z"/><path class="cls-33" d="M177.86,239.81c0,.68-.38.55-.84.55s-.83.13-.83-.55a5.12,5.12,0,0,1,.83-1.91A5.09,5.09,0,0,1,177.86,239.81Z"/><polyline class="cls-34" points="159.16 240.27 159.16 238.05 179.12 238.05 179.12 240.27"/><rect class="cls-35" x="151.22" y="240.27" width="36.35" height="6.43"/><circle class="cls-30" cx="169.39" cy="243.48" r="2.17"/><path class="cls-12" d="M155.85,221a.87.87,0,0,0-.25-.58,1.64,1.64,0,0,0,.43-.13h0c-.09-.76-.16-1.41,1-1.4q11.49.06,23,.06c1.81-.11,1.81-.11,1.92,1.52h0l0,3.15c0,3.43,0,6.86,0,10.29a2.73,2.73,0,0,1-2.68,3H158.54a2.48,2.48,0,0,1-2.44-2.41c-.36-3.16-.06-7.84-.16-11"/><path class="cls-12" d="M179.06,236.89l.13.07Z"/><path class="cls-13" d="M156,220.32a2.58,2.58,0,0,0-.39,0h-2.43a1.46,1.46,0,1,0,0,2.84h2.43a2.56,2.56,0,0,0,.39,0Z"/><path class="cls-13" d="M181.86,220.32a2.58,2.58,0,0,1,.39,0h2.43a1.46,1.46,0,1,1,0,2.84h-2.43a2.56,2.56,0,0,1-.39,0Z"/><path class="cls-13" d="M211.54,240a.43.43,0,0,1,0-.19v-1.22c0-.5.81-.92,1.81-.92s1.83.39,1.83.89v1.22a.58.58,0,0,1,0,.19Z"/><path class="cls-12" d="M213.32,239.56c-7.07.05-12.78,3.77-12.75,8.32l25.6-.18C226.14,243.15,220.38,239.51,213.32,239.56Z"/><path class="cls-13" d="M230.28,37.17a.67.67,0,0,1-.19-.28l-.77-2c-.31-.82.76-2,2.38-2.63s3.22-.48,3.54.33l.76,2a.78.78,0,0,1,.05.34Z"/><path class="cls-12" d="M232.93,35.44c-11.48,4.46-18.46,14.05-15.59,21.44L258.9,40.74C256,33.35,244.4,31,232.93,35.44Z"/><path class="cls-2" d="M198.33,234.28a1,1,0,0,1-.74-1v-.46a1,1,0,0,1,.71-1c.26-.08.29-.21.28-.43,0-1.07,0-2.15-.06-3.22A6.25,6.25,0,0,0,197.4,225a14.88,14.88,0,0,0-1.83-2c-.21-.21-.37-.38,0-.61a.24.24,0,0,0,.09-.23l-.08,0H193.9l-.07,0a13.94,13.94,0,0,0-1.71,0,.31.31,0,0,0,.12.28c.24.17.15.31,0,.48-.4.38-.79.77-1.18,1.17a6.26,6.26,0,0,0-1.89,4.58c0,.84,0,1.67,0,2.51,0,.33,0,.63.42.66.06,0,.12.07.17.12.52.46.34,1.06.29,1.62a.64.64,0,0,1-.53.58c-.27.06-.35.22-.35.51,0,3.53,0,7.07,0,10.6a3.51,3.51,0,0,0,1,2.43.5.5,0,0,0,.42.2h5.91a.13.13,0,0,1,.22,0,1.15,1.15,0,0,0,1.29-.67,4.3,4.3,0,0,0,.61-2.36q0-5.15,0-10.28A.3.3,0,0,0,198.33,234.28Zm-8.49-6.56h0Zm8.24,17.88a3,3,0,0,1-.73,1.76.5.5,0,0,1-.44.17c-1,0-2,0-3.08,0v0h-3.15c-.43,0-.51-.38-.66-.63a3.62,3.62,0,0,1-.46-1.84c0-3.34,0-6.69,0-10a.46.46,0,0,1,.27-.48,1.71,1.71,0,0,0,.67-1.91c-.1-.48-.24-1-.81-1.12-.12,0-.13-.13-.13-.23,0-1.12,0-2.24,0-3.36a.23.23,0,0,1,.06-.12s0,0,0,0,0,0,0,0h4.18c1.34,0,2.67,0,4,0,.21,0,.25.09.25.27,0,1.06,0,2.11,0,3.16a.31.31,0,0,1-.21.31,1.94,1.94,0,0,0-.72,1.94c.05.14.06.29.11.44a1.22,1.22,0,0,0,.61.67.31.31,0,0,1,.2.35C198.09,238.49,198.1,242,198.08,245.6Z"/><path class="cls-13" d="M195.69,220.21c0-.16,0-.17-.16-.14h-.14a.12.12,0,0,0-.14,0l0,0,0,0H193.9l-1.7,0c-.17,0-.22,0-.22.22,0,.57,0,1.13,0,1.7,0,.11,0,.22.14.24a13.94,13.94,0,0,1,1.71,0l.07,0h1.35a.08.08,0,0,1,.14,0h.14l.08,0c.12-.05.13-.13.08-.24A13.07,13.07,0,0,0,195.69,220.21Z"/><path class="cls-36" d="M197.89,234.58a1.22,1.22,0,0,1-.61-.67c-.05-.15-.06-.3-.11-.44a1.94,1.94,0,0,1,.72-1.94.31.31,0,0,0,.21-.31c0-1.05,0-2.1,0-3.16,0-.18,0-.27-.25-.27-1.34,0-2.67,0-4,0h-4.18a.23.23,0,0,0-.06.12c0,1.12,0,2.24,0,3.36,0,.1,0,.2.13.23.57.16.71.64.81,1.12a1.71,1.71,0,0,1-.67,1.91.46.46,0,0,0-.27.48c0,3.34,0,6.69,0,10a3.62,3.62,0,0,0,.46,1.84c.15.25.23.64.66.63h3.15v0c1,0,2,0,3.08,0a.5.5,0,0,0,.44-.17,3,3,0,0,0,.73-1.76c0-3.56,0-7.11,0-10.67A.31.31,0,0,0,197.89,234.58Z"/><path class="cls-37" d="M197.89,234.61a1.23,1.23,0,0,1-.61-.69c-.05-.15-.06-.31-.11-.45a2,2,0,0,1,.72-2,.31.31,0,0,0,.21-.31c0-1.09,0-2.17,0-3.25,0-.19,0-.28-.25-.28l-4,0-4.18,0a.25.25,0,0,0-.06.13c0,1.15,0,2.31,0,3.46,0,.1,0,.2.13.23.57.17.71.66.81,1.16a1.78,1.78,0,0,1-.67,2,.48.48,0,0,0-.27.5c0,3.44,0,6.88,0,10.32a3.77,3.77,0,0,0,.46,1.88c.15.27.23.66.66.66h3.15v0h3.08a.49.49,0,0,0,.44-.18,3.09,3.09,0,0,0,.73-1.8c0-3.66,0-7.32,0-11A.32.32,0,0,0,197.89,234.61Z"/><path class="cls-38" d="M195.25,222.58a.08.08,0,0,1,.14,0Z"/><line class="cls-39" x1="189.33" y1="235.73" x2="198.28" y2="235.73"/><line class="cls-39" x1="189.33" y1="237.49" x2="198.28" y2="237.49"/><line class="cls-39" x1="189.33" y1="239.03" x2="198.28" y2="239.03"/><line class="cls-39" x1="189.33" y1="240.78" x2="198.28" y2="240.78"/><line class="cls-39" x1="189.33" y1="242.52" x2="198.28" y2="242.52"/><line class="cls-39" x1="189.33" y1="244.28" x2="198.28" y2="244.28"/><path class="cls-40" d="M197.53,4.58s-8.79,12.8,19,31"/><path class="cls-20" d="M229.84,30.32c.69,0,1.21.68,1.17,1.55h0a1.62,1.62,0,0,1-1.33,1.64l-1.64.05a4.19,4.19,0,0,1,.72.39l7.66,2.8a1.59,1.59,0,0,1,.72,2,1.35,1.35,0,0,1-1.61,1.11l-4.6-1.69a7.69,7.69,0,0,1,0,1.27l5.35,2a1.6,1.6,0,0,1,.73,2c-.25.84-1,1.34-1.61,1.11l-5.35-2a6.93,6.93,0,0,1-.75,1.13l4.46,1.63a1.59,1.59,0,0,1,.73,2c-.25.85-1,1.35-1.62,1.11l-8.19-3-.06,0-.13,0L218.43,43c-2.46-.9-3.71-4.28-2.78-7.52.73-2.54,2.6-4.25,4.56-4.44Z"/><path class="cls-1" d="M198.66,25.64l.82-.15s2.23-5.74,3.8-7.67S205,4.17,205,4.17L202.5.82,193,0l-8.14,1.12L194,20.69Z"/><path class="cls-1" d="M249.47,162.15c0-10.17-8.75-18.15-19.8-18.15s-20,8.24-20,18.41v16.86h39.78v-14S249.47,163.12,249.47,162.15Z"/><rect class="cls-14" x="209.56" y="177.07" width="40" height="2.81"/><path class="cls-7" d="M219.75,168.23a8.17,8.17,0,0,1,.89.5,13.06,13.06,0,0,1,1.22-6.52c.13.48.23.87.34,1.26a3,3,0,0,0,.47,1,1.46,1.46,0,0,0,.36.34c.14.08.3.21.44.13s0-.26,0-.4a5.24,5.24,0,0,1,1.23-4.18,21.59,21.59,0,0,0,1.79-2.65,5.37,5.37,0,0,0,.58-3.88c0-.12-.11-.28.14-.2a11.59,11.59,0,0,1,4.31,2.33,6.52,6.52,0,0,1,2.16,5.36,23.85,23.85,0,0,1-.3,2.51,1.4,1.4,0,0,0,0,.41.51.51,0,0,0,.76.42c.36-.21.69-.48,1-.72s.34-.24.49.12a10,10,0,0,1,.76,4.18,2.61,2.61,0,0,0,0,.28l0,0,.48-.27c.11-.06.17,0,.18.1a9.27,9.27,0,0,1-1.27,6,5.63,5.63,0,0,1-4.34,2.34,9.46,9.46,0,0,1-2.71-.12,2.6,2.6,0,0,0-.88,0,8.24,8.24,0,0,1-5-.6,5.42,5.42,0,0,1-2.76-3.46,11.67,11.67,0,0,1-.4-4.2A.69.69,0,0,1,219.75,168.23Zm11.9,7,.11-.07a1.58,1.58,0,0,0,.78-.45,6.21,6.21,0,0,0,2.24-3,6.43,6.43,0,0,0,.2-3.14,5.11,5.11,0,0,0-.57-1.73c-.1-.18-.18-.19-.34-.09s-.58.38-.88.57a.48.48,0,0,1-.71-.41c.07-.58.21-1.16.27-1.74a5.4,5.4,0,0,0-.18-2.12,4.62,4.62,0,0,0-1.6-2.33,10.16,10.16,0,0,0-3.66-1.79c-.26-.08-.16.11-.13.21a3.5,3.5,0,0,1-.2,2.26,9.48,9.48,0,0,1-1.64,2.42,4,4,0,0,0-1.23,3.55c0,.22,0,.22-.19.17a1.32,1.32,0,0,1-.77-.75c-.18-.38-.28-.8-.44-1.24a.26.26,0,0,0-.1.13,10.76,10.76,0,0,0-.61,1.58,8.67,8.67,0,0,0-.31,3,5.9,5.9,0,0,0,1.16,3.22,6.51,6.51,0,0,0,3.24,2.34,4.5,4.5,0,0,0,1.82.27,3.88,3.88,0,0,0,.9,0,4.82,4.82,0,0,0,2.77-.88Z"/><path class="cls-15" d="M223.15,156.48a2.72,2.72,0,0,1,.49,3,6.67,6.67,0,0,0-.58,1.94,3.77,3.77,0,0,1-1-2.4,2.25,2.25,0,0,1,.42-1A4.19,4.19,0,0,0,223.15,156.48Z"/><path class="cls-16" d="M228.05,149.82a1.93,1.93,0,0,1,.66,2.22,3.11,3.11,0,0,0,0,1.89c-.61-.47-1.24-.78-1.55-1.45a1.54,1.54,0,0,1,.24-1.63A4,4,0,0,0,228.05,149.82Z"/><path class="cls-8" d="M237.25,167.21a5.78,5.78,0,0,0-.54-.86,1.21,1.21,0,0,1-.12-1.34,3.79,3.79,0,0,0,.45-1.17c0-.05,0-.08.07-.08s.06,0,.08.08c.13.31.25.61.4.91A2.22,2.22,0,0,1,237.25,167.21Z"/><path class="cls-9" d="M227.91,176.14a4.5,4.5,0,0,1-1.82-.27,6.51,6.51,0,0,1-3.24-2.34,5.9,5.9,0,0,1-1.16-3.22,8.67,8.67,0,0,1,.31-3,10.76,10.76,0,0,1,.61-1.58.26.26,0,0,1,.1-.13c.16.44.26.86.44,1.24a1.32,1.32,0,0,0,.77.75c.16,0,.24,0,.19-.17a4,4,0,0,1,1.23-3.55,9.48,9.48,0,0,0,1.64-2.42,3.5,3.5,0,0,0,.2-2.26c0-.1-.13-.29.13-.21a10.16,10.16,0,0,1,3.66,1.79,4.62,4.62,0,0,1,1.6,2.33,5.4,5.4,0,0,1,.18,2.12c-.06.58-.2,1.16-.27,1.74a.48.48,0,0,0,.71.41c.3-.19.59-.37.88-.57s.24-.09.34.09a5.11,5.11,0,0,1,.57,1.73,6.43,6.43,0,0,1-.2,3.14,6.21,6.21,0,0,1-2.24,3,1.58,1.58,0,0,1-.78.45.25.25,0,0,1,.1-.16,4.26,4.26,0,0,0,1.2-1.75,5.53,5.53,0,0,0,.13-3.17,5.78,5.78,0,0,0-.56-1.53.92.92,0,0,0-.16.42,1.72,1.72,0,0,1-.44.83c-.08.08-.17.21-.31.15s-.08-.21-.07-.32a2.12,2.12,0,0,0,0-.71,5,5,0,0,0-1.2-2,3.71,3.71,0,0,1-1-3c0-.22-.06-.16-.19-.13a6.9,6.9,0,0,0-1.52.61,3.68,3.68,0,0,0-2.19,3.61,9.36,9.36,0,0,0,.17,1.28c0,.17.09.36-.09.49a.43.43,0,0,1-.53-.06,3.3,3.3,0,0,1-.39-.26c-.17-.16-.28-.15-.37.07a5.36,5.36,0,0,0-.42,1.71,4.31,4.31,0,0,0,2,4,2.81,2.81,0,0,0,1.3.62Z"/><path class="cls-10" d="M227.17,175.86a2.81,2.81,0,0,1-1.3-.62,4.31,4.31,0,0,1-2-4,5.36,5.36,0,0,1,.42-1.71c.09-.22.2-.23.37-.07a3.3,3.3,0,0,0,.39.26.43.43,0,0,0,.53.06c.18-.13.12-.32.09-.49a9.36,9.36,0,0,1-.17-1.28,3.68,3.68,0,0,1,2.19-3.61,6.9,6.9,0,0,1,1.52-.61c.13,0,.22-.09.19.13a3.71,3.71,0,0,0,1,3,5,5,0,0,1,1.2,2,2.12,2.12,0,0,1,0,.71c0,.11-.07.25.07.32s.23-.07.31-.15a1.72,1.72,0,0,0,.44-.83.92.92,0,0,1,.16-.42,5.78,5.78,0,0,1,.56,1.53,5.53,5.53,0,0,1-.13,3.17,4.26,4.26,0,0,1-1.2,1.75.25.25,0,0,0-.1.16l-.11.07-.07.06a4.82,4.82,0,0,1-2.77.88s0,0,.05,0a2.82,2.82,0,0,0,2.14-3.88c-.06-.18-.12-.31-.33-.13s-.23.27-.41.15-.06-.29-.06-.44a.9.9,0,0,1,0-.16c.25-1.66-.53-2.5-2-3-.14-.06-.2,0-.17.16a1.69,1.69,0,0,1-.16,1,6,6,0,0,1-.7,1.09,1.88,1.88,0,0,0-.4,1.23c0,.08.07.19,0,.22s-.15-.06-.2-.13-.16-.47-.29-.71a4.06,4.06,0,0,0-.27,2.8A3.06,3.06,0,0,0,227.17,175.86Z"/><path class="cls-17" d="M227.17,175.86a3.06,3.06,0,0,1-1.16-1.54,4.06,4.06,0,0,1,.27-2.8c.13.24.13.51.29.71s.11.15.2.13.06-.14,0-.22a1.88,1.88,0,0,1,.4-1.23,6,6,0,0,0,.7-1.09,1.69,1.69,0,0,0,.16-1c0-.19,0-.22.17-.16,1.45.53,2.23,1.37,2,3a.9.9,0,0,0,0,.16c0,.15-.1.33.06.44s.3-.06.41-.15.27,0,.33.13a2.82,2.82,0,0,1-2.14,3.88s0,0-.05,0a3.88,3.88,0,0,1-.9,0Z"/><path class="cls-9" d="M231.58,175.29l.07-.06Z"/><path class="cls-12" d="M218.83,173.27a.62.62,0,0,0-.18-.42,1.12,1.12,0,0,0,.31-.1h0c-.06-.54-.12-1,.71-1,5.57,0,11.13,0,16.7,0,1.31-.08,1.31-.08,1.39,1.1h0v2.3c0,2.49,0,5,0,7.47a2,2,0,0,1-1.95,2.19h-15a1.8,1.8,0,0,1-1.77-1.75c-.26-2.29,0-5.69-.12-8"/><path class="cls-12" d="M235.69,184.79l.09.05Z"/><path class="cls-13" d="M218.93,172.75l-.27,0h-1.77a1.06,1.06,0,1,0,0,2.06h1.77a1.24,1.24,0,0,0,.27,0Z"/><path class="cls-13" d="M237.72,172.75l.28,0h1.77a1.06,1.06,0,1,1,0,2.06H238a1.27,1.27,0,0,1-.28,0Z"/><rect class="cls-4" x="208.32" y="179.27" width="42.49" height="13.32"/><path class="cls-7" d="M82.42,78.12a13.53,13.53,0,0,1,1.4.79,20.48,20.48,0,0,1,1.93-10.27c.2.76.35,1.38.53,2A4.6,4.6,0,0,0,87,72.2a2.29,2.29,0,0,0,.58.54c.21.13.47.33.68.21s.06-.42,0-.64c-.49-2.53.52-4.62,1.94-6.58A34.2,34.2,0,0,0,93,61.56,8.45,8.45,0,0,0,94,55.44c0-.18-.16-.44.23-.31A18.52,18.52,0,0,1,101,58.79a10.36,10.36,0,0,1,3.4,8.45c0,1.33-.3,2.64-.48,4a2.88,2.88,0,0,0,0,.65.82.82,0,0,0,1.2.67c.57-.35,1.09-.77,1.63-1.15s.53-.37.77.2a15.43,15.43,0,0,1,1.19,6.57c0,.15,0,.3,0,.45s0,0,.07,0l.74-.42c.18-.1.27-.07.28.16.17,3.3,0,6.54-2,9.38a8.85,8.85,0,0,1-6.84,3.68,14.56,14.56,0,0,1-4.27-.18,4.26,4.26,0,0,0-1.38,0,12.84,12.84,0,0,1-7.94-.94A8.57,8.57,0,0,1,83,84.89a18.45,18.45,0,0,1-.62-6.61S82.4,78.19,82.42,78.12Zm18.74,11,.18-.12a2.38,2.38,0,0,0,1.22-.7,9.71,9.71,0,0,0,3.52-4.64,10.07,10.07,0,0,0,.32-5,8.06,8.06,0,0,0-.89-2.72c-.16-.27-.29-.3-.54-.13-.46.3-.92.6-1.38.88a.65.65,0,0,1-.79,0,.62.62,0,0,1-.33-.62c.11-.91.32-1.82.42-2.74a8.73,8.73,0,0,0-.27-3.34,7.47,7.47,0,0,0-2.53-3.67,16.11,16.11,0,0,0-5.76-2.81c-.41-.12-.25.17-.21.33a5.58,5.58,0,0,1-.31,3.56,15.36,15.36,0,0,1-2.59,3.81c-1.39,1.61-2.41,3.34-1.93,5.59.07.34-.06.34-.3.27a2,2,0,0,1-1.21-1.18,17.32,17.32,0,0,1-.69-2,.36.36,0,0,0-.17.2,19.7,19.7,0,0,0-1,2.49,13.69,13.69,0,0,0-.48,4.72,9.24,9.24,0,0,0,1.81,5.08,10.18,10.18,0,0,0,5.12,3.68,7,7,0,0,0,2.87.43,6.61,6.61,0,0,0,1.41,0A7.53,7.53,0,0,0,101,89.24Z"/><path class="cls-15" d="M87.77,59.62a4.27,4.27,0,0,1,.77,4.77,11.21,11.21,0,0,0-.92,3,6,6,0,0,1-1.51-3.77A3.64,3.64,0,0,1,86.78,62,6.66,6.66,0,0,0,87.77,59.62Z"/><path class="cls-16" d="M95.49,49.13a3,3,0,0,1,1,3.5,4.86,4.86,0,0,0-.06,3c-1-.74-2-1.23-2.44-2.29a2.43,2.43,0,0,1,.38-2.57A6.45,6.45,0,0,0,95.49,49.13Z"/><path class="cls-8" d="M110,76.52a8.12,8.12,0,0,0-.86-1.36,1.91,1.91,0,0,1-.18-2.1,6.5,6.5,0,0,0,.71-1.85c0-.07,0-.13.12-.13s.09.07.11.13c.21.48.4,1,.64,1.43A3.53,3.53,0,0,1,110,76.52Z"/><path class="cls-9" d="M95.28,90.58a7,7,0,0,1-2.87-.43,10.18,10.18,0,0,1-5.12-3.68,9.24,9.24,0,0,1-1.81-5.08A13.69,13.69,0,0,1,86,76.67a19.7,19.7,0,0,1,1-2.49.36.36,0,0,1,.17-.2,17.32,17.32,0,0,0,.69,2A2,2,0,0,0,89,77.12c.24.07.37.07.3-.27-.48-2.25.54-4,1.93-5.59a15.36,15.36,0,0,0,2.59-3.81,5.58,5.58,0,0,0,.31-3.56c0-.16-.2-.45.21-.33a16.11,16.11,0,0,1,5.76,2.81A7.47,7.47,0,0,1,102.62,70a8.73,8.73,0,0,1,.27,3.34c-.1.92-.31,1.83-.42,2.74a.62.62,0,0,0,.33.62.65.65,0,0,0,.79,0c.46-.28.92-.58,1.38-.88.25-.17.38-.14.54.13a8.06,8.06,0,0,1,.89,2.72,10.07,10.07,0,0,1-.32,5,9.71,9.71,0,0,1-3.52,4.64,2.38,2.38,0,0,1-1.22.7.37.37,0,0,1,.15-.25A6.64,6.64,0,0,0,103.37,86a8.67,8.67,0,0,0,.22-5,9.35,9.35,0,0,0-.89-2.42,1.77,1.77,0,0,0-.26.67,2.64,2.64,0,0,1-.68,1.3c-.13.14-.27.34-.5.24s-.11-.33-.1-.5a3.29,3.29,0,0,0,0-1.13A8,8,0,0,0,99.28,76a5.83,5.83,0,0,1-1.59-4.7c.06-.36-.09-.26-.29-.2a10.38,10.38,0,0,0-2.4,1c-2.25,1.22-3.59,3-3.45,5.67a15.31,15.31,0,0,0,.27,2c.05.27.14.58-.15.78a.68.68,0,0,1-.83-.09,5.16,5.16,0,0,1-.61-.43c-.27-.25-.43-.23-.58.13A8.58,8.58,0,0,0,89,82.86a6.84,6.84,0,0,0,3.08,6.31,4.38,4.38,0,0,0,2,1Z"/><path class="cls-10" d="M94.1,90.13a4.38,4.38,0,0,1-2-1A6.84,6.84,0,0,1,89,82.86a8.58,8.58,0,0,1,.67-2.68c.15-.36.31-.38.58-.13a5.16,5.16,0,0,0,.61.43.68.68,0,0,0,.83.09c.29-.2.2-.51.15-.78a15.31,15.31,0,0,1-.27-2c-.14-2.68,1.2-4.45,3.45-5.67a10.38,10.38,0,0,1,2.4-1c.2-.06.35-.16.29.2A5.83,5.83,0,0,0,99.28,76a8,8,0,0,1,1.9,3.16,3.29,3.29,0,0,1,0,1.13c0,.17-.11.4.1.5s.37-.1.5-.24a2.64,2.64,0,0,0,.68-1.3,1.77,1.77,0,0,1,.26-.67,9.35,9.35,0,0,1,.89,2.42,8.67,8.67,0,0,1-.22,5,6.64,6.64,0,0,1-1.88,2.75.37.37,0,0,0-.15.25l-.18.12-.12.09a7.53,7.53,0,0,1-4.35,1.39l.08,0a4.45,4.45,0,0,0,3.37-6.11c-.1-.29-.19-.48-.53-.21-.17.14-.36.42-.64.24s-.09-.46-.1-.7a1.05,1.05,0,0,1,.06-.24c.39-2.62-.84-3.94-3.12-4.78-.23-.08-.33,0-.28.25a2.7,2.7,0,0,1-.24,1.6,10.17,10.17,0,0,1-1.1,1.71,2.85,2.85,0,0,0-.63,1.94c0,.12.1.29-.08.35s-.24-.1-.32-.2c-.25-.32-.25-.74-.46-1.12a6.33,6.33,0,0,0-.42,4.4A4.77,4.77,0,0,0,94.1,90.13Z"/><path class="cls-17" d="M94.1,90.13a4.77,4.77,0,0,1-1.82-2.42,6.33,6.33,0,0,1,.42-4.4c.21.38.21.8.46,1.12.08.1.17.24.32.2s.09-.23.08-.35a2.85,2.85,0,0,1,.63-1.94,10.17,10.17,0,0,0,1.1-1.71,2.7,2.7,0,0,0,.24-1.6c0-.29,0-.33.28-.25,2.28.84,3.51,2.16,3.12,4.78a1.05,1.05,0,0,0-.06.24c0,.24-.15.53.1.7s.47-.1.64-.24c.34-.27.43-.08.53.21a4.45,4.45,0,0,1-3.37,6.11l-.08,0a6.61,6.61,0,0,1-1.41,0Z"/><path class="cls-9" d="M101,89.24l.12-.09Z"/><path class="cls-12" d="M81,86.06a1,1,0,0,0-.28-.66,2.3,2.3,0,0,0,.49-.15h0c-.11-.87-.19-1.61,1.11-1.6,8.77,0,17.53,0,26.3.07,2.07-.13,2.07-.13,2.2,1.73h0l0,3.61c0,3.92,0,7.85,0,11.77a3.1,3.1,0,0,1-3.07,3.44H84.05c-1.79-.29-2.46-1-2.79-2.76-.42-3.61-.07-9-.19-12.58"/><path class="cls-12" d="M107.52,104.2l.14.07Z"/><path class="cls-13" d="M81.14,85.24a3.25,3.25,0,0,0-.44,0H77.92a1.67,1.67,0,1,0,0,3.24H80.7a2.18,2.18,0,0,0,.44,0Z"/><path class="cls-13" d="M110.72,85.24a3.15,3.15,0,0,1,.44,0h2.78a1.67,1.67,0,1,1,0,3.24h-2.78a2.12,2.12,0,0,1-.44,0Z"/><path class="cls-41" d="M86.82,57.58l.23.17a2.13,2.13,0,0,0,1.84.21,2.38,2.38,0,0,0,.74-.56,2.42,2.42,0,0,0,.74-1.3c.13-1-.72-1.8-1.18-2.59a29.46,29.46,0,0,0-2-3.31c-1.3-1.67-2.47-2.73-3.82-4.36a13.06,13.06,0,0,0-19.82-.35l-.89.7c1.9,0,3.76-.61,5.66-.67s4,.53,5,2.18c.52.9.94.59,2,.56.68,0,1.14,1,1.77.72a2.61,2.61,0,0,1,2.8,1.13,26.07,26.07,0,0,0,1.83,2.66c-.87-1.38,1.35,1.72.48.34A8.32,8.32,0,0,0,84,54.82a26.78,26.78,0,0,1,2.18,2.08A8.73,8.73,0,0,0,86.82,57.58Z"/><path class="cls-41" d="M60.18,43.25S63,39,66.53,38.53s6,2.22,6,3.13,2.76-1.62,5.23-1.22,6.07,1.88,5.59,5.4,3.11,7.89,1.57,9.75-4.89,2.48-6.2.76-.1-4.46-2.38-6.18S73.82,51,71.7,50s-1.11-2-3.44-2-2.33.92-2.33.92Z"/><path class="cls-41" d="M82.18,45.12s4.41-.09,4.74,1.75.62,3.91-1.65,4S82.18,45.12,82.18,45.12Z"/><path class="cls-42" d="M55.46,40.55h0c.55-.68,1-1.25,1.51-.8,3.26,3.08,6.55,6.12,9.84,9.17.87.62.87.62-.35,2h0L64,53.6c-2.66,2.89-5.31,5.77-8,8.65-1.43,1.53-2.58,2-3.49,1.46l-8.88-8.18c-.48-.83-.28-1.56.82-3,2.29-2.8,6.05-6.62,8.46-9.31"/><path class="cls-42" d="M59.3,62.83v0Z"/><path class="cls-43" d="M30.1,26.57s-6.15,9,13.31,21.69"/><path class="cls-20" d="M53.34,44.88c.48,0,.78.57.68,1.18h0a1.14,1.14,0,0,1-1.07,1L51.81,47a3.17,3.17,0,0,1,.46.33l5.08,2.61a1.11,1.11,0,0,1,.34,1.43,1,1,0,0,1-1.22.63l-3-1.56a5.43,5.43,0,0,1-.11.88l3.55,1.82a1.1,1.1,0,0,1,.33,1.42.94.94,0,0,1-1.21.64l-3.55-1.82a5.39,5.39,0,0,1-.61.72l3,1.51A1.11,1.11,0,0,1,55.12,57a.94.94,0,0,1-1.22.63l-5.43-2.78,0,0-.09,0-4-2.06c-1.63-.84-2.21-3.3-1.28-5.46a4,4,0,0,1,3.55-2.7Z"/><path class="cls-44" d="M64.41,44.57s2.64-3.3,5.5-1,3,3.61,7.21,2.71,4.11,2.47,5.06,4.91,4,2.6,4,2.6"/><path class="cls-44" d="M75.24,48.26c1.18,1.06,3.76,1,3.76,1s1.24.17,1.06,2a2.41,2.41,0,0,0,1.46,2.5"/><path class="cls-44" d="M77.91,44.57a5.85,5.85,0,0,0-5.18-1.83,2.58,2.58,0,0,1-2-1.2c-.54-1.09-4.62-1.7-5.78,0"/><path class="cls-44" d="M82.55,47s3,1.08,2.72,2.65.27,2.09.94,2.16a2.8,2.8,0,0,1,1.64,3.78"/><path class="cls-41" d="M89.53,51.24s1,1.93,1.73,1.61S92.16,50.86,89.53,51.24Z"/><path class="cls-41" d="M74.73,50.48s-.29,2.34.58,2.4S76.77,51.67,74.73,50.48Z"/><path class="cls-41" d="M72.73,38.92s1.68-1.44,2.51-1,.22,1.9-.55,1.71A16,16,0,0,1,72.73,38.92Z"/><path class="cls-1" d="M26.6,36.61a16.23,16.23,0,0,1,7.91-3.27c4.69-.53.54-9.86.54-9.86l-8-2.24-5.44,6.4Z"/></svg>