<?xml version="1.0" encoding="UTF-8"?>
<svg xmlns="http://www.w3.org/2000/svg" xmlns:xlink="http://www.w3.org/1999/xlink" viewBox="0 0 1343 446.73">
  <defs>
    <style>
      .cls-1 {
        fill: #575826;
      }

      .cls-2 {
        fill: url(#linear-gradient);
      }

      .cls-3 {
        fill: #4a5c2a;
      }

      .cls-4 {
        fill: #595b27;
      }

      .cls-5 {
        fill: #3f401b;
      }

      .cls-6 {
        fill: #754f2d;
      }

      .cls-7 {
        fill: #c55b29;
      }

      .cls-8 {
        fill: #555425;
      }

      .cls-9 {
        fill: #663e2c;
      }

      .cls-10 {
        fill: #7f4b22;
      }

      .cls-11 {
        fill: #764d2f;
      }

      .cls-12 {
        fill: #545524;
      }

      .cls-13 {
        fill: #ebe6dc;
      }

      .cls-14 {
        fill: #66672b;
      }

      .cls-15 {
        fill: #676b2e;
      }

      .cls-16 {
        fill: #9c3b24;
      }

      .cls-17 {
        fill: #634127;
      }
    </style>
    <linearGradient id="linear-gradient" x1="675.85" y1="475.72" x2="679.65" y2="345.02" gradientUnits="userSpaceOnUse">
      <stop offset="0" stop-color="#8b5e3c"/>
      <stop offset=".52" stop-color="#92893f"/>
      <stop offset="1" stop-color="#648442"/>
    </linearGradient>
  </defs>
  <g id="Layer_3" data-name="Layer 3">
    <path class="cls-2" d="M-13.38,381.34s367.95-28.89,640.79-28.89,741.02,30.76,741.02,30.76v72.04H-4.17l-9.22-73.91Z"/>
  </g>
  <g id="Layer_1" data-name="Layer 1">
    <path class="cls-4" d="M175.37,209.87c-2.42-.44-4.79-1.11-7.09-2,0,0,3.83.02,1.64-1.09s-14.35-4.17-25.26-5.45c-10.91-1.28-26.35,2.36-26.35,2.36l-.36-1.81c-.36-1.82-7.99,2-7.99,2,0,0,4.36-1.45,2.72-3.27s-6.21,2.9-11.81,2-15.59-2.56-27.77-1.08c-12.17,1.48-10.18,3.47-10.18,3.47,0,0,1.82-2.17.91-4.17s-8.54,6.36-8.54,6.36c-1.57-1.08-3.28-1.94-5.08-2.54-2.19-.55,1.47,3.64.18,3.09s-10.01-1.08-11.28.18,4.18,2.91,4.18,2.91c0,0-3.64,1.09-9.45,2.91s-16.91,9.63-17.08,12.36,5.82,8.89,7.64,10.35c1.81,1.46,2-2.72,2-2.72,0,0,4.18,14.2,6.54,14.9s.73-3.64.73-3.64c0,0,6.94,7.64,10.9,7.64s1.05-1.27.87-2.36,5.27,0,5.27,0c1.83.71,3.72,1.25,5.64,1.63,2.36.36-.55-2.91-.55-2.91,0,0,6.72,2.72,7.63,2.36s-1.27-1.63-1.27-1.63l13.44-2.91s-.72,1.13-1.27,2.18c-.55,1.05,7.44.87,7.44.87,0,0-3.64.54-3.27,2s8,3.82,8,3.82c0,0-2.36,1.45-.36,2.36,2,.91,7.52,1.48,8.17-.36s-2.36-6.36-2.36-6.36c1.79.72,3.7,1.1,5.63,1.09,2.54-.18-1.45-4.18-1.45-4.18,0,0,6.54,2.19,8.54,2.37s-1.82-4.91-1.82-4.91l4.91,1.64c4.9,1.67,15.26,4,17.8,2.54,2.54-1.46,7.45-6.54,7.45-6.54,0,0-1.63,4,0,3.82,1.63-.18,5.45-3.09,5.45-3.09,0,0-.72,2.36.91,2,1.63-.36,14.35-5.81,14.35-5.81,0,0-7.06,6.9-7.25,10.35-.18,3.45,8.72-.73,8.72-.73,0,0-1.97,1.27-2.54,2.72s4.34-.18,4.34-.18c0,0-4.92,2.19-5.28,3.64-.36,1.45,2.54.92,6.54,1.09,4,.17,3.09,2.91,5.02,3.99,1.93,1.08,15.7-6.53,20.43-7.99,4.73-1.46,16.55-.74,23.25-1.64,6.71-.9,2.37-2.91,2.37-2.91,0,0,7.42-.18,12.36-2.54,4.94-2.36-9.81-2.18-9.81-2.18,0,0,8.73-2.71,12.72-4.34,3.99-1.63,2.18-1.63-1.64-3.64-2.81-1.4-5.72-2.56-8.72-3.47l.91-.55c.94-.55-4.34-.73-4.34-.73,1.37-1.13,2.82-2.16,4.34-3.09,2.18-1.28-5.45-1.28-5.45-1.28,0,0-1.46-6.36-7.27-8.72-5.81-2.36-11.44.91-11.44.91l1.08-2.36c1.05-2.37-7.63-.36-7.63-.36,0,0,2.54-1.45,3.09-2.36.55-.91-6-2.19-6-2.19,0,0-1.64-.9-6.16-1.79Z"/>
    <path class="cls-6" d="M161.11,255.81l6.31-21.39-9.02,23.31-18.63,14.2-1.6-14.85,16.36-14.68s-17,12.75-17.77,11.84c-.77-.9-8.11-7.08-8.11-7.08l6.82-16.75-9.54,15.97-18.8-12.49-3.36-5.29,1.54,5.28,10.82,7.98,19.09,13.27,1.68,20.49-16.1,21.62-17.26-29.61-3.86-13.27-2.6-21.51s-.03,20.36.13,20.87,2.6,9.02,2.6,9.02l-14.98-11.07-10.56-22.02,8.11,19.84-4.76-4.38-8.87-9.02,2.6,4.25,11.2,12.1-12.75-.51-17.26-8.74,16.91,9.82,15.77,1.83,15.09,11.65,16.91,33.61s-3.65,9.81-5.02,13.02c-1.37,3.2-8.43,17.58-11.2,23.08-2.78,5.5-12.15,54.09-12.15,54.09h21.48s0-26.46,0-26.46c0-2.72,2.51-29.02,2.28-32.23-.23-3.2,6.18-25.34,8.92-28.57s21.93-31.08,25.36-33.6c3.44-2.52,10.52-7.77,14.63-11.43,4.11-3.66,21.94-16.91,21.94-16.91l-22.37,14.71Z"/>
    <path class="cls-11" d="M109.94,363.86c0-1.13.39-6.09.87-11.84.69-8.22,1.54-18.49,1.4-20.36-.22-3.1,6.16-25.54,9.02-28.89.93-1.08,3.89-5.2,7.31-9.96,7.05-9.82,15.83-22.01,18.13-23.71,6.6-4.84,11.65-8.8,14.59-11.4,1.86-1.65,6.54-5.28,11.12-8.75l-12.01,7.89,3.65-12.37-5.21,13.45-.04.11-19.33,14.75-1.74-15.84,9.87-8.86c-10.36,7.44-10.91,6.79-11.16,6.49-.62-.72-6.03-5.3-8.07-7.04l-.24-.2,4.78-11.72-6.82,11.43-19.18-12.74-1.82-2.81.63,2.19,10.69,7.89,19.23,13.38,1.74,20.82-16.59,22.27-17.59-30.19-3.92-13.43-1.74-14.22c.02,6.55-.04,12.93.11,13.42s2.6,8.91,2.6,9l.36,1.23-15.97-11.84-.09-.06-4.23-8.82,3.26,7.97-6.21-5.71-6.26-6.39.63,1.05,11.89,12.84-13.8-.56-3.71-1.75,3.47,2.03,15.68,1.81h.12s15.25,11.79,15.25,11.79l16.96,33.68.09.16-.07.18c-.03.06-3.66,9.87-5.03,13.02s-8.48,17.64-11.21,23.11c-2.53,5.07-10.96,48.25-11.98,53.46h20.53s.03-25.98.03-25.98Z"/>
    <path class="cls-4" d="M159.63,234.08s1.06,4.51,2.6,5.41,1.29-1.03,1.29-1.03c.48,1.01,1.26,1.86,2.22,2.44,1.8,1.28,1.67-2.45,1.67-2.45,0,0,2.71,2.31,4.25,2.83s.51-3.09.51-3.09c0,0,2.73,4,3.73,3.87s.13-2.2.13-2.2c1.48,1.3,3.07,2.47,4.76,3.47,2.29,1.32.87-1.28.87-1.28,0,0,2.96,2.45,5.67,2.19s-.64-1.8-.64-1.8c0,0,1.55.36,2.71.64s-1.67-2.32-1.67-2.32c0,0,2.84.38,5.93.51s-5.93-3.47-5.93-3.47c0,0,10.04,1.15,11.97-1.03,1.93-2.19-4.25-2.32-4.25-2.32"/>
    <path class="cls-5" d="M182.51,243.17c.05.27-.03.54-.22.74-.43.44-1.15.12-1.74-.2-1.32-.76-2.58-1.63-3.77-2.6.04.31,0,.63-.15.92-.14.27-.41.45-.71.47-.8.1-2.05-1.24-3.03-2.5.09.54-.05,1.1-.38,1.54-.28.26-.68.33-1.03.17-1.34-.6-2.59-1.4-3.7-2.35-.05.78-.28,1.8-.92,2.13-.47.22-1.03.13-1.41-.23-.65-.44-1.23-.98-1.74-1.58-.07.13-.17.25-.3.33-.47.24-1.04.18-1.45-.15-1.66-.97-2.67-5.21-2.79-5.69l.87-.19c.28,1.21,1.24,4.47,2.37,5.13.35.17.53.17.53.17.13-.24.17-.51.11-.77l-.52-4.04,1.36,3.85c.46.92,1.16,1.69,2.03,2.23.1.08.36.24.5.17.33-.17.49-1.31.49-2.25v-.99s.75.64.75.64c.03.03,2.66,2.26,4.1,2.75h.16c.2-.16.16-1.34-.2-2.6l-.75-2.6,1.52,2.24c1.34,1.96,2.88,3.64,3.39,3.64.06-.53-.04-1.08-.29-1.55l-.79-1.82,1.48,1.33c1.45,1.28,3.02,2.43,4.69,3.42.21.13.44.23.68.3-.07-.35-.19-.68-.37-.99l-1.08-1.99,1.74,1.44s2.85,2.33,5.35,2.09c.2-.01.4-.05.59-.1-.41-.36-.88-.65-1.38-.87l.29-.81,2.06.49c-.45-.5-.92-.98-1.42-1.43l-1.02-.95,1.39.19s2.63.36,5.53.49c-1.86-.98-3.79-1.85-5.75-2.6l-3.01-1.21,3.23.37c2.72.33,10.13.79,11.6-.87.15-.17.31-.42.24-.58-.25-.58-2.37-1.02-4.18-1.02v-.87c.73.02,4.36.16,4.96,1.54.19.53.04,1.13-.39,1.5-1.39,1.6-6.33,1.6-9.54,1.41,4.43,1.89,4.32,2.46,4.26,2.76-.11.48-.8.48-1.09.48-1.8-.07-3.53-.23-4.66-.36,1.35,1.37,1.16,1.74,1.08,1.89s-.27.36-.75.26l-.59-.13c.09.15.13.33.1.5-.11.67-1.08.8-1.44.8h-.45c-1.59-.1-3.13-.62-4.44-1.52Z"/>
    <path class="cls-4" d="M124.61,225.67c.72,1.19,1.54,2.31,2.45,3.35,1.02,1.03,1.8-1.28,1.8-1.28,0,0-.03,2.96.87,3.73s1.54-1.67,1.54-1.67c0,0,.55,2.59,1.54,3.35,1,.76.87-2.71.87-2.71.44,1.04,1.21,1.9,2.2,2.45,1.54.77-.13-3.47-.13-3.47,0,0,2.07,3.34,3.22,2.7s-.39-3.73-.39-3.73c0,0,2.97,2.58,4.64,2.45s-2.45-5.02-2.45-5.02"/>
    <path class="cls-5" d="M132.39,233.49c-.66-.63-1.12-1.43-1.35-2.32-.17.39-.48.7-.87.87-.31.08-.64,0-.87-.22-.59-.73-.92-1.63-.95-2.56-.19.22-.43.38-.71.45-.4.09-.81-.05-1.07-.36-.93-1.07-1.77-2.21-2.51-3.43l.74-.45c.7,1.16,1.5,2.25,2.39,3.27.1.13.19.13.25.13.33-.07.7-.77.87-1.25l.87-2.52v2.66c0,1.09.25,2.96.87,3.47.17-.03.56-.73.77-1.5l.48-1.8.36,1.83c.13.65.62,2.43,1.36,3.06.21-.75.28-1.54.23-2.32l-.09-2.6.93,2.39c.4.94,1.09,1.72,1.98,2.22h0c-.08-1.02-.34-2.01-.75-2.94l.77-.39c.91,1.42,2.13,2.85,2.65,2.56s0-2.06-.56-3.17l-.98-1.95,1.65,1.43c.82.65,3.14,2.47,4.34,2.39.13-.42-1.15-2.45-2.74-4.34l.67-.56c1.02,1.16,3.34,4.1,2.88,5.21-.14.28-.42.47-.74.49-1.06.08-2.6-.8-3.66-1.55.31,1.05.46,2.3-.41,2.79-.73.42-1.57-.13-2.3-.87.19.54.12,1.13-.19,1.61-.29.23-.7.25-1.01.04-.62-.32-1.17-.77-1.6-1.32-.08.75-.27,1.45-.69,1.67-.1.05-.22.08-.33.08-.24.02-.47-.05-.66-.2Z"/>
    <path class="cls-4" d="M141.22,240.06c.72,1.18,1.54,2.3,2.45,3.34,1.03,1.03,1.8-1.28,1.8-1.28,0,0-.03,2.95.87,3.73s1.54-1.67,1.54-1.67c0,0,.55,2.57,1.54,3.34s.87-2.7.87-2.7c.44,1.04,1.2,1.9,2.19,2.45,1.55.78-.12-3.47-.12-3.47,0,0,2.07,3.36,3.22,2.71s-.39-3.74-.39-3.74c0,0,2.96,2.58,4.63,2.45s-2.45-5.02-2.45-5.02"/>
    <path class="cls-5" d="M149.06,247.88c-.66-.63-1.13-1.43-1.36-2.31-.17.39-.48.7-.87.87-.31.08-.63,0-.87-.21-.59-.74-.93-1.66-.95-2.6-.18.22-.43.38-.7.46-.4.08-.8-.06-1.07-.36-.94-1.08-1.78-2.24-2.51-3.47l.74-.46c.7,1.16,1.5,2.25,2.39,3.27.1.13.18.13.25.13.33-.06.7-.76.87-1.25l.87-2.51v2.65c0,1.08.21,2.96.82,3.47.41-.41.68-.93.78-1.5l.48-1.8.36,1.83c.13.65.62,2.42,1.36,3.05.21-.76.28-1.55.23-2.33l-.1-2.6.94,2.39c.4.93,1.09,1.71,1.98,2.21h0c-.09-1.02-.34-2.01-.75-2.95l.77-.38c.87,1.41,2.09,2.84,2.6,2.55s0-2.05-.56-3.16l-.97-1.95,1.65,1.43c.81.65,3.13,2.39,4.34,2.39.13-.42-1.15-2.46-2.74-4.34l.67-.56c1.02,1.21,3.34,4.15,2.87,5.25-.12.29-.41.49-.73.49-1.07.1-2.6-.79-3.67-1.54.32,1.04.47,2.3-.4,2.78-.73.42-1.58-.12-2.3-.87.13.75.11,1.34-.2,1.61-.28.24-.7.26-1,.04-.62-.32-1.17-.77-1.6-1.33-.08.75-.27,1.44-.69,1.67-.1.05-.22.08-.33.08-.2.03-.41-.01-.58-.12Z"/>
    <path class="cls-4" d="M86.79,223.69s-.9,3.73-.77,4.89,1.8-1.67,1.8-1.67c-.53,1.5-.53,3.13,0,4.63.89,2.45,4.11-2.32,4.11-2.32,0,0-1.38,2.35-.87,4.24s5.15-2.45,5.15-2.45c-.11,1.5.46,2.96,1.54,4,1.8,1.54,1.93-5.54,1.93-5.54.46.93,1.02,1.8,1.67,2.6,1.28,1.65,1.28-2.6,1.28-2.6,0,0,.89,2.33,2.33,2.6,1.44.27-1.16-3.47-1.16-3.47,0,0,2.32,2.06,3.47,1.93s-1.29-3.47-1.29-3.47c0,0,6.19,3.99,7.86,3.35s-3.1-3.47-3.1-3.47"/>
    <path class="cls-5" d="M97.4,235.38c-.97-.87-1.57-2.07-1.67-3.37-1.22,1.07-3.31,2.68-4.44,2.37-.36-.11-.64-.4-.72-.77-.15-.67-.15-1.37,0-2.04-.52.66-1.29,1.06-2.13,1.12-.51-.08-.93-.47-1.05-.97-.34-.91-.48-1.89-.42-2.86-.52.54-.75.49-.92.45s-.44-.16-.49-.65c-.09-1.2.69-4.65.78-5.04l.87.2c-.35,1.43-.61,2.88-.75,4.34.37-.45.7-.94.99-1.44l.78.39c-.5,1.4-.5,2.94,0,4.34.1.25.22.41.36.41.69.09,2.2-1.63,3-2.82l.73.47s-1.33,2.18-.87,3.91c.03.16.11.16.11.16.66.17,2.76-1.32,4.34-2.81l.87-.8-.11,1.16c-.09,1.35.42,2.68,1.4,3.62.06.06.13.1.22.11.55-.25.95-2.96,1-5.34v-1.99s.8,1.83.8,1.83c.45.88.99,1.72,1.62,2.48.05.06.1.12.16.17.27-.8.38-1.65.35-2.49v-2.31s.87,2.15.87,2.15c.22.54.95,1.98,1.89,2.27-.37-.99-.87-1.92-1.49-2.77l-2.03-2.95,2.67,2.38c.87.77,2.36,1.83,3.07,1.83-.33-1.02-.85-1.96-1.52-2.79l-1.38-1.89,1.96,1.27c2.49,1.58,6.46,3.71,7.47,3.31h.08c-.04-.42-1.56-1.67-3.24-2.67l.44-.74c1.13.64,3.76,2.33,3.65,3.47-.03.36-.28.66-.62.75-1.31.5-4.55-1.17-6.6-2.38.44.81.75,1.62.55,2.09-.11.25-.35.42-.62.44-.72-.03-1.41-.26-2-.68.37.81.62,1.54.37,1.93-.18.26-.51.38-.82.29-.8-.22-1.48-.73-1.9-1.44-.11.88-.49,1.68-.87,1.8s-.71,0-1.11-.52-.71-.97-.96-1.34c-.12,1.75-.48,4.18-1.44,4.62-.12.05-.24.08-.37.08-.31,0-.61-.12-.83-.35Z"/>
    <path class="cls-4" d="M59.56,232.75s-1.67,2.97-1.02,3.87,4.24-2.2,4.24-2.2c-.35.99-.44,2.06-.25,3.1.38,1.28,3.22-2.33,3.22-2.33.18,1.5.91,2.88,2.06,3.87,1.93,1.67,3.22-6.57,3.22-6.57,0,0,.67,2.45,1.41,3.09s.87-3.86.87-3.86c0,0,3.48,3.87,4.25,4.12s-1.41-4.51-1.41-4.51c0,0,3.6,3.48,5.41,2.71,1.8-.77-2.19-5.28-2.19-5.28"/>
    <path class="cls-5" d="M67.45,239.42c-.97-.84-1.68-1.95-2.02-3.19-.89,1.02-2.05,2.17-2.79,2.02-.29-.06-.52-.28-.59-.57-.17-.68-.19-1.39-.06-2.07-1.01.77-2.46,1.74-3.28,1.64-.23-.03-.45-.15-.59-.34-.73-1.06.58-3.59,1.01-4.34l.75.43c-.75,1.32-1.34,2.99-1.08,3.38.38.15,2.11-.93,3.64-2.25l1.27-1.12-.55,1.54c-.31.89-.4,1.84-.26,2.78.96-.65,1.8-1.46,2.47-2.41l.71-.87.07,1.14c.17,1.38.85,2.66,1.91,3.57.17.15.26.1.3.1.78-.29,1.75-3.55,2.2-6.41l.32-2.05.53,2c.22.94.59,1.83,1.08,2.66.24-1.09.37-2.21.37-3.33v-1.08s.73.81.73.81c1.11,1.26,2.29,2.47,3.52,3.61-.4-1.2-.87-2.38-1.41-3.52l-.98-2.15,1.66,1.6c1.31,1.25,3.82,3.08,4.94,2.6.1-.04.17-.12.19-.22.18-.79-1.37-3.02-2.53-4.34l.64-.57c.52.59,3.09,3.58,2.73,5.15-.06.39-.33.72-.69.87-1.27.54-3.13-.56-4.43-1.55,1.14,2.75.86,3.06.71,3.23-.15.16-.38.21-.59.14-.65-.23-2.56-2.21-3.72-3.47-.1,1.93-.4,3.03-.87,3.24-.23.1-.49.06-.68-.11-.46-.48-.8-1.05-1.02-1.68-.43,2-1.24,4.98-2.46,5.42-.12.04-.25.07-.37.07-.29,0-.58-.11-.8-.3Z"/>
    <path class="cls-4" d="M40.7,242.59s-1.67,2.96-1.02,3.86c.64.9,4.24-2.19,4.24-2.19-.35.99-.44,2.06-.25,3.09.38,1.28,3.22-2.32,3.22-2.32.18,1.5.92,2.87,2.06,3.86,1.93,1.67,3.22-6.57,3.22-6.57,0,0,.68,2.45,1.42,3.09s.87-3.86.87-3.86c0,0,3.48,3.86,4.25,4.12s-1.41-4.51-1.41-4.51c0,0,3.6,3.48,5.41,2.71s-2.19-5.28-2.19-5.28"/>
    <path class="cls-4" d="M48.63,249.2c-.97-.84-1.68-1.96-2.02-3.2-.89,1.02-2.05,2.16-2.79,2.02-.29-.06-.52-.28-.59-.57-.17-.68-.19-1.39-.05-2.07-1.02.77-2.42,1.74-3.29,1.64-.23-.03-.45-.15-.59-.34-.73-1.06.58-3.58,1.01-4.34l.75.43c-.75,1.32-1.34,2.99-1.08,3.38.38.14,2.11-.93,3.64-2.24l1.23-1.06-.55,1.53c-.31.89-.4,1.84-.26,2.78.97-.64,1.8-1.46,2.47-2.41l.7-.87.08,1.13c.17,1.38.85,2.65,1.91,3.57.17.16.3.1.3.1.79-.29,1.75-3.55,2.2-6.41l.32-2.05.53,2c.22.94.59,1.83,1.08,2.66.24-1.09.37-2.21.37-3.32v-1.08s.73.8.73.8c1.11,1.26,2.29,2.47,3.52,3.61-.4-1.2-.87-2.38-1.41-3.52l-.96-2.08,1.66,1.59c1.31,1.25,3.82,3.08,4.94,2.6.1-.03.17-.12.19-.22.18-.8-1.37-3.03-2.53-4.34l.64-.58c.52.59,3.09,3.58,2.73,5.15-.08.37-.34.68-.69.82-1.28.55-3.13-.56-4.43-1.55,1.14,2.75.86,3.06.71,3.23-.15.16-.38.22-.59.14-.65-.23-2.56-2.21-3.72-3.47-.1,1.93-.4,3.03-.87,3.24-.22.1-.49.06-.67-.1-.46-.48-.81-1.06-1.02-1.69-.43,2.01-1.24,4.98-2.46,5.42-.12.05-.25.07-.37.07-.3-.02-.58-.14-.79-.36Z"/>
    <path class="cls-4" d="M341.19,92.78c-3.99-.73-7.9-1.84-11.68-3.3,0,0,6.3,0,2.7-1.8s-23.67-6.9-41.65-8.99c-17.98-2.09-43.44,3.9-43.44,3.9l-.6-2.99c-.61-2.99-13.19,3.3-13.19,3.3,0,0,7.22-2.37,4.52-5.4-2.7-3.03-10.19,4.8-19.47,3.3-9.28-1.5-25.77-4.19-45.84-1.8-20.07,2.39-16.77,5.69-16.77,5.69,0,0,2.98-3.56,1.49-6.89s-14.07,10.48-14.07,10.48c0,0-4.78-3.29-8.38-4.19-3.6-.9,2.39,6,.3,5.09-2.09-.9-16.49-1.8-18.58.3-2.09,2.1,6.9,4.8,6.9,4.8,0,0-6.03,1.77-15.62,4.79-9.59,3.02-27.87,15.88-28.16,20.37-.3,4.49,9.6,14.68,12.59,17.08,2.99,2.39,3.29-4.49,3.29-4.49,0,0,6.89,23.38,10.79,24.57,3.9,1.2,1.21-6,1.21-6,0,0,11.37,12.67,17.96,12.67,6.59,0,1.81-2.1,1.5-3.9-.31-1.8,8.68,0,8.68,0,3.01,1.17,6.12,2.07,9.29,2.7,3.92.6-.87-4.79-.87-4.79,0,0,11.08,4.49,12.58,3.89,1.5-.6-2.1-2.69-2.1-2.69l22.18-4.8c-.77,1.16-1.47,2.36-2.1,3.6-.9,1.8,12.28,1.49,12.28,1.49,0,0-5.99.9-5.39,3.3.6,2.39,13.18,6.29,13.18,6.29,0,0-3.9,2.39-.6,3.9,3.3,1.5,12.41,2.45,13.48-.6,1.08-3.05-3.9-10.49-3.9-10.49,0,0,5.08,2.15,9.28,1.8s-2.39-6.94-2.39-6.94c0,0,10.75,3.51,14.05,3.82s-2.99-8.09-2.99-8.09l8.09,2.7c8.09,2.7,25.17,6.59,29.36,4.19,4.19-2.39,12.28-10.79,12.28-10.79,0,0-2.7,6.59,0,6.29,2.7-.3,8.99-5.09,8.99-5.09,0,0-1.2,3.9,1.5,3.3,2.7-.6,23.67-9.59,23.67-9.59,0,0-11.7,11.38-11.99,17.08s14.39-1.2,14.39-1.2c0,0-3.31,2.1-4.2,4.49-.89,2.39,7.19-.3,7.19-.3,0,0-8.08,3.59-8.68,5.99-.6,2.39,4.2,1.49,10.79,1.8s5.09,4.79,8.27,6.59c3.18,1.8,25.89-10.78,33.67-13.17,7.78-2.39,27.25-1.2,38.34-2.7,11.09-1.5,3.9-4.79,3.9-4.79,0,0,12.25-.3,20.37-4.2s-16.17-3.59-16.17-3.59c0,0,14.37-4.49,20.96-7.19,6.59-2.7,3.6-2.7-2.69-5.99-4.63-2.29-9.44-4.19-14.39-5.69l1.5-.87c1.48-.9-7.19-1.2-7.19-1.2,2.28-1.86,4.68-3.57,7.19-5.09,3.59-2.1-8.99-2.1-8.99-2.1,0,0-2.39-10.48-11.98-14.38-9.59-3.9-18.87,1.49-18.87,1.49l1.82-3.89c1.8-3.9-12.58-.6-12.58-.6,0,0,4.2-2.42,5.09-3.9s-9.89-3.6-9.89-3.6c0,0-2.66-1.49-10.21-2.99Z"/>
    <path class="cls-17" d="M233.61,346.71c0-1.84.68-10.01,1.46-19.47,1.13-13.6,2.53-30.53,2.31-33.63-.36-5.09,10.11-41.94,14.8-47.42,1.54-1.83,6.42-8.62,12.07-16.49,11-15.32,26.07-36.28,29.83-39.05,10.91-7.99,19.24-14.47,24.09-18.81,3.99-3.55,15.91-12.65,25-19.51l-26.17,17.2,7.75-26.24-11.1,28.69-31.41,23.96-2.68-25.48,20.41-18.32c-2.15,1.49-4.55,3.23-6.94,4.96-14.66,10.37-15.29,9.63-15.71,9.14-1.23-1.44-13.21-11.52-13.33-11.63l-.24-.2,9.21-22.56-13.02,21.8-31.38-20.82-4-6.24,1.64,5.61,17.71,13.07,31.6,21.99,2.78,33.99v.16s-27.04,36.31-27.04,36.31l-28.79-49.41-6.42-22.04-3.38-28.2c.02,12.33,0,26.15.2,26.98s4.24,14.71,4.24,14.85l.36,1.23-25.75-19.09-11.07-23.11,8.53,20.82-9.3-8.56-12.05-12.23,2.31,3.8,19.15,20.7-22.07-.87-14.92-7.54,14.46,8.41,26.03,3.02,25.04,19.36,27.93,55.48.09.17-.07.17c-.06.16-6.06,16.3-8.3,21.5-2.35,5.49-14.33,29.78-18.47,38.08-4.23,8.51-18.5,81.61-19.84,88.56h34.47s0-43.12,0-43.12Z"/>
    <path class="cls-4" d="M315.33,132.73s1.7,7.47,4.25,8.92,2.13-1.74,2.13-1.74c0,0,.64,1.92,3.61,4.03,2.97,2.12,2.76-4.03,2.76-4.03,0,0,4.4,3.82,7,4.67,2.6.85.87-5.09.87-5.09,0,0,4.46,6.58,6.16,6.37,1.7-.21.21-3.61.21-3.61,2.44,2.15,5.07,4.07,7.86,5.74,3.82,2.12,1.48-2.13,1.48-2.13,0,0,4.89,4.03,9.34,3.61s-1.06-2.98-1.06-2.98c0,0,2.55.64,4.46,1.07,1.91.43-2.77-3.83-2.77-3.83,0,0,4.68.65,9.77.87s-9.77-5.74-9.77-5.74c0,0,16.56,1.92,19.75-1.69s-7-3.83-7-3.83"/>
    <path class="cls-5" d="M352.59,147.07c.23.53.17,1.13-.16,1.61-.6.6-1.74.07-2.55-.38-2.39-1.39-4.65-2.99-6.76-4.78.22.68.19,1.42-.08,2.08-.2.36-.56.59-.97.63-1.36.18-3.77-2.71-5.34-4.82.18,1.25.22,2.69-.43,3.31-.39.35-.95.44-1.42.23-2.01-.7-5.08-3.05-6.45-4.17-.06,1.23-.32,3.25-1.41,3.84-.69.3-1.49.16-2.03-.36-1.17-.8-2.19-1.79-3.03-2.92-.09.35-.3.66-.59.87-.51.35-1.21.26-2.08-.24-2.72-1.56-4.38-8.89-4.45-9.2l.87-.19c.46,2.06,2.09,7.54,4.04,8.68.55.32.87.49,1.17.28s.36-1.05.3-1.54l-.55-4.23,1.39,4.03s.67,1.82,3.47,3.82c.48.3.85.44,1.12.3.74-.4,1-2.56.95-3.97v-.98s.75.64.75.64c.04.03,4.43,3.77,6.86,4.59.39.16.56,0,.56,0,.56-.54.19-2.98-.26-4.54l-.75-2.6,1.53,2.25c2.07,3.05,4.88,6.27,5.74,6.18.13,0,.25-.08.32-.19.3-.53-.09-1.94-.45-2.81l-.8-1.82,1.48,1.33c2.42,2.13,5.04,4.03,7.81,5.67,1.23.69,1.52.52,1.52.52,0-.73-.21-1.45-.62-2.06l-1.08-1.99,1.74,1.44c.05.04,4.79,3.91,9.02,3.51,1.18-.11,1.34-.35,1.34-.35h0c0-.32-1.24-1.2-2.54-1.8l.29-.82s2.33.58,4.18,1c-.88-1.08-1.84-2.09-2.88-3.02l-1.03-.94,1.38.19s4.71.66,9.73.87h.4c-1.12-.92-5.89-3.11-10.34-4.89l-3.02-1.21,3.23.37c4.55.52,16.89,1.27,19.38-1.55.45-.51.6-.93.45-1.26-.55-1.25-4.67-1.8-7.14-1.85v-.87c.71.02,6.98.21,7.92,2.36.26.78.02,1.65-.6,2.19-2.47,2.81-12.27,2.48-17.22,2.11,8.67,3.64,8.47,4.57,8.4,4.89-.13.63-1.06.57-1.5.57-3.44-.14-6.74-.49-8.48-.69,2.71,2.6,2.42,3.17,2.32,3.37s-.35.41-.92.29l-1.8-.42c.41.28.66.76.66,1.26-.14.8-1.25.99-2.12,1.08h-.72c-2.99,0-6-1.69-7.74-2.88Z"/>
    <path class="cls-4" d="M257.44,118.87c1.19,1.95,2.54,3.8,4.03,5.52,1.7,1.7,2.98-2.13,2.98-2.13,0,0,0,4.89,1.48,6.16,1.49,1.28,2.55-2.76,2.55-2.76,0,0,.86,4.25,2.55,5.53,1.69,1.28,1.48-4.46,1.48-4.46.72,1.71,1.99,3.13,3.61,4.03,2.55,1.28-.21-5.73-.21-5.73,0,0,3.38,5.51,5.3,4.45s-.63-6.15-.63-6.15c0,0,4.89,4.25,7.64,4.03s-4.03-8.29-4.03-8.29"/>
    <path class="cls-5" d="M270.77,131.49c-1.17-.87-1.94-2.92-2.36-4.34-.25.81-.81,1.49-1.55,1.88-.43.12-.89,0-1.21-.3-1.03-.89-1.41-3.13-1.56-4.75-.31.57-.81,1-1.42,1.21-.56.11-1.13-.09-1.5-.52-1.53-1.74-2.9-3.62-4.1-5.61l.74-.45c1.17,1.92,2.5,3.74,3.97,5.44.36.36.61.3.69.3.64-.16,1.3-1.46,1.57-2.25l.87-2.52v2.68c0,1.31.24,4.89,1.34,5.83.21.18.33.13.38.13.6-.17,1.2-1.67,1.47-2.67l.48-1.8.36,1.83c.23,1.14,1.1,4.3,2.39,5.26.11.1.2.1.2.1.39-.2.67-2.16.59-4.19l-.1-2.6.94,2.4c.68,1.61,1.87,2.95,3.39,3.81.1.06.22.09.34.1h0c.36-.3-.2-2.83-1.17-5.29l.77-.39c1.32,2.18,3.56,4.99,4.73,4.34s-.04-4.04-.82-5.59l-.93-1.92,1.65,1.43c1.32,1.15,5.2,4.09,7.32,3.93.23-.02.23-.1.23-.1.36-.84-2.09-4.53-4.56-7.46l.66-.56c1.28,1.53,5.42,6.63,4.7,8.36-.16.39-.54.64-.96.63-2,.16-4.86-1.77-6.59-3.05.63,1.73,1.27,4.24-.23,5.11-1.3.73-2.95-.73-4.18-2.22.38,1.46.58,2.94,0,3.47-.23.18-.63.35-1.33,0-1.22-.64-2.25-1.58-2.99-2.73-.07,1.33-.31,2.9-1.05,3.29-.13.07-.27.1-.41.1-.28-.01-.54-.13-.75-.32Z"/>
    <path class="cls-4" d="M284.81,142.55c1.18,1.95,2.53,3.8,4.03,5.52,1.7,1.7,2.98-2.13,2.98-2.13,0,0,0,4.89,1.48,6.16,1.48,1.28,2.55-2.76,2.55-2.76,0,0,.84,4.24,2.54,5.52s1.49-4.46,1.49-4.46c.72,1.71,1.99,3.13,3.61,4.03,2.54,1.28-.22-5.73-.22-5.73,0,0,3.4,5.51,5.31,4.45,1.91-1.06-.63-6.15-.63-6.15,0,0,4.92,4.25,7.68,4.03,2.76-.22-4.03-8.29-4.03-8.29"/>
    <path class="cls-5" d="M298.17,155.16c-1.16-.87-1.93-2.92-2.35-4.34-.34.87-.87,1.74-1.56,1.89-.43.12-.89,0-1.21-.3-1.04-.89-1.42-3.13-1.56-4.75-.31.57-.81,1-1.42,1.21-.56.11-1.14-.09-1.5-.53-1.53-1.74-2.9-3.61-4.1-5.6l.75-.45c1.16,1.92,2.49,3.75,3.97,5.44.37.36.61.3.69.3.64-.16,1.3-1.47,1.56-2.25l.87-2.52v2.66c0,1.31.24,4.89,1.34,5.83.21.18.33.13.38.13.59-.17,1.2-1.67,1.46-2.67l.48-1.8.37,1.83c.23,1.14,1.1,4.3,2.38,5.26.12.1.21.1.21.1.39-.2.66-2.16.59-4.19l-.1-2.6.93,2.4c.68,1.61,1.88,2.95,3.4,3.81.11.07.23.1.36.1h0c.36-.3-.19-2.83-1.16-5.29l.77-.39c1.32,2.18,3.57,4.99,4.73,4.34,1.16-.65-.04-4.04-.82-5.59l-.98-1.95,1.65,1.43c1.33,1.15,5.21,4.1,7.33,3.93.23-.02.23-.1.23-.1.35-.84-2.1-4.53-4.57-7.46l.67-.56c1.28,1.53,5.42,6.63,4.7,8.36-.15.4-.53.67-.96.69-1.98.15-4.85-1.77-6.59-3.05.62,1.73,1.27,4.24-.24,5.11-1.29.72-2.94-.73-4.17-2.22.38,1.46.58,2.93,0,3.47-.23.18-.63.35-1.34,0-1.21-.64-2.24-1.58-2.99-2.73-.06,1.33-.3,2.91-1.04,3.29-.13.07-.27.1-.41.1-.27-.02-.53-.13-.73-.32Z"/>
    <path class="cls-4" d="M195.22,115.66s-1.49,6.16-1.28,8.07c.22,1.91,2.98-2.76,2.98-2.76-.88,2.47-.88,5.17,0,7.64,1.48,4.03,6.79-3.83,6.79-3.83,0,0-2.33,3.83-1.48,7.01.85,3.18,8.49-4.03,8.49-4.03,0,0-.43,3.97,2.54,6.58,2.98,2.6,3.18-9.09,3.18-9.09.76,1.51,1.69,2.93,2.76,4.24,2.13,2.77,2.13-4.24,2.13-4.24,0,0,1.49,3.82,3.83,4.24s-1.92-5.73-1.92-5.73c0,0,3.83,3.4,5.74,3.18,1.91-.22-2.13-5.74-2.13-5.74,0,0,10.2,6.58,12.95,5.52s-5.09-5.73-5.09-5.73"/>
    <path class="cls-4" d="M150.24,130.6s-2.79,4.89-1.74,6.37c1.06,1.48,7.01-3.61,7.01-3.61,0,0-1.06,2.97-.43,5.09.63,2.13,5.31-3.82,5.31-3.82.29,2.47,1.5,4.75,3.39,6.37,3.18,2.76,5.31-10.83,5.31-10.83,0,0,1.06,4.03,2.33,5.09,1.28,1.07,1.48-6.37,1.48-6.37,0,0,5.74,6.41,7.01,6.79s-2.33-7.43-2.33-7.43c0,0,5.95,5.62,8.92,4.38s-3.61-8.68-3.61-8.68"/>
    <path class="cls-5" d="M163.56,141.24c-1.71-1.48-2.89-3.46-3.38-5.67-1.22,1.47-3.46,3.9-4.69,3.66-.38-.08-.67-.37-.75-.75-.31-1.32-.29-2.7.05-4.02-1.56,1.23-4.39,3.26-5.8,3.1-.31-.03-.6-.19-.78-.44-1.16-1.63,1.2-5.97,1.67-6.84l.75.43c-1.1,1.93-2.36,5.04-1.74,5.91.02.03.05.09.17.09,1.14.14,4.41-2.24,6.2-3.77l1.24-1.06-.55,1.54s-1.01,2.86-.42,4.82c0,.05.09.15.09.15.62.12,2.83-2.03,4.46-4.11l.71-.87.06,1.15c.3,2.36,1.46,4.52,3.25,6.07.37.32.62.29.78.23,1.64-.6,3.21-6.94,3.82-10.79l.31-2.05.53,2c.28,1.06,1.2,3.96,2.14,4.82.38-.54.75-3.18.82-6v-1.08s.73.81.73.81c1.98,2.15,5.27,5.62,6.5,6.49-.65-2.29-1.51-4.52-2.55-6.66l-.95-2.09,1.66,1.6c1.6,1.5,6.22,5.28,8.44,4.34.25-.09.43-.31.48-.56.39-1.74-2.92-5.98-4.24-7.46l.65-.57c.51.58,5,5.74,4.44,8.23-.11.53-.48.97-.99,1.17-2.27.97-5.83-1.52-7.87-3.2,2.3,5.34,1.81,5.88,1.65,6.07-.17.18-.43.24-.67.16-1.11-.37-4.74-4.28-6.47-6.13-.12,2.3-.44,5.36-1.35,5.77-.27.12-.59.06-.81-.14-.91-1.04-1.57-2.26-1.94-3.59-.59,3.08-2,8.95-4.06,9.7-.16.06-.34.09-.51.1-.41-.04-.8-.23-1.08-.53Z"/>
    <path class="cls-4" d="M119.22,146.76s-2.8,4.89-1.74,6.38c1.07,1.48,7.01-3.61,7.01-3.61,0,0-1.06,2.97-.43,5.09s5.31-3.83,5.31-3.83c.29,2.47,1.5,4.75,3.39,6.38,3.18,2.76,5.31-10.84,5.31-10.84,0,0,1.06,4.04,2.33,5.1,1.28,1.06,1.49-6.37,1.49-6.37,0,0,5.73,6.37,7,6.79,1.28.43-2.33-7.44-2.33-7.44,0,0,5.93,5.68,8.9,4.43,2.97-1.25-3.61-8.68-3.61-8.68"/>
    <path class="cls-5" d="M132.5,157.44c-1.71-1.47-2.9-3.46-3.39-5.67-1.22,1.48-3.45,3.9-4.69,3.67-.38-.08-.67-.38-.75-.75-.31-1.32-.29-2.7.05-4.02-1.56,1.24-4.38,3.26-5.79,3.11-.31-.03-.6-.19-.79-.44-1.16-1.63,1.2-5.97,1.67-6.84l.76.43c-1.1,1.93-2.36,5.04-1.74,5.91.05.05.11.08.18.08,1.13.15,4.4-2.24,6.19-3.77l1.24-1.07-.55,1.54s-1.01,2.86-.42,4.82c.02.05.04.15.09.15.62.13,2.83-2.02,4.46-4.11l.71-.87.07,1.14c.29,2.36,1.45,4.52,3.25,6.07.19.22.5.31.78.23,1.64-.61,3.21-6.94,3.82-10.79l.32-2.05.52,2c.29,1.06,1.2,3.96,2.14,4.82.42-.55.78-3.18.87-6v-1.08s.73.81.73.81c2,2.33,4.16,4.51,6.47,6.52-.65-2.29-1.5-4.52-2.54-6.66l-.96-2.09,1.66,1.6c1.6,1.5,6.22,5.29,8.44,4.34.25-.09.43-.3.48-.56.39-1.75-2.92-5.98-4.24-7.46l.65-.57c.51.57,5,5.73,4.44,8.23-.11.53-.48.96-.98,1.16-2.28.97-5.84-1.47-7.88-3.2,2.3,5.34,1.81,5.88,1.65,6.07-.17.18-.44.24-.67.15-1.11-.37-4.74-4.27-6.47-6.13-.12,2.33-.44,5.35-1.35,5.76-.27.12-.59.06-.81-.14-.81-.67-1.49-2.3-1.94-3.58-.59,3.08-1.99,8.94-4.06,9.7-.16.06-.33.09-.5.09-.42-.03-.82-.22-1.11-.53Z"/>
    <path class="cls-15" d="M-46.77,448.19c-4.34-4.6-8.94-9.81-9.13-16.13-.19-6.32,7.03-12.71,12.33-9.26-1.57-3.78-.18-8.57,3.17-10.93,3.35-2.36,8.32-2.06,11.36.69,1.62-9.19,15.59-12.95,21.6-5.8-.59-3.57,4.44-6.03,7.61-4.27,3.17,1.76,4.29,5.84,4.07,9.46,2.02-4.25,6.83-7,11.51-6.59,4.69.41,8.94,3.97,10.18,8.5.41-4.01,1.02-8.42,4.09-11.04,3.06-2.61,9.22-1.21,9.18,2.81-.98-5.68,2.12-11.83,7.28-14.4,5.16-2.58,11.94-1.37,15.89,2.83.7-5.58,2.73-11.42,7.32-14.66,4.59-3.25,12.18-2.49,14.58,2.6,2.62-4.38,6.85-8.42,11.96-8.46,5.11-.05,9.91,5.96,7.19,10.28,3.71-6.34,15.51-3.97,16.49,3.31,2.67-4.24,8.32-6.35,13.11-4.9s8.33,6.32,8.21,11.34c4.73-2.98,11.34-2.57,15.67.96,4.33,3.53,6.05,9.93,4.09,15.16,14.31,1,24.92,18.07,19.49,31.34"/>
    <path class="cls-3" d="M347.07,445.1c4.34-4.88,8.94-10.38,8.95-16.91.01-6.53-7.62-12.91-13-9.2,1.51-3.95-.06-8.85-3.59-11.19-3.52-2.34-8.64-1.88-11.7,1.04-1.94-9.44-16.47-12.91-22.46-5.36.51-3.71-4.76-6.1-7.98-4.18-3.22,1.91-4.25,6.16-3.93,9.88-2.21-4.33-7.25-7.03-12.07-6.46-4.83.56-9.11,4.35-10.26,9.07-.54-4.12-1.3-8.67-4.54-11.27-3.24-2.61-9.55-.98-9.39,3.17.85-5.89-2.54-12.14-7.93-14.65-5.4-2.51-12.36-1.06-16.31,3.38-.89-5.74-3.15-11.7-7.99-14.92-4.84-3.22-12.64-2.21-14.98,3.11-2.83-4.45-7.32-8.49-12.59-8.39-5.27.1-10.06,6.44-7.12,10.82-4.02-6.44-16.12-3.65-16.93,3.89-2.88-4.3-8.77-6.31-13.68-4.67-4.91,1.63-8.41,6.77-8.15,11.94-4.97-2.93-11.78-2.32-16.14,1.45-4.37,3.77-5.96,10.42-3.78,15.76-14.74,1.45-25.2,19.37-19.2,32.92"/>
    <path class="cls-15" d="M936.11,450.33c-4.34-4.6-8.94-9.81-9.13-16.13s7.03-12.71,12.33-9.26c-1.57-3.78-.18-8.57,3.17-10.93,3.35-2.36,8.32-2.06,11.36.69,1.62-9.19,15.59-12.95,21.6-5.8-.59-3.57,4.44-6.03,7.61-4.27,3.17,1.76,4.29,5.84,4.07,9.46,2.02-4.25,6.83-7,11.51-6.59,4.69.41,8.94,3.97,10.18,8.5.41-4.01,1.02-8.42,4.09-11.04,3.06-2.61,9.22-1.21,9.18,2.81-.98-5.68,2.12-11.83,7.28-14.4,5.16-2.58,11.94-1.37,15.89,2.83.7-5.58,2.73-11.42,7.32-14.66s12.18-2.49,14.58,2.6c2.62-4.38,6.85-8.42,11.96-8.46,5.11-.05,9.91,5.96,7.19,10.28,3.71-6.34,15.51-3.97,16.49,3.31,2.67-4.24,8.32-6.35,13.11-4.9,4.8,1.45,8.33,6.32,8.21,11.34,4.73-2.98,11.34-2.57,15.67.96,4.33,3.53,6.05,9.93,4.09,15.16,14.31,1,24.92,18.07,19.49,31.34"/>
    <path class="cls-12" d="M1289.9,455.26c4.34-4.88,8.94-10.38,8.95-16.91.01-6.53-7.62-12.91-13-9.2,1.51-3.95-.06-8.85-3.59-11.19-3.52-2.34-8.64-1.88-11.7,1.04-1.94-9.44-16.47-12.91-22.46-5.36.51-3.71-4.76-6.1-7.98-4.18-3.22,1.91-4.25,6.16-3.93,9.88-2.21-4.33-7.25-7.03-12.07-6.46-4.83.56-9.11,4.35-10.26,9.07-.54-4.12-1.3-8.67-4.54-11.27s-9.55-.98-9.39,3.17c.85-5.89-2.54-12.14-7.93-14.65s-12.36-1.06-16.31,3.38c-.89-5.74-3.15-11.7-7.99-14.92-4.84-3.22-12.64-2.21-14.98,3.11-2.83-4.45-7.32-8.49-12.59-8.39-5.27.1-10.06,6.44-7.12,10.82-4.02-6.44-16.12-3.65-16.93,3.89-2.88-4.3-8.77-6.31-13.68-4.67-4.91,1.63-8.41,6.77-8.15,11.94-4.97-2.93-11.78-2.32-16.14,1.45-4.37,3.77-5.96,10.42-3.78,15.76-14.74,1.45-25.2,19.37-19.2,32.92"/>
    <g>
      <path class="cls-14" d="M1309.64,184.61c-2.93-5.66-16.93-9.98-23.09-10.63-9.35-.99-15.12.77-23.82,2.81-3.45.81-8.58,1.8-11.73,2.93-.67.24-1.28.72-1.95.98l-.98.98c-.78.31-1.34.71-1.95.98v1.95c-1.88.44-2.58,2.2-2.93,3.91-.12.58.08,1.33,0,1.95,8.48-1.35,2.69,2.55,4.78,5.41,2.42,3.31,6.56,1.69,9.23,2.57,1.47.48,1.87,3.08,3.8,4.01,5.86,2.84,10.07-2.56,10.52-2.21.98,8.24,11.76,8.22,12.73,0,9.47,9.7,10.28-1.35,12.27-1.84.76-.19,3.12.98,4.8.92,5.49-.19,6.41-3.69,3.44-7.86,5.06.28,7.26-2.26,4.89-6.85Z"/>
      <path class="cls-14" d="M985.16,179.72c-.52-.42-.99-1.22-1.95-1.95-4.37-3.31-11.21-7.08-16.61-7.82-7.63-1.04-18.01.63-25.1,3.74-3.69,1.61-13.37,6.87-7.16,10.93,1.82,1.19,3.77.85,3.92.98.61.56-2.4,4.76.98,6.36,2.93,1.39,5.64-.73,5.84-.51.22.23-.21,3.3,1.96,4.44,2.84,1.49,5.1-.77,7.21-.57.57.05,3.87,6.94,8.93-.92,4.54,8.7,10.23-1.44,11.89-1.84,2.7-.63,9.43,3.6,8.15-4.03,3.42,1.93,6.9.16,6.83-3.91-1.33-1.05-2.87-3.27-4.89-4.89Z"/>
      <path class="cls-10" d="M1263.7,156.26v10.75c3.94-2.58,6.76-6.58,8.8-10.75.65.05,1.31-.05,1.95,0l-4.88,10.75c.58.57,8.95-3.97,10.49-4.69,1.25-.59,2.06-2.09,2.21-2.15.55-.2,3.03-.08,3.91,0l-6.84,5.85c4.48-.13,10.18-.96,13.68-3.9.82.19,2-.11,2.93,0,.45.06.86.52.98.98-3.15,1.42-5.76,3.71-9.98,5.17-7.96,2.73-19.17,2.26-24.22,8.52-3.45.81-8.58,1.8-11.73,2.93,1.66-2.99,8.68-5.47,9.57-8.51,1.16-3.94-.41-10.61.2-14.95.85-.18,2.02.14,2.93,0Z"/>
      <path class="cls-14" d="M1173.79,109.34c5.03,9.12,10.04,17.32,8.8,28.35-5.72-2.96-3.81-.7-8.8.98-.52.18-1.47-.18-1.95,0-3.65,1.38-6.72,3.7-9.77,4.89-.72.28-2.01.67-2.93.98-3.17,1.08-6.4,1.87-9.77,1.95,7.76-13.22,14.16-22.66,17.59-38.12,2.15-.47,5,1.31,6.84.98Z"/>
      <path class="cls-16" d="M1209.95,112.28c1.8,3.57,2.85,10.72,4.41,14.67,2.56-.05,9.93-11.49,10.25-14.67,3.55-.16,3.64,1.98,5.86,2.93l-10.75,16.62c-2.32.48-6.93,1.24-8.8,1.95l-6.84-24.44c.23,0,1.05-1.67,2.91-.56.38.23,2.73,3.03,2.96,3.5Z"/>
      <path class="cls-16" d="M1242.2,116.19c.27-.01,1.15-1.5,3.17-.86,3.37,1.06,2.96,4.47,10.03,3.83,5.79-.53,5.34-4.13,6.47-4.8,2.26-1.33,7.95,5.95,11.79,7.05,3.46.99,5.21-.24,8.6-.33.5,2.38-1.88,2.8-2.93,3.9-5.02-.82-13.35-5.93-17.59-.98-1.03-.14-4.03-.21-4.89,0-4.63-5.3-14.95-5.8-15.64,2.93-2.7.37-6.17,1.2-8.8,1.95l9.77-12.71Z"/>
      <path class="cls-1" d="M1279.34,124.98c-.71.74,1.81,1.64-2.93,1.95-6.59.43-9.46-2.23-14.66-2.93,4.24-4.95,12.58.16,17.59.98Z"/>
      <path class="cls-16" d="M1009.6,114.23l2.93,13.68c-1.25-.3-3.38.13-4.89,0l-4.89-11.73c2.03-.05,4.56-1.57,6.84-1.95Z"/>
      <path class="cls-7" d="M1248.07,181.67c.25-.1.57-.82.98-.98l-.98.98Z"/>
      <g>
        <path class="cls-14" d="M1325.1,149.16c-.67-3.32-1.97-2.64-3.73-3.66l-.43-.43c-.17-.21-.34-.43-.55-.55-.24-.14-.72.13-.98,0-.7-.36-1.66-.53-2.45-.94.79.41,1.75.57,2.45.94,2.64-4.56,2.76-5.09,0-8.8-3.19-4.28-7.4-5.13-12.7-4.89-.86-.74,3.92-4.58.31-6.91-3.42-2.21-6.79.53-8.51.01-1.67-.5-4.34-11.53-14.28-5.81-1.71-7.05,3.42-4.22,6.43-7.72,5.56-6.49-1.75-18.1-10.34-15.74.8-2.29.64-2.86,0-4.88-1.81-5.65-6.03-5.01-10.75-3.91-.56.13-1.33-.09-1.95,0h-.98c-.69-4.46-.16-6.05-5.18-8.01-5.91-2.32-10.75-1.06-16.33-1.76-5.92-.74-9.8-2.95-14.66-3.91-1.07-6.64-7.1-10.86-13.53-11.56-2.29-.25-2.62.75-3.08.81-.33.04-.69-.07-.98,0-.58.13-1.37-.13-1.95,0-.54-5.29-2.97-10.14-8.8-7.82-3.07,1.22-3.67,3.65-4.49,3.85-1.02.25-9.4-4.26-12.12-2.88,6.09-10.08-4.25-6.4-6.91-8.23-.9-.62-1.2-4.5-2.41-6.39-4.49-7.05-17.64-3.93-18.05,2.9-3.1-.72-5.09-3.32-8.37-3.84-3.9-.62-9.36,1.33-11.45.77-3.16-.85-5.01-4.69-11.96-4.82-7.24-.14-13.77,5.63-14.64,5.68-.94.06-2.34-1.9-4.68-1.55-1.73.26-3.88,2.78-4.13,2.77-.9-.02-2.36-7.17-8.72-6.82-5.29.3-6.12,5.45-5.45,9.77-6.73-2.32-10.5-.38-10.74,6.85-4.23-1.17-10.71-2.09-14.2.95-1.03.9-1.45,2.82-2.45,3.42-.45.27-9.72,2.45-10.31,2.43-2.88-.09-2.5-4.67-5.53-6.08-7.53-3.52-13.15,2.3-16.87,8.06-7.57-11.33-20.42-1.94-18.09,9.79-6.78-4.11-13.66-.35-12.7,7.82-8.82-4.27-20.67-2.32-16.61,9.77-2.91-.04-5.56-.39-8.19,1.1-4.1,2.33-1.63,5.76-2.99,7.77-1.25,1.84-7.24-.29-8.31,6.35-1.3,8.1,5.13,7.61,3.85,15.09-.25-.2-5.5-1.06-6.36-1.06-8.33,0-6.65,7.4-8.85,7.89-1.46.32-4.31-3.38-8.24-1.45-4.41,2.17.2,5.41-.01,7.34-5.06-.64-16.12,1.69-15.63,8.25.12,1.65,2.53,4.43,1.89,5.35-1.28,1.83-9.01,3.19-4.89,9.45,3.06,4.64,8.51,2.03,8.86,2.38.37.37-3.12,7.35,5.31,5.85,5.26-.94,2.12-2.54,9.36.01.72-1.57,2.72-.76,3.91-.98,3.38-.62,5.81-1.46,9.77-.98.33.04.68-.07.98,0,2.43-2.44,3.52-3.62,6.84-1.95.31-.32.6-.76.98-.98,7.09-4.12,8.45-.8,13.68.98.58.2,2.78.95,2.93.98,1.89.29,4.77.03,6.84,0,.98-.01,1.95.01,2.93,0,4.73-.05,7.97-.14,12.71,0,.98.03,1.96-.04,2.93,0,1.65.08,5.62.34,6.84,0,.13-.04.81-1.34,1.95-1.95,4.51-2.44,2.25-1.08,5.86-.98.65.02,1.31-.05,1.95,0,3.29.27,6.52.47,9.77.98,2.12-3.04,6.13-1.29,6.83-5.35-2.4-2.14-5.05-3.79-7.81-5.4-.85-.49-2.66-.23-3.65-1.22-1.02-1.01-1.23-3.61-2.18-4.9-3.18-4.31-11.02-2.03-11.76-2.67-.23-.2.17-2.16,0-2.93h10.75c-.64-1.6-.26-3.66-1.76-6.55-2.53-4.89-7.92-7.98-9.97-12.99,1.15.04,2.91.2,3.91,0,2.95,1,8.01,10.17,10.16,9.73l10.37-12.66c1.41-.15,4.51-2.05,5.86-2.93.54,2.21,9.2,11.44,10.33,11.69,2.25.5,5.74-8.63,6.29-10.71-.84.13-2.01.19-3.26.19,1.25,0,2.42-.06,3.26-.19.54-.08,2.13-.71,2.93-.98.04-.01.1-.13.18-.3-.08.17-.13.28-.18.3-.99,9.59-4.56,17.65-5.86,27.37,3.15,1.56,7.9,1.17,10.75,1.95.25.07,2.54,2.13,3.91,2.93.33.19.79,1.37,1.95,1.95,1.03.52,1.89.67,2.93.98.96.29,1.74.85,2.93.98,1.21.13,2.65.02,3.91,0,3.05-.05,5.75-1.23,8.8-.98-4.7-8.23-9.64-23.72-11.73-33.23-.12-.56-1.44-1.69-.98-2.93,1.95-.43,2.8.08,2.93,0,.33,1.93,1,3.75,1.78,5.55,1.89,4.32,8.46,19.88,12.88,10.09.18-4.82,4.87-10.5,4.89-15.64.49-.05,4.66-.88,4.89-.98l-8.8,31.28c1.4,2.68,1.94,3.54,3.91,5.86,2.3.68,5.34-.93,7.23-.71,2.14.25,4.53,3.5,7.92,3.51,5.76.01,7.1-7.95,12.22-2.79.91-1.51,2.33-2.02,3.39-4.92,4.15-11.33-1.56-17-4.37-27.34v-.98c.21-.04,3.75-1.8,3.91-1.95,1.5,3.14.13,5.6.74,9.02l4.14,3.68c.05.32-.9,2.87-.83,3.18,3.4-.3,3.19,2.72,6.4,3.54,6.49,1.65,14.46-15.93,13.98-21.38,1.33,0,3.29-1.19,4.89-.98-.11.6.13,1.38,0,1.95,2.15-.47,5,1.31,6.84.98.9-.16,2.24-2.34,4.31-2.03.26.04,3.37,3.76,3.51,3.99h0c1.45,2.45,2.41,10.77,6.35,10.79,3.77.01,4.86-7.79,4.4-10.79,3.17-.96,2.7-1.48,7.82-1.95-2.59,11.65-13.77,17.37-14.53,30.28,3.49-1.5,12.31-.81,15.51-.96-.48,4.32-5.85,4.46-7.82,7.82-.16-.17-1.41.11-1.95,0,.04,1.29-.25,6.61,0,6.85.35.35,4-.35,5.26-.05,1.13.27.48,1.9.61,2,2.68,2.1,7.38,2.99,10.75,2.93.64-.01,1.32.07,1.95,0,.85-.1,3.03-1.9,4.89-.98.17.14.96.91.98.98.61-.11,1.47.16,1.95,0,1.65-.55,2.56-2.13,5.32-1.93,1.11.08,4.02,1.39,5.43,1.93.67.25,1.29.7,1.96.98,1.07-.86,3.48-1.8,4.89-1.95.79-.09,2.2-.13,2.93,0,1.15.21,2.76,1.77,3.91,1.95.58.09,1.32,0,1.95,0,.68,0,3.68-2.33,5.86,0,.52-.38,2.89-.55,3.91-.98,3.48-1.45,3.36-1.21,6.84-1.95.85-.18,2.02.14,2.93,0,2.17-.34,4.49-2.25,6.25-2.02.79.1-.17,1.82,2.55,2.02.65.05,1.31-.05,1.95,0,.1,0,.43-1.23,1.86-.55,1.41.68,4.16,3.52,5.96,4.46.55-.2,3.03-.08,3.91,0,2.32.2,4.67,1.46,6.84,1.95.82.19,2-.12,2.93,0,.45.06.86.52.98.98,1.86-.84,5.1-.65,8.8-2.93,9.09,6.63,8.05-2.11,8.83-2.9.58-.58,12.39,1,10.54-8.11ZM999.78,115.08c1.29-.03,2.22.65,2.68.96-.46-.3-1.39-.98-2.68-.96ZM1022.99,115c.28-.1.61-.23.97-.38-.36.15-.69.28-.97.38ZM1032.65,110.81c.33-.12.6-.2.82-.24-.22.05-.49.13-.82.24ZM1193.44,148.06c.1.19.26.34.53.4-.26-.07-.43-.22-.53-.4ZM1222.25,146.71c.46.17,1.14.62,1.96,1.14-.82-.52-1.5-.97-1.96-1.14ZM1238.1,148.75c1.1.58,2.31,2.4,4.54,2.49-2.22-.09-3.44-1.92-4.54-2.49ZM1244.59,126.47c.38-.05.75-.11,1.1-.16.74-.11,1.42-.22,2.07-.32-.65.11-1.33.21-2.07.32-.35.05-.72.11-1.1.16ZM1261.05,149.22c1.87-.56,2.86-2.76,3.53-3.95-.67,1.2-1.67,3.39-3.53,3.95ZM1264.72,145.03c.2-.33.37-.54.53-.55-.16.01-.33.23-.53.55ZM1296.97,159.81c.3-.15.63-.24.96-.32-.33.08-.67.17-.96.32ZM1306.62,158.13c1.07-.46,3.78-.65,3.99-.91-.21.26-2.92.44-3.99.91ZM1315.58,150.01c1.72.09,3.23-.42,2.83-2.52.4,2.11-1.1,2.61-2.83,2.52Z"/>
        <path class="cls-14" d="M1046.2,116.13c-2.5-.25-9.83,7.85-10.68,9.84-1.97,4.62.03,6.44,1.44,9.76.95-2.33,1.37,1.48,2.96,2.41,4.45,2.58,10.83,1.09,15.61.52.34-2.89,1.55-10.95.82-13.04-.26-.74-8.91-9.37-10.15-9.49Z"/>
      </g>
      <path class="cls-13" d="M1078.99,155.28h.98s.11.99-.49.96c-.59-.16-.41-.55-.49-.96Z"/>
      <path class="cls-10" d="M1148.08,128.77c-8.27-7.27-8.95-16.29-10.46-19.43-.15.15-3.7,1.91-3.91,1.95v.98c2.81,10.34,8.52,16,4.37,27.34-1.06,2.89-2.49,3.41-3.39,4.92-.4.66-.28,2.2-1.09,3.26-8.78,11.5-18.66,5.71-26.27-3.26-1.97-2.32-2.51-3.19-3.91-5.86h0s8.8-31.28,8.8-31.28c-.23.09-4.4.93-4.89.98-.02,5.14-4.7,10.82-4.89,15.64h0c-4.41,9.79-10.99-5.77-12.88-10.09-.78-1.79-1.45-3.62-1.78-5.55-.14.08-.98-.43-2.93,0-.47,1.24.86,2.38.98,2.93,2.09,9.52,7.03,25,11.73,33.23,4.52,7.91,15.91,17.03,19.98,24.5,4.61,8.47-.53,24.9-2.87,34.19-.25.97-1.41,1.68-1.47,1.91-7.23-10.16-19.65-14.57-31.27-17.59l-6.84-4.89s0,0,0,0c-1.59-2.34-6.44-7.41-5.74-10.06.46-1.75,7.46-8.35,9.08-10.54,2.38-3.23,4.04-5.89,5.46-9.69-1.19,1.02-2.59,2.07-3.91,2.93-.04.03.11.99-.49.96-.59-.16-.41-.55-.49-.96-.66-3.26.46-8.2,0-11.73-1.17-.59-1.62-1.76-1.95-1.95-1.37-.81-3.66-2.86-3.91-2.93-.61,3.7,1.59,6.76,1.96,10.25.83,7.85-1.76,16.85-9.77,20.04-1.79-9.86-4.71-19.72-3.95-29.88.1-1.29.98-2.11,1.02-2.37,1.3-9.72,4.88-17.78,5.86-27.37-.8.26-2.4.9-2.93.98-.55,2.08-4.04,11.22-6.29,10.71-1.13-.25-9.79-9.48-10.32-11.69-1.36.88-4.45,2.78-5.86,2.93l-10.37,12.66c-2.14.45-7.21-8.73-10.16-9.73-1,.2-2.76.04-3.91,0,2.05,5.01,7.44,8.11,9.97,12.99,1.5,2.89,1.11,4.95,1.76,6.55,1.93,4.8,4.83,7.27,6.84,11.73,2.76,1.61,5.42,3.26,7.81,5.4-.7,4.07-4.71,2.32-6.83,5.35-.14.2.24,1.19-.24,1.69-.67.69-6.62,5.26-7.08,5.15-1.57-.37-2.24-6.12-2.46-7.81-.64-.05-1.31.02-1.95,0l.97,10.75c-2.74-2.57-5.71-6.16-6.83-9.77-1.14.62-1.82,1.92-1.95,1.95.57,3.92,6.81,8.67,7.61,11.45,1.27,4.43-.48,12.03.21,16.9-5.74-3.95-13.28-7.04-15.88-13.97-1.77-4.72,1.81-9.45,1.22-14.38-.97-.04-1.96.03-2.93,0l-.99,7.82c-3.27-.82-2.96-10.52-6.83-7.81-.3.21,2.04,3.19.48,3.91l-5.37-3.92c-.98.01-1.95-.01-2.93,0,1.9,3.93,7.31,6.42,9.63,9.42,2.22,2.87,2.76,7.38,4.28,10.38,1.17,2.32,5.08,4.95,4.15,7.58-13.61-2.99-28.07-11.15-24.91-27.38-.15-.02-2.35-.78-2.93-.98l-.48,8.79-13.2-9.77c-.38.22-.67.66-.98.98.98.49,6.15,4.98,7.18,6.02,3.31,3.35,1.79,4.94-2.23,3.04-1.88-.89-4.92-2.11-6.9-3.19-.28.57-.54.99-.79,1.3.25-.31.51-.73.79-1.3-.92-.51-1.94-3.26-4.89-3.91-.3-.07-.65.04-.98,0l2.93,4.4-1.95.48c-3.46-.9-8.16-1.7-10.75-3.91-1.19.22-3.19-.59-3.91.98,6.94,2.45,13.33,4.99,20.52,6.84,5.73,1.47,16.48.3,15.64,8.8.97.73,1.44,1.54,1.95,1.95,2.02,1.62,3.56,3.84,4.89,4.89,5.67,4.47,12.59,7.37,19.5,9.33,3.59,1.02,7.74.36,11.5,2.19,2.95,1.44,7.58,6.95,11.12,9.4,12.6,8.73,32.32,15.19,46.82,21.1,1.01,1.86,3.11,2.36,3.91,2.93.56.4,1.48.58,1.95.98l1.95,1.95c.71.8,1.32,2,1.95,2.93,6.25,9.12,9.43,20.2,9.77,31.28-1.3,8.01-1.49,16.86-2.93,25.41.7.03,1.57-.18,2.46-.47-.89.29-1.77.5-2.46.47-.15.91.15,2.02,0,2.93-4.66,27.46-14.14,53.99-15.64,82.1-.03.65.03,1.31,0,1.95-.08,1.95.02,3.92,0,5.86-.09,10.26,2.72,28.32-.79,36.84-1.03,2.5-2,2.7-3.12,4.21-.6.8-.45,1.92-1.69,2.96-7.36,6.19-21.22,7.31-25.68,17.57,2.98.04,7.71.93,11.73.98,42.27.46,84.78.44,127.05,0,2.93-.03,5.87.04,8.8,0,.33,0,.65,0,.98,0,2.28-.03,4.57.04,6.84,0,.69-.01.91-.98.98-.98.65-.01,1.3.01,1.95,0-1.97-6.15-9.16-8.42-12.71-12.71-9.06-2.4-17.23-9.33-19.55-18.57l-.98-1.95c-.5-3.95-.02-9.49,0-13.68.01-3.7-.83-8.82.98-11.73,0-.33,0-.65,0-.98,0-.98,0-1.95,0-2.93,0-1.63.05-3.26,0-4.89-.79-28.36-10.21-43.33-15.64-69.4-.28-1.33-.93-2.69-.98-2.93h0c-.06-.32.06-.67,0-.98-2.23-12.36-4.97-34.75-3.91-46.92.79-9.1,6.45-23.99,13.2-30.29,8.55-7.98,22.47-9.57,32.99-13.92,14.67-6.08,26.58-21.63,42.75-24.2.08-.63-.12-1.37,0-1.95.35-1.71,1.05-3.47,2.93-3.91v-1.95c-2.69,1.19-7.57,3.97-9.77,2.93-1.08,1.38-2.4,2.08-3.64,2.82,1.25-.74,2.57-1.43,3.64-2.82,4.4-5.66,3.72-15.66,7.82-18.57,3.15-2.24,8.87-3.67,9.77-8.8-1.02.43-3.39.6-3.91.98-.08.06.19,1.28-.7,1.96-1.25.96-4.67,2.71-5.17,3.9h-.98l.98-5.86c-.63,0-1.38.09-1.95,0-.43,1.25-.49,2.69-.98,3.91-.43,1.07-.17,2.73-1.94,2.93l-.99-8.79c-.73-.13-2.14-.09-2.93,0,2.35,11.09,3.75,16.6-4.87,24.94-1.44,1.4-8.9,7.66-10.31,5.38-1.28-2.07-.17-13.06-.46-16.64,4.3-2.39,7.8-9.37,10.75-11.73-.67-.28-1.28-.72-1.95-.98l-8.8,9.77c-.26-2.15-3.17-6.47-1.95-9.77-.49.16-1.35-.11-1.95,0,.19.76.17,4.05,0,4.89-3.23.07-3.42-3.58-5.86-4.89-.63.07-1.31-.01-1.95,0,.43,3.31,4.6,5.09,5.86,6.84,3.42,4.74,2.05,14.98.98,20.53-2.12,11.03-10.37,16-20.52,19.55-.5.18-1.42-.17-1.95,0-.14.04-.29.24-.45.45l-.53.53c-6.7,1.92-14.32,2.94-21.5,4.89-2.25.61-4.45,1.25-6.84.98,12.82-14.62,18.54-19.51,25.14-38.88,2.41-7.08,1.16-13.63,9.07-17.81-.13-.1.52-1.72-.61-2-1.26-.3-4.91.4-5.26.05-.24-.24-1.28-6.75,0-6.85v-7.82c-1.14-.09,6.2-17.67,8.8-29.32-5.12.48-4.65.99-7.82,1.95.46,3-.62,10.8-4.4,10.79-3.94-.01-4.9-8.33-6.35-10.79-.14-.23-3.24-3.95-3.51-3.99-2.07-.3-3.42,1.87-4.31,2.03,5.03,9.12,10.04,17.32,8.8,28.35,1.15.59,1.72,1.83,1.95,1.95.21.12.64.05,1.11-.02-.47.07-.89.14-1.11.02-.66,8.09-.98,18.85-4.68,26.14-.34.68-.1,1.89-1.66,1.22-.48-.2-7.09-6.73-7.41-7.28-1.98-3.4,2.15-16.43,3-21.06-.52.18-1.47-.18-1.95,0l-3.92,15.64c-3-2.34-4.65-7.17-5.85-10.75-.72.28-2.01.67-2.93.98,3.64,6.53,6.03,13.61,9.61,20.2,1.69,3.12,6.66,8.06,5.86,11.3-.31,1.26-6.81,9.22-8.15,10.52-7.63,7.44-19.35,13.13-27.37,20.53-3.83-13.76-5.86-29.72-.34-43.35,2.65-6.54,7.23-11.49,10.61-17.25,7.76-13.22,14.16-22.66,17.59-38.12.13-.58-.11-1.35,0-1.95-1.59-.21-3.56.99-4.89.98.48,5.45-7.48,23.03-13.98,21.38M1102.93,129.88c-.45,1.15-1.04,2.19-1.35,3.39.3-1.21.89-2.24,1.35-3.39ZM1039.86,141.15c-2.21-2.22-1.89-3.06-2.9-5.41-1.42-3.31-3.41-5.14-1.44-9.76.85-1.99,8.18-10.09,10.68-9.84,1.24.12,9.89,8.75,10.15,9.49.74,2.09-.47,10.15-.82,13.04-.36,3.07-.59,6.25-.98,9.3-.14,1.12.41,1.98-1.43,1.43l-13.25-8.25ZM1090.81,216.3c-16.81-9.16-35.74-10.05-52.79-20.53-3.09-1.9-5.34-5.25-6.92-6.27-1.52-5.17-2.65-10.59-1.86-16.04.97-6.73,7.24-9.58,11.71-13.72,2.4-2.23.93-4.7,5.83-3.03,10.83,3.69,8.74,11.05,12.5,19.77,6.34,14.72,18.23,20.44,28.56,31.06,2.6,2.67,4.46,6.65,6.8,9.33-1.41,1.65-2.55.13-3.82-.56ZM1100.49,259.87c.53-3.28.91-6.51,1.33-9.75-.42,3.24-.79,6.48-1.33,9.75.74.16,1.24.02,1.58-.3-.34.32-.84.46-1.58.3ZM1103.95,254.2c.33-.24.78-.34,1.43-.2-.64-.14-1.09-.04-1.43.2ZM1111.64,346.15c1.2.46,2.29,1.03,2.53,1.67-.24-.64-1.33-1.21-2.53-1.67ZM1134.65,208.2c-.61-4.18-1.24-8.52-1.76-12.88.52,4.36,1.15,8.7,1.76,12.88ZM1128.89,234.93c-.02.56-.23,1.33-.06,1.48-.17-.16.04-.92.06-1.48ZM1121.86,344.17c.19.2.12.39-.14.59.27-.2.34-.39.14-.59ZM1118.12,266.18c-.01-.54-.09-1.26-.19-2.1.1.84.18,1.56.19,2.1ZM1117.11,244.23h0c-.17.46-.28.87-.32,1.23.04-.36.15-.77.32-1.23Z"/>
    </g>
    <path class="cls-8" d="M1232.38,129.76c.08-1.88,1.14-4.14,3-4.86,1.8-.71,3.92.5,5.1,1.8.46.5,2.72-.02,2.79-.75.14-1.41,1.14-3.73,2.88-3.56s3.22,1.75,3.66,3.42c.23.88,2.65-.02,2.89-.61.66-1.66,2.25-3.88,4.3-3.17,1.86.65,3.16,2.7,2.64,4.64-.22.81,1.69.35,1.97.23,2.55-1.12,5.88-2.56,8.32-.43,1.5,1.31,2.44,3.84.9,5.47-.47.5.41.65.73.65.65,0,1.47-.25,1.93-.74,2.06-2.18.73-5.54-1.57-6.96-3.42-2.1-8.08-.34-11.37,1.12.66.08,1.31.15,1.97.23.84-3.14-2.06-5.75-5.06-5.75-3.33,0-6.42,2.07-7.64,5.16l2.89-.61c-1.64-6.22-11.72-4.69-12.32,1.37.93-.25,1.86-.5,2.79-.75-4.39-4.8-13.45-1.63-13.71,4.89-.03.63,2.86.2,2.9-.78h0Z"/>
    <path class="cls-8" d="M963.51,145.16c-.1,0-.53-.6-.6-.86-.15-.52,0-1.09.42-1.45.88-.73,2.45-.08,3.41.2.72.21,2.84-.37,2.21-1.44s-.68-2.7.19-3.7c1.03-1.19,2.08-.23,3.22.12,1.07.33,2.28.06,3.14-.66.54-.46,1.02-1.83,1.73-1.85,1.09-.03,1.3,1.39,1.84,2.01.72.82,2.07.69,2.96.27,1.15-.54,1.72-1.7,3.15-1.12,1.3.53,2,1.96,1.93,3.31-.06,1.14,1.83.72,2.38.35,1.26-.85,2.85-2.12,4.39-1.2,1.39.84.8,2.52,1.69,3.65,1.07,1.37,2.77.48,4.16.47,1.91-.03,3.34,1.73,2.64,3.56-.25.65.92.77,1.28.73.67-.06,1.38-.4,1.63-1.05.75-1.95-.53-3.93-2.36-4.64-1.1-.43-2.3-.5-3.46-.32-.48.07-.95.32-1.21.06s-.3-.95-.37-1.31c-.39-1.92-1.72-3.02-3.67-3.24-2.44-.28-4.62.97-6.56,2.28.79.12,1.58.23,2.38.35.12-2.17-1.14-4.18-3.29-4.78-1.03-.29-2.16-.26-3.19,0-.58.15-1.17.39-1.68.7-.44.27-.82.76-1.3.93l1.14-.22s-.37-.78-.49-.98c-.21-.36-.48-.65-.82-.9-.77-.56-1.73-.76-2.67-.72-1.05.04-2.12.38-2.94,1.06-.34.29-.6.62-.86.99-.03.04-.44.66-.44.66l.46-.21c-.14-.09-.29-.17-.45-.23-4.24-1.98-9.87,2.29-7.21,6.81.74-.48,1.47-.96,2.21-1.44-2.61-.74-5.9-1.09-7.85,1.27-1.74,2.11.06,4.51,2.52,4.33,1.5-.11,2.35-1.93.35-1.78h0Z"/>
    <path class="cls-9" d="M1096.98,417.61c-4.16-27.02-3.34-54.75,2.37-81.48,1.61-7.52,3.6-14.95,5.97-22.26.4-1.23-2.55-.88-2.92.27-8.44,26.11-12.05,53.69-10.67,81.09.39,7.76,1.18,15.49,2.36,23.16.19,1.22,3.1.51,2.9-.78h0Z"/>
    <path class="cls-9" d="M1160.42,428.22c4.07-14.04,5.88-29.12,5.2-43.72-.73-15.72-5.82-30.94-9.55-46.12-2.22-9.02-4.05-18.17-4.52-27.47-.04-.78-2.95-.23-2.9.78.83,16.48,5.94,32.25,9.82,48.17,1.83,7.5,3.5,15.13,4.09,22.84.51,6.68.29,13.43-.31,20.1-.78,8.73-2.27,17.42-4.71,25.84-.26.88,2.62.48,2.88-.41h0Z"/>
    <path class="cls-9" d="M1106.82,428.04c-4.43-14.75-4.26-30.3-4.38-45.55-.03-3.78-.19-7.57,0-11.34.1-2,.3-4,.71-5.97.17-.83.46-1.64.58-2.47.46-3.25.62-6.57.99-9.83.28-2.47.59-4.95.98-7.41.27-1.7.49-3.52,1.13-5.14.26-.65-.93-.75-1.28-.72-.67.06-1.38.39-1.63,1.04-.54,1.37-.76,2.88-1,4.32-.37,2.19-.65,4.39-.92,6.59-.44,3.67-.81,7.35-1.14,11.03-.18,2.06-.89,4.04-1.12,6.11-.42,3.89-.28,7.8-.23,11.7.08,7.56.03,15.13.42,22.69.45,8.68,1.48,17.37,3.99,25.72.33,1.11,3.23.32,2.9-.78h0Z"/>
    <path class="cls-9" d="M1088.13,426.37c-.25-16.7-.57-33.4-.75-50.1-.05-4.52.06-9.05,1.32-13.42.18-.62-2.64-.26-2.86.5-2.2,7.63-1.32,15.98-1.21,23.82.13,8.5.25,16.99.38,25.49.07,4.83.14,9.66.22,14.49,0,.51,2.91.08,2.9-.78h0Z"/>
    <path class="cls-9" d="M1151.57,428.31c1.86-7.44,3.08-15.1,3.79-22.72.56-6.02.76-12.13.01-18.14-.8-6.4-2.13-12.76-4.01-18.92-.85-2.79-1.77-5.61-3.01-8.26-.58-1.24-3.44-.39-2.9.78.98,2.1,1.74,4.31,2.46,6.51,1.9,5.82,3.26,11.81,4.17,17.86,1.75,11.59.43,23.4-1.69,34.86-.51,2.77-1.06,5.54-1.75,8.28-.34,1.36,2.62,1,2.93-.24h0Z"/>
    <path class="cls-9" d="M1160.37,407.69c.17-6.5.1-13.01-.15-19.5-.2-5.04-.51-10.09-1.19-15.08-.71-5.2-2.17-10.09-4.33-14.89-1.21-2.68-2.64-5.26-3.83-7.96-1.3-2.96-2.12-6.04-2.53-9.24-.16-1.3-3.07-.59-2.9.78.35,2.8,1.01,5.53,2.07,8.15.95,2.36,2.16,4.6,3.27,6.88,2.33,4.8,4.19,9.78,5.06,15.06,1.55,9.47,1.68,19.22,1.68,28.8,0,2.41-.01,4.83-.08,7.24-.04,1.48,2.9,1.04,2.93-.23h0Z"/>
    <path class="cls-9" d="M1126.65,426.37c-1.24-3.22-2.27-6.53-3.21-9.84-1.74-6.16-3.18-12.57-3.21-19,0-.41-2.9-.01-2.9.78.03,6.43,1.47,12.84,3.21,19,.94,3.32,1.97,6.62,3.21,9.84.25.64,3.09-.27,2.9-.78h0Z"/>
    <path class="cls-9" d="M1166.86,428.2c2.23-9.92,3.84-20.09,4.56-30.23,1.02-14.47-.96-29.24-3.89-43.4-1.18-5.73-2.97-11.27-5.06-16.72-.32-.84-3.18.04-2.9.78,1.85,4.82,3.53,9.73,4.65,14.77,1.42,6.42,2.47,12.94,3.28,19.47.94,7.58,1.57,15.26,1.21,22.9-.33,7.08-1.29,14.13-2.46,21.12-.66,3.93-1.38,7.86-2.25,11.75-.19.85,2.69.4,2.88-.44h0Z"/>
    <path class="cls-9" d="M1113.84,422.84c-2.07-8.41-3.52-16.97-4.3-25.59-.79-8.7-1.21-17.68.07-26.35.19-1.29-2.75-.83-2.91.3-1.28,8.67-.86,17.64-.1,26.35.77,8.79,2.24,17.51,4.34,26.08.28,1.16,3.19.4,2.9-.78h0Z"/>
    <path class="cls-8" d="M1010.42,105.22c-1.58.42-3.04,1.25-3.77,2.77-.63,1.32-.6,2.94.37,4.09,2.01,2.39,6.53,1.61,8.46-.48-.91.12-1.83.24-2.74.35-.55,1.23.02,2.6,1.14,3.3,1.36.85,3.15.73,4.66.55,3.07-.37,6.44-1.01,8.71-3.28-.92.16-1.84.33-2.76.49,1.11,2.65,4.28,3.11,6.78,2.47,2.98-.76,5.07-2.9,6.19-5.71-.93.25-1.86.5-2.79.75,4.33,4.04,12.67,2.43,15.71-2.46-.96.21-1.92.43-2.88.64,2.46,4.45,9.71,3.4,11.69-.98-.93.25-1.86.5-2.79.75,4.08,4.14,12.11,2.8,15.36-1.74-.93.25-1.86.5-2.79.75,2.34,1.15,5.06,1.25,7.4-.01,1.71-.92,3-3.14,1.75-4.94-.5-.72-3.14.43-2.9.78.61.88.64,1.91.14,2.86-.3.56-.67,1.04-1.36,1.02-.79-.02-1.61-.36-2.3-.7-.75-.37-2.32.08-2.79.75-2.42,3.38-7.02,3.04-9.77.24-.49-.49-2.54.18-2.79.75-.51,1.12-1.42,2.35-2.78,2.1s-2.5-1.21-3.15-2.4c-.4-.72-2.56.12-2.88.64-2.3,3.7-7.06,3.82-10.12.96-.49-.46-2.56.15-2.79.75-.59,1.49-1.67,3.6-3.3,4.19-1.54.56-3.37-.92-3.92-2.23-.3-.72-2.42.14-2.76.49-1.42,1.43-3.33,1.74-5.27,1.94-1.1.11-2.28.08-3.14-.71-.71-.66-1.02-1.6-.62-2.51.29-.66-2.43.02-2.74.35-.59.64-1.04.6-1.86.23-.72-.32-1.31-.88-1.62-1.61s-.33-1.6-.09-2.37c.19-.61.69-1.73,1.38-1.91.27-.07,1.45-.4,1.33-.85s-1.35-.13-1.57-.07h0Z"/>
    <path class="cls-8" d="M1077.43,96.32c-1.8,1.46-2.42,4.26-.5,5.93.88.77,2.07,1.09,3.22,1.05.3,0,.6-.05.89-.11.17-.03.35-.07.52-.11.39-.14.47-.15.22-.05-.03-.08-.12.58-.13.68-.05.3-.2.61-.29.9-.74,2.41,1.23,4.42,3.56,4.76,2.89.43,5.7-1.22,7.75-3.08-.86.07-1.73.14-2.59.22,1.31,2.77,4.19,4.06,7.17,3.62,1.49-.22,3-.84,4.15-1.82.25-.21.5-.45.72-.7.13-.13.24-.27.35-.42.44-.52.17-.42-.81.28.05.35,1.48,1.01,1.79,1.16,5.49,2.71,12.93-.42,14.39-6.45.22-.92-2.67-.48-2.88.41-.53,2.17-1.91,4.26-4.02,5.15-2.51,1.07-4.85-.21-6.87-1.6-.86-.59-1.93-.52-2.86-.11-1.01.44-1.4,1.4-2.23,2.05-2.17,1.7-5-.24-6-2.34-.37-.79-2.12-.21-2.59.22-1.63,1.48-3.73,2.96-5.57.9-.61-.68-.86-1.48-.65-2.36.16-.68.65-1.45.4-2.17s-1.19-.86-1.86-.81c-.87.06-1.54.48-2.39.08-1.91-.9-2.18-3.62-.57-4.93.49-.4.29-.75-.24-.89-.62-.17-1.57.16-2.05.55h0Z"/>
    <path class="cls-8" d="M1128.95,102.12c-2,.46-3.54,2.5-2.94,4.58.77,2.66,4.21,2.36,6.3,1.89l-1.73-.88c-.24,2.74,2.56,4.38,5.02,4.28,3.21-.12,5.41-2.72,7.01-5.22-.9.16-1.81.31-2.71.47,2.39,2.29,4.53,5.13,8.2,4.94,3.09-.16,5.88-2.19,6.75-5.17-.86.32-1.72.63-2.58.95,1.73.95,3.67,1.25,5.62,1.34,1.77.09,3.58.19,5.31-.25,2.52-.64,6.83-2.52,6.99-5.6.08-1.5-2.87-1.09-2.94.22-.1,1.96-3.26,3.14-4.86,3.46-1.12.23-2.37.11-3.5.06-1.47-.07-3.07-.19-4.39-.91-.93-.51-2.28-.11-2.58.95-.5,1.72-2.31,3.08-4.13,2.79-2.19-.35-3.73-2.62-5.23-4.05-.81-.77-2.14-.41-2.71.47-.8,1.26-2.08,3.22-3.72,3.41-1.33.16-2.72-1.01-2.61-2.37.08-.93-1.1-1.02-1.73-.88-.95.21-2.46.52-2.87-.68-.18-.53-.09-1.67.57-1.82.57-.13,1.37-.7,1.18-1.38s-1.15-.73-1.71-.6h0Z"/>
    <path class="cls-10" d="M1140.56,119.12s1.34,9.09,7.52,9.65"/>
    <path class="cls-8" d="M1171.14,100.98c-.32,2.2-.49,4.9,1.63,6.3s4.1-.12,6.22-.69l-1.57-.27c3.01,3.9,8.69,4.84,13.02,2.69l-1.95-.14c4.23,3.78,10.86,2.74,13.97-1.94-.83.22-1.67.45-2.5.67,3.1,1.62,6.9,1.56,9.98-.11,2.56-1.39,5.29-4.78,3.18-7.66-.69-.94-3.48.12-2.67,1.22,1.37,1.86-.35,4.22-2.06,5.12-1.94,1.01-4.26.87-6.17-.13-.82-.43-2-.09-2.5.67-2.01,3.02-5.89,3.32-8.56.94-.52-.46-1.34-.44-1.95-.14-3.19,1.58-7.01.33-9.13-2.41-.33-.43-1.11-.4-1.57-.27-.7.19-1.34.47-2,.78-.75.35-1.17.47-1.8-.16-1.22-1.23-.89-3.21-.67-4.75.2-1.33-2.75-.89-2.92.28h0Z"/>
    <path class="cls-8" d="M1102.42,73.8c-1.37-2.39-.61-5.51,1.51-7.22,2.55-2.06,6.41-.47,8.68,1.25.73.55,2.14.07,2.69-.55,1.03-1.17,2.52-2.47,4.2-2.25,1.58.2,2.91,1.33,3.37,2.84.24.8,1.9.23,2.33-.02,2.09-1.19,4.56-2.77,7.07-2.37,2.04.33,3.85,1.73,4.26,3.8.14.7,1.67.26,2,.14,1.6-.57,3.42-1.28,5.08-.52,1.29.59,2.26,1.92,2.03,3.37-.12.76,1.26.56,1.62.46,2.19-.63,4.11,2.35,3.89,4.23-.12,1.05,2.78.51,2.89-.4.47-3.95-3.72-6.12-7.13-5.14.54.15,1.08.3,1.62.46.35-2.17-1.26-3.94-3.26-4.55-2.6-.8-5.4.16-7.85,1.04l2,.14c-.56-2.8-3.34-4.35-6.01-4.58-3.6-.31-6.96,1.46-9.98,3.18.78,0,1.55-.01,2.33-.02-.75-2.49-3.33-3.7-5.8-3.61-2.9.11-5.46,1.68-7.34,3.81l2.69-.55c-3.5-2.66-8.31-3.54-12.32-1.43-3.19,1.68-5.41,5.88-3.47,9.27.52.91,3.3-.08,2.9-.78h0Z"/>
    <path class="cls-8" d="M1102.28,73.8c-1.3-.18-2.59-.49-3.9-.59s-2.8.09-4.1.56c-1.12.4-2.23,1.03-2.85,2.08-.47.8-.61,1.82-.21,2.67.2.42,1.25.13,1.56.04.18-.05,1.51-.44,1.33-.81-.33-.68-.31-1.42,0-2.1.14-.32.34-.62.59-.87.11-.1.22-.19.34-.27.13-.1.04-.03.13-.08.07-.03.08-.04.01-.01-.09.03-.06.02.08-.03-.08.07-.18.05,0,0,.15-.04.17-.04.06-.02-.09.02-.09.02,0,0,.08-.01.09-.02.02,0-.09.01-.06,0,.09,0,.09,0,.18-.02.27-.02-.12,0,.14,0,.16,0,.11,0,.22,0,.33,0,.2,0,.4.02.6.05,1.04.12,2.06.37,3.09.51.67.09,1.41-.09,2.02-.38.2-.09,1.03-.63.36-.72h0Z"/>
    <path class="cls-8" d="M1188.53,82.46c.68-1.76,2.24-3.05,4.18-2.35.85.31,1.56.88,2.08,1.61.46.63.77,1.1,1.63,1.17,1.93.15,3.22-1.79,4.94-2.35,1.86-.6,4.21.6,4.07,2.77-.08,1.21,1.81.83,2.4.44,3.78-2.52,8.37-.57,10.37,3.19.55,1.02,3.34.03,2.67-1.22-2.92-5.46-10-6.4-14.92-3.12l2.4.44c.15-2.43-1.84-4.2-4.12-4.57-1.33-.22-2.69.02-3.94.49-.65.24-1.26.55-1.86.9-.45.26-1.25,1.07-1.74,1.17h1.09c-.16-.05-.72-1-.93-1.21-.45-.44-.96-.82-1.52-1.11-1.1-.57-2.35-.81-3.59-.73-2.58.18-5.04,1.82-5.99,4.26-.57,1.47,2.32,1.32,2.74.23h0Z"/>
    <path class="cls-8" d="M1039.19,79.56c.1-5.47-8.74-4.6-9.48.04.93-.25,1.86-.5,2.79-.75-1.93-1.83-4.36-2.89-7.04-2.34-2.24.46-4.53,1.88-4.69,4.35l2.81-.9c-2.16-1.73-5.13-1.9-7.62-.75-2.16,1-3.72,3.3-2.92,5.7l2.06-1.05c-1.68.05-3.34-.37-5.02-.35-1.43.01-2.9.31-4.18.96-1.89.97-3.46,3.64-1.43,5.33.65.54,3.27-.57,2.72-1.03-1.24-1.03-.89-3.39.72-3.87.91-.27,2.08.01,2.99.12,1,.12,1.98.2,2.99.17.35-.01,2.28-.37,2.06-1.05-.44-1.32-.15-2.77.84-3.77,1.17-1.2,2.99-.24,4.08.63.59.47,2.75-.06,2.81-.9.09-1.35,1.07-2.61,2.49-2.34,1.41.27,2.6,1.17,3.63,2.14.48.46,2.68-.04,2.79-.75.09-.56.26-1.08.62-1.53.52-.66.88-.63,1.6-.18,1.02.64,1.51,1.74,1.49,2.91-.01.59,2.88.16,2.9-.78h0Z"/>
    <path class="cls-5" d="M219.96,129.91c-1.17-.87-1.94-2.92-2.36-4.34-.25.81-.81,1.49-1.55,1.88-.43.12-.89,0-1.21-.3-1.03-.89-1.41-3.13-1.56-4.75-.31.57-.81,1-1.42,1.21-.56.11-1.13-.09-1.5-.52-1.53-1.74-2.9-3.62-4.1-5.61l.74-.45c1.17,1.92,2.5,3.74,3.97,5.44.36.36.61.3.69.3.64-.16,1.3-1.46,1.57-2.25l.87-2.52v2.68c0,1.31.24,4.89,1.34,5.83.21.18.33.13.38.13.6-.17,1.2-1.67,1.47-2.67l.48-1.8.36,1.83c.23,1.14,1.1,4.3,2.39,5.26.11.1.2.1.2.1.39-.2.67-2.16.59-4.19l-.1-2.6.94,2.4c.68,1.61,1.87,2.95,3.39,3.81.1.06.22.09.34.1h0c.36-.3-.2-2.83-1.17-5.29l.77-.39c1.32,2.18,3.56,4.99,4.73,4.34,1.17-.65-.04-4.04-.82-5.59l-.93-1.92,1.65,1.43c1.32,1.15,5.2,4.09,7.32,3.93.23-.02.23-.1.23-.1.36-.84-2.09-4.53-4.56-7.46l.66-.56c1.28,1.53,5.42,6.63,4.7,8.36-.16.39-.54.64-.96.63-2,.16-4.86-1.77-6.59-3.05.63,1.73,1.27,4.24-.23,5.11-1.3.73-2.95-.73-4.18-2.22.38,1.46.58,2.94,0,3.47-.23.18-.63.35-1.33,0-1.22-.64-2.25-1.58-2.99-2.73-.07,1.33-.31,2.9-1.05,3.29-.13.07-.27.1-.41.1-.28-.01-.54-.13-.75-.32Z"/>
  </g>
</svg>