<?xml version="1.0" encoding="UTF-8"?>
<svg id="Layer_1" data-name="Layer 1" xmlns="http://www.w3.org/2000/svg" xmlns:xlink="http://www.w3.org/1999/xlink" viewBox="0 0 1334 1000">
  <defs>
    <style>
      .cls-1 {
        fill: #131429;
      }

      .cls-2 {
        fill: #040404;
      }

      .cls-3 {
        fill: #101931;
      }

      .cls-4 {
        fill: #010101;
      }

      .cls-5 {
        fill: #653c29;
      }

      .cls-6 {
        fill: #231f20;
      }

      .cls-7 {
        fill: #27153c;
      }

      .cls-8 {
        fill: #f1eef7;
      }

      .cls-9 {
        fill: #3d4e83;
      }

      .cls-10 {
        fill: #a66e53;
      }

      .cls-11 {
        fill: #0a2f44;
      }

      .cls-12 {
        fill: url(#linear-gradient);
        opacity: .5;
      }

      .cls-13 {
        fill: #3d3d3d;
      }

      .cls-14 {
        fill: #fff;
      }

      .cls-15 {
        fill: #412b12;
      }

      .cls-16 {
        fill: #f2ebd1;
      }

      .cls-17 {
        fill: #24180f;
      }

      .cls-18 {
        fill: #628e9f;
      }

      .cls-19 {
        fill: #825639;
      }

      .cls-20 {
        fill: #381c13;
      }

      .cls-21 {
        fill: #4f2e25;
      }
    </style>
    <linearGradient id="linear-gradient" x1="424.7" y1="1946.29" x2="1484.13" y2="1946.29" gradientTransform="translate(-1287.44 -433.6) rotate(90) scale(1 -1)" gradientUnits="userSpaceOnUse">
      <stop offset="0" stop-color="#f0ebe0"/>
      <stop offset=".18" stop-color="#eee8dd" stop-opacity=".99"/>
      <stop offset=".33" stop-color="#e8e1d4" stop-opacity=".97"/>
      <stop offset=".46" stop-color="#ded4c5" stop-opacity=".93"/>
      <stop offset=".59" stop-color="#d0c2b0" stop-opacity=".88"/>
      <stop offset=".72" stop-color="#bdab95" stop-opacity=".82"/>
      <stop offset=".84" stop-color="#a78e73" stop-opacity=".73"/>
      <stop offset=".96" stop-color="#8d6d4d" stop-opacity=".64"/>
      <stop offset="1" stop-color="#83603d" stop-opacity=".6"/>
    </linearGradient>
  </defs>
  <polyline class="cls-16" points="1362.37 1032.13 1362.37 -24.34 -44.67 -24.34 -44.67 1032.13"/>
  <polyline class="cls-12" points="1362.37 1047.04 -44.67 1047.04 -44.67 -12.39 1362.37 -12.39"/>
  <path class="cls-10" d="M432.69,974.39l6.59,52.97-4.44,25.16-13.14,23.38-36.85,30.31s-6.33-1.3-.32-11.48c5.89-8.93,12.52-17.52,19.83-25.69l3.84-27.27-6.76-12.02-7.77,1.34s2.12,34.23-3.15,41.13c-.91,1.19-1.69,2.19-2.35,3.01-1.85,2.3-5.26,2.5-7.39.46l-3.15-3.02-1.4-50.92s3.2-22.41,4.71-27.69c2.11-5.22,5.73-12.78,8.75-17.71l.71-7.06,36.86-10.79,5.43,15.9Z"/>
  <path class="cls-10" d="M313.3,469.97c5.75,2.04,89.34,39.94,102.71,84.32,13.37,44.38,10.35,186.15,17.33,225.37,8.78,45.67-3.25,172.08-2.13,183.45l2,41.24-31.45-12.52s-17.28-232.94-40.43-294.85c-23.16-61.91-48.02-227.01-48.02-227.01Z"/>
  <path class="cls-10" d="M212.06,370.77s3.56,59-3.63,78.99c-1.74,4.85-32.34,19.22-32.34,19.22l122.52,61.51,61.87-51.23s-47.44-22-49.19-27.82c-1.75-5.82-.1-49.69-.1-49.69"/>
  <path class="cls-13" d="M132.25,924.43l-4.79,39.34c-4.02,33-3.2,66.4,2.42,99.16l26.35,207.28s3.49,127.38-.27,199.57c-3.29,62.58,10.98,155.78,10.98,155.78l105.17-4.58,40.92-341.38-5.3-234.18,33.44-119-208.93-1.99Z"/>
  <path class="cls-13" d="M416.8,930.84l-23.11,323.05c1.12,17.38-4.72,84.48-9.84,101.13l-31.27,215.6-3,31.14-85.04,8.14,14.44-686.62,137.82,7.56Z"/>
  <path class="cls-9" d="M431.05,713.35c4.96-1.97,10.11-7.24,10.05-9.86-.02-.82-6.37-97.82-6.77-102.13-1.6-17.29-3.3-34.65-7.16-51.62-4.99-21.95-16.96-35.79-33.02-51.87-18.87-18.89-37.11-28.43-61.32-37.83l-16.13-5.21s25.98,28.9-25.71,38.6c-51.69,9.71-89.19-43.47-89.19-43.47,0,0-16.84,14.65-50.52,31.76-12.93,6.59-38.6,29.09-44.12,42.5-13.78,33.5-15.4,48.66-8.39,107.95l6.55,45.28,19.64-13.87c-3.33,41.16-4.34,106.21,0,170.77.61,8.66-4.88,57.84-4.21,66.5.39,5.13-2.9,41.63.07,45.71,2.8,3.86,20.72,6.28,25.74,7.77,53.81,15.96,198.76,4.6,198.76,4.6,22.04-3.72,40.37-6.1,59.61-16.52,13.63-7.38,16.15-11.65,23.43-18.3-4.35-18.33-5.01-37.56-6.31-56.3-2.1-30.12-6.07-61.69-7.52-91.88-.08-1.72.16-57.37.72-58.66,5.07-2.64,4.15.31,15.8-3.91Z"/>
  <path class="cls-9" d="M95.21,569.08s-7.85,97.17-9.23,129.25c0,0,45.66,15.1,91.84,8.49,48.94-7.01,0-109.08,0-109.08l-82.61-28.66Z"/>
  <g>
    <path class="cls-9" d="M415.08,580.23c.99,26.37,1.88,96.49,1.25,129-.05,2.45-.1,4.69-.17,6.68,0,0,9.78.62,17.74-4.03,7.2-4.21,6.59-6.46,6.59-6.46v-8.71s-3.85,9.33-21.68,11.94"/>
    <path class="cls-3" d="M414.36,580.42c.6,15.99.83,31.99,1.06,47.99.27,19.55.44,39.1.4,58.65-.02,9.68-.06,19.37-.38,29.05,0,.09.22.13.26.13,6.21.38,13.04-1.04,18.44-4.12,2.36-1.35,5.63-3.17,6.83-5.79.37-.8.23-1.74.23-2.6,0-2.4,0-4.81,0-7.21,0-.39-1.33.04-1.44.31-.76,1.82-2.35,3.41-3.82,4.67-4.74,4.06-10.96,5.93-17.03,6.84-.62.09-1.26.78-.25.63,6.38-.96,12.98-2.92,18.06-7.07,1.71-1.4,3.59-3.2,4.47-5.29l-1.44.31c0,2.9.22,5.88,0,8.77-.09,1.23-1.13,2.25-1.99,3.03-3,2.72-6.85,4.62-10.74,5.67-2.92.79-5.95,1.18-8.97,1.22-.32,0-.71.06-1.02,0-.56-.11-.23.2-.15-.28.15-.88.06-1.87.08-2.77.03-1.17.06-2.34.08-3.52.1-5.12.15-10.24.18-15.37.08-12.88.03-25.77-.07-38.65-.1-13.43-.27-26.85-.5-40.27-.18-10.61-.39-21.23-.75-31.83-.03-.96-.07-1.92-.1-2.88-.01-.32-1.47-.07-1.45.39h0Z"/>
  </g>
  <path class="cls-10" d="M224.49,464.92c31.44,14.69,66.57,13.37,92.59-9.12-6.95-3.58-6.71-10.07-7.13-11.57-1.55-5.58-1.07-43.77-1.07-43.77l-98.76-31.87s6.95,60.05-.54,78.9c-.4,1.01-3.69,5.5-6.16,7.62,5.89,5.02,13.99,6.5,21.08,9.81Z"/>
  <path class="cls-21" d="M329,405c-3.09,5.55-5.9,11.3-9.22,16.7-.05.08-.07.16-.09.24-.31-.22-.7-.24-.97.18-2.34,3.64-6.4,5.68-8.43,9.54-1.75,3.33-.3,7.61-.28,11.52-2.61.57-6.97.63-10.28,1.03-22.44.74-23.04-2.25-53.93-20.12-9.8-5.67-8.33-13.41-10.23-14.76,30.69-2.43,61.27-2.69,93.42-4.33Z"/>
  <path d="M184.43,333.46s-5.37-14.42-12.73-49.14c-6.59-31.09,41.44-59.55,70.96-65.75,16.23-3.41,71.33.68,85.83,6.63s22.87,24.74,25.96,52.13c0,0-10.06-26.84-27.43-25.31-14.18,1.25-60.32-3.47-72.05,2.26-11.73,5.73-37.61,17.84-36.55,61,.29,11.76-21.2.45-26.57,7.83-5.37,7.38-7.41,10.35-7.41,10.35Z"/>
  <path class="cls-10" d="M210.67,382.63l-6.86-42.12-4.47-47.29,16.76-36.88,32.9-18.06,38.36-.7s31.05,6.06,40.86,8.14c9.81,2.08,17.21,13.57,24.44,26.46,7.22,12.9,5.5,35,5.5,35,.31.74-.36,4.14-.48,4.84-1.47,8.92-1.69,16.66-2.94,23.32-.58,3.16-.43,6.07.66,8.94,4.27,11.31,4.46,16.24,3.88,23.32-.79,9.66-2.16,17.93-5.32,25.65-3.35,8.2-7.64,17.08-8.52,18.82,0,0-9.65,18.47-11.85,20.35-2.2,1.87-5.53,3.68-7.13,3.93-1.6.25-22.6,2.64-22.6,2.64l-9.8.24c-3.33.08-6.64-.5-9.75-1.71-8.42-3.27-32.47-13.13-39.12-17.33-8.95-5.66-20.48-30.41-20.48-30.41"/>
  <path d="M217.98,341.28c.35,3.66.92,18.21,1.49,21.77l-18.96.46c-6.26-12.3-13.77-26.77-16.08-30.04-3.62-5.11-5.28-30.59-5.91-40.18l-.14-2.07c-.62-9.2,7.53-24.21,21.82-40.15,15.72-17.55,44.52-28.39,73.35-27.63,2.74.07,5.48.25,8.14.52,25.13,2.59,46.41,14.13,63.26,34.32,12.15,14.56,13.67,31.73,13.18,42.26-1.61-20.68-9.52-34.94-9.85-35.54-7.5-13.78-16.44-17.43-22.61-18.07-5.39-.55-9.34,1.06-10.12,1.41-6.01,1.63-14.93,1.19-21.38.52-4.8-.49-8.63-1.15-9.67-1.34-3.32-2.09-8.22-3.52-14.18-4.14-13.86-1.43-33.7,1.88-37.55,8.12-4.27,6.92-13.5,31.31-13.32,36.9"/>
  <path class="cls-10" d="M212.52,383.49c-10.68,11.73-18.79-9.72-18.79-9.72-11.09-12.53-11.5-26.23-11.39-35.61.11-9.38,10.42-9.55,10.42-9.55,8.78.69,12.83,5.27,21.03,34.56"/>
  <path d="M345.03,254.85c-6.74-10.03-19.58-22.46-26.98-32.01-3.38-.2-20.03,0-23.53-.02-35.66-.22-82.78,21.93-86.91,35.04-2.58,8.18.86,52.12,2.55,56.07,4.63,10.83,6.82,25.17,6.82,25.17.89-16.56,12.06-35.37,13.35-41.08,1.29-5.72-7.2-32.3-5.41-33.5,1.79-1.2,33.96-12.27,70.31-12.96,10.72-.2,21.48.37,31.06,1.31-.07-.11,18.82,2.1,18.74,1.99Z"/>
  <path d="M278.98,327.04c-2.2-1.07-4.73-1.93-6.12-.63-.33.3-1.21,1.17-1.59,2.62-.49,1.84.29,3.9,1.47,5.13,1.57,1.65,4.14,1.87,6.08.91,2.63-1.31,3.42-4.53,2.7-6.84-.13-.42-.75-.31-2.53-1.18"/>
  <path d="M342.74,325.17c2.15-1.18,4.72-.27,6.18.96.34.29,1.27,1.11,1.72,2.53.58,1.82-.1,3.91-1.21,5.19-1.49,1.72-4.04,2.07-6.02,1.21-2.69-1.18-3.63-4.36-3.03-6.7.11-.43.64-2.24,2.37-3.19"/>
  <path d="M325.03,334.27s8.55-8.98,14.95-9.72c9.34-1.09,11.79.96,15.21,5.17,0,0-6.24-4.33-12.8-3.39-6.27.9-17.37,7.94-17.37,7.94Z"/>
  <path d="M293.53,332.17s-13.46-7.73-19.9-7.63c-9.4.15-20.36,6.15-23.2,10.77,0,0,14.41-8.76,21.04-8.69,6.33.07,22.06,5.55,22.06,5.55Z"/>
  <path d="M289.51,293.56c.75,2.1,1.49,4.22,2.24,6.34.57,1.61,1.98,5.25,2.53,6.85-5.62.47-10.97.09-14.5.7-6.99,1.19-14.32,1.96-20.62,5.36-3.02,1.63-5.53,3.43-7.61,6.01-.66.81-2.13,3.84-3.59,3.72-.6-.05-.68-2.94-.69-3.24-.13-5.84,3.59-9.62,8.64-12.82,10.31-6.53,21.68-10.28,33.58-12.91"/>
  <path d="M360.19,307.87s-3.22-2.04-3.24-2.06c-8.99-5.76-18.97-8.7-29.43-10.52-.69,2.12-1.38,4.25-2.07,6.39-.53,1.63-1.57,4.53-2.09,6.15,4.95.1,9.37-.26,12.47.11,6.15.72,12.66,1.4,18.16,4.33.44.23,4.11,1.75,4.52,2,2.81-2.33,2.34-5.67,1.68-6.4Z"/>
  <g>
    <path class="cls-4" d="M318.96,371.12c-2.71,1.54-6.91,1.3-9.72-.39-.62-.37-2.66.05-1.79.58,3.71,2.23,9.74,2.3,13.23.31.35-.2.28-.47-.17-.61-.46-.15-1.19-.1-1.56.11"/>
    <path class="cls-4" d="M306.24,370.54c-1.87-.85-3.95-1.27-6.02-1.38-.3-.01-.69.11-.91.32-.17.16-.2.38.03.5.97.54,2.19.74,3.3.69.35-.01.81-.12,1-.43.18-.29-.17-.47-.44-.46-.92.04-1.87-.12-2.67-.57-.3.27-.59.55-.88.82,1.85.1,3.71.49,5.38,1.25.33.15.8.04,1.09-.15.22-.14.44-.46.11-.61"/>
    <path class="cls-4" d="M298.04,371c-2.42,0-5.29-1.01-6.52-2.84-1.86-2.77-.3-7.23,2.67-9.1.32-.2.14-.45-.19-.52-.44-.09-.95.09-1.28.3-2.59,1.63-4.21,5.3-3.75,7.93.43,2.45,2.79,4.12,5.7,4.76.87.19,1.79.31,2.69.31.37,0,1.02-.13,1.19-.43.17-.3-.16-.42-.51-.42"/>
    <path class="cls-4" d="M323.36,369.76c-.14-.28.1-.47.29-.47.65,0,1.32-.2,1.86-.68.22.26.44.52.66.79-1.3.18-2.6.65-3.75,1.48-.23.17-.57.07-.78-.1-.16-.13-.33-.44-.1-.6"/>
    <path class="cls-4" d="M321.54,370.16c1.29-.93,2.74-1.43,4.2-1.63.21-.03.49.08.66.28.13.16.16.37,0,.51"/>
    <path class="cls-4" d="M328.39,369.97c1.57-.1,3.39-1.22,4.12-3.1,1.1-2.84-.07-6.15-2.08-7.9-.22-.19-.11-.45.1-.52.28-.1.62.05.85.25,1.75,1.52,2.92,4.04,2.73,6.69-.18,2.47-1.64,4.23-3.51,4.99-.55.23-1.15.38-1.73.42-.24.01-.67-.09-.79-.38-.13-.29.09-.43.31-.44"/>
  </g>
  <path class="cls-8" d="M310.62,389.24c-5.38.06-21.57.67-21.57.67,0,0,5.76,4.88,21.92,4.69,16.15-.19,21.42-5.01,21.42-5.01l-21.76-.35Z"/>
  <g>
    <path class="cls-9" d="M200.99,450.37s29.94,47.56,81.3,44.13c51.36-3.43,40.65-29.54,40.65-29.54l-6.68-10.94,17.64,7.4s5.32,12.93-.81,25.06c-6.13,12.12-31.89,22.66-64.78,19.89-19.3-1.63-44.64-13.16-60.03-27.21-18.42-16.82-19.78-19-19.78-19l12.5-9.79Z"/>
    <path class="cls-3" d="M200.32,450.67c3.77,5.98,8.66,11.41,13.67,16.36,10.86,10.75,23.89,19.53,38.49,24.26,8.76,2.84,17.98,4.13,27.18,3.81,9.51-.33,19.42-1.66,28.32-5.17,8.17-3.22,16.26-9.41,16.6-18.91.07-1.95-.14-4-.77-5.85-.2-.59-.54-1.08-.87-1.62l-4.85-7.94c-.39-.64-.78-1.28-1.17-1.91l-1.09.76c3.96,1.66,7.91,3.32,11.87,4.98,1.8.75,3.61,1.69,5.46,2.29.22.07.34.25.16,0-.26-.36,0,.27.04.37.36.99.64,2,.89,3.02,1.9,7.73,1.54,17.05-3.33,23.68-3.7,5.03-9.52,8.36-15.15,10.78-7.96,3.43-16.57,5.28-25.17,6.16-9.72.99-19.84.96-29.45-.91-9.05-1.77-17.84-4.94-26.15-8.92-8.32-3.99-16.32-8.84-23.42-14.76-6.21-5.18-12.07-10.89-17.85-16.54-1.14-1.12-2.28-2.24-3.37-3.4-.26-.28-.76-1.11-1.12-1.26-.03-.01-.06-.08-.08-.11l-.2.59c4.17-3.26,8.33-6.53,12.5-9.79.77-.61-.42-.98-.94-.57-4.17,3.26-8.33,6.53-12.5,9.79-.19.15-.35.36-.2.59.71,1.13,1.89,2.1,2.82,3.04,5.07,5.1,10.39,9.96,15.69,14.81,13.96,12.78,31.61,22.08,50.01,26.56,9.43,2.3,19.21,2.77,28.88,2.24,9.18-.5,18.38-2.06,27.05-5.16,6.34-2.27,12.71-5.39,17.55-10.18,5.61-5.56,7.46-13.68,6.8-21.38-.25-2.93-.82-5.89-1.82-8.67-.37-1.02-1.51-1.19-2.47-1.59-4.83-2.03-9.66-4.06-14.49-6.08-.39-.16-.77-.32-1.16-.49s-1.42.22-1.09.76c1.22,2,2.44,4,3.67,6l2.27,3.72c.21.34.43.68.63,1.03.07.13.12.23.06.09.56,1.25.76,2.77.86,4.12.66,8.24-4.95,14.63-11.93,18.2-7.64,3.92-16.44,5.41-24.9,6.21-9.64.92-19.25.42-28.64-2.05-14.99-3.95-28.51-12.3-39.78-22.81-6-5.6-11.22-11.79-15.97-18.46-.07-.1-.14-.21-.2-.31-.31-.49-1.71.02-1.33.61Z"/>
  </g>
  <path class="cls-20" d="M206.03,355.34c-1.44-4.44-3.09-8.87-5.39-12.95-1.11-1.98-2.39-3.96-4.08-5.5-.64-.59-1.42-1.22-2.28-1.45-1.12-.31-1.78.65-2.32,1.47-2.26,3.43-2.65,7.72-2.18,11.7.05.4,1.51.1,1.45-.39-.38-3.21-.19-6.53,1.11-9.53.45-1.05,1.04-2.17,1.88-2.97l-1.12.37c.15.02-.05-.04.04,0,.13.07.3.11.44.17.6.28,1.12.7,1.61,1.14,2.47,2.24,4.13,5.36,5.54,8.33,1.53,3.23,2.77,6.6,3.87,10,.14.44,1.58.03,1.45-.39h0Z"/>
  <path class="cls-20" d="M202.71,356.21c-6.27-.15-2.45,7.5-2.97,10.95-.03.2-.11.38-.15.57-.01.07-.12.16-.13.23l-.1.12c.73-.02.96-.08.68-.2,0-.02-.38-.31-.43-.37-.23-.26-.39-.59-.54-.89-.88-1.74-1.35-3.72-1.76-5.62-.53-2.43-.83-4.6-.62-7.06.24-2.78.92-6.87,3.78-8.17.87-.39-.48-.37-.84-.21-2.63,1.19-3.66,4.07-4.13,6.73-.34,1.93-.53,3.98-.23,5.92.36,2.36.84,4.73,1.61,6.99.32.95.8,2.73,1.83,3.2.76.35,1.87-.12,2.25-.83.45-.84.25-2.01.14-2.91-.16-1.29-1.84-7.92.67-7.86.32,0,1.65-.59.94-.61h0Z"/>
  <path class="cls-20" d="M303.24,308.13c2.84-1.27,4.73-3.91,5.5-6.88.97-3.72-.01-7.65-1.36-11.15-.25-.64-1.69-.23-1.45.39,1.24,3.2,2.16,6.69,1.51,10.13-.53,2.8-2.17,5.48-4.84,6.68-.91.41-.1,1.16.64.83h0Z"/>
  <path class="cls-17" d="M313.98,385.61c-8.05.1-25.74,6.01-29.27,9.67,0,0,8.09,11.5,26.76,11.26,18.66-.24,22.86-11.89,22.86-11.89,0,0-10.09-9.17-20.34-9.04Z"/>
  <path class="cls-14" d="M292.25,391.18s10.21-1.02,18.36-1.13c8.15-.1,18.37.66,18.37.66,0,0,1.23-6.62-13.55-6.44-14.78.19-23.18,6.9-23.18,6.9Z"/>
  <path class="cls-5" d="M313.83,403.33c-8.76-1.33-18.94-8.91-29.12-8.05,0,0,4.23,17.44,26.17,17.17,21.94-.28,23.44-17.79,23.44-17.79-10.2-.6-11.77,7.12-20.49,8.68Z"/>
  <path class="cls-5" d="M323.46,380.45c-4.61-.34-7.51,1.72-9.52,1.75-2,.03-4.95-1.96-9.56-1.51-4.31.42-22.42,12.87-20.36,14.43,2.06,1.56,16.11-7.59,29.98-7.77,13.88-.18,18.96,8.73,20.98,7.12,2.02-1.61-7.21-13.71-11.53-14.03Z"/>
  <path class="cls-10" d="M115.82,697.24c17.7,3.77,29.02-3.03,47.05-.87,12.39,1.48,24.73.72,36.99-1.04-.71,19.45-1.25,37.98-1.34,52.77l196.45,38.94,3.37,40.45c-59.3,5.06-158.11,18.88-221.14,5.25-17.71-3.83-38.59-6.77-49.62-22.63,0,0-17.5-17.39-23.39-89.17-.9-10.93-.82-16.02-1.04-26.5,3.25.56,9.48,2.12,12.67,2.8Z"/>
  <path class="cls-10" d="M369.72,827.1l19.69-.98s46.62,15.93,60.74,15.66c10.2-.6,20.27-2.68,29.93-6.19l11.81,3.28c5.44,1.51,11.22,1.01,16.35-1.43l3.96-1.87s13.73,8.23,16.51,3.91c2.78-4.32-1.58-8.81-5.82-13.18-4.23-4.36-91.59-44.48-91.59-44.48,7.98-3.23,22.73-1.43,31.11-3.19,12.9-2.61,16.91-8.5,11.25-13.12-3.49-2.85-14.11-4.8-21.04-1.43-6.91,3.36-40.58-4.24-53.24.3-12.66,4.54-21.55,21.25-21.55,21.25-1.04.52-5.59,1.44-5.59,1.44-.44,1.71-2.53,40.04-2.53,40.04Z"/>
  <path class="cls-21" d="M511.73,835.15c-5.31-2.57-11.01-4.41-16.56-6.37-6.94-2.46-13.92-4.84-20.8-7.48-2.82-1.08-5.66-2.18-8.33-3.59-.46-.24-1.89.49-1.67.61,5.2,2.75,10.94,4.61,16.46,6.6,6.94,2.49,13.92,4.86,20.82,7.42,2.83,1.05,5.69,2.11,8.41,3.42.47.23,1.88-.51,1.67-.61h0Z"/>
  <path class="cls-21" d="M478.75,834.72c-9.37-2.58-18.74-5.16-28.12-7.74-1.33-.36-2.65-.73-3.98-1.09-.39-.11-1.92.53-1.47.66,9.37,2.58,18.74,5.16,28.12,7.74,1.33.36,2.65.73,3.98,1.09.39.11,1.92-.53,1.47-.66h0Z"/>
  <g>
    <path class="cls-9" d="M147.12,509.57s47.1.12,54.91,72.37c7.81,72.25,3.25,119,3.25,119,0,0-31.36,9.34-61.01,6.54-29.64-2.81-58.3-9.15-58.3-9.15l-.22-13.5s44.99,9.74,74.5,8.99c29.51-.75,40.86-4.03,40.86-4.03"/>
    <path class="cls-3" d="M146.65,509.87c4.83.02,9.87,1.59,14.27,3.44,11.33,4.76,20.44,13.53,26.75,23.97,11.9,19.69,13.75,43.04,15.6,65.43s2.85,45.76,2.57,68.68c-.08,6.76-.27,13.52-.63,20.27-.11,2.02-.23,4.05-.37,6.07-.07.98-.29,2.04-.24,3.03,0,.12-.02.26-.04.39l.66-.42c-5.33,1.59-10.82,2.74-16.29,3.76-12.15,2.26-24.57,3.57-36.95,3.16-7.21-.24-14.41-1.14-21.57-2.07-6.47-.84-12.92-1.81-19.35-2.88-7.89-1.32-15.76-2.76-23.58-4.44-.22-.05-.59-.05-.78-.17-.13-.08-.01.16,0-.22.05-1.42-.05-2.86-.07-4.29-.05-2.98-.1-5.96-.15-8.94l-1.32.48c13.26,2.87,26.71,5.07,40.17,6.76,10.45,1.31,20.99,2.32,31.53,2.29s21.67-.7,32.37-2.05c3.97-.5,8.08-.98,11.94-2.09.83-.24.73-.7-.12-.46-2.91.84-6.1,1.26-9.17,1.69-10.36,1.45-20.86,2.03-31.32,2.28-10.38.25-20.78-.65-31.08-1.86-9.6-1.13-19.15-2.61-28.66-4.31-4.84-.87-9.68-1.77-14.48-2.81-.27-.06-1.33.07-1.32.48.07,4.5.15,9,.22,13.5.03.05.07.08.13.09,14.08,3.11,28.38,5.47,42.67,7.36,11.27,1.49,22.52,2.67,33.9,2.18,9.73-.42,19.42-1.69,28.97-3.58,4.84-.95,9.69-2.01,14.42-3.41.2-.06.64-.17.66-.42.78-7.97,1-16.02,1.18-24.01.48-21.8-.22-43.64-1.77-65.39-.52-7.26-1.14-14.52-1.85-21.76-.66-6.71-1.35-13.42-2.62-20.05-1.87-9.77-4.79-19.41-9.37-28.26-5.94-11.47-14.88-21.49-26.58-27.23-5.19-2.54-11.27-4.66-17.13-4.76-.09,0-.18,0-.27,0-.31,0-1.64.6-.94.6h0Z"/>
  </g>
  <path class="cls-21" d="M199.75,747.45c-13.74,1.22-24.14,11.7-31.84,22.28-.52.71,1.28.66,1.67.12,7.23-9.93,17.03-20.11,29.96-21.26.93-.08,1.42-1.24.2-1.14h0Z"/>
  <path class="cls-10" d="M645.77,462.75l-32.95-73.9s1.07-58.33,0-66.14c-.83-6.11-24.19-46.85-35.62-65.15-2.27-3.63-5.61-5.98-9.85-5.34l-.86.42c-6.02,4.77-2.73,14.63.18,21.5,6.71,15.86,15.55,41.8,15.55,41.8,0,0-3.91,2.42-5.53,2-13.87-3.56-26.52,2.13-26.52,2.13,0,0-3.03,5.69-12.97,9.8-9.94,4.11.74,15.56.74,15.56,0,0-4.82-1.5-10.13,8.63-5.31,10.13,14.72,14.85,14.72,14.85,0,0,5.27,7.34,10.58,30.2,5.31,22.87,25.49,27.44,25.49,27.44l20.78,58.63,46.4-22.42"/>
  <path class="cls-21" d="M582.3,399.49c-4.73-4.82-7.95-10.97-9.44-17.54s-1.26-13.52.89-19.91c1.39-4.13,3.91-8.03,3.91-12.52,0-.43-.97-.24-.97.11,0,4.07-2.1,7.67-3.5,11.37-1.2,3.17-1.91,6.52-2.16,9.9-.49,6.76.85,13.66,3.85,19.74,1.68,3.4,3.87,6.53,6.53,9.24.26.26,1.17-.11.89-.39h0Z"/>
  <path class="cls-21" d="M576.93,349.71c-5.99-1.06-12.19-1.01-18.07-2.69-1.47-.42-2.91-.95-4.29-1.64-.47-.23-1.03-.44-1.4-.82-.3-.31-.49-.74-.65-1.14-.38-.96-.6-1.99-.75-3.01-.12-.84-.31-1.88-.03-2.71.48-1.37,2.18-1.99,3.42-2.43,1.56-.56,3.21-.87,4.85-1.08,3.3-.41,6.66-.48,9.98-.65,6.99-.37,13.98-.83,20.98-.9,3.48-.03,7,.06,10.04,1.95,2.53,1.58,4.43,4.04,5.31,6.89.07.22,1.03-.05.97-.26-.79-2.58-2.43-4.85-4.61-6.45-2.5-1.83-5.46-2.42-8.5-2.52-3.6-.11-7.23.07-10.83.22s-7.4.37-11.09.57c-3.57.19-7.15.28-10.71.63-3.04.29-6.33.82-9,2.38-.98.57-1.82,1.38-1.89,2.57-.05.97.11,1.99.3,2.94s.44,2.03.98,2.89c.21.34.44.56.79.76.74.42,1.52.79,2.3,1.12,6.68,2.8,14.1,2.51,21.12,3.75.22.04.48-.02.68-.12.07-.04.34-.21.12-.25h0Z"/>
  <path class="cls-21" d="M541.4,368.48c1.16.73,2.63.55,3.78-.11,1.24-.72,2.1-1.94,2.91-3.1.91-1.3,1.46-2.68,1.41-4.29s-.59-3.18-1.26-4.64c-.19-.41-1.14-.12-.97.26,1.09,2.36,1.88,5.16.54,7.58-.58,1.05-1.36,2.12-2.22,2.97-.9.89-2.24,1.53-3.44.78-.34-.22-1.2.26-.75.54h0Z"/>
  <path class="cls-21" d="M537.17,345.96c3.16,3.83,6.89,7.4,11.09,10.09,1.93,1.23,4.08,1.86,6.37,1.52,2.07-.31,4.02-1.3,5.38-2.9,1.55-1.83,2.25-4.27,1.91-6.64-.05-.34-1.02-.12-.97.26.59,4.1-2.18,8.22-6.39,8.74-2.22.28-4.19-.54-6-1.77s-3.67-2.73-5.35-4.27c-1.84-1.68-3.56-3.49-5.14-5.42-.22-.27-1.15.08-.89.39h0Z"/>
  <path class="cls-21" d="M546.25,324.67c.43,4.46,1.02,9.26,4.46,12.49.32.3,1.16-.18.74-.57-3.32-3.11-3.82-7.9-4.24-12.18-.04-.46-1.01-.22-.97.26h0Z"/>
  <path class="cls-21" d="M572.83,326.76c-.8.06-1.59.22-2.35.47-.59.19-1.45.44-1.78,1.02-.16.28-.12.62-.06.93.08.41.19.81.3,1.21.21.78.47,1.54.75,2.29.09.24,1.04-.06.97-.26-.24-.62-.45-1.25-.64-1.89s-.4-1.25-.46-1.89c-.07-.69.47-.91,1.02-1.11.59-.21,1.21-.33,1.84-.38.18-.01.53-.07.65-.23s-.1-.18-.23-.17h0Z"/>
  <path class="cls-18" d="M813.36,338.58s-61.7,42.02-79.98,64.97c-23.38,29.35-26.13,206.75-33.65,237.95-7.53,31.2,3.56,27.4,3.56,27.4l94.34-20.71,36.22-98.79-15.84-192.12-4.64-18.71Z"/>
  <path class="cls-18" d="M789.64,624.35s-73.58-8.82-74.81-27.4c-.83-12.4,17.19-8.82,17.09-21.24l-68.51-105.24c-3.99-7.98-44.87-77.26-47.24-75.05l.69,6.5c-9.09,10.33-30.92,21.49-44.75,23.06l-8.06,2.63c-3.53,2.39,26.64,72.16,29.31,79.86,11.39,32.88,45.92,111.89,52.77,129.76,9.68,25.27,40.9,58.22,72.04,55.58,21.8-1.85,59.61-49.42,71.48-68.46Z"/>
  <path class="cls-18" d="M711.02,616.71c-6.84,28.38-5.86,34.02-5.86,34.02l91.31-20.06,36.53-97.71-14.4-174.74-4.22-17.02s-56.11,38.22-72.75,59.09"/>
  <path class="cls-10" d="M940.2,214.85s-4.89,56.92,8.06,88.63c2.08,5.09,29.36,16.72,29.36,16.72l-6.93,8.79c-5.98,7.59-18.02,14.3-26.72,18.5-43.33,20.9-105.85,29.25-127.81,3.16l10.12-19.04s7.13-7.06,8.13-13.47c1-6.4-9.35-55.37-9.35-55.37"/>
  <path class="cls-19" d="M944.61,237.53c0,.12,0,.22,0,.34.04-.14.05-.27,0-.34Z"/>
  <path class="cls-10" d="M869.76,310.89l-38.27,1.39-19.39-2.92c-1.93.18-11.79-18.77-13.3-21.15-4.66-7.4-10.75-17.09-13.89-25.27-3.36-8.76-9.6-16.12-11.76-26.81-1.58-7.83-2.02-13.36,1.26-26.56.83-3.35.63-6.62-.44-10.07-2.27-7.28-3.53-15.89-6.35-25.66-.22-.77-1.42-4.47-1.17-5.34,0,0-5.83-42.25.54-57.6,6.38-15.35,17.03-22.97,27.71-26.58,10.68-3.62,43-10.58,43-10.58l44.86-2.16,39.12,15.85,22.58,44.4,1.22,53.4-2.13,47.94"/>
  <path d="M932.59,182.22c.09,4.13-3.55,25.01-3.71,29.05l21.24-1.97c5.37-14.56,11.86-31.71,14.01-35.67,3.37-6.18-9.67-34.64-10.22-45.44l-.12-2.33c-.51-10.35-11.6-26.05-29.65-41.98-31.06-27.41-29.66-27.85-74.01-21.43-3.05.44-6.09,1-9.02,1.65-27.72,6.19-51.15,7.48-67.32,32.24-11.66,17.86-3.45-4.11-1.51,7.59-.92-23.3-3.97-3.81-1.77-6.72,12.92-17.02,21.1-.46,27.92-1.98,5.94-1.33,10.57-.04,11.49.24,6.93,1.03,13.42-.32,20.53-1.91,5.3-1.18,18.63-5.23,19.76-5.58,3.43-2.77-.72-16.54,5.86-18.01,15.29-3.41,36.9,1.85,44.61,4.78,9.12,3.46,30.86,10.81,29.64,34.67"/>
  <path d="M815.86,304.02c.26-.06.5-.17.7-.32,3.85-3,4.05-4.53,6-5.16.45-.14.67-.33,2.08-.63,5.66-1.24,9.1-2.09,25.18,6.46.32.18,20.22-3.9,20.61-3.97l10-5.69c1.65-1.2,38.03-36.89,38.03-36.89.5-1.14,6.94-9.45,7.14-10.52.12-.07.23-.15.36-.21.04-.02.14-.07.24-.12.02.07.05.16.07.2.1.44.13.91.14,1.36.06,1.96-.19,3.92-.64,5.84-.68,2.95-.98,5.93-1.55,8.88-.2,1.04-.45,2.08-.74,3.1-4.22,3.09-29.71,40.73-45.17,49.91-1.02.35-4.24,1.53-12.94,2.93-16.35,2.63-32.25,3.82-48.8.35-4.32-.91-7.95-3.66-9.95-7.45-5.7-10.82-18.27-34.89-22.18-51.4,5.22,9.34,16.26,29.37,23.86,43.01.23.41,6.51.28,7.04.39"/>
  <path class="cls-10" d="M939.05,238.9c13.13,16.12,19.7-13.33,19.7-13.33,10.74-15.45,9.39-30.81,8.04-41.26-1.35-10.46-12.89-9.29-12.89-9.29-9.71,1.92-13.64,7.57-18.95,41.37"/>
  <path d="M803.92,85.4c15.94-1.4,57.05-15.42,78.61-18.32,8.93-1.2,40.27,18.87,44.5,23.65,9.69,10.95-8.93,38.98,9,74.8,5.92,11.83,11.5-10.02,18.46-2.49,6.96,7.53,9.63,10.59,9.63,10.59,2.21-35.66,2.17-34.42-8.1-68.75-10.24-34.24-49.26-46.77-67.85-48.39-18.58-1.62-77.12,8.38-92.52,16.93"/>
  <path d="M856.29,184.56c2.32-1.49,5.27-.66,7,.6.41.3,1.5,1.15,2.12,2.71.79,1.99.19,4.39-.96,5.92-1.54,2.05-4.37,2.63-6.67,1.81-3.11-1.11-4.41-4.61-3.91-7.29.09-.49.54-2.56,2.42-3.76"/>
  <path d="M786.02,191.59c-2.56-1.04-5.31.32-6.77,1.88-.35.37-1.27,1.41-1.59,3.06-.41,2.1.62,4.35,2.04,5.64,1.89,1.73,4.78,1.78,6.89.56,2.85-1.67,3.49-5.34,2.5-7.88-.18-.46-1.01-2.42-3.07-3.25"/>
  <path d="M807.16,198.94s-10.73-8.9-17.98-8.89c-10.57.01-13.04,2.62-16.31,7.77,0,0,6.4-5.66,13.85-5.47,7.12.18,20.44,6.59,20.44,6.59Z"/>
  <path d="M840.97,193.22s13.83-10.64,21.03-11.5c10.5-1.25,23.62,3.79,27.48,8.51,0,0-17.38-7.6-24.76-6.52-7.05,1.03-23.75,9.5-23.75,9.5Z"/>
  <path d="M834.02,164.04c.9,2.35,1.8,4.7,2.71,7.06.69,1.79,2.14,5.93,2.83,7.71,5.08-3.66,9.31-7.87,12.72-9.9,6.76-4.04,13.48-8.69,21.24-10.34,3.72-.79,7.14-1.06,10.76-.36,1.14.22,4.58,1.75,5.72.59.47-.48-1.56-3.02-1.77-3.28-4.12-5.11-9.99-5.65-16.57-4.74-13.41,1.86-25.7,6.89-37.63,13.26"/>
  <path d="M766.46,160.6s4.45-.26,4.49-.26c12.48-.77,24.42,1.77,36.24,5.7-.46,2.47-.92,4.95-1.39,7.43-.36,1.89-.88,5.32-1.24,7.2-5.17-2.6-9.54-5.37-12.95-6.7-6.76-2.65-13.86-5.53-21.17-5.64-.58,0-3.71,0-4.27.02-1.62-3.83-.79-7.38.3-7.74Z"/>
  <path d="M845.46,275.53l-27.14,1.11s7.34,9.89,13.94,9.28c4.12-.38,9.23-5.34,13.2-10.39Z"/>
  <g>
    <path class="cls-4" d="M819.1,239.32c3.23,1.36,7.89.54,10.81-1.71.65-.5,2.98-.29,2.07.41-3.86,2.97-10.57,3.84-14.74,2.08-.41-.18-.37-.49.11-.71.5-.22,1.32-.26,1.76-.08"/>
    <path class="cls-4" d="M833.24,237c1.98-1.19,4.25-1.94,6.55-2.33.34-.06.79.03,1.06.24.21.16.28.4.03.57-1.01.73-2.35,1.11-3.6,1.21-.39.03-.92-.02-1.18-.35-.24-.3.13-.54.43-.57,1.04-.08,2.07-.38,2.9-.98.37.27.73.54,1.1.8-2.05.36-4.08,1.04-5.85,2.11-.35.21-.89.15-1.24-.02-.26-.13-.56-.45-.2-.67"/>
    <path class="cls-4" d="M842.46,236.43c2.7-.32,5.78-1.82,6.91-4.03,1.72-3.34-.61-8.04-4.18-9.74-.39-.18-.22-.49.15-.6.48-.15,1.07-.02,1.47.17,3.11,1.48,5.39,5.29,5.22,8.29-.16,2.8-2.57,4.97-5.74,6.07-.94.33-1.95.58-2.96.7-.41.05-1.16,0-1.39-.32-.23-.31.13-.49.51-.54"/>
    <path class="cls-4" d="M814.01,238.38c.12-.33-.17-.52-.39-.49-.73.09-1.5-.05-2.17-.51-.21.32-.42.64-.63.97,1.48.03,2.99.38,4.39,1.16.28.15.64,0,.86-.22.16-.17.32-.53.04-.69"/>
    <path class="cls-4" d="M816.1,238.59c-1.56-.87-3.25-1.24-4.91-1.27-.24,0-.54.16-.7.4-.12.19-.13.43.07.56"/>
    <path class="cls-4" d="M808.42,239.28c-1.77.09-3.95-.92-5.01-2.92-1.6-3.03-.73-6.88,1.28-9.1.22-.24.07-.51-.18-.57-.33-.08-.68.14-.91.39-1.75,1.93-2.73,4.9-2.17,7.82.53,2.73,2.39,4.51,4.57,5.11.65.18,1.33.28,1.99.24.27-.02.74-.19.84-.53.1-.35-.16-.47-.41-.45"/>
  </g>
  <path d="M795.91,92.66c1.09-1.06,2.87-1.53,4.54-1.94l1.78-.71c5.38-.46,10.77-.75,16.15-.89,1.36-.03,2.76-.05,3.98.36.13.04.26.1.38.16,3.97-.44,7.95-.83,11.94-1.12l1.86.35c1.71.11,3.54.25,4.77,1,1.23.75,1.37,2.33-.15,2.94-1.59.64-4.07-.05-5.13.96-1.16,1.11,1.32,2.44.67,3.71-.41.79-1.83,1.15-2.73,1.76-1.07.73-1.37,1.81-2.36,2.58-1.02.79-2.75,1.15-4.18.87-1.5.23-3.57-.23-3.97.84-.11.29-.01.59.03.88.15,1.14-.72,2.36-2.09,2.93-1.37.57-3.15.45-4.29-.28-1.11-.71-1.58-1.89-2.76-2.54-.37-.2-.8-.35-1.23-.51-.35.38-.81.7-1.34.92-1.37.57-3.15.45-4.29-.28-1.11-.71-1.58-1.89-2.76-2.54-.99-.54-2.45-.71-2.98-1.54-.85-1.33,1.37-3.26.04-4.33-1.21-.97-3.55.23-5.22-.23-1.61-.44-1.73-2.26-.65-3.32Z"/>
  <path d="M847.35,306.88c-.95.78-2.42,1.05-3.79,1.27l-1.48.46c-4.37.02-8.74-.09-13.1-.33-1.1-.06-2.23-.14-3.19-.55-.1-.04-.2-.1-.3-.15-3.23.1-6.47.15-9.71.13l-1.48-.41c-1.38-.2-2.84-.43-3.79-1.12-.94-.68-.96-1.97.32-2.36,1.33-.41,3.28.31,4.2-.44,1.01-.82-.9-2.06-.3-3.03.38-.61,1.55-.81,2.31-1.24.91-.52,1.22-1.37,2.07-1.93.87-.57,2.29-.75,3.43-.43,1.23-.09,2.86.42,3.26-.42.11-.22.05-.47.03-.71-.05-.93.73-1.86,1.87-2.23,1.14-.37,2.57-.16,3.44.51.85.65,1.15,1.63,2.06,2.23.28.19.63.34.96.49.31-.28.7-.51,1.14-.66,1.14-.37,2.57-.16,3.44.51.85.65,1.15,1.63,2.06,2.23.76.5,1.93.73,2.31,1.44.6,1.13-1.32,2.54-.31,3.49.92.86,2.88.05,4.2.52,1.27.46,1.25,1.94.31,2.72Z"/>
  <path d="M962.2,175.96c1.63-.17,3.33-.38,4.69-1.29,1.36-.92,2.22-2.79,1.47-4.24-1.2-2.3-5.55-2.46-5.43-5.05,1.98-2.65,7.11-1.95,8.14-5.09.84-2.54-1.96-4.69-4.34-5.91,1.52-1.63,1.12-.21,3.24-.88,2.12-.67,3.03-5.95,1.7-7.74-1.5-2.02-2.16-.28-1.5-2.71,1.69-.63-2.17-1.88-.93-3.19,1.23-1.31,1.77-3.46.73-4.93-1.25-1.77-1.12-3.15-1.21-5.31-.07-1.85-3.71-1.96-2.69-3.51,1.85-2.82-1.05-6.28-3.69-8.38,1.41-1.07-.4-1.28.45-2.84.84-1.56.89-3.69-.36-4.95-.77-.77-1.87-1.08-2.76-1.7-3.65-2.57-1.86-8.25.27-12.18-3.09.47-6.34-1.79-6.98-4.84-.3-1.44-.09-3-.7-4.34-.61-1.34-2.65-2.16-3.52-.97"/>
  <path d="M950.48,93c-.55-1.94-2.9-11.19-3.45-13.13-2.42,1.11-5.66-.73-5.95-3.37-.15-1.32.19-2.99-.94-3.7-1.15-.73-2.59.38-3.95.39-3.03.03-3.73-4.85-6.62-5.74-1.81-.56-3.79.7-5.62.22-2.78-.72-3.45-4.79-6.14-5.77-1.86-.68-3.96.39-5.9-.02-4.2-.9-5.97-6.92-10.27-6.73-1.57.07-2.97,1.22-4.54,1.17-2.82-.09,1.19-3.25-1.61-3.49-2.58-.22-4.46,2.6-7.01,3.03-4.15.69-7.34-6.13-11.14-4.32-1.64.78-2.43,2.74-4.04,3.58-3.74,1.97-8.04-3.32-12.08-2.11-2.03.61-3.39,2.75-5.48,3.14-3.24.61-5.99-3.3-9.26-2.86-2.6.35-4.37,3.35-7,3.35-1.84,0,2.56-2.29.72-2.45-3.13-.27-5.25,3.28-8.27,4.1-2.54.69-5.13-.66-7.72-1.15-2.59-.49-7.91,4.82-7.84,7.45"/>
  <path d="M907.02,70.8c15.58,5.13,22.12,10.18,30.42,24.32l-88.94-25.72c6.31-1.68,12.6-2.87,18.78-2.96,16.4-.24,24.15-.77,39.73,4.36Z"/>
  <path d="M781.82,78.64c.41-.21.83-.43,1.21-.67,2-1.23,3.44-4.42,1.48-5.72,4.3,1.49,6.95-5.97,11.49-6.14,1.31-.05,2.55.54,3.85.69,3.38.38,6.67-2.87,6.34-6.25,3.39,1.65,7.44,1.88,10.99.63l31.32,8.23c-13.37,3.56-26.86,9.34-39.77,11.65-6.21,1.11-12.53,2.44-17.97,5.64-3.96,2.33-9.09,3.77-13.15,6.24,1.38-4.77,2.74-9.55,4.21-14.3Z"/>
  <path d="M791.62,278.71c1.22,3.97,1.47,8.19,3.8,11.62-1.47.56-.73,2.85.49,3.83,1.22.98,2.89,2.05,2.63,3.6-.09.54-.42,1.01-.5,1.55-.25,1.7,1.87,2.64,3.55,2.99-1.09.93-.04,2.7,1.12,3.53s2.65,1.88,2.34,3.27c-.15.69-.75,1.26-.7,1.96.11,1.47,2.51,1.34,3.36,2.54.5.69.34,1.64.58,2.45.49,1.68,2.93,2.37,4.23,1.2.48,2.95,1.94,6.73,4.92,6.43,1.84-.18,3.52-2.05,5.24-1.38,1.07.41,1.59,1.65,2.58,2.22,3.35,1.92,7.04-5.07,10.39-3.14,1.8,1.04,1.88,4.1,3.88,4.67,1.89.53,3.43-1.71,5.37-2.01,2.11-.33,4.37,1.69,6.21.61.8-.47,1.21-1.39,1.88-2.02,1.53-1.45,3.26.55,5.3,1.08,3.66.95,3.86-1.66,3.86-1.66.94-2.58,2.36-2.45,4.81-1.23.82.41,1.58,1.06,2.49,1.06,2.23,0,3.1-3.72,5.33-3.63.82.03,1.5.61,2.26.92,2.76,1.11,5.92-2.66,4.34-5.18,3.39-.13,6.24-3.64,5.66-6.98,3.2.89,6.86-1.92,6.82-5.24,3.75.84,7.46-3.74,5.85-7.24,2.64.85,5.75-1.61,5.53-4.37-.11-1.42-.81-3.18.33-4.04.75-.56,1.81-.26,2.75-.31,2.28-.14,3.87-3.03,2.77-5.03,3.71.74,6.87-4.55,4.47-7.47,2.92.5,5.34-3.64,3.47-5.94,3.96-.32,6.4-5.75,4.01-8.92l-43.62,49.34-11.58,5.96s-41.75,5.83-49.84,2.63c-8.09-3.19-26.42-37.69-26.42-37.69Z"/>
  <path d="M850.62,73.04l41.38-7.73,35.19,18.97,14.75,42.78-6.55,34.14h0l-1.69,50.62c-1.18.18-2.35.36-3.53.55-.37.06-.76.11-1.09-.07-.81-.44-.42-1.64-.22-2.54.46-2.09-.79-4.12-1.78-6.02-.99-1.9-1.72-4.37-.39-6.05.7-.89,1.93-1.51,2.01-2.63.1-1.47-1.75-2.15-2.79-3.2-1.61-1.64-.82-4.89,1.36-5.61,0,0-2.7-2.7-2.03-8.32.67-5.62,2.04-11.66,2.04-11.66h0c-.36-.38-.7-.77-.96-1.22-1.89-3.29,1-7.73-.6-11.17-.72-1.55-2.25-2.63-2.84-4.23-1.12-3.06,1.65-6.33,1.17-9.55-.54-3.62-5.03-6.5-3.79-9.94.6-1.68,2.46-2.7,2.97-4.41.89-2.98-2.58-6.68-.45-8.94.74-.78,1.97-1.04,2.57-1.93,1.21-1.81-1.04-3.85-1.97-5.81-.96-2.03-.45-4.43-.81-6.65-.36-2.22-2.55-4.57-4.56-3.55,1.05-3.57-1.53-13.03-5.21-12.45-1.81.29-4.11,1.27-5.14-.24-.73-1.08-.05-2.65-.67-3.8-1.57-2.93-6.51,1.76-9.25-.13-.74-.51-1.11-1.42-1.74-2.05-1.44-1.45-3.85-1.22-5.78-.56-1.94.65-3.89,1.64-5.91,1.36-2.02-.28-3.86-2.68-2.68-4.35-2.03,1.3-4.15,2.63-6.55,2.91-2.4.27-5.14-.86-5.89-3.14-.48,3.41-5.59,4.96-7.88,2.39-.91-1.02-1.57-2.59-2.94-2.68-.61-.04-1.19.25-1.72.56-2.34,1.41-5.25,8.93-6.45,11.38l.41-14.96Z"/>
  <path d="M789.35,85.92c.55,1.13-.99,2.14-2.24,2.33s-2.86.52-3.01,1.77c-.1.77.49,1.5.4,2.28-.28,2.36-4.89.59-6.04,2.67-.86,1.56,1.17,3.91-.14,5.11-.62.57-1.59.41-2.44.52-1.45.18-2.72,1.36-3.01,2.79-.22,1.07.05,2.27-.5,3.21-.67,1.14-3.17.66-3.36,1.97-1,6.76-3.61,5.74-3.52,9.21.1,3.47.25,7.45-2.28,9.83-2.54-1.98-.02-4.24,1.81-6.89.55-.8-1.28-.76-.87-1.63.42-.87.41-2.08-.37-2.65-.38-.28,1.19-4.2.95-4.61-.68-1.18-.76-2.98.28-3.86,1.31-1.1,3.23,1.24,2.13-.07-1.1-1.31-2.41-3.04-1.58-4.54.73-1.32,2.72-1.51,3.46-2.82.84-1.48-.41-3.35-.09-5.03.42-2.23,3.17-3,5.42-3.31-1.51-1.62-.78-4.71,1.3-5.48.84-.31,1.88-.34,2.41-1.06.79-1.07-.18-2.89.79-3.8.82-.77,2.3-.17,3.18-.87,1.4-1.11-.47-3.48.26-5.11.97-2.16,5.64-1.55,5.3-3.88"/>
  <path class="cls-2" d="M937.57,190.37l-.47-4.83-51.05-10.49h0c-18.38-5.59-43.15,1.26-57.05,11.7l-12.8,1.64.11-.21c-15.81-9.85-40.79-9.61-59.19.55l.66,1.96h0c.01.12.17.41.3.82l.6,1.7c3.68,10.89,7.89,22.38,11.26,25.24,2.26,1.92,9.25,2.39,14.99,2.41,2.17.03,4.14-.03,5.56-.07,1.71-.07,16.85-.68,19.19-3.21,2.35-2.54,5.36-20.33,6.18-25.94l13.13-1.62c1.99,4.16,6.78,22.36,13.48,25.61,6.7,3.25,39.52-.75,42.22-5.55,1.92-3.43,7.23-15.68,8.39-21.86l2.16-8,42.34,10.15ZM808.01,215.95c-2.59,2.45-32.71,3.99-36.62.68-3.3-2.81-8.56-18.34-10.54-24.18l-.02-.24c16.51-8.13,39.02-8.38,52.75-.08-1.61,9.7-4.1,22.19-5.56,23.77v.05ZM880.68,209.03c-1.69,3.03-30.27,7.78-37.18,4.43-4.81-2.32-8.53-15.61-11.29-23.17,13.61-9.94,42.64-16.02,59.06-10-2.16,9.75-5.78,21.31-10.59,28.74h0Z"/>
  <path class="cls-6" d="M864.94,246.2c-1.01-1.17-2.38-1.92-3.92-2.07-1.02-.1-2.09.33-2.84-.55-.41-.47-.63-.9-1.25-1.15-1.36-.54-2.91.07-4.3.17-1,.07-1.99.17-2.9-.31-.59-.31-1.12-.73-1.75-.98-1.24-.49-2.42-.23-3.46.55-.52.39-.49.68-1.19.29-.41-.23-.73-.56-1.09-.85-.51-.41-1.05-.71-1.69-.88-1.45-.39-3.14-.35-4.55.18-.48.18-.94.41-1.4.61-.27.11-.54.23-.81.33-.17.06-.34.11-.51.15-.22.03-.24.04-.07.03-.54-.66-2.62.14-2.01.9,1.41,1.72,4.56-.82,6.13-1.03.84-.11,1.9,0,2.63.43s1.23,1.09,2.02,1.44c1.36.6,2.6.2,3.73-.62.71-.52,1.06-.17,1.76.26.61.37,1.21.72,1.92.86,1.6.31,3.4-.02,4.98-.26.95-.14,1.25.07,1.8.79.48.62.99.97,1.79,1.06.75.09,1.5-.12,2.25-.03,1.1.14,2.02.76,2.72,1.58.56.64,2.64-.17,2.01-.9h0Z"/>
  <path class="cls-6" d="M817.28,242.12c-1.29-.21-2.45.17-3.46.97-.9.72-1.67,1.94-2.85,2.18-.8.16-1.59.18-2.31.64-.6.39-.73.94-1.12,1.49-.46.64-1.31.16-1.98,0-.73-.17-1.43-.25-2.16-.05-1.37.38-1.75,1.38-2.15,2.61-.27.85-.54,1.09-1.39,1.2-.71.09-1.4.16-2.07.41-.59.23-1.18.54-1.58,1.04-.49.61-.24,1.12-.44,1.81-.13.46-.22.38-.65.57-.2.09-.42.18-.6.3-.46.31-.7.64-.67,1.2.05.77,2.23.3,2.17-.58-.18.12-.18.14-.02.07.1-.04.2-.08.31-.12.25-.1.51-.21.74-.36.38-.24.73-.57.85-1.02.16-.59-.18-1.36.4-1.78.42-.3,1.24-.24,1.73-.31,1.1-.17,2.3-.56,2.94-1.56.29-.46.41-.99.58-1.5.07-.21.15-.75.36-.86-.09.05.63.24.65.25,1.19.31,2.4.58,3.59.08.53-.22,1-.57,1.3-1.06s.31-1,.94-1.15c1.26-.29,2.24-.48,3.27-1.33.48-.4,1.67-2.02,2.32-1.91.49.08,1.19,0,1.54-.41.28-.32.29-.75-.22-.84h0Z"/>
  <path class="cls-11" d="M1119.44,847.59l.81,78.76c-.69,52.47-12.8,88.04-28.45,138.01l-36.45,212.1s-2.66,92.59,4.06,169.38c5.86,66.57-18.12,185.03-18.12,185.03l-22.54,3.66c-20.36,3.31-41.08,3.45-61.47.41l-43.77-6.55-29.49-393.7-23.05-241.22-37.24-145.72,295.72-.16Z"/>
  <path class="cls-11" d="M780.37,837.09l15.75,426.28c-.55,18.57,6.19,35.64,11.77,125.26l11.15,152.74,3.66,66.37,12.68,2.65c17.4,4.15,35.27,5.86,53.12,5.07l39.07-.43-20.04-765.25-127.16-12.7Z"/>
  <path class="cls-18" d="M949.73,305.48l17.83,5.89c23.89,7.96,88.4,25.63,106.02,43.64,26.47,26.89-59.27,122.91-60.39,147.42-.61,11.88-2.94,99.95,13.64,166.87,10.93,44.52,19.17,89.64,24.67,135.13l-72.42,16.15c-35.38,7.89-71.71,10.77-107.85,8.56l-90.89,7.95c-2.13-46.94-15.23-109.7-15.43-171.49l-11.02-191.41,8.1-90.29s17.72-18.35,19.44-23.02l50.21-36.86s-17.24,36.92,25.56,39.16c38.02,1.99,44.91-4.17,71.23-28.48,0,0,19.5-15.93,21.27-29.23Z"/>
  <path class="cls-18" d="M1100.52,499.13s-2.15,157.71,7.72,202.84c9.87,45.13,25.85,109.15,24.87,138.74-.97,29.58-131.12,56.98-194.72,56.22-63.59-.76-153.81,24.97-160.68-52.49-10.42-117.4,144.93-410.19,144.93-410.19l177.87,64.88Z"/>
  <path class="cls-1" d="M738.35,467.43c3.27,14.44,5.79,29.04,7.93,43.69,2.25,15.4,4.08,30.87,5.78,46.34,1.68,15.36,3.21,30.73,4.84,46.1.78,7.36,1.58,14.71,2.45,22.05.44,3.75.86,7.48,1.52,11.19,1.26,7.04,2.53,14.07,3.79,21.11.03.17.06.35.09.52.05.29,1.51-.03,1.45-.39-1.15-6.4-2.3-12.8-3.45-19.2-1.79-9.96-2.72-20.06-3.81-30.12-1.65-15.28-3.17-30.58-4.81-45.87s-3.44-31.02-5.59-46.47-4.47-29.56-7.6-44.18c-.37-1.72-.75-3.45-1.14-5.17-.07-.31-1.53.05-1.45.39h0Z"/>
  <path d="M854.58,958.73c19.12,15.72,25.86,41.89,27.66,65.53.54,7.02.68,14.07.66,21.11-.03,6.16-.36,12.33-.35,18.49,0,.98.03,1.96.05,2.94.11,6.43.22,12.86.33,19.29.19,10.89.37,21.78.56,32.67.23,13.55.46,27.1.7,40.66.25,14.42.49,28.84.74,43.26.23,13.49.46,26.98.69,40.47.18,10.76.37,21.53.55,32.29.11,6.25.21,12.51.32,18.76.03,1.52.08,3,.2,4.52.37,4.76.75,9.53,1.12,14.29.67,8.58,1.35,17.16,2.02,25.74.9,11.44,1.8,22.88,2.7,34.32,1.05,13.35,2.1,26.69,3.14,40.04,1.12,14.29,2.25,28.59,3.37,42.88,1.12,14.29,2.24,28.57,3.37,42.86,1.05,13.36,2.1,26.71,3.15,40.07.9,11.42,1.79,22.84,2.69,34.27.67,8.5,1.34,17.01,2,25.51.37,4.66.73,9.33,1.1,13.99.05.59.09,1.19.14,1.78.02.3,1.13.08,1.1-.3-.2-2.5-.39-4.99-.59-7.49-.53-6.79-1.07-13.58-1.6-20.38-.8-10.13-1.59-20.26-2.39-30.39-.98-12.51-1.97-25.03-2.95-37.54-1.1-13.98-2.2-27.96-3.29-41.94-1.13-14.45-2.27-28.9-3.4-43.35-1.09-13.92-2.19-27.83-3.28-41.75-.98-12.47-1.96-24.94-2.94-37.41-.79-10.06-1.58-20.13-2.37-30.19-.53-6.73-1.06-13.46-1.59-20.19-.19-2.36-.44-4.72-.56-7.09-.16-3.44-.12-6.91-.18-10.36-.15-8.83-.3-17.66-.45-26.5-.21-12.45-.43-24.91-.64-37.36-.24-14.24-.49-28.49-.73-42.73-.24-14.18-.49-28.37-.73-42.55-.21-12.37-.42-24.74-.63-37.1-.15-8.75-.3-17.51-.45-26.26-.06-3.34-.17-6.69-.17-10.04,0-6.97.37-13.94.36-20.92s-.23-14.24-.88-21.33c-1.15-12.59-3.66-25.11-8.67-36.76-4.29-9.97-10.41-19.3-18.85-26.23-.27-.22-1.28.2-1.03.41h0Z"/>
  <path class="cls-3" d="M950.87,306.22c-2.77,6.25-6.66,12.15-10.72,17.62-9.02,12.2-20.44,22.84-33.97,29.87-8.38,4.35-17.5,7.2-26.88,8.31-5.63.67-11.36.82-17.03.62-4.52-.16-9.04-.6-13.46-1.58-8.76-1.94-18.38-6.75-19.86-16.53-.28-1.86-.27-3.81.13-5.65.85-3.99,1.73-7.98,2.59-11.97.15-.7.3-1.4.45-2.1.08-.38-1.23.09-1.37.2-3.63,2.87-7.26,5.73-10.88,8.6l-2.78,2.19c-.32.25-.87.54-1.11.88s-.27.9-.35,1.3c-.25,1.2-.42,2.42-.54,3.63-.72,7.75,1.05,16.52,6.69,22.22,4.56,4.6,11.02,7.16,17.14,8.87,8.9,2.48,18.26,3.24,27.47,3.01,10.32-.26,20.89-1.59,30.78-4.62,9.08-2.79,17.76-6.93,25.89-11.81,8.45-5.07,16.48-11.03,23.46-18.02,3.59-3.6,6.89-7.51,10.16-11.41,2.53-3.01,5-6.06,7.35-9.21,1.34-1.8,2.65-3.63,3.86-5.53.48-.76,1.21-1.66,1.47-2.54.03-.1.09-.19.13-.29.02-.04.02-.08-.03-.11-5.74-2.12-11.48-4.23-17.22-6.35-.39-.14-1.46.45-1.37.48,4.83,1.78,9.66,3.56,14.49,5.34.78.29,1.84.48,2.54.94.26.17.16-.18.08.15-.21.89-1.05,1.89-1.52,2.64-3.92,6.18-8.7,11.85-13.46,17.39-3.73,4.34-7.53,8.59-11.8,12.42s-8.68,7.2-13.36,10.34c-9.25,6.21-19.3,11.47-29.92,14.89-11.33,3.65-23.69,4.98-35.56,4.76-9.71-.18-19.72-1.49-28.74-5.24-3.19-1.32-6.3-2.98-8.96-5.2-3.28-2.74-5.49-6.48-6.81-10.52-1.38-4.25-1.74-8.8-1.3-13.23.13-1.3.32-2.6.62-3.87.13-.57.04-.52.42-.82,4.43-3.46,8.81-6.96,13.22-10.45.41-.32.82-.64,1.22-.97l-1.37.2c-.99,4.59-1.94,9.19-2.97,13.77-.33,1.47-.47,2.96-.39,4.47.48,8.98,8.01,14.55,15.97,17.12,9.04,2.92,18.91,3.11,28.31,2.67s19.29-2.36,28.36-6.02c15.02-6.07,27.89-16.53,38.08-29.01,3.64-4.46,6.97-9.18,9.92-14.12,1.46-2.44,3.11-5,4.14-7.66.05-.12.11-.24.17-.36.08-.19-1.27-.09-1.43.27Z"/>
  <path class="cls-20" d="M943.13,206.85c1.54-4.88,3.29-9.73,5.67-14.27,1.27-2.43,2.73-4.86,4.66-6.84.49-.5,1.02-.99,1.6-1.38.14-.09.46-.29.5-.31.08-.04.16-.07.23-.11.21-.11-.03.03.1-.04.16-.09-.13-.04.08-.02-.1,0-.62.1-.62.05,0,.09.35.38.41.46.31.38.59.78.84,1.19,2.41,3.88,2.85,8.65,2.36,13.1-.02.17,1.4.04,1.45-.39.48-4.38.06-9.04-2.24-12.89-.33-.56-.85-1.59-1.44-1.94-.29-.17-.63-.09-.94,0-3.32.86-5.67,4.6-7.28,7.31-3.01,5.08-5.05,10.73-6.82,16.34-.08.27,1.31.11,1.43-.26h0Z"/>
  <path class="cls-20" d="M945.71,208.43c6.29-.21-1.31,13.95,3.3,13.68,1.24-.07,1.92-1.11,2.42-2.12,1.05-2.16,1.6-4.61,2.06-6.96.6-2.99.87-5.6.51-8.61-.41-3.46-1.43-7.82-4.95-9.38-.35-.16-1.68.39-1.18.62,3.03,1.34,4.05,5.1,4.53,8.08.35,2.19.49,4.4.15,6.6-.39,2.59-.91,5.18-1.72,7.67-.27.82-.56,1.65-.97,2.42-.15.29-.49.63-.59.92-.01.04-.22.21-.22.21.54,0,.71-.04.49-.15-.06-.03-.1-.06-.15-.11-.16-.45-.43-.73-.5-1.25-.08-.68-.01-1.39.06-2.07.16-1.49.45-2.96.61-4.45.29-2.69.19-5.9-3.27-5.78-.45.02-1.56.71-.6.68h0Z"/>
  <path class="cls-20" d="M828.83,177.78c-1.72.69-3.62-.41-4.98-1.4s-2.76-2.22-3.49-3.77c-.85-1.83-.45-3.87.06-5.74.54-1.99,1.17-3.95,1.83-5.91.27-.79-1.18-.77-1.38-.16-.78,2.29-1.55,4.61-2.12,6.96-.52,2.15-.55,4.32.7,6.22,1.07,1.63,2.79,3.05,4.47,4s3.64,1.4,5.54.64c.92-.37.11-1.15-.64-.85h0Z"/>
  <path class="cls-20" d="M863.67,124.81c-17.33,4.19-35.07,8.44-53.03,7.57-5.06-.25-10.08-.93-15.01-2.1-.49-.12-1.71.62-.88.82,17.76,4.21,36.12,1.82,53.73-1.95,5.15-1.1,10.28-2.33,15.4-3.57.88-.21.67-.98-.21-.77h0Z"/>
  <path class="cls-17" d="M825.28,253.71c9.18-1.03,30.09,2.33,34.58,5.46,0,0-7.77,12.55-29.07,14.95-21.3,2.4-27.55-8.57-27.55-8.57,0,0,10.34-10.52,22.04-11.84Z"/>
  <path class="cls-14" d="M850.76,256.17s-11.76.43-21.06,1.47c-9.3,1.05-20.85,3.25-20.85,3.25,0,0-2.23-6.4,14.62-8.3,16.86-1.9,27.29,3.57,27.29,3.57Z"/>
  <path class="cls-5" d="M827.7,271.26c9.81-2.55,20.45-11.51,32.17-12.09,0,0-2.62,17.9-27.65,20.72-25.04,2.82-28.96-14.34-28.96-14.34,11.55-2.04,14.32,5.41,24.45,5.71Z"/>
  <path class="cls-5" d="M813.83,249.93c5.21-.98,8.78.65,11.06.39,2.29-.26,5.4-2.64,10.7-2.84,4.97-.19,27.18,9.61,25.03,11.44-2.15,1.84-19.31-5.26-35.15-3.47-15.83,1.78-20.5,11.34-23.01,10.03-2.51-1.31,6.48-14.62,11.37-15.54Z"/>
  <path d="M830.03,242.74l1.18,5.53c.19.85.88,1.48,1.74,1.58,5.92.69,28.42,3.28,33.77,3.1.13,0-.42,2.23-.3,2.2l1.25-.11c1.99-.44.4-7.11-1.52-7.81-5.82-2.13-11.03-3.6-14.25-4.28-4.02-.85-15.14-2.83-19.97-2.67-1.27.04-2.18,1.23-1.91,2.47Z"/>
  <path d="M796.8,256.25c-1.47,1.56-3.05,3.35-3.01,5.5.01.78.25,1.53.48,2.28.36,1.15.71,2.3,1.07,3.45.07.23.15.47.33.63.19.18.47.23.73.27.83.13,1.68.26,2.49.03.8-.23,1.53-.94,1.5-1.78-.01-.34-.15-.7-.04-1.02.22-.63,1.08-.64,1.71-.86,1.58-.57,1.73-2.68,2.3-4.26.78-2.14,2.72-3.66,4.8-4.58,1.05-.47,2.17-.82,3.1-1.49.93-.67,1.67-1.77,1.52-2.91"/>
  <path d="M820.76,243.31l.93,5.04c.02.87-.41,1.65-1.09,1.95-4.68,2.07-20,8.9-24.4,9.98-.11.03-.2.04-.31.04l-1.47.04c-1.71.05-1.66-4.23-.24-5.36,4.31-3.45,7.05-5.5,9.54-6.93,3.1-1.78,11.01-5.72,14.98-6.71,1.05-.26,2.03.68,2.07,1.95Z"/>
  <path d="M864.77,251.16c1.72,1.28,3.58,2.78,3.91,4.9.12.77.02,1.55-.08,2.33-.15,1.2-.31,2.39-.46,3.59-.03.24-.07.49-.21.68-.16.21-.42.3-.67.39-.79.27-1.61.55-2.44.46-.83-.09-1.67-.66-1.79-1.49-.05-.34.03-.71-.14-1.01-.32-.59-1.18-.44-1.83-.55-1.65-.29-2.16-2.34-3-3.79-1.13-1.97-3.31-3.13-5.52-3.68-1.11-.28-2.28-.44-3.31-.94s-1.95-1.45-2-2.6"/>
  <path class="cls-1" d="M704.45,534.86c7.82,12,15.91,23.85,23.04,36.29,6.7,11.68,12.56,23.99,15.79,37.11,1.82,7.37,2.75,14.93,2.7,22.53,0,.76,1.46.55,1.47-.11.19-27.89-13.4-52.69-28.03-75.54-4.49-7.01-9.11-13.94-13.65-20.91-.36-.55-1.74,0-1.33.64h0Z"/>
  <path class="cls-10" d="M989.57,819.16l34.09-10.52s-16.46-4.35-13.46-12.76c0,0,45.19-9.81,49-7.73,3.81,2.08,18.38,9.18,18.38,9.18,4.2,5.11,12.12,6.25,16.94,10.71,4.63,4.48,9.04,1.37,15.17,2.85,2.96.12,3.76,9.64,6.63,8.82l84.34-164.13s-32.82,34.25-30.88,35.81c1.94,1.56,2.71,123-28.88,175.5l-.41-.2c-2.68,3.09-11.93,13.35-18.53,15.34-23.45,7.1-53.63-17.72-53.63-17.72l-10.96-1.99s-40.66,7.89-44.34-4.93l-.47-3.65,39.98-9.9,15.26.31-27.2-6.2s-38.21,3.57-41.86,3.05c-3.65-.53-8.3-5.56-7.22-8.94l5.32-3.83s-6.88-3.31-7.27-9.07Z"/>
  <path class="cls-15" d="M1073.5,825.58c-4.42-2.84-9.24-5.01-14.14-6.88-2.59-.99-5.22-1.86-7.85-2.71s-5.12-1.84-7.75-2.22-5.21.06-7.75.79c-2.93.85-5.88,1.66-8.81,2.51-5.12,1.48-10.21,3.03-15.27,4.72-4.9,1.63-9.72,3.47-14.5,5.43-1.01.42-.12,1.35.73,1,8.65-3.55,17.48-6.48,26.44-9.14,2.66-.79,5.32-1.55,7.99-2.3s5.52-1.84,8.36-1.93c2.81-.08,5.54.96,8.18,1.8s5.02,1.61,7.5,2.51c5.41,1.96,10.77,4.26,15.62,7.38.62.4,2.01-.45,1.23-.95h0Z"/>
  <path class="cls-15" d="M1075.31,813.82c-1.11-1.59-2.61-2.64-4.26-3.61-1.49-.88-2.89-1.9-4.4-2.74-2.94-1.63-6.17-2.68-9.45-3.35-7.08-1.46-14.56-1.25-21.64.11-3.8.73-7.54,1.79-11.1,3.33-1.03.44-.08.89.62.59,6.16-2.66,12.94-3.94,19.63-4.13,6.66-.19,13.63.67,19.66,3.68,1.55.77,2.92,1.79,4.4,2.67,1.92,1.15,3.75,2.2,5.05,4.07.28.41,1.84-.12,1.5-.61h0Z"/>
  <path class="cls-18" d="M1006.38,321.75l56.1,19.46c45.99,24.23,219.12,185.17,209.44,263.88-6.28,51.1-112.56,238.45-112.56,238.45,0,0-74.91-23.42-68.41-56.89,6.5-33.47,77.66-176.13,77.66-176.13,0,0-139.38-119.84-150.91-138.63-13.88-22.63-96.89-143.37-11.31-150.14Z"/>
  <path class="cls-7" d="M1027.1,359.64c-2.33,1.05-4.49,2.66-6.46,4.27-4.99,4.1-9.08,9.23-12.14,14.91-4.78,8.86-6.98,18.88-7.42,28.89-.47,10.58.65,21.26,4.28,31.24,3.2,8.81,7.77,17.1,12.81,24.99,5.59,8.76,11.86,17.08,18.45,25.1,6.71,8.18,13.79,16.06,21.08,23.73,6.5,6.83,13.18,13.48,20.01,19.98,5.13,4.89,10.35,9.69,15.65,14.4,2.6,2.31,5.19,4.67,7.9,6.86.12.1.23.2.35.29.32.27,1.63-.29,1.36-.51-1.82-1.51-3.6-3.07-5.38-4.63-4.68-4.1-9.29-8.28-13.84-12.52-6.46-6.03-12.8-12.2-19-18.51-7.22-7.35-14.24-14.9-20.96-22.7s-13.5-16.27-19.54-24.95c-5.54-7.96-10.66-16.29-14.67-25.14-1.75-3.87-3.29-7.86-4.45-11.95-1.34-4.73-2.01-9.55-2.39-14.45-.87-11.36.06-23.04,4.16-33.74,2.65-6.9,6.62-13.31,11.9-18.51,2.57-2.53,5.5-4.92,8.69-6.56.15-.08.31-.16.46-.23.87-.39-.47-.43-.85-.26h0Z"/>
  <path class="cls-7" d="M1168.09,610.8c.14-.11.3-.21.45-.31.5-.33.8-.5,1.16-.68,1.61-.83,3.31-1.47,5.07-1.92,6.34-1.62,13.03-.73,19.12,1.47,5.7,2.06,10.92,5.28,15.73,8.93.7.53,2.76-.48,1.78-1.22-11.62-8.84-27.96-15.65-42.16-8.67-.89.44-1.82.92-2.61,1.52-1.23.94.66,1.49,1.47.87h0Z"/>
  <path class="cls-7" d="M1116.21,720.84c-3.59,8.63-7.19,17.25-10.78,25.88-5.69,13.65-11.38,27.31-17.07,40.96-1.31,3.14-2.62,6.29-3.93,9.43-.02.06,0,.11.04.15,4.69,4.34,9.37,8.68,14.06,13.02.31.29,1.65-.25,1.36-.52-2.47-2.28-4.93-4.57-7.4-6.85l-4.9-4.53c-.47-.43-.92-.89-1.41-1.3-.21-.18-.31-.41-.31-.21,0-.3.33-.79.44-1.06l1.02-2.45c1.16-2.79,2.33-5.59,3.49-8.38,3.48-8.36,6.96-16.71,10.44-25.07s7.11-17.06,10.67-25.6c1.26-3.04,2.53-6.07,3.79-9.11l1.19-2.85c.18-.44.59-1.05.64-1.53,0-.06.06-.14.09-.21.14-.33-1.27-.19-1.44.23h0Z"/>
</svg>