<?xml version="1.0" encoding="UTF-8"?>
<svg id="Layer_1" data-name="Layer 1" xmlns="http://www.w3.org/2000/svg" xmlns:xlink="http://www.w3.org/1999/xlink" viewBox="0 0 1334 1000">
  <defs>
    <style>
      .cls-1 {
        fill: #131429;
      }

      .cls-2 {
        fill: #040404;
      }

      .cls-3 {
        fill: #101931;
      }

      .cls-4 {
        fill: #f39720;
      }

      .cls-5 {
        fill: #010101;
      }

      .cls-6 {
        fill: #653c29;
      }

      .cls-7 {
        fill: #231f20;
      }

      .cls-8 {
        fill: #273238;
      }

      .cls-9 {
        fill: #f1eef7;
      }

      .cls-10 {
        fill: #a66e53;
      }

      .cls-11 {
        fill: #f29721;
      }

      .cls-12 {
        fill: #0a2f44;
      }

      .cls-13 {
        fill: url(#linear-gradient);
        opacity: .5;
      }

      .cls-14 {
        fill: #3d3d3d;
      }

      .cls-15 {
        fill: #fff;
      }

      .cls-16 {
        fill: #9a5c25;
      }

      .cls-17 {
        fill: #f2ebd1;
      }

      .cls-18 {
        fill: #24180f;
      }

      .cls-19 {
        fill: #628e9f;
      }

      .cls-20 {
        fill: #825639;
      }

      .cls-21 {
        fill: #381c13;
      }

      .cls-22 {
        fill: #4f2e25;
      }
    </style>
    <linearGradient id="linear-gradient" x1="-2624.84" y1="4269.81" x2="-1565.41" y2="4269.81" gradientTransform="translate(4908.66 2615.95) rotate(90)" gradientUnits="userSpaceOnUse">
      <stop offset="0" stop-color="#f0ebe0"/>
      <stop offset=".18" stop-color="#eee8dd" stop-opacity=".99"/>
      <stop offset=".33" stop-color="#e8e1d4" stop-opacity=".97"/>
      <stop offset=".46" stop-color="#ded4c5" stop-opacity=".93"/>
      <stop offset=".59" stop-color="#d0c2b0" stop-opacity=".88"/>
      <stop offset=".72" stop-color="#bdab95" stop-opacity=".82"/>
      <stop offset=".84" stop-color="#a78e73" stop-opacity=".73"/>
      <stop offset=".96" stop-color="#8d6d4d" stop-opacity=".64"/>
      <stop offset="1" stop-color="#83603d" stop-opacity=".6"/>
    </linearGradient>
  </defs>
  <polyline class="cls-17" points="-64.67 1032.13 -64.67 -24.34 1342.37 -24.34 1342.37 1032.13"/>
  <polyline class="cls-13" points="-64.67 1047.04 1342.37 1047.04 1342.37 -12.39 -64.67 -12.39"/>
  <path class="cls-19" d="M717.53,497.66s18.61-78.63,29.45-90.64c10.85-12.02,46.74-36.05,46.74-36.05l-6.99,119.46-69.21,7.24Z"/>
  <path class="cls-19" d="M861.58,435.77c-35.97,83.08-42.28,190.64-99.08,258.71-8.59,11.47-45.31,54.62-58.34,60.49-23.04,8.88-36.52,15.97-60.81,3.26-21.43-11.16-30.08-25.89-27.51-37.58,23.81-51.55,69.37-113.06,69.37-113.06,0,0,29.05-106.02,47.85-164.93"/>
  <path class="cls-19" d="M712.88,622.06c-8.43,28.82-7.69,34.66-7.69,34.66l92.83,24.98,44.3-139.68-6.2-180.23-3.5-17.69s-59.53,36.5-77.64,57.13"/>
  <path class="cls-10" d="M974.27,220.49s-7.83,58.23,3.91,91.45c1.88,5.33,29.34,18.62,29.34,18.62l-7.55,8.69c-6.52,7.5-19.22,13.8-28.36,17.69-45.54,19.34-110.18,24.84-131.46-3.04l11.33-19.06s7.68-6.91,9.02-13.44c1.34-6.53-6.88-57.35-6.88-57.35"/>
  <path class="cls-20" d="M977.69,244.01c0,.12-.01.23-.02.35.04-.15.06-.27.02-.35Z"/>
  <path class="cls-10" d="M897.18,315.7l-39.38-.45-19.78-3.95c-2,.09-11.19-19.86-12.62-22.39-4.43-7.83-10.2-18.09-13.03-26.65-3.02-9.17-9.07-17.03-10.76-28.12-1.24-8.12-1.42-13.83,2.61-27.22,1.02-3.4.97-6.77.04-10.37-1.97-7.59-2.84-16.5-5.26-26.68-.19-.8-1.24-4.66-.94-5.55,0,0-2.94-44.56,4.37-60.02,7.31-15.46,18.62-22.76,29.77-25.95,11.15-3.19,43.72-7.88,43.72-7.88h46.19s39.41,18.19,39.41,18.19l21.02,46.73-1.38,54.92-4.55,49.15"/>
  <path d="M968.06,186.6c-.11,4.25-4.87,25.52-5.24,29.66l21.91-.98c6.24-14.7,13.74-32,16.15-35.95,3.77-6.18-8.22-36.07-8.27-47.18v-2.4c-.03-10.66-10.64-27.33-28.41-44.58-30.56-29.69-29.1-30.07-74.98-25.66-3.15.31-6.3.73-9.35,1.25-28.79,5-52.92,5.16-70.75,29.81-12.85,17.77-3.34-4.39-1.92,7.72.2-23.99-3.89-4.11-1.48-6.99,14.11-16.85,21.7.57,28.78-.66,6.17-1.07,10.87.47,11.79.82,7.06,1.4,13.8.33,21.19-.95,5.5-.95,19.39-4.46,20.58-4.76,3.66-2.68.07-17.02,6.91-18.21,15.88-2.76,37.82,3.72,45.6,7.1,9.2,4,31.17,12.63,28.75,37.08"/>
  <path d="M842.15,305.99c.27-.04.52-.15.74-.3,4.1-2.89,4.38-4.46,6.42-5,.47-.12.71-.3,2.17-.55,5.88-.99,9.45-1.7,25.55,7.88.32.2,20.97-3.02,21.37-3.06l10.55-5.35c1.76-1.16,40.88-36.02,40.88-36.02.57-1.14,7.59-9.37,7.85-10.46.12-.07.24-.14.38-.19.05-.02.15-.07.25-.11.02.07.05.16.06.21.08.46.09.94.08,1.41-.03,2.02-.39,4.02-.94,5.97-.85,3-1.3,6.04-2.03,9.05-.26,1.06-.57,2.11-.91,3.14-4.49,2.97-32.53,40.38-48.86,49.05-1.07.31-4.43,1.36-13.44,2.37-16.93,1.9-33.32,2.34-50.16-2.04-4.39-1.14-7.99-4.15-9.86-8.15-5.32-11.4-17.06-36.75-20.25-53.9,4.9,9.86,15.26,30.98,22.39,45.35.22.44,6.67.61,7.21.75"/>
  <path class="cls-10" d="M971.91,245.15c12.7,17.21,20.9-12.72,20.9-12.72,11.79-15.35,11.16-31.19,10.29-42-.87-10.81-12.78-10.18-12.78-10.18-10.07,1.5-14.38,7.11-21.5,41.56"/>
  <path d="M840.63,80.8c16.45-.66,59.37-13.03,81.66-14.95,9.23-.79,40.44,21.37,44.55,26.48,9.42,11.72-11.09,39.61,5.57,77.29,5.5,12.45,12.31-9.73,19.09-1.65,6.78,8.08,9.38,11.35,9.38,11.35,4.03-36.53,3.92-35.25-4.94-71.03-8.84-35.68-48.31-50.47-67.32-53.06-19.01-2.58-79.64,4.82-95.89,12.84"/>
  <path d="M889.56,185.25c2.46-1.42,5.45-.42,7.16.96.4.32,1.49,1.26,2.05,2.89.72,2.09-.02,4.52-1.28,6.04-1.68,2.03-4.62,2.49-6.94,1.54-3.14-1.3-4.31-4.95-3.66-7.68.12-.5.69-2.6,2.67-3.75"/>
  <path d="M817.02,189.01c-2.57-1.19-5.47.07-7.05,1.6-.37.36-1.37,1.39-1.78,3.06-.53,2.14.42,4.5,1.82,5.9,1.86,1.87,4.83,2.07,7.05.91,3.01-1.57,3.84-5.32,2.96-7.97-.16-.49-.92-2.53-2.99-3.49"/>
  <path d="M838.38,197.6s-10.59-9.67-18.03-10.02c-10.86-.51-13.53,2.05-17.14,7.18,0,0,6.85-5.5,14.49-4.93,7.31.54,20.67,7.77,20.67,7.77Z"/>
  <path d="M873.4,193.39s14.73-10.25,22.17-10.78c10.85-.77,24.08,5.06,27.81,10.1,0,0-17.48-8.66-25.11-7.91-7.29.71-24.87,8.59-24.87,8.59Z"/>
  <path d="M867.7,163.07c.81,2.45,1.62,4.91,2.43,7.38.62,1.88,1.9,6.2,2.53,8.06,5.39-3.51,9.95-7.63,13.55-9.55,7.14-3.82,14.27-8.26,22.33-9.57,3.86-.63,7.39-.73,11.07.16,1.16.28,4.62,2.02,5.84.88.5-.47-1.46-3.17-1.66-3.45-3.98-5.45-9.98-6.3-16.79-5.68-13.87,1.25-26.74,5.81-39.32,11.77"/>
  <path d="M798.45,156.21s4.59-.04,4.62-.04c12.86-.18,25,3.02,36.95,7.64-.59,2.51-1.19,5.04-1.79,7.56-.46,1.92-1.16,5.42-1.63,7.33-5.19-2.93-9.54-5.98-12.98-7.52-6.81-3.05-13.96-6.36-21.47-6.83-.59-.04-3.81-.19-4.39-.19-1.48-4.02-.45-7.62.68-7.93Z"/>
  <path d="M873.96,278.17l-27.94-.2s7.05,10.52,13.86,10.22c4.25-.19,9.75-5.03,14.08-10.02Z"/>
  <g>
    <path class="cls-5" d="M848.66,239.68c3.25,1.56,8.08.94,11.19-1.23.69-.48,3.07-.15,2.11.52-4.11,2.87-11.05,3.43-15.25,1.41-.42-.2-.36-.52.14-.72.52-.21,1.36-.21,1.81,0"/>
    <path class="cls-5" d="M863.3,237.98c2.09-1.13,4.46-1.78,6.84-2.08.35-.04.81.07,1.07.3.21.18.26.42,0,.58-1.07.7-2.47,1.03-3.76,1.06-.41.01-.95-.07-1.19-.42-.23-.32.16-.55.47-.56,1.07-.03,2.15-.29,3.03-.87.36.29.72.59,1.09.88-2.13.26-4.24.87-6.11,1.88-.37.2-.92.11-1.27-.09-.26-.14-.55-.49-.18-.69"/>
    <path class="cls-5" d="M872.79,237.86c2.79-.2,6.02-1.59,7.3-3.8,1.93-3.34-.23-8.29-3.81-10.21-.39-.21-.2-.51.18-.61.5-.13,1.1.03,1.51.25,3.12,1.67,5.28,5.7,4.96,8.77-.3,2.87-2.89,4.98-6.19,5.95-.98.29-2.04.5-3.08.58-.42.03-1.19-.07-1.41-.4-.23-.33.16-.5.55-.53"/>
    <path class="cls-5" d="M843.48,238.45c.14-.34-.15-.54-.38-.52-.75.05-1.53-.13-2.2-.63-.23.32-.46.64-.7.96,1.52.1,3.06.54,4.45,1.4.28.17.66.04.89-.18.17-.16.35-.53.07-.71"/>
    <path class="cls-5" d="M845.61,238.77c-1.56-.97-3.28-1.43-4.98-1.55-.25-.01-.56.13-.73.38-.13.19-.15.44.04.58"/>
    <path class="cls-5" d="M837.69,239.1c-1.82.01-4.01-1.14-5.01-3.25-1.5-3.19-.41-7.11,1.77-9.28.24-.24.09-.52-.16-.6-.33-.1-.71.11-.96.36-1.9,1.9-3.05,4.9-2.61,7.93.41,2.84,2.23,4.75,4.45,5.48.66.22,1.35.35,2.04.35.28,0,.77-.15.88-.5.12-.35-.14-.49-.4-.49"/>
  </g>
  <path d="M832.05,87.86c1.17-1.03,3.02-1.43,4.76-1.77l1.86-.64c5.55-.2,11.1-.24,16.64-.12,1.39.03,2.84.08,4.07.57.13.05.26.11.38.18,4.1-.26,8.21-.46,12.32-.56l1.89.45c1.75.2,3.63.43,4.85,1.26,1.23.83,1.3,2.46-.3,3.01-1.67.57-4.18-.25-5.32.73-1.25,1.08,1.23,2.58.5,3.84-.46.79-1.93,1.09-2.89,1.67-1.14.69-1.49,1.79-2.55,2.53-1.08.76-2.88,1.04-4.34.69-1.55.16-3.65-.41-4.12.67-.12.29-.04.6-.01.9.1,1.18-.85,2.39-2.29,2.9-1.43.52-3.26.31-4.39-.5-1.1-.79-1.53-2.02-2.71-2.75-.37-.23-.81-.4-1.24-.58-.38.37-.86.68-1.43.88-1.43.52-3.26.31-4.39-.5-1.1-.79-1.53-2.02-2.71-2.75-.99-.61-2.48-.85-2.99-1.73-.81-1.41,1.57-3.28.25-4.45-1.2-1.06-3.65.06-5.35-.49-1.63-.53-1.67-2.41-.5-3.44Z"/>
  <path d="M874.36,310.47c-1.01.76-2.53.96-3.96,1.12l-1.54.4c-4.49-.19-8.97-.52-13.44-.98-1.12-.12-2.29-.25-3.25-.72-.1-.05-.2-.11-.3-.17-3.33-.06-6.66-.16-9.98-.35l-1.5-.49c-1.4-.27-2.9-.59-3.83-1.33-.93-.75-.89-2.07.44-2.41,1.38-.36,3.36.48,4.34-.24,1.08-.79-.83-2.16-.16-3.13.42-.61,1.63-.75,2.44-1.16.96-.49,1.32-1.35,2.22-1.88.92-.54,2.39-.66,3.55-.27,1.26-.03,2.92.57,3.37-.27.12-.23.07-.48.07-.73,0-.96.84-1.87,2.03-2.19,1.19-.32,2.65-.04,3.51.69.84.71,1.1,1.73,2.01,2.39.28.21.63.38.96.55.33-.27.74-.49,1.21-.62,1.19-.32,2.65-.04,3.51.69.84.71,1.1,1.73,2.01,2.39.76.56,1.95.85,2.3,1.59.56,1.19-1.48,2.55-.49,3.57.9.93,2.95.19,4.29.75,1.28.53,1.19,2.05.18,2.81Z"/>
  <path d="M998.79,181.63c1.68-.1,3.44-.22,4.88-1.1,1.44-.87,2.42-2.75,1.72-4.28-1.11-2.42-5.58-2.8-5.33-5.46,2.17-2.62,7.4-1.65,8.61-4.83.98-2.57-1.78-4.91-4.16-6.28,1.64-1.6,1.16-.16,3.38-.75,2.21-.59,3.4-5.96,2.13-7.86-1.44-2.15-2.21-.4-1.4-2.86,1.76-.57-2.13-2.03-.8-3.32,1.33-1.29,1.99-3.47,1-5.03-1.2-1.88-1-3.29-.98-5.51.02-1.9-3.71-2.2-2.59-3.74,2.04-2.8-.77-6.5-3.38-8.79,1.5-1.03-.34-1.33.6-2.89.94-1.56,1.1-3.75-.13-5.1-.75-.82-1.87-1.2-2.75-1.88-3.63-2.82-1.51-8.57.88-12.5-3.19.33-6.43-2.15-6.93-5.32-.24-1.49.05-3.09-.5-4.49-.56-1.41-2.62-2.35-3.56-1.17"/>
  <path d="M990.83,95.82c-.47-2.02-2.43-11.64-2.9-13.66-2.54,1.02-5.78-1.03-5.95-3.76-.08-1.36.34-3.07-.78-3.85-1.15-.8-2.68.26-4.08.21-3.11-.12-3.59-5.17-6.52-6.22-1.83-.66-3.93.53-5.79-.05-2.82-.88-3.31-5.09-6.02-6.23-1.88-.79-4.09.21-6.06-.31-4.27-1.13-5.8-7.41-10.22-7.42-1.62,0-3.11,1.11-4.72.98-2.89-.23,1.39-3.28-1.49-3.67-2.64-.35-4.71,2.45-7.35,2.77-4.3.51-7.24-6.66-11.23-4.99-1.72.72-2.64,2.69-4.32,3.48-3.94,1.84-8.09-3.81-12.31-2.76-2.12.52-3.62,2.66-5.78,2.95-3.36.46-5.99-3.68-9.37-3.39-2.69.23-4.66,3.23-7.36,3.1-1.89-.09,2.74-2.23.86-2.48-3.2-.43-5.55,3.11-8.7,3.81-2.64.58-5.24-.93-7.87-1.56-2.63-.63-8.36,4.56-8.42,7.27"/>
  <path d="M947.27,70.87c15.75,6.04,22.22,11.55,30.06,26.48l-90.11-30.8c6.57-1.41,13.08-2.33,19.44-2.12,16.86.56,24.85.4,40.6,6.43Z"/>
  <path d="M818.27,72.76c.44-.2.87-.4,1.28-.63,2.12-1.17,3.75-4.37,1.8-5.8,4.34,1.74,7.43-5.79,12.11-5.75,1.34.01,2.59.68,3.92.9,3.45.56,7-2.62,6.82-6.11,3.4,1.86,7.55,2.29,11.26,1.18l31.78,10c-13.92,3-28.06,8.27-41.43,10.01-6.44.84-12.99,1.89-18.74,4.91-4.18,2.2-9.52,3.43-13.82,5.76,1.65-4.84,3.29-9.68,5.02-14.49Z"/>
  <path d="M818.49,278.79c1.06,4.14,1.11,8.48,3.34,12.13-1.53.5-.89,2.89.31,3.96,1.2,1.07,2.87,2.25,2.53,3.82-.12.55-.48,1.02-.59,1.57-.34,1.73,1.79,2.8,3.5,3.25-1.16.9-.18,2.77.98,3.68,1.16.91,2.63,2.06,2.24,3.48-.19.7-.83,1.26-.81,1.98.04,1.51,2.51,1.5,3.33,2.77.48.73.27,1.7.48,2.55.42,1.75,2.89,2.58,4.28,1.45.34,3.06,1.66,7,4.74,6.85,1.9-.1,3.71-1.93,5.46-1.16,1.08.48,1.55,1.78,2.54,2.41,3.35,2.14,7.48-4.87,10.83-2.71,1.79,1.15,1.73,4.31,3.75,4.98,1.91.64,3.61-1.59,5.62-1.8,2.18-.23,4.4,1.95,6.35.94.84-.44,1.31-1.36,2.03-1.99,1.65-1.42,3.32.72,5.4,1.37,3.72,1.15,4.05-1.51,4.05-1.51,1.09-2.6,2.54-2.41,5-1.03.82.46,1.57,1.17,2.51,1.21,2.29.1,3.37-3.67,5.66-3.46.84.08,1.51.7,2.28,1.05,2.78,1.28,6.21-2.44,4.72-5.11,3.49.04,6.59-3.43,6.16-6.9,3.25,1.07,7.14-1.63,7.27-5.05,3.82,1.05,7.85-3.48,6.37-7.15,2.67,1,5.98-1.37,5.89-4.22-.05-1.46-.67-3.31.54-4.13.8-.54,1.87-.18,2.84-.19,2.34-.03,4.12-2.92,3.09-5.03,3.78.94,7.29-4.34,4.96-7.46,2.98.66,5.67-3.48,3.85-5.93,4.09-.13,6.86-5.59,4.56-8.97l-47.24,48.54-12.18,5.56s-43.18,3.93-51.33.25c-8.15-3.68-25.29-40.02-25.29-40.02Z"/>
  <path d="M889.22,70.4l42.9-5.91,35.22,21.22,13.05,44.67-8.41,34.75h0l-4.22,51.92c-1.22.13-2.43.26-3.65.39-.38.04-.79.07-1.11-.13-.81-.5-.35-1.71-.1-2.62.57-2.13-.61-4.27-1.53-6.27-.92-2-1.55-4.57-.1-6.23.76-.88,2.06-1.45,2.19-2.61.18-1.51-1.69-2.29-2.7-3.42-1.57-1.76-.61-5.07,1.67-5.7,0,0-2.64-2.91-1.68-8.65.96-5.74,2.67-11.88,2.67-11.88h0c-.35-.41-.68-.83-.93-1.3-1.78-3.48,1.41-7.89-.07-11.51-.66-1.62-2.18-2.81-2.71-4.48-1-3.2,2-6.42,1.67-9.75-.38-3.74-4.85-6.92-3.41-10.4.7-1.7,2.66-2.65,3.27-4.38,1.07-3.02-2.33-6.99-.02-9.21.8-.77,2.07-.97,2.73-1.86,1.33-1.8-.88-4.01-1.74-6.07-.89-2.13-.24-4.58-.5-6.87-.26-2.3-2.4-4.82-4.51-3.87,1.25-3.62-.93-13.47-4.74-13.05-1.87.2-4.29,1.11-5.27-.5-.7-1.15.08-2.72-.5-3.93-1.47-3.09-6.78,1.49-9.49-.59-.74-.56-1.07-1.51-1.69-2.2-1.41-1.56-3.89-1.44-5.91-.86-2.02.58-4.08,1.49-6.14,1.11-2.07-.39-3.83-2.94-2.54-4.6-2.15,1.23-4.4,2.5-6.87,2.66-2.47.16-5.23-1.13-5.9-3.52-.66,3.48-5.99,4.82-8.21,2.06-.89-1.1-1.49-2.74-2.89-2.9-.63-.07-1.24.2-1.79.5-2.48,1.34-5.83,8.91-7.18,11.38l1.15-15.35Z"/>
  <path d="M825.64,80.62c.5,1.19-1.12,2.15-2.41,2.29-1.29.14-2.96.39-3.18,1.67-.14.79.43,1.57.3,2.36-.41,2.41-5.05.36-6.33,2.44-.96,1.56,1.01,4.07-.4,5.24-.67.56-1.66.34-2.53.41-1.5.11-2.86,1.26-3.23,2.72-.27,1.09-.06,2.33-.67,3.27-.74,1.14-3.29.53-3.55,1.86-1.36,6.9-4,5.72-4.07,9.29-.07,3.57-.11,7.66-2.83,9.98-2.51-2.16.19-4.36,2.19-6.99.61-.79-1.28-.84-.81-1.72.47-.88.52-2.12-.25-2.75-.38-.31,1.43-4.26,1.2-4.69-.64-1.24-.64-3.1.48-3.95,1.4-1.07,3.26,1.44,2.19.03-1.07-1.4-2.32-3.24-1.4-4.74.81-1.33,2.86-1.42,3.7-2.73.94-1.48-.25-3.46.15-5.17.54-2.27,3.41-2.93,5.73-3.14-1.47-1.74-.57-4.87,1.6-5.56.88-.28,1.95-.26,2.52-.97.86-1.06-.04-2.98,1-3.87.88-.75,2.37-.06,3.31-.73,1.49-1.07-.32-3.6.51-5.23,1.1-2.17,5.87-1.31,5.63-3.73"/>
  <path class="cls-2" d="M972.78,195.21l-.25-4.98-51.92-13.29h0c-18.61-6.65-44.39-.83-59.19,9.21l-13.23,1.06.12-.21c-15.75-10.9-41.43-11.88-60.84-2.35l.58,2.05h0c0,.13.15.43.26.85l.53,1.78c3.25,11.37,7.01,23.38,10.32,26.48,2.23,2.09,9.39,2.91,15.28,3.21,2.22.13,4.26.17,5.72.2,1.76.01,17.34.13,19.88-2.36,2.54-2.49,6.5-20.62,7.62-26.34l13.57-1.02c1.84,4.37,5.86,23.3,12.59,26.97,6.73,3.67,40.64,1.17,43.65-3.62,2.14-3.43,8.2-15.75,9.69-22.04l2.62-8.11,43,12.51ZM838.42,215.12c-2.78,2.39-33.8,2.49-37.66-1.1-3.26-3.05-7.89-19.26-9.64-25.36v-.25c17.35-7.54,40.49-6.69,54.18,2.51-2.13,9.89-5.3,22.6-6.89,24.15v.05ZM913.42,211.59c-1.88,3.03-31.48,6.51-38.42,2.72-4.82-2.62-7.99-16.45-10.46-24.35,14.47-9.54,44.6-14.36,61.17-7.36-2.7,9.91-6.98,21.61-12.3,29h0Z"/>
  <path class="cls-7" d="M895.38,249.01c-1-1.29-2.46-2.07-4.08-2.21-1.07-.09-1.99.19-2.72-.8-.38-.52-.64-.98-1.29-1.22-1.37-.5-3.09.09-4.49.08-1.1,0-1.95-.02-2.88-.6-.56-.35-1.07-.79-1.69-1.05-1.18-.49-2.46-.18-3.5.49-.56.36-.5.65-1.21.21-.36-.22-.64-.51-.95-.79-.58-.53-1.15-.93-1.91-1.16-1.54-.45-3.3-.41-4.81.12-.51.18-2.49,1.26-2.85.76s-2.46.21-2.03.79c.56.77,2.08.35,2.82.16,1.42-.38,2.66-1.18,4.17-1.04.96.09,1.73.37,2.45,1.02.59.54,1.16,1.09,1.95,1.34.68.22,1.45.16,2.13-.05.33-.1.63-.24.93-.41.22-.13.67-.64.89-.66-.22.02.47.31.55.36.36.21.68.47,1.03.69.5.32,1.01.61,1.6.73,1.7.35,3.49.04,5.19-.08,1.18-.08,1.35.46,1.97,1.26.46.6,1.03.82,1.77.89.95.08,1.83-.08,2.76.27s1.6.95,2.18,1.69c.38.49,2.47-.24,2.03-.79h0Z"/>
  <path class="cls-7" d="M846.61,242.48c-1.22-.26-2.41.11-3.42.81s-1.9,1.99-3.2,2.16c-1.48.2-2.65.38-3.44,1.78-.28.5-.28.59-.86.52-.34-.04-.69-.2-1.02-.3-.75-.23-1.46-.42-2.25-.28-1.34.23-2,1.04-2.45,2.25-.31.82-.45,1.43-1.45,1.53-.74.07-1.46.09-2.18.3-.63.19-1.26.47-1.72.94-.54.55-.51,1.04-.62,1.76-.18,1.13-2.08.73-2.08,2.18,0,.66,2.17.26,2.17-.58-.15.09-.12.1.08.01l.28-.1c.24-.09.48-.18.7-.31.47-.27.84-.62.97-1.16.18-.74-.14-1.49.81-1.75.62-.17,1.32-.09,1.95-.2,1.19-.21,2.29-.74,2.85-1.86.23-.46.33-.96.54-1.42.12-.26.46-.49.09-.41.26-.05.73.2.96.27,1.22.38,2.45.66,3.68.16.5-.21.96-.55,1.27-.99.38-.55.36-1.01,1.07-1.11,1.22-.18,2.21-.39,3.23-1.12.63-.45,1.88-2.05,2.68-1.89.47.1,1.2-.04,1.54-.41.3-.32.28-.66-.2-.76h0Z"/>
  <path class="cls-12" d="M1134.19,866.59l.83,81.01c-.71,53.97-13.16,90.55-29.26,141.95l-37.49,218.15s-2.74,95.23,4.17,174.21c6.03,68.47-18.64,190.31-18.64,190.31l-23.18,3.77c-20.94,3.41-42.25,3.55-63.23.42l-45.02-6.74-30.34-404.92-23.71-248.1-38.3-149.88,304.16-.17Z"/>
  <path class="cls-12" d="M785.45,855.79l16.2,438.44c-.57,19.09,6.37,36.66,12.11,128.83l11.47,157.1,3.77,68.26,13.04,2.73c17.89,4.27,36.27,6.03,54.63,5.22l40.18-.44-20.61-787.07-130.79-13.06Z"/>
  <path class="cls-19" d="M979.61,314.07l18.03,6.93c24.15,9.35,89.56,30.68,106.78,50.05,25.87,28.93-66.94,123.36-69.29,148.48-1.21,12.18-7.94,102.54,5.8,172.11,9.04,46.27,15.29,93.03,18.7,140.04l-75.19,13.03c-36.74,6.36-74.2,7.54-111.22,3.49l-93.62-37.49c.12-48.33-10.39-72.26-7.56-135.75l-1.9-197.18,12.76-92.36s19.1-17.98,21.1-22.69l53.4-35.4s-19.53,37.08,24.34,41.49c38.96,3.92,46.34-2.07,74.58-25.75,0,0,20.82-15.4,23.29-28.98Z"/>
  <path class="cls-19" d="M1125.97,499.88s-9.97,161.91-2.05,208.77c7.92,46.85,21.18,113.41,18.73,143.75-2.46,30.34-137.51,52.09-202.81,48.18-65.29-3.91-159.25,18.08-162.49-61.84-4.93-121.13,166.62-362.9,166.62-362.9l182.01,24.04Z"/>
  <path class="cls-1" d="M754.51,470.07c2.85,16.12,4.8,32.39,6.32,48.69,1.6,17.05,2.73,34.14,3.73,51.23s1.84,33.77,2.88,50.64c.49,7.98.81,15.99,1.87,23.91,1.22,9.15,1.44,18.48,1.78,27.7.08,2.26.16,4.52.22,6.79.02.53,1.47.22,1.45-.39-.33-11.01-.58-22.12-1.83-33.07-.14-1.2-.33-2.38-.53-3.56-.21-1.25-.22-2.56-.32-3.83-.29-3.93-.56-7.87-.81-11.8-1.08-16.76-1.94-33.52-2.89-50.29-.98-17.2-2.05-34.39-3.55-51.55s-3.23-32.77-5.89-49.01c-.32-1.95-.65-3.89-.99-5.84-.1-.56-1.55-.2-1.45.39h0Z"/>
  <path d="M861.79,980.87c19.64,16.14,26.58,43.03,28.45,67.31.55,7.14.71,14.31.68,21.48-.02,6.45-.37,12.91-.37,19.36,0,1,.03,1.99.05,2.99.11,6.59.23,13.19.34,19.78.19,11.19.38,22.38.57,33.56.24,13.93.48,27.87.71,41.8.25,14.83.51,29.67.76,44.5.24,13.88.47,27.77.71,41.65.19,11.08.38,22.17.57,33.25.11,6.44.22,12.88.33,19.31.03,1.57.08,3.1.2,4.67.38,4.9.77,9.8,1.15,14.69l2.08,26.47c.92,11.77,1.85,23.54,2.77,35.31,1.08,13.73,2.16,27.46,3.24,41.19,1.16,14.71,2.31,29.42,3.47,44.13,1.15,14.7,2.31,29.4,3.46,44.1,1.08,13.71,2.15,27.41,3.23,41.12.92,11.73,1.84,23.46,2.76,35.19.69,8.77,1.38,17.53,2.07,26.3.38,4.82.76,9.65,1.14,14.47.05.61.1,1.23.14,1.84.01.18,1.13-.01,1.1-.3-.2-2.57-.4-5.14-.61-7.71-.55-6.99-1.1-13.98-1.65-20.97-.82-10.43-1.64-20.86-2.46-31.28-1.01-12.88-2.02-25.76-3.03-38.64-1.13-14.35-2.25-28.69-3.38-43.04-1.17-14.91-2.34-29.82-3.51-44.73-1.12-14.32-2.25-28.64-3.37-42.95-1.01-12.82-2.01-25.65-3.02-38.47-.81-10.35-1.62-20.69-2.44-31.04-.54-6.88-1.08-13.76-1.62-20.64-.19-2.43-.46-4.87-.57-7.31-.17-3.58-.12-7.18-.18-10.75-.16-9.11-.31-18.22-.47-27.33-.22-12.78-.44-25.57-.66-38.35-.25-14.65-.5-29.31-.75-43.96-.25-14.63-.5-29.26-.75-43.88-.22-12.71-.43-25.41-.65-38.12-.15-8.98-.31-17.96-.46-26.94-.06-3.4-.17-6.81-.17-10.21,0-7.26.39-14.51.37-21.78s-.25-14.48-.91-21.7c-1.18-12.92-3.76-25.78-8.9-37.74-4.41-10.26-10.71-19.86-19.39-27-.22-.18-1.19.25-1.04.37h0Z"/>
  <path class="cls-10" d="M449.12,971.14l6.42,51.59-4.32,24.51-12.8,22.77-35.89,29.53s-6.17-1.26-.31-11.18c5.74-8.7,12.2-17.07,19.32-25.03l3.74-26.56-6.59-11.71-7.57,1.31s2.07,33.34-3.07,40.06c-.89,1.16-1.65,2.13-2.29,2.93-1.8,2.24-5.12,2.44-7.19.45l-3.07-2.94-1.37-49.6s3.11-21.83,4.58-26.97c2.06-5.09,5.58-12.45,8.52-17.25l.69-6.88,35.9-10.51,5.29,15.48Z"/>
  <path class="cls-10" d="M332.84,479.82c5.6,1.99,87.02,38.91,100.04,82.13,13.02,43.22,10.08,181.32,16.88,219.51,8.55,44.49-3.17,167.61-2.07,178.69l1.94,40.17-30.63-12.19s-16.83-226.89-39.38-287.19c-22.56-60.3-46.78-221.12-46.78-221.12Z"/>
  <path class="cls-10" d="M234.22,383.2s3.46,57.47-3.53,76.94c-1.7,4.72-31.5,18.72-31.5,18.72l119.34,59.92,60.26-49.9s-46.21-21.43-47.91-27.09c-1.7-5.67-.09-48.4-.09-48.4"/>
  <path class="cls-14" d="M156.49,922.48l-4.66,38.31c-3.91,32.14-3.12,64.67,2.36,96.58l25.66,201.9s3.4,124.07-.26,194.38c-3.2,60.95,10.7,151.74,10.7,151.74l102.44-4.46,39.86-332.51-5.16-228.1,32.58-115.91-203.5-1.94Z"/>
  <path class="cls-14" d="M433.65,928.72l-22.51,314.66c1.09,16.93-4.6,82.29-9.58,98.51l-30.46,210-2.93,30.34-82.83,7.93,14.07-668.79,134.24,7.37Z"/>
  <path class="cls-4" d="M447.53,716.88c4.83-1.91,9.84-7.05,9.79-9.6-.02-.8-6.2-95.28-6.59-99.48-1.56-16.84-3.21-33.75-6.97-50.28-4.86-21.38-16.52-34.86-32.16-50.52-18.38-18.4-36.14-27.7-59.73-36.85l-15.71-5.08s25.3,28.14-25.04,37.6c-50.35,9.46-86.88-42.34-86.88-42.34,0,0-16.41,14.27-49.21,30.94-12.59,6.42-37.6,28.33-42.98,41.39-13.42,32.63-15,47.4-8.17,105.15l6.38,44.1,19.13-13.51c-3.24,40.09-4.23,103.45,0,166.34.59,8.44-4.75,56.34-4.1,64.77.38,5-2.82,40.55.07,44.52,2.73,3.76,20.18,6.12,25.07,7.57,52.41,15.54,193.6,4.48,193.6,4.48,21.46-3.62,39.32-5.94,58.06-16.09,13.28-7.19,15.73-11.34,22.83-17.83-4.24-17.85-4.88-36.58-6.15-54.84-2.05-29.34-5.91-60.09-7.33-89.49-.08-1.68.15-55.88.7-57.14,4.94-2.57,4.04.3,15.39-3.8Z"/>
  <path class="cls-4" d="M120.73,587.44s9.53,94.48,13.83,125.46c0,0,46.39,6.46,89.48-7.97,45.66-15.3-19.13-104.51-19.13-104.51l-84.17-12.97Z"/>
  <path class="cls-16" d="M431.25,587.41c.58,15.62.81,31.26,1.03,46.9.27,19.08.43,38.17.38,57.25-.02,9.34-.06,18.68-.37,28.02,0,.09.22.11.26.11,5.92.36,12.43-.98,17.62-3.82,2.41-1.32,5.71-3.15,7-5.76.39-.79.27-1.66.27-2.52,0-2.37,0-4.74,0-7.11,0-.33-1.33.06-1.44.32-.74,1.77-2.26,3.3-3.68,4.52-4.6,3.98-10.69,5.81-16.6,6.7-.6.09-1.28.72-.26.57,6.21-.93,12.58-2.84,17.54-6.83,1.7-1.37,3.57-3.14,4.43-5.2l-1.44.32c0,2.83.22,5.75.01,8.57-.1,1.32-1.3,2.4-2.23,3.21-3.02,2.61-6.76,4.41-10.61,5.39-2.77.71-5.65,1.06-8.5,1.06-.25,0-.6.05-.84-.01-.47-.13-.23.16-.05-.49.22-.8.06-1.88.08-2.71.03-1.11.05-2.22.07-3.32.1-5,.14-10,.17-15,.07-12.51.02-25.01-.07-37.52s-.26-26.16-.49-39.24c-.18-10.34-.38-20.67-.73-31-.03-.93-.06-1.85-.1-2.78-.01-.27-1.46-.04-1.45.39h0Z"/>
  <path class="cls-10" d="M246.33,474.91c30.62,14.31,64.85,13.03,90.18-8.89-6.77-3.48-6.54-9.81-6.94-11.27-1.51-5.44-1.05-42.63-1.05-42.63l-96.2-31.04s6.77,58.49-.52,76.85c-.39.98-3.59,5.36-6,7.42,5.74,4.89,13.62,6.33,20.53,9.56Z"/>
  <path class="cls-22" d="M348.12,416.54c-3.01,5.41-5.74,11-8.98,16.27-.05.08-.07.16-.09.23-.3-.21-.68-.23-.95.18-2.28,3.55-6.24,5.53-8.21,9.29-1.7,3.24-.29,7.41-.28,11.22-2.54.55-6.79.61-10.01,1-21.86.72-22.44-2.19-52.53-19.6-9.55-5.53-8.11-13.06-9.96-14.38,29.89-2.37,59.68-2.62,90.99-4.22Z"/>
  <path d="M207.3,346.86s-5.23-14.04-12.4-47.86c-6.42-30.28,40.36-58.01,69.12-64.04,15.81-3.32,69.48.67,83.6,6.46,14.12,5.79,22.28,24.1,25.28,50.78,0,0-9.79-26.15-26.72-24.65-13.81,1.22-58.75-3.38-70.18,2.2-11.43,5.58-36.63,17.37-35.6,59.41.28,11.46-20.65.44-25.88,7.62-5.23,7.18-7.22,10.08-7.22,10.08Z"/>
  <path class="cls-10" d="M232.87,394.75l-6.68-41.03-4.36-46.06,16.33-35.92,32.05-17.59,37.36-.68s30.25,5.9,39.8,7.93c9.55,2.03,16.76,13.21,23.8,25.78,7.04,12.56,5.35,34.09,5.35,34.09.3.73-.35,4.03-.47,4.71-1.44,8.69-1.65,16.23-2.86,22.72-.57,3.08-.42,5.91.64,8.71,4.16,11.02,4.34,15.82,3.78,22.72-.77,9.41-2.11,17.46-5.18,24.99-3.26,7.98-7.44,16.64-8.3,18.34,0,0-9.4,17.99-11.54,19.82-2.14,1.82-5.39,3.58-6.94,3.83-1.56.25-22.01,2.57-22.01,2.57l-9.55.23c-3.25.08-6.47-.49-9.5-1.66-8.2-3.19-31.62-12.78-38.1-16.88-8.72-5.51-19.95-29.62-19.95-29.62"/>
  <path d="M239.99,354.47c.34,3.56.89,17.74,1.45,21.2l-18.47.45c-6.1-11.98-13.41-26.08-15.66-29.26-3.53-4.97-5.14-29.8-5.75-39.14l-.13-2.02c-.61-8.96,7.34-23.58,21.26-39.11,15.32-17.1,43.36-27.66,71.45-26.91,2.67.07,5.34.24,7.92.51,24.48,2.52,45.21,13.77,61.62,33.43,11.84,14.18,13.32,30.9,12.83,41.17-1.56-20.14-9.27-34.03-9.6-34.61-7.31-13.42-16.01-16.98-22.03-17.6-5.25-.54-9.1,1.03-9.86,1.37-5.85,1.59-14.55,1.16-20.82.51-4.68-.48-8.4-1.12-9.42-1.3-3.23-2.04-8-3.43-13.81-4.03-13.5-1.39-32.83,1.83-36.58,7.91-4.16,6.74-13.15,30.49-12.98,35.94"/>
  <path class="cls-10" d="M234.66,395.59c-10.41,11.42-18.3-9.47-18.3-9.47-10.8-12.21-11.2-25.55-11.09-34.68.1-9.13,10.14-9.3,10.14-9.3,8.55.67,12.5,5.13,20.49,33.67"/>
  <path d="M363.74,270.29c-6.56-9.77-19.07-21.87-26.28-31.18-3.29-.2-19.51,0-22.92-.02-34.74-.21-80.63,21.36-84.65,34.13-2.51,7.97.84,50.77,2.49,54.61,4.51,10.55,6.64,24.51,6.64,24.51.87-16.13,11.75-34.45,13-40.02,1.25-5.57-7.02-31.47-5.27-32.63,1.74-1.17,33.08-11.96,68.48-12.63,10.44-.2,20.92.36,30.26,1.27-.07-.1,18.33,2.05,18.26,1.94Z"/>
  <path d="M299.41,340.6c-2.15-1.05-4.6-1.88-5.96-.62-.32.3-1.18,1.14-1.55,2.55-.48,1.79.28,3.8,1.43,5,1.53,1.6,4.03,1.82,5.92.89,2.56-1.27,3.33-4.41,2.63-6.66-.13-.41-.73-.3-2.46-1.15"/>
  <path d="M361.51,338.78c2.09-1.15,4.6-.26,6.02.93.33.28,1.23,1.08,1.67,2.47.57,1.77-.09,3.81-1.18,5.06-1.45,1.68-3.94,2.02-5.87,1.17-2.62-1.15-3.54-4.24-2.95-6.53.11-.42.62-2.18,2.31-3.11"/>
  <path d="M344.26,347.64s8.33-8.74,14.56-9.47c9.1-1.06,11.49.94,14.82,5.04,0,0-6.08-4.22-12.46-3.3s-16.92,7.73-16.92,7.73Z"/>
  <path d="M313.58,345.6s-13.11-7.53-19.38-7.43c-9.16.14-19.83,5.99-22.6,10.49,0,0,14.04-8.54,20.49-8.46,6.17.07,21.49,5.4,21.49,5.4Z"/>
  <path d="M309.66,307.99c.73,2.05,1.45,4.11,2.18,6.17.55,1.57,1.93,5.11,2.47,6.68-5.47.46-10.69.09-14.12.68-6.81,1.16-13.94,1.91-20.08,5.22-2.94,1.58-5.38,3.35-7.41,5.85-.64.79-2.08,3.74-3.5,3.62-.58-.05-.66-2.87-.67-3.16-.13-5.69,3.49-9.37,8.42-12.49,10.04-6.36,21.12-10.01,32.71-12.57"/>
  <path d="M378.5,321.93s-3.13-1.99-3.16-2c-8.76-5.61-18.48-8.48-28.67-10.25-.67,2.07-1.35,4.14-2.02,6.23-.51,1.58-1.53,4.41-2.03,5.99,4.82.1,9.13-.25,12.15.1,5.99.7,12.33,1.36,17.69,4.22.42.23,4.01,1.71,4.41,1.95,2.74-2.27,2.28-5.52,1.63-6.23Z"/>
  <g>
    <path class="cls-5" d="M338.34,383.54c-2.64,1.5-6.73,1.26-9.47-.38-.61-.36-2.59.05-1.74.56,3.62,2.17,9.48,2.24,12.89.3.34-.19.27-.46-.16-.6-.45-.14-1.16-.09-1.52.11"/>
    <path class="cls-5" d="M325.95,382.97c-1.82-.83-3.85-1.24-5.87-1.35-.3-.01-.67.11-.89.31-.17.16-.2.37.03.49.94.52,2.13.72,3.22.67.34-.01.79-.11.98-.42.17-.28-.16-.45-.43-.44-.9.04-1.82-.12-2.6-.55-.29.27-.57.54-.86.8,1.8.1,3.62.48,5.24,1.22.32.15.78.04,1.06-.15.21-.14.43-.44.11-.59"/>
    <path class="cls-5" d="M317.96,383.42c-2.36,0-5.15-.98-6.36-2.77-1.82-2.7-.29-7.05,2.61-8.87.32-.2.14-.44-.19-.5-.43-.08-.92.09-1.25.3-2.53,1.59-4.1,5.16-3.65,7.72.42,2.39,2.71,4.01,5.55,4.64.84.19,1.74.3,2.62.31.36,0,1-.13,1.16-.42.17-.29-.16-.41-.49-.41"/>
    <path class="cls-5" d="M342.63,382.21c-.13-.27.1-.46.29-.46.64,0,1.28-.2,1.81-.66.21.26.43.51.64.77-1.27.17-2.54.63-3.66,1.44-.22.16-.55.07-.76-.1-.15-.13-.32-.43-.1-.59"/>
    <path class="cls-5" d="M340.86,382.6c1.25-.9,2.67-1.4,4.09-1.59.21-.03.48.08.64.27.12.15.15.36,0,.49"/>
    <path class="cls-5" d="M347.53,382.42c1.53-.1,3.31-1.19,4.02-3.02,1.07-2.77-.07-5.99-2.02-7.7-.21-.19-.11-.43.1-.51.27-.1.6.05.82.25,1.7,1.48,2.84,3.94,2.66,6.51-.18,2.41-1.6,4.12-3.42,4.86-.54.22-1.12.37-1.69.41-.23.01-.65-.09-.77-.37-.12-.29.09-.42.3-.43"/>
  </g>
  <path class="cls-9" d="M330.22,401.19c-5.24.06-21.01.65-21.01.65,0,0,5.61,4.75,21.35,4.57,15.73-.18,20.86-4.88,20.86-4.88l-21.2-.34Z"/>
  <path class="cls-16" d="M222.76,461c3.67,5.82,8.44,11.11,13.31,15.93,10.6,10.49,23.36,19.07,37.63,23.64,8.53,2.73,17.5,3.98,26.46,3.63s18.74-1.62,27.35-4.98c7.97-3.11,15.95-9.05,16.33-18.32.08-1.91-.1-3.95-.75-5.76-.19-.53-.49-.97-.79-1.46l-4.77-7.81c-.38-.62-.76-1.25-1.14-1.87l-1.26.61c3.84,1.61,7.69,3.23,11.53,4.84,1.75.74,3.55,1.71,5.37,2.25.08.02.36.2.21.05s.07.3.1.39c.31,1,.64,1.98.89,2.99,1.84,7.53,1.49,16.59-3.23,23.06-3.56,4.88-9.16,8.14-14.6,10.5-7.8,3.39-16.24,5.21-24.68,6.06-9.52.97-19.42.9-28.84-.95-8.78-1.73-17.29-4.84-25.35-8.7s-16.06-8.72-23.02-14.59c-5.92-4.99-11.54-10.43-17.08-15.85-1.13-1.1-2.25-2.22-3.34-3.37-.21-.22-.79-1.14-1.09-1.22-.02,0-.06-.08-.08-.11l-.1.37c4.06-3.18,8.12-6.36,12.17-9.54.63-.49-.81-.46-1.15-.19-4.06,3.18-8.12,6.36-12.17,9.54-.13.1-.19.23-.1.37.69,1.1,1.84,2.04,2.75,2.95,4.98,5.01,10.22,9.79,15.43,14.56,13.47,12.33,30.56,21.26,48.28,25.63,9.22,2.27,18.8,2.76,28.26,2.23,8.91-.49,17.82-1.99,26.26-4.95,6.23-2.19,12.54-5.24,17.3-9.92,5.45-5.36,7.32-13.13,6.73-20.61-.23-2.9-.79-5.82-1.77-8.57-.35-1-1.28-1.1-2.23-1.49l-14.18-5.95-1.13-.47c-.3-.13-1.56.11-1.26.61,1.19,1.95,2.39,3.91,3.58,5.86l2.21,3.62c.2.33.42.65.6.98.06.11.12.23.08.13.54,1.22.73,2.68.84,3.99.66,8.01-4.69,14.24-11.46,17.78-7.47,3.91-16.17,5.34-24.47,6.13-9.38.88-18.73.36-27.86-2.06-14.59-3.86-27.74-12.03-38.7-22.27-3.86-3.6-7.47-7.47-10.79-11.57-1.67-2.07-3.11-4.3-4.74-6.39-.07-.09-.13-.2-.2-.3-.23-.37-1.65.08-1.35.55Z"/>
  <path class="cls-3" d="M980.79,314.74c-3.19,6.37-7.54,12.31-12.05,17.78-9.98,12.14-22.37,22.53-36.77,28.99-8.84,3.97-18.34,6.35-28.02,7.01-5.74.39-11.56.25-17.3-.23-4.68-.39-9.36-1.08-13.89-2.34-8.76-2.43-18.17-7.78-19.19-17.74-.19-1.91-.07-3.87.43-5.73,1.07-4.03,2.15-8.06,3.23-12.08.2-.74.4-1.49.59-2.23.15-.58-.98-.34-1.19-.19-3.83,2.74-7.66,5.48-11.49,8.21l-2.98,2.13c-.4.29-.93.56-1.28.91s-.43.84-.56,1.33c-.33,1.24-.58,2.51-.77,3.79-1.17,8.03.21,17.32,5.84,23.51,4.42,4.87,10.79,7.81,16.91,9.88,8.89,3,18.36,4.29,27.71,4.56,10.6.31,21.53-.48,31.84-3.05,9.69-2.41,19.01-6.34,27.78-11.08s17.24-10.42,24.68-17.16c3.94-3.58,7.58-7.5,11.2-11.4,2.73-2.95,5.41-5.96,7.97-9.07,1.48-1.79,2.92-3.62,4.26-5.52.57-.81,1.21-1.65,1.64-2.54.05-.1.11-.19.15-.29.07-.15.07-.35-.11-.43-5.79-2.46-11.59-4.91-17.38-7.37-.49-.21-1.79.48-1.14.76,5.79,2.46,11.59,4.91,17.38,7.37l-.11-.43c-.84,1.78-2.18,3.41-3.36,4.96-4.67,6.13-9.96,11.79-15.3,17.33-6.99,7.26-14.66,13.53-23.23,18.87-8.56,5.33-17.74,9.81-27.31,13.01s-19.85,4.69-30.07,5.08-19.83-.32-29.42-2.65c-6.92-1.68-14-4.2-19.69-8.61-6.38-4.95-9.21-12.93-9.16-20.86.02-3,.39-6.03,1.18-8.93.04-.15.26-.59.22-.75-.06-.23-.39.21-.13.15.49-.1,1.22-.87,1.61-1.15,4.33-3.09,8.65-6.19,12.98-9.28l1.06-.76-1.19-.19c-1.24,4.66-2.44,9.34-3.73,13.99-.41,1.48-.61,2.98-.6,4.51.04,9.13,7.14,15.27,15.11,18.42,8.86,3.5,18.74,4.29,28.18,4.39,10.41.11,20.66-1.26,30.51-4.72,15.75-5.53,29.51-15.66,40.61-28.01,5.88-6.54,11.53-13.84,15.54-21.72.06-.12.12-.23.18-.35.34-.67-1.12-.58-1.37-.09Z"/>
  <path class="cls-21" d="M228.36,368.16c-1.4-4.3-3-8.57-5.2-12.53-1.09-1.97-2.36-3.94-4.03-5.47-.66-.6-1.46-1.26-2.34-1.49-1.06-.27-1.67.71-2.18,1.49-2.21,3.35-2.57,7.57-2.11,11.46.07.55,1.52.22,1.45-.39-.36-3.09-.19-6.34,1.08-9.22.43-.98.98-2.04,1.76-2.79l-.86.3c-.25-.03.24.1.33.14.57.28,1.08.67,1.55,1.1,2.37,2.17,3.99,5.18,5.35,8.05,1.49,3.15,2.7,6.43,3.77,9.74.18.57,1.63.17,1.45-.39h0Z"/>
  <path class="cls-21" d="M224.93,368.87c-5.9-.14-2.26,7.57-2.74,10.75-.02.16-.1.33-.11.48,0,.06-.17.22-.15.25.04.09.43,0,.44-.1,0-.02-.33-.34-.36-.38-.21-.27-.37-.59-.52-.9-.81-1.71-1.26-3.62-1.66-5.46-.5-2.35-.77-4.4-.54-6.77.25-2.59.86-6.43,3.53-7.64.91-.41.09-.98-.59-.67-2.6,1.18-3.67,4-4.14,6.64-.35,1.92-.53,3.98-.23,5.92.35,2.3.82,4.61,1.57,6.81.34.99.8,2.64,1.8,3.19.82.45,1.83-.04,2.22-.83.44-.88.23-2.06.11-3-.19-1.43-1.84-7.47.83-7.41.59.01,1.52-.86.55-.89h0Z"/>
  <path class="cls-21" d="M977.66,212.39c1.81-4.9,3.84-9.77,6.47-14.29,1.42-2.44,3.04-4.86,5.11-6.8.82-.77,1.88-1.48,2.65-1.81-.2.09.2.03-.07.02.21,0-.45.02-.44-.04-.04.19,1,1.39,1.12,1.59,2.37,4.11,2.62,9.1,1.9,13.69-.06.38,1.37.13,1.43-.24.71-4.49.53-9.31-1.64-13.41-.32-.6-.81-1.7-1.4-2.09-.29-.19-.62-.12-.94-.04-3.42.79-5.98,4.44-7.77,7.15-3.37,5.09-5.75,10.81-7.85,16.51-.11.3,1.29.15,1.43-.24h0Z"/>
  <path class="cls-21" d="M980.31,214.28c6.48.09-2.17,14.15,2.69,14.22,1.31.02,2.11-1.31,2.63-2.32,1.1-2.14,1.78-4.52,2.36-6.84.78-3.09,1.18-5.79.95-8.95-.25-3.56-1.11-8.12-4.63-9.88-.46-.23-1.78.42-1.14.74,3,1.5,3.87,5.29,4.22,8.33.25,2.2.32,4.44-.11,6.61-.51,2.59-1.14,5.16-2.04,7.64-.34.93-.71,1.86-1.2,2.72-.14.25-.33.47-.46.72-.07.13-.2.21-.29.32.08-.09.19.21.1-.08-.14-.45-.39-.74-.43-1.26-.05-.68.06-1.38.16-2.05.24-1.54.61-3.06.85-4.6.43-2.73.47-6.16-3.11-6.21-.59,0-1.52.87-.55.89h0Z"/>
  <path class="cls-21" d="M861.74,177.23c-1.84.63-4.02-.97-5.34-2.09s-2.72-2.53-3.3-4.26c-.65-1.93-.12-3.96.5-5.83.66-2.01,1.4-3.99,2.17-5.96.09-.24-1.28-.11-1.43.26-.93,2.37-1.89,4.77-2.56,7.23-.59,2.15-.63,4.3.64,6.22,2.06,3.12,5.96,6.07,9.82,4.75.13-.05.59-.21.43-.4-.14-.18-.79.04-.93.09h0Z"/>
  <path class="cls-21" d="M900.04,124.13c-18.02,3.46-36.47,6.95-54.89,5.16-5.17-.5-10.29-1.44-15.29-2.88-.62-.18-1.71.72-.84.97,18.14,5.23,37.22,3.65,55.59.6,5.25-.87,10.47-1.86,15.69-2.86.91-.18.64-1.15-.26-.98h0Z"/>
  <path class="cls-21" d="M323.05,322.21c2.77-1.24,4.61-3.83,5.36-6.72.94-3.63-.01-7.46-1.33-10.86-.25-.66-1.7-.25-1.45.39,1.21,3.11,2.1,6.51,1.47,9.86-.51,2.72-2.12,5.32-4.7,6.48-.9.4-.1,1.2.64.86h0Z"/>
  <path class="cls-18" d="M333.5,397.65c-7.84.1-25.07,5.86-28.51,9.42,0,0,7.88,11.2,26.06,10.97,18.18-.23,22.26-11.58,22.26-11.58,0,0-9.83-8.93-19.81-8.81Z"/>
  <path class="cls-15" d="M312.33,403.08s9.94-1,17.88-1.1c7.94-.1,17.89.64,17.89.64,0,0,1.19-6.45-13.2-6.27-14.39.18-22.58,6.72-22.58,6.72Z"/>
  <path class="cls-6" d="M333.35,414.91c-8.53-1.29-18.45-8.68-28.36-7.84,0,0,4.12,16.99,25.49,16.72,21.37-.27,22.83-17.33,22.83-17.33-9.94-.59-11.47,6.94-19.96,8.45Z"/>
  <path class="cls-6" d="M342.73,392.63c-4.49-.33-7.32,1.68-9.27,1.7-1.95.02-4.83-1.91-9.31-1.47-4.2.41-21.84,12.54-19.83,14.06,2.01,1.52,15.69-7.4,29.2-7.57,13.52-.17,18.47,8.51,20.44,6.94,1.97-1.57-7.02-13.36-11.23-13.66Z"/>
  <path class="cls-18" d="M854.3,254.76c9.49-.61,30.8,3.88,35.25,7.31,0,0-8.6,12.51-30.6,13.93-22,1.42-27.88-10.16-27.88-10.16,0,0,11.14-10.3,23.22-11.08Z"/>
  <path class="cls-15" d="M880.35,258.54s-12.1-.14-21.71.48c-9.61.62-21.58,2.31-21.58,2.31,0,0-1.98-6.68,15.43-7.8,17.41-1.12,27.86,5.01,27.86,5.01Z"/>
  <path class="cls-6" d="M855.92,272.91c10.21-2.14,21.58-10.82,33.64-10.84,0,0-3.57,18.26-29.43,19.93-25.86,1.67-29.05-16.16-29.05-16.16,11.96-1.53,14.44,6.26,24.84,7.07Z"/>
  <path class="cls-6" d="M842.72,250.31c5.4-.75,8.99,1.1,11.35.95,2.36-.15,5.68-2.45,11.13-2.4,5.11.05,27.45,11.21,25.15,12.99-2.3,1.78-19.58-6.35-35.94-5.3-16.35,1.05-21.62,10.64-24.13,9.17-2.51-1.47,7.38-14.7,12.45-15.41Z"/>
  <path d="M859.72,243.72l.94,5.74c.15.88.83,1.57,1.71,1.71,6.04,1,29.04,4.77,34.54,4.84.13,0-.55,2.27-.42,2.25l1.29-.05c2.06-.35.76-7.29-1.17-8.1-5.88-2.48-11.15-4.24-14.43-5.1-4.09-1.07-15.41-3.65-20.38-3.73-1.31-.02-2.3,1.15-2.09,2.44Z"/>
  <path d="M824.91,255.97c-1.59,1.53-3.29,3.29-3.36,5.5-.02.8.18,1.59.38,2.36.31,1.2.62,2.4.93,3.6.06.24.13.49.3.66.19.19.47.25.73.31.84.18,1.72.35,2.55.15s1.62-.89,1.63-1.75c0-.35-.12-.72.01-1.05.25-.64,1.14-.6,1.8-.8,1.65-.5,1.91-2.67,2.57-4.26.9-2.16,2.98-3.62,5.16-4.47,1.1-.43,2.27-.74,3.26-1.38.99-.64,1.8-1.73,1.71-2.91"/>
  <path d="M850.17,243.85l.7,5.23c-.02.89-.5,1.67-1.22,1.95-4.91,1.9-20.99,8.16-25.56,9.05-.11.02-.21.03-.32.03l-1.51-.03c-1.76-.04-1.49-4.43.01-5.52,4.6-3.33,7.52-5.31,10.14-6.65,3.27-1.67,11.59-5.34,15.72-6.16,1.09-.22,2.06.79,2.03,2.1Z"/>
  <path d="M894.99,254.08c1.71,1.4,3.54,3.03,3.78,5.22.09.8-.05,1.6-.19,2.39-.22,1.22-.43,2.44-.65,3.66-.04.24-.09.5-.25.69-.18.21-.45.29-.71.37-.83.24-1.68.48-2.53.35-.85-.14-1.69-.77-1.76-1.62-.03-.35.06-.73-.09-1.05-.3-.62-1.19-.51-1.86-.66-1.69-.37-2.11-2.51-2.9-4.05-1.07-2.08-3.25-3.38-5.49-4.06-1.13-.34-2.32-.56-3.35-1.13-1.04-.57-1.93-1.59-1.93-2.77"/>
  <path class="cls-19" d="M1071.68,352.85s62.44,11.93,67.58,94.9c5.07,81.75,14.09,196.51-3.57,249.12-6.76,20.13-16.38,43.03-63.94,58.16-59.61,19-100.85,12.2-100.85,12.2l-25.16-70.95,96.92-53.09-.59-205.09s.52-74.96,29.6-85.25Z"/>
  <path class="cls-10" d="M155.8,708.35c17.61.9,27.44-7.39,45.12-8.09,12.15-.48,23.9-3.12,35.42-6.71,2.31,18.82,4.65,36.72,6.84,50.96l194.94,7.18,9.48,38.38c-56.25,14-149.15,42.53-211.87,39.13-17.62-.95-38.16-.57-51.21-14.12,0,0-19.51-14.03-36.24-82.16-2.55-10.38-3.26-15.28-5.08-25.33,3.22.04,9.45.58,12.62.74Z"/>
  <path class="cls-10" d="M420.01,794.12l18.78-3.98s47.3,8.13,60.83,5.7c9.72-2.15,19.08-5.7,27.83-10.56l11.87,1.34c5.47.62,10.94-.76,15.51-3.89l3.52-2.41s14.47,5.8,16.48,1.22c2.01-4.58-2.88-8.23-7.62-11.78-4.74-3.55-94.94-28.67-94.94-28.67,7.18-4.34,21.64-4.87,29.43-7.86,12-4.5,14.95-10.78,8.8-14.36-3.79-2.21-14.31-2.44-20.46,1.87-6.13,4.29-39.68,2.18-51.16,8.49-11.48,6.31-17.45,23.75-17.45,23.75-.92.66-5.16,2.25-5.16,2.25-.16,1.71,3.74,38.9,3.74,38.9Z"/>
  <path class="cls-22" d="M557.61,779.89c-5.62-1.69-11.52-2.58-17.28-3.64-7-1.28-14.01-2.48-20.97-3.96-2.81-.6-5.65-1.2-8.38-2.13-.6-.2-2.08.67-1.07,1.01,5.55,1.88,11.48,2.8,17.22,3.87,6.99,1.31,14.01,2.5,20.99,3.9,2.82.57,5.67,1.13,8.43,1.96.6.18,2.08-.71,1.07-1.01h0Z"/>
  <path class="cls-22" d="M526.12,784.75c-9.41-1.03-18.81-2.07-28.22-3.1-1.34-.15-2.67-.29-4.01-.44-.39-.04-.9.04-1.24.24-.1.06-.64.36-.23.41,9.41,1.03,18.81,2.07,28.22,3.1,1.34.15,2.67.29,4.01.44.39.04.9-.04,1.24-.24.1-.06.64-.36.23-.41h0Z"/>
  <g>
    <path class="cls-11" d="M160.03,521.32s45.14-8.15,65.31,59.71c20.16,67.86,23.99,113.44,23.99,113.44,0,0-28.41,14.45-57.3,16.96-28.89,2.51-57.46,1.46-57.46,1.46l-2.58-12.9s44.81,1.45,72.96-4.45c28.14-5.9,38.44-11.03,38.44-11.03"/>
    <path class="cls-16" d="M159.9,521.64c1.25-.22,2.49-.27,3.95-.28,3.53-.04,7.08.39,10.52,1.18,11.93,2.74,22.28,9.89,30.17,19.12,14.85,17.37,20.54,40.1,26.28,61.67s10.35,42.29,13.96,63.75c1.04,6.21,1.99,12.43,2.8,18.68.24,1.9.47,3.8.68,5.7.1.91.06,1.97.29,2.85.03.11.02.25.03.36l.3-.33c-4.73,2.4-9.67,4.42-14.61,6.32-11.03,4.24-22.45,7.64-34.13,9.48-6.81,1.07-13.71,1.49-20.59,1.87-6.5.36-13.02.58-19.53.69-8.01.14-16.03.14-24.03-.1-.28,0-.56-.04-.84-.03-.03,0-.1,0-.13,0,.54.19.15.15.22-.07.1-.35-.23-1.14-.3-1.49l-.49-2.46c-.58-2.91-1.16-5.82-1.75-8.73l-1.18.53c13.13.42,26.32.18,39.43-.54,10.21-.56,20.46-1.44,30.53-3.28s20.82-4.47,30.92-7.65c3.83-1.21,7.79-2.41,11.4-4.21.86-.43-.47-.47-.86-.28-2.5,1.24-5.76,2.32-8.61,3.27-9.77,3.23-19.83,5.66-29.91,7.72s-19.97,2.96-30.02,3.59c-9.22.58-18.45.83-27.69.87-4.76.02-9.53,0-14.28-.15-.24,0-1.27.11-1.18.53.86,4.3,1.72,8.6,2.58,12.9.02.1.19.13.26.14,14.29.52,28.65.27,42.93-.46,11.14-.57,22.17-1.47,33.05-4,9.09-2.11,18-5.01,26.68-8.44,4.39-1.74,8.78-3.57,12.99-5.71.12-.06.31-.17.3-.33-.64-7.62-1.81-15.22-3.01-22.76-3.26-20.44-7.61-40.71-12.72-60.77-1.71-6.7-3.5-13.37-5.39-20.02s-3.66-13-6-19.33c-3.47-9.38-7.97-18.46-13.99-26.48-7.73-10.31-18.19-18.68-30.68-22.3-5.6-1.62-12.01-2.61-17.84-1.66-.09.01-.18.03-.27.04-.62.11-1.26.81-.24.63h0Z"/>
  </g>
  <path class="cls-22" d="M244.11,743.72c-12.95,3.28-21.31,14.88-27.06,26.18-.43.85,1.36.77,1.68.14,5.45-10.72,13.33-22.1,25.67-25.22,1.09-.28.8-1.37-.29-1.09h0Z"/>
  <path class="cls-22" d="M445.23,725.98c-4.17.81-8.06,2.69-11.19,5.58-.28.26-.18.56.18.66.4.11.95-.06,1.25-.34,2.66-2.45,5.97-4.19,9.53-4.87.33-.06.94-.21,1-.62s-.51-.45-.77-.4h0Z"/>
  <path class="cls-22" d="M449.48,793.39c-5.71-1.32-11.78-.17-16.59,3.18-.32.22-.44.64-.1.9.36.27.94.12,1.27-.11,4.15-2.89,9.46-3.93,14.39-2.79.43.1.95.03,1.25-.34.24-.29.19-.74-.22-.84h0Z"/>
  <path class="cls-10" d="M699.69,866.17l8.55,7.58s40.41,1.72,49.47-4.9c9.06-6.62,8.34-49.88,8.34-49.88l61.02-15.46-13.54-77.73-79.76,44.31c-10.33,5.56-18.4,14.6-22.55,25.27l-19.48,34.02c-5.26,13.3-2.13,27.75,7.95,36.79Z"/>
  <polygon class="cls-8" points="756.56 751.81 780.23 820 791.26 816.52 771.21 745.53 756.56 751.81"/>
  <path class="cls-8" d="M756.95,788.79c-6.98-9.34-5.07-22.57,4.27-29.55,9.32-6.97,22.52-5.08,29.51,4.22,7.01,9.32,5.13,22.55-4.18,29.56-9.32,7.01-22.55,5.13-29.56-4.18-.01-.02-.02-.03-.04-.05Z"/>
  <path class="cls-15" d="M764.67,763.85s.03-.02.05-.04c6.94-5.15,16.74-3.69,21.89,3.25,5.15,6.94,3.69,16.74-3.25,21.89-6.94,5.15-16.74,3.69-21.89-3.25-5.13-6.92-3.7-16.7,3.2-21.86Z"/>
  <path class="cls-8" d="M774.54,775.64h0l-1.07,2.32c-2.38-3.36-3.97-7.22-4.65-11.29.35-.64,3.72,3.66,7.26,9.72l1.27,1.7-2.15.47h0c-6.76,1.49-12.34,2.03-12.52,1.18-.18-.85,5.12-2.77,11.86-4.09Z"/>
  <path class="cls-10" d="M748.38,763.53c3.05,1.85,6.52,3.01,10.08,3.29.5.04,1.02.06,1.49-.12.41-.16.74-.47,1.03-.79,3.42-3.87.38-8.25-1.97-11.76-4.47-6.67-11.19-11.9-17.05-17.31-5.58-5.15-11.21-10.25-16.88-15.31-6.85-6.12-13.74-12.2-20.67-18.22-.02-.02-.04-.04-.06-.05-3.39-3.24-7.29-5.92-11.54-7.91-3.04-1.22-17.36-3.77-30.27-5.9-1.73-.29-3.47-.51-5.22-.68-5.6.8-11.23,1.3-16.1,4.57-4.64,3.11-7.8,7.66-10.55,12.42-4.73,8.22-9.27,17.22-10.6,26.72-.54,3.84-.07,3.89,1.33,7.5l1.86,4.2c3.01,3.23,5.85,6.62,8.5,10.16,3.58,4.93,36,17.41,36,17.41,0,0,9.71,1.75,14.93.13,5.22-1.62,6.75-8.4,6.75-8.4,0,0,6.29-.32,9.46-2.42,3.17-2.1,6.12-8.42,6.12-8.42,0,0,3.36,2.68,9.11-1.59,3.28-2.09,4.84-6.06,3.88-9.83,3.61,2.34,7.17,4.78,10.69,7.26,3.24,2.28,6.46,4.61,9.61,7.01,1.51,1.15,3.16,2.26,4.6,3.48,1.38,1.17,2.52,2.53,4.01,3.59.47.34.95.65,1.44.95Z"/>
  <path class="cls-1" d="M1044.5,395.53c-2.22,1.84-4.07,4.23-5.75,6.55-4.73,6.53-8.21,13.92-10.79,21.54-4.3,12.69-6.18,26.12-6.56,39.48-.24,8.59-.24,17.19-.24,25.79,0,10.37.06,20.74.15,31.11.1,11.27.24,22.53.4,33.8s.34,22.04.54,33.06c.17,9.59.36,19.18.55,28.77.15,7.11.3,14.21.46,21.32.05,2.25.1,4.51.15,6.76.03,1.16-.05,2.38.08,3.53.02.15,0,.3.01.45l.61-.54c-1.71.6-3.42,1.21-5.12,1.81-4.67,1.65-9.35,3.31-14.02,4.97-6.93,2.46-13.87,4.93-20.8,7.4-8.58,3.06-17.16,6.13-25.74,9.21-9.53,3.42-19.06,6.85-28.58,10.3-9.79,3.54-19.57,7.1-29.34,10.67s-18.82,6.91-28.22,10.41c-8.32,3.1-16.63,6.22-24.92,9.39-6.63,2.54-13.25,5.1-19.82,7.77-4.23,1.72-8.48,3.43-12.59,5.42-.59.28-1.17.58-1.75.89-.87.47-.08,1.2.63.81,3.35-1.82,6.93-3.25,10.45-4.71,6.03-2.51,12.12-4.89,18.21-7.25,7.92-3.06,15.86-6.07,23.82-9.05,9.19-3.44,18.4-6.85,27.61-10.23,9.74-3.58,19.48-7.13,29.23-10.66s19.3-6.98,28.96-10.45c8.83-3.17,17.65-6.34,26.49-9.49,7.41-2.65,14.82-5.28,22.23-7.92,5.26-1.87,10.52-3.73,15.78-5.6,2.48-.88,4.96-1.75,7.44-2.63.11-.04.21-.08.32-.11.21-.07.61-.25.61-.54-.06-2.34-.11-4.68-.16-7.01-.14-6.23-.28-12.45-.41-18.68-.19-9.05-.37-18.09-.54-27.14-.2-10.72-.39-21.44-.55-32.16s-.33-22.42-.45-33.63c-.11-10.68-.2-21.36-.23-32.04-.02-8.94-.01-17.87.11-26.81.17-12.59,1-25.12,4.01-37.39,2.25-9.18,5.61-18.19,10.57-26.26,2.2-3.59,4.73-7.11,7.81-9.99.24-.22.05-.06.32-.28.76-.63-.41-1.07-.95-.62h0Z"/>
  <path class="cls-1" d="M1134.98,696.97c-1.71,6.49-4.23,12.84-7.04,18.92-5.32,11.52-12.46,23.08-22.87,30.65-4.32,3.14-9.23,5.11-14.18,6.99-4.64,1.76-9.34,3.33-14.08,4.8-11.27,3.5-22.71,6.43-34.2,9.11-13.18,3.08-26.43,5.82-39.72,8.37-13.91,2.67-27.86,5.13-41.83,7.45-13.75,2.29-27.51,4.45-41.29,6.52-12.47,1.88-24.95,3.68-37.44,5.45-10.28,1.45-20.56,2.87-30.83,4.31-7,.98-14,1.94-20.98,3.05-1.11.18-2.22.36-3.33.55-.65.11-1.23.88-.22.71,6.11-1.06,12.26-1.9,18.39-2.77,9.68-1.37,19.37-2.71,29.06-4.06,12.21-1.71,24.42-3.45,36.61-5.26,13.7-2.03,27.39-4.13,41.06-6.35,14.16-2.3,28.3-4.73,42.4-7.35,13.55-2.52,27.08-5.21,40.54-8.22,12.01-2.68,23.98-5.6,35.79-9.03,9.45-2.75,18.94-5.74,27.94-9.76,11.88-5.32,20.33-16.18,26.52-27.28,4.5-8.07,8.13-16.72,10.74-25.58.14-.48.28-.96.41-1.44.12-.45-1.32-.24-1.44.21h0Z"/>
  <path class="cls-1" d="M1024.15,648.15c3.78,1.26,7.47,2.86,11.07,4.56,6.83,3.24,13.7,7.16,19.08,12.54,2.82,2.82,5.26,6.15,6.27,10.06.17.66,1.62.27,1.45-.39-1.87-7.25-8.22-12.6-14.19-16.6-5.81-3.9-12.17-7-18.67-9.59-1.38-.55-2.77-1.09-4.17-1.56-.61-.2-1.7.68-.84.96h0Z"/>
  <path class="cls-1" d="M661.87,659.48c1.06-.27,2.37-.5,3.67-.7,3.25-.5,6.54-.74,9.82-.77,9.93-.07,19.98,2.01,28.68,6.9,6.2,3.49,11.5,8.34,15.69,14.07.27.37,1.58-.2,1.45-.39-7.19-9.83-17.45-16.59-29.27-19.45-8.17-1.98-16.76-2.23-25.07-1.1-1.71.23-3.43.51-5.1.94-.85.22-.72.72.13.5h0Z"/>
</svg>