<?xml version="1.0" encoding="UTF-8"?>
<svg id="Layer_1" data-name="Layer 1" xmlns="http://www.w3.org/2000/svg" xmlns:xlink="http://www.w3.org/1999/xlink" viewBox="0 0 1334 1000">
  <defs>
    <style>
      .cls-1 {
        fill: #131429;
      }

      .cls-2 {
        fill: #040404;
      }

      .cls-3 {
        fill: none;
        stroke: #4f2e25;
        stroke-width: .75px;
      }

      .cls-3, .cls-4 {
        stroke-miterlimit: 10;
      }

      .cls-5 {
        fill: #101931;
      }

      .cls-6 {
        fill: #f39720;
      }

      .cls-7 {
        fill: #010101;
      }

      .cls-8 {
        fill: #5f6161;
      }

      .cls-9 {
        fill: #222323;
      }

      .cls-10 {
        fill: url(#linear-gradient-2);
      }

      .cls-11 {
        fill: #653c29;
      }

      .cls-12 {
        fill: #231f20;
      }

      .cls-13 {
        fill: #c9c1a1;
      }

      .cls-14 {
        fill: #715446;
      }

      .cls-15 {
        fill: #27153c;
      }

      .cls-16 {
        fill: #100f0e;
      }

      .cls-17 {
        fill: #f1eef7;
      }

      .cls-18 {
        fill: #181311;
      }

      .cls-19 {
        fill: #a66e53;
      }

      .cls-20 {
        fill: #f29721;
      }

      .cls-21 {
        fill: #0a2f44;
      }

      .cls-22 {
        fill: #9a5c26;
      }

      .cls-23 {
        fill: url(#linear-gradient);
        opacity: .5;
      }

      .cls-24 {
        fill: #3d3d3d;
      }

      .cls-25, .cls-4 {
        fill: #fff;
      }

      .cls-26 {
        fill: #a3a3a3;
      }

      .cls-27 {
        fill: #0f0b0a;
      }

      .cls-28 {
        fill: #f2ebd1;
      }

      .cls-29 {
        fill: #24180f;
      }

      .cls-30 {
        fill: #628e9f;
      }

      .cls-31 {
        fill: #bb997a;
      }

      .cls-32 {
        fill: #825639;
      }

      .cls-33 {
        fill: #343535;
      }

      .cls-34 {
        fill: #381c13;
      }

      .cls-4 {
        stroke: #231f20;
        stroke-width: .47px;
      }

      .cls-35 {
        fill: #a38166;
      }

      .cls-36 {
        fill: #29305e;
      }

      .cls-37 {
        fill: #87654d;
      }

      .cls-38 {
        fill: #331f17;
      }

      .cls-39 {
        fill: #4f2e25;
      }

      .cls-40 {
        fill: #11131f;
      }
    </style>
    <linearGradient id="linear-gradient" x1="1934.95" y1="5272.87" x2="2994.38" y2="5272.87" gradientTransform="translate(5941.73 -1943.85) rotate(90)" gradientUnits="userSpaceOnUse">
      <stop offset="0" stop-color="#f0ebe0"/>
      <stop offset=".18" stop-color="#eee8dd" stop-opacity=".99"/>
      <stop offset=".33" stop-color="#e8e1d4" stop-opacity=".97"/>
      <stop offset=".46" stop-color="#ded4c5" stop-opacity=".93"/>
      <stop offset=".59" stop-color="#d0c2b0" stop-opacity=".88"/>
      <stop offset=".72" stop-color="#bdab95" stop-opacity=".82"/>
      <stop offset=".84" stop-color="#a78e73" stop-opacity=".73"/>
      <stop offset=".96" stop-color="#8d6d4d" stop-opacity=".64"/>
      <stop offset="1" stop-color="#83603d" stop-opacity=".6"/>
    </linearGradient>
    <linearGradient id="linear-gradient-2" x1="5760.47" y1="497.92" x2="5763.06" y2="169.05" gradientTransform="translate(-5356.58 973.26) scale(1 -1)" gradientUnits="userSpaceOnUse">
      <stop offset="0" stop-color="#29305e" stop-opacity="0"/>
      <stop offset=".24" stop-color="#212554" stop-opacity=".38"/>
      <stop offset=".51" stop-color="#1b1c4b" stop-opacity=".72"/>
      <stop offset=".77" stop-color="#171645" stop-opacity=".93"/>
      <stop offset="1" stop-color="#161544"/>
    </linearGradient>
  </defs>
  <polyline class="cls-28" points="-34.67 1032.13 -34.67 -24.34 1372.37 -24.34 1372.37 1032.13"/>
  <polyline class="cls-23" points="-34.67 1047.04 1372.37 1047.04 1372.37 -12.39 -34.67 -12.39"/>
  <polyline class="cls-14" points="1370.08 1070.05 -28.68 1070.05 -28.68 946.18 1370.08 946.18"/>
  <path class="cls-14" d="M973.86,926.25c-7.44,4.74-15.55,8.41-24.03,10.83-2.14.61-4.3,1.14-6.47,1.6-2.08.43-4.19.75-6.27,1.17-3.56.73-7.49,1.89-9.8,4.9-2.1,2.74-2.9,6.93-.32,9.62.18.19,1.14.12.87-.16-2.35-2.46-1.67-6.33.11-8.9,2.23-3.24,6.26-4.43,9.93-5.16,4.06-.81,8.11-1.49,12.11-2.61,4.13-1.16,8.19-2.61,12.12-4.33,4.37-1.92,8.58-4.17,12.6-6.73.31-.19-.62-.39-.85-.25h0Z"/>
  <rect class="cls-36" x="337.05" y="69.65" width="133.8" height="874.13" transform="translate(807.89 1013.42) rotate(-180)"/>
  <rect class="cls-10" x="337.08" y="69.71" width="133.8" height="833.84" transform="translate(807.95 973.26) rotate(-180)"/>
  <path class="cls-19" d="M835.77,270.03l-4.7-9.59s-.82-10.92-2.24-14.38c-1.41-3.47-10.54-15.24-11.15-15.63s-4.15-18.71-7.64-18.96c-3.5-.25-6.37,1.59-6.47,6.31-.11,4.72,5.28,15.44,2.87,16.44-1.9.64-3.91.9-5.91.77,0,0,.28-5.39-2.17-7.71-2.44-2.33-6.33-.31-6.33-.31l-.6,2.22-2.21-3.22s-.54-11.07-5.01-12.06c-.52-2.5-1.55-4.87-3.03-6.95-1.4-1.68-3.89-1.9-5.57-.5-.29.25-.55.53-.76.85h0l2.53,25.4,16.41,29.42s11.97,7.37,14.32,9.2l4.7,9.59,1.84-.52c7.7-2.16,17.28-.43,19.87-8.75l1.23-1.62Z"/>
  <path class="cls-39" d="M806.73,234.54c.02.05-.02.18-.02.19.02-.06-.09.13-.03.05-.12.15.01,0,.08-.05.15-.11-.14.07.05-.03.05-.03.1-.05.15-.08.12-.06.24-.11.36-.16.54-.21,1.32-.36,1.97-.4s1.38,0,2.04.16c.21.05.55.17.67.23-.03-.02.11.09.15.1.05.02-.05-.09-.03-.02-.02-.04-.04-.19-.05-.16-.12.74,1.36.57,1.47-.1.1-.59-.81-.89-1.23-1.01-.98-.29-2.02-.37-3.04-.28s-1.98.3-2.88.71c-.42.19-1.31.64-1.13,1.24.2.68,1.65.29,1.45-.39h0Z"/>
  <path class="cls-30" d="M928.71,239.92s-30.57,18.74-39.87,29.34c-11.89,13.55-17.29,98.6-21.62,113.4-4.33,14.8-3.95,17.8-3.95,17.8l47.67,12.83,22.75-71.73-3.18-92.55-1.8-9.08Z"/>
  <path class="cls-30" d="M902.04,401.66s-21.16-21.68-21.32-30.62c-.11-5.97,8.45-3.83,8.69-9.8l-30.45-52.07c-1.73-3.92-25.76-49.1-26.94-48.09l.18,3.13c-4.6,4.75-15.33,9.6-22,10.04l-3.93,1.08c-1.75,1.06,17.12,46.24,18.23,49.99,4.71,16.04,19.46,54.74,22.34,63.47,4.06,12.35,18.29,28.88,33.29,28.33,10.5-.39,15.79-6.59,21.93-15.45Z"/>
  <path class="cls-39" d="M805.01,259.95c-.2-2.03-.66-4.07-1.27-6.01-.51-1.66-1.17-3.29-2.04-4.79-.44-.76-1.09-1.4-1.52-2.15-.25-.43-.17-.17-.16-.64.02-1.01.27-2.05.38-3.06.17-1.53.3-3.07.37-4.61.15-3.16.12-6.32-1.14-9.28-.53-1.25-1.32-2.43-2.61-2.98-1.46-.61-3.14-.4-4.65-.16-.18.03-.84.16-.87.43-.31,3.08-.63,6.16-.94,9.25-.22,2.15-.44,4.29-.65,6.44-.11,1.07-.34,2.2-.33,3.28,0,1.59.37,3.26.55,4.84.03.23,1.49-.04,1.45-.39-.18-1.56-.53-3.19-.54-4.76-.01-.86.17-1.76.25-2.62.43-4.28.87-8.56,1.3-12.83.12-1.2.24-2.39.36-3.59l-.87.43c1.49-.24,3.14-.32,4.41.64,1.12.85,1.68,2.26,2.11,3.55.92,2.77.85,5.72.69,8.6-.13,2.4-.63,4.81-.73,7.21-.03.91,1.02,1.71,1.5,2.5.85,1.4,1.5,2.92,2.02,4.48.71,2.13,1.24,4.37,1.46,6.61.02.22,1.48-.04,1.45-.39h0Z"/>
  <path class="cls-39" d="M788.8,237.21c.38-3.15.63-6.32.75-9.49.08-2.23.11-4.47-.12-6.69-.21-2.09-.9-3.74-1.97-5.55-1.38-2.32-3.2-3.1-5.86-2.78-.32.04-.76.22-.8.6-.52,6.14-1.04,12.27-1.56,18.41-.06.76,1.41.57,1.47-.1.52-6.14,1.04-12.27,1.56-18.41l-.8.6c1.4-.17,2.69-.13,3.7.98.93,1.02,1.66,2.45,2.19,3.72.87,2.1.78,4.68.77,6.91-.02,3.98-.32,7.97-.8,11.92-.09.76,1.39.57,1.47-.1h0Z"/>
  <path class="cls-18" d="M877.54,938.85s-2.49,2.59-1.12,7.11c1.37,4.52,29.84-.04,39.68,1.1,9.84,1.14,49.19,5.69,58.86,3.5,9.67-2.19.75-13.44.75-13.44l-98.16,1.74Z"/>
  <path class="cls-19" d="M981.2,912.66c-1.37,4.3.16,13.97,1.33,18.81,1.35,5.57-1.37,9.75-8.09,12.06-5.65,1.93-8.53,1.8-14.63,1.47-7.97-.44-16.47-1.83-24.45-2.27-6.84-.37-28.31-2.18-35.04-1.14-10.46,1.62-13.88.19-18.49-1.35-1.28-.42-2.08-.37-2.66-1.26-1.52-2.32-1.3-4.86,2.15-6.77,4.36-2.42,6.51,1,10.58-1.86.73-.51,1.4-1.08,2.23-1.44,1.63-.71,3.59-.53,5.43-.5,9.2.15,8.54-3.48,20.63-6.21,3.55-.8,26.47-11.53,29.77-12.89"/>
  <path class="cls-27" d="M1040.38,943.16s1.92,1.76,2.01,8c.13,8.36-29.6,7.8-36.85,8.36-7.24.57-30.36,5.53-46.67,6-16.31.48-34.38-4.43-34.44-13.95-.03-5.15.39-7.15,3.89-8.42s101.46-5.04,101.46-5.04l10.59,5.04Z"/>
  <path class="cls-19" d="M1030.29,907.42c-.49,5.22,3.15,10.86,7.02,21.28,1.96,5.27,3.9,14.29-1.55,17.66-6.47,4.01-21.33,2.3-25.6,3.24-8.99,1.97-16.55-.8-25.19,1.84-8.76,2.68-.06,1.5-9.67,2.02-1.33.07-10.09,4.99-11.23,4.41-.77-.39-2.85.08-3.62-.31-2.73-1.36-6.18.4-9.3,0-1.38-.18-2.62-.78-3.9-1.25-3.37-1.25-7.07-1.68-10.64-2.42-3.57-.74-7.21-1.89-9.68-4.23-2.47-2.33-3.39-6.12-1.23-8.67,3.26-3.85,7.43-1.56,11.82-1.9,4.38-.34,6.04-.99,9.92-2.66,9.91-4.24,11.44-5.11,19.8-8.43,6.48-2.57,24.48-8.81,33.64-14.7l-1.51-8.43"/>
  <g>
    <path class="cls-39" d="M959.05,956.55c-.82-.22-1.22-1.07-1.34-1.85-.12-.79.08-1.57.52-2.24.46-.71,1.13-1.26,1.82-1.71.79-.52,1.65-.94,2.52-1.32s1.84-.75,2.75-1.13c.19-.08.32-.25.26-.46-.05-.18-.27-.34-.46-.26-1.84.76-3.75,1.42-5.43,2.51-1.6,1.04-3,2.62-2.73,4.66.15,1.1.75,2.22,1.89,2.53.47.13.67-.6.2-.72h0Z"/>
    <path class="cls-39" d="M949.77,956.53c-2.05-.02-1.92-3.04-1.65-4.44.08-.39.2-.85.35-1.17.27-.58.74-1.09,1.22-1.51,1.17-1.03,2.65-1.54,4.09-2.05.85-.3,1.66-.7,2.5-1.03s1.69-.63,2.58-.59c.48.02.48-.73,0-.75-1.74-.07-3.36.91-4.93,1.52-.8.31-1.62.55-2.4.9-.76.34-1.49.75-2.14,1.28-.58.47-1.17,1.07-1.51,1.74-.21.42-.35.87-.45,1.33-.24,1.09-.3,2.27-.04,3.36.29,1.19,1.09,2.14,2.38,2.15.48,0,.48-.74,0-.75h0Z"/>
    <path class="cls-39" d="M943.32,954.39c-1.13-.4-1.7-1.63-1.87-2.74s.1-2.17.68-3.1c1.24-1.96,3.55-3.15,5.64-3.98.62-.24,1.24-.46,1.88-.66.74-.23,1.49-.5,2.25-.64.47-.09.27-.81-.2-.72-.74.14-1.46.4-2.18.62-.61.19-1.21.39-1.8.63-1.24.48-2.45,1.05-3.56,1.79-2.06,1.38-3.82,3.47-3.46,6.1.2,1.45.98,2.91,2.42,3.43.46.16.65-.56.2-.72h0Z"/>
    <path class="cls-39" d="M936.85,953.15c-1.43-.63-2.51-1.89-2.98-3.38-.4-1.27-.4-2.67.39-3.78.74-1.03,1.89-1.75,2.99-2.33,1.21-.64,2.49-1.15,3.78-1.6.63-.22,1.27-.41,1.91-.63.81-.27,1.72-.78,2.6-.7.48.04.48-.71,0-.75-.84-.07-1.69.33-2.45.61-.63.23-1.27.42-1.91.63-1.41.48-2.81,1.01-4.13,1.7-1.23.63-2.46,1.42-3.31,2.52-.91,1.18-1.05,2.67-.71,4.09.43,1.83,1.71,3.5,3.45,4.26.44.19.82-.45.38-.65h0Z"/>
  </g>
  <path class="cls-3" d="M981.01,922.73s-32.91,15.39-43.48,16.37l-4.38-.3s-4.64-.69-6.4.33c0,0-1.72.79-1.72,2.91"/>
  <path class="cls-38" d="M967.33,957.77s3.39-7.81-16.98-16.34c-12.41-5.2-17.13-5.31-17.13-5.31,0,0,13.45-1.74,24.08-5.68,9.24-3.43,15.58-9.08,18.69-9.7,0,0,13.15,20.31,34.04,30.49l-42.7,6.54Z"/>
  <path class="cls-38" d="M911.55,942.04s11.61-1.02-8.75-9.55c-12.41-5.2-17.13-6.31-17.13-6.31,0,0,18.45-.74,29.08-4.68,9.24-3.43,15.58-9.08,18.69-9.7,0,0,13.15,17.31,34.04,27.49l-55.92,2.75Z"/>
  <rect class="cls-26" x="647.72" y="909.3" width="29.66" height="17.85" transform="translate(1316.94 1842.3) rotate(-179.49)"/>
  <g>
    <path d="M637.18,939.94s-4.16,5.54-2.75,8.24c1.41,2.7,14.69,3.45,18.16,3.82,3.48.38,48.52,5.7,53.01,5.8,4.48.1,28.62-.98,32.11-6.09,0,0,5.92-8.61-2.13-11.61-8.05-3-14.07-1.95-21.6-5.68-7.53-3.73-15.73-9.57-22.89-17.42,0,0-7.28-6.39-10.8-5.43-3.52.96-7.55,7.53-10.42,9.1-2.87,1.56-16.56,3.5-20.01-3.1-3.45-6.6-4.47-4.1-7.16-3.16-2.69.94-7.27,12.44-6.27,17.8,1,5.36.76,7.72.76,7.72Z"/>
    <path class="cls-28" d="M684.27,919.9l-.04-.05c-.33-.36-.08-1.04.56-1.5l4.62-3.35c.64-.47,1.44-.55,1.77-.19l.04.05c.33.36.08,1.04-.56,1.5l-4.62,3.35c-.64.47-1.44.55-1.77.19Z"/>
    <path class="cls-28" d="M689.5,922.53l-.13-.13c-.24-.25.04-.81.61-1.23l3.43-2.51c.58-.42,1.25-.56,1.49-.31l.13.13c.24.25-.04.81-.61,1.23l-3.43,2.51c-.58.42-1.25.56-1.49.31Z"/>
    <path class="cls-28" d="M693.81,925.04l-.21-.23c-.22-.23.03-.72.55-1.1l2.45-1.79c.52-.38,1.12-.5,1.34-.28l.21.23c.22.23-.03.72-.55,1.1l-2.45,1.79c-.52.38-1.12.5-1.34.28Z"/>
    <path class="cls-28" d="M697.27,927.7l-.25-.27c-.25-.27-.03-.8.49-1.18l2.46-1.79c.52-.38,1.15-.47,1.4-.2l.25.27c.25.27.03.8-.49,1.18l-2.46,1.79c-.52.38-1.15.47-1.4.2Z"/>
  </g>
  <path class="cls-19" d="M1001.45,176.45s-4.02,29.9,2.01,46.96c.97,2.74,15.06,9.56,15.06,9.56l-3.88,4.46c-3.35,3.85-9.87,7.09-14.57,9.08-23.39,9.93-56.58,12.76-67.5-1.56l5.82-9.79s3.94-3.55,4.63-6.9c.69-3.35-3.53-29.45-3.53-29.45"/>
  <path class="cls-32" d="M1003.2,188.52c0,.06,0,.12,0,.18.02-.08.03-.14,0-.18Z"/>
  <path class="cls-19" d="M961.86,225.33l-20.22-.23-10.16-2.03c-1.03.05-5.75-10.2-6.48-11.49-2.27-4.02-5.24-9.29-6.69-13.68-1.55-4.71-4.66-8.75-5.52-14.44-.64-4.17-.73-7.1,1.34-13.98.53-1.75.5-3.48.02-5.32-1.01-3.9-1.46-8.47-2.7-13.7-.1-.41-.63-2.39-.48-2.85,0,0-1.51-21.88,2.24-29.82,3.75-7.94,9.56-11.69,15.29-13.32,5.73-1.64,22.45-5.05,22.45-5.05h23.72s20.24,9.34,20.24,9.34l10.79,23.99-.71,28.2-2.33,25.24"/>
  <path d="M998.25,159.04c-.06,2.18-2.5,13.1-2.69,15.23l11.25-.5c3.2-7.55,7.06-16.43,8.29-18.46,1.94-3.17-4.22-18.52-4.25-24.23v-1.23c-.01-5.48-5.46-14.03-14.59-22.89-15.69-15.25-14.94-15.44-38.5-13.17-1.62.16-3.24.37-4.8.64-14.78,2.57-27.17,2.65-36.33,15.31-6.6,9.13-1.71-2.26-.99,3.97-.77-.69-2-2.11-.76-3.59,7.24-8.65,11.14.29,14.78-.34,3.17-.55,5.58.24,6.06.42,3.63.72,7.09.17,10.88-.49,2.83-.49,9.96-2.29,10.57-2.44,1.88-1.38.04-8.74,3.55-9.35,8.15-1.41,19.42,1.91,23.41,3.65,4.72,2.05,16.01,6.48,14.76,19.04"/>
  <path d="M933.6,220.35c.14-.02.27-.07.38-.15,2.11-1.48,2.25-2.29,3.3-2.57.24-.06.36-.16,1.11-.28,3.02-.51,4.85-.88,13.12,4.05.17.1,10.77-1.55,10.97-1.57l5.42-2.75c.9-.59,20.99-18.5,20.99-18.5.29-.59,3.9-4.81,4.03-5.37.06-.03.12-.07.19-.1.02,0,.08-.03.13-.06.01.04.02.08.03.11.04.24.04.48.04.72-.02,1.04-.2,2.06-.48,3.07-.43,1.54-.67,3.1-1.04,4.65-.13.55-.29,1.08-.47,1.61-2.3,1.52-16.7,20.73-25.09,25.19-.55.16-2.27.7-6.9,1.22-8.69.98-17.11,1.2-25.75-1.05-2.26-.59-4.1-2.13-5.06-4.18-2.73-5.85-8.76-18.87-10.4-27.68,2.52,5.06,7.84,15.91,11.5,23.29.11.22,3.43.31,3.7.39"/>
  <path class="cls-19" d="M1000.23,189.11c6.52,8.84,10.73-6.53,10.73-6.53,6.06-7.88,5.73-16.01,5.28-21.57-.45-5.55-6.56-5.23-6.56-5.23-5.17.77-7.39,3.65-11.04,21.34"/>
  <path d="M932.82,104.71c8.45-.34,30.49-6.69,41.93-7.68,4.74-.41,20.77,10.97,22.88,13.6,4.84,6.02-5.69,20.34,2.86,39.69,2.83,6.39,6.32-4.99,9.8-.85s4.81,5.83,4.81,5.83c2.07-18.76,2.01-18.1-2.54-36.47-4.54-18.32-24.81-25.92-34.57-27.24-9.76-1.33-40.9,2.47-49.24,6.59"/>
  <path d="M957.94,158.35c1.26-.73,2.8-.22,3.68.49.21.17.76.65,1.05,1.48.37,1.07-.01,2.32-.66,3.1-.87,1.04-2.37,1.28-3.56.79-1.61-.67-2.21-2.54-1.88-3.94.06-.26.35-1.34,1.37-1.93"/>
  <path d="M920.69,160.28c-1.32-.61-2.81.04-3.62.82-.19.18-.7.71-.91,1.57-.27,1.1.22,2.31.93,3.03.95.96,2.48,1.06,3.62.47,1.55-.81,1.97-2.73,1.52-4.1-.08-.25-.47-1.3-1.54-1.79"/>
  <path d="M931.66,164.69s-5.44-4.97-9.26-5.15c-5.58-.26-6.95,1.05-8.8,3.69,0,0,3.52-2.82,7.44-2.53,3.75.28,10.62,3.99,10.62,3.99Z"/>
  <path d="M949.65,162.53s7.57-5.26,11.38-5.53c5.57-.39,12.36,2.6,14.28,5.19,0,0-8.98-4.45-12.89-4.06-3.74.37-12.77,4.41-12.77,4.41Z"/>
  <path d="M947.47,141.46c-.08,1.32-.15,2.65-.23,3.98-.06,1.01-.26,3.32-.31,4.33,3.24-.66,6.19-1.77,8.27-2.01,4.13-.48,8.37-1.26,12.47-.36,1.96.43,3.67,1.04,5.26,2.16.5.35,1.82,1.84,2.62,1.52.33-.13-.1-1.79-.14-1.96-.87-3.35-3.58-4.89-6.95-5.88-6.86-2.02-13.87-2.26-21-1.79"/>
  <path d="M910.2,146.26s2.26-.65,2.28-.66c6.33-1.86,12.78-1.96,19.33-1.33.05,1.33.11,2.65.16,3.99.04,1.01.17,2.84.21,3.85-2.97-.73-5.55-1.64-7.46-1.93-3.79-.57-7.78-1.22-11.56-.42-.3.06-1.91.43-2.2.51-1.28-1.78-1.28-3.71-.76-4.02Z"/>
  <path d="M949.93,206.07l-14.35-.1s3.62,5.4,7.12,5.25c2.18-.1,5.01-2.58,7.23-5.15Z"/>
  <g>
    <path class="cls-7" d="M936.94,186.3c1.67.8,4.15.48,5.74-.63.35-.25,1.58-.08,1.08.27-2.11,1.47-5.67,1.76-7.83.73-.21-.1-.18-.27.07-.37.27-.11.7-.11.93,0"/>
    <path class="cls-7" d="M944.46,185.43c1.07-.58,2.29-.91,3.51-1.07.18-.02.41.04.55.15.11.09.14.22,0,.3-.55.36-1.27.53-1.93.55-.21,0-.49-.04-.61-.21-.12-.16.08-.28.24-.29.55-.01,1.1-.15,1.56-.44.19.15.37.3.56.45-1.09.14-2.18.45-3.14.96-.19.1-.47.05-.65-.04-.13-.07-.28-.25-.09-.36"/>
    <path class="cls-7" d="M949.33,185.36c1.43-.1,3.09-.82,3.75-1.95.99-1.72-.12-4.26-1.96-5.24-.2-.11-.1-.26.09-.31.26-.07.56.02.77.13,1.6.86,2.71,2.93,2.55,4.5-.15,1.47-1.48,2.56-3.18,3.06-.51.15-1.05.26-1.58.3-.22.01-.61-.03-.73-.2-.12-.17.08-.26.28-.27"/>
    <path class="cls-7" d="M934.28,185.67c.07-.17-.08-.28-.19-.27-.39.03-.79-.07-1.13-.32-.12.16-.24.33-.36.49.78.05,1.57.28,2.28.72.14.09.34.02.46-.09.09-.08.18-.27.04-.36"/>
    <path class="cls-7" d="M935.38,185.83c-.8-.5-1.68-.74-2.56-.79-.13,0-.29.07-.38.19-.07.1-.08.23.02.3"/>
    <path class="cls-7" d="M931.31,186c-.94,0-2.06-.59-2.57-1.67-.77-1.64-.21-3.65.91-4.77.12-.12.05-.27-.08-.31-.17-.05-.36.06-.49.18-.97.98-1.56,2.51-1.34,4.07.21,1.46,1.15,2.44,2.28,2.81.34.11.7.18,1.05.18.14,0,.39-.08.45-.26.06-.18-.07-.25-.2-.25"/>
  </g>
  <path d="M928.41,108.34c.6-.53,1.55-.73,2.45-.91l.96-.33c2.85-.11,5.7-.13,8.54-.06.72.02,1.46.04,2.09.29.07.03.13.06.2.09,2.11-.13,4.22-.24,6.33-.29l.97.23c.9.1,1.86.22,2.49.65.63.43.66,1.26-.16,1.55-.86.29-2.15-.13-2.73.37-.64.56.63,1.32.26,1.97-.23.41-.99.56-1.48.86-.58.36-.77.92-1.31,1.3-.56.39-1.48.54-2.23.35-.8.08-1.88-.21-2.12.34-.06.15-.02.31,0,.46.05.61-.44,1.23-1.17,1.49-.74.26-1.67.16-2.26-.26-.57-.4-.79-1.04-1.39-1.41-.19-.12-.42-.21-.64-.3-.19.19-.44.35-.73.45-.74.26-1.67.16-2.26-.26-.57-.4-.79-1.04-1.39-1.41-.51-.31-1.27-.44-1.54-.89-.41-.72.81-1.69.13-2.28-.62-.54-1.88.03-2.75-.25-.84-.27-.86-1.24-.26-1.77Z"/>
  <path d="M950.14,222.65c-.52.39-1.3.49-2.03.57l-.79.21c-2.31-.1-4.61-.27-6.9-.5-.58-.06-1.17-.13-1.67-.37-.05-.03-.1-.06-.15-.09-1.71-.03-3.42-.08-5.12-.18l-.77-.25c-.72-.14-1.49-.3-1.97-.69-.48-.38-.45-1.06.23-1.24.71-.18,1.72.24,2.23-.13.55-.41-.42-1.11-.08-1.61.22-.31.84-.39,1.25-.6.49-.25.68-.69,1.14-.96.47-.28,1.23-.34,1.82-.14.65-.02,1.5.29,1.73-.14.06-.12.04-.25.04-.37,0-.49.43-.96,1.04-1.13.61-.17,1.36-.02,1.8.35.43.36.57.89,1.03,1.23.15.11.32.19.49.28.17-.14.38-.25.62-.32.61-.17,1.36-.02,1.8.35.43.36.57.89,1.03,1.23.39.29,1,.43,1.18.82.29.61-.76,1.31-.25,1.84.46.48,1.52.1,2.2.38.66.27.61,1.05.09,1.44Z"/>
  <path d="M1014.03,156.49c.86-.05,1.77-.11,2.51-.56.74-.45,1.24-1.41.88-2.2-.57-1.24-2.87-1.44-2.74-2.8,1.11-1.35,3.8-.85,4.42-2.48.5-1.32-.92-2.52-2.14-3.23.84-.82.6-.08,1.73-.38,1.14-.3,1.75-3.06,1.09-4.04-.74-1.1-1.13-.2-.72-1.47.91-.29-1.1-1.04-.41-1.71s1.02-1.78.51-2.58c-.62-.96-.51-1.69-.5-2.83,0-.98-1.91-1.13-1.33-1.92,1.05-1.44-.4-3.34-1.73-4.51.77-.53-.18-.68.31-1.48.48-.8.57-1.93-.07-2.62-.39-.42-.96-.62-1.41-.97-1.86-1.45-.78-4.4.45-6.42-1.64.17-3.3-1.1-3.56-2.73-.12-.77.03-1.58-.26-2.31-.29-.72-1.34-1.21-1.83-.6"/>
  <path d="M1009.95,112.43c-.24-1.04-1.25-5.98-1.49-7.01-1.3.52-2.97-.53-3.05-1.93-.04-.7.18-1.58-.4-1.98-.59-.41-1.38.13-2.1.11-1.6-.06-1.84-2.65-3.35-3.19-.94-.34-2.02.27-2.97-.02-1.45-.45-1.7-2.61-3.09-3.2-.97-.41-2.1.11-3.11-.16-2.19-.58-2.98-3.8-5.25-3.81-.83,0-1.6.57-2.43.5-1.48-.12.71-1.69-.76-1.88-1.35-.18-2.42,1.26-3.78,1.42-2.21.26-3.72-3.42-5.77-2.56-.88.37-1.35,1.38-2.22,1.79-2.02.95-4.16-1.96-6.32-1.42-1.09.27-1.86,1.36-2.97,1.52-1.73.24-3.08-1.89-4.81-1.74-1.38.12-2.39,1.66-3.78,1.59-.97-.05,1.41-1.14.44-1.27-1.64-.22-2.85,1.6-4.47,1.96-1.36.3-2.69-.48-4.04-.8-1.35-.32-4.29,2.34-4.33,3.73"/>
  <path d="M987.58,99.62c8.09,3.1,11.41,5.93,15.44,13.6l-46.27-15.82c3.37-.73,6.72-1.2,9.98-1.09,8.66.29,12.76.2,20.85,3.3Z"/>
  <path d="M921.34,100.59c.22-.1.45-.21.66-.32,1.09-.6,1.93-2.24.93-2.98,2.23.89,3.82-2.97,6.22-2.95.69,0,1.33.35,2.01.46,1.77.29,3.59-1.34,3.5-3.14,1.75.95,3.87,1.18,5.78.61l16.32,5.13c-7.15,1.54-14.41,4.25-21.27,5.14-3.31.43-6.67.97-9.62,2.52-2.15,1.13-4.89,1.76-7.1,2.96.85-2.48,1.69-4.97,2.58-7.44Z"/>
  <path d="M921.45,206.38c.55,2.12.57,4.36,1.71,6.23-.79.26-.46,1.48.16,2.03.62.55,1.47,1.15,1.3,1.96-.06.28-.25.52-.3.81-.17.89.92,1.44,1.8,1.67-.6.46-.09,1.42.5,1.89s1.35,1.06,1.15,1.79c-.1.36-.43.65-.42,1.02.02.78,1.29.77,1.71,1.42.24.38.14.87.24,1.31.22.9,1.48,1.33,2.2.74.18,1.57.85,3.6,2.43,3.52.98-.05,1.91-.99,2.8-.59.55.25.8.91,1.31,1.24,1.72,1.1,3.84-2.5,5.56-1.39.92.59.89,2.21,1.93,2.56.98.33,1.85-.81,2.88-.92,1.12-.12,2.26,1,3.26.48.43-.23.67-.7,1.04-1.02.85-.73,1.7.37,2.77.7,1.91.59,2.08-.78,2.08-.78.56-1.34,1.31-1.24,2.57-.53.42.24.81.6,1.29.62,1.18.05,1.73-1.88,2.9-1.78.43.04.78.36,1.17.54,1.43.66,3.19-1.25,2.42-2.62,1.79.02,3.38-1.76,3.16-3.54,1.67.55,3.67-.84,3.73-2.59,1.96.54,4.03-1.79,3.27-3.67,1.37.52,3.07-.7,3.03-2.17-.02-.75-.35-1.7.28-2.12.41-.28.96-.09,1.46-.1,1.2-.01,2.12-1.5,1.59-2.58,1.94.48,3.74-2.23,2.55-3.83,1.53.34,2.91-1.78,1.98-3.05,2.1-.07,3.52-2.87,2.34-4.61l-24.26,24.93-6.26,2.85s-22.17,2.02-26.36.13c-4.19-1.89-12.99-20.55-12.99-20.55Z"/>
  <path d="M957.77,99.38l22.03-3.03,18.09,10.89,6.7,22.94-4.32,17.85h0l-2.17,26.66c-.62.07-1.25.13-1.87.2-.19.02-.41.04-.57-.06-.41-.25-.18-.88-.05-1.35.3-1.09-.31-2.19-.79-3.22-.47-1.03-.79-2.35-.05-3.2.39-.45,1.06-.75,1.13-1.34.09-.77-.87-1.18-1.39-1.76-.81-.91-.31-2.6.86-2.93,0,0-1.36-1.49-.86-4.44.49-2.95,1.37-6.1,1.37-6.1h0c-.18-.21-.35-.43-.48-.67-.92-1.78.72-4.05-.03-5.91-.34-.83-1.12-1.44-1.39-2.3-.51-1.64,1.03-3.3.86-5.01-.19-1.92-2.49-3.55-1.75-5.34.36-.87,1.36-1.36,1.68-2.25.55-1.55-1.19-3.59-.01-4.73.41-.4,1.06-.5,1.4-.95.68-.92-.45-2.06-.89-3.12-.46-1.1-.13-2.35-.26-3.53-.13-1.18-1.23-2.48-2.31-1.99.64-1.86-.48-6.91-2.43-6.7-.96.11-2.2.57-2.71-.26-.36-.59.04-1.4-.26-2.02-.76-1.59-3.48.77-4.87-.3-.38-.29-.55-.77-.87-1.13-.72-.8-2-.74-3.04-.44-1.04.3-2.09.77-3.15.57-1.06-.2-1.97-1.51-1.31-2.36-1.1.63-2.26,1.28-3.53,1.37-1.27.08-2.69-.58-3.03-1.81-.34,1.78-3.08,2.47-4.22,1.06-.46-.56-.76-1.41-1.48-1.49-.32-.04-.64.1-.92.25-1.27.69-2.99,4.58-3.69,5.84l.59-7.88Z"/>
  <path d="M925.79,104.97c.26.61-.58,1.1-1.24,1.18s-1.52.2-1.64.86c-.07.4.22.81.15,1.21-.21,1.24-2.6.19-3.25,1.26-.49.8.52,2.09-.2,2.69-.34.29-.85.18-1.3.21-.77.06-1.47.65-1.66,1.4-.14.56-.03,1.2-.34,1.68-.38.59-1.69.27-1.82.96-.7,3.54-2.05,2.94-2.09,4.77-.04,1.83.25,3.63-1.14,4.82-1.29-1.11-.98-2.19.05-3.54.31-.41.11-.17.36-.62.24-.45.27-1.09-.13-1.41-.2-.16.73-2.19.62-2.41-.33-.64-.33-1.59.25-2.03.72-.55,1.67.74,1.13.02s-1.19-1.66-.72-2.44c.42-.68,1.47-.73,1.9-1.4.48-.76-.13-1.78.08-2.66.28-1.17,1.75-1.5,2.94-1.61-.76-.89-.29-2.5.82-2.86.45-.14,1-.13,1.3-.5.44-.55-.02-1.53.51-1.99.45-.38,1.22-.03,1.7-.38.77-.55-.16-1.85.26-2.69.56-1.11,3.02-.67,2.89-1.91"/>
  <path class="cls-2" d="M1000.68,163.47l-.13-2.56-26.66-6.82h0c-9.56-3.42-22.79-.43-30.39,4.73l-6.8.54.06-.11c-8.09-5.59-21.28-6.1-31.24-1.21l.3,1.05h0c0,.06.08.22.14.44l.27.91c1.67,5.84,3.6,12.01,5.3,13.6,1.14,1.07,4.82,1.5,7.84,1.65,1.14.07,2.19.09,2.94.1.9,0,8.9.07,10.21-1.21,1.3-1.28,3.34-10.59,3.91-13.53l6.97-.52c.95,2.24,3.01,11.97,6.46,13.85,3.45,1.89,20.87.6,22.41-1.86,1.1-1.76,4.21-8.09,4.98-11.32l1.34-4.17,22.08,6.42ZM931.68,173.69c-1.43,1.23-17.36,1.28-19.34-.57-1.67-1.56-4.05-9.89-4.95-13.02v-.13c8.91-3.87,20.79-3.43,27.82,1.29-1.09,5.08-2.72,11.6-3.54,12.4v.03ZM970.19,171.87c-.97,1.56-16.17,3.34-19.73,1.4-2.48-1.34-4.1-8.45-5.37-12.51,7.43-4.9,22.9-7.37,31.41-3.78-1.39,5.09-3.59,11.1-6.31,14.89h0Z"/>
  <path class="cls-12" d="M961.5,191.01c-.39-.49-.84-.85-1.45-1.04-.53-.17-.99-.06-1.52-.15-.6-.1-.68-.83-1.27-1.03-.45-.15-.95-.08-1.41-.03-.65.07-1.46.19-2.08-.08-.48-.21-.83-.63-1.35-.77-1.19-.31-2.14.44-3.12.94l1.04-.36c-.14.03-1.04-.93-1.3-1.04-.47-.2-1.01-.25-1.51-.26-.65-.01-1.31.12-1.93.33-.19.06-.37.14-.55.21-.12.05-.24.09-.36.13-.17.05-.11.05.17,0-.4-.49-2.29.44-2.17.58.39.47,1.25.25,1.75.13.4-.09.78-.21,1.17-.35.16-.06.32-.14.49-.19.29-.08-.23-.06.21.01.46.08.82.14,1.2.45.35.29.61.61,1.07.75.81.25,1.86-.04,2.56-.47.14-.08.28-.18.4-.29.35-.26.06-.17-.86.26.09.04.18.09.26.15.27.23.65.46.97.59.81.33,1.92.21,2.77.11.58-.06.78-.03,1.14.45.19.25.33.44.65.53.46.14.94.01,1.41.1.58.1,1.08.47,1.44.92.39.49,2.29-.43,2.17-.58h0Z"/>
  <path class="cls-12" d="M936.19,187.36c-.87-.18-1.69,0-2.41.52-.3.21-.56.48-.85.72-.07.06-.29.16-.32.24-.03.05-.05.06-.06.03.21-.05.21-.05-.01-.02-.83,0-2.03.36-2.31,1.25l-.07.14c.56-.09.71-.15.43-.17-.14-.1-.44-.13-.61-.18-.46-.14-.92-.22-1.4-.15-.91.15-1.44.7-1.74,1.53-.05.13-.17.33-.19.45-.01.09.14-.01.08-.06-.14-.12-1.14.13-1.28.16-.45.12-.92.34-1.25.67-.24.24-.55.72-.45,1.08-.06.22,0,.24.18.05.23-.13.26-.15.07-.08-.23.02-.55.2-.74.32-.29.19-.58.46-.58.83,0,1.06,2.19.68,2.19-.2-.58.36-.71.47-.39.36l.12-.04c.23-.08.44-.16.64-.29.3-.2.56-.46.66-.82.03-.11.09-.4.05-.51-.06-.18.01-.08-.13-.03.24-.09.6-.04.86-.08.78-.11,1.57-.43,2-1.14.15-.25.21-.53.32-.79.12-.28.29-.34-.21-.13-.56.23-.24.17.08.27.77.24,1.58.36,2.34.02.37-.17.7-.43.92-.78.02-.03.23-.36.22-.4-.42.15-.52.21-.3.18.08,0,.17-.01.25-.02.75-.08,1.41-.34,2-.8.22-.18.43-.38.65-.56.05-.04.27-.17.29-.22.06-.04.07-.05.04-.03-.12.05-.24.06-.37.04.52.11,1.16,0,1.54-.41.3-.34.25-.85-.26-.95h0Z"/>
  <path class="cls-21" d="M1083.56,508.22l.43,41.6c-.36,27.71-6.76,46.5-15.03,72.89l-19.25,112.02s-1.41,48.9,2.14,89.46c3.1,35.16-9.57,97.72-9.57,97.72l-11.9,1.94c-10.75,1.75-21.7,1.82-32.47.21l-23.12-3.46-15.58-207.93-12.18-127.4-19.67-76.96,156.19-.08Z"/>
  <path class="cls-21" d="M904.48,502.67l8.32,225.14c-.29,9.81,3.27,18.82,6.22,66.15l5.89,80.67,1.94,35.05,6.7,1.4c9.19,2.19,18.63,3.1,28.05,2.68l20.63-.23-10.58-404.16-67.16-6.71Z"/>
  <path class="cls-30" d="M1004.18,224.5l9.26,3.56c12.4,4.8,47.99,16.76,56.83,26.7,13.28,14.85-36.37,62.34-37.58,75.24-.62,6.25-4.08,52.65,2.98,88.38,4.64,23.76,7.85,47.77,9.6,71.91l-38.61,6.69c-18.86,3.27-38.1,3.87-57.11,1.79l-46.07-19.25c.06-24.82-7.34-37.1-5.88-69.71l-.98-101.25,6.55-47.43s9.81-9.24,10.84-11.65l27.42-18.18s-10.03,19.04,12.5,21.31c20.01,2.01,23.8-1.06,38.3-13.22,0,0,10.69-7.91,11.96-14.88Z"/>
  <path class="cls-30" d="M1057.84,319.91s-5.12,83.14-1.05,107.2c4.07,24.06,10.88,58.24,9.62,73.82-1.26,15.58-70.61,26.75-104.14,24.74-33.53-2.01-60.39,9.32-60.44-31.75-.04-36.18,62.56-186.35,62.56-186.35l93.46,12.34Z"/>
  <path class="cls-1" d="M888.24,302.7c2.98,16.91,4.15,34.09,5.16,51.21.51,8.67.95,17.34,1.48,26.01.25,4.1.4,8.23.95,12.29.8,5.82.85,11.79,1.03,17.66.02.7,1.48.43,1.46-.14-.17-5.66-.3-11.37-.93-17.01-.36-3.2-.63-6.39-.84-9.62-1.13-17.43-1.79-34.88-3.3-52.28-.83-9.55-1.9-19.08-3.56-28.52-.11-.6-1.56-.24-1.45.39h0Z"/>
  <path d="M943.52,567.12c10.1,8.35,13.59,22.2,14.52,34.72.55,7.4.03,14.77.16,22.17.16,9.19.31,18.38.47,27.58.25,14.79.51,29.57.76,44.36.22,12.78.44,25.57.66,38.35.07,4.07-.04,8.18.28,12.23.55,7.04,1.11,14.09,1.66,21.13,1.03,13.11,2.06,26.22,3.09,39.33,1.19,15.12,2.37,30.23,3.56,45.35,1.02,13.04,2.05,26.07,3.07,39.11l1.64,20.91c.03.32.05.65.08.97.04.49,1.15.23,1.1-.3-.39-4.94-.78-9.88-1.16-14.83-.94-12-1.88-24-2.83-36-1.18-15-2.36-30-3.53-45-1.1-14.01-2.2-28.01-3.3-42.02-.69-8.79-1.38-17.57-2.07-26.36-.26-3.26-.32-5.89-.38-9.3-.19-11.34-.39-22.69-.58-34.03-.26-15.07-.52-30.15-.77-45.22-.19-11.01-.38-22.02-.56-33.04-.27-15.88,1.47-32.24-5.14-47.19-2.29-5.17-5.49-9.93-9.87-13.55-.37-.31-1.34.23-.85.63h0Z"/>
  <path class="cls-30" d="M1033.63,328.84l.75-92.04s35.88,8.28,47.53,32.2c10.66,25.78,26.49,113.07,27.29,130.32,2.38,51.26-4.42,89.51-14.4,142.02-.31,1.63-1.81,2.77-3.46,2.61l-33.63-3.17-3.38-141.34-20.71-70.61Z"/>
  <path class="cls-15" d="M1043.84,257.16c-5.33,1.58-8.21,6.66-10.02,11.57-2.04,5.55-3.25,11.63-3.83,17.5-.74,7.43-.2,14.96.84,22.34,1.22,8.62,3.16,17.13,5.36,25.54,2.37,9.08,5.07,18.08,7.8,27.06.74,2.42,1.33,4.81,1.9,7.28l5.95,25.46c.78,3.32,1.55,6.64,2.33,9.96.18.76.41,1.49.42,2.28.07,4.3.14,8.61.21,12.91l.39,24.48c.15,9.47.3,18.94.46,28.41l.4,24.77c.07,4.42.14,8.83.21,13.25,0,.2,0,.4,0,.6,0,.37,1.46.11,1.45-.39-.05-3.02-.1-6.04-.15-9.06-.12-7.41-.24-14.81-.36-22.22-.15-9.35-.3-18.69-.45-28.04-.14-8.71-.28-17.41-.42-26.12-.09-5.62-.18-11.24-.27-16.86-.01-.86.06-1.77-.04-2.63-.2-1.61-.76-3.25-1.13-4.83-1.99-8.5-3.97-17-5.96-25.5-.75-3.21-1.5-6.42-2.25-9.63-1.11-4.74-2.74-9.36-4.12-14.02-4.93-16.62-9.82-33.62-11.17-50.97-.54-6.97-.29-13.85.99-20.72,1.07-5.72,2.4-11.83,5.61-16.78,1.44-2.22,3.39-4.28,5.99-5.05.84-.25.7-.87-.16-.61h0Z"/>
  <path class="cls-19" d="M730.19,589.75l3.36,27.04-2.26,12.85-6.71,11.93-18.81,15.48s-3.23-.66-.16-5.86c3.01-4.56,6.39-8.95,10.13-13.12l1.96-13.92-3.45-6.14-3.97.69s1.08,17.48-1.61,21c-.47.61-.86,1.12-1.2,1.54-.94,1.18-2.68,1.28-3.77.24l-1.61-1.54-.72-26s1.63-11.44,2.4-14.14c1.08-2.67,2.92-6.52,4.47-9.04l.36-3.61,18.82-5.51,2.77,8.12Z"/>
  <path class="cls-19" d="M669.23,332.21c2.94,1.04,45.61,20.39,52.44,43.05,6.83,22.66,5.29,95.04,8.85,115.06,4.48,23.32-1.66,87.86-1.09,93.66l1.02,21.06-16.06-6.39s-8.82-118.93-20.64-150.54c-11.82-31.61-24.52-115.91-24.52-115.91Z"/>
  <polygon class="cls-26" points="604.21 932.21 634.1 933.77 632.3 911.98 602.73 914.43 604.21 932.21"/>
  <path class="cls-19" d="M617.54,281.56s1.82,30.13-1.85,40.33c-.89,2.48-16.51,9.81-16.51,9.81l62.55,31.41,31.59-26.16s-24.22-11.23-25.11-14.2c-.89-2.97-.05-25.37-.05-25.37"/>
  <path class="cls-24" d="M576.79,564.24l-2.44,20.08c-2.05,16.85-1.63,33.9,1.24,50.63l13.45,105.83s1.78,65.04-.14,101.89c-1.68,31.95,5.61,79.54,5.61,79.54l53.7-2.34,20.89-174.29-2.71-119.56,17.08-60.76-106.67-1.02Z"/>
  <path class="cls-24" d="M722.08,567.51l-11.8,164.94c.57,8.88-2.41,43.13-5.02,51.63l-15.96,110.08-1.53,15.9-43.42,4.15,7.37-350.56,70.37,3.86Z"/>
  <path class="cls-9" d="M651.95,911.94c.46-4.43.92-8.86,1.38-13.29,1.12-10.81,2.25-21.62,3.37-32.43,1.41-13.61,2.83-27.22,4.24-40.83,1.32-12.69,2.64-25.38,3.95-38.07.85-8.19,1.7-16.37,2.55-24.56.13-1.27.25-2.55.4-3.82.72-6.19,1.34-12.35,1.49-18.59.07-2.94-.04-5.89.01-8.83.12-7.62.31-15.24.47-22.86l.82-40.1c.23-11.25.46-22.5.69-33.75.05-2.37.02-4.76.15-7.13.04-.73.21-1.44.37-2.15.66-2.91,1.64-5.79,3.08-8.42,1.75-3.2,4.35-6.05,8.04-6.85.7-.15.49-.91-.2-.76-6.8,1.46-10.13,8.71-11.73,14.81-.48,1.84-.69,3.4-.73,5.27-.19,9.18-.38,18.37-.56,27.55-.28,13.68-.56,27.36-.84,41.04-.21,10.07-.41,20.14-.62,30.2-.07,3.37,0,6.72-.04,10.09-.1,7.21-.88,14.3-1.63,21.46-.67,6.41-1.33,12.82-2,19.24-1.24,11.94-2.48,23.87-3.72,35.81-1.43,13.77-2.86,27.54-4.29,41.31-1.24,11.91-2.47,23.83-3.71,35.74-.66,6.37-1.32,12.74-1.98,19.1-.03.29-.06.59-.09.88-.06.57,1.08.42,1.13-.09h0Z"/>
  <path class="cls-6" d="M729.35,456.47c2.53-1,5.16-3.7,5.13-5.03,0-.42-3.25-49.95-3.46-52.14-.82-8.83-1.69-17.69-3.65-26.35-2.55-11.21-8.66-18.27-16.86-26.48-9.64-9.64-18.95-14.52-31.31-19.31l-8.23-2.66s13.26,14.75-13.13,19.71c-26.39,4.96-45.54-22.2-45.54-22.2,0,0-15.37,7.48-32.56,16.22-6.6,3.36-21.64,14.85-24.46,21.7-7.04,17.11-6.38,31.24-11.03,68.12l18.79,10.12,19.61,6.33c-1.7,21.01-10.49,64.19-8.28,97.15.31,4.42.63,8.84.97,13.26.2,2.62-5.9,18.56-4.39,20.65,1.43,1.97,12.69.45,15.25,1.21,27.47,8.15,99.37,5.11,99.37,5.11,11.25-1.9,20.61-3.12,30.44-8.44,6.96-3.77,8.25-5.95,11.96-9.34-2.22-9.36-2.56-19.18-3.22-28.74-1.07-15.38-3.1-31.5-3.84-46.91-.04-.88.08-29.29.37-29.95,2.59-1.35,2.12.16,8.07-1.99Z"/>
  <path class="cls-19" d="M547.67,424.24s-4.61,73.13-4.31,80.68c1,25.47,25.12,99.43,25.12,99.43l18.31-5.95s1.64-84.47-5.14-97.74l8.13-69.01-42.1-7.39Z"/>
  <path class="cls-6" d="M548.64,387.54s-5.61,45.25-7.47,67.35c0,0,33.28,10.96,56.72,6.72,24.84-4.5-2.05-55.66-2.05-55.66l-47.2-18.41Z"/>
  <g>
    <path class="cls-20" d="M576.71,354.63s23.9,2.62,23.94,39.73-2.76,67.25-2.76,67.25c0,0-16.43,3.04-31.33,0-14.9-3.04-25.39-6.72-25.39-6.72l.62-6.87s18.6,6.3,33.62,7.52c15.02,1.22,20.96.17,20.96.17"/>
    <path class="cls-22" d="M576.02,355.15c2.21.25,4.81,1.32,6.93,2.5,5.51,3.06,9.65,8.07,12.25,13.76,4.88,10.66,4.44,22.51,4.29,33.96-.17,12.82-.64,25.63-1.39,38.43-.35,6-.74,12-1.29,17.98l1.26-.66c-6.5,1.19-13.28,1.52-19.87,1.25-10.28-.42-20.46-3.18-30.29-6.09-1.96-.58-3.93-1.18-5.86-1.85l.2.31c.21-2.29.42-4.58.62-6.87-.65.21-1.31.42-1.96.64,16.08,5.43,33.04,8.65,50.06,8.12,1.73-.05,3.52-.1,5.23-.4.29-.05,1.24-.25,1.26-.66s-.61-.38-.9-.33c-1.24.22-2.33.25-3.63.31-4.28.19-8.57.05-12.85-.21-10.39-.64-20.52-2.77-30.52-5.65-2.31-.66-4.61-1.35-6.89-2.12-.4-.14-1.9.03-1.96.64l-.62,6.87c-.01.16.03.25.2.31,5.92,2.07,12.03,3.67,18.12,5.12,5.54,1.31,11.09,2.48,16.79,2.83,4.94.3,9.91.19,14.85-.24,2.56-.23,5.13-.5,7.66-.96.29-.05,1.22-.25,1.26-.66,1.6-17.26,2.3-34.64,2.63-51.96.34-17.64,1.82-41.12-15.45-51.94-2.59-1.62-5.67-3.07-8.75-3.42-.46-.05-1.19.06-1.54.41-.28.28-.33.56.17.62h0Z"/>
  </g>
  <g>
    <path class="cls-20" d="M721.2,388.5c.51,13.46.96,49.26.64,65.86-.02,1.25-.05,2.4-.09,3.41,0,0,4.99.32,9.06-2.06,3.68-2.15,3.36-3.3,3.36-3.3v-4.45s-1.97,4.76-11.07,6.09"/>
    <path class="cls-22" d="M720.11,388.79c.68,18.17.79,36.38.74,54.56-.01,4.91-.04,9.81-.19,14.72,0,.15.32.22.4.23,4.5.26,9.61-1.07,12.98-4.17.68-.62,1.19-1.23,1.21-2.15.03-1.43,0-2.86,0-4.29,0-.64-1.99.04-2.17.45-1.49,3.53-6.5,4.92-9.82,5.43-.29.05-1.24.26-1.25.67-.02.43.61.38.9.34,3.46-.53,7.04-1.58,9.82-3.81.97-.78,2.01-1.77,2.51-2.95-.72.15-1.44.3-2.17.45v3.61c0,.69.08,1-.31,1.55-1.3,1.84-4.02,2.93-6.12,3.41-1.01.23-2.05.36-3.09.41-.28.01-.58-.01-.86.02-.2.02-.31,0-.27,0l.4.23c.61-19,.17-38.08-.22-57.08-.08-4.07-.18-8.13-.33-12.19-.02-.53-2.2-.15-2.17.58h0Z"/>
  </g>
  <path class="cls-19" d="M623.89,329.63c16.05,7.5,33.99,6.83,47.27-4.66-3.55-1.83-3.43-5.14-3.64-5.91-.79-2.85-.55-22.34-.55-22.34l-50.43-16.27s3.55,30.66-.27,40.28c-.2.51-1.88,2.81-3.15,3.89,3.01,2.56,7.14,3.32,10.76,5.01Z"/>
  <path class="cls-39" d="M677.24,299.03c-1.58,2.83-3.01,5.77-4.7,8.53-.03.04-.03.08-.05.12-.16-.11-.36-.12-.5.09-1.19,1.86-3.27,2.9-4.31,4.87-.89,1.7-.15,3.89-.15,5.88-1.33.29-3.56.32-5.25.52-11.46.38-11.76-1.15-27.53-10.27-5.01-2.9-4.25-6.84-5.22-7.54,15.67-1.24,31.28-1.37,47.7-2.21Z"/>
  <path d="M603.43,262.51s-2.74-7.36-6.5-25.09c-3.36-15.87,21.16-30.41,36.23-33.57,8.29-1.74,36.42.35,43.82,3.39,7.4,3.04,11.68,12.63,13.25,26.62,0,0-5.13-13.71-14.01-12.92-7.24.64-30.8-1.77-36.79,1.15-5.99,2.92-19.2,9.11-18.66,31.14.15,6.01-10.82.23-13.56,4-2.74,3.77-3.78,5.28-3.78,5.28Z"/>
  <path class="cls-19" d="M616.83,287.61l-3.5-21.5-2.28-24.14,8.56-18.83,16.8-9.22,19.58-.36s15.85,3.09,20.86,4.16c5.01,1.06,8.79,6.93,12.48,13.51,3.69,6.59,2.81,17.87,2.81,17.87.16.38-.18,2.11-.24,2.47-.75,4.55-.86,8.51-1.5,11.91-.3,1.61-.22,3.1.34,4.56,2.18,5.77,2.28,8.29,1.98,11.91-.41,4.93-1.1,9.15-2.72,13.1-1.71,4.18-3.9,8.72-4.35,9.61,0,0-4.93,9.43-6.05,10.39-1.12.96-2.82,1.88-3.64,2.01-.82.13-11.54,1.35-11.54,1.35l-5,.12c-1.7.04-3.39-.25-4.98-.87-4.3-1.67-16.58-6.7-19.97-8.85-4.57-2.89-10.46-15.53-10.46-15.53"/>
  <path d="M620.57,266.5c.18,1.87.47,9.3.76,11.11l-9.68.24c-3.2-6.28-7.03-13.67-8.21-15.34-1.85-2.61-2.7-15.62-3.02-20.51l-.07-1.06c-.32-4.7,3.85-12.36,11.14-20.5,8.03-8.96,22.73-14.5,37.45-14.1,1.4.04,2.8.13,4.15.27,12.83,1.32,23.7,7.22,32.3,17.52,6.2,7.43,6.98,16.2,6.73,21.58-.82-10.56-4.86-17.84-5.03-18.14-3.83-7.04-8.39-8.9-11.55-9.22-2.75-.28-4.77.54-5.17.72-3.07.83-7.62.61-10.92.27-2.45-.25-4.4-.59-4.94-.68-1.69-1.07-4.2-1.8-7.24-2.11-7.08-.73-17.21.96-19.17,4.14-2.18,3.53-6.89,15.98-6.8,18.84"/>
  <path class="cls-19" d="M617.77,288.06c-5.45,5.99-9.59-4.96-9.59-4.96-5.66-6.4-5.87-13.39-5.81-18.18.05-4.79,5.32-4.87,5.32-4.87,4.48.35,6.55,2.69,10.74,17.65"/>
  <path d="M685.43,222.38c-3.44-5.12-10-11.47-13.78-16.34-1.72-.1-10.23,0-12.01-.01-18.21-.11-42.26,11.19-44.37,17.89-1.32,4.18.44,26.61,1.3,28.63,2.37,5.53,3.48,12.85,3.48,12.85.46-8.46,6.16-18.06,6.82-20.98.66-2.92-3.68-16.49-2.76-17.1.91-.61,17.34-6.27,35.9-6.62,5.47-.1,10.97.19,15.86.67-.04-.06,9.61,1.07,9.57,1.02Z"/>
  <path d="M651.71,259.23c-1.13-.55-2.41-.99-3.13-.32-.17.16-.62.6-.81,1.34-.25.94.15,1.99.75,2.62.8.84,2.11.96,3.1.46,1.34-.67,1.74-2.31,1.38-3.49-.07-.22-.38-.16-1.29-.6"/>
  <path d="M684.26,258.28c1.1-.6,2.41-.14,3.15.49.18.15.65.57.88,1.29.3.93-.05,1.99-.62,2.65-.76.88-2.06,1.06-3.08.62-1.37-.6-1.86-2.22-1.55-3.42.06-.22.33-1.14,1.21-1.63"/>
  <path d="M675.22,262.92s4.37-4.58,7.63-4.96c4.77-.56,6.02.49,7.77,2.64,0,0-3.19-2.21-6.53-1.73-3.2.46-8.87,4.05-8.87,4.05Z"/>
  <path d="M659.14,261.85s-6.87-3.95-10.16-3.9c-4.8.08-10.4,3.14-11.84,5.5,0,0,7.36-4.47,10.74-4.44,3.23.04,11.26,2.83,11.26,2.83Z"/>
  <path d="M657.08,242.14c.38,1.07.76,2.15,1.14,3.23.29.82,1.01,2.68,1.29,3.5-2.87.24-5.6.05-7.4.36-3.57.61-7.31,1-10.53,2.74-1.54.83-2.82,1.75-3.88,3.07-.34.41-1.09,1.96-1.83,1.9-.31-.03-.35-1.5-.35-1.66-.07-2.98,1.83-4.91,4.41-6.55,5.26-3.34,11.07-5.25,17.15-6.59"/>
  <path d="M693.17,249.44s-1.64-1.04-1.66-1.05c-4.59-2.94-9.68-4.44-15.03-5.37-.35,1.08-.71,2.17-1.06,3.26-.27.83-.8,2.31-1.07,3.14,2.53.05,4.78-.13,6.37.05,3.14.37,6.46.71,9.27,2.21.22.12,2.1.89,2.31,1.02,1.44-1.19,1.2-2.89.86-3.27Z"/>
  <g>
    <path class="cls-7" d="M672.12,281.74c-1.38.79-3.53.66-4.96-.2-.32-.19-1.36.03-.91.3,1.9,1.14,4.97,1.17,6.76.16.18-.1.14-.24-.09-.31-.24-.07-.61-.05-.8.06"/>
    <path class="cls-7" d="M665.62,281.44c-.95-.43-2.02-.65-3.08-.71-.15,0-.35.06-.46.16-.09.08-.1.19.02.26.49.27,1.12.38,1.69.35.18,0,.42-.06.51-.22.09-.15-.09-.24-.23-.23-.47.02-.95-.06-1.36-.29-.15.14-.3.28-.45.42.94.05,1.9.25,2.75.64.17.08.41.02.56-.08.11-.07.23-.23.06-.31"/>
    <path class="cls-7" d="M661.44,281.68c-1.24,0-2.7-.52-3.33-1.45-.95-1.41-.15-3.69,1.37-4.65.17-.1.07-.23-.1-.26-.22-.04-.48.05-.66.16-1.32.83-2.15,2.71-1.91,4.05.22,1.25,1.42,2.1,2.91,2.43.44.1.91.16,1.37.16.19,0,.52-.07.61-.22.09-.15-.08-.22-.26-.22"/>
    <path class="cls-7" d="M674.37,281.04c-.07-.14.05-.24.15-.24.33,0,.67-.1.95-.35.11.13.22.27.34.4-.67.09-1.33.33-1.92.75-.12.08-.29.04-.4-.05-.08-.07-.17-.22-.05-.31"/>
    <path class="cls-7" d="M673.44,281.25c.66-.47,1.4-.73,2.14-.83.11-.01.25.04.33.14.07.08.08.19,0,.26"/>
    <path class="cls-7" d="M676.94,281.15c.8-.05,1.73-.62,2.1-1.58.56-1.45-.04-3.14-1.06-4.03-.11-.1-.06-.23.05-.27.14-.05.32.03.43.13.89.78,1.49,2.06,1.39,3.41-.09,1.26-.84,2.16-1.79,2.55-.28.11-.59.2-.89.22-.12,0-.34-.04-.4-.19-.06-.15.05-.22.16-.23"/>
  </g>
  <path class="cls-17" d="M667.86,290.99c-2.75.03-11.01.34-11.01.34,0,0,2.94,2.49,11.19,2.4,8.25-.09,10.94-2.56,10.94-2.56l-11.11-.18Z"/>
  <g>
    <path class="cls-20" d="M611.89,322.2s15.29,24.28,41.51,22.53c26.22-1.75,20.75-15.08,20.75-15.08l-3.41-5.59,9.01,3.78s2.71,6.6-.42,12.79c-3.13,6.19-16.28,11.57-33.08,10.16-9.85-.83-22.79-6.72-30.65-13.89-9.41-8.59-11.06-10.67-11.06-10.67l7.35-4.03Z"/>
    <path class="cls-22" d="M610.89,322.66c1.99,3.15,4.57,6,7.22,8.59,5.68,5.56,12.48,10.07,20.11,12.44,4.63,1.44,9.49,2.04,14.33,1.81,4.86-.24,9.88-.95,14.42-2.78,4.27-1.72,8.55-5.04,8.74-10.02.14-3.61-2.17-6.15-3.98-9.11-.55.38-1.09.77-1.64,1.15,3,1.26,6,2.52,9.01,3.78l-.45-.4c2.03,5.02,1.45,11.69-2.77,15.39-4.93,4.31-12.19,5.9-18.52,6.5-8.14.78-15.99-.23-23.59-3.23-3.79-1.49-7.43-3.36-10.86-5.57s-6.45-4.89-9.45-7.67c-2.66-2.48-5.64-4.93-7.93-7.78-.18.35-.36.69-.53,1.04,2.45-1.34,4.9-2.69,7.35-4.03,1.3-.71.12-1.73-.93-1.16-2.45,1.34-4.9,2.69-7.35,4.03-.33.18-.88.61-.53,1.04.59.73,1.28,1.39,1.94,2.05,2.89,2.9,5.91,5.69,8.94,8.45,7.19,6.55,16.51,11.29,25.98,13.45,4.92,1.12,10.04,1.31,15.07.98,4.71-.31,9.42-1.18,13.85-2.81,3.27-1.21,6.55-2.88,9.03-5.38,2.88-2.92,3.83-7.12,3.51-11.12-.11-1.4-.26-3.44-1.01-4.69-.38-.63-1.44-.87-2.1-1.14-2.46-1.03-4.92-2.06-7.38-3.1-.6-.25-2.14.33-1.64,1.15.61,1,1.22,2,1.83,3l1.14,1.86c.09.14.5.92.36.56.26.62.37,1.33.43,2,.35,3.94-2.3,7.1-5.69,8.83-3.86,1.98-8.3,2.7-12.57,3.09-4.84.44-9.66.15-14.37-1.13-7.51-2.05-14.29-6.28-19.93-11.59-2.97-2.8-5.87-5.93-8.06-9.4-.48-.76-2.57.02-2,.92Z"/>
  </g>
  <path class="cls-4" d="M637.52,951.86s20.27-.42,29.24,1.21c8.98,1.63,32.44,3.37,44.48,2.15,12.03-1.22,28.35-6.95,28.35-6.95,0,0,1.3,1.45-3.61,4.69-4.92,3.24-20.97,6.71-35.22,6.95-14.25.24-35.11.82-39.47,1.08-4.37.26-22.57,1.06-25.3-1.53-2.29-2.18,1.54-7.6,1.54-7.6Z"/>
  <path class="cls-25" d="M693.56,961.63c2.93-3.26,5.16-8.09,1.68-11.81-3.17-3.39-7.58-2.7-11.77-3.06-5.33-.46-10.45-1.93-15.17-4.45-5.18-2.76-9.87-6.43-14.37-10.16-3.28-2.72-6.49-5.53-9.54-8.5-.26-.25-1.24.14-.97.41,6.45,6.26,13.48,12.3,21.12,17.06,4.08,2.54,8.47,4.47,13.18,5.46,2.56.54,5.18.82,7.8.93,2.3.09,4.4-.04,6.5,1.05,1.91.99,3.48,2.69,3.89,4.85.59,3.13-1.34,6.02-3.33,8.22-.3.33.74.27.97.02h0Z"/>
  <g>
    <path d="M593.09,950.31s-1.5,5.94-.03,8.62c1.47,2.68,12.24,2.9,15.73,3.23,3.49.33,48.66,5.05,53.14,5.09,4.49.04,28.6-1.36,31.96-6.51,0,0,5.72-8.69-2.4-11.58-8.12-2.89-14.11-1.76-21.73-5.39-7.62-3.63-15.95-9.36-23.3-17.1,0,0-7.43-6.29-10.93-5.29-3.5,1-7.37,7.63-10.21,9.24-2.84,1.6-16.48,3.72-20.09-2.83-3.61-6.55-4.56-4.04-7.23-3.06-2.67.98-6.97,12.54-5.85,17.88,1.12,5.34.94,7.71.94,7.71Z"/>
    <path class="cls-28" d="M639.7,929.66l-.04-.04c-.34-.36-.11-1.04.52-1.51l4.54-3.42c.63-.47,1.42-.57,1.77-.21l.04.04c.34.36.11,1.04-.52,1.51l-4.54,3.42c-.63.47-1.42.57-1.77.21Z"/>
    <path class="cls-28" d="M644.99,932.22l-.13-.13c-.25-.25.02-.81.58-1.24l3.37-2.56c.57-.43,1.23-.58,1.48-.33l.13.13c.25.25-.02.81-.58,1.24l-3.37,2.56c-.57.43-1.23.58-1.48.33Z"/>
    <path class="cls-28" d="M649.36,934.66l-.22-.22c-.22-.22.01-.73.52-1.11l2.41-1.83c.51-.39,1.11-.52,1.33-.29l.22.22c.22.22-.01.73-.52,1.11l-2.41,1.83c-.51.39-1.11.52-1.33.29Z"/>
    <path class="cls-28" d="M652.89,937.28l-.26-.26c-.26-.27-.05-.8.46-1.18l2.41-1.82c.51-.39,1.14-.48,1.4-.22l.26.26c.26.27.05.8-.46,1.18l-2.41,1.82c-.51.39-1.14.48-1.4.22Z"/>
  </g>
  <path class="cls-4" d="M593.36,954.57s20.24,1.07,29.07,3.35c8.83,2.28,32.11,5.73,44.2,5.4,12.09-.33,28.78-4.85,28.78-4.85,0,0,1.19,1.54-3.95,4.42-5.14,2.87-21.4,5.16-35.64,4.35-14.23-.81-35.07-1.75-39.44-1.81-4.37-.06-22.59-.59-25.12-3.38-2.13-2.34,2.1-7.47,2.1-7.47Z"/>
  <path class="cls-5" d="M1004.43,225c-1.61,3.2-3.78,6.18-6.03,8.94-5.05,6.21-11.34,11.56-18.65,14.9-4.61,2.11-9.58,3.34-14.65,3.61s-10.82.01-15.89-1.5c-4.41-1.31-8.98-4.16-9.4-9.16-.08-.99,0-1.97.26-2.93.63-2.41,1.28-4.81,1.92-7.22.1-.37-1.24.11-1.37.2-2.06,1.47-4.11,2.94-6.17,4.41-.55.39-1.59.86-1.98,1.44-.45.66-.49,2.01-.59,2.77-.54,4.11.25,8.79,3.19,11.9,2.43,2.57,5.9,4.06,9.21,5.11,4.63,1.45,9.51,2.04,14.35,2.13,5.39.09,10.91-.37,16.15-1.7,9.78-2.49,19.32-7.66,26.83-14.38,3.83-3.43,7.37-7.35,10.59-11.36.91-1.13,1.95-2.32,2.58-3.64.03-.04.02-.08-.03-.11-2.97-1.26-5.95-2.52-8.92-3.78-.38-.16-1.47.44-1.37.48,2.5,1.06,4.99,2.12,7.49,3.17.39.16.92.29,1.26.53.26.19.12-.15.1.07-.02.37-.62.99-.81,1.27-2.21,3.17-4.88,6.04-7.53,8.84-4.04,4.27-8.35,8-13.37,11.09s-10.61,5.73-16.4,7.28c-5.95,1.59-12.35,1.96-18.48,1.57-5.13-.32-10.4-1.27-15.07-3.48-3.73-1.76-6.6-4.27-7.82-8.34-.76-2.54-.83-5.28-.36-7.88.09-.49.15-1.31.42-1.77-.02.03.49-.36.67-.48,2.46-1.76,4.91-3.51,7.37-5.27l-1.37.2c-.64,2.4-1.29,4.79-1.91,7.19-.2.78-.32,1.56-.32,2.37.02,4.84,3.99,8,8.2,9.53,4.64,1.69,9.72,2.05,14.62,2.07,5.26.02,10.45-.75,15.42-2.48,8.1-2.81,15.21-7.93,20.95-14.24,3.17-3.49,6.21-7.39,8.34-11.63.08-.16-1.25-.09-1.43.27Z"/>
  <rect class="cls-31" x="50.09" y="65.01" width="27.47" height="881.25"/>
  <rect class="cls-31" x="50.09" y="47.9" width="443.01" height="21.81"/>
  <rect class="cls-31" x="470.74" y="65.01" width="22.36" height="881.25"/>
  <polygon class="cls-35" points="311.18 35.97 71.88 66.31 71.88 946.54 311.18 979.38 311.18 35.97"/>
  <rect class="cls-37" x="311.18" y="35.94" width="25.77" height="942.65"/>
  <g>
    <path class="cls-8" d="M272.02,513.5h-41.33c-2.73,0-4.95,3.09-4.95,6.89h0c0,3.81,2.22,6.89,4.95,6.89h41.33c2.73,0,4.95-3.09,4.95-6.89h0c0-3.81-2.22-6.89-4.95-6.89Z"/>
    <path class="cls-8" d="M267.6,528.41c-.02,2.09-.01,4.18-.01,6.27v26.12c0,5.42,0,10.84,0,16.26,0,7.16,4.34,12.97,9.7,12.97h.02c5.36,0,9.7-5.81,9.7-12.97v-89.41c0-7.16-4.34-12.97-9.7-12.97h-.02c-5.36,0-9.7,5.81-9.7,12.97v24.73c0-.4,5.67.31,6.13.45,1.91.55,4,1.75,4.77,4.35.43,1.44.46,3.04.3,4.57-.14,1.34-.44,2.69-1.03,3.78-1.07,1.95-2.94,2.83-4.74,3.03-.3.03-.61.05-.91.06-1.5.03-3.01-.22-4.51-.2ZM273.36,561.69c-.04-2.42,1.4-4.43,3.21-4.48,1.81-.05,3.31,1.87,3.35,4.29.03,1.75-.72,3.35-1.91,4.08v5.07c0,1.09-.65,1.97-1.46,1.99-.82,0-1.49-.89-1.49-1.99v-5.07c-1.06-.78-1.71-2.27-1.7-3.89Z"/>
  </g>
  <rect class="cls-8" x="318.47" y="483.17" width="10.02" height="94.71" transform="translate(646.95 1061.06) rotate(-180)"/>
  <path class="cls-33" d="M275.05,565.58v5.07c0,1.1.67,1.99,1.49,1.99.81-.02,1.47-.9,1.46-1.99v-5.07c1.19-.73,1.93-2.33,1.91-4.08-.04-2.42-1.54-4.34-3.35-4.29-1.81.05-3.25,2.06-3.21,4.48-.01,1.62.64,3.11,1.7,3.89Z"/>
  <path class="cls-34" d="M614.82,273.59c-.74-2.27-1.58-4.53-2.75-6.61-.57-1.01-1.23-2.02-2.1-2.82-.33-.31-.74-.64-1.2-.74-.82-.18-1.41.32-1.83.93-1.17,1.73-1.37,3.97-1.13,5.99.03.23,1.49-.05,1.45-.39-.19-1.63-.1-3.33.56-4.86.17-.4.38-.78.63-1.14.08-.11.16-.2.24-.3.07-.09-.02,0,.05-.06l-1.25.34s.06,0,.08.02c-.11-.05.09.04.15.07.31.15.59.36.84.59,1.25,1.12,2.09,2.71,2.8,4.2.8,1.67,1.43,3.41,2.01,5.17.09.29,1.53-.13,1.45-.39h0Z"/>
  <path class="cls-34" d="M612.8,273.84c-.68-.02-1.42.16-1.88.7-.35.43-.41.98-.4,1.52.01.67.13,1.33.23,2,.08.53.22,1.12.14,1.66-.01.08-.06.18-.06.25,0-.05-.03.08-.03.05,0-.08.74-.34.8-.19-.07-.18-.29-.39-.39-.59-.43-.9-.66-1.9-.87-2.86-.27-1.29-.4-2.23-.28-3.5s.38-3.24,1.64-3.81c.22-.1.58-.35.38-.62s-.73-.14-.97-.04c-1.47.67-2.11,2.17-2.38,3.68-.19,1.02-.28,2.12-.12,3.16.18,1.2.43,2.41.82,3.57.19.57.45,1.43,1.02,1.76s1.46,0,1.76-.59c.26-.5.15-1.15.08-1.68-.1-.79-.28-1.57-.31-2.37-.01-.32-.01-.68.1-.98.04-.11.09-.2.17-.28-.06.06-.19.04,0,.05.32,0,.79-.1.95-.41s-.14-.46-.4-.47h0Z"/>
  <path class="cls-34" d="M1003.53,172.22c1.14-3.08,2.43-6.2,4.32-8.9.48-.69,1.01-1.34,1.62-1.92.2-.18.4-.36.58-.48.08-.06.17-.11.26-.17.04-.03.09-.05.13-.08-.11.06-.06.03.01,0,.14-.08.19-.05.06-.03.22-.03-.1.02-.02,0,.1-.02-.18.03-.23.04l-.37-.05c.49.51.83,1.23,1.08,1.89.73,1.88.78,3.94.46,5.91-.06.35,1.37.1,1.43-.25.37-2.32.28-4.8-.84-6.91-.17-.32-.43-.88-.74-1.1-.19-.13-.44-.09-.66-.05-2,.37-3.45,2.3-4.49,3.88-1.73,2.61-2.95,5.55-4.03,8.48-.1.27,1.29.13,1.43-.25h0Z"/>
  <path class="cls-34" d="M1004.39,173.4c3.02.05-1.55,7.63,1.54,7.29.8-.09,1.29-.63,1.65-1.3.58-1.08.93-2.29,1.23-3.47.41-1.61.64-3.04.53-4.7-.13-1.9-.58-4.24-2.45-5.18-.38-.19-1.71.38-1.17.65,1.5.76,1.93,2.73,2.11,4.25.13,1.18.15,2.34-.08,3.5-.26,1.32-.59,2.63-1.06,3.89-.17.45-.35.91-.59,1.32-.07.12-.19.24-.25.36-.18.37.67.14.62-.09s-.19-.4-.21-.66c-.02-.33.03-.66.08-.98.12-.79.32-1.57.44-2.36.11-.72.25-1.59-.02-2.29-.3-.76-1.02-.97-1.77-.98-.28,0-.82.11-.96.38s.13.36.38.36h0Z"/>
  <path class="cls-34" d="M963.28,126.81c-11.74,2.25-24.02,4.5-35.78,1.15-.52-.15-1.71.61-.87.85,12.12,3.46,24.77,1.14,36.86-1.18.9-.17.66-.99-.22-.82h0Z"/>
  <path class="cls-34" d="M664.26,249.82c1.56-.7,2.59-2.15,3-3.77.49-1.93,0-3.96-.7-5.77-.26-.68-1.71-.28-1.45.39.62,1.61,1.09,3.36.77,5.09-.25,1.32-1.02,2.59-2.27,3.15-.29.13-.53.48-.33.78s.7.26.99.13h0Z"/>
  <path class="cls-29" d="M669.58,289.14c-4.11.05-13.14,3.07-14.95,4.94,0,0,4.13,5.87,13.66,5.75,9.53-.12,11.67-6.07,11.67-6.07,0,0-5.15-4.68-10.39-4.62Z"/>
  <path class="cls-25" d="M658.48,291.98s5.21-.52,9.37-.57c4.16-.05,9.38.34,9.38.34,0,0,.63-3.38-6.92-3.29-7.54.1-11.84,3.52-11.84,3.52Z"/>
  <path class="cls-11" d="M669.5,298.18c-4.47-.68-9.67-4.55-14.87-4.11,0,0,2.16,8.91,13.36,8.76,11.2-.14,11.97-9.08,11.97-9.08-5.21-.31-6.01,3.64-10.46,4.43Z"/>
  <path class="cls-11" d="M674.42,286.5c-2.36-.17-3.84.88-4.86.89-1.02.01-2.53-1-4.88-.77-2.2.22-11.45,6.57-10.4,7.37,1.05.8,8.22-3.88,15.31-3.97,7.08-.09,9.68,4.46,10.71,3.64,1.03-.82-3.68-7-5.89-7.16Z"/>
  <path class="cls-29" d="M939.84,194.04c4.87-.31,15.82,1.99,18.1,3.75,0,0-4.42,6.42-15.71,7.15-11.3.73-14.32-5.22-14.32-5.22,0,0,5.72-5.29,11.93-5.69Z"/>
  <path class="cls-25" d="M953.22,195.98s-6.22-.07-11.15.25c-4.93.32-11.08,1.19-11.08,1.19,0,0-1.02-3.43,7.92-4.01,8.94-.58,14.3,2.57,14.3,2.57Z"/>
  <path class="cls-11" d="M940.67,203.36c5.24-1.1,11.08-5.56,17.27-5.57,0,0-1.83,9.38-15.11,10.23-13.28.86-14.92-8.3-14.92-8.3,6.14-.78,7.42,3.21,12.75,3.63Z"/>
  <path class="cls-11" d="M933.89,191.76c2.78-.39,4.61.56,5.83.49,1.21-.08,2.91-1.26,5.72-1.23,2.63.03,14.1,5.75,12.91,6.67-1.18.91-10.06-3.26-18.45-2.72-8.4.54-11.1,5.46-12.39,4.71-1.29-.76,3.79-7.55,6.39-7.91Z"/>
  <path d="M942.62,188.38l.48,2.95c.08.45.43.8.88.88,3.1.52,14.91,2.45,17.74,2.49.07,0-.28,1.17-.21,1.16l.66-.03c1.06-.18.39-3.74-.6-4.16-3.02-1.27-5.73-2.18-7.41-2.62-2.1-.55-7.91-1.88-10.47-1.91-.67-.01-1.18.59-1.07,1.25Z"/>
  <path d="M924.75,194.66c-.82.78-1.69,1.69-1.72,2.82-.01.41.09.82.19,1.21.16.62.32,1.23.48,1.85.03.12.07.25.16.34.1.1.24.13.38.16.43.09.88.18,1.31.08s.83-.46.84-.9c0-.18-.06-.37,0-.54.13-.33.59-.31.92-.41.85-.26.98-1.37,1.32-2.19.46-1.11,1.53-1.86,2.65-2.3.57-.22,1.16-.38,1.67-.71s.93-.89.88-1.5"/>
  <path d="M937.72,188.44l.36,2.68c0,.46-.26.86-.63,1-2.52.98-10.78,4.19-13.12,4.65-.06.01-.11.01-.16.01l-.78-.02c-.9-.02-.77-2.27,0-2.84,2.36-1.71,3.86-2.73,5.21-3.41,1.68-.86,5.95-2.74,8.07-3.16.56-.11,1.06.41,1.04,1.08Z"/>
  <path d="M960.73,193.7c.88.72,1.82,1.56,1.94,2.68.04.41-.03.82-.1,1.23-.11.63-.22,1.25-.33,1.88-.02.12-.05.26-.13.35-.09.11-.23.15-.36.19-.42.12-.87.25-1.3.18s-.87-.39-.9-.83c-.02-.18.03-.37-.05-.54-.15-.32-.61-.26-.95-.34-.87-.19-1.08-1.29-1.49-2.08-.55-1.07-1.67-1.74-2.82-2.08-.58-.18-1.19-.29-1.72-.58-.53-.29-.99-.82-.99-1.42"/>
  <path class="cls-1" d="M874.44,335.63c4.29,5.3,7.33,11.62,9.73,17.96,2.72,7.22,4.66,14.84,5.23,22.55.29,4.02.17,8.08-.64,12.04-.14.7,1.34.52,1.47-.12,1.49-7.24.74-14.85-.8-22.02-1.62-7.54-4.23-14.91-7.75-21.77-1.68-3.26-3.58-6.42-5.89-9.27-.41-.5-1.79.07-1.33.63h0Z"/>
  <path class="cls-39" d="M829.69,260.56c-1.12,2.29-3.76,2.81-6.04,3.24-.24.05-.69.28-.62.59.08.32.62.24.83.2,2.67-.51,5.87-1.29,7.18-3.97.32-.65-1.13-.52-1.36-.06h0Z"/>
  <path class="cls-19" d="M1043.25,602.83c4.42-4.8,10.25-11.35,10.26-12.51.01-1.15,1.25-8.83,2.36-15.54.72-3.39-1.27-6.79-4.43-7.58-.82-.21-7.93,14.57-14.07,10.81l3.5-13.75c1.73-4.27,3.96-8.29,6.65-11.95,3.59-4.33,13.92-10.81,13.92-10.81l4.3.47,25.73,1.69-.42,22.59s-6.31,32.43-9.67,35.64c-3.35,3.21-13.16,5.2-13.16,5.2-3.72,4.98-11.82,3.38-11.82,3.38-8.65,6.04-8.56-1.03-8.56-1.03-.25.28-.56.48-.91.57-3.77,1.07-6.33-4.33-3.67-7.18Z"/>
  <path class="cls-39" d="M1064.58,583.98c-.13,5.4-1.37,11.22-4.67,15.6-1.53,2.03-3.37,3.84-5.44,5.31s-4.49,2.98-7,3.75c-.86.26-.66,1.09.22.82,2.61-.8,4.96-2.21,7.21-3.72,2.15-1.45,4.07-3.22,5.7-5.23,3.77-4.64,5.28-10.78,5.42-16.68.02-.65-1.44-.38-1.46.16h0Z"/>
  <path class="cls-39" d="M1071.72,586.97c-.21,3.18-.61,6.53-1.8,9.51-1.23,3.08-3.51,5.4-6.01,7.51-2.49,2.09-4.96,4.66-7.83,6.18-.88.47-.08,1.04.6.68,3.11-1.65,5.72-4.3,8.41-6.56,2.48-2.08,4.79-4.41,6.07-7.43,1.34-3.14,1.8-6.67,2.02-10.05.04-.65-1.42-.39-1.46.16h0Z"/>
  <path class="cls-39" d="M1079.34,588.63c.53.18-1.61,7.38-1.74,7.91-.3,1.16-.5,2.42-.99,3.52-.53,1.2-1.52,2.17-2.46,3.06s-1.92,1.71-3,2.41c-.56.37-1.15.71-1.76.99-.17.08-.54.14-.66.26-.19.19-.13-.21.1.09-.27-.36-1.57.23-1.45.39.31.41,1.3.04,1.69-.08,1.24-.39,2.41-1.05,3.48-1.78,2.32-1.57,5.08-3.79,5.84-6.59.72-2.65,1.43-5.33,2.05-8.01.11-.46.82-2.5.11-2.74-.33-.11-1.62.42-1.19.57h0Z"/>
  <path class="cls-19" d="M603.9,645.54c-3.76-4.09-8.73-9.67-8.74-10.65-.01-.98-1.07-7.52-2.01-13.24-.61-2.89,1.08-5.78,3.77-6.46.7-.18,6.75,12.41,11.99,9.21l-2.98-11.72c-1.47-3.64-3.38-7.06-5.66-10.18-3.06-3.69-14.4-15.06-14.4-15.06l-1.12,6.25-20.52-6.93-1.04,27.61s5.38,27.62,8.23,30.36c2.86,2.74,11.21,4.43,11.21,4.43,3.17,4.24,10.06,2.88,10.06,2.88,7.37,5.14,7.29-.88,7.29-.88.21.24.48.41.78.49,3.21.91,5.39-3.69,3.13-6.11Z"/>
  <path class="cls-39" d="M584.37,629.46c.12,4.93,1.31,10.14,4.4,14.07,1.35,1.72,2.96,3.25,4.75,4.5,1.93,1.34,4.01,2.61,6.26,3.3.65.2,1.7-.74.83-1.01-2.11-.65-4.03-1.82-5.84-3.06-1.77-1.21-3.35-2.7-4.68-4.38-2.97-3.77-4.14-8.79-4.25-13.52-.02-.79-1.49-.59-1.47.1h0Z"/>
  <path class="cls-39" d="M578.3,632.16c.19,2.84.56,5.83,1.68,8.46,1.06,2.49,2.95,4.44,5,6.16,2.25,1.89,4.46,4.17,7.05,5.54.36.19,1.51-.41,1.37-.48-2.55-1.35-4.71-3.57-6.91-5.42s-4.05-3.75-5.12-6.34c-1.07-2.59-1.44-5.53-1.62-8.31-.01-.23-1.47.01-1.45.39h0Z"/>
  <path class="cls-39" d="M572.53,632.78c-1.1.37-.71,1.5-.52,2.38.48,2.24,1.12,4.45,1.69,6.66.34,1.32.82,2.28,1.73,3.29s1.96,1.94,3.07,2.74c.9.64,3.81,2.79,4.9,1.35.22-.29-.19-.49-.42-.51-.36-.04-.74.14-.95.42l-.02.02.38-.31c.82-.34.43,0,.28-.12-.07-.06-.35-.11-.43-.14-.45-.17-.88-.39-1.3-.63-.94-.54-1.83-1.18-2.64-1.9-.82-.73-1.66-1.51-2.29-2.4s-.82-2-1.09-3.05c-.44-1.7-.91-3.41-1.31-5.12-.12-.51-.24-1.01-.32-1.53-.02-.14-.01-.32-.05-.45-.1-.36.42-.15-.49.16.24-.08.7-.28.61-.62-.08-.31-.61-.31-.84-.23h0Z"/>
  <rect class="cls-40" x="337.05" y="889.51" width="133.8" height="55.6" transform="translate(807.89 1834.63) rotate(-180)"/>
  <polygon class="cls-13" points="412.75 205.59 411.41 209.7 407.09 209.7 410.59 212.24 409.25 216.35 412.75 213.81 416.24 216.35 414.91 212.24 418.4 209.7 414.08 209.7 412.75 205.59"/>
  <polygon class="cls-13" points="395.81 222.93 395.05 225.28 392.58 225.28 394.58 226.73 393.81 229.08 395.81 227.63 397.81 229.08 397.05 226.73 399.04 225.28 396.57 225.28 395.81 222.93"/>
  <polygon class="cls-13" points="440.15 355.36 439.39 357.71 436.92 357.71 438.91 359.16 438.15 361.51 440.15 360.05 442.15 361.51 441.38 359.16 443.38 357.71 440.91 357.71 440.15 355.36"/>
  <polygon class="cls-13" points="361.47 186.13 360.71 188.47 358.24 188.47 360.24 189.93 359.47 192.27 361.47 190.82 363.47 192.27 362.71 189.93 364.7 188.47 362.23 188.47 361.47 186.13"/>
  <polygon class="cls-13" points="429.14 116.36 428.37 118.71 425.91 118.71 427.9 120.16 427.14 122.51 429.14 121.06 431.14 122.51 430.37 120.16 432.37 118.71 429.9 118.71 429.14 116.36"/>
  <polygon class="cls-13" points="358.24 276.04 357.48 278.39 355.01 278.39 357 279.84 356.24 282.19 358.24 280.74 360.24 282.19 359.47 279.84 361.47 278.39 359 278.39 358.24 276.04"/>
  <polygon class="cls-13" points="373.5 292.22 372.3 295.89 368.44 295.89 371.57 298.16 370.37 301.83 373.5 299.56 376.62 301.83 375.43 298.16 378.55 295.89 374.69 295.89 373.5 292.22"/>
  <polygon class="cls-13" points="429.14 371.14 427.94 374.81 424.08 374.81 427.21 377.08 426.01 380.75 429.14 378.48 432.26 380.75 431.07 377.08 434.19 374.81 430.33 374.81 429.14 371.14"/>
  <polygon class="cls-13" points="425.91 237.79 425.14 240.14 422.67 240.14 424.67 241.59 423.91 243.94 425.91 242.49 427.9 243.94 427.14 241.59 429.14 240.14 426.67 240.14 425.91 237.79"/>
  <polygon class="cls-13" points="441.5 193.85 440.74 196.2 438.27 196.2 440.27 197.65 439.5 200 441.5 198.55 443.5 200 442.74 197.65 444.74 196.2 442.27 196.2 441.5 193.85"/>
  <polygon class="cls-13" points="389.34 150.61 387.77 155.47 382.65 155.47 386.79 158.48 385.21 163.34 389.34 160.33 393.48 163.34 391.9 158.48 396.04 155.47 390.92 155.47 389.34 150.61"/>
  <path class="cls-38" d="M941.02,936.12s-9.08-.35-11.94,0c-2.86.35-10.45,5.94-2.67,15.3,7.78,9.36,40.93,6.35,40.93,6.35l14.89-2.28-41.21-19.37Z"/>
  <path class="cls-38" d="M893.24,925.89s-9.08-.35-11.94,0-12.47,7.09-2.67,14.3c7.14,5.25,40.93,2.35,40.93,2.35l14.89-.28-41.21-16.37Z"/>
  <path class="cls-16" d="M973.33,925.5c-6.3,6.13-14.92,8.8-23.35,10.43-4.46.86-8.99,1.41-13.43,2.35-3.14.66-6.66,1.76-8.67,4.44-2.74,3.66-.93,8.42,1.58,11.66.18.23,1.12.07.96-.13-2.3-2.98-4.1-7.27-1.98-10.83,1.77-2.98,5.44-4.13,8.63-4.81,4.44-.94,8.97-1.48,13.43-2.35,4.17-.81,8.32-1.83,12.27-3.41,4.2-1.68,8.18-3.99,11.44-7.17.28-.27-.68-.36-.87-.18h0Z"/>
  <path class="cls-16" d="M922.93,941.85c-.03-1.94,1.24-3.6,2.85-4.56,1.85-1.1,4.07-1.42,6.15-1.85,4.57-.95,9.13-1.91,13.7-2.86,2.61-.55,5.22-1.09,7.83-1.64.67-.14.12-.44-.3-.36-4.89,1.02-9.79,2.05-14.68,3.07-2.45.51-4.89,1.02-7.34,1.53-2.07.43-4.24.81-6.08,1.9-1.74,1.02-3.15,2.77-3.11,4.87,0,.26,1,.2.99-.1h0Z"/>
</svg>