<?xml version="1.0" encoding="UTF-8"?>
<svg id="Layer_1" data-name="Layer 1" xmlns="http://www.w3.org/2000/svg" xmlns:xlink="http://www.w3.org/1999/xlink" viewBox="0 0 1334 1000">
  <defs>
    <style>
      .cls-1 {
        fill: #131429;
      }

      .cls-2 {
        fill: #040404;
      }

      .cls-3 {
        fill: #101931;
      }

      .cls-4 {
        fill: #010101;
      }

      .cls-5 {
        fill: #653c29;
      }

      .cls-6 {
        fill: #231f20;
      }

      .cls-7 {
        fill: #27153c;
      }

      .cls-8 {
        fill: #f1eef7;
      }

      .cls-9 {
        fill: #3d4e83;
      }

      .cls-10 {
        fill: #a66e53;
      }

      .cls-11 {
        fill: #0a2f44;
      }

      .cls-12 {
        fill: url(#linear-gradient);
        opacity: .5;
      }

      .cls-13 {
        fill: #3d3d3d;
      }

      .cls-14 {
        fill: #fff;
      }

      .cls-15 {
        fill: #f2ebd1;
      }

      .cls-16 {
        fill: #24180f;
      }

      .cls-17 {
        fill: #628e9f;
      }

      .cls-18 {
        fill: #825639;
      }

      .cls-19 {
        fill: #381c13;
      }

      .cls-20 {
        fill: #4f2e25;
      }
    </style>
    <linearGradient id="linear-gradient" x1="-1108.66" y1="3519.66" x2="-49.24" y2="3519.66" gradientTransform="translate(-2820.81 1099.77) rotate(90) scale(1 -1)" gradientUnits="userSpaceOnUse">
      <stop offset="0" stop-color="#f0ebe0"/>
      <stop offset=".18" stop-color="#eee8dd" stop-opacity=".99"/>
      <stop offset=".33" stop-color="#e8e1d4" stop-opacity=".97"/>
      <stop offset=".46" stop-color="#ded4c5" stop-opacity=".93"/>
      <stop offset=".59" stop-color="#d0c2b0" stop-opacity=".88"/>
      <stop offset=".72" stop-color="#bdab95" stop-opacity=".82"/>
      <stop offset=".84" stop-color="#a78e73" stop-opacity=".73"/>
      <stop offset=".96" stop-color="#8d6d4d" stop-opacity=".64"/>
      <stop offset="1" stop-color="#83603d" stop-opacity=".6"/>
    </linearGradient>
  </defs>
  <polyline class="cls-15" points="1372.37 1032.13 1372.37 -24.34 -34.67 -24.34 -34.67 1032.13"/>
  <polyline class="cls-12" points="1402.37 1047.04 -4.67 1047.04 -4.67 -12.39 1402.37 -12.39"/>
  <path class="cls-11" d="M1189.44,847.59l.81,78.76c-.69,52.47-12.8,88.04-28.45,138.01l-36.45,212.1s-2.66,92.59,4.06,169.38c5.86,66.57-18.12,185.03-18.12,185.03l-22.54,3.66c-20.36,3.31-41.08,3.45-61.47.41l-43.77-6.55-29.49-393.7-23.05-241.22-37.24-145.72,295.72-.16Z"/>
  <path class="cls-11" d="M850.37,837.09l15.75,426.28c-.55,18.57,6.19,35.64,11.77,125.26l11.15,152.74,3.66,66.37,12.68,2.65c17.4,4.15,35.27,5.86,53.12,5.07l39.07-.43-20.04-765.25-127.16-12.7Z"/>
  <path d="M924.58,958.73c19.12,15.71,25.86,41.88,27.66,65.52.54,7.02.68,14.07.66,21.11-.03,6.17-.34,12.33-.35,18.49,0,.98.03,1.96.05,2.94.11,6.43.22,12.86.33,19.29.19,10.89.37,21.78.56,32.67.23,13.55.46,27.1.7,40.66.25,14.42.49,28.84.74,43.26.23,13.49.46,26.98.69,40.47.18,10.76.37,21.53.55,32.29.11,6.25.21,12.51.32,18.76.03,1.52.08,3,.2,4.52.37,4.76.75,9.53,1.12,14.29.67,8.58,1.35,17.16,2.02,25.74.9,11.44,1.8,22.88,2.7,34.32,1.05,13.35,2.1,26.69,3.14,40.04,1.12,14.29,2.25,28.59,3.37,42.88,1.12,14.29,2.24,28.57,3.37,42.86,1.05,13.36,2.1,26.71,3.15,40.07.9,11.42,1.79,22.84,2.69,34.27.67,8.5,1.34,17.01,2,25.51.37,4.66.73,9.33,1.1,13.99.05.59.09,1.19.14,1.78.03.34,1.14.11,1.1-.3-.2-2.5-.39-4.99-.59-7.49-.53-6.79-1.07-13.58-1.6-20.38-.8-10.13-1.59-20.26-2.39-30.39-.98-12.51-1.97-25.03-2.95-37.54-1.1-13.98-2.2-27.96-3.29-41.94-1.13-14.45-2.27-28.9-3.4-43.35-1.09-13.92-2.19-27.83-3.28-41.75-.98-12.47-1.96-24.94-2.94-37.41-.79-10.06-1.58-20.13-2.37-30.19-.53-6.73-1.06-13.46-1.59-20.19-.19-2.36-.44-4.72-.56-7.09-.16-3.44-.12-6.91-.18-10.36-.15-8.83-.3-17.66-.45-26.5-.21-12.45-.43-24.91-.64-37.36-.24-14.24-.49-28.49-.73-42.73s-.49-28.37-.73-42.55c-.21-12.37-.42-24.74-.63-37.1-.15-8.75-.3-17.51-.45-26.26-.06-3.47-.23-6.97-.16-10.44.57-26.39,1.44-53.83-9.21-78.6-4.29-9.97-10.41-19.3-18.85-26.24-.29-.24-1.32.19-1.03.43h0Z"/>
  <path class="cls-10" d="M639.04,475.61l-18.27-20.22s-36.33-10.14-50.05-21.05c-9.62-8.26-18.04-17.82-25.02-28.4l-31.64-24.26s-19.47-2.64-19.09-8.79c.38-6.15,7.93-7.08,15.25-7.98,7.33-.9,107.33,21.3,107.33,21.3-5.53-9.06-11.82-17.63-18.81-25.61-10.83-12.19-9.39-24.03-.48-24.1,5.5-.05,24.82,13.7,26.14,23.06,1.32,9.35,21.93,16.55,31.13,30.36,9.2,13.82,5.89,36.21,5.89,36.21,3.94,7.93,11.83,17.83,11.83,17.83-5.51,15.05-34.22,31.66-34.22,31.66Z"/>
  <path class="cls-20" d="M521.53,386.39c-.28-.45,1.03-2.01,1.26-2.27.67-.73,1.52-1.35,2.39-1.8,2.02-1.05,4.09-.97,6.28-.7,3.35.41,6.63,1.35,9.77,2.58,2.53.99,5,2.15,7.37,3.49.79.44,1.57.9,2.32,1.4.2.13.82.58.81.57l.28-.4c1.17-.78,1.16.11.69-.28-.16-.14-.4-.23-.59-.34-.72-.44-1.42-.9-2.12-1.37-.36-.24-1.63.36-1.25.63,4.19,3,8.07,6.42,11.54,10.24,1.71,1.89,3.23,3.93,4.87,5.87,1.77,2.09,3.24,4.39,4.43,6.85.24.49,1.65.03,1.45-.39-2.26-4.65-5.68-8.74-9.11-12.57s-7.52-7.48-11.83-10.56l-1.25.63c.86.57,2.88,2.51,4.06,1.72.14-.1.3-.21.28-.4-.06-.57-1.95-1.41-2.35-1.65-2.06-1.23-4.2-2.31-6.39-3.26-2.79-1.22-5.69-2.22-8.66-2.9s-6.37-1.31-9.32-.44c-1.82.54-3.51,1.53-4.83,2.89-.51.52-1.97,2.21-1.45,3.06.24.4,1.65-.06,1.35-.56h0Z"/>
  <path class="cls-20" d="M554.96,389.5c-.24.5-.66.17-.15.3.28.07.63.05.92.08.82.1,1.63.24,2.44.39,1.99.37,3.97.8,5.94,1.25,4.07.93,8.09,1.99,12.07,3.25,1.46.46,2.92.95,4.35,1.51.46.18.94.37,1.38.6.26.14.51.44.53.22-.07.75,1.41.55,1.47-.11.05-.56-.69-.86-1.09-1.06-1.08-.55-2.25-.95-3.39-1.35-3.32-1.16-6.71-2.16-10.12-3.02-3.76-.95-7.57-1.84-11.39-2.5-.92-.16-3.77-.98-4.34.24-.35.75,1.11.76,1.39.17h0Z"/>
  <path class="cls-20" d="M594.09,414.36s.21-.92.28-1.09c.29-.82.7-1.6,1.15-2.34,1.39-2.35,3.24-4.43,5.35-6.16,2.85-2.34,6.26-4.06,9.88-4.8.34-.07,4.95-.8,4.94-.09,0,.22,1.44.03,1.45-.39.01-.68-2.83-.47-3.18-.44-2.66.16-5.29.85-7.75,1.86-5.17,2.12-9.85,6.01-12.51,10.97-.2.38-1.58,2.76-.79,3.04.32.12,1.61-.41,1.19-.56h0Z"/>
  <path class="cls-20" d="M660.7,426.28c-4.75,5.64-11.06,9.89-18.14,12.01-.14.04-.72.2-.66.42s.68.07.79.04c7.5-2.25,14.27-6.57,19.33-12.57.29-.35-1.08-.17-1.31.1h0Z"/>
  <path class="cls-17" d="M883.36,338.58s-61.7,42.02-79.98,64.97c-23.38,29.35-26.13,206.75-33.65,237.95-7.53,31.2,3.56,27.4,3.56,27.4l94.34-20.71,36.22-98.79-15.84-192.12-4.64-18.71Z"/>
  <path class="cls-17" d="M893.72,632.86s-94.47-3.08-98.74-21.2c-2.85-12.1,15.51-11.51,13.38-23.76l-84.84-92.58c-5.25-7.22-56.93-68.86-58.91-66.29l1.74,6.3c-7.27,11.68-26.98,26.26-40.36,30.09l-11.56,6.86c-3.09,2.93,38.11,66.82,42,73.97,16.63,30.57,65.65,102.85,75.33,119.35,13.69,23.34,60.89,47.37,91.18,39.66,21.21-5.4,62.18-51.67,70.77-72.4Z"/>
  <path class="cls-17" d="M781.02,616.71c-6.84,28.38-5.86,34.02-5.86,34.02l91.31-20.06,36.53-97.71-14.4-174.74-4.22-17.02s-56.11,38.22-72.75,59.09"/>
  <path class="cls-10" d="M1010.2,214.85s-4.89,56.92,8.06,88.63c2.08,5.09,29.36,16.72,29.36,16.72l-6.93,8.79c-5.98,7.59-18.02,14.3-26.72,18.5-43.33,20.9-105.85,29.25-127.81,3.16l10.12-19.04s7.13-7.06,8.13-13.47c1-6.4-9.35-55.37-9.35-55.37"/>
  <path class="cls-18" d="M1014.61,237.53c0,.12,0,.22,0,.34.04-.14.05-.27,0-.34Z"/>
  <path class="cls-10" d="M939.76,310.89l-38.27,1.39-19.39-2.92c-1.93.18-11.79-18.77-13.3-21.15-4.66-7.4-10.75-17.09-13.89-25.27-3.36-8.76-9.6-16.12-11.76-26.81-1.58-7.83-2.02-13.36,1.26-26.56.83-3.35.63-6.62-.44-10.07-2.27-7.28-3.53-15.89-6.35-25.66-.22-.77-1.42-4.47-1.17-5.34,0,0-5.83-41.25.54-56.6,6.38-15.35,17.03-22.97,27.71-26.58,10.68-3.62,43-11.58,43-11.58l44.86-2.16,39.12,15.85,22.58,44.4,1.22,53.4-2.13,47.94"/>
  <path d="M1002.59,182.22c.09,4.13-3.55,25.01-3.71,29.05l21.24-1.97c5.37-14.56,11.86-31.71,14.01-35.67,3.37-6.18-9.67-34.64-10.22-45.44l-.12-2.33c-.51-10.35-11.6-26.05-29.65-41.98-31.06-27.41-29.66-27.85-74.01-21.43-3.05.44-6.09,1-9.02,1.65-27.72,6.19-51.15,7.48-67.32,32.24-11.66,17.86-3.45-4.11-1.51,7.59-.92-23.3-3.97-3.81-1.77-6.72,12.92-17.02,21.1-.46,27.92-1.98,5.94-1.33,10.57-.04,11.49.24,6.93,1.03,13.42-.32,20.53-1.91,5.3-1.18,18.63-5.23,19.76-5.58,3.43-2.77-.72-16.54,5.86-18.01,15.29-3.41,36.9,1.85,44.61,4.78,9.12,3.46,30.86,10.81,29.64,34.67"/>
  <path d="M885.86,304.02c.26-.06.5-.17.7-.32,3.85-3,4.05-4.53,6-5.16.45-.14.67-.33,2.08-.63,5.66-1.24,9.1-2.09,25.18,6.46.32.18,20.22-3.9,20.61-3.97l10-5.69c1.65-1.2,38.03-36.89,38.03-36.89.5-1.14,6.94-9.45,7.14-10.52.12-.07.23-.15.36-.21.04-.02.14-.07.24-.12.02.07.05.16.07.2.1.44.13.91.14,1.36.06,1.96-.19,3.92-.64,5.84-.68,2.95-.98,5.93-1.55,8.88-.2,1.04-.45,2.08-.74,3.1-4.22,3.09-29.71,40.73-45.17,49.91-1.02.35-4.24,1.53-12.94,2.93-16.35,2.63-32.25,3.82-48.8.35-4.32-.91-7.95-3.66-9.95-7.45-5.7-10.82-18.27-34.89-22.18-51.4,5.22,9.34,16.26,29.37,23.86,43.01.23.41,6.51.28,7.04.39"/>
  <path class="cls-10" d="M1009.05,238.9c13.13,16.12,19.7-13.33,19.7-13.33,10.74-15.45,9.39-30.81,8.04-41.26-1.35-10.46-12.89-9.29-12.89-9.29-9.71,1.92-13.64,7.57-18.95,41.37"/>
  <path d="M873.92,85.4c15.94-1.4,57.05-15.42,78.61-18.32,8.93-1.2,40.27,18.87,44.5,23.65,9.69,10.95-8.93,38.98,9,74.8,5.92,11.83,11.5-10.02,18.46-2.49,6.96,7.53,9.63,10.59,9.63,10.59,2.21-35.66,2.17-34.42-8.1-68.75-10.24-34.24-49.26-46.77-67.85-48.39-18.58-1.62-77.12,8.38-92.52,16.93"/>
  <path d="M926.29,184.56c2.32-1.49,5.27-.66,7,.6.41.3,1.5,1.15,2.12,2.71.79,1.99.19,4.39-.96,5.92-1.54,2.05-4.37,2.63-6.67,1.81-3.11-1.11-4.41-4.61-3.91-7.29.09-.49.54-2.56,2.42-3.76"/>
  <path d="M856.02,191.59c-2.56-1.04-5.31.32-6.77,1.88-.35.37-1.27,1.41-1.59,3.06-.41,2.1.62,4.35,2.04,5.64,1.89,1.73,4.78,1.78,6.89.56,2.85-1.67,3.49-5.34,2.5-7.88-.18-.46-1.01-2.42-3.07-3.25"/>
  <path d="M877.16,198.94s-10.73-8.9-17.98-8.89c-10.57.01-13.04,2.62-16.31,7.77,0,0,6.4-5.66,13.85-5.47,7.12.18,20.44,6.59,20.44,6.59Z"/>
  <path d="M910.97,193.22s13.83-10.64,21.03-11.5c10.5-1.25,23.62,3.79,27.48,8.51,0,0-17.38-7.6-24.76-6.52-7.05,1.03-23.75,9.5-23.75,9.5Z"/>
  <path d="M906.6,149.15c-.45,2.47-.89,4.95-1.33,7.44-.34,1.89-1.24,6.18-1.56,8.07,6.24-.51,12.04-1.92,16.01-1.9,7.87.03,16.03-.47,23.53,2.14,3.59,1.25,6.66,2.79,9.39,5.26.86.78,3.01,3.86,4.59,3.46.65-.17.22-3.39.18-3.72-.89-6.5-5.63-10-11.73-12.62-12.44-5.34-25.56-7.39-39.07-8.11"/>
  <path d="M834.92,172.06s3.63-2.6,3.65-2.62c10.13-7.33,21.58-11.56,33.67-14.57.93,2.33,1.87,4.67,2.8,7.02.71,1.79,2.1,4.96,2.8,6.74-5.76.57-10.94.57-14.53,1.27-7.13,1.38-14.66,2.74-20.9,6.56-.49.3-3.14,1.98-3.6,2.3-3.42-2.37-4.62-5.81-3.89-6.69Z"/>
  <path d="M915.46,275.53l-27.14,1.11s7.34,9.89,13.94,9.28c4.12-.38,9.23-5.34,13.2-10.39Z"/>
  <g>
    <path class="cls-4" d="M889.1,239.32c3.23,1.36,7.89.54,10.81-1.71.65-.5,2.98-.29,2.07.41-3.86,2.97-10.57,3.84-14.74,2.08-.41-.18-.37-.49.11-.71.5-.22,1.32-.26,1.76-.08"/>
    <path class="cls-4" d="M903.24,237c1.98-1.19,4.25-1.94,6.55-2.33.34-.06.79.03,1.06.24.21.16.28.4.03.57-1.01.73-2.35,1.11-3.6,1.21-.39.03-.92-.02-1.18-.35-.24-.3.13-.54.43-.57,1.04-.08,2.07-.38,2.9-.98.37.27.73.54,1.1.8-2.05.36-4.08,1.04-5.85,2.11-.35.21-.89.15-1.24-.02-.26-.13-.56-.45-.2-.67"/>
    <path class="cls-4" d="M912.46,236.43c2.7-.32,5.78-1.82,6.91-4.03,1.72-3.34-.61-8.04-4.18-9.74-.39-.18-.22-.49.15-.6.48-.15,1.07-.02,1.47.17,3.11,1.48,5.39,5.29,5.22,8.29-.16,2.8-2.57,4.97-5.74,6.07-.94.33-1.95.58-2.96.7-.41.05-1.16,0-1.39-.32-.23-.31.13-.49.51-.54"/>
    <path class="cls-4" d="M884.01,238.38c.12-.33-.17-.52-.39-.49-.73.09-1.5-.05-2.17-.51-.21.32-.42.64-.63.97,1.48.03,2.99.38,4.39,1.16.28.15.64,0,.86-.22.16-.17.32-.53.04-.69"/>
    <path class="cls-4" d="M886.1,238.59c-1.56-.87-3.25-1.24-4.91-1.27-.24,0-.54.16-.7.4-.12.19-.13.43.07.56"/>
    <path class="cls-4" d="M878.42,239.28c-1.77.09-3.95-.92-5.01-2.92-1.6-3.03-.73-6.88,1.28-9.1.22-.24.07-.51-.18-.57-.33-.08-.68.14-.91.39-1.75,1.93-2.73,4.9-2.17,7.82.53,2.73,2.39,4.51,4.57,5.11.65.18,1.33.28,1.99.24.27-.02.74-.19.84-.53.1-.35-.16-.47-.41-.45"/>
  </g>
  <path d="M865.91,92.66c1.09-1.06,2.87-1.53,4.54-1.94l1.78-.71c5.38-.46,10.77-.75,16.15-.89,1.36-.03,2.76-.05,3.98.36.13.04.26.1.38.16,3.97-.44,7.95-.83,11.94-1.12l1.86.35c1.71.11,3.54.25,4.77,1,1.23.75,1.37,2.33-.15,2.94-1.59.64-4.07-.05-5.13.96-1.16,1.11,1.32,2.44.67,3.71-.41.79-1.83,1.15-2.73,1.76-1.07.73-1.37,1.81-2.36,2.58-1.02.79-2.75,1.15-4.18.87-1.5.23-3.57-.23-3.97.84-.11.29-.01.59.03.88.15,1.14-.72,2.36-2.09,2.93-1.37.57-3.15.45-4.29-.28-1.11-.71-1.58-1.89-2.76-2.54-.37-.2-.8-.35-1.23-.51-.35.38-.81.7-1.34.92-1.37.57-3.15.45-4.29-.28-1.11-.71-1.58-1.89-2.76-2.54-.99-.54-2.45-.71-2.98-1.54-.85-1.33,1.37-3.26.04-4.33-1.21-.97-3.55.23-5.22-.23-1.61-.44-1.73-2.26-.65-3.32Z"/>
  <path d="M921.35,306.88c-.95.78-2.42,1.05-3.79,1.27l-1.48.46c-4.37.02-8.74-.09-13.1-.33-1.1-.06-2.23-.14-3.19-.55-.1-.04-.2-.1-.3-.15-3.23.1-6.47.15-9.71.13l-1.48-.41c-1.38-.2-2.84-.43-3.79-1.12-.94-.68-.96-1.97.32-2.36,1.33-.41,3.28.31,4.2-.44,1.01-.82-.9-2.06-.3-3.03.38-.61,1.55-.81,2.31-1.24.91-.52,1.22-1.37,2.07-1.93.87-.57,2.29-.75,3.43-.43,1.23-.09,2.86.42,3.26-.42.11-.22.05-.47.03-.71-.05-.93.73-1.86,1.87-2.23,1.14-.37,2.57-.16,3.44.51.85.65,1.15,1.63,2.06,2.23.28.19.63.34.96.49.31-.28.7-.51,1.14-.66,1.14-.37,2.57-.16,3.44.51.85.65,1.15,1.63,2.06,2.23.76.5,1.93.73,2.31,1.44.6,1.13-1.32,2.54-.31,3.49.92.86,2.88.05,4.2.52,1.27.46,1.25,1.94.31,2.72Z"/>
  <path d="M1032.2,175.96c1.63-.17,3.33-.38,4.69-1.29,1.36-.92,2.22-2.79,1.47-4.24-1.2-2.3-5.55-2.46-5.43-5.05,1.98-2.65,7.11-1.95,8.14-5.09.84-2.54-1.96-4.69-4.34-5.91,1.52-1.63,1.12-.21,3.24-.88,2.12-.67,3.03-5.95,1.7-7.74-1.5-2.02-2.16-.28-1.5-2.71,1.69-.63-2.17-1.88-.93-3.19,1.23-1.31,1.77-3.46.73-4.93-1.25-1.77-1.12-3.15-1.21-5.31-.07-1.85-3.71-1.96-2.69-3.51,1.85-2.82-1.05-6.28-3.69-8.38,1.41-1.07-.4-1.28.45-2.84.84-1.56.89-3.69-.36-4.95-.77-.77-1.87-1.08-2.76-1.7-3.65-2.57-1.86-8.25.27-12.18-3.09.47-6.34-1.79-6.98-4.84-.3-1.44-.09-3-.7-4.34-.61-1.34-2.65-2.16-3.52-.97"/>
  <path d="M1020.48,93c-.55-1.94-2.9-11.19-3.45-13.13-2.42,1.11-5.66-.73-5.95-3.37-.15-1.32.19-2.99-.94-3.7-1.15-.73-2.59.38-3.95.39-3.03.03-3.73-4.85-6.62-5.74-1.81-.56-3.79.7-5.62.22-2.78-.72-3.45-4.79-6.14-5.77-1.86-.68-3.96.39-5.9-.02-4.2-.9-5.97-6.92-10.27-6.73-1.57.07-2.97,1.22-4.54,1.17-2.82-.09,1.19-3.25-1.61-3.49-2.58-.22-4.46,2.6-7.01,3.03-4.15.69-7.34-6.13-11.14-4.32-1.64.78-2.43,2.74-4.04,3.58-3.74,1.97-8.04-3.32-12.08-2.11-2.03.61-3.39,2.75-5.48,3.14-3.24.61-5.99-3.3-9.26-2.86-2.6.35-4.37,3.35-7,3.35-1.84,0,2.56-2.29.72-2.45-3.13-.27-5.25,3.28-8.27,4.1-2.54.69-5.13-.66-7.72-1.15-2.59-.49-7.91,4.82-7.84,7.45"/>
  <path d="M977.02,70.8c15.58,5.13,22.12,10.18,30.42,24.32l-88.94-25.72c6.31-1.68,12.6-2.87,18.78-2.96,16.4-.24,24.15-.77,39.73,4.36Z"/>
  <path d="M851.82,78.64c.41-.21.83-.43,1.21-.67,2-1.23,3.44-4.42,1.48-5.72,4.3,1.49,6.95-5.97,11.49-6.14,1.31-.05,2.55.54,3.85.69,3.38.38,6.67-2.87,6.34-6.25,3.39,1.65,7.44,1.88,10.99.63l31.32,8.23c-13.37,3.56-26.86,9.34-39.77,11.65-6.21,1.11-12.53,2.44-17.97,5.64-3.96,2.33-9.09,3.77-13.15,6.24,1.38-4.77,2.74-9.55,4.21-14.3Z"/>
  <path d="M861.62,278.71c1.22,3.97,1.47,8.19,3.8,11.62-1.47.56-.73,2.85.49,3.83,1.22.98,2.89,2.05,2.63,3.6-.09.54-.42,1.01-.5,1.55-.25,1.7,1.87,2.64,3.55,2.99-1.09.93-.04,2.7,1.12,3.53,1.17.83,2.65,1.88,2.34,3.27-.15.69-.75,1.26-.7,1.96.11,1.47,2.51,1.34,3.36,2.54.5.69.34,1.64.58,2.45.49,1.68,2.93,2.37,4.23,1.2.48,2.95,1.94,6.73,4.92,6.43,1.84-.18,3.52-2.05,5.24-1.38,1.07.41,1.59,1.65,2.58,2.22,3.35,1.92,7.04-5.07,10.39-3.14,1.8,1.04,1.88,4.1,3.88,4.67,1.89.53,3.43-1.71,5.37-2.01,2.11-.33,4.37,1.69,6.21.61.8-.47,1.21-1.39,1.88-2.02,1.53-1.45,3.26.55,5.3,1.08,3.66.95,3.86-1.66,3.86-1.66.94-2.58,2.36-2.45,4.81-1.23.82.41,1.58,1.06,2.49,1.06,2.23,0,3.1-3.72,5.33-3.63.82.03,1.5.61,2.26.92,2.76,1.11,5.92-2.66,4.34-5.18,3.39-.13,6.24-3.64,5.66-6.98,3.2.89,6.86-1.92,6.82-5.24,3.75.84,7.46-3.74,5.85-7.24,2.64.85,5.75-1.61,5.53-4.37-.11-1.42-.81-3.18.33-4.04.75-.56,1.81-.26,2.75-.31,2.28-.14,3.87-3.03,2.77-5.03,3.71.74,6.87-4.55,4.47-7.47,2.92.5,5.34-3.64,3.47-5.94,3.96-.32,6.4-5.75,4.01-8.92l-43.62,49.34-11.58,5.96s-41.75,5.83-49.84,2.63c-8.09-3.19-26.42-37.69-26.42-37.69Z"/>
  <path d="M920.62,73.04l41.38-7.73,35.19,18.97,14.75,42.78-6.55,34.14h0l-1.69,50.62c-1.18.18-2.35.36-3.53.55-.37.06-.76.11-1.09-.07-.81-.44-.42-1.64-.22-2.54.46-2.09-.79-4.12-1.78-6.02-.99-1.9-1.72-4.37-.39-6.05.7-.89,1.93-1.51,2.01-2.63.1-1.47-1.75-2.15-2.79-3.2-1.61-1.64-.82-4.89,1.36-5.61,0,0-2.7-2.7-2.03-8.32.67-5.62,2.04-11.66,2.04-11.66h0c-.36-.38-.7-.77-.96-1.22-1.89-3.29,1-7.73-.6-11.17-.72-1.55-2.25-2.63-2.84-4.23-1.12-3.06,1.65-6.33,1.17-9.55-.54-3.62-5.03-6.5-3.79-9.94.6-1.68,2.46-2.7,2.97-4.41.89-2.98-2.58-6.68-.45-8.94.74-.78,1.97-1.04,2.57-1.93,1.21-1.81-1.04-3.85-1.97-5.81-.96-2.03-.45-4.43-.81-6.65-.36-2.22-2.55-4.57-4.56-3.55,1.05-3.57-1.53-13.03-5.21-12.45-1.81.29-4.11,1.27-5.14-.24-.73-1.08-.05-2.65-.67-3.8-1.57-2.93-6.51,1.76-9.25-.13-.74-.51-1.11-1.42-1.74-2.05-1.44-1.45-3.85-1.22-5.78-.56-1.94.65-3.89,1.64-5.91,1.36-2.02-.28-3.86-2.68-2.68-4.35-2.03,1.3-4.15,2.63-6.55,2.91-2.4.27-5.14-.86-5.89-3.14-.48,3.41-5.59,4.96-7.88,2.39-.91-1.02-1.57-2.59-2.94-2.68-.61-.04-1.19.25-1.72.56-2.34,1.41-5.25,8.93-6.45,11.38l.41-14.96Z"/>
  <path d="M859.35,85.92c.55,1.13-.99,2.14-2.24,2.33s-2.86.52-3.01,1.77c-.1.77.49,1.5.4,2.28-.28,2.36-4.89.59-6.04,2.67-.86,1.56,1.17,3.91-.14,5.11-.62.57-1.59.41-2.44.52-1.45.18-2.72,1.36-3.01,2.79-.22,1.07.05,2.27-.5,3.21-.67,1.14-3.17.66-3.36,1.97-1,6.76-3.61,5.74-3.52,9.21.1,3.47.25,7.45-2.28,9.83-2.54-1.98-.02-4.24,1.81-6.89.55-.8-1.28-.76-.87-1.63.42-.87.41-2.08-.37-2.65-.38-.28,1.19-4.2.95-4.61-.68-1.18-.76-2.98.28-3.86,1.31-1.1,3.23,1.24,2.13-.07-1.1-1.31-2.41-3.04-1.58-4.54.73-1.32,2.72-1.51,3.46-2.82.84-1.48-.41-3.35-.09-5.03.42-2.23,3.17-3,5.42-3.31-1.51-1.62-.78-4.71,1.3-5.48.84-.31,1.88-.34,2.41-1.06.79-1.07-.18-2.89.79-3.8.82-.77,2.3-.17,3.18-.87,1.4-1.11-.47-3.48.26-5.11.97-2.16,5.64-1.55,5.3-3.88"/>
  <path class="cls-2" d="M1007.57,190.37l-.47-4.83-51.05-10.49h0c-18.38-5.59-43.15,1.26-57.05,11.7l-12.8,1.64.11-.21c-15.81-9.85-40.79-9.61-59.19.55l.66,1.96h0c.01.12.17.41.3.82l.6,1.7c3.68,10.89,7.89,22.38,11.26,25.24,2.26,1.92,9.25,2.39,14.99,2.41,2.17.03,4.14-.03,5.56-.07,1.71-.07,16.85-.68,19.19-3.21,2.35-2.54,5.36-20.33,6.18-25.94l13.13-1.62c1.99,4.16,6.78,22.36,13.48,25.61,6.7,3.25,39.52-.75,42.22-5.55,1.92-3.43,7.23-15.68,8.39-21.86l2.16-8,42.34,10.15ZM878.01,215.95c-2.59,2.45-32.71,3.99-36.62.68-3.3-2.81-8.56-18.34-10.54-24.18l-.02-.24c16.51-8.13,39.02-8.38,52.75-.08-1.61,9.7-4.1,22.19-5.56,23.77v.05ZM950.68,209.03c-1.69,3.03-30.27,7.78-37.18,4.43-4.81-2.32-8.53-15.61-11.29-23.17,13.61-9.94,42.64-16.02,59.06-10-2.16,9.75-5.78,21.31-10.59,28.74h0Z"/>
  <path class="cls-6" d="M934.95,246.23c-1.05-1.22-2.5-1.94-4.1-2.03-1.07-.06-1.84.31-2.66-.58-.51-.56-.7-1-1.5-1.21-1.47-.39-3.12.27-4.6.3-.84.02-1.58.04-2.34-.37-.64-.35-1.22-.81-1.92-1.04-1.19-.39-2.42-.06-3.39.71-.32.25-.37.38-.74.37-.52-.01-1.07-.74-1.45-1.04-.46-.36-.95-.64-1.51-.8-1.41-.41-3.08-.38-4.47.08-.49.16-2.83,1.41-3.05,1.14-.47-.58-2.56.19-2.02.85.6.73,1.89.42,2.65.2,1.15-.33,2.27-1.14,3.46-1.29,1-.12,2.11.05,2.92.66.58.44,1.05.95,1.74,1.25,1.51.64,2.59,0,3.85-.75.43-.25.33-.36.82-.1.28.15.55.32.82.48.56.34,1.12.67,1.77.81,1.55.33,3.42.04,4.96-.22,1.09-.18,1.34.01,1.98.82.47.59.89.89,1.66,1,.84.12,1.67-.14,2.51.02,1.05.19,1.91.81,2.6,1.6.49.57,2.57-.21,2.02-.85h0Z"/>
  <path class="cls-6" d="M887.52,242.34c-1.26-.21-2.58.19-3.61.92s-1.85,2.05-2.92,2.28c-1.41.31-2.67.43-3.39,1.85-.23.46-.11.54-.58.54-.27,0-.66-.16-.93-.23-.74-.19-1.43-.32-2.19-.17-1.43.26-2.15.91-2.56,2.26-.21.69-.36,1.46-1.15,1.61-.65.12-1.29.14-1.93.32-1.16.33-2.38.89-2.49,2.22-.04.5.1.92-.38,1.25-.24.17-.59.22-.85.37-.4.22-.72.45-.69.94.02.35,2.21-.01,2.17-.58-.03-.41.86-.56,1.17-.75.34-.22.59-.45.71-.84.23-.76-.22-1.67.77-2.03.51-.18,1.18-.12,1.72-.24,1.06-.23,2.23-.65,2.75-1.67.26-.5.33-1.08.54-1.6.04-.12.09-.23.15-.34.2-.25.16-.27-.12-.07.3.02.62.16.9.23,1.22.31,2.39.38,3.58-.1.43-.17.84-.39,1.14-.76.22-.26.33-.57.48-.87.2-.41.15-.41.55-.53,1.17-.34,2.17-.44,3.19-1.2.42-.32.8-.69,1.18-1.06.19-.18.37-.37.57-.54.12-.11.25-.22.38-.32.31-.19.32-.21.05-.06.48.08,1.09-.06,1.52-.29.15-.08.77-.45.28-.53h0Z"/>
  <path class="cls-17" d="M1019.73,305.48l17.83,5.89c23.89,7.96,88.4,25.63,106.02,43.64,26.47,26.89-59.27,122.91-60.39,147.42-.61,11.88-2.94,99.95,13.64,166.87,10.93,44.52,19.17,89.64,24.67,135.13l-72.42,16.15c-35.38,7.89-71.71,10.77-107.85,8.56l-92.67-27.05c-2.13-46.94-13.46-74.69-13.65-136.48l-11.02-191.41,8.1-90.29s17.72-18.35,19.44-23.02l50.21-36.86s-17.24,36.92,25.56,39.16c38.02,1.99,44.91-4.17,71.23-28.48,0,0,19.5-15.93,21.27-29.23Z"/>
  <path class="cls-17" d="M1170.52,499.13s-2.15,157.71,7.72,202.84c9.87,45.13,25.85,109.15,24.87,138.74-.97,29.58-131.12,56.98-194.72,56.22-63.59-.76-154.81,24.97-161.68-52.49-10.42-117.4,145.93-360.19,145.93-360.19l177.87,14.88Z"/>
  <path class="cls-1" d="M808.35,467.43c3.7,16.3,6.43,32.8,8.74,49.35,2.41,17.3,4.35,34.65,6.18,52.02,1.79,16.94,3.46,33.9,5.38,50.83,1.05,9.3,2.13,18.58,3.02,27.89,1.48,15.57,2.9,31.14,4.16,46.73.17,2.12.34,4.23.51,6.35.04.54,1.5.22,1.45-.39-1.27-16.23-2.72-32.44-4.25-48.64-.83-8.8-1.72-17.57-2.75-26.34-1.97-16.78-3.65-33.6-5.4-50.41-1.82-17.46-3.7-34.91-6.02-52.31-2.22-16.65-4.81-33.27-8.3-49.7-.41-1.93-.83-3.85-1.27-5.77-.13-.56-1.58-.19-1.45.39h0Z"/>
  <path class="cls-3" d="M1020.89,306.01c-2.78,6.27-6.68,12.18-10.75,17.67-9.04,12.17-20.45,22.79-33.98,29.77-8.3,4.28-17.31,7.12-26.58,8.28-5.61.7-11.32.88-16.97.71-4.56-.14-9.14-.55-13.61-1.5-8.78-1.87-18.55-6.57-20.04-16.39-.28-1.84-.25-3.76.15-5.58.86-3.99,1.73-7.98,2.59-11.97.15-.7.3-1.4.45-2.1.13-.62-.95-.47-1.21-.26-3.63,2.87-7.26,5.73-10.88,8.6l-2.78,2.19c-.35.28-.81.54-1.11.88-.33.37-.39.86-.49,1.35-.26,1.18-.44,2.39-.56,3.59-.78,7.78.91,16.64,6.48,22.45,4.42,4.61,10.73,7.25,16.76,9.01,8.73,2.55,17.92,3.4,26.99,3.29,10.44-.13,21.19-1.4,31.22-4.4,9.29-2.78,18.14-7.01,26.44-11.99,8.47-5.08,16.49-11.06,23.48-18.06,3.62-3.63,6.94-7.57,10.23-11.49,2.53-3.02,5.02-6.09,7.37-9.26,1.32-1.78,2.61-3.59,3.8-5.46.51-.81,1.1-1.65,1.47-2.54.04-.1.09-.19.13-.29.11-.25-.02-.46-.27-.55-5.74-2.12-11.48-4.23-17.22-6.35-.6-.22-1.7.64-.84.96,5.74,2.12,11.48,4.23,17.22,6.35l-.27-.55c-.73,1.74-1.92,3.36-2.99,4.91-4.25,6.16-9.11,11.9-14.03,17.53-6.4,7.32-13.48,13.73-21.47,19.28s-16.75,10.38-25.89,13.98c-9.42,3.71-19.36,5.61-29.43,6.47-9.54.81-19.24.59-28.66-1.22-6.85-1.32-13.92-3.49-19.64-7.6-6.33-4.56-9.32-12.23-9.57-19.87-.09-2.81.13-5.66.74-8.41.04-.19.2-.52.17-.71-.03-.27-.29.18-.13.17.38-.03,1.21-.96,1.5-1.19,4.06-3.21,8.12-6.42,12.18-9.62.34-.26.67-.53,1.01-.79l-1.21-.26c-.99,4.59-1.94,9.19-2.97,13.77-.33,1.47-.45,2.95-.37,4.45.48,9.02,7.91,14.71,15.93,17.35,8.9,2.93,18.62,3.2,27.9,2.81,9.98-.41,19.73-2.29,29-6.07,14.95-6.11,27.78-16.61,37.93-29.07,5.37-6.6,10.51-13.92,14-21.73.05-.12.11-.24.17-.36.33-.74-1.13-.72-1.38-.15Z"/>
  <path class="cls-19" d="M1013.14,206.86c1.88-5.95,4.05-12,7.41-17.3,1.26-1.99,2.9-4.24,4.9-5.41.35-.21.3-.11.55-.25-.06.04-.07.03-.11.03l-.55-.04c1,.95,1.7,2.27,2.25,3.51,1.55,3.5,1.82,7.42,1.41,11.2-.04.41,1.39.13,1.43-.24.48-4.38.09-9.02-2.18-12.89-.55-.93-1.17-2.37-2.42-2.06-3.32.83-5.7,4.65-7.29,7.35-3.01,5.08-5.05,10.73-6.82,16.34-.1.33,1.31.15,1.43-.24h0Z"/>
  <path class="cls-19" d="M1015.74,208.53c6.35-.21-1.51,13.78,3.3,13.69,1.28-.03,1.99-1.3,2.46-2.31.99-2.16,1.54-4.52,2-6.84.6-3,.86-5.62.51-8.64-.41-3.45-1.45-7.88-4.96-9.43-.46-.2-1.77.45-1.15.73,2.99,1.32,4.01,4.95,4.49,7.9.35,2.13.52,4.31.2,6.46-.38,2.55-.88,5.11-1.65,7.57-.28.9-.59,1.8-1.02,2.64-.15.28-.34.53-.49.81-.07.12-.19.2-.28.31.3-.35.26.22.16-.23s-.37-.79-.41-1.29c-.05-.62.01-1.25.08-1.87.17-1.53.46-3.04.62-4.57.27-2.65.11-5.9-3.32-5.78-.57.02-1.52.91-.55.87h0Z"/>
  <path class="cls-19" d="M901.09,166.8c-1.78.71-3.9-.69-5.26-1.75s-2.69-2.27-3.35-3.86c-.78-1.87-.35-3.91.17-5.79.55-1.98,1.17-3.94,1.83-5.89.09-.27-1.3-.12-1.43.26-.78,2.3-1.57,4.62-2.11,6.99-.51,2.18-.49,4.33.89,6.2,2.13,2.9,6.1,5.65,9.78,4.18.95-.38.05-.55-.5-.33h0Z"/>
  <path class="cls-19" d="M933.67,124.83c-17.33,4.19-35.07,8.44-53.03,7.57-5.06-.25-10.08-.93-15.01-2.1-.46-.11-1.7.59-.89.78,17.75,4.21,36.12,1.81,53.72-1.96,5.15-1.1,10.28-2.33,15.4-3.57.87-.21.68-.93-.19-.72h0Z"/>
  <path class="cls-16" d="M895.28,253.71c9.18-1.03,30.09,2.33,34.58,5.46,0,0-7.77,12.55-29.07,14.95-21.3,2.4-27.55-8.57-27.55-8.57,0,0,10.34-10.52,22.04-11.84Z"/>
  <path class="cls-14" d="M920.76,256.17s-11.76.43-21.06,1.47c-9.3,1.05-20.85,3.25-20.85,3.25,0,0-2.23-6.4,14.62-8.3,16.86-1.9,27.29,3.57,27.29,3.57Z"/>
  <path class="cls-5" d="M897.7,271.26c9.81-2.55,20.45-11.51,32.17-12.09,0,0-2.62,17.9-27.65,20.72-25.04,2.82-28.96-14.34-28.96-14.34,11.55-2.04,14.32,5.41,24.45,5.71Z"/>
  <path class="cls-5" d="M883.83,249.93c5.21-.98,8.78.65,11.06.39,2.29-.26,5.4-2.64,10.7-2.84,4.97-.19,27.18,9.61,25.03,11.44-2.15,1.84-19.31-5.26-35.15-3.47-15.83,1.78-20.5,11.34-23.01,10.03-2.51-1.31,6.48-14.62,11.37-15.54Z"/>
  <path d="M900.03,242.74l1.18,5.53c.19.85.88,1.48,1.74,1.58,5.92.69,28.42,3.28,33.77,3.1.13,0-.42,2.23-.3,2.2l1.25-.11c1.99-.44.4-7.11-1.52-7.81-5.82-2.13-11.03-3.6-14.25-4.28-4.02-.85-15.14-2.83-19.97-2.67-1.27.04-2.18,1.23-1.91,2.47Z"/>
  <path d="M866.8,256.25c-1.47,1.56-3.05,3.35-3.01,5.5.01.78.25,1.53.48,2.28.36,1.15.71,2.3,1.07,3.45.07.23.15.47.33.63.19.18.47.23.73.27.83.13,1.68.26,2.49.03.8-.23,1.53-.94,1.5-1.78-.01-.34-.15-.7-.04-1.02.22-.63,1.08-.64,1.71-.86,1.58-.57,1.73-2.68,2.3-4.26.78-2.14,2.72-3.66,4.8-4.58,1.05-.47,2.17-.82,3.1-1.49.93-.67,1.67-1.77,1.52-2.91"/>
  <path d="M890.76,243.31l.93,5.04c.02.87-.41,1.65-1.09,1.95-4.68,2.07-20,8.9-24.4,9.98-.11.03-.2.04-.31.04l-1.47.04c-1.71.05-1.66-4.23-.24-5.36,4.31-3.45,7.05-5.5,9.54-6.93,3.1-1.78,11.01-5.72,14.98-6.71,1.05-.26,2.03.68,2.07,1.95Z"/>
  <path d="M934.77,251.16c1.72,1.28,3.58,2.78,3.91,4.9.12.77.02,1.55-.08,2.33-.15,1.2-.31,2.39-.46,3.59-.03.24-.07.49-.21.68-.16.21-.42.3-.67.39-.79.27-1.61.55-2.44.46-.83-.09-1.67-.66-1.79-1.49-.05-.34.03-.71-.14-1.01-.32-.59-1.18-.44-1.83-.55-1.65-.29-2.16-2.34-3-3.79-1.13-1.97-3.31-3.13-5.52-3.68-1.11-.28-2.28-.44-3.31-.94-1.03-.5-1.95-1.45-2-2.6"/>
  <path class="cls-17" d="M1086.28,499.37l-6.84-172.27s67.87,12.28,91.81,55.99c22.26,47.28,59.7,209.18,62.75,241.38,9.04,95.7-.25,167.86-14.21,267.01-.43,3.08-3.14,5.34-6.25,5.19l-63.2-2.92-18.99-264.14-45.08-130.24Z"/>
  <path class="cls-7" d="M1099.04,364.52c-11.28,3.85-15.96,16.72-18.59,27.26-3.14,12.55-4.66,25.76-4.27,38.68.51,16.64,3.68,33.14,7.71,49.25,4.62,18.46,10.5,36.59,16.69,54.58,3.22,9.37,6.55,18.7,9.89,28.02.55,1.53.99,3.06,1.44,4.63,1.96,6.87,3.91,13.74,5.87,20.62,2.69,9.44,5.38,18.88,8.06,28.32,2.04,7.15,4.07,14.3,6.11,21.45.45,1.58.99,3.08,1.1,4.71.19,2.98.39,5.95.58,8.93.36,5.5.72,11.01,1.07,16.51.48,7.44.97,14.87,1.45,22.31.58,8.87,1.15,17.74,1.73,26.61.63,9.71,1.26,19.43,1.89,29.14s1.29,19.91,1.94,29.87c.63,9.72,1.26,19.44,1.9,29.16.58,8.88,1.15,17.76,1.73,26.64.48,7.45.97,14.9,1.45,22.35.36,5.52.72,11.05,1.08,16.57.19,3,.39,6,.58,9,.02.38.05.76.07,1.14.03.49,1.49.18,1.45-.39-.1-1.57-.2-3.14-.31-4.72l-.84-12.97c-.43-6.56-.85-13.11-1.28-19.67-.53-8.18-1.06-16.37-1.6-24.55-.61-9.33-1.21-18.65-1.82-27.98-.64-9.84-1.28-19.69-1.92-29.53-.64-9.89-1.29-19.78-1.93-29.66-.6-9.3-1.21-18.6-1.81-27.9-.54-8.24-1.07-16.48-1.61-24.71-.43-6.56-.85-13.11-1.28-19.67-.28-4.38-.57-8.75-.85-13.13-.1-1.58-.05-3.27-.31-4.83-.18-1.04-.59-2.08-.88-3.09-.81-2.85-1.62-5.69-2.43-8.54-2.48-8.72-4.96-17.43-7.45-26.15s-5.03-17.67-7.55-26.5c-1.2-4.22-2.28-8.51-3.62-12.7s-2.91-8.13-4.35-12.19c-1.66-4.66-3.3-9.33-4.92-14-3.19-9.19-6.29-18.4-9.22-27.68-5.41-17.18-10.29-34.6-13.41-52.35-2.65-15.1-4.07-30.61-2.17-45.89,1.49-11.93,3.26-24.71,9.23-35.36,2.62-4.68,6.35-9.06,11.57-10.84.84-.29.67-1.05-.2-.75h0Z"/>
  <path class="cls-20" d="M692.41,620.99c1.4.06,1.5-.99,1.5-2.11,0-2.33-.61-4.69-1.51-6.83-1.8-4.31-5.17-8.24-9.45-10.24-.5-.23-1.06-.48-1.62-.53-.41-.03-1.25.06-1.43.51-.13.33,1.27.18,1.44-.23-1,.23-1.3.35-.9.38.03,0,.05,0,.08.01.08.04.2.05.29.08.24.07.47.17.7.27.75.32,1.45.74,2.13,1.19,1.97,1.31,3.7,3.01,5.08,4.93,1.68,2.34,2.87,5.06,3.43,7.89.19.94.31,1.9.32,2.86,0,.33,0,.67-.05,1-.01.09-.06.2-.06.29,0,.59-1.21-.23.98-.14-.3-.01-.81.03-1.02.27-.15.17-.25.37.1.39h0Z"/>
  <path class="cls-10" d="M457.64,623.1l35.75,45.65,146.46-63.95c.2,12.33,9.95,23.72,18.78,37.42,0,0-121.4,92.24-136.68,101.65-54.04,33.29-79.03,3.7-92.88-19.52-7.97-13.37-13.33-83.53-6.38-96.57,1.58-2.97,35.61-4.47,34.96-4.68Z"/>
  <path class="cls-10" d="M386.17,504.53s19.76,9.99,30.79,23.94c8.31,10.52,75.55,132.41,82.55,148.91-3.84,6.3,14.84,18.07,12.05,24.91-6.5,15.95-18.27,3.46-19.14,20.64-.66,12.99-27.64,8.82-25.56,21.66-12.99-.82-21.79-8.15-28.32-14.97-7.05-7.37-36.55-62.47-36.55-62.47l-15.82-162.62Z"/>
  <path class="cls-20" d="M637.09,606.79c1.77,6.13,5.32,11.61,10.15,15.77.46.4,1.74-.28,1.12-.81-4.69-4.03-8.12-9.41-9.83-15.35-.18-.64-1.63-.25-1.45.39h0Z"/>
  <path class="cls-10" d="M222.06,370.77s3.56,59-3.63,78.99c-1.74,4.85-32.34,19.22-32.34,19.22l122.52,61.51,61.87-51.23s-47.44-22-49.19-27.82c-1.75-5.82-.1-49.69-.1-49.69"/>
  <path class="cls-13" d="M142.25,924.43l-4.79,39.34c-4.02,33-3.2,66.4,2.42,99.16l26.35,207.28s3.49,127.38-.27,199.57c-3.29,62.58,10.98,155.78,10.98,155.78l105.17-4.58,40.92-341.38-5.3-234.18,33.44-119-208.93-1.99Z"/>
  <path class="cls-13" d="M426.8,930.84l-23.11,323.05c1.12,17.38-4.72,84.48-9.84,101.13l-31.27,215.6-3,31.14-85.04,8.14,14.44-686.62,137.82,7.56Z"/>
  <path class="cls-9" d="M441.05,713.35c4.96-1.97,56.95-51.05,56.89-53.67-.02-.82-12.26-15.68-14.62-19.3-11.83-18.16-40.07-74.34-46.15-90.64-12.09-32.43-16.96-35.79-33.02-51.87-18.87-18.89-37.11-28.43-61.32-37.83l-16.13-5.21s25.98,28.9-25.71,38.6c-51.69,9.71-89.19-43.47-89.19-43.47,0,0-16.84,14.65-50.52,31.76-12.93,6.59-38.6,29.09-44.12,42.5-13.78,33.5-15.4,48.66-8.39,107.95l6.55,45.28,19.64-13.87c-3.33,41.16-4.34,106.21,0,170.77.61,8.66-4.88,57.84-4.21,66.5.39,5.13-2.9,41.63.07,45.71,2.8,3.86,20.72,6.28,25.74,7.77,53.81,15.96,198.76,4.6,198.76,4.6,22.04-3.72,40.37-6.1,59.61-16.52,13.63-7.38,16.15-11.65,23.43-18.3-4.35-18.33-5.01-37.56-6.31-56.3-2.1-30.12-6.07-61.69-7.52-91.88-.08-1.72.16-57.37.72-58.66,5.07-2.64,4.15.31,15.8-3.91Z"/>
  <path class="cls-9" d="M105.54,580.46s9.78,97,14.2,128.8c0,0,47.63,6.64,91.86-8.19,46.88-15.71-19.64-107.3-19.64-107.3l-86.42-13.32Z"/>
  <g>
    <path class="cls-9" d="M425.08,580.23c.99,26.37,1.88,96.49,1.25,129-.05,2.45-.1,4.69-.17,6.68,0,0,9.78.62,17.74-4.03,7.2-4.21,6.59-6.46,6.59-6.46v-8.71s-3.85,9.33-21.68,11.94"/>
    <path class="cls-3" d="M424.36,580.42c.6,15.99.83,31.99,1.06,47.99.27,19.55.44,39.1.4,58.65-.02,9.68-.06,19.37-.38,29.05,0,.08.23.09.25.09,6.13.37,12.84-1.05,18.21-4,2.42-1.33,5.85-3.22,7.08-5.89.37-.8.24-1.72.24-2.58,0-2.4,0-4.81,0-7.21,0-.26-1.34.08-1.44.33-.76,1.82-2.33,3.4-3.79,4.66-4.74,4.1-10.96,5.98-17.05,6.9-.57.09-1.3.65-.28.5,6.36-.96,12.9-2.91,18-7,1.74-1.39,3.66-3.22,4.54-5.32l-1.44.33c0,2.91.19,5.88,0,8.77-.08,1.25-1.11,2.27-1.98,3.07-3,2.73-6.84,4.65-10.73,5.7-2.92.79-5.98,1.18-9.01,1.21-.32,0-.68.04-1,0-.55-.09-.26.19-.16-.33.17-.87.06-1.88.08-2.77.03-1.17.06-2.34.08-3.52.1-5.12.15-10.24.18-15.37.08-12.88.03-25.77-.07-38.65-.1-13.43-.27-26.85-.5-40.27-.18-10.61-.39-21.23-.75-31.83-.03-.96-.07-1.92-.1-2.88,0-.22-1.46,0-1.45.39h0Z"/>
  </g>
  <path class="cls-10" d="M234.49,464.92c31.44,14.69,66.57,13.37,92.59-9.12-6.95-3.58-6.71-10.07-7.13-11.57-1.55-5.58-1.07-43.77-1.07-43.77l-98.76-31.87s6.95,60.05-.54,78.9c-.4,1.01-3.69,5.5-6.16,7.62,5.89,5.02,13.99,6.5,21.08,9.81Z"/>
  <path class="cls-20" d="M339,405c-3.09,5.55-5.9,11.3-9.22,16.7-.05.08-.07.16-.09.24-.31-.22-.7-.24-.97.18-2.34,3.64-6.4,5.68-8.43,9.54-1.75,3.33-.3,7.61-.28,11.52-2.61.57-6.97.63-10.28,1.03-22.44.74-23.04-2.25-53.93-20.12-9.8-5.67-8.33-13.41-10.23-14.76,30.69-2.43,61.27-2.69,93.42-4.33Z"/>
  <path d="M194.43,333.46s-5.37-14.42-12.73-49.14c-6.59-31.09,41.44-59.55,70.96-65.75,16.23-3.41,71.33.68,85.83,6.63s22.87,24.74,25.96,52.13c0,0-10.06-26.84-27.43-25.31-14.18,1.25-60.32-3.47-72.05,2.26-11.73,5.73-37.61,17.84-36.55,61,.29,11.76-21.2.45-26.57,7.83-5.37,7.38-7.41,10.35-7.41,10.35Z"/>
  <path class="cls-10" d="M220.67,382.63l-6.86-42.12-4.47-47.29,16.76-36.88,32.9-18.06,38.36-.7s31.05,6.06,40.86,8.14c9.81,2.08,17.21,13.57,24.44,26.46,7.22,12.9,5.5,35,5.5,35,.31.74-.36,4.14-.48,4.84-1.47,8.92-1.69,16.66-2.94,23.32-.58,3.16-.43,6.07.66,8.94,4.27,11.31,4.46,16.24,3.88,23.32-.79,9.66-2.16,17.93-5.32,25.65-3.35,8.2-7.64,17.08-8.52,18.82,0,0-9.65,18.47-11.85,20.35-2.2,1.87-5.53,3.68-7.13,3.93-1.6.25-22.6,2.64-22.6,2.64l-9.8.24c-3.33.08-6.64-.5-9.75-1.71-8.42-3.27-32.47-13.13-39.12-17.33-8.95-5.66-20.48-30.41-20.48-30.41"/>
  <path d="M227.98,341.28c.35,3.66.92,18.21,1.49,21.77l-18.96.46c-6.26-12.3-13.77-26.77-16.08-30.04-3.62-5.11-5.28-30.59-5.91-40.18l-.14-2.07c-.62-9.2,7.53-24.21,21.82-40.15,15.72-17.55,44.52-28.39,73.35-27.63,2.74.07,5.48.25,8.14.52,25.13,2.59,46.41,14.13,63.26,34.32,12.15,14.56,13.67,31.73,13.18,42.26-1.61-20.68-9.52-34.94-9.85-35.54-7.5-13.78-16.44-17.43-22.61-18.07-5.39-.55-9.34,1.06-10.12,1.41-6.01,1.63-14.93,1.19-21.38.52-4.8-.49-8.63-1.15-9.67-1.34-3.32-2.09-8.22-3.52-14.18-4.14-13.86-1.43-33.7,1.88-37.55,8.12-4.27,6.92-13.5,31.31-13.32,36.9"/>
  <path class="cls-10" d="M222.52,383.49c-10.68,11.73-18.79-9.72-18.79-9.72-11.09-12.53-11.5-26.23-11.39-35.61.11-9.38,10.42-9.55,10.42-9.55,8.78.69,12.83,5.27,21.03,34.56"/>
  <path d="M355.03,254.85c-6.74-10.03-19.58-22.46-26.98-32.01-3.38-.2-20.03,0-23.53-.02-35.66-.22-82.78,21.93-86.91,35.04-2.58,8.18.86,52.12,2.55,56.07,4.63,10.83,6.82,25.17,6.82,25.17.89-16.56,12.06-35.37,13.35-41.08,1.29-5.72-7.2-32.3-5.41-33.5,1.79-1.2,33.96-12.27,70.31-12.96,10.72-.2,21.48.37,31.06,1.31-.07-.11,18.82,2.1,18.74,1.99Z"/>
  <path d="M288.98,327.04c-2.2-1.07-4.73-1.93-6.12-.63-.33.3-1.21,1.17-1.59,2.62-.49,1.84.29,3.9,1.47,5.13,1.57,1.65,4.14,1.87,6.08.91,2.63-1.31,3.42-4.53,2.7-6.84-.13-.42-.75-.31-2.53-1.18"/>
  <path d="M352.74,325.17c2.15-1.18,4.72-.27,6.18.96.34.29,1.27,1.11,1.72,2.53.58,1.82-.1,3.91-1.21,5.19-1.49,1.72-4.04,2.07-6.02,1.21-2.69-1.18-3.63-4.36-3.03-6.7.11-.43.64-2.24,2.37-3.19"/>
  <path d="M335.03,334.27s8.55-8.98,14.95-9.72c9.34-1.09,11.79.96,15.21,5.17,0,0-6.24-4.33-12.8-3.39-6.27.9-17.37,7.94-17.37,7.94Z"/>
  <path d="M303.53,332.17s-13.46-7.73-19.9-7.63c-9.4.15-20.36,6.15-23.2,10.77,0,0,14.41-8.76,21.04-8.69,6.33.07,22.06,5.55,22.06,5.55Z"/>
  <path d="M299.51,293.56c.75,2.1,1.49,4.22,2.24,6.34.57,1.61,1.98,5.25,2.53,6.85-5.62.47-10.97.09-14.5.7-6.99,1.19-14.32,1.96-20.62,5.36-3.02,1.63-5.53,3.43-7.61,6.01-.66.81-2.13,3.84-3.59,3.72-.6-.05-.68-2.94-.69-3.24-.13-5.84,3.59-9.62,8.64-12.82,10.31-6.53,21.68-10.28,33.58-12.91"/>
  <path d="M370.19,307.87s-3.22-2.04-3.24-2.06c-8.99-5.76-18.97-8.7-29.43-10.52-.69,2.12-1.38,4.25-2.07,6.39-.53,1.63-1.57,4.53-2.09,6.15,4.95.1,9.37-.26,12.47.11,6.15.72,12.66,1.4,18.16,4.33.44.23,4.11,1.75,4.52,2,2.81-2.33,2.34-5.67,1.68-6.4Z"/>
  <g>
    <path class="cls-4" d="M328.96,371.12c-2.71,1.54-6.91,1.3-9.72-.39-.62-.37-2.66.05-1.79.58,3.71,2.23,9.74,2.3,13.23.31.35-.2.28-.47-.17-.61-.46-.15-1.19-.1-1.56.11"/>
    <path class="cls-4" d="M316.24,370.54c-1.87-.85-3.95-1.27-6.02-1.38-.3-.01-.69.11-.91.32-.17.16-.2.38.03.5.97.54,2.19.74,3.3.69.35-.01.81-.12,1-.43.18-.29-.17-.47-.44-.46-.92.04-1.87-.12-2.67-.57-.3.27-.59.55-.88.82,1.85.1,3.71.49,5.38,1.25.33.15.8.04,1.09-.15.22-.14.44-.46.11-.61"/>
    <path class="cls-4" d="M308.04,371c-2.42,0-5.29-1.01-6.52-2.84-1.86-2.77-.3-7.23,2.67-9.1.32-.2.14-.45-.19-.52-.44-.09-.95.09-1.28.3-2.59,1.63-4.21,5.3-3.75,7.93.43,2.45,2.79,4.12,5.7,4.76.87.19,1.79.31,2.69.31.37,0,1.02-.13,1.19-.43.17-.3-.16-.42-.51-.42"/>
    <path class="cls-4" d="M333.36,369.76c-.14-.28.1-.47.29-.47.65,0,1.32-.2,1.86-.68.22.26.44.52.66.79-1.3.18-2.6.65-3.75,1.48-.23.17-.57.07-.78-.1-.16-.13-.33-.44-.1-.6"/>
    <path class="cls-4" d="M331.54,370.16c1.29-.93,2.74-1.43,4.2-1.63.21-.03.49.08.66.28.13.16.16.37,0,.51"/>
    <path class="cls-4" d="M338.39,369.97c1.57-.1,3.39-1.22,4.12-3.1,1.1-2.84-.07-6.15-2.08-7.9-.22-.19-.11-.45.1-.52.28-.1.62.05.85.25,1.75,1.52,2.92,4.04,2.73,6.69-.18,2.47-1.64,4.23-3.51,4.99-.55.23-1.15.38-1.73.42-.24.01-.67-.09-.79-.38-.13-.29.09-.43.31-.44"/>
  </g>
  <path class="cls-8" d="M320.62,389.24c-5.38.06-21.57.67-21.57.67,0,0,5.76,4.88,21.92,4.69,16.15-.19,21.42-5.01,21.42-5.01l-21.76-.35Z"/>
  <g>
    <path class="cls-9" d="M210.99,450.37s29.94,47.56,81.3,44.13c51.36-3.43,40.65-29.54,40.65-29.54l-6.68-10.94,17.64,7.4s5.32,12.93-.81,25.06c-6.13,12.12-31.89,22.66-64.78,19.89-19.3-1.63-44.64-13.16-60.03-27.21-18.42-16.82-19.78-19-19.78-19l12.5-9.79Z"/>
    <path class="cls-3" d="M210.26,450.56c3.75,5.94,8.59,11.34,13.55,16.27,10.84,10.77,23.89,19.59,38.5,24.32,8.74,2.83,17.94,4.13,27.12,3.81,9.48-.33,19.37-1.64,28.26-5.09,8.22-3.19,16.43-9.22,16.87-18.77.09-1.97-.12-4.02-.75-5.89-.19-.57-.51-1.02-.82-1.54-1.62-2.65-3.23-5.29-4.85-7.94-.39-.64-.78-1.28-1.17-1.91l-1.31.51c4.58,1.92,9.16,3.84,13.73,5.76l3.09,1.29c.23.09.52.17.72.3.16.11-.1-.21.03.11,1.13,2.75,1.66,5.87,1.93,8.81.49,5.5-.31,11.22-2.89,16.15-1.39,2.66-3.53,4.89-5.85,6.77-6.45,5.21-14.59,8.21-22.56,10.15-10.99,2.67-22.46,3.29-33.71,2.46-10.17-.74-20.06-3.65-29.43-7.58-9.82-4.12-19.26-9.44-27.59-16.09-4.21-3.37-8.11-7.14-12.05-10.82-2.61-2.43-5.21-4.88-7.75-7.38-1.14-1.13-2.29-2.26-3.37-3.44-.24-.26-.5-.72-.78-.92.23.16-.34.33.02.21.28-.09.62-.48.84-.66l3.07-2.4c2.35-1.84,4.7-3.68,7.05-5.52.47-.37.93-.73,1.4-1.1.61-.48-.83-.37-1.13-.13-4.17,3.26-8.33,6.53-12.5,9.79-.04.03-.21.17-.16.26.71,1.12,1.85,2.08,2.77,3,4.99,5.03,10.22,9.81,15.44,14.59,14.05,12.87,31.68,22.28,50.21,26.79,9.41,2.29,19.17,2.78,28.82,2.25,9.09-.5,18.18-2.02,26.79-5.02,6.4-2.23,12.82-5.33,17.77-10.06,5.69-5.44,7.68-13.45,7.1-21.15-.23-3.02-.8-6.06-1.81-8.91-.13-.38-.17-.56-.48-.77-.51-.36-1.29-.54-1.87-.78-4.83-2.03-9.66-4.06-14.49-6.08-.39-.16-.77-.32-1.16-.49-.2-.09-1.52.16-1.31.51,1.22,2,2.44,4,3.67,6,.99,1.61,2.22,3.23,3.02,4.95.56,1.21.75,2.73.86,4.04.7,8.2-4.71,14.65-11.64,18.31-7.61,4.02-16.48,5.52-24.96,6.33-9.66.92-19.29.43-28.7-2.05-14.98-3.95-28.47-12.26-39.76-22.75-6.03-5.6-11.39-11.81-16.1-18.55-.07-.1-.14-.21-.2-.31-.26-.41-1.62.12-1.45.39Z"/>
  </g>
  <path class="cls-19" d="M216.03,355.34c-1.44-4.44-3.09-8.87-5.39-12.95-1.11-1.98-2.39-3.96-4.08-5.5-.64-.59-1.42-1.22-2.28-1.45-1.12-.31-1.78.65-2.32,1.47-2.26,3.43-2.65,7.71-2.18,11.7.05.39,1.51.09,1.45-.39-.38-3.21-.19-6.54,1.11-9.54.45-1.05,1.04-2.17,1.88-2.97l-1.12.37c.14.02-.08-.06.04,0,.13.07.3.11.44.17.6.28,1.12.7,1.61,1.14,2.47,2.24,4.13,5.36,5.54,8.33,1.53,3.23,2.77,6.6,3.87,10,.14.43,1.58.02,1.45-.39h0Z"/>
  <path class="cls-19" d="M212.5,356.01c-5.96-.14-2.35,7.75-2.77,10.99-.02.18-.11.37-.13.54,0,.01-.12.19-.12.21-.01-.03.36.08.38-.04,0,.01-.4-.42-.42-.45-.24-.32-.41-.69-.58-1.06-.79-1.77-1.25-3.7-1.64-5.58-.49-2.34-.74-4.38-.51-6.75.26-2.68.89-6.56,3.65-7.81.91-.41.1-1.12-.62-.79-2.67,1.21-3.74,4.16-4.23,6.85-.36,1.98-.54,4.09-.23,6.09.36,2.36.84,4.73,1.61,6.99.35,1.03.83,2.71,1.86,3.31.85.49,1.85-.01,2.24-.84.44-.93.23-2.13.1-3.1-.2-1.49-1.91-7.63.9-7.57.66.02,1.5-.97.52-1h0Z"/>
  <path class="cls-19" d="M313.34,307.81c2.79-1.25,4.69-3.81,5.41-6.75.91-3.68-.04-7.5-1.38-10.95-.13-.33-1.55.12-1.45.39,1.26,3.24,2.2,6.84,1.51,10.32-.56,2.82-2.23,5.6-4.93,6.81-.23.1-.38.21-.18.37.19.15.83-.11,1.01-.19h0Z"/>
  <path class="cls-16" d="M323.98,385.61c-8.05.1-25.74,6.01-29.27,9.67,0,0,8.09,11.5,26.76,11.26,18.66-.24,22.86-11.89,22.86-11.89,0,0-10.09-9.17-20.34-9.04Z"/>
  <path class="cls-14" d="M302.25,391.18s10.21-1.02,18.36-1.13c8.15-.1,18.37.66,18.37.66,0,0,1.23-6.62-13.55-6.44-14.78.19-23.18,6.9-23.18,6.9Z"/>
  <path class="cls-5" d="M323.83,403.33c-8.76-1.33-18.94-8.91-29.12-8.05,0,0,4.23,17.44,26.17,17.17,21.94-.28,23.44-17.79,23.44-17.79-10.2-.6-11.77,7.12-20.49,8.68Z"/>
  <path class="cls-5" d="M333.46,380.45c-4.61-.34-7.51,1.72-9.52,1.75-2,.03-4.95-1.96-9.56-1.51-4.31.42-22.42,12.87-20.36,14.43,2.06,1.56,16.11-7.59,29.98-7.77,13.88-.18,18.96,8.73,20.98,7.12,2.02-1.61-7.21-13.71-11.53-14.03Z"/>
  <path class="cls-10" d="M158.47,702.02c17.76-3.5,23.79-3.63,41.22-8.74,11.98-3.51,23.02-9.07,33.59-15.52,7,18.16,13.8,35.41,19.54,49.04l195.92-41.53,19.02,35.86c-52.52,27.99-137.91,79.59-201.22,91.87-17.78,3.45-38.14,8.97-54.52-1.27,0,0-22.93-9.1-56.6-72.77-5.13-9.7-12.1-23.01-16.43-32.56,3.21-.77,16.29-3.75,19.49-4.38Z"/>
  <path class="cls-10" d="M441.3,732.05l17.71-8.65s49.13-3.71,62-9.52c9.14-4.57,17.58-10.44,25.08-17.47l12.15-1.63c5.6-.75,10.71-3.49,14.47-7.75l2.9-3.28s15.86,2.16,16.71-2.9c.86-5.06-4.92-7.48-10.53-9.83-5.61-2.35-101.7-4.84-101.7-4.84,6.06-6.11,20.33-10.26,27.35-15.18,10.83-7.48,12.2-14.47,5.18-16.49-4.33-1.25-14.86,1.14-19.91,6.97-5.03,5.81-38.97,12.07-48.83,21.23-9.85,9.15-11.44,28.01-11.44,28.01-.75.89-4.57,3.52-4.57,3.52.27,1.74,13.44,37.8,13.44,37.8Z"/>
  <path class="cls-20" d="M439.85,737.76c5.18-3.51,10.36-7.03,15.54-10.54l3.77-2.55c.33-.23.7-.44,1.02-.69.57-.46-.08.21-.36.04.22.13,1.02-.08,1.27-.1,1.03-.08,2.05-.17,3.08-.26,7.94-.68,15.88-1.49,23.79-2.46,9.01-1.11,18.09-2.3,26.92-4.46,3.82-.93,7.25-2.2,10.71-4.09,6.48-3.53,12.59-7.71,18.2-12.49,1.34-1.14,2.64-2.31,3.93-3.51l-.82.38c3.54-.48,7.07-.95,10.61-1.43,5.71-.77,10.9-2.66,15.19-6.64,1.64-1.52,3.07-3.3,4.55-4.97l-1.05.38c4.28.58,8.96.87,13.19-.08,2.07-.46,4.48-1.46,4.77-3.83.49-3.94-3.16-6.37-6.24-7.91-1.86-.93-3.82-1.99-5.89-2.4-1.03-.2-2.07-.32-3.11-.43-3.68-.4-7.38-.64-11.07-.87-11.18-.7-22.37-1.15-33.56-1.58-11.53-.44-23.07-.83-34.6-1.18-6.04-.18-12.08-.39-18.12-.52-.09,0-.18,0-.27,0-.38,0-1.01.11-1.16.53-.13.38.12.69.53.7,4.43.12,8.87.24,13.3.37,10.15.3,20.3.62,30.45.99,11.14.4,22.28.83,33.42,1.4,7.39.38,14.88.59,22.21,1.61.83.12,1.31.16,1.97.38,1.54.51,3.08,1.27,4.53,1.99,1.7.85,3.48,1.84,4.69,3.34.93,1.16,1.59,3,.96,4.46-.35.81-1.23,1.22-2.02,1.49-2.43.83-5.2.81-7.73.74-1.83-.05-3.65-.33-5.47-.42-.7-.03-1.08.22-1.53.71-.8.88-1.58,1.79-2.37,2.68-2.7,3.04-6.04,5.42-9.92,6.7-2.23.73-4.53.99-6.84,1.31l-7.62,1.02c-.53.07-1.1.1-1.63.22-.89.2-1.46.98-2.12,1.57-1.03.94-2.09,1.85-3.16,2.74-3.75,3.13-7.73,6-11.88,8.59-3.18,1.98-6.51,4.09-10.05,5.36-4.74,1.7-9.81,2.6-14.76,3.46-6.28,1.09-12.61,1.93-18.94,2.69-8.61,1.02-17.23,1.71-25.86,2.56-.68.07-1.13.36-1.68.74l-4.65,3.15c-4.24,2.87-8.48,5.75-12.72,8.62-.85.58-1.7,1.15-2.55,1.73-.99.67.47,1.23,1.16.76h0Z"/>
  <path class="cls-20" d="M574.69,683.59c-5.93-.27-11.93.28-17.85.66-7.35.47-14.7,1.03-22.06,1.31-2.98.11-5.99.22-8.96-.02-.76-.06-1.86,1.02-.66,1.12,5.9.48,11.94-.06,17.84-.42,7.36-.44,14.71-1.01,22.07-1.37,2.98-.15,5.98-.3,8.97-.16.75.03,1.86-1.06.66-1.12h0Z"/>
  <path class="cls-20" d="M544.12,696.3c-9.63,1.32-19.26,2.64-28.89,3.96-1.36.19-2.72.37-4.09.56-.8.11-1.51,1.03-.27.86,9.63-1.32,19.26-2.64,28.89-3.96,1.36-.19,2.72-.37,4.09-.56.8-.11,1.51-1.03.27-.86h0Z"/>
  <g>
    <path class="cls-9" d="M145.89,512.58s46.35-8.36,67.05,61.3c20.7,69.67,24.63,116.47,24.63,116.47,0,0-29.17,14.84-58.83,17.42-29.66,2.58-58.99,1.5-58.99,1.5l-2.65-13.24s46.01,1.48,74.9-4.57,39.46-11.33,39.46-11.33"/>
    <path class="cls-3" d="M145.77,512.9c4.55-.82,10.19-.16,14.9.92,12.23,2.82,22.85,10.15,30.94,19.62,15.31,17.91,21.15,41.36,27.06,63.61,5.7,21.46,10.55,43.16,14.24,65.06,1.08,6.41,2.06,12.85,2.89,19.3.25,1.94.48,3.88.7,5.82.1.92.03,2.07.3,2.96.03.11.02.24.03.35l.29-.34c-4.83,2.46-9.89,4.53-14.94,6.47-11.28,4.34-22.97,7.83-34.92,9.72-6.96,1.11-14.02,1.54-21.05,1.93s-13.53.61-20.31.73c-8.27.14-16.55.14-24.81-.1-.27,0-.53-.01-.8-.03-.24-.01.14,0,.17.13-.01-.08-.06-.19-.05-.27.04-.45-.22-1.09-.31-1.53l-.53-2.67c-.58-2.92-1.17-5.84-1.75-8.77l-1.18.53c13.48.43,27.02.19,40.48-.56,10.57-.58,21.17-1.49,31.59-3.41,10.68-1.96,21.33-4.6,31.69-7.87,3.86-1.22,7.86-2.45,11.5-4.26.86-.43-.46-.49-.86-.29-2.51,1.25-5.93,2.39-8.84,3.35-10.03,3.32-20.36,5.81-30.7,7.92-10.11,2.07-20.45,3.04-30.74,3.69-9.5.6-19.02.86-28.53.9-3.53.01-7.07,0-10.6-.06-1.03-.02-2.05-.04-3.08-.06-.27,0-.54-.01-.81-.02-.14,0-.37-.01-.18,0-.25,0-1.27.11-1.18.53.88,4.41,1.77,8.83,2.65,13.24.02.1.19.14.27.14,14.78.54,29.64.28,44.4-.48,11.43-.59,22.74-1.54,33.91-4.16,9.27-2.18,18.37-5.14,27.22-8.65,4.45-1.77,8.91-3.63,13.19-5.8.13-.06.31-.18.29-.34-.66-7.81-1.85-15.61-3.09-23.35-3.34-20.97-7.8-41.77-13.05-62.35-1.74-6.83-3.57-13.64-5.49-20.43s-3.74-13.31-6.13-19.79c-3.58-9.71-8.22-19.12-14.45-27.43-7.94-10.59-18.69-19.2-31.54-22.91-5.74-1.65-12.28-2.66-18.25-1.69-.09.02-.19.03-.28.04-.62.11-1.25.83-.24.65h0Z"/>
  </g>
  <path class="cls-20" d="M253.31,726.15c-11.98,6.44-17.32,19.87-20.2,32.46-.1.42,1.65.16,1.75-.3,2.77-12.13,7.87-25.66,19.47-31.89,1.03-.56-.59-.5-1.03-.27h0Z"/>
  <path class="cls-10" d="M634.83,649.87l21.4-8.07s30.86,6.36,45.27,3.48c10.34-2.47,20.3-6.37,29.59-11.58l32.88-5.96s15.45,5.49,17.56.76c2.11-4.73-3.12-8.31-8.2-11.78-5.08-3.47-87.81-25.23-87.81-25.23,7.62-4.63,15.62-8.61,23.9-11.88,12.76-4.94,16.3-14.3,9.73-17.77-4.05-2.14-23.72.7-28.34,7.17-4.62,6.46-22.69,3.93-34.88,10.7-12.19,6.77-18.45,24.72-18.45,24.72-6,4.4-15.7,8.76-15.7,8.76-1.77,13.32,13.03,36.69,13.03,36.69Z"/>
  <path class="cls-20" d="M757.58,628.92c1.02-.71.4-2.74.04-3.64-.66-1.64-1.85-3.17-3.4-4.04-3.01-1.69-6.63-2.49-10.02-2.94-2.83-.38-5.71-.51-8.57-.37-.77.04-3.25-.15-3.67.78-.02.07,0,.14.05.19.23.22.7.14.98.13.85-.03,1.7-.13,2.55-.23l.2-.79c-4.53.65-8.98,1.77-13.26,3.4s-8.21,3.3-11.73,5.9c-.65.48.79.5,1.16.23,3.32-2.46,7.29-4.09,11.14-5.55,4.03-1.53,8.22-2.58,12.49-3.19.69-.1,1.22-.9.2-.79-.68.08-1.89-.06-2.52.22-.38.17-.5.64-.28.69.21.04.55-.07.77-.09,2.26-.22,4.55-.18,6.81-.03,3.31.22,6.65.77,9.77,1.92,1.73.63,3.39,1.36,4.6,2.81.61.74,1.09,1.58,1.4,2.48.18.51.29,1.02.32,1.56,0,.1-.14,1.07.06.92-.8.56.44.73.9.42h0Z"/>
  <path class="cls-20" d="M732.11,617.84c.01-.89-1.91-1.27-2.52-1.47-1.87-.61-3.77-1.12-5.67-1.62-4.1-1.07-8.24-2.01-12.44-2.64-.97-.15-4.52-1.1-5.13.25-.34.76,1.12.76,1.39.17-.37.83-.58.1-.16.29.07.03.41,0,.48.01.56.02,1.13.1,1.69.17,1.67.21,3.32.51,4.97.82,2,.38,3.98.81,5.96,1.3s3.92,1,5.87,1.56c.95.27,1.89.55,2.82.88.33.12.65.28.98.38.29.09.29.34.29,0,0,.76,1.46.55,1.47-.11h0Z"/>
  <path class="cls-20" d="M692.19,621.77c1.37.13,1.54-.99,1.61-2.03.15-2.39-.34-4.86-1.14-7.1-1.56-4.38-4.74-8.62-8.94-10.8-.45-.24-.97-.51-1.49-.56-.4-.04-1.28.04-1.48.47-.1.21,1.25.12,1.43-.26-.96,2.04-1.34.11-.91.38.08.05.21.06.3.09.25.09.48.21.72.33.72.37,1.39.81,2.04,1.29,2.01,1.5,3.72,3.41,5.03,5.55,1.5,2.45,2.5,5.23,2.88,8.09.13.96.19,1.94.13,2.91-.02.33-.04.67-.13.99-.21.8-.27-.05.91.07-.31-.03-1.65.52-.94.59h0Z"/>
  <path class="cls-20" d="M636.98,604.54c-1.28,6.06,1.19,12.56,6.2,16.23.31.22,1.53-.36,1.37-.48-4.91-3.59-7.4-10.06-6.14-16.02.05-.26-1.35-.06-1.42.27h0Z"/>
  <path class="cls-10" d="M1128.83,1011.12c7.84-9.38,18.16-22.16,18.08-24.32-.08-2.16,1.55-16.63,3.03-29.29,1.04-6.41-2.98-12.59-8.97-13.79-1.56-.31-13.52,27.97-25.36,21.49l5.31-26.05c2.86-8.15,6.67-15.86,11.36-22.95,6.33-8.42,25.07-21.47,25.07-21.47l8.08.5,48.29.85,1.24,42.3s-8.91,61.24-14.89,67.55c-5.99,6.31-24.15,10.9-24.15,10.9-6.51,9.66-21.8,7.38-21.8,7.38-15.64,12.07-16.11-1.16-16.11-1.16-.44.55-1.01.95-1.65,1.15-6.96,2.34-12.23-7.54-7.52-13.1Z"/>
  <path class="cls-20" d="M1167.69,973.92c.22,8.3-1.2,16.6-4.32,24.3-1.41,3.48-3.78,6.69-6.2,9.54s-5.09,5.35-8.06,7.52c-3.69,2.7-7.53,5.34-11.86,6.87-.97.34-.06.6.52.39,3.89-1.38,7.09-3.59,10.51-5.82,3.15-2.06,6.05-4.5,8.62-7.24s4.88-5.88,6.79-9.18c2.12-3.67,3.28-8.11,4.16-12.23,1.02-4.78,1.43-9.66,1.3-14.54,0-.3-1.46-.06-1.45.39h0Z"/>
  <path class="cls-20" d="M1181.31,978.75c-.08,4.91-.46,9.99-1.6,14.78-.57,2.41-1.41,4.76-2.51,6.98s-2.55,4-4.09,5.8c-3.37,3.96-7.4,7.37-11.19,10.91-2.61,2.42-5.04,4.88-8.15,6.7-.85.5-.07,1.21.63.8,4.95-2.89,8.95-7.31,13.13-11.2,1.98-1.84,3.98-3.65,5.78-5.66,1.54-1.71,3.06-3.52,4.32-5.46s2.12-4.23,2.82-6.42c1.77-5.52,2.23-11.59,2.32-17.36.01-.73-1.45-.49-1.46.12h0Z"/>
  <path class="cls-20" d="M1195.74,981.15c-.12-.03.02.49.03.73,0,.65-.1,1.31-.2,1.95-.35,2.38-.86,4.75-1.35,7.1-.74,3.54-1.31,7.17-2.24,10.66-.98,3.66-4.12,6.67-6.83,9.16-1.63,1.51-3.4,2.88-5.3,4.04-.8.49-1.63.94-2.49,1.3-.27.11-.55.18-.81.3-.41.18-.32-.1-.15.15-.29-.42-1.69.07-1.34.58s1.56.09,2-.05c1.58-.52,3.07-1.37,4.46-2.27,3.74-2.43,6.94-5.6,9.72-9.08s3.04-8.2,3.92-12.36c.65-3.09,1.34-6.17,1.83-9.29.12-.74.85-3.44-.34-3.73-.49-.12-1.71.61-.88.82h0Z"/>
  <path class="cls-1" d="M779.86,553.81c4.16,4.3,7.6,9.31,10.78,14.35,3.97,6.3,7.53,12.88,10.72,19.62,3.18,6.71,6.02,13.61,8.19,20.71,1.72,5.61,3.2,11.54,3.11,17.44-.09,5.49-.54,11.07-1.08,16.54-.58,5.88-1.59,11.72-3.49,17.33-.14.41,1.29.23,1.44-.21,3.43-10.11,3.83-20.8,4.45-31.36.36-6.03-.63-11.83-2.24-17.63-4.01-14.38-10.71-28.23-18.47-40.94-3.52-5.76-7.33-11.51-12.04-16.38-.31-.32-1.68.2-1.35.54h0Z"/>
</svg>