<?xml version="1.0" encoding="UTF-8"?>
<svg id="Layer_1" data-name="Layer 1" xmlns="http://www.w3.org/2000/svg" xmlns:xlink="http://www.w3.org/1999/xlink" viewBox="0 0 1334 1000">
  <defs>
    <style>
      .cls-1 {
        fill: #131429;
      }

      .cls-2 {
        fill: #040404;
      }

      .cls-3 {
        fill: none;
        stroke: #4f2e25;
        stroke-width: .75px;
      }

      .cls-3, .cls-4 {
        stroke-miterlimit: 10;
      }

      .cls-5 {
        fill: #101931;
      }

      .cls-6 {
        fill: #010101;
      }

      .cls-7 {
        fill: #5f6161;
      }

      .cls-8 {
        fill: #222323;
      }

      .cls-9 {
        fill: url(#linear-gradient-2);
      }

      .cls-10 {
        fill: #653c29;
      }

      .cls-11 {
        fill: #231f20;
      }

      .cls-12 {
        fill: #c9c1a1;
      }

      .cls-13 {
        fill: #273238;
      }

      .cls-14 {
        fill: #715446;
      }

      .cls-15 {
        fill: #100f0e;
      }

      .cls-16 {
        fill: #f1eef7;
      }

      .cls-17 {
        fill: #3d4e83;
      }

      .cls-18 {
        fill: #181311;
      }

      .cls-19 {
        fill: #a66e53;
      }

      .cls-20 {
        fill: #0a2f44;
      }

      .cls-21 {
        fill: url(#linear-gradient);
        opacity: .5;
      }

      .cls-22 {
        fill: #3d3d3d;
      }

      .cls-23, .cls-4 {
        fill: #fff;
      }

      .cls-24 {
        fill: #a3a3a3;
      }

      .cls-25 {
        fill: #f2ebd1;
      }

      .cls-26 {
        fill: #24180f;
      }

      .cls-27 {
        fill: #628e9f;
      }

      .cls-28 {
        fill: #bb997a;
      }

      .cls-29 {
        fill: #825639;
      }

      .cls-30 {
        fill: #343535;
      }

      .cls-31 {
        fill: #381c13;
      }

      .cls-4 {
        stroke: #231f20;
        stroke-width: .47px;
      }

      .cls-32 {
        fill: #a38166;
      }

      .cls-33 {
        fill: #29305e;
      }

      .cls-34 {
        fill: #87654d;
      }

      .cls-35 {
        fill: #331f17;
      }

      .cls-36 {
        fill: #4f2e25;
      }

      .cls-37 {
        fill: #11131f;
      }
    </style>
    <linearGradient id="linear-gradient" x1="2078.25" y1="-1031.26" x2="3137.68" y2="-1031.26" gradientTransform="translate(-362.4 -2087.14) rotate(90)" gradientUnits="userSpaceOnUse">
      <stop offset="0" stop-color="#f0ebe0"/>
      <stop offset=".18" stop-color="#eee8dd" stop-opacity=".99"/>
      <stop offset=".33" stop-color="#e8e1d4" stop-opacity=".97"/>
      <stop offset=".46" stop-color="#ded4c5" stop-opacity=".93"/>
      <stop offset=".59" stop-color="#d0c2b0" stop-opacity=".88"/>
      <stop offset=".72" stop-color="#bdab95" stop-opacity=".82"/>
      <stop offset=".84" stop-color="#a78e73" stop-opacity=".73"/>
      <stop offset=".96" stop-color="#8d6d4d" stop-opacity=".64"/>
      <stop offset="1" stop-color="#83603d" stop-opacity=".6"/>
    </linearGradient>
    <linearGradient id="linear-gradient-2" x1="-400.36" y1="497.92" x2="-397.77" y2="169.05" gradientTransform="translate(804.25 973.26) scale(1 -1)" gradientUnits="userSpaceOnUse">
      <stop offset="0" stop-color="#29305e" stop-opacity="0"/>
      <stop offset=".24" stop-color="#212554" stop-opacity=".38"/>
      <stop offset=".51" stop-color="#1b1c4b" stop-opacity=".72"/>
      <stop offset=".77" stop-color="#171645" stop-opacity=".93"/>
      <stop offset="1" stop-color="#161544"/>
    </linearGradient>
  </defs>
  <polyline class="cls-25" points="-34.67 1032.13 -34.67 -24.34 1372.37 -24.34 1372.37 1032.13"/>
  <polyline class="cls-21" points="-34.67 1047.04 1372.37 1047.04 1372.37 -12.39 -34.67 -12.39"/>
  <polyline class="cls-14" points="1370.08 1070.05 -28.68 1070.05 -28.68 946.18 1370.08 946.18"/>
  <rect class="cls-33" x="337.05" y="69.65" width="133.8" height="874.13" transform="translate(807.89 1013.42) rotate(-180)"/>
  <rect class="cls-9" x="337.08" y="69.71" width="133.8" height="833.84" transform="translate(807.95 973.26) rotate(-180)"/>
  <rect class="cls-28" x="50.09" y="65.01" width="27.47" height="881.25"/>
  <rect class="cls-28" x="50.09" y="47.9" width="443.01" height="21.81"/>
  <rect class="cls-28" x="470.74" y="65.01" width="22.36" height="881.25"/>
  <polygon class="cls-32" points="311.18 35.97 71.88 66.31 71.88 946.54 311.18 979.38 311.18 35.97"/>
  <rect class="cls-34" x="311.18" y="35.94" width="25.77" height="942.65"/>
  <g>
    <path class="cls-7" d="M272.02,513.5h-41.33c-2.73,0-4.95,3.09-4.95,6.89h0c0,3.81,2.22,6.89,4.95,6.89h41.33c2.73,0,4.95-3.09,4.95-6.89h0c0-3.81-2.22-6.89-4.95-6.89Z"/>
    <path class="cls-7" d="M267.6,528.41c-.02,2.09-.01,4.18-.01,6.27,0,8.71,0,17.41,0,26.12v16.26c0,7.16,4.34,12.97,9.7,12.97h.02c5.36,0,9.7-5.81,9.7-12.97v-89.41c0-7.16-4.34-12.97-9.7-12.97h-.02c-5.36,0-9.7,5.81-9.7,12.97v24.73c0-.4,5.67.31,6.13.45,1.91.55,4,1.75,4.77,4.35.43,1.44.46,3.04.3,4.57-.14,1.34-.44,2.69-1.03,3.78-1.07,1.95-2.94,2.83-4.74,3.03-.3.03-.61.05-.91.06-1.5.03-3.01-.22-4.51-.2ZM273.36,561.69c-.04-2.42,1.4-4.43,3.21-4.48,1.81-.05,3.31,1.87,3.35,4.29.03,1.75-.72,3.35-1.91,4.08v5.07c0,1.09-.65,1.97-1.46,1.99-.82,0-1.49-.89-1.49-1.99v-5.07c-1.06-.78-1.71-2.27-1.7-3.89Z"/>
  </g>
  <rect class="cls-7" x="318.47" y="483.17" width="10.02" height="94.71" transform="translate(646.95 1061.06) rotate(-180)"/>
  <path class="cls-30" d="M275.05,565.58v5.07c0,1.1.67,1.99,1.49,1.99.81-.02,1.47-.9,1.46-1.99v-5.07c1.19-.73,1.93-2.33,1.91-4.08-.04-2.42-1.54-4.34-3.35-4.29-1.81.05-3.25,2.06-3.21,4.48-.01,1.62.64,3.11,1.7,3.89Z"/>
  <rect class="cls-37" x="337.05" y="889.51" width="133.8" height="55.6" transform="translate(807.89 1834.63) rotate(-180)"/>
  <polygon class="cls-12" points="412.75 205.59 411.41 209.7 407.09 209.7 410.59 212.24 409.25 216.35 412.75 213.81 416.24 216.35 414.91 212.24 418.4 209.7 414.08 209.7 412.75 205.59"/>
  <polygon class="cls-12" points="395.81 222.93 395.05 225.28 392.58 225.28 394.58 226.73 393.81 229.08 395.81 227.63 397.81 229.08 397.05 226.73 399.04 225.28 396.57 225.28 395.81 222.93"/>
  <polygon class="cls-12" points="440.15 355.36 439.39 357.71 436.92 357.71 438.91 359.16 438.15 361.51 440.15 360.05 442.15 361.51 441.38 359.16 443.38 357.71 440.91 357.71 440.15 355.36"/>
  <polygon class="cls-12" points="361.47 186.13 360.71 188.47 358.24 188.47 360.24 189.93 359.47 192.27 361.47 190.82 363.47 192.27 362.71 189.93 364.7 188.47 362.23 188.47 361.47 186.13"/>
  <polygon class="cls-12" points="429.14 116.36 428.37 118.71 425.91 118.71 427.9 120.16 427.14 122.51 429.14 121.06 431.14 122.51 430.37 120.16 432.37 118.71 429.9 118.71 429.14 116.36"/>
  <polygon class="cls-12" points="358.24 276.04 357.48 278.39 355.01 278.39 357 279.84 356.24 282.19 358.24 280.74 360.24 282.19 359.47 279.84 361.47 278.39 359 278.39 358.24 276.04"/>
  <polygon class="cls-12" points="373.5 292.22 372.3 295.89 368.44 295.89 371.57 298.16 370.37 301.83 373.5 299.56 376.62 301.83 375.43 298.16 378.55 295.89 374.69 295.89 373.5 292.22"/>
  <polygon class="cls-12" points="429.14 371.14 427.94 374.81 424.08 374.81 427.21 377.08 426.01 380.75 429.14 378.48 432.26 380.75 431.07 377.08 434.19 374.81 430.33 374.81 429.14 371.14"/>
  <polygon class="cls-12" points="425.91 237.79 425.14 240.14 422.67 240.14 424.67 241.59 423.91 243.94 425.91 242.49 427.9 243.94 427.14 241.59 429.14 240.14 426.67 240.14 425.91 237.79"/>
  <polygon class="cls-12" points="441.5 193.85 440.74 196.2 438.27 196.2 440.27 197.65 439.5 200 441.5 198.55 443.5 200 442.74 197.65 444.74 196.2 442.27 196.2 441.5 193.85"/>
  <polygon class="cls-12" points="389.34 150.61 387.77 155.47 382.65 155.47 386.79 158.48 385.21 163.34 389.34 160.33 393.48 163.34 391.9 158.48 396.04 155.47 390.92 155.47 389.34 150.61"/>
  <path class="cls-27" d="M895.84,309.61s9.67-40.86,15.31-47.1c5.64-6.24,24.29-18.73,24.29-18.73l-3.63,62.08-35.96,3.76Z"/>
  <path class="cls-27" d="M970.69,277.44c-18.69,43.17-21.97,99.06-51.49,134.43-4.46,5.96-23.55,28.38-30.32,31.43-11.97,4.62-18.97,8.3-31.6,1.69-11.14-5.8-15.63-13.45-14.29-19.53,12.37-26.79,36.04-58.75,36.04-58.75,0,0,15.09-55.09,24.86-85.7"/>
  <path class="cls-27" d="M893.42,374.25c-4.38,14.97-4,18.01-4,18.01l48.24,12.98,23.02-72.58-3.22-93.65-1.82-9.19s-30.93,18.97-40.35,29.69"/>
  <path class="cls-18" d="M903.87,937.09s-2.52,2.62-1.13,7.19c1.38,4.57,30.2-.04,40.15,1.11,9.96,1.15,49.78,5.75,59.56,3.54,9.79-2.21.76-13.61.76-13.61l-99.34,1.76Z"/>
  <path class="cls-19" d="M1008.77,910.59c-1.39,4.35.16,14.14,1.35,19.03,1.37,5.64-1.39,9.87-8.19,12.2-5.72,1.96-8.63,1.82-14.81,1.48-8.07-.44-16.67-1.85-24.74-2.29-6.92-.38-28.65-2.21-35.45-1.15-10.59,1.64-17.09.19-21.75-1.36-1.29-.43-2.1-.37-2.69-1.27-1.54-2.34-1.32-4.91,2.18-6.86,4.41-2.45,9.63,1.01,13.75-1.88.73-.52,1.41-1.09,2.26-1.46,1.65-.72,3.63-.53,5.5-.5,9.31.16,8.65-3.52,20.87-6.28,3.59-.81,26.79-11.67,30.12-13.04"/>
  <path class="cls-18" d="M1068.65,941.46s1.94,1.78,2.04,8.1c.13,8.46-29.95,7.89-37.29,8.46-7.33.57-30.72,5.59-47.22,6.08-16.5.48-34.79-4.48-34.85-14.11-.03-5.22.4-7.24,3.94-8.52,3.54-1.29,102.67-5.1,102.67-5.1l10.71,5.1Z"/>
  <path class="cls-19" d="M1058.44,905.29c-.5,5.29,3.19,10.98,7.1,21.54,1.98,5.33,3.94,14.46-1.56,17.87-6.55,4.05-21.58,2.33-25.9,3.28-9.1,1.99-16.75,2.23-25.49,4.9-8.86,2.71-.06,1.52-9.78,2.05-1.34.07-10.21,2.01-11.37,1.43-.78-.39-2.89.08-3.67-.31-2.76-1.37-6.25.41-9.41,0-1.39-.18-2.65-.79-3.94-1.27-3.41-1.27-7.15-1.7-10.77-2.45-3.62-.75-7.29-1.92-9.79-4.28-2.5-2.36-3.43-6.19-1.24-8.78,3.3-3.9,7.52-1.58,11.97-1.92,4.43-.34,6.11-1.01,10.04-2.69,10.03-4.3,11.58-5.17,20.04-8.53,6.56-2.61,24.77-8.92,34.04-14.88l-1.52-8.53"/>
  <g>
    <path class="cls-36" d="M986.35,955c-.83-.23-1.24-1.08-1.36-1.87s.08-1.59.52-2.27c.46-.71,1.14-1.27,1.85-1.74.8-.53,1.67-.95,2.55-1.34s1.86-.76,2.79-1.14c.19-.08.32-.25.26-.46-.05-.18-.27-.34-.46-.26-1.86.77-3.79,1.43-5.49,2.54s-3.03,2.65-2.76,4.71c.15,1.11.76,2.24,1.91,2.56.47.13.67-.6.2-.72h0Z"/>
    <path class="cls-36" d="M976.96,954.99c-2.08-.02-1.95-3.09-1.67-4.5.08-.4.2-.86.35-1.19.27-.59.75-1.1,1.23-1.52,1.19-1.04,2.68-1.56,4.14-2.07.86-.3,1.68-.71,2.53-1.04s1.71-.64,2.61-.6c.48.02.48-.73,0-.75-1.76-.07-3.4.92-4.99,1.54-.81.31-1.64.56-2.43.91s-1.51.76-2.16,1.29c-.59.47-1.18,1.08-1.53,1.76-.21.42-.35.88-.45,1.34-.24,1.1-.31,2.3-.04,3.4.29,1.2,1.1,2.16,2.4,2.18.48,0,.48-.74,0-.75h0Z"/>
    <path class="cls-36" d="M970.43,952.83c-1.14-.4-1.72-1.65-1.9-2.77s.1-2.2.69-3.14c1.26-1.99,3.59-3.19,5.71-4.03.62-.25,1.26-.47,1.9-.67.75-.23,1.5-.51,2.28-.65.47-.09.27-.81-.2-.72-.75.14-1.48.4-2.21.63-.61.19-1.22.4-1.82.63-1.25.49-2.48,1.07-3.6,1.81-2.09,1.39-3.86,3.51-3.5,6.17.2,1.47.99,2.95,2.45,3.46.46.16.65-.56.2-.72h0Z"/>
    <path class="cls-36" d="M963.88,951.57c-1.44-.64-2.54-1.91-3.02-3.41-.41-1.29-.41-2.73.4-3.85.75-1.04,1.91-1.76,3.02-2.35,1.23-.65,2.54-1.17,3.85-1.62.66-.23,1.32-.43,1.98-.65.8-.27,1.69-.76,2.55-.68.48.04.48-.71,0-.75-.84-.07-1.69.33-2.45.6-.64.23-1.29.42-1.94.64-1.42.48-2.83,1.02-4.16,1.71-1.26.65-2.52,1.44-3.39,2.57-.92,1.2-1.06,2.71-.71,4.15.44,1.85,1.73,3.52,3.48,4.29.44.19.82-.45.38-.65h0Z"/>
  </g>
  <path class="cls-3" d="M1008.57,920.78s-33.31,15.57-44,16.56l-4.44-.31s-4.69-.7-6.48.34c0,0-1.74.8-1.74,2.94"/>
  <path class="cls-19" d="M1029.25,165.58s-4.07,30.26,2.03,47.52c.98,2.77,15.24,9.68,15.24,9.68l-3.92,4.52c-3.39,3.9-9.98,7.17-14.74,9.19-23.67,10.05-57.25,12.91-68.31-1.58l5.89-9.91s3.99-3.59,4.68-6.98c.7-3.39-3.58-29.8-3.58-29.8"/>
  <path class="cls-29" d="M1031.03,177.8c0,.06,0,.12,0,.18.02-.08.03-.14,0-.18Z"/>
  <path class="cls-19" d="M989.19,215.05l-20.46-.24-10.28-2.05c-1.04.05-5.82-10.32-6.56-11.63-2.3-4.07-5.3-9.4-6.77-13.85-1.57-4.77-4.71-8.85-5.59-14.61-.64-4.22-.74-7.18,1.35-14.14.53-1.77.5-3.52.02-5.39-1.02-3.94-1.48-8.57-2.73-13.86-.1-.42-.64-2.42-.49-2.88,0,0-1.53-23.16,2.27-31.19,3.8-8.03,9.68-11.83,15.47-13.48,5.79-1.66,22.72-4.09,22.72-4.09h24s20.48,9.45,20.48,9.45l10.92,24.28-.71,28.54-2.36,25.54"/>
  <path d="M1026.02,147.97c-.06,2.21-2.53,13.26-2.72,15.41l11.39-.51c3.24-7.64,7.14-16.63,8.39-18.68,1.96-3.21-4.27-18.74-4.3-24.52v-1.25c-.01-5.54-5.53-14.2-14.76-23.17-15.88-15.43-15.12-15.63-38.96-13.33-1.64.16-3.28.38-4.86.65-14.96,2.6-27.5,2.68-36.76,15.49-6.68,9.24-1.74-2.28-1,4.01.1-12.46-2.02-2.14-.77-3.63,7.33-8.75,11.28.3,14.95-.34,3.21-.56,5.65.25,6.13.42,3.67.73,7.17.17,11.01-.49,2.86-.5,10.08-2.32,10.69-2.47,1.9-1.39.04-8.85,3.59-9.46,8.25-1.43,19.65,1.93,23.69,3.69,4.78,2.08,16.2,6.56,14.94,19.27"/>
  <path d="M960.6,210.01c.14-.02.27-.08.38-.15,2.13-1.5,2.28-2.32,3.33-2.6.25-.06.37-.16,1.13-.29,3.05-.52,4.91-.89,13.28,4.09.17.1,10.9-1.57,11.11-1.59l5.48-2.78c.91-.6,21.25-18.72,21.25-18.72.3-.59,3.95-4.87,4.08-5.43.06-.03.13-.07.19-.1.02,0,.08-.03.13-.06.01.04.02.08.03.11.04.24.05.49.04.73-.02,1.05-.2,2.09-.49,3.1-.44,1.56-.68,3.14-1.05,4.7-.13.55-.29,1.1-.47,1.63-2.33,1.54-16.9,20.98-25.39,25.49-.56.16-2.3.71-6.98,1.23-8.8.99-17.31,1.22-26.06-1.06-2.28-.59-4.15-2.16-5.12-4.23-2.76-5.92-8.86-19.1-10.52-28.01,2.55,5.12,7.93,16.1,11.64,23.57.11.23,3.47.32,3.75.39"/>
  <path class="cls-19" d="M1028.02,178.39c6.6,8.94,10.86-6.61,10.86-6.61,6.13-7.98,5.8-16.2,5.35-21.82-.45-5.62-6.64-5.29-6.64-5.29-5.24.78-7.47,3.69-11.17,21.6"/>
  <path d="M959.81,92.99c8.55-.34,30.85-6.77,42.43-7.77,4.8-.41,21.02,11.1,23.15,13.76,4.89,6.09-5.76,20.58,2.89,40.16,2.86,6.47,6.4-5.05,9.92-.86,3.52,4.2,4.87,5.9,4.87,5.9,2.09-18.98,2.04-18.32-2.57-36.91-4.59-18.54-25.1-26.23-34.98-27.57-9.88-1.34-41.38,2.5-49.83,6.67"/>
  <path d="M985.23,147.27c1.28-.74,2.83-.22,3.72.5.21.17.77.65,1.06,1.5.37,1.08-.01,2.35-.67,3.14-.88,1.05-2.4,1.29-3.6.8-1.63-.67-2.24-2.57-1.9-3.99.06-.26.36-1.35,1.39-1.95"/>
  <path d="M947.54,149.22c-1.34-.62-2.84.04-3.66.83-.19.19-.71.72-.93,1.59-.27,1.11.22,2.34.94,3.06.97.97,2.51,1.07,3.66.47,1.56-.82,2-2.76,1.54-4.14-.09-.25-.48-1.32-1.56-1.82"/>
  <path d="M958.64,153.69s-5.5-5.03-9.37-5.21c-5.65-.26-7.03,1.07-8.91,3.73,0,0,3.56-2.86,7.53-2.56,3.8.28,10.74,4.04,10.74,4.04Z"/>
  <path d="M976.83,151.5s7.66-5.33,11.52-5.6c5.64-.4,12.51,2.63,14.45,5.25,0,0-9.09-4.5-13.05-4.11-3.79.37-12.92,4.46-12.92,4.46Z"/>
  <path d="M973.87,135.74c.42,1.28.84,2.55,1.26,3.84.32.97.99,3.22,1.31,4.19,2.8-1.83,5.17-3.96,7.04-4.96,3.71-1.99,7.42-4.29,11.61-4.97,2-.33,3.84-.38,5.75.08.6.15,2.4,1.05,3.04.46.26-.24-.76-1.65-.86-1.79-2.07-2.83-5.19-3.27-8.72-2.95-7.21.65-13.9,3.02-20.43,6.11"/>
  <path d="M937.89,132.18s2.38-.02,2.4-.02c6.68-.09,12.99,1.57,19.2,3.97-.31,1.31-.62,2.62-.93,3.93-.24,1-.6,2.81-.85,3.81-2.7-1.52-4.96-3.11-6.74-3.91-3.54-1.59-7.26-3.3-11.16-3.55-.31-.02-1.98-.1-2.28-.1-.77-2.09-.24-3.96.36-4.12Z"/>
  <path d="M977.12,195.55l-14.52-.1s3.67,5.47,7.2,5.31c2.21-.1,5.07-2.62,7.31-5.21Z"/>
  <g>
    <path class="cls-6" d="M963.98,175.55c1.69.81,4.2.49,5.81-.64.36-.25,1.6-.08,1.1.27-2.13,1.49-5.74,1.78-7.92.74-.22-.1-.19-.27.07-.37.27-.11.71-.11.94,0"/>
    <path class="cls-6" d="M971.58,174.67c1.09-.59,2.32-.93,3.55-1.08.18-.02.42.04.56.15.11.09.14.22,0,.3-.56.36-1.28.53-1.95.55-.21,0-.49-.04-.62-.22-.12-.17.08-.29.25-.29.55-.01,1.11-.15,1.57-.45.19.15.38.3.56.46-1.11.14-2.21.45-3.18.98-.19.1-.48.06-.66-.04-.14-.07-.29-.25-.09-.36"/>
    <path class="cls-6" d="M976.52,174.6c1.45-.1,3.13-.83,3.79-1.98,1-1.74-.12-4.31-1.98-5.31-.2-.11-.1-.27.09-.32.26-.07.57.02.78.13,1.62.87,2.74,2.96,2.58,4.56-.16,1.49-1.5,2.59-3.22,3.09-.51.15-1.06.26-1.6.3-.22.01-.62-.03-.73-.21-.12-.17.08-.26.29-.27"/>
    <path class="cls-6" d="M961.28,174.91c.07-.17-.08-.28-.2-.27-.39.03-.8-.07-1.14-.33-.12.17-.24.33-.36.5.79.05,1.59.28,2.31.73.14.09.34.02.46-.1.09-.08.18-.28.04-.37"/>
    <path class="cls-6" d="M962.39,175.08c-.81-.5-1.7-.74-2.59-.8-.13,0-.29.07-.38.2-.07.1-.08.23.02.3"/>
    <path class="cls-6" d="M958.28,175.25c-.95,0-2.09-.59-2.6-1.69-.78-1.66-.21-3.69.92-4.82.12-.12.05-.27-.08-.31-.17-.05-.37.06-.5.19-.99.99-1.58,2.54-1.36,4.12.21,1.47,1.16,2.47,2.31,2.85.34.11.7.18,1.06.18.14,0,.4-.08.46-.26.06-.18-.07-.25-.21-.25"/>
  </g>
  <path d="M955.35,96.66c.61-.54,1.57-.74,2.47-.92l.97-.34c2.88-.11,5.77-.13,8.65-.06.72.02,1.48.04,2.11.3.07.03.13.06.2.09,2.13-.13,4.27-.24,6.4-.29l.98.24c.91.1,1.89.23,2.52.66.64.43.67,1.28-.16,1.57-.87.3-2.17-.13-2.76.38-.65.56.64,1.34.26,2-.24.41-1,.56-1.5.87-.59.36-.78.93-1.33,1.32-.56.4-1.5.54-2.25.36-.81.08-1.9-.21-2.14.35-.06.15-.02.31,0,.47.05.61-.44,1.24-1.19,1.51-.75.27-1.69.16-2.28-.26-.57-.41-.8-1.05-1.41-1.43-.19-.12-.42-.21-.64-.3-.2.19-.45.35-.74.46-.74.27-1.69.16-2.28-.26-.57-.41-.8-1.05-1.41-1.43-.51-.32-1.29-.44-1.55-.9-.42-.73.82-1.71.13-2.31-.62-.55-1.9.03-2.78-.26-.85-.28-.87-1.25-.26-1.79Z"/>
  <path d="M977.33,212.34c-.52.39-1.32.5-2.06.58l-.8.21c-2.33-.1-4.66-.27-6.98-.51-.58-.06-1.19-.13-1.69-.38-.05-.03-.1-.06-.15-.09-1.73-.03-3.46-.08-5.19-.18l-.78-.25c-.73-.14-1.51-.3-1.99-.69-.49-.39-.46-1.08.23-1.25.72-.18,1.75.25,2.25-.13.56-.41-.43-1.12-.08-1.63.22-.32.85-.39,1.27-.6.5-.25.69-.7,1.16-.98.48-.28,1.24-.34,1.84-.14.66-.02,1.52.3,1.75-.14.06-.12.04-.25.04-.38,0-.5.44-.97,1.06-1.14.62-.17,1.38-.02,1.83.36.44.37.57.9,1.04,1.24.15.11.33.2.5.28.17-.14.38-.26.63-.32.62-.17,1.38-.02,1.83.36.44.37.57.9,1.04,1.24.39.29,1.01.44,1.2.83.29.62-.77,1.32-.26,1.86.47.48,1.53.1,2.23.39.67.28.62,1.07.09,1.46Z"/>
  <path d="M1041.99,145.38c.87-.05,1.79-.12,2.54-.57s1.26-1.43.89-2.23c-.58-1.26-2.9-1.46-2.77-2.83,1.13-1.36,3.84-.86,4.48-2.51.51-1.33-.93-2.55-2.16-3.26.85-.83.61-.08,1.75-.39,1.15-.3,1.77-3.1,1.11-4.09-.75-1.12-1.15-.21-.73-1.48.92-.3-1.11-1.06-.42-1.73s1.04-1.8.52-2.61c-.62-.97-.52-1.71-.51-2.87,0-.99-1.93-1.14-1.35-1.94,1.06-1.46-.4-3.38-1.75-4.57.78-.54-.18-.69.31-1.5s.57-1.95-.07-2.65c-.39-.43-.97-.62-1.43-.98-1.88-1.47-.78-4.45.45-6.49-1.66.17-3.34-1.12-3.6-2.76-.12-.78.03-1.6-.26-2.33-.29-.73-1.36-1.22-1.85-.61"/>
  <path d="M1037.86,100.79c-.25-1.05-1.26-6.05-1.51-7.1-1.32.53-3-.53-3.09-1.95-.04-.71.18-1.59-.4-2-.6-.42-1.39.14-2.12.11-1.62-.06-1.86-2.68-3.39-3.23-.95-.34-2.04.28-3.01-.02-1.46-.46-1.72-2.64-3.13-3.24-.98-.41-2.12.11-3.15-.16-2.22-.59-3.01-3.85-5.31-3.85-.84,0-1.62.58-2.45.51-1.5-.12.72-1.71-.77-1.91-1.37-.18-2.45,1.28-3.82,1.44-2.23.26-3.76-3.46-5.84-2.59-.89.37-1.37,1.4-2.25,1.81-2.05.96-4.2-1.98-6.4-1.44-1.1.27-1.88,1.38-3,1.54-1.75.24-3.11-1.91-4.87-1.76-1.4.12-2.42,1.68-3.82,1.61-.98-.05,1.42-1.16.45-1.29-1.66-.22-2.88,1.62-4.52,1.98-1.37.3-2.72-.48-4.09-.81-1.37-.33-4.35,2.37-4.38,3.78"/>
  <path d="M1015.22,87.83c8.18,3.14,11.55,6,15.62,13.76l-46.82-16.01c3.41-.74,6.8-1.21,10.1-1.1,8.76.29,12.91.21,21.1,3.34Z"/>
  <path d="M948.19,88.81c.23-.1.45-.21.66-.33,1.1-.61,1.95-2.27.94-3.01,2.26.9,3.86-3.01,6.29-2.99.7,0,1.35.35,2.04.47,1.79.29,3.64-1.36,3.54-3.18,1.77.96,3.92,1.19,5.85.61l16.51,5.2c-7.23,1.56-14.58,4.3-21.53,5.2-3.35.44-6.75.98-9.74,2.55-2.17,1.14-4.95,1.78-7.18,2.99.86-2.51,1.71-5.03,2.61-7.53Z"/>
  <path d="M948.3,195.87c.55,2.15.58,4.41,1.73,6.3-.8.26-.46,1.5.16,2.06.63.56,1.49,1.17,1.31,1.99-.06.29-.25.53-.31.82-.18.9.93,1.46,1.82,1.69-.6.47-.09,1.44.51,1.91.6.47,1.37,1.07,1.17,1.81-.1.36-.43.66-.42,1.03.02.78,1.3.78,1.73,1.44.25.38.14.88.25,1.32.22.91,1.5,1.34,2.22.75.18,1.59.86,3.64,2.46,3.56.99-.05,1.93-1,2.83-.6.56.25.81.92,1.32,1.25,1.74,1.11,3.89-2.53,5.63-1.41.93.6.9,2.24,1.95,2.59.99.33,1.88-.82,2.92-.94,1.13-.12,2.29,1.01,3.3.49.44-.23.68-.71,1.05-1.03.86-.74,1.73.38,2.8.71,1.93.6,2.1-.79,2.1-.79.57-1.35,1.32-1.25,2.6-.53.43.24.82.61,1.3.63,1.19.05,1.75-1.91,2.94-1.8.44.04.79.36,1.19.55,1.45.66,3.23-1.27,2.45-2.65,1.81.02,3.42-1.78,3.2-3.58,1.69.56,3.71-.85,3.78-2.62,1.98.54,4.08-1.81,3.31-3.71,1.39.52,3.11-.71,3.06-2.19-.02-.76-.35-1.72.28-2.15.42-.28.97-.09,1.47-.1,1.22-.01,2.14-1.52,1.61-2.61,1.96.49,3.79-2.25,2.58-3.87,1.55.34,2.94-1.81,2-3.08,2.12-.07,3.57-2.91,2.37-4.66l-24.55,25.22-6.33,2.89s-22.44,2.04-26.67.13c-4.24-1.91-13.14-20.79-13.14-20.79Z"/>
  <path d="M985.06,87.59l22.29-3.07,18.3,11.02,6.78,23.21-4.37,18.06h0l-2.19,26.98c-.63.07-1.26.13-1.9.2-.2.02-.41.04-.58-.07-.42-.26-.18-.89-.05-1.36.3-1.1-.32-2.22-.8-3.26-.48-1.04-.8-2.37-.05-3.24.4-.46,1.07-.75,1.14-1.35.09-.78-.88-1.19-1.4-1.78-.82-.92-.31-2.63.87-2.96,0,0-1.37-1.51-.87-4.5.5-2.98,1.39-6.17,1.39-6.17h0c-.18-.21-.36-.43-.48-.68-.93-1.81.73-4.1-.03-5.98-.34-.84-1.13-1.46-1.41-2.33-.52-1.66,1.04-3.34.87-5.07-.2-1.95-2.52-3.6-1.77-5.4.37-.88,1.38-1.38,1.7-2.28.55-1.57-1.21-3.63-.01-4.79.42-.4,1.08-.5,1.42-.97.69-.93-.46-2.08-.9-3.15-.46-1.11-.13-2.38-.26-3.57-.13-1.19-1.25-2.5-2.34-2.01.65-1.88-.48-7-2.46-6.78-.97.11-2.23.58-2.74-.26-.36-.6.04-1.42-.26-2.04-.77-1.61-3.52.78-4.93-.31-.38-.29-.55-.78-.88-1.14-.73-.81-2.02-.75-3.07-.45-1.05.3-2.12.78-3.19.57-1.07-.2-1.99-1.53-1.32-2.39-1.12.64-2.29,1.3-3.57,1.38-1.29.09-2.72-.59-3.07-1.83-.34,1.81-3.11,2.5-4.27,1.07-.46-.57-.77-1.42-1.5-1.51-.32-.04-.64.1-.93.26-1.29.69-3.03,4.63-3.73,5.91l.6-7.98Z"/>
  <path d="M952.02,92.9c.26.62-.58,1.12-1.25,1.19s-1.54.2-1.65.87c-.07.41.22.82.16,1.23-.21,1.25-2.63.19-3.29,1.27-.5.81.52,2.11-.21,2.73-.35.29-.86.18-1.31.21-.78.06-1.49.66-1.68,1.41-.14.57-.03,1.21-.35,1.7-.39.59-1.71.27-1.84.97-.71,3.59-2.08,2.97-2.11,4.83-.04,1.86-.06,3.98-1.47,5.19-1.3-1.12.1-2.26,1.14-3.63.31-.41-.67-.44-.42-.89.25-.46.27-1.1-.13-1.43-.2-.16.74-2.21.62-2.44-.33-.65-.33-1.61.25-2.05.73-.55,1.69.75,1.14.02s-1.21-1.68-.73-2.47c.42-.69,1.49-.74,1.92-1.42.49-.77-.13-1.8.08-2.69.28-1.18,1.77-1.52,2.98-1.63-.77-.9-.3-2.53.83-2.89.46-.14,1.01-.13,1.31-.51.45-.55-.02-1.55.52-2.01.45-.39,1.23-.03,1.72-.38.78-.56-.16-1.87.27-2.72.57-1.13,3.05-.68,2.93-1.94"/>
  <path class="cls-2" d="M1028.47,152.44l-.13-2.59-26.98-6.91h0c-9.67-3.46-23.07-.43-30.76,4.79l-6.88.55.06-.11c-8.19-5.66-21.53-6.17-31.61-1.22l.3,1.07h0c0,.07.08.22.14.44l.28.93c1.69,5.91,3.64,12.15,5.36,13.76,1.16,1.08,4.88,1.51,7.94,1.67,1.16.07,2.21.09,2.97.1.91,0,9.01.07,10.33-1.22,1.32-1.29,3.38-10.72,3.96-13.69l7.05-.53c.96,2.27,3.05,12.11,6.54,14.02,3.49,1.91,21.12.61,22.68-1.88,1.11-1.78,4.26-8.19,5.04-11.45l1.36-4.22,22.34,6.5ZM958.66,162.79c-1.45,1.24-17.56,1.29-19.57-.57-1.69-1.58-4.1-10.01-5.01-13.18v-.13c9.02-3.92,21.04-3.48,28.15,1.3-1.11,5.14-2.75,11.74-3.58,12.55v.03ZM997.63,160.95c-.98,1.58-16.36,3.38-19.96,1.41-2.51-1.36-4.15-8.55-5.43-12.66,7.52-4.96,23.17-7.46,31.79-3.83-1.4,5.15-3.63,11.23-6.39,15.07h0Z"/>
  <path class="cls-11" d="M988.72,180.12c-.57-.72-1.35-1.22-2.27-1.37-.3-.05-1.02.05-1.18-.03-.16-.08-.38-.62-.63-.8-.73-.51-1.64-.29-2.45-.23-.45.03-1.06.1-1.47-.07-.34-.14-.63-.43-.96-.6-.81-.42-1.71-.36-2.47.14-.18.12-.46.16-.16.23.41.09-.16-.23-.23-.3-.35-.3-.63-.58-1.07-.76-.84-.33-1.9-.38-2.76-.14-.34.09-.65.24-.98.36-.14.05-.33.08-.46.15-.39.2-.18-.32.28.24-.64-.79-2.7.09-1.99.97.99,1.22,2.7-.11,3.7-.21,1.05-.1,1.38.67,2.22,1.07s1.79.3,2.5-.27c.42-.33,0,.02-.06-.11.05.11.34.23.44.29.33.21.66.43,1.04.54.9.27,2.01.16,2.93.04.47-.06.35.09.65.45.25.31.59.49.97.58.98.24,1.73-.1,2.45.82.63.8,2.7-.08,1.99-.97h0Z"/>
  <path class="cls-11" d="M963.21,176.65c-.87-.18-1.71.02-2.43.53-.3.22-.57.48-.86.72-.12.1-.25.21-.39.28.11-.06.29-.03-.02-.03-.89,0-1.95.37-2.33,1.25-.04.07-.07.14-.11.21.58-.12.75-.19.51-.23-.07-.08-.47-.13-.58-.16-.44-.14-.88-.25-1.35-.19-.95.11-1.59.67-1.9,1.54-.03.09-.11.24-.13.34-.03.06-.06.11-.08.16.16-.07.19-.09.1-.08-.39-.05-.92.06-1.29.16-.68.19-1.92.82-1.72,1.74v.17c.42-.21.5-.27.25-.17-.22.04-.43.15-.63.25-.33.18-.7.47-.7.89,0,1.03,2.19.63,2.19-.22-.58.34-.71.45-.39.33l.12-.04c.23-.08.44-.16.64-.29.3-.19.57-.45.67-.8.04-.16.06-.35.05-.52-.02-.28.07-.12-.13-.06.25-.09.6-.04.87-.08.78-.12,1.58-.43,2.01-1.13.15-.25.22-.53.33-.8.12-.28.29-.34-.21-.14-.56.23-.22.17.1.27.77.24,1.59.35,2.36.01.37-.17.7-.43.93-.77.02-.03.23-.37.22-.4-.41.13-.51.19-.29.16.08,0,.17-.01.25-.02.75-.08,1.42-.34,2.02-.81.24-.19.46-.4.7-.6.07-.06.2-.12.25-.19.09-.14-.17.04-.32.01.52.11,1.16,0,1.54-.41.3-.33.25-.81-.24-.91h0Z"/>
  <path class="cls-20" d="M1112.35,501.31l.43,42.09c-.37,28.04-6.84,47.06-15.21,73.76l-19.48,113.36s-1.42,49.49,2.17,90.53c3.13,35.58-9.69,98.89-9.69,98.89l-12.04,1.96c-10.88,1.77-21.96,1.84-32.85.22l-23.39-3.5-15.76-210.41-12.32-128.92-19.9-77.88,158.05-.09Z"/>
  <path class="cls-20" d="M931.13,495.7l8.42,227.83c-.29,9.92,3.31,19.05,6.29,66.94l5.96,81.63,1.96,35.47,6.78,1.42c9.3,2.22,18.85,3.13,28.39,2.71l20.88-.23-10.71-408.99-67.96-6.79Z"/>
  <path class="cls-27" d="M1032.02,214.2l9.37,3.6c12.55,4.86,46.54,15.94,55.48,26.01,13.44,15.03-34.78,64.1-36.01,77.15-.63,6.33-4.13,53.28,3.01,89.43,4.7,24.04,7.94,48.34,9.72,72.77l-39.07,6.77c-19.09,3.31-38.56,3.92-57.79,1.81l-48.65-19.48c.06-25.12-5.4-37.55-3.93-70.54l-.99-102.46,6.63-48s9.93-9.35,10.97-11.79l27.75-18.4s-10.15,19.27,12.65,21.56c20.24,2.04,24.08-1.08,38.75-13.38,0,0,10.82-8,12.1-15.06Z"/>
  <path class="cls-27" d="M1108.08,310.76s-5.18,84.14-1.06,108.48c4.12,24.35,11.01,58.93,9.73,74.7-1.28,15.77-71.46,27.07-105.39,25.03-33.93-2.03-82.75,9.39-84.44-32.13-2.56-62.94,86.58-188.58,86.58-188.58l94.58,12.49Z"/>
  <path class="cls-1" d="M914.7,295.36c3.05,17.26,4.22,34.81,5.25,52.29.51,8.68.95,17.37,1.48,26.05.25,4.09.4,8.21.96,12.27.8,5.89.86,11.92,1.04,17.84.02.74,1.48.51,1.47-.12-.17-5.73-.31-11.51-.95-17.21-.36-3.22-.63-6.42-.84-9.67-1.15-17.68-1.82-35.4-3.35-53.05-.84-9.64-1.92-19.26-3.6-28.79-.11-.65-1.57-.28-1.45.39h0Z"/>
  <path d="M970.65,560.93c10.31,8.53,13.83,22.71,14.72,35.5.51,7.37,0,14.72.14,22.09.16,9.33.32,18.65.48,27.98.26,14.97.51,29.93.77,44.9.22,12.92.44,25.84.66,38.76.07,4.1-.04,8.24.28,12.33.56,7.14,1.12,14.27,1.68,21.41,1.04,13.26,2.08,26.51,3.12,39.77,1.2,15.28,2.4,30.56,3.6,45.84,1.04,13.21,2.08,26.42,3.11,39.64.55,7.05,1.11,14.1,1.66,21.14.03.32.05.64.08.96.04.52,1.15.25,1.1-.3-.39-4.99-.78-9.98-1.18-14.97-.95-12.12-1.9-24.25-2.86-36.37-1.19-15.16-2.38-30.32-3.57-45.48-1.11-14.17-2.23-28.34-3.34-42.51-.7-8.91-1.4-17.83-2.1-26.74l-.22-2.84c-.02-.23-.04-.46-.05-.68,0-.07-.02-.32,0-.09-.07-1.91-.07-3.83-.1-5.74-.2-11.52-.39-23.03-.59-34.55-.26-15.18-.52-30.35-.78-45.53-.19-11.19-.38-22.38-.57-33.56-.28-16.18,1.51-32.87-5.3-48.08-2.31-5.15-5.52-9.9-9.89-13.51-.39-.33-1.35.24-.85.65h0Z"/>
  <path class="cls-5" d="M1032.31,214.53c-1.64,3.28-3.88,6.33-6.19,9.15-5.1,6.21-11.41,11.54-18.75,14.89-4.58,2.09-9.51,3.35-14.53,3.69-5.35.37-11.07.12-16.26-1.35-4.49-1.27-9.26-4.05-9.7-9.16-.09-.99.02-1.98.27-2.94.63-2.44,1.3-4.87,1.95-7.31.16-.59-.98-.36-1.2-.2-2.04,1.46-4.08,2.92-6.12,4.38-.65.47-1.59.92-2.13,1.53-.57.65-.63,1.97-.75,2.78-.61,4.18.11,8.99,2.99,12.24,2.25,2.54,5.51,4.08,8.66,5.18,4.62,1.61,9.56,2.31,14.44,2.48,5.58.19,11.33-.2,16.77-1.51,9.96-2.4,19.67-7.69,27.33-14.46,4.01-3.54,7.71-7.64,11.05-11.82.9-1.13,1.94-2.32,2.57-3.63.07-.15.06-.36-.12-.44-3.01-1.28-6.02-2.55-9.03-3.83-.5-.21-1.8.49-1.13.77,3.01,1.28,6.02,2.55,9.03,3.83l-.12-.44c-.43.91-1.11,1.74-1.71,2.53-2.44,3.2-5.2,6.15-7.99,9.04-7.13,7.4-16.1,13.05-25.84,16.34-4.96,1.67-10.13,2.43-15.35,2.66s-10.4-.13-15.43-1.35c-3.59-.87-7.26-2.18-10.21-4.48-3.31-2.59-4.73-6.82-4.64-10.93.02-.98.12-1.96.29-2.93.09-.48.41-1.18.39-1.67-.02-.39.34-.01-.17.12.09-.02.19-.15.27-.2.5-.28.95-.68,1.42-1.01,2.16-1.54,4.31-3.08,6.47-4.62l-1.2-.2c-.65,2.42-1.3,4.84-1.94,7.27-.21.78-.32,1.57-.31,2.38.03,4.84,3.8,8.06,8.02,9.72,4.67,1.84,9.9,2.25,14.88,2.29,5.39.04,10.71-.67,15.81-2.45,8.19-2.86,15.37-8.08,21.17-14.47,3.2-3.53,6.27-7.48,8.42-11.76.34-.68-1.12-.6-1.37-.1Z"/>
  <path class="cls-31" d="M1031.36,161.33c1.15-3.12,2.45-6.28,4.38-9.01.48-.68,1-1.34,1.61-1.9.19-.18.4-.34.61-.5.05-.04.1-.07.15-.1-.08.05-.05.03,0,0,.08-.05.17-.09.25-.14.11-.06-.16.05.06-.03.21-.07-.16.04-.02,0,.1-.02-.14.02-.23.03l-.38-.09c.5.52.83,1.23,1.09,1.89.73,1.9.78,3.98.47,5.97-.07.47,1.37.21,1.44-.22.37-2.35.28-4.88-.85-7.01-.19-.35-.43-.87-.75-1.13-.24-.19-.58-.12-.86-.05-1.92.47-3.34,2.38-4.35,3.94-1.73,2.65-2.98,5.61-4.07,8.57-.14.38,1.28.21,1.44-.22h0Z"/>
  <path class="cls-31" d="M1032.27,162.63c3.01.05-1.69,7.58,1.56,7.39.81-.05,1.31-.76,1.65-1.41.57-1.1.92-2.33,1.22-3.52.42-1.66.64-3.1.52-4.79-.13-1.92-.6-4.37-2.5-5.32-.33-.16-.74-.13-1.04.09-.21.16-.42.56-.09.72,1.52.76,1.93,2.68,2.11,4.23.13,1.18.14,2.35-.1,3.5-.27,1.34-.6,2.69-1.1,3.97-.15.39-.32.78-.52,1.15-.05.08-.24.3-.26.39,0,.01-.08.09-.09.08.04.08.64-.12.63-.07.01-.06-.17-.45-.17-.56-.02-.35.04-.71.1-1.05.13-.8.32-1.59.44-2.4.24-1.55.12-3.39-1.87-3.42-.33,0-.8.09-.95.44-.12.31.11.58.43.58h0Z"/>
  <path class="cls-31" d="M970.8,142.78c-.86.3-1.79-.36-2.42-.89-.68-.57-1.41-1.26-1.72-2.12-.36-.97-.09-1.99.22-2.94.35-1.07.74-2.13,1.16-3.18.13-.32-.46-.37-.64-.35-.33.03-.69.19-.82.51-.47,1.21-.95,2.43-1.31,3.67-.32,1.13-.36,2.26.25,3.3.53.9,1.39,1.67,2.25,2.23.96.63,2.13.93,3.24.54.22-.08.71-.26.62-.59-.08-.3-.62-.27-.83-.2h0Z"/>
  <path class="cls-31" d="M990.63,115.35c-11.88,2.28-24.31,4.56-36.21,1.16-.52-.15-1.71.62-.87.86,12.26,3.5,25.06,1.15,37.3-1.2.9-.17.66-.99-.22-.82h0Z"/>
  <path class="cls-26" d="M966.91,183.39c4.93-.32,16.01,2.01,18.32,3.8,0,0-4.47,6.5-15.9,7.24-11.43.74-14.49-5.28-14.49-5.28,0,0,5.79-5.35,12.07-5.76Z"/>
  <path class="cls-23" d="M980.45,185.35s-6.29-.07-11.28.25c-4.99.32-11.21,1.2-11.21,1.2,0,0-1.03-3.47,8.02-4.05,9.05-.58,14.48,2.61,14.48,2.61Z"/>
  <path class="cls-10" d="M967.75,192.82c5.3-1.11,11.21-5.62,17.48-5.63,0,0-1.85,9.49-15.29,10.35-13.44.87-15.09-8.4-15.09-8.4,6.22-.79,7.5,3.25,12.91,3.68Z"/>
  <path class="cls-10" d="M960.89,181.07c2.81-.39,4.67.57,5.9.49,1.23-.08,2.95-1.27,5.78-1.24,2.66.03,14.26,5.82,13.07,6.75-1.2.93-10.18-3.3-18.67-2.75-8.5.55-11.23,5.53-12.54,4.76-1.31-.76,3.84-7.64,6.47-8.01Z"/>
  <path d="M969.73,177.65l.49,2.98c.08.46.43.81.89.89,3.14.52,15.09,2.48,17.95,2.52.07,0-.28,1.18-.22,1.17l.67-.03c1.07-.18.39-3.79-.61-4.21-3.05-1.29-5.8-2.21-7.5-2.65-2.12-.56-8.01-1.9-10.59-1.94-.68-.01-1.2.6-1.08,1.27Z"/>
  <path d="M951.64,184.01c-.83.79-1.71,1.71-1.75,2.86-.01.42.09.83.2,1.23.16.62.32,1.25.48,1.87.03.12.07.25.16.35.1.1.24.13.38.16.44.09.89.18,1.33.08s.84-.46.85-.91c0-.18-.06-.37,0-.55.13-.33.59-.31.94-.42.86-.26.99-1.39,1.34-2.21.47-1.12,1.55-1.88,2.68-2.32.57-.22,1.18-.38,1.69-.72s.94-.9.89-1.51"/>
  <path d="M964.76,177.72l.37,2.72c0,.46-.26.87-.63,1.01-2.55.99-10.9,4.24-13.28,4.7-.06.01-.11.01-.17.01l-.79-.02c-.91-.02-.78-2.3,0-2.87,2.39-1.73,3.91-2.76,5.27-3.45,1.7-.87,6.02-2.77,8.17-3.2.56-.11,1.07.41,1.05,1.09Z"/>
  <path d="M988.05,183.03c.89.73,1.84,1.57,1.96,2.71.04.41-.03.83-.1,1.24-.11.63-.22,1.27-.34,1.9-.02.13-.05.26-.13.36-.09.11-.23.15-.37.19-.43.13-.88.25-1.32.18s-.88-.4-.92-.84c-.02-.18.03-.38-.05-.54-.16-.32-.62-.26-.96-.34-.88-.19-1.1-1.3-1.5-2.1-.55-1.08-1.69-1.76-2.85-2.11-.59-.18-1.2-.29-1.74-.58-.54-.29-1-.83-1-1.44"/>
  <path class="cls-27" d="M1079.87,234.36s32.45,6.2,35.12,49.31c2.63,42.48,7.32,102.11-1.85,129.45-3.51,10.46-8.51,22.36-33.22,30.22-30.98,9.87-52.41,6.34-52.41,6.34l-13.07-36.87,50.36-27.59-.31-106.57s.27-38.95,15.38-44.3Z"/>
  <path class="cls-19" d="M886.57,501.1l4.44,3.94s21,.89,25.7-2.55c4.71-3.44,4.34-25.92,4.34-25.92l31.71-8.03-7.03-40.39-41.45,23.02c-5.37,2.89-9.56,7.59-11.72,13.13l-10.12,17.68c-2.73,6.91-1.11,14.42,4.13,19.11Z"/>
  <polygon class="cls-13" points="916.12 441.67 928.42 477.11 934.15 475.3 923.74 438.41 916.12 441.67"/>
  <path class="cls-13" d="M916.32,460.89c-3.63-4.85-2.63-11.73,2.22-15.35,4.84-3.62,11.7-2.64,15.33,2.19,3.64,4.84,2.67,11.72-2.17,15.36-4.84,3.64-11.72,2.67-15.36-2.17,0,0-.01-.02-.02-.03Z"/>
  <path class="cls-23" d="M920.33,447.93s.02-.01.03-.02c3.61-2.68,8.7-1.92,11.38,1.69,2.68,3.61,1.92,8.7-1.69,11.38-3.61,2.68-8.7,1.92-11.38-1.69-2.67-3.6-1.92-8.68,1.66-11.36Z"/>
  <path class="cls-13" d="M925.46,454.05h0l-.56,1.2c-1.24-1.75-2.06-3.75-2.42-5.87.18-.33,1.93,1.9,3.77,5.05l.66.88-1.12.24h0c-3.51.78-6.41,1.06-6.51.61-.09-.44,2.66-1.44,6.16-2.13Z"/>
  <path class="cls-19" d="M911.87,447.76c1.58.96,3.39,1.56,5.24,1.71.26.02.53.03.77-.06.21-.08.38-.24.54-.41,1.78-2.01.2-4.29-1.03-6.11-2.32-3.47-5.82-6.18-8.86-8.99-2.9-2.68-5.83-5.32-8.77-7.95-3.56-3.18-7.14-6.34-10.74-9.47-.01,0-.02-.02-.03-.03-1.76-1.69-3.79-3.07-6-4.11-1.58-.63-9.02-1.96-15.73-3.07-.9-.15-1.8-.27-2.71-.35-2.91.41-5.84.68-8.36,2.37-2.41,1.61-4.06,3.98-5.48,6.46-2.46,4.27-4.82,8.95-5.51,13.88-.28,2-.03,2.02.69,3.9l.97,2.18c1.57,1.68,3.04,3.44,4.42,5.28,1.86,2.56,18.71,9.05,18.71,9.05,0,0,5.04.91,7.76.07,2.71-.84,3.51-4.36,3.51-4.36,0,0,3.27-.17,4.92-1.26,1.64-1.09,3.18-4.37,3.18-4.37,0,0,1.74,1.39,4.74-.82,1.7-1.09,2.52-3.15,2.01-5.11,1.88,1.22,3.73,2.49,5.56,3.77,1.69,1.19,3.36,2.4,5,3.64.79.6,1.64,1.18,2.39,1.81.72.61,1.31,1.31,2.08,1.87.24.17.49.34.75.5Z"/>
  <path class="cls-1" d="M1065.43,256.63c-1.15.95-2.11,2.18-2.99,3.38-2.44,3.35-4.23,7.14-5.58,11.05-3.76,10.94-3.58,22.52-3.59,33.93s.12,22.5.29,33.75c.16,10.76.35,21.52.57,32.28.08,3.68.15,7.36.24,11.03.03,1.19.05,2.37.08,3.56.01.52-.13,1.36.04,1.86.02.07,0,.18,0,.25l.46-.42c-3.31,1.17-6.61,2.34-9.92,3.51-8.1,2.88-16.2,5.77-24.3,8.67-10.04,3.6-20.07,7.23-30.09,10.89-9.22,3.37-18.43,6.77-27.59,10.28-5.65,2.16-11.41,4.23-16.86,6.87-.3.15-.61.3-.9.46-.85.46.46.51.86.29,4.71-2.54,9.94-4.29,14.92-6.21,8.86-3.43,17.77-6.72,26.69-10,10.06-3.69,20.14-7.34,30.22-10.97,8.4-3.02,16.81-6.03,25.23-9.02,4.02-1.43,8.16-2.68,12.1-4.29.05-.02.11-.04.17-.06.17-.06.46-.2.46-.42-.11-4.45-.2-8.9-.3-13.35-.21-10.19-.41-20.38-.56-30.58-.18-11.38-.32-22.77-.36-34.15s-.54-22.52,2.11-33.39c1.65-6.78,4.47-14.02,9.58-18.99.15-.14,0-.02.15-.13.6-.49-.84-.37-1.13-.13h0Z"/>
  <path class="cls-1" d="M1112.42,413.26c-.88,3.36-2.19,6.65-3.64,9.8-2.72,5.9-6.34,11.81-11.61,15.76-4.25,3.2-9.9,4.74-14.93,6.3-5.85,1.81-11.8,3.32-17.76,4.71-13.98,3.26-28.12,5.82-42.28,8.18s-27.26,4.28-40.92,6.21c-8.89,1.26-17.8,2.38-26.67,3.79-.57.09-1.14.18-1.71.28s-1.31.66-.28.49c8.29-1.44,16.67-2.43,25-3.6,13.48-1.89,26.96-3.86,40.4-6.05,14.49-2.36,28.96-4.93,43.28-8.16,6.19-1.39,12.36-2.9,18.46-4.69,4.92-1.44,9.9-2.99,14.57-5.12,6.11-2.79,10.48-8.35,13.69-14.08,2.35-4.2,4.25-8.71,5.61-13.33.08-.26.15-.51.22-.77s-1.33-.08-1.43.27h0Z"/>
  <path class="cls-1" d="M1054.81,387.9c1.94.65,3.83,1.46,5.68,2.34,3.56,1.68,7.12,3.7,9.94,6.49,1.5,1.48,2.78,3.23,3.32,5.29.13.48,1.58.1,1.45-.39-.99-3.76-4.25-6.53-7.35-8.6s-6.32-3.65-9.7-5c-.72-.29-1.44-.57-2.18-.81-.32-.11-.74-.05-1.02.14-.15.1-.48.42-.13.54h0Z"/>
  <path class="cls-1" d="M866.96,393.86c6.84-1.75,15.45-.71,21.73,2.9,3.16,1.81,5.84,4.31,7.99,7.24.24.33,1.64-.14,1.36-.53-6.62-8.99-17.74-12.16-28.48-10.7-.92.13-1.85.27-2.76.51s-.71.81.16.59h0Z"/>
  <path class="cls-35" d="M994.63,956.86s3.43-7.9-17.18-16.54c-12.56-5.26-17.34-5.38-17.34-5.38,0,0,13.61-1.76,24.37-5.75,9.35-3.47,15.77-9.19,18.91-9.82,0,0,13.31,20.55,34.44,30.86l-43.21,6.62Z"/>
  <path class="cls-35" d="M938.18,940.95s11.75-1.03-8.86-9.67c-12.56-5.26-17.34-6.39-17.34-6.39,0,0,18.67-.75,29.43-4.74,9.35-3.47,15.77-9.19,18.91-9.82,0,0,13.31,17.51,34.44,27.82l-56.59,2.78Z"/>
  <path class="cls-35" d="M968,934.95s-9.19-.36-12.09,0-10.57,6.02-2.7,15.49c7.87,9.47,41.42,6.43,41.42,6.43l15.07-2.31-41.7-19.61Z"/>
  <path class="cls-35" d="M919.65,924.6s-9.19-.36-12.09,0c-2.9.36-12.62,7.17-2.7,14.47,7.22,5.31,41.42,2.38,41.42,2.38l15.07-.29-41.7-16.57Z"/>
  <path class="cls-15" d="M1000.7,924.21c-6.41,6.24-15.2,8.94-23.79,10.58-4.49.86-9.04,1.41-13.51,2.37-3.16.67-6.7,1.79-8.72,4.5-2.75,3.71-.92,8.51,1.61,11.78.18.23,1.12.07.96-.13-2.33-3.01-4.15-7.34-2.01-10.95,1.78-3.01,5.46-4.17,8.67-4.86,4.47-.95,9.02-1.5,13.51-2.37s8.55-1.87,12.61-3.5,8.25-4.04,11.53-7.24c.28-.27-.68-.36-.87-.18h0Z"/>
  <path class="cls-15" d="M949.68,940.75c-.03-2,1.3-3.71,2.98-4.67,1.92-1.1,4.2-1.42,6.34-1.86,4.56-.95,9.13-1.91,13.69-2.86,2.63-.55,5.25-1.1,7.88-1.65.67-.14.12-.44-.3-.36-4.93,1.03-9.86,2.06-14.78,3.09-2.42.51-4.85,1.01-7.27,1.52-2.13.45-4.37.82-6.29,1.91-1.8,1.03-3.28,2.82-3.24,4.98,0,.26,1,.2.99-.1h0Z"/>
  <rect class="cls-24" x="661.51" y="901.61" width="29.66" height="17.85" transform="translate(1344.58 1827.03) rotate(-179.49)"/>
  <g>
    <path d="M650.97,932.24s-4.16,5.54-2.75,8.24c1.41,2.7,14.69,3.45,18.16,3.82,3.48.38,48.52,5.7,53.01,5.8,4.48.1,28.62-.98,32.11-6.09,0,0,5.92-8.61-2.13-11.61-8.05-3-14.07-1.95-21.6-5.68-7.53-3.73-15.73-9.57-22.89-17.42,0,0-7.28-6.39-10.8-5.43-3.52.96-7.55,7.53-10.42,9.1-2.87,1.56-16.56,3.5-20.01-3.1-3.45-6.6-4.47-4.1-7.16-3.16-2.69.94-7.27,12.44-6.27,17.8,1,5.36.76,7.72.76,7.72Z"/>
    <path class="cls-25" d="M698.06,912.21l-.04-.05c-.33-.36-.08-1.04.56-1.5l4.62-3.35c.64-.47,1.44-.55,1.77-.19l.04.05c.33.36.08,1.04-.56,1.5l-4.62,3.35c-.64.47-1.44.55-1.77.19Z"/>
    <path class="cls-25" d="M703.29,914.84l-.13-.13c-.24-.25.04-.81.61-1.23l3.43-2.51c.58-.42,1.25-.56,1.49-.31l.13.13c.24.25-.04.81-.61,1.23l-3.43,2.51c-.58.42-1.25.56-1.49.31Z"/>
    <path class="cls-25" d="M707.6,917.34l-.21-.23c-.22-.23.03-.72.55-1.1l2.45-1.79c.52-.38,1.12-.5,1.34-.28l.21.23c.22.23-.03.72-.55,1.1l-2.45,1.79c-.52.38-1.12.5-1.34.28Z"/>
    <path class="cls-25" d="M711.06,920l-.25-.27c-.25-.27-.03-.8.49-1.18l2.46-1.79c.52-.38,1.15-.47,1.4-.2l.25.27c.25.27.03.8-.49,1.18l-2.46,1.79c-.52.38-1.15.47-1.4.2Z"/>
  </g>
  <path class="cls-19" d="M743.98,582.05l3.36,27.04-2.26,12.85-6.71,11.93-18.81,15.48s-3.23-.66-.16-5.86c3.01-4.56,6.39-8.95,10.13-13.12l1.96-13.92-3.45-6.14-3.97.69s1.08,17.48-1.61,21c-.47.61-.86,1.12-1.2,1.54-.94,1.18-2.68,1.28-3.77.24l-1.61-1.54-.72-26s1.63-11.44,2.4-14.14c1.08-2.67,2.92-6.52,4.47-9.04l.36-3.61,18.82-5.51,2.77,8.12Z"/>
  <path class="cls-19" d="M683.02,324.51c2.94,1.04,45.61,20.39,52.44,43.05,6.83,22.66,5.29,95.04,8.85,115.06,4.48,23.32-1.66,87.86-1.09,93.66l1.02,21.06-16.06-6.39s-8.82-118.93-20.64-150.54c-11.82-31.61-24.52-115.91-24.52-115.91Z"/>
  <polygon class="cls-24" points="618 924.51 647.89 926.07 646.09 904.28 616.52 906.73 618 924.51"/>
  <path class="cls-19" d="M631.33,273.86s1.82,30.13-1.85,40.33c-.89,2.48-16.51,9.81-16.51,9.81l62.55,31.41,31.59-26.16s-24.22-11.23-25.11-14.2c-.89-2.97-.05-25.37-.05-25.37"/>
  <path class="cls-22" d="M590.58,556.54l-2.44,20.08c-2.05,16.85-1.63,33.9,1.24,50.63l13.45,105.83s1.78,65.04-.14,101.89c-1.68,31.95,5.61,79.54,5.61,79.54l53.7-2.34,20.89-174.29-2.71-119.56,17.08-60.76-106.67-1.02Z"/>
  <path class="cls-22" d="M735.87,559.81l-11.8,164.94c.57,8.88-2.41,43.13-5.02,51.63l-15.96,110.08-1.53,15.9-43.42,4.15,7.37-350.56,70.37,3.86Z"/>
  <path class="cls-8" d="M665.74,904.24c.46-4.43.92-8.86,1.38-13.29l3.37-32.43c1.41-13.61,2.83-27.22,4.24-40.83,1.32-12.69,2.64-25.38,3.95-38.07.85-8.19,1.7-16.37,2.55-24.56.13-1.27.25-2.55.4-3.82.72-6.19,1.34-12.35,1.49-18.59.07-2.94-.04-5.89.01-8.83.12-7.62.31-15.24.47-22.86.27-13.37.55-26.74.82-40.1.23-11.25.46-22.5.69-33.75.05-2.37.02-4.76.15-7.13.04-.73.21-1.44.37-2.15.66-2.91,1.64-5.79,3.08-8.42,1.75-3.2,4.35-6.05,8.04-6.85.7-.15.49-.91-.2-.76-6.8,1.46-10.13,8.71-11.73,14.81-.48,1.84-.69,3.4-.73,5.27-.19,9.18-.38,18.37-.56,27.55-.28,13.68-.56,27.36-.84,41.04-.21,10.07-.41,20.14-.62,30.2-.07,3.37,0,6.72-.04,10.09-.1,7.21-.88,14.3-1.63,21.46-.67,6.41-1.33,12.82-2,19.24-1.24,11.94-2.48,23.87-3.72,35.81-1.43,13.77-2.86,27.54-4.29,41.31-1.24,11.91-2.47,23.83-3.71,35.74-.66,6.37-1.32,12.74-1.98,19.1-.03.29-.06.59-.09.88-.06.57,1.08.42,1.13-.09h0Z"/>
  <path class="cls-17" d="M743.14,448.77c2.53-1,5.16-3.7,5.13-5.03,0-.42-3.25-49.95-3.46-52.14-.82-8.83-1.69-17.69-3.65-26.35-2.55-11.21-8.66-18.27-16.86-26.48-9.64-9.64-18.95-14.52-31.31-19.31l-8.23-2.66s13.26,14.75-13.13,19.71c-26.39,4.96-45.54-22.2-45.54-22.2,0,0-15.37,7.48-32.56,16.22-6.6,3.36-21.64,14.85-24.46,21.7-7.04,17.11-6.38,31.24-11.03,68.12l18.79,10.12,19.61,6.33c-1.7,21.01-10.49,64.19-8.28,97.15.31,4.42.63,8.84.97,13.26.2,2.62-5.9,18.56-4.39,20.65,1.43,1.97,12.69.45,15.25,1.21,27.47,8.15,99.37,5.11,99.37,5.11,11.25-1.9,20.61-3.12,30.44-8.44,6.96-3.77,8.25-5.95,11.96-9.34-2.22-9.36-2.56-19.18-3.22-28.74-1.07-15.38-3.1-31.5-3.84-46.91-.04-.88.08-29.29.37-29.95,2.59-1.35,2.12.16,8.07-1.99Z"/>
  <path class="cls-19" d="M561.46,416.54s-4.61,73.13-4.31,80.68c1,25.47,25.12,99.43,25.12,99.43l18.31-5.95s1.64-84.47-5.14-97.74l8.13-69.01-42.1-7.39Z"/>
  <path class="cls-17" d="M562.43,379.84s-5.61,45.25-7.47,67.35c0,0,33.28,10.96,56.72,6.72,24.84-4.5-2.05-55.66-2.05-55.66l-47.2-18.41Z"/>
  <g>
    <path class="cls-17" d="M590.5,346.94s23.9,2.62,23.94,39.73-2.76,67.25-2.76,67.25c0,0-16.43,3.04-31.33,0-14.9-3.04-25.39-6.72-25.39-6.72l.62-6.87s18.6,6.3,33.62,7.52c15.02,1.22,20.96.17,20.96.17"/>
    <path class="cls-5" d="M590.23,347.41c.55.06,1.24.23,1.98.44,1.74.5,3.4,1.21,4.98,2.09,5.46,3.05,9.57,8.02,12.16,13.67,4.96,10.83,4.44,22.92,4.28,34.55-.18,12.69-.65,25.37-1.4,38.03-.35,5.93-.73,11.87-1.28,17.79l.61-.51c.42-.08-.17.03-.27.04-.44.07-.88.14-1.33.21-1.45.21-2.91.39-4.37.53-4.69.47-9.41.65-14.12.45-10.26-.44-20.41-3.19-30.22-6.1-1.96-.58-3.93-1.18-5.86-1.85l.3.38c.21-2.29.42-4.58.62-6.87l-1.16.52c16.03,5.42,32.91,8.6,49.86,8.1,1.68-.05,3.41-.09,5.07-.38.74-.13,1.15-1.12.16-.95-1.25.22-2.54.27-3.81.33-4.25.2-8.53.05-12.78-.21-10.38-.63-20.5-2.74-30.49-5.59-2.4-.69-4.8-1.4-7.17-2.2-.34-.12-1.12.07-1.16.52-.21,2.29-.42,4.58-.62,6.87-.02.21.12.31.3.38,5.92,2.07,12.03,3.67,18.12,5.12,5.54,1.31,11.07,2.47,16.76,2.82,4.92.3,9.88.18,14.79-.26,2.54-.22,5.08-.51,7.59-.97.22-.04.59-.25.61-.51,1.61-17.37,2.31-34.87,2.63-52.3.22-12.1,1.13-24.86-3.4-36.37-2.43-6.18-6.47-11.76-12.15-15.33-2.58-1.61-5.65-3.04-8.72-3.39-.64-.07-1.51.84-.53.95h0Z"/>
  </g>
  <g>
    <path class="cls-17" d="M734.99,380.8c.51,13.46.96,49.26.64,65.86-.02,1.25-.05,2.4-.09,3.41,0,0,4.99.32,9.06-2.06,3.68-2.15,3.36-3.3,3.36-3.3v-4.45s-1.97,4.76-11.07,6.09"/>
    <path class="cls-5" d="M734.26,381c.68,18.17.79,36.38.74,54.56-.01,4.91-.04,9.81-.19,14.72,0,.1.21.15.27.16,4.33.25,9.24-1.04,12.47-4.03.64-.59,1.1-1.16,1.13-2.03.05-1.43,0-2.87,0-4.29,0-.44-1.33.02-1.44.3-.37.87-1.12,1.63-1.82,2.23-2.34,2.03-5.41,2.95-8.42,3.41-.65.1-1.24.84-.23.69,3.35-.52,6.79-1.53,9.47-3.68.94-.76,1.95-1.72,2.43-2.86l-1.44.3c0,1.44.23,3.07,0,4.48-.11.68-.73,1.24-1.25,1.67-1.66,1.37-3.67,2.27-5.76,2.72-1.19.26-2.73.61-3.96.4-.09-.01-.29,0-.29,0,.2.31.32-1,.32-1.04.03-.97.05-1.95.06-2.92.05-2.61.07-5.23.08-7.85.07-13.27-.07-26.54-.3-39.8-.1-5.84-.21-11.68-.43-17.51-.01-.37-1.47-.11-1.45.39h0Z"/>
  </g>
  <path class="cls-19" d="M637.68,321.93c16.05,7.5,33.99,6.83,47.27-4.66-3.55-1.83-3.43-5.14-3.64-5.91-.79-2.85-.55-22.34-.55-22.34l-50.43-16.27s3.55,30.66-.27,40.28c-.2.51-1.88,2.81-3.15,3.89,3.01,2.56,7.14,3.32,10.76,5.01Z"/>
  <path class="cls-36" d="M691.03,291.34c-1.58,2.83-3.01,5.77-4.7,8.53-.03.04-.03.08-.05.12-.16-.11-.36-.12-.5.09-1.19,1.86-3.27,2.9-4.31,4.87-.89,1.7-.15,3.89-.15,5.88-1.33.29-3.56.32-5.25.52-11.46.38-11.76-1.15-27.53-10.27-5.01-2.9-4.25-6.84-5.22-7.54,15.67-1.24,31.28-1.37,47.7-2.21Z"/>
  <path d="M617.22,254.81s-2.74-7.36-6.5-25.09c-3.36-15.87,21.16-30.41,36.23-33.57,8.29-1.74,36.42.35,43.82,3.39,7.4,3.04,11.68,12.63,13.25,26.62,0,0-5.13-13.71-14.01-12.92-7.24.64-30.8-1.77-36.79,1.15-5.99,2.92-19.2,9.11-18.66,31.14.15,6.01-10.82.23-13.56,4-2.74,3.77-3.78,5.28-3.78,5.28Z"/>
  <path class="cls-19" d="M630.62,279.92l-3.5-21.5-2.28-24.14,8.56-18.83,16.8-9.22,19.58-.36s15.85,3.09,20.86,4.16c5.01,1.06,8.79,6.93,12.48,13.51,3.69,6.59,2.81,17.87,2.81,17.87.16.38-.18,2.11-.24,2.47-.75,4.55-.86,8.51-1.5,11.91-.3,1.61-.22,3.1.34,4.56,2.18,5.77,2.28,8.29,1.98,11.91-.41,4.93-1.1,9.15-2.72,13.1-1.71,4.18-3.9,8.72-4.35,9.61,0,0-4.93,9.43-6.05,10.39-1.12.96-2.82,1.88-3.64,2.01-.82.13-11.54,1.35-11.54,1.35l-5,.12c-1.7.04-3.39-.25-4.98-.87-4.3-1.67-16.58-6.7-19.97-8.85-4.57-2.89-10.46-15.53-10.46-15.53"/>
  <path d="M634.36,258.8c.18,1.87.47,9.3.76,11.11l-9.68.24c-3.2-6.28-7.03-13.67-8.21-15.34-1.85-2.61-2.7-15.62-3.02-20.51l-.07-1.06c-.32-4.7,3.85-12.36,11.14-20.5,8.03-8.96,22.73-14.5,37.45-14.1,1.4.04,2.8.13,4.15.27,12.83,1.32,23.7,7.22,32.3,17.52,6.2,7.43,6.98,16.2,6.73,21.58-.82-10.56-4.86-17.84-5.03-18.14-3.83-7.04-8.39-8.9-11.55-9.22-2.75-.28-4.77.54-5.17.72-3.07.83-7.62.61-10.92.27-2.45-.25-4.4-.59-4.94-.68-1.69-1.07-4.2-1.8-7.24-2.11-7.08-.73-17.21.96-19.17,4.14-2.18,3.53-6.89,15.98-6.8,18.84"/>
  <path class="cls-19" d="M631.56,280.36c-5.45,5.99-9.59-4.96-9.59-4.96-5.66-6.4-5.87-13.39-5.81-18.18.05-4.79,5.32-4.87,5.32-4.87,4.48.35,6.55,2.69,10.74,17.65"/>
  <path d="M699.22,214.68c-3.44-5.12-10-11.47-13.78-16.34-1.72-.1-10.23,0-12.01-.01-18.21-.11-42.26,11.19-44.37,17.89-1.32,4.18.44,26.61,1.3,28.63,2.37,5.53,3.48,12.85,3.48,12.85.46-8.46,6.16-18.06,6.82-20.98.66-2.92-3.68-16.49-2.76-17.1.91-.61,17.34-6.27,35.9-6.62,5.47-.1,10.97.19,15.86.67-.04-.06,9.61,1.07,9.57,1.02Z"/>
  <path d="M665.5,251.53c-1.13-.55-2.41-.99-3.13-.32-.17.16-.62.6-.81,1.34-.25.94.15,1.99.75,2.62.8.84,2.11.96,3.1.46,1.34-.67,1.74-2.31,1.38-3.49-.07-.22-.38-.16-1.29-.6"/>
  <path d="M698.05,250.58c1.1-.6,2.41-.14,3.15.49.18.15.65.57.88,1.29.3.93-.05,1.99-.62,2.65-.76.88-2.06,1.06-3.08.62-1.37-.6-1.86-2.22-1.55-3.42.06-.22.33-1.14,1.21-1.63"/>
  <path d="M689.01,255.23s4.37-4.58,7.63-4.96c4.77-.56,6.02.49,7.77,2.64,0,0-3.19-2.21-6.53-1.73s-8.87,4.05-8.87,4.05Z"/>
  <path d="M672.93,254.15s-6.87-3.95-10.16-3.9c-4.8.08-10.4,3.14-11.84,5.5,0,0,7.36-4.47,10.74-4.44,3.23.04,11.26,2.83,11.26,2.83Z"/>
  <path d="M670.87,234.44c.38,1.07.76,2.15,1.14,3.23.29.82,1.01,2.68,1.29,3.5-2.87.24-5.6.05-7.4.36-3.57.61-7.31,1-10.53,2.74-1.54.83-2.82,1.75-3.88,3.07-.34.41-1.09,1.96-1.83,1.9-.31-.03-.35-1.5-.35-1.66-.07-2.98,1.83-4.91,4.41-6.55,5.26-3.34,11.07-5.25,17.15-6.59"/>
  <path d="M706.96,241.75s-1.64-1.04-1.66-1.05c-4.59-2.94-9.68-4.44-15.03-5.37-.35,1.08-.71,2.17-1.06,3.26-.27.83-.8,2.31-1.07,3.14,2.53.05,4.78-.13,6.37.05,3.14.37,6.46.71,9.27,2.21.22.12,2.1.89,2.31,1.02,1.44-1.19,1.2-2.89.86-3.27Z"/>
  <g>
    <path class="cls-6" d="M685.91,274.04c-1.38.79-3.53.66-4.96-.2-.32-.19-1.36.03-.91.3,1.9,1.14,4.97,1.17,6.76.16.18-.1.14-.24-.09-.31-.24-.07-.61-.05-.8.06"/>
    <path class="cls-6" d="M679.41,273.74c-.95-.43-2.02-.65-3.08-.71-.15,0-.35.06-.46.16-.09.08-.1.19.02.26.49.27,1.12.38,1.69.35.18,0,.42-.06.51-.22.09-.15-.09-.24-.23-.23-.47.02-.95-.06-1.36-.29-.15.14-.3.28-.45.42.94.05,1.9.25,2.75.64.17.08.41.02.56-.08.11-.07.23-.23.06-.31"/>
    <path class="cls-6" d="M675.23,273.98c-1.24,0-2.7-.52-3.33-1.45-.95-1.41-.15-3.69,1.37-4.65.17-.1.07-.23-.1-.26-.22-.04-.48.05-.66.16-1.32.83-2.15,2.71-1.91,4.05.22,1.25,1.42,2.1,2.91,2.43.44.1.91.16,1.37.16.19,0,.52-.07.61-.22.09-.15-.08-.22-.26-.22"/>
    <path class="cls-6" d="M688.16,273.35c-.07-.14.05-.24.15-.24.33,0,.67-.1.95-.35.11.13.22.27.34.4-.67.09-1.33.33-1.92.75-.12.08-.29.04-.4-.05-.08-.07-.17-.22-.05-.31"/>
    <path class="cls-6" d="M687.23,273.55c.66-.47,1.4-.73,2.14-.83.11-.01.25.04.33.14.07.08.08.19,0,.26"/>
    <path class="cls-6" d="M690.73,273.45c.8-.05,1.73-.62,2.1-1.58.56-1.45-.04-3.14-1.06-4.03-.11-.1-.06-.23.05-.27.14-.05.32.03.43.13.89.78,1.49,2.06,1.39,3.41-.09,1.26-.84,2.16-1.79,2.55-.28.11-.59.2-.89.22-.12,0-.34-.04-.4-.19-.06-.15.05-.22.16-.23"/>
  </g>
  <path class="cls-16" d="M681.65,283.29c-2.75.03-11.01.34-11.01.34,0,0,2.94,2.49,11.19,2.4,8.25-.09,10.94-2.56,10.94-2.56l-11.11-.18Z"/>
  <g>
    <path class="cls-17" d="M625.68,314.5s15.29,24.28,41.51,22.53c26.22-1.75,20.75-15.08,20.75-15.08l-3.41-5.59,9.01,3.78s2.71,6.6-.42,12.79c-3.13,6.19-16.28,11.57-33.08,10.16-9.85-.83-22.79-6.72-30.65-13.89-9.41-8.59-11.06-10.67-11.06-10.67l7.35-4.03Z"/>
    <path class="cls-5" d="M625.01,314.8c1.99,3.15,4.57,6,7.22,8.59,5.64,5.52,12.41,10,19.99,12.36,4.57,1.42,9.38,2.02,14.16,1.78s9.75-.92,14.23-2.72c4.19-1.68,8.35-4.9,8.53-9.77.13-3.55-2.16-6.06-3.94-8.97l-1.24.68c1.99.83,3.98,1.67,5.97,2.5.93.39,1.86.85,2.82,1.18.38.13.04-.17.13.06.19.49.33,1,.46,1.51,1,3.93.85,8.69-1.63,12.08-1.87,2.56-4.85,4.23-7.7,5.44-4.07,1.74-8.48,2.65-12.88,3.07-5.01.48-10.2.42-15.14-.62-9.05-1.91-18.1-6.3-25.11-12.36-3.34-2.89-6.55-5.97-9.68-9.08-.75-.74-1.54-1.48-2.2-2.31l-.37.66c2.45-1.34,4.9-2.69,7.35-4.03.87-.48.07-1.09-.6-.71-2.45,1.34-4.9,2.69-7.35,4.03-.21.11-.59.37-.37.66.59.73,1.28,1.39,1.94,2.05,2.83,2.85,5.79,5.58,8.76,8.28,7.13,6.51,16.29,11.23,25.68,13.44,4.84,1.14,9.87,1.36,14.83,1.06,4.67-.28,9.35-1.09,13.77-2.67,3.26-1.17,6.54-2.78,9.04-5.23,2.85-2.79,3.88-6.81,3.64-10.72-.07-1.12-.24-2.24-.51-3.33-.13-.51-.22-1.24-.51-1.69-.35-.54-1.24-.72-1.82-.96-2.46-1.03-4.92-2.06-7.38-3.1-.37-.15-1.62.06-1.24.68.61,1,1.22,2,1.83,3l1.14,1.86c.09.15.45.78.39.62.26.62.37,1.34.43,2,.38,4.12-2.39,7.35-5.88,9.15-3.91,2.01-8.43,2.74-12.77,3.14-4.9.45-9.78.14-14.54-1.16-7.56-2.06-14.38-6.34-20.05-11.68-2.97-2.8-5.87-5.93-8.06-9.4-.3-.47-1.7.03-1.34.6Z"/>
  </g>
  <path class="cls-4" d="M651.31,944.16s20.27-.42,29.24,1.21c8.98,1.63,32.44,3.37,44.48,2.15,12.03-1.22,28.35-6.95,28.35-6.95,0,0,1.3,1.45-3.61,4.69-4.92,3.24-20.97,6.71-35.22,6.95-14.25.24-35.11.82-39.47,1.08-4.37.26-22.57,1.06-25.3-1.53-2.29-2.18,1.54-7.6,1.54-7.6Z"/>
  <path class="cls-23" d="M707.35,953.93c2.93-3.26,5.16-8.09,1.68-11.81-3.17-3.39-7.58-2.7-11.77-3.06-5.33-.46-10.45-1.93-15.17-4.45-5.18-2.76-9.87-6.43-14.37-10.16-3.28-2.72-6.49-5.53-9.54-8.5-.26-.25-1.24.14-.97.41,6.45,6.26,13.48,12.3,21.12,17.06,4.08,2.54,8.47,4.47,13.18,5.46,2.56.54,5.18.82,7.8.93,2.3.09,4.4-.04,6.5,1.05,1.91.99,3.48,2.69,3.89,4.85.59,3.13-1.34,6.02-3.33,8.22-.3.33.74.27.97.02h0Z"/>
  <g>
    <path d="M606.88,942.62s-1.5,5.94-.03,8.62c1.47,2.68,12.24,2.9,15.73,3.23,3.49.33,48.66,5.05,53.14,5.09,4.49.04,28.6-1.36,31.96-6.51,0,0,5.72-8.69-2.4-11.58-8.12-2.89-14.11-1.76-21.73-5.39-7.62-3.63-15.95-9.36-23.3-17.1,0,0-7.43-6.29-10.93-5.29-3.5,1-7.37,7.63-10.21,9.24-2.84,1.6-16.48,3.72-20.09-2.83-3.61-6.55-4.56-4.04-7.23-3.06-2.67.98-6.97,12.54-5.85,17.88,1.12,5.34.94,7.71.94,7.71Z"/>
    <path class="cls-25" d="M653.49,921.96l-.04-.04c-.34-.36-.11-1.04.52-1.51l4.54-3.42c.63-.47,1.42-.57,1.77-.21l.04.04c.34.36.11,1.04-.52,1.51l-4.54,3.42c-.63.47-1.42.57-1.77.21Z"/>
    <path class="cls-25" d="M658.78,924.52l-.13-.13c-.25-.25.02-.81.58-1.24l3.37-2.56c.57-.43,1.23-.58,1.48-.33l.13.13c.25.25-.02.81-.58,1.24l-3.37,2.56c-.57.43-1.23.58-1.48.33Z"/>
    <path class="cls-25" d="M663.15,926.97l-.22-.22c-.22-.22.01-.73.52-1.11l2.41-1.83c.51-.39,1.11-.52,1.33-.29l.22.22c.22.22-.01.73-.52,1.11l-2.41,1.83c-.51.39-1.11.52-1.33.29Z"/>
    <path class="cls-25" d="M666.68,929.58l-.26-.26c-.26-.27-.05-.8.46-1.18l2.41-1.82c.51-.39,1.14-.48,1.4-.22l.26.26c.26.27.05.8-.46,1.18l-2.41,1.82c-.51.39-1.14.48-1.4.22Z"/>
  </g>
  <path class="cls-4" d="M607.15,946.87s20.24,1.07,29.07,3.35c8.83,2.28,32.11,5.73,44.2,5.4,12.09-.33,28.78-4.85,28.78-4.85,0,0,1.19,1.54-3.95,4.42-5.14,2.87-21.4,5.16-35.64,4.35-14.23-.81-35.07-1.75-39.44-1.81-4.37-.06-22.59-.59-25.12-3.38-2.13-2.34,2.1-7.47,2.1-7.47Z"/>
  <path class="cls-31" d="M628.61,265.89c-.74-2.27-1.58-4.53-2.75-6.61-.57-1.01-1.23-2.02-2.1-2.82-.33-.31-.74-.64-1.2-.74-.82-.18-1.41.32-1.83.93-1.17,1.73-1.37,3.97-1.13,5.99.03.23,1.49-.05,1.45-.39-.19-1.63-.1-3.33.56-4.86.17-.4.38-.78.63-1.14.08-.11.16-.2.24-.3.07-.09-.02,0,.05-.06l-1.25.34s.06,0,.08.02c-.11-.05.09.04.15.07.31.15.59.36.84.59,1.25,1.12,2.09,2.71,2.8,4.2.8,1.67,1.43,3.41,2.01,5.17.09.29,1.53-.13,1.45-.39h0Z"/>
  <path class="cls-31" d="M626.59,266.14c-.68-.02-1.42.16-1.88.7-.35.43-.41.98-.4,1.52.01.67.13,1.33.23,2,.08.53.22,1.12.14,1.66-.01.08-.06.18-.06.25,0-.05-.03.08-.03.05,0-.08.74-.34.8-.19-.07-.18-.29-.39-.39-.59-.43-.9-.66-1.9-.87-2.86-.27-1.29-.4-2.23-.28-3.5s.38-3.24,1.64-3.81c.22-.1.58-.35.38-.62s-.73-.14-.97-.04c-1.47.67-2.11,2.17-2.38,3.68-.19,1.02-.28,2.12-.12,3.16.18,1.2.43,2.41.82,3.57.19.57.45,1.43,1.02,1.76s1.46,0,1.76-.59c.26-.5.15-1.15.08-1.68-.1-.79-.28-1.57-.31-2.37-.01-.32-.01-.68.1-.98.04-.11.09-.2.17-.28-.06.06-.19.04,0,.05.32,0,.79-.1.95-.41s-.14-.46-.4-.47h0Z"/>
  <path class="cls-31" d="M678.05,242.12c1.56-.7,2.59-2.15,3-3.77.49-1.93,0-3.96-.7-5.77-.26-.68-1.71-.28-1.45.39.62,1.61,1.09,3.36.77,5.09-.25,1.32-1.02,2.59-2.27,3.15-.29.13-.53.48-.33.78s.7.26.99.13h0Z"/>
  <path class="cls-26" d="M683.37,281.44c-4.11.05-13.14,3.07-14.95,4.94,0,0,4.13,5.87,13.66,5.75,9.53-.12,11.67-6.07,11.67-6.07,0,0-5.15-4.68-10.39-4.62Z"/>
  <path class="cls-23" d="M672.27,284.28s5.21-.52,9.37-.57c4.16-.05,9.38.34,9.38.34,0,0,.63-3.38-6.92-3.29-7.54.1-11.84,3.52-11.84,3.52Z"/>
  <path class="cls-10" d="M683.29,290.49c-4.47-.68-9.67-4.55-14.87-4.11,0,0,2.16,8.91,13.36,8.76,11.2-.14,11.97-9.08,11.97-9.08-5.21-.31-6.01,3.64-10.46,4.43Z"/>
  <path class="cls-10" d="M688.21,278.81c-2.36-.17-3.84.88-4.86.89-1.02.01-2.53-1-4.88-.77-2.2.22-11.45,6.57-10.4,7.37,1.05.8,8.22-3.88,15.31-3.97,7.08-.09,9.68,4.46,10.71,3.64,1.03-.82-3.68-7-5.89-7.16Z"/>
  <path class="cls-19" d="M617.69,637.84c-3.76-4.09-8.73-9.67-8.74-10.65-.01-.98-1.07-7.52-2.01-13.24-.61-2.89,1.08-5.78,3.77-6.46.7-.18,6.75,12.41,11.99,9.21l-2.98-11.72c-1.47-3.64-3.38-7.06-5.66-10.18-3.06-3.69-14.4-15.06-14.4-15.06l-1.12,6.25-20.52-6.93-1.04,27.61s5.38,27.62,8.23,30.36c2.86,2.74,11.21,4.43,11.21,4.43,3.17,4.24,10.06,2.88,10.06,2.88,7.37,5.14,7.29-.88,7.29-.88.21.24.48.41.78.49,3.21.91,5.39-3.69,3.13-6.11Z"/>
  <path class="cls-36" d="M598.16,621.76c.12,4.93,1.31,10.14,4.4,14.07,1.35,1.72,2.96,3.25,4.75,4.5,1.93,1.34,4.01,2.61,6.26,3.3.65.2,1.7-.74.83-1.01-2.11-.65-4.03-1.82-5.84-3.06s-3.35-2.7-4.68-4.38c-2.97-3.77-4.14-8.79-4.25-13.52-.02-.79-1.49-.59-1.47.1h0Z"/>
  <path class="cls-36" d="M592.09,624.46c.19,2.84.56,5.83,1.68,8.46,1.06,2.49,2.95,4.44,5,6.16,2.25,1.89,4.46,4.17,7.05,5.54.36.19,1.51-.41,1.37-.48-2.55-1.35-4.71-3.57-6.91-5.42s-4.05-3.75-5.12-6.34-1.44-5.53-1.62-8.31c-.01-.23-1.47.01-1.45.39h0Z"/>
  <path class="cls-36" d="M586.32,625.08c-1.1.37-.71,1.5-.52,2.38.48,2.24,1.12,4.45,1.69,6.66.34,1.32.82,2.28,1.73,3.29s1.96,1.94,3.07,2.74c.9.64,3.81,2.79,4.9,1.35.22-.29-.19-.49-.42-.51-.36-.04-.74.14-.95.42l-.02.02.38-.31c.82-.34.43,0,.28-.12-.07-.06-.35-.11-.43-.14-.45-.17-.88-.39-1.3-.63-.94-.54-1.83-1.18-2.64-1.9s-1.66-1.51-2.29-2.4-.82-2-1.09-3.05c-.44-1.7-.91-3.41-1.31-5.12-.12-.51-.24-1.01-.32-1.53-.02-.14-.01-.32-.05-.45-.1-.36.42-.15-.49.16.24-.08.7-.28.61-.62-.08-.31-.61-.31-.84-.23h0Z"/>
</svg>