<?xml version="1.0" encoding="UTF-8"?>
<svg id="Layer_1" data-name="Layer 1" xmlns="http://www.w3.org/2000/svg" xmlns:xlink="http://www.w3.org/1999/xlink" viewBox="0 0 1334 1000">
  <defs>
    <style>
      .cls-1 {
        fill: #8c542a;
      }

      .cls-2 {
        fill: #101931;
      }

      .cls-3 {
        fill: #f39720;
      }

      .cls-4 {
        fill: #010101;
      }

      .cls-5 {
        fill: #653c29;
      }

      .cls-6 {
        fill: #715446;
      }

      .cls-7 {
        fill: #27153c;
      }

      .cls-8 {
        fill: #100f0e;
      }

      .cls-9 {
        fill: #f1eef7;
      }

      .cls-10 {
        fill: #181311;
      }

      .cls-11 {
        fill: #745245;
      }

      .cls-12 {
        stroke: #4f2e25;
      }

      .cls-12, .cls-13, .cls-14 {
        stroke-miterlimit: 10;
      }

      .cls-12, .cls-14 {
        fill: none;
      }

      .cls-15 {
        fill: #a66e53;
      }

      .cls-16 {
        fill: #0a2f44;
      }

      .cls-17 {
        fill: #9a5c26;
      }

      .cls-18 {
        fill: url(#linear-gradient);
        opacity: .5;
      }

      .cls-19 {
        fill: #212121;
      }

      .cls-20 {
        fill: #3d3d3d;
      }

      .cls-21, .cls-13 {
        fill: #fff;
      }

      .cls-22 {
        fill: #a3a3a3;
      }

      .cls-23 {
        fill: #0d0b09;
      }

      .cls-24 {
        fill: #513835;
      }

      .cls-25 {
        fill: #151210;
      }

      .cls-26 {
        fill: #f2ebd1;
      }

      .cls-27 {
        fill: #24180f;
      }

      .cls-28 {
        fill: #628e9f;
      }

      .cls-29 {
        fill: #5d483b;
      }

      .cls-30 {
        fill: #0a1722;
      }

      .cls-31 {
        fill: #28160e;
      }

      .cls-32 {
        fill: #825639;
      }

      .cls-33 {
        fill: #381c13;
      }

      .cls-13 {
        stroke: #231f20;
        stroke-width: .47px;
      }

      .cls-34 {
        fill: #331f17;
      }

      .cls-35 {
        fill: #4f2e25;
      }

      .cls-14 {
        stroke: #714534;
      }

      .cls-36 {
        fill: #161312;
      }
    </style>
    <linearGradient id="linear-gradient" x1="2671.31" y1="-373.87" x2="3730.74" y2="-373.87" gradientTransform="translate(1018.97 -2740) rotate(90) scale(1 -1)" gradientUnits="userSpaceOnUse">
      <stop offset="0" stop-color="#f0ebe0"/>
      <stop offset=".18" stop-color="#eee8dd" stop-opacity=".99"/>
      <stop offset=".33" stop-color="#e8e1d4" stop-opacity=".97"/>
      <stop offset=".46" stop-color="#ded4c5" stop-opacity=".93"/>
      <stop offset=".59" stop-color="#d0c2b0" stop-opacity=".88"/>
      <stop offset=".72" stop-color="#bdab95" stop-opacity=".82"/>
      <stop offset=".84" stop-color="#a78e73" stop-opacity=".73"/>
      <stop offset=".96" stop-color="#8d6d4d" stop-opacity=".64"/>
      <stop offset="1" stop-color="#83603d" stop-opacity=".6"/>
    </linearGradient>
  </defs>
  <polyline class="cls-26" points="1400.78 972.33 1400.78 -84.14 -110.58 -84.14 -110.58 972.33"/>
  <polyline class="cls-18" points="1400.78 987.24 -110.58 987.24 -110.58 -72.19 1400.78 -72.19"/>
  <polyline class="cls-6" points="-102.4 1031.79 1392.6 1031.79 1392.6 953.88 -102.4 953.88"/>
  <polygon class="cls-31" points="1280.25 875.06 1216.89 875.06 1231.32 954.54 1280.25 954.54 1280.25 875.06"/>
  <polygon class="cls-31" points="52.46 873.56 115.81 873.56 101.38 953.03 52.46 953.03 52.46 873.56"/>
  <path class="cls-29" d="M1274.17,659.09l-1.19-.45-2.12-84.15c-3.13-63.51-20.3-109.6-56.84-113.18-24.87,0-109.01-1.15-117.39,5.29-2.32-110.33,9.67-198.35-170.56-198.35l-198.67.48c-2.12,48.7-7.9,97.24-15.07,145.45-9,60.47,8.62,120.58-.59,181.01-4.63,30.37,35.36,60.97,31.44,91.44-4,31.04-8.03,62.08-11.96,93.14-5.97,47.22-11.7,94.51-16.62,141.88h567.16v-98.43c14.12-4.62,23.94-19.88,24.01-37.34v-70.2c-.04-26.9-11.44-44.46-31.59-56.58Z"/>
  <path class="cls-29" d="M745.25,921.64c.55-13.83,1.09-27.66,1.51-41.49.97-31.82,33.63-63.64,33.63-95.47l-7.38-515.24-427.5-1.21c-92.56.02-107.97,88.02-110.29,198.35-8.38-6.44-92.52-5.29-117.39-5.29-36.54,3.58-53.71,49.67-56.84,113.18l-2.12,84.15-1.19.45c-20.15,12.11-31.54,29.67-31.59,56.58v70.2c.08,17.46,9.89,32.72,24.01,37.34v98.43h695.15Z"/>
  <path class="cls-23" d="M58.17,826.15h32.61c5.8,0,11.6,0,17.4,0,6.93,0,13.87,0,20.8,0,7.92,0,15.84,0,23.76,0h26.77c9.76,0,19.51,0,29.27,0,10.57,0,21.13,0,31.7,0,11.37,0,22.74,0,34.11,0,11.98,0,23.96,0,35.94,0,12.61,0,25.23,0,37.84,0h122.22c14.27,0,28.54,0,42.81,0h434.66c13.12,0,26.25,0,39.37,0s25.18,0,37.77,0h35.86c11.34,0,22.69,0,34.03,0,10.54,0,21.07,0,31.61,0,9.75,0,19.5,0,29.25,0,8.86,0,17.72,0,26.58,0h44.32c5.76,0,11.51,0,17.27,0,4.6,0,9.2,0,13.8,0h18.19c.47,0,1.56-.7.6-.7h-8.44c-3.42,0-6.84,0-10.26,0h-52.11c-7.92,0-15.84,0-23.76,0-8.92,0-17.85,0-26.77,0h-60.97c-11.37,0-22.74,0-34.11,0-11.98,0-23.96,0-35.94,0-12.61,0-25.23,0-37.84,0s-26.29,0-39.43,0h-82.79c-14.27,0-28.54,0-42.81,0s-29.11,0-43.67,0h-468.14c-11.95,0-23.91,0-35.86,0-11.34,0-22.69,0-34.03,0-10.54,0-21.07,0-31.61,0h-29.25c-8.86,0-17.72,0-26.58,0-7.88,0-15.76,0-23.64,0-6.89,0-13.78,0-20.68,0h-49.26c-.47,0-1.56.7-.6.7h0Z"/>
  <path class="cls-23" d="M64.14,658.94c.7,0,1.4,0,2.1,0h6.17c3.34-.02,6.68-.02,10.02-.03,4.56,0,9.11-.02,13.67-.02,5.7-.01,11.41-.02,17.11-.03,6.78-.01,13.56-.02,20.34-.04,7.79-.01,15.57-.03,23.36-.04,8.72-.02,17.45-.03,26.17-.05,9.56-.02,19.13-.03,28.69-.05,10.36-.02,20.72-.04,31.07-.05,11.12-.02,22.23-.04,33.35-.06,11.77-.02,23.55-.04,35.32-.06,12.36-.02,24.73-.04,37.09-.07,12.88-.02,25.77-.05,38.65-.07s26.67-.05,40.01-.07,27.43-.05,41.15-.07c14.03-.02,28.06-.05,42.09-.07,14.27-.03,28.54-.05,42.81-.08,14.44-.03,28.89-.05,43.33-.08s29.01-.05,43.51-.08c14.54-.03,29.07-.05,43.61-.08s29.09-.05,43.63-.08,28.87-.05,43.31-.08c14.26-.03,28.52-.05,42.79-.08s28.03-.05,42.05-.07c13.7-.02,27.41-.05,41.11-.07s26.64-.05,39.96-.07,25.73-.05,38.6-.07,24.68-.04,37.03-.07c11.72-.02,23.43-.04,35.15-.06,11.09-.02,22.18-.04,33.27-.06,10.33-.02,20.66-.04,30.99-.05,9.56-.02,19.12-.03,28.68-.05,8.69-.02,17.38-.03,26.06-.05,7.75-.01,15.5-.03,23.24-.04,6.74-.01,13.48-.02,20.21-.04,5.66-.01,11.32-.02,16.98-.03,4.51,0,9.02-.02,13.53-.02l9.87-.02h6.01c.65-.01,1.29-.01,1.94-.01.32,0,1.64-.6.94-.6s-1.4,0-2.1,0h-6.17c-3.34.02-6.68.02-10.02.03-4.56,0-9.11.02-13.67.02-5.7.01-11.41.02-17.11.03l-20.34.04c-7.79.01-15.57.03-23.36.04-8.72.02-17.45.03-26.17.05-9.56.02-19.13.03-28.69.05-10.36.02-20.72.04-31.07.05-11.12.02-22.23.04-33.35.06-11.77.02-23.55.04-35.32.06-12.36.02-24.73.04-37.09.07-12.88.02-25.77.05-38.65.07s-26.67.05-40.01.07-27.43.05-41.15.07-28.06.05-42.09.07c-14.27.03-28.54.05-42.81.08-14.44.03-28.89.05-43.33.08s-29.01.05-43.51.08c-14.54.03-29.07.05-43.61.08s-29.09.05-43.63.08-28.87.05-43.31.08c-14.26.03-28.52.05-42.79.08-14.02.02-28.03.05-42.05.07-13.7.02-27.41.05-41.11.07-13.32.02-26.64.05-39.96.07s-25.73.05-38.6.07-24.68.04-37.03.07c-11.72.02-23.43.04-35.15.06-11.09.02-22.18.04-33.27.06-10.33.02-20.66.04-30.99.05-9.56.02-19.12.03-28.68.05-8.69.02-17.38.03-26.06.05-7.75.01-15.5.03-23.24.04-6.74.01-13.48.02-20.21.04-5.66.01-11.32.02-16.98.03-4.51,0-9.02.02-13.53.02-3.29,0-6.58.01-9.87.02h-6.01c-.65.01-1.29.01-1.94.01-.32,0-1.64.6-.94.6h0Z"/>
  <path class="cls-23" d="M1095.54,469.96c-8,10.65-15.5,22-20.96,34.19-2.87,6.4-4.79,13.07-5.87,20-1.2,7.66-1.52,15.42-1.83,23.15-.9,22.72-1.28,45.47-1.73,68.21-.24,11.94-.46,23.87-.73,35.8,0,.37,1.44.13,1.45-.39.51-22.67.89-45.34,1.42-68.01.25-10.81.52-21.62.91-32.43.51-14.1.85-28.62,5.93-41.97,2.68-7.03,6.32-13.7,10.22-20.12s8.07-12.5,12.54-18.45c.36-.47-1.08-.33-1.34.02h0Z"/>
  <path class="cls-23" d="M1140.26,469.9c-7.98,10.62-15.45,21.94-20.91,34.09-2.89,6.44-4.83,13.15-5.92,20.12-1.18,7.57-1.52,15.25-1.82,22.89-.9,22.78-1.28,45.58-1.74,68.37-.24,11.94-.46,23.87-.73,35.8-.02.69,1.45.43,1.46-.14.51-22.67.89-45.34,1.42-68.01.25-10.9.53-21.81.92-32.71.51-14.11.85-28.67,6.01-42,2.68-6.94,6.28-13.52,10.14-19.87s8.07-12.5,12.54-18.45c.43-.58-1.04-.55-1.37-.11h0Z"/>
  <path class="cls-23" d="M236.91,471.81c7.98,10.62,15.45,21.94,20.91,34.09,2.87,6.4,4.79,13.07,5.87,20,1.2,7.66,1.52,15.42,1.83,23.15.9,22.69,1.27,45.41,1.73,68.12.24,11.94.46,23.87.73,35.8,0,.24,1.46.02,1.45-.39-.52-22.79-.89-45.59-1.43-68.38-.25-10.78-.52-21.56-.91-32.34-.51-14.17-.88-28.74-6.05-42.13-2.68-6.94-6.28-13.52-10.14-19.87-3.86-6.35-8.07-12.5-12.54-18.45-.26-.35-1.56.24-1.45.39h0Z"/>
  <path class="cls-23" d="M192.17,471.81c7.98,10.62,15.45,21.94,20.91,34.09,2.87,6.4,4.79,13.07,5.87,20,1.2,7.66,1.52,15.42,1.83,23.15.9,22.69,1.27,45.41,1.73,68.12.24,11.94.46,23.87.73,35.8,0,.26,1.46.03,1.45-.39-.52-22.79-.89-45.59-1.43-68.38-.25-10.78-.52-21.56-.91-32.34-.51-14.17-.88-28.74-6.05-42.13-2.68-6.94-6.28-13.52-10.14-19.87s-8.07-12.5-12.54-18.45c-.27-.36-1.57.23-1.45.39h0Z"/>
  <path class="cls-15" d="M502.95,217.87l-68.18-7.5-11.97,20.85s16.6,17.64,18.41,18.59c1.81.95,44.4,14.65,44.4,14.65,0,0,50.66-11.26,49.98-11.2-.68.05-32.64-35.39-32.64-35.39Z"/>
  <path class="cls-15" d="M433.38,162.34s7.02,25.34-6.97,49.89c-1.34,2.36-14.78,7.01-14.78,7.01l20.68,8.18c14.25,4.22,46.58,6.24,60.84,2.78l12.11-5.82s-14.53-4.15-15.04-7.31c-.51-3.16,3.63-26.44,3.63-26.44"/>
  <path class="cls-32" d="M431.57,170.52c0,.08,0,.15,0,.22-.02-.1-.03-.18,0-.22Z"/>
  <path class="cls-15" d="M481.34,219.2l25.42.9,12.88-1.95c1.29.12,8.65-12.22,9.65-13.8,3.09-4.92,6.3-11.61,8.38-17.05,2.23-5.82,6.37-10.71,7.79-17.81,1.05-5.2,1.33-8.88-.86-17.64-.56-2.23-.42-4.4.29-6.69,1.5-4.83,2.33-10.56,4.2-17.05.15-.51.94-2.97.77-3.55,0,0,3.18-27.4-1.06-37.6-4.25-10.19-11.32-18.25-18.42-20.64-7.1-2.4-28.53-3.67-28.53-3.67l-29.17-2.4-25.98,10.55-14.97,29.5-.78,35.47,1.44,31.84"/>
  <path d="M523.81,144.19s7.17-5.85,11.99-5.81c7.02.06,8.65,1.81,10.79,5.25,0,0-4.22-3.79-9.17-3.7-4.73.08-13.61,4.27-13.61,4.27Z"/>
  <path d="M500.33,141.39s-8.89-7.12-13.54-7.72c-6.79-.87-15.32,2.42-17.85,5.55,0,0,11.31-4.98,16.07-4.23,4.56.71,15.32,6.4,15.32,6.4Z"/>
  <path d="M503.82,113.05c.17,1.66.34,3.32.51,4.99.13,1.27.51,4.16.64,5.42-4.11-.65-7.88-1.87-10.51-2.05-5.22-.37-10.59-1.1-15.69.25-2.44.65-4.55,1.52-6.48,3.02-.61.47-2.19,2.41-3.21,2.06-.42-.14.02-2.26.07-2.47.91-4.26,4.22-6.35,8.4-7.78,8.51-2.92,17.3-3.63,26.28-3.44"/>
  <path d="M550.77,127.62s-2.32-1.85-2.34-1.86c-6.47-5.2-13.93-8.4-21.84-10.8-.7,1.52-1.39,3.04-2.09,4.56-.53,1.16-1.56,3.22-2.08,4.38,3.8.57,7.23.75,9.6,1.33,4.68,1.15,9.64,2.31,13.65,5.05.32.22,2.02,1.42,2.31,1.65,2.35-1.46,3.26-3.7,2.8-4.31Z"/>
  <path class="cls-25" d="M498.23,196.37l18.03.72s-4.87,6.57-9.25,6.17c-2.74-.25-6.14-3.54-8.78-6.89Z"/>
  <g>
    <path class="cls-4" d="M514.94,171.63c-2.15.91-5.24.36-7.18-1.13-.43-.33-1.98-.19-1.38.27,2.56,1.97,7.02,2.55,9.79,1.37.27-.12.25-.33-.07-.47-.33-.15-.87-.17-1.17-.05"/>
    <path class="cls-4" d="M505.55,170.1c-1.31-.79-2.82-1.28-4.35-1.55-.22-.04-.52.02-.7.16-.14.11-.18.26-.02.38.67.48,1.56.74,2.39.8.26.02.61-.02.78-.23.16-.2-.08-.36-.29-.38-.69-.05-1.38-.25-1.93-.65-.24.18-.48.36-.73.53,1.36.23,2.71.69,3.88,1.4.23.14.59.1.82-.02.17-.08.37-.3.14-.44"/>
    <path class="cls-4" d="M499.43,169.73c-1.8-.21-3.84-1.21-4.59-2.67-1.14-2.21.4-5.34,2.77-6.47.26-.12.15-.32-.1-.4-.32-.1-.71-.01-.98.12-2.06.99-3.58,3.52-3.46,5.51.11,1.86,1.71,3.3,3.81,4.03.63.22,1.3.39,1.97.47.27.03.77,0,.92-.21.16-.21-.09-.33-.34-.36"/>
    <path class="cls-4" d="M518.32,171c-.08-.22.11-.34.26-.33.48.06.99-.04,1.44-.34.14.21.28.43.42.64-.98.02-1.99.26-2.91.77-.18.1-.43,0-.57-.15-.11-.11-.21-.35-.02-.46"/>
    <path class="cls-4" d="M516.94,171.14c1.03-.58,2.16-.83,3.26-.85.16,0,.36.1.46.27.08.13.09.29-.04.37"/>
    <path class="cls-4" d="M522.04,171.6c1.17.06,2.62-.61,3.33-1.95,1.06-2.01.48-4.57-.86-6.04-.15-.16-.04-.34.12-.38.22-.05.45.09.61.26,1.17,1.28,1.82,3.25,1.45,5.2-.35,1.82-1.59,2.99-3.03,3.4-.43.12-.88.19-1.32.16-.18-.01-.49-.12-.56-.35-.07-.23.1-.31.27-.3"/>
  </g>
  <path class="cls-14" d="M487.08,101.34s28.02-1.6,46.65,3.84"/>
  <path d="M550.5,80.65c-.48-.88-1.8-1-2.3-1.87-.56-.99.27-2.23.06-3.34-.28-1.48-2.11-1.99-3.6-2.2,1-1.08.52-3.13-.86-3.64-.56-.21-1.25-.23-1.6-.7-.52-.71.12-1.92-.53-2.53-.43-.41-1.15-.24-1.72-.39-.11-.37-.22-.73-.33-1.1-.13-.07-.26-.14-.39-.22.1-.73.46-1.59.16-2.26-.31-.7-1.22-.96-2.03-1.22.1-.21.25-.39.47-.54-.64.22-1.22.14-1.78-.12-.15-.18-.23-.4-.19-.69l-.07.57c-1.81-1.01-3.36-3.75-5.6-3.83-.87-.03-1.69.36-2.56.46-2.24.26-4.44-1.9-4.21-4.15-2.25,1.09-4.94,1.25-7.3.42l-.43.11c-1.17-1.52-3.1-2.99-4.23-2.78-1.72.33-3.44,1.22-5.13.77-2.01-.54-3.42-2.9-5.5-2.72-1.22.11,1.7,1.63.48,1.63-1.74,0-2.92-1.99-4.65-2.22-2.17-.29-3.99,2.31-6.15,1.91-1.39-.26-2.29-1.68-3.64-2.08-2.69-.8-5.54,2.72-8.03,1.41-1.06-.56-1.6-1.86-2.68-2.38-2.53-1.2-4.64,3.34-7.4,2.88-1.69-.28-2.95-2.16-4.66-2.01-1.86.16.8,2.26-1.07,2.32-1.04.03-1.97-.73-3.02-.78-2.85-.13-4.02,3.88-6.82,4.47-1.29.28-2.68-.44-3.92.02-1.52.56-2.07,2.6-3.34,3.49-.16.08-.31.17-.47.26-.09.03-.17.07-.26.09-1.22.32-2.53-.52-3.74-.14-1.92.59-2.38,3.83-4.39,3.82-.9,0-1.86-.74-2.63-.26-.75.47-.52,1.58-.62,2.46-.19,1.76-2.35,2.98-3.95,2.24-.2.72-.78,2.94-1.31,5l.14-.98c-.57-.79-1.93-.24-2.33.65-.4.89-.26,1.93-.46,2.88-.42,2.03-2.58,3.53-4.63,3.22,1.42,2.61,2.61,6.38.19,8.09-.59.42-1.32.62-1.83,1.13-.83.83-.8,2.25-.24,3.28.56,1.04-.64,1.17.3,1.88-1.75,1.4-3.67,3.7-2.44,5.57.68,1.03-1.74,1.11-1.79,2.33-.06,1.44.03,2.35-.8,3.53-.69.98-.33,2.4.49,3.27.82.87-1.74,1.7-.62,2.12.44,1.61,0,.46-.99,1.8-.88,1.19-.27,4.69,1.13,5.14s1.15-.49,2.16.58c-1.58.81-3.43,2.24-2.88,3.93.53,1.6,2.66,1.7,4.22,2.46.05.78.09,1.58.15,2.42-.89.54-2.09.95-2.56,1.85-.5.97.08,2.21.98,2.82.75.5,1.65.68,2.55.79,1.85,4.13,5.51,13.81,8.62,22.2l10.88,1,.02.66c.78.12,1.56.24,2.34.36.24.04.51.07.72-.05.54-.3.28-1.09.14-1.69-.31-1.39.52-2.74,1.18-4,.66-1.26,1.14-2.9.26-4.02-.46-.59-1.28-1-1.34-1.75-.07-.98,1.16-1.43,1.85-2.13,1.07-1.09.54-3.25-.91-3.73,0,0,1.79-1.8,1.35-5.53-.45-3.73-1.36-7.75-1.36-7.75h0c.24-.25.47-.51.64-.81,1.26-2.19-.67-5.13.39-7.42.48-1.03,1.49-1.75,1.88-2.81.74-2.03-1.1-4.2-.78-6.34.36-2.4,3.34-4.32,2.51-6.6-.4-1.12-1.63-1.79-1.98-2.93-.6-1.98,1.71-4.44.29-5.94-.49-.52-1.31-.69-1.71-1.28-.8-1.2.69-2.56,1.31-3.86.64-1.35.3-2.94.53-4.42.24-1.47,1.69-3.04,3.02-2.36-.44-1.5.08-4.57,1.15-6.53l4.78-1.39c.17-.02.32-.07.47-.14l14-4.06c.65.19,1.3.31,1.97.21.75-.11,1.45-.65,1.79-1.31l1.78-.52c.81.42,1.65.76,2.55.86,1.59.18,3.41-.57,3.91-2.09.32,2.26,3.72,3.29,5.24,1.58.61-.68,1.04-1.72,1.95-1.78.41-.03.79.16,1.14.37,1.13.68,2.47,3.52,3.42,5.64.15.86.4,1.54.87,1.92.38.11,2.76.83,5.49,1.63-.38.53-.27,1.24.52,1.56,1.06.42,2.71-.04,3.41.63.77.74-.87,1.62-.44,2.46.27.53,1.21.76,1.81,1.16.71.48.91,1.2,1.57,1.71.68.52,1.83.76,2.78.57,1,.15,2.37-.16,2.64.56.07.19,0,.39-.02.58-.1.76.48,1.57,1.39,1.94.91.38,2.09.3,2.85-.19.74-.47,1.05-1.26,1.83-1.69.25-.14.53-.24.82-.34.23.25.54.47.89.61.91.38,2.09.3,2.85-.19.74-.47,1.05-1.26,1.83-1.69.66-.36,1.63-.47,1.98-1.03.56-.88-.91-2.17-.03-2.88.81-.65,2.36.15,3.47-.16.43-.12.7-.39.82-.72,2.12-.78,4.48-2.89,7.27-3.46.07.03.13.06.2.09-.09.33-.25.67-.2,1.01.19,1.57,3.25.39,4.01,1.77.57,1.04-.77,2.59.1,3.4.41.38,1.06.27,1.62.34.96.12,1.81.9,2,1.85.14.71-.03,1.51.33,2.13.44.76.13,1.55.91,1.96.24.13,1.59,1.43,1.79,1.6.16-.33.55-2.43.77-2.7.73-.87,1.6-2.02,1.05-3.02Z"/>
  <path d="M465.19,130.42l1.42,5.49c.75,4.24,3.33,12.7,4.61,15.05,1.8,3.29,23.86,6,28.38,3.76,4.52-2.24,7.82-14.73,9.18-17.59l8.82,1.1c.53,3.85,2.47,16.06,4.04,17.79,1.57,1.74,11.75,2.14,12.9,2.18.96.03,2.29.06,3.74.04,3.86-.02,8.56-.35,10.09-1.67,2.27-1.96,5.16-9.85,7.68-17.33l.41-1.17c.09-.28.19-.48.2-.56h0l.45-1.35c-12.34-6.95-29.14-7.09-39.82-.31l.07.14-8.61-1.11c-9.31-7.15-25.94-11.83-38.33-7.97h0l-37.89,3.69-.34,3.31,32.98-3.51ZM522.77,154.87c-.98-1.08-2.6-9.65-3.64-16.31,9.27-5.71,24.41-5.56,35.48,0l-.02.17c-1.36,4.01-4.96,14.67-7.2,16.6-2.65,2.28-22.9,1.25-24.63-.43v-.04ZM473.91,150.24c-2.59-6.33-4.6-12.88-6.01-19.57,11.07-4.15,29.58-.15,38.7,6.66-1.89,5.19-4.45,14.31-7.69,15.91-4.66,2.31-23.87-.92-24.99-3h0Z"/>
  <path d="M536.8,138.66c1.4-.56,3.07.16,3.87,1.02.19.2.53.79.7,1.69.22,1.15-.34,2.38-1.12,3.09-1.04.94-2.62.97-3.77.3-1.56-.92-1.9-2.93-1.36-4.32.1-.25.55-1.32,1.68-1.78"/>
  <path d="M488.96,135.04c-1.24-.81-3.35-.82-4.27-.13-.22.16-.81.63-1.14,1.48-.43,1.09-.11,2.4.5,3.24.82,1.12,2.33,1.44,3.55.99,1.66-.61,2.36-2.52,2.1-3.99-.05-.27.26-.75-.74-1.41"/>
  <path class="cls-25" d="M484.12,178.39c-1.14.85-2.38,1.85-2.59,3.26-.08.51-.01,1.03.05,1.55.1.79.2,1.59.31,2.38.02.16.04.32.14.45.11.14.28.2.45.26.53.18,1.07.36,1.62.3.55-.06,1.11-.44,1.19-.99.03-.23-.02-.47.09-.67.21-.39.78-.29,1.22-.37,1.1-.19,1.44-1.55,1.99-2.52.75-1.31,2.2-2.08,3.66-2.45.74-.19,1.51-.29,2.2-.62.69-.33,1.3-.97,1.33-1.73"/>
  <path class="cls-25" d="M530.12,182.48c.98,1.03,2.03,2.23,2,3.65,0,.52-.16,1.02-.32,1.51-.24.76-.47,1.53-.71,2.29-.05.15-.1.31-.22.42-.13.12-.31.15-.48.18-.55.09-1.12.18-1.65.02-.53-.15-1.02-.63-1-1.18,0-.23.1-.46.02-.68-.14-.42-.72-.42-1.14-.57-1.05-.38-1.15-1.78-1.53-2.82-.52-1.42-1.81-2.43-3.19-3.04-.7-.31-1.44-.54-2.06-.99-.62-.45-1.11-1.17-1.01-1.93"/>
  <path class="cls-15" d="M435.27,171.43c-12.25,10.27-13.09-8.84-13.09-8.84-7.14-10.26-6.26-20.46-5.36-27.4.89-6.95,8.55-6.18,8.55-6.18,6.45,1.27,9.06,5.02,12.61,27.46"/>
  <path class="cls-33" d="M433.19,151.88c-1.24-3.39-2.64-6.77-4.53-9.86-.92-1.51-1.97-3.02-3.32-4.17-.52-.45-1.15-.92-1.84-1.08-1.02-.25-1.58.47-2.06,1.22-1.7,2.7-1.87,6.11-1.4,9.18.05.34,1.51.03,1.45-.39-.38-2.48-.34-5.06.58-7.42.32-.82.74-1.71,1.36-2.35l-1.12.36c.06,0-.14-.06,0,0,.11.05.24.07.35.12.38.16.88.52,1.25.83,1.97,1.66,3.35,4.03,4.52,6.28,1.29,2.47,2.34,5.06,3.3,7.68.14.38,1.57-.05,1.45-.39h0Z"/>
  <path class="cls-33" d="M430.4,152.71c-4.73-.61-2.6,5.9-3.17,8.42-.02.09-.12.29-.12.38,0,.04-.08.09-.07.1-.02-.05.45.03.47-.05.02-.06-.48-.87-.53-1.01-.48-1.38-.69-2.87-.85-4.32-.21-1.89-.26-3.54.1-5.38s1.12-4.92,3.23-5.63c.87-.29.61-1.34-.28-1.04-2.28.76-3.41,2.97-4.03,5.14-.43,1.49-.75,3.09-.68,4.65.09,1.9.27,3.82.7,5.67.2.88.46,2.28,1.3,2.81.75.48,1.68-.04,2.03-.76s.3-1.68.27-2.49c-.04-1.09-.82-5.66,1.14-5.41.74.09,1.46-.97.49-1.09h0Z"/>
  <polygon class="cls-1" points="605.42 702.57 632.79 702.57 619.71 770.77 595.11 770.77 605.42 702.57"/>
  <g id="freepik--Character--inject-2">
    <path class="cls-28" d="M569.5,335.44l-19.07-67.67s11.7-14.42-4.62-22.45c-8.27-4.07-31.56-15.06-36.62-17.13.75,7.02,1.98,17.84-3.09,21.2-7.1,4.71-12.69,3.49-21.18,2.99-8.15-.48-18.7-6.68-26.11-10.02-13.86-6.24-27.49-19.93-29.51-35.77l-19.37,16.6s-47.53,23.91-54.72,26.15c-7.19,2.24,6.24,168.51,6.24,168.51l-25.87,56.5c-2.22,7.25-24.3,29.16-11.43,73.66,0,0,149.11,6.96,165.31,8.09,18.83,1.32,53.32,3.87,58.84-4.7,5.52-8.57,21.21-215.96,21.21-215.96Z"/>
  </g>
  <path class="cls-16" d="M610.08,632.82c1.04-4.42,2.32,11.67,3.76,7.37,3.27-9.71,7.46-19.1,12.28-28.14,4.96-9.29,10.63-18.21,17-26.59,4.33-5.7,8.99-11.17,14.01-16.29-91.48-26.39-301.06-38.27-301.06-38.27,0,0-63.75,40.71-33.97,109.61,8.92,20.64,29.78,19.13,59.54,20.34,70.48,2.86,175.64-2.79,227.41-13.49.35-.07.69-14.47,1.03-14.55Z"/>
  <path class="cls-16" d="M612.45,649.13c1.61-4.08,3.44-8.08,5.43-11.99,4.49-8.83,9.81-17.23,15.68-25.19,6.04-8.19,12.71-15.92,19.97-23.05,4.93-4.85,21.89,8.51,27.4,4.32-10.07-99.56-352.73-53.95-352.73-53.95,0,0-22.52-5.74-14.76,73.07,7.29,74.05,225.94,31.22,297.99,26.98.34-.02.68,9.84,1.02,9.82Z"/>
  <path class="cls-24" d="M476.52,355.78c.06,0,.11.01.17.03.01.22.09.44-.1.62-.02-.22-.04-.44-.06-.66Z"/>
  <path class="cls-24" d="M482.31,417.73s-.1.05-.16.06"/>
  <path class="cls-11" d="M527,351.29c-.08-.01-.15-.02-.23-.04.08-.04.15-.07.23-.11.03.05.03.09,0,.14Z"/>
  <path class="cls-11" d="M494.59,354.16c.07-.05.14-.09.22-.14.02.04.04.08.06.12-.09,0-.19.01-.28.02Z"/>
  <path class="cls-11" d="M526.31,351.3c-.1,0-.2.02-.3.02.09-.1.19-.11.3-.02Z"/>
  <path class="cls-28" d="M477.23,355.74c.08-.09.16-.11.26-.03-.09,0-.17.02-.26.03Z"/>
  <path class="cls-16" d="M683.74,646.19c-18.15,51.9-58.26,189.39-83.27,252.14,0,0-68.77,3.5-73.95-12.32,0,0,1.87-327.65,44.03-333.33,31.07-4.19,80.57-7.49,96.62,5.71,19.25,15.83,30.87,46.93,16.57,87.81Z"/>
  <path class="cls-30" d="M560.24,897.02c.41-1.19.82-2.37,1.23-3.56,1.15-3.32,2.29-6.65,3.44-9.97,1.78-5.17,3.56-10.33,5.33-15.5,2.28-6.64,4.56-13.28,6.84-19.92,2.69-7.85,5.37-15.7,8.05-23.56,2.97-8.71,5.94-17.42,8.9-26.13,3.12-9.2,6.24-18.4,9.35-27.61s6.37-18.9,9.54-28.36c3.11-9.29,6.22-18.59,9.3-27.89s5.89-17.8,8.8-26.71c2.66-8.13,5.3-16.27,7.91-24.42,2.25-7.01,4.47-14.03,6.65-21.07,1.74-5.63,3.46-11.27,5.1-16.93,1.12-3.87,2.23-7.76,3.16-11.68,2.75-11.59,3.41-23.98.42-35.6-3.18-12.37-10.56-23.33-21.02-30.7-5.6-3.95-11.97-6.82-18.61-8.46-3.21-.79-6.47-1.19-9.75-1.58-5.89-.7-11.77-1.41-17.66-2.11-9.02-1.08-18.04-2.16-27.06-3.24-6.92-.83-13.85-1.66-20.77-2.49-1.05-.13-2.09-.25-3.14-.38s-2.38,1.28-.84,1.47c4.01.48,8.03.96,12.04,1.44,8.57,1.03,17.14,2.05,25.71,3.08l24.21,2.9c5.47.65,11.1,1.06,16.44,2.43,13.49,3.48,25.37,12.18,32.43,24.23s8.63,25.07,7.21,38.19c-.63,5.82-1.92,11.45-3.46,17.08-1.35,4.94-2.81,9.86-4.3,14.77-1.96,6.47-3.98,12.93-6.02,19.38-2.42,7.65-4.88,15.29-7.35,22.92-2.78,8.58-5.59,17.14-8.42,25.7-3.01,9.11-6.03,18.21-9.07,27.31-3.14,9.4-6.29,18.8-9.45,28.2s-6.27,18.59-9.42,27.89-6.08,17.91-9.13,26.87c-2.81,8.25-5.63,16.51-8.45,24.76-2.46,7.2-4.93,14.4-7.4,21.6-2.02,5.89-4.05,11.78-6.07,17.67-1.45,4.23-2.91,8.45-4.37,12.68-.77,2.24-1.54,4.47-2.32,6.71-.1.28-.2.56-.29.85-.31.9,2,.63,2.3-.23h0Z"/>
  <path class="cls-28" d="M315.02,550.69s35.93-8.21,53.49-13.02c67.93-18.58,178.07-9.46,178.07-9.46,0,0-207.07-59.05-216-52.46s-21.2,60.01-15.56,74.95Z"/>
  <path class="cls-28" d="M326.21,436c-8.17.65-8.84-.8-16.97.21-.38-5.4-.55-10.5-.46-15.52.39-21.36,7.9-121.57,19.91-153.83,6.8-34.86,100.6-60.27,100.6-60.27l-39.28,126.72-8.4,97.66c-13.87,2.88-41.29,3.9-55.41,5.02Z"/>
  <g>
    <path class="cls-36" d="M530.7,205.5c.56-.83.96-1.97,1.28-3.21,2.53-5.68,2.63-4.38,3.79-9.28-4.55,10.06-10.67,19.71-13.62,21.38-.1.06-.68.16-1.45.18-.07-.04-.15-.08-.24-.11-.88-.27-2.18.21-2.79-.29-.67-.54.6-1.37.2-2.02-.25-.41-1.03-.53-1.54-.82-.61-.34-.81-.91-1.38-1.28-.58-.38-1.52-.5-2.28-.28-.81-.06-1.9.28-2.16-.28-.07-.15-.03-.31-.02-.47.03-.62-.49-1.23-1.25-1.48s-1.71-.1-2.29.34c-.56.43-.76,1.08-1.37,1.48-.19.13-.42.22-.64.32-.2-.19-.46-.34-.76-.44-.76-.24-1.71-.1-2.29.34-.56.43-.76,1.08-1.37,1.48-.51.34-1.28.49-1.53.96-.4.75.88,1.69.21,2.32-.61.57-1.91.03-2.79.35-.16.06-.28.15-.38.25-4.98-.85-14.97-2.69-15.16-2.72l-6.64-3.77c-1.1-.8-25.28-24.48-25.28-24.48-.34-.76-4.62-6.27-4.75-6.98-.08-.05-.15-.1-.24-.14-.03-.01-.09-.05-.16-.08-.02.04-.04.1-.05.14-.07.29-.08.61-.09.9-.04,1.3.13,2.6.43,3.88.45,1.96.66,3.94,1.03,5.9.13.69.3,1.38.49,2.06.51.37,1.48,1.5,2.79,3.12.2.41.49.78.84,1.06.36.45.74.94,1.14,1.44-.42,1.83,1.19,4.1,3.12,3.99.07.09.14.18.22.28-.44,1.3.56,2.95,1.96,3.03.14,0,.29,0,.43,0,.56.71,1.14,1.42,1.72,2.15-.04.25-.09.51-.1.74-.13,1.67,1.56,3.16,3.19,3,.11.13.21.26.32.38-.54,2.16,1.57,4.65,3.8,4.36.09.1.18.2.27.3.16,1.55,1.5,2.87,3.02,3.18.54.54,1.07,1.06,1.6,1.56.44,1.57,1.87,2.89,3.51,3.03.04.03.08.07.12.1-.93,1.68,1.12,4.09,2.93,3.36.51-.2.96-.59,1.5-.61,1.48-.06,2.06,2.4,3.54,2.41.61,0,1.11-.43,1.65-.7,1.63-.82,2.57-.9,3.2.81,0,0,.13,1.73,2.56,1.1,1.36-.35,2.5-1.68,3.52-.72.45.42.72,1.03,1.25,1.34,1.22.71,2.72-.63,4.12-.41,1.29.2,2.32,1.69,3.57,1.33,1.23-.35,1.38-2.1,2.33-2.91.75-.01,1.51-.04,2.26-.07,1.63.83,3.31,2.86,4.88,1.96.66-.38,1.01-1.2,1.71-1.48,1.15-.45,2.26.79,3.48.91,1.79.18,2.75-1.85,3.15-3.69.19-.1.38-.2.56-.32.89.34,2.08-.13,2.35-1.07.12-.4.09-.85.2-1.24.17-.22.33-.44.49-.68.69-.5,1.87-.56,1.93-1.4.03-.46-.36-.85-.46-1.3.27-.53.56-1.08.86-1.66.23-.19.46-.36.69-.52.76-.55,1.44-1.7.76-2.32,0-.01.01-.02.02-.03,1.11-.24,2.48-.87,2.32-1.98-.05-.36-.27-.67-.33-1.03-.17-1.03.94-1.74,1.74-2.39.81-.65,1.3-2.18.32-2.54Z"/>
    <path class="cls-25" d="M531.37,205.49c.82-1.3,1.09-2.77,1.72-4.14.51-1.1,1.05-2.18,1.6-3.25.86-1.67,1.37-3.36,1.8-5.19.12-.5-1.28-.14-1.44.21-1.79,3.94-3.77,7.8-5.99,11.52-1.64,2.75-3.37,5.52-5.5,7.91-.37.41-.75.82-1.17,1.18-.53.45-.56.51-1.35.43-.67-.07-1.28-.08-1.96-.09-1.43-.03-.52-.85-.43-1.59.05-.49-.21-.73-.6-.95-.27-.16-.59-.22-.87-.36-.57-.29-.8-.71-1.25-1.12-1.04-.93-2.34-.67-3.61-.61s-.86-.81-1.49-1.54c-.48-.56-1.27-.79-1.98-.81-.68-.02-1.38.14-1.98.44-.92.47-1.27,1.51-2.19,1.94l.95-.02c-.92-.73-2.14-.79-3.23-.44-.54.17-1.02.44-1.41.85-.23.24-.38.55-.62.78-.41.42-.81.52-1.27.79-.38.22-.8.49-.89.96-.1.54.44.94.42,1.42-.04.75-1.21.4-1.78.49-.51.08-.97.26-1.37.59l1.02-.27c-3.58-.61-7.15-1.26-10.72-1.92-1.25-.23-2.51-.46-3.76-.69-.7-.13-.56-.1-1.21-.47-1.95-1.11-4.11-2.08-5.94-3.37-.48-.34-1.48-1.37-2.09-1.95-7.21-6.87-14.32-13.86-21.44-20.83-.76-.74-1.5-1.42-2.06-2.25-.87-1.3-1.82-2.54-2.72-3.81-.61-.86-1.21-2.39-2.15-2.86-.33-.17-1.17.05-1.3.43-.68,1.94.21,4.45.56,6.37.22,1.21.38,2.42.59,3.63.15.89.21,2.27.71,3.04.31.48.94.91,1.32,1.35.73.84,1.33,1.78,2.06,2.6.69.78,1.22,1.3,1.28,2.37.05.84.43,1.65.99,2.27.47.51,1.08.89,1.76,1.04.57.12.5-.05.56.55.04.41,0,.77.16,1.17.24.6.69,1.12,1.27,1.4.3.14.59.13.88.24.57.22.99.82,1.35,1.34.59.84.25,1.6.62,2.51.29.72.87,1.32,1.56,1.67.49.25,1.48.2,1.67.64.1.23-.01.63,0,.88.03.48.18.94.4,1.36.33.65.82,1.21,1.43,1.62.29.19.61.35.95.46.3.09.81.05,1.06.17.5.25.71,1.46,1.14,1.99.65.79,1.46,1.01,2.29,1.52,1.73,1.08,2.03,3.3,3.97,4.18.08.04.9.21.96.3.15.21-.02.52-.03.77-.03.74.31,1.44.81,1.97.88.93,2.18,1.1,3.34.65.54-.21,1.05-.54,1.62-.16.27.18.5.51.71.75.4.46.81.98,1.4,1.2.54.2,1.14.13,1.67-.04.79-.25,1.96-1.41,2.8-.97.8.41.63,1.65,1.39,2.16,1.39.92,3.01-.12,4.33-.56,1.5-.51,1.54,1.04,2.75,1.47.71.25,1.52.08,2.21-.12.54-.15,1.18-.47,1.75-.39.69.09,1.27.64,1.86.96s1.2.5,1.89.39c1.95-.29,2.06-2.12,3.27-3.3l-.96.38c.57-.01,1.25-.14,1.81-.05.67.1,1.23.63,1.76,1,.66.46,1.35.95,2.15,1.11.67.13,1.38.02,1.99-.28.77-.39,1.33-1.51,2.26-1.29.8.19,1.44.77,2.29.84.66.06,1.35-.09,1.94-.4.62-.33,1.1-.86,1.45-1.46.38-.64.52-1.98,1.13-2.34l-1.02.16c1.02.29,2.22.11,3.05-.6.62-.54.53-1,.74-1.73.32-1.11,1.03-1.05,1.83-1.59.35-.23.65-.54.66-.98.01-.42-.27-.59-.34-.97-.12-.63.51-1.58.93-1.99.5-.48,1.04-.75,1.35-1.42.1-.21.18-.43.19-.67,0-.05-.22-.78-.26-.7l-.64.41c.89-.22,1.94-.55,2.56-1.27.87-1.02-.27-1.9.21-2.94s4.1-3.08,1.78-4.36c-.36-.2-1.7.35-1.17.65,1.72.95-1.99,3.25-2.19,4.28s.9,1.86-.35,2.66c-.47.3-1.38.26-1.66.82-.02.06,0,.12.04.16.7.89-.38,1.73-1,2.22-.5.4-.63.71-.94,1.31-.11.22-.43.65-.43.9s.23.42.28.65c.29,1.27-.7,1.11-1.46,1.69-.31.24-.61.59-.77.95-.43.94.09,1.68-1.25,1.88-.85.12-1.61.17-1.94,1.07-.55,1.47-.96,3.46-3.07,2.5-.95-.43-1.81-.8-2.85-.46-.43.14-.79.36-1.12.67-.61.55-.8,1.07-1.73.79-1.21-.36-2.04-1.78-3.29-1.99-.66-.11-1.67-.02-2.34.07-.32.04-.59.09-.87.28-1.06.74-1.15,3.25-2.86,2.27-.87-.5-1.61-1.03-2.67-.98-.52.02-1.03.16-1.53.3-1.06.31-1.7.38-2.5-.56-.68-.8-1.23-1.15-2.3-.93-1.14.24-2.67,1.74-3.77.88-.43-.34-.45-.97-.71-1.42-.43-.74-1.05-1-1.89-.93-.49.04-.97.19-1.42.38-.51.21-1.36.92-1.88.83-.95-.17-1.52-1.71-2.36-2.14-1.09-.56-1.87.12-2.87.41-1.67.48-2.73-1.85-2.14-3.12.02-.06,0-.12-.04-.16-.26-.2-.36-.14-.69-.23-.61-.15-1.16-.43-1.63-.84-.77-.67-.94-1.67-1.62-2.35-.37-.38-.83-.98-1.28-1.26-.26-.16-.6-.19-.88-.32-1.11-.51-1.62-1.37-2.04-2.46-.33-.87-.52-.69-1.39-.82-1.1-.16-2.02-1.03-2.49-2.01-.16-.33-.26-.7-.31-1.06-.03-.29.16-.82.06-1.09-.3-.8-1.38-.52-1.99-.83-.83-.43-1.47-1.27-1.52-2.22-.02-.38.15-.8.06-1.15-.13-.49-.98-1.21-1.3-1.61-.21-.26-.34-.5-.65-.62-.6-.23-1.08-.06-1.59-.59-.34-.36-.56-.85-.62-1.34-.04-.32.18-.73.04-1.01-.2-.39-.29-.27-.6-.37-.7-.22-1.05-.17-1.63-.69-.82-.74-1.07-1.69-1.12-2.73-.03-.62.19-.23-.29-.85-.35-.45-.72-.86-1.1-1.29-.68-.78-1.26-1.68-1.94-2.47-.64-.75-1.33-1.26-1.61-2.22-.36-1.29-.52-2.64-.73-3.96s-.47-2.54-.72-3.82-.58-2.97-.15-4.19l-1.3.43c.39.19.54.66.77,1.03.43.66.89,1.3,1.35,1.95.88,1.24,1.84,2.44,2.66,3.72.55.85,1.34,1.5,2.07,2.21,4.08,3.99,8.16,7.97,12.25,11.95,3.55,3.45,7.05,6.96,10.7,10.3,1.16,1.06,2.71,1.71,4.06,2.47,1.01.58,2.05,1.34,3.13,1.78.61.25,1.37.29,2.01.41,4.28.78,8.56,1.57,12.85,2.31.96.17,1.75-.22,2.71-.22.73,0,1.84-.12,2.23-.85.68-1.27-1.27-1.48.51-2.67,1.11-.75,2.34-2.62,3.74-1.51.24.19.71.09.95-.02.59-.27,1.09-.55,1.53-1.05.54-.61,1.24-1.22,2.09-.89.73.28.77.73.91,1.42.23,1.16,1.96.74,2.81.71,1.57-.06,1.7.36,2.77,1.25.52.43,1.87.6,1.85,1.34-.01.49-.58.87-.41,1.39s.78.62,1.24.66c.77.07,1.47.05,2.23.16.58.08,1.41-.04,1.97-.22.79-.26,1.45-.91,2.03-1.49,2.19-2.2,3.9-4.93,5.52-7.56,2.52-4.1,4.74-8.38,6.73-12.75l-1.44.21c-.42,1.75-.88,3.41-1.71,5.01-.46.89-.92,1.79-1.35,2.7-.72,1.53-1.05,3.26-1.95,4.69-.32.51,1.11.33,1.33-.02Z"/>
  </g>
  <path class="cls-7" d="M381.79,440.44c5.76,1.33,11.52,2.66,17.28,4,13.59,3.14,27.18,6.29,40.77,9.43,15.82,3.66,31.64,7.32,47.46,10.98,12.7,2.94,25.41,5.88,38.11,8.82,3.42.79,6.83,1.58,10.25,2.37.63.14,1.42.48,2.07.48.04,0,.11.02.14.03-.31-.15-.1-.2-.22.28-.44,1.69-.51,3.57-.76,5.29-.17,1.2-.34,2.39-.52,3.59-.07.51,1.92.15,2-.35.45-3.13.9-6.26,1.35-9.39.02-.13-.03-.19-.17-.22-5.18-1.2-10.37-2.4-15.55-3.6-12.45-2.88-24.9-5.76-37.34-8.64-15.05-3.48-30.1-6.96-45.15-10.45-12.94-2.99-25.88-5.99-38.81-8.98-6.31-1.46-12.61-3.17-18.97-4.39-.09-.02-.18-.04-.26-.06-.44-.1-1.02.04-1.41.25-.16.09-.7.44-.24.54h0Z"/>
  <path class="cls-7" d="M383.14,260.36c5.73,1.26,9.08,6.47,11.01,11.63,2.16,5.8,3.01,12.07,3.38,18.21.45,7.5-.29,14.82-1.11,22.27-1.34,12.18-2.87,24.33-4.37,36.49-1.85,14.99-3.71,29.98-5.48,44.98-1.65,13.98-3.25,27.97-4.55,41.99-.13,1.46-.27,2.91-.39,4.37-.02.25,1.93.05,1.98-.53,1.19-13.73,2.73-27.43,4.32-41.11,1.77-15.19,3.64-30.37,5.52-45.55,1.57-12.7,3.17-25.4,4.61-38.11.83-7.36,1.8-14.73,1.59-22.15-.17-6.03-.8-12.14-2.41-17.96-1.46-5.26-3.95-11.13-8.93-13.96-1.1-.63-2.29-1.06-3.53-1.33-.43-.09-1,.06-1.38.26-.16.08-.69.4-.25.5h0Z"/>
  <path class="cls-28" d="M314.39,370.1s-5.67,48.06-5.61,50.6c.31,11.98-6.02,31.9,6.39,57.8,10.67,22.27,34.88,30.27,64.52,13.35s-25.84-71.16-25.84-71.16l-39.46-50.59Z"/>
  <path class="cls-7" d="M383.35,439.67c-6.37.07-12.96.8-18.78,3.58s-9.77,7.36-12.13,13.19c-.11.27,1.75.12,1.95-.37,2.12-5.24,5.65-9.71,10.73-12.33s11.19-3.25,16.93-3.31c.38,0,1.13-.08,1.4-.38.19-.21.38-.39-.1-.39h0Z"/>
  <path class="cls-7" d="M322.72,490.81c2.71,5.18,8.27,8.13,13.46,10.3,6.67,2.78,13.72,4.56,20.64,6.59,13.43,3.94,27.02,6.87,40.87,8.91,14.99,2.21,30.1,3.57,45.22,4.48s30.2,1.35,45.32,1.55c13.68.18,27.36.13,41.04.06,1.51,0,3.02-.02,4.53-.02.32,0,1.35-.19,1.42-.65.47-3.02.94-6.05,1.41-9.07.1-.65-1.92-.29-2.01.3-.47,3.02-.94,6.05-1.41,9.07l1.42-.65c-13.2.07-26.4.14-39.6.03-14.85-.13-29.7-.47-44.53-1.24s-30.14-1.98-45.11-3.94c-13.89-1.82-27.74-4.27-41.24-8.05-6.83-1.91-13.7-3.82-20.43-6.07-5.85-1.96-12.27-4.3-16.63-8.88-.93-.98-1.73-2.06-2.35-3.26-.31-.6-2.26.09-2.02.54h0Z"/>
  <path class="cls-28" d="M811.73,434.7l-5.85-26.94-4.12-7.68-164.64-.91-32,64.47c10.19,5,22.81,5.11,34.03,5.83,52.78,3.39,125.77-14.31,173.26-25.62l-.69-9.16Z"/>
  <path class="cls-28" d="M644.69,408.95l-58.81-118.31c-7.2-15.75-16.34-29.11-30.32-39.33l-15.8-6.57s-61.49-.09-47.65,32.62c8.04,33.35,57.45,120.09,69.32,138.48.06.09.11.17.14.22.41.63.83,1.26,1.25,1.88,6.48,10.29,13.08,28.81,36.35,42.48,4.91,2.88,10,4.72,15.1,5.49.32.07.64.12.96.18l29.47-57.14Z"/>
  <path class="cls-15" d="M534.14,513.97l9.96.98s31.41,20.2,41.8,22.49c7.58,1.36,15.32,1.58,23,.66l8.09,4.55c3.72,2.1,8.04,2.74,12.23,1.83l3.22-.71s8.63,8.6,11.42,5.86c2.78-2.74.37-6.89-1.98-10.91-2.35-4.02-59.41-49.56-59.41-49.56,6.41-1.01,16.9,2.95,23.35,3.11,9.9.33,13.86-3.38,10.51-7.85-2.06-2.76-9.51-6.1-15.17-4.8-5.64,1.29-29-10.36-39.06-9.2-10.06,1.16-19.46,12.12-19.46,12.12-.86.21-4.35.09-4.35.09-.62,1.2-4.14,31.34-4.14,31.34Z"/>
  <path class="cls-35" d="M632.19,542.97c-3.46-2.87-7.34-5.27-11.09-7.74-4.64-3.06-9.31-6.06-13.86-9.24-1.84-1.29-3.71-2.58-5.38-4.08-.55-.49-2.22.23-1.63.75,3.39,3.03,7.33,5.49,11.1,8,4.66,3.1,9.38,6.12,14.01,9.28,1.86,1.27,3.74,2.55,5.48,4,.55.45,2.13-.35,1.38-.97h0Z"/>
  <path class="cls-35" d="M608.69,536.85c-6.57-3.67-13.13-7.35-19.7-11.02-.94-.52-1.87-1.05-2.81-1.57-.62-.35-2.2.51-1.38.97,6.57,3.67,13.13,7.35,19.7,11.02.94.52,1.87,1.05,2.81,1.57.62.35,2.2-.51,1.38-.97h0Z"/>
  <g>
    <path class="cls-28" d="M429.3,206.6s29.16,45.62,58.08,46.21c28.92.59,20.61-25.86,20.61-25.86h0l9.93,5.56s2.26,13.54-1.73,19.74c-3.98,6.21-18.88,10.63-37.18,7.59-10.74-1.78-24.41-9.16-32.39-17.42-9.56-9.88-28.37-32.55-28.37-32.55l11.04-3.28Z"/>
    <path class="cls-2" d="M428.64,206.92c2.77,4.33,5.9,8.45,9.11,12.45,6.64,8.28,14,16.15,22.45,22.62s18.35,11.66,29.26,11.35c4.78-.13,9.79-1.08,13.75-3.92,2.83-2.03,4.8-4.97,5.78-8.3.84-2.87.99-5.88.73-8.84-.1-1.11-.25-2.21-.47-3.3-.12-.61-.19-1.38-.45-1.94-.04-.08-.05-.18-.08-.27l-1.28.62c2.81,1.57,5.61,3.14,8.42,4.72.47.26.94.54,1.42.79.23.12-.09-.23-.06-.12.03.14.05.29.06.43.16,1.74.41,3.47.49,5.22.22,4.64.32,10.72-2.81,14.51-3.04,3.67-8.31,5.3-12.79,6.26-7.19,1.54-14.72,1.41-21.95.3-6.81-1.04-13.33-3.73-19.29-7.11-5.6-3.18-10.65-7.06-15.06-11.75-3.59-3.81-7.05-7.74-10.49-11.69-3.47-3.99-6.9-8-10.31-12.04-1.24-1.46-2.47-2.93-3.7-4.39-.7-.84-1.36-1.8-2.15-2.57-.11-.11-.2-.24-.29-.35l-.53.82c3.68-1.09,7.36-2.19,11.04-3.28.88-.26.62-1.27-.27-1-3.68,1.09-7.36,2.19-11.04,3.28-.28.08-.83.46-.53.82,4.85,5.85,9.77,11.64,14.74,17.39,3.68,4.25,7.38,8.48,11.2,12.6,4.32,4.66,9.05,8.68,14.5,11.98,5.87,3.55,12.3,6.46,19.03,7.89,7.29,1.56,15.14,1.79,22.51.64,5.15-.8,10.74-2.28,14.86-5.65,3.83-3.14,4.69-8.06,4.84-12.78.08-2.39-.04-4.8-.27-7.18-.08-.76.04-2.39-.52-3-.27-.29-.86-.48-1.2-.67l-2.48-1.39-5.26-2.94c-.33-.19-.66-.37-.99-.56-.38-.21-1.48-.03-1.28.62,1.13,3.61,1.4,7.71.83,11.43-.48,3.16-1.73,6.19-3.96,8.52-3.05,3.19-7.49,4.54-11.78,4.99-10.87,1.12-20.74-3.4-29.36-9.67s-15.86-13.85-22.52-21.94c-2.45-2.98-4.81-6.04-7.07-9.17-1.13-1.56-2.12-3.28-3.31-4.79-.06-.07-.1-.15-.15-.23-.36-.56-1.74,0-1.33.64Z"/>
  </g>
  <path class="cls-7" d="M563.81,417.8c1.72-19.71,4.8-39.42,8.99-58.74,1.58-7.3,3.03-14.79,6.85-21.32.44-.75-1.53-.52-1.83,0-3.35,5.73-4.94,12.16-6.34,18.59-1.54,7.09-2.99,14.2-4.22,21.36-1.94,11.24-3.52,22.55-4.76,33.89-.24,2.16-.47,4.32-.66,6.49-.06.73,1.92.34,1.98-.27h0Z"/>
  <path class="cls-7" d="M638.74,397.95c-8.94,5.54-14.69,15.54-14.65,26.1,0,1.08,2.02.82,2.01-.13-.04-9.86,5.12-19.51,13.54-24.73,1.13-.7.09-1.86-.9-1.25h0Z"/>
  <path class="cls-15" d="M684.47,377.16l-8.9-10.83s-18.41-6.08-25.19-12.02c-4.74-4.47-8.83-9.59-12.17-15.19l-15.66-13.22s-9.94-1.82-9.59-4.97c.34-3.15,4.24-3.44,8.02-3.73s54.61,13.53,54.61,13.53c-2.62-4.79-5.65-9.34-9.04-13.61-5.27-6.52-4.24-12.57.34-12.39,2.82.11,12.42,7.64,12.87,12.47.45,4.84,10.86,9.03,15.26,16.34,4.39,7.32,2.15,18.74,2.15,18.74,1.83,4.17,5.65,9.44,5.65,9.44-3.19,7.59-18.34,15.44-18.34,15.44Z"/>
  <path class="cls-35" d="M626.64,328.44c-.23-.79,1.42-1.75,1.98-1.97.97-.37,2.09-.14,3.08.06,1.66.33,3.27.93,4.81,1.63,1.2.55,2.36,1.18,3.47,1.89.28.18,1.32.76,1.38.96l.84-.53c.66-.09.41.07.07-.22-.32-.27-.69-.49-1.03-.74s-1.67.28-1.36.53c2.05,1.62,3.93,3.43,5.6,5.44s3.44,4.33,4.53,6.83c.19.43,1.6-.03,1.45-.39-1.06-2.43-2.69-4.6-4.35-6.64s-3.71-4.06-5.87-5.77l-1.36.53c.56.41,1.31,1.2,2.08,1.1.16-.02.94-.22.84-.53-.19-.6-1.67-1.24-2.15-1.52-1.72-1.03-3.53-1.91-5.43-2.56s-4.17-1.29-6.16-.84c-.98.22-1.92.65-2.7,1.29-.41.34-1.36,1.19-1.18,1.83.12.42,1.57.02,1.45-.39h0Z"/>
  <path class="cls-35" d="M643.69,330.88c-.7.26-.9.37-.62.34-.1,0-.11,0-.03,0,.06.02.14,0,.21.02.19.03.39.07.58.1.6.12,1.19.26,1.78.41,1.22.31,2.43.65,3.64,1,1.28.37,2.54.79,3.79,1.23.93.33,1.86.68,2.77,1.07.28.12.56.25.83.4.09.05.18.1.27.16.11.08.02.12.04-.06-.07.61,1.39.36,1.45-.17.08-.71-1.9-1.26-2.35-1.43-1.69-.67-3.41-1.27-5.15-1.8-1.95-.59-3.92-1.15-5.91-1.58-.69-.15-2.2-.58-2.66.24-.35.62,1.11.5,1.36.06h0Z"/>
  <path class="cls-35" d="M663.12,344.38c.23.1.02.26.14.02.05-.09.06-.21.1-.31.16-.39.39-.76.62-1.12.75-1.15,1.74-2.16,2.84-2.96,1.4-1.02,3.02-1.75,4.73-2.05.6-.11,1.21-.17,1.82-.15.16,0,.32.02.48.04.31.05.08.1.09-.16-.03.63,1.43.36,1.45-.16.04-.66-1.38-.61-1.78-.6-1.51,0-3,.32-4.41.83-2.76,1.01-5.34,2.99-6.84,5.54-.17.28-.99,1.56-.4,1.81.33.14.74.07,1.03-.12.18-.12.45-.47.11-.61h0Z"/>
  <path class="cls-15" d="M792.75,411.96l-32.67,15.39-63.59-76.58c-3.56,6.8-12.17,10.41-20.92,15.56,0,0,41.73,85.31,47.59,94.82,20.75,33.65,42.94,24.18,57.14,15.14,8.18-5.21,30.8-42.74,30.59-51.95-.05-2.1-18.56-12.46-18.14-12.39Z"/>
  <path class="cls-15" d="M809.9,324.11s-12.46,7.26-19.09,16.76c-5,7.16-40.98,89.03-44.89,100.02,2.74,3.95-11.95,12.33-9.87,16.67,4.85,10.12,12.01,1.54,13.25,12.68.94,8.42,18.31,4.66,17.46,13.09,8.42-1.04,13.85-6.14,17.83-10.83,4.3-5.06,21.34-42.04,21.34-42.04l3.97-106.35Z"/>
  <path class="cls-35" d="M696.51,352.11c-2.53,2.73-5.83,4.67-9.44,5.57-.3.07-.67.36-.59.71s.58.39.86.32c3.98-.99,7.6-3.14,10.39-6.15.24-.26.1-.61-.2-.73-.35-.15-.78.01-1.02.27h0Z"/>
  <path class="cls-33" d="M507.83,122.93c2.71.68,5.92-.38,7.64-2.6s1.68-5.58-.03-7.84c-.27-.36-1.67.13-1.35.55,1.46,1.92,1.66,4.78.37,6.84-1.22,1.95-3.49,2.89-5.72,2.33-.31-.08-.79.06-1.02.27s-.17.39.12.46h0Z"/>
  <rect class="cls-22" x="776.09" y="871.42" width="36.08" height="21.71" transform="translate(-245.18 308.79) rotate(-19.12)"/>
  <g>
    <path d="M831.8,897.45s6.95,4.77,6.37,8.43c-.58,3.66-15.59,9.67-19.45,11.46-3.86,1.78-53.72,25.4-58.85,27.26-5.13,1.86-33.37,9.98-39.37,5.45,0,0-10.17-7.63-2.05-14.21,8.12-6.58,15.46-7.71,22.69-14.93,7.23-7.22,14.41-17.14,19.63-28.96,0,0,5.91-10.19,10.34-10.45,4.43-.26,11.63,5.75,15.55,6.44,3.92.69,20.45-2.4,21.86-11.34,1.41-8.95,3.56-6.47,7.02-6.42s13.2,11.52,14.14,18.09c.93,6.56,2.13,9.2,2.13,9.2Z"/>
    <path class="cls-26" d="M769.75,892.64l.03-.07c.24-.55-.31-1.23-1.23-1.51l-6.63-2.07c-.92-.29-1.87-.08-2.11.47l-.03.07c-.24.55.31,1.23,1.23,1.51l6.63,2.07c.92.29,1.87.08,2.11-.47Z"/>
    <path class="cls-26" d="M764.74,897.7l.09-.2c.18-.39-.35-.92-1.18-1.18l-4.93-1.56c-.83-.26-1.65-.16-1.83.22l-.09.2c-.18.39.35.92,1.18,1.18l4.93,1.56c.83.26,1.65.16,1.83-.22Z"/>
    <path class="cls-26" d="M760.74,902.26l.16-.34c.16-.35-.32-.82-1.06-1.06l-3.52-1.12c-.75-.24-1.49-.15-1.65.2l-.16.34c-.16.35.32.82,1.06,1.06l3.52,1.12c.75.24,1.49.15,1.65-.2Z"/>
    <path class="cls-26" d="M757.78,906.66l.18-.4c.18-.41-.28-.93-1.02-1.17l-3.52-1.11c-.75-.23-1.51-.09-1.69.31l-.18.4c-.18.41.28.93,1.02,1.17l3.52,1.11c.75.23,1.51.09,1.69-.31Z"/>
  </g>
  <polygon class="cls-22" points="865.34 887.49 831.48 900.89 825.11 875.07 860.13 866.42 865.34 887.49"/>
  <path class="cls-13" d="M836.04,911.33s-23.52,7.39-33.24,12.75c-9.71,5.37-36.09,16.48-50.43,19.75-14.35,3.27-35.38,3-35.38,3,0,0-.94,2.18,5.99,4.01,6.92,1.83,26.78-.4,43.3-5.66,16.52-5.26,40.78-12.68,45.92-14.08,5.13-1.4,26.43-7.54,28.57-11.59,1.8-3.4-4.73-8.16-4.73-8.16Z"/>
  <path class="cls-21" d="M774.73,955.63c-2.76-1.55-5.59-3.66-6.67-6.77-.75-2.16-.42-4.49.71-6.46s2.78-3.44,4.76-4.33c1.42-.64,2.95-1.05,4.39-1.62,1.66-.65,3.29-1.36,4.88-2.16,5.33-2.66,10.08-6.24,14.1-10.63,4.69-5.12,8.57-10.98,12.21-16.87,2.72-4.41,5.33-8.9,7.71-13.51.24-.46-.81-.37-.97-.04-2.03,3.94-4.24,7.8-6.53,11.59-3.81,6.32-7.88,12.64-12.82,18.15-4.31,4.8-9.43,8.66-15.27,11.4-4.69,2.2-10.41,2.99-13.31,7.77-1.25,2.06-1.69,4.54-.93,6.86,1.07,3.28,4.03,5.52,6.93,7.14.32.18,1.27-.27.82-.52h0Z"/>
  <g>
    <path d="M885.19,904.04s4.04,6.26,3.38,9.93c-.66,3.66-12.98,8.09-16.87,9.83-3.89,1.73-54.13,24.71-59.28,26.5-5.16,1.79-33.49,9.53-39.37,4.9,0,0-9.96-7.79-1.72-14.28,8.24-6.48,15.58-7.51,22.96-14.65,7.37-7.14,14.76-16.98,20.22-28.76,0,0,6.12-10.14,10.54-10.34,4.42-.2,11.46,5.94,15.36,6.68,3.89.75,20.44-2.11,22.05-11.06,1.61-8.95,3.69-6.43,7.15-6.34,3.45.09,12.9,11.74,13.69,18.34.78,6.59,1.91,9.25,1.91,9.25Z"/>
    <path class="cls-26" d="M823.44,898.33l.03-.07c.26-.54-.28-1.23-1.19-1.54l-6.56-2.17c-.91-.3-1.86-.1-2.12.44l-.03.07c-.26.54.28,1.23,1.19,1.54l6.56,2.17c.91.3,1.86.1,2.12-.44Z"/>
    <path class="cls-26" d="M818.33,903.33l.1-.2c.19-.38-.33-.92-1.15-1.2l-4.88-1.64c-.82-.28-1.65-.19-1.83.2l-.1.2c-.19.38.33.92,1.15,1.2l4.88,1.64c.82.28,1.65.19,1.83-.2Z"/>
    <path class="cls-26" d="M814.24,907.85l.17-.34c.17-.35-.3-.83-1.04-1.08l-3.49-1.17c-.74-.25-1.48-.17-1.65.18l-.17.34c-.17.35.3.83,1.04,1.08l3.49,1.17c.74.25,1.48.17,1.65-.18Z"/>
    <path class="cls-26" d="M811.19,912.23l.19-.4c.19-.41-.25-.94-.99-1.18l-3.49-1.16c-.74-.25-1.5-.12-1.69.29l-.19.4c-.19.41.25.94.99,1.18l3.49,1.16c.74.25,1.5.12,1.69-.29Z"/>
  </g>
  <path class="cls-13" d="M886.52,909.05s-22.92,9.09-32.21,15.15c-9.29,6.06-34.79,19.07-48.85,23.38-14.07,4.31-35.06,5.58-35.06,5.58,0,0-.78,2.24,6.26,3.56,7.04,1.32,26.68-2.36,42.77-8.82,16.09-6.46,39.75-15.63,44.76-17.4,5.02-1.77,25.81-9.45,27.65-13.65,1.55-3.52-5.32-7.8-5.32-7.8Z"/>
  <path class="cls-20" d="M755.59,649.65c-1.19-3.61-.85,9.97-2.35,6.5-3.4-7.83-7.49-15.32-12.06-22.45-4.69-7.33-9.92-14.29-15.65-20.74-3.89-4.38-8.03-8.55-12.42-12.38,70.01-30.2,234.49-58.74,234.49-58.74,0,0,53.74,28.4,36.01,88.68-5.31,18.06-21.91,18.65-45.31,22.3-55.41,8.65-138.91,13.26-180.68,8.9-.28-.03-1.76-12.05-2.03-12.08Z"/>
  <path class="cls-20" d="M755.09,663.5c-1.62-3.27-3.4-6.46-5.29-9.55-4.28-6.99-9.18-13.54-14.49-19.68-5.45-6.31-11.37-12.19-17.7-17.51-4.3-3.62,8.66-15.13,3.96-18.14-17.65-52.64,248.74-36.86,248.74-36.86,0,0,17.3-22.2,17.78,44.42.45,62.6-175.77,46.17-233,49.02-.27.01.29,8.29.02,8.3Z"/>
  <path class="cls-20" d="M693.28,657.48c15.27,43.66,49.01,167.15,70.05,219.94,0,0,57.86,2.94,62.21-10.37,0,0,1.26-295.71-34.2-300.48-26.14-3.52-70.62,5.95-84.12,17.04-16.2,13.32-25.97,39.48-13.94,73.87Z"/>
  <path class="cls-20" d="M721.56,628.22s8.89-1.71,21.57-1.45c-2.45-5.33-3.29-9.3-3.29-9.3,1.18-1.35,2.42-2.72,3.73-4.13,7.26,1.7,14.36,4.04,21.25,6.83,8.01,3.25,15.75,7.11,23.15,11.52,7.13,4.24,13.94,9.03,20.22,14.38,1.78,1.51,3.51,3.08,5.19,4.7-.21.07,3.49-.48,3.27-.42,24.53,25.62,23.92,82.82,38.11,134.72,10.41,38.06,23.99,82.11,23.99,82.11-5.64,12.81-75.81,18.06-75.81,18.06-24.95-69.08-81.37-257.04-81.37-257.04Z"/>
  <path class="cls-19" d="M799.69,875.75c-.41-1.22-.82-2.45-1.23-3.67-1.14-3.4-2.28-6.81-3.42-10.21-1.76-5.25-3.51-10.5-5.26-15.75-2.24-6.72-4.48-13.43-6.71-20.15-2.59-7.78-5.17-15.55-7.74-23.33-2.83-8.54-5.65-17.09-8.47-25.64-2.93-8.91-5.86-17.82-8.78-26.73s-5.79-17.73-8.67-26.6-5.52-17.08-8.26-25.62c-2.5-7.8-4.97-15.6-7.43-23.41-2.09-6.66-4.16-13.33-6.19-20.02-1.58-5.22-3.15-10.46-4.63-15.71-.95-3.38-1.91-6.77-2.66-10.2-2.72-12.47-2.48-25.93,3.33-37.51s17-19.36,29.8-21.89c3.95-.78,8.01-1,12.01-1.35,6.54-.57,13.08-1.15,19.62-1.72,8.56-.75,17.13-1.5,25.69-2.25,8.1-.71,16.2-1.42,24.29-2.13,5.15-.45,10.31-.9,15.46-1.35.73-.06,1.46-.13,2.19-.19,1.16-.1,1.86-1.5.29-1.36-2.9.25-5.81.51-8.71.76-7.05.62-14.1,1.23-21.14,1.85-8.69.76-17.38,1.52-26.07,2.28-7.83.69-15.67,1.37-23.5,2.06-4.48.39-8.96.78-13.43,1.18-9.17.8-18.21,3.49-25.75,8.9-9.95,7.14-15.92,18.35-17.56,30.37-1.22,8.92-.14,17.96,2.09,26.63,1.1,4.29,2.33,8.55,3.58,12.8,1.75,5.97,3.57,11.93,5.4,17.88,2.25,7.29,4.53,14.56,6.84,21.83,2.61,8.23,5.24,16.45,7.89,24.67,2.85,8.84,5.71,17.68,8.59,26.52,2.93,9,5.88,18,8.83,26.99,2.9,8.83,5.8,17.65,8.72,26.47,2.73,8.28,5.47,16.55,8.22,24.83,2.44,7.36,4.89,14.71,7.34,22.06,2.02,6.06,4.04,12.12,6.07,18.18,1.47,4.39,2.94,8.79,4.41,13.18.79,2.35,1.58,4.71,2.37,7.06.1.3.2.59.3.89.29.85,2.56.21,2.28-.61h0Z"/>
  <path class="cls-19" d="M827.58,662.25c-4.99-2.06-9.77-4.57-14.28-7.53-.49-.32-1.19-.25-1.64.12-.37.3-.59.94-.1,1.26,4.65,3.05,9.59,5.65,14.73,7.77,1.04.43,2.65-1.07,1.29-1.63h0Z"/>
  <path class="cls-15" d="M908.57,255.24s-2.16,35.82,2.2,47.95c1.06,2.94,19.63,11.66,19.63,11.66l-74.37,37.34-37.56-31.1s28.8-13.35,29.86-16.88c1.06-3.53.06-30.16.06-30.16"/>
  <path class="cls-3" d="M982.59,345.5c-3.35-7.62-21.24-20.4-29.08-24.14-20.45-9.72-38.71-18.04-38.71-18.04,0,0-22.77,30.21-54.14,24.7-31.38-5.52-15.61-21.93-15.61-21.93l-9.79,2.96c-14.7,5.34-25.77,10.76-37.23,21.49-9.75,9.13-16.18,14.21-23.05,29.47-4.07,9.04-4.87,9.1-9.88,26.37-.69,2.36-11.19,31.81-11.2,32.27-.03,1.49,7.95,25.44,21.9,30.24,7.06,2.43,5.59,2.24,8.67,3.73.34.73,1.24,34.88,1.19,35.86-.88,17.15-.89,30.85-2.17,47.96-.03.39-.85,26.36-.88,26.74,1.3,0,1.41,0,2.71.02,20.47.26,39.65-3.47,60.03-1.65,10.26.91,25.89-2.2,36.13-1.09,2.07.22,3.46.41,5.65.62,1.9.18,3.81.33,5.71.47,10.46.8,33.41-3.09,43.83-1.92,11.04,1.25,32.29.98,42.86,4.31,2.03.64,2.36,2.49,4.54,3.42.35-4.27-.19-21.26.13-25.53,2.63-36.68-32.13-78.86-34.15-102.24l23.31-7.05,22.35-11.26c-5.53-41.03-4.75-56.76-13.12-75.79Z"/>
  <path class="cls-17" d="M784.23,382.49c-.72,19.18-1.04,38.4-.84,57.59.04,4.26.06,8.52.19,12.78l1.74-.79c-2.34-1.04-5.45-2.56-7.96-3.91s-5.76-2.8-7.5-5.18c-.19-.25.1.21-.03-.05s-.25-.56-.37-.83l-1.4-3.15c-.74-1.67-1.48-3.34-2.22-5.01l-2.09.75c5.28,5.27,12.56,9.25,19.93,10.39,1,.15,2.24-1.25.78-1.47-6.88-1.06-13.8-4.92-18.72-9.84-.48-.48-2.48-.14-2.09.75,1.28,2.89,2.55,5.78,3.84,8.66.34.77.79,1.28,1.43,1.85,2.46,2.18,5.5,3.71,8.4,5.2,2.2,1.13,4.44,2.21,6.7,3.21.46.21,1.76-.12,1.74-.79-.56-18.69-.25-37.44.22-56.12.12-4.75.26-9.5.44-14.24.04-1.06-2.16-.7-2.19.2h0Z"/>
  <path class="cls-15" d="M901.02,312.4c-19.08,8.92-40.41,8.12-56.2-5.54,4.22-2.17,4.07-6.11,4.33-7.03.94-3.39.65-26.57.65-26.57l59.95-19.35s-4.22,36.45.33,47.9c.24.61,2.24,3.34,3.74,4.62-3.58,3.05-8.49,3.95-12.79,5.96Z"/>
  <path class="cls-35" d="M837.59,276.02c1.88,3.37,3.58,6.86,5.59,10.14.03.05.04.1.05.15.19-.13.43-.14.59.11,1.42,2.21,2.83,3.17,4.06,5.51,1.06,2.02.92,5.04.91,7.42,1.58.34,4.56.24,6.56.48,13.62.45,13.99-1.37,32.73-12.21,5.95-3.44,5.06-8.14,6.21-8.96-18.63-1.48-37.19-1.63-56.71-2.63Z"/>
  <path d="M925.34,232.6s3.26-8.75,7.73-29.83c4-18.87-25.15-36.15-43.08-39.91-9.85-2.07-43.3.42-52.1,4.03-8.8,3.61-13.88,15.02-15.76,31.65,0,0,6.1-16.3,16.65-15.36,8.61.76,36.61-2.11,43.74,1.37,7.12,3.48,22.83,10.83,22.19,37.03-.17,7.14,12.87.27,16.13,4.75,3.26,4.48,4.5,6.28,4.5,6.28Z"/>
  <path class="cls-15" d="M909.41,262.44l4.17-25.57,2.72-28.71-10.18-22.39-19.97-10.96-23.28-.42s-18.85,3.68-24.8,4.94c-5.95,1.26-10.45,8.24-14.83,16.06-4.39,7.83-3.34,21.24-3.34,21.24-.19.45.22,2.51.29,2.94.9,5.41,1.03,10.11,1.78,14.16.35,1.92.26,3.68-.4,5.43-2.59,6.87-2.71,9.86-2.35,14.16.48,5.87,1.31,10.88,3.23,15.57,2.03,4.98,4.64,10.37,5.17,11.43,0,0,5.86,11.21,7.19,12.35,1.34,1.14,3.36,2.23,4.33,2.39s13.72,1.6,13.72,1.6l5.95.15c2.02.05,4.03-.3,5.92-1.04,5.11-1.99,19.71-7.97,23.75-10.52,5.43-3.43,12.43-18.46,12.43-18.46"/>
  <path d="M904.97,237.34c-.21,2.22-.56,11.05-.9,13.21l11.51.28c3.8-7.47,8.36-16.25,9.76-18.24,2.2-3.1,3.2-18.57,3.59-24.39l.08-1.26c.38-5.58-4.57-14.7-13.25-24.37-9.55-10.65-27.02-17.24-44.53-16.77-1.66.05-3.33.15-4.94.32-15.25,1.57-28.18,8.58-38.4,20.84-7.38,8.84-8.3,19.26-8,25.66.97-12.55,5.78-21.21,5.98-21.57,4.55-8.37,9.98-10.58,13.73-10.97,3.27-.34,5.67.64,6.15.86,3.65.99,9.06.72,12.98.32,2.92-.3,5.24-.7,5.87-.81,2.01-1.27,4.99-2.14,8.61-2.51,8.41-.87,20.46,1.14,22.79,4.93,2.59,4.2,8.19,19,8.09,22.4"/>
  <path class="cls-15" d="M908.29,262.97c6.48,7.12,11.4-5.9,11.4-5.9,6.73-7.61,6.98-15.92,6.91-21.61-.06-5.69-6.32-5.8-6.32-5.8-5.33.42-7.79,3.2-12.77,20.98"/>
  <path d="M827.85,184.88c4.09-6.09,11.89-13.63,16.38-19.43,2.05-.12,12.16,0,14.28-.01,21.65-.13,50.25,13.31,52.76,21.27,1.57,4.97-.52,31.64-1.55,34.04-2.81,6.58-4.14,15.28-4.14,15.28-.54-10.05-7.32-21.47-8.1-24.94-.78-3.47,4.37-19.61,3.29-20.34-1.09-.73-20.61-7.45-42.68-7.87-6.5-.12-13.04.22-18.86.79.04-.07-11.42,1.27-11.38,1.21Z"/>
  <path d="M867.94,228.7c1.34-.65,2.87-1.17,3.72-.38.2.18.73.71.97,1.59.3,1.12-.17,2.37-.89,3.11-.96,1-2.51,1.14-3.69.55-1.6-.79-2.07-2.75-1.64-4.15.08-.26.45-.19,1.53-.72"/>
  <path d="M829.24,227.56c-1.3-.72-2.86-.16-3.75.58-.21.17-.77.68-1.04,1.54-.35,1.1.06,2.37.74,3.15.91,1.04,2.45,1.26,3.66.73,1.63-.71,2.21-2.64,1.84-4.07-.07-.26-.39-1.36-1.44-1.94"/>
  <path d="M839.99,233.09s-5.19-5.45-9.08-5.9c-5.67-.66-7.16.58-9.23,3.14,0,0,3.79-2.63,7.77-2.06,3.81.55,10.54,4.82,10.54,4.82Z"/>
  <path d="M859.11,231.81s8.17-4.69,12.08-4.63c5.71.09,12.36,3.73,14.08,6.54,0,0-8.75-5.32-12.77-5.27s-13.39,3.37-13.39,3.37Z"/>
  <path d="M861.56,208.37c-.45,1.28-.91,2.56-1.36,3.85-.34.98-1.2,3.18-1.54,4.16,3.41.29,6.66.06,8.8.42,4.25.72,8.69,1.19,12.51,3.25,1.83.99,3.35,2.09,4.62,3.65.4.49,1.29,2.33,2.18,2.26.36-.03.41-1.79.42-1.97.08-3.55-2.18-5.84-5.25-7.78-6.26-3.97-13.16-6.24-20.39-7.84"/>
  <path d="M818.65,217.06s1.95-1.24,1.97-1.25c5.46-3.5,11.51-5.28,17.87-6.39.42,1.29.84,2.58,1.26,3.88.32.99.95,2.75,1.27,3.73-3.01.06-5.69-.16-7.57.06-3.74.44-7.68.85-11.02,2.63-.26.14-2.5,1.06-2.75,1.21-1.71-1.42-1.42-3.44-1.02-3.89Z"/>
  <g>
    <path class="cls-4" d="M843.68,255.46c1.65.93,4.2.79,5.9-.24.38-.23,1.62.03,1.08.35-2.25,1.35-5.91,1.39-8.03.19-.21-.12-.17-.29.1-.37.28-.09.72-.06.95.07"/>
    <path class="cls-4" d="M851.4,255.1c1.13-.52,2.4-.77,3.66-.84.18,0,.42.07.55.19.1.1.12.23-.02.31-.59.33-1.33.45-2.01.42-.21,0-.49-.07-.61-.26-.11-.18.1-.28.27-.28.56.02,1.13-.08,1.62-.34.18.17.36.33.54.5-1.12.06-2.25.3-3.27.76-.2.09-.49.02-.66-.09-.13-.08-.27-.28-.07-.37"/>
    <path class="cls-4" d="M856.38,255.38c1.47,0,3.21-.61,3.96-1.73,1.13-1.68.18-4.39-1.62-5.53-.2-.12-.09-.27.12-.31.27-.05.57.06.78.19,1.57.99,2.55,3.22,2.28,4.81-.26,1.49-1.69,2.5-3.46,2.89-.53.12-1.08.19-1.63.19-.22,0-.62-.08-.73-.26-.11-.18.1-.26.31-.26"/>
    <path class="cls-4" d="M841.01,254.63c.08-.17-.06-.29-.18-.29-.4,0-.8-.12-1.13-.41-.13.16-.27.32-.4.48.79.11,1.58.39,2.28.9.14.1.34.04.47-.06.1-.08.2-.27.06-.37"/>
    <path class="cls-4" d="M842.11,254.87c-.78-.56-1.66-.87-2.55-.99-.13-.02-.3.05-.4.17-.08.1-.1.22,0,.31"/>
    <path class="cls-4" d="M837.95,254.76c-.95-.06-2.06-.74-2.5-1.88-.67-1.72.04-3.74,1.26-4.8.13-.12.07-.27-.06-.32-.17-.06-.37.03-.51.15-1.06.93-1.77,2.45-1.66,4.06.11,1.5,1,2.57,2.13,3.03.34.14.7.23,1.05.26.14,0,.41-.05.48-.23.08-.18-.05-.26-.19-.27"/>
  </g>
  <path class="cls-9" d="M848.74,266.46c3.27.04,13.1.41,13.1.41,0,0-3.5,2.96-13.3,2.85-9.81-.11-13-3.04-13-3.04l13.21-.21Z"/>
  <path class="cls-33" d="M913.4,247.55c.99-3.06,2.14-6.16,3.9-8.86.44-.68.92-1.33,1.5-1.89.1-.1.2-.19.31-.28.15-.13.09-.08.19-.15.08-.06.16-.12.24-.17.04-.03.28-.16.16-.1s.09-.03.13-.06c.17-.11-.1.02-.03,0,.19-.05-.02,0-.07,0l-.58-.15c.5.48.85,1.14,1.12,1.76.78,1.8.9,3.79.67,5.73-.07.63,1.39.39,1.46-.16.27-2.31.07-4.73-1.09-6.78-.37-.66-.78-1.45-1.65-1.23-1.83.46-3.16,2.49-4.06,3.99-1.59,2.64-2.68,5.59-3.63,8.51-.18.56,1.28.37,1.46-.16h0Z"/>
  <path class="cls-33" d="M914.45,248.68c1.46-.04.74,2.99.63,3.74-.15.95-.74,3.52.99,3.36.82-.08,1.29-.76,1.61-1.45.52-1.13.82-2.37,1.07-3.58.33-1.58.46-2.95.29-4.54-.2-1.82-.76-4.13-2.6-4.97-.33-.15-.74-.09-1.03.11-.19.14-.44.5-.1.65,1.5.68,1.98,2.53,2.21,4.02.17,1.1.24,2.2.07,3.3-.21,1.36-.49,2.72-.93,4.03-.14.42-.3.84-.52,1.23-.05.08-.22.27-.23.35l-.03.03c-.19.17.02.14.61-.11l.08.04s-.07-.08-.1-.12c-.03-.2-.13-.39-.14-.61-.01-.34.04-.69.08-1.03.1-.77.26-1.54.33-2.32.07-.71.13-1.52-.18-2.18-.37-.76-1.16-.93-1.94-.91s-1.16.95-.16.93h0Z"/>
  <path class="cls-33" d="M853.98,216.58c-1.6-.72-2.61-2.24-2.98-3.92-.47-2.08.08-4.26.84-6.21.28-.73-1.16-.64-1.37-.11-.82,2.12-1.42,4.44-.92,6.71.41,1.83,1.56,3.53,3.3,4.31.33.15.74.1,1.03-.11.19-.14.44-.52.1-.67h0Z"/>
  <path class="cls-27" d="M846.7,264.25c4.89.06,15.63,3.65,17.77,5.87,0,0-4.91,6.98-16.24,6.84-11.33-.14-13.88-7.22-13.88-7.22,0,0,6.13-5.57,12.35-5.49Z"/>
  <path class="cls-21" d="M859.89,267.63s-6.2-.62-11.14-.68c-4.95-.06-11.15.4-11.15.4,0,0-.74-4.02,8.22-3.91,8.97.11,14.07,4.19,14.07,4.19Z"/>
  <path class="cls-5" d="M846.79,275.01c5.32-.81,11.5-5.41,17.68-4.88,0,0-2.57,10.59-15.89,10.42-13.32-.17-14.23-10.8-14.23-10.8,6.19-.37,7.15,4.32,12.44,5.27Z"/>
  <path class="cls-5" d="M840.94,261.12c2.8-.2,4.56,1.05,5.78,1.06,1.22.02,3.01-1.19,5.8-.92,2.62.26,13.61,7.82,12.36,8.76-1.25.95-9.78-4.61-18.2-4.72-8.42-.11-11.51,5.3-12.74,4.32-1.23-.98,4.38-8.32,7-8.52Z"/>
  <path class="cls-15" d="M989.98,449.81c-16.12,1.86-32.21,4.01-48.33,5.88l3.15,49.85-14.48,4.15-79.17,31.71,2.9,22.33s60.24-1.47,79.09-5.78c1.07-.25,29.06-4.61,35.91-7.09,11.86-4.3,16.15-10.43,19.48-19.62,4.13-11.41,4.03-34.26,3.15-46.14-.88-11.78-1.27-23.54-1.72-35.3Z"/>
  <path class="cls-15" d="M854.16,540.59l6.97,21.66-2.98.36s-23.65,7.3-29.46,7.03c-5.81-.27-19.49.79-19.49.79.82,1.6,1.05,3.44.65,5.19-.59,1.98-1.97,3.64-3.82,4.58l-6.57-8.66c-1.39,4.3-5.35,1.39-5.35,1.39l-4.86-7.68c-1.48,5.4-6.71,1.75-6.71,1.75l-3.21-10.99c-1.28,1.91-2.92,3.56-4.83,4.84-2.5,1.38-3.64-2.99-3.64-2.99l8.62-18.01,25.71-9.53,47.22,10.82,1.75-.54Z"/>
  <path class="cls-12" d="M779.54,556.71c.16-.03-.02-1.76.03-4.72.02-.73.02-1.58.09-2.37.09-.81.51-1.55,1.15-2.06,1.56-1.39,3.25-2.64,5.03-3.73,1.89-1.17,3.76-2.16,5.51-3.09,1.75-.93,3.27-1.78,4.6-2.32"/>
  <path class="cls-12" d="M788.82,564.33c-.24-.75-.83-1.79-1.08-3.08-.29-1.59-.19-3.22.28-4.77.18-.87.46-1.72.84-2.52.66-.68,1.45-1.22,2.32-1.59,3.74-1.94,7.42-3.31,9.91-4.67"/>
  <path class="cls-12" d="M799.79,571.54c.16-.13-.74-1.1-1.63-2.86-.58-.96-.86-2.07-.8-3.19.16-1.31.95-2.46,2.12-3.08,1.25-.67,2.59-1.14,3.99-1.38l3.55-.85c.9-.22,1.71-.5,2.23-.61"/>
  <path class="cls-35" d="M943.88,506.26c3.26-1.16,6.97,1.14,9.5,3,2.78,2.04,5.31,4.41,7.56,7.02.27.32,1.86-.28,1.61-.58-2.63-3.05-5.67-5.91-9.09-8.07-3.09-1.96-6.6-3.03-10.17-1.76-.18.06-.67.24-.51.48.14.22.94-.04,1.1-.1h0Z"/>
  <path class="cls-27" d="M510.25,179.39c-5.95-.59-19.51,2.32-22.42,4.73,0,0,5.03,9.16,18.84,10.53,13.81,1.36,17.87-6.9,17.87-6.9,0,0-6.7-7.61-14.28-8.36Z"/>
  <path class="cls-21" d="M493.73,181.72s7.63.09,13.66.68c6.03.6,13.52,2,13.52,2,0,0,1.45-4.79-9.48-5.87-10.93-1.08-17.69,3.19-17.69,3.19Z"/>
  <path class="cls-5" d="M508.67,192.47c-6.36-1.7-13.26-8.14-20.85-8.34,0,0,1.69,13.24,17.92,14.84,16.23,1.6,18.78-11.21,18.78-11.21-7.49-1.29-9.28,4.29-15.86,4.72Z"/>
  <path class="cls-5" d="M517.67,176.36c-3.38-.63-5.69.65-7.17.51-1.48-.15-3.5-1.86-6.94-1.9-3.22-.04-17.63,7.66-16.23,8.98,1.4,1.32,12.52-4.28,22.79-3.27,10.27,1.01,13.29,8.01,14.92,6.99,1.63-1.02-4.2-10.73-7.36-11.31Z"/>
  <path class="cls-17" d="M910.22,302.45c-1.4,3.14-3.5,6.05-5.67,8.69-5,6.06-11.5,10.95-18.93,13.59-4.94,1.75-10.14,2.53-15.38,2.48-5.69-.06-11.66-.79-17.04-2.68-4.93-1.72-10.13-5.03-10.68-10.7-.07-.74-.04-1.6.07-2.38.04-.3.1-.6.16-.89.08-.37.05-.08.13-.49.02-.1.06-.21.1-.3.06-.13-.22.32-.04.1.21-.25.45-.48.67-.72,1.13-1.22,2.27-2.44,3.4-3.66.68-.74-.46-1.38-1.13-1.15-3.04,1.04-6.07,2.08-9.11,3.12-.87.3-2.21.51-2.68,1.38-.86,1.58-1.19,3.67-1.32,5.43-.38,5.33,1.66,10.37,5.79,13.72,4.09,3.32,9.26,5.25,14.31,6.52,6.93,1.75,14.17,2.2,21.29,1.75,6.56-.42,12.9-2.16,18.98-4.63s12.41-5.96,17.78-10.19c2.66-2.09,5.17-4.42,7.41-6.95,1.3-1.47,2.65-3.11,3.37-4.96.55-1.4.65-3.17-.87-3.95-2.49-1.28-5.24-2.19-7.82-3.27l-1.14-.48c-.97-.41-2.52.99-1.24,1.53,2.41,1.01,4.82,2.02,7.23,3.03.55.23,1.14.43,1.68.7-.04-.02-.17-.15.03.03.17.17-.03-.06.02.02.06.08.14.16.18.26-.07-.15.11.44.11.38.03.35-.04.72-.13,1.05-.35,1.26-1.19,2.4-1.97,3.41-3.26,4.21-7.5,7.75-11.89,10.72-8.64,5.85-19.12,10.48-29.6,11.46-10.51.99-22.05,0-31.58-4.86-3.42-1.74-6.8-4.19-8.39-7.79-1.7-3.86-2.03-8.89-.08-12.76l-.83.64c3.63-1.24,7.27-2.49,10.9-3.73l-1.13-1.15c-1.06,1.14-2.13,2.29-3.19,3.43-.41.44-.9.84-1.14,1.39-.44,1.01-.56,2.29-.58,3.38-.06,5.45,3.8,9.42,8.43,11.72s10.13,3.31,15.34,3.83c5.92.59,11.85.46,17.65-.93,8.7-2.08,16.5-6.87,22.6-13.37,2.07-2.21,3.95-4.61,5.58-7.17.82-1.29,1.79-2.68,2.34-4.12.03-.07.06-.13.09-.19.52-1.16-1.67-1.24-2.09-.3Z"/>
  <path class="cls-10" d="M669.84,942.87s1.91,4.39-.12,9.91c-2.02,5.52-36.05-.17-48.35.55-12.3.71-61.48,3.56-73.34.16-11.85-3.4.03-16.75.03-16.75l121.77,6.14Z"/>
  <path class="cls-15" d="M546.82,894.72c1.39,5.44-8.03,26.58-9.83,32.51-2.08,6.82,1.01,12.21,9.19,15.54,6.88,2.8,10.46,2.84,18.07,2.86,9.93.02,20.58-1.1,30.52-1.08,8.51.02,35.31-.7,43.59,1.07,12.88,2.75,20.95,1.43,26.79-.14,1.61-.44,2.61-.31,3.4-1.37,2.05-2.77,1.96-5.94-2.19-8.57-5.24-3.31-11.89.56-16.74-3.27-.87-.68-1.66-1.44-2.67-1.95-1.98-1-4.42-.91-6.71-1-11.44-.46-10.36-4.93-25.17-9.17-4.35-1.25-23.88-13.52-27.88-15.44l1.58-8.1-41.93-1.88Z"/>
  <path class="cls-10" d="M467.34,936.64s-2.51,2.04-3.07,9.79c-.75,10.37,36.2,11.79,45.16,13s37.3,9.02,57.52,10.77,43.01-3.06,43.76-14.87c.4-6.4.02-8.91-4.23-10.73-4.25-1.83-125.63-13.47-125.63-13.47l-13.5,5.5Z"/>
  <path class="cls-15" d="M481.97,884.45c.24,6.52,2.16,14.21-9.79,34.45-3.55,6.02-5.86,17.47.66,22.04,7.75,5.43,26.32,4.38,31.55,5.84,11.03,3.09,20.39,3.91,30.93,7.81,10.69,3.95-.03-1.13,11.86.2,1.64.18,12.38,6.18,13.85,5.55.98-.43,3.54.3,4.52-.12,3.48-1.49,7.64.94,11.54.66,1.72-.13,3.31-.78,4.93-1.28,4.28-1.32,8.9-1.58,13.39-2.25,4.49-.67,9.08-1.84,12.32-4.56,3.23-2.72,4.64-7.36,2.14-10.68-3.78-5.02-9.12-2.46-14.55-3.2-5.42-.73-7.43-1.66-12.13-4-12.01-5.98-13.85-7.16-23.99-11.87-8.29-3.85-21.23-13.01-31.73-20.65l2.47-10.37"/>
  <g>
    <path class="cls-35" d="M567.56,959.86c1.22-.26,2-1.35,2.33-2.49s.21-2.29-.27-3.35c-1.01-2.2-3.35-3.58-5.41-4.65-1.22-.63-2.47-1.19-3.71-1.79-.43-.21-.81.44-.38.65,2.07,1.01,4.22,1.9,6.12,3.21,1.67,1.16,3.31,2.86,3.06,5.05-.13,1.13-.74,2.38-1.95,2.64-.47.1-.27.82.2.72h0Z"/>
    <path class="cls-35" d="M578.87,960.52c3.11.15,3.51-3.84,3.25-6.1-.07-.61-.18-1.22-.39-1.8-.28-.77-.79-1.46-1.34-2.06-1.41-1.53-3.34-2.45-5.25-3.21-1.12-.44-2.17-1.04-3.26-1.55s-2.25-.97-3.48-.99c-.48,0-.48.74,0,.75.98.02,1.93.37,2.82.76.94.42,1.85.92,2.79,1.35s1.81.74,2.69,1.17,1.68.91,2.41,1.52,1.34,1.3,1.76,2.11c.2.39.33.91.41,1.37.23,1.2.24,2.49-.04,3.68s-1,2.3-2.36,2.23c-.48-.02-.48.73,0,.75h0Z"/>
    <path class="cls-35" d="M587.25,958.31c1.58-.46,2.58-1.91,3.02-3.43s.31-3.04-.34-4.45-1.71-2.55-2.89-3.5c-1.28-1.03-2.7-1.86-4.18-2.57-.81-.39-1.65-.74-2.49-1.06-.96-.37-1.93-.78-2.93-1.03-.47-.12-.67.61-.2.72.86.21,1.67.56,2.49.86.68.25,1.36.52,2.02.82,1.41.63,2.77,1.36,4.03,2.24,2.22,1.57,4.35,3.95,3.96,6.88-.21,1.56-1.07,3.33-2.69,3.79-.46.13-.27.86.2.72h0Z"/>
    <path class="cls-35" d="M595.49,957.18c1.95-.72,3.5-2.29,4.31-4.19.72-1.68.93-3.73.03-5.38-.81-1.5-2.25-2.61-3.66-3.5-1.57-1-3.28-1.79-5-2.51-.85-.35-1.72-.67-2.57-1.02-1.03-.42-2.15-1.09-3.3-1.05-.48.02-.48.77,0,.75.94-.03,1.88.51,2.72.87.72.31,1.47.58,2.2.87,1.58.63,3.14,1.33,4.62,2.17s2.84,1.75,3.84,3.04c.42.54.75,1.15.89,1.82.19.88.09,1.85-.14,2.71-.56,2.09-2.1,3.94-4.15,4.7-.45.17-.25.89.2.72h0Z"/>
  </g>
  <path class="cls-34" d="M556.88,960.27s-3.54-9.79,21.97-18.66c15.55-5.41,21.32-5.19,21.32-5.19,0,0-16.29-3.14-28.96-8.76-11.02-4.89-18.33-12.27-22.08-13.26,0,0-17.6,23.79-43.87,34.64l51.63,11.23Z"/>
  <path class="cls-34" d="M626.18,945.31s-14.1-2.12,11.41-11c15.55-5.41,21.39-6.41,21.39-6.41,0,0-22.47-2.3-35.14-7.92-11.02-4.89-18.33-12.27-22.08-13.26,0,0-17.37,20.13-43.64,30.98l68.06,7.61Z"/>
  <path class="cls-34" d="M590.66,935.83s11.11.26,14.58.91,12.31,8.05,2.1,18.88-50.45,4.65-50.45,4.65l-18.01-3.92,51.78-20.52Z"/>
  <path class="cls-34" d="M649.76,926.98s11.11.26,14.58.91,14.69,9.6,2.17,17.66c-9.11,5.87-50.14-.23-50.14-.23l-18.16-1.48,51.55-16.86Z"/>
  <path class="cls-8" d="M550.99,920.57c6.81,7.52,16.44,11.51,26.03,14.15,5.52,1.52,11.13,2.66,16.68,4.03,3.96.97,8.49,2.33,11.07,5.73,3.51,4.64.95,10.51-2.45,14.38-.15.17.76.31.97.08,3.01-3.42,5.46-8.37,3.46-12.89-1.7-3.82-5.9-5.72-9.67-6.88-2.39-.74-4.85-1.27-7.28-1.83-2.79-.65-5.58-1.27-8.36-1.96-5.32-1.32-10.61-2.87-15.61-5.16s-10.03-5.55-13.87-9.79c-.2-.22-1.12-.05-.96.13h0Z"/>
  <path class="cls-8" d="M613.41,944.26c.19-2.26-1.1-4.34-2.84-5.69-2.02-1.57-4.56-2.24-6.99-2.91-5.77-1.59-11.54-3.17-17.31-4.76-3.29-.9-6.57-1.81-9.86-2.71-.19-.05-.55-.06-.7.07-.13.11-.19.22.03.28,5.61,1.54,11.22,3.08,16.83,4.63,2.81.77,5.61,1.54,8.42,2.31,2.5.69,5.16,1.23,7.45,2.51s4.21,3.6,3.99,6.36c-.02.24.97.21.99-.1h0Z"/>
  <path class="cls-3" d="M990.49,381.25s6.67,53.81,8.88,80.07c0,0-39.57,13.03-67.43,7.99-29.53-5.34,2.43-66.17,2.43-66.17l56.12-21.89Z"/>
  <path class="cls-17" d="M948.95,341.44c-2.55.4-5,1.87-6.99,3.44-5.52,4.35-8.83,10.9-10.9,17.49-4.35,13.87-3.62,28.75-3.38,43.09.24,14.53.8,29.06,1.67,43.57.28,4.61.59,9.21.94,13.82.16,2.09.08,4.42.53,6.48.02.09.02.18.02.27.02.18.29.33.44.36,7.88,1.45,16.06,1.85,24.04,1.57,12.53-.44,24.91-3.74,36.88-7.27,2.45-.72,4.91-1.46,7.32-2.31.42-.15.97-.39.92-.92-.25-2.72-.49-5.44-.74-8.16-.04-.48-.98-.43-1.26-.34-18.75,6.34-38.5,10.13-58.34,9.54-1.5-.05-3-.12-4.5-.27-.36-.04-.71-.08-1.07-.12-.19-.02-.53-.08-.17-.02-.5-.09-1.19,0-1.54.41-.27.33-.28.8.24.89,1.6.28,3.24.36,4.86.44,5.15.24,10.32.06,15.46-.25,12.55-.76,24.79-3.29,36.87-6.74,2.86-.82,5.71-1.66,8.53-2.61l-1.26-.34c.25,2.72.49,5.44.74,8.16l.92-.92c-6.75,2.36-13.72,4.2-20.67,5.87-6.57,1.58-13.14,3-19.9,3.45-5.78.38-11.58.24-17.35-.27-2.9-.25-5.84-.56-8.7-1.09l.44.36c-.49-5.24-.85-10.49-1.19-15.74-.87-13.32-1.46-26.65-1.8-39.99-.21-8.53-.39-17.08-.28-25.62.08-6.67.61-13.38,2.02-19.92,1.61-7.46,4.44-15.27,10.03-20.71,1.37-1.33,3.15-2.64,4.61-3.36.31-.15.62-.3.94-.43.13-.05.26-.11.4-.16.34-.13-.18.05.15-.05s.62-.18.94-.26c.26-.06-.28.05-.15.03.39-.06,1.19-.29,1.22-.8s-.57-.63-.97-.57h0Z"/>
  <g>
    <path class="cls-15" d="M752.07,417.6s20.03,19.75,15.85,35.82"/>
    <path class="cls-35" d="M751.4,417.9c2.32,2.29,4.41,4.84,6.37,7.43,3.89,5.15,7.38,10.87,9.07,17.15.97,3.6,1.26,7.37.34,11.01-.15.6,1.32.4,1.46-.15,1.65-6.57-.52-13.4-3.55-19.23-2.64-5.09-6.04-9.78-9.83-14.08-.82-.93-1.65-1.86-2.54-2.73-.4-.4-1.78.16-1.34.6h0Z"/>
  </g>
  <path class="cls-25" d="M488.52,176.74c-.45.49-3.63.8-.67.26.83-.15,1.68-.41,2.47-.72,1.84-.7,2.08-1.72,3.57-2.83l-3.73,1.44.82-.16h-2.54c3.99,1.24,6.66.64,10.27-1.56l-4.09,1.24c-1.3.09.94.62,1.11.63.94.1,2.07-.18,2.98-.4,2.29-.54,3.27-1.89,5.2-2.93l-5.39,1.25c1.75.18,1.61.68,2.18,2.01.39.91,3.12.11,3.64-.02l.16-.04c.46-.12,3.51-.97,3.16-1.8-.37-.9-3.13-.11-3.64.02l-.16.04,3.64-.02c-2.25-5.25-8.44-1.79-11.63.83l4.57-1.57c.77-.1-1.29-.56-1.33-.56-.71-.09-1.62.1-2.3.22-.87.16-1.79.43-2.6.79-.28.13-2.6,1.34-1.36.89l3.95-.62c-2.43-.45-3.66-.95-6.2-.25-2.17.6-3.5,1.57-4.76,3.41l2.21-1.26c3.18-1.12,1.76-.45.41-.24-.93.15-1.93.37-2.82.69-1.57.56-2.7,1.32-3.81,2.52-.74.81,2.53.49,2.67.46,1.37-.25,3.04-.69,4.02-1.74h0Z"/>
  <path class="cls-25" d="M516.85,176.96c1.58-.14,1.91,1.07,2.95,1.83.68.49,1.45.66,2.28.71.52.04,1.03.02,1.54-.08,1.03-.23,1.23-.25.58-.04l-1.92-.91c.52.55.45,1.45.92,2.07.38.51,1.05.9,1.61,1.14.32.14.65.23.99.29.82.22.57-.01-.73-.71-.09.09.24,1.69.26,1.94.06.67.92,1.09,1.42,1.31l.11.05c1.57.68,3.69-.18,4.81-1.29.15-.15.31-.3.47-.44l-4.03,1.45.2.02-2.2-1.47c-.08-.78.07-.51-.37.09-.22.3-.4.61-.57.94-1.67,3.37,5.2,3.26,6.48.68.63-1.27,1.42-2.02,1.26-3.53-.1-.94-1.44-1.41-2.2-1.47-1.93-.16-3.36.56-4.7,1.88l4.81-1.29-.11-.05,1.42,1.31c-.14-1.6-.35-3.24-2.12-3.81-.38-.12-.92-.41-.53.06-.26-.31-.23-1.04-.45-1.42-.54-.95-1.37-1.39-2.43-1.58-.5-.09-1.15-.17-1.66-.09-2.14.32.59.5.42.77.37-.57-1.43-1.78-1.78-1.94-1.83-.87-4.06-1.34-6.07-1.16-1.44.13-3.58,1.02-3.77,2.68s1.83,2.22,3.11,2.1h0Z"/>
  <path class="cls-25" d="M507.67,173.71l-.72,3.68c-.11.56-.57.99-1.14,1.07-3.92.53-18.84,2.5-22.39,2.43-.09,0,.31,1.48.22,1.46l-.83-.06c-1.33-.27-.34-4.72.92-5.21,3.84-1.48,7.29-2.52,9.41-3,2.66-.61,10.02-2.05,13.23-2,.84.01,1.46.79,1.3,1.62Z"/>
  <path class="cls-25" d="M514.39,173.92l-1,3.27c-.07.57.19,1.12.67,1.37,3.27,1.72,12.04,6.89,15.17,7.94.08.02.14.04.22.05l1.07.14c1.24.16,1.48-2.67.52-3.53-2.91-2.6-2.84-3.69-4.55-4.81-2.14-1.4-7.64-4.6-10.47-5.55-.74-.25-1.52.3-1.63,1.13Z"/>
  <path class="cls-16" d="M650.12,611.4s-10.56-2.03-25.64-1.72c2.92-6.33,3.92-11.05,3.92-11.05-1.4-1.6-2.88-3.24-4.43-4.91-8.63,2.02-17.07,4.8-25.25,8.12-9.52,3.86-18.73,8.45-27.52,13.69-8.47,5.05-16.57,10.73-24.03,17.09-2.11,1.8-4.17,3.67-6.17,5.59.26.08-4.14-.57-3.89-.5-29.16,30.46-28.43,98.45-45.3,160.14-12.37,45.25-25.7,82.13-25.7,82.13,6.7,15.23,90.12,21.47,90.12,21.47,29.66-82.12,93.91-290.05,93.91-290.05Z"/>
  <path class="cls-30" d="M523.98,657.77c6.12-2.52,11.96-5.63,17.5-9.25.45-.29.51-.93.1-1.26-.48-.39-1.19-.18-1.64.12-5.37,3.51-11.07,6.49-17,8.93-.47.19-.82.79-.52,1.25.33.51,1.09.41,1.56.21h0Z"/>
</svg>