<svg id="Layer_1" data-name="Layer 1" xmlns="http://www.w3.org/2000/svg" viewBox="0 0 823.85 1029.88"><defs><style>.cls-1{fill:#0b4060;opacity:0.2;}.cls-2{fill:#cceaed;}.cls-3{fill:#00a1cd;}.cls-4{fill:#ed1651;}.cls-5{fill:#504b48;}.cls-6{fill:#c6cacb;}.cls-24,.cls-25,.cls-29,.cls-30,.cls-31,.cls-32,.cls-33,.cls-34,.cls-7{fill:none;stroke-linecap:round;stroke-miterlimit:10;}.cls-7{stroke:#188ab2;stroke-width:16.62px;}.cls-8{fill:#a2cced;}.cls-9{fill:#9c9e9f;}.cls-10{fill:#249045;}.cls-11{fill:#e69227;}.cls-12{fill:#761415;}.cls-13{fill:#a51e23;}.cls-14{fill:#ffcd05;}.cls-15{fill:#6f6f70;}.cls-16{fill:#f8ad1d;}.cls-17{fill:#d4a92a;}.cls-18{fill:#fad85b;}.cls-19{fill:#5e5e5c;}.cls-20{fill:#888884;}.cls-21{fill:#454546;}.cls-22{fill:#323333;}.cls-23{fill:#f8e5b9;}.cls-24{stroke:#939393;stroke-width:3.16px;}.cls-25,.cls-31,.cls-34{stroke:#0d4060;}.cls-25{stroke-width:3.33px;}.cls-26{fill:#0d4161;}.cls-27{fill:#fff;}.cls-28{fill:#0d4060;}.cls-29,.cls-30,.cls-33{stroke:#0f8ab2;}.cls-29{stroke-width:7.24px;}.cls-30{stroke-width:4.99px;}.cls-31{stroke-width:2.78px;}.cls-32{stroke:#231f20;stroke-width:1.47px;}.cls-33{stroke-width:7.96px;}.cls-34{stroke-width:2.83px;}</style></defs><ellipse class="cls-1" cx="408.24" cy="976.84" rx="393.46" ry="25.84"/><g id="Layer_1-2" data-name="Layer 1"><path class="cls-2" d="M249.34,364.41c11.25,0,20.62,7.56,22.13,18.27a18,18,0,0,1-5.12,15.26,23.2,23.2,0,0,1-30.21,2.78c-6.22-4.62-9.42-10.88-8.14-18.69,1.28-8.34,6.62-13.59,14.47-16.23A51.93,51.93,0,0,1,249.34,364.41Z"/><path class="cls-2" d="M277.89,411.45a10.07,10.07,0,0,1,10.48,9.66c0,.05,0,.11,0,.16.06,5.31-4.66,9.79-10.38,9.86a9.86,9.86,0,1,1-.18-19.68Z"/><polyline class="cls-3" points="451.82 959.63 471.76 827.98 414.18 827.98 434.27 963.43 449.62 953.73"/><polyline class="cls-3" points="351.36 952.66 326.3 831.75 388.76 831.75 366.31 959.63 344.86 952.66"/><polygon class="cls-4" points="344.42 917.46 374.56 917.46 367.18 960.71 348.85 960.71 344.42 917.46"/><polygon class="cls-4" points="426.9 919.18 458.7 919.18 454.23 962.44 434.27 963.43 426.9 919.18"/><path class="cls-5" d="M306.71,963.43a30.83,30.83,0,0,1,61.65,0"/><path class="cls-5" d="M434.3,963.43a30.83,30.83,0,0,1,61.65,0"/><path class="cls-6" d="M770.89,661.56s-12.79-41.81-17.11-43.92-12.36-2.09-12.36-2.09l16.13,52.18Z"/><path class="cls-7" d="M581.18,668.38s48,16,77,4.89,62.6-37,62.6-37"/><path class="cls-8" d="M705.33,626.34c-5.76,3.94-8.6,12.46-6.5,21.59,2.63,11.63,12.29,20,21.44,18.55s18.39-2.77,27.63-4q7.22-1,14.49-1.92c3.94-.51,8.79-.32,12.18-2.72,4-2.82,2.55-11.63-3.07-10.76l-16.63,2.56a25.59,25.59,0,0,0,.38-4.79l19.93-3.14c2.39-.37,3.84-3.16,3.1-6.21s-3.23-5.2-5.62-4.84l-19.88,3.09a29.65,29.65,0,0,0-2.18-3.84l17.07-2.66c2.39-.37,3.84-3.16,3.1-6.19s-3.21-5.22-5.62-4.86l-28.46,4.44a13.86,13.86,0,0,0-2.88,0l7.68-5c2.07-1.28,2.68-4.55,1.28-7.35s-6.85-2-9-.75Z"/><path class="cls-7" d="M590.62,681.51s40.29,28.9,43.49,59.87-5,72.68-5,72.68"/><path class="cls-6" d="M801.27,770.05s-21.47-70.8-31.19-110.46A86.57,86.57,0,0,1,756,661.33c2,15.63,8,36.46,8,37.44.23,10-29.66,21.75-48.6,4.76-15-13.44,18.89-75.79,18.89-75.79s6.39-11.33,13.76-9c2.12-2,5.22.69,7.47-1.16-10.48-4.38-17.57-3.39-17.57-3.39-25.83,13.29-51.45,90.47-61.4,112.56s-15.11,80.12,8,100.19c6.57,5.71-.48.62,69.32,2.24C809.47,830.5,801.27,770.05,801.27,770.05Z"/><path class="cls-9" d="M728,640.18S700.79,697,703.14,717.65s58.31,14.69,62.5,6.4S756,661.28,756,661.28s2.27,39.34-2.31,43.67-7.68,9.52-25.87,4-14.39-10.54-11-24S728,640.18,728,640.18Z"/><path class="cls-10" d="M733.17,690c2,0,4.7,4.38,6.19,7.08l.31-.55c-1.28-4.47-3.68-13.07-1.74-12,1.72.91,3.19,5.12,4,7.9.23-.39.45-.79.68-1.17-1.09-6.57,2.56-15,2.56-15l.74,3a23.34,23.34,0,0,1,0,6.78c2.1-3.11,4.07-5.38,5.63-6.12,7.19-3.39,9.78-.36,9.78-.36s-10,4.82-11.73,7.89l-1.71,3.07s12.42-2.8,12.43-.51-14.07,5.6-14.07,5.6,11.31.22,11.85,4.12-14.6-1.28-14.6-1.28l-.65,2a10,10,0,0,1,4.4.57c5.37,1.79-2.56,4.61-6.52,5.83l-7.51,22.71-8.44-1.27,4.32-9.3s3.58-8.41,8.1-17.45C735.05,697.64,731,690,733.17,690Z"/><path class="cls-11" d="M731,731.76s3.21-30.56,34.87-22.27c0,0,3.48,11.92-.27,14.6S751,733.46,731,731.76Z"/><path class="cls-12" d="M714.22,727.66a11.12,11.12,0,1,0-11.21-11v0a11.08,11.08,0,0,0,11.17,11Z"/><path class="cls-13" d="M732.65,725.1a11.08,11.08,0,1,0-22.15.24v1.92c5.48,3,12,4,19.45,4.86C731.13,730.35,732.67,727.39,732.65,725.1Z"/><path class="cls-7" d="M230.56,683.9s-63,5.11-88.86-12.13-52.79-50-52.79-50"/><path class="cls-8" d="M62.47,638.94,85.78,653.3c9.84,4.5,23-1.28,29.3-12.79A22.29,22.29,0,0,0,114,615.17L87.43,585.75a5.39,5.39,0,0,0-7.59.69l0,0a1.3,1.3,0,0,0-.19.22A6.16,6.16,0,0,0,79,595l4.77,5a19.54,19.54,0,0,0-3.19-1L61,594.54c-1.28,1.35-3.17-1.84-3.75,0-.1,2.26-.25,4.51-.42,6.78v.29a.74.74,0,0,1,0,.21l5.28,2.34a29.66,29.66,0,0,0-3.51,3.49l-2.45,1.57a152.93,152.93,0,0,0-.52,25.41,36.82,36.82,0,0,0,5.22,3.07,1.12,1.12,0,0,1,.76,1"/><path class="cls-14" d="M19.32,861.09l-4.53,54.33L144.57,912l-7.38-54.68Z"/><path class="cls-15" d="M56.35,838c0-1.76,0-3.51-.16-5.27V832a4.75,4.75,0,0,1,4.9-4.58c3.55-.14,3.23-.17,6.77-.3,4.81,0,9.63-.08,14.45-.16.49,0,.54-.36.73-.65.53.66,1.28.44,1.89.44,3.11,0,5.12.09,8.28.12a4.25,4.25,0,0,1,4.46,3.84,49.65,49.65,0,0,1,.11,7.42c-.14,2.13-1,3.5-3.07,3.63a2.41,2.41,0,0,0-.8-.1,50,50,0,0,1-8.21.38c-5.42.22-10.87.25-16.27.33l-4.72.12c-2.74,0-1.55.06-4.23.14A4.78,4.78,0,0,1,56.35,838Z"/><path class="cls-16" d="M83.46,913.69a7.73,7.73,0,0,0,.21-1.51c-.31-5.62,0-11-.09-16.77s0-11.51,0-17.32a36.68,36.68,0,0,1,.22-6.71.8.8,0,0,1,.33.67,58.24,58.24,0,0,1,.37,7c.27,4.48.58,8.86.58,13.33,0,2.47.37,4.93.48,7.39.18,4.11.32,8.19.45,12.29a1.48,1.48,0,0,0,1.11,1.5A9.59,9.59,0,0,1,83.46,913.69Z"/><path class="cls-16" d="M102,913.15a2,2,0,0,0,.2-.62V895c0-3.68-.07-7.67-.12-11.06s0-6.83,0-10.24v-5.91a.76.76,0,0,1,.44.85c0,3.75.3,7.51.46,11.25.15,3.18.3,6.4.49,9.56.42,7.26.69,14.52,1,21.74,0,.89.2,1.63,1.2,1.87A11.6,11.6,0,0,1,102,913.15Z"/><path class="cls-16" d="M54.2,914.32v-5.91c0-6.81-.17-13.64-.17-20.47v-13.8a5.26,5.26,0,0,1,.39-3.13,24.19,24.19,0,0,1,.37,3.18l.66,14.56.67,13.76c.19,3.91.18,7.83.58,11.74A4.26,4.26,0,0,1,54.2,914.32Z"/><path class="cls-16" d="M119.52,912.61c.36-.38,1-.47,1-1.27V885.75c0-2.91-.11-5.83-.17-8.76l.26-.45.74.34a4.37,4.37,0,0,0,.26,2.32,13.9,13.9,0,0,0,.1,4c.17,4.66.22,9.08.51,14.07s.28,9.86.87,14.82c0,.38-.22.48-.39.66A6.94,6.94,0,0,1,119.52,912.61Z"/><path class="cls-16" d="M111.45,913c-.32-3.18-.11-6.4-.13-9.59V890.24c0-4.27-.09-8.59,0-12.79,0-.7-.39-1.58.35-2.29a1.39,1.39,0,0,1,.32,1.09c.32,6.32.62,12.62,1,18.93.2,4,.47,8.07.57,12.14a29.63,29.63,0,0,1,0,5.65Z"/><path class="cls-16" d="M63,914.14c1-1.91.32-3.93.41-5.86.1-2.78.06-5.46,0-8.17-.09-6.91.19-13.83,0-20.74,0-.38-.13-.86.41-1.12.57.89.24,2,.3,3,.27,4.79.62,9.59.87,14.39q.49,8.58.87,17.17c0,.49-.09,1,.55,1.28A8.34,8.34,0,0,1,63,914.14Z"/><path class="cls-16" d="M93,913.38c-.09-.15-.25-.3-.24-.46V875.53c0-.33,0-.65.49-.8.13,2.3.27,4.55.38,6.83l.85,18.24c.17,4.07.38,8.13.53,12.19,0,.59,0,1,.63,1.28A4.83,4.83,0,0,1,93,913.38Z"/><path class="cls-16" d="M73.23,886.2a9.45,9.45,0,0,1,.27,3.43q.73,12,1.47,24.16a2.42,2.42,0,0,1-2,.13c-.41-.29-.29-.73-.31-1.13,0-3.27.19-6.56.08-9.83-.17-4.8.33-9.56.08-14.35a3.74,3.74,0,0,1,.42-2.56Z"/><path class="cls-16" d="M35.73,905.9c.1-6.55,0-13.07,0-19.61v-16c0-.5-.49-1.1.1-1.63a2.38,2.38,0,0,1,.31,1.38c.21,5.29.44,10.47.65,15.53s.46,10.08.7,15.12c.25,4.63.5,9.22.74,13.81a1.91,1.91,0,0,1-2.55-.19C35.93,911.46,35.75,908.73,35.73,905.9Z"/><path class="cls-16" d="M45,913.63V897.55c0-5.27-.09-10.57,0-15.84a41.66,41.66,0,0,1,.14-7.15,14.41,14.41,0,0,1,.54,4.71c.43,8.57.93,17.09,1.28,25.67a74,74,0,0,1,.26,9.3,1.88,1.88,0,0,1-2.29,0A2.54,2.54,0,0,0,45,913.63Z"/><path class="cls-16" d="M24.18,908c.51-4.6.75-9.21,1.08-13.77.43-5.45.8-10.9,1.21-16.36,0-.35-.19-.82.32-1.07.3.34.15.71.15,1.07-.1,3.37-.35,6.74-.28,10.1,0,4.66-.3,9.4-.33,14.07,0,3.4-.26,6.77-.32,10.23,0,.84-.43,1.77.37,2.45-1,.92-2.07.5-3.14.21C24.22,912.65,23.83,910.3,24.18,908Z"/><path class="cls-17" d="M63.87,876c-.69-.49-.46-1.09-.17-1.69A2.53,2.53,0,0,1,63.87,876Z"/><path class="cls-17" d="M63.6,877.76a1.74,1.74,0,0,1,.27-1.74C63.88,876.57,64.28,877.15,63.6,877.76Z"/><path class="cls-17" d="M73.23,886.1c-.5-.36-.55-.74,0-1.38A1.74,1.74,0,0,1,73.23,886.1Z"/><path class="cls-17" d="M45.15,874.48a1.5,1.5,0,0,1,0-1.21A.9.9,0,0,1,45.15,874.48Z"/><path class="cls-17" d="M73.23,884.26s-.25.07-.24,0a2.08,2.08,0,0,0,0-.25s.24,0,.24,0Z"/><path class="cls-16" d="M26.74,876l.06-.06.08.1h0Z"/><path class="cls-18" d="M120.34,855.64c-1.16-.29-1.94.34-2.8.68-1.73.69-2.44.47-3-1.28.29-.34.68-1.09,1.06-.37.58,1,1.16.59,1.79.32s1.75-.38,1.82-1c.12-1.47.66-1.1,1.38-.52.32.27.6.09.89,0,.58-.1.62.35.68.76C121.25,854.44,121.06,855.85,120.34,855.64Z"/><path class="cls-16" d="M63.23,923.17c-.17-.08-.41-.14-.3-.41a.14.14,0,0,1,0-.09c.29,0,.23.28.21.48Z"/><path class="cls-19" d="M19.51,852.29a35.5,35.5,0,0,0,.19,4.5c.23-.28.37-.85.69-.78,1.14.3,2.1-.46,3.21-.33,1.55.18,3.24.71,4.64.23,2-.65,3.71-.16,5.72-.27s4.11.09,6.12,0c3.65-.12,7.34-.24,11-.51.57,0,1.28-.36,1.69-.18,1.51.68,3,0,4.54,0a63.5,63.5,0,0,0,7.68-.21c2.17-.25,4.46.23,6.62.1,3.23-.14,6.54-.58,9.79-.5,2.44,0,4.87-.54,7.32.16H89c1-.93,3.15-.3,4.39-.28,1.76,0,3.58-.09,5.33-.18l5.25-.26a20,20,0,0,1,7.84.61c1.11.37,2.56,1,3.46.1a2,2,0,0,0,.4.27,2.56,2.56,0,0,0,3.47-.86c.16-.29.29-.67.61-.71a.58.58,0,0,1,.32,0,3.5,3.5,0,0,1,2.46,1.28c1.19-.62,2.55-.78,3.69-1.47a.4.4,0,0,1,.37,0c1.08,1.1,2.46.56,3.59.44a10.38,10.38,0,0,0,3.51-.25,2.3,2.3,0,0,1,2.84.84c.35-1.67-.16-3.35.14-5,.08-.64-.6-.78-1.08-.86-7.68-1.27-15.28-2.94-22.94-4.22-2.89-.48-5.77-.94-8.67-1.36-2.39-.36-5.35-.35-7.46-1.63a3,3,0,0,0-.79-.11,48,48,0,0,1-8.21.39c-5.45.21-10.89.27-16.29.35l-4.7.1c-2.74.1-5.41.15-8.1.2-.69,1-1.87.82-2.8,1.07-7.16,1.76-14.39,3.3-21.57,5l-8.35,2a25.93,25.93,0,0,0-5.12,1.28C19.84,851.54,19.41,852,19.51,852.29Z"/><path class="cls-20" d="M67.41,487.36a7.57,7.57,0,0,0-7.11,8h0c.13,8.7.38,17.4.6,26.1q.45,16.77.83,33.59l1.17,46.34,1,40.78-.12.11h0v.36a5.91,5.91,0,0,0,1.16-.27,7.8,7.8,0,0,1-1.16.27c.09.7-.25,1.46.1,2.16v.3a.48.48,0,0,0,0,.68l0,0a62.87,62.87,0,0,0,.19,6.58v.93c.73.14,1.28,0,1.2-1a1.19,1.19,0,0,1,.14-.61,1,1,0,0,0-.14.61c.09.91-.47,1.06-1.2,1a4.3,4.3,0,0,0,.08,2.25.39.39,0,0,0,0,.26,1.18,1.18,0,0,0,.38.42.79.79,0,0,0,.86,0,7.55,7.55,0,0,1,1.28-.54,9.62,9.62,0,0,0-1.28.54.79.79,0,0,1-.86,0,1.27,1.27,0,0,1-.38-.42,31.15,31.15,0,0,0,.09,5.11c0,.64-.31,1.28.09,2,.14,6.18.28,12.48.39,18.75q.49,18.29,1,36.57.5,18.68.94,37.38c0,.39,3.57,71,3.54,71.36H75c.5,0,9.62,0,9.83-.31-.27-10.56-3.51-91.88-3.84-102.44Q80.6,707.6,80.19,691c-.12-4.07-.23-8.15-.37-12.21a1.44,1.44,0,0,0,0-1.28c-.88-.48-1.47.12-2.32.38s-1.66.63-2.48,1c.82-.32,1.74-.72,2.48-1s1.44-.86,2.32-.38a71,71,0,0,0-.09-7.44q-.84-33.52-1.65-67-.64-23.7-1.15-47.44-.54-19.19-1.05-38.25L75.34,495v-.1a7.68,7.68,0,0,0-7.75-7.58A.28.28,0,0,1,67.41,487.36Zm1.18,165.57a.59.59,0,0,1-.13.18.6.6,0,0,0,.09-.22.22.22,0,0,0,0-.16v.16Zm-1.28,2.75a.54.54,0,0,1,.43,0,.61.61,0,0,0-.46,0Zm.34,1.78v0Zm-2.23,4.08-.17-.19Zm.17-1.37.08.09Zm3.57-.51a2.42,2.42,0,0,1-.29.79,2.18,2.18,0,0,0,.29-.82,1.32,1.32,0,0,0-.1-.76,1.32,1.32,0,0,1,.1.76Zm2.2,17.84a.23.23,0,0,0,.28-.14.22.22,0,0,1-.28.1.47.47,0,0,1-.32-.23.47.47,0,0,0,.32.23Zm.45-.42c.08-.15.15-.33.26-.5a3.4,3.4,0,0,0-.26.5l-.08.24a.79.79,0,0,1,.08-.3Zm.23-.59c.26-.57.49-1.09.77-1.64a2.54,2.54,0,0,1,.19-.7c-.08.23-.1.49-.19.7-.22.55-.47,1.09-.72,1.63Zm1-2.56a.66.66,0,0,1,.41-.32.61.61,0,0,0-.4.35Zm.65-.33a1.56,1.56,0,0,1,1.06.76,1.59,1.59,0,0,0-1.06-.72Zm1.81,3.84c-.08.16-.13.33-.22.51.07-.17.15-.31.22-.46Zm-.39.82-.08.07a.54.54,0,0,0,0,.18v-.18Zm2.25,1.8v0Zm.31.84.23.45Zm.36.77a4.66,4.66,0,0,1,.14.91,3.35,3.35,0,0,0-.13-.84l-.09-.11.09.11Zm0,1.65a1.9,1.9,0,0,1-.28.74,1.94,1.94,0,0,0,.28-.7Zm-5.66-2.56c.32-.51.36-.84,0-1,.36.21.34.54,0,1a2.86,2.86,0,0,0-.39,2.68,3.7,3.7,0,0,0,.48.87l.26.29-.26-.29a3.7,3.7,0,0,1-.48-.87,2.86,2.86,0,0,1,.39-2.68Zm-2.86-4.09V677a4.84,4.84,0,0,0,.52,1.37,4.84,4.84,0,0,1-.52-1.37Zm0-.59v0Zm0-.15.09-.22a1.15,1.15,0,0,0-.1.23Zm.11-.26a1.29,1.29,0,0,1,.61-.42,1.61,1.61,0,0,1,.38-.08l.15,1.28-.15-1.28a1,1,0,0,0-.38.08,1.09,1.09,0,0,0-.62.45Zm-4.82-14.8v-.14a.54.54,0,0,0,0,.18ZM67,655.76l.29-.08Zm-2-5.12a5.24,5.24,0,0,0,.3-.78,4.37,4.37,0,0,1-.31.78Zm-.61,1v0Zm1-3.28a4.54,4.54,0,0,0-.43-1.13,3.76,3.76,0,0,1,.41,1.15Zm.77-6a1,1,0,0,0-.86.09c.31-.13.63-.23.82,0Z"/><path class="cls-16" d="M136.29,858.11,18.4,861.69l.17-5.66,117-3.38Z"/><path class="cls-8" d="M50.63,596.42a6.63,6.63,0,0,1,1.85-2.06c5.24-3.75,14.41,1.13,19.43,3.7l.37.21a5.4,5.4,0,0,1,1.77,7.43h0a6.26,6.26,0,0,1-7.47,3.67l-7-2.91c-2.56-1.07-8.35-2.3-9.46-5.11A5.56,5.56,0,0,1,50.63,596.42Z"/><path class="cls-8" d="M49.35,612.11A6.68,6.68,0,0,1,51.22,610c5.23-3.74,14.4,1.13,19.43,3.71l.37.2a5.41,5.41,0,0,1,1.76,7.43,6.27,6.27,0,0,1-7.47,3.7l-7-2.9c-2.56-1.08-8.36-2.31-9.48-5.12A5.71,5.71,0,0,1,49.35,612.11Z"/><path class="cls-8" d="M49.62,626.24a6.8,6.8,0,0,1,1.87-2.09c5.23-3.75,14.4,1.14,19.43,3.71l.37.2a5.42,5.42,0,0,1,1.76,7.44,6.28,6.28,0,0,1-7.49,3.63c-2.32-1-4.65-2-7-2.92-2.56-1.07-8.35-2.3-9.48-5.11A5.66,5.66,0,0,1,49.62,626.24Z"/><path class="cls-7" d="M193.93,829.61s-11.51-40.93-11-72,38.27-63.28,38.27-63.28"/><path class="cls-21" d="M248.19,861.62a4.32,4.32,0,1,0,.24-6.11,1.36,1.36,0,0,0-.24.24A4.15,4.15,0,0,0,248.19,861.62Z"/><path class="cls-22" d="M201.3,887.9l-16-30.12a6.14,6.14,0,0,1,2.54-8.3h0l60-31.79a6.16,6.16,0,0,1,8.33,2.56l16,30.12a6.15,6.15,0,0,1-2.56,8.31l-60,31.79a6.17,6.17,0,0,1-8.34-2.55Z"/><path class="cls-21" d="M214.69,880.11l-15.43-29a1.41,1.41,0,0,1,.58-1.91h0l49.66-26.31a1.42,1.42,0,0,1,1.91.58h0l15.43,29a1.42,1.42,0,0,1-.59,1.91h0l-49.66,26.3a1.39,1.39,0,0,1-1.88-.53Z"/><path class="cls-8" d="M175.92,834q4,13.41,7.67,26.86,1.95,7.06,3.84,14.07c1,3.84,1.48,8.69,4.32,11.73,3.33,3.56,11.85,1,10.24-4.51L197.23,866a24.58,24.58,0,0,0,4.77-.25l5.7,19.32c.68,2.32,3.64,3.32,6.55,2.23s4.74-3.84,4-6.22l-5.7-19.33a28.27,28.27,0,0,0,3.57-2.69l4.91,16.62c.68,2.32,3.63,3.32,6.54,2.23s4.74-3.84,4-6.22l-7.76-26.26a1.27,1.27,0,0,1-.67-1c-.06-.92-.07-1.86-.06-2.77a.83.83,0,0,0-.09-.46l.11.13c.13-4.92,3.42-10.7,3.93-15.62l-13.46-12c-4.65-5.11-13.46-6.84-22.21-3.55C180.27,814.37,173.3,825.07,175.92,834Z"/><path class="cls-23" d="M725.58,824l-15.52,75.11s-15.86-11.51-34.66-9.89c-14.47,1.28-26,12.09-58.93,9-31.2-3-59-18.28-59-18.28l19.42-75.7,25.58,14.15s19.1,8,34.35,2.79S684.77,794.73,725.58,824Z"/><path class="cls-24" d="M580.37,875.76l7.06-30.25"/><path class="cls-24" d="M594.36,881.07l12.46-53"/><path class="cls-24" d="M607.59,883.13l14.07-50"/><path class="cls-24" d="M622.11,884.63l11-48.44"/><path class="cls-24" d="M634.54,883.27,646.94,829"/><path class="cls-24" d="M645.22,881.52l12.32-58.06"/><path class="cls-24" d="M658.37,878.32,670,822.53"/><path class="cls-24" d="M671.75,876.58l11.62-55.82"/><path class="cls-24" d="M685.69,877.45l11.6-55.78"/><path class="cls-8" d="M630,794.49c-9-2.56-17.64-.14-21.85,5.38L595.72,813c.92,4.85,4.68,10.34,5.22,15.24l.1-.13a3.53,3.53,0,0,0,0,.46c.09.91.16,1.83.17,2.76a1.29,1.29,0,0,1-.58,1.09l-5.55,26.86c-.5,2.38,1.56,5,4.55,5.86s5.86-.4,6.34-2.76l3.51-17a28.78,28.78,0,0,0,3.78,2.41l-4.08,19.67c-.5,2.38,1.56,5,4.55,5.86s5.85-.4,6.4-2.76l4.08-19.74a24.53,24.53,0,0,0,4.77-.14l-3.4,16.46c-1.16,5.63,7.55,7.46,10.56,3.64,2.56-3.27,2.56-8.13,3.33-12,.87-4.81,1.76-9.61,2.64-14.42q2.57-13.74,5.38-27.42C649.26,807.82,641.42,797.74,630,794.49Z"/><path class="cls-3" d="M197.61,685.18c0-89.4,44.41-176.19,101.9-238.11,148.21-159.7,313.24,70.79,313.24,245.44,0,128.9-102.06,160.23-204.18,160.23S197.61,814,197.61,685.18Z"/><path class="cls-25" d="M334.73,505.24s-.75-21.88,23.49-21.74"/><path class="cls-25" d="M480,504.54s3.11-21-21.13-20.72"/><path class="cls-26" d="M408.88,584.47c19,0,34.44-5,34.44-11.16s-15.42-11.17-34.44-11.17-34.44,5-34.44,11.17S389.86,584.47,408.88,584.47Z"/><path class="cls-27" d="M374.76,547.47a20.33,20.33,0,1,0-20.28-20.38v0A20.32,20.32,0,0,0,374.76,547.47Z"/><path class="cls-26" d="M369.46,532.45c7.74,5.91,16.47-2.85,10.59-10.62C372.31,515.93,363.59,524.7,369.46,532.45Z"/><path class="cls-27" d="M443,547.47a20.33,20.33,0,1,0-20.27-20.39v.06A20.31,20.31,0,0,0,443,547.47Z"/><path class="cls-26" d="M437.78,532.45c7.74,5.91,16.47-2.86,10.57-10.62C440.55,515.93,431.82,524.7,437.78,532.45Z"/><path class="cls-28" d="M358.47,513.78l-12.42-7.93L356.28,518c-.24.56-.43,1.11-.62,1.64l-11.26-3.28,10.23,6.86c-.39,1.61-.53,2.67-.53,2.67,9.53-20.77,22.09-20.1,25.68-19.94C368.37,504.46,362.13,508.1,358.47,513.78Z"/><path class="cls-28" d="M458.61,513.39l12.05-8.47L461,517.5c.27.55.49,1.07.71,1.6l11.15-3.84-9.94,7.32c.46,1.58.65,2.63.65,2.63-10.43-20.39-23-19.11-26.54-18.83C448.34,504.49,454.74,507.84,458.61,513.39Z"/><path class="cls-4" d="M447.05,679.66H370.7a12.11,12.11,0,0,0-8.58,3.56l-15.85,15.85a12.14,12.14,0,0,0-.77,16.31l54,65.46a12.1,12.1,0,0,0,18.72,0l54.07-65.46a12.13,12.13,0,0,0-.78-16.31l-15.85-15.85A12.12,12.12,0,0,0,447.05,679.66Z"/><path class="cls-14" d="M436,690H382.11a14.9,14.9,0,0,0-10.32,4.11L364.68,701c-5.33,5.11-5.72,11.6-.94,17.16l39,45.39a8.26,8.26,0,0,0,11.65.89,8.4,8.4,0,0,0,.9-.89l39.09-45.39c4.79-5.56,4.38-12.06-.94-17.16l-7.17-6.82A14.94,14.94,0,0,0,436,690Z"/><path class="cls-4" d="M413.7,697.05l3.14,9.59a4.4,4.4,0,0,0,4.17,3h10.1a4.39,4.39,0,0,1,2.56,7.93l-8.15,5.95a4.38,4.38,0,0,0-1.58,4.9l3.1,9.6a4.39,4.39,0,0,1-6.75,4.92L412.1,737a4.4,4.4,0,0,0-5.11,0L398.8,743a4.39,4.39,0,0,1-6.75-4.92l3.11-9.6a4.4,4.4,0,0,0-1.64-4.9l-8.19-5.92a4.39,4.39,0,0,1,2.56-7.93H398a4.38,4.38,0,0,0,4.15-3l3.15-9.6a4.39,4.39,0,0,1,8.4,0Z"/><path class="cls-2" d="M357.12,17.85c41.81.94,74.5,13.19,100.07,39.44,3.11,3.17,5.61,3.34,9.07.47,40.06-33.17,103.61-22.47,127.63,24.66,1.86,3.66,4.16,5.21,8.73,5.55,42.53,3.29,69.89,29.56,77.27,63.23,7.08,32.34.93,58-27.94,77.71a115.25,115.25,0,0,1-14.63,7.81c-2.89,1.41-4.11,3.19-3.84,6.14,4.82,42.52-30,81.95-77.22,87.71a100.15,100.15,0,0,1-56.82-9.17c-4.53-2.18-6.18-1.78-9.35,1.83-20.92,23.78-47.62,40.34-79.16,46.11-38.91,7.12-92.67-2.25-116.68-36.86-6.05-8.74-6.24-16-17.56-14.18-8.83,1.46-17.3,2.69-26.3,2.11-17.51-1.12-34.4-7.31-49.16-16.7C173,285.8,150.91,256,143.67,223.12,131.09,165.86,174,113.42,233.94,105c3.18-.44,5-1.75,5.79-4.69,12.58-44.47,45.65-69.74,94.5-79.87C342.73,18.76,351.62,18.45,357.12,17.85Z"/><path class="cls-29" d="M415.47,205.51s-12.59-8.95-24.06-16.72a37.8,37.8,0,0,1-14.94-22.46c-2.39-9.78-4.49-21.36-2.32-25.58"/><path class="cls-8" d="M361.57,113.56a2.56,2.56,0,1,1,5.11-.27l.46,8.71a11.17,11.17,0,0,1,2.05-.87l-.56-10.44a2.56,2.56,0,0,1,5.11-.27l.57,10.44a10,10,0,0,1,1.92.56l-.48-9a2.56,2.56,0,0,1,5.12-.27l.81,15a8,8,0,0,1,.25,1.45l.82-2.92a2.56,2.56,0,0,1,3.08-1.69h0a2.26,2.26,0,0,1,1.86,2.61l0,.16-4.33,15.56a2.44,2.44,0,0,1-1.14,1.4,9.74,9.74,0,0,1-8.8,6.29c-5.32.28-9.89-3.41-10.16-8.21L362.59,130a1,1,0,0,0,0-.25v-.12Z"/><path class="cls-3" d="M392.74,221c0-45.8,22.75-90.25,52.2-122,76-81.78,160.4,36.29,160.4,125.75,0,66-52.28,78.7-104.58,78.7S392.74,287,392.74,221Z"/><path class="cls-30" d="M353.36,210.36c-11.52,38.86-43.92,21.74-43.92,21.74"/><path class="cls-3" d="M288.35,118.53l-13.76-.38a45.58,45.58,0,0,0-46.86,44.26h0l-.09,3.2c-.34,3.18-.55,6.39-.63,9.49l-2.4,84.52a45.59,45.59,0,0,0,44.18,46.93h.14l13.75.4a45.6,45.6,0,0,0,46.87-44.27v0l.09-3.18c.35-3.19.54-6.4.63-9.49l2.39-84.54a45.58,45.58,0,0,0-44.21-46.92Z"/><path class="cls-28" d="M284.49,196.35a3.63,3.63,0,0,1-1.92-6.75c2.29-1.42,3.58-3,8-2.8a24,24,0,0,1,11.06,3.41,3.65,3.65,0,0,1-2.45,6.54l-3-1.07a13.83,13.83,0,0,0-8.58-.25Z"/><path class="cls-31" d="M264.42,155.63s6.61,3.64,14.2,8"/><path class="cls-31" d="M322.06,156.44,308,163.61"/><path class="cls-32" d="M285.14,170.08a20.81,20.81,0,1,1-20.26-21.35h0A20.81,20.81,0,0,1,285.14,170.08Z"/><path class="cls-32" d="M340.92,171.56a20.81,20.81,0,1,1-20.25-21.36,20.81,20.81,0,0,1,20.25,21.36Z"/><path class="cls-32" d="M285.17,167.6s7-9.21,13.54.36"/><path class="cls-27" d="M302.83,176.09c.06-6.28,5.55-11.32,12.25-11.24s12.09,5.23,12,11.51"/><path class="cls-27" d="M255.86,175.38c.07-6.28,5.59-11.32,12.33-11.25s12.14,5.23,12.08,11.51"/><path class="cls-27" d="M450.79,137.72c0-7.19-6.22-13-13.9-13s-13.89,5.83-13.89,13"/><path class="cls-28" d="M440.26,137.72a6.05,6.05,0,0,0-12.09,0"/><path class="cls-27" d="M468.48,137.72c0-7.19,6.25-13,14-13s14,5.83,14,13"/><path class="cls-28" d="M483.25,137.72a6.05,6.05,0,0,0-12.09,0"/><path class="cls-28" d="M467.68,162.28a4.47,4.47,0,0,0,4.1-6.87,20.33,20.33,0,0,0-16.12-9.9c-7.77-.56-12.28,2.3-14.89,5.4a4.48,4.48,0,0,0,3.12,7.33l5.51-.82a20.13,20.13,0,0,1,11.52,1.69Z"/><path class="cls-28" d="M271.2,164a6.82,6.82,0,0,0,8.88,9.45A11.73,11.73,0,0,0,271.2,164Z"/><path class="cls-28" d="M318,165.4a6.82,6.82,0,0,0,8.88,9.45A11.69,11.69,0,0,0,318,165.4Z"/><path class="cls-33" d="M561.16,135.07s4.78,49.58-40.93,65.84"/><path class="cls-30" d="M202.48,205.09c5.71,32.81,37.1,32.09,37.1,32.09"/><path class="cls-8" d="M192.52,188.37a1.62,1.62,0,0,1,3.16-.61l1,5.42a7,7,0,0,1,1.2-.73l-1.28-6.5a1.61,1.61,0,0,1,3.15-.6l1.28,6.5a5.56,5.56,0,0,1,1.28.18l-1.09-5.59a1.61,1.61,0,0,1,3.16-.6l1.8,9.3a4.57,4.57,0,0,1,.3.88l.25-1.89a1.65,1.65,0,0,1,1.78-1.28h0a1.43,1.43,0,0,1,1.4,1.46.37.37,0,0,1,0,.11l-1.36,10.14a1.55,1.55,0,0,1-.59,1,6.14,6.14,0,0,1-5,4.7,5.86,5.86,0,0,1-7.08-4.26l-1.42-7.38v-.15a.11.11,0,0,1,0-.08Z"/><path class="cls-8" d="M366,195.93a1.62,1.62,0,0,0-3-1.28h0l-2.11,5.12a6.24,6.24,0,0,0-1-1l2.56-6.11a1.62,1.62,0,1,0-3-1.28l-2.55,6.13a6.94,6.94,0,0,0-1.28-.08l2.16-5.26a1.62,1.62,0,0,0-3-1.28h0l-3.61,8.76a5.43,5.43,0,0,0-.46.81l.12-1.91a1.67,1.67,0,0,0-1.49-1.66h0a1.44,1.44,0,0,0-1.66,1.16s0,.08,0,.12L347,208.45a1.58,1.58,0,0,0,.39,1.08,6.18,6.18,0,0,0,3.95,5.59,5.89,5.89,0,0,0,7.79-2.78L362,205.4a.43.43,0,0,0,0-.16h0Z"/><path class="cls-8" d="M574.77,112.75a2.57,2.57,0,0,0-5.12-.51l-.87,8.68a10.31,10.31,0,0,0-2-1l1.05-10.39a2.55,2.55,0,0,0-2.65-2.46,2.58,2.58,0,0,0-2.39,1.94l-1.06,10.4a10.74,10.74,0,0,0-1.94.46l.91-9a2.56,2.56,0,0,0-5-.51l-1.47,14.91a6.56,6.56,0,0,0-.34,1.44l-.68-3a2.54,2.54,0,0,0-3-1.83h0a2.26,2.26,0,0,0-2,2.51.88.88,0,0,0,0,.16l3.61,15.76a2.34,2.34,0,0,0,1.06,1.45,9.72,9.72,0,0,0,8.49,6.7c5.31.54,10.06-2.94,10.53-7.67l1.2-11.81v-.37Z"/><path class="cls-3" d="M470,342.75A155.85,155.85,0,0,0,488.37,325a16.73,16.73,0,0,1,1.85-1.82l2.25-24.05-27.69-3.34Z"/><path class="cls-3" d="M505.1,323.46a100.25,100.25,0,0,0,23.61,7.14l3-35.68-29.28,1.71Z"/><path class="cls-3" d="M278.91,318.29c8.29-.08,9,6.59,14.46,14.43l.56.77,5-43.14-22.51,7.49Z"/><path class="cls-3" d="M254.42,320.78a109.41,109.41,0,0,0,16.06-1.43l2.13-20.58-20.92-.19Z"/><path class="cls-28" d="M425.09,130.33l-8.52-5.4,7,8.31c-.17.39-.3.76-.44,1.13l-7.75-2.32,7,4.7a16,16,0,0,0-.35,1.83c6.53-14.24,15.14-13.78,17.61-13.68C431.85,123.92,427.54,126.4,425.09,130.33Z"/><path class="cls-28" d="M493.72,130l8.28-5.8-6.66,8.61c.18.38.33.74.48,1.1l7.68-2.65-6.82,5a18.6,18.6,0,0,1,.45,1.82c-7.17-14-15.75-13.12-18.2-12.9C486.69,123.93,491.08,126.21,493.72,130Z"/><path class="cls-34" d="M487.75,117.85s-3.93-14.67-19.45,9.11"/><path class="cls-34" d="M450.89,127.32s-12.27-21.11-18.73-8.95"/></g></svg>