<?xml version="1.0" encoding="utf-8"?>
<!-- Generator: Adobe Illustrator 25.2.1, SVG Export Plug-In . SVG Version: 6.00 Build 0)  -->
<svg version="1.1" id="Layer_1" xmlns="http://www.w3.org/2000/svg" xmlns:xlink="http://www.w3.org/1999/xlink" x="0px" y="0px"
	 viewBox="0 0 712 739.2" style="enable-background:new 0 0 712 739.2;" xml:space="preserve">
<style type="text/css">
	.st0{fill:#FBAD18;}
	.st1{fill:#FFCB05;}
	.st2{fill:none;stroke:#0F8AB2;stroke-width:15.8619;stroke-linecap:round;stroke-miterlimit:10;}
	.st3{fill:#A2CCED;}
	.st4{fill:#00A1CD;}
	.st5{fill:#5652A3;}
	.st6{fill:#F4E1B0;}
	.st7{fill:#5A3513;}
	.st8{fill:none;stroke:#F4E1B0;stroke-width:8.3878;stroke-miterlimit:10;}
	.st9{fill:none;stroke:#0D4060;stroke-width:3.5249;stroke-linecap:round;stroke-miterlimit:10;}
	.st10{fill:#504B48;}
	.st11{fill:#00A0CC;}
	.st12{fill:#FFFFFF;}
	.st13{fill:none;stroke:#0D4060;stroke-width:9.6558;stroke-linecap:round;stroke-miterlimit:10;}
	.st14{fill:#0D4060;}
</style>
<polygon class="st0" points="317.2,733.1 345.2,733.1 345.2,612.3 571.1,612.3 571.1,733.1 599.8,733.1 599.8,601 599.3,601 
	599.3,575.2 317.2,575.2 317.2,601.3 "/>
<path class="st1" d="M326,517.7h262.7c18.1,0,32.9,14.7,32.9,32.8l0,0c0,18.1-14.7,32.8-32.9,32.8H326c-18.1,0-32.9-14.7-32.9-32.8
	l0,0C293.1,532.4,307.8,517.7,326,517.7z"/>
<path class="st2" d="M237.6,334.9c0,0-36.8,36.3-57.7,39.1s-54-11.6-54-11.6"/>
<path class="st3" d="M50.8,366c-2.6-1-3.8-4-2.8-6.6c0.1-0.2,0.1-0.3,0.2-0.5c0.7-2.9,3.5-4.8,6.5-4.4l17.2,4.5
	c-0.2-1.7-0.2-3.4,0-5l-20.6-5.5c-2.6-1.1-3.8-4-2.7-6.6c0-0.1,0.1-0.2,0.1-0.2c0.7-2.9,3.5-4.8,6.5-4.5l20.6,5.5
	c0.8-1.3,1.7-2.6,2.7-3.8l-17.6-4.7c-2.5-1.1-3.7-4-2.7-6.6c0-0.1,0.1-0.2,0.1-0.3c0.7-2.9,3.5-4.8,6.4-4.5l29.5,7.9
	c1,0,2,0.1,3,0.3l-4.9-3.5c-2.1-2.1-2.3-5.5-0.6-7.9l0,0c1.1-2.5,4-3.6,6.5-2.5c0.2,0.1,0.4,0.2,0.5,0.3l26.2,19.6
	c1,0.9,1.7,2.2,1.7,3.5c5.6,4.8,7.6,14.1,4.4,23.4c-4.1,11.9-15.2,19.6-24.7,17.1L83,374.8l-0.5-0.2h-0.2L50.8,366z"/>
<polyline class="st4" points="378.4,530.8 400.8,688.2 427.8,688.2 450.4,531.3 "/>
<polygon class="st5" points="424.1,726.3 405.5,726.3 396,654.2 432.7,654.2 "/>
<path class="st6" d="M18.7,308.6h42.1c8.2,0,14.9,6.7,14.9,14.9l0,0v46.6c0,9.2-7.5,16.7-16.7,16.7l0,0H20.5
	c-8.6,0-15.5-7-15.5-15.5l0,0v-48.9C5,314.8,11.2,308.6,18.7,308.6L18.7,308.6z"/>
<ellipse class="st7" cx="40.5" cy="316" rx="28.6" ry="5.3"/>
<path class="st8" d="M74.9,324.7c10.9-0.5,20.2,8,20.6,19c0.5,10.9-8,20.2-19,20.6c-0.6,0-1.1,0-1.7,0"/>
<path class="st9" d="M43.2,292.7c-7.5-1.9-12.5-13.4-13.4-21.1c-1.2-10.6,6.7-15.5,12.8-22.5c7.2-7.9,10-18.9,7.3-29.2
	c-2.6-10.6-9.2-20.1-20.4-22.4"/>
<path class="st9" d="M21.7,226.1c5.2,8.5,2,16.5-3.2,23.9c-3,4.2-5.5,10.1-2.4,14.3"/>
<path class="st9" d="M58.1,277.5c0,0-10.6-6.3,0-20.1"/>
<path class="st10" d="M375.3,734.1c0.1-23.3,17.8-42.2,39.7-42.2c21.9,0,39.9,18.9,39.8,42.2"/>
<polyline class="st4" points="472.4,530.8 494.9,688.2 521.9,688.2 544.5,531.3 "/>
<path class="st11" d="M212.5,351.1c0-105.9,52.6-208.8,120.7-282.1c175.6-189.2,371.2,84,371.2,290.9
	c0,152.7-120.9,189.8-241.9,189.8C341.5,549.6,212.5,503.8,212.5,351.1"/>
<path class="st12" d="M465.8,197.9c0-19.5,15.8-35.3,35.3-35.3s35.4,15.8,35.4,35.3"/>
<path class="st12" d="M374.2,197.9c0-19.5,15.8-35.3,35.3-35.3s35.4,15.8,35.4,35.3"/>
<path class="st13" d="M495.8,143.5c22.8-12.4,33.2,8.6,33.2,8.6"/>
<path class="st13" d="M417.3,143.1c-22.7-12.4-30.3,9-30.3,9"/>
<path class="st14" d="M475.7,197.9c0-8.4,6.8-15.3,15.3-15.3c8.4,0,15.3,6.8,15.3,15.3"/>
<path class="st14" d="M384.1,197.9c0-8.4,6.8-15.3,15.3-15.3c8.4,0,15.3,6.8,15.3,15.3"/>
<path class="st14" d="M501.3,230.2c0,0-3.1,24.5-43.2,25.3c-40.1,0.8-48.2-25.3-48.2-25.3H501.3z"/>
<path class="st2" d="M670.1,354.7c0,0,0,122.7-109.8,141"/>
<path class="st3" d="M507.9,541.8c-2.6,0.7-5.2-0.9-5.9-3.5c0-0.1-0.1-0.2-0.1-0.4c-1-2.7,0.2-5.8,2.8-7.1l16.8-6.1
	c-1.1-1.2-2-2.6-2.7-4l-20.1,7.4c-2.6,0.7-5.2-0.9-5.9-3.4c0-0.1-0.1-0.3-0.1-0.4c-1-2.7,0.2-5.8,2.8-7.1l20.1-7.4
	c-0.1-1.5-0.2-3-0.1-4.5l-17.3,6.3c-2.6,0.6-5.2-0.9-5.9-3.6c0-0.1,0-0.2-0.1-0.3c-1-2.7,0.2-5.8,2.8-7.1l28.8-10.5
	c0.8-0.6,1.7-1,2.7-1.4l-6.1-0.1c-2.9-0.4-5-2.9-4.9-5.7l0,0c-0.4-2.7,1.5-5.2,4.3-5.6c0.1,0,0.1,0,0.2,0l32.7,0.4
	c1.3,0,2.5,0.6,3.3,1.6c8.3,1.2,15,7.4,16.8,15.5c3.3,11.4-1.6,23.5-10.8,26.9l-22.8,8.3c-0.2,0-0.3,0-0.5,0h-0.2L507.9,541.8z"/>
<polygon class="st5" points="518.2,726.3 499.6,726.3 490.1,654.2 526.8,654.2 "/>
<path class="st10" d="M469.4,734.1c0.1-23.3,17.8-42.2,39.7-42.2c21.9,0,39.9,18.9,39.8,42.2"/>
</svg>
