<?xml version="1.0" encoding="utf-8"?>
<!-- Generator: Adobe Illustrator 25.2.1, SVG Export Plug-In . SVG Version: 6.00 Build 0)  -->
<svg version="1.1" id="Layer_1" xmlns="http://www.w3.org/2000/svg" xmlns:xlink="http://www.w3.org/1999/xlink" x="0px" y="0px"
	 viewBox="0 0 1044.4 871" style="enable-background:new 0 0 1044.4 871;" xml:space="preserve">
<style type="text/css">
	.st0{opacity:0.2;fill:#0B4060;enable-background:new    ;}
	.st1{fill:none;stroke:#0F8AB2;stroke-width:20.45;stroke-linecap:round;stroke-miterlimit:10;}
	.st2{fill:#A2CCED;}
	.st3{fill:#00A1CD;}
	.st4{fill:#ED1651;}
	.st5{fill:#504B48;}
	.st6{fill:#FFFFFF;}
	.st7{fill:#0D4060;}
	.st8{fill:none;stroke:#0F8AB2;stroke-width:12.11;stroke-linecap:round;stroke-miterlimit:10;}
	.st9{fill:none;stroke:#0D4060;stroke-width:4.04;stroke-linecap:round;stroke-miterlimit:10;}
	.st10{fill:none;stroke:#231F20;stroke-width:3.58;stroke-linecap:round;stroke-miterlimit:10;}
	.st11{fill:#56C5D0;}
	.st12{fill:none;stroke:#0D4060;stroke-width:6.12;stroke-linecap:round;stroke-miterlimit:10;}
</style>
<ellipse class="st0" cx="506.9" cy="804.6" rx="499.3" ry="24.6"/>
<g id="Layer_1-2">
	<path class="st1" d="M451.8,217.7c-1.1,144.8,90.4,179.9,90.4,179.9"/>
	<path class="st2" d="M424.5,145.3c0.4-3.4,3.4-5.9,6.9-5.5c2.8,0.3,5,2.4,5.5,5.1l0.7,21.3c1.6-0.8,3.3-1.5,5-2l-0.7-25.5
		c0.3-3.4,3.3-6,6.7-5.7c2.9,0.2,5.2,2.4,5.7,5.3l0.9,25.4c1.6,0.3,3.2,0.8,4.7,1.4l-0.7-21.9c0.3-3.4,3.2-6,6.7-5.8
		c2.9,0.2,5.3,2.4,5.7,5.3l1.2,36.5c0.3,1.2,0.5,2.4,0.6,3.6l2.1-7.1c1.1-3.1,4.4-4.8,7.6-4l0,0c3,0.5,5,3.4,4.4,6.4
		c0,0.1,0,0.3-0.1,0.4L476,216.5c-0.5,1.5-1.5,2.7-2.8,3.4c-3.6,8.9-12.2,14.8-21.8,14.9c-13,0.4-24-8.8-24.4-20.5l-1-28.9
		c0-0.2,0-0.4,0-0.6c-0.1-0.2,0-0.2,0-0.3L424.5,145.3z"/>
	<path class="st3" d="M475.4,441.1c-3.4-122.4,52-243,125.6-329.9c189.8-224.1,416.6,85.6,423.2,324.9
		c4.9,176.6-128.8,223.1-263.7,227S480.3,617.8,475.4,441.1z"/>
	<polyline class="st3" points="829.1,626 807.5,800.5 783.7,800.5 755,634.5 	"/>
	<polyline class="st3" points="724.7,622 703,796.5 679.3,796.5 650.7,630.4 	"/>
	<polygon class="st4" points="783.2,800.5 771.5,732.2 816.4,732.2 807.9,794.9 	"/>
	<polygon class="st4" points="678.9,800.5 667.2,732.2 712.1,732.2 703.6,794.9 	"/>
	<path class="st5" d="M726.5,804.6c0-23,18.6-41.6,41.6-41.6c23,0,41.6,18.6,41.6,41.6c0,0,0,0,0,0"/>
	<path class="st5" d="M705.5,804.6c-0.4-23-19.3-41.3-42.2-41c-22.5,0.3-40.6,18.5-41,41"/>
	<path class="st6" d="M642.3,216.6c0-18.2-15.7-33-35.1-33s-35.1,14.8-35.1,33"/>
	<path class="st7" d="M615.7,216.6c0.2-8.5-6.5-15.5-14.9-15.7c-8.5-0.2-15.5,6.5-15.7,14.9c0,0.3,0,0.5,0,0.8"/>
	<path class="st6" d="M676.2,216.6c0-18.2,15.8-33,35.3-33s35.3,14.8,35.3,33"/>
	<path class="st7" d="M713.6,216.6c0.2-8.5-6.5-15.5-14.9-15.7c-8.5-0.2-15.5,6.5-15.7,14.9c0,0.3,0,0.5,0,0.8"/>
	<path class="st7" d="M743.7,200.6l19.1-7.6l-17,13.4c0.2,0.8,0.4,1.5,0.5,2.2l16.6-2.1l-15.9,6.7c0.1,1.2,0.2,2.3,0.2,3.5
		c-8.9-28.1-26.7-31.9-31.8-32.4C731.8,184.7,739.8,192.6,743.7,200.6"/>
	<path class="st7" d="M555.4,206.5l16.6,2.1c0.2-0.7,0.3-1.4,0.5-2.2l-17-13.4l19.1,7.6c3.8-8,11.8-15.9,28.2-16.4
		c-5.1,0.5-23,4.2-31.8,32.4c0-1.2,0-2.3,0.2-3.5L555.4,206.5z"/>
	<path class="st8" d="M398.1,451.1c-27.9,94.4-106.7,52.8-106.7,52.8"/>
	<path class="st3" d="M240.3,228.1l-33.4-0.9c-61.1-1.7-112.1,46.4-113.8,107.5l-0.2,7.8c-0.8,7.6-1.3,15.5-1.5,23l-5.7,205.3
		c-1.7,61.1,46.4,112.1,107.5,113.8l0,0l33.4,0.9c61.1,1.7,112.1-46.4,113.8-107.5l0,0l0.2-7.8c0.8-7.7,1.3-15.5,1.5-23l5.7-205.2
		C349.6,280.9,301.4,229.9,240.3,228.1C240.3,228.2,240.3,228.2,240.3,228.1L240.3,228.1z"/>
	<path class="st7" d="M230.9,417c-4.9,0.1-8.9-3.9-8.9-8.7c0-3.1,1.6-6.1,4.3-7.7c5.6-3.5,8.7-7.3,19.4-6.8
		c10.4,0.5,22.1,4.8,26.8,8.3c3.9,2.9,4.7,8.5,1.7,12.4c-1.8,2.4-4.7,3.7-7.6,3.5l-7.1-2.6c-6.7-2.4-14-2.6-20.8-0.6L230.9,417z"/>
	<path class="st9" d="M184,315.4c0,0,14.4,11.3,30.9,24.8"/>
	<path class="st9" d="M314.9,317.6L283.7,340"/>
	<path class="st10" d="M232.5,353.2c-0.7,27.9-23.9,50-51.8,49.3s-50-23.9-49.3-51.8c0.7-27.9,23.9-50,51.8-49.3c0,0,0,0,0,0h0.1
		C211.2,302.2,233.2,325.4,232.5,353.2z"/>
	<path class="st10" d="M368,356.9c-0.1,28.7-23.4,51.9-52,51.8c-28.7-0.1-51.9-23.4-51.8-52s23.4-51.9,52-51.8
		c28.6,0.1,51.8,23.2,51.8,51.8V356.9z"/>
	<path class="st10" d="M232.6,347.2c0,0,17.1-22.4,32.9,0.9"/>
	<path class="st6" d="M275.5,367.8c0.1-15.3,13.5-27.5,29.8-27.3s29.4,12.7,29.2,28"/>
	<path class="st6" d="M161.4,366.1c0.2-15.3,13.6-27.5,29.9-27.3s29.5,12.7,29.4,28"/>
	<path class="st7" d="M164.6,352.1l-15.8-6.5l13.9,11.3c-0.2,0.6-0.3,1.2-0.5,1.9l-13.7-1.9l13.1,5.7c-0.1,1-0.2,1.9-0.2,2.9
		c7.6-23.2,22.4-26.2,26.6-26.5c-13.5,0.2-20.2,6.8-23.4,13.3"/>
	<path class="st7" d="M347.5,359.4l-13.8,1.6c-0.1-0.6-0.3-1.2-0.4-1.9l14.2-10.9l-15.9,6.1c-3.1-6.6-9.7-13.3-23.1-13.8
		c4.2,0.5,18.9,3.7,26,27.1c0-1,0-1.9-0.1-2.9L347.5,359.4z"/>
	<path class="st7" d="M198.6,338.4c-4.4,8-1.5,18.1,6.5,22.5c4.7,2.6,10.3,2.7,15.1,0.5C218.3,350.1,209.8,341.1,198.6,338.4z"/>
	<path class="st7" d="M312.4,341.9c-4.4,8-1.5,18.1,6.5,22.5c4.7,2.6,10.3,2.8,15.1,0.5C332.1,353.5,323.6,344.5,312.4,341.9z"/>
	<path class="st8" d="M31.8,438.3c13.9,79.7,89.9,77.9,89.9,77.9"/>
	<path class="st2" d="M7.6,397.6c-0.2-2,1.2-3.9,3.2-4.2c2-0.4,4,0.8,4.5,2.7l2.5,13.2c0.9-0.7,1.9-1.3,3-1.7l-3.1-15.8
		c-0.5-2.1,0.8-4.2,2.9-4.7s4.2,0.8,4.7,2.9c0,0.1,0,0.2,0.1,0.3l3.1,15.8c1,0.1,2,0.2,3,0.4L28.8,393c-0.1-2.2,1.5-4,3.7-4.2
		c1.8-0.1,3.4,1,4,2.7l4.4,22.6c0.3,0.7,0.5,1.4,0.7,2.2l0.6-4.6c0.4-2,2.3-3.4,4.3-3.2l0,0c1.9,0,3.4,1.6,3.4,3.6c0,0,0,0,0,0
		c0,0.1,0,0.2,0,0.3l-3.3,24.7c-0.1,0.9-0.6,1.7-1.4,2.3c-1.3,5.9-6.1,10.5-12.1,11.5c-8,1.6-15.8-3.1-17.2-10.4l-3.5-17.9v-0.6
		L7.6,397.6z"/>
	<path class="st2" d="M428.8,416c0.8-2-0.1-4.3-2.1-5.1c-2-0.8-4.3,0.1-5.1,2.1l0,0l0,0l-5.1,12.4c-0.8-0.9-1.6-1.6-2.5-2.3
		l6.1-14.9c0.7-2-0.4-4.3-2.4-5c-1.9-0.7-4,0.2-4.8,2l-6.1,14.9c-1-0.2-2-0.2-3.1-0.2l5.3-12.7c0.7-2.1-0.5-4.3-2.6-4.9
		c-1.8-0.6-3.8,0.2-4.7,1.9l-8.8,21.3c-0.4,0.6-0.8,1.2-1.1,1.9l0.3-4.6c0-2.1-1.6-3.8-3.6-4l0,0c-1.9-0.3-3.7,1-4,2.9v0.2
		l-1.6,24.9c0,1,0.3,1.9,0.9,2.6c0.1,6,3.9,11.4,9.6,13.6c7.7,3.1,16.1,0.1,18.9-6.7l7-16.9c0-0.1,0.1-0.2,0.1-0.4
		c0-0.1,0-0.1,0.1-0.2L428.8,416z"/>
	<polyline class="st3" points="224.2,634.3 242.4,782.3 260.6,782.3 279.8,615.9 	"/>
	<polygon class="st11" points="259.4,801 242.2,801 235.3,719.7 268.5,719.7 	"/>
	<path class="st5" d="M242.4,803.3c0.3-14.8,12.5-26.6,27.3-26.3c14.4,0.3,26,11.9,26.3,26.3"/>
	<polyline class="st3" points="154.4,633.9 172.6,782.3 190.8,782.3 206.1,634.3 	"/>
	<polygon class="st11" points="190.8,801 173.6,801 164.4,719.7 197.7,719.7 	"/>
	<path class="st5" d="M172.3,803.3c0.3-14.8,12.5-26.6,27.3-26.3c14.4,0.3,26,11.9,26.3,26.3"/>
	<path class="st1" d="M965,193c32.1,173.8-69.2,195.2-69.2,195.2"/>
	<path class="st2" d="M983.9,121.4c-0.5-3.4-3.7-5.7-7.1-5.2c-3,0.5-5.2,3-5.2,6l1.5,21.3c-1.7-0.7-3.4-1.2-5.2-1.4l-1.8-25.5
		c-0.7-3.4-4-5.5-7.4-4.8c-2.7,0.6-4.7,2.9-4.9,5.6l1.8,25.4c-1.6,0.5-3.1,1.1-4.5,1.9l-1.6-21.9c-0.5-3.4-3.7-5.7-7.1-5.2
		c-3,0.5-5.2,3-5.2,6l2.6,36.5c-0.2,1.2-0.2,2.4-0.2,3.6l-2.9-6.8c-1.4-3-4.9-4.4-8-3.2l0,0c-2.9,0.8-4.6,3.9-3.8,6.8c0,0,0,0,0,0
		c0,0.1,0.1,0.3,0.1,0.4l15.2,36.5c0.6,1.4,1.8,2.4,3.2,3c4.5,8.5,13.7,13.5,23.2,12.6c13-0.9,23-11.2,22.1-22.9l-2-28.9l-0.2-0.6
		l-0.1-0.3L983.9,121.4z"/>
	<path class="st7" d="M635.2,286c-8.3,0.6-15.5-5.7-16.1-14c-0.4-5.3,2.1-10.5,6.5-13.5c9.2-6.4,14.1-13.4,32.5-13.5
		c17.7-0.1,38.1,5.9,46.6,11.5c12.5,8.2,6.6,27.1-8.5,27.6l-12.7-3.7c-11.7-3.4-24.1-3.1-35.6,1L635.2,286z"/>
	<path class="st12" d="M727.6,159.1c0,0-8.4-31.6-42.1,19.7"/>
	<path class="st12" d="M636,179.5c0,0-26.5-45.6-40.4-19.4"/>
</g>
</svg>
