<svg id="Layer_1" data-name="Layer 1" xmlns="http://www.w3.org/2000/svg" viewBox="0 0 464.12 713.01"><defs><style>.cls-1,.cls-4{fill:none;stroke-linecap:round;stroke-miterlimit:10;}.cls-1{stroke:#188ab2;stroke-width:17.63px;}.cls-2{fill:#a2cced;}.cls-3{fill:#00a1cd;}.cls-4{stroke:#0d4161;stroke-width:6.78px;}.cls-5{fill:#0d4161;}.cls-6{fill:#fff;}.cls-7{fill:#02a1cd;}.cls-8{fill:#5e62ac;}.cls-9{fill:#514c49;}.cls-10{fill:#0d4060;}</style></defs><path class="cls-1" d="M25.12,480.39s-10.11-48.71-6.93-85,49.9-70.75,49.9-70.75"/><path class="cls-2" d="M4.22,501.67l0-.26-.07-.52L.91,476.19c-1.32-10,6.75-19.42,17.88-20.86,8.76-1.13,16.88,3,20.62,9.65a4.92,4.92,0,0,1,2.86,2.4L57.21,498a1.66,1.66,0,0,1,.12.31,4.76,4.76,0,0,1-2.88,6.1h0a5.41,5.41,0,0,1-7-2.33l-2.8-5.72a16.9,16.9,0,0,1,0,3.1l4,31.24A5.42,5.42,0,0,1,38.1,532l-2.42-18.75a21,21,0,0,1-3.77,1.87L34.73,537a5.42,5.42,0,0,1-10.58,1.37l-2.82-21.81a22.48,22.48,0,0,1-4.57-1l2.38,18.19a5.42,5.42,0,0,1-10.58,1.36Z"/><path class="cls-1" d="M391.79,322.53s46.71,34.46,49.9,70.75-6.93,85-6.93,85"/><path class="cls-2" d="M451.32,533a5.43,5.43,0,0,1-10.59-1.36l2.38-18.19a21.55,21.55,0,0,1-4.57,1l-2.81,21.82a5.43,5.43,0,0,1-10.59-1.38L428,513.05a21.3,21.3,0,0,1-3.76-1.88l-2.42,18.75a5.42,5.42,0,0,1-10.58-1.38l4-31.24a16.05,16.05,0,0,1,0-3.1l-2.8,5.72a5.42,5.42,0,0,1-7,2.33h0a4.77,4.77,0,0,1-2.88-6.1l.12-.31,14.95-30.57a5,5,0,0,1,2.86-2.4c3.73-6.67,11.86-10.78,20.61-9.65,11.14,1.45,19.21,10.83,17.88,20.86l-3.21,24.7-.06.52,0,.26Z"/><path class="cls-3" d="M325.85,2.32c23.39,0,50,.62,69.94,15.82C417.64,34.79,439,58.47,449.34,85.47,473.23,147.73,447.46,216,434,278.07q-14,64.49-27.92,129c-8.13,37.54-20.49,74.08-44.08,104.39C342,537.11,298.55,548,268.44,552.31c-38.53,5.43-37.49-.21-72.85-.21C139,552.1,86.52,506.92,69.72,453,47.25,380.83,35.51,303.4,19.55,229.39c-7.6-35.12-18.29-67.65-13-104.46A164,164,0,0,1,12.73,98c11-34.18,42.48-69.43,72.74-85.42C98.31,5.85,129.1,2,144.29,2"/><path class="cls-4" d="M155.61,133.55s15.27-12.93,30.61-23.62"/><path class="cls-4" d="M316.57,133.31s-8.13-6-28.32-22.56"/><path class="cls-5" d="M236.42,197.09c22.27,0,40.32,6.34,40.32-.87s-18.05-13.07-40.32-13.07-40.33,5.84-40.33,13.07S214.15,197.09,236.42,197.09Z"/><path class="cls-6" d="M224.4,159a29.53,29.53,0,0,0-59.06,0v0"/><path class="cls-7" d="M248.8,541.85l19.3,118.24h27.51l23.32-133"/><path class="cls-7" d="M221,545.79,201.64,664.05H174.17L150.85,531"/><path class="cls-8" d="M177.53,694.8l21.18,13.55,6.52-68.61H169.32Z"/><path class="cls-9" d="M197.71,711a36.29,36.29,0,1,0-72.57,0"/><path class="cls-8" d="M299.62,639.74H263.71l6.52,68.61,21.18-13.55Z"/><path class="cls-9" d="M343.8,711a36.29,36.29,0,1,0-72.57,0"/><path class="cls-10" d="M180.2,159.58a14.73,14.73,0,0,1,29.45,0"/><path class="cls-6" d="M307.81,158.65a29.53,29.53,0,1,0-59-1.27c0,.42,0,.85,0,1.27"/><path class="cls-10" d="M263.64,159.27a14.73,14.73,0,0,1,29.45,0"/></svg>