<svg id="Layer_1" data-name="Layer 1" xmlns="http://www.w3.org/2000/svg" viewBox="0 0 766.47 871.01"><defs><style>.cls-1{fill:#0b4060;opacity:0.2;}.cls-10,.cls-11,.cls-2,.cls-7{fill:none;}.cls-2{stroke:#188ab2;stroke-width:20.1px;}.cls-2,.cls-7{stroke-linecap:round;}.cls-10,.cls-2,.cls-7{stroke-miterlimit:10;}.cls-3{fill:#a2cced;}.cls-4{fill:#00a1cd;}.cls-5{fill:#56c5d0;}.cls-6{fill:#504b48;}.cls-7{stroke:#0d4060;stroke-width:6.63px;}.cls-8{fill:#0d4060;}.cls-9{fill:#fff;}.cls-10,.cls-11{stroke:#ffcb05;}.cls-10{stroke-width:18.77px;}.cls-11{stroke-miterlimit:10;stroke-width:18.77px;}</style></defs><ellipse class="cls-1" cx="385.92" cy="824.92" rx="361.97" ry="22.95"/><path class="cls-2" d="M250.6,414.25s-95.85,44.56-161-85.36"/><path class="cls-3" d="M117.54,337.38l-16.1-38.59a5.71,5.71,0,0,0-7.89-1.71,3.6,3.6,0,0,0-.4.28,6.93,6.93,0,0,0-3.65,8.35l3,6.53a17.7,17.7,0,0,0-2.87-2L65.31,287.46a46.47,46.47,0,0,1-4.21,10.87v4.05l8,7.61a33.11,33.11,0,0,0-4.9,2.48L61,309.53V318c0,10.51,0,14.26-5.65,22.65l-1.67,7.55h.23c.16,0,.26.29.43.42l20.5,19c8.32,7.71,23.83,5.84,34.44-4.11C117.73,356,120.67,345.31,117.54,337.38Z"/><path class="cls-2" d="M569.6,435s103,23.87,140-116.67"/><path class="cls-3" d="M674.09,334.83c0,8.52,6.82,17.2,17.53,21.29,13.61,5.15,28.66,1,33.43-9.31l11.78-25.36.2-.56a1.4,1.4,0,0,0,.16-.26l15.9-34.24a5.84,5.84,0,0,0-3.89-7.29l-.32-.09a6.88,6.88,0,0,0-8.75,2.45l-8.65,18.64a29.63,29.63,0,0,0-4.57-3.63l10.35-22.36a5.85,5.85,0,0,0-3.89-7.29l-.32-.09a6.86,6.86,0,0,0-8.72,2.45L714,291.54a31.47,31.47,0,0,0-5.48-.42l8.91-19.23a5.78,5.78,0,0,0-3.8-7.23l-.41-.11a6.86,6.86,0,0,0-8.72,2.41L689.6,299a15.54,15.54,0,0,0-1.93,2.94l.36-7.06a7,7,0,0,0-6.53-6.33h0c-3.79-.52-7,1.5-7.15,4.44"/><polyline class="cls-4" points="316.5 618.05 345.23 822.44 361.95 822.44 390.71 618.67"/><polyline class="cls-4" points="413.26 617.07 442.02 821.46 458.74 821.46 487.46 617.69"/><polygon class="cls-5" points="364.24 817.02 370.96 758.52 336.2 758.52 344.25 816.17 364.24 817.02"/><polygon class="cls-5" points="459.41 817.02 468.13 758.52 432.63 758.52 441.42 816.17 459.41 817.02"/><path class="cls-6" d="M371.54,823.39a39.47,39.47,0,0,0-78.9,0"/><path class="cls-6" d="M512.27,823.39a39.47,39.47,0,0,0-78.9,0"/><path class="cls-4" d="M520,606.17c32.65-36.76,47-85.89,61.44-131.88,18.54-58.76,37.12-118.6,51.81-178.6,13.64-55.2,30-116.25,10.57-172.1C624.08,66.3,575.11,39.07,517.56,37.9c-51-1-102.14-2.06-153.23-1.57-39.17.39-98.1-8.16-133,12.34-39.17,22.85-70.22,55.5-79.59,101.2-7.34,35.91-2.51,73.19,5.62,108.9C179.33,355.2,215.5,449,251.48,540.85c29,73.94,82.88,110.76,139.94,110.76,32.65,0,67.54-1.66,97.06-17.3C501.63,627.23,509.82,617.5,520,606.17Z"/><line class="cls-7" x1="319.67" y1="181.66" x2="360.93" y2="174.22"/><path class="cls-7" d="M489.62,181.93s-30.36-9.44-37.8-8.49"/><path class="cls-8" d="M447.8,260.14s-7.87,25.2-46.49,24.45-41.65-24.45-41.65-24.45Z"/><path class="cls-9" d="M423.51,229.06c0-17.59,15.18-31.82,33.92-31.82s33.95,14.23,33.95,31.82"/><path class="cls-8" d="M442.87,229.06a14.76,14.76,0,0,1,29.38-2.77,14.24,14.24,0,0,1,0,2.77"/><path class="cls-9" d="M322.58,229.06c0-17.59,15.27-31.82,34.11-31.82s34.15,14.23,34.15,31.82"/><path class="cls-8" d="M341.94,229.06a14.75,14.75,0,1,1,29.37-2.77,14.24,14.24,0,0,1,0,2.77"/><line class="cls-10" x1="89.07" y1="203.99" x2="126.78" y2="208.63"/><polyline class="cls-10" points="130.37 179.48 108.56 176.77 104.97 205.92"/><ellipse class="cls-11" cx="56.62" cy="394.86" rx="26.31" ry="38.88" transform="translate(-342.2 402.87) rotate(-82.99)"/><line class="cls-10" x1="59.99" y1="367.34" x2="85.81" y2="157.08"/><line class="cls-10" x1="56.46" y1="425.16" x2="55.45" y2="444.74"/><path class="cls-3" d="M67.33,302.81h0a6.84,6.84,0,0,0-4.08-8L60,293.41a7,7,0,0,0-8.92,2.41,8.34,8.34,0,0,0,2.81,10l4.31,1.73A6.82,6.82,0,0,0,67,303.73,6.13,6.13,0,0,0,67.33,302.81Z"/><path class="cls-3" d="M65.86,321.35h0a6.85,6.85,0,0,0-4-8.06l-11.62-4.7a6.86,6.86,0,0,0-8,4.21,5.78,5.78,0,0,0,1.59,8,2.39,2.39,0,0,0,.34.21l12.57,5.09a6.81,6.81,0,0,0,8.88-3.75A7.39,7.39,0,0,0,65.86,321.35Z"/><path class="cls-3" d="M61.29,336.92a6.84,6.84,0,0,0-4.11-7.83L47,325a6.89,6.89,0,0,0-8,4.18,5.81,5.81,0,0,0,1.61,8.06l.32.2L52,341.91a6.85,6.85,0,0,0,8.91-3.81,6.4,6.4,0,0,0,.33-1.05Z"/></svg>