<svg xmlns="http://www.w3.org/2000/svg" viewBox="0 0 348 282.35"><defs><style>.cls-1{fill:#f9da78;}.cls-2{fill:#ffca05;}.cls-3{fill:#a4dbde;}.cls-4{fill:#954f22;}.cls-5{fill:#2d9d48;}.cls-6{fill:#fff;}.cls-7{fill:#838383;}.cls-12,.cls-13,.cls-16,.cls-20,.cls-21,.cls-23,.cls-24,.cls-8{fill:none;stroke-miterlimit:10;}.cls-8{stroke:#0a8ab2;stroke-width:5px;}.cls-12,.cls-13,.cls-20,.cls-21,.cls-23,.cls-24,.cls-8{stroke-linecap:round;}.cls-9{fill:#a1cbec;}.cls-10{fill:#00a0cc;}.cls-11{fill:#0d3f60;}.cls-12{stroke:#2585aa;stroke-width:0.91px;}.cls-13,.cls-21,.cls-24{stroke:#0d3f60;}.cls-13{stroke-width:2px;}.cls-14{fill:#56c4cf;}.cls-15{fill:#4f4a47;}.cls-16{stroke:#000;stroke-width:0.75px;}.cls-17{fill:#d5ba76;}.cls-18{fill:#969e9b;}.cls-19{fill:#c9a362;}.cls-20,.cls-23{stroke:#108ab2;}.cls-20{stroke-width:4px;}.cls-21{stroke-width:1.5px;}.cls-22{fill:#5652a2;}.cls-23{stroke-width:1.98px;}.cls-24{stroke-width:0.8px;}.cls-25{fill:#515252;}.cls-26{fill:#444445;}.cls-27{fill:#656767;}.cls-28{fill:#ec1651;}</style></defs><g id="Layer_1" data-name="Layer 1"><polyline class="cls-1" points="-0.32 282.55 -0.32 0.2 347.68 0.2 347.68 282.55"/><rect class="cls-2" x="-0.32" y="114.96" width="348" height="167.58"/><path class="cls-3" d="M157.53,51.37c0-17.87-15.37-31.89-34.78-31.89S87.6,34,87.6,51.83V81.44h69.88V56.83S157.53,53.07,157.53,51.37Z"/><path class="cls-4" d="M-.32,115H40.73V48.16s.05-4.37.05-6.34c0-20.75-19.83-37-40.9-37"/><rect class="cls-5" x="87.6" y="62.75" width="69.88" height="18.68" transform="translate(245.08 144.17) rotate(-180)"/><path class="cls-6" d="M154.18,40.26a3.67,3.67,0,0,0-3.1,1.86,4.11,4.11,0,0,0-1.74-1.92,3.61,3.61,0,0,0-5.05,2.1,5,5,0,0,0-.32,2.49,3.67,3.67,0,0,0-4.31,2.4,4.66,4.66,0,0,0,1.83,5.8,3.33,3.33,0,0,0,3.11,0,4.25,4.25,0,0,0,2.06,2.85,3.57,3.57,0,0,0,5-1.9,3.52,3.52,0,0,0,5.9-1.19c0-.63,0-1.23,0-1.68a30.17,30.17,0,0,0-1.88-10.5A3.36,3.36,0,0,0,154.18,40.26Z"/><rect class="cls-2" x="87.41" y="77.59" width="70.27" height="4.94"/><ellipse class="cls-7" cx="30.77" cy="68.82" rx="2.9" ry="2.38"/><path class="cls-6" d="M91,48a4,4,0,0,0,3.6-1.8,4.71,4.71,0,0,0,1.82,2.3,4,4,0,0,0,5.81-1.89,5.59,5.59,0,0,0,.52-2.77,4,4,0,0,0,5-2.29,5.3,5.3,0,0,0-1.65-6.67,3.74,3.74,0,0,0-3.48-.34,5,5,0,0,0-2.12-3.39,4,4,0,0,0-5.69,1.69,2.4,2.4,0,0,0-.28-.27A31,31,0,0,0,88.08,46.3,4.08,4.08,0,0,0,91,48Z"/><path class="cls-8" d="M188.43,148.55s.14,7.44-8.55,14.23c-4.89,3.82-18.57,2.8-18.57,2.8"/><path class="cls-9" d="M196.68,133.94a1.25,1.25,0,0,0-2.42-.55l-.95,4.19a5.15,5.15,0,0,0-.92-.59l1.14-5a1.18,1.18,0,0,0-1-1.37,1.2,1.2,0,0,0-1.46.82l-1.13,5a6.25,6.25,0,0,0-1,.11l1-4.31a1.24,1.24,0,0,0-2.41-.55l-1.64,7.19a3.64,3.64,0,0,0-.24.68l-.15-1.48a1.28,1.28,0,0,0-1.35-1.07h0a1.1,1.1,0,0,0-1.11,1.18l.8,7.92a1.19,1.19,0,0,0,.42.77,4.77,4.77,0,0,0,3.72,3.77,4.56,4.56,0,0,0,5.58-3.15l1.29-5.69s0-.08,0-.12a.14.14,0,0,0,0-.06Z"/><path class="cls-10" d="M169.52,149.08a273.16,273.16,0,0,1-3.45,31c-3.65,22.72-24.19,38.14-45.89,34.43l-36-6.15c-15.85-2.71-28.32-15.33-32-30.79-2.77-11.5.17-24.8,2.14-36.26,3.8-22.2,13.94-48.26,34.64-59.75,27.52-15.26,63.91-3.75,75.66,25.92a65.75,65.75,0,0,1,4.21,16.79A157.11,157.11,0,0,1,169.52,149.08Z"/><path class="cls-11" d="M139.55,144.75s1.75-5.6-9.31-7.48c-8.67-1.47-10.37,3.64-10.37,3.64Z"/><path class="cls-12" d="M145.94,129.33c-2.43,4.33.76,7.53,4.32,8.68"/><path class="cls-13" d="M118.1,113.08s-4.08-3-7.75-5.93"/><path class="cls-13" d="M145.53,119.28s4.51-2.27,8.62-4.59"/><polyline class="cls-10" points="131.13 203.12 123.24 251.73 118.65 251.73 110.75 203.27"/><polyline class="cls-10" points="105.4 204.02 97.5 252.63 92.92 252.63 85.02 204.17"/><polygon class="cls-14" points="117.97 251.67 115.58 232.89 126.62 232.89 123.41 251.45 117.97 251.67"/><polygon class="cls-14" points="92.75 252.19 89.61 234.01 100.81 234.01 98.39 252.69 92.75 252.19"/><path class="cls-15" d="M113.83,253.09a10.93,10.93,0,1,0-21.86,0"/><path class="cls-15" d="M139.52,253.09a10.93,10.93,0,1,0-21.85,0"/><path class="cls-12" d="M119.54,125.36c-.44,3.7-6,7.64-10.61,5.07"/><path class="cls-12" d="M154.24,108.43a64.29,64.29,0,0,1-33.55-7.36"/><path class="cls-6" d="M119.86,126.2c1.1-4.7-2.07-9.46-7.08-10.64s-10,1.68-11.07,6.38"/><path class="cls-11" d="M114.68,125a4.05,4.05,0,1,0-7.89-1.85"/><path class="cls-6" d="M163.75,133.2c1-4.72-2.36-9.4-7.43-10.43s-10,2-10.93,6.69"/><path class="cls-11" d="M158.54,132.14a4.05,4.05,0,1,0-7.94-1.62"/><path class="cls-11" d="M157.14,123.1l-.13,0Z"/><path class="cls-11" d="M112,115.38l.17,0Z"/><path class="cls-16" d="M138.64,128c-1.15,6,6.11,12.38,16.21,14.32s15.45-.81,20.36-7.28c3.67-4.83,3.2-10.65-6.9-12.59S139.79,122,138.64,128Z"/><path class="cls-16" d="M89.15,119.16c1.53,7.08,6.11,12.37,16.2,14.32s19.22-1.32,20.37-7.29-14.31-14-24.41-16S87.86,113.22,89.15,119.16Z"/><path class="cls-16" d="M138.74,131s-6-10.93-13.51-2.46"/><path class="cls-11" d="M163.87,129.07l5-1.07-4.78,2.7c0,.21,0,.41,0,.61l4.07.27-4.15,1c-.07.57-.15.93-.15.93-.57-7.88-4.61-9.75-5.8-10.13A7.15,7.15,0,0,1,163.87,129.07Z"/><path class="cls-11" d="M158.05,123.36l-.33-.1Z"/><path class="cls-11" d="M97.67,118.9l3.85,1.37c.07-.18.15-.36.24-.55l-3.31-4.37,4.15,3a7.15,7.15,0,0,1,7.61-2.94c-1.25-.12-5.69,0-9.35,7a7.72,7.72,0,0,1,.23-.91Z"/><path class="cls-11" d="M131,117.74a2.89,2.89,0,0,1,.34.05C131.2,117.76,131.1,117.76,131,117.74Z"/><path class="cls-17" d="M51.31,255.91c1-3,1.95-6,2.94-9,.91-2.8,1.84-5.59,2.75-8.39.08-.25.23-.53,0-.82.34,0,.52.34.88.29,1.7-.21,3.3.5,5,.61,2.43.15,4.8.78,7.23,1a15.33,15.33,0,0,1,2.34.33,24.27,24.27,0,0,0,3.8.68c1.93.16,3.8.66,5.73.78,1.29.07,2.51.59,3.79.62,1.69,0,3.3.51,5,.7a44.56,44.56,0,0,0,.22,5.89c.2,4.4.44,8.81.68,13.21,0,.66,0,1-.88.84-2.65-.46-5.32-.84-8-1.25Z"/><path class="cls-18" d="M90.91,131.65a2.17,2.17,0,0,1,1.16,2.3c-.62,4.32-3.39,20.35-4,24.67-.88,6.2-5.86,39.54-6.75,45.74-1,6.58-1.92,13.15-2.87,19.73-.4,2.73-.75,5.46-1.17,8.18-.11.74,0,1,.87,1.15,3.69.47,7.37,1.06,11.06,1.57,3.21.44,4.42,2,3.82,5.18-.06.3,0,.65-.24.9-.35,1.26-.69,1.53-2,1.65a15.54,15.54,0,0,1-3.06-.47c-1.23-.17-2.46-.34-3.69-.53l-7.88-1.18-9.59-1.44c-2.82-.43-5.47-1-8.32-1.17-1.43-.09-2.6-.75-2.62-2.26.08-.69.12-1.39.24-2.07A3.52,3.52,0,0,1,60,230.69c4,.59,8,1.16,12,1.78.76.12.92-.14,1-.8,1.1-7.78,2.24-15.54,3.35-23.31,1.21-8.43,6.52-44,7.72-52.42.52-3.6,3.15-18.92,3.7-22.52A2.17,2.17,0,0,1,90.91,131.65Z"/><path class="cls-8" d="M76.35,167.71c-33.86,7.85-9.44-28.11-9.44-28.11"/><path class="cls-9" d="M91.91,170.13a1.18,1.18,0,0,0,.93-1.38,1.21,1.21,0,0,0-1.29-1.08l-4.24.6a5.25,5.25,0,0,0,.22-1.06l5.08-.72a1.19,1.19,0,0,0,.93-1.39,1.21,1.21,0,0,0-1.3-1.07l-5.08.72a5.14,5.14,0,0,0-.46-.87l4.37-.62a1.18,1.18,0,0,0,.93-1.38,1.21,1.21,0,0,0-1.29-1.08l-7.28,1a4.33,4.33,0,0,0-.72,0l1.32-.67a1.25,1.25,0,0,0,.51-1.63h0a1.11,1.11,0,0,0-1.5-.63L76,162.47a1.15,1.15,0,0,0-.56.68A4.73,4.73,0,0,0,73.23,168a4.59,4.59,0,0,0,5,4.1l5.76-.81.12,0s0,0,.07,0Z"/><polygon class="cls-19" points="86.14 261.92 85.61 249.84 84.14 261.62 86.14 261.92"/><polygon class="cls-19" points="76.92 260.38 76.64 252.88 74.74 260 76.92 260.38"/><polygon class="cls-19" points="60.51 257.52 61.41 246.41 58.07 257.09 60.51 257.52"/><path class="cls-20" d="M223.85,183.91s-15.95-1.82-16.7,27.72"/><path class="cls-9" d="M211.25,212.37a3.78,3.78,0,0,0-3.56-2.21c-2.21-.08-4.17,1.25-4.36,3l-.45,4.22s0,.06,0,.09,0,0,0,.05l-.61,5.7c-.05.45.38.84,1,.86a1,1,0,0,0,1.14-.78l.34-3.1a4.37,4.37,0,0,0,.84.29l-.41,3.73c0,.45.39.83,1,.85a1,1,0,0,0,1.14-.77l.4-3.73a5.33,5.33,0,0,0,.81-.2l-.35,3.2c-.05.45.39.83,1,.85a1,1,0,0,0,1.14-.78l.57-5.33a1.89,1.89,0,0,0,.13-.52l.3,1a1.06,1.06,0,0,0,1.25.59c.57-.11.93-.56.81-1"/><path class="cls-10" d="M303.29,162.8c0,28.39-8.6,58.77-48.7,59.8-38.08,1-48.7-30.83-48.7-59.23s21.81-35,48.7-35,48.7,6.07,48.7,34.46"/><path class="cls-21" d="M221,154.67s1.13-7.34,9.19-5.76"/><path class="cls-21" d="M264,153.75s-1.56-7-9.2-4"/><path class="cls-11" d="M231.26,176.44s0-6.08,12.16-6.06c10,0,10.65,6.55,10.65,6.55Z"/><path class="cls-6" d="M247,165a8.8,8.8,0,0,1,17.57,0"/><path class="cls-6" d="M220.9,165c0-4.55,3.95-8.23,8.83-8.23s8.83,3.68,8.83,8.23"/><path class="cls-11" d="M221.8,160.86,217.08,159l4.18,3.3c0,.19-.09.37-.13.54l-4.09-.51L221,164a7.67,7.67,0,0,0,0,.86c2.31-7.32,7.07-8,8-8-4.16.05-6.17,2.06-7.13,4.05"/><path class="cls-11" d="M228.92,156.81h0"/><path class="cls-11" d="M268.45,162.31l-4.09.51c0-.17-.08-.35-.14-.54l4.19-3.3-4.72,1.88c-1-2-3-4-7.13-4.05.95.05,5.71.69,8,8a7.67,7.67,0,0,0,0-.86Z"/><path class="cls-11" d="M256.39,156.8h0"/><polyline class="cls-10" points="257.25 220.22 260.23 252.61 263.79 252.61 266.77 220.2"/><polyline class="cls-10" points="240.45 220.12 243.43 252.61 246.99 252.61 249.97 220.22"/><polygon class="cls-22" points="241.94 236.41 248.48 236.41 247.05 252.52 243.07 252.52 241.94 236.41"/><polygon class="cls-22" points="258.55 236.41 265.28 236.41 263.79 252.61 260.47 252.52 258.55 236.41"/><path class="cls-15" d="M233.2,252.61a6.95,6.95,0,1,1,13.9,0"/><path class="cls-15" d="M250.15,252.61a6.95,6.95,0,1,1,13.9,0"/><path class="cls-23" d="M270.74,76.29s-11.46-2.7-17.41,8.14"/><path class="cls-9" d="M256.27,85.77a2.54,2.54,0,0,0-1.57-2.35,2.69,2.69,0,0,0-3.51.59l-1.46,2.46,0,.06,0,0-2,3.33a.59.59,0,0,0,.35.79.69.69,0,0,0,.91-.15L250,88.71a3.42,3.42,0,0,0,.43.42l-1.29,2.17a.59.59,0,0,0,.35.79.71.71,0,0,0,.92-.15l1.29-2.17a3.66,3.66,0,0,0,.56.1l-1.12,1.86a.61.61,0,0,0,.35.8.72.72,0,0,0,.92-.16l1.86-3.11a1.51,1.51,0,0,0,.22-.28l-.11.72a.73.73,0,0,0,.6.72.6.6,0,0,0,.78-.38"/><path class="cls-10" d="M262.57,66c0-.21,0-.41,0-.62,0-14.76,10.67-26.73,23.84-26.73s23.84,12,23.84,26.73c0,.21,0,.41,0,.62a21.36,21.36,0,0,1,.22,3V81.53c0,10.29-9.12,19.68-18.23,19.68H279.28c-9.11,0-16.93-9.39-16.93-19.68V69a21.36,21.36,0,0,1,.22-3"/><path class="cls-24" d="M296.29,56.37a3.81,3.81,0,0,0-4.59-3.46"/><path class="cls-24" d="M273.58,56.18s0-3.81,4.29-3.13"/><path class="cls-11" d="M290.93,67.22s-1.07-2-6.37-2-5.73,1.87-5.73,1.87Z"/><path class="cls-6" d="M282.67,61.67a4.66,4.66,0,0,0-9.31,0"/><path class="cls-11" d="M279.52,61.67a2,2,0,0,0-4,0"/><path class="cls-6" d="M296.52,61.67a4.69,4.69,0,0,0-9.36,0"/><path class="cls-11" d="M293.37,61.67a2,2,0,0,0-4.05,0"/><path class="cls-11" d="M296,59.46l2.5-1-2.21,1.74a2.46,2.46,0,0,0,.07.29l2.17-.27-2.08.88a3,3,0,0,1,0,.45c-1.16-3.68-3.48-4.17-4.15-4.24A3.86,3.86,0,0,1,296,59.46"/><path class="cls-11" d="M292.36,57.32h0"/><path class="cls-11" d="M271.31,60.23l2.17.27c0-.09,0-.19.07-.29l-2.22-1.75,2.51,1a3.84,3.84,0,0,1,3.67-2.14c-.66.07-3,.55-4.15,4.24,0,0,0-.18,0-.46Z"/><path class="cls-11" d="M277.51,57.32h0"/><path class="cls-23" d="M305.59,73.67s.61,15-14.62,13.15"/><path class="cls-9" d="M290.78,84a2.55,2.55,0,0,1,1.41,2.45,2.7,2.7,0,0,1-2.1,2.88l-2.86.21h-.09l-3.86.28c-.31,0-.55-.27-.56-.67a.72.72,0,0,1,.55-.75l2.11-.15a3.29,3.29,0,0,1-.19-.58l-2.52.19c-.3,0-.55-.28-.55-.67a.7.7,0,0,1,.55-.75l2.52-.19a5.44,5.44,0,0,1,.15-.54l-2.16.16c-.31,0-.55-.27-.56-.67a.72.72,0,0,1,.55-.75l3.61-.27a2.41,2.41,0,0,1,.35-.07l-.69-.22a.73.73,0,0,1-.37-.86c.09-.38.4-.62.69-.53"/><rect class="cls-25" x="260.27" y="57.34" width="0.69" height="17.21" rx="0.34" transform="translate(36.64 214.61) rotate(-47.78)"/><rect class="cls-26" x="244.09" y="72.51" width="25.96" height="14.98" transform="translate(514.15 160) rotate(-180)"/><path class="cls-27" d="M267.83,70.6c.62.08,1.25,0,1.87,0,1.23,0,1.9.74,2.09,2.16,0,4.6,0,9.2,0,13.79a5.94,5.94,0,0,1-.2,1.78,2.51,2.51,0,0,1-2.35,1.24H245.5a2.42,2.42,0,0,1-2.34-1.24,4.56,4.56,0,0,1-.18-1.47c0-1.93,0-3.85,0-5.78a1.17,1.17,0,0,0-.55-1.2.89.89,0,0,1-.41-.72,17.83,17.83,0,0,1,0-4.13.7.7,0,0,1,.31-.61c.61-.28.67-.79.64-1.37a2.22,2.22,0,0,1,2.45-2.48c2.55,0,5.11,0,7.66,0,3.55,0,7.09,0,10.64,0Zm-.58,14.13c4-5.15.45-11.54-5.06-11.53a6.67,6.67,0,0,0-6.69,6.74C255.36,85.3,261.73,89.41,267.25,84.73Zm-17.7-7.11c.29,0,.3,0,.3-.56,0-1.53.07-1.26-.61-1.27-1.19,0-2.38,0-3.57,0h-.28c-.11,0-.17.13-.18.34a.76.76,0,0,1,0,.15c-.06,1.35-.06,1.35.62,1.35h3.73Zm0-2.84c.2,0,.28-.11.28-.53,0-1.49.06-1.3-.61-1.3-1.18,0-2.35,0-3.53,0h-.31c-.13,0-.2.13-.2.38v.16c0,1.56-.07,1.25.61,1.27s1.16,0,1.74,0S248.9,74.77,249.57,74.78Z"/><path class="cls-25" d="M262.27,85.11a5,5,0,1,0-5-5A5,5,0,0,0,262.27,85.11Z"/><rect class="cls-26" x="241.86" y="73.34" width="1.24" height="6.8" rx="0.62" transform="translate(484.96 153.47) rotate(180)"/><polyline class="cls-10" points="288.42 98.8 290.4 120.3 292.77 120.3 294.74 98.79"/><polyline class="cls-10" points="277.26 98.73 279.24 120.3 281.61 120.3 283.59 98.8"/><polygon class="cls-28" points="278.25 109.55 282.6 109.55 281.65 120.25 279 120.25 278.25 109.55"/><polygon class="cls-28" points="289.41 109.55 293.76 109.55 292.9 120.25 290.26 120.25 289.41 109.55"/><path class="cls-15" d="M272.65,120.3a4.62,4.62,0,0,1,9.23,0"/><path class="cls-15" d="M283.81,120.3a4.62,4.62,0,0,1,9.23,0"/><path class="cls-11" d="M221.27,163.67a5.43,5.43,0,0,0,5.48-1.33,4.88,4.88,0,0,0,.67-5.43C224.23,158.07,221.72,160.66,221.27,163.67Z"/><path class="cls-11" d="M247.07,163.27a4.88,4.88,0,0,0,6.47-6.25A8.84,8.84,0,0,0,247.07,163.27Z"/><path class="cls-20" d="M282.4,193.25s-13,9.53-26.72-8.4"/><path class="cls-9" d="M257.14,180.93a3.78,3.78,0,0,1-1.46,3.92c-1.7,1.42-4.07,1.57-5.27.33l-2.95-3.06-.05-.07,0,0-4-4.14a.88.88,0,0,1,.24-1.26,1,1,0,0,1,1.37-.09l2.17,2.25a4.66,4.66,0,0,1,.48-.74l-2.6-2.7a.89.89,0,0,1,.24-1.27,1.06,1.06,0,0,1,1.38-.09l2.6,2.7a5.63,5.63,0,0,1,.76-.33L247.8,174a.88.88,0,0,1,.24-1.26,1.06,1.06,0,0,1,1.38-.09l3.72,3.87a2.18,2.18,0,0,1,.42.33l-.41-1a1.08,1.08,0,0,1,.64-1.24.86.86,0,0,1,1.24.29"/></g></svg>