<svg id="Layer_1" data-name="Layer 1" xmlns="http://www.w3.org/2000/svg" viewBox="0 0 348 282.35"><defs><style>.cls-1{fill:#f8d978;}.cls-2{fill:#fff;}.cls-3{fill:#56c4cf;}.cls-4{fill:#ffca05;}.cls-5{fill:#faac18;}.cls-6{fill:#e49425;}.cls-7{fill:#00a0cc;}.cls-8{fill:#ec1651;}.cls-9{fill:#4f4a47;}.cls-10{fill:#0b4060;}.cls-11,.cls-12,.cls-13,.cls-14,.cls-15,.cls-16,.cls-22,.cls-25,.cls-30,.cls-31{fill:none;stroke-miterlimit:10;}.cls-11,.cls-12{stroke:#2584a9;}.cls-11,.cls-12,.cls-15,.cls-16,.cls-25{stroke-linecap:round;}.cls-11{stroke-width:0.75px;}.cls-12{stroke-width:0.84px;}.cls-13,.cls-14{stroke:#000;}.cls-13{stroke-width:0.79px;}.cls-14{stroke-width:0.78px;}.cls-15{stroke:#0b4060;stroke-width:1.18px;}.cls-16{stroke:#1089b1;stroke-width:3.18px;}.cls-17{fill:#a0caeb;}.cls-18{fill:#f7df9a;}.cls-19{fill:#48b2b7;}.cls-20{fill:#5753a2;}.cls-21{fill:#3d3d8e;}.cls-22{stroke:#d80303;stroke-width:2.55px;}.cls-23{fill:#5e5f5e;}.cls-24{fill:#777775;}.cls-25{stroke:#1589b1;stroke-width:6.54px;}.cls-26{fill:#a1cbec;}.cls-27{fill:#679648;}.cls-28{fill:#70a34f;}.cls-29{fill:#87bc68;}.cls-30{stroke:#70a34f;stroke-width:0.31px;}.cls-31{stroke:#90bedd;stroke-width:0.87px;}</style></defs><polyline class="cls-1" points="0 282.35 0 0 348 0 348 282.35"/><path class="cls-2" d="M144.3,112.38a31.19,31.19,0,0,1-9.29-1.45,1.28,1.28,0,0,0-1.84.85,25.1,25.1,0,0,1-9.6,11.14,30.2,30.2,0,0,1-12.82,4.69,33.19,33.19,0,0,1-9.9-.2,29.62,29.62,0,0,1-15.94-8.06,1.13,1.13,0,0,0-1.61-.23,1.29,1.29,0,0,0-.17.16,30.69,30.69,0,0,1-15.36,6.35,31.63,31.63,0,0,1-15.56-1.76c-6.88-2.6-12.33-7-15.49-14a20.6,20.6,0,0,1-1.51-12.15c.21-1.2,0-1.51-1.17-1.69a28.59,28.59,0,0,1-10.4-3.75c-6.41-3.83-11-9.17-12.31-16.86a21,21,0,0,1,3-15.18,27.22,27.22,0,0,1,13.71-11,47.47,47.47,0,0,1,6.63-1.72c.83-.19,1.07-.54,1-1.4-.83-6.4,1.17-11.89,5.11-16.73A26.51,26.51,0,0,1,50.43,22a32.37,32.37,0,0,1,29.86,1.34,1,1,0,0,0,1.42-.09,1,1,0,0,0,.16-.25,26.45,26.45,0,0,1,6.91-6.52,30.8,30.8,0,0,1,15.11-4.95,31.74,31.74,0,0,1,14.44,2.29c6.87,2.88,12.14,7.54,15,14.76a15.27,15.27,0,0,1,.74,2.41c.16.76.55.95,1.25.91,2-.11,4-.3,6-.23A29.41,29.41,0,0,1,162,40.59a22,22,0,0,1,6.55,17.24,21.67,21.67,0,0,1-3.71,10.49c-.79,1.25-.8,1.31.25,2.27a23.56,23.56,0,0,1,6.44,9.35,20.88,20.88,0,0,1,.66,12.91c-1.94,7.42-6.71,12.39-13.15,15.85A32,32,0,0,1,144.3,112.38Z"/><polygon class="cls-3" points="95.72 90.75 64.69 90.75 64.69 50.42 95.14 48.83 95.72 90.75"/><polyline class="cls-4" points="348 281.02 0 281.02 0 256.88 348 256.88"/><path class="cls-2" d="M193.64,106.82c-6.44-3.46-11.2-8.44-13.15-15.85a20.85,20.85,0,0,1,.67-12.92,23.57,23.57,0,0,1,6.43-9.35c1-1,1-1,.25-2.26A21.75,21.75,0,0,1,184.13,56a22,22,0,0,1,6.55-17.25,29.4,29.4,0,0,1,20.68-8.9c2-.07,4,.11,6,.23.7,0,1.09-.16,1.25-.92a15.6,15.6,0,0,1,.74-2.41c2.88-7.22,8.15-11.87,15-14.76A31.73,31.73,0,0,1,248.8,9.66a30.8,30.8,0,0,1,15.11,4.95,26.41,26.41,0,0,1,6.91,6.51.87.87,0,0,0,.16.26,1,1,0,0,0,1.42.09,32.37,32.37,0,0,1,29.86-1.34,26.4,26.4,0,0,1,9.67,7.4c3.94,4.85,5.94,10.34,5.11,16.74-.11.85.13,1.2,1,1.39a47.51,47.51,0,0,1,6.63,1.73,27.17,27.17,0,0,1,13.71,11,21,21,0,0,1,3,15.17c-1.34,7.7-5.9,13-12.31,16.86a28.22,28.22,0,0,1-10.4,3.75c-1.16.19-1.38.49-1.16,1.7A20.61,20.61,0,0,1,316,108c-3.16,7-8.61,11.41-15.49,14a31.52,31.52,0,0,1-15.56,1.77,30.7,30.7,0,0,1-15.36-6.36,1.22,1.22,0,0,0-.17-.15,1.1,1.1,0,0,0-1.6.23,29.75,29.75,0,0,1-16,8.06,32.86,32.86,0,0,1-9.9.19A30.05,30.05,0,0,1,229.12,121a25.07,25.07,0,0,1-9.6-11.15,1.28,1.28,0,0,0-1.84-.84,31.51,31.51,0,0,1-9.29,1.45A32,32,0,0,1,193.64,106.82Z"/><path class="cls-2" d="M104.92,136.87a5.85,5.85,0,1,1,5.87,5.74A5.85,5.85,0,0,1,104.92,136.87Z"/><path class="cls-2" d="M121.08,145.35a3,3,0,0,1-3-3v-.07a3,3,0,1,1,3,3Z"/><path class="cls-2" d="M217.06,130.1a5.8,5.8,0,1,1,5.87-5.74A5.83,5.83,0,0,1,217.06,130.1Z"/><path class="cls-2" d="M206.77,132.77a3,3,0,1,1,3-3v.07a3,3,0,0,1-3,3Z"/><polyline class="cls-5" points="196.37 266.63 191.03 266.63 191.03 243.61 148 243.61 148 266.63 142.54 266.63 142.54 241.46 142.63 241.46 142.63 236.56 196.37 236.56 196.37 241.53"/><rect class="cls-6" x="138.4" y="225.6" width="62.55" height="12.51" rx="3.78"/><polyline class="cls-7" points="169.37 217.89 161.7 264.98 157.92 264.98 151.41 224.88"/><polygon class="cls-8" points="157.77 264.01 155.27 248.69 164.39 248.69 162.26 264.18 157.77 264.01"/><path class="cls-9" d="M167.47,265.93c-.12-4.77-3.62-8.62-8-8.77-4.55-.15-8.36,3.76-8.51,8.73"/><polyline class="cls-7" points="188.02 217.89 180.35 264.98 176.57 264.98 170.06 224.88"/><polygon class="cls-8" points="176.42 264.01 173.92 248.69 183.04 248.69 180.91 264.18 176.42 264.01"/><path class="cls-9" d="M187.06,265.92c-.12-4.77-3.62-8.61-8-8.76-4.56-.16-8.36,3.75-8.51,8.73"/><path class="cls-7" d="M214.8,173.29A225,225,0,0,1,216.75,199c.53,19-13.77,34.61-31.94,34.93l-30.12.52c-13.25.23-25.29-8.07-30.68-20-4-8.88-3.66-20.12-3.81-29.71-.3-18.58,3.94-41.25,18.93-53.71,20-16.62,51.22-12.82,65.29,9.44a53.8,53.8,0,0,1,6,13A129.37,129.37,0,0,1,214.8,173.29Z"/><path class="cls-10" d="M176.49,171.12s.51-4.81-8.74-4.55c-7.25.19-7.8,4.6-7.8,4.6Z"/><path class="cls-11" d="M179.63,159.81c-1.24,3.9,1.87,6,4.93,6.3"/><path class="cls-11" d="M157.62,161c.25,3.07-3.54,7.17-7.74,5.85"/><path class="cls-12" d="M182.6,142.35a59.26,59.26,0,0,1-31.68-.46"/><path class="cls-2" d="M158.05,161.59a7.7,7.7,0,0,0-15.37-.44"/><path class="cls-10" d="M154.46,161.62a3.35,3.35,0,0,0-6.69-.19"/><path class="cls-2" d="M194.68,160a7.75,7.75,0,0,0-15.46,0"/><path class="cls-10" d="M190.1,160a3.35,3.35,0,0,0-6.69,0"/><path class="cls-13" d="M173.51,159.93c.06,5,7,9,15.47,8.92s12.35-3.2,15.25-9.25c2.17-4.51.83-9.13-7.66-9S173.46,154.92,173.51,159.93Z"/><path class="cls-14" d="M174.09,162.31s-5.4-7.57-11.48.2"/><path class="cls-10" d="M194.06,156.54l3.85-1.66-3.43,2.92.1.48,3.34-.46-3.2,1.45c0,.45,0,.78,0,.78-1.74-6.14-5.3-7-6.33-7.06A5.85,5.85,0,0,1,194.06,156.54Z"/><path class="cls-10" d="M139.42,159l3.32.47c0-.16.07-.32.11-.49l-3.38-3,3.84,1.7c.78-1.77,2.8-3.37,6.07-3.46-1,.1-5,.77-6.81,7,0,0,0-.31,0-.81Z"/><path class="cls-15" d="M151.06,146.32s-1,6-7.63,4.65"/><path class="cls-15" d="M182.35,145.62s1,5.85,7.41,3.69"/><path class="cls-16" d="M147.22,221a125,125,0,0,1-12.73-8.41,20.25,20.25,0,0,1-7.72-18.87"/><path class="cls-13" d="M132.07,161c2.4,5.47,7,9,15.46,8.92s15.32-4.24,15.26-9.25-13.92-9-22.37-8.89S130,156.36,132.07,161Z"/><path class="cls-17" d="M147.64,216.69a4,4,0,0,0-3.93,1.92,3.76,3.76,0,0,0,1,5.19l4.11,2.5.07.06,0,0,5.58,3.35a1,1,0,0,0,1.09-1.77l-3-1.84a4.12,4.12,0,0,0,.69-.56l3.63,2.2A1,1,0,0,0,158,226l-3.62-2.2a5.27,5.27,0,0,0,.16-.79l3.11,1.89a1,1,0,0,0,1.39-.43,1,1,0,0,0-.32-1.32l-5.22-3.13a2.4,2.4,0,0,0-.47-.37l1.2.26a1.06,1.06,0,0,0,1.2-.76h0a.92.92,0,0,0-.59-1.17l-.05,0"/><path class="cls-16" d="M211.44,193.56a20.24,20.24,0,0,1-7.73,18.87A124.22,124.22,0,0,1,191,220.84"/><path class="cls-17" d="M183.46,217.82l-.05,0a.92.92,0,0,0-.59,1.17h0a1.05,1.05,0,0,0,1.19.76l1.2-.27a4.14,4.14,0,0,0-.46.37L179.53,223a1,1,0,0,0-.32,1.32,1,1,0,0,0,1.38.43l3.12-1.89a4.43,4.43,0,0,0,.16.79l-3.63,2.2a1,1,0,0,0,1.06,1.74l3.63-2.19a4.2,4.2,0,0,0,.7.56l-3,1.83a1,1,0,0,0-.24,1.39,1,1,0,0,0,1.33.38l5.58-3.34,0,0,.06-.07,4.12-2.49a3.77,3.77,0,0,0,1-5.19,3.94,3.94,0,0,0-3.93-1.92"/><polygon class="cls-18" points="95.72 91.28 64.69 91.28 65 51.15 94.21 49.87 97.06 51.53 95.72 91.28"/><polygon class="cls-3" points="97.97 91.52 66.94 93.26 66.94 51.53 97.97 50.66 97.97 91.52"/><path class="cls-19" d="M66.94,51.53a2.61,2.61,0,0,1-2.25-1.11V90.75s-.57,3.21,2.25,2.51Z"/><polygon class="cls-20" points="103.46 94.97 72.42 94.97 72.42 54.64 102.87 53.05 103.46 94.97"/><polygon class="cls-18" points="103.46 95.5 72.42 95.5 72.74 55.37 101.94 54.09 104.8 55.75 103.46 95.5"/><polygon class="cls-20" points="105.71 95.74 74.68 97.48 74.68 55.75 105.71 54.88 105.71 95.74"/><path class="cls-21" d="M74.68,55.75a2.63,2.63,0,0,1-2.26-1.11V95s-.57,3.2,2.26,2.51Z"/><circle class="cls-22" cx="85.13" cy="72.19" r="35.19"/><path class="cls-23" d="M119.64,100.33a13.68,13.68,0,0,0-4-.51,14,14,0,0,0-4,.51h-1.79v1.24h0s0,.06,0,.09c0,1,2.58,1.83,5.76,1.83s5.73-.82,5.73-1.83v-1.33Z"/><ellipse class="cls-24" cx="115.69" cy="100.33" rx="5.77" ry="1.84"/><path class="cls-23" d="M132.8,100a13.73,13.73,0,0,0-4-.51,13.93,13.93,0,0,0-4,.51h-1.8v1.24h0a.41.41,0,0,0,0,.08c0,1,2.58,1.84,5.77,1.84s5.72-.82,5.72-1.84V100Z"/><ellipse class="cls-24" cx="128.85" cy="100.02" rx="5.77" ry="1.84"/><path class="cls-23" d="M134.08,97.88a15.63,15.63,0,0,0-7.92,0h-1.8v1.24h0a.32.32,0,0,0,0,.09c0,1,2.58,1.83,5.77,1.83s5.72-.82,5.72-1.83V97.88Z"/><ellipse class="cls-24" cx="130.13" cy="97.88" rx="5.77" ry="1.84"/><path class="cls-23" d="M119,97.83a13.73,13.73,0,0,0-4-.51,13.93,13.93,0,0,0-4,.51h-1.8v1.24h0a.32.32,0,0,0,0,.09c0,1,2.58,1.83,5.77,1.83s5.72-.82,5.72-1.83V97.83Z"/><ellipse class="cls-24" cx="115.07" cy="97.83" rx="5.77" ry="1.84"/><path class="cls-23" d="M120.74,96.13a14,14,0,0,0-3.95-.51,14.35,14.35,0,0,0-4,.51H111v1.25h0s0,.05,0,.08c0,1,2.58,1.84,5.76,1.84s5.72-.83,5.72-1.84V96.13Z"/><ellipse class="cls-24" cx="116.79" cy="96.13" rx="5.77" ry="1.84"/><path class="cls-23" d="M120,93.63a14.15,14.15,0,0,0-4-.51,14.38,14.38,0,0,0-4,.51h-1.79v1.25h0a.19.19,0,0,0,0,.08c0,1,2.58,1.84,5.77,1.84S121.8,96,121.8,95V93.63Z"/><ellipse class="cls-24" cx="116.08" cy="93.63" rx="5.77" ry="1.84"/><path class="cls-21" d="M82.85,66.25l17.47-.62c.64,0,.65-1,0-1l-17.47.62c-.64,0-.65,1,0,1Z"/><path class="cls-21" d="M82.85,68.59,100.32,68c.64,0,.65-1,0-1l-17.47.61c-.64,0-.65,1,0,1Z"/><line class="cls-22" x1="62.97" y1="44.86" x2="107.38" y2="99.56"/><path class="cls-25" d="M240,70.34c-4,1.88-7.13,5.29-10.88,7.59-11.09,6.82-21.18-.88-21.18-.88"/><path class="cls-26" d="M233.33,70.67c-1-2.64,1.72-6.06,2.9-8.12,2.39-4.15,3.88-8.2,2.81-12.9a5.07,5.07,0,0,1-.16-3c.61-1.57,2.83-1.93,4.29-1.11,1.81,1,2.89,3.4,3.42,5.34.16.81.93,5.37-.08,5.87a47,47,0,0,1,5.76-2.67c3.79-1.46,5.76-2.18,7.09-1.21a3.86,3.86,0,0,1,1.08,4.23,4.82,4.82,0,0,1-1.53,2.16,4.07,4.07,0,0,1,1.8,1.87,4,4,0,0,1-.06,3.64,4.38,4.38,0,0,1-1.12,1.34A3.08,3.08,0,0,1,261.25,68a3.79,3.79,0,0,1-.53,2.93c-2.29,4.15-11.29,6.27-14.2,6.88A62.52,62.52,0,0,1,238.46,79a2.65,2.65,0,0,1-2.66-1.7Z"/><polygon class="cls-27" points="241.17 44.58 243.1 73.76 258.42 72.72 256.5 43.55 241.17 44.58"/><polygon class="cls-28" points="242 44.85 243.06 74.07 258.41 73.5 257.36 44.27 242 44.85"/><polygon class="cls-29" points="242.6 45.63 243.66 74.85 259.01 74.27 257.96 45.05 242.6 45.63"/><polygon class="cls-30" points="244.1 47.01 245.05 73.47 257.52 73 256.57 46.54 244.1 47.01"/><path class="cls-26" d="M248.92,63.87a2.11,2.11,0,0,1,.88-.84c1.33-.64,7.15-2.58,7.15-2.58s-5.08,1.21-7,.83c-.66.09-1.17-.73-1.23-1a2.24,2.24,0,0,1,.09-1.85,3.43,3.43,0,0,1,.81-1,16.38,16.38,0,0,1,4.12-2.56c.56-.27,3.34-2.3,3.95-2.31,1,0,1.45.09,1.8,1.15.22.66-.75,4.58-.75,5.28,0,1,.56.41.55,1.44,0,.75-.18,4.53-.05,5.27a17.71,17.71,0,0,1,.52,3.49,3.89,3.89,0,0,1,0,1.08,1.61,1.61,0,0,1-.61.88,3.6,3.6,0,0,1-1.33.51l-3.33.77a4.46,4.46,0,0,1-2.58.09,2.73,2.73,0,0,1-1.54-1.66,1.64,1.64,0,0,1,.12-1.5,1.49,1.49,0,0,1,.65-.43l.19-.08c1.82-.72,4.92-1.16,6.63-2.17-2.21.24-5.25,1.21-7.47,1.21a2.79,2.79,0,0,1-1.12-.14c-.24-.14-.37-.11-.52-.37a3.2,3.2,0,0,1-.31-2.13C248.61,64.73,248.8,64.31,248.92,63.87Z"/><path class="cls-25" d="M283.26,84.79s13.76-.61,23.82-5.57"/><path class="cls-17" d="M268.24,73.94l-.1,0a1.83,1.83,0,0,0-2.07,1.56h0a2.08,2.08,0,0,0,1.44,2.41l2.37.59a5.83,5.83,0,0,0-1.16.24l-12,1a2,2,0,0,0,.35,4l7.22-.62c-.19.5-.06.16-.15.68l-8.77.72a2,2,0,0,0,.35,4l8.39-.71c.18.57-.22.16.09.67l-7,.59a2.07,2.07,0,0,0,.37,4.1l11.65.51s10.5-1,11.17-1.16c4-.57,7.49-3.75,7-7.81A7.83,7.83,0,0,0,282,77.89"/><path class="cls-31" d="M271.77,79.82s.07,5.41,3.88,8.4"/></svg>