<svg id="Layer_1" data-name="Layer 1" xmlns="http://www.w3.org/2000/svg" viewBox="0 0 355.54 301.2"><defs><style>.cls-1{fill:#00a0cc;}.cls-2{fill:#56c4cf;}.cls-3{fill:#4f4a47;}.cls-4{fill:none;stroke:#0d3f60;stroke-linecap:round;stroke-miterlimit:10;stroke-width:2.49px;}.cls-5{fill:#0d3f60;}.cls-6{fill:#fff;}.cls-7{fill:#ed144c;}.cls-8{fill:#a1cbec;}</style></defs><polyline class="cls-1" points="146.78 224.16 157.6 301.04 163.88 301.04 174.69 224.4"/><polyline class="cls-1" points="183.19 223.8 194 300.68 200.28 300.68 211.09 224.04"/><polygon class="cls-2" points="163.99 299.01 167.26 277 153.44 277 157.22 298.69 163.99 299.01"/><polygon class="cls-2" points="200.16 299.01 203.44 277 190.84 277 193.4 298.69 200.16 299.01"/><path class="cls-3" d="M171.17,301.4a14.84,14.84,0,1,0-29.68,0"/><path class="cls-3" d="M219.19,301.4a14.84,14.84,0,0,0-29.68,0"/><path class="cls-1" d="M223.34,219.69c12.31-13.82,17.67-32.3,23.12-49.6,7-22.17,14-44.61,19.48-67.17,5.09-20.77,11.23-43.73,4-64.74C262.48,16.63,244,6.39,222.41,6c-19.21-.38-38.42-.77-57.63-.59-14.78.15-36.9-3.06-50,4.65-14.68,8.63-26.41,20.85-29.93,38-2.76,13.5-.94,27.53,2.11,41,8.25,36.27,21.86,71.54,35.39,106.1,10.9,27.81,31.17,41.66,52.63,41.66,12.25,0,25.41-.62,36.51-6.51C216.42,227.61,219.54,224,223.34,219.69Z"/><line class="cls-4" x1="147.98" y1="60.03" x2="165.95" y2="57.22"/><line class="cls-4" x1="211.31" y1="60.03" x2="193.34" y2="57.22"/><path class="cls-5" d="M196.14,89.55s-2.95,9.48-17.48,9.19S163,89.55,163,89.55Z"/><path class="cls-6" d="M187,77.85c0-6.61,5.72-12,12.77-12s12.77,5.36,12.77,12"/><path class="cls-5" d="M194.32,77.85a5.55,5.55,0,1,1,11.1,0"/><path class="cls-6" d="M149.07,77.85c0-6.61,5.74-12,12.83-12s12.84,5.36,12.84,12"/><path class="cls-5" d="M156.35,77.85a5.56,5.56,0,1,1,11.11,0"/><path class="cls-5" d="M160.73,65.89h0Z"/><path class="cls-5" d="M200.91,65.89h0Z"/><polygon class="cls-1" points="256.82 136.36 246.2 166.65 231.97 128.87 256.82 136.36"/><polygon class="cls-1" points="101.16 138.52 111.67 167.59 122.89 131.03 101.16 138.52"/><polygon class="cls-1" points="101.37 137.75 111.99 168.04 126.22 130.26 101.37 137.75"/><path class="cls-7" d="M272.34,148.88A50.33,50.33,0,0,0,178.26,124a.08.08,0,0,1-.14,0,50.33,50.33,0,1,0-82.24,57.29l5.1,6.44h0l68.53,68.53a11.24,11.24,0,0,0,15.82.07l67.72-66.46h0C264.93,176.05,272.34,165,272.34,148.88Z"/><path class="cls-8" d="M269.1,174.1c2.38,2.14,3.16,6.2,1.65,10.23-1.92,5.14-6.84,8.35-10.93,7.14l-10.09-3-.21-.07-.11,0-13.62-4c-1.07-.32-1.53-1.68-1-3a2.58,2.58,0,0,1,2.86-1.86l7.41,2.19a11,11,0,0,1,.12-2.2l-8.89-2.63c-1.07-.32-1.54-1.67-1-3a2.59,2.59,0,0,1,2.86-1.86l8.89,2.63a12.93,12.93,0,0,1,1.24-1.65l-7.64-2.26c-1.07-.32-1.53-1.67-1-3a2.58,2.58,0,0,1,2.86-1.86l12.73,3.77a6.36,6.36,0,0,1,1.31.18l-2.09-1.65a2.64,2.64,0,0,1-.15-3.43h0c.79-1.19,2.16-1.6,3-.9"/><path class="cls-8" d="M85.89,178.68c-1.66,2.75-1.22,6.86,1.39,10.28,3.33,4.35,9,6,12.53,3.65l8.79-5.79.18-.13.1-.05,11.86-7.82c.93-.61,1-2,.11-3.18a2.58,2.58,0,0,0-3.27-1l-6.46,4.26a11.21,11.21,0,0,0-.75-2.07l7.74-5.1c.93-.62,1-2.05.11-3.19a2.57,2.57,0,0,0-3.27-1l-7.75,5.1a12.61,12.61,0,0,0-1.66-1.22l6.65-4.38c.93-.62,1-2,.11-3.19A2.57,2.57,0,0,0,109,163l-11.09,7.3a6,6,0,0,0-1.2.56l1.52-2.19a2.63,2.63,0,0,0-.85-3.32h0c-1.11-.91-2.53-.91-3.17,0"/></svg>