<svg id="Layer_1" data-name="Layer 1" xmlns="http://www.w3.org/2000/svg" viewBox="0 0 355.54 301.2"><defs><style>.cls-1{fill:#fbad18;}.cls-2{fill:#ffcb05;}.cls-3{fill:#00a0cc;}.cls-4{fill:#00a1cd;}.cls-5{fill:#5652a3;}.cls-6{fill:#504b48;}.cls-10,.cls-7,.cls-8{fill:none;stroke-linecap:round;stroke-miterlimit:10;}.cls-7,.cls-8{stroke:#0d4060;}.cls-7{stroke-width:1.11px;}.cls-8{stroke-width:2.23px;}.cls-9{fill:#0d4060;}.cls-10{stroke:#0f8ab2;stroke-width:6.32px;}.cls-11{fill:#a2cced;}</style></defs><polygon class="cls-1" points="120.05 301.08 131.23 301.08 131.23 252.91 221.26 252.91 221.26 301.08 232.69 301.08 232.69 248.42 232.5 248.42 232.5 238.15 120.05 238.15 120.05 248.56 120.05 301.08"/><path class="cls-2" d="M123.56,215.23h104.7a13.1,13.1,0,0,1,13.1,13.09h0a13.1,13.1,0,0,1-13.1,13.09H123.56a13.09,13.09,0,0,1-13.09-13.09h0A13.09,13.09,0,0,1,123.56,215.23Z"/><path class="cls-3" d="M176.57,1.72C133.42,1.45,98.38,12,98.1,58.05c-.07,11.68,1.39,23.46,2.94,35,1.71,12.82,5.2,25.61,8.45,38.14,1.43,5.5,3,10.33,2.37,16.1a44,44,0,0,1-4.21,14.83c-6.09,12.26-7.77,24.92-3.39,38.08a35.43,35.43,0,0,0,16.83,20c16.56,9.14,23.12,8.72,57,8.92,20.12.13,41.11-1.3,57.69-14.26a44.29,44.29,0,0,0,14.61-20.86c1.65-4.88,1.85-7,2.51-12.06.92-7-1.3-16-3.87-22.34-3.86-9.57-7.57-22.33-4.92-32.77,6.15-24.35,10.11-56.46,10.19-68.82C254.63,12,219.71,2,176.57,1.72"/><polyline class="cls-4" points="142.21 220.44 153.57 283.54 165.73 283.76 174.65 221.24"/><polygon class="cls-5" points="164.52 298.98 156.38 298.83 149.28 259.12 169.19 259.49 164.52 298.98"/><polyline class="cls-4" points="175.96 219.86 187.33 282.95 199.48 283.18 208.41 220.65"/><polygon class="cls-5" points="198.27 298.39 190.13 298.24 183.04 258.54 202.94 258.9 198.27 298.39"/><path class="cls-6" d="M144.51,301c0-8.63,6.61-15.62,14.72-15.62S174,292.38,174,301"/><path class="cls-6" d="M179.69,301c0-8.63,6.6-15.62,14.71-15.62s14.76,7,14.73,15.63"/><path class="cls-7" d="M171.23,63c0,5.05-5.37,9.15-12,9.15s-12-4.09-12-9.15"/><path class="cls-7" d="M205.64,63c0,5.05-5.37,9.15-12,9.15s-12-4.09-12-9.15"/><path class="cls-8" d="M188,50.47c12.07-4.95,17.57,3.44,17.57,3.44"/><path class="cls-8" d="M164.89,50.3c-12.73-4.93-17,3.61-17,3.61"/><path class="cls-9" d="M195.65,85s-1.25,4.89-17.22,5-19.21-5-19.21-5Z"/><path class="cls-10" d="M236.2,159.15s22.29,46.68-21.49,54"/><path class="cls-11" d="M193.86,231.5a1.93,1.93,0,0,1-2.34-1.39.83.83,0,0,1,0-.15,2.28,2.28,0,0,1,1.12-2.83l6.7-2.42a8.67,8.67,0,0,1-1.1-1.59l-8,2.94a1.92,1.92,0,0,1-2.35-1.37.94.94,0,0,1,0-.16A2.28,2.28,0,0,1,189,221.7l8-2.94a10.82,10.82,0,0,1,0-1.8L190,219.48a1.93,1.93,0,0,1-2.34-1.42l0-.12a2.29,2.29,0,0,1,1.14-2.83L200.26,211a5.58,5.58,0,0,1,1.08-.57l-2.45,0a2.21,2.21,0,0,1-1.93-2.29h0a2,2,0,0,1,1.69-2.22h.07l13,.16a1.81,1.81,0,0,1,1.32.66,8,8,0,0,1,6.69,6.18c1.31,4.56-.62,9.39-4.3,10.72l-9.1,3.32h-.28Z"/><path class="cls-10" d="M118.6,160.84s-22.29,47.8,21.49,55.09"/><path class="cls-11" d="M160.94,234.31a1.93,1.93,0,0,0,2.34-1.39l0-.14a2.27,2.27,0,0,0-1.12-2.83l-6.69-2.43a8.67,8.67,0,0,0,1.1-1.59l8,2.95A1.93,1.93,0,0,0,167,227.5c0-.05,0-.1,0-.16a2.28,2.28,0,0,0-1.14-2.83l-8-2.94a10.82,10.82,0,0,0,0-1.8l6.88,2.52a1.94,1.94,0,0,0,2.35-1.42l0-.12a2.3,2.3,0,0,0-1.14-2.83l-11.47-4.16a6.42,6.42,0,0,0-1.07-.57l2.45,0a2.2,2.2,0,0,0,1.93-2.28h0a2,2,0,0,0-1.7-2.23h-.06l-13,.17a1.76,1.76,0,0,0-1.32.65,8,8,0,0,0-6.69,6.18c-1.32,4.56.61,9.39,4.3,10.73l9.1,3.31a1.21,1.21,0,0,1,.19,0h.09Z"/></svg>