<svg id="Layer_1" data-name="Layer 1" xmlns="http://www.w3.org/2000/svg" viewBox="0 0 355.54 301.2"><defs><style>.cls-1,.cls-11,.cls-12,.cls-13,.cls-3,.cls-7{fill:none;stroke-miterlimit:10;}.cls-1{stroke:#108ab2;stroke-width:5.66px;}.cls-1,.cls-11,.cls-12,.cls-13,.cls-7{stroke-linecap:round;}.cls-2{fill:#a1cbec;}.cls-3{stroke:#87b4d3;stroke-width:1.21px;}.cls-4{fill:#00a0cc;}.cls-5{fill:#ec1651;}.cls-6{fill:#4f4a47;}.cls-11,.cls-7{stroke:#0d3f60;}.cls-7{stroke-width:2.43px;}.cls-8{fill:#0d3f60;}.cls-9{fill:#fff;}.cls-10{fill:#56c4cf;}.cls-11{stroke-width:1.82px;}.cls-12{stroke:#231f20;stroke-width:1.32px;}.cls-13{stroke:#0a8ab2;stroke-width:4.47px;}.cls-14{fill:#d5ba76;}.cls-15{fill:#969e9b;}.cls-16{fill:#c9a362;}.cls-17{fill:#696d6e;}</style></defs><path class="cls-1" d="M191.76,162s-13.76,13.85-49.2-8.88"/><path class="cls-2" d="M149.89,152.49c.64-2.47-2.1-5.32-3.35-7.06-2.53-3.53-4.24-7.05-3.7-11.39a4.75,4.75,0,0,0-.12-2.7c-.69-1.35-2.73-1.47-4-.59-1.55,1.08-2.33,3.32-2.61,5.12-.11.74-.35,4.88.6,5.29a40,40,0,0,0-5.43-1.89c-3.55-1-5.39-1.44-6.51-.45a3.48,3.48,0,0,0-.59,3.88,4.57,4.57,0,0,0,1.57,1.81,3.64,3.64,0,0,0-1.06,5.07,4.06,4.06,0,0,0,1.13,1.1,2.79,2.79,0,0,0-1.38,1.82,3.46,3.46,0,0,0,.77,2.6c2.44,3.54,10.75,4.64,13.47,4.93a56.52,56.52,0,0,0,7.37.29,2.41,2.41,0,0,0,2.26-1.8Q149.1,155.51,149.89,152.49Z"/><path class="cls-3" d="M135.87,142.23s2,2.69.73,3.76-10.82-1.48-10.82-1.48"/><path class="cls-3" d="M135.53,146.54s4.45,3.84,1.06,5.49c-1.47.72-10.82-1.48-10.82-1.48"/><path class="cls-3" d="M135.1,152.34s2,2.7.74,3.77-8.41-.8-8.41-.8"/><path class="cls-4" d="M161,162.93c0-42.25,20.57-83.27,47.21-112.53,68.67-75.46,145.13,33.48,145.13,116,0,60.92-47.28,75.69-94.59,75.69S161,223.86,161,162.93"/><polyline class="cls-4" points="226.44 236.79 235.83 298.53 243.62 298.53 254.88 239.27"/><polygon class="cls-5" points="243.73 299.21 247.71 277 232.55 277 235.58 296.75 243.73 299.21"/><path class="cls-6" d="M244,299.81a13.11,13.11,0,1,0-26.21,0"/><polyline class="cls-4" points="261.31 236.79 270.7 298.53 278.49 298.53 289.75 239.27"/><polygon class="cls-5" points="278.6 299.21 282.58 277 267.42 277 270.45 296.75 278.6 299.21"/><path class="cls-6" d="M278.84,299.81a13.11,13.11,0,1,0-26.21,0"/><path class="cls-7" d="M197.28,74.58s2.89-10.13,14-6.5"/><path class="cls-7" d="M256.54,72.57S253,63,242.84,68.7"/><path class="cls-8" d="M244,101s-2.76,9.3-17,9.21-15.43-8.77-15.43-8.77Z"/><path class="cls-9" d="M233.72,89.71C233.64,83.26,239.15,78,246,77.86s12.54,5.06,12.63,11.52"/><path class="cls-8" d="M236.43,89.68a5.42,5.42,0,1,1,10.84-.15"/><path class="cls-9" d="M196.65,90.22c-.09-6.46,5.45-11.77,12.38-11.86s12.6,5.06,12.69,11.52"/><path class="cls-8" d="M201.56,90.15A5.42,5.42,0,1,1,212.4,90"/><path class="cls-8" d="M197.66,84.69l-6.52-2.77L197,86.86c-.07.28-.12.55-.17.82l-5.63-.7,5.4,2.44a12.52,12.52,0,0,0,0,1.3c2.87-10.61,8.87-12.09,10.59-12.3C201.58,78.67,198.92,81.68,197.66,84.69Z"/><path class="cls-8" d="M207.1,78.42c.17,0,.31,0,.48,0A4,4,0,0,0,207.1,78.42Z"/><path class="cls-8" d="M264.25,86l-5.61.85c-.06-.26-.11-.53-.19-.82l5.68-5.09-6.45,2.94c-1.34-3-4.08-5.91-9.61-6,1.73.16,7.77,1.49,10.92,12,0,0,0-.52-.08-1.31Z"/><path class="cls-8" d="M245.55,77.9c-.3,0-.49,0-.49,0C245.23,77.87,245.38,77.89,245.55,77.9Z"/><polyline class="cls-4" points="49.22 238.32 55.83 292.02 62.44 292.02 69.39 231.61"/><polygon class="cls-10" points="61.97 298.81 55.74 298.81 53.23 269.29 65.3 269.29 61.97 298.81"/><path class="cls-6" d="M55.83,299.65a9.73,9.73,0,1,1,19.45,0"/><path class="cls-4" d="M79,83.6,66.85,81.35A40.85,40.85,0,0,0,19.2,114l-.52,2.81c-.75,2.78-1.37,5.57-1.88,8.32L2.93,199.69a40.85,40.85,0,0,0,32.69,47.65l12.13,2.26A40.86,40.86,0,0,0,95.4,216.91l.53-2.82c.74-2.77,1.36-5.57,1.87-8.31l13.88-74.53A40.87,40.87,0,0,0,79,83.6Z"/><path class="cls-8" d="M82.87,148.61s-2.79,4.87-11.76,3-8.77-6.83-8.77-6.83Z"/><path class="cls-11" d="M46.45,116.35s4.25-5.69,10.36-.75"/><path class="cls-11" d="M105.68,127.27s-1.08-6.81-8.56-4.36"/><path class="cls-12" d="M69,128.77a18.65,18.65,0,1,1-15-21.72A18.66,18.66,0,0,1,69,128.77Z"/><path class="cls-12" d="M118.17,137.84a18.65,18.65,0,1,1-15-21.73A18.65,18.65,0,0,1,118.17,137.84Z"/><path class="cls-12" d="M69.35,126.58s7.51-7.18,11.94,2.2"/><path class="cls-9" d="M83.81,136.52c.93-5.55,6.5-9.25,12.42-8.25s10,6.31,9,11.86"/><path class="cls-9" d="M42.31,129.39c.94-5.56,6.53-9.25,12.48-8.25s10,6.32,9.1,11.88"/><path class="cls-8" d="M44.27,124.47l-5.38-3.26,4.44,4.89c-.11.22-.19.42-.28.63l-4.9-1.46,4.45,2.82a9.38,9.38,0,0,0-.23,1c4.11-8,9.65-8.27,11.21-8.16-4.93-.69-7.74,1.3-9.31,3.5"/><path class="cls-8" d="M110.56,137.6l-5.11-.22c0-.22,0-.45,0-.69l5.8-3.17L105,134.84c-.76-2.59-2.76-5.39-7.65-6.35,1.51.4,6.68,2.43,7.93,11.38,0,0,.07-.41.12-1.06Z"/><path class="cls-13" d="M83.49,205.5s14.88,4,19.22-1.77-2.39-18-2.39-18"/><polyline class="cls-4" points="23.89 238.16 30.5 292.02 37.11 292.02 42.63 238.32"/><polygon class="cls-10" points="37.1 298.81 30.86 298.81 27.52 269.29 39.59 269.29 37.1 298.81"/><path class="cls-6" d="M30.39,299.65a9.73,9.73,0,1,1,19.45,0"/><path class="cls-14" d="M86.13,299.58q-1-5.41-2-10.82c-.63-3.36-1.25-6.72-1.89-10.07,0-.31-.07-.68-.41-.86.32-.23.7.05,1-.2,1.6-1.17,3.61-1.34,5.36-2.17,2.53-1.21,5.28-1.9,7.87-3a17.32,17.32,0,0,1,2.54-1,27.45,27.45,0,0,0,4.21-1.44c2-.91,4.22-1.46,6.23-2.42,1.34-.64,2.87-.8,4.17-1.48,1.73-.9,3.63-1.34,5.41-2.07a50.93,50.93,0,0,0,3.5,5.86c2.65,4.37,5.34,8.72,8,13.06.4.65.52,1-.42,1.35-2.94,1-5.84,2.13-8.76,3.2Z"/><path class="cls-15" d="M57,151a2.5,2.5,0,0,1,2.45,1.68c1.77,4.75,7.9,22.61,9.68,27.35,2.56,6.8,16.08,43.5,18.63,50.31,2.71,7.22,5.38,14.46,8.08,21.68,1.12,3,2.28,6,3.38,9,.3.82.59,1,1.51.69,4-1.59,8-3.05,12-4.6,3.49-1.35,5.6-.41,6.75,3.13.11.34.38.65.26,1.05.34,1.47.15,1.94-1.14,2.82a17.51,17.51,0,0,1-3.36,1.23c-1.33.52-2.68,1-4,1.54L102.63,270,92.13,274c-3.09,1.15-6.07,2.07-9,3.47-1.5.71-3,.69-3.9-.83-.31-.75-.65-1.48-.91-2.24a4.09,4.09,0,0,1,2.55-5.27c4.36-1.65,8.72-3.31,13.1-4.91.83-.3.86-.66.58-1.39-3.21-8.53-6.38-17.06-9.58-25.59-3.47-9.25-17.9-48.4-21.37-57.65-1.49-3.95-7.34-21-8.79-25A2.51,2.51,0,0,1,57,151Z"/><path class="cls-2" d="M65.72,210.83a1.45,1.45,0,0,1,0-2.88l4.94,0a5.88,5.88,0,0,1-.41-1.18l-5.94-.05a1.45,1.45,0,0,1,0-2.88l5.94,0a5.21,5.21,0,0,1,.38-1.07l-5.1,0a1.45,1.45,0,0,1,0-2.88l8.5.06a4.49,4.49,0,0,1,.83-.1l-1.63-.56a1.48,1.48,0,0,1-.85-1.8h0a1.29,1.29,0,0,1,1.63-.95l8.67,3a1.31,1.31,0,0,1,.75.69,5.51,5.51,0,0,1,3.26,5.2,5.27,5.27,0,0,1-5,5.47l-6.73,0h-.21Z"/><path class="cls-13" d="M52.85,187.78c-29.83,27-36-13.33-36-13.33"/><path class="cls-2" d="M69.92,181.52a1.44,1.44,0,0,0-1.73-2.29l-4,3a5.77,5.77,0,0,0-.38-1.2l4.74-3.58a1.45,1.45,0,0,0-1.74-2.3l-4.73,3.58a5.22,5.22,0,0,0-1-.63L65.25,175a1.45,1.45,0,0,0-1.74-2.3l-6.78,5.12a3.75,3.75,0,0,0-.72.42l1-1.42a1.49,1.49,0,0,0-.4-2h0a1.29,1.29,0,0,0-1.87.21l-5.16,7.59a1.3,1.3,0,0,0-.19,1,5.5,5.5,0,0,0,.49,6.12,5.26,5.26,0,0,0,7.28,1.4l5.37-4.06.11-.09.06,0Z"/><polygon class="cls-16" points="124.65 286.16 117.39 274.18 122.47 286.98 124.65 286.16"/><polygon class="cls-16" points="114.48 289.77 110.02 282.3 112.07 290.61 114.48 289.77"/><polygon class="cls-16" points="96.31 296.05 91.04 284.25 93.61 296.99 96.31 296.05"/><polygon class="cls-16" points="101.72 294.14 100.32 287.45 103.33 293.58 101.72 294.14"/><path class="cls-17" d="M140.68,276.83a5.39,5.39,0,0,0-2.1.42,4.28,4.28,0,1,0-5.79,5.7,3.86,3.86,0,1,0,5.67,4.34,5.47,5.47,0,1,0,2.22-10.46Z"/><circle class="cls-17" cx="145.79" cy="268.94" r="2.6"/><circle class="cls-17" cx="117.7" cy="288.85" r="2.71"/><path class="cls-8" d="M57.48,121.44A6.11,6.11,0,0,0,64,131.05,10.5,10.5,0,0,0,57.48,121.44Z"/><path class="cls-8" d="M98.77,129.2a6.11,6.11,0,0,0,6.54,9.6A10.48,10.48,0,0,0,98.77,129.2Z"/><path class="cls-1" d="M306.36,154.7S298,189.52,247.1,165.46"/><path class="cls-2" d="M250.24,163.25c-.12-2.55-3.57-4.46-5.28-5.75-3.47-2.63-6.14-5.48-6.91-9.79a4.73,4.73,0,0,0-.91-2.54c-1.06-1.09-3-.6-4,.6-1.15,1.5-1.24,3.87-1,5.67.11.74,1.1,4.77,2.13,4.88a40,40,0,0,0-5.74-.21c-3.69.13-5.59.22-6.36,1.5a3.49,3.49,0,0,0,.59,3.88,4.39,4.39,0,0,0,2,1.26,3.65,3.65,0,0,0,.48,5.17,4.1,4.1,0,0,0,1.41.71,2.77,2.77,0,0,0-.78,2.14,3.39,3.39,0,0,0,1.5,2.26c3.38,2.66,11.64,1.25,14.32.73a55.7,55.7,0,0,0,7.13-1.9,2.4,2.4,0,0,0,1.63-2.38Z"/></svg>