<svg id="Layer_1" data-name="Layer 1" xmlns="http://www.w3.org/2000/svg" viewBox="0 0 355.54 301.2"><defs><style>.cls-1,.cls-11,.cls-15,.cls-16,.cls-17,.cls-3,.cls-5{fill:none;stroke-miterlimit:10;}.cls-1,.cls-11,.cls-17,.cls-3{stroke:#0a8ab2;}.cls-1,.cls-17{stroke-width:5.11px;}.cls-2{fill:#a1cbec;}.cls-11,.cls-3{stroke-width:6.6px;}.cls-4{fill:#00a0cc;}.cls-15,.cls-5{stroke:#0d3f60;}.cls-11,.cls-15,.cls-16,.cls-17,.cls-5{stroke-linecap:round;}.cls-5{stroke-width:2.49px;}.cls-6{fill:#0d3f60;}.cls-7{fill:#fff;}.cls-8{fill:#fbad18;}.cls-9{fill:#56c5d0;}.cls-10{fill:#4f4a47;}.cls-12{fill:#00a1cd;}.cls-13{fill:#5e61ab;}.cls-14{fill:#504b48;}.cls-15{stroke-width:1.74px;}.cls-16{stroke:#231f20;stroke-width:1.26px;}</style></defs><path class="cls-1" d="M78.74,196.38S105,190,110.26,182.69s11.83-17.9,11.83-17.9"/><path class="cls-2" d="M135.55,157.31a1.32,1.32,0,0,0-.59-1.85,1.57,1.57,0,0,0-2.06.24l-2.8,4a6.69,6.69,0,0,0-.85-1l3.36-4.77a1.32,1.32,0,0,0-.58-1.85,1.57,1.57,0,0,0-2.06.24l-3.37,4.78a7.15,7.15,0,0,0-1.19-.3l2.89-4.1a1.33,1.33,0,0,0-.59-1.85,1.57,1.57,0,0,0-2.06.24l-4.82,6.84a4.6,4.6,0,0,0-.56.61l.41-1.61a1.52,1.52,0,0,0-1.16-1.7h0a1.35,1.35,0,0,0-1.8.77l-2.23,8.64a1.27,1.27,0,0,0,.2,1,5.53,5.53,0,0,0,2.89,5.54c2.79,1.68,6.33,1.27,7.88-.93l3.81-5.42.08-.12.05-.05Z"/><path class="cls-3" d="M219.26,168.15s-33.81-8.29-40.64-17.65-15.25-23.09-15.25-23.09"/><path class="cls-2" d="M146,117.77a1.71,1.71,0,0,1,.76-2.38,2,2,0,0,1,2.66.31l3.61,5.14a7.83,7.83,0,0,1,1.1-1.29l-4.34-6.16a1.71,1.71,0,0,1,.76-2.39,2,2,0,0,1,2.65.32l4.34,6.16a7.87,7.87,0,0,1,1.54-.38l-3.73-5.3a1.71,1.71,0,0,1,.76-2.38,2,2,0,0,1,2.66.31l6.21,8.82a5.47,5.47,0,0,1,.73.79l-.54-2.09a2,2,0,0,1,1.5-2.18h0a1.74,1.74,0,0,1,2.32,1l2.88,11.14a1.58,1.58,0,0,1-.26,1.27c.49,2.54-.91,5.44-3.73,7.15-3.58,2.17-8.15,1.64-10.15-1.2l-4.92-7-.1-.15-.06-.07Z"/><path class="cls-4" d="M303.21,232.7C315,219.14,320.1,201,325.3,184c6.67-21.75,13.34-43.77,18.62-65.9,4.86-20.37,10.74-42.9,3.81-63.52C340.62,33.49,323,23.44,302.33,23c-18.36-.38-36.72-.76-55.08-.57-14.12.14-35.26-3-47.8,4.55-14,8.47-25.24,20.45-28.6,37.31-2.64,13.24-.9,27,2,40.18,7.88,35.58,20.89,70.18,33.83,104.08,10.41,27.29,29.78,40.88,50.29,40.88,11.7,0,24.28-.62,34.89-6.39C296.6,240.47,299.58,236.88,303.21,232.7Z"/><line class="cls-5" x1="192.5" y1="75.3" x2="210.47" y2="72.49"/><line class="cls-5" x1="255.82" y1="75.3" x2="237.85" y2="72.49"/><path class="cls-6" d="M240.66,104.81s-3,9.48-17.48,9.18-15.68-9.18-15.68-9.18Z"/><path class="cls-7" d="M231.55,93.11c0-6.6,5.71-12,12.76-12s12.76,5.36,12.76,12"/><path class="cls-6" d="M234.83,93.11a5.55,5.55,0,0,1,11.1,0"/><path class="cls-7" d="M193.59,93.11c0-6.6,5.75-12,12.84-12s12.83,5.36,12.83,12"/><path class="cls-6" d="M196.88,93.11a5.55,5.55,0,1,1,11.1,0"/><path class="cls-6" d="M205.26,81.16h0Z"/><path class="cls-6" d="M245.42,81.16h0Z"/><circle class="cls-8" cx="131.99" cy="86.98" r="21.18"/><path class="cls-4" d="M292.91,242.1c-5.32.37-10.63.93-16,1.4-4.79.42-9.6.76-14.42.83l10.73,20.39c.72,1.22,3.5,6.71,10.35,6.5l34.74.36c1.75.11-2.62-1.46-2.06-3.17l1.83.09c-16.62-6-1.23-5.12,2.81-4.57l-25.79-6.43c-6.2-.4-3.78-5.57-3.51-8.25l2.88-9.18"/><path class="cls-4" d="M224.79,226.17l-9.95,23a12,12,0,0,0-.61,12.51l16.37,32.75c.73,1.67,4.82,2.29,6.54,2.05,2.23-.32,3.43,1.95,3.09-.41l-7.18-30.7c-1.87-4,4-7.31,4.95-8.27l17.2-12.52-.74-.22a22.92,22.92,0,0,1-3.33-1.44c-6.2-1.12-12.23-3.09-18.28-4.81"/><polygon class="cls-9" points="322.46 262.99 318.88 271.25 289.79 271.67 295.14 257.5 322.46 262.99"/><path class="cls-10" d="M310.06,291.76c-7-3.14-9.64-12.23-6-20.31s12.28-12.06,19.25-8.92"/><path class="cls-11" d="M204.11,132.92s15.29,13.6,27,22.78a31.34,31.34,0,0,0,20,6.67c9.67-.21,23.14-.74,27.94-2"/><path class="cls-2" d="M186.73,130.86a1.7,1.7,0,0,1-.16-2.49,2,2,0,0,1,2.58-.68l5.25,3.45a8.38,8.38,0,0,1,.54-1.6l-6.29-4.15a1.7,1.7,0,0,1-.17-2.49,2,2,0,0,1,2.59-.68l6.29,4.14a9.58,9.58,0,0,1,1.3-.92l-5.41-3.56a1.7,1.7,0,0,1-.17-2.49,2,2,0,0,1,2.59-.68l9,5.93a5.74,5.74,0,0,1,1,.46l-1.27-1.74a2,2,0,0,1,.59-2.58h0a1.74,1.74,0,0,1,2.52.07l6.75,9.32a1.58,1.58,0,0,1,.23,1.28c1.39,2.18,1.15,5.38-.85,8-2.54,3.34-7,4.51-9.89,2.6l-7.14-4.7-.14-.11-.09,0Z"/><polygon class="cls-9" points="240.69 295.94 231.33 296.59 217.64 268.14 233.84 267.5 240.69 295.94"/><path class="cls-10" d="M209.74,299.05c0-7.64,7.18-13.82,16-13.8s16.05,6.23,16.05,13.87"/><path class="cls-12" d="M54.78,251.05v-.76l13.62,10.28c.68.89,5,4.22,3,7.19l-9.29,23.7a3.43,3.43,0,0,0,2.2,4.3h0a3.16,3.16,0,0,0,3.56-1.4l19-27.35a9.7,9.7,0,0,0,1-10.09l-10-13.4c-.4-1,2.12-4.2,1.08-4.42"/><path class="cls-12" d="M24.12,239l-4.7-3.25,14.89,23.33c-.11,1.14,2.44,5.82-2.42,7.06l-18.65,8.95c3.12-1,15.22-4,2.91,3.21l1.44-.34c.71,1.27-2.54,3.17-1.16,2.82L44,275.35c5.46-.86,6.87-5.63,7.25-6.7l1.62-17.1c.39-1.06,4.24-1.52,3.65-2.47"/><path class="cls-12" d="M36.49,241.89c-16.56-4.15,8,2.59,8.14,2.65"/><polygon class="cls-13" points="60.96 294.65 68.48 297.13 81.54 275.14 70.37 270.4 60.96 294.65"/><path class="cls-14" d="M80.62,299.51c0-6.17-4.74-11.15-10.53-11.11s-10.47,5.06-10.44,11.23"/><polygon class="cls-13" points="12.07 274.92 16.06 280.8 39.1 276.62 32.35 265.71 12.07 274.92"/><path class="cls-14" d="M22.59,294a11.7,11.7,0,0,0,3.84-15.35,10.05,10.05,0,0,0-13.58-4.2,8.85,8.85,0,0,0-.78.46"/><path class="cls-4" d="M60.87,91.12,49.1,90.7A39,39,0,0,0,8.73,128.32l-.1,2.73c-.31,2.73-.5,5.45-.6,8.12L5.48,211.51A39,39,0,0,0,43.1,251.88l11.77.41a39,39,0,0,0,40.37-37.61l.1-2.74c.31-2.72.5-5.45.59-8.11l2.56-72.34A39,39,0,0,0,60.87,91.12Z"/><path class="cls-6" d="M76.13,152.71s-1.94,5-10.67,4.55S56.21,152,56.21,152Z"/><path class="cls-15" d="M37.18,127.4s3.2-6,9.67-2.17"/><path class="cls-15" d="M94.66,129.33s-2-6.28-8.7-2.91"/><path class="cls-16" d="M60.21,135.94A17.81,17.81,0,1,1,43,117.54,17.81,17.81,0,0,1,60.21,135.94Z"/><path class="cls-16" d="M108,137.54a17.81,17.81,0,1,1-17.21-18.4A17.82,17.82,0,0,1,108,137.54Z"/><path class="cls-16" d="M60.25,133.82s6.08-7.85,11.59.38"/><path class="cls-7" d="M75.31,141.16c.1-5.38,4.83-9.66,10.56-9.55s10.32,4.54,10.22,9.92"/><path class="cls-7" d="M35.11,140.3c.1-5.38,4.86-9.66,10.63-9.55S56.1,135.29,56,140.67"/><path class="cls-6" d="M36.27,135.38l-5.55-2.32,4.89,4c-.07.23-.12.44-.17.65L30.6,137l4.6,2a9.81,9.81,0,0,0-.07,1c2.74-8.17,7.95-9.17,9.44-9.29-4.76.05-7.14,2.33-8.3,4.63"/><path class="cls-6" d="M100.73,138.39l-4.86.52c0-.21-.09-.42-.14-.65l5-3.81-5.63,2.12c-1.08-2.34-3.37-4.7-8.12-4.92,1.48.17,6.65,1.36,9.09,9.63a8.66,8.66,0,0,0,0-1Z"/><path class="cls-6" d="M48.31,130.65a5.83,5.83,0,0,0,7.54,8.14A10,10,0,0,0,48.31,130.65Z"/><path class="cls-6" d="M88.4,132.13a5.83,5.83,0,0,0,7.54,8.14A10,10,0,0,0,88.4,132.13Z"/><path class="cls-17" d="M90.49,176.06S78.64,186.6,69.55,193.72A24.24,24.24,0,0,1,54,198.9a99.15,99.15,0,0,1-19.67-2.56"/><path class="cls-2" d="M104,174.47a1.34,1.34,0,0,0,.13-1.94,1.58,1.58,0,0,0-2-.53L98,174.68a6,6,0,0,0-.42-1.24l4.88-3.21a1.32,1.32,0,0,0,.13-1.94,1.56,1.56,0,0,0-2-.53L95.72,171a7,7,0,0,0-1-.72l4.19-2.76a1.31,1.31,0,0,0,.13-1.93,1.55,1.55,0,0,0-2-.53l-7,4.6a4.3,4.3,0,0,0-.75.36l1-1.35a1.54,1.54,0,0,0-.46-2h0a1.35,1.35,0,0,0-1.95.06l-5.24,7.23a1.18,1.18,0,0,0-.18,1,5.5,5.5,0,0,0,.66,6.21c2,2.59,5.42,3.5,7.66,2l5.54-3.64.12-.09.06,0Z"/></svg>