<svg id="Layer_1" data-name="Layer 1" xmlns="http://www.w3.org/2000/svg" viewBox="0 0 355.54 301.2"><defs><style>.cls-1,.cls-10,.cls-11,.cls-13,.cls-15,.cls-3,.cls-7,.cls-8{fill:none;stroke-miterlimit:10;}.cls-1,.cls-13,.cls-7{stroke:#108ab2;}.cls-1,.cls-10,.cls-11,.cls-13,.cls-15,.cls-7,.cls-8{stroke-linecap:round;}.cls-1{stroke-width:5.21px;}.cls-2{fill:#a1cbec;}.cls-3{stroke:#87b4d3;stroke-width:0.88px;}.cls-4{fill:#00a0cc;}.cls-5{fill:#56c4cf;}.cls-6{fill:#4f4a47;}.cls-7{stroke-width:4.9px;}.cls-10,.cls-15,.cls-8{stroke:#0d3f60;}.cls-8{stroke-width:1.24px;}.cls-9{fill:#0d3f60;}.cls-10{stroke-width:1.84px;}.cls-11{stroke:#231f20;stroke-width:1.33px;}.cls-12{fill:#fff;}.cls-13{stroke-width:4.2px;}.cls-14{fill:#ec1651;}.cls-15{stroke-width:2.57px;}</style></defs><path class="cls-1" d="M206.91,148.14s-20.12,4.08-37.85-36.47"/><path class="cls-2" d="M158.59,114.88c1.86,3.59,7.29,4.84,12.06,2.78,3.75-1.62,6-4.82,5.91-7.86l-.74-14.89c-.1-1.06-1.28-1.72-2.61-1.48s-1.89.94-1.78,2l0,4.15a24.88,24.88,0,0,0-1-2.3l-4.93-11.49a2.45,2.45,0,0,0-3.15-.72c-1.24.54-1.87,1.75-1.38,2.68l2.6,7c-.64,0-.77-.17-1.42,0l-3.36-8.35a2.44,2.44,0,0,0-3.15-.72c-1.25.53-1.87,1.74-1.38,2.68l3.35,8.35c-.58.42-.4.37-.86.86l-2.68-5.62A2.44,2.44,0,0,0,151,91.2c-1.25.54-1.49,1.81-.87,3.52l4.22,10.66"/><path class="cls-3" d="M170.52,105.53s-3.48-6.22-12.86-3.22"/><polyline class="cls-4" points="52.91 227.26 60.55 289.32 68.19 289.32 76.23 219.5"/><polygon class="cls-5" points="67.65 297.17 60.45 297.17 57.54 263.05 71.49 263.05 67.65 297.17"/><path class="cls-6" d="M60.55,298.13a11.24,11.24,0,1,1,22.48,0"/><polyline class="cls-4" points="23.63 227.06 31.27 289.32 38.91 289.32 45.29 227.26"/><polygon class="cls-5" points="38.9 297.17 31.69 297.17 27.83 263.05 41.78 263.05 38.9 297.17"/><path class="cls-6" d="M31.15,298.13a11.24,11.24,0,0,1,22.48,0"/><path class="cls-7" d="M135.74,110s-7.88,27.75-46,42.64"/><path class="cls-2" d="M128.32,108.14c-.63,3.3,2.29,6.92,6.47,8,3.29.87,6.42-.06,7.92-2.1l7.18-10.14a1.7,1.7,0,0,0-.95-2.32c-1-.53-1.71-.35-2.19.39l-2.11,2.75a20.71,20.71,0,0,0,.53-2l2.69-10.06a2.05,2.05,0,0,0-1.69-2.1,1.72,1.72,0,0,0-2.29,1L142,97.55c-.43-.32-.41-.6-.9-.85l2.09-7.19a2,2,0,0,0-1.69-2.1,1.73,1.73,0,0,0-2.29,1l-2.1,7.19a6.67,6.67,0,0,0-1.49.09l1.38-5a1.84,1.84,0,0,0-1.44-2.1,1.72,1.72,0,0,0-2.29,1l-2.83,10"/><path class="cls-8" d="M146.62,67.59c.2,4,.4,8,.61,12"/><path class="cls-8" d="M136.38,73.21,142,81.39"/><path class="cls-8" d="M157.25,71.88l-4.59,8.84"/><path class="cls-4" d="M66.22,69.24l-12.45-1a41.39,41.39,0,0,0-44.51,38L9,109.17c-.46,2.88-.78,5.76-1,8.58L2,194.29a41.38,41.38,0,0,0,38,44.5l12.46,1a41.38,41.38,0,0,0,44.5-38l.23-2.89c.46-2.87.78-5.75,1-8.57l6-76.55A41.39,41.39,0,0,0,66.22,69.24Z"/><path class="cls-9" d="M79.58,135.21s-2.29,5.2-11.51,4.33-9.57-5.95-9.57-5.95Z"/><path class="cls-10" d="M39.46,106.61s3.67-6.19,10.35-1.86"/><path class="cls-10" d="M100.28,111.28s-1.81-6.74-9.08-3.48"/><path class="cls-11" d="M63.48,116.71A18.9,18.9,0,1,1,46.09,96.43,18.89,18.89,0,0,1,63.48,116.71Z"/><path class="cls-11" d="M114,120.59A18.9,18.9,0,1,1,96.6,100.3,18.89,18.89,0,0,1,114,120.59Z"/><path class="cls-11" d="M63.61,114.46s6.8-8,12.27.94"/><path class="cls-12" d="M79.24,122.93c.35-5.69,5.56-10,11.63-9.64s10.72,5.29,10.37,11"/><path class="cls-12" d="M36.68,120.18c.35-5.7,5.59-10,11.69-9.64s10.78,5.3,10.44,11"/><path class="cls-9" d="M38.13,115l-5.77-2.72,5,4.46c-.08.23-.14.45-.2.67l-5.1-1,4.78,2.37c-.1.65-.12,1.07-.12,1.07,3.28-8.54,8.84-9.36,10.42-9.42-5-.16-7.66,2.14-9,4.53"/><path class="cls-9" d="M106.3,121.16l-5.17.33q0-.34-.12-.69L106.5,117l-6.06,2c-1-2.53-3.35-5.13-8.38-5.58,1.56.25,7,1.74,9.2,10.61a8.4,8.4,0,0,0,0-1.07Z"/><path class="cls-9" d="M51.11,110.56a6.19,6.19,0,0,0,7.62,9A10.6,10.6,0,0,0,51.11,110.56Z"/><path class="cls-9" d="M93.52,114a6.19,6.19,0,0,0,7.62,9A10.6,10.6,0,0,0,93.52,114Z"/><path class="cls-13" d="M21.18,214.28s-9.27-19.24-2-49.95"/><path class="cls-2" d="M14.34,217.59c-.08-3.23,3.25-6.2,7.38-6.58,3.26-.31,6.07,1.07,7.17,3.24L34.09,225c.34.78-.23,1.69-1.26,2s-1.68.06-2-.72l-1.56-2.93a19.35,19.35,0,0,1,.18,2l1,9.95A2,2,0,0,1,28.46,237c-1.08.1-2-.51-2-1.35l-.87-5.92c-.46.23-.48.5-1,.65l.85,7.15a2,2,0,0,1-1.93,1.72c-1.08.1-2-.51-2-1.36l-.86-7.14a6.34,6.34,0,0,1-1.4-.31l.52,5a1.76,1.76,0,0,1-1.7,1.76c-1.08.1-2-.51-2-1.35l-1.09-10"/><path class="cls-4" d="M258,1.22c-45,3.31-80.54,17.64-76.88,67.42.93,12.63,3.46,25.24,6.06,37.59,2.89,13.71,7.62,27.25,12.08,40.51,2,5.83,4,10.93,3.85,17.21a49.21,49.21,0,0,1-3.1,16.37c-5.3,13.76-6,27.58-.27,41.44A38.14,38.14,0,0,0,219,242c18,8.5,24.82,7.49,60.17,4.89,21-1.54,42.71-4.83,58.87-20.21a48.16,48.16,0,0,0,13.42-23.77c1.29-5.41,1.32-7.71,1.57-13.24.36-7.64-2.72-17.15-5.94-23.82-4.84-10-9.81-23.5-7.95-35,4.32-26.82,5.69-61.85,4.71-75.22C340.14,5.88,302.92-2.09,258,1.22"/><polyline class="cls-4" points="242.9 246.1 249.25 296.11 256.86 296.11 263.21 246.26"/><polygon class="cls-14" points="256.61 297.25 259.54 276.23 246.39 276.23 249 295.51 256.61 297.25"/><path class="cls-6" d="M257.2,298.5a12.8,12.8,0,1,0-25.6,0"/><polyline class="cls-4" points="279.68 245.83 286.03 295.84 293.64 295.84 300 241.04"/><polygon class="cls-14" points="293.39 297.25 296.32 276.23 283.18 276.23 285.79 295.51 293.39 297.25"/><path class="cls-6" d="M294,298.5a12.8,12.8,0,0,0-25.6,0"/><path class="cls-15" d="M203.62,66.74s4.17-10.3,15.38-5.23"/><path class="cls-15" d="M266.59,62.11s-4.33-9.87-14.68-3.22"/><path class="cls-9" d="M255.17,92.84s-2.32,10-17.27,10.76-16.81-8.26-16.81-8.26Z"/><path class="cls-12" d="M243.64,81.6c-.5-6.79,5-12.73,12.21-13.26s13.53,4.54,14,11.33"/><path class="cls-9" d="M246.48,81.39a5.73,5.73,0,1,1,11.42-.84"/><path class="cls-12" d="M204.63,84.47c-.5-6.79,5-12.73,12.29-13.27S230.51,75.74,231,82.53"/><path class="cls-9" d="M209.8,84.09a5.72,5.72,0,1,1,11.41-.84"/><path class="cls-9" d="M205.35,78.58l-7-2.5,6.44,4.83c-.06.31-.09.6-.13.88l-6-.38,5.85,2.23c0,.84,0,1.37,0,1.37,2.35-11.35,8.58-13.3,10.37-13.62C209.1,72,206.48,75.34,205.35,78.58Z"/><path class="cls-9" d="M214.89,71.39l.51-.08Z"/><path class="cls-9" d="M275.56,75.75,269.7,77c-.08-.28-.16-.56-.26-.85l5.66-5.73-6.6,3.51c-1.6-3-4.68-6-10.5-5.72,1.83.06,8.27,1.08,12.26,12,0,0,0-.54-.16-1.36Z"/><path class="cls-9" d="M255.34,68.41h-.51C255,68.4,255.17,68.42,255.34,68.41Z"/><path class="cls-1" d="M319.85,147.17s9.63,18.12-24.2,46.65"/><path class="cls-2" d="M296.32,204.34c3.1-2.6,3.13-8.17.07-12.37-2.4-3.31-6-4.81-9-4.05l-14.37,4c-1,.33-1.4,1.62-.87,2.87s1.33,1.63,2.34,1.3l4.05-1a23.37,23.37,0,0,0-2,1.47l-10.13,7.32a2.46,2.46,0,0,0,0,3.24c.8,1.1,2.12,1.44,2.92.76l6.28-4.08c.16.62,0,.79.27,1.4l-7.41,5.1a2.47,2.47,0,0,0,0,3.24,2.07,2.07,0,0,0,2.92.76l7.41-5.1c.53.48.45.31,1,.65l-4.9,3.84a2.46,2.46,0,0,0,0,3.24c.8,1.1,2.09,1.05,3.62.08l9.48-6.46"/></svg>