<?xml version="1.0" encoding="UTF-8"?>
<svg xmlns="http://www.w3.org/2000/svg" xmlns:xlink="http://www.w3.org/1999/xlink" viewBox="0 0 1334 1000">
  <defs>
    <style>
      .cls-1 {
        fill: #131429;
      }

      .cls-2 {
        fill: #fdc642;
      }

      .cls-3 {
        fill: #18536d;
      }

      .cls-4 {
        fill: #101931;
      }

      .cls-5 {
        fill: #52656c;
      }

      .cls-6 {
        fill: #0e0c0c;
      }

      .cls-7 {
        fill: #67402e;
      }

      .cls-8 {
        fill: #010101;
      }

      .cls-9 {
        fill: #777;
      }

      .cls-10 {
        fill: #282b2b;
      }

      .cls-11 {
        fill: #653c29;
      }

      .cls-12 {
        stroke: #4f2f26;
        stroke-width: .3px;
      }

      .cls-12, .cls-13 {
        stroke-miterlimit: 10;
      }

      .cls-12, .cls-14 {
        fill: #4f2f26;
      }

      .cls-15, .cls-16, .cls-17, .cls-18 {
        fill: #231f20;
      }

      .cls-19 {
        fill: #715446;
      }

      .cls-20 {
        fill: #002935;
      }

      .cls-21 {
        fill: #27153c;
      }

      .cls-22 {
        fill: #f1eef7;
      }

      .cls-23 {
        opacity: .15;
      }

      .cls-23, .cls-24 {
        fill: #fff;
      }

      .cls-25 {
        fill: #745245;
      }

      .cls-16 {
        font-size: 71.38px;
      }

      .cls-16, .cls-17, .cls-18 {
        font-family: ArialMT, Arial;
      }

      .cls-26 {
        fill: #4b2b18;
      }

      .cls-17 {
        font-size: 42.43px;
      }

      .cls-18 {
        font-size: 42.43px;
      }

      .cls-27 {
        fill: #a66e53;
      }

      .cls-28 {
        fill: #0a2f44;
      }

      .cls-13 {
        fill: none;
        opacity: .51;
        stroke: #fff;
        stroke-width: 2.06px;
      }

      .cls-29 {
        fill: #c95744;
      }

      .cls-30 {
        fill: url(#linear-gradient);
        opacity: .5;
      }

      .cls-31 {
        fill: #a66f54;
      }

      .cls-32 {
        fill: #5e1a15;
      }

      .cls-33 {
        fill: #528293;
      }

      .cls-34 {
        fill: #7b5342;
      }

      .cls-35 {
        fill: #59341c;
      }

      .cls-36 {
        fill: #513835;
      }

      .cls-37 {
        fill: #b5b5b6;
      }

      .cls-38 {
        fill: #383838;
      }

      .cls-39 {
        fill: #f2ebd1;
      }

      .cls-40 {
        fill: #545a5c;
      }

      .cls-41 {
        fill: #24180f;
      }

      .cls-42 {
        fill: #628e9f;
      }

      .cls-43 {
        fill: #61686c;
      }

      .cls-44 {
        fill: #381c13;
      }

      .cls-45 {
        fill: #eb9944;
      }

      .cls-46 {
        fill: #4f2e25;
      }

      .cls-47 {
        fill: #999;
      }
    </style>
    <linearGradient id="linear-gradient" x1="-949.54" y1="3277.85" x2="175.83" y2="3277.85" gradientTransform="translate(-2634.44 913.41) rotate(90) scale(1 -1)" gradientUnits="userSpaceOnUse">
      <stop offset="0" stop-color="#f0ebe0"/>
      <stop offset=".18" stop-color="#eee8dd" stop-opacity=".99"/>
      <stop offset=".33" stop-color="#e8e1d4" stop-opacity=".97"/>
      <stop offset=".46" stop-color="#ded4c5" stop-opacity=".93"/>
      <stop offset=".59" stop-color="#d0c2b0" stop-opacity=".88"/>
      <stop offset=".72" stop-color="#bdab95" stop-opacity=".82"/>
      <stop offset=".84" stop-color="#a78e73" stop-opacity=".73"/>
      <stop offset=".96" stop-color="#8d6d4d" stop-opacity=".64"/>
      <stop offset="1" stop-color="#83603d" stop-opacity=".6"/>
    </linearGradient>
  </defs>
  <g id="Layer_2" data-name="Layer 2">
    <polyline class="cls-39" points="1373.34 1076.79 1373.34 -71.12 -86.54 -71.12 -86.54 1076.79"/>
    <polyline class="cls-30" points="1373.34 1085.52 -86.54 1085.52 -86.54 -39.85 1373.34 -39.85"/>
    <path class="cls-27" d="M854.2,490.04l2.44,28.46-6.3,12.61-8.38,11.41-21.24,13.53s-3.23-1.08.57-6.04c3.66-4.3,7.68-8.38,12.03-12.2l3.76-14.04-2.78-6.73-4.16.21s-1.07,18.07-4.28,21.35c-.56.57-1.03,1.04-1.43,1.43-1.11,1.09-2.91.98-3.9-.23l-1.46-1.78,2.52-26.77s3.11-11.54,4.23-14.21c1.44-2.6,3.82-6.33,5.72-8.72l.82-13.65,21.32,1.66.51,13.72Z"/>
    <path class="cls-42" d="M825.72,188.95c2.88,1.44,44.93,23.84,49.1,47.95,4.17,24.11-8.37,103.46-7.22,124.45,1.68,24.49-3.23,69.59-3.37,75.62l-4.19,45.07-25.97-2.02s8.07-135.32-.1-169.23c-8.18-33.92-8.24-121.83-8.24-121.83Z"/>
  </g>
  <g id="Layer_1" data-name="Layer 1">
    <polyline class="cls-19" points="-100.8 1104.89 1373.34 1104.89 1373.34 961.84 -100.8 961.84"/>
    <rect class="cls-10" x="855.07" y="600.16" width="15.27" height="5.99"/>
    <rect class="cls-10" x="1082.36" y="600.16" width="15.27" height="5.99"/>
    <rect class="cls-10" x="880.18" y="564.08" width="83.23" height="9.27"/>
    <rect class="cls-10" x="993.08" y="564.08" width="83.23" height="9.27"/>
    <rect class="cls-43" x="854.71" y="573.35" width="243.27" height="26.81"/>
    <path class="cls-38" d="M1224.2,571.29c-.13-.29-.2-.58-.2-.89l-.04-5.63c-.02-2.32,3.76-4.24,8.4-4.27,4.64-.03,8.44,1.84,8.46,4.16l.04,5.63c0,.31-.07.6-.19.89l-16.46.12Z"/>
    <path class="cls-9" d="M1232.42,569.48c-32.72.23-59.12,17.48-58.97,38.53l118.48-.84c-.15-21.05-26.79-37.92-59.51-37.69Z"/>
    <path class="cls-24" d="M1158.63,548.35c-2.1-.68-3.03-2-3.06-4.16-.01-.64-.01-1.28,0-1.92.05-2.05,1.01-3.58,2.94-4.13,1.09-.31,1.19-.86,1.16-1.78-.14-4.47.11-8.95-.23-13.43-.38-4.84-1.95-9.19-4.69-13.15-2.15-3.1-5-5.55-7.64-8.2-.86-.87-1.54-1.59-.18-2.56.3-.21.37-.57.36-.93-.11-.07-.22-.13-.33-.2-.2,0-.4,0-.6,0-.19,0-.37,0-.56,0-1.88,0-3.77,0-5.65,0-.1.04-.19.09-.29.13-2.37-.1-4.74-.14-7.11.02-.04.48.11.89.49,1.17.99.72.63,1.31-.09,1.99-1.67,1.59-3.3,3.22-4.92,4.87-5.2,5.3-7.91,11.64-7.9,19.11,0,3.5.03,7-.02,10.49-.02,1.35-.1,2.6,1.75,2.72.24.02.48.31.7.51,2.17,1.92,1.42,4.41,1.23,6.75-.1,1.26-.94,2.1-2.22,2.42-1.11.28-1.47.96-1.46,2.15.05,14.73.01,29.46.05,44.2,0,3.87,1.39,7.26,4.02,10.12.48.53.99.87,1.77.86,4.58-.05,9.16-.05,13.75-.06,3.64,0,7.28.01,10.91.02.3-.33.59-.34.89,0,2.57.52,4.08-.75,5.39-2.82,1.93-3.04,2.53-6.38,2.54-9.85.06-14.29.02-28.58.05-42.87,0-.84-.27-1.21-1.06-1.46ZM1123.24,521.03c-.09,0-.18.01-.26.03.09-.02.18-.03.26-.03ZM1157.61,595.57c-.01,2.78-1.44,5.14-3.08,7.33-.45.6-1.08.72-1.81.72-4.29-.01-8.57.02-12.86.03l.02-.09c-4.39.01-8.77.02-13.16.04-1.77,0-2.13-1.59-2.74-2.66-1.34-2.33-1.94-4.86-1.92-7.64.1-13.95.06-27.89.03-41.84,0-.98.21-1.5,1.15-2.02,2.75-1.52,3.43-4.93,2.8-7.93-.42-2.02-1.03-4.03-3.41-4.69-.47-.13-.53-.53-.53-.94.02-4.68.03-9.36.07-14.04,0-.17.16-.33.25-.5.04-.04.08-.06.12-.09-.04.03-.08.05-.12.09,5.82.02,11.64.04,17.45.06,5.57-.02,11.13-.02,16.7-.07.89,0,1.08.35,1.07,1.13-.01,4.39,0,8.77.02,13.16,0,.66-.23.95-.88,1.28-2.23,1.14-3.82,5.71-2.98,8.09.21.59.26,1.24.46,1.83.45,1.28,1.38,2.26,2.53,2.82.78.37.85.79.84,1.45,0,14.83.03,29.66-.05,44.5Z"/>
    <path class="cls-38" d="M1147.63,489.68c.17-.64-.16-.71-.66-.57-.2,0-.39,0-.59,0h0c-.2-.12-.39-.12-.59,0,.02.04.05.07.07.1-.02-.03-.05-.06-.07-.1-1.88,0-3.75,0-5.63.01-2.36-.03-4.72-.04-7.08-.1-.7-.02-.93.21-.92.92.04,2.36.02,4.73.02,7.09,0,.45-.05.92.58.99,2.37-.15,4.74-.11,7.11-.02.1-.04.19-.09.29-.13,1.88,0,3.77,0,5.65,0,.19-.21.37-.22.56,0,.2,0,.4,0,.6,0h0c.11.07.22.13.33.2.49-.21.53-.57.33-1,.18-2.47.16-4.94,0-7.41Z"/>
    <path class="cls-2" d="M1156.81,549.62c-1.16-.55-2.08-1.54-2.53-2.82-.21-.59-.25-1.24-.46-1.83-.84-2.38.75-6.95,2.98-8.09.65-.33.88-.62.88-1.28-.02-4.39-.03-8.77-.02-13.16,0-.78-.19-1.14-1.07-1.13-5.57.05-11.13.06-16.7.07-5.82-.02-11.64-.04-17.45-.06-.09.17-.25.33-.25.5-.03,4.68-.05,9.36-.07,14.04,0,.41.06.81.53.94,2.38.66,2.99,2.67,3.41,4.69.62,3.01-.05,6.41-2.8,7.93-.93.52-1.15,1.04-1.15,2.02.03,13.95.07,27.89-.03,41.84-.02,2.78.57,5.31,1.92,7.64.62,1.07.98,2.67,2.74,2.66,4.39-.02,8.77-.03,13.16-.04,0,0-.02.09-.02.09,4.29-.01,8.57-.04,12.86-.03.73,0,1.36-.12,1.81-.72,1.64-2.18,3.07-4.55,3.08-7.33.08-14.83.04-29.66.05-44.5,0-.66-.07-1.08-.84-1.45Z"/>
    <path class="cls-23" d="M1156.81,549.76c-1.16-.57-2.08-1.58-2.53-2.9-.21-.61-.25-1.28-.46-1.88-.84-2.45.75-7.15,2.98-8.32.65-.34.88-.63.88-1.32-.02-4.51-.03-9.02-.02-13.53,0-.8-.19-1.17-1.07-1.17-5.57.05-11.13.06-16.7.08-5.82-.02-11.64-.04-17.45-.06-.09.17-.25.34-.25.51-.03,4.82-.05,9.63-.07,14.45,0,.42.06.84.53.97,2.38.68,2.99,2.75,3.41,4.83.62,3.09-.05,6.6-2.8,8.16-.93.53-1.15,1.07-1.15,2.08.03,14.35.07,28.69-.03,43.04-.02,2.86.57,5.47,1.92,7.86.62,1.1.98,2.74,2.74,2.74,4.39-.02,8.77-.03,13.16-.04,0,0-.02.09-.02.09,4.29-.02,8.57-.05,12.86-.03.73,0,1.36-.12,1.81-.74,1.64-2.25,3.07-4.68,3.08-7.54.08-15.26.04-30.51.05-45.77,0-.68-.07-1.11-.84-1.49Z"/>
    <path class="cls-5" d="M1030.7,499.58c.19-.21.37-.22.56,0-.19,0-.37,0-.56,0Z"/>
    <line class="cls-13" x1="1121.12" y1="554.43" x2="1158.41" y2="554.43"/>
    <line class="cls-13" x1="1121.12" y1="561.76" x2="1158.41" y2="561.76"/>
    <line class="cls-13" x1="1121.12" y1="568.17" x2="1158.41" y2="568.17"/>
    <line class="cls-13" x1="1121.12" y1="575.49" x2="1158.41" y2="575.49"/>
    <line class="cls-13" x1="1121.12" y1="582.73" x2="1158.41" y2="582.73"/>
    <line class="cls-13" x1="1121.12" y1="590.06" x2="1158.41" y2="590.06"/>
    <path class="cls-36" d="M883.68,470.66s-.1.04-.15.05"/>
    <path class="cls-25" d="M929.51,410.12c-.07-.02-.14-.03-.21-.05.07-.03.15-.06.22-.09.02.05.02.09,0,.13Z"/>
    <path class="cls-25" d="M898.67,411.12c.07-.04.14-.08.21-.12.02.04.04.08.05.11-.09,0-.18,0-.27,0Z"/>
    <path class="cls-25" d="M928.85,410.1c-.1,0-.19,0-.29,0,.09-.09.19-.09.29,0Z"/>
    <path class="cls-42" d="M882.15,411.7c.08-.08.16-.09.25-.01-.08,0-.16,0-.25.01Z"/>
    <path class="cls-27" d="M763.57,118.48s.82,33.06-7.78,50.93c-1.38,2.87-17.55,8.63-17.55,8.63l3.69,5.33c3.19,4.6,9.91,8.9,14.79,11.63,24.3,13.6,60.13,20.63,73.74,6.33l-5.17-11.36s-3.87-4.33-4.22-8.07c-.35-3.73,7.36-31.67,7.36-31.67"/>
    <path class="cls-15" d="M760.22,131.43c0,.07,0,.13-.01.2-.02-.08-.02-.16.01-.2Z"/>
    <path class="cls-27" d="M800.88,176.46l22.06,2.15,11.31-1c1.11.17,7.48-10.43,8.43-11.75,2.96-4.11,6.81-9.5,8.92-14.11,2.25-4.95,6.11-8.98,7.74-15.08,1.19-4.47,1.64-7.65.21-15.39-.36-1.97-.13-3.85.61-5.8,1.57-4.12,2.6-9.06,4.57-14.6.16-.44.98-2.53.86-3.05,0,0,4.25-23.66,1.11-32.76-3.14-9.1-9.03-13.87-15.07-16.34-6.04-2.47-24.9-5.77-24.9-5.77l-24.8-5.23-23.16,7.78-14.62,24.86-2.59,30.81-.46,27.78"/>
    <path class="cls-15" d="M769.11,99.89c-.2,2.38,1.17,14.58,1.12,16.92l-12.2-1.89c-2.59-8.61-5.73-18.74-6.84-21.1-1.73-3.69,6.81-19.68,7.51-25.89l.15-1.34c.66-5.96,7.62-14.64,18.61-23.21,18.92-14.75,18.12-15.05,43.52-9.77,1.75.36,3.48.79,5.15,1.27,15.8,4.55,29.29,6.12,37.76,21,6.11,10.73,2.14-2.25.6,4.44,1.36-13.43,2.43-2.06,1.26-3.82-6.86-10.29-12.18-1.01-16.06-2.13-3.39-.98-6.11-.4-6.65-.26-4.04.35-7.74-.66-11.8-1.83-3.02-.87-10.58-3.68-11.22-3.92-1.88-1.72,1-9.53-2.75-10.61-8.71-2.51-21.39-.23-25.95,1.19-5.39,1.68-18.21,5.16-18.35,18.99"/>
    <path class="cls-15" d="M829.72,174.7c-.15-.04-.28-.11-.39-.21-2.12-1.87.37-3.07-.74-3.5-.26-.1-.38-.21-1.18-.44-3.23-.91-5.18-1.53-14.78,2.85-.19.09-11.55-2.97-11.77-3.02l-5.58-3.64c-.91-.75-20.67-22.65-20.67-22.65-.25-.67-3.68-5.71-3.75-6.33-.06-.04-.13-.09-.2-.13-.02-.01-.08-.05-.13-.08-.02.04-.04.09-.05.12-.08.25-.11.52-.13.78-.1,1.13-.03,2.27.16,3.4.29,1.73.36,3.46.58,5.19.08.61.19,1.22.32,1.82,2.33,1.94,15.73,24.58,24.34,30.43.58.24,2.39,1.03,7.38,2.15,9.36,2.1,18.5,3.35,28.19,1.92,2.53-.37,4.73-1.84,6.01-3.96,3.67-6.05,11.79-19.52,14.63-28.92-3.35,5.22-10.43,16.4-15.3,24.01-.15.23-3.77-.07-4.08-.02"/>
    <path class="cls-27" d="M763.38,132.42c-8.16,8.85-10.91-8.39-10.91-8.39-5.66-9.31-4.34-18.13-3.19-24.13,1.15-6,7.77-4.92,7.77-4.92,5.55,1.45,7.61,4.86,9.49,24.57"/>
    <path class="cls-15" d="M846.88,48.49c-9.16-1.37-32.42-10.92-44.78-13.36-5.12-1.01-23.93,9.49-26.55,12.1-5.99,5.98,3.78,22.84-7.84,42.91-3.84,6.63-6.29-6.19-10.58-2.09-4.29,4.11-5.94,5.78-5.94,5.78-.02-20.69-.04-19.96,7.1-39.44,7.12-19.42,30.11-25.29,40.91-25.57,10.79-.28,44.27,7.56,52.87,13.04"/>
    <path class="cls-15" d="M813.12,103.94c-1.29-.94-3.02-.57-4.07.1-.25.16-.91.61-1.32,1.49-.53,1.12-.26,2.53.35,3.46.82,1.24,2.43,1.68,3.79,1.28,1.84-.53,2.71-2.51,2.52-4.07-.04-.29-.22-1.5-1.26-2.26"/>
    <path class="cls-15" d="M853.48,110.48c1.51-.51,3.05.37,3.85,1.33.19.22.68.86.81,1.82.16,1.23-.51,2.49-1.38,3.19-1.15.93-2.83.86-4,.08-1.59-1.06-1.83-3.21-1.17-4.64.12-.26.67-1.36,1.89-1.77"/>
    <path class="cls-15" d="M841,113.98s6.51-4.76,10.7-4.5c6.11.38,7.44,1.98,9.15,5.07,0,0-3.5-3.5-7.81-3.65-4.12-.14-12.04,3.08-12.04,3.08Z"/>
    <path class="cls-15" d="M821.66,109.48s-7.62-6.64-11.75-7.38c-6.02-1.09-13.78,1.36-16.18,3.95,0,0,10.31-3.78,14.53-2.89,4.04.85,13.39,6.33,13.39,6.33Z"/>
    <path class="cls-15" d="M829.88,89.37c-.29,1.42-.59,2.85-.88,4.28-.23,1.09-.65,3.59-.88,4.67-3.58-1.68-6.69-3.74-9.04-4.62-4.66-1.75-9.38-3.85-14.4-4.15-2.4-.14-4.56,0-6.74.7-.69.22-2.65,1.39-3.49.82-.35-.23.63-1.87.73-2.03,1.98-3.29,5.57-4.09,9.77-4.12,8.56-.06,16.78,1.79,24.93,4.44"/>
    <path class="cls-15" d="M866.61,97.99s-2.24-1.28-2.26-1.29c-6.27-3.62-13.11-5.38-20.25-6.4-.4,1.4-.8,2.8-1.2,4.21-.3,1.07-.92,2.98-1.21,4.05,3.35-.02,6.33-.32,8.44-.13,4.19.37,8.61.71,12.43,2.54.3.14,1.92.96,2.21,1.11,1.83-1.57,2.32-3.62,1.84-4.09Z"/>
    <path class="cls-15" d="M815.46,156.56l15.64,1.6s-5.69,5.73-9.48,5.15c-2.37-.37-4.05-3.69-6.17-6.74Z"/>
    <g>
      <path class="cls-15" d="M832.68,136.89c-1.91.67-4.58.03-6.18-1.37-.36-.31-1.71-.27-1.21.16,2.12,1.85,5.97,2.59,8.44,1.72.25-.09.23-.27-.04-.41-.28-.15-.75-.2-1.01-.11"/>
      <path class="cls-15" d="M824.59,135.05c-1.1-.76-2.39-1.27-3.7-1.58-.19-.04-.46,0-.62.1-.13.09-.17.22-.04.33.56.46,1.32.73,2.04.82.23.03.53.02.69-.16.15-.17-.05-.32-.23-.34-.6-.08-1.18-.29-1.64-.67-.22.14-.44.28-.66.43,1.17.28,2.32.74,3.3,1.42.2.14.51.12.72.03.15-.06.34-.24.14-.38"/>
      <path class="cls-15" d="M819.28,134.4c-1.55-.28-3.27-1.26-3.85-2.57-.88-1.99.63-4.62,2.76-5.48.23-.09.14-.27-.06-.35-.27-.1-.62-.05-.86.05-1.85.75-3.3,2.87-3.31,4.6,0,1.62,1.31,2.96,3.1,3.71.53.22,1.11.41,1.69.51.23.04.67.04.81-.14.15-.17-.06-.29-.28-.33"/>
      <path class="cls-15" d="M835.65,136.52c-.06-.2.12-.29.24-.27.42.08.87.02,1.27-.22.11.19.22.39.33.58-.86-.04-1.74.12-2.58.51-.17.08-.37-.02-.49-.16-.09-.1-.16-.32,0-.4"/>
      <path class="cls-15" d="M834.44,136.57c.93-.44,1.92-.6,2.88-.56.14,0,.31.11.39.26.06.11.06.25-.06.32"/>
      <path class="cls-15" d="M838.85,137.24c1.02.12,2.32-.39,3-1.51,1.03-1.69.66-3.95-.42-5.3-.12-.15-.02-.3.13-.32.19-.03.39.11.51.26.95,1.18,1.4,2.93.98,4.6-.4,1.56-1.54,2.52-2.82,2.79-.38.08-.78.11-1.16.07-.15-.02-.42-.13-.46-.33-.05-.2.11-.26.25-.25"/>
    </g>
    <path class="cls-15" d="M851.25,52.97c-.59-.65-1.6-.98-2.56-1.28l-1-.47c-3.09-.45-6.19-.82-9.3-1.08-.78-.07-1.59-.13-2.31.07-.08.02-.15.05-.22.08-2.28-.39-4.56-.76-6.86-1.07l-1.09.14c-.99,0-2.06.02-2.79.41-.74.39-.88,1.3-.01,1.7.9.42,2.36.11,2.93.73.63.68-.85,1.37-.52,2.12.21.47,1.01.73,1.51,1.11.59.46.73,1.09,1.27,1.57.56.49,1.55.76,2.39.65.86.19,2.07,0,2.26.63.05.17-.01.34-.05.51-.13.66.33,1.39,1.1,1.76.77.38,1.8.37,2.49-.01.67-.37.98-1.04,1.68-1.37.22-.1.48-.18.73-.25.19.23.44.43.74.58.77.38,1.8.37,2.49-.01.67-.37.98-1.04,1.68-1.37.59-.28,1.44-.32,1.78-.79.54-.74-.68-1.93.13-2.5.73-.52,2.04.26,3.03.05.95-.2,1.08-1.25.49-1.9Z"/>
    <path class="cls-15" d="M810.97,174.48c.52.49,1.36.69,2.15.87l.84.32c2.52.17,5.05.26,7.58.27.64,0,1.3,0,1.86-.21.06-.02.12-.05.18-.08,1.87.17,3.73.32,5.61.42l.87-.18c.8-.07,1.66-.15,2.23-.51.57-.36.62-1.1-.1-1.38-.75-.28-1.91.06-2.41-.4-.56-.51.59-1.16.28-1.74-.2-.37-.87-.52-1.29-.8-.51-.33-.66-.83-1.13-1.19-.48-.36-1.3-.51-1.97-.37-.71-.09-1.67.14-1.87-.36-.05-.13-.01-.27,0-.41.06-.54-.36-1.1-1-1.35-.65-.25-1.48-.18-2.01.17-.51.34-.72.9-1.27,1.22-.17.1-.37.17-.57.25-.17-.17-.38-.32-.64-.42-.65-.25-1.48-.18-2.01.17-.51.34-.72.9-1.27,1.22-.46.26-1.14.35-1.38.75-.39.63.67,1.52.06,2.03-.56.47-1.66-.07-2.45.15-.75.22-.79,1.08-.27,1.56Z"/>
    <path class="cls-15" d="M752.23,95.24c-.94-.16-1.91-.33-2.66-.91-.75-.58-1.19-1.69-.7-2.5.77-1.29,3.29-1.23,3.32-2.73-1.05-1.6-4.04-1.38-4.52-3.23-.39-1.5,1.3-2.64,2.71-3.26-.82-.99-.64-.16-1.84-.62-1.2-.46-1.54-3.54-.71-4.53.94-1.11,1.26-.09.96-1.51-.95-.43,1.32-1.01.65-1.81-.67-.8-.9-2.06-.25-2.88.79-.98.76-1.78.88-3.03.11-1.07,2.21-1,1.68-1.93-.97-1.69.83-3.59,2.43-4.71-.78-.67.27-.72-.16-1.65-.43-.93-.39-2.17.38-2.84.47-.42,1.12-.56,1.65-.89,2.2-1.36,1.37-4.7.27-7.05,1.77.38,3.73-.81,4.2-2.55.22-.82.16-1.73.56-2.48.4-.75,1.61-1.16,2.07-.44"/>
    <path class="cls-15" d="M761.92,47.71c.39-1.1,2.07-6.36,2.46-7.46,1.36.73,3.3-.22,3.56-1.74.13-.76,0-1.74.67-2.11.69-.38,1.48.31,2.27.36,1.75.12,2.32-2.67,4.03-3.08,1.07-.26,2.17.54,3.24.33,1.63-.32,2.16-2.64,3.75-3.12,1.1-.33,2.27.37,3.41.2,2.46-.37,3.7-3.79,6.17-3.52.91.1,1.67.81,2.58.84,1.63.05-.57-1.92,1.06-1.96,1.5-.04,2.48,1.66,3.94,2,2.37.55,4.46-3.29,6.59-2.1.92.51,1.31,1.67,2.21,2.21,2.09,1.27,4.76-1.64,7.06-.79,1.15.42,1.86,1.71,3.05,2.01,1.85.46,3.58-1.69,5.45-1.33,1.49.29,2.41,2.09,3.93,2.18,1.06.07-1.4-1.41-.33-1.44,1.82-.05,2.92,2.08,4.64,2.66,1.44.49,2.99-.2,4.5-.39,1.51-.19,4.4,3.06,4.27,4.58"/>
    <path class="cls-15" d="M787.82,36.42c-9.18,2.42-13.14,5.1-18.44,12.98l52.3-11.73c-3.59-1.19-7.18-2.1-10.75-2.37-9.47-.72-13.93-1.3-23.11,1.12Z"/>
    <path class="cls-15" d="M859.88,45.36c-.23-.14-.46-.28-.68-.43-1.11-.78-3.2-1.44-2.02-2.12.79-1.98-2.44-4.93-5.06-5.19-.75-.07-1.49.22-2.25.26-1.97.1-3.76-1.89-3.44-3.84-2.01.83-4.36.82-6.37-.03l-18.39,3.65c7.6,2.53,15.19,6.34,22.57,8.13,3.55.86,7.15,1.85,10.18,3.89,2.21,1.48,5.12,2.5,7.38,4.07-.63-2.81-1.25-5.62-1.93-8.41Z"/>
    <path class="cls-15" d="M847.17,160.62c-.85,2.25-1.14,4.68-2.61,6.58.83.37.32,1.67-.42,2.2-.74.53-1.74,1.08-1.65,1.99.03.31.21.6.23.92.08.99-1.18,1.46-2.16,1.6.6.57-.07,1.56-.77,2-.7.44-1.6.99-1.47,1.81.06.4.39.76.33,1.16-.11.84-1.5.69-2.03,1.35-.31.38-.26.93-.42,1.4-.34.95-1.77,1.27-2.48.55-.38,1.69-1.36,3.82-3.07,3.54-1.06-.17-1.96-1.31-2.98-.98-.63.2-.98.9-1.57,1.19-2.01.99-3.89-3.18-5.89-2.18-1.07.54-1.23,2.3-2.41,2.56-1.11.24-1.92-1.11-3.03-1.35-1.21-.26-2.58.82-3.61.14-.45-.3-.65-.84-1.01-1.23-.84-.89-1.9.2-3.1.44-2.15.42-2.17-1.09-2.17-1.09-.45-1.52-1.28-1.5-2.74-.88-.49.21-.95.56-1.48.52-1.29-.08-1.66-2.26-2.95-2.28-.47,0-.89.3-1.34.45-1.63.54-3.33-1.74-2.33-3.15-1.95-.19-3.48-2.32-3.03-4.24-1.88.4-3.89-1.35-3.76-3.27-2.2.35-4.18-2.43-3.13-4.39-1.56.4-3.26-1.13-3.04-2.72.12-.82.58-1.81-.05-2.34-.42-.35-1.04-.21-1.58-.28-1.31-.16-2.13-1.89-1.42-3-2.17.29-3.81-2.87-2.32-4.47-1.71.19-2.96-2.29-1.79-3.55-2.28-.32-3.5-3.55-2-5.3l23.46,30.05,6.48,3.85s23.92,4.84,28.7,3.28c4.79-1.56,16.6-20.84,16.6-20.84Z"/>
    <path class="cls-15" d="M820.33,39.7l-23.64-5.93-21,9.72-10.03,24.2,2.58,19.96h0l-.81,29.31c.67.15,1.35.29,2.02.44.21.05.44.09.63,0,.48-.23.3-.93.22-1.46-.19-1.22.6-2.35,1.24-3.42.64-1.06,1.15-2.46.44-3.48-.37-.54-1.06-.94-1.07-1.59,0-.85,1.09-1.18,1.72-1.75.99-.89.65-2.8-.59-3.29,0,0,1.66-1.47,1.47-4.74-.19-3.27-.77-6.81-.77-6.81h0c.22-.21.43-.42.6-.67,1.21-1.84-.31-4.5.74-6.44.47-.87,1.39-1.44,1.79-2.34.76-1.73-.73-3.71-.34-5.56.44-2.07,3.14-3.58,2.54-5.61-.29-.99-1.32-1.65-1.56-2.65-.41-1.75,1.73-3.77.58-5.15-.4-.48-1.1-.67-1.41-1.21-.63-1.09.74-2.19,1.34-3.29.63-1.14.42-2.54.7-3.81.29-1.27,1.64-2.55,2.76-1.89-.48-2.1,1.34-7.48,3.45-7.01,1.04.23,2.33.88,2.98.04.46-.6.12-1.53.52-2.17,1.01-1.64,3.7,1.25,5.35.25.45-.27.69-.78,1.08-1.13.88-.79,2.27-.57,3.36-.12,1.1.45,2.19,1.09,3.37.99,1.18-.09,2.32-1.41,1.7-2.42,1.13.82,2.31,1.67,3.68,1.91,1.37.24,3-.31,3.52-1.61.16,1.98,3.06,3.06,4.47,1.66.56-.56,1-1.44,1.79-1.45.35,0,.68.19.97.39,1.3.9,2.72,5.34,3.32,6.81l.29-8.66Z"/>
    <path class="cls-15" d="M855.38,48.75c-.36.64.5,1.27,1.21,1.43s-.13.73-.09,1.46c.03.45,1.43.52,1.46.97.08,1.37,1.34.85,1.93,2.1.44.93.65,1.87,1.37,2.62.34.35.91.29,1.39.38.83.16.35.69.47,1.53.09.63,1.06,1.5,1.34,2.07.35.68.94,3.48,1.6,3.87,1.73,1.03.51-.34.33,1.66-.18,2,1.24,5.46,2.62,6.93,1.53-1.05.16-2.45-.8-4.04-.29-.48-.69-.9-.9-1.42-.21-.52-.14.85.3,1.2,1.61,1.29.56-2.92.71-3.15.44-.66.94-2.79.37-3.33-.72-.68-1.93-.07-1.25-.79s1.5-1.67,1.08-2.57c-.37-.79-1.52-.97-1.9-1.75-.44-.89.35-1.92.23-2.9-.16-1.31-1.73-1.85-3.02-2.11.93-.88.62-2.69-.56-3.21-.47-.21-1.07-.26-1.35-.7-.42-.65.2-1.66-.32-2.23-.44-.47-1.32-.18-1.81-.61-.77-.69.4-1.99.03-2.96-.48-1.28-3.21-1.09-2.92-2.43"/>
    <path class="cls-15" d="M790.77,100.06l.97,4.7c.45,3.61,3.09,10.88,4.08,12.93,1.39,2.87,20.21,6.34,24.2,4.7,3.99-1.64,7.39-11.99,8.69-14.32l7.53,1.4c.28,3.27,1.39,13.66,2.65,15.21,1.27,1.55,9.99,2.43,10.98,2.53.82.07,1.96.18,3.21.24,3.31.19,7.37.17,8.74-.86,2.04-1.53,4.88-8.02,7.39-14.18l.41-.96c.09-.23.19-.39.2-.46h0l.45-1.11c-10.28-6.52-24.7-7.54-34.18-2.4l.05.12-7.34-1.4c-7.67-6.52-21.74-11.36-32.55-8.77h0l-29.87,4.26-.44,2.77,24.82-4.37ZM839.91,123.75c-.79-.96-1.79-8.27-2.38-13.93,8.22-4.31,21.22-3.37,30.48,1.91l-.02.14c-1.35,3.3-4.93,12.09-6.94,13.6-2.38,1.77-19.73-.18-21.14-1.69v-.03ZM798.16,117.22c-2.52-4.46-4.2-11.27-5.11-16.98,9.7-2.9,26.26,1.64,33.78,7.86-1.86,4.27-4.48,11.82-7.34,12.99-4.11,1.7-20.46-2.06-21.33-3.87h0Z"/>
    <path class="cls-15" d="M805.5,141.11c-1.04.68-2.17,1.48-2.43,2.69-.1.44-.07.9-.04,1.35.05.7.09,1.39.14,2.09,0,.14.02.28.1.4.09.13.23.19.37.25.45.19.91.37,1.4.35s.99-.33,1.08-.8c.04-.19,0-.41.12-.58.21-.33.7-.21,1.08-.25.97-.11,1.33-1.28,1.87-2.09.72-1.1,2.03-1.69,3.32-1.93.65-.12,1.33-.17,1.95-.42s1.18-.77,1.25-1.43"/>
    <path class="cls-15" d="M844.65,146.87c.8.95,1.64,2.04,1.54,3.28-.04.45-.2.88-.36,1.3-.25.65-.49,1.3-.74,1.96-.05.13-.1.27-.21.35-.12.1-.28.11-.43.13-.48.05-.98.09-1.44-.07s-.85-.6-.8-1.08c.02-.2.11-.4.06-.59-.1-.37-.6-.41-.96-.56-.89-.38-.9-1.61-1.18-2.54-.37-1.26-1.45-2.21-2.61-2.82-.59-.31-1.22-.55-1.74-.97s-.9-1.08-.78-1.73"/>
    <g>
      <path class="cls-44" d="M806.51,139.55c.6-.67,1.54-1.03,2.43-.93.42.05.88.18,1.24-.03.2-.12.33-.32.47-.5.45-.6,1.1-.39,1.84-.22.7.17,1.28.19,2,.24.94.06,1.8-1.1,2.65-.7.33.16.53.52.86.69.53.27,1.17-.07,1.64-.45s.88-.52,1.48-.53c.54-.02,1.07.01,1.56.25s2.05,1.17,2.34.72"/>
      <path class="cls-15" d="M807.69,139.86c.61-.61,1.49-.15,2.29-.31.58-.12,1.14-.37,1.56-.79.24-.23.66-.51-.06-.28s-.18.18.14.25c1.08.23,2.33.45,3.41.18.43-.11.82-.28,1.21-.47.07-.04.48-.18.5-.26-.58-.07-.75-.02-.52.17.08.08.16.16.25.23.78.65,1.79.62,2.71.33.56-.18,1-.49,1.48-.82.16-.1.15-.11-.01-.05h.24c.25.03.45.01.69.11,1.51.6,3.13,1.7,4.61.25.46-.46.27-.99-.31-1.17-.66-.21-1.57.08-2.05.55,1.43-1.4,1.86-.17,1.13-.58-.15-.09-.32-.15-.48-.23-.32-.16-.63-.33-.97-.46-1.02-.39-2.24-.39-3.29-.11-.51.14-1.12.37-1.51.75l-.21.16c.48.07.61.03.4-.14-.03-.12-.33-.31-.45-.38-.87-.57-2.01-.38-2.91.01-.25.11-.59.41-.85.45-.32.05-1.1-.17-1.48-.25-1.07-.24-2.14-.32-3.12.28-.23.14-.46.31-.63.52-.46.58.73.1.4-.01-.46-.16-1.09-.08-1.56-.02-1.13.16-2.18.68-2.98,1.49-.46.46-.28.99.31,1.17.65.21,1.58-.07,2.05-.55h0Z"/>
    </g>
    <g>
      <path class="cls-44" d="M833.2,139.35c1.14-.38,1.97,1.26,3.15,1.47.47.08,1.02-.06,1.38.25.25.21.34.57.58.8.54.51,1.4.04,2.1-.2.22-.07.47-.12.69-.05.64.21.62,1.17,1.1,1.64.4.38,1.03.35,1.58.35.55,0,1.22.17,1.38.7.09.3,0,.67.22.89.31.33,1.13.21,1.08.66"/>
      <path class="cls-15" d="M833.34,139.88c-1.2.31-.7-.06-.48.13.1.09.24.15.35.22.27.19.52.42.79.61.61.45,1.23.63,1.98.66.44.02.53.26.76.6.22.31.49.49.86.58.96.24,2.1-.11,2.98-.48l.18-.07c-.75-.09-.98-.02-.68.22.05.12.13.25.19.37.12.28.22.56.4.81.49.69,1.37.7,2.14.72.26,0,.53,0,.74.18.28.24.17.59.27.91.11.34.34.49.67.62.19.07.52.05.53.28.03.63,2.94.12,2.9-.78-.04-.73-1.12-.4-1.23-1.08-.14-.93-.69-1.3-1.63-1.41-.81-.1-1.4.12-1.78-.75-.31-.73-.61-1.23-1.48-1.3-.67-.05-1.37.14-2,.36-.06.02-.46.14-.46.18.43.07.56.05.38-.07-.09-.06-.15-.14-.2-.24-.29-.39-.41-.69-.92-.85-.38-.12-.77-.06-1.16-.12-.64-.1-1.14-.73-1.66-1.08-.85-.56-1.77-.54-2.74-.29-.31.08-1.44.42-1.31.92s1.32.21,1.59.14h0Z"/>
    </g>
    <path class="cls-11" d="M824.62,146.1c-6.09-.96-15.84-3.32-15.84-3.32,0,0-.65,15.06,13.47,17.29,14.12,2.23,18.45-12.25,18.45-12.25,0,0-10-.77-16.09-1.73Z"/>
    <path class="cls-41" d="M824.68,146.11c-2.9-.46-14.48-2.84-14.48-2.84,0,0,2.3,9.81,12.77,11.46,11.36,1.79,16.24-6.77,16.24-6.77l-14.53-1.84Z"/>
    <path class="cls-22" d="M824.73,146.48c-3.21-.51-12.91-2.6-12.91-2.6,0,0,2.96,4.07,12.61,5.59,9.64,1.52,13.24-1.41,13.24-1.41l-12.94-1.59Z"/>
    <path class="cls-11" d="M842.46,147.1c-.3-.13-2.14.21-3.6-.16-2.43-.62-3.87-1.56-5.64-1.99-3.02-.74-5.16.25-6.49.04-1.33-.21-3.07-1.81-6.16-2.04-1.81-.14-6.36-.14-8.86-.3-1.5-.1-3.14-.99-3.48-.96-.46.05-.15,3.66,16.55,6.3,16.71,2.64,18.11-.71,17.68-.89Z"/>
    <path class="cls-15" d="M826.37,139.3l-1.1,3.08c-.17.47-.62.78-1.12.78-3.45-.05-16.56-.29-19.62-.81-.07-.01.07,1.31,0,1.29l-.71-.16c-1.11-.4.32-4.11,1.47-4.37,3.51-.78,6.6-1.22,8.5-1.37,2.37-.18,8.9-.47,11.66,0,.73.12,1.16.87.91,1.56Z"/>
    <path class="cls-15" d="M830.25,140.26l-.31,2.95c.03.5.31.93.71,1.08,2.78.99,11.87,4.25,14.44,4.68.06.01.12.01.18,0l.84-.04c.98-.05.76-2.52-.1-3.11-2.63-1.8-4.29-2.86-5.78-3.57-1.86-.89-6.57-2.81-8.89-3.21-.61-.1-1.14.48-1.1,1.22Z"/>
    <polygon class="cls-6" points="761.08 933.88 804.68 925.97 808.91 899.19 761.2 892.04 761.08 933.88"/>
    <g>
      <path class="cls-35" d="M876.15,959.09s1.53-7.18-4.93-9.85c-6.46-2.68-21.06-7.2-31.84-12.59-14.97-7.49-23.72-18.61-30.37-19.16-6.77-.57-5.55,10.03-20.33,10.23-14.66.2-25.62-7.31-26.3-7.55-3.34,1.86-9.54,23.61-5.63,29.1,3.91,5.49,39.64,8.31,39.64,8.31l28.58,5.78,28.63,1.33,22.55-5.59Z"/>
      <path class="cls-1" d="M783.6,956.17c.25-4.55-.39-10.68-5.28-12.59-3.25-1.27-6.61-2.25-9.84-3.58-2.45-1.01-4.94-2.26-6.65-4.35-2.41-2.94-2.53-6.8-1.89-10.39.02-.09-.3-.03-.31.05-.56,3.16-.59,6.51,1.12,9.33,1.32,2.19,3.49,3.64,5.75,4.72,2.92,1.39,6.04,2.35,9.09,3.44,1.54.55,3.19.99,4.45,2.08.99.85,1.7,1.97,2.19,3.17,1.05,2.57,1.2,5.46,1.05,8.2,0,.06.31.02.32-.08h0Z"/>
      <path class="cls-1" d="M760.83,921.86c4.63,3.28,9.66,5.82,15.26,6.93,3.56.71,7.17.81,10.8.7,2.87-.09,5.74-.28,8.57-.76,1.77-.3,3.5-.75,5.22-1.26,2.98-.9,6.14-1.88,9.28-1.77,3.4.11,6.62,1.62,9.54,3.24,3.45,1.91,6.71,4.15,10.02,6.28,1.66,1.07,3.34,2.11,5.04,3.11.89.52,1.8,1.03,2.71,1.53.28.15.53.33.85.36,1.25.12,2.44-.7,2.65-1.95.1-.62.01-1.26-.12-1.87-.02-.11-.34-.03-.32.08.22,1.02.35,2.38-.58,3.12-.38.3-1.07.55-1.57.44s-1.05-.54-1.5-.79c-.83-.46-1.66-.94-2.48-1.43-1.65-.98-3.28-2.01-4.9-3.05-3.16-2.03-6.27-4.16-9.55-5.98-2.7-1.5-5.62-2.86-8.72-3.19-4.81-.52-9.37,1.68-13.97,2.67-2.46.53-4.97.79-7.47.94-3.66.22-7.35.3-10.99-.19-3.34-.45-6.61-1.35-9.69-2.72-2.75-1.23-5.32-2.81-7.78-4.55-.09-.06-.38.06-.29.12h0Z"/>
      <path class="cls-1" d="M805.47,959.29c-1.99-.4-3.97-.8-5.96-1.2l.08.15c3.06-2.88,6.83-4.85,10.9-5.84,4.7-1.15,9.62-.89,14.43-.97,4.75-.07,9.5-.16,14.24-.52,3.4-.26,6.99-.56,10.22-1.77,1.06-.4,2.2-.94,2.88-1.88,1.18-1.63.27-3.86-.6-5.41-.06-.12-.37,0-.29.14.85,1.53,1.78,3.83.47,5.38-.75.88-1.91,1.37-2.98,1.74-3.37,1.14-7.05,1.41-10.58,1.66-4.71.32-9.43.4-14.15.47-4.54.07-9.16-.13-13.61.95-4.19,1.01-8.06,3.03-11.21,5.99-.08.07,0,.14.08.15,1.99.4,3.97.8,5.96,1.2.15.03.32-.18.11-.22h0Z"/>
      <g>
        <path class="cls-45" d="M801.68,958.52l.13.15-.24-.05s.07-.07.11-.1Z"/>
        <path class="cls-15" d="M801.53,958.58s.08.09.11.13l.02.02.28-.12c-.07-.01-.14-.03-.21-.04h-.03s0,.03.01.05c.04-.03.07-.07.11-.1,0,0,.01-.01.01-.03,0,0,0-.02,0-.02-.01,0-.02-.01-.03-.01-.02,0-.03,0-.05,0-.07,0-.15.03-.21.08-.04.03-.07.07-.11.1-.01,0-.02.02-.01.03,0,.01.02.02.03.02.07.01.14.03.21.04h.03s.07.01.1,0c.04,0,.07-.02.1-.03.02,0,.05-.02.07-.04v-.02s.01-.02,0-.03c-.04-.04-.08-.09-.11-.13l-.02-.02s-.02-.01-.03-.01c-.02,0-.03,0-.05,0-.04,0-.09.01-.12.03l-.04.02s-.04.02-.05.03v.02s-.01.02,0,.03Z"/>
      </g>
      <g>
        <path class="cls-45" d="M791.7,955.18h1.18c0,.93.07,1.66.13,2.09-.37-.04-.78-.08-1.21-.12-.06-.48-.11-1.16-.11-1.98Z"/>
        <path class="cls-15" d="M791.64,955.27c.34,0,.69,0,1.03,0h.15s-.06-.05-.1-.07c0,.59.02,1.19.09,1.78.01.11.03.22.04.33l.22-.13c-.4-.04-.8-.08-1.21-.12l.1.05c-.08-.65-.11-1.3-.11-1.95,0-.07-.08-.08-.14-.07-.05,0-.18.04-.18.11,0,.67.02,1.34.11,2,0,.04.07.05.1.05.4.04.8.08,1.21.12.07,0,.23-.04.22-.13-.07-.49-.11-.99-.13-1.48,0-.19,0-.39,0-.58,0-.05-.05-.07-.1-.07-.34,0-.69,0-1.03,0h-.15c-.07,0-.17.02-.21.09s.03.09.09.09Z"/>
      </g>
      <g>
        <path class="cls-45" d="M786.43,953.86c.02.88,0,1.79-.05,2.7h-.17c-.33-.05-.67-.09-1.01-.13.05-.86.07-1.71.05-2.54l1.18-.03Z"/>
        <path class="cls-15" d="M786.27,953.87c.02.9,0,1.8-.05,2.7l.22-.12c-.39-.02-.79-.08-1.18-.13l.1.1c.05-.85.07-1.69.05-2.54l-.17.12c.34,0,.69-.02,1.03-.03h.15c.07,0,.17-.05.17-.13,0-.08-.09-.1-.14-.1-.34,0-.69.02-1.03.03h-.15c-.06,0-.18.06-.17.13.02.85,0,1.69-.05,2.54,0,.06.05.09.1.1.39.05.79.11,1.18.13.07,0,.21-.03.22-.12.05-.9.07-1.8.05-2.7,0-.08-.08-.1-.14-.1-.06,0-.18.05-.17.12Z"/>
      </g>
      <g>
        <path class="cls-8" d="M753.38,949.45s.42.05,1.12.14l.25-1.01c4.39.54,19.54,2.44,28.78,4.09,2.82.5,6.37,1.34,10.47,2.3,9.53,2.24,22.58,5.3,36.44,6.46,2.48.21,4.94.35,7.31.42,19.8.61,36.19-2.55,39.72-3.29l.13,1.03c.54-.11.83-.18.83-.18,0,0,.29,1.4.55,2.68h0c.02.12.04.22.07.33.09.46.18.88.24,1.18-9.82,5.2-51.93,4.77-61.39,2.08-.6-.17-1.24-.35-1.92-.52-.28-.07-.58-.15-.87-.22-.45-.12-.89-.23-1.36-.35-10.15-2.54-25.25-5.5-25.25-5.5,0,0,.04,1.43,0,3.1h0s0,.04,0,.05c-.02.71-.06,1.46-.12,2.16-17.79-.29-36.19-3.55-36.19-3.55l1.21-11.42Z"/>
        <path class="cls-15" d="M753.28,949.52c.37.04.75.09,1.12.14.06,0,.24-.02.26-.1l.25-1.01-.26.1c6.83.84,13.65,1.74,20.46,2.75,3.96.59,7.92,1.2,11.84,2.04,4.48.97,8.92,2.08,13.39,3.09,9.77,2.21,19.65,4.07,29.64,4.94,10.1.87,20.3.64,30.39-.34,3.58-.35,7.16-.8,10.72-1.36,1.24-.2,2.48-.4,3.72-.63.79-.14,1.63-.24,2.4-.47.08-.02.19,0,.15-.05-.06-.06-.01.24,0,.26l.09.74s.11.03.13.02c.29-.06.58-.12.87-.19h-.17c.18.88.37,1.77.55,2.66.02.07.22,0,.25-.01h0c-.08,0-.17,0-.25.01.06.29.12.59.18.88.03.13.16.52.11.62-.05.1-.45.22-.56.27-.42.19-.86.35-1.29.5-1.04.36-2.1.63-3.18.87-2.75.62-5.56,1-8.37,1.3-6.76.73-13.58.97-20.38.99-6.43.02-12.89-.14-19.3-.72-2.2-.2-4.41-.44-6.57-.88-1.39-.28-2.74-.71-4.11-1.06-2.11-.54-4.22-1.05-6.34-1.54-6.64-1.54-13.31-2.93-20-4.26-.12-.02-.24-.05-.37-.07-.07-.01-.29,0-.29.11.03,1.03.02,2.07,0,3.1,0,.02.05.03.06.03-.07,0-.16,1.98-.18,2.19l.26-.11c-9.86-.17-19.72-1.13-29.48-2.51-1.45-.2-2.89-.42-4.33-.65-.72-.11-1.47-.31-2.19-.36-.03,0-.13,0-.16-.03-.04-.03.06.09.04-.01-.04-.23.06-.56.08-.79.13-1.19.25-2.38.38-3.57.25-2.33.49-4.67.74-7,0-.09-.3-.03-.31.05-.35,3.33-.7,6.66-1.06,9.99-.05.48-.1.95-.15,1.43,0,.04.03.04.06.04,8.11,1.44,16.35,2.37,24.56,2.99,3.87.29,7.75.49,11.63.55.07,0,.25-.02.26-.11.06-.74.08-1.48.12-2.22,0-.02-.05-.03-.06-.03.11,0,.07-2.72.06-3.08l-.29.11c5.83,1.14,11.64,2.36,17.43,3.66,4.15.93,8.25,2,12.36,3.04,1.9.48,3.87.72,5.81.93,6.14.67,12.33.86,18.5.9,6.93.05,13.89-.14,20.79-.76,2.92-.26,5.85-.6,8.73-1.13,2.12-.39,4.27-.85,6.28-1.67.37-.15.73-.32,1.09-.5.02-.01.07-.04.07-.07-.1-.51-.2-1.01-.31-1.52-.01-.07-.22,0-.25.01h0c.08,0,.17,0,.25-.01-.18-.89-.36-1.79-.55-2.68-.01-.05-.15-.02-.17-.01-.14.03-.28.05-.42.09-.28.08-.21.11-.26-.13-.06-.26-.07-.53-.1-.8,0-.04-.11-.03-.13-.02-5.26,1.1-10.61,1.84-15.96,2.39-9.83,1.01-19.77,1.32-29.62.58-10.03-.75-19.95-2.54-29.76-4.72-4.34-.97-8.66-2.02-13-3-3.81-.86-7.63-1.53-11.49-2.13-7.12-1.1-14.27-2.04-21.42-2.93-.46-.06-.92-.11-1.38-.17-.06,0-.24.02-.26.1l-.25,1.01.26-.1c-.37-.05-.75-.09-1.12-.14-.08,0-.36.12-.2.14Z"/>
      </g>
      <g>
        <path class="cls-8" d="M813.24,923.92c-.18.28-.51.42-.82.4-.14-.01-.28-.05-.4-.13-.41-.26-.53-.79-.27-1.19l2.98-4.52c.48.29.98.61,1.48.95l-2.97,4.51Z"/>
        <path class="cls-15" d="M813.09,923.91c-.15.22-.38.35-.65.3-.24-.04-.46-.19-.57-.4-.15-.27-.13-.59.04-.85s.35-.53.53-.8l1.93-2.93c.17-.26.34-.51.51-.77l-.27.07c.5.3.99.62,1.48.95l-.02-.08c-.33.51-.67,1.01-1,1.52l-1.6,2.43-.37.56c-.08.12.24.09.29,0,.33-.51.67-1.01,1-1.52.53-.81,1.06-1.62,1.6-2.43l.37-.56s0-.06-.02-.08c-.49-.33-.98-.64-1.48-.95-.07-.04-.23,0-.27.07-.5.75-.99,1.51-1.49,2.26s-1.01,1.5-1.49,2.26c-.27.43-.16.98.27,1.26.49.32,1.19.14,1.52-.32.08-.12-.24-.09-.29,0Z"/>
      </g>
      <g>
        <path class="cls-8" d="M817.56,926.61c-.18.28-.51.42-.82.4-.14-.01-.28-.05-.4-.13-.41-.26-.53-.79-.27-1.19l2.85-4.33c.46.34.93.7,1.4,1.06l-2.77,4.2Z"/>
        <path class="cls-15" d="M817.41,926.64c-.15.22-.38.35-.65.29-.23-.05-.44-.2-.56-.41-.16-.28-.13-.61.04-.87.16-.25.33-.5.49-.74.62-.94,1.24-1.88,1.86-2.83.16-.25.33-.5.49-.75l-.3.08c.42.32.85.64,1.27.96.02.02.12.08.12.08,0,0-.01.02-.01.02,0,.03-.04.07-.06.09l-.58.89c-.56.85-1.12,1.71-1.69,2.56-.14.21-.28.42-.42.63-.03.05.11.04.13.03.06,0,.15-.03.18-.09.31-.47.62-.94.93-1.42l1.49-2.26c.12-.17.23-.35.35-.52,0-.01,0-.02,0-.03-.47-.36-.93-.71-1.4-1.06-.07-.05-.26.02-.3.08-.48.73-.96,1.46-1.44,2.19-.33.5-.65.99-.98,1.49-.16.24-.33.47-.47.72-.24.45-.03,1,.42,1.21.48.22,1.12.03,1.42-.4.03-.05-.12-.04-.13-.03-.06.01-.15.03-.18.09Z"/>
      </g>
      <g>
        <path class="cls-8" d="M824.37,925.53l-2.49,3.78c-.18.28-.51.42-.82.4-.14-.01-.28-.05-.4-.13-.41-.26-.53-.79-.27-1.19l2.58-3.93c.46.35.92.71,1.4,1.07Z"/>
        <path class="cls-15" d="M824.22,925.56c-.35.52-.69,1.05-1.04,1.57-.46.69-.91,1.39-1.37,2.08-.03.04-.06.09-.08.13-.11.16-.27.29-.47.3-.21.01-.42-.07-.57-.21-.26-.23-.35-.61-.22-.93.04-.09.09-.16.14-.24l1.3-1.98.76-1.16c.14-.22.3-.43.43-.66,0-.01.01-.02.02-.03l-.3.08c.46.36.93.72,1.4,1.07.07.05.35-.07.3-.11-.47-.36-.93-.71-1.4-1.07-.07-.05-.26.02-.3.08-.36.55-.72,1.1-1.08,1.65-.47.72-.94,1.43-1.42,2.15-.03.05-.06.09-.09.14-.18.3-.17.68.03.96.42.6,1.4.47,1.79-.1s.78-1.19,1.17-1.78l.81-1.23c.16-.24.33-.48.48-.73,0-.01.02-.02.02-.04.03-.05-.11-.04-.13-.03-.06,0-.15.03-.18.09Z"/>
      </g>
      <g>
        <path class="cls-8" d="M826.2,932.01c-.18.28-.51.42-.82.4-.14-.01-.28-.05-.4-.13-.41-.26-.53-.79-.27-1.19l2.33-3.54c.47.34.94.69,1.42,1.04l-2.26,3.44Z"/>
        <path class="cls-15" d="M826.06,932.01c-.25.36-.71.41-1.04.12-.27-.23-.37-.63-.21-.96.1-.2.25-.39.38-.58l1.57-2.38c.15-.22.29-.44.44-.66l-.29.06c.47.35.94.69,1.42,1.04v-.07c-.66,1-1.32,2.01-1.98,3.01-.09.14-.19.29-.28.43-.04.06.04.09.09.09.07,0,.17-.03.21-.09.66-1,1.32-2.01,1.98-3.01.09-.14.19-.29.28-.43.01-.02.02-.05,0-.07-.48-.34-.95-.69-1.42-1.04-.08-.06-.24-.02-.29.06-.42.64-.84,1.27-1.26,1.91l-.8,1.22c-.16.25-.39.51-.42.82-.04.44.24.84.66.97.46.14,1-.04,1.27-.44.04-.06-.04-.09-.09-.09-.07,0-.17.03-.21.09Z"/>
      </g>
      <g>
        <path class="cls-8" d="M830.53,934.71c-.18.28-.51.42-.83.4-.14-.01-.27-.06-.4-.13-.41-.26-.53-.79-.27-1.19l2.17-3.3c.48.32.96.65,1.46.97l-2.15,3.26Z"/>
        <path class="cls-15" d="M830.37,934.74c-.1.15-.25.28-.44.3-.2.03-.41-.05-.56-.18-.27-.21-.38-.58-.28-.91.07-.22.24-.42.37-.62l1.48-2.25c.14-.21.28-.42.42-.63l-.3.08c.35.24.71.48,1.06.71.09.06.18.12.27.17.02.01.13.07.12.06,0,0-.03.04-.03.05l-.43.65-1.34,2.04c-.11.17-.23.34-.34.52-.03.05.11.04.13.04.06,0,.15-.03.18-.09.63-.95,1.25-1.9,1.88-2.86.09-.14.18-.27.27-.41,0-.01,0-.02,0-.03-.49-.32-.98-.64-1.46-.97-.08-.05-.26.01-.3.08-.4.61-.8,1.22-1.2,1.82l-.75,1.14c-.17.26-.37.51-.37.84,0,.43.35.78.76.85.44.08.93-.1,1.19-.48.04-.05-.11-.04-.13-.04-.06,0-.15.03-.18.09Z"/>
      </g>
      <g>
        <path class="cls-45" d="M749.18,936.77h-.02s0,0,0,0c0,0,.02,0,.02,0Z"/>
        <path class="cls-15" d="M749.09,936.76h-.02c.08,0,.17-.01.25-.02,0,0,0-.01,0-.02l-.31.09s.02,0,.02,0c.02.01.05,0,.08,0,.04,0,.08-.01.12-.03h.04s.04-.03.05-.04c0,0,.03-.03,0-.04,0,0-.02,0-.02,0-.02-.01-.05,0-.08,0-.03,0-.07.01-.1.02-.03,0-.06.02-.09.04l-.02.02s-.02.02-.02.03c0,0,0,.01,0,.02,0,.01.02.02.03.02.02,0,.04,0,.06,0,.05,0,.11-.02.16-.04h.02s.03-.02.04-.03c0,0,.02-.01.02-.02,0,0,0-.01,0-.02,0,0-.01-.01-.02-.01-.03,0-.07,0-.1,0-.04,0-.08.02-.12.04Z"/>
      </g>
    </g>
    <polygon class="cls-6" points="696.66 935.21 745.16 932.58 745.92 917.06 697.64 915 696.66 935.21"/>
    <g>
      <path class="cls-35" d="M813.56,964.86s1.53-7.18-4.93-9.85c-6.46-2.68-21.06-7.2-31.84-12.59-14.97-7.49-23.72-18.61-30.37-19.16-6.77-.57-5.55,10.03-20.33,10.23-14.66.2-25.62-7.31-26.3-7.55-3.34,1.86-9.54,23.61-5.63,29.1,3.91,5.49,39.64,8.31,39.64,8.31l28.58,5.78,28.63,1.33,22.55-5.59Z"/>
      <path class="cls-1" d="M721,961.97c.24-4.46-.34-10.5-5.02-12.54-1.7-.74-3.52-1.29-5.27-1.9-1.55-.54-3.1-1.08-4.62-1.7-2.52-1.02-5.11-2.27-6.86-4.42-2.4-2.94-2.52-6.78-1.88-10.36.03-.15-.3-.11-.32.03-.56,3.13-.58,6.43,1.06,9.25,1.27,2.19,3.39,3.65,5.62,4.75,2.88,1.41,5.98,2.37,9,3.44,1.56.55,3.28.99,4.59,2.05,1.04.84,1.79,1.98,2.3,3.2,1.07,2.58,1.23,5.48,1.07,8.24,0,.16.31.11.32-.03h0Z"/>
      <path class="cls-1" d="M698.26,927.66c4.61,3.26,9.61,5.8,15.18,6.91,3.56.72,7.16.83,10.78.72,2.92-.09,5.85-.28,8.73-.78,1.76-.3,3.47-.75,5.18-1.26,2.99-.9,6.17-1.88,9.32-1.76,3.36.13,6.56,1.62,9.45,3.22,3.45,1.91,6.71,4.15,10.02,6.28,1.66,1.07,3.34,2.11,5.04,3.11.89.52,1.8,1.03,2.71,1.53.28.15.53.34.85.37,1.26.13,2.44-.71,2.64-1.96.1-.62,0-1.27-.12-1.88-.03-.15-.35-.06-.32.08.22,1.03.35,2.41-.62,3.12-.38.28-1.05.51-1.54.41s-1.05-.53-1.5-.78c-.9-.5-1.8-1.02-2.68-1.55-1.58-.95-3.14-1.93-4.7-2.93-3.22-2.07-6.38-4.24-9.74-6.08-2.65-1.45-5.5-2.77-8.54-3.1-4.85-.53-9.44,1.71-14.08,2.69-2.42.51-4.89.77-7.36.92-3.67.22-7.37.3-11.02-.19-3.34-.45-6.6-1.35-9.68-2.72-2.75-1.23-5.31-2.81-7.77-4.55-.11-.08-.39.08-.24.18h0Z"/>
      <path class="cls-1" d="M742.92,965.08c-1.13-.23-2.27-.46-3.4-.69l-2.01-.41c-.1-.02-.4-.03-.48-.1-.05-.04.14-.08.24-.16.25-.17.46-.41.68-.6,4.01-3.4,9.06-5.23,14.26-5.71,3.07-.28,6.19-.19,9.27-.24,2.95-.04,5.9-.1,8.85-.2,4.8-.17,9.75-.33,14.44-1.49,1.52-.37,3.2-.87,4.4-1.94,1.78-1.59.94-4.11-.07-5.92-.06-.1-.36,0-.32.08.84,1.51,1.77,3.74.57,5.32-.69.91-1.82,1.41-2.86,1.78-3.4,1.22-7.18,1.48-10.76,1.72-4.74.33-9.49.4-14.24.47-4.49.07-9.04-.12-13.44.93-4.22,1-8.14,3.02-11.3,6-.05.04-.04.09.03.1,1.99.4,3.97.8,5.96,1.2.09.02.37-.13.2-.16h0Z"/>
      <g>
        <path class="cls-45" d="M739.08,964.29l.13.15-.24-.05s.07-.07.11-.1Z"/>
        <path class="cls-15" d="M738.93,964.36s.08.09.11.13l.02.02.2-.19c-.07-.01-.14-.03-.21-.04h-.03c.02.06.04.13.05.19.04-.03.07-.07.11-.1.03-.02.05-.05.05-.09,0-.03-.01-.07-.04-.08-.03-.02-.07-.03-.11-.03-.04,0-.09.02-.12.04-.04.03-.07.07-.11.1-.03.03-.06.07-.05.12,0,.02.02.04.04.05.02.01.04.02.07.03.07.01.14.03.21.04h.03s.03,0,.04,0h.04s.03-.02.04-.02c.02,0,.03-.02.05-.03,0,0,.02-.02.02-.03,0,0,.01-.02.01-.03,0-.01,0-.02,0-.03,0-.02,0-.03-.02-.04-.04-.04-.08-.09-.11-.13l-.02-.02s-.02-.02-.04-.03c-.02-.01-.03-.02-.05-.02-.02,0-.04,0-.06,0-.02,0-.04,0-.06.02-.03.02-.07.04-.08.08-.01.03-.01.07,0,.09Z"/>
      </g>
      <g>
        <path class="cls-45" d="M729.1,960.94h1.18c0,.93.07,1.66.13,2.09-.37-.04-.78-.08-1.21-.12-.06-.48-.11-1.16-.11-1.98Z"/>
        <path class="cls-15" d="M729.04,961.05c.34,0,.69,0,1.03,0h.15s-.07-.06-.1-.09c0,.59.02,1.19.09,1.78.01.11.03.22.04.33l.22-.15c-.4-.04-.8-.08-1.21-.12l.1.06c-.08-.65-.11-1.3-.1-1.95,0-.07-.08-.1-.14-.09-.06,0-.18.05-.18.12,0,.67.03,1.34.11,2,0,.04.07.06.1.06.4.04.8.08,1.21.12.08,0,.23-.04.22-.15-.07-.49-.11-.98-.12-1.47,0-.19,0-.39,0-.58,0-.06-.05-.09-.1-.09-.34,0-.69,0-1.03,0h-.15c-.07,0-.17.02-.21.09-.03.07.03.12.09.12Z"/>
      </g>
      <g>
        <path class="cls-45" d="M723.83,959.62c.02.88,0,1.79-.05,2.7h-.17c-.33-.05-.67-.09-1.01-.13.05-.86.07-1.71.05-2.54l1.18-.03Z"/>
        <path class="cls-15" d="M723.67,959.64c.02.9,0,1.8-.05,2.7l.21-.13c-.39-.02-.79-.08-1.18-.13l.11.11c.05-.85.07-1.69.05-2.54l-.17.13c.34,0,.69-.02,1.03-.03h.15c.07,0,.17-.06.17-.13,0-.08-.08-.11-.15-.11-.34,0-.69.02-1.03.03h-.15c-.06,0-.18.06-.17.13.02.85,0,1.69-.05,2.54,0,.06.05.1.11.11.39.05.79.11,1.18.13.08,0,.21-.03.21-.13.05-.9.07-1.8.05-2.7,0-.08-.08-.11-.15-.11-.06,0-.18.05-.17.13Z"/>
      </g>
      <g>
        <path class="cls-8" d="M692.72,962.06s-.11-6.72.58-6.63l.25-1.01c4.35.54,19.32,2.43,28.46,4.07,2.79.5,6.29,1.33,10.36,2.29,9.42,2.23,22.33,5.28,36.03,6.44,2.45.21,4.89.35,7.22.42,19.58.6,35.79-2.57,39.28-3.32l.12,1.03c.54-.11.82-.18.82-.18,0,0,.28,1.4.54,2.68h0c.02.12.04.22.07.33.09.46.17.88.23,1.18-9.71,5.2-51.36,4.8-60.71,2.12-.59-.17-1.23-.34-1.89-.52-.27-.07-.58-.15-.86-.22-.44-.11-.88-.23-1.34-.35-10.04-2.53-24.96-5.48-24.96-5.48,0,0,.04,1.43,0,3.1h0s0,.04,0,.05c-.02.71-.06,1.46-.12,2.16-17.59-.27-34.1-3.24-34.1-3.24l.04-4.94Z"/>
        <path class="cls-15" d="M692.88,962.02c-.02-1.01,0-2.03.02-3.04.02-.74.05-1.47.13-2.2.03-.3.06-.6.14-.89.02-.09.07-.19.09-.28.03-.17.21-.11-.06-.11.05,0,.24-.02.26-.09l.25-1.01-.28.09c6.78.84,13.56,1.73,20.31,2.75,3.86.58,7.73,1.18,11.55,2.01,4.42.96,8.82,2.07,13.23,3.07,9.81,2.24,19.72,4.12,29.75,4.97,9.87.83,19.84.59,29.69-.39,3.55-.35,7.09-.8,10.61-1.37,1.24-.2,2.47-.41,3.7-.64.79-.15,1.58-.37,2.38-.47.09-.01.15-.01.13-.04-.05-.05,0,.25,0,.27l.09.74s.11.01.13,0c.29-.06.57-.12.86-.19h-.17c.18.89.36,1.79.54,2.68.01.06.25-.02.28-.04h0c-.09.01-.18.03-.28.04.05.26.1.52.15.78.03.16.19.61.1.75-.08.12-.47.23-.6.29-.42.18-.84.35-1.27.5-1.05.36-2.13.64-3.21.88-2.71.61-5.47.98-8.22,1.28-6.76.73-13.58.98-20.38,1-6.3.02-12.63-.14-18.91-.72-2.14-.2-4.28-.43-6.39-.87-1.4-.29-2.77-.72-4.16-1.08-2.07-.54-4.14-1.04-6.22-1.52-6.54-1.53-13.12-2.91-19.71-4.23-.12-.02-.25-.05-.37-.07-.05-.01-.29.02-.29.1.03,1.03.02,2.07,0,3.1,0,.02.05.02.05.02-.07,0-.16,2-.18,2.2l.26-.1c-7.9-.13-15.78-.76-23.62-1.72-2.51-.31-5.02-.65-7.52-1.04-.72-.11-1.44-.23-2.15-.35-.13-.02-.68-.03-.78-.13-.01-.02.03-.66.03-.76v-1.64c.02-.84.03-1.69.04-2.53,0-.04-.31,0-.31.08-.01,1.65-.03,3.29-.04,4.94,0,0,.01.02.03.02,7.56,1.36,15.24,2.18,22.89,2.73,3.74.27,7.48.45,11.23.51.06,0,.25-.03.26-.1.06-.74.08-1.48.12-2.22,0-.02-.05-.02-.05-.02.1,0,.07-2.73.06-3.09l-.29.1c5.73,1.13,11.45,2.34,17.15,3.63,4.13.93,8.21,2,12.31,3.05,1.91.49,3.9.73,5.86.94,6.07.66,12.2.84,18.3.88,6.87.04,13.76-.16,20.61-.79,2.86-.27,5.71-.61,8.53-1.13,2.1-.39,4.23-.86,6.21-1.69.36-.15.71-.31,1.05-.49.01,0,.04-.02.04-.04-.1-.51-.2-1.01-.3-1.52-.01-.06-.25.02-.28.04h0c.09-.01.18-.03.28-.04-.18-.89-.36-1.79-.54-2.68,0-.04-.15,0-.17,0-.15.03-.32.1-.47.1-.24,0-.15.09-.21-.16s-.07-.53-.1-.8c0-.03-.11-.01-.13,0-5.18,1.1-10.45,1.84-15.71,2.39-9.77,1.03-19.66,1.34-29.46.6-9.85-.74-19.6-2.51-29.23-4.67-4.29-.96-8.56-2.01-12.85-2.99-3.78-.86-7.59-1.54-11.42-2.14-7.04-1.09-14.11-2.03-21.18-2.92-.46-.06-.92-.12-1.38-.17-.06,0-.27.01-.28.09l-.25,1.01.26-.09c-.39,0-.49.32-.56.64-.16.71-.19,1.47-.22,2.2-.06,1.3-.08,2.6-.05,3.89,0,.04.32,0,.31-.08Z"/>
      </g>
      <g>
        <path class="cls-8" d="M750.64,929.68c-.18.28-.51.42-.82.4-.14-.01-.28-.05-.4-.13-.41-.26-.53-.79-.27-1.19l2.98-4.52c.48.29.98.61,1.48.95l-2.97,4.51Z"/>
        <path class="cls-15" d="M750.49,929.71c-.17.25-.41.36-.71.27-.23-.07-.42-.23-.52-.45-.13-.28-.1-.58.07-.84.17-.27.35-.53.53-.8.64-.98,1.29-1.95,1.93-2.93.17-.26.34-.51.51-.77l-.3.08c.47.28.92.6,1.39.88.09.05.09.01.07.07-.01.04-.05.07-.07.1l-.63.96-1.8,2.73-.45.68s.11.03.12.02c.06,0,.15-.03.19-.08.33-.51.67-1.01,1-1.52l1.6-2.43.37-.56s0-.02,0-.02c-.49-.33-.98-.64-1.48-.95-.07-.04-.26.02-.3.08-.5.75-.99,1.51-1.49,2.26s-1.01,1.5-1.49,2.26c-.27.44-.12,1.01.34,1.25s1.16.06,1.47-.38c.03-.04-.11-.03-.12-.02-.06.01-.15.03-.19.08Z"/>
      </g>
      <g>
        <path class="cls-8" d="M754.97,932.38c-.18.28-.51.42-.82.4-.14-.01-.28-.05-.4-.13-.41-.26-.53-.79-.27-1.19l2.85-4.33c.46.34.93.7,1.4,1.06l-2.77,4.2Z"/>
        <path class="cls-15" d="M754.83,932.33c-.29.42-.88.43-1.19.02-.2-.27-.19-.62-.01-.9.16-.25.32-.49.49-.74.62-.94,1.24-1.89,1.87-2.83.16-.25.33-.5.49-.75l-.27.07c.47.35.94.71,1.4,1.06l-.03-.11c-.31.47-.62.94-.93,1.42l-1.49,2.26c-.12.17-.23.35-.35.52-.04.07.04.12.1.13.08.01.16-.03.21-.1.31-.47.62-.94.93-1.42l1.49-2.26c.12-.17.23-.35.35-.52.02-.04,0-.08-.03-.11-.47-.36-.93-.71-1.4-1.06-.09-.06-.22,0-.27.07-.48.73-.96,1.45-1.43,2.18l-.98,1.5c-.15.23-.32.46-.46.69-.26.43-.11,1,.32,1.27.48.3,1.16.16,1.48-.31.11-.16-.18-.2-.26-.09Z"/>
      </g>
      <g>
        <path class="cls-8" d="M761.78,931.3l-2.49,3.78c-.18.28-.51.42-.82.4-.14-.01-.28-.05-.4-.13-.41-.26-.53-.79-.27-1.19l2.58-3.93c.46.35.92.71,1.4,1.07Z"/>
        <path class="cls-15" d="M761.62,931.32c-.35.52-.69,1.05-1.04,1.57l-1.37,2.08s-.05.09-.08.13c-.11.16-.27.3-.47.31s-.41-.08-.57-.21c-.26-.23-.35-.61-.22-.94.04-.09.09-.16.14-.24l1.3-1.98.76-1.16c.14-.22.3-.43.43-.66,0-.01.01-.02.02-.03l-.3.08c.46.36.93.72,1.4,1.07.07.05.34-.07.3-.11-.47-.36-.93-.71-1.4-1.07-.07-.05-.26.02-.3.08-.36.55-.72,1.1-1.08,1.65-.47.72-.94,1.43-1.42,2.15-.03.05-.06.09-.09.14-.18.29-.18.68.03.96.43.6,1.4.46,1.79-.1s.78-1.19,1.17-1.78l.81-1.23c.16-.24.33-.48.48-.73,0-.01.02-.02.02-.04.03-.05-.11-.03-.13-.03-.06,0-.15.03-.19.09Z"/>
      </g>
      <g>
        <path class="cls-8" d="M763.61,937.78c-.18.28-.51.42-.82.4-.14-.01-.28-.05-.4-.13-.41-.26-.53-.79-.27-1.19l2.33-3.54c.47.34.94.69,1.42,1.04l-2.26,3.44Z"/>
        <path class="cls-15" d="M763.46,937.77c-.24.35-.71.4-1.04.13-.27-.23-.37-.63-.2-.95.1-.2.25-.39.38-.58l1.57-2.38c.15-.22.29-.44.44-.66l-.27.07c.47.35.94.69,1.42,1.04l-.02-.09c-.66,1-1.32,2.01-1.98,3.01-.09.14-.19.29-.28.43-.04.06.04.1.09.1.07,0,.17-.03.21-.09.66-1,1.32-2.01,1.98-3.01.09-.14.19-.29.28-.43.02-.04,0-.07-.02-.09-.48-.34-.95-.69-1.42-1.04-.07-.05-.23,0-.27.07-.42.64-.84,1.27-1.26,1.91l-.8,1.22c-.16.25-.39.51-.42.82-.04.44.24.84.66.98.46.15,1-.04,1.27-.44.04-.06-.04-.1-.09-.1-.07,0-.17.03-.21.09Z"/>
      </g>
      <g>
        <path class="cls-8" d="M767.93,940.47c-.18.28-.51.42-.83.4-.14-.01-.27-.06-.4-.13-.41-.26-.53-.79-.27-1.19l2.17-3.3c.48.32.96.65,1.46.97l-2.15,3.26Z"/>
        <path class="cls-15" d="M767.78,940.46c-.23.33-.65.39-.98.17-.28-.19-.41-.55-.31-.88.07-.22.25-.43.37-.62l1.48-2.25c.14-.21.28-.42.42-.63l-.27.07c.49.33.97.65,1.46.97l-.03-.09c-.63.95-1.25,1.9-1.88,2.86-.09.14-.18.27-.27.41-.04.07.04.11.09.11.08,0,.16-.03.21-.09.63-.95,1.25-1.9,1.88-2.86.09-.14.18-.27.27-.41.02-.04,0-.07-.03-.09-.49-.32-.98-.64-1.46-.97-.08-.05-.22,0-.27.07-.4.61-.8,1.22-1.2,1.82l-.75,1.14c-.17.26-.38.52-.37.85,0,.43.31.79.72.9.46.12.95-.07,1.22-.46.04-.06-.04-.11-.09-.11-.08,0-.16.03-.21.09Z"/>
      </g>
    </g>
    <path class="cls-28" d="M646.34,455.39l-4.77,28.88c-4.26,25.75-2.05,52.16,6.48,76.83,4.43,12.81,9.43,25.48,13.37,37.93l21.1,121.72s1.54,53.14-2.35,97.2c-3.39,38.2,10.49,106.19,10.49,106.19l13.05,2.1c11.79,1.9,23.78,1.98,35.59.23l25.34-3.76,17.07-225.93,13.35-138.43,21.56-83.63-170.27-19.33Z"/>
    <path class="cls-28" d="M841.7,468.6l-9.12,244.63c.32,10.65-3.58,20.45-6.82,71.88l-6.45,87.66-2.12,38.09-7.34,1.52c-10.07,2.38-20.42,3.36-30.75,2.91l-22.62-.25,11.6-439.16,73.61-7.29Z"/>
    <path class="cls-42" d="M754.86,168.75l-10.51,2.77c-14.08,3.75-54.28,12.54-65.1,22.33-16.24,14.6,32.21,72.26,31.99,86.46-.07,6.89-1.82,57.86-13.77,95.94-7.89,25.34-14.24,51.12-19.02,77.21l41.27,11.88c20.17,5.81,41.05,8.75,62.01,8.75l55.49-.68c2.89-27.05,7.76-49.77,10.05-85.47l14.78-114.8-1.5-52.46s-9.59-11.23-10.42-13.99l-27.72-23.07s8.03,21.75-16.15,21.73c-22.04-.02-27.6-4.06-41.95-19.03,0,0-8.91-9.82-9.46-17.57Z"/>
    <path class="cls-42" d="M685.04,266.33s-26.85,93.91-34.14,119.64c-7.3,25.73-10.36,75.18-10.84,92.31-.48,17.13,45.28,25.5,82.05,27.3,36.77,1.8,119.12,15.76,122.56-29.13,1.48-19.26-56.33-212.45-56.33-212.45l-103.3,2.33Z"/>
    <path d="M797.87,538.82c-10.58,8.74-14.74,22.91-16.01,36.08-.76,7.86-.6,15.76-.4,23.64.02.92.03,1.83.02,2.75-.16,9.55-.33,19.11-.49,28.66-.27,15.88-.54,31.77-.81,47.65-.24,14.29-.49,28.58-.73,42.87l-.2,11.88c-.01.78-.01,1.55-.04,2.33,0,.09-.02.31-.05.63-.57,7.11-1.14,14.22-1.71,21.33-1.12,13.95-2.24,27.91-3.36,41.86-1.32,16.42-2.64,32.83-3.96,49.25-1.14,14.23-2.29,28.45-3.43,42.68-.62,7.66-1.23,15.31-1.85,22.97-.03.34-.06.69-.08,1.03-.04.5,1.41.21,1.44-.21.43-5.38.87-10.77,1.3-16.15,1.05-13.05,2.1-26.09,3.15-39.14,1.31-16.24,2.61-32.47,3.92-48.71,1.2-14.96,2.4-29.91,3.61-44.87.74-9.2,1.48-18.41,2.22-27.61.28-3.45.32-6.87.38-10.33l.64-37.35c.28-16.23.55-32.45.83-48.68.21-12.04.41-24.09.62-36.13.29-17.05-1.55-34.54,5.16-50.7,2.46-5.92,6.02-11.46,10.99-15.57.61-.5-.83-.42-1.14-.16h0Z"/>
    <path class="cls-4" d="M753.05,169.23c1.44,3.86,3.58,7.55,5.83,10.99,4.93,7.5,11.37,14.15,19.17,18.68,4.73,2.75,9.92,4.66,15.31,5.64,5.85,1.07,12.14,1.48,18.04.56,5.39-.84,11.49-3.31,12.95-9.13.3-1.19.37-2.44.2-3.66-.31-2.32-.71-4.62-1.06-6.93-.07-.47-.14-.93-.21-1.4l-1.39.5c1.87,1.67,3.73,3.34,5.6,5,.76.68,1.83,1.37,2.44,2.18.06.08.04-.02.09.31.1.57.16,1.15.2,1.73.29,4.36-.82,9.27-3.97,12.47-2.56,2.6-6.35,3.85-9.82,4.63-5.21,1.17-10.65,1.27-15.96.81-5.97-.52-12.03-1.68-17.62-3.86-10.19-3.96-19.87-10.82-26.96-19.15-3.44-4.03-6.64-8.4-9.46-12.89-.75-1.2-1.63-2.46-2.1-3.81l-.6.64c3.39-1.02,6.78-2.04,10.17-3.06.87-.26.65-1.16-.24-.89-3.39,1.02-6.78,2.04-10.17,3.06-.23.07-.72.31-.6.64.39,1.13,1.09,2.2,1.7,3.21,2.44,4.03,5.3,7.81,8.2,11.52,7.01,8.98,16.68,16.22,27.11,20.77,5.6,2.44,11.62,3.81,17.67,4.54,5.61.68,11.38.75,16.96-.21,3.93-.68,8.04-1.83,11.31-4.22,3.54-2.58,5.4-6.9,5.79-11.18.15-1.64.22-3.51-.17-5.13-.17-.72-.84-1.1-1.39-1.59-2.28-2.04-4.57-4.09-6.85-6.13-.38-.34-1.49-.15-1.39.5.41,2.68.83,5.37,1.23,8.05.12.78.15,1.5.07,2.3-.51,5.09-4.93,7.9-9.55,9.01-5.47,1.31-11.34.96-16.87.27s-10.8-2.32-15.69-4.88c-7.94-4.16-14.53-10.51-19.64-17.81-2.69-3.84-5.23-8.05-6.87-12.47-.22-.6-1.66-.19-1.45.39Z"/>
    <path class="cls-44" d="M763.52,113.54c-.85-3.29-1.85-6.58-3.35-9.64-.73-1.49-1.57-3-2.74-4.2-.48-.49-1.05-1.01-1.72-1.22-.91-.3-1.53.56-2,1.21-1.76,2.43-2.21,5.52-2.05,8.45.03.58,1.49.25,1.45-.39-.13-2.29.16-4.67,1.22-6.73.36-.7.81-1.44,1.41-1.95l-1.02.27s.08.01.1.03c.04.04.18.08,0,0,.06.03.13.06.19.09.43.26.73.5,1.07.85,1.66,1.7,2.71,3.98,3.58,6.15.98,2.43,1.73,4.94,2.39,7.47.16.6,1.61.22,1.45-.39h0Z"/>
    <path class="cls-44" d="M760.78,113.75c-4.58-.39-2.23,5.57-2.72,8.02-.01.07-.09.23-.08.3,0,.02-.09.12-.08.13.02.16.56-.22.56-.07,0-.01-.21-.24-.22-.26-.14-.19-.23-.42-.32-.64-.53-1.31-.78-2.75-.98-4.13-.26-1.75-.36-3.26-.08-4.99.3-1.89.9-4.54,2.9-5.31.3-.11.52-.49.33-.78-.21-.33-.7-.24-.99-.13-2.04.78-2.96,2.98-3.45,4.96-.35,1.45-.56,2.96-.42,4.45.16,1.76.41,3.53.89,5.23.22.8.52,2.03,1.3,2.49s1.64-.04,1.96-.77.22-1.61.16-2.38c-.07-.92-.94-5.19.76-5.04.34.03.81-.1.94-.45.12-.33-.12-.62-.45-.64h0Z"/>
    <path class="cls-1" d="M866.42,267.36c-1.17,4-1.82,8.17-2.43,12.28-.93,6.22-1.64,12.46-2.3,18.71-.83,7.87-1.55,15.75-2.23,23.64-.76,8.87-1.47,17.75-2.16,26.63-.73,9.34-1.43,18.69-2.14,28.04-.7,9.25-1.41,18.5-2.15,27.75-.69,8.63-1.41,17.26-2.2,25.89-.68,7.36-1.4,14.73-2.27,22.07-.66,5.58-1.37,11.17-2.37,16.7-.57,3.16-1.09,6.61-2.49,9.54-.22.47-.29.61-.59.97-.59.71.78,1.02,1.23.47,1.64-1.98,2.11-5.15,2.63-7.57,1.07-4.91,1.76-9.9,2.4-14.87.9-6.93,1.63-13.88,2.3-20.84.81-8.34,1.53-16.69,2.22-25.03.75-9.12,1.46-18.25,2.16-27.37.72-9.42,1.43-18.84,2.15-28.27.7-9.06,1.4-18.12,2.16-27.18.68-8.22,1.4-16.44,2.21-24.66.67-6.77,1.39-13.53,2.29-20.27.63-4.73,1.3-9.47,2.38-14.12.18-.77.37-1.54.6-2.31.24-.83-1.2-.86-1.39-.2h0Z"/>
    <path class="cls-42" d="M650.8,362.7c-7,.28-7.52-.98-14.49-.39-.14-4.62-.11-8.98.14-13.25,1.06-18.21,11.19-107.53,22.54-134.65,6.99-29.51,79.24-38.12,79.24-38.12l-29.5,100.99-10.49,83.03c-11.93,1.98-35.36,1.92-47.45,2.4Z"/>
    <path class="cls-21" d="M693.38,368.93c4.39,1.95,8.77,3.91,13.16,5.86,10.26,4.57,20.52,9.15,30.78,13.72,12.01,5.35,24.02,10.71,36.03,16.06l28.61,12.76,7.58,3.38c.35.15,1.18.35,1.44.64.07.08-.04.32-.1.68l-.8,4.36-.53,2.9c-.03.16,1.91.05,2.02-.54.49-2.65.98-5.31,1.47-7.96l-.06-.07c-3.9-1.74-7.79-3.47-11.69-5.21-9.36-4.17-18.72-8.34-28.08-12.52-11.33-5.05-22.65-10.1-33.98-15.15-9.8-4.37-19.6-8.74-29.4-13.1-3.25-1.45-6.5-2.9-9.75-4.35-1.51-.67-3.02-1.46-4.58-2.04-.07-.03-.14-.06-.21-.09-.37-.17-.93,0-1.3.14-.08.03-.91.4-.61.53h0Z"/>
    <path class="cls-21" d="M700.78,215.4c4.88,1.29,7.54,5.9,9,10.4,1.63,5.03,2.13,10.42,2.23,15.69.12,6.39-.77,12.6-1.72,18.91-1.56,10.33-3.27,20.64-4.97,30.95-2.09,12.75-4.19,25.49-6.22,38.25-1.88,11.84-3.71,23.69-5.29,35.57-.16,1.23-.32,2.46-.48,3.7-.03.22,1.91.06,1.98-.53,1.48-11.66,3.26-23.28,5.08-34.89,2.02-12.88,4.13-25.75,6.25-38.61,1.77-10.78,3.56-21.55,5.23-32.35.96-6.24,2.05-12.5,2.13-18.83.07-5.2-.26-10.48-1.45-15.56-1.07-4.55-3.01-9.64-7.18-12.21-.92-.57-1.92-.97-2.95-1.24-.41-.11-1.02.06-1.38.26-.17.09-.68.38-.25.5h0Z"/>
    <path class="cls-42" d="M642.07,309.41s-6.47,40.81-6.51,42.98c-.15,10.23-6.22,27.01,3.49,49.53,8.35,19.37,29.3,31.79,55.17,18.37,25.87-13.42-20.2-66.38-20.2-66.38l-31.95-44.51Z"/>
    <path class="cls-21" d="M694.75,367.91c-5.45-.16-11.07.22-16.12,2.46-4.9,2.18-8.51,6.11-10.71,10.96-.46,1.01,1.54.98,1.89.2,2.01-4.43,5.19-8.05,9.69-10.04,4.53-2.01,9.66-2.32,14.55-2.18.43.01,1.12-.12,1.29-.6.15-.42-.14-.79-.6-.8h0Z"/>
    <path class="cls-21" d="M641.36,409.94c1.76,3.72,4.81,6.68,7.96,9.25,4.08,3.33,8.62,6.11,13.32,8.49s9.73,4.21,14.79,5.91c5.77,1.94,11.57,3.81,17.39,5.6,23.39,7.17,47.22,13.09,71.4,16.9,12.82,2.02,25.75,3.42,38.72,3.88.53.02,1.26-.19,1.38-.8.5-2.56,1.01-5.13,1.51-7.69.19-.97-1.87-.71-2.04.17-.5,2.56-1.01,5.13-1.51,7.69l1.38-.8c-23.27-.83-46.4-4.58-69.07-9.77-11.79-2.7-23.48-5.8-35.07-9.24-5.72-1.7-11.41-3.47-17.08-5.33-5.29-1.73-10.67-3.37-15.79-5.58-5.36-2.31-10.53-5.19-15.25-8.63-3.84-2.8-7.94-6.2-10.01-10.59-.41-.86-2.4-.26-2.02.54h0Z"/>
    <path class="cls-31" d="M855.71,421.76l.76-.4c2.71-1.35,11.77-5.75,13.74-4.63,2.31,1.31,18.76,10.4,18.76,10.4,0,0-1.36,4.77-10.66,2.97s-22.6-8.34-22.6-8.34Z"/>
    <path class="cls-26" d="M839.79,367.02l65.03,131.82-5.72,3.37-68.94-129.27s-3.86-16.51,9.63-5.92Z"/>
    <path class="cls-31" d="M892.16,445.07c-1.23-3.37-11.87-15.67-11.87-15.67,0,0-4.67-5.83-10.23-5.86s-30.97-4.6-30.97-4.6l-23.99,6.68-4.96-.86c-2.7,10.56-4.08,23.75-4.72,29.66,3.13-.41-1.09.21,0,0,6.61-1.29,29.58,12.58,35.23,12.95s19.49-3.77,19.49-3.77c0,0,25.6-5.73,26.01-7.25.42-1.52,2.03-1.71-1.65-5.93-2.27-2.61-4.8-4.99-7.56-7.09,0,0,8.7,6.17,10.55,5.94s5.87-.82,4.65-4.2Z"/>
    <path class="cls-12" d="M887.77,438.81c-.41-.34-.77-.73-1.08-1.16l-2.72-3.36c-1.07-1.32-2.51-3.15-3.98-5-1.39-2.15-3.39-3.83-5.74-4.82-1.25-.43-2.54-.73-3.86-.9l-3.72-.56c-2.39-.33-4.52-.61-6.32-.84l-4.33-.5c-.52-.04-1.04-.13-1.55-.27.53-.06,1.06-.06,1.58,0,1,.05,2.49.15,4.28.3s3.97.39,6.36.7l3.73.52c1.37.16,2.71.46,4.01.92,2.48,1.04,4.59,2.83,6.02,5.11,1.44,1.9,2.71,3.6,3.84,5.09s1.85,2.52,2.54,3.47c.35.4.66.84.93,1.3Z"/>
    <path class="cls-12" d="M860.71,432.37c1.05.28,2.06.7,3.01,1.23,2.32,1.16,4.56,2.5,6.69,3.98,2.16,1.47,4.21,3.1,6.13,4.88.84.68,1.59,1.47,2.22,2.36-.9-.59-1.75-1.26-2.54-1.99-1.5-1.27-3.71-2.95-6.21-4.67s-4.84-3.12-6.59-4.1c-.95-.48-1.86-1.04-2.71-1.68Z"/>
    <path class="cls-12" d="M882.12,457.89c-.37.03-.74-.01-1.1-.12-.98-.19-1.94-.47-2.88-.82-3.05-1.23-5.95-2.79-8.65-4.67-3.2-2.11-6.07-4.05-8.11-5.48-1.15-.72-2.24-1.53-3.26-2.42,1.23.57,2.41,1.24,3.51,2.02,2.13,1.34,5.08,3.18,8.23,5.3,2.67,1.84,5.5,3.44,8.46,4.79,2.33.97,3.85,1.28,3.8,1.4Z"/>
    <path class="cls-12" d="M868.25,461.72c-.94-.05-1.86-.23-2.74-.53-2.15-.59-4.27-1.3-6.34-2.14-2.09-.83-4.13-1.76-6.12-2.8-.86-.38-1.66-.87-2.39-1.46.09-.2,3.92,1.7,8.77,3.61,4.85,1.91,8.89,3.13,8.83,3.32Z"/>
    <g>
      <path class="cls-9" d="M857.58,486.69c0-1.04-.46-2.06-1.19-2.8.7-.14,1.4-.33,2.09-.65h0c-.45-3.66-.79-6.81,4.72-6.78,37.11.21,74.22.22,111.33.29q8.79-.55,9.32,7.34h0s-.11,15.29-.11,15.29c-.04,16.61.02,33.22-.14,49.83-.09,8.89-4.45,13.6-12.99,14.58-33.33,0-66.66-.01-99.98-.02-7.57-1.21-10.43-4.04-11.81-11.68-1.78-15.28-.31-37.96-.8-53.27"/>
      <path class="cls-9" d="M970.01,563.49c.2.08.41.18.6.31-.2-.12-.4-.21-.6-.31Z"/>
    </g>
    <path class="cls-38" d="M858.29,483.22c-.6-.1-1.22-.16-1.86-.16h-11.78c-4.85,0-8.82,3.09-8.82,6.87s3.97,6.87,8.82,6.87h11.78c.64,0,1.26-.06,1.86-.16v-13.41Z"/>
    <path class="cls-38" d="M983.56,483.22c.6-.1,1.22-.16,1.86-.16h11.78c4.85,0,8.82,3.09,8.82,6.87,0,3.78-3.97,6.87-8.82,6.87h-11.78c-.64,0-1.26-.06-1.86-.16v-13.41Z"/>
    <polygon class="cls-7" points="866.97 967.44 843.32 967.44 851.03 662.53 905.22 662.53 866.97 967.44"/>
    <g>
      <path class="cls-34" d="M1491.45,638.57h-668.88s.6-32.62.6-32.62h668.88"/>
      <polygon class="cls-7" points="834.86 668.21 1476.59 668.21 1481.25 637.73 830.2 637.73 834.86 668.21"/>
    </g>
    <g>
      <g>
        <rect class="cls-34" x="117.86" y="706.74" width="283.82" height="41.5"/>
        <rect class="cls-7" x="284.09" y="706.74" width="117.6" height="41.5"/>
        <polygon class="cls-34" points="275.79 962.11 283.96 962.11 283.96 748.25 269.32 748.25 275.79 962.11"/>
        <polygon class="cls-7" points="283.96 962.11 292.14 962.11 298.61 748.25 283.96 748.25 283.96 962.11"/>
        <polygon class="cls-34" points="126.13 962.11 132.88 962.11 132.88 748.25 118.37 748.25 126.13 962.11"/>
        <polygon class="cls-7" points="132.88 962.11 140.92 962.11 147.39 748.25 132.88 748.25 132.88 962.11"/>
        <polygon class="cls-7" points="221.73 962.11 229.61 962.11 229.61 748.25 215.26 748.25 221.73 962.11"/>
        <polygon class="cls-7" points="229.61 962.11 237.5 962.11 243.97 748.25 229.61 748.25 229.61 962.11"/>
        <polygon class="cls-34" points="377.77 962.56 386.49 962.56 386.49 748.25 371.3 748.25 377.77 962.56"/>
        <polygon class="cls-7" points="386.49 962.41 395.21 962.41 401.69 748.25 386.49 748.25 386.49 962.41"/>
        <path class="cls-34" d="M117.86,706.74s-6.02-96.79-14.92-137.27c-8.9-40.48-33.36-143.04-33.36-143.04h21.84s23.65,104.89,30.93,140.16c7.28,35.27,15.01,140.16,15.01,140.16h-19.51Z"/>
        <path class="cls-7" d="M129.7,706.74s-5.18-96.79-12.83-137.27c-7.65-40.48-33.36-143.04-33.36-143.04h15.48s24.35,104.89,30.6,140.16c6.26,35.27,16.87,140.16,16.87,140.16h-16.77Z"/>
        <path class="cls-34" d="M254.8,706.74s-6.02-96.79-14.92-137.27c-8.5-38.68-5.66-35.62-36.6-143.04h25.09s23.65,104.89,30.93,140.16c7.28,35.27,15.01,140.16,15.01,140.16h-19.51Z"/>
        <path class="cls-7" d="M266.64,706.74s-5.18-96.79-12.83-137.27c-7.65-40.48-33.36-143.04-33.36-143.04h15.48s24.34,104.89,30.6,140.16c6.26,35.27,16.87,140.16,16.87,140.16h-16.77Z"/>
      </g>
      <path class="cls-7" d="M105.89,505.73h143.14s9.89,40.71,9.76,40.32c-.13-.39-144.28-1.64-144.28-1.64l-8.63-38.68Z"/>
      <path class="cls-7" d="M87.75,432.86h143.14s9.89,40.71,9.76,40.32c-.13-.39-144.28-1.64-144.28-1.64l-8.63-38.68Z"/>
    </g>
    <rect class="cls-7" x="129.7" y="688.46" width="278.09" height="18.28" transform="translate(537.49 1395.21) rotate(-180)"/>
    <polygon class="cls-40" points="1019.97 583.16 987.65 583.16 988.97 579.8 1018.64 579.8 1019.97 583.16"/>
    <polygon class="cls-40" points="1019.97 588.29 987.65 588.29 988.97 584.92 1018.64 584.92 1019.97 588.29"/>
    <polygon class="cls-40" points="1019.97 593.65 987.65 593.65 988.97 590.29 1018.64 590.29 1019.97 593.65"/>
    <polygon class="cls-40" points="1076.14 583.16 1043.82 583.16 1045.15 579.8 1074.81 579.8 1076.14 583.16"/>
    <polygon class="cls-40" points="1076.14 588.29 1043.82 588.29 1045.15 584.92 1074.81 584.92 1076.14 588.29"/>
    <polygon class="cls-40" points="1076.14 593.65 1043.82 593.65 1045.15 590.29 1074.81 590.29 1076.14 593.65"/>
    <polygon class="cls-40" points="906.87 583.22 874.55 583.22 875.87 579.85 905.54 579.85 906.87 583.22"/>
    <polygon class="cls-40" points="906.87 588.34 874.55 588.34 875.87 584.97 905.54 584.97 906.87 588.34"/>
    <polygon class="cls-40" points="906.87 593.71 874.55 593.71 875.87 590.34 905.54 590.34 906.87 593.71"/>
    <polygon class="cls-40" points="963.04 583.22 930.72 583.22 932.05 579.85 961.71 579.85 963.04 583.22"/>
    <polygon class="cls-40" points="963.04 588.34 930.72 588.34 932.05 584.97 961.71 584.97 963.04 588.34"/>
    <polygon class="cls-40" points="963.04 593.71 930.72 593.71 932.05 590.34 961.71 590.34 963.04 593.71"/>
  </g>
  <g id="Layer_3" data-name="Layer 3">
    <path d="M195.92,371.61l-.39,1.05c.31,6.77,2.69,11.39,8.4,13.11,0,.06.62,13.42,14.54,15.47,12.08,1.77,16.78-2.85,16.78-2.85,0,0,4.84,3.72,7.87,3.63,6.82-.21,10.31-7.75,10.7-12.87.53-6.97-.31-12.44-.31-12.44,0,0-1.82-5.29-3.48-9.09-1.67-3.8-8.39-7.63-8.39-7.63,0,0,3.01-6.98-.26-8.53-3.28-1.55-11.83-9.29-11.83-9.29,0,0-3.83,1.08-10.84,4.23,0,0-5.61-1.22-8.4,5.16-.61,1.38-1.08,3.12-1.33,5.3,0,0-2.77-.53-7.8,2.76-2.17,1.42-5.47,6.85-5.23,11.99Z"/>
    <path d="M321.85,343.43l-.82-.75c-6.31-2.47-11.43-2.35-15.12,1.72-.06-.02-8.34-3.37-15.38,7.4-6.12,9.35-3.63,15.13-3.63,15.13,0,0-5.21,2.53-6.25,5.09-2.34,5.77-1.38,16.46,3.62,17.6,5,1.14,5.57,3.46,5.57,3.46,0,0,7.69,1.82,11.79,1.97,4.1.14,10-4.31,10-4.31,0,0,9.13.77,11.77-1.33,2.64-2.11,3.91-8.64,3.91-8.64,0,0,9.43-1.11,9.15-8.22,0,0,3.21-4.19-1.6-9.08-1.04-1.06-2.45-2.15-4.35-3.24,0,0,1.52-2.09.38-7.6-.49-2.38-4.23-7.31-9.03-9.19Z"/>
    <path class="cls-27" d="M242.77,359.38s10.7,23.08,7.59,40.45c-.43,2.42-14.14,12.77-14.14,12.77l13.71,5.65c11.12,4.58,22.26,11.1,33.76,7.57,6.52-2,23.73-4.21,28.66-7.12l-2.96-15.38s-9.23-5.08-10.35-7.75c-1.12-2.67-4.77-23.33-4.77-23.33"/>
    <path d="M221.06,328.66s-21.75-42.07,5.84-46.77c0,0,1.37-4.92,6.6-8.91,6.21-4.73,13.38-1.3,13.38-1.3,0,0,5.4-6.11,11.54-5.82,6.14.3,8.84,3.48,8.84,3.48,0,0,6.75-4.27,12.31-2.3s9.85,6.77,9.85,6.77c0,0,4.34-1.2,7.26-.2,6.99,2.39,9.35,17.04,10.8,22.16,0,0-7.43-16.98-13.38-17-5.95-.02-56.07,17.58-56.07,17.58l-9.76,47.68-7.22-15.37Z"/>
    <path class="cls-46" d="M260.84,379.36s9.5,15.6,37.46,13.58c0,0-1.49-6.39-1.58-7.59l-2.76.77-33.12-6.76Z"/>
    <path class="cls-27" d="M247.6,371.81c10.36,8.31,31.3,17.07,43.92,17.52,12.37.44,15.73-4.21,17.1-6.26,7.51-11.23,11.82-22.07,13.34-34.01.41-3.24-.05-6.59-.83-9.96-1.17-5.06-3.78-14.69-4.52-19.59-1.9-12.47-9.21-22.31-17.81-31.61-17.92-19.38-47.81-14.44-59.42-6.32-13.57,9.49-17.84,24.85-16.2,40.16.53,4.99,1.81,9.53,3.76,13.6,2.48,1.97,4.72,4.18,6.71,6.59"/>
    <path d="M297.59,282.97s4.5,6.97,13.5,21.03c-2.39-4.55-4.45-11.65-9.66-17.69-18.19-21.09-60.19-10.81-71.72-2.22-13.48,10.05-16.4,26.14-14.57,42.65.74,6.7,1.17,10.98,4.07,16.16.1.06,1.48,1.08,1.48,1.08,0,0,13.78.32,19.56,7.68l-1-7.09s-.34-4.41.54-21.17c0,0-.14-2.62,2.71-13.66,2.84-11.03,7.08-14.76,7.08-14.76,0,0,21.15-7.2,26.34-8.02,5.18-.83,21.68-4,21.68-4Z"/>
    <path class="cls-27" d="M244.77,364.27c-5.78,7.1-11.99-2.67-11.99-2.67-6.79-6.87-9.01-14.73-9.25-20.14-.24-5.41,5.7-5.84,5.7-5.84,5.08.12,4.42.77,12.48,14.51"/>
    <path d="M274.66,333.13c-1.56-.3-3.12.54-3.91,1.39-.19.2-.68.76-.79,1.56-.14,1.03.59,2.01,1.49,2.52,1.21.68,2.92.49,4.1-.24,1.6-1,1.8-2.78,1.09-3.91-.13-.21-.72-1.07-1.98-1.32"/>
    <path d="M282.29,336.35s-6.34-4.9-11.67-3.84c-7.51,1.5-8.5,5.32-9.72,7.45,0,0,3.92-5.21,9.75-6.25,5.29-.95,11.65,2.64,11.65,2.64Z"/>
    <path d="M308.47,326.18c1.3-.87,3.09-.7,4.17-.23.26.11.95.43,1.39,1.13.57.88.33,2.06-.27,2.87-.81,1.08-2.46,1.57-3.85,1.35-1.89-.3-2.84-1.86-2.68-3.16.03-.24.19-1.25,1.24-1.96"/>
    <path d="M301.49,332.35s2.72-6.7,7.02-7.55c6.05-1.2,8.25,1.99,9.97,3.54,0,0-4.87-3.46-9.53-2.42-4.22.94-7.47,6.44-7.47,6.44Z"/>
    <path d="M315.86,317.3c.22-.73.33-1.36,0-1.86-.1-.16-.18-.33-.23-.51-3.97-1.81-6.79-2.08-14.13-1.69l-.04.18c-.24,1.05-.1.46-.34,1.52-.18.81-.36,1.61-.54,2.42,2.46-.17,4.28-.54,5.84-.5,3,.08,6.5-.23,9.34.83.02-.13.04-.26.08-.4Z"/>
    <path d="M278.41,314.86c.5.96.22.42.72,1.39.38.73.76,1.47,1.13,2.2-3.04.81-5.33,1.16-7.23,1.81-3.75,1.3-8.24,2.4-11.52,4.71-1.57,1.11-3.74,2.39-4.27,4.33-.14.52-.14,2.44-.94,2.53-.33.04-.5-1.38-.52-1.52-.33-2.86,1.53-5.09,4.14-7.18,5.32-4.26,8.4-5.66,18.4-8.45"/>
    <g>
      <path class="cls-8" d="M298.74,351.96c-1.25,1.01-3.4,1.26-4.98.67-.35-.13-1.35.26-.86.45,2.08.78,5.15.28,6.76-1.02.16-.13.1-.26-.14-.29-.25-.03-.61.06-.78.19"/>
      <path class="cls-8" d="M292.22,352.79c-1.02-.26-2.12-.28-3.18-.16-.16.02-.34.12-.44.24-.07.1-.07.21.06.25.54.18,1.18.18,1.74.05.18-.04.4-.13.47-.3.06-.16-.12-.22-.26-.19-.47.1-.96.1-1.4-.05-.13.16-.25.33-.38.49.95-.11,1.93-.08,2.84.15.18.05.41-.05.54-.17.1-.09.19-.27,0-.31"/>
      <path class="cls-8" d="M288.09,353.75c-1.23.21-2.78-.04-3.56-.84-1.18-1.22-.79-3.73.56-4.93.15-.13.03-.24-.14-.24-.23,0-.47.13-.63.27-1.18,1.04-1.67,3.17-1.21,4.44.43,1.19,1.77,1.81,3.3,1.87.46.02.94,0,1.4-.08.19-.03.51-.15.57-.32.06-.17-.12-.2-.29-.17"/>
      <path class="cls-8" d="M300.86,350.89c-.09-.13,0-.24.11-.26.33-.06.65-.22.89-.5.13.11.27.22.4.33-.65.2-1.27.55-1.78,1.07-.1.1-.28.08-.4.02-.09-.05-.21-.19-.1-.29"/>
      <path class="cls-8" d="M299.97,351.25c.58-.58,1.27-.96,2-1.19.11-.03.26,0,.36.08.08.07.11.17.04.25"/>
      <path class="cls-8" d="M303.44,350.55c.79-.19,1.62-.91,1.83-1.91.32-1.51-.56-3.06-1.73-3.76-.13-.08-.09-.21,0-.27.13-.08.32-.03.45.05,1.02.61,1.83,1.76,1.96,3.09.12,1.25-.48,2.25-1.36,2.8-.26.16-.55.29-.85.36-.12.03-.35.02-.44-.12-.09-.14,0-.22.12-.25"/>
    </g>
    <path d="M300.96,278c-2.69-1.47-7.74-3.15-12.17-2.89-.18,0-.37.02-.54.05l-2.27,1.17-.08.04s.06-.03.09-.05c.4-.24,1.27-.82.83-1.3-.15-.17-.47-.33-1.01-.46-.8-.18-2-.29-3.31-.34,0,0,0-.01,0-.02-.12,0-.25,0-.37,0-.12,0-.25,0-.37,0,0,0,0,.01,0,.02-1.31.04-2.51.14-3.31.32-.55.12-.86.28-1.01.45-.44.48.42,1.07.82,1.3.03.02.06.03.09.05l-.08-.04-2.27-1.19c-.17-.02-.36-.04-.54-.05-5.46-.36-14.03,4.09-14.82,4.76-.79.67-.25,1.77-.21,1.85l-1.53-1.16s-6.56,2.53-7.68,3.34c-1.13.81-1.64,2.74-1.64,2.74,0,0-2,.72-2.72.49-.71-.23-4.44,1.69-5.98,3.89-.99,1.41-.64,2.74-1.13,3.99h0c-.28.7-.44,1.16-.44,1.16l-3.85,1.27c-3.09,1.47-2.34,7.82-2.34,7.82-6.08,7.42-6.4,13.75-3.71,20.58,1.04,2.63-6.47,5.26-1.66,5.17,4.88-.09,11.85,16,11.85,16,0,0,1.15-6.74,1.36-9.5.21-2.76-1.11-10.96-1.11-10.96l2.35-.33s1.43-.58,3.16-3.7c1.74-3.13-1.4-8.71-1.4-8.71l-.91-3.37,4.58.33c4.43-.75,4.69-5.54,4.69-5.54l-.74-7.99,2.65,2.69s1.02,1.27,2.55,1.16c6.87-.5,7.69-4.77,7.69-4.77l.93-4.02,1.74,1.16c1.84,1.52,7.46,3.86,10.33,2.64.75-.32,3.93-2.76,4.45-3.1,1.46-1.05,1.94-2.87,2.09-4.05,1.67,1.6,3.88,3.26,5.88,3.35,2.43.11,7.68-.88,8.34-2.01.44-.75-.34-.85.56-.81.78.03,1.44.6,1.94,1.17,0,0,2.5,6.55,8.67,8.92,6.17,2.37,5.74-12.45.02-14.52,0,0-.97-7.89-8.43-7Z"/>
    <path d="M216.92,302.25s-6.38,2.33-8.15,6.05c-4.56,9.61,1.1,33.95,6.93,38.07l8.13-.23-6.91-43.9Z"/>
    <path class="cls-44" d="M238.27,350.23c-1.14-2.25-2.39-4.47-3.93-6.47-.79-1.03-1.67-2.04-2.74-2.79-.45-.32-.96-.62-1.51-.72-.15-.03-.29-.04-.44,0-.37.1-.53.55-.68.85-.98,2.07-.83,4.53-.22,6.68.07.24.79.05.72-.19-.62-2.17-.79-4.75.33-6.8.07-.12.14-.25.22-.36l-.48.2c.1,0-.03-.01.01,0,.09.02.17.03.26.06.06.02-.05-.02-.01,0,.02,0,.03,0,.05.02.03.01.07.02.1.04.08.03.16.07.24.1.2.09.39.2.57.32,1.51.98,2.72,2.58,3.74,4.06,1.14,1.66,2.12,3.42,3.03,5.22.12.24.83,0,.72-.19h0Z"/>
    <path class="cls-44" d="M236.34,350.87c-.64.08-1.27.37-1.48,1.02-.2.61-.05,1.3.1,1.91.19.73.45,1.43.66,2.15.13.45.39,1.14.18,1.57-.01.03-.05.07-.04.08.01.03-.04,0,.02-.01.03,0,.06-.02.09-.03.01,0,.08.02.05,0-.02-.01-.05-.03-.1-.06-.25-.18-.43-.46-.59-.71-.58-.9-1-1.92-1.38-2.92-.26-.7-.56-1.42-.69-2.16-.09-.52-.15-1.06-.18-1.59-.08-1.52-.03-3.69,1.41-4.61.14-.09.17-.27.04-.37-.15-.12-.38-.05-.52.04-1.4.9-1.68,2.77-1.68,4.3,0,.68.05,1.37.15,2.05.07.53.21.99.38,1.5.39,1.17.84,2.33,1.42,3.41.29.55.7,1.4,1.34,1.61.6.2,1.05-.35,1.07-.89.03-.66-.22-1.33-.42-1.94-.26-.81-.58-1.64-.66-2.5-.06-.63.07-1.23.75-1.31.15-.02.38-.11.4-.29s-.19-.26-.33-.24h0Z"/>
    <path class="cls-44" d="M286.34,320.51c1.38.04,2.62-.8,3.18-2.04.31-.7.42-1.47.45-2.22.03-.81-.02-1.63-.14-2.43-.13-.93-.36-1.85-.67-2.74-.07-.2-.79,0-.72.19.48,1.37.76,2.81.81,4.26.05,1.3-.04,2.79-.93,3.83-.38.44-.91.84-1.52.82-.17,0-.37.03-.51.14-.1.08-.11.19.05.2h0Z"/>
    <path class="cls-41" d="M296.86,359.61c-4.48.76-13.86,5.37-15.54,7.57,0,0,5.44,5.22,15.82,3.45,10.39-1.77,11.78-8.15,11.78-8.15,0,0-6.37-3.84-12.07-2.87Z"/>
    <path class="cls-24" d="M285.19,364.41s5.61-1.43,10.14-2.2c4.53-.77,10.29-1.28,10.29-1.28,0,0,.15-3.52-8.07-2.12-8.22,1.4-12.37,5.61-12.37,5.61Z"/>
    <path class="cls-11" d="M298.2,368.77c-4.99.09-11.28-2.92-16.88-1.58,0,0,3.77,8.62,15.97,6.54,12.21-2.08,11.63-11.25,11.63-11.25-5.74.59-5.99,4.71-10.73,6.28Z"/>
    <path class="cls-11" d="M301.73,356.12c-2.6.23-4.05,1.55-5.16,1.74-1.11.19-2.92-.57-5.45.07-2.37.6-11.46,8.62-10.19,9.24,1.28.62,8.37-5.34,16.09-6.65,7.72-1.32,11.27,2.83,12.27,1.82,1-1.01-5.13-6.44-7.56-6.22Z"/>
    <path class="cls-27" d="M354.15,852.95c-4.29-1.22-8.5-2.57-12.56-3.74-6.68-1.92-13.34-3.95-19.99-5.98l-8.61,21.61-6.95,11.8s4.81,32.84,15.97,38.41c11.16,5.56,37.89,12.33,37.89,12.33,0,0-21.54-40.79-21.85-47.4-.06-1.23,6.45-11.88,16.11-27.03Z"/>
    <path class="cls-3" d="M375.87,681.61c.93-2.99.66,8.26,1.84,5.39,2.65-6.49,5.85-12.7,9.41-18.61,3.66-6.08,7.74-11.84,12.22-17.19,3.04-3.63,6.27-7.08,9.7-10.26-54.65-25.02-183.06-48.68-183.06-48.68,0,0-41.95,23.53-28.11,73.49,4.15,14.97,17.11,19.4,35.37,22.43,43.25,7.17,108.44-.84,141.05-4.46.22-.02,1.37-2.09,1.59-2.12Z"/>
    <path class="cls-29" d="M344.22,520.23c-.99,1.21-.04,2.19-.28,31.46-.04,5.3,1.15,24.96,2.3,29.97-4.55,1.47-5.07,1.81-9.79,2.59-20.64,3.44-41.77.6-61.89-4.46-17.21-4.33-33.91-10.39-50.53-16.61l.49-1.17-6.27-149.61,28.82-13.58,1.21-.7,1.08,1.41c6.14,7.61,20.55,17.37,30.68,17.57,2.97.06,6.09-.08,9.26-.44,8.84-1.02,16.13-8.2,12.69-16.17-.12-.28,11.04,2.87,12.28,3.32,6.7,2.42,11.13,4.86,16.16,7.25,3.49,1.66,6.51,4.18,8.68,7.37,3.93,5.76,9.05,16.11,9.52,31.44"/>
    <path class="cls-29" d="M343.94,551.69s8.13,55.36,9.32,65.11c0,0-48.55,13.09-100.04,6.19-51.5-6.9-55.09-11.29-55.09-11.29l11.93-50.57,1.97-32.9,125.57,18.61"/>
    <path class="cls-29" d="M182.74,490.49c2.5-21.62,6.76-43.58,10.32-54.29,8.36-21.05,33.6-27,33.6-27l3.3,73.21-1.37,6.03c-14.12,4.87-30.6,3.06-45.86,2.05Z"/>
    <path class="cls-32" d="M247.47,398.52c1.74,2.35,3.86,4.47,6.01,6.43,4.84,4.42,10.46,8.09,16.65,10.31,7.35,2.64,15.64,3.17,23.16.89,4.44-1.35,8.94-4.13,10.08-8.94.71-3.03-.41-6.12-.99-9.08l-1.41.44c1.6,1.07,3.19,2.14,4.79,3.21.4.27,1.2.71,1.42.95.44.5.65,1.38.8,2,1.52,6.13-2.74,11.98-7.81,14.88-6.93,3.95-15.67,3.84-23.29,2.41-8.71-1.64-16.98-5.34-24.15-10.53-3.21-2.32-6.39-4.72-9.38-7.33-.73-.63-1.81-1.6-2.31-2.2l-.31.28c2.63-1.28,5.26-2.55,7.88-3.83.86-.42-.5-.33-.83-.16-2.63,1.28-5.26,2.55-7.88,3.83-.03.01-.39.18-.31.28.59.7,1.29,1.31,1.97,1.92,2.51,2.24,5.19,4.3,7.89,6.3,7.64,5.68,16.11,9.96,25.49,11.85,7.77,1.56,16.27,1.63,23.68-1.49,5.61-2.36,10.51-6.94,11.04-13.32.14-1.68.07-4.55-1.51-5.64-1.92-1.32-3.88-2.6-5.81-3.89-.21-.14-1.47.09-1.41.44.38,1.95.78,3.89,1.14,5.85.11.59.13,1.16.08,1.77-.33,4.09-3.33,7.22-6.95,8.84-7.19,3.21-16.18,2.44-23.45-.1-5.89-2.07-11.27-5.47-15.96-9.56-2.47-2.16-4.91-4.53-6.87-7.18-.25-.34-1.55.26-1.45.39Z"/>
    <path class="cls-29" d="M339.72,535.01c-5.2-5.83-1.48-16.36-5.28-23.2-4.78-8.6-8.41-17.79-11.16-27.22-2.81-9.62-4.72-19.49-6.03-29.43-1.32-10.01-2.04-20.08-2.44-30.16-.33-8.36-2.74-12.94-2.76-21.31,7.92,3.63,16.07,5.47,23.13,12.09,8.7,8.15,8.64,10.31,16.06,26.25,3.74,8.02,7.28,19.04,11.75,34.46.61,2.1,3.51,23.77,3.52,24.19.03,1.33-11.74,23.28-24.19,27.56-6.3,2.17.52-2.02-2.23-.69-.09.2-.24,3.29-.39,7.46Z"/>
    <path class="cls-3" d="M376.26,693.09c1.26-2.71,2.65-5.35,4.13-7.91,3.34-5.79,7.17-11.22,11.31-16.31,4.26-5.23,8.88-10.1,13.82-14.51,3.36-3-6.76-12.54-3.09-15.03,13.78-43.63-199.48-34.08-199.48-34.08,0,0-8.57,9.85-8.57,40.34,0,51.87,137.22,38.26,181.9,40.62.21.01-.23,6.87-.01,6.88Z"/>
    <path class="cls-3" d="M419.94,688.1c-12.65,36.18-40.62,133.78-58.05,177.53,0,0-47.95-2.34-51.56-13.37,0,0-1.04-235.55,28.35-239.5,21.66-2.92,58.52,4.93,69.71,14.12,13.42,11.04,21.52,32.72,11.56,61.21Z"/>
    <path class="cls-3" d="M396.51,663.86s-7.36-1.41-17.88-1.2c2.03-4.41,2.73-7.7,2.73-7.7-.98-1.12-2.01-2.26-3.09-3.42-6.02,1.41-11.9,3.35-17.61,5.66-6.64,2.69-13.06,5.89-19.18,9.54-5.91,3.52-11.55,7.48-16.76,11.92-1.47,1.26-2.91,2.56-4.3,3.9.18.05-2.89-.4-2.71-.35-20.33,21.23-19.82,68.63-31.58,111.64-8.63,31.54-15.91,58.34-15.91,58.34,4.67,10.61,62.11,15.31,62.11,15.31,20.68-57.25,64.18-203.64,64.18-203.64Z"/>
    <path class="cls-20" d="M312.42,690.96c5.03-2.05,10.45-3.5,15.05-6.48.39-.25.59-.76.15-1.07-.46-.32-1.21-.11-1.63.17-2.19,1.42-4.67,2.41-7.1,3.36s-4.98,1.84-7.44,2.84c-.4.16-.88.64-.57,1.08s1.13.28,1.53.11h0Z"/>
    <g>
      <path class="cls-37" d="M331.89,883.29s-2.54-7.6.96-11.04c3.5-3.44,6.71-1.06,7.32.64s20.54,38.37,20.54,38.37"/>
      <path class="cls-15" d="M332.18,883.22c-.65-1.96-.98-4.13-.87-6.18.08-1.55.45-3.17,1.49-4.38,1.32-1.54,3.47-2.54,5.39-1.51,1.24.66,1.66,1.81,2.25,2.97.66,1.31,1.35,2.61,2.04,3.92,2.24,4.23,4.51,8.45,6.78,12.67,2.41,4.48,4.83,8.96,7.25,13.43.87,1.6,1.73,3.2,2.6,4.8.41.75.76,1.66,1.27,2.34.02.03.04.07.06.11.12.23.67.01.52-.25-1.13-2.08-2.26-4.16-3.38-6.24-2.46-4.55-4.93-9.1-7.38-13.65s-4.75-8.83-7.1-13.26c-.72-1.36-1.44-2.72-2.14-4.09-.6-1.19-1.04-2.34-2.29-3.04-3.1-1.75-6.69.91-7.59,3.95-.76,2.58-.37,5.5.35,8.05.05.18.1.35.16.53.09.26.66.1.57-.15h0Z"/>
    </g>
    <g>
      <path class="cls-37" d="M288.8,884.85s4.81-8.09,10.12-12.09c5.32-4.01,5.48-4.97,8.51-1.15,3.03,3.82,2.31,12.95,8.57,16.47,4.48,2.51,8.35.88,12.01-1.12,1.46-.8,2.89-1.66,4.31-2.34,4.97-2.37,5.64-3.91,10.59,3.32,4.95,7.23,12.96,19.76,20.9,25.07,7.94,5.31,10.4,5.86,16.76,10.92,6.36,5.05,6.31,10.95,6.31,10.95,0,0,1.82,9.43-7.45,8.81-9.27-.62-75.63-37.56-75.63-37.56l-15-21.26Z"/>
      <path class="cls-15" d="M289.06,884.85c.87-1.46,1.83-2.86,2.83-4.22,1.94-2.66,4.08-5.26,6.64-7.35,1.34-1.1,2.74-2.2,4.17-3.18.78-.53,1.58-1.04,2.48-.46.97.62,1.83,1.75,2.43,2.72.63,1.04,1.03,2.21,1.38,3.37.8,2.62,1.35,5.34,2.58,7.81,1.36,2.74,3.59,4.83,6.59,5.64,3.54.96,6.97-.49,10.03-2.16,1.72-.94,3.43-1.89,5.18-2.76.96-.48,1.91-1.06,2.95-1.35,2.29-.64,4,1.9,5.16,3.47,1.97,2.67,3.76,5.49,5.65,8.22,4.02,5.8,8.26,11.72,13.64,16.36,4.81,4.15,10.74,6.75,15.93,10.36,2.91,2.02,5.83,4.19,7.75,7.23,1.12,1.77,1.96,3.85,2.14,5.95s.35,4.41-.81,6.38c-1.74,2.97-5.5,3.03-8.45,2.14-2.67-.81-5.26-1.94-7.81-3.06-3.65-1.61-7.25-3.33-10.84-5.09-4.23-2.07-8.43-4.2-12.62-6.35s-8.68-4.51-13-6.8c-4.02-2.13-8.02-4.28-12.02-6.44-3.22-1.74-6.44-3.49-9.66-5.26-2.01-1.1-4.02-2.21-6.03-3.32-.4-.22-.84-.42-1.21-.67-.12-.08-.04-.02-.09-.08-.2-.22-.36-.51-.53-.75l-6.29-8.92c-2.32-3.29-4.64-6.58-6.96-9.87-.4-.56-.79-1.12-1.19-1.68-.11-.15-.66.04-.53.22,1.5,2.12,2.99,4.24,4.49,6.36,2.58,3.66,5.16,7.31,7.74,10.97l2.4,3.4c.18.26.3.49.57.64,1.33.79,2.71,1.5,4.06,2.24,2.82,1.55,5.64,3.1,8.47,4.63,3.81,2.07,7.63,4.13,11.45,6.18,4.33,2.31,8.66,4.61,13.01,6.88s8.7,4.5,13.08,6.7c3.92,1.96,7.87,3.89,11.85,5.73,3,1.39,6.03,2.75,9.13,3.89,2.43.89,4.77,1.61,7.39,1.08,1.93-.39,3.56-1.51,4.4-3.32.64-1.38.81-2.96.72-4.47-.18-2.93-1.02-5.69-2.71-8.13-2.06-2.98-5.12-5.15-8.09-7.15-2.36-1.58-4.84-2.97-7.26-4.44-3.13-1.89-6.24-3.82-8.94-6.31s-5.02-5.23-7.24-8.07-4.37-5.88-6.44-8.91c-1.88-2.74-3.61-5.67-5.78-8.2-1.26-1.47-2.71-2.61-4.72-1.99-1,.31-1.92.83-2.85,1.3-1.76.89-3.49,1.82-5.22,2.77s-3.47,1.84-5.38,2.24c-2.18.45-4.37.07-6.32-1-2.67-1.46-4.18-4.11-5.15-6.9-.89-2.55-1.34-5.27-2.42-7.75-.5-1.13-1.21-2.1-2.04-3.01-.57-.62-1.25-1.29-2.14-1.3s-1.78.58-2.5,1.1c-1.45,1.04-2.9,2.13-4.26,3.28-2.51,2.11-4.62,4.69-6.54,7.33-.96,1.33-1.9,2.69-2.74,4.1-.13.22.44.16.53,0Z"/>
    </g>
    <g>
      <path class="cls-24" d="M290.65,894.09s2.29-6.13,7.61-10.13c5.32-4.01,8.05-5.18,8.05-5.18"/>
      <path class="cls-15" d="M290.94,894.06c.84-2.23,2.19-4.35,3.66-6.2s3.23-3.38,5.16-4.77c1.55-1.13,3.14-2.21,4.8-3.18.61-.36,1.23-.72,1.87-1,.36-.16.03-.37-.23-.26-.54.23-1.06.53-1.57.82-1.6.91-3.13,1.93-4.62,2.99-1.96,1.39-3.81,2.84-5.37,4.68-1.19,1.4-2.22,2.92-3.1,4.53-.43.8-.85,1.62-1.17,2.46-.08.2.5.13.57-.07h0Z"/>
    </g>
    <path class="cls-15" d="M364.69,931.38c.54.22,1.24.16,1.64-.31s.53-1.17.69-1.75c.27-.94.57-1.86.99-2.74.55-1.15,1.31-2.2,2.24-3.08,1.48-1.38,3.31-2.28,5.22-2.89.05-.02.22-.07.18-.15-.04-.07-.32.03-.37.04-2.95.94-5.74,2.58-7.36,5.29-.53.88-.91,1.84-1.22,2.82-.22.7-.37,1.43-.67,2.11-.09.22-.26.48-.4.58-.04.03-.05.02-.03.02-.06,0,.07-.02.03-.01.07-.02.08,0,0-.01s-.27-.06-.39-.11c-.11-.04-.26,0-.37.04-.02,0-.26.11-.18.15h0Z"/>
    <g>
      <path class="cls-24" d="M339.63,890.5l-.03-.08c-.22-.62.49-1.41,1.57-1.76l7.8-2.48c1.08-.34,2.14-.11,2.36.51l.03.08c.22.62-.49,1.41-1.57,1.76l-7.8,2.48c-1.08.34-2.14.11-2.36-.51Z"/>
      <path class="cls-15" d="M339.91,890.42c-.31-.9.81-1.43,1.5-1.65l1.94-.62,5.15-1.64c.71-.23,1.58-.54,2.26-.08.52.36.35.98-.05,1.36-.3.29-.68.47-1.07.59-1.52.49-3.04.97-4.56,1.45l-2.43.77c-.65.21-1.31.47-2,.33-.31-.06-.62-.21-.74-.52-.09-.23-.66-.06-.57.15.43,1.07,2.03.81,2.88.54l2.14-.68,5.28-1.68c.31-.1.62-.2.91-.36.52-.29,1.18-.82,1.14-1.49-.07-1.31-2-1.14-2.84-.87-1.66.52-3.32,1.06-4.99,1.58l-2.38.76c-.83.26-1.81.62-2.14,1.51-.09.23-.08.45,0,.69s.65.07.57-.15Z"/>
    </g>
    <g>
      <path class="cls-24" d="M344.44,896.58l-.07-.31c-.14-.59.56-1.25,1.57-1.46l5.97-1.25c1-.21,1.94.1,2.08.7l.07.31c.14.59-.56,1.25-1.57,1.46l-5.97,1.25c-1,.21-1.94-.1-2.08-.7Z"/>
      <path class="cls-15" d="M344.73,896.5c-.03-.14-.09-.3-.09-.45,0-.22.14-.42.3-.57.3-.29.69-.43,1.09-.51.46-.1.92-.19,1.38-.29l4.22-.88c.62-.13,1.44-.26,1.92.26.22.24.32.73.17,1.02-.23.46-.79.69-1.27.79-1.16.25-2.32.48-3.47.73l-2.01.42c-.59.12-1.21.26-1.78-.01-.21-.1-.39-.26-.45-.49s-.64-.08-.57.15c.27.99,1.72.93,2.5.77.57-.12,1.13-.24,1.7-.36,1.38-.29,2.76-.57,4.14-.87.8-.17,2.07-.76,1.83-1.78-.05-.2-.08-.39-.21-.55-.16-.21-.41-.34-.65-.43-.52-.18-1.1-.16-1.63-.05-1.35.27-2.69.56-4.03.84l-1.8.38c-.73.15-1.94.62-1.94,1.54,0,.17.05.34.09.5.05.23.63.08.57-.15Z"/>
    </g>
    <g>
      <path class="cls-24" d="M349.2,901.78l-.1-.39c-.1-.4.55-.88,1.45-1.08l4.25-.93c.9-.2,1.72-.03,1.83.36l.1.39c.1.4-.55.88-1.45,1.08l-4.25.93c-.9.2-1.72.03-1.83-.36Z"/>
      <path class="cls-15" d="M349.48,901.7c-.05-.2-.17-.43-.05-.62.23-.33.72-.49,1.09-.57.3-.07.6-.13.9-.2l3.21-.7c.11-.02.22-.05.34-.07.36-.06.97-.13,1.28.15.08.07.09.16.12.25.03.1.08.23.08.33-.02.33-.55.54-.8.63-.35.13-.73.19-1.09.26l-1.72.38-1.66.36c-.18.04-.36.08-.54.1-.26.03-.53.03-.79-.04-.15-.04-.32-.11-.37-.26-.08-.25-.65-.1-.57.15.13.41.64.52,1.01.56.4.04.8,0,1.19-.09.44-.09.87-.19,1.31-.29,1-.22,2.01-.41,3.01-.66.49-.12,1.02-.33,1.37-.71.11-.12.21-.28.23-.45,0-.13-.04-.26-.07-.39-.04-.13-.06-.27-.16-.37-.13-.14-.33-.23-.51-.28-.5-.13-1.03-.09-1.53.02-1.02.22-2.04.45-3.06.67-.39.09-.79.17-1.18.26-.43.1-.87.26-1.23.52-.27.2-.54.49-.46.85.03.12.06.24.1.37.07.25.64.1.57-.15Z"/>
    </g>
    <g>
      <path class="cls-24" d="M352.52,906.8l-.12-.48c-.12-.48.52-1.03,1.42-1.22l4.26-.92c.9-.19,1.74.04,1.86.52l.12.48c.12.48-.52,1.03-1.42,1.22l-4.26.92c-.9.19-1.74-.04-1.86-.52Z"/>
      <path class="cls-15" d="M352.8,906.73c-.05-.2-.16-.46-.12-.67.07-.4.53-.65.87-.77.29-.1.67-.16,1-.23l3.28-.71c.53-.12,1.28-.22,1.69.23.15.17.19.47.23.69.07.37-.24.66-.53.83-.36.21-.75.26-1.17.35l-1.75.38-1.58.34c-.52.11-1.1.23-1.6-.04-.16-.08-.28-.2-.33-.38-.04-.14-.61.02-.57.15.12.41.6.55.97.61s.78.02,1.16-.06c.45-.1.9-.19,1.35-.29l2-.43c.42-.09.86-.16,1.27-.29.46-.15.96-.38,1.24-.79.2-.29.11-.55.03-.86-.09-.35-.3-.55-.65-.66-.47-.16-1-.12-1.48-.03-1.06.22-2.11.45-3.17.68-.36.08-.72.16-1.09.23-.68.15-1.96.6-1.73,1.52l.09.37c.03.13.61-.01.57-.15Z"/>
    </g>
    <path class="cls-15" d="M362.49,912.33c-.26,1.93-1.73,3.68-3.77,3.64s-4.21-1.17-5.89-2.36c-1.35-.96-2.57-2.08-3.74-3.25-2.98-2.96-5.66-6.24-8.23-9.55s-4.79-6.38-7.07-9.65c-1.16-1.67-2.31-3.35-3.43-5.06-.09-.14-.62.09-.57.15,3.23,4.96,6.69,9.79,10.31,14.48,2.66,3.45,5.43,6.85,8.53,9.92,1.23,1.22,2.53,2.41,3.97,3.38,1.71,1.15,3.85,2.22,5.97,2.18,2.32-.05,4.19-1.73,4.49-4.03,0-.06-.55-.02-.57.15h0Z"/>
    <g>
      <path class="cls-47" d="M288.8,884.85s-.89-.14-2.03,1.9l-6.03,10.73s4.91,6.51,16.47,13c11.55,6.49,49.66,27.89,55.07,30.93,5.41,3.04,28.3,12.13,31.66,7.33,3.36-4.8,5.52-12.79,4.48-13.01-1.04-.22-12.31.27-21.47-3.59-9.16-3.86-29.61-13.83-43.45-21.9-13.84-8.07-34.33-21.39-34.69-25.39Z"/>
      <path class="cls-15" d="M289.03,884.74c-.73-.1-1.43.51-1.86,1.02-.7.85-1.19,1.92-1.73,2.88-1.32,2.35-2.64,4.7-3.96,7.05l-1.03,1.84v.03c1.35,1.8,3.07,3.37,4.76,4.84,3.93,3.44,8.3,6.26,12.85,8.81,6.46,3.63,12.91,7.25,19.37,10.88,7.55,4.24,15.09,8.48,22.64,12.72,2.77,1.56,5.54,3.11,8.31,4.67,1.66.93,3.31,1.92,5.02,2.76,3.15,1.55,6.44,2.86,9.74,4.06,3.87,1.4,7.84,2.67,11.89,3.43,1.6.3,3.23.53,4.87.5,1.15-.02,2.39-.16,3.4-.74.48-.27.8-.63,1.1-1.08.72-1.07,1.35-2.21,1.9-3.38,1.02-2.13,1.87-4.39,2.38-6.7.12-.55.73-2.54-.16-2.72-.43-.09-.92-.05-1.36-.07-.83-.02-1.66-.05-2.49-.09-5.46-.26-11-.98-16.16-2.88-4.19-1.54-8.23-3.57-12.26-5.49-5.06-2.4-10.08-4.89-15.06-7.45-9.79-5.03-19.36-10.42-28.67-16.3-4.49-2.84-8.94-5.76-13.25-8.87-3.06-2.21-6.28-4.5-8.81-7.33-.57-.64-1.31-1.45-1.41-2.35-.01-.11-.59,0-.57.15.1.97.94,1.85,1.56,2.53,1.21,1.33,2.6,2.5,3.99,3.62,4.04,3.27,8.35,6.21,12.69,9.06,9.7,6.39,19.72,12.25,30.01,17.65,9.63,5.05,19.39,9.97,29.39,14.23,5.34,2.28,11.11,3.23,16.88,3.59,1.62.1,3.26.07,4.87.2.42.03.46.26.48.66.03.87-.2,1.76-.42,2.59-.65,2.54-1.64,5.03-2.87,7.34-.78,1.47-1.48,3.02-3.21,3.41-1.53.34-3.2.17-4.74-.05-2.02-.28-4.01-.75-5.97-1.28-4.28-1.16-8.48-2.67-12.58-4.37-2.43-1.01-4.8-2.11-7.09-3.39-5.95-3.34-11.91-6.69-17.86-10.03-8.15-4.58-16.29-9.15-24.44-13.73-3.19-1.79-6.39-3.59-9.58-5.38-4.58-2.57-9.03-5.3-13.06-8.69-1.46-1.23-2.88-2.54-4.18-3.94-.34-.37-.68-.74-1.01-1.13-.06-.08-.34-.35-.35-.42-.02-.15.42-.75.51-.91l1.24-2.21,3.08-5.49c.36-.65.73-1.29,1.09-1.94.3-.52.61-1.05,1.04-1.47.16-.16.34-.32.56-.41.05-.02.06-.01.01-.02.14.02.62-.2.47-.22Z"/>
    </g>
    <path class="cls-15" d="M354.76,935.33c-.34.47-.84.7-1.37.89-.62.22-1.24.43-1.87.64-1.25.43-2.49.85-3.74,1.28-2.54.87-5.08,1.73-7.62,2.6-.07.03-.23.1-.16.2s.31.01.37-.01c2.68-.91,5.35-1.83,8.03-2.74,1.34-.46,2.68-.91,4.02-1.37.99-.34,2.21-.6,2.86-1.49.13-.18-.43-.11-.53.02h0Z"/>
    <path class="cls-33" d="M343.28,831.62c-3.02,10.41-8.75,19.88-11.39,30.41,17.42,6.44,29.1,4,29.1,4l12.98-30.74c-8.48,3.17-17.63,1.09-30.69-3.68Z"/>
    <path class="cls-27" d="M327.9,850.33c-7.06-2.15-14.1-4.34-21.18-6.44-3.67-1.09-7.35-2.18-11.02-3.26l-7.99,20.06-6.95,11.8s4.81,32.84,15.97,38.41c11.16,5.56,37.89,12.33,37.89,12.33,0,0-21.54-40.79-21.85-47.4-.06-1.19,6.01-11.16,15.13-25.5Z"/>
    <g>
      <path class="cls-37" d="M307.76,885.22s-2.54-7.6.96-11.04c3.5-3.44,6.71-1.06,7.32.64.62,1.7,20.54,38.37,20.54,38.37"/>
      <path class="cls-15" d="M308.04,885.14c-.65-1.96-.98-4.14-.87-6.19.08-1.53.44-3.12,1.43-4.33,1.31-1.6,3.5-2.63,5.45-1.57,1.23.67,1.66,1.81,2.25,2.97.67,1.32,1.36,2.63,2.05,3.93,2.24,4.24,4.51,8.46,6.79,12.69,2.4,4.46,4.81,8.92,7.22,13.37.87,1.6,1.73,3.2,2.6,4.8.42.77.78,1.62,1.27,2.34.02.03.04.07.06.11.11.2.67.02.57-.15-1.14-2.09-2.27-4.19-3.41-6.28-2.47-4.55-4.93-9.11-7.39-13.67s-4.75-8.82-7.09-13.24c-.72-1.36-1.44-2.72-2.14-4.1-.6-1.19-1.04-2.32-2.29-3.03-3.04-1.71-6.64.89-7.57,3.86-.81,2.59-.4,5.55.32,8.12.05.18.1.35.16.53.07.21.64.05.57-.15h0Z"/>
    </g>
    <g>
      <path class="cls-37" d="M264.66,886.77s4.81-8.09,10.12-12.09c5.32-4.01,5.48-4.97,8.51-1.15,3.03,3.82,2.31,12.95,8.57,16.47,4.48,2.51,8.35.88,12.01-1.12,1.46-.8,2.89-1.66,4.31-2.34,4.97-2.37,5.64-3.91,10.59,3.32,4.95,7.23,12.96,19.76,20.9,25.07,7.94,5.31,10.4,5.86,16.76,10.92,6.36,5.05,6.31,10.95,6.31,10.95,0,0,1.82,9.43-7.45,8.81-9.27-.62-75.63-37.56-75.63-37.56l-15-21.26Z"/>
      <path class="cls-15" d="M264.92,886.77c.87-1.46,1.83-2.86,2.83-4.22,1.94-2.66,4.08-5.26,6.64-7.35,1.33-1.08,2.7-2.16,4.11-3.14.81-.57,1.65-1.1,2.58-.47s1.84,1.77,2.43,2.76,1,2.17,1.34,3.31c.8,2.62,1.35,5.34,2.58,7.81,1.36,2.74,3.59,4.83,6.59,5.64,3.54.95,6.97-.49,10.03-2.16,1.72-.94,3.42-1.89,5.18-2.76.96-.48,1.91-1.06,2.95-1.35,2.29-.64,4,1.91,5.16,3.47,1.97,2.67,3.76,5.49,5.65,8.22,4.02,5.8,8.26,11.72,13.64,16.36,4.81,4.15,10.74,6.75,15.93,10.36,2.91,2.02,5.83,4.19,7.75,7.23,1.12,1.78,1.96,3.85,2.14,5.96s.35,4.41-.81,6.38c-1.74,2.98-5.5,3.04-8.45,2.14-2.67-.81-5.26-1.94-7.81-3.06-3.65-1.61-7.25-3.33-10.84-5.09-4.23-2.07-8.43-4.2-12.62-6.35s-8.68-4.51-13-6.8c-4.02-2.13-8.02-4.28-12.02-6.44-3.22-1.74-6.44-3.49-9.66-5.26-2.01-1.1-4.02-2.21-6.03-3.32-.4-.22-.84-.41-1.21-.67-.12-.08-.04-.02-.09-.08-.2-.22-.36-.51-.53-.75l-6.29-8.92c-2.32-3.29-4.64-6.58-6.96-9.87-.4-.56-.79-1.12-1.19-1.68-.1-.15-.66.04-.53.22,1.5,2.12,2.99,4.24,4.49,6.36l7.74,10.97,2.4,3.4c.18.26.3.49.57.64,1.33.79,2.71,1.5,4.06,2.24,2.82,1.55,5.64,3.1,8.47,4.63,3.81,2.07,7.63,4.13,11.45,6.18,4.33,2.31,8.66,4.61,13.01,6.88s8.7,4.5,13.08,6.7c3.92,1.96,7.87,3.89,11.85,5.73,3,1.39,6.03,2.75,9.13,3.89,2.43.89,4.77,1.61,7.39,1.08,1.93-.39,3.56-1.51,4.41-3.31.65-1.38.81-2.96.72-4.47-.18-2.93-1.02-5.69-2.71-8.13-2.06-2.98-5.12-5.15-8.09-7.15-2.36-1.58-4.84-2.97-7.26-4.44-3.13-1.89-6.24-3.82-8.94-6.31s-5.02-5.23-7.24-8.07c-2.26-2.89-4.37-5.88-6.44-8.91-1.88-2.74-3.61-5.67-5.78-8.2-1.26-1.47-2.71-2.6-4.72-1.99-1,.31-1.92.83-2.85,1.3-1.76.89-3.49,1.82-5.22,2.77s-3.54,1.88-5.5,2.26c-2.15.42-4.29.03-6.21-1.02-2.67-1.46-4.18-4.12-5.15-6.9-.89-2.55-1.34-5.27-2.42-7.75-.5-1.13-1.21-2.1-2.04-3.01-.57-.62-1.25-1.29-2.14-1.29s-1.78.58-2.5,1.1c-1.45,1.03-2.9,2.13-4.26,3.28-2.51,2.11-4.62,4.69-6.54,7.33-.96,1.33-1.9,2.69-2.74,4.1-.13.22.44.15.53,0Z"/>
    </g>
    <path class="cls-15" d="M268.42,889.56c.84-2.23,2.19-4.35,3.66-6.2s3.23-3.38,5.16-4.77c1.55-1.13,3.14-2.21,4.8-3.18.61-.36,1.23-.72,1.87-1,.36-.16.03-.37-.23-.26-.54.23-1.06.53-1.57.82-1.6.91-3.13,1.93-4.62,2.99-1.96,1.39-3.81,2.84-5.37,4.68-1.19,1.4-2.22,2.92-3.1,4.53-.43.8-.85,1.62-1.17,2.46-.08.2.5.13.57-.07h0Z"/>
    <path class="cls-15" d="M340.66,933.4c.54.22,1.15.16,1.52-.32.4-.51.54-1.21.72-1.82.27-.93.57-1.86,1-2.74.55-1.13,1.3-2.15,2.22-3.01,1.46-1.36,3.29-2.25,5.18-2.85.1-.03.28-.12.24-.25s-.24-.13-.33-.1c-2.99.96-5.79,2.63-7.42,5.38-.53.9-.91,1.87-1.23,2.86-.22.69-.36,1.42-.66,2.07-.03.06-.06.13-.1.19-.02.03-.03.06-.05.08-.02.03-.05.07-.03.05-.04.05-.08.09-.12.13.06-.05-.12.08-.04.03-.02.01-.05.02-.07.03.11-.03,0,0-.02,0,.06,0,.02,0-.03,0-.03,0,.05,0-.03,0-.1-.01-.08,0-.15-.02-.08-.02-.16-.05-.24-.08-.22-.09-.67.22-.34.36h0Z"/>
    <g>
      <path class="cls-24" d="M315.11,892.97l-.02-.08c-.16-.64.62-1.36,1.73-1.6l8-1.71c1.11-.24,2.15.09,2.3.73l.02.08c.16.64-.62,1.36-1.73,1.6l-8,1.71c-1.11.24-2.15-.09-2.3-.73Z"/>
      <path class="cls-15" d="M315.4,892.89c-.23-.96.95-1.38,1.68-1.53l2.03-.44,5.24-1.12c.74-.16,1.64-.35,2.26.22.48.45.22,1.08-.24,1.42-.33.25-.71.37-1.11.46-1.57.34-3.14.67-4.7,1.01l-2.47.53c-.68.15-1.38.34-2.07.07-.29-.11-.54-.3-.63-.61-.05-.16-.62,0-.57.15.2.68,1.05.86,1.67.87.38,0,.75-.05,1.12-.13l2.17-.47,5.44-1.16c.31-.07.62-.14.91-.27.54-.23,1.27-.67,1.32-1.34.09-1.32-1.9-1.25-2.72-1.08-1.69.36-3.38.72-5.07,1.09l-2.48.53c-.84.18-1.83.44-2.27,1.25-.12.23-.14.46-.08.7.04.16.61.02.57-.15Z"/>
    </g>
    <g>
      <path class="cls-24" d="M320.3,898.51l-.07-.31c-.14-.59.56-1.25,1.57-1.46l5.97-1.25c1-.21,1.94.1,2.08.7l.07.31c.14.59-.56,1.25-1.57,1.46l-5.97,1.25c-1,.21-1.94-.1-2.08-.7Z"/>
      <path class="cls-15" d="M320.59,898.43c-.03-.14-.09-.3-.09-.45,0-.22.14-.41.3-.56.3-.28.7-.42,1.09-.51.46-.1.92-.19,1.38-.29l4.22-.88c.62-.13,1.43-.27,1.91.24.22.23.31.72.17,1-.23.46-.8.68-1.27.78-1.16.25-2.32.48-3.47.73l-2.01.42c-.59.12-1.2.26-1.78,0-.21-.1-.39-.25-.45-.48-.07-.26-.64-.1-.57.15.28.99,1.72.96,2.5.8.57-.12,1.13-.24,1.7-.36,1.38-.29,2.76-.57,4.14-.87.81-.17,2.06-.78,1.83-1.8-.05-.2-.08-.39-.21-.56-.16-.21-.41-.35-.66-.44-.52-.19-1.1-.17-1.63-.06-1.35.27-2.69.56-4.03.84l-1.8.38c-.74.15-1.94.63-1.94,1.56,0,.17.06.34.1.51.06.26.64.11.57-.15Z"/>
    </g>
    <g>
      <path class="cls-24" d="M325.06,903.7l-.1-.39c-.1-.4.55-.88,1.45-1.08l4.25-.93c.9-.2,1.72-.03,1.83.36l.1.39c.1.4-.55.88-1.45,1.08l-4.25.93c-.9.2-1.72.03-1.83-.36Z"/>
      <path class="cls-15" d="M325.35,903.63c-.05-.2-.17-.44-.05-.63.22-.34.72-.5,1.09-.58.3-.07.6-.13.9-.2l3.21-.7c.11-.02.22-.05.34-.07.37-.06.95-.12,1.27.15.09.07.1.17.13.27s.08.23.08.34c-.01.34-.54.55-.79.65-.35.13-.73.19-1.09.26l-1.72.38-1.66.36c-.18.04-.36.08-.54.1-.31.03-1.04.07-1.17-.32-.07-.22-.64-.07-.57.15.13.4.65.5,1.01.54.4.04.8-.01,1.18-.1.44-.09.87-.19,1.31-.29,1-.22,2.01-.41,3.01-.66.49-.12,1.03-.33,1.38-.71.11-.12.22-.27.23-.44.01-.13-.04-.26-.07-.38-.03-.13-.06-.26-.16-.37-.13-.14-.33-.22-.51-.27-.5-.13-1.03-.08-1.53.03-1.02.22-2.04.45-3.06.67-.39.09-.79.17-1.18.26-.43.1-.87.25-1.23.51-.27.19-.55.47-.46.83.03.12.06.24.1.37.06.22.63.07.57-.15Z"/>
    </g>
    <g>
      <path class="cls-24" d="M328.38,908.73l-.12-.48c-.12-.48.52-1.03,1.42-1.22l4.26-.92c.9-.19,1.74.04,1.86.52l.12.48c.12.48-.52,1.03-1.42,1.22l-4.26.92c-.9.19-1.74-.04-1.86-.52Z"/>
      <path class="cls-15" d="M328.66,908.65c-.05-.2-.16-.46-.12-.66.08-.39.54-.63.88-.75s.7-.17,1.05-.24l3.3-.71c.51-.11,1.22-.21,1.62.21.15.16.19.47.23.68.07.36-.26.63-.54.79-.37.21-.81.27-1.22.35l-1.74.38-1.6.34c-.5.11-1.04.21-1.53-.03-.15-.08-.28-.19-.33-.36-.05-.19-.63-.03-.57.15.12.41.6.58.98.63.41.06.83.02,1.23-.06.44-.09.88-.19,1.33-.29l2-.43c.4-.09.82-.15,1.2-.28.46-.15.98-.4,1.25-.82.19-.3.11-.56.03-.87-.09-.35-.3-.56-.65-.68-.5-.17-1.05-.14-1.56-.03-1.05.22-2.09.45-3.14.68-.37.08-.75.16-1.12.24-.69.15-1.87.65-1.65,1.54l.09.37c.05.19.62.04.57-.15Z"/>
    </g>
    <path class="cls-15" d="M338.35,914.26c-.26,1.93-1.73,3.68-3.77,3.64s-4.21-1.17-5.89-2.36c-1.35-.96-2.57-2.08-3.74-3.25-2.98-2.96-5.66-6.24-8.23-9.55s-4.79-6.38-7.07-9.65c-1.16-1.67-2.31-3.35-3.43-5.06-.09-.14-.62.09-.57.15,3.23,4.96,6.69,9.79,10.31,14.48,2.66,3.45,5.43,6.85,8.53,9.92,1.23,1.22,2.53,2.41,3.97,3.38,1.71,1.15,3.85,2.22,5.97,2.18,2.32-.05,4.19-1.73,4.49-4.03,0-.06-.55-.02-.57.15h0Z"/>
    <g>
      <path class="cls-47" d="M264.66,886.77s-.89-.14-2.03,1.9c-1.14,2.04-6.03,10.73-6.03,10.73,0,0,4.91,6.51,16.47,13,11.55,6.49,49.66,27.89,55.07,30.93,5.41,3.04,28.3,12.13,31.66,7.33,3.36-4.8,5.52-12.79,4.48-13.01-1.04-.22-12.31.27-21.47-3.59s-29.61-13.83-43.45-21.9c-13.84-8.07-34.33-21.39-34.69-25.39Z"/>
      <path class="cls-15" d="M264.84,886.65c-.74-.1-1.45.59-1.86,1.1-.68.86-1.17,1.91-1.71,2.87-1.31,2.33-2.62,4.66-3.93,7l-1.03,1.84s0,.04.02.06c1.38,1.83,3.14,3.42,4.86,4.92,3.93,3.42,8.28,6.21,12.81,8.76,6.45,3.62,12.91,7.25,19.36,10.87,7.56,4.25,15.13,8.5,22.69,12.74,2.76,1.55,5.51,3.1,8.27,4.65,1.64.92,3.26,1.89,4.95,2.72,3.17,1.57,6.48,2.88,9.81,4.08,3.89,1.41,7.87,2.68,11.95,3.43,1.58.29,3.19.51,4.8.48,1.14-.02,2.37-.17,3.37-.75.46-.27.77-.63,1.07-1.07.72-1.07,1.35-2.21,1.9-3.38,1.02-2.13,1.87-4.39,2.38-6.7.12-.55.73-2.56-.18-2.74-.43-.08-.91-.05-1.34-.06-.85-.03-1.7-.05-2.55-.09-5.51-.26-11.1-1-16.28-2.95-4.07-1.53-8.02-3.49-11.94-5.35-5.1-2.42-10.16-4.93-15.18-7.51-9.81-5.05-19.41-10.45-28.74-16.35-4.47-2.82-8.89-5.73-13.17-8.82-3.06-2.21-6.28-4.5-8.81-7.33-.57-.64-1.31-1.45-1.41-2.35-.01-.13-.59-.02-.57.15.1.96.94,1.85,1.56,2.53,1.21,1.33,2.6,2.5,3.99,3.62,4.04,3.27,8.35,6.21,12.69,9.06,9.7,6.39,19.72,12.25,30.01,17.65,9.6,5.04,19.34,9.94,29.32,14.21,5.37,2.29,11.15,3.27,16.95,3.63,1.62.1,3.25.08,4.87.2.45.03.47.29.48.72,0,.84-.21,1.71-.42,2.52-.65,2.54-1.64,5.03-2.87,7.34-.79,1.48-1.47,3.01-3.22,3.4-1.53.34-3.19.17-4.73-.04-2.07-.28-4.11-.77-6.12-1.32-4.25-1.16-8.41-2.66-12.48-4.35-2.43-1.01-4.8-2.11-7.1-3.4-5.98-3.36-11.96-6.72-17.94-10.08-8.14-4.57-16.29-9.15-24.43-13.72-3.18-1.79-6.36-3.57-9.55-5.36-4.6-2.58-9.06-5.33-13.1-8.74-1.44-1.22-2.83-2.51-4.12-3.9-.34-.37-.68-.75-1.01-1.14-.07-.09-.17-.18-.23-.28-.05-.07-.07-.14-.07-.05,0-.26.43-.77.56-.99l1.23-2.2c1.04-1.85,2.07-3.69,3.11-5.54.35-.63.71-1.26,1.06-1.89.3-.54.64-1.09,1.11-1.5.12-.1.45-.34.52-.33.14.02.66-.22.37-.26Z"/>
    </g>
    <path class="cls-33" d="M276.84,822.16s48.57,21.62,65.09,15.44l-9.6,29.89s-42.29,1.47-62.11-15.31l6.62-30.02Z"/>
    <path class="cls-20" d="M333.06,867.42c.98-2.86,1.95-5.73,2.93-8.59,2.55-7.5,5.1-15,7.64-22.51,3.63-10.71,7.24-21.43,10.84-32.15,4.14-12.31,8.26-24.63,12.35-36.95s8.23-24.85,12.3-37.29c3.59-11.01,7.16-22.02,10.64-33.06,2.54-8.07,5.07-16.15,7.38-24.28,2.96-10.44,4.96-21.24,2.17-32-2.1-8.11-6.76-15.41-13.65-20.27-6.02-4.24-13.21-6.39-20.49-7.03-10-.88-20.01-1.75-30.01-2.63-.96-.08-1.92-.17-2.89-.25-.64-.06-1.51.86-.53.95,9.26.81,18.53,1.62,27.79,2.43,4.6.4,9.17.69,13.64,1.96,8.85,2.51,16.57,8.08,21.09,16.17,6.47,11.58,5.7,25.08,2.34,37.49-1.99,7.34-4.25,14.61-6.51,21.87-3.27,10.5-6.64,20.97-10.04,31.43-3.96,12.19-7.97,24.37-12,36.53-4.11,12.4-8.24,24.78-12.4,37.16-3.74,11.15-7.49,22.29-11.26,33.43-2.81,8.31-5.62,16.62-8.45,24.92-1.39,4.09-2.78,8.18-4.17,12.26-.06.18-.12.35-.18.53-.2.59,1.27.42,1.46-.14h0Z"/>
    <path class="cls-32" d="M351.44,449.9c-1.78,3.78-2.58,8.79-1.9,12.9.54,3.26,1.89,6.44,2.91,9.57,3.42,10.47,6.39,21.53,5.44,32.65-.59,6.83-2.85,13.37-7.17,18.75-.41.51,1.05.43,1.35.05,7.55-9.4,8.42-21.76,6.59-33.26-.86-5.38-2.27-10.65-3.89-15.84-1.14-3.64-2.52-7.23-3.48-10.92-.64-2.47-.54-5.06-.19-7.58.3-2.1.78-4.33,1.69-6.27.3-.64-1.14-.5-1.35-.05h0Z"/>
    <path class="cls-29" d="M221.8,514.71c-9.65-.23-19.1.8-28.27-2.11-2.79-.88-11.75-3.83-14.51-4.81.66-25.07,8.04-50.29,10.35-63.09,5.47-22.81,35.37-34.19,35.37-34.19l11.2,72.84-1.23,30.61c-4.28.59-8.59.87-12.91.76Z"/>
    <path class="cls-27" d="M314.37,389.83c-.38,4.2,5.55,14.2,5.55,14.2,0,0-1.22,26.25-.29,31.73.23,1.35,6.88,6.16,8.4,9.84,4.65,11.24,4.03,22.72,4.03,22.72l21.33-14.97-5.44-15.12,2.77-27.28-.18-26.07-14.99-16.6c-.14.07-.27.15-.39.24-1.12.84-1.34,2.42-.51,3.53l-5.88-5.73c-4.67,3.01,1.14,12.4,1.14,12.4l-7.04-8.04c-4.1,3.56-.02,10.25-.02,10.25l6.93,12.11s0,8.12-.76,10.76c-.76,2.65-1.32,5.46-1.32,5.46l-1.37-9.07-9.54-16.19s-2.07,1.58-2.45,5.78Z"/>
    <path class="cls-14" d="M338.12,390.73c-.07,4.22-.08,8.04-.03,10.81,0,.23.01.45.02.67.23-.07.47-.15.7-.23,0-.14.01-.28.02-.43.13-2.77.26-6.58.33-10.79l.02-1.16v-.18s-.11-.15-.11-.15c-2.44-3.1-4.68-5.86-6.32-7.78s-2.7-3.09-2.8-3c.61,1.23,1.37,2.38,2.25,3.43,1.43,2.02,3.56,4.8,5.96,7.86.01.31,0,.63-.03.96Z"/>
    <path class="cls-14" d="M345.48,394.21c.14-2.53.27-6.07.35-10.02v-.2s-.13-.15-.13-.15l-.83-.94c-2.82-3.17-5.41-6-7.33-8.03-1.92-2.02-3.16-3.22-3.27-3.12s.93,1.47,2.71,3.62c1.78,2.14,4.32,5.01,7.11,8.22l.84.94-.14-.36c-.06,4.01-.06,7.5-.01,10.04-.07,1.37.02,2.75.27,4.1.14,0,.28-1.57.42-4.1Z"/>
    <path class="cls-27" d="M327.54,433.19c2.6-.85,4.92-2.05,7.19-3.4,3.37-2,4.9-5.95,9.07-6.94l23.22,51.98c6.29,10.76,14.04,32.77,15.5,39.29,1.51,6.79-.07,18.81-1.59,25.03-2.41,9.82-9.1,13.25-14.69,12.61-14.6-1.67-19.15-12.97-19.15-12.97,0,0-1.18,1.22-9.5-34.53l-12.79-71.31c.83-.2,1.92.51,2.73.24Z"/>
    <path class="cls-27" d="M271.01,391.62c.54,4.18-4.97,14.41-4.97,14.41,0,0,4.03,26.48,3.33,31.99-.17,1.36-6.15,5.79-7.53,9.53-4.19,11.42-5.33,23.21-5.33,23.21l-22.34-16.21,5.25-13.21-3.87-27.14-.87-26.05,14.3-17.19c.14.06.27.14.4.22,1.15.79,1.44,2.36.65,3.51l5.64-5.96c4.79,2.82-.64,12.44-.64,12.44l6.71-8.32c4.24,3.39.43,10.25.43,10.25l-6.44,12.38s.33,8.11,1.19,10.73c.86,2.62,1.54,5.4,1.54,5.4l1.01-9.11,8.88-16.56s2.13,1.5,2.68,5.68Z"/>
    <path class="cls-46" d="M238.26,384.56c3.28-3.94,6.56-7.89,9.85-11.83.47-.57.94-1.13,1.41-1.7l-.58.11c1.34.67,1.81,2.25.99,3.52-.2.32.5.24.64.1,1.88-1.99,3.76-3.97,5.64-5.96l-.58.11c1.88,1.15,2.08,3.43,1.77,5.42s-1.02,3.86-1.87,5.65c-.19.39-.38.78-.59,1.16-.18.32.51.26.64.1,1.96-2.43,3.91-4.85,5.87-7.28l.84-1.04-.63.07c2.9,2.39,2.1,6.56.68,9.56-.68,1.45-1.48,2.85-2.21,4.28l-3.97,7.64c-.21.4-.52.8-.52,1.25,0,1.28.14,2.59.24,3.87.15,1.99.3,4.01.75,5.96.29,1.25.75,2.46,1.09,3.7.23.81.45,1.63.64,2.45.07.28.7.1.73-.14l.64-5.78.33-3.02c.01-.1.05-.36.03-.29.05-.13.14-.26.2-.38,2.14-4,4.29-8,6.43-11.99.74-1.39,1.49-2.78,2.23-4.16l-.63.17c1.49,1.06,2.22,3.33,2.52,5.05.39,2.27-.43,4.63-1.2,6.74s-1.77,4.33-2.81,6.43c-.26.51-.56,1.02-.79,1.54-.13.3-.04.59,0,.92.26,1.83.51,3.66.77,5.49.04.28.77.11.72-.19-.23-1.65-.46-3.29-.69-4.94-.05-.34-.08-.7-.14-1.04-.01-.06-.03-.13-.03-.19,0,.06-.04.15.01.05.23-.48.49-.95.73-1.43,1.04-2.08,2-4.2,2.82-6.38.76-2.02,1.63-4.33,1.42-6.53-.19-2.01-1.02-4.66-2.77-5.91-.17-.12-.53,0-.63.17-1.85,3.45-3.7,6.9-5.55,10.35l-2.96,5.51c-.13.25-.33.52-.4.79-.19.73-.17,1.58-.26,2.33-.25,2.25-.5,4.5-.74,6.75l.73-.14c-.46-1.91-1.08-3.77-1.62-5.66-.47-1.66-.61-3.43-.76-5.14-.14-1.57-.25-3.14-.32-4.71,0-.17,0-.34-.02-.51s0-.05-.02-.02c.09-.23.23-.45.35-.66,2.08-3.99,4.23-7.96,6.24-11.99,1.55-3.12,2.47-7.59-.59-10.12-.16-.13-.49-.1-.63.07-1.96,2.43-3.91,4.85-5.87,7.28l-.84,1.04.64.1c.63-1.13,1.15-2.33,1.6-3.55.73-1.99,1.37-4.3.89-6.42-.26-1.13-.91-2.07-1.9-2.68-.16-.1-.46-.02-.58.11-1.88,1.99-3.76,3.97-5.64,5.96l.64.1c.91-1.42.39-3.19-1.11-3.94-.17-.08-.46-.04-.58.11-3.28,3.94-6.56,7.89-9.85,11.83-.47.57-.94,1.13-1.41,1.7-.28.34.41.37.59.16h0Z"/>
    <path class="cls-14" d="M252.31,384.02c-1.56,1.98-3.69,4.82-6.01,8.03l-.11.15.02.18.07,1.16c.24,4.21.52,8.01.76,10.77.04.44.08.85.12,1.24.21.04.42.07.64.11,0-.43-.01-.89-.02-1.39-.05-2.77-.23-6.58-.46-10.8-.04-.32-.06-.64-.06-.96,2.27-3.15,4.28-6.01,5.63-8.09.84-1.09,1.55-2.27,2.11-3.52-.11-.09-1.11,1.13-2.68,3.11Z"/>
    <path class="cls-14" d="M240.1,397.26c-.24-2.52-.51-6.05-.76-10l-.02-.2.13-.16.79-.97c2.69-3.28,5.17-6.22,7-8.32,1.83-2.1,3.03-3.34,3.14-3.25s-.87,1.51-2.56,3.72c-1.69,2.21-4.11,5.18-6.77,8.5l-.8.98.12-.37c.22,4.01.37,7.49.42,10.03.13,1.37.09,2.75-.11,4.11-.14,0-.34-1.55-.58-4.08Z"/>
    <path class="cls-32" d="M217.83,427.41c5.01,1.28,8.11,5.78,9.96,10.32,1.04,2.56,1.73,5.24,2.29,7.94.67,3.23,1.12,6.51,1.35,9.81.88,12.74-1.79,25.29-5.02,37.54-1.93,7.3-4.02,14.55-5.8,21.89-.07.3.66.2.73-.08,3.14-12.92,7.37-25.61,9.6-38.74,1.06-6.28,1.61-12.65,1.33-19.02-.15-3.34-.52-6.68-1.13-9.97-.53-2.87-1.19-5.74-2.2-8.48-1.86-5.07-5.12-10.22-10.67-11.64-.26-.07-.86.32-.43.43h0Z"/>
    <path class="cls-27" d="M204.99,514.55l23.98-47.05,12.12-27.59c9.54,1.87,11.03,3.08,20.14,6.41-5.29,31.57-11.24,76.16-17.6,87.33-9.54,16.77-31.03,42.88-50.58,22.26-6.25-6.57-5.86-35.44-7.04-45.7"/>
    <path class="cls-14" d="M203.24,514.76c-2.09,1.75-3.61,4.15-4.84,6.54-1.58,3.06-2.73,6.37-3.34,9.76-.34,1.9-.51,3.82-.44,5.75,0,.21.73.07.72-.19-.12-3.37.49-6.75,1.52-9.95.97-3.03,2.32-5.99,4.14-8.61.81-1.17,1.72-2.28,2.81-3.19.31-.26-.41-.24-.58-.1h0Z"/>
    <text class="cls-16" transform="translate(254.99 218.49)"><tspan x="0" y="0">?</tspan></text>
    <text class="cls-17" transform="translate(328.95 240.95) rotate(18.7)"><tspan x="0" y="0">?</tspan></text>
    <text class="cls-18" transform="translate(190.88 239.09) rotate(-8.8)"><tspan x="0" y="0">?</tspan></text>
  </g>
</svg>