<?xml version="1.0" encoding="UTF-8"?>
<svg xmlns="http://www.w3.org/2000/svg" xmlns:xlink="http://www.w3.org/1999/xlink" viewBox="0 0 1334 1000">
  <defs>
    <style>
      .cls-1 {
        fill: none;
      }

      .cls-2 {
        fill: #131429;
      }

      .cls-3 {
        fill: #a7bcac;
      }

      .cls-4 {
        fill: #246868;
      }

      .cls-5 {
        fill: #101931;
      }

      .cls-6 {
        fill: #0e0c0c;
      }

      .cls-7 {
        fill: #ddd42b;
      }

      .cls-8 {
        fill: #010101;
      }

      .cls-9 {
        fill: #25255d;
      }

      .cls-10 {
        fill: #638e9f;
      }

      .cls-11 {
        fill: #653c29;
      }

      .cls-12 {
        fill: #231f20;
      }

      .cls-13 {
        fill: #331d17;
      }

      .cls-14 {
        fill: #f1eef7;
      }

      .cls-15 {
        fill: #af3c25;
      }

      .cls-16 {
        fill: #4f3a31;
      }

      .cls-17, .cls-18 {
        fill: #67876f;
      }

      .cls-19 {
        fill: #1a4244;
      }

      .cls-20 {
        fill: #a66e53;
      }

      .cls-21 {
        fill: #0a2f44;
      }

      .cls-22 {
        fill: url(#linear-gradient);
        opacity: .5;
      }

      .cls-23 {
        fill: #7c732e;
      }

      .cls-24 {
        fill: #fff;
      }

      .cls-25 {
        fill: #59341c;
      }

      .cls-26 {
        fill: #8a4a20;
      }

      .cls-27 {
        fill: #0d0b09;
      }

      .cls-28 {
        fill: #42221a;
      }

      .cls-29 {
        fill: #513835;
      }

      .cls-30 {
        fill: #9b5925;
      }

      .cls-31 {
        fill: #3b3b8c;
      }

      .cls-18 {
        stroke: #a7bcac;
        stroke-width: .5px;
      }

      .cls-18, .cls-32 {
        stroke-miterlimit: 10;
      }

      .cls-33 {
        fill: #f2ebd1;
      }

      .cls-34 {
        fill: #4696a3;
      }

      .cls-35 {
        fill: #24180f;
      }

      .cls-36 {
        fill: #628e9f;
      }

      .cls-37 {
        fill: #4c53a3;
      }

      .cls-32 {
        stroke: #000;
      }

      .cls-38 {
        fill: #5d483b;
      }

      .cls-39 {
        fill: #28160e;
      }

      .cls-40 {
        fill: #825639;
      }

      .cls-41 {
        fill: #eb9944;
      }

      .cls-42 {
        clip-path: url(#clippath);
      }

      .cls-43 {
        fill: #4f2e25;
      }

      .cls-44 {
        fill: #773022;
      }
    </style>
    <linearGradient id="linear-gradient" x1="-6768.08" y1="9088.37" x2="-5498.2" y2="9088.37" gradientTransform="translate(-8407.49 6686.45) rotate(90) scale(1 -1)" gradientUnits="userSpaceOnUse">
      <stop offset="0" stop-color="#f0ebe0"/>
      <stop offset=".18" stop-color="#eee8dd" stop-opacity=".99"/>
      <stop offset=".33" stop-color="#e8e1d4" stop-opacity=".97"/>
      <stop offset=".46" stop-color="#ded4c5" stop-opacity=".93"/>
      <stop offset=".59" stop-color="#d0c2b0" stop-opacity=".88"/>
      <stop offset=".72" stop-color="#bdab95" stop-opacity=".82"/>
      <stop offset=".84" stop-color="#a78e73" stop-opacity=".73"/>
      <stop offset=".96" stop-color="#8d6d4d" stop-opacity=".64"/>
      <stop offset="1" stop-color="#83603d" stop-opacity=".6"/>
    </linearGradient>
    <clipPath id="clippath">
      <polygon class="cls-1" points="1401.39 1230.19 -92.4 1230.19 -36.94 989.1 1345.93 989.1 1401.39 1230.19"/>
    </clipPath>
  </defs>
  <g id="Layer_2" data-name="Layer 2">
    <polyline class="cls-33" points="1401.39 1166.19 1401.39 -100.15 -39.62 -100.15 -39.62 1166.19"/>
    <polyline class="cls-22" points="1401.39 1184.06 -39.62 1184.06 -39.62 -85.82 1401.39 -85.82"/>
    <polyline class="cls-16" points="-92.4 1179.72 1586.43 1179.72 1586.43 933.08 -92.4 933.08"/>
    <polygon class="cls-26" points="1401.39 1231.32 -92.4 1231.32 -36.94 960.13 1345.93 960.13 1401.39 1231.32"/>
    <g class="cls-42">
      <rect class="cls-30" x="-106.18" y="992.88" width="1549.73" height="21.38"/>
    </g>
    <polygon class="cls-39" points="265.66 871.42 316.54 871.42 304.94 935.24 265.66 935.24 265.66 871.42"/>
    <polygon class="cls-39" points="1251.52 872.63 1200.65 872.63 1212.24 936.45 1251.52 936.45 1251.52 872.63"/>
    <path class="cls-38" d="M1246.65,701.13l-.96-.36-1.7-65.93c-2.51-49.76-16.3-85.87-45.64-88.67-19.97,0-87.53-.9-94.26,4.14-1.86-86.44,7.76-155.4-136.95-155.4l-159.52.38c-1.7,38.16-6.34,76.18-12.1,113.95-7.22,47.38,6.92,94.47-.47,141.82-3.72,23.8,28.39,47.77,25.24,71.64-3.21,24.32-6.45,48.64-9.61,72.97-4.8,37-9.4,74.05-13.35,111.16h455.4v-77.11c11.34-3.62,19.22-15.58,19.28-29.26v-55c-.03-21.08-9.19-34.83-25.36-44.32Z"/>
    <path class="cls-38" d="M821.95,905.26c.45-10.83.87-21.67,1.21-32.5.78-24.93,27-49.86,27-74.8l-5.93-403.66-343.26-.95c-74.32.01-86.69,68.96-88.56,155.4-6.73-5.05-74.29-4.14-94.26-4.14-29.34,2.8-43.13,38.91-45.64,88.67l-1.7,65.93-.96.36c-16.18,9.49-25.33,23.25-25.36,44.32v55c.06,13.68,7.94,25.64,19.28,29.26v77.11h558.17Z"/>
    <path class="cls-27" d="M270.23,833.56h977.94c.63,0,1.5-.96.53-.96H270.75c-.63,0-1.5.96-.53.96h0Z"/>
    <path class="cls-27" d="M275.12,699.17c.56,0,1.13,0,1.69,0h4.95c2.68-.01,5.36-.02,8.05-.02,3.66,0,7.32-.01,10.98-.02,4.58,0,9.16-.02,13.74-.02,5.44,0,10.89-.02,16.33-.03,6.23-.01,12.46-.02,18.68-.03,7.03-.01,14.06-.02,21.08-.04l23.02-.04c8.34-.01,16.68-.03,25.02-.04,8.92-.02,17.85-.03,26.77-.05,9.45-.02,18.91-.03,28.36-.05,9.93-.02,19.86-.04,29.78-.05,10.31-.02,20.62-.04,30.92-.05,10.74-.02,21.49-.04,32.23-.06,10.97-.02,21.95-.04,32.92-.06,11.26-.02,22.53-.04,33.79-.06,11.46-.02,22.91-.04,34.37-.06,11.6-.02,23.19-.04,34.79-.06,11.68-.02,23.36-.04,35.03-.06,11.71-.02,23.41-.04,35.12-.06,11.68-.02,23.35-.04,35.03-.06,11.55-.02,23.1-.04,34.65-.06,11.49-.02,22.98-.04,34.47-.06,11.21-.02,22.43-.04,33.64-.06,11-.02,22-.04,33.01-.06,10.69-.02,21.39-.04,32.08-.06l30.99-.05c9.91-.02,19.82-.04,29.73-.05,9.4-.02,18.8-.03,28.21-.05,8.94-.02,17.87-.03,26.81-.05l24.86-.04c7.67-.01,15.35-.03,23.02-.04,6.98-.01,13.95-.02,20.93-.04l18.66-.03c5.41,0,10.82-.02,16.23-.03l13.63-.02,10.86-.02c2.64,0,5.27,0,7.91-.01h4.85c.52,0,1.04-.01,1.56-.01.42,0,1.57-.63.61-.63-.56,0-1.13,0-1.69,0h-4.95c-2.68.01-5.36.02-8.05.02-3.66,0-7.32.01-10.98.02-4.58,0-9.16.02-13.74.02-5.44,0-10.89.02-16.33.03-6.23.01-12.46.02-18.68.03-7.03.01-14.06.02-21.08.04l-23.02.04c-8.34.01-16.68.03-25.02.04l-26.77.05c-9.45.02-18.91.03-28.36.05-9.93.02-19.86.04-29.78.05-10.31.02-20.62.04-30.92.05-10.74.02-21.49.04-32.23.06-10.97.02-21.95.04-32.92.06-11.26.02-22.53.04-33.79.06-11.46.02-22.91.04-34.37.06-11.6.02-23.19.04-34.79.06-11.68.02-23.36.04-35.03.06-11.71.02-23.41.04-35.12.06-11.68.02-23.35.04-35.03.06-11.55.02-23.1.04-34.65.06-11.49.02-22.98.04-34.47.06-11.21.02-22.43.04-33.64.06-11,.02-22,.04-33.01.06l-32.08.06-30.99.05c-9.91.02-19.82.04-29.73.05-9.4.02-18.8.03-28.21.05-8.94.02-17.87.03-26.81.05-8.29.01-16.57.03-24.86.04-7.67.01-15.35.03-23.02.04-6.98.01-13.95.02-20.93.04l-18.66.03c-5.41,0-10.82.02-16.23.03l-13.63.02-10.86.02c-2.64,0-5.27,0-7.91.01h-4.85c-.52,0-1.04.01-1.56.01-.42,0-1.57.63-.61.63h0Z"/>
    <path class="cls-27" d="M1103.09,547.39c-6.41,8.54-12.42,17.62-16.81,27.38-4.87,10.82-5.73,22.42-6.2,34.12-.74,18.4-1.04,36.81-1.41,55.21-.19,9.63-.37,19.27-.59,28.9,0,.27,1.44.06,1.45-.39.41-18.19.71-36.38,1.14-54.57.2-8.67.42-17.34.73-26.01.41-11.3.66-22.93,4.7-33.63,4.24-11.21,11.15-21.57,18.31-31.1.3-.4-1.1-.22-1.32.08h0Z"/>
    <path class="cls-27" d="M1139.01,547.39c-6.41,8.54-12.42,17.62-16.81,27.38-4.87,10.82-5.73,22.42-6.2,34.12-.74,18.4-1.04,36.81-1.41,55.21-.19,9.63-.37,19.27-.59,28.9,0,.27,1.44.06,1.45-.39.41-18.19.71-36.38,1.14-54.57.2-8.67.42-17.34.73-26.01.41-11.3.66-22.93,4.7-33.63,4.24-11.21,11.15-21.57,18.31-31.1.3-.4-1.1-.22-1.32.08h0Z"/>
    <path class="cls-27" d="M413.69,549c6.44,8.57,12.49,17.71,16.86,27.54,4.86,10.94,5.6,22.73,6.06,34.54.71,18.13,1.01,36.28,1.38,54.42.19,9.57.37,19.15.59,28.72.02.75,1.48.52,1.47-.12-.41-18.31-.72-36.63-1.15-54.94-.21-8.78-.42-17.55-.75-26.33-.42-11.33-.74-22.97-4.9-33.67-4.31-11.08-11.12-21.32-18.23-30.78-.39-.51-1.77.05-1.33.63h0Z"/>
    <path class="cls-27" d="M377.77,549c6.44,8.57,12.49,17.71,16.86,27.54,4.86,10.94,5.6,22.73,6.06,34.54.71,18.13,1.01,36.28,1.38,54.42.19,9.57.37,19.15.59,28.72.02.75,1.48.52,1.47-.12-.41-18.31-.72-36.63-1.15-54.94-.21-8.78-.42-17.55-.75-26.33-.42-11.33-.74-22.97-4.9-33.67s-11.12-21.32-18.23-30.78c-.39-.51-1.77.05-1.33.63h0Z"/>
  </g>
  <g id="Layer_1" data-name="Layer 1">
    <path class="cls-20" d="M276.61,537.83c1.89.74,17.75,20.59,21.04,33.17,3.28,12.58,2.28,39.13,3.54,50.1,1.5,11.33,1.18,23.94,1.76,38.05.15,3.68.03,7.38-.36,11.04l-3.15,30.11-11.11-2.98s-5.39-77.46-11.5-95.15c-6.11-17.69-.22-64.33-.22-64.33Z"/>
    <path class="cls-20" d="M585.63,342.06l-16.14-4.52s-22.23,6.65-32.94,5.48c-7.71-1.14-15.23-3.35-22.34-6.56l-24.42-2.24s-10.99,5.02-12.82,1.69c-1.82-3.32,1.8-6.28,5.31-9.16,3.51-2.87,62.82-24.15,62.82-24.15-5.85-2.9-11.93-5.29-18.19-7.15-9.63-2.79-12.77-9.42-8.16-12.38,2.84-1.83,17.41-1.02,21.17,3.41,3.76,4.43,16.84,1.41,26.16,5.58,9.32,4.17,14.95,16.9,14.95,16.9,4.65,2.84,12.01,5.39,12.01,5.39,2.07,9.63-7.4,27.7-7.4,27.7Z"/>
    <path class="cls-43" d="M503.82,331.64c-.3-.21-.14-1.28-.11-1.5.12-.72.42-1.42.82-2.04.75-1.16,1.96-1.98,3.17-2.58,2.69-1.34,5.83-1.79,8.81-1.81,3.31-.03,6.67.57,9.86,1.42,3.17.85,6.46,1.91,9.27,3.64.57.35,2.46-.48,1.63-.99-3.28-2.02-7.24-3.21-10.97-4.09-3.87-.91-7.9-1.38-11.87-.98-3.26.32-6.66,1.17-9.4,3.03-1.19.81-2.23,1.8-2.85,3.11-.35.73-1.18,2.95-.27,3.59.59.42,2.46-.4,1.9-.8h0Z"/>
    <path class="cls-43" d="M520.23,320.52c0,.24-.28.19-.03.15.14-.02.32-.15.45-.2.6-.25,1.22-.45,1.84-.65,1.83-.59,3.69-1.09,5.56-1.55,1.82-.45,3.65-.87,5.5-1.21.65-.12,1.3-.23,1.95-.3.18-.02.4,0,.57-.04.22-.05.05.12-.05-.09.27.58,2.26-.1,2.05-.55-.35-.74-2.58-.18-3.14-.09-2.39.37-4.75.92-7.09,1.5-2.3.57-4.6,1.2-6.85,1.98-.6.21-2.82.74-2.82,1.61,0,.44,2.05.12,2.05-.55h0Z"/>
    <path class="cls-43" d="M542.11,324.87h-.02c.22,0,.44,0,.66,0,.18.05.03.01-.01-.17-.04-.2-.11-.4-.15-.6-.12-.65-.14-1.32-.13-1.97.04-2.1.57-4.18,1.46-6.07.76-1.62,1.82-3.09,3.12-4.33.42-.4.87-.78,1.36-1.1.17-.11.33-.19.46-.28.15-.1.06-.03.05-.03-.15,0-.79.33-1.01-.04.32.55,2.26-.2,2.05-.55-.28-.48-1.29-.14-1.68,0-.58.21-1.12.54-1.63.89-1.65,1.17-3.02,2.74-4.06,4.47-1.37,2.28-2.14,4.94-2.19,7.6-.01.79,0,1.64.23,2.41.17.59.47.74,1.12.63.29-.05,1.13-.22,1.19-.59s-.64-.29-.84-.26h0Z"/>
    <path class="cls-43" d="M579.11,308.01c.87,5.11.22,11.48-4.82,14.26-.34.19-.54.62-.16.87.42.27,1.08.03,1.46-.17,2.4-1.32,4.13-3.57,5.08-6.12,1.11-2.99,1.02-6.28.5-9.38-.13-.76-2.19-.26-2.05.55h0Z"/>
    <path class="cls-20" d="M266.22,928.98c-.77-.43-.47-10.76.43-25.38-6.88.02-13.77.06-20.65.06h-7.92l3.19,19.75-2.12,11.94s27.94,10.37,35.91,10.64c7.97.28,10.3,2.39,10.3,2.39,0,0-9.13-13.84-19.15-19.41Z"/>
    <path class="cls-20" d="M225.67,922.9c-.39-.72-.03-8.23.77-19.25h-30.35l3.33,20.73-.7,9.69s37.81,19.77,46.47,19.78c8.67.01,5.69-4.55,5.69-4.55,0,0-22.98-22.3-25.2-26.4Z"/>
    <path class="cls-20" d="M199.98,922.45c.14,3.7-1.38,8.89-2.59,16.62-.53,3.4-3.54,8.16-.03,10.81,6.21,4.69,13.91,3.26,16.78,4.07,6.03,1.71,10.91,1.91,16.68,4.08,5.85,2.2,7.05,2.72,13.55,3.43.9.1,1.85.11,2.66-.26.54-.25.97-.65,1.51-.89,1.9-.86,4.18.5,6.31.33.94-.08,1.81-.46,2.69-.75,2.34-.77,4.86-.94,7.32-1.33,2.45-.4,4.96-1.08,6.73-2.64,1.76-1.56,2.53-4.2,1.16-6.08-2.07-2.83-4.99-1.36-7.96-1.75-2.96-.39-4.06-.91-6.64-2.22-6.57-3.34-7.58-4.01-13.13-6.65-4.31-2.05-16.95-8.54-22.95-13.02l.22-4.57"/>
    <g>
      <path class="cls-43" d="M248.52,960.91c1.52-.35,2.29-2.08,1.7-3.49-.55-1.33-1.92-2.16-3.14-2.79-.73-.38-1.48-.7-2.22-1.05-.32-.15-.74-.06-1.03.12-.2.13-.44.46-.11.61,1.44.68,3.05,1.27,4.24,2.38.53.5.96,1.12,1.01,1.86.02.33-.04.69-.17,1-.06.14-.14.29-.25.41-.07.08-.1.09-.16.14.05-.02.04-.02-.04.02.07-.02.06-.02-.03,0-.24.06-.69.28-.62.59s.62.25.83.2h0Z"/>
      <path class="cls-43" d="M254.48,961.15c.92.03,1.97-.3,2.46-1.14.4-.68.45-1.57.39-2.34-.06-.84-.29-1.53-.83-2.18-.8-.96-1.96-1.51-3.11-1.96-1.31-.52-2.56-1.43-4.02-1.46-.34,0-.75.07-1.02.27-.21.15-.21.32.09.33.7.02,1.36.32,1.98.62s1.21.59,1.85.84c1.23.49,2.55,1.18,3.22,2.37.38.67.44,1.57.4,2.32-.02.43-.1.88-.29,1.27-.08.17-.18.31-.31.45-.03.04-.1.09-.1.08-.02-.07.51-.07.23-.08-.34,0-.75.08-1.02.27-.21.15-.21.32.09.33h0Z"/>
      <path class="cls-43" d="M259.81,960.05c1.31-.41,2.13-1.56,2.29-2.9.14-1.15-.32-2.26-1.07-3.12-.81-.93-1.87-1.62-2.97-2.17s-2.39-1.12-3.63-1.43c-.35-.09-.78-.01-1.02.27-.2.24-.16.58.18.67,1.06.27,2.15.71,3.14,1.19.92.45,1.85.99,2.59,1.7.67.64,1.22,1.44,1.32,2.39.09.78-.22,2.18-1.09,2.46-.27.09-.68.32-.6.67s.59.36.85.28h0Z"/>
      <path class="cls-43" d="M264.71,959.27c2.04-.79,3.89-3.47,2.77-5.66-.94-1.83-3.26-2.8-5.06-3.53-.51-.21-1.02-.39-1.53-.59-.66-.26-1.32-.63-2.05-.63-.33,0-.79.09-.95.42-.15.3.13.51.42.51.65,0,1.3.41,1.9.64.49.19.99.37,1.48.58,1.12.47,2.24,1.01,3.21,1.75.88.68,1.51,1.54,1.42,2.69-.11,1.34-.93,2.6-2.21,3.1-.24.09-.56.39-.37.66s.72.16.97.06h0Z"/>
    </g>
    <path class="cls-20" d="M240.3,930.41c-.95,3.55-1.3,5.54-2.3,8.93-1.15,3.9.81,6.92,5.8,8.7,4.2,1.5,9.86,2.31,14.46,2.22,6-.13,12.42-.91,18.43-1.04,5.15-.11,21.33-.89,26.36,0,7.83,1.38,12.69.52,16.19-.46.97-.27,1.57-.21,2.03-.83,1.2-1.6,1.09-3.4-1.46-4.84-3.22-1.81-7.17.49-10.17-1.63-.53-.38-1.03-.8-1.64-1.07-1.21-.54-2.69-.46-4.07-.48-6.92-.1-6.34-2.65-15.36-4.86-2.65-.65-18.25-13.66-20.69-14.7"/>
    <path class="cls-43" d="M238.13,936.29c3.62,2.23,7.33,4.34,11.08,6.33,2.86,1.52,5.76,2.99,8.76,4.22,1.99.82,4.4,1.89,6.61,1.77s6.1-1.14,7.48,1.53c.3.59,1.68.04,1.32-.64-1.32-2.54-5.1-2.43-7.52-2.14-.85.1-1.21.2-1.97.1-1.18-.17-2.33-.56-3.45-.97-5.92-2.16-11.51-5.36-16.95-8.52-1.43-.83-2.86-1.67-4.26-2.54-.55-.34-1.82.42-1.11.85h0Z"/>
    <path class="cls-36" d="M729.32,190.14s-37.34,29.68-42.08,60.07c-3.4,21.81,15.15,109.39,14.74,128.26-.42,18.87,5.48,15.3,5.48,15.3l51.62-23.72,8.44-61.31-33.18-108.43-5.01-10.17Z"/>
    <path class="cls-36" d="M762.7,335.37s-47.15,29.46-55.17,22c-5.36-4.98,3.8-10.71-1.25-15.99l-71.78-17.41c-4.93-1.81-50.38-14.97-50.5-13.07l2.91,2.5c.27,8.09-4.57,21.67-9.85,27.92l-3.4,7.14c-.55,2.45,40.51,20.14,44.76,22.36,18.14,9.48,65.77,28.72,75.91,33.6,14.34,6.91,45.27,3.18,57.53-10.51,8.59-9.59,13.43-45.62,10.84-58.56Z"/>
    <path class="cls-36" d="M705.36,358.01c-.38,17.17.9,20.29.9,20.29l49.96-22.97,8.75-60.73-30.17-98.62-3.73-7.57s-24.39,29.19-31.33,43.27"/>
    <path class="cls-20" d="M779.89,110.62s4.59,31.1,15.54,46.44c1.76,2.46,17.84,5.24,17.84,5.24l-2.6,5.59c-2.24,4.82-7.84,9.94-11.97,13.29-20.56,16.68-52.98,29.08-68.05,17.89l3.01-11.48s2.92-4.69,2.65-8.24c-.28-3.56-12.02-28.47-12.02-28.47"/>
    <path class="cls-40" d="M785.12,122.21c.02.06.03.12.04.18,0-.08,0-.15-.04-.18Z"/>
    <path class="cls-20" d="M754.33,170.99l-20.32,5.59-10.76.89c-1.01.34-8.69-8.56-9.8-9.64-3.44-3.37-7.92-7.79-10.64-11.77-2.91-4.27-7.18-7.42-9.69-12.87-1.84-3.99-2.78-6.9-2.69-14.38.02-1.9-.5-3.62-1.51-5.34-2.14-3.61-3.9-8.07-6.65-12.94-.22-.38-1.32-2.21-1.3-2.71,0,0-7.81-21.48-6.35-30.51,1.47-9.03,6.21-14.46,11.47-17.75,5.26-3.29,22.49-7.62,22.49-7.62l22.29-10.75,22.96,3.53,17.72,20.92,7.42,28.44,4.94,25.95"/>
    <path class="cls-32" d="M771.67,94.11c.57,2.2,1.27,13.84,1.69,16.03l11.12-3.75c1.03-8.48,2.33-18.49,2.99-20.88,1.02-3.74-9.57-17.33-11.23-23.04l-.36-1.23c-1.59-5.48-9.51-12.48-21.2-18.72-20.11-10.75-19.41-11.16-42.35-2.1-1.58.62-3.13,1.31-4.62,2.03-14.06,6.83-26.45,10.49-31.97,25.8-3.98,11.04-2.37-1.77.15,4.26-3.45-12.36-2.61-1.54-1.8-3.37,4.76-10.75,11.24-2.92,14.7-4.6,3.01-1.46,5.66-1.36,6.19-1.33,3.84-.32,7.15-1.87,10.75-3.62,2.69-1.3,9.31-5.16,9.88-5.49,1.49-1.92-2.48-8.76.86-10.39,7.76-3.77,20-3.68,24.5-3.1,5.32.7,17.9,1.88,20.27,14.81"/>
    <path class="cls-20" d="M782.32,123.65c9.08,6.97,8.86-9.63,8.86-9.63,3.79-9.64,1.13-17.69-.92-23.12-2.05-5.43-8.08-3.34-8.08-3.34-4.96,2.26-6.34,5.78-4.91,24.55"/>
    <path class="cls-32" d="M690.49,58.56c8.36-2.77,28.6-15.49,39.78-19.77,4.63-1.77,23.96,5,26.83,7.03,6.58,4.63.16,22.01,14.3,38.92,4.67,5.59,4.89-6.82,9.57-3.67,4.68,3.15,6.5,4.45,6.5,4.45-3.33-19.38-3.2-18.71-13.05-35.79-9.82-17.04-32.31-18.81-42.47-17.32-10.16,1.48-40.24,14.26-47.41,20.79"/>
    <path d="M731.11,105.03c1.05-1.09,2.74-1.02,3.83-.56.26.11.95.43,1.48,1.18.68.97.66,2.33.23,3.29-.57,1.29-2.01,1.97-3.34,1.82-1.81-.2-2.95-1.91-3.02-3.41-.01-.27-.03-1.44.82-2.32"/>
    <path d="M694.36,117.7c-1.5-.23-2.8.84-3.39,1.87-.14.24-.5.92-.46,1.84.05,1.18.88,2.25,1.81,2.76,1.23.68,2.79.35,3.76-.58,1.32-1.25,1.19-3.3.34-4.54-.16-.23-.85-1.17-2.06-1.35"/>
    <path d="M706.62,118.96s-6.87-3.41-10.75-2.49c-5.66,1.35-6.65,3.06-7.75,6.23,0,0,2.71-3.84,6.72-4.68,3.84-.8,11.78.94,11.78.94Z"/>
    <path d="M724,111.61s6.06-7.45,9.8-8.82c5.46-2,13.13-.96,15.79,1.08,0,0-10.27-1.87-14.08-.35-3.64,1.45-11.52,8.1-11.52,8.1Z"/>
    <path d="M715.77,92.78c.44,1.31.89,2.62,1.34,3.94.34,1,1.05,3.31,1.4,4.3,2.87-1.91,5.28-4.13,7.2-5.18,3.8-2.08,7.59-4.5,11.9-5.25,2.06-.36,3.95-.43,5.92.03.62.14,2.48,1.06,3.13.44.27-.25-.8-1.69-.91-1.84-2.16-2.89-5.38-3.31-9.01-2.95-7.41.75-14.28,3.26-20.97,6.51"/>
    <path d="M679.78,106.22s2.13-1.22,2.14-1.23c5.95-3.45,12.45-5.15,19.24-6.13.38,1.33.77,2.66,1.15,4,.29,1.02.88,2.83,1.16,3.85-3.19,0-6.02-.29-8.03-.11-3.98.36-8.18.7-11.81,2.44-.29.14-1.83.91-2.1,1.06-1.74-1.49-2.21-3.44-1.76-3.88Z"/>
    <path d="M736.59,156.09l-14.39,4.03s5.18,4.37,8.64,3.2c2.16-.73,4.27-4.03,5.76-7.24Z"/>
    <g>
      <path class="cls-8" d="M718.13,139.07c1.9.32,4.29-.71,5.57-2.29.28-.35,1.56-.53,1.16-.04-1.69,2.08-5.17,3.4-7.63,2.98-.24-.04-.26-.22-.03-.39.24-.18.67-.31.93-.26"/>
      <path class="cls-8" d="M725.41,136.04c.91-.89,2.03-1.58,3.21-2.08.17-.07.43-.08.6,0,.13.06.2.18.09.3-.45.52-1.12.89-1.77,1.1-.21.07-.5.11-.67-.04-.16-.13,0-.31.16-.36.54-.17,1.06-.47,1.43-.89.23.1.46.19.69.29-1.05.45-2.05,1.07-2.86,1.87-.16.16-.46.19-.67.14-.16-.03-.36-.17-.19-.33"/>
      <path class="cls-8" d="M730.27,134.57c1.41-.51,2.86-1.71,3.19-3.04.5-2-1.34-4.23-3.47-4.69-.23-.05-.18-.23,0-.34.24-.14.57-.15.81-.09,1.85.4,3.56,2.15,3.85,3.78.27,1.52-.75,2.99-2.3,3.98-.46.29-.97.56-1.5.75-.21.08-.62.14-.78,0-.17-.14,0-.28.21-.35"/>
      <path class="cls-8" d="M715.28,139.21c.02-.19-.16-.25-.27-.21-.38.14-.81.16-1.23,0-.07.2-.14.4-.22.6.8-.17,1.65-.17,2.5.06.17.05.34-.08.43-.23.06-.11.1-.32-.07-.37"/>
      <path class="cls-8" d="M716.43,139.06c-.94-.27-1.9-.25-2.79-.06-.13.03-.27.15-.32.3-.04.12-.01.25.11.29"/>
      <path class="cls-8" d="M712.4,140.4c-.94.27-2.23,0-3.05-.93-1.24-1.42-1.26-3.59-.47-5.03.09-.16-.03-.28-.17-.28-.18,0-.35.16-.44.33-.69,1.26-.84,2.97-.17,4.47.63,1.4,1.85,2.11,3.1,2.16.37.01.75-.02,1.1-.12.14-.04.37-.19.38-.39.01-.2-.14-.23-.28-.19"/>
    </g>
    <g>
      <path d="M687.13,63.47c.45-.7,1.34-1.18,2.19-1.61l.86-.61c2.82-.93,5.67-1.77,8.54-2.52.72-.19,1.47-.38,2.18-.31.08,0,.15.02.22.04,2.07-.74,4.15-1.45,6.25-2.11l1.04-.05c.93-.16,1.93-.31,2.68-.07.75.24,1.03,1.07.29,1.59-.77.54-2.19.49-2.63,1.16-.48.74,1.01,1.14.83,1.9-.12.48-.83.84-1.24,1.29-.48.53-.5,1.14-.94,1.68-.44.55-1.33.96-2.13.99-.77.31-1.94.33-2.02.95-.02.17.07.31.13.47.22.59-.09,1.35-.75,1.83-.66.48-1.63.64-2.33.39-.68-.24-1.09-.81-1.8-1.01-.22-.06-.48-.09-.72-.11-.14.25-.34.48-.6.67-.66.48-1.63.64-2.33.39-.68-.24-1.09-.81-1.8-1.01-.6-.17-1.4-.07-1.79-.45-.62-.6.32-1.92-.53-2.33-.77-.37-1.87.57-2.83.54-.92-.03-1.21-.99-.77-1.7Z"/>
      <path d="M688.48,63.5c.45-.6,1.12-.83,1.74-1.21.12-.07.23-.16.34-.24.09-.06.61-.39.37-.28-.36.18.34-.09.34-.09.22-.06.45-.14.67-.21.45-.14.89-.28,1.34-.42,1.05-.32,2.1-.63,3.15-.93.9-.25,1.8-.52,2.7-.73.87-.21,1.7-.07,2.56-.35.92-.29,1.82-.65,2.74-.96.45-.15.89-.3,1.34-.45.22-.07.45-.15.67-.22.09-.03.85-.34.55-.24-.23.07.19-.04.34-.05.16-.01.33-.01.49-.02.5-.03,2.1-.52,2.44,0,.3.45-.35.43-.67.53s-.63.2-.93.33c-.53.23-1.15.61-1.37,1.17-.16.42-.08.74.19,1.1.37.5.89.6.29,1.14-.52.46-.94.86-1.25,1.51-.17.36-.29.79-.65,1.01-.31.19-.83.22-1.18.32-1.01.28-3.02.65-2.88,2.07.04.35.24.58.12.96-.2.59-.55.5-1,.25-.8-.44-1.34-.84-2.28-.95-.74-.09-1.78.08-2.24.76-.42.62-.79.21-1.32-.14-.48-.31-.92-.53-1.49-.64s-1.08.06-1.13-.63c-.03-.38.14-.78.05-1.17-.2-.88-1.22-1.07-1.99-1.01-.6.04-1.18.22-1.74.44-.15.06-.3.11-.45.17l.18-.03c-.17-.25-.19-.52-.05-.79.62-1.24-2.27-.94-2.7-.07-.79,1.56.3,2.63,1.92,2.55.48-.03.92-.14,1.38-.28.24-.08.48-.16.71-.25.41-.15.36-.12-.15.08-.16.49-.15,1.39.14,1.82.46.71,1.36.61,2.07.79.89.22,1.5.97,2.43,1.16,1.74.35,3.86-.41,4.86-1.9l-2.24.76c1.01.12,1.58.85,2.52,1.13s1.9.16,2.79-.12c.85-.27,1.74-.75,2.26-1.5.34-.49.71-1.45.28-2.02-.5.26-.54.32-.12.18.19-.05.39-.1.58-.15.43-.16.5-.18.23-.05.25-.04.49-.1.74-.16.78-.22,1.58-.59,2.19-1.14.73-.67.9-1.66,1.63-2.33.48-.45,1.18-.94,1.06-1.7-.09-.57-.69-.82-.92-1.3-.24.16-.23.19.02.09.21-.05.41-.11.61-.17.44-.13.88-.28,1.28-.51,1.37-.78,1.75-2.44-.06-2.98-.97-.29-1.99-.13-2.97-.02-.46.05-.97.05-1.44.11-1.18.16-2.4.72-3.53,1.1-1.17.4-2.33.8-3.49,1.22l1.46-.19c-1.65-.26-3.26.27-4.84.7-1.73.47-3.46.98-5.17,1.52-2.15.67-4.8,1.67-6.21,3.56-.42.56.36.84.79.87.66.04,1.51-.25,1.91-.8Z"/>
    </g>
    <path d="M723.24,175.78c.62.26,1.44.17,2.2.08h.85c2.31-.66,4.6-1.41,6.86-2.21.57-.2,1.16-.42,1.59-.79.05-.04.09-.08.13-.13,1.72-.45,3.44-.93,5.14-1.45l.72-.45c.69-.32,1.43-.67,1.82-1.18.39-.51.2-1.19-.54-1.2-.76,0-1.68.68-2.29.43-.66-.27.15-1.23-.32-1.65-.3-.26-.94-.18-1.41-.29-.56-.13-.86-.53-1.39-.69-.55-.17-1.33-.04-1.88.31-.66.15-1.45.67-1.78.29-.09-.1-.1-.24-.13-.37-.12-.5-.68-.87-1.34-.88-.66-.02-1.38.32-1.74.81-.35.47-.35,1.04-.74,1.5-.12.14-.28.28-.43.41-.21-.1-.45-.16-.71-.17-.66-.02-1.38.32-1.74.81-.35.47-.35,1.04-.74,1.5-.32.39-.9.69-.99,1.12-.14.69,1.1,1.14.71,1.79-.35.6-1.51.48-2.13.93-.6.44-.36,1.22.27,1.48Z"/>
    <g>
      <path d="M786.74,87.01c.85-.3,1.74-.62,2.35-1.29.61-.66.84-1.77.25-2.46-.93-1.08-3.28-.61-3.55-2.02.73-1.67,3.56-1.94,3.72-3.76.13-1.47-1.64-2.26-3.07-2.61.61-1.06.57-.26,1.63-.88,1.05-.63.87-3.57-.07-4.36-1.06-.89-1.19.12-1.15-1.26.82-.55-1.4-.73-.9-1.59.49-.86.51-2.08-.23-2.73-.89-.79-1-1.54-1.32-2.69-.27-.98-2.23-.58-1.89-1.54.63-1.74-1.36-3.23-3.04-4.02.62-.75-.37-.63-.12-1.57.25-.94.01-2.09-.82-2.6-.51-.31-1.14-.34-1.69-.56-2.28-.91-2.04-4.18-1.4-6.56-1.59.64-3.62-.15-4.35-1.71-.34-.73-.43-1.59-.92-2.24-.5-.64-1.69-.82-2.01-.07"/>
      <path d="M786.8,87.25c1.37-.49,3.09-1.19,3.24-2.86.14-1.55-1.33-1.93-2.51-2.25-.42-.11-1.43-.36-1.33-.97.09-.56,1.06-1.06,1.48-1.33.93-.57,2.14-1.22,2.2-2.46.08-1.66-1.93-2.41-3.23-2.74l.14.27c.3-.5.28-.32.78-.44.39-.09.8-.3,1.06-.61.52-.61.56-1.55.5-2.3-.07-.82-.3-1.73-1-2.25-.28-.21-.54-.26-.86-.36-.15-.05-.06-.02-.04.02-.02-.03-.03-.13-.02-.17.01-.07-.05-.32-.05-.33.02-.06.14-.1.16-.17.21-.57-.41-.7-.8-.98-.43-.31-.18-.52-.02-.95.16-.46.22-.97.12-1.45-.12-.57-.46-.88-.84-1.29-.4-.43-.62-.94-.78-1.49-.12-.43-.16-.96-.49-1.29-.24-.25-.6-.36-.92-.46-.18-.06-.46-.09-.61-.21-.21-.18-.12-.29-.06-.55.13-.52.06-1.03-.17-1.51-.57-1.19-1.86-1.97-3-2.52l.02.31c.24-.32.36-.58.13-.94-.14-.22-.24-.32-.22-.61s.13-.58.13-.89c0-.55-.14-1.13-.48-1.57-.43-.56-1.06-.72-1.71-.89-2.88-.75-2.41-4.3-1.81-6.52.08-.28-.41-.22-.53-.17-.95.35-2.04.12-2.85-.47-.91-.65-1.1-1.59-1.48-2.58-.28-.73-.71-1.32-1.52-1.48-.64-.13-1.32.07-1.63.67-.19.36.56.34.7.07.25-.49.92-.21,1.22.09.35.35.5.87.64,1.33.26.81.54,1.51,1.19,2.08,1.11.97,2.66,1.2,4.03.69l-.53-.17c-.51,1.91-.99,4.82.74,6.28,1.02.86,2.74.53,3.17,2.04.18.63-.07,1.15-.04,1.75.03.43.52.69.23,1.09-.07.09-.11.24.02.31,1.04.5,2.2,1.18,2.78,2.21.32.56.29,1.02.17,1.63-.05.28-.04.47.18.67.59.51,1.49.24,1.76,1.13.15.48.24.98.45,1.43.23.51.59.84.96,1.24s.48,1,.41,1.55c-.06.42-.43.84-.39,1.26.02.24.19.41.38.55.16.12.66.28.74.46.05.12-.07.04-.12.2-.05.17-.04.39-.03.58.02.24.04.4.28.5.26.12.49.09.75.26.39.26.59.66.72,1.11.24.8.41,2.25-.23,2.92-.32.34-.7.23-1.09.35s-.61.46-.81.79c-.07.11.02.24.14.27,1.31.34,3.99,1.55,2.54,3.28-.88,1.05-2.41,1.32-3.16,2.53-.8,1.29,1.65,1.7,2.39,1.93.87.27,1.5.86,1.28,1.85-.27,1.22-1.53,1.7-2.58,2.07-.43.15-.32.64.13.48h0Z"/>
    </g>
    <g>
      <path d="M769.95,44.06c-.54-.97-2.97-5.62-3.51-6.59-1.15.9-3.12.33-3.61-1.05-.25-.69-.28-1.63-.97-1.86-.71-.24-1.34.53-2.07.71-1.62.4-2.61-2.13-4.27-2.23-1.04-.07-1.94.86-2.98.83-1.58-.04-2.45-2.13-4.02-2.31-1.08-.13-2.07.71-3.16.74-2.36.05-4.08-2.95-6.35-2.3-.83.24-1.44,1.03-2.28,1.2-1.52.31.23-1.89-1.31-1.67-1.41.21-2.06,1.96-3.37,2.51-2.14.9-4.71-2.35-6.51-.9-.78.62-.96,1.77-1.71,2.43-1.75,1.53-4.72-.76-6.74.4-1.01.58-1.47,1.9-2.54,2.37-1.66.74-3.62-1.01-5.32-.36-1.35.52-1.92,2.35-3.32,2.68-.98.23,1.08-1.55.08-1.4-1.71.25-2.39,2.42-3.91,3.25-1.27.69-2.83.3-4.28.36-1.45.07-3.63,3.58-3.26,4.98"/>
      <path d="M770.32,43.96c-1.21-2.18-2.3-4.42-3.51-6.59-.12-.22-.51-.06-.66.04-.77.55-1.88.24-2.5-.39s-.51-1.44-.92-2.13c-.35-.61-1.03-.69-1.65-.46-.42.15-.77.45-1.19.6s-.81-.02-1.17-.26c-1.07-.72-1.87-2.03-3.32-1.94-.95.06-1.77.85-2.71.83-.82-.02-1.47-.74-2.05-1.25-.53-.47-1.1-.93-1.82-1.05-.84-.14-1.62.21-2.39.49-1.86.67-3.2-.71-4.71-1.57-1.39-.79-2.68-.73-4,.17-.22.15-.94.74-1.21.53-.16-.13-.09-.43-.07-.6.03-.34.12-.76-.22-.97-.43-.27-1.16-.02-1.57.18-.69.34-1.17.95-1.7,1.49-.65.66-1.26,1.06-2.21.84-.74-.18-1.43-.56-2.12-.86-1.12-.49-2.43-.81-3.45.09-.65.57-.86,1.44-1.39,2.1-.63.78-1.55.72-2.45.57-1.43-.24-2.97-.72-4.34-.02-.71.36-1.16,1-1.66,1.59-.31.37-.67.76-1.15.89s-1.06,0-1.55-.13c-1.51-.39-3.01-.91-4.36.17-.62.49-1.04,1.18-1.63,1.71-.15.14-.32.27-.51.36-.06.03-.2.11-.27.1.34.04.08.07.13,0,.12-.14.21-.37.31-.52.13-.2.46-.58.25-.82-.28-.32-1.15.06-1.42.2-1.4.69-1.95,2.35-3.3,3.06-1.6.85-3.58-.34-5.11.7-1.09.74-1.9,2.03-2.35,3.24-.19.5-.34,1.07-.22,1.6.05.24.79.06.74-.2-.28-1.26.77-2.82,1.54-3.73.5-.59.94-.97,1.73-.96.98.01,1.97.14,2.95-.04,1.68-.32,2.44-1.62,3.55-2.76.28-.29.6-.59.99-.73.33-.12.28-.07.12.21-.13.23-.57.65-.51.94.08.37.71.17.93.09.65-.23,1.13-.69,1.58-1.19.61-.68,1.19-1.55,2.21-1.54.9,0,1.76.42,2.63.59.7.14,1.42.14,2.08-.15.71-.31,1.17-.91,1.65-1.48.65-.79,1.28-1.23,2.33-1.17.82.05,1.62.29,2.44.4,1.37.2,2.76-.02,3.55-1.27.43-.67.77-1.88,1.69-2,.68-.09,1.42.31,2.02.59,1.2.54,2.51,1.17,3.82.63.68-.28,1.19-.82,1.68-1.35.27-.29,1.51-1.65,1.84-.94.16.35-.13.8,0,1.17.14.4.62.38.97.32.93-.16,1.51-.96,2.38-1.22.79-.24,1.61.19,2.27.59,1.24.75,2.44,1.81,3.98,1.73.97-.05,1.79-.67,2.74-.73.89-.06,1.58.66,2.2,1.21.48.43,1,.88,1.65,1.04.77.19,1.51-.07,2.2-.38.47-.21.95-.46,1.47-.35.4.08.76.34,1.07.6.53.43.98.94,1.56,1.3.49.31,1.04.42,1.6.29.38-.09.7-.27,1.04-.46.68-.38,1.1-.18,1.34.51.26.73.32,1.44.96,1.96.49.41,1.14.64,1.78.65s1.29-.19,1.83-.58l-.66.04c1.21,2.18,2.3,4.42,3.51,6.59.13.24.84,0,.74-.2h0Z"/>
    </g>
    <g>
      <path d="M743.86,37.68c8.99.77,13.13,2.65,19.38,9.17l-50.89-2.51c3.17-1.7,6.38-3.13,9.69-3.97,8.75-2.21,12.84-3.47,21.83-2.7Z"/>
      <path d="M743.72,37.9c2.93.26,5.89.64,8.67,1.62,2.45.86,4.68,2.21,6.67,3.86,1.35,1.12,2.61,2.35,3.83,3.62l.48-.36c-1.69-.08-3.38-.17-5.06-.25-4.05-.2-8.11-.4-12.16-.6l-14.71-.72c-4.24-.21-8.47-.42-12.71-.63-1.39-.07-2.78-.14-4.17-.21l-1.31-.06c-.17,0-.52-.09-.68-.03-.02,0-.07,0-.09,0l.09.33c2.12-1.13,4.29-2.17,6.54-2.98,2.13-.77,4.36-1.27,6.56-1.82,3.57-.9,7.16-1.72,10.85-1.93,2.4-.14,4.8-.04,7.19.17.29.02.78-.39.28-.43-4.06-.34-8.12-.3-12.14.41-1.88.33-3.74.77-5.59,1.23-2.28.57-4.59,1.08-6.81,1.84-2.55.87-4.98,2.02-7.35,3.29-.22.12-.14.32.09.33,1.69.08,3.38.17,5.06.25,4.05.2,8.11.4,12.16.6l14.71.72c4.24.21,8.47.42,12.71.63,2.04.1,4.12.32,6.16.3.03,0,.06,0,.09,0,.12,0,.68-.16.48-.36-2.07-2.15-4.27-4.22-6.84-5.77-2.26-1.37-4.76-2.23-7.35-2.75-1.78-.35-3.58-.56-5.39-.72-.29-.03-.78.39-.28.43Z"/>
    </g>
    <g>
      <path d="M677.8,57.74c.19-.17.39-.34.56-.51.92-.91,1.28-2.8.07-3.25,2.49.25,2.96-4.08,5.38-4.75.69-.19,1.43-.03,2.15-.12,1.86-.22,3.21-2.38,2.6-4.15,2.02.45,4.22.06,5.96-1.06l17.82.44c-6.71,3.6-13.2,8.4-19.82,11.28-3.19,1.38-6.4,2.9-8.91,5.3-1.83,1.75-4.39,3.17-6.25,5.01.13-2.73.26-5.46.44-8.19Z"/>
      <path d="M678.05,57.92c.73-.63,1.33-1.31,1.5-2.3.14-.81-.12-1.57-.9-1.9l-.33.54c2.69.19,3.14-3.17,4.93-4.44.79-.56,1.69-.33,2.59-.41.69-.06,1.34-.33,1.88-.77,1.09-.9,1.65-2.4,1.23-3.77l-.49.38c1.56.33,3.18.22,4.68-.33.36-.13.7-.28,1.04-.46.08-.04.37-.26.36-.26.07-.02.19,0,.27,0l3.54.09,11.16.28c.94.02,1.89.05,2.83.07l-.14-.52c-4.98,2.68-9.65,5.89-14.58,8.65-2.34,1.31-4.76,2.38-7.19,3.5-2.3,1.07-4.57,2.3-6.49,3.98-1.08.95-2.15,1.87-3.31,2.72s-2.42,1.75-3.49,2.79l.62.16c.13-2.73.26-5.46.44-8.19.03-.4-.73-.31-.75.05-.18,2.73-.31,5.46-.44,8.19-.02.31.45.32.62.16,1.85-1.8,4.13-3.06,6.03-4.8,1.93-1.77,4.06-3.13,6.42-4.26s4.84-2.16,7.17-3.44,4.76-2.76,7.1-4.21c2.69-1.66,5.38-3.32,8.17-4.82.33-.18.21-.51-.14-.52-5.73-.14-11.46-.28-17.2-.42-.27,0-.56-.05-.82.04-.44.16-.84.49-1.29.66-.42.17-.85.29-1.29.38-1.03.21-2.07.18-3.09-.04-.19-.04-.57.13-.49.38.42,1.34-.22,2.92-1.5,3.55-.77.38-1.61.17-2.43.26-.56.06-1.07.26-1.52.59-.85.62-1.38,1.57-1.94,2.43-.51.79-1.17,1.89-2.25,1.81-.28-.02-.77.35-.33.54.63.27.68.98.54,1.57-.18.75-.65,1.25-1.21,1.74-.38.33.2.62.5.36Z"/>
    </g>
    <g>
      <path d="M713.94,46.03l21.18-9.39,21.25,5.7,13.32,21.04.82,19.12h0l5.51,27.32c-.61.25-1.21.49-1.82.74-.19.08-.39.15-.59.1-.49-.14-.43-.83-.44-1.33-.02-1.18-.95-2.11-1.72-3-.77-.89-1.47-2.12-.98-3.19.26-.56.84-1.05.74-1.67-.13-.8-1.21-.93-1.9-1.36-1.07-.67-1.06-2.52.02-3.18,0,0-1.79-1.1-2.14-4.2-.36-3.1-.38-6.51-.38-6.51h0c-.24-.16-.47-.33-.67-.53-1.43-1.52-.44-4.27-1.74-5.91-.58-.74-1.54-1.12-2.06-1.91-.99-1.5.08-3.6-.59-5.26-.75-1.87-3.52-2.84-3.29-4.84.11-.98.97-1.76,1.03-2.74.1-1.71-2.23-3.25-1.37-4.73.3-.51.92-.8,1.13-1.36.42-1.12-1.04-1.93-1.79-2.86-.77-.97-.8-2.32-1.28-3.46-.47-1.14-1.95-2.12-2.89-1.32.11-2.05-2.47-6.79-4.37-6.01-.93.38-2.04,1.2-2.78.52-.53-.49-.36-1.41-.84-1.95-1.21-1.37-3.26,1.77-4.97,1.1-.46-.18-.77-.62-1.19-.88-.96-.59-2.21-.16-3.17.43-.95.6-1.87,1.37-2.99,1.48-1.12.11-2.4-.94-1.99-1.99-.92.95-1.89,1.94-3.14,2.39-1.25.45-2.86.19-3.55-.94.18,1.88-2.37,3.36-3.92,2.28-.62-.43-1.17-1.19-1.92-1.06-.33.05-.61.28-.85.52-1.08,1.05-1.68,5.45-2.01,6.91l-1.68-8.07Z"/>
      <path d="M714.08,46.17c3.44-1.52,6.87-3.04,10.31-4.57,2.43-1.08,4.86-2.15,7.28-3.23.82-.36,1.64-.73,2.47-1.09.26-.11.92-.27,1.11-.49-.13.16-.52-.05-.19.09.2.08.44.12.64.17.8.21,1.6.43,2.4.64l7.54,2.02c2.49.67,4.98,1.34,7.47,2,.78.21,1.57.42,2.35.63.19.05.38.11.57.15.21.04,0-.03.02.01,2.01,3.35,4.18,6.61,6.27,9.91,2.3,3.63,4.59,7.25,6.89,10.88.16.25.11.16.13.47l.09,2.15c.11,2.58.22,5.16.33,7.73.1,2.44.21,4.89.31,7.33.03.71.03,1.41.17,2.11.86,4.26,1.72,8.53,2.58,12.79.89,4.42,1.78,8.84,2.68,13.26.05.26.1.51.15.77l.23-.24c-.52.21-1.06.5-1.59.65-.26.07-.48.21-.65-.1-.06-.11-.07-.29-.08-.41-.07-.78-.08-1.38-.51-2.08-.82-1.33-3-2.82-2.21-4.61.25-.57.87-1.08.75-1.76-.1-.58-.68-.84-1.16-1.05-.67-.29-1.26-.57-1.46-1.33-.19-.68-.01-1.54.6-1.96.1-.07.22-.18.07-.28-1.26-.8-1.91-2.74-2.08-4.24-.17-1.43-.25-2.87-.31-4.3-.02-.49-.04-.97-.05-1.46,0-.15.02-.32,0-.47-.03-.18.08-.17-.07-.02.04-.04.13-.14.05-.2-1.43-.96-1.46-2.43-1.62-3.99-.07-.71-.18-1.43-.54-2.06-.38-.67-1.02-1.07-1.6-1.55-1.48-1.21-1.03-2.82-1.03-4.5,0-1.48-.74-2.43-1.77-3.4-.89-.84-2.07-1.82-1.68-3.2.22-.77.81-1.4.94-2.2.1-.64-.13-1.24-.43-1.8-.63-1.17-1.73-2.39-.52-3.57.41-.4.86-.82.79-1.45-.06-.6-.55-1.07-.95-1.47-.68-.66-1.25-1.26-1.55-2.19-.26-.83-.36-1.75-.81-2.51-.7-1.19-2.2-1.83-3.38-.94h.66c.05-1.68-.9-3.51-1.92-4.8-.45-.57-1.02-1.16-1.74-1.37-.84-.24-1.51.22-2.25.55-.4.18-.89.38-1.27.04-.23-.22-.32-.53-.39-.83-.12-.47-.21-.96-.61-1.27-.54-.42-1.28-.24-1.84,0-.77.34-1.44.96-2.25,1.21-.61.19-1.01-.11-1.46-.5s-.88-.63-1.46-.68c-1.34-.12-2.49.66-3.56,1.36-.75.49-1.64,1.07-2.56.7-.69-.28-1.24-.95-.99-1.71.09-.27-.58-.09-.66,0-.87.9-1.82,1.93-3.05,2.32-1.1.34-2.35.02-3.01-.96-.13-.19-.73,0-.71.24.09,1.69-1.93,3.01-3.35,1.93-.51-.39-.96-.94-1.64-1.02s-1.3.29-1.72.78c-.74.84-.99,2.16-1.23,3.22-.29,1.22-.47,2.46-.74,3.69l.74-.15c-.56-2.69-1.12-5.38-1.68-8.07-.05-.24-.79-.06-.74.2.56,2.69,1.12,5.38,1.68,8.07.05.25.69.05.74-.15.24-1.07,1.05-8.03,2.98-7.03.68.35,1.07,1.01,1.85,1.21.59.15,1.22.07,1.79-.13,1.17-.42,2.14-1.44,2.07-2.74l-.71.24c.75,1.12,2.22,1.38,3.46,1.11,1.59-.35,2.78-1.52,3.87-2.64h-.66c-.32.99.54,1.82,1.45,2.06,1.1.29,2.21-.27,3.12-.84.54-.34,1.05-.74,1.64-1,.95-.42,1.7-.31,2.48.36.68.59,1.36.75,2.22.49.82-.25,1.5-.8,2.26-1.19.36-.18.7-.32,1.05-.04.49.39.43,1.1.66,1.63.43.95,1.46.83,2.28.51.44-.17.97-.6,1.45-.62.36-.02.75.26,1.01.48.82.66,1.42,1.63,1.87,2.56.43.88.84,1.91.81,2.9,0,.3.55.09.66,0,.69-.52,1.67.44,2.02.97.45.7.56,1.59.79,2.38.19.66.47,1.25.93,1.76s1.07.93,1.43,1.53c.78,1.32-1.25,1.88-1.19,3.18.06,1.2,1.15,2.11,1.47,3.24.41,1.45-1.08,2.45-.95,3.87.1,1.11,1.11,1.91,1.86,2.62.4.38.8.76,1.11,1.22.49.71.58,1.53.54,2.37-.05,1.38-.34,2.86.74,3.95.57.57,1.33.93,1.8,1.61s.57,1.52.65,2.31c.15,1.58.23,3.04,1.66,4l.05-.2c-.12.12-.08.31-.07.46,0,.48.02.96.04,1.44.06,1.55.15,3.1.33,4.65.18,1.57.8,3.49,2.23,4.39l.07-.28c-1.13.77-1.35,2.6-.13,3.42.54.37,1.6.48,1.84,1.18.18.53-.26.98-.51,1.4-.21.35-.35.7-.36,1.11-.05,2.14,2.46,3.12,2.82,5.1.1.57-.16,1.54.55,1.79.34.12.71-.01,1.03-.13.61-.23,1.21-.49,1.82-.74.09-.04.25-.12.23-.24-.68-3.36-1.36-6.73-2.03-10.09-1.01-5.01-2.02-10.02-3.03-15.02-.15-.76-.38-1.55-.45-2.32-.15-1.71-.15-3.44-.22-5.16-.12-2.78-.24-5.56-.36-8.34-.05-1.14-.1-2.29-.15-3.43-.03-.63,0-1.3-.08-1.92-.03-.21-.1-.31-.22-.49l-1.04-1.64c-1.27-2.01-2.54-4.01-3.81-6.02-2.58-4.08-5.17-8.16-7.75-12.24-.15-.23-.31-.66-.53-.84s-.67-.2-.92-.27c-2-.54-3.99-1.07-5.99-1.61-4.61-1.24-9.23-2.47-13.84-3.71-.34-.09-.65-.23-1-.11s-.71.32-1.06.47c-1.96.87-3.92,1.74-5.89,2.61-4.46,1.98-8.92,3.95-13.38,5.93-.28.12-.56.25-.84.37-.47.21-.04.43.29.29Z"/>
    </g>
    <g>
      <path d="M682.57,60.19c.44.54-.26,1.27-.9,1.53s-1.47.64-1.39,1.33c.05.43.45.74.5,1.17.15,1.3-2.55.93-2.89,2.19-.26.95,1.12,1.94.57,2.76-.26.39-.8.42-1.24.58-.75.28-1.29,1.07-1.26,1.88.02.6.32,1.21.14,1.78-.21.7-1,1.01-1.55,1.48-1.45,1.25-1.21,3.53-.72,5.38s1.08,3.96.02,5.55c-1.61-.74-.55-2.27.09-3.92.19-.5.5-.95.62-1.47.11-.52-.04-1.17-.53-1.38-.24-.1-.54-.09-.72-.29-.51-.55.66-1.06,1.11-1.66.56-.76-.2-1.78-.95-2.35s-1.67-1.32-1.42-2.23c.22-.8,1.26-1.15,1.5-1.95.26-.9-.64-1.74-.69-2.68-.06-1.25,1.32-2.01,2.48-2.46-1.02-.68-1.02-2.42,0-3.1.41-.27.96-.42,1.15-.87.29-.68-.46-1.53-.06-2.14.34-.51,1.21-.38,1.59-.87.61-.77-.69-1.8-.51-2.77.24-1.28,2.83-1.54,2.35-2.75"/>
      <path d="M682.21,60.29c.7,1.1-1.47,1.53-2.01,2.12-.31.34-.34.7-.15,1.12s.58.82.25,1.26c-.4.53-1.46.58-2.03.9-.69.38-.92.97-.61,1.72.17.42.49.81.56,1.26.12.76-.76.83-1.28,1.07-.96.44-1.45,1.37-1.29,2.4.1.66.31,1.3-.21,1.85-.39.42-.93.65-1.34,1.05-.72.7-.98,1.7-1,2.69-.05,2.68,1.98,5.63.41,8.17l.71-.19c-.83-.42-.94-1.09-.68-1.93s.66-1.68,1.04-2.47c.3-.63.65-1.43.17-2.08-.24-.32-.53-.3-.86-.44-.6-.26-.18-.71.14-.99.53-.47,1.14-.9.92-1.7-.23-.84-1.01-1.32-1.63-1.85-.75-.64-1.31-1.51-.53-2.37.44-.48,1.08-.84,1.17-1.55.13-1.01-.86-1.79-.7-2.81s1.33-1.62,2.22-1.97c.04-.02.33-.14.22-.22-.66-.48-.89-1.35-.64-2.12.28-.86,1.08-.9,1.61-1.48s.08-1.23.04-1.9c-.06-.95,1.12-.77,1.63-1.31s.1-1.19-.15-1.73c-.31-.67-.44-1.3.16-1.83s2.27-1.02,1.91-2.09c-.06-.19-.79.03-.74.2.34,1.03-1.61,1.54-2.11,2.22-.45.61-.18,1.23.11,1.84.14.29.33.63.33.96-.01.58-.59.65-1.02.81-.6.23-.94.61-.83,1.28.07.39.29.82.2,1.23-.11.51-.66.65-1.05.9-1.14.73-1.24,2.47-.13,3.29l.22-.22c-1.3.52-3.16,1.47-2.62,3.18.3.96,1.05,1.81.21,2.73-.49.54-1.23.96-1.16,1.8.15,1.59,3.99,2.75,2.07,4.47-.32.29-1.26.87-.75,1.38.3.31.79.19,1.06.57.32.45.22,1.02.03,1.5-.41,1-.96,1.96-1.27,3-.26.86-.1,1.56.74,1.98.19.1.6,0,.71-.19,1.39-2.25-.04-4.83-.34-7.17-.14-1.13-.1-2.43.65-3.36.6-.74,1.83-1.06,1.98-2.12.09-.65-.26-1.26-.16-1.91.14-.86.72-1.26,1.5-1.51.91-.29,1.33-.84.9-1.76-.4-.84-.93-1.78.21-2.27.62-.27,1.38-.35,1.9-.82.94-.86-.91-1.84.2-2.66.58-.43,2.6-.98,1.88-2.11-.12-.19-.81.09-.74.2h0Z"/>
    </g>
    <path d="M775.38,97.84l-.87-2.52-28.67.85h0c-10.55-.67-22.95,6.14-29.07,13.5l-6.65,2.5.03-.12c-9.71-3.27-23.06.02-31.63,7.79l.6.97h0c.02.06.14.2.26.4l.54.84c3.35,5.37,7.06,10.99,9.23,12.09,1.46.74,5.26.11,8.33-.61,1.16-.26,2.21-.54,2.97-.74.91-.25,8.94-2.5,9.87-4.15s.29-11.57.02-14.67l6.83-2.53c1.6,1.97,6.46,11.11,10.46,12.01,4,.89,21.07-5.41,21.91-8.32.59-2.08,1.88-9.31,1.72-12.77l.15-4.56,23.96.07ZM709.23,127.96c-1.08,1.64-17.01,6.28-19.53,5.01-2.13-1.08-6.91-8.74-8.71-11.61l-.04-.13c7.81-6.45,19.84-9.43,28.24-6.73.37,5.4.62,12.4.03,13.44v.03ZM747.27,115.05c-.52,1.84-15.23,8-19.35,7.08-2.87-.63-6.54-7.28-8.98-10.98,6.03-7.05,20.81-13.98,30.37-12.84.08,5.5-.39,12.14-2.03,16.73h0Z"/>
    <g>
      <path d="M742.64,135.64c-.67-.53-1.6-.72-2.43-.48-.39.11-.79.31-1.17.16-.2-.08-.36-.25-.52-.4-.52-.49-1.09-.2-1.75.08-.63.27-1.17.38-1.84.54-.87.2-1.86-.75-2.59-.24-.29.2-.42.58-.7.79-.46.34-1.11.12-1.6-.16-.49-.29-.91-.34-1.47-.27-.51.07-1,.18-1.42.48s-1.73,1.42-2.08,1.04"/>
      <path d="M742.99,135.51c-.52-.39-1.13-.6-1.78-.62-.3,0-.61.02-.9.1-.19.05-.38.14-.57.17-.35.06-.52-.05-.76-.27-.47-.42-.95-.46-1.54-.29-.71.21-1.36.54-2.09.71-.39.09-.68.1-1.06-.02-.29-.09-.57-.2-.87-.26-.5-.1-1.05,0-1.45.33-.22.18-.32.49-.55.65-.34.24-.87-.14-1.19-.29-.6-.3-1.23-.28-1.88-.17s-1.19.33-1.71.72c-.23.17-.45.35-.69.51-.11.08-.23.15-.35.22-.03.01-.11.07-.15.08-.1.01.04.05-.04-.02-.16-.14-.84.14-.69.27.61.53,1.84-.49,2.3-.83.52-.39,1.02-.65,1.69-.68.75-.04,1.3.56,2.04.63.56.05,1.12-.16,1.47-.6.09-.11.15-.23.25-.33.19-.2.3-.17.54-.11.3.08.59.21.9.28.62.16,1.18,0,1.79-.15.31-.08.62-.17.92-.28.33-.12.77-.42,1.13-.4.38.03.6.47.93.62.31.14.65.1.97.03.48-.11.88-.29,1.39-.23.46.06.88.25,1.25.53.18.13.84-.16.69-.27h0Z"/>
    </g>
    <polygon class="cls-6" points="845.16 925.67 803.71 918.15 799.69 892.69 845.05 885.89 845.16 925.67"/>
    <g>
      <path class="cls-25" d="M734.88,948.95s-1.51-7.06,4.85-9.7c6.36-2.64,20.73-7.08,31.33-12.39,14.73-7.37,23.34-18.31,29.89-18.86,6.66-.56,5.46,9.87,20,10.07,14.42.19,25.21-7.2,25.88-7.43,3.29,1.83,9.39,23.23,5.54,28.64-3.85,5.41-39.01,8.18-39.01,8.18l-28.12,5.69-28.17,1.31-22.19-5.5Z"/>
      <path class="cls-2" d="M826.85,946.05c-.13-2.4-.03-4.89.72-7.19.41-1.26,1.04-2.49,1.99-3.43,1.26-1.24,3.06-1.68,4.69-2.26,4.9-1.74,11.25-3.18,14.39-7.74,2.03-2.95,2.07-6.54,1.48-9.95-.11-.62-1.56-.26-1.45.39.56,3.24.56,6.71-1.44,9.48-1.58,2.18-4.06,3.43-6.49,4.44-3.18,1.32-6.5,2.26-9.69,3.53-2.24.89-3.83,2.67-4.68,4.91-.96,2.52-1.12,5.28-.98,7.95.04.72,1.49.46,1.46-.13h0Z"/>
      <path class="cls-2" d="M847.77,912.04c-4.66,3.29-9.72,5.83-15.39,6.79-3.53.6-7.09.6-10.66.44-2.61-.12-5.23-.34-7.8-.83-4.48-.86-8.79-2.92-13.43-2.87-6.26.08-11.96,4.18-17,7.45-3.39,2.2-6.77,4.42-10.31,6.36.09-.05-1.2.63-.69.48.03,0,.05,0-.11,0-.28,0-.57-.07-.82-.19-1.18-.58-1.07-2.04-.85-3.13.11-.53-1.35-.3-1.45.19-.36,1.75-.04,3.52,1.95,3.88.41.07.88.11,1.29,0,.69-.18,1.37-.69,1.99-1.03.87-.49,1.73-.99,2.59-1.5,3.37-2.02,6.61-4.22,9.93-6.32,3.13-1.98,6.41-4.02,10.03-4.96,5.24-1.36,10.28,1.2,15.32,2.27,2.5.53,5.05.79,7.6.94,3.62.21,7.27.28,10.87-.2,6.58-.87,12.48-3.57,17.86-7.37.8-.56-.45-.73-.9-.42h0Z"/>
      <path class="cls-2" d="M804.63,949.77c1.95-.4,3.91-.79,5.86-1.19.45-.09.81-.58.42-.94-2.77-2.58-6.09-4.47-9.72-5.54-4.18-1.24-8.44-1.24-12.76-1.3-4.71-.07-9.43-.12-14.14-.37-3.69-.2-7.51-.42-11.09-1.39-1.22-.33-2.58-.74-3.55-1.59-1.62-1.42-.71-3.71.16-5.31.4-.72-1.07-.76-1.39-.18-.82,1.51-1.64,3.49-.83,5.17.41.85,1.19,1.43,2,1.87,2.71,1.45,6.05,1.81,9.06,2.12,4.46.47,8.96.58,13.45.68,4.95.1,10.06-.23,14.96.56s9.18,2.83,12.73,6.14l.42-.94c-1.95.4-3.91.79-5.86,1.19-.92.19-.63,1.21.28,1.03h0Z"/>
      <g>
        <path class="cls-41" d="M808.17,948.39l-.13.15.24-.05s-.07-.07-.11-.1Z"/>
        <path class="cls-12" d="M807.52,948.45s-.09.1-.13.15c-.05.03-.07.08-.07.13.02.04.05.06.08.07.05.02.11.03.17.03.11,0,.22,0,.33-.03.07-.01.14-.03.21-.04h.03c.13-.03.26-.06.39-.11.11-.04.21-.08.31-.14.07-.03.12-.08.16-.14.02-.05.01-.08-.03-.11-.04-.03-.07-.07-.11-.1-.05-.02-.1-.04-.15-.04-.07-.01-.14-.01-.22,0-.09,0-.19.02-.28.05-.1.02-.19.05-.29.08l-.17.07c-.09.04-.17.09-.24.15l-.06.07s-.01.08.03.11c.04.03.07.07.11.1l.82-.5c-.07.01-.14.03-.21.04h-.03c.17.07.34.14.52.2.04-.05.09-.1.13-.15.04-.02.06-.06.06-.1.01-.03,0-.06-.04-.08-.05-.02-.1-.04-.15-.04-.07-.01-.14-.01-.22,0l-.18.02c-.13.02-.26.06-.39.1l-.17.07c-.09.04-.17.09-.24.15Z"/>
      </g>
      <g>
        <path class="cls-41" d="M817.99,945.1h-1.16c0,.91-.07,1.63-.13,2.06.37-.03.77-.07,1.19-.12.06-.47.11-1.14.1-1.94Z"/>
        <path class="cls-12" d="M818.27,944.67c-.39,0-.77,0-1.16,0-.23,0-.45.05-.65.15-.08.04-.15.08-.21.14-.07.06-.12.13-.14.22,0,.69-.03,1.37-.13,2.05-.05.33.41.35.63.33.4-.04.79-.08,1.19-.12.18-.02.4-.09.55-.19.11-.07.26-.18.27-.32.08-.64.11-1.29.1-1.94,0-.13-.03-.21-.15-.27-.13-.07-.34-.08-.48-.06-.19.03-.39.08-.55.19-.1.07-.27.18-.27.32,0,.65-.03,1.3-.1,1.94l.82-.5c-.4.04-.79.08-1.19.12l.63.33c.1-.68.14-1.37.13-2.05l-1,.51c.39,0,.77,0,1.16,0,.2,0,.39-.03.57-.11.13-.06.31-.16.39-.29.05-.1.09-.22,0-.31-.1-.1-.26-.14-.39-.14Z"/>
      </g>
      <g>
        <path class="cls-41" d="M823.18,943.8c-.02.87,0,1.76.05,2.66h.17c.32-.05.65-.09.99-.13-.05-.84-.07-1.69-.04-2.5l-1.16-.03Z"/>
        <path class="cls-12" d="M822.45,943.89c-.02.92,0,1.85.05,2.77,0,.1.14.16.22.19.14.05.27.04.41.04.39-.02.77-.08,1.16-.13.31-.04.84-.22.82-.61-.03-.49-.05-.98-.05-1.47v.11c0-.34,0-.69,0-1.03,0-.1-.01-.17-.1-.24-.1-.07-.22-.1-.35-.1l-1.16-.03c-.19,0-.39.04-.57.11-.13.06-.31.16-.39.29-.16.3.14.44.4.45l1.16.03-.45-.34c-.02.87,0,1.74.05,2.61l.82-.61c-.39.05-.77.11-1.16.13l.63.22c-.03-.51-.05-1.02-.06-1.52v.11c0-.38,0-.76.01-1.13,0-.13-.03-.21-.15-.27-.13-.07-.34-.08-.48-.06-.19.03-.39.08-.55.19-.1.07-.27.18-.27.32Z"/>
      </g>
      <g>
        <path class="cls-8" d="M855.69,939.46s-.42.05-1.1.13l-.25-.99c-4.32.53-19.23,2.4-28.32,4.02-2.77.49-6.26,1.31-10.31,2.26-9.38,2.2-22.22,5.21-35.86,6.36-2.44.21-4.86.35-7.19.42-19.48.6-35.62-2.51-39.08-3.24l-.13,1.01c-.53-.11-.81-.18-.81-.18,0,0-.28,1.38-.54,2.64h0c-.02.11-.04.22-.07.33-.09.45-.17.86-.23,1.17,9.66,5.12,51.1,4.69,60.41,2.05.59-.17,1.22-.34,1.89-.52.27-.07.57-.15.86-.22.44-.11.87-.23,1.33-.34,9.99-2.5,24.84-5.41,24.84-5.41,0,0-.04,1.41,0,3.06h0s0,.03,0,.05c.02.7.06,1.43.12,2.13,17.51-.28,35.61-3.49,35.61-3.49l-1.19-11.24Z"/>
        <path class="cls-12" d="M855.82,939.16c-.37.04-.73.09-1.1.13l.6.1-.25-.99c-.05-.19-.48-.11-.6-.1-6.44.79-12.88,1.64-19.3,2.58-3.72.55-7.45,1.09-11.14,1.85-4.22.87-8.41,1.91-12.61,2.88-9.51,2.19-19.11,4.11-28.83,5.08-9.84.99-19.77.9-29.62.06-6.3-.54-12.6-1.34-18.79-2.63-.26-.05-1.26.03-1.31.41l-.13,1.01,1.31-.41c-.27-.06-.54-.11-.81-.18s-1.23.03-1.31.41c-.18.88-.36,1.76-.54,2.64l1.4-.37h0c-.28-.16-1.32-.01-1.4.37-.1.5-.2,1-.3,1.5-.02.05-.01.1.04.13,4.08,2.12,9.17,2.57,13.66,3.05,6.76.73,13.58.96,20.38.98,6.3.01,12.61-.14,18.89-.72,2.17-.2,4.34-.43,6.48-.86,3.36-.67,6.65-1.71,9.98-2.48,6.8-1.59,13.64-3.02,20.49-4.36l-.6-.1c-.03,1.02-.02,2.04,0,3.06l1.03-.51h0c-.24.01-1.05.15-1.03.51.04.73.06,1.45.12,2.18.01.15.34.12.42.12,11.95-.21,24.01-1.43,35.79-3.51.18-.03.88-.18.85-.49-.4-3.75-.79-7.49-1.19-11.24-.03-.32-1.49-.03-1.45.39.4,3.75.79,7.49,1.19,11.24l.85-.49c-11.66,2.06-23.6,3.26-35.43,3.47l.42.12c-.06-.73-.08-1.45-.12-2.18l-1.03.51h0c.25-.01,1.04-.15,1.03-.51-.02-1.02-.03-2.04,0-3.06,0-.18-.53-.11-.6-.1-5.57,1.09-11.13,2.26-16.67,3.49-4.21.94-8.39,1.96-12.56,3.07-1.8.48-3.67.71-5.52.92-5.97.66-12.01.85-18.02.9-6.83.05-13.68-.13-20.49-.74-3.17-.28-6.35-.65-9.48-1.28-1.24-.25-2.47-.54-3.68-.92-.49-.15-.97-.32-1.44-.52-.18-.07-.57-.16-.69-.31-.28-.34.01-1.04.1-1.48l-1.4.37h0c.28.16,1.32.01,1.4-.37.18-.88.36-1.76.54-2.64l-1.31.41c.27.06.54.12.81.18s1.26-.04,1.31-.41l.13-1.01-1.31.41c14.46,3.02,29.65,4.02,44.37,3.01,9.84-.68,19.57-2.37,29.2-4.48,8.31-1.82,16.52-3.95,24.93-5.25,7.55-1.17,15.14-2.16,22.72-3.1l-.6-.1.25.99c.05.19.48.11.6.1.37-.04.73-.09,1.1-.13.61-.07,1.28-.71.25-.59Z"/>
      </g>
      <g>
        <path class="cls-8" d="M796.79,914.33c.18.28.5.41.81.39.14-.01.27-.05.39-.13.4-.25.52-.78.26-1.17l-2.93-4.45c-.48.29-.96.6-1.46.93l2.92,4.43Z"/>
        <path class="cls-12" d="M796.13,914.65c.78,1.07,2.82.63,3-.72.07-.49-.22-.86-.47-1.24-.68-1.04-1.36-2.07-2.05-3.11-.2-.31-.41-.62-.61-.93-.25-.38-.85-.19-1.14-.01-.49.3-.98.61-1.46.93-.21.14-.33.42-.18.65.85,1.29,1.7,2.58,2.55,3.87.12.19.25.38.37.56.36.55,1.74,0,1.33-.64-.85-1.29-1.7-2.58-2.55-3.87-.12-.19-.25-.38-.37-.56l-.18.65c.48-.32.97-.63,1.46-.93h-1.14c.95,1.43,1.9,2.88,2.85,4.32.07.11.14.21.15.34,0,.06-.02.13-.04.18-.04.09-.01.03,0,.03-.05.06-.06.08-.04.05,0,0,.01-.01.03-.02,0,0,.09-.02.08,0-.01.05-.24-.19-.23-.18-.39-.53-1.77.04-1.33.64Z"/>
      </g>
      <g>
        <path class="cls-8" d="M792.54,916.99c.18.28.5.42.81.39.14-.01.27-.05.39-.13.4-.25.52-.78.26-1.17l-2.81-4.26c-.45.34-.91.69-1.38,1.05l2.72,4.13Z"/>
        <path class="cls-12" d="M791.87,917.28c.73,1,2.72.55,2.98-.65.11-.48-.17-.85-.42-1.22-.66-1-1.31-1.99-1.97-2.99-.2-.3-.4-.6-.6-.91s-.91-.12-1.13.05c-.46.35-.92.69-1.38,1.05-.18.14-.36.32-.21.54.79,1.21,1.59,2.41,2.38,3.62.11.17.23.34.34.51.29.44,1.69-.05,1.34-.59-.79-1.21-1.59-2.41-2.38-3.62-.11-.17-.23-.34-.34-.51l-.21.54c.46-.35.92-.7,1.38-1.05l-1.13.05c.91,1.39,1.83,2.78,2.74,4.17.08.12.14.23.15.38,0,.09-.02.19-.07.27-.03.06-.16.18.05.03.03-.02.07,0,.06-.02s-.07-.03-.1-.05c-.06-.05-.11-.12-.16-.18-.31-.43-1.71.07-1.34.59Z"/>
      </g>
      <g>
        <path class="cls-8" d="M785.84,915.92l2.45,3.72c.18.28.5.42.81.39.14-.01.27-.05.39-.13.4-.25.52-.78.26-1.17l-2.54-3.86c-.45.35-.9.7-1.37,1.06Z"/>
        <path class="cls-12" d="M785.17,916.24c.81,1.23,1.6,2.47,2.43,3.69.97,1.44,3.82.1,2.81-1.52-.39-.63-.81-1.24-1.22-1.85-.44-.67-.88-1.33-1.31-2-.22-.34-.89-.19-1.14,0-.46.35-.91.71-1.37,1.06-.23.18-.38.51-.09.71s.77.1,1.04-.1c.46-.35.92-.7,1.37-1.06h-1.14c.79,1.2,1.58,2.4,2.37,3.6.12.18.27.36.24.59-.01.06-.01.08-.05.15,0,.02-.04.05-.04.05.01,0,.09-.03.1-.04.04-.02.09.06-.03,0,0,0,.03,0,.03.01-.12-.05-.19-.15-.25-.25-.41-.61-.81-1.24-1.22-1.85s-.8-1.21-1.2-1.82c-.34-.52-1.73.02-1.33.62Z"/>
      </g>
      <g>
        <path class="cls-8" d="M784.03,922.3c.18.28.5.42.81.39.14-.01.27-.05.39-.13.41-.25.52-.78.26-1.18l-2.29-3.48c-.46.34-.92.68-1.4,1.02l2.23,3.38Z"/>
        <path class="cls-12" d="M783.37,922.63c.7.98,2.43.73,2.89-.36.22-.52.04-.98-.24-1.42-.54-.83-1.09-1.65-1.63-2.48-.17-.26-.35-.53-.52-.79-.24-.37-.86-.23-1.15-.02-.46.34-.93.68-1.4,1.02-.21.15-.33.44-.18.67.74,1.13,1.48,2.25,2.23,3.38.37.57,1.75,0,1.32-.65-.74-1.13-1.48-2.25-2.23-3.38l-.18.67c.47-.34.93-.68,1.4-1.02l-1.15-.02c.76,1.15,1.53,2.29,2.28,3.46.1.15.09.28.06.4-.03.1-.02.06,0,.03l-.04.05s.04-.04,0,0c-.03,0-.03.02.02,0,.02-.01.13-.01-.02,0,.04,0,.06,0,.09.01-.04-.02-.08-.03-.12-.05.07.04-.03-.03-.03-.03.04.04-.09-.11-.08-.1-.4-.55-1.77.02-1.32.65Z"/>
      </g>
      <g>
        <path class="cls-8" d="M779.78,924.96c.18.28.5.41.81.39.14-.01.27-.05.39-.13.4-.25.52-.78.26-1.17l-2.14-3.25c-.47.32-.95.64-1.44.96l2.11,3.21Z"/>
        <path class="cls-12" d="M779.1,925.22c.31.43.88.53,1.37.46.55-.07,1.17-.31,1.47-.8.21-.34.22-.74,0-1.07-.04-.07-.09-.13-.13-.2l-1.53-2.33c-.17-.25-.33-.51-.5-.76-.09-.14-.44-.09-.56-.07-.25.04-.48.13-.68.27-.48.32-.96.64-1.44.96-.13.09-.2.21-.11.34.7,1.07,1.41,2.14,2.11,3.21.06.09.3.09.38.09.19,0,.39-.05.57-.12.19-.07.57-.26.41-.5-.7-1.07-1.41-2.14-2.11-3.21l-.11.34c.48-.31.96-.63,1.44-.96l-1.25.19c.34.51.67,1.02,1.01,1.53.37.57.78,1.12,1.12,1.7,0,0,0,0,0,.01-.03-.06.01.04.02.04.02.05.04.09.05.14.04.16.03.32-.05.47-.03.05-.08.1-.09.13-.01.03-.05.02.14-.04-.08.03.2-.07.21-.05-.01-.02-.12-.04-.15-.06-.1-.06-.17-.15-.24-.24s-.3-.09-.38-.09c-.19,0-.39.05-.57.12s-.58.26-.41.5Z"/>
      </g>
      <g>
        <path class="cls-41" d="M859.83,926.99h.02s0,0,0,0c0,0-.02,0-.02,0Z"/>
        <path class="cls-12" d="M859.24,927.28h.02s.08.02.13.03h.16c.06,0,.12-.01.18-.02.1-.02.2-.04.29-.07.06-.02.12-.04.18-.07.05-.02.1-.04.15-.07.04-.02.08-.05.12-.08.05-.03.08-.07.11-.12,0,0,0-.01,0-.02.02-.05.01-.1-.04-.13-.07-.04-.14-.06-.22-.06-.11,0-.23,0-.34.02-.13.02-.26.06-.39.1,0,0-.02,0-.02,0-.08.03-.16.06-.23.11-.06.03-.12.07-.17.12-.04.03-.06.07-.06.12-.01.04,0,.07.04.1l.09.04c.09.02.19.03.28.02l.18-.02c.13-.02.26-.06.39-.1,0,0,.02,0,.02,0l-.97-.07s0,.01,0,.02l1.31-.41h-.02c-.07-.02-.14-.03-.21-.03-.09,0-.17,0-.26.02-.1.02-.2.04-.29.07-.09.03-.18.06-.26.1l-.14.08c-.07.04-.12.09-.16.16v.07c.02.06.06.09.12.1Z"/>
      </g>
    </g>
    <polygon class="cls-6" points="907.54 926.93 861.42 924.43 860.7 909.68 906.6 907.72 907.54 926.93"/>
    <g>
      <path class="cls-25" d="M796.48,955.79s-1.51-7.06,4.85-9.7c6.36-2.64,20.73-7.08,31.33-12.39,14.73-7.37,23.34-18.31,29.89-18.86,6.66-.56,5.46,9.87,20,10.07,14.42.19,25.21-7.2,25.88-7.43,3.29,1.83,9.39,23.23,5.54,28.64-3.85,5.41-39.01,8.18-39.01,8.18l-28.12,5.69-28.17,1.31-22.19-5.5Z"/>
      <path class="cls-2" d="M888.44,952.76c-.13-2.44,0-4.97.78-7.3.42-1.25,1.06-2.45,2.02-3.37,1.24-1.19,2.99-1.62,4.56-2.18,4.91-1.74,11.38-3.2,14.5-7.81,1.97-2.91,1.99-6.44,1.41-9.78-.08-.48-1.54-.14-1.45.39.56,3.24.56,6.69-1.39,9.48-1.59,2.28-4.16,3.57-6.68,4.6-3.18,1.3-6.5,2.21-9.68,3.52-2.22.91-3.75,2.69-4.6,4.91-.95,2.5-1.07,5.27-.93,7.92.02.45,1.48.16,1.45-.39h0Z"/>
      <path class="cls-2" d="M909.27,919.08c-4.74,3.34-9.86,5.89-15.63,6.8-3.62.57-7.29.52-10.94.32-2.59-.14-5.17-.39-7.71-.93-4.38-.93-8.63-2.92-13.2-2.71-6.35.3-12.08,4.45-17.21,7.78-1.72,1.11-3.43,2.23-5.17,3.31-.77.48-1.55.95-2.33,1.41-.89.52-2.01.95-2.81,1.6-.5.4-.55.18.01.17-.03,0-.13.03-.21,0-.31-.12-.63-.1-.94-.27-1.14-.65-1.06-2.09-.83-3.2.06-.3-1.36-.08-1.43.26-.35,1.71-.07,3.46,1.91,3.75.42.06.87.06,1.28-.05,1.56-.42,3.14-1.65,4.52-2.47,3.37-2.01,6.61-4.21,9.92-6.31,3.14-1.99,6.44-4.1,10.08-5.04,5.29-1.36,10.44,1.34,15.54,2.37,6,1.22,12.58,1.47,18.64.59,6.47-.93,12.3-3.63,17.6-7.37.58-.41-.85-.2-1.1-.02h0Z"/>
      <path class="cls-2" d="M866.19,956.44c1.95-.4,3.91-.79,5.86-1.19.16-.03.88-.36.58-.64-2.7-2.52-5.91-4.37-9.44-5.46-4.31-1.33-8.71-1.32-13.17-1.38s-9.25-.12-13.87-.36c-3.73-.2-7.55-.43-11.17-1.39-1.28-.34-2.73-.79-3.73-1.71-1.58-1.48-.74-3.79.15-5.42.32-.59-1.12-.43-1.35-.02-.8,1.46-1.65,3.38-.88,5.03.4.85,1.2,1.42,2.01,1.85,2.77,1.46,6.2,1.78,9.26,2.09,4.41.44,8.85.56,13.28.65,4.94.1,10.07-.24,14.96.58s9.1,2.84,12.61,6.12l.58-.64c-1.95.4-3.91.79-5.86,1.19-.89.18-.68.89.19.71h0Z"/>
      <g>
        <path class="cls-41" d="M869.77,955.22l-.13.15.24-.05s-.07-.07-.11-.1Z"/>
        <path class="cls-12" d="M869.1,955.24s-.09.1-.13.15c-.05.05-.07.11-.06.18.02.05.05.08.09.1.05.04.11.06.18.06.11.01.23.01.34,0,.07-.01.14-.03.21-.04h.03c.13-.03.26-.06.39-.11.11-.04.21-.1.3-.16.07-.05.12-.11.15-.18.02-.06,0-.12-.04-.16-.04-.03-.07-.07-.11-.1-.05-.04-.1-.06-.16-.07-.07-.02-.15-.03-.22-.02-.09,0-.19.01-.28.04-.1.02-.19.04-.29.08l-.16.08c-.09.05-.16.11-.23.18l-.05.09c-.02.06,0,.12.04.16.04.03.07.07.11.1l.79-.61c-.07.01-.14.03-.21.04h-.03c.18.12.37.23.55.34.04-.05.09-.1.13-.15.04-.04.06-.08.06-.14.01-.05,0-.09-.05-.12-.05-.04-.1-.06-.16-.07-.07-.02-.15-.03-.22-.02l-.18.02c-.13.02-.26.05-.39.1l-.16.08c-.09.05-.16.11-.23.18Z"/>
      </g>
      <g>
        <path class="cls-41" d="M879.59,951.94h-1.16c0,.91-.07,1.63-.13,2.06.37-.03.77-.07,1.19-.12.06-.47.11-1.14.1-1.94Z"/>
        <path class="cls-12" d="M879.66,951.43c-.39,0-.77,0-1.16,0-.17,0-.41.09-.55.2-.11.09-.26.22-.26.37,0,.69-.03,1.37-.13,2.05-.05.35.4.48.66.45.4-.04.79-.08,1.19-.12.18-.02.4-.08.55-.2.12-.09.24-.21.26-.37.08-.64.11-1.29.1-1.94,0-.15-.04-.26-.17-.35s-.34-.12-.49-.1c-.19.02-.39.08-.55.2-.11.09-.26.22-.26.37,0,.65-.03,1.3-.1,1.94l.8-.57c-.4.04-.79.08-1.19.12l.66.45c.1-.68.14-1.37.13-2.05l-.8.57c.39,0,.77,0,1.16,0,.18,0,.4-.09.55-.2.11-.08.25-.23.26-.37.02-.37-.37-.45-.66-.45Z"/>
      </g>
      <g>
        <path class="cls-41" d="M884.78,950.64c-.02.87,0,1.76.05,2.66h.17c.32-.05.65-.09.99-.13-.05-.84-.07-1.69-.04-2.5l-1.16-.03Z"/>
        <path class="cls-12" d="M884.05,950.71c-.02.93,0,1.86.05,2.78,0,.11.14.19.23.23.14.06.27.07.42.06.39-.02.77-.08,1.16-.13.23-.03.44-.1.61-.25.14-.12.2-.24.19-.43,0-.12-.01-.25-.02-.37v.13c-.03-.71-.04-1.42-.02-2.13,0-.26-.22-.41-.47-.42-.39-.01-.78-.02-1.16-.03-.2,0-.39.02-.57.1-.13.06-.31.18-.38.32-.14.31.12.53.42.54.39.01.78.02,1.16.03l-.47-.42c-.02.88,0,1.75.05,2.62l.8-.68c-.39.05-.77.11-1.16.13l.65.29c0-.14-.02-.28-.02-.42v.13c-.03-.74-.04-1.49-.02-2.24,0-.34-.37-.45-.65-.41-.19.02-.39.08-.55.19-.11.08-.26.21-.26.36Z"/>
      </g>
      <g>
        <path class="cls-8" d="M915.39,953.04s.11-6.61-.57-6.53l-.24-.99c-4.28.53-19.01,2.39-28,4-2.74.49-6.19,1.31-10.19,2.26-9.27,2.2-21.97,5.2-35.45,6.33-2.42.2-4.81.34-7.11.41-19.27.59-35.22-2.53-38.65-3.26l-.12,1.01c-.53-.11-.8-.18-.8-.18,0,0-.28,1.38-.53,2.64h0c-.02.11-.04.22-.07.33-.09.45-.17.86-.23,1.17,9.56,5.12,50.54,4.72,59.74,2.09.58-.17,1.21-.34,1.86-.51.27-.07.57-.15.85-.22.43-.11.86-.23,1.32-.34,9.88-2.49,24.56-5.39,24.56-5.39,0,0-.04,1.41,0,3.06h0s0,.03,0,.05c.02.7.06,1.43.12,2.13,17.31-.27,33.56-3.19,33.56-3.19l-.04-4.86Z"/>
        <path class="cls-12" d="M915.55,952.99c.02-1.42.01-2.85-.08-4.27-.04-.6.02-1.56-.31-2.1-.05-.09-.23-.21-.22-.19-.09-.14-.15-.72-.21-.97-.01-.04-.1-.03-.13-.02-6.47.8-12.94,1.65-19.39,2.61-3.67.55-7.36,1.09-10.99,1.86-4.2.88-8.37,1.93-12.55,2.9-9.4,2.18-18.88,4.06-28.5,5.02-9.78.97-19.64.86-29.42,0-5.89-.52-11.79-1.29-17.59-2.46-.29-.06-.58-.12-.87-.18-.06-.01-.27,0-.28.09l-.12,1.01.28-.09c-.27-.06-.54-.11-.8-.18-.06-.01-.27,0-.28.09-.18.88-.36,1.76-.53,2.64l.3-.08h0c-.06-.04-.29,0-.3.08-.1.5-.2,1-.3,1.49,0,.01,0,.02,0,.03,1.75.93,3.73,1.42,5.66,1.84,2.74.58,5.52.95,8.3,1.24,6.84.71,13.73.93,20.6.92,6.25,0,12.53-.18,18.75-.83,2-.21,4.01-.45,5.96-.92s3.71-1.01,5.57-1.47c2.08-.51,4.17-1,6.26-1.48,4-.91,8.02-1.77,12.04-2.6,1.31-.27,2.63-.54,3.95-.81.34-.07.68-.14,1.03-.21.08-.02.17-.05.26-.05.14,0-.02-.07-.06.05-.08.28-.01.7-.01.99,0,.66,0,1.31.02,1.97l.22-.11h0c-.05,0-.23.03-.22.11.04.73.06,1.45.12,2.18,0,.03.07.03.09.03,10.49-.17,20.99-1.18,31.34-2.82.75-.12,1.5-.24,2.25-.37.05,0,.18-.04.18-.11-.01-1.62-.03-3.24-.04-4.86,0-.07-.32-.02-.31.08.01,1.62.03,3.24.04,4.86l.18-.11c-7.96,1.43-16.06,2.28-24.12,2.8-1.91.12-3.81.22-5.72.29-.94.03-1.87.06-2.81.08-.14,0-.5.08-.61.01-.27-.14-.2-.54-.22-.79-.03-.45-.03-.9-.06-1.36l-.22.11h0c.06,0,.23-.03.22-.11-.03-1.02-.04-2.04,0-3.06,0-.04-.11-.03-.13-.02-5.58,1.1-11.15,2.28-16.69,3.53-4.09.92-8.15,1.94-12.2,3.02-1.85.49-3.78.72-5.68.93-6.01.66-12.08.84-18.11.88-6.77.04-13.56-.16-20.31-.79-2.86-.27-5.72-.61-8.54-1.15-2.04-.39-4.12-.86-6.02-1.71-.15-.07-.45-.14-.54-.26-.22-.27.12-1.17.19-1.53l-.3.08h0c.06.04.29,0,.3-.08.18-.88.35-1.76.53-2.64l-.28.09c.27.06.54.12.8.18.06.01.27,0,.28-.09l.12-1.01-.28.09c5.22,1.11,10.53,1.85,15.84,2.4,9.66,1,19.44,1.29,29.13.53s19.52-2.56,29.12-4.72c4.35-.98,8.68-2.06,13.03-3.03,3.85-.86,7.73-1.5,11.63-2.09s7.93-1.15,11.91-1.68c2.84-.38,5.71-.67,8.54-1.1.28-.04.17-.07.24.21l.18.72s.07.03.09.03c.43,0,.44,3.09.45,3.39.03,1.04.04,2.07.03,3.11,0,.06.31.02.31-.08Z"/>
      </g>
      <g>
        <path class="cls-8" d="M858.39,921.17c.18.28.5.41.81.39.14-.01.27-.05.39-.13.4-.25.52-.78.26-1.17l-2.93-4.45c-.48.29-.96.6-1.46.93l2.92,4.43Z"/>
        <path class="cls-12" d="M857.73,921.49c.78,1.07,2.82.63,3-.72.07-.49-.22-.86-.47-1.24l-2.05-3.11c-.2-.31-.41-.62-.61-.93-.25-.38-.85-.19-1.14-.01-.49.3-.98.61-1.46.93-.21.14-.33.42-.18.65.85,1.29,1.7,2.58,2.55,3.87.12.19.25.38.37.56.36.55,1.74,0,1.33-.64-.85-1.29-1.7-2.58-2.55-3.87-.12-.19-.25-.38-.37-.56l-.18.65c.48-.32.97-.63,1.46-.93h-1.14c.95,1.43,1.9,2.88,2.85,4.32.07.11.14.21.15.34,0,.06-.02.13-.04.18-.04.09-.01.03,0,.03-.05.06-.06.08-.04.05,0,0,.01-.01.03-.02,0,0,.09-.02.08,0-.01.05-.24-.19-.23-.18-.39-.53-1.77.04-1.33.64Z"/>
      </g>
      <g>
        <path class="cls-8" d="M854.14,923.83c.18.28.5.42.81.39.14-.01.27-.05.39-.13.4-.25.52-.78.26-1.17l-2.81-4.26c-.45.34-.91.69-1.38,1.05l2.72,4.13Z"/>
        <path class="cls-12" d="M853.47,924.14c.75,1.03,2.72.6,2.98-.65.1-.5-.17-.87-.43-1.25l-1.97-2.99c-.2-.3-.4-.6-.6-.91-.22-.34-.89-.18-1.14.01-.46.35-.92.69-1.38,1.05-.19.15-.35.37-.19.61.79,1.21,1.59,2.41,2.38,3.62.11.17.23.34.34.51.33.5,1.72-.02,1.33-.62-.79-1.21-1.59-2.41-2.38-3.62-.11-.17-.23-.34-.34-.51l-.19.61c.46-.35.92-.7,1.38-1.05h-1.14c.91,1.4,1.83,2.79,2.74,4.18.07.11.13.21.14.35,0,.09-.07.17-.07.25,0,.05-.03.01.05,0,.1,0,.06.02,0-.03-.08-.06-.13-.1-.19-.19-.36-.49-1.75.05-1.33.62Z"/>
      </g>
      <g>
        <path class="cls-8" d="M847.43,922.76l2.45,3.72c.18.28.5.42.81.39.14-.01.27-.05.39-.13.4-.25.52-.78.26-1.17l-2.54-3.86c-.45.35-.9.7-1.37,1.06Z"/>
        <path class="cls-12" d="M846.71,922.95c.81,1.23,1.61,2.46,2.43,3.69.47.71,1.39.66,2.1.37.66-.26,1.26-.95.83-1.66-.39-.63-.81-1.24-1.22-1.85-.44-.67-.88-1.33-1.31-2-.23-.35-1.03-.07-1.29.13-.46.35-.91.71-1.37,1.06-.07.05-.19.15-.16.26s.18.13.27.14c.33.04.76-.07,1.02-.27.46-.35.92-.7,1.37-1.06l-1.29.13c.79,1.2,1.58,2.4,2.37,3.6.14.22.32.44.31.71,0,.12-.04.25-.11.35-.07.11-.1.08.02.04l.17-.03c.19-.02.23-.03.1-.04-.03-.01-.05-.02-.08-.03-.13-.06-.21-.16-.29-.26-.43-.6-.81-1.24-1.22-1.85s-.8-1.21-1.2-1.82c-.27-.4-1.62.14-1.45.39Z"/>
      </g>
      <g>
        <path class="cls-8" d="M845.63,929.14c.18.28.5.42.81.39.14-.01.27-.05.39-.13.41-.25.52-.78.26-1.18l-2.29-3.48c-.46.34-.92.68-1.4,1.02l2.23,3.38Z"/>
        <path class="cls-12" d="M844.96,929.41c.67.94,2.46.5,2.91-.45.22-.46.02-.85-.23-1.23l-1.63-2.48c-.17-.26-.35-.53-.52-.79-.1-.15-.43-.12-.57-.1-.25.03-.48.13-.68.28-.46.34-.93.68-1.4,1.02-.14.1-.19.24-.1.38.74,1.13,1.48,2.25,2.23,3.38.06.1.3.11.39.11.19,0,.39-.04.57-.12.21-.09.57-.29.39-.55-.74-1.13-1.48-2.25-2.23-3.38l-.1.38c.47-.34.93-.68,1.4-1.02l-1.25.17c.35.53.7,1.07,1.06,1.6.4.61.85,1.22,1.22,1.85.1.18.14.39.06.58,0,.03-.1.17-.1.17,0-.06.32-.07.32-.07-.04.09-.37-.26-.38-.28-.07-.1-.29-.11-.39-.11-.19,0-.39.04-.57.12-.2.08-.58.3-.39.55Z"/>
      </g>
      <g>
        <path class="cls-8" d="M841.38,931.79c.18.28.5.41.81.39.14-.01.27-.05.39-.13.4-.25.52-.78.26-1.17l-2.14-3.25c-.47.32-.95.64-1.44.96l2.11,3.21Z"/>
        <path class="cls-12" d="M840.71,932.1c.68.95,2.33.66,2.86-.3.21-.39.18-.83-.04-1.21-.04-.06-.08-.13-.12-.19-.51-.78-1.02-1.55-1.53-2.33-.17-.25-.33-.51-.5-.76-.23-.35-.88-.16-1.14.01-.48.32-.96.64-1.44.96-.2.13-.34.38-.2.6.7,1.07,1.41,2.14,2.11,3.21.33.5,1.72-.02,1.33-.62-.7-1.07-1.41-2.14-2.11-3.21l-.2.6c.48-.31.96-.63,1.44-.96h-1.14c.34.52.67,1.03,1.01,1.54.37.56.78,1.12,1.12,1.7.1.17.1.37.02.51-.06.1-.03.05-.02.03-.04.07-.06.03.01,0,.09-.03-.12.03-.01,0,.04,0,.1-.02.14-.03-.02,0-.11-.03-.03,0-.01,0-.08-.04-.05-.02-.09-.06-.13-.09-.19-.19-.35-.49-1.74.04-1.33.62Z"/>
      </g>
    </g>
    <path class="cls-21" d="M949.18,424.71l1.14,3.75c9.02,29.67,12.02,60.96,8.44,91.82-.52,4.48-1.12,8.47-1.79,11.66-4.09,19.58-10.5,39.39-15.93,56.96l-20.07,118.28s-1.47,63.88,2.22,106.7c3.22,37.12-9.98,103.18-9.98,103.18l-12.4,2.04c-11.2,1.85-22.61,1.92-33.83.23l-24.09-3.65-16.21-231.79-12.68-134.51-20.49-81.26,155.67-43.41Z"/>
    <path class="cls-21" d="M769.65,462.37l8.67,239.05c-.3,10.41,3.41,32.31,6.48,82.56l6.14,85.66,2.02,37.22,6.98,1.49c9.57,2.33,19.41,3.29,29.23,2.85l21.5-.24-11.03-441.46-69.98-7.12Z"/>
    <path class="cls-36" d="M796.88,157.65l10.28,1.1c13.77,1.51,52.81-.8,64.39,6.84,17.36,11.39-19.9,77.33-17.65,90.64,1.05,6.46,10.02,54.11,26.71,88.19,11.05,22.68,20.72,46,28.96,69.83l-37.08,17.09c-18.12,8.35-37.32,14.12-57.02,17.13l-55.84,7.32c-6.59-25.01-14.43-45.66-21.71-78.88l-26.77-105.77-6.12-49.51s7.4-11.93,3.65-9.41l22.73-25.66s-3.31,15.99,22.43,12.87c20.8-2.52,23.67-7.46,35.01-23.59,0,0,8.64-10.83,8.05-18.19Z"/>
    <path class="cls-36" d="M895.89,237.81s16.15,94.41,26.7,117.55c10.55,23.13,27.4,38.11,32.59,74.94,2.27,16.13-46.44,37.61-80.74,44.58-34.3,6.97-112.61,23.27-122.29-18.42-4.15-17.89,17.34-199.69,17.34-199.69l126.39-18.96Z"/>
    <path d="M810.09,531.33c11.01,9.36,14.47,24.83,15.31,38.61.46,7.61-.03,15.2.09,22.81.07,3.92.13,7.84.2,11.76.11,6.5.22,12.99.32,19.49.13,7.97.27,15.95.4,23.92l.41,24.94c.13,7.64.25,15.28.38,22.93.1,5.83.19,11.67.29,17.5.05,2.92.09,5.84.15,8.77.02.92.11,1.83.17,2.74.24,3.25.48,6.51.71,9.76.39,5.33.78,10.65,1.17,15.98.5,6.83,1,13.65,1.5,20.48.57,7.86,1.15,15.72,1.72,23.59.61,8.33,1.22,16.66,1.83,24.99.6,8.22,1.2,16.45,1.8,24.67.56,7.67,1.12,15.33,1.68,23l1.43,19.6c.35,4.84.71,9.69,1.06,14.53.2,2.67.39,5.34.59,8.01.03.34.05.69.08,1.03s1.48.06,1.45-.39c-.1-1.41-.21-2.82-.31-4.23-.28-3.87-.57-7.74-.85-11.61-.42-5.8-.85-11.6-1.27-17.39-.53-7.19-1.05-14.38-1.58-21.57-.59-8.05-1.18-16.09-1.76-24.14l-1.82-24.97c-.6-8.15-1.19-16.31-1.79-24.46-.54-7.41-1.08-14.81-1.62-22.22-.45-6.12-.89-12.25-1.34-18.37-.31-4.31-.63-8.61-.94-12.92-.14-1.95-.32-3.9-.43-5.86-.07-1.33-.05-2.67-.08-4-.08-4.6-.15-9.21-.23-13.81-.12-6.93-.23-13.86-.35-20.79-.14-8.16-.27-16.31-.41-24.47-.14-8.25-.27-16.49-.41-24.74-.12-7.33-.24-14.65-.37-21.98-.09-5.27-.18-10.54-.26-15.81-.04-2.11-.11-4.23-.11-6.34.01-7.52.39-15-.17-22.51-.56-7.39-1.87-14.76-4.66-21.65-2.36-5.83-5.79-11.31-10.62-15.41-.33-.28-1.64.28-1.36.52h0Z"/>
    <g>
      <path class="cls-10" d="M795.43,157.07s-3.98,32.14-32.49,40.14c-28.51,8-27.45-7.6-27.45-7.6v-7.74s-6.59,7.99-6.59,7.99c0,0-.53,7.73,5.01,12.86,5.54,5.13,21.44,5.7,38.8-2.01,10.18-4.52,21.84-15.34,27.63-25.56,6.94-12.24,7.61-15.96,7.61-15.96l-12.52-2.11Z"/>
      <path class="cls-5" d="M794.71,157.19c-.44,3.55-1.5,7.09-2.71,10.45-2.64,7.33-6.68,14.24-12.31,19.67-7.72,7.43-18.46,11.39-29.11,11.83-5.22.22-11.67-.96-13.77-6.45-.4-1.04-.59-2.12-.59-3.23-.01-2.6,0-5.2,0-7.8,0-.36-1.26.09-1.38.24-1.63,1.97-3.26,3.95-4.88,5.92-.5.61-1.38,1.34-1.71,2.07-.27.61-.06,1.63,0,2.28.38,4.11,2.07,8.35,5.29,11.06,2.68,2.25,6.42,3.06,9.81,3.42,4.91.52,9.93.03,14.75-.96,5.83-1.19,11.66-3.09,16.97-5.8,9.65-4.92,18.25-13,24.22-21.99,3.03-4.57,5.62-9.6,7.83-14.62.59-1.34,1.29-2.77,1.56-4.22.02-.09-.02-.15-.12-.17-4.17-.7-8.35-1.41-12.52-2.11-.3-.05-.76,0-1.01.18-.09.06-.52.35-.17.41,2.77.47,5.53.93,8.3,1.4,1.32.22,2.67.55,4,.68.32.03.08-.08.08-.08,0,.15-.09.34-.13.49-.83,2.82-2.22,5.52-3.54,8.13-2.9,5.73-6.05,11.25-10.26,16.14s-9,9.22-14.33,12.76c-5.78,3.83-12.4,6.36-19.14,7.92-5.77,1.34-11.97,2.02-17.84.9-4.68-.89-8.38-3.1-10.54-7.5-1.04-2.11-1.62-4.46-1.78-6.8-.04-.5-.13-1.12-.03-1.62.05-.25-.12.19.02-.05.09-.16.25-.31.37-.45,2.05-2.48,4.1-4.97,6.15-7.45l-1.38.24c0,2.58,0,5.17,0,7.75,0,.91.12,1.79.38,2.66,1.56,5.17,7.01,7.05,11.94,7.3,5.57.27,11.27-.92,16.58-2.5,4.79-1.42,9.33-3.63,13.33-6.63,6.85-5.13,11.9-12.29,15.22-20.12,1.81-4.28,3.35-8.93,3.93-13.57.05-.39-1.39-.12-1.43.24Z"/>
    </g>
    <g>
      <path d="M708.4,163.65c1.16,1.97,1.83,4.2,3.51,5.74-.71.48-.03,1.62.75,1.99.78.37,1.81.73,1.86,1.59.02.3-.1.6-.07.9.08.94,1.34,1.18,2.28,1.15-.47.64.32,1.45,1.05,1.75s1.66.67,1.67,1.46c0,.39-.24.77-.13,1.14.24.77,1.51.4,2.12.93.35.31.39.83.62,1.24.47.84,1.87.9,2.42.11.63,1.52,1.89,3.36,3.45,2.82.96-.33,1.62-1.54,2.63-1.4.62.09,1.06.68,1.66.86,2.04.6,3.13-3.61,5.17-3,1.09.33,1.53,1.96,2.67,2.01,1.08.05,1.62-1.35,2.62-1.76,1.09-.44,2.55.35,3.4-.46.37-.35.47-.9.75-1.32.64-.97,1.81-.12,2.98-.09,2.08.04,1.86-1.38,1.86-1.38.18-1.5.95-1.61,2.42-1.27.49.11.98.37,1.47.25,1.2-.29,1.19-2.39,2.4-2.62.44-.09.88.14,1.33.2,1.62.25,2.83-2.17,1.67-3.33,1.8-.5,2.88-2.74,2.15-4.46,1.83.07,3.43-1.9,2.99-3.67,2.12-.03,3.52-2.95,2.22-4.62,1.52.12,2.87-1.59,2.41-3.04-.24-.75-.84-1.6-.33-2.2.33-.4.94-.37,1.43-.52,1.2-.36,1.69-2.11.85-3.04,2.08-.08,3.1-3.31,1.45-4.57,1.63-.1,2.4-2.63,1.1-3.62,2.08-.67,2.7-3.89,1.02-5.29l-17.11,31.95-5.44,4.66s-21.62,8.41-26.36,7.73c-4.74-.68-18.93-16.83-18.93-16.83Z"/>
      <path d="M708.03,163.75c.8,1.38,1.38,2.89,2.25,4.23.19.28.38.56.6.82.13.15.27.29.39.44.2.24.17.14.1.38-.15.5-.15.82.2,1.28.41.54,1.02.72,1.59,1.03.71.39,1.01.79.94,1.6-.05.63.08,1.06.67,1.35.52.26,1.13.31,1.71.3l-.12-.09c-.75,1.28,1.39,1.83,2.1,2.31.28.18.54.43.6.78.06.38-.17.73-.14,1.11.04.53.5.69.95.77.71.14,1.26.17,1.56.93.22.54.36.99.94,1.24.82.35,1.93.07,2.48-.63l-.73.16c.67,1.57,1.93,3.48,3.9,2.82.35-.12.67-.31.96-.53.52-.39,1.01-1.04,1.72-.68s1.18.88,2.04.76c1.39-.2,2.14-1.49,3.04-2.4.22-.22.47-.49.75-.61.43-.19.87.07,1.19.36.58.51.98,1.36,1.78,1.59.64.18,1.36-.09,1.86-.49.34-.27.61-.6.93-.89.56-.51,1.15-.47,1.87-.42.77.05,1.68.03,2.27-.54.35-.33.4-.83.68-1.19.48-.64,1.21-.23,1.86-.11,1,.18,2.93.05,3.08-1.3.05-.47.05-1.28.61-1.44.41-.11,1.06.12,1.45.24.51.15.96.26,1.49.13.77-.19,1.15-.78,1.5-1.45.17-.33.36-.86.69-1.06.41-.25,1.32.19,1.85.12,1.59-.22,2.93-2.24,1.68-3.6l-.32.24c1.94-.6,3.27-2.67,2.49-4.67l-.61.25c2.05.01,4.06-1.75,3.6-3.92l-.53.25c2.27-.1,4.25-2.82,2.74-4.87l-.61.25c.97.04,1.93-.36,2.54-1.13.31-.39.52-.87.56-1.37.06-.68-.3-1.23-.5-1.86-.1-.29-.19-.67-.02-.96.23-.38.86-.38,1.24-.5.41-.13.78-.35,1.06-.68.62-.74.68-1.84.06-2.59l-.51.28c1.12-.08,2.08-.71,2.53-1.75s.35-2.34-.58-3.09l-.51.28c.89-.09,1.68-.55,2.06-1.39s.3-1.89-.45-2.51l-.22.21c2.19-.77,3.08-3.88,1.23-5.5-.14-.12-.63.04-.71.19-.8,1.5-1.6,2.99-2.4,4.49-1.8,3.37-3.61,6.74-5.41,10.11-1.91,3.58-3.83,7.15-5.74,10.73-1.13,2.11-2.26,4.21-3.38,6.32-.03.06-.19.34-.14.27-.34.41-.86.74-1.27,1.08-1.34,1.15-2.8,2.23-4.05,3.47-.21.21.08,0,.05,0-.08,0-.18.07-.25.1-.4.15-.8.31-1.21.46-1.53.58-3.07,1.15-4.62,1.7-4.25,1.53-8.52,3-12.88,4.2-1.74.48-3.51.94-5.31,1.16-1.29.15-2.29-.03-3.43-.67-1.62-.91-3.08-2.13-4.48-3.34-1.75-1.51-3.42-3.11-5.05-4.75-2.46-2.46-4.85-4.99-7.16-7.59-.13-.14-.25-.28-.38-.43s-.81.12-.7.25c1.75,1.99,3.57,3.94,5.41,5.85,3.1,3.21,6.29,6.47,9.91,9.11,1.08.79,2.36,1.73,3.73,1.91s2.86-.16,4.21-.45c4.36-.93,8.61-2.37,12.82-3.82,3.12-1.08,6.22-2.2,9.3-3.39.76-.29,1.29-.86,1.9-1.39l2.38-2.04c.54-.47,1.15-.91,1.66-1.42.28-.28.43-.7.62-1.05.56-1.04,1.11-2.08,1.67-3.12,1.8-3.37,3.61-6.74,5.41-10.1,1.95-3.64,3.9-7.29,5.85-10.93,1.17-2.18,2.33-4.36,3.5-6.54.06-.11.11-.21.17-.32l-.71.19c1.5,1.31,1.2,4.37-.8,5.08-.05.02-.32.13-.22.21.5.42.69,1.04.62,1.67s-.5,1.6-1.21,1.67c-.07,0-.65.16-.51.28.7.57.92,1.48.74,2.35-.17.82-.76,1.88-1.68,1.94-.09,0-.63.13-.51.28.57.69.51,1.73-.05,2.41s-1.69.37-2.25,1.09c-.6.77.28,1.76.4,2.55.16,1.07-.69,2.52-1.87,2.48-.07,0-.7.13-.61.25,1.03,1.4.3,4.28-1.69,4.37-.09,0-.56.09-.53.25.31,1.46-.73,3.43-2.38,3.42-.09,0-.67.09-.61.25.61,1.54-.12,3.73-1.81,4.24-.05.02-.42.13-.32.24.58.63.54,1.54.13,2.25-.22.38-.59.82-1.07.82-.57,0-1.05-.31-1.64-.21s-1.01.43-1.32.92c-.19.29-.33.62-.49.92-.26.48-.47.85-1.08.73-1.09-.22-2.9-.9-3.6.44-.21.4-.15.79-.24,1.21-.2.96-1.33.83-2.08.65s-1.41-.37-2.11-.06c-.33.14-.54.37-.72.68-.39.68-.51,1.36-1.49,1.32-.82-.04-1.63-.15-2.42.18-.72.31-1.12.97-1.73,1.43-.88.65-1.59-.6-2.12-1.16-.46-.48-1-.75-1.68-.67-1.25.16-2.01,1.22-2.79,2.09-.55.61-1.11,1.28-1.96.8s-1.37-.94-2.35-.57-1.77,1.75-2.91,1.19c-1.03-.51-1.64-1.68-2.07-2.69-.08-.2-.65.06-.73.16-.43.55-1.24.33-1.61-.17-.28-.37-.3-.88-.6-1.24-.53-.64-1.86-.22-2.2-.97-.21-.47.22-1,.05-1.49-.13-.38-.48-.63-.81-.82-.68-.38-2.52-.93-1.86-2.06.04-.07-.09-.09-.12-.09-.67,0-1.65-.05-2.03-.71s.18-1.34-.34-1.96c-.45-.53-1.16-.68-1.73-1.02-.54-.33-1.3-1.26-.62-1.82.04-.03.05-.07.01-.1-1.66-1.57-2.37-3.78-3.49-5.72-.11-.18-.8.09-.74.2Z"/>
    </g>
    <path d="M724.59,174.14c.13-.06.25-.15.34-.26,1.68-2.09,1.59-2.94,2.56-3.52.22-.13.32-.26,1.03-.6,2.88-1.38,4.61-2.27,14.31.27.2.05,10.34-4.65,10.54-4.74l4.63-4.31c.73-.85,15.69-24.57,15.69-24.57.13-.67,2.52-5.94,2.49-6.54.05-.05.1-.11.16-.16.02-.02.07-.06.11-.1.02.03.05.08.06.1.11.22.18.47.25.71.28,1.04.39,2.12.4,3.21,0,1.67.23,3.3.3,4.95.02.59.02,1.17,0,1.75-1.87,2.19-10.75,25.58-17.87,32.45-.5.32-2.07,1.36-6.56,3.21-8.43,3.48-16.79,6.13-26.09,6.37-2.43.06-4.72-.95-6.27-2.73-4.42-5.07-14.21-16.37-18.39-24.72,3.98,4.34,12.43,13.67,18.23,20.01.18.19,3.52-.67,3.82-.68"/>
    <path class="cls-5" d="M701.23,278.29c8.1,17.32,14.32,35.46,20.34,53.58,3.03,9.11,5.98,18.24,9.04,27.33.75,2.23,1.5,4.45,2.26,6.68.61,1.77,1.4,3.56,1.86,5.37.3,1.17.44,2.41.67,3.6,1.76,8.83,4.04,17.56,6.62,26.18.17.55,1.61.16,1.45-.39-2.42-8.06-4.56-16.22-6.28-24.47-.34-1.65-.63-3.32-.96-4.97-.18-.9-.55-1.76-.86-2.63-.74-2.13-1.47-4.26-2.19-6.39-6.22-18.35-11.96-36.86-18.6-55.06-3.6-9.88-7.46-19.68-11.92-29.21-.25-.54-1.68-.1-1.45.39h0Z"/>
    <path class="cls-43" d="M781.15,108.35c.34-3.67.84-7.43,2.13-10.91.32-.88.7-1.75,1.21-2.54.16-.26.34-.5.54-.73.07-.09.15-.17.23-.25.03-.04.24-.22.15-.15.07-.06.14-.11.21-.16.14-.11.03-.03.03-.03.08-.12.04-.02-.03,0l-.94.04c2.59,1.58,3.63,5.22,3.92,8.01.04.36,1.5.07,1.45-.39-.27-2.59-1.1-5.22-2.9-7.17-.66-.72-1.26-1.34-2.27-.83-1.78.9-2.67,3.35-3.25,5.09-1.1,3.3-1.58,6.8-1.9,10.25-.04.46,1.4.17,1.44-.22h0Z"/>
    <path class="cls-43" d="M782.96,109.25c1.29-.53,1.81,2.86,1.95,3.57.23,1.13.43,3.66,2.11,3.47.95-.11,1.3-.81,1.39-1.67.15-1.35-.02-2.76-.21-4.09-.28-1.92-.68-3.56-1.56-5.27-1.02-1.96-2.51-4.05-4.9-4.21-.54-.03-1.54.73-.57.79,1.86.12,3.18,2.22,3.96,3.68s1.16,2.71,1.44,4.26c.26,1.45.48,2.94.44,4.41-.01.44-.12.85-.16,1.28,0,.06-.07.13-.07.19l-.02.03c-.17.24.08.18.73-.17-.03-.06-.24-.2-.29-.26-.39-.52-.51-1.3-.64-1.92-.19-.86-.33-1.73-.58-2.57-.21-.7-.49-1.52-1.09-1.99-.72-.56-1.7-.4-2.49-.08-.21.09-.56.3-.39.56.16.25.77.08.96,0h0Z"/>
    <path class="cls-20" d="M948.02,376.44l-6.16,25.86c-1.54.88-3.35-4.5-5.07-4.15-3.75.01-5.85,2.43-9.16.5-3.41-1.89-8.14-1.43-11.29-3.78,0,0-9.41-2.03-11.91-2.69-2.49-.66-27.17,11.4-27.17,11.4-.54,5.28,9.57,5.45,9.57,5.45l-18.17,10.9c1.04,3.27,5.48,4.2,5.48,4.2l-2.52,2.96c-.14,2.1,3.25,4.35,5.43,4.13,2.18-.21,23.72-7.69,23.72-7.69l16.57-.28-8.85,1.98-21.66,11.37.79,2.04c3.94,6.88,26.28-3.44,26.28-3.44l6.6-.41s20.93,10.05,33.45,2.63c3.52-2.09,7.14-8.05,8.25-10.21l.54-1.2c3.71-11.96,4.05-28.09,2.85-44.13-5.87-1.72-11.71-3.59-17.56-5.46Z"/>
    <path class="cls-43" d="M918.33,411.55c-3.8-1.3-7.83-1.88-11.82-2.24-2.18-.19-4.43-.45-6.62-.39-1.89.05-3.6.71-5.24,1.61-7.1,3.92-14.11,8.08-20.66,12.86-1.12.82.62,1.12,1.28.64,5.92-4.32,12.2-8.09,18.59-11.68,2.01-1.13,3.76-2.27,6.15-2.22,1.9.04,3.82.21,5.71.38,3.84.34,7.7.94,11.36,2.18.67.23,2.39-.75,1.25-1.14h0Z"/>
    <path class="cls-43" d="M917.78,404.43c-1.16-.99-2.52-1.34-3.94-1.8-1.2-.39-2.35-.81-3.61-1.04-2.7-.49-5.51-.39-8.21.05-5.46.89-10.88,3.03-15.32,6.37-1.11.84.57,1.41,1.33.84,3.99-3.01,8.85-5,13.77-5.82,2.37-.39,4.81-.51,7.19-.13,1.2.19,2.3.58,3.44.97,1.35.46,2.63.74,3.74,1.69.63.54,2.46-.39,1.59-1.13h0Z"/>
    <path class="cls-36" d="M871.54,165.59c-3.04,11.77-31.78,24.13-36.49,35.17-3.5,8.21-2.16,31.25-5.59,39.49-1.41,3.38,45.71,5.87,44.26,9.23,27.79,15.98,57.32,38.17,57.32,38.17,0,0-2.42,74.69-1.44,93.38s47.7,17.93,47.7,17.93c0,0,14.33-69.82,13.44-123.9-.46-27.99-79.65-85.27-119.21-109.48Z"/>
    <polygon class="cls-12" points="931.59 397.69 966.02 406.37 968.08 399.5 933.48 387.98 931.59 397.69"/>
    <path class="cls-12" d="M946.74,409.52c-7.22.33-13.35-5.26-13.67-12.49-.33-7.21,5.24-13.32,12.45-13.67,7.22-.35,13.36,5.22,13.71,12.45.35,7.22-5.22,13.36-12.45,13.71-.01,0-.03,0-.04,0Z"/>
    <path class="cls-24" d="M936.64,396.87s0-.03,0-.04c-.22-5.36,3.94-9.88,9.3-10.1,5.36-.22,9.88,3.94,10.1,9.3.22,5.36-3.94,9.88-9.3,10.1-5.34.22-9.86-3.92-10.1-9.26Z"/>
    <path class="cls-12" d="M945.51,395.88h0l.64,1.45c-2.54-.26-4.99-1.1-7.17-2.44-.16-.43,3.23-.24,7.5.58l1.31.1-.66,1.19h0c-2.06,3.77-4.09,6.59-4.56,6.33-.47-.26.8-3.52,2.93-7.21Z"/>
    <path class="cls-5" d="M839.57,170.8c-3.98,3.13-6.44,8.56-7.58,13.34-1.34,5.66-1.01,11.6.28,17.23,1.27,5.51,3.34,10.72,6.44,15.45,5.85,8.91,13.95,16.32,22.13,23.04,8.07,6.63,16.61,12.68,25.37,18.35,3.1,2.01,6.24,3.97,9.41,5.87,1.54.92,3.07,1.98,4.69,2.75.08.04.15.08.22.12.45.25,1.77-.39,1.14-.74-3.81-2.14-7.54-4.44-11.23-6.78-8.41-5.32-16.62-10.97-24.45-17.12-8.41-6.6-16.65-13.78-23.21-22.27-6.92-8.96-11.19-20.54-10.04-31.97.64-6.37,3.17-12.33,7.76-16.82.07-.07.15-.13.23-.19.28-.22.09-.45-.15-.56-.32-.14-.78.08-1.02.27h0Z"/>
    <path class="cls-5" d="M931.47,287.15c5.85-4.44,12.54-7.6,19.68-9.29.9-.21.64-1.15-.25-.94-7.38,1.75-14.34,5.03-20.38,9.61-.78.59.4,1.04.95.62h0Z"/>
    <path class="cls-5" d="M929.34,368.82c.02-.14.03-.33.1-.45l-.45.34h0c-.31.01-.63.02-.94.04-.03-.04-.04.55-.05.69-.03.63-.08,1.26-.12,1.89-.14,2.01-.28,4.03-.4,6.04-.17,2.75-.32,5.5-.43,8.26-.02.49-.17,1.18.15,1.62s1.06.52,1.55.66c1.45.41,2.9.82,4.36,1.23.31.09.75.02,1.02-.16.13-.08.5-.36.15-.46-1.39-.39-2.78-.79-4.17-1.18-.69-.19-1.46-.24-1.64-1.04-.14-.64.05-1.54.08-2.21.12-2.68.27-5.36.44-8.04.12-1.93.26-3.85.39-5.77.03-.43.33-1.66.03-2.04-.16-.21-.77-.03-.94.04-.44.19-.49.37-.56.79s1.36.19,1.44-.22h0Z"/>
    <path class="cls-5" d="M697.75,340.27c9.17.73,15.52,8.9,20.11,16.05.28.43,1.68-.05,1.34-.58-4.82-7.49-11.35-15.57-20.91-16.34-.59-.05-1.53.79-.55.87h0Z"/>
    <rect class="cls-37" x="561.71" y="987.42" width="35.8" height="24.52"/>
    <polygon class="cls-9" points="597.52 1011.95 606.68 1007.29 606.68 982.77 597.52 987.42 597.52 1011.95"/>
    <polygon class="cls-31" points="561.71 987.42 570.87 982.77 606.68 982.77 597.52 987.42 561.71 987.42"/>
    <rect class="cls-15" x="533.59" y="949.56" width="35.8" height="24.52"/>
    <polygon class="cls-28" points="569.4 974.08 578.56 969.42 578.56 944.9 569.4 949.56 569.4 974.08"/>
    <polygon class="cls-44" points="533.59 949.56 542.75 944.9 578.56 944.9 569.4 949.56 533.59 949.56"/>
    <rect class="cls-34" x="572.8" y="949.5" width="35.86" height="24.12"/>
    <polygon class="cls-4" points="572.8 949.5 581.98 944.92 617.84 944.92 608.66 949.5 572.8 949.5"/>
    <rect class="cls-34" x="488.12" y="993.22" width="35.86" height="24.12"/>
    <polygon class="cls-19" points="523.98 1017.34 533.15 1012.76 533.15 988.65 523.98 993.22 523.98 1017.34"/>
    <polygon class="cls-19" points="608.66 973.85 617.84 969.28 617.84 945.16 608.66 949.74 608.66 973.85"/>
    <polygon class="cls-4" points="488.12 993.22 497.29 988.65 533.15 988.65 523.98 993.22 488.12 993.22"/>
    <rect class="cls-7" x="552.67" y="924.98" width="35.8" height="24.52"/>
    <polygon class="cls-23" points="588.47 949.5 597.63 944.84 597.63 920.32 588.47 924.98 588.47 949.5"/>
    <path class="cls-20" d="M250.25,507.7c-1.36-.08-2.03-.15-3.39-.29-5.57-.58-11.29-1.23-16.78-2.37-8.46-1.76-15.2-6.85-22.14-11.63.07,5.31-.48,11.83-2.5,15.5l.16,1.55c11.77,18.58,18.7,29.33,58.24,17.9l-12.89-20.15-.7-.51Z"/>
    <path class="cls-20" d="M264.08,455.51c-.33-2.42-.73-5.23-1.23-8.62-.15-.98-.31-1.92-.48-2.85-.13-.47-.22-.95-.28-1.43-3.3-16.35-10.17-24.04-10.17-24.04-8.76-9.73-22.02-14.06-34.81-11.36-15.11,2.86-27.25,14.37-32.83,24.85-2.77,5.19-3.54,11.22-2.15,16.94,1.18,4.89,4.95,8.96,7.19,14.11-5.34.65-10.22,3.42-6.65,12.86,4.92,13.02,14.31,15.74,17.77,11.36.97,0,3.9,5.65,4.59,8.43.05.21,2.48,15.03,2.53,15.26,7.8,3.67,22.13,2.54,30.92,3.11,5.51.36,5.84-.49,11.35-.79,1.33-.07.63-4.27,1.97-4.4l-.96-5.9c.38-.09.72-.12,2.34-.95,11.68-5.21,14.44-22.23,14.1-28.48-.29-5.3-2-15.06-3.2-18.09Z"/>
    <path class="cls-13" d="M250.84,503.04s-14.25,3.59-28.68-2.79c0,0,2.3,4.08,12.1,5.8,9.8,1.72,16.98-.66,16.98-.66l-.4-2.34Z"/>
    <ellipse cx="258.13" cy="451.94" rx="3.28" ry="3.27" transform="translate(-211.38 676.51) rotate(-85.83)"/>
    <path d="M261.49,448.6c-1.7-.72-3.93-1.01-7-.21-4.93,1.27-6.15,7.92-6.15,7.92,0,0,1.87-5.23,6.7-6.61,2.33-.66,6.46.08,8.43.7-.13-.47-.94-1.31-1.97-1.8Z"/>
    <path class="cls-43" d="M188.55,476.72c-.81-1.49-1.55-3.69-.8-5.37l-.66.34c.07-.02-.27.06-.16.04-.48.1.17-.02-.22.02.05,0,.11,0,.15,0-.16-.03.03,0,.08.02.47.09.91.29,1.33.52,2.26,1.25,4.08,3.33,5.7,5.28l1.41-.44c-.66-.33-1.4-.45-2.12-.3-.53.11-1.18.33-1.43.85-.15.3-.17.69-.15,1.02.04.81.44,1.57,1.06,2.08.92.77,2.19.86,3.34.79.27-.02.8-.11.97-.34s-.16-.22-.34-.21c-1.54.1-3.11-.57-3.5-2.18-.06-.26-.09-.52-.08-.79,0-.13.02-.25.05-.38.03-.13.17-.31.18-.43.12-.1.07-.1-.16,0-.23.05-.3.07-.21.06,0,.01.15,0,.18.02.15.03.29.06.44.11s.28.1.41.17c.22.11,1.56-.25,1.41-.44-1.22-1.47-2.52-2.91-4-4.13-.76-.63-1.6-1.24-2.52-1.6-.46-.18-.93-.3-1.43-.26-.17.01-.34.04-.5.08-.51.14-.67.27-.78.72-.46,1.74.08,3.58.91,5.12.18.34,1.55-.19,1.45-.39h0Z"/>
    <ellipse cx="223.57" cy="458.3" rx="3.28" ry="3.27" transform="translate(-249.77 647.94) rotate(-85.83)"/>
    <path d="M232.98,458.91s-5.95-5.74-11.37-4.38c-7.64,1.91-8.46,5.35-9.54,8.08,0,0,3.98-5.46,9.92-6.8,5.39-1.21,10.99,3.1,10.99,3.1Z"/>
    <path d="M229.63,444.68c-.01-.12-.45-.04-.46-.16-7.02-.08-12.16.87-13.96,1.59-1.37.54-2.64,1.35-3.8,2.33,0,0-3.21,2.64-3.5,3.49-.28.84,2.12-.84,2.12-.84.53-.28.88-.55,1.44-.76,3.08-1.14,5.93-2.65,9.21-2.93,2.8-.25,6.81.47,9.64.88-.17-1.25-.63-2.34-.69-3.59Z"/>
    <path d="M262.15,440.57c.04-.15.08-.29.11-.44.01-.06.02-.12.03-.19,0-.11,0-.24,0-.26,0-.13,0-.26,0-.38,0-.05,0-.11-.01-.16,0-.02,0-.02,0-.03-.01-.05-.02-.11-.04-.17-.06-.09-.12-.19-.18-.28-1-.41-2.01-.69-3.03-.77-1.65-.14-6.03.5-11.62,2.69.02.11-.35.17-.32.29.31,1.21.27,2.38.5,3.62,2.14-1.24,5.13-3.13,7.44-3.73,2.34-.63,4.7-.28,7.1-.07,0-.04.02-.08.03-.11Z"/>
    <g>
      <path d="M197.84,474.39c-.04-.08-.31-.36-.35-.44-1.06-1.79-3.37-5-5.18-6.11-.83-.51-1.81-1.06-2.79-1.31-.98-.25-2.04-.55-3.07-.51-1.47-.1-2.86.17-4.18.81-.22.14-.44.29-.65.43-5.67-11.03-11.34-22.06-5.34-37.88,1.73-4.56,7.41-10.25,9.13-12.07,10.46-10.87,21.09-13.41,34.54-14.44,15.59-1.2,29.5,4.64,35.76,19.49,1.51,3.58,1.07,2.91,2.02,6.13,0,0-2.33-8.39-10.5-11.49-8.17-3.1-8.35,3.62-18.77,5.71-12.07,2.37-17.22-3.51-26.04,3.28-8.05,6.21-9.3,14.42-9.3,14.42-.41,5.51-2.21,9.46.34,15.25.62,1.38,1.16,2.78,1.68,4.2.55,2.65,2.62,3.83,2.61,6.56,0,1.34,2.15,6.4,1.17,7.38-1.06,1.06.29.81-1.08.59Z"/>
      <path d="M198.09,474.33c-1.74-2.5-3.38-5.33-6.1-6.89-3.15-1.81-7.45-2.23-10.57-.16l.45-.07c-2.19-4.26-4.39-8.54-5.91-13.09s-2.3-9.62-1.86-14.56c.26-2.93.92-5.81,1.85-8.6.78-2.31,1.86-4.35,3.3-6.31,2.51-3.45,5.52-6.67,8.65-9.57,3.63-3.36,7.77-6.14,12.34-8.06,4.38-1.84,9.06-2.85,13.76-3.46,4.81-.62,9.69-1.01,14.53-.48,4.32.47,8.59,1.6,12.48,3.57,3.83,1.94,7.23,4.68,9.9,8.04,1.43,1.8,2.65,3.76,3.67,5.82.87,1.76,1.7,3.61,2.21,5.52.22.85.44,1.69.69,2.53.03.11.54-.03.51-.14-.57-2.03-1.69-3.98-2.93-5.66-2.44-3.28-6.14-5.99-10.26-6.58-1.41-.2-2.81-.03-4.12.51-1.38.58-2.59,1.49-3.82,2.31-1.71,1.15-3.5,2.15-5.46,2.83-2.68.93-5.57,1.32-8.4,1.36-4.02.07-8.01-.93-12.03-.69-4.37.26-8.11,2.57-11.17,5.58-2.88,2.83-5.12,6.35-6.37,10.19-.23.7-.45,1.43-.56,2.17-.16,1.07-.22,2.16-.38,3.23-.19,1.31-.41,2.62-.53,3.94-.26,2.81.13,5.51,1.25,8.11.62,1.42,1.31,2.88,1.72,4.38.31,1.12.88,2.07,1.47,3.06s1.05,1.97,1.09,3.12c.03.72.21,1.4.41,2.09.26.92.54,1.83.76,2.77.16.7.42,1.61.2,2.33-.07.23-.89.98-.6,1.18.07.05.54-.05.5-.15-.06-.16-.62-.2-.71-.22-.12-.02-.55.17-.42.19.08.01.58.06.62.16l.5-.15c-.19-.14.42-.74.43-.74.15-.2.22-.39.25-.63.09-.74-.11-1.53-.28-2.25-.37-1.55-1.07-3.11-1.13-4.72-.09-2.3-1.94-3.86-2.52-6-.78-2.88-2.45-5.43-2.93-8.41-.4-2.51-.04-5.02.33-7.51.2-1.3.3-2.6.48-3.9.02-.16.06-.33.1-.49.66-2.96,2.04-5.79,3.78-8.26,1.5-2.14,3.33-4.04,5.4-5.63,1.81-1.4,3.86-2.53,6.12-3,3.75-.77,7.63.19,11.39.39,4.59.24,9.38-.31,13.57-2.29,1.58-.75,3.03-1.72,4.47-2.7,1.19-.81,2.44-1.66,3.87-1.95,1.88-.38,3.87.21,5.59.95,1.98.85,3.76,2.11,5.26,3.65,1.95,2,3.5,4.48,4.41,7.13.05.14.1.28.14.42l.51-.14c-.49-1.67-.87-3.33-1.53-4.95-.93-2.29-1.99-4.5-3.34-6.57-2.41-3.7-5.61-6.85-9.37-9.17-3.69-2.27-7.84-3.73-12.1-4.47-4.67-.82-9.37-.72-14.08-.27s-9.44,1.18-13.97,2.62c-4.47,1.42-8.68,3.57-12.43,6.39-3.59,2.69-6.76,5.96-9.7,9.34-1.55,1.79-3.05,3.65-4.26,5.69-1.41,2.38-2.22,5.11-2.84,7.79-1.19,5.16-1.2,10.48,0,15.63,1.11,4.77,3.14,9.26,5.33,13.62.55,1.09,1.1,2.17,1.66,3.25.05.11.38-.02.45-.07,3.15-2.09,7.81-1.24,10.72.97,2.14,1.62,3.55,4.05,5.05,6.21.08.12.55-.09.51-.14Z"/>
    </g>
    <g>
      <path class="cls-8" d="M246.81,474.23c-.97.78-2.65.98-3.87.52-.27-.1-1.05.2-.67.35,1.62.61,4,.22,5.25-.8.12-.1.08-.2-.11-.23-.19-.02-.48.04-.61.15"/>
      <path class="cls-8" d="M241.74,474.88c-.8-.2-1.65-.22-2.47-.12-.12.02-.27.09-.34.19-.06.08-.05.16.05.19.42.14.91.14,1.35.04.14-.03.31-.1.37-.24.05-.12-.1-.17-.2-.15-.36.08-.75.08-1.09-.04-.1.13-.2.25-.29.38.74-.09,1.5-.06,2.21.11.14.04.32-.04.42-.13.08-.07.15-.21,0-.24"/>
      <path class="cls-8" d="M238.53,475.62c-.96.17-2.16-.03-2.77-.65-.92-.94-.62-2.9.43-3.83.11-.1.03-.19-.11-.19-.18,0-.37.1-.49.21-.92.81-1.29,2.46-.94,3.45.33.92,1.38,1.41,2.57,1.45.36.01.73,0,1.08-.06.14-.03.4-.12.44-.25.05-.13-.09-.15-.23-.13"/>
      <path class="cls-8" d="M248.46,473.39c-.07-.1,0-.19.08-.2.26-.04.51-.17.69-.39.1.09.21.17.31.26-.5.16-.99.43-1.39.83-.08.08-.22.07-.31.01-.07-.04-.16-.15-.08-.23"/>
      <path class="cls-8" d="M247.77,473.68c.45-.45.99-.75,1.55-.92.08-.03.2,0,.28.06.06.05.09.13.03.2"/>
      <path class="cls-8" d="M250.47,473.13c.61-.15,1.26-.71,1.42-1.49.25-1.18-.44-2.38-1.35-2.92-.1-.06-.07-.17,0-.21.1-.06.25-.02.35.04.79.47,1.42,1.37,1.52,2.4.09.97-.37,1.75-1.06,2.18-.2.13-.43.23-.66.28-.09.02-.27.01-.34-.09-.07-.11,0-.17.09-.19"/>
    </g>
    <path class="cls-20" d="M283.76,706.64c.02.23-.02.47-.13.68-.9,1.79-5.43,9.23-5.9,16.52-.43,6.55-1.06,16.07-1.27,19.37-.05.78.62,1.44,1.42,1.37,1.11-.1,2.6-.77,3.59-3.34.94-2.82,1.62-5.71,2.04-8.65.15-1.03,1.41-1.48,2.2-.78h0c.32.28.48.69.43,1.1l-1.06,9.15c-.06.5-.4.91-.89,1.07-1.79.59-6.09,2.26-7.43,5.05-.4.84.26,1.8,1.21,1.81l6.06.05c.08,0,.16,0,.24-.02l6.03-1.04c.24-.04.46-.14.64-.3l5.63-4.83c.18-.15.31-.35.38-.56l5.35-15.91c.49-1.45.6-2.99.3-4.49-.86-4.29-1.48-8.62-1.87-12.97-.55-8.51-.81-13.99-.92-16.52-.04-.84-.87-1.42-1.69-1.19l-14.22,3.98c-.61.17-1,.73-.95,1.34l.81,9.11Z"/>
    <path class="cls-21" d="M190.79,922.86s-4.58,3.4,7.3,4.6c6.62.66,21.64,1.26,28.28,1.25,6.56,0,6.69.42,13.12-1.11,2.04-.49.95-.77,2.97-1.33l4.85-89.75,2.18-99.94,14.15-50.84-94.32-2.43-2.18,7.05c-1.83,14.14-1.74,28.49.27,42.6l16.23,63.28s7.32,119.6,7.17,126.64Z"/>
    <path class="cls-21" d="M258.86,922c8.63-.66,13.43,1.44,19.68-3.96l13.83-221.35-47.79-13.39-14.87,234.62c9.58.09,19.56,4.81,29.15,4.08Z"/>
    <path d="M243.02,917.2c.11-1.67.22-3.34.34-5.02.3-4.49.6-8.99.9-13.48.44-6.62.89-13.24,1.33-19.86.53-7.94,1.07-15.89,1.6-23.83.57-8.57,1.15-17.13,1.72-25.7.57-8.49,1.14-16.98,1.71-25.47.51-7.63,1.02-15.27,1.54-22.9.4-6.01.81-12.02,1.21-18.03.25-3.69.5-7.38.74-11.07.05-.75.11-1.5.15-2.25.24-4.88.91-9.5,3.03-13.97.76-1.61,1.67-3.16,2.71-4.61s2.56-3.68,4.46-3.92c.59-.07.87-.83.12-.74-2.93.36-5.01,3.55-6.47,5.81-1.95,3.02-3.32,6.4-4.12,9.9-.61,2.67-.69,5.34-.87,8.05-.19,2.76-.37,5.53-.56,8.29-.36,5.4-.73,10.81-1.09,16.21-.49,7.24-.97,14.48-1.46,21.72-.56,8.38-1.13,16.77-1.69,25.15-.59,8.73-1.17,17.46-1.76,26.19-.56,8.31-1.12,16.63-1.67,24.94-.48,7.13-.96,14.27-1.44,21.4-.35,5.19-.7,10.37-1.04,15.56-.16,2.45-.48,4.95-.5,7.41,0,.11-.01.22-.02.33-.04.53,1.08.35,1.11-.1h0Z"/>
    <path class="cls-3" d="M254.06,511.27c5.77.24,21.32,9.88,25.01,11.99,26.05,14.94,22.19,63.94,27.73,79.73-4.81,6.99-14.44,5.99-14.44,5.99,0,0-1,13.64-.58,27.53.42,12.61-.79,32.75,2.25,59.73-12.53,5.39-12.79,8.64-25.68,9.71-11.26.93-16.63,0-40.74-.01-12.55,0-30.35-2.62-42.74-4.82-8.53-1.52-10.53-8.54-18.7-11.3,6.69-33.37,12.36-75.01,12.59-75.86.55-2.02.08-9.44,3.15-25.07,0,0-22.24-4.3-27.81-7.78,0,0-4.57-46.56,26.62-61.75,12.76-6.21,14.6-8.05,25.62-11.23,0,0,14.19,22.47,36.65,20.24,22.46-2.23,11.08-17.1,11.08-17.1Z"/>
    <path class="cls-29" d="M142.06,575.57c.03.07.07.14.13.2.13-.14.27-.29.4-.43-.18.08-.35.15-.53.23Z"/>
    <path class="cls-20" d="M187.52,581.61l.37-10.22c2.05-11.61,8.02-42.39,2.89-47.42,0,0-17.73,7.71-25.43,14.3-7.68,6.57-10.27,15.09-13.08,39.89l-2.6,21.35c-2.37,18.95-2.48,46.16-2.49,50.12-.07,17.49,14.85,73.51,14.85,73.51l14.21-5.49s4.77-50.91,2.02-68.68l9.26-67.36Z"/>
    <g>
      <path class="cls-3" d="M292.88,558.98c-.51,6.44-.51,21.98-.51,21.98,0,0,1.48,17.88.58,28.02,0,0,8.92.7,13.86-5.99l-1.25-4.35s-4.12,3.96-11.28,4.51"/>
      <path class="cls-17" d="M292.15,559.07c-.53,6.94-.49,13.94-.51,20.9-.01,4.72.57,9.47.74,14.19.17,4.96.27,9.96-.16,14.92-.02.26.24.31.44.33,3.24.24,6.77-.58,9.64-2.05,1.14-.58,2.2-1.29,3.16-2.14.61-.53,1.99-1.64,2.04-2.47.04-.68-.49-1.69-.68-2.34s-.37-1.29-.56-1.94c-.14-.47-1.08-.14-1.31.07-2.77,2.63-6.9,3.91-10.6,4.23-.72.06-1.2.9-.19.82,4.17-.36,8.85-1.84,11.96-4.8l-1.31.07c.37,1.28.74,2.56,1.11,3.83.07.25.11.37.06.55-.14.47-1.05,1.16-1.43,1.51-.95.88-2.02,1.61-3.18,2.19-2.45,1.2-5.41,1.85-8.15,1.65l.44.33c.7-8.13.21-16.41-.32-24.54-.28-4.26-.25-8.33-.19-12.82.06-4.22.11-8.45.43-12.65.05-.59-1.41-.32-1.45.18h0Z"/>
    </g>
    <path class="cls-3" d="M196.14,513.72s-36.06,8.96-43.48,30.72c-10.67,31.29-10.6,67.14-10.6,67.14,0,0,33.27,7.3,48.37.99,14.21-5.95,6.69-91.78,6.69-91.78"/>
    <g>
      <path class="cls-3" d="M177.56,543.91s9.98,2.81,12.09,17.8c1.56,11.04.02,33.65-.89,44.8-.33,3.99-.58,6.51-.58,6.51l-5.91,2.05s-25.74,2.93-40.21-4.08l.19-5.69s11.1,3.41,26.17,3.44c15.07.03,18.39-1.63,18.39-1.63"/>
      <path class="cls-17" d="M177.12,544.32c1.67.48,3.58,1.83,4.95,3.09,3.8,3.51,5.85,8.46,6.7,13.48.94,5.51.88,11.23.8,16.81-.09,6.31-.4,12.62-.81,18.91-.36,5.5-.77,11-1.31,16.49l.62-.47c-1.29.45-2.58.89-3.88,1.34-.58.2-1.18.38-1.76.61-.48.19.13.02-.27.08-2.23.31-4.53.38-6.77.47-9.3.38-19.03.1-27.99-2.65-1.25-.38-2.48-.83-3.68-1.35-.3-.13-.92-.31-.94-.34-.1-.17.02-.72.03-.91l.15-4.66-1.17.49c5.49,1.68,11.33,2.5,17.02,3.02,5.39.49,10.81.54,16.22.32,3.04-.12,6.1-.31,9.1-.85.96-.17,2.06-.33,2.95-.77.9-.44.08-.97-.58-.64-.27.13-.13.06-.32.12-.51.16-1.04.28-1.57.38-2.67.53-5.42.71-8.13.85-9.45.47-18.94-.01-28.22-1.9-1.88-.38-3.76-.79-5.59-1.35-.29-.09-1.15.08-1.17.49-.06,1.9-.13,3.79-.19,5.69,0,.12.03.22.15.28,7.6,3.63,16.43,4.49,24.74,4.71,3.57.1,7.15.03,10.72-.17,1.69-.09,3.45-.11,5.12-.39,2.09-.36,4.21-1.4,6.22-2.09.2-.07.6-.21.62-.47,1.11-11.33,1.88-22.74,2.1-34.13.11-5.62.16-11.33-.58-16.92-.7-5.25-2.57-10.53-6.33-14.39-1.65-1.69-3.78-3.33-6.1-4-.49-.14-1.7.58-.88.82h0Z"/>
    </g>
    <g>
      <path class="cls-3" d="M190.32,512.95s10.1-9.35,15.61-12.29c0,0,13.97,27.92,32.43,27.83,0,0-11.83,7.82-12.97,17.37,0,0-36.56-18.31-35.07-32.09"/>
      <path class="cls-17" d="M190.97,512.9c1.83-1.69,3.72-3.34,5.62-4.94,3.11-2.62,6.3-5.33,9.89-7.27l-1.28.18c1.71,3.41,3.82,6.65,6.04,9.74,4.14,5.75,9.1,11.31,15.29,14.9,3.46,2.01,7.33,3.27,11.35,3.28l-.08-.3c-2.27,1.5-4.36,3.34-6.26,5.28-3.31,3.39-6.25,7.5-6.89,12.3l1.41-.44c-4.21-2.11-8.29-4.5-12.27-7.01-6.84-4.31-13.96-9.15-19.03-15.55-2.11-2.66-4.07-5.96-3.73-9.49.02-.17-1.41-.04-1.45.39-.3,3.11,1.21,6.05,2.99,8.51,2.3,3.19,5.24,5.91,8.26,8.39,5.99,4.92,12.61,9.08,19.37,12.84,1.48.83,2.98,1.64,4.5,2.41.29.15,1.36-.04,1.41-.44.63-4.77,3.64-8.9,6.95-12.23,1.79-1.8,3.74-3.52,5.86-4.93.21-.14.22-.3-.08-.3-7.37-.02-13.83-4.43-18.9-9.43-4.45-4.39-8.19-9.51-11.37-14.87-.67-1.12-1.32-2.26-1.91-3.43-.16-.33-1.07.07-1.28.18-3.57,1.93-6.77,4.62-9.86,7.22-1.99,1.67-3.95,3.38-5.86,5.14-.29.27,1.05.12,1.31-.12h0Z"/>
    </g>
    <g>
      <polyline class="cls-3" points="241.53 528.49 245.89 528.14 246.74 561.09 239.69 560.96"/>
      <path class="cls-17" d="M241.46,529.01c1.45-.12,2.91-.24,4.36-.36l-.67-.46c.25,9.6.5,19.2.74,28.8.04,1.39.07,2.77.11,4.16l.99-.58c-2.35-.04-4.7-.09-7.05-.13-.69-.01-1.48,1.02-.51,1.04,2.35.04,4.7.09,7.05.13.3,0,1-.13.99-.58-.25-9.6-.5-19.2-.74-28.8-.04-1.39-.07-2.77-.11-4.16,0-.36-.34-.49-.67-.46-1.45.12-2.91.24-4.36.36-.81.07-1.12,1.12-.13,1.04h0Z"/>
    </g>
    <ellipse class="cls-18" cx="239.18" cy="539.38" rx="2.34" ry="1.84"/>
    <ellipse class="cls-18" cx="239.18" cy="549.06" rx="2.34" ry="1.84"/>
    <g>
      <path class="cls-3" d="M252.01,509.18s2.74,14.61-10.18,19.32c0,0,10.43,4.51,14.12,12.78,0,0,8.78-6.18,9.86-25.57,0,0-5.42-4.23-10.25-6.01-4.83-1.79-3.56-.52-3.56-.52Z"/>
      <path class="cls-17" d="M251.29,509.37c.45,2.43.31,5.05-.18,7.46-1.08,5.33-4.46,9.41-9.57,11.33-.22.08-.7.52-.27.71,5.67,2.47,11.36,6.92,13.97,12.61.19.41.89.26,1.18.06,3.22-2.29,5.36-6.39,6.8-9.93,1.9-4.65,2.86-9.64,3.24-14.63.05-.67.27-1.27-.21-1.74-.47-.46-1.12-.83-1.66-1.2-2.02-1.41-4.13-2.73-6.36-3.8-1.32-.64-2.71-1.17-4.11-1.59-.63-.19-1.35-.42-2.02-.31-.56.09-1.32.58-.76,1.15.38.39,1.76-.16,1.34-.59-.07-.07-.07-.14-.09-.15l-.59.46h.01s.25.03.29.04c.42.2,1,.26,1.43.4,2.32.75,4.48,1.83,6.56,3.08,1.52.91,2.99,1.9,4.41,2.96.53.39.46.24.35.8-.26,1.3-.22,2.71-.4,4.03-.86,6.46-2.81,13.26-7.03,18.38-.48.59-1,1.15-1.56,1.66-.27.25-.44.4-.56.48l1.18.06c-2.68-5.84-8.45-10.43-14.27-12.96l-.27.71c5.24-1.96,8.99-6.06,10.29-11.52.63-2.66.82-5.63.32-8.33-.1-.55-1.56-.19-1.45.39Z"/>
    </g>
    <path class="cls-24" d="M738.14,145.55s-6.22,1.46-11.06,3.01c-4.84,1.55-10.74,3.98-10.74,3.98,0,0-1.93-3.35,6.84-6.16,8.77-2.81,14.96-.82,14.96-.82Z"/>
    <path class="cls-11" d="M725.18,145c6.39-2.28,16.47-6.78,16.47-6.78,0,0,3.36,15.81-11.47,21.1-14.82,5.28-20.65-9.35-20.65-9.35,0,0,9.26-2.68,15.65-4.96Z"/>
    <path class="cls-35" d="M725.15,145.01c3.01-1.07,14.94-5.95,14.94-5.95,0,0-1.25,9.99-12.14,13.87-11.8,4.2-16.7-3.91-16.7-3.91l13.89-4.01Z"/>
    <path class="cls-14" d="M725.19,145.55c3.01-1.07,11.97-4.89,11.97-4.89,0,0-2.02,4.77-11.04,7.99-9.03,3.22-13.14.74-13.14.74l12.21-3.84Z"/>
    <path class="cls-11" d="M707.74,149.16c.29-.2,2.25-.18,3.69-.85,2.39-1.12,3.68-2.38,5.42-3.17,2.97-1.35,5.39-.71,6.72-1.19,1.33-.47,2.8-2.49,5.96-3.33,1.85-.49,6.54-1.35,9.1-2,1.53-.39,3.05-1.64,3.4-1.67.48-.04.9,3.83-15.83,9.79-16.73,5.96-18.85,2.7-18.45,2.42Z"/>
    <path d="M743.8,135.29c1.14.29,2.4.66,3.02,1.67.22.37.34.79.45,1.2.17.64.35,1.28.52,1.92.03.13.07.26.03.39-.04.14-.15.24-.26.34-.34.3-.71.62-1.15.75s-.99.01-1.22-.38c-.1-.16-.14-.37-.28-.49-.29-.23-.69.02-1.05.1-.9.2-1.59-.73-2.32-1.3-.99-.76-2.34-.9-3.58-.71-.63.09-1.25.26-1.88.22s-1.3-.33-1.57-.9"/>
    <path d="M724.06,139.26l1.56,2.69c.24.41.71.63,1.18.53,3.22-.64,15.43-3.12,18.2-4.13.07-.02.16,1.24.22,1.2l.64-.27c.97-.57-1-3.79-2.12-3.83-3.41-.12-6.39,0-8.19.18-2.25.24-8.4,1.09-10.9,2-.66.24-.93,1.01-.58,1.62Z"/>
    <g>
      <path d="M717.5,140.79c-1.14-.03-1.44,1.69-2.46,2.21-.4.21-.94.23-1.19.61-.17.26-.15.61-.3.88-.35.61-1.26.42-1.97.4-.22,0-.46.02-.64.15-.53.37-.24,1.23-.55,1.8-.26.46-.84.6-1.34.76s-1.06.5-1.06,1.02c0,.3.18.61.05.87-.19.39-.97.5-.79.9"/>
      <path d="M717.74,140.65c-.51,0-1.03.18-1.41.53-.35.33-.59.76-.87,1.14-.14.19-.29.38-.48.53-.21.17-.47.23-.73.32s-.51.2-.69.4c-.24.26-.21.61-.35.92-.12.25-.22.3-.45.31-.3,0-.59-.03-.89-.04-.55-.02-1.33.11-1.56.68-.21.51-.02,1.13-.38,1.58-.19.23-.47.33-.74.42-.31.1-.61.19-.89.35-.26.15-.53.35-.64.64-.13.35.1.66.04,1.01-.08.44-1.02.54-.84,1.05.06.15.78-.07.74-.2-.07-.2.09-.3.24-.4.18-.12.39-.23.51-.41.17-.25.05-.53.01-.8-.04-.3.06-.55.29-.75.43-.36,1.07-.39,1.55-.67s.66-.68.71-1.23c.02-.25.03-.5.12-.74.03-.07.09-.22.17-.26.11-.05.33,0,.45,0,.55.03,1.08.05,1.6-.15.21-.08.42-.2.57-.38.2-.25.18-.57.3-.85.11-.26.31-.35.57-.44s.52-.18.76-.33c.43-.28.72-.71,1-1.12.14-.21.29-.42.46-.6.07-.08.15-.15.23-.21.03-.02.06-.04.09-.06,0,0-.12.01,0,.01.17,0,.38-.05.52-.14.11-.07.11-.14-.04-.14h0Z"/>
    </g>
    <path d="M720.28,141.19l1.09,2.61c.11.47-.07.94-.44,1.18-2.56,1.68-9.39,6.52-11.89,7.63-.06.03-.12.04-.18.06l-.87.2c-1.01.23-1.44-2.08-.72-2.87,2.19-2.38,2.07-3.12,3.39-4.19,1.65-1.33,5.92-4.42,8.17-5.43.59-.27,1.28.12,1.44.8Z"/>
    <path d="M707.72,150.05c-.59,1.02-1.21,2.18-.91,3.33.11.42.33.79.54,1.16.34.57.67,1.14,1.01,1.71.07.11.14.23.25.3.13.07.28.06.42.05.46-.03.94-.07,1.34-.3s.7-.7.58-1.14c-.05-.18-.17-.35-.15-.54.04-.37.5-.48.81-.68.77-.5.59-1.65.69-2.57.15-1.24,1-2.3,1.99-3.06.5-.38,1.06-.71,1.47-1.19s.67-1.16.45-1.75"/>
    <path class="cls-11" d="M245.82,479.6c-4.64.92-12.28,1.85-12.28,1.85,0,0,2.84,11.33,15.68,8.57,10.73-2.3,6.92-12.89,6.92-12.89,0,0-5.68,1.55-10.32,2.46Z"/>
    <path class="cls-35" d="M245.87,479.6c-2.21.44-10.45,1.97-10.45,1.97,0,0,3.04,5.3,11.07,3.96,10.47-1.76,8.12-7.17,8.12-7.17l-8.75,1.25Z"/>
    <path class="cls-14" d="M246.7,480.54c-2.3.45-9.38,1.46-9.38,1.46,0,0,3.13,1.35,10.03,0,6.91-1.36,6.99-3.23,6.99-3.23l-7.65,1.77Z"/>
    <path class="cls-11" d="M256.71,476.81c-.05-.25-.56-.26-1.71-.13-1.91.21-1.94-.23-3.32-.06-2.36.28-3.66,1.47-4.67,1.67s-2.66-.41-4.96.23c-1.34.37-4.62,1.52-6.47,2.05-1.11.32-2.52.15-2.75.25-.32.15,1.08,3.12,13.79.62,12.71-2.51,10.14-4.29,10.08-4.63Z"/>
  </g>
  <g id="Layer_3" data-name="Layer 3">
    <path class="cls-20" d="M189.8,738.35c-3.76,2.88-8.26-7.28-8.75-6.85-1.46.64-2.49,2.2-2.48,4.03-.18,4.73-.41,10.14-.56,10.92-.15.78,2.85,6.24,5.14,10.27,1.38,2.39-1.07,5.59-3.44,4.2-.22-.12-.4-.31-.53-.55,0,0-.91,4.79-5.86-.82,0,0-5.63-.35-7.43-4.37,0,0-6.28-3.07-8.08-5.84-1.8-2.76-1.56-25.8-1.56-25.8l2.67-12.11-2.45-12.4,19.83-1.99,1.01,12.97s5.98,4.22,9.69,14.04c0,0,5.01,12.6,2.81,14.3Z"/>
    <path class="cls-43" d="M171.13,736.75c-.85,2.29-1.2,4.86-1.27,7.3s.12,4.86,1,7.05c1.51,3.75,4.36,7.31,7.83,9.42.38.23,1.72-.33,1.16-.67-1.75-1.07-3.3-2.64-4.61-4.21s-2.34-3.37-3.07-5.28c-.81-2.13-.96-4.68-.85-6.94s.45-4.71,1.25-6.86c.16-.44-1.27-.27-1.45.2h0Z"/>
    <path class="cls-43" d="M166.13,737.73c-1.22,2.25-1.3,5-1.34,7.51-.04,2.71.6,5.03,2.03,7.33.78,1.26,1.72,2.43,2.61,3.62.99,1.32,1.89,2.67,3.13,3.77.44.39,1.81-.19,1.33-.61-1.97-1.75-3.58-4.24-5.09-6.41-1.64-2.34-2.58-4.75-2.56-7.63.02-2.46.05-5.26,1.25-7.47.37-.67-1.1-.62-1.37-.11h0Z"/>
    <path class="cls-43" d="M161.06,739.3c-1.19.2-1.11,1.16-1.16,2.17-.11,2.08-.04,4.18.04,6.26.05,1.2.23,2.1.83,3.16.53.94,1.18,1.85,1.89,2.66.84.96,2.39,2.85,3.83,1.86.26-.18.14-.32-.1-.38-.3-.08-.78.11-1.02.27l-.02.02.87-.28c.36,0,.12.03.04-.05s-.24-.14-.34-.21c-.32-.22-.62-.47-.9-.73-.65-.6-1.25-1.28-1.77-1.99s-1.07-1.53-1.45-2.36-.38-1.74-.41-2.65c-.06-1.64-.1-3.28-.07-4.92.01-.59.03-1.19.09-1.78.02-.16.05-.32.07-.48.02-.17.17-.3,0-.2l-.69.26h.02c.18-.04.83-.17.84-.43,0-.27-.41-.23-.59-.19h0Z"/>
  </g>
</svg>