<?xml version="1.0" encoding="UTF-8"?>
<svg xmlns="http://www.w3.org/2000/svg" xmlns:xlink="http://www.w3.org/1999/xlink" viewBox="0 0 1334 1000">
  <defs>
    <style>
      .cls-1 {
        fill: none;
      }

      .cls-2 {
        fill: #131429;
      }

      .cls-3 {
        fill: #040404;
      }

      .cls-4 {
        fill: #a7bcac;
      }

      .cls-5 {
        fill: #246868;
      }

      .cls-6 {
        fill: #101931;
      }

      .cls-7 {
        fill: #5e3527;
      }

      .cls-8 {
        fill: #ddd42b;
      }

      .cls-9 {
        fill: #010101;
      }

      .cls-10 {
        fill: #25255d;
      }

      .cls-11 {
        fill: #e8b48f;
      }

      .cls-12 {
        fill: #653c29;
      }

      .cls-13 {
        fill: #231f20;
      }

      .cls-14 {
        fill: #331d17;
      }

      .cls-15 {
        fill: #f1eef7;
      }

      .cls-16 {
        fill: #af3c25;
      }

      .cls-17 {
        fill: #4f3a31;
      }

      .cls-18 {
        fill: #745245;
      }

      .cls-19 {
        fill: #67876f;
      }

      .cls-20 {
        fill: #1a4244;
      }

      .cls-21 {
        fill: #a66e53;
      }

      .cls-22 {
        fill: #0a2f44;
      }

      .cls-23 {
        fill: url(#linear-gradient);
        opacity: .5;
      }

      .cls-24 {
        fill: #b3b2ab;
      }

      .cls-25 {
        fill: #7c732e;
      }

      .cls-26 {
        fill: #fff;
      }

      .cls-27 {
        fill: #77c8ce;
      }

      .cls-28 {
        fill: #59341c;
      }

      .cls-29 {
        fill: #8a4a20;
      }

      .cls-30 {
        fill: #0d0b09;
      }

      .cls-31 {
        fill: #42221a;
      }

      .cls-32 {
        fill: #513835;
      }

      .cls-33 {
        fill: #9b5925;
      }

      .cls-34 {
        fill: #3b3b8c;
      }

      .cls-35 {
        fill: #f2ebd1;
      }

      .cls-36 {
        fill: #4696a3;
      }

      .cls-37 {
        fill: #24180f;
      }

      .cls-38 {
        fill: #628e9f;
      }

      .cls-39 {
        fill: #4c53a3;
      }

      .cls-40 {
        stroke: #000;
        stroke-miterlimit: 10;
      }

      .cls-41 {
        fill: #a29934;
      }

      .cls-42 {
        fill: #5d483b;
      }

      .cls-43 {
        fill: #28160e;
      }

      .cls-44 {
        fill: #825639;
      }

      .cls-45 {
        fill: #eb9944;
      }

      .cls-46 {
        clip-path: url(#clippath);
      }

      .cls-47 {
        fill: #4f2e25;
      }

      .cls-48 {
        fill: #773022;
      }
    </style>
    <linearGradient id="linear-gradient" x1="-4621.48" y1="6973.48" x2="-3562.05" y2="6973.48" gradientTransform="translate(-6313.62 4592.59) rotate(90) scale(1 -1)" gradientUnits="userSpaceOnUse">
      <stop offset="0" stop-color="#f0ebe0"/>
      <stop offset=".18" stop-color="#eee8dd" stop-opacity=".99"/>
      <stop offset=".33" stop-color="#e8e1d4" stop-opacity=".97"/>
      <stop offset=".46" stop-color="#ded4c5" stop-opacity=".93"/>
      <stop offset=".59" stop-color="#d0c2b0" stop-opacity=".88"/>
      <stop offset=".72" stop-color="#bdab95" stop-opacity=".82"/>
      <stop offset=".84" stop-color="#a78e73" stop-opacity=".73"/>
      <stop offset=".96" stop-color="#8d6d4d" stop-opacity=".64"/>
      <stop offset="1" stop-color="#83603d" stop-opacity=".6"/>
    </linearGradient>
    <clipPath id="clippath">
      <polygon class="cls-1" points="1457.03 1105.07 -95.64 1105.07 -37.99 842.23 1399.38 842.23 1457.03 1105.07"/>
    </clipPath>
  </defs>
  <g id="Layer_2" data-name="Layer 2">
    <polyline class="cls-35" points="1363.37 1012.13 1363.37 -44.34 -43.67 -44.34 -43.67 1012.13"/>
    <polyline class="cls-23" points="1363.37 1027.04 -43.67 1027.04 -43.67 -32.39 1363.37 -32.39"/>
    <polyline class="cls-17" points="-71.38 1050.05 1475.49 1050.05 1475.49 781.15 -71.38 781.15"/>
    <polygon class="cls-29" points="1457.03 1106.3 -95.64 1106.3 -37.99 810.64 1399.38 810.64 1457.03 1106.3"/>
    <g class="cls-46">
      <rect class="cls-33" x="-111.65" y="908.07" width="1610.81" height="23.31"/>
      <rect class="cls-33" x="-109.96" y="846.34" width="1610.81" height="23.31"/>
      <rect class="cls-33" x="-119.99" y="967.14" width="1610.81" height="23.31"/>
    </g>
    <polygon class="cls-43" points="401.29 684.88 477.79 684.88 460.36 780.84 401.29 780.84 401.29 684.88"/>
    <path class="cls-42" d="M1876.41,421.1l-1.44-.55-2.56-101.61c-3.78-76.69-24.52-132.34-68.63-136.66-30.03,0-131.62-1.39-141.74,6.39-2.8-133.22,11.67-239.49-205.93-239.49l-239.88.58c-2.56,58.8-9.54,117.41-18.2,175.62-10.86,73.01,10.41,145.59-.71,218.56-5.59,36.67,42.69,73.61,37.96,110.41-4.82,37.48-9.7,74.96-14.44,112.45-7.21,57.02-14.13,114.12-20.07,171.31h684.8v-118.84c17.05-5.58,28.9-24.01,28.99-45.09v-84.77c-.05-32.48-13.81-53.68-38.14-68.31Z"/>
    <path class="cls-42" d="M1237.78,735.69c.67-16.25,1.31-32.51,1.83-48.77,1.18-37.41,40.61-74.81,40.61-112.23l-8.92-605.66-516.17-1.42c-111.76.02-130.36,103.47-133.16,233.16-10.12-7.57-111.7-6.22-141.74-6.22-44.12,4.21-64.85,58.39-68.63,133.05l-2.56,98.92-1.44.53c-24.32,14.24-38.09,34.88-38.14,66.5v82.53c.09,20.52,11.94,38.47,28.99,43.9v115.7h839.33Z"/>
    <path class="cls-30" d="M408.27,627.63h49.35c3.67,0,7.35,0,11.02,0h140.23c6.5,0,13,0,19.49,0h62.58c7.33,0,14.66,0,21.99,0,7.55,0,15.09,0,22.64,0h23.04c7.84,0,15.68,0,23.52,0,8.03,0,16.05,0,24.08,0,8.13,0,16.26,0,24.38,0,8.29,0,16.59,0,24.88,0h25.12c8.48,0,16.96,0,25.44,0s17.23,0,25.84,0h293.25c8.93,0,17.86,0,26.79,0h26.54c8.83,0,17.67,0,26.5,0,8.73,0,17.46,0,26.19,0h26.08c8.57,0,17.14,0,25.7,0,8.47,0,16.94,0,25.41,0h25.21c8.25,0,16.49,0,24.74,0h24.47c7.98,0,15.96,0,23.94,0,7.83,0,15.66,0,23.49,0h23.11c7.5,0,14.99,0,22.49,0,7.35,0,14.7,0,22.05,0,7.12,0,14.24,0,21.37,0h40.97c6.48,0,12.96,0,19.44,0h18.82c6,0,12,0,18,0,5.77,0,11.54,0,17.31,0h106.44c2.95,0,5.91,0,8.86,0h29.75c.56,0,1.53-.84.56-.84h-39.31c-3.35,0-6.69,0-10.04,0h-11.02c-4.02,0-8.04,0-12.07,0h-12.97c-4.63,0-9.26,0-13.9,0h-14.86c-5.22,0-10.44,0-15.66,0h-33.85c-6.05,0-12.09,0-18.14,0h-18.79c-6.5,0-13,0-19.49,0h-41.06c-7.17,0-14.34,0-21.51,0h-21.99c-7.55,0-15.09,0-22.64,0-7.68,0-15.36,0-23.04,0-7.84,0-15.68,0-23.52,0h-24.08c-8.13,0-16.26,0-24.38,0-8.29,0-16.59,0-24.88,0h-76.4c-8.66,0-17.32,0-25.98,0-8.77,0-17.55,0-26.32,0h-26.39c-8.85,0-17.7,0-26.55,0h-214.8c-8.85,0-17.69,0-26.54,0-8.83,0-17.67,0-26.5,0h-26.19c-8.69,0-17.39,0-26.08,0h-25.7c-8.47,0-16.94,0-25.41,0-8.4,0-16.81,0-25.21,0h-24.74c-8.16,0-16.31,0-24.47,0-7.98,0-15.96,0-23.94,0h-23.49c-7.7,0-15.41,0-23.11,0-7.5,0-14.99,0-22.49,0-7.35,0-14.7,0-22.05,0-7.12,0-14.24,0-21.37,0h-20.76c-6.74,0-13.47,0-20.21,0-6.48,0-12.96,0-19.44,0s-12.55,0-18.82,0h-35.31c-5.48,0-10.95,0-16.43,0s-10.4,0-15.59,0h-14.8c-4.61,0-9.22,0-13.83,0h-84.41c-.56,0-1.53.84-.56.84h0Z"/>
    <path class="cls-30" d="M415.69,425.83c.21,0,.43,0,.64,0h1.89c1.04,0,2.09,0,3.13,0h4.31c1.83-.01,3.65-.01,5.48-.02h6.6c2.57-.02,5.14-.02,7.7-.03l8.81-.02c3.27,0,6.54-.01,9.81-.02,3.6,0,7.21-.01,10.81-.02,3.93,0,7.86-.01,11.79-.02l12.73-.02,13.7-.02,14.52-.03c5.12,0,10.24-.02,15.37-.03l16.18-.03c5.65-.01,11.31-.02,16.96-.03l17.8-.03,18.44-.03,19.13-.03c6.6-.01,13.19-.02,19.79-.04s13.61-.02,20.42-.04,14.08-.02,21.11-.04,14.39-.03,21.58-.04c7.37-.01,14.74-.03,22.11-.04s15.08-.03,22.61-.04c7.69-.01,15.39-.03,23.08-.04l23.52-.04,24.04-.04c8.1-.01,16.2-.03,24.31-.04l24.65-.04,24.96-.04c8.42-.01,16.83-.03,25.25-.04s17.08-.03,25.62-.05c8.57-.02,17.14-.03,25.71-.05,8.63-.02,17.27-.03,25.9-.05,8.69-.02,17.37-.03,26.06-.05,8.73-.02,17.45-.03,26.18-.05,8.8-.02,17.6-.03,26.4-.05,8.78-.02,17.56-.03,26.34-.05l26.37-.05c8.79-.02,17.58-.03,26.37-.05,8.78-.02,17.56-.03,26.33-.05l26.39-.05,26.17-.05c8.68-.02,17.36-.03,26.05-.05s17.26-.03,25.89-.05c8.57-.02,17.13-.03,25.7-.05,8.49-.02,16.99-.03,25.48-.05s16.9-.03,25.35-.04,16.63-.03,24.94-.04,16.42-.03,24.63-.04c8.09-.01,16.19-.03,24.28-.04s15.93-.03,23.9-.04c7.87-.01,15.73-.03,23.6-.04,7.68-.01,15.37-.03,23.05-.04l22.58-.04c7.36-.01,14.72-.03,22.07-.04,7.18-.01,14.36-.03,21.54-.04s14.05-.02,21.07-.04l20.37-.04c6.58-.01,13.16-.02,19.74-.03l19.08-.03,18.39-.03c5.92-.01,11.83-.02,17.75-.03l16.91-.03,16.12-.03c5.1,0,10.2-.02,15.3-.03,4.82,0,9.64-.02,14.45-.03l13.64-.02c4.22,0,8.44-.01,12.66-.02l11.71-.02c3.58,0,7.16-.01,10.74-.02l9.73-.02,8.73-.02h7.62c2.17-.02,4.35-.02,6.52-.03h5.39c1.41-.01,2.82-.01,4.23-.02h3.04c.6,0,1.2,0,1.8,0,.18,0,.36,0,.55,0,.6,0,1.52-.9.54-.9-.21,0-.43,0-.64,0h-1.89c-1.04,0-2.09,0-3.13,0h-4.31c-1.83.01-3.65.01-5.48.02h-6.6c-2.57.02-5.14.02-7.7.03l-8.81.02-9.81.02c-3.6,0-7.21.01-10.81.02-3.93,0-7.86.01-11.79.02l-12.73.02-13.7.02-14.52.03c-5.12,0-10.24.02-15.37.03-5.39,0-10.79.02-16.18.03s-11.31.02-16.96.03l-17.8.03c-6.15.01-12.29.02-18.44.03s-12.75.02-19.13.03-13.19.02-19.79.04-13.61.02-20.42.04-14.08.02-21.11.04-14.39.03-21.58.04c-7.37.01-14.74.03-22.11.04-7.54.01-15.08.03-22.61.04-7.69.01-15.39.03-23.08.04l-23.52.04-24.04.04c-8.1.01-16.2.03-24.31.04l-24.65.04-24.96.04c-8.42.01-16.83.03-25.25.04s-17.08.03-25.62.05c-8.57.02-17.14.03-25.71.05-8.63.02-17.27.03-25.9.05-8.69.02-17.37.03-26.06.05-8.73.02-17.45.03-26.18.05-8.8.02-17.6.03-26.4.05s-17.56.03-26.34.05l-26.37.05c-8.79.02-17.58.03-26.37.05-8.78.02-17.56.03-26.33.05l-26.39.05-26.17.05c-8.68.02-17.36.03-26.05.05s-17.26.03-25.89.05-17.13.03-25.7.05c-8.49.02-16.99.03-25.48.05s-16.9.03-25.35.04-16.63.03-24.94.04l-24.63.04c-8.09.01-16.19.03-24.28.04s-15.93.03-23.9.04c-7.87.01-15.73.03-23.6.04s-15.37.03-23.05.04l-22.58.04c-7.36.01-14.72.03-22.07.04l-21.54.04-21.07.04c-6.79.01-13.58.02-20.37.04s-13.16.02-19.74.03l-19.08.03-18.39.03c-5.92.01-11.83.02-17.75.03l-16.91.03-16.12.03-15.3.03c-4.82,0-9.64.02-14.45.03l-13.64.02c-4.22,0-8.44.01-12.66.02l-11.71.02c-3.58,0-7.16.01-10.74.02l-9.73.02-8.73.02h-7.62c-2.17.02-4.35.02-6.52.03h-5.39c-1.41.01-2.82.01-4.23.02h-3.04c-.6,0-1.2,0-1.8,0-.18,0-.36,0-.55,0-.6,0-1.52.9-.54.9h0Z"/>
    <path class="cls-30" d="M624.2,199.85c9.65,12.83,18.68,26.52,25.26,41.21,3.48,7.78,5.79,15.91,7.08,24.33,1.4,9.13,1.79,18.37,2.16,27.59.5,12.61.82,25.23,1.13,37.85.36,14.81.66,29.63.96,44.44.26,13.08.51,26.17.8,39.25.03,1.33.06,2.66.09,3.99.01.45,1.46.17,1.45-.39-.29-12.65-.53-25.29-.78-37.94-.3-14.87-.6-29.75-.95-44.62-.31-13.13-.63-26.25-1.11-39.38-.63-17.14-1.11-34.75-7.45-50.93-5.83-14.86-14.71-28.64-24.02-41.53-1.07-1.49-2.16-2.96-3.26-4.43-.29-.39-1.69.1-1.35.57h0Z"/>
    <path class="cls-30" d="M570.18,199.85c9.65,12.83,18.68,26.52,25.26,41.21,3.48,7.78,5.79,15.91,7.08,24.33,1.4,9.13,1.79,18.37,2.16,27.59.5,12.61.82,25.23,1.13,37.85.36,14.81.66,29.63.96,44.44.26,13.08.51,26.17.8,39.25.03,1.33.06,2.66.09,3.99.01.45,1.46.17,1.45-.39-.29-12.65-.53-25.29-.78-37.94-.3-14.87-.6-29.75-.95-44.62-.31-13.13-.63-26.25-1.11-39.38-.63-17.14-1.11-34.75-7.45-50.93-5.83-14.86-14.71-28.64-24.02-41.53-1.07-1.49-2.16-2.96-3.26-4.43-.29-.39-1.69.1-1.35.57h0Z"/>
  </g>
  <g id="Layer_1" data-name="Layer 1">
    <path class="cls-38" d="M1180.08,409.42c-6.46,6.82-62.86-63.54-69.81-57.26l15.07,54.47s-67.27-46.3-79.95-85.89c-12.68-39.59-23.57-73.29-23.57-73.29,0,0,76.2,3.66,113.29,21.77,17.4,8.5,67.72,61.47,91.7,85.29-13.67,25.23-28.97,36.16-46.73,54.91Z"/>
    <path class="cls-21" d="M629.35,524.22s-48.28-31.73-53.78-35.01c-4.86-2.89-54.7-5.44-68.43-6.4h0c-.13,6.33,3.75,11.59,9.62,13.19,13.55,3.7,39.68,9.73,39.68,9.73,0,0-3.04,6.34-4.27,6.99-15.48,8.21-11.05,15.8-11.05,15.8,0,0-1.51,2.32-1.72,9.45-.26,8.92,11.38,11.37,11.38,11.37,0,0-3.47,2.37.16,10.96,3.63,8.59,17.1-2,17.1-2,0,0-1.28,1.23,15.98,9.4,17.26,8.17,38.25-4.01,38.25-4.01l42.39,15.7,11.34-41.97-46.65-13.2Z"/>
    <path class="cls-47" d="M552.89,511.09c.6,2.54,2.39,4.51,4.2,6.29.96.94,1.91,1.92,3.15,2.49s2.82.61,4.04-.08c.37-.21.79-.65.48-1.09-.29-.4-1-.39-1.4-.17-.84.47-1.79.07-2.53-.43-.9-.62-1.67-1.43-2.44-2.21-1.51-1.53-2.95-3.22-3.45-5.36-.23-.98-2.28-.44-2.05.55h0Z"/>
    <path class="cls-47" d="M541.99,525.09c3.26,4.34,8.25,7.25,13.62,8,.48.07,1.09-.03,1.45-.39.28-.28.26-.67-.2-.74-5.16-.73-9.84-3.52-12.97-7.68-.42-.56-2.4.14-1.9.81h0Z"/>
    <path class="cls-47" d="M552.81,547.15l11.01-2.19c3.12-.62,6.57-1.02,9.25-2.9,2.02-1.41,3.7-4.09,2.5-6.55-1.38-2.84-4.84-3.27-7.64-3.45-.46-.03-1.14.14-1.34.61-.18.45.17.78.61.81,2.37.16,5.73.45,6.56,3.18s-1.99,4.83-4.24,5.6c-2.57.87-5.35,1.23-8,1.75-3.02.6-6.05,1.2-9.07,1.8-1.29.26-.91,1.58.36,1.33h0Z"/>
    <path class="cls-47" d="M569.7,556.91c2.45-1.2,5.02-2.87,6.22-5.42.58-1.22.94-2.94.36-4.23-.68-1.5-2.5-1.77-3.94-2.06-2.1-.42-4.23-.74-6.36-.97-.48-.05-1.13.15-1.33.63s.18.83.63.88c2.1.23,4.18.54,6.25.95.75.15,1.61.25,2.25.68.73.49.73,1.41.65,2.2-.33,3.01-3.16,4.88-5.65,6.1-.39.19-.77.64-.48,1.07s1.01.35,1.39.16h0Z"/>
    <path class="cls-47" d="M613.46,540.77c-7.27,2.38-15.56,2.14-22.64-.82-3.54-1.48-5.72-3.96-7.54-7.27-1.94-3.52-3.8-7.09-5.69-10.64-.3-.57-1.66-.05-1.96.31-2.33,2.78-4.35,5.93-7.17,8.25-1.31,1.07-2.82,1.98-4.54,2.15-1.02.1-2.05-.04-3.03-.3-.46-.12-.92-.28-1.37-.45-.95-.37-1.35-.49-1.22-1.64.27-2.38,1.72-4.41,3.16-6.25s2.95-3.68,4.15-5.74c2.68-4.56,4.35-9.69,7.46-14,3.32-4.59,9.33-8.5,14.82-4.87.53.35,2.34-.47,1.92-.75-5.68-3.76-13.15-.7-17.25,3.95-5.08,5.77-6.78,13.64-11.54,19.65-2.27,2.86-4.96,5.83-4.8,9.72.04.09.1.14.2.17,4.14,2.04,8.62,2,12.51-.6,3.55-2.37,5.88-6.13,8.58-9.34l-1.96.31c2.15,4.02,4.14,8.17,6.51,12.06,1.99,3.28,4.68,5.33,8.27,6.63,7.69,2.78,16.17,2.65,23.91.13.26-.09.81-.37.58-.69s-1.09-.03-1.34.05h0Z"/>
    <path class="cls-38" d="M823.71,468.49c-7.95,23.86-22.57,80.51-22.57,80.51l-164.97-22.5c-.16,4.01-.51,8-1.1,11.97-1.35,9.15-4.4,17.76-7.36,26.48-1.2,3.53-5.47,12.14-7.06,15.59,17.79,6.37,127.02,45.11,173.37,54.07,10.59,2.05,48.35,11.91,75.13-13.2,14.3-10.87,43.35-98.97,43.76-107.67l-89.21-45.26Z"/>
    <path class="cls-38" d="M909.88,289.4s-43.77,23.76-59.33,42.12c-19.9,23.47-39.45,181.19-44.19,197.68-1.99,6.92,17.82,1.52,41.89,6.18,17.92,3.47,54.57,4.5,54.57,4.5h0l30.16-55.27-38-153.59,1.13-19.59,13.76-22.02Z"/>
    <path class="cls-6" d="M799.67,549.67c6.5.25,13.13,2.1,17.32,7.38,2.61,3.28,3.8,7.28,4.63,11.32.2,1,.28,2.57,1.03,3.36.57.59,2.64-.23,2.01-.88-.5-.52-.65-2.01-.83-2.88-.38-1.85-.79-3.68-1.42-5.46-1.7-4.85-4.91-8.93-9.53-11.3-3.82-1.96-8.14-2.7-12.4-2.87-.43-.02-1.24.15-1.43.61s.16.7.61.72h0Z"/>
    <path class="cls-21" d="M254.75,538.98c-1.86.26-2.78.35-4.64.53-7.66.73-15.55,1.42-23.25,1.38-11.88-.06-22.36-5.08-33.01-9.62,1.54,7.14,2.58,16.07.87,21.56l.64,2.05c20.93,21.83,33.2,34.41,83.36,8.23l-22.87-23.63-1.08-.5Z"/>
    <path class="cls-21" d="M271.15,462.56c-.6-3.31-1.31-7.14-2.19-11.76-.26-1.34-.54-2.62-.83-3.88-.21-.64-.36-1.29-.46-1.95-5.49-22.27-15.38-32.43-15.38-32.43-12.61-12.85-31.07-18.01-48.48-13.55-20.59,4.81-36.58,21.35-43.63,36.07-3.5,7.29-4.2,15.62-1.95,23.39,1.91,6.64,7.33,12.01,10.7,18.95-7.3,1.2-13.83,5.3-8.37,18.06,7.53,17.6,20.58,20.78,25.08,14.55,1.33-.04,5.69,7.54,6.81,11.31.09.29,4.29,20.5,4.37,20.8,10.93,4.58,30.55,2.18,42.65,2.45,7.59.17,7.99-1.02,15.54-1.75,1.83-.18,1.04-.99,2.87-1.24l-2.1-12.97c.51-.15.97-.21,3.15-1.45,15.73-7.84,18.52-31.39,17.69-39.95-.71-7.26-3.63-20.57-5.46-24.66Z"/>
    <path class="cls-14" d="M255.77,528.62s-19.36,5.76-39.56-2.15c0,0,3.4,5.47,16.96,7.25,13.56,1.78,23.28-1.91,23.28-1.91l-.69-3.19Z"/>
    <path class="cls-13" d="M265.75,453.86c-2.38-.89-5.46-1.15-9.63.12-6.69,2.04-7.98,11.24-7.98,11.24,0,0,2.25-7.29,8.81-9.47,3.16-1.05,8.88-.27,11.62.47-.2-.64-1.37-1.75-2.81-2.36Z"/>
    <path class="cls-47" d="M168.62,496.01c-.9-1.51-1.59-3.26-1.6-5.05,0-.47.03-.94.13-1.4.03-.14.08-.29.11-.43.02-.11-.07.18,0,.01l-.8.57c.2-.06-.37.05-.12.02.12-.01.34.03-.05,0,.09,0,.18,0,.27.02s.48.1.17.02c.13.03.26.06.38.1.34.1.8.3,1,.39,3.17,1.55,5.77,4.3,8.1,6.87l1.54-1.11c-.93-.42-2.08-.59-3.06-.28-1.39.44-1.81,1.73-1.63,3.06.44,3.17,3.77,4.18,6.55,3.89.43-.05,1.08-.3,1.13-.81s-.55-.67-.94-.63c-2,.21-4.09-.43-4.62-2.58-.08-.32-.12-.64-.1-.97.01-.17.06-.33.08-.5,0-.02.15-.32-.01-.16.07-.06.15-.03.27,0,.23.03.33.05.53.1s.4.13.6.21c.51.23,2.18-.41,1.54-1.11-1.78-1.96-3.67-3.87-5.78-5.48-1.13-.85-2.35-1.65-3.69-2.13-.65-.23-1.37-.4-2.07-.34-.2.02-.4.05-.59.13-.64.24-.77.71-.89,1.31-.5,2.49.41,5.05,1.67,7.17.45.75,2.41,0,1.88-.89h0Z"/>
    <path class="cls-13" d="M228.63,469.07s-8.5-7.53-15.88-5.35c-10.38,3.08-11.3,7.85-12.63,11.66,0,0,5.15-7.74,13.23-9.92,7.33-1.98,15.28,3.6,15.28,3.6Z"/>
    <g>
      <path d="M181.28,492.4c-.06-.1-.45-.48-.51-.58-1.56-2.39-4.92-6.67-7.47-8.08-1.17-.65-2.54-1.34-3.9-1.63-1.36-.29-2.83-.64-4.24-.52-2.02-.05-3.92.4-5.7,1.37-.29.21-.58.42-.87.63-8.44-14.82-16.87-29.63-9.56-51.71,2.11-6.36,9.57-14.52,11.83-17.11,13.73-15.55,28.18-19.66,46.6-21.87,21.34-2.57,40.79,4.63,50.27,24.66,2.29,4.83,1.54,3.41,3.03,7.77,0,0-3.6-10.86-15-14.64-11.4-3.78-11.25,5.47-25.44,8.94-16.44,3.96-23.86-3.8-35.57,6.04-10.69,9.01-11.92,20.36-11.92,20.36-.24,7.6-2.47,13.13,1.37,20.93.93,1.85,1.76,3.75,2.56,5.66.91,3.61,3.82,5.1,3.97,8.85.07,1.84,3.34,8.66,2.04,10.07-1.4,1.51.45,1.1-1.45.88Z"/>
      <path class="cls-13" d="M181.56,492.29c-.37-.52-.78-1-1.15-1.53-.47-.67-.97-1.33-1.48-1.97-1.11-1.4-2.3-2.76-3.64-3.93-2.95-2.56-6.96-3.57-10.79-3.42-2.24.09-4.34.8-6.14,2.11l.53-.05c-3.22-5.64-6.45-11.31-8.79-17.39-2.44-6.32-3.79-13.02-3.52-19.81.16-4,.85-7.97,1.94-11.83.47-1.68.99-3.35,1.75-4.93.71-1.47,1.55-2.88,2.46-4.24,1.74-2.62,3.7-5.09,5.74-7.48,1.74-2.04,3.5-4.07,5.38-5.98,4.76-4.85,10.25-8.95,16.39-11.89,5.77-2.77,11.98-4.47,18.26-5.61,6.53-1.18,13.19-2.06,19.84-1.74,6.1.29,12.19,1.52,17.8,3.97,5.51,2.41,10.46,5.99,14.43,10.5,2.13,2.42,3.96,5.08,5.51,7.9.84,1.53,1.58,3.11,2.31,4.69.37.81.73,1.62,1.01,2.46.36,1.09.7,2.18,1.07,3.27.06.17.65,0,.6-.16-.89-2.68-2.57-5.23-4.38-7.37-1.8-2.14-3.95-3.98-6.37-5.38s-5.38-2.57-8.28-2.8c-2.02-.16-3.98.24-5.77,1.18s-3.47,2.34-5.16,3.56c-2.34,1.69-4.83,3.1-7.54,4.09-3.52,1.28-7.3,1.92-11.04,2.12-2.96.16-5.91,0-8.86-.19-2.48-.16-4.97-.31-7.45-.06-6.12.62-11.21,4.2-15.26,8.67-3.68,4.06-6.47,9-7.88,14.31-.23.88-.48,1.79-.56,2.7-.15,1.75-.23,3.49-.41,5.24s-.37,3.33-.43,5c-.15,3.9.64,7.54,2.37,11.05.92,1.87,1.9,3.81,2.53,5.8.48,1.52,1.41,2.79,2.28,4.11.88,1.34,1.43,2.67,1.56,4.28.08.94.43,1.86.73,2.75.41,1.25.85,2.49,1.19,3.75.25.92.61,2.08.37,3.04-.12.46-.53.72-.72,1.14-.05.11-.18.42-.02.51s.48,0,.58-.15h0s0-.05-.02-.07c-.2-.21-.77-.22-1.02-.25-.16-.02-.7.24-.38.28.17.02.78.19.82.13l.58-.15c-.24-.15.4-.86.45-.93.22-.27.34-.53.38-.88.11-1.01-.2-2.07-.46-3.03-.34-1.22-.76-2.41-1.16-3.62-.29-.87-.63-1.77-.7-2.68-.13-1.58-.66-2.89-1.52-4.21-.82-1.27-1.73-2.48-2.23-3.91-1.35-3.84-3.66-7.33-4.53-11.34-.75-3.45-.43-6.95-.06-10.42.19-1.74.37-3.48.44-5.24.01-.32.05-.62.11-.93.72-4.14,2.48-8.15,4.74-11.67,1.94-3.02,4.35-5.74,7.1-8.04,2.31-1.93,4.92-3.54,7.84-4.36,5-1.4,10.29-.4,15.38-.28,6.43.15,13.12-.79,18.89-3.75,2.18-1.12,4.15-2.55,6.11-4.01,1.58-1.18,3.22-2.42,5.15-2.96,2.38-.68,4.89-.19,7.18.58,2.93.98,5.63,2.56,7.95,4.61,2.88,2.55,5.25,5.81,6.69,9.39.08.19.15.38.22.57l.6-.16c-.7-2.04-1.3-4.06-2.21-6.02-1.43-3.08-2.98-6.07-4.95-8.84-3.58-5.05-8.25-9.28-13.67-12.28-5.29-2.93-11.16-4.67-17.15-5.41-6.56-.82-13.09-.34-19.61.59s-12.8,2.23-18.88,4.53-11.74,5.6-16.72,9.8c-4.63,3.9-8.7,8.52-12.45,13.26-2.02,2.57-3.96,5.25-5.45,8.17-1.73,3.38-2.64,7.24-3.29,10.95-1.25,7.09-.85,14.33,1.12,21.25,1.83,6.42,4.86,12.39,8.1,18.2.79,1.42,1.59,2.82,2.39,4.23.09.16.43.03.53-.05,1.84-1.34,3.85-1.85,6.1-1.88,2.03-.04,4.17.3,6.05,1.1,1.53.65,2.92,1.47,4.14,2.6s2.22,2.28,3.21,3.52c.53.67,1.04,1.35,1.53,2.04.37.52.78,1.01,1.15,1.53.1.14.68-.06.56-.22Z"/>
    </g>
    <g>
      <path class="cls-9" d="M248.54,489.28c-1.29,1.13-3.58,1.5-5.29.94-.38-.12-1.43.34-.9.52,2.26.74,5.51.06,7.17-1.4.16-.15.1-.28-.16-.3-.27-.02-.65.09-.83.24"/>
      <path class="cls-9" d="M241.61,490.48c-1.1-.23-2.28-.2-3.41-.02-.16.03-.36.14-.45.28-.07.11-.07.22.07.26.58.17,1.26.13,1.86-.02.19-.05.43-.16.49-.35.06-.17-.14-.23-.29-.19-.49.13-1.02.16-1.5.02-.13.18-.25.36-.38.54,1.01-.17,2.06-.18,3.05.03.2.04.44-.08.57-.21.1-.1.19-.29,0-.34"/>
      <path class="cls-9" d="M237.24,491.69c-1.31.28-2.97.09-3.84-.73-1.32-1.24-1.02-3.95.37-5.29.15-.15.03-.26-.16-.25-.25,0-.5.16-.66.31-1.21,1.17-1.63,3.46-1.08,4.79.51,1.25,1.97,1.85,3.62,1.85.49,0,1-.05,1.49-.15.2-.04.54-.19.6-.37.06-.18-.14-.2-.32-.16"/>
      <path class="cls-9" d="M250.75,488.04c-.11-.13,0-.26.1-.29.35-.08.69-.26.93-.58.15.11.3.23.45.34-.68.25-1.33.65-1.85,1.22-.1.11-.3.1-.43.04-.1-.05-.23-.19-.13-.31"/>
      <path class="cls-9" d="M249.82,488.47c.59-.64,1.31-1.08,2.08-1.36.11-.04.28-.02.39.07.09.07.13.18.06.27"/>
      <path class="cls-9" d="M253.49,487.56c.84-.24,1.69-1.05,1.87-2.13.27-1.63-.74-3.25-2.02-3.93-.14-.07-.11-.22,0-.29.14-.09.34-.04.48.03,1.12.6,2.04,1.79,2.23,3.21.18,1.33-.4,2.43-1.32,3.05-.27.18-.57.34-.89.43-.13.04-.37.03-.47-.11-.1-.14,0-.24.12-.27"/>
    </g>
    <path class="cls-21" d="M381.32,576.75l-47.14,88.93c1.11,3.09,2.12,6.22,3.15,9.35,2.19,6.68-13.54,17.75-9.93,23.83,3.03,5.11,4.72,21.44,30.05,8.01,30.08-23.55,45.17-117.97,45.17-117.97l-21.29-12.15Z"/>
    <path class="cls-21" d="M348.64,663.7c-6.57-10.73-32.64-53.06-48.41-75.08-4.56,2.85-9.07,5.8-13.54,8.81-10.36,6.98-20.49,14.31-30.56,21.7-2.7,1.98-5.39,3.98-8.08,5.97,24.73,27.08,61.55,80.19,89.01,86.44.5.11,1.01.21,1.53.29-.71-2.41-1.17-4.88-1.35-7.4-1.01-14.43,6.42-27.61,11.39-40.73Z"/>
    <rect class="cls-7" x="151.43" y="751.7" width="70.4" height="26.53"/>
    <path class="cls-22" d="M137.9,786.39c0,21.85-7.1,68.82,58.42,73.95l-29.74-7.59-1.48,53.11s173.64-5.56,179.39-5.47c11.05.18,42.47-3.43,47.46-37.48,4.99-34.05-16.53-43.47-24.65-49.95-8.11-6.49-79.29-59.11-114.23-65.53l-105.26,27.01-9.9,11.96Z"/>
    <path class="cls-22" d="M136.93,820.32c10.71,19.48,33.37,60.21,58.62,70.67l-28.04-5.97,12.19,33.75s112.01,13.49,143.85,10.23c16.89.92,47.57-11.52,50.15-45.78,2.58-34.26-14.49-42.75-22.4-48.79-7.91-6.04-94.39-33.76-127.18-38.27l-78.72,11.68-8.47,12.48Z"/>
    <path class="cls-21" d="M171.65,877.37c-1.66-5.14-6.84-10.74-10.58-13.4-3.73-2.65-8.49-.56-9.76-.02-9.46,3.98-14.62,12.35-22.22,19.41-5.83,5.42-12.26,10.03-19.08,13.71-6.94,3.75-14.39,5.47-21.4,8.83-.05.02-.1.05-.15.07-3.48,1.66-6.33,4.63-8.08,8.38-.64,1.37-1.29,2.71-2,3.98-.98,1.75-2.01,3.05-1.16,5.21,1.58,3.98,7.52,1.82,9.27,1.08.32-.14.67-.17,1.01-.12,1.37.2,5.41.54,12.31-.82.67-.13,1.32-.21,1.96-.26.01.04.02.09.03.13,3.66-.48,19.68-.37,22.63-.56,4.69-.3,4.13.16,24.12-6.18,0,0,19.04-6.24,29.98-2.27l2.94-31.16s-8.18-.87-9.84-6.01Z"/>
    <path class="cls-22" d="M273.23,747.08l-1.3-5.92c-20.54,3.63-34.7-15.22-55.44-12.9-15.79,1.76-31.5,3.91-47.42,4.1-7.64.09-15.15-.2-22.64-1.84-4.68-1.02,8.22-2.37,3.57-3.49l-15.66,19.07-7.07,12.99c-2.38,9.48-14.07,34.83-14.64,44.55-6.45,110.06,128.24,74.74,128.24,74.74,0,0,6.92-31.37,9.93-38.82l6.85-14.43c3.28-.17,11.3-22.33,19.59-32.51,17.74-21.79,67.22,4.26,67.22,4.26l-71.25-49.81Z"/>
    <path class="cls-4" d="M136.71,627.16s2.19,65.56-2.55,89c-6.08,30.07-16.95,55.76-16.95,55.76,0,0,46.7,20.79,118.23,19.32,39.33-.81,63.14-22.58,59.74-38.92-.88-4.22-5.96-12.21-5.96-12.21l6.8-82.07-159.29-30.88Z"/>
    <path class="cls-4" d="M163.08,709.81c6.65,2.77,13.33,4.29,20.44,5.3,14.07,2.01,28.22,2.24,42.4,2.75,19.07.68,38.94,34.37,58.01,33.84l6.46-10.57c5.12-9.13,9.43-51.62,12.2-76.73,21.32-7.16,32.7-37.24,32.7-37.24,0,0-24.09-54.52-33.27-64.23-9.18-9.71-39.64-21.38-39.64-21.38,12.88,13.39-7.56,19.48-7.56,19.48-17.92,3.83-54.81-2.73-59.12-25.65,0,0-25.38,11.31-37.01,19.79-27.61,20.15-20.22,45.89-20.17,60.25.04,13.07,17.07,51.01,15.6,75.07,3.47,1.37,5.47,17.88,8.94,19.33Z"/>
    <g>
      <path class="cls-4" d="M304.03,654.26c2.74-18.42,5.68-31.92,5.49-50.54"/>
      <path class="cls-19" d="M305.11,654.09c2.51-16.86,5.65-33.55,5.5-50.67,0-.51-2.18-.15-2.17.58.15,17.03-2.98,33.64-5.48,50.41-.1.68,2.06.29,2.16-.33h0Z"/>
    </g>
    <path d="M292.15,806.53c5.41,2.84,10.82,5.67,16.23,8.51,9.88,5.18,19.76,10.36,29.64,15.54,4.89,2.56,9.74,5.2,14.67,7.68,8.74,4.4,14.66,13.41,17.49,22.53,1.43,4.6,2.1,9.41,2.66,14.18.43,3.67.72,7.37.65,11.07-.05,2.64-.08,5.9-1.48,8.26-.05.09-.26.32-.06.11-.37.39.34.36.57.35.48-.02,1.31-.21,1.67-.58,1.1-1.15,1.31-3.3,1.5-4.77.95-7.16-.16-14.69-1.3-21.75-1.88-11.6-7.65-23.55-18.19-29.61-4.01-2.31-8.23-4.31-12.33-6.46-9.79-5.13-19.57-10.26-29.36-15.39-6.55-3.44-13.04-7.05-19.68-10.32-.11-.05-.21-.11-.32-.17-.44-.23-1.17.02-1.59.17-.11.04-1.11.47-.76.66h0Z"/>
    <g>
      <path class="cls-4" d="M180.59,539.72s5.46-9.24,12.04-12.5c0,0,26.38,33.52,48.05,34.1,0,0-16.48,7.29-18.18,18.51,0,0-44.2-22.96-41.94-39.15"/>
      <path class="cls-19" d="M181.61,539.77c2.74-4.61,6.62-9.58,11.47-12.05l-1.45-.06c3.21,4.07,6.76,7.9,10.41,11.57,6.97,7.02,14.67,13.75,23.48,18.37,4.56,2.39,9.56,4.22,14.76,4.39l-.04-1.17c-3.15,1.4-6.17,3.27-8.91,5.34-4.53,3.42-8.96,7.96-9.92,13.79l1.95-.68c-4.99-2.59-9.84-5.52-14.56-8.56-8.19-5.29-16.67-11.18-22.77-18.9-2.47-3.12-4.91-7.09-4.37-11.25.12-.93-2.08-.57-2.18.24-.48,3.67,1.2,7.17,3.23,10.11,2.71,3.95,6.26,7.3,9.91,10.37,7.25,6.1,15.27,11.3,23.47,16.02,1.84,1.06,3.68,2.1,5.56,3.08.53.28,1.83.04,1.95-.68.91-5.57,5.17-9.91,9.54-13.12,2.48-1.83,5.17-3.5,7.99-4.76.67-.3.93-1.14-.04-1.17-9.52-.31-18.37-6.23-25.58-11.95-6.69-5.31-12.79-11.38-18.41-17.81-1.18-1.35-2.35-2.71-3.46-4.12-.3-.38-1.1-.24-1.45-.06-5.33,2.72-9.6,7.86-12.62,12.95-.55.93,1.64.78,2.04.11h0Z"/>
    </g>
    <g>
      <path class="cls-4" d="M257.47,537.38s1.43,18.44-13.91,23.5c0,0,12.06,5.71,16.08,15.6,0,0,10.53-8.87,12.54-31.67,0,0-3.89-3.96-9.48-6.25-5.6-2.29-5.23-1.18-5.23-1.18Z"/>
      <path class="cls-19" d="M256.38,537.67c-.02-.23,0,.14.01.33.01.44.01.89,0,1.33-.03,1.49-.17,2.97-.42,4.44-.69,4.18-2.27,8.31-5.12,11.51-2.03,2.27-4.62,3.91-7.5,4.89-.69.23-1.35,1.01-.44,1.44-.39-.19.25.13.38.2.48.25.96.52,1.43.79,1.52.88,2.99,1.86,4.4,2.92,3.93,2.96,7.5,6.68,9.42,11.27.28.67,1.32.59,1.8.18,3.59-3.04,6.11-7.67,7.97-11.9,2.24-5.08,3.65-10.51,4.45-15.99.12-.85.23-1.71.33-2.57.07-.6.38-1.62.07-2.17-.18-.32-.65-.62-.92-.86-1.85-1.65-3.9-3.1-6.08-4.28s-5.14-2.71-7.77-2.86c-.69-.04-2.34.29-2.03,1.33.28.97,2.46.38,2.17-.58.11.36-.77.9-.81.8-.02-.04.2.02.43.06.44.08.88.23,1.31.36,2.7.88,5.26,2.11,7.61,3.7.85.57,1.68,1.19,2.47,1.84.42.34,1.18.79,1.45,1.27s-.13,1.72-.22,2.43c-.19,1.52-.42,3.03-.7,4.53-1.4,7.51-4.06,15.15-8.79,21.25-.57.73-1.16,1.44-1.8,2.1-.18.19-.39.36-.56.55-.18.21.17-.14-.03.03l1.8.18c-2.96-7.11-9.67-12.76-16.54-16.03l-.44,1.44c5.29-1.79,9.55-5.35,12.04-10.38,1.76-3.57,2.63-7.59,2.79-11.55.03-.86.04-1.73-.02-2.58-.07-.95-2.25-.44-2.17.58Z"/>
    </g>
    <g>
      <polyline class="cls-4" points="241.02 561.39 243.89 561.12 246.79 593.64 237.8 594.5"/>
      <path class="cls-19" d="M240.91,562.13l2.87-.27-.98-.45c.85,9.5,1.7,19.01,2.55,28.51.12,1.34.24,2.67.36,4.01l1.2-1.03c-3,.29-5.99.57-8.99.86-1.17.11-1.71,1.63-.22,1.48,3-.29,5.99-.57,8.99-.86.54-.05,1.25-.4,1.2-1.03-.85-9.5-1.7-19.01-2.55-28.51-.12-1.34-.24-2.67-.36-4.01-.04-.4-.69-.48-.98-.45-.96.09-1.91.18-2.87.27-1.18.11-1.71,1.62-.22,1.48h0Z"/>
    </g>
    <ellipse class="cls-19" cx="239.02" cy="573.72" rx="2.16" ry="2.75" transform="translate(-342.07 794.23) rotate(-88.16)"/>
    <ellipse class="cls-19" cx="240.17" cy="584.98" rx="2.16" ry="2.75" transform="translate(-352.21 806.27) rotate(-88.16)"/>
    <g>
      <path class="cls-4" d="M333.49,623.29l7.57,9.49s3.03,10.49-24.22,32.41c-9.23,7.43-14.97,7.28-14.97,7.28.03-1.8.34-3.32.39-5.11.06-1.88.18-3.78.44-5.63.24-1.73,1.02-5.75,1.32-7.47,0,0,18.65-5.48,29.46-30.97Z"/>
      <path class="cls-19" d="M332.47,623.7c1.13,1.42,2.26,2.84,3.4,4.26,1.33,1.66,2.9,3.29,4.05,5.08.18.29,0-.1.08.15.04.16.05.34.06.51.05.73-.04,1.45-.18,2.19-.67,3.52-2.56,6.77-4.57,9.67-4.4,6.35-10.12,11.77-15.99,16.75-3.89,3.29-7.92,6.58-12.7,8.5-1.04.42-2.16.79-3.24.99-.17.03-.35.06-.52.08-.11.01-.49.11-.23.03-.09.03-.23.01-.33.01l.65.26c.06-1.98.34-3.94.42-5.92.07-1.68.2-3.37.45-5.03.36-2.39.85-4.75,1.27-7.13l-.95.63c2.63-.78,5.13-2.14,7.45-3.56,5.78-3.56,10.79-8.33,14.85-13.76,3.29-4.4,5.95-9.23,8.11-14.27.25-.58-1.88-.35-2.16.31-5.18,12.13-14.04,23.93-26.34,29.47-.57.26-1.15.49-1.74.72-.15.06-.7.26-.26.1-.05.02-.11.04-.17.05-.27.08-.89.28-.95.63-.44,2.45-.95,4.89-1.31,7.36-.26,1.77-.37,3.56-.44,5.34-.07,1.89-.35,3.76-.41,5.65,0,.25.52.26.65.26,1.39.03,2.85-.38,4.17-.8,3.56-1.14,6.84-3.03,9.86-5.21,4.26-3.07,8.24-6.63,12.02-10.27,2.76-2.66,5.4-5.45,7.78-8.46,2.7-3.42,5.3-7.26,6.49-11.5.32-1.15.87-3.07.4-4.28-.13-.34-.49-.66-.71-.94-.87-1.09-1.74-2.18-2.61-3.27-1.44-1.81-2.89-3.62-4.33-5.43-.41-.52-2.5.22-2.03.81Z"/>
    </g>
    <path d="M181.86,881.71c8.67.51,17.34,1.04,26.01,1.57,17.79,1.09,35.58,2.21,53.36,3.4,9.3.62,18.6,1.26,27.89,1.97.94.07,2.65-1.26.97-1.39-17.35-1.31-34.72-2.44-52.09-3.54-15.35-.98-30.71-1.92-46.07-2.84-3.04-.18-6.07-.36-9.11-.54-.94-.06-2.65,1.29-.97,1.39h0Z"/>
    <rect class="cls-8" x="412.87" y="896.7" width="50.23" height="34.4"/>
    <polygon class="cls-25" points="463.1 931.11 475.95 924.58 475.95 890.17 463.1 896.7 463.1 931.11"/>
    <polygon class="cls-41" points="412.87 896.7 425.72 890.17 475.95 890.17 463.1 896.7 412.87 896.7"/>
    <rect class="cls-39" x="493.09" y="927.18" width="50.23" height="34.4"/>
    <polygon class="cls-10" points="543.32 961.58 556.17 955.05 556.17 920.65 543.32 927.18 543.32 961.58"/>
    <polygon class="cls-34" points="493.09 927.18 505.94 920.65 556.17 920.65 543.32 927.18 493.09 927.18"/>
    <rect class="cls-39" x="583.39" y="840.89" width="50.23" height="34.4"/>
    <polygon class="cls-10" points="633.62 875.29 646.48 868.76 646.48 834.36 633.62 840.89 633.62 875.29"/>
    <polygon class="cls-34" points="583.39 840.89 596.24 834.36 646.48 834.36 633.62 840.89 583.39 840.89"/>
    <rect class="cls-16" x="543.94" y="787.77" width="50.23" height="34.4"/>
    <polygon class="cls-31" points="594.17 822.17 607.02 815.64 607.02 781.24 594.17 787.77 594.17 822.17"/>
    <polygon class="cls-48" points="543.94 787.77 556.79 781.24 607.02 781.24 594.17 787.77 543.94 787.77"/>
    <rect class="cls-16" x="617.72" y="871.46" width="50.23" height="34.4"/>
    <polygon class="cls-31" points="667.95 905.86 680.8 899.33 680.8 864.93 667.95 871.46 667.95 905.86"/>
    <polygon class="cls-48" points="617.72 871.46 630.57 864.93 680.8 864.93 667.95 871.46 617.72 871.46"/>
    <rect class="cls-16" x="258.07" y="921.32" width="50.23" height="34.4"/>
    <polygon class="cls-31" points="308.3 955.72 321.15 949.19 321.15 914.79 308.3 921.32 308.3 955.72"/>
    <polygon class="cls-48" points="258.07 921.32 270.92 914.79 321.15 914.79 308.3 921.32 258.07 921.32"/>
    <rect class="cls-36" x="598.95" y="787.68" width="50.31" height="33.83"/>
    <polygon class="cls-20" points="649.26 821.52 662.13 815.09 662.13 781.26 649.26 787.68 649.26 821.52"/>
    <polygon class="cls-5" points="598.95 787.68 611.82 781.26 662.13 781.26 649.26 787.68 598.95 787.68"/>
    <rect class="cls-36" x="480.14" y="849.03" width="50.31" height="33.83"/>
    <polygon class="cls-20" points="530.45 882.86 543.32 876.44 543.32 842.6 530.45 849.03 530.45 882.86"/>
    <polygon class="cls-5" points="480.14 849.03 493.01 842.6 543.32 842.6 530.45 849.03 480.14 849.03"/>
    <rect class="cls-8" x="570.7" y="753.28" width="50.23" height="34.4"/>
    <polygon class="cls-25" points="620.93 787.68 633.78 781.15 633.78 746.75 620.93 753.28 620.93 787.68"/>
    <polygon class="cls-41" points="570.7 753.28 583.55 746.75 633.78 746.75 620.93 753.28 570.7 753.28"/>
    <path d="M1119.97,820.2c2.77-8.62,12-18.27,18.74-22.94,6.73-4.67,15.63-1.58,18.01-.79,17.69,5.84,27.7,19.27,42.16,30.35,11.08,8.49,23.21,15.62,36.02,21.18,13.02,5.65,26.89,7.93,40.02,12.92.09.04.19.07.28.11,6.51,2.47,11.95,7.16,15.41,13.21,1.26,2.21,2.54,4.38,3.92,6.42,1.91,2.82,3.89,4.88,2.44,8.52-2.68,6.7-13.78-.52-17.05-1.61-.61-.2-1.25-.24-1.87-.13-2.51.43-9.96,1.31-22.78-.4-1.24-.17-2.45-.24-3.63-.27-.02.07.02-.07,0,0-6.78-.52-43.53.21-48.99.13-10.76-.16-37.76-3.33-37.76-3.33,0,0-44.02-2.48-57.52,7.42l-21.11-50.62s30.94-11.54,33.71-20.16Z"/>
    <g>
      <path class="cls-28" d="M1309.01,900.93s-5.14,10.28-15.67,7.24c-10.52-3.04-32.8-11.79-51.26-15.72-25.63-5.47-47.21-.43-55.89-6.25-8.83-5.92,3.02-17.7-14.86-32.39-17.74-14.57-38.49-16.1-39.56-16.48-2.27-5.54,11.41-38.21,21.56-41.1,10.16-2.89,56.61,28.59,56.61,28.59l40.61,20.87,36.32,26.36,22.12,28.89Z"/>
      <path class="cls-2" d="M1192.1,813.8c-2.39,3.34-5.23,6.59-8.82,8.67-2.05,1.19-4.38,1.91-6.76,1.64-2.6-.29-5.19-1.51-7.65-2.36-7.89-2.76-17.32-7.08-25.66-3.58-4.7,1.98-7.88,5.97-10.27,10.34-.32.58,1.13.41,1.34.01,2.29-4.2,5.33-8.22,9.95-9.98,4.2-1.59,8.82-.75,13.01.41,5.23,1.45,10.29,3.46,15.44,5.18,3.93,1.31,7.74.87,11.34-1.17,3.84-2.17,6.89-5.59,9.43-9.14.37-.51-1.08-.38-1.34-.01h0Z"/>
      <path class="cls-2" d="M1131.4,834.46c9.27.55,18.25,2.52,26.44,7.06,4.99,2.76,9.44,6.29,13.73,10.03,3.12,2.72,6.15,5.57,8.86,8.7,4.62,5.33,7.86,11.77,13.23,16.47,3.09,2.7,7,4.26,10.92,5.29,4.84,1.27,9.83,1.84,14.79,2.36,6.45.67,12.92,1.21,19.33,2.19.89.14,1.78.28,2.66.43.55.09,1.41.09,1.91.32.33.15.64.53.87.79,1.61,1.95.27,3.98-1.41,5.37-.76.62.41,1.07.95.62,1.39-1.15,2.93-2.72,2.67-4.69-.14-1.08-.84-2.06-1.69-2.71-.37-.28-.59-.32-1.09-.41-1.61-.31-3.22-.57-4.84-.81-3.15-.47-6.31-.84-9.48-1.17-5.62-.59-11.27-1.02-16.86-1.85-4.72-.71-9.6-1.68-13.85-3.95-6.96-3.72-10.55-11.12-15.3-17.07-2.35-2.95-5.01-5.64-7.78-8.19-4.25-3.91-8.69-7.7-13.58-10.79-9.12-5.75-19.3-8.36-29.98-8.99-.68-.04-1.49.96-.51,1.01h0Z"/>
      <path class="cls-2" d="M1223.45,831.14c-2.82-1.45-5.64-2.9-8.46-4.35-.27-.14-1.47-.02-1.4.45.86,5.99,3.17,11.63,6.66,16.58,4.07,5.77,9.6,10.03,15,14.48,5.88,4.84,11.78,9.67,17.44,14.78,4.29,3.87,8.7,7.9,12.03,12.66,1.16,1.66,2.35,3.6,2.56,5.66.32,3.23-2.84,5.18-5.44,6.25-.94.39-.06.67.53.43,2.38-.98,5.22-2.43,6.14-5.03.52-1.45.14-3.03-.44-4.4-2.01-4.71-6.14-8.62-9.75-12.12-5.43-5.26-11.24-10.11-17.06-14.92-5.85-4.85-12.28-9.37-17.22-15.18s-7.94-12.29-8.98-19.56l-1.4.45c2.82,1.45,5.64,2.9,8.46,4.35.4.2,1.61-.39,1.36-.52h0Z"/>
      <g>
        <path class="cls-45" d="M1217.34,828.82l.31-.06-.34-.18c.01.08.02.16.04.23Z"/>
        <path class="cls-13" d="M1217.23,829.16c.09-.02.18-.03.27-.05h.04c.07-.02.13-.03.2-.05l.19-.06.16-.08c.07-.03.13-.08.18-.13.03-.02.06-.05.08-.09.02-.03.03-.06.03-.09,0-.03,0-.06-.02-.08-.02-.05-.06-.08-.12-.09-.1-.05-.2-.1-.3-.16l-.04-.02-.13-.03c-.08-.01-.17-.01-.25,0-.06,0-.13.01-.19.03-.1.02-.19.04-.29.08l-.16.08-.13.09c-.06.04-.1.08-.12.14-.03.04-.04.08-.03.13.01.08.02.16.04.23.02.05.05.08.09.1.05.04.11.06.18.06.08.01.17.01.25,0,.1,0,.19-.02.29-.05l.19-.06c.11-.04.21-.1.3-.16l.1-.09c.05-.05.07-.11.06-.18-.01-.08-.02-.16-.04-.23l-1.31.52c.1.05.2.1.3.16l.04.02.7-.67c-.09.02-.18.03-.27.05h-.04c-.1.02-.2.04-.29.08-.09.03-.18.06-.26.11-.07.03-.13.08-.18.13-.05.04-.08.08-.1.14v.09c.02.06.07.11.14.13l.13.03c.11.01.23.01.34,0Z"/>
      </g>
      <g>
        <path class="cls-45" d="M1201.87,823.15l1.45,1.14c.89-1.13,1.7-1.95,2.2-2.42-.49-.32-1.03-.67-1.59-1.04-.54.53-1.27,1.31-2.06,2.31Z"/>
        <path class="cls-13" d="M1201.31,823.56c.48.38.97.76,1.45,1.14.31.24.94.07,1.16-.21.68-.86,1.41-1.67,2.2-2.42.18-.17.17-.47-.04-.61-.53-.35-1.06-.69-1.59-1.04-.36-.23-.88-.07-1.16.21-.74.72-1.42,1.5-2.06,2.31-.2.25-.15.57.18.67s.8,0,1.02-.27c.64-.81,1.32-1.59,2.06-2.31l-1.16.21c.53.34,1.06.69,1.59,1.04l-.04-.61c-.79.75-1.52,1.56-2.2,2.42l1.16-.21-1.45-1.14c-.48-.38-1.76.31-1.12.82Z"/>
      </g>
      <g>
        <path class="cls-45" d="M1194.13,819.61c.89-1.05,1.76-2.18,2.58-3.35l-.22-.16c-.44-.27-.89-.55-1.35-.84-.78,1.1-1.59,2.16-2.43,3.15l1.41,1.2Z"/>
        <path class="cls-13" d="M1194.8,819.61c.91-1.08,1.77-2.2,2.58-3.35.05-.07.1-.21,0-.28-.53-.38-1.11-.71-1.66-1.06-.18-.11-.49-.05-.67,0-.2.05-.45.15-.58.33-.77,1.08-1.57,2.14-2.43,3.15-.06.07-.09.21,0,.28.47.4.94.8,1.41,1.2.24.21.69.11.95,0,.14-.06.64-.34.39-.55-.47-.4-.94-.8-1.41-1.2v.28c.85-1.01,1.66-2.07,2.42-3.15l-1.25.34c.51.32,1.04.62,1.47.93v-.28c-.81,1.15-1.67,2.27-2.58,3.35-.22.26.19.4.38.39.34,0,.73-.12.96-.39Z"/>
      </g>
      <g>
        <path class="cls-9" d="M1158.46,786.22s-6.7,8.11-5.77,8.68l-.68,1.47c5.84,3.59,26.01,15.92,38.79,22.84,3.9,2.11,9,4.52,14.91,7.32,13.71,6.48,32.48,15.36,50.37,27.35,3.2,2.15,6.32,4.35,9.25,6.55,24.53,18.41,41.27,38.14,44.81,42.45l1.16-1.13c.54.66.82,1.02.82,1.02,0,0,1.72-1.44,3.28-2.75h0c.14-.12.27-.23.41-.34.56-.47,1.07-.9,1.45-1.22-6.79-15.86-58.14-56.08-72.19-61.95-.89-.37-1.84-.78-2.83-1.21-.41-.18-.85-.38-1.27-.57-.65-.29-1.29-.58-1.98-.89-14.75-6.72-35.89-17.7-35.89-17.7,0,0,1.45-1.71,3.02-3.81h0s.03-.04.05-.07c.67-.89,1.36-1.84,1.97-2.76-21.79-16.86-44.88-29.37-44.88-29.37l-4.77,6.08Z"/>
        <path class="cls-13" d="M1158.31,786.23c-.97,1.17-1.91,2.37-2.83,3.58-.67.89-1.34,1.8-1.95,2.73-.39.59-.96,1.32-1.08,2.03-.03.18.05.31.03.44-.07.44-.45.97-.64,1.38,0,.01,0,.02,0,.03,3.65,2.24,7.31,4.47,10.97,6.68,5.33,3.22,10.68,6.4,16.06,9.53,5.2,3.02,10.42,6.04,15.8,8.73,6.26,3.13,12.63,6.03,18.94,9.06s12.85,6.29,19.15,9.68c7.03,3.78,13.94,7.81,20.64,12.17,6.9,4.5,13.53,9.38,19.91,14.59,5.71,4.66,11.22,9.55,16.55,14.64,4.17,3.99,8.22,8.1,12.14,12.34,2.43,2.62,4.8,5.29,7.1,8.03.29.35.58.7.87,1.05.05.06.25-.02.29-.06.39-.38.77-.76,1.16-1.13l-.29.06c.28.34.55.68.82,1.02.05.07.24-.03.29-.06,1.09-.92,2.19-1.83,3.28-2.75l-.3.05h0c.03.09.26-.02.3-.05.62-.52,1.24-1.04,1.85-1.56.01,0,.02-.02.01-.03-1.25-2.91-3.25-5.5-5.25-7.94-2.85-3.47-5.97-6.72-9.17-9.87-3.81-3.74-7.76-7.34-11.79-10.85-4.23-3.68-8.55-7.26-12.93-10.76-4.2-3.35-8.47-6.61-12.82-9.78-3.69-2.68-7.42-5.3-11.27-7.75-2.68-1.71-5.41-3.41-8.3-4.73s-6.05-2.63-9.04-4.01c-3.08-1.43-6.15-2.9-9.2-4.38-5.72-2.78-11.42-5.63-17.09-8.52-1.82-.93-3.64-1.85-5.45-2.79-.48-.25-.97-.5-1.45-.75-.09-.05-.26-.1-.34-.17-.1-.1-.09.06.02-.11.29-.45.7-.85,1.04-1.27.64-.8,1.27-1.6,1.89-2.42l-.29.06h0c.07.05.26-.01.3-.08.67-.94,1.37-1.87,2.02-2.83,0-.01,0-.02,0-.03-7.93-6.13-16.18-11.84-24.61-17.24-5.64-3.61-11.37-7.1-17.19-10.41-1.02-.58-2.05-1.16-3.08-1.72-.07-.04-.24,0-.29.06-1.59,2.03-3.18,4.06-4.77,6.08-.07.08.24.04.29-.02,1.59-2.03,3.18-4.06,4.77-6.08l-.29.06c3.32,1.8,6.59,3.73,9.83,5.67,7.8,4.67,15.46,9.59,22.91,14.8,2.48,1.73,4.94,3.5,7.38,5.3,1.28.95,2.55,1.9,3.81,2.87.26.2.88.49.82.89-.04.26-.49.72-.64.93-.41.58-.84,1.14-1.25,1.72l.3-.08h0c-.06-.05-.25,0-.29.06-.98,1.29-1.98,2.57-3.02,3.81,0,.01-.03.03,0,.05,2.51,1.31,5.04,2.59,7.56,3.88,5.59,2.84,11.2,5.65,16.84,8.39,3,1.46,6.01,2.9,9.04,4.31,3,1.39,6.04,2.68,9.06,4.02,2.81,1.26,5.45,2.89,8.04,4.54,3.73,2.37,7.37,4.9,10.95,7.49,4.23,3.06,8.38,6.22,12.47,9.45,4.32,3.41,8.57,6.92,12.74,10.51,4,3.45,7.92,6.98,11.72,10.65,3.28,3.17,6.49,6.43,9.45,9.91,2.16,2.54,4.31,5.21,5.83,8.19.11.22.36.57.39.82.03.3-.43.55-.66.74-.37.31-.74.63-1.12.94l.3-.05h0c-.03-.09-.26.02-.3.05-1.09.92-2.19,1.83-3.28,2.75l.29-.06c-.27-.34-.55-.68-.82-1.02-.05-.06-.25.02-.29.06-.39.38-.77.76-1.16,1.13l.29-.06c-1.9-2.32-3.88-4.58-5.89-6.8-3.65-4.04-7.42-7.97-11.3-11.79-5.15-5.07-10.5-9.96-16.02-14.62-6.35-5.36-12.94-10.44-19.82-15.1s-13.82-8.83-21-12.79c-6.52-3.6-13.16-6.97-19.86-10.23-6.35-3.08-12.76-6.03-19.1-9.12-5.59-2.73-11.01-5.77-16.4-8.88-5.54-3.2-11.04-6.47-16.52-9.77-3.93-2.37-7.86-4.75-11.77-7.15-.07-.05-.35-.16-.39-.23-.04-.08.11-.31.16-.41l.49-1.06s0-.02,0-.03c-.37-.27.43-1.42.58-1.67.62-1.04,1.34-2.02,2.07-2.99,1.01-1.35,2.05-2.68,3.12-3.98.07-.08-.23-.04-.29.02Z"/>
      </g>
      <g>
        <path class="cls-9" d="M1197.66,882.46c.05-.52-.21-1.01-.62-1.29-.18-.12-.39-.2-.62-.23-.75-.09-1.42.45-1.49,1.2l-.78,8.44c.88.12,1.79.21,2.74.29l.78-8.41Z"/>
        <path class="cls-13" d="M1198.38,882.38c.08-1.93-2.36-2.42-3.61-1.27-.56.51-.58,1.15-.65,1.84-.18,1.98-.37,3.96-.55,5.94-.05.59-.11,1.18-.16,1.77-.03.27.24.35.46.38.91.12,1.82.21,2.74.29.29.03.96-.15,1-.53.26-2.8.52-5.61.78-8.41.06-.65-1.41-.4-1.46.15-.26,2.8-.52,5.61-.78,8.41l1-.53c-.91-.08-1.83-.17-2.74-.29l.46.38c.25-2.73.51-5.47.76-8.2.02-.21.03-.42.12-.61.15-.32.34-.37.65-.19.36.21.55.62.53,1.03-.03.66,1.43.39,1.46-.15Z"/>
      </g>
      <g>
        <path class="cls-9" d="M1205.58,883.38c.05-.52-.21-1.01-.62-1.29-.18-.12-.39-.2-.62-.23-.75-.09-1.42.45-1.49,1.2l-.75,8.09c.9.03,1.81.05,2.76.07l.72-7.84Z"/>
        <path class="cls-13" d="M1206.3,883.28c.08-1.89-2.25-2.25-3.5-1.27-.62.49-.68,1.1-.74,1.81-.18,1.9-.35,3.8-.53,5.71-.05.57-.11,1.15-.16,1.72-.02.24.25.29.44.29.92.03,1.84.05,2.76.07.24,0,.98-.14,1.01-.49.24-2.61.48-5.23.72-7.84.05-.55-1.4-.27-1.45.19-.24,2.61-.48,5.23-.72,7.84l1.01-.49c-.92-.02-1.84-.04-2.76-.07l.44.29c.24-2.63.49-5.27.73-7.9.02-.26.05-.53.22-.76.03-.04.09-.08.11-.12.07-.11.14-.03-.01-.03.14,0,.28.04.4.11.39.22.61.68.59,1.12-.02.56,1.43.26,1.45-.19Z"/>
      </g>
      <g>
        <path class="cls-9" d="M1212.85,891.37l.65-7.06c.05-.52-.21-1.01-.62-1.29-.18-.12-.39-.2-.62-.23-.75-.09-1.42.45-1.49,1.2l-.68,7.33c.9.01,1.82.03,2.76.05Z"/>
        <path class="cls-13" d="M1213.58,891.17c.22-2.33.47-4.67.65-7s-3.94-2.04-4.18.03c-.13,1.17-.22,2.34-.32,3.52-.12,1.26-.23,2.53-.35,3.79,0,.08.23.1.25.1.92.01,1.84.03,2.76.05.33,0,.75-.08,1.02-.27.21-.15.21-.3-.08-.31-.92-.02-1.84-.04-2.76-.05l.25.1c.21-2.27.42-4.54.63-6.81.04-.42.04-.86.35-1.19.02-.02.11-.07.12-.1.04-.11-.34-.03-.17.06.12.07.28.07.41.15.27.16.47.41.57.71.07.22.08.44.06.67-.1,1.17-.22,2.34-.32,3.51s-.21,2.3-.32,3.44c-.02.18,1.41.04,1.45-.39Z"/>
      </g>
      <g>
        <path class="cls-9" d="M1221.43,885.23c.05-.52-.21-1.01-.62-1.29-.18-.12-.39-.2-.62-.23-.76-.09-1.42.45-1.49,1.2l-.61,6.61c.91.03,1.82.07,2.75.12l.59-6.42Z"/>
        <path class="cls-13" d="M1222.16,885.16c.08-1.69-1.82-2.39-3.16-1.65-.73.4-1,1.05-1.07,1.83-.15,1.58-.29,3.16-.44,4.74-.05.5-.09,1.01-.14,1.51-.02.26.24.42.47.43.92.03,1.83.08,2.75.12.32.02.95-.14.99-.56.2-2.14.39-4.28.59-6.42.06-.7-1.41-.48-1.46.13-.2,2.14-.39,4.28-.59,6.42l.99-.56c-.92-.05-1.83-.09-2.75-.12l.47.43c.2-2.18.37-4.37.6-6.55.02-.24.1-.63.37-.7.55-.15.93.67.91,1.09-.04.71,1.43.47,1.46-.13Z"/>
      </g>
      <g>
        <path class="cls-9" d="M1229.35,886.15c.05-.52-.21-1.01-.62-1.29-.18-.12-.39-.2-.62-.23-.75-.09-1.42.45-1.49,1.2l-.57,6.16c.91.07,1.82.15,2.74.24l.56-6.09Z"/>
        <path class="cls-13" d="M1230.09,886.09c.08-1.58-1.62-2.33-2.95-1.76-.8.35-1.2,1.02-1.28,1.85-.14,1.47-.27,2.94-.41,4.41-.05.49-.09.98-.14,1.47-.02.27.24.41.47.43.91.08,1.83.15,2.74.24.32.03.95-.15.99-.56.19-2.03.38-4.06.56-6.09.06-.7-1.41-.48-1.46.13-.19,2.03-.38,4.06-.56,6.09l.99-.56c-.91-.09-1.83-.17-2.74-.24l.47.43c.19-2.04.32-4.1.57-6.14.03-.22.11-.6.37-.67.55-.15.93.68.9,1.09-.04.71,1.43.48,1.46-.13Z"/>
      </g>
    </g>
    <ellipse class="cls-24" cx="948.38" cy="462.22" rx="23.99" ry="16.02" transform="translate(-55.58 137.96) rotate(-8.08)"/>
    <path class="cls-22" d="M1054.26,622.28l39.78,150.29-51.01,9.6,4.63,100.69s-261.2.56-276.41-20.63c-27.15-37.81-26.84-60.1-12.18-86.68,26.91-48.8,214.25-160.93,217.6-159.02l77.58,5.75Z"/>
    <path class="cls-21" d="M987.4,193.79s1.8,15.56,9.42,33.09c10.99,25.29,37.12,31.93,37.12,31.93l-83.46,82.61-47.45-26.61s14.24-21.67,13.28-27.06c-.96-5.38-16.84-39.03-16.84-39.03"/>
    <path class="cls-38" d="M1013.87,247.53l6.6,1.36c21.24,3.24,58.07,6.79,87.67,19.67,45.59,19.85,22.39,93.77,25,114.54,1.2,10.09-23.19,107.49.44,161.38,15.64,35.86,29.1,72.63,40.31,110.1l-58.58,24.06c-28.62,11.76-75.76-16.51-106.49-13.14l-98.05-20.71c-8.58-39.18-1.22-17.45-10.32-69.4l-40.67-154.59,9.75-78.07s20.18-20.12,20.96-24.29l23.19-36.6s-5.46,28.72,25.79,25c32.27-3.84,46.53-12.73,65.15-36.98,0,0,9.7-10.88,9.27-22.33Z"/>
    <path class="cls-38" d="M1227.03,596.71c-4.48-19.32-14.84-40.37-26.1-56.76-10.88-15.84-19.89-29.87-24.55-49.3-11.66-48.69-22.02-195.57-56.94-213.98-5.53-2.92-67.88-3.36-67.88-3.36,0,0-1.74-1.74-1.74-1.74,4.79,4.8-24.45,32.91-27.61,35.7-21.02,18.51-49.14,39.89-77.28,22.96l.18,6.48-3.4,34.85,13.17,94.66c-.17-.98,4.33,33.34,8.06,48.92,14,58.7,50.95,208.16,56.42,218.18,3.67,7.16,11.33,11.36,19.34,10.61,0,0,184.87-100.73,185.68-101.17,9.35-5.1,6.96-16.34,5.93-26.71,0,0,.09-4.69-3.3-19.31Z"/>
    <path class="cls-22" d="M1092.42,669.36l44.74,135.12,1.27,3.14,11.11,7.99c8.89,19.75,13.55,41.35,13.66,63.24l.09,19.81s-281.03,72.15-341.44,26.31c-36.43-27.65-29.81-58.5-16.51-85.87,24.24-49.86,205.03-182.87,211.17-183.07.08,0,.15.02.23.02l75.67,13.32Z"/>
    <path class="cls-22" d="M1229.37,638.65s-33.87,22.6-89.23-5.53c-17.76,11.69-36.51,21.85-55.56,31.33-35.76,17.79-72.67,33.23-107.94,51.9,26.71,23.93,75.45,65.23,106.61,82.91,40.75,23.44,90.96,10.77,125.18-21.48,13.8-13.42,43.38-92.48,20.94-139.14Z"/>
    <path d="M1139.85,810.71c-11.17,2.57-23,4.73-34.57,6.87-16.33,3.01-32.69,5.88-49.05,8.7-16.78,2.89-33.56,5.71-50.36,8.48-12.93,2.13-25.86,4.24-38.8,6.27-3.48.55-7.07.88-10.5,1.68-5.94,1.38-12.88,3.89-16.82,8.77-1.07,1.32-1.85,2.83-2.17,4.51-.17.91,2.98.39,3.15-.5,1.26-6.6,9.1-9.67,14.74-11.21.44-.12.88-.23,1.33-.34.14-.03.28-.06.42-.1.37-.09-.43.06-.1.02.67-.09,1.33-.2,2-.3,1.94-.29,3.87-.59,5.81-.89,12.31-1.92,24.6-3.92,36.89-5.94,16.5-2.71,32.98-5.48,49.46-8.3,16.44-2.82,32.87-5.68,49.27-8.68,12.22-2.24,24.46-4.48,36.6-7.14,1.01-.22,2.02-.45,3.03-.68.36-.08,1.57-.48,1.42-1.03s-1.44-.25-1.75-.18h0Z"/>
    <path d="M794.54,871.36c.35-17,.79-34.39,5.75-50.79,2.4-7.92,5.97-15.55,10.98-22.15,4.96-6.53,10.97-12.18,17.04-17.67,6.04-5.46,12.1-10.85,17.79-16.69,6.4-6.58,13.04-12.92,19.87-19.05,13.32-11.94,27.39-23.05,41.94-33.44,13.52-9.66,27.48-18.72,41.75-27.24,1.66-.99,3.33-1.98,4.99-2.95.57-.33.75-1.1.19-1.51-.64-.48-1.6-.14-2.2.21-14.28,8.37-28.27,17.25-41.84,26.73-14.74,10.29-29,21.29-42.55,33.11-6.93,6.05-13.69,12.3-20.21,18.78-3.09,3.07-6.06,6.26-9.2,9.29-2.92,2.83-5.95,5.54-8.98,8.26-6.18,5.54-12.43,11.07-17.88,17.35-5.45,6.28-9.73,13.35-12.71,21.11-6.17,16.06-7.24,33.54-7.7,50.57-.06,2.12-.1,4.24-.15,6.36-.03,1.54,3.08,1.04,3.11-.27h0Z"/>
    <path class="cls-38" d="M1218.89,591.04c8,5.26,10.18,20.25,10.63,28.12.14,2.4-3.12,3.99-4.03,6.22-1.31,3.19-4.44,5.19-7.39,6.98-16.78,10.17,15.77,4.64-2.41,12-35.4,14.33-123.65,27.01-161.76,29.39-38.12,2.38-92.84-9.02-130.5-15.4-6.57-1.11-11.68-6.95-12.66-13.54-1.06-7.18,4.14-8.91,10.85-11.67,17.92-7.39,52.04,4.58,69.95-2.81"/>
    <path class="cls-44" d="M991.46,193.1c.03.1.04.18.07.28,0-.13-.02-.23-.07-.28Z"/>
    <path class="cls-21" d="M944.76,269.44l-31.39,9.12-16.66,1.62c-1.56.55-13.67-13.08-15.42-14.74-5.4-5.15-12.46-11.91-16.76-18.03-4.61-6.56-11.3-11.35-15.32-19.75-2.94-6.15-4.46-10.64-4.48-22.25,0-2.95-.86-5.61-2.46-8.25-3.39-5.55-6.23-12.42-10.6-19.92-.34-.59-2.1-3.41-2.08-4.18,0,0-12.59-33.14-10.51-47.18,2.08-14.04,9.31-22.57,17.4-27.78,8.09-5.22,34.71-12.31,34.71-12.31l34.34-17.16,35.69,4.97,27.95,32.06,12.13,43.96,8.22,40.14"/>
    <path d="M969.98,149.81c.93,3.4,2.27,21.44,2.98,24.83l17.17-6.06c1.42-13.18,3.21-28.73,4.17-32.45,1.51-5.82-15.22-26.67-17.93-35.49l-.59-1.9c-2.58-8.47-15.03-19.15-33.29-28.58-31.43-16.23-30.36-16.88-65.74-2.33-2.43,1-4.83,2.1-7.12,3.25-21.66,10.9-40.8,16.84-49.02,40.71-5.93,17.21-3.71-2.69.33,6.6-5.62-19.1-4.08-2.33-2.86-5.2,7.15-16.78,17.38-4.77,22.7-7.45,4.64-2.34,8.75-2.24,9.57-2.19,5.95-.59,11.04-3.06,16.6-5.86,4.14-2.08,14.33-8.21,15.2-8.73,2.26-3.01-4.04-13.54,1.1-16.13,11.95-6.01,30.94-6.15,37.93-5.34,8.27.96,27.8,2.52,31.76,22.53"/>
    <path class="cls-21" d="M987.13,195.4c14.23,10.61,13.54-15.14,13.54-15.14,5.67-15.03,1.36-27.46-1.94-35.84-3.3-8.38-12.61-5.01-12.61-5.01-7.64,3.62-9.71,9.11-7.07,38.2"/>
    <path class="cls-40" d="M843.28,96.45c12.91-4.48,44.03-24.65,61.27-31.54,7.14-2.85,37.27,7.24,41.77,10.31,10.3,7.04.73,34.14,23.03,60.06,7.37,8.56,7.44-10.69,14.77-5.91,7.33,4.79,10.18,6.76,10.18,6.76-5.6-29.99-5.37-28.95-21.02-55.23-15.61-26.21-50.53-28.46-66.25-25.94-15.72,2.53-62.11,23-73.08,33.29"/>
    <path d="M907.3,167.65c1.61-1.72,4.23-1.65,5.92-.96.4.16,1.49.64,2.32,1.8,1.07,1.48,1.07,3.6.44,5.1-.85,2.01-3.07,3.09-5.14,2.89-2.81-.27-4.61-2.9-4.76-5.22-.02-.43-.08-2.23,1.22-3.62"/>
    <path d="M850.58,188.1c-2.33-.33-4.33,1.37-5.21,2.97-.21.38-.76,1.43-.68,2.86.1,1.83,1.42,3.47,2.86,4.25,1.93,1.03,4.33.48,5.82-.97,2.01-1.97,1.77-5.15.43-7.05-.25-.35-1.34-1.79-3.22-2.06"/>
    <path d="M869.61,189.78s-10.74-5.13-16.74-3.62c-8.75,2.21-10.25,4.89-11.88,9.83,0,0,4.12-6.02,10.33-7.41,5.93-1.33,18.29,1.2,18.29,1.2Z"/>
    <path d="M896.42,178.01s9.24-11.69,15.02-13.9c8.43-3.22,20.34-1.78,24.52,1.33,0,0-15.97-2.67-21.85-.24-5.62,2.32-17.68,12.81-17.68,12.81Z"/>
    <path d="M883.23,148.97c.72,2.02,1.44,4.05,2.17,6.08.55,1.54,1.7,5.1,2.26,6.64,4.41-3.03,8.1-6.53,11.05-8.2,5.85-3.31,11.68-7.14,18.34-8.4,3.19-.6,6.12-.76,9.19-.09.97.21,3.87,1.59,4.87.61.41-.4-1.27-2.6-1.45-2.83-3.41-4.44-8.41-5.02-14.05-4.37-11.48,1.32-22.07,5.37-32.39,10.56"/>
    <path d="M827.71,170.61s3.27-1.94,3.3-1.96c9.15-5.49,19.2-8.25,29.7-9.93.62,2.05,1.25,4.11,1.87,6.17.47,1.57,1.42,4.37,1.89,5.94-4.94.06-9.34-.32-12.45.01-6.16.65-12.67,1.26-18.26,4.05-.44.22-2.81,1.46-3.23,1.69-2.73-2.27-3.5-5.28-2.82-5.98Z"/>
    <path d="M919.01,244.97l-22.1,7.53s8.14,6.66,13.47,4.78c3.33-1.18,6.4-7.3,8.63-12.3Z"/>
    <g>
      <path class="cls-9" d="M887.91,220.73c2.96.46,6.64-1.19,8.59-3.67.43-.55,2.41-.86,1.8-.09-2.57,3.27-7.95,5.38-11.77,4.79-.38-.06-.41-.33-.06-.61.36-.29,1.03-.49,1.44-.43"/>
      <path class="cls-9" d="M899.13,215.86c1.39-1.4,3.11-2.49,4.93-3.3.27-.12.66-.14.92-.02.21.09.31.27.15.46-.68.81-1.71,1.41-2.73,1.75-.32.11-.77.17-1.05-.04-.26-.2,0-.48.24-.56.84-.28,1.63-.75,2.2-1.42.36.15.71.29,1.07.44-1.63.72-3.16,1.71-4.4,2.96-.25.25-.71.31-1.03.24-.24-.05-.55-.26-.31-.51"/>
      <path class="cls-9" d="M906.65,213.47c2.17-.83,4.4-2.71,4.88-4.78.73-3.12-2.18-6.53-5.49-7.19-.36-.07-.28-.36,0-.53.36-.23.88-.24,1.26-.16,2.88.58,5.56,3.26,6.05,5.77.45,2.35-1.09,4.65-3.49,6.22-.71.47-1.5.89-2.31,1.2-.33.12-.96.23-1.22.03-.26-.21,0-.44.31-.55"/>
      <path class="cls-9" d="M883.5,221.01c.03-.3-.25-.39-.42-.33-.59.22-1.25.27-1.9.03-.11.31-.21.62-.32.93,1.23-.29,2.56-.31,3.87.04.26.07.53-.13.66-.36.1-.17.15-.51-.11-.58"/>
      <path class="cls-9" d="M885.27,220.75c-1.47-.39-2.95-.35-4.33-.03-.2.05-.42.24-.49.48-.06.18-.02.39.17.45"/>
      <path class="cls-9" d="M879.06,222.92c-1.44.45-3.46.06-4.76-1.38-1.96-2.17-2.04-5.55-.83-7.8.13-.25-.05-.44-.27-.43-.29,0-.54.26-.67.52-1.05,1.97-1.24,4.62-.17,6.93,1.01,2.15,2.92,3.23,4.85,3.28.57.01,1.16-.05,1.7-.21.22-.07.57-.31.58-.61.01-.31-.23-.35-.43-.29"/>
    </g>
    <path d="M838.17,104.13c.68-1.1,2.06-1.86,3.36-2.55l1.32-.96c4.36-1.5,8.76-2.87,13.19-4.1,1.12-.31,2.28-.62,3.37-.53.12,0,.23.03.35.05,3.2-1.19,6.41-2.34,9.65-3.41l1.61-.1c1.44-.27,2.99-.53,4.16-.17,1.17.36,1.62,1.64.48,2.47-1.19.86-3.38.81-4.05,1.86-.73,1.16,1.6,1.75,1.33,2.93-.17.74-1.27,1.33-1.89,2.02-.74.83-.75,1.78-1.42,2.63-.68.87-2.04,1.52-3.28,1.59-1.19.5-3,.55-3.11,1.52-.03.26.11.49.21.72.36.92-.1,2.1-1.12,2.86-1.01.75-2.52,1.03-3.61.66-1.07-.36-1.7-1.24-2.81-1.53-.35-.09-.74-.12-1.13-.16-.21.39-.52.75-.92,1.04-1.01.75-2.51,1.03-3.61.66-1.07-.36-1.7-1.24-2.81-1.53-.93-.24-2.18-.08-2.79-.66-.98-.92.46-2.99-.87-3.6-1.21-.55-2.89.93-4.37.9-1.42-.03-1.91-1.51-1.23-2.62Z"/>
    <g>
      <path d="M993.19,138.47c1.31-.48,2.68-1,3.61-2.05.93-1.04,1.26-2.77.33-3.82-1.47-1.66-5.11-.88-5.55-3.05,1.09-2.6,5.48-3.09,5.68-5.91.16-2.28-2.6-3.47-4.82-3.99.92-1.66.89-.41,2.5-1.41,1.62-1,1.27-5.56-.2-6.76-1.66-1.36-1.85.22-1.8-1.93,1.26-.88-2.18-1.1-1.44-2.45s.75-3.24-.42-4.24c-1.4-1.2-1.58-2.37-2.1-4.15-.45-1.52-3.48-.85-2.96-2.35.94-2.72-2.18-4.98-4.8-6.17.95-1.18-.59-.97-.22-2.44.37-1.47-.03-3.25-1.33-4.02-.8-.47-1.78-.5-2.64-.83-3.56-1.37-3.26-6.45-2.31-10.14-2.46,1.03-5.62-.16-6.79-2.56-.55-1.13-.7-2.46-1.48-3.45-.78-.98-2.65-1.24-3.11-.07"/>
      <path d="M993.47,139.52c1.7-.63,3.51-1.3,4.68-2.77.98-1.23,1.47-3.13.53-4.53-.76-1.15-2.14-1.55-3.4-1.86-.54-.13-1.22-.21-1.7-.51-.14-.09-.29-.17-.38-.32-.07-.18-.1-.19-.09-.03.07-.14.16-.26.26-.37,1.7-1.7,4.7-2.48,5.3-5.09.78-3.36-3.19-4.87-5.73-5.49l.91,1.29c.45-.76-1.05,0-.25-.04.35-.01.69-.1,1.02-.21.75-.24,1.49-.67,1.99-1.29.82-1.03.95-2.49.87-3.75s-.38-2.64-1.25-3.6c-.47-.52-1.1-.9-1.76-1.1.03.01-.69-.2-.72-.14.5.57.73.68.68.35,0-.2,0-.41,0-.61l-.51.81c.78-.62,1.11-1.53.24-2.25-.28-.23-.69-.45-1.02-.61-.39-.18-.32-.02-.08-.41.69-1.12.59-2.93-.04-4.04-.37-.65-1-1.05-1.44-1.66s-.63-1.23-.83-1.91c-.38-1.29-.69-2.13-2.01-2.64-.33-.13-1.02-.15-1.26-.39-.15-.14.12.35.02,0-.06-.23.18-.77.19-1.04.09-3.06-3.23-5.01-5.62-6.13l.4,1.48c.46-.65.76-1.29.35-2.04-.14-.25-.32-.37-.36-.65-.07-.41.18-1.02.18-1.45,0-2.3-1.4-3.76-3.55-4.31-2.01-.51-3.02-1.52-3.37-3.6-.33-1.96.04-4.04.51-5.95.3-1.18-1.6-1.01-2.16-.8-1.27.48-2.83-.09-3.79-.97-1.18-1.08-1.31-2.67-2.01-4.03-1.22-2.38-4.98-2.94-6.34-.36-.79,1.49,2.2,1.57,2.83.38-.46.87-.35-.3-.02.26.1.17.47.41.59.59.36.54.51,1.21.72,1.82.44,1.26,1.03,2.34,2.09,3.19,2.08,1.67,4.82,1.85,7.25.93l-2.16-.8c-.78,3.13-1.36,7.54,1.27,10,.64.6,1.42,1,2.27,1.23,1.04.29,2.13.38,2.63,1.48.45,1,.04,1.84.07,2.85,0,.35.1.65.27.96.06.1.24.26.25.36.04.32.12-.18,0,0-.42.59-.27,1.17.4,1.48,1.51.71,3.41,1.76,4.1,3.38.53,1.22-.61,2.59.69,3.49.43.3.96.4,1.45.55.8.25.86.37,1.09,1.19.21.72.42,1.44.77,2.11.41.79,1.05,1.25,1.58,1.93s.55,1.63.29,2.43c-.19.59-.59,1.07-.41,1.73.13.46.49.79.86,1.05.17.12.37.21.55.32.41.24.52.51.57-.12.07-.96-.41,0-.49.35-.06.29-.02.68.02.97.07.55.26.94.79,1.17.37.16.69.11,1,.29.51.28.77.81.95,1.34.29.9.76,3.22-.07,4-.29.27-.81.15-1.21.27-.91.28-1.41.97-1.87,1.76-.4.69.37,1.16.91,1.29,1.63.4,5.33,2.04,3.26,4.16-1.5,1.54-3.8,2.05-4.86,4.09-1.19,2.29,2.27,3.12,3.76,3.52,1.11.29,2.21.71,2.06,2.09-.18,1.64-1.92,2.3-3.26,2.8-.58.22-1.4.69-1.19,1.44.18.68,1.18.87,1.76.65h0Z"/>
    </g>
    <g>
      <path d="M966.21,72.22c-.86-1.49-4.73-8.66-5.59-10.15-1.77,1.42-4.84.58-5.63-1.55-.4-1.06-.47-2.52-1.55-2.87-1.1-.36-2.07.85-3.19,1.15-2.5.65-4.09-3.24-6.68-3.37-1.62-.08-2.99,1.37-4.61,1.36-2.45-.02-3.85-3.25-6.29-3.5-1.68-.18-3.2,1.15-4.89,1.21-3.67.13-6.39-4.49-9.9-3.43-1.29.39-2.2,1.63-3.52,1.92-2.35.51.31-2.94-2.06-2.55-2.18.36-3.15,3.08-5.17,3.97-3.29,1.44-7.36-3.55-10.12-1.26-1.19.99-1.45,2.77-2.6,3.81-2.68,2.41-7.35-1.08-10.45.77-1.56.93-2.24,2.98-3.88,3.74-2.56,1.18-5.64-1.48-8.26-.44-2.08.83-2.92,3.68-5.1,4.24-1.52.39,1.64-2.43.09-2.18-2.64.43-3.66,3.81-6,5.12-1.96,1.1-4.39.52-6.63.66-2.24.14-5.55,5.64-4.94,7.8"/>
      <path d="M967.57,71.59c-1.93-3.35-3.67-6.8-5.59-10.15-.42-.72-1.83-.33-2.32.02-.86.63-2.04.14-2.71-.58-.86-.93-.7-2.36-1.46-3.36s-2.14-1.11-3.26-.78c-.71.21-1.27.78-1.95.99-.44.14-.64.03-1.11-.28-1.91-1.27-3.22-3.24-5.78-3.03-1.36.11-2.39.92-3.66,1.26-1.19.32-2.29-.98-3.11-1.68s-1.7-1.36-2.79-1.62c-1.55-.37-2.98.15-4.41.69-1.27.48-2.14.45-3.36-.16s-2.26-1.45-3.45-2.08c-2.36-1.24-4.74-1.19-6.98.29-.31.2-.6.44-.91.64l-.3.18c-.3.11-.18.2.37.25.03-.02.04-.46.05-.57.05-.75.09-1.5-.63-1.95-2.15-1.34-4.77,1.08-6.1,2.52-.72.78-1.35,1.6-2.49,1.4s-2.23-.81-3.29-1.26c-2.06-.87-4.38-1.27-6.29.2-1.19.92-1.52,2.3-2.36,3.47-.76,1.05-1.84.85-3.01.67-2.47-.38-5-1.03-7.35.24-1.26.69-2.01,1.82-2.93,2.88-1.04,1.2-1.95.97-3.39.59-2.7-.72-5.31-1.07-7.55.97-.87.79-1.48,1.85-2.39,2.6-.04.03-.58.32-.6.35l1.32.64-.02.06c.21-.15.45-.72.59-.95.42-.72.63-1.53-.32-1.9-1.12-.44-2.64.23-3.56.84-1.24.82-2.07,2.05-3.02,3.16-1.2,1.39-2.34,1.74-4.18,1.71-1.48-.02-3.06-.26-4.45.39-1.05.49-1.94,1.35-2.64,2.26-1.32,1.68-2.92,4.29-2.42,6.54.28,1.27,3.24.51,2.95-.79-.41-1.83,1.22-4.26,2.37-5.52.85-.94,1.05-.91,2.28-.88,1.66.04,3.34.14,4.95-.39,1.24-.4,2.28-1.13,3.17-2.07s1.53-2.04,2.49-2.86c.15-.12.41-.23.53-.37l.09-.05c.54-.13.27-.36-.83-.69,0,0-.28.48-.38.64-.32.51-.84,1.18-.41,1.77.56.79,1.98.4,2.68.11,1.19-.49,2.06-1.37,2.88-2.34.63-.75,1.3-1.82,2.38-1.84,1.35-.02,2.73.66,4.06.88s2.58.13,3.75-.41c1.3-.6,2.11-1.69,2.99-2.76.8-.97,1.43-1.39,2.69-1.3s2.57.45,3.86.59c2.61.29,5.03-.47,6.42-2.82.37-.62.61-1.36,1.06-1.93.24-.29.48-.47.59-.49.97-.13,2.24.66,3.09,1.03,2.21.97,4.54,1.65,6.79.39,1.11-.62,1.92-1.57,2.78-2.48.28-.3.89-.64,1.08-.97l.18-.08c-.1-.08-.22-.13-.36-.15-.02.04,0,.28-.02.35-.63,2.15,1.4,2.7,3.09,2.19.6-.18,1.15-.49,1.67-.83s1.06-.91,1.67-1.04c1.05-.22,2.23.62,3.05,1.13,2.06,1.29,4.1,2.68,6.66,2.39.66-.08,1.3-.28,1.92-.51.67-.24,1.47-.74,2.21-.67,1.09.11,2.08,1.29,2.87,1.94,1,.84,2.08,1.49,3.42,1.56.72.04,1.44-.12,2.12-.35.74-.25,1.49-.81,2.26-.95,1.1-.2,2.13.98,2.87,1.63.89.78,1.83,1.54,3.05,1.71.59.08,1.19.05,1.77-.1.33-.09,2.13-1.21,2.3-1.12-.05-.02.17.53.19.6.11.36.22.73.33,1.09.2.66.45,1.31.91,1.83,1.84,2.07,5.19,2.1,7.35.54l-2.32.02c1.93,3.35,3.67,6.8,5.59,10.15.61,1.06,3.44.01,2.71-1.26h0Z"/>
    </g>
    <g>
      <path d="M823.58,95.45c.3-.26.59-.53.86-.81,1.4-1.44,1.93-4.37.04-5.04,3.87.34,4.51-6.39,8.24-7.48,1.07-.31,2.22-.08,3.33-.23,2.88-.39,4.93-3.77,3.94-6.5,3.15.66,6.55,0,9.23-1.77l27.65.29c-10.33,5.73-20.3,13.33-30.5,17.93-4.91,2.22-9.86,4.63-13.7,8.41-2.8,2.75-6.74,5.01-9.59,7.91.15-4.24.28-8.48.5-12.72Z"/>
      <path d="M824.56,96.12c1.27-1.14,2.36-2.35,2.6-4.11.21-1.54-.4-2.78-1.83-3.39l-1.37,2.06c2.11.11,3.81-.87,5.05-2.54,1.1-1.48,1.87-3.55,3.39-4.67.99-.73,2.36-.35,3.51-.49,1.24-.16,2.42-.65,3.39-1.44,1.9-1.55,2.92-4.13,2.16-6.52l-1.99,1.46c3.74.71,7.52-.13,10.72-2.17l-1.11.41c8.08.09,16.15.17,24.23.26l3.42.04-.52-1.94c-7.72,4.3-14.94,9.41-22.59,13.82-7.11,4.09-15.33,6.61-21.45,12.25-3.3,3.04-7.15,5.44-10.33,8.61l2.73.32c.15-4.24.29-8.48.5-12.72.08-1.52-2.92-1.1-2.99.23-.22,4.24-.35,8.48-.5,12.72-.05,1.47,2.11.93,2.73.32,2.76-2.74,6.17-4.72,9.02-7.36s6.07-4.84,9.64-6.62,7.41-3.44,10.98-5.45,7.35-4.39,10.97-6.69c4.16-2.64,8.3-5.29,12.61-7.69,1.28-.71.9-1.92-.52-1.94-8.88-.09-17.76-.19-26.65-.28-.63,0-1.2-.07-1.79.2-1.25.56-2.28,1.27-3.66,1.57-1.46.32-2.93.27-4.4,0-.72-.14-2.3.49-1.99,1.46.56,1.76-.12,4.21-2.01,4.92-1.06.4-2.34.08-3.45.28-.95.17-1.84.55-2.6,1.13-1.3.98-2.15,2.41-3,3.77-.47.75-1.39,2.7-2.46,2.65s-3.08,1.31-1.37,2.06c.7.3.63,1.33.49,1.93-.22.96-.8,1.62-1.51,2.26-1.49,1.33.85,2.32,1.95,1.34Z"/>
    </g>
    <g>
      <path d="M879.38,76.49l32.65-15.02,33.09,8.37,21.12,32.35,1.69,29.63h0l9.15,42.26c-.94.4-1.87.79-2.81,1.19-.29.12-.61.25-.91.17-.76-.2-.69-1.27-.71-2.06-.05-1.83-1.51-3.25-2.73-4.61-1.22-1.36-2.33-3.26-1.58-4.93.39-.88,1.29-1.65,1.12-2.6-.22-1.24-1.9-1.41-2.97-2.07-1.68-1.02-1.7-3.88-.04-4.93,0,0-2.8-1.67-3.42-6.47-.62-4.79-.74-10.08-.74-10.08h0c-.38-.24-.74-.5-1.05-.81-2.25-2.33-.78-6.61-2.82-9.13-.92-1.13-2.41-1.71-3.23-2.91-1.56-2.3.05-5.58-1.02-8.15-1.2-2.88-5.52-4.33-5.21-7.44.15-1.52,1.47-2.75,1.54-4.27.12-2.65-3.53-4.99-2.24-7.31.45-.8,1.41-1.27,1.72-2.13.62-1.75-1.66-2.97-2.84-4.4-1.22-1.48-1.3-3.58-2.05-5.34-.76-1.76-3.07-3.25-4.51-1.99.12-3.17-3.98-10.47-6.9-9.23-1.44.61-3.14,1.91-4.31.87-.83-.74-.6-2.18-1.34-3.01-1.91-2.1-5.02,2.82-7.68,1.82-.72-.27-1.21-.94-1.87-1.34-1.49-.9-3.44-.21-4.91.74-1.47.95-2.88,2.17-4.61,2.36-1.74.19-3.75-1.41-3.13-3.04-1.41,1.5-2.89,3.04-4.82,3.77-1.93.73-4.43.36-5.53-1.38.31,2.92-3.6,5.27-6.03,3.62-.97-.66-1.84-1.81-2.99-1.61-.51.09-.94.45-1.3.83-1.64,1.66-2.48,8.48-2.97,10.77l-2.78-12.47Z"/>
      <path d="M879.94,77.04c9.54-4.39,19.07-8.78,28.61-13.16,1.35-.62,2.7-1.24,4.04-1.86l-1.48.21c10.22,2.59,20.44,5.17,30.66,7.76.68.17,1.36.37,2.05.52.02,0,.35.11.37.09-.61.76-.44-.59-.34-.03.08.44.69,1.05.93,1.42l1.68,2.57c3.56,5.46,7.13,10.91,10.69,16.37l5.02,7.68c.85,1.29,1.94,2.61,2.61,4,.1.21.02.12,0-.01.02.14.03.3.02.44-.02.78.09,1.58.13,2.36.17,2.98.34,5.95.51,8.93.33,5.72.65,11.43.98,17.15.15,2.68,1.05,5.39,1.61,8.01,2.47,11.41,4.94,22.81,7.41,34.22l.17.78.91-.94c-.67.28-1.34.56-2,.85-.2.08-.4.17-.6.25-.3.12-.27.11.09-.02.31,0,.38-.13.21-.38l-.04-.31c-.15-1.18-.13-2.07-.77-3.13-1.21-2-4.48-4.1-3.71-6.8.31-1.08,1.5-1.92,1.25-3.15-.18-.87-.99-1.33-1.74-1.66-1-.45-1.96-.71-2.34-1.86-.34-1.02-.14-2.23.76-2.88.38-.28.4-.64.01-.88.39.24-.21-.17-.3-.26-.36-.31-.69-.68-.98-1.06-1.07-1.4-1.59-3.14-1.84-4.87-.47-3.33-.66-6.72-.74-10.08l-.3.59h0c.15-.16.52-.55.2-.76-2.28-1.51-2.26-3.83-2.57-6.31-.13-1.02-.33-2.03-.84-2.94-.61-1.08-1.61-1.7-2.55-2.45-2.44-1.93-1.52-4.59-1.68-7.29-.14-2.31-1.58-3.75-3.2-5.23s-3-2.93-2-5.2c.46-1.03,1.13-1.95,1.14-3.13.01-1-.42-1.89-.92-2.74s-1.11-1.64-1.42-2.58c-.41-1.23.13-1.84.96-2.7,1.76-1.82.63-3.39-.92-4.85-1.18-1.11-1.86-2.17-2.31-3.74-.35-1.24-.6-2.55-1.4-3.6-1.61-2.13-4.48-2.33-6.56-.78l2.65-.2c.03-2.59-1.51-5.39-3.08-7.36-.73-.91-1.64-1.8-2.76-2.19-1.44-.49-2.81.01-4.11.65-.35.17-.85.55-1.21.44-.4-.12-.55-.7-.66-1.04-.24-.78-.35-1.62-1-2.19-.99-.88-2.54-.63-3.67-.21-1.3.49-2.34,1.46-3.6,1.99-.09.04-.4.11-.24.12-.43-.02-.79-.41-1.11-.67-.77-.64-1.51-1.07-2.51-1.19-2.27-.27-4.43.82-6.24,2.06-.83.57-1.96,1.61-3.03,1.35s-1.83-1.35-1.53-2.4c.16-.56-.76-.59-1.07-.57-.66.04-1.31.29-1.77.77-1.12,1.19-2.49,2.82-4.14,3.26-1.35.36-2.7-.33-3.47-1.42-.52-.73-2.9.05-2.85.96.06,1.08-.47,2.18-1.41,2.74s-1.75-.04-2.48-.64c-.94-.77-1.81-1.35-3.07-1.27s-2.55.72-3.37,1.73c-1.12,1.38-1.51,3.39-1.88,5.07-.42,1.91-.69,3.85-1.08,5.77l2.95-.6c-.93-4.16-1.85-8.32-2.78-12.47-.21-.93-3.17-.19-2.95.79.93,4.16,1.85,8.32,2.78,12.47.21.95,2.79.16,2.95-.6.4-1.97.68-3.96,1.12-5.93.24-1.08.51-2.18.92-3.21.14-.35.28-.7.49-1.01.13-.19.28-.32.43-.49-.43,0-.48.05-.16.18.18.09.34.2.49.33.95.71,1.7,1.41,2.91,1.61,1.14.19,2.37-.02,3.43-.44,2.05-.8,3.82-2.5,3.67-4.84l-2.85.96c1.39,1.97,4.12,2.23,6.3,1.72,2.82-.67,4.86-2.63,6.79-4.67l-2.84.2c-.46,1.62.79,2.93,2.27,3.41,1.84.59,3.84-.06,5.46-.97.83-.47,1.58-1.06,2.38-1.56,1.16-.73,2.09-1,3.25-.1,1.38,1.08,2.57,1.49,4.32,1.02,1.44-.39,2.62-1.25,3.9-1.99.18-.1.37-.24.57-.3-.48.15-.15-.1.06.24.49.8.56,1.73,1.02,2.54.93,1.62,3.11,1.23,4.57.65.41-.16.81-.37,1.21-.57.17-.09.36-.17.52-.26.78-.45.09.02-.1-.06.46.21.85.38,1.25.72,2.18,1.84,4.09,5.36,4.06,8.27-.01.95,2.34.03,2.65-.2-.58.44-.47-.06.02.28.25.17.53.29.76.49.37.31.71.7.94,1.12.62,1.1.77,2.43,1.16,3.62.33,1,.82,1.89,1.56,2.65s1.67,1.35,2.15,2.25c.63,1.17-.2,1.78-.94,2.6-.59.66-.97,1.38-.89,2.29.17,1.85,1.84,3.21,2.35,4.95.65,2.18-1.59,3.78-1.39,5.95.15,1.71,1.65,2.95,2.83,4.03,1.8,1.64,2.85,3.11,2.78,5.65-.07,2.28-.41,4.6,1.46,6.31.88.81,2.03,1.35,2.7,2.36s.82,2.23.95,3.37c.28,2.5.45,4.8,2.73,6.3l.2-.76c-.66.67-.25,2.31-.21,3.15.13,2.51.29,5.04.64,7.53s1.45,5.36,3.71,6.75v-.88c-1.88,1.37-2.13,4.41-.05,5.75.94.6,3.05.81,2.73,2.33-.15.69-.8,1.26-1.07,1.92s-.31,1.36-.17,2.03c.62,3.06,4.25,4.52,4.48,7.7.09,1.23.1,2.32,1.6,2.45,1.65.14,3.41-.97,4.88-1.59.33-.14,1.01-.47.91-.94-1.13-5.23-2.27-10.47-3.4-15.7-1.67-7.71-3.34-15.42-5.01-23.13-.26-1.19-.62-2.4-.75-3.6-.3-2.65-.31-5.37-.46-8.03-.24-4.3-.49-8.59-.73-12.89-.1-1.78-.2-3.57-.3-5.35-.05-.95,0-1.99-.17-2.93-.21-1.16-1.39-2.39-2.02-3.35-2-3.07-4.01-6.14-6.01-9.21-4.11-6.29-8.21-12.58-12.32-18.87-.25-.39-.52-1.04-.88-1.34s-1.21-.39-1.67-.51c-3.1-.78-6.2-1.57-9.29-2.35-7.21-1.82-14.41-3.65-21.62-5.47-.89-.23-1.51-.39-2.46-.03-.54.21-1.07.49-1.6.74-3.01,1.39-6.03,2.77-9.04,4.16-6.9,3.17-13.8,6.35-20.7,9.52l-1.31.6c-.37.17-1.21.6-.81,1.11.36.46,1.54.17,1.94-.01Z"/>
    </g>
    <g>
      <path d="M831.03,99.15c.69.83-.38,1.98-1.36,2.4-.99.42-2.26,1.03-2.13,2.09.08.66.72,1.14.81,1.8.26,2.01-3.93,1.51-4.44,3.47-.39,1.47,1.78,2.99.95,4.26-.4.6-1.23.67-1.91.93-1.16.45-1.97,1.69-1.91,2.94.04.93.52,1.86.26,2.76-.32,1.08-1.52,1.58-2.37,2.33-2.22,1.97-1.8,5.5-.99,8.36.8,2.85,1.76,6.11.16,8.61-2.51-1.11-.9-3.51.06-6.08.29-.78.76-1.49.92-2.3.17-.81-.09-1.81-.86-2.12-.38-.15-.85-.14-1.13-.43-.81-.83,1-1.65,1.69-2.59.86-1.18-.35-2.76-1.53-3.62-1.18-.86-2.63-2.02-2.26-3.43.32-1.25,1.93-1.82,2.28-3.06.39-1.4-1.03-2.69-1.12-4.15-.12-1.94,2-3.15,3.8-3.87-1.59-1.03-1.63-3.73-.07-4.81.63-.43,1.48-.67,1.77-1.38.43-1.05-.75-2.36-.14-3.31.51-.81,1.87-.62,2.45-1.38.93-1.21-1.12-2.78-.85-4.28.35-1.99,4.35-2.45,3.58-4.32"/>
      <path d="M829.67,99.75c.49.81-1.05,1.3-1.52,1.55-.7.37-1.45.84-1.84,1.55-.36.65-.27,1.26.05,1.9.2.4.76.99.39,1.41-.24.27-1.07.39-1.39.51-.63.23-1.25.49-1.79.89-1.14.83-1.42,1.99-.84,3.27.24.52.88,1.28.83,1.88-.03.4-.12.35-.52.48-.46.15-.91.31-1.32.56-1.39.83-2.29,2.26-2.12,3.9.09.95.63,2-.09,2.81-.57.64-1.41,1.01-2.01,1.62-1.16,1.18-1.65,2.79-1.68,4.42-.06,4.05,3.15,8.71.9,12.54l2.55-.68c-1.78-.89-.71-2.83-.13-4.21.58-1.41,1.77-3.16,1.43-4.75-.14-.67-.56-1.23-1.17-1.53-.76-.37-1.31-.19-.48-.93,1.18-1.07,2.14-2.12,1.3-3.77-.82-1.6-2.92-2.16-3.62-3.78-.66-1.52,1.38-2.36,1.97-3.55.76-1.54-.4-2.79-.81-4.23-.54-1.91,1.33-2.84,2.8-3.46.6-.25,1.27-.92.56-1.44-.91-.67-1.16-2.14-.62-3.12s2-1.12,2.54-2.24c.24-.49.22-1.01.12-1.53-.06-.33-.55-1.39-.39-1.68.12-.22,1.29-.46,1.54-.6.48-.27.93-.62,1.19-1.11.95-1.83-2.14-3.74-.19-5.2,1.16-.87,3.48-1.78,2.87-3.63-.37-1.12-3.31-.3-2.95.79.26.8-.69,1.12-1.25,1.48-.79.51-1.66,1.09-2.1,1.95-.53,1.05-.08,2.02.38,3,.16.34.64,1.08.46,1.47-.16.33-1.03.43-1.4.62-1.06.56-1.6,1.41-1.39,2.61.1.59.59,1.41.18,1.96-.33.45-1.22.67-1.65,1.07-1.72,1.61-1.53,4.3.34,5.68.19-.48.37-.96.56-1.44-2.22.92-5.38,2.72-4.55,5.61.38,1.31,1.67,2.62.57,3.89-.82.95-1.94,1.64-1.9,3.05s1.21,2.32,2.21,3.08c.68.52,1.49,1.12,1.79,1.97.32.9-.22,1.31-.83,1.85-.69.62-1.74,1.61-.89,2.55.43.48,1.19.36,1.61.78.65.64.15,1.8-.15,2.45-1.03,2.33-3.47,6.24-.26,7.85.76.38,2.1.07,2.55-.68,2.15-3.67.02-7.54-.56-11.31-.26-1.66-.29-3.69.85-5.06,1.14-1.36,3.11-1.85,3.09-3.94,0-.89-.46-1.77-.28-2.66.24-1.15.93-1.34,1.89-1.7,1.43-.55,2.51-1.66,1.84-3.24-.47-1.12-1.69-2.47-.09-3.09,1.1-.43,2.4-.7,3.19-1.67.41-.51.55-1.13.34-1.76-.34-1.01-1.24-1.63.07-2.29,1.41-.72,3.73-2,2.58-3.88-.55-.91-3.42.07-2.73,1.2h0Z"/>
    </g>
    <path class="cls-3" d="M975.8,155.52l-1.4-3.9-44.45,1.95h0c-16.38-.8-35.46,10.03-44.8,21.57l-10.26,4.03.05-.19c-15.14-4.86-35.77.54-48.89,12.78l.96,1.49h0c.04.1.22.3.42.61l.85,1.29c5.32,8.25,11.2,16.89,14.58,18.55,2.27,1.12,8.16.06,12.91-1.13,1.8-.43,3.42-.89,4.59-1.22,1.4-.41,13.81-4.07,15.22-6.66,1.42-2.59.2-17.95-.29-22.76l10.53-4.08c2.52,3.03,10.27,17.1,16.5,18.4,6.23,1.3,32.56-8.86,33.8-13.39.87-3.24,2.72-14.49,2.39-19.84l.13-7.08,37.17-.42ZM873.86,203.69c-1.63,2.57-26.25,10.12-30.18,8.19-3.32-1.64-10.91-13.4-13.76-17.82l-.07-.2c11.98-10.17,30.56-15.07,43.65-11.06.69,8.37,1.23,19.23.34,20.84l.02.04ZM932.59,182.82c-.76,2.86-23.44,12.75-29.86,11.41-4.46-.92-10.31-11.15-14.17-16.83,9.2-11.06,31.97-22.14,46.82-20.58.24,8.53-.34,18.85-2.79,26h0Z"/>
    <path d="M927.72,216.67c-1.23-.85-2.7-1.17-4.19-.98-.4.05-1.4.5-1.69.43-.25-.06-.6-.54-.83-.67s-.51-.22-.76-.27c-1.52-.34-2.85.58-4.23,1.03-.58.19-1.21.42-1.81.34-.66-.09-1.27-.43-1.94-.5-1.29-.14-2.51.32-3.33,1.32-.1.13-.19.25-.28.39-.13.22-.14.19-.03-.07-.31-.04-.67-.33-.95-.45-.63-.27-1.27-.37-1.95-.36-1.42.03-2.94.42-4.11,1.24-.37.26-.71.56-1.07.83-.22.16-.47.3-.68.48-.61.52-.3-.54.66.14-.93-.66-3.59.66-2.31,1.58,1.7,1.21,3.89-.9,5.17-1.8.52-.36,1.19-.59,1.83-.51.7.09,1.34.6,2.03.78,1.29.32,2.81,0,3.73-1.01.13-.14.46-.47.49-.65.21-.24.11-.23-.29.03l.32.09c.46.31,1.41.43,1.96.48,1.39.11,2.95-.47,4.22-.98.28-.11.67-.41.96-.42.31-.01.38.13.64.34.52.41,1.06.59,1.72.61.73.02,1.34-.28,2.04-.43.9-.21,1.64.07,2.39.58.94.65,3.6-.68,2.31-1.58h0Z"/>
    <path d="M889.36,223.46c-1.32-.11-2.61.47-3.53,1.39-.36.36-.67.76-1.02,1.14-.17.19-.36.35-.54.53-.06.07-.13.12-.22.15.21-.08.18-.08-.1,0-1.42.22-2.5.84-3.08,2.18-.04.16-.11.31-.2.45.7-.19.88-.28.56-.27-.14-.07-.51-.06-.66-.09-.74-.13-1.45-.24-2.2-.12-1.42.23-2.33,1.04-2.62,2.41-.08.35-.16,1.04-.38,1.17-.49.29-1.27.26-1.81.46-1.18.43-2.3,1.2-2.26,2.56,0,.03-.01.78.09.58-.09.17-.6.29-.79.42-.48.33-.84.71-.75,1.32.15,1,3.12.31,2.95-.79.03.21-.6.48.25.02.21-.11.41-.23.59-.38.4-.34.65-.74.65-1.29,0-.41-.2-.91.21-1.14s1.05-.2,1.5-.34c1.12-.35,2.12-.97,2.51-2.13.13-.38.23-.82.28-1.22.02-.11.06-.21.12-.31-.86.16-1.07.26-.63.31.2.09.52.09.74.13,1.24.19,2.52.17,3.63-.51.53-.33.87-.79,1.1-1.36.06-.15.37-.72-.1-.4.14-.1.54-.12.7-.16,1.06-.26,1.98-.79,2.73-1.58.34-.35.64-.74.97-1.09.04-.05.41-.36.42-.41.02-.12-.81.02-.26.07.61.05,1.62-.24,1.95-.81.35-.61-.3-.83-.8-.87h0Z"/>
    <path class="cls-12" d="M901.52,232.1c8.79-3.13,22.63-9.32,22.63-9.32,0,0,4.61,21.73-15.76,28.99-20.37,7.26-28.38-12.86-28.38-12.86,0,0,12.73-3.69,21.51-6.82Z"/>
    <path class="cls-37" d="M901.47,232.11c4.14-1.47,20.54-8.18,20.54-8.18,0,0-1.72,13.73-16.68,19.06-16.22,5.78-22.95-5.38-22.95-5.38l19.1-5.51Z"/>
    <path class="cls-15" d="M901.53,232.85c4.14-1.47,16.45-6.72,16.45-6.72,0,0-2.77,6.56-15.18,10.98-12.41,4.42-18.06,1.02-18.06,1.02l16.79-5.28Z"/>
    <path class="cls-12" d="M877.55,237.81c.4-.27,3.1-.25,5.07-1.17,3.29-1.53,5.06-3.27,7.45-4.36,4.08-1.85,7.4-.98,9.23-1.63,1.83-.65,3.85-3.43,8.19-4.57,2.54-.67,8.99-1.86,12.5-2.75,2.11-.53,4.19-2.26,4.67-2.3.66-.05,1.23,5.26-21.76,13.45-22.99,8.19-25.9,3.71-25.35,3.33Z"/>
    <path d="M897.71,222.5l2.43,4.17c.38.64,1.11.97,1.83.82,4.98-1.02,23.93-4.93,28.21-6.5.1-.04.25,1.92.35,1.87l.98-.43c1.5-.88-1.58-5.87-3.31-5.93-5.29-.17-9.91.02-12.7.33-3.49.38-13.03,1.75-16.9,3.16-1.02.37-1.44,1.58-.89,2.51Z"/>
    <path d="M892.35,224.95l1.24,4.2c.1.73-.19,1.44-.73,1.75-3.72,2.18-15.89,9.36-19.47,10.68-.09.03-.16.05-.25.06l-1.22.17c-1.43.19-1.78-3.44-.7-4.53,3.28-3.32,5.39-5.31,7.33-6.74,2.43-1.79,8.67-5.85,11.9-7.05.85-.32,1.76.39,1.91,1.47Z"/>
    <path class="cls-6" d="M1013.88,248.4c-1.6,5.47-4.15,10.77-6.87,15.76-6.09,11.16-14.31,21.34-24.66,28.82-6.31,4.56-13.36,8.06-20.85,10.19-8.36,2.37-17.53,3.68-26.23,3.1-7.76-.52-16.8-3.35-19.23-11.64-.46-1.57-.66-3.24-.54-4.87.23-3.04.57-7.02.83-10.35.05-.64.1-1.28.15-1.92.04-.53-1.89.17-2.07.36-2.73,2.82-5.45,5.63-8.18,8.45l-2.09,2.16c-.27.28-.71.59-.91.94-.5.9-.28,2.61-.27,3.59.09,6.49,2.26,13.41,7.1,17.94,4.02,3.77,9.85,5.43,15.15,6.33,7.71,1.31,15.64,1.07,23.37.02,9.13-1.23,18.36-3.56,26.82-7.23,7.7-3.34,14.86-7.96,21.43-13.16,6.74-5.34,13.01-11.37,18.24-18.22,4.78-6.27,8.99-13.14,12.74-20.08,1.04-1.93,2.04-3.88,2.93-5.89.39-.88.89-1.83,1.12-2.78.03-.12.08-.23.11-.34.07-.23-.21-.27-.38-.28-5.32-.51-10.63-1.03-15.95-1.54-.45-.04-1.19.09-1.54.41-.29.26-.34.48.14.52,5.32.51,10.63,1.03,15.95,1.54l-.38-.28c-.52,1.8-1.39,3.53-2.21,5.21-2.87,5.91-6.34,11.54-9.94,17.03-9.29,14.17-22.03,26.05-36.89,34.23-7.69,4.24-16.07,6.98-24.65,8.76-8.09,1.68-16.44,2.48-24.68,1.76-5.83-.51-12.06-1.73-17.04-4.98-5.36-3.49-8.21-9.86-9.02-16.04-.27-2.05-.35-4.16-.16-6.23.01-.15,0-.34.05-.49.04-.12-.13.19.03-.05.3-.45.81-.84,1.18-1.22,3.06-3.16,6.11-6.32,9.17-9.47.24-.25.48-.5.72-.74l-2.07.36c-.17,2.16-.34,4.32-.52,6.48l-.33,4.19c-.03.36-.06.72-.09,1.08,0,.12-.02.3,0,.14-.12,1.36-.07,2.71.2,4.06,1.58,7.84,9.12,11.6,16.41,12.75,8.37,1.32,17.09.24,25.34-1.35s15.77-4.38,22.86-8.51c11.84-6.9,21.39-17.19,28.5-28.83,2.52-4.13,4.75-8.43,6.66-12.88.94-2.19,2.02-4.51,2.59-6.84.03-.11.07-.21.1-.32.14-.49-1.98-.21-2.15.37Z"/>
    <path d="M898.71,274.97c.2-.1.38-.24.51-.41,2.56-3.28,2.41-4.6,3.89-5.52.34-.21.49-.41,1.59-.96,4.43-2.2,7.1-3.63,22.19.11.3.08,15.93-7.44,16.24-7.58l7.09-6.79c1.12-1.34,23.8-38.46,23.8-38.46.18-1.05,3.78-9.27,3.72-10.2.08-.08.16-.17.25-.24.03-.03.1-.09.17-.15.03.05.08.12.1.15.18.34.3.73.4,1.1.46,1.61.66,3.29.69,4.97.05,2.58.42,5.11.57,7.68.05.91.06,1.81.03,2.72-2.85,3.44-16.12,39.91-27,50.73-.77.51-3.19,2.15-10.11,5.12-12.99,5.59-25.9,9.88-40.33,10.45-3.76.15-7.35-1.37-9.79-4.1-6.97-7.77-22.4-25.08-29.07-37.94,6.27,6.65,19.58,20.93,28.71,30.64.28.29,5.45-1.12,5.91-1.14"/>
    <path d="M928.97,267.84c-.62.84-1.78,1.37-2.87,1.84l-1.13.69c-3.61.93-7.25,1.74-10.91,2.45-.92.18-1.88.35-2.75.21-.09-.02-.19-.04-.28-.06-2.66.75-5.33,1.48-8.01,2.13l-1.31-.03c-1.18.12-2.45.23-3.37-.14-.92-.37-1.2-1.43-.23-2.02,1.01-.62,2.78-.43,3.39-1.24.67-.89-1.18-1.52-.88-2.45.19-.59,1.11-.99,1.66-1.51.65-.62.72-1.39,1.31-2.03.6-.65,1.74-1.1,2.75-1.07,1-.33,2.46-.25,2.61-1.03.04-.21-.06-.4-.12-.6-.23-.76.22-1.69,1.09-2.23.87-.54,2.1-.67,2.96-.3.84.36,1.29,1.11,2.17,1.42.27.1.59.15.9.2.2-.3.47-.57.81-.78.87-.54,2.1-.67,2.96-.3.84.36,1.29,1.11,2.17,1.42.74.26,1.75.2,2.21.71.73.81-.56,2.38.47,2.96.94.52,2.39-.56,3.59-.44,1.15.12,1.44,1.35.82,2.19Z"/>
    <g>
      <path d="M873.36,259.06c1.84,3.03,2.93,6.47,5.57,8.83-1.1.77-.01,2.51,1.2,3.07,1.21.56,2.82,1.1,2.93,2.43.04.46-.14.93-.09,1.39.15,1.46,2.1,1.79,3.56,1.74-.71,1,.53,2.24,1.67,2.69,1.14.44,2.59,1,2.62,2.22.02.6-.36,1.2-.17,1.77.4,1.19,2.36.59,3.31,1.4.55.47.63,1.28.99,1.91.75,1.29,2.92,1.35,3.75.12,1.01,2.35,3.01,5.16,5.41,4.3,1.49-.54,2.49-2.43,4.05-2.23.97.12,1.66,1.04,2.6,1.3,3.18.89,4.77-5.67,7.95-4.76,1.7.48,2.41,3,4.18,3.06,1.67.05,2.49-2.13,4.03-2.78,1.68-.71,3.97.49,5.27-.79.56-.55.71-1.4,1.13-2.07.97-1.52,2.81-.22,4.62-.21,3.23.02,2.85-2.18,2.85-2.18.24-2.33,1.44-2.52,3.73-2.02.76.17,1.53.55,2.28.36,1.85-.47,1.79-3.73,3.66-4.11.69-.14,1.37.19,2.07.29,2.52.35,4.35-3.43,2.52-5.19,2.78-.81,4.41-4.31,3.23-6.96,2.84.07,5.28-3.02,4.56-5.76,3.28-.09,5.4-4.65,3.34-7.21,2.36.15,4.42-2.53,3.67-4.77-.39-1.15-1.33-2.47-.56-3.41.51-.62,1.44-.59,2.21-.83,1.86-.59,2.57-3.31,1.25-4.74,3.23-.16,4.74-5.2,2.15-7.12,2.53-.19,3.66-4.12,1.63-5.64,3.22-1.09,4.1-6.1,1.46-8.22l-25.83,49.93-8.34,7.35s-33.35,13.52-40.71,12.56c-7.36-.96-29.72-25.7-29.72-25.7Z"/>
      <path d="M872.03,259.68c1.79,3,2.96,6.41,5.57,8.83l.14-.97c-1.03.93-.81,2.27.04,3.25.94,1.09,2.56,1.15,3.48,2.19.57.65.14,1.42.26,2.19.1.63.46,1.15.98,1.51,1.11.77,2.57.83,3.87.81l-1.22-1.09c-1.14,2.16,1.38,3.28,2.93,4.02.44.21,1.01.47,1.19.96.2.52-.14,1.08-.14,1.61-.01.94.6,1.54,1.44,1.81s1.91.06,2.4.87c.55.91.62,1.78,1.64,2.35,1.65.94,4.12.43,5.29-1.05l-2.64.03c1.2,2.7,3.4,5.76,6.79,4.9.72-.18,1.38-.53,1.98-.97.35-.25,1.18-1.26,1.6-1.28.5-.03,1.39.87,1.84,1.06.59.25,1.23.36,1.87.31,2.56-.22,3.9-2.41,5.5-4.1.73-.77.95-1.07,1.82-.27.93.86,1.58,2.02,2.86,2.43,1.45.47,2.99-.11,4.1-1.07.52-.45.94-1.07,1.5-1.48.62-.46,1.33-.29,2.07-.26,1.62.07,3.33-.14,4.43-1.47.34-.41,1-1.39,1.02-1.92.02-.41.04.06-.3-.02.2.04.43.05.64.09.46.09.91.22,1.38.3,2.07.37,5.61-.11,5.92-2.76.02-.21-.04-.43-.01-.64.03-.23.23-.53.23-.77,0-.3.09-.15-.06-.12.63-.12,1.41.21,2.01.37.93.24,1.79.36,2.73.1,1.51-.43,2.24-1.64,2.9-2.95.14-.27.28-.71.5-.91.31-.3.08-.14.49-.04.89.2,1.72.3,2.62.07,2.67-.71,4.9-4.29,2.7-6.65l-1.09,1.51c3.36-1.12,5.86-4.7,4.44-8.25l-1.6,1.36c3.61-.06,6.96-3.42,6.16-7.12l-1.6,1.36c4.08-.27,7.53-5.15,4.82-8.79-.62.53-1.24,1.06-1.86,1.58,1.93.02,3.75-.74,4.9-2.34.51-.71.87-1.56.91-2.45.04-1.03-.4-1.83-.75-2.77-.16-.42-.44-1,0-1.3.32-.22,1.03-.22,1.41-.37.81-.32,1.5-.83,2-1.54.98-1.38,1.05-3.25-.04-4.58l-1.49,1.58c4.15-.39,7.1-5.91,3.43-8.87-.43.59-.86,1.17-1.28,1.76,1.82-.24,3.38-1.29,4.01-3.05.58-1.61.23-3.24-1.1-4.34-.17.52-.34,1.03-.51,1.55,3.69-1.4,5.39-6.82,2.17-9.6-.73-.63-2.24-.4-2.71.5-3.92,7.58-7.85,15.17-11.77,22.75-4.6,8.89-9.2,17.78-13.8,26.68-.12.24-.5.67-.09.27-.61.6-1.3,1.14-1.94,1.71-2.04,1.8-4.16,3.54-6.14,5.41-.6.56.91-.37-.08-.02-.62.22-1.23.49-1.84.73-2.36.93-4.73,1.84-7.11,2.74-6.47,2.43-12.98,4.77-19.62,6.7-2.67.78-5.44,1.56-8.14,1.91-1.04.14-1.61.22-2.46.1-.14-.02,0,.02-.31-.07-.19-.05-.38-.11-.57-.18-.5-.18-.96-.42-1.43-.67-5.56-3.04-10.3-7.84-14.8-12.21-3.85-3.74-7.59-7.6-11.21-11.55-.2-.22-.4-.44-.6-.65-.81-.89-3.57.23-2.67,1.23,2.74,3.03,5.57,5.98,8.45,8.88,4.92,4.96,9.98,9.98,15.68,14.04,1.86,1.32,3.98,2.79,6.29,3.12s4.6-.25,6.75-.72c6.87-1.52,13.56-3.92,20.16-6.3,4.85-1.75,9.68-3.58,14.46-5.5,1.23-.49,2.13-1.49,3.11-2.35,2.06-1.82,4.36-3.54,6.26-5.52.47-.49.73-1.17,1.04-1.77.84-1.62,1.68-3.25,2.52-4.87,2.73-5.27,5.45-10.54,8.18-15.81l14.14-27.34.26-.5-2.71.5c1.99,1.73,2,5.81-.74,6.85-.68.26-1.16,1.01-.51,1.55s.8,1.49.65,2.29c-.1.51-.48,1.53-1,1.6-.76.1-2.3.94-1.28,1.76,1.47,1.18,1.28,5.16-.86,5.36-.58.05-2.17.75-1.49,1.58s.85,2.56-.2,3.22c-.53.34-1.42.3-2.01.58s-1.17.73-1.46,1.33c-.66,1.39.49,2.62.76,3.93.21,1.04-.43,3.12-1.78,3.1-.66,0-2.6.58-1.86,1.58,1.24,1.68.65,5.46-1.85,5.63-.62.04-1.78.54-1.6,1.36.42,1.94-.79,4.36-2.96,4.4-.5,0-1.91.59-1.6,1.36.77,1.92.19,4.94-2.03,5.68-.45.15-1.73.83-1.09,1.51.79.85.77,2.06.14,3.01-.78,1.17-1.97.15-3.23.32s-2.22.9-2.87,1.95c-.3.49-.52,1.02-.79,1.52-.1.19-.21.46-.37.61-.08.07-.24.14-.11.11.16-.04-.46-.21-.52-.22-2.15-.59-5.28-.91-6.31,1.63-.21.51-.26,1-.29,1.54.01-.21.03.17-.03.31-.37.8-1.36.49-2.12.31-1.37-.31-2.75-.59-4.05.14-.6.33-1.03.81-1.35,1.41-.3.56-.4,1.39-1.06,1.53-.71.15-1.57-.1-2.31-.07-.78.03-1.55.18-2.25.52-.58.27-1.08.67-1.54,1.11-.41.39-.86,1.12-1.38,1.35-.24.11.05.09-.22-.09-.23-.16-.43-.34-.63-.55-.44-.46-.82-.96-1.29-1.38-.86-.78-1.91-1.17-3.08-1.06-2.25.22-3.61,2.07-4.98,3.63-.58.66-1.03,1.52-1.9,1.04-1.47-.81-2.57-1.52-4.3-.9-.73.26-1.34.71-1.94,1.2-.47.39-.96.99-1.6.89-1.5-.23-2.64-2.62-3.17-3.82-.42-.94-2.1-.66-2.64.03-.89,1.13-1.62-1.56-1.97-2.02-.42-.55-1.07-.83-1.73-.98-.43-.1-1.37-.03-1.65-.38-.33-.41.22-1.55.07-2.14s-.57-1.06-1.06-1.42c-.73-.54-3.97-1.37-3.27-2.69.45-.85-.63-1.1-1.22-1.09-.72.01-1.93-.06-2.21-.88-.19-.55.13-1.23.01-1.81-.08-.41-.29-.79-.56-1.11-.51-.59-5.01-2.41-3.8-3.5.23-.21.42-.72.14-.97-2.61-2.42-3.79-5.83-5.57-8.83-.6-1.01-3.39.01-2.67,1.23Z"/>
    </g>
    <path d="M873.95,238.21c-.9,1.6-1.82,3.41-1.34,5.18.17.64.52,1.22.87,1.79.54.88,1.07,1.76,1.61,2.64.11.17.22.36.4.45.2.11.44.09.66.07.71-.06,1.45-.13,2.06-.49.62-.36,1.07-1.1.87-1.79-.08-.28-.27-.54-.24-.84.05-.57.76-.75,1.24-1.07,1.19-.8.87-2.58,1.02-4,.2-1.93,1.49-3.59,3.02-4.79.77-.61,1.62-1.13,2.25-1.88.63-.75,1.02-1.81.66-2.72"/>
    <path class="cls-47" d="M984.95,169.76c.53-5.43,1.27-11.03,3.23-16.15.48-1.26,1.05-2.52,1.79-3.65.22-.35.47-.68.74-.99.11-.13.22-.25.34-.37.22-.23.02-.04.19-.18.09-.08.19-.15.29-.22.23-.18.04-.09.03-.03.02-.07.54-.21-.06,0l-.95-.1c.99.61,1.79,1.57,2.46,2.5,1.93,2.68,2.82,5.94,3.15,9.19.09.89,2.09.41,1.99-.53-.39-3.85-1.61-7.81-4.28-10.72-.78-.85-1.82-2.12-3.08-1.54-.83.38-1.51,1.13-2.05,1.83-1.36,1.77-2.24,3.87-2.94,5.97-1.63,4.89-2.37,10.05-2.87,15.17-.1,1.01,1.93.73,2.02-.16h0Z"/>
    <path class="cls-47" d="M987.71,171.17c3.48-1.4,1.98,10.73,6.03,10.44,1.37-.1,1.81-1.39,1.95-2.56.23-2.01-.03-4.12-.31-6.11-.4-2.85-.99-5.26-2.28-7.81-1.45-2.87-3.73-6.18-7.25-6.42-.45-.03-1.11.13-1.3.61-.18.44.16.79.6.82,2.79.19,4.64,3.1,5.84,5.32,1.1,2.06,1.72,4.03,2.13,6.33.37,2.13.68,4.33.61,6.5-.02.63-.19,1.23-.24,1.84,0,.07-.15.24-.14.29h0c-.26-.13.01-.2.82-.23,0,0-.31-.26-.34-.3-.6-.73-.74-1.92-.93-2.81-.27-1.27-.49-2.56-.85-3.81-.31-1.09-.74-2.31-1.65-3.05-1.05-.85-2.4-.68-3.58-.21-.39.16-.73.61-.47,1.01.27.43.98.29,1.35.14h0Z"/>
    <path class="cls-21" d="M397.39,614.04l3.95-19.58s10.1-10.35,12.13-18.68c1.2-4.61,1.59-9.39,1.17-14.13,0,0,1.8-9.26-.6-12.73-2.4-3.47-4.88-1.09-4.88-1.09,0,0-2.34-7.54-8.65-4.4-.43-3.35-3.49-5.72-6.84-5.29-.19.02-.38.06-.57.1,0,0-5.55-7.39-10.17-2.19-2.53,2.84-6.14,13.99-6.14,13.99-.34,6.76-.1,13.53.7,20.25.45,8.09-.96,19.51-2.44,28.95l22.32,14.78"/>
    <path class="cls-47" d="M407.9,548.3c-.81,2.36-2.05,4.52-3.06,6.79-.98,2.21-1.55,4.47-1.57,6.89,0,1.8.48,4.55,2.56,5.1,1.77.47,3.39-1.18,4.31-2.45.65-.9,1.09-1.91,1.61-2.88.45-.83.69-1.97,1.33-2.68.34-.36.15-.84-.27-1.01-.49-.2-1.11.02-1.45.39-.62.67-.91,1.64-1.29,2.46-.2.42-.45.79-.67,1.2-.25.46-.39.97-.67,1.42-.31.51-.69,1-1.11,1.44-.15.16-.31.33-.49.45-.28.19.23-.2-.29.14-.31.2-.22-.04-.02.06-.29-.14-.54-.44-.72-.7-.33-.47-.51-1.01-.63-1.57-1.08-5.4,2.73-9.99,4.38-14.81.38-1.12-1.66-1.12-1.96-.24h0Z"/>
    <path class="cls-47" d="M399.49,543.59c-.69,2.67-1.01,5.3-1.42,8.02-.46,3.04-1.41,6.06-1.69,9.12-.18,1.9.55,5.05,2.78,5.43,2.51.43,3.93-1.84,5.3-3.49.48-.58-1.52-.37-1.88.07-.61.74-1.14,1.59-1.85,2.23-.35.31-.51.27-.94-.12-.26-.24-.38-.61-.54-.92-1.28-2.48-.66-4.87-.09-7.47.95-4.38,1.25-8.85,2.37-13.19.15-.58-1.88-.28-2.03.31h0Z"/>
    <path class="cls-47" d="M391.25,538.73c-1.1,2.83-1.74,5.82-2.19,8.81-.42,2.82-.82,5.84-.69,8.7.13,2.7,1.51,5.76,4.36,6.44,2.31.55,4.92-.29,5.74-2.64.2-.58-1.82-.33-2.04.3-1.04,3.02-4.19.68-5.12-1.2-1.13-2.29-.91-4.79-.73-7.26.33-4.53,1.05-9.19,2.71-13.45.21-.55-1.8-.32-2.04.3h0Z"/>
    <path class="cls-47" d="M381.5,539.63c-.78.89-1.23,2.12-1.53,3.25-.65,2.47-.47,5.2.06,7.68.47,2.2,1.4,4.39,3.77,5.01s4.59-.55,6.09-2.26c.82-.93,1.66-2.16,1.81-3.42.17-1.37-.44-2.71-.33-4.08.09-1.08-2-.81-2.08.15-.1,1.24.34,2.4.35,3.62.01,1.26-.82,2.41-1.64,3.29-.73.79-1.72,1.42-2.84,1.31s-2.01-1.01-2.42-2.03c-1.02-2.52-1.31-5.45-.94-8.12.18-1.28.59-2.81,1.43-3.76.33-.37.16-.84-.27-1.02-.48-.2-1.12.01-1.45.39h0Z"/>
    <path class="cls-21" d="M378.27,579.75c.15-1.09-.62-.93-.74-2.02-.11-2.41-2.1-5.91-2.27-9.48-.09-1.89-.59-6.43-.45-8.52.25-1,2.72-3.82,3.47-4.53.81-.9,1.69-1.73,2.64-2.48,4.32-3.44,7.93-3.22,12.81-5.81l5.81-1.3c.58,1.56.44,4.31-.48,5.7.04.71-4.53-1.78-4.76-1.11-.32.7-.69,1.38-1.1,2.04-.83,1.32-1.71,2.65-2.57,3.94-.94,1.28-1.74,2.66-2.38,4.12-.1.26-.16.53-.18.8.04.31.14.61.32.87.23.36.49.69.78,1,.52.56,1.06,1.05,1.6,1.55,2.01,1.74,3.88,3.64,5.59,5.67.74.89,1.33,1.9,1.76,2.98.27.99.32,2.04.14,3.05-.6,3.31-1.63,6.53-3.07,9.57-.64,1.09-1.11,2.26-1.4,3.49"/>
    <path class="cls-47" d="M377.93,556.66c1.69-1.85,3.65-3.57,5.66-5.06,1.71-1.26,3.47-2.01,5.48-2.65s3.83-1.28,5.83-1.73c1.59-.36,3.18-.71,4.77-1.07l-1.17-.26c.55,1.67.53,3.84-.41,5.39-.48.79-1.44,1.03-2.25,1.39s-1.59.75-2.39,1.11c-1.23.56-2.39,1.01-3.21,2.13-.93,1.27-2.11,2.93-2.44,4.49-.3,1.41,1.11,2.58,1.98,3.48,1.22,1.26,2.49,2.48,3.62,3.82,1.07,1.27,2.2,2.73,2.72,4.32.59,1.78-.42,3.52-.77,5.24-.17.81,1.9.49,2.05-.24.32-1.58,1.16-3.12.95-4.77-.2-1.53-1.28-3.05-2.17-4.25-1-1.35-2.17-2.56-3.35-3.75-1.19-1.21-3.55-2.82-2.74-4.71.61-1.43,1.63-3.63,3.06-4.35,1.56-.79,3.21-1.45,4.81-2.17,1.36-.61,2.1-1.42,2.57-2.86.52-1.55.54-3.25.03-4.8-.14-.44-.85-.34-1.17-.26-1.66.37-3.33.75-4.99,1.12-2.18.49-4.27,1.24-6.39,1.93-4.61,1.5-8.47,4.61-11.72,8.16-.82.89,1.17.9,1.65.37h0Z"/>
    <path class="cls-13" d="M226.6,457.16c.03-.15-.49-.23-.46-.39-7.97-3-14.2-3.9-16.54-3.73-1.78.13-3.55.63-5.27,1.4,0,0-4.73,2.05-5.39,3.01-.66.96,2.75-.2,2.75-.2.72-.13,1.22-.34,1.95-.38,3.97-.19,7.83-.94,11.68.06,3.29.83,7.57,3.41,10.62,5.1.31-1.66.23-3.24.67-4.87Z"/>
    <path class="cls-13" d="M267.7,443.13c-.11-.22-.18-.45-.24-.68-1.64-.29-3.63-.45-3.63-.45-1.7-.16-3.35-.05-4.85.4-1.97.6-6.69,3.42-11.98,8.72.08.13-.31.37-.22.5,1,1.35,1.57,2.82,2.48,4.24,1.81-2.52,4.27-6.25,6.62-8.07,2.73-2.15,6.18-2.7,9.49-3.8.6-.2,1.1-.17,1.74-.28,0,0,.4,0,.88-.04-.1-.18-.21-.36-.29-.56Z"/>
    <path class="cls-47" d="M233.16,461.72c2.48-.87,4.47-3.05,4.73-5.72.26-2.65-1.28-5.3-3.66-6.44-.33-.16-.74-.13-1.04.1-.2.15-.42.55-.09.72,2.03.98,3.44,3.15,3.35,5.43-.09,2.14-1.49,4.26-3.54,4.98-.27.09-.69.31-.6.67.09.33.59.37.85.28h0Z"/>
    <path class="cls-37" d="M248.01,496.58c-4.74.95-12.87,5.28-14.58,7.69,0,0,4.51,6.42,15.51,4.2,11-2.21,12.02-9.17,12.02-9.17,0,0-6.91-3.94-12.95-2.73Z"/>
    <path class="cls-26" d="M235.75,502.08s5.55-1.63,10.05-2.53c4.5-.91,10.24-1.55,10.24-1.55,0,0,0-3.79-8.17-2.14-8.16,1.64-12.12,6.22-12.12,6.22Z"/>
    <path class="cls-12" d="M249.87,507.43c-5.31.24-11.44-3.65-17.37-2.04,0,0,3.64,10,16.57,7.41,12.93-2.6,12.67-13.28,12.67-13.28-6.09.8-6.88,6.09-11.87,7.92Z"/>
    <path class="cls-12" d="M253.07,492.68c-2.76.33-4.26,1.79-5.44,2.03-1.18.24-3.13-.53-5.8.23-2.5.71-10.53,9.85-9.15,10.48,1.38.63,7.34-6.22,15.52-7.87,8.18-1.64,12.29,3.77,13.32,2.66,1.03-1.12-5.87-7.83-8.45-7.53Z"/>
    <path class="cls-38" d="M723.53,527.37c.64,0,1.53-.15,2.05-.55.38-.29.47-.56-.15-.56s-1.53.15-2.05.55c-.38.29-.47.56.15.56h0Z"/>
    <path class="cls-32" d="M110.58,652.75c.04.09.09.18.16.26.17-.18.34-.37.51-.55-.22.1-.45.2-.67.29Z"/>
    <path class="cls-47" d="M340.03,652.6c-7.93,9.05-11.85,21.14-10.69,33.12.08.78,2.13.31,2.05-.55-1.12-11.56,2.66-23.39,10.31-32.13.82-.93-1.16-1.03-1.67-.44h0Z"/>
    <path class="cls-21" d="M96.06,672.69c3.3-12.14,16.46-60.08,25.43-85.64,5.18,1.46,10.34,3.02,15.46,4.66,11.9,3.8,23.68,8,35.42,12.27,3.14,1.14,6.28,2.31,9.43,3.47-16.15,32.93-36.62,94.22-61.23,107.92-.45.25-.91.48-1.39.71,0-2.51-.25-5.02-.78-7.48-3.07-14.14-13.9-24.7-22.34-35.91Z"/>
    <path class="cls-21" d="M55.44,621.54l-3.81-19.61s-10.03-10.43-11.99-18.76c-1.16-4.62-1.53-9.4-1.07-14.14,0,0-1.73-9.27.69-12.72s4.89-1.05,4.89-1.05c0,0,2.39-7.52,8.68-4.34.45-3.35,3.53-5.69,6.87-5.24.19.03.38.06.57.1,0,0,5.6-7.35,10.18-2.11,2.51,2.86,6.04,14.04,6.04,14.04.29,6.76,0,13.53-.85,20.24-.5,8.09.82,19.52,2.23,28.97l-22.42,14.63"/>
    <path class="cls-47" d="M43.38,556.13c1.64,4.92,5.46,9.6,4.32,15.1-.12.57-.31,1.13-.65,1.6-.21.28-.92.64-.26.52s.03-.1-.2-.21c-.81-.36-1.5-1.39-1.96-2.1-.34-.53-.53-1.09-.8-1.65-.2-.41-.47-.78-.66-1.2-.36-.79-.63-1.75-1.22-2.4-.46-.5-2.41.23-1.91.79.55.6.79,1.53,1.13,2.26.4.87.83,1.77,1.31,2.59.82,1.39,2.03,2.96,3.8,2.97,2.12.01,3.37-2.25,3.57-4.09.26-2.29-.13-4.66-.95-6.8-1.03-2.7-2.55-5.18-3.47-7.93-.23-.68-2.27-.1-2.05.55h0Z"/>
    <path class="cls-47" d="M51.79,551.2c1.08,4.29,1.33,8.7,2.24,13.03.52,2.46,1.26,4.94.05,7.3-.45.87-.65,1.37-1.56.55-.74-.66-1.28-1.56-1.9-2.32-.47-.57-2.44.16-1.9.82,1.4,1.71,2.63,3.85,5.18,3.02,2.22-.73,3.11-3.66,2.93-5.79-.25-3-1.17-5.97-1.6-8.95-.4-2.78-.7-5.48-1.39-8.21-.19-.75-2.24-.22-2.05.55h0Z"/>
    <path class="cls-47" d="M60.07,546.4c1.62,4.27,2.32,8.93,2.61,13.47.16,2.4.39,4.86-.67,7.11-.53,1.11-1.42,2.51-2.82,2.46-1.27-.05-2.02-.87-2.4-2.01-.16-.48-2.19.12-2.05.55.85,2.51,3.54,2.66,5.76,1.89,2.67-.93,4.07-3.48,4.34-6.21.29-2.91-.18-6.1-.59-8.98s-1.05-5.99-2.13-8.83c-.19-.49-2.2.15-2.05.55h0Z"/>
    <path class="cls-47" d="M70.04,547.93c.9,1.04,1.31,2.62,1.49,3.94.39,2.7.07,5.67-.94,8.21-.37.92-1.04,2.03-2.17,1.99-1.23-.05-2.26-.81-3.06-1.68s-1.67-2.1-1.73-3.37.47-2.54.37-3.85c-.04-.5-2.1-.11-2.05.55.09,1.19-.33,2.32-.37,3.5s.55,2.2,1.22,3.13c1.31,1.81,3.29,2.98,5.58,2.64,1.07-.16,2.13-.59,2.95-1.3s1.27-1.74,1.61-2.79c.76-2.39,1-5.09.64-7.58-.2-1.42-.67-3.02-1.62-4.13-.39-.45-2.33.26-1.92.74h0Z"/>
    <path class="cls-21" d="M74.79,587.4c-.14-1.09.62-.92.76-2.01.13-2.41,2.15-5.9,2.34-9.47.1-1.89.64-6.43.51-8.52-.25-1-2.7-3.84-3.44-4.56-.8-.91-1.68-1.74-2.62-2.5-4.3-3.47-7.91-3.27-12.77-5.9l-5.8-1.34c-.59,1.56-.47,4.3.44,5.7-.04.71,4.54-1.75,4.77-1.07.32.7.68,1.39,1.08,2.05.82,1.33,1.69,2.66,2.54,3.96.93,1.29,1.72,2.68,2.35,4.14.1.26.16.53.17.8-.04.31-.15.61-.32.87-.23.35-.5.69-.79,1-.52.55-1.07,1.04-1.61,1.54-2.02,1.73-3.9,3.61-5.63,5.63-.75.89-1.35,1.89-1.78,2.96-.28.99-.34,2.03-.16,3.05.57,3.31,1.58,6.54,3,9.59.63,1.09,1.09,2.27,1.37,3.5"/>
    <path class="cls-47" d="M77.06,563.68c-3.17-3.51-6.93-6.65-11.46-8.16-2.08-.69-4.12-1.44-6.25-1.93-1.66-.39-3.32-.77-4.98-1.16-.48-.11-1.38-.01-1.57.57-.51,1.52-.58,3.1-.16,4.66s1.07,2.45,2.49,3.08c1.65.74,3.47,1.4,5.03,2.33,1.39.83,2.41,3.01,3,4.46.69,1.72-1.61,3.28-2.71,4.37-1.23,1.23-2.46,2.48-3.5,3.89-.92,1.25-1.98,2.73-2.19,4.31-.22,1.66.61,3.23.93,4.82.18.92,2.24.4,2.05-.55-.33-1.68-1.31-3.38-.74-5.11s1.78-3.17,2.93-4.47c1.07-1.21,2.25-2.33,3.38-3.49.91-.93,2.29-2.1,2.12-3.54-.17-1.52-1.47-3.33-2.33-4.55-.81-1.15-1.89-1.57-3.12-2.15-.8-.37-1.58-.77-2.39-1.13-.75-.34-1.76-.59-2.26-1.29-1.05-1.45-1.13-3.82-.57-5.45l-1.57.57c1.59.37,3.18.74,4.77,1.11,2.04.47,3.96,1.16,5.95,1.81s3.87,1.46,5.62,2.77c2.02,1.51,3.97,3.23,5.66,5.1.61.67,2.56-.14,1.88-.89h0Z"/>
    <path class="cls-4" d="M185.95,614.36l-33.11,67.54-6.77-2.16c-18.59-5.94-29.52-7.39-42.87-21.62l-7.44-10.85s22.77-68.5,27.5-73.54c15.48-16.5,47.64-25.42,47.64-25.42l15.06,66.05Z"/>
    <g>
      <path class="cls-4" d="M165.09,585.29c8.75,5.63,12.58,16.83,12.14,27.22s-1.57,19.95-5.51,29.58c-1.61,3.93-14.06,33.94-21.51,40.02,0,0-41.38-7.54-54.47-34.84l4.04-9.44s13.36,18.45,24.77,24.91c11.41,6.47,30.07,11.1,30.07,11.1"/>
      <path class="cls-19" d="M164.25,585.91c6.99,4.58,10.66,12.59,11.65,20.69.56,4.55.15,9.22-.27,13.77-.46,4.96-1.24,9.9-2.58,14.7s-3.51,9.73-5.57,14.45c-2.54,5.8-5.2,11.55-8.12,17.16-1.59,3.06-3.25,6.09-5.11,8.99-1.35,2.1-2.82,4.36-4.76,5.97l1.1-.29c-1.85-.34-3.75-.82-5.78-1.37-4.77-1.29-9.46-2.89-14.03-4.78-12.12-5.03-24.09-12.45-31.38-23.65-.55-.84-1.07-1.7-1.55-2.58-.22-.4-.43-.8-.64-1.2-.06-.12-.39-.6-.34-.43-.04-.12-.06.18-.06-.02,0-.28.31-.73.42-.98l.8-1.86c.93-2.17,1.86-4.34,2.78-6.5l-2.03.36c4.6,6.35,9.82,12.4,15.52,17.77,4.01,3.78,8.28,6.9,13.26,9.29,5.29,2.54,10.84,4.54,16.43,6.32,3.3,1.05,6.63,2.04,10,2.88.51.13,1.19.04,1.54-.41.28-.36.25-.9-.27-1.03-8.11-2.02-16.18-4.64-23.82-8-5.15-2.27-9.71-5.1-13.9-8.87-4-3.59-7.64-7.6-11.09-11.72-1.95-2.33-3.87-4.71-5.65-7.17-.44-.61-1.76-.28-2.03.36-.82,1.91-1.64,3.83-2.46,5.74-.45,1.05-.9,2.11-1.35,3.16-.07.17-.2.36-.23.54-.14.72.53,1.58.86,2.21,3.3,6.16,8.13,11.36,13.59,15.66,9.49,7.47,20.92,12.48,32.47,15.83,2.58.75,5.31,1.64,7.98,1.98,1.54.2,2.8-1.61,3.68-2.68,1.77-2.16,3.26-4.56,4.68-6.96,5.77-9.81,10.43-20.35,14.73-30.87,3.93-9.6,5.31-19.96,5.64-30.27.26-8.31-2.05-17.18-7.76-23.43-1.38-1.51-2.94-2.83-4.65-3.95-.78-.51-2.7.57-1.68,1.24h0Z"/>
    </g>
    <path class="cls-21" d="M71.77,584.36l46.51,89.26c-1.13,3.09-2.17,6.21-3.21,9.33-2.23,6.67,15.41,13.85,11.76,19.9-3.06,5.09-6.87,25.41-32.1,11.8-29.92-23.76-44.33-118.28-44.33-118.28l21.38-12Z"/>
    <path class="cls-47" d="M110.74,661.14c7.65,8.86,11.4,20.74,10.19,32.38-.09.91,1.98.56,2.06-.22,1.24-11.87-2.55-23.97-10.35-33.01-.52-.6-2.48.16-1.89.84h0Z"/>
    <path class="cls-27" d="M200.13,476.83s-5.45,1.53-5.15,4.96c.29,3.43,3.02,1.72,3.27.42s.03-3.86,1.88-5.38Z"/>
    <path class="cls-27" d="M201.01,483.02s-3.73,5.56-.83,8.42c2.9,2.86,4.04-.77,3.27-2.14s-2.94-3.49-2.44-6.28Z"/>
    <path class="cls-27" d="M268.81,460.13s5.64-.35,6.5,2.98c.85,3.34-2.28,2.63-2.95,1.48s-1.3-3.63-3.55-4.46Z"/>
    <path class="cls-27" d="M272.72,468.56s6.4,1.95,5.96,6c-.44,4.05-3.62,1.96-3.88.41s.07-4.56-2.08-6.41Z"/>
    <path d="M83.51,550.01c-.08-5.04-1.9-9.94-5.08-13.85-.56-.68-2.95.2-2.31.99,3.11,3.82,4.82,8.61,4.9,13.53.01.81,2.5.33,2.49-.67h0Z"/>
    <path d="M88.16,546.51c.59-2.71-.03-5.61-1.61-7.88-.64-.91-3.01.04-2.28,1.09,1.42,2.03,1.9,4.57,1.37,6.98-.13.6.7.85,1.15.81.59-.06,1.24-.37,1.37-1h0Z"/>
    <path d="M38.14,595.69c-2.48-2.07-3.82-5.3-3.57-8.51.03-.41-2.43-.12-2.49.67-.25,3.3,1.18,6.6,3.72,8.72.37.31,1.22.03,1.61-.11.18-.07,1.09-.46.73-.76h0Z"/>
    <path d="M372.14,537.28c.37-1.41.97-2.74,1.77-3.96.38-.58.78-1.11,1.24-1.61.26-.28.52-.55.8-.81.13-.12.27-.24.4-.36.06-.05.12-.1.18-.16,0,0,.26-.21.15-.13.34-.26.73-.75.2-1.05-.48-.27-1.35-.12-1.77.21-2.66,2.07-4.61,4.88-5.47,8.15-.15.56.74.65,1.09.61.51-.07,1.25-.32,1.4-.89h0Z"/>
    <path d="M368.61,536.61c-.03-2.04.59-4.08,1.7-5.78.32-.48-.27-.76-.68-.77-.56,0-1.31.19-1.64.69-1.27,1.95-1.9,4.2-1.87,6.52,0,.2.35.33.49.36.29.07.65.04.93-.05.48-.14,1.08-.41,1.07-.98h0Z"/>
    <path class="cls-32" d="M1031.75,502.39c.07.03.14.06.21.07,0-.18.01-.36.02-.54-.08.16-.15.32-.23.47Z"/>
    <path class="cls-18" d="M945.17,429.53c.09-.03.19-.06.29-.09-.1-.03-.21-.06-.31-.1-.03.07-.02.13.02.18Z"/>
    <path class="cls-18" d="M946.06,429.43c.13,0,.26-.01.39-.02-.14-.11-.27-.11-.39.02Z"/>
    <path class="cls-11" d="M1247.17,602.36c.59-22.02-.86-43.58-2.39-58.02l-17.97,48.86c6.77,3.09,13.54,6.21,20.36,9.17Z"/>
    <path class="cls-21" d="M1223.26,595.03l-13.05,35.49c-2.32.99-3.97-6.92-6.47-6.71-5.3-.61-8.67,2.45-13.02-.83-4.5-3.25-11.26-3.38-15.31-7.24,0,0-12.95-4.45-16.37-5.81-3.41-1.35-40.31,11.53-40.31,11.53-1.65,7.37,12.6,9.32,12.6,9.32l-27.51,12.34c.92,4.79,7.03,6.86,7.03,6.86l-4.06,3.76c-.55,2.94,3.86,6.69,6.98,6.75,3.12.07,34.8-6.87,34.8-6.87l23.45,2.4-12.83,1.31-32.52,12.42.77,3.01c4.4,10.38,37.7-.43,37.7-.43l9.4.54s27.87,17.72,46.81,9.34c5.33-2.36,11.44-10.17,13.37-13.04l.96-1.61c7.26-16.28,10.46-39.01,11.47-61.87-8-3.41-15.94-7.05-23.89-10.66Z"/>
    <path class="cls-47" d="M1175.39,639.98c-3.99-1.92-8.25-3.25-12.55-4.31-2.32-.57-4.66-1.04-7.01-1.49s-4.65-1.05-6.98-1.05-4.43.65-6.52,1.51c-2.32.96-4.64,1.94-6.95,2.93-4.26,1.82-8.51,3.69-12.69,5.68s-7.96,3.99-11.85,6.17c-.41.23-.17.36.12.45.41.12,1.1-.19,1.45-.39,6.66-3.74,13.53-7.01,20.52-10.07,2.09-.91,4.19-1.81,6.29-2.69,2.3-.97,4.75-2.34,7.24-2.67s4.92.39,7.26.84c2.07.4,4.15.8,6.2,1.28,4.63,1.08,9.25,2.44,13.54,4.51.38.18.95.03,1.32-.12.08-.03.93-.43.61-.58h0Z"/>
    <path class="cls-47" d="M1175.55,629.7c-1.05-1.16-2.31-1.92-3.73-2.56s-2.68-1.3-4.05-1.88c-2.68-1.14-5.57-1.74-8.46-2-6.26-.56-12.69.38-18.65,2.3-3.18,1.02-6.25,2.34-9.13,4.03-.39.23-.48.69-.13.98.39.33,1.09.07,1.46-.14,6.18-3.61,13.51-5.54,20.63-5.87,3.53-.17,7.14.11,10.55,1.11,1.63.48,3.09,1.2,4.61,1.92,1.81.85,3.63,1.47,5.01,2.99.58.64,2.53-.16,1.88-.87h0Z"/>
    <path class="cls-38" d="M1166.38,298.67c-6.27,16.12,8.48,43.06-.03,57.87-6.33,11.01-12.61,22.03-18.85,33.1-2.56,4.54-5.19,9.03-7.81,13.53,36.56,27.26,84.03,56.13,84.03,56.13,0,0-25.47,112.57-27.24,139.13-1.77,26.57,64.36,33.37,64.36,33.37,0,0,41.48-103.67,49.34-180.22,4.07-39.62-92-112.03-143.8-152.9Z"/>
    <polygon class="cls-13" points="1196.48 622.29 1243.65 640.35 1247.72 630.99 1200.77 608.89 1196.48 622.29"/>
    <path class="cls-13" d="M1215.89,641.55c-10.26-.75-17.97-9.68-17.22-19.94.75-10.24,9.65-17.94,19.89-17.22,10.26.72,18,9.63,17.27,19.89-.72,10.26-9.63,18-19.89,17.27-.02,0-.04,0-.05,0Z"/>
    <path class="cls-26" d="M1203.75,621.98s0-.04,0-.05c.59-7.6,7.23-13.29,14.83-12.71,7.6.59,13.29,7.23,12.71,14.83-.59,7.6-7.23,13.29-14.83,12.71-7.58-.59-13.27-7.19-12.71-14.78Z"/>
    <path class="cls-13" d="M1216.44,622.07h0l.66,2.15c-3.55-.8-6.87-2.39-9.72-4.66-.15-.63,4.6.2,10.5,2.08l1.84.36-1.13,1.58h0c-3.55,4.97-6.89,8.62-7.51,8.17-.62-.45,1.72-4.84,5.36-9.69Z"/>
    <path class="cls-6" d="M851.58,447.95c1.81,7.2,4.28,14.22,6.88,21.17,3.18,8.51,6.64,16.91,10.15,25.29,7.03,16.74,14.46,33.32,21.14,50.2,2.69,6.82,5.39,13.72,7.18,20.84.2.8,2.38.24,2.17-.58-1.56-6.2-3.84-12.23-6.14-18.18-3.09-7.98-6.42-15.88-9.77-23.76-7.27-17.1-14.81-34.11-21.45-51.47-3.02-7.89-5.93-15.89-7.99-24.09-.2-.8-2.38-.24-2.17.58h0Z"/>
    <path class="cls-6" d="M1101.67,282.69c-5.05,3.08-8.93,8.68-11.42,13.89-2.83,5.91-4.16,12.44-4.38,18.97-.29,8.52,1.1,17.37,3.98,25.39,4.9,13.63,14.15,25.6,23.67,36.32,9.64,10.86,20.3,20.81,31.39,30.17,3.92,3.31,7.91,6.54,11.97,9.69,1.98,1.54,3.95,3.21,6.06,4.58.09.06.18.13.27.19.52.37,2.43-.49,2.04-.77-5.04-3.62-9.9-7.52-14.69-11.46-10.7-8.81-21-18.17-30.5-28.27-10.07-10.71-19.77-22.47-25.93-35.92-3.33-7.27-5.21-15.16-5.88-23.12-.62-7.3-.04-14.76,2.35-21.71,2.35-6.83,6.52-13.4,12.48-17.63.09-.07.19-.13.29-.19.42-.25.19-.47-.15-.55-.47-.12-1.15.17-1.54.41h0Z"/>
    <path class="cls-6" d="M1224.26,460.15c8.9-5.23,18.81-8.53,29.07-9.69,1.07-.12,1.79-1.41.29-1.24-10.83,1.23-21.31,4.74-30.71,10.26-.38.23-.54.57-.18.87s1.2,0,1.54-.2h0Z"/>
    <path class="cls-6" d="M1203.29,546.47c.58,4.54-1.22,8.94-2.46,13.22-1.27,4.4-2.36,8.85-3.34,13.33-1.94,8.88-3.41,17.86-4.83,26.84-.27,1.69-1.27,4.07.66,5,2.29,1.11,4.73,1.97,7.08,2.95.47.2,1.12.1,1.54-.19.26-.18.69-.67.18-.88-2.02-.84-4.05-1.69-6.07-2.53-1.12-.47-1.81-.59-1.63-1.99.15-1.12.35-2.23.53-3.34.69-4.37,1.4-8.74,2.17-13.1,1.54-8.71,3.33-17.38,5.75-25.89,1.3-4.56,3.21-9.18,2.59-14.01-.1-.76-2.28-.26-2.17.58h0Z"/>
    <path d="M928.45,219.45c1.69.7,3.54,1.55,4.26,3.24.26.61.34,1.28.42,1.94.12,1.02.24,2.04.37,3.06.02.2.05.42-.03.61-.09.21-.29.34-.47.46-.6.39-1.22.79-1.93.89-.71.1-1.52-.2-1.79-.86-.11-.27-.13-.59-.33-.81-.39-.42-1.07-.12-1.63-.08-1.43.11-2.28-1.49-3.27-2.52-1.35-1.4-3.4-1.9-5.34-1.9-.98,0-1.97.11-2.94-.09s-1.92-.8-2.2-1.74"/>
  </g>
</svg>