<svg id="Layer_1" data-name="Layer 1" xmlns="http://www.w3.org/2000/svg" viewBox="0 0 348 282.35"><defs><style>.cls-1{fill:#f7d878;}.cls-10,.cls-12,.cls-17,.cls-2,.cls-4{fill:none;stroke-linecap:round;stroke-miterlimit:10;}.cls-2{stroke:#0a8ab2;stroke-width:5.63px;}.cls-3{fill:#a1cbec;}.cls-4{stroke:#1689b0;stroke-width:4px;}.cls-5{fill:#a0caeb;}.cls-6{fill:#7f5120;}.cls-7{fill:#ffca05;}.cls-8{fill:#00a0cc;}.cls-9{fill:#fff;}.cls-10{stroke:#0d3f60;stroke-width:1.85px;}.cls-11{fill:#0d3f60;}.cls-12{stroke:#231f20;stroke-width:1.11px;}.cls-13{fill:#049fcb;}.cls-14{fill:#0b4060;}.cls-15{fill:#56c4cf;}.cls-16{fill:#4f4a47;}.cls-17{stroke:#0b4060;stroke-width:2.4px;}.cls-18{fill:#5652a2;}</style></defs><polyline class="cls-1" points="348 281.35 348 -1 0 -1 0 281.35"/><path class="cls-2" d="M248.08,128s-14.22,14-25.5,16.06-25.19-5.63-25.19-5.63"/><path class="cls-3" d="M201.17,134a5.49,5.49,0,0,1,1.69,5.85,5.23,5.23,0,0,1-6.26,3.85l-6.41-1.88-.13,0H190l-8.65-2.54a1.44,1.44,0,0,1,.8-2.74l4.71,1.38a5.72,5.72,0,0,1-.07-1.25L181.13,135a1.44,1.44,0,0,1,.81-2.74l5.64,1.66a6.83,6.83,0,0,1,.66-.91l-4.85-1.43a1.44,1.44,0,0,1,.8-2.74l8.09,2.38a4.66,4.66,0,0,1,.82.13l-1.4-1a1.47,1.47,0,0,1-.31-1.95h0a1.27,1.27,0,0,1,1.8-.46"/><path class="cls-4" d="M171.61,165.15s12.4,9.86,36.82-3.39"/><path class="cls-5" d="M209.43,156.16a5.16,5.16,0,0,0,.16,5.71c1.56,2.58,4.55,3.81,6.64,2.73l5.15-2.65.1-.06.06,0,7-3.58a1.2,1.2,0,0,0,.25-1.74,1.43,1.43,0,0,0-1.74-.71l-3.78,1.94a5.72,5.72,0,0,0-.29-1.17l4.54-2.34a1.21,1.21,0,0,0,.25-1.74,1.43,1.43,0,0,0-1.74-.71l-4.54,2.34a6.09,6.09,0,0,0-.84-.77l3.9-2a1.19,1.19,0,0,0,.25-1.73,1.42,1.42,0,0,0-1.74-.72l-6.5,3.35a3.41,3.41,0,0,0-.68.23l1-1.1a1.45,1.45,0,0,0-.27-1.87h0a1.18,1.18,0,0,0-1.74-.18"/><path class="cls-6" d="M0,30.14a67.21,67.21,0,0,1,16.46-2.4v0l.63,0,.62,0v0c36.61.7,70.73,32.13,70.73,72.1,0,3.84-.1,12.34-.1,12.34V242.31H0Z"/><polyline class="cls-7" points="0 283.35 348 283.35 348 242.31 0 242.31"/><rect class="cls-8" x="217.83" y="34.67" width="87.36" height="175.78" rx="31.79" transform="translate(530.82 226.86) rotate(176.06)"/><path class="cls-9" d="M266.37,78.71a8.66,8.66,0,0,0-17.27,1.18"/><path class="cls-9" d="M235.72,80.82A8.65,8.65,0,1,0,218.46,82"/><line class="cls-10" x1="264.12" y1="65.24" x2="247.62" y2="64.87"/><line class="cls-10" x1="217.96" y1="68.57" x2="232.07" y2="65.84"/><path class="cls-11" d="M258.74,79.23a3.74,3.74,0,1,0-7.47.52"/><path class="cls-11" d="M228.1,81.34a3.74,3.74,0,1,0-7.47.52"/><ellipse class="cls-12" cx="258.54" cy="76.94" rx="11.76" ry="8" transform="translate(-4.04 15.17) rotate(-3.33)"/><ellipse class="cls-12" cx="226.42" cy="78.86" rx="11.76" ry="8" transform="translate(-4.2 13.3) rotate(-3.33)"/><path class="cls-12" d="M246.84,78.42s-5.11-5.78-8.85.6"/><polyline class="cls-8" points="286.73 202.46 280.61 250.31 274.05 250.22 269.22 202.37"/><polyline class="cls-8" points="261.63 201.4 255.5 249.25 248.94 249.16 244.12 201.31"/><path class="cls-11" d="M237.65,87.92c-2.32.25-3.27,2.45-1.4,3.35a14.41,14.41,0,0,0,8.13,1,14.16,14.16,0,0,0,7.27-2.58c1.65-1.31.33-3.27-2-3Z"/><path class="cls-2" d="M290.56,129.84s.26,19.95-6.08,29.51S263,173.62,263,173.62"/><path class="cls-3" d="M262.43,167.85a5.5,5.5,0,0,1,5.39,2.83,5.24,5.24,0,0,1-1.56,7.19l-5.8,3.31-.12.07-.06,0-7.83,4.48a1.44,1.44,0,0,1-1.42-2.48l4.26-2.44a6,6,0,0,1-.95-.81l-5.1,2.92a1.44,1.44,0,0,1-1.42-2.48l5.1-2.92a6.17,6.17,0,0,1-.2-1.11L248.33,179a1.44,1.44,0,0,1-1.42-2.48l7.32-4.19a4.76,4.76,0,0,1,.66-.5l-1.67.33a1.46,1.46,0,0,1-1.63-1.12h0a1.26,1.26,0,0,1,.92-1.62"/><path class="cls-13" d="M77.05,129.83c0,24.3,13.06,47.9,30,64.73,43.6,43.41,92.15-19.26,92.15-66.74,0-35-30-43.55-60.07-43.55S77.05,94.78,77.05,129.83Z"/><path class="cls-14" d="M176.59,145.2s-2.15-6.89-12.71-6.68-11.38,6.68-11.38,6.68Z"/><path class="cls-9" d="M191.45,131.82a10.57,10.57,0,0,0-21.14,0"/><path class="cls-9" d="M159.15,131.82a10.57,10.57,0,0,0-21.14,0"/><polyline class="cls-13" points="139.48 206.09 135.03 250.71 130.78 250.71 126.11 200.51"/><polyline class="cls-13" points="156.13 204.13 151.68 250.71 147.43 250.71 143.89 206.09"/><polygon class="cls-15" points="147.44 256.36 151.45 256.36 153.6 231.82 145.84 231.82 147.44 256.36"/><path class="cls-16" d="M161.65,256.58a7.15,7.15,0,0,0-14.29,0"/><line class="cls-17" x1="191.57" y1="118.02" x2="176.4" y2="115.27"/><line class="cls-17" x1="137.48" y1="118.12" x2="151.39" y2="114.99"/><path class="cls-14" d="M152.4,127.49a5.42,5.42,0,0,1-3.21-6.16,10.54,10.54,0,0,1,8.72,5.35A5.43,5.43,0,0,1,152.4,127.49Z"/><path class="cls-14" d="M184.67,127.49a5.42,5.42,0,0,1-3.21-6.16,10.54,10.54,0,0,1,8.72,5.35A5.43,5.43,0,0,1,184.67,127.49Z"/><path class="cls-4" d="M107.07,164.41S104.3,180,127.59,195.17"/><path class="cls-5" d="M133,193.38a5.16,5.16,0,0,0-4.94,2.86c-1.52,2.6-1.18,5.82.76,7.14l4.78,3.27.11.06.05,0,6.45,4.41a1.22,1.22,0,0,0,1.65-.61,1.42,1.42,0,0,0-.2-1.87l-3.52-2.4a5.68,5.68,0,0,0,.9-.81l4.22,2.87a1.19,1.19,0,0,0,1.64-.6,1.42,1.42,0,0,0-.2-1.87L140.47,203a7.66,7.66,0,0,0,.27-1.1l3.62,2.47a1.21,1.21,0,0,0,1.65-.61,1.42,1.42,0,0,0-.2-1.87l-6-4.12a4.1,4.1,0,0,0-.53-.49l1.43.32a1.46,1.46,0,0,0,1.52-1.13h0a1.19,1.19,0,0,0-.67-1.61"/><polygon class="cls-18" points="274.16 255.63 279.8 255.7 282.57 234.85 272.45 234.71 274.16 255.63"/><path class="cls-16" d="M260.62,255.59a9.75,9.75,0,0,1,19.5.11"/><polygon class="cls-15" points="131.13 256.36 135.13 256.36 136.96 231.82 128.99 231.82 131.13 256.36"/><polygon class="cls-18" points="248.91 255.63 254.55 255.7 257.32 234.85 247.45 234.72 248.91 255.63"/><path class="cls-16" d="M236.1,255.69a9.75,9.75,0,1,1,19.49-.07"/><path class="cls-16" d="M144.93,256.58a7.14,7.14,0,0,0-14.28,0"/></svg>