<svg id="Layer_1" data-name="Layer 1" xmlns="http://www.w3.org/2000/svg" viewBox="0 0 348 282.35"><defs><style>.cls-1{fill:#f7d878;}.cls-2{fill:#1b3663;}.cls-3{fill:#edeba9;}.cls-4{fill:#ffca05;}.cls-5{fill:#102547;}.cls-6{fill:#7f5120;}.cls-15,.cls-16,.cls-19,.cls-21,.cls-7{fill:none;stroke-linecap:round;stroke-miterlimit:10;}.cls-7{stroke:#1689b0;stroke-width:4px;}.cls-8{fill:#bcdaed;}.cls-9{fill:#777677;}.cls-10{fill:#049fcb;}.cls-11{fill:#0b4060;}.cls-12{fill:#fff;}.cls-13{fill:#56c4cf;}.cls-14{fill:#4f4a47;}.cls-15{stroke:#0b4060;stroke-width:2.15px;}.cls-16{stroke:#0a8ab2;stroke-width:5.63px;}.cls-17{fill:#a1cbec;}.cls-18{fill:#00a0cc;}.cls-19{stroke:#0d3f60;stroke-width:1.85px;}.cls-20{fill:#0d3f60;}.cls-21{stroke:#231f20;stroke-width:1.11px;}.cls-22{fill:#5652a2;}</style></defs><polyline class="cls-1" points="348.19 282.35 348.19 0 0.19 0 0.19 282.35"/><path class="cls-2" d="M88.65,26.74v0l.63,0,.62,0v0c36.61.69,70.73,31.79,70.73,71.32,0,3.8-.1,12.21-.1,12.21V239H18V110.27s-.09-8.41-.09-12.21C17.93,58.53,52.05,27.43,88.65,26.74Z"/><polygon class="cls-3" points="57.36 61.62 55.76 66.55 50.58 66.55 54.77 69.59 53.17 74.52 57.36 71.48 61.55 74.52 59.95 69.59 64.15 66.55 58.96 66.55 57.36 61.62"/><polygon class="cls-3" points="36.56 79.33 35.45 82.73 31.88 82.73 34.77 84.84 33.67 88.24 36.56 86.14 39.45 88.24 38.35 84.84 41.24 82.73 37.66 82.73 36.56 79.33"/><polygon class="cls-3" points="82.02 43.51 81.19 46.07 78.5 46.07 80.68 47.65 79.84 50.21 82.02 48.63 84.2 50.21 83.37 47.65 85.55 46.07 82.86 46.07 82.02 43.51"/><polygon class="cls-3" points="102.11 56.27 100.65 60.78 95.91 60.78 99.75 63.56 98.28 68.07 102.11 65.28 105.95 68.07 104.48 63.56 108.32 60.78 103.58 60.78 102.11 56.27"/><polygon class="cls-3" points="29.78 166.24 28.94 168.8 26.25 168.8 28.43 170.39 27.6 172.95 29.78 171.36 31.95 172.95 31.12 170.39 33.3 168.8 30.61 168.8 29.78 166.24"/><polyline class="cls-4" points="1.19 282.35 349.19 282.35 349.19 238.91 1.19 238.91"/><rect class="cls-5" x="18.02" y="227.04" width="142.61" height="11.95"/><rect class="cls-6" x="160.63" y="31.21" width="10.29" height="210.93" rx="5.14" transform="translate(331.54 273.36) rotate(-180)"/><path class="cls-7" d="M104.8,141.7s12,34.13,47.08,8.66"/><path class="cls-8" d="M147.05,148.15a3.82,3.82,0,0,0-1.15,4.06c.54,2.16,2.37,3.68,4.07,3.39l4.21-.73.09,0h0l5.68-1a.89.89,0,0,0,.56-1.17,1,1,0,0,0-1.07-.88l-3.09.53a4.3,4.3,0,0,0,.06-.89l3.71-.64a.89.89,0,0,0,.55-1.17,1,1,0,0,0-1.06-.89l-3.71.64a5.2,5.2,0,0,0-.42-.72l3.19-.55a.89.89,0,0,0,.55-1.17,1,1,0,0,0-1.06-.88l-5.31.92a2.44,2.44,0,0,0-.54,0l.92-.57a1,1,0,0,0,.22-1.37h0a.87.87,0,0,0-1.18-.51"/><circle class="cls-9" cx="154.33" cy="153.68" r="6.21"/><path class="cls-10" d="M26.52,124.66c0,21.81,11.72,43,26.9,58.08,39.12,38.95,82.68-17.28,82.68-59.89,0-31.44-26.94-39.06-53.9-39.06S26.52,93.21,26.52,124.66Z"/><path class="cls-11" d="M107.75,139.34s-1.92-6.18-11.4-6-10.21,6-10.21,6Z"/><path class="cls-12" d="M121.08,127.35a9.48,9.48,0,1,0-19,0"/><path class="cls-12" d="M92.11,127.35a9.49,9.49,0,1,0-19,0"/><path class="cls-11" d="M121.08,126.25a4.77,4.77,0,0,1-5.1-7.47A9.48,9.48,0,0,1,121.08,126.25Z"/><polyline class="cls-10" points="82.54 193.08 78.54 233.12 74.73 233.12 70.53 188.07"/><polyline class="cls-10" points="97.48 191.32 93.48 233.12 89.67 233.12 86.49 193.08"/><polygon class="cls-13" points="89.68 239.31 93.27 239.31 95.2 217.29 88.24 217.29 89.68 239.31"/><polygon class="cls-13" points="75 239.31 78.59 239.31 80.04 217.29 73.08 217.29 75 239.31"/><path class="cls-14" d="M102.42,239.51a6.41,6.41,0,1,0-12.81,0"/><path class="cls-14" d="M87.42,239.51a6.32,6.32,0,1,0-12.64,0"/><line class="cls-15" x1="121.19" y1="114.96" x2="107.58" y2="112.5"/><path class="cls-15" d="M72.67,115.05s10-3.12,12.47-2.81"/><path class="cls-7" d="M46.27,163.9s-6.73,18.63,5.83,32.58"/><path class="cls-8" d="M53,192.92a3.82,3.82,0,0,0-4.21-.25c-2,1-3.08,3.11-2.43,4.71l1.63,4a.59.59,0,0,0,0,.08.09.09,0,0,0,0,.05l2.19,5.33a.88.88,0,0,0,1.26.29,1.05,1.05,0,0,0,.64-1.23L51,203a4.7,4.7,0,0,0,.89-.14l1.43,3.48a.88.88,0,0,0,1.26.29,1,1,0,0,0,.63-1.23l-1.43-3.48a5.66,5.66,0,0,0,.62-.57l1.23,3a.89.89,0,0,0,1.26.3,1.05,1.05,0,0,0,.63-1.24l-2.05-5a2.33,2.33,0,0,0-.13-.52l.76.77a1.06,1.06,0,0,0,1.39-.08h0a.87.87,0,0,0,.24-1.26"/><path class="cls-16" d="M203.39,135.77s12,9.58,18.12,10.08,15.11-7.36,15.11-7.36"/><path class="cls-17" d="M209.78,133.91a5.46,5.46,0,0,1,.79,6,5.22,5.22,0,0,1-6.76,2.88L197.75,140l-.12-.07-.07,0-8.17-3.81a1.36,1.36,0,0,1-.57-1.83,1.38,1.38,0,0,1,1.77-.76l4.45,2.08a6,6,0,0,1,.12-1.25l-5.34-2.48a1.44,1.44,0,0,1,1.21-2.59l5.33,2.48a5,5,0,0,1,.79-.8l-4.59-2.14a1.44,1.44,0,0,1,1.21-2.59l7.64,3.56a4.52,4.52,0,0,1,.79.25L201,128.86a1.47,1.47,0,0,1,0-2h0a1.28,1.28,0,0,1,1.86-.19"/><rect class="cls-18" x="228.23" y="29.41" width="87.36" height="175.78" rx="31.79" transform="translate(551.24 215.63) rotate(176.06)"/><path class="cls-12" d="M276.77,73.44a8.66,8.66,0,0,0-17.27,1.19"/><path class="cls-12" d="M246.12,75.55a8.65,8.65,0,1,0-17.26,1.19"/><line class="cls-19" x1="276.8" y1="59.79" x2="259.74" y2="59.79"/><line class="cls-19" x1="227.46" y1="63.41" x2="243.37" y2="60.47"/><path class="cls-20" d="M269.14,74a3.74,3.74,0,0,0-7.47.51"/><path class="cls-20" d="M238.5,76.08a3.74,3.74,0,0,0-7.47.51"/><ellipse class="cls-21" cx="268.94" cy="71.68" rx="11.76" ry="8" transform="translate(-3.71 15.76) rotate(-3.33)"/><ellipse class="cls-21" cx="236.82" cy="73.6" rx="11.76" ry="8" transform="translate(-3.88 13.9) rotate(-3.33)"/><path class="cls-21" d="M257.24,73.16s-5.11-5.79-8.85.59"/><polyline class="cls-18" points="297.13 197.19 291.01 245.04 284.45 244.95 279.62 197.1"/><polyline class="cls-18" points="272.03 196.13 265.9 243.98 259.34 243.9 254.52 196.04"/><path class="cls-20" d="M247.37,83.41a1.8,1.8,0,0,0-.7,3.41A15,15,0,0,0,254.55,88a14.24,14.24,0,0,0,7.16-2.14,1.8,1.8,0,0,0-1.17-3.25Z"/><path class="cls-11" d="M92.11,126.25a4.77,4.77,0,0,1-5.1-7.47A9.5,9.5,0,0,1,92.11,126.25Z"/><path class="cls-16" d="M299.06,125.17s.26,20-6.08,29.52S271.48,169,271.48,169"/><path class="cls-17" d="M270.93,163.19a5.47,5.47,0,0,1,5.39,2.83,5.24,5.24,0,0,1-1.56,7.19l-5.8,3.31-.13.07-.05,0L261,181.1a1.43,1.43,0,0,1-1.42-2.47l4.26-2.44a6.57,6.57,0,0,1-1-.81l-5.11,2.92a1.43,1.43,0,0,1-1.41-2.48l5.1-2.92a6.17,6.17,0,0,1-.2-1.11l-4.39,2.51a1.44,1.44,0,0,1-1.42-2.48l7.32-4.18a4.09,4.09,0,0,1,.66-.5l-1.67.33a1.47,1.47,0,0,1-1.63-1.12h0a1.28,1.28,0,0,1,.92-1.63"/><polygon class="cls-22" points="284.52 251.72 290.16 251.8 292.93 230.95 282.81 230.81 284.52 251.72"/><path class="cls-14" d="M271,251.69a9.75,9.75,0,0,1,19.5.11"/><polygon class="cls-22" points="259.27 251.72 264.91 251.8 267.68 230.95 257.81 230.82 259.27 251.72"/><path class="cls-14" d="M246.45,251.79a9.75,9.75,0,0,1,19.5-.07"/></svg>