<svg id="Layer_1" data-name="Layer 1" xmlns="http://www.w3.org/2000/svg" viewBox="0 0 348 282.35"><defs><style>.cls-1{fill:#f7d878;}.cls-2{fill:#ffca05;}.cls-3{fill:#faac18;}.cls-4{fill:#e49425;}.cls-13,.cls-18,.cls-19,.cls-5,.cls-9{fill:none;stroke-linecap:round;stroke-miterlimit:10;}.cls-5{stroke:#0a8ab2;stroke-width:5.97px;}.cls-6{fill:#00a0cc;}.cls-7{fill:#fff;}.cls-8{fill:#0d3f60;}.cls-9{stroke:#231f20;stroke-width:1.18px;}.cls-10{fill:#5652a2;}.cls-11{fill:#4f4a47;}.cls-12{fill:#a1cbec;}.cls-13{stroke:#1689b0;stroke-width:4.24px;}.cls-14{fill:#a0caeb;}.cls-15{fill:#049fcb;}.cls-16{fill:#0b4060;}.cls-17{fill:#56c4cf;}.cls-18{stroke:#0b4060;stroke-width:2.54px;}.cls-19{stroke:#0d3f60;stroke-width:1.96px;}</style></defs><polyline class="cls-1" points="348 281.35 348 -1 0 -1 0 281.35"/><polyline class="cls-2" points="0 283.35 348 283.35 348 242.31 0 242.31"/><polyline class="cls-3" points="213.36 259.93 221.05 259.93 221.05 226.78 283.02 226.78 283.02 259.93 290.88 259.93 290.88 223.68 290.76 223.68 290.76 216.62 213.36 216.62 213.36 223.78"/><rect class="cls-4" x="206.76" y="200.85" width="90.08" height="18.01" rx="5.44"/><polyline class="cls-3" points="55.14 259.65 62.83 259.65 62.83 226.5 124.8 226.5 124.8 259.65 132.67 259.65 132.67 223.41 132.54 223.41 132.54 216.34 55.14 216.34 55.14 223.51"/><rect class="cls-4" x="48.55" y="200.57" width="90.08" height="18.01" rx="5.44"/><path class="cls-5" d="M127.29,113.48S139.56,130.7,151,134.91s27.33-1.26,27.33-1.26"/><rect class="cls-6" x="57.15" y="21.9" width="92.61" height="186.35" rx="33.71" transform="translate(8.15 -6.84) rotate(3.94)"/><path class="cls-7" d="M98.3,68.58a9.18,9.18,0,0,1,18.31,1.26"/><path class="cls-7" d="M130.79,70.82a9.17,9.17,0,1,1,18.3,1.26"/><path class="cls-8" d="M106.39,69.14a4,4,0,1,1,7.91.54"/><path class="cls-8" d="M138.87,71.38a4,4,0,1,1,7.92.54"/><ellipse class="cls-9" cx="106.6" cy="66.72" rx="8.48" ry="12.46" transform="translate(33.8 169.26) rotate(-86.67)"/><ellipse class="cls-9" cx="140.65" cy="68.75" rx="8.48" ry="12.46" transform="translate(63.83 205.16) rotate(-86.67)"/><path class="cls-9" d="M119,68.28s5.42-6.13,9.39.63"/><polyline class="cls-6" points="85.42 205.03 97.5 254.73 104.4 253.86 103.86 202.88"/><polygon class="cls-10" points="104.89 260.27 98.95 261.01 93.58 239.37 104.23 238.03 104.89 260.27"/><path class="cls-11" d="M118.33,258.87a10.34,10.34,0,0,0-20.51,2.57"/><polyline class="cls-6" points="111.75 200.97 123.82 250.66 130.73 249.8 130.19 198.82"/><polygon class="cls-10" points="130.62 256.5 124.68 257.24 120.14 235.49 130.56 234.19 130.62 256.5"/><path class="cls-11" d="M144.92,255.26a10.34,10.34,0,0,0-20.51,2.57"/><path class="cls-8" d="M131.91,79.3a1.05,1.05,0,0,1,.66,1.82c-1.55,1.5-4.72,3.38-10.72,2.93s-8.52-2.66-9.51-4.25a1.05,1.05,0,0,1,1-1.59Z"/><path class="cls-5" d="M72.65,122.79s-.27,21.15,6.45,31.28,22.79,15.13,22.79,15.13"/><path class="cls-12" d="M103.62,163a6.68,6.68,0,0,0-6.05,3.67c-1.8,3.13-1.25,6.86,1.22,8.27l6.09,3.48.13.07.06,0,8.22,4.71a1.78,1.78,0,0,0,1.71-3l-4.48-2.56a7.38,7.38,0,0,0,1.09-1l5.36,3.07a1.77,1.77,0,0,0,1.71-3l-5.36-3.06a7,7,0,0,0,.29-1.31l4.61,2.64a1.77,1.77,0,0,0,1.71-3l-7.68-4.39a4.57,4.57,0,0,0-.69-.54l1.8.27a1.84,1.84,0,0,0,1.85-1.41h0a1.33,1.33,0,0,0-.9-1.83"/><path class="cls-12" d="M172.6,129.63a6.68,6.68,0,0,0-2.79,6.49c.36,3.6,3,6.31,5.8,6l7-.71.14,0h.08l9.42-.95a1.58,1.58,0,0,0,1.17-1.85c-.1-.94-.78-1.65-1.52-1.57l-5.13.51a6.78,6.78,0,0,0,.3-1.45l6.15-.62a1.58,1.58,0,0,0,1.17-1.85,1.56,1.56,0,0,0-1.51-1.57l-6.15.62a7.57,7.57,0,0,0-.52-1.23l5.28-.54a1.77,1.77,0,0,0-.34-3.42l-8.81.89a3.58,3.58,0,0,0-.87,0l1.62-.82a1.85,1.85,0,0,0,.68-2.23h0a1.33,1.33,0,0,0-1.79-1"/><path class="cls-13" d="M214,166.58S200.9,177,175,163"/><path class="cls-14" d="M172.75,154.87a5.46,5.46,0,0,1,1.3,5.91c-1,3.05-3.71,5.08-6.13,4.52l-6-1.41-.12,0h-.07l-8.06-1.9a1.28,1.28,0,0,1-.7-1.73,1.51,1.51,0,0,1,1.6-1.18l4.39,1a7,7,0,0,1,0-1.29l-5.27-1.24a1.27,1.27,0,0,1-.7-1.72,1.51,1.51,0,0,1,1.6-1.18l5.27,1.24a6.46,6.46,0,0,1,.67-1L156,153.82a1.27,1.27,0,0,1-.7-1.72,1.51,1.51,0,0,1,1.6-1.18l7.55,1.77a3.91,3.91,0,0,1,.76.07l-1.27-.9a1.53,1.53,0,0,1-.2-2h0a1.26,1.26,0,0,1,1.74-.63"/><path class="cls-15" d="M309.68,122.78c0,25.76-13.85,50.78-31.77,68.62-46.23,46-97.7-20.42-97.7-70.75,0-37.16,31.83-46.17,63.68-46.17S309.68,85.62,309.68,122.78Z"/><path class="cls-16" d="M208.53,139.07a2.24,2.24,0,0,1-1.47-3.94c2-1.68,5.3-3.24,10.57-3.14s8.18,1.64,9.87,3.26a2.24,2.24,0,0,1-1.59,3.82Z"/><path class="cls-7" d="M188.41,124.89a11.21,11.21,0,0,1,22.41,0"/><path class="cls-7" d="M222.65,124.89a11.21,11.21,0,0,1,22.41,0"/><polyline class="cls-15" points="239.74 202.89 230.23 249.47 234.53 250.81 258.04 201.45"/><polyline class="cls-15" points="223.5 195.68 213.37 244.24 217.67 245.57 237.28 201.5"/><polygon class="cls-17" points="215.89 251.29 211.83 250.03 217.37 224.51 226.22 226.95 215.89 251.29"/><polygon class="cls-17" points="232.46 256.43 228.4 255.17 234.47 229.82 243.33 232.26 232.46 256.43"/><path class="cls-11" d="M201.44,247.05a7.57,7.57,0,1,1,14.46,4.49"/><path class="cls-11" d="M218.36,252.3a7.58,7.58,0,1,1,14.47,4.49"/><line class="cls-18" x1="188.28" y1="110.26" x2="204.36" y2="107.35"/><line class="cls-18" x1="245.62" y1="110.36" x2="230.88" y2="107.05"/><path class="cls-16" d="M229.81,120.3a5.75,5.75,0,0,0,3.39-6.54,11.19,11.19,0,0,0-9.24,5.68A5.75,5.75,0,0,0,229.81,120.3Z"/><path class="cls-16" d="M195.6,120.3a5.75,5.75,0,0,0,3.39-6.54,11.19,11.19,0,0,0-9.24,5.68A5.75,5.75,0,0,0,195.6,120.3Z"/><path class="cls-13" d="M273.68,163.41s-5.55,15.85-35,17.74"/><path class="cls-14" d="M234.67,176.7c1.76.65,3,2.69,3.08,5.2.05,3.2-1.93,6-4.41,6.21l-6.12.53H227l-8.26.72c-.65,0-1.19-.58-1.2-1.42a1.49,1.49,0,0,1,1.15-1.62l4.5-.39a6.72,6.72,0,0,1-.41-1.22l-5.39.47c-.65.05-1.19-.59-1.2-1.42a1.53,1.53,0,0,1,1.15-1.63l5.39-.46a7.37,7.37,0,0,1,.33-1.16l-4.64.4c-.64.06-1.19-.58-1.2-1.42a1.52,1.52,0,0,1,1.16-1.62l7.71-.67a4,4,0,0,1,.76-.18l-1.49-.45a1.53,1.53,0,0,1-.82-1.83h0c.18-.81.84-1.33,1.46-1.14"/><line class="cls-19" x1="97.9" y1="54.59" x2="116.5" y2="53.91"/><line class="cls-19" x1="149.99" y1="57.69" x2="135.13" y2="54.32"/></svg>