<?xml version="1.0" encoding="UTF-8"?>
<svg xmlns="http://www.w3.org/2000/svg" xmlns:xlink="http://www.w3.org/1999/xlink" viewBox="0 0 1334 1000">
  <defs>
    <style>
      .cls-1 {
        fill: #aec337;
      }

      .cls-2 {
        fill: #273339;
      }

      .cls-3 {
        fill: #633729;
      }

      .cls-4 {
        fill: #010101;
      }

      .cls-5 {
        fill: #1d3942;
      }

      .cls-6 {
        fill: #653c29;
      }

      .cls-7 {
        fill: #231f20;
      }

      .cls-8 {
        fill: #a06c52;
      }

      .cls-9 {
        fill: #f1eef7;
      }

      .cls-10 {
        fill: #5b3121;
      }

      .cls-11 {
        fill: #a66e53;
      }

      .cls-12 {
        fill: #31160e;
      }

      .cls-13 {
        fill: #ce8d2a;
      }

      .cls-14 {
        fill: #c95744;
      }

      .cls-15 {
        fill: url(#linear-gradient);
        opacity: .5;
      }

      .cls-16 {
        fill: #5b1a13;
      }

      .cls-17 {
        fill: #3f261c;
      }

      .cls-18 {
        stroke: #595a5a;
        stroke-miterlimit: 10;
      }

      .cls-19 {
        fill: #df8c26;
      }

      .cls-20 {
        fill: #513835;
      }

      .cls-21 {
        fill: #b15e27;
      }

      .cls-22 {
        fill: #f2ebd1;
      }

      .cls-23 {
        fill: #381c13;
      }

      .cls-24 {
        fill: #163f51;
      }

      .cls-25 {
        fill: #738136;
      }

      .cls-26 {
        fill: #4f2e25;
      }
    </style>
    <linearGradient id="linear-gradient" x1="-713.68" y1="3094.67" x2="345.75" y2="3094.67" gradientTransform="translate(-2425.82 704.78) rotate(90) scale(1 -1)" gradientUnits="userSpaceOnUse">
      <stop offset="0" stop-color="#f0ebe0"/>
      <stop offset=".18" stop-color="#eee8dd" stop-opacity=".99"/>
      <stop offset=".33" stop-color="#e8e1d4" stop-opacity=".97"/>
      <stop offset=".46" stop-color="#ded4c5" stop-opacity=".93"/>
      <stop offset=".59" stop-color="#d0c2b0" stop-opacity=".88"/>
      <stop offset=".72" stop-color="#bdab95" stop-opacity=".82"/>
      <stop offset=".84" stop-color="#a78e73" stop-opacity=".73"/>
      <stop offset=".96" stop-color="#8d6d4d" stop-opacity=".64"/>
      <stop offset="1" stop-color="#83603d" stop-opacity=".6"/>
    </linearGradient>
  </defs>
  <g id="Layer_1" data-name="Layer 1">
    <polyline class="cls-22" points="1372.37 1119.88 1372.37 -97.03 -34.67 -97.03 -34.67 1119.88"/>
    <polyline class="cls-15" points="1372.37 1047.04 -34.67 1047.04 -34.67 -12.39 1372.37 -12.39"/>
  </g>
  <g id="Layer_2" data-name="Layer 2">
    <path class="cls-11" d="M756.85,649.83c18.64-6.08,26.81-1.02,45.8-7.72,10.76,64.15,28.69,183.32,27.63,203.96-2.99,58.16-17.55,113.25-50.6,301.74l-49.43-4.67-4.47-185.48c.05-12.02.71-24.03,1.98-35.98l6.08-57.25-6.33-196.17c21.02,4.31,7.45-11.28,29.34-18.42Z"/>
    <path class="cls-24" d="M1125.42,900.29l27.18,93.85c24.37,145.02-23.37,202.52-49.65,260.71l-23.16,237.27s5.77,132.62,13.12,228.64c6.41,83.24-13.12,214.02-13.12,214.02l-124.39,5.59-75.99-453.09-12.33-311.91-47.98-243.36,306.31-31.71Z"/>
    <path class="cls-24" d="M756.73,981.12l15.22,456.97c-1.34,23.7,6.28,115.03,12.78,137.65l49.1,324.89,4.65,22.89,100.44,3.22-63.92-1011.13-118.27,65.51Z"/>
    <path class="cls-1" d="M1121.76,846.69c34.87,128.7,33.73,161.27,34.96,163.96,3.04,6.64-220.61,36.54-233.36,36.99-46.61,1.65-88.16-.89-134-9.03-10.18-1.81-29.87-15.6-33.51-25.17-6.02-15.81,4.6-67.62,7.27-80.89,3.53-17.61,6.8-65.64,7.58-83.7,1.59-36.89-3.41-100-5.3-136.9-1.23-24.24.53-183.18.53-183.18l48.37-26.07,44.42-25.11c.33-.2.68-.38,1.04-.53l11.66-6.32s.2,8.56-.06,9.8l1.66,2.25c10.13,16.16,16.01,24.99,37.39,26.24,7.4.43,14.65.34,21.52-.19,23.47-1.79,40.96-12.83,54.23-31.19l-2.36-20.94,13.02,8.03,112.39,56.83,20.26,256.49-7.7,68.65Z"/>
    <path d="M971.2,415.95s-9.59,14.33,2.03,15.38c11.61,1.05,11.33-1.49,11.33-1.49,0,0-1.33,13.29,8.1,13.29,9.43,0,14.22-6.22,14.22-6.22,0,0,1.76,11.91,12.12,11.3,10.36-.61,10.17-8.65,10.17-8.65,0,0,7.35,8.03,15.3,3.73,7.95-4.31,8.28-10.55,8.28-10.55,0,0,7.83,2.69,15.22-2.63,7.39-5.32,5.03-11.92,5.03-11.92,0,0,11.4-.17,15.15-9.35,3.75-9.18-7.1-20.99-7.1-20.99,0,0,9.76-5.86,9.52-12.43-.25-6.58-8.98-11.63-8.98-11.63,0,0,4.07-6.8-1.93-14.67-6-7.87-12.71-6.98-12.71-6.98,0,0,5.67-9.94-2.08-15.77s-22.42-5.34-22.42-5.34c0,0-80.37,31.52-71.26,94.93Z"/>
    <path class="cls-1" d="M704.19,711.52l33.74-143.76c4.03-16.06,19.64-36.79,35.36-42.59l91.44-42.4-76.84,235.74c-34.12-6.62-62.09,19.73-83.7-7Z"/>
    <polygon class="cls-11" points="737.04 801.71 747.41 822.28 762.33 808.88 794.65 772.05 753.28 776.7 737.04 801.71"/>
    <path class="cls-14" d="M738.54,772.89l-77.67-6.63-38.5-.08-18.65-115.87c-4.46,1.24-8.91,2.54-13.32,3.93-11.04,3.47-21.94,7.37-32.74,11.52-10.83,4.16-21.55,8.58-32.22,13.13-10.42,4.44-20.78,9.01-31.14,13.58-2.72,1.2-5.45,2.4-8.17,3.6,6.8,21.42,13.52,42.87,19.56,64.61,7.48,26.96,25.42,77.56,43.62,99.49,14.66,17.66,29.02,27.81,58.65,27.88,17.11.04,82.88-34.41,85.26-35.42,26.8-11.45,64.26-33.98,64.26-33.98l-18.93-45.76Z"/>
    <path d="M1007.32,231.75c-.71-14.47-1.43-28.94-2.14-43.41-.27-5.41.28-12.17,5.39-14.23,3.73-1.5,5.25,15.1,8.7,17.18,7.75,4.67,20.14-2.27,26.84,3.76,5.47,4.93,8.46,8.8,8.38,16.07-.07,5.77-3.57,11.92-.66,16.95,1.55,2.68,4.65,4.31,6,7.09,3.34,6.91-6.04,14.43-4.17,21.84,1.36,5.4,8.32,8.67,8.29,14.23-.02,5.9-8.15,10.12-6.73,15.87.5,2.03,2.13,3.58,3.34,5.3,5.42,7.66,1.05,19.95-8.03,22.61,4.67,3.12,6.91,9.34,5.28,14.63-1.64,5.29-7.02,9.22-12.66,9.24,5.39,3.81,7.47,11.51,4.71,17.42-2.76,5.9-10.07,9.35-16.51,7.8,2.45,4.65,2.94,10.62-.05,14.94-2.99,4.32-9.97,5.87-13.88,2.29-2.55-2.34-4.98-6.74-8.08-5.19-1.51,3.32-.3,7.32-1.6,10.72-1.7,4.43-7.3,6.4-12.07,5.63-4.77-.77-8.9-3.61-12.84-6.37,1.05,6.29-3.88,12.92-10.3,13.86-6.42.94-13.15-3.99-14.07-10.3,0,0,1.93,9.36-9.25,10.58-11.18,1.22-16.67-9.6-16.67-9.6"/>
    <path d="M791.26,383.95c14.31-14.41,13.97-36.06,8.88-54.56-4.87-17.71,4.06-47.57-17.61-43.08-.41.08,5.3-16.73-.91-14.32,2.3-10.61-5.86-5.67-9.72-16.56-.78-2.2-8.49-34.03,5.39-37.7,39.06-80.18,104.89-65.41,143.95-66.44,76.66-2.01,118.7,23.83,120.15,147.11.97,82.76-65.78,116.97-141.79,126.98-32.48,4.28-79.94-15.45-108.94-40.86.2-.19.4-.37.6-.57Z"/>
    <path class="cls-8" d="M877.78,465.86c1.11-3.85-.72-44.6-.72-44.6l59.89-27.7,43.26-24.03c-2.31-.62-8.57,82.28,16.6,95.2,3.57,1.83,0,0,0,0,0,0-19.08,67.81-96.36,69.34-43.7.86-46.56-19.84-43.41-36.27,2.43-12.64,5.92-23.2,17.38-29.07,3.23-1.65,2.95-1.43,3.36-2.87Z"/>
    <path class="cls-1" d="M738.81,654.77s-13.11,32.25-12.45,49.8c.66,17.55.96,32.91,12.45,51.35,11.49,18.43,28.45,32.05,28.45,32.05,0,0,14.51-111.34,14.51-115.89,0-4.55-42.97-17.3-42.97-17.3Z"/>
    <path class="cls-17" d="M862.67,450.9c-1.28-10.2-1.75-8.62-3.2-19.06-.12-.88-.34-1.68-.6-2.44,30.62-3.95,71.48-19.56,97.26-23.26-.88.86-13.57,23.75-18.13,28.5-21.56,22.46-36.2,32.14-58.13,36.33l-4.57.6s-4.5,1.01-4.76.03l-3.2-21.59-4.68.9Z"/>
    <g>
      <path class="cls-8" d="M818.88,211.8c-5.25,1.97-10.26,4.4-14.98,7.27-1.4.02-2.69.04-3.6.07.12-.24.33-.56.69-1.01l2.31-2.11c2.63.14,2.74,1.72,4.53-.46-.45.54.72-5.43.78-4.96,3.07-.41,2.21-.5,4.58-2.27.06.44,7.72,1.81,8.74,2.37-1.02.36-2.04.71-3.05,1.09Z"/>
      <path class="cls-8" d="M781.19,373.79c-.11-6.97,6.82-22.29,5.5-28.83-1.52-7.56-10.83-42.31-7.02-66.37,3.62-22.84,8.38-37.02,10.32-42.18,4.73-5.32,10.21-9.89,16.31-13.56,10.34-6.23,22.34-10.06,34.09-12.57,5.06-1.08,10.49-2.02,15.95-2.37,0,.1.09.08.22-.01,2.17-.13,4.34-.17,6.49-.08-.14.36-.32.65-.54.68,1.77.55,3.59.38,5.34-.26,2.69.37,5.32.96,7.84,1.87,1.58.57,2.84-.56,3.12-1.81,1.85-.21,3.71-.98,5.28-2.15.06.47-.84,1.56-1.28,2.11,2.11.21,4.16-.06,6.01-1.76l-1.28,2.11c2.05-.27,3.71.48,6.66-.88.06.47-.9,1.09-.84,1.56,1.54-.2,3.59-.47,5.06-1.15.06.48-1.35,1.63-.83,1.56,2.05-.27,3.71.48,6.14-.81-.45.54-.83,1.56-1.28,2.11,2.05-.27,4.16-.06,6.08-1.29.06.48-.32,1.5-.77,2.04,2.05-.27,3.71.48,6.15-.81.06.47-.84,1.56-1.29,2.11,2.05-.27,4.16-.06,6.15-.81.06.48-.9,1.09-1.35,1.63,2.05-.27,4.16-.06,6.6-1.35.13.95-.32,1.5-.26,1.97,1.54-.2,2.5-.81,4.03-1.01l2.69.61c8.42,8.59,29.87,25.15,29.87,25.15,17.57,10.77,20.82,33.08,21.51,42.2.68,9.12-3.09,39.55-3.09,39.55,2.12-3.67.87-4.36,1.9-8.37,1.1-3.54,2.95-7.6,4.05-11.14,3.6-8.23,14.16-7.2,20.42-3.18l1.15,1.44c9.26,9.74,10.42,36.87-1.93,56.67.94,20.48-14.18,27.1-24.57,18.42l-1.75,8.26-16.14,18.5c-17.54,23.36-45.39,52.61-68.02,58.8-11.08,3.03-17.55,7.31-31.62,4.69-35.75-6.66-80.46-53.48-81.06-91.28Z"/>
      <path class="cls-8" d="M856.57,203.44c-8.16.4-16.33,1.86-24.29,4.02,2.78-1.92,7.43-5.27,7.43-5.27,3.14.07,2.74,1.12,5.06-1.12-.9,1.09,14.07-2.76,13.68-1.73,1.16-.15.52,1.9-.34,4.05-.51.02-1.03.03-1.54.06Z"/>
    </g>
    <g>
      <path class="cls-4" d="M837.64,383.01c3.54,1.3,8.58.29,11.69-2.16.69-.54,3.23-.41,2.26.36-4.11,3.23-11.38,4.36-15.95,2.68-.45-.17-.42-.5.1-.74.53-.25,1.42-.32,1.9-.14"/>
      <path class="cls-4" d="M852.92,380.1c2.11-1.31,4.56-2.16,7.05-2.65.36-.07.86,0,1.15.21.23.16.31.4.05.59-1.08.79-2.52,1.24-3.88,1.38-.43.04-1,0-1.29-.32-.26-.3.12-.57.46-.6,1.12-.12,2.24-.47,3.13-1.12.41.27.81.53,1.21.8-2.22.44-4.4,1.22-6.29,2.39-.38.23-.96.18-1.35.02-.29-.12-.62-.45-.24-.69"/>
      <path class="cls-4" d="M862.92,379.19c2.93-.43,6.22-2.1,7.4-4.43,1.78-3.53-.94-8.76-4.86-10.4-.43-.18-.25-.5.14-.63.51-.18,1.16-.06,1.61.13,3.42,1.43,6.06,5.73,5.96,8.85-.1,2.91-2.66,5.25-6.07,6.51-1.01.37-2.11.67-3.2.83-.44.06-1.26.03-1.52-.28-.26-.32.13-.52.54-.58"/>
      <path class="cls-4" d="M832.08,382.2c.12-.35-.2-.53-.44-.5-.79.12-1.63,0-2.37-.46-.22.34-.44.68-.66,1.03,1.61-.02,3.26.29,4.79,1.05.3.15.7-.02.92-.26.17-.18.33-.56.02-.72"/>
      <path class="cls-4" d="M834.35,382.35c-1.71-.84-3.56-1.17-5.36-1.15-.26,0-.58.18-.74.44-.13.2-.13.45.09.58"/>
      <path class="cls-4" d="M826.03,383.33c-1.92.16-4.32-.82-5.52-2.86-1.82-3.09-.98-7.13,1.15-9.5.23-.26.06-.54-.22-.59-.36-.07-.74.17-.98.44-1.85,2.07-2.84,5.18-2.15,8.21.64,2.82,2.72,4.6,5.1,5.15.71.16,1.45.24,2.17.18.29-.03.79-.22.89-.58.1-.36-.18-.48-.45-.46"/>
    </g>
    <path class="cls-7" d="M778.33,298.09c12.15-4.1,20.02-4.28,40.95-1.75l.05.48c.34,2.74.15,1.21.49,3.97.26,2.1.51,4.19.76,6.28-6.84-.93-11.83-2.25-16.21-2.46-8.28-.4-17.81-1.86-25.98.11.03-2.21.02-4.42-.06-6.63Z"/>
    <path class="cls-7" d="M852.91,291.76c.38,2.73.17,1.21.56,3.96.3,2.09.6,4.18.9,6.26,6.97-2.75,11.88-5.37,16.45-6.76,9.05-2.76,19.22-7.01,28.77-6.96,4.57.03,11.14.19,14.86,3.48,1,.88,3.11,4.27,4.77,3.28.68-.4-.97-3.61-1.14-3.94-3.36-6.47-11.55-8.23-19.5-8.8-16.2-1.15-22.59.22-45.75,9"/>
    <path d="M800.98,322.61c-3.15-1.16-6.42.63-8.12,2.62-.4.47-1.47,1.79-1.78,3.83-.4,2.6.97,5.31,2.74,6.84,2.38,2.03,5.89,1.98,8.37.37,3.37-2.18,3.97-6.72,2.65-9.79-.24-.56-1.34-2.92-3.88-3.86"/>
    <path d="M824.69,330.99s-16.03-9.52-23.56-9.28c-10.98.35-14.06,4.98-17.19,10.86,0,0,7.01-8.17,14.76-8.19,7.4-.02,26,6.62,26,6.62Z"/>
    <path d="M886.2,312.97c2.74-1.93,5.36-2.27,7.52-.79.51.35,1.88,1.35,2.71,3.24,1.06,2.41.44,5.38-.88,7.31-1.77,2.58-5.17,3.43-7.99,2.53-3.82-1.23-5.57-5.46-5.1-8.77.09-.61,1.53-1.95,3.74-3.52"/>
    <path d="M866.63,325.71s14.02-13.44,21.85-15.27c14.12-3.29,28.49,3.16,33.3,8,0,0-22.06-8.13-30.07-6.08-7.65,1.96-25.09,13.34-25.09,13.34Z"/>
    <path d="M788.93,243.14c.5,13.35-19,5.65-10.07.68-2.36-6.06,5.93-10.29,4.46-16.66.49.49.81.89.81.89,0,0,6.4-7.31,8.59-9.65,2.19-2.33,4.86-10.75,4.86-10.75l3.96,2c-.13-.17-1.83-2.47-.34-4.33,1.5-1.88,18.88-15.74,31.37-17.28.42-.06.84-.1,1.24-.12l5.65,1.74.2.06c-.06-.02-.14-.05-.22-.08-1.01-.37-3.21-1.35-2.42-2.63.27-.46.91-.95,2.09-1.47,1.74-.76,4.41-1.5,7.34-2.15,0-.01,0-.03,0-.04.28-.05.56-.09.84-.14.28-.06.55-.12.83-.18,0,.01,0,.03,0,.04,2.97-.45,5.73-.73,7.63-.66,1.29.06,2.06.28,2.49.61,1.21.91-.49,2.62-1.29,3.33-.06.05-.12.11-.17.15l.16-.13,4.62-3.66c.38-.13.79-.25,1.2-.34,12.2-3.09,33.46,3.53,35.55,4.74,2.07,1.2,1.32,3.95,1.27,4.15l2.96-3.3s15.91,3.07,18.8,4.45c2.9,1.39,4.89,5.6,4.89,5.6,0,0,4.83.82,6.35-.01,1.52-.83,10.76,2.02,15.18,6.42,2.83,2.82,2.61,6.02,4.26,8.66h0c.93,1.49,1.48,2.48,1.48,2.48l9.24,1.31c7.61,2.09,8.62,16.95,8.62,16.95,16.92,14.46,20.35,28.84,17.17,45.61-1.22,6.47,16.88,9.35,5.96,11.16-11.06,1.83-13.51,38.49-13.51,38.49,0,0-11.92-11.86-13.58-18.11-1.66-6.24-2.16-25.58-2.16-25.58l-5.45.23s-3.48-.73-8.73-7.16c-5.26-6.44-.55-20.54-.55-20.54l.62-8.1-10.22,2.66c-10.33.13-12.98-10.75-12.98-10.75l-1.74-18.61-4.85,7.26s-1.76,3.33-5.28,3.71c-15.74,1.72-19.42-7.73-19.42-7.73l-3.83-8.82-3.43,3.39c-3.51,4.24-15.22,11.95-22.23,10.34-1.84-.43-10.07-4.68-11.37-5.24-4.75-2.29-6.46-8.03-6.96-10.19.49-.71.93-1.57,1.38-2.31,1.75-2.86,3.01-2.03,1.26.83-3.02,4.93-8.36,12.06-14.02,13.38-5.46,1.27-17.75,1.17-19.71-1.13-1.31-1.55.4-2.09-1.6-1.62-1.74.4-3.01,1.97-3.88,3.48-2.06,3.56-2.97,8.37-6.31,10.98-4.85,3.79-8.66,1.4-14.28,1.25-1.25-.03-2.8.91-2.74,2.4Z"/>
    <path class="cls-10" d="M844.47,399.36c14.03-2.04,41.2-7.74,41.2-7.74,0,0,1.49,34.89-31.05,39.63-32.53,4.74-33.25-29.7-33.25-29.7,0,0,9.07-.15,23.1-2.19Z"/>
    <path class="cls-12" d="M844.34,399.38c6.67-.97,38.07-6.71,38.07-6.71,0,0-6.75,26.01-31.01,28.47-25.48,2.58-25.67-19.82-25.67-19.82l18.61-1.94Z"/>
    <path class="cls-9" d="M846.83,400.17c6.68-.92,6.74-.6,31.48-5.74,0,0-6.15,9.04-26.16,11.95-20.01,2.92-28.3-3.73-28.3-3.73l22.98-2.48Z"/>
    <path class="cls-10" d="M818.65,402.25c.68-.29,2.15-.29,5.79-3.22,1.29-1.04,1.14-2.27,5.09-3.19,6.75-1.57,11.51.74,14.48.31,2.97-.43,6.88-4.01,13.79-4.43,4.05-.25,15.65-.22,21.24-.51,3.36-.17,7.04-2.14,7.77-2.06,1.02.12.26,8.29-37.07,13.73-37.33,5.44-32.05-.24-31.1-.64Z"/>
    <path d="M1014.16,178.5c6.55-5.61,4.26-17.91-3.87-20.82-2.22-.8-4.75-1.01-6.6-2.45-4.55-3.54-2-11.57-6.11-15.59-4.57-4.46-12.29-.18-18.72-.88-8.55-.93-14.13-10.81-22.73-11.07-8.84-.27-16.13,9.92-24.73,7.91-4.89-1.14-8.15-5.98-13.02-7.2-9.08-2.27-16.6,8.87-25.98,8.92-7.83.04-15.86-7.61-22.45-3.42-2.9,1.84-4.19,5.47-7.02,7.4-6.58,4.49-16.56-2.58-23.3,1.68-3.41,2.15-4.7,6.54-7.88,9-5.87,4.54-16.81,1.78-19.86,8.47-2.01,4.41,1.22,10.49-2.2,13.97-2.97,3.03-8.62,1.39-11.92,4.07-3.64,2.95-2.11,8.92-4.61,12.85-2.29,3.59-7.15,4.44-10.83,6.66-6.52,3.95-8.89,13.28-5.02,19.73"/>
    <path class="cls-2" d="M982.63,312.96l1.07-5.82-66.46-3.66h0c-22.56-5.88-52.19,3.63-68.46,16.95l-15.42,2.61.12-.25c-19.67-11.16-49.92-9.65-71.65,3.55l.91,2.35h0c.02.15.22.48.4.98l.82,2.04c5.05,13.01,10.77,26.72,15,30.01,2.84,2.22,11.33,2.45,18.28,2.19,2.62-.07,5.02-.24,6.73-.36,2.06-.17,20.36-1.64,23.07-4.83,2.71-3.18,5.39-24.88,6.07-31.72l15.81-2.6c2.64,4.94,9.42,26.75,17.71,30.36,8.29,3.61,47.82-2.84,50.83-8.78,2.14-4.24,6.21-19.39,7.28-26.92l2.19-9.8,55.69,3.71ZM824.94,356.82c-3,3.1-39.4,6.43-44.32,2.61-4.15-3.24-11.36-21.79-14.07-28.77l-.04-.3c19.55-10.65,46.8-12.05,63.87-2.67-1.42,11.83-3.76,27.08-5.45,29.06v.06ZM912.58,344.9c-1.88,3.76-36.24,10.9-44.79,7.17-5.95-2.57-11.17-18.49-14.92-27.51,15.95-12.7,49-21.16,69.21-14.67-2.09,11.92-5.27,23.63-9.5,35h0Z"/>
    <path d="M1039.28,201.3c2.57-2.81,3.93-7.29,3.57-11.74-.36-4.45-2.43-8.77-5.43-11.31-4.73-4.01-10.73-3.31-16.16-2.45-1.53.24-3.1.51-4.37,1.55-1.75,1.43-2.59,4.06-3.35,6.54-.73,2.42-1.46,5.2-.52,7.64.61,1.6,1.82,2.71,2.97,3.74,3.41,3.05,6.82,6.1,10.23,9.15"/>
    <path d="M1023.66,179.2c2.57-2.81,3.93-7.29,3.57-11.74-.36-4.45-2.43-8.77-5.43-11.31-4.73-4.01-10.73-3.31-16.16-2.45-1.53.24-3.1.51-4.37,1.55-1.75,1.43-2.59,4.06-3.35,6.54-.73,2.42-1.46,5.2-.52,7.64.61,1.6,1.82,2.71,2.97,3.74,3.41,3.05,6.82,6.1,10.23,9.15"/>
    <path class="cls-25" d="M753.05,579.31c1.39,14.27,3.18,28.51,3.87,42.84.32,6.69.55,13.49-.28,20.15-1.08,8.67-3.52,17.26-5.68,25.7-2.62,10.23-5.43,20.45-7.26,30.87-.27,1.52,2.7,1.21,2.95-.18,3.25-18.49,9.64-36.3,12.7-54.83,1.06-6.4.88-13.03.63-19.49-.3-7.82-.96-15.62-1.7-23.41-.72-7.48-1.59-14.95-2.32-22.43-.14-1.42-3.04-.7-2.9.78h0Z"/>
    <circle class="cls-19" cx="990.94" cy="373.04" r="7.45"/>
    <path class="cls-23" d="M988.05,335.33c.73-6.89,1.77-13.96,4.32-20.44.95-2.41,2.16-5.12,4.19-6.83.22-.18.34-.25.57-.41.04-.03.09-.03-.02,0l-.93.09c1.31.82,2.4,2.14,3.27,3.38,2.4,3.44,3.51,7.58,3.89,11.72.02.26,1.48,0,1.45-.39-.43-4.78-1.88-9.63-5.12-13.29-.9-1.01-1.88-2.38-3.33-1.71-.92.42-1.67,1.22-2.29,1.99-1.72,2.14-2.82,4.76-3.7,7.34-2.1,6.09-3.06,12.56-3.74,18.94-.02.17,1.4.04,1.45-.39h0Z"/>
    <path class="cls-23" d="M991.52,336.26c3.53-.85,3.49,5.23,3.6,7.33.09,1.61-.27,6.93,2.46,6.75,1.39-.09,1.92-1.42,2.22-2.59.66-2.51.71-5.21.72-7.79,0-3.46-.27-6.43-1.36-9.7-1.21-3.63-3.29-8.02-7.4-8.92-.42-.09-1.69.56-.9.73,3.58.78,5.49,4.78,6.62,7.9.91,2.54,1.44,4.98,1.54,7.67.11,2.88.1,5.8-.34,8.65-.13.85-.28,1.72-.6,2.52-.05.14-.43.67-.42.8.01.22.29.05.28-.07,0-.06-.31-.28-.35-.32-.76-.87-.78-2.41-.87-3.49-.13-1.63-.15-3.26-.31-4.88-.15-1.48-.35-3.22-1.32-4.41s-2.41-1.14-3.74-.82c-.87.21-.7.86.17.65h0Z"/>
    <path class="cls-5" d="M593.92,1729.15c10.93-109.66,11.43-332.87,11.8-442.82l-.3-270.97c-1.03-6.2-2.08-12.37-3-18.54-8.22,1.47-6.06,2.66-14.44,3.41-27.4,2.44-55.08.95-82.2-3.15-56.1-8.48-109.52-27.97-160.71-49.78-20.27-8.63-40.27-17.75-60.23-26.95l-34.14,7.13s-57.65,68.4-66.38,222.61c-2.5,44.1,15.88,145.46,23.25,244.35,18.64,250.18,49.97,537.38,49.97,537.38,0,0,46.18,30.28,184.19,23.92,30.69-1.42,132.27-18,132.27-18,8.89-41.75,15.61-165.35,19.92-208.59Z"/>
    <path class="cls-14" d="M588.62,846.61s9.9,138.9,21.21,166.65c0,0-135.45,38.9-270.14,22.66-134.69-16.24-130.08-29.21-130.08-29.21l43.61-131.31,2.68-57.44,301.48,16.2"/>
    <path class="cls-14" d="M572.73,856.87l74.84-5.04c-4.5-32.74-9.22-63.44-14.66-87.55-9.56-45.33-18.48-162.51-30.84-214.97-8.19-34.74-92.53-75.01-99.26-77.17,0,0,4.67,182.13,33.81,253.25,10.19,24.86,23.32,75.77,36.11,131.49Z"/>
    <path class="cls-16" d="M594.28,577.99c-1.06,3.74-1.86,7.56-2.57,11.38-1.46,7.9-2.42,16-2.11,24.05.25,6.66,2.32,13.07,4.1,19.44,2.7,9.67,5.42,19.33,7.74,29.1,2.72,11.45,4.97,23.03,6.16,34.75s1.39,23-.67,34.28c-1.86,10.19-5.83,20.23-13.06,27.84-1.76,1.85-3.69,3.55-5.76,5.06-.64.46-.59.49-.64,1.18-.18,2.18-.34,4.37-.49,6.55-.66,9.54-1.14,19.1-1.44,28.66-.41,13.22-.5,26.45-.02,39.67.47,13.03,1.4,26.14,3.83,38.96.51,2.72,1.11,5.42,1.8,8.1.07.28,1.52-.1,1.45-.39-3.13-12.06-4.38-24.6-5.14-37-.83-13.51-.95-27.06-.7-40.58.2-10.82.65-21.64,1.31-32.44.2-3.18.41-6.36.66-9.53.06-.8.13-1.61.19-2.41.08-.9.38-.8,1.2-1.43,8.17-6.22,13.52-15.19,16.43-24.94,3.17-10.65,3.72-21.96,3.18-33-.58-11.81-2.46-23.53-4.91-35.08-2.22-10.49-4.97-20.85-7.85-31.18-1.9-6.81-4.13-13.64-5.41-20.6-1.06-5.75-.65-11.85-.09-17.63.65-6.72,1.83-13.4,3.43-19.97.25-1.04.51-2.07.8-3.1.07-.24-1.33-.08-1.42.27h0Z"/>
    <path class="cls-14" d="M579.99,764.48c-2.55,3.19-6.3,5.69-5.9,82.13.07,13.85,14.6,62.87,17.8,75.92-11.82,3.99-23.92,7.15-36.22,9.37-53.77,9.71-109.03,3.02-161.75-9.51-45.09-10.72-88.91-25.95-132.49-41.62l1.24-3.06-21.97-375.69,84.07-47.89,13.72,4.19.89,8.19c16.3,19.66,36.77,30.74,63.25,30.93,7.75.05,15.89-.41,24.16-1.47,23.05-2.97,47.16-14.54,57.58-32.57.39-.68,1.68-4.05,4.59-2.17,23.04,14.85,76.16,40.15,88.32,55.91,0,0,8.96-2.28,11.87,63.48"/>
    <path class="cls-11" d="M475.3,382.79s-4.06,56.1-2.28,63.44c1.78,7.34,13.52,13.57,13.52,13.57l1.14.67.14.4c5.48,15.77,2.55,33.45-8.34,46.11-8.4,9.76-22.27,17.73-44.94,17.73-55.21,0-102.5-58.68-102.5-58.68l-7.26-11.9s17.77-8.61,19.88-14.66c15.19-43.39,12.73-106.06,12.73-106.06"/>
    <path class="cls-26" d="M473,441.89s-12.93-5.41-21.7-8.13c-8.77-2.72-23.91-2.59-63.69-38.99,0,0,10.8,43.74,62.53,54.41,0,0,13.36,3.17,22.24,1.26l.62-8.56Z"/>
    <path class="cls-11" d="M525.55,178.28c.17.15.36.31.55.46-.19-.31-.37-.63-.49-.95l-.06.49ZM547.24,185.23c.29.34.62.68.96,1.01l.05-.41s-.95-1.09-1-.61ZM382.35,391.79c18.47,23.5,48.47,48.49,81.32,51.73,22.3,2.2,23.82-4.09,32.74-10.82,13.56-10.22,27.82-20.59,38.42-33.2,10.17-12.09,14.9-19.79,20.42-34.54,5.71-15.26,6.11-19.4,6.1-35.27,0-7.09.62-17.75,1.86-24.42,1.43-7.7,8.24-37.93,10.85-55.82,2.62-17.89-12.66-47.84-12.66-47.84-.49-4.98-2.74-8.68-4.93-12.87l-2.11-.25s1,.61.83,2.06c-2.63-.72-5.14-2.49-6.99-4.34v.08c-3.35,1.09-6.36-.74-8.72-3.47-.06.49.36,1.52.89,1.58-3.23.12-6.23-1.71-8.12-3.89-.06.49.36,1.52.31,2-2.35-.72-4.61-2.24-6.46-3.79.41.69,12.56.22,12.52.56-3.22.12.28,1.6-2.08-1.14l-2.41-2.11c-2.7.18-2.79,1.78-4.68-.4.47.55-.84-5.51-.89-5.03-3.17-.37-2.28-.48-4.76-2.24-.06.48-9.01,2.15-9.07,2.64-2.64-.31-2.23,2.2-4.12.01.47.55,2.15-1.81,2.62-1.27-3.23.12-4.66,2.02-7.02-.72.47.55-9.84-6.54-9.84-6.54-3.23.11-2.81,1.18-5.23-1.07.95,1.09-14.53-2.6-14.12-1.57-2.64-.31,3.92,10.27,1.98,8.57-.06.49-5.91-2.16-5.91-2.16-2.7.18.99,3.07-.9.88-.06.48.3,2,.83,2.06-3.34,1.09-6.93-.31-9.88-2.62.94,1.09,1.36,2.13,1.83,2.67-2.65-.31-4.81-.07-7.23-2.31-.06.48.83,2.06,1.36,2.12-2.76.66-5.87-.19-8.35-1.95-.06.48.89,1.58,1.36,2.12-2.16.24-4.28,0-6.22-1.71l1.36,2.13c-2.11-.25-3.81.54-6.87-.8-.06.48.95,1.09.89,1.58-1.59-.18-3.7-.43-5.23-1.1-.06.49,1.42,1.64.89,1.58-2.11-.25-3.81.54-6.34-.74.47.55.89,1.58,1.36,2.12-2.12-.25-4.29,0-6.29-1.22-.06.49.36,1.52.83,2.07-2.12-.25-3.81.54-6.34-.74-.06.48.89,1.58,1.36,2.12-2.12-.25-4.29,0-6.35-.74-.06.49.95,1.1,1.42,1.64-2.12-.25-4.29,0-6.82-1.28-.11.97.36,1.52.3,2-1.59-.18-2.59-.79-4.17-.97l-2.76.66c-8.53,8.85-11.77,41.42-11.77,41.42-17.91,11.2-27.35,37.15-27.89,46.43-.54,9.28-5.5,28.87-5.5,28.87-2.25-3.7-7.22-11.65-8.35-15.72-1.19-3.58.37-7.82-.82-11.4-3.85-8.32-14.71-7.12-21.09-2.94l-1.16,1.48c-9.36,10.03-4.46,45.15.38,55.96-.61,20.83,16.32,33.73,28.22,20l1.94,8.37"/>
    <path class="cls-13" d="M346.94,332.6c-5.8-.03-11.81,3.52-12.85,9.56-.47,2.73.15,5.47,1.71,7.75,1.1,1.61,2.49,2.54,4.27,3.32,3.75,1.63,7.96,1.21,11.54-.65.4-.21.84-.58.32-.88s-1.59.1-2.03.34c-3.5,1.82-8.51.6-10.94-2.54-2.88-3.72-2.82-9.09.29-12.66,1.7-1.95,3.91-2.91,6.48-2.9.56,0,1.6-.22,1.93-.73.35-.54-.31-.6-.72-.61h0Z"/>
    <path d="M370.31,254.74l-8.28,46.87-14.18-22.76s16-17.29,22.46-24.11Z"/>
    <g>
      <path class="cls-4" d="M496.63,348.57c-4.05,1.78-9.99.9-13.77-1.8-.84-.6-3.79-.27-2.61.57,4.99,3.56,13.54,4.43,18.77,2.14.52-.23.46-.62-.16-.87-.64-.26-1.68-.29-2.23-.04"/>
      <path class="cls-4" d="M478.62,346.11c-2.55-1.41-5.46-2.27-8.38-2.69-.43-.06-1,.06-1.33.32-.26.2-.34.5-.02.7,1.3.87,3.01,1.3,4.61,1.38.5.03,1.17-.05,1.48-.46.29-.38-.18-.67-.57-.69-1.32-.06-2.64-.41-3.72-1.13-.46.34-.91.68-1.36,1.02,2.62.38,5.21,1.16,7.49,2.43.45.25,1.14.15,1.57-.07.33-.16.69-.57.24-.83"/>
      <path class="cls-4" d="M466.91,345.69c-3.44-.32-7.39-2.08-8.91-4.77-2.3-4.06.5-10.07,4.97-12.27.49-.24.26-.61-.21-.74-.61-.17-1.36,0-1.86.25-3.89,1.92-6.66,6.82-6.35,10.51.3,3.45,3.43,6.05,7.49,7.32,1.21.38,2.5.66,3.78.78.52.05,1.47-.05,1.75-.43.29-.39-.18-.61-.67-.65"/>
      <path class="cls-4" d="M503.06,347.26c-.16-.41.2-.64.48-.62.93.09,1.9-.11,2.73-.69.28.39.56.78.84,1.17-1.88.08-3.78.56-5.52,1.55-.35.2-.81.02-1.09-.25-.21-.2-.42-.65-.07-.85"/>
      <path class="cls-4" d="M500.41,347.58c1.95-1.11,4.08-1.62,6.18-1.71.31,0,.69.18.9.47.16.23.18.53-.06.7"/>
      <path class="cls-4" d="M510.18,348.2c2.25.07,4.98-1.25,6.26-3.75,1.92-3.78.69-8.51-1.94-11.18-.29-.29-.1-.63.21-.71.41-.11.87.16,1.17.46,2.29,2.33,3.63,5.96,3.02,9.59-.57,3.39-2.88,5.63-5.62,6.44-.82.24-1.68.38-2.52.36-.34-.01-.94-.21-1.08-.62-.14-.42.18-.58.5-.57"/>
    </g>
    <path d="M553.07,292.35c-1.34-1.04-2.58-.4-3.97-1.38-.46-.32-.92-.63-1.4-.91-.11-.06-.21-.12-.32-.18-.01,0,0,0-.01,0-.24-.12-.48-.24-.73-.35-.46-.2-.93-.37-1.41-.51-.03,0-.13-.03-.2-.04-.05,0-.09-.01-.11-.02-.26-.04-.51-.07-.77-.09-.39-.03-.74-.18-1.02-.39-2.38.99-3.39,3.22-3.62,3.76-1.26,3.03-.59,7.48,2.8,9.57,2.5,1.54,5.99,1.55,8.32-.48,1.74-1.52,3.38-5.46,2.94-8-.03-.18-.46-.8-.5-.97Z"/>
    <path d="M514.94,295.54s15.59-9.59,22.98-9.46c10.78.18,23.23,7.61,26.39,13.34,0,0-16.35-10.85-23.95-10.76-7.26.09-25.41,6.88-25.41,6.88Z"/>
    <path d="M449.47,277.57c-2.76-1.86-7.52-1.99-9.64-.51-.5.35-1.85,1.35-2.64,3.21-1.01,2.38-.35,5.29,1,7.17,1.8,2.51,5.2,3.3,7.99,2.37,3.78-1.26,5.45-5.43,4.92-8.68-.1-.59.61-1.64-1.61-3.14"/>
    <path d="M465.69,288.43s-14.94-12.13-22.85-13.29c-11.54-1.68-26.15,3.49-30.54,8.59,0,0,19.39-7.87,27.48-6.47,7.74,1.34,25.91,11.16,25.91,11.16Z"/>
    <path d="M569.69,276.97c.08-.11.2-.26.22-.3.1-.15.18-.3.27-.45.04-.07.09-.19.12-.25.07-.18.14-.36.2-.55.05-.17.1-.34.14-.51.01-.04.07-.37.09-.46.01-.14.04-.35.04-.39.01-.18.02-.35.02-.53,0-.24-.01-.47-.02-.71,0-.04,0-.06,0-.08,0-.02,0-.04-.01-.07-.07-.41-.14-.81-.25-1.21,0-.02-.01-.03-.02-.05-1.87-2.38-3.61-3.79-3.83-3.98,0,0-3.99-3.3-10.6-5.26-4.55-1.35-17.28-2.82-34.34-1.78-.11,2.17-.21,4.35-.31,6.53-.08,1.66-.15,3.32-.22,4.97,5.95-1.09,11.02-1.74,14.85-2.15,8.09-.85,12.23-1.25,16.86-.27,4.86,1.03,8.93,2.97,10.51,3.74,2.22,1.08,3.72,1.76,5.47,3.1.28.21.52.43.78.65Z"/>
    <path d="M474.04,254.79c-.47,2.12-.95,4.25-1.44,6.38-.37,1.62-.74,3.24-1.12,4.85-6.75-2.91-12.6-5.11-17.03-6.69-9.37-3.34-14.17-5.02-19.93-5.51-6.05-.53-11.41.08-13.5.32-2.93.35-4.9.54-7.35,1.28-5.33,1.61-7.92,4.16-8.64,3.73-.66-.39,1.08-2.75,1.26-2.99,4.42-5.93,11.91-8.38,12.48-8.59,0,0,5.65-1.93,14.03-1.76,5.77.12,21.28,2.67,41.23,8.98"/>
    <path class="cls-6" d="M482.42,367.45c-14.72-1.98-38.3-7.1-38.3-7.1,0,0-.51,39.13,33.61,43.72,34.12,4.58,40.35-34.1,40.35-34.1,0,0-20.94-.54-35.65-2.51Z"/>
    <path class="cls-12" d="M483.59,367.57c-7-.94-35.02-6.04-35.02-6.04,0,0,6.52,26.26,31.83,29.66,27.44,3.69,33.11-20.51,33.11-20.51l-29.92-3.11Z"/>
    <path class="cls-9" d="M482.71,368.67c-7-.94-28.11-5.11-28.11-5.11,0,0,6.52,9.53,27.51,12.35,20.99,2.82,28.76-4.54,28.76-4.54l-28.16-2.7Z"/>
    <path class="cls-6" d="M520.95,369.35c-.72-.3-2.84-.16-6.27-.96-5.72-1.33-9.11-3.51-13.26-4.43-7.08-1.57-12.05.95-15.17.53-3.11-.42-7.24-4.16-14.49-4.52-4.24-.21-14.86.09-20.72-.14-3.52-.14-7.39-2.18-8.16-2.08-1.07.14-.2,8.83,38.95,14.09,39.15,5.26,40.11-2.07,39.11-2.49Z"/>
    <path class="cls-23" d="M352.99,307.63c-1.42-5.81-3.11-11.62-5.65-17.05-1.25-2.67-2.72-5.35-4.77-7.5-.72-.76-1.65-1.68-2.69-1.98-1.23-.35-2.09.83-2.75,1.68-3.22,4.12-4.11,9.61-3.89,14.71.01.24,1.47,0,1.45-.39-.18-4.17.38-8.43,2.33-12.17.69-1.31,1.55-2.71,2.71-3.67l-1.25.34c.91.18,2,1.22,2.69,1.93,2.97,3.1,4.82,7.32,6.35,11.26,1.67,4.3,2.93,8.75,4.03,13.23.07.31,1.53-.06,1.45-.39h0Z"/>
    <path class="cls-23" d="M348.53,308.34c-7.4-.76-3.26,10.15-4.32,13.95-.06.21-.21.42-.26.63-.02.09-.16.17-.2.24.47-.79.33.36.16-.19-.06-.2-.38-.46-.49-.65-.23-.39-.4-.83-.56-1.25-.86-2.29-1.27-4.76-1.6-7.17-.44-3.18-.59-5.97-.05-9.11.6-3.5,1.82-8.4,5.57-9.77.94-.34.09-.92-.59-.67-3.5,1.27-5.11,5.03-5.96,8.39-.66,2.59-1.03,5.27-.81,7.94.25,3,.64,6.02,1.42,8.94.33,1.24.81,3.61,2.14,4.24,1.02.49,2.11-.27,2.52-1.19.56-1.23.36-2.82.27-4.12-.15-2.18-1.67-9.69,2.23-9.29.6.06,1.52-.79.55-.89h0Z"/>
    <path class="cls-21" d="M563.03,220.74c-9.54-29.75-40.59-49.22-106.49-65.11-65.9-15.89-120.98,2.5-120.98,2.5,42.18-92.14,138.93-77.74,160.58-75.23,21.65,2.51,123.63,99.84,77.89,174.96l-2.67,7.29s-6.61-39.01-8.34-44.42Z"/>
    <path class="cls-21" d="M320.7,136.26s-1.07-60.91,45.06-75.97c61.62-20.12,142.79-22.74,164.25,42.2l-209.31,33.77Z"/>
    <path class="cls-19" d="M309.85,282.49c-4.28-5.44-1.37-19.17-4.89-25.13-18.43-31.23-8.24-58.55,2.01-74.29,4.46-6.85.85-20.2,1.93-26.54,5.69-33.21,9.64-33.8,63.31-62.34,43.68-23.23,87.38-16.9,112.6-12.6,40.39,6.88,58.01,11.5,68.89,41.96,1.42,3.97-.93,6.78.09,11.48,1.45,6.66,11.41,8.51,12.15,16.82,0,0-54.59,14.94-102.11,33.92-47.53,18.98-137.82,103.36-137.82,131.78,0,.89-11.41-29.04-16.14-35.06Z"/>
    <path class="cls-21" d="M294.99,216.53s87.65-85.73,171.6-76.83c0,0-105.71-26.45-162.29,45.5l-1.49,2.96c-3.92,7.8-6.44,16.23-7.43,24.91l-.39,3.45Z"/>
    <path class="cls-21" d="M554.81,136.25l-5.44-2.78c-12.65-6.47-26.16-11.07-40.13-13.66l-23.4-4.35s58.11-3.37,69.12,12.52l-.16,8.28Z"/>
    <path class="cls-21" d="M344.1,229.93s-33.34,27.31-37.03,39.23l-2.11-11.81s11.5-21.01,39.14-27.42Z"/>
    <path class="cls-20" d="M449.26,766.75c-.09.03-.18.05-.28.06"/>
    <path class="cls-14" d="M279,560.82l100.98,234.5,24.08-1.31,202.52-17.11,26.64,68.38s-139.45,42.82-183.76,52.83c-39.54,8.93-45.69,10.25-62.68,12.34-29.41,3.61-79.31,5.53-96.05-10.17-20.79-19.5-34.39-60.76-45.17-86.58-21.33-51.1-35.14-100.58-55.75-151.98,0,0-23.77-65.68,4.38-113.85,23.55-40.31,57.25-51.13,57.25-51.13l25.62,57.88"/>
    <path class="cls-11" d="M1124.09,907.74c1.24-11.15-4.63-16.65-6.59-27.67-2.07-11.63-20.02-9.21-24.62-20.1-4.2-9.95-9.42-19.65-16.26-28.05-2.57-3.15-5.43-6.22-8.62-8.85l-.65,1.66-26.69-3.06-187.91-10.41-28.82,41.63s129.68,55.76,171.38,66.25c37.22,9.36,43,10.75,59.03,13.11,15.33,2.26,52.18,4.43,66.57-2.35.33-1.8,2.99-20.38,3.19-22.17Z"/>
    <path class="cls-11" d="M1123.27,560.87c-32.07-28.52-54.5-18.66-54.5-18.66l-15.98,50.94-6.92,27.32,1.67,217.55c5.31,1.71,10.41,4.47,15.05,7.56,9.2,6.12,17.43,13.92,24.79,22.46,7.88,9.15,14.9,19.22,20.72,30.05,5.38,10.02,9.92,20.82,12.25,32.16,8.9-6.12,16.03-13.24,19.56-21.11,10.98-24.47,14.56-70.13,15.31-96.99,1.49-53.15-5.69-103.14-4.89-156.32,0,0,11.27-60.89-27.05-94.97Z"/>
    <path class="cls-16" d="M250.87,826.86c7.75,18.62,13.39,38.49,24.98,55.23,5.26,7.6,11.62,14.64,19.31,19.84s15.9,8.74,24.49,11.51c9.5,3.06,19.38,5.02,29.32,5.81,8.66.69,17.18.2,25.78-.87,14.62-1.82,29.17-4.06,43.64-6.82,15.16-2.88,30.34-5.96,45.2-10.15,12.16-3.42,24.2-7.25,36.2-11.17,13.99-4.57,27.92-9.3,41.82-14.12,13.6-4.71,27.17-9.51,40.72-14.37,10.64-3.81,21.27-7.66,31.89-11.54,5.41-1.98,10.82-3.96,16.22-5.97.24-.09.48-.18.71-.26.11-.04.53-.21.46-.4-2.75-7.56-5.5-15.13-8.25-22.69-4.35-11.96-8.7-23.93-13.05-35.89-1.01-2.77-2.01-5.53-3.02-8.3-.05-.14-.3-.14-.42-.13-2.24.21-4.49.42-6.73.62-6.03.56-12.06,1.12-18.08,1.68-8.72.81-17.43,1.62-26.15,2.43-10.41.97-20.83,1.93-31.24,2.9-11.02,1.02-22.05,2.05-33.07,3.07-10.54.98-21.08,1.96-31.62,2.93-9.08.84-18.15,1.68-27.23,2.53-6.51.6-13.03,1.21-19.54,1.81-2.89.27-5.78.57-8.67.8-7.04.56-14.12.77-21.17,1.15-1.03.06-2.06.11-3.09.17l.42.13c-1-2.54-2-5.09-2.99-7.63-2.66-6.78-5.32-13.56-7.98-20.33-3.83-9.76-7.66-19.53-11.49-29.29-4.47-11.4-8.94-22.8-13.41-34.2-4.62-11.78-9.24-23.56-13.86-35.34-4.27-10.88-8.54-21.76-12.8-32.64-3.41-8.7-6.82-17.39-10.23-26.09-2.06-5.24-4.11-10.48-6.17-15.72-1.05-2.68-2-5.4-3.14-8.04-5.15-11.95-12.81-23.8-23.8-31.13-3.08-2.06-6.43-3.7-9.96-4.83-.36-.11-1.66.45-1.18.6,14.14,4.51,24.09,17.05,30.67,29.79,2.07,4,3.67,8.15,5.31,12.33,1.67,4.26,3.35,8.53,5.02,12.79,3.15,8.03,6.3,16.05,9.45,24.08,4.1,10.46,8.21,20.93,12.31,31.39,4.57,11.65,9.14,23.3,13.71,34.95,4.55,11.6,9.1,23.21,13.65,34.81,4,10.21,8.01,20.41,12.01,30.62,2.97,7.58,5.95,15.16,8.92,22.74,1.45,3.69,2.89,7.37,4.34,11.06l.19.47c.06.15.3.14.42.13,7.88-.43,15.77-.83,23.65-1.28,2.03-.12,4.06-.36,6.09-.55,5.72-.53,11.43-1.06,17.15-1.59,8.55-.79,17.1-1.59,25.65-2.38,10.31-.96,20.62-1.91,30.93-2.87,10.97-1.02,21.94-2.04,32.92-3.05,10.66-.99,21.32-1.98,31.98-2.97,9.25-.86,18.5-1.72,27.74-2.57,6.76-.63,13.52-1.25,20.27-1.88,3.23-.3,6.59-.37,9.79-.91.14-.02.28-.03.42-.04l-.42-.13c2.75,7.56,5.5,15.13,8.25,22.69,4.35,11.96,8.7,23.93,13.05,35.89,1.01,2.77,2.01,5.53,3.02,8.3l.46-.4c-3.69,1.37-7.38,2.73-11.07,4.08-9.48,3.48-18.97,6.93-28.47,10.36-12.87,4.64-25.75,9.23-38.66,13.75-13.93,4.88-27.89,9.69-41.89,14.36-12.66,4.22-25.36,8.35-38.14,12.16-12.32,3.68-24.7,6.7-37.28,9.35-16.66,3.51-33.42,6.55-50.3,8.85-6.44.88-12.93,1.88-19.42,2.28-10.15.63-20.4-.25-30.36-2.24-17.71-3.54-35.79-10.45-48.57-23.64-14.16-14.63-21.42-33.53-28.55-52.22-1.82-4.76-3.65-9.51-5.61-14.21-.16-.4-1.58.06-1.45.39h0Z"/>
    <path d="M849.99,668.38c2.8-2.3,2.51-6.66-.56-8.57l-2.14-1.33c-1.46-.95-3.15-1.39-4.87-1.29-10.91.64-53.03,3.09-69.08,4.16-4.22.28-8.2,2.73-10.83,6.67l-91.54,136.2c-2.36,3.51-2.56,8.23-.52,11.71h0l179.53-147.54Z"/>
    <path class="cls-18" d="M851.39,669.94l-83.86,130c-3.22,4.68-14.54,8.44-20.19,9.02l-77.02,7.87,100.3-142.09c2.23-3.16,5.51-5.14,8.97-5.41l68.55-5.06c3.04-.22,4.99,3.17,3.26,5.68Z"/>
    <path class="cls-11" d="M836.94,749.65c-1.32-2.4,23.66-73.31,19.38-75.9-4.28-2.59-6.47-2.07-10,1.94s-27.04,44.61-27.04,44.61l-7.51-3.94c-2.03-1.05-4.28-1.6-6.56-1.59-12.12.2-51.8.97-51.79,2.63,0,0-2.64,14.79,11.34,13.69l-20.05,3.68s-7.97,10.33,3.49,13.6l13.39,1.71-21.42,1.39s.58,11.79,8.07,13.54c9.37,1.16,18.81,1.65,28.24,1.44l8.31,10.27-18.23,26.49-9.75,10.6,33.94-2.97s20.93-7.58,20.69-17.89c0,0,15.16-6.24,16.58-17.36,0,.07,16.01-13.23,8.93-25.93Z"/>
    <path class="cls-26" d="M828.38,745.96c1.49-.63.82.2.6-.16-.08-.13-.32-.26-.43-.36-.45-.39-.89-.8-1.34-1.2-1.49-1.34-3.01-2.64-4.59-3.88-3.75-2.97-7.74-5.68-12.01-7.85-8.72-4.43-19.07-4.32-28.61-3.79-5.89.32-11.68,1.42-17.57,1.69-.74.03-1.18.91-.18.86,5.24-.24,10.39-1.18,15.61-1.56,5.41-.39,10.85-.38,16.27.02,5.06.37,9.86,1.58,14.32,4.04,4.4,2.42,8.51,5.23,12.37,8.43,1.43,1.18,2.79,2.43,4.18,3.65.58.52,1.13,1.13,1.97.77.92-.39.09-.94-.59-.66h0Z"/>
    <path class="cls-26" d="M761.65,750.9c2.51-.83,5.03-1.28,7.66-1.53s5.13-.7,7.71-.99c4.93-.55,9.99-1.11,14.95-1.01,4.78.1,9.71,1.17,13.47,4.25,3.53,2.89,6.15,7.01,6.86,11.54.11.71,1.56.35,1.45-.39-1.11-7.11-6.79-13.43-13.69-15.36-3.8-1.06-7.61-1.26-11.53-1.07-4.37.21-8.74.58-13.08,1.11-2.4.29-4.79.64-7.19.89-2.34.24-4.64.75-6.88,1.49-.88.29-.61,1.36.29,1.07h0Z"/>
    <path class="cls-26" d="M818.6,720.55c3.23,4.15,7.09,7.81,10.43,11.87,1.69,2.06,3.38,4.2,4.57,6.59,1.45,2.9,1.83,6.42,1.63,9.61-.02.25,1.42.07,1.45-.39.2-3.19-.19-6.71-1.63-9.61-1.17-2.34-2.81-4.45-4.46-6.46-3.4-4.16-7.33-7.89-10.63-12.12-.23-.3-1.61.19-1.36.51h0Z"/>
    <path class="cls-11" d="M608.02,778.29l65.69-53.28,51.65-11.34,14.58,7.79,36.74-2.35c3.59-.3,6.75,2.36,7.05,5.95.15,1.76-.42,3.51-1.58,4.84-.35.4-.79.7-1.29.89-3.68,1.27-52.43,10.37-52.43,10.37l60.79,2.94s6.01,3.9.23,7.97c-5.77,4.07-26.8,7.1-40.33,7.98-8.34,1.48-16.54,3.63-24.52,6.44,0,0,48.95,14.93,48.01,18.74-.94,3.81-.26,5.64-4.48,5.52-4.22-.12-46.27-7.18-52.92-6.28-6.65.89-32.84,28.14-45.79,33.03-8.06,2.77-23.68,6.91-30.79,2.21l-10.95,7.22-17.64-43.61"/>
    <path class="cls-26" d="M628.14,827.23c3.65-2.41,7.3-4.82,10.95-7.22l-1.04.1c3.85,2.47,8.86,2.62,13.29,2.37,5.18-.3,10.35-1.35,15.33-2.81,7.6-2.22,13.89-7.21,20-12.08,7.04-5.62,13.75-11.67,20.89-17.16,2.13-1.63,4.46-3.63,7.04-4.53,1.64-.57,3.84-.21,5.57-.08,14.81,1.1,29.47,3.88,44.18,5.81,2,.26,4.42.79,6.36.07,1.55-.58,1.94-1.95,2.23-3.45.17-.9.81-2.22.26-3.09-.82-1.29-2.78-2.07-4.08-2.71-2.61-1.29-5.31-2.38-8.02-3.44-11.56-4.51-23.41-8.32-35.27-11.97-.25-.08-.5-.15-.75-.23l-.3.93c4.45-1.56,8.95-2.92,13.52-4.08,4.29-1.09,8.65-2.15,13.07-2.49,7.04-.55,14.06-1.42,21.01-2.67,5.44-.98,11.45-1.95,16.37-4.6,2.08-1.12,4.51-3.13,3.9-5.78-.3-1.29-1.61-3.24-2.95-3.7-.36-.12-.84-.07-1.21-.08l-3.05-.15-10.46-.51c-9.41-.45-18.81-.91-28.22-1.36-3.88-.19-7.77-.38-11.65-.56-1.32-.06-2.63-.13-3.95-.19-.66-.03-1.49-.21-2.15-.1-.09.01-.19,0-.28-.01l-.13.96c8.11-1.52,16.22-3.05,24.33-4.61,5.88-1.13,11.76-2.27,17.63-3.46,3.39-.69,6.97-1.18,10.27-2.24,3.64-1.17,4.52-6.08,2.85-9.13-1.44-2.61-4.23-3.74-7.1-3.56-3.81.24-7.62.49-11.44.73-5.81.37-11.61.74-17.42,1.12l-6.05.39c-.45.03-.96,0-1.4.09-.01,0-.21,0-.22.01.05-.21.81.32.08-.12-4.2-2.54-8.72-4.66-13.05-6.97-.77-.41-1.29-.77-2.16-.58-1.11.24-2.22.49-3.33.73-10.56,2.32-21.11,4.64-31.67,6.96-4.45.98-8.9,1.96-13.36,2.93-1.29.28-2.72.35-3.76,1.2-5.72,4.64-11.45,9.29-17.17,13.93-9.23,7.48-18.45,14.97-27.68,22.45-6.16,5-12.32,9.99-18.48,14.99-.32.26-.64.52-.96.77-.76.62.41,1.03.95.6,5.2-4.22,10.4-8.43,15.6-12.65,9.94-8.06,19.88-16.13,29.83-24.19,4.13-3.35,8.25-6.7,12.38-10.04,2.19-1.78,4.47-3.49,6.6-5.35.11-.1.26-.18.36-.29-.43.48-.44.1-.22.13.11.02.3-.07.41-.09,1.38-.3,2.76-.61,4.14-.91,5.43-1.19,10.87-2.39,16.3-3.58,10.03-2.2,20.06-4.4,30.08-6.61.2-.04.39-.09.59-.13l-.69-.06c3.46,1.85,6.92,3.7,10.37,5.54,1.34.72,2.73,1.69,4.16,2.22.6.22,1.31.08,1.95.03,9.08-.58,18.17-1.16,27.25-1.75,2.69-.17,5.38-.4,8.07-.52,4.04-.18,7.18,3.55,6.27,7.52-.32,1.4-1.15,2.89-2.58,3.34-.45.14-.91.23-1.37.34-8.91,2.08-17.94,3.68-26.92,5.41-7.76,1.49-15.55,2.84-23.29,4.41-.14.03-.27.05-.41.08-.55.1-.91.92-.13.96,4.67.23,9.35.45,14.02.68,9.08.44,18.16.88,27.24,1.32,6.25.3,12.5.6,18.75.91.21,0,.43.04.63.03.33-.02-.25-.27.05.06.58.64,1.26,1.08,1.74,1.83.72,1.13.83,2.45.09,3.61-1.33,2.09-4.17,3.06-6.4,3.8-2.8.93-5.68,1.6-8.56,2.2-6.87,1.42-13.86,2.35-20.85,3.01-1.58.15-3.15.28-4.73.39-2.05.15-4.08.63-6.09,1.06-4.45.94-8.86,2.07-13.21,3.39-2.14.65-4.26,1.35-6.37,2.09-.37.13-.98.72-.3.93,10.06,3.07,20.08,6.34,29.97,9.93,5.35,1.94,11.07,3.79,15.96,6.76.56.34,1.18.7,1.6,1.22.46.56-.13,1.88-.29,2.74-.13.68-.21,1.57-.7,2.1-.57.63-1.65.58-2.43.54-.67-.03-1.35-.12-2.02-.2-14.21-1.71-28.3-4.33-42.55-5.72-2.48-.24-5-.51-7.5-.43-1.95.07-3.59.96-5.22,1.98-6.58,4.15-12.4,9.63-18.35,14.6-6.45,5.38-13,11.16-20.42,15.17-3.58,1.93-7.62,2.92-11.58,3.76-5,1.07-10.29,1.8-15.4,1.15-2.16-.27-4.3-.84-6.15-2.02-.31-.2-.75-.09-1.04.1-3.65,2.41-7.3,4.82-10.95,7.22-.82.54.39.97.95.6h0Z"/>
    <path class="cls-26" d="M740.12,721.83c-3.89.49-7.78.98-11.67,1.47-2.66.34-5.27.93-7.9,1.44-4.44.87-8.89,1.7-13.35,2.51-5.02.9-10.02,1.96-15.13,2.19-.54.02-1.53.87-.56.82,4.52-.2,8.9-1.04,13.35-1.82s8.67-1.58,13-2.41c3.2-.61,6.39-1.42,9.62-1.82l6.83-.86c1.87-.24,3.74-.47,5.61-.71.7-.09,1.2-.93.2-.8h0Z"/>
    <path class="cls-26" d="M379.16,796.24c-4.08.89-6.91,4.76-8.83,8.19-3.32,5.94-5.04,12.75-5.9,19.46-.61,4.75-.76,9.55-.53,14.34.02.4,1.47.12,1.45-.39-.37-7.67.23-15.44,2.22-22.88,1.39-5.2,3.42-10.61,6.97-14.74,1.26-1.47,2.84-2.91,4.79-3.34.87-.19.7-.83-.17-.64h0Z"/>
    <path class="cls-26" d="M1048.43,822.81c7.08.84,14.02,3.05,20.49,6.01,6.75,3.09,13.25,7.14,18.46,12.47,2.69,2.75,5,5.87,6.54,9.4.18.4,1.59-.06,1.45-.39-2.83-6.47-8.13-11.58-13.83-15.59-6.28-4.42-13.37-7.77-20.69-10.05-3.75-1.17-7.6-2.05-11.5-2.51-.36-.04-1.67.57-.92.66h0Z"/>
    <path class="cls-11" d="M685.85,816.08c6.33-3.73,110.74-23.51,110.74-23.51-9.05-5.87-18.58-11-28.5-15.33-15.28-6.55-15.94-17.01-10.27-23.68,5.67-6.66,28.06,4.69,33.37,12.5,5.31,7.81,27.39,6,41.89,14.64,14.5,8.65,21.28,29.93,21.28,29.93,1.61,1.25,4.04,2.99,6.64,4.81l1.08.43c-1.03,2.74-2.12,5.47-3.34,8.13-6.23,13.68-1.17,26.6-12.01,37.72l-32.45-8.83s-22.22,5.53-39.6,1.27c-30.83-6.43-39.17-11.71-38.64-16.2l-19.19-1.72c-3.04-.27-6.01-1.08-8.77-2.39l-8.51-4.03s-19.03,5.42-21.38-.21c-2.35-5.63,1.32-9.82,7.65-13.55Z"/>
    <path class="cls-3" d="M770.87,797.76c8.41-2.13,17-3.71,25.59-4.94.45-.06,1.8-.69.99-1.21-5.44-3.52-11.04-6.78-16.79-9.75-2.88-1.49-5.8-2.91-8.75-4.25-2.66-1.21-5.37-2.3-7.87-3.85-3.47-2.16-6.73-5.21-7.93-9.23-.93-3.13-.41-6.45,1.25-9.24.67-1.14,1.48-2.38,2.72-2.95s2.61-.57,3.9-.48c3.83.25,7.6,1.66,11.05,3.24,3.76,1.73,7.42,3.85,10.66,6.44,1.28,1.03,2.52,2.13,3.59,3.39s1.86,2.53,3.23,3.46c3.89,2.64,9.32,2.55,13.82,2.95,6.7.59,13.22,1.81,19.1,5.26.67.39,2.65-.56,1.71-1.11-5.34-3.13-11.28-4.56-17.38-5.23-4.6-.5-9.91-.22-14.19-2.22-1.78-.83-2.76-2.1-3.95-3.59-1.08-1.35-2.37-2.53-3.71-3.62-3.31-2.69-7.02-4.91-10.89-6.71-3.66-1.7-7.59-3.14-11.63-3.54-2.92-.29-6.37.05-8.45,2.38-2.19,2.45-3.55,5.73-3.48,9.03.08,3.81,2.06,7.21,4.78,9.78,4.85,4.59,11.52,6.64,17.4,9.54,6.91,3.41,13.62,7.23,20.09,11.42.33-.4.66-.81.99-1.21-8.78,1.26-17.57,2.87-26.18,5.05-1.32.33-1,1.54.32,1.21h0Z"/>
    <path class="cls-3" d="M699.76,830.48c6.66-1.52,13.56-2.12,20.33-2.92,8.12-.95,16.26-1.81,24.35-3.01,3.33-.49,6.69-1,9.95-1.86,1.32-.35.98-1.64-.35-1.29-6.58,1.75-13.52,2.37-20.27,3.19-8.12.98-16.26,1.83-24.37,2.93-3.34.45-6.7.92-9.99,1.67-1.34.31-.99,1.59.35,1.29h0Z"/>
    <path class="cls-3" d="M784.63,835.33c-5.55.24-11.1.48-16.65.73-8.85.39-17.69.77-26.54,1.16-2.03.09-4.06.18-6.09.27-.36.02-1.53.22-1.56.72-.08,1.44,1.05,2.97,1.93,3.98,3.56,4.1,9.34,6.16,14.37,7.67,6.13,1.84,12.47,2.9,18.81,3.68.5.06,1.07-.04,1.52-.28.14-.07.78-.49.27-.56-9.17-1.13-18.99-2.64-27.25-7.02-2.78-1.47-6.02-3.57-7.18-6.67-.16-.42-.32-.92-.29-1.38l-1.56.72c5.55-.24,11.1-.48,16.65-.73,8.85-.39,17.69-.77,26.54-1.16,2.03-.09,4.06-.18,6.09-.27.58-.03,2.37-.93.94-.87h0Z"/>
    <path class="cls-1" d="M1033.18,718.83l-3.04-32.67,33.77-183.41s79.23,18.52,93.89,73.89c4.77,23.84,8.31,95.31,12.12,142.19-43.85,9.88-96.33,15.68-136.73,0Z"/>
    <path class="cls-25" d="M1072.42,534.94c-12.93,2.05-22.89,11.37-29,22.54-3.13,5.73-5.08,11.84-6.53,18.18-1.38,6.02-2.58,12.09-3.58,18.19-1.94,11.84-3.11,23.78-3.73,35.76-.67,12.85-.74,25.73-.67,38.59.09,15.36.37,30.72.51,46.08.02,2.18.04,4.37.05,6.55,0,.59.44.8.95.9,4.56.86,9.12,1.73,13.68,2.59,1.38.26,2.95-1.67,1.02-2.04-4.56-.86-9.12-1.73-13.68-2.59l.95.9c-.11-15.45-.37-30.9-.51-46.36-.12-12.91-.14-25.82.35-38.72.44-11.73,1.34-23.45,2.97-35.08.82-5.9,1.83-11.77,3.01-17.6,1.24-6.11,2.46-12.31,4.74-18.13,4.45-11.35,12.74-22.74,24.79-26.64,1.44-.47,2.91-.83,4.4-1.07.6-.1,1.54-.41,1.6-1.14.06-.68-.76-.99-1.33-.9h0Z"/>
  </g>
</svg>