<?xml version="1.0" encoding="UTF-8"?>
<svg xmlns="http://www.w3.org/2000/svg" xmlns:xlink="http://www.w3.org/1999/xlink" viewBox="0 0 1334 1000">
  <defs>
    <style>
      .cls-1 {
        stroke-width: .14px;
      }

      .cls-1, .cls-2, .cls-3 {
        stroke: #000;
      }

      .cls-1, .cls-2, .cls-3, .cls-4 {
        stroke-miterlimit: 10;
      }

      .cls-2 {
        stroke-width: .14px;
      }

      .cls-3 {
        stroke-width: .14px;
      }

      .cls-5 {
        fill: #3c5c2c;
      }

      .cls-6 {
        fill: #101931;
      }

      .cls-7 {
        fill: #476c34;
      }

      .cls-8 {
        fill: #010101;
      }

      .cls-9 {
        fill: #20120c;
      }

      .cls-10 {
        fill: #5f6161;
      }

      .cls-11 {
        fill: #222323;
      }

      .cls-12 {
        fill: url(#linear-gradient-4);
      }

      .cls-13 {
        fill: url(#linear-gradient-3);
      }

      .cls-14 {
        fill: url(#linear-gradient-2);
      }

      .cls-15 {
        fill: #d8b029;
      }

      .cls-16 {
        fill: #231f20;
      }

      .cls-17 {
        fill: #919191;
      }

      .cls-18 {
        fill: #3d4e83;
      }

      .cls-19 {
        fill: #5d491c;
      }

      .cls-20 {
        fill: #a66e53;
      }

      .cls-21 {
        fill: url(#linear-gradient);
        opacity: .5;
      }

      .cls-22 {
        fill: #898989;
      }

      .cls-23 {
        fill: #020202;
      }

      .cls-24 {
        fill: #3d3d3d;
      }

      .cls-25 {
        fill: #d8b12a;
      }

      .cls-26, .cls-4 {
        fill: #fff;
      }

      .cls-27 {
        fill: #a3a3a3;
      }

      .cls-28 {
        fill: #a66f54;
      }

      .cls-29 {
        fill: #d7b029;
      }

      .cls-30 {
        fill: #bcbcbc;
      }

      .cls-31 {
        fill: #251911;
      }

      .cls-32 {
        fill: #d2d2d1;
      }

      .cls-33 {
        fill: #4e2915;
      }

      .cls-34 {
        fill: #4f2f26;
      }

      .cls-35 {
        fill: #f2ebd1;
      }

      .cls-36 {
        fill: #bb997a;
      }

      .cls-37 {
        fill: #343535;
      }

      .cls-4 {
        stroke: #231f20;
        stroke-width: .47px;
      }

      .cls-38 {
        fill: #a38166;
      }

      .cls-39 {
        fill: #653d2a;
      }

      .cls-40 {
        fill: #3d4f84;
      }

      .cls-41 {
        fill: #87654d;
      }

      .cls-42 {
        fill: #4f2e25;
      }

      .cls-43 {
        fill: #181b4a;
      }
    </style>
    <linearGradient id="linear-gradient" x1="-3409.19" y1="5606.94" x2="-2223.75" y2="5606.94" gradientTransform="translate(-5008.09 3287.05) rotate(90) scale(1 -1)" gradientUnits="userSpaceOnUse">
      <stop offset="0" stop-color="#f0ebe0"/>
      <stop offset=".18" stop-color="#eee8dd" stop-opacity=".99"/>
      <stop offset=".33" stop-color="#e8e1d4" stop-opacity=".97"/>
      <stop offset=".46" stop-color="#ded4c5" stop-opacity=".93"/>
      <stop offset=".59" stop-color="#d0c2b0" stop-opacity=".88"/>
      <stop offset=".72" stop-color="#bdab95" stop-opacity=".82"/>
      <stop offset=".84" stop-color="#a78e73" stop-opacity=".73"/>
      <stop offset=".96" stop-color="#8d6d4d" stop-opacity=".64"/>
      <stop offset="1" stop-color="#83603d" stop-opacity=".6"/>
    </linearGradient>
    <linearGradient id="linear-gradient-2" x1="973.49" y1="838.7" x2="1016.24" y2="-176.41" gradientUnits="userSpaceOnUse">
      <stop offset=".29" stop-color="#bbe5f5"/>
      <stop offset=".81" stop-color="#76c7db"/>
    </linearGradient>
    <linearGradient id="linear-gradient-3" x1="1037.25" y1="960.82" x2="1044.45" y2="789.84" gradientUnits="userSpaceOnUse">
      <stop offset=".01" stop-color="#769a3e"/>
      <stop offset=".98" stop-color="#496b33"/>
    </linearGradient>
    <linearGradient id="linear-gradient-4" x1="12109.48" y1="822.71" x2="12122.65" y2="707.82" gradientTransform="translate(-11739.89 -128.9) rotate(-2.25) scale(1.02 1) skewX(-.52)" gradientUnits="userSpaceOnUse">
      <stop offset=".16" stop-color="#a66f54"/>
      <stop offset=".53" stop-color="#a66f54"/>
      <stop offset=".62" stop-color="#7d533f"/>
      <stop offset=".75" stop-color="#483024"/>
      <stop offset=".86" stop-color="#211611"/>
      <stop offset=".94" stop-color="#0c0b0a"/>
      <stop offset=".99" stop-color="#010101"/>
    </linearGradient>
  </defs>
  <g id="Layer_1" data-name="Layer 1">
    <polyline class="cls-35" points="1386.05 1042.71 1386.05 -139.43 -188.35 -139.43 -188.35 1042.71"/>
    <polyline class="cls-21" points="1386.05 1059.39 -188.35 1059.39 -188.35 -126.05 1386.05 -126.05"/>
    <rect class="cls-14" x="803.38" y="-39.45" width="378.84" height="839.11"/>
    <path class="cls-7" d="M1128.92,826.58c4.65-5.03,9.57-10.71,9.71-17.56.14-6.84-7.74-13.68-13.45-9.9,1.66-4.11.1-9.27-3.54-11.79-3.65-2.52-9.02-2.14-12.28.87-1.85-9.93-17.02-13.84-23.44-6.05.6-3.88-4.87-6.48-8.28-4.54-3.41,1.94-4.58,6.37-4.3,10.29-2.23-4.58-7.46-7.5-12.53-7-5.07.5-9.63,4.39-10.92,9.32-.49-4.33-1.2-9.11-4.54-11.91-3.34-2.8-9.99-1.21-9.91,3.14,1-6.16-2.43-12.78-8.04-15.51-5.61-2.73-12.94-1.35-17.17,3.24-.82-6.04-3.08-12.33-8.09-15.79-5.01-3.47-13.21-2.56-15.76,2.97-2.88-4.72-7.51-9.04-13.04-9.03-5.53,0-10.67,6.56-7.67,11.21-4.09-6.82-16.83-4.13-17.82,3.76-2.94-4.56-9.07-6.78-14.25-5.16-5.18,1.62-8.95,6.94-8.77,12.36-5.15-3.17-12.3-2.66-16.95,1.21-4.65,3.87-6.45,10.81-4.26,16.45-15.48,1.24-26.78,19.83-20.76,34.14"/>
    <path class="cls-5" d="M888.78,781.7c2.22-6.18.47-13.76-4.17-17.96-4.63-4.2-11.8-4.72-16.98-1.22.22-5.93-3.53-11.72-8.71-13.46s-11.33.73-14.31,5.73c-.94-8.62-13.69-11.48-17.83-4,3.03-5.1-2.07-12.24-7.62-12.21-5.54.03-10.2,4.78-13.12,9.96-1.17-2.79-3.56-4.48-6.29-5.12v78.73l109.61-3.26c6.12-15.69-5.09-35.94-20.59-37.2Z"/>
    <path class="cls-13" d="M1260.48,946.32h-439.95v-125.49l136.36-1.72c17.51-.94,152.1-.56,169.61.35l133.98,1.37v125.49Z"/>
    <polyline class="cls-22" points="-185.79 1085.13 1379.35 1085.13 1379.35 946.53 -185.79 946.53"/>
    <rect class="cls-36" x="1260.48" y="-39.45" width="30.73" height="986.07"/>
    <rect class="cls-36" x="795.5" y="-39.45" width="25.02" height="986.07"/>
    <polygon class="cls-38" points="999.07 -71.95 1266.83 -37.99 1266.83 946.94 999.07 983.68 999.07 -71.95"/>
    <rect class="cls-41" x="970.23" y="-71.98" width="28.84" height="1054.77"/>
    <g>
      <path class="cls-10" d="M1042.89,462.39h46.25c3.06,0,5.54,3.45,5.54,7.71h0c0,4.26-2.48,7.71-5.54,7.71h-46.25c-3.06,0-5.54-3.45-5.54-7.71h0c0-4.26,2.48-7.71,5.54-7.71Z"/>
      <path class="cls-10" d="M1042.78,479.3c-.34,0-.68-.03-1.02-.06-2.02-.22-4.11-1.2-5.31-3.39-.67-1.22-1-2.73-1.16-4.23-.18-1.72-.14-3.51.34-5.12.86-2.92,3.2-4.25,5.34-4.87.51-.15,6.86-.94,6.86-.5v-27.67c0-8.02-4.86-14.52-10.85-14.52h-.03c-5.99,0-10.85,6.5-10.85,14.52v100.05c0,8.02,4.86,14.52,10.85,14.52h.03c5.99,0,10.85-6.5,10.85-14.52v-47.42c0-2.34,0-4.68-.02-7.01-1.68-.02-3.37.26-5.04.22ZM1039.49,520.66v5.67c0,1.23-.75,2.23-1.67,2.23-.91-.02-1.64-1.01-1.64-2.23v-5.67c-1.33-.82-2.16-2.61-2.13-4.56.04-2.71,1.72-4.86,3.75-4.8s3.63,2.3,3.59,5.01c.01,1.81-.72,3.48-1.9,4.35Z"/>
    </g>
    <rect class="cls-10" x="979.7" y="428.45" width="11.21" height="105.98"/>
    <path class="cls-37" d="M1039.49,520.66v5.67c0,1.23-.75,2.23-1.67,2.23-.91-.02-1.64-1.01-1.64-2.23v-5.67c-1.33-.82-2.16-2.61-2.13-4.56.04-2.71,1.72-4.86,3.75-4.8s3.63,2.3,3.59,5.01c.01,1.81-.72,3.48-1.9,4.35Z"/>
  </g>
  <g id="Layer_3" data-name="Layer 3">
    <path class="cls-33" d="M137.28,478.24s27.52-104.2,67.59-198.75c0,0,.67-5.36-6.22-4.38,0,0-49.47,124.71-70.21,203.13"/>
    <path class="cls-28" d="M612.19,145.6s14.74,53.98,11.84,65.7c-.7,2.9-23.45,22.4-23.45,22.4l69.42,19.85,49.91-29.37s-36.68-19.73-37.26-23.22c-2.9-15.44-2.44-31.23,1.16-46.43"/>
    <path class="cls-34" d="M609.75,187.16c2.21,3.25,4.29,6.62,6.73,9.75v.12c.23-.12.46-.12.58,0h0c1.74,2.09,4.88,3.25,6.38,5.46,1.28,1.97.58,4.64.7,6.96,1.74.23,4.06.12,6.27.12,14.63-.58,14.28-2.9,34.01-14.51,6.15-3.6,4.76-8.47,5.92-9.4-19.97,0-39.7,1.16-60.59,1.51Z"/>
    <path class="cls-28" d="M683.46,168.59l2.44-25.89.7-28.9-11.84-21.82-20.78-9.63-23.33,1.16s-18.57,4.99-24.49,6.73c-5.92,1.74-10.91,1.86-14.74,9.98-3.83,8.13-.81,28.56-.81,28.56,0,1.04.23,1.97.46,2.9,1.28,5.34,1.74,10.1,2.79,14.05.46,1.74.46,3.71,0,5.46-2.09,7.08-2.09,10.1-1.39,14.39.7,5.34,2.09,10.45,4.29,15.32,2.44,4.88,5.34,10.1,6.04,11.03,0,0,6.62,10.8,8.01,11.84,1.39,1.04,2.9,1.74,4.53,2.09.93.12,13.81.7,13.81.7l5.92-.23c1.97-.12,4.06-.58,5.8-1.39,4.99-2.32,19.15-9.4,22.98-12.19,5.22-3.83,11.14-19.39,11.14-19.39"/>
    <path class="cls-28" d="M682.3,169.17c6.96,6.73,11.03-6.73,11.03-6.73,6.27-8.13,5.92-16.48,5.46-22.17-.46-5.69-6.27-6.27-6.27-6.27-5.34.81-8.01,4.64-11.84,22.75"/>
    <path class="cls-8" d="M597.1,93.02c3.71-6.38,10.22-10.91,14.39-17.06,2.09-.23,12.19-.81,14.28-1.04,21.71-1.63,51.19,9.87,54.33,17.64,1.86,4.88,1.63,31.69.81,34.13-1.63,5.11-2.67,10.33-3.13,15.55-1.28-9.98-8.82-21.01-9.87-24.38s3.02-19.97,1.86-20.66c-13.35-5.92-27.86-8.71-42.37-8.24-6.5.35-12.88-.35-18.69.58,0,.12-11.72,3.6-11.61,3.48Z"/>
    <path class="cls-8" d="M639.23,137.24c1.16-.7,2.55-.7,3.71,0,.46.35.93.93,1.04,1.51.35,1.16.12,2.32-.7,3.13-.93,1.04-2.44,1.39-3.71.81-1.51-.7-2.32-2.44-1.97-4.06.35-.23.58-.81,1.63-1.39"/>
    <path class="cls-8" d="M601.39,139.1c-1.28-.46-2.79-.12-3.71.81-.46.46-.81,1.04-.93,1.63-.23,1.16.12,2.32.93,3.13,1.04.93,2.55,1.16,3.71.46,1.51-.81,2.09-2.55,1.51-4.18-.12-.81-.7-1.51-1.51-1.86"/>
    <path class="cls-8" d="M613,143.86s-5.57-5.11-9.52-5.34c-5.69-.23-7.08,1.04-9.05,3.83,0,0,3.6-2.9,7.66-2.55,3.83.23,10.91,4.06,10.91,4.06Z"/>
    <path class="cls-8" d="M630.88,141.42s7.89-5.22,11.72-5.46c5.69-.35,12.65,2.9,14.51,5.57,0,0-9.17-4.76-13.12-4.41s-13.12,4.29-13.12,4.29Z"/>
    <path class="cls-8" d="M626.58,125.4c.46,1.28.93,2.55,1.39,3.83.35.93,1.16,3.25,1.51,4.18,2.79-1.97,5.11-4.29,7.08-5.34,3.71-2.21,7.43-4.76,11.72-5.57,1.97-.46,3.95-.46,5.92-.12.58.12,2.55.93,3.13.35.23-.23-.81-1.63-.93-1.74-2.21-2.79-5.46-3.02-9.05-2.55-7.31.93-14.28,3.37-20.78,6.96"/>
    <path class="cls-23" d="M617.06,166.15c1.97.81,4.18.46,5.92-.7.35-.23,1.63-.12,1.16.23-2.44,1.51-5.34,1.74-8.01.7-.23-.12-.23-.23.12-.35.23,0,.58,0,.81.12"/>
    <path class="cls-23" d="M624.84,165.22c1.16-.58,2.32-.93,3.6-1.16.23,0,.35,0,.58.12.12.12.12.23,0,.35-.58.35-1.28.58-1.97.58-.23,0-.46-.12-.58-.23s.12-.23.23-.35c.58,0,1.16-.12,1.63-.46l.58.46c-1.16.12-2.21.46-3.25,1.04-.23.12-.46.12-.7,0-.23,0-.35-.23-.12-.35"/>
    <path class="cls-23" d="M629.83,165.1c1.51,0,2.9-.81,3.83-1.97,1.04-1.74-.12-4.41-1.97-5.46-.23-.12-.12-.23.12-.35.23,0,.58,0,.81.12,1.63.93,2.67,2.79,2.67,4.64-.35,1.63-1.63,2.79-3.25,3.13-.58.12-1.04.23-1.63.35-.23,0-.58,0-.7-.23s-.12-.23.12-.23"/>
    <path class="cls-23" d="M614.39,165.45c0-.12,0-.23-.12-.23h-.12c-.46,0-.81-.12-1.16-.35l-.35.46c.81.12,1.63.35,2.32.7.12.12.35,0,.46-.12.12-.12.23-.23,0-.35"/>
    <path class="cls-23" d="M615.44,165.68c-.81-.46-1.74-.81-2.67-.81-.12,0-.35.12-.35.23-.12.12-.12.23,0,.35"/>
    <path class="cls-23" d="M611.37,165.8c-1.16,0-2.09-.7-2.67-1.74-.7-1.63-.35-3.6.93-4.88.12,0,.12-.12,0-.23l-.12-.12c-.23,0-.35,0-.46.23-1.04,1.04-1.63,2.67-1.39,4.18.12,1.28,1.04,2.44,2.32,2.9.35.12.7.23,1.04.23.12,0,.35-.12.46-.23s0-.35-.12-.35"/>
    <path class="cls-12" d="M700.29,125.17c.12-4.53.23-10.45.93-17.41,1.86-18.34-30.18-31.81-47.83-33.43-9.75-.93-41.79,4.99-49.91,9.29-7.78,4.18-13.35.12-13.7,14.86-1.63,6.04-.35,20.2.35,24.26-.23-3.6-1.16-7.55,0-10.68,0,0-.81-9.75,3.48-13.7,3.13-2.9,3.48-2.44,7.66-3.37l.7-.12c1.39-.23,2.79-.58,4.18-.81,4.06-.46,15.21-1.86,20.55-2.55,12.3-1.04,20.08-.7,25.31,0,4.41,1.63,9.63,9.52,14.51,15.79-.58,4.76-1.28,10.22-.7,11.96.93,2.67,6.38,9.98,9.17,17.76l.93,6.27c0,1.28.23,4.76.35,7.89.58.35,2.21,5.22,3.25,5.11,2.79-.23,2.67-6.85,3.37-9.4,1.16-4.06,2.21-7.55,5.57-10.45,1.51-1.04,3.25-1.51,4.99-1.28,1.97-.12,3.48,1.39,4.41,2.67l2.44-12.65Z"/>
    <path d="M643.14,65.83c-13.23-.7-30.2,1.61-42.04,7.88-8.24,4.41-8.3,6.43-10.27,14.09,0,.35-.7,5.11-.58,5.34.35,1.04,1.39-1.04,2.55-1.04l62.57-6.27c10.22-.23,21.24-.35,29.6,5.57,3.71,2.67,11.26,14.39,15.55,15.9,1.28.46.81-6.62.46-9.98-1.98-37.13-36.49-30.32-57.85-31.48Z"/>
    <path class="cls-8" d="M590.6,120.06l2.21.23c6.15.93,12.07,3.13,17.3,6.38-.46,1.28-1.39,2.09-1.86,3.37-.35.93-1.51,2.32-1.86,3.25-2.21-1.86-3.37-2.9-4.88-3.95-3.02-2.09-6.15-4.18-9.87-4.99-.23-.12-1.28-.35-1.51-.46-1.51-2.09-.23-3.83.46-3.83Z"/>
    <path class="cls-8" d="M583.98,137.13l.23.93c1.74,6.15,3.71,12.77,5.57,14.51,1.16,1.16,3.95,1.39,7.2,1.63,1.16.12,2.32.12,3.13.12s9.4.12,10.8-1.28,3.6-11.26,4.18-14.39l7.43-.46c1.04,2.44,3.13,12.77,6.73,14.74s22.17.7,23.8-1.86c2.21-3.83,3.95-7.78,5.34-11.96l1.39-4.41,25.54,5.22,1.86-2.32-27.63-5.11h0c-13.58-4.29-28.9-1.39-37.03,3.95l-7.2.58v-.12c-8.59-5.92-21.36-6.38-31.92-1.16l.35,1.16M609.98,152.1c-1.51,1.28-17.3,1.51-19.39-.46-1.74-1.63-4.29-10.56-5.22-13.81v-.12c9.52-4.06,20.89-3.71,28.32,1.28-1.04,5.34-2.79,12.3-3.71,13.12h0ZM650.84,150.36c-1.04,1.63-17.18,3.48-20.89,1.39-2.67-1.39-4.29-8.94-5.57-13.23,7.89-5.11,24.38-7.66,33.32-3.83-1.51,5.34-3.83,11.72-6.85,15.67h0Z"/>
    <path class="cls-34" d="M621.82,130.98c-1.63-2.9-.81-6.62,1.86-8.59q.12-.12,0-.23c-.23,0-.46,0-.58.12-2.79,2.09-3.6,5.8-2.09,8.82.12.35.93,0,.81-.12h0Z"/>
    <path class="cls-31" d="M620.66,175.2c5.34-.46,17.18,1.74,19.73,3.48,0,0-4.99,6.04-17.3,6.96s-15.32-4.29-15.32-4.29c0,0,6.04-5.57,12.88-6.15Z"/>
    <path class="cls-26" d="M635.17,176.94s-6.38,0-11.38.46-11.26,1.39-11.26,1.39c0,0-1.04-3.48,8.01-4.18s14.63,2.32,14.63,2.32Z"/>
    <path class="cls-39" d="M622.98,185.77c5.69-1.28,10.56-6.85,17.3-6.96,0,0-2.79,10.8-17.18,11.96-14.39,1.16-15.44-9.4-15.44-9.4,6.73-.93,9.52,4.06,15.32,4.41Z"/>
    <path class="cls-39" d="M614.16,173c3.02-.46,4.99.46,6.38.35s3.13-1.39,6.15-1.39,15.44,5.69,14.16,6.62c-1.28.93-11.03-3.13-20.08-2.44-9.05.7-11.96,5.8-13.47,5.11s3.95-7.78,6.85-8.24Z"/>
    <rect class="cls-27" x="629.34" y="892.3" width="34.59" height="20.81" transform="translate(-62.33 48.08) rotate(-4.06)"/>
    <g>
      <path d="M679.8,928.86s5.25,6.14,3.8,9.39c-1.45,3.24-16.84,5.07-20.87,5.76-4.02.69-56.07,10.14-61.28,10.58-5.21.44-33.38.93-37.81-4.76,0,0-7.51-9.59,1.64-13.67,9.15-4.07,16.23-3.29,24.73-8.17,8.49-4.88,17.61-12.28,25.39-21.93,0,0,8.01-7.96,12.18-7.1,4.17.86,9.33,8.22,12.79,9.84,3.46,1.61,19.53,2.88,23.07-5.06s4.9-5.1,8.1-4.2c3.2.91,9.36,13.96,8.58,20.27-.77,6.31-.32,9.04-.32,9.04Z"/>
      <path class="cls-35" d="M623.55,908.95l.05-.06c.36-.44.02-1.21-.76-1.71l-5.62-3.57c-.78-.49-1.71-.54-2.07-.09l-.05.06c-.36.44-.02,1.21.76,1.71l5.62,3.57c.78.49,1.71.54,2.07.09Z"/>
      <path class="cls-35" d="M617.65,912.39l.14-.16c.26-.31-.1-.94-.8-1.39l-4.17-2.68c-.7-.45-1.49-.56-1.75-.25l-.14.16c-.26.31.1.94.8,1.39l4.17,2.68c.7.45,1.49.56,1.75.25Z"/>
      <path class="cls-35" d="M612.81,915.61l.23-.28c.23-.28-.09-.84-.72-1.25l-2.98-1.91c-.63-.4-1.34-.51-1.57-.22l-.23.28c-.23.28.09.84.72,1.25l2.98,1.91c.63.4,1.34.51,1.57.22Z"/>
      <path class="cls-35" d="M608.98,918.96l.27-.33c.27-.33-.02-.93-.66-1.33l-2.99-1.9c-.63-.4-1.37-.46-1.64-.13l-.27.33c-.27.33.02.93.66,1.33l2.99,1.9c.63.4,1.37.46,1.64.13Z"/>
    </g>
    <polygon class="cls-27" points="715.56 914.77 680.88 918.74 681.4 893.25 715.99 893.96 715.56 914.77"/>
    <path class="cls-24" d="M752.84,487.13l2.85,23.42c2.39,19.65-2.83,42.38-6.18,61.88l-15.69,123.42s-2.08,75.85.16,118.83c1.96,37.26-6.54,92.76-6.54,92.76l-11.48,2.08c-10.82,1.96-21.93,1.74-32.66-.67l-18.47-4.14-24.37-203.26,3.16-139.44-19.91-70.85,129.14-4.03Z"/>
    <path class="cls-24" d="M578.67,493.79l13.76,192.35c-.67,10.35,2.81,50.3,5.86,60.22l18.62,128.37,2.22,23.04,10.98,2.36c7.8,1.68,15.84,1.87,23.71.56l15.51-2.57-8.6-408.83-82.06,4.5Z"/>
    <path class="cls-11" d="M661.84,895.32c-.54-5.19-1.08-10.39-1.62-15.58-1.32-12.71-2.64-25.42-3.96-38.13-1.65-15.93-3.31-31.85-4.96-47.78-1.53-14.77-3.07-29.55-4.6-44.32-.99-9.49-1.97-18.98-2.96-28.47-.14-1.39-.27-2.78-.43-4.16-.92-8-1.68-15.96-1.78-24.02-.04-2.72.08-5.43.03-8.14-.19-9.19-.38-18.38-.57-27.58-.32-15.75-.65-31.51-.97-47.26-.27-12.93-.53-25.87-.8-38.8-.05-2.47.03-4.98-.15-7.45-.09-1.22-.44-2.46-.75-3.63-.94-3.66-2.31-7.29-4.4-10.45s-5.15-5.85-9.05-6.68c-.38-.08-1.68.52-.92.68,7.99,1.7,11.64,11.03,13.23,18.13.42,1.85.46,3.47.5,5.36.23,11.08.45,22.16.68,33.25.33,15.86.65,31.72.98,47.58.23,11.41.47,22.83.7,34.24.1,4.7-.04,9.4.1,14.09.21,7.51,1.08,14.91,1.86,22.37.79,7.63,1.59,15.27,2.38,22.9,1.45,13.92,2.89,27.85,4.34,41.77,1.66,15.98,3.32,31.95,4.98,47.93,1.44,13.85,2.88,27.7,4.31,41.55.76,7.33,1.52,14.66,2.28,21.99.03.33.07.66.1.99.04.37,1.5.07,1.45-.39h0Z"/>
    <path class="cls-18" d="M577.89,229.83c10.54-11.9,24.88-12.85,35.54-15.73l8.45-3.67s-14.41,18.1,16.66,22.03c31.07,3.93,51.46-29.02,51.46-29.02,0,0,10.53,8.11,31.16,17.08,7.92,3.45,23.98,15.91,27.74,23.68,9.39,19.42,10.89,28.37,8.83,63.86l-2.28,27.14-12.17-7.55c3.45,24.35,6.37,62.97,6.09,101.5-.05,5.17,4.96,34.2,4.87,39.37-.05,3.07,2.26,24.64.64,27.17-1.53,2.39-11.14,9.21-14.08,10.27-31.41,11.4-117.97,9.82-117.97,9.82-13.23-1.43-24.21-2.19-36.02-7.7-8.36-3.9-7.17-6.35-11.74-10.04,1.93-11.05-1.2-27.24-1.1-38.42.18-17.98,1.41-36.88,1.19-54.88-.01-1.03-2.14-34.09-2.52-34.84"/>
    <g>
      <path class="cls-40" d="M687.32,201.95s-14.65,27.36-42.6,27.12c-27.95-.24-23.01-15.06-23.01-15.06l3.26-6.29-9.31,5.6s-2.45,6.43,1.27,12.96c3.73,6.53,18.04,11.53,35.78,8.93,10.41-1.53,23.76-8.75,31.63-17.05,9.43-9.93,10.09-11.18,10.09-11.18l-7.1-5.02Z"/>
      <path class="cls-6" d="M686.64,201.91c-1.7,3.17-3.95,6.11-6.28,8.84-5.16,6.04-11.48,11.23-18.79,14.44-4.52,1.98-9.37,3.14-14.3,3.39s-10.57-.13-15.5-1.66c-4.61-1.43-9.16-4.49-9.64-9.68-.09-1.04-.06-2.21.28-3.21.05-.16-.07.14.1-.19.36-.72.74-1.43,1.11-2.15.67-1.3,1.35-2.6,2.02-3.9.35-.67-.88-.46-1.14-.3-2.11,1.27-4.21,2.53-6.32,3.8-.93.56-2.01,1.05-2.87,1.73-.55.43-.64,1.14-.78,1.81-.95,4.24-.29,9.17,2.34,12.71,2.05,2.76,5.28,4.54,8.41,5.79,4.44,1.78,9.23,2.65,13.99,2.95,5.5.35,11.2.05,16.57-1.21,9.9-2.33,19.54-7.76,26.98-14.65,3.66-3.39,7.03-7.21,10.31-10.96.65-.74,1.49-1.53,1.97-2.4.09-.17.04-.31-.11-.42-2.37-1.67-4.73-3.35-7.1-5.02-.44-.31-1.75.32-1.14.76,2.37,1.67,4.73,3.35,7.1,5.02l-.11-.42c-.31.57-.8,1.04-1.23,1.54-2.3,2.68-4.73,5.26-7.15,7.83-7.07,7.5-15.72,13.36-25.52,16.69-9.51,3.23-20.69,3.42-30.33.6-3.54-1.03-7.19-2.57-9.9-5.13-3.15-2.97-4.34-7.59-3.93-11.8.08-.84.22-1.67.43-2.49.05-.2.21-.5.21-.71,0-.41.16.05-.18.11.25-.05.59-.35.81-.48l1.79-1.08c2.24-1.34,4.47-2.69,6.71-4.03l-1.14-.3c-.64,1.23-1.27,2.46-1.91,3.69-.46.89-1.05,1.79-1.4,2.73-.29.78-.33,1.71-.33,2.53,0,4.88,3.53,8.39,7.8,10.23,4.34,1.87,9.19,2.44,13.87,2.62,5.31.2,10.57-.36,15.63-2,8.27-2.67,15.55-7.78,21.48-14.06,3.23-3.42,6.34-7.26,8.58-11.43.35-.65-1.11-.56-1.36-.08Z"/>
    </g>
    <path class="cls-4" d="M680.27,942.76s-23.62.98-33.95,3.53c-10.33,2.55-37.52,6.27-51.61,5.72-14.1-.55-33.5-6.03-33.5-6.03,0,0-1.41,1.79,4.54,5.2,5.96,3.42,24.89,6.3,41.5,5.54,16.61-.76,40.92-1.58,46.02-1.6,5.1-.02,26.35-.4,29.34-3.62,2.51-2.7-2.35-8.74-2.35-8.74Z"/>
    <path class="cls-26" d="M614.65,955.11c-2.26-2.21-4.49-5.1-4.45-8.42.03-2.36,1.29-4.45,3.13-5.87,1.93-1.49,4.06-1.97,6.44-2.14,3.19-.24,6.37-.68,9.48-1.44,12.02-2.9,21.55-11.06,30.3-19.4,3.31-3.15,6.56-6.39,9.63-9.77.44-.49-.54-.7-.88-.33-2.79,3.07-5.73,6.02-8.72,8.9-4.95,4.76-10.12,9.44-15.83,13.28-5.08,3.42-10.67,5.82-16.68,7.01-1.76.35-3.54.6-5.32.79-1.42.15-2.88.14-4.29.41-2.03.39-3.99,1.36-5.51,2.76-1.72,1.59-2.87,3.77-2.81,6.15.08,3.47,2.33,6.38,4.7,8.7.35.34,1.24-.19.8-.62h0Z"/>
    <g>
      <path d="M729.81,935.03s2.18,6.81.66,10.03c-1.52,3.23-14.03,4.26-18.07,4.89-4.04.64-56.27,9.39-61.49,9.77-5.22.37-33.38.48-37.67-5.27,0,0-7.28-9.7,1.96-13.65,9.24-3.95,16.3-3.07,24.9-7.84,8.6-4.77,17.89-12.05,25.88-21.59,0,0,8.19-7.86,12.34-6.94,4.14.92,9.13,8.35,12.55,10.01,3.42,1.66,19.45,3.14,23.17-4.75,3.72-7.89,5.02-5.04,8.2-4.09,3.18.95,9.02,14.09,8.1,20.39-.92,6.3-.53,9.04-.53,9.04Z"/>
      <path class="cls-35" d="M674.06,914.36l.05-.05c.37-.44.05-1.21-.72-1.72l-5.53-3.65c-.77-.51-1.7-.56-2.07-.12l-.05.05c-.37.44-.05,1.21.72,1.72l5.53,3.65c.77.51,1.7.56,2.07.12Z"/>
      <path class="cls-35" d="M668.09,917.72l.14-.16c.27-.31-.08-.94-.77-1.4l-4.11-2.73c-.69-.46-1.48-.58-1.75-.27l-.14.16c-.27.31.08.94.77,1.4l4.11,2.73c.69.46,1.48.58,1.75.27Z"/>
      <path class="cls-35" d="M663.17,920.89l.24-.28c.24-.28-.07-.84-.69-1.26l-2.94-1.95c-.62-.41-1.33-.52-1.57-.25l-.24.28c-.24.28.07.84.69,1.26l2.94,1.95c.62.41,1.33.52,1.57.25Z"/>
      <path class="cls-35" d="M659.27,924.18l.28-.33c.28-.33,0-.93-.62-1.34l-2.94-1.94c-.62-.41-1.36-.48-1.64-.15l-.28.33c-.28.33,0,.93.62,1.34l2.94,1.94c.62.41,1.36.48,1.64.15Z"/>
    </g>
    <path class="cls-4" d="M729.8,940s-23.48,2.7-33.6,6c-10.12,3.3-36.96,8.99-51.06,9.48-14.1.49-33.85-3.57-33.85-3.57,0,0-1.28,1.88,4.91,4.86,6.19,2.97,25.29,4.46,41.8,2.49,16.51-1.97,40.7-4.57,45.78-4.96,5.09-.39,26.25-2.32,29-5.75,2.31-2.88-2.98-8.54-2.98-8.54Z"/>
    <path class="cls-20" d="M270.65,644.73c-9.6,2.76-20,.88-29.95,1.54-16.16,1.07-23.99.68-40.04-.55,8.28,32.41,12.02,99.5,10.55,113.74-2.24,21.74-21.19,41.53-2.26,163.38l25.73,8.23s13.39-87.44,24.39-152.92c5.13-30.54,10.69-90.29,17.49-133.54-7.04,2.99,1.48-2.01-5.9.11Z"/>
    <path class="cls-20" d="M159.16,741.74c-.19,1.84-.5,3.77-.9,5.82,18.12,3.85,30.46,20.41,45.56,31.18,15.19-22.35,15.54-96.96,22.04-138.29-7.04,2.99.13-2.01-7.25.11-9.6,2.76-20,.88-29.95,1.54-16.16,1.07-23.99.68-40.04-.55,8.28,32.41,12.02,85.95,10.55,100.18Z"/>
    <path class="cls-20" d="M159.61,744.69c-10.27,21.07-30.52,56.9-38.92,161.7l25.86,31.41s31.52-98.18,57.28-159.05c-11.96-14.31-27.38-26.09-44.22-34.05Z"/>
    <path class="cls-42" d="M204.54,778.61c1.98-2.7,3.39-5.92,4.71-8.97,4-9.26,6.57-19.11,8.49-28.99,3.77-19.4,5.03-39.16,7.05-58.79,1.42-13.8,3.21-27.55,5.56-41.22.04-.24-1.07.09-1.14.11-1.14.46-2.56,1.14-3.79.62-.57-.24-1.03-.67-1.61-.9-2.61-1.02-5.92.57-8.45,1.06-9.26,1.77-18.77.39-28.12,1.02-.37.02-1.58.62-.64.55,9.78-.66,19.71.82,29.38-1.25,1.84-.39,3.86-1.32,5.77-1.06.79.11,1.32.53,1.98.9,1.94,1.07,4.45-.03,6.3-.78l-1.14.11c-3.88,22.51-5.85,45.19-8.15,67.88-2.01,19.82-4.53,40.13-12,58.74-1.53,3.81-3.2,7.89-5.65,11.23-.07.1,1.18.08,1.43-.26h0Z"/>
    <path class="cls-29" d="M283.2,284.25c8.68,8.13,9.4,7.91,15.2,24.46,4.1,11.69,2.97,8.57,7.44,23.95.61,2.1,5.35,17.39,10.85,28.66.14.29-1.18,2.81-4.61,5.6-1.36,1.89-13.23,9.74-14.64,11.58-4.69,6.13,2.22-2.01-4.29,2.23-3.52,2.29-3.77,10.58-7.72,11.61-2.94-3.91-5.61-8.03-7.99-12.32-4.76-8.58-8.39-17.74-11.13-27.15-2.8-9.6-4.71-19.44-6.01-29.35-1.31-9.98-2.03-20.03-2.43-30.08-.33-8.34-2.73-12.91-2.75-21.26,7.89,3.62,21.04,5.46,28.08,12.06Z"/>
    <path class="cls-15" d="M271.84,703.05c-12.23.13-24.45.3-36.68.53-12.22.22-24.43.49-36.64.79-12.21.3-24.42.65-36.62,1.03-11.25.35-22.5.73-33.75,1.14,2.7-49.15,6.49-91.02.98-111.55-16.33-60.84-2.03-102,16.68-127.94l143.97,19.81,6.61,122.93c-.46,14.74-.56,39.26-2.23,93.09-7.44.04-14.88.09-22.32.17Z"/>
    <path class="cls-15" d="M294.4,321.51c-.52-16.6-6.05-27.81-10.31-34.04-2.36-3.45-5.63-6.18-9.4-7.98-5.45-2.59-10.24-5.23-17.5-7.85-1.35-.49-13.43-3.89-13.3-3.59,3.72,8.63-4.17,16.4-13.74,17.51-3.43.4-6.81.54-10.03.48-10.98-.22-26.57-10.78-33.22-19.02l-1.17-1.52-1.31.76-35.25,15.38,3.64,157.4,6.66,5.15c17.98,6.74,36.07,13.29,54.7,17.98,21.79,5.49,44.66,8.56,67,4.83,5.11-.85-.15.43,4.77-1.16-1.25-5.43,1.47-13.59,1.52-19.33.26-31.69,1.05-47.52,2.12-48.83,0,0,5.79-9.21,7.85-19.18"/>
    <path class="cls-15" d="M287.47,443.48s2.31,31.1,2.31,47.32c0,0-45.22,25.61-103.45,18.13-58.23-7.47-53.01-12.79-53.01-12.79l12.94-52.67,6.7-24.92,128.8,7.94"/>
    <path class="cls-20" d="M184.28,225.36s10.07,27.03,4.53,38.88c-.74,1.59-3.79,3.52-3.97,4.96,0,0,13.16,21.07,40.31,19.77,27.15-1.3,21.23-20.75,21.23-20.75-.99-.61-.72.59-1.7-.03-.27-.17-1.5-1.29-1.68-1.54-.28-.39-.29-.88-.29-1.35,0-13.09.36-25.23.79-38.31"/>
    <path class="cls-42" d="M205.22,247.58s5.01,11.49,28.36,14.85c0,0,5.15,1.52,9,.06l.23-4.74-37.59-10.17Z"/>
    <path class="cls-2" d="M267.9,218.59c-7.37-4.86-9.09-14.03-8.52-22.27.55-7.9-5.85-19.74,3.82-19.71.18,0-3.71-6.61-.85-6.13-1.9-4.28,4.49-4.1,5.2-9.03.14-.99,1.22-9.76-5.04-10.12-23.65-30.5-53.54-22.73-70.35-19.81-32.99,5.74-49.04,8.28-39.01,60.47,6.73,35.03,40.17,43.41,73.57,41.1,14.27-.99,31.27-1.09,41.48-14.31-.1-.06-.2-.12-.3-.19Z"/>
    <path class="cls-2" d="M193.52,101.19c-1.04-1.83-10.25-8.4-15.61-7.59-3.83.58-8.21,2.46-14.44,8.49-6.17-1.49-13.74-2.36-17.24.95-1.36,1.28-2.55,2.98-3.61,4.86,0,0-.02,0-.02,0l-.05.11c-.95,1.7-1.78,3.54-2.51,5.41-3.98,5.94-12.17,18.59-13.53,24.11-.68,2.75,3.52,8.38,9.04,14.35-1.1,1.26-2.16,2.99-2.55,5.27-.89,5.14,5.22,15.91,18.4,10.13,3.72,3.35,6.34,5.57,6.34,5.57l3.75-3.43s-.35-.7-.94-1.93l4.58-4.09-3.44-2.77c.9-.97,2.01-2.03,3.42-3.13,4.44-4.22,9.19-10.07,13.45-14.46,1.97-2.03,7.43-3.32,9.49-5.25-.79-.56-2-1.01-3.51-1.34.56-.52,1.11-1.04,1.67-1.56,1.98.71,3.65,1.35,4.19,1.65,1.82-1.68,6.65-3.38,8.44-5.08.36.53.72,1.07,1.06,1.63,1.64-1.56,5.19-3.39,6.82-4.96-.8-8.63-4.85-15.86-13.07-19.38.25-3.24.37-6.64-.14-7.53ZM138.69,158.45c-.58-1.47-.81-2.88-.85-4.14,2.32,2.41,4.78,4.81,7.14,7.05-2.53.09-5.31-.43-6.3-2.91ZM188.11,101.33c0,1.47-1,3.74-1.87,5.42-.21-.03-.42-.06-.63-.08-1.97-.23-5.72-.92-10.16-1.06,1.57-2.67,3.14-5.25,3.65-5.67,2.6-2.19,9-1.17,9.01,1.4Z"/>
    <path class="cls-20" d="M244.84,150.31c.08.05.17.1.26.15-.1-.11-.2-.24-.28-.36v.21ZM254.42,151.51c.15.12.31.23.48.35v-.17s-.49-.38-.48-.18ZM201.42,245.06c9.53,8.36,25.17,13.44,35.39,14.11,5.01.33,9.41,1.37,14.17-2.55,11.93-9.84,23.37-27.17,20.36-43.18-.55-2.95-2.7-8.38-2.7-11.26,0-3.32-1.16-19.24-4.87-29.07-4.52-11.98-8.63-17.79-8.63-17.79-.59-2.03,4.65-1.46,3.41-3.04l-.9.06s.46.18.51.8c-1.15-.1-2.34-.64-3.25-1.26v.03c-1.31.71-2.7.19-3.9-.77.01.21.27.6.49.59-1.34.3-2.73-.23-3.69-.99.01.21.27.6.28.81-1.04-.12-2.09-.58-2.99-1.08.23.26,5.25-.88,5.26-.74-1.33.3.24.64-.96-.31l-1.17-.69c-1.11.29-1.02.96-1.98.2.24.19-.78-2.23-.76-2.03-1.35.09-.99-.02-2.16-.56.01.21-3.59,1.6-3.57,1.8-1.12.08-.76,1.09-1.71.33.24.19.75-.92.99-.73-1.33.3-1.78,1.2-2.98.25.24.19-4.61-1.96-4.61-1.96-1.34.3-1.08.71-2.26-.04.48.38-6.26.05-6.01.44-1.12.08,2.44,3.98,1.49,3.42.01.21-2.63-.44-2.63-.44-1.11.29.65,1.2-.31.44.01.21.28.81.51.79-1.31.71-2.91.41-4.32-.32.48.38.73.78.97.97-1.13.08-2.01.35-3.19-.4.01.21.51.8.73.78-1.1.49-2.46.38-3.63-.16.01.21.49.59.73.78-.88.27-1.79.33-2.73-.23l.73.78c-.9.06-1.55.52-2.93.2.01.21.48.38.49.59-.68.05-1.58.11-2.27-.05.01.21.72.57.49.59-.9.06-1.55.52-2.7.19.24.19.49.59.73.78-.9.06-1.79.33-2.72-.02.01.21.27.6.51.8-.9.06-1.55.52-2.7.19.01.21.49.59.73.78-.9.06-1.79.33-2.7.19.01.21.48.38.72.57-.9.06-1.79.33-2.94,0,.03.41.27.6.28.81-.68.05-1.14-.13-1.81-.08l-1.1.49c-2.86,4.35-10.61,13.19-10.61,13.19-6.59,6.06-6.06,15.76-5.56,19.67.5,3.91,6.44,19.3,6.44,19.3-1.23-1.37-2.45-4.63-3.24-6.23-.78-1.4-1.92-2.96-2.69-4.36-2.25-3.17-6.68-1.82-9.02.42l-.37.71c-3.12,4.91-1.28,16.47,5.72,23.77,1.37,8.73,10.46,12.28,12.11,5.66l1.46,3.34"/>
    <g>
      <path class="cls-8" d="M247.97,222.18c-1.4.86-3.65.86-5.19.1-.34-.17-1.42.11-.94.34,2.04,1.01,5.25.86,7.06-.24.18-.11.14-.25-.1-.3-.25-.06-.64-.01-.83.1"/>
      <path class="cls-8" d="M241.17,222.27c-1.02-.37-2.14-.52-3.25-.51-.16,0-.37.08-.48.19-.09.09-.1.2.03.25.53.24,1.19.31,1.78.25.19-.02.43-.08.52-.25.09-.15-.1-.23-.25-.22-.49.05-1,0-1.44-.2-.15.15-.3.29-.45.44.99,0,1.99.14,2.9.47.18.07.43,0,.58-.11.11-.08.23-.24.04-.31"/>
      <path class="cls-8" d="M236.81,222.75c-1.29.07-2.85-.35-3.55-1.23-1.07-1.34-.35-3.78,1.18-4.81.17-.11.06-.23-.12-.25-.23-.03-.5.08-.68.19-1.34.9-2.1,2.94-1.79,4.25.29,1.22,1.59,1.99,3.16,2.23.47.07.96.1,1.44.08.2-.01.54-.1.63-.25.09-.16-.1-.21-.28-.2"/>
      <path class="cls-8" d="M250.28,221.37c-.08-.14.04-.24.14-.25.35-.02.7-.14.97-.4.12.13.25.25.37.38-.69.13-1.37.4-1.96.86-.12.09-.3.05-.42-.03-.09-.06-.19-.21-.07-.3"/>
      <path class="cls-8" d="M249.31,221.62c.66-.5,1.42-.8,2.2-.95.11-.02.27.03.36.12.07.07.09.18.01.25"/>
      <path class="cls-8" d="M252.96,221.32c.83-.1,1.78-.72,2.12-1.68.51-1.46-.2-3.09-1.31-3.91-.12-.09-.07-.22.04-.27.15-.06.33,0,.46.1.97.71,1.66,1.95,1.63,3.28-.03,1.25-.77,2.18-1.74,2.61-.29.13-.6.23-.91.26-.13.01-.36-.02-.43-.17-.07-.14.04-.22.16-.23"/>
    </g>
    <path class="cls-8" d="M182.36,214.5c-1.43-2.56-2.97-5.09-4.84-7.36-.88-1.07-1.87-2.15-3.07-2.87-.44-.26-.95-.5-1.48-.49-.23,0-.51.05-.69.2-.33.27-.6.67-.83,1.01-1.29,1.92-1.67,4.3-1.2,6.55.09.41.2.82.33,1.22.05.15.77-.06.72-.19-.56-1.71-.72-3.55-.24-5.3.29-1.06.79-2.06,1.48-2.91.12-.15.25-.3.4-.44l-.3.13s-.2.04-.09.02c.06,0-.1,0-.03,0,.02,0,.04,0,.06,0,.04,0,.08,0,.01,0,.03,0,.06,0,.08.01.37.07.67.2,1.01.39.64.37,1.21.86,1.74,1.38.92.9,1.73,1.91,2.49,2.95,1.37,1.88,2.57,3.87,3.71,5.9.09.17.78-.1.72-.19h0Z"/>
    <path d="M267.65,186.02s.13-.22.15-.24c.07-.12.13-.23.2-.35.21-.4.38-.82.53-1.25.02-.06.06-.21.07-.24.03-.12.06-.25.08-.37.04-.21.07-.43.09-.64-.05-.07-.09-.14-.14-.21-2.92-1.9-6.31-3.16-12.54-5.02l-.1.18c-.6,1.03-.26.45-.87,1.49-.46.79-.92,1.57-1.37,2.36,2.9.82,5.12,1.16,6.91,1.84,2.19.82,4.64,1.58,6.91,2.59.03-.04.06-.09.09-.13Z"/>
    <path d="M229.85,179.85c.43,1.11.19.49.61,1.61.32.85.64,1.7.96,2.55-3.46.52-6.03.62-8.21,1.11-4.31.97-9.4,1.63-13.32,3.77-1.87,1.02-4.54,2.54-5.37,4.61-.22.55-.37,2.29-1.26,2.29-.37,0-.37-1.57-.37-1.73,0-3.17,2.35-5.4,5.49-7.37,6.42-4.03,10-5.19,21.4-7.03"/>
    <path d="M260.4,193.94c1.25-.76,2.8-.28,3.7.41.21.16.78.63,1.09,1.46.39,1.06.05,2.33-.58,3.12-.84,1.06-2.35,1.34-3.55.88-1.63-.63-2.28-2.5-1.98-3.91.06-.26.32-1.35,1.33-1.96"/>
    <path d="M249.01,199.1s6.04-5.4,9.28-5.95c4.73-.8,8.15,1.11,10,3.33,0,0-5.41-3.07-8.73-2.41-3.17.63-10.56,5.03-10.56,5.03Z"/>
    <path d="M223.31,197c-1.34-.58-2.81.1-3.61.91-.19.19-.69.73-.88,1.6-.24,1.11.27,2.31,1.01,3.01.98.94,2.51,1,3.64.38,1.53-.85,1.91-2.79,1.42-4.14-.09-.25-.5-1.29-1.58-1.76"/>
    <path d="M230.61,200.48s-7.16-4.47-10.67-4.57c-6.33-.18-11.92,3.79-13.56,6.24,0,0,8.74-5.33,12.35-5.15,3.45.17,11.89,3.48,11.89,3.48Z"/>
    <path class="cls-3" d="M255.59,154.25c1.26,5.62,8.65.29,4.33-.81.33-2.78-3.64-3.65-3.72-6.46-.15.26-.25.46-.25.46,0,0-.33-3.36-1.52-4.1-1.18-.73-6.42-2.94-6.42-2.94l-1.45,1.26c.03-.09.5-1.23-.33-1.84-.84-.62-9.72-4.51-15.17-3.79-.18.02-.36.05-.54.09l-2.19,1.34-.08.05s.05-.04.08-.05c.39-.26,1.21-.91.73-1.36-.17-.16-.49-.3-1.05-.38-.82-.13-2.03-.14-3.34-.1,0,0,0-.01,0-.02-.12.01-.25.02-.37.03-.12,0-.25.01-.37.02,0,0,0,.01,0,.02-1.31.13-2.5.32-3.3.56-.54.16-.84.34-.98.52-.41.51.5,1.04.91,1.25.03.02.06.03.09.04l-.08-.04-2.36-1.02c-.18-.01-.36-.02-.54-.01-5.5.04-13.75,5.11-14.5,5.84-.74.72-.12,1.79-.08,1.87l-1.61-1.05s-6.38,3.01-7.45,3.9c-1.07.89-1.45,2.87-1.45,2.87,0,0-1.95.87-2.69.69-.73-.18-4.32,2.01-5.71,4.33-.89,1.48-.44,2.79-.84,4.07h0c-.23.72-.35,1.19-.35,1.19l-3.76,1.55c-2.99,1.7-1.77,8.01-1.77,8.01-5.55,7.87-5.42,14.24-2.22,20.88,1.23,2.56-6.1,5.74-1.29,5.3,4.88-.44,9.96,14.58,9.96,14.58,0,0,3.73-6.24,3.74-9.03.01-2.78-1.91-10.9-1.91-10.9l2.33-.5s1.39-.68,2.9-3.94c1.51-3.26-2.04-8.62-2.04-8.62l-1.16-3.31h4.61c4.38-1.07,4.3-5.89,4.3-5.89l-1.32-7.95,2.85,2.5s1.11,1.2,2.64.97c6.84-1,7.36-5.34,7.36-5.34l.64-4.09,1.82,1.04c1.95,1.39,7.75,3.33,10.54,1.89.73-.38,3.74-3.05,4.23-3.42,1.75-1.47,1.85-4.05,1.82-5-.29-.24-.57-.55-.84-.81-1.05-1-1.5-.52-.44.48,1.82,1.73,4.86,4.12,7.4,4.05,2.45-.06,7.63-1.44,8.2-2.62.38-.79-.4-.83.5-.85.78-.02,1.49.49,2.03,1.03,1.26,1.26,2.18,3.17,3.88,3.89,2.47,1.05,3.82-.36,6.17-1.03.52-.15,1.28.07,1.42.7Z"/>
    <path class="cls-1" d="M260.98,149.43s1.29-5.29-1.91-8.06c-3.2-2.77-15.51-13.92-35.27-12.59l37.18,20.64Z"/>
    <g>
      <path class="cls-25" d="M188.34,263.01s14.22,25.63,39.57,23.03c18.59-1.91,16.91-13.57,16.91-13.57v-4.46s6.77,2.21,6.77,2.21c0,0,1.48,4.02-1.56,10.75-3.03,6.72-12.67,12.94-28.95,11.41-9.55-.9-18.23-4.61-28.58-12.14-10.35-7.53-12.7-13.07-12.7-13.07l8.53-4.15Z"/>
      <path class="cls-19" d="M187.61,263.2c1.39,2.5,3.18,4.84,5.01,7.03,4.06,4.84,8.92,9.09,14.52,12.06,6.99,3.7,14.85,5.02,22.67,3.82,5.73-.88,12.4-3.21,14.9-8.95,1.26-2.91.84-6.27.84-9.34l-1.31.5c1.95.64,3.89,1.27,5.84,1.91.25.08.64.13.86.28-.08-.05-.03-.09.02.19.16.94.29,1.85.27,2.82-.17,6.67-4.01,12.38-9.8,15.45-7.28,3.86-16.37,3.97-24.28,2.44-9.21-1.79-17.51-6.59-24.93-12.17-3.4-2.55-6.66-5.4-9.32-8.73-.87-1.08-1.8-2.26-2.35-3.55l-.29.34c2.84-1.38,5.69-2.76,8.53-4.15.87-.42-.46-.49-.86-.29-2.84,1.38-5.69,2.76-8.53,4.15-.08.04-.35.2-.29.34.48,1.11,1.25,2.13,1.97,3.09,2.32,3.04,5.17,5.67,8.15,8.05,7.54,6.03,16.28,11.26,25.8,13.34,13.51,2.95,33.83.71,37.3-15.58.34-1.61.5-3.3.29-4.93-.07-.52-.07-1.14-.5-1.44-.35-.24-.98-.32-1.39-.45l-2.26-.74-3.03-.99c-.32-.1-1.31.05-1.31.5,0,2.43.34,5.2-.28,7.6-1.39,5.41-6.65,8.18-11.75,9.29-7.81,1.7-15.91.56-23.02-3.05-5.46-2.77-10.23-6.8-14.25-11.39-2.12-2.42-4.17-5.03-5.74-7.85-.23-.41-1.61.1-1.45.39Z"/>
    </g>
    <path class="cls-8" d="M181.06,216c-.76.05-1.58.33-1.91,1.08-.29.66-.18,1.44-.04,2.11.17.84.45,1.66.66,2.49.13.51.38,1.27.08,1.76-.01.02-.08.11-.08.1-.04.07.04-.05,0,0,.05-.06.07.03.01-.02-.04-.03-.1-.05-.15-.08-.31-.21-.54-.56-.74-.88-.69-1.08-1.16-2.31-1.57-3.52-.26-.76-.56-1.54-.64-2.33-.06-.6-.09-1.21-.07-1.82.05-1.84.47-4.19,2.3-5.09.44-.22.05-.59-.32-.41-1.78.87-2.47,2.82-2.66,4.67-.13,1.26-.12,2.58.23,3.8.41,1.44.91,2.87,1.6,4.2.34.67.83,1.67,1.59,1.94.67.23,1.26-.33,1.33-.97.09-.72-.18-1.5-.37-2.19-.26-.92-.6-1.87-.62-2.83,0-.36.03-.76.25-1.07.24-.33.66-.41,1.04-.44s.56-.55.07-.52h0Z"/>
    <path class="cls-15" d="M296.39,599.68l1.3,105.85s-8.07,7.45-27.87,6.13c-19.8-1.31-25.29-10.95-41.31-8.76-16.02,2.19-13.73,11.39-33.41,11.39s-23.18-7.45-36.76-7.45c-13.58,0-22.58,5.26-30.89,5.26s-7.02-3.07-7.02-3.07l11.31-97.73,164.66-11.62Z"/>
    <g>
      <path class="cls-32" d="M235.02,914.62s-5.35-5.47-3.77-9.89c1.58-4.41,5.32-3.7,6.56-2.5s33.63,24.4,33.63,24.4"/>
      <path class="cls-16" d="M235.28,914.5c-1.5-1.54-2.81-3.47-3.54-5.49-.59-1.62-.7-3.3.02-4.89.61-1.35,1.72-2.55,3.29-2.63,1.36-.07,2.22.68,3.21,1.43,1.06.82,2.15,1.61,3.23,2.4,3.7,2.72,7.42,5.4,11.14,8.09,4,2.89,8.01,5.77,12.02,8.66,1.43,1.03,2.87,2.06,4.3,3.09.7.5,1.4,1.14,2.15,1.54.03.02.06.05.09.07.16.12.69-.12.45-.29-1.9-1.36-3.79-2.72-5.69-4.08-4.07-2.93-8.15-5.85-12.21-8.79-3.9-2.81-7.8-5.63-11.67-8.47-1.12-.82-2.25-1.65-3.36-2.5-.22-.17-.44-.34-.65-.53-.72-.62-1.6-.95-2.55-.97-2.96-.08-4.97,2.89-4.85,5.65.12,2.79,1.88,5.43,3.66,7.47.14.16.28.31.42.46s.69-.06.53-.23h0Z"/>
    </g>
    <g>
      <path class="cls-32" d="M197.97,935.62s1.43-10.66,4.33-16.32c2.9-5.66,2.63-6.55,6.83-4.54,4.19,2.02,7.38,10.16,14.23,10.57,4.89.29,7.54-2.72,9.85-5.97.92-1.3,1.79-2.63,2.73-3.8,3.28-4.11,3.22-5.71,10.48-1.56,7.26,4.15,19.37,11.57,28.4,12.82,9.03,1.25,11.38.7,18.95,2.4,7.57,1.69,9.98,6.77,9.98,6.77,0,0,5.49,7.34-2.73,10.67-8.22,3.33-80.62-.75-80.62-.75l-22.42-10.3Z"/>
      <path class="cls-16" d="M198.26,935.59c.58-4.28,1.47-8.61,2.85-12.7.48-1.43,1.07-2.8,1.75-4.15.62-1.24,1.18-2.54,1.93-3.71.43-.68.9-1.18,1.76-1.03,1.04.19,2.15.73,3.03,1.3,2.06,1.33,3.56,3.47,5.2,5.26,1.76,1.92,3.75,3.75,6.28,4.56,2.78.88,5.93.4,8.3-1.28,2.71-1.92,4.34-4.92,6.28-7.52.78-1.04,1.57-2.1,2.4-3.1.51-.62,1.12-1.29,1.96-1.42,1.07-.17,2.22.36,3.16.79,1.52.69,2.96,1.55,4.41,2.39,5.87,3.39,11.76,6.83,18.05,9.4,2.94,1.2,5.98,2.22,9.13,2.66s6.44.72,9.68,1c2.91.25,5.79.65,8.65,1.27s5.85,1.85,8.11,3.96c1.55,1.45,2.97,3.54,3.65,5.57s.56,4.13-.88,5.73c-1.1,1.22-2.64,2-4.21,2.33-2.38.51-4.87.61-7.29.72-3.72.18-7.44.21-11.16.22-4.49,0-8.99-.06-13.48-.16-4.74-.1-9.47-.24-14.21-.41-4.46-.15-8.92-.33-13.38-.52-3.66-.16-7.32-.33-10.98-.51-2.34-.12-4.68-.23-7.02-.36-.51-.03-1.03-.08-1.54-.08-.1,0-.29-.06-.08.01-.2-.07-.4-.18-.6-.27-3.1-1.43-6.21-2.85-9.31-4.28-3.55-1.63-7.1-3.26-10.65-4.9-.62-.28-1.24-.57-1.85-.85-.18-.08-.7.17-.45.29,2.32,1.06,4.63,2.13,6.95,3.19,3.91,1.8,7.82,3.59,11.73,5.39,1.13.52,2.26,1.04,3.39,1.56.27.12.45.19.74.2,1.61.09,3.23.17,4.84.26,3.2.16,6.4.32,9.6.47,4.27.2,8.54.38,12.81.54,4.77.18,9.55.35,14.33.48s9.46.23,14.19.27c4.14.04,8.28.04,12.41-.07,3-.08,6.01-.18,8.99-.54s5.98-1.22,7.46-3.93c.93-1.7.73-3.71.03-5.45-.25-.62-.55-1.22-.91-1.79-.12-.19-.28-.42-.33-.5-2.37-4.02-6.61-6.06-11.05-7-6.14-1.29-12.42-1.25-18.59-2.28-3.32-.56-6.53-1.74-9.61-3.07-3.31-1.43-6.52-3.1-9.68-4.84-2.79-1.53-5.53-3.15-8.29-4.72-1.43-.82-2.89-1.66-4.45-2.19-.84-.29-1.76-.47-2.64-.22-.77.22-1.37.74-1.89,1.33-.76.86-1.41,1.8-2.12,2.7-2.17,2.75-3.83,6.15-6.79,8.17-2.73,1.86-6.31,1.89-9.17.3-2.43-1.35-4.24-3.53-6.05-5.58-.82-.93-1.64-1.86-2.58-2.66-.87-.75-1.84-1.27-2.91-1.71-.73-.3-1.56-.61-2.36-.4-.74.19-1.22.79-1.61,1.41-.77,1.24-1.35,2.61-2.01,3.91s-1.19,2.6-1.65,3.95c-.94,2.81-1.61,5.71-2.16,8.61-.26,1.36-.5,2.72-.68,4.09-.03.24.55.14.57-.07Z"/>
    </g>
    <g>
      <path class="cls-26" d="M143.95,924.7s.87-6.18,5-11.01c4.13-4.83,6.44-6.49,6.44-6.49"/>
      <path class="cls-16" d="M144.24,924.62c.33-2.31,1.21-4.71,2.26-6.82,1.03-2.05,2.39-3.8,3.91-5.51,1.18-1.32,2.39-2.6,3.69-3.8.37-.34.75-.68,1.13-1,.11-.09.34-.27.38-.3.23-.17-.34-.09-.44-.02-1.78,1.28-3.31,2.99-4.78,4.6s-2.99,3.4-4.09,5.42c-.86,1.58-1.54,3.27-2.05,4.99-.25.84-.47,1.71-.6,2.58,0,.07.55.02.57-.15h0Z"/>
    </g>
    <path class="cls-16" d="M283.39,942.22c.51-.03,1.06-.25,1.19-.79.14-.57-.03-1.24-.13-1.8-.36-2.14-.45-4.24.34-6.31.7-1.84,1.94-3.42,3.35-4.77.24-.23-.33-.21-.46-.08-2.13,2.03-3.81,4.58-4.06,7.57-.08.97-.02,1.94.12,2.89.1.69.27,1.38.3,2.08.01.22,0,.49-.11.69s-.21.2-.46.21c-.28.02-.48.33-.08.3h0Z"/>
    <g>
      <path class="cls-26" d="M244.57,918.21l-.05-.06c-.4-.49-.03-1.43.82-2.09l6.16-4.81c.85-.67,1.88-.81,2.28-.33l.05.06c.4.49.03,1.43-.82,2.09l-6.16,4.81c-.85.67-1.88.81-2.28.33Z"/>
      <path class="cls-16" d="M244.84,918.11c-.63-.76.32-1.73.9-2.18l1.51-1.18,4.1-3.2c.51-.4,1.16-.99,1.85-.75.59.2.59.87.36,1.35-.2.4-.51.72-.86.99-1.19.93-2.38,1.86-3.57,2.78-.65.51-1.3,1.01-1.95,1.52-.47.37-.99.86-1.61.93-.28.03-.55-.05-.73-.26-.1-.11-.63.09-.54.2.45.5,1.32.31,1.86.1.39-.15.73-.37,1.05-.62l1.6-1.24c1.41-1.1,2.83-2.2,4.24-3.31.18-.14.36-.27.52-.43.41-.4.93-1.13.65-1.74-.25-.56-.92-.6-1.45-.5-.58.11-1.1.38-1.56.73-1.27.98-2.53,1.97-3.79,2.96-.65.51-1.3,1.02-1.96,1.53-.61.48-1.32,1.03-1.39,1.87-.02.26.06.46.23.66.09.11.63-.09.54-.2Z"/>
    </g>
    <g>
      <path class="cls-26" d="M251.33,920.8l-.19-.24c-.37-.45-.04-1.31.74-1.91l4.61-3.56c.78-.6,1.71-.72,2.08-.27l.19.24c.37.45.04,1.31-.74,1.91l-4.61,3.56c-.78.6-1.71.72-2.08.27Z"/>
      <path class="cls-16" d="M251.6,920.69c-.09-.11-.21-.22-.27-.36-.09-.2-.05-.43.01-.63.13-.39.42-.71.74-.96.35-.27.7-.54,1.05-.81,1.09-.84,2.18-1.69,3.28-2.53.45-.35,1.07-.85,1.67-.61.17.06.26.21.37.34s.18.28.18.46c0,.52-.4.99-.78,1.29-.87.7-1.76,1.36-2.65,2.04l-1.57,1.21c-.44.34-.9.74-1.48.76-.21,0-.4-.05-.54-.21s-.69.05-.53.23c.38.44,1.07.38,1.57.22.37-.12.71-.31,1.02-.55l1.32-1.02c1.06-.82,2.13-1.64,3.19-2.46.61-.47,1.44-1.45.81-2.22-.12-.15-.24-.3-.42-.39-.25-.12-.54-.14-.82-.11-.53.06-1.03.3-1.45.62-1.03.79-2.06,1.59-3.08,2.38l-1.4,1.08c-.25.19-.48.39-.67.63-.3.37-.58.95-.35,1.43.07.14.19.26.29.39.14.17.69-.04.53-.23Z"/>
    </g>
    <g>
      <path class="cls-26" d="M257.59,923.29l-.25-.29c-.25-.3.1-.98.8-1.53l3.27-2.57c.69-.54,1.46-.75,1.72-.45l.25.29c.25.3-.1.98-.8,1.53l-3.27,2.57c-.69.54-1.46.75-1.72.45Z"/>
      <path class="cls-16" d="M257.86,923.19c-.14-.16-.33-.31-.32-.54.01-.4.37-.79.65-1.04.25-.23.53-.43.79-.63.83-.66,1.67-1.31,2.5-1.97.07-.06.15-.12.22-.18.19-.14.4-.27.62-.36.12-.05.25-.08.38-.04.11.04.17.12.24.2s.16.16.2.25c.14.32-.16.73-.36.96-.26.31-.59.54-.91.79l-1.32,1.04-1.23.97c-.09.07-.18.14-.27.21-.24.19-.56.42-.87.45-.12.01-.24-.02-.33-.12-.09-.1-.62.11-.54.19.27.3.86.12,1.18.02.4-.13.76-.35,1.08-.6s.62-.49.94-.74c.77-.61,1.55-1.21,2.31-1.82.35-.28.71-.64.86-1.07.05-.14.08-.31.01-.45-.05-.1-.15-.19-.22-.28-.08-.1-.15-.18-.27-.22-.19-.07-.41-.04-.61,0-.53.1-1.03.36-1.45.69-.76.59-1.52,1.2-2.28,1.8-.32.25-.64.51-.96.76-.29.23-.56.5-.75.82-.15.26-.27.58-.05.83.08.09.15.18.23.26.09.1.62-.1.54-.19Z"/>
    </g>
    <g>
      <path class="cls-26" d="M262.53,926.22l-.3-.36c-.3-.36.02-1.1.71-1.64l3.28-2.56c.69-.54,1.51-.69,1.81-.33l.3.36c.3.36-.02,1.1-.71,1.64l-3.28,2.56c-.69.54-1.51.69-1.81.33Z"/>
      <path class="cls-16" d="M262.82,926.14c-.13-.16-.33-.33-.39-.53-.11-.38.17-.8.4-1.08.25-.29.59-.51.89-.75l2.57-2.01c.35-.27.82-.69,1.28-.49.19.08.35.32.47.48.23.29.07.69-.1.97-.25.39-.62.66-.98.94l-1.33,1.04-1.27,1c-.33.26-.71.62-1.15.61-.16,0-.3-.06-.41-.18-.09-.1-.62.1-.54.19.28.32.83.23,1.19.13.42-.11.81-.32,1.16-.59.32-.25.64-.5.97-.76l1.53-1.2c.28-.22.57-.43.84-.66.35-.29.69-.69.76-1.15.05-.33-.14-.52-.33-.75-.08-.1-.15-.19-.27-.24-.19-.08-.4-.09-.6-.07-.56.05-1.09.3-1.53.64-.79.6-1.56,1.22-2.35,1.83-.31.25-.63.49-.94.74s-.61.57-.77.94c-.07.16-.12.35-.08.53.02.13.09.22.17.31l.23.28c.11.13.61-.11.57-.15Z"/>
    </g>
    <path class="cls-16" d="M273.33,926.71c.5,1.5.19,3.37-1.08,4.39-1.56,1.25-3.97,1.21-5.84,1-1.56-.17-3.1-.6-4.59-1.09-3.85-1.25-7.56-2.96-11.19-4.73s-6.98-3.56-10.4-5.48c-1.79-1-3.58-2.02-5.34-3.08-.15-.09-.68.13-.46.27,4.98,3,10.12,5.79,15.33,8.36,3.81,1.88,7.71,3.69,11.76,4.98,1.5.48,3.04.91,4.61,1.07,1.93.2,4.13.18,5.88-.78s2.52-3.15,1.88-5.08c-.06-.19-.63-.02-.57.15h0Z"/>
    <g>
      <path class="cls-30" d="M197.59,933.91s-.82.25-.96,2.48c-.13,2.23-.71,11.73-.71,11.73,0,0,6.93,3.55,19.56,4.31,12.63.76,54.28,3.27,60.19,3.62,5.92.36,29.36-1.38,30.25-6.9.89-5.52-.59-13.29-1.58-13.04-.99.25-10.46,5.36-19.94,5.86-9.48.5-31.2.46-46.45-.71-15.25-1.17-38.4-4.07-40.38-7.35Z"/>
      <path class="cls-16" d="M197.55,933.75c-.68.23-.95,1.06-1.08,1.68-.21,1.03-.19,2.13-.26,3.18l-.46,7.59c-.04.65-.08,1.3-.12,1.95,0,.05.01.09.06.12,1.8.92,3.81,1.53,5.75,2.08,4.78,1.35,9.7,2.01,14.64,2.3,6.95.42,13.89.84,20.84,1.25,8.27.5,16.54,1,24.81,1.49,3.15.19,6.29.38,9.44.57,1.79.11,3.58.27,5.37.3,3.14.06,6.3-.15,9.42-.45,3.88-.36,7.78-.89,11.57-1.8,1.59-.38,3.17-.83,4.68-1.46,1.1-.46,2.24-1.01,3.09-1.86,1.04-1.03,1.06-2.37,1.14-3.76.14-2.47-.02-4.99-.46-7.42-.16-.88-.34-1.79-.67-2.63-.13-.33-.32-.86-.71-.95-.33-.08-.75.17-1.04.3-.64.28-1.28.58-1.93.86-4.91,2.16-10.09,3.97-15.45,4.56-4.2.46-8.51.39-12.73.43-5.38.05-10.77,0-16.15-.12-10.46-.24-20.89-.86-31.3-2.01-5.11-.57-10.23-1.23-15.3-2.12-3.58-.63-7.33-1.24-10.71-2.63-.75-.31-1.72-.69-2.17-1.41-.11-.18-.67.01-.53.23.5.79,1.59,1.21,2.41,1.54,1.57.63,3.23,1.06,4.87,1.44,4.79,1.13,9.67,1.85,14.54,2.49,11,1.46,22.06,2.33,33.16,2.69,10.41.34,20.88.49,31.29,0,5.76-.27,11.3-1.9,16.6-4.1.92-.38,1.83-.78,2.74-1.19.4-.18.97-.56,1.39-.61.1-.01-.08-.08.03.03.06.07.12.14.17.22.19.31.31.68.41,1.02.31.99.49,2.03.64,3.05.4,2.75.53,5.63.1,8.38-.18,1.14-1.02,1.86-1.96,2.44-1.36.83-2.91,1.34-4.43,1.78-1.92.55-3.89.96-5.86,1.29-6.28,1.07-12.76,1.65-19.12,1.27-6.72-.4-13.44-.81-20.16-1.21-8.9-.54-17.81-1.07-26.71-1.61-8.44-.51-17.03-.6-25.23-2.84-1.58-.43-3.15-.93-4.67-1.54-.37-.15-.75-.31-1.11-.48-.08-.04-.15-.07-.23-.11-.11-.06.02.17.02.04.18-3.32.4-6.63.6-9.95.04-.72.06-1.45.14-2.17.06-.52.16-1.11.45-1.56.07-.1.14-.19.22-.27.06-.06.11-.06,0-.02.34-.11.26-.44-.09-.32Z"/>
    </g>
    <g>
      <path class="cls-32" d="M148.83,910.94s-3.93-6.57-1.38-10.49c2.56-3.93,6.03-2.37,6.96-.91.93,1.46,27.05,31.53,27.05,31.53"/>
      <path class="cls-16" d="M149.1,910.82c-1.09-1.82-1.89-3.97-2.15-6.08-.21-1.69.06-3.35,1.12-4.72s2.58-2.2,4.26-1.66c1.19.38,1.78,1.3,2.52,2.2.89,1.09,1.8,2.16,2.71,3.23,2.96,3.48,5.94,6.95,8.93,10.41,3.18,3.68,6.36,7.36,9.54,11.04,1.14,1.31,2.27,2.62,3.41,3.93.55.64,1.08,1.37,1.69,1.95.03.03.05.06.08.09.18.2.72-.03.52-.26-1.5-1.72-2.99-3.45-4.49-5.18-3.25-3.75-6.49-7.5-9.73-11.25-3.13-3.63-6.26-7.26-9.37-10.92-.94-1.1-1.88-2.21-2.8-3.33-.79-.96-1.43-1.9-2.69-2.31-3.05-.98-5.86,1.8-6.28,4.68-.4,2.7.67,5.56,1.91,7.92.09.17.18.35.29.52.14.23.68,0,.52-.26h0Z"/>
    </g>
    <g>
      <path class="cls-32" d="M108.98,921.27s2.81-8.53,6.94-13.36c4.13-4.83,4.08-5.77,7.69-2.83,3.61,2.94,4.82,11.6,11.39,13.58,4.69,1.42,7.96-.9,10.96-3.52,1.2-1.05,2.35-2.14,3.54-3.07,4.15-3.24,4.46-4.8,10.56.91,6.1,5.72,16.16,15.75,24.65,19.06,8.5,3.31,10.9,3.32,17.87,6.72,6.97,3.4,8.14,8.9,8.14,8.9,0,0,3.64,8.41-5.13,9.75-8.77,1.34-78.25-19.43-78.25-19.43l-18.37-16.73Z"/>
      <path class="cls-16" d="M109.26,921.23c.49-1.48,1.08-2.94,1.7-4.37,1.24-2.85,2.67-5.69,4.58-8.16,1.01-1.31,2.1-2.59,3.2-3.82.6-.67,1.31-1.56,2.3-1.22s2.04,1.22,2.78,1.97c.8.8,1.4,1.78,1.96,2.76,1.25,2.19,2.28,4.51,3.8,6.54,1.67,2.22,3.9,3.8,6.7,4.22,3.11.46,5.94-.81,8.35-2.67,2.54-1.97,4.83-4.26,7.4-6.21.65-.5,1.39-1.01,2.25-.93,1.07.1,2.06.84,2.88,1.48,2.5,1.94,4.72,4.28,7.03,6.44,4.98,4.67,10.14,9.38,16.06,12.84,5.28,3.09,11.33,4.4,16.99,6.57,5.14,1.98,10.64,4.58,12.83,10,.74,1.84,1.34,3.92,1.03,5.9-.54,3.53-4.04,4.96-7.26,4.76-2.59-.16-5.16-.66-7.7-1.16-3.74-.74-7.46-1.59-11.17-2.49-4.37-1.05-8.73-2.17-13.09-3.32s-9.07-2.42-13.59-3.67c-4.2-1.16-8.4-2.34-12.59-3.54-3.42-.98-6.85-1.96-10.26-2.96-2.14-.63-4.29-1.25-6.43-1.89-.44-.13-.9-.23-1.32-.39-.1-.04-.1-.03-.11-.04-.22-.14-.42-.38-.61-.56-2.57-2.34-5.14-4.69-7.72-7.03-2.85-2.59-5.69-5.19-8.54-7.78-.49-.45-.98-.89-1.47-1.34-.13-.12-.66.1-.54.21,1.85,1.68,3.7,3.37,5.54,5.05,3.17,2.89,6.34,5.78,9.51,8.66.97.88,1.94,1.76,2.91,2.65.22.2.36.36.64.45,1.45.47,2.93.87,4.39,1.3,3.02.89,6.04,1.76,9.06,2.63,4.03,1.16,8.07,2.31,12.11,3.44,4.55,1.27,9.1,2.53,13.66,3.75s9.11,2.42,13.67,3.56c4.02,1.01,8.06,1.98,12.11,2.85,3.03.65,6.08,1.28,9.15,1.68,2.6.33,5.17.42,7.53-.97,3.02-1.78,3.22-5.43,2.16-8.45-.23-.65-.42-1.32-.72-1.95-1.03-2.24-2.71-4.15-4.68-5.6-2.59-1.92-5.75-3.17-8.76-4.28-2.69-.99-5.44-1.8-8.14-2.76-3.33-1.18-6.49-2.47-9.48-4.37-2.98-1.9-5.77-4.11-8.46-6.4s-5.13-4.56-7.62-6.92c-1.08-1.02-2.15-2.05-3.24-3.06-1.17-1.09-2.38-2.22-3.78-3.01-1.57-.88-3.01-.65-4.44.38-2.6,1.87-4.86,4.18-7.36,6.17-1.34,1.07-2.81,2.04-4.48,2.5-1.83.5-3.81.3-5.56-.42-2.57-1.06-4.32-3.32-5.69-5.66-1.23-2.1-2.18-4.42-3.67-6.36-.72-.94-1.65-1.71-2.64-2.35-.66-.42-1.38-.75-2.17-.54-.89.23-1.56.99-2.15,1.66-1.12,1.27-2.24,2.57-3.26,3.92-1.85,2.47-3.27,5.27-4.49,8.09-.61,1.41-1.19,2.84-1.67,4.3-.05.16.51.08.57-.09Z"/>
    </g>
    <path class="cls-16" d="M113.08,923.11c.32-2.25,1.22-4.72,2.26-6.82,1.03-2.05,2.39-3.8,3.91-5.51,1.18-1.32,2.39-2.6,3.69-3.8.47-.43,1.05-.96,1.51-1.3.23-.17-.34-.09-.44-.02-1.78,1.28-3.31,2.99-4.78,4.6-1.54,1.69-2.99,3.41-4.09,5.42-.86,1.58-1.54,3.27-2.05,4.99-.25.85-.47,1.71-.6,2.58,0,.07.55.02.57-.15h0Z"/>
    <path class="cls-16" d="M189.38,949.03c.54.09,1.15-.01,1.43-.54s.26-1.21.3-1.79c.06-.93.14-1.85.35-2.76.28-1.19.76-2.32,1.46-3.33,1.1-1.6,2.65-2.83,4.32-3.8.1-.06.15-.15.05-.23s-.31,0-.41.05c-2.54,1.48-4.76,3.57-5.72,6.41-.32.94-.48,1.92-.57,2.9-.06.69-.05,1.41-.19,2.09-.04.22-.13.49-.26.62-.06.06-.02.01-.08.06.05-.03,0,0-.03,0,.06-.03,0,0-.03,0,.06,0-.07,0-.08,0-.08,0-.13,0-.21-.02-.13-.02-.31,0-.41.11-.07.08-.08.19.06.21h0Z"/>
    <g>
      <path class="cls-26" d="M157.29,916.65l-.03-.07c-.28-.57.3-1.4,1.29-1.85l7.11-3.25c.99-.45,2.02-.36,2.3.21l.03.07c.28.57-.3,1.4-1.29,1.85l-7.11,3.25c-.99.45-2.02.36-2.3-.21Z"/>
      <path class="cls-16" d="M157.58,916.58c-.41-.83.59-1.5,1.24-1.8l1.75-.8,4.7-2.15c.63-.29,1.39-.69,2.08-.35.55.26.48.88.17,1.3-.25.34-.62.57-1,.75-1.36.63-2.73,1.24-4.09,1.87l-2.26,1.03c-.57.26-1.15.59-1.8.55-.3-.02-.63-.12-.79-.41-.11-.19-.66,0-.57.15.54.98,2.07.54,2.86.18l1.95-.89,4.81-2.2c.72-.33,1.84-.97,1.71-1.91-.08-.63-.76-.86-1.31-.87s-1.06.14-1.54.36c-1.5.68-3,1.37-4.5,2.06l-2.2,1.01c-.73.33-1.59.76-1.83,1.6-.07.23-.04.45.07.67.1.2.66.01.57-.15Z"/>
    </g>
    <g>
      <path class="cls-26" d="M163.59,921.62l-.19-.24c-.37-.45-.04-1.31.74-1.91l4.61-3.56c.78-.6,1.71-.72,2.08-.27l.19.24c.37.45.04,1.31-.74,1.91l-4.61,3.56c-.78.6-1.71.72-2.08.27Z"/>
      <path class="cls-16" d="M163.86,921.52c-.09-.12-.21-.23-.27-.37-.09-.21-.06-.43,0-.64.14-.41.44-.76.78-1.02s.68-.53,1.03-.79l3.29-2.54c.45-.34,1.03-.83,1.62-.58.29.13.56.52.56.83,0,.54-.42,1.05-.83,1.36-.87.68-1.74,1.35-2.62,2.02l-1.58,1.22c-.42.32-.87.74-1.43.74-.22,0-.42-.07-.56-.24-.11-.12-.65.08-.54.21.37.43,1.08.33,1.56.18.39-.12.75-.32,1.07-.57.43-.33.86-.67,1.3-1,1.07-.83,2.14-1.65,3.21-2.48.59-.46,1.38-1.39.78-2.13-.12-.15-.23-.29-.41-.37-.25-.12-.54-.12-.81-.09-.55.07-1.07.31-1.5.64-1.02.78-2.04,1.57-3.06,2.36l-1.42,1.09c-.23.18-.45.36-.63.59-.29.36-.6.94-.36,1.4.07.14.19.25.28.37.1.13.65-.07.54-.21Z"/>
    </g>
    <g>
      <path class="cls-26" d="M169.85,924.11l-.25-.29c-.25-.3.1-.98.8-1.53l3.27-2.57c.69-.54,1.46-.75,1.72-.45l.25.29c.25.3-.1.98-.8,1.53l-3.27,2.57c-.69.54-1.46.75-1.72.45Z"/>
      <path class="cls-16" d="M170.12,924c-.14-.16-.33-.31-.32-.54.02-.4.37-.78.65-1.03.24-.22.51-.41.77-.62l2.49-1.96c.08-.07.17-.13.26-.2.19-.14.39-.27.62-.35.12-.05.25-.09.38-.05.1.03.17.12.23.2s.15.15.2.25c.14.32-.17.73-.36.95-.26.3-.58.53-.88.77l-1.32,1.04-1.22.96c-.09.07-.17.13-.26.2-.26.2-.61.46-.95.48-.11,0-.21-.03-.29-.11-.11-.11-.64.09-.54.2.28.3.86.14,1.19.03.38-.13.73-.34,1.05-.58s.64-.5.95-.75c.76-.6,1.53-1.2,2.29-1.8.36-.29.74-.65.89-1.1.05-.14.08-.31.01-.45-.05-.11-.15-.2-.23-.28-.08-.1-.15-.18-.28-.22-.19-.07-.41-.05-.61-.01-.52.09-1,.35-1.41.67-.77.6-1.53,1.21-2.3,1.81-.32.25-.63.5-.95.75s-.59.51-.78.85c-.16.26-.27.59-.05.84.07.09.15.18.23.26.1.12.64-.08.54-.2Z"/>
    </g>
    <g>
      <path class="cls-26" d="M174.79,927.04l-.3-.36c-.3-.36.02-1.1.71-1.64l3.28-2.56c.69-.54,1.51-.69,1.81-.33l.3.36c.3.36-.02,1.1-.71,1.64l-3.28,2.56c-.69.54-1.51.69-1.81.33Z"/>
      <path class="cls-16" d="M175.06,926.94c-.13-.16-.33-.33-.38-.53-.09-.39.2-.8.45-1.07s.56-.48.85-.71l2.56-2c.09-.07.18-.14.27-.21.27-.2.7-.44,1.05-.29.11.05.17.13.24.22s.15.17.22.26c.21.29.04.69-.14.95-.24.37-.61.62-.95.89l-1.34,1.05-1.25.98c-.35.28-.75.65-1.23.63-.14,0-.27-.06-.36-.17-.11-.12-.65.08-.54.21.29.33.85.25,1.22.14.4-.11.77-.31,1.1-.57s.66-.52,1-.78l1.52-1.19c.29-.23.6-.45.88-.69.34-.3.69-.71.74-1.18.03-.32-.16-.51-.35-.74-.08-.1-.16-.19-.29-.24-.19-.08-.4-.09-.6-.07-.54.05-1.06.3-1.49.63-.79.61-1.58,1.24-2.37,1.85-.3.23-.6.47-.9.7-.34.27-.66.6-.82,1.02-.06.16-.1.36-.06.53.03.12.11.22.19.31l.23.28c.1.12.65-.07.54-.21Z"/>
    </g>
    <path class="cls-16" d="M183.3,931.66c0-.11,0,.06,0,.09,0,.12,0,.24,0,.37-.02.38-.07.76-.18,1.13-.3,1.08-1,1.98-2.07,2.39-1.87.72-4.18.11-5.97-.56-1.47-.55-2.86-1.33-4.19-2.15-3.43-2.12-6.63-4.63-9.74-7.2-3-2.47-5.91-5.05-8.77-7.68-1.5-1.38-2.98-2.77-4.44-4.19-.19-.19-.68.1-.44.34,4.13,4.06,8.46,7.94,12.92,11.64,3.26,2.7,6.61,5.35,10.24,7.56,1.36.83,2.77,1.61,4.27,2.15,1.84.66,4.07,1.18,6,.59s3.12-2.59,2.95-4.62c-.02-.27-.6-.13-.57.15h0Z"/>
    <g>
      <path class="cls-30" d="M108.98,921.27s-.86.05-1.51,2.19c-.65,2.14-3.41,11.25-3.41,11.25,0,0,5.92,5.06,18.03,8.73,12.11,3.67,52.04,15.77,57.71,17.49,5.67,1.72,28.88,5.47,31.03.31,2.14-5.17,2.51-13.06,1.49-13.05-1.02.01-11.42,2.79-20.76,1.08-9.33-1.71-30.45-6.79-45.02-11.46s-36.41-12.87-37.57-16.52Z"/>
      <path class="cls-16" d="M109,921.06c-.76.07-1.26.97-1.52,1.57-.41.94-.65,1.98-.94,2.95-.73,2.41-1.46,4.81-2.19,7.22-.19.62-.38,1.25-.57,1.87-.03.09-.02.14.05.2,1.54,1.32,3.36,2.37,5.12,3.35,4.34,2.42,8.97,4.19,13.72,5.63,6.63,2.01,13.27,4.02,19.9,6.03,7.97,2.42,15.94,4.83,23.92,7.25,2.97.9,5.95,1.8,8.92,2.7,1.72.52,3.43,1.09,5.17,1.54,3.12.81,6.31,1.34,9.5,1.78,3.89.54,7.82.93,11.74.9,1.63-.01,3.27-.1,4.88-.39,1.16-.21,2.37-.52,3.35-1.2,1.22-.85,1.54-2.43,1.92-3.77.65-2.31,1.04-4.71,1.16-7.11.04-.81.05-1.64-.05-2.45-.05-.35-.1-.92-.45-1.12-.28-.16-.72-.01-1.01.04-.67.12-1.34.25-2.02.38-5.32.98-10.82,1.54-16.21.86-4.18-.52-8.33-1.58-12.43-2.52-5.24-1.2-10.46-2.49-15.66-3.85-10.21-2.68-20.29-5.73-30.23-9.3-4.75-1.71-9.48-3.5-14.12-5.5-3.36-1.45-6.88-2.93-9.88-5.06-.66-.47-1.55-1.07-1.82-1.88-.09-.27-.66-.11-.57.15.27.81,1.08,1.42,1.74,1.9,1.23.91,2.58,1.64,3.93,2.34,3.9,2.02,7.98,3.7,12.06,5.3,9.41,3.7,19.01,6.95,28.74,9.74,10.03,2.88,20.17,5.44,30.38,7.63,1.81.39,3.62.76,5.44,1.11,2.76.52,5.54.7,8.35.63,2.65-.06,5.3-.34,7.92-.74,1.55-.24,3.08-.57,4.62-.82.41-.07.41-.12.54.31.2.69.18,1.47.17,2.19-.04,2.33-.39,4.67-.95,6.93-.28,1.14-.59,2.34-1.1,3.4-.19.39-.49.69-.84.94-1.01.7-2.32.96-3.51,1.14-3.57.53-7.27.3-10.85-.02-3.72-.34-7.43-.87-11.09-1.6-4.47-.88-8.8-2.38-13.15-3.7-7.51-2.28-15.03-4.55-22.54-6.83-7.29-2.21-14.59-4.42-21.88-6.63-3.76-1.14-7.54-2.24-11.17-3.75s-6.93-3.19-10.02-5.39c-.4-.28-.8-.57-1.17-.89l.05.2c1.09-3.58,2.17-7.16,3.26-10.75.19-.62.36-1.25.7-1.81.15-.24.32-.46.54-.63.06-.05.21-.08.12-.07.32-.03.44-.46.05-.43Z"/>
    </g>
    <path class="cls-33" d="M149.67,474.59c10.33-.61,38.25-.04,48.58,1.07,3.2.37,6.52.86,8.85,2.58,2.95,2.34,2.95,5.9,2.83,9.22-.74,17.7-2.83,35.28-6.15,52.74-.12,1.35-.74,2.58-1.6,3.57-1.35,1.23-3.57,1.48-5.53,1.6-16.72,1.23-30,2.58-46.72.86-4.55-.49-30.76.08-32.61-3.24-1.48-2.58-1.18-21.32-.08-23.91.57-8.9,2.56-19.48,3.79-23.91,1.37-23.85,12.53-20.11,22.85-19.74"/>
    <path class="cls-15" d="M159.45,374.01c-9.95-1.68-3.94,8.14-13,3.77-2.75-1.33-30.09-4.29-32.79-5.72,4.41-25.84,5.96-52.44,10.25-65.34,9.05-22.79,38.4-30.58,38.4-30.58l3.57,80.61-1.1,17.29c-4.51-.03-.9.73-5.35-.02Z"/>
    <g>
      <path class="cls-25" d="M155.9,298.7c7.28,1.8,12.68,9.76,14.15,17.11,3.62,18.05.08,43.2-3.54,58.2h-7.06"/>
      <path class="cls-19" d="M155.32,299.01c5.1,1.33,8.98,5.38,11.42,9.9s3.23,9.75,3.69,14.88c1.03,11.35.13,22.88-1.53,34.13-.81,5.44-1.83,10.85-3.11,16.2l1.02-.46c-2.35,0-4.7,0-7.06,0-.47,0-1.56.71-.59.71,2.35,0,4.7,0,7.06,0,.25,0,.94-.14,1.02-.46,2.51-10.44,4.12-21.14,4.78-31.86.35-5.69.43-11.41,0-17.09-.39-5.24-.99-10.67-3.32-15.45-2.46-5.05-6.62-9.67-12.21-11.13-.39-.1-1.68.5-1.17.63h0Z"/>
    </g>
    <path class="cls-33" d="M207.1,478.24s55.2-110.82,67.59-198.75c0,0,.67-5.36-6.22-4.38,0,0-23.1,112.82-70.21,200.54"/>
    <path class="cls-17" d="M225.06,440.3l-8.28-3.85c-1.68-.78-3.68-.05-4.47,1.63l-3.21,6.9c-.78,1.68-.05,3.68,1.63,4.47l8.28,3.85c1.68.78,3.68.05,4.47-1.63l3.21-6.9c.78-1.68.05-3.68-1.63-4.47ZM221.24,449.91c-.35.75-1.24,1.08-2,.73l-6.63-3.09c-.75-.35-1.08-1.24-.73-2l2.67-5.73c.35-.75,1.24-1.08,2-.73l6.63,3.09c.75.35,1.08,1.24.73,2l-2.67,5.73Z"/>
    <path class="cls-28" d="M468.95,183.14c-1-5.43.44-18.84-2.33-19.17s-5.76.78-7.54,5.1,1.44,15.29-2.77,18.39c-3.1,2.22-5.43-.78-5.43-.78,0,0-11.08-14.41-14.85-21.05s-8.75-11.52-10.64-9.75c-1.88,1.77-2.33,3.77.78,9.31,3.1,5.54,9.09,13.85,8.2,15.07s-2.88,0-4.65-3.21c-1.77-3.21-11.52-17.62-13.85-17.51-2.11.11-3.77,1.99-3.66,4.1,0,.22.11.55.11.78h0c.44,1.88,1.33,3.55,2.55,4.99,5.21,5.98,12.52,14.96,14.07,19.06-.33.22-5.21-4.99-10.64-11.97l-4.1-6.09c-.89-1.44-2.88-1.88-4.32-1-.11.11-.22.11-.22.22-.44.33-.66.89-.78,1.44-.44,2.66,2.66,5.98,2.66,5.98l13.41,18.73s-.44,1.88-1.55,1.88-10.08-15.62-11.86-14.63c-1.77,1-3.32.22-1.44,5.43s9.42,16.4,13.3,19.72c2.44,2.11,8.31,9.64,12.3,14.85,2.33,2.99,5.98,4.65,9.86,4.32l12.19-1.11c.55-.11,11.75-5.1,13.19-17.06,1.44-11.97-1.11-20.61-1.99-26.04Z"/>
    <path class="cls-34" d="M450.78,191.34c-2.88,2.33-4.88,5.65-5.65,9.2-.55,2.66-.22,4.32-.44,4.43l1.55,5.21c-.78-6.54.89-13.3,4.54-18.84Z"/>
    <polygon class="cls-28" points="444.35 226.58 448.67 234.89 473.83 223.15 468.51 211.51 444.35 226.58"/>
    <path class="cls-28" d="M822.99,244.09l2.88-9.97,21.94,5.98,4.76,3.66-3.21,10.31c-8.2-3.1-18.62-6.87-26.37-9.97Z"/>
    <path class="cls-28" d="M881.17,188.02c-.11-.55-.33-1-.78-1.44-1.22-1-3.1-.89-4.1.33-.11.11-.22.22-.33.44l-3.21,4.99c-5.32,6.98-8.75,13.85-10.42,11.97,1.55-4.43,8.86-14.96,13.96-20.94l1.33-1.99c.55-2.11-.78-4.21-2.88-4.65-.22-.11-.44-.11-.78-.11-2.22-.11-11.64,14.29-13.41,17.51s-3.66,4.43-4.54,3.21c-.89-1.22,4.99-9.53,7.87-14.96,2.88-5.43,2.55-7.54.55-9.2-1.99-1.66-6.87,3.1-10.42,9.86s-14.29,21.05-14.29,21.05c0,0-2.33,3.1-5.32.89-4.21-2.99-1.33-13.96-3.1-18.17s-4.76-5.32-7.54-4.88-1.11,13.63-1.99,19.06c-.89,5.43-2.99,13.74-1.44,25.6s12.74,16.62,13.3,16.73l18.17,1.44s11.75-16.4,15.51-19.72c3.77-3.32,10.97-14.52,12.85-19.72s.22-4.32-1.44-5.32c-1.66-1-10.31,14.63-11.41,14.74s-1.55-1.77-1.55-1.77l12.96-18.73c0-.22,2.88-3.55,2.44-6.21Z"/>
    <path class="cls-34" d="M836.62,210.74c3.44,1.22,6.43,3.44,8.53,6.54,1.44,2.33,1.66,3.88,1.99,3.88l.44,5.43c-1.88-6.32-5.65-11.97-10.97-15.85Z"/>
    <path class="cls-18" d="M599.01,224.04c-3.88-1.66-8.86-1.11-12.63.89-9.97,4.99-10.42,5.65-24.49,22.27-16.4,19.39-47.39,56.73-66.23,73.8l32.14,52.3s43.66-9.09,72.25-70.48c18.62-39.45,10.6-73.69-1.03-78.78Z"/>
    <path class="cls-18" d="M539.87,368.86s2.44-16.62-8.31-44.77c-6.76-17.73-26.04-49.87-34.57-63.72-22.05-35.9-21.61-38.67-21.61-38.67l-31.03,15.07s14.63,60.84,36.57,104.05c24.93,48.87,58.95,28.04,58.95,28.04Z"/>
    <path class="cls-18" d="M696.54,208.55c-10.53,10.31-15.16,54.05-7.41,64.46,3.77,7.09,9.09,17.62,14.41,23.71,23.16,28.04,47.32,55.96,60.95,67.26,24.6,20.5,46.76,15.29,57.4,5.87,10.64-9.42,33.46-115.24,33.46-115.24l-30.69-16.29-33.24,71.58s-25.26-59.48-36.24-72.77c-10.97-13.3-58.64-28.59-58.64-28.59Z"/>
    <path class="cls-8" d="M684.66,153.53c.88-2.87,1.87-5.74,3.25-8.42.64-1.25,1.38-2.54,2.42-3.51.27-.25.47-.41.77-.57-.09.05.05-.02.08-.04.07-.03-.08.05,0,0,.02-.01.04-.02.06-.02-.2.05.16,0-.07.02.09,0,.04,0,0,0,.1,0-.07,0,0,0-.17-.02-.06,0,.03.06.44.29.83.65,1.19,1.03,1.84,1.95,2.52,4.63,2.24,7.25,0,.08.7.01.72-.19.26-2.51-.34-5.04-1.99-6.98-.4-.47-.86-.91-1.37-1.28-.16-.11-.27-.19-.46-.18-.55.04-1.08.33-1.51.66-1,.77-1.72,1.91-2.34,2.99-1.66,2.9-2.75,6.12-3.72,9.3-.04.12.66.04.71-.13h0Z"/>
    <path class="cls-8" d="M685.57,155.18c1.94-.29,1.93,2.02,1.87,3.34-.04.83-.14,1.67-.11,2.5.02.51.12,1.29.72,1.45.81.22,1.4-.53,1.68-1.16.55-1.24.77-2.65.94-3.98.12-.93.28-1.9.18-2.84-.07-.66-.19-1.32-.35-1.97-.5-2-1.54-4.25-3.73-4.78-.15-.04-.37.03-.51.1-.06.03-.25.13-.09.17,1.89.47,2.89,2.35,3.42,4.07.38,1.23.6,2.47.51,3.75-.11,1.54-.3,3.1-.73,4.59-.14.49-.31.99-.57,1.43-.08.14-.2.24-.29.37,0,.01-.06.03-.06.05-.06.12.23-.11.26-.06-.01-.02-.13-.05-.16-.07-.51-.31-.5-1.11-.51-1.63,0-.82.09-1.64.12-2.46s.06-1.74-.36-2.45c-.45-.76-1.32-.8-2.1-.68-.08.01-.42.08-.43.19,0,.12.22.07.29.06h0Z"/>
    <path class="cls-31" d="M247.1,229.54c-4.51.18-14.27,3.05-16.09,4.77,0,0,4.92,7.24,15.28,6.85,10.36-.38,12.12-8.31,12.12-8.31,0,0-5.57-3.53-11.32-3.31Z"/>
    <path class="cls-26" d="M235.09,232.31s5.75-.59,10.27-.77,10.34.09,10.34.09c0,0,.57-2.91-7.69-2.72s-12.92,3.4-12.92,3.4Z"/>
    <path class="cls-39" d="M246.1,239.88c-4.9-.41-9.63-6.41-15.28-5.9,0,0,3.51,10.4,15.72,9.91,12.21-.49,11.88-11.03,11.88-11.03-5.74.03-7.57,6.2-12.32,7.03Z"/>
    <path class="cls-39" d="M251.85,227c-2.5-.11-4.04.86-5.15.91s-2.77-.79-5.18-.52c-2.31.27-11.99,6.1-10.81,6.72s8.67-3.59,16.2-4.01,10.45,3.51,11.58,2.8-4.34-5.79-6.64-5.89Z"/>
    <path class="cls-9" d="M126.73,480.72c-.51,3.2-.72,6.48-.69,9.71.02,2.51.18,5.06.81,7.5.47,1.83,1.27,3.89,2.84,5.07,1.89,1.42,4.77,1.73,7.03,2.08,4.14.63,8.32.94,12.5,1.16,9.7.51,19.44.52,29.15.15,3.47-.13,6.97-.28,10.42-.69,2.52-.3,4.61-.74,6.4-2.7,3.01-3.31,5.07-7.56,7.05-11.53,1.67-3.36,3.23-6.78,4.7-10.23.08-.2.17-.4.25-.6.57-1.38-2.32-1.12-2.72-.15-2.74,6.62-5.75,13.37-9.71,19.35-.82,1.24-1.87,2.74-2.96,3.54-.33.25-.06.06-.34.18.45-.2.1-.03-.12.02-.16.04-.33.07-.49.11.44-.09-.24.04-.41.07-2.94.46-5.94.6-8.92.75-9.09.45-18.22.45-27.31.12-4.31-.16-8.63-.4-12.92-.88-1.63-.18-3.26-.4-4.88-.72-1.06-.21-2.5-.55-3.28-.88-.37-.15-.74-.33-1.06-.57-.01-.01.11.09-.07-.07-.15-.14-.29-.29-.42-.44-.32-.37-.6-.79-.83-1.23-1.07-2-1.43-4.4-1.63-6.63-.36-3.99-.1-8.07.43-12.04.03-.25.07-.51.11-.76.2-1.24-2.74-.77-2.91.32h0Z"/>
    <path class="cls-20" d="M263.8,245.63c-.58,4.21,4.91,14.54,4.91,14.54,0,0-2.46,26.33-1.79,31.89.16,1.37,6.62,6.51,7.98,10.29,4.15,11.52,2.98,23.03,2.98,23.03l22.15-14.04-4.76-15.45,4.07-27.29,1.05-26.21-14.28-17.39c-.14.06-.28.14-.4.22-1.16.79-1.47,2.37-.68,3.53l-5.64-6.03c-4.84,2.8.56,12.52.56,12.52l-6.7-8.41c-4.29,3.38-.5,10.31-.5,10.31l6.4,12.5s-.38,8.16-1.27,10.79c-.89,2.63-1.58,5.43-1.58,5.43l-.95-9.18-8.83-16.72s-2.16,1.49-2.73,5.7Z"/>
    <path class="cls-34" d="M287.64,247.66c-.26,4.24-.46,8.08-.53,10.86,0,.23-.01.46-.02.67.24-.06.47-.13.71-.2.01-.14.03-.28.04-.43.27-2.78.57-6.6.84-10.84l.08-1.17.02-.18-.11-.16c-2.31-3.24-4.43-6.11-5.99-8.12-1.56-2-2.56-3.24-2.68-3.15.56,1.26,1.26,2.46,2.1,3.56,1.34,2.1,3.36,4.99,5.62,8.18,0,.32-.03.64-.07.96Z"/>
    <path class="cls-34" d="M294.87,251.5c.26-2.54.55-6.09.83-10.06l.02-.2-.13-.16-.79-.99c-2.69-3.32-5.16-6.29-6.99-8.42-1.83-2.12-3.02-3.38-3.14-3.29s.87,1.52,2.55,3.76c1.69,2.24,4.1,5.24,6.76,8.6l.8.99-.12-.37c-.25,4.03-.42,7.53-.49,10.1-.14,1.38-.11,2.76.08,4.13.14,0,.36-1.56.61-4.1Z"/>
    <path class="cls-20" d="M277.22,300.09c2.65-.69,5.03-1.74,7.38-2.93,3.48-1.76,5.19-5.51,9.42-6.27l21.06,51.35c5.85,10.71,12.68,32.35,13.85,38.72,1.22,6.63-.89,18.18-2.69,24.11-2.85,9.37-9.72,12.36-15.32,11.47-14.6-2.32-18.68-13.47-18.68-13.47,0,0-1.24,1.12-8.03-33.83l-9.73-69.53c.85-.16,1.91.59,2.74.37Z"/>
    <path class="cls-20" d="M211.63,249.07c.55,4.21-5.01,14.5-5.01,14.5,0,0,4.05,26.64,3.35,32.19-.17,1.37-7.14,5.82-8.52,9.59-4.22,11.49-5.36,23.36-5.36,23.36l-21.54-16.31,5.28-13.29-3.89-27.32-.88-26.22,14.39-17.3c.14.06.27.14.4.23,1.16.79,1.45,2.38.66,3.53l5.68-6c4.82,2.83-.64,12.52-.64,12.52l6.75-8.37c4.26,3.41.43,10.31.43,10.31l-6.48,12.46s.33,8.16,1.2,10.79c.87,2.63,1.55,5.44,1.55,5.44l1.01-9.17,8.94-16.67s2.15,1.51,2.69,5.72Z"/>
    <path class="cls-42" d="M186.21,232.95c1.27-1.53,2.54-3.05,3.81-4.58l-.58.1c1.35.68,1.81,2.24.99,3.52-.22.34.49.3.65.14,1.89-2,3.78-4,5.68-6l-.58.1c1.9,1.15,2.08,3.44,1.77,5.45s-1.02,3.86-1.87,5.64c-.19.4-.39.8-.61,1.19-.19.34.5.32.65.14,1.96-2.43,3.93-4.87,5.89-7.3.29-.35.57-.71.86-1.06l-.58.1c2.89,2.38,2.03,6.6.62,9.56-.69,1.46-1.49,2.87-2.23,4.31-1.33,2.56-2.66,5.12-4,7.68-.2.39-.52.79-.52,1.23,0,1.3.14,2.63.24,3.93.15,2,.3,4.04.75,6,.29,1.25.75,2.47,1.1,3.71.23.82.45,1.64.65,2.46.07.31.7.14.73-.13.22-1.96.43-3.91.65-5.87l.33-3c0-.08,0-.17.03-.25.02-.1-.03.07,0,0,.05-.14.14-.27.21-.4,2.16-4.03,4.32-8.06,6.48-12.09.74-1.39,1.49-2.77,2.23-4.16l-.63.17c.99.71,1.64,2.03,2.03,3.14.68,1.91.72,3.69.24,5.63-.86,3.52-2.45,6.9-4.08,10.12-.21.41-.6.88-.56,1.35.06.78.25,1.58.37,2.36.5,3.15.99,6.31,1.49,9.46.36,2.27.72,4.55,1.08,6.82.05.32.78.14.72-.19-.82-5.18-1.63-10.37-2.45-15.55l-.45-2.85c-.02-.1-.03-.2-.05-.29-.02-.15,0,.01-.02.04.12-.27.28-.54.42-.8,1.62-3.16,3.15-6.45,4.1-9.88.25-.91.47-1.84.53-2.79.08-1.17-.18-2.36-.55-3.47-.42-1.26-1.13-2.72-2.25-3.51-.19-.13-.52-.02-.63.17-1.85,3.45-3.7,6.9-5.55,10.35-1,1.86-2,3.73-3,5.59-.14.26-.34.53-.41.82-.19.72-.17,1.56-.25,2.3-.25,2.28-.5,4.57-.76,6.85l.73-.13c-.47-1.95-1.12-3.85-1.65-5.78-.45-1.65-.59-3.4-.74-5.09-.14-1.58-.25-3.16-.32-4.74,0-.15-.03-.31-.02-.46s-.03.01,0-.05c.07-.24.25-.48.37-.71,2.09-4.02,4.28-8,6.27-12.06,1.56-3.19,2.43-7.65-.67-10.21-.15-.12-.47-.03-.58.1-1.96,2.43-3.93,4.87-5.89,7.3-.29.35-.57.71-.86,1.06l.65.14c.65-1.16,1.18-2.39,1.63-3.64.72-2,1.35-4.31.86-6.44-.26-1.13-.92-2.08-1.91-2.69-.18-.11-.44-.04-.58.1-1.89,2-3.78,4-5.68,6l.65.14c.92-1.43.39-3.24-1.12-4-.18-.09-.45-.06-.58.1-1.27,1.53-2.54,3.05-3.81,4.58-.29.35.4.44.6.2h0Z"/>
    <path class="cls-34" d="M192.82,241.43c-1.57,1.99-3.71,4.86-6.04,8.08l-.11.15.02.18.07,1.17c.24,4.23.52,8.06.77,10.84.04.44.08.86.12,1.24.21.04.43.07.64.11,0-.43-.01-.9-.02-1.4-.06-2.78-.23-6.62-.46-10.86-.04-.32-.06-.65-.06-.96,2.28-3.17,4.31-6.05,5.67-8.14.85-1.09,1.56-2.28,2.12-3.54-.11-.09-1.12,1.14-2.7,3.13Z"/>
    <path class="cls-34" d="M180.53,254.74c-.24-2.54-.51-6.09-.76-10.06l-.02-.2.13-.16.79-.98c2.71-3.3,5.2-6.26,7.05-8.37s3.05-3.36,3.16-3.27-.88,1.52-2.58,3.75c-1.7,2.23-4.14,5.22-6.81,8.56l-.8.98.12-.37c.22,4.03.37,7.54.42,10.1.13,1.38.09,2.76-.11,4.13-.14,0-.35-1.56-.59-4.1Z"/>
    <path class="cls-20" d="M142.86,376.53l23.62-46.36,12.2-27.76c9.6,1.88,11.1,3.1,20.26,6.45-5.32,31.77-11.32,76.64-17.71,87.88-9.6,16.88-31.22,43.15-50.9,22.4-6.29-6.62-9.2-34.34-8.16-45.13"/>
    <path class="cls-34" d="M140.56,377.81c-2.1,1.76-3.63,4.18-4.87,6.59-1.58,3.08-2.73,6.42-3.34,9.83-.34,1.87-.5,3.78-.43,5.68,0,.11.73,0,.72-.19-.13-3.43.5-6.86,1.55-10.12.98-3.02,2.32-5.96,4.13-8.57.83-1.2,1.77-2.35,2.89-3.29.13-.11-.12-.11-.17-.11-.15,0-.37.07-.49.17h0Z"/>
    <path class="cls-42" d="M237.72,184.65c1.57.6,3.45-.1,4.42-1.43,1.05-1.44,1.07-3.38.39-4.98-.41-.95-1.03-1.8-1.75-2.54-.22-.22-.9.07-.67.31,1.13,1.15,2.04,2.61,2.15,4.25.09,1.48-.51,3.1-1.91,3.79-.69.34-1.48.41-2.2.13-.29-.11-.85.3-.43.46h0Z"/>
    <path class="cls-43" d="M745.28,343.3c-3.83-6.85-7.65-13.7-11.48-20.55-3.65-6.53-7.41-13-10.83-19.65-5.93-11.53-10.59-24.43-7.68-37.51,1.42-6.4,4.62-12.35,9.8-16.46.65-.51-.79-.55-1.17-.25-9.24,7.32-12.17,19.99-10.62,31.25,2,14.45,10.25,27.28,17.23,39.76,4.43,7.93,8.86,15.86,13.29,23.79.28.5,1.68.02,1.45-.39h0Z"/>
    <path class="cls-43" d="M573.9,341.81c-.55-17.17-1.09-34.34-1.64-51.51-.16-4.89-.31-9.79-.47-14.68,0-.29-1.46-.05-1.45.39.55,17.17,1.09,34.34,1.64,51.51.16,4.89.31,9.79.47,14.68,0,.29,1.46.05,1.45-.39h0Z"/>
    <path class="cls-43" d="M518.67,296.84c7.38,10.91,10.52,24.4,8.72,37.45-.09.64,1.38.4,1.46-.15,1.82-13.21-1.36-26.84-8.84-37.89-.31-.46-1.71.05-1.34.6h0Z"/>
    <path class="cls-43" d="M792.1,309.06c-4.74,11.22-6.64,23.46-5.52,35.6.06.6,1.51.27,1.45-.39-1.1-11.94.78-24.04,5.45-35.08.31-.73-1.14-.67-1.37-.12h0Z"/>
  </g>
</svg>