<?xml version="1.0" encoding="UTF-8"?>
<svg xmlns="http://www.w3.org/2000/svg" xmlns:xlink="http://www.w3.org/1999/xlink" viewBox="0 0 1334 1000">
  <defs>
    <style>
      .cls-1 {
        fill: #3c5c2c;
      }

      .cls-2 {
        fill: #24120e;
      }

      .cls-3 {
        fill: #bc9a7a;
      }

      .cls-4 {
        fill: #476c34;
      }

      .cls-5 {
        fill: #010101;
      }

      .cls-6 {
        fill: url(#linear-gradient-3);
      }

      .cls-7 {
        fill: url(#linear-gradient-2);
      }

      .cls-8 {
        fill: #755346;
      }

      .cls-9 {
        fill: #a63d2e;
      }

      .cls-10 {
        fill: #0e1011;
      }

      .cls-11 {
        fill: #dc9c34;
      }

      .cls-12 {
        stroke: #181614;
        stroke-width: .32px;
      }

      .cls-12, .cls-13, .cls-14, .cls-15, .cls-16, .cls-17, .cls-18 {
        stroke-miterlimit: 10;
      }

      .cls-19 {
        fill: #7bbece;
      }

      .cls-20 {
        fill: #6c916a;
      }

      .cls-21 {
        fill: url(#linear-gradient);
      }

      .cls-13 {
        stroke-width: .71px;
      }

      .cls-13, .cls-14 {
        stroke: #020202;
      }

      .cls-13, .cls-14, .cls-15, .cls-16, .cls-17 {
        fill: none;
      }

      .cls-14 {
        stroke-width: .76px;
      }

      .cls-22 {
        fill: #f1eef7;
      }

      .cls-15 {
        stroke: #4f2f26;
      }

      .cls-23 {
        fill: #121719;
      }

      .cls-24 {
        fill: #3a803d;
      }

      .cls-25 {
        fill: #a66e53;
      }

      .cls-26 {
        fill: #283544;
      }

      .cls-27 {
        fill: #eae8ce;
      }

      .cls-28 {
        fill: #28343a;
      }

      .cls-29 {
        fill: #0d0d0c;
      }

      .cls-30 {
        fill: #ce8d2a;
      }

      .cls-31 {
        fill: #141819;
      }

      .cls-32 {
        fill: #a77055;
      }

      .cls-33 {
        fill: #020202;
      }

      .cls-34 {
        fill: #575454;
      }

      .cls-35, .cls-18 {
        fill: #fff;
      }

      .cls-16 {
        stroke: #08222f;
      }

      .cls-36 {
        fill: #20495b;
      }

      .cls-17 {
        stroke: #5e6162;
        stroke-width: .54px;
      }

      .cls-37 {
        fill: #a66f54;
      }

      .cls-38 {
        fill: #5e1a15;
      }

      .cls-39 {
        fill: #383938;
      }

      .cls-40 {
        fill: #528293;
      }

      .cls-41 {
        fill: #354c24;
      }

      .cls-42 {
        fill: #5e6162;
      }

      .cls-43 {
        fill: #251911;
      }

      .cls-44 {
        fill: #4f2f26;
      }

      .cls-45 {
        fill: #2e3928;
      }

      .cls-46 {
        fill: #545555;
      }

      .cls-47 {
        fill: #f2ebd1;
      }

      .cls-48 {
        fill: #475c66;
      }

      .cls-49 {
        fill: #311811;
      }

      .cls-50 {
        fill: #523936;
      }

      .cls-51 {
        fill: #143642;
      }

      .cls-18 {
        stroke: #231f20;
        stroke-width: .25px;
      }

      .cls-52 {
        fill: #653d2a;
      }

      .cls-53 {
        fill: #794e1f;
      }

      .cls-54 {
        fill: #384536;
      }

      .cls-55 {
        fill: #4f2e25;
      }

      .cls-56 {
        fill: #7d7f83;
      }

      .cls-57 {
        fill: #8e6e55;
      }
    </style>
    <linearGradient id="linear-gradient" x1="645.98" y1="773.67" x2="691.3" y2="-302.42" gradientUnits="userSpaceOnUse">
      <stop offset=".29" stop-color="#bbe5f5"/>
      <stop offset=".81" stop-color="#76c7db"/>
    </linearGradient>
    <linearGradient id="linear-gradient-2" x1="645.4" y1="1063.84" x2="669.93" y2="481.41" gradientUnits="userSpaceOnUse">
      <stop offset=".01" stop-color="#769a3e"/>
      <stop offset=".98" stop-color="#496b33"/>
    </linearGradient>
    <linearGradient id="linear-gradient-3" x1="1154.45" y1="363.98" x2="1164.95" y2="455.67" gradientTransform="translate(0 568.03) scale(1 -1)" gradientUnits="userSpaceOnUse">
      <stop offset=".16" stop-color="#a66f54"/>
      <stop offset=".53" stop-color="#a66f54"/>
      <stop offset=".62" stop-color="#7d533f"/>
      <stop offset=".75" stop-color="#483024"/>
      <stop offset=".86" stop-color="#211611"/>
      <stop offset=".94" stop-color="#0c0b0a"/>
      <stop offset=".99" stop-color="#010101"/>
    </linearGradient>
  </defs>
  <g id="Layer_1" data-name="Layer 1">
    <rect class="cls-21" x="-13.81" y="-137.04" width="1360.53" height="849.12"/>
    <polygon id="City_02" class="cls-19" points="733.19 158.46 733.19 210.15 713.95 210.15 713.95 86.7 636.64 101.19 636.64 181.07 579.47 181.7 579.59 163.4 579.59 97.22 530.78 119.28 530.78 165.85 486.14 165.85 486.14 118.05 462.43 103.35 440.11 115.6 440.11 203.83 389.9 203.83 389.9 146.74 332.71 146.74 332.71 101.65 283.08 100.68 282.5 187.41 228.12 186.58 225.31 103.21 170.87 119.18 169.51 165.85 136.03 142.65 136.04 79.95 73.27 106.91 73.27 174.43 43.98 174.43 42.58 134.99 2.13 134.99 2.13 198.22 -34.17 198.09 -34.13 124.18 -57.84 109.47 -56.45 59.22 -106.66 32.19 -99.25 591.98 620.36 556.76 810.01 531.44 810.01 200.55 733.19 158.46"/>
    <path class="cls-4" d="M939.39,588.28c8.4-9.09,17.31-19.37,17.56-31.75.25-12.38-14-24.74-24.32-17.9,2.99-7.44.19-16.77-6.41-21.33-6.6-4.56-16.32-3.87-22.22,1.56-3.34-17.96-30.78-25.04-42.4-10.94,1.09-7.01-8.81-11.72-14.98-8.21-6.16,3.51-8.28,11.53-7.78,18.6-4.03-8.28-13.5-13.57-22.67-12.67-9.17.9-17.42,7.94-19.76,16.85-.88-7.84-2.17-16.47-8.22-21.53-6.05-5.06-18.08-2.2-17.92,5.69,1.81-11.14-4.39-23.11-14.54-28.05-10.15-4.94-23.4-2.44-31.05,5.85-1.48-10.92-5.57-22.3-14.62-28.57-9.06-6.27-23.89-4.63-28.5,5.37-5.21-8.53-13.58-16.34-23.58-16.34-10,0-19.29,11.87-13.87,20.27-7.39-12.34-30.45-7.48-32.22,6.8-5.32-8.25-16.4-12.26-25.77-9.33-9.37,2.93-16.19,12.54-15.86,22.35-9.31-5.73-22.25-4.81-30.65,2.19-8.41,7-11.66,19.55-7.71,29.75-27.99,2.24-48.44,35.86-37.55,61.74"/>
    <path class="cls-19" d="M1146.52,351.7c-1.32-14.63-2.55-29.27-3.68-43.91-1.13-14.69-2.17-29.39-3.11-44.09-.94-14.64-1.78-29.3-2.53-43.95-.53-10.27-.99-20.54-1.42-30.82l-38.71-.59-2.82-83.37-54.44,15.97-1.36,46.67-33.49-23.2v-62.7s-62.76,26.96-62.76,26.96v67.52h-29.29l-1.39-39.44h-40.45v63.23l-36.3-.13.04-73.91-23.71-14.71,1.39-50.25-50.21-27.04-.48,514.74,387.57,8.36c-.67-6.88-2.22-198.45-2.85-205.34Z"/>
    <path class="cls-19" d="M1129.35,363.47c1.32-14.63,2.55-29.27,3.68-43.91,1.13-14.69,2.17-29.39,3.11-44.09.94-14.64,1.78-29.3,2.53-43.95.53-10.27.99-20.54,1.42-30.82l38.71-.59,2.82-83.37,54.44,15.97,1.36,46.67,33.49-23.2v-62.7s62.76,26.96,62.76,26.96v67.52s29.29,0,29.29,0l1.39-39.44h40.45v63.23s36.3-.13,36.3-.13l-.04-73.91,23.71-14.71-1.39-50.25,50.21-27.04.48,514.74-387.57,8.36c.67-6.88,2.22-198.45,2.85-205.34Z"/>
    <path class="cls-1" d="M1399.51,594.45c9.65-11.84,19.87-25.22,20.04-41.45.16-16.23-16.5-32.58-28.39-23.71,3.4-9.72.05-21.99-7.65-28.03-7.7-6.04-18.97-5.24-25.75,1.82-4.06-23.58-35.95-33.14-49.28-14.78,1.19-9.18-10.34-15.46-17.46-10.92-7.11,4.54-9.48,15.02-8.84,24.31-4.76-10.9-15.8-17.93-26.42-16.84-10.62,1.09-20.12,10.23-22.74,21.89-1.1-10.28-2.69-21.62-9.75-28.31-7.07-6.69-20.99-3.06-20.72,7.27,1.99-14.58-5.33-30.34-17.15-36.93-11.82-6.58-27.16-3.44-35.95,7.35-1.83-14.33-6.68-29.29-17.26-37.6-10.57-8.31-27.75-6.32-33,6.75-6.14-11.24-15.92-21.57-27.52-21.66-11.6-.1-22.25,15.36-15.88,26.43-8.7-16.25-35.39-10.12-37.3,8.58-6.25-10.87-19.15-16.24-29.98-12.5-10.83,3.74-18.65,16.28-18.16,29.14-10.86-7.61-25.85-6.54-35.53,2.55-9.68,9.09-13.32,25.51-8.63,38.92-32.44,2.65-55.81,46.51-42.91,80.56"/>
    <path class="cls-41" d="M704.96,598.61c-7.7-8.33-15.86-17.75-16.09-29.09-.23-11.34,12.83-22.67,22.28-16.4-2.74-6.82-.17-15.37,5.87-19.54,6.05-4.17,14.95-3.55,20.36,1.43,3.06-16.45,28.2-22.94,38.84-10.03-1-6.42,8.08-10.74,13.72-7.52,5.65,3.22,7.58,10.56,7.13,17.04,3.7-7.59,12.37-12.44,20.77-11.61s15.96,7.27,18.1,15.44c.81-7.18,1.99-15.09,7.53-19.73,5.54-4.63,16.56-2.01,16.42,5.21-1.66-10.2,4.02-21.17,13.32-25.7,9.3-4.53,21.44-2.24,28.45,5.36,1.36-10,5.1-20.43,13.4-26.17,8.3-5.75,21.89-4.24,26.11,4.92,4.78-7.82,12.44-14.97,21.61-14.97,9.16,0,17.68,10.87,12.71,18.57,6.77-11.31,27.89-6.85,29.52,6.23,4.87-7.56,15.03-11.23,23.61-8.55,8.58,2.68,14.83,11.49,14.53,20.48,8.53-5.25,20.38-4.41,28.09,2,7.7,6.41,10.68,17.91,7.06,27.26,25.65,2.05,44.38,32.85,34.4,56.57"/>
    <path class="cls-4" d="M308.59,554.55c8.4-9.09,17.31-19.37,17.56-31.75.25-12.38-14-24.74-24.32-17.9,2.99-7.44.19-16.77-6.41-21.33-6.6-4.56-16.32-3.87-22.22,1.56-3.34-17.96-30.78-25.04-42.4-10.94,1.09-7.01-8.81-11.72-14.98-8.21-6.16,3.51-8.28,11.53-7.78,18.6-4.03-8.28-13.5-13.57-22.67-12.67-9.17.9-17.42,7.94-19.76,16.85-.88-7.84-2.17-16.47-8.22-21.53-6.05-5.06-18.08-2.2-17.92,5.69,1.81-11.14-4.39-23.11-14.54-28.05-10.15-4.94-23.4-2.44-31.05,5.85-1.48-10.92-5.57-22.3-14.62-28.57-9.06-6.27-23.89-4.63-28.5,5.37-5.21-8.53-13.58-16.34-23.58-16.34-10,0-19.29,11.87-13.87,20.27-7.39-12.34-30.45-7.48-32.22,6.8-5.32-8.25-16.4-12.26-25.77-9.33-9.37,2.93-16.19,12.54-15.86,22.35-9.31-5.73-22.25-4.81-30.65,2.19-8.41,7-11.66,19.55-7.71,29.75-27.99,2.24-48.44,35.86-37.55,61.74"/>
    <path class="cls-1" d="M668.83,601.12c9.65-11.84,19.87-25.22,20.04-41.45.16-16.23-16.5-32.58-28.39-23.71,3.4-9.72.05-21.99-7.65-28.03-7.7-6.04-18.97-5.24-25.75,1.82-4.06-23.58-35.95-33.14-49.28-14.78,1.19-9.18-10.34-15.46-17.46-10.92-7.11,4.54-9.48,15.02-8.84,24.31-4.76-10.9-15.8-17.93-26.42-16.84s-20.12,10.23-22.74,21.89c-1.1-10.28-2.69-21.62-9.75-28.31-7.07-6.69-20.99-3.06-20.72,7.27,1.99-14.58-5.33-30.34-17.15-36.93-11.82-6.58-27.16-3.44-35.95,7.35-1.83-14.33-6.68-29.29-17.26-37.6-10.57-8.31-27.75-6.32-33,6.75-6.14-11.24-15.92-21.57-27.52-21.66-11.6-.1-22.25,15.36-15.88,26.43-8.7-16.25-35.39-10.12-37.3,8.58-6.25-10.87-19.15-16.24-29.98-12.5-10.83,3.74-18.65,16.28-18.16,29.14-10.86-7.61-25.85-6.54-35.53,2.55-9.68,9.09-13.32,25.51-8.63,38.92-32.44,2.65-55.81,46.51-42.91,80.56"/>
    <path class="cls-41" d="M-103.82,600.6c-7.7-8.33-15.86-17.75-16.09-29.09-.23-11.34,12.83-22.67,22.28-16.4-2.74-6.82-.17-15.37,5.87-19.54,6.05-4.17,14.95-3.55,20.36,1.43,3.06-16.45,28.2-22.94,38.84-10.03-1-6.42,8.08-10.74,13.72-7.52,5.65,3.22,7.58,10.56,7.13,17.04,3.7-7.59,12.37-12.44,20.77-11.61,8.4.83,15.96,7.27,18.1,15.44.81-7.18,1.99-15.09,7.53-19.73,5.54-4.63,16.56-2.01,16.42,5.21-1.66-10.2,4.02-21.17,13.32-25.7,9.3-4.53,21.44-2.24,28.45,5.36,1.36-10,5.1-20.43,13.4-26.17,8.3-5.75,21.89-4.24,26.11,4.92,4.78-7.82,12.44-14.97,21.61-14.97,9.16,0,17.68,10.87,12.71,18.57,6.77-11.31,27.89-6.85,29.52,6.23,4.87-7.56,15.03-11.23,23.61-8.55,8.58,2.68,14.83,11.49,14.53,20.48,8.53-5.25,20.38-4.41,28.09,2,7.7,6.41,10.68,17.91,7.06,27.26,25.65,2.05,44.38,32.85,34.4,56.57"/>
    <path class="cls-7" d="M-33.85,1016.94l1380.57,5.83,1.69-438.21-593.51-5.7c-46.65-1.98-742.11-.06-788.75,1.98v436.1Z"/>
  </g>
  <g id="Layer_4" data-name="Layer 4">
    <path d="M175.2,248.16c-4.14-4.4-3.93-11.31.47-15.45,1.99-1.87,4.61-2.93,7.34-2.97-2.12-6.25,1.23-13.03,7.49-15.15,2-.68,4.14-.81,6.2-.39-.51-4.85,3.02-9.2,7.87-9.7,2.37-.25,4.75.48,6.58,2,.16-.17.32-.35.49-.51,4.96-4.85,12.91-4.77,17.76.18,0,0,0,0,0,0,4.94-1.91,10.52.2,12.97,4.9l25.82,75.5c-2.82,7.52-9.91,12.6-17.94,12.87-4.53,8.15-14.71,11.24-23.01,6.98-2.32,5.04-8.28,7.24-13.32,4.92-1.68-.77-3.11-2-4.14-3.53-.87.23-1.75.42-2.68.57.72-2.88-1.01-6.48-4.85-6.17s-7.96-2.89-8.73-6.69c-.54-2.57-3.97-3.7-6.16-2.92-.3.11-.6.25-.87.42.24-.93.64-1.81,1.16-2.62-.13-.04-.26-.08-.38-.13-7.69-2.7-11.74-11.11-9.04-18.8,0,0,0-.01,0-.02-.49-.33-.96-.69-1.41-1.08-6.58-5.66-7.32-15.58-1.67-22.16.01-.02.03-.03.04-.05Z"/>
    <path class="cls-32" d="M259.56,323.55c-.46-1.48-.06-15.46-.06-15.46l-23.26,3.58-25.55-21.47s7.11,25,2.52,35.57c-.62,1.42-20.03,9.17-20.03,9.17,17.46,6.52,35.93,9.91,54.57,10.03,30.21,0,31.3-9.69,31.3-9.69,0,0-19.02-10.25-19.48-11.72Z"/>
    <ellipse cx="263.19" cy="213.49" rx="6.42" ry="7.01" transform="translate(-71.48 160.2) rotate(-30)"/>
    <circle cx="276.96" cy="227.78" r="4.57"/>
    <ellipse cx="243.28" cy="203.98" rx="8.55" ry="4.57" transform="translate(-34.02 49.39) rotate(-10.84)"/>
    <circle class="cls-5" cx="226.04" cy="204.83" r="4.57"/>
    <circle cx="282.99" cy="245.95" r="4.57"/>
    <ellipse cx="215.58" cy="205.77" rx="8.7" ry="5.94" transform="translate(-34.85 44.22) rotate(-10.84)"/>
    <ellipse cx="205.77" cy="302.9" rx="8" ry="6.57"/>
    <ellipse cx="194.5" cy="294.67" rx="7.57" ry="8.81" transform="translate(-151.4 223.84) rotate(-45)"/>
    <path d="M275.91,278.45c5.1-2.41,7.74-8.13,6.28-13.58,5.56-4.91,6.42-13.27,1.96-19.2-.15-.19-.31-.38-.46-.57,3.55-3.8,3.59-9.68.1-13.53-1.68-1.79-4.04-2.78-6.49-2.71,1.98-6.87-1.64-14.03-8.09-15.99-2.07-.63-4.27-.66-6.35-.1.54-6.52-3.99-12.17-10.13-12.61-2.86-.19-5.68.75-7.86,2.62-5.75-6.29-15.52-6.73-21.82-.98-.31.28-.61.58-.9.89-.44.45-.85.93-1.24,1.42-7.56-3.56-16.53.09-20.08,8.16-.06.14-.11.28-.17.41-4.82-4.05-12.63-1.75-16.45,3.56s-4.42,12.42-3.49,18.92c-5.04,3.11-6.84,9.57-4.14,14.84.87,1.69,2.19,3.11,3.81,4.1-5.15,8.6-3.01,19.86,4.84,25.42-.54,8.73,3.92,16.78,11.3,20.46"/>
    <path class="cls-37" d="M259.95,227.05l.22.12c-.09-.09-.17-.19-.24-.3l.02.17ZM267.97,227.93c.12.1.26.18.4.28v-.21s-.42-.27-.4-.1v.03ZM225.27,306.97c8.1,6.82,19.92,12.71,28.47,13.09,4.19.19,12.46-.87,16.36-4.25,9.8-8.42,15.83-23.12,13.05-36.44-.52-2.46-2.4-6.98-2.45-9.37-.06-2.78-1.3-16.05-4.57-24.21-3.97-9.92-7.51-14.72-7.51-14.72-.53-1.69,3.87-1.3,2.8-2.62l-.75.06c.26.12.43.37.44.65-.98-.09-1.93-.44-2.74-1h0c-1.07.62-2.25.2-3.26-.58,0,.17.24.51.42.49-1.1.21-2.23-.07-3.1-.77,0,.17.24.5.25.67-.89-.13-1.74-.42-2.51-.87.19.21,4.36-.83,4.36-.71-1.11.27.21.53-.8-.24l-.99-.56c-.93.25-.87.82-1.66.19.21.16-.68-1.85-.67-1.68-1.13.1-.82,0-1.81-.44,0,.17-2.97,1.4-2.96,1.57-.93.08-.61.93-1.42.3.2.16.61-.78.82-.63-1.12.28-1.48,1.04-2.49.26.2.16-3.88-1.56-3.88-1.56-1.11.28-.87.61-1.89,0,.4.31-5.24.15-5.01.47-.94.09,2.09,3.28,1.3,2.84-.75-.02-1.49-.13-2.21-.32-.93.25.57.99-.24.37,0,.17.24.67.44.65-1.16.54-2.52.47-3.61-.2.4.31.62.65.87.8-.94.08-1.68.32-2.68-.29,0,.17.44.65.63.65-.98.41-2.08.38-3.04-.08,0,.17.43.48.63.64-.75.29-1.58.24-2.29-.14l.63.64c-.79.25-1.62.32-2.44.22,0,.17.41.31.43.48-.63.09-1.27.09-1.89,0,0,.17.6.46.42.48-.75.07-1.28.46-2.25.2.2.16.42.49.62.65-.75.17-1.52.17-2.27,0,.07.26.23.49.45.65-.75.07-1.28.46-2.26.2,0,.17.43.49.63.64-.74.16-1.5.23-2.25.21,0,.17.41.31.61.46-.81.17-1.65.17-2.46,0,0,.35.24.51.25.67-.57.05-.95-.09-1.52,0l-.87.43c-2.32,3.68-8.64,11.2-8.64,11.2-5.4,5.18-4.79,13.27-4.31,16.52s5.71,16.01,5.71,16.01c-1.05-1.12-2.13-3.82-2.81-5.15-.67-1.16-1.66-2.44-2.33-3.6-1.94-2.62-5.61-1.41-7.52.51l-.29.59c-2.53,4.16-.79,13.77,5.18,19.75,1.29,7.27,8.95,10.08,10.21,4.53l1.27,2.76"/>
    <path class="cls-33" d="M264.71,286.88c-1.35.74-2.96.8-4.36.17-.29-.13-1.18.11-.78.31,1.91.78,4.08.66,5.89-.32.15-.1.11-.21-.09-.25-.24-.04-.48,0-.69.1"/>
    <path class="cls-33" d="M259.04,287.07c-.88-.28-1.8-.41-2.72-.38-.15,0-.28.07-.39.17-.07.08-.08.17,0,.21.47.19.99.25,1.49.18.17,0,.33-.08.43-.22.07-.12-.09-.19-.21-.17-.4.06-.82,0-1.2-.15l-.38.38c.83-.03,1.65.09,2.44.35.17.04.34,0,.48-.1.1-.06.18-.21,0-.26"/>
    <path class="cls-33" d="M255.41,287.55c-1.09.13-2.19-.23-2.99-.98-.87-1.09-.36-3.15.87-4.03.14-.1.05-.2-.1-.21-.2-.01-.4.05-.56.17-1.09.85-1.63,2.22-1.41,3.59.26,1.01,1.36,1.63,2.67,1.81.4.04.8.04,1.2,0,.17,0,.45-.09.52-.22s-.09-.17-.24-.16"/>
    <path class="cls-33" d="M266.67,286.16c-.04-.07-.02-.15.05-.19.02-.01.04-.02.06-.02.3-.02.59-.14.81-.35l.31.31c-.59.12-1.15.37-1.62.74-.1.07-.24.07-.35,0-.07-.04-.16-.17-.06-.24"/>
    <path class="cls-33" d="M265.79,286.39c.53-.42,1.15-.7,1.82-.83.11-.02.22.02.3.1.06.04.07.13.03.18,0,0-.02.02-.03.03"/>
    <path class="cls-33" d="M268.87,286.08c.81-.12,1.48-.68,1.75-1.45.34-1.22-.12-2.52-1.16-3.24-.1-.08-.06-.18,0-.23.13-.04.28,0,.38.08.88.63,1.4,1.64,1.41,2.71,0,.95-.55,1.82-1.41,2.21-.24.12-.49.2-.75.24-.11,0-.31,0-.37-.13s0-.18.12-.19"/>
    <path class="cls-5" d="M208.34,282.33c-1.23-2.16-2.66-4.21-4.27-6.11-.82-.99-1.79-1.86-2.87-2.57-.46-.32-.98-.53-1.54-.61-.53-.05-.71.33-.87.78-.76,2.17-.7,4.54.16,6.67.09.24.72.07.64-.17-.64-1.67-.83-3.47-.54-5.24.09-.64.31-1.26.65-1.82l-.33.18s-.08,0,0,0h.21c.35.1.68.24,1,.43,1.53,1,2.85,2.28,3.9,3.78,1.2,1.57,2.29,3.21,3.28,4.91.11.21.73,0,.58-.26v.03Z"/>
    <path d="M281.56,254c-4.23-1.99-7.08-2.4-14.76-2.39l-.04.16-.34,1.4-.53,2.22c2.51-.04,4.38-.26,5.97-.18,3.02.21,6.52.07,9.41,1.16.08-.8.18-1.57.3-2.37Z"/>
    <path d="M247.07,252.62c.38.87.17.4.55,1.33l.87,2.11c-2.62.4-4.62.48-6.27.87-3.27.78-7.17,1.29-10.08,3.04-1.4.87-3.38,2.07-3.92,3.77-.14.45-.17,1.89-.87,1.88-.28,0-.36-1.29-.37-1.43-.15-2.62,1.55-4.43,3.88-6.05,4.76-3.28,7.45-4.22,16.15-5.68"/>
    <path class="cls-30" d="M206.9,294.56c-1.77,1.34-2.12,3.87-.77,5.64.7.92,1.76,1.5,2.92,1.58,1.9.02,3.64-1.09,4.43-2.82.18-.45-.75-.38-.87-.06-.34.91-1.04,1.63-1.93,2.01-.14.06-.29.11-.45.15l-.24.05s-.1,0-.15,0h-.44c-.4-.06-.78-.17-1.15-.33-.4-.19-.77-.46-1.06-.79-.62-.68-.95-1.57-.93-2.49.03-1.09.54-2.12,1.4-2.8.17-.14.07-.33-.1-.39-.24-.05-.48.02-.65.18v.08Z"/>
    <path class="cls-5" d="M208.18,282.4c-.99.1-2.45.42-2.15,1.75.31,1.33,1.16,2.16,1.46,3.35.2.59.1,1.24-.27,1.75-.19.24-.23.22-.54.11-.32-.13-.61-.31-.87-.54-.74-.65-1.33-1.45-1.75-2.35-.32-.69-.43-1.47-.77-2.14-.63-1.26-1.4-3.56.19-4.44.38-.2-.21-.17-.37-.09-1.55.87-1.32,2.62-.75,4.06.1.24.22.48.32.72.1.26.19.52.25.79.31,1.06.82,2.05,1.51,2.91.7.87,2.25,2.13,3.29.99,1.04-1.14.24-2.5-.31-3.55-.36-.58-.63-1.21-.79-1.87-.12-.82.57-1.04,1.26-1.1.17,0,.7-.31.28-.27v-.07Z"/>
    <path d="M273.99,262.83c1-.53,2.21-.42,3.1.28.42.3.74.72.93,1.2.3.89.14,1.87-.44,2.62-.71.87-1.9,1.19-2.95.79-1.28-.52-2.01-1.87-1.75-3.23.13-.67.51-1.27,1.07-1.66"/>
    <path d="M264.57,267.34s5.33-4.97,8.03-5.47c3.94-.75,6.5,1.53,8.08,3.35,0,0-4.63-2.87-7.38-2.26-2.76.61-8.73,4.38-8.73,4.38Z"/>
    <path d="M242.74,266.4c-1.08-.35-2.25-.02-3,.82-.35.38-.6.85-.7,1.35-.15.93.18,1.86.87,2.5.86.73,2.08.83,3.05.25,1.16-.75,1.63-2.21,1.12-3.49-.24-.64-.73-1.16-1.35-1.44"/>
    <path d="M248.9,269.21s-6.11-3.61-9-3.63c-5.29,0-9.89,3.37-11.23,5.45,0,0,7.21-4.6,10.23-4.51,2.88.08,9.99,2.7,9.99,2.7Z"/>
    <path d="M214.29,222.88c.7-.21,1.33-.61,1.81-1.16.3-.66.41-1.39.33-2.11.18-3.11,3.56-4.91,6.51-5.93l8.04-3.07c1.66-3.47,5.42-5.42,9.22-4.77.01-.34.06-.69.13-1.02,1.13-.06,2.25-.11,3.37-.14,4.59-.2,9.18.13,13.69,1-1.7,1.45-3.88,2.22-6.11,2.18.52,4.78-1.7,9.45-5.73,12.05-.03,2.94-.88,5.82-2.47,8.29-.99,1.79-2.66,3.1-4.63,3.65-2.06.5-4.13-.72-4.7-2.76-.01,3.75-1.38,7.37-3.85,10.2-2.28,1.95-4.94,3.4-7.81,4.25-1.33.64-2.8.94-4.27.87-3.72-.44-5.37-4.76-6.28-8.39-.71-2.33-1.03-4.76-.94-7.19.13-2.49,1.53-4.74,3.71-5.95Z"/>
    <path d="M245.07,222.52l16.21-8.85c5.36,1.92,10.47,4.43,14.91,8.69,6.11,5.92,7.31,13.28,8,21.94.08,1.24.4,2.44.93,3.56-.18.16-.37.31-.57.45-1.24,1.13-2.92,1.66-4.58,1.45-1.38-.37-2.57-1.27-3.3-2.5-1.21-1.97-1.69-4.3-1.35-6.58-3.98-1.31-6.97-4.63-7.86-8.73-3.27,1.45-7.1.21-8.89-2.89-1.64,2.14-4.33,3.19-6.98,2.75-4.3-.86-7.17-4.95-6.52-9.29Z"/>
    <path d="M222.62,245.13c.12,3.02-2.22,5.57-5.24,5.71,1.84,4.36.58,14.62-7.47,15.22-8.31.29-14.24.47-21.74-3.59-1.38-.75-2.66-1.67-3.81-2.75-.03-1.06.15-2.12.53-3.11,1.19-2.88,2.56-5.68,4.1-8.4.33-.56.46-1.22.38-1.87-.3-.72-.8-1.35-1.44-1.79-2.74-2.61-2.84-6.94-.23-9.68.9-.95,2.06-1.61,3.33-1.93-1.5-1.47-1.58-3.86-.17-5.43,1.39-1.47,3.01-2.7,4.79-3.67,3.15-2.15,5.74-5.37,9.38-6.38,3.82-1.01,7.86.47,10.13,3.7,2.43-1.14,5.15-1.53,7.8-1.12,2.71.52,4.61,2.98,4.43,5.73l.72.14c.11.39.22.79.3,1.19,1.15,6.12-2.86,12.03-8.97,13.22,1.87.87,3.1,2.71,3.19,4.77Z"/>
    <path d="M212.66,262.57s1.42,12.16-.31,14.88-1.75,2.92-3.54-1.82c-1.29-3.22-2.78-6.36-4.47-9.38l8.33-3.67Z"/>
    <path class="cls-44" d="M259.56,319.77l-.19,2.33s-3.16,2.04-16.45-1.07c-9.43-2.25-14.66-10.11-14.66-10.11,4.9,3.46,10.39,6,16.2,7.49,10.1,2.72,15.08,1.35,15.08,1.35"/>
    <path class="cls-43" d="M263.3,294.15c-4.32.4-13.63,3.91-15.39,5.76,4.13,4.31,9.99,6.51,15.94,5.97,10.02-.93,10.72-8.44,10.72-8.44,0,0-5.76-3.8-11.27-3.29Z"/>
    <path class="cls-35" d="M251.83,297.69s5.12-.87,9.22-1.27,9.28-.45,9.28-.45c0,0,.38-3.11-7.06-2.42-7.45.69-11.44,4.14-11.44,4.14Z"/>
    <path class="cls-52" d="M263.85,305.44c-4.75-.23-10.36-5.66-15.81-4.81,0,0,2.77,10.25,14.56,9.16,11.79-1.09,12.1-11.64,12.1-11.64-5.51.17-6.22,6.19-10.85,7.29Z"/>
    <path class="cls-52" d="M268.21,291.35c-2.5.04-3.98,1.13-5.05,1.23s-2.73-.69-5.24-.28c-2.3.38-11.46,7.66-10.29,8.28s8.25-4.93,15.71-5.63,10.78,4.64,11.81,3.81c1.03-.83-4.61-7.45-6.94-7.41Z"/>
    <path class="cls-2" d="M161.06,894.04s-1.82,1.96-.69,5.31c1.13,3.35,22.45-.42,29.88.3,7.43.72,44.54,3.64,51.77,1.89,7.23-1.76.27-10.03.27-10.03l-81.23,2.53Z"/>
    <path class="cls-25" d="M240.15,865.64c-.41,8.05,2.05,12.75,2.95,16.34,1.03,4.13,2.72,11.27-1.87,13.09-3.86,1.53-9.87,1.6-14.08,1.45-5.5-.2-15.84-1.6-21.35-1.8-4.72-.17-23.86.12-28.48,1-7.18,1.37-11.63.4-14.84-.67-.89-.3-1.44-.24-1.86-.9-1.09-1.7-.98-3.6,1.37-5.08,2.96-1.87,6.58.59,9.33-1.6.49-.39.95-.83,1.51-1.11,1.11-.56,2.46-.45,3.74-.46,6.34-.03,14.18-3.3,22.46-5.52,2.43-.65,20.64-13.57,22.89-14.63"/>
    <path class="cls-55" d="M177.52,886.62c-2.1.61-4.63,1.32-6.27,2.77-1.24-.9-2.87-1.12-4.38-.89,1.47-.34,3.12-.14,4.41.73l-.11.03c.39-.5.94-.72,1.45-.99,1.57-.71,3.19-1.36,4.9-1.64h0Z"/>
    <path class="cls-2" d="M173.88,887.78s8.24-2.74,8.04,8.22l4.91.13s-1.7-10.22-6.3-10.63c-4.6-.42-6.65,2.28-6.65,2.28Z"/>
    <path class="cls-25" d="M182.9,623.86c8.46,2.38,17.59.87,26.35,1.49,14.21,1,21.1.74,35.21-.19-7.06,27.14-9.89,83.43-8.5,95.39,2.12,18.26,20.01,47.32,4.2,149.45l-23.21-.37s-18.78-78.73-28.9-133.76c-4.72-25.66-10.01-75.85-16.29-112.19,6.21,2.55,4.64-1.65,11.15.18Z"/>
    <path class="cls-25" d="M283.99,728.03c-.29-1.34-.52-2.65-.67-3.98-1.39-11.96,1.44-71.74,8.5-98.88-14.11.92-20.99,1.19-35.21.19-8.76-.62-17.89.88-26.35-1.49-6.5-1.83-4.94,2.37-11.15-.18,5.9,34.15,10.93,80.54,15.43,107.3,16.51-1.82,32.93-1.17,49.44-2.96Z"/>
    <path class="cls-25" d="M232.83,722.75c.13.29,4.18,20.73,4.31,21.02,23.26,50.89,53.52,108.09,53.52,108.09l20.48-2.43c-8.26-88.38-19.22-109.8-27.76-124.97-14.3-9.1-34.9-7.55-50.55-1.7Z"/>
    <path class="cls-55" d="M244.79,760.76c-.81-1.07-1.52-2.38-2.15-3.6-1.83-3.5-3.25-7.21-4.42-10.98-2.61-8.45-3.89-17.34-5.23-26.06-3.16-20.52-5.57-41.14-8.38-61.71-1.59-11.64-3.26-23.27-5.27-34.85l-1.32.49c2.06.82,4.02,1.2,6.13.39.78-.3,1.47-.64,2.32-.67,1.84-.06,3.64.7,5.42,1.05,8.1,1.6,16.4.42,24.58.97.34.02,1.66-.58.93-.63-8.24-.55-16.64.7-24.78-1.02-2.51-.53-4.89-1.44-7.45-.67-.7.21-1.35.6-2.06.76-1.29.29-2.73-.31-3.91-.77-.25-.1-1.38.1-1.32.49,3.67,21.1,6.3,42.38,9.08,63.61,1.31,9.98,2.62,19.96,4.11,29.91,1.29,8.61,2.51,17.34,4.74,25.76,1.24,4.69,2.84,9.32,5.03,13.65.76,1.5,1.56,3.03,2.58,4.38.22.29,1.61-.18,1.36-.51h0Z"/>
    <path class="cls-2" d="M326.64,857.66s1.37-.77,4.33,3.69c3.96,5.97-15.31,17.02-20.03,20.63-4.72,3.61-17.55,18.59-28.54,26.14-10.99,7.55-26.75,8.01-30.13,5.18-3.38-2.84-3.04-5.32-1.22-7.79,1.82-2.46,69.84-49.27,69.84-49.27l5.76,1.43Z"/>
    <path class="cls-25" d="M307.69,832.91c2.08,3.98,6.78,8.53,12.7,15.93,2.6,3.26,8.6,6.47,6.53,11.35-3.66,8.63-12.56,11.72-15.06,14.29-5.27,5.39-10.23,8.52-14.95,14.24-4.78,5.8-5.72,7.07-12.08,11.69-.88.64-1.87,1.22-2.92,1.31-.71.06-1.4-.1-2.11-.04-2.5.23-4.06,3.02-6.39,4.11-1.03.48-2.16.6-3.26.82-2.9.59-5.64,1.92-8.44,2.96-2.8,1.05-5.83,1.82-8.61,1.23-2.78-.59-5.16-2.91-4.86-5.7.46-4.22,4.39-4.41,7.25-6.59,2.85-2.18,3.69-3.38,5.59-6.3,4.85-7.44,5.5-8.74,9.71-14.82,3.27-4.72,14.65-20.06,18.21-28.35l-11.28-26.71"/>
    <g>
      <path class="cls-55" d="M280,901.69c-.77.24-1.52-.3-1.98-.88s-.66-1.29-.63-2.02c.07-1.54.94-2.97,1.78-4.22.47-.71.98-1.4,1.47-2.1.07-.1-.06-.17-.15-.18-.12-.01-.26.04-.33.15-.96,1.39-2.03,2.74-2.72,4.3-.62,1.41-.89,3.11.21,4.37.6.7,1.52,1.14,2.44.86.08-.03.24-.1.21-.22s-.21-.11-.29-.08h0Z"/>
      <path class="cls-55" d="M273.28,906.04c-.79.49-1.59-.06-2.13-.66-.62-.68-1.07-1.53-1.34-2.4-.32-1.02-.13-2.08.28-3.05.51-1.22,1.39-2.17,2.14-3.23.74-1.05,1.41-2.38,2.56-3.06.29-.17-.16-.19-.3-.11-1.12.66-1.81,1.84-2.52,2.89-.78,1.15-1.74,2.17-2.32,3.45-.48,1.06-.68,2.22-.32,3.34.31.93.82,1.87,1.53,2.56.76.74,1.79.97,2.72.39.29-.18-.16-.2-.3-.11h0Z"/>
      <path class="cls-55" d="M267.69,907.49c-1.08.25-2.18-.56-2.82-1.36s-.89-1.71-.87-2.68c.03-2.06,1.18-4.03,2.35-5.65.33-.45.67-.89,1.03-1.31.41-.49.8-1,1.27-1.44.09-.08-.08-.1-.12-.1-.11,0-.26.05-.34.12-.44.42-.81.91-1.21,1.37-.36.42-.7.85-1.03,1.3-.66.9-1.27,1.86-1.72,2.89-.84,1.88-1.16,4.15.3,5.81.82.93,1.98,1.49,3.22,1.21.05-.01.26-.08.23-.16-.03-.08-.23-.03-.28-.02h0Z"/>
      <path class="cls-55" d="M262.41,909.5c-1.26.2-2.53-.16-3.55-.92-.93-.69-1.73-1.77-1.74-2.97,0-1.13.47-2.22,1-3.2.6-1.1,1.33-2.12,2.1-3.1.36-.46.73-.9,1.1-1.35.44-.56.86-1.33,1.51-1.68.3-.16.03-.45-.23-.31-.61.33-1.02.94-1.43,1.47-.36.47-.74.92-1.11,1.37-.82,1.03-1.61,2.09-2.26,3.24-.6,1.05-1.16,2.24-1.19,3.47-.03,1.23.66,2.32,1.56,3.1,1.14.98,2.7,1.47,4.19,1.24.28-.04.38-.43.04-.38h0Z"/>
    </g>
    <path class="cls-2" d="M267.88,879.86c-1.65,1.06-2.81,2.74-3.22,4.66l-2.42,11.9,1.72-1.62,5.37-15.88-1.44.93Z"/>
    <path class="cls-2" d="M262.71,896.13s-.33-1.97,2.18-4.08c7.89-6.65,27.34-18.65,37.73-7.5l-2.37,3.23s-10.03-7.09-18.58-2.81c-8.55,4.28-18.96,11.17-18.96,11.17Z"/>
    <path class="cls-9" d="M180.47,342.08c-7.27,6.81-7.3,9.73-11.02,19.91-3.82,10.45-5.84,29.59-8.32,34.87-.7,1.48-2.48,13.5-3.99,18.18,3.32,4.3,2.47,4.31,7.14,6.29,4.19,1.78,8.52,3.42,12.9,4.65.24.07.48.13.72.18,1.42-2.11,2.76-4.28,4-6.5,3.99-7.19,7.03-14.87,9.33-22.75,2.35-8.04,3.95-16.3,5.04-24.6,1.1-8.36,1.7-16.79,2.04-25.22.27-6.99,2.29-10.82,2.31-17.82-6.62,3.03-14.23,7.28-20.14,12.81Z"/>
    <path class="cls-40" d="M207.21,645.75l.28,1.43c1.62.55,8.07.9,9.74,1.3,6.55,1.55,22.63-.13,29.34.32,6.48.43,12.66.33,19.15.35,7.05.02,26.25-3.1,33.16-4.45-.95-18.81-.2-34.58,2.1-44.13,12.3-51.2,3.12-85.64-12.23-107.14l-119.73,10.22-2.15,20.46c-3.88,16.38-3.36,67.2,1.1,117.54.92,2.93,9.82,5.13,12.14,5.16,8.74.13,17.11.19,25.8-.91.12-.01,1.21-.18,1.3-.15"/>
    <path class="cls-26" d="M207.93,645.56c-.75-9.13-.86-18.32-1.1-27.47-.12-4.43-.23-8.87-.43-13.3-.19-4.1-1.52-8.36-3.51-11.94-2.26-4.07-5.72-7.3-10.3-8.47-.37-.09-1.65.49-1.18.61,4.28,1.1,7.58,4.04,9.78,7.81,2.01,3.43,3.45,7.65,3.72,11.63.62,9.05.53,18.16.83,27.22.16,4.77.34,9.54.73,14.29.03.34,1.49.06,1.45-.39h0Z"/>
    <path class="cls-9" d="M170.53,370.61c.43-13.91,4.5-20.47,8.07-25.69,1.98-2.89,4.72-5.18,7.88-6.69,4.57-2.17,9.15-7.23,15.23-9.42,1.13-.41,11.25-3.26,11.15-3.01-3.12,7.23,3.5,13.75,11.52,14.67,2.88.33,5.71.46,8.4.4,9.2-.19,22.27-9.04,27.84-15.94l.98-1.28,1.09.64,22.29,9.72,4.4,140.05-5.78-.64c-15.07,5.65-30.23,11.14-45.85,15.07-18.26,4.6-37.43,7.18-56.16,4.05-4.28-.71-5.67-1.76-9.8-3.09,1.05-4.55,3.04-21.65,3-26.46-.21-26.56.65-27.45-.25-28.55,0,0-3.31-2.51-5.03-10.87"/>
    <path class="cls-9" d="M174.81,463s-7.65,50.62-8.73,59.47c0,0,44.32,11.49,91.05,5.23,46.73-6.26,46.03-10.72,46.03-10.72l-10.34-45.42-1.19-19.95-111.07,6.98"/>
    <path class="cls-38" d="M172.89,369.87c1.56,3.32,2.3,7.88,1.55,11.47-.64,3.06-1.85,6.02-2.8,8.98-2.93,9.1-5.36,18.76-4.37,28.39.6,5.82,2.63,11.35,6.31,15.94.26.32,1.65-.17,1.36-.53-6.8-8.48-7.31-19.69-5.49-30,.8-4.55,2.04-9.01,3.44-13.4.97-3.04,2.15-6.06,2.9-9.16.92-3.79.22-8.56-1.43-12.08-.2-.42-1.61.05-1.45.39h0Z"/>
    <path class="cls-38" d="M261.08,323.65c-4.37,5.9-10.79,10.82-17.44,13.82-6.22,2.8-13.15,3.8-19.88,2.52-4.3-.82-9.05-2.91-10.54-7.38-.86-2.58-.05-4.36.72-6.9.13-.44-.64-.47-.86-.4-1.77.58-3.55,1.15-5.31,1.73-1.35.45-1.68,1.98-1.87,3.29-.86,5.79,3.21,10.91,8.03,13.5,6.34,3.39,14.04,3.6,20.99,2.48,8.17-1.32,16.01-4.59,22.79-9.31,3.23-2.25,6.4-4.67,9.37-7.26.8-.7,1.66-1.4,2.35-2.22.14-.17.21-.47-.04-.59-2.38-1.16-4.77-2.32-7.15-3.48-.53-.26-1.82.47-1.13.81l7.15,3.48-.04-.59c-1.54,1.84-3.65,3.35-5.53,4.82-5.67,4.46-11.57,8.42-18.39,10.91-6.12,2.24-12.78,3.45-19.3,2.9-5.07-.43-10.44-2.04-14.09-5.77-1.83-1.87-3.07-4.21-3.51-6.8-.3-1.75-.24-3.97.81-5.5l-.56.4c1.89-.62,3.78-1.23,5.67-1.85l-.86-.4c-.7,2.32-1.5,4.07-.91,6.46,1.03,4.23,4.88,6.79,8.83,8,12.54,3.86,25.84-1.23,35.37-9.49,2.35-2.04,4.66-4.26,6.52-6.77.54-.73-.83-.89-1.2-.38Z"/>
    <path class="cls-9" d="M285.04,427.2c8.45-.2,16.73.7,24.77-1.85,2.44-.77,10.3-3.35,12.71-4.22-.58-21.97-7.05-46.69-9.07-57.91-4.79-19.98-30.98-29.95-30.98-29.95l-9.81,66.45,1.08,26.81c3.75.52,7.53.76,11.31.67Z"/>
    <path class="cls-38" d="M287.93,352.25c-4.74.56-8.26,3.83-10.71,7.73-2.94,4.66-4.69,10.2-6.14,15.48-2.78,10.14-3.16,20.53-2.46,30.97.45,6.65,1.21,13.29,1.84,19.92.02.2.31.3.47.31l5.44.39c.68.05,1.49-.94.51-1.01l-5.44-.39.47.31c-1-10.49-2.42-21.02-2.14-31.58.27-10.34,2.46-20.74,6.68-30.2,2.14-4.79,5.66-10.24,11.34-10.91.79-.09,1.13-1.13.14-1.02h0Z"/>
    <path class="cls-25" d="M213.85,321.04c-.1,3.69-6.28,11.79-6.28,11.79,0,0-1.61,22.97-2.97,27.64-.34,1.15-6.61,4.66-8.31,7.71-5.19,9.31-5.82,19.36-5.82,19.36l-17.04-15.19,6.27-12.6.37-24.02,2.81-22.66,14.73-12.92c.11.07.22.16.31.25.89.84.92,2.24.08,3.13l5.7-4.38c3.76,3.09-2.25,10.68-2.25,10.68l6.94-6.28c3.2,3.51-1.03,8.92-1.03,8.92l-7.27,9.83s-.83,7.06-.44,9.44c.39,2.38.59,4.89.59,4.89l2.12-7.75,9.95-13.11s1.64,1.59,1.54,5.28Z"/>
    <path class="cls-44" d="M193.09,319.41c-.37,3.68-.75,7-1.08,9.41-.03.2-.05.39-.08.58-.2-.09-.39-.18-.58-.27,0-.12.02-.24.02-.37.17-2.43.44-5.75.82-9.43l.1-1.01v-.16s.13-.12.13-.12c2.44-2.45,4.67-4.63,6.29-6.12s2.66-2.42,2.74-2.32c-.66,1.01-1.43,1.93-2.31,2.76-1.45,1.61-3.59,3.81-5.98,6.23-.04.27-.06.55-.08.84Z"/>
    <path class="cls-44" d="M186.33,321.69c.14-2.22.39-5.31.71-8.75v-.18s.15-.12.15-.12l.82-.74c2.78-2.47,5.32-4.67,7.2-6.24,1.87-1.57,3.08-2.48,3.16-2.38s-.96,1.19-2.73,2.87c-1.77,1.68-4.27,3.92-7.02,6.43l-.82.74.15-.3c-.36,3.5-.71,6.53-1.01,8.74-.08,1.2-.3,2.39-.66,3.54-.12-.01-.08-1.39.05-3.61Z"/>
    <path class="cls-25" d="M194.59,366.29c-2.18-1-4.07-2.28-5.91-3.69-2.73-2.08-3.66-5.67-7.19-6.96l-25.49,42.86c-6.57,8.73-15.56,27.09-17.48,32.61-2.01,5.75-1.86,16.38-1.16,21.94,1.1,8.79,6.57,12.46,11.5,12.47,12.87.03,17.98-9.34,17.98-9.34,0,0,.9,1.18,11.78-29.08l18.39-60.75c-.71-.26-1.72.25-2.4-.07Z"/>
    <path class="cls-25" d="M244.67,318.6c-.48,3.67,4.36,12.63,4.36,12.63,0,0-3.53,23.19-2.91,28.02.15,1.19,5.39,5.07,6.6,8.35,3.67,10,4.67,20.33,4.67,20.33l19.57-14.2-4.6-11.57,3.39-23.78.77-22.82-12.53-15.06c-.12.05-.24.12-.35.2-1.01.69-1.26,2.07-.57,3.08l-4.94-5.22c-4.19,2.47.56,10.9.56,10.9l-5.88-7.28c-3.71,2.97-.38,8.98-.38,8.98l5.64,10.84s-.28,7.1-1.04,9.4c-.76,2.29-1.35,4.73-1.35,4.73l-.88-7.98-7.78-14.51s-1.87,1.31-2.34,4.98Z"/>
    <path class="cls-55" d="M273.94,312.19c-2.88-3.46-5.76-6.92-8.64-10.38-.41-.49-.82-.98-1.23-1.47-.11-.14-.35-.12-.49-.05-1.39.7-1.95,2.28-1.09,3.63l.66-.31c-1.65-1.74-3.29-3.48-4.94-5.22-.15-.16-.4-.1-.57,0-2.24,1.37-2.05,4.22-1.47,6.44.43,1.65,1.1,3.28,1.93,4.77l.66-.31c-1.96-2.43-3.92-4.86-5.88-7.28-.13-.16-.43-.11-.57,0-3.93,3.26-.9,8.46.94,12,1.2,2.31,2.4,4.62,3.6,6.92l.5.97c.03.07.08.13.11.2.05.11,0-.19-.02-.02-.09,1.09-.11,2.18-.2,3.27-.13,1.77-.26,3.57-.64,5.3-.23,1.06-.63,2.09-.92,3.14-.22.78-.43,1.57-.62,2.35l.73-.13c-.19-1.72-.38-3.43-.57-5.15-.09-.86-.19-1.72-.28-2.57-.03-.26-.11-.41-.23-.64-1.88-3.51-3.76-7.02-5.64-10.52-.65-1.22-1.31-2.44-1.96-3.66-.1-.18-.45-.08-.57,0-1.18.84-1.84,2.42-2.2,3.76-.54,2.02-.17,3.88.47,5.83s1.49,3.92,2.39,5.81c.31.65.63,1.29.96,1.93.08.16.15.33.25.48.12.19.06-.07,0,.09-.24.75-.27,1.63-.4,2.4l-.34,2.02c-.06.35.68.25.73-.06l.66-3.99c.05-.3.12-.5,0-.77-.2-.44-.45-.87-.67-1.31-.86-1.72-1.65-3.48-2.33-5.28-.64-1.7-1.4-3.66-1.29-5.52.1-1.67.79-4.03,2.24-5.07h-.57c1.6,2.98,3.2,5.96,4.8,8.94.87,1.63,1.74,3.25,2.62,4.88.1.18.2.36.29.54.06.11.06.15.05.11.14.66.15,1.38.23,2.06.22,1.97.43,3.93.65,5.9.04.34.67.11.73-.13.41-1.69.96-3.32,1.42-4.99.39-1.4.51-2.9.65-4.35s.22-2.78.29-4.17c.02-.48.03-.69-.19-1.11-1.83-3.51-3.66-7.01-5.48-10.53-1.33-2.59-2.28-6.48.3-8.62h-.57c1.96,2.43,3.92,4.86,5.88,7.29.19.24.85.01.66-.31-.75-1.34-1.35-2.8-1.77-4.28-.59-2.06-1.04-4.99,1.12-6.31h-.57c1.65,1.74,3.29,3.48,4.94,5.22.2.21.87,0,.66-.31-.64-1.02-.36-2.36.74-2.91l-.49-.05c2.88,3.46,5.76,6.92,8.64,10.38.41.49.82.98,1.23,1.47.2.24.89-.04.66-.31h0Z"/>
    <path class="cls-44" d="M261.05,311.94c1.37,1.73,3.23,4.23,5.26,7.03l.1.13-.02.16-.06,1.02c-.21,3.69-.45,7.02-.67,9.44-.03.39-.07.75-.1,1.08-.19.03-.37.06-.56.1,0-.37,0-.78.02-1.22.05-2.42.2-5.76.4-9.46.03-.28.06-.56.06-.84-1.98-2.76-3.75-5.27-4.94-7.09-.74-.95-1.36-1.99-1.85-3.08.1-.08.98.99,2.35,2.72Z"/>
    <path class="cls-44" d="M271.75,323.53c.21-2.21.45-5.3.66-8.76l.02-.17-.12-.14-.69-.85c-2.36-2.88-4.53-5.45-6.13-7.29-1.61-1.84-2.65-2.93-2.75-2.85s.76,1.32,2.24,3.26c1.48,1.94,3.6,4.54,5.93,7.45l.7.85-.11-.32c-.2,3.51-.32,6.56-.37,8.79-.11,1.2-.08,2.41.1,3.6.12,0,.3-1.36.51-3.57Z"/>
    <path class="cls-25" d="M302.5,426.29l-21.01-41.22-10.62-24.17c-8.36,1.64-9.67,2.7-17.64,5.61,4.63,27.66,9.85,66.72,15.42,76.5,8.36,14.69,27.18,37.57,44.31,19.5,5.47-5.76,5.13-31.04,6.16-40.03"/>
    <path class="cls-44" d="M303.44,426.65c1.84,1.55,3.18,3.68,4.25,5.8,1.33,2.63,2.3,5.46,2.83,8.36.3,1.65.44,3.32.38,4.99,0,.16.72.05.72-.19.11-3.02-.44-6.04-1.38-8.91-.86-2.63-2.05-5.2-3.63-7.48-.72-1.04-1.53-2.03-2.5-2.84-.17-.14-.83.14-.68.26h0Z"/>
    <path class="cls-55" d="M251.78,256.19c1.68.32,3.57.02,4.93-1.06,1.25-.98,1.85-2.56,1.44-4.11-.25-.94-.77-1.78-1.32-2.57-.12-.17-.78.12-.72.19.86,1.21,1.7,2.69,1.4,4.23-.27,1.35-1.33,2.52-2.64,2.94-.8.26-1.67.25-2.49.09-.16-.03-.36.03-.51.09-.06.03-.25.15-.09.18h0Z"/>
  </g>
  <g id="Layer_3" data-name="Layer 3">
    <path class="cls-3" d="M804.04,668.62c-18.43,9.88-42.68-3.99-50.31-23.43s-2.83-41.57,4.65-61.09c3.14-8.18,6.79-16.28,12.27-23.11,17.43-21.74,48.48-25.8,76.32-27.23,9.13-.47,16.81-25.14,23.24-31.63,5.47-5.52,9.31,10,14.04,3.83,6.5-8.5,18.33-11.4,28.96-9.93,10.63,1.47,20.28,6.6,29.71,11.66,9.87,5.3,20.13,10.98,26.3,20.32,3.48,5.26,5.42,11.35,7.33,17.35,8.97,28.22,18.01,56.93,18.63,86.54.1,4.78,0,9.74-1.77,14.23-5.22,13.6-22.02,17.93-36.45,19.93-35.74,4.98-71.8,7.21-107.88,6.66"/>
    <path class="cls-57" d="M885.3,572.97c-.79-7.23,2.45-14.31,8.43-18.44,1.42-.95,3.47-2.23,5.24-2.2,1.59,0,2.68,1.64,3.49,2.86.71,1.27,1.65,2.39,2.77,3.32,1.59,1.12,3.55,1.23,5.4,1.08,2-.15,3.99-.8,6.02-.34,1.67.37,3.19,1.35,3.31,3.19.05.8,2.39.33,2.3-.62-.22-3.79-5.26-4.39-8.15-3.99-2.11.27-4.61.97-6.59-.15-1.53-.87-2.35-2.6-3.33-3.99-.98-1.39-2.22-2.53-3.99-2.7-2.21-.22-4.47.8-6.38,1.86-3.46,1.91-6.33,4.75-8.27,8.19-2.2,3.81-3.11,8.23-2.59,12.59.1.85,2.39.32,2.3-.61l.04-.04Z"/>
    <path class="cls-18" d="M755.98,644.52l31.81-4.03,5.26,41.54-31.81,4.03v-13.35c-.02-7.85-1.25-15.65-3.64-23.13l-1.62-5.06Z"/>
    <path class="cls-18" d="M716.73,643.75l31.81-4.03,5.26,41.54-31.81,4.03v-13.35c-.02-7.85-1.25-15.65-3.64-23.13l-1.62-5.06Z"/>
    <rect class="cls-37" x="804.72" y="761.76" width="18.46" height="30.69" transform="translate(-249.34 1145.65) rotate(-62.79)"/>
    <path class="cls-34" d="M798.73,803.73c1.99-3.19,4.55-5.99,7.55-8.26,2.37-1.91,5.25-3.08,8.27-3.35,3.79-.09,7.57.3,11.26,1.16,1.15.25,2.29.54,3.42.89.33.1.65.21.94.33.08,0,.51.2.24.08.53.22,1.89-.53,1.22-.82-1.35-.53-2.75-.95-4.17-1.25-3.83-.88-7.74-1.35-11.66-1.4-6.3-.07-11.68,4.01-15.61,8.58-1.09,1.24-2.09,2.55-2.98,3.94-.42.67,1.16.6,1.47.1h.07Z"/>
    <rect class="cls-37" x="719.76" y="789.39" width="27.88" height="32.07" transform="translate(-53.48 52.18) rotate(-3.93)"/>
    <path class="cls-11" d="M800.44,305.19c-11.88,6.99-17.62,16.32-19.39,25.49l-8.76,73.09c.08.11-18.13,58.27-18.17,58.42s5.74-13.84,8.71-2.78c1.99,7.42,17.34,5.36,17.25,13.21,20.39-2.12,24.13-67.13,27.7-77.13l-3.3-9.05c.55-9.09.73-18.19.6-27.29-.25-19.34,19.81-45.95,18.24-65.21l-22.86,11.26Z"/>
    <path class="cls-37" d="M1077.53,348.58c2.24-2.04,4.29-4.28,6.14-6.68,1.93-2.22,3.65-4.63,5.12-7.18,3.18-6.14,1.83-8.49,3.4-15.14-6.12-6.93-26.42-29.74-38.64-42.13-8.4-8.46-16.22-17.49-23.4-27.02l-15.14,14.06s19.89,45.35,29.95,58.67c11.89,15.75,22.59,21.45,31.34,26.37.44-.36.79-.57,1.23-.95Z"/>
    <path class="cls-37" d="M1090.25,267.37l-21.27,40.49c1.57,3.85,3.53,7.55,5.15,11.32,1.78,4.23,4.34,3.95,4.46,8.59.09,3.25,0,6.55-.17,9.78-.15,2.6-3.65,7.4-2.89,10.74.2.82.83,1.47,1.65,1.7,8.43,2.45,19.22-1.23,25.7-9.52,6.81-8.7,20.62-44.06,20.62-44.06l-33.27-29.04Z"/>
    <rect class="cls-37" x="1156.61" y="750.22" width="17.42" height="28.95" transform="translate(337.35 1885.94) rotate(-86.83)"/>
    <path class="cls-56" d="M1194.29,791.22s4.42,5.66,3,8.44c-1.42,2.78-15.45,3.72-19.1,4.15s-51.05,6.43-55.8,6.6-30.15-.67-33.87-5.89c0,0-6.3-8.79,2.16-11.97,8.46-3.18,14.81-2.17,22.71-6.09,9.12-4.63,17.27-10.79,24.03-18.19,0,0,7.62-6.66,11.34-5.72,3.72.94,8.01,7.67,11.01,9.25s17.47,3.41,21.02-3.42,4.68-4.27,7.51-3.34,7.75,12.72,6.74,18.25c-.59,2.61-.85,5.27-.76,7.93Z"/>
    <path class="cls-39" d="M1194.29,791.22s-21.28,2.39-30.44,5.59-33.47,8.59-46.25,8.86c-12.78.27-30.69-4.17-30.69-4.17,0,0-1.15,1.89,4.46,5.03s22.93,4.95,37.89,3.2c14.96-1.75,36.87-4.02,41.48-4.33s23.78-1.95,26.27-5.42c2.08-2.9-2.72-8.76-2.72-8.76Z"/>
    <path class="cls-42" d="M1164.64,796.71c.55-3.66,1.75-7.2,3.57-10.47,1.4-2.75,3.53-5.11,6.18-6.86,1.86-1.02,3.84-1.83,5.91-2.42,2.06-.68,4.15-1.26,6.28-1.74,1.97-.49,3.98-.81,6.01-.94.55,0,1.68-.83.63-.79-1.79.09-3.57.32-5.32.7-4.42.81-8.73,2.11-12.82,3.88-5.87,2.63-9.15,8.49-10.92,14.15-.51,1.54-.88,3.12-1.12,4.72-.08.54,1.5.26,1.57-.21l.04-.02Z"/>
    <path class="cls-42" d="M1160.35,772.81c-3.13,1.59-6.51,2.7-10.01,3.29-4,.75-8.34.94-11.74,3.28-1.41,1.06-2.69,2.26-3.81,3.59-1.42,1.59-3.04,3.01-4.83,4.24-2.16,1.46-4.67,2.4-7.3,2.75-3,.37-6.01-.26-9.01-.77l-5.52-.94c-.43-.08-1.83.58-1,.73,6.74,1.14,13.65,3.07,20.26.39,4.26-1.74,7.11-4.77,10.2-7.91,1.16-1.28,2.61-2.29,4.24-2.96,2.38-.74,4.84-1.26,7.33-1.53,4.25-.62,8.35-1.91,12.14-3.82.91-.5-.49-.59-.95-.34h0Z"/>
    <path class="cls-42" d="M1092.87,791.74c0,1.4,1.42,2.36,2.69,2.7,1.57.3,3.18.38,4.78.24,1.81,0,3.62,0,5.43.1,3.24.22,7.19.62,9.73,2.75,1.56,1.47,2.91,3.13,4,4.93.51.76,1,1.55,1.44,2.36.21.4,1.72-.1,1.57-.4-1.34-2.6-3.1-4.99-5.22-7.09-2.14-2.08-5.6-2.68-8.52-3.02-1.8-.2-3.61-.3-5.43-.3-1.7,0-3.43.15-5.13.05s-3.87-.86-3.82-2.72c0-.28-1.56-.07-1.57.41h.04Z"/>
    <path class="cls-47" d="M1144.55,771.16v-.05c.35-.38.08-1.07-.59-1.54l-4.9-3.4c-.68-.47-1.52-.56-1.86-.18h0c-.35.38-.08,1.07.6,1.54l4.9,3.4c.66.52,1.48.6,1.85.23Z"/>
    <path class="cls-47" d="M1139.06,773.93l.13-.13c.25-.26,0-.83-.66-1.26l-3.62-2.54c-.62-.43-1.32-.57-1.57-.3l-.13.14c-.25.25,0,.82.65,1.25l3.63,2.55c.61.42,1.31.56,1.57.29Z"/>
    <path class="cls-47" d="M1134.53,776.56l.23-.24c.22-.24,0-.75-.59-1.13l-2.59-1.82c-.55-.39-1.18-.5-1.41-.26l-.22.24c-.23.24,0,.75.59,1.12l2.59,1.82c.55.36,1.18.51,1.4.27Z"/>
    <path class="cls-47" d="M1130.91,779.33l.26-.28c.27-.27,0-.82-.52-1.2l-2.6-1.81c-.55-.39-1.21-.47-1.47-.19l-.26.27c-.26.28,0,.82.52,1.21l2.6,1.81c.55.38,1.21.46,1.47.19Z"/>
    <polygon class="cls-37" points="1230.3 788.1 1199.32 787.74 1202.62 766.64 1233 770.87 1230.3 788.1"/>
    <path class="cls-37" d="M1192.71,160.18s-1.29,30.4,2.58,39.85c.94,2.29,17.75,12.1,17.75,12.1l-42.81,16.55-54.09-12.67s29.5-12.45,30.19-15.29c.69-2.84-.63-23.59-.63-23.59"/>
    <path class="cls-44" d="M1134.72,181.86c1.83,2.59,3.51,5.3,5.44,7.82.03.03.05.07.06.11.13-.14.35-.15.49-.03,0,0,.02.02.03.03,1.35,1.7,3.92,2.56,5.12,4.37,1.04,1.56.45,3.71.59,5.66,1.38.18,3.28,0,5.02.11,11.7-.46,11.38-2.33,27.25-11.82,4.97-2.97,3.77-6.85,4.72-7.55-16.03-.09-31.95.91-48.72,1.29Z"/>
    <path class="cls-37" d="M1193.87,166.56l1.8-20.82.44-23.27-9.56-17.41-16.74-7.6-18.77,1.08s-14.94,4.09-19.66,5.48-7.91,7.26-10.96,13.82c-3.06,6.57-1.4,17.3-1.4,17.3.03.8.17,1.59.42,2.35,1.05,4.3,1.44,8.08,2.29,11.32.42,1.44.42,2.96,0,4.4-1.67,5.66-1.58,8.09-1.03,11.53.53,4.27,1.73,8.44,3.54,12.34,1.94,3.88,4.37,8.07,4.86,8.88,0,0,5.4,8.67,6.54,9.51,1.08.8,2.32,1.36,3.63,1.65.78.07,11.13.46,11.13.46l4.8-.25c1.64-.08,3.24-.49,4.72-1.2,3.99-1.89,15.38-7.6,18.47-9.91,4.16-3.09,8.89-15.61,8.89-15.61"/>
    <path class="cls-37" d="M1193,167.06c5.66,5.34,8.82-5.43,8.82-5.43,4.95-6.54,4.64-13.21,4.25-17.82-.4-4.61-5.44-4.27-5.44-4.27-4.26.66-6.07,3.05-9,17.66"/>
    <path class="cls-6" d="M1172.2,87.61c-8.06-1.07-34.82,2.96-41.68,6.41-6.55,3.27-9.94,12.08-10.67,24.61-1.26,4.31-1.62,8.83-1.05,13.28.01-5.54.99-11.03,2.9-16.23,1.32-2.62,3.34-5.66,6.09-7.36,2.37-.44,4.83-.94,4.81-.88,1.13-.2,2.29-.39,3.48-.57,3.35-.27,7.74-.79,12.27-1.25,10.27-.55,16.87,0,21.28.74,4.95,1.92,9.25,5.22,12.39,9.5-.61,3.99-1.34,8.61-.89,10.1.7,2.26,5.01,8.64,7.08,15.33l.56,5.35c0,1.08.06,4.06.1,6.65.64.33,1.36.45,2.07.34,2.35-.12,2.92-1.59,3.59-3.77,1.05-3.43,2.07-6.85,4.92-9.26.94-.8,1.43-.51,2.53-.94,2.83-.1,3.33,1.89,3.33,1.89.01-1.27.18-2.54.5-3.77h0c.83-3.77,2.12-10.46,3.48-20.61,2.09-15.47-22.42-27.61-37.07-29.54Z"/>
    <path d="M1158.21,141.58c.92-.59,2.1-.59,3.03,0,.4.31.7.74.87,1.22.27.89.07,1.85-.53,2.56-.74.83-1.91,1.09-2.93.67-1.23-.57-1.89-1.93-1.57-3.25.05-.21.29-.67,1.13-1.16"/>
    <path d="M1127.8,143.27c-1.04-.39-2.22-.11-2.98.7-.37.35-.63.8-.75,1.3-.18.91.12,1.85.78,2.49.81.75,2.01.89,2.98.37,1.17-.69,1.69-2.11,1.24-3.39-.21-.64-.67-1.17-1.27-1.47"/>
    <path d="M1137.14,147.09s-4.51-4.07-7.66-4.2c-4.6-.19-5.73.94-7.24,3.09,0,0,2.89-2.35,6.12-2.12,3.09.21,8.77,3.24,8.77,3.24Z"/>
    <path d="M1151.52,144.97s6.29-4.26,9.43-4.45c4.59-.27,10.17,2.25,11.73,4.41,0,0-7.36-3.77-10.6-3.47s-10.57,3.52-10.57,3.52Z"/>
    <path d="M1148.99,132.11l1.28,3.03c.33.77,1.03,2.55,1.36,3.32,2.18-1.69,3.99-3.6,5.46-4.55,2.92-1.89,5.82-4.03,9.23-4.89,1.53-.44,3.14-.55,4.72-.35.5.08,2.04.68,2.53.15.2-.22-.74-1.28-.83-1.4-1.89-2.15-4.48-2.28-7.36-1.77-5.8,1.17-11.36,3.36-16.41,6.45"/>
    <path d="M1118.94,133.32l1.75-.68c4.82-1.78,9.96-2.57,15.1-2.32.14,1.09-.12,2.01,0,3.1.1.83-.17,2.22-.08,3.05-2.39-.42-3.59-.73-5.11-.84-3.02-.23-6.22-.51-9.13.39-.24.08-2.59.58-2.83.67-.56-1.09-.45-2.4.3-3.37Z"/>
    <path class="cls-33" d="M1140.54,164.94c1.57.6,3.33.4,4.72-.55.29-.21,1.3-.08.89.22-1.93,1.23-4.32,1.46-6.45.63-.17-.08-.15-.22.07-.3.25-.09.52-.09.76,0"/>
    <path class="cls-33" d="M1146.73,164.19c.9-.48,1.88-.78,2.9-.9.16-.02.32.03.45.12.07.03.1.1.07.17-.01.03-.04.06-.07.07-.48.29-1.03.45-1.59.46-.19.02-.37-.05-.51-.18-.09-.13.07-.24.21-.24.45,0,.89-.14,1.27-.38l.46.37c-.9.11-1.77.39-2.58.81-.17.08-.37.08-.55,0-.1-.07-.23-.21-.08-.29"/>
    <path class="cls-33" d="M1150.76,164.11c1.22-.05,2.35-.65,3.08-1.63.81-1.42-.11-3.55-1.64-4.35-.16-.08-.08-.22.08-.26.22-.04.45,0,.64.1,1.35.77,2.16,2.22,2.12,3.77-.28,1.29-1.3,2.29-2.6,2.54-.42.13-.86.21-1.3.25-.18,0-.51,0-.6-.17s.07-.21.24-.22"/>
    <path class="cls-33" d="M1138.34,164.43c.04-.07,0-.17-.07-.2-.03-.01-.06-.02-.09-.01-.34.04-.67-.06-.94-.26l-.3.41c.67.04,1.31.24,1.89.58.13.06.28.03.37-.08.08-.08.15-.23,0-.3"/>
    <path class="cls-33" d="M1139.24,164.56c-.64-.38-1.36-.6-2.1-.64-.12,0-.24.06-.31.16-.07.06-.07.17,0,.24,0,0,0,0,0,0"/>
    <path class="cls-33" d="M1135.89,164.73c-.91-.02-1.74-.55-2.13-1.37-.57-1.34-.28-2.89.73-3.93.06-.06.06-.15,0-.21-.02-.02-.04-.03-.07-.04-.15-.02-.31.04-.41.16-.87.89-1.27,2.14-1.09,3.37.13,1.07.86,1.97,1.89,2.3.28.1.57.15.86.14.12,0,.33-.07.38-.21s-.07-.21-.17-.21"/>
    <path class="cls-14" d="M1196.02,153.27c3.84-9.36,6.65-9.43,6.65-9.43,0,0,1.89,2.14,1.03,6.47"/>
    <path class="cls-14" d="M1197.48,154.1c2.51-.28.63,4.44,1.34,5.54s1.59-1.89,1.89-5.41c0,0-.06-4.79-2.45-5.66"/>
    <path class="cls-36" d="M1250.49,421.43l2.83,19.72c2.36,16.55,2.24,33.34-.35,49.86l-16.42,104.37s4.04,64.07,6.67,100.28c2.26,31.43-4.24,78.39-4.24,78.39l-4.38,1.61c-16.29,6-34.34,4.92-49.8-2.98h0s-28.89-171.2-28.89-171.2l5.36-117.7-18.28-59.5,107.5-2.85Z"/>
    <path class="cls-36" d="M1106.24,426.5l.86,176.76c-.14,8.75,1.34,17.46,4.39,25.69l34.1,131.31,2,.64c12.97,4.13,26.76,5.01,40.15,2.57l4.96-.9-28-341.16-58.47,5.1Z"/>
    <path class="cls-16" d="M1184.8,772.72l-27.02-160.16c-1.24-7.34-1.69-14.79-1.35-22.23l4.85-106.55s-3.03-14.85-11.67-17.56"/>
    <path class="cls-20" d="M1252.77,228.68c-2.93-6.33-14.56-12.52-20.91-15.41-16.55-7.55-35.49-13.93-35.49-13.93-16.98,25.47-55.43,27.92-54.25,4.52l-15.53,6.46-11.98,5.24c-.06,0-16.6,11.75-23.31,33.36-8.09,26.05-16.21,40.97-16.21,40.97,0,0,2.05,8.57,21.61,15.34,5.66,1.78,6.53,1.89,9.02,3.07l.81,17.08c-.1,5.99.79,35.07.79,35.9-.07,14.54-3.46,28.99-3.84,43.51-.24,9.04-.14,18.29-1.89,27.19,3.64,3.05,4.93,5.04,11.64,8.3,9.43,4.6,18.33,5.36,29,6.69,0,0,67.81-.1,93.33-8.9,2.38-.82,13.04.14,14.3-1.76,1.26-1.91-5.06-16.78-4.97-19.26.13-4.18.25-8.35.37-12.53.73-31.13-9.33-71.39-11.8-91.1l18.2-6.77,18.87-16.33c-1.12-6.6-2.18-12.21-3.2-17.08-4.5-21.9-9.02-32.58-14.56-44.56Z"/>
    <path class="cls-37" d="M1268.11,298.09l-20.63,9.98-18.62,6.6,11.44,46.35-3.57,12.75c-1.64,7.22-2.5,14.6-2.57,22.01l1.26,56.68,21.24,1.98s16.77-83.56,17.81-96.98c.6-7.07-2.68-36.85-6.36-59.37Z"/>
    <path class="cls-17" d="M1133.22,804c1.56-2.16,2.81-6.23,8.43-5.88,12.87.8,20.54-2.17,29.55-7.67,6.57-4.12,12.85-8.64,18.79-13.54"/>
    <path class="cls-56" d="M1241.55,807.31s3.84,6,2.1,8.66-15.75,2.4-19.43,2.51-51.5,2.09-56.22,1.89-29.96-3.22-33.14-8.73c0,0-5.41-9.28,3.33-11.74s14.96-.94,23.21-4.15c9.53-3.84,18.24-9.29,25.69-16.09,0,0,8.25-5.99,11.86-4.72,3.61,1.27,7.21,8.31,10.08,10.13,2.87,1.82,17.02,4.87,21.31-1.63,4.29-6.5,5.08-3.86,7.82-2.68s6.45,13.31,4.9,18.74c-.84,2.53-1.35,5.15-1.52,7.8Z"/>
    <path class="cls-39" d="M1241.55,807.31s-21.43.58-30.86,2.99-34.19,5.73-46.93,4.92-30.15-6.76-30.15-6.76c0,0-1.34,1.8,3.94,5.39,5.29,3.59,22.34,6.87,37.41,6.39s37.12-.89,41.73-.81,23.88.07,26.7-3.17c2.36-2.71-1.84-8.95-1.84-8.95Z"/>
    <path class="cls-42" d="M1211.47,810.2c.91-3.6,2.46-7.03,4.6-10.13,1.67-2.61,4.03-4.77,6.85-6.27,2.03-.86,4.15-1.49,6.34-1.89,2.08-.48,4.19-.86,6.32-1.14,1.99-.3,4-.42,6.01-.36.56,0,1.67-.74.62-.79-1.8-.06-3.61.03-5.4.26-4.47.45-8.87,1.4-13.1,2.83-6.09,2.16-9.92,7.75-12.24,13.21-.65,1.48-1.17,3-1.58,4.56-.12.51,1.45.27,1.57-.2l.02-.08Z"/>
    <path class="cls-42" d="M1209.73,786.08c-3.14,1.27-6.47,2.07-9.87,2.39-4.14.48-8.69.22-12.43,2.28-1.45.88-2.8,1.91-4,3.08-1.64,1.55-3.48,2.91-5.47,4.04-2.37,1.32-5.05,2.05-7.8,2.13-3,.07-5.9-.81-8.79-1.57l-5.24-1.35c-.43-.1-1.83.52-1.27.66l4.15,1.08c2.7.85,5.48,1.48,8.3,1.89,2.61.23,5.25-.06,7.74-.83,2.15-.68,4.17-1.67,6.01-2.92,1.87-1.26,3.43-2.83,5.17-4.26,1.27-1.13,2.8-1.98,4.46-2.46,2.44-.5,4.92-.79,7.41-.86,4.23-.26,8.38-1.19,12.27-2.75,1-.43.07-.78-.59-.5l-.05-.04Z"/>
    <path class="cls-42" d="M1140.53,799.29c-.45,3.51,5.32,3.47,7.6,3.64,5.1.37,12.01.84,15.23,5.15,1.57,2.07,2.87,4.32,3.87,6.68.15.4,1.7-.06,1.57-.4-1.08-2.72-2.6-5.27-4.5-7.55-1.93-2.25-5.34-3.14-8.22-3.71-3.34-.67-6.71-.7-10.09-1.09-1.63-.2-4.13-1.17-3.89-3.02,0-.42-1.51-.14-1.56.25v.05Z"/>
    <path class="cls-47" d="M1194,783.12h0c.38-.34.18-1.06-.45-1.58l-4.53-3.77c-.63-.53-1.45-.67-1.84-.33v.05c-.38.34-.18,1.06.45,1.58l4.53,3.77c.63.48,1.45.62,1.84.28Z"/>
    <path class="cls-47" d="M1188.23,785.42l.15-.12c.27-.25,0-.83-.53-1.31l-3.36-2.83c-.57-.48-1.26-.67-1.53-.43l-.15.13c-.27.24,0,.83.53,1.3l3.36,2.83c.6.48,1.29.68,1.53.43Z"/>
    <path class="cls-47" d="M1183.49,787.65l.25-.22c.24-.22,0-.75-.48-1.18l-2.4-2.03c-.51-.42-1.12-.6-1.37-.39l-.25.22c-.25.22,0,.75.47,1.18l2.41,2.03c.5.42,1.1.6,1.37.39Z"/>
    <path class="cls-47" d="M1179.61,790.11l.29-.25c.29-.25.1-.81-.4-1.25l-2.41-2.02c-.51-.43-1.16-.58-1.45-.31l-.29.25c-.29.25-.11.81.4,1.25l2.41,2.02c.51.42,1.16.57,1.45.31Z"/>
    <path class="cls-52" d="M1145.44,174.41c5-.24,14.18-1.23,14.18-1.23,0,0,1.44,14.59-14.14,15.03-11.61.33-13.18-13.78-13.18-13.78,0,0,8.13.22,13.14-.02Z"/>
    <path class="cls-43" d="M1145.5,174.41c2.36-.11,12.91-.94,12.91-.94-1.59,6.03-6.87,10.2-12.88,10.2-9.23.31-11.8-8.99-11.8-8.99l11.77-.26Z"/>
    <path class="cls-22" d="M1144.9,174.77c2.44-.11,9.87-.87,9.87-.87,0,0-2.56,2.83-9.9,3.14s-9.78-2.15-9.78-2.15l9.81-.12Z"/>
    <path class="cls-52" d="M1130.96,173.7c.96.13,1.93.19,2.91.17,2.02-.26,3.26-.86,4.72-1.04,2.49-.31,4.13.6,5.22.56s2.63-1.11,5.15-1.04c1.47.05,5.12.41,7.16.49,1.22,0,4.3-.49,4.57-.44s-1.89,2.75-15.59,3.39-14.49-2.02-14.13-2.09Z"/>
    <path class="cls-20" d="M1273.43,304.18l-5.13-26.42-48.05,9.5,7.9,33.17s42.86-8.99,45.29-16.26Z"/>
    <path class="cls-54" d="M1105.64,307.05c.73-13.89-1.98-27.48-4.06-41.14-.63-4.15-1.18-8.3-1.59-12.48-.07-.69-1.7-.3-1.62.44,1.75,17.79,6.6,35.32,5.66,53.32,0,.8,1.61.55,1.64-.14h-.03Z"/>
    <path class="cls-54" d="M1230.27,320.77c-3.92-12.33-5.66-25.2-9.08-37.66-3-10.98-4.05-22.76-1.42-33.92.67-3.03,1.7-5.97,3.08-8.76,1.39-2.71,3.43-5.32,6.53-6.05,1.02-.24.71-1.37-.3-1.13-5.35,1.25-7.99,6.69-9.62,11.44-1.84,5.53-2.79,11.32-2.83,17.15-.05,5.89.58,11.77,1.89,17.52.72,3.19,1.66,6.32,2.42,9.5.8,3.34,1.52,6.69,2.23,10.05,1.59,7.49,3.17,14.98,5.48,22.29.25.75,1.89.31,1.63-.44h0Z"/>
    <path class="cls-37" d="M1016.97,267.37l-17.93-15.02s-5.66-9.03-6.01-11.59,3.77-5.14,3.77-5.14c0,0,2.45,1.4.44-.67-2.01-2.07,2.6-4.95,2.6-4.95l-1.1-4.79c-.41-2.18.21-4.42,1.68-6.08,2.46-2.55,6.33,1.39,7.37,2.25s1.39-.94,1.39-.94c-.86-3.47-1.49-6.99-1.89-10.54-.14-3.44-.59-5.48,2.46-5.58s4.22,6.6,4.95,8.71,6.13,9.34,8.72,9.76,3.39-2.07,5.12-8.14c1.74-6.08,3.63-12.03,6.86-11.32s1.72,10.15-.07,13.55c-1.78,3.4-.84,18.57-3.36,25.57s-1.55,10.58-1.55,10.58l-13.47,14.36Z"/>
    <path class="cls-44" d="M1005.31,227.3c.72.67,1.54,1.22,2.42,1.64.99.53,2.19.45,3.09-.21.8-.79,1.09-1.95.77-3.02-.27-.92-.77-1.76-1.43-2.44-1.2-1.21-2.11-1.83-2.02-1.95.91.32,1.73.84,2.42,1.52.81.72,1.41,1.64,1.73,2.67.45,1.36.08,2.86-.94,3.87-.57.49-1.31.75-2.07.74-.65,0-1.3-.16-1.89-.45-.93-.48-1.76-1.12-2.46-1.89-1.22-1.25-2-1.89-2-1.95s1.06.41,2.38,1.48Z"/>
    <path class="cls-44" d="M1006.71,239.29c2.16,1.09,4.4,2.01,6.7,2.77,1.31.48,2.68.76,4.08.82.65-.03,1.26-.31,1.7-.8.42-.58.47-1.34.14-1.97-.46-1.34-1.89-2.08-3.2-2.75l-3.89-1.89-6.44-3.47c-1.36-.88-2.86-1.52-4.44-1.89-.58-.07-1.17-.04-1.74.08,0,0,.1-.13.41-.25.44-.16.9-.23,1.37-.19,1.67.24,3.28.83,4.72,1.72l6.6,3.29,3.85,1.98c1.57.55,2.87,1.7,3.61,3.19.34.88.22,1.88-.32,2.65-.59.66-1.42,1.06-2.31,1.09-1.5-.08-2.97-.39-4.37-.94-2.32-.79-4.57-1.78-6.73-2.95-1.83-.99-3.27-1.89-4.26-2.5-.54-.29-1.03-.64-1.48-1.06.02-.15,2.25,1.12,6.01,3.06Z"/>
    <path class="cls-44" d="M998.86,244.79c1.05.33,2.52,1.03,4.34,1.81l6.4,2.77c1.18.56,2.47.84,3.77.79.65-.04,1.27-.28,1.76-.7.49-.35.72-.97.59-1.56-.35-1.13-1.89-1.89-3.03-2.64l-3.48-2.18-5.97-3.59-4.09-2.35c-.52-.27-1-.6-1.43-.99.57.16,1.13.4,1.64.7.94.49,2.42,1.24,4.16,2.18s3.77,2.09,6.09,3.43c1.14.63,2.32,1.38,3.53,2.15.61.38,1.21.75,1.89,1.18.73.44,1.28,1.13,1.57,1.93.21.91-.13,1.85-.87,2.42-.64.51-1.41.82-2.23.88-1.45.05-2.89-.25-4.19-.89-2.4-1.11-4.53-2.12-6.32-2.97s-3.25-1.55-4.24-2.06c-.53-.23-1.03-.52-1.5-.86.55.12,1.09.29,1.6.53Z"/>
    <path class="cls-44" d="M1032.17,215.34c-1.4-.55-1.89-1.7-1.69-1.84s.94.61,2.01,1.05,2.16.33,2.17.58-1.09.75-2.49.22Z"/>
    <path class="cls-44" d="M1029.17,251.13c-1.58,2.46-4.07,4.18-6.93,4.79-.25,0-.88.17-.94.47s.52.25.67.22c3.59-.64,6.77-2.71,8.81-5.74.18-.27-.58-.23-.67-.22-.36.03-.7.2-.94.47Z"/>
    <path d="M1124.46,103.12c-.95-.17-1.69-.93-1.83-1.89-.23-.94-.15-1.89-.36-2.76-.28-1.24-1.08-2.52-.55-3.67.53-1.15,1.89-1.38,3.08-1.37-.63-1.11-.24-2.51.87-3.14.76-.43,1.69-.39,2.41.09-.2-2.18,1.4-4.11,3.58-4.31.83-.08,1.66.11,2.38.53-.37-1.59-.21-3.5,1.06-4.54s3.72-.31,3.68,1.32c.09-1.31,1.21-2.3,2.52-2.23,1.3.17,2.29,1.24,2.35,2.55,1.02-.94,1-2.62,1.89-3.65,1.35-1.51,4.39-.36,4.41,1.66.71-1.34,1.56-2.83,3.01-3.27,1.67-.43,3.36.58,3.79,2.25.05.19.08.39.09.58.76-1.4,1.93-2.54,3.35-3.26.44-.26.94-.38,1.44-.35,1.07.13,1.66,1.29,1.89,2.33.23,1.04.38,2.21,1.15,2.93.5-1.46,1.25-3.16,2.83-3.43,2.01-.37,3.36,1.94,4.07,3.86.61-1.48,1.63-3.24,3.24-3.14,1.03.15,1.88.89,2.17,1.89.3.96.42,1.98.33,2.98.84-1.57,2.06-2.89,3.56-3.85.39-.31.89-.45,1.39-.39.5.19.9.59,1.09,1.09.64,1.26,1,2.64,1.08,4.06.99-.9,2.08-1.68,3.25-2.32.31-.22.69-.33,1.07-.33.76.07,1.18.94,1.29,1.68,0,.76.17,1.52.51,2.2,1.25-.84,2.76-1.62,4.21-1.19s2.15,2.74.82,3.44l6.93-.86c.51-.26,1.13-.05,1.38.46.18.35.14.77-.1,1.08l-.94,3.18c1.66-.75,3.6-.57,5.09.47,1.38,1.14,1.54,3.66,0,4.58,1.97.67,3.03,2.82,2.35,4.79-.09.26-.2.51-.35.74,1.94,2.54.29,2.54.23,5.74.06.77-1.31,5.01-1.71,5.66-.81,1.02-2.41.85-3.6.36-3.55-1.46-3.11-4.72-6.13-7.13-6.68-5.25-15.86-5.54-24.36-5.6"/>
    <path class="cls-24" d="M1024.94,740.92c-6.51,2.21-10.6,5.08-14.99,7.83-.85.54-1.42,1.29-3.39,1.09-2.59-.28-1.89-1.27-1.47-1.89,3-4.72,4.81-9.49,10.33-13.86,1.1-.87,3.31-1.76,1.16-3.33-14.76,5.01-22.73,11.86-31.85,18.44,0-3.72.23-7.3-1.55-10.86-3.64,2.83-2.43,6.13-6.79,9.52.12-7.09.28-13.49,1.68-19.89l-2.34-.07c-2.97,5.24-5.95,10.46-9.26,16.28-3.1-5.39-2.98-10.45-9.16-14.85.57,5.18,1.95,10.3-2.67,16.2-4.08-6.28-9.64-11.47-16.19-15.1,3.1,8.11,6.33,16.15,5.01,24.45-3.85-4.6-7.7-9.19-11.56-13.77-1.49,4.66.08,9.28-2.83,14.15-.53-.38-1.01-.83-1.42-1.34,1.08,7.21,1.69,14.48,1.81,21.77,0,2.18-3.2,2.29-3.54.34-.14.42-.28.85-.42,1.26.08,1.89.16,3.76.25,5.61.42,8.03,1.02,16.04,1.62,24.07h61.61c7.69-14.64,16.13-28.87,25.29-42.64.26-.4.53-.78.78-1.19,1.11-2.67,2.47-5.22,4.06-7.64.61-.94,1.26-1.89,1.89-2.83-.49.35-.94.7-1.51,1.05-.98-4.84,3.13-8.74,5.45-12.8Z"/>
    <path class="cls-10" d="M804.77,318.56c-5.93,6.28-11.77,10.22-11.59,10.47,1.43-.62,2.75-1.46,3.93-2.47,3.02-2.19,5.83-4.65,8.39-7.36,2.54-2.71,4.83-5.65,6.84-8.77.94-1.25-.54-1.89,0-3.34-.27-.16-1.65,5.19-7.58,11.47Z"/>
    <path class="cls-5" d="M764.17,688.23s5.07,5.3,4.05,8.4-14.32,5.91-17.78,6.83c-3.46.92-48.22,13.43-52.74,14.21s-29.11,3.27-33.41-1.67c0,0-7.31-8.32.37-12.75,7.68-4.42,13.94-4.21,20.97-9.33,8.13-6.04,15.08-13.53,20.49-22.1,0,0,6.38-7.93,10.09-7.43,3.71.5,8.79,6.92,11.94,8.16s17.29,1.25,19.81-6.34,3.89-5.07,6.76-4.46,9.26,12.27,9.07,18.11c-.19,5.84.39,8.38.39,8.38Z"/>
    <path class="cls-46" d="M764.17,688.23s-20.12,5.28-28.48,9.83-30.97,13.35-43.22,15.31-30.13-.3-30.13-.3c0,0-.84,2.13,5.01,4.65,5.85,2.52,22.77,2.12,36.91-1.66,14.14-3.78,34.91-9.04,39.28-9.98s22.64-5.16,24.53-9.09c1.57-3.29-3.9-8.76-3.9-8.76Z"/>
    <path class="cls-34" d="M728.82,673.23c-2.8,2.08-5.91,3.69-9.22,4.78-3.85,1.37-8.15,2.14-11.09,5.23-1.21,1.41-2.3,2.93-3.25,4.53-1.14,1.76-2.5,3.37-4.04,4.79-1.72,1.57-3.77,2.74-5.99,3.44-2.83.86-5.66.69-8.49.56l-6.01-.27c-.85,0-1.7,1.23-.57,1.27,6.76.31,13.82,1.46,19.81-2.38,1.86-1.22,3.52-2.72,4.92-4.44,1.34-1.63,2.38-3.47,3.6-5.19.89-1.34,2.05-2.48,3.42-3.34,2.1-1.08,4.32-1.92,6.6-2.51,4.12-1.19,7.99-3.11,11.43-5.66.89-.7-.44-1.36-1.12-.82h-.02Z"/>
    <path class="cls-34" d="M666.61,702.04c.15.87.71,1.62,1.5,2.03,2.05,1.18,4.63.42,6.8.1,2.77-.48,5.57-.68,8.38-.59,2.7-.04,5.32.94,7.33,2.75,1.86,1.71,3.52,3.62,4.94,5.71.28.42,1.89-.11,1.57-.63-1.12-1.62-2.38-3.13-3.77-4.52-1.89-1.94-3.61-3.29-6.3-3.83-2.63-.45-5.31-.52-7.95-.21-1.33.11-2.65.28-3.96.48-1.3.3-2.62.46-3.95.48-1.27-.08-2.77-.8-2.93-2.22-.05-.49-1.74-.13-1.67.44h.03Z"/>
    <path class="cls-47" d="M713.47,673.89v-.06c.28-.43-.08-1.11-.79-1.52l-5.19-2.9c-.72-.4-1.54-.37-1.82.07v.06c-.28.43.08,1.12.8,1.52l5.19,2.9c.71.4,1.53.37,1.81-.07Z"/>
    <path class="cls-47" d="M708.57,677.5l.11-.16c.2-.3-.16-.86-.81-1.22l-3.86-2.17c-.64-.37-1.34-.42-1.55-.11l-.1.16c-.21.31.16.86.8,1.23l3.86,2.17c.65.34,1.35.42,1.55.1Z"/>
    <path class="cls-47" d="M704.6,680.83l.18-.27c.18-.27-.14-.77-.73-1.09l-2.75-1.56c-.58-.33-1.21-.37-1.4-.09l-.18.27c-.18.28.14.77.73,1.1l2.75,1.55c.58.33,1.21.37,1.4.09Z"/>
    <path class="cls-47" d="M701.52,684.2l.21-.32c.22-.33-.08-.86-.67-1.19l-2.76-1.55c-.58-.32-1.24-.32-1.44,0l-.21.32c-.22.33.08.86.67,1.19l2.76,1.55c.57.32,1.22.32,1.44,0Z"/>
    <path class="cls-5" d="M804.41,694.19s5.07,5.3,4.05,8.4c-1.02,3.09-14.32,5.91-17.78,6.83s-48.22,13.43-52.74,14.21-29.11,3.27-33.41-1.67c0,0-7.31-8.32.37-12.75,7.68-4.42,13.94-4.21,20.97-9.33,8.13-6.04,15.08-13.53,20.49-22.1,0,0,6.38-7.93,10.09-7.43s8.79,6.92,11.94,8.16,17.29,1.25,19.81-6.34,3.89-5.07,6.76-4.46,9.26,12.27,9.07,18.11c-.19,5.84.39,8.38.39,8.38Z"/>
    <path class="cls-46" d="M804.41,694.19s-20.12,5.28-28.48,9.83c-8.36,4.55-30.97,13.35-43.22,15.31-12.25,1.96-30.13-.3-30.13-.3,0,0-.84,2.13,5.01,4.65,5.85,2.52,22.77,2.12,36.91-1.66,14.14-3.78,34.91-9.04,39.28-9.98s22.64-5.16,24.53-9.09c1.57-3.29-3.9-8.76-3.9-8.76Z"/>
    <path class="cls-34" d="M769.05,679.2c-2.8,2.08-5.91,3.69-9.22,4.78-3.85,1.37-8.15,2.14-11.09,5.23-1.21,1.41-2.3,2.93-3.25,4.53-1.14,1.76-2.5,3.37-4.04,4.79-1.72,1.57-3.77,2.74-5.99,3.44-2.83.86-5.66.69-8.49.56l-6.01-.27c-.85,0-1.7,1.23-.57,1.27,6.76.31,13.82,1.46,19.81-2.38,1.86-1.22,3.52-2.72,4.92-4.44,1.34-1.63,2.38-3.47,3.6-5.19.89-1.34,2.05-2.48,3.42-3.34,2.1-1.08,4.32-1.92,6.6-2.51,4.12-1.19,7.99-3.11,11.43-5.66.89-.7-.44-1.36-1.12-.82h-.02Z"/>
    <path class="cls-34" d="M706.85,708.01c.15.87.71,1.62,1.5,2.03,2.05,1.18,4.63.42,6.8.1,2.77-.48,5.57-.68,8.38-.59,2.7-.04,5.32.94,7.33,2.75,1.86,1.71,3.52,3.62,4.94,5.71.28.42,1.89-.11,1.57-.63-1.12-1.62-2.38-3.13-3.77-4.52-1.89-1.94-3.61-3.29-6.3-3.83-2.63-.45-5.31-.52-7.95-.21-1.33.11-2.65.28-3.96.48-1.3.3-2.62.46-3.95.48-1.27-.08-2.77-.8-2.93-2.22-.05-.49-1.74-.13-1.67.44h.03Z"/>
    <path class="cls-47" d="M753.7,679.86v-.06c.28-.43-.08-1.11-.79-1.52l-5.19-2.9c-.72-.4-1.54-.37-1.82.07v.06c-.28.43.08,1.12.8,1.52l5.19,2.9c.71.4,1.53.37,1.81-.07Z"/>
    <path class="cls-47" d="M748.81,683.47l.11-.16c.2-.3-.16-.86-.81-1.22l-3.86-2.17c-.64-.37-1.34-.42-1.55-.11l-.1.16c-.21.31.16.86.8,1.23l3.86,2.17c.65.34,1.35.42,1.55.1Z"/>
    <path class="cls-47" d="M744.84,686.8l.18-.27c.18-.27-.14-.77-.73-1.09l-2.75-1.56c-.58-.33-1.21-.37-1.4-.09l-.18.27c-.18.28.14.77.73,1.1l2.75,1.55c.58.33,1.21.37,1.4.09Z"/>
    <path class="cls-47" d="M741.76,690.17l.21-.32c.22-.33-.08-.86-.67-1.19l-2.76-1.55c-.58-.32-1.24-.32-1.44,0l-.21.32c-.22.33.08.86.67,1.19l2.76,1.55c.57.32,1.22.32,1.44,0Z"/>
    <path class="cls-37" d="M813.66,241.66s12.93,41.73,10.69,51c-.54,2.25-19.4,18.87-19.4,18.87l61.74,8.61,29.76-17.18s-28.05-15.53-28.56-18.16c-2.36-12.18-2.14-24.71.63-36.8"/>
    <path class="cls-11" d="M781.55,459.19c3.77-16.04,5.28-57.55,5.89-75.24,1.06-31.37,3.06-59.08,3.06-59.08l10.19-17.8c5.73-1.45-8.26,3.73-3.22.02,2.45-.94,12.67-6.2,15.2-6.98,3.34-1.03,7.67-5.33,10.91-6.48-3.37,12.54,8.26,19.59,21.46,16.73,16.36-3.54,21.7-9.75,29.36-21.25l30.01,11c.76.34,1.89,2,2.5,2.34,4.17,2.14,1.03,113.22,1.03,113.22l15.35,41.23c7.17,45.77-9.96,59.5-28.3,74.53,0,0-81.9-40.47-92.06-41.7-11.81-1.43-3.55-10.2-5.89-15.8-.89-2.04-23.19,18.39-15.49-14.73Z"/>
    <path class="cls-50" d="M825.51,399.44s.06.05.09.06l.08-.25-.17.2Z"/>
    <path class="cls-8" d="M805.39,361.62h.14l-.12-.09s-.03.06-.02.09Z"/>
    <path class="cls-8" d="M825.09,367.45l-.12-.11v.07l.12.05Z"/>
    <path class="cls-8" d="M805.82,361.71l.19.05c-.03-.06-.1-.09-.16-.06,0,0-.02,0-.03.02Z"/>
    <path class="cls-51" d="M688.39,496.31c2.91,36.52,14.87,126.21,25.17,163.17,0,0,41.7,4.96,45.35-5.36,0,0-5.66-53.83-5.59-75.83,0-15.34,9.43-59.13-15.35-72.05-40.57-21.15,91.68-51.54,83.55-54.29-28.73-9.69-88.76-7.55-107.65-2.63-15.26,4.01-27.96,16-25.48,46.98Z"/>
    <path class="cls-51" d="M766.07,518.34c-.87-2.67-8.91,13.72-10.01,11.14-2.53-5.8-5.53-11.39-8.96-16.71-3.5-5.47-7.43-10.66-11.74-15.52-2.93-3.3-6.06-6.41-9.38-9.31,33.34-58.5,155.77-27.82,155.77-27.82,0,0,44.87,9.96,40.66,48.12-5.57,50.51-91.44,25.61-136.62,20.05-.22-.06-19.48-9.92-19.72-9.94Z"/>
    <path class="cls-51" d="M789.15,482.15c-.94-1.5,1.77-3.77.76-5.26-3.59-5.07-7.59-9.83-11.97-14.24-4.11-4.13-8.5-7.97-13.14-11.49h-.42c-6.8-.29-13.54,2.07-20.08,3.61-1.31.33-2.69.28-3.97-.14-7.37,7.35-14.55,24.9-14.55,24.9,0,0,15.62,130.19,22.18,186.67,0,0,47.63,2.16,53.66-6.63-2.26-19.44-7.01-32.09-8.49-68.7-1.72-41.69,1.13-76.33-12.09-99.8-2.8,6.75,7.95-8.91,8.11-8.93Z"/>
    <path class="cls-53" d="M785.24,337.64c-.1,7.1.34,14.23.74,21.31.54,9.5,1.2,19,1.89,28.48.62,8.17,1.27,16.34,2,24.53.17,1.89.68,4,.27,5.9l-1.65,7.69-3.77,17.61c-.13.61,1.1.48,1.23-.08l3.22-15.04,1.89-9.02c.55-1.57.62-3.27.21-4.89-1.59-17.28-2.9-34.58-3.93-51.89-.48-8.19-1.05-16.43-.94-24.63,0-.65-1.22-.5-1.23.08l.09-.05Z"/>
    <path class="cls-11" d="M936.46,438.59l-60.71-22.94,5.24-66.88,23.07-48.67s16.25,4.52,21.7,25.64c5.45,21.12,11.06,76.92,12.94,88.42.98,5.93,2.78,17-2.23,24.43Z"/>
    <path class="cls-11" d="M906.19,405.15l.08-.33,31.43,31.21c-13.21,32.49-113.29,31.89-113.29,31.89l-8.04-38.24,89.82-24.53Z"/>
    <path class="cls-53" d="M898.21,417.41c2.13-.25,4.14.94,5.76,2.22,1.71,1.38,3.32,2.87,4.81,4.48.23.23,1.34-.21,1.14-.42-1.61-1.73-3.35-3.33-5.22-4.78-1.74-1.25-3.77-2.27-5.98-2.01-.23,0-.69.08-.81.29s.1.24.29.22h0Z"/>
    <path class="cls-53" d="M897.84,309.48c-5.65,3.59-10.09,8.8-12.73,14.95-1.75,4.37-2.38,9.12-1.82,13.79.31,3.4.78,6.77,1.27,10.14,1.34,9.21,2.95,18.39,4.61,27.55,1.62,9,3.31,17.99,5.07,26.96.63,3.11,1.24,6.22,1.83,9.33.2.94.39,1.97.58,2.96.04.54.15,1.07.32,1.59,0,.07,0,.14,0,.22l.68-.5c-12.27,1.94-24.38,5.81-36.21,9.64-11.09,3.59-22.09,7.47-33.02,11.52-2.24.83-7.29,2.6-9.51,3.46-.16.06-.4.21-.37.41l.52,3.91c.06.4,1.26.12,1.21-.33l-.52-3.9-.37.41c6.17-2.37,15.21-5.57,21.44-7.78,12.4-4.42,24.9-8.62,37.57-12.2,6.27-1.86,12.65-3.35,19.1-4.46.2,0,.75-.18.68-.49-.74-3.73-1.48-7.45-2.21-11.17-1.66-8.5-3.27-16.99-4.84-25.47-1.7-9.25-3.34-18.51-4.78-27.79-.58-3.71-1.12-7.42-1.57-11.14-.44-3.73-.82-7.74-.07-11.6,1.54-7.88,6.89-14.9,13.46-19.35l.38-.25c.7-.42-.35-.6-.75-.36l.04-.05Z"/>
    <path class="cls-28" d="M812.53,758.63c1.39.3,2.8.46,4.22.49.83,0,1.65,0,2.48-.11.38-.01.76-.08,1.12-.21.26-.14.29.07.27-.37s-.66-.76-1.53-.94c-.79-.21-1.6-.35-2.42-.43-1.4-.13-2.81-.09-4.2.13-2.36.41-3.77,1-3.84.88s1.16-1.14,3.65-1.83c1.46-.39,2.97-.55,4.47-.46.89.06,1.78.19,2.65.41.57.15,1.1.4,1.59.73.6.34,1.02.93,1.14,1.6.08.79-.39,1.53-1.13,1.79-.5.18-1.02.28-1.55.29-.88.07-1.77.07-2.65,0-1.51-.13-3.01-.45-4.44-.94-1.36-.29-2.62-.94-3.64-1.89,1.29.2,2.56.49,3.8.87Z"/>
    <path class="cls-28" d="M810.84,755.17c.91-2.02,1.36-4.21,1.33-6.43,0-.69-.23-1.35-.66-1.89-.25-.22-.85.25-1.36.94-.48.63-.87,1.33-1.15,2.08-.5,1.27-.71,2.64-.61,4,.19,1.27.46,2.53.8,3.77-.09.11-1.33-1.09-1.78-3.7-.29-1.54-.18-3.12.31-4.6.29-.87.72-1.69,1.26-2.42.29-.43.65-.81,1.05-1.13.58-.48,1.38-.57,2.05-.24.95.7,1.47,1.85,1.37,3.03.02.9-.04,1.8-.18,2.69-.28,1.49-.81,2.92-1.55,4.24-1.33,2.22-2.67,3.01-2.83,3s.93-1.21,1.95-3.34Z"/>
    <path class="cls-28" d="M781.78,774.83s55.96,16.13,54.8,17.24l59.52-83.34,47.3,46.27,81.56.54-.23-16.68s-73.31-78.5-119.63-113.65c-15.5-11.77-31.44-10.15-35.06-8.73-20.18,7.88-88.26,158.36-88.26,158.36Z"/>
    <path class="cls-48" d="M960.54,743.05c.68-1.03,1.52-1.95,2.49-2.72-.5,1.14-1.19,2.18-2.04,3.09-.68,1.03-1.52,1.95-2.49,2.72.51-1.13,1.2-2.18,2.04-3.09Z"/>
    <path class="cls-37" d="M962.07,614.88l-67.28,11.19c-7.3,3.67-28.52,57.28-28.52,57.28l-20.88-.51c-.09-6.03.38-12.06,1.4-18,3.77-27.96,17.2-56.42,17.2-56.42,0,0,73.08-28.15,91.56-37.08,17.18-8.29,25.99-2.83,25.99-2.83l-19.47,46.37Z"/>
    <path class="cls-37" d="M881.67,708.23c-.8-3.9-1.93-7.72-3.37-11.43-1.25-1.97-15.11-18.56-13.93-18.49l-19.02,1.44.38,18.69,5.81,23.37,12.05,12.15c3.77-2.31,1-6.6,1-6.6l12.67,4.94s1.89.94,1.75-2.05c-.13-2.99-5.26-5.89-5.66-6.11s-2.29-.67-.23-.84c1.43-.29,2.68-1.15,3.47-2.37,0,0,2.31,2.91,4.59,5.57,2.27,2.66,3.27,1.24,4.72.32s-.32-6.52-.32-6.52"/>
    <path class="cls-44" d="M874.78,717.36c.86,1.25,1.59,2.58,2.18,3.98-1.06-1.1-1.96-2.35-2.67-3.71-.87-1.25-1.56-2.62-2.03-4.08.97,1.18,1.81,2.45,2.52,3.8Z"/>
    <path class="cls-44" d="M865.22,715.78c.53,1.4,1.29,2.7,2.25,3.85,1.04,1.11,2.24,2.07,3.56,2.83.57.31,1.1.68,1.59,1.1-.64-.17-1.25-.43-1.81-.77-1.42-.69-2.7-1.63-3.77-2.78-1-1.2-1.75-2.59-2.2-4.09-.26-.6-.42-1.24-.46-1.89.36.54.64,1.13.84,1.75Z"/>
    <path class="cls-44" d="M856.21,718.45c.6,1.64,1.47,3.16,2.58,4.5,1.17,1.35,2.56,2.49,4.1,3.39,1.17.69,1.94,1.06,1.94,1.06-.75-.09-1.47-.33-2.11-.72-3.28-1.66-5.73-4.58-6.8-8.1-.26-.7-.36-1.45-.29-2.19.09,0,.23.91.59,2.06Z"/>
    <path class="cls-27" d="M1080.19,731.59l-1.13-.63c6.53,1.46,4.11,13.9,3.04,17.32-1.08,3.43-.75,26.55-.75,26.55l-16.56-18.96c-15.21-8.12-32.16-12.12-49.27-11.62l-58.6,1.53c-.63-4.89-2.99-8.35,1.24-9.79l-5.92-130.71,26.63-50.51s36.53-2.19,52.48,1.32c13.21,2.85,34.37,5.76,43.47,37.51,5.59,15.15,1.77,116.77,1.77,116.77l3.6,21.22Z"/>
    <path class="cls-27" d="M945.88,568.54s16.27-11.95,22.31-12.98c9.72-1.49,19.54-2.14,29.37-1.95l-36.8,73.52-40.11,6.03-19.18-45.74,44.4-18.87Z"/>
    <path class="cls-37" d="M1016.69,606.39s-48.94,35.85-55.85,36.33c-3.46.35-51.29-36.81-51.29-36.81l-13.93,16.49s42.74,62.48,65.81,60.78c10.72-.79,83.21-46.22,83.21-46.22l-27.95-30.57Z"/>
    <path class="cls-37" d="M898.02,624.54c-2.32-.07-4.62-.4-6.86-1.01-4.11-.94-23.91-13.81-23.91-13.81l-3.39-.11s-1.05,1.07-1.27-2.13c-.23-3.2,3.35-5.75,3.35-5.75l1.22-2.69c1.17-1.86,3-3.21,5.12-3.77.86-.85,1.81-1.61,2.83-2.25,1.71-1.07,3.65-1.72,5.66-1.89,1.25-1.92,2.66-3.72,4.22-5.4,1.58-1.44,5.91.8,5.91.8l2.01-.94c3.32-1.6,7.29-.88,9.83,1.78,1.43,1.37,2.66,2.74,3.59,3.66,2.42,2.46,6.38,18.26,6.38,18.26l-14.69,15.26Z"/>
    <path class="cls-15" d="M896.97,625.71c-2.32-.07-3.56-1.58-5.8-2.18-4.11-.94-23.91-13.81-23.91-13.81l-3.39-.11"/>
    <path class="cls-48" d="M1028.59,446.14v.97c-.03-.16-.03-.32,0-.48-.03-.16-.03-.33,0-.49Z"/>
    <path class="cls-28" d="M910.76,813.91c-.97-2.62-30.16,7.01-31.38,4.5-2.77-5.67,14.33-8.63,10.75-13.73-3.69-5.24-7.76-10.16-12.18-14.73-3-3.07-1.93-7.03-5.31-9.7,27.64-61.22,209.36-31.39,209.36-31.39,0,0,4.46-2.2,2.95,38.67-1.93,51.16-82.36,33.7-125.46,29.71-11.58-1.06-48.52-3.31-48.73-3.33Z"/>
    <path class="cls-28" d="M958.04,743.64c5.06,2.94-27.25,16.92-27.71,20.37,2.3-.8,4.67-1.35,7.08-1.67.89.96,1.8,1.97,2.71,3.07-1.87,5.15-4.13,10.13-6.76,14.88-3.05,5.58-6.52,10.89-10.35,15.9-3.71,4.88-7.79,9.41-12.22,13.56-1.26,1.17-2.54,2.3-3.86,3.4l-.09-.49c-20.81,15.82-62.67,10.94-101.86,17.22-34.42,5.51-38.73,6.15-56.86,10.56-8.91-5.12-11.16-60.17-11.16-60.17,40.83-9.88,118.58-25.53,150.11-33.71,11.71-3.1,60.37-9.08,70.96-2.92Z"/>
    <path class="cls-37" d="M1025.02,561.4c-14.86,7.41-50.49,13.92-43.36-6.13.39-.82,2.25-.33,2.44-1.06.69-2.72.17-23.41.17-23.41l46.78-16.35s-2.81,29.24.91,38.33c.48,1.38,1.24,2.65,2.24,3.72-2.76,2.51-5.84,3.22-9.19,4.9Z"/>
    <path class="cls-44" d="M973.65,533.28c1.65,2.56,3.18,5.22,4.95,7.72,0,.04,0,.07,0,.11.14-.12.34-.1.46.03.01.01.02.03.03.04,1.24,1.67,3.68,2.6,4.77,4.38.91,1.54.3,3.58.37,5.45,1.32.23,3.16.16,4.82.29,11.26,0,11.03-1.82,26.63-10.36,4.89-2.68,3.91-6.46,4.83-7.13-15.37-.66-30.71-.28-46.86-.53Z"/>
    <path class="cls-5" d="M1042.59,497.12s2.28-6.88,5.13-23.37c2.56-14.77-20.57-27.33-34.58-29.72-7.71-1.32-33.6,1.58-40.31,4.63-6.71,3.05-10.34,12.06-11.31,25.02,0,0,4.26-12.82,12.48-12.41,6.69.34,28.34-2.72,33.97-.21,5.63,2.52,18.03,7.75,18.29,28.09.07,5.55,9.99-.15,12.65,3.22s3.68,4.74,3.68,4.74Z"/>
    <path class="cls-37" d="M1031.09,520.74l2.49-19.98,1.27-22.35-8.53-17.06-15.81-7.93-18.08.35s-14.53,3.41-19.07,4.54-7.86,6.69-11.04,12.9-1.97,16.58-1.97,16.58c0,.77.11,1.53.31,2.27.85,4.18,1.09,7.82,1.82,10.9.34,1.39.29,2.86-.15,4.22-1.82,5.45-1.82,7.73-1.42,11.05.36,4.13,1.36,8.17,2.96,11.99,1.72,3.81,3.9,7.92,4.34,8.72,0,0,4.87,8.54,5.94,9.38,1.01.81,2.18,1.4,3.43,1.73.75.09,10.69.84,10.69.84l4.62-.06c1.56-.02,3.11-.35,4.54-.97,3.91-1.69,15.07-6.76,18.16-8.85,4.11-2.82,9.08-14.69,9.08-14.69"/>
    <path class="cls-5" d="M1026.92,501.39c-.1,1.73-.11,8.6-.31,10.28l8.94-.11c2.72-5.91,6.01-12.86,7.05-14.44,1.62-2.47,1.94-14.53,2.07-19.07v-.98c.14-4.34-3.97-11.27-10.99-18.53-7.71-7.99-21.47-12.6-35.04-11.72-1.29.08-2.58.21-3.82.39-11.81,1.66-21.61,7.47-29.2,17.26-5.45,7.07-5.88,15.18-5.45,20.13.2-5.85,1.56-11.6,4.01-16.91,3.29-6.62,7.44-8.5,10.34-8.91,1.61-.24,3.26-.07,4.8.49,2.86.66,7.06.29,10.08-.14,2.25-.32,4.04-.69,4.54-.8,2.01-1.21,4.27-1.96,6.6-2.2,6.5-.91,15.91.29,17.84,3.16,2.13,3.19,6.9,14.53,6.92,17.16"/>
    <path class="cls-37" d="M1030.24,521.19c5.24,5.33,8.67-4.91,8.67-4.91,5-6.09,4.96-12.56,4.74-16.97-.22-4.41-5.08-4.31-5.08-4.31-4.12.48-5.95,2.72-9.3,16.66"/>
    <path class="cls-5" d="M965.55,462.92c3-4.84,8.83-10.9,12.14-15.55,1.59-.15,9.44-.35,11.09-.43,16.79-.74,39.38,8.87,41.56,14.98,1.35,3.81.51,24.57-.22,26.46-1.33,3.89-2.24,7.9-2.72,11.98-.71-7.79-6.3-16.45-7.01-19.07s2.82-15.35,1.96-15.88-16.21-5.18-33.35-4.87c-4.89.11-9.77.5-14.61,1.16,0,0-8.91,1.28-8.84,1.23Z"/>
    <path class="cls-5" d="M997.73,495.41c.9-.54,2.03-.51,2.91.07.38.32.65.74.8,1.21.21.86-.01,1.78-.6,2.44-.74.77-1.88.98-2.85.54-1.17-.59-1.75-1.92-1.39-3.18.05-.2.31-.64,1.14-1.08"/>
    <path class="cls-5" d="M968.41,495.93c-.99-.41-2.12-.19-2.89.56-.37.32-.63.75-.76,1.22-.2.87.05,1.78.66,2.42.75.75,1.9.94,2.85.46,1.15-.62,1.7-1.96,1.32-3.21-.18-.62-.61-1.15-1.18-1.46"/>
    <path class="cls-5" d="M977.28,499.94s-4.19-4.08-7.21-4.31c-4.42-.35-5.54.65-7.07,2.72,0,0,2.86-2.15,5.97-1.82s8.32,3.41,8.32,3.41Z"/>
    <path class="cls-5" d="M991.17,498.44s6.2-3.88,9.24-3.95c4.43-.09,9.7,2.54,11.13,4.67,0,0-6.95-3.88-10.07-3.72-2.98.14-10.29,3.01-10.29,3.01Z"/>
    <path class="cls-5" d="M989.61,483.9c.19,1.04.37,2.07.56,3.12.15.79.43,2.61.57,3.4,2.41-1.13,4.54-2.53,6.09-3.12,3.14-1.14,6.36-2.55,9.69-2.63,1.54-.09,3.09.14,4.54.67.45.18,1.82,1.07,2.33.68.24-.16-.41-1.36-.47-1.49-1.32-2.42-3.72-3.09-6.54-3.21-5.7-.13-11.37.75-16.76,2.59"/>
    <path class="cls-5" d="M958.9,485.32l1.7-.75c4.71-1.99,9.76-3.04,14.87-3.09.19,1.04,0,1.94.16,2.98.14.8-.07,2.14.06,2.93-2.38-.26-3.58-.49-5.09-.52-3.01-.05-6.18-.14-9.03.91-.23.08-1.07.28-1.28.37-1.96-.9-1.76-2.53-1.39-2.83Z"/>
    <path class="cls-33" d="M979.88,517.23c1.48.64,3.18.51,4.54-.35.29-.18,1.25,0,.85.25-1.9,1.11-4.21,1.25-6.23.37-.16-.08-.14-.22.07-.29.24-.08.5-.08.74,0"/>
    <path class="cls-33" d="M985.86,516.73c.89-.42,1.84-.67,2.82-.75.16-.01.31.03.44.14.08.07.1.17,0,.24-.47.26-1,.39-1.54.38-.18.02-.36-.05-.48-.18-.08-.14.07-.23.2-.23.44.01.87-.09,1.25-.31l.43.37c-.87.07-1.73.3-2.52.68-.16.08-.35.08-.52,0-.1-.06-.22-.21-.06-.29"/>
    <path class="cls-33" d="M989.74,516.8c1.18,0,2.29-.54,3.02-1.45.83-1.33,0-3.41-1.43-4.24-.15-.09-.07-.21.08-.25.21-.03.43,0,.61.12,1.24.78,1.97,2.17,1.91,3.63-.15,1.17-1.24,2-2.6,2.35-.41.1-.84.17-1.26.19-.21.02-.41-.05-.57-.18-.08-.14.07-.2.24-.21"/>
    <path class="cls-33" d="M977.78,516.66c.04-.08,0-.17-.08-.2-.02,0-.04-.01-.07-.01-.33.02-.65-.08-.91-.29l-.3.39c.65.05,1.27.27,1.82.63.12.06.27.03.36-.06.07-.06.15-.21,0-.29"/>
    <path class="cls-33" d="M978.65,516.82c-.6-.39-1.29-.63-2.01-.69-.12,0-.23.05-.3.15-.07.05-.07.15-.02.22,0,0,.01.01.02.02"/>
    <path class="cls-33" d="M975.41,516.85c-.87-.05-1.65-.59-2-1.39-.5-1.31-.16-2.79.84-3.76.06-.04.07-.13.03-.19-.02-.03-.06-.05-.09-.05-.14-.02-.29.03-.39.14-.86.83-1.3,2.01-1.17,3.2.1,1.03.77,1.92,1.74,2.29.27.1.54.15.83.16.15.01.29-.06.36-.19.05-.14-.05-.2-.15-.2"/>
    <path class="cls-33" d="M1036.11,504.98c1.43.64,1.42,2.31,1.14,3.63-.22,1.44-.67,2.83-1.33,4.13-.32.54-.91,1.61-1.64,1.73s-.72-1.09-.64-1.54c.15-.66.38-1.3.67-1.91.25-.44.41-.93.48-1.43,0-1.12-1.45-.58-2.03-.4l.29.13v-.82c.12-.63.34-1.25.64-1.82.47-1.11.97-2.22,1.52-3.3.57-1.28,1.32-2.46,2.23-3.52.18-.22.41-.4.66-.52.06-.02.14-.02.2,0,.15.1.29.23.4.37,1.43,1.63,1.94,3.87,1.35,5.96,0,.22.46.15.51,0,.56-2.05.11-4.25-1.22-5.92-.17-.25-.39-.47-.64-.63-1.4-.69-2.87,2.27-3.31,3.06-.69,1.23-1.28,2.51-1.82,3.8-.4.75-.72,1.54-.97,2.35-.05.36-.06.73-.05,1.09,0,.15.19.15.29.13.37-.12,1.25-.57,1.43,0s-.34,1.27-.52,1.7c-.39.91-1.22,2.65-.24,3.48s2.24-.91,2.67-1.55c.77-1.36,1.29-2.85,1.54-4.4.34-1.44.35-3.31-1.22-4-.18-.08-.63.16-.39.26v-.07Z"/>
    <path class="cls-52" d="M984.13,524.75c5.31-.16,15.73-2.63,15.73-2.63,0,0,.36,16.57-15.23,17.05-12.31.38-14.43-14.63-14.43-14.63,0,0,8.63.37,13.93.22Z"/>
    <path class="cls-49" d="M984.09,524.75c2.52-.08,14.3-1.34,14.3-1.34,0,0-3.28,10.81-13.76,10.8-9.9,0-13.16-9.43-13.16-9.43l12.61-.03Z"/>
    <path class="cls-22" d="M983.99,525.13c2.52-.08,10.19-.74,10.19-.74,0,0-2.72,2.85-10.25,3.07-7.53.22-10.06-2.38-10.06-2.38l10.13.05Z"/>
    <path class="cls-52" d="M969.62,523.77c.99.15,1.99.23,3,.23,2.09-.25,3.38-.84,4.89-1,2.58-.27,4.25.7,5.38.66s2.72-1.1,5.33-.97c1.52.06,5.11.22,7.06.14,1.25-.05,4.65-1.05,4.92-1s-1.89,3.92-16.01,4.34c-14.12.42-14.93-2.3-14.56-2.4Z"/>
    <path class="cls-5" d="M1031.2,449.48l1.58-1.04c-.04-.19-.06-.39-.05-.58.01-.22.01-.44,0-.66,0-.12-.07-.24-.1-.35-1.92-.7-3.98-.86-5.98-.48-.59.34-1.25.53-1.93.55-.64.23-1.25.54-1.82.91.15-.39.35-.75.59-1.09-1.16-.28-2.09-1.13-2.47-2.26-.1-.35-.21-.68-.34-1.01-.37-.52-.15-.4,0-.06,0,.02,0,.04,0,.06l.05.07c-.08-.13-.15-.27-.22-.41,0-.07-.09-.14-.13-.2-.38-.1-.74-.23-1.09-.4-1.15-.51-2.02-1.51-2.37-2.72-.05,0-.1,0-.15,0-.23-.12-.44-.29-.59-.5-.66-.8-1.14-1.73-1.42-2.72-.77-.87-1.47-1.79-2.1-2.77-.19.58-.33,1.16-.43,1.76-.98,1.11-3.37-.44-3.87-1.74-.5-1.31-1.52,2.62-1.36,1.24.14-.58-.04-1.19-.46-1.61-.58-.45-1.49-.35-2.26-.53-1.28-.42-2.27-1.44-2.66-2.72-.46-1.17-.85-2.47-2-3.24s-3.31-.49-3.53.74c-.22,1.24,1.24,1.87,2.47,2.3-1.95.48-1.71,2.95-.63,4.4.3.4.64.82.91,1.24,2.23.16,5.75-1.97,3.63-.32.01.09,0,.18-.05.26-.16.26-.47.4-.77.33-4.59,3.35-9.99,5.75-14.85,8.74-5.77,3.53-11.13,1.94-17.26,4.98-.71.35-6.99,5.8-2.36,5.45-1.68,1.1-3.19,2.45-4.48,3.99-.8,1.1-.91,2.72-1.72,3.69s-2.15,1.07-2.95,2.07c-.51.7-.88,1.49-1.11,2.32l-1.69,5.09c-.45,1.36-.91,2.91-.05,4.11s3.53,1.31,3.87-.08c.29-1.19-1.36-2.2-1.2-3.41.15-.54.47-1.02.91-1.36,2.01-1.9,4.18-3.63,6.48-5.17l.81-.57c-1.64,1.72-2.42,4.09-2.1,6.44.02.42.25.8.61,1.01.27.1.58.04.79-.16-.33,1.79-.09,3.63.69,5.28,1.69-.83,2.78-2.54,2.82-4.42.16-1.74-.1-3.53.48-5.22.64-1.89,2.47-3.11,4.46-2.97-1.79,1.33-2.16,3.87-.83,5.66.38.51.88.93,1.45,1.21-1.48.46-2.3,2.03-1.84,3.5,0,.03.02.05.03.08.23.53.64.98.84,1.52.41,1.04,0,2.19.08,3.29s1.34,2.3,2.51,1.82c1.55-1.88.84-4.41,1.13-6.69.16-.99.42-1.97.77-2.92,1.01-2.96,2.02-5.92,3.02-8.89.19-.78.61-1.48,1.2-2.03.7-.57,1.7-.57,2.4,0-1.4,2.32-2.4,4.85-2.97,7.5.62-.22,1.3.1,1.52.71.06.16.08.34.07.51-.15.75-.91,1.3-1.62,1.77s-1.47,1.03-1.61,1.82c-.35,1.88,3.26,2.82,3.26,4.71,1.17.77,2.93-.33,3.31-1.55.38-1.23,0-2.53.34-3.78.3-.85.69-1.66,1.17-2.42,1.13-2.16,1.39-4.54,2.11-6.85s2.09-4.62,4.54-5.7c-1.62.65-1.82,2.53-1.52,4.01s1.05,3.01.5,4.45c-.19.36-.34.74-.44,1.14-.18,1.48,2.42,2.23,3.81,1.32,1.24-.96,1.79-2.55,1.42-4.07-.23-1.47-.82-2.92-.64-4.4.18-1.66,1.55-2.93,3.21-3-1.62,0,2.08-3.84,2.49-4.04.91-.46,4.73-1.23,2.59.91-.55.41-1.13.78-1.73,1.1-1.21.89-1.48,2.59-.59,3.81.09.12.19.24.3.34.51-1.07,1.35-1.95,2.39-2.52.91-.49,2.04-.96,2.11-1.91-.02.88.55,1.67,1.39,1.92.87.27,1.81-.02,2.39-.73.38-.52.49-1.21,1.02-1.6.75-.55,2.06-.28,2.61-1.01.18-.25.26-.58.55-.71.32-.07.66,0,.91.22,3.47,2,5.78,5.54,6.2,9.53.66-1.59,1.05-3.28,1.15-4.99l1.09.72-1.06-1.82c-.01-1.07-.14-2.14-.39-3.19,1.89-.4,3.81-.63,5.74-.69.55-.83,1.65-1.33,2.2-2.15s-.11-2.45-1.17-2.13Z"/>
    <path class="cls-5" d="M1053.83,470.23l-.91-3.36c-.12-.54-.32-1.06-.6-1.53-.44-.65-1.22-.78-1.61-1.36s-.5-1.72-.91-2.43c-.68-1-1.5-1.89-2.44-2.64,2.52.24-.91-3.36-1.29-3.59-3.33-2.01-6.26-.95-9.41-3.29-2.65-1.98-5.6-3.56-8.1-5.77-.17.03-.35-.06-.43-.22-.02-.06-.02-.12,0-.17-1.16-1.09.76.32,1.98.21.17-.28.35-.55.52-.82.58-.95.72-2.58-.35-2.9.67-.28,1.45-.79,1.34-1.53s-1.3-1-1.93-.49c-.56.6-.94,1.34-1.09,2.14-.26.77-.68,1.61-1.45,1.82-.42.12-.91.05-1.24.35-.24.3-.33.69-.25,1.06.08.91-.47-1.68-.74-.82s-1.57,1.88-2.11,1.15c-.06-.39-.13-.78-.24-1.16-.34.63-.72,1.24-1.14,1.82-.14.65-.4,1.27-.77,1.82-.08.13-.19.24-.33.33h-.08c-.08.32-.21.63-.39.91,1.38,3.63,2.49,7.48,4.06,11.01.04,0,.07,0,.11,0,.49-.22.79-.72.75-1.26,0,.62.67.91,1.15,1.25.59.41,1.05.99,1.31,1.66.64-.82.57-1.99-.16-2.72-.32-.22-.63-.46-.91-.73-1.17-1.39.91-.91,1.42-.57.22.13,2.23,2.64,1.35,2.66.95,0,1.66,1.01,1.75,1.99,0,.98-.12,1.95-.35,2.9-.23.98.06,2.01.77,2.72.75.6,2.18.1,2.08-.91-.05-.26-.13-.51-.24-.75-.15-.99-.06-1.99.27-2.93.19-.98.05-2.22-.83-2.65,1.31.86,2.21,2.22,2.49,3.77.27,1.54.65,3.06,1.15,4.54.26.51.48,1.04.64,1.59.18.82,0,1.69.18,2.5s1.17,1.53,1.82,1.03c0-1.25,1.97-1.87,1.82-3.12-.15-.49-.47-.91-.91-1.17-.43-.27-.76-.68-.91-1.17-.08-.49.44-1.06.91-.81-.3-1.72-.84-3.39-1.62-4.96.35-.36.92-.37,1.28-.02,0,0,.02.02.02.02.33.38.56.84.65,1.34.54,1.96,1.1,3.91,1.64,5.88.2.63.34,1.27.43,1.92.15,1.51-.24,3.18.61,4.42.64.33,1.31-.47,1.37-1.19-.08-.72-.08-1.46,0-2.18.11-.35.34-.65.46-1,.3-.93-.13-1.93-1-2.36,1.33-.96,1.63-2.81.68-4.14-.1-.14-.22-.27-.34-.4,1.11-.2,2.12.85,2.43,1.96.21,1.14.29,2.29.26,3.44-.01,1.17.57,2.27,1.54,2.92.43-1.11.55-2.31.37-3.48.11.13.28.17.44.1.21-.16.33-.4.33-.66.19-1.51-.22-3.04-1.14-4.25l.44.38c1.27,1.03,2.45,2.17,3.53,3.41.24.25.41.57.48.91.09.8-.81,1.46-.65,2.25s1.65.85,2.11.05c.32-.88.27-1.85-.12-2.7Z"/>
    <path class="cls-5" d="M1004.13,436.31c1.43,1.15,5.07-2.27,4.77-.54.6.1,1.35.37,1.25.91s-1.17.61-1.82.4c-3.38-1.04-6.54-2.67-9.35-4.81-.81-.75-1.77-1.32-2.81-1.7-1.12-.38-2.35-.04-3.12.86v-1.54c-1.7.34-3.44.46-5.17.35-1.82-.2-3.54-.91-5.39-.97s-4.05.84-4.29,2.43c-.72-.44-1.82.63-1.24,1.18,2.34-.03,4.66.42,6.81,1.33l-.35-.06c-3.79-.59-7.7.64-11.32,1.98-4.37,1.62-8.66,3.41-12.85,5.37-1.16.47-2.22,1.13-3.16,1.95-.87.84-1.36,2-1.35,3.21,1.58.84,3.52-.59,5-1.68,3.72-2.72,10.55-4.23,14.75-1.98-1.61,1.1-3.91.71-5.45,2.16-.79.76-1.29,1.82-2.32,2.32-1.38.71-3.12.21-4.68.47-3.24.55-4.69,4.02-7.6,5.45-1.09.52-2.35.74-3.4,1.33s-1.82,1.82-1.16,2.72c.36.48,1.09.76,1.22,1.33.21,1.03-1.72,1.72-1.63,2.72.13,1.52,4,1.22,3.63,2.72-.16.34-.41.64-.72.86-1.64,1.52-1.98,3.71-2.23,5.72-.17,1.43,0,3.3,1.6,3.63,1.33.1,2.54-.81,2.81-2.12.12-1.15.07-2.32-.15-3.46-.17-1.24.41-2.45,1.48-3.1.54-.28,1.19-.36,1.7-.69,1.04-.68.98-2.06,1.86-2.89s2.06-.84,2.95-1.46c.58-.46,1.04-1.05,1.35-1.72.67-1.24,1.35-2.46,2.03-3.69,1.49-.69,3.1-1.08,4.74-1.15,1.63,0,3.32.91,3.51,2.32l-5.93,3.08,2.51,2.57c-.98.6-2.07,1.01-3.21,1.22-1.11.35-2.27,1.14-2.2,2.13,0,.46.34.91.35,1.33.09,1.57-2.72,2.19-3.31,3.69-.44,1.07.65,2.32,1.96,2.23-1.91.95-3.31,2.69-3.82,4.76-.27,1.01-.08,2.09.52,2.94.74.91,1.97,1.27,3.09.91,3.08-1.13,1.06-6.44,4.26-7.27.7-.05,1.39-.17,2.06-.35,1.27-.6,1.05-2.36,2.2-3.13s3.2-.19,3.98-1.26"/>
    <path class="cls-5" d="M1016.72,451.38c-.54.91-3.14-.2-2.64.65-.3.17-.65.47-.49.74s.74.09,1.06-.15c1.59-1.23,2.96-2.72,4.03-4.42.29-.56.68-1.05,1.16-1.45.51-.42,1.24-.48,1.82-.15l-.3-.83c.97-.16,1.92-.44,2.82-.84.91-.47,1.71-1.18,2.72-1.59s2.32-.35,2.72.45c.3-.37,1.1,0,.91.38-1.25.45-2.4,1.15-3.37,2.05l.17-.1c1.9-1.06,4.23-1.18,6.43-1.19,2.65,0,5.29.1,7.91.32.71.02,1.41.16,2.07.42.63.27,1.12.8,1.35,1.44-.67.77-1.99.38-3,.1-2.52-.73-6.46-.17-8.25,1.86,1.07.27,2.22-.4,3.31.08.52.34,1.09.6,1.69.77.91.11,1.7-.5,2.59-.67,1.82-.35,3.3,1.22,5.12,1.38.69.06,1.4-.07,2.08,0s1.33.62,1.14,1.21c-.09.33-.43.63-.38.95.09.58,1.25.57,1.42,1.14.23.84-1.89,1.44-1.38,2.16.16.15.35.26.55.32,1.06.56,1.89,1.49,2.32,2.61.37.73.65,1.76-.15,2.23-.68.32-1.5.1-1.92-.54-.29-.59-.49-1.22-.6-1.87-.16-.68-.71-1.21-1.4-1.35-.35.02-.7.02-1.04,0-.69-.15-.91-.91-1.56-1.17s-1.27,0-1.87-.19c-.4-.13-.76-.36-1.05-.65l-1.82-1.55c-.92-.07-1.85.03-2.72.32-.86.35-1.59,1.15-1.42,1.93l3.77.47-.83,1.86c.65.12,1.31.12,1.95,0,.66,0,1.43.15,1.59.7.07.25,0,.53.07.78.26.85,1.87.63,2.5,1.31.32.46.21,1.09-.25,1.42-.1.07-.22.13-.35.16,1.21.14,2.3.81,2.98,1.82.34.49.45,1.1.31,1.67-.23.63-.81,1.06-1.47,1.09-1.87,0-1.82-3.22-3.71-3.02-.38.11-.77.18-1.16.22-.8-.06-1.03-1.04-1.82-1.23s-1.74.53-2.37.11"/>
    <path class="cls-5" d="M959.89,443.03c-.36-.93-.5-1.93-.4-2.92.16-1.05.98-1.88,2.03-2.06.91-.1,1.88.36,2.63-.07.5-.29.68-.86.96-1.34s.84-.91,1.4-.74c.21.1.4.24.55.41.68.7,1.68.98,2.62.74.84-.28,1.3-1.08,2.03-1.54.83-.5,1.86-.54,2.72-.12.48.25.91.64,1.49.56.25-.05.48-.16.68-.31.91-.56,2.21-1.05,3.03-.39.6.57.64,1.51.07,2.12-.02.02-.05.05-.07.07-.67.57-1.52.9-2.41.91-.91.05-1.82,0-2.66.09-.49.03-.95.22-1.33.54-.24.29-.39.64-.45,1.02l-1.11,4.3c-.08.69-.47,1.31-1.07,1.67-1.06.44-2.11-.6-3.17-1.03-.33-.15-.69-.18-1.04-.1-.33.08-.56.39-.53.74-.56-.61,0-1.55.76-2s1.63-.76,2.02-1.48l-4.28.66c-.51.1-1.03.1-1.54,0-.96-.24-1.82-1.19-2.72-.82"/>
    <path class="cls-5" d="M956.49,451.62c-.36-.93-.5-1.93-.41-2.92.17-1.05.98-1.88,2.03-2.06.91-.1,1.87.36,2.63-.07.5-.29.68-.91.96-1.34s.84-.91,1.4-.74c.21.1.4.24.55.41.68.7,1.68.98,2.62.74.84-.28,1.3-1.08,2.03-1.54.83-.5,1.86-.55,2.72-.12.48.25.91.64,1.5.56.25-.05.48-.16.68-.31.91-.56,2.21-1.05,3.03-.39.6.55.64,1.49.09,2.09-.03.03-.06.06-.09.09-.66.58-1.51.91-2.4.91-.91.06-1.82,0-2.66.1-.92-.06-1.73.62-1.82,1.54l-1.12,4.32c-.07.69-.47,1.31-1.07,1.66-1.06.44-2.11-.59-3.18-1.02-.32-.15-.68-.18-1.03-.1-.34.08-.56.39-.53.74-.56-.61,0-1.55.76-2.01s1.63-.75,2.02-1.47l-4.29.66c-.51.1-1.03.1-1.53,0-.96-.24-1.82-1.19-2.72-.82"/>
    <path class="cls-5" d="M1007.99,434.55l-.91-2.84c-.15-.32-.15-.69,0-1.02.38-.54,1.34-.25,1.77.25s.66,1.18,1.25,1.52c.2.08.39.21.54.36.09.18.11.38.05.57-.09.74.13,1.71.91,1.82.06-.42.28-.8.61-1.06.37-.26.88-.18,1.15.18l.95-2.15c.12-.25.29-.55.6-.57.28.03.52.19.64.44.44.72.65,1.56.61,2.41-.06.35-.06.7,0,1.04.11.36.46.6.84.56.27-.05.51-.28.78-.22s.3.62.28,1c0,1.24,1.82,1.96,1.88,3.2,0,.39-.14.76-.14,1.15-.02.42.29.77.71.81.48,0,.67-.58.71-1.02.1-1.23.1-2.61,1.09-3.43,1,.7,0,2.37.77,3.25.21.24.54.38.74.62.22.32.34.71.34,1.1l.52,6.27c.05.17.05.35,0,.53-.24.51-1.04.44-1.6.24-1.45-.59-2.79-1.43-3.95-2.48-3.55-3-6.4-6.7-10.34-9.26-1.03-.53-1.92-1.27-2.62-2.19.43-.14.77-.48.91-.91"/>
    <path class="cls-5" d="M1008.77,434.35l-.51-1.63c-.2-.51-.36-1.03-.47-1.56-.05-.15-.05-.31,0-.46-.45.07-.54.13-.27.15.18.08.34.18.5.3.28.33.53.68.75,1.05.12.18.27.34.44.47.16.13.45.2.57.35s.07.79.1,1.14c.03.73.56,1.34,1.27,1.47.36.07,1.16-.09,1.26-.52.05-.2.19-.43.23-.62s.12-.18-.13,0c.07.05.12.11.15.18.28.44,1.35-.05,1.51-.4l.56-1.27.26-.59.13-.29c.14-.16.11-.2-.08-.1h-.58c.36,0,.56.66.68.91.15.39.24.8.26,1.22,0,.74-.26,1.65.52,2.13.28.16.59.22.91.18.19-.03.39-.07.57-.14.09-.02.17-.06.25-.1h-.36v.11c-.04.26-.04.53,0,.79.03.26.11.51.25.73.31.45.67.86,1.05,1.24.46.46.64,1.14.46,1.77-.17.56.09,1.17.63,1.43.67.21,1.41.03,1.91-.47.38-.61.55-1.33.49-2.04,0-.8.31-1.57.85-2.16l-1.35.19c.68.54.33,1.53.38,2.28.02.36.16.7.39.97.18.21.44.32.63.51.21.21.33.49.36.78.2,1.28.23,2.62.34,3.91l.16,2.02c0,.3,0,.62.06.91l-.06.16c.31-.09.4-.14.25-.14,0-.05-.3-.05-.36-.07-2.23-.68-4.13-2.55-5.78-4.11-1.64-1.56-3.31-3.33-5.05-4.9-.97-.9-2.01-1.72-3.11-2.46-1.14-.59-2.14-1.41-2.95-2.41l-.43.61c.62-.22,1.12-.71,1.36-1.33.17-.5-1.39-.31-1.56.2-.05.23-.2.42-.41.52-.23.1-.61.32-.42.61.81.99,1.82,1.81,2.95,2.4,1.07.73,2.08,1.53,3.03,2.4,1.99,1.82,3.79,3.76,5.76,5.57.95.89,1.96,1.71,3.02,2.45.98.81,2.16,1.33,3.42,1.49.54.02,1.06-.14,1.51-.44.54-.42.46-.95.41-1.57l-.38-4.54c.04-.74-.08-1.49-.34-2.19-.29-.52-.91-.65-1.12-1.25-.28-.91.36-2.13-.55-2.85-.43-.24-.96-.19-1.34.13-.54.49-.91,1.15-1.04,1.87-.05.73-.14,1.47-.28,2.19-.04.09-.08.17-.13.25l.33-.08c.32,0,.41,0,.26-.13s-.2-.25-.23-.43c-.06-.44.17-.91.12-1.34-.14-.58-.46-1.1-.91-1.48-.47-.38-.81-.89-.97-1.47-.06-.62.15-1.28-.68-1.4-.22-.04-.44-.04-.65,0l-.35.2h-.07c-.1.05-.11.05,0,0,.13.13-.05-.18,0-.14-.05-.13-.1-.26-.14-.39-.03-.3-.03-.61,0-.91.02-.85-.21-1.7-.67-2.42-.54-.67-1.52-.77-2.18-.23-.04.03-.08.07-.12.11-.29.33-.51.72-.64,1.14l-.74,1.66,1.51-.4c-.39-.61-1.36-.51-1.94-.29-.69.25-1.2.86-1.33,1.58l1.26-.52c-1.09-.24-.25-1.82-.84-2.41-.2-.19-.49-.25-.7-.44-.19-.19-.36-.41-.51-.64-.24-.47-.61-.87-1.07-1.14-.83-.41-2.34-.28-2.72.7-.11.6,0,1.21.27,1.74l.66,2.13c.16.53,1.72.09,1.56-.42h-.05Z"/>
    <path class="cls-5" d="M1046.53,469.55c1.07,1.2,1.71,2.72,1.82,4.32-.03.68.05,1.37.24,2.03.36.91,1.24,1.41,1.82,2.15,1.25,1.61.95,3.93-.66,5.17-.23.18-.48.33-.75.45-.15.08-.32.11-.49.11-.59-.08-.63-.91-.64-1.48-.11-1.81-1.51-3.27-3.31-3.45-.23.01-.46-.04-.66-.15-.22-.22-.33-.52-.31-.83-.1-1.82-.12-3.63-.06-5.45"/>
    <path class="cls-37" d="M819.06,445.25l2.82,9.33,1.86,8.33s-13.75,4.03-17.67,3.85-13.14.57-13.14.57c.55,1.08.71,2.32.44,3.5-.39,1.34-1.32,2.46-2.57,3.09l-4.44-5.83c-.94,2.9-3.61.94-3.61.94l-3.24-5.17c-.99,3.64-4.53,1.19-4.53,1.19l-2.18-7.42c-.86,1.29-1.97,2.41-3.25,3.27-1.68.94-2.45-2.01-2.45-2.01l5.78-12.16,17.33-6.46,28.85,4.97h0Z"/>
    <path class="cls-44" d="M783.76,445.2c-1.12.41-2.2.89-3.25,1.43-1.19.6-2.5,1.26-3.77,2.09-1.25.76-2.41,1.66-3.47,2.67-.56.48-.9,1.16-.94,1.89-.03.56-.03,1.12,0,1.68-.05,1.1.14,2.19.57,3.21.1,0,0-1.19,0-3.19,0-.49,0-1.07.07-1.59.06-.55.33-1.05.76-1.4,1.05-.94,2.19-1.78,3.4-2.52,1.26-.8,2.53-1.46,3.71-2.09s2.21-1.21,3.1-1.58c.98-.37,2.01-.58,3.06-.61-1.03-.43-2.19-.43-3.22,0Z"/>
    <path class="cls-44" d="M787.21,451.54c-1.73.77-4.22,1.59-6.82,2.95-.7.31-1.33.77-1.84,1.35-.31.63-.52,1.31-.63,2.01-.29,1.13-.29,2.32,0,3.45.27.71.61,1.4,1,2.06.13.24.28.48.44.7-.02-.28-.07-.56-.17-.82-.29-.67-.54-1.37-.74-2.08-.2-1.07-.13-2.18.19-3.22.11-.59.3-1.16.56-1.71.45-.45.98-.82,1.57-1.08,2.52-1.31,5.01-2.24,6.68-3.16.96-.41,1.83-1.01,2.56-1.75-.96.37-1.89.8-2.79,1.29Z"/>
    <path class="cls-44" d="M785.48,466.16c-.39-.65-.58-1.4-.54-2.15.11-.88.64-1.66,1.42-2.08.84-.46,1.75-.78,2.69-.94l2.4-.58c.6-.16,1.15-.35,1.51-.42.19-.02.38-.02.57,0,.06,0-.13-.27-.58-.3-.56.02-1.12.08-1.67.18l-2.42.41c-1.05.12-2.06.44-2.98.94-1.01.56-1.67,1.59-1.75,2.74,0,.89.27,1.77.8,2.49.41.67.99,1.22,1.67,1.6.1-.06-.47-.72-1.1-1.9Z"/>
    <path class="cls-29" d="M1140.89,168.65c.1.44.04.89-.16,1.29-.1.19-.22.37-.38.52l-.22.19-.11.07h-.08c-.08,0-.29.13-.2.24s.35,0,.45,0c1.01-.4,1.61-1.46,1.42-2.53-.05-.19-.74,0-.69.19l-.04.04Z"/>
    <path class="cls-29" d="M1139.6,168.65c-.42.97-1.11,1.81-1.98,2.41-.1.08-.18.23,0,.32.16.07.35.05.49-.06.96-.65,1.72-1.56,2.19-2.61.14-.34-.54-.3-.65-.06h-.05Z"/>
    <path class="cls-29" d="M1137.66,169.05c-.61,1.04-1.41,1.96-2.36,2.71-.11.09-.07.22.07.25.17.02.35-.02.48-.13.99-.78,1.82-1.74,2.44-2.83.08-.13-.07-.2-.18-.2-.17-.02-.34.05-.45.19v.02Z"/>
    <path class="cls-29" d="M1135.12,169.99c-.06.54-.27,1.06-.6,1.5-.16.21-.35.4-.57.57-.2.15-.42.27-.65.35-.08,0-.28.14-.19.25s.34,0,.44,0c1.21-.43,2.07-1.49,2.25-2.75,0-.25-.66-.11-.68.09h0Z"/>
    <path class="cls-29" d="M1133.1,170.4c-.69.65-1.4,1.27-2.11,1.89-.1.08-.19.24-.05.33.15.09.34.09.49,0,.75-.65,1.51-1.32,2.24-2,.07-.07.08-.18.02-.25-.03-.03-.06-.05-.1-.06-.17-.05-.35,0-.48.12v-.03Z"/>
    <path class="cls-29" d="M1144.51,169.21c.18.88.82,1.6,1.68,1.89.17.05.36,0,.48-.13.09-.12.08-.27-.08-.32l-.14-.06h-.08l-.24-.14-.25-.19h0l-.1-.11c-.07-.08-.12-.16-.18-.24l-.08-.13v-.06h0c-.08-.18-.14-.37-.18-.57,0-.16-.28-.17-.41-.13s-.31.14-.28.31l-.14-.12Z"/>
    <path class="cls-29" d="M1146.37,168.94c.61.94,1.44,1.71,2.42,2.25.16.05.34.02.48-.08.09-.05.2-.15.07-.23-.95-.53-1.75-1.29-2.33-2.2h-.18c-.09-.01-.18-.01-.27,0-.09,0-.26.13-.19.25h0Z"/>
    <path class="cls-29" d="M1148.56,168.64c.94,1.3,2.14,2.72,3.9,2.83.18.02.35-.06.44-.21.04-.11-.01-.23-.12-.27-.03-.01-.06-.02-.09-.01-1.59-.12-2.62-1.49-3.5-2.66-.19-.25-.84,0-.63.3v.02Z"/>
    <path class="cls-29" d="M1151.37,168.89c.62.92,1.63,1.49,2.74,1.54.17.01.34-.06.45-.19.08-.13-.08-.2-.19-.2-.97-.08-1.84-.6-2.37-1.42-.08-.12-.35-.06-.44,0s-.27.15-.19.27h0Z"/>
    <path class="cls-29" d="M1153.58,168.29c.66,1.39,2.06,2.26,3.59,2.25.17,0,.34-.06.46-.17.08-.12-.08-.13-.17-.13-1.39-.05-2.63-.87-3.21-2.13-.08-.19-.75,0-.68.19h0Z"/>
    <path class="cls-29" d="M1156,168.26c1.34,1.24,2.93,2.41,4.85,2.26.12,0,.37-.09.39-.24s-.19-.17-.3-.17c-1.67.12-3.14-1.07-4.3-2.13-.19-.17-.83.09-.63.27Z"/>
    <path class="cls-37" d="M868.25,255.69s-.44,26.75,3.2,35.63l-23.78,7.94-22.64,1.36c.68-2.66-.94-28.97-.94-28.97"/>
    <path class="cls-44" d="M824.5,291.27c1.29.17,2.75-.1,4.38,0,11-.44,10.71-2.19,25.62-11.11,4.67-2.83,3.58-6.45,4.45-7.14-15.1-.05-30.06.89-45.83,1.25,1.72,2.44,3.3,4.98,5.12,7.35.02.03.04.07.05.11.12-.12.32-.12.44,0,.02.02.03.03.04.05,1.28,1.59,3.69,2.4,4.82,4.1.94,1.46.76,3.61.94,5.42"/>
    <path class="cls-12" d="M879.69,236.36s1.97-6.81,4.15-23.02c1.94-14.51-21.11-25.93-34.91-27.75-7.55-1-32.75,2.83-39.2,6.02s-9.65,12.16-10.12,24.85c0,0,3.69-12.68,11.73-12.58,6.6.08,27.6-3.69,33.18-1.46,5.59,2.23,17.93,6.91,18.96,26.72.27,5.42,9.76-.53,12.47,2.68s3.74,4.54,3.74,4.54Z"/>
    <path class="cls-37" d="M863.14,263.64s-4.44,11.77-8.36,14.68c-2.91,2.17-13.61,7.55-17.37,9.32-1.39.66-2.89,1.04-4.42,1.12l-4.51.23s-9.74-.37-10.47-.42c-1.33.08-2.6-.51-3.42-1.56-.84-1.04-6.15-8.94-6.15-8.94-.46-.76-2.75-4.72-4.57-8.35-1.7-3.67-2.83-7.59-3.34-11.6-.51-3.23-.59-5.5.94-10.85.38-1.35.38-2.78,0-4.13-.8-3.02-1.17-6.6-2.16-10.61-.22-.72-.35-1.46-.39-2.21,0,0-1.49-10.1,1.34-16.26,2.83-6.16,5.88-11.71,10.31-13.01s18.49-5.15,18.49-5.15l17.64-1.01,15.75,7.15,8.98,16.37-.42,21.87-1.69,19.6"/>
    <path class="cls-12" d="M864.55,241.12c0,1.69.21,8.4.07,10.05l8.73-.44c2.45-5.87,5.4-12.78,6.35-14.36,1.49-2.47,1.37-14.24,1.32-18.67v-.94c0-4.25-4.3-10.86-11.42-17.69-7.84-7.55-21.45-11.51-34.66-10.15-1.25.13-2.51.3-3.72.52-11.46,2.06-20.84,8.1-27.88,17.93-5.09,7.11-5.19,15.1-4.59,19.88-.02-5.72,1.1-11.39,3.3-16.67,2.96-6.6,6.94-8.58,9.76-9.09,1.57-.3,3.2-.2,4.72.3,2.83.54,6.9,0,9.84-.51,2.19-.39,3.92-.82,4.4-.94,1.92-1.26,4.09-2.08,6.37-2.4,6.32-1.13,15.55-.3,17.54,2.43,2.2,3.03,7.28,13.92,7.4,16.49"/>
    <path class="cls-37" d="M868.52,260.28c5.31,5.02,8.29-5.11,8.29-5.11,4.66-6.14,4.38-12.45,4-16.76-.38-4.3-5.11-4.03-5.11-4.03-4.01.62-5.72,2.83-8.49,16.61"/>
    <path class="cls-12" d="M803.17,205.81c2.75-4.85,8.22-11,11.32-15.64,1.55-.22,9.2-.7,10.81-.83,16.38-1.34,38.8,7.21,41.14,13.09,1.47,3.67,1.42,23.98.77,25.85-1.17,3.84-1.93,7.8-2.26,11.8-.94-7.55-6.76-15.83-7.55-18.42-.78-2.59,2.19-15.1,1.33-15.58s-16.04-4.46-32.76-3.52c-4.77.28-9.52.85-14.23,1.68-.02-.06-8.61,1.61-8.59,1.57Z"/>
    <path class="cls-12" d="M835.81,236.36c1.06-.77,2.55-.54,3.32.52.66.91.6,2.16-.15,2.99-.69.78-1.8,1.04-2.76.63-1.15-.54-1.77-1.81-1.48-3.05.05-.2.28-.64,1.08-1.09"/>
    <path class="cls-12" d="M807.19,237.95c-.99-.38-2.11-.12-2.83.65-.35.33-.59.76-.71,1.23-.16.86.12,1.74.75,2.35.77.72,1.91.85,2.83.34,1.09-.65,1.58-1.98,1.16-3.18-.2-.6-.63-1.11-1.2-1.39"/>
    <path class="cls-12" d="M815.99,241.54s-4.25-3.83-7.21-3.95c-4.33-.17-5.39.85-6.81,2.91,1.65-1.29,3.67-1.99,5.76-2,2.92.2,8.26,3.05,8.26,3.05Z"/>
    <path class="cls-12" d="M829.52,239.52s5.92-4.02,8.88-4.2c4.32-.25,9.57,2.12,11.03,4.14,0,0-6.93-3.52-9.96-3.25s-9.94,3.31-9.94,3.31Z"/>
    <path class="cls-12" d="M830.71,221.47c-.31.94-.61,1.97-.94,2.96-.23.75-.8,2.45-1.03,3.2,2.59.11,5.05-.17,6.69,0,3.25.42,6.6.63,9.6,2.08,1.37.62,2.6,1.51,3.61,2.61.32.37,1.06,1.73,1.73,1.64.27,0,.25-1.37.25-1.5-.06-2.7-1.84-4.36-4.23-5.74-4.89-2.67-10.2-4.46-15.71-5.29"/>
    <path class="cls-12" d="M798.97,229.11l-1.42,1.05h0s-.02.06-.03.09c.03.16.06.32.11.47l.04.09h0l.12.24c.08.15.17.3.27.44h0l.07.08c.06.07.12.14.18.2.06.06.12.13.19.18l.11.1.09.03.13.04.22.13.22.07.2.06c.5-.26.97-.51,1.06-.57,2.44-1.53,5.4-2.06,8.2-2.59,1.42-.27,2.57-.28,4.85-.49-.29-.72-.38-2.05-.67-2.78-.39-.95-.38-1.85-.77-2.81-4.75,1.08-9.23,3.11-13.17,5.97Z"/>
    <path class="cls-33" d="M819.18,258.33c1.48.58,3.14.39,4.45-.51.27-.2,1.22-.08.84.2-1.81,1.15-4.07,1.38-6.08.6-.16-.08-.14-.21.06-.29.24-.08.49-.08.73,0"/>
    <path class="cls-33" d="M825.01,257.62c.85-.44,1.77-.73,2.72-.85.15-.01.31.03.43.12.08.07.1.16,0,.23-.45.28-.96.42-1.49.43-.18.02-.35-.04-.48-.16-.08-.13.07-.22.19-.23.43,0,.84-.12,1.21-.35l.43.35c-.85.1-1.68.35-2.43.75-.16.08-.34.08-.5,0-.1-.06-.23-.19-.08-.27"/>
    <path class="cls-33" d="M828.79,257.54c1.15-.04,2.21-.6,2.9-1.53.76-1.34-.1-3.34-1.54-4.09-.16-.08-.08-.2.07-.25.21-.04.42,0,.6.1,1.25.72,2.02,2.06,2,3.51-.26,1.22-1.23,2.16-2.45,2.39-.4.12-.81.2-1.23.24-.17,0-.48,0-.57-.15s.06-.21.22-.22"/>
    <path class="cls-33" d="M817.11,257.85c.04-.07.01-.15-.06-.19-.03-.02-.06-.02-.1-.02-.31.02-.62-.06-.88-.25l-.27.38c.63.03,1.24.23,1.77.56.12.05.27.02.36-.08.07-.07.13-.22,0-.28"/>
    <path class="cls-33" d="M817.97,257.98c-.6-.37-1.29-.57-1.99-.6-.12,0-.23.05-.29.15-.06.07-.06.17,0,.24"/>
    <path class="cls-33" d="M814.81,258.13c-.85-.02-1.63-.51-2-1.28-.54-1.26-.27-2.72.68-3.71.06-.04.07-.13.02-.19-.02-.03-.05-.05-.09-.05-.14-.02-.29.04-.38.15-.81.84-1.19,2.01-1.02,3.16.12,1.01.81,1.86,1.78,2.17.26.09.54.14.81.13.1,0,.3-.06.35-.2s-.06-.19-.16-.19"/>
    <path class="cls-13" d="M871.36,247.35c3.61-8.8,6.26-8.9,6.26-8.9,0,0,1.8,2.01.94,6.09"/>
    <path class="cls-13" d="M872.74,248.13c2.36-.26.59,4.19,1.26,5.22s1.5-1.75,1.75-5.09c0,0-.06-4.51-2.3-5.3"/>
    <path class="cls-52" d="M823.8,265.09c5.24-.22,13.77,1.13,13.77,1.13,0,0-1.24,10.54-13.38,11.03s-13.27-10.66-13.27-10.66c0,0,7.64-1.28,12.88-1.5Z"/>
    <path class="cls-49" d="M823.75,265.09c2.48-.09,12.01.44,12.01.44,0,0-2.6,7.11-11.6,7.49-9.76.4-11.55-7.76-11.55-7.76l11.14-.17Z"/>
    <path class="cls-22" d="M823.66,265.47c2.48-.1,10.05.23,10.05.23,0,0-2.62,1.77-10.09,2.09-7.46.31-9.95-2.24-9.95-2.24l9.99-.08Z"/>
    <path class="cls-52" d="M810.92,266.59c.81-.62,1.67-1.18,2.56-1.68,1.89-.94,2.27-1.28,3.77-1.45,2.54-.3,4.2.63,5.31.58s2.68-1.11,5.24-1.02c1.5,0,4.48,1.15,6.69,2.06,1.15.47,2.83,1.08,3.09,1.14s.21-.29-13.72.27-13.31.2-12.94.09Z"/>
    <path class="cls-5" d="M711.37,837.7s-5.52,5.08-8.67,3.94c-3.15-1.13-5.78-14.79-6.66-18.33-.89-3.54-12.81-49.58-13.56-54.22s-2.82-29.84,2.32-34.16c0,0,8.65-7.32,13.03.62,4.39,7.95,4.05,14.33,9.17,21.63,6.03,8.43,13.57,15.67,22.23,21.37,0,0,8,6.67,7.43,10.46-.57,3.79-7.25,8.87-8.58,12.08s-1.59,17.68,6.15,20.38,5.12,4.07,4.45,6.99c-.67,2.92-12.67,9.26-18.73,8.95-2.86-.25-5.73-.15-8.57.29Z"/>
    <path class="cls-35" d="M711.37,837.7s-5.05-20.7-9.54-29.33c-4.5-8.63-13.09-31.94-14.88-44.52-1.78-12.58.86-30.81.86-30.81,0,0-2.16-.89-4.84,5.05-2.68,5.93-2.6,23.25.99,37.79,3.59,14.54,8.62,35.87,9.49,40.42.88,4.54,4.87,23.21,8.87,25.24,3.31,1.65,9.05-3.83,9.05-3.83Z"/>
    <path class="cls-47" d="M726.95,786.07h.06c.44.3,1.15-.05,1.57-.78l3.06-5.26c.42-.73.41-1.57,0-1.86h-.06c-.43-.3-1.14.05-1.57.78l-3.06,5.26c-.45.73-.43,1.57,0,1.86Z"/>
    <path class="cls-47" d="M723.38,781.01l.17.11c.31.22.88-.15,1.26-.81l2.3-3.94c.38-.66.44-1.37.13-1.59l-.16-.11c-.32-.22-.88.15-1.27.81l-2.29,3.94c-.4.65-.46,1.37-.14,1.59Z"/>
    <path class="cls-47" d="M720.02,776.87l.28.2c.29.19.8-.14,1.14-.73l1.64-2.79c.34-.59.39-1.23.12-1.42l-.28-.2c-.28-.19-.79.14-1.14.73l-1.64,2.75c-.34.63-.39,1.27-.12,1.46Z"/>
    <path class="cls-47" d="M716.63,773.64l.34.23c.33.22.88-.08,1.22-.67l1.63-2.8c.34-.59.36-1.25,0-1.48l-.33-.22c-.33-.23-.88.08-1.22.67l-1.64,2.79c-.32.59-.33,1.27,0,1.48Z"/>
    <path class="cls-23" d="M759.15,653.62l-15.22-1.43.45.31c-.38-1.89-.75-3.79-1.11-5.72-.97-5.08-1.94-10.17-2.91-15.27-1.38-7.32-2.74-14.64-4.09-21.96-1.57-8.59-3.12-17.19-4.64-25.8-1.57-8.94-3.1-17.88-4.58-26.81-1.38-8.3-2.68-16.62-3.9-24.95-.94-6.74-1.89-13.48-2.59-20.26-.6-6.21-.79-12.45-.57-18.69.08-6.06.55-12.1,1.42-18.1.66-4.05,1.6-8.27,3.77-11.81.8-1.34,1.86-2.52,3.1-3.46,1.74-1.09,3.65-1.88,5.66-2.32,5.5-1.56,11.08-2.82,16.72-3.77.94-.18,1.99-.35,2.98-.5.75-.11,1.05-1.15.12-1.01-3.57.55-7.12,1.23-10.65,1.99-3.17.68-6.31,1.43-9.43,2.35-2.01.47-3.94,1.23-5.74,2.25-2.7,1.94-4.72,4.68-5.76,7.83-1.56,4.53-2.51,9.24-2.83,14.02-.66,6.7-.83,13.45-.88,20.18,0,2.03.1,4.05.25,6.07.45,6.12,1.23,12.22,2.05,18.29,1.09,8.05,2.31,16.04,3.59,24.09,1.43,8.99,2.93,17.96,4.5,26.92,1.57,8.96,3.14,17.88,4.72,26.78,1.42,7.85,2.87,15.71,4.34,23.59,1.1,5.87,2.21,11.73,3.33,17.59.55,2.83,1.01,5.73,1.65,8.55,0,.12,0,.25.08.37s.27.3.44.32l15.24,1.42c.67.07,1.39-.94.47-1v-.03Z"/>
    <path class="cls-23" d="M792.29,528.54c-1.14-13.32-4.27-28.3-16.32-36.05-.54-.35-1.72.38-1.05.81,11.88,7.69,14.88,22.48,16.04,35.61.06.65,1.42.32,1.37-.37h-.04Z"/>
    <g>
      <path class="cls-27" d="M1046.49,579.52c-3.31.47-6.38,1.93-9.34,3.48-6.69,3.52-13.04,8.59-19.26,12.89-9.55,6.6-18.81,13.62-28.06,20.64-.36.27-.75.59-.84,1.03-.07.35.06.7.18,1.03,3.08,8.17,6.54,16.27,11.53,23.43s11.63,13.39,19.72,16.67c.91.37,1.89.71,2.85.54.88-.15,1.63-.69,2.36-1.22,7.08-5.09,14.75-9.31,22.04-14.11,7.28-4.8,14.28-10.28,19.41-17.33,5.13-7.05,8.27-15.88,7.14-24.53"/>
      <path class="cls-45" d="M1046.63,579.24c-6.76,1.06-12.98,5.16-18.51,8.97-6.02,4.14-11.96,8.41-17.89,12.68-6.28,4.52-12.46,9.19-18.63,13.86-.77.58-1.56,1.15-2.31,1.75-.31.25-.7.5-.88.87-.3.63-.01,1.23.21,1.83.37.99.75,1.97,1.14,2.95,1.27,3.22,2.63,6.42,4.14,9.53,5.54,11.4,14.01,22.87,26.33,27.44,3.07,1.14,5.06-.48,7.49-2.17,3.07-2.13,6.24-4.12,9.42-6.08,6.03-3.72,12.13-7.35,17.77-11.65,11.57-8.83,21.94-21.93,20.04-37.37-.04-.29-1.5,0-1.45.39,1.6,13.01-5.8,24.85-15.16,33.19-10.04,8.94-22.32,14.84-33.26,22.56-.89.63-1.65,1.08-2.86.84-.77-.16-1.51-.54-2.22-.86-1.47-.65-2.89-1.41-4.26-2.24-2.52-1.54-4.85-3.36-7-5.38-4.55-4.27-8.21-9.39-11.22-14.84-1.6-2.9-3.02-5.89-4.34-8.93-.63-1.45-1.23-2.92-1.81-4.39-.28-.7-.55-1.4-.82-2.11s-.82-1.61-.84-2.37c-.02-1.05,1.49-1.76,2.22-2.32.64-.49,1.29-.97,1.93-1.46,1.41-1.07,2.83-2.14,4.25-3.21,2.83-2.13,5.68-4.26,8.54-6.36,6.21-4.57,12.56-8.95,18.82-13.45,3.1-2.22,6.22-4.41,9.51-6.36,3.52-2.08,7.31-4.13,11.39-4.77.59-.09,1.29-.71.26-.55h0Z"/>
    </g>
    <path class="cls-45" d="M953.65,628.69c.11-10.99-.71-21.96-2.45-32.81-.09-.54-1.54-.2-1.45.39,1.73,10.77,2.55,21.67,2.45,32.58,0,.65,1.45.37,1.45-.16h0Z"/>
    <g>
      <path class="cls-23" d="M788.88,767.81c25.17-4.74,50.2-10.18,75.07-16.3"/>
      <path class="cls-31" d="M788.67,768.58c19.65-3.71,39.22-7.83,58.7-12.36,5.6-1.3,11.18-2.64,16.76-4.02.41-.1,1.42-.5,1.26-1.08s-1.26-.4-1.63-.3c-19.29,4.74-38.68,9.08-58.15,13-5.5,1.11-11.01,2.18-16.53,3.22-.49.09-1.57.33-1.65.96s.84.66,1.24.58h0Z"/>
    </g>
    <path class="cls-31" d="M897.77,708.96c6.02-8.99,9.39-20.35,6.4-31.04-.35-1.27-3.25-.49-2.9.78,2.9,10.37-.43,21.27-6.26,29.99-.41.61.36,1.08.86,1.14.73.09,1.49-.26,1.89-.87h0Z"/>
    <path class="cls-25" d="M1219.44,504.87c3.44-4.11,7.96-9.71,7.93-10.66-.04-.95.68-7.29,1.33-12.84.45-2.81-1.31-5.52-3.93-6.05-.68-.14-5.93,12.26-11.12,9.42l2.33-11.42c1.25-3.57,2.93-6.95,4.98-10.06,2.78-3.69,13.91-13.94,13.91-13.94l3.54.22,18.25,4.91.54,18.55s-3.9,26.85-6.53,29.61c-2.63,2.77-10.59,4.78-10.59,4.78-2.85,4.23-9.56,3.23-9.56,3.23-6.86,5.29-7.06-.51-7.06-.51-.19.24-.44.41-.72.51-3.05,1.03-5.36-3.31-3.29-5.74Z"/>
    <path class="cls-55" d="M1236.06,488.53c.1,4.44-.68,9.29-3.25,13-1.11,1.61-2.45,3.07-3.98,4.29-1.71,1.37-3.64,2.72-5.72,3.47-.86.31-.61,1.31.27.99,2.15-.78,4.06-2.03,5.88-3.4s3.29-2.89,4.56-4.66c2.84-3.95,3.82-9.02,3.71-13.82-.02-.76-1.48-.54-1.47.11h0Z"/>
    <path class="cls-55" d="M1242.03,490.71c-.05,2.64-.24,5.46-1.14,7.96-.9,2.5-2.66,4.44-4.58,6.23-1.94,1.8-3.85,3.99-6.12,5.33-.84.5-.07,1.28.64.85,2.55-1.51,4.65-3.86,6.82-5.87,1.95-1.81,3.71-3.84,4.62-6.37s1.18-5.49,1.23-8.24c.01-.76-1.46-.54-1.47.11h0Z"/>
    <path class="cls-55" d="M1248.54,492c-.39-.11-.09-.22-.17,0-.03.09,0,.26-.01.36-.04.46-.12.92-.2,1.38-.29,1.59-.64,3.18-.97,4.76-.22,1.05-.33,2.2-.84,3.15-.48.9-1.27,1.68-1.99,2.4s-1.45,1.34-2.27,1.9c-.4.27-.82.53-1.26.74-.12.06-.34.11-.44.19-.35.27-.26-.44.28.19-.39-.45-1.77.1-1.33.61.41.47,1.31.09,1.76-.09,1.05-.43,2.03-1.1,2.92-1.81,1.9-1.52,3.8-3.38,4.31-5.83.45-2.16.95-4.32,1.33-6.5.1-.56.58-2.11-.25-2.35-.56-.16-1.71.65-.86.9h0Z"/>
    <path class="cls-53" d="M889.74,463.01c4.01-.29,8.06-1.89,11.84-3.15,4.93-1.65,9.82-3.44,14.66-5.33,1.79-.7,3.58-1.4,5.33-2.2.41-.19.83-.55.33-.84s-1.58.14-2.03.35c-1.02.46-2.6,1.09-3.9,1.61-2.14.84-4.29,1.66-6.44,2.46-4.54,1.68-9.1,3.32-13.74,4.68-1.01.3-2.03.58-3.06.83-.45.11-.57.14-1.03.22s-.51.09-.73.1c-.52.04-1.64.2-1.93.72s.25.59.71.56h0Z"/>
    <path class="cls-44" d="M1074.21,299.37c8.44,9.16,15.36,20.87,14.78,33.71-.03.75,1.44.53,1.47-.11.59-13.03-6.35-24.93-14.92-34.23-.44-.48-1.82.11-1.33.64h0Z"/>
  </g>
</svg>