<?xml version="1.0" encoding="UTF-8"?>
<svg id="Layer_1" xmlns="http://www.w3.org/2000/svg" xmlns:xlink="http://www.w3.org/1999/xlink" version="1.1" viewBox="0 0 1334 1000">
  <!-- Generator: Adobe Illustrator 29.6.1, SVG Export Plug-In . SVG Version: 2.1.1 Build 9)  -->
  <defs>
    <style>
      .st0, .st1, .st2, .st3 {
        stroke-miterlimit: 10;
      }

      .st0, .st4 {
        fill: #a66e53;
      }

      .st0, .st2, .st3 {
        stroke: #4f2e25;
      }

      .st1 {
        stroke: #000;
        stroke-width: .1px;
      }

      .st5 {
        fill: #4f2f26;
      }

      .st6 {
        fill: #010101;
      }

      .st7 {
        fill: #18536d;
      }

      .st8 {
        fill: url(#linear-gradient1);
      }

      .st9 {
        fill: #756661;
      }

      .st10 {
        fill: #002935;
      }

      .st11 {
        fill: #f1eef7;
      }

      .st12 {
        fill: #212121;
      }

      .st13 {
        fill: #3d3d3d;
      }

      .st2 {
        fill: none;
      }

      .st14 {
        fill: #c95744;
      }

      .st15 {
        fill: #6c916a;
      }

      .st16 {
        fill: #020202;
      }

      .st17 {
        fill: #fff;
      }

      .st18 {
        fill: #a66f54;
      }

      .st19 {
        fill: #528293;
      }

      .st20 {
        fill: #0d0b09;
      }

      .st21 {
        fill: #2f4c23;
      }

      .st22 {
        fill: #251911;
      }

      .st23 {
        fill: #5e1a15;
      }

      .st24 {
        fill: #f2ebd1;
      }

      .st25 {
        fill: #475c66;
      }

      .st26 {
        fill: url(#linear-gradient);
        isolation: isolate;
        opacity: .5;
      }

      .st3, .st27 {
        fill: #4f2e25;
      }

      .st28 {
        fill: #653d2a;
      }
    </style>
    <linearGradient id="linear-gradient" x1="-5067.7" y1="-6301.5" x2="-3781.4" y2="-6301.5" gradientTransform="translate(-5681.2 4958.1) rotate(90)" gradientUnits="userSpaceOnUse">
      <stop offset="0" stop-color="#f0ebe0"/>
      <stop offset=".2" stop-color="#eee8dd" stop-opacity="1"/>
      <stop offset=".3" stop-color="#e8e1d4" stop-opacity="1"/>
      <stop offset=".5" stop-color="#ded4c5" stop-opacity=".9"/>
      <stop offset=".6" stop-color="#d0c2b0" stop-opacity=".9"/>
      <stop offset=".7" stop-color="#bdab95" stop-opacity=".8"/>
      <stop offset=".8" stop-color="#a78e73" stop-opacity=".7"/>
      <stop offset="1" stop-color="#8d6d4d" stop-opacity=".6"/>
      <stop offset="1" stop-color="#83603d" stop-opacity=".6"/>
    </linearGradient>
    <linearGradient id="linear-gradient1" x1="12711.4" y1="62.8" x2="12729.9" y2="224.9" gradientTransform="translate(13385.5 125.4) rotate(179.1) scale(1 1) skewX(.5)" gradientUnits="userSpaceOnUse">
      <stop offset=".2" stop-color="#a66f54"/>
      <stop offset=".5" stop-color="#a66f54"/>
      <stop offset=".6" stop-color="#7d533f"/>
      <stop offset=".8" stop-color="#483024"/>
      <stop offset=".9" stop-color="#211611"/>
      <stop offset=".9" stop-color="#0c0b0a"/>
      <stop offset="1" stop-color="#010101"/>
    </linearGradient>
  </defs>
  <g id="Layer_2">
    <polyline class="st24" points="1585.8 1154.3 1585.8 -128.3 -345.3 -128.3 -345.3 1154.3"/>
    <polyline class="st26" points="1585.8 1172.4 -345.3 1172.4 -345.3 -113.8 1585.8 -113.8"/>
  </g>
  <g id="Layer_3">
    <path class="st9" d="M1424.1,745.5l-1.5-.6-2.7-107.5c-4-81.2-25.9-140-72.6-144.6-31.8,0-139.3-1.5-150,6.8-3-141,12.3-253.4-217.9-253.4l-253.9.6c-2.7,62.2-10.1,124.2-19.3,185.9-11.5,77.3,11,154.1-.8,231.3-5.9,38.8,45.2,77.9,40.2,116.8-5.1,39.7-10.3,79.3-15.3,119-7.6,60.3-15,120.8-21.2,181.3h724.7v-125.8c18-5.9,30.6-25.4,30.7-47.7v-89.7c0-34.4-14.6-56.8-40.4-72.3h0Z"/>
    <path class="st9" d="M748.2,1080.9c.7-17.7,1.4-35.3,1.9-53,1.2-40.7,43-81.3,43-122l-9.4-658.3-546.2-1.5c-118.3,0-138,112.5-140.9,253.4-10.7-8.2-118.2-6.8-150-6.8-46.7,4.6-68.6,63.5-72.6,144.6l-2.7,107.5-1.5.6c-25.7,15.5-40.3,37.9-40.4,72.3v89.7c.1,22.3,12.6,41.8,30.7,47.7v125.8h888.3Z"/>
    <path class="st18" d="M468.1,289.3c-11.7,33.1,10.4,88.7,1.1,122.5-4.4,16-8.2,32.1-11.4,48.2l-10,14.4c1.8,19.2.1,75.1,35,88.1,3.4-13.9,29.4-3.2,36.3-15.3,10.3-18,20.2-7.2,20.2-7.2,0-.2-5.4-99.6-5.3-99.8l-6.5-78c-2.7-18.4-10.1-27.1-18.6-35.2l-40.9-37.8h0Z"/>
    <path class="st18" d="M444.8,540c5.5,59.2,171.6,90.7,171.6,90.7-5.3-24.5,12.7-28.9,12.7-28.9l-119.7-85.7-64.6,23.9h0Z"/>
    <path class="st18" d="M794,338c-9.3,7.1-17.6,15-22.2,33l-4.5,77.9c.1.2-14.3,85.7-14.4,85.9,0,0,9.7,3,18,22,5.6,12.8,32.6,4.9,34.5,19,36-9.3,40.3-65,44.1-83.9l-8.4-15.3c-1.5-16.4-3.6-32.8-6.3-49.2-5.7-34.6,16-69.8,7.8-103.9l-48.6,14.4Z"/>
    <path class="st18" d="M780.8,508l-105.5,103.7s18.4,2.4,15.9,27.3c0,0,157.7-55.1,156.5-114.5l-66.9-16.5h0Z"/>
    <path class="st4" d="M935,249.1s-13.8,37.1-6.2,53.3c1,2.2,5.2,4.8,5.5,6.8,0,0-18,28.9-55.3,27.1s-39.6-21.3-39.6-21.3c1.3-.8,11.5-6.4,12.8-7.2.4-.2,2-1.8,2.3-2.1.4-.5.4-1.2.4-1.9,0-17.9-.5-34.6-1.1-52.5"/>
    <path class="st27" d="M906.3,279.5s-6.9,15.8-38.9,20.4c0,0-7,2.1-12.3,0l-.3-6.5,51.5-14h0Z"/>
    <path class="st1" d="M820.4,239.8c10.1-6.7,12.5-19.2,11.7-30.5-.8-10.8,8-27.1-5.2-27-.2,0,5.1-9.1,1.2-8.4,2.6-5.9-6.2-5.6-7.1-12.4-.2-1.4-1.7-13.4,6.9-13.9,32.4-41.8,73.4-31.2,96.5-27.2,45.2,7.9,67.2,11.4,53.5,82.9-9.2,48-55.1,59.5-100.9,56.4-19.6-1.4-42.9-1.5-56.9-19.6.1,0,.3-.2.4-.3h0Z"/>
    <path class="st1" d="M922.2,89.2c-11.3,4.8-16.8,14.7-17.9,26.6,2.2,2.2,7.1,4.7,9.3,6.8.5-.8,1-1.5,1.5-2.2,2.5,2.3,9.1,4.7,11.6,7,.7-.4,3-1.3,5.7-2.3.8.7,1.5,1.4,2.3,2.1-2.1.5-3.7,1.1-4.8,1.8,2.8,2.6,10.3,4.4,13,7.2,5.8,6,12.3,14.1,18.4,19.8,1.9,1.5,3.5,2.9,4.7,4.3l-4.7,3.8,6.3,5.6c-.8,1.7-1.3,2.6-1.3,2.6l5.1,4.7s3.6-3,8.7-7.6c18.1,7.9,26.4-6.8,25.2-13.9-.5-3.1-2-5.5-3.5-7.2,7.6-8.2,13.3-15.9,12.4-19.7-1.9-7.6-13.1-24.9-18.6-33.1-1-2.6-2.2-5.1-3.5-7.4v-.2h0c-1.5-2.6-3.1-4.9-5-6.7-4.8-4.6-15.2-3.3-23.6-1.3-8.5-8.3-14.5-10.8-19.8-11.6-7.3-1.1-20,7.9-21.4,10.4-.7,1.2-.5,5.9-.2,10.3h0ZM988.9,161.3c3.2-3.1,6.6-6.4,9.8-9.7,0,1.7-.4,3.6-1.2,5.7-1.3,3.4-5.2,4.1-8.6,4ZM942.1,77.1c.7.6,2.8,4.1,5,7.8-6.1.2-11.2,1.2-13.9,1.5-.3,0-.6,0-.9.1-1.2-2.3-2.6-5.4-2.6-7.4,0-3.5,8.8-4.9,12.3-1.9h0Z"/>
    <path class="st4" d="M852,145.9c0,.2-.2.3-.4.5.1,0,.2-.1.4-.2v-.3ZM838.2,148.1v.2c.2-.2.4-.3.6-.5,0-.3-.6.2-.6.2h0ZM930.1,261.3l2-4.6c2.2,9.1,14.7,4.2,16.6-7.8,9.6-10,12.1-25.9,7.8-32.6l-.5-1c-3.2-3.1-9.3-4.9-12.4-.6-1.1,1.9-2.6,4.1-3.7,6-1.1,2.2-2.8,6.7-4.4,8.6,0,0,8.2-21.1,8.8-26.5s1.4-18.7-7.6-27c0,0-10.6-12.1-14.5-18.1l-1.5-.7c-.9,0-1.6.2-2.5.1,0-.3.3-.5.4-1.1-1.6.5-2.8,0-4,0,.3-.3,1-.5,1-.8-1.2.2-2.5-.2-3.7-.3.3-.3,1-.8,1-1.1-1.6.5-2.5-.2-3.7-.3.3-.3.7-.8.7-1.1-1.3.5-2.5.1-3.7,0,.3-.3.7-.8,1-1.1-1.6.5-2.5-.2-3.7-.3-.3,0,.7-.5.7-.8-1,.2-2.2.1-3.1,0,0-.3.7-.5.7-.8-1.9.4-2.8-.2-4-.3l1-1.1c-1.3.8-2.5.7-3.7.3.3-.3,1-.8,1-1.1-1.6.7-3.5.9-5,.2.3,0,1-.8,1-1.1-1.6,1-2.8.7-4.4.6.3-.3.7-.8,1.3-1.3-1.9,1-4.1,1.4-5.9.4.3,0,.7-.8.7-1.1-1.3,1.1,1.1-.2-.4-.6,0,0-3.6.9-3.6.6-1.3.8,3.6-4.6,2-4.7.3-.6-8.9,0-8.2-.6-1.6,1-1.3.5-3.1,0,0,0-6.7,2.9-6.3,2.7-1.6,1.3-2.2,0-4.1-.3.3-.3,1,1.3,1.4,1-1.3,1.1-.8-.3-2.3-.4,0-.3-4.9-2.2-4.9-2.5-1.6.7-1.1.9-3,.8,0-.3-1.4,3-1,2.8-1.3,1.1-1.2.1-2.7-.3l-1.6.9c-1.6,1.3.5.8-1.3.4,0-.2,6.9,1.4,7.2,1-1.2.7-2.7,1.3-4.1,1.5,0-.3.4-.8.4-1.1-1.3,1.1-3.2,1.8-5.1,1.4.3,0,.7-.5.7-.8-1.6,1.3-3.5,2-5.3,1.1h0c-1.2.8-2.9,1.6-4.5,1.7,0-.9.7-1.1.7-1.1h-1.2c-1.7,2.1,5.5,1.3,4.7,4.1,0,0-5.6,8-11.8,24.4-5.1,13.5-6.7,35.3-6.7,39.9s-2.9,11.4-3.7,15.4c-4.1,21.9,11.6,45.7,27.9,59.2,6.5,5.4,12.6,3.9,19.4,3.5,14-.9,35.5-7.9,48.5-19.4"/>
    <g>
      <path class="st6" d="M847.7,244.7c1.9,1.2,5,1.2,7.1.1.5-.2,1.9.1,1.3.5-2.8,1.4-7.2,1.2-9.7-.3-.2-.1-.2-.3.1-.4.3,0,.9,0,1.1.1"/>
      <path class="st6" d="M857,244.8c1.4-.5,2.9-.7,4.5-.7s.5.1.7.3c.1.1.1.3,0,.4-.7.3-1.6.4-2.4.3-.3,0-.6-.1-.7-.3-.1-.2.1-.3.3-.3.7,0,1.4,0,2-.3.2.2.4.4.6.6-1.4,0-2.7.2-4,.6-.2,0-.6,0-.8-.1-.2-.1-.3-.3,0-.4"/>
      <path class="st6" d="M863,245.5c1.8.1,3.9-.5,4.9-1.7,1.5-1.8.5-5.2-1.6-6.6-.2-.1,0-.3.2-.4.3,0,.7.1.9.3,1.8,1.2,2.9,4,2.5,5.8-.4,1.7-2.2,2.7-4.3,3.1-.6.1-1.3.1-2,.1-.3,0-.7-.1-.9-.3-.1-.2.1-.3.4-.3"/>
      <path class="st6" d="M844.5,243.6c.1-.2,0-.3-.2-.3-.5,0-1-.2-1.3-.5-.2.2-.3.3-.5.5,1,.2,1.9.6,2.7,1.2.2.1.4,0,.6,0,.1,0,.3-.3,0-.4"/>
      <path class="st6" d="M845.9,244c-.9-.7-2-1.1-3-1.3-.2,0-.4,0-.5.2,0,.1-.1.2,0,.4"/>
      <path class="st6" d="M840.9,243.5c-1.1-.1-2.4-1-2.9-2.3-.7-2,.3-4.2,1.8-5.4.2-.1,0-.3,0-.4-.2,0-.5,0-.6.1-1.3,1-2.3,2.7-2.2,4.5,0,1.7,1,3,2.4,3.6.4.2.8.3,1.2.4.2,0,.5,0,.6-.2,0-.2,0-.3-.2-.3"/>
    </g>
    <path class="st6" d="M938.5,234.4c1.9-3.4,4-6.8,6.4-9.8,1.2-1.5,2.5-2.9,4.1-3.9.1,0,.4-.2.6-.4,0,0,.2,0,.3-.1.1,0,0,0,0,0s0,0,.1,0c0,0,.2,0,.2,0,0,0,0,0,0,0,.1,0,0,0,0,0,0,0,.2,0,.3,0-.2,0,0,0,0,0h0s0,0,0,0c0,0,0,0,0,.1,0,0,.2.2.2.3.3.3.5.6.7,1,1.7,2.6,2.2,5.7,1.6,8.7-.1.6-.3,1.1-.4,1.7-.1.4.6.4.7,0,1.1-3.3,1-6.9-.7-10-.4-.7-.9-1.4-1.4-2-.2-.1-.2-.3-.5-.3-.7,0-1.4.2-1.9.5-1.6.8-2.8,2.1-4,3.5-2.5,2.8-4.5,6-6.3,9.2-.3.6-.7,1.1-1,1.7-.2.4.5.4.7,0h0Z"/>
    <path d="M820.7,195.1c0,0-.2-.3-.2-.3,0-.2-.2-.3-.3-.5-.3-.6-.5-1.1-.7-1.7,0,0,0-.3,0-.3,0-.2,0-.3-.1-.5,0-.3,0-.6-.1-.9,0-.1.1-.2.2-.3,4-2.6,8.7-4.3,17.2-6.9v.2c1,1.4.5.6,1.3,2,.6,1.1,1.3,2.1,1.9,3.2-4,1.1-7,1.6-9.5,2.5-3,1.1-6.4,2.2-9.5,3.6,0,0,0-.1-.1-.2h0Z"/>
    <path d="M872.5,186.7c-.6,1.5-.2.7-.8,2.2-.4,1.2-.9,2.3-1.3,3.5,4.7.7,8.3.9,11.2,1.5,5.9,1.3,12.9,2.2,18.3,5.2,2.6,1.4,6.2,3.5,7.4,6.3.3.8.5,3.1,1.7,3.1s.5-2.1.5-2.4c0-4.4-3.2-7.4-7.5-10.1-8.8-5.5-13.7-7.1-29.3-9.6"/>
    <path d="M830.7,206c-1.7-1-3.8-.4-5.1.6-.3.2-1.1.9-1.5,2-.5,1.5,0,3.2.8,4.3,1.2,1.5,3.2,1.8,4.9,1.2,2.2-.9,3.1-3.4,2.7-5.4,0-.4-.4-1.9-1.8-2.7"/>
    <path d="M846.3,213.1s-8.3-7.4-12.7-8.1c-6.5-1.1-11.2,1.5-13.7,4.6,0,0,7.4-4.2,12-3.3,4.3.9,14.5,6.9,14.5,6.9h0Z"/>
    <path d="M881.5,210.2c1.8-.8,3.9.1,5,1.2.3.3.9,1,1.2,2.2.3,1.5-.4,3.2-1.4,4.1-1.3,1.3-3.4,1.4-5,.5-2.1-1.2-2.6-3.8-2-5.7.1-.3.7-1.8,2.2-2.4"/>
    <path d="M871.5,215s9.8-6.1,14.6-6.3c8.7-.2,16.3,5.2,18.6,8.6,0,0-12-7.3-16.9-7.1-4.7.2-16.3,4.8-16.3,4.8Z"/>
    <path class="st1" d="M837.3,151.6c-1.7,7.7-11.9.4-5.9-1.1-.5-3.8,5-5,5.1-8.9.2.4.3.6.3.6,0,0,.5-4.6,2.1-5.6s8.8-4,8.8-4l2,1.7c0-.1-.7-1.7.5-2.5,1.2-.9,13.3-6.2,20.8-5.2.2,0,.5,0,.7.1l3,1.8h.1c0,0,0,0-.1,0-.5-.4-1.7-1.2-1-1.9.2-.2.7-.4,1.4-.5,1.1-.2,2.8-.2,4.6-.1h0c.2,0,.3,0,.5,0,.2,0,.3,0,.5,0h0c1.8.2,3.4.5,4.5.8.7.2,1.2.5,1.3.7.6.7-.7,1.4-1.2,1.7,0,0,0,0-.1,0h.1c0,0,3.2-1.5,3.2-1.5.2,0,.5,0,.8,0,7.5,0,18.9,7,19.9,8,1,1,.2,2.4.1,2.6l2.2-1.4s8.8,4.1,10.2,5.4c1.5,1.2,2,3.9,2,3.9,0,0,2.7,1.2,3.7.9,1-.2,5.9,2.8,7.8,5.9,1.2,2,.6,3.8,1.2,5.6h0c.3,1,.5,1.6.5,1.6l5.2,2.1c4.1,2.3,2.4,11,2.4,11,7.6,10.8,7.4,19.5,3,28.6-1.7,3.5,8.4,7.9,1.8,7.3-6.7-.6-13.7,20-13.7,20,0,0-5.1-8.6-5.1-12.4s2.6-14.9,2.6-14.9l-3.2-.7s-1.9-.9-4-5.4,2.8-11.8,2.8-11.8l1.6-4.5h-6.3c-6-1.5-5.9-8.1-5.9-8.1l1.8-10.9-3.9,3.4s-1.5,1.6-3.6,1.3c-9.4-1.4-10.1-7.3-10.1-7.3l-.9-5.6-2.5,1.4c-2.7,1.9-10.6,4.6-14.5,2.6-1-.5-5.1-4.2-5.8-4.7-2.4-2-2.5-5.6-2.5-6.9.4-.3.8-.8,1.2-1.1,1.5-1.4,2-.7.6.7-2.5,2.4-6.7,5.6-10.2,5.6-3.3,0-10.5-2-11.2-3.6-.5-1.1.5-1.1-.7-1.2-1.1,0-2,.7-2.8,1.4-1.7,1.7-3,4.3-5.3,5.3-3.4,1.4-5.2-.5-8.5-1.4-.7-.2-1.8.1-2,1h0Z"/>
    <path class="st1" d="M829.9,145s-1.8-7.2,2.6-11c4.4-3.8,21.3-19.1,48.4-17.3l-51,28.3Z"/>
    <path class="st6" d="M939.3,236.8c1.1,0,2,.6,2.2,1.8.2,1.1-.2,2.3-.5,3.4s-.7,2.2-.8,3.3c0,.7,0,1.7.8,1.8,1,.2,1.8-.9,2.2-1.6,1-1.5,1.7-3.3,2.2-5,.4-1.1.8-2.2.9-3.3,0-.9.1-1.8,0-2.7,0-2.7-.8-5.9-3.5-7.2-.2,0-.8.2-.6.3,2.3,1.1,3.1,3.8,3.3,6.2.2,1.6.1,3.3-.3,4.9-.5,1.9-1.2,3.8-2.1,5.5-.3.6-.7,1.2-1.1,1.8-.1.2-.5.7-.8.7-.3,0-.5-.5-.5-.7,0-.4,0-.8,0-1.2.2-1.1.6-2.2.9-3.3s.6-2.3.4-3.4-1.3-1.6-2.4-1.7c-.2,0-.4,0-.5.1,0,0-.1.2,0,.2h0Z"/>
    <path class="st22" d="M833.4,259.4s2.4,10.9,16.6,11.4c14.2.5,21-9.4,21-9.4-2.5-2.4-15.9-6.3-22.1-6.5-7.9-.3-15.5,4.5-15.5,4.5h0Z"/>
    <path class="st17" d="M847.7,253.9c-11.3-.3-10.5,3.7-10.5,3.7,0,0,8-.4,14.2-.1s14.1,1,14.1,1c0,0-6.4-4.4-17.7-4.7h0Z"/>
    <path class="st28" d="M833.4,259.4s-.5,14.5,16.3,15.1c16.7.7,21.5-13.6,21.5-13.6-7.8-.7-14.2,7.5-21,8.1-6.5-1.1-9-9.6-16.9-9.6h0Z"/>
    <path class="st28" d="M833.3,259.4c1.5,1,5.6-4.4,15.9-3.8s20.6,6.4,22.2,5.5c1.6-.9-11.7-8.8-14.8-9.2-3.3-.4-5.6.8-7.1.7s-3.6-1.4-7.1-1.2c-3.2.1-10.7,7.1-9.1,8.1h0Z"/>
    <path class="st3" d="M861.3,192.8c-1.9.7-4.1-.4-5.1-2.1-1.2-1.9-1-4.4,0-6.3.5-1.1,1.3-2.2,2.2-3.1.1-.1,0-.2,0-.3-.2,0-.4,0-.5.1-1.7,1.7-3,4-3.1,6.4,0,2.3,1.1,4.6,3.3,5.5,1.2.5,2.5.5,3.7,0,.1,0,.3-.2.2-.3s-.4,0-.5,0h0Z"/>
    <path class="st18" d="M348.9,185.4c6.2,21.1,8.1,49.8,5.2,71.7-.5,5-50.7,29.2-50.7,29.2l72.6,37.6,96.3-33.3s-33.6-21.9-34.8-25.9c-5-16.3,11.6-97.3,11.6-97.3"/>
    <path class="st25" d="M352.1,69.9c0,.2,0,.5,0,.8v-.8s0-1,0-1v1Z"/>
    <path class="st5" d="M370.3,228.2c1.7,1.2.1,8.2,9.1,12.8,28.7,14.8,28.4,18.1,49,17.8,3.1-.2,6.4-.2,8.8-.6,0-3.3-1.2-7,.5-9.9,2-3.2,6.3-5.1,8.6-8.2h0c.1-.2.5-.2.8,0v-.2c3.2-4.6,5.9-9.5,8.7-14.3-29.5,1.1-57.4,1-85.5,2.5h0Z"/>
    <path class="st18" d="M362.8,211.3s9.5,21.5,17.2,26.5c5.6,3.6,26.1,12.5,33.3,15.4,2.5,1,5.5,1.5,8.3,1.5h8.4c0-.1,18.1-1.9,19.4-2.2,2.3-.6,4.3-1.7,6.2-3.3,1.9-1.6,10.4-17.3,10.4-17.3.9-1.4,4.6-8.9,7.7-16,2.7-7,4.3-14.3,4.9-21.9.6-6.1.4-10.4-3.1-20.2-.8-2.4-.9-5.2-.4-7.7,1.2-5.6,1.5-12.4,2.9-20,.3-1.3.5-2.6.4-4.1,0,0,2.7-29-3.3-40.2-6-11.2-13.1-10.9-21.5-12.9s-35-7.6-35-7.6l-33,.2-28.5,15.2-15,31.7,3.2,40.7,5.4,36.3"/>
    <path class="st18" d="M353.5,188.3c-6.8-25.2-10.8-30.4-18.4-31.1,0,0-8.1,1.3-8.4,9.3s0,19.9,9.4,30.8c0,0,6.8,18.7,16.1,8.6"/>
    <path class="st6" d="M449.8,88.1c-8.2-.9-17.2.6-26.4.6-20.5.5-40.7,5.5-59.1,14.9-1.6,1.1,5.4,24.2,4.2,29-1.2,4.8-11,20.9-12,35.1-1.1-7.3-2.9-14.6-5.6-21.7-1.3-3.4-3.7-41.1-1.5-48.2,3.8-11.2,44.5-29.7,75.2-29,3,.2,17.2.2,20.2.4,6.4,8.3,15.9,14.2,21.6,22.9.2.2-16.6-3.8-16.6-4h0Z"/>
    <path class="st6" d="M410.4,157.6c1.5.7,1.9,1.5,2.4,1.8.6,2.3-.4,4.8-2.5,5.9-1.8.9-3.9.5-5.3-.9-1.2-1.1-1.6-2.7-1.2-4.4.1-.8.7-1.7,1.4-2.2,1.6-1.1,3.5-1.2,5.2-.3"/>
    <path class="st6" d="M463.9,157.3c-1.1.6-1.9,1.6-2,2.7-.7,2.3.3,4.7,2.5,5.8,1.7.9,3.8.4,5.2-.9,1.1-1.2,1.5-2.9,1.1-4.5-.2-.8-.7-1.6-1.4-2.2-1.4-1.2-3.5-1.6-5.3-.9"/>
    <path class="st6" d="M462.9,158.4c5.7-.8,11,3,11,3-3-3.8-5.1-5.5-13-4.7-5.5.6-13,8.3-13,8.3,0,0,9.7-5.9,15.1-6.6h0Z"/>
    <path class="st6" d="M403.7,157.8c-5.6-.2-18.1,7.2-18.1,7.2,2.4-3.9,12-9,20-9,5.4,0,16.9,6.8,16.9,6.8,0,0-13.2-4.9-18.8-5.1h0Z"/>
    <path class="st6" d="M425.6,133.1c-10.4-1.3-20.8-.9-30.9,1.8-5,1.3-9.1,3.3-10.5,8.1,0,.2-.7,2.6-.3,2.8,1.1.5,3.2-1.6,3.9-2.1,2.4-1.5,5-2.5,7.8-2.9,6-1.2,12.3.2,18.3,1.2,3.1.3,7.4,2.2,12.1,3.3,0-1.4-.2-4.9-.2-6.3,0-1.9-.1-3.8-.2-5.8"/>
    <path class="st16" d="M443.9,196.7c.3-.2.8-.2,1.1-.2.5.1.5.3.2.5-3.7,1.7-7.8,1.6-11.3-.4-.7-.5,1.1-.7,1.6-.4,2.5,1.5,5.7,1.8,8.4.5"/>
    <path class="st16" d="M432.8,195.9c.3.1.2.5-.1.5-.3.2-.6.2-1,0-1.5-.7-3-1.1-4.7-1.2l.8-.7c.7.5,1.5.6,2.3.5.2.1.5.3.4.5s-.5.4-.8.4c-1,0-2-.2-2.8-.7-.2-.1-.2-.3,0-.5.3-.2.5-.2.8-.2,1.8.2,3.5.6,5.2,1.4"/>
    <path class="st16" d="M425.8,196.2c.2,0,.3,0,.2.3-.1.3-.6.4-1,.4-.8-.1-1.5-.2-2.3-.4-2.3-.4-4.2-1.9-4.8-4.2-.1-2.6,1.2-5.3,3.4-6.8.3-.2.8-.2,1.1-.2.3.1.5.3.2.5-2.5,1.6-4,5.5-2.4,7.8,1.4,1.6,3.4,2.6,5.5,2.5"/>
    <path class="st16" d="M446.1,195.7c-.3.2-.1.3,0,.5.2.1.5.3.7.1,1-.5,2.1-.9,3.2-1.2l-.5-.6c-.5.4-1,.5-1.6.6h-.2c-.2,0-.1.2-.1.3"/>
    <path class="st16" d="M450.3,195.3c.1-.2.1-.3,0-.5,0-.2-.3-.3-.5-.3-1.3,0-2.6.6-3.7,1.4"/>
    <path class="st16" d="M451.8,195.7c-.2,0-.3.3-.1.5s.5.3.7.3c.5,0,1-.2,1.5-.4,1.8-.8,3-2.5,3-4.3.2-2.1-.7-4.4-2.3-5.8-.2-.3-.3-.3-.7-.3v.2c-.3.2-.3.3-.1.3,1.9,1.7,2.5,4.5,1.7,6.8-.7,1.5-2,2.6-3.6,2.7"/>
    <path class="st8" d="M327.8,162.9c1.2-1.9,3.2-4.1,6-4.1,2.4-.5,4.9,0,7.1,1.4,5,3.8,6.7,8.7,8.6,14.3,1.2,3.6,1.5,12.9,5.5,13,1.5,0,3.4-6.9,4.2-7.4,0-4.4,0-9.4-.1-11.1l.8-8.9c3.3-11.2,10.5-21.9,11.6-25.7.7-2.5-.7-10.1-1.9-16.8,6.4-9.2,13.1-20.7,19.2-23.4,7.3-1.4,18.2-2.5,35.7-1.9,7.6.6,23.4,1.7,29.1,2,2,.2,4,.6,6,.8h1c6,1.1,6.4.4,11,4.3,6.4,5.2,6,19,6,19,1.9,4.3.9,10,.8,15,.7-5.8,1.4-25.8-1.4-34.2-1.6-20.8-9.2-14.6-20.4-19.9-11.8-5.4-57.4-11.3-71.1-9.3-24.7,3.6-68.9,25.1-64.8,50.8,1.5,9.8,2.1,18.1,2.6,24.5l4.4,17.6h0Z"/>
    <path d="M320.3,106.1c-.2,4.8-.3,14.8,1.4,14,5.9-2.5,15.7-19.6,20.7-23.6,11.3-9,26.9-9.7,41.3-10.1l88.6,4c1.6,0,3.3,2.8,3.7,1.3.1-.3-1.2-7-1.2-7.5-3.4-10.6-3.8-12.5-15.7-18.1-17.2-7.9-41.1-10.9-59.7-8.9-30,3.3-83.4,5.4-79.1,48.8h0Z"/>
    <path class="st6" d="M479.1,142.8c1.4-1.7.5-3.9-.5-5.5,0-.1-.1-.2-.2-.3h-.2c-8.2-3.3-17-4.9-25.6-4.6-.3,1.9.2,3.5-.1,5.4-.2,1.4.2,3.9,0,5.3,4-.7,6.2-1.1,8.8-1.4,5.2-.4,10.5-.7,15.6.9.4,0,1.7.4,2.1.5,0-.1.2-.3.3-.4h0Z"/>
    <path class="st6" d="M488.5,152.9l.4-1.7c-15.3-6.6-33.2-4.9-44.9,4.1v.2l-10.2-.3c-11.9-6.9-33.7-9.8-52.5-2.7h0l-38.5,9.3,2.8,3.1,35.6-9.3,2.3,6.1c2.3,5.8,5,11.2,8.4,16.4,2.5,3.5,28.8,3.9,33.7.8s7.1-17.8,8.4-21.3h10.5c1.1,4.4,4.9,18.2,7,20,2.1,1.9,14.2,1,15.3,1s2.8-.1,4.4-.4c4.6-.6,8.5-1.1,10-2.8,2.5-2.6,4.8-12.1,6.7-20.9l.3-1.3M452.8,176.3c-1.4-1.1-4.4-10.8-6.2-18.2,10.1-7.6,26.1-9,39.8-4v.2c-1,4.6-4,17.4-6.3,19.9-2.8,2.9-25.1,3.8-27.3,2.1h0ZM395,177c-4.6-5.3-8.3-14.1-10.9-21.6,12.3-6.1,35.7-3.8,47.2,2.8-1.5,6.1-3.2,16.9-6.8,19.1-5.1,3.2-28,1.9-29.5-.4h0Z"/>
    <path class="st6" d="M348.5,184c-1.5-4-3.1-8.1-5.3-11.8-1-1.7-2.2-3.5-3.8-4.8-.5-.4-1.2-.9-2-1-.2,0-.4,0-.6.2-.6.4-1.1,1-1.6,1.5-2.2,2.5-3.1,5.7-3,9,0,.6.1,1.1.2,1.7,0,.3.8.1.7-.2-.5-3.4,0-7,2.2-9.8.5-.7,1.1-1.3,1.8-1.8.1-.1.6-.3,0-.1,0,0,0,0,0,0,0,0,.2,0,.1,0,.1,0,.2,0,.3.1.1,0,0,0,.2,0,0,0,.2,0,.2.1.2.1.4.3.6.4,1.4,1.1,2.5,2.6,3.4,4.1,2.4,3.9,4.2,8.2,5.7,12.4.1.3.8,0,.7-.2h0Z"/>
    <path class="st6" d="M346.6,186.1c-1,0-2.2,0-2.9.9-.6.8-.6,1.8-.6,2.7,0,1.2.2,2.4.4,3.6,0,.9.3,2-.1,2.8,0,.2-.2.3-.3.4,0,0,0,0,0,0,0,0-.2,0-.2-.1-.5-.3-.7-.9-1-1.3-.8-1.6-1.2-3.5-1.5-5.3-.2-1.3-.5-2.6-.5-3.9,0-.9.1-1.7.3-2.6.5-2.7,1.6-6.1,4.5-7,.4-.1.3-.5,0-.3-2.7.8-4.1,3.4-4.8,5.9-.5,1.7-.8,3.6-.6,5.3.3,2.2.6,4.5,1.4,6.6.2.7.5,1.4.9,2.1.2.4.5.8,1,.9.9.3,1.6-.5,1.8-1.3.2-1,0-2.1,0-3.1-.2-1.4-.4-2.8-.2-4.1,0-.5.2-1.1.6-1.5.4-.5,1-.5,1.6-.4.1,0,.4,0,.5-.1,0-.1.1-.2,0-.2h0Z"/>
    <path class="st20" d="M-129.6,966.5h1556.2c.4,0,1.6-.7.6-.7H-129c-.4,0-1.6.7-.6.7h0Z"/>
    <path class="st20" d="M-121.8,752.9h10.5c1.9,0,3.9,0,5.8,0h7c2.7,0,5.4,0,8.2,0h9.3s10.4,0,10.4,0h11.4s12.5,0,12.5,0h13.5s14.5,0,14.5,0c5.1,0,10.2,0,15.3,0H13c5.7,0,11.4,0,17.1,0,6,0,12,0,18,0h18.7c6.5,0,13.1,0,19.6,0s13.5,0,20.2,0,14,0,21,0c7.2,0,14.4,0,21.6,0s14.8,0,22.2,0,15.3,0,22.9,0,15.6,0,23.5,0h23.9c8.1,0,16.3,0,24.4,0,8.3,0,16.6,0,25,0s16.9,0,25.4,0c8.6,0,17.1,0,25.7,0,8.7,0,17.4,0,26,0,8.8,0,17.7,0,26.5,0s17.9,0,26.8,0,18,0,27,0h27.2c9.2,0,18.3,0,27.5,0,9.2,0,18.4,0,27.7,0s18.5,0,27.7,0c9.3,0,18.5,0,27.8,0,9.3,0,18.6,0,28,0,9.3,0,18.7,0,28,0s18.6,0,27.9,0,18.5,0,27.8,0c9.3,0,18.6,0,27.9,0s18.5,0,27.8,0h27.5c9.1,0,18.2,0,27.4,0s18.2,0,27.3,0h27c8.9,0,17.8,0,26.7,0h26.4c8.7,0,17.4,0,26.1,0h25.8s25.3,0,25.3,0h24.8c8.2,0,16.3,0,24.5,0,8,0,16,0,24,0s15.6,0,23.3,0,15.2,0,22.8,0,14.8,0,22.3,0c7.2,0,14.3,0,21.5,0s14,0,21,0,13.4,0,20.2,0,13,0,19.5,0,12.4,0,18.7,0,12,0,17.9,0,11.4,0,17,0c5.4,0,10.8,0,16.2,0h15.3s14.4,0,14.4,0c4.5,0,8.9,0,13.4,0h12.4s11.3,0,11.3,0h10.3s9.2,0,9.2,0h8.1c2.3,0,4.6,0,6.9,0h5.7c1.5,0,3,0,4.5,0h5.7c.5,0,1.6-.8.6-.8h-10.6c-1.9,0-3.9,0-5.8,0h-7c-2.7,0-5.4,0-8.2,0h-9.3s-10.4,0-10.4,0h-11.4c-4.2,0-8.3,0-12.5,0-4.5,0-9,0-13.4,0h-14.5c-5.1,0-10.2,0-15.3,0h-16.3c-5.7,0-11.4,0-17.1,0-6,0-12,0-18,0h-18.7c-6.5,0-13.1,0-19.6,0s-13.5,0-20.2,0h-21s-21.6,0-21.6,0c-7.4,0-14.8,0-22.2,0s-15.3,0-22.9,0-15.7,0-23.5,0h-23.9c-8.1,0-16.3,0-24.4,0-8.3,0-16.7,0-25,0s-16.9,0-25.4,0c-8.6,0-17.1,0-25.7,0-8.7,0-17.4,0-26,0-8.8,0-17.7,0-26.5,0s-17.9,0-26.8,0-18,0-27,0h-27.2c-9.2,0-18.3,0-27.5,0s-18.4,0-27.7,0-18.5,0-27.7,0c-9.3,0-18.5,0-27.8,0s-18.6,0-28,0c-9.3,0-18.7,0-28,0s-18.6,0-27.9,0c-9.3,0-18.5,0-27.8,0-9.3,0-18.6,0-27.9,0s-18.5,0-27.8,0h-27.5s-27.4,0-27.4,0c-9.1,0-18.2,0-27.3,0h-27c-8.9,0-17.8,0-26.7,0-8.8,0-17.6,0-26.4,0-8.7,0-17.4,0-26.1,0h-25.8s-25.3,0-25.3,0h-24.8c-8.2,0-16.3,0-24.5,0-8,0-16,0-24,0s-15.6,0-23.3,0-15.2,0-22.8,0-14.8,0-22.3,0c-7.2,0-14.4,0-21.5,0-7,0-14,0-21,0s-13.4,0-20.2,0h-19.5s-18.7,0-18.7,0h-18c-5.7,0-11.4,0-17,0-5.4,0-10.8,0-16.2,0h-15.3s-14.4,0-14.4,0c-4.5,0-8.9,0-13.4,0s-8.3,0-12.4,0h-11.4s-10.3,0-10.3,0c-3.1,0-6.1,0-9.2,0h-8.1c-2.3,0-4.6,0-6.9,0h-5.7c-1.5,0-3,0-4.5,0h-5.7c-.5,0-1.6.8-.6.8h0Z"/>
    <path class="st20" d="M1196,511.4c-10.2,13.6-19.8,28.1-26.8,43.7-3.7,8.2-6.1,16.7-7.5,25.5-1.5,9.7-1.9,19.6-2.3,29.5-.5,13.4-.9,26.8-1.2,40.2-.4,15.7-.7,31.3-1,47-.3,13.9-.5,27.8-.8,41.7,0,1.4,0,2.7,0,4.1,0,.7,1.4.4,1.5-.2.3-13.3.6-26.6.8-40,.3-15.7.6-31.3,1-47,.3-13.9.7-27.8,1.2-41.6.7-18,1.1-36.5,7.6-53.6,3.1-8,7.1-15.7,11.5-23s9.2-14.6,14.2-21.6c1.1-1.5,2.2-3.1,3.4-4.6.4-.6-1.1-.5-1.4,0h0Z"/>
    <path class="st20" d="M1253.1,511.6c-10.2,13.6-19.8,28.1-26.8,43.7-3.7,8.1-6.1,16.6-7.5,25.5-1.5,9.7-1.9,19.6-2.3,29.5-.5,13.4-.9,26.8-1.2,40.2-.4,15.7-.7,31.3-1,47-.3,13.9-.5,27.8-.8,41.7,0,1.4,0,2.7,0,4.1,0,.2,1.4,0,1.4-.4.3-13.3.6-26.6.8-40,.3-15.7.6-31.3,1-47,.3-13.9.7-27.8,1.2-41.6.7-18.1,1.1-36.8,7.7-53.9,3.1-7.9,7.1-15.5,11.4-22.8,4.4-7.4,9.2-14.6,14.2-21.6,1.1-1.5,2.2-3.1,3.4-4.6,0,0-1.2,0-1.4.3h0Z"/>
    <path class="st20" d="M98.9,513.9c10.2,13.6,19.8,28.1,26.8,43.7,3.7,8.2,6.1,16.8,7.4,25.7,1.5,9.7,1.9,19.6,2.3,29.4.5,13.3.9,26.7,1.2,40,.4,15.7.7,31.3,1,47,.3,13.8.5,27.5.8,41.3v4.1c.1.7,1.6.5,1.6-.1-.3-13.4-.6-26.8-.8-40.1-.3-15.7-.6-31.5-1-47.2-.3-13.9-.7-27.8-1.2-41.7-.7-18.1-1.1-36.7-7.8-53.8-3.1-7.8-7-15.3-11.3-22.6-4.4-7.5-9.2-14.7-14.3-21.8-1.1-1.5-2.2-3.1-3.4-4.6-.4-.5-1.8,0-1.3.6h0Z"/>
    <path class="st20" d="M41.8,513.9c10.2,13.6,19.8,28.1,26.8,43.7,3.7,8.2,6.1,16.8,7.4,25.7,1.5,9.7,1.9,19.6,2.3,29.4.5,13.3.9,26.7,1.2,40,.4,15.7.7,31.3,1,47,.3,13.8.5,27.5.8,41.3v4.1c.1.7,1.6.5,1.5-.1-.3-13.4-.6-26.8-.8-40.1-.3-15.7-.6-31.5-1-47.2-.3-13.9-.7-27.8-1.2-41.7-.7-18.1-1.2-36.7-7.8-53.8-3.1-7.8-7-15.3-11.3-22.6-4.4-7.5-9.2-14.7-14.3-21.8-1.1-1.5-2.2-3.1-3.4-4.6-.4-.5-1.8,0-1.3.6h0Z"/>
    <path class="st4" d="M806.7,937.6c-.8-3.8-2.6-13.2-4.8-24.1h-71.5c27.5,60.3,53.9,118.7,53.2,122.2-2,10.1-44.5,67.7-44.5,67.7,0,0,42.6-4.2,61-10.1,18.4-5.9,33.4-55.2,33.4-55.2l-7.9-19.7-18.8-80.7h0Z"/>
    <path class="st4" d="M878.8,1028.8s-15,49.3-33.4,55.2c-18.4,5.9-61,10.1-61,10.1,0,0,42.5-57.6,44.5-67.7,1.1-5.5-65.7-148.4-97.2-219-21.8-49-35.1-89.4-35.1-89.4l87.3-18.8,19.7,74.7,8.1,13c4.2,6.8,11,19.1,13.9,26.6,7.9,20.2,14,56.5,16.5,67.4,4.1,18.3,8.5,40.8,9.8,47.3l18.8,80.7,7.9,19.7h0Z"/>
    <path class="st7" d="M732.9,735.3c-1.4-4.6-1,12.8-2.8,8.4-4.1-10.1-9.1-19.7-14.6-28.9-5.7-9.4-12-18.4-19-26.7-4.7-5.6-9.7-11-15-15.9,84.8-38.8,284-75.5,284-75.5,0,0,65.1,36.5,43.6,114-6.4,23.2-26.5,30.1-54.9,34.8-67.1,11.1-168.2-1.3-218.8-6.9-.3,0-2.1-3.2-2.5-3.3h0Z"/>
    <path class="st14" d="M782,495.9c1.5,1.9,0,3.4.4,48.8,0,8.2-1.8,38.7-3.6,46.5,7,2.3,7.9,2.8,15.2,4,32,5.3,64.8.9,96-6.9,26.7-6.7,52.6-16.1,78.4-25.8l-.8-1.8,9.7-232.1-44.7-21.1-1.9-1.1-1.7,2.2c-9.5,11.8-31.9,27-47.6,27.3-4.6,0-9.5-.1-14.4-.7-13.7-1.6-25-12.7-19.7-25.1.2-.4-17.1,4.5-19.1,5.1-10.4,3.8-17.3,7.5-25.1,11.2-5.4,2.6-10.1,6.5-13.5,11.4-6.1,8.9-14,25-14.8,48.8"/>
    <path class="st14" d="M782.4,544.7s-12.6,85.9-14.5,101c0,0,75.3,20.3,155.2,9.6,79.9-10.7,85.5-17.5,85.5-17.5l-18.5-78.5-3.1-51-194.8,28.9"/>
    <path class="st14" d="M1032.5,449.7c-3.9-33.5-10.5-67.6-16-84.2-13-32.7-52.1-41.9-52.1-41.9l-5.1,113.6,2.1,9.4c21.9,7.6,47.5,4.7,71.2,3.2Z"/>
    <path class="st23" d="M977.6,351c-7.5,2-12.5,8.3-15.6,15.1-3.8,8.5-5.4,18.2-6.2,27.5-1.7,20.1,2.4,40,7.5,59.4,3,11.6,6.4,23.1,9.2,34.8.2.7,1.6.3,1.5-.4-4.8-19.5-11.1-38.7-14.6-58.6-1.7-9.7-2.7-19.5-2.4-29.3.3-9.6,1.6-19.5,4.7-28.6,2.7-8,7.5-16.6,16.3-18.9.9-.2.6-1.2-.3-1h0Z"/>
    <path class="st23" d="M930.4,306.5c-2.3,3.2-5.2,6-8,8.8-6.5,6.2-14,11.5-22.2,15.1-10.7,4.8-22.6,6.5-34.2,4.3-7.5-1.4-15.7-5-18.3-12.7-.5-1.6-.8-3.3-.8-5,0-1.9,1-3.8,1.5-5.6.1-.5.3-1,.4-1.4.1-.4-.6-.5-.9-.4-3,1-5.9,1.9-8.9,2.9-.8.2-1.2.4-1.6,1.1-.8,1.4-1.2,3-1.4,4.5-1.2,9.8,5.7,18.4,14,22.7,10.9,5.7,24.1,5.9,36,3.9,13.8-2.4,27.1-8,38.5-16.1,5-3.5,9.9-7.2,14.5-11.2,1.5-1.3,3.4-2.7,4.6-4.3,0,0,0-.1.1-.2.1-.2.2-.5,0-.6-4.1-2-8.2-4-12.2-5.9-.5-.3-1.8.5-1.1.8,4.1,2,8.2,4,12.2,5.9v-.6c-.8,1-1.8,1.8-2.7,2.6-3.4,3.1-7,5.9-10.7,8.6-5.9,4.4-11.9,8.6-18.5,11.8-6,3-12.3,5.3-18.8,6.9-11.8,2.9-24.9,3.7-36.5-.5-8.7-3.2-16.4-9.7-18-19.2-.4-2.5-.3-5.2.6-7.6.2-.5.5-1,.7-1.5.2-.7.2.7-.4.1,0,0,.4-.1.4-.1,3.1-.8,6.2-2,9.3-3l-.9-.4c-.5,1.5-.9,3-1.3,4.5-.2.7-.5,1.4-.6,2.1-.2,1.4,0,2.9.4,4.3,1.7,7.2,8.2,11.6,14.9,13.6,11.4,3.5,24.1,2.6,35.2-1.4,9.2-3.3,17.6-8.6,25-15,2.5-2.2,5-4.6,7.3-7.1,1.1-1.2,2.3-2.5,3.3-3.9,0,0,0-.1.1-.2.5-.7-.8-.9-1.2-.4h0Z"/>
    <path class="st14" d="M789,518.8c8.1-9,2.3-25.4,8.2-36,7.4-13.3,13-27.6,17.3-42.2,4.4-14.9,7.3-30.2,9.3-45.7,2-15.5,3.2-31.2,3.8-46.8.5-13,4.2-20.1,4.3-33.1-12.3,5.6-32.7,8.5-43.7,18.8-13.5,12.6-8.7,16-20.2,40.7-5.8,12.4-8.2,29.5-15.1,53.5-1,3.3-5.4,36.9-5.5,37.5,0,2.1,10.3,15,27.7,24.2,0,0,9,15.4,13.3,17.5.2.3.4,5.1.6,11.6Z"/>
    <path class="st23" d="M773.3,379.7c1.8,3.2,2.8,7.1,3.4,10.7.5,3.3.6,6.5,0,9.8-1,6.5-2.4,12.9-3.6,19.3-3.3,18.9-5.8,38.7-2.6,57.8,1.6,10,5.1,19.9,12,27.5.3.3,1.7-.2,1.3-.5-6.2-6.8-9.6-15.6-11.4-24.5-2-9.8-2.2-19.8-1.7-29.7.5-9.6,1.8-19.1,3.3-28.5,1.1-6.8,2.6-13.5,3.7-20.2.5-3,.8-5.8.5-8.9-.4-4.4-1.5-9.2-3.7-13.1-.2-.5-1.6,0-1.5.4h0Z"/>
    <path class="st7" d="M732.2,753.1c-2-4.2-4.1-8.3-6.4-12.3-5.2-9-11.1-17.4-17.5-25.3-6.6-8.1-13.8-15.7-21.4-22.5-5.2-4.7,10.5-19.5,4.8-23.3-21.4-67.7,309.5-52.9,309.5-52.9,0,0,13.3,15.3,13.3,62.6,0,80.5-212.9,59.4-282.2,63-.3,0,.3,10.7,0,10.7h0Z"/>
    <path class="st7" d="M664.5,745.4c19.6,56.1,63,207.6,90.1,275.5,0,0,74.4-3.6,80-20.7,0,0,1.6-365.5-44-371.6-33.6-4.5-90.8,7.6-108.2,21.9-20.8,17.1-33.4,50.8-17.9,95h0Z"/>
    <path class="st7" d="M700.8,707.8s11.4-2.2,27.7-1.9c-3.2-6.8-4.2-12-4.2-12,1.5-1.7,3.1-3.5,4.8-5.3,9.3,2.2,18.5,5.2,27.3,8.8,10.3,4.2,20.3,9.1,29.8,14.8,9.2,5.5,17.9,11.6,26,18.5,2.3,2,4.5,4,6.7,6-.3,0,4.5-.6,4.2-.5,31.5,33,30.8,106.5,49,173.2,13.4,48.9,24.7,90.5,24.7,90.5-7.2,16.5-96.4,23.8-96.4,23.8-32.1-88.8-99.6-316-99.6-316h0Z"/>
    <path class="st10" d="M828.8,748.5c-6.5-2.7-12.8-6-18.7-9.8-.4-.2-1.1,0-1.5.1-.1,0-1,.4-.7.6,5.9,3.9,12.1,7.2,18.7,9.8.5.2,1,0,1.5-.1,0,0,1-.5.7-.6h0Z"/>
    <path class="st19" d="M886.5,953.4s-75.4,33.5-101,24l14.9,46.4s65.6,2.3,96.4-23.8l-10.3-46.6Z"/>
    <path class="st19" d="M783.4,968.1c4.7,16.2,13.6,30.8,17.7,47.2-27,10-45.2,6.2-45.2,6.2l-20.1-47.7c13.2,4.9,27.3,1.7,47.6-5.7h0Z"/>
    <path class="st10" d="M801.2,1023.6c-1.1-3.3-2.3-6.7-3.4-10-3-9-6.1-17.9-9.1-26.9-4.4-13.1-8.9-26.2-13.3-39.3-5.3-15.7-10.6-31.4-15.8-47.1-5.6-16.8-11.2-33.6-16.8-50.4-5.4-16.4-10.8-32.8-16.1-49.2-4.7-14.4-9.3-28.9-13.9-43.4-3.5-11-6.9-22-10.1-33-3.1-10.8-6-21.6-6.3-32.9-.3-11.6,2-23.2,7.7-33.4,6-10.8,15.8-18.8,27.3-23.3,5.7-2.2,11.6-3.5,17.7-4,.8,0,1.2-1,.2-.9-12,1.1-23.9,5.2-33.5,12.8-8.9,7.1-15,16.9-18.2,27.7-3.7,12.5-3.2,25.9-.5,38.5.6,3,1.4,5.9,2.2,8.8,1.2,4.3,2.4,8.7,3.7,13,1.6,5.5,3.3,11,5,16.4,2,6.5,4,12.9,6.1,19.4,2.3,7.3,4.7,14.6,7,21.8,2.5,7.8,5.1,15.7,7.6,23.5,2.7,8.2,5.4,16.5,8.1,24.7,2.8,8.5,5.6,17,8.4,25.5,2.8,8.5,5.6,17,8.5,25.4,2.8,8.3,5.5,16.6,8.3,24.9,2.7,7.9,5.3,15.9,8,23.8,2.5,7.4,5,14.8,7.5,22.2,2.2,6.6,4.5,13.2,6.7,19.9,1.9,5.7,3.8,11.3,5.8,17,1.5,4.6,3.1,9.1,4.7,13.7,1.1,3.2,2.2,6.4,3.3,9.6.6,1.7,1.2,3.4,1.7,5,0,.2.1.4.2.6.2.6,1.6.2,1.5-.4h0Z"/>
    <path class="st13" d="M561.3,742.9c1.7-5,1.2,13.8,3.3,9,4.7-10.8,10.4-21.2,16.7-31.1,6.5-10.2,13.7-19.8,21.7-28.7,5.4-6.1,11.1-11.8,17.2-17.2-97-41.8-324.9-81.4-324.9-81.4,0,0-74.5,39.3-49.9,122.9,7.4,25,21.9,34.7,54.4,39.8,76.8,12,200.9,9.5,258.8,3.4.4,0,2.4-16.7,2.8-16.7h0Z"/>
    <path class="st13" d="M562,762.1c2.2-4.5,4.7-9,7.3-13.2,5.9-9.7,12.7-18.8,20.1-27.3,7.6-8.8,15.8-16.9,24.5-24.3,6-5-12-21-5.5-25.1,24.5-73-344.7-51.1-344.7-51.1,0,0-22.6-24.3-23.3,68-.6,86.7,242.2,57.5,321.5,61.5.4,0-.4,11.5,0,11.5h0Z"/>
    <path class="st13" d="M647.7,753.8c-21.2,60.5-67.9,231.6-97.1,304.8,0,0-80.2,4.1-86.2-14.4,0,0-1.8-409.7,47.4-416.4,36.2-4.9,97.8,8.2,116.6,23.6,22.4,18.5,36,54.7,19.3,102.3h0Z"/>
    <path class="st13" d="M608.5,713.2s-12.3-2.4-29.9-2c3.4-7.4,4.6-12.9,4.6-12.9-1.6-1.9-3.4-3.8-5.2-5.7-10.1,2.3-19.9,5.6-29.4,9.5-11.1,4.5-21.8,9.8-32.1,16-9.9,5.9-19.3,12.5-28,19.9-2.5,2.1-4.9,4.3-7.2,6.5.3,0-4.8-.7-4.5-.6-34,35.5-33.1,114.8-52.8,186.7-14.4,52.7-33.2,113.8-33.2,113.8,7.8,17.8,105,25,105,25,34.6-95.7,112.8-356.2,112.8-356.2h0Z"/>
    <path class="st12" d="M502.5,1056.5c.6-1.7,1.1-3.4,1.7-5.1,1.6-4.8,3.2-9.6,4.8-14.3,2.5-7.3,4.9-14.6,7.3-21.9,3.1-9.3,6.2-18.7,9.3-28,3.6-10.9,7.2-21.8,10.8-32.7,3.9-11.9,7.9-23.8,11.8-35.7,4.1-12.4,8.1-24.7,12.2-37.1,4-12.4,8.1-24.8,12.1-37.2,3.8-11.8,7.7-23.7,11.5-35.6,3.4-10.8,6.9-21.5,10.2-32.3,2.9-9.2,5.7-18.4,8.5-27.7,2.2-7.2,4.3-14.3,6.3-21.5,1.3-4.5,2.6-9.1,3.5-13.7,3.8-17.8,3.2-36.9-5.5-53.2-4.1-7.7-9.9-14.4-17-19.5-7.2-5.1-15.6-8.5-24.3-10.4-5.8-1.2-11.6-1.6-17.5-2.1-9-.8-18.1-1.6-27.1-2.4-11.9-1-23.8-2.1-35.6-3.1-11.3-1-22.6-2-33.9-3-7.2-.6-14.5-1.3-21.7-1.9-1,0-2-.2-3-.3-.3,0-1.7.5-.9.6,4,.3,8,.7,12,1,9.7.8,19.5,1.7,29.2,2.6,12,1,24,2.1,36,3.2,10.9,1,21.7,1.9,32.6,2.8l18.8,1.6c12.7,1.1,25.2,4.9,35.4,12.7,13.7,10.3,21.3,26.6,23,43.5,1.1,11.6-.5,23.3-3.4,34.5-1.6,6.1-3.3,12.1-5.1,18.1-2.5,8.4-5,16.7-7.6,25-3.1,10.1-6.3,20.3-9.5,30.4-3.6,11.4-7.3,22.8-10.9,34.2-3.9,12.2-7.9,24.3-11.8,36.5-4,12.4-8.1,24.8-12.2,37.3-4,12.1-8,24.2-12,36.4-3.8,11.4-7.5,22.8-11.3,34.2-3.3,10.1-6.7,20.2-10.1,30.3-2.8,8.3-5.6,16.7-8.4,25-2,6-4,12.1-6.1,18.1-1.1,3.2-2.2,6.5-3.3,9.7-.1.4-.3.8-.4,1.2-.1.3,1.3.1,1.4-.2h0Z"/>
    <path class="st12" d="M463,762c7.1-2.9,13.9-6.5,20.4-10.7.4-.2.6-.7.2-1s-1.2,0-1.6.2c-6.3,4.1-12.9,7.6-19.9,10.5-.4.2-.9.6-.6,1s1.1.2,1.5,0h0Z"/>
    <path class="st15" d="M357.1,618c-15.3,1.7-68.7,2.3-83.4,6.9-2.8.9-26.4,14.1-29.4,15.4-.5-5.9-.3-40.9.2-46.8,6.2-67.5,44.5-109.3,47.3-141.7l-32.3-9.8-24.6-17.4c1.8-56.5.2-76.9,11.8-103.2,4.6-10.6,29.4-28.3,40.3-33.5,28.3-13.5,53.6-25,53.6-25,0,0,31.5,41.9,75,34.2,43.5-7.6,26.5-30.5,26.5-30.5l8.7,4.2c6.2,5.1,35.7,18.9,51.6,33.8,13.5,12.7,15,16.8,24.5,38,5.6,12.5,6.8,21.5,10.6,53.8.4,3.4,10.7,55.8,10.1,56.1-2.9,1.8.9,5.5-18.4,12.1-9.8,3.4-7.8,3.1-12,5.2-.5,1-1.7,48.3-1.7,49.7,1.2,23.8-2.8,42.8-1,66.5,0,.5,1.2,39.5,1.2,40.1-1.8,0-61.2-5.3-63-5.3"/>
    <g>
      <path class="st15" d="M517.2,372.6c.8,22.2,1.6,60.4,1,87.7,0,2.1,0,8.1-.1,9.8,0,0,11.9-1.2,19.2-4.1,8.1-3.2,14.2-5.5,13.3-5.6l-2.6-11.8s-14,7.6-29,9.8"/>
      <path class="st21" d="M516.4,372.6c.5,12.5.8,25,1,37.4.2,14.1.3,28.1.2,42.2,0,6,0,11.9-.3,17.9,0,.3.4.4.7.4,2.7-.3,5.5-.7,8.2-1.2,4.9-.9,9.4-2.2,14-4,2.4-.9,4.8-1.9,7.2-2.8,1.1-.5,2.5-.8,3.5-1.6.4-.3.3-.4.3-.8,0,0-.1,0-.1-.1h0c-.2-.1-.2,0,.1.2,0-.1,0-.2,0-.3,0-1-.5-2.3-.7-3.3-.6-2.7-1.2-5.4-1.8-8.1,0-.4-.8-.3-1-.2-8.8,4.8-18.7,8.2-28.6,9.7-.8.1-1.2,1.1-.2,1,10.1-1.5,20.3-5,29.4-9.9l-1-.2c.9,3.9,1.7,7.8,2.6,11.8,0,.1.2.2.3.3-.2-.2-.2-.4,0-.5,0,0,0,0-.2,0,0,0-.3.2-.4.2-.4.2-.9.4-1.3.6-1.5.6-3,1.2-4.5,1.8-3.6,1.4-7.2,3-11,4-4.7,1.3-9.6,2.1-14.5,2.6l.7.4c.4-11.9.4-23.9.3-35.8,0-14-.3-28-.6-42-.2-6.6-.4-13.2-.6-19.8,0-.7-1.5-.4-1.5.1h0Z"/>
    </g>
    <path class="st4" d="M274.9,543.9c10.2-13,34.8-26.2,51.1-31.2l-1.7-64.1c-23.4-.6-56.7-1.6-80.1-2.2.9,16.9,1.8,33.8,2.1,50.9.3,17.1,3.1,39.7,10.4,55.6,1.6,3.4,3.2,6.4,5.1,9.1,1.9-10.1,6.4-9.5,13.1-18h0Z"/>
    <g>
      <path class="st15" d="M345.6,262s16.9,38.1,61.1,35.1c44.2-3,35-25.4,35-25.4l-3.7-8.7,13.1,7.7s4.6,9.1-.6,19.5c-5.3,10.4-27.4,19.5-55.7,17.1-16.6-1.4-38.4-11.3-51.6-23.4-15.9-14.5-9.7-16.8-9.7-16.8l12.3-5.1h0Z"/>
      <path class="st21" d="M344.9,262.2c2.1,4.8,5.3,9.2,8.7,13.1,7.6,8.9,17.4,15.9,28.6,19.4,7.3,2.3,15,3.2,22.7,2.8s16.1-1.5,23.5-4.3c7-2.7,14.1-7.7,14.7-15.8.4-4.7-1.9-8.6-3.7-12.8-.3-.6-.5-1.2-.8-1.9l-1.4.5c3.6,2.1,7.1,4.2,10.7,6.3.7.4,1.4.8,2.1,1.2.3.2.2.1.5.6,1,2.4,1.6,5.2,1.7,7.8.1,4.2-.9,8.8-3.2,12.4-1.4,2.2-3.3,4-5.4,5.5-5.8,4.3-12.9,6.7-19.9,8.3-9.4,2.1-19.3,2.5-28.9,1.6-8.4-.8-16.7-3.4-24.4-6.7-8.1-3.5-16-7.9-22.9-13.4-3.5-2.7-6.7-5.8-9.7-9.1-1.7-2-3.5-4.1-4.5-6.6-.4-1-.7-2.2-.2-3.2.1-.2.4-.5.4-.5.1-.1.2-.1,0,0,3.6-1.6,7.3-3.1,11-4.6l1.3-.5c.9-.4,0-.7-.5-.5-3.9,1.6-7.8,3.3-11.8,4.9-1.2.5-2.1,1.2-2.2,2.7,0,1.7.9,3.3,1.8,4.7,2.1,3.2,4.8,6,7.6,8.7,6.7,6.3,14.4,11.4,22.6,15.5,8.1,4,16.7,7.2,25.6,8.8,9.4,1.6,19.3,1.5,28.6,0,7.8-1.1,15.6-3.2,22.6-7,5.5-3,10.2-7,12.2-13,1.4-3.9,1.6-8.2.7-12.3-.2-1.2-.6-2.4-1-3.5-.1-.3-.2-.7-.5-.9-.5-.4-1.3-.8-1.8-1.1l-3.3-1.9-6.7-3.9c-.4-.2-.8-.5-1.2-.7-.2-.1-1.6,0-1.4.5,1.2,2.9,2.6,5.8,3.8,8.8.5,1.2.7,2.5.7,3.8.4,6.9-4.3,12.3-10.1,15.3-6.3,3.3-13.5,4.6-20.5,5.3-8.2.9-16.5.6-24.5-1.4-11.5-2.9-21.7-9.4-29.8-18.1-2.8-3-5.3-6.2-7.4-9.7-1.1-1.7-1.9-3.6-2.9-5.2,0,0,0-.2-.1-.3-.2-.4-1.6,0-1.5.4h0Z"/>
    </g>
    <path class="st15" d="M236.8,368.2s-2.8,75.1-2.7,111.6c0,0,56.2,13.3,94,3,40.1-10.9-11.3-91.1-11.3-91.1l-80.1-23.5h0Z"/>
    <g>
      <path class="st15" d="M300.6,309.2s28.2,1.9,33.5,62.8c5.3,60.9-1,110.8-1,110.8,0,0-31.5,7.3-56.4,4.4-24.9-2.9-42.6-7.4-42.6-7.4v-11.4c0,0,31.5,7.7,56.3,7.6,24.8-.1,43.9-4.3,43.9-4.3"/>
      <path class="st21" d="M300.3,309.6c-.3,0,.4,0,.6,0,.6.1,1.3.3,1.9.5,2.3.7,4.5,1.9,6.6,3.3,8,5.5,13.2,14.5,16.6,23.5,3,7.9,4.9,16.3,6.2,24.6,1.7,11.5,2.3,23.2,2.8,34.8.9,19.7.7,39.4-.3,59.1-.3,6.2-.8,12.4-1.3,18.6-.2,1.9-.4,3.7-.5,5.6-.1.9-.4,2-.3,3,0,.1,0,.2,0,.4l.6-.4c-4.5,1-9.1,1.8-13.7,2.5-9.8,1.5-19.8,2.5-29.7,2.5s-22.7-1.8-33.9-3.8c-6.7-1.2-13.4-2.5-20-4-.3,0-.6-.2-.9-.2-.5,0,0-.1,0,.1.2-.9,0-2.1,0-3,0-2.8,0-5.5,0-8.3l-1.2.6c10.9,2.7,22,4.6,33.1,6,9.2,1.1,18.4,1.8,27.6,1.5,9-.2,18.1-.9,27.1-2.1,4.3-.6,8.6-1.2,12.8-2.1.9-.2.7-.9-.2-.7-11.6,2.5-23.9,3.6-35.8,4.1-17.4.7-34.7-1.5-51.8-4.8-4-.8-8-1.6-11.9-2.6-.4,0-1.2.1-1.2.6,0,3.8,0,7.6,0,11.4,0,.1.2.2.3.2,11.6,3,23.4,4.9,35.2,6.5,9.4,1.3,18.7,1.9,28.1,1.4,8-.4,16-1.3,23.9-2.6,4.1-.7,8.2-1.4,12.3-2.3.2,0,.6-.2.6-.4,1-7.6,1.5-15.2,2-22.8,1.2-18.8,1.5-37.7.9-56.6-.4-12-1-24-2.3-35.9-1-9.1-2.7-18.2-5.5-26.9-3.3-9.9-8.3-20-16.7-26.5-3-2.4-7-4.8-10.9-5.1-.1,0-.2,0-.3,0-.5,0-1.5.7-.6.8h0Z"/>
    </g>
    <path class="st4" d="M894.2,268.9c-.8,5.8,7.3,19.9,7.3,19.9,0,0-5.9,36.6-4.9,44.2.2,1.9,10.4,8,12.4,13.2,6.1,15.8,7.8,32.1,7.8,32.1l31.3-22.4-7.7-18.3,5.7-37.5,1.3-36-20.9-23.8c-.2,0-.4.2-.6.3-1.7,1.1-2.1,3.3-1,4.9l-8.3-8.2c-7,3.9.9,17.2.9,17.2l-9.8-11.5c-6.2,4.7-.6,14.2-.6,14.2l9.4,17.1s-.5,11.2-1.7,14.8c-1.3,3.6-2.2,7.5-2.2,7.5l-1.5-12.6-13-22.9s-3.1,2.1-3.9,7.9h0Z"/>
    <path class="st27" d="M897.4,332.9c-2.1-5.8-1-12.5.2-18.4.7-3.7,1.2-7.4,1.8-11,.8-4.7,1.6-9.4,2.3-14.1.2-1-.2-1.4-.7-2.2-1.4-2.6-2.7-5.2-3.8-7.9-1.3-3-2.9-6.6-2.7-10,.1-2.7,1.4-6.5,3.8-8.2l-1.3.2c2.7,4.7,5.3,9.4,8,14.1,1.5,2.6,2.9,5.1,4.4,7.7.2.4.5.7.6,1.1.3.9.2,2.1.4,3.1l1.1,9.5c0,.3,1.4,0,1.4-.3.7-2.6,1.6-5.2,2.4-7.8.7-2.2.9-4.5,1.1-6.8.2-2.2.4-4.5.5-6.7,0-.8,0-1.1-.3-1.8-3-5.5-6.1-11-9.1-16.5-2.3-4.2-3.8-10.4.5-13.8l-1.2.2c3.3,3.8,6.5,7.7,9.8,11.5.2.3,1.5-.2,1.4-.4-1.3-2.1-2.3-4.4-3-6.8-1-3.4-1.7-8.1,1.9-10.2l-1.2.2c2.8,2.8,5.5,5.5,8.3,8.2.2.2,1.6-.2,1.4-.4-1.1-1.7-.7-3.9,1.2-4.9h-1.1c2.1,2.6,4.2,5.1,6.4,7.3,3.6,3.6,7.2,7.2,10.7,10.7,1.1,1.1,2.3,2.3,3.4,3.4.3.3,1.6-.2,1.4-.5-2.9-2.9-5.7-5.7-8.6-8.6-2.4-2.4-4.9-4.7-7.2-7.3-1.6-1.8-3.2-3.6-4.8-5.5-.2-.2-.9,0-1.1.1-2.1,1-3.2,3.4-1.8,5.5l1.4-.4c-2.8-2.8-5.5-5.5-8.3-8.2-.3-.3-1,0-1.2.2-6.1,3.5-1.9,12.9.8,17.4l1.4-.4c-3.3-3.8-6.5-7.7-9.8-11.5-.2-.2-1,0-1.2.2-6.4,5.1-1.5,13.2,1.6,18.7l6,10.9c.3.6.9,1.3,1,2,0,.5,0,1.2,0,1.6,0,1.1-.1,2.1-.2,3.2-.2,2.9-.4,5.9-1.1,8.7-.7,2.9-1.8,5.7-2.6,8.6l1.4-.3c-.3-2.7-.6-5.4-1-8.1-.2-1.6,0-3.6-.8-5.1-3.1-5.5-6.3-11.1-9.4-16.6-1.1-1.9-2.2-3.8-3.3-5.8-.2-.3-1.1,0-1.3.2-1.8,1.2-3,3.6-3.6,5.7-.9,3.2-.4,6.1.7,9.2,1.1,3.2,2.5,6.3,4,9.3.5,1,1,2,1.6,3,.1.2.5.8.5.9,0,.4-.2,1-.2,1.4l-.5,2.8c-.5,2.7-.9,5.4-1.4,8.1-.7,4.4-1.4,8.8-2.2,13.2-1.1,6-2.4,12.8-.2,18.7.1.4,1.6,0,1.5-.4h0Z"/>
    <path class="st5" d="M921.6,258.4c2.3,2.7,5.4,6.7,8.8,11.1l.2.2v.2s-.1,1.6-.1,1.6c-.3,5.8-.8,11.1-1.1,14.9,0,.6-.1,1.2-.2,1.7-.3,0-.6.1-.9.2,0-.6,0-1.2,0-1.9,0-3.8.3-9.1.7-14.9,0-.4,0-.9,0-1.3-3.3-4.4-6.3-8.3-8.2-11.2-1.2-1.5-2.3-3.1-3.1-4.9.2-.1,1.6,1.6,3.9,4.3h0Z"/>
    <path class="st5" d="M939.5,276.7c.3-3.5.8-8.4,1.1-13.8v-.3s-.2-.2-.2-.2l-1.2-1.4c-3.9-4.5-7.6-8.6-10.2-11.5s-4.4-4.6-4.6-4.5,1.3,2.1,3.8,5.1,6,7.2,9.9,11.8l1.2,1.4-.2-.5c-.3,5.5-.5,10.4-.6,13.9-.2,1.9-.1,3.8.2,5.7.2,0,.5-2.1.8-5.6h0Z"/>
    <path class="st4" d="M997.2,449.7l-37.2-69.3-17.8-40.4c-14,2.7-16.2,4.5-29.5,9.4,7.7,46.2,16.5,111.5,25.8,127.9,14,24.5,45.4,62.8,74.1,32.6,9.1-9.6,13.7-43.5,12.2-59.3"/>
    <path class="st5" d="M996.6,450.1c4,3.4,6.7,8.5,8.7,13.3,2.4,5.8,3.8,12.1,3.6,18.4,0,.7,1.4.5,1.5-.1.2-6.5-1.3-13-3.8-19-2-4.9-4.8-9.9-8.9-13.4-.5-.4-1.8.3-1.1.8h0Z"/>
    <path class="st28" d="M457.2,208.1s.4,23.1-19,23.5c-26.1.5-24.8-23.4-24.8-23.4,0,0,15.4.9,23.8.9s20-1,20-1h0Z"/>
    <path class="st22" d="M454.8,208.6s-1.6,15.4-17.1,15.6c-10.1.5-19.2-5.9-22.3-15.6,0,0,17.7.6,21.7.6l17.7-.5h0Z"/>
    <path class="st11" d="M454.5,209.1s-4.3,4.2-17.7,4.3-18.3-4.3-18.3-4.3c0,0,13.6.6,18,.6l17.9-.6h0Z"/>
    <path class="st28" d="M437.9,211.3c-23,0-26.8-4.2-26.4-4.3s5.6.5,7.7.4c3.4-.3,9.5-1.2,12-1.4,4.2-.3,6.9,1.3,8.7,1.3s4.5-1.6,8.7-1.3c2.5.2,4.6,1.1,8,1.3,1.6,0,1.2-.2,2.9-.5.6,0,1.5,4.5-21.5,4.5h0Z"/>
    <path class="st4" d="M461.4,471.7l9.8-4.6s41.1,2.5,52.2-1c7.8-2.9,15.2-7,21.8-12.1h10.2c4.7,0,9.1-1.8,12.4-5l2.6-2.5s13.1,3.7,14.1-.5c1-4.3-3.7-7-8.3-9.7s-84.5-16-84.5-16c5.4-4.6,17.5-6.5,23.5-9.9,9.4-5.2,10.9-11,5.1-13.6-3.5-1.6-12.4-.8-16.9,3.7-4.5,4.4-33.1,5.9-41.7,12.6-8.7,6.7-10.9,22.8-10.9,22.8-.7.7-4,4.5-4,4.5.1,1.5,14.7,31.3,14.7,31.3h0Z"/>
    <path class="st27" d="M569.8,446.2c-4.9-.9-10-1.2-15-1.5-6.1-.5-12.3-.8-18.4-1.4-2.5-.2-5-.5-7.5-1-.7-.1-2.1.8-1.1,1.1,4.9,1.1,10,1.4,14.9,1.7,6.1.5,12.3.8,18.4,1.4,2.5.2,5,.4,7.5.9.4,0,1,0,1.2-.3.2-.3.2-.6-.2-.7h0Z"/>
    <path class="st27" d="M544.1,453.2c-8.3,0-16.5,0-24.8,0h-3.6c-.4,0-1,.1-1.2.5-.1.4.1.6.5.6,8.3,0,16.5,0,24.8,0h3.6c.4,0,1-.1,1.2-.5.1-.4-.1-.6-.5-.6h0Z"/>
    <path class="st4" d="M250.8,533.7s9.8,67.7,62.6,33.6c52.8-34.1-62.6-33.6-62.6-33.6Z"/>
    <g id="K9NpoP.tif">
      <g>
        <path class="st0" d="M645.1,649.8c-.8,5.7,3.7,8.2,7.6,11-.4,2.9-4.6,6.3-7.4,5.9s-8.4-5.5-9.9-8c-4.1-6.9,3.4-12.9,9.7-8.8h0Z"/>
        <path class="st0" d="M650.9,645.4c3.6-.5,7.2.9,9.5,3.7-.2,2.2-1,4,0,6.3.3.7.8.9,1.1,1.5,0,1.5-6.1,3.8-7.5,3.6-1.6-.2-5.7-3.3-6.7-4.7-3.1-3.9-1.3-9.7,3.8-10.4h0Z"/>
        <path class="st0" d="M665.5,646.1c1.2-.2,6.5-.2,7,1.3.8,2.8-2.8,7.2-5,8.6-8.4,5.2-10.2-8.8-2-9.9Z"/>
        <path class="st0" d="M636.5,661.6c1.2,0,3.2,2.3,4.2,3.1,1.4,1,2.9,1.8,4.4,2.6-.9,7.6-14,7.8-13.2-1,.2-2.3,2.3-4.5,4.6-4.7h0Z"/>
        <path class="st4" d="M583,571.7c6.7,7.3,32.2,16.6,43.2,18.2,4.7.7,10.8,1.4,15.5,1.7,3.3.2,7.4-.6,10.3.8,6.8,5.2,15.9,8.6,21.1,15.4.9,1.2,1.5,2.5,2.6,3.6.5.4.9.7,1.2,1s6.3,6.2,6.2,6.4h0c.6.8.1,2.4-.3,3.2-3.2,6-14.3.4-18-2.7-1.3-1.1-1.9-2.2-2.9-3.4-.9-1-3.2-1.3-4.6-1.9-1.7-.8-3.5-2-5.3-2.6-3-1.2-4.6.3-4.6.3-3.9.8-7.1,3.5-10.6,5.1-3,1.3-6.2,2-9.3,3-.9.3-2.1,1.1-2.9,1.3l-1.9,1.1c-.5.5-3.5,2.5-4,2.5l-.6.4c-2.5,1.7-4.9,3.6-7,5.8-1.5,1.6-3.6,3.9-4.9,5.6-.7.9-2,2.5-1.7,3.7.7,2.1,3.7,2.6,5.7,2.4,2-.2,3.7-1.6,5.5-2.3-1.8,2.7-3.4,5.6-4,8.9l-.5.4c-8.2-6.5-15.3-15.2-19.5-24.9-.8-1.8-3.5-7.3-4.3-9.1"/>
        <path class="st4" d="M741.1,575.4c-10.5,12.4-11.8,10-23.5,21.3-4.4,4.2-21.4,2-26,5.9-3,2.5-15.4,2.4-19,3.4l3.6,5.1c2.1,2.1,7.7,6.3,7.8,9.4,0,1.8-2.4,4-4.1,4.3-5.2.8-12.2-2.1-15.9-5.7-.6-.6-2.4-3.2-2.7-3.4-.7-.4-2.9-.8-4-1.3-1.9-.9-4.5-2.8-6.5-3.2-1.2-.3-5.2,1.4-6.5,2-2.6,1.2-5,3-7.5,4.1-3.5,1.5-7.6,2.1-11,3.6-2.4,1-6.2,3.6-8.4,5.1-2.9,2-5.3,4.3-7.6,7-.5.2-4.4,5-4.5,5.7-.3,1,.8,2.7,2,2.9,0,0,0,0,0,0,2.7,1,5.7-.2,8-1.8,2.2-1.6,3.3-4.4,5-6.6,3.7-4.7,11.2-9.5,16.3-12.8.3-.2.5-.5.9-.4-3.8,3.7-8.9,5.9-12.9,9.3-1.3,1.1-2.4,2.5-3.6,3.6-2.5,4.5-6.4,9-8.1,13.8-.8,2.4-1.2,4.9-1.7,7.4-.7,1.2-.6,6.9.5,8.1.6.7,2.9,1.3,3.2.2.7-.2,1.5-1.1,2-1.6,4.1-5,2.5-10.6,5.6-15.5,4.2-6.5,12.6-9.9,16.1-17,.5,0,0,.8,0,1-3.8,7.4-16.5,12.6-17.6,20.8-.3,1.9.2,3.6.2,5.3,0,5.1-1.3,9.3,3.5,13,.2.2.3.5.7.3-.3-2,.5-4.2.5-6.2,0-1.4-.3-2.6-.2-4,.5-6.3,7.7-9.5,11.6-13.5,1-1,1.8-2.4,2.8-3.4-2.2,4.9-7.8,7.4-11.3,11.2-3.4,3.6-2.2,5.2-2.4,9.7-.2,5-1.7,7.2,2.9,10.8,1.1.8,5.2,2.9,6.5,3.1,2,.2,2.3-.9,2.9-2.5,0-.7-2.2-.6-3-.9-4.7-1.5-5.9-8.9-1.2-11.2.8-.4,1.5-.4,2.2-.9-2.1-2.5-3.4-4.9-2.4-8.2,1.4-4.8,7.3-6.2,11.1-3.3,3-6.8,10.7-5.3,15.4-1.2,1.6-1.3,2.6-2.3,4.7-2.7,1.3-.2,6.5,0,7.2,1,2.7,3.6-4.4,10.8-8.3,11-1,0-1.6-.6-2.2-.4-.4.1-1.6,1.3-2.1,1.7-2.1,1.3-4.2,2.1-6.7,2.1-1.2,3.5-4,5.6-7.5,6.4-.3,2.5-2.6,3.8-2,6.5-.4,2,1.6,4.8,3.8,4.4.6-.1,5.4-3.2,7.8-4.9,0,0,0,0,.1,0,5.9-3.1,11.4-7.6,17.7-10,3.3-1.3,7.2-1.8,10.2-3.8,3-1.9,4.3-4.9,6.3-7.6,2.6-3.4,5.5-6.8,7.7-10.4,2.8-4.6,4.3-9.9,7-14.6,6.9-12.1,18.4-22.8,29-31.7,2.5-2.1,5.1-4.2,7.8-6v-35.8,21.9h0Z"/>
        <path class="st2" d="M625,669.1c-.3-2,.5-4.2.5-6.2,0-1.4-.3-2.6-.2-4,.5-6.3,10.9-13.2,14.8-17.1"/>
        <path class="st2" d="M638.2,628.6c-3.5,7.1-11.9,10.5-16.1,17,0,0-1.9,3.2-1.5,5.3"/>
        <path class="st2" d="M637,620.5c-3.8,3.7-8.9,5.9-12.9,9.3-1.3,1.1-2.4,2.5-3.6,3.6-2.5,4.5-7.1,10.9-8.7,15.7"/>
        <path class="st2" d="M672.2,606.3l3.6,5.1c2.1,2.1,7.7,6.3,7.8,9.4,0,1.8-2.4,4-4.1,4.3-5.2.8-12.2-2.1-15.9-5.7-.6-.6-2.4-3.2-2.7-3.4-.7-.4-2.9-.8-4-1.3-1.9-.9-4.5-2.8-6.5-3.2-1.2-.3-5.2,1.4-6.5,2-2.6,1.2-5,3-7.5,4.1-3.5,1.5-7.6,2.1-11,3.6-2.4,1-6.2,3.6-8.4,5.1-2.9,2-5.3,4.3-7.6,7-.5.2-4.4,5-4.5,5.7-.3,1,.8,2.7,2,2.9,0,0,0,0,0,0,2.7,1,5.7-.2,8-1.8"/>
      </g>
    </g>
    <path class="st4" d="M308.5,491.3l-19.3,10.9-.5-.6c-7.7,12.1-10.4,27.9-10.9,41.7-.5,12.6,2.4,23.4,9.1,33.4,6.3.4,13,.5,21.3-3.1,9.6-4.1,32.2-17,44.8-24,24.3-13.6,115.3-80.5,115.3-80.5l-7.8-36.1-152.1,58.2h0Z"/>
    <path class="st27" d="M323.4,485.7c-8.5.9-17,4.5-24.4,8.6-3.5,2-7,4.2-10,7-3.5,3.3-6.5,7.5-8.6,11.8-2.6,5.2-4.1,10.8-4.6,16.5,0,.7,1.4.5,1.5-.1.8-9.9,4.9-19.4,11.7-26.6,5.6-5.9,13.7-9.8,21.2-12.7,4.2-1.6,8.5-3,13-3.4.8,0,1.1-1.1.1-1h0Z"/>
  </g>
</svg>