<?xml version="1.0" encoding="UTF-8"?>
<svg xmlns="http://www.w3.org/2000/svg" xmlns:xlink="http://www.w3.org/1999/xlink" viewBox="0 0 1334 1000">
  <defs>
    <style>
      .cls-1 {
        fill: #131429;
      }

      .cls-2 {
        fill: #dcd3b0;
      }

      .cls-3 {
        fill: #acabab;
      }

      .cls-4 {
        fill: #151312;
      }

      .cls-5 {
        fill: #273339;
      }

      .cls-6 {
        fill: #3e525a;
      }

      .cls-7 {
        fill: #010101;
      }

      .cls-8 {
        fill: #653c29;
      }

      .cls-9 {
        fill: #231f20;
      }

      .cls-10 {
        fill: #8e8e8e;
      }

      .cls-11 {
        fill: #2c458e;
      }

      .cls-12 {
        fill: #89ac95;
      }

      .cls-13 {
        fill: #27153c;
      }

      .cls-14 {
        fill: #331d17;
      }

      .cls-15 {
        fill: #b7c8ce;
      }

      .cls-16 {
        fill: #f1eef7;
      }

      .cls-17 {
        fill: #77543f;
      }

      .cls-18 {
        fill: #643c2a;
      }

      .cls-19 {
        fill: #2c2f30;
      }

      .cls-20 {
        isolation: isolate;
      }

      .cls-21 {
        fill: #a66e53;
      }

      .cls-22 {
        fill: #0a2f44;
      }

      .cls-23 {
        fill: url(#linear-gradient);
        opacity: .5;
      }

      .cls-24 {
        fill: #080707;
      }

      .cls-25 {
        fill: url(#linear-gradient-2);
        mix-blend-mode: multiply;
        opacity: .37;
      }

      .cls-26 {
        fill: #0f1711;
      }

      .cls-27 {
        fill: #2e8942;
      }

      .cls-28 {
        fill: #fff;
      }

      .cls-29 {
        fill: #513835;
      }

      .cls-30 {
        fill: #2d383d;
      }

      .cls-31 {
        fill: #d78b28;
      }

      .cls-32 {
        fill: #45616e;
      }

      .cls-33 {
        fill: #f2ebd1;
      }

      .cls-34 {
        fill: #707071;
      }

      .cls-35 {
        fill: #162916;
      }

      .cls-36 {
        fill: #975449;
      }

      .cls-37 {
        fill: #202956;
      }

      .cls-38 {
        fill: #a38166;
      }

      .cls-39 {
        fill: #38211a;
      }

      .cls-40 {
        fill: #87654d;
      }

      .cls-41 {
        fill: #8d372d;
      }

      .cls-42 {
        fill: #4f2e25;
      }

      .cls-43 {
        fill: #89ad96;
      }
    </style>
    <linearGradient id="linear-gradient" x1="-1069.94" y1="3356.62" x2="19.73" y2="3356.62" gradientTransform="translate(-2684.14 963.1) rotate(90) scale(1 -1)" gradientUnits="userSpaceOnUse">
      <stop offset="0" stop-color="#f0ebe0"/>
      <stop offset=".18" stop-color="#eee8dd" stop-opacity=".99"/>
      <stop offset=".33" stop-color="#e8e1d4" stop-opacity=".97"/>
      <stop offset=".46" stop-color="#ded4c5" stop-opacity=".93"/>
      <stop offset=".59" stop-color="#d0c2b0" stop-opacity=".88"/>
      <stop offset=".72" stop-color="#bdab95" stop-opacity=".82"/>
      <stop offset=".84" stop-color="#a78e73" stop-opacity=".73"/>
      <stop offset=".96" stop-color="#8d6d4d" stop-opacity=".64"/>
      <stop offset="1" stop-color="#83603d" stop-opacity=".6"/>
    </linearGradient>
    <linearGradient id="linear-gradient-2" x1="1188.39" y1="76.57" x2="1195.21" y2="956.52" gradientTransform="translate(2358.3 992.56) rotate(-180)" gradientUnits="userSpaceOnUse">
      <stop offset="0" stop-color="#262262" stop-opacity="0"/>
      <stop offset="1" stop-color="#000"/>
    </linearGradient>
  </defs>
  <g class="cls-20">
    <g id="Layer_2" data-name="Layer 2">
      <polyline class="cls-33" points="1383.03 979.24 1383.03 -75.13 -18.22 -75.13 -18.22 979.24"/>
      <polyline class="cls-23" points="1373.11 979.24 -28.14 979.24 -28.14 -110.43 1373.11 -110.43"/>
      <rect class="cls-37" x="714.94" y="52.65" width="821.54" height="719.49"/>
      <rect class="cls-25" x="755.25" y="52.65" width="821.54" height="724.54"/>
      <path class="cls-10" d="M701.94,31.64v746.95s843.8,0,843.8,0V31.64s-843.8,0-843.8,0ZM736.06,64.76h772.3v679.91h-772.3V64.76Z"/>
      <rect class="cls-17" x="612.5" y="25.46" width="1012.98" height="39.87" rx="19.93" ry="19.93"/>
      <path class="cls-32" d="M666.2,10.44c8.64-.76,17.73-2.14,26.2-.15,8.12,1.91,15.56,4.47,24.08,5.05,8.7.59,17.05-1.45,25.23-3.61,8.32-2.19,13.63-2.49,22.03-.67,8.91,1.93,17.67,3.8,26.88,4.54,14.83,1.19,28.73-2.96,43.07-4.74v1042.42c-3.92,2.88-8.29,4.96-13.21,5.04-5.53.09-10.84-2.24-15.74-4.71-11.48-5.78-22.44-12.21-35.41-13.25-17.14-1.38-29.97,9.14-45.17,15.2-8.38,3.34-16.37,3.42-24.84.43-8.64-3.04-16.6-7.51-25.7-8.98-7.38-1.19-28.21-.7-34.96,1.09V12.15c9.23-.04,18.36-.9,27.54-1.71Z"/>
      <path class="cls-2" d="M991.23,189.55l2.35,7.25c.18.55.69.92,1.26.92h7.62c1.28,0,1.82,1.64.78,2.4l-6.17,4.48c-.46.34-.66.94-.48,1.48l2.35,7.25c.4,1.22-1,2.24-2.04,1.48l-6.17-4.48c-.46-.34-1.09-.34-1.56,0l-6.17,4.48c-1.04.75-2.43-.26-2.04-1.48l2.35-7.25c.18-.55-.02-1.14-.48-1.48l-6.17-4.48c-1.04-.75-.5-2.4.78-2.4h7.62c.57,0,1.08-.37,1.26-.92l2.35-7.25c.4-1.22,2.12-1.22,2.52,0Z"/>
      <path class="cls-2" d="M1225.71,135.42l2.35,7.25c.18.55.69.92,1.26.92h7.62c1.28,0,1.82,1.64.78,2.4l-6.17,4.48c-.46.34-.66.94-.48,1.48l2.35,7.25c.4,1.22-1,2.24-2.04,1.48l-6.17-4.48c-.46-.34-1.09-.34-1.56,0l-6.17,4.48c-1.04.75-2.43-.26-2.04-1.48l2.35-7.25c.18-.55-.02-1.14-.48-1.48l-6.17-4.48c-1.04-.75-.5-2.4.78-2.4h7.62c.57,0,1.08-.37,1.26-.92l2.35-7.25c.4-1.22,2.12-1.22,2.52,0Z"/>
      <path class="cls-2" d="M894.81,297.08l1.39,4.29c.1.32.41.54.75.54h4.51c.76,0,1.08.97.46,1.42l-3.65,2.65c-.27.2-.39.55-.28.88l1.39,4.29c.23.72-.59,1.32-1.21.88l-3.65-2.65c-.27-.2-.65-.2-.92,0l-3.65,2.65c-.61.45-1.44-.15-1.21-.88l1.39-4.29c.1-.32-.01-.68-.28-.88l-3.65-2.65c-.61-.45-.3-1.42.46-1.42h4.51c.34,0,.64-.22.75-.54l1.39-4.29c.23-.72,1.26-.72,1.49,0Z"/>
      <path class="cls-2" d="M1226.88,429.74l1.29,3.96c.1.3.38.5.69.5h4.17c.7,0,.99.9.43,1.31l-3.37,2.45c-.25.18-.36.51-.26.81l1.29,3.96c.22.67-.55,1.22-1.11.81l-3.37-2.45c-.25-.18-.6-.18-.85,0l-3.37,2.45c-.57.41-1.33-.14-1.11-.81l1.29-3.96c.1-.3,0-.63-.26-.81l-3.37-2.45c-.57-.41-.28-1.31.43-1.31h4.17c.31,0,.59-.2.69-.5l1.29-3.96c.22-.67,1.16-.67,1.38,0Z"/>
      <path class="cls-2" d="M1230.37,358.72l.51,1.58c.04.12.15.2.27.2h1.66c.28,0,.4.36.17.52l-1.34.97c-.1.07-.14.2-.1.32l.51,1.58c.09.27-.22.49-.44.32l-1.34-.97c-.1-.07-.24-.07-.34,0l-1.34.97c-.23.16-.53-.06-.44-.32l.51-1.58c.04-.12,0-.25-.1-.32l-1.34-.97c-.23-.16-.11-.52.17-.52h1.66c.12,0,.24-.08.27-.2l.51-1.58c.09-.27.46-.27.55,0Z"/>
      <path class="cls-2" d="M956.35,340.43l1.39,4.29c.1.32.41.54.75.54h4.51c.76,0,1.08.97.46,1.42l-3.65,2.65c-.27.2-.39.55-.28.88l1.39,4.29c.23.72-.59,1.32-1.21.88l-3.65-2.65c-.27-.2-.65-.2-.92,0l-3.65,2.65c-.61.45-1.44-.15-1.21-.88l1.39-4.29c.1-.32-.01-.68-.28-.88l-3.65-2.65c-.61-.45-.3-1.42.46-1.42h4.51c.34,0,.64-.22.75-.54l1.39-4.29c.23-.72,1.26-.72,1.49,0Z"/>
      <path class="cls-2" d="M1105.31,271.89l1.39,4.29c.1.32.41.54.75.54h4.51c.76,0,1.08.97.46,1.42l-3.65,2.65c-.27.2-.39.55-.28.88l1.39,4.29c.23.72-.59,1.32-1.21.88l-3.65-2.65c-.27-.2-.65-.2-.92,0l-3.65,2.65c-.61.45-1.44-.15-1.21-.88l1.39-4.29c.1-.32-.01-.68-.28-.88l-3.65-2.65c-.61-.45-.3-1.42.46-1.42h4.51c.34,0,.64-.22.75-.54l1.39-4.29c.23-.72,1.26-.72,1.49,0Z"/>
      <path class="cls-2" d="M903,113.68l1.39,4.29c.1.32.41.54.75.54h4.51c.76,0,1.08.97.46,1.42l-3.65,2.65c-.27.2-.39.55-.28.88l1.39,4.29c.23.72-.59,1.32-1.21.88l-3.65-2.65c-.27-.2-.65-.2-.92,0l-3.65,2.65c-.61.45-1.44-.15-1.21-.88l1.39-4.29c.1-.32-.01-.68-.28-.88l-3.65-2.65c-.61-.45-.3-1.42.46-1.42h4.51c.34,0,.64-.22.75-.54l1.39-4.29c.23-.72,1.26-.72,1.49,0Z"/>
      <path class="cls-2" d="M904.83,199.54c0-13.65,8.81-25.24,21.05-29.41-3.14-1.07-6.51-1.66-10.02-1.66-17.16,0-31.07,13.91-31.07,31.07s13.91,31.07,31.07,31.07c3.51,0,6.87-.59,10.02-1.66-12.24-4.17-21.05-15.76-21.05-29.41Z"/>
      <path class="cls-2" d="M1166.3,131.83l.51,1.58c.04.12.15.2.27.2h1.66c.28,0,.4.36.17.52l-1.34.97c-.1.07-.14.2-.1.32l.51,1.58c.09.27-.22.49-.44.32l-1.34-.97c-.1-.07-.24-.07-.34,0l-1.34.97c-.23.16-.53-.06-.44-.32l.51-1.58c.04-.12,0-.25-.1-.32l-1.34-.97c-.23-.16-.11-.52.17-.52h1.66c.12,0,.24-.08.27-.2l.51-1.58c.09-.27.46-.27.55,0Z"/>
      <rect class="cls-34" x="833.69" y="771.82" width="674.23" height="39.89"/>
      <path class="cls-21" d="M542.18,707.22c2.53-8.26,5.62-16.33,9.33-24.14,4.42-9.31,9.69-18.35,16.42-26.2,4.36-5.09,9.58-9.82,15.64-12.82-9.36-22.86-49.28-118.07-83.29-164.21-6.94,7.88-21.17,32.86-29.24,27.29,1.96,1.35-3.8-2-4.54-2.35-2.5-1.17-5.07-2.17-7.67-3.1-4.89-1.76-9.98-3.16-16.07-5.1-2.33-.74-4.65-1.52-6.95-2.36l36.93,136.75s13.15,99.47,68.29,106.94c17.74,3.32-1.51-21.99,1.15-30.69Z"/>
      <path class="cls-21" d="M717.07,547.61c-26.73,8.38-146.16,94.33-146.16,94.33,0,0-.49-.56-1.42-1.61-5.29,5.49-8.68,12.82-11.03,19.97-5.58,16.98-26.95,23.28-26.03,41.02.43,8.17,6.97,28.55,8.59,36.59.45-.09,10.92,2.81,25.08.3,12.19-2.16,30.28-15.12,52.78-32.63,16.23-12.63,38.4-37.72,51.81-53.32,23.85-27.75,59.29-72.96,67.47-78.13l-21.1-26.51Z"/>
      <path class="cls-21" d="M362.89,283.56s-5.81,36.95-26.52,59c-3.32,3.53-41.4,14.08-41.4,14.08l28.98,115.99c20.61,12.93,63.41,5.74,87.74,5.36l59.96-41.22s-29.3-32.14-28.59-37.81c.71-5.68,16.51-43.79,16.51-43.79"/>
      <path class="cls-15" d="M448.4,611.29c9.56,1.42,19.13,2.6,28.73,3.58.94-.62,3.09,26.6,4.75,26.95,15.77,3.3,43.9,26.96,109.61-33.09-10.91-21.34-37.44-87.1-44.72-119.99-8.95-40.45-88.5-92.38-94.42-95.69,0,0-16.6,145.35-5.49,204.07.76,4,1.25,8.78,1.54,14.17Z"/>
      <path class="cls-6" d="M123.77,815.95l-2.84,96.98c-.55,44.64,11.9,75.07,27.89,117.79l34.86,180.92s.64,92.69-8.66,157.9c-8.1,56.54,15.36,157.64,15.36,157.64l29.7,9.82c22.32,3.11,45.13,3.52,67.65,1.22l43.34-11.33,42.22-334.44,31.35-218.74,44.6-123.41-325.47-34.36Z"/>
      <path class="cls-6" d="M474.75,838.42l-19.67,344.58c-2.04,39.71-11.73,65.54-20.1,141.68l-16.06,129.76-5.68,56.4-14.02,2.08c-19.25,3.28-30.65,4.39-50.27,3.47l-42.99-.92,41.03-664.5,127.76-12.54Z"/>
      <path class="cls-15" d="M498.1,712.09h0c-.11-.56.35-1.09.06-1.15l28.57-180.58,9.11-59.76s-4.31-6.82-8.72-14.04c-6.97-11.4-16.61-16.69-26.72-25.42l-41.79-29.86s-3.46.01-16.29,18.12c-5.49,7.75-4.02,37.13-16.11,35.95,0,0-2.62-25.58-29.44-49.99,0,0-67.82-45.13-68.7-56.6-26.7,3.1-110.34,23.44-131,35.94-24.3,14.62,25.96,74.78,48.51,110.14l-39.05-2.84s-26.71,112.86-44.02,172.91c-.69,2.14-1.36,4.46-2.01,6.88-2.12,7.16-4.07,13.33-5.76,18.17.54.1,1.08.19,1.62.29-8.34,43.75-38.78,102.33-39.29,122.29-.63,25.09,166.59,70.31,236.19,77.96,68.35,7.52,117.17,19.39,130.89-72.68l.32.02c5.02-39.34,5.33-52.48,13.63-105.75Z"/>
      <path class="cls-1" d="M534.75,533.91c-6,15.12-10.64,30.65-13.76,46.61-3.1,15.81-5.23,31.8-8.16,47.65-1.33,7.21-4.13,14.04-5.98,21.12-.22.86,1.97.55,2.18-.24,1.66-6.32,4.07-12.43,5.53-18.8.94-4.12,1.56-8.34,2.27-12.5.71-4.17,1.4-8.35,2.07-12.53,2.39-14.75,4.74-29.51,8.7-43.94,2.57-9.38,5.76-18.57,9.34-27.61.3-.77-1.88-.52-2.18.24h0Z"/>
      <path class="cls-19" d="M411.54,944.81c-17.56,10.83-27.68,29.71-31.35,49.59-2.18,11.8-2.39,23.85-2.36,35.82,0,2.15.04,4.28-.06,6.43-.24,5.05-.48,10.1-.72,15.15-.43,9.05-.86,18.1-1.3,27.15-.55,11.55-1.1,23.1-1.66,34.65-.61,12.67-1.21,25.34-1.82,38.01s-1.17,24.59-1.76,36.88c-.5,10.43-1,20.85-1.49,31.28-.34,7.19-.69,14.38-1.03,21.57-.12,2.43-.14,4.88-.35,7.3-.23,2.57-.64,5.13-.97,7.69-.8,6.4-1.61,12.79-2.41,19.19-1.17,9.28-2.33,18.56-3.5,27.85-1.42,11.32-2.84,22.64-4.27,33.96-1.56,12.42-3.12,24.84-4.68,37.26s-3.16,25.13-4.74,37.7c-1.5,11.92-3,23.84-4.49,35.77-1.28,10.21-2.57,20.43-3.85,30.64-.97,7.7-1.94,15.41-2.9,23.11-.53,4.25-1.07,8.49-1.6,12.74-.07.54-.14,1.08-.2,1.63-.06.48,1.2.25,1.25-.16.28-2.24.56-4.48.84-6.72l2.31-18.42c1.14-9.1,2.29-18.19,3.43-27.29,1.4-11.16,2.8-22.32,4.21-33.49,1.55-12.37,3.11-24.73,4.66-37.1,1.58-12.58,3.16-25.17,4.74-37.75,1.5-11.94,3-23.88,4.5-35.81,1.31-10.39,2.61-20.78,3.92-31.16,1-7.93,1.99-15.87,2.99-23.8.58-4.58,1.15-9.16,1.73-13.74.16-1.3.3-2.56.36-3.87.24-4.93.47-9.87.71-14.8.43-8.97.86-17.95,1.29-26.92.55-11.51,1.1-23.02,1.65-34.52.6-12.62,1.21-25.24,1.81-37.86.59-12.32,1.18-24.64,1.77-36.96.5-10.49,1-20.99,1.5-31.48.35-7.26.69-14.52,1.04-21.78.16-3.41.38-6.82.36-10.23-.1-22.64.6-46.32,12.73-66.22,5.14-8.43,12.06-15.7,20.49-20.89.72-.44-.38-.59-.77-.35h0Z"/>
      <path class="cls-21" d="M210.12,599.18c-45.93-14.45-52.5-15.9-88.17-31.14-11.13,28.59-32.71,130.13-33.94,140.32-8.5,70.36-.29,97.39,5.81,188.79l48.21,6.08,33.31-172.18,34.77-131.87Z"/>
      <path class="cls-15" d="M215.53,600.69l34.74-86.77,6.55-145.79s-55.97-3.68-86.1,39.01c-15.56,22.81-46.73,108.65-65.11,156.75,62.42,33.02,79.98,35.09,109.91,36.8Z"/>
      <path class="cls-15" d="M429.37,459.19c-1.02-1.67-38.86-44.62-38.86-44.62l-27.5,17.45-11.47-8.74c-30.32-22.82-54.11-72.47-54.11-72.47l39.03-20.82c6.15,40.66,62.24,74.6,62.24,74.6l30.12,47.31,13.57-55.16c1.13-7.6,2.11-12.67,2.11-12.67l10.24,1.3,20.74,18.48c-3.26,32.98-8.44,32.09-8.44,32.09l-21.24-14.25c-5.02,11.5-4.78,25.45-9.19,37.15-8.06,21.4-11.5,45.78-14.22,68.69"/>
      <path class="cls-1" d="M474.1,406.06c-.74,7.45-1.57,15.1-3.77,22.29-.49,1.6-1.05,3.22-1.9,4.67-.24.42-.52.81-.84,1.18-.06.07-.38.38-.27.28-.08.07-.47.38-.23.18-.17.14.12-.02.25-.04.11-.02.09-.01.1,0-.11-.1-.18-.09-.07-.02-.11-.07-.22-.14-.32-.22-3.47-2.4-7.01-4.7-10.52-7.06-3.47-2.33-6.94-4.66-10.41-6.99-.5-.34-1.85,0-2.1.56-5.53,12.63-12.46,24.96-15.73,38.45-.15.61,2,.28,2.16-.34,3.28-13.48,10.2-25.82,15.73-38.45l-2.1.56c6.96,4.67,13.87,9.45,20.9,14.02,3.27,2.13,5.85-2.59,6.78-5,1.08-2.83,1.76-5.83,2.34-8.8,1-5.16,1.64-10.4,2.16-15.63.07-.68-2.1-.26-2.16.34h0Z"/>
      <path class="cls-1" d="M429.75,457.95c-1.15-1.82-2.84-3.44-4.24-5.06-3.1-3.61-6.23-7.19-9.36-10.78-6.84-7.84-13.71-15.66-20.58-23.48-1.58-1.79-3.16-3.59-4.74-5.38-.31-.35-1.56.16-1.85.35-8.04,5.1-16.07,10.2-24.11,15.3-1.13.72-2.26,1.43-3.39,2.15l1.85-.35c-3.76-2.87-7.52-5.74-11.28-8.6-7.06-5.37-13.44-11.55-19.29-18.21-10.87-12.37-20.15-26.18-28.21-40.52-1.64-2.92-3.26-5.86-4.73-8.87-.24-.5-2.33.26-2.17.58,4.19,8.59,9.2,16.84,14.43,24.82,10.14,15.47,21.92,30.53,36.62,41.93,4.17,3.23,8.39,6.4,12.58,9.6.41.31,1.49-.12,1.85-.35,8.04-5.1,16.07-10.2,24.11-15.3,1.13-.72,2.26-1.43,3.39-2.15l-1.85.35c4.28,4.85,8.54,9.71,12.81,14.57,6.93,7.89,13.86,15.79,20.72,23.74,1.23,1.42,2.45,2.84,3.66,4.28.54.63,1.15,1.26,1.6,1.96.32.51,2.33-.34,2.17-.58h0Z"/>
      <path class="cls-13" d="M250.49,398.18c6.88,2.69,11.97,8.44,15.51,14.77s5.77,13.27,6.86,20.35c1.73,11.22.06,22.94-1.84,34.03-2.53,14.8-6.22,29.4-10.36,43.82-4.52,15.76-9.66,31.36-15.28,46.76-5.06,13.88-10.5,27.65-16.58,41.11-.65,1.43-1.3,2.86-1.97,4.28l1.52-.73c-6.69-.33-13.38-.67-20.06-1-.78-.04-2.32,1.09-.86,1.16,6.69.33,13.38.67,20.06,1,.52.03,1.28-.22,1.52-.73,6.15-13.2,11.61-26.73,16.7-40.37,5.74-15.39,10.99-30.98,15.66-46.73,4.39-14.81,8.32-29.79,11.14-44.98,2.09-11.23,3.93-22.96,2.99-34.41-.57-6.98-2.46-13.93-5.36-20.3s-7.21-12.74-13.28-16.69c-1.46-.95-3-1.74-4.62-2.38-.46-.18-1.13-.05-1.54.22-.24.16-.7.6-.21.79h0Z"/>
      <path class="cls-21" d="M158.19,976.83c.74,5.58.72,24.13,15.2,27.79,14.49,3.66,10.51-9.37,7.28-16.83-3.24-7.46-7.08-21.63-9.44-43.2-2.35-21.56-25.53-44.61-28.67-52.93-1.74-4.6-.76-23.72.61-43.58-17.2.04-34.46-2.14-51.62-4.46,1.96,11.97,3.08,28.46.79,49.14-5.16,46.66-10.17,79.77-.91,100.04,9.27,20.27,32.27,50.98,46.83,53.97,14.56,2.98,32.83,9.13,33.14.23.31-8.9-22.56-22.42-23.88-41.12-1.32-18.7-1.06-45.47-1.06-45.47,0,0,10.99,10.84,11.72,16.41Z"/>
      <path class="cls-42" d="M155.48,970.05c2.33,6.57,4.96,13.08,7.93,19.39,1.92,4.09,3.96,8.33,6.87,11.82,3.23,3.88,7.36,7.01,11.56,9.77,2.57,1.69,5.23,3.29,7.99,4.65.12.06.5-.12.33-.2-2.23-1.1-4.39-2.37-6.49-3.69-4.24-2.66-8.37-5.66-11.8-9.33-3.2-3.42-5.38-7.62-7.4-11.8s-3.96-8.75-5.73-13.21c-.98-2.49-1.95-4.99-2.84-7.51-.05-.14-.46-.02-.41.11h0Z"/>
      <path class="cls-42" d="M140.44,976.18c2.45,4.29,4.96,8.55,7.49,12.79,1.98,3.31,3.98,6.6,6.05,9.85,1.59,2.49,3.17,5.04,5.06,7.31,1.85,2.22,4.01,4.19,6.41,5.79,1,.67,2.05,1.32,3.16,1.78.11.05.42-.13.39-.14-3.07-1.26-5.85-3.59-8.12-5.95-2.28-2.38-4.08-5.16-5.87-7.92-3.98-6.18-7.72-12.52-11.42-18.87-.92-1.58-1.84-3.17-2.75-4.76-.06-.1-.44.06-.41.11h0Z"/>
      <path class="cls-3" d="M400.42,172.23c-9.59-4.49-16.62-3.34-26.69-6.76-.87-.3-1.85-.59-2.66-.3-.67.24-1.06.83-1.41,1.39-8.16,13.27-16.87,26.17-21.89,40.76-2.14,6.21-3.99,12.61-3.92,19.25.06,5.99-1.69,12.52-.08,18.46,1.41,5.21,2.82,10.42,4.23,15.63.53,1.95,1.09,3.96,2.51,5.59,4.17,4.78,12.6,3.39,17.88.33,11.33-6.58,17.77-17.96,21.02-29.71,3.25-11.75,3.7-24.13,5.49-36.22,1.23-8.34,3.1-16.56,5.6-24.6"/>
      <path class="cls-21" d="M546.53,215.09s-.01-.07,0-.12c-1.66.9-12.27-12.57-13.86-14.05-16.84-15.52-24.09-26.51-46.7-30.01-11.81-1.83-25.77,6.16-37.71,5.75-11.46-.4-20.15-10.93-31.33-13.76-3.87-.98-8.36,11.15-6.35,8.84-4.63-2.27-8.17-4.7-8.17-4.7-15.12,5.59-15.65,60.03-17.54,66.9-1.88,6.88-6.71,17.16-6.71,17.16-1.09-3.13-2.57-5.64-2.76-8.87-.32-2.87-1.4-6.41-1.72-9.28-1.54-6.85-10.82-8.99-16.24-6.85l-3.12,2.45c-8.57,6.05-7.49,32.99-5.61,41.86-3.77,15.53,6.77,27.88,17.82,19.44l.11,6.59,11.87,36.59c10.01,20.54,34.9,46.4,59.06,53.27,8.66,2.46,20.22,6.7,29.72-1.95,9.61-8.75,13.61-13.76,23.52-21.55,9.5-7.47,14.25-12.5,20.71-22.71,6.68-10.56,7.64-13.6,10.16-25.5,1.12-5.32,3.29-13.22,5.28-18.03,2.29-5.56,12.18-27.17,16.98-40.18,4.8-13.02,2.6-41.28,2.6-41.28Z"/>
      <path class="cls-42" d="M370.33,260.03c-.76-5.18-1.74-10.38-3.5-15.32-.88-2.47-1.95-4.98-3.56-7.07-.62-.8-1.42-1.76-2.39-2.15s-1.88.66-2.51,1.33c-3.18,3.37-4.46,8.12-4.7,12.64-.04.76,1.43.56,1.47-.11.19-3.6,1.01-7.24,3.01-10.28.69-1.04,1.53-2.14,2.59-2.85l-.9.16c.23.07.18.05.5.28.61.43,1.12.99,1.58,1.57,2.3,2.94,3.54,6.69,4.54,10.23,1.11,3.92,1.84,7.93,2.43,11.95.1.68,1.55.31,1.45-.39h0Z"/>
      <path class="cls-42" d="M366.36,260.72c-5.92-2.08-5.33,7.4-6.48,10.6-.14.37-.29.77-.61,1.03.23-.18.1.19.03-.17-.06-.3-.25-.61-.32-.92-.47-2.05-.28-4.3-.1-6.37.25-2.91.61-5.45,1.7-8.11,1.18-2.85,3.21-7.05,6.69-7.44.81-.09,1.11-1.18.12-1.07-3.41.38-5.65,3.27-7.15,6.1-1.12,2.12-2,4.39-2.37,6.77-.41,2.69-.71,5.45-.59,8.18.05,1.12,0,3.25,1.13,3.94.92.57,2.02-.19,2.51-.98.63-1.01.8-2.33.99-3.48.31-1.87.49-8.18,3.64-7.08.63.22,1.7-.68.83-.99h0Z"/>
      <path class="cls-42" d="M523.23,235.21s-17.35-2.46-31.13-5.57c-13.79-3.11-25.78-11.68-25.78-11.68,0,0,15.08,7.74,25.97,10.25,10.89,2.5,30.94,7,30.94,7Z"/>
      <path class="cls-28" d="M433.71,327.18s12.31,7.49,22.6,11.14c10.28,3.66,27.07,6.06,27.07,6.06,0,0,.26-4.3-18.38-10.93-18.64-6.63-31.29-6.28-31.29-6.28Z"/>
      <path class="cls-3" d="M472.33,231.56c-15.99-2.18-27.05-1.53-31.46-.58-3.46.74-6.78,2.07-9.89,3.79,0,0-8.35,7.63-9.33,9.33-.98,1.7,5.35-1.14,5.35-1.14,1.37-.43,2.29-.91,3.7-1.18,7.75-1.5,15.11-3.86,23.02-3.47,6.77.29,16.07,3,22.65,4.69.04-2.68-.91-8.12-.62-10.78"/>
      <path class="cls-3" d="M537.9,273.75c.08-.23,1.09-1.45,1.15-1.68,0,0,.04-.27.04-.28-.7-1.59-1.2-3.87-2.56-5.86-2.39-3.5-8.22-12.57-20.11-21.72-1.9,1.8-5.81,4.87-7.72,6.66,5.42,3.22,8.77,5.89,13.47,10.12,4.41,3.97,10.36,9.89,13.95,14.73.51-.26-.04-.05.45-.36.29-.24.57-.5.83-.77.18-.27.36-.54.51-.83Z"/>
      <path class="cls-24" d="M462.91,334.19c-5.19-1.5-27.19-8.02-27.19-8.02,0,0,3.57,17.31,22.35,22.75,20.36,5.9,28.55-8.35,28.55-8.35l-23.71-6.39Z"/>
      <path class="cls-16" d="M462.91,335.04c-5.19-1.5-20.73-6.97-20.73-6.97,0,0,4.02,7.39,19.6,11.9,15.57,4.51,22.13.37,22.13.37l-21-5.31Z"/>
      <path class="cls-36" d="M490.5,340.75c-.51-.3-1.89-.27-4.22-1.38-4.21-2.01-5.76-4.16-8.8-5.31-5.2-1.95-9.18-.81-11.5-1.48-2.31-.67-5.07-3.77-10.51-4.89-3.18-.66-10.42-.33-14.83-1.2-2.64-.52-8.81-1.5-9.4-1.52-.82-.03,1.66,3.75,30.71,12.17,29.05,8.42,29.26,4.04,28.55,3.63Z"/>
      <path class="cls-21" d="M469.66,371.38c-.25-.1-.47-.25-.64-.45-3.29-3.66-3.22-5.23-5.04-6.19-.42-.22-.61-.44-1.95-1-5.4-2.22-8.66-3.68-26.13,2.02-.35.12-19.38-7.44-19.76-7.57l-8.92-7.42c-1.43-1.49-31.23-43.42-31.23-43.42-.3-1.22-5.22-10.63-5.23-11.73-.1-.09-.2-.19-.32-.27-.04-.03-.13-.1-.22-.16-.03.06-.08.15-.11.19-.18.42-.29.89-.38,1.33-.41,1.95-.5,3.94-.4,5.93.16,3.06-.07,6.08-.03,9.12.02,1.08.08,2.15.19,3.22,3.64,3.82,12.66,43.71,36.02,57.65.95.53,3.93,2.27,12.33,5.19,15.76,5.49,27.91,13.89,44.95,13.33,4.45-.15,8.54-2.25,11.19-5.68,7.56-9.78,33.18-48.9,39.97-64.66-6.83,8.39-27.34,33.9-37.28,46.15-.3.37-5.96,4.57-6.5,4.59"/>
      <path class="cls-18" d="M461.88,334.17c-12.18-3.11-31.53-9.71-31.53-9.71,0,0-4.09,30.62,24.15,37.83,28.24,7.22,34.02-21.37,34.02-21.37,0,0-14.46-3.65-26.64-6.76Z"/>
      <path class="cls-24" d="M462.34,334.29c-5.82-1.49-25.6-7.54-25.6-7.54,0,0-.29,18.4,20.75,23.78,22.81,5.83,29.19-10.01,29.19-10.01l-24.34-6.24Z"/>
      <path class="cls-16" d="M463.19,335.51c-6-1.53-24-7.26-24-7.26,0,0,4.82,8.55,22.83,13.15,18.01,4.6,25.43-.61,25.43-.61l-24.26-5.28Z"/>
      <path class="cls-18" d="M491.98,339.78c-.57-.32-.6-.66-3.39-1.66-4.66-1.67-7.3-3.8-10.68-4.97-5.78-2-10.17-.43-12.74-1.08-2.57-.66-5.67-4.15-11.7-5.16-3.53-.59-12.44-1.41-17.32-2.19-2.93-.46-5.98-2.53-6.63-2.53-.91,0-.99,7.24,31.27,15.48,32.26,8.24,32,2.55,31.2,2.11Z"/>
      <path class="cls-3" d="M464.62,322.43l-2.09,5.32c-.33.81-1.12,1.33-1.99,1.29-6-.3-32.92-7.28-33.25-1.94-.05.75-1.51,5.07-1.63,5.02l-1.01-1.87c-1.01-3.86,1.32-9.04,3.33-9.42,6.14-1.15,11.56-1.74,14.87-1.88,4.13-.17,15.51-.28,20.28.69,1.26.26,1.96,1.59,1.49,2.79Z"/>
      <path class="cls-3" d="M471.28,324.09l-1.04,5.62c-.16.86.08,1.7.6,2.08,3.57,2.63,21.59,8.97,19.52,13.76-.29.67-.57,3.7-.48,3.72l1.19-.44c1.42.25,2.91-7.13,1.91-8.43-3.04-3.96-5.9-7.09-7.74-8.81-2.3-2.14-8.79-7.73-11.93-9.19-.83-.39-1.8.43-2.03,1.7Z"/>
      <path class="cls-21" d="M375.78,167.32s16.68-26.46,53.36-27.39c27.68-.7,77.55,14.54,94.47,28.98,24.52,20.92,23.12,51.78,23.12,51.78l-170.95-53.36Z"/>
      <path class="cls-39" d="M445.76,388.67s-39.93-11.61-48.01-20.43c-8.08-8.82-16.05-22.52-21.04-41.22,0,0,3.37,40.02,24.37,49.61,27.68,12.64,42.69,15.3,42.69,15.3l1.99-3.26Z"/>
      <path class="cls-4" d="M520.27,278.26c2.34-.49,4.74,1.1,5.75,2.66.24.37.6,1.38.63,2.84.03,1.86-1.2,3.62-2.6,4.5-1.88,1.18-4.36.79-5.96-.58-2.18-1.86-2.16-5.09-.93-7.11.23-.37,1.23-1.91,3.12-2.31"/>
      <path class="cls-4" d="M496.3,278.56s12.14-5.09,17.37-4.18c7.64,1.32,15.66,7.97,17.27,12.39,0,0-10.42-9.52-15.83-10.29-5.17-.74-18.81,2.08-18.81,2.08Z"/>
      <path class="cls-4" d="M457.05,261.29c-1.75-1.63-5.13-2.24-6.79-1.43-.39.19-1.46.75-2.23,1.99-.98,1.58-.83,3.72-.08,5.2,1,1.98,3.33,2.92,5.41,2.57,2.82-.48,4.47-3.26,4.45-5.62,0-.43.62-1.09-.8-2.41"/>
      <path class="cls-4" d="M465.62,269.44s-9.28-10.27-14.77-11.96c-8.01-2.47-18.96-.41-22.65,2.73,0,0,14.64-3.45,20.24-1.56,5.35,1.81,17.17,10.79,17.17,10.79Z"/>
      <g>
        <path class="cls-7" d="M476.98,317.07c-3.1.7-7.17-.73-9.47-3.15-.51-.54-2.64-.71-1.92.04,3.04,3.19,8.96,4.98,12.96,4.07.4-.09.41-.37,0-.63-.41-.27-1.14-.43-1.57-.34"/>
        <path class="cls-7" d="M464.61,312.88c-1.61-1.35-3.54-2.34-5.55-3.04-.29-.1-.71-.09-.98.05-.21.11-.3.3-.11.49.8.79,1.95,1.33,3.06,1.6.35.09.83.12,1.11-.13.25-.23-.03-.49-.31-.56-.92-.22-1.81-.65-2.47-1.3-.37.18-.73.36-1.1.54,1.8.62,3.52,1.53,4.96,2.74.29.24.78.26,1.12.17.25-.07.57-.31.28-.55"/>
        <path class="cls-7" d="M456.39,310.98c-2.38-.69-4.93-2.48-5.64-4.58-1.07-3.18,1.73-7.04,5.18-7.98.38-.1.27-.39-.05-.55-.41-.21-.96-.18-1.35-.07-3.01.82-5.63,3.9-5.91,6.55-.26,2.47,1.6,4.74,4.29,6.19.8.43,1.67.81,2.56,1.07.36.1,1.04.17,1.3-.07.26-.24-.04-.45-.38-.55"/>
        <path class="cls-7" d="M481.7,317.01c-.06-.31.23-.43.42-.37.64.19,1.35.18,2.02-.12.14.31.29.63.43.94-1.33-.2-2.75-.12-4.11.34-.27.09-.58-.09-.74-.32-.12-.17-.21-.51.07-.61"/>
        <path class="cls-7" d="M479.79,316.88c1.53-.52,3.1-.59,4.59-.37.22.03.46.22.57.46.08.19.05.4-.14.48"/>
        <path class="cls-7" d="M486.6,318.65c1.58.35,3.69-.2,4.93-1.8,1.87-2.41,1.65-5.91.15-8.16-.16-.24.01-.46.25-.47.3-.02.59.23.76.48,1.3,1.96,1.75,4.7.83,7.18-.87,2.31-2.8,3.58-4.85,3.78-.61.06-1.24.04-1.83-.09-.24-.05-.64-.27-.68-.59-.04-.32.21-.39.43-.34"/>
      </g>
      <path class="cls-5" d="M422.17,249.87l.38,7.75c-.16,5.89.94,17.95,2,21.45,1.5,4.91,30.3,14.66,36.98,12.91,6.68-1.75,14.57-17.58,17.18-21.03l11.52,3.92c-.36,5.31-1.14,22.2.48,24.97,1.62,2.76,15.15,6.13,16.68,6.5,1.27.3,3.04.72,5,1.1,5.17,1.05,11.57,1.91,13.99.56,3.59-2,9.64-11.77,15.1-21.09l.88-1.45c.2-.35.39-.59.43-.7h0l.98-1.68c-14.6-12.74-37.09-17.58-53.27-11.46l.06.21-11.22-3.88c-10.49-12.17-31.48-23.05-49.15-21.31h0l-51.81-5.57-1.37,4.34,45.17,4.45ZM492.55,298.61c-1.01-1.72-.81-13.66-.35-22.86,14-5.08,34.26-.68,47.55,9.84l-.07.22c-2.93,4.99-10.72,18.29-14.25,20.25-4.18,2.31-31.04-4.67-32.89-7.41v-.05ZM428.36,278.85c-1.71-9.2-2.59-18.54-2.62-27.89,15.99-2.49,39.69,8.01,50.01,19.66-3.97,6.43-9.94,17.95-14.72,19.19-6.89,1.8-31.74-7.85-32.66-10.95h0Z"/>
    </g>
    <g id="Layer_1" data-name="Layer 1">
      <path class="cls-30" d="M738.7,1186.43c-1.09-16.9-2.05-33.82-2.87-50.73-.82-16.92-1.5-33.84-2.05-50.77-.55-17.01-.96-34.02-1.22-51.04-.27-16.93-.4-33.86-.39-50.8,0-16.93.15-33.87.44-50.8.28-16.95.72-33.9,1.26-50.84.54-16.97,1.17-33.93,1.8-50.9.63-17.06,1.25-34.13,1.88-51.19.62-16.98,1.25-33.96,1.87-50.94.62-16.98,1.25-33.96,1.87-50.94.15-4.16.31-8.32.46-12.49.02-.42-2.15-.11-2.17.58-.62,16.98-1.25,33.96-1.87,50.94-.62,16.98-1.25,33.96-1.87,50.94s-1.25,34.13-1.88,51.19c-.62,16.97-1.26,33.94-1.84,50.91-.58,16.95-1.08,33.91-1.44,50.86-.35,16.93-.57,33.86-.64,50.79-.08,16.93-.01,33.87.19,50.8.2,17.02.54,34.03,1.02,51.04.48,16.93,1.09,33.85,1.84,50.77.75,16.92,1.64,33.84,2.67,50.74.25,4.14.51,8.29.78,12.43.03.47,2.22.08,2.17-.58h0Z"/>
      <path class="cls-30" d="M693.73,923.09c-.85-23.33-1.18-46.66-1.76-70-.58-23.34-1.41-46.68-3.28-69.95-1.04-12.95-2.41-25.87-4.24-38.73-.06-.42-2.25.03-2.17.58,3.26,22.91,5.05,46,6.16,69.1,1.12,23.39,1.54,46.8,2.05,70.2.29,13.13.6,26.26,1.08,39.38.01.36,2.2.02,2.17-.58h0Z"/>
      <path class="cls-30" d="M782.04,993.29c-.43-20.04-.72-40.09-.98-60.13-.26-20.07-.49-40.15-.78-60.22-.29-20.03-.64-40.07-1.16-60.1-.51-19.93-1.18-39.85-2.12-59.76-.93-19.75-2.11-39.49-3.66-59.2-.19-2.41-.38-4.82-.58-7.23-.03-.39-2.22,0-2.17.58,1.63,19.68,2.9,39.39,3.89,59.12,1,19.89,1.72,39.79,2.28,59.7.56,20.02.94,40.04,1.25,60.07.31,20.07.54,40.15.8,60.22.25,20.05.53,40.1.93,60.16.05,2.46.1,4.92.15,7.38,0,.35,2.19.03,2.17-.58h0Z"/>
      <path class="cls-21" d="M671.53,572.55l36.38-25.78s10.93-19.28,16.72-23.51c5.79-4.23,32.5-14.63,33.89-14.69,1.38-.07,25.6-26.01,31.54-23.21,5.94,2.8,8.75,8.36,4.16,15.98-4.58,7.61-24.15,19.76-21.25,23.57,2.45,2.76,5.45,5.01,8.83,6.65,0,0,4.98-8.84,11.3-10.31,6.32-1.47,10.6,5.3,10.6,5.3l-1.26,4.08,8.59-1.8s10.28-18.46,18.54-15.93c3.37-3.51,7.43-6.33,11.93-8.3,3.96-1.39,8.24.54,9.55,4.31.23.66.36,1.35.38,2.06h0l-29.73,38.15-56.34,31.85s-26.89.78-32.56,1.54l-20.37,3.04-40.91-12.99Z"/>
      <path class="cls-42" d="M773.15,525.3c-.62-1.3-1.7-2.15-2.79-3.05-1.23-1.01-2.46-2.02-3.73-2.99-2.47-1.89-5.07-3.61-7.92-4.86-.48-.21-1.11-.09-1.54.19-.28.18-.67.68-.18.9,2.74,1.2,5.26,2.84,7.63,4.65,1.17.89,2.31,1.82,3.44,2.75,1.06.87,2.31,1.73,2.92,3,.37.78,2.5.11,2.17-.58h0Z"/>
      <path class="cls-42" d="M707.52,545.32c2.94,6.61,7.1,13.14,14.15,15.85.92.35,2.54-.97,1.25-1.46-6.58-2.52-10.5-8.81-13.24-14.97-.43-.96-2.58-.33-2.17.58h0Z"/>
      <path class="cls-42" d="M783.06,565.49c6.04-4.88,9.52-11.93,12.57-18.91,1.86-4.27,3.69-8.55,5.53-12.83.87-2.02,2.09-4.13,2.66-6.25.45-1.69-1.55-2.87-2.67-3.81-2.88-2.39-5.95-3.71-9.69-2.68-3.12.86-5.7,3.32-7.82,5.67-2.56,2.84-4.3,6.31-5.99,9.72-.94,1.9-1.86,3.8-2.84,5.67-.97,1.83-2.28,3.57-3.1,5.47-.45,1.03-.63,2.18-1.33,3.08-.76.99-1.93,1.62-2.99,2.23-1.95,1.13-3.83,2.35-5.64,3.7-3.66,2.74-6.93,5.97-9.77,9.55-.33.42.28.61.59.63.5.04,1.12-.2,1.44-.59,2.41-3.03,5.13-5.79,8.16-8.21,1.47-1.18,3.01-2.27,4.61-3.27,1.5-.94,3.14-1.72,4.51-2.86s1.8-2.55,2.45-4.17c.74-1.85,2.05-3.55,2.99-5.32,1.8-3.38,3.33-6.89,5.21-10.22,1.7-3.03,3.75-5.51,6.33-7.83,1.14-1.02,2.31-1.9,3.83-2.25,2.01-.47,3.81.24,5.48,1.36.71.48,1.38,1.02,2.02,1.58.6.52,1.58,1.16,1.96,1.87.45.85-.34,2.03-.68,2.84-.44,1.02-.88,2.05-1.32,3.07-1.71,3.97-3.41,7.93-5.12,11.9-3.22,7.47-6.62,15.29-13.11,20.53-.38.31-.19.64.2.76.49.15,1.16-.11,1.54-.41h0Z"/>
      <path class="cls-42" d="M820.07,544.54c3.11-5.77,6.23-11.54,9.34-17.31,1.54-2.85,3.07-5.7,4.61-8.55.39-.73.79-1.46,1.18-2.19.22-.42.62-.97.51-1.47-.18-.88-1.65-1.43-2.37-1.71-4.33-1.71-9.48-.35-13.15,2.27-4.41,3.16-7.07,8.05-9.8,12.6-3.63,6.05-7.52,11.95-11.63,17.69-.57.79,1.61.61,2.02.04,3.23-4.51,6.33-9.13,9.27-13.84,2.64-4.22,4.92-8.79,8.13-12.63,2.95-3.53,7.43-6.55,12.24-5.46.83.19,2.69.68,2.98,1.56.18.54-.55,1.49-.82,2-.39.73-.79,1.46-1.18,2.19l-4.14,7.67c-3.07,5.7-6.15,11.4-9.22,17.09-.48.89,1.69.66,2.02.04h0Z"/>
      <path class="cls-21" d="M1005.73,580.27c.74-8.24,2.83-17.12,5-21.73.67-3.75,1.48-8.09,2.48-13.32.29-1.52.62-2.96.95-4.4.25-.72.42-1.46.53-2.21,6.33-25.19,18.24-36.54,18.24-36.54,15.19-14.35,37.66-19.86,59.02-14.46,25.25,5.87,45.07,24.97,53.93,41.83,4.41,8.35,5.4,17.83,2.78,26.62-2.22,7.51-5.98,15.68-9.98,23.5,8.94,1.51,16.99,6.29,10.54,20.68-8.9,19.85-24.8,23.21-30.4,16.05-1.63-.08-6.11,5.55-7.41,9.82-2.49,8.16-5.29,22.99-2.42,31.2l-.75,2.32c-25.2,24.4-58.78,71.14-114.08,21.26l39.15-36.74,2.16-9.3c-2.42-.68-4.69-1.91-7.04-2.87-9.64-3.92-15.1-11.72-18.68-20.45-3.03-7.4-4.2-21.89-4.1-29.79,0-.49.03-.97.07-1.46Z"/>
      <path class="cls-14" d="M1035.19,634.82s23.76,6.92,48.3-1.67c0,0-4.06,6.15-20.6,7.91-16.54,1.76-28.48-2.62-28.48-2.62l.78-3.62Z"/>
      <ellipse cx="1021" cy="554.27" rx="5.1" ry="5.51" transform="translate(265 1436.38) rotate(-77.9)"/>
      <path d="M1015.52,548.75c2.9-.96,6.65-1.2,11.77.32,8.21,2.45,9.95,12.93,9.95,12.93,0,0-2.88-8.33-10.92-10.93-3.88-1.25-10.86-.48-14.19.31.24-.72,1.64-1.96,3.39-2.62Z"/>
      <path class="cls-42" d="M1143.79,599.86c1.37-2.17,2.33-4.79,1.9-7.4-.09-.52-.11-1.15-.69-1.24-.88-.13-1.85.1-2.69.34-1.6.46-3.1,1.23-4.49,2.14-2.82,1.83-5.31,4.14-7.65,6.54-.51.53,1.43.07,1.6,0-.47.19-.13.04-.01.01,0,0,.13-.04.22-.06.4-.08.82-.06,1.18.15.76.44.8,1.58.67,2.36-.15.89-.62,1.74-1.31,2.33-1,.85-2.26.81-3.5.67-.5-.06-1.06.08-1.52.29-.14.07-.78.46-.28.51,3.17.36,7.97-.4,8.74-4.16.25-1.23.02-2.64-1.39-2.95-1.31-.28-2.82.14-4.04.63h1.6c1.96-2,4.02-3.94,6.3-5.6.74-.54,1.5-1.04,2.3-1.48.27-.15.55-.29.83-.42.31-.14.49-.22.68-.29.11-.04.23-.08.35-.12-.24.08.01,0,.11-.03.04,0,.18-.04.23-.05-.21.03.48-.03.09-.01.11,0,.21,0,.32,0-.34-.03.06.04.08.02-.05.03-.18-.19-.17-.08,0,.05.05.09.05.14,0,.22.14.48.18.7.52,2.62-.44,5.25-1.83,7.44-.2.31.78.18.86.16.38-.07,1.05-.21,1.28-.57h0Z"/>
      <ellipse cx="1078.62" cy="566.67" rx="5.1" ry="5.51" transform="translate(298.42 1502.53) rotate(-77.9)"/>
      <path d="M1062.8,566.76s10.27-8.39,19.32-5.77c12.73,3.7,13.94,9.13,15.63,13.5,0,0-6.42-8.89-16.33-11.53-8.99-2.39-18.61,3.8-18.61,3.8Z"/>
      <path class="cls-8" d="M1041.17,599.41c7.51,1.57,19.86,3.31,19.86,3.31,0,0-3.59,20.3-24.36,15.62-17.36-3.91-13.3-23.14-13.3-23.14,0,0,10.3,2.63,17.81,4.2Z"/>
      <path d="M1040.9,599.35c3.59.75,17.01,3.42,17.01,3.42,0,0-5.97,11.13-18.97,8.41-14.1-2.95-13.57-14.31-13.57-14.31l15.53,2.48Z"/>
      <path class="cls-16" d="M1039.96,600.79c3.69.77,15.04,2.57,15.04,2.57,0,0-5.01,1.88-16.08-.44-11.07-2.32-13.65-5.68-13.65-5.68l14.69,3.55Z"/>
      <path class="cls-8" d="M1022.21,594.84c.08-.37.91-.36,2.77-.12,3.1.41,4.31-.4,6.56-.08,3.83.53,5.95,2.36,7.6,2.71,1.64.34,4.32-.48,8.05.57,2.18.62,7.51,2.48,10.51,3.35,1.8.52,4.09.34,4.46.51.52.23-1.73,4.61-22.38.28-20.65-4.33-17.67-6.71-17.57-7.22Z"/>
      <path d="M1070.73,540.63c.07-.17.75.19.82.02,11.55,3.77,19.57,8.05,22.22,10.12,2.01,1.58,3.76,3.49,5.24,5.61,0,0,4.14,5.76,4.25,7.19.1,1.43-3.11-2.44-3.11-2.44-.76-.71-1.2-1.32-2.03-1.94-4.56-3.43-8.6-7.29-13.86-9.52-4.49-1.93-11.37-3.07-16.18-4.02.81-1.79,2.02-3.18,2.67-5.03Z"/>
      <path d="M1042.93,533.86c-10.54-1.1-18.39-.34-21.2.52-2.13.65-4.16,1.72-6.03,3.08,0,0-.73.51-1.68,1.22-.08.58-.15,1.17-.23,1.75,0,.04,0,.08,0,.12,0,.19.02.38.04.56.56-.27,1.04-.53,1.69-.72,4.79-1.34,9.29-3.3,14.25-3.27,4.25,0,10.17,1.67,14.36,2.7-.08-1.96-.62-3.71-.54-5.67,0-.18-.66-.12-.67-.31Z"/>
      <g>
        <path d="M1029.77,505.04c11.24-22.58,31.5-27.77,57.63-24.44,22.54,2.88,44.47,5.42,61.51,23.36,2.8,2.99,12.05,12.4,14.74,19.67,9.31,25.23-1.87,46.29-11.93,62.96-.36-.24-.72-.49-1.07-.74-2.19-1.13-4.52-1.68-6.98-1.66-1.73-.17-3.52.2-5.18.5-1.66.3-3.33,1.07-4.74,1.78-3.1,1.56-5.12,3.99-6.99,6.67-.07.12-.1.25-.17.36-2.31.21-2.18-.16-3.91-1.9-1.61-1.62.75-5.44.81-7.53.12-4.26,1.75-8.23,2.81-12.31.94-2.16,1.93-4.3,3.03-6.38,4.56-8.78,1.74-15.11,1.32-23.75,0,0-1.7-12.92-14.92-23.36-14.48-11.41-23.41-2.73-43.58-7.55-17.4-4.23-17.38-14.73-31.25-10.65,0,0-4.27.2-6.17,1.55-1.91,1.35-4.95,3.42-4.95,3.42Z"/>
        <path class="cls-9" d="M1030.08,504.98c2.97-5.95,6.95-11.41,12.15-15.6,4.83-3.9,10.54-6.51,16.56-7.96,6.62-1.59,13.52-1.85,20.3-1.46,3.87.22,7.72.71,11.57,1.21,3.87.5,7.74,1.01,11.59,1.63,7.64,1.22,15.26,2.85,22.51,5.61s14.27,6.81,20.17,12.08c2.28,2.03,4.36,4.27,6.44,6.5,2.33,2.52,4.59,5.1,6.67,7.83,2.05,2.7,4.05,5.58,5.26,8.77,1.62,4.27,2.7,8.77,3.21,13.3.92,8.24-.19,16.55-2.72,24.42-2.35,7.3-5.83,14.18-9.67,20.81-.88,1.53-1.78,3.04-2.69,4.55l.61-.16c-.87-.59-1.71-1.09-2.69-1.46-.93-.35-1.89-.61-2.88-.77-1.99-.32-4.06-.31-6.05,0-3.75.59-7.43,1.95-10.27,4.55-.72.66-1.38,1.38-2,2.13-.66.8-1.43,1.67-1.85,2.62l.45-.17c-.65.06-1.38.15-1.97-.18-.49-.28-.87-.76-1.25-1.16-.52-.55-.97-.98-1.05-1.76-.08-.73.09-1.48.27-2.18.35-1.32.97-2.63,1.07-4,.16-2.2.5-4.29,1.08-6.43.28-1,.58-1.99.88-2.99s.52-2.1.9-3.1c.77-2.04,1.81-4.03,2.82-5.96,1.82-3.49,2.79-7.18,2.74-11.13-.05-3.63-.77-7.22-1.1-10.83-.12-1.27-.16-2.43-.46-3.66-1.07-4.47-3.15-8.72-5.77-12.48-2.06-2.96-4.5-5.65-7.23-8.02-2.56-2.23-5.38-4.2-8.51-5.55-4.88-2.1-10.09-2.2-15.31-1.98-2.93.12-5.86.27-8.79.21-3.56-.07-7.11-.44-10.6-1.15-3.6-.73-7.11-1.83-10.4-3.46-2.36-1.18-4.56-2.63-6.72-4.15-1.72-1.21-3.43-2.46-5.36-3.31s-4.05-1.21-6.17-1.07c-1.32.08-2.63.32-3.91.65-.5.13-.67.23-1.1.26-.47.03-.95.08-1.42.15-1.3.17-2.62.43-3.83.94-1.3.55-2.43,1.53-3.58,2.32-.82.56-1.64,1.12-2.46,1.68-.12.08.11.08.14.08.13,0,.31-.07.42-.14.82-.56,1.64-1.12,2.46-1.68,1.28-.88,2.52-1.96,4.01-2.44,1.24-.39,2.55-.58,3.84-.68,1.05-.08,2.07-.48,3.11-.67,2.32-.42,4.71-.38,6.94.42,1.93.69,3.64,1.83,5.31,2.99,2.04,1.42,4.07,2.87,6.25,4.08,2.86,1.58,5.91,2.77,9.07,3.6,6.5,1.71,13.16,1.99,19.84,1.71,5.27-.22,10.62-.58,15.7,1.1,2.89.96,5.55,2.47,7.99,4.29,3.08,2.3,5.87,5.01,8.24,8.04,3.1,3.96,5.56,8.5,6.92,13.35.24.84.48,1.71.59,2.58.18,1.53.24,3.08.42,4.61.22,1.78.48,3.55.65,5.34.36,3.7.18,7.38-1.1,10.9-.74,2.03-1.83,3.91-2.76,5.85-.47.99-.92,1.99-1.37,3-.43.98-.63,2.07-.94,3.09-.58,1.96-1.2,3.91-1.6,5.91-.21,1.01-.36,2.04-.43,3.07-.05.79-.12,1.51-.34,2.28-.39,1.34-.98,2.69-1.06,4.1-.03.58.04,1.18.39,1.66.39.52.92,1.02,1.39,1.47.83.79,1.77.74,2.85.65.1,0,.4-.06.45-.17.41-.92,1.16-1.76,1.79-2.55.68-.84,1.41-1.63,2.22-2.34,1.71-1.51,3.8-2.61,5.96-3.35,2.5-.85,5.25-1.06,7.87-.86,1.22.09,2.43.34,3.59.74s2.11.93,3.1,1.61c.12.08.53-.04.61-.16,3.96-6.57,7.75-13.27,10.58-20.41,3.01-7.58,4.89-15.63,4.84-23.81-.03-4.47-.63-8.92-1.75-13.25-.56-2.17-1.21-4.36-2.1-6.42-.66-1.54-1.51-3.01-2.42-4.41-3.41-5.28-7.74-9.91-12.05-14.45-5.65-5.94-12.45-10.66-19.93-14-7.11-3.18-14.7-5.12-22.35-6.52-3.91-.71-7.85-1.29-11.79-1.82s-7.9-1.09-11.87-1.45c-6.87-.63-13.85-.66-20.67.48-6.07,1.02-12.01,3.04-17.22,6.35s-9.87,8.2-13.26,13.64c-.93,1.5-1.79,3.05-2.58,4.63-.03.06.54.03.62-.12Z"/>
      </g>
      <g>
        <path class="cls-7" d="M1038.82,589.34c1.59,1.31,4.4,1.78,6.48,1.18.46-.13,1.75.42,1.11.61-2.75.79-6.73-.04-8.79-1.73-.2-.17-.12-.32.19-.34.32-.02.8.11,1.01.29"/>
        <path class="cls-7" d="M1047.3,590.83c1.35-.24,2.78-.19,4.16.04.2.04.44.17.56.32.09.12.08.26-.09.3-.71.18-1.54.13-2.27-.06-.23-.06-.52-.19-.61-.4-.08-.2.17-.26.35-.21.6.16,1.25.2,1.84.05.16.21.32.41.48.62-1.24-.21-2.52-.24-3.72-.03-.24.04-.54-.09-.7-.25-.12-.11-.23-.34,0-.38"/>
        <path class="cls-7" d="M1052.66,592.3c1.6.35,3.63.16,4.68-.76,1.59-1.39,1.18-4.47-.54-6.02-.19-.17-.04-.29.19-.28.3.01.61.19.81.37,1.5,1.35,2.05,3.96,1.41,5.47-.61,1.41-2.38,2.06-4.39,2.03-.6-.01-1.22-.07-1.82-.2-.24-.05-.66-.23-.73-.43-.08-.21.16-.23.39-.18"/>
        <path class="cls-7" d="M1036.09,587.89c.13-.15,0-.3-.13-.33-.43-.09-.84-.31-1.14-.67-.18.12-.36.25-.54.38.84.3,1.64.77,2.29,1.43.13.13.36.12.53.05.12-.05.28-.21.15-.35"/>
        <path class="cls-7" d="M1037.24,588.39c-.73-.74-1.62-1.25-2.56-1.59-.14-.05-.34-.02-.47.07-.1.08-.15.2-.07.3"/>
        <path class="cls-7" d="M1032.73,587.28c-1.03-.29-2.08-1.22-2.32-2.45-.36-1.86.85-3.67,2.41-4.43.17-.08.13-.25,0-.33-.17-.1-.42-.06-.59.03-1.36.66-2.46,2-2.68,3.61-.2,1.5.53,2.77,1.67,3.49.34.22.71.4,1.09.5.16.04.45.04.57-.11.12-.16,0-.27-.15-.31"/>
      </g>
      <path class="cls-30" d="M747.77,1024.27c2.51-18.77,4.36-37.64,5.62-56.54,1.26-18.93,1.93-37.89,2.1-56.86.1-10.74.05-21.48-.08-32.22-.01-1.09-2.21-.73-2.2.19.22,18.99.19,37.98-.44,56.96-.62,18.95-1.78,37.88-3.56,56.76-1.01,10.65-2.22,21.29-3.64,31.9-.14,1.06,2.07.75,2.2-.19h0Z"/>
      <path class="cls-21" d="M970.24,850.15c20.56-25.21,41.06-69.89,49.33-98.19l-10.86-73.22c-34.88-15.26-39.02,35.85-39.02,35.85-2.07,12.46-31.84,77.56-41.22,98.5,17.9,6.87,30.34,21.64,41.76,37.06Z"/>
      <path class="cls-21" d="M950.54,825.12c-.75-9.65-8.31-17.82-12.24-26.94l-118.22-46.44-9.72,26.6s74.4,67.25,119.31,79.83c1.94.54,11.82-2.4,14.75-2.44,1.77-10.89,6.98-19.67,6.13-30.61Z"/>
      <path class="cls-21" d="M992.88,806.57s-13.79,33.48-22.64,43.59c-8.86,10.1-26.98,9.84-35.94,8.84-24.86-2.79-14.42-35.77-14.42-35.77l23.71-38.36,49.29,21.71Z"/>
      <path class="cls-22" d="M1013.27,1037.91l-3.49-119.2,82.29,12.32,7.71,95.87c-28.9,3.19-57.68,7.38-86.52,11.01Z"/>
      <path class="cls-43" d="M1174.01,755.17c6.61,23.14,13.25,14.48,13.91,17.58.8,3.78,9.19,101.78,20.9,169.08-5.61,6.91-34.49,10.82-47.38,14.17-18.72,4.86-37.62,7.24-56.87,8.48-17.36,1.11-32.52-2.09-49.9-2.09-19.88,0-43.37,2.39-63.24-4.16,1.35-40.98-6.12-127.25-7.02-146.29l-2.72-.33s-38.64-15-46.91-29.45c34.18-63.16,21.18-91.4,59.28-117.14,5.39-3.64,28.16-16.53,36.98-17.61-1.86,3.76-2.15,12.19-1.32,14.7,2.41,7.23,3.7,8.69,10.03,11.7,5.59,2.65,21.1,2.14,27.15.31,18.93-5.72,35.91-24.5,41.71-37.03,17.29,3.42,33.18,20.3,46.72,24.71,50.6,16.46,35.58,81.96,35.58,81.96-8.12,5.92-16.9,11.41-16.9,11.41Z"/>
      <path class="cls-35" d="M974.13,728.51c0,5.96.73,11.95,1.42,17.86.75,6.41,1.64,12.81,2.58,19.19.36,2.44.85,4.88,1.09,7.34.48,4.94.9,9.9,1.39,14.84.8,8.17,1.61,16.35,2.7,24.48.12.92,2.3.39,2.17-.58-1.71-12.76-2.86-25.61-4.01-38.43-.19-2.1-.57-4.18-.88-6.27-.91-6.03-1.75-12.08-2.51-18.13-.84-6.78-1.77-13.66-1.77-20.51,0-1.07-2.19-.7-2.19.2h0Z"/>
      <path class="cls-29" d="M952.25,752.2c-.04.12-.09.22-.17.32-.22-.2-.43-.4-.65-.6.27.09.54.19.82.28Z"/>
      <path class="cls-29" d="M1036.48,825.83c.04.1.1.2.18.28.19-.2.37-.41.56-.61-.25.11-.49.22-.74.32Z"/>
      <path class="cls-21" d="M1170.72,883.05c11.84-30.3,19.52-95.7,18.72-125.17l-32.79-66.36c-37.88-3.83-26.15,46.08-26.15,46.08,1.85,12.49-17.46,110.57-19.96,133.38,19.15,1.06,44.58.89,60.18,12.08Z"/>
      <path class="cls-21" d="M1134.55,872.83c-6.35-7.31-3.12-13.19-11.7-18.18l-136.81,36.85,8.02,27.16s109.21,12.66,152.79-3.95c1.88-.72-1.33-11.87,1-13.64-5.06-9.81-6.1-19.96-13.29-28.24Z"/>
      <path class="cls-43" d="M1108.6,637.09s89.25,20.4,92.4,77.29c3.15,56.89-6.01,90.6-6.01,90.6,0,0-58.28-5.97-80.58-14.93-22.3-8.96-14.7-94.25-14.7-94.25"/>
      <path class="cls-35" d="M1127.56,793.69c-4.43-1.46-8.85-2.92-13.28-4.39l.22.39c.18-4.53.45-9.06.75-13.58.66-10.21,1.52-20.4,2.67-30.56s2.65-21.31,5.2-31.72c1.24-5.03,2.76-10.04,5.33-14.57,2.66-4.68,6.3-8.81,10.72-11.91,4.91-3.46,10.76-5.75,16.52-6.53.1-.01.2-.02.3-.03,1.07-.08,1.81-1.32.3-1.2-5.15.39-10.42,2.42-14.89,4.89-9.62,5.31-15.94,14.23-19.09,24.64-3.03,10.04-4.54,20.57-5.86,30.95-1.37,10.76-2.34,21.57-3.1,32.39-.27,3.85-.51,7.7-.72,11.55-.1,1.87-.34,3.81-.28,5.69,0,.09,0,.18-.01.26,0,.16.04.33.22.39,4.43,1.46,8.85,2.92,13.28,4.39.49.16,1.11.1,1.54-.2.23-.16.71-.67.19-.85h0Z"/>
      <path class="cls-21" d="M1177.41,856.19s-7.43,35.44-14.29,46.99c-6.86,11.55-24.72,14.61-33.72,15.26-24.95,1.81-20.72-32.53-20.72-32.53l16.29-42.05,52.43,12.33Z"/>
      <rect class="cls-40" x="-8.01" y="936.34" width="1354.13" height="111.18" transform="translate(1338.1 1983.86) rotate(180)"/>
      <rect class="cls-38" x="-29.76" y="924.78" width="1419.1" height="29.95"/>
      <path class="cls-42" d="M1113.9,858.9c3.37.96,6.61,2.27,9.21,4.67,2.61,2.41,4.55,5.49,6.57,8.38.33.48,2.44-.21,2.04-.78-2.05-2.93-4.02-6.07-6.7-8.49s-5.97-3.74-9.36-4.7c-.49-.14-1.09,0-1.53.25-.21.12-.73.54-.24.68h0Z"/>
      <rect class="cls-31" x="975.34" y="814.57" width="6.43" height="95.74" transform="translate(562.32 -373.74) rotate(30)"/>
      <path class="cls-21" d="M1010.06,891.61s-19.5-3.36-21.18-4.43c-1.68-1.06-21.08-17.94-23.1-18.26-2.02-.32-17.52,3.54-17.52,3.54l-8.49,2.88s-9.25,4.76-9.96,7.72c-.71,2.97,2.63,5.7,4.66,6,1.39.31,2.68.95,3.76,1.87-1.28,1.32-1.98,3.1-1.94,4.94.48,2.3,5.43,3.65,5.43,3.65-.52,1.87-.68,3.83-.48,5.77.51,2.31,3.77,3.2,3.77,3.2,0,0-2.72,5.32-2.01,7.18.71,1.86,8.3,5.76,17.42,5.61,6.62.58,7.93.99,11.13.67,5.2-.63,34.14-2.43,34.14-2.43l1.11-21.21"/>
      <path class="cls-42" d="M934.61,797.1c6.32,3.15,6.6,11.17,6.61,17.29,0,.67,2.17.26,2.17-.58-.01-6.44-.46-14.48-7.05-17.76-.45-.23-1.13-.05-1.54.2-.29.19-.66.61-.19.85h0Z"/>
      <rect class="cls-11" x="569.99" y="888.36" width="214.76" height="17.25" rx="5.43" ry="5.43"/>
      <rect class="cls-41" x="579.67" y="906.44" width="205.08" height="17.25" rx="5.31" ry="5.31"/>
      <rect class="cls-27" x="579.67" y="870.86" width="194.01" height="17.25" rx="5.16" ry="5.16"/>
      <polygon class="cls-28" points="1013.07 929.2 796.12 929.2 809.96 920.99 1026.91 920.99 1013.07 929.2"/>
      <path class="cls-21" d="M816.94,784.28l-14.53-9.4s-23.94-.25-34.14-4.68c-7.25-3.49-13.99-7.96-20.01-13.3l-23.39-9.68s-12.37,1.58-13.15-2.25c-.78-3.83,3.7-5.64,8.04-7.4,4.34-1.76,69.31-4.58,69.31-4.58-4.88-4.65-10.14-8.87-15.74-12.61-8.64-5.69-9.71-13.19-4.25-14.7,3.36-.93,17.47,4.32,19.82,9.84,2.35,5.52,16.17,6.54,24.08,13.5,7.91,6.96,9.56,21.23,9.56,21.23,3.72,4.22,10.18,8.99,10.18,8.99-.9,10.13-15.78,25.04-15.78,25.04Z"/>
      <path class="cls-42" d="M738.51,748.62c-.16-.21.44-1.35.58-1.58.42-.66.97-1.23,1.64-1.65,1.21-.77,2.73-1.05,4.13-1.18,3.31-.3,6.78.36,9.88,1.5s5.92,2.63,8.61,4.39c2.65,1.73,5.33,3.62,7.42,6.01.59.68,2.66-.16,2-.92-2.54-2.91-5.92-5.23-9.22-7.21-3.47-2.08-7.24-3.83-11.21-4.68-3.53-.75-7.39-1-10.86.2-1.57.54-2.98,1.39-4.01,2.71-.53.68-1.66,2.42-.98,3.32.54.71,2.63-.1,2-.92h0Z"/>
      <path class="cls-42" d="M758.15,742.87c-.05.17-.63.54-.63.54,0,.02-.04,0,.03,0,.22,0,.46-.05.68-.07.71-.06,1.42-.06,2.13-.07,2.06,0,4.12.07,6.17.19,1.95.12,3.9.26,5.83.51.66.09,1.32.18,1.97.32.2.04.4.08.6.15.16.05.02.09,0-.07.12.77,2.3.26,2.17-.58s-2.61-.92-3.16-1c-2.49-.34-4.99-.53-7.5-.66-2.37-.12-4.76-.2-7.13-.1-.91.04-2.98-.02-3.33,1.1-.25.79,1.94.5,2.18-.26h0Z"/>
      <path class="cls-42" d="M778.44,753.55c.33.04.54.19.64.45,0-.03-.01-.05-.02-.08.02-.01,0,.14,0-.06s.02-.39.04-.59c.08-.62.24-1.22.44-1.81.66-1.94,1.72-3.72,3.09-5.24,1.26-1.39,2.8-2.53,4.5-3.32.57-.27,1-.43,1.63-.59.1-.03.21-.05.32-.07.13-.02.11-.02-.06,0,.05,0,.09-.01.14-.02.05.02.37.13-.02-.02-.1-.04-.49-.16-.55-.46.22,1.07,2.4.51,2.17-.58s-2.03-.57-2.67-.39c-1.53.44-2.96,1.19-4.27,2.08-3.27,2.22-5.76,5.68-6.71,9.52-.19.78-.71,2.75.62,2.85.53.04,1.19-.15,1.41-.69.2-.48-.19-.95-.68-.99h0Z"/>
      <path class="cls-42" d="M821.87,750.77c-.67,5.09-3.07,11.27-8.73,12.42-.3.06-1.06.38-.95.8.12.44.95.27,1.22.21,2.93-.6,5.52-2.38,7.31-4.74,1.96-2.59,2.89-5.8,3.31-8.98.11-.8-2.08-.4-2.17.29h0Z"/>
      <path class="cls-26" d="M597.13,877.5c-.26,1.9-.15,3.77.41,5.61.13.44,1.12.23,1.39.17.54-.12,1.16-.32,1.49-.8,1.25-1.83,2.31-3.78,3.18-5.82l-2.88.63c.48,1.21.91,2.45,1.44,3.63s1.87,1.05,2.95.57c1.17-.52,1.46-1.65,1.95-2.74.54-1.22,1.09-2.43,1.63-3.65l-2.88.63c.34,1.33.69,2.65,1.03,3.98.25.97.51,2.01,1.68,2.11,1.29.11,2.61-.48,3.34-1.55.79-1.16,1.54-2.35,2.31-3.52l-2.88.63c.48,1.35.76,2.73.85,4.16.04.62,2.95.1,2.9-.78-.09-1.43-.37-2.81-.85-4.16-.15-.43-1.1-.23-1.39-.17-.54.12-1.17.31-1.49.8-.43.65-.86,1.31-1.28,1.96-.21.33-.43.65-.64.98-.1.16-.32.65-.49.73l1.1-.35c.59-.12.41.06.18-.32-.1-.16-.17-.36-.22-.54-.15-.48-.26-.98-.38-1.46-.28-1.09-.56-2.18-.85-3.27-.21-.81-2.65.1-2.88.63-.43.96-.85,1.91-1.28,2.87-.19.43-.39.87-.58,1.3-.15.34-.34,1.13-.66,1.34l1.37-.51-.19.03h.93c-.47-.12-.77-1.49-.93-1.88-.29-.74-.58-1.47-.88-2.21-.31-.78-2.64.05-2.88.63-.87,2.04-1.93,3.98-3.18,5.82l2.88-.63c-.52-1.73-.69-3.52-.44-5.31.11-.81-2.76-.29-2.87.47h0Z"/>
      <path class="cls-26" d="M582.88,890.11c0,4.89,0,9.79,0,14.68,0,.4,2.9.01,2.9-.78,0-4.89,0-9.79,0-14.68,0-.4-2.9-.01-2.9.78h0Z"/>
      <path class="cls-26" d="M744.58,894.12c-.27,1.94-.05,3.88.67,5.7.39.99,2.13.9,2.67.06.8-1.22,1.43-2.48,1.86-3.89l-2.84.2c.71,1.5,1.43,3,2.14,4.49.48,1.01,2.02.85,2.67.06,1.49-1.81,2.66-3.85,3.45-6.06l-2.84.2c.57,1.25,1.12,2.5,1.7,3.74.46.98,1.12,1.66,2.29,1.6s1.95-.78,2.5-1.73c.7-1.2,1.32-2.45,1.97-3.67l-2.22.82c.45.17.61,1.47.86,1.87.45.71,1.2,1.13,2.05,1.11.77-.02,1.56-.38,2.05-.98.22-.28.37-.61.5-.94.05-.13.12-.28.16-.42.07-.27.29-.3-.04-.14l-1.48.11c.44.19.64.81.89,1.19.29.44.63.8,1.08,1.07,1.04.62,2.41.57,3.34-.25,1.46-1.3-.82-2.38-1.94-1.38.71.04.9-.03.59-.22-.12-.07-.21-.16-.27-.28-.17-.2-.29-.47-.43-.7-.26-.42-.56-.82-.97-1.1-1.04-.72-2.38-.39-3.13.59-.27.35-.41.76-.57,1.17-.05.12-.16.27-.15.4,1.12.15,1.47.01,1.06-.4l-.13-.22c-.52-1.05-.55-2-1.79-2.47-.79-.3-1.82.08-2.22.82s-.76,1.42-1.14,2.13c-.16.3-.32.59-.48.89-.29.54-.75.79.12.66.76-.12.49-.15.24-.66-.18-.37-.34-.75-.51-1.12-.34-.75-.68-1.5-1.02-2.25-.48-1.05-2.45-.89-2.84.2-.72,2.02-1.74,3.86-3.11,5.52l2.67.06c-.71-1.5-1.43-3-2.14-4.49-.48-1.01-2.49-.94-2.84.2s-.84,2.31-1.52,3.35l2.67.06c-.66-1.67-.87-3.34-.63-5.12.21-1.51-2.76-1.15-2.94.2h0Z"/>
      <path class="cls-26" d="M761.99,907.65c0,5.02,0,10.03,0,15.05,0,1.57,2.94,1.18,2.94-.19,0-5.02,0-10.03,0-15.05,0-1.57-2.94-1.18-2.94.19h0Z"/>
      <path class="cls-26" d="M755.59,907.72c.13,5.01.26,10.03.38,15.04.02.67.72.79,1.28.73.45-.05,1.65-.41,1.63-1.05-.13-5.01-.26-10.03-.38-15.04-.02-.67-.72-.79-1.28-.73-.45.05-1.65.41-1.63,1.05h0Z"/>
      <path class="cls-26" d="M747.9,907.04c-.19,5.52-.1,11.04.27,16.55.05.75,2.96.2,2.9-.78-.36-5.51-.45-11.03-.27-16.55.02-.68-2.86-.23-2.9.78h0Z"/>
      <g>
        <path class="cls-12" d="M1109.6,636.09s-18.16,40.52-54.12,37.32c-35.97-3.21-23.03-28.43-23.03-28.43l-11.33,4.39s-7.73,18.95,15.75,29.24c23.48,10.28,47.63,2.01,65.16-11.44,17.52-13.44,19.62-25.94,19.62-25.94l-12.04-5.13Z"/>
        <path class="cls-35" d="M1108.58,636.05c-1.75,3.9-4.09,7.6-6.53,11.1-5.24,7.5-11.72,14.33-19.55,19.15-4.53,2.8-9.52,4.86-14.75,5.88-6.21,1.21-12.65.87-18.81-.45-7.85-1.67-16.08-5.81-17.45-14.49-.66-4.18.47-8.35,1.89-12.01.03-.07.07-.14.1-.21.44-.87-1.06-.7-1.46-.54-3.23,1.25-6.46,2.5-9.69,3.75-.79.31-1.92.52-2.32,1.32-.26.53-.39,1.17-.53,1.73-1.81,7.24.17,14.88,5.31,20.32,4.73,5,11.3,8.01,17.8,9.96,7.45,2.23,15.33,2.8,23.04,1.87,15.15-1.83,29.52-9.15,40.97-19.07,4.88-4.23,9.32-9.12,12.57-14.73,1.44-2.49,2.89-5.29,3.47-8.14.03-.13.06-.27.09-.4.03-.17-.07-.36-.23-.43-4.01-1.71-8.02-3.42-12.04-5.13-.47-.2-1.12-.12-1.54.19-.26.19-.68.7-.17.92,4.01,1.71,8.02,3.42,12.04,5.13l-.23-.43c-.23,1.37-.76,2.73-1.3,4-1.56,3.68-3.77,7.09-6.26,10.21-7.8,9.77-18.85,17.39-30.36,22.13-12.13,4.99-25.61,6.45-38.3,2.76-9.29-2.7-19.39-8.07-22.42-17.96-1.27-4.15-1.34-9.16.31-13.24l-.65.62c3.78-1.46,7.56-2.93,11.33-4.39l-1.46-.54c-1.68,3.28-2.47,7.21-2.32,10.87.13,3.18,1.15,6.27,3.07,8.82,2.7,3.6,6.85,5.79,11.05,7.18,11.64,3.86,24.77,3.19,35.82-2.13,9.04-4.35,16.58-11.3,22.66-19.19,2.24-2.91,4.29-5.96,6.14-9.12.94-1.61,1.94-3.26,2.66-4.98.03-.08.07-.16.11-.23.45-1-1.72-.8-2.04-.1Z"/>
      </g>
      <path class="cls-42" d="M579.63,636.02c-16.97,8.76-29.87,24.59-35.26,42.89-1.51,5.14-2.41,10.46-2.67,15.81-.01.3,2.14.05,2.17-.58.9-18.66,9.87-36.6,23.88-48.89,3.99-3.5,8.4-6.52,13.11-8.96,1.27-.66-.74-.54-1.25-.27h0Z"/>
      <path class="cls-42" d="M483.16,246.97c2.9.47,5.98-.91,7.86-3.1,2.11-2.44,2.78-5.74,2.95-8.88.01-.26-1.42-.07-1.45.39-.15,2.71-.68,5.52-2.24,7.81-1.38,2.04-3.68,3.55-6.2,3.15-.31-.05-.78.08-1.02.27-.22.18-.19.31.1.36h0Z"/>
      <path class="cls-42" d="M1060.71,544.9c-3.06-3.05-3.43-8.34-.66-11.71.58-.71-.79-.96-1.22-.44-3,3.64-2.82,9.43.55,12.79.47.47,1.84-.13,1.33-.64h0Z"/>
    </g>
  </g>
</svg>