<?xml version="1.0" encoding="UTF-8"?>
<svg xmlns="http://www.w3.org/2000/svg" xmlns:xlink="http://www.w3.org/1999/xlink" viewBox="0 0 1334 1000">
  <defs>
    <style>
      .cls-1 {
        fill: #131429;
      }

      .cls-2 {
        fill: #dcd3b0;
      }

      .cls-3 {
        fill: #acabab;
      }

      .cls-4 {
        fill: #151312;
      }

      .cls-5 {
        fill: #273339;
      }

      .cls-6 {
        fill: #010101;
      }

      .cls-7 {
        fill: #653c29;
      }

      .cls-8 {
        fill: #231f20;
      }

      .cls-9 {
        fill: #8e8e8e;
      }

      .cls-10 {
        fill: #2c458e;
      }

      .cls-11 {
        fill: #89ac95;
      }

      .cls-12 {
        fill: #27153c;
      }

      .cls-13 {
        fill: #331d17;
      }

      .cls-14 {
        fill: #b7c8ce;
      }

      .cls-15 {
        fill: #f1eef7;
      }

      .cls-16 {
        fill: #77543f;
      }

      .cls-17 {
        fill: #643c2a;
      }

      .cls-18 {
        isolation: isolate;
      }

      .cls-19 {
        fill: #a66e53;
      }

      .cls-20 {
        fill: url(#linear-gradient);
        opacity: .5;
      }

      .cls-21 {
        fill: #080707;
      }

      .cls-22 {
        fill: url(#linear-gradient-2);
        mix-blend-mode: multiply;
        opacity: .37;
      }

      .cls-23 {
        fill: #0f1711;
      }

      .cls-24 {
        fill: #2e8942;
      }

      .cls-25 {
        fill: #fff;
      }

      .cls-26 {
        fill: #513835;
      }

      .cls-27 {
        fill: #2d383d;
      }

      .cls-28 {
        fill: #d78b28;
      }

      .cls-29 {
        fill: #45616e;
      }

      .cls-30 {
        fill: #f2ebd1;
      }

      .cls-31 {
        fill: #707071;
      }

      .cls-32 {
        fill: #162916;
      }

      .cls-33 {
        fill: #975449;
      }

      .cls-34 {
        fill: #202956;
      }

      .cls-35 {
        fill: #a38166;
      }

      .cls-36 {
        fill: #38211a;
      }

      .cls-37 {
        fill: #87654d;
      }

      .cls-38 {
        fill: #8d372d;
      }

      .cls-39 {
        fill: #4f2e25;
      }

      .cls-40 {
        fill: #89ad96;
      }
    </style>
    <linearGradient id="linear-gradient" x1="-2895.2" y1="5194.57" x2="-1805.53" y2="5194.57" gradientTransform="translate(-4514.72 2793.68) rotate(90) scale(1 -1)" gradientUnits="userSpaceOnUse">
      <stop offset="0" stop-color="#f0ebe0"/>
      <stop offset=".18" stop-color="#eee8dd" stop-opacity=".99"/>
      <stop offset=".33" stop-color="#e8e1d4" stop-opacity=".97"/>
      <stop offset=".46" stop-color="#ded4c5" stop-opacity=".93"/>
      <stop offset=".59" stop-color="#d0c2b0" stop-opacity=".88"/>
      <stop offset=".72" stop-color="#bdab95" stop-opacity=".82"/>
      <stop offset=".84" stop-color="#a78e73" stop-opacity=".73"/>
      <stop offset=".96" stop-color="#8d6d4d" stop-opacity=".64"/>
      <stop offset="1" stop-color="#83603d" stop-opacity=".6"/>
    </linearGradient>
    <linearGradient id="linear-gradient-2" x1="-2546.55" y1="4.83" x2="-2539.73" y2="884.78" gradientTransform="translate(-1369.27 926.15) rotate(-180)" gradientUnits="userSpaceOnUse">
      <stop offset="0" stop-color="#262262" stop-opacity="0"/>
      <stop offset="1" stop-color="#000"/>
    </linearGradient>
  </defs>
  <g class="cls-18">
    <g id="Layer_3" data-name="Layer 3">
      <polyline class="cls-30" points="1390.4 984.56 1390.4 -69.81 -10.85 -69.81 -10.85 984.56"/>
      <polyline class="cls-20" points="1380.48 984.56 -20.77 984.56 -20.78 -105.11 1380.48 -105.11"/>
      <rect class="cls-34" x="722.31" y="57.97" width="821.54" height="719.49"/>
      <rect class="cls-22" x="762.62" y="57.97" width="821.54" height="724.54"/>
      <path class="cls-9" d="M709.31,36.96v746.95s843.8,0,843.8,0V36.96s-843.8,0-843.8,0ZM743.43,70.08h772.3v679.91h-772.3V70.08Z"/>
      <rect class="cls-16" x="619.86" y="30.78" width="1012.98" height="39.87" rx="19.93" ry="19.93"/>
      <path class="cls-29" d="M673.57,15.76c8.64-.76,17.73-2.14,26.2-.15,8.12,1.91,15.56,4.47,24.08,5.05,8.7.59,17.05-1.45,25.23-3.61,8.32-2.19,13.63-2.49,22.03-.67,8.91,1.93,17.67,3.8,26.88,4.54,14.83,1.19,28.73-2.96,43.07-4.74v1042.42c-3.92,2.88-8.29,4.96-13.21,5.04-5.53.09-10.84-2.24-15.74-4.71-11.48-5.78-22.44-12.21-35.41-13.25-17.14-1.38-29.97,9.14-45.17,15.2-8.38,3.34-16.37,3.42-24.84.43-8.64-3.04-16.6-7.51-25.7-8.98-7.38-1.19-28.21-.7-34.96,1.09V17.47c9.23-.04,18.36-.9,27.54-1.71Z"/>
      <path class="cls-2" d="M998.59,194.87l2.35,7.25c.18.55.69.92,1.26.92h7.62c1.28,0,1.82,1.64.78,2.4l-6.17,4.48c-.46.34-.66.94-.48,1.48l2.35,7.25c.4,1.22-1,2.24-2.04,1.48l-6.17-4.48c-.46-.34-1.09-.34-1.56,0l-6.17,4.48c-1.04.75-2.43-.26-2.04-1.48l2.35-7.25c.18-.55-.02-1.14-.48-1.48l-6.17-4.48c-1.04-.75-.5-2.4.78-2.4h7.62c.57,0,1.08-.37,1.26-.92l2.35-7.25c.4-1.22,2.12-1.22,2.52,0Z"/>
      <path class="cls-2" d="M1233.08,140.74l2.35,7.25c.18.55.69.92,1.26.92h7.62c1.28,0,1.82,1.64.78,2.4l-6.17,4.48c-.46.34-.66.94-.48,1.48l2.35,7.25c.4,1.22-1,2.24-2.04,1.48l-6.17-4.48c-.46-.34-1.09-.34-1.56,0l-6.17,4.48c-1.04.75-2.43-.26-2.04-1.48l2.35-7.25c.18-.55-.02-1.14-.48-1.48l-6.17-4.48c-1.04-.75-.5-2.4.78-2.4h7.62c.57,0,1.08-.37,1.26-.92l2.35-7.25c.4-1.22,2.12-1.22,2.52,0Z"/>
      <path class="cls-2" d="M902.18,302.4l1.39,4.29c.1.32.41.54.75.54h4.51c.76,0,1.08.97.46,1.42l-3.65,2.65c-.27.2-.39.55-.28.88l1.39,4.29c.23.72-.59,1.32-1.21.88l-3.65-2.65c-.27-.2-.65-.2-.92,0l-3.65,2.65c-.61.45-1.44-.15-1.21-.88l1.39-4.29c.1-.32-.01-.68-.28-.88l-3.65-2.65c-.61-.45-.3-1.42.46-1.42h4.51c.34,0,.64-.22.75-.54l1.39-4.29c.23-.72,1.26-.72,1.49,0Z"/>
      <path class="cls-2" d="M1234.25,435.06l1.29,3.96c.1.3.38.5.69.5h4.17c.7,0,.99.9.43,1.31l-3.37,2.45c-.25.18-.36.51-.26.81l1.29,3.96c.22.67-.55,1.22-1.11.81l-3.37-2.45c-.25-.18-.6-.18-.85,0l-3.37,2.45c-.57.41-1.33-.14-1.11-.81l1.29-3.96c.1-.3,0-.63-.26-.81l-3.37-2.45c-.57-.41-.28-1.31.43-1.31h4.17c.31,0,.59-.2.69-.5l1.29-3.96c.22-.67,1.16-.67,1.38,0Z"/>
      <path class="cls-2" d="M1237.74,364.04l.51,1.58c.04.12.15.2.27.2h1.66c.28,0,.4.36.17.52l-1.34.97c-.1.07-.14.2-.1.32l.51,1.58c.09.27-.22.49-.44.32l-1.34-.97c-.1-.07-.24-.07-.34,0l-1.34.97c-.23.16-.53-.06-.44-.32l.51-1.58c.04-.12,0-.25-.1-.32l-1.34-.97c-.23-.16-.11-.52.17-.52h1.66c.12,0,.24-.08.27-.2l.51-1.58c.09-.27.46-.27.55,0Z"/>
      <path class="cls-2" d="M963.72,345.76l1.39,4.29c.1.32.41.54.75.54h4.51c.76,0,1.08.97.46,1.42l-3.65,2.65c-.27.2-.39.55-.28.88l1.39,4.29c.23.72-.59,1.32-1.21.88l-3.65-2.65c-.27-.2-.65-.2-.92,0l-3.65,2.65c-.61.45-1.44-.15-1.21-.88l1.39-4.29c.1-.32-.01-.68-.28-.88l-3.65-2.65c-.61-.45-.3-1.42.46-1.42h4.51c.34,0,.64-.22.75-.54l1.39-4.29c.23-.72,1.26-.72,1.49,0Z"/>
      <path class="cls-2" d="M1112.68,277.21l1.39,4.29c.1.32.41.54.75.54h4.51c.76,0,1.08.97.46,1.42l-3.65,2.65c-.27.2-.39.55-.28.88l1.39,4.29c.23.72-.59,1.32-1.21.88l-3.65-2.65c-.27-.2-.65-.2-.92,0l-3.65,2.65c-.61.45-1.44-.15-1.21-.88l1.39-4.29c.1-.32-.01-.68-.28-.88l-3.65-2.65c-.61-.45-.3-1.42.46-1.42h4.51c.34,0,.64-.22.75-.54l1.39-4.29c.23-.72,1.26-.72,1.49,0Z"/>
      <path class="cls-2" d="M910.36,119l1.39,4.29c.1.32.41.54.75.54h4.51c.76,0,1.08.97.46,1.42l-3.65,2.65c-.27.2-.39.55-.28.88l1.39,4.29c.23.72-.59,1.32-1.21.88l-3.65-2.65c-.27-.2-.65-.2-.92,0l-3.65,2.65c-.61.45-1.44-.15-1.21-.88l1.39-4.29c.1-.32-.01-.68-.28-.88l-3.65-2.65c-.61-.45-.3-1.42.46-1.42h4.51c.34,0,.64-.22.75-.54l1.39-4.29c.23-.72,1.26-.72,1.49,0Z"/>
      <path class="cls-2" d="M912.2,204.86c0-13.65,8.81-25.24,21.05-29.41-3.14-1.07-6.51-1.66-10.02-1.66-17.16,0-31.07,13.91-31.07,31.07s13.91,31.07,31.07,31.07c3.51,0,6.87-.59,10.02-1.66-12.24-4.17-21.05-15.76-21.05-29.41Z"/>
      <path class="cls-2" d="M1173.67,137.15l.51,1.58c.04.12.15.2.27.2h1.66c.28,0,.4.36.17.52l-1.34.97c-.1.07-.14.2-.1.32l.51,1.58c.09.27-.22.49-.44.32l-1.34-.97c-.1-.07-.24-.07-.34,0l-1.34.97c-.23.16-.53-.06-.44-.32l.51-1.58c.04-.12,0-.25-.1-.32l-1.34-.97c-.23-.16-.11-.52.17-.52h1.66c.12,0,.24-.08.27-.2l.51-1.58c.09-.27.46-.27.55,0Z"/>
      <rect class="cls-31" x="841.05" y="777.14" width="674.23" height="39.89"/>
      <path class="cls-27" d="M746.07,1191.75c-1.09-16.9-2.05-33.82-2.87-50.73-.82-16.92-1.5-33.84-2.05-50.77-.54-16.93-.95-33.85-1.22-50.79-.27-16.93-.4-33.86-.39-50.8,0-17.05.16-34.09.44-51.14.29-16.95.72-33.9,1.26-50.84.54-16.97,1.17-33.93,1.8-50.9.62-16.98,1.25-33.96,1.87-50.94.62-16.98,1.25-33.96,1.87-50.94.62-16.98,1.25-33.96,1.87-50.94.15-4.16.31-8.32.46-12.49.03-.89-2.15-.45-2.17.27-.62,16.98-1.25,33.96-1.87,50.94-.63,17.06-1.25,34.13-1.88,51.19-.62,16.98-1.25,33.96-1.87,50.94-.63,17.05-1.27,34.1-1.85,51.16-.58,16.95-1.08,33.91-1.43,50.86-.35,16.93-.56,33.86-.64,50.79-.07,16.9-.01,33.8.19,50.7.2,16.93.54,33.86,1.01,50.79.48,17.01,1.09,34.02,1.85,51.02.75,16.92,1.64,33.84,2.67,50.74.25,4.14.51,8.29.78,12.43.05.7,2.23.25,2.17-.58h0Z"/>
      <path class="cls-27" d="M701.12,928.64c-.86-23.49-1.19-46.99-1.77-70.49-.58-23.17-1.41-46.34-3.26-69.44-1.04-13.03-2.42-26.03-4.26-38.98-.15-1.06-2.33-.51-2.17.58,3.27,23,5.06,46.17,6.16,69.37,1.1,23.22,1.52,46.47,2.02,69.71.29,13.13.6,26.26,1.08,39.38.04,1.18,2.25.89,2.21-.14h0Z"/>
      <path class="cls-27" d="M789.41,998.8c-.43-20.04-.72-40.09-.98-60.13-.26-20.16-.49-40.31-.79-60.47-.29-20.03-.65-40.07-1.16-60.1-.51-19.91-1.19-39.81-2.12-59.7-.93-19.75-2.11-39.49-3.66-59.2-.19-2.41-.38-4.82-.58-7.23-.07-.88-2.25-.38-2.17.58,1.63,19.68,2.9,39.39,3.89,59.12,1,19.91,1.72,39.83,2.27,59.76.55,20.02.94,40.04,1.24,60.07.31,19.99.54,39.98.79,59.97.25,20.05.53,40.1.93,60.16.05,2.46.1,4.92.15,7.38.02,1.05,2.21.66,2.19-.21h0Z"/>
      <rect class="cls-10" x="577.36" y="893.68" width="214.76" height="17.25" rx="5.43" ry="5.43"/>
      <rect class="cls-38" x="587.04" y="911.76" width="205.08" height="17.25" rx="5.31" ry="5.31"/>
      <rect class="cls-24" x="587.04" y="876.18" width="194.01" height="17.25" rx="5.16" ry="5.16"/>
      <path class="cls-23" d="M604.49,882.97c-.26,1.84-.11,3.68.43,5.46.12.4,1.14.17,1.38.11.51-.12,1.19-.3,1.5-.75,1.25-1.83,2.31-3.78,3.18-5.82l-2.88.64c.48,1.21.91,2.45,1.44,3.63.19.42.4.74.89.85.65.14,1.46-.08,2.05-.33,1.18-.51,1.47-1.61,1.96-2.71.54-1.22,1.09-2.43,1.63-3.65l-2.88.64c.34,1.33.69,2.65,1.03,3.98.25.96.5,2,1.67,2.07,1.28.08,2.61-.48,3.34-1.52.81-1.14,1.54-2.35,2.31-3.52l-2.88.64c.48,1.35.76,2.73.85,4.16.03.53,2.95.03,2.9-.78-.09-1.43-.37-2.81-.85-4.16-.14-.4-1.13-.17-1.38-.11-.5.11-1.2.29-1.5.75-.45.69-.91,1.39-1.36,2.08-.21.33-.43.65-.64.98-.1.15-.19.31-.3.46-.08.11-.39.33-.09.19l1.1-.35c.59-.12.38-.01.16-.38-.1-.16-.17-.36-.22-.54-.15-.48-.26-.98-.38-1.46-.28-1.09-.56-2.18-.85-3.27-.19-.72-2.66.15-2.88.64-.43.96-.85,1.91-1.28,2.87-.19.43-.39.87-.58,1.3-.14.32-.34,1.17-.65,1.36l1.38-.5-.19.03.92-.02c-.47-.12-.78-1.53-.94-1.92-.29-.74-.58-1.47-.88-2.21s-2.66.11-2.88.64c-.87,2.04-1.93,3.98-3.18,5.82l2.88-.64c-.54-1.78-.68-3.62-.43-5.46.05-.36-2.77-.12-2.9.78h0Z"/>
      <path class="cls-23" d="M590.25,895.43c0,4.89,0,9.79,0,14.68,0,.53,2.9.1,2.9-.78,0-4.89,0-9.79,0-14.68,0-.53-2.9-.1-2.9.78h0Z"/>
      <path class="cls-23" d="M751.96,899.49c-.26,1.93-.06,3.84.66,5.65.43,1.09,2.35.42,2.81-.3.78-1.2,1.36-2.49,1.78-3.86l-2.91.54c.71,1.5,1.43,3,2.14,4.49.43.9,2.09.59,2.63-.06,1.56-1.89,2.73-3.96,3.55-6.26l-2.91.54c.57,1.25,1.11,2.51,1.7,3.74.47.96,1.11,1.51,2.24,1.42s1.96-.72,2.52-1.64c.72-1.18,1.32-2.45,1.97-3.67l-2.23.78c.44.17.63,1.56.88,1.94.46.71,1.17,1.03,2.01.98.76-.04,1.55-.36,2.06-.94.24-.27.38-.58.51-.91.09-.23.44-.79.09-.62l-1.74.05c1.04.45,1.23,1.84,2.25,2.4,1.19.66,2.6.34,3.58-.53.5-.44.24-1.02-.32-1.2-.69-.22-1.53.09-2.05.55.94-.07,1.21-.24.83-.51-.11-.08-.21-.19-.28-.31-.16-.21-.28-.47-.43-.7-.26-.41-.55-.79-.96-1.06-1.02-.66-2.37-.25-3.12.63-.3.35-.42.75-.59,1.16-.04.11-.21.35-.2.47,1.2.1,1.57-.08,1.11-.54l-.14-.27c-.49-1.06-.54-1.88-1.76-2.34-.67-.26-1.88.13-2.23.78-.38.71-.76,1.42-1.14,2.13-.16.3-.32.59-.48.89-.28.53-.79.85.11.65.76-.17.48-.22.23-.74-.18-.37-.34-.75-.51-1.12-.34-.75-.68-1.5-1.02-2.25-.52-1.14-2.57-.4-2.91.54-.69,1.93-1.71,3.74-3.01,5.32l2.63-.06c-.71-1.5-1.43-3-2.14-4.49-.52-1.1-2.61-.45-2.91.54-.37,1.21-.91,2.32-1.6,3.37l2.81-.3c-.66-1.68-.89-3.38-.64-5.17.18-1.3-2.76-.83-2.92.3h0Z"/>
      <path class="cls-23" d="M769.38,913.27c0,5.02,0,10.03,0,15.05,0,.81,2.9.3,2.9-.78,0-5.02,0-10.03,0-15.05,0-.81-2.9-.3-2.9.78h0Z"/>
      <path class="cls-23" d="M762.97,913.27c.13,5.01.26,10.03.38,15.04.02.97,2.93.39,2.9-.78-.13-5.01-.26-10.03-.38-15.04-.02-.97-2.93-.39-2.9.78h0Z"/>
      <path class="cls-23" d="M755.27,912.15c-.19,5.59-.1,11.19.27,16.77.07,1,2.97.38,2.9-.78-.36-5.44-.45-10.89-.26-16.33.04-1.25-2.87-.68-2.9.34h0Z"/>
    </g>
    <g id="Layer_1" data-name="Layer 1">
      <path class="cls-19" d="M552.62,820.5c2.19-8.36,4.97-16.55,8.36-24.5,4.04-9.48,8.95-18.73,15.36-26.83,4.16-5.26,9.18-10.19,15.11-13.43-10.26-22.47-53.94-116.02-89.75-160.77-6.62,8.15-19.84,33.67-28.13,28.43,2.01,1.27-3.88-1.85-4.63-2.17-2.54-1.07-5.15-1.96-7.78-2.79-4.96-1.56-10.09-2.76-16.26-4.46-2.36-.65-4.71-1.34-7.04-2.09l42.34,135.17s17.1,98.87,72.49,104.14c17.86,2.62-2.38-21.92-.08-30.71Z"/>
      <path class="cls-19" d="M721.03,654.06c-26.37,9.44-142.29,100.07-142.29,100.07,0,0-.51-.54-1.48-1.55-5.07,5.7-8.16,13.16-10.22,20.39-4.9,17.19-26,24.33-24.38,42.02.75,8.15,8.1,28.25,10.04,36.22.45-.1,11.02,2.38,25.07-.7,12.09-2.65,29.65-16.31,51.44-34.7,15.72-13.27,36.87-39.22,49.65-55.34,22.73-28.68,56.34-75.26,64.31-80.75l-22.14-25.65Z"/>
      <path class="cls-19" d="M356.62,404.3s-4.33,37.15-24.15,60c-3.18,3.66-40.81,15.72-40.81,15.72l33.57,114.74c21.11,12.1,63.59,3.21,87.88,1.87l58.27-43.57s-30.55-30.95-30.07-36.64c.48-5.7,14.76-44.41,14.76-44.41"/>
      <path class="cls-14" d="M455.1,728.37c9.6,1.04,19.22,1.84,28.85,2.44.91-.65,4.15,26.46,5.82,26.74,15.89,2.67,44.94,25.19,108.21-37.42-11.75-20.89-40.88-85.54-49.46-118.12-10.55-40.07-92.11-88.79-98.15-91.86,0,0-10.81,145.9,2.63,204.13.91,3.96,1.6,8.72,2.1,14.1Z"/>
      <path class="cls-14" d="M508.76,827.11h0c-.13-.55.3-1.11.02-1.15l21.37-181.57,6.73-60.08s-4.58-6.65-9.27-13.68c-7.42-11.12-17.26-16.01-27.71-24.34l-42.94-28.18s-3.46.15-15.56,18.75c-5.18,7.96-2.54,37.26-14.67,36.56,0,0-3.63-25.46-31.4-48.78,0,0-69.56-42.4-70.9-53.82-26.55,4.16-109.32,27.81-129.46,41.12-23.7,15.57,28.92,73.69,52.85,108.12l-39.13-1.29s-22.2,113.84-37.11,174.53c-.61,2.17-1.18,4.51-1.74,6.96-1.84,7.23-3.54,13.48-5.03,18.38.54.08,1.09.14,1.63.22-6.6,44.05-34.69,103.79-34.39,123.75.37,25.1,169.26,63.63,239.1,68.51,68.6,4.79,117.85,14.72,127.9-77.83h.32c3.45-39.5,3.24-52.65,9.41-106.2Z"/>
      <path class="cls-1" d="M538.34,647.31c-5.39,15.36-9.43,31.07-11.93,47.16-2.49,16.06-4,32.26-6.32,48.34-1.04,7.18-3.55,14.05-5.11,21.11-.25,1.12,1.98.89,2.21-.14,1.39-6.29,3.5-12.42,4.72-18.75.8-4.12,1.23-8.33,1.77-12.49.55-4.18,1.06-8.36,1.57-12.54,1.8-14.83,3.54-29.69,6.9-44.27,2.2-9.53,5.03-18.9,8.27-28.13.43-1.22-1.75-1.28-2.09-.3h0Z"/>
      <path class="cls-14" d="M430.03,577.15c-1.09-1.63-40.6-43.04-40.6-43.04l-26.78,18.53-11.81-8.28c-31.2-21.6-56.95-70.26-56.95-70.26l38.18-22.36c7.76,40.38,65.16,72.06,65.16,72.06l31.97,46.07,11.36-55.66c.83-7.64,1.6-12.74,1.6-12.74l10.29.89,21.46,17.64c-1.95,33.08-7.16,32.4-7.16,32.4l-21.79-13.39c-4.56,11.69-3.77,25.62-7.71,37.49-7.2,21.71-9.67,46.2-11.48,69.2"/>
      <path class="cls-1" d="M472.6,522.37c-.45,7.47-.97,15.17-2.91,22.43-.43,1.59-.92,3.2-1.7,4.66-.4.75-.95,1.37-1.41,1.77.15-.13-.16.02.07-.04-.05.01.21-.06.23-.06.11-.02.19-.05.23,0,.01.02-.41-.23-.08,0-.11-.07-.22-.13-.33-.2-3.57-2.25-7.19-4.42-10.79-6.63-3.56-2.19-7.12-4.38-10.68-6.57-.5-.31-1.86-.03-2.1.56-5.02,12.84-11.46,25.44-14.19,39.04-.13.63,2.03.28,2.16-.34,2.74-13.6,9.17-26.2,14.19-39.04l-2.1.56c7.16,4.4,14.26,8.89,21.47,13.2,3.42,2.05,5.79-2.86,6.61-5.34.96-2.9,1.52-5.94,1.97-8.96.78-5.17,1.2-10.4,1.51-15.61.03-.44-2.13-.15-2.17.58h0Z"/>
      <path class="cls-1" d="M430.38,575.94c-1.22-1.77-2.97-3.32-4.44-4.89-3.24-3.48-6.51-6.94-9.78-10.4-7.15-7.56-14.32-15.1-21.5-22.64-1.65-1.73-3.3-3.46-4.95-5.19-.32-.34-1.56.15-1.85.35-7.83,5.42-15.65,10.83-23.48,16.25-1.1.76-2.2,1.52-3.3,2.28l1.85-.35c-3.86-2.71-7.72-5.42-11.59-8.13-7.28-5.09-13.9-11.01-20.02-17.44-11.34-11.9-21.14-25.3-29.75-39.28-1.78-2.88-3.54-5.79-5.14-8.78-.27-.51-2.33.29-2.17.58,4.55,8.46,9.91,16.55,15.49,24.35,10.79,15.1,23.22,29.73,38.45,40.52,4.21,2.98,8.45,5.93,12.67,8.89.42.29,1.49-.1,1.85-.35,7.83-5.42,15.65-10.83,23.48-16.25,1.1-.76,2.2-1.52,3.3-2.28l-1.85.35c4.46,4.68,8.92,9.37,13.38,14.05,7.24,7.61,14.47,15.22,21.65,22.89,1.28,1.37,2.56,2.74,3.83,4.13.56.61,1.22,1.23,1.68,1.9.35.51,2.32-.37,2.17-.58h0Z"/>
      <path class="cls-3" d="M389.7,291.57c-9.76-4.11-16.74-2.67-26.94-5.7-.88-.26-1.87-.52-2.67-.19-.66.27-1.03.88-1.35,1.45-7.63,13.59-15.82,26.82-20.25,41.6-1.89,6.29-3.49,12.76-3.16,19.39.3,5.98-1.19,12.58.65,18.45,1.62,5.15,3.23,10.3,4.85,15.45.6,1.92,1.25,3.92,2.73,5.49,4.36,4.61,12.72,2.89,17.88-.38,11.06-7.02,17.04-18.65,19.82-30.52,2.78-11.87,2.74-24.26,4.05-36.41.9-8.38,2.44-16.67,4.61-24.8"/>
      <path class="cls-19" d="M537.4,328.58s-.02-.07-.01-.12c-1.62.96-12.76-12.08-14.41-13.49-17.44-14.84-25.12-25.53-47.86-28.13-11.87-1.36-25.5,7.18-37.45,7.24-11.46.06-20.57-10.12-31.85-12.5-3.9-.82-7.91,11.48-5.99,9.08-4.71-2.08-8.35-4.37-8.35-4.37-14.88,6.18-13.25,60.6-14.86,67.55-1.61,6.95-6.03,17.41-6.03,17.41-1.21-3.09-2.79-5.54-3.11-8.76-.43-2.86-1.66-6.35-2.09-9.21-1.82-6.78-11.17-8.55-16.5-6.2l-3.02,2.57c-8.32,6.39-6.17,33.26-3.94,42.05-3.15,15.67,7.88,27.59,18.58,18.72l.38,6.58,13.32,36.09c10.81,20.13,36.72,44.97,61.13,50.88,8.75,2.12,20.47,5.89,29.62-3.13,9.25-9.13,13.06-14.29,22.64-22.47,9.2-7.85,13.74-13.06,19.79-23.52,6.26-10.81,7.1-13.89,9.14-25.89.91-5.36,2.76-13.34,4.56-18.23,2.07-5.64,11.09-27.63,15.37-40.83,4.28-13.2.95-41.36.95-41.36Z"/>
      <path class="cls-39" d="M363.13,380.52c-.97-5.2-2.18-10.42-4.17-15.34-.97-2.39-2.12-4.81-3.8-6.79-.65-.77-1.48-1.68-2.46-2.04-1.06-.39-1.91.75-2.52,1.47-2.99,3.5-4.08,8.24-4.14,12.74-.01.76,1.46.56,1.47-.11.05-3.6.72-7.24,2.58-10.37.64-1.08,1.45-2.23,2.48-2.98l-.9.16c.32.08.24.07.53.26.61.41,1.13.91,1.6,1.46,2.45,2.86,3.86,6.61,5,10.14,1.25,3.85,2.14,7.81,2.88,11.78.13.68,1.58.31,1.45-.39h0Z"/>
      <path class="cls-39" d="M359.2,381.35c-6.05-1.86-5.03,7.58-6.09,10.86-.1.32-.27.92-.62,1.06.27-.11.21.07.1-.19-.14-.31-.27-.57-.36-.91-.55-2.03-.46-4.28-.36-6.36.13-2.89.4-5.54,1.4-8.24,1.05-2.85,2.92-7.14,6.34-7.66.8-.12,1.11-1.22.12-1.07-3.36.51-5.47,3.37-6.87,6.24-1.06,2.19-1.88,4.54-2.16,6.96-.3,2.66-.47,5.35-.28,8.02.08,1.14.1,3.26,1.19,4.02.92.63,2.05-.11,2.54-.92.62-1.02.73-2.37.88-3.52.23-1.84.17-8.28,3.34-7.31.63.19,1.71-.72.83-.99h0Z"/>
      <path class="cls-39" d="M514.91,349.62s-17.43-1.77-31.33-4.33c-13.9-2.56-26.22-10.65-26.22-10.65,0,0,15.37,7.14,26.35,9.21,10.98,2.07,31.2,5.76,31.2,5.76Z"/>
      <path class="cls-25" d="M429.12,445.07s12.6,6.99,23.02,10.24c10.42,3.24,27.29,4.98,27.29,4.98,0,0,.09-4.31-18.8-10.19-18.89-5.88-31.51-5.03-31.51-5.03Z"/>
      <path class="cls-3" d="M463.91,348c-16.06-1.55-27.09-.45-31.46.67-3.43.88-6.69,2.33-9.74,4.18,0,0-8.04,7.96-8.95,9.69-.91,1.74,5.3-1.36,5.3-1.36,1.35-.48,2.25-1,3.65-1.33,7.69-1.81,14.94-4.45,22.87-4.39,6.78.02,16.17,2.36,22.82,3.79-.06-2.68-1.24-8.08-1.04-10.75"/>
      <path class="cls-3" d="M531.1,387.54c.07-.23,1.04-1.49,1.09-1.73,0,0,.03-.27.03-.28-.77-1.56-1.35-3.81-2.8-5.76-2.52-3.4-8.72-12.23-20.96-20.9-1.83,1.87-5.62,5.1-7.45,6.96,5.54,3,9,5.54,13.86,9.58,4.57,3.8,10.74,9.47,14.53,14.16.5-.28-.04-.05.43-.37.28-.25.55-.52.8-.81.17-.28.34-.56.47-.85Z"/>
      <path class="cls-21" d="M458.58,450.91c-5.25-1.3-27.49-6.93-27.49-6.93,0,0,4.26,17.16,23.24,21.85,20.58,5.09,28.2-9.48,28.2-9.48l-23.94-5.44Z"/>
      <path class="cls-15" d="M458.61,451.76c-5.25-1.3-20.99-6.14-20.99-6.14,0,0,4.31,7.22,20.05,11.11,15.74,3.89,22.13-.51,22.13-.51l-21.19-4.47Z"/>
      <path class="cls-33" d="M486.41,456.37c-.52-.28-1.9-.19-4.27-1.21-4.28-1.84-5.92-3.93-9.01-4.95-5.27-1.75-9.21-.45-11.55-1.03-2.34-.58-5.22-3.56-10.69-4.47-3.21-.53-10.43.08-14.86-.61-2.66-.42-8.86-1.15-9.46-1.15-.82,0,1.81,3.68,31.17,10.94,29.36,7.26,29.4,2.87,28.67,2.49Z"/>
      <path class="cls-19" d="M466.8,487.8c-.25-.09-.48-.23-.66-.42-3.43-3.53-3.42-5.09-5.29-5.99-.43-.2-.63-.42-1.99-.92-5.48-2.01-8.8-3.34-26.03,3.06-.35.13-19.66-6.66-20.04-6.78l-9.21-7.06c-1.49-1.43-32.93-42.15-32.93-42.15-.35-1.21-5.64-10.42-5.69-11.52-.11-.09-.21-.18-.33-.25-.04-.03-.13-.09-.22-.15-.03.06-.07.15-.1.19-.16.43-.25.9-.33,1.35-.33,1.96-.34,3.96-.16,5.94.28,3.05.17,6.08.33,9.12.06,1.07.17,2.14.32,3.21,3.79,3.67,14.39,43.17,38.29,56.17.97.49,4.02,2.11,12.52,4.7,15.97,4.86,28.44,12.77,45.44,11.53,4.44-.32,8.44-2.59,10.96-6.12,7.17-10.07,31.21-50.18,37.37-66.2-6.49,8.66-25.97,34.96-35.42,47.6-.29.38-5.77,4.8-6.31,4.84"/>
      <path class="cls-17" d="M457.66,450.96c-12.34-2.63-32.01-8.47-32.01-8.47,0,0-2.86,30.76,25.75,36.87,28.61,6.11,33.24-22.68,33.24-22.68,0,0-14.65-3.08-26.99-5.72Z"/>
      <path class="cls-21" d="M457.6,450.95c-5.78-1.23-25.47-6.43-25.47-6.43,0,0,.38,18.39,21.28,22.85,22.66,4.84,28.38-11.24,28.38-11.24l-24.19-5.18Z"/>
      <path class="cls-15" d="M458.91,452.22c-6.06-1.29-24.27-6.3-24.27-6.3,0,0,5.16,8.35,23.34,12.23,18.18,3.88,25.38-1.62,25.38-1.62l-24.45-4.31Z"/>
      <path class="cls-17" d="M487.73,455.32c-.58-.3-.62-.64-3.45-1.52-4.71-1.48-7.43-3.5-10.85-4.54-5.84-1.77-10.16-.02-12.75-.57-2.59-.55-5.82-3.92-11.87-4.69-3.55-.45-12.46-.91-17.37-1.49-2.94-.35-6.06-2.29-6.72-2.26-.91.05-.71,7.27,31.8,14.21,32.5,6.94,32.01,1.27,31.21.85Z"/>
      <path class="cls-3" d="M459.81,439.09l-1.88,5.4c-.29.83-1.07,1.38-1.94,1.37-6-.06-33.18-5.97-33.3-.61-.02.75-1.31,5.13-1.43,5.08l-1.09-1.83c-1.16-3.82.96-9.09,2.96-9.54,6.09-1.39,11.48-2.2,14.79-2.47,4.12-.34,15.49-.9,20.3-.12,1.27.2,2.03,1.51,1.6,2.72Z"/>
      <path class="cls-3" d="M466.54,440.49l-.82,5.66c-.12.87.16,1.69.72,2.06,3.83,2.51,22.82,8.23,20.9,13.09-.27.68-.42,3.72-.32,3.74l1.21-.49c1.48.2,2.68-7.23,1.59-8.5-3.34-3.86-6.45-6.89-8.45-8.54-2.49-2.07-9.48-7.43-12.81-8.78-.88-.36-1.85.49-2.03,1.77Z"/>
      <path class="cls-19" d="M364.88,287.64s15.62-27.11,52.23-29.49c27.63-1.8,78.07,11.44,95.55,25.2,25.33,19.93,25.16,50.81,25.16,50.81l-172.94-46.52Z"/>
      <path class="cls-36" d="M443.61,506.03s-40.36-10.02-48.78-18.51c-8.42-8.49-16.93-21.86-22.66-40.35,0,0,4.96,39.86,26.32,48.6,28.16,11.53,43.27,13.59,43.27,13.59l1.85-3.33Z"/>
      <path class="cls-4" d="M513.67,392.74c2.32-.59,4.78.91,5.85,2.43.25.36.66,1.36.74,2.81.1,1.86-1.05,3.66-2.42,4.6-1.83,1.26-4.32.96-5.98-.34-2.25-1.77-2.36-5-1.21-7.07.21-.38,1.15-1.96,3.02-2.43"/>
      <path class="cls-4" d="M489.73,394s11.92-5.56,17.19-4.87c7.69,1.01,15.97,7.35,17.75,11.7,0,0-10.79-9.1-16.23-9.65-5.2-.53-18.72,2.83-18.72,2.83Z"/>
      <path class="cls-4" d="M449.82,378.3c-1.82-1.56-5.21-2.04-6.85-1.16-.39.21-1.43.81-2.15,2.08-.92,1.62-.69,3.75.12,5.2,1.08,1.94,3.44,2.78,5.51,2.35,2.8-.59,4.34-3.43,4.23-5.79-.02-.43.57-1.12-.89-2.38"/>
      <path class="cls-4" d="M458.71,386.11s-9.68-9.89-15.23-11.37c-8.1-2.15-18.97.35-22.52,3.63,0,0,14.49-4.03,20.16-2.36,5.42,1.6,17.59,10.1,17.59,10.1Z"/>
      <g>
        <path class="cls-6" d="M471.96,433.25c-3.07.82-7.2-.44-9.59-2.77-.53-.52-2.66-.6-1.92.12,3.17,3.07,9.15,4.62,13.11,3.55.39-.11.39-.39-.02-.63-.43-.26-1.16-.39-1.58-.27"/>
        <path class="cls-6" d="M459.42,429.55c-1.66-1.28-3.63-2.2-5.67-2.82-.3-.09-.72-.06-.98.09-.21.12-.29.32-.09.5.83.76,2,1.25,3.12,1.48.35.07.84.09,1.1-.17.25-.24-.05-.49-.33-.55-.93-.19-1.83-.58-2.52-1.2-.36.19-.72.39-1.08.58,1.82.55,3.58,1.39,5.06,2.54.29.23.79.23,1.12.12.25-.08.55-.33.26-.56"/>
        <path class="cls-6" d="M451.14,427.98c-2.41-.6-5.03-2.28-5.82-4.36-1.19-3.14,1.44-7.1,4.86-8.18.37-.12.25-.4-.07-.55-.41-.19-.96-.14-1.35-.02-2.97.94-5.47,4.13-5.65,6.78-.16,2.48,1.79,4.67,4.53,6.01.82.4,1.7.74,2.61.96.37.09,1.05.13,1.29-.12.25-.25-.06-.45-.4-.53"/>
        <path class="cls-6" d="M476.67,433.01c-.07-.31.21-.43.41-.39.65.16,1.36.13,2.02-.2.16.31.31.62.47.92-1.34-.15-2.75-.01-4.09.51-.27.1-.58-.07-.75-.29-.13-.16-.23-.51.04-.61"/>
        <path class="cls-6" d="M474.76,432.95c1.5-.58,3.08-.71,4.58-.55.22.03.47.2.59.43.09.18.07.4-.12.49"/>
        <path class="cls-6" d="M481.63,434.45c1.59.29,3.68-.35,4.85-1.99,1.78-2.48,1.41-5.97-.17-8.16-.17-.24,0-.46.23-.48.3-.03.6.2.78.45,1.38,1.91,1.94,4.63,1.11,7.14-.77,2.35-2.65,3.69-4.69,3.97-.61.08-1.24.09-1.83-.02-.24-.05-.65-.25-.7-.56-.05-.32.19-.39.42-.35"/>
      </g>
      <path class="cls-5" d="M414.52,368.28l.69,7.73c.07,5.89,1.66,17.9,2.85,21.36,1.69,4.84,30.86,13.45,37.47,11.43,6.61-2.01,13.86-18.14,16.33-21.69l11.67,3.46c-.15,5.32-.26,22.23,1.47,24.93,1.73,2.7,15.38,5.52,16.92,5.84,1.28.25,3.07.6,5.04.9,5.21.84,11.64,1.45,14,0,3.51-2.14,9.17-12.15,14.25-21.68l.82-1.49c.18-.36.37-.6.4-.71h0l.91-1.72c-15.1-12.15-37.76-16.09-53.69-9.34l.06.21-11.37-3.43c-10.96-11.74-32.37-21.78-49.96-19.34h0l-51.99-3.5-1.2,4.4,45.31,2.65ZM486.78,414.18c-1.08-1.68-1.35-13.61-1.26-22.83,13.79-5.63,34.2-2.04,47.9,7.94l-.06.22c-2.73,5.11-9.98,18.7-13.43,20.8-4.08,2.48-31.2-3.44-33.16-6.09v-.05ZM421.86,396.99c-2.08-9.12-3.33-18.42-3.73-27.77,15.88-3.13,39.97,6.43,50.75,17.65-3.71,6.58-9.21,18.33-13.95,19.76-6.81,2.08-32.02-6.58-33.07-9.64h0Z"/>
      <path class="cls-19" d="M676.51,680.8l35.33-27.21s10.15-19.7,15.77-24.15c5.62-4.46,31.9-15.91,33.27-16.03,1.38-.12,24.54-27,30.59-24.44,6.05,2.56,9.07,8.01,4.8,15.8-4.28,7.79-23.35,20.71-20.29,24.39,2.56,2.66,5.65,4.79,9.09,6.29,0,0,4.63-9.03,10.88-10.75,6.25-1.72,10.81,4.87,10.81,4.87l-1.1,4.13,8.51-2.14s9.54-18.85,17.89-16.66c3.23-3.64,7.17-6.62,11.59-8.77,3.91-1.54,8.26.21,9.72,3.92.26.65.41,1.34.46,2.04h0l-28.19,39.3-55.03,34.06s-26.84,1.84-32.47,2.83l-20.24,3.85-41.39-11.35Z"/>
      <path class="cls-39" d="M776.19,629.58c-.65-1.23-1.72-2.02-2.81-2.85-1.28-.97-2.56-1.94-3.88-2.86-2.56-1.8-5.24-3.42-8.16-4.57-.47-.18-1.12-.02-1.53.23-.25.15-.7.57-.21.76,2.82,1.1,5.41,2.66,7.88,4.4,1.21.85,2.39,1.73,3.57,2.63,1.08.82,2.32,1.62,2.97,2.85.35.67,2.45-.05,2.17-.58h0Z"/>
      <path class="cls-39" d="M711.37,652.11c3.13,6.35,7.5,12.67,14.51,15.04.48.16,1.1.01,1.53-.24.23-.13.72-.56.22-.73-6.81-2.3-11.05-8.49-14.09-14.66-.32-.65-2.43.06-2.17.58h0Z"/>
      <path class="cls-39" d="M787.77,669.06c5.94-5.19,9.12-12.53,11.91-19.73,1.67-4.3,3.31-8.62,4.97-12.92.4-1.04.8-2.08,1.2-3.12.37-.96.99-2.04,1.1-3.07.09-.84-.39-1.26-.97-1.76-.77-.66-1.55-1.31-2.36-1.9-1.46-1.06-3.09-2.01-4.9-2.28-1.64-.24-3.35.12-4.89.66-2.84,1-5.09,3.31-7.01,5.55-2.51,2.91-4.12,6.48-5.68,9.96-.86,1.93-1.7,3.86-2.61,5.77s-2.33,3.93-3.04,6.01c-.34,1-.52,2.04-1.14,2.92-.7,1-1.79,1.7-2.81,2.35-1.88,1.2-3.72,2.45-5.46,3.85-3.6,2.9-6.78,6.28-9.51,10-.22.3.79.17.86.16.4-.07,1.02-.21,1.28-.57,2.3-3.15,4.92-6.03,7.87-8.59,1.38-1.2,2.82-2.32,4.32-3.37s3.18-1.9,4.55-3.13,1.63-2.74,2.31-4.42c.75-1.86,1.94-3.61,2.81-5.43,1.62-3.38,3-6.88,4.7-10.22,1.61-3.14,3.59-5.75,6.13-8.2,1.09-1.05,2.23-2.02,3.73-2.4,1.99-.5,3.95.43,5.59,1.5.74.48,1.45,1.03,2.13,1.58.57.47,1.59,1.07,1.87,1.77.34.85-.46,2.18-.76,2.97-.4,1.04-.8,2.08-1.2,3.12-1.57,4.09-3.14,8.19-4.72,12.28-2.9,7.53-6.02,15.4-12.24,20.84-.37.32.33.31.5.3.46-.02,1.1-.19,1.46-.51h0Z"/>
      <path class="cls-39" d="M823.83,646.95c2.88-5.89,5.76-11.78,8.65-17.67,1.42-2.91,2.85-5.82,4.27-8.72.36-.75.73-1.49,1.09-2.24.21-.43.58-1,.46-1.5-.22-.9-1.68-1.36-2.43-1.63-4.34-1.57-9.4-.06-12.96,2.64-4.36,3.31-6.83,8.37-9.4,13.05-3.39,6.19-7.04,12.24-10.92,18.14-.56.85,1.62.68,2.03.06,3.05-4.64,5.96-9.37,8.71-14.2,2.47-4.32,4.57-8.98,7.62-12.94,2.79-3.63,7.15-6.87,11.99-6,.87.16,2.59.52,3,1.38.27.56-.42,1.49-.69,2.05l-1.09,2.24-3.83,7.83c-2.85,5.82-5.69,11.63-8.54,17.45-.46.95,1.71.72,2.03.06h0Z"/>
      <path class="cls-39" d="M587.01,747.95c-16.58,9.41-28.8,25.86-33.38,44.34-1.27,5.14-1.95,10.41-1.99,15.7,0,.33,2.17.04,2.17-.58.16-18.75,8.46-37.11,22.06-49.95,3.87-3.65,8.16-6.83,12.8-9.46.41-.23.21-.39-.12-.46-.46-.1-1.14.19-1.54.41h0Z"/>
      <path class="cls-39" d="M475.33,362.94c2.91.35,5.91-1.08,7.73-3.33,2.03-2.53,2.58-5.86,2.63-9.02,0-.27-1.44-.06-1.45.39-.04,2.72-.46,5.53-1.92,7.88-1.28,2.07-3.53,3.75-6.06,3.45-.32-.04-.78.07-1.02.27-.21.17-.2.32.1.36h0Z"/>
      <path class="cls-19" d="M964.39,588.21c.74-8.24,2.83-17.12,5-21.73.67-3.75,1.48-8.09,2.48-13.32.29-1.52.62-2.96.95-4.4.25-.72.42-1.46.53-2.21,6.33-25.19,18.24-36.54,18.24-36.54,15.19-14.35,37.66-19.86,59.02-14.46,25.25,5.87,45.07,24.97,53.93,41.83,4.41,8.35,5.4,17.83,2.78,26.62-2.22,7.51-5.98,15.68-9.98,23.5,8.94,1.51,16.99,6.29,10.54,20.68-8.9,19.85-24.8,23.21-30.4,16.05-1.63-.08-6.11,5.55-7.41,9.82-2.49,8.16-5.29,22.99-2.42,31.2l-.75,2.32c-25.2,24.4-58.78,71.14-114.08,21.26l39.15-36.74,2.16-9.3c-2.42-.68-4.69-1.91-7.04-2.87-9.64-3.92-15.1-11.72-18.68-20.45-3.03-7.4-4.2-21.89-4.1-29.79,0-.49.03-.97.07-1.46Z"/>
      <path class="cls-13" d="M993.84,642.76s23.76,6.92,48.3-1.67c0,0-4.06,6.15-20.6,7.91-16.54,1.76-28.48-2.62-28.48-2.62l.78-3.62Z"/>
      <ellipse cx="979.65" cy="562.22" rx="5.1" ry="5.51" transform="translate(224.55 1402.23) rotate(-77.9)"/>
      <path d="M974.17,556.7c2.9-.96,6.65-1.2,11.77.32,8.21,2.45,9.95,12.93,9.95,12.93,0,0-2.88-8.33-10.92-10.93-3.88-1.25-10.86-.48-14.19.31.24-.72,1.64-1.96,3.39-2.62Z"/>
      <path class="cls-39" d="M1102.44,607.81c1.37-2.17,2.33-4.8,1.9-7.4-.09-.53-.11-1.15-.69-1.24-.88-.13-1.85.1-2.69.34-1.6.46-3.1,1.23-4.49,2.14-2.82,1.83-5.31,4.14-7.65,6.54-.52.53,1.44.08,1.6.02-.47.19-.13.04-.01.01,0,0,.13-.04.22-.06.4-.08.82-.07,1.18.14.77.44.8,1.59.66,2.37-.16.88-.62,1.73-1.3,2.31-.99.85-2.26.81-3.5.67-.5-.06-1.06.07-1.52.29-.14.07-.78.46-.28.52,3.17.36,7.98-.4,8.74-4.17.25-1.23.01-2.63-1.39-2.94-1.31-.29-2.82.14-4.04.63l1.6.02c1.96-2.01,4.02-3.95,6.3-5.61,1.16-.84,2.65-1.77,3.82-2.19.11-.04.23-.08.35-.12-.24.08.01,0,.11-.03.04,0,.18-.04.23-.05-.21.03.48-.03.08-.01.11,0,.21,0,.32,0-.33-.03.05.04.08.02-.22.14-.14-.28-.12.06,0,.22.14.48.18.7.52,2.62-.44,5.25-1.83,7.44-.2.32.78.19.86.17.38-.07,1.05-.21,1.28-.57h0Z"/>
      <ellipse cx="1037.28" cy="574.62" rx="5.1" ry="5.51" transform="translate(257.97 1468.38) rotate(-77.9)"/>
      <path d="M1021.45,574.7s10.27-8.39,19.32-5.77c12.73,3.7,13.94,9.13,15.63,13.5,0,0-6.42-8.89-16.33-11.53-8.99-2.39-18.61,3.8-18.61,3.8Z"/>
      <path class="cls-7" d="M999.83,607.35c7.51,1.57,19.86,3.31,19.86,3.31,0,0-3.59,20.3-24.36,15.62-17.36-3.91-13.3-23.14-13.3-23.14,0,0,10.3,2.63,17.81,4.2Z"/>
      <path d="M999.55,607.29c3.59.75,17.01,3.42,17.01,3.42,0,0-5.97,11.13-18.97,8.41-14.1-2.95-13.57-14.31-13.57-14.31l15.53,2.48Z"/>
      <path class="cls-15" d="M998.61,608.73c3.69.77,15.04,2.57,15.04,2.57,0,0-5.01,1.88-16.08-.44-11.07-2.32-13.65-5.68-13.65-5.68l14.69,3.55Z"/>
      <path class="cls-7" d="M980.86,602.79c.08-.37.91-.36,2.77-.12,3.1.41,4.31-.4,6.56-.08,3.83.53,5.95,2.36,7.6,2.71,1.64.34,4.32-.48,8.05.57,2.18.62,7.51,2.48,10.51,3.35,1.8.52,4.09.34,4.46.51.52.23-1.73,4.61-22.38.28-20.65-4.33-17.67-6.71-17.57-7.22Z"/>
      <path d="M1029.38,548.58c.07-.17.75.19.82.02,11.55,3.77,19.57,8.05,22.22,10.12,2.01,1.58,3.76,3.49,5.24,5.61,0,0,4.14,5.76,4.25,7.19.1,1.43-3.11-2.44-3.11-2.44-.76-.71-1.2-1.32-2.03-1.94-4.56-3.43-8.6-7.29-13.86-9.52-4.49-1.93-11.37-3.07-16.18-4.02.81-1.79,2.02-3.18,2.67-5.03Z"/>
      <path d="M1001.58,541.8c-10.54-1.1-18.39-.34-21.2.52-2.13.65-4.16,1.72-6.03,3.08,0,0-.73.51-1.68,1.22-.08.58-.15,1.17-.23,1.75,0,.04,0,.08,0,.12,0,.19.02.38.04.56.56-.27,1.04-.53,1.69-.72,4.79-1.34,9.29-3.3,14.25-3.27,4.25,0,10.17,1.67,14.36,2.7-.08-1.96-.62-3.71-.54-5.67,0-.18-.66-.12-.67-.31Z"/>
      <g>
        <path d="M988.43,512.99c11.24-22.58,31.5-27.77,57.63-24.44,22.54,2.88,44.47,5.42,61.51,23.36,2.8,2.99,12.05,12.4,14.74,19.67,9.31,25.23-1.87,46.29-11.93,62.96-.36-.24-.72-.49-1.07-.74-2.19-1.13-4.52-1.68-6.98-1.66-1.73-.17-3.52.2-5.18.5-1.66.3-3.33,1.07-4.74,1.78-3.1,1.56-5.12,3.99-6.99,6.67-.07.12-.1.25-.17.36-2.31.21-2.18-.16-3.91-1.9-1.61-1.62.75-5.44.81-7.53.12-4.26,1.75-8.23,2.81-12.31.94-2.16,1.93-4.3,3.03-6.38,4.56-8.78,1.74-15.11,1.32-23.75,0,0-1.7-12.92-14.92-23.36-14.48-11.41-23.41-2.73-43.58-7.55-17.4-4.23-17.38-14.73-31.25-10.65,0,0-4.27.2-6.17,1.55-1.91,1.35-4.95,3.42-4.95,3.42Z"/>
        <path class="cls-8" d="M988.74,512.93c2.97-5.95,6.95-11.41,12.15-15.6,4.83-3.9,10.54-6.51,16.56-7.96,6.62-1.59,13.52-1.85,20.3-1.46,3.87.22,7.72.71,11.57,1.21s7.74,1.01,11.59,1.63c7.64,1.22,15.26,2.85,22.51,5.61,7.38,2.8,14.27,6.81,20.17,12.08,2.28,2.03,4.36,4.27,6.44,6.5,2.33,2.52,4.59,5.1,6.67,7.83,2.05,2.7,4.05,5.58,5.26,8.77,1.62,4.27,2.7,8.77,3.21,13.3.92,8.24-.19,16.55-2.72,24.42-2.35,7.3-5.83,14.18-9.67,20.81-.88,1.53-1.78,3.04-2.69,4.55l.61-.16c-.87-.59-1.71-1.09-2.69-1.46-.93-.35-1.89-.61-2.88-.77-1.99-.32-4.06-.31-6.05,0-3.75.59-7.43,1.95-10.27,4.55-.72.66-1.38,1.38-2,2.13-.66.8-1.43,1.67-1.85,2.62l.45-.17c-.65.06-1.38.15-1.97-.18-.49-.28-.87-.76-1.25-1.16-.52-.55-.97-.98-1.05-1.76-.08-.73.09-1.48.27-2.18.35-1.32.97-2.63,1.07-4,.16-2.2.5-4.29,1.08-6.43.28-1,.58-1.99.88-2.99s.52-2.1.9-3.1c.77-2.04,1.81-4.03,2.82-5.96,1.82-3.49,2.79-7.18,2.74-11.13-.05-3.63-.77-7.22-1.1-10.83-.12-1.27-.16-2.43-.46-3.66-1.07-4.47-3.15-8.72-5.77-12.48-2.06-2.96-4.5-5.65-7.23-8.02-2.56-2.23-5.38-4.2-8.51-5.55-4.88-2.1-10.09-2.2-15.31-1.98-2.93.12-5.86.27-8.79.21-3.56-.07-7.11-.44-10.6-1.15s-7.11-1.83-10.4-3.46c-2.36-1.18-4.56-2.63-6.72-4.15-1.72-1.21-3.43-2.46-5.36-3.31s-4.05-1.21-6.17-1.07c-1.32.08-2.63.32-3.91.65-.5.13-.67.23-1.1.26-.47.03-.95.08-1.42.15-1.3.17-2.62.43-3.83.94-1.3.55-2.43,1.53-3.58,2.32-.82.56-1.64,1.12-2.46,1.68-.12.08.11.08.14.08.13,0,.31-.07.42-.14.82-.56,1.64-1.12,2.46-1.68,1.28-.88,2.52-1.96,4.01-2.44,1.24-.39,2.55-.58,3.84-.68,1.05-.08,2.07-.48,3.11-.67,2.32-.42,4.71-.38,6.94.42,1.93.69,3.64,1.83,5.31,2.99,2.04,1.42,4.07,2.87,6.25,4.08,2.86,1.58,5.91,2.77,9.07,3.6,6.5,1.71,13.16,1.99,19.84,1.71,5.27-.22,10.62-.58,15.7,1.1,2.89.96,5.55,2.47,7.99,4.29,3.08,2.3,5.87,5.01,8.24,8.04,3.1,3.96,5.56,8.5,6.92,13.35.24.84.48,1.71.59,2.58.18,1.53.24,3.08.42,4.61.22,1.78.48,3.55.65,5.34.36,3.7.18,7.38-1.1,10.9-.74,2.03-1.83,3.91-2.76,5.85-.47.99-.92,1.99-1.37,3s-.63,2.07-.94,3.09c-.58,1.96-1.2,3.91-1.6,5.91-.21,1.01-.36,2.04-.43,3.07-.05.79-.12,1.51-.34,2.28-.39,1.34-.98,2.69-1.06,4.1-.03.58.04,1.18.39,1.66.39.52.92,1.02,1.39,1.47.83.79,1.77.74,2.85.65.1,0,.4-.06.45-.17.41-.92,1.16-1.76,1.79-2.55.68-.84,1.41-1.63,2.22-2.34,1.71-1.51,3.8-2.61,5.96-3.35,2.5-.85,5.25-1.06,7.87-.86,1.22.09,2.43.34,3.59.74s2.11.93,3.1,1.61c.12.08.53-.04.61-.16,3.96-6.57,7.75-13.27,10.58-20.41,3.01-7.58,4.89-15.63,4.84-23.81-.03-4.47-.63-8.92-1.75-13.25-.56-2.17-1.21-4.36-2.1-6.42-.66-1.54-1.51-3.01-2.42-4.41-3.41-5.28-7.74-9.91-12.05-14.45-5.65-5.94-12.45-10.66-19.93-14s-14.7-5.12-22.35-6.52c-3.91-.71-7.85-1.29-11.79-1.82s-7.9-1.09-11.87-1.45c-6.87-.63-13.85-.66-20.67.48-6.07,1.02-12.01,3.04-17.22,6.35-5.42,3.45-9.87,8.2-13.26,13.64-.93,1.5-1.79,3.05-2.58,4.63-.03.06.54.03.62-.12Z"/>
      </g>
      <g>
        <path class="cls-6" d="M997.47,597.28c1.59,1.31,4.4,1.78,6.48,1.18.46-.13,1.75.42,1.11.61-2.75.79-6.73-.04-8.79-1.73-.2-.17-.12-.32.19-.34.32-.02.8.11,1.01.29"/>
        <path class="cls-6" d="M1005.95,598.78c1.35-.24,2.78-.19,4.16.04.2.04.44.17.56.32.09.12.08.26-.09.3-.71.18-1.54.13-2.27-.06-.23-.06-.52-.19-.61-.4-.08-.2.17-.26.35-.21.6.16,1.25.2,1.84.05.16.21.32.41.48.62-1.24-.21-2.52-.24-3.72-.03-.24.04-.54-.09-.7-.25-.12-.11-.23-.34,0-.38"/>
        <path class="cls-6" d="M1011.31,600.24c1.6.35,3.63.16,4.68-.76,1.59-1.39,1.18-4.47-.54-6.02-.19-.17-.04-.29.19-.28.3.01.61.19.81.37,1.5,1.35,2.05,3.96,1.41,5.47-.61,1.41-2.38,2.06-4.39,2.03-.6-.01-1.22-.07-1.82-.2-.24-.05-.66-.23-.73-.43-.08-.21.16-.23.39-.18"/>
        <path class="cls-6" d="M994.74,595.83c.13-.15,0-.3-.13-.33-.43-.09-.84-.31-1.14-.67-.18.12-.36.25-.54.38.84.3,1.64.77,2.29,1.43.13.13.36.12.53.05.12-.05.28-.21.15-.35"/>
        <path class="cls-6" d="M995.89,596.34c-.73-.74-1.62-1.25-2.56-1.59-.14-.05-.34-.02-.47.07-.1.08-.15.2-.07.3"/>
        <path class="cls-6" d="M991.39,595.23c-1.03-.29-2.08-1.22-2.32-2.45-.36-1.86.85-3.67,2.41-4.43.17-.08.13-.25,0-.33-.17-.1-.42-.06-.59.03-1.36.66-2.46,2-2.68,3.61-.2,1.5.53,2.77,1.67,3.49.34.22.71.4,1.09.5.16.04.45.04.57-.11.12-.16,0-.27-.15-.31"/>
      </g>
      <path class="cls-40" d="M1132.66,763.11c6.61,23.14,13.25,14.48,13.91,17.58.8,3.78,9.19,101.78,20.9,169.08-5.61,6.91-34.49,10.82-47.38,14.17-18.72,4.86-37.62,7.24-56.87,8.48-17.36,1.11-32.52-2.09-49.9-2.09-19.88,0-43.37,2.39-63.24-4.16,1.35-40.98-6.12-127.25-7.02-146.29l-2.72-.33s-38.64-15-46.91-29.45c34.18-63.16,21.18-91.4,59.28-117.14,5.39-3.64,28.16-16.53,36.98-17.61-1.86,3.76-2.15,12.19-1.32,14.7,2.41,7.23,3.7,8.69,10.03,11.7,5.59,2.65,21.1,2.14,27.15.31,18.93-5.72,35.91-24.5,41.71-37.03,17.29,3.42,33.18,20.3,46.72,24.71,50.6,16.46,35.58,81.96,35.58,81.96-8.12,5.92-16.9,11.41-16.9,11.41Z"/>
      <path class="cls-26" d="M995.14,833.78c.04.1.1.2.18.28.19-.2.37-.41.56-.61-.25.11-.49.22-.74.32Z"/>
      <path class="cls-19" d="M1129.37,891c11.84-30.3,19.52-95.7,18.72-125.17l-32.79-66.36c-37.88-3.83-26.15,46.08-26.15,46.08,1.85,12.49-17.46,110.57-19.96,133.38,19.15,1.06,44.58.89,60.18,12.08Z"/>
      <path class="cls-19" d="M1093.21,880.77c-6.35-7.31-3.12-13.19-11.7-18.18l-136.81,36.85,8.02,27.16s109.21,12.66,152.79-3.95c1.88-.72-1.33-11.87,1-13.64-5.06-9.81-6.1-19.96-13.29-28.24Z"/>
      <path class="cls-40" d="M1067.26,645.04s89.25,20.4,92.4,77.29c3.15,56.89-6.01,90.6-6.01,90.6,0,0-58.28-5.97-80.58-14.93-22.3-8.96-14.7-94.25-14.7-94.25"/>
      <path class="cls-32" d="M1086.21,801.63c-4.43-1.46-8.85-2.92-13.28-4.39l.22.39c.18-4.53.45-9.06.75-13.58.66-10.21,1.52-20.4,2.67-30.56,1.21-10.63,2.65-21.31,5.2-31.72,1.24-5.03,2.76-10.04,5.33-14.57,2.66-4.68,6.3-8.81,10.72-11.91,4.91-3.46,10.76-5.75,16.52-6.53.1-.01.2-.02.3-.03,1.07-.08,1.81-1.32.3-1.2-5.15.39-10.42,2.42-14.89,4.89-9.62,5.31-15.94,14.23-19.09,24.64-3.03,10.04-4.54,20.57-5.86,30.95-1.37,10.76-2.34,21.57-3.1,32.39-.27,3.85-.51,7.7-.72,11.55-.1,1.87-.34,3.81-.28,5.69,0,.09,0,.18-.01.26,0,.16.04.33.22.39,4.43,1.46,8.85,2.92,13.28,4.39.49.16,1.11.1,1.54-.2.23-.16.71-.67.19-.85h0Z"/>
      <path class="cls-19" d="M1136.07,864.14s-7.43,35.44-14.29,46.99c-6.86,11.55-24.72,14.61-33.72,15.26-24.95,1.81-20.72-32.53-20.72-32.53l16.29-42.05,52.43,12.33Z"/>
      <path class="cls-39" d="M1072.56,866.84c3.37.96,6.61,2.27,9.21,4.67s4.55,5.49,6.57,8.38c.33.48,2.44-.21,2.04-.78-2.05-2.93-4.02-6.07-6.7-8.49-2.65-2.4-5.97-3.74-9.36-4.7-.49-.14-1.09,0-1.53.25-.21.12-.73.54-.24.68h0Z"/>
      <rect class="cls-28" x="934" y="822.51" width="6.43" height="95.74" transform="translate(560.75 -352) rotate(30)"/>
      <path class="cls-19" d="M968.72,899.55s-19.5-3.36-21.18-4.43c-1.68-1.06-21.08-17.94-23.1-18.26-2.02-.32-17.52,3.54-17.52,3.54l-8.49,2.88s-9.25,4.76-9.96,7.72c-.71,2.97,2.63,5.7,4.66,6,1.39.31,2.68.95,3.76,1.87-1.28,1.32-1.98,3.1-1.94,4.94.48,2.3,5.43,3.65,5.43,3.65-.52,1.87-.68,3.83-.48,5.77.51,2.31,3.77,3.2,3.77,3.2,0,0-2.72,5.32-2.01,7.18s8.3,5.76,17.42,5.61c6.62.58,7.93.99,11.13.67,5.2-.63,34.14-2.43,34.14-2.43l1.11-21.21"/>
      <g>
        <path class="cls-11" d="M1068.26,644.04s-18.16,40.52-54.12,37.32c-35.97-3.21-23.03-28.43-23.03-28.43l-11.33,4.39s-7.73,18.95,15.75,29.24c23.48,10.28,47.63,2.01,65.16-11.44,17.52-13.44,19.62-25.94,19.62-25.94l-12.04-5.13Z"/>
        <path class="cls-32" d="M1067.24,643.99c-1.75,3.9-4.09,7.6-6.53,11.1-5.24,7.5-11.72,14.33-19.55,19.15-4.53,2.8-9.52,4.86-14.75,5.88-6.21,1.21-12.65.87-18.81-.45-7.85-1.67-16.08-5.81-17.45-14.49-.66-4.18.47-8.35,1.89-12.01.03-.07.07-.14.1-.21.44-.87-1.06-.7-1.46-.54-3.23,1.25-6.46,2.5-9.69,3.75-.79.31-1.92.52-2.32,1.32-.26.53-.39,1.17-.53,1.73-1.81,7.24.17,14.88,5.31,20.32,4.73,5,11.3,8.01,17.8,9.96,7.45,2.23,15.33,2.8,23.04,1.87,15.15-1.83,29.52-9.15,40.97-19.07,4.88-4.23,9.32-9.12,12.57-14.73,1.44-2.49,2.89-5.29,3.47-8.14.03-.13.06-.27.09-.4.03-.17-.07-.36-.23-.43-4.01-1.71-8.02-3.42-12.04-5.13-.47-.2-1.12-.12-1.54.19-.26.19-.68.7-.17.92,4.01,1.71,8.02,3.42,12.04,5.13l-.23-.43c-.23,1.37-.76,2.73-1.3,4-1.56,3.68-3.77,7.09-6.26,10.21-7.8,9.77-18.85,17.39-30.36,22.13-12.13,4.99-25.61,6.45-38.3,2.76-9.29-2.7-19.39-8.07-22.42-17.96-1.27-4.15-1.34-9.16.31-13.24l-.65.62c3.78-1.46,7.56-2.93,11.33-4.39l-1.46-.54c-1.68,3.28-2.47,7.21-2.32,10.87.13,3.18,1.15,6.27,3.07,8.82,2.7,3.6,6.85,5.79,11.05,7.18,11.64,3.86,24.77,3.19,35.82-2.13,9.04-4.35,16.58-11.3,22.66-19.19,2.24-2.91,4.29-5.96,6.14-9.12.94-1.61,1.94-3.26,2.66-4.98.03-.08.07-.16.11-.23.45-1-1.72-.8-2.04-.1Z"/>
      </g>
      <path class="cls-39" d="M1019.36,552.85c-3.06-3.05-3.43-8.34-.66-11.71.58-.71-.79-.96-1.22-.44-3,3.64-2.82,9.43.55,12.79.47.47,1.84-.13,1.33-.64h0Z"/>
      <rect class="cls-37" x="-20.77" y="941.66" width="1374.26" height="111.18" transform="translate(1332.71 1994.5) rotate(180)"/>
      <rect class="cls-35" x="-22.39" y="930.1" width="1419.1" height="29.95"/>
      <polygon class="cls-25" points="1020.44 934.52 803.49 934.52 817.33 926.31 1034.28 926.31 1020.44 934.52"/>
      <path class="cls-19" d="M966.86,697.59c1.82-7.53,7.11-26.65,7.68-32.15.95-9.19-11.36-38.64-11.36-38.64,0,0,5.11-4.89,12.24,2.89,8.51,9.24,10.77,20.67,14.11,20.24,3.34-.43,28.22-12.64,32.49-10.13,4.27,2.5,3.26,7.55.84,8.71-1.92,1.02-.2.73-1.96,2.01,0,0,10.81,1.29,4.39,10.93,0,0,10.24-.55,2.96,13.25,0,0,6.15-.26,5.54,5.47-.61,5.73-5.59,9.99-9.69,12.88-3.83,2.7-30.77,20.2-33.64,22.35-9.57-5.48-14.26-11.98-23.61-17.81Z"/>
      <path class="cls-39" d="M974.4,630.09c2.74,3.01,4.99,6.38,6.95,9.93,1.42,2.56,2.61,5.25,4.15,7.74.81,1.31,1.79,2.79,3.52,2.7,1.32-.07,2.66-.68,3.88-1.14,4.47-1.71,8.85-3.63,13.32-5.36,2.46-.95,4.93-1.88,7.44-2.66,1.82-.57,3.73-1.16,5.64-1.3,2.42-.17,4.27,1.98,4.53,4.3.15,1.3-.23,2.94-1.3,3.79-.48.38-1.21.55-1.59,1.07s-.32.82-.89,1.26c-.33.26-.28.55.16.6,1.44.18,3.03.76,4.21,1.68,2.99,2.35,1.63,6.09-.12,8.78-.26.39.22.49.55.48.25-.01.2,0,.22,0,.34.02.69.05,1.03.13.91.19,1.78.6,2.44,1.26,3.01,2.99.17,8.58-1.36,11.53-.16.32.5.35.63.35,2.52-.09,5.01,1.67,4.95,4.6-.11,5.74-5.2,10.09-9.49,13.14-.39.28-.21.5.16.6.46.13,1.17-.15,1.54-.41,4.56-3.24,10.15-8.04,9.96-14.21-.1-3.31-3.25-4.85-6.22-4.74l.63.35c1.65-3.16,4.47-8.97,1.15-12.07-1.21-1.14-3.09-1.61-4.73-1.53l.55.48c1.86-2.85,3.41-6.81.3-9.39-1.37-1.13-3.24-1.8-5-2.02l.16.6c.48-.37.84-.69,1.12-1.22.24-.46.55-.58,1.02-.89.96-.62,1.62-1.56,1.94-2.66.72-2.55-.6-5.55-3.09-6.61-1.34-.57-3.03-.29-4.41-.05-2.29.41-4.53,1.1-6.73,1.83-5.1,1.7-10.06,3.78-15.03,5.82-1.83.75-3.66,1.52-5.52,2.19-.31.11-.58.2-.75.26-.11.03-.23.07-.35.1-.22.07-.27.02-.14.04.17.03-.26-.12-.39-.2-.32-.19-.59-.5-.83-.78-1.96-2.31-3.12-5.43-4.54-8.08-2.13-3.96-4.57-7.74-7.6-11.07-.42-.46-2.48.3-2.04.79h0Z"/>
      <path class="cls-39" d="M1021.06,649.93c-2.79.38-5.53,1.52-8.15,2.5-1.17.44-2.34.89-3.52,1.29-1.32.44-2.41,1.19-3.6,1.89-.32.19-.62.58-.2.83s1.16.01,1.54-.21c1.02-.61,1.89-1.26,3.01-1.6,1.17-.36,2.31-.84,3.46-1.27,2.27-.85,4.87-1.94,7.16-2.25.37-.05,1.18-.27,1.24-.73s-.63-.49-.93-.45h0Z"/>
      <path class="cls-39" d="M1013.43,668.13c2.44-.48,4.78-1.47,6.98-2.63s4.22-2.4,5.88-4.12c.34-.35-.3-.4-.52-.38-.46.03-1.12.18-1.45.53-1.42,1.47-3.21,2.61-5.01,3.57-1.7.91-3.68,1.83-5.48,2.19-.32.06-1.16.22-1.27.61s.72.27.88.24h0Z"/>
      <path class="cls-39" d="M1020.86,678.47c1.52-.37,2.92-.99,4.28-1.68.67-.34,1.36-.6,2.01-.98s1.31-.83,1.92-1.32c.09-.07.28-.22.24-.37s-.28-.19-.39-.2c-.47-.05-1.16.1-1.54.41-.96.79-2.03,1.41-3.15,1.89-.62.26-1.19.63-1.82.89s-1.11.4-1.77.56c-.25.06-1.06.31-.98.69s1.01.16,1.19.11h0Z"/>
      <path class="cls-19" d="M884.24,813.94c-4.53-9.28,16.34-31.93,30.92-53.68l59.56-75.94,23.32,19.21s-45.7,111.71-66.54,136.34c-9.01,10.65-12.2,5.76-14.91,7.3-7.52-9.06-27.22-22.71-32.35-33.23Z"/>
      <path class="cls-19" d="M962.66,777.18s-18.69,51.16-28.83,61.3c-10.13,10.14-26.34,12.58-35.81,10.89-13.13-2.35-16.35-12.12-16.28-21.3.07-9.06.36-21.77,6.04-28.83l31.5-39.13,43.37,17.08Z"/>
      <path class="cls-19" d="M149.5,907.39c-8.01-2.51-15.64-5.86-22.87-10.82-.56-.39-1.15-.82-1.39-1.46-.21-.57.9-6.2,1.01-6.79,3.61-19.17,10.5-36.59,22.55-52.12,7.94-10.23,17.95-19.68,29.7-25.49.52,2.5.79,3.86.79,3.86l202.12,62.1s7.18,45.11,7.18,45.11c-.74,1.16-11.88.35-13.59.39-4.7.11-9.4.21-14.1.27-9.35.14-18.7.18-28.05.11-18.56-.14-37.11-.71-55.64-1.84-37.13-2.26-75.13-1.8-111.57-9.28-5.54-1.14-10.92-2.42-16.15-4.05Z"/>
      <path class="cls-19" d="M159.43,586.04c18.25-37.37,57.07-32.45,79.61-11.94,11.41,10.38,5.46,40.98,5.46,40.98-5.55,57.63-46.25,176.72-56.07,204.83-5.46-.49-10.99-.32-16.42.37-19.02,2.42-37.34,10.69-52.58,22.18-7.56,5.7-14.91,17.4-20.62,25.12-3.73-9.82-4.44-25.55-2.44-35.95,3.53-18.3,9.08-47.09,10.7-55.45,0,0,34.11-152.76,52.36-190.14Z"/>
      <path class="cls-19" d="M137.74,901.65s-19.18-3.43-36.06-28.46c-16.88-25.04,14.18-73,31.64-90.26,17.47-17.26,46.34,54.9,46.34,54.9l-41.92,63.83Z"/>
      <path class="cls-39" d="M149.18,844.91c1.28-6.93,4.18-13.61,9.73-18.16,5.24-4.3,11.92-6.21,18.52-7.17,4.46-.65,8.98-.88,13.49-.96.37,0,1.29-.15,1.44-.56s-.13-.51-.55-.5c-14.24.24-31.8,2-40.18,15.27-2.39,3.78-3.8,8.03-4.61,12.41-.13.68,2.04.31,2.16-.33h0Z"/>
      <path class="cls-19" d="M366.3,877.11l2.12,27.24-6.02,13.02s38.2,18.17,48.6,17.74c10.4-.43,34.87,1.56,34.87,1.56-1.48,2.83-1.92,6.09-1.24,9.2,1.03,3.52,3.48,6.47,6.77,8.15l11.88-15.3c2.42,7.62,9.55,2.51,9.55,2.51l8.81-13.57c2.56,9.58,11.99,3.15,11.99,3.15l5.92-19.45c2.26,3.4,5.17,6.33,8.57,8.62,4.45,2.46,6.55-5.27,6.55-5.27l-15.15-31.98-45.87-17.1-76.61,12.88-10.74-1.4Z"/>
      <path class="cls-39" d="M469.92,879.22c3.98,1.45,7.75,3.32,11.51,5.27s7.45,4.05,10.86,6.55c1.68,1.23,3.28,2.56,4.8,3.99,1.34,1.25,2.32,2.62,2.57,4.48.28,2.13.03,4.46-.09,6.59s-.63,4.36-1.47,6.41c-.46,1.12,1.72,1.05,2.07.2.83-2.03,1.4-4.16,1.57-6.35.18-2.24.32-4.63.15-6.88-.29-4.01-3.91-6.58-6.85-8.85-3.58-2.77-7.52-5.05-11.52-7.14-4.02-2.1-8.06-4.11-12.32-5.67-.87-.32-2.55.94-1.27,1.4h0Z"/>
      <path class="cls-39" d="M459.53,896.84c2.94,1.31,5.96,2.42,8.93,3.64,3.58,1.47,7.4,2.94,10.68,5,1.71,1.07,2.94,2.26,3.62,4.18.63,1.78,1.04,3.73,1.28,5.6.25,2,.2,4.2-.34,6.15s-1.69,3.89-2.74,5.63c-.64,1.06,1.57,1.15,2.09.29,1.05-1.75,2.15-3.65,2.75-5.61.59-1.94.67-4.12.51-6.13-.17-2.1-.61-4.3-1.29-6.29-.31-.9-.64-1.9-1.24-2.63-.55-.67-1.27-1.27-1.96-1.79-1.57-1.19-3.43-1.99-5.19-2.85-1.94-.94-3.91-1.82-5.91-2.65-3.3-1.38-6.67-2.6-9.94-4.06-.96-.43-2.51.96-1.24,1.52h0Z"/>
      <path class="cls-39" d="M449.66,917.61c2.93.49,5.98.81,8.86,1.54,2.89.73,6.04,1.97,7.91,4.4,1.92,2.5,2.16,5.64,1.05,8.53-.66,1.73-1.81,3.17-3.08,4.5-.45.47-.92.92-1.43,1.33-.18.14-.4.27-.57.42-.31.28-.76-.09.71-.12-.4,0-1.23.16-1.45.55s.19.48.54.47c2.04-.03,3.97-2.42,5.14-3.8,2.15-2.54,3.64-5.98,2.77-9.34-1.57-6.11-8.33-7.69-13.74-8.6-1.78-.3-3.57-.6-5.35-.9-.56-.09-2.52.81-1.38,1h0Z"/>
      <path class="cls-14" d="M221.99,727.04l31.27-88.08.75-145.93s-56.07-1.45-84.48,42.4c-14.64,23.41-42.38,110.42-58.83,159.21,63.69,30.51,81.31,31.88,111.29,32.4Z"/>
      <path class="cls-12" d="M248.85,523.27c6.93,2.4,12.2,7.85,15.99,13.97,3.81,6.14,6.38,13.14,7.76,20.22,2.18,11.15.98,22.92-.47,34.08-1.94,14.89-5.05,29.62-8.61,44.2-3.89,15.93-8.41,31.71-13.41,47.33-4.51,14.07-9.39,28.04-14.94,41.74-.59,1.46-1.19,2.91-1.79,4.36l1.52-.73c-6.7-.07-13.39-.13-20.09-.2-.39,0-1.27.15-1.44.58s.14.58.57.59c6.7.07,13.39.13,20.09.2.5,0,1.3-.21,1.52-.73,5.62-13.43,10.54-27.17,15.08-41,5.12-15.61,9.75-31.39,13.78-47.32,3.79-14.97,7.13-30.09,9.34-45.38,1.64-11.3,3.02-23.1,1.63-34.5-.85-6.95-3.01-13.82-6.16-20.07-3.21-6.35-7.65-12.34-13.8-16.08-1.53-.93-3.14-1.68-4.83-2.27-.48-.16-1.12-.06-1.54.22-.23.15-.72.62-.21.79h0Z"/>
    </g>
  </g>
</svg>