<?xml version="1.0" encoding="UTF-8"?>
<svg xmlns="http://www.w3.org/2000/svg" xmlns:xlink="http://www.w3.org/1999/xlink" viewBox="0 0 1334 1000">
  <defs>
    <style>
      .cls-1 {
        fill: #131429;
      }

      .cls-2 {
        fill: #205f30;
      }

      .cls-3 {
        fill: #072b3a;
      }

      .cls-4 {
        fill: none;
        stroke: #4f2e25;
        stroke-miterlimit: 10;
        stroke-width: .75px;
      }

      .cls-5 {
        fill: #dcd3b0;
      }

      .cls-6 {
        fill: #acabab;
      }

      .cls-7 {
        fill: #151312;
      }

      .cls-8 {
        fill: #273339;
      }

      .cls-9 {
        fill: #3e525a;
      }

      .cls-10 {
        fill: #010101;
      }

      .cls-11 {
        fill: #11394c;
      }

      .cls-12 {
        fill: #653c29;
      }

      .cls-13 {
        fill: #8e8e8e;
      }

      .cls-14 {
        fill: #27153c;
      }

      .cls-15 {
        fill: #331d17;
      }

      .cls-16 {
        fill: #b7c8ce;
      }

      .cls-17 {
        fill: #f1eef7;
      }

      .cls-18 {
        fill: #77543f;
      }

      .cls-19 {
        fill: #643c2a;
      }

      .cls-20 {
        fill: #2c2f30;
      }

      .cls-21 {
        isolation: isolate;
      }

      .cls-22 {
        fill: #a66e53;
      }

      .cls-23 {
        fill: url(#linear-gradient);
        opacity: .5;
      }

      .cls-24 {
        fill: #080707;
      }

      .cls-25 {
        fill: url(#linear-gradient-2);
        mix-blend-mode: multiply;
        opacity: .37;
      }

      .cls-26 {
        fill: #2e8942;
      }

      .cls-27 {
        fill: #fff;
      }

      .cls-28 {
        fill: #513835;
      }

      .cls-29 {
        fill: #2d383d;
      }

      .cls-30 {
        fill: #45616e;
      }

      .cls-31 {
        fill: #f2ebd1;
      }

      .cls-32 {
        fill: #707071;
      }

      .cls-33 {
        fill: #975449;
      }

      .cls-34 {
        fill: #202956;
      }

      .cls-35 {
        fill: #38211a;
      }

      .cls-36 {
        fill: #8d372d;
      }

      .cls-37 {
        fill: #4f2e25;
      }

      .cls-38 {
        fill: #89ad96;
      }
    </style>
    <linearGradient id="linear-gradient" x1="-1241.72" y1="3541.37" x2="-67.87" y2="3541.37" gradientTransform="translate(-2861.52 1140.48) rotate(90) scale(1 -1)" gradientUnits="userSpaceOnUse">
      <stop offset="0" stop-color="#f0ebe0"/>
      <stop offset=".18" stop-color="#eee8dd" stop-opacity=".99"/>
      <stop offset=".33" stop-color="#e8e1d4" stop-opacity=".97"/>
      <stop offset=".46" stop-color="#ded4c5" stop-opacity=".93"/>
      <stop offset=".59" stop-color="#d0c2b0" stop-opacity=".88"/>
      <stop offset=".72" stop-color="#bdab95" stop-opacity=".82"/>
      <stop offset=".84" stop-color="#a78e73" stop-opacity=".73"/>
      <stop offset=".96" stop-color="#8d6d4d" stop-opacity=".64"/>
      <stop offset="1" stop-color="#83603d" stop-opacity=".6"/>
    </linearGradient>
    <linearGradient id="linear-gradient-2" x1="-2546.55" y1="-3301.56" x2="-2539.73" y2="-2421.61" gradientTransform="translate(-1369.27 -2380.25) rotate(-180)" gradientUnits="userSpaceOnUse">
      <stop offset="0" stop-color="#262262" stop-opacity="0"/>
      <stop offset="1" stop-color="#000"/>
    </linearGradient>
  </defs>
  <g class="cls-21">
    <g id="Layer_3" data-name="Layer 3">
      <polyline class="cls-31" points="1390.4 1103.18 1390.4 -65.96 -10.85 -65.96 -10.85 1103.18"/>
      <polyline class="cls-23" points="1380.48 1068.74 -20.77 1068.74 -20.78 -105.11 1380.48 -105.11"/>
      <rect class="cls-34" x="722.31" y="57.97" width="821.54" height="719.49"/>
      <rect class="cls-25" x="762.62" y="57.97" width="821.54" height="724.54"/>
      <path class="cls-13" d="M709.31,36.96v746.95s843.8,0,843.8,0V36.96s-843.8,0-843.8,0ZM743.43,70.08h772.3v679.91h-772.3V70.08Z"/>
      <rect class="cls-18" x="619.86" y="30.78" width="1012.98" height="39.87" rx="19.93" ry="19.93"/>
      <path class="cls-30" d="M673.57,15.76c8.64-.76,17.73-2.14,26.2-.15,8.12,1.91,15.56,4.47,24.08,5.05,8.7.59,17.05-1.45,25.23-3.61,8.32-2.19,13.63-2.49,22.03-.67,8.91,1.93,17.67,3.8,26.88,4.54,14.83,1.19,28.73-2.96,43.07-4.74v1042.42c-3.92,2.88-8.29,4.96-13.21,5.04-5.53.09-10.84-2.24-15.74-4.71-11.48-5.78-22.44-12.21-35.41-13.25-17.14-1.38-29.97,9.14-45.17,15.2-8.38,3.34-16.37,3.42-24.84.43-8.64-3.04-16.6-7.51-25.7-8.98-7.38-1.19-28.21-.7-34.96,1.09V17.47c9.23-.04,18.36-.9,27.54-1.71Z"/>
      <path class="cls-5" d="M998.59,194.87l2.35,7.25c.18.55.69.92,1.26.92h7.62c1.28,0,1.82,1.64.78,2.4l-6.17,4.48c-.46.34-.66.94-.48,1.48l2.35,7.25c.4,1.22-1,2.24-2.04,1.48l-6.17-4.48c-.46-.34-1.09-.34-1.56,0l-6.17,4.48c-1.04.75-2.43-.26-2.04-1.48l2.35-7.25c.18-.55-.02-1.14-.48-1.48l-6.17-4.48c-1.04-.75-.5-2.4.78-2.4h7.62c.57,0,1.08-.37,1.26-.92l2.35-7.25c.4-1.22,2.12-1.22,2.52,0Z"/>
      <path class="cls-5" d="M1233.08,140.74l2.35,7.25c.18.55.69.92,1.26.92h7.62c1.28,0,1.82,1.64.78,2.4l-6.17,4.48c-.46.34-.66.94-.48,1.48l2.35,7.25c.4,1.22-1,2.24-2.04,1.48l-6.17-4.48c-.46-.34-1.09-.34-1.56,0l-6.17,4.48c-1.04.75-2.43-.26-2.04-1.48l2.35-7.25c.18-.55-.02-1.14-.48-1.48l-6.17-4.48c-1.04-.75-.5-2.4.78-2.4h7.62c.57,0,1.08-.37,1.26-.92l2.35-7.25c.4-1.22,2.12-1.22,2.52,0Z"/>
      <path class="cls-5" d="M902.18,302.4l1.39,4.29c.1.32.41.54.75.54h4.51c.76,0,1.08.97.46,1.42l-3.65,2.65c-.27.2-.39.55-.28.88l1.39,4.29c.23.72-.59,1.32-1.21.88l-3.65-2.65c-.27-.2-.65-.2-.92,0l-3.65,2.65c-.61.45-1.44-.15-1.21-.88l1.39-4.29c.1-.32-.01-.68-.28-.88l-3.65-2.65c-.61-.45-.3-1.42.46-1.42h4.51c.34,0,.64-.22.75-.54l1.39-4.29c.23-.72,1.26-.72,1.49,0Z"/>
      <path class="cls-5" d="M1234.25,435.06l1.29,3.96c.1.3.38.5.69.5h4.17c.7,0,.99.9.43,1.31l-3.37,2.45c-.25.18-.36.51-.26.81l1.29,3.96c.22.67-.55,1.22-1.11.81l-3.37-2.45c-.25-.18-.6-.18-.85,0l-3.37,2.45c-.57.41-1.33-.14-1.11-.81l1.29-3.96c.1-.3,0-.63-.26-.81l-3.37-2.45c-.57-.41-.28-1.31.43-1.31h4.17c.31,0,.59-.2.69-.5l1.29-3.96c.22-.67,1.16-.67,1.38,0Z"/>
      <path class="cls-5" d="M1237.74,364.04l.51,1.58c.04.12.15.2.27.2h1.66c.28,0,.4.36.17.52l-1.34.97c-.1.07-.14.2-.1.32l.51,1.58c.09.27-.22.49-.44.32l-1.34-.97c-.1-.07-.24-.07-.34,0l-1.34.97c-.23.16-.53-.06-.44-.32l.51-1.58c.04-.12,0-.25-.1-.32l-1.34-.97c-.23-.16-.11-.52.17-.52h1.66c.12,0,.24-.08.27-.2l.51-1.58c.09-.27.46-.27.55,0Z"/>
      <path class="cls-5" d="M963.72,345.76l1.39,4.29c.1.32.41.54.75.54h4.51c.76,0,1.08.97.46,1.42l-3.65,2.65c-.27.2-.39.55-.28.88l1.39,4.29c.23.72-.59,1.32-1.21.88l-3.65-2.65c-.27-.2-.65-.2-.92,0l-3.65,2.65c-.61.45-1.44-.15-1.21-.88l1.39-4.29c.1-.32-.01-.68-.28-.88l-3.65-2.65c-.61-.45-.3-1.42.46-1.42h4.51c.34,0,.64-.22.75-.54l1.39-4.29c.23-.72,1.26-.72,1.49,0Z"/>
      <path class="cls-5" d="M1112.68,277.21l1.39,4.29c.1.32.41.54.75.54h4.51c.76,0,1.08.97.46,1.42l-3.65,2.65c-.27.2-.39.55-.28.88l1.39,4.29c.23.72-.59,1.32-1.21.88l-3.65-2.65c-.27-.2-.65-.2-.92,0l-3.65,2.65c-.61.45-1.44-.15-1.21-.88l1.39-4.29c.1-.32-.01-.68-.28-.88l-3.65-2.65c-.61-.45-.3-1.42.46-1.42h4.51c.34,0,.64-.22.75-.54l1.39-4.29c.23-.72,1.26-.72,1.49,0Z"/>
      <path class="cls-5" d="M910.36,119l1.39,4.29c.1.32.41.54.75.54h4.51c.76,0,1.08.97.46,1.42l-3.65,2.65c-.27.2-.39.55-.28.88l1.39,4.29c.23.72-.59,1.32-1.21.88l-3.65-2.65c-.27-.2-.65-.2-.92,0l-3.65,2.65c-.61.45-1.44-.15-1.21-.88l1.39-4.29c.1-.32-.01-.68-.28-.88l-3.65-2.65c-.61-.45-.3-1.42.46-1.42h4.51c.34,0,.64-.22.75-.54l1.39-4.29c.23-.72,1.26-.72,1.49,0Z"/>
      <path class="cls-5" d="M912.2,204.86c0-13.65,8.81-25.24,21.05-29.41-3.14-1.07-6.51-1.66-10.02-1.66-17.16,0-31.07,13.91-31.07,31.07s13.91,31.07,31.07,31.07c3.51,0,6.87-.59,10.02-1.66-12.24-4.17-21.05-15.76-21.05-29.41Z"/>
      <path class="cls-5" d="M1173.67,137.15l.51,1.58c.04.12.15.2.27.2h1.66c.28,0,.4.36.17.52l-1.34.97c-.1.07-.14.2-.1.32l.51,1.58c.09.27-.22.49-.44.32l-1.34-.97c-.1-.07-.24-.07-.34,0l-1.34.97c-.23.16-.53-.06-.44-.32l.51-1.58c.04-.12,0-.25-.1-.32l-1.34-.97c-.23-.16-.11-.52.17-.52h1.66c.12,0,.24-.08.27-.2l.51-1.58c.09-.27.46-.27.55,0Z"/>
      <rect class="cls-32" x="841.05" y="777.14" width="674.23" height="39.89"/>
      <path class="cls-29" d="M746.07,1191.75c-1.09-16.9-2.05-33.82-2.87-50.73-.82-16.92-1.5-33.84-2.05-50.77-.54-16.93-.95-33.85-1.22-50.79-.27-16.93-.4-33.86-.39-50.8,0-17.05.16-34.09.44-51.14.29-16.95.72-33.9,1.26-50.84.54-16.97,1.17-33.93,1.8-50.9.62-16.98,1.25-33.96,1.87-50.94.62-16.98,1.25-33.96,1.87-50.94.62-16.98,1.25-33.96,1.87-50.94.15-4.16.31-8.32.46-12.49.03-.89-2.15-.45-2.17.27-.62,16.98-1.25,33.96-1.87,50.94-.63,17.06-1.25,34.13-1.88,51.19-.62,16.98-1.25,33.96-1.87,50.94-.63,17.05-1.27,34.1-1.85,51.16-.58,16.95-1.08,33.91-1.43,50.86-.35,16.93-.56,33.86-.64,50.79-.07,16.9-.01,33.8.19,50.7.2,16.93.54,33.86,1.01,50.79.48,17.01,1.09,34.02,1.85,51.02.75,16.92,1.64,33.84,2.67,50.74.25,4.14.51,8.29.78,12.43.05.7,2.23.25,2.17-.58h0Z"/>
      <path class="cls-29" d="M701.12,928.64c-.86-23.49-1.19-46.99-1.77-70.49-.58-23.17-1.41-46.34-3.26-69.44-1.04-13.03-2.42-26.03-4.26-38.98-.15-1.06-2.33-.51-2.17.58,3.27,23,5.06,46.17,6.16,69.37,1.1,23.22,1.52,46.47,2.02,69.71.29,13.13.6,26.26,1.08,39.38.04,1.18,2.25.89,2.21-.14h0Z"/>
      <path class="cls-29" d="M789.41,998.8c-.43-20.04-.72-40.09-.98-60.13-.26-20.16-.49-40.31-.79-60.47-.29-20.03-.65-40.07-1.16-60.1-.51-19.91-1.19-39.81-2.12-59.7-.93-19.75-2.11-39.49-3.66-59.2-.19-2.41-.38-4.82-.58-7.23-.07-.88-2.25-.38-2.17.58,1.63,19.68,2.9,39.39,3.89,59.12,1,19.91,1.72,39.83,2.27,59.76.55,20.02.94,40.04,1.24,60.07.31,19.99.54,39.98.79,59.97.25,20.05.53,40.1.93,60.16.05,2.46.1,4.92.15,7.38.02,1.05,2.21.66,2.19-.21h0Z"/>
    </g>
    <g id="Layer_1" data-name="Layer 1">
      <path class="cls-22" d="M447.69,679.85c-1.66-2.32-5.45-9.76-6.93-12.2-1.09-1.8-1.91-15.71-1.14-18.57,1.15-4.29,7.21-11.37,8.02-12.2,11.94-12.26,22.2.92,38.59-3.76,11.33-3.23,22.05-9.65,33.79-7.58-.96,2.11.22,8.12.22,8.12l141.32,171.46s-31.81,29.55-31.81,29.55c-32.09-21.96-74.14-57.1-104.37-81.57-15.23-12.33-15.36-2.7-29.58-16.18-9.69-9.18-27.96-27.27-36.8-37.59-2.74-3.2-8.88-16.05-11.33-19.48Z"/>
      <path class="cls-22" d="M497.02,458.08c-12.12.37-24.25.69-36.35,1.43-12.31.75-24.67,1.87-36.79,4.2,2.46,55.74,12.27,139.71,12.27,139.71,1.12,7.67,2.65,28.56,5.11,45.34,1.4,9.53,9.23,31.3,18.97,40.24,2.59-8.34,1.63-25.18,6.42-32.34,9.65-14.44,27.22-3.84,42.84-11.62,4.46-2.22,5.94-10.16,10.78-11.38,0-22.27-1.32-116.06-8.67-176.15-4.85.22-9.71.43-14.56.58Z"/>
      <path class="cls-22" d="M492.29,703.65s-17.18,5.05-37.58-20.99c-16.94-21.63-11.34-81.11,2.89-98.33,14.23-17.22,64.47,59.17,64.47,59.17l-29.78,60.15Z"/>
      <path class="cls-22" d="M487.5,823.66c29.64-8.88,69.61-33.14,91.22-51.01l30.5-63.45c-19.33-30.62-49.84,7.42-49.84,7.42-8.27,8.71-67.9,45.07-86.45,56.56,10.43,14.96,13.81,32.25,14.58,50.49Z"/>
      <path class="cls-22" d="M526.09,807.06s-39.03,27.96-58.59,27.41c-12.77-.36-20.94-10.76-26.09-17.62-14.27-19.03,9-38.24,9-38.24l42.03-8.58,33.65,37.02Z"/>
      <path class="cls-22" d="M477.73,800.9c1.62-9.06-3.37-18.4-4.81-27.73l-97.67-71.1-15.33,22.15s55.32,83.34,93.63,105.69c1.65.96,8.49-2.97,11.2-2.31,4.24-9.6,11.14-16.43,12.98-26.7Z"/>
      <path class="cls-22" d="M376.92,252.57s-10.28,33.3-32.3,50.87c-3.53,2.81-40.05,7.47-40.05,7.47l11.27,110.8c17.28,14.66,57.7,13.73,80.18,16.63l60.77-30.02s-22.74-33.53-21.33-38.67c1.41-5.14,21.06-38.18,21.06-38.18"/>
      <path class="cls-4" d="M386.23,231.94c0-21.23-5.39-23.68-5.39-23.68,0,0-5.45,2.58-7.2,11.68"/>
      <path class="cls-4" d="M382.71,232.36c-4.67-2.58-4.81,8.1-7.07,9.65-2.26,1.55-1.62-4.88.7-11.97,0,0,3.95-9.24,9.29-8.94"/>
      <path class="cls-16" d="M418.12,566.08c8.68,2.36,17.42,4.5,26.19,6.47.93-.47-9.21,47-7.72,47.51,14.23,4.78,62.95,4.99,92.81-13.36-1.96-58.97-8.97-120.11-8.68-143.42.47-38.6-69.89-94.95-75-98.66,0,0-31.31,132.65-27.47,188.19.26,3.78.2,8.26-.13,13.28Z"/>
      <path class="cls-9" d="M114.41,711.06l-19.92,65.27c-20.34,69.96,11.1,127.91,26,167.71l32.48,168.55s.59,86.35-8.07,147.1c-7.55,52.67,14.31,146.86,14.31,146.86l27.67,9.14c20.8,2.89,42.04,3.28,63.02,1.14l40.38-10.55,39.33-311.57,29.21-203.78,41.54-114.97-285.95-64.91Z"/>
      <path class="cls-9" d="M424.13,764.89l-18.33,321.01c-1.9,37-10.93,61.06-18.72,131.99l-14.96,120.88-5.29,52.54-13.06,1.93c-17.93,3.06-28.55,4.09-46.83,3.23l-40.05-.86,38.22-619.05,119.02-11.68Z"/>
      <path class="cls-16" d="M453.03,664.78h0c-.04-.53.44-.97.18-1.05l46.24-163.92,14.98-54.29s-3.24-6.79-6.53-13.95c-5.2-11.31-13.54-17.26-21.93-26.45l-35.38-32.21s-3.2-.37-17.06,14.98c-5.93,6.57-7.79,33.91-18.85,31.49,0,0,.39-23.95-21.75-49.47,0,0-57.79-52.41-57.35-63.11-25.04-.06-103.46,16.26-123.94,25.56-24.08,10.86,14.63,68.57,31.61,103.75l-35.81-6.91s-37.09,101.48-59.69,155.14c-.87,1.9-1.75,3.97-2.62,6.15-2.75,6.39-5.23,11.89-7.32,16.17.49.15.98.29,1.47.44-12.52,39.56-33.42,107.52-36.08,125.93-3.34,23.14,42.06,50.12,105.6,64.83,62.41,14.45,205.43,47.6,228.23-36.07l2.08-9.02c8.96-35.84.41-39.61,13.93-87.98Z"/>
      <path class="cls-1" d="M507.01,484.31c-10.88,20.18-16.09,42.65-21.01,64.86-2.46,11.12-4.88,22.26-7.94,33.24-1.86,6.68-4.04,13.26-6.2,19.85-2.15,6.59-4.15,13.28-6.66,19.75-.13.33,1.28.18,1.44-.23,2.19-5.65,3.95-11.5,5.84-17.25,1.98-6.03,4-12.06,5.81-18.15,6.51-21.98,10.03-44.71,16.28-66.77,3.47-12.26,7.82-24.29,13.88-35.52.14-.27-1.22-.16-1.44.23h0Z"/>
      <path class="cls-20" d="M365.22,864c-16.25,10.02-25.69,27.45-29.16,45.85-2.09,11.08-2.29,22.41-2.26,33.65,0,2.03.04,4.03-.06,6.05-.22,4.69-.45,9.39-.67,14.08-.4,8.43-.81,16.85-1.21,25.28-.51,10.75-1.03,21.51-1.54,32.26-.56,11.8-1.13,23.61-1.69,35.41-.55,11.46-1.09,22.91-1.64,34.37-.46,9.72-.93,19.44-1.39,29.15-.32,6.69-.64,13.38-.96,20.07-.11,2.28-.13,4.59-.33,6.87-.21,2.39-.6,4.77-.9,7.14-.75,5.95-1.5,11.91-2.24,17.86-1.09,8.68-2.18,17.36-3.27,26.03-1.32,10.51-2.64,21.02-3.96,31.53-1.45,11.57-2.91,23.14-4.36,34.71-1.48,11.75-2.95,23.49-4.43,35.24-1.39,11.04-2.77,22.07-4.16,33.11-1.2,9.55-2.4,19.11-3.6,28.66-.9,7.18-1.8,14.36-2.71,21.54l-1.49,11.88c-.06.51-.13,1.01-.19,1.52-.06.47,1.2.24,1.25-.17.26-2.1.53-4.2.79-6.3.72-5.71,1.43-11.41,2.15-17.12,1.06-8.47,2.13-16.95,3.19-25.42,1.31-10.4,2.61-20.8,3.92-31.19,1.44-11.48,2.89-22.96,4.33-34.44,1.48-11.76,2.96-23.53,4.43-35.29,1.4-11.12,2.79-22.24,4.19-33.36,1.22-9.68,2.43-19.35,3.65-29.03.93-7.39,1.86-14.78,2.79-22.18.54-4.27,1.07-8.53,1.61-12.8.15-1.22.28-2.4.34-3.63.22-4.59.44-9.17.66-13.76.4-8.36.8-16.72,1.2-25.08.51-10.72,1.02-21.44,1.54-32.16l1.68-35.26c.55-11.48,1.1-22.96,1.65-34.44.47-9.75.93-19.49,1.4-29.24.32-6.8.65-13.59.97-20.39.15-3.16.35-6.31.34-9.47-.1-21.09.54-43.16,11.83-61.71,4.79-7.87,11.24-14.65,19.1-19.5.72-.44-.38-.58-.77-.34h0Z"/>
      <path class="cls-16" d="M417.19,423.28c-.76-1.66-31.05-45.54-31.05-45.54l-27.35,13.13-9.65-9.35c-25.55-24.44-42.11-72.98-42.11-72.98l38.4-14.98c1.23,38.29,49.4,75.84,49.4,75.84l22.67,47.07,18.6-49.54c1.88-6.91,3.34-11.49,3.34-11.49l9.33,2.33,17.16,19.37c-6.64,30.15-11.33,28.76-11.33,28.76l-18.08-15.51c-5.91,10.09-7.21,23.02-12.58,33.36-9.81,18.92-15.66,41.09-20.69,61.99"/>
      <path class="cls-1" d="M464.69,379.07c-1.5,6.8-3.09,13.79-5.93,20.19-.63,1.41-1.32,2.84-2.27,4.06-.48.62-1.02,1.08-1.47,1.32-.07.04-.16.04-.28,0,.1.04-.06-.04-.11-.07.24.15-.11-.1-.19-.17-3.01-2.59-6.03-5.17-9.05-7.76-2.92-2.5-5.84-5.01-8.76-7.51-.38-.32-1.1-.18-1.35.25-6.5,11.08-14.26,21.73-18.77,33.84-.27.73,1.17.64,1.37.11,4.51-12.11,12.27-22.77,18.77-33.84l-1.35.25c5.93,5.08,11.85,10.17,17.78,15.25,2.59,2.22,5.22-1.96,6.23-3.91,3.54-6.8,5.21-14.73,6.85-22.15.14-.64-1.33-.44-1.46.14h0Z"/>
      <path class="cls-1" d="M417.37,422.13c-.88-1.84-2.26-3.54-3.4-5.22-2.44-3.63-4.91-7.24-7.37-10.85-5.51-8.06-11.04-16.1-16.57-24.14-1.26-1.82-2.51-3.65-3.77-5.47-.21-.3-.7-.26-.99-.12-7.98,3.83-15.95,7.66-23.93,11.48-1.14.55-2.28,1.1-3.43,1.64l.88.02c-3.17-3.07-6.33-6.14-9.5-9.2-6-5.79-11.24-12.29-15.95-19.16-8.61-12.56-15.63-26.25-21.46-40.31-1.18-2.85-2.35-5.72-3.37-8.64-.24-.68-1.68-.28-1.45.39,2.93,8.39,6.65,16.57,10.61,24.51,7.73,15.54,17.04,30.87,29.5,43.09,3.48,3.41,7,6.79,10.51,10.18.21.2.65.13.88.02,7.98-3.83,15.95-7.66,23.93-11.48,1.14-.55,2.28-1.1,3.43-1.64l-.99-.12c3.42,4.95,6.83,9.9,10.23,14.86,5.56,8.08,11.11,16.16,16.61,24.29.97,1.43,1.94,2.87,2.89,4.31.3.45.6.91.89,1.36.09.15.19.3.28.45.04.06.19.35.09.15.31.65,1.75.23,1.45-.39h0Z"/>
      <path class="cls-3" d="M705.62,1254.44c.03,2.64-41.31,8.81-44.41,9.07-21.5,1.79-42.09-.73-62.4-7.23l-2.09-17.39-24.8-174.52-.18-88.79,144.34-4.24,3.34,29.43c2.8,24.69,2.66,49.75-.41,74.38l-12.74,87.93s-.87,79.05-.64,91.34Z"/>
      <path class="cls-3" d="M550.26,1242.99c-13.2-1.15-30.31-3.52-39.88-12.96l-4.1-235.31,73.12-23.37,16.89,271.78c-14.66.16-31.37,1.14-46.04-.13Z"/>
      <path class="cls-22" d="M604.63,612.1c2.05-8.07,5.46-16.62,8.23-20.92,1.24-3.63,2.71-7.83,4.51-12.9.52-1.47,1.06-2.86,1.61-4.24.35-.68.63-1.39.86-2.12,10.04-24.19,22.96-33.95,22.96-33.95,16.45-12.33,38.18-14.96,57.07-6.92,22.41,8.99,37.61,30.41,43.02,48.24,2.7,8.83,2.04,18.36-1.84,26.74-3.3,7.17-8.14,14.8-13.14,22.05,8.03,2.62,14.7,8.37,6.33,21.83-11.54,18.57-26.82,19.9-30.82,12.09-1.49-.28-6.58,4.74-8.49,8.8-3.66,7.78-8.71,22.14-7.41,30.64l-1.07,2.2c-27.39,21.02-62.51,42.57-105.46-13.84l38.62-10.92,3.54-8.95c-2.13-.98-4.03-2.49-6.04-3.73-8.28-5.1-12.04-13.51-13.91-22.63-1.58-7.72-.26-22.23,1.14-30.05.09-.48.19-.96.31-1.44Z"/>
      <path class="cls-38" d="M706.79,809.56c2.02,24.28,15.07,35.48,15.57,38.66.21,1.33-3.47,112.92,1.07,164.79-12.9,2.81-31.59,5.07-44.81,5.94-19.22,1.26-46.07,5.72-65.11,3.26-17.17-2.22-51.72-4.3-68.7-7.62-19.42-3.8-23.24-8.36-41.39-18.69,9.18-40.52,24.83-142.59,27.59-161.71,2.98-21.05-.62-12.24-.62-12.24,0,0,15.72-13.47,3.47-24.23,11.09-23.07-8.77-84.97,33.38-103.29,5.96-2.59,39.95-12.53,49.56-15.53-2.54,3.39-3.56,9.18-3.22,11.84.96,7.65.74,9.42,6.35,13.62,4.95,3.71,13.6,7.49,19.83,6.6,31.97-4.55,41.44-16.06,49.51-27.41,12.72,8.88,21.39,14.83,33.77,21.81,46.25,26.06,27.35,97.08,27.35,97.08-9.06,4.34-43.61,7.13-43.61,7.13Z"/>
      <path class="cls-15" d="M623.24,670.02s20.86,9.85,45.02,4.41c0,0-4.78,5.59-20.4,5.26-15.62-.33-25.95-6.17-25.95-6.17l1.32-3.49Z"/>
      <ellipse cx="624.7" cy="587.72" rx="5.15" ry="5.13" transform="translate(-34.6 1136.35) rotate(-83.02)"/>
      <path d="M618.72,582.09c2.84-.59,6.36-.36,10.85,1.8,7.2,3.46,7.07,14.07,7.07,14.07,0,0-1.29-8.62-8.31-12.21-3.38-1.73-9.98-1.84-13.2-1.48.34-.68,1.84-1.74,3.58-2.18Z"/>
      <path class="cls-37" d="M729.24,648.93c1.65-2.01,2.95-4.45,3.03-7.1.02-.7.14-1.44-.63-1.64-2.19-.58-4.86.67-6.75,1.61-2.97,1.49-5.68,3.51-8.25,5.6-.79.64.59.76,1,.65.05-.01.1-.03.15-.04-.2.04.07-.02.22-.03.32-.03.67-.07.99.04.91.33.79,1.45.58,2.21-.23.83-.72,1.63-1.44,2.13-1.1.76-2.56.48-3.76.16-.65-.17-2.54.81-1.35,1.12,3.24.85,7.55.05,8.68-3.57.37-1.19.3-2.59-1.04-3.08-1.02-.37-2.28-.22-3.31.06l1,.65c2.14-1.74,4.36-3.4,6.77-4.75,1.27-.71,2.53-1.3,3.84-1.61.21-.05-.17.02.11-.02.1-.02.19-.03.29-.04s.2-.02.29-.03c-.22.02-.08,0,.05,0,.11,0,.48.03.17,0,.1.01.19.02.29.04.18.03-.1-.12.06.02-.28-.24-.15-.25-.18-.04-.03.19.05.46.05.65.07,2.6-1.27,5.06-2.87,7.01-.33.4.28.57.57.58.49.02,1.12-.19,1.44-.58h0Z"/>
      <ellipse cx="675.27" cy="606.95" rx="5.15" ry="5.13" transform="translate(-9.26 1203.43) rotate(-83.02)"/>
      <path d="M659.73,605.86s10.9-7.04,18.85-3.29c11.18,5.27,11.4,10.81,12.24,15.35,0,0-4.47-9.63-13.22-13.48-7.93-3.5-17.87,1.43-17.87,1.43Z"/>
      <path class="cls-12" d="M634.29,635.52c6.7,2.5,17.84,5.78,17.84,5.78,0,0-5.27,16.83-23.73,9.58-15.43-6.06-9.91-21.76-9.91-21.76,0,0,9.1,3.9,15.8,6.4Z"/>
      <path d="M634.04,635.43c3.2,1.2,15.19,5.53,15.19,5.53,0,0-5.95,7.44-17.54,3.1-12.57-4.7-11.62-13.04-11.62-13.04l13.97,4.41Z"/>
      <path class="cls-17" d="M632.93,636.74c3.29,1.23,13.5,4.44,13.5,4.44,0,0-4.95,1.24-14.82-2.45-9.87-3.69-11.7-7.35-11.7-7.35l13.02,5.36Z"/>
      <path class="cls-12" d="M617.47,628.62c.13-.36.9-.24,2.59.23,2.81.79,4.06.15,6.09.74,3.46,1.01,5.12,3.09,6.59,3.64,1.46.55,4.08.07,7.36,1.58,1.92.88,6.54,3.4,9.18,4.64,1.58.75,3.73.85,4.05,1.06.44.3-2.36,4.35-20.78-2.53-18.41-6.88-15.26-8.88-15.08-9.36Z"/>
      <path d="M667.83,586.92c.04-.18.68,0,.73-.17,10.67.93,18.31,3.17,20.92,4.55,1.98,1.05,3.78,2.49,5.37,4.19,0,0,4.43,4.6,4.71,5.95.29,1.36-3.07-1.62-3.07-1.62-.76-.51-1.24-.99-2.05-1.4-4.48-2.24-8.56-5.02-13.48-5.94-4.21-.81-10.42-.29-14.78-.07.47-1.92,1.35-3.55,1.66-5.49Z"/>
      <path d="M645.97,579.84c-8.17-5.95-15.01-8.98-17.74-9.55-2.07-.43-4.26-.44-6.46-.12,0,0-.3.04-.76.11-.15.11-.32.2-.46.32-.1.34-.19.68-.28,1.02-.08.35-.16.7-.22,1.05.06.01.11.01.17.03,4.59,1.07,9.25,1.47,13.33,3.84,3.5,2,7.58,6.28,10.55,9.17.87-1.77,1.28-3.57,2.28-5.26.08-.16-.49-.42-.41-.59Z"/>
      <path class="cls-38" d="M697.81,695.71s51.16,8.39,62.5,57.69c11.34,49.3,4.47,93.01,4.47,93.01,0,0-45.13,9.67-79.21-7.62-21.02-10.66,11.9-139.99,11.9-139.99"/>
      <g>
        <path d="M639.37,540.53c14.16-20.97,33.79-23.58,57.43-17,20.4,5.68,40.29,10.96,53.1,30.89,2.1,3.32,9.11,13.81,10.39,21.36,4.44,26.19-9.4,45.66-21.49,60.93-.29-.29-.58-.58-.87-.87-1.84-1.4-3.9-2.24-6.19-2.52-1.57-.38-3.29-.24-4.88-.15-1.59.09-3.26.64-4.69,1.17-3.13,1.15-5.4,3.31-7.58,5.74-.09.11-.13.23-.21.34-2.18-.08-1.36-1.86-2.68-3.81-1.22-1.81.97-3.87,1.37-5.93.81-4.21,2.99-7.94,4.64-11.86,1.23-2.02,2.5-4.02,3.86-5.95,5.68-8.14,4.12-14.76,5.16-23.38,0,0,.57-13.02-9.95-25.04-11.52-13.13-21.24-5.65-39.11-12.96-15.42-6.37-13.65-16.79-27.18-14.49,0,0-3.99-.34-5.98.76-1.99,1.1-5.15,2.77-5.15,2.77Z"/>
        <path d="M639.66,540.51c3.96-5.84,8.91-11.09,15.04-14.67,5.54-3.23,11.81-4.92,18.2-5.28,7.02-.4,14.07.67,20.87,2.37,3.58.9,7.14,1.93,10.68,2.96s6.92,2.06,10.33,3.25c6.73,2.36,13.31,5.27,19.21,9.31,6.24,4.27,11.56,9.75,15.64,16.12,3.32,5.19,6.65,10.46,8.88,16.23,1.37,3.54,1.92,7.24,2.18,11.01.28,4.08.13,8.19-.46,12.24-1.09,7.41-3.64,14.52-7.1,21.14-3.28,6.27-7.33,12.1-11.63,17.71-.98,1.28-1.98,2.55-2.98,3.82l.58-.13c-.75-.75-1.5-1.37-2.43-1.88-.75-.42-1.54-.76-2.37-1.02-1.81-.57-3.76-.82-5.66-.75-3.68.13-7.33,1.13-10.32,3.34-.78.58-1.52,1.23-2.22,1.91s-1.52,1.42-2.04,2.27l.51-.19c-.69-.04-1.19-.27-1.47-.92-.23-.55-.32-1.16-.53-1.72-.27-.71-.84-1.31-.92-2.08s.26-1.51.58-2.18c.34-.71.73-1.4.98-2.15.29-.86.41-1.78.67-2.65.57-1.89,1.36-3.71,2.19-5.5.82-1.77,1.54-3.63,2.56-5.29,1.13-1.84,2.36-3.6,3.56-5.4,1.95-2.91,3.23-6.15,3.81-9.61.53-3.18.53-6.41.72-9.62.09-1.6.37-3.19.32-4.79-.16-4.45-1.3-8.91-3.03-12.99-1.37-3.23-3.16-6.27-5.3-9.04-1.97-2.55-4.23-4.93-6.91-6.74-4.05-2.74-8.73-3.63-13.51-4.09-2.62-.25-5.25-.44-7.86-.8-3.15-.44-6.26-1.13-9.28-2.13-3.37-1.12-6.62-2.58-9.56-4.59-2.17-1.48-4.1-3.23-5.94-5.09-1.45-1.47-2.87-3.01-4.56-4.22s-3.5-1.86-5.5-2.06c-1.24-.12-2.49-.06-3.73.08-.45.05-.9.17-1.35.17s-.85-.04-1.28-.04c-1.27,0-2.58.09-3.8.45-1.35.4-2.58,1.26-3.81,1.91-.81.43-1.62.86-2.43,1.29-.37.19.2.21.37.12.84-.44,1.68-.89,2.51-1.33,1.31-.7,2.62-1.63,4.1-1.92,1.21-.24,2.47-.27,3.7-.21,1.01.05,2.01-.21,3.02-.27,2.26-.13,4.52.2,6.51,1.32,1.72.96,3.13,2.36,4.5,3.75,1.7,1.72,3.4,3.45,5.3,4.95,2.53,1.99,5.34,3.58,8.32,4.8,5.66,2.31,11.58,3.32,17.64,3.86,4.8.43,9.69.78,14.04,3.06,2.46,1.3,4.62,3.09,6.52,5.11,2.57,2.75,4.75,5.89,6.46,9.24,2.28,4.47,3.77,9.41,4.17,14.42.07.94.11,1.85,0,2.79-.36,3.32-.34,6.66-.63,9.98s-1.01,6.53-2.5,9.51c-1.77,3.55-4.61,6.51-6.22,10.15-1.57,3.55-3.42,6.99-4.22,10.82-.32,1.53-1.39,2.77-1.7,4.29-.14.69-.01,1.27.35,1.87s.61,1.27.8,1.96c.31,1.11.71,1.75,1.94,1.83.17.01.42-.04.51-.19.57-.93,1.49-1.73,2.28-2.48s1.55-1.38,2.41-1.96c1.86-1.26,4.12-2.12,6.34-2.5,2.31-.39,4.72-.27,7,.23,1.04.23,2.06.59,3.01,1.08,1.07.55,1.94,1.23,2.79,2.08.12.11.49-.02.58-.13,4.34-5.48,8.54-11.08,12.12-17.08,3.85-6.45,6.96-13.38,8.69-20.71.9-3.82,1.42-7.72,1.53-11.65.12-4.13-.11-8.43-1-12.47-.77-3.48-2.31-6.78-3.95-9.93-1.5-2.88-3.18-5.67-4.91-8.41-1.71-2.7-3.47-5.35-5.51-7.81-2.43-2.93-5.16-5.6-8.14-7.96-5.63-4.47-12.07-7.78-18.75-10.38-6.89-2.68-14.02-4.66-21.14-6.64-6.94-1.93-14.03-3.4-21.26-3.48-6.35-.07-12.74.98-18.57,3.56-6.17,2.73-11.45,7.06-15.72,12.24-1.21,1.46-2.33,2.99-3.4,4.56-.13.19.48.11.57-.03Z"/>
      </g>
      <g>
        <path class="cls-10" d="M633.77,625.25c1.26,1.5,3.78,2.31,5.8,1.98.45-.07,1.55.63.92.74-2.67.44-6.23-.88-7.85-2.82-.16-.19-.06-.34.23-.32.3.02.72.21.89.42"/>
        <path class="cls-10" d="M641.38,627.79c1.29-.07,2.6.16,3.85.57.18.06.38.22.46.39.06.13.04.26-.13.28-.69.09-1.45-.07-2.1-.35-.2-.09-.45-.25-.5-.48-.04-.21.2-.23.36-.16.53.23,1.13.35,1.69.28.11.23.22.45.34.68-1.11-.36-2.29-.56-3.44-.5-.23.01-.48-.16-.61-.33-.1-.13-.16-.36.07-.38"/>
        <path class="cls-10" d="M646.1,629.91c1.42.55,3.33.62,4.46-.16,1.71-1.17,1.83-4.28.5-6.03-.15-.19.02-.29.23-.25.28.05.54.27.69.47,1.17,1.53,1.24,4.19.4,5.6-.79,1.32-2.55,1.75-4.4,1.46-.55-.09-1.12-.22-1.65-.43-.22-.08-.57-.31-.61-.52-.04-.21.19-.21.39-.13"/>
        <path class="cls-10" d="M631.48,623.46c.14-.13.05-.3-.07-.34-.38-.15-.73-.41-.95-.81-.19.1-.37.2-.56.3.73.4,1.39.96,1.88,1.7.1.15.32.17.48.12.12-.04.29-.18.19-.33"/>
        <path class="cls-10" d="M632.46,624.11c-.55-.83-1.3-1.45-2.11-1.89-.12-.06-.31-.06-.45.01-.11.06-.17.18-.11.29"/>
        <path class="cls-10" d="M628.48,622.44c-.9-.41-1.73-1.47-1.74-2.72-.02-1.89,1.4-3.54,2.96-4.09.17-.06.16-.23.05-.33-.14-.12-.38-.11-.55-.05-1.36.48-2.61,1.67-3.08,3.24-.44,1.47.03,2.81.96,3.67.28.26.59.48.93.64.14.06.41.1.55-.04.14-.14.04-.27-.09-.33"/>
      </g>
      <path class="cls-38" d="M733.07,820c1.32,23.7-7.47,14.92-7.51,18.05-.05,3.81-13.33,99.94-16.72,167.24-6.9,5.42-18.48,4.8-31.61,5.21-19.08.6-37.78-1.22-56.57-4.23-16.95-2.71-30.84-9.1-47.56-12.88-19.13-4.33-42.25-7.15-59.95-17.78,10.22-39.14,21.18-120.89,24.46-139.4,3.54-20.4,2-12.02,2-12.02,0,0-47.65-16.8-54.73-62.91,39.74-35.45,48.88-58.18,90.17-76.98,9.21-4.2,34.12-5.14,42.84-4.25-2.61,3.21-3.64,16.39-3.38,18.99.74,7.48,1.67,9.17,7.1,13.44,4.8,3.77,19.83,6.66,26.05,6.21,19.46-1.39,36.44-18.18,44.75-28.97,15.89,7.06,25.38,22.06,37.45,29.25,45.1,26.86,21.96,93.74,21.96,93.74-9.1,3.93-18.75,7.29-18.75,7.29Z"/>
      <g>
        <path class="cls-38" d="M541.98,751.04c-2.63,11.48-4.68,43.25-4.68,43.25,0,0,.93,17.65-3.75,32.84"/>
        <path class="cls-11" d="M541.26,751.14c-1.1,4.87-1.66,9.87-2.22,14.82-.64,5.74-1.17,11.49-1.63,17.25-.29,3.53-.55,7.05-.79,10.58-.17,2.53.06,5.1,0,7.63-.23,8.69-1.24,17.47-3.78,25.8-.14.47,1.3.27,1.45-.2,2.31-7.6,3.34-15.55,3.69-23.46.11-2.47.16-4.95.12-7.43,0-.59-.03-1.18-.05-1.77,0-.36-.01-.08,0-.34.11-3.04.43-6.08.67-9.11.45-5.64.94-11.28,1.54-16.91.61-5.7,1.19-11.47,2.46-17.07.11-.5-1.34-.27-1.45.2h0Z"/>
      </g>
      <path class="cls-28" d="M576.25,810.11c-.05.11-.12.21-.2.29-.19-.22-.38-.44-.57-.66.26.12.51.24.77.37Z"/>
      <path class="cls-28" d="M585.35,858.04c.02.11.06.21.11.31.22-.15.45-.31.67-.46-.26.05-.52.1-.78.15Z"/>
      <path class="cls-22" d="M737.8,921.65c12.2-28.43,19.25-74.66,19.41-102.69l-29.1-64.11c-35.89-4.82-26.29,42.99-26.29,42.99,1.37,11.94-9,81-12.09,102.6,18.17,1.6,33.6,10.1,48.08,21.21Z"/>
      <path class="cls-38" d="M692.41,689.71s71.89,25.43,74.37,74.23c2.55,50.1,1.33,82.3,1.33,82.3,0,0-45.87,7.09-74.97-9.24-20.38-11.44-16.8-87.69-16.8-87.69"/>
      <g>
        <path class="cls-38" d="M696.16,838.63l-9.45-3.93s3.48-51.87,10.97-73.59c7.49-21.71,30.44-24.2,30.44-24.2"/>
        <path class="cls-11" d="M696.75,838.33c-3.01-1.25-6-2.71-9.07-3.77-.08-.03-.32-.09-.38-.16.05.07.15.16.13.03-.03-.18.03-.41.04-.59.06-.89.13-1.77.2-2.66.65-8.48,1.47-16.95,2.44-25.4,1.28-11.07,2.77-22.15,5.13-33.05,1.03-4.74,2.14-9.58,4.04-14.06,2.22-5.26,5.74-9.91,10.21-13.46,5.21-4.13,11.59-6.91,18.16-7.95.11-.02.22-.03.33-.04.63-.07,1.26-.74.24-.63-4.62.51-9.29,2.24-13.38,4.35-8.66,4.46-15.12,11.84-18.18,21.12-2.93,8.91-4.46,18.32-5.84,27.58-1.47,9.77-2.59,19.6-3.53,29.44-.5,5.26-.97,10.54-1.33,15.81.03.06.07.1.14.11,3.15,1.31,6.3,2.62,9.45,3.93.35.15,1.67-.4,1.18-.61h0Z"/>
      </g>
      <path class="cls-22" d="M749.83,881.4s-3.6,47.87-16.57,62.53c-8.47,9.57-21.69,9.16-30.26,8.7-23.76-1.27-23.55-31.44-23.55-31.44l20.39-37.74,49.99-2.06Z"/>
      <polygon class="cls-27" points="612.17 949.72 511.07 942.61 520.79 803.13 621.99 811.74 612.17 949.72"/>
      <polygon class="cls-36" points="609.49 952.24 508.38 945.13 518.11 805.65 619.31 814.26 609.49 952.24"/>
      <polygon class="cls-27" points="586.39 960.87 485.29 953.76 495.02 814.27 596.21 822.89 586.39 960.87"/>
      <polygon class="cls-26" points="583.88 964.71 482.77 957.61 492.5 818.12 593.7 826.74 583.88 964.71"/>
      <path class="cls-2" d="M522.43,849.44c2.17,3.07,6.01,4.11,9.53,3.05,1.14-.34,2.19-.79,3.41-.6.94.15,1.84.55,2.7.93,1.59.71,3.17,1.55,4.94,1.69,1.95.15,3.42-.73,5.06-1.64,1.73-.97,3.26-.75,5.07-.09,3.16,1.15,6.13,2.88,9.52,1.55.44-.17.78-.71.51-1.15-.31-.48-1.06-.34-1.48-.18-1.42.56-3.01-.02-4.35-.53-1.45-.56-2.85-1.24-4.36-1.63-1.39-.36-2.83-.46-4.22-.04-1.69.51-3.15,2.15-4.98,2.09-1.62-.05-3.17-.99-4.62-1.64s-2.92-1.14-4.5-1.05c-1.96.11-3.69,1.29-5.69,1.05-1.86-.22-3.47-1.27-4.54-2.78-.58-.83-2.65.03-1.99.97h0Z"/>
      <path class="cls-22" d="M497.48,930.58c6.74,2.56,15.86,5.85,17.1,5.41s9.88-2.22,17.45-3.75c3.88-.62,6.78-3.95,6.47-7.45-.08-.91-18.45-2.24-16.69-9.92l15.96-1.9c5.19.06,10.3.73,15.18,1.99,5.93,1.91,20.15,12.59,20.15,12.59l20.3-2.84,8.84,33.1-29.14-.87-19.09,7.39s-36.92,6.43-41.57,4.31c-4.66-2.11-10.36-11.21-10.36-11.21-6.68-1.78-7.93-10.58-7.93-10.58-9.61-6.34-2.03-9.04-2.03-9.04-.39-.14-.72-.38-.94-.69-2.52-3.38,2.31-8.09,6.31-6.53Z"/>
      <path class="cls-37" d="M524.77,945.84l-7.73,1.77c-2.33.53-4.73-.19-7.04-.59-1.68-.29-3.06-1.13-4.48-2.01s-2.86-1.8-4.27-2.73c-2.79-1.85-5.56-3.73-8.42-5.48-.64-.39-2.63.53-1.72,1.09,3.08,1.88,6.05,3.93,9.06,5.91,2.78,1.83,5.58,3.95,8.92,4.53,2.31.4,4.84,1.14,7.18.7,2.95-.56,5.88-1.35,8.81-2.02,1.33-.3,1.01-1.46-.31-1.16h0Z"/>
      <path class="cls-37" d="M524.82,952.85c-5.56,1.47-11.37,2.09-17.01.71-4.61-1.13-8.73-3.55-12.5-6.37-.57-.43-2.55.43-2.03.82,4.07,3.04,8.5,5.57,13.49,6.72,6.06,1.4,12.36.66,18.31-.91,1.29-.34,1.04-1.32-.26-.97h0Z"/>
      <path class="cls-37" d="M525.2,962.03c-2.06.13-4.12.29-6.18.5-1.05.11-2.1.22-3.15.35-1.07.13-2.05.31-3.07-.15-1.49-.68-2.91-1.65-4.36-2.41-1.47-.77-2.93-1.58-4.23-2.63-.5-.41-2.46.43-2.04.78,1.42,1.16,3.05,2.01,4.67,2.86,1.49.78,2.95,1.89,4.53,2.46,1.8.65,3.94.05,5.78-.15,2.37-.26,4.76-.45,7.14-.6.4-.03,1.23-.15,1.45-.54s-.18-.47-.54-.45h0Z"/>
      <path class="cls-22" d="M714.07,914.54c-5.91-7.06-16.28-9.22-24.35-14.11l-117.2,29.3,7.15,25.97s99.41,11.04,141.14-4c1.8-.65,3.17-8.42,5.41-10.07-4.64-9.42-5.45-19.08-12.15-27.09Z"/>
      <path class="cls-37" d="M689.34,901.19c3.2.35,6.35,1.04,9.08,2.83,2.77,1.81,5.02,4.33,7.33,6.67.65.66,2.72-.2,2-.93-2.44-2.47-4.84-5.16-7.79-7.04s-6.39-2.64-9.84-3.02c-.49-.05-1.19.17-1.42.65s.2.8.65.85h0Z"/>
      <g>
        <path class="cls-38" d="M689.94,683.62s-22.32,29.94-55.33,23.4c-33.01-6.54-16.96-29.63-16.96-29.63l-10.67,3.04s-11.22,20.79,9.5,33.28c20.72,12.49,43.95,6.42,61.56-5.45,17.61-11.86,20.3-19.04,20.3-19.04l-8.39-5.6Z"/>
        <path class="cls-11" d="M689.28,683.62c-2.43,3.25-5.42,6.15-8.45,8.81-6.71,5.88-14.53,10.67-23.12,13.19-10.72,3.14-23.04,2.58-33.18-2.31-3.36-1.62-6.55-3.97-8.38-7.3-1.36-2.48-1.86-5.34-1.61-8.14.32-3.64,1.69-7.47,3.78-10.49.3-.43-.56-.37-.75-.31-3.18.91-6.37,1.81-9.55,2.72-.66.19-1.44.27-1.83.87-.4.62-.65,1.41-.92,2.09-2.84,7.31-2.96,15.79,1.33,22.58,3.54,5.61,9.43,9.3,15.42,11.84,6.64,2.83,13.88,4.07,21.09,3.77,14.47-.6,27.81-6.91,39.37-15.28,4.54-3.29,8.97-6.87,12.71-11.06.98-1.09,1.91-2.23,2.73-3.45.34-.51.89-1.18,1.04-1.79.02-.08.07-.16.1-.24.02-.07,0-.12-.05-.17-2.8-1.87-5.6-3.74-8.39-5.6-.39-.26-1.69.32-1.35.54,2.56,1.71,5.12,3.42,7.67,5.12.18.12.39.24.56.37s.12.12.11-.06c0,.07-.09.23-.13.29-.37.56-.66,1.18-1.05,1.74-2.05,2.99-4.68,5.58-7.38,7.97-5.08,4.51-10.69,8.57-16.59,11.95-12.01,6.88-26.16,10.77-39.97,8.1-11.41-2.21-24.56-8.99-27.29-21.29-1.28-5.77-.33-12.52,2.49-17.76l-.64.42c3.56-1.01,7.12-2.03,10.67-3.04l-.75-.31c-1.88,2.71-3.17,6.04-3.71,9.28-.46,2.76-.32,5.63.72,8.25,1.32,3.33,3.94,5.9,6.96,7.74,4.76,2.92,10.46,4.41,15.95,5.18s11.33.59,16.88-.56c9.42-1.95,18.13-6.54,25.6-12.51,2.7-2.15,5.24-4.5,7.62-7,1.13-1.19,2.65-2.52,3.46-3.97.04-.07.1-.13.14-.19.36-.48-1.08-.33-1.34.01Z"/>
      </g>
      <path class="cls-6" d="M426.35,154.91c-8.24-5.42-14.88-5.29-23.71-9.79-.76-.39-1.62-.79-2.41-.63-.65.14-1.09.63-1.48,1.1-9.29,11.15-19.04,21.88-25.61,34.67-2.8,5.44-5.36,11.09-6.18,17.23-.74,5.53-3.23,11.32-2.54,17.01.61,4.99,1.21,9.98,1.82,14.98.23,1.86.48,3.8,1.57,5.49,3.21,4.96,11.16,4.81,16.44,2.68,11.32-4.56,18.78-14.19,23.33-24.59,4.56-10.4,6.63-21.75,9.89-32.66,2.25-7.53,5.07-14.86,8.43-21.93"/>
      <path class="cls-22" d="M555.37,213.89s0-.07,0-.11c-1.65.61-9.63-13.23-10.91-14.8-13.46-16.55-18.68-27.65-39.07-33.89-10.65-3.26-24.58,2.25-35.54.28-10.51-1.89-17.13-12.76-27.05-16.86-3.44-1.42-9.19,9.17-7.03,7.31-3.96-2.71-6.91-5.42-6.91-5.42-14.68,3.14-22.43,53.26-25.08,59.35-2.65,6.09-8.48,14.93-8.48,14.93-.58-3.03-1.61-5.55-1.37-8.55.09-2.69-.44-6.1-.35-8.79-.51-6.52-8.78-9.73-14.06-8.48l-3.2,1.84c-8.71,4.44-11.3,29.42-10.75,37.85-5.55,13.82,2.53,26.61,13.84,20.3l-.77,6.09,6.08,35.32c6.49,20.27,26,47.43,47.36,56.98,7.66,3.42,17.75,8.87,27.67,2.16,10.02-6.79,14.38-10.87,24.55-16.74,9.76-5.63,14.8-9.63,22.12-18.18,7.57-8.84,8.86-11.52,12.77-22.16,1.75-4.75,4.79-11.75,7.27-15.92,2.85-4.82,14.85-23.43,21-34.79,6.16-11.36,7.89-37.72,7.89-37.72Z"/>
      <path class="cls-37" d="M529.61,233.81s-15.67-4.58-27.96-9.28c-12.3-4.7-22.21-14.2-22.21-14.2,0,0,12.87,9.15,22.58,12.91,9.71,3.76,27.6,10.57,27.6,10.57Z"/>
      <path class="cls-27" d="M436.41,302.21s10.36,8.54,19.35,13.28c8.99,4.74,24.15,9.2,24.15,9.2,0,0,.82-3.93-15.49-12.52-16.31-8.59-28.01-9.95-28.01-9.95Z"/>
      <path class="cls-6" d="M483.9,227.78c-11.85-9.24-21.07-13.89-25.07-15.2-3.13-1.02-6.43-1.51-9.74-1.58,0,0-10.29,2.24-11.88,3.15-1.58.91,4.84,1.58,4.84,1.58,1.3.3,2.27.34,3.53.78,6.95,2.42,13.97,3.97,20.17,7.98,5.32,3.41,11.54,9.94,16.05,14.38,1.29-2.14,3.07-6.97,4.55-8.97"/>
      <path class="cls-6" d="M543.32,260.13c0-.23.48-1.62.45-1.85,0,0-.06-.25-.06-.26-1.14-1.15-2.32-2.97-4.17-4.26-3.24-2.25-11.32-8.23-24.7-12.26-1.06,2.19-3.45,6.17-4.53,8.35,5.78,1.01,9.59,2.23,15.08,4.36,5.16,2,12.29,5.19,17.02,8.21.36-.4-.05-.03.27-.46.17-.31.33-.62.47-.95.07-.29.13-.59.17-.89Z"/>
      <path class="cls-33" d="M462.31,312.52c-9.65-4.37-27.46-11.52-27.46-11.52,0,0-4.9,23.18,17.47,33.31,22.36,10.14,33.79-11.76,33.79-11.76,0,0-14.16-5.66-23.8-10.04Z"/>
      <path class="cls-24" d="M462.4,312.56c-4.59-2.08-24-11.01-24-11.01,0,0,.99,16.44,17.58,23.96,17.98,8.15,27.44-3.9,27.44-3.9l-21.01-9.05Z"/>
      <path class="cls-17" d="M462.29,313.35c-4.59-2.08-18.19-9.19-18.19-9.19,0,0,2.72,7.35,16.48,13.58,13.76,6.24,20.36,3.29,20.36,3.29l-18.65-7.69Z"/>
      <path class="cls-33" d="M486.97,322.29c-.43-.34-1.71-.5-3.71-1.84-3.61-2.41-4.76-4.61-7.41-6.07-4.53-2.49-8.36-1.97-10.4-2.9-2.04-.93-4.18-4.15-9.04-5.91-2.85-1.03-9.57-1.69-13.51-3.09-2.37-.83-7.92-2.56-8.47-2.66-.75-.14,1.03,3.68,26.69,15.31,25.66,11.63,26.45,7.62,25.84,7.14Z"/>
      <path class="cls-22" d="M463.68,347.75c-.21-.13-.4-.3-.53-.5-2.55-3.81-2.27-5.25-3.83-6.38-.36-.26-.5-.49-1.67-1.18-4.68-2.77-7.49-4.55-24.36-1.61-.34.06-16.88-9.44-17.21-9.61l-7.24-8.03c-1.12-1.56-23.02-44.2-23.02-44.2-.11-1.17-3.4-10.5-3.26-11.51-.08-.1-.16-.2-.26-.29-.03-.03-.11-.11-.18-.18-.04.05-.09.12-.12.16-.22.36-.38.78-.53,1.18-.63,1.74-.99,3.57-1.16,5.42-.26,2.84-.88,5.6-1.24,8.41-.13.99-.21,1.99-.25,2.99,2.85,4.01,5.85,41.99,25.54,57.95.81.62,3.33,2.61,10.68,6.43,13.8,7.16,23.88,16.52,39.67,18.28,4.12.46,8.17-.94,11.07-3.75,8.27-8.01,37.11-40.67,45.46-54.3-7.41,6.83-29.72,27.62-40.52,37.59-.33.3-6.1,3.42-6.61,3.37"/>
      <path class="cls-19" d="M462.49,312.84c-11.21-4.66-28.81-13.58-28.81-13.58,0,0-7.74,27.73,18.26,38.53,25.99,10.79,35.08-14.81,35.08-14.81,0,0-13.31-5.48-24.52-10.14Z"/>
      <path class="cls-24" d="M462.6,312.88c-5.33-2.21-23.33-10.66-23.33-10.66,0,0-2.6,16.98,16.68,24.98,20.9,8.68,28.96-5.04,28.96-5.04l-22.31-9.28Z"/>
      <path class="cls-17" d="M462.48,313.82c-5.33-2.21-21.16-9.89-21.16-9.89,0,0,3.31,8.53,19.3,15.17,15.99,6.64,23.53,2.82,23.53,2.82l-21.66-8.1Z"/>
      <path class="cls-19" d="M490.76,322.54c-.51-.38-.49-.7-3.04-2.04-4.25-2.23-6.5-4.59-9.59-6.17-5.28-2.7-9.67-1.89-12.05-2.88-2.37-.99-4.9-4.68-10.55-6.5-3.3-1.07-11.72-3.14-16.3-4.58-2.75-.86-5.4-3.23-6.03-3.32-.87-.12-1.85,6.55,27.98,18.94,29.83,12.38,30.28,7.08,29.58,6.55Z"/>
      <path class="cls-6" d="M465.54,301.95l-2.64,4.62c-.41.71-1.21,1.08-2.01.92-5.49-1.08-29.38-11.1-30.4-6.21-.14.68-2.07,4.48-2.17,4.42l-.68-1.86c-.42-3.69,2.42-8.16,4.33-8.24,5.82-.24,10.89-.07,13.96.25,3.84.39,14.34,1.81,18.61,3.34,1.12.4,1.6,1.73,1,2.77Z"/>
      <path class="cls-6" d="M471.47,304.37l-1.71,5.04c-.26.78-.11,1.59.39,2.03,3.41,3.06,21.41,12.04,18.73,16.14-.37.57-1,3.34-.91,3.37l1.29-.21c1.44.48,3.82-6.13,2.93-7.51-2.71-4.2-5.33-7.6-7.05-9.51-2.15-2.39-8.26-8.69-11.36-10.59-.82-.5-1.92.09-2.3,1.23Z"/>
      <path class="cls-22" d="M404.29,147.1s18.91-22.18,52.84-18.15c25.61,3.04,69.57,23.73,83.25,39.3,19.82,22.55,14.43,50.82,14.43,50.82l-150.52-71.96Z"/>
      <path class="cls-35" d="M439.34,360.52s-35.27-16.03-41.54-25.23c-6.27-9.21-11.8-22.9-13.91-40.81,0,0-2.22,37.35,15.86,48.98,23.84,15.34,37.33,19.79,37.33,19.79l2.26-2.74Z"/>
      <path class="cls-7" d="M517.92,265.78c2.22-.14,4.22,1.65,4.95,3.22.17.37.37,1.35.2,2.7-.22,1.72-1.58,3.18-3,3.81-1.89.84-4.12.15-5.42-1.33-1.76-2-1.31-4.98.09-6.68.26-.31,1.39-1.6,3.18-1.71"/>
      <path class="cls-7" d="M500.6,265.72s11.87-3.07,16.57-1.54c6.87,2.23,13.38,9.44,14.28,13.73,0,0-8.34-10.16-13.22-11.6-4.67-1.37-17.62-.59-17.62-.59Z"/>
      <path class="cls-7" d="M464.23,242.27c-1.4-1.73-4.43-2.75-6.07-2.22-.39.12-1.45.5-2.32,1.54-1.12,1.33-1.26,3.32-.77,4.78.66,1.96,2.68,3.13,4.65,3.09,2.67-.06,4.56-2.41,4.86-4.59.05-.4.71-.93-.42-2.33"/>
      <path class="cls-7" d="M473.53,253.23s-7.18-10.71-12.02-13c-7.06-3.35-17.43-2.9-21.24-.5,0,0,13.96-1.23,18.87,1.26,4.69,2.38,14.4,12.24,14.4,12.24Z"/>
      <g>
        <path class="cls-10" d="M477.66,298.65c-2.95.23-6.52-1.63-8.32-4.16-.4-.56-2.34-1-1.78-.21,2.38,3.35,7.59,5.78,11.41,5.48.38-.03.42-.29.09-.58-.35-.31-1-.55-1.4-.52"/>
        <path class="cls-10" d="M466.81,293.14c-1.3-1.45-2.95-2.63-4.71-3.54-.26-.13-.65-.18-.91-.09-.21.07-.32.24-.17.44.63.84,1.62,1.49,2.61,1.89.31.13.75.22,1.04.03.26-.18.03-.46-.21-.56-.82-.33-1.58-.84-2.1-1.53-.36.12-.72.23-1.09.35,1.57.81,3.04,1.88,4.2,3.18.23.26.68.35,1.01.3.24-.03.56-.21.33-.47"/>
        <path class="cls-10" d="M459.49,290.3c-2.11-.96-4.22-2.94-4.59-4.98-.56-3.08,2.53-6.26,5.84-6.67.36-.04.3-.33.03-.51-.35-.24-.86-.29-1.24-.25-2.88.36-5.71,2.85-6.32,5.25-.57,2.25.84,4.58,3.13,6.28.68.5,1.44.97,2.22,1.33.32.14.94.29,1.2.11.27-.19.02-.42-.28-.56"/>
        <path class="cls-10" d="M482.02,299.23c-.01-.29.27-.36.44-.29.57.26,1.22.35,1.88.16.09.31.18.62.27.93-1.2-.36-2.52-.48-3.84-.23-.26.05-.52-.16-.64-.4-.09-.17-.12-.5.14-.55"/>
        <path class="cls-10" d="M480.27,298.85c1.48-.28,2.94-.13,4.29.28.2.06.4.26.46.5.05.18,0,.37-.19.43"/>
        <path class="cls-10" d="M486.31,301.4c1.41.53,3.43.3,4.78-1,2.05-1.97,2.3-5.23,1.23-7.5-.12-.25.07-.42.29-.4.28.02.52.29.64.55.94,1.98.99,4.57-.19,6.73-1.11,2.02-3.06,2.93-4.97,2.84-.57-.03-1.15-.13-1.67-.33-.21-.08-.55-.34-.55-.63,0-.3.24-.33.44-.25"/>
      </g>
      <path class="cls-8" d="M436.07,229.39l-.68,7.2c-.94,5.41-1.52,16.68-1.01,20.05.73,4.72,25.99,17.55,32.38,16.83,6.39-.72,15.77-14.27,18.64-17.1l10.1,5.15c-1.04,4.84-4.01,20.32-2.88,23.08,1.13,2.76,13.16,7.67,14.51,8.22,1.13.45,2.71,1.07,4.47,1.68,4.63,1.66,10.41,3.3,12.82,2.38,3.58-1.36,10.46-9.57,16.73-17.44l1-1.22c.23-.3.44-.49.49-.58h0l1.13-1.42c-11.77-13.69-31.85-21.15-47.59-17.66l.02.2-9.83-5.07c-8.05-12.61-25.96-25.44-42.48-26.19h0l-47.03-12.03-1.85,3.82,41.05,10.11ZM494.48,283.7c-.7-1.72,1.08-12.7,2.72-21.13,13.59-2.82,31.68,3.93,42.53,15.41l-.09.19c-3.37,4.22-12.32,15.44-15.84,16.78-4.16,1.58-28-8.44-29.34-11.21l.02-.04ZM437.92,256.94c-.35-8.71.08-17.44,1.29-26.07,15.08-.17,35.52,12.67,43.49,24.78-4.52,5.4-11.55,15.23-16.13,15.73-6.59.75-28.22-11.46-28.66-14.44h0Z"/>
      <path class="cls-37" d="M389.1,232.85c.14-5.65.05-11.37-.92-16.95-.48-2.78-1.17-5.61-2.5-8.12-.49-.92-1.14-2.04-2.05-2.62-.99-.63-2.25.52-3,1.11-3.89,3.06-6.05,7.75-7.13,12.48-.16.71,1.32.54,1.47-.11.85-3.75,2.4-7.42,5.06-10.26.89-.95,1.97-1.95,3.18-2.49l-.74.06c-.32-.16.41.35.41.36.57.56,1.01,1.26,1.39,1.95,1.88,3.44,2.51,7.6,2.94,11.44.48,4.4.53,8.83.42,13.25-.02.76,1.45.56,1.47-.11h0Z"/>
      <path class="cls-37" d="M384.86,232.86c-5.74-3.21-7,6.75-8.68,9.94-.18.35-.4.77-.75,1-.27.17-.06.08-.09.06-.19-.16-.24-.59-.27-.82-.29-1.94.27-4.13.71-6,.74-3.22,1.64-6.31,3.36-9.13s4.76-7.2,8.63-6.98c.71.04,1.48-1.01.5-1.07-3.74-.22-6.7,2.54-8.8,5.33-1.82,2.41-3.1,4.87-4,7.74-.81,2.59-1.53,5.25-1.82,7.95-.11,1.06-.43,3.13.63,3.87.91.63,2.13-.13,2.72-.86.82-1.03,1.23-2.4,1.65-3.62.66-1.94,1.97-8.3,5.1-6.56.56.31,1.82-.45,1.11-.84h0Z"/>
      <path class="cls-22" d="M141.7,657.71c-2.83-.36-12.78-2.47-15.57-3.05-2.06-.43-12.81-9.3-14.38-11.8-2.36-3.77-3.42-13.02-3.48-14.19-.86-17.09,15.78-15.64,23.51-30.84,5.34-10.5,12.67-20.66,22.18-27.86.89,2.15,1.37,3.31,1.37,3.31l221.8,13.16s0,43.41,0,43.41c-37.93,8.56-88,17.56-126.51,23.05-19.4,2.77-26.02,5.2-45.58,6.44-13.33.85-25.69.5-39.27-.05-4.21-.17-19.9-1.06-24.08-1.6Z"/>
      <path class="cls-22" d="M225.79,429.65c-11.34-4.3-22.66-8.65-34.12-12.61-11.66-4.03-23.5-7.73-35.59-10.22-19.09,52.43-42.21,133.74-42.21,133.74-1.91,7.51-8.49,27.4-12.65,43.84-2.36,9.34-3.47,32.45,2.1,44.44,5.59-6.71,11.16-22.63,18.32-27.41,14.45-9.64,31.51-16.2,48.92-17.41,4.97-.34,5.39,13.24,10.32,13.97,8.54-20.57,42.35-104.97,58.58-163.29-4.57-1.65-9.13-3.33-13.67-5.05Z"/>
      <path class="cls-22" d="M127.31,654.66s-17.81-1.92-26.66-33.79c-7.35-26.47,20.61-79.26,40.35-89.72,19.74-10.45,36.87,79.36,36.87,79.36l-50.56,44.15Z"/>
      <path class="cls-22" d="M434.44,631.86c.83-.11,6.55-.36,7.28-.76,2.69-1.44,4-3.09,4.46-5.6.14-1.04.76-5.38.55-6.4-.4-1.97,0-.67,1.75-1.67l2.24-1.29c.86-.5,1.59-1.23,2-2.14.83-1.89,1.38-3.89,1.61-5.94.23-3.51-4.84-8.66-4.84-8.66l2.57-1.01c2.74-1.69,3.45-3.01,3.38-6.22l-.09-1.52c-.32-1.49-.87-2.9-1.62-4.21-1.19-2.08-.69-4.69,1.15-6.22,1.54-1.29,2.98-2.86,3.09-4.35-.15-5.77-3.63-10.91-8.88-13.22-.34-.15-.7-.26-1.07-.33-9.82-2.09-19.77-3.52-29.78-4.28-.7-.05-11.61-3.64-12.23-3.89-4.72,2.93.27,7.79-5.44,8.17-5.28.35-10.56-.05-15.84,0-1.71.01-3.27.98-4.13,2.45,0,0-.01.02-.02.03-.24.42-.55.8-.9,1.13l-23.72,21.98c-1.4,1.3-9.97.77-9.87,2.68,1.08,20.84,7.68,39.94,7.06,40.02-.69.09,15.23-.7,20.57,1.83,0,0,34.18,2.99,60.71-.57Z"/>
      <path class="cls-22" d="M413.42,561.97c-.66-.95-5.32-6.38-5.39-7.62-.02-.34,0-.69.03-1.03,1.18-9.61.89-19.34-.83-28.86-2.44-10.2-8.43-12.44-12.33-12.82-1.65-.15-3.11,1.08-3.26,2.73-.02.17-.02.35,0,.52.7,6.71.98,13.46.84,20.21-.35,3.39-6.96,19.65-11.11,29.6,9.68-1.26,24.18,2.99,32.05-2.73Z"/>
      <path class="cls-16" d="M210.37,540.07l35.99-79.29,12.23-135.4s-51.94-5.78-81.77,32.68c-15.44,20.57-48.06,99.14-67.2,143.14,56.71,33.36,72.96,36.02,100.74,38.87Z"/>
      <path class="cls-14" d="M246.13,351.77c6.34,2.82,10.85,8.44,13.89,14.53,2.96,5.94,4.77,12.51,5.49,19.09,1.16,10.55-.95,21.43-3.25,31.69-3.07,13.69-7.24,27.13-11.81,40.39-4.98,14.44-10.52,28.7-16.47,42.76-5.38,12.72-11.1,25.31-17.36,37.62-.67,1.31-1.34,2.62-2.02,3.92l1.3-.43c-3.97-1.27-8.33-1.61-12.47-1.63-.48,0-1.56.72-.59.72,3.94.02,8.11.35,11.89,1.55.4.13,1.1-.03,1.3-.43,6.31-12.07,12.03-24.45,17.42-36.95,6.09-14.11,11.75-28.42,16.88-42.9,4.8-13.55,9.19-27.29,12.54-41.28,2.47-10.33,4.76-21.16,4.35-31.85-.25-6.49-1.71-13.02-4.13-19.04-2.47-6.14-6.17-12.14-11.64-16.04-1.3-.93-2.69-1.71-4.15-2.36-.37-.17-1.7.4-1.17.64h0Z"/>
      <path class="cls-37" d="M190.58,574.04c-16.3.9-31.97,8.78-42.4,21.35-3.02,3.64-5.55,7.65-7.54,11.93-.12.25,1.89.13,2.14-.41,6.45-13.91,18.85-24.83,33.41-29.61,4.19-1.38,8.57-2.2,12.97-2.44.47-.03,1.17-.09,1.54-.41.24-.21.39-.44-.11-.41h0Z"/>
      <path class="cls-37" d="M520.2,633.24c-3.73-.09-7.21,1.22-10.44,2.99-3.42,1.87-6.76,4.04-9.92,6.31-5.87,4.21-11.37,9.84-12.33,17.32-.11.86,2.08.47,2.17-.27.88-6.86,5.69-12.13,11.07-16.08,2.77-2.03,5.71-3.88,8.66-5.65,3.04-1.83,6.31-3.48,9.95-3.39.4.01,1.26-.15,1.43-.59s-.14-.63-.59-.65h0Z"/>
      <path class="cls-37" d="M471.27,773.31c4.15,6.96,3.88,16.08-.6,22.82-.6.9,1.6.79,2.04.12,4.71-7.08,4.91-16.54.56-23.83-.41-.7-2.52.03-2.01.89h0Z"/>
    </g>
  </g>
</svg>