<?xml version="1.0" encoding="utf-8"?>
<!-- Generator: Adobe Illustrator 25.0.1, SVG Export Plug-In . SVG Version: 6.00 Build 0)  -->
<svg version="1.1" id="Layer_1" xmlns="http://www.w3.org/2000/svg" xmlns:xlink="http://www.w3.org/1999/xlink" x="0px" y="0px"
	 viewBox="0 0 348 282.4" style="enable-background:new 0 0 348 282.4;" xml:space="preserve">
<style type="text/css">
	.st0{fill:#F7D878;}
	.st1{fill:none;stroke:#0A8AB2;stroke-width:5.63;stroke-linecap:round;stroke-miterlimit:10;}
	.st2{fill:#A1CBEC;}
	.st3{fill:#7F5120;}
	.st4{fill:#FFCA05;}
	.st5{fill:#00A0CC;}
	.st6{fill:#FFFFFF;}
	.st7{fill:none;stroke:#0D3F60;stroke-width:1.85;stroke-linecap:round;stroke-miterlimit:10;}
	.st8{fill:#0D3F60;}
	.st9{fill:none;stroke:#231F20;stroke-width:1.11;stroke-linecap:round;stroke-miterlimit:10;}
	.st10{fill:#5652A2;}
	.st11{fill:#4F4A47;}
	.st12{fill:none;stroke:#1689B0;stroke-width:4;stroke-linecap:round;stroke-miterlimit:10;}
	.st13{fill:#A0CAEB;}
	.st14{fill:#049FCB;}
	.st15{fill:#0B4060;}
	.st16{fill:#56C4CF;}
	.st17{fill:none;stroke:#0B4060;stroke-width:2.4;stroke-linecap:round;stroke-miterlimit:10;}
</style>
<polyline class="st0" points="348,280.5 348,-1.8 0,-1.8 0,280.5 "/>
<path class="st1" d="M234.6,139.8c0,0-19.2-5.3-26.7-14s-7.8-24.6-7.8-24.6"/>
<path class="st2" d="M205.9,102.3c-0.4,2.2-2,3.9-4.2,4.4c-2.7,0.8-5.6-0.8-6.5-3.5l-1.6-6.5c0,0,0-0.1,0-0.1v-0.1l-2.1-8.8
	c-0.1-0.8,0.4-1.5,1.2-1.6c0.7-0.1,1.4,0.3,1.6,1l1.2,4.8c0.3-0.3,0.6-0.5,1-0.7l-1.4-5.7c-0.1-0.8,0.5-1.5,1.2-1.6
	c0.7-0.1,1.3,0.3,1.5,0.9l1.4,5.7c0.4,0,0.8,0,1.1,0.1l-1.2-4.9c-0.1-0.8,0.5-1.5,1.3-1.6c0.7-0.1,1.3,0.3,1.5,0.9l2,8.2
	c0.1,0.3,0.2,0.5,0.3,0.8l0.1-1.7c0.1-0.7,0.8-1.3,1.5-1.3l0,0c0.7,0,1.3,0.5,1.3,1.2c0,0,0,0.1,0,0.1"/>
<path class="st3" d="M0,29.3c5.4-1.5,10.9-2.3,16.5-2.4l0,0h0.6h0.6l0,0C54.3,27.6,88.4,59,88.4,99c0,3.8-0.1,12.3-0.1,12.3v130.1H0
	V29.3z"/>
<polyline class="st4" points="0,282.5 348,282.5 348,241.5 0,241.5 "/>
<path class="st5" d="M279.4,208.6l-23.7,1.6c-17.5,1.2-32.7-12-33.9-29.5l-7.7-111.9c-1.2-17.5,12-32.7,29.5-33.9l23.7-1.6
	c17.5-1.2,32.7,12,33.9,29.5l7.7,111.9C310.1,192.2,296.9,207.4,279.4,208.6z"/>
<path class="st6" d="M266.4,77.9c-0.5-4.8-4.7-8.2-9.5-7.7c-4.5,0.5-7.9,4.4-7.8,8.9"/>
<path class="st6" d="M235.7,80c-0.3-4.8-4.5-8.4-9.2-8c-4.8,0.3-8.4,4.5-8,9.2l0,0"/>
<line class="st7" x1="260.2" y1="59.9" x2="247.3" y2="69.7"/>
<line class="st7" x1="223.6" y1="63.1" x2="236.4" y2="69.7"/>
<path class="st8" d="M258.7,78.4c-0.1-2.1-1.9-3.6-4-3.5c-2.1,0.1-3.6,1.9-3.5,4l0,0"/>
<path class="st8" d="M228.1,80.5c-0.1-2.1-1.9-3.6-4-3.5c-2.1,0.1-3.6,1.9-3.5,4"/>
<ellipse transform="matrix(0.9983 -5.808634e-02 5.808634e-02 0.9983 -3.9852 15.1459)" class="st9" cx="258.5" cy="76.1" rx="11.8" ry="8"/>
<ellipse transform="matrix(0.9983 -5.808675e-02 5.808675e-02 0.9983 -4.1512 13.2838)" class="st9" cx="226.4" cy="78" rx="11.8" ry="8"/>
<path class="st9" d="M246.8,77.6c0,0-5.1-5.8-8.9,0.6"/>
<polyline class="st5" points="286.7,201.6 280.6,249.5 274,249.4 269.2,201.5 "/>
<polygon class="st10" points="274.3,255.4 279.9,255.5 282.7,234.7 271.6,234.5 "/>
<path class="st11" d="M261.5,255.5c0.1-5.4,4.5-9.7,9.9-9.6c5.4,0.1,9.7,4.5,9.6,9.9l0,0"/>
<polyline class="st5" points="261.6,200.6 255.5,248.4 248.9,248.3 244.1,200.5 "/>
<polygon class="st10" points="249.8,254.6 255.4,254.7 258.2,233.8 247.1,233.7 "/>
<path class="st11" d="M236.2,254.9c0.1-5.4,4.5-9.7,9.9-9.6c5.4,0.1,9.7,4.5,9.6,9.9l0,0"/>
<path class="st8" d="M250.5,91.8c1-0.1,1.7-1,1.6-1.9c-0.1-0.7-0.5-1.2-1.1-1.5c-2.5-1-5.3-1.3-7.9-0.8c-2.5,0.2-4.9,1-7,2.5
	c-0.8,0.6-0.9,1.7-0.3,2.5c0.4,0.5,1,0.7,1.6,0.7L250.5,91.8z"/>
<path class="st1" d="M290.6,129c0,0,0.3,20-6.1,29.5S263,172.8,263,172.8"/>
<path class="st2" d="M262.4,167c2.2-0.2,4.3,0.9,5.4,2.8c1.5,2.4,0.8,5.6-1.6,7.2l-5.8,3.3l-0.1,0.1h-0.1l-7.8,4.5
	c-0.7,0.3-1.6,0-1.9-0.8c-0.3-0.6-0.1-1.3,0.5-1.7l4.3-2.4c-0.3-0.2-0.7-0.5-0.9-0.8l-5.1,2.9c-0.7,0.3-1.6,0-1.9-0.8
	c-0.3-0.6-0.1-1.3,0.5-1.7l5.1-2.9c-0.1-0.4-0.2-0.7-0.2-1.1l-4.4,2.5c-0.7,0.3-1.6,0-1.9-0.7c-0.3-0.6-0.1-1.4,0.5-1.8l7.3-4.2
	c0.2-0.2,0.4-0.4,0.7-0.5l-1.7,0.3c-0.8,0.1-1.5-0.4-1.6-1.1l0,0c-0.2-0.7,0.1-1.4,0.8-1.6c0,0,0.1,0,0.1,0"/>
<path class="st12" d="M143.6,170.3c0,0,12.4,9.9,36.8-3.4"/>
<path class="st13" d="M181.4,161.3c-1.1,1.8-1,4,0.2,5.7c1.6,2.6,4.6,3.8,6.6,2.7l5.1-2.6l0.1-0.1h0.1l7-3.6
	c0.5-0.4,0.7-1.1,0.3-1.7c0,0,0,0-0.1-0.1c-0.3-0.7-1.1-1-1.8-0.7l-3.8,2c-0.1-0.4-0.2-0.8-0.3-1.2l4.5-2.3c0.5-0.4,0.7-1.1,0.3-1.7
	c0,0,0,0,0-0.1c-0.3-0.6-1-1-1.7-0.8l-4.5,2.3c-0.3-0.3-0.5-0.5-0.8-0.8l3.9-2c0.5-0.4,0.7-1.1,0.3-1.7c0,0,0-0.1-0.1-0.1
	c-0.3-0.6-1.1-1-1.7-0.7l-6.5,3.4c-0.2,0.1-0.5,0.1-0.7,0.2l1-1.1c0.4-0.6,0.3-1.4-0.3-1.9l0,0c-0.4-0.5-1.1-0.6-1.7-0.2
	c0,0,0,0-0.1,0.1"/>
<path class="st14" d="M49,129c0,24.3,13.1,47.9,30,64.7c43.6,43.4,92.2-19.3,92.2-66.7c0-35-30-43.5-60.1-43.5S49,94,49,129z"/>
<path class="st15" d="M148.6,144.4c0,0-2.1-6.9-12.7-6.7s-11.4,6.7-11.4,6.7H148.6z"/>
<path class="st6" d="M163.4,131c0-5.8-4.7-10.6-10.6-10.6c-5.8,0-10.6,4.7-10.6,10.6"/>
<path class="st6" d="M131.1,131c0-5.8-4.7-10.6-10.6-10.6S110,125.2,110,131l0,0"/>
<polyline class="st14" points="111.5,205.2 107,249.9 102.8,249.9 98.1,199.7 "/>
<polyline class="st14" points="128.1,203.3 123.7,249.9 119.4,249.9 115.9,205.2 "/>
<polygon class="st16" points="119.4,255.5 123.4,255.5 125.6,231 117.8,231 "/>
<polygon class="st16" points="103.1,255.5 107.1,255.5 108.7,231 100.9,231 "/>
<path class="st11" d="M133.6,255.8c-0.1-3.9-3.5-7-7.4-6.9c-3.7,0.1-6.7,3.1-6.9,6.9"/>
<path class="st11" d="M116.9,255.8c0-3.9-3.2-7.1-7.1-7.1c-3.9,0-7.1,3.2-7.1,7.1"/>
<line class="st17" x1="163.6" y1="117.2" x2="148.4" y2="114.4"/>
<path class="st17" d="M109.5,117.3c0,0,11.2-3.5,13.9-3.1"/>
<path class="st15" d="M124.4,126.7c-2.4-1-3.8-3.6-3.2-6.2c3.6,0.2,6.9,2.2,8.7,5.3C128.4,127.1,126.2,127.4,124.4,126.7z"/>
<path class="st15" d="M156.7,126.7c-2.4-1-3.8-3.6-3.2-6.2c3.6,0.2,6.9,2.2,8.7,5.3C160.6,127.1,158.5,127.4,156.7,126.7z"/>
<path class="st12" d="M87.7,174.1c0,0,12.4,9.9,36.8-3.4"/>
<path class="st13" d="M125.5,165.2c-1.1,1.8-1,4,0.2,5.7c1.6,2.6,4.5,3.8,6.6,2.7l5.1-2.6l0.1-0.1h0.1l7-3.6
	c0.5-0.4,0.7-1.1,0.3-1.7c0,0,0,0-0.1-0.1c-0.3-0.6-1.1-0.9-1.7-0.7l-3.8,1.9c-0.1-0.4-0.2-0.8-0.3-1.2l4.5-2.3
	c0.5-0.4,0.7-1.1,0.3-1.7c0,0,0,0,0-0.1c-0.3-0.6-1.1-0.9-1.7-0.7l-4.5,2.3c-0.3-0.3-0.5-0.5-0.8-0.8l3.9-2c0.5-0.4,0.7-1.1,0.3-1.7
	c0,0,0,0,0-0.1c-0.3-0.6-1.1-0.9-1.7-0.7l-6.5,3.3c-0.2,0.1-0.5,0.1-0.7,0.2l1-1.1c0.4-0.6,0.3-1.4-0.3-1.9l0,0
	c-0.4-0.5-1.1-0.6-1.6-0.3c0,0-0.1,0.1-0.1,0.1"/>
</svg>
