<?xml version="1.0" encoding="utf-8"?>
<!-- Generator: Adobe Illustrator 25.0.1, SVG Export Plug-In . SVG Version: 6.00 Build 0)  -->
<svg version="1.1" id="Layer_1" xmlns="http://www.w3.org/2000/svg" xmlns:xlink="http://www.w3.org/1999/xlink" x="0px" y="0px"
	 viewBox="0 0 348 282.4" style="enable-background:new 0 0 348 282.4;" xml:space="preserve">
<style type="text/css">
	.st0{fill:#F7D878;}
	.st1{fill:#1B3663;}
	.st2{fill:#EDEBA9;}
	.st3{fill:#FFCA05;}
	.st4{fill:#102547;}
	.st5{fill:#7F5120;}
	.st6{fill:none;stroke:#1689B0;stroke-width:4;stroke-linecap:round;stroke-miterlimit:10;}
	.st7{fill:#BCDAED;}
	.st8{fill:#777677;}
	.st9{fill:#049FCB;}
	.st10{fill:#0B4060;}
	.st11{fill:#FFFFFF;}
	.st12{fill:#56C4CF;}
	.st13{fill:#4F4A47;}
	.st14{fill:none;stroke:#0B4060;stroke-width:2.15;stroke-linecap:round;stroke-miterlimit:10;}
	.st15{fill:none;stroke:#0A8AB2;stroke-width:5.63;stroke-linecap:round;stroke-miterlimit:10;}
	.st16{fill:#A1CBEC;}
	.st17{fill:#00A0CC;}
	.st18{fill:none;stroke:#0D3F60;stroke-width:1.85;stroke-linecap:round;stroke-miterlimit:10;}
	.st19{fill:#0D3F60;}
	.st20{fill:none;stroke:#231F20;stroke-width:1.11;stroke-linecap:round;stroke-miterlimit:10;}
	.st21{fill:#5652A2;}
</style>
<polyline class="st0" points="348,282.4 348,0 0,0 0,282.4 "/>
<path class="st1" d="M87.5,26.7L87.5,26.7h0.6h0.6l0,0c36.6,0.7,70.7,31.8,70.7,71.3c0,3.8-0.1,12.2-0.1,12.2V239H16.8V110.3
	c0,0-0.1-8.4-0.1-12.2C16.7,58.5,50.9,27.4,87.5,26.7z"/>
<polygon class="st2" points="56.2,61.6 54.6,66.5 49.4,66.5 53.6,69.6 52,74.5 56.2,71.5 60.4,74.5 58.8,69.6 63,66.5 57.8,66.5 "/>
<polygon class="st2" points="35.4,79.3 34.3,82.7 30.7,82.7 33.6,84.8 32.5,88.2 35.4,86.1 38.3,88.2 37.2,84.8 40,82.7 36.5,82.7 
	"/>
<polygon class="st2" points="80.8,43.5 80,46.1 77.3,46.1 79.5,47.6 78.7,50.2 80.8,48.6 83,50.2 82.2,47.6 84.4,46.1 81.7,46.1 "/>
<polygon class="st2" points="100.9,56.3 99.5,60.8 94.7,60.8 98.6,63.6 97.1,68.1 100.9,65.3 104.8,68.1 103.3,63.6 107.1,60.8 
	102.4,60.8 "/>
<polygon class="st2" points="28.6,166.2 27.8,168.8 25.1,168.8 27.2,170.4 26.4,172.9 28.6,171.4 30.8,172.9 29.9,170.4 32.1,168.8 
	29.4,168.8 "/>
<polyline class="st3" points="0,282.4 348,282.4 348,238.9 0,238.9 "/>
<rect x="16.8" y="227" class="st4" width="142.6" height="11.9"/>
<path class="st5" d="M163.6,242.1L163.6,242.1c-2.8,0-5.1-2.3-5.1-5.1V36.4c0-2.8,2.3-5.1,5.1-5.1h0c2.8,0,5.1,2.3,5.1,5.1V237
	C168.7,239.8,166.4,242.1,163.6,242.1z"/>
<path class="st6" d="M103.6,141.7c0,0,12,34.1,47.1,8.7"/>
<path class="st7" d="M144.9,148.1c-1.2,1-1.6,2.6-1.1,4.1c0.5,2.2,2.4,3.7,4.1,3.4l4.2-0.7h0.1l0,0l5.7-1c0.5-0.1,0.7-0.6,0.6-1.1
	c0,0,0,0,0-0.1c-0.1-0.5-0.5-0.9-1.1-0.9l-3.1,0.5c0.1-0.3,0.1-0.6,0.1-0.9l3.7-0.6c0.5-0.2,0.7-0.7,0.6-1.2c0,0,0,0,0,0
	c-0.1-0.5-0.5-0.9-1.1-0.9l-3.7,0.6c-0.1-0.3-0.3-0.5-0.4-0.7l3.2-0.6c0.5-0.2,0.7-0.7,0.6-1.1c0,0,0,0,0,0
	c-0.1-0.5-0.5-0.9-1.1-0.9l-5.3,0.9c-0.2,0-0.4,0-0.5,0l0.9-0.6c0.4-0.3,0.5-0.9,0.2-1.4l0,0c-0.2-0.5-0.7-0.7-1.1-0.5
	c0,0,0,0-0.1,0"/>
<circle class="st8" cx="152.1" cy="153.7" r="6.2"/>
<path class="st9" d="M25.3,124.7c0,21.8,11.7,43,26.9,58.1c39.1,38.9,82.7-17.3,82.7-59.9c0-31.4-26.9-39.1-53.9-39.1
	S25.3,93.2,25.3,124.7z"/>
<path class="st10" d="M106.6,139.3c0,0-1.9-6.2-11.4-6s-10.2,6-10.2,6H106.6z"/>
<path class="st11" d="M119.9,127.3c0-5.2-4.3-9.5-9.5-9.5s-9.5,4.3-9.5,9.5l0,0"/>
<path class="st11" d="M90.9,127.3c0-5.2-4.3-9.5-9.5-9.5s-9.5,4.3-9.5,9.5"/>
<path class="st10" d="M119.9,126.2c-2.5,0.7-5.2-0.8-5.9-3.3c-0.4-1.4-0.1-3,0.8-4.2C117.6,120.2,119.6,123.1,119.9,126.2z"/>
<polyline class="st9" points="81.3,193.1 77.3,233.1 73.5,233.1 69.3,188.1 "/>
<polyline class="st9" points="96.3,191.3 92.3,233.1 88.5,233.1 85.3,193.1 "/>
<polygon class="st12" points="88.5,239.3 92.1,239.3 94,217.3 87.1,217.3 "/>
<polygon class="st12" points="73.8,239.3 77.4,239.3 78.8,217.3 71.9,217.3 "/>
<path class="st13" d="M101.2,239.5c0.1-3.5-2.6-6.5-6.2-6.7c-3.5-0.1-6.5,2.6-6.7,6.2c0,0.2,0,0.3,0,0.5"/>
<path class="st13" d="M86.2,239.5c0-3.5-2.8-6.3-6.3-6.3c-3.5,0-6.3,2.8-6.3,6.3c0,0,0,0,0,0"/>
<line class="st14" x1="120" y1="115" x2="106.4" y2="112.5"/>
<path class="st14" d="M71.5,115c0,0,10-3.1,12.5-2.8"/>
<path class="st6" d="M45.1,163.9c0,0-6.7,18.6,5.8,32.6"/>
<path class="st7" d="M51.8,192.9c-1.2-0.9-2.9-1-4.2-0.2c-2,1-3.1,3.1-2.4,4.7l1.6,4c0,0,0,0.1,0,0.1c0,0,0,0,0,0.1l2.2,5.3
	c0.2,0.4,0.8,0.6,1.2,0.3c0,0,0,0,0,0c0.5-0.2,0.8-0.7,0.6-1.2l-1.1-2.9c0.3,0,0.6-0.1,0.9-0.1l1.4,3.5c0.2,0.4,0.8,0.6,1.2,0.3
	c0,0,0,0,0.1,0c0.5-0.2,0.8-0.7,0.6-1.2l-1.4-3.5c0.2-0.2,0.4-0.4,0.6-0.6l1.2,3c0.2,0.4,0.8,0.6,1.2,0.3c0,0,0,0,0,0
	c0.5-0.2,0.8-0.7,0.6-1.2l-2-5c0-0.2-0.1-0.4-0.1-0.5l0.8,0.8c0.4,0.3,1,0.3,1.4-0.1l0,0c0.4-0.3,0.5-0.8,0.3-1.2c0,0,0,0,0-0.1"/>
<path class="st15" d="M202.2,135.8c0,0,12,9.6,18.1,10.1s15.1-7.4,15.1-7.4"/>
<path class="st16" d="M208.6,133.9c1.4,1.7,1.8,4,0.8,6c-1.1,2.7-4.1,3.9-6.8,2.9l-6-2.8l-0.1-0.1h-0.1l-8.2-3.8
	c-0.7-0.3-0.9-1.2-0.6-1.8c0,0,0,0,0,0c0.3-0.7,1.1-1,1.8-0.8l4.4,2.1c0-0.4,0-0.8,0.1-1.2l-5.3-2.5c-0.7-0.4-0.9-1.3-0.5-2
	c0.4-0.6,1-0.8,1.7-0.6l5.3,2.5c0.2-0.3,0.5-0.6,0.8-0.8l-4.6-2.1c-0.7-0.4-0.9-1.3-0.5-2c0.4-0.6,1-0.8,1.7-0.6l7.6,3.6
	c0.3,0.1,0.5,0.1,0.8,0.2l-1.2-1.2c-0.5-0.6-0.5-1.4,0-2l0,0c0.4-0.6,1.2-0.7,1.8-0.2c0,0,0,0,0.1,0.1"/>
<path class="st17" d="M288,204.4l-23.8,1.7c-17.6,1.2-32.8-12-34-29.6l-7.9-112.2c-1.2-17.6,12-32.8,29.6-34l23.8-1.7
	c17.6-1.2,32.8,12,34,29.6l7.9,112.2C318.8,188,305.5,203.2,288,204.4z"/>
<path class="st11" d="M275.6,73.4c-0.5-4.8-4.7-8.2-9.5-7.7c-4.5,0.5-7.9,4.4-7.8,8.9"/>
<path class="st11" d="M244.9,75.5c-0.3-4.8-4.5-8.4-9.2-8c-4.8,0.3-8.4,4.5-8,9.2"/>
<line class="st18" x1="272.7" y1="56.9" x2="257.1" y2="64.8"/>
<line class="st18" x1="232.9" y1="58.6" x2="245.6" y2="65.2"/>
<path class="st19" d="M268,74c-0.1-2.1-1.8-3.7-3.9-3.6c-2.1,0.1-3.7,1.8-3.6,3.9c0,0.1,0,0.1,0,0.2"/>
<path class="st19" d="M237.3,76.1c-0.1-2.1-1.9-3.6-4-3.5c-2.1,0.1-3.6,1.9-3.5,4"/>
<ellipse transform="matrix(0.9983 -5.808634e-02 5.808634e-02 0.9983 -3.7125 15.6732)" class="st20" cx="267.7" cy="71.7" rx="11.8" ry="8"/>
<ellipse transform="matrix(0.9983 -5.808675e-02 5.808675e-02 0.9983 -3.8784 13.8111)" class="st20" cx="235.6" cy="73.6" rx="11.8" ry="8"/>
<path class="st20" d="M256.1,73.2c0,0-5.1-5.8-8.9,0.6"/>
<polyline class="st17" points="295.9,197.2 289.8,245 283.3,244.9 278.4,197.1 "/>
<polygon class="st21" points="283.5,251 289.1,251.1 292,229.6 281.4,229.6 "/>
<path class="st13" d="M269.8,251.3c0-5.4,4.3-9.8,9.7-9.8c5.4,0,9.8,4.3,9.8,9.7l0,0"/>
<polyline class="st17" points="270.8,196.1 264.7,244 258.1,243.9 253.3,196 "/>
<polygon class="st21" points="258.6,250.2 264.6,250.2 266.6,229.4 256.7,229.2 "/>
<path class="st19" d="M259.8,87.3c1-0.1,1.7-1,1.6-2c-0.1-0.6-0.5-1.2-1.1-1.4c-2.5-1-5.3-1.3-7.9-0.8c-2.5,0.2-4.9,1.1-7,2.5
	c-0.8,0.6-0.9,1.8-0.3,2.5c0.4,0.5,1,0.7,1.6,0.7L259.8,87.3z"/>
<path class="st10" d="M90.9,126.2c-2.5,0.7-5.2-0.8-5.9-3.3c-0.4-1.4-0.1-3,0.8-4.2C88.7,120.2,90.6,123.1,90.9,126.2z"/>
<path class="st15" d="M297.9,125.2c0,0,0.3,20-6.1,29.5S270.3,169,270.3,169"/>
<path class="st16" d="M269.7,163.2c2.2-0.2,4.3,0.9,5.4,2.8c1.5,2.4,0.8,5.6-1.6,7.2l-5.8,3.3l-0.1,0.1h-0.1l-7.8,4.5
	c-0.7,0.3-1.6,0-1.9-0.7c-0.3-0.6-0.1-1.4,0.5-1.8l4.3-2.4c-0.4-0.2-0.7-0.5-1-0.8l-5.1,2.9c-0.7,0.3-1.6,0-1.9-0.8
	c-0.3-0.6-0.1-1.3,0.5-1.7l5.1-2.9c-0.1-0.4-0.2-0.7-0.2-1.1l-4.4,2.5c-0.7,0.3-1.6,0-1.9-0.8c-0.3-0.6-0.1-1.3,0.5-1.7l7.3-4.2
	c0.2-0.2,0.4-0.4,0.7-0.5l-1.7,0.3c-0.8,0.1-1.5-0.4-1.6-1.1l0,0c-0.2-0.7,0.2-1.4,0.8-1.6c0,0,0.1,0,0.1,0"/>
<path class="st13" d="M245.5,251.1c0-5.4,4.3-9.8,9.7-9.8c5.4,0,9.8,4.3,9.8,9.7l0,0"/>
</svg>
