<svg id="Layer_1" data-name="Layer 1" xmlns="http://www.w3.org/2000/svg" viewBox="0 0 348 282.35"><defs><style>.cls-1{fill:#f7d878;}.cls-10,.cls-13,.cls-18,.cls-2,.cls-8{fill:none;stroke-linecap:round;stroke-miterlimit:10;}.cls-2{stroke:#0a8ab2;stroke-width:5.63px;}.cls-3{fill:#a1cbec;}.cls-4{fill:#7f5120;}.cls-5{fill:#ffca05;}.cls-6{fill:#00a0cc;}.cls-7{fill:#fff;}.cls-8{stroke:#0d3f60;stroke-width:1.85px;}.cls-9{fill:#0d3f60;}.cls-10{stroke:#231f20;stroke-width:1.11px;}.cls-11{fill:#5652a2;}.cls-12{fill:#4f4a47;}.cls-13{stroke:#1689b0;stroke-width:4px;}.cls-14{fill:#a0caeb;}.cls-15{fill:#049fcb;}.cls-16{fill:#0b4060;}.cls-17{fill:#56c4cf;}.cls-18{stroke:#0b4060;stroke-width:2.4px;}</style></defs><polyline class="cls-1" points="348.45 282.03 348.45 -0.32 0.45 -0.32 0.45 282.03"/><path class="cls-2" d="M232.87,117.12s6.27,21.2,3.63,32.36-12.63,23-12.63,23"/><path class="cls-3" d="M220.42,167.55a5.47,5.47,0,0,1,6,.8,5.23,5.23,0,0,1,1,7.28l-4.29,5.12-.1.1a.21.21,0,0,0,0,.06l-5.79,6.91a1.37,1.37,0,0,1-1.93.06,1.36,1.36,0,0,1-.26-1.9l3.15-3.76a5.69,5.69,0,0,1-1.17-.43l-3.78,4.51a1.44,1.44,0,0,1-2.19-1.84l3.78-4.51a6,6,0,0,1-.58-1L211,182.86a1.43,1.43,0,0,1-2.18-1.83l5.41-6.46a4.64,4.64,0,0,1,.45-.7l-1.46.89a1.46,1.46,0,0,1-1.91-.49h0a1.27,1.27,0,0,1,.3-1.84"/><path class="cls-4" d="M-.55,32.79a68.16,68.16,0,0,1,16.47-2.37v0l.62,0,.62,0v0c36.61.69,70.73,31.79,70.73,71.32,0,3.8-.09,12.21-.09,12.21V242.67H-.55Z"/><polyline class="cls-5" points="0.45 282.03 348.45 282.03 348.45 243.31 0.45 243.31"/><rect class="cls-6" x="218.28" y="35.35" width="87.36" height="175.78" rx="31.79" transform="translate(531.77 228.19) rotate(176.06)"/><path class="cls-7" d="M266.82,79.39a8.66,8.66,0,1,0-17.27,1.19"/><path class="cls-7" d="M236.18,81.5a8.66,8.66,0,1,0-17.27,1.19"/><line class="cls-8" x1="261.98" y1="60.16" x2="247.67" y2="70.31"/><line class="cls-8" x1="224.09" y1="64.58" x2="236.84" y2="71.2"/><path class="cls-9" d="M259.19,79.91a3.74,3.74,0,1,0-7.46.52"/><path class="cls-9" d="M228.55,82a3.74,3.74,0,0,0-7.47.52"/><ellipse class="cls-10" cx="258.99" cy="77.63" rx="11.76" ry="8" transform="translate(-4.08 15.19) rotate(-3.33)"/><ellipse class="cls-10" cx="226.87" cy="79.55" rx="11.76" ry="8" transform="translate(-4.24 13.33) rotate(-3.33)"/><path class="cls-10" d="M247.3,79.1s-5.12-5.78-8.86.6"/><polyline class="cls-6" points="284.19 203.14 278.06 250.99 271.5 250.9 266.67 203.05"/><polygon class="cls-11" points="271.71 256.95 277.36 257.03 280.13 236.18 270 236.04 271.71 256.95"/><path class="cls-12" d="M258,257.05a9.75,9.75,0,1,1,19.5.26"/><polyline class="cls-6" points="259.08 202.08 252.96 249.93 246.4 249.84 241.57 201.99"/><polygon class="cls-11" points="247.2 256.11 252.84 256.19 254.82 235.32 244.92 235.19 247.2 256.11"/><path class="cls-12" d="M233.66,257.05a9.75,9.75,0,0,1,19.5.26"/><path class="cls-9" d="M250.72,90.78c1.83-.19,2.35-1.48.71-1.76a27.67,27.67,0,0,0-7.84,0,26.18,26.18,0,0,0-7.14,1.62c-1.47.63-.64,1.73,1.15,1.54Z"/><path class="cls-13" d="M150.16,163.92s15.5,3.29,31.43-19.48"/><path class="cls-14" d="M179.54,138.09a5.16,5.16,0,0,0,2.69,5c2.55,1.6,5.77,1.37,7.16-.52l3.42-4.68a.36.36,0,0,0,.07-.1l0,0,4.62-6.31a1.2,1.2,0,0,0-.55-1.67,1.43,1.43,0,0,0-1.87.14l-2.52,3.43a6,6,0,0,0-.78-.92l3-4.12a1.19,1.19,0,0,0-.55-1.66,1.43,1.43,0,0,0-1.87.13l-3,4.12a7.43,7.43,0,0,0-1.09-.31l2.59-3.53a1.21,1.21,0,0,0-.56-1.67,1.42,1.42,0,0,0-1.87.14l-4.32,5.89a3.58,3.58,0,0,0-.51.52l.37-1.42a1.45,1.45,0,0,0-1.08-1.55h0a1.18,1.18,0,0,0-1.63.61"/><path class="cls-15" d="M49.5,130.51c0,24.31,13.07,47.9,30,64.74,43.6,43.4,92.15-19.27,92.15-66.75,0-35-30-43.55-60.07-43.55S49.5,95.46,49.5,130.51Z"/><path class="cls-16" d="M149,145.49a12.36,12.36,0,0,0-12.7-9.29c-10.56.3-11.39,9.29-11.39,9.29Z"/><path class="cls-7" d="M163.9,132.5a10.57,10.57,0,0,0-21.14,0"/><path class="cls-7" d="M131.6,132.5a10.57,10.57,0,0,0-21.14,0"/><polyline class="cls-15" points="111.93 206.77 107.48 251.39 103.23 251.39 98.56 201.19"/><polyline class="cls-15" points="128.59 204.81 124.13 251.39 119.89 251.39 116.34 206.77"/><polygon class="cls-17" points="119.89 257.04 123.9 257.04 126.05 232.5 118.29 232.5 119.89 257.04"/><polygon class="cls-17" points="103.53 257.04 107.54 257.04 109.15 232.5 101.4 232.5 103.53 257.04"/><path class="cls-12" d="M134.1,257.26a7.15,7.15,0,0,0-14.29,0"/><path class="cls-12" d="M117.38,257.26a7.14,7.14,0,0,0-14.28,0"/><line class="cls-18" x1="158.47" y1="114.19" x2="144.4" y2="120.47"/><line class="cls-18" x1="116.39" y1="115.3" x2="129.38" y2="121.17"/><path class="cls-16" d="M124.85,128.17a5.42,5.42,0,0,1-3.21-6.16,10.56,10.56,0,0,1,8.72,5.35A5.39,5.39,0,0,1,124.85,128.17Z"/><path class="cls-16" d="M157.12,128.17a5.41,5.41,0,0,1-3.2-6.16,10.58,10.58,0,0,1,8.72,5.35A5.4,5.4,0,0,1,157.12,128.17Z"/><path class="cls-13" d="M100.22,167.57s-15.82-.71-25.52-26.75"/><path class="cls-14" d="M78.27,135.19a5.14,5.14,0,0,1-3.86,4.2c-2.88.91-5.94-.12-6.81-2.3l-2.14-5.39,0-.11s0,0,0-.06l-2.89-7.26c-.23-.57.2-1.23,1-1.47a1.43,1.43,0,0,1,1.78.6l1.57,3.95a7.29,7.29,0,0,1,1-.7l-1.88-4.74c-.23-.57.2-1.23,1-1.47a1.42,1.42,0,0,1,1.78.6l1.89,4.75a7.14,7.14,0,0,1,1.13,0l-1.62-4.07a1.22,1.22,0,0,1,1-1.48,1.44,1.44,0,0,1,1.78.61l2.7,6.79a3.55,3.55,0,0,1,.36.63v-1.47a1.44,1.44,0,0,1,1.43-1.23h0c.78-.06,1.42.39,1.42,1"/><path class="cls-2" d="M282.74,119.79S295.25,138,296.2,149.45s-4.9,25.73-4.9,25.73"/><path class="cls-3" d="M286.5,171.61a5.48,5.48,0,0,1,6-1.11,5.22,5.22,0,0,1,3.22,6.6l-2.5,6.2a.67.67,0,0,1-.06.12.14.14,0,0,1,0,.07l-3.37,8.37a1.44,1.44,0,0,1-2.65-1.07l1.84-4.56a5.25,5.25,0,0,1-1.25,0l-2.2,5.45a1.43,1.43,0,0,1-2.65-1.06l2.2-5.46a6,6,0,0,1-.85-.74l-1.89,4.69a1.44,1.44,0,0,1-2.65-1.07l3.16-7.82a3.94,3.94,0,0,1,.21-.8l-1.11,1.29a1.47,1.47,0,0,1-2,.13h0a1.27,1.27,0,0,1-.28-1.84"/></svg>