<svg id="Layer_1" data-name="Layer 1" xmlns="http://www.w3.org/2000/svg" viewBox="0 0 496.11 275.13"><defs><style>.cls-1,.cls-10,.cls-12,.cls-14,.cls-5,.cls-7,.cls-9{fill:none;stroke-linecap:round;stroke-miterlimit:10;}.cls-1,.cls-12,.cls-5{stroke:#188ab2;}.cls-1{stroke-width:4.96px;}.cls-2{fill:#02a1cd;}.cls-3{fill:#56c6d0;}.cls-4{fill:#514c49;}.cls-5{stroke-width:4.63px;}.cls-6{fill:#a2cced;}.cls-14,.cls-7,.cls-9{stroke:#0d4161;}.cls-7{stroke-width:1.21px;}.cls-8{fill:#0d4161;}.cls-9{stroke-width:1.73px;}.cls-10{stroke:#231f20;stroke-width:1.26px;}.cls-11{fill:#fff;}.cls-12{stroke-width:3.97px;}.cls-13{fill:#5753a4;}.cls-14{stroke-width:2.2px;}.cls-15{fill:#0d4060;opacity:0.15;}</style></defs><path class="cls-1" d="M243.43,111.17S218,112.56,206.43,63"/><polyline class="cls-2" points="344.85 201.29 337.72 257.48 330.91 257.48 321.45 201.29"/><path class="cls-2" d="M229.68,141.75c-4.53-39.23,9.86-79.48,31-109.46,54.63-77.3,136.16,15.76,145,92.4,6.54,56.55-35.06,75.26-78.28,80.26S236.22,198.31,229.68,141.75Z"/><polyline class="cls-2" points="120.07 190.77 127.29 249.38 134.5 249.38 142.09 183.44"/><polygon class="cls-3" points="134 256.8 127.18 256.8 124.45 224.57 137.62 224.57 134 256.8"/><path class="cls-4" d="M127.29,257.71a10.62,10.62,0,0,1,21.23,0"/><polyline class="cls-2" points="92.42 190.58 99.64 249.38 106.84 249.38 112.88 190.77"/><polygon class="cls-3" points="106.83 256.8 100.03 256.8 96.38 224.57 109.56 224.57 106.83 256.8"/><path class="cls-4" d="M99.52,257.71a10.62,10.62,0,0,1,21.24,0"/><path class="cls-5" d="M187.33,76s-3.8,47.68-40.14,43.55"/><path class="cls-6" d="M196.9,71.27,200.21,62v0A1.62,1.62,0,0,0,199,60a1.73,1.73,0,0,0-2.27.83l-1.68,4.62a5.47,5.47,0,0,0-1.06-.86l2.38-6.8c.32-.7-.23-1.56-1.21-2a2,2,0,0,0-2.45.7l-2.32,6.69c-.51-.09-.64.14-1.16.16L191,57.68c.32-.69-.25-1.56-1.22-2a2,2,0,0,0-2.45.69l-3.43,9.22a15.23,15.23,0,0,0-.69,1.85l-.13-3.27c0-.81-.37-1.34-1.47-1.49s-2,.41-2,1.24V75.66a7,7,0,0,0,5,6c3.82,1.43,8,.25,9.37-2.66"/><path class="cls-7" d="M186.76,32.86l4.94,10.72"/><path class="cls-7" d="M179.45,41.72l8.16,5.4"/><path class="cls-7" d="M198,32.9c-.37,3.88-.56,5.8-1,9.73"/><path class="cls-2" d="M132.67,36.44l-11.79-.72A39.09,39.09,0,0,0,79.5,72.36v0l-.16,2.72c-.39,2.74-.64,5.45-.81,8.13L74.15,155.6A39.1,39.1,0,0,0,110.8,197h0l11.79.71A39.1,39.1,0,0,0,164,161.05l.16-2.73c.39-2.65.65-5.45.81-8.12l4.38-72.38a39.06,39.06,0,0,0-36.61-41.38Z"/><path class="cls-8" d="M145.44,98.51s-2.07,4.94-10.8,4.28-9.14-5.46-9.14-5.46Z"/><path class="cls-9" d="M107,72.17s3.36-5.91,9.75-1.93"/><path class="cls-9" d="M164.54,75.56s-1.82-6.34-8.63-3.14"/><path class="cls-10" d="M129.88,81.27a17.84,17.84,0,1,1-16.8-18.83h0A17.85,17.85,0,0,1,129.88,81.27Z"/><path class="cls-10" d="M177.64,84.12a17.84,17.84,0,1,1-16.77-18.86,17.84,17.84,0,0,1,16.77,18.86Z"/><path class="cls-10" d="M130,79.18s6.28-7.7,11.6.68"/><path class="cls-11" d="M144.87,86.92a10.44,10.44,0,0,1,20.8,1"/><path class="cls-11" d="M104.63,85a10.49,10.49,0,0,1,20.91.91"/><path class="cls-8" d="M118.1,75.7a5.85,5.85,0,0,0,7.34,8.3A10,10,0,0,0,118.1,75.7Z"/><path class="cls-8" d="M158.21,78.2a5.85,5.85,0,0,0,7.34,8.35A10,10,0,0,0,158.21,78.2Z"/><path class="cls-12" d="M92.58,174.16s-9.08-18-2.78-47.18"/><path class="cls-6" d="M86.17,177.4c-.12-3,3-5.9,6.87-6.34A6.69,6.69,0,0,1,99.85,174l5.1,10c.33.73-.2,1.6-1.15,1.95a1.38,1.38,0,0,1-1.92-.64l-1.56-2.75q.15.93.21,1.89l1.08,9.37a1.86,1.86,0,0,1-1.77,1.71c-1,.11-1.89-.44-1.91-1.29L97,188.71c-.44.24-.46.49-.93.64l.93,6.74a1.86,1.86,0,0,1-1.8,1.65,1.57,1.57,0,0,1-1.89-1.15l0-.14-.92-6.73a6.06,6.06,0,0,1-1.33-.28l.57,4.7A1.65,1.65,0,0,1,90,195.82c-1,.11-1.88-.44-1.91-1.29l-1.2-9.3"/><polyline class="cls-2" points="308.05 198.82 299.06 257.48 292.25 257.48 282.31 190.47"/><polygon class="cls-13" points="330.04 257.48 327.47 238.71 340.27 238.71 338.04 258.32 330.04 257.48"/><polygon class="cls-13" points="291.6 257.73 289.49 238.71 302 238.71 299.28 258.25 291.6 257.73"/><path class="cls-4" d="M315.19,258.59a11.44,11.44,0,0,1,22.86,0"/><path class="cls-4" d="M299.45,258.59a11.44,11.44,0,0,0-22.86,0"/><path class="cls-14" d="M309.27,44.5s-5.58-8.22-14.42-1.69"/><path class="cls-14" d="M253.75,53.05s2.12-9.69,12.74-6.93"/><path class="cls-11" d="M279.89,67.14c-.83-6-6.72-10.19-13.14-9.31s-11,6.51-10.13,12.53"/><path class="cls-8" d="M271.07,68.36A5.11,5.11,0,0,0,261,69.76h0"/><path class="cls-11" d="M291.1,65.55c-.84-6,3.72-11.64,10.19-12.53s12.37,3.31,13.22,9.29"/><path class="cls-8" d="M303.49,63.87a5.11,5.11,0,0,0-10.11,1.4"/><path class="cls-8" d="M270.46,77.48s2,14,17.87,11.8c13.22-1.84,12.35-16,12.35-16Z"/><path class="cls-8" d="M312.72,57.21l6-3.41-5,5.21c.1.25.18.48.27.71l5.4-1.46-4.95,3a8.24,8.24,0,0,1,.22,1.1c-4.23-8.93-10.29-9.34-12-9.28,5.41-.59,8.41,1.68,10.05,4.13"/><path class="cls-8" d="M250.65,67.75h5.6a2.49,2.49,0,0,1,.08-.76l-6.24-3.65,6.7,1.65c.9-2.81,3.18-5.81,8.56-6.71-1.66.39-7.38,2.45-9,12.19a11.54,11.54,0,0,1-.1-1.17Z"/><path class="cls-6" d="M200.71,70.92c1.44,3,5.93,4.28,10,2.7,3.18-1.23,5.17-3.83,5.18-6.37l-.14-12.46c0-.9-1-1.48-2.13-1.33s-1.61.73-1.55,1.62l-.15,3.47a17.41,17.41,0,0,0-.76-2l-3.74-9.75a2.06,2.06,0,0,0-2.61-.72,1.76,1.76,0,0,0-1.27,2.12l0,.08,2,5.95c-.55,0-.65-.17-1.2,0l-2.54-7.08a2,2,0,0,0-2.61-.71,1.73,1.73,0,0,0-1.26,2.11s0,.06,0,.09l2.54,7.08c-.5.33-.34.3-.75.7l-2.05-4.79a2.05,2.05,0,0,0-2.61-.71c-1.06.41-1.31,1.47-.84,2.87l3.18,9"/><path class="cls-1" d="M384.65,92.44c-2.47-7.68,27.22,45.4-5.43,67.51"/><path class="cls-6" d="M386.35,163.21c1.39-2.84-.33-6.84-3.85-8.88-2.76-1.61-5.82-1.55-7.69-.08l-9,7.38a1.59,1.59,0,0,0,.28,2.33c.76.73,1.47.75,2.09.19l2.62-1.91a15.15,15.15,0,0,0-1,1.7l-4.95,8.43a1.92,1.92,0,0,0,1,2.33,1.65,1.65,0,0,0,2.29-.31l.05-.07,3.21-4.9c.3.4.24.57.66.9l-3.7,6a1.91,1.91,0,0,0,1,2.32,1.62,1.62,0,0,0,2.28-.3l.05-.07,3.7-6a3.17,3.17,0,0,0,.95.14l-2.31,4.3a1.93,1.93,0,0,0,1,2.32c.92.53,1.83.1,2.59-1.06l4.76-7.61"/><ellipse class="cls-15" cx="238.26" cy="261.44" rx="166.18" ry="10.04"/></svg>