<svg id="Layer_1" data-name="Layer 1" xmlns="http://www.w3.org/2000/svg" viewBox="0 0 348 282.35"><defs><style>.cls-1{fill:#f9da78;}.cls-2{fill:#1a3663;}.cls-3{fill:#ffcb05;}.cls-4{fill:#0c1d34;}.cls-5{fill:#773a19;}.cls-12,.cls-13,.cls-17,.cls-20,.cls-6{fill:none;stroke-linecap:round;stroke-miterlimit:10;}.cls-17,.cls-6{stroke:#0f8ab2;}.cls-6{stroke-width:3.33px;}.cls-7{fill:#00a1cd;}.cls-8{fill:#56c5d0;}.cls-9{fill:#504b48;}.cls-10{fill:#0d4060;}.cls-11{fill:#fff;}.cls-12{stroke:#0d4060;stroke-width:1.51px;}.cls-13{stroke:#231f20;stroke-width:1.13px;}.cls-14{fill:#a2cced;}.cls-15{fill:#965023;}.cls-16{fill:#757576;}.cls-17{stroke-width:5px;}.cls-18{fill:#ed1651;}.cls-19{fill:#edebaa;}.cls-20{stroke:#0d4161;stroke-width:1.88px;}</style></defs><polyline class="cls-1" points="0 282.35 0 0 348 0 348 282.35"/><path class="cls-2" d="M348,233.46V57.91C334.83,43.87,315.47,35,293.51,35c-40.61,0-72.76,29.33-72.76,66.71,0,3.55.1,11.41.1,11.41V233.46Z"/><rect class="cls-3" y="234.66" width="348" height="47.69"/><rect class="cls-4" x="220.52" y="219.59" width="84.19" height="15.2"/><path class="cls-5" d="M348,234.13V59.19c-4.62-3-10.74-3.95-18.63-3.95-33.12,0-58.2,29.33-58.2,66.71,0,3.55.09,11.42.09,11.42V253.7Z"/><path class="cls-6" d="M171,165.08s-11.16-3.6-13.16-22.66"/><path class="cls-7" d="M200.08,202.39h-7.62c-21.56,0-25.25-17-25.25-31.3v-48c0-14.3,11.3-25.9,25.25-25.9h7.62c13.94,0,25.24,11.6,25.24,25.9v48C225.32,185.39,221,202.39,200.08,202.39Z"/><polyline class="cls-7" points="194.63 198.38 190.09 235.8 186.99 235.8 182.25 194.16"/><polygon class="cls-8" points="187.21 240.48 190.13 240.48 191.97 220.13 184.99 220.13 187.21 240.48"/><path class="cls-9" d="M191.09,240.66a5.93,5.93,0,0,0-11.85,0"/><polyline class="cls-7" points="199.15 198.38 203.69 235.8 206.79 235.8 211.53 194.16"/><polygon class="cls-8" points="206.58 240.48 203.65 240.48 201.81 220.13 208.8 220.13 206.58 240.48"/><path class="cls-9" d="M195.17,240.66a5.93,5.93,0,0,1,11.85,0"/><path class="cls-10" d="M180,142.42a7.76,7.76,0,0,1,8-5.89c6.62.18,7.15,5.89,7.15,5.89Z"/><path class="cls-11" d="M167.52,132.36a6.63,6.63,0,1,1,13.25,0"/><path class="cls-11" d="M195.3,132.36a6.63,6.63,0,1,1,13.25,0"/><line class="cls-12" x1="173.06" y1="121.47" x2="180.53" y2="127.1"/><path class="cls-10" d="M167.52,131a4.09,4.09,0,0,0,5.67-5.3A6.62,6.62,0,0,0,167.52,131Z"/><path class="cls-10" d="M195.4,131a4.09,4.09,0,0,0,5.67-5.3A6.63,6.63,0,0,0,195.4,131Z"/><circle class="cls-13" cx="172.5" cy="128.8" r="11.52"/><circle class="cls-13" cx="203.4" cy="128.8" r="11.52"/><path class="cls-13" d="M184,127.42s3.76-5.2,7.5,0"/><path class="cls-6" d="M216.72,165.46s11.23-3.36,13.56-22.38"/><path class="cls-14" d="M225.49,142.36a4.16,4.16,0,0,0,3.57,2.9c2.4.4,4.72-.78,5.16-2.62l1.08-4.54s0-.06,0-.09,0,0,0,0l1.47-6.13c.11-.48-.31-1-.93-1.06a1.14,1.14,0,0,0-1.35.69l-.8,3.33a4.73,4.73,0,0,0-.87-.44l1-4c.12-.48-.3-1-.93-1.06a1.15,1.15,0,0,0-1.35.68l-1,4a5.52,5.52,0,0,0-.91.11l.82-3.43c.12-.48-.3-1-.93-1.07a1.16,1.16,0,0,0-1.35.69L226.84,136a2.11,2.11,0,0,0-.22.54l-.17-1.17a1.17,1.17,0,0,0-1.29-.81h0c-.63,0-1.09.47-1,1"/><path class="cls-14" d="M161.29,143.12a4.16,4.16,0,0,1-3.43,3.06c-2.38.5-4.75-.57-5.27-2.39l-1.29-4.48s0-.07,0-.1a.08.08,0,0,1,0,0l-1.74-6.06c-.14-.47.26-1,.88-1.1a1.15,1.15,0,0,1,1.38.62l.95,3.3a3.9,3.9,0,0,1,.85-.48l-1.14-3.95c-.13-.48.26-1,.89-1.11a1.13,1.13,0,0,1,1.37.63l1.14,3.95a5.49,5.49,0,0,1,.91.07l-1-3.4c-.14-.47.26-1,.88-1.1a1.16,1.16,0,0,1,1.38.62l1.62,5.66a2.61,2.61,0,0,1,.24.54l.12-1.18a1.16,1.16,0,0,1,1.25-.87h0c.63,0,1.11.42,1.06.92"/><path class="cls-15" d="M348.07,238,277.22,256V135.7s-.09-7.86-.09-11.41c0-37.38,26.23-66.71,59.35-66.71a36,36,0,0,1,11.07,1.49"/><circle class="cls-16" cx="294.48" cy="170.3" r="4.84"/><polygon class="cls-5" points="271.26 253.7 277.22 256.04 277.13 249.08 271.26 253.7"/><path class="cls-17" d="M127.17,135.27S115,148,109.93,150.12s-16.09,3-16.09,3"/><path class="cls-14" d="M121.15,135.45a5,5,0,0,0,1,5.42,4.72,4.72,0,0,0,6.62.58l4.42-4.12.09-.09s0,0,.05,0l6-5.56a1.3,1.3,0,0,0-1.76-1.89l-3.25,3a5,5,0,0,0-.45-1l3.9-3.63a1.3,1.3,0,0,0-1.76-1.89l-3.9,3.63a5.57,5.57,0,0,0-.9-.48l3.35-3.12a1.3,1.3,0,0,0-1.76-1.89l-5.58,5.2a3.62,3.62,0,0,0-.61.44l.73-1.36a1.32,1.32,0,0,0-.53-1.71h0a1.15,1.15,0,0,0-1.65.36"/><path class="cls-7" d="M74.55,54.17c-27.94-2.42-51.18,2.52-53.73,32a160.54,160.54,0,0,0,.1,22.58c.45,8.31,2,16.69,3.51,24.88.64,3.6,1.39,6.78.71,10.45-.6,3.21-2.55,6.36-4.25,9.15-4.58,7.55-6.32,15.57-4.16,24.23,1.43,5.75,5.68,10.6,10.63,13.84C37.62,198,41.89,198.09,63.85,200c13,1.13,26.7,1.31,38.11-6.13a28.44,28.44,0,0,0,10.53-12.6,32.22,32.22,0,0,0,2.25-7.6c1-4.44,0-10.3-1.36-14.52-2-6.33-3.76-14.7-1.5-21.25,5.24-15.28,9.46-35.64,10.14-43.56,2.56-29.48-19.54-37.75-47.47-40.16"/><path class="cls-11" d="M101.35,103.2a7.82,7.82,0,0,1,15.54,1.35"/><path class="cls-10" d="M107.66,103.85a3.39,3.39,0,1,1,6.76.58"/><path class="cls-11" d="M77.1,101.2a7.86,7.86,0,0,1,15.62,1.35"/><path class="cls-10" d="M83.45,101.85a3.39,3.39,0,1,1,6.76.59"/><path class="cls-10" d="M77.91,97.65,74,95.59l3.32,3.31c-.06.16-.11.32-.16.48l-3.46-.77,3.22,1.79a5.55,5.55,0,0,0-.1.78c2.42-6.15,6.24-6.67,7.32-6.68A6.22,6.22,0,0,0,77.91,97.65Z"/><path class="cls-10" d="M85.31,94.5c.11,0,.2,0,.31,0A2.53,2.53,0,0,0,85.31,94.5Z"/><path class="cls-10" d="M120.43,102.56l-3.55.16a3.12,3.12,0,0,0-.07-.51l3.84-2.68-4.18,1.35a6.22,6.22,0,0,0-5.62-4.17c1.06.2,4.74,1.36,6.07,7.84,0,0,0-.31,0-.79Z"/><polyline class="cls-7" points="47.85 191.25 52.43 234.65 58.37 234.7 63.69 191.52"/><polygon class="cls-18" points="58.05 240.18 52.95 240.13 50.86 221.22 60.02 221.3 58.05 240.18"/><path class="cls-9" d="M70.49,241.31a8.82,8.82,0,0,0-17.64,0"/><polyline class="cls-7" points="70.49 190.98 75.2 234.37 81.14 234.41 86.33 191.2"/><polygon class="cls-18" points="80.61 240.06 75.2 240.03 73.77 221.13 82.73 221.18 80.61 240.06"/><path class="cls-9" d="M92.71,241.31a8.82,8.82,0,0,0-17.64,0"/><path class="cls-17" d="M39.46,145s7,12.87,17.09,15.47S77.61,159,77.61,159"/><path class="cls-14" d="M72.14,155.84A5,5,0,0,0,70.31,161a4.73,4.73,0,0,0,5.45,3.81l5.89-1.36.12,0h.06l8-1.84a1.25,1.25,0,0,0,.84-1.53,1.23,1.23,0,0,0-1.42-1l-4.33,1A4.64,4.64,0,0,0,85,159l5.19-1.2a1.25,1.25,0,0,0,.84-1.53,1.23,1.23,0,0,0-1.42-1l-5.19,1.2a5,5,0,0,0-.54-.86l4.45-1a1.3,1.3,0,0,0-.58-2.52l-7.43,1.72a4.74,4.74,0,0,0-.74.07l1.31-.81a1.32,1.32,0,0,0,.39-1.74h0a1.15,1.15,0,0,0-1.61-.51"/><path class="cls-19" d="M279.42,65l.71,2.2a.46.46,0,0,0,.44.32h2.31a.46.46,0,0,1,.27.83l-1.87,1.36a.44.44,0,0,0-.16.51l.71,2.2a.46.46,0,0,1-.71.51l-1.87-1.35a.45.45,0,0,0-.54,0l-1.87,1.35a.46.46,0,0,1-.71-.51l.72-2.2a.46.46,0,0,0-.17-.51l-1.87-1.36a.46.46,0,0,1,.27-.83h2.31a.46.46,0,0,0,.44-.32l.71-2.2A.46.46,0,0,1,279.42,65Z"/><path class="cls-19" d="M265.59,90.29l.71,2.19a.46.46,0,0,0,.44.32h2.31a.46.46,0,0,1,.27.83L267.45,95a.48.48,0,0,0-.17.52L268,97.7a.46.46,0,0,1-.71.52l-1.87-1.36a.45.45,0,0,0-.54,0L263,98.22a.46.46,0,0,1-.71-.52l.71-2.19a.47.47,0,0,0-.16-.52L261,93.63a.46.46,0,0,1,.27-.83h2.31a.47.47,0,0,0,.44-.32l.71-2.19A.46.46,0,0,1,265.59,90.29Z"/><path class="cls-19" d="M250.64,66.37l.55,1.69a.46.46,0,0,0,.44.32h1.77l-1.43,1a.48.48,0,0,0-.17.52l.55,1.68-1.44-1a.45.45,0,0,0-.54,0l-1.44,1,.55-1.68a.46.46,0,0,0-.17-.52l-1.43-1h1.77a.46.46,0,0,0,.44-.32Z"/><path class="cls-19" d="M277.05,49.16l.55,1.69a.46.46,0,0,0,.44.32h1.78l-1.44,1a.46.46,0,0,0-.17.51l.55,1.69-1.44-1a.45.45,0,0,0-.54,0l-1.43,1,.55-1.69a.46.46,0,0,0-.17-.51l-1.44-1h1.78a.47.47,0,0,0,.44-.32Z"/><path class="cls-19" d="M295.46,55l.54,1.69a.47.47,0,0,0,.44.32h1.78l-1.44,1a.48.48,0,0,0-.17.52l.55,1.69-1.43-1.05a.5.5,0,0,0-.55,0l-1.43,1.05.55-1.69a.48.48,0,0,0-.17-.52l-1.44-1h1.78a.46.46,0,0,0,.44-.32Z"/><path class="cls-19" d="M246.4,98.48A18,18,0,0,1,257.28,82a18,18,0,1,0,0,33A18,18,0,0,1,246.4,98.48Z"/><path class="cls-19" d="M253.2,130.16l.55,1.69a.46.46,0,0,0,.44.32H256l-1.44,1a.48.48,0,0,0-.17.52l.55,1.69-1.43-1a.5.5,0,0,0-.55,0l-1.43,1,.55-1.69a.48.48,0,0,0-.17-.52l-1.44-1h1.78a.47.47,0,0,0,.44-.32Z"/><line class="cls-12" x1="202.31" y1="121.61" x2="194.83" y2="127.24"/><path class="cls-10" d="M88.78,114.05a1,1,0,0,1-.8-1.52,9.72,9.72,0,0,1,10.24-5c6.09.78,7.74,4.77,8.19,6.9a1,1,0,0,1-1.11,1.23Z"/><path class="cls-20" d="M113,90.41c-3.85-1.23-10.65,6.15-10.65,6.15"/><path class="cls-20" d="M94.19,95.16s-5.68-8-11.35-8"/></svg>