<svg xmlns="http://www.w3.org/2000/svg" viewBox="0 0 348 282.35"><defs><style>.cls-1{fill:#f9da78;}.cls-2{fill:#a4dbdd;}.cls-3{fill:#ffcb05;}.cls-4{fill:#319c47;}.cls-5{fill:#773a19;}.cls-6{fill:#965023;}.cls-7{fill:#757576;}.cls-15,.cls-17,.cls-19,.cls-20,.cls-21,.cls-8{fill:none;stroke-miterlimit:10;}.cls-17,.cls-8{stroke:#0f8ab2;}.cls-15,.cls-17,.cls-19,.cls-20,.cls-8{stroke-linecap:round;}.cls-8{stroke-width:5px;}.cls-9{fill:#a2cced;}.cls-10{fill:#00a1cd;}.cls-11{fill:#ed1651;}.cls-12{fill:#504b48;}.cls-13{fill:#fff;}.cls-14{fill:#0d4060;}.cls-15,.cls-19{stroke:#0d4060;}.cls-15{stroke-width:1.82px;}.cls-16{fill:#26316b;}.cls-17{stroke-width:3.52px;}.cls-18{fill:#56c5d0;}.cls-19{stroke-width:1.59px;}.cls-20{stroke:#231f20;stroke-width:1.19px;}.cls-21{stroke:#677171;stroke-width:0.86px;}</style></defs><g id="Layer_1" data-name="Layer 1"><polyline class="cls-1" points="0 282.35 0 0 348 0 348 282.35"/><path class="cls-2" d="M348,237.6V52.33a74.24,74.24,0,0,0-55.44-24.18c-41.33,0-74.05,31-74.05,70.4,0,3.75.11,12,.11,12v127Z"/><rect class="cls-3" y="234.83" width="348" height="47.52"/><rect class="cls-4" x="218.27" y="223.8" width="88.85" height="15.2"/><path class="cls-5" d="M348,238.31V53.67c-4.59-3.11-10.67-4.16-18.49-4.16-32.89,0-57.78,31-57.78,70.4,0,3.75.08,12.05.08,12.05V259Z"/><path class="cls-6" d="M348,242.36l-69.9,19.07v-127s-.08-8.3-.08-12.05C278,82.93,303.89,52,336.57,52a33.16,33.16,0,0,1,10.92,1.58"/><circle class="cls-7" cx="296.33" cy="170.94" r="5.11"/><polygon class="cls-5" points="271.81 258.96 278.11 261.43 278.02 254.08 271.81 258.96"/><path class="cls-8" d="M137.3,134s-12.81,13.43-18.19,15.67-17,3.17-17,3.17"/><path class="cls-9" d="M131,134.16a5.23,5.23,0,0,0,1.06,5.72,5,5,0,0,0,7,.61l4.67-4.34.09-.1.06,0,6.3-5.87a1.37,1.37,0,0,0-1.86-2l-3.43,3.2a5.87,5.87,0,0,0-.47-1.1l4.11-3.83a1.37,1.37,0,0,0-1.86-2l-4.11,3.83a5.4,5.4,0,0,0-.95-.5l3.53-3.3a1.37,1.37,0,0,0-1.86-2l-5.89,5.48a4.7,4.7,0,0,0-.64.46l.77-1.43a1.38,1.38,0,0,0-.56-1.8h0a1.22,1.22,0,0,0-1.74.38"/><path class="cls-10" d="M81.76,48.37c-29.47-2.55-54,2.67-56.7,33.78A170.89,170.89,0,0,0,25.17,106c.48,8.76,2.17,17.6,3.71,26.25.67,3.8,1.46,7.16.74,11-.63,3.39-2.69,6.72-4.48,9.67-4.83,8-6.67,16.42-4.39,25.57,1.51,6.06,6,11.18,11.22,14.61,10.82,7.09,15.33,7.16,38.51,9.17,13.74,1.19,28.17,1.38,40.21-6.47a30.1,30.1,0,0,0,11.12-13.3,34.35,34.35,0,0,0,2.37-8c1-4.69,0-10.87-1.43-15.32-2.12-6.69-4-15.52-1.58-22.43,5.53-16.13,10-37.62,10.7-46,2.7-31.11-20.63-39.83-50.11-42.39"/><polyline class="cls-10" points="53.59 193.05 58.42 238.86 64.69 238.91 70.31 193.33"/><polygon class="cls-11" points="64.36 244.69 58.97 244.64 56.77 224.68 66.43 224.76 64.36 244.69"/><path class="cls-12" d="M77.48,245.88a9.31,9.31,0,0,0-18.62,0"/><polyline class="cls-10" points="77.48 192.77 82.46 238.56 88.72 238.6 94.2 193"/><polygon class="cls-11" points="88.17 244.57 82.46 244.53 80.94 224.58 90.4 224.63 88.17 244.57"/><path class="cls-12" d="M100.93,245.88a9.31,9.31,0,0,0-18.62,0"/><path class="cls-8" d="M44.74,144.28s7.43,13.57,18,16.32S85,159,85,159"/><path class="cls-9" d="M79.23,155.68a5.22,5.22,0,0,0-1.94,5.48,5,5,0,0,0,5.76,4l6.21-1.44.13,0h.07l8.38-1.95a1.37,1.37,0,0,0-.61-2.65l-4.57,1.05A5.08,5.08,0,0,0,92.8,159l5.48-1.27a1.37,1.37,0,0,0-.62-2.66l-5.47,1.27a6.11,6.11,0,0,0-.58-.91l4.71-1.08a1.37,1.37,0,0,0-.62-2.66l-7.84,1.81a4.13,4.13,0,0,0-.78.08l1.38-.85a1.4,1.4,0,0,0,.41-1.84h0a1.21,1.21,0,0,0-1.7-.54"/><path class="cls-13" d="M253,76.12A14.33,14.33,0,0,0,252.1,69c-2.56-6.26-9-9-14.5-6a11.68,11.68,0,0,0-5,5.5,11.36,11.36,0,0,0-4.66-4.32,62.91,62.91,0,0,0-9.43,32.94c0,1.83,0,4.76.05,7.26a9.6,9.6,0,0,0,9.76.33,11.42,11.42,0,0,0,2.73-2.1c2.71,5.85,8.95,8.31,14.24,5.46a12.24,12.24,0,0,0,5.92-8.2,9.61,9.61,0,0,0,9-.14c5.45-2.94,7.79-10.4,5.24-16.67C263.16,77.51,257.93,74.76,253,76.12Z"/><path class="cls-14" d="M113.56,107.5h0a10.34,10.34,0,0,1-11.39,6.64c-8.8-1.13-8.74-8.67-8.74-8.67Z"/><path class="cls-13" d="M108,101.27A8.34,8.34,0,0,1,124.53,103"/><path class="cls-14" d="M115.92,102.08a3.62,3.62,0,0,1,7.2.72"/><path class="cls-13" d="M83.35,98.79A8.39,8.39,0,0,1,100,100.47"/><path class="cls-14" d="M91.34,99.6a3.62,3.62,0,0,1,7.21.72"/><path class="cls-14" d="M84.27,95l-4.12-2.25,3.49,3.58c-.06.17-.12.34-.17.51L79.79,96l3.4,2c-.09.5-.12.83-.12.83,2.68-6.52,6.77-7,7.92-7A6.65,6.65,0,0,0,84.27,95Z"/><path class="cls-14" d="M91,91.74c.11,0,.21,0,.33,0A2.4,2.4,0,0,0,91,91.74Z"/><path class="cls-14" d="M128.33,100.88l-3.78.11c0-.17,0-.35-.07-.53l4.14-2.81L124.13,99c-.67-2-2.28-4.06-5.93-4.54,1.13.23,5,1.53,6.36,8.46a7.72,7.72,0,0,0,0-.84Z"/><path class="cls-15" d="M83.68,87.83s4.11-7.33,11-2.6"/><path class="cls-15" d="M125.63,92.07s-1.66-8-9.39-4.8"/></g><g id="Layer_2" data-name="Layer 2"><path class="cls-16" d="M240.07,140.38a7.32,7.32,0,0,1,5.21,3.48c4,6.18,8.37,18.32,8.72,25.86.53,11.54-9.44,16.79-10.19,16.63s-8.92,0-8.92,0Z"/><path class="cls-17" d="M186.22,162.91s-12.32-1.23-18.59-20.46"/><path class="cls-10" d="M214.4,205.08h-8c-22.75,0-26.65-18-26.65-33v-50.7c0-15.09,11.93-27.33,26.65-27.33h8C229.11,94,241,106.25,241,121.34V172C241,187.13,236.45,205.08,214.4,205.08Z"/><polyline class="cls-10" points="208.66 200.84 203.86 240.33 200.59 240.33 195.59 196.4"/><polygon class="cls-18" points="200.82 245.27 203.91 245.27 205.85 223.8 198.47 223.8 200.82 245.27"/><path class="cls-12" d="M204.92,245.47a6.26,6.26,0,0,0-12.51,0"/><polyline class="cls-10" points="213.42 200.84 218.22 240.33 221.49 240.33 226.49 196.4"/><polygon class="cls-18" points="221.26 245.27 218.17 245.27 216.23 223.8 223.6 223.8 221.26 245.27"/><path class="cls-12" d="M209.22,245.47a6.25,6.25,0,0,1,12.5,0"/><path class="cls-14" d="M208.3,137.47a6.72,6.72,0,0,1-7.1,6.54c-7,.08-6.72-5.92-6.72-5.92Z"/><path class="cls-13" d="M180,131.16a7,7,0,0,1,14,0"/><path class="cls-13" d="M209.35,131.16a7,7,0,0,1,14,0"/><line class="cls-19" x1="181.74" y1="122.97" x2="191.59" y2="122.32"/><path class="cls-14" d="M180,129.76a4.31,4.31,0,0,0,6-5.59A7,7,0,0,0,180,129.76Z"/><path class="cls-14" d="M209.47,129.76a4.31,4.31,0,0,0,6-5.59A7,7,0,0,0,209.47,129.76Z"/><circle class="cls-20" cx="185.29" cy="127.41" r="12.16"/><circle class="cls-20" cx="217.91" cy="127.41" r="12.16"/><path class="cls-20" d="M197.43,126s4-5.49,7.92,0"/><path class="cls-9" d="M171.37,142.4a4.37,4.37,0,0,1-2.87,3.91c-2.34,1.05-5,.47-6-1.29l-2.32-4.35a.36.36,0,0,0,0-.09l0,0L157,134.67a1,1,0,0,1,.66-1.33,1.21,1.21,0,0,1,1.56.34l1.71,3.19a4.62,4.62,0,0,1,.77-.68l-2.05-3.83a1,1,0,0,1,.67-1.33,1.2,1.2,0,0,1,1.56.33l2.05,3.83a6.37,6.37,0,0,1,.95-.13l-1.75-3.29a1,1,0,0,1,.66-1.33,1.21,1.21,0,0,1,1.56.34l2.93,5.48a3.08,3.08,0,0,1,.37.5l-.14-1.24a1.23,1.23,0,0,1,1.09-1.18h0c.66-.13,1.25.19,1.3.71"/><line class="cls-19" x1="221.27" y1="122.49" x2="211.43" y2="121.57"/><path class="cls-16" d="M242.49,143.81s-14.94,8.84-10.55,22.88c2.76,8.8,11.87,10.44,11.87,10.44v-3s-8.31-4.69-8.55-10.52c-.37-9.36,7.79-15.54,7.79-15.54Z"/><rect class="cls-21" x="231.46" y="164.56" width="5.1" height="4.04" rx="1.74" transform="translate(-43.74 93.34) rotate(-20.67)"/><path class="cls-17" d="M237.14,157.66s5.27,11.19-8,26.42"/><path class="cls-9" d="M225.18,180.82a4.39,4.39,0,0,1,4.79.76c2,1.61,2.71,4.26,1.57,5.9l-2.8,4.05-.06.08,0,0-3.78,5.47a1,1,0,0,1-1.49,0,1.21,1.21,0,0,1-.41-1.54l2.06-3a5.18,5.18,0,0,1-1-.38l-2.47,3.57a1,1,0,0,1-1.49,0,1.21,1.21,0,0,1-.42-1.54l2.47-3.57a6.61,6.61,0,0,1-.55-.79L219.49,193a1,1,0,0,1-1.49,0,1.21,1.21,0,0,1-.41-1.54l3.53-5.11a2.93,2.93,0,0,1,.28-.56l-1,.69a1.24,1.24,0,0,1-1.55-.43h0a1,1,0,0,1,0-1.48"/><path class="cls-16" d="M235.35,161.22a27.36,27.36,0,0,1,2.65-7.39c1.69-2.68-5,3.21-5,3.21Z"/></g></svg>