<svg id="Layer_1" data-name="Layer 1" xmlns="http://www.w3.org/2000/svg" viewBox="0 0 348 282.35"><defs><style>.cls-1{fill:#f8d979;}.cls-2{fill:#a4dbdd;}.cls-3{fill:#ffcb05;}.cls-4{fill:#fff;}.cls-16,.cls-17,.cls-18,.cls-5,.cls-8{fill:none;stroke-linecap:round;stroke-miterlimit:10;}.cls-5,.cls-8{stroke:#0f8ab2;}.cls-5{stroke-width:3.96px;}.cls-6{fill:#a2cced;}.cls-7{fill:#ffcc04;}.cls-8{stroke-width:5px;}.cls-9{fill:#fbad18;}.cls-10{fill:#e59425;}.cls-11{fill:#00a1cd;}.cls-12{fill:#0d4060;}.cls-13{fill:#ed1651;}.cls-14{fill:#504b48;}.cls-15{fill:#56c5d0;}.cls-16{stroke:#231f20;stroke-width:0.99px;}.cls-17{stroke:#0d4060;stroke-width:1.98px;}.cls-18{stroke:#0d4161;stroke-width:1.88px;}</style></defs><polyline class="cls-1" points="0 282.35 0 0 348 0 348 282.35"/><path class="cls-2" d="M321.59,77.64c0-29-25-51.79-56.49-51.79S208,49.38,208,78.39v48.09H321.51v-40S321.59,80.4,321.59,77.64Z"/><rect class="cls-3" x="200.82" y="123.77" width="120.7" height="6.53"/><path class="cls-4" d="M321.57,85.53s.08-6.11.08-8.86A49.18,49.18,0,0,0,320.49,66a8.74,8.74,0,0,0-1.44,1.2c-2.16-4.67-7.13-6.63-11.34-4.36A9.75,9.75,0,0,0,303,69.38a7.66,7.66,0,0,0-7.13.12c-4.34,2.34-6.21,8.29-4.17,13.28,1.78,4.36,5.95,6.55,9.87,5.47a11.27,11.27,0,0,0,.72,5.71c2,5,7.21,7.14,11.55,4.8a9.33,9.33,0,0,0,4-4.38,9.08,9.08,0,0,0,3.71,3.44l0-.08Z"/><path class="cls-4" d="M208.28,74.58c2,.66,8.21,1.07,10.25,0a8.74,8.74,0,0,0,2.27-1.74c2.24,4.85,7.41,6.89,11.78,4.53a10.11,10.11,0,0,0,4.9-6.79,7.94,7.94,0,0,0,7.41-.12c4.51-2.43,6.45-8.61,4.34-13.8-1.85-4.53-8.18-7.8-12.26-6.68a11.68,11.68,0,0,0-.75-5.93c-1.05-2.57-5.23-5.51-7.38-6.42C217.35,46.16,209.73,58,208.28,74.58Z"/><path class="cls-5" d="M184.61,151.41s-7.15,12.42-29,9.82"/><path class="cls-6" d="M156.3,155.32a5.1,5.1,0,0,1,2.36,5.13c-.25,3-2.36,5.38-4.69,5.34l-5.73-.09h-.18l-7.74-.12c-.61,0-1-.65-1-1.43a1.41,1.41,0,0,1,1.23-1.4l4.21.07a6.23,6.23,0,0,1-.26-1.17l-5-.08a1.19,1.19,0,0,1-1-1.43,1.41,1.41,0,0,1,1.22-1.4l5.06.08a6.91,6.91,0,0,1,.4-1l-4.34-.07a1.19,1.19,0,0,1-1-1.43,1.41,1.41,0,0,1,1.23-1.4l7.23.11a4.43,4.43,0,0,1,.72-.09l-1.34-.56a1.44,1.44,0,0,1-.59-1.78h0c.25-.74.9-1.15,1.46-.92"/><rect class="cls-7" y="244.75" width="348" height="37.6"/><path class="cls-8" d="M177.2,139.43s-9.93,8.34-16.35,9.18-18.73-4.56-18.73-4.56"/><path class="cls-6" d="M170.33,137.79a5.8,5.8,0,0,0-.53,6.43c1.49,2.82,4.78,4,7.32,2.7l6.27-3.31a.57.57,0,0,0,.13-.08l.07,0,8.47-4.46a1.53,1.53,0,0,0-1.42-2.69l-4.6,2.43a6.68,6.68,0,0,0-.19-1.31l5.52-2.91a1.52,1.52,0,0,0-1.41-2.68l-5.52,2.91a5.6,5.6,0,0,0-.88-.81l4.75-2.51a1.52,1.52,0,0,0-1.41-2.68L179,133a4.87,4.87,0,0,0-.83.31l1.25-1.31a1.57,1.57,0,0,0-.08-2.1h0a1.36,1.36,0,0,0-2-.09"/><polyline class="cls-9" points="128.51 252.01 121.25 252.01 121.25 220.74 62.79 220.74 62.79 252.01 55.38 252.01 55.38 217.82 55.5 217.82 55.5 211.16 128.51 211.16 128.51 217.92"/><rect class="cls-10" x="49.75" y="196.28" width="84.98" height="16.99" rx="5.14"/><path class="cls-11" d="M103.52,33.72c-32.83-1.94-59.92,4.6-62,39.25-.52,8.79.12,17.72.84,26.47.8,9.73,2.94,19.5,4.91,29.06.87,4.2,1.85,7.9,1.17,12.22-.6,3.79-2.79,7.54-4.69,10.87-5.13,9-6.91,18.45-4.1,28.54,1.86,6.7,7,12.25,12.9,15.89,12.24,7.55,17.25,7.5,43.07,9,15.3.91,31.34.68,44.48-8.4a33.45,33.45,0,0,0,11.94-15.12,37.6,37.6,0,0,0,2.39-9c1-5.24-.35-12.08-2.05-17-2.56-7.36-4.88-17.11-2.44-24.87,5.65-18.08,9.95-42.09,10.5-51.39,2.05-34.65-24.13-43.64-56.95-45.58"/><path class="cls-12" d="M119,100.26A1.85,1.85,0,0,1,117.86,97c1.87-1.66,5.11-3.3,10.5-3s8.11,2.2,9.51,3.93a1.85,1.85,0,0,1-1.53,3Z"/><path class="cls-4" d="M132.48,89.89c.28-4.73,4.6-8.32,9.64-8a8.87,8.87,0,0,1,8.63,9.1"/><path class="cls-12" d="M141.25,90.4a4,4,0,0,1,7.94.47"/><path class="cls-4" d="M105.33,88.28c.28-4.73,4.62-8.31,9.69-8s9,4.37,8.67,9.1"/><path class="cls-12" d="M114.15,88.8a4,4,0,0,1,7.94.47"/><path class="cls-12" d="M106.17,84.09l-4.63-2.29,4,3.77c-.07.2-.12.39-.17.58l-4.08-.79,3.83,2a7.54,7.54,0,0,0-.1.91c2.64-7.29,7.11-8,8.38-8.07C109.35,80.08,107.25,82.05,106.17,84.09Z"/><path class="cls-12" d="M113.4,80.19c.12,0,.23,0,.36,0Z"/><path class="cls-12" d="M154.83,88.52l-4.15.3c0-.19-.06-.38-.1-.59L155,85l-4.87,1.73c-.83-2.15-2.68-4.36-6.72-4.72,1.25.2,5.61,1.45,7.37,9a8.57,8.57,0,0,0,0-.92Z"/><polyline class="cls-9" points="255.36 252.49 248.1 252.49 248.1 221.22 189.65 221.22 189.65 252.49 182.23 252.49 182.23 218.3 182.35 218.3 182.35 211.63 255.36 211.63 255.36 218.39"/><rect class="cls-10" x="176.61" y="196.76" width="84.98" height="16.99" rx="5.14"/><polyline class="cls-11" points="88.11 202.03 106.39 249.85 113.13 248.12 106.15 197.57"/><polygon class="cls-13" points="114.42 254.42 108.63 255.91 100.56 235.1 110.96 232.43 114.42 254.42"/><path class="cls-14" d="M128.72,251.23a10.34,10.34,0,0,0-20,5.14"/><polyline class="cls-11" points="113.98 195.66 132.25 243.48 139 241.75 132.02 191.19"/><polygon class="cls-13" points="139.74 248.41 133.94 249.9 126.67 228.88 136.86 226.26 139.74 248.41"/><path class="cls-14" d="M153.73,244.78a10.34,10.34,0,1,0-20,5.14"/><path class="cls-8" d="M73.36,145s7.58,21.13,19.15,24.91,28.18,3.65,28.18,3.65"/><path class="cls-6" d="M129.69,179.72a1.53,1.53,0,0,0,.18-3l-5.2-.3a5.74,5.74,0,0,0,.52-1.22l6.24.37a1.53,1.53,0,0,0,.17-3l-6.23-.37A5.62,5.62,0,0,0,125,171l5.36.32a1.53,1.53,0,0,0,.18-3l-8.93-.52a4.22,4.22,0,0,0-.86-.17l1.74-.47a1.56,1.56,0,0,0,1-1.84h0a1.34,1.34,0,0,0-1.64-1.1l-9.32,2.55a1.32,1.32,0,0,0-.83.67,5.8,5.8,0,0,0-3.79,5.23c-.19,3.18,2,5.92,4.87,6.09l7.08.42a.75.75,0,0,0,.15,0l.07,0Z"/><path class="cls-11" d="M218.29,207.2h-10c-28.32,0-33.17-21.78-33.17-40.1V100.44a28.06,28.06,0,0,1,28.06-28.06H223.4a28.06,28.06,0,0,1,28.07,28.06V167.1C251.47,185.42,245.75,207.2,218.29,207.2Z"/><path class="cls-12" d="M195.83,134.09a2.11,2.11,0,0,1-1.52-3.57c1.55-1.63,4.14-3.19,8.35-3.09s6.51,1.64,7.8,3.21a2.11,2.11,0,0,1-1.63,3.45Z"/><path class="cls-4" d="M175.23,120.58a8.71,8.71,0,0,1,17.42,0"/><path class="cls-4" d="M211.74,120.58a8.71,8.71,0,0,1,17.42,0"/><path class="cls-12" d="M175.52,118.36a5.08,5.08,0,0,0,6.92-6.49A8.73,8.73,0,0,0,175.52,118.36Z"/><polyline class="cls-11" points="190.87 192.16 185.27 240.97 189.77 242.03 205.53 195.63"/><polygon class="cls-15" points="188.35 248.02 184.1 247.01 187.06 224.33 195.28 226.28 188.35 248.02"/><path class="cls-14" d="M173.22,244.69a7.79,7.79,0,0,1,15.16,3.59"/><polyline class="cls-11" points="210.12 195.08 204.51 243.88 209.02 244.95 224.78 198.55"/><polygon class="cls-15" points="207.59 250.94 203.34 249.93 206.3 227.25 214.53 229.19 207.59 250.94"/><path class="cls-14" d="M192.47,247.6a7.78,7.78,0,0,1,15.15,3.59"/><circle class="cls-16" cx="181.78" cy="115.91" r="15.14"/><circle class="cls-16" cx="222.39" cy="115.91" r="15.14"/><path class="cls-16" d="M196.89,114.1s5.23-6.82,10.46,0"/><line class="cls-17" x1="175.13" y1="109.21" x2="187.63" y2="106.95"/><line class="cls-17" x1="229.6" y1="109.29" x2="218.14" y2="106.71"/><path class="cls-12" d="M212,118.36a5.08,5.08,0,0,0,6.92-6.49A8.71,8.71,0,0,0,212,118.36Z"/><path class="cls-5" d="M242.26,164.47s10.46,7.82,5,30.06"/><path class="cls-6" d="M241.93,192.67a5.13,5.13,0,0,1,5.45-1.5c2.9.74,4.93,3.21,4.51,5.5l-1,5.64s0,.08,0,.12,0,0,0,.06l-1.37,7.62a1.2,1.2,0,0,1-1.58.74,1.41,1.41,0,0,1-1.18-1.44l.75-4.15a5.24,5.24,0,0,1-1.2.07l-.89,5a1.2,1.2,0,0,1-1.58.74,1.41,1.41,0,0,1-1.18-1.44l.9-5a7.72,7.72,0,0,1-1-.57l-.77,4.27a1.19,1.19,0,0,1-1.57.74,1.41,1.41,0,0,1-1.18-1.44l1.29-7.12a3.47,3.47,0,0,1,0-.72l-.77,1.23a1.44,1.44,0,0,1-1.85.28h0a1.18,1.18,0,0,1-.67-1.59"/><path class="cls-18" d="M142.89,71.26s.8,6.17,9.49,6.73"/><path class="cls-18" d="M103.8,75.28c8.67.86,10.92-5.69,10.92-5.69"/></svg>