<svg id="Layer_1" data-name="Layer 1" xmlns="http://www.w3.org/2000/svg" viewBox="0 0 348 282.35"><defs><style>.cls-1{fill:#f8d979;}.cls-2{fill:#a4dbdd;}.cls-3{fill:#ffcb05;}.cls-4{fill:#fff;}.cls-16,.cls-17,.cls-18,.cls-5,.cls-8{fill:none;stroke-linecap:round;stroke-miterlimit:10;}.cls-5,.cls-8{stroke:#0f8ab2;}.cls-5{stroke-width:4px;}.cls-6{fill:#a2cced;}.cls-7{fill:#ffcc04;}.cls-8{stroke-width:5px;}.cls-9{fill:#fbad18;}.cls-10{fill:#e59425;}.cls-11{fill:#00a1cd;}.cls-12{fill:#0d4060;}.cls-13{fill:#ed1651;}.cls-14{fill:#504b48;}.cls-15{fill:#56c5d0;}.cls-16{stroke:#231f20;stroke-width:0.99px;}.cls-17,.cls-18{stroke:#0d4060;}.cls-17{stroke-width:1.98px;}.cls-18{stroke-width:2px;}</style></defs><polyline class="cls-1" points="0.47 282.23 0.47 -0.12 348.47 -0.12 348.47 282.23"/><path class="cls-2" d="M322.06,77.52c0-29-25-51.79-56.49-51.79s-57.08,23.52-57.08,52.54v48.09H322v-40S322.06,80.27,322.06,77.52Z"/><rect class="cls-3" x="201.29" y="123.65" width="120.7" height="6.53"/><path class="cls-4" d="M321.88,85.55s.08-6.11.08-8.86A49.18,49.18,0,0,0,320.8,66a8.27,8.27,0,0,0-1.44,1.2c-2.16-4.67-7.13-6.63-11.34-4.36a9.75,9.75,0,0,0-4.72,6.53,7.63,7.63,0,0,0-7.13.12C291.83,71.86,290,77.8,292,82.8c1.78,4.36,5.95,6.55,9.87,5.47a11.27,11.27,0,0,0,.72,5.71c2,5,7.21,7.14,11.55,4.8a9.33,9.33,0,0,0,4-4.38,9.11,9.11,0,0,0,3.7,3.44.56.56,0,0,1,.05-.08Z"/><path class="cls-4" d="M208.59,74.6c2,.66,8.21,1.07,10.25,0a9.2,9.2,0,0,0,2.27-1.74c2.24,4.85,7.41,6.89,11.78,4.53a10.13,10.13,0,0,0,4.9-6.79,7.94,7.94,0,0,0,7.41-.12c4.51-2.43,6.45-8.61,4.34-13.8-1.85-4.53-8.18-7.8-12.26-6.69a11.71,11.71,0,0,0-.75-5.93c-1.05-2.56-5.23-5.5-7.38-6.42C217.66,46.18,210,58,208.59,74.6Z"/><path class="cls-5" d="M185.08,151.29s-7.15,12.42-29,9.81"/><path class="cls-6" d="M156.77,155.19a5.1,5.1,0,0,1,2.36,5.13c-.25,3-2.36,5.39-4.69,5.35l-5.73-.09h-.18l-7.74-.12c-.61,0-1-.65-1-1.43a1.41,1.41,0,0,1,1.23-1.4l4.21.06a6.06,6.06,0,0,1-.26-1.17l-5-.08c-.61,0-1.05-.65-1-1.43a1.4,1.4,0,0,1,1.22-1.39l5.06.07a6.25,6.25,0,0,1,.41-1l-4.35-.07a1.19,1.19,0,0,1-1-1.43,1.41,1.41,0,0,1,1.23-1.4l7.23.11a3.55,3.55,0,0,1,.72-.09l-1.34-.56a1.43,1.43,0,0,1-.58-1.78h0c.24-.74.89-1.16,1.46-.92"/><rect class="cls-7" x="0.47" y="244.61" width="348" height="37.6"/><path class="cls-8" d="M174.69,135.67s-9.42,8.92-15.78,10.14-19-3.45-19-3.45"/><path class="cls-6" d="M167.73,134.44a5.82,5.82,0,0,0-.14,6.46,5.55,5.55,0,0,0,7.47,2.26l6.06-3.67.12-.09s0,0,.07,0l8.19-5a1.52,1.52,0,0,0-1.57-2.59l-4.46,2.69a6.65,6.65,0,0,0-.26-1.3l5.34-3.23A1.52,1.52,0,0,0,187,127.4l-5.34,3.23a6,6,0,0,0-.92-.76l4.59-2.78a1.52,1.52,0,0,0-1.57-2.59l-7.65,4.63a4.73,4.73,0,0,0-.8.35l1.16-1.38a1.56,1.56,0,0,0-.2-2.09h0a1.35,1.35,0,0,0-2,0"/><polyline class="cls-9" points="128.98 251.89 121.72 251.89 121.72 220.62 63.27 220.62 63.27 251.89 55.85 251.89 55.85 217.7 55.97 217.7 55.97 211.03 128.98 211.03 128.98 217.79"/><rect class="cls-10" x="50.22" y="196.16" width="84.98" height="16.99" rx="5.14"/><path class="cls-11" d="M94.9,34.51c-32.89,0-59.55,8.12-59.55,42.83,0,8.8,1.17,17.68,2.41,26.38,1.36,9.66,4.08,19.29,6.61,28.71,1.12,4.15,2.31,7.78,1.88,12.13-.37,3.82-2.33,7.7-4,11.13-4.59,9.28-5.81,18.83-2.41,28.73,2.25,6.58,7.71,11.82,13.82,15.1C66.29,206.34,71.29,206,97.15,206c15.33,0,31.33-1.17,43.91-11a33.46,33.46,0,0,0,11-15.79,38,38,0,0,0,1.86-9.11c.66-5.28-1.07-12-3-16.82-3-7.2-5.88-16.8-3.91-24.69,4.58-18.38,7.45-42.6,7.45-51.92,0-34.71-26.66-42.13-59.54-42.13"/><path class="cls-12" d="M130.79,95.05A1.78,1.78,0,0,1,132.14,98c-1.64,1.81-4.65,3.76-9.94,3.65s-7.93-2-9.24-3.78a1.78,1.78,0,0,1,1.45-2.81Z"/><path class="cls-4" d="M127.13,88.86c0-4.74,4.09-8.57,9.15-8.57a8.86,8.86,0,0,1,9.14,8.57"/><path class="cls-12" d="M135.91,88.86a4,4,0,0,1,8,0"/><path class="cls-4" d="M99.93,88.86c0-4.73,4.12-8.57,9.2-8.57s9.19,3.84,9.19,8.57"/><path class="cls-12" d="M108.76,88.86a4,4,0,1,1,7.95,0"/><path class="cls-12" d="M100.52,84.63l-4.76-2L100,86.14c-.06.21-.1.4-.14.59l-4.12-.55,3.94,1.76a8.73,8.73,0,0,0,0,.92c2.2-7.43,6.62-8.42,7.89-8.55C103.46,80.43,101.47,82.53,100.52,84.63Z"/><path class="cls-12" d="M107.51,80.31l.35,0Z"/><path class="cls-12" d="M149.36,86.18l-4.13.54c0-.18-.08-.38-.13-.58l4.21-3.52-4.75,2c-1-2.09-2.94-4.19-7-4.31,1.26.13,5.68,1.12,7.89,8.55,0,0,0-.36-.05-.92Z"/><polyline class="cls-9" points="255.83 252.37 248.58 252.37 248.58 221.1 190.12 221.1 190.12 252.37 182.7 252.37 182.7 218.18 182.82 218.18 182.82 211.51 255.83 211.51 255.83 218.27"/><rect class="cls-10" x="177.08" y="196.64" width="84.98" height="16.99" rx="5.14"/><polyline class="cls-11" points="88.58 201.91 106.86 249.73 113.6 248 106.62 197.44"/><polygon class="cls-13" points="114.9 254.3 109.09 255.79 101.03 234.97 111.43 232.3 114.9 254.3"/><path class="cls-14" d="M129.19,251.1a10.35,10.35,0,0,0-20,5.15"/><polyline class="cls-11" points="114.45 195.54 132.72 243.35 139.47 241.62 132.49 191.07"/><polygon class="cls-13" points="140.21 248.29 134.41 249.78 127.14 228.76 137.33 226.14 140.21 248.29"/><path class="cls-14" d="M154.2,244.65a10.35,10.35,0,0,0-20,5.15"/><path class="cls-8" d="M59.93,135.26s-.37,22.45,9.12,30.07S94.12,178.7,94.12,178.7"/><path class="cls-6" d="M109.69,187.26a1.52,1.52,0,0,0,.64-3l-5.1-1.09a5.64,5.64,0,0,0,.7-1.13l6.11,1.31a1.52,1.52,0,0,0,.64-3l-6.11-1.31a5.87,5.87,0,0,0-.15-1.19l5.25,1.13a1.53,1.53,0,0,0,.63-3l-8.74-1.87a4.52,4.52,0,0,0-.83-.29l1.79-.21a1.55,1.55,0,0,0,1.29-1.66h0a1.35,1.35,0,0,0-1.46-1.34l-9.59,1.11a1.39,1.39,0,0,0-.93.53A5.81,5.81,0,0,0,89.3,177a5.55,5.55,0,0,0,3.89,6.76l6.93,1.48.15,0,.07,0Z"/><path class="cls-11" d="M218.76,207.08h-10c-28.32,0-33.17-21.78-33.17-40.1V100.32a28.06,28.06,0,0,1,28.06-28.06h20.24a28.06,28.06,0,0,1,28.07,28.06V167C251.94,185.3,246.22,207.08,218.76,207.08Z"/><path class="cls-12" d="M196.47,132.52c-1.72,0-2.72-1.31-1.63-2.19,1.39-1.13,3.81-2.26,7.87-2.19s6.21,1.19,7.36,2.28c.93.89-.1,2.1-1.73,2.1Z"/><path class="cls-4" d="M175.7,120.46a8.72,8.72,0,0,1,17.43,0"/><path class="cls-4" d="M212.21,120.46a8.71,8.71,0,0,1,17.42,0"/><path class="cls-12" d="M176,118.24a5.08,5.08,0,0,0,6.92-6.49A8.72,8.72,0,0,0,176,118.24Z"/><polyline class="cls-11" points="191.34 192.04 185.74 240.85 190.24 241.91 206 195.51"/><polygon class="cls-15" points="188.82 247.9 184.57 246.89 187.53 224.21 195.75 226.16 188.82 247.9"/><path class="cls-14" d="M173.7,244.57a7.78,7.78,0,0,1,15.15,3.58"/><polyline class="cls-11" points="210.59 194.96 204.98 243.76 209.49 244.83 225.25 198.42"/><polygon class="cls-15" points="208.06 250.81 203.81 249.81 206.77 227.12 215 229.07 208.06 250.81"/><path class="cls-14" d="M192.94,247.48a7.78,7.78,0,0,1,15.15,3.59"/><circle class="cls-16" cx="182.25" cy="115.79" r="15.14"/><circle class="cls-16" cx="222.86" cy="115.79" r="15.14"/><path class="cls-16" d="M197.36,114s5.23-6.83,10.46,0"/><line class="cls-17" x1="176.6" y1="106.08" x2="189.1" y2="103.82"/><line class="cls-17" x1="229.07" y1="111.17" x2="217.61" y2="108.59"/><path class="cls-12" d="M212.47,118.24a5.08,5.08,0,0,0,6.92-6.49A8.69,8.69,0,0,0,212.47,118.24Z"/><path class="cls-5" d="M235.66,156s-7.83,18.91-30.07-3.84"/><path class="cls-6" d="M196.06,153.7a6.8,6.8,0,0,1-2-1.52,1.31,1.31,0,0,1,.23-2.09c.23-.16.21-.22.07-.41a6.08,6.08,0,0,1-.33-.62c0-.61.1-1.23.68-1.54.42-.22.54-.4.33-.85a1.49,1.49,0,0,1,.1-1.31c.23-.47.74-.57,1.09-.85,0-.26-.23-.31-.38-.41-1.3-.93-1.6-1.86-2.89-2.81a1.33,1.33,0,0,1-.47-1.87,1.27,1.27,0,0,1,2-.42c.52.31,1,.68,1.49,1,2.25,1.58,3.5,3.17,5.75,4.75.23.16.5.42.77.25s0-.49,0-.73a5.06,5.06,0,0,1,2.87-5.37,1.75,1.75,0,0,1,2,.3c.41.67,0,1.2-.4,1.73-1.46,2-1,4,.48,5.76a12.59,12.59,0,0,1,1.62,2.11c1.6,2.91-.89,5.89-3.51,7C202.28,157.26,198.81,155.43,196.06,153.7Z"/><path class="cls-18" d="M99.07,76.84s3.69-8.47,11.79-4.07"/><path class="cls-18" d="M145.42,76.84s-2.69-8.62-10.79-4.21"/></svg>