<svg id="Layer_1" data-name="Layer 1" xmlns="http://www.w3.org/2000/svg" viewBox="0 0 348 282.35"><defs><style>.cls-1{fill:#f8d979;}.cls-2{fill:#a4dbdd;}.cls-3{fill:#fff;}.cls-4{fill:#ffcc04;}.cls-15,.cls-16,.cls-17,.cls-18,.cls-5{fill:none;stroke-linecap:round;stroke-miterlimit:10;}.cls-17,.cls-5{stroke:#0f8ab2;}.cls-5{stroke-width:5px;}.cls-6{fill:#a2cced;}.cls-7{fill:#fbad18;}.cls-8{fill:#e59425;}.cls-9{fill:#00a1cd;}.cls-10{fill:#0d4060;}.cls-11{fill:#ed1651;}.cls-12{fill:#504b48;}.cls-13{fill:#ffcb05;}.cls-14{fill:#56c5d0;}.cls-15{stroke:#231f20;stroke-width:0.99px;}.cls-16{stroke:#0d4060;stroke-width:1.98px;}.cls-17{stroke-width:3.86px;}.cls-18{stroke:#0d4161;stroke-width:1.88px;}</style></defs><polyline class="cls-1" points="0 282.35 0 0 348 0 348 282.35"/><path class="cls-2" d="M321.59,77.64c0-29-25-51.79-56.49-51.79S208,49.38,208,78.39v48.09H321.51v-40S321.59,80.4,321.59,77.64Z"/><path class="cls-3" d="M321.51,85.83s.08-6.1.08-8.86a49.16,49.16,0,0,0-1.16-10.65A8.68,8.68,0,0,0,319,67.51c-2.15-4.67-7.13-6.62-11.34-4.35a9.76,9.76,0,0,0-4.72,6.53,7.64,7.64,0,0,0-7.12.11c-4.35,2.35-6.22,8.29-4.18,13.28,1.78,4.36,5.95,6.55,9.87,5.48a11.23,11.23,0,0,0,.73,5.7c2,5,7.2,7.15,11.54,4.81a9.31,9.31,0,0,0,4-4.39,9,9,0,0,0,3.71,3.44l0-.08Z"/><path class="cls-3" d="M208.22,74.88c2,.67,8.21,1.08,10.26,0a9.34,9.34,0,0,0,2.26-1.74C223,78,228.15,80,232.52,77.65a10.2,10.2,0,0,0,4.91-6.79,8,8,0,0,0,7.4-.12c4.51-2.44,6.45-8.61,4.34-13.8-1.85-4.53-8.18-7.81-12.26-6.69a11.69,11.69,0,0,0-.75-5.93c-1-2.57-5.23-5.51-7.38-6.42C217.29,46.46,209.67,58.26,208.22,74.88Z"/><rect class="cls-4" y="244.75" width="348" height="37.6"/><path class="cls-5" d="M153,125.82s-2,12.82-6.25,17.68-17.1,8.91-17.1,8.91"/><path class="cls-6" d="M146.78,129.11a5.81,5.81,0,0,0,3.85,5.19c3,1.14,6.25-.12,7.28-2.8l2.54-6.61s0-.1,0-.15l0-.06,3.42-8.93a1.52,1.52,0,0,0-2.83-1.09l-1.86,4.86a6,6,0,0,0-1-.86l2.24-5.83a1.52,1.52,0,0,0-2.83-1.09l-2.24,5.83a6.8,6.8,0,0,0-1.19,0l1.92-5a1.44,1.44,0,0,0-.92-1.81,1.46,1.46,0,0,0-1.91.73l-3.2,8.35a5.19,5.19,0,0,0-.42.77l.08-1.8a1.56,1.56,0,0,0-1.44-1.53h0a1.35,1.35,0,0,0-1.56,1.23"/><polyline class="cls-7" points="118.51 252.01 111.25 252.01 111.25 220.74 52.79 220.74 52.79 252.01 45.38 252.01 45.38 217.82 45.5 217.82 45.5 211.16 118.51 211.16 118.51 217.92"/><rect class="cls-8" x="39.75" y="196.28" width="84.98" height="16.99" rx="5.14"/><path class="cls-9" d="M84.43,34.63c-32.89,0-59.55,8.12-59.55,42.83,0,8.81,1.17,17.68,2.4,26.38,1.37,9.66,4.09,19.29,6.62,28.71,1.12,4.15,2.31,7.78,1.88,12.14-.37,3.81-2.33,7.69-4,11.13-4.59,9.27-5.81,18.82-2.41,28.73,2.25,6.57,7.71,11.81,13.82,15.1,12.66,6.81,17.66,6.46,43.52,6.46,15.33,0,31.33-1.17,43.9-11a33.44,33.44,0,0,0,11-15.8,38,38,0,0,0,1.86-9.11c.66-5.28-1.07-12-3.06-16.82-3-7.2-5.87-16.8-3.9-24.68C141.1,110.3,144,86.08,144,76.76c0-34.71-26.66-42.13-59.54-42.13"/><path class="cls-10" d="M103.81,100.13A1.84,1.84,0,0,1,102.48,97c1.77-1.77,4.9-3.6,10.31-3.58s8.22,1.72,9.72,3.36a1.85,1.85,0,0,1-1.35,3.08Z"/><path class="cls-3" d="M116.66,89c0-4.73,4.09-8.57,9.15-8.57A8.87,8.87,0,0,1,135,89"/><path class="cls-10" d="M125.44,89a4,4,0,0,1,8,0"/><path class="cls-3" d="M89.46,89c0-4.73,4.12-8.57,9.19-8.57s9.2,3.84,9.2,8.57"/><path class="cls-10" d="M98.29,89a4,4,0,1,1,7.95,0"/><path class="cls-10" d="M90.05,84.75l-4.76-2,4.22,3.53c-.06.2-.1.39-.14.58l-4.12-.55,3.94,1.77a8.52,8.52,0,0,0,0,.91c2.2-7.43,6.62-8.42,7.89-8.55C93,80.55,91,82.65,90.05,84.75Z"/><path class="cls-10" d="M97,80.43l.35,0Z"/><path class="cls-10" d="M138.88,86.3l-4.12.55c0-.19-.08-.38-.13-.58l4.21-3.53-4.75,2c-1-2.1-2.94-4.2-7-4.32,1.26.13,5.68,1.12,7.88,8.55a8.73,8.73,0,0,0,0-.92Z"/><polyline class="cls-7" points="265.36 252.49 258.11 252.49 258.11 221.22 199.65 221.22 199.65 252.49 192.23 252.49 192.23 218.3 192.35 218.3 192.35 211.63 265.36 211.63 265.36 218.39"/><rect class="cls-8" x="186.61" y="196.76" width="84.98" height="16.99" rx="5.14"/><polyline class="cls-9" points="78.11 202.03 96.39 249.85 103.13 248.12 96.15 197.57"/><polygon class="cls-11" points="104.42 254.42 98.63 255.91 90.56 235.1 100.96 232.43 104.42 254.42"/><path class="cls-12" d="M118.72,251.23a10.34,10.34,0,0,0-20,5.14"/><polyline class="cls-9" points="103.98 195.66 122.25 243.48 129 241.75 122.02 191.19"/><polygon class="cls-11" points="129.74 248.41 123.94 249.9 116.67 228.88 126.86 226.26 129.74 248.41"/><path class="cls-12" d="M143.73,244.78a10.34,10.34,0,1,0-20,5.14"/><path class="cls-5" d="M50.89,147.48s8.81,23.65,20.58,26.74,28.35-1,28.35-1"/><path class="cls-6" d="M110.17,180.82a1.52,1.52,0,0,0,0-3H105a6.54,6.54,0,0,0,.45-1.24h6.24a1.53,1.53,0,0,0,0-3h-6.24a6.73,6.73,0,0,0-.39-1.12h5.36a1.52,1.52,0,0,0,0-3h-8.94a4.23,4.23,0,0,0-.87-.11l1.71-.58a1.57,1.57,0,0,0,.91-1.9h0a1.35,1.35,0,0,0-1.71-1l-9.15,3.09a1.4,1.4,0,0,0-.79.72A5.8,5.8,0,0,0,88.07,175a5.54,5.54,0,0,0,5.22,5.79h16.88Z"/><rect class="cls-13" x="200.82" y="123.77" width="120.7" height="6.53"/><path class="cls-9" d="M228.29,207.2h-10c-28.32,0-33.17-21.78-33.17-40.1V100.44a28.06,28.06,0,0,1,28.06-28.06H233.4a28.06,28.06,0,0,1,28.07,28.06V167.1C261.47,185.42,255.75,207.2,228.29,207.2Z"/><path class="cls-10" d="M204.78,134.09a1.6,1.6,0,0,1-1.33-2.51c1.37-1.94,4.09-4.27,9.21-4.15s7.48,2.42,8.54,4.28a1.61,1.61,0,0,1-1.42,2.38Z"/><path class="cls-3" d="M185.23,120.58a8.71,8.71,0,0,1,17.42,0"/><path class="cls-3" d="M221.74,120.58a8.71,8.71,0,0,1,17.42,0"/><path class="cls-10" d="M185.52,118.36a5.08,5.08,0,0,0,6.92-6.49A8.73,8.73,0,0,0,185.52,118.36Z"/><polyline class="cls-9" points="200.87 192.16 195.27 240.97 199.77 242.03 215.53 195.63"/><polygon class="cls-14" points="198.35 248.02 194.1 247.01 197.06 224.33 205.28 226.28 198.35 248.02"/><path class="cls-12" d="M183.22,244.69a7.79,7.79,0,0,1,15.16,3.59"/><polyline class="cls-9" points="220.12 195.08 214.51 243.88 219.02 244.95 234.78 198.55"/><polygon class="cls-14" points="217.59 250.94 213.34 249.93 216.3 227.25 224.53 229.19 217.59 250.94"/><path class="cls-12" d="M202.47,247.6a7.78,7.78,0,0,1,15.15,3.59"/><circle class="cls-15" cx="191.78" cy="115.91" r="15.14"/><circle class="cls-15" cx="232.39" cy="115.91" r="15.14"/><path class="cls-15" d="M206.89,114.1s5.23-6.82,10.46,0"/><line class="cls-16" x1="185.13" y1="109.21" x2="197.63" y2="106.95"/><line class="cls-16" x1="239.6" y1="109.29" x2="228.14" y2="106.71"/><path class="cls-10" d="M222,118.36a5.08,5.08,0,0,0,6.92-6.49A8.71,8.71,0,0,0,222,118.36Z"/><path class="cls-17" d="M236,171.26s-12.21-4.39-13.13-26.17"/><path class="cls-6" d="M228.47,145.39a5.11,5.11,0,0,1-4.82,3c-3,.09-5.62-1.72-5.86-4l-.58-5.7v-.12a.14.14,0,0,1,0-.06l-.79-7.7c-.06-.61.53-1.12,1.31-1.15a1.41,1.41,0,0,1,1.53,1.06l.43,4.19a5.81,5.81,0,0,1,1.13-.4l-.51-5c-.06-.61.53-1.12,1.31-1.15a1.41,1.41,0,0,1,1.53,1.06l.51,5a6.47,6.47,0,0,1,1.09.29l-.44-4.32c-.06-.61.53-1.12,1.31-1.15a1.41,1.41,0,0,1,1.53,1.06l.73,7.2a3.27,3.27,0,0,1,.18.7l.4-1.4a1.43,1.43,0,0,1,1.7-.79h0c.76.16,1.25.76,1.08,1.35"/><path class="cls-18" d="M125.12,68.83S126.28,75,135,75"/><path class="cls-18" d="M86.34,75.14c8.7.36,10.56-6.31,10.56-6.31"/><path class="cls-17" d="M187.34,171.19S200.61,166,201,145.12"/><path class="cls-6" d="M196,145.07a5.1,5.1,0,0,0,4.77,3c3,.15,5.65-1.62,5.92-3.93l.69-5.69v-.12a.14.14,0,0,0,0-.06l.92-7.69c.07-.6-.51-1.13-1.29-1.16a1.41,1.41,0,0,0-1.55,1l-.5,4.19a6.48,6.48,0,0,0-1.12-.42l.6-5c.07-.6-.51-1.12-1.29-1.16a1.41,1.41,0,0,0-1.55,1l-.6,5a6.43,6.43,0,0,0-1.09.27l.51-4.31c.08-.61-.5-1.13-1.28-1.17a1.4,1.4,0,0,0-1.55,1l-.86,7.18a3.46,3.46,0,0,0-.19.7l-.38-1.41a1.44,1.44,0,0,0-1.68-.81h0c-.77.14-1.27.73-1.11,1.32"/></svg>