<?xml version="1.0" encoding="UTF-8"?>
<svg id="Layer_1" data-name="Layer 1" xmlns="http://www.w3.org/2000/svg" xmlns:xlink="http://www.w3.org/1999/xlink" viewBox="0 0 1163.19 1163.19">
  <defs>
    <style>
      .cls-1 {
        fill: none;
      }

      .cls-2 {
        fill: #a7bcac;
      }

      .cls-3 {
        fill: #010101;
      }

      .cls-4 {
        fill: #653c29;
      }

      .cls-5 {
        fill: #331d17;
      }

      .cls-6 {
        fill: url(#linear-gradient);
      }

      .cls-7 {
        fill: #f1eef7;
      }

      .cls-8 {
        fill: #67876f;
      }

      .cls-9 {
        fill: #a66e53;
      }

      .cls-10 {
        clip-path: url(#clippath-1);
      }

      .cls-11 {
        fill: #ccb631;
      }

      .cls-12 {
        clip-path: url(#clippath);
      }
    </style>
    <clipPath id="clippath">
      <circle class="cls-1" cx="314.05" cy="-910.73" r="581.59"/>
    </clipPath>
    <clipPath id="clippath-1">
      <circle class="cls-1" cx="581.49" cy="581.18" r="581.59"/>
    </clipPath>
    <linearGradient id="linear-gradient" x1="581.52" y1="574.95" x2="568.23" y2="-588.16" gradientUnits="userSpaceOnUse">
      <stop offset=".11" stop-color="#bbe5f5"/>
      <stop offset=".63" stop-color="#76c7db"/>
    </linearGradient>
  </defs>
  <g class="cls-12">
    <path class="cls-11" d="M706.23,422.43c53.67-6.67,107.84-9.69,161.82-9.7-1.48-34.72-3.5-67.52-6.44-97.26-7.91-92.85-45.57-331.34-63.15-438.32-23.9-145.49-123.25-299.57-136.16-305.54,0,0-28.79,478.42,11.84,627.58,12.68,46.54,23.37,130.18,32.09,223.24Z"/>
    <path class="cls-11" d="M805.96,636.77c-23.57-175.51-28.97-177.9-28.97-177.9l-16.63-83.03-17.25-304.31c15.51-79.37,45.14-137.84,24.86-169.8l-68.37-334.99-284.07-118.22c6.69,11.87,88.32,97.68-31.52,129.69-.09.02-29.5.49-29.59.51-154.68-6.31-261.29-165.51-261.29-165.51l-254.47,123.94,12.22,717.19s-215.99,344.13-222,490.6c-7.38,179.81,23.13,367.31,85.26,523.52,6.35,15.95,242.79,43.29,267.4,45.73,92.38,9.16,185.41,11.7,278.15,7.62,182.28-8.01,358.04-50.59,535.36-86.58,0,0,34.48-422.95,10.91-598.46Z"/>
  </g>
  <g class="cls-10">
    <circle class="cls-6" cx="581.59" cy="581.59" r="581.59"/>
    <circle class="cls-1" cx="581.59" cy="581.59" r="581.59"/>
    <circle class="cls-1" cx="581.59" cy="581.59" r="581.59"/>
    <path class="cls-9" d="M871.48,614.94c3.66-35.62,2.58-75.16-2.26-96.62.36-16.49.66-35.64.91-58.73.07-6.7-.05-13.13-.2-19.5-.39-3.27-.49-6.55-.33-9.83-4.73-112.49-42.41-171.02-42.41-171.02-48.15-74.11-131.96-116.93-220.1-112.45-103.77,3.1-196.84,67.08-245.07,131.04-23.97,31.66-35.43,71.07-32.17,110.66,2.72,33.83,10.94,71.78,20.41,108.46-36.28-1.32-71.71,12.02-57.88,78.73,19.07,92.02,78.8,120.06,106.5,94.45,6.45,1.09,19.54,28.87,21.23,48.11,3.24,36.82,2.38,102.25-15.44,134.64l1.08,10.48c79.43,125.42,194.63,242.57,451.52,78.49l-145.09-90.46-1.04-30.37c10.03-.79,19.94-4.07,29.91-6.1,40.96-8.31,68.61-36.72,89.65-70.73,17.82-28.81,33.98-89.35,39.89-123,.36-2.07.68-4.16.89-6.25Z"/>
    <path class="cls-2" d="M269.46,1368.95c-20.15,102.81-17.04,151.61-20.69,164.93-1.54,5.58-38.81,484.16-82.85,703.67,53.79,18.14,68.35,29.55,124.45,39.52,81.52,14.49,194.13,46.31,276.66,44.85,74.4-1.31,223.07,6.18,297.17.05,84.77-7.01,103.28-24.7,185.72-60.19-19.97-177.49-38.37-621.11-41.12-704.11-2.75-91.39,8.47-52.02,8.47-52.02,0,0,48.63,13.88,106.06-26.29-36.45-103.86-31.56-441.83-202.96-540.12-24.24-13.9-164.76-68.51-204.41-85.9,9.25,15.67,10.84,40.92,8.15,52.11-7.75,32.24-7.65,39.89-33.59,55.17-22.91,13.49-100.51,26.56-126.72,19.81-134.43-34.64-130.58-89.32-159.68-141.67-58.58,31.89-98.46,53.23-154.67,77.16-209.99,89.38-162.97,401.86-162.97,401.86,36.66,22.85,182.97,51.17,182.97,51.17Z"/>
    <path class="cls-5" d="M710.59,821.18s-98.77,8.87-188.25-48.88c0,0,11.03,29.63,74.55,51.41,63.52,21.79,113.88,13.5,113.88,13.5l-.18-16.04Z"/>
    <ellipse cx="831.15" cy="490.25" rx="22.13" ry="22.05" transform="translate(164.52 1187.93) rotate(-76.84)"/>
    <path d="M857.07,471.54c-10.6-6.59-25.13-10.87-46.47-8.81-34.18,3.29-49.37,46.31-49.37,46.31,0,0,17.95-32.89,51.61-36.98,16.22-1.97,43.01,7.34,55.45,13.57-.36-3.26-4.87-9.74-11.22-14.08Z"/>
    <path class="cls-3" d="M319.1,580.28c-3.9-10.91-5.62-23.94-.63-34.83.3-.65.61-1.31,1.01-1.9l-1.16.58c.2-.02-.33-.03-.15,0,.1.02.23,0,.33,0,.08,0,.16.01.24.02.3.02-.2-.04.13.02.26.04.52.09.78.14,1.78.4,3.48,1.19,5.18,2.15,8.15,4.61,14.67,12.17,20.38,19.42,6.33,8.04,11.91,16.65,17.13,25.45l2.02-.86c-2.53-1.82-5.59-3.32-8.69-3.73-2.17-.29-4.46.04-6.26,1.37-1.61,1.19-2.47,3.02-3.02,4.89-2.14,7.23.44,15.33,6.17,20.16,4.88,4.12,11.26,5.77,17.5,6.31.85.07,2.3-1.13.84-1.25-8.95-.78-18.37-4.57-21.8-13.54-1.14-2.99-1.53-6.27-1.08-9.44s1.64-7.29,5.37-7.36c2.12-.04,4.24.83,6.1,1.77.7.35,1.38.74,2.04,1.15.22.14.44.28.66.43.06.04.39.27.14.09.52.37,2.54.02,2.02-.86-6.45-10.86-13.43-21.54-21.78-31.05-4.36-4.97-9.17-9.79-14.82-13.3-2.31-1.44-4.92-2.78-7.65-3.15-.48-.07-1.02-.13-1.51-.06-1.57.23-2.17,2.43-2.69,3.67-4.48,10.89-2.86,23.5,1,34.29.28.77,2.43.15,2.17-.58h0Z"/>
    <ellipse cx="596.25" cy="494.15" rx="22.13" ry="22.05" transform="translate(-20.69 962.22) rotate(-76.84)"/>
    <path d="M658.3,508.19s-33.58-44.54-71.21-41.2c-52.93,4.7-62.01,26.75-72.13,43.82,0,0,32.3-32.23,73.31-34.86,37.2-2.38,70.02,32.23,70.02,32.23Z"/>
    <path class="cls-4" d="M717.08,665.59c-30.74.19-80.58-3.11-80.58-3.11,0,0-3.64,84.74,81.61,82.83,71.25-1.6,72.23-82.17,72.23-82.17,0,0-42.51,2.26-73.25,2.45Z"/>
    <path d="M718.22,665.58c-14.71.09-69.49-.18-69.49-.18,0,0,13,47.83,66.2,47.5,57.69-.35,66.21-44.44,66.21-44.44l-62.92-2.88Z"/>
    <path class="cls-7" d="M720.75,672.5c-15.1.09-61.08-2.09-61.08-2.09,0,0,18.14,12.33,63.45,12.06,45.31-.28,58.1-12.34,58.1-12.34l-60.47,2.37Z"/>
    <path class="cls-4" d="M795.18,662.61c0-1.63-3.29-2.33-10.79-2.9-12.51-.96-16.61-5.41-25.67-6.02-15.47-1.05-25.25,4.89-31.98,4.93-6.72.04-16.58-5.78-32.04-4.54-9.05.73-31.45,4.04-43.95,5.15-7.5.67-16.31-2.09-17.91-1.7-2.23.54,3.1,21.06,87.61,20.54,84.51-.52,74.73-13.23,74.73-15.46Z"/>
    <path d="M653.64,419.72c.1-.78-2.83-1-2.75-1.78-45.59-12.13-80.59-14.42-93.5-12.72-9.81,1.28-19.41,4.45-28.56,8.93,0,0-25.28,11.96-28.52,17.02-3.23,5.06,15.16-1.98,15.16-1.98,3.93-.93,6.62-2.16,10.61-2.59,21.93-2.38,43.02-7.55,64.83-3.94,18.66,2.98,43.58,14.34,61.3,21.68.94-8.44-.21-16.33,1.42-24.63Z"/>
    <path d="M869.9,426.93c-.12-1.54-.43-3.05-.86-4.52-2.41-1.31-4.02-2.14-4.02-2.14-8.46-4.52-17.34-7.73-26.4-9.06-11.92-1.75-44.21.38-86.23,12.31.08.78-2.62.99-2.53,1.77,1.55,8.31.52,16.18,1.42,24.63,16.32-7.26,39.26-18.51,56.47-21.41,20.11-3.52,39.6,1.75,59.84,4.22.77.09,1.49.23,2.18.38.18-2.06.27-4.12.12-6.19Z"/>
    <path d="M838.67,281.65c-26.09-105.62-102.92-152.24-208.1-160.67-90.77-7.28-178.87-15.43-260.08,46.04-13.39,10.28-57.21,42.26-73.58,70.83-56.69,99.13-28.13,204.63-1.94,284.15,1.6-.73,6.61-9.13,8.21-9.86,9.49-2.91,14.13-1.97,23.8.26,6.91.79,13.64,3.9,19.92,6.62,6.27,2.71,12.21,7.41,17.2,11.66,10.92,9.29,16.91,21.36,22.1,34.39.19.56.19,1.13.36,1.68,8.91,2.89,5.97,3.02,14.17-2.9,7.61-5.5,4.08-25.56,5.53-34.48,2.95-18.2-.31-36.49-1.19-54.73-1.95-9.99-4.13-19.91-6.78-29.74-10.9-41.26,5.23-65.7,13.81-102.02,0,0,16.99-53.41,77.22-86.34,65.96-35.93,94.08,8.65,177.06,5.62,71.67-2.9,79.97-47.54,131.15-18.24,0,0,16.59,4.53,23,11.91,6.4,7.39,18.16,25.84,18.16,25.84Z"/>
    <g>
      <path class="cls-3" d="M734.38,624.87c-7.29,4.21-18.68,3.75-26.36-.61-1.7-.97-7.21.26-4.82,1.61,10.14,5.75,26.46,5.67,35.87.24.93-.54.74-1.27-.47-1.62-1.26-.37-3.22-.21-4.22.37"/>
      <path class="cls-3" d="M699.89,623.87c-5.09-2.17-10.75-3.2-16.37-3.41-.82-.03-1.87.32-2.45.89-.46.44-.53,1.01.1,1.34,2.64,1.39,5.95,1.87,8.97,1.69.95-.05,2.2-.34,2.71-1.19.47-.78-.47-1.23-1.21-1.19-2.5.15-5.07-.25-7.24-1.39-.79.74-1.57,1.48-2.37,2.23,5.02.19,10.08,1.15,14.63,3.1.9.39,2.18.06,2.95-.45.58-.38,1.19-1.23.28-1.62"/>
      <path class="cls-3" d="M677.69,625.45c-6.56.1-14.37-2.45-17.78-7.27-5.15-7.27-1.06-19.99,6.93-25.08.87-.55.37-1.21-.54-1.36-1.19-.21-2.56.29-3.47.87-6.97,4.44-11.22,15.06-9.88,22.02,1.25,6.5,7.69,10.82,15.6,12.4,2.35.47,4.85.75,7.3.72.99-.02,2.77-.39,3.22-1.18.46-.81-.46-1.12-1.39-1.1"/>
      <path class="cls-3" d="M746.26,621.05c-.38-.74.25-1.26.78-1.27,1.77-.02,3.56-.59,5.02-1.88.61.69,1.21,1.37,1.81,2.06-3.53.53-7.03,1.84-10.12,4.09-.61.45-1.53.21-2.11-.24-.43-.34-.92-1.15-.3-1.6"/>
      <path class="cls-3" d="M741.33,622.21c3.45-2.51,7.38-3.92,11.32-4.52.58-.08,1.34.2,1.79.72.35.41.44.97.02,1.34"/>
      <path class="cls-3" d="M759.9,621.4c4.25-.33,9.15-3.4,11.06-8.42,2.88-7.59-.4-16.34-5.9-20.89-.6-.5-.32-1.18.26-1.39.76-.28,1.68.12,2.3.63,4.79,3.97,8.05,10.6,7.62,17.64-.4,6.57-4.31,11.3-9.33,13.4-1.5.62-3.1,1.07-4.69,1.2-.64.05-1.82-.2-2.16-.97-.35-.78.23-1.14.83-1.19"/>
    </g>
  </g>
  <g>
    <path class="cls-2" d="M335.73,874.65s47.1-61.04,81.34-79.3c0,0,117.81,180.77,232.47,180.2,0,0-85.88,41.16-93,100.47,0,0-231.05-113.7-221.81-199.32"/>
    <path class="cls-8" d="M338.43,874.73c8.65-11.19,17.91-21.95,27.46-32.38,15.57-17.01,32.51-35.01,52.99-46.11l-4.49.25c14.17,21.72,30.49,42.26,47.36,61.92,32.05,37.34,68.56,73.26,111.96,97.19,22.89,12.62,48.34,21.63,74.72,21.63l-.04-2.9c-10.69,5.14-20.92,11.47-30.69,18.18-18.78,12.88-36.7,28.2-49.5,47.22-7.42,11.03-12.85,23.41-14.55,36.66l5.2-1.77c-26.26-12.93-51.79-27.62-76.69-42.99-22.5-13.89-44.52-28.64-65.44-44.82-19.84-15.36-39.13-32.04-55.03-51.55-13.28-16.29-26.26-36.94-24.06-58.89.24-2.36-5.6-1.3-5.8.71-1.91,19,7.2,36.98,17.98,51.99,14.46,20.16,33.16,37.2,52.35,52.75,38.06,30.84,80.13,56.83,123.03,80.35,9.59,5.26,19.24,10.45,29.06,15.29,1.29.64,4.97.05,5.2-1.77,3.01-23.39,17.49-43.21,34.16-59.1,14.01-13.36,29.98-24.65,46.77-34.24,3.47-1.98,6.95-3.92,10.33-5.55,1.64-.79,2.6-2.9-.04-2.9-48.77,0-93.09-30.45-128.34-61.37-32.57-28.56-61.33-61.57-87.07-96.35-5.32-7.19-10.6-14.45-15.49-21.95-.83-1.27-3.61-.23-4.49.25-20.87,11.32-38.18,29.56-54.04,46.89-9.8,10.71-19.33,21.74-28.2,33.23-1.6,2.07,4.22,1.69,5.41.16h0Z"/>
  </g>
  <g>
    <polyline class="cls-2" points="656.74 975.15 667.23 979.31 672.31 1119"/>
    <path class="cls-8" d="M654.44,976.56c2.5.99,4.99,1.98,7.49,2.97.69.27,2.35.57,2.89,1.15-.23-.24-.67-.89-.48-.26.57,1.83.17,4.56.23,6.45.38,10.4.76,20.81,1.13,31.21.99,27.23,1.98,54.47,2.97,81.7.24,6.66.48,13.32.73,19.99.07,1.87,5.88.72,5.8-1.55-1.48-40.84-2.97-81.68-4.45-122.52-.21-5.72-.42-11.45-.62-17.17-.1-.3-.3-.51-.6-.64-3.5-1.39-6.99-2.77-10.49-4.16-1.76-.7-7.03,1.87-4.6,2.83h0Z"/>
  </g>
  <ellipse class="cls-8" cx="642.2" cy="1035.78" rx="14.54" ry="11.4"/>
  <ellipse class="cls-8" cx="642.2" cy="1095.9" rx="14.54" ry="11.4"/>
  <g>
    <path class="cls-2" d="M712.97,840.49s16.81,105.84-63.42,135.06c0,0,73.86,20.6,96.79,72,0,0,54.51-38.4,61.26-158.78,0,0-33.65-26.24-63.63-37.34-29.98-11.1-31-10.94-31-10.94Z"/>
    <path class="cls-8" d="M710.07,841.26c1.87,11.84,1.81,24.2.95,36.11-1.74,24.04-8.15,48.77-23.17,68.08-10.26,13.2-23.95,22.65-39.57,28.45-1.55.58-2.51,2.96-.42,3.55,26.76,7.51,53.86,21.88,73.92,41.12,8.91,8.55,16.53,18.48,21.66,29.76.84,1.84,3.42,1.47,4.8.49,5-3.54,9.34-8.33,13.29-12.96,10.76-12.61,19.21-27.18,25.89-42.31,11.29-25.56,17.71-53.13,21.01-80.81.5-4.22.93-8.44,1.29-12.67.17-2.05.33-4.1.47-6.14.1-1.48.89-4.78.18-6.17-.79-1.56-3.51-2.88-4.84-3.86-10.38-7.63-21.17-14.75-32.35-21.14-15.15-8.65-31.14-14.69-47.53-20.51-3.52-1.25-8.46-4.05-12.4-3.81-3.22.2-4.51,4.36-.55,4.11-1.32.08-1.24-.18.21.3,2.68.88,5.35,1.79,8.01,2.73,13.95,4.92,27.91,9.78,41,16.73,11.85,6.29,23.21,13.54,34.15,21.29,2.45,1.74,6.63,3.74,8.45,6.18.94,1.26.29.66-.08,2.84-.76,4.53-.69,9.34-1.15,13.93-4.4,43.7-16.21,90.17-44.36,125.01-4.32,5.35-9,10.83-14.51,14.73l4.8.49c-16.06-35.26-53.02-57.08-88.13-69.86-3.25-1.18-6.54-2.34-9.87-3.27l-.42,3.55c27.38-10.16,47.53-31.46,57.51-58.75,7.53-20.59,9.9-42.95,8.81-64.76-.23-4.66-.54-9.35-1.26-13.96-.41-2.58-6.22-1.14-5.8,1.55Z"/>
  </g>
</svg>