<?xml version="1.0" encoding="UTF-8"?>
<svg id="Layer_1" data-name="Layer 1" xmlns="http://www.w3.org/2000/svg" xmlns:xlink="http://www.w3.org/1999/xlink" viewBox="0 0 1163.19 1163.19">
  <defs>
    <style>
      .cls-1 {
        fill: none;
      }

      .cls-2 {
        fill: #010101;
      }

      .cls-3 {
        fill: #11394c;
      }

      .cls-4 {
        fill: #653c29;
      }

      .cls-5 {
        fill: #89ac95;
      }

      .cls-6 {
        fill: #331d17;
      }

      .cls-7 {
        fill: url(#linear-gradient);
      }

      .cls-8 {
        fill: #f1eef7;
      }

      .cls-9 {
        fill: #a66e53;
      }

      .cls-10 {
        clip-path: url(#clippath-1);
      }

      .cls-11 {
        fill: #6a5a9c;
      }

      .cls-12 {
        clip-path: url(#clippath);
      }

      .cls-13 {
        fill: #9b8fc1;
      }

      .cls-14 {
        fill: #89ad96;
      }
    </style>
    <clipPath id="clippath">
      <circle class="cls-1" cx="482.83" cy="-910.37" r="581.59"/>
    </clipPath>
    <clipPath id="clippath-1">
      <circle class="cls-1" cx="581.49" cy="581.18" r="581.59"/>
    </clipPath>
    <linearGradient id="linear-gradient" x1="581.52" y1="574.95" x2="568.23" y2="-588.16" gradientUnits="userSpaceOnUse">
      <stop offset=".11" stop-color="#bbe5f5"/>
      <stop offset=".63" stop-color="#76c7db"/>
    </linearGradient>
  </defs>
  <g class="cls-12">
    <path class="cls-13" d="M236.74-79.64l12.31,320.85-5.96,102.43s184.45,113.16,383.15,113.16,256.69-110.47,256.69-191.87,8.95-364.18,8.95-364.18l20.35-22.1c26.36-28.61,48.04-61.21,64.24-96.57l24.43-53.32s-105.16-150.43-171.39-199.27c-66.23-48.84-189.37-62.32-189.37-62.32,0,0,65.59,99.64-37.59,104.86-166.38,8.42-231.7-136.69-231.7-136.69,0,0-67.52,9-146.27,58.28-61.09,38.23-105.2,74.14-129.39,117.66-58.66,105.52-55.37,92.89-55.37,92.89l-4.66,12.56c21.46,20.91,58.48,64.87,106.12,106.23l84.27,47.73,11.18,49.68Z"/>
    <path class="cls-11" d="M747.69-509.45c-8.24-3.53-47.48-14.73-77.02-18.78,13.73,26.31,40.12,69.02,45.7,151.66,2.19,32.46,11.05,26.78-22.36,45-40.56,22.12-131.41,31.95-175.09,21.08-19.25-4.79-37.09-12.48-50.64-25.3-15.75-14.9-24.96-34.17-32.58-53-10.95-27.03-22.49-53.31-38.72-78.34-14.82-22.87-47.24-67.75-65.41-88.7-24.2,8.37-49.13,19.9-74.4,30.6,43.13,9.63,81.36,69.54,96.54,102.97,20.02,44.1,34.78,110.84,23.91,166.36,0,0-5.54,95.84-158.17,132.33-8.23,1.97,3.8,57.24,2.97,65.65-4.85,49.1-4.3,98.8-5.87,148.06,59.11,2.96-13.91,151.75,44.64,159.11,79.81,10.03,334.28-51.54,414.99-54.68,98.91-3.85,208.72-31.85,261.53-61.9-2.01-6.96-19.33-71.51-28.71-126.05-2.84-32.81-15.19-93.92-23.93-144.16-6.61-37.97-19.35-97.97-39.79-130.64-17.92-28.64-27.99-55.32-35.8-73.49-15.42-35.88-61.79-167.77-61.79-167.77"/>
  </g>
  <g class="cls-10">
    <circle class="cls-7" cx="581.59" cy="581.59" r="581.59"/>
    <circle class="cls-1" cx="581.59" cy="581.59" r="581.59"/>
    <circle class="cls-1" cx="581.59" cy="581.59" r="581.59"/>
    <path class="cls-9" d="M871.48,614.94c3.66-35.62,2.58-75.16-2.26-96.62.36-16.49.66-35.64.91-58.73.07-6.7-.05-13.13-.2-19.5-.39-3.27-.49-6.55-.33-9.83-4.73-112.49-42.41-171.02-42.41-171.02-48.15-74.11-131.96-116.93-220.1-112.45-103.77,3.1-196.84,67.08-245.07,131.04-23.97,31.66-35.43,71.07-32.17,110.66,2.72,33.83,10.94,71.78,20.41,108.46-36.28-1.32-71.71,12.02-57.88,78.73,19.07,92.02,78.8,120.06,106.5,94.45,6.45,1.09,19.54,28.87,21.23,48.11,3.24,36.82,2.38,102.25-15.44,134.64l1.08,10.48c79.43,125.42,194.63,242.57,451.52,78.49l-145.09-90.46-1.04-30.37c10.03-.79,19.94-4.07,29.91-6.1,40.96-8.31,68.61-36.72,89.65-70.73,17.82-28.81,33.98-89.35,39.89-123,.36-2.07.68-4.16.89-6.25Z"/>
    <path class="cls-14" d="M269.46,1368.95c-20.15,102.81-17.04,151.61-20.69,164.93-1.54,5.58-38.81,484.16-82.85,703.67,53.79,18.14,68.35,29.55,124.45,39.52,81.52,14.49,194.13,46.31,276.66,44.85,74.4-1.31,223.07,6.18,297.17.05,84.77-7.01,103.28-24.7,185.72-60.19-19.97-177.49-38.37-621.11-41.12-704.11-2.75-91.39,8.47-52.02,8.47-52.02,0,0,48.63,13.88,106.06-26.29-36.45-103.86-31.56-441.83-202.96-540.12-24.24-13.9-164.76-68.51-204.41-85.9,9.25,15.67,10.84,40.92,8.15,52.11-7.75,32.24-7.65,39.89-33.59,55.17-22.91,13.49-100.51,26.56-126.72,19.81-134.43-34.64-130.58-89.32-159.68-141.67-58.58,31.89-98.46,53.23-154.67,77.16-209.99,89.38-162.97,401.86-162.97,401.86,36.66,22.85,182.97,51.17,182.97,51.17Z"/>
    <path class="cls-6" d="M710.59,821.18s-98.77,8.87-188.25-48.88c0,0,11.03,29.63,74.55,51.41,63.52,21.79,113.88,13.5,113.88,13.5l-.18-16.04Z"/>
    <ellipse cx="831.15" cy="490.25" rx="22.13" ry="22.05" transform="translate(164.52 1187.93) rotate(-76.84)"/>
    <path d="M857.07,471.54c-10.6-6.59-25.13-10.87-46.47-8.81-34.18,3.29-49.37,46.31-49.37,46.31,0,0,17.95-32.89,51.61-36.98,16.22-1.97,43.01,7.34,55.45,13.57-.36-3.26-4.87-9.74-11.22-14.08Z"/>
    <path class="cls-2" d="M319.1,580.28c-3.9-10.91-5.62-23.94-.63-34.83.3-.65.61-1.31,1.01-1.9l-1.16.58c.2-.02-.33-.03-.15,0,.1.02.23,0,.33,0,.08,0,.16.01.24.02.3.02-.2-.04.13.02.26.04.52.09.78.14,1.78.4,3.48,1.19,5.18,2.15,8.15,4.61,14.67,12.17,20.38,19.42,6.33,8.04,11.91,16.65,17.13,25.45.67-.29,1.34-.57,2.02-.86-2.53-1.82-5.59-3.32-8.69-3.73-2.17-.29-4.46.04-6.26,1.37-1.61,1.19-2.47,3.02-3.02,4.89-2.14,7.23.44,15.33,6.17,20.16,4.88,4.12,11.26,5.77,17.5,6.31.85.07,2.3-1.13.84-1.25-8.95-.78-18.37-4.57-21.8-13.54-1.14-2.99-1.53-6.27-1.08-9.44.43-3.07,1.64-7.29,5.37-7.36,2.12-.04,4.24.83,6.1,1.77.7.35,1.38.74,2.04,1.15.22.14.44.28.66.43.06.04.39.27.14.09.52.37,2.54.02,2.02-.86-6.45-10.86-13.43-21.54-21.78-31.05-4.36-4.97-9.17-9.79-14.82-13.3-2.31-1.44-4.92-2.78-7.65-3.15-.48-.07-1.02-.13-1.51-.06-1.57.23-2.17,2.43-2.69,3.67-4.48,10.89-2.86,23.5,1,34.29.28.77,2.43.15,2.17-.58h0Z"/>
    <ellipse cx="596.25" cy="494.15" rx="22.13" ry="22.05" transform="translate(-20.69 962.22) rotate(-76.84)"/>
    <path d="M658.3,508.19s-33.58-44.54-71.21-41.2c-52.93,4.7-62.01,26.75-72.13,43.82,0,0,32.3-32.23,73.31-34.86,37.2-2.38,70.02,32.23,70.02,32.23Z"/>
    <path class="cls-4" d="M717.08,665.59c-30.74.19-80.58-3.11-80.58-3.11,0,0-3.64,84.74,81.61,82.83,71.25-1.6,72.23-82.17,72.23-82.17,0,0-42.51,2.26-73.25,2.45Z"/>
    <path d="M718.22,665.58c-14.71.09-69.49-.18-69.49-.18,0,0,13,47.83,66.2,47.5,57.69-.35,66.21-44.44,66.21-44.44l-62.92-2.88Z"/>
    <path class="cls-8" d="M720.75,672.5c-15.1.09-61.08-2.09-61.08-2.09,0,0,18.14,12.33,63.45,12.06,45.31-.28,58.1-12.34,58.1-12.34l-60.47,2.37Z"/>
    <path class="cls-4" d="M795.18,662.61c0-1.63-3.29-2.33-10.79-2.9-12.51-.96-16.61-5.41-25.67-6.02-15.47-1.05-25.25,4.89-31.98,4.93-6.72.04-16.58-5.78-32.04-4.54-9.05.73-31.45,4.04-43.95,5.15-7.5.67-16.31-2.09-17.91-1.7-2.23.54,3.1,21.06,87.61,20.54,84.51-.52,74.73-13.23,74.73-15.46Z"/>
    <path d="M653.64,419.72c.1-.78-2.83-1-2.75-1.78-45.59-12.13-80.59-14.42-93.5-12.72-9.81,1.28-19.41,4.45-28.56,8.93,0,0-25.28,11.96-28.52,17.02-3.23,5.06,15.16-1.98,15.16-1.98,3.93-.93,6.62-2.16,10.61-2.59,21.93-2.38,43.02-7.55,64.83-3.94,18.66,2.98,43.58,14.34,61.3,21.68.94-8.44-.21-16.33,1.42-24.63Z"/>
    <path d="M869.9,426.93c-.12-1.54-.43-3.05-.86-4.52-2.41-1.31-4.02-2.14-4.02-2.14-8.46-4.52-17.34-7.73-26.4-9.06-11.92-1.75-44.21.38-86.23,12.31.08.78-2.62.99-2.53,1.77,1.55,8.31.52,16.18,1.42,24.63,16.32-7.26,39.26-18.51,56.47-21.41,20.11-3.52,39.6,1.75,59.84,4.22.77.09,1.49.23,2.18.38.18-2.06.27-4.12.12-6.19Z"/>
    <path d="M838.67,281.65c-26.09-105.62-102.92-152.24-208.1-160.67-90.77-7.28-178.87-15.43-260.08,46.04-13.39,10.28-57.21,42.26-73.58,70.83-56.69,99.13-28.13,204.63-1.94,284.15,1.6-.73,6.61-9.13,8.21-9.86,9.49-2.91,14.13-1.97,23.8.26,6.91.79,13.64,3.9,19.92,6.62,6.27,2.71,12.21,7.41,17.2,11.66,10.92,9.29,16.91,21.36,22.1,34.39.19.56.19,1.13.36,1.68,8.91,2.89,5.97,3.02,14.17-2.9,7.61-5.5,4.08-25.56,5.53-34.48,2.95-18.2-.31-36.49-1.19-54.73-1.95-9.99-4.13-19.91-6.78-29.74-10.9-41.26,5.23-65.7,13.81-102.02,0,0,16.99-53.41,77.22-86.34,65.96-35.93,94.08,8.65,177.06,5.62,71.67-2.9,79.97-47.54,131.15-18.24,0,0,16.59,4.53,23,11.91,6.4,7.39,18.16,25.84,18.16,25.84Z"/>
    <g>
      <path class="cls-2" d="M734.38,624.87c-7.29,4.21-18.68,3.75-26.36-.61-1.7-.97-7.21.26-4.82,1.61,10.14,5.75,26.46,5.67,35.87.24.93-.54.74-1.27-.47-1.62-1.26-.37-3.22-.21-4.22.37"/>
      <path class="cls-2" d="M699.89,623.87c-5.09-2.17-10.75-3.2-16.37-3.41-.82-.03-1.87.32-2.45.89-.46.44-.53,1.01.1,1.34,2.64,1.39,5.95,1.87,8.97,1.69.95-.05,2.2-.34,2.71-1.19.47-.78-.47-1.23-1.21-1.19-2.5.15-5.07-.25-7.24-1.39-.79.74-1.57,1.48-2.37,2.23,5.02.19,10.08,1.15,14.63,3.1.9.39,2.18.06,2.95-.45.58-.38,1.19-1.23.28-1.62"/>
      <path class="cls-2" d="M677.69,625.45c-6.56.1-14.37-2.45-17.78-7.27-5.15-7.27-1.06-19.99,6.93-25.08.87-.55.37-1.21-.54-1.36-1.19-.21-2.56.29-3.47.87-6.97,4.44-11.22,15.06-9.88,22.02,1.25,6.5,7.69,10.82,15.6,12.4,2.35.47,4.85.75,7.3.72.99-.02,2.77-.39,3.22-1.18.46-.81-.46-1.12-1.39-1.1"/>
      <path class="cls-2" d="M746.26,621.05c-.38-.74.25-1.26.78-1.27,1.77-.02,3.56-.59,5.02-1.88.61.69,1.21,1.37,1.81,2.06-3.53.53-7.03,1.84-10.12,4.09-.61.45-1.53.21-2.11-.24-.43-.34-.92-1.15-.3-1.6"/>
      <path class="cls-2" d="M741.33,622.21c3.45-2.51,7.38-3.92,11.32-4.52.58-.08,1.34.2,1.79.72.35.41.44.97.02,1.34"/>
      <path class="cls-2" d="M759.9,621.4c4.25-.33,9.15-3.4,11.06-8.42,2.88-7.59-.4-16.34-5.9-20.89-.6-.5-.32-1.18.26-1.39.76-.28,1.68.12,2.3.63,4.79,3.97,8.05,10.6,7.62,17.64-.4,6.57-4.31,11.3-9.33,13.4-1.5.62-3.1,1.07-4.69,1.2-.64.05-1.82-.2-2.16-.97-.35-.78.23-1.14.83-1.19"/>
    </g>
    <g>
      <path class="cls-5" d="M401.26,838.76s81.14,152.4,225.33,140.12c144.19-12.28,86.55-132.42,86.55-132.42l44.17,18.07s38.06,94.17-56.39,137.68c-94.45,43.52-190.86,6.55-260.48-52.51-69.62-59.06-77.7-90.99-77.7-90.99l38.53-19.96Z"/>
      <path class="cls-3" d="M400.26,839.21c.66,1.25,1.38,2.47,2.09,3.69,1.99,3.4,4.07,6.75,6.21,10.06,3.27,5.06,6.69,10.03,10.24,14.91,4.52,6.23,9.25,12.31,14.18,18.22,5.75,6.9,11.76,13.59,18.03,20.01,6.94,7.1,14.2,13.88,21.8,20.27,8.09,6.81,16.56,13.18,25.4,18.98,9.28,6.09,18.98,11.56,29.05,16.25,10.47,4.87,21.33,8.91,32.47,11.95,11.72,3.19,23.76,5.28,35.87,6.19,13.27.99,26.61.52,39.81-1.11,12.32-1.52,24.57-4.05,36.26-8.26,9.04-3.26,17.78-7.59,25.5-13.36,6.34-4.73,11.94-10.42,16.38-16.97,3.95-5.83,6.91-12.3,8.88-19.05,1.86-6.38,2.84-13.01,3.1-19.64.25-6.29-.12-12.6-.97-18.83-.75-5.5-1.87-10.94-3.3-16.3-1.11-4.17-2.41-8.28-3.89-12.33-.85-2.3-1.75-4.59-2.75-6.83-.13-.29-.26-.59-.4-.88-.65.29-1.29.57-1.94.86,5.01,2.05,10.03,4.1,15.04,6.15,7.95,3.25,15.89,6.5,23.84,9.75,1.19.49,2.39.98,3.58,1.47.44.18,1.17.67,1.66.68-.17,0-.17-.47-.09-.03.06.29.23.6.33.88,1.13,3.09,2.06,6.25,2.89,9.43,1.46,5.61,2.55,11.32,3.27,17.08.93,7.41,1.23,14.9.8,22.35-.49,8.49-1.94,16.93-4.49,25.05-2.87,9.14-7.17,17.8-12.72,25.61-6.53,9.18-14.76,17.08-23.92,23.6-12.05,8.59-25.65,14.83-39.55,19.79-15.15,5.41-30.94,9-46.94,10.64-15.38,1.58-30.91,1.34-46.25-.53-15.19-1.86-30.17-5.33-44.7-10.09-14.6-4.79-28.75-10.89-42.35-18.02-13.51-7.08-26.48-15.18-38.87-24.08-13.2-9.49-25.62-19.97-37.65-30.89-10.57-9.6-20.79-19.61-30.35-30.21-6.61-7.33-12.92-14.95-18.62-23.01-3.5-4.95-6.81-10.07-9.61-15.45-1.31-2.52-2.56-5.12-3.47-7.82-.11-.31-.21-.62-.29-.94l-.63.82c4.35-2.25,8.7-4.51,13.05-6.76,6.9-3.57,13.79-7.15,20.69-10.72,1.6-.83,3.19-1.65,4.79-2.48,1.32-.69.12-1.6-.9-1.07-4.35,2.25-8.7,4.51-13.05,6.76-6.9,3.57-13.79,7.15-20.69,10.72-1.6.83-3.19,1.65-4.79,2.48-.28.15-.73.43-.63.82.36,1.41.95,2.78,1.53,4.1,1.82,4.19,4.07,8.2,6.47,12.08,4.26,6.89,9.09,13.41,14.18,19.7,7.76,9.58,16.18,18.62,24.94,27.29,11.66,11.55,23.91,22.59,36.65,32.94,11.93,9.7,24.48,18.65,37.6,26.67,13.25,8.1,27.08,15.25,41.42,21.21,14.16,5.88,28.81,10.6,43.8,13.84,15.09,3.27,30.51,5.05,45.96,5.09,15.74.04,31.46-1.72,46.79-5.28,15.88-3.69,31.52-9.22,46.05-16.65,11.21-5.73,21.75-12.9,30.7-21.8,7.33-7.29,13.53-15.73,18.12-25.01,4.06-8.19,6.87-16.97,8.46-25.96,1.42-8,1.88-16.15,1.57-24.27-.26-6.8-1.07-13.58-2.38-20.26-.91-4.65-2.05-9.25-3.48-13.77-.38-1.21-.78-2.42-1.22-3.61-.16-.44-.29-1.09-.68-1.38-.41-.31-1.11-.46-1.58-.65-1.2-.49-2.4-.98-3.6-1.47-3.68-1.51-7.36-3.01-11.04-4.52-7.89-3.23-15.78-6.46-23.66-9.68-1.41-.58-2.83-1.16-4.24-1.74-.42-.17-2.34.02-1.94.86.56,1.17,1.06,2.37,1.55,3.57,1.3,3.19,2.47,6.43,3.51,9.71,1.51,4.72,2.78,9.52,3.78,14.37,1.2,5.78,2.01,11.64,2.35,17.53.37,6.4.15,12.85-.8,19.19-1,6.67-2.84,13.22-5.65,19.35-3.03,6.61-7.15,12.67-12.18,17.93-5.91,6.18-12.96,11.18-20.53,15.12-9.66,5.02-20.1,8.39-30.7,10.73-13.13,2.9-26.67,4.42-40.11,4.61-12.45.18-24.91-.86-37.15-3.15-11.51-2.15-22.8-5.38-33.74-9.56-10.44-3.99-20.55-8.86-30.25-14.43-9.32-5.35-18.26-11.34-26.82-17.84-8.11-6.17-15.86-12.8-23.27-19.79-6.8-6.42-13.31-13.16-19.54-20.14-5.49-6.16-10.75-12.52-15.78-19.05-4.14-5.37-8.13-10.86-11.95-16.47-2.77-4.07-5.46-8.2-8.02-12.4-1.38-2.26-2.73-4.53-4.02-6.85-.16-.29-.32-.58-.48-.88-.38-.72-2.49,0-2.01.9Z"/>
    </g>
  </g>
</svg>