<?xml version="1.0" encoding="UTF-8"?>
<svg id="Layer_1" data-name="Layer 1" xmlns="http://www.w3.org/2000/svg" xmlns:xlink="http://www.w3.org/1999/xlink" viewBox="0 0 1163.19 1163.19">
  <defs>
    <style>
      .cls-1 {
        fill: #8a4c98;
      }

      .cls-2 {
        fill: none;
      }

      .cls-3 {
        fill: #b589be;
      }

      .cls-4 {
        stroke: #000;
        stroke-miterlimit: 10;
        stroke-width: .55px;
      }

      .cls-5 {
        fill: #010101;
      }

      .cls-6 {
        fill: #653c29;
      }

      .cls-7 {
        fill: #231f20;
      }

      .cls-8 {
        fill: #f68e46;
      }

      .cls-9 {
        fill: url(#linear-gradient);
      }

      .cls-10 {
        fill: #f1eef7;
      }

      .cls-11 {
        fill: #a66e53;
      }

      .cls-12 {
        fill: #0f0a09;
      }

      .cls-13 {
        fill: #008dce;
      }

      .cls-14 {
        fill: #f9da03;
      }

      .cls-15 {
        clip-path: url(#clippath);
      }

      .cls-16 {
        fill: #4f2e25;
      }
    </style>
    <clipPath id="clippath">
      <circle class="cls-2" cx="581.59" cy="581.61" r="581.59"/>
    </clipPath>
    <linearGradient id="linear-gradient" x1="581.52" y1="574.95" x2="568.23" y2="-588.16" gradientUnits="userSpaceOnUse">
      <stop offset=".11" stop-color="#bbe5f5"/>
      <stop offset=".54" stop-color="#76c7db"/>
    </linearGradient>
  </defs>
  <g class="cls-15">
    <circle class="cls-9" cx="581.59" cy="581.59" r="581.59"/>
    <circle class="cls-2" cx="581.62" cy="581.59" r="581.59"/>
    <path class="cls-4" d="M428.07,340.83s362.7,29.56,413.95,35.81c9.64-42.73,5.92-93.71-31.99-120.48-11.03-7.78-22.66-9.67-34.69-14.72-10.54-4.42-15.17-16.88-21.09-25.93-21.01-32.11-55.59-31.34-89.96-30.52-2.19.05-3.85-.67-5.26-1.66-3.97,1.45-6.36,2.51-6.36,2.51,0,0-15.52-23.84-57.22-31.37-41.68-7.54-84.2,28.65-84.2,28.65,0,0-45.83-29.5-92.65-3.31-39.45,22.06-53.34,53.88-53.34,53.88-87.81,3.05-131.14,67.81-132.37,136.98-12.82,5.4-26.89,13.42-34.23,24.49-.95,1.44-1.82,3.11-2.71,4.68-.29,1.24-.64,2.47-.9,3.71-2.03,9.09-4,20.1-4.51,26.89-1.54,20.13.5,35.49,11.92,51.3.4.55.41,1.22.72,1.81,5.29,4.4,10.5,9.01,13.41,14.95,3.86,7.87-14,24.76-15.79,32.8-5.32,23.93-12.39,25.35-5.55,62.53,2.42,14.72,6.19,29.25,10.71,43.53,8.04,10.34,17.63,18.07,28.91,22.16l19.21,1.99s-4.23,71.14,35.75,102.62c39.99,31.48,96.27,32.95,96.27,32.95,0,0,8.42,59.35,61.64,59.41,53.22.06,139.68-89.03,139.68-89.03l-246.41-181.65,87.07-244.97Z"/>
    <path class="cls-11" d="M742.66,857.85c-29.25-11.29-150.96-41.54-178.1-57.73-12.42-7.41-104.47-70.73-115.26-80.88,35.12,112.49,6.11,158.62-8.73,176.17l-28.44,32.84c72.87,113.03,296.3,230.52,406.16,28.88l-74.54-49.86-1.1-49.42Z"/>
    <path d="M335.73,680.23c17.21,32.65,63.49,63.77,93.59,85.38,30.78,22.1,44.38,26.82,80.9,28.04,71.16,2.37,143.69-12.81,204.99-50.79,63.23-39.18,109.11-100.92,130.09-173.48,14.66-50.7,19.44-101.99,15.46-152.61-1.22-5.22-3.19-13.65-4.41-18.86-38.25-97.31-69.63-123.45-165.65-140.3-58.98-10.98-108.93-46.96-200.27-11.17-19.69,7.71-40.81,30.33-66.02,42.98-37.97,19.06-79.28,51.91-95.15,84.48-23.16,47.65-23.79,111.98-24.78,172.83-.75,46.12,9.4,91.9,30.85,132.73.14.26.27.52.41.77Z"/>
    <path class="cls-11" d="M872.33,611.34c-.18-15.18-.49-32.81-.98-54.06-.14-6.17-.44-12.07-.78-17.94-.46-3-.65-6.01-.61-9.03-7.82-103.34-44.29-156.02-44.29-156.02-46.58-66.7-125-103.5-205.96-96.66-95.37,6.05-179.01,67.79-221.42,128.12-21.07,29.86-30.4,66.48-26.18,102.79,3.54,31.04,26.04,51.78,35.88,85.24-33.42-.1-69.12.83-47.75,59.79,23.56,65.01,67.92,90.97,96.94,65.24,9.14,4.93-8.07-20.97-4.36,3.38,1.8,1.57,11.65,73.62,12.59,76.38,9.66,28.15,40.78,28.89,65.67,41.7,26.18,13.47,53.94,24.96,81.78,34.52,39.15,13.45,81.64,23.56,123.9,25.25l-.53-5.35c18.62-2.09,10.1.49,32.8-5.14,76-23.18,110-169.49,112.69-208.25,2.27-32.89-4.27-50.36-9.38-69.96Z"/>
    <path class="cls-16" d="M743.1,892.52s-97.78,20.81-200.71-52.36c0,0,29.71,42.45,88.83,60.53,59.11,18.08,112.55,6.57,112.55,6.57l-.66-14.75Z"/>
    <path d="M449.49,631.74c-.18-.46,1.27-19.72,3.93,3.72,1.34,11.76-15.39-26.06-25.57-33.69-4.65-3.49-10.17-7.34-15.91-9.52-5.75-2.18-25.94-4.38-32.17-4.93-8.76-1.72-29.75,11.52-38.14,14.13-1.41.64,9.6-11.5,8.19-10.86-26.8-66.46-40.5-121.49,6.19-205.82,13.49-24.3,51.45-51.93,63.02-60.8,70.25-53.05,135.97-59.04,217.66-54.42,94.67,5.35,198.32,33.23,226.12,121.65,6.7,21.32,2.96,54.48-5.86,64.27,0,0-2.92-53.04-50.03-76.84-47.11-23.81-55.78-23.79-119.93-20.16-74.28,3.93-97.44-6.85-155.08,24.47-52.63,28.7-62.58,51.72-62.58,51.72-2.61,12.98-10.05,24.3-14.83,36.53-4.71,12.05-5.97,24.65-5.99,37.52-.04,26.34,8.61,41.92,12.51,68.19,2.42,16.29,11.58,48.34-4.35,59.8-7.11,5.11.92-2.65-7.19-4.94Z"/>
    <ellipse cx="840.4" cy="586.1" rx="20.37" ry="20.3" transform="translate(101.71 1296.11) rotate(-78.76)"/>
    <path d="M859.49,569.49c-9.95-5.73-20.01-10.66-39.59-8.11-31.35,4.08-47.85,41.16-47.85,41.16,0,0,19.56-23.4,50.4-28.2,14.86-2.31,37.75,1.23,49.39,6.57-.43-2.99-6.38-7.62-12.36-11.42Z"/>
    <path class="cls-7" d="M427.98,657.3c-2.48-1.52-5.51-2.68-8.43-2.73-1.84-.03-3.75.46-5.12,1.75-1.3,1.22-1.92,2.96-2.24,4.67-1.44,7.56,1.78,16.07,7.38,21.2,4.4,4.03,10.18,5.88,16.06,6.19.25.01,1.2-.44.67-.47-5.07-.27-10.05-1.68-14.14-4.77-3.25-2.45-5.73-5.78-7.28-9.53-1.31-3.15-2.02-6.6-1.93-10.01.08-3.19.93-7.7,4.64-8.45,3.11-.63,6.8.91,9.42,2.52.27.16,1.17-.26.98-.37h0Z"/>
    <path d="M609.25,594.26c-1.87,13.82,10,25.29,23.69,22.9,8.53-1.49,15.36-8.62,16.52-17.2,1.87-13.82-10-25.29-23.69-22.9-8.53,1.49-15.36,8.62-16.52,17.2Z"/>
    <path d="M677.97,608.53s-19.68-41.85-65.52-38.91c-39.01,2.5-52.59,22.66-60.39,35.15,0,0,22.85-20.05,60.49-23.73,34.15-3.34,65.41,27.49,65.41,27.49Z"/>
    <path class="cls-6" d="M738.52,751.42c-29.3,1.16-83.29-.89-83.29-.89,0,0,5.04,79.9,86.25,75.39,67.88-3.77,62.3-75.01,62.3-75.01,0,0-35.96-.66-65.26.5Z"/>
    <path class="cls-12" d="M738.8,751.41c-13.93.55-65.83,2.06-65.83,2.06,0,0,16.78,44.72,67.16,42.72,54.63-2.17,53.36-44.19,53.36-44.19l-54.69-.59Z"/>
    <path class="cls-10" d="M739.6,756.56c-13.93.55-56.41-.03-56.41-.03,0,0,15.85,14.06,57.64,12.41,41.79-1.66,54.49-16.43,54.49-16.43l-55.71,4.05Z"/>
    <path class="cls-6" d="M807.99,746.39c-.05-1.5-3.1-2.04-10.04-2.34-11.57-.5-15.49-4.46-23.87-4.75-14.31-.49-23.15,5.28-29.35,5.53-6.2.25-15.47-4.81-29.7-3.18-8.33.95-33.88,4.92-45.38,6.33-6.9.85-15.11-1.42-16.58-1.01-2.04.57,8.5,19.05,86.45,15.96,77.95-3.09,68.53-14.49,68.46-16.53Z"/>
    <path d="M670.96,527.28c.06-.72-2.37-.82-2.33-1.55-38.13-9.66-67.22-10.61-77.88-8.62-8.1,1.51-15.99,4.73-23.46,9.16,0,0-20.66,11.84-23.22,16.6-2.55,4.76,12.53-2.32,12.53-2.32,3.23-.99,5.44-2.2,8.74-2.73,18.13-2.91,35.49-8.36,53.67-5.76,15.56,2.13,36.51,11.76,51.4,17.93.56-7.8-.6-15.01.55-22.7Z"/>
    <path d="M768.52,530.16c-.1-.71,2.01-.95,1.92-1.67,32.54-11.75,57.82-14.31,67.25-12.93,7.16,1.05,14.26,3.83,21.08,7.83,0,0,8.63,2.32,11.19,6.92,2.56,4.6-.88,6.73-.88,6.73-2.88-.8-4.89-1.89-7.8-2.24-16-1.89-31.51-6.37-47.16-2.76-13.4,2.99-30.99,13.75-43.53,20.74-1.04-7.75-.53-15.01-2.06-22.61Z"/>
    <g>
      <path class="cls-5" d="M757.53,698.71c-6.89,4.18-17.8,3.99-25.24-.02-1.65-.89-6.89.4-4.58,1.65,9.83,5.29,25.44,4.87,34.33-.53.88-.54.68-1.23-.49-1.54-1.21-.33-3.09-.13-4.03.44"/>
      <path class="cls-5" d="M724.5,698.49c-4.92-1.97-10.36-2.83-15.74-2.91-.79,0-1.78.35-2.33.9-.43.43-.49.98.12,1.28,2.55,1.27,5.74,1.66,8.62,1.43.91-.07,2.1-.37,2.56-1.19.43-.75-.47-1.17-1.19-1.12-2.39.19-4.85-.13-6.96-1.17-.74.73-1.47,1.45-2.22,2.18,4.81.07,9.67.89,14.06,2.65.87.35,2.08.01,2.82-.49.55-.37,1.11-1.2.23-1.56"/>
      <path class="cls-5" d="M703.28,700.48c-6.27.23-13.8-2.04-17.17-6.57-5.08-6.85-1.45-19.11,6.1-24.15.82-.55.33-1.16-.54-1.29-1.14-.17-2.44.33-3.3.9-6.57,4.4-10.41,14.65-8.99,21.28,1.34,6.19,7.59,10.19,15.2,11.54,2.26.4,4.66.61,7,.53.95-.04,2.64-.43,3.06-1.2.43-.78-.46-1.06-1.35-1.02"/>
      <path class="cls-5" d="M768.81,694.8c-.38-.7.21-1.21.72-1.23,1.69-.06,3.39-.64,4.76-1.9.6.64,1.18,1.29,1.78,1.93-3.36.58-6.69,1.91-9.6,4.13-.58.44-1.46.23-2.03-.19-.42-.31-.9-1.08-.32-1.53"/>
      <path class="cls-5" d="M764.12,696.01c3.25-2.48,6.98-3.91,10.74-4.56.55-.09,1.29.16,1.73.65.34.38.44.92.05,1.28"/>
      <path class="cls-5" d="M781.87,694.84c4.06-.41,8.69-3.45,10.41-8.3,2.59-7.32-.73-15.63-6.1-19.87-.58-.46-.33-1.12.22-1.34.72-.29,1.61.08,2.22.56,4.67,3.7,7.93,9.98,7.67,16.71-.25,6.29-3.88,10.91-8.64,13.03-1.42.63-2.94,1.09-4.46,1.24-.62.06-1.74-.16-2.09-.88-.35-.74.19-1.1.77-1.16"/>
    </g>
    <path class="cls-11" d="M418.38,569.66c4.31,1.48,37.62-16.62,41.62-11.93,68.5-123.02,291.86-188.46,401.81-91.22-4.96-18.53-31.17-75.99-35.03-81.93-41.78-64.33-119.16-94.66-204.4-100.31-85.24-5.66-189.98,23.37-240.2,111.44-48.7,85.4-55.08,162.39,36.2,173.95Z"/>
    <g>
      <path d="M497.56,454.08l-1.62-3.21c-4.05,7.56-10.97,13.55-19.03,16.49-4.75,1.73-10.98,3.69-11.22,8.75-.07,1.48.45,2.94.38,4.42-.45,9.45-18.11,4.01-23.67,11.66-4.69,6.44,3.28,16.4-.94,23.16-3.75,6.01-14.14,4.53-17.88,10.55-4.63,7.46,5.41,18.86-.59,25.26-4.33,4.61-13.25,1.63-17.38,6.42-1.95,2.26-2.14,5.5-2.48,8.61,15.17,4.77,30.34,10.6,46.36,15.41.1-3.47-.24-7.05-1.03-10.32-.7-2.91-1.45-6.13,0-8.74,3.2-5.79,12.7-2.63,18.07-6.51,9.4-6.79-3.68-23.83,3.62-32.85,4.38-5.4,14.1-4.77,17.24-10.98,4.1-8.14-7.22-20.18-.13-25.9,2.17-1.75,5.21-1.81,7.78-2.89,5.08-2.14,7.65-8.14,7.45-13.66-.2-5.52-2.59-10.68-4.94-15.68Z"/>
      <path d="M498.02,453.86c-.54-1.07-1.08-2.14-1.62-3.21-.16-.33-.8-.07-.93.17-3.56,6.56-9.18,11.91-15.94,15.09-2.9,1.36-6.03,2.16-8.88,3.61-2.2,1.12-4.45,2.71-5.2,5.18-.86,2.81,1.06,5.87-.65,8.51-1.12,1.73-3.28,2.41-5.18,2.86-4.57,1.07-9.5.98-13.81,3-1.97.92-3.71,2.36-4.63,4.37-1.14,2.49-.86,5.32-.4,7.94,1.01,5.61,3.51,12.73-2.44,16.5-4.51,2.86-10.87,2.67-14.5,6.97-3.63,4.3-1.51,10.31-.31,15.11.64,2.57,1.32,5.37.69,8.01-.75,3.15-3.43,4.78-6.42,5.44-5.5,1.21-12.3.66-14.3,7.26-.54,1.8-.68,3.7-.88,5.57-.01.14.09.24.21.28,15.53,4.9,30.76,10.71,46.36,15.41.24.07.78-.03.79-.36.09-3.73-.32-7.38-1.17-11.01-.76-3.22-1.43-7.21,1.47-9.6,2.03-1.67,4.93-1.88,7.44-2.16s5.04-.52,7.35-1.54c9.45-4.17,4.07-16.72,3.37-24.18-.22-2.37-.21-4.87.64-7.12.91-2.43,2.73-4.18,4.99-5.39,4.22-2.28,9.9-2.94,12.97-6.98s1.6-8.96.32-13.2c-1.18-3.91-3.68-9.65-.44-13.21,2.24-2.48,5.97-2.3,8.82-3.68,2.36-1.14,4.21-3.12,5.41-5.42,3.18-6.07,1.71-12.95-.78-18.98-.72-1.73-1.51-3.43-2.31-5.13-.2-.42-1.17-.12-.99.27,2.98,6.35,6.27,13.45,4.36,20.6-.79,2.95-2.46,5.81-5.06,7.51s-6.12,1.61-8.82,3.33c-4.01,2.57-3.4,7.29-2.29,11.27,1.24,4.48,3.77,9.82,1.99,14.49-1.92,5.05-8.18,6.02-12.52,8.05-2.13.99-4.14,2.31-5.49,4.28-1.19,1.74-1.74,3.81-1.87,5.9-.31,4.8,1.14,9.53,1.85,14.23.66,4.35.8,9.53-3.37,12.2-4.43,2.84-10.25,1.23-14.86,3.59-6.27,3.22-2.91,10.64-2.26,15.94.24,2.01.33,4.03.28,6.05l.79-.36c-10.08-3.04-20.02-6.53-29.98-9.95-4.86-1.67-9.72-3.33-14.62-4.89-.46-.15-1.29-.21-1.51-.69-.15-.31.13-1.27.18-1.63.12-1.06.27-2.13.56-3.16.6-2.18,1.85-3.98,3.93-4.95,5.41-2.53,14.46-.27,16.74-7.57.88-2.84.15-5.94-.55-8.74-.8-3.21-1.93-6.55-1.67-9.91.62-7.88,9.53-7.99,15.03-10.85,2.69-1.4,4.7-3.64,5.21-6.7.56-3.39-.49-6.86-1.15-10.17s-1.19-7.15,1.08-10.02c1.75-2.21,4.59-3.13,7.25-3.71s5.57-.85,8.34-1.38c2.18-.42,4.57-1.01,6.23-2.58.73-.68,1.24-1.54,1.51-2.5.54-1.97-.26-3.85-.16-5.82.19-3.89,4.13-5.8,7.29-7.07,3.66-1.47,7.28-2.69,10.62-4.83s6.59-5.07,9.12-8.34c1.2-1.55,2.26-3.19,3.19-4.91l-.93.17c.54,1.07,1.08,2.14,1.62,3.21.19.37,1.14.02.91-.43Z"/>
    </g>
    <g>
      <path d="M479.22,405.5c4.58,4.31,5.95,11.68,3.21,17.35-2.74,5.67-9.36,9.18-15.58,8.27,2.99,7.58-1.53,17.22-9.27,19.78-3.32,1.1-7.14,1.1-9.86,3.29-6.68,5.39-.95,18.39-7.71,23.67-2.55,1.99-6.19,2.15-8.69,4.2-5.14,4.21-2.4,13.03-6.14,18.53-4.57,6.72-16.32,5.24-20.49,12.21-2.93,4.9-1.1,12.62-6,15.54-2.57,1.53-6.18.99-8.33,3.07-2.6,2.52-1.28,6.78-1.19,10.4.24,8.95-10.24,16.32-18.58,13.08-.04,6.02-2.71,11.97-7.18,16-3.9-5.72-7.9-11.65-9.19-18.46-1.29-6.8.85-14.76,6.85-18.23,2.32-1.34,5.11-1.97,7.03-3.84,4.88-4.74,1.53-14.38,6.76-18.75,3.51-2.93,9.62-2.13,12.03-6.01,1.16-1.87,1.02-4.23,1.31-6.41,1.03-7.73,8.83-13.9,16.59-13.14,2.2.22,4.53.89,6.54-.03,5.8-2.67.49-12,3.12-17.81,2.59-5.71,12-5.93,14-11.87.67-1.98.3-4.16.76-6.2.73-3.23,3.4-5.6,5.93-7.73,13.01-10.93,26.39-21.41,40.12-31.42"/>
      <path d="M478.77,405.71c4.34,4.19,5.85,11.04,3.42,16.62s-8.93,9.29-15.16,8.46c-.19-.03-.79.15-.68.46,2.14,5.64.33,12.25-3.99,16.37-2.53,2.41-5.55,3.24-8.87,3.95-2.85.61-5.72,1.5-7.55,3.92-3.14,4.15-2.25,10.07-2.88,14.93-.35,2.69-1.15,5.5-3.37,7.25-2.59,2.03-6.17,2.14-8.74,4.24-4.47,3.66-3.35,10.37-4.77,15.38-.84,2.95-2.67,5.15-5.36,6.61-2.43,1.32-5.13,2.05-7.73,2.95-2.35.82-4.74,1.76-6.67,3.37s-3.04,3.85-3.63,6.32c-.66,2.79-.72,5.79-1.84,8.46-.59,1.43-1.55,2.65-2.96,3.34-1.49.74-3.19.86-4.78,1.28-2.81.75-4.68,2.57-4.93,5.54-.27,3.14.8,6.25.13,9.38-1.27,5.93-7.1,10.6-13.12,10.79-1.52.05-3-.23-4.42-.75-.22-.08-.79.05-.79.35-.1,6.02-2.65,11.75-7.09,15.83l.86-.09c-4.67-6.85-9.89-14.5-9.48-23.18.17-3.5,1.2-7.06,3.35-9.87,1.18-1.54,2.66-2.76,4.4-3.63,1.64-.82,3.4-1.41,4.95-2.4,5.8-3.72,3.75-11.31,6.03-16.84,1.44-3.49,4.59-4.47,7.94-5.42,2.71-.77,5.62-1.8,6.76-4.62.74-1.83.63-3.84.91-5.76s.93-3.58,1.88-5.16c1.95-3.23,5.11-5.74,8.71-6.86,1.86-.58,3.78-.74,5.71-.52s3.76.67,5.62.17c2.58-.69,3.85-2.86,4.01-5.41.19-3.04-.57-6.06-.48-9.1.1-3.31,1.47-5.75,4.25-7.55,2.39-1.55,5.12-2.53,7.42-4.24.99-.74,1.9-1.61,2.52-2.68.95-1.63.99-3.47,1.09-5.3.13-2.28.77-4.24,2.21-6.04,1.23-1.53,2.75-2.8,4.25-4.05,3.72-3.12,7.46-6.2,11.24-9.24,7.43-5.98,14.97-11.83,22.61-17.52,1.93-1.44,3.86-2.86,5.81-4.28.54-.4-.28-.64-.64-.38-7.83,5.72-15.55,11.58-23.16,17.6-3.83,3.03-7.64,6.1-11.41,9.21-3.21,2.64-6.88,5.18-9.52,8.43-1.14,1.41-1.98,3-2.26,4.81-.32,2.12.02,4.36-.98,6.34-1.39,2.74-4.48,4.05-7.06,5.4-2.31,1.21-4.78,2.55-6.18,4.85-1.55,2.57-1.28,5.77-1.01,8.63.25,2.67,1.08,6.56-.95,8.78-1.61,1.75-4.09,1.34-6.19,1.05-1.76-.24-3.47-.3-5.23.02-6.49,1.17-12.28,6.53-13.27,13.16-.32,2.16-.1,4.58-1.3,6.5-.97,1.54-2.64,2.29-4.3,2.82-2.8.9-5.94,1.36-8.12,3.52-4.73,4.69-1.66,12.62-5.69,17.66-2.32,2.91-6.52,3.35-9.33,5.68-2.56,2.13-4.2,5.16-5.01,8.36-1.97,7.84,1.29,15.47,5.38,22.04,1.15,1.85,2.37,3.65,3.6,5.44.18.27.69.07.86-.09,4.51-4.16,7.17-10.02,7.27-16.16l-.79.35c5.23,1.94,11.14.09,15.06-3.69,1.98-1.9,3.48-4.36,4.06-7.06.68-3.19-.44-6.36-.11-9.56.21-2.09,1.28-3.71,3.29-4.44,1.58-.57,3.28-.68,4.86-1.23,2.5-.86,4.03-2.76,4.82-5.23.9-2.82.95-5.82,1.8-8.65.9-3,2.89-5.09,5.66-6.47,4.72-2.36,10.58-2.84,14.53-6.62,4.45-4.27,3.08-10.84,4.89-16.2.53-1.57,1.42-3.03,2.77-4.03,1.43-1.05,3.17-1.55,4.81-2.15,2.64-.97,4.9-2.41,6.12-5.02,2.31-4.95.96-10.73,2.4-15.9.95-3.42,3.27-5.47,6.68-6.38,3.11-.83,6.25-1.17,9.01-2.95,4.72-3.05,7.62-8.78,7.31-14.39-.08-1.46-.39-2.88-.91-4.24l-.68.46c6.3.84,12.98-2.43,15.99-8.08s1.76-13.49-2.98-18.06c-.29-.28-1.23.11-.91.41h0Z"/>
    </g>
    <g>
      <path d="M466.94,388.38c2.34,9.53-4.74,20.29-14.42,21.91-1.9.32-3.93.36-5.56,1.38-3.4,2.15-3.17,7.06-4.37,10.9-2.72,8.68-13.28,12.01-22.38,12.32-5.82.2-13.25.76-15.02,6.3-.7,2.19-.23,4.69-1.28,6.73-2.8,5.41-13.38,3.13-14.99,9.01-.74,2.69,1.14,5.55.55,8.28-1.26,5.79-10.46,4.39-14.78,8.43-2.01,1.88-2.7,4.73-3.3,7.41-1.83,8.18-3.67,16.36-5.5,24.54-.45,2.01-1.14,4.31-3.05,5.09-3.22,1.3-5.88-2.8-6.84-6.14-5.38-18.81-5.85-38.99-1.36-58.03,1.12-4.76,3.84-10.45,8.72-10.29,1.62.05,3.32.78,4.79.09,2.39-1.13,1.86-4.58,1.53-7.21-1.37-10.84,9.63-21.36,20.39-19.51,2.9.5,6.3,1.6,8.47-.39,1.45-1.32,1.66-3.48,2.46-5.27,2.05-4.59,7.75-6.24,12.78-6.4,5.03-.16,10.29.57,14.91-1.42,5.79-2.49,9.61-8.89,15.81-10.05,7.5-1.41,15.99,5.42,22.25,1.07"/>
      <path d="M466.44,388.51c1.44,6.16-.88,12.74-5.39,17.07-2.39,2.3-5.38,3.94-8.67,4.47-2.97.48-6.03.73-7.76,3.54-1.53,2.51-1.6,5.61-2.35,8.39-.79,2.95-2.53,5.46-4.91,7.36-4.97,3.96-11.58,5.05-17.75,5.3-4.68.19-11.29.49-14.13,4.92-1.79,2.79-.52,6.55-2.57,9.17-1.55,1.98-4.32,2.56-6.62,3.17-2.01.53-4.18,1.03-5.88,2.28-2.21,1.63-2.38,4.06-1.86,6.6.36,1.72.85,3.51.19,5.23-.45,1.18-1.37,2.03-2.46,2.62-2.25,1.23-4.9,1.61-7.31,2.41s-4.61,1.92-5.99,4.08c-1.99,3.11-2.4,7.27-3.19,10.8-.95,4.25-1.91,8.5-2.86,12.75-.49,2.17-.97,4.33-1.46,6.5-.36,1.61-.73,3.7-2.08,4.81-3.31,2.72-6.21-3.17-6.93-5.59-1.2-4.01-2.08-8.13-2.78-12.26-1.41-8.32-1.91-16.79-1.48-25.22.21-4.19.65-8.36,1.32-12.5.6-3.69,1.19-7.55,2.51-11.07,1.05-2.79,2.98-6.4,6.28-6.84,2.56-.34,6.06,1.54,7.62-1.57,1.27-2.52,0-5.7.1-8.36.12-3.15,1.24-6.21,3.01-8.81,3.86-5.68,10.56-9.11,17.43-7.8,2.62.5,5.83,1.34,8.16-.48,1.19-.93,1.7-2.33,2.14-3.72.55-1.69,1.2-3.23,2.51-4.48,5.49-5.27,14.11-2.87,20.87-3.77,3.23-.43,6.06-1.66,8.66-3.6s4.81-4.25,7.54-5.94c3.18-1.97,6.51-2.14,10.1-1.38,3.15.66,6.2,1.81,9.41,2.16,2.53.28,5.02-.08,7.16-1.51.56-.37-.3-.49-.61-.28-3.02,2-6.59,1.33-9.88.49-3.11-.79-6.22-1.84-9.46-1.89-6.73-.1-10.75,5.27-15.82,8.75-3.61,2.47-7.66,2.93-11.93,2.91-3.46-.01-6.93-.17-10.32.65-2.71.65-5.42,1.88-7.24,4.05-2.36,2.81-1.88,8.21-6.64,8.12-1.79-.04-3.52-.58-5.29-.82-1.45-.2-2.93-.19-4.38.01-2.94.41-5.74,1.59-8.17,3.29-4.9,3.44-8.43,9.17-8.24,15.28.1,3.08,1.88,9.12-3.36,8.38-2.78-.39-5.14-.26-7.27,1.77s-3.29,4.87-4.05,7.62c-1.1,3.97-1.76,8.1-2.3,12.18-1.11,8.41-1.3,16.94-.55,25.39.37,4.25.98,8.48,1.82,12.67.41,2.05.88,4.1,1.41,6.13.46,1.79.9,3.6,1.75,5.25,1.11,2.13,3.05,4.43,5.71,3.89,3.08-.62,3.78-3.94,4.36-6.55,1.01-4.49,2.01-8.98,3.02-13.47.94-4.19,1.69-8.49,2.89-12.61.54-1.84,1.32-3.65,2.78-4.95,1.05-.93,2.38-1.5,3.69-1.96,2.44-.84,5.04-1.25,7.37-2.37,1.99-.95,3.57-2.54,3.72-4.85.22-3.17-2.2-6.85.53-9.51,1.74-1.69,4.5-2.1,6.75-2.7,2.09-.57,4.36-1.23,5.95-2.79,2.41-2.36,1.42-5.79,2.55-8.66,1.2-3.07,4.44-4.35,7.46-4.91s6.11-.49,9.17-.76,5.92-.85,8.73-1.82c5.27-1.82,10.24-5.29,11.93-10.85.9-2.97.82-6.52,2.68-9.13,1.39-1.96,3.61-2.23,5.82-2.54,1.48-.21,2.92-.54,4.31-1.1,5.44-2.17,9.65-7.07,11.25-12.67.81-2.83.91-5.8.24-8.67-.08-.33-1.07-.08-.99.27h0Z"/>
    </g>
    <g>
      <path d="M451.75,377.76c-11.73,5.93-26.04-11.29-37.62-5.08-5.6,3-9.09,11.03-15.39,10.21-2.89-.38-5.45-2.73-8.33-2.32-6,.85-4.49,10.37-8.23,15.15-4.66,5.96-15.72,2.36-20.52,8.21-1.35,1.64-1.94,3.79-3.16,5.53-2.3,3.27-6.39,4.6-9.95,6.42-3.56,1.81-7.15,5.05-6.71,9.02-8.92-13.47-6.34-33.35,5.73-44.09,1.3-1.16,2.73-2.26,3.52-3.82.77-1.52.83-3.28,1.06-4.96,1.14-8.48,7.15-16.14,15.12-19.26,2.78-1.09,5.93-1.77,7.89-4.03,2.75-3.18,1.97-8.03,3.33-12.01,3.17-9.29,15.86-10.55,23.11-17.17,3.02-2.75,5.04-6.43,7.85-9.38,3.01-3.16,6.93-5.45,11.16-6.52,3.37-.85,7.55-.65,9.54,2.2,1.36,1.96,1.27,4.57,2.16,6.78,2.26,5.59,9.58,6.72,15.61,6.64,6.03-.08,13.12-.05,16.66,4.83,5.02,6.91-1.63,16.58-.14,24.99.65,3.68,2.88,7,3.2,10.73.29,3.42-1.06,6.73-2.38,9.9-2.34,5.6-4.67,11.19-7.01,16.79"/>
      <path d="M451.44,377.68c-4.2,2.06-8.91.85-13.07-.7s-8.28-3.72-12.64-4.99c-3.66-1.07-7.57-1.36-11.14.23-4.1,1.83-6.61,5.73-10,8.48-2.35,1.9-4.75,2.47-7.62,1.35-2.29-.89-4.44-2.18-6.98-1.6-3.76.86-4.7,4.69-5.51,7.97-.5,2.04-.97,4.14-1.96,6.01-1.16,2.2-3.1,3.55-5.45,4.25-4.14,1.24-8.67.96-12.64,2.82-2.37,1.11-3.78,2.91-4.93,5.22-.74,1.5-1.47,2.96-2.69,4.14s-2.76,2.08-4.3,2.85c-4.56,2.28-11.71,4.98-11.21,11.29l1.07-.29c-4.71-7.2-6.24-16.13-4.78-24.56.72-4.13,2.13-8.15,4.24-11.77,1.11-1.91,2.41-3.71,3.89-5.35s3.49-3.04,4.96-4.8c1.63-1.96,1.67-4.31,2.04-6.7.34-2.23,1.01-4.41,1.97-6.45,1.97-4.2,5.14-7.86,9.07-10.34,2.05-1.3,4.27-2.08,6.53-2.9,1.94-.71,3.96-1.57,5.34-3.17,2.94-3.4,2-8.37,3.47-12.36,2.77-7.51,11.86-9.81,18.15-13.41,1.62-.93,3.19-1.97,4.59-3.21,1.79-1.58,3.23-3.49,4.66-5.39,3.4-4.51,7.22-8.29,12.72-10.1,2.34-.77,4.97-1.17,7.36-.38s3.67,2.79,4.24,5.24c.48,2.1.84,4.14,2.24,5.85,1.13,1.38,2.66,2.34,4.29,3.01,3.81,1.55,7.94,1.54,11.98,1.53,4.27-.01,9.17.11,12.74,2.78,8,5.99,1.22,17.28,1.63,25.18.26,4.99,3.75,9.23,3.41,14.3-.19,2.91-1.37,5.65-2.48,8.3-1.17,2.8-2.34,5.6-3.51,8.4s-2.27,5.45-3.41,8.17c-.08.19.94.1,1.06-.19,2.39-5.73,4.81-11.46,7.18-17.2,1.03-2.49,2.04-5.05,2.22-7.76s-.74-5.24-1.71-7.74-1.69-4.71-1.72-7.28.45-4.93.96-7.35c.87-4.15,2.2-8.87.57-13-3.55-8.99-15.22-6.38-22.68-7.25-4.06-.47-8.68-1.92-10.56-5.91-1.06-2.24-.88-4.94-2.25-7.05-1.07-1.66-2.89-2.5-4.79-2.77-4.13-.59-8.52,1.02-12.02,3.11-2.09,1.24-3.98,2.81-5.59,4.62-1.79,2-3.26,4.25-4.97,6.31-2.93,3.52-6.68,5.72-10.74,7.72-3.43,1.68-7,3.24-10.02,5.62-3.29,2.6-4.92,5.89-5.49,10.01-.32,2.3-.46,4.73-1.54,6.83-1.3,2.56-3.85,3.63-6.42,4.54-4.24,1.5-8.02,3.57-11.12,6.89s-5.33,7.46-6.23,11.92c-.53,2.64-.33,5.48-2.14,7.68-1.46,1.77-3.41,3.1-4.96,4.8-2.86,3.17-5.06,6.9-6.53,10.91-2.95,8.03-3.06,17.19.07,25.18.8,2.04,1.81,3.97,3,5.8.15.22,1.1,0,1.07-.29-.5-6.33,6.78-8.77,11.27-11.11,2.17-1.13,4.26-2.52,5.61-4.61,1.48-2.3,2.16-5.01,4.53-6.64,3.74-2.56,8.87-2.1,13.1-3.27,1.82-.5,3.62-1.27,5-2.58s2.19-3.1,2.76-4.9c.64-2.02,1-4.11,1.64-6.13.53-1.67,1.32-3.65,3.01-4.45,2.81-1.32,5.91,1.47,8.63,1.98,1.7.32,3.46.02,5.02-.71,4.05-1.9,6.49-6.03,10.02-8.63,3.86-2.84,8.4-2.42,12.73-1.02,8.26,2.65,17.51,9.51,26.36,5.16.64-.31-.36-.28-.62-.15h0Z"/>
    </g>
    <g>
      <path d="M486.9,375.67c6.95-3.68,9.21-14.01,4.44-20.25-1.59-2.07-3.93-4.35-3.05-6.81.38-1.06,1.3-1.81,2.08-2.62,4.98-5.16,4.33-14.61-1.31-19.05-1.19-.93-2.57-1.69-3.42-2.93-3.53-5.15,4.37-13.57-.23-17.79-3.87-3.55-10.33,1.97-15.19-.02-4.72-1.93-4.66-9.4-9.13-11.86-6.64-3.67-16.94,6.58-21.35.41-2.3-3.22.44-7.92,4.03-9.57,3.6-1.66,7.75-1.49,11.58-2.49,9.93-2.61,16.04-12.41,24.64-18.01,8.97-5.84,20.15-6.81,30.82-7.62,4.58-.35,9.31-.68,13.66.81,6.69,2.3,11.53,9.16,11.45,16.23-.02,1.38-.14,2.93.78,3.94.54.59,1.34.87,2.1,1.13,3.81,1.27,7.62,2.54,11.44,3.82,1.45.48,3.02,1.07,3.76,2.4,1.7,3.07-2.44,6.17-5.91,6.67-3.47.5-7.83.73-9.18,3.96-2.52,6.04,9.4,9.98,8.51,16.46-.92,6.7-13.39,5.47-15.13,12.01-1.04,3.89,2.72,7.59,2.54,11.61-.18,4.13-4.33,6.9-8.24,8.25-3.91,1.35-8.3,2.16-11.1,5.19-2.14,2.31-2.95,5.51-4.32,8.34-4.15,8.61-13.2,13.56-21.69,17.95"/>
      <path d="M487.2,375.77c5.34-2.92,8.04-9.36,6.92-15.27-.29-1.52-.84-2.99-1.66-4.31-.98-1.57-2.38-2.84-3.25-4.49-1.12-2.12-.37-3.74,1.22-5.33,1.09-1.1,2-2.32,2.64-3.74,1.29-2.87,1.49-6.22.69-9.25-.86-3.24-2.78-5.58-5.45-7.52-1.39-1.01-2.59-2.13-2.96-3.87-.3-1.39-.08-2.84.23-4.21.6-2.63,1.8-5.25,1.82-7.99s-1.72-4.7-4.35-4.98c-3.08-.34-6.02,1.19-9.03,1.54-7.73.9-7.06-8.55-11.98-11.89-4.45-3.03-10.41.36-14.88,1.58-2.57.71-5.51.88-7.09-1.7-2-3.26.77-7.39,3.72-8.93,3.95-2.06,8.8-1.56,12.98-2.95,3.27-1.09,6.2-2.96,8.87-5.11,6-4.83,10.94-10.95,17.93-14.46,7.95-4,17.04-4.84,25.78-5.51,4.73-.37,9.68-.89,14.29.55,3.72,1.17,6.9,3.73,9.01,6.99,2.05,3.16,2.77,6.56,2.77,10.27,0,1.93.54,3.27,2.42,3.99,2.21.85,4.5,1.51,6.75,2.26s4.49,1.33,6.6,2.25c1.73.75,3.26,2.31,2.52,4.32-1.45,3.95-6.45,3.76-9.81,4.5-2.46.54-5.2,1.71-5.75,4.46-.44,2.18.95,4.09,2.32,5.62,2.78,3.1,9.33,7.94,5.27,12.57-3.29,3.75-9.43,3.34-12.74,7.17-2.13,2.47-1.32,5.49-.19,8.23.7,1.69,1.51,3.45,1.53,5.32s-.87,3.62-2.19,4.95c-5.25,5.31-14.44,3.8-18.54,10.69-1.04,1.76-1.7,3.7-2.52,5.57s-1.83,3.56-3.06,5.15c-2.39,3.08-5.43,5.58-8.67,7.74s-6.71,3.99-10.17,5.79c-.58.3.32.33.59.19,6.73-3.49,13.79-7.21,18.69-13.17,1.17-1.42,2.19-2.97,3.02-4.61.89-1.76,1.51-3.65,2.37-5.42.98-2.04,2.31-3.77,4.26-4.97,1.84-1.13,3.94-1.77,5.99-2.41,3.23-1,6.52-2.11,8.95-4.57,2.67-2.71,2.59-5.91,1.25-9.27-1.22-3.04-2.86-6.58-.25-9.39,1.84-1.98,4.7-2.79,7.13-3.76,2.05-.82,4.36-1.75,5.73-3.57s1.25-4.31.08-6.28c-1.31-2.2-3.34-3.88-5.08-5.71-1.61-1.7-3.44-3.9-2.68-6.41,1.18-3.85,6.08-3.55,9.26-4.2,2.48-.5,6.11-2.28,6.37-5.16.14-1.55-.92-2.75-2.21-3.43-1.89-1-4.12-1.51-6.14-2.19-2.36-.79-4.73-1.57-7.09-2.37-1.12-.38-2.2-.75-2.71-1.9-.41-.91-.32-2.01-.31-2.98.08-7.21-4.68-14.14-11.54-16.5-4.3-1.48-8.94-1.2-13.39-.87s-8.46.65-12.66,1.28c-8.02,1.2-15.77,3.63-22.19,8.73-5.92,4.7-10.78,11-17.69,14.35-4.05,1.97-8.47,1.86-12.74,2.98-3.2.84-6.19,2.69-7.39,5.93-.93,2.52-.05,5.47,2.55,6.55,2.15.89,4.7.2,6.81-.45,2.8-.86,5.58-2.14,8.53-2.36,3.37-.26,5.67,1.58,7.2,4.43,1.31,2.43,2.15,5.41,4.34,7.24s5.25,1.51,7.91.88c3.07-.73,7.45-2.45,9.57.98,1.47,2.37.31,5.52-.4,7.95s-1.75,5.53-.61,8.08c.72,1.62,2.24,2.52,3.6,3.55s2.48,2.31,3.3,3.81c1.61,2.97,2.05,6.57,1.25,9.84-.39,1.62-1.09,3.17-2.1,4.49s-2.76,2.4-3.09,4.17.77,3.27,1.76,4.56c1.11,1.44,2.26,2.77,2.96,4.47,1.26,3.06,1.28,6.57.28,9.7s-3.09,6.01-6.05,7.63c-.58.32.32.33.59.19h0Z"/>
    </g>
    <g>
      <path d="M493.98,393.83c.46-9.77,14.8-10.42,22.47-16.49,5.85-4.63,8.11-13.18,14.76-16.53,4.79-2.41,11.47-1.93,14.38-6.44,1.7-2.62,1.39-6.04,2.39-9,3.83-11.31,23.42-10.46,26.86-21.9,3.09-10.29-10.14-21.93-4.06-30.79,1.89-2.76,5.31-4.31,6.81-7.3,3.02-6.01-3.35-12.3-8.94-16.03-7.81-5.21-15.62-10.42-23.43-15.64,16.6-9.59,36.01-14.25,55.16-13.24,7.03.37,14.37,1.63,19.91,5.98,5.53,4.36,8.52,12.59,5.05,18.72-1.02,1.79-2.52,3.32-3.24,5.26-3.18,8.5,9.78,18.88,3.62,25.54-1.43,1.55-3.6,2.27-4.98,3.86-4.04,4.63,1.02,12.6-2.26,17.8-2.85,4.51-9.82,3.83-13.97,7.18-2.51,2.02-3.65,5.25-5.46,7.92-2.51,3.72-6.31,6.34-10.01,8.87-10.52,7.19-21.05,14.39-31.57,21.58-7.44,5.09-15.54,10.38-24.56,10.17-5.08,16.26-24.48,26.45-40.75,21.41"/>
      <path d="M494.48,393.76c.38-6.25,6.62-8.79,11.63-10.87,2.81-1.17,5.67-2.28,8.29-3.83s4.89-3.78,6.76-6.33c2.05-2.8,3.77-5.87,6.11-8.45,1.28-1.41,2.76-2.64,4.49-3.46,1.62-.77,3.38-1.19,5.11-1.63,2.86-.71,6.02-1.43,8.18-3.58,2.91-2.9,2.21-7.22,3.61-10.78,2.08-5.33,7.86-7.8,12.71-10,4.56-2.07,9.88-4.2,12.68-8.6,3.45-5.43,1.03-11.74-1.18-17.14s-5.45-12.48-.62-17.64c2.4-2.55,5.84-4.37,6.5-8.12.61-3.5-1.49-6.77-3.76-9.22-2.99-3.23-6.78-5.51-10.41-7.93-4.25-2.83-8.5-5.67-12.75-8.5-2.06-1.37-4.11-2.74-6.17-4.11l-.16.3c16.89-9.7,36.72-14.44,56.18-13.01,8.57.63,18.22,3.07,22.63,11.2,1.8,3.31,2.61,7.34,1.47,11.01s-4.56,6.09-4.7,10.11c-.22,6.21,4.67,11.18,5.67,17.11.22,1.31.19,2.66-.32,3.91-.77,1.87-2.44,2.88-4.06,3.95-1.37.9-2.56,1.96-3.2,3.5s-.66,3.12-.57,4.69c.19,3.52,1.37,7.52-.32,10.84s-6.02,4.12-9.36,5.22c-1.56.51-3.11,1.13-4.45,2.1-1.53,1.11-2.61,2.66-3.56,4.27-1.14,1.94-2.15,3.94-3.62,5.67s-3.34,3.31-5.22,4.71c-4.05,3.01-8.31,5.75-12.48,8.6-4.44,3.04-8.88,6.07-13.33,9.11s-8.5,5.89-12.82,8.72c-4.09,2.67-8.4,5.2-13.12,6.57-2.37.69-4.79,1.03-7.25,1-.19,0-.62.09-.69.32-3.96,12.43-16.14,21.35-29.03,22.3-3.66.27-7.32-.12-10.83-1.19-.27-.08-1.16.33-.8.44,12.93,3.93,27.67-1.28,36.14-11.61,2.45-2.99,4.33-6.41,5.51-10.09l-.69.32c9.45.13,17.64-5.24,25.15-10.36,9.23-6.3,18.45-12.61,27.68-18.92,4.01-2.74,8.33-5.33,11.73-8.85,1.54-1.59,2.71-3.39,3.79-5.32s2.24-4.1,4.11-5.48c3.05-2.27,7.09-2.46,10.42-4.15s4.6-4.42,4.59-7.91-1.46-7.78.09-11.27,6.16-3.99,7.36-7.75c.86-2.69-.23-5.61-1.29-8.08-1.31-3.05-2.98-6-3.8-9.24-.39-1.54-.57-3.17-.24-4.74.46-2.18,1.93-3.82,3.11-5.65,2.09-3.26,2.42-7.17,1.32-10.85-2.56-8.55-10.84-12.66-19.07-14.06-9.33-1.59-19.23-1.05-28.54.48s-18.81,4.48-27.51,8.66c-2.26,1.08-4.48,2.26-6.65,3.51-.06.04-.3.21-.16.3,4.18,2.79,8.36,5.58,12.54,8.37s8.21,5.29,12.15,8.14c3.12,2.26,6.35,5.13,7.8,8.79.69,1.74.86,3.64.22,5.43-.69,1.91-2.16,3.27-3.65,4.56-2.39,2.07-4.58,4.21-5.04,7.49-.4,2.89.45,5.79,1.44,8.47,2.1,5.7,6.03,12.13,4.15,18.41-1.65,5.5-7.26,8.15-12.09,10.35s-9.97,4.13-13.1,8.37c-2.05,2.77-2.12,5.97-2.88,9.2-.48,2.05-1.47,3.83-3.24,5.02-1.49.99-3.25,1.5-4.96,1.94-3.11.81-6.29,1.46-8.96,3.36s-4.67,4.78-6.52,7.53c-1.96,2.92-3.92,5.97-6.75,8.14-2.44,1.87-5.32,3.1-8.15,4.28-4.59,1.92-10.71,3.78-13.22,8.49-.61,1.14-.91,2.38-.99,3.67-.02.35.97.14.99-.15h0Z"/>
    </g>
    <g>
      <path d="M511.93,409.94c11.28,7.06,27.56,4.62,36.27-5.44,2.91-3.36,5.02-7.41,8.28-10.43,9.46-8.79,25.78-6.76,34.77-16.02,4.9-5.05,6.59-12.52,11.3-17.76,9.38-10.44,27.69-9.05,36.33-20.1,2.21-2.83,3.62-6.32,6.37-8.63,4.38-3.7,10.99-3.47,15.69-6.75,6.2-4.32,7.56-13.6,14.02-17.53,3.84-2.34,9.03-2.44,12.09-5.74,5.34-5.73.46-16.7,6.21-22.03,2.24-2.08,5.57-2.64,7.85-4.69,5.49-4.94,1.32-14.31-4.5-18.85-7.4-5.77-16.69-8.42-25.73-10.95-2.12-.59-4.24-1.18-6.35-1.78-10.77-3.01-23.77-5.53-31.92,2.13-1.6,1.51-2.96,3.86-1.95,5.82.52,1.01,1.55,1.64,2.53,2.22,7.21,4.26,14.42,8.52,21.63,12.79-6.49,2-7.26,10.86-6.1,17.56,1.16,6.7,2.47,14.86-2.78,19.17-2.66,2.18-6.69,2.96-8.12,6.08-1.11,2.41-.15,5.26-.56,7.89-1.22,7.82-11.96,8.64-18.83,12.57-4.82,2.75-8.03,7.55-11.77,11.66-4.31,4.74-9.43,8.67-14.52,12.56-4.6,3.52-9.21,7.05-13.81,10.57-12.86,9.84-25.73,19.69-39.19,28.69-9.46,6.32-19.21,12.22-29.21,17.66"/>
      <path d="M511.56,410.23c9.86,6.08,23.17,5.28,32.52-1.43,2.54-1.82,4.63-4.08,6.49-6.59,2.12-2.88,4.04-5.98,6.76-8.35,4.66-4.05,10.83-5.62,16.65-7.22,5.48-1.5,11.21-3.06,15.74-6.65,5.26-4.18,7.28-10.64,10.74-16.15s8.31-8.38,14-10.64c5.35-2.12,10.99-3.55,16.16-6.12,2.41-1.2,4.72-2.66,6.67-4.52,2.27-2.15,3.73-4.83,5.45-7.4,2.11-3.16,4.77-5.01,8.36-6.18,3.01-.98,6.19-1.62,8.97-3.18,5.13-2.88,7.21-8.56,10.32-13.22,1.74-2.61,3.84-4.75,6.77-5.98s5.99-1.72,8.6-3.45c4.86-3.22,4.55-9.31,4.84-14.46.15-2.75.45-5.74,2.17-8.01,2.06-2.71,5.66-3.23,8.25-5.26,4.49-3.51,3.51-9.58.98-13.97-3.28-5.69-9.3-9.12-15.17-11.64-7-3-14.46-4.81-21.78-6.86-6.07-1.7-12.35-3.2-18.7-3.02-5.54.16-12.44,2-15.59,7.01-.68,1.08-1.16,2.42-.84,3.7.37,1.47,1.67,2.32,2.89,3.05,3.59,2.15,7.21,4.26,10.81,6.39s7.21,4.26,10.81,6.39l.28-.65c-5.24,1.72-6.86,7.32-6.95,12.33-.11,6.09,2.26,12.03,1.24,18.14-.56,3.35-2.3,5.93-5.26,7.61-2.33,1.32-5.22,2.41-6.41,5.02-1.43,3.13.25,6.73-1.15,9.91-1.06,2.43-3.34,3.96-5.64,5.09-5.22,2.56-11.04,3.64-15.58,7.49-2.68,2.27-4.85,5.04-7.12,7.7-2.64,3.09-5.55,5.9-8.67,8.5-6.59,5.51-13.58,10.57-20.4,15.78-6.76,5.17-13.51,10.35-20.35,15.41-13.83,10.23-28.08,19.84-43.05,28.33-1.88,1.07-3.77,2.12-5.67,3.15-.59.32-.06.89.45.62,14.83-8.09,29.04-17.19,42.73-27.07,13.97-10.08,27.57-20.67,41.22-31.17,3.21-2.46,6.39-4.97,9.34-7.74,2.71-2.53,5.08-5.34,7.48-8.15s4.95-5.54,8.24-7.3c2.45-1.31,5.1-2.2,7.69-3.18,4.3-1.63,9.56-3.75,10.75-8.73.84-3.5-1.04-7.61,2.09-10.34,2.2-1.91,5.18-2.64,7.28-4.72,4.31-4.27,3.48-11.2,2.61-16.63s-1.95-12.34,1.88-16.99c.91-1.11,2.09-1.89,3.44-2.34.22-.07.64-.44.28-.65-7.07-4.18-14.14-8.35-21.2-12.54-1.51-.89-3.28-1.89-3.16-3.91.11-1.88,1.57-3.44,2.94-4.57,2.3-1.9,5.07-3.09,7.98-3.69,6.35-1.3,13.06-.04,19.25,1.53,6.8,1.72,13.65,3.57,20.28,5.87,6.24,2.16,13.18,5.06,17.6,10.18,3.38,3.93,6.56,10.97,2.3,15.43-2.18,2.29-5.56,2.79-7.95,4.8-1.85,1.56-2.8,3.76-3.24,6.09-.94,5.01.48,11.21-2.74,15.56-1.98,2.67-5.33,3.48-8.32,4.49-2.61.88-4.97,2.02-6.91,4.01-3.86,3.95-5.47,9.51-9.24,13.53-4.46,4.76-11.42,4.32-16.64,7.74-2.62,1.71-4.2,4.37-5.83,6.96s-3.43,4.74-5.86,6.52c-8.81,6.47-20.69,6.77-29.37,13.51-4.85,3.77-7.13,9.3-10.02,14.53-1.6,2.9-3.49,5.6-6.13,7.66-2.24,1.75-4.82,2.99-7.47,3.98-5.39,2-11.09,3-16.46,5.05-2.47.94-4.86,2.11-6.99,3.68-2.6,1.91-4.57,4.42-6.43,7.03s-3.83,5.42-6.38,7.6c-2.15,1.84-4.6,3.31-7.22,4.41-5.51,2.3-11.76,2.87-17.59,1.58-2.85-.63-5.57-1.74-8.06-3.28-.39-.24-1.25.29-.76.59h0Z"/>
    </g>
    <g>
      <path d="M651.05,353.72c-3.89-3.35-.82-10.09,3.67-12.56,4.49-2.48,10-2.86,14.21-5.79,5.47-3.82,7.48-11,12.16-15.76,4.96-5.04,12.26-6.78,18.57-9.99,6.3-3.2,12.33-9.59,10.69-16.47-.88-3.7-3.81-7.75-1.55-10.81,2.29-3.11,8.02-1.81,10.1-5.06,2.33-3.65-2.54-8.16-1.86-12.44.45-2.86,3.31-4.75,6.13-5.45,9.72-2.41,18.89,4.96,26.21,11.79,8.52,7.96,17.04,15.92,25.56,23.88.59.55,1.19,1.11,1.6,1.81,1.86,3.17-1.33,7.31-4.93,8.01-3.61.7-7.23-.76-10.76-1.77-3.53-1.01-7.71-1.44-10.54.9-2.84,2.35-3.21,6.58-5.36,9.57-5.28,7.33-17.23,3.75-25.15,8.09-4.9,2.69-7.77,8.21-12.7,10.83-5.03,2.67-11.18,1.83-16.65,3.39-7.68,2.19-13.14,8.74-19.13,14.02-5.99,5.28-12.95,7.05-20.25,3.81"/>
      <path d="M651.43,353.43c-2.02-1.84-1.96-4.64-.92-7,1.1-2.5,3.07-4.38,5.52-5.53,5.27-2.48,11.24-2.91,15.51-7.25,3.87-3.93,5.76-9.31,9.47-13.37,4.1-4.48,10.05-6.44,15.47-8.79,5.04-2.18,9.91-5.1,12.81-9.93,1.34-2.23,2.08-4.84,1.76-7.45-.36-2.87-2.07-5.36-2.5-8.21-.97-6.46,7.15-4.62,10.24-7.82,3.74-3.86-1.95-8.98-1.24-13.29.51-3.08,3.73-4.71,6.5-5.24,3.09-.59,6.26-.14,9.19.93,5.93,2.17,10.9,6.47,15.46,10.7,5.47,5.08,10.91,10.19,16.36,15.29,2.68,2.5,5.35,5,8.03,7.5,1.2,1.12,2.84,2.25,3.33,3.9.44,1.46-.12,3-1.02,4.17-4.5,5.84-12.7.39-18.39-.07-2.47-.2-5.08.18-7.04,1.8s-2.78,3.99-3.7,6.23c-1.06,2.57-2.42,4.84-4.92,6.24-2.08,1.17-4.48,1.65-6.83,1.98-4.72.66-9.71.67-14.11,2.72-5.07,2.36-7.84,7.53-12.4,10.56-5.35,3.56-12.15,2.34-18.06,4.15-5.42,1.66-9.78,5.44-13.84,9.24-4.58,4.29-9.14,9.14-15.72,9.95-3.12.39-6.19-.23-9.06-1.47-.42-.18-1.15.42-.57.67,5.51,2.38,11.48,2.09,16.7-.91s9.42-8.32,14.32-12.16c2.52-1.97,5.28-3.69,8.36-4.64,3.24-.99,6.65-1.08,9.98-1.52,2.9-.39,5.76-1.07,8.25-2.66s4.39-3.78,6.4-5.86,4.2-4.07,6.97-5.15c2.57-1.01,5.36-1.36,8.09-1.66,4.57-.51,9.79-.71,13.55-3.7,1.97-1.57,3.05-3.71,3.98-6,1.22-2.98,2.52-6.07,6-6.88,6.55-1.54,12.82,4.36,19.31,2.04,2.11-.76,4.03-2.52,4.69-4.69.89-2.92-1.19-4.69-3.13-6.51-5.72-5.34-11.44-10.69-17.16-16.03-5.15-4.82-10.16-10-15.99-14.02-4.86-3.35-10.66-5.91-16.68-4.92-2.39.39-4.83,1.35-6.45,3.21-1.76,2.02-1.68,4.47-.85,6.87s2.59,5.04,1.74,7.53c-.9,2.65-4.18,2.87-6.47,3.5-2,.55-4.01,1.54-4.68,3.67-.87,2.75.87,5.7,1.73,8.23,2.22,6.49-1.89,12.23-7.1,15.83s-11.47,4.97-16.84,8.16c-2.38,1.41-4.51,3.16-6.24,5.32s-3.18,4.74-4.69,7.15-3.27,4.92-5.65,6.67c-2.77,2.04-6.18,2.86-9.39,3.9-2.55.83-5.18,1.77-7.18,3.63-1.7,1.59-3.03,3.72-3.44,6.03-.37,2.09.2,4.08,1.78,5.53.33.3,1.19-.19.76-.58h0Z"/>
    </g>
    <g>
      <path d="M706.32,339.05c4.8-7.07,16.41-3.15,23.78-7.47,4.53-2.65,7.24-8.35,12.38-9.41,6.16-1.27,13,4.86,18.29,1.47,3.56-2.28,4.07-7.8,7.82-9.76,3.43-1.8,7.54.36,10.69,2.61,10.76,7.67,20.21,17.16,27.84,27.94.85,1.2,1.71,2.51,1.79,3.98.18,3.33-3.91,5.56-7.15,4.78-3.24-.78-5.62-3.48-7.65-6.11-2.04-2.64-4.11-5.48-7.17-6.79-9-3.87-18.99,7.71-28.23,4.45-2.82-1-5.13-3.3-8.08-3.83-6.83-1.23-12.6,7.5-19.38,6.05-2.5-.53-4.48-2.37-6.73-3.59-3.69-2-8.27-2.26-12.17-.7-1.83.73-3.58,1.86-5.54,1.9-1.97.04-4.14-1.73-3.53-3.6"/>
      <path d="M706.79,339.09c2.22-3.16,5.98-3.98,9.6-4.4s7.07-.46,10.47-1.43,6.03-3.2,8.53-5.77c2.89-2.97,5.81-5.66,10.26-5.07,3.75.5,7.22,2.49,11.03,2.57,3.46.07,5.85-1.89,7.52-4.76.92-1.58,1.67-3.31,2.88-4.69,1.81-2.07,4.33-2.36,6.85-1.51,2.21.75,4.14,2.11,6,3.47,1.97,1.44,3.9,2.94,5.78,4.5,7.43,6.17,14.11,13.26,19.82,21.05,1.29,1.76,3.27,3.94,2.82,6.3-.39,2.09-2.52,3.4-4.51,3.62-4.7.51-7.96-4.46-10.47-7.64-2.32-2.95-5.04-5.62-8.93-6.1-3.29-.41-6.56.7-9.57,1.89-3.51,1.39-6.99,3.22-10.78,3.74-1.85.25-3.72.12-5.47-.57-2.07-.82-3.82-2.27-5.87-3.13-3.21-1.34-6.41-.47-9.37,1.07s-6.14,4.15-9.7,4.51c-2.41.24-4.42-.88-6.38-2.15-1.85-1.2-3.67-2.28-5.83-2.82-2.05-.51-4.19-.59-6.27-.24s-3.98,1.37-6,2.15c-1.35.53-2.79.8-4.1.01-1.01-.61-1.64-1.61-1.35-2.8.11-.43-.9-.29-1,.1-.42,1.7.89,3.1,2.42,3.63,1.97.68,4.02-.22,5.8-1.04,2.56-1.17,5.12-1.83,7.95-1.55s5,1.39,7.25,2.85c1.78,1.16,3.6,2.32,5.77,2.51,1.59.14,3.16-.23,4.63-.8,3.57-1.39,6.54-4.08,10.24-5.15,2.36-.69,4.51-.21,6.64.96,1.87,1.02,3.61,2.29,5.69,2.85,3.43.92,6.98-.02,10.21-1.23,3.74-1.4,7.38-3.42,11.36-4.06,1.89-.31,3.82-.23,5.61.48,2.32.92,4.08,2.78,5.63,4.68,2.64,3.25,5.22,7.45,9.64,8.38,2.9.61,6.85-.86,7.67-3.98.54-2.05-.71-3.92-1.84-5.51-1.45-2.05-2.98-4.05-4.56-6-3.26-4.01-6.78-7.81-10.53-11.37-3.57-3.38-7.34-6.53-11.3-9.44-3.29-2.42-7.67-5.53-11.96-3.92-3.56,1.33-4.6,5.23-6.6,8.08-1.39,1.97-3.33,3.06-5.77,2.95-2.06-.09-4.06-.81-6.01-1.41-3.61-1.11-7.37-1.99-10.88-.1s-5.67,5.38-8.8,7.73c-6.35,4.76-15.06,1.75-21.8,5.43-1.37.75-2.49,1.77-3.38,3.04-.29.41.72.38.94.07h0Z"/>
    </g>
    <g>
      <path d="M749.17,353.19c6.85-5.12,16.54,2.37,24.92.69,5.15-1.03,9.57-5.53,14.77-4.86,6.23.81,10.7,8.84,16.81,7.35,4.11-1,6.39-6.04,10.57-6.67,3.83-.58,7.01,2.8,9.26,5.95,7.67,10.76,13.51,22.81,17.21,35.49.41,1.42.8,2.93.39,4.35-.92,3.2-5.51,3.98-8.32,2.19-2.81-1.79-4.17-5.12-5.24-8.27-1.07-3.16-2.1-6.52-4.56-8.76-7.25-6.6-20.47,1.1-28.14-5-2.35-1.86-3.77-4.8-6.39-6.26-6.05-3.39-14.35,2.98-20.3-.6-2.19-1.32-3.47-3.71-5.19-5.59-2.84-3.09-7.08-4.84-11.28-4.63-1.96.1-3.99.59-5.86-.02-1.87-.6-3.35-2.98-2.16-4.55"/>
      <path d="M749.49,353.39c3.47-2.49,7.75-1.68,11.62-.75,3.66.88,7.4,2.04,11.21,1.79,4.07-.26,7.4-2.62,11.06-4.15,2.1-.87,4.32-1.32,6.54-.66,1.75.51,3.3,1.53,4.77,2.57,2.58,1.83,5.21,4.23,8.48,4.64s5.85-1.71,8.17-3.81c1.38-1.26,2.93-2.7,4.85-2.99,2.43-.37,4.61,1.08,6.26,2.71,3.28,3.25,5.72,7.57,8.05,11.51,5.03,8.51,9.08,17.71,11.77,27.23.64,2.26.91,4.93-1.49,6.22-1.67.9-3.88.73-5.49-.22-3.74-2.21-4.76-7-6.14-10.78-1.27-3.49-3.16-6.68-6.72-8.17-3.12-1.31-6.66-1.18-9.97-.99-3.69.21-7.56.73-11.19-.2-1.88-.48-3.57-1.4-4.96-2.78s-2.5-3.06-3.99-4.36c-2.79-2.45-6.35-2.4-9.81-1.8s-7.87,2.14-11.41.43c-1.93-.93-3.18-2.72-4.46-4.36s-2.8-3.15-4.67-4.23c-1.65-.96-3.49-1.59-5.37-1.87-2.45-.37-4.85.34-7.29.11-1.99-.19-4.61-2.25-3.19-4.44.28-.43-.72-.42-.94-.08-.91,1.39-.28,3.04.89,4.07,1.56,1.38,3.79,1.22,5.72,1.04,2.68-.25,5.21-.14,7.73.9,2.26.93,4.18,2.44,5.72,4.33,1.38,1.69,2.6,3.62,4.51,4.78,1.46.88,3.17,1.2,4.85,1.19,3.99-.02,7.82-1.72,11.82-1.55,2.34.1,4.24,1.07,5.85,2.75,1.44,1.51,2.62,3.27,4.29,4.56,2.82,2.17,6.47,2.55,9.91,2.5,3.97-.06,7.97-.75,11.94-.24,1.84.24,3.65.79,5.19,1.86,2,1.4,3.23,3.53,4.13,5.75,1.57,3.89,2.34,8.49,5.69,11.36,2.33,1.99,6.06,2.41,8.58.48,1.38-1.05,1.87-2.63,1.71-4.32-.25-2.52-1.32-5.1-2.14-7.49-1.68-4.92-3.68-9.72-5.99-14.37s-4.8-8.95-7.62-13.17c-2.27-3.4-4.99-7.93-9.3-8.91-3.68-.84-6.37,1.71-8.88,3.97-1.62,1.45-3.42,2.85-5.7,2.78-1.86-.06-3.57-1.01-5.08-2.02-2.96-1.96-5.71-4.67-9.3-5.4-4.12-.84-7.83,1.49-11.39,3.2-2.1,1.01-4.24,1.76-6.59,1.79s-4.49-.43-6.67-.95c-3.77-.9-7.75-2.26-11.68-1.69-1.66.24-3.18.86-4.54,1.83-.55.39.27.67.64.4h0Z"/>
    </g>
    <path d="M403.08,562.06c-7.77,4.47,47.14,27.03,46.78,18.07-.36-8.96,10.15-38.22,16.53-44.52,6.38-6.3-41.08,28.77-38.87-14.58-8.05-4.8-17.35,24.05-26.49,22-11.89-2.67,3.76-21.77,8.41-33.04,4.65-11.27,4.3-15.41,9.55-26.41,1.98-4.14-6.31-12.05-10.41-14.1-1.54-.77-3.35-.68-5.07-.84-7.55-.7-13.88-6.74-16.53-13.84-2.65-7.1,19.35-19.5,21.22-26.85,3.18-12.53.26-21.99,9.91-30.61,3.87-3.46-3.25-4.24-1.03-8.93,2.22-4.69,1.04-11.53-3.85-13.25-2.9-1.02-6.07.02-8.95,1.1-13.06,4.89-26.14,10.77-36.08,20.56-9.93,9.79-16.26,24.24-13.14,37.83,1.23,5.37,3.88,10.62,3.24,16.1-.8,6.84-6.5,12.12-8.37,18.75-3.76,13.38-15.7,26.63-20.65,39.62-1.54,4.06,19.97,8.49,18.14,12.43-3.26,7.01-1.86,15.93,3.39,21.61,3.16,3.41,7.45,5.63,10.59,9.05,11.74,12.81-5.31,23.53,2.34,39.14"/>
    <path d="M445.2,274.43c7.89.23,14.11-6.2,20.4-10.98,9.79-7.43,22.02-11.58,34.31-11.65,9.28-.05,18.78,2.13,27.69-.47,5.14-1.5,9.69-4.49,14.38-7.07,16.39-9.01,35.39-13.21,54.05-11.95,4.01.27,8.1.78,12-.18,4.62-1.14,8.47-4.21,12.68-6.42,9.62-5.05,21.54-5.45,31.48-1.06,14.69,6.49,26.35,22.91,42.28,20.82,11.84-1.55,23.69-13.37,33.81-7.02,4.72,2.96,6.64,8.94,10.86,12.57,9.04,7.8,24.31,2.04,34.09,8.89,8.06,5.65,9.26,17.71,16.98,23.81,5.1,4.03,12.02,4.66,18.04,7.13,6.01,2.47,11.74,8.79,9.38,14.85l5.19,7.87c33.19,24.39,42.3,102.93,35.58,100.22-6.72-2.71-39.25-52.28-40.94-59.33-10.63-44.24-52.25-62.4-64.1-65.43-10.69-2.73-22.14-3.46-31.72-8.93-6.08-3.47-16.49,3.28-23.37,1.98-9.28-1.75-13.87-7.67-22.9-10.44-4.77-1.46-10.65,6.68-14.31,3.29-9.6-8.9-26.13-7.1-38.97-4.52-10.82,2.17-13.26-10.14-24.21-8.84-7.21.85-10.46,13.82-17.68,13.04-10.45-1.12-17.82-1.18-27.91,1.76-17.42,5.07-41.72-2.52-59.14,2.55-11.69,3.4-21.14,22.07-30.98,29.22-14.24,10.34-26.47,12.9-43.58,17.01-5.84-10.05-5.91-23.2-.16-33.3,5.74-10.1,17.08-16.78,28.7-16.9"/>
    <path d="M434.47,287.71c-1.16-6.79,2.47-14.24,8.91-17.06s13.91,1.32,20.63-1.52c6.33-2.67,8.51-9.49,13.47-13.76,5.29-4.55,12.48-6.86,19.42-6.35s12.65,5.31,19.64,5.38c5.84.06,11.05-2.75,15.35-6.5,4.91-4.27,8.76-9.7,13.9-13.71,5.97-4.66,13.75-6.63,21.23-5.79,16.24,1.81,24.99,18.61,41.03,21.2,4.11.66,7.92-5.22,2.64-6.08-7.95-1.29-13.9-7.04-20.06-11.77s-12.12-8.03-19.5-9.23c-15.72-2.56-28.47,4.62-38.87,15.69-5.42,5.77-10.64,12.01-19.15,8.79-7.02-2.65-13.19-4.89-20.87-4-6.85.79-13.53,3.31-19.01,7.54-2.65,2.05-4.98,4.5-6.92,7.23-.95,1.33-1.77,2.9-2.9,4.09-2.44,2.57-5.16,2.42-8.46,2.11-8.09-.75-15.29.13-21.46,5.93-5.51,5.18-8.2,12.44-6.92,19.92.67,3.89,8.58,1.87,7.89-2.12h0Z"/>
    <path class="cls-1" d="M381.27,583.91s19.5-292.54,250.39-283.62c0,0,105.94-17.55,203.85,66.31,0,0-30.13-62.99-82.89-94.51,0,0-173.26-76.62-302.15,41.85-128.89,118.47-103.75,269.16-103.75,269.16l34.55.81Z"/>
    <g>
      <path class="cls-13" d="M353.67,619.28s6.45-19.77,21.12-23.89c14.67-4.12,45.74-3.01,57.35,18.83,0,0,13.24-14.02-2.67-34.09-18.25-23.01-48.87-27.49-68.27-14.76-33.71,22.13-7.53,53.91-7.53,53.91Z"/>
      <path class="cls-7" d="M354.23,619.17c1.13-3.44,2.83-6.77,4.72-9.85,3.65-5.95,8.83-11.71,15.74-13.74,5.77-1.69,12-2.06,17.98-1.81,7.11.3,14.27,1.67,20.81,4.51,7.62,3.31,14.14,8.72,18.1,16.09.13.23.95-.07,1.07-.21,1.81-1.92,3.08-4.48,3.94-6.95,2.1-6.02,1.46-12.54-1.08-18.33-3.39-7.75-9.6-14.45-16.31-19.49-5.98-4.48-12.82-7.78-20.07-9.61-12.99-3.27-27.44-1.69-38.72,5.82-6.18,4.12-11.74,9.52-14.69,16.44-2.23,5.23-2.77,11.01-1.89,16.61.75,4.74,2.42,9.3,4.65,13.54,1.25,2.37,2.64,4.87,4.38,6.92.08.1.16.21.24.31.21.25,1.19-.23,1.13-.3-3.73-4.54-6.5-10.23-8.15-15.84-1.48-5-2-10.32-1.06-15.47,1.2-6.52,4.76-12.28,9.5-16.84,5.31-5.1,11.79-8.96,18.92-10.87,6.74-1.8,13.87-1.95,20.73-.77,15.09,2.6,29.21,11.84,37.48,24.76,3.74,5.85,5.98,12.82,4.75,19.78-.63,3.57-2.11,7.13-4.41,9.96-.09.11-.35.42-.36.42l1.07-.21c-7.37-13.7-22.78-19.64-37.59-20.63-6.29-.42-12.72-.06-18.86,1.41-6.9,1.65-12.3,6.01-16.42,11.68-2.81,3.87-5.22,8.29-6.72,12.85-.06.17,1.02.06,1.11-.21Z"/>
    </g>
    <g>
      <path class="cls-8" d="M437.64,597.98s22.19,42.05-1.02,55.04c-13.69,7.66-17.72-2.55-22.27,4.17-4.55,6.71-1.33,14.38-1.33,14.38,0,0-8.14,10.34-11.78-4.81-2.19-9.1,5.66-26.35,19.75-21.74,0,0,12.56,7.91,15.49-10.14,1.3-8.02-2.06-17.41-8.95-27.33-6.9-9.92,10.12-9.56,10.12-9.56Z"/>
      <path class="cls-7" d="M437.07,598.13c1.94,3.69,3.53,7.6,4.94,11.52,2.7,7.5,4.78,15.53,4.61,23.56-.08,3.97-.77,7.99-2.56,11.58-1.96,3.94-5.15,6.89-9.06,8.86-2.66,1.34-5.54,2.24-8.55,2.17-1.78-.05-3.5-.46-5.23-.86-2.5-.58-4.97-.59-6.79,1.48-3.34,3.79-3.75,9.57-2.35,14.24.24.79.51.86,0,1.41-.67.74-1.44,1.42-2.28,1.95-3.49,2.2-5.98-1.36-7.11-4.38-1.58-4.23-1.59-8.5-.22-12.8,1.29-4.06,3.69-8.02,7.27-10.44,3.14-2.12,7.59-2.72,11.06-1.01,4.22,2.08,9.4,2.28,12.69-1.61s4.05-9.51,3.75-14.19c-.43-6.5-3.21-12.68-6.54-18.18-1.37-2.26-3.52-4.5-4.14-7.14-.33-1.39,0-2.75,1.05-3.74,1.99-1.87,5.3-2.18,7.9-2.32.58-.03,1.16-.05,1.74-.04.22,0,1.27-.41.74-.42-3.91-.08-13.89.74-12.58,6.73.25,1.16.87,2.21,1.53,3.19,1.25,1.85,2.47,3.7,3.57,5.64,1.97,3.46,3.63,7.13,4.66,10.98,1.6,6.02,1.52,13.42-2.08,18.77-1.09,1.62-2.67,3.02-4.65,3.35-1.44.24-2.96-.01-4.34-.46-.85-.27-1.61-.67-2.41-1.05-1.6-.77-3.64-.96-5.4-.9-9.91.36-16.3,10.97-15.98,20.13.09,2.71.91,5.57,2.24,7.93.86,1.53,2.15,2.94,3.99,3.11,2.56.23,4.97-1.47,6.61-3.27.14-.15.28-.31.41-.47v-.04c-1.38-3.35-1.49-7.52-.35-10.94.6-1.8,1.71-4.33,3.54-5.25.99-.51,2.26-.15,3.28.08,3.31.75,6.42,1.26,9.8.54,4.1-.87,8.22-2.9,11.28-5.79,5.24-4.93,6.82-12.22,6.62-19.17s-2.09-14.48-4.53-21.31c-1.43-3.99-3.04-7.98-5.02-11.73-.13-.25-1.2.17-1.13.3Z"/>
    </g>
    <g>
      <path class="cls-14" d="M427.49,657.49s-10.73-38.3-34.51-37.48c-9.74.33-15.27,18.79-2.5,42.77,6.76,12.69,24.34,13.46,24.34,13.46,0,0-9.64-19.74,5.5-21.07,5.46-.48,7.18,2.32,7.18,2.32Z"/>
      <path class="cls-7" d="M428.05,657.34c-1.39-4.95-3.45-9.79-5.77-14.36-4.07-8.05-9.68-16.36-17.9-20.63-3.68-1.91-8.39-3.22-12.55-2.41-3.6.7-6.13,3.49-7.55,6.74-2.17,5-2.17,10.82-1.38,16.11.55,3.75,1.56,7.42,2.86,10.97,1.39,3.79,3.01,7.76,5.3,11.1,4.98,7.28,14.27,10.86,22.8,11.57.19.02.38.03.57.04.12,0,1.04-.15.93-.39-2.88-5.93-6.2-18.3,2.95-20.41,2.57-.59,6.95-.65,8.6,1.96.18.28,1.23-.15,1.13-.3-1.31-2.07-4.45-2.52-6.65-2.45-2.9.09-6.14.9-8.12,3.17-3.33,3.82-2.07,9.86-.66,14.2.46,1.4.97,2.8,1.62,4.13l.93-.39c-7.13-.33-14.91-3.15-20.1-8.09-2.38-2.27-3.95-4.98-5.38-7.91-1.74-3.59-3.21-7.31-4.29-11.15-1.62-5.8-2.47-12.09-1.31-18.06.73-3.73,2.44-8.1,6.06-9.9,1.77-.88,3.87-.73,5.77-.5,2.3.28,4.54.97,6.63,1.97,8.07,3.85,13.68,11.69,17.79,19.38,1.73,3.25,3.25,6.62,4.57,10.06.46,1.19.89,2.39,1.29,3.6.21.63.33,1.39.63,1.98.04.08.06.19.08.28.07.26,1.2-.04,1.13-.3Z"/>
    </g>
    <path class="cls-3" d="M979.28,1306.46c-28.81,53.53-18.81,390.31-33.35,513.39-6.28,53.14,22.16,51.07,6.35,85.45-31.27,68-18.05-62.35,11.23,34.41,0,0-237.39,94.31-412.55,111.15-175.16,16.84-402.47-41.18-402.47-41.18,63.3-158.62,79.31-247.76,79.31-247.76l-23.25-290.44-95.06-171.78c-21.46-154.09,44.98-272.23,204.22-351.21l135.85-66.9s117.74,153.8,260.71,114.49c86.03-23.65,33.49-88.8,33.49-88.8,0,0,208.29,73.88,243.75,101.05,35.46,27.17-.4,53.76,35.41,146.18,36.77,94.88,76.73,157.16,85.38,173.02,8.65,15.86-154.73,114.81-154.73,114.81"/>
  </g>
</svg>