<?xml version="1.0" encoding="UTF-8"?>
<svg xmlns="http://www.w3.org/2000/svg" xmlns:xlink="http://www.w3.org/1999/xlink" viewBox="0 0 1164.24 1169.77">
  <defs>
    <style>
      .cls-1 {
        fill: none;
      }

      .cls-2 {
        fill: #13110f;
      }

      .cls-3 {
        fill: #5e3527;
      }

      .cls-4 {
        fill: #010101;
      }

      .cls-5 {
        fill: #727272;
      }

      .cls-6 {
        fill: #11394c;
      }

      .cls-7 {
        fill: #653c29;
      }

      .cls-8 {
        fill: #231f20;
      }

      .cls-9 {
        fill: #27153c;
      }

      .cls-10 {
        fill: url(#linear-gradient);
      }

      .cls-11 {
        fill: #f1eef7;
      }

      .cls-12 {
        fill: #a66e53;
      }

      .cls-13 {
        fill: #e9f6f8;
      }

      .cls-14 {
        fill: #0a2f44;
      }

      .cls-15 {
        fill: #ce8d2a;
      }

      .cls-16 {
        clip-path: url(#clippath-1);
      }

      .cls-17 {
        stroke: #000;
        stroke-miterlimit: 10;
        stroke-width: .48px;
      }

      .cls-18 {
        fill: #c95744;
      }

      .cls-19 {
        fill: url(#linear-gradient-2);
        opacity: .5;
      }

      .cls-20 {
        fill: #661d0d;
      }

      .cls-21 {
        fill: #fff;
      }

      .cls-22 {
        fill: #88acb5;
      }

      .cls-23 {
        fill: #3a221a;
      }

      .cls-24 {
        fill: #1b1c4d;
      }

      .cls-25 {
        fill: #2a5c8f;
      }

      .cls-26 {
        clip-path: url(#clippath);
      }

      .cls-27 {
        fill: #4f2e25;
      }
    </style>
    <clipPath id="clippath">
      <circle class="cls-1" cx="581.59" cy="581.59" r="581.59"/>
    </clipPath>
    <linearGradient id="linear-gradient" x1="582.57" y1="574.95" x2="569.28" y2="-588.16" gradientUnits="userSpaceOnUse">
      <stop offset=".11" stop-color="#bbe5f5"/>
      <stop offset=".63" stop-color="#76c7db"/>
    </linearGradient>
    <clipPath id="clippath-1">
      <ellipse class="cls-1" cx="580.8" cy="2106.6" rx="581.59" ry="580.55"/>
    </clipPath>
    <linearGradient id="linear-gradient-2" x1="1236.13" y1="2288.05" x2="2802.61" y2="2288.05" gradientTransform="translate(-1650.13 -70.91) rotate(90) scale(1 -1)" gradientUnits="userSpaceOnUse">
      <stop offset="0" stop-color="#f0ebe0"/>
      <stop offset=".18" stop-color="#eee8dd" stop-opacity=".99"/>
      <stop offset=".33" stop-color="#e8e1d4" stop-opacity=".97"/>
      <stop offset=".46" stop-color="#ded4c5" stop-opacity=".93"/>
      <stop offset=".59" stop-color="#d0c2b0" stop-opacity=".88"/>
      <stop offset=".72" stop-color="#bdab95" stop-opacity=".82"/>
      <stop offset=".84" stop-color="#a78e73" stop-opacity=".73"/>
      <stop offset=".96" stop-color="#8d6d4d" stop-opacity=".64"/>
      <stop offset="1" stop-color="#83603d" stop-opacity=".6"/>
    </linearGradient>
  </defs>
  <g id="Layer_2" data-name="Layer 2">
    <g class="cls-26">
      <circle class="cls-10" cx="582.64" cy="581.59" r="581.59"/>
      <path class="cls-14" d="M212.49,1646.31s-12.41,8.91,19.79,12.04c17.94,1.74,58.65,3.31,76.65,3.28,17.79-.02,18.12,1.1,35.55-2.92,5.52-1.27,2.58-2.01,8.04-3.49l13.13-235.1,5.9-261.77,38.34-133.18-255.63-6.37-5.91,18.46c-4.96,37.03-4.71,74.62.73,111.58l43.98,165.75s19.84,313.29,19.43,331.71Z"/>
      <path class="cls-14" d="M411.95,1644.07c23.38-1.72,36.4,3.77,53.34-10.38l37.48-579.82-129.5-35.06-40.31,614.57c25.96.24,53,12.6,78.99,10.68Z"/>
      <path class="cls-5" d="M1053.17,1978.34c13.98-6.06,22.66-48.57,20.92-63.7-6.49-56.35-10.64-154.28-12.97-321.55-1.17-84.35,4.21-208.74,26.82-284.12,21.92-73.09,56.85-130.6,59.58-202.85,5.51-146.38-28.24-190.54-69.99-249.94l-415.9,32.48-6.36,66.74c-1.75,33.74-.11,121.34,16.1,227.06,12.4,80.91,38.9,302.99,44.54,390.02l52.22,379.11c1.58,10.98,11.8,28.56,22.65,30.84,24.77,5.21,82.99,1.63,107.1-9.11,1.93-.86-3.99,18.3,19.4,19.78,39.09,2.48,71.78,13.05,135.89-14.75Z"/>
      <path class="cls-12" d="M623.1,463.61c11.22-7.92,22.51-21.78,23.41-22.97.54-.71,1.08-1.44,1.3-2.28.33-1.28-.14-2.58-.61-3.8-13.11-34.02-27.15-67.67-41.4-101.24l152.31-63.61s.96,80.31,27.17,105.62c.35.33,5.18,3.66,5.18,3.66l41.43,10.66c-14.82,24.22-15.75,40.98-37.04,59.38-22.8,19.7-37.99,70.2-67.03,79.13-16.32,5.02-33.34,7.27-50.29,9.31-11.24,1.35-25.78-32.82-33.49-34.34-5.75-4.5-11.13-9.75-15.77-15.49-4.35-9.22-7.38-12.63-5.17-24.03Z"/>
      <path class="cls-13" d="M593.15,720.6c2.37,71.83,13.46,91.88,30.96,105.8,22.41,17.83,17.37,21.46,30.18,37.15,25.33,31.03,24.82,56.14,22.65,110.2,0,0,142.07,37.13,235.07,22.33,93-14.8,182.01-72.92,182.01-72.92-54.09-73.67-67.19-116.58-67.19-116.58l-13.16-157.16-9.74-80.38c-9.57-82.71-33.28-143.49-126.38-163.02l-81.52-26.31s-18.74,95.58-97.72,103.35c-78.97,7.76-52.1-44.27-52.1-44.27,0,0-56.42,30.77-71.14,49.6-14.72,18.83-36.66,55.93-36.64,108.97.02,53.04-19.4,123.36-21.75,132.74-2.35,9.38,77.54,14.13,77.54,14.13"/>
      <path class="cls-25" d="M479.22,872.08l146.87,44.35,5.94-294.19,8.07-125.72,6.39-58.9s-64.07,34.47-88.77,61.6c-31.59,34.69-50.85,150.2-60.39,189.18l-18.11,183.68Z"/>
      <path class="cls-12" d="M428.09,501.64c-1.5-13.74-7.32-38.89-10.88-46.6-1.2-6.25-2.63-13.5-4.41-22.24-.51-2.53-1.08-4.95-1.65-7.34-.41-1.2-.72-2.43-.92-3.68-10.88-42.07-29.83-61.11-29.83-61.11-24.17-24.07-59.25-33.45-92.15-24.63-38.91,9.56-68.86,41.23-81.89,69.27-6.48,13.89-7.62,29.69-3.19,44.36,3.76,12.55,9.93,26.2,16.47,39.28-13.8,2.43-26.09,10.33-15.48,34.39,14.64,33.18,39.45,38.93,47.83,27.03,2.52-.11,9.71,9.32,11.9,16.44,4.2,13.63,9.17,38.4,5.06,52.06l1.25,3.87c40.12,40.91,70.81,41.96,165.29-8.73l-51.19-22.72-2.28-9.22c7.53-2.24,9.91-1.75,16.34-6.18,29.65-15.19,31.49-58.04,29.72-74.24Z"/>
      <path d="M748.37,245.88c10.67,4.66,18.07,16,18.04,27.64-.01,5.44-1.49,10.75-2.27,16.13-1.17,8.05-.75,16.33,1.23,24.23,1.79,7.18,6.45,15.17,13.86,15.22,1.58.01,3.17-.36,4.73-.08,1.55.28,3.13,1.54,2.98,3.12-.13,1.38-1.47,2.29-2.67,2.97-3.77,2.14-7.72,4.15-12.01,4.84-4.28.69-9-.1-12.22-3.01-2.73-2.46-4.07-6.07-5.1-9.59-2.82-9.62-4-19.72-3.49-29.73.54-10.51,2.78-21.75-2.14-31.05"/>
      <path class="cls-25" d="M564.27,578.04c1.92-8.6-28.33,197.25-35.28,244.54-.84,5.73-5.26,10.26-10.96,11.26l-265.01,37.92c-6.79,1.19-13.64,7.76-13.24,14.64,1.02,17.74.21,51.87-3.66,73.76-1.45,8.19,15.96,14.08,24.27,14.17,48.31.53,187.07,16.01,212.31,17.21,146.69,7.01,156.36-65.93,172.07-144.24,5.25-26.16-3.54-197.3-24.68-210.12-3.97-2.41-20.48-31.64-48.21-44.17-5.73-2.59-8.97-8.84-7.6-14.98Z"/>
      <path class="cls-22" d="M231.35,925.43c12.8,4.46,25.51,6.57,38.98,7.69,26.65,2.22,53.26,1.08,79.94.45,35.9-.84,71.91-.97,107.65-4.09l7.8-3.58c8.61-17.71,15.31-59.28,17.71-106.75,5.19-.03,18.59,13.78,23.26,12.24,37.64-12.43,58.29-121.67,58.29-121.67,0,0-51.46-58.77-69.78-75.98-18.32-17.21-95.95-33.49-95.95-33.49,25.68,23.72-12.13,35.55-12.13,35.55-33.23,9.18-114.85,10.74-125.5-31.84,0,0-70.56,38.89-91.45,56.12-49.62,40.92-44.67,96.44-42.98,123.4,1.53,24.53,45,50.59,45,50.59,6.67,2.19,52.47,89.04,59.15,91.37Z"/>
      <path class="cls-12" d="M660.12,844.93c-4.6-25.53-6.52-51.37-7.55-77.26l-34.54,8.99s-20.57-16.84-46.99-38.8c-5.82,12.23-12.45,24.07-19.94,35.29-12.42,18.6-28,36.57-47.4,48.24,45.17,30.48,90.55,56.31,108.03,55.75,14.81-.48,32.99-5.19,52.62-12.43-1.6-6.55-3.02-13.14-4.22-19.78Z"/>
      <path class="cls-27" d="M589.27,748.64c-7.41,10.21-7.96,24.53-1.42,35.3.41.67,2.71-.08,2.2-.93-6.34-10.44-5.73-24.44,1.43-34.31.63-.87-1.75-.69-2.21-.06h0Z"/>
      <rect class="cls-3" x="219.23" y="1002.6" width="132.45" height="49.91"/>
      <path class="cls-27" d="M381.84,582.16s-36.56,11.34-74.99-3.22c0,0,6.56,10.29,32.29,13.37,25.73,3.08,44.07-4.12,44.07-4.12l-1.37-6.04Z"/>
      <ellipse cx="398.52" cy="447.82" rx="8.54" ry="8.51" transform="translate(-56.64 837.93) rotate(-88.93)"/>
      <path d="M406.79,438.66c-4.53-1.63-10.36-2.07-18.25.43-12.63,4.01-14.89,21.47-14.89,21.47,0,0,4.11-13.86,16.49-18.13,5.96-2.06,16.82-.71,22.02.64-.4-1.2-2.63-3.28-5.37-4.41Z"/>
      <path class="cls-8" d="M214.81,522.95c-2.13-3.48-3.65-7.55-3.28-11.69.04-.5.12-1,.23-1.49.03-.11.24-.62.2-.71.12.25-.81.17-.46.23.88.15,1.82.18,2.76.5,2.22.78,4.25,2.07,6.14,3.44,4.12,2.98,7.77,6.6,11.22,10.32l1.03-.45c-1.44-.62-3.2-.96-4.73-.49-1.96.61-2.36,2.48-2.13,4.32.26,2.03,1.37,3.91,3.02,5.1,2.37,1.71,5.41,1.85,8.2,1.52.5-.06,1.03-.58.2-.49-4.25.5-8.86-.95-10.07-5.49-.33-1.25-.62-3.65.71-4.45,1.02-.62,2.81.02,3.82.46.19.08,1.27-.19,1.03-.45-3.39-3.66-6.97-7.21-11-10.16-2.03-1.49-4.23-2.89-6.63-3.71-.99-.33-2.07-.59-3.12-.5-.99.09-1.23.48-1.43,1.45-.91,4.54.75,9.21,3.1,13.04.19.31,1.29-.12,1.17-.31h0Z"/>
      <ellipse cx="312.24" cy="467.99" rx="8.54" ry="8.51" transform="translate(-161.48 771.47) rotate(-88.93)"/>
      <path d="M336.79,468.28s-16.28-14.09-30.2-9.79c-19.6,6.06-21.24,15.11-23.67,22.37,0,0,9.58-14.78,24.85-19.08,13.85-3.91,29.03,6.5,29.03,6.5Z"/>
      <path class="cls-7" d="M372.71,522.68c-11.97,2.64-31.68,5.57-31.68,5.57,0,0,5.78,33.91,38.86,26.06,27.66-6.57,21.18-38.68,21.18-38.68,0,0-16.4,4.41-28.37,7.05Z"/>
      <path d="M372.83,522.66c-5.69,1.26-26.94,5.71-26.94,5.71,0,0,9.25,18.59,29.84,14.05,22.32-4.93,21.71-23.9,21.71-23.9l-24.61,4.14Z"/>
      <path class="cls-11" d="M373.65,525.23c-5.69,1.26-23.22,4.15-23.22,4.15,0,0,7.84,3.19,24.92-.58,17.08-3.77,20.93-9.36,20.93-9.36l-22.63,5.78Z"/>
      <path class="cls-7" d="M400.93,515.48c-.13-.62-1.43-.61-4.31-.22-4.8.65-6.71-.7-10.18-.2-5.92.85-9.13,3.89-11.67,4.45-2.53.56-6.72-.84-12.46.88-3.36,1.01-11.54,4.07-16.17,5.5-2.78.86-6.32.53-6.9.81-.8.38,2.87,7.7,34.72.67,31.85-7.03,27.13-11.04,26.95-11.88Z"/>
      <path d="M327.88,435.26c-.02-.3-1.2-.14-1.23-.44-18.94-.77-32.91,1.28-37.85,3-3.76,1.3-7.28,3.3-10.52,5.75,0,0-8.98,6.62-9.84,8.8-.86,2.18,5.81-2.01,5.81-2.01,1.47-.68,2.43-1.37,3.97-1.86,8.44-2.73,16.32-6.44,25.2-6.89,7.59-.43,18.33,1.77,25.91,3.07-.32-3.26-1.42-6.14-1.45-9.41Z"/>
      <path d="M411.24,421.44c-.05-.24-.11-.48-.19-.71-.32-.65-.72-1.25-1.16-1.84-.35-.47-.69-.94-1.01-1.42-3.35-.78-6.74-1.13-10.06-.88-4.88.37-17.55,3.97-33.31,12.1.09.29-.97.6-.87.89,1.28,3,1.5,6.07,2.53,9.18,5.91-4.15,14.14-10.39,20.75-12.97,7.46-2.96,15.34-2.79,23.31-3.51,0-.28.03-.56,0-.85Z"/>
      <g>
        <path d="M238.97,512.35c-.11-.2-.15-.41-.27-.61-3.01-4.5-6.25-8.57-11.12-11.19-2.23-1.2-4.85-2.49-7.43-3.01-2.59-.52-5.38-1.15-8.05-.89-3.83-.06-7.42.84-10.76,2.71-.55.4-1.09.81-1.64,1.22-16.31-27.89-27.92-59.07-14.55-101.07,3.87-12.1,17.82-27.72,22.04-32.68,25.67-29.76,52.98-37.85,87.82-42.45,40.38-5.32,83.17,11.4,101.56,49.15,4.43,9.1,6.06,15.06,7.41,25.08,0,0-14.35-34.42-36.03-41.34-21.68-6.92-21.21,10.6-48.02,17.49-31.07,7.86-45.29-6.69-67.27,12.2-20.06,17.3-22.16,38.83-22.16,38.83-.3,14.4-4.41,24.93,3.04,39.62,1.79,3.49,3.42,7.06,4.96,10.67,1.81,6.81,4.52,13.45,4.87,20.56.18,3.49-.26,7.26-2.69,9.96-2.62,2.9,1.87,6.11-1.72,5.74Z"/>
        <path class="cls-8" d="M240.42,511.96c-.74-1.69-2.04-3.23-3.18-4.67-1.22-1.54-2.55-3.01-4.03-4.31-3-2.61-6.8-4.67-10.61-5.79-4.04-1.19-8.28-1.57-12.48-1.2s-8.17,1.86-11.58,4.4l2.6-.2c-6.33-10.83-11.93-22.14-15.61-34.16-3.94-12.84-5.53-26.31-4.42-39.71.64-7.74,2.11-15.39,4.23-22.86.9-3.16,1.88-6.25,3.32-9.2s3-5.5,4.73-8.11c3.27-4.94,6.94-9.61,10.74-14.15,3.48-4.16,7.01-8.29,10.83-12.14,8.98-9.05,19.34-16.69,30.91-22.09,10.95-5.12,22.67-8.27,34.54-10.42,12.43-2.25,24.97-3.84,37.62-2.8s24.21,4.02,35.32,9.16c10.94,5.06,20.91,12.21,28.97,21.2,8.56,9.54,15.32,21.4,18.38,33.9.82,3.36,1.37,6.78,1.84,10.21l2.9-.78c-2.02-4.84-4.57-9.5-7.29-13.98-5.13-8.47-11.32-16.79-19.43-22.63-7.49-5.39-17.83-8.78-26.8-5.22-3.68,1.46-6.82,3.94-9.94,6.33-3.99,3.04-8.08,5.91-12.65,8.02-11.66,5.36-24.67,6.23-37.31,5.62-9.87-.47-19.77-1.18-29.03,2.96-5.78,2.59-10.85,6.55-15.3,11.02s-8.62,9.91-11.74,15.69c-3.25,6-6.12,12.9-6.85,19.76-.24,2.28-.21,4.62-.4,6.91-.29,3.38-.68,6.75-.89,10.14-.43,7,.28,13.84,3.07,20.33,1.62,3.77,3.61,7.38,5.26,11.14s2.62,7.77,3.73,11.67,1.99,7.68,2.1,11.64c.05,1.77-.08,3.56-.58,5.26-.23.8-.54,1.58-.97,2.3s-1.08,1.34-1.52,2.07c-.55.92-.61,1.95-.38,2.99.09.42.25.82.35,1.23.03.1.05.45.12.53.02.03-.03.15-.02.16-.23-.15,1.87-.48.91-.55-.67-.05-1.54.06-2.05.55-.38.36-.41.88.25.93,1.12.09,2.49.08,3.37-.74.64-.59.42-1.29.2-2.03-.31-1.06-.6-2.17,0-3.2.37-.64.95-1.15,1.34-1.78.45-.72.82-1.5,1.1-2.3,1.14-3.31.89-7.05.36-10.45-.6-3.87-1.75-7.62-2.88-11.36-.58-1.89-1.01-3.89-1.7-5.74s-1.64-3.75-2.49-5.59c-1.71-3.67-3.71-7.21-4.96-11.08-2.14-6.66-2.05-13.5-1.42-20.39.31-3.42.68-6.83.85-10.25.06-1.13.03-2.25.2-3.37.41-2.77,1.14-5.51,2-8.17,3.74-11.46,10.75-21.79,19.9-29.61,4.25-3.64,9.07-6.71,14.5-8.23,4.51-1.27,9.2-1.44,13.86-1.3,5.15.15,10.29.58,15.45.6,6.39.03,12.76-.58,19.01-1.9s12.53-3.48,18.18-6.71c4.02-2.29,7.63-5.14,11.32-7.91,2.82-2.12,5.85-4.24,9.39-4.89,4.6-.84,9.66.45,13.87,2.28,9.27,4.04,16.38,12.22,22.02,20.36,4.06,5.85,7.6,12.11,10.51,18.61.16.35.31.7.46,1.05.37.9,3.03.19,2.9-.78-.95-6.96-2.43-13.71-5.18-20.2-2.57-6.07-5.76-11.89-9.62-17.25-7.24-10.06-16.71-18.35-27.43-24.53s-22.62-10.18-34.8-12.16-25.38-1.62-38.07.22c-12.51,1.82-24.99,4.36-36.87,8.75s-22.71,10.62-32.35,18.64c-9.11,7.58-17,16.64-24.27,25.98-3.87,4.96-7.54,10.14-10.44,15.74-3.36,6.47-5.07,13.82-6.45,20.93-2.71,13.95-2.79,28.34.09,42.27,2.63,12.71,7.59,24.78,13.68,36.21,1.46,2.74,2.98,5.45,4.55,8.13.48.82,2.03.23,2.6-.2,3.04-2.26,6.45-3.27,10.23-3.36s7.78.41,11.34,1.86c3.29,1.34,6.39,3.13,8.97,5.59,1.14,1.09,2.18,2.27,3.16,3.51,1.06,1.34,2.3,2.78,2.98,4.35.41.93,3.25.03,2.9-.78Z"/>
      </g>
      <path class="cls-2" d="M365.78,505.46c3.24.75,6.67.55,9.91-.1,1.76-.35,3.49-.85,5.18-1.47,1.28-.47,2.6-.99,3.76-1.71,2.08-1.3,3.68-3.31,4.33-5.69.32-1.19.48-2.51.21-3.73-.22-.98-.72-1.85-1.28-2.67-.8-1.15-1.71-2.21-2.56-3.32-1.18-1.56-2.24-3.2-3.15-4.93-.15-.29-1.04.01-.92.25.78,1.5,1.68,2.94,2.67,4.31.76,1.05,1.58,2.04,2.37,3.07.62.8,1.22,1.62,1.62,2.55s.52,1.98.41,3.02c-.26,2.56-1.54,4.88-3.58,6.44-.86.66-1.84,1.11-2.84,1.53-1.57.67-3.2,1.21-4.85,1.62-3.47.86-7.19,1.19-10.7.38-.2-.05-.5.04-.65.17-.14.13-.11.25.08.29h0Z"/>
      <path class="cls-2" d="M348.49,497.22c-3.29.52-2.57,5.19-1.94,7.45.17.61.38,1.22.67,1.79.39.77,1.04,1.42,1.76,1.88,1.81,1.14,4.09,1.18,6.15.95,1.31-.15,2.43-.67,3.53-1.37s2.12-1.54,3.31-2.1c.18-.08.34-.3.21-.49s-.45-.16-.63-.08c-.98.46-1.86,1.1-2.75,1.71-.83.58-1.7,1.17-2.69,1.46s-2,.3-2.97.28-1.87-.17-2.73-.52-1.64-.98-2.17-1.79c-.26-.41-.43-.86-.59-1.32-.44-1.32-.71-2.74-.7-4.13,0-.69.08-1.42.37-2.06.11-.25.29-.51.46-.66.21-.18.4-.27.62-.3.21-.03.48-.14.51-.38.02-.22-.24-.35-.43-.32h0Z"/>
      <path class="cls-22" d="M165.33,773.13s17.9,124.29,5.11,167.44c-13.48,45.48-25.64,106.61-25.64,106.61,0,0,117.32,54.86,251.49,44.13,73.77-5.9,117.09,11.42,108.87-18.9-2.12-7.82-6.21-104.12-6.21-104.12l-.21-167.31-333.43-27.86Z"/>
      <path class="cls-6" d="M498.85,822.47c1.05-11.89,1.69-23.8,1.68-35.74,0-10.87-.54-21.73-1.24-32.58-.46-7.15-.97-14.29-1.47-21.43-.04-.55-2.22-.14-2.17.58,1.58,22.72,3.32,45.43,2.43,68.21-.28,7.1-.77,14.2-1.39,21.28-.06.72,2.1.29,2.16-.33h0Z"/>
      <g>
        <path class="cls-22" d="M237.13,614.02s15.11-21.15,27.11-28.01c0,0,51.92,53.21,92.67,51.9,0,0-30.13,15.53-32.09,36.78,0,0-90.1-28.21-87.65-58.87"/>
        <path class="cls-6" d="M238.13,614.01c5.49-7.67,11.69-15.1,18.63-21.49,2.51-2.31,5.17-4.52,8.14-6.24l-1.67.14c6.33,6.49,13.26,12.47,20.3,18.17,13.71,11.11,28.63,21.41,45.05,28.07,8.83,3.58,18.31,6.09,27.9,5.82l-.22-.82c-3.7,1.91-7.21,4.25-10.57,6.7-6.56,4.77-12.81,10.44-17.15,17.35-2.51,4-4.32,8.43-4.79,13.15l1.96-.65c-2.97-.93-5.91-1.96-8.84-3-7.14-2.54-14.22-5.28-21.19-8.24-8.7-3.7-17.28-7.73-25.53-12.36-7.76-4.35-15.42-9.24-21.88-15.41-4.78-4.57-9.48-10.39-9.99-17.26-.06-.76-.06-1.51,0-2.27s-2.11-.34-2.16.31c-.5,6.72,3.25,12.72,7.62,17.49,5.9,6.43,13.31,11.43,20.77,15.87,8.26,4.91,16.92,9.14,25.72,13,7.42,3.26,14.97,6.25,22.59,9.01,3.61,1.31,7.28,2.8,11,3.78.05.01.11.03.16.05.43.14,1.89,0,1.96-.65.82-8.4,5.82-15.64,11.59-21.51,4.87-4.95,10.51-9.17,16.44-12.77,1.19-.72,2.4-1.44,3.64-2.08.62-.32.47-.84-.22-.82-8.48.25-16.86-1.81-24.74-4.79-8.52-3.22-16.6-7.55-24.3-12.38-12.97-8.14-25.04-17.74-36.3-28.11-2.29-2.11-4.58-4.25-6.76-6.48-.37-.38-1.32-.06-1.67.14-5.49,3.17-10.13,7.78-14.42,12.39-3.88,4.17-7.51,8.57-10.96,13.1-.7.92-1.4,1.85-2.08,2.79-.52.73,1.63.5,2.01-.02h0Z"/>
      </g>
      <g>
        <path class="cls-22" d="M387.24,587.84s6.93,37.72-21.31,48.93c0,0,23.29,9.38,31.94,27.51,0,0,19.01-19.72,20.24-62.78,0,0-12.22-9.05-22.98-12.72-10.77-3.67-7.89-.95-7.89-.95Z"/>
        <path class="cls-6" d="M386.16,588.13c.78,4.26.87,8.72.66,13.03-.41,8.63-2.49,17.52-7.67,24.59-3.48,4.75-8.24,8.26-13.68,10.45-.62.25-.9.96-.18,1.25,2.56,1.03,5.51,2.61,8.08,4.1,5.84,3.39,11.37,7.47,15.99,12.42,2.95,3.17,5.53,6.7,7.42,10.61.35.73,1.52.46,1.98-.02,1.77-1.84,3.24-4.02,4.63-6.14,3.77-5.79,6.71-12.11,9.01-18.62,3.57-10.08,5.61-20.65,6.43-31.3.12-1.6.22-3.21.29-4.82.04-.86.41-2.15-.23-2.8-.71-.7-1.73-1.23-2.55-1.79-4.14-2.82-8.44-5.45-12.93-7.7-2.9-1.46-5.88-2.71-8.97-3.72-1.99-.65-4.16-1.45-6.28-1.52-1.17-.04-3.28.85-1.92,2.16.65.62,2.7-.24,2-.92-.09-.08-.16-.18-.23-.28.09.13-.07-.1-.03-.11.2-.06-.69.69-.57.58-.11.09-.01,0,.34.04.5.05.99.15,1.47.27,1.7.4,3.37.94,5.03,1.5,6.74,2.29,13.01,5.97,18.92,9.88,1.38.91,2.75,1.84,4.08,2.83l-.25-.49c-.41,13.52-2.56,27.09-7.32,39.79-2.6,6.95-5.94,13.77-10.37,19.74-.73.99-1.49,1.99-2.35,2.88l1.98-.02c-5.82-12.05-17.43-20.73-29.23-26.47-1.04-.51-2.09-1-3.16-1.43l-.18,1.25c9.74-3.92,16.65-11.77,19.98-21.64,2.5-7.41,3.09-15.42,2.53-23.18-.12-1.66-.27-3.33-.57-4.97-.17-.91-2.35-.36-2.17.58Z"/>
      </g>
      <path class="cls-6" d="M361.04,638.49c1.79-.27,3.57-.55,5.36-.82l-.9-.19c1.02,6.84,2.04,13.69,3.07,20.53,1.63,10.91,3.26,21.81,4.89,32.72l1.12,7.5,1.27-.77c-5.6.87-11.19,1.74-16.79,2.62-.29.05-1.23.25-1.26.65-.03.42.63.35.9.31,5.6-.87,11.19-1.74,16.79-2.62.28-.04,1.34-.29,1.27-.77-1.02-6.84-2.04-13.69-3.07-20.53-1.63-10.91-3.26-21.81-4.89-32.72l-1.12-7.5c-.04-.3-.74-.21-.9-.19-1.79.27-3.57.55-5.36.82-.29.04-1.23.25-1.26.65-.03.42.63.35.9.31h0Z"/>
      <ellipse class="cls-6" cx="358.84" cy="661.39" rx="5.17" ry="4.07" transform="translate(-17.78 9.96) rotate(-1.55)"/>
      <ellipse class="cls-6" cx="362.25" cy="682.41" rx="5.17" ry="4.07" transform="translate(-18.35 10.06) rotate(-1.55)"/>
      <path class="cls-22" d="M566.5,708.29s19.71,15.84,19.71,15.84c1.63,1.31,1.16,6.32,1.11,7.98-.33,11.19-4.8,22.65-9.13,32.8-6.96,16.32-15.44,32.1-26.31,46.15-5.39,6.96-11.34,13.48-17.89,19.36-6.42,5.77-6.39,3.12-15.4,8.47-3.58.55-18.55-9.01-19.61-12.24-.34-1.05,2.53-.23,3.3-1.07"/>
      <path class="cls-12" d="M276.35,943.51s-12.99-82.48-23.85-139.14c-37.6,7.21-80.36,6.31-118.69,2.85,15.93,70.49,49.18,195.38,70.48,211.49,59.82,45.23,254.63,83.37,254.63,83.37l8.84-46.15-191.41-112.41Z"/>
      <path class="cls-27" d="M272.8,944.01c-12.37,3.63-22.04,14.4-23.49,27.34-.03.27,2.29.06,2.37-.63,1.31-11.7,9.89-22.66,21.31-26.01.18-.05,1.22-.34,1.09-.67s-1.08-.09-1.28-.03h0Z"/>
      <path class="cls-22" d="M127.36,750.95c-6.04,39.7,2.2,73.26,6.86,101.54.3,1.8,3.25,10.74,4.63,11.93,1.19,1.03,13.3,2.62,14.8,3.09,0,0,32.55,4,62.83-5.44,30.28-9.44,45.13-14.65,45.13-14.65,7.47.57,18.89-11.03,18.89-11.03,2.79-6.95-.73-19.66-1.42-27.12-1.76-19.13-7.27-41.38-12.78-59.78-4.44-14.84-5.53-26.26-15.34-38.26-9.8-12-26.42-29.58-41.91-29.95"/>
      <path class="cls-6" d="M260.27,849.46c5,.29,9.7-3.42,13.24-6.52,1.8-1.58,3.5-3.26,5.12-5.03.64-.69,1.43-1.33,1.61-2.28.38-2.05.19-4.27.09-6.34-.14-3.12-.39-6.24-.65-9.35-.58-6.75-1.16-13.52-2.12-20.23-2.52-17.55-7.09-34.67-12.03-51.66-2.14-7.35-3.67-14.9-6.39-22.06-1.34-3.53-3-6.93-5.04-10.1s-4.24-5.78-6.58-8.5c-4.93-5.74-10.22-11.24-16.12-15.99-5.39-4.34-11.55-8.33-18.39-9.85-1.51-.34-3.06-.53-4.61-.58-.32-.01-1.65.59-.93.61,6.8.22,13.12,3.5,18.59,7.32,6.04,4.22,11.41,9.38,16.39,14.8,4.86,5.29,9.63,10.79,12.88,17.25s4.99,13.42,6.81,20.34c2.07,7.85,4.5,15.59,6.56,23.44,2.2,8.35,4.16,16.76,5.75,25.25,1.39,7.44,2.35,14.92,3.07,22.45.57,5.97,1.18,11.94,1.41,17.94.04,1.18.07,2.36.04,3.53-.02.73.02,1.61-.22,2.32-.29.83-1.3,1.65-1.92,2.32-3.47,3.7-7.48,7.67-12.23,9.63-1.08.45-2.2.73-3.37.67-.32-.02-1.65.57-.93.61h0Z"/>
      <path d="M759.17,256.64c10.67,4.66,18.07,16,18.04,27.64-.01,5.44-1.49,10.75-2.27,16.13-1.17,8.05-.75,16.33,1.23,24.23,1.79,7.18,6.45,15.17,13.86,15.22,1.58.01,3.17-.36,4.73-.08,1.55.28,3.13,1.54,2.98,3.12-.13,1.38-1.47,2.29-2.67,2.97-3.77,2.14-7.72,4.15-12.01,4.84-4.28.69-9-.1-12.22-3.01-2.73-2.46-4.07-6.07-5.1-9.59-2.82-9.62-4-19.72-3.49-29.73.54-10.51,2.78-21.75-2.14-31.05"/>
      <path class="cls-20" d="M578.71,644.33c9.31,8.04,12.49,20.65,12.78,32.5.33,13.31.08,26.63.6,39.95.33,8.46.93,16.9,2,25.3.04.33,1.82-.03,1.77-.47-1.86-14.66-2.28-29.43-2.39-44.19-.05-6.51-.04-13.02-.18-19.53-.12-5.95-.69-11.84-2.47-17.54-1.98-6.35-5.38-12.23-10.44-16.6-.35-.3-1.92.38-1.67.6h0Z"/>
      <path class="cls-12" d="M959.23,531.94c-10.01-59.7-66.2-68.88-106.14-49.58-20.22,9.77-13.02,53.18-13.02,53.18-16.1,82.71-10.36,304.63-8.28,347.92,7.82,1.58,16.13-3.29,23.43-.07,25.54,11.24,37.25.54,53.77,22.88,8.19,11.08,16.01,41.41,20.79,54.54,23.49-30.82,25.91-93.19,29.55-130.17,5.47-55.65,4.9-111.45,5.02-167.27.09-43.27,2.07-88.57-5.12-131.42Z"/>
      <path class="cls-18" d="M827.89,409.75s111.34,7.93,138.02,63.78c26.68,55.84,22.71,168.21,22.71,168.21,0,0-120.26,16.07-182.15-.01-61.9-16.08,21.42-231.97,21.42-231.97Z"/>
      <path class="cls-20" d="M890.63,424.95c-8.76-.32-17.49,2.1-25.47,5.57-8.69,3.78-16.84,9.01-23.87,15.37-3.23,2.92-6.25,6.11-8.86,9.6-2.92,3.92-5.21,8.31-7.56,12.58-4.69,8.52-9.06,17.22-12.85,26.18-5.89,13.9-10.19,28.41-12.14,43.4-1.84,14.11-1.7,28.36-1.3,42.55.52,18.1,1.26,36.18,1.1,54.29-.02,2.75-.07,5.5-.12,8.25.03.06.08.09.15.09,6.17.85,12.35,1.7,18.52,2.55.38.05.9-.04,1.23-.23.11-.06.64-.37.23-.43-5.25-.72-10.51-1.45-15.76-2.17l-1.63-.22c-.21-.03-.82,0-.98-.14s.04-1.69.05-2.14c.03-1.59.05-3.18.07-4.76.06-5.81.05-11.61-.03-17.42-.24-18.36-1.4-36.71-1.31-55.07.08-15.79,1.6-31.47,5.84-46.72,5.53-19.88,14.85-38.64,25.23-56.4,5.13-8.77,13.03-15.89,21.41-21.51,8.88-5.95,19.08-10.76,29.76-12.19,2.37-.32,4.75-.45,7.14-.36.36.01,2-.66,1.15-.69h0Z"/>
      <path class="cls-12" d="M863.45,982.68s26.82,13.05,60.43-15.26c33.61-28.31,7.37-105.65-4.49-138.4-12.17-33.6-90.55,57.81-90.55,57.81l34.6,95.85Z"/>
      <path class="cls-20" d="M962.12,644.62c3.39.12,6.71-.03,10.08-.29,1.73-.14,3.47-.17,5.21-.15,1.95.03,4.05.35,5.88-.5s1.91-2.64,1.63-4.41c-.41-2.6-.88-5.19-1.21-7.81-.7-5.43-1.13-10.9-1.39-16.37-.52-10.9-.38-21.82-.54-32.73s-.24-21.68-.6-32.51c-.4-12.12-1.52-24.26-4.75-35.98-.1-.35-1.86.12-1.77.47,5.5,19.95,4.72,40.71,5.19,61.2.48,20.7-.53,41.65,2.94,62.16.2,1.2.54,2.46.49,3.69-.02.55-.17,1.53-.7,1.88-.68.46-1.73.29-2.49.27-2.01-.06-4.02-.07-6.03.05-3.62.22-7.15.48-10.79.35-.36-.01-2,.65-1.16.68h0Z"/>
      <path class="cls-27" d="M872.16,907.03c-3.42-9.18-8.93-17.63-17.3-22.98-5.43-3.48-11.62-5.3-17.96-6.22-1.92-.28-3.98-.33-5.84-.93-.48-.15-1.74.55-.91.82,1.55.5,3.26.57,4.87.79,2.64.36,5.26.81,7.83,1.51,7.29,1.98,13.83,5.97,18.81,11.67,4.01,4.6,6.89,10.03,9.01,15.73.2.53,1.67.1,1.48-.4h0Z"/>
      <path class="cls-25" d="M846.43,1001.21c3.3-.02,6.6-.19,9.85-.52,13.83-1.37,27.39-4.91,40.58-9.22,24.81-8.11,48.23-19.58,72.61-28.78,14.51-5.47,29.5-9.73,44.24-14.51,16.28-5.27,32.53-10.83,48.13-17.91,7.26-3.29,14.4-6.9,21.18-11.1,6.32-3.92,12.73-8.28,17.94-13.62,8.81-9.03,13.54-20.94,14.84-33.37,1.37-13.1-.78-26.55-4.79-39.04-2.39-7.43-5.42-14.66-9.07-21.57-16.81-20.66-30.79-40.4-39.96-67.39-17.13-50.41-23.54-157.55-44.27-224.14-16.6-77.14-29.95-86.28-102.86-113.72-30.66-11.54-82.48-24.96-117.28-27.01l-19-9.38c2.42,18.43-8.36,47-8.36,47-16.14,25.6-26.66,40.26-44.11,50.31.18,2,.35,4,.51,6.01,3.22,41.09,2.44,82.32,2.38,123.5-.06,40.73.87,81.59,7.27,121.89,6.74,42.44,20.45,83.34,36.68,123.02,16.01,39.16,34.67,77.15,52.88,115.31,7,14.68,13.93,29.41,20.61,44.24Z"/>
      <path class="cls-25" d="M1000.93,529.08c-22.69-45.57-44.42-72.7-79.96-108.67-15.76-15.95-62.58,7.88-84.34,73.67-.74,2.23-1.19,4.54-1.39,6.88-8.02,94.98-.63,274.06,1.92,328.4.05.97.03,1.94-.01,2.9,10.88-.58,21.84.27,32.51,2.42,27.55,5.54,53.38,18.85,74.96,36.71,12.76,10.56,24.3,22.88,33.69,36.62,9.53-40.65,2.14-108.46,16.01-191.11.32-1.92.48-3.87.44-5.81-.47-20.87,7.96-178.41,6.17-182Z"/>
      <path class="cls-25" d="M1103.47,893.99c2.46,11.56,12.38,19.61,14.85,31.17.32,1.5-6.82,6.61-7.37,8.05-.62,1.6-2.27,2.48-3.64,3.52-66.38,50.5-175.7,75.56-259.22,69.89-1.97-.13-4.14-.39-5.44-1.87-1-1.14-1.23-2.74-1.41-4.24-.74-5.9-1.48-11.81-2.22-17.71,58.49-14.29,138.52-31.31,195.25-51.51,23.85-8.49,47.84-18.32,66.79-35.1"/>
      <path class="cls-25" d="M697.75,980.43l16.7-12.87c-15.04-38.39-29.1-77.19-40.91-116.71-6.74-22.53-13.36-45.3-17.12-68.54-3.61-22.32-5.47-44.88-5.85-67.49-.75-43.56-4.22-85.84-.07-129.14,3.61-37.59,14.65-76.37,14.11-114.13-24.21-11.29-16.79-35.17-16.79-35.17l-52.29,48.74c-1.36,6.75-34.62,38.86-34.62,38.86l-13.44,126.52,65.38,250.71c2.71,17.05,8.29,37.56,14.31,56.84,9.37,30,45.71,41.55,70.6,22.36Z"/>
      <path class="cls-9" d="M559.59,701.19c3.23,12.13,6.58,24.22,9.94,36.32,4.1,14.77,8.24,29.53,12.35,44.29,4.52,16.24,9.03,32.49,13.47,48.75,4.39,16.08,8.72,32.18,12.93,48.31,3.85,14.77,7.6,29.56,11.11,44.41.39,1.64.77,3.28,1.15,4.93.1.44,2.04-.04,1.93-.52-3.38-14.58-7.02-29.11-10.77-43.6-4.14-16.03-8.43-32.03-12.77-48.01-4.44-16.34-8.96-32.66-13.5-48.97-4.18-15.01-8.38-30.01-12.55-45.02-3.48-12.51-6.96-25.02-10.33-37.56-.34-1.28-.69-2.56-1.03-3.85-.12-.45-2.05.06-1.93.52h0Z"/>
      <path class="cls-25" d="M641.56,404.09s4.48,31.11,23.47,56.35l-2.13,36.97s-32.79-16.97-38.4-47.79l16.05-28.96c.95-4.09,8.82-7.39,12.56-10,5.5-3.82-12.51-10.62-11.54-6.58Z"/>
      <path class="cls-24" d="M639.02,397.91c.37,3.19,1.13,6.37,1.9,9.48,2.14,8.57,5.08,16.93,8.53,25.05,2.44,5.74,5.15,11.37,8.09,16.87,1.67,3.13,3.42,6.22,5.24,9.26.6,1.01,1.3,1.6,1.26,2.72-.22,5.84-.44,11.68-.66,17.52-.21,5.5-.41,11-.62,16.5l1.73-.58c-3.98-2.02-7.73-4.65-11.26-7.36-7.79-5.98-14.82-13.2-19.86-21.67-3.34-5.6-5.74-11.72-6.93-18.13-.11-.61-2.05-.15-1.93.52,2.07,11.12,7.81,21.14,15.37,29.45,5.51,6.07,11.95,11.32,18.89,15.67,1.36.85,2.75,1.7,4.18,2.43.36.18,1.71-.02,1.73-.58.41-11.01.82-22.03,1.24-33.04.02-.52.13-1.12.06-1.63-.08-.66-.68-1.32-1.02-1.9-.99-1.66-1.97-3.33-2.92-5.01-3.22-5.69-6.19-11.51-8.87-17.47-3.9-8.63-7.23-17.55-9.69-26.7-1.05-3.9-2.07-7.9-2.53-11.92-.07-.59-2.01-.17-1.93.52h0Z"/>
      <path class="cls-25" d="M724.9,486.79s-4.15-16.7,6.37-38.03c10.52-21.33,44.44-47.79,45.69-61.38,1.61-17.44-2.53-28.96-2.53-28.96,0,0,34.58,9.09,36.29,21.77,5.11,37.76-85.82,106.6-85.82,106.6Z"/>
      <path class="cls-24" d="M727.94,486.09c-.66-1.75-1.01-3.65-1.29-5.49-.75-4.93-.63-9.98.15-14.89,1.05-6.68,3.35-13.23,6.66-19.12,2.54-4.52,5.69-8.7,8.96-12.71,7.23-8.88,15.3-17.02,22.98-25.5,3.26-3.6,6.48-7.25,9.35-11.17,2.04-2.79,4.1-5.84,5.01-9.22,1.44-5.36.57-11.53-.51-16.87-.85-4.18-2.03-8.32-3.56-12.3-.08-.22-.17-.44-.26-.65l-1.59.98c5.22,1.37,10.38,3.1,15.4,5.08,3.95,1.55,7.87,3.28,11.49,5.5,2.97,1.82,5.5,3.9,7.19,6.98,6.2,11.26,3.79,24.17-1.75,35.16-6.65,13.21-17.02,24.48-27.71,34.54-10.39,9.77-21.61,18.64-33.23,26.89-4.1,2.91-8.25,5.74-12.46,8.48-1.34.87-2.69,1.73-4.04,2.58-.86.54-1.1.69-2,1.24-.09.05-.18.11-.27.16-1.17.7-.1,1.86.91,1.25,5.44-3.26,10.72-6.82,15.93-10.44,11.55-8.02,22.72-16.64,33.14-26.08,11.25-10.19,22.09-21.47,29.7-34.71,6.22-10.82,10.23-23.98,5.45-36.13-1.14-2.89-2.58-5.72-4.88-7.85-2.92-2.72-6.59-4.65-10.18-6.35-6.48-3.07-13.34-5.42-20.24-7.36-.43-.12-.86-.24-1.3-.36-.49-.13-1.93.16-1.59.98,1.17,2.86,2.08,5.84,2.86,8.83,1.54,5.9,2.6,12.15,1.87,18.25-.42,3.53-2.15,6.57-4.15,9.46-2.67,3.87-5.77,7.45-8.9,10.95-7.6,8.51-15.66,16.6-22.98,25.36-3.37,4.03-6.59,8.2-9.35,12.68-3.35,5.43-5.78,11.44-7.23,17.65-1.25,5.36-1.71,10.89-1.24,16.37.23,2.68.61,5.47,1.5,8.02.04.12.08.25.13.37.36.95,2.38.38,2.03-.54Z"/>
      <path class="cls-24" d="M813.73,392.52c-5.09-4.19-10.08-8.53-15.57-12.2s-11.5-6.76-18.12-7.34c-.8-.07-2.14,1.06-.78,1.18,6.44.57,12.37,3.82,17.63,7.38s10.05,7.75,14.96,11.78c.57.46,2.45-.33,1.88-.8h0Z"/>
      <path class="cls-24" d="M811.63,405.7c-4.17-4.73-9.16-8.76-14.48-12.12s-11.43-6.32-17.82-7.39c-1.03-.17-2.04,1.3-.69,1.53,6.2,1.04,12.04,3.92,17.3,7.28,5.07,3.24,9.86,7.09,13.84,11.61.63.72,2.55-.11,1.85-.91h0Z"/>
      <path class="cls-24" d="M801.16,417.54c-1.63-5.35-5.99-9.27-10.54-12.25-4.9-3.21-10.32-5.56-15.71-7.82-.82-.34-2.36.83-1.18,1.32,5.16,2.16,10.32,4.41,15.03,7.45,4.44,2.87,8.78,6.62,10.37,11.84.27.89,2.3.34,2.03-.54h0Z"/>
      <path class="cls-24" d="M793.85,430.87c-4.46-10.84-15.02-18.03-26.25-20.39-.45-.09-1.13,0-1.43.38-.25.32-.26.71.22.81,10.86,2.29,21.12,9.24,25.44,19.74.32.78,2.32.18,2.03-.54h0Z"/>
      <path class="cls-24" d="M783.9,440.2c-8.75-7.24-18.52-13.15-28.92-17.72-.45-.2-1.04-.15-1.44.15-.26.19-.62.72-.14.93,10.39,4.57,20.17,10.48,28.92,17.72.6.5,2.43-.39,1.59-1.08h0Z"/>
      <path class="cls-24" d="M770.19,449.75c-7.47-7.27-16.44-12.81-26.12-16.62-.48-.19-2.31.57-1.65.83,9.6,3.78,18.47,9.3,25.87,16.5.4.39,2.27-.36,1.9-.71h0Z"/>
      <path class="cls-24" d="M759.82,459.39c-4.23-8.11-11.83-13.84-20.39-16.79-.68-.24-2.37.76-1.23,1.15,8.17,2.81,15.55,8.44,19.59,16.18.38.72,2.35.08,2.03-.54h0Z"/>
      <path class="cls-24" d="M748.7,468.39c-5.94-4.12-12.3-7.59-18.95-10.42-.4-.17-.91-.04-1.31.1-.08.03-.93.45-.6.59,6.65,2.83,13.01,6.3,18.95,10.42.47.33,2.22-.48,1.91-.7h0Z"/>
      <path class="cls-24" d="M655.81,447.13c-2.31,1.83-3.51,4.65-4.31,7.41-.92,3.2-1.36,6.53-1.72,9.84-.32,2.98-.65,5.94-.62,8.95.04,3.59.39,7.23,0,10.81-.02.18,1.97.02,2.03-.54.36-3.4.05-6.87,0-10.27-.05-2.99.25-5.91.55-8.88.34-3.29.74-6.61,1.61-9.81.77-2.81,1.91-5.84,4.27-7.7.36-.28-.33-.27-.46-.27-.44.03-1.01.19-1.36.47h0Z"/>
      <path class="cls-24" d="M648.73,429.83c-.11.13.05.12-.41.28l-1.35-.05c-.24-.33.15-.46-.12-.23-.12.1-.21.36-.29.5-.33.57-.67,1.14-.99,1.71-1.13,1.99-2.19,4.03-3.16,6.1-2.83,6.03-5.06,12.41-6.06,19.01-.63,4.14-.73,8.36-.15,12.51.1.74,2.14.26,2.03-.54-1.8-12.86,3.01-26.03,9.29-37.07.24-.42,1.72-2.27,1.33-2.8-.27-.38-1.02-.17-1.35-.05-.29.1-.47.32-.66.55-.33.39.28.63.56.65.5.05,1.02-.19,1.33-.57h0Z"/>
      <path class="cls-24" d="M642.35,413.69c-1.86,1.55-3.26,3.59-4.52,5.64-1.62,2.63-3.01,5.4-4.31,8.2-2.43,5.21-4.49,10.57-6.65,15.89-.33.81-.65,1.63-1.03,2.41-.06.11-.28.4-.27.49-.05-.42,1.74.33,1.75-.51,0-.51-2.02-.18-2.03.54,0,.77.99.6,1.49.39.55-.23.78-.62,1.04-1.13.9-1.79,1.56-3.72,2.3-5.58,2.49-6.25,5-12.54,8.24-18.45,1.49-2.71,3.17-5.67,5.58-7.67.86-.71-1.15-.61-1.6-.24h0Z"/>
      <path class="cls-24" d="M637.91,403.94c-4.36,2.11-8.08,5.11-11.02,8.96s-5.21,8.17-7.77,12.27c-.27.44.24.78.61.83.51.07,1.05-.18,1.32-.61,2.44-3.9,4.59-8.01,7.37-11.69s6.22-6.58,10.39-8.59c1.25-.6.13-1.65-.89-1.16h0Z"/>
      <path class="cls-17" d="M508.78,135.01c5.65-5.75,17.26-8.54,17.26-8.54,0,0,4.31-15.61,14.98-26.69,10.67-11.08,31.63-10.28,31.63-10.28,0,0,2.52-10.17,16.56-18.41,14.04-8.23,34.04-1.8,34.04-1.8,0,0,12.7-16.22,32.95-13.76,17.06,2.08,26.16,10.94,26.16,10.94,32.03-10.95,49.33,7.4,58.7,30.61,5.32.08,11.42.87,15.49,3.61,22.21,14.96,38.11,74.14,29.39,90.18l-14.98,7.41-19.11-47.1c.28,5.16.27,8.35.27,8.35l1.48,41.87-80.04-90.14s-132.85,35.26-146.77,42.65c-13.92,7.39-16.78,41.97-16.78,41.97-2.75-12.77-14.77-47.09-1.24-60.86Z"/>
      <path d="M771.13,241.33c10.67,4.66,18.07,16,18.04,27.64-.01,5.44-1.49,10.75-2.27,16.13-1.17,8.05-.75,16.33,1.23,24.23,1.79,7.18,6.45,15.17,13.86,15.22,1.58.01,3.17-.36,4.73-.08,1.55.28,3.13,1.54,2.98,3.12-.13,1.38-1.47,2.29-2.67,2.97-3.77,2.14-7.72,4.15-12.01,4.84-4.28.69-9-.1-12.22-3.01-2.73-2.46-4.07-6.07-5.1-9.59-2.82-9.62-4-19.72-3.49-29.73.54-10.51,2.78-21.75-2.14-31.05"/>
      <path d="M784.58,228.71c10.67,4.66,18.07,16,18.04,27.64-.01,5.44-1.49,10.75-2.27,16.13-1.17,8.05-.75,16.33,1.23,24.23,1.79,7.18,6.45,15.17,13.86,15.22,1.58.01,3.17-.36,4.73-.08,1.55.28,3.13,1.54,2.98,3.12-.13,1.38-1.47,2.29-2.67,2.97-3.77,2.14-7.72,4.15-12.01,4.84-4.28.69-9-.1-12.22-3.01-2.73-2.46-4.07-6.07-5.1-9.59-2.82-9.62-4-19.72-3.49-29.73.54-10.51,2.78-21.75-2.14-31.05"/>
      <path d="M785.13,208.04c10.67,4.66,18.07,16,18.04,27.64-.01,5.44-1.49,10.75-2.27,16.13-1.17,8.05-.75,16.33,1.23,24.23,1.79,7.18,6.45,15.17,13.86,15.22,1.58.01,3.17-.36,4.73-.08,1.55.28,3.13,1.54,2.98,3.12-.13,1.38-1.47,2.29-2.67,2.97-3.77,2.14-7.72,4.15-12.01,4.84-4.28.69-9-.1-12.22-3.01-2.73-2.46-4.07-6.07-5.1-9.59-2.82-9.62-7.5-25.51-6.99-35.52.54-10.51-13-22.06-17.93-31.36"/>
      <path class="cls-23" d="M739.86,346.39s16.57,50.65-64.99,78.16l-27.66,10.01-5.57-13.74,98.22-74.43Z"/>
      <path class="cls-12" d="M774.44,208.6l-1.6-1.42c-8-3.35-20.38-2.44-22.97,7.66-.59,4.25-1.95,9.25-2.54,13.5-.43,4.78-.35,14.12-2.09,18.73,0,0,.03-44.25-2.5-54.52-2.53-10.26-10.55-35.06-32.9-43.86,0,0-11.02-5.78-22.03-12.09-5.07-1.16-10.21-2.07-15.38-2.71-17.51-2.16-35.21-1.55-52.67.83-16.82,2.29-33.71,5.93-49.84,11.22-22.57,7.41-44.92,19.4-58.27,38.86-1.33,8.57-3.01,23.58-2.86,44.48.2,28.19,17.69,66.2,20.88,74.52,2.77,7.2,2.64,17.6,4.1,25.52,7.92,42.98,39.02,62.23,81.42,99.62,12.4,10.94,48.37-5.47,60.85-10.5,53.43-21.53,57.89-46.77,63.81-72.07l17.91-37.16.44-9.77c10.5,14.98,29.84-2.69,24.84-25.86,10.47-25.02,3.93-55.73-8.61-65.01Z"/>
      <path class="cls-12" d="M570.67,177.36c24.79-.89,48.34,6.43,70.91,16.04,11.04,4.7,21.88,9.86,32.83,14.77,9.17,4.11,17.57,9.46,26.21,14.54,8.48,4.99,17.64,10.23,27.47,11.9,8.67,1.48,16.6-1.14,23.91-5.76,6.3-3.98,12.01-8.76,17.71-13.5-.33-4.58-6.27-80.54-44.35-111.92-39.27-32.36-96.71-24.12-135.7-6.26-38.99,17.86-63.89,32.66-72.02,70.3-1.47,6.8-2.38,14.62-2.89,22.91,18.19-6.31,36.49-12.31,55.92-13.01Z"/>
      <g>
        <path d="M686.69,155.99c-.21,2.76-.41,5.61.48,8.24.89,2.62,3.16,4.98,5.93,5.08,1.4.05,2.84-.47,4.16-.03,4.35,1.42,1.19,9.09,4.56,12.18,2.58,2.35,7.03.33,10.05,2.08,5.04,2.93,1.93,13.25,7.56,14.76,3.21.86,7.1-2.31,9.64-.17,1.14.97,1.37,2.62,1.56,4.1.54,4.22,2.27,9.23,6.46,10.01,4.12.76,9.11-3.01,12.11-.09,1.48,1.45,1.51,3.91,2.92,5.44,1.84,2.01,5.2,1.52,7.55.15,2.35-1.38,4.91-7.46,7.44-8.45,5.07-1.98,10.82,4.79,15.35,1.78,3.22-2.14,4.14-7.03,1.98-10.23-2.16-3.2-6.99-4.18-10.26-2.13-1.27.79-2.34,1.98-3.77,2.4-4.81,1.42-7.99-6.17-13-6.38-1.24-.05-2.52.37-3.71,0-2.76-.88-2.84-5.17-5.39-6.55-2.79-1.51-6.45,1.48-9.3.09-3.96-1.93-1.28-9.07-4.78-11.75-2.83-2.16-7.44.39-10.27-1.76-3.19-2.42-1.22-8.51-4.57-10.7-3.98-2.59-11.29,3.1-13.19-1.25-.3-.68-.31-1.46-.61-2.14-1.02-2.33-4.29-2.14-6.83-2.1-4.31.06-8.62-1.52-11.87-4.34"/>
        <path d="M686.11,156.07c-.24,3.2-.53,6.72,1.06,9.64,1.16,2.13,3.2,3.79,5.69,3.87,1.45.05,3.03-.58,4.39.12.95.49,1.44,1.42,1.7,2.41.54,2.04.33,4.21.73,6.27.37,1.95,1.37,3.62,3.36,4.24,2.52.78,5.31-.17,7.76.85,3.89,1.61,3.66,7.13,4.55,10.55.41,1.57,1.07,3.21,2.54,4.07,1.81,1.05,3.94.55,5.84.07,1.29-.33,2.79-.85,4.09-.28,1.5.66,1.9,2.33,2.12,3.79.37,2.42.77,4.82,1.96,6.99,1.03,1.89,2.63,3.44,4.81,3.84,2.51.46,4.99-.53,7.42-1,1.18-.23,2.46-.37,3.58.18,1.45.71,1.97,2.23,2.51,3.63.88,2.3,2.29,3.85,4.89,3.89,1.95.03,4.24-.65,5.71-1.97,1.7-1.53,2.79-3.68,4.15-5.49.63-.83,1.36-1.85,2.34-2.29,1.26-.56,2.84-.21,4.1.17,2.16.66,4.16,1.79,6.37,2.28,4.35.96,8.05-2.26,8.38-6.62.37-4.95-4-8.39-8.74-7.92-.94.09-1.86.33-2.73.72-1.35.61-2.35,1.71-3.63,2.42-2.38,1.33-4.71-.64-6.44-2.13-1.52-1.3-3.03-2.79-4.93-3.53-2.4-.95-5.38.64-7.16-1.63-1.27-1.62-1.66-3.96-3.46-5.15-1.91-1.25-4.29-.41-6.31.03-1.42.3-2.92.4-4.07-.65-.81-.74-1.16-1.81-1.38-2.86-.42-2.03-.31-4.18-1.04-6.15-.79-2.11-2.58-3.06-4.76-3.17-2.42-.11-5.52.81-7.45-1.13-2.91-2.94-.5-9.33-5.24-10.84-1.77-.56-3.73-.16-5.49.22s-4.47,1.42-5.97-.01c-.89-.85-.76-2.12-1.27-3.16-.43-.88-1.24-1.43-2.16-1.72-2.47-.79-5.19-.18-7.72-.58-3.26-.51-6.28-1.95-8.79-4.07-.28-.23-1.34.21-1.08.43,2.26,1.92,4.92,3.27,7.81,3.95,2.59.6,5.16.2,7.76.56,1.26.17,2.54.64,3.09,1.89.44.99.38,2.14,1.13,2.99,1.03,1.16,2.78,1.07,4.18.86,2.05-.3,4.07-1.07,6.16-1.03,2.52.05,3.84,1.77,4.35,4.07.46,2.05.41,4.38,1.6,6.2s3.34,2.12,5.37,2.06c2.49-.07,5.47-.55,6.93,1.98,1.01,1.75.98,3.93,1.24,5.88.24,1.73.68,3.64,2.32,4.57,2.01,1.14,4.38.2,6.45-.21,1.43-.28,2.8-.22,3.88.87.8.8,1.26,1.87,1.77,2.87.93,1.82,2.05,3.26,4.26,3.25,1.37,0,2.64-.31,3.97.18,1.07.39,2.02,1.07,2.9,1.79,1.56,1.26,2.97,2.77,4.75,3.72,1.59.86,3.37.94,5.02.18,1-.46,1.82-1.2,2.7-1.84,1.45-1.04,3.09-1.45,4.86-1.19,5.46.79,7.98,7.17,4.66,11.56s-8.94-.37-13.19-.86c-1.72-.2-3.52.13-4.84,1.29-1.65,1.46-2.75,3.5-4.03,5.27-1.61,2.22-4.02,4.03-6.96,3.24s-2.81-3.98-4.33-6.04c-3.2-4.31-9.45.75-13.53-.71-2.31-.83-3.66-3.12-4.44-5.31-.39-1.1-.67-2.24-.86-3.39-.22-1.29-.25-2.65-.81-3.85-2.31-4.99-8.57.79-11.99-1.79-1.43-1.08-1.92-3-2.26-4.67-.4-1.91-.6-3.87-1.21-5.72-.53-1.61-1.45-3.12-3.03-3.89-2.25-1.09-4.83-.43-7.22-.8-5.33-.83-3.64-7.03-4.78-10.73-.55-1.78-1.9-2.76-3.77-2.77-1.52,0-2.96.45-4.44-.13s-2.65-1.78-3.42-3.12c-1.67-2.9-1.4-6.45-1.16-9.66.03-.39-1.13-.16-1.15.17h0Z"/>
      </g>
      <g>
        <path d="M688.87,136.24c-1.38,2.84-.71,6.54,1.59,8.71,2.29,2.17,6.03,2.64,8.79,1.1-.05,4.09,3.79,7.81,7.88,7.62,1.75-.08,3.55-.76,5.21-.21,4.1,1.34,3.72,8.46,7.84,9.73,1.55.48,3.29-.09,4.83.42,3.16,1.06,3.45,5.69,6.18,7.6,3.34,2.34,8.59-.45,11.79,2.08,2.25,1.78,2.77,5.72,5.59,6.22,1.48.26,3.08-.64,4.46-.04,1.67.72,1.81,2.95,2.41,4.67,1.48,4.24,7.72,5.83,11.05,2.82,1.09,2.81,3.41,5.13,6.22,6.23.81-3.38,1.63-6.88,1.02-10.3-.61-3.42-3.03-6.77-6.46-7.33-1.33-.22-2.75-.01-3.99-.55-3.14-1.35-3.28-6.48-6.51-7.59-2.17-.75-4.89.72-6.72-.67-.88-.67-1.23-1.8-1.76-2.77-1.86-3.44-6.62-4.95-10.13-3.2-.99.49-1.97,1.23-3.07,1.15-3.2-.22-2.37-5.54-4.64-7.8-2.23-2.22-6.69-.64-8.69-3.07-.66-.81-.88-1.9-1.46-2.77-.92-1.38-2.59-2.02-4.16-2.57-8.05-2.81-16.2-5.34-24.43-7.59"/>
        <path d="M688.32,136.17c-1.38,3.04-.78,6.81,1.7,9.12s6.47,2.69,9.49,1.11l-.85-.3c.05,3.1,1.93,5.89,4.72,7.23,1.37.66,2.85.89,4.36.72,1.95-.21,4.02-.85,5.64.62,1.88,1.71,2.35,4.51,3.67,6.59.6.94,1.39,1.77,2.44,2.2,1.81.74,3.91-.13,5.65.75,2.54,1.3,2.97,4.86,4.93,6.77,2.26,2.2,5.57,1.6,8.43,1.58,1.89,0,3.63.37,4.86,1.91.87,1.09,1.41,2.39,2.22,3.52.69.96,1.59,1.75,2.79,1.95,1.89.31,4.23-1.13,5.41,1.02.82,1.49.81,3.28,1.77,4.72.79,1.18,1.98,2.07,3.28,2.61,2.64,1.11,5.84.82,8.04-1.06l-.97-.11c1.22,2.97,3.5,5.25,6.47,6.46.34.14.83-.07.92-.44,1.01-4.23,2.1-8.94.15-13.08-.72-1.53-1.8-2.92-3.22-3.85-1.5-.98-3.05-1.11-4.79-1.23-4.04-.29-4.22-4.22-6.51-6.71-.95-1.03-2.15-1.49-3.54-1.51-2.23-.03-4.5.82-5.82-1.55-.85-1.53-1.5-2.91-2.97-3.97-1.25-.9-2.77-1.45-4.31-1.59s-3.02.11-4.39.77c-.99.48-2.16,1.46-3.3.89-.63-.31-.97-.96-1.23-1.58-1-2.46-1.01-5.63-3.83-6.82-1.4-.59-2.96-.58-4.43-.82-.87-.14-1.81-.36-2.49-.96-.83-.73-1.07-1.85-1.59-2.78-.95-1.7-2.81-2.43-4.56-3.04-2.66-.94-5.33-1.82-8.01-2.69-5.43-1.76-10.91-3.39-16.42-4.9-.5-.14-1.37.6-.67.79,4.73,1.3,9.44,2.68,14.12,4.16,2.3.73,4.6,1.48,6.88,2.25,2.03.69,4.46,1.21,6.24,2.46,1.6,1.13,1.66,3.21,3.11,4.42,1.08.91,2.57,1.1,3.93,1.26,1.63.19,3.5.29,4.59,1.69.9,1.14,1.16,2.69,1.55,4.05.7,2.43,2.17,4.34,4.93,3.18.94-.39,1.75-1,2.74-1.28.94-.26,1.94-.3,2.9-.15,1.79.28,3.51,1.19,4.66,2.6,1.06,1.29,1.36,3.23,2.86,4.12,1.4.84,3.11.44,4.64.36,4-.2,4.45,3.66,6.45,6.19,1.1,1.39,2.51,1.9,4.25,2.01,2.41.15,4.33.74,5.89,2.7,3.38,4.23,2.14,9.88.99,14.69l.92-.44c-2.73-1.12-4.86-3.26-5.98-5.99-.15-.36-.7-.34-.97-.11-2.23,1.91-5.54,1.74-7.88.11-1.23-.85-1.99-2.02-2.4-3.44-.36-1.23-.57-2.68-1.51-3.64-1.05-1.07-2.48-.92-3.84-.72-1.93.29-3.04-.3-4.07-1.88-1.45-2.21-2.39-4.55-5.22-5.19s-6.52.75-9.26-.87c-2.4-1.42-2.84-4.59-4.65-6.55-.9-.97-2.04-1.46-3.36-1.54-1.77-.11-3.53.25-4.91-1.09-1.71-1.66-2.22-4.22-3.41-6.22-.59-1-1.38-1.91-2.45-2.4-1.71-.79-3.54-.25-5.31-.06-4.14.45-7.94-3.04-8-7.18,0-.42-.55-.46-.85-.3-2.79,1.46-6.38.88-8.48-1.52-1.88-2.14-2.25-5.32-1.08-7.88.27-.6-.89-.61-1.11-.14h0Z"/>
      </g>
      <g>
        <path d="M691.58,126.01c.6,4.89,5.84,8.67,10.67,7.71.95-.19,1.91-.53,2.86-.34,1.98.4,2.74,2.75,3.99,4.33,2.82,3.59,8.37,3.27,12.7,1.79,2.76-.94,6.35-2.01,8.17.28.72.9.94,2.16,1.8,2.93,2.28,2.04,6.83-.92,8.64,1.55.83,1.13.46,2.81,1.22,3.98,1.62,2.49,5.69.19,8.44,1.32,1.28.52,2.11,1.74,2.87,2.89,2.32,3.51,4.64,7.02,6.96,10.53.57.86,1.3,1.82,2.34,1.84,1.74.04,2.26-2.36,2.11-4.1-.83-9.78-4.21-19.34-9.71-27.47-1.38-2.03-3.66-4.22-5.93-3.27-.75.31-1.42.96-2.23.9-1.32-.1-1.69-1.82-2-3.11-1.29-5.33-8.33-8.31-13.05-5.51-1.27.75-2.67,1.87-4.04,1.33-.91-.36-1.4-1.34-2.09-2.04-1.78-1.79-4.75-1.54-7.14-.73-2.39.82-4.73,2.1-7.25,1.99-3.16-.14-6.1-2.46-9.21-1.9-3.77.68-6.53,5.4-10.25,4.47"/>
        <path d="M691,126.16c.44,3.01,2.42,5.56,5.08,6.97,1.28.69,2.7,1.1,4.16,1.16,1.64.07,3.88-1.05,5.33-.21s2.02,2.64,3.01,3.88c.88,1.1,2.05,1.91,3.37,2.39,2.85,1.04,6.12.69,8.98-.14,1.69-.49,3.33-1.19,5.1-1.34,2.17-.19,3.31.76,4.24,2.62,1.44,2.87,3.94,2.4,6.7,2.19,1.87-.14,3.09.37,3.44,2.35.25,1.38.43,2.76,1.82,3.45,2.92,1.45,6.42-1.19,8.94,1.54,1.38,1.5,2.4,3.43,3.52,5.12,1.25,1.89,2.5,3.78,3.75,5.67.81,1.22,1.68,3.08,3.27,3.4,1.05.21,2.05-.31,2.6-1.2.71-1.15.71-2.59.59-3.88-.19-2.08-.5-4.16-.92-6.21-.81-3.96-2.04-7.83-3.65-11.54s-3.39-7.34-5.87-10.35c-.96-1.17-2.23-2.35-3.77-2.64-.71-.14-1.41-.07-2.08.18-.84.31-1.87,1.3-2.68.42-.91-1-.88-2.86-1.49-4.05s-1.53-2.26-2.61-3.08c-2.18-1.65-5.06-2.43-7.77-1.98-1.49.25-2.66.92-3.94,1.68-1.19.7-2.32.98-3.31-.12-.53-.58-.94-1.22-1.59-1.68-2.74-1.96-6.4-.66-9.19.43-2.3.9-4.45,1.53-6.91.86-1.71-.47-3.32-1.26-5.08-1.54-3.2-.51-5.51,1.36-7.98,3.08-1.33.92-2.72,1.74-4.39,1.39-.59-.12-1.16.71-.39.87,2.67.56,4.84-1.2,6.88-2.65,1.29-.91,2.66-1.83,4.29-1.9,1.95-.08,3.81.89,5.62,1.45,1.56.48,3.1.68,4.72.37,1.92-.36,3.66-1.25,5.5-1.86,1.73-.58,3.79-.95,5.5-.11,1.35.67,1.89,2.31,3.29,2.86s2.83-.27,3.99-.98c1.34-.82,2.67-1.36,4.26-1.38,2.97-.03,5.98,1.54,7.61,4.03.82,1.25.92,2.65,1.48,4,.37.89,1.01,1.63,2.03,1.66.65.02,1.21-.26,1.76-.56,1.19-.66,2.23-.64,3.37.09,1.65,1.05,2.72,2.86,3.73,4.48,4.14,6.65,6.89,14.15,8.05,21.89.25,1.69.65,3.53.35,5.23-.18,1.05-.64,2.21-1.95,1.73-.77-.28-1.42-1.62-1.85-2.27-2.34-3.54-4.54-7.25-7.07-10.66-.81-1.09-1.79-2-3.14-2.31s-2.81-.07-4.21.03c-1.83.13-3.32-.15-3.74-2.19-.27-1.31-.31-2.68-1.55-3.48-2.17-1.4-4.89.37-7.17-.46-1.58-.57-1.72-2.52-2.79-3.62-.87-.89-2.07-1.23-3.29-1.25-3.13-.06-5.98,1.63-9.05,2.01-3.26.4-6.69-.19-8.66-3.05-.78-1.13-1.36-2.46-2.48-3.31s-2.47-.79-3.82-.49c-3.37.74-6.69-.32-8.92-3.03-1.01-1.23-1.65-2.66-1.88-4.24-.08-.55-1.24-.26-1.16.31h0Z"/>
      </g>
      <g>
        <path d="M696.81,118.32c6.56.69,10.2-9.94,16.75-9.09,3.16.41,6.23,3.56,9.04,2.04,1.29-.69,2.07-2.25,3.49-2.58,2.97-.67,3.96,4.07,6.56,5.64,3.25,1.96,7.8-1.7,11.09.19.93.53,1.58,1.43,2.47,2.03,1.66,1.12,3.82,1.02,5.81,1.24,1.99.22,4.25,1.09,4.76,3.03,1.78-7.91-2.97-16.78-10.55-19.67-.82-.31-1.68-.58-2.33-1.16-.63-.57-.97-1.39-1.38-2.14-2.05-3.78-6.23-6.3-10.53-6.34-1.5-.01-3.1.23-4.42-.48-1.86-1-2.36-3.42-3.7-5.04-3.14-3.8-9.32-2.12-13.91-3.93-1.91-.75-3.51-2.12-5.36-3-1.98-.95-4.22-1.32-6.4-1.07-1.73.2-3.66,1.04-4.08,2.73-.29,1.16.22,2.37.19,3.57-.06,3.03-3.3,4.86-6.14,5.9-2.84,1.04-6.17,2.32-6.96,5.24-1.12,4.14,3.72,7.49,4.52,11.7.35,1.85-.1,3.8.41,5.6.47,1.65,1.7,2.97,2.88,4.22,2.09,2.21,4.19,4.42,6.28,6.63"/>
        <path d="M696.4,118.56c3.81.32,6.71-2.35,9.25-4.81,1.47-1.42,2.98-3.01,4.86-3.89,2.61-1.21,5.05.49,7.44,1.44,1.8.72,3.72.88,5.41-.21,1.05-.68,2.11-2.56,3.54-2.1.93.3,1.6,1.31,2.14,2.07,1.13,1.58,2.19,3.47,4.22,3.96,2.14.52,4.33-.35,6.42-.69,1.71-.28,3.1-.04,4.42,1.11,1.18,1.03,2.2,1.87,3.78,2.2,2.78.57,7.17-.11,8.27,3.35.08.25,1.2-.06,1.25-.28.93-4.35.04-8.89-2.27-12.67-1.15-1.88-2.64-3.57-4.4-4.9-.82-.63-1.71-1.18-2.64-1.63-1.07-.52-2.34-.78-3.31-1.48-1.04-.75-1.43-2.09-2.11-3.12-.61-.94-1.36-1.79-2.2-2.52-1.73-1.51-3.88-2.54-6.14-2.93-2.51-.43-5.54.58-7.37-1.65-1.36-1.66-1.86-3.81-3.68-5.11-3.66-2.59-8.7-1.25-12.72-2.84-2.35-.93-4.24-2.71-6.65-3.53-2.23-.76-4.78-.91-7.06-.24-1.58.47-3.23,1.45-3.43,3.24-.15,1.43.53,2.76.1,4.19-.34,1.13-1.14,2.03-2.06,2.73-3.21,2.44-9.04,2.56-10.7,6.82-.85,2.19.14,4.33,1.28,6.2,1.33,2.17,2.96,4.26,3.18,6.88.13,1.58-.15,3.2.3,4.75.38,1.3,1.21,2.38,2.1,3.38,2.29,2.57,4.73,5.01,7.1,7.51.21.22,1.36-.24,1.19-.42-1.98-2.09-3.97-4.18-5.95-6.28s-3.41-3.9-3.45-6.88c-.03-2.44-.24-4.36-1.48-6.5-1.01-1.73-2.32-3.34-2.99-5.25-.73-2.07-.25-4.15,1.39-5.62s4-2.08,6.06-2.96c1.64-.7,3.34-1.63,4.46-3.06.5-.65.85-1.39.96-2.21.19-1.43-.59-2.92-.07-4.31,1.16-3.07,6-2.3,8.37-1.38s4.15,2.63,6.48,3.47c3.79,1.38,8.31.34,11.88,2.38,1.96,1.12,2.58,3.09,3.77,4.86s2.92,2.18,5.01,2.15c5.06-.07,9.41,2.18,11.81,6.73.56,1.07,1.14,1.86,2.26,2.38s2.32.89,3.41,1.52c2.08,1.2,3.88,2.87,5.28,4.81,2.83,3.93,4.08,8.96,3.06,13.72l1.25-.28c-.78-2.44-3.54-3-5.78-3.18-1.51-.12-3.13-.15-4.49-.92-1.26-.71-2.05-2.01-3.44-2.53-2.05-.76-4.34.02-6.37.43-1.38.27-2.82.43-4.08-.33-1.01-.61-1.7-1.61-2.36-2.55-.95-1.36-2-3.2-3.88-3.19-.75,0-1.51.24-2.15.61-1.53.9-2.16,2.68-4.3,2.35-2.5-.39-4.5-2.31-7.11-2.41-1.73-.06-3.44.55-4.88,1.48-1.86,1.19-3.37,2.83-4.97,4.34-1.77,1.66-3.78,3.54-6.38,3.32-.26-.02-1.43.44-.82.49h0Z"/>
      </g>
      <g>
        <path d="M679.95,123.61c-3.92-.49-6.82-4.93-5.69-8.71.37-1.26,1.07-2.74.22-3.74-.37-.43-.93-.62-1.44-.86-3.26-1.53-4.64-6.08-2.78-9.17.39-.65.9-1.25,1.08-1.99.74-3.04-4.47-5.59-3.06-8.39,1.18-2.36,5.2-.92,7.12-2.72,1.87-1.75.51-5.24,2.17-7.19,2.46-2.9,9.12.06,10.09-3.62.51-1.92-1.62-3.64-3.6-3.77-1.98-.14-3.9.68-5.88.9-5.12.55-9.74-2.96-14.77-4.06-5.25-1.14-10.67.4-15.82,1.92-2.21.65-4.49,1.34-6.26,2.82-2.73,2.27-3.78,6.35-2.48,9.66.25.64.59,1.35.34,1.99-.15.38-.47.65-.79.9-1.56,1.28-3.12,2.55-4.68,3.83-.59.48-1.23,1.04-1.34,1.8-.25,1.74,2.24,2.46,3.96,2.08,1.72-.38,3.8-1.06,5.02.22,2.26,2.38-2.63,6.36-1.06,9.24,1.63,2.98,7.26.18,9.24,2.93,1.18,1.64.08,4.05.88,5.9.82,1.91,3.26,2.46,5.34,2.4,2.07-.06,4.28-.47,6.14.46,1.41.7,2.37,2.06,3.51,3.14,3.48,3.3,8.61,4.01,13.38,4.55"/>
        <path d="M680.15,123.18c-3.9-.6-6.36-4.86-5.23-8.56.41-1.33,1.05-2.97-.24-4.03-.63-.52-1.48-.71-2.14-1.19s-1.24-1.17-1.66-1.91c-.89-1.57-1.15-3.58-.54-5.29.51-1.44,1.86-2.53,1.62-4.18-.18-1.26-1.06-2.32-1.8-3.31s-1.98-2.4-1.39-3.77c.66-1.53,3.02-1.3,4.39-1.53,1.25-.22,2.47-.67,3.19-1.77.9-1.36.69-3.11.94-4.65.3-1.88,1.38-2.81,3.22-3.07,2.16-.3,5.27.33,6.98-1.39,2.38-2.39-.72-5.28-3.24-5.5-2.19-.19-4.27.79-6.43.93s-4.45-.54-6.54-1.34c-3.99-1.53-7.66-3.21-12.02-3.14-4.59.07-9.21,1.45-13.54,2.88-3.45,1.14-6.5,3.06-7.6,6.71-.48,1.6-.55,3.32-.12,4.94.11.42.3.82.43,1.23.08.26.33.8.26,1.09-.11.47-.69.97-1.03,1.28-.91.83-1.93,1.58-2.88,2.36-1.09.89-3.09,2.02-2.99,3.67.08,1.26,1.38,1.88,2.47,2.09,1.66.31,3.11-.44,4.74-.51,2.39-.11,2.67,1.87,1.99,3.63-.79,2.05-2.77,5.03-.59,6.92s5.32.28,7.68,1.4c1.99.95,1.34,3.38,1.47,5.14.11,1.53.87,2.71,2.25,3.4,1.48.73,3.15.77,4.76.68,2.56-.14,4.74-.17,6.68,1.75,1.39,1.38,2.62,2.74,4.38,3.69,1.61.87,3.36,1.44,5.14,1.84,1.92.44,3.88.68,5.84.91.58.07,1.18-.76.4-.85-3.92-.45-8.1-.94-11.47-3.16-1.61-1.06-2.69-2.64-4.19-3.81s-3.2-1.37-4.99-1.32c-1.93.06-3.95.43-5.76-.47-2.14-1.06-1.8-3.15-1.85-5.17-.09-3.14-2.46-3.85-5.16-3.91-1.29-.02-2.99.18-4.09-.65-1.29-.97-.9-2.63-.39-3.91.76-1.91,2.69-4.88.35-6.47-1.2-.81-2.8-.5-4.11-.21-1.17.26-4.66.75-4.33-1.47.16-1.07,1.8-2.03,2.58-2.67.9-.74,1.8-1.47,2.7-2.21.56-.46,1.29-.93,1.53-1.66.29-.9-.25-1.77-.52-2.6-1.25-3.95.72-8.15,4.37-9.96,1.92-.95,4.07-1.48,6.13-2.06,2.32-.66,4.67-1.26,7.06-1.53s5.01-.19,7.44.5c1.92.55,3.75,1.37,5.59,2.11s3.62,1.38,5.54,1.63,3.73-.09,5.61-.51c2.01-.44,5.33-.69,6.06,1.92.48,1.72-.96,2.48-2.38,2.65-2.35.29-5.19-.22-7.15,1.43-2.45,2.06-.29,6.95-3.52,8.12-2.09.76-5.81,0-6.49,2.9-.58,2.48,2.36,4.28,3.11,6.37.65,1.81-.91,2.99-1.44,4.58-.44,1.31-.44,2.76-.07,4.1s1.12,2.57,2.17,3.48c.61.53,1.29.8,1.98,1.18,1.33.73,1.06,1.93.67,3.17-.92,2.95-.34,5.92,1.99,8.07,1.08,1,2.38,1.61,3.83,1.83.58.09,1.18-.73.4-.85h0Z"/>
      </g>
      <g>
        <path d="M679.86,133.39c-1.96-4.5-8.8-2.25-13.48-3.73-3.57-1.13-6.15-4.74-9.88-5.12-2.68-.28-5.72,1.14-7.89-.45-1.26-.93-1.73-2.59-2.73-3.8-3.81-4.62-12.85-.73-16.51-5.48-3.29-4.28.84-12.1-3.59-15.17-1.38-.96-3.26-1.07-4.5-2.21-2.49-2.28-.62-6.37,1.34-9.12,2.74-3.84,5.47-7.68,8.21-11.52-9.5-1.54-19.44-.26-28.24,3.63-3.23,1.43-6.45,3.33-8.27,6.36-1.82,3.03-1.75,7.43.97,9.68.8.66,1.77,1.11,2.46,1.89,3.01,3.42-1.22,10.6,2.86,12.63.95.47,2.09.42,3.03.92,2.72,1.45,1.77,6.09,4.24,7.95,2.14,1.61,5.29.04,7.84.87,1.54.5,2.65,1.81,3.97,2.74,1.84,1.3,4.09,1.85,6.28,2.38,6.22,1.5,12.44,3,18.66,4.49,4.4,1.06,9.14,2.1,13.34.39,5.28,6.72,16.2,8.05,22.94,2.77"/>
        <path d="M680.44,133.24c-1.16-2.46-3.73-2.99-6.22-3.16-3.33-.22-6.62.06-9.6-1.72s-5.29-4.22-8.86-4.16c-1.95.04-4.18.84-6.05,0s-2.24-2.98-3.48-4.35c-4.09-4.48-11.68-.55-15.85-4.73s1.19-12.88-4.59-16.03c-1.81-.98-4.25-1.15-4.94-3.44-.61-2.01.42-4.28,1.43-5.98,1.26-2.14,2.84-4.11,4.28-6.13,1.6-2.25,3.21-4.5,4.81-6.75.11-.16-.02-.27-.18-.29-9.89-1.55-20.25-.24-29.36,3.95-3.62,1.66-7.51,4.1-8.86,8.07-.59,1.73-.68,3.72-.06,5.46.27.78.69,1.52,1.25,2.13.76.84,1.79,1.31,2.63,2.05,2.74,2.41,1.06,6.73,1.37,9.86.14,1.36.7,2.6,1.97,3.22,1.02.5,2.26.42,3.22,1.05.82.54,1.24,1.42,1.55,2.33.49,1.47.66,3.1,1.51,4.44,1.03,1.62,2.82,1.92,4.61,1.85,1.07-.04,2.17-.22,3.24-.1,1.42.16,2.48.95,3.54,1.83,1.74,1.45,3.54,2.37,5.73,2.98,6.04,1.69,12.22,2.97,18.32,4.44,5.32,1.28,10.96,2.94,16.31.88h-.76c5.67,7.05,16.84,8.06,23.94,2.64.51-.39-.65-.36-.92-.15-6.62,5.06-16.78,3.49-21.94-2.92-.15-.19-.6-.06-.76,0-4.88,1.88-10.3.11-15.15-1.05-5.1-1.23-10.21-2.46-15.31-3.69-2.42-.58-4.98-1.08-7.06-2.53-1.48-1.03-2.68-2.49-4.5-2.92-1.95-.46-3.94.26-5.89-.11s-2.73-2.17-3.21-3.94c-.36-1.34-.63-2.88-1.6-3.95-1.26-1.39-3.4-.89-4.69-2.16-1.08-1.06-1.08-2.78-1.02-4.19.06-1.5.28-3.01.18-4.52s-.57-2.88-1.75-3.87c-1.6-1.33-3.11-2.09-3.75-4.24-1.25-4.17,1.25-8.07,4.57-10.4,4.43-3.1,10.14-4.79,15.41-5.72s11.04-1.01,16.52-.15l-.18-.29c-2.8,3.93-5.69,7.82-8.41,11.81-1.58,2.32-3.7,6.28-1.38,8.8,1.18,1.29,3.02,1.44,4.47,2.29s2.06,2.18,2.31,3.72c.51,3.07-.35,6.25.45,9.3,1.73,6.61,9.83,4.32,14.69,5.9,1.66.54,2.8,1.55,3.68,3.04s1.63,2.84,3.36,3.31c1.63.44,3.35.04,4.99-.11,2.19-.19,3.97.49,5.77,1.68,1.6,1.06,3.09,2.32,4.87,3.08,1.48.64,3.1.82,4.7.91,3.18.18,7.85-.46,9.49,3.01.17.37,1.31,0,1.16-.31h0Z"/>
      </g>
      <g>
        <path d="M674.31,144.15c-4.03,5.33-12.1,7.08-17.99,3.92-1.97-1.06-3.68-2.58-5.75-3.42-6.01-2.44-13.3,1.43-19.17-1.32-3.2-1.49-5.33-4.7-8.47-6.32-6.26-3.22-14.61.69-20.63-2.95-1.54-.93-2.83-2.32-4.53-2.92-2.71-.95-5.77.33-8.56-.37-3.68-.92-5.97-5.03-9.7-5.73-2.22-.41-4.67.46-6.7-.54-3.53-1.74-3.2-7.76-6.84-9.23-1.42-.58-3.09-.24-4.52-.8-3.46-1.34-3.17-6.48-1.25-9.65,2.44-4.03,6.33-6.93,10.12-9.73.89-.66,1.78-1.31,2.66-1.97,4.51-3.33,10.17-6.83,15.36-4.7,1.02.42,2.08,1.29,1.95,2.38-.06.57-.43,1.05-.79,1.49-2.62,3.29-5.24,6.57-7.87,9.86,3.4-.22,5.34,3.8,5.99,7.15.65,3.35,1.49,7.41,4.73,8.5,1.63.55,3.67.2,4.89,1.41.95.94,1.01,2.44,1.67,3.6,1.97,3.45,7.15,1.92,11.07,2.54,2.75.43,5.12,2.11,7.6,3.37,2.87,1.46,5.97,2.39,9.05,3.31,2.79.83,5.58,1.66,8.37,2.5,7.79,2.32,15.58,4.65,23.5,6.47,5.57,1.28,11.19,2.31,16.85,3.08"/>
        <path d="M673.78,144.17c-3.69,4.74-10.37,6.51-15.92,4.16-2.91-1.23-5.15-3.62-8.28-4.4-2.8-.69-5.72-.36-8.55-.09-3.18.3-6.56.6-9.5-.93s-4.71-4.12-7.4-5.74c-5.16-3.11-11.33-1.12-16.95-1.88-1.52-.21-3.02-.64-4.34-1.44-1.24-.74-2.29-1.77-3.56-2.47-3.18-1.75-6.63.06-9.93-.94-2.59-.78-4.38-3.03-6.6-4.45-1.01-.65-2.11-1.12-3.31-1.27-1.78-.22-3.64.32-5.4-.16-4.71-1.28-3.46-8.66-8.42-9.76-1.46-.32-3.09-.05-4.4-.91-1.03-.67-1.57-1.8-1.77-2.98-.47-2.69.62-5.33,2.18-7.47,2.2-3.01,5.16-5.33,8.12-7.53,3.31-2.46,6.62-5.22,10.46-6.82,2.04-.85,4.28-1.32,6.47-.77,1.8.44,3.92,1.74,2.49,3.76-2.49,3.5-5.4,6.77-8.08,10.13-.17.21.14.27.29.26,3.33-.09,4.93,3.85,5.55,6.55s.92,5.65,2.85,7.72c.86.93,1.97,1.41,3.21,1.62,1.93.33,3.67.32,4.48,2.42.5,1.29.78,2.6,1.93,3.49.9.7,2.04.98,3.15,1.12,3.16.39,6.3-.28,9.34.94,1.76.7,3.35,1.73,5.03,2.6,1.76.91,3.62,1.62,5.5,2.25,8.07,2.67,16.32,4.99,24.51,7.27,9.23,2.57,18.56,4.64,28.06,5.95.31.04,1.35-.46.73-.55-17.27-2.38-33.98-7.5-50.6-12.62-1.97-.61-3.94-1.26-5.83-2.11-1.7-.77-3.28-1.75-4.94-2.59-1.52-.77-3.09-1.34-4.79-1.49-1.37-.13-2.75-.07-4.13-.07-1.53,0-3.24-.04-4.59-.86-1.49-.91-1.67-2.49-2.34-3.95-1.37-3.01-5.27-1.54-7.42-3.6-2.44-2.34-2.37-6.09-3.34-9.1-.88-2.75-2.68-5.6-5.88-5.51l.29.26c2.62-3.28,5.29-6.53,7.87-9.86.77-1,1.23-2.06.25-3.13s-2.59-1.45-3.94-1.6c-6.79-.74-12.96,4.83-17.99,8.6-4.48,3.37-10.67,8.15-10.12,14.47.24,2.75,2.02,4.22,4.69,4.47,1.68.15,3.14.35,4.26,1.72.78.96,1.25,2.13,1.73,3.25.95,2.21,2.02,4.52,4.61,5.06,1.72.36,3.47-.11,5.2.11s3.04,1.13,4.32,2.14c2.33,1.83,4.39,3.75,7.51,3.87,1.87.07,3.75-.39,5.62-.14,1.98.27,3.37,1.63,4.94,2.72,5.55,3.85,12.47,1.09,18.6,2.44,3.54.78,5.77,3.31,8.47,5.51,2.47,2.01,5.22,2.84,8.38,2.84,3.5,0,6.98-.85,10.48-.48,1.98.21,3.7.91,5.37,1.98,1.38.88,2.7,1.87,4.19,2.55,4.86,2.21,10.93,1.35,15.24-1.69,1.14-.8,2.13-1.77,2.99-2.87.27-.35-.87-.22-1.06.03h0Z"/>
      </g>
      <g>
        <path d="M599.02,142.58c1.23-2.27-1.41-4.88-3.96-5.24-2.55-.36-5.2.44-7.7-.18-3.25-.81-5.47-3.83-8.51-5.22-3.23-1.48-6.96-1-10.49-1.38-3.53-.38-7.5-2.3-7.96-5.82-.25-1.89.4-4.31-1.2-5.35-1.63-1.05-4.08.58-5.64-.57-1.75-1.3-.27-4.28-1.35-6.17-.72-1.26-2.4-1.64-3.85-1.46-4.99.6-7.98,5.69-10.19,10.21-2.58,5.25-5.15,10.51-7.73,15.76-.18.36-.36.73-.43,1.13-.31,1.82,1.93,3.19,3.74,2.88,1.82-.31,3.25-1.65,4.73-2.75,1.48-1.1,3.36-2.05,5.11-1.46,1.75.6,2.68,2.51,4.22,3.53,3.78,2.5,8.75-1.31,13.24-.69,2.78.39,5.11,2.46,7.89,2.81,2.84.36,5.57-1.14,8.42-1.38,3.99-.34,7.72,1.76,11.48,3.16,3.75,1.41,8.48,1.96,11.33-.87"/>
        <path d="M599.57,142.64c1.12-2.4-1.01-4.65-3.18-5.42-3.35-1.19-7,.62-10.29-1.04-2.75-1.38-4.76-3.88-7.7-4.94-3.16-1.14-6.57-.71-9.84-1.08-2.84-.32-6.36-1.66-7.36-4.63-.68-2.02.59-5.44-1.83-6.61-1.04-.5-2.21-.25-3.3-.13-.87.09-1.8.15-2.4-.63-.51-.67-.46-1.62-.45-2.41.01-1.08.11-2.26-.43-3.25-.58-1.04-1.71-1.56-2.86-1.71-5.63-.73-9.46,4.99-11.68,9.28-1.79,3.45-3.44,6.98-5.15,10.46-.79,1.61-1.57,3.21-2.36,4.82-.61,1.24-1.76,2.79-1.17,4.23.91,2.24,3.85,2.35,5.73,1.5,2.99-1.34,6.09-5.89,9.46-2.76.97.9,1.74,2.01,2.91,2.68,1,.57,2.15.78,3.3.75,3.13-.06,6.04-1.73,9.18-1.61,3.59.14,6.33,3.09,10.02,2.93,1.92-.09,3.74-.78,5.61-1.18,2.29-.49,4.47-.2,6.68.52,5.63,1.84,12.86,6.31,18.21,1.29.52-.49-.61-.65-.96-.31-4.91,4.61-12.28-.53-17.38-1.98-2.91-.82-5.53-.61-8.42.15-1.76.46-3.56.96-5.39.54-1.44-.33-2.74-1.07-4.08-1.68-2.56-1.17-4.91-1.27-7.63-.64s-5.98,2.08-8.53.39c-2-1.32-3.02-3.84-5.75-3.8-2.95.05-4.81,2.48-7.19,3.8-1.4.78-3.29.93-4.35-.51s.44-3.32,1.09-4.64c1.65-3.36,3.29-6.71,4.94-10.07,2.27-4.62,4.82-11.78,10.45-13.2,1.5-.38,3.57-.3,4.32,1.33.53,1.15.22,2.5.29,3.72.15,2.41,1.9,3.03,4.06,2.77,1.45-.18,2.99-.29,3.46,1.4.35,1.26.05,2.63.23,3.92.32,2.31,2.12,3.95,4.14,4.91,2.82,1.34,5.87,1.25,8.91,1.4,1.78.09,3.59.26,5.25.94s2.95,1.79,4.31,2.83c1.11.85,2.25,1.68,3.55,2.21,1.58.65,3.25.67,4.93.58,1.9-.1,3.92-.4,5.65.6,1.44.83,2.71,2.46,1.92,4.16-.27.58.9.56,1.1.11h0Z"/>
      </g>
      <g>
        <path d="M561.92,146.69c-3.51-2.46-8.26,1.45-12.49.73-2.6-.44-4.89-2.63-7.49-2.21-3.11.5-5.23,4.6-8.32,3.95-2.08-.44-3.3-2.93-5.41-3.18-1.93-.23-3.47,1.51-4.55,3.13-3.68,5.52-6.42,11.65-8.08,18.07-.19.72-.36,1.48-.13,2.19.51,1.59,2.83,1.91,4.21.97,1.38-.94,2.01-2.63,2.5-4.23.49-1.6.95-3.3,2.15-4.47,3.53-3.42,10.29.23,14.04-2.95,1.15-.97,1.82-2.47,3.11-3.24,2.98-1.79,7.25,1.27,10.17-.62,1.08-.7,1.68-1.91,2.52-2.89,1.38-1.6,3.48-2.54,5.58-2.5.99.02,2.01.23,2.94-.1.93-.33,1.63-1.55,1.01-2.32"/>
        <path d="M562.37,146.39c-3.81-2.46-8.05.97-12.04.75-2.38-.13-4.28-1.85-6.59-2.25-1.79-.3-3.37.34-4.81,1.36-1.64,1.16-3.54,3.4-5.74,2.3-1.65-.82-2.7-2.63-4.63-2.91s-3.47.92-4.6,2.29c-1.59,1.94-2.84,4.25-4,6.47s-2.21,4.57-3.1,6.95c-.46,1.24-.89,2.5-1.27,3.77-.36,1.21-.98,2.66-.81,3.94.22,1.67,1.91,2.33,3.42,2.16,1.76-.2,3.02-1.49,3.75-3.03,1.02-2.14,1.12-4.94,3.01-6.57,1.69-1.45,4.16-1.23,6.23-1.16,1.79.06,3.65.14,5.39-.41,2.04-.65,2.94-2.15,4.35-3.63,2.01-2.1,4.94-.76,7.43-.59,2.13.14,3.81-.55,5.13-2.25,1.01-1.29,1.87-2.51,3.42-3.21s2.88-.43,4.46-.47,3.98-1.24,2.85-3.11c-.23-.38-1.35.02-1.07.48.58.96-.37,1.69-1.23,1.88-.61.13-1.35-.06-1.98-.07-.89-.01-1.78.12-2.64.39-1.72.55-3.12,1.62-4.19,3.05-.75,1.01-1.44,2.13-2.74,2.47-1.03.27-2.17.05-3.2-.12-1.58-.26-3.21-.6-4.8-.19-1.8.48-2.68,1.9-3.85,3.21-1.43,1.61-3.38,1.86-5.42,1.85-3-.02-6.58-.6-9.05,1.55-1.44,1.25-1.95,3.11-2.49,4.86-.58,1.88-1.96,5.34-4.58,4.11-2.19-1.03-.38-4.91.15-6.55.76-2.35,1.67-4.65,2.72-6.89s2.13-4.21,3.38-6.21c1.15-1.83,3.05-5.3,5.68-3.96,1.52.77,2.49,2.35,4.19,2.8,1.31.35,2.62-.06,3.75-.75,1.65-1,3.12-2.87,5.12-3.15,2.43-.35,4.6,1.69,6.91,2.16,1.92.39,3.87-.09,5.73-.6,2.25-.63,4.7-1.52,6.84-.14.37.24,1.42-.28.91-.61h0Z"/>
      </g>
      <path d="M756.94,266.45c.69-5.41,1.58-10.8,2.87-16.1.87-3.56,1.92-7.09,3.35-10.48.88-2.08,1.89-4.13,3.21-5.98.41-.58.86-1.14,1.34-1.66.38-.4.68-.69,1.05-.98.15-.12.31-.23.47-.34.07-.04.13-.09.2-.13-.07.04-.03,0,.08-.04s.42-.17.19-.09l-.46-.04c1.04.68,1.94,1.66,2.73,2.61,2.14,2.57,3.65,5.62,4.63,8.81.83,2.7,1.28,5.51,1.46,8.32.03.41.99.18.96-.26-.4-6.14-2.14-12.44-6.14-17.25-.79-.95-1.68-1.87-2.68-2.61-.33-.25-.64-.23-1-.06-1.24.58-2.25,1.69-3.08,2.74-2.22,2.81-3.7,6.19-4.91,9.54-2.39,6.63-3.75,13.62-4.77,20.58-.17,1.17-.33,2.33-.48,3.5-.06.46.92.32.97-.08h0Z"/>
      <path class="cls-15" d="M771.89,292.5c4.17,1.27,7.13,5.2,6.63,9.63-.24,2.11-1.26,4.08-2.85,5.49-1.08.95-2.08,1.4-3.48,1.62-2.95.47-5.77-.48-7.89-2.58-.23-.23-1.25.17-1.02.4,2.02,2.01,4.68,2.98,7.52,2.81,1.37-.08,2.94-.32,4.15-1.02,4.12-2.36,5.89-7.53,3.82-11.85-1.19-2.47-3.41-4.19-6-4.98-.29-.09-1.26.36-.88.47h0Z"/>
      <path d="M756.69,266.83c1.54-.49,3.85-1.12,5.09.32.99,1.15.92,3,.87,4.41-.07,2-.33,3.99-.34,6,0,1.83.16,3.83,1.19,5.4s2.74,2.59,4.55,2.01c2.26-.73,3.54-3.21,4.31-5.28,1.32-3.51,1.63-7.4,1.24-11.11-.09-.89-.36-1.76-.3-2.65.05-.64.07-1.28.06-1.92-.01-3.78-.77-9.07-4.89-10.52-.55-.19-1.12-.29-1.7-.34-.21-.02-1.1.35-.63.39,4.77.41,6.05,5.72,6.23,9.69.05,1.12-.1,2.24-.07,3.35.02.81.27,1.67.35,2.48.1,1.04.14,2.09.13,3.13-.03,1.9-.26,3.8-.74,5.64-.38,1.46-.9,2.91-1.65,4.22-.55.95-1.25,1.96-2.23,2.51-.76.43-1.53.05-2.21-.38-.75-.48-1.36-1.15-1.77-1.94-.86-1.64-.95-3.59-.91-5.41.04-1.94.3-3.87.34-5.81.03-1.37.04-3.06-.91-4.17-1.08-1.26-3.05-1.05-4.5-.74-.63.13-1.24.31-1.85.51-.1.03-.37.13-.29.27.07.12.54-.03.62-.06h0Z"/>
      <path d="M740.71,219.77c-1.15,4.07-1.91,8.25-2.28,12.47-.16,1.79-.24,3.61.23,5.34.35,1.29,1,2.49,1.45,3.75,1.42,4.01.7,8.45,1.42,12.64.26,1.53.76,3.09,1.88,4.16,1.12,1.07,3.01,1.45,4.23.5,1.32-1.02,1.33-2.97,1.22-4.64-.19-2.86-.38-5.73-.57-8.59-.17-2.53-.31-5.22.88-7.47,1.8-3.42,6.29-5.1,7.29-8.83.61-2.28-.29-4.75.22-7.06.34-1.53,1.31-3.02.97-4.56-.43-1.96-2.71-2.85-4.69-3.2-3.86-.68-10.46-9.93-14.27-9.04"/>
      <path d="M767.57,205.74c4.44.71-15.21,8.1-16.63,3.84-1.43-4.27-4.08-15.2-8.2-17.01-4.12-1.82,16.91,5.25,8.14-14.7,2.92-3.69,12.43,8.19,16.35,5.6,5.1-3.38-5.65-9.55-9.84-14-4.19-4.46-4.76-6.46-9.19-10.69-1.66-1.59.81-6.78,2.37-8.47.59-.64,1.45-.92,2.23-1.3,3.42-1.67,5.31-5.64,5.29-9.44-.02-3.8-12.56-5.7-14.74-8.81-3.73-5.31-4.05-10.27-10.11-12.59-2.43-.93.77-2.57-1.11-4.37-1.88-1.8-2.54-5.22-.56-6.9,1.18-1,2.85-1.07,4.39-1.08,7-.04,14.19.39,20.59,3.21,6.41,2.82,11.95,8.47,12.91,15.41.38,2.74.07,5.68,1.35,8.13,1.59,3.07,5.21,4.53,7.27,7.3,4.15,5.61.77,14.63,5.41,19.84,1.45,1.63,3.49,2.61,5.05,4.13,2.78,2.71,3.72,7.14,2.26,10.74-.87,2.16-2.49,3.97-3.35,6.14-3.22,8.11,5.05,16.63,4.25,25.32-.78,8.38-5.44,11.7-12.55,7.19"/>
      <path d="M681.46,68.67c-3.66,1.52-7.73-.39-11.53-1.51-5.92-1.74-12.4-1.51-18.17.65-4.36,1.63-8.43,4.35-13.07,4.72-2.68.21-5.35-.38-8.01-.75-9.3-1.31-18.96.11-27.49,4.04-1.83.84-3.66,1.81-5.66,2.06-2.37.29-4.73-.46-7.1-.75-5.41-.65-11.08,1.28-14.96,5.12-5.73,5.67-8.28,15.45-16.12,17.31-5.83,1.38-13.5-2.05-17.12,2.74-1.69,2.23-1.52,5.38-2.85,7.84-2.85,5.27-11.04,5.29-14.41,10.25-2.77,4.09-1.19,9.96-3.72,14.2-1.68,2.8-4.81,4.33-7.19,6.56-2.38,2.23-3.94,6.22-1.75,8.64l-1.03,4.62c-11.22,17.36-6.45,49.57-3.78,47.1,2.67-2.47,14.05-25.27,13.59-28.88-2.9-22.65,13.38-38.6,18.4-42.13,4.53-3.19,9.77-5.57,13.29-9.84,2.23-2.71,8.32-1.4,11.32-3.24,4.04-2.47,5.14-6.07,8.88-8.98,1.98-1.54,6.19,1.24,7.3-1.01,2.92-5.89,10.99-7.99,17.48-9.07,5.46-.91,4.41-7.12,9.78-8.47,3.53-.88,7.37,4.62,10.62,2.96,4.7-2.39,8.15-3.73,13.41-4.15,9.08-.73,19.12-8.62,28.2-9.35,6.09-.49,13.85,6.59,19.75,8.19,8.52,2.31,14.72,1.33,23.48.21.95-5.76-1.37-11.94-5.86-15.65-4.5-3.72-11.01-4.83-16.48-2.81"/>
      <g>
        <path class="cls-4" d="M608.08,339.57c4.67.82,10.63-1.61,13.88-5.39.72-.84,3.88-1.25,2.87-.08-4.29,4.98-12.97,8.07-19,7.02-.6-.11-.63-.53-.06-.94.6-.44,1.67-.73,2.31-.62"/>
        <path class="cls-4" d="M626.21,332.42c2.29-2.12,5.1-3.75,8.04-4.94.43-.17,1.06-.19,1.47,0,.33.15.48.43.2.72-1.14,1.24-2.81,2.13-4.44,2.62-.52.15-1.23.24-1.66-.1-.4-.32.01-.74.42-.86,1.35-.4,2.64-1.1,3.58-2.12.56.24,1.12.48,1.68.72-2.63,1.06-5.13,2.54-7.18,4.44-.41.38-1.14.45-1.65.33-.38-.09-.87-.42-.46-.8"/>
        <path class="cls-4" d="M638.3,328.99c3.5-1.21,7.16-4.05,8.06-7.25,1.35-4.82-3.09-10.36-8.31-11.51-.57-.13-.43-.57.03-.82.59-.34,1.41-.34,2.01-.21,4.54,1,8.68,5.4,9.29,9.32.57,3.67-2.03,7.18-5.93,9.53-1.16.7-2.43,1.33-3.74,1.78-.53.18-1.54.33-1.94,0-.4-.34.03-.68.53-.85"/>
        <path class="cls-4" d="M601.05,339.84c.06-.46-.37-.62-.65-.52-.94.33-2,.37-3.02-.03-.19.48-.38.96-.57,1.43,1.97-.4,4.08-.38,6.15.21.41.12.85-.18,1.08-.53.17-.26.27-.78-.14-.9"/>
        <path class="cls-4" d="M603.89,339.51c-2.31-.66-4.66-.65-6.87-.2-.32.07-.68.36-.81.72-.11.28-.05.6.25.71"/>
        <path class="cls-4" d="M593.88,342.65c-2.32.64-5.51-.03-7.47-2.31-2.97-3.45-2.89-8.69-.83-12.14.22-.38-.06-.68-.4-.68-.46,0-.87.38-1.1.78-1.79,3.01-2.26,7.14-.7,10.76,1.46,3.38,4.43,5.13,7.5,5.27.91.04,1.85-.03,2.72-.27.35-.1.93-.46.96-.93.04-.48-.34-.56-.67-.47"/>
      </g>
      <path class="cls-2" d="M544.84,286.18c-3.51-.6-7,1.9-8.43,4.28-.34.56-.82,2.09-.77,4.26.06,2.77,1.99,5.33,4.13,6.57,2.87,1.66,6.54.93,8.85-1.2,3.14-2.89,2.93-7.71.99-10.65-.36-.54-1.94-2.77-4.78-3.27"/>
      <path class="cls-2" d="M579.1,285.34s-18.37-6.9-26.12-5.26c-11.31,2.39-22.9,12.76-25.05,19.44,0,0,15-14.77,23.02-16.22,7.67-1.39,28.16,2.05,28.16,2.05Z"/>
      <path class="cls-2" d="M636.73,257.56c2.52-2.52,7.51-3.63,10.05-2.51.6.26,2.22,1.04,3.43,2.84,1.55,2.3,1.45,5.5.41,7.75-1.38,3.01-4.8,4.53-7.92,4.13-4.24-.55-6.84-4.61-6.95-8.13-.02-.64-.98-1.6,1.06-3.64"/>
      <path class="cls-2" d="M626.09,268.8s13.25-15.83,21.34-18.66c11.8-4.13,28.24-1.67,33.91,2.8,0,0-22.02-4.32-30.25-1.19-7.87,3-24.99,17.05-24.99,17.05Z"/>
      <path d="M624.66,357.83c12.49-4.33,37.56-15,44.77-12.11,0,0-4.34,28.86-33.29,38.9-28.95,10.05-40.28-11.8-40.28-11.8,0,0,12.89-9.48,28.8-14.99Z"/>
      <path class="cls-21" d="M660.31,349.25s-15.57,8.18-28.15,12.55c-12.58,4.37-33.65,9.75-33.65,9.75,0,0,.64-6.84,23.45-14.75,22.81-7.92,38.35-7.55,38.35-7.55Z"/>
      <path class="cls-7" d="M634.47,381.69c12.89-6.63,23.15-25.42,37.77-39.26,0,0,5.22,37.91-28.81,49.72-34.04,11.81-48.64-18.96-48.64-18.96,6.14,2.32,25.47,11.28,39.69,8.5Z"/>
      <path class="cls-7" d="M607.53,356.24c6.97-3.01,12.44-1.88,15.55-2.96,3.11-1.08,6.47-6.78,14.04-7.3,21.51-1.48,36.17-5.6,36.17-5.6-2.59,8.87-26.29,12.31-47.82,19.78-21.53,7.47-30.78,16.74-32.13,12.94-.4-1.13,7.67-14.04,14.2-16.86Z"/>
      <path class="cls-2" d="M521.48,279.14c-.36-.1-.75-.12-1.17-.07-.35-.56-.68-1.13-1.01-1.71-.18-.4-.33-.81-.44-1.22-.01-.11-.02-.22-.02-.33,1.35-4.36,3.51-7.25,3.73-7.55,0,0,3-4.08,8.74-7.26,3.96-2.19,15.56-5.97,31.78-7.99.59,2.19,1.18,4.39,1.76,6.59.45,1.68.89,3.35,1.32,5.02-5.82-.04-10.72.21-14.4.49-7.78.59-11.75.93-15.86,2.75-4.32,1.92-7.7,4.63-9,5.69-1.84,1.5-3.09,2.46-4.43,4.14-.4.5-.68.97-1,1.45Z"/>
      <path class="cls-2" d="M607.06,235.63c.92,2.08,1.85,4.16,2.78,6.25.71,1.59,1.42,3.17,2.14,4.75,6.09-4.1,11.42-7.34,15.48-9.7,8.59-4.99,12.99-7.51,18.6-8.99,5.89-1.56,11.34-1.86,13.46-1.96,2.98-.15,4.97-.28,7.56.05,5.62.73,8.74,2.89,9.36,2.33.57-.51-1.66-2.62-1.89-2.83-5.64-5.29-13.59-6.51-14.2-6.62,0,0-6.02-1.01-14.29.59-5.7,1.1-20.55,6.33-39.01,16.14"/>
      <path class="cls-9" d="M909.06,962.08c12.54-1.08,25.01-2.86,37.39-5.07,13.97-2.49,27.85-5.54,41.6-9.06,14.2-3.64,28.26-7.8,42.13-12.54,13.42-4.58,26.67-9.71,39.57-15.63,11.57-5.31,22.92-11.24,33.55-18.28,1.19-.78,2.36-1.59,3.53-2.4h-1.56c.83,5.13,3.85,9.59,6.53,13.93,1.45,2.35,2.9,4.73,4.01,7.27.48,1.1.9,2.23,1.2,3.4.25.95.57,1.9.08,2.81-.88,1.62-2.81,2.77-4.24,3.85-1.32.99-2.89,2.01-3.78,3.44-.7,1.12-1.26,2.08-2.25,3s-2.09,1.69-3.17,2.47c-1.96,1.41-3.95,2.79-5.95,4.14-16.84,11.35-34.98,20.73-53.65,28.66-20.22,8.59-41.16,15.49-62.46,20.87-21.71,5.48-43.83,9.38-66.13,11.5-21.41,2.04-43.04,2.43-64.48.57-2.58-.22-5.15-.48-7.72-.78l.37.25c-1-2.24-1.83-4.58-2.5-6.94-.51-1.77-.94-3.6-1.05-5.44-.08-1.32-.06-3.11,1.08-4.01.36-.29.15-.52-.17-.65-.4-.16-1.06.12-1.36.37-2.66,2.11-1.32,6.93-.59,9.63.48,1.78,1.07,3.53,1.73,5.26.25.66.48,1.75.94,2.31.33.4.98.32,1.47.37.74.08,1.47.16,2.21.23,1.43.15,2.86.28,4.29.41,2.99.26,5.98.48,8.98.66,5.97.35,11.95.54,17.93.57,24.91.13,49.82-2.3,74.33-6.71,24.81-4.47,49.27-10.97,72.99-19.53,22.13-7.99,43.71-17.78,63.86-29.97,4.74-2.87,9.41-5.87,13.96-9.03,2.2-1.53,4.52-3,6.52-4.8,1.1-.99,1.85-2.06,2.6-3.32.48-.81,1.24-1.42,1.96-2,1.75-1.42,3.72-2.63,5.27-4.29.5-.54,1.03-1.17,1.21-1.9.25-1.02-.21-2.23-.5-3.2-1.75-5.88-5.8-10.78-8.67-16.12-1.32-2.46-2.43-5.03-2.88-7.8-.09-.55-1.32-.18-1.56,0-10.17,7.1-21.1,13.09-32.29,18.42-12.58,6-25.53,11.19-38.66,15.84-13.76,4.87-27.74,9.13-41.84,12.88-13.72,3.65-27.57,6.82-41.52,9.43-12.49,2.34-25.08,4.27-37.73,5.52-1.42.14-2.83.27-4.25.39-.93.08-1.62,1.14-.28,1.02h0Z"/>
      <path class="cls-9" d="M1092.89,907.77c1.28,5.4,4.21,10.26,5.87,15.55s2.62,11.05,2.76,16.72c.02.97,1.97.65,1.95-.16-.13-5.64-.99-11.24-2.64-16.64-1.67-5.45-4.69-10.44-6-15.99-.2-.85-2.13-.35-1.93.52h0Z"/>
      <path class="cls-9" d="M1076.78,918.43c2.33,11.33,6.17,22.46,6.32,34.13,0,.26,1.94,0,1.93-.52-.15-11.67-3.99-22.8-6.32-34.13-.07-.36-2.02.1-1.93.52h0Z"/>
      <path class="cls-9" d="M1054.54,929.14c.4,2.75,1.61,5.23,2.84,7.69,1.34,2.69,2.54,5.42,3.46,8.28,1.84,5.66,2.71,11.59,2.61,17.54-.02,1.01,1.94.74,1.96-.14.1-5.92-.72-11.84-2.5-17.49-.85-2.7-1.93-5.32-3.18-7.87-1.36-2.75-2.81-5.46-3.26-8.53-.13-.9-2.06-.42-1.93.52h0Z"/>
      <path class="cls-9" d="M1029.71,939.76c3.75,11.74,12.38,22.44,11.65,35.31-.05.95,1.9.64,1.95-.17.74-13.04-7.87-23.76-11.67-35.65-.26-.83-2.19-.3-1.93.52h0Z"/>
      <path class="cls-9" d="M1007.48,946.16c.3,3.27,2.68,5.9,4.13,8.72s2.65,6.09,3.5,9.3c1.7,6.45,2.3,13.12,2.87,19.75.05.55,1.99.16,1.93-.52-.57-6.62-1.17-13.3-2.87-19.75-.83-3.14-1.93-6.22-3.4-9.11-1.47-2.89-3.92-5.58-4.23-8.91-.05-.55-1.99-.16-1.93.52h0Z"/>
      <path class="cls-9" d="M983.47,953.69c4.37,12.28,8.76,24.81,9.07,37.98,0,.32,1.94.03,1.93-.52-.3-13.17-4.7-25.7-9.07-37.98-.16-.45-2.07.13-1.93.52h0Z"/>
      <path class="cls-9" d="M957.61,957.2c4.31,13.17,7.53,27.05,5.82,40.97-.09.7,1.85.34,1.92-.27,1.72-14.02-1.48-27.97-5.82-41.22-.2-.62-2.12-.07-1.93.52h0Z"/>
      <path class="cls-9" d="M934.52,963.35c3.19,12.29,5.06,24.88,5.57,37.57.03.72,1.96.31,1.93-.52-.51-12.68-2.38-25.28-5.57-37.57-.2-.76-2.13-.25-1.93.52h0Z"/>
      <path class="cls-9" d="M909.67,963.3c2.86,7.93,4.12,16.26,4.28,24.67.06,3.15-.03,6.31-.11,9.46-.06,2.19-.16,4.41.12,6.59.06.48,2.01.08,1.93-.52-.28-2.18-.17-4.4-.12-6.59.08-3.15.17-6.31.11-9.46-.16-8.41-1.42-16.74-4.28-24.67-.2-.54-2.1.03-1.93.52h0Z"/>
      <path class="cls-9" d="M887.28,1006.55c.61-11.05.86-22.4-2.7-33.02-.3-.9-2.23-.38-1.93.52,3.53,10.52,3.28,21.7,2.67,32.64-.06,1.02,1.91.77,1.96-.13h0Z"/>
      <path class="cls-9" d="M861.84,1004.47c-.88-6.5-1.76-12.99-2.64-19.49-.11-.81-2.05-.34-1.93.52.88,6.5,1.76,12.99,2.64,19.49.11.81,2.05.34,1.93-.52h0Z"/>
      <path class="cls-25" d="M1017.71,520.06c-22.69-45.57-41.96-54.44-77.5-90.41-15.76-15.95-65.04-10.39-86.8,55.4-.74,2.23-1.19,4.54-1.39,6.88-8.02,94.98-.63,274.06,1.92,328.4.05.97.03,1.94-.01,2.9,10.88-.58,21.84.27,32.51,2.42,27.55,5.54,53.38,18.85,74.96,36.71,12.76,10.56,24.3,22.88,33.69,36.62,9.53-40.65,2.14-108.46,16.01-191.11.32-1.92.48-3.87.44-5.81-.47-20.87,7.96-178.41,6.17-182Z"/>
      <path class="cls-25" d="M972.16,901.83c-13.47-23.25-32.52-43.5-54.98-58.27-18.78-12.35-40.22-20.86-62.61-22.78-2.75,5.54-7.13,10.21-12.67,13.31l-186.3,115.62c-13.98,7.83-38.29,29.62-31.86,44.3l13.62,45.52c5.99,13.66,29.34,25.96,43.89,22.67,65.86-14.9,197.16-44.66,285.52-117.23,4.88-4.01,10.49-19.62,13.96-26.03-2.5-5.87-5.36-11.58-8.57-17.12Z"/>
      <path class="cls-9" d="M1008.43,528.42c-1.16,22.76-1.27,45.53-1.01,68.31.24,20.77.53,41.54-.23,62.31-.63,17.22-2.43,34.36-3.02,51.57-.52,15.01-.64,30.04-.81,45.06-.19,17.4-.38,34.79-.81,52.19s-1.02,33.21-2.35,49.77c-.99,12.3-2.12,24.87-5.41,36.81-4.49,16.31-12.73,31.33-23.82,44.08s-25.6,23.91-40.48,33.04c-17.07,10.47-35.26,19.03-53.63,26.95-4.82,2.08-9.67,4.11-14.52,6.11-.31.13-.51.28-.24.48s1.1-.15,1.35-.25c19.12-7.88,38.12-16.2,56.27-26.16,15.82-8.68,31.12-18.69,44.22-31.17,12.05-11.48,22-25.1,28.36-40.53,5.05-12.26,7.31-25.1,8.75-38.21,1.72-15.7,2.48-31.51,3.03-47.29.61-17.64.87-35.28,1.08-52.93.19-16.07.3-32.14.67-48.21.15-6.33.33-12.65.65-18.98.43-8.39,1.26-16.75,1.78-25.14,1.35-21.67,1.52-43.36,1.28-65.06s-.56-43.14.08-64.71c.18-6.2.44-12.39.75-18.58.01-.26-1.9-.04-1.93.52h0Z"/>
      <path class="cls-9" d="M785.7,867.61c7.59-4.67,15.19-9.34,22.78-14.01l36.05-22.17c2.77-1.7,5.54-3.41,8.31-5.11.21-.13.56-.36.54-.67-.08-1.06-.15-2.12-.23-3.18-.22-3-.43-6-.64-8.99-.33-4.71-.66-9.42-.98-14.13-.42-6.14-.83-12.27-1.23-18.41-.49-7.36-.96-14.73-1.43-22.1-.53-8.32-1.04-16.64-1.54-24.96-.54-8.98-1.07-17.96-1.57-26.95-.54-9.47-1.05-18.95-1.55-28.43-.5-9.68-.99-19.36-1.44-29.04-.45-9.59-.87-19.18-1.25-28.78s-.71-18.68-1-28.02c-.27-8.75-.5-17.51-.67-26.27-.15-8-.25-16-.27-24-.01-6.96.04-13.91.21-20.87.14-5.64.36-11.28.76-16.91.3-4.13.67-8.28,1.39-12.36.25-1.39.56-2.88.92-4.06.16-.53.34-1.05.55-1.56.09-.21.18-.43.29-.63.06-.12.36-.62.21-.39.52-.8.74-1.6,1.05-2.51.86-2.51,1.79-5,2.77-7.47,3.33-8.42,7.22-16.65,11.84-24.43,5.15-8.67,11.37-17.2,19.55-23.24,3.61-2.66,7.64-4.75,12.02-5.78,1.21-.29.83-1.69-.38-1.4-9.49,2.24-17.23,8.94-23.35,16.25-6.53,7.79-11.68,16.72-16.08,25.85-3.06,6.35-5.79,12.89-8.1,19.55-.22.64-.47,1.28-.65,1.93-.03.11-.06.24-.11.34.12-.28-.05.04-.15.19-.57.85-.94,1.8-1.24,2.77-.99,3.12-1.43,6.41-1.81,9.65-.57,4.85-.87,9.73-1.1,14.61-.29,6.28-.43,12.57-.5,18.85-.08,7.5-.06,15,.02,22.5.09,8.4.25,16.8.46,25.2.23,9.12.51,18.24.84,27.36.34,9.55.72,19.11,1.14,28.66.42,9.69.87,19.38,1.35,29.06s.98,19.31,1.51,28.97c.51,9.29,1.03,18.57,1.57,27.86.51,8.75,1.04,17.5,1.58,26.24.49,7.91.99,15.83,1.5,23.74.44,6.8.89,13.59,1.34,20.39.37,5.49.74,10.98,1.12,16.46.27,3.88.54,7.76.81,11.64.15,2.05.29,4.1.44,6.16.02.25.04.51.06.76l.54-.67c-7.59,4.67-15.19,9.34-22.78,14.01l-36.05,22.17c-2.77,1.7-5.54,3.41-8.31,5.11-1.11.68-.09,1.81.87,1.21h0Z"/>
      <path class="cls-9" d="M853.19,826.45c16.09-3.29,33.35.93,46.47,10.71,3.75,2.79,7.13,6.03,10.07,9.66.57.71,2.4-.08,1.76-.86-10.76-13.27-27.39-21.32-44.42-22.02-4.79-.2-9.55.18-14.25,1.14-1.22.25-.83,1.62.37,1.38h0Z"/>
      <path class="cls-12" d="M618.69,994.68l16.89,32.5,12.54,27.69s-43.46,33.45-56.19,36.69c-12.73,3.23-44.44,10.35-44.44,10.35,2.95,3.19,4.8,7.32,5.25,11.67.19,5.02-1.56,9.79-4.85,13.2l-20.59-15.83c.19,10.93-10.52,6.8-10.52,6.8l-16.17-14.67c.81,13.55-13.19,8.53-13.19,8.53l-15.08-23.47c-1.34,5.31-3.66,10.23-6.84,14.48-4.37,4.87-10.06-4.55-10.06-4.55l5.26-47.67,48.44-39.26,97.78-10.98,11.77-5.47Z"/>
      <path class="cls-12" d="M408.53,1090.35c1.31.55,19.68,8.4,29.41,16.15,9.72,7.75,33.21,16.95,33.21,16.95,0,0,38.01,6.14,43.33,4.8,5.32-1.34,15.1-11.72,15.1-11.72,3.49-.41,7.07-.38,10.65.1,9.68.57,14-9.98,14-9.98l-12.11-5.18c11.29,5.11,22.81,9.61,34.5,13.48,3.49.61,4.12-1.5,3.94-4.2-.43-4.01-2.67-7.8-6.11-10.34l-53.8-41.15c7.71-4.3,14.89-9.36,21.46-15.1,6.72-5.82,1.46-11.16-.44-12.55-1.89-1.39-25.27,4.59-25.27,4.59,0,0-36.22-3.59-43.77-2.55-7.55,1.04-47.42,8.84-47.42,8.84l-7.93-.67s-10.03,47.98-8.73,48.52Z"/>
      <path class="cls-27" d="M529.36,1117.4c2.36-.26,4.72-.33,7.09-.18,1.96.12,3.85.46,5.82.22,2.79-.35,5.4-1.51,7.62-3.23,2.52-1.96,4.65-4.76,5.88-7.73.09-.22-.13-.47-.31-.55-4.04-1.73-8.08-3.46-12.11-5.18-.67-.29-1.58-.09-2.18.29-.4.25-.95.89-.27,1.2,7.9,3.57,15.93,6.86,24.07,9.84,2.03.74,4.07,1.47,6.11,2.17,1.81.62,3.76,1.56,5.68,1.68,2.62.16,5.13-1.14,5.36-3.93.4-4.9-2.71-9.49-6.44-12.34-1.3-.99-2.6-1.99-3.9-2.98-5.89-4.5-11.77-9-17.66-13.51-6.84-5.23-13.67-10.46-20.51-15.68-2.52-1.93-5.05-3.86-7.57-5.79l-2.46-1.88c-.39-.3-.86-.81-1.32-1.01-.06-.03-.12-.09-.17-.13l-.48,1.06c6.3-3.53,12.31-7.58,17.94-12.11,3.98-3.21,9.63-7.49,6.5-13.2-.7-1.28-1.85-2.87-3.19-3.57-.92-.48-2.18-.32-3.16-.25-3.51.26-7.01,1.05-10.44,1.78-3.5.74-6.98,1.56-10.46,2.41-.82.2-1.7.34-2.49.62-.48.17,1.01.06.61-.08-.2-.07-.49-.05-.7-.07-6.41-.62-12.82-1.18-19.24-1.66-4.71-.36-9.43-.68-14.16-.87-3.29-.13-6.71-.36-9.99.08-.53.07-1.67.38-1.75,1.05s.89.72,1.33.66c1.17-.16,1.8-.15,3.04-.17,1.58-.02,3.17.02,4.75.07,3.9.13,7.81.37,11.7.64,7.11.49,14.21,1.1,21.31,1.77,1.2.11,2.41.37,3.59.09,2.37-.56,4.72-1.17,7.09-1.72,3.63-.84,7.26-1.66,10.93-2.3,1.47-.26,2.95-.5,4.44-.61.09,0,.72,0,1.12,0-.25,0,.08.14-.09-.02.08.07.27.19.47.36,1.5,1.29,2.75,3.03,3.04,5.03.51,3.5-2.44,5.85-4.83,7.86-5.99,5.03-12.47,9.46-19.29,13.28-.25.14-.9.73-.48,1.06,2.91,2.23,5.83,4.46,8.74,6.69,6.32,4.83,12.63,9.66,18.95,14.49s12.41,9.49,18.61,14.23l5.78,4.42c1.41,1.08,2.87,2.11,4.06,3.43,2.13,2.36,3.8,5.71,3.68,8.96-.02.52-.08,1.11-.29,1.59-.08.17-.18.38-.33.5-.06.05.18-.03-.13,0-.95.07-2.05-.51-2.94-.82-.99-.33-1.97-.67-2.95-1.02-7.87-2.75-15.65-5.78-23.31-9.09-1.92-.83-3.83-1.67-5.74-2.54l-2.46,1.49c4.04,1.73,8.08,3.46,12.11,5.18l-.31-.55c-.23.56-.71,1.43-1.15,2.15-1.01,1.63-2.23,3.13-3.7,4.36-1.71,1.42-3.76,2.37-6,2.43-1.94.06-3.91-.36-5.86-.4-2.06-.04-4.12.07-6.17.3-.53.06-1.67.39-1.75,1.05s.89.71,1.33.66h0Z"/>
      <path class="cls-27" d="M525.4,1060.68c-4.34-4.49-9.33-8.34-14.81-11.33-2.93-1.6-5.69-3.5-8.67-5.05-2.97-1.55-6.04-2.92-9.16-4.12-.71-.27-1.55-.18-2.19.25-.38.26-.96,1.05-.24,1.33,3.06,1.18,6.05,2.51,8.96,4.02,2.92,1.51,5.63,3.35,8.49,4.95,5.46,3.06,10.41,6.69,14.77,11.2.82.85,3.75-.32,2.85-1.26h0Z"/>
      <path class="cls-27" d="M500.7,1080.2c-.12,1.03,2.2,1.96,2.87,2.34,2.63,1.51,5.3,2.95,7.95,4.42,7.65,4.23,15.1,8.85,23.09,12.43,3.76,1.68,7.6,3.19,11.3,4.98.69.33,1.58.2,2.2-.24.42-.3.91-1.07.22-1.4-6.67-3.22-13.68-5.68-20.14-9.34-6.77-3.83-13.55-7.65-20.34-11.44-1.02-.57-2.05-1.14-3.05-1.74-.29-.18-.58-.36-.87-.55-.14-.09-.27-.14-.21-.15.22-.03,0,.1.03.02-.01-.01-.03-.03-.04-.04-.1-.13-.06,0,.1.41.16-1.41-2.96-.91-3.1.31h0Z"/>
      <path class="cls-27" d="M489.02,1096.8c5.31,5.04,11.38,9.25,18.03,12.32,1.71.79,3.32,1.8,5.01,2.62s3.49,1.6,5.29,2.28c3.65,1.39,7.41,2.44,11.26,3.15.74.14,1.65,0,2.18-.58.42-.46.37-1.17-.35-1.3-3.69-.68-7.32-1.67-10.83-2.99-1.74-.65-3.45-1.39-5.13-2.2s-3.31-1.83-5.01-2.62c-6.48-3-12.42-7.05-17.6-11.97-.9-.85-3.82.36-2.84,1.29h0Z"/>
      <path class="cls-25" d="M621.19,986.36c-5.16,1.19-19.77,6.68-24.29,9.34,5.67,26.3,14.97,51.9,27.59,75.94,7.07-5.14,25.02-12.26,33.75-13.97-19.9-19.32-28.04-46.68-35.45-72.79"/>
      <path class="cls-9" d="M620.85,985.96c-4.3,1.04-8.5,2.68-12.62,4.27s-8.31,3.16-12.09,5.39c-.16.09-.43.26-.38.49,4.56,20.51,11.29,40.52,20.04,59.63,2.5,5.46,5.17,10.85,7.99,16.16.29.54,1.37.11,1.73-.15,4.77-3.47,10.39-5.9,15.81-8.14,5.46-2.27,11.13-4.47,16.95-5.66.2-.04,1.49-.41,1.05-.83-15.48-14.94-24.09-35-30.58-55.15-1.85-5.74-3.55-11.53-5.23-17.33-.17-.59-2.1-.06-1.93.52,5.91,20.37,12.13,41.24,24.29,58.89,3.42,4.97,7.31,9.6,11.65,13.79l1.05-.83c-6.17,1.27-12.17,3.53-17.97,5.94-5.7,2.36-11.59,4.93-16.6,8.59l1.73-.15c-9.88-18.59-17.84-38.19-23.64-58.44-1.64-5.74-3.11-11.52-4.4-17.35l-.38.49c3.64-2.15,7.72-3.66,11.65-5.18s7.98-3.11,12.11-4.11c1.15-.28.93-1.11-.22-.83h0Z"/>
      <path class="cls-9" d="M601.18,1008.55c3.33-2.66,7.23-4.82,11-6.79s7.91-3.58,12.29-3.42c.37.01,1.11-.06,1.36-.37.19-.22.36-.42-.12-.44-4.74-.17-9.28,1.29-13.49,3.36-4.42,2.17-8.95,4.71-12.8,7.79-.36.29.32.33.46.33.44,0,.94-.19,1.29-.46h0Z"/>
      <path class="cls-9" d="M606.66,1024.79c3.72-2.12,7.44-4.25,11.17-6.37,1.81-1.03,3.61-2.09,5.44-3.1s3.69-1.89,5.83-1.84c.61.01,2.09-.87.8-.9-4.3-.1-8.05,2.5-11.63,4.55l-12.76,7.28c-1.12.64.62.68,1.15.38h0Z"/>
      <path class="cls-9" d="M612.87,1043.13c4.17-1.11,7.58-3.83,11.41-5.69,4.09-1.99,8.45-3.33,12.95-3.99.94-.14,1.58-1.32.25-1.12-4.41.65-8.73,1.88-12.8,3.72-4.08,1.84-7.74,4.91-12.09,6.07-1.16.31-.9,1.33.27,1.02h0Z"/>
      <path class="cls-9" d="M619.61,1057.85c8.65-4.4,17.62-8.11,26.86-11.07,1.14-.37.88-1.45-.29-1.07-9.41,3.02-18.56,6.77-27.36,11.25-1.18.6-.11,1.35.79.9h0Z"/>
      <path class="cls-9" d="M696.92,923.28c-6.21,2.05-12.27,4.67-18.19,7.44-11.86,5.54-23.47,12.21-33.33,20.89-5.56,4.89-10.57,10.48-14.07,17.05-.29.54,1.01.48,1.21.45.59-.08,1.37-.33,1.67-.89,6.21-11.66,17.24-20.34,28.27-27.2,9.27-5.76,19.15-10.55,29.31-14.53,2.05-.8,4.12-1.6,6.21-2.29.39-.13,1.12-.52.82-1s-1.56-.04-1.89.07h0Z"/>
    </g>
  </g>
  <g id="Layer_3" data-name="Layer 3">
    <g class="cls-16">
      <polyline class="cls-19" points="1443.97 2726.54 -168.12 2726.54 -168.13 1160.06 1443.97 1160.06"/>
    </g>
  </g>
</svg>