<?xml version="1.0" encoding="UTF-8"?>
<svg id="Layer_2" data-name="Layer 2" xmlns="http://www.w3.org/2000/svg" xmlns:xlink="http://www.w3.org/1999/xlink" viewBox="0 0 1163.19 1163.19">
  <defs>
    <style>
      .cls-1, .cls-2, .cls-3, .cls-4, .cls-5, .cls-6, .cls-7, .cls-8, .cls-9, .cls-10, .cls-11 {
        fill: none;
      }

      .cls-2, .cls-3, .cls-4, .cls-5, .cls-6, .cls-7, .cls-8, .cls-9, .cls-10, .cls-11 {
        stroke-miterlimit: 10;
      }

      .cls-2, .cls-3, .cls-4, .cls-5, .cls-6, .cls-7, .cls-9, .cls-10, .cls-11 {
        stroke: #65b2e2;
        stroke-width: 2.08px;
      }

      .cls-12 {
        fill: #072b3a;
      }

      .cls-13 {
        fill: #acabab;
      }

      .cls-14 {
        fill: #151312;
      }

      .cls-15 {
        fill: #774639;
      }

      .cls-3 {
        stroke-dasharray: 5.27 5.27;
      }

      .cls-16 {
        fill: #273339;
      }

      .cls-17 {
        fill: #3e525a;
      }

      .cls-18 {
        fill: #13100f;
      }

      .cls-19 {
        fill: #010101;
      }

      .cls-20 {
        fill: #11394c;
      }

      .cls-21 {
        fill: #653c29;
      }

      .cls-22 {
        fill: #f2f2f3;
      }

      .cls-23 {
        fill: #89ac95;
      }

      .cls-4 {
        stroke-dasharray: 5.22 5.22;
      }

      .cls-24 {
        fill: #331d17;
      }

      .cls-25 {
        fill: url(#linear-gradient);
      }

      .cls-26 {
        fill: #f1eef7;
      }

      .cls-5 {
        stroke-dasharray: 5.27 5.27;
      }

      .cls-27 {
        fill: #c4c4c4;
      }

      .cls-28 {
        fill: #a66e53;
      }

      .cls-6 {
        stroke-dasharray: 5.2 5.2;
      }

      .cls-29 {
        fill: #fff;
      }

      .cls-7 {
        stroke-dasharray: 5.17 5.17;
      }

      .cls-8 {
        stroke: #000;
        stroke-width: .94px;
      }

      .cls-9 {
        stroke-dasharray: 5.16 5.16;
      }

      .cls-30 {
        fill: #a87159;
      }

      .cls-31 {
        fill: #e0e1e0;
      }

      .cls-32 {
        fill: #6b6b6b;
      }

      .cls-33 {
        fill: #24180f;
      }

      .cls-10 {
        stroke-dasharray: 5.15 5.15;
      }

      .cls-11 {
        stroke-dasharray: 5.16 5.16;
      }

      .cls-34 {
        fill: #825639;
      }

      .cls-35 {
        fill: #38211a;
      }

      .cls-36 {
        fill: #465b65;
      }

      .cls-37 {
        fill: #787878;
      }

      .cls-38 {
        clip-path: url(#clippath);
      }

      .cls-39 {
        fill: #4f2e25;
      }

      .cls-40 {
        fill: #89ad96;
      }
    </style>
    <clipPath id="clippath">
      <circle class="cls-1" cx="581.59" cy="581.59" r="581.59"/>
    </clipPath>
    <linearGradient id="linear-gradient" x1="479.16" y1="1251.21" x2="541.64" y2="-232.31" gradientTransform="translate(1039.12) rotate(-180) scale(1 -1)" gradientUnits="userSpaceOnUse">
      <stop offset=".29" stop-color="#bbe5f5"/>
      <stop offset=".81" stop-color="#76c7db"/>
    </linearGradient>
  </defs>
  <g class="cls-38">
    <rect class="cls-25" x="-150.98" y="-15.05" width="1365.41" height="1192.11"/>
    <path class="cls-28" d="M631.58,502.17c-17.43,4.45-30.29,1.07-44.57,12.01-6.09,4.66-14.59-1.36-19.62,4.49-5.9-27.03-3.91-108.68-3.91-108.68l43.31-138.42c1.34,2.11,2.74,4.19,4.17,6.24,3.74,5.36,6.99,9.66,9.87,14.13,1.52,2.37,2.99,4.78,4.29,7.28.39.74,2.97,7.04,2.23,4.73,3.08,9.53,11.33,16.46,21.85,14.37-1.02,54.52.08,157.06-1.1,183.82-3.69.59-12.9-.88-16.51.04Z"/>
    <path class="cls-28" d="M558.74,503.87c15.96-6.67,33.66-9.13,50.88-8.37,10.76.47,22.47-9.1,32.8-5.92-1.51,2.7-3.24,15.44-3.24,15.44,0,0,89.7,107.5,101.26,133.68l-24.11,23.1c-9-11.22-112.36-76.44-112.36-76.44,0,0-52.81-39.75-48.81-78.68.9-.41,2.66-2.42,3.58-2.81Z"/>
    <path class="cls-22" d="M581.21,418.92c6.93,1,13.88,1.8,20.85,2.43.7-.55-19.63,37.25-18.59,37.91,5,3.17,54.64,12.71,78.89-8.12-1.89-79.79-.38-114.14-1.59-135.32-2.01-35.08-65.46-84.52-69.69-87.21,0,0-17,128.37-10.58,178.25.44,3.4.66,7.46.72,12.06Z"/>
    <path class="cls-13" d="M620.23,52.25c-6.4-6-12.24-6.9-19.29-12.19-.61-.46-1.3-.94-2.02-.92-.59.02-1.05.38-1.47.74-9.84,8.36-20.02,16.28-27.73,26.48-3.28,4.35-6.39,8.91-8.04,14.16-1.49,4.73-4.55,9.43-4.82,14.52-.23,4.47-.46,8.94-.69,13.4-.09,1.67-.16,3.4.54,5.05,2.06,4.84,9.05,5.91,14,4.86,10.62-2.27,18.62-9.58,24.2-18,5.58-8.42,9.12-18.06,13.64-27.12,3.12-6.25,6.71-12.25,10.73-17.94"/>
    <path class="cls-28" d="M562.02,130.31s-14.08,27.62-36.07,39.66c-3.52,1.93-38.64,13.55-38.64,13.55l-4.61,85.73c12.92,15.49,48.48,20.83,67.75,26.79l57.84-17.06s-14.82-32.86-12.8-37.14c2.02-4.29,24.28-30.26,24.28-30.26"/>
    <path class="cls-28" d="M724.33,123.6s0-.06.02-.09c-1.54.28-6.43-13.06-7.31-14.63-9.27-16.56-12.16-27.08-29.08-35.66-8.83-4.48-21.89-1.77-31.19-5.17-8.92-3.26-13.07-13.8-21.14-18.9-2.8-1.77-9.45,6.64-7.27,5.33-3.06-2.98-5.23-5.8-5.23-5.8-13.35.51-27.77,43.27-31.02,48.2-3.25,4.94-9.7,11.79-9.7,11.79-.05-2.75-.57-5.11.11-7.7.49-2.35.54-5.41,1.03-7.76.54-5.79-6.22-9.86-11.03-9.58l-3.09,1.13c-8.31,2.57-14.39,24.07-15.19,31.54-6.97,11.27-1.83,23.71,9.04,19.9l-1.61,5.22-.05,31.88c2.6,18.76,15.56,45.53,32.83,57.16,6.19,4.17,14.21,10.48,23.92,6.11,9.82-4.42,14.26-7.34,24.07-10.93,9.41-3.45,14.44-6.19,22.16-12.57,7.98-6.6,9.52-8.75,14.57-17.48,2.25-3.9,5.99-9.57,8.8-12.85,3.23-3.79,16.58-18.27,23.71-27.29,7.13-9.02,12.66-31.86,12.66-31.86Z"/>
    <path class="cls-39" d="M574.03,113.55c.74-4.28,1.29-8.63,1.19-12.98-.05-2.2-.25-4.49-1.02-6.57-.25-.67-.62-1.67-1.23-2.12-.72-.53-2.04.32-2.68.68-3.32,1.91-5.52,5.24-6.87,8.74-.16.41,1.24.25,1.41-.19,1.06-2.74,2.61-5.34,4.92-7.21.59-.48,1.22-.91,1.91-1.24.18-.09.38-.14.55-.24.23-.13,0,0,.09-.03l-.75-.05c.63.44.98,1.36,1.23,2.04,1.08,2.91,1.12,6.24.99,9.3-.13,3.38-.59,6.74-1.16,10.07-.09.5,1.33.25,1.41-.19h0Z"/>
    <path class="cls-39" d="M570.72,113.07c-4.15-3.19-6.28,4.68-8.01,6.87-.12.15-.36.5-.55.51.16,0,.12.1.09-.03-.04-.19-.08-.35-.08-.55-.02-1.53.68-3.16,1.23-4.55.93-2.35,1.94-4.58,3.55-6.52,1.68-2.02,4.33-4.84,7.25-4.23.71.15,1.42-.85.48-1.05-2.94-.61-5.65,1.42-7.6,3.38-1.74,1.75-2.95,3.57-3.99,5.79-.84,1.8-1.62,3.66-2.1,5.6-.2.8-.63,2.36.18,2.99.75.59,1.87-.01,2.43-.59.72-.74,1.19-1.73,1.65-2.63.62-1.21,1.19-2.49,2.02-3.58.71-.93,1.33-1.38,2.35-.59.51.39,1.74-.33,1.09-.83h0Z"/>
    <path class="cls-39" d="M703.23,133.25s-13.04-6.4-23.1-12.39c-10.06-5.99-17.3-15.83-17.3-15.83,0,0,9.89,9.98,17.82,14.75,7.94,4.77,22.58,13.47,22.58,13.47Z"/>
    <path class="cls-13" d="M659.52,124.98c-8.93-9.95-16.27-15.47-19.57-17.24-2.58-1.39-5.39-2.33-8.28-2.91,0,0-9.37.34-10.9.89-1.53.55,3.99,2.15,3.99,2.15,1.1.46,1.93.66,2.97,1.24,5.7,3.21,11.61,5.67,16.41,10.15,4.12,3.82,8.54,10.51,11.79,15.11,1.47-1.67,3.78-5.62,5.39-7.14"/>
    <path class="cls-13" d="M707.28,161.47c.01-.2.57-1.39.57-1.59,0,0-.03-.23-.03-.23-.9-1.13-1.77-2.85-3.29-4.16-2.65-2.3-9.23-8.35-20.69-13.19-1.15,1.84-3.64,5.13-4.79,6.96,5.02,1.44,8.27,2.88,12.93,5.28,4.37,2.26,10.38,5.75,14.28,8.88.35-.32-.04-.03.28-.38.18-.26.35-.52.51-.8.09-.25.17-.51.23-.78Z"/>
    <path class="cls-28" d="M623.56,226.96c-.17-.14-.3-.32-.39-.52-1.65-3.73-1.19-4.95-2.38-6.18-.28-.28-.37-.51-1.28-1.29-3.68-3.14-5.88-5.13-21.11-5.13-.31,0-13.36-10.84-13.62-11.04l-5.12-8.14c-.74-1.54-13.44-42.24-13.44-42.24.08-1.04-1.38-9.72-1.1-10.59-.06-.1-.11-.2-.18-.29-.02-.03-.08-.11-.13-.18-.04.04-.1.09-.13.12-.25.29-.45.62-.64.95-.82,1.43-1.41,2.98-1.84,4.57-.66,2.45-1.62,4.77-2.37,7.18-.26.85-.49,1.71-.68,2.58,1.89,3.95-1.27,37.69,13.55,54.68.61.66,2.52,2.8,8.38,7.26,11.01,8.38,18.41,18.12,31.98,22.06,3.54,1.03,7.31.42,10.28-1.6,8.47-5.76,38.72-29.99,48.12-40.67-7.54,4.86-30.26,19.68-41.24,26.77-.33.21-5.87,2.07-6.3,1.94"/>
    <path class="cls-28" d="M602.08,42.04s19.95-16.56,49.08-7.86c21.99,6.57,57.36,31.4,66.98,47.13,13.94,22.79,4.9,46.74,4.9,46.74l-120.97-86.01Z"/>
    <path class="cls-35" d="M600.29,234.44s-28.47-19.42-32.57-28.45c-4.09-9.03-6.85-21.87-5.97-37.89,0,0-7.64,32.4,6.44,45.35,18.56,17.08,29.7,23.03,29.7,23.03l2.4-2.05Z"/>
    <path class="cls-14" d="M687.38,166.61c1.97.21,3.45,2.09,3.85,3.57.09.35.12,1.24-.24,2.4-.45,1.47-1.87,2.54-3.21,2.88-1.78.45-3.64-.5-4.55-1.99-1.24-2.03-.39-4.57,1.1-5.84.27-.23,1.46-1.19,3.05-1.02"/>
    <path class="cls-14" d="M668.42,160.68s10.87-.89,14.76,1.17c5.68,3,10.29,10.31,10.42,14.21,0,0-5.76-10.18-9.82-12.18-3.88-1.91-15.36-3.2-15.36-3.2Z"/>
    <path class="cls-14" d="M641.94,136.98c-.96-1.73-3.46-3.09-4.99-2.87-.36.05-1.34.22-2.27,1-1.18.99-1.61,2.72-1.4,4.08.28,1.82,1.87,3.16,3.6,3.42,2.35.35,4.36-1.42,4.95-3.28.11-.34.77-.7,0-2.1"/>
    <path class="cls-14" d="M646.6,145.61s-4.67-10.48-8.56-13.22c-5.68-4.01-14.84-5.2-18.54-3.68,0,0,12.42,1.05,16.35,3.98s10.75,12.92,10.75,12.92Z"/>
    <g>
      <path class="cls-19" d="M643.3,186.05c-2.62-.25-5.46-2.42-6.66-4.92-.26-.55-1.9-1.24-1.53-.46,1.57,3.3,5.78,6.22,9.16,6.54.34.03.42-.19.17-.5-.26-.32-.79-.63-1.15-.67"/>
      <path class="cls-19" d="M634.63,179.57c-.92-1.47-2.19-2.76-3.59-3.82-.21-.15-.54-.26-.79-.22-.2.03-.32.16-.21.36.43.83,1.19,1.55,2,2.05.25.16.63.31.91.19.26-.11.1-.4-.1-.52-.67-.41-1.26-.98-1.61-1.66-.34.05-.67.09-1.01.14,1.25.95,2.38,2.11,3.2,3.43.16.26.55.41.84.42.22,0,.53-.1.36-.36"/>
      <path class="cls-19" d="M628.64,175.96c-1.7-1.16-3.25-3.22-3.26-5.06-.02-2.78,3.17-5.1,6.13-4.96.32.02.31-.24.11-.44-.27-.27-.71-.39-1.04-.41-2.58-.13-5.44,1.63-6.34,3.64-.84,1.88.04,4.15,1.79,5.98.52.54,1.11,1.07,1.75,1.5.26.17.78.4,1.04.28.26-.12.08-.37-.16-.53"/>
      <path class="cls-19" d="M647.03,187.23c.04-.26.29-.28.43-.18.46.31,1.02.49,1.62.43.03.28.06.57.1.85-1-.5-2.13-.8-3.33-.79-.24,0-.43-.22-.5-.44-.05-.16-.03-.46.21-.46"/>
      <path class="cls-19" d="M645.56,186.63c1.34-.02,2.6.33,3.71.89.16.08.31.29.33.51.02.17-.06.33-.24.35"/>
      <path class="cls-19" d="M650.47,189.78c1.15.68,2.96.79,4.34-.15,2.1-1.41,2.82-4.24,2.22-6.39-.06-.23.13-.36.32-.31.24.06.41.33.48.58.52,1.88.17,4.16-1.2,5.87-1.28,1.6-3.13,2.1-4.79,1.73-.49-.11-.99-.29-1.42-.54-.17-.1-.43-.38-.38-.64.05-.26.26-.25.43-.15"/>
    </g>
    <path class="cls-16" d="M617.4,119.01l-1.69,6.2c-1.64,4.6-3.87,14.39-3.94,17.42-.08,4.25,20.1,19.35,25.82,19.69,5.71.34,16-10.1,18.94-12.15l8.07,6.05c-1.65,4.09-6.61,17.2-6.04,19.79.57,2.59,10.36,8.72,11.47,9.41.93.56,2.21,1.35,3.66,2.15,3.81,2.16,8.62,4.48,10.87,4.04,3.34-.65,10.63-6.79,17.32-12.73l1.06-.92c.25-.23.46-.36.52-.44h0l1.21-1.07c-8.23-13.79-24.7-23.39-39.02-22.73v.18s-7.85-5.94-7.85-5.94c-5.14-12.28-18.88-26.25-33.25-29.43h0l-39.39-17.71-2.2,3.07,34.44,15.12ZM660.32,175.51c-.36-1.62,2.88-10.97,5.6-18.1,12.34-.4,27.17,8.27,34.93,19.99l-.11.16c-3.59,3.18-13.15,11.65-16.44,12.29-3.89.75-23.25-11.67-24.01-14.3l.02-.03ZM614.82,143.43c1.02-7.69,2.73-15.27,5.11-22.65,13.24,2.15,29.21,16.52,34.35,28.35-4.78,4.05-12.44,11.59-16.54,11.33-5.89-.35-22.99-14.35-22.92-17.03h0Z"/>
    <path class="cls-17" d="M270.73,506.49l-8.59,22.44c-16.95,44.28-19.84,93.13-7.59,139.04,7.52,28.18,17.59,52.38,23.02,70l32.96,138.88s-2.71,36.98-9.99,92.96c-6.34,48.53,3.8,183.47,3.8,183.47l18.04,3.19c16.29,2.88,32.96,3.45,49.43,1.69l35.36-3.8,33.35-287.16,24.44-175.83,33.51-105.69-227.76-79.18Z"/>
    <path class="cls-17" d="M526.34,575.69l-18.31,307.81c-.01,13.59-9.07,57.17-19.85,100.46l-10.77,84-10.75,87.39-3.49-2.38c-14.09,2.64-28.51-6.51-42.85-7.49l-31.41-1.2,34.84-559,102.59-9.58Z"/>
    <path class="cls-22" d="M565.1,525l5.07-10.59c-.19-.09,4.76-8.17,4.58-8.26l67.57-142.09,1.75-53.04s-5.85-23.82-5.98-27.49l-29.48-40.1s-6.49-1.47-19.75,11.54c-5.68,5.57-11.28,29.98-19.65,27.22,0,0,3.92-21.45-9.71-45.54,0,0-41.36-48.15-39.4-57.72-19.78-1.4-82.42,2.64-100.01,9.88-20.67,8.43,3.05,66.65,11.15,99.11l-27.25-8.13s-39.52,25.36-65.48,72.25c-.98,1.66-16.9,40-17.91,41.9-3.14,5.58-15.91,24.72-18.21,28.45.36.16-7.62,8.21-21.61,40.8-15.87,34.79-16.84,32.66-21.71,49.02-6.13,20.57,135.44,92.75,189.13,101.67,49.2,8.17,78.15,20.43,100.56-55.11h0s-1.62,8.86,16.37-33.78Z"/>
    <path d="M469.6,666.62c-13.49,9.57-20.43,25.68-23.2,41.53-2.14,12.27-2.16,24.81-2.17,37.23v14.64c-.02,8.54-.03,17.09-.03,25.63,0,10.06-.02,20.12-.02,30.18,0,9.41-.02,18.82-.02,28.22,0,6.7-.01,13.4-.02,20.11,0,5.9-.01,11.79-.23,17.69-.4,10.7-1.34,21.39-2.83,32-.43,3.05-.85,6.09-1.28,9.14-.78,5.58-1.57,11.17-2.35,16.75-1.05,7.52-2.11,15.05-3.16,22.57-1.26,8.96-2.51,17.92-3.77,26.88-1.37,9.8-2.75,19.61-4.12,29.41-1.41,10.04-2.82,20.09-4.22,30.13s-2.75,19.6-4.12,29.4c-1.25,8.95-2.51,17.9-3.76,26.85-1.05,7.51-2.11,15.02-3.16,22.53-.78,5.57-1.56,11.13-2.34,16.7-.42,3.02-.85,6.05-1.27,9.07-.05.38-.11.76-.16,1.14-.1.75,2.24.32,2.33-.36.22-1.58.44-3.17.67-4.75.62-4.4,1.23-8.8,1.85-13.2.93-6.62,1.86-13.24,2.78-19.87,1.16-8.3,2.33-16.6,3.49-24.89,1.33-9.46,2.65-18.91,3.98-28.37,1.4-9.97,2.8-19.95,4.19-29.92,1.4-9.97,2.8-19.94,4.19-29.92,1.32-9.41,2.64-18.82,3.96-28.23,1.17-8.32,2.33-16.65,3.5-24.97.93-6.61,1.85-13.21,2.78-19.82.61-4.37,1.22-8.74,1.84-13.1.24-1.73.49-3.47.73-5.2,1.91-14.33,2.83-28.77,2.84-43.23,0-4.41,0-8.82.01-13.23,0-8.24.01-16.48.02-24.73,0-10,.02-20.01.02-30.01s.02-19.14.02-28.7c0-7.06.01-14.12.02-21.18,0-4.23,0-8.46.04-12.69.15-18.23,1.1-37.21,9.83-53.64,3.65-6.87,8.63-13.06,15-17.58.42-.3.23-.57-.18-.67-.51-.13-1.25.15-1.66.44h0Z"/>
    <path class="cls-34" d="M557.27,130.2c-.05.08-.09.15-.13.23.03-.11.08-.2.13-.23Z"/>
    <path class="cls-22" d="M554.42,242.1l-24.45,9.9-6.68-9.12c-17.72-23.86-26.13-66.38-26.13-66.38l29.72-10.16c2.28,15.38,35.88,68.85,35.88,68.85l11.23,44.44,17.37-34.26c7.65-6.64,7.44-5.45,8.91-10.76.33.06.68.73,1.01.77,1.38.15,3.9,2.6,5.27,2.81l14.01,17.29c-9.69,26.72-13.44,16.88-13.44,16.88l-12.8-15.27c-6.29,8.68-13.12,17.15-19,26.1-1.78,2.72-3.37,5.62-4.82,8.64l2.05-5.38c-.4-1.55-18.12-44.35-18.12-44.35Z"/>
    <path class="cls-32" d="M621.64,253.86c-2.1,5.76-4.4,11.89-8.17,16.81-.85,1.11-1.82,2.22-3.01,2.97-.63.39-1.33.62-1.8.62-.57,0-1.14-.29-1.41-.57-2.17-2.24-4.05-4.84-6.05-7.23-2.24-2.67-4.48-5.35-6.72-8.02-.35-.42-1.09-.11-1.35.25-6.32,8.71-13.07,17.11-19,26.1-.42.63,1.06.6,1.37.12,5.92-8.99,12.68-17.39,19-26.1l-1.35.25c2.05,2.45,4.11,4.9,6.16,7.35,1.46,1.75,2.93,3.5,4.39,5.24.73.87,1.42,1.84,2.22,2.65,2.35,2.39,5.96-.11,7.68-1.98,1.72-1.86,3.05-4.08,4.24-6.3,2.06-3.86,3.69-7.93,5.18-12.03.27-.75-1.17-.67-1.37-.12h0Z"/>
    <path class="cls-32" d="M573.97,286.85c-.46-1.66-1.37-3.29-2.06-4.86-1.52-3.46-3.07-6.92-4.62-10.37-3.42-7.63-6.86-15.25-10.31-22.86-.78-1.73-1.57-3.46-2.35-5.19-.18-.41-.69-.35-1.04-.21-7.14,2.89-14.28,5.78-21.42,8.67-1.01.41-2.02.82-3.03,1.23l.98.09c-2.23-3.04-4.45-6.08-6.68-9.11-4.51-6.14-8.12-12.87-11.21-19.82-5.51-12.35-9.57-25.36-12.75-38.49-.67-2.75-1.31-5.51-1.84-8.29-.12-.64-1.57-.27-1.45.39,1.5,7.89,3.62,15.71,5.97,23.39,4.37,14.31,9.84,28.81,18.36,41.22,2.65,3.86,5.51,7.58,8.27,11.35.22.29.7.2.98.09,7.14-2.89,14.28-5.78,21.42-8.67,1.01-.41,2.02-.82,3.03-1.23l-1.04-.21c2.14,4.71,4.27,9.42,6.39,14.13,3.48,7.71,6.97,15.43,10.39,23.17.85,1.93,1.99,3.94,2.56,5.98.18.64,1.63.25,1.45-.39h0Z"/>
    <path class="cls-28" d="M348.04,428.63c-17.65-3.47-27.81-12.04-45.41-8.3-7.5,1.59-16.28-9.03-23.33-5.92,6.28-26.95,46.84-98.27,46.84-98.27l98.57-106.4c.3,2.48.67,4.96,1.08,7.42,1.08,6.45,2.16,11.73,2.84,16.99.36,2.79.65,5.6.75,8.42.03.84-.34,7.64-.02,5.23-1.31,9.93,3.16,19.73,13.56,22.37-24.33,48.79-69.85,140.84-82.41,164.49-3.59-1.05-8.81-5.3-12.47-6.02Z"/>
    <path class="cls-28" d="M303.75,401.35c15.01-8.6,11.55,8.53,28.73,7.14,10.73-.87,18.5-11.98,29.15-10.1-1.16,2.87-1.29,15.73-1.29,15.73,0,0,111.15,105.35,125.88,129.89l-21.05,25.91c-10.32-10.02-121.14-59.22-121.14-59.22,0,0-87.67-43.19-64.18-98.45.84-.52,23.04-10.41,23.9-10.9Z"/>
    <path class="cls-22" d="M410.74,380.72l34.28-72.6,19.84-125.53s-66.12-5.83-94.8,28.88c-14.76,18.7-49.81,84.71-68.03,125.01,54.66,32.13,81.98,40.99,108.72,44.24Z"/>
    <path class="cls-32" d="M445.77,208.43c5.15,2.85,8.43,8.24,10.64,13.53,2.35,5.63,3.75,11.74,4.14,17.83.62,9.61-2.03,19.46-4.66,28.61-3.51,12.21-7.96,24.15-12.74,35.91-5.25,12.92-10.96,25.64-17.02,38.2-5.51,11.43-11.29,22.74-17.49,33.82-.67,1.19-1.34,2.38-2.02,3.57l.96-.4c-2.39.03-4.78-.02-7.17-.11-3.65-.14-7.52-.2-11.04-1.24-.48-.14-1.7.56-.88.81,2.78.82,5.78.98,8.66,1.15s5.65.24,8.48.24c.48,0,1.01.06,1.49,0,1.27-.17,1.88-2.18,2.44-3.18,1.64-2.92,3.26-5.87,4.84-8.82,7.34-13.69,14.18-27.66,20.58-41.82s12.59-28.96,17.76-43.87c4-11.51,7.87-23.49,9.1-35.68.63-6.24-.06-12.52-1.68-18.57-1.75-6.55-4.63-13.48-9.74-18.14-1.06-.97-2.23-1.82-3.5-2.52-.43-.24-1.76.38-1.15.71h0Z"/>
    <path class="cls-39" d="M367.55,421.31c-11.96-4.35-26.93-5.84-38.18,1.21-.81.51.41.76.89.46,10.62-6.66,24.92-5.06,36.18-.96.45.16,1.73-.49,1.12-.71h0Z"/>
    <path class="cls-32" d="M598.21,461.73c1.64-4.27,3.49-8.47,5.3-12.67,2.08-4.81,4.13-9.65,6.51-14.32,1.33-2.62,3.01-5.05,4.49-7.59,1.69-2.91,3.28-5.87,4.9-8.82,3.24-5.89,6.77-11.58,10.57-17.12,4.04-5.89,8.14-11.76,12.48-17.43.42-.54-1.05-.48-1.36-.07-7.97,10.4-15.61,21.27-22.03,32.71-1.58,2.82-3.1,5.68-4.69,8.5-1.69,2.99-3.62,5.85-5.26,8.86-2.37,4.37-4.28,9.03-6.27,13.59-2.09,4.81-4.22,9.62-6.1,14.52-.2.52,1.26.35,1.45-.16h0Z"/>
    <path class="cls-28" d="M638.89,1173.61c-1.17,5.07-1.61,7.92-2.83,12.76-1.41,5.58.93,9.88,6.94,12.4,5.06,2.12,11.88,3.25,17.43,3.1,7.24-.21,14.99-1.36,22.24-1.57,6.21-.18,31.51-1.37,37.57-.12,9.43,1.94,15.3.68,19.53-.73,1.17-.39,1.9-.31,2.46-1.19,1.45-2.29,1.34-4.86-1.73-6.9-3.87-2.57-8.66.73-12.26-2.27-.64-.53-1.23-1.13-1.98-1.52-1.46-.77-3.24-.64-4.91-.66-8.35-.11-13.4-3.76-24.27-6.87-3.19-.91-21.92-19.42-24.87-20.88"/>
    <path class="cls-28" d="M717.43,815.84c.03.37-.05.74-.22,1.08-1.48,2.84-8.85,14.63-9.76,26.24-.81,10.45-2.01,25.63-2.43,30.89-.1,1.24.96,2.31,2.24,2.21,1.78-.14,4.17-1.18,5.8-5.25,1.56-4.48,2.7-9.09,3.43-13.76.25-1.64,2.27-2.33,3.53-1.2h0c.5.45.74,1.11.66,1.77l-1.87,14.57c-.1.79-.66,1.45-1.43,1.69-2.86.91-9.76,3.49-11.96,7.91-.66,1.33.38,2.88,1.9,2.91l9.67.21c.13,0,.26,0,.39-.03l9.64-1.53c.38-.06.74-.22,1.03-.47l9.09-7.59c.28-.24.5-.55.62-.89l8.87-25.28c.81-2.3,1.02-4.76.58-7.16-1.28-6.86-2.19-13.78-2.73-20.73-.7-13.59-1.01-22.34-1.13-26.39-.04-1.34-1.36-2.28-2.68-1.93l-22.78,6.06c-.97.26-1.62,1.15-1.54,2.13l1.11,14.55Z"/>
    <path class="cls-28" d="M711.16,553.43c2.96,1.33,32.44,34.76,36.71,55.07,4.26,20.31.61,62.56,1.77,80.14,1.51,18.18,1.63,38.33,1.46,60.87-.04,5.88-.53,11.76-1.42,17.57l-7.36,47.75-19.08-5.69s-2.6-123.89-10.97-152.57c-8.37-28.68-1.11-103.14-1.11-103.14Z"/>
    <path class="cls-28" d="M641.72,1177.41s41.98,17.51,54.2,18.68c12.22,1.18,21.36,4.78,21.36,4.78,0,0-18.53-20.98-33.41-29.89-3.13-1.87,12.68-108.05,22.78-157.44,7.02-34.31,6.23-62.12,6.23-62.12l-56.71.46-2.55,52.93-11.51,8.41c-1.71,4.94-4.87,15.15-5.7,20.33-2.23,13.99-.8,32.79-.87,40.04-.12,12.27,2.6,29.16,2.68,33.48l7.83,53.52-4.34,16.81Z"/>
    <path class="cls-28" d="M579.24,1173.72s47.81,28.22,60.06,29.01c12.25.8,8.45-5.97,8.45-5.97,0,0-30.45-33.85-33.23-39.89-1.52-3.31,13.33-100.16,21.91-149.83,5.96-34.51,7.97-62.14,7.97-62.14l-56.67,2.21-8.92,50.37-7.23,1.89c-1.56,4.99-3.34,23.13-4,28.33-1.8,14.05-.51,36.13-.36,43.37.25,12.27,6.2,42.76,6.41,47.07l6.59,40.19-.98,15.39Z"/>
    <path class="cls-28" d="M579.85,1155.39c.4,5.28-1.47,12.76-2.78,23.85-.57,4.88-4.57,11.84.54,15.43,9.04,6.35,19.86,3.9,23.96,4.91,8.63,2.11,15.54,2.14,23.82,4.93,8.4,2.83,10.12,3.51,19.37,4.17,1.28.09,2.63.06,3.74-.51.75-.38,1.33-.98,2.08-1.35,2.65-1.33,5.94.49,8.95.13,1.33-.16,2.53-.75,3.77-1.21,3.27-1.22,6.83-1.59,10.28-2.29,3.45-.7,6.97-1.81,9.38-4.13,2.41-2.32,3.35-6.13,1.31-8.73-3.08-3.93-7.13-1.67-11.36-2.08-4.21-.4-5.8-1.09-9.51-2.82-9.48-4.42-10.94-5.32-18.94-8.78-6.21-2.69-24.45-11.29-33.18-17.36l.22-20.93"/>
    <path class="cls-12" d="M548.95,1012.06c-.18,2.3,35.55,9.99,38.24,10.38,18.66,2.76,41.61,2.01,59.68-2.53l2.79-15.05,12.61-152.07,18.98-76.56-125.69-11.73-9.55,25.49c-3.81,21.38-5.09,43.25-3.77,64.92l11.22,77.42s-3.63,69.01-4.52,79.72Z"/>
    <path class="cls-12" d="M681.27,1015.47c11.58-.27,26.64-1.39,35.51-9.09l16.66-205.06-62.49-24.46-29.85,236.17c12.78.95,27.3,2.74,40.18,2.44Z"/>
    <path class="cls-8" d="M649.41,1010.52l15.25-147.24s9.87-22.04,15.9-22.1"/>
    <path class="cls-28" d="M720.29,471.23c1.2-7.18,1.5-15.22.79-19.64.29-3.34.59-7.22.94-11.91.1-1.36.16-2.66.21-3.96-.04-.67-.02-1.33.06-2,.5-22.89-6.39-35.25-6.39-35.25-8.81-15.66-25.26-25.43-43.21-25.66-21.1-.71-40.81,11.07-51.42,23.42-5.27,6.11-8.11,13.96-7.96,22.04.11,6.9,1.29,14.71,2.74,22.27-7.34-.74-14.71,1.51-12.76,15.23,2.68,18.92,14.44,25.38,20.39,20.54,1.29.3,3.59,6.11,3.69,10.04.18,7.51-.84,20.78-4.87,27.12l.08,2.14c14.5,26.48,36.36,51.74,90.61,21.77l-28.41-20.66.32-5.74c2.05-.03,4.1-.57,6.15-.85,8.42-1.16,14.4-6.56,19.11-13.19,3.99-5.61,8.05-17.69,9.69-24.44.1-.42.19-.83.26-1.26Z"/>
    <path class="cls-39" d="M615.13,440.24c-3.41-.33-7.21-.09-10.14,1.89-3.7,2.51-4.35,7.2-4.08,11.34.37,5.73,1.97,11.72,5,16.64,1.94,3.15,4.66,6.11,8.2,7.42,2.96,1.1,6.33.7,8.83-1.28l-1.25.34c.79.27,1.29,1.57,1.61,2.25.59,1.28,1.05,2.63,1.39,3.99.65,2.6.62,5.22.54,7.88-.18,5.91-.77,11.99-2.55,17.66-.39,1.24-.84,2.46-1.41,3.63-.43.87-.9,1.4-.87,2.37.04,1.02.09,1.5.58,2.39s1,1.78,1.51,2.66c2.05,3.53,4.23,6.98,6.66,10.26,4.75,6.42,10.46,12.24,17.48,16.16,7.63,4.26,16.34,5.85,25.02,5.31,12.34-.77,24.26-5.3,35.19-10.83,1.8-.91,3.59-1.86,5.36-2.84.84-.46-.49-.4-.84-.21-14.75,8.12-32.18,15.52-49.41,12.85-11.67-1.81-21.37-8.58-28.79-17.54-3.67-4.44-6.8-9.3-9.66-14.29-.59-1.04-1.49-2.17-1.63-3.36-.06-.5-.15-1.26,0-1.72.26-.77.85-1.51,1.18-2.27,1.58-3.62,2.34-7.59,2.87-11.48.53-3.89.79-7.83.78-11.77,0-3.58-.69-7.59-2.72-10.63-.58-.86-1.24-1.37-2.26-.78-.87.5-1.53,1.04-2.56,1.2-2.27.35-4.61-.63-6.44-1.89-6.07-4.16-8.81-12.04-9.94-18.98-.62-3.81-1-8.24.93-11.76,1.35-2.46,3.74-3.76,6.48-4.05,1.33-.14,2.67-.09,4,.04.32.03,1.66-.53.94-.6h0Z"/>
    <path class="cls-40" d="M588.38,616.45c-5.42,20.6-38.33,29.72-39.24,32.38-.38,1.11-1.65,90.69-4.46,142.13,10.68,4.38,24.94,7.29,36.2,10.04,16.35,3.99,38.79,11.91,55.56,12.68,15.11.7,45.18,4.14,60.3,3.85,17.29-.33,21.28-3.68,38.46-9.81-1.76-36.27-.29-104.53.23-121.41.62-18.58,2.93-32.44,2.93-32.44,0,0,9.69,3.45,21.86-3.96-6.05-21.55-.74-89.25-34.25-111.41-4.74-3.13-32.5-16.84-40.31-20.89,1.67,3.3,1.67,8.44.98,10.68-1.99,6.44-2.07,8-7.53,10.76-4.82,2.44-12.84,4.39-18.07,2.68-26.83-8.77-33.24-20.11-38.47-31.11-12.3,5.71-20.67,9.53-32.38,13.66-43.77,15.42-38.27,79.44-38.27,79.44,7.14,5.11,36.47,12.75,36.47,12.75Z"/>
    <path class="cls-24" d="M684.97,511s-20.16.52-37.57-12.35c0,0,1.85,6.15,14.46,11.4,12.61,5.24,22.93,4.21,22.93,4.21l.17-3.26Z"/>
    <ellipse cx="712.64" cy="445.26" rx="4.5" ry="4.48" transform="translate(80.31 998.69) rotate(-73.19)"/>
    <path d="M718.14,441.8c-2.07-1.47-4.96-2.53-9.32-2.39-6.98.23-10.62,8.76-10.62,8.76,0,0,4.07-6.44,10.95-6.84,3.32-.19,8.63,2.05,11.08,3.47-.03-.67-.86-2.04-2.09-3Z"/>
    <path class="cls-39" d="M609.15,456.91c-.62-2.21-.97-5.32.52-7.31l-.96.39c.11,0-.16-.07,0,0,.21.09.09,0,.35.11.6.26,1.12.63,1.6,1.06,2.68,2.34,4.5,5.71,6.1,8.83l1.4-.47c-.76-.62-1.74-1.09-2.74-.96-1.26.17-1.95,1.14-2.1,2.34-.36,2.95,2.2,4.62,4.8,5.04.32.05.79-.03,1.02-.27.19-.2.2-.44-.13-.49-2.05-.33-4.03-1.45-4.26-3.69-.06-.61,0-1.5.4-2.01.15-.19.14-.16.44-.07.21.06.42.17.61.28.21.11.41.25.59.4.27.22,1.63-.02,1.4-.47-1.21-2.36-2.53-4.69-4.16-6.79-.84-1.08-1.78-2.12-2.92-2.89-.47-.32-1-.61-1.57-.7-.81-.12-1.27.32-1.6.99-1.08,2.2-.9,4.79-.26,7.09.13.48,1.58.09,1.45-.39h0Z"/>
    <ellipse cx="666" cy="443.16" rx="4.5" ry="4.48" transform="translate(49.18 952.55) rotate(-73.19)"/>
    <path d="M678.41,446.81s-6.24-9.47-13.92-9.28c-10.8.27-12.93,4.63-15.2,7.96,0,0,6.97-6.12,15.33-6.13,7.58,0,13.79,7.45,13.79,7.45Z"/>
    <path class="cls-20" d="M742.06,586.38c.12,6.34-.33,12.7-.73,19.02-.35,5.59-.76,11.18-1.21,16.76-.33,4.05-.89,8.07-1.22,12.13-.42,5.23-.75,10.51-.58,15.76.02.66.05,1.32.09,1.97.02.39-.05,1.49.19,1.81.05.07.17.09.23.15.31.26.84.38,1.22.51,6.8,2.28,14.65-.87,20.58-4.05.16-.09.28-.23.27-.41-.09-2.26-.18-4.51-.28-6.77-.02-.48-1.14-.1-1.31.07-2.65,2.68-6.8,4.1-10.41,4.71-2.52.42-5.55.89-8.08.25-.35-.09-.71-.2-.98-.45-.09-.08-.11-.28-.12-.15.03-.59-1.42-.31-1.45.18-.03.63.78.94,1.26,1.1,2.55.83,5.75.36,8.32,0,4.34-.59,9.44-2.18,12.62-5.4l-1.31.07c.09,2.26.18,4.51.28,6.77l.27-.41c-5.34,2.86-12.45,5.78-18.59,3.76-.28-.09-.96-.24-1.15-.48-.26-.33.12.5-.03-.41-.22-1.36-.18-2.82-.21-4.19-.09-5.26.26-10.54.7-15.78.31-3.62.82-7.23,1.11-10.85.42-5.25.81-10.51,1.14-15.77.43-6.74.92-13.53.79-20.29,0-.46-1.46-.18-1.45.39h0Z"/>
    <g>
      <path d="M717.74,401.73c-3.93-21.77-18.71-30.78-39.95-33.85-18.32-2.65-36.1-5.44-53.37,5.98-2.85,1.91-12.16,7.84-15.85,13.42-12.78,19.38-8.58,39.84-4.3,56.32.33-.13.67-.26,1-.38,1.96-.47,3.91-.41,5.84.16,1.39.25,2.72.97,3.96,1.6,1.24.63,2.38,1.66,3.34,2.59,2.1,2.03,3.16,4.55,4.04,7.26.03.12.02.23.05.35,1.77.7.79.08,2.53-1.02,1.62-1.02,1.54-4.52,1.95-6.31.83-3.65.41-7.41.47-11.12-.27-2.05-.58-4.09-.99-6.12-1.68-8.51,1.91-13.26,4.12-20.52,0,0,4.14-10.62,16.79-16.52,13.85-6.44,18.98,2.97,35.86,3.43,14.58.34,16.84-8.61,26.85-2,0,0,3.31,1.13,4.51,2.71,1.2,1.58,3.15,4.03,3.15,4.03Z"/>
      <path d="M718.05,401.65c-1-5.5-2.82-10.88-5.86-15.6-2.68-4.15-6.25-7.64-10.39-10.32-4.4-2.84-9.33-4.76-14.37-6.09-6.29-1.67-12.82-2.45-19.26-3.25-6.99-.86-14.08-1.39-21.11-.64-7.14.75-14.06,2.89-20.28,6.49-2.2,1.27-4.31,2.72-6.4,4.17-2.45,1.7-4.85,3.48-7.08,5.45s-4.3,4.25-5.92,6.87c-2.02,3.27-3.68,6.77-4.91,10.41-2.24,6.63-3,13.65-2.68,20.62.3,6.58,1.52,13.08,3.06,19.47.36,1.48.73,2.96,1.12,4.44.03.11.38,0,.42-.02,2.34-.89,4.55-.66,6.92-.07,1.84.45,3.78,1.49,5.26,2.68,1.43,1.15,2.7,2.48,3.64,4.07.43.74.8,1.51,1.13,2.31s.75,1.73.87,2.62l.02.02c.67.26,1.41.55,1.95-.08.75-.87,1.73-1.32,2.18-2.43s.57-2.35.72-3.53c.2-1.52.56-3,.68-4.54.13-1.82.08-3.64.04-5.46-.02-.94.04-1.91-.05-2.85-.09-.95-.26-1.9-.41-2.83-.29-1.83-.74-3.63-.9-5.48-.14-1.57-.1-3.14.13-4.7.42-2.86,1.47-5.57,2.51-8.25.56-1.44,1.11-2.87,1.59-4.34.12-.37.22-.73.37-1.08,1.2-2.72,2.97-5.23,4.93-7.45,3.78-4.29,8.69-7.8,14.11-9.7,2.38-.84,4.89-1.25,7.42-1.1,2.15.13,4.25.65,6.3,1.29,2.25.7,4.46,1.52,6.72,2.21,2.61.8,5.27,1.43,7.98,1.78,5.44.71,10.82.34,16-1.51,3.41-1.22,6.85-3.21,10.59-2.34,1.02.24,1.99.63,2.91,1.11.79.41,1.5.94,2.32,1.26,1.03.41,2.05.89,2.94,1.54,1.09.79,1.82,1.99,2.64,3.03.51.65,1.02,1.31,1.54,1.96.12.15.67-.11.63-.17-.66-.84-1.32-1.68-1.98-2.52-.87-1.11-1.6-2.15-2.82-2.9-.9-.55-1.87-.89-2.82-1.33-.5-.24-.97-.6-1.46-.87-.56-.31-1.15-.6-1.75-.84-1.83-.73-3.76-.94-5.7-.59s-3.8,1.18-5.64,1.9c-2.5.98-5.05,1.77-7.72,2.12-3.6.47-7.29.25-10.86-.36-2.92-.5-5.76-1.32-8.57-2.26-2.38-.8-4.75-1.67-7.2-2.24s-4.81-.74-7.24-.42c-2.99.39-5.84,1.48-8.5,2.86-5.05,2.62-9.47,6.42-12.75,11.08-.9,1.28-1.72,2.62-2.4,4.03-.7,1.45-1.09,3.04-1.66,4.55-1.15,3.02-2.45,6.02-2.98,9.23-.28,1.68-.35,3.38-.21,5.08.17,2.04.67,4.04.98,6.06.16,1.06.37,2.12.36,3.19s.03,2.14.05,3.21c.04,2.2.05,4.42-.36,6.59-.26,1.38-.4,2.77-.67,4.15-.13.66-.29,1.33-.61,1.92-.36.68-.97.94-1.5,1.46-.16.15-.35.33-.45.52-.14.25-.07,0,.08.1-.13-.09-.38-.07-.53-.15-.44-.23-.51-.88-.66-1.32s-.32-.88-.49-1.31c-.64-1.57-1.45-3.08-2.57-4.36-2.55-2.93-6.25-4.95-10.13-5.37-1.77-.19-3.47.06-5.12.69l.42-.02c-1.58-6.08-3-12.21-3.73-18.45-.79-6.73-.75-13.59.65-20.24.75-3.56,1.87-7.03,3.37-10.34,1.45-3.21,3.17-6.51,5.48-9.19,3.66-4.24,8.43-7.52,13.06-10.6,2.69-1.79,5.43-3.44,8.38-4.76,3.38-1.51,6.94-2.6,10.57-3.29,6.94-1.31,14.05-1.16,21.05-.48,3.62.35,7.23.85,10.84,1.36,3.08.44,6.16.87,9.2,1.53,5.19,1.11,10.3,2.74,14.99,5.26,4.3,2.31,8.17,5.4,11.21,9.23,3.25,4.11,5.45,8.93,6.81,13.97.38,1.42.7,2.85.96,4.3.02.13.66-.02.63-.17Z"/>
    </g>
    <g>
      <path class="cls-19" d="M692.34,471.47c-1.53.76-3.84.52-5.34-.46-.33-.22-1.47-.04-1,.27,1.98,1.3,5.3,1.49,7.28.51.2-.1.17-.25-.08-.33-.25-.09-.65-.08-.86.02"/>
      <path class="cls-19" d="M685.35,470.82c-1.01-.51-2.14-.79-3.28-.9-.17-.02-.38.04-.51.15-.1.08-.12.2,0,.27.52.32,1.18.46,1.8.46.19,0,.45-.04.56-.21.1-.15-.08-.26-.23-.26-.51,0-1.02-.12-1.45-.37-.17.14-.34.28-.51.42,1.02.1,2.03.36,2.93.82.18.09.44.04.61-.05.12-.07.26-.23.08-.33"/>
      <path class="cls-19" d="M680.83,470.86c-1.33-.06-2.88-.68-3.51-1.7-.95-1.54.04-4.07,1.73-5,.18-.1.09-.24-.09-.28-.24-.06-.52.03-.71.13-1.47.81-2.47,2.91-2.29,4.34.17,1.34,1.42,2.3,3.01,2.72.47.13.97.21,1.47.24.2,0,.57-.04.67-.2.1-.16-.08-.23-.27-.24"/>
      <path class="cls-19" d="M694.8,470.85c-.07-.16.07-.25.17-.25.36.02.73-.07,1.04-.32.11.15.23.29.34.44-.72.06-1.45.28-2.11.7-.13.08-.31.02-.43-.08-.08-.07-.17-.24-.04-.33"/>
      <path class="cls-19" d="M693.78,471.02c.73-.47,1.55-.7,2.36-.77.12,0,.27.06.35.17.07.09.08.2-.01.27"/>
      <path class="cls-19" d="M697.56,471.1c.87-.01,1.9-.57,2.35-1.57.68-1.5.13-3.32-.93-4.32-.11-.11-.05-.24.07-.28.16-.05.34.05.46.16.92.87,1.5,2.26,1.32,3.68-.17,1.33-1.02,2.24-2.07,2.6-.31.11-.64.18-.97.18-.13,0-.37-.06-.43-.22-.06-.16.06-.23.18-.23"/>
    </g>
    <g>
      <path class="cls-23" d="M621.98,510.57s14.49,30.64,43.91,30.01c29.42-.63,19.28-24.42,19.28-24.42l8.73,4.24s6.51,19.6-13.22,27.21c-19.73,7.61-38.81-1.14-52.18-14.02-13.36-12.88-14.59-19.47-14.59-19.47l8.08-3.55Z"/>
      <path class="cls-20" d="M621.32,510.9c1.67,3.52,3.94,6.82,6.32,9.89,5,6.47,11.19,12.13,18.51,15.85,8.84,4.5,19.72,5.96,29.33,3.2,6.24-1.79,11.16-6.13,11.98-12.78.45-3.64-.13-7.7-1.57-11.09l-1.14.71c2.55,1.24,5.1,2.47,7.64,3.71.18.09.84.54,1.06.51-.52.08-.22-.58-.21-.06,0,.56.32,1.25.43,1.81,1.21,6.08.35,12.77-3.59,17.73-3.32,4.18-8.27,6.52-13.3,7.95-6.12,1.74-12.55,1.98-18.8.81-12.4-2.34-23.02-9.8-31.67-18.7-3.65-3.75-7.18-7.79-9.82-12.33-.74-1.27-1.59-2.71-1.87-4.18l-.39.66c2.69-1.18,5.38-2.37,8.08-3.55.9-.4.11-1.27-.66-.93-2.69,1.18-5.38,2.37-8.08,3.55-.25.11-.45.38-.39.66.25,1.3.97,2.59,1.6,3.74,2.14,3.92,5.04,7.44,8.04,10.73,8.57,9.38,18.94,17.44,31.41,20.73,6.25,1.65,12.77,1.96,19.12.77,5.59-1.05,11.4-3.11,15.67-6.99,5.39-4.89,7.29-12.06,6.41-19.12-.13-1.06-.32-2.12-.59-3.16-.14-.55-.18-.85-.65-1.17-1.4-.93-3.18-1.54-4.69-2.28-1.31-.63-2.61-1.27-3.92-1.9-.37-.18-1.37.17-1.14.71,1.13,2.66,1.69,5.72,1.68,8.6,0,2.51-.5,5.03-1.74,7.23-1.56,2.79-4.21,4.71-7.14,5.88-4.6,1.84-9.93,2.2-14.83,1.86s-9.5-1.56-13.87-3.56c-7.4-3.4-13.7-8.9-18.78-15.21-2.7-3.35-5.27-7.01-7.12-10.92-.3-.63-1.66-.06-1.32.66Z"/>
    </g>
    <path class="cls-28" d="M573.16,735.49c6.35-7.92-4.75-17.88,4.65-20.94,5.06-1.65-.05-9.08,5.69-8.51l9.86-101.42-50.66-6.18s-19.35,96.71-10.44,129.84c.73,2.72,3.95,13.13,24.33,19.62,1.32-3.06,14.49-9.81,16.58-12.41Z"/>
    <path class="cls-28" d="M576.54,701.52c-2.89-.83-14.29,3.39-17.29,4.31-4.35,1.33-3.76,7.28-7.61,9.67-3.75,2.33,8.59,5.82,5.29,8.76-5.99,5.33-21.59,1.16-22.77,8.68,2.35,9.67,19.29,20.67,49.98,30.68,24.5,7.99,90.37,26.96,90.37,26.96l14.46-18.23-112.43-70.84Z"/>
    <path class="cls-40" d="M603.73,519.05s-52.59,12.78-62.06,48.19c-12.28,45.92-14.24,83.72-14.24,83.72,0,0,40.8,16.33,75.66,5.93,21.5-6.42,11.85-131.41,11.85-131.41"/>
    <path class="cls-20" d="M590.2,557.75c2.55.89,4.9,2.79,6.78,4.67,5.26,5.26,7.87,12.55,8.72,19.82.92,7.95.3,16.14-.31,24.08-.69,9.06-1.72,18.09-2.88,27.1-1.03,8-2.16,15.99-3.47,23.95l.59-.58c-3.9,1.31-8.13,1.89-12.2,2.33-11.06,1.2-22.29.55-33.23-1.39-9-1.59-17.8-4.1-26.36-7.3l.33.47c.31-4.3.62-8.59.94-12.89l-1.29.48c1.7,1.24,3.59,2.25,5.45,3.21,4.9,2.52,10.1,4.43,15.41,5.84,10.51,2.78,21.64,3.31,32.49,2.99,6.17-.18,12.98-.46,18.7-3.03.9-.4.11-1.27-.66-.93-4.98,2.23-10.9,2.53-16.27,2.76-4.32.19-8.65.17-12.97-.05-6.21-.32-12.3-.84-18.38-2.26-5.54-1.29-10.96-3.16-16.08-5.64-2.26-1.09-4.56-2.28-6.59-3.77-.39-.29-1.25-.07-1.29.48-.31,4.3-.62,8.59-.94,12.89-.02.22.13.4.33.47,13.9,5.2,28.54,8.59,43.39,9.26,8.46.38,17.05-.03,25.36-1.8,1.39-.3,2.8-.61,4.15-1.06.28-.09.54-.27.59-.58,2.67-16.18,4.83-32.51,6.18-48.85.67-8.06,1.28-16.26.67-24.35-.57-7.64-2.85-15.36-8-21.2-2.21-2.51-5.11-5.04-8.33-6.17-.67-.23-1.7.72-.82,1.03h0Z"/>
    <path class="cls-39" d="M583.88,704.82c-3.56-1.42-8.07-.28-11.44,1.11-4.97,2.05-9.13,5.69-11.67,10.44-.12.22,1.26.13,1.46-.25,2.29-4.3,5.96-7.73,10.42-9.7,2.98-1.31,6.85-2.28,10.01-1.01.33.13,1.67-.41,1.21-.59h0Z"/>
    <path d="M682.29,425.8c.01-.16-.58-.17-.57-.33-9.33-2.02-16.42-2.14-19.02-1.68-1.97.35-3.88,1.08-5.69,2.08,0,0-5,2.66-5.6,3.71-.61,1.05,3.05-.54,3.05-.54.78-.23,1.32-.5,2.12-.62,4.41-.69,8.62-1.94,13.06-1.41,3.8.42,8.94,2.48,12.59,3.79.11-1.71-.2-3.3.05-4.99Z"/>
    <path d="M723.23,431.97c.06-.21.11-.41.14-.63,0-.19-.01-.39-.03-.58-.08-.33-.18-.66-.31-.97-.07-.14-.17-.25-.25-.38-1.22-.85-2.51-1.52-3.85-1.93-2.14-.66-8.1-1.07-16.05.23,0,.16-.5.13-.5.29.1,1.7-.25,3.25-.27,4.96,3.14-1.03,7.58-2.68,10.8-2.82,3.51-.17,6.76,1.17,10.15,2.18.06-.12.12-.23.17-.34Z"/>
    <path class="cls-29" d="M676.9,481.19s5.92-.01,10.61.38c4.69.39,10.52,1.38,10.52,1.38,0,0,1.06-3.65-7.43-4.36-8.5-.71-13.69,2.6-13.69,2.6Z"/>
    <path class="cls-21" d="M630.74,193.76c-8.24-5.2-21.52-15.46-21.52-15.46,0,0-9.5,22.14,9.59,34.19,19.1,12.05,30.75-7.5,30.75-7.5,0,0-10.58-6.04-18.82-11.24Z"/>
    <path class="cls-18" d="M630.82,193.81c-3.92-2.47-18.54-11.81-18.54-11.81,0,0-3.16,13.94,11,22.88,15.36,9.69,23.36-1.01,23.36-1.01l-15.82-10.05Z"/>
    <path class="cls-26" d="M630.61,194.52c-3.92-2.47-15.41-10.66-15.41-10.66,0,0,1.54,7.07,13.29,14.48,11.75,7.41,18.15,5.53,18.15,5.53l-16.03-9.35Z"/>
    <path class="cls-21" d="M650.7,204.95c-.34-.36-1.45-.64-3.05-2.08-2.89-2.6-3.61-4.72-5.77-6.34-3.7-2.77-7.18-2.72-8.88-3.79-1.69-1.07-3.15-4.24-7.24-6.38-2.4-1.26-6.4-2.69-9.73-4.39-2-1.02-6.13-4.68-6.6-4.83-.65-.21-2.07,5.02,19.21,18.45,21.28,13.43,22.54,9.86,22.07,9.36Z"/>
    <path class="cls-13" d="M639.52,188.41l-2.06,4.27c-.31.66-.3,1.38.03,1.8,2.31,2.9,15.47,11.96,12.77,15.34-.38.47-1.26,2.84-1.19,2.87l1.06-.09c1.09.52,3.89-5.06,3.37-6.32-1.6-3.84-3.22-6.98-4.34-8.76-1.39-2.23-5.41-8.13-7.63-10-.58-.49-1.54-.05-2,.91Z"/>
    <path class="cls-13" d="M634.95,185.51l-3.04,3.63c-.47.55-1.23.75-1.91.49-4.63-1.81-23.97-14.35-25.63-10.24-.23.57-2.52,3.59-2.6,3.52l-.31-1.74c.22-3.3,3.41-6.76,5.09-6.53,5.13.71,9.55,1.66,12.19,2.42,3.3.95,12.27,3.85,15.77,5.86.92.53,1.13,1.77.44,2.58Z"/>
    <path class="cls-21" d="M686.38,479.09c-6.1-.55-15.91-2.11-15.91-2.11,0,0-2.34,16.78,14.59,18.03,14.15,1.04,15.89-15,15.89-15,0,0-8.47-.38-14.56-.92Z"/>
    <path class="cls-33" d="M686.86,479.15c-2.97-.27-14.04-1.37-14.04-1.37,0,0,1.68,10.12,12.44,11.08,11.66,1.04,14.27-7.95,14.27-7.95l-12.66-1.76Z"/>
    <path class="cls-26" d="M686.87,480.48c-2.97-.27-11.98-1.54-11.98-1.54,0,0,3.35,2.68,12.27,3.47,8.92.8,11.66-1.24,11.66-1.24l-11.94-.69Z"/>
    <path class="cls-21" d="M701.7,480c.03-.31-.6-.5-2.07-.75-2.44-.42-3.17-1.34-4.94-1.62-3.03-.49-5.06.45-6.38.33s-3.16-1.41-6.22-1.46c-1.8-.03-6.26.17-8.74.15-1.49-.01-3.17-.7-3.49-.66-.45.06.23,4.04,16.87,5.53,16.64,1.49,14.95-1.1,14.99-1.52Z"/>
    <path class="cls-36" d="M791.64,1069l.39.66-.39-.66Z"/>
    <path class="cls-30" d="M1073.58,1151.66c-5.24-14-11.51-27.59-18.76-40.67-7.28-12.42-17.86-24.68-32.11-26.26-10.82-.68-21.41,3.35-29.04,11.07-7.48,7.65-13.8,16.36-18.76,25.85-9.08,15.46-18.17,30.91-27.27,46.37l15.01,20.37c27.13,10.44,56.81,12.33,85.04,5.4,13.51-3.38,28.62-11.44,29.67-25.32.04-5.82-1.26-11.57-3.79-16.81Z"/>
    <path class="cls-15" d="M1052.42,1152.69c-3.67-1.37-7.52-2.69-11.48-1.84-1.48.32-2.95.88-4.18,1.79-1.41,1.04-2.14,2.37-2.82,3.95-.95,2.21-2.52,3.29-4.94,3.3-2.29,0-4.51-.74-6.78-.88-3.52-.22-6.94,1.02-9.71,3.15-3.67,2.82-5.95,6.94-8.13,10.93-.19.34,1.57.21,1.84-.3,1.83-3.35,3.7-6.78,6.5-9.44,1.33-1.26,2.89-2.34,4.62-2.98,1.98-.73,4.01-.57,6.06-.22,3.11.52,6.31,1.07,9.27-.39,1.23-.6,2.16-1.5,2.78-2.72.8-1.59,1.27-3.16,2.77-4.27,3.75-2.76,8.83-.74,12.69.7.46.17,2.14-.55,1.51-.78h0Z"/>
    <path class="cls-15" d="M1026.2,1128.24c.89-2.79.12-6.02-2.04-8.04s-5.19-2.45-7.91-1.71c-1.38.37-2.6,1.07-3.66,2.02-.64.58-1.31,1.52-2.22,1.44s-1.66-.94-2.36-1.47c-2.66-2-5.7-3.87-9.16-3.74-2.97.11-5.99,1.55-7.14,4.42-.26.64,1.61.43,1.87-.21,1.57-3.93,6.38-3.44,9.45-1.83,1.69.89,3.15,2.08,4.68,3.21,1.18.87,2.47,1.12,3.83.51,1.45-.64,2.33-2.05,3.69-2.82,1.59-.9,3.57-.96,5.25-.3,3.39,1.34,4.91,5.38,3.84,8.74-.22.69,1.65.45,1.87-.21h0Z"/>
    <path class="cls-30" d="M926.4,1172.86c2.27-2.97,4.61-6,7.76-8.01,3.15-2.01,7.34-2.81,10.65-1.06,1.65.87,2.98,2.32,4.73,2.96,2.64.97,5.53-.08,8.26-.78,2.72-.71,6.06-.88,7.9,1.25,1.08,1.26,1.34,3.01,1.46,4.67.17,2.39-.02,5.13-1.87,6.64-1.69,1.38-4.16,1.21-6.28.67s-4.25-1.38-6.42-1.08c-3.54.48-5.99,3.78-9.26,5.23-5.19,2.3-12.07-1.4-13.02-7"/>
    <g>
      <path class="cls-27" d="M928.38,839.43l-22.43,20.59-117.2,6.03-54.88,40.63,173.57-30.28,28.9,10.7s12.1-25.7-7.97-47.68Z"/>
      <g>
        <path class="cls-31" d="M780.92,746.59c-.74.56.62-.7,0,0h0Z"/>
        <path class="cls-27" d="M670.53,867.06s0,.02,0,.03c0,.02.01.05.02.07.45,1.68,7.42,26.47,35.21,49.22,23.71,19.42,57.01,28.16,68.01,30.64,5.87,3.43,8.01-1.48,11.94-8.35l75.46-132.21c1.66-2.34-40.68-13.61-46.61-17.87l-22.73-27.52c-5.08-3.65-2.09-13.15-7.07-9.37l-3.83-5.12-13.93,15.07c-1.34-1.29-2.69-2.6-4.03-3.91-11.44-11.17-23.26-22.72-36.08-22.42-6.06.15-11.64,2.9-16.58,8.21-15.1,16.21-37.27,79.14-22.47,103.73l-11.59,12.53c-3.48,3.92-5.96,5.47-5.7,7.26,0,0,0,0,0,0ZM696.21,838.2c-7.07-19.53,8.6-71.78,22.56-86.77,2.78-2.98,5.52-4.46,8.38-4.52,7.94-.19,17.99,9.63,27.7,19.12,1.42,1.39,2.84,2.77,4.26,4.13l-62.91,68.03Z"/>
      </g>
      <path class="cls-37" d="M861.16,806.46s-32.49-5.77-54.22-23.3c-21.74-17.52-26.58-36.71-26.58-36.71,0,0,28.77,6.96,47.85,20.64,19.08,13.69,29.14,31.32,32.95,39.37Z"/>
    </g>
    <path class="cls-28" d="M667.48,760.53s12.3,4.37,14.07,4.2c1.77-.17,24.01-5.94,25.74-5.37,1.74.57,16.43,7.25,16.43,7.25l1.62,8.81s5.41,7.73,4.78,10.46c-.64,2.73-4.4,3.58-6.14,2.98-1.23-.33-2.51-.34-3.75-.03.48,1.62.32,3.36-.46,4.86-1.32,1.68-5.79.74-5.79.74-.34,1.75-1.01,3.42-1.96,4.92-1.34,1.68-4.29,1.05-4.29,1.05,0,0,0,5.49-1.31,6.71-1.32,1.23-13.48-1.45-17.03-4.86-2.86.4-5.77-.26-8.18-1.85-3.88-2.68-26.13-16.16-26.13-16.16l7.71-17.83"/>
    <path class="cls-37" d="M928.38,839.43s-4.22,29.06,7.97,47.68c12.19,18.62,0,0,0,0,0,0,13.7-26.75-7.97-47.68"/>
    <g>
      <path class="cls-2" d="M943.46,871.91s.89.2,2.51.67"/>
      <path class="cls-5" d="M950.99,874.2c27.63,9.67,120.84,53.98,99.91,207.21"/>
      <path class="cls-2" d="M1050.53,1084.03c-.12.85-.25,1.71-.38,2.57"/>
    </g>
    <g>
      <path class="cls-2" d="M936.6,871.7s.85.33,2.38,1.03"/>
      <path class="cls-5" d="M943.72,875.04c25.96,13.53,111.86,70.74,69.18,219.39"/>
      <path class="cls-2" d="M1012.15,1096.98c-.24.83-.49,1.66-.74,2.49"/>
    </g>
    <g>
      <path class="cls-2" d="M936.94,867.23s.91.03,2.59.2"/>
      <path class="cls-4" d="M944.7,868.08c30.46,4.58,140.27,33.45,142.38,211.92"/>
      <path class="cls-2" d="M1087.1,1082.62c0,.86,0,1.73,0,2.6"/>
    </g>
    <g>
      <path class="cls-2" d="M938.09,864.4s.9-.08,2.59-.12"/>
      <path class="cls-11" d="M945.85,864.31c31.34.98,148.85,17.91,188.06,213.4"/>
      <path class="cls-2" d="M1134.42,1080.26c.17.85.33,1.7.49,2.55"/>
    </g>
    <g>
      <path class="cls-2" d="M929.84,863.54s.87-.26,2.52-.64"/>
      <path class="cls-6" d="M937.45,861.87c33.91-6.03,172.26-15.35,233.03,216.6"/>
    </g>
    <g>
      <path class="cls-2" d="M941.84,870.76s.86.29,2.43.92"/>
      <path class="cls-9" d="M949,873.71c27.45,12.52,122.39,67.65,82.75,218.15"/>
      <path class="cls-2" d="M1031.09,1094.37c-.23.83-.46,1.67-.69,2.51"/>
    </g>
    <g>
      <path class="cls-2" d="M935.05,869.71s.8.43,2.24,1.31"/>
      <path class="cls-5" d="M941.7,873.9c24.11,16.59,102.38,83.87,41.87,226.2"/>
      <path class="cls-2" d="M982.52,1102.54c-.34.79-.69,1.59-1.04,2.38"/>
    </g>
    <g>
      <path class="cls-2" d="M935.93,865.32s.9.14,2.55.48"/>
      <path class="cls-10" d="M943.5,866.96c30.95,7.91,145.32,49.43,125.62,227.9"/>
      <path class="cls-2" d="M1068.83,1097.44c-.1.86-.2,1.72-.31,2.58"/>
    </g>
    <g>
      <path class="cls-2" d="M937.42,862.65s.91.03,2.59.19"/>
      <path class="cls-3" d="M945.24,863.46c32.28,4.64,154.15,35.32,169.37,234.77"/>
      <path class="cls-2" d="M1114.81,1100.88c.06.86.12,1.73.18,2.59"/>
    </g>
    <g>
      <path class="cls-2" d="M929.34,860.8s.9-.14,2.58-.31"/>
      <path class="cls-7" d="M937.07,860.09c35.52-1.94,182.8,4.74,215.03,243.44"/>
      <path class="cls-2" d="M1152.44,1106.09c.11.86.22,1.72.33,2.58"/>
    </g>
    <path class="cls-28" d="M586.78,589.81c-10.1-.39-23.68-1.14-24.97-2.38-1.29-1.25-11.15-8.27-19.8-14.39-4.54-2.92-6.16-8.81-3.62-13.16.66-1.13,24.73,7.21,27.21-3.66l-19.04-11.19c-6.61-2.77-13.48-4.7-20.44-5.75-8.69-.78-33.23,5.21-33.23,5.21l-23.96-14.78-16.74,35.78,22.69,16.91,19.65,19.99s42.81,28.5,50,28.32c7.19-.18,19.99-8.79,19.99-8.79,9.55,1.36,16.52-9.3,16.52-9.3,16.05-2.91,8.12-10.54,8.12-10.54.58.04,1.14-.1,1.62-.38,5.26-2.98,2.04-11.7-3.99-11.88Z"/>
    <path class="cls-39" d="M542.69,595c6.09,5.32,13.56,9.78,21.67,10.87,4.27.57,8.64.47,12.87-.33s8.35-1.8,12.05-3.81c.89-.48.08-1.1-.62-.72-3.46,1.88-7.37,2.83-11.21,3.59-4.12.81-8.38.9-12.54.33-7.77-1.05-15.03-5.45-20.86-10.54-.44-.38-1.83.21-1.37.61h0Z"/>
    <path class="cls-39" d="M536.7,604.71c6.05,4.92,12.37,9.95,20.45,10.52,4.98.35,9.97-.29,14.93-.73,3.12-.27,6.14-.44,9.16-1.4.89-.28.66-1.2-.25-.92-4.42,1.4-9.35,1.38-13.96,1.78-2.4.21-4.78.43-7.2.37-2.1-.05-4.23-.17-6.26-.76-1.79-.53-3.53-1.24-5.18-2.12-3.84-2.04-7.19-4.84-10.55-7.56-.46-.37-1.79.29-1.16.81h0Z"/>
    <path class="cls-39" d="M532.07,615.92c2.61,1.82,5.31,3.52,8.03,5.18,1.66,1.02,3.32,2.08,5.04,2.99,1.53.82,3.12,1.11,4.83,1.2,3.68.19,7.46-.09,11-1.13.81-.24,4.67-1.19,4.39-2.59-.14-.71-1.63-.33-1.48.4-.07-.36.09-.25-.38.03-.39.23-.82.41-1.24.57-1.36.54-2.81.9-4.25,1.16-3.15.57-7.11.99-10.22.08-1.58-.46-2.99-1.45-4.39-2.29-1.29-.77-2.57-1.55-3.84-2.34-2.15-1.34-4.27-2.7-6.35-4.14-.56-.39-1.84.38-1.14.88h0Z"/>
  </g>
</svg>