<?xml version="1.0" encoding="UTF-8"?>
<svg xmlns="http://www.w3.org/2000/svg" xmlns:xlink="http://www.w3.org/1999/xlink" viewBox="0 0 1163.19 1161.11">
  <defs>
    <style>
      .cls-1, .cls-2 {
        fill: none;
      }

      .cls-3 {
        fill: #131429;
      }

      .cls-4 {
        fill: #205f30;
      }

      .cls-5 {
        fill: #072b3a;
      }

      .cls-2 {
        stroke: #4f2e25;
        stroke-miterlimit: 10;
        stroke-width: .75px;
      }

      .cls-6 {
        fill: #acabab;
      }

      .cls-7 {
        fill: #151312;
      }

      .cls-8 {
        fill: #273339;
      }

      .cls-9 {
        fill: #3e525a;
      }

      .cls-10 {
        fill: #010101;
      }

      .cls-11 {
        fill: #727272;
      }

      .cls-12 {
        fill: #11394c;
      }

      .cls-13 {
        fill: #653c29;
      }

      .cls-14 {
        fill: #27153c;
      }

      .cls-15 {
        fill: #331d17;
      }

      .cls-16 {
        fill: #b7c8ce;
      }

      .cls-17 {
        fill: #f1eef7;
      }

      .cls-18 {
        fill: #643c2a;
      }

      .cls-19 {
        fill: #2c2f30;
      }

      .cls-20 {
        fill: #a66e53;
      }

      .cls-21 {
        fill: #0a2f44;
      }

      .cls-22 {
        clip-path: url(#clippath-1);
      }

      .cls-23 {
        fill: url(#linear-gradient);
        opacity: .5;
      }

      .cls-24 {
        fill: #080707;
      }

      .cls-25 {
        fill: #2e8942;
      }

      .cls-26 {
        fill: #fff;
      }

      .cls-27 {
        fill: #513835;
      }

      .cls-28 {
        fill: #f2ebd1;
      }

      .cls-29 {
        fill: #975449;
      }

      .cls-30 {
        fill: #38211a;
      }

      .cls-31 {
        clip-path: url(#clippath);
      }

      .cls-32 {
        fill: #8d372d;
      }

      .cls-33 {
        fill: #4f2e25;
      }

      .cls-34 {
        fill: #89ad96;
      }
    </style>
    <clipPath id="clippath">
      <circle class="cls-1" cx="582.39" cy="-944.45" r="581.59"/>
    </clipPath>
    <clipPath id="clippath-1">
      <ellipse class="cls-1" cx="581.59" cy="580.55" rx="581.59" ry="580.55"/>
    </clipPath>
    <linearGradient id="linear-gradient" x1="1236.93" y1="762.01" x2="2803.41" y2="762.01" gradientTransform="translate(-123.29 -1597.75) rotate(90) scale(1 -1)" gradientUnits="userSpaceOnUse">
      <stop offset="0" stop-color="#f0ebe0"/>
      <stop offset=".18" stop-color="#eee8dd" stop-opacity=".99"/>
      <stop offset=".33" stop-color="#e8e1d4" stop-opacity=".97"/>
      <stop offset=".46" stop-color="#ded4c5" stop-opacity=".93"/>
      <stop offset=".59" stop-color="#d0c2b0" stop-opacity=".88"/>
      <stop offset=".72" stop-color="#bdab95" stop-opacity=".82"/>
      <stop offset=".84" stop-color="#a78e73" stop-opacity=".73"/>
      <stop offset=".96" stop-color="#8d6d4d" stop-opacity=".64"/>
      <stop offset="1" stop-color="#83603d" stop-opacity=".6"/>
    </linearGradient>
  </defs>
  <g id="Layer_2" data-name="Layer 2">
    <g class="cls-31">
      <path class="cls-21" d="M213.28,120.27s-12.41,8.91,19.79,12.04c17.94,1.74,58.65,3.31,76.65,3.28,17.79-.02,18.12,1.1,35.55-2.92,5.52-1.27,2.58-2.01,8.04-3.49l13.13-235.1,5.9-261.77,38.34-133.18-255.63-6.37-5.91,18.46c-4.96,37.03-4.71,74.62.73,111.58l43.98,165.75s19.84,313.29,19.43,331.71Z"/>
      <path class="cls-21" d="M412.74,118.03c23.38-1.72,36.4,3.77,53.34-10.38l37.48-579.82-129.5-35.06-40.31,614.57c25.96.24,53,12.6,78.99,10.68Z"/>
      <path class="cls-11" d="M1053.96,452.3c13.98-6.06,22.66-48.57,20.92-63.7-6.49-56.35-10.64-154.28-12.97-321.55-1.17-84.35,4.21-208.74,26.82-284.12,21.92-73.09,56.85-130.6,59.58-202.85,5.51-146.38-28.24-190.54-69.99-249.94l-415.9,32.48-6.36,66.74c-1.75,33.74-.11,121.34,16.1,227.06,12.4,80.91,38.9,302.99,44.54,390.02l52.22,379.11c1.58,10.98,11.8,28.56,22.65,30.84,24.77,5.21,82.99,1.63,107.1-9.11,1.93-.86-3.99,18.3,19.4,19.78,39.09,2.48,71.78,13.05,135.89-14.75Z"/>
    </g>
  </g>
  <g id="Layer_3" data-name="Layer 3">
    <g class="cls-22">
      <polyline class="cls-28" points="1453.39 1532.14 1453.39 -67.65 -158.36 -67.65 -158.36 1532.14"/>
      <polyline class="cls-23" points="1444.77 1200.49 -167.33 1200.49 -167.33 -365.99 1444.76 -365.99"/>
      <path class="cls-20" d="M558.96,739.14c-1.77-3.24-5.47-13.4-6.99-16.76-1.12-2.48.02-20.48,1.46-24.03,2.16-5.33,11.07-13.47,12.25-14.41,17.29-13.87,28.42,4.67,50.25,1.24,15.08-2.37,29.89-8.92,44.68-4.42-1.57,2.56-1,10.47-1,10.47l154.83,242.46s-45.58,32.95-45.58,32.95c-37.83-33.26-86.4-85-121.45-121.19-17.66-18.23-19.33-5.88-35.52-25.43-11.03-13.32-31.68-39.42-41.43-54.07-3.02-4.54-8.89-22.02-11.51-26.81Z"/>
      <path class="cls-20" d="M657.38,462.05c-15.66-1.43-31.31-2.93-47-3.88-15.96-.97-32.03-1.48-48.01-.39-5.62,71.98-6.23,181.38-6.23,181.38.23,10.03-1.09,37.1-.57,59.04.3,12.47,6.95,41.66,18.07,54.67,4.65-10.31,6.07-32.08,13.36-40.53,14.69-17.04,35.63-.65,56.95-8.19,6.09-2.15,9.24-12.11,15.66-12.92,3.51-28.61,16.59-149.28,16.6-227.62-6.28-.48-12.56-.98-18.83-1.55Z"/>
      <path class="cls-20" d="M612.59,776.73s-22.91,3.79-45.04-32.87c-18.39-30.45-1.82-105.97,19.21-125.85,21.03-19.88,73.63,86.14,73.63,86.14l-47.8,72.58Z"/>
      <path class="cls-20" d="M600.84,895.79c38.42-11.49,90.25-42.89,118.26-66.01l39.54-82.11c-25.06-39.62-64.62,9.6-64.62,9.6-10.73,11.27-88.03,58.32-112.07,73.19,13.52,19.36,17.9,41.73,18.9,65.33Z"/>
      <path class="cls-20" d="M650.87,874.32s-50.59,36.18-75.96,35.48c-16.56-.46-27.15-13.93-33.82-22.81-18.5-24.63,11.67-49.48,11.67-49.48l54.48-11.1,43.63,47.91Z"/>
      <path class="cls-20" d="M588.18,866.34c2.1-11.73-4.38-23.81-6.23-35.88l-126.62-92-19.87,28.66s71.71,107.84,121.38,136.77c2.14,1.25,11.01-3.85,14.52-2.99,5.5-12.42,14.44-21.26,16.83-34.55Z"/>
      <path class="cls-20" d="M535.23,179.18s-18.47,41.15-49.58,60.25c-4.99,3.06-52.71,3.3-52.71,3.3l-2.96,144.1c19.93,21.55,72.08,26.72,100.56,33.97l82.93-29s-23.97-46.65-21.35-53.03c2.62-6.38,33.11-45.73,33.11-45.73"/>
      <path class="cls-2" d="M550.46,154.15c3.35-27.26-3.2-31.27-3.2-31.27,0,0-7.42,2.46-11.1,13.88"/>
      <path class="cls-2" d="M545.87,154.14c-5.61-4.04-7.46,9.64-10.62,11.28-3.16,1.64-1.32-6.52,2.79-15.27,0,0,6.54-11.24,13.37-10.02"/>
      <path class="cls-16" d="M538.83,588.35c10.8,4.4,21.7,8.52,32.68,12.42,1.27-.45-19.26,58.93-17.42,59.81,17.56,8.38,80.22,16.31,121.53-2.56,6.76-76.06,7.39-155.69,11.43-185.58,6.69-49.5-74.97-132.96-80.97-138.53,0,0-61.19,165.46-65,237.4-.26,4.9-1.05,10.64-2.26,17.03Z"/>
      <path class="cls-9" d="M130.23,719.73l-35.14,75.62c-26.36,90.53,10.66,204.72,29.97,256.23l42.1,218.11s.77,111.74-10.46,190.36c-9.78,68.16,18.55,190.04,18.55,190.04l35.87,11.83c26.96,3.75,54.5,4.24,81.7,1.47l52.35-13.65,50.99-403.19,37.87-263.7,53.86-148.78-357.65-114.35Z"/>
      <path class="cls-9" d="M518.7,819.75l-23.76,415.4c-2.46,47.88-14.17,79.01-24.27,170.81l-19.39,156.43-6.86,67.99-16.93,2.5c-23.25,3.96-37.01,5.29-60.72,4.18l-51.92-1.11,49.55-801.09,154.3-15.11Z"/>
      <path class="cls-16" d="M568.21,720.63h0c.04-.68.72-1.18.4-1.32l85.33-203.28,27.84-67.37s-3.1-9.23-6.2-18.94c-4.9-15.35-14.7-24.3-24.06-37.42l-40.45-46.94s-4.07-.97-24.32,16.55c-8.67,7.5-15.37,42.33-29.22,37.49,0,0,4.27-30.7-20.19-66.97,0,0-66.1-76.41-63.85-90.09-32.21-4.01-135.69,4.61-163.51,13.34-32.7,10.16,8.02,90.37,24.32,138.23l-44.99-14.51s-63.72,124.52-101.25,189.88c-1.43,2.31-2.87,4.83-4.33,7.48-4.55,7.77-8.6,14.45-11.97,19.62.6.27,1.21.53,1.82.8-22.34,48.84-59.95,132.85-66.27,156.08-7.94,29.2,46.22,70.99,125.67,99.88,78.03,28.38,256.84,93.46,299.36-10.43l4.1-11.26c17.18-44.63,6.77-50.82,31.79-110.82Z"/>
      <path class="cls-3" d="M666.37,497.23c-8.42,11.86-15.26,24.75-21.13,38.04-5.9,13.36-10.87,27.12-15.75,40.88-4.93,13.91-9.78,27.87-15.41,41.52-3.49,8.46-7.4,16.73-11.28,25.01-3.68,7.86-7.3,15.76-11.22,23.5-.23.45-.46.9-.7,1.35-.36.67,1.1.59,1.37.1,3.74-6.97,6.95-14.27,10.32-21.42,3.64-7.75,7.35-15.48,10.74-23.34,5.76-13.37,10.65-27.09,15.51-40.8,4.94-13.97,9.85-27.96,15.62-41.62s12.14-26.44,20.18-38.55c1.02-1.53,2.06-3.05,3.13-4.55.42-.59-1.05-.55-1.37-.1h0Z"/>
      <path class="cls-19" d="M442.37,947.98c-21.07,12.95-33.29,35.59-37.77,59.4-2.73,14.5-2.96,29.31-2.92,44.01,0,2.43.04,4.84-.07,7.26l-.87,18.16c-.52,10.88-1.04,21.77-1.56,32.65l-2,41.86c-.73,15.27-1.46,30.53-2.19,45.8s-1.42,29.64-2.13,44.46l-1.81,37.84-1.24,25.95c-.14,2.95-.16,5.93-.43,8.88s-.77,6.14-1.16,9.2c-.97,7.67-1.93,15.34-2.9,23.01-1.41,11.21-2.82,22.43-4.23,33.64-1.72,13.64-3.43,27.29-5.15,40.93-1.88,14.97-3.77,29.94-5.65,44.91-1.91,15.2-3.83,30.4-5.74,45.6-1.8,14.33-3.61,28.66-5.41,42.99-1.56,12.36-3.11,24.72-4.67,37.07-1.17,9.29-2.34,18.57-3.51,27.86-.64,5.12-1.29,10.23-1.93,15.35-.08.65-.16,1.3-.25,1.95-.08.61,1.39.36,1.45-.17.34-2.72.68-5.43,1.03-8.15.93-7.42,1.87-14.84,2.8-22.25,1.38-10.95,2.76-21.9,4.14-32.85,1.7-13.51,3.4-27.02,5.1-40.52,1.87-14.87,3.74-29.75,5.62-44.62,1.91-15.18,3.82-30.36,5.73-45.54,1.82-14.43,3.63-28.87,5.45-43.3,1.57-12.49,3.14-24.97,4.71-37.46,1.21-9.58,2.41-19.15,3.62-28.73.69-5.49,1.38-10.99,2.07-16.48.2-1.56.35-3.07.43-4.64.29-6.02.58-12.05.86-18.07.52-10.83,1.04-21.66,1.55-32.48.67-13.9,1.33-27.79,2-41.69.73-15.26,1.46-30.52,2.19-45.78.71-14.76,1.41-29.52,2.12-44.27.61-12.66,1.21-25.33,1.82-37.99.42-8.73.84-17.46,1.25-26.18.21-4.48.43-8.92.42-13.4-.1-27.02,1-55.21,15.59-78.87,6.19-10.03,14.49-18.67,24.56-24.85.83-.51-.41-.79-.91-.48h0Z"/>
      <path class="cls-16" d="M560.15,404.79c-.72-2.25-32.78-63.38-32.78-63.38l-37.27,12.56-10.94-13.52c-29.02-35.41-42.69-100.36-42.69-100.36l51.77-13.2c-4.46,49.38,51.61,105.18,51.61,105.18l21.76,64.02,31.74-60.71c3.51-8.58,6.11-14.23,6.11-14.23l11.64,4.46,19.03,27.58c-13.29,37.68-19.11,35.17-19.11,35.17l-20.83-22.77c-9.19,12.03-12.91,28.43-21.44,40.88-15.6,22.75-26.63,50.32-36.39,76.37"/>
      <path class="cls-3" d="M628.5,355.44c-3.04,8.6-6.23,17.43-10.97,25.27-1.01,1.68-2.12,3.35-3.51,4.74-.4.4-.82.77-1.29,1.07-.27.17-.59.32-.81.37s-.44.05-.66-.07c-.17-.09-.16-.11-.12-.07-.11-.1-.21-.22-.3-.33-3.43-3.81-6.92-7.56-10.37-11.34-3.39-3.7-6.77-7.41-10.16-11.11-.29-.32-1.01-.2-1.26.13-10.14,13.24-21.85,25.74-29.58,40.64-.36.69,1.11.63,1.37.12,7.68-14.82,19.32-27.23,29.4-40.4l-1.26.13c6.8,7.43,13.59,14.86,20.39,22.29,2.86,3.12,6.69-1.78,8.23-4,2.07-2.99,3.71-6.27,5.23-9.56,2.67-5.78,4.93-11.75,7.05-17.75.26-.75-1.18-.66-1.37-.12h0Z"/>
      <path class="cls-3" d="M560.32,403.29c-.82-2.47-2.36-4.85-3.53-7.15-2.6-5.1-5.23-10.18-7.87-15.26-5.78-11.15-11.6-22.29-17.42-33.42-1.32-2.52-2.64-5.04-3.96-7.55-.14-.27-.79-.05-.98.01-10.88,3.67-21.76,7.33-32.64,11-1.54.52-3.09,1.04-4.63,1.56.31-.02.62-.05.94-.07-3.59-4.43-7.17-8.87-10.76-13.3-6.82-8.4-12.56-17.57-17.56-27.16-9.12-17.52-16-36.24-21.32-55.24-1.09-3.9-2.15-7.82-3.01-11.78-.07-.34-1.53.02-1.45.39,2.45,11.29,5.97,22.42,9.84,33.29,7.49,21.07,17.02,42.13,31.07,59.69,3.91,4.89,7.88,9.74,11.83,14.61.16.2.78-.01.94-.07,10.88-3.67,21.76-7.33,32.64-11,1.54-.52,3.09-1.04,4.63-1.56h-.98c3.64,6.94,7.26,13.88,10.88,20.82,5.89,11.27,11.77,22.55,17.57,33.87,1.01,1.98,2.03,3.96,3.02,5.95.45.89.99,1.8,1.31,2.75.12.36,1.56-.06,1.45-.39h0Z"/>
      <path class="cls-5" d="M883.62,1453.25c.04,3.42-53.55,11.4-57.57,11.74-27.88,2.32-54.57-.94-80.89-9.35l-2.71-22.5-32.15-225.84-.23-114.9,187.11-5.49,4.33,38.09c3.63,31.95,3.45,64.37-.54,96.26l-16.51,113.79s-1.13,102.3-.83,118.2Z"/>
      <path class="cls-5" d="M682.21,1438.43c-17.12-1.49-39.29-4.56-51.69-16.77l-5.31-304.51,94.79-30.25,21.9,351.7c-19,.2-40.66,1.48-59.69-.17Z"/>
      <path class="cls-20" d="M752.69,622.02c2.66-10.45,7.07-21.5,10.67-27.07,1.61-4.7,3.51-10.14,5.84-16.69.68-1.9,1.38-3.7,2.08-5.49.45-.88.82-1.8,1.11-2.74,13.02-31.3,29.76-43.93,29.76-43.93,21.33-15.95,49.5-19.36,73.98-8.96,29.05,11.63,48.75,39.36,55.77,62.43,3.5,11.43,2.65,23.76-2.38,34.6-4.28,9.28-10.55,19.15-17.04,28.53,10.41,3.39,19.05,10.83,8.21,28.25-14.95,24.03-34.77,25.76-39.96,15.65-1.94-.36-8.53,6.13-11.01,11.39-4.74,10.07-11.29,28.65-9.61,39.65l-1.39,2.85c-35.51,27.21-81.03,55.09-136.71-17.9l50.07-14.13,4.59-11.58c-2.76-1.26-5.22-3.22-7.83-4.82-10.73-6.6-15.61-17.49-18.03-29.28-2.05-9.99-.34-28.77,1.48-38.89.11-.62.24-1.24.4-1.86Z"/>
      <path class="cls-34" d="M885.13,877.55c2.62,31.43,19.54,45.92,20.19,50.03.28,1.72-4.5,146.12,1.39,213.25-16.72,3.64-40.95,6.57-58.09,7.68-24.91,1.63-59.72,7.4-84.4,4.22-22.25-2.87-67.06-5.57-89.06-9.87-25.17-4.92-30.13-10.82-53.65-24.18,11.9-52.43,32.18-184.53,35.77-209.26,3.87-27.25-.81-15.84-.81-15.84,0,0,20.37-17.43,4.5-31.36,14.38-29.86-11.37-109.96,43.27-133.67,7.73-3.35,51.79-16.21,64.25-20.1-3.29,4.38-4.61,11.88-4.18,15.32,1.25,9.9.96,12.19,8.23,17.62,6.42,4.8,17.63,9.69,25.71,8.54,41.44-5.89,53.72-20.78,64.18-35.47,16.49,11.49,27.73,19.2,43.78,28.22,59.95,33.72,35.46,125.63,35.46,125.63-11.75,5.62-56.54,9.22-56.54,9.22Z"/>
      <path class="cls-15" d="M776.82,696.97s27.04,12.74,58.36,5.7c0,0-6.2,7.23-26.44,6.8-20.24-.43-33.64-7.99-33.64-7.99l1.72-4.51Z"/>
      <ellipse cx="778.71" cy="590.47" rx="6.66" ry="6.65" transform="translate(20.99 1207.65) rotate(-76.34)"/>
      <path d="M770.96,583.19c3.68-.76,8.24-.47,14.07,2.33,9.33,4.47,9.17,18.2,9.17,18.2,0,0-1.67-11.15-10.77-15.8-4.39-2.24-12.94-2.38-17.11-1.91.44-.88,2.39-2.25,4.64-2.82Z"/>
      <path class="cls-33" d="M913.84,670.01c2.15-2.6,3.88-5.78,4.02-9.23.03-.83.19-2.06-.73-2.41-.79-.3-1.77-.21-2.58-.1-1.95.28-3.82,1.04-5.57,1.91-3.85,1.92-7.35,4.51-10.68,7.21-.9.73.05,1.5.93,1.26.6-.17,1.42-.32,2.11-.1,1.13.35.97,1.76.7,2.67-.96,3.32-4.34,3.87-7.31,3.09-.52-.14-1.18-.04-1.54.41-.29.37-.23.93.29,1.07,4.16,1.09,9.31.19,10.69-4.48.47-1.58.39-3.47-1.36-4.16-1.22-.49-2.74-.35-3.98,0l.93,1.26c3.93-3.18,8.31-6.67,13.23-8.18.49-.15,1.22-.32,1.49-.36.2-.03.4-.05.61-.06.11,0,.21,0,.32-.01.26,0-.24-.02,0,0,.13,0,.26.02.39.04.31.03.05,0,.05,0,.03-.02.16.05.2.07l-.46-.45c.79,3.47-1.46,7.37-3.55,9.9-.88,1.06,1.18,1.43,1.82.65h0Z"/>
      <ellipse cx="844.27" cy="615.35" rx="6.66" ry="6.65" transform="translate(46.88 1290.36) rotate(-76.34)"/>
      <path d="M824.12,613.95s14.13-9.1,24.43-4.26c14.5,6.82,14.78,13.99,15.87,19.86,0,0-5.8-12.46-17.13-17.45-10.28-4.53-23.17,1.85-23.17,1.85Z"/>
      <path class="cls-13" d="M791.14,652.34c8.68,3.24,23.13,7.48,23.13,7.48,0,0-6.83,21.78-30.77,12.4-20-7.84-12.85-28.16-12.85-28.16,0,0,11.8,5.04,20.48,8.28Z"/>
      <path d="M790.82,652.21c4.15,1.55,19.69,7.15,19.69,7.15,0,0-7.71,9.62-22.74,4.02-16.29-6.08-15.06-16.88-15.06-16.88l18.11,5.71Z"/>
      <path class="cls-17" d="M789.38,653.91c4.27,1.59,17.51,5.74,17.51,5.74,0,0-6.42,1.6-19.21-3.17-12.8-4.77-15.17-9.51-15.17-9.51l16.87,6.94Z"/>
      <path class="cls-13" d="M769.34,643.4c.17-.46,1.17-.32,3.36.3,3.64,1.03,5.26.19,7.89.96,4.49,1.31,6.64,4,8.54,4.71,1.9.71,5.29.09,9.54,2.04,2.49,1.14,8.48,4.4,11.91,6.01,2.05.97,4.83,1.1,5.25,1.38.57.38-3.06,5.63-26.93-3.28-23.87-8.91-19.78-11.49-19.55-12.11Z"/>
      <path d="M834.63,589.44c.05-.23.88,0,.94-.22,13.84,1.2,23.73,4.1,27.12,5.89,2.57,1.36,4.9,3.23,6.96,5.42,0,0,5.74,5.95,6.11,7.71.37,1.76-3.98-2.1-3.98-2.1-.99-.66-1.6-1.28-2.66-1.81-5.81-2.9-11.09-6.5-17.48-7.69-5.46-1.05-13.51-.37-19.16-.09.61-2.48,1.75-4.59,2.15-7.11Z"/>
      <path d="M806.28,580.28c-10.59-7.7-19.46-11.62-22.99-12.36-2.69-.56-5.52-.57-8.37-.16,0,0-.39.05-.99.14-.2.14-.41.26-.6.41-.12.44-.25.88-.36,1.31-.11.45-.2.9-.29,1.35.07.01.14.02.22.04,5.96,1.39,11.99,1.91,17.28,4.97,4.54,2.59,9.83,8.13,13.67,11.86,1.13-2.29,1.66-4.62,2.96-6.81.11-.21-.63-.55-.53-.76Z"/>
      <path class="cls-34" d="M873.49,730.22s66.32,10.85,81.03,74.65c14.71,63.8,5.79,120.36,5.79,120.36,0,0-58.5,12.51-102.69-9.86-27.25-13.8,15.43-181.16,15.43-181.16"/>
      <g>
        <path d="M797.73,529.4c18.35-27.14,43.8-30.51,74.45-21.99,26.45,7.35,52.24,14.18,68.84,39.97,2.72,4.29,11.81,17.87,13.47,27.64,5.75,33.89-12.19,59.09-27.86,78.85-.38-.37-.76-.75-1.13-1.12-2.38-1.81-5.06-2.9-8.03-3.27-2.04-.49-4.27-.31-6.33-.19-2.06.12-4.23.83-6.08,1.51-4.06,1.49-7.01,4.28-9.83,7.43-.11.14-.17.3-.28.44-2.82-.11-1.76-2.41-3.47-4.93-1.58-2.34,1.26-5,1.78-7.67,1.05-5.45,3.88-10.28,6.02-15.34,1.59-2.62,3.24-5.2,5.01-7.7,7.37-10.53,5.34-19.11,6.69-30.26,0,0,.74-16.85-12.89-32.4-14.94-16.99-27.53-7.31-50.7-16.77-19.99-8.25-17.7-21.72-35.23-18.75,0,0-5.17-.44-7.75.98-2.58,1.42-6.68,3.58-6.68,3.58Z"/>
        <path d="M798.02,529.4c5.15-7.59,11.6-14.39,19.58-19.02,7.16-4.16,15.25-6.34,23.49-6.83,9.05-.54,18.14.8,26.91,2.97,4.68,1.16,9.32,2.51,13.95,3.84,4.54,1.31,9.06,2.68,13.52,4.24,8.71,3.04,17.23,6.79,24.88,11.99,8.13,5.52,15.08,12.63,20.38,20.9,4.3,6.7,8.61,13.52,11.51,20.96.78,2.01,1.46,4.07,1.86,6.19.51,2.68.81,5.41,1,8.12.36,5.26.17,10.56-.59,15.78-1.41,9.66-4.75,18.93-9.28,27.55-4.25,8.08-9.48,15.59-15.03,22.82-1.27,1.65-2.56,3.3-3.86,4.93l.58-.12c-.89-.88-1.76-1.63-2.84-2.26s-2.15-1.11-3.3-1.48c-2.32-.74-4.83-1.08-7.27-1.01-1.22.04-2.46.07-3.67.27s-2.48.56-3.68.97c-2.17.74-4.18,1.7-6.03,3.06-1.04.77-2.01,1.62-2.93,2.53s-1.86,1.78-2.54,2.83l.42-.17c-.9-.05-1.54-.39-1.88-1.24-.3-.75-.42-1.56-.72-2.31-.36-.9-1.09-1.66-1.14-2.66s.41-1.99.84-2.87c.46-.94.98-1.86,1.28-2.87.34-1.17.53-2.38.9-3.54.74-2.38,1.75-4.66,2.8-6.92,1.11-2.4,2.11-4.85,3.5-7.1s2.98-4.48,4.46-6.73c2.5-3.78,4.13-7.98,4.85-12.44.67-4.15.66-8.36.92-12.54.12-1.98.46-3.94.39-5.93-.2-5.74-1.67-11.47-3.89-16.74-1.77-4.19-4.09-8.15-6.87-11.75-2.54-3.29-5.46-6.36-8.91-8.71-2.6-1.76-5.46-3.05-8.48-3.88-2.96-.8-6.01-1.18-9.06-1.47-3.38-.32-6.76-.56-10.13-1.03-4.07-.56-8.1-1.44-12-2.73-4.34-1.43-8.54-3.29-12.34-5.84-2.82-1.9-5.34-4.15-7.73-6.55-1.9-1.9-3.73-3.92-5.91-5.51s-4.47-2.48-7.05-2.76c-1.62-.18-3.26-.13-4.88.06-.64.07-1.3.25-1.94.24-.51,0-1.02-.05-1.53-.05-1.66,0-3.39.09-4.99.58-.8.24-1.5.64-2.23,1.03-.89.49-1.79.97-2.68,1.45-1.04.55-2.08,1.11-3.12,1.66-.37.2.19.28.39.17,1.09-.58,2.19-1.16,3.28-1.74,1.64-.88,3.29-2.03,5.12-2.45,1.59-.36,3.26-.4,4.89-.34,1.28.05,2.51-.23,3.79-.32,2.92-.21,5.86.15,8.47,1.52,2.3,1.2,4.18,3.03,5.99,4.86,2.2,2.22,4.38,4.45,6.83,6.4,3.23,2.57,6.83,4.64,10.64,6.23,3.96,1.65,8.11,2.89,12.32,3.72,3.53.7,7.11,1.09,10.69,1.41,6.17.55,12.48.98,18.1,3.83,3.27,1.66,6.14,4,8.65,6.66,3.33,3.53,6.16,7.57,8.38,11.88,2.98,5.79,4.95,12.21,5.48,18.71.09,1.11.18,2.24.06,3.35-.49,4.27-.48,8.58-.83,12.86-.35,4.22-1.19,8.36-3.01,12.2-1.14,2.4-2.67,4.53-4.15,6.73s-3.02,4.31-4.05,6.68c-2.02,4.58-4.48,9.04-5.53,13.98-.23,1.07-.59,2.01-1.08,2.98-.44.88-.93,1.76-1.15,2.72-.2.85-.12,1.67.34,2.42.52.84.86,1.69,1.12,2.64.17.6.31,1.27.75,1.75.47.51,1.16.62,1.82.66.13,0,.34-.05.42-.17.59-.91,1.41-1.69,2.18-2.46.73-.73,1.48-1.43,2.28-2.08,1.71-1.4,3.6-2.52,5.68-3.28,1.13-.41,2.28-.79,3.46-1.06,1.24-.28,2.48-.35,3.75-.42,2.38-.11,4.75.11,7.06.74,1.21.33,2.38.81,3.48,1.41.6.33,1.18.69,1.73,1.09s1,.9,1.47,1.37c.14.14.48.01.58-.12,5.64-7.12,11.12-14.4,15.78-22.21,4.94-8.3,8.95-17.2,11.18-26.62,1.18-4.99,1.86-10.09,2-15.21.07-2.65,0-5.31-.21-7.96s-.5-5.42-1.09-8.06c-.98-4.47-2.95-8.71-5.06-12.75-1.93-3.7-4.08-7.29-6.31-10.81-2.25-3.54-4.55-7.03-7.23-10.26-3.11-3.75-6.6-7.17-10.41-10.2-7.31-5.83-15.68-10.15-24.37-13.53-8.84-3.44-18-5.99-27.14-8.53-9.03-2.51-18.22-4.47-27.63-4.61-8.28-.13-16.61,1.2-24.22,4.55-8.01,3.53-14.86,9.15-20.41,15.87-1.55,1.88-3.01,3.85-4.38,5.87-.15.23.47.17.58,0Z"/>
      </g>
      <g>
        <path class="cls-10" d="M790.47,639.04c1.63,1.94,4.9,3,7.52,2.56.58-.1,2.01.82,1.2.96-3.47.57-8.08-1.14-10.18-3.65-.21-.25-.08-.43.3-.41.39.03.93.28,1.16.54"/>
        <path class="cls-10" d="M800.34,642.33c1.67-.09,3.38.21,4.99.73.24.08.5.29.6.51.08.17.05.34-.17.37-.89.12-1.88-.09-2.72-.45-.26-.11-.59-.32-.64-.62-.05-.27.26-.3.47-.21.69.3,1.46.45,2.19.36.15.29.29.58.44.87-1.44-.47-2.97-.72-4.46-.64-.3.02-.62-.21-.79-.43-.13-.17-.21-.47.09-.49"/>
        <path class="cls-10" d="M806.46,645.08c1.85.71,4.32.8,5.79-.21,2.21-1.52,2.38-5.54.64-7.81-.19-.25.02-.38.29-.33.36.06.69.35.89.6,1.51,1.98,1.61,5.42.51,7.25-1.03,1.71-3.3,2.26-5.7,1.89-.71-.11-1.45-.29-2.14-.55-.28-.11-.74-.4-.79-.67-.05-.28.25-.27.51-.17"/>
        <path class="cls-10" d="M787.5,636.73c.18-.17.06-.38-.09-.44-.5-.19-.95-.54-1.23-1.05-.24.13-.48.26-.73.39.94.51,1.8,1.25,2.44,2.2.13.19.41.22.62.15.16-.05.38-.23.25-.42"/>
        <path class="cls-10" d="M788.78,637.56c-.72-1.07-1.68-1.87-2.74-2.45-.16-.08-.4-.08-.58.02-.14.08-.23.23-.14.38"/>
        <path class="cls-10" d="M783.61,635.41c-1.17-.54-2.24-1.91-2.26-3.53-.03-2.44,1.81-4.57,3.84-5.29.22-.08.21-.3.07-.42-.18-.16-.49-.14-.72-.06-1.77.63-3.38,2.16-3.99,4.19-.57,1.9.05,3.64,1.25,4.75.36.33.77.62,1.2.82.18.08.54.13.71-.05.18-.18.05-.35-.11-.42"/>
      </g>
      <path class="cls-34" d="M919.2,891.07c1.71,30.67-9.68,19.31-9.74,23.36-.07,4.93-17.28,129.32-21.67,216.42-8.94,7.02-23.96,6.21-40.98,6.74-24.73.78-48.97-1.58-73.34-5.48-21.97-3.51-39.98-11.77-61.66-16.66-24.8-5.6-54.78-9.25-77.71-23.01,13.25-50.65,27.46-156.44,31.7-180.4,4.59-26.39,2.59-15.55,2.59-15.55,0,0-61.77-21.75-70.95-81.41,51.52-45.87,63.37-75.29,116.89-99.62,11.94-5.43,44.23-6.65,55.54-5.5-3.39,4.16-4.72,21.21-4.38,24.57.96,9.68,2.16,11.87,9.21,17.39,6.22,4.88,25.71,8.62,33.78,8.04,25.23-1.79,47.24-23.53,58.02-37.49,20.6,9.13,32.9,28.55,48.55,37.86,58.47,34.76,28.47,121.31,28.47,121.31-11.8,5.09-24.3,9.44-24.3,9.44Z"/>
      <g>
        <path class="cls-34" d="M671.48,801.83c-3.41,14.86-6.07,55.96-6.07,55.96,0,0,1.2,22.84-4.86,42.5"/>
        <path class="cls-12" d="M670.75,801.88c-1.43,6.28-2.15,12.73-2.87,19.12-.83,7.41-1.51,14.84-2.12,22.28-.38,4.6-.72,9.2-1.03,13.8-.22,3.2.08,6.47,0,9.68-.29,11.25-1.56,22.65-4.86,33.45-.24.79,1.2.77,1.38.16,2.99-9.8,4.34-20.06,4.82-30.28.15-3.27.21-6.54.16-9.81-.02-.91-.09-1.83-.06-2.75.12-3.94.56-7.9.87-11.82.58-7.28,1.22-14.56,1.99-21.83s1.55-14.87,3.2-22.12c.16-.7-1.32-.52-1.47.11h0Z"/>
      </g>
      <path class="cls-27" d="M715.9,878.26c-.06.14-.15.27-.26.38-.25-.28-.49-.57-.74-.85.33.16.66.31,1,.47Z"/>
      <path class="cls-27" d="M727.7,940.29c.02.14.07.28.14.4.29-.2.58-.4.87-.6-.34.07-.67.13-1.01.2Z"/>
      <path class="cls-20" d="M925.33,1022.6c15.82-36.79,24.95-96.61,25.16-132.89l-37.73-82.96c-46.53-6.24-34.09,55.63-34.09,55.63,1.78,15.45-11.67,104.82-15.67,132.77,23.55,2.07,43.55,13.07,62.33,27.45Z"/>
      <path class="cls-34" d="M866.49,722.46s93.19,32.9,96.42,96.06c3.31,64.83,1.72,106.5,1.72,106.5,0,0-59.47,9.17-97.19-11.96-26.42-14.8-21.78-113.48-21.78-113.48"/>
      <g>
        <path class="cls-34" d="M871.36,915.17l-12.26-5.09s4.52-67.13,14.23-95.23c9.71-28.1,39.46-31.32,39.46-31.32"/>
        <path class="cls-12" d="M872.04,914.93c-3.94-1.63-7.84-3.4-11.83-4.91-.56-.21-.38-.3-.33-.99.08-1.17.17-2.34.26-3.51.85-10.97,1.9-21.93,3.17-32.86,1.67-14.41,3.61-28.85,6.71-43.03,1.33-6.09,2.78-12.3,5.23-18.05,2.87-6.73,7.36-12.64,13.06-17.22,6.72-5.4,15.36-9.27,23.78-10.5-.01,0,.25-.03.37-.05.36-.04,1.57-.66.64-.55-5.95.65-11.95,2.84-17.24,5.53-11.24,5.73-19.64,15.23-23.6,27.25-3.77,11.42-5.74,23.49-7.54,35.35-1.91,12.66-3.37,25.38-4.6,38.12-.44,4.56-.85,9.13-1.21,13.7-.12,1.48-.24,2.95-.35,4.43-.05.71-.27,1.61-.17,2.32.01.09-.01.21-.02.3l.04.05c4.09,1.7,8.17,3.39,12.26,5.09.39.16,1.48-.44,1.37-.48h0Z"/>
      </g>
      <path class="cls-20" d="M940.93,970.52s-4.66,61.95-21.48,80.92c-10.98,12.38-28.12,11.85-39.23,11.26-30.8-1.64-30.53-40.69-30.53-40.69l26.43-48.84,64.81-2.66Z"/>
      <polygon class="cls-26" points="762.47 1058.93 631.4 1049.73 644.01 869.23 775.2 880.37 762.47 1058.93"/>
      <polygon class="cls-32" points="758.99 1062.19 627.92 1052.99 640.53 872.49 771.72 883.64 758.99 1062.19"/>
      <polygon class="cls-26" points="729.05 1073.35 597.98 1064.15 610.59 883.65 741.78 894.8 729.05 1073.35"/>
      <polygon class="cls-25" points="725.79 1078.33 594.72 1069.13 607.33 888.63 738.53 899.78 725.79 1078.33"/>
      <path class="cls-4" d="M646.33,928.82c2.01,2.88,5.38,4.44,8.87,4.25,2.18-.12,4.16-1.36,6.31-1.41,1.96-.05,3.87.92,5.61,1.72,3.19,1.47,6.25,2.47,9.64.98,1.85-.82,3.42-2.38,5.55-2.26,1.74.1,3.42.78,5.01,1.43,3.5,1.43,6.96,2.87,10.7,1.38,1.43-.57.09-.89-.77-.55-2.88,1.15-6.47-1.06-9.11-2.08-2.88-1.11-5.82-1.59-8.75-.35-1.69.71-3.27,2.31-5.17,2.31-1.71,0-3.4-.84-4.91-1.53-3.06-1.41-5.88-2.48-9.26-1.56-2.27.61-4.13,1.36-6.5.69-2.05-.57-3.84-1.85-5.06-3.59-.39-.55-2.37.3-2.17.58h0Z"/>
      <path class="cls-20" d="M613.79,1034.16c8.74,3.31,20.57,7.58,22.17,7s12.81-2.87,22.62-4.85c5.04-.8,8.79-5.12,8.39-9.65-.1-1.18-23.91-2.9-21.63-12.84l20.69-2.46c6.73.08,13.35.94,19.68,2.57,7.69,2.48,26.12,16.29,26.12,16.29l26.31-3.68,11.46,42.84-37.78-1.13-24.75,9.56s-47.86,8.32-53.89,5.58c-6.04-2.74-13.43-14.51-13.43-14.51-8.66-2.3-10.28-13.69-10.28-13.69-12.46-8.2-2.64-11.7-2.64-11.7-.5-.18-.93-.49-1.22-.9-3.27-4.37,2.99-10.47,8.19-8.45Z"/>
      <path class="cls-33" d="M649.28,1054.33c-3.5.8-7,1.6-10.51,2.4-2.78.64-6.02-.46-8.78-.93-2.3-.39-4.22-1.61-6.18-2.81-1.79-1.1-3.57-2.24-5.32-3.41-3.59-2.38-7.16-4.79-10.84-7.04-.52-.32-2.31.57-2.05.73,6.22,3.8,12.07,8.25,18.43,11.81,2.51,1.4,5.24,1.77,8.04,2.23,1.25.21,2.52.41,3.8.46,1.35.05,2.59-.28,3.9-.58,3.23-.74,6.45-1.47,9.68-2.21.17-.04,1.12-.32,1-.61-.12-.32-.99-.07-1.17-.03h0Z"/>
      <path class="cls-33" d="M649.2,1062.87c-7.28,1.93-14.98,2.81-22.38.98-6.03-1.49-11.38-4.61-16.32-8.29-.76-.56-2.67.5-1.68,1.24,5.23,3.9,10.96,7.18,17.37,8.65,7.77,1.78,15.77.91,23.4-1.12,1.34-.35.95-1.82-.39-1.46h0Z"/>
      <path class="cls-33" d="M649.58,1074.96c-2.64.17-5.28.38-7.91.64-1.39.14-2.79.29-4.18.46-1.45.17-2.77.42-4.15-.22-1.83-.85-3.56-2.03-5.35-2.96-2.01-1.05-4.01-2.12-5.77-3.55-.53-.43-2.51.41-2.03.8,1.74,1.42,3.73,2.49,5.71,3.53.96.5,1.93.99,2.88,1.52,1.06.6,2.05,1.34,3.19,1.78,2.31.89,5.02.13,7.39-.13,3.11-.34,6.22-.6,9.34-.8.37-.02,1.28-.14,1.44-.56s-.13-.54-.56-.51h0Z"/>
      <path class="cls-20" d="M894.58,1013.4c-7.66-9.13-21.1-11.93-31.57-18.25l-151.94,37.91,9.27,33.61s128.88,14.29,182.97-5.18c2.33-.84,4.11-10.9,7.02-13.03-6.02-12.19-7.07-24.7-15.75-35.05Z"/>
      <path class="cls-33" d="M862.32,995.67c4.27.47,8.49,1.4,12.13,3.79,3.61,2.38,6.58,5.68,9.6,8.74.46.47,2.5-.33,2.03-.8-3.13-3.17-6.2-6.61-10-9-3.74-2.36-8.04-3.3-12.39-3.78-.47-.05-1.18.07-1.54.41-.29.28-.32.57.17.63h0Z"/>
      <g>
        <path class="cls-34" d="M863.29,714.57s-28.93,38.75-71.73,30.28c-42.8-8.47-21.99-38.35-21.99-38.35l-13.84,3.94s-14.54,26.9,12.31,43.06c26.86,16.16,56.98,8.31,79.81-7.05,22.83-15.35,26.32-24.63,26.32-24.63l-10.88-7.25Z"/>
        <path class="cls-12" d="M862.58,714.7c-3.15,4.21-7.05,7.98-10.99,11.43-8.78,7.68-19.03,13.94-30.29,17.19-6.91,1.99-14.12,2.79-21.29,2.3-7.47-.51-15.24-2.23-21.98-5.57-4.33-2.15-8.4-5.22-10.72-9.56-1.69-3.17-2.29-6.79-1.99-10.35.26-3.07,1.14-6.08,2.36-8.9.44-1.02.93-2.01,1.47-2.98.28-.51.8-1.09.99-1.65.03-.08.1-.16.15-.23.17-.24-.75-.1-.77-.09-4.1,1.17-8.2,2.33-12.31,3.5-.73.21-1.85.31-2.29.98-.53.81-.86,1.86-1.2,2.75-3.65,9.46-3.8,20.45,1.82,29.19,4.66,7.24,12.34,11.99,20.13,15.24,8.55,3.57,17.8,5.09,27.04,4.7,18.68-.79,35.98-8.99,50.89-19.81,5.84-4.23,11.54-8.82,16.35-14.22,1.23-1.38,2.41-2.82,3.45-4.36.46-.68,1.11-1.5,1.35-2.3.03-.1.09-.19.13-.29.02-.05.01-.09-.03-.12-3.63-2.42-7.25-4.83-10.88-7.25-.34-.22-1.56.36-1.37.49,3.33,2.22,6.65,4.43,9.98,6.65.23.15.53.29.73.48.13.13.16.13.14.01.01.09-.13.31-.17.39-.44.75-.84,1.51-1.33,2.24-2.63,3.87-6.05,7.22-9.53,10.32-6.56,5.84-13.83,11.09-21.44,15.48-15.65,9.02-34.13,14.13-52.16,10.64-8.91-1.72-17.91-5.43-25-11.18-5.16-4.19-9.05-9.77-10.55-16.29-1.12-4.86-.92-9.96.19-14.8.65-2.83,1.77-5.36,2.79-8.05.05-.13.13-.26.19-.38l-.66.35c4.61-1.31,9.23-2.63,13.84-3.94l-.77-.09c-2.42,3.49-4.06,7.79-4.75,11.95-.58,3.54-.39,7.21.94,10.56,1.74,4.35,5.22,7.7,9.18,10.08,6.26,3.76,13.76,5.66,20.94,6.59,7.19.93,14.51.62,21.59-.9,12.08-2.59,23.23-8.47,32.84-16.16,3.47-2.77,6.75-5.79,9.8-9.01,1-1.06,1.97-2.14,2.92-3.24.46-.54,1.18-1.18,1.5-1.83.04-.08.13-.16.18-.24.09-.12-1.17-.09-1.43.26Z"/>
      </g>
      <path class="cls-6" d="M614.23,61.52c-9.75-8.26-18.32-9.14-28.96-16.3-.92-.62-1.97-1.27-3.01-1.19-.86.07-1.5.63-2.08,1.18-13.72,12.86-27.95,25.11-38.41,40.5-4.46,6.55-8.64,13.41-10.67,21.16-1.83,6.99-5.94,14.03-5.95,21.45,0,6.51-.02,13.02-.02,19.52,0,2.43.02,4.96,1.16,7.3,3.35,6.88,13.61,7.93,20.73,6.03,15.29-4.07,26.4-15.28,33.9-27.92,7.5-12.64,11.96-26.9,17.87-40.4,4.08-9.31,8.86-18.29,14.31-26.85"/>
      <path class="cls-20" d="M770.95,157.57s0-.09.03-.14c-2.21.52-10.31-18.51-11.71-20.73-14.71-23.37-19.68-38.46-44.93-49.67-13.18-5.86-31.98-.98-45.77-5.23-13.23-4.08-20.03-19.09-32.16-25.91-4.2-2.36-13.27,10.34-10.2,8.28-4.67-4.1-8.03-8.05-8.03-8.05-19.39,1.72-37.25,64.89-41.62,72.29-4.37,7.41-13.26,17.84-13.26,17.84-.27-3.99-1.2-7.38-.41-11.2.54-3.44.39-7.9.93-11.35.37-8.45-9.77-13.88-16.75-13.11l-4.41,1.87c-11.9,4.34-19.18,36.01-19.8,46.93-9.31,16.88-.93,34.57,14.61,28.25l-1.95,7.7,2.25,46.32c5.16,27.06,25.98,65.01,51.97,80.64,9.31,5.6,21.44,14.19,35.26,7.12,13.97-7.14,20.22-11.7,34.23-17.64,13.44-5.69,20.57-10.04,31.33-19.87,11.13-10.17,13.22-13.4,19.92-26.46,2.99-5.83,8.02-14.34,11.86-19.31,4.43-5.74,22.8-27.76,32.51-41.38,9.71-13.63,16.1-47.21,16.1-47.21Z"/>
      <path class="cls-33" d="M734.66,179.11s-19.44-8.35-34.52-16.32c-15.08-7.97-26.34-21.74-26.34-21.74,0,0,15.12,13.78,27.02,20.13,11.9,6.36,33.85,17.92,33.85,17.92Z"/>
      <path class="cls-26" d="M603.96,252.3s11.98,12.6,22.81,20.11c10.83,7.5,29.63,15.61,29.63,15.61,0,0,1.67-4.92-17.96-18.52-19.63-13.6-34.48-17.19-34.48-17.19Z"/>
      <path class="cls-6" d="M676.79,164.17c-13.8-13.74-24.92-21.16-29.87-23.46-3.87-1.81-8.04-2.95-12.29-3.56,0,0-13.6,1.25-15.78,2.17-2.18.92,5.98,2.8,5.98,2.8,1.63.59,2.87.8,4.42,1.56,8.56,4.2,17.36,7.29,24.7,13.42,6.3,5.21,13.28,14.58,18.38,21,2-2.55,5.04-8.47,7.27-10.81"/>
      <path class="cls-6" d="M748.16,215.07c.02-.29.87-2.01.87-2.3,0,0-.04-.33-.04-.34-1.28-1.66-2.52-4.18-4.7-6.13-3.81-3.41-13.27-12.35-29.85-19.64-1.71,2.65-5.41,7.38-7.14,10.02,7.28,2.21,11.99,4.37,18.72,7.97,6.32,3.38,15,8.6,20.61,13.23.52-.45-.06-.05.42-.55.27-.37.53-.75.76-1.15.14-.37.26-.74.35-1.12Z"/>
      <path class="cls-29" d="M635.66,269.62c-11.72-7.13-33.52-19.11-33.52-19.11,0,0-9.95,29,17.22,45.54,27.18,16.54,45.34-9.79,45.34-9.79,0,0-17.32-9.5-29.05-16.64Z"/>
      <path class="cls-24" d="M635.77,269.69c-5.57-3.39-29.15-17.92-29.15-17.92,0,0-1.32,21.27,18.84,33.53,21.86,13.3,35.92-.69,35.92-.69l-25.61-14.92Z"/>
      <path class="cls-17" d="M635.5,270.68c-5.57-3.39-21.96-14.66-21.96-14.66,0,0,2.35,9.87,19.07,20.04,16.72,10.17,25.68,7.43,25.68,7.43l-22.79-12.81Z"/>
      <path class="cls-29" d="M665.85,286.05c-.5-.51-2.12-.91-4.48-2.94-4.27-3.67-5.4-6.67-8.58-8.96-5.44-3.91-10.45-3.85-12.93-5.36-2.48-1.51-4.72-5.98-10.7-9.01-3.5-1.78-12.04-3.68-16.9-6.09-2.91-1.44-9.79-4.53-10.48-4.74-.95-.3.75,4.89,31.94,23.86,31.19,18.98,32.83,13.95,32.13,13.24Z"/>
      <path class="cls-20" d="M631.87,315.09c-.25-.19-.46-.44-.61-.72-2.68-5.3-2.1-7.1-3.92-8.8-.42-.39-.57-.71-1.96-1.78-5.59-4.29-8.93-7.02-31.09-5.9-.45.03-20.23-14.78-20.63-15.05l-8.05-11.45c-1.19-2.18-22.65-60.39-22.65-60.39.04-1.52-2.72-14.02-2.38-15.3-.09-.14-.17-.28-.28-.41-.04-.04-.12-.15-.2-.26-.06.06-.14.14-.18.19-.34.43-.62.94-.87,1.43-1.09,2.14-1.83,4.43-2.34,6.78-.79,3.61-2.01,7.05-2.92,10.6-.32,1.26-.58,2.53-.8,3.8,3.03,5.6.92,54.85,23.73,78.45.94.92,3.87,3.88,12.72,9.94,16.63,11.37,28.13,24.98,48.16,29.72,5.23,1.24,10.67.08,14.84-3.07,11.91-8.99,54.16-46.4,67.06-62.59-10.62,7.61-42.6,30.8-58.06,41.91-.47.34-8.39,3.43-9.03,3.28"/>
      <path class="cls-18" d="M635.84,270.06c-13.69-7.74-34.93-21.97-34.93-21.97,0,0-14.33,34.41,17.42,52.36,31.75,17.95,47.47-13.51,47.47-13.51,0,0-16.27-9.14-29.96-16.88Z"/>
      <path class="cls-24" d="M635.97,270.13c-6.51-3.68-28.34-17.36-28.34-17.36,0,0-6.02,21.4,17.52,34.71,25.53,14.44,38.06-1.92,38.06-1.92l-27.24-15.43Z"/>
      <path class="cls-17" d="M635.68,271.31c-6.51-3.68-25.67-16.03-25.67-16.03,0,0,2.91,11.47,22.44,22.52,19.53,11.04,29.83,7.32,29.83,7.32l-26.6-13.81Z"/>
      <path class="cls-18" d="M670.69,286.97c-.59-.57-.52-.98-3.59-3.1-5.11-3.53-7.65-6.92-11.37-9.44-6.36-4.3-12.15-3.95-15.05-5.59-2.9-1.64-5.57-6.78-12.54-10.01-4.08-1.9-14.59-5.88-20.25-8.44-3.4-1.54-6.44-4.99-7.24-5.21-1.1-.3-3.41,8.13,33.01,28.72,36.43,20.6,37.85,13.85,37.03,13.07Z"/>
      <path class="cls-6" d="M641.48,256.55l-4.12,5.52c-.64.84-1.73,1.2-2.73.87-6.89-2.25-36.06-18.87-38.13-12.76-.29.85-3.37,5.42-3.49,5.33l-.59-2.5c.04-4.81,4.4-10.1,6.87-9.9,7.52.61,14.03,1.63,17.93,2.51,4.87,1.11,18.17,4.58,23.42,7.21,1.38.69,1.79,2.47.85,3.71Z"/>
      <path class="cls-6" d="M648.73,260.59l-3,6.21c-.46.96-.39,2.02.18,2.68,3.91,4.47,25.65,18.84,21.55,23.68-.57.67-1.82,4.14-1.71,4.19l1.69-.07c1.78.84,5.88-7.27,4.95-9.18-2.83-5.82-5.66-10.6-7.57-13.33-2.39-3.41-9.25-12.46-12.95-15.39-.97-.77-2.48-.18-3.15,1.22Z"/>
      <path class="cls-20" d="M587.07,48.02s27.82-25.51,70.86-15.01c32.48,7.93,85.78,41.43,100.93,63.57,21.95,32.09,10.56,67.54,10.56,67.54l-182.35-116.11Z"/>
      <path class="cls-30" d="M598.54,327.66s-42.86-26.13-49.48-38.95c-6.62-12.81-11.58-31.27-11.47-54.6,0,0-8.74,47.63,12.69,65.41,28.26,23.45,44.91,31.29,44.91,31.29l3.34-3.16Z"/>
      <path class="cls-7" d="M714.58,218.34c2.88.17,5.18,2.78,5.86,4.91.16.5.27,1.8-.17,3.5-.55,2.17-2.54,3.83-4.46,4.42-2.56.78-5.33-.46-6.77-2.56-1.95-2.85-.9-6.61,1.17-8.57.38-.36,2.04-1.83,4.36-1.7"/>
      <path class="cls-7" d="M692.3,215.53s15.75-2.08,21.57.62c8.49,3.95,15.73,14.23,16.21,19.88,0,0-9.13-14.37-15.19-16.97-5.79-2.49-22.59-3.53-22.59-3.53Z"/>
      <path class="cls-7" d="M649.2,179.69c-1.53-2.45-5.26-4.23-7.47-3.81-.52.1-1.94.41-3.23,1.61-1.64,1.53-2.15,4.06-1.74,6.02.54,2.62,2.96,4.45,5.49,4.7,3.44.34,6.24-2.38,6.97-5.13.13-.5,1.06-1.08-.17-3.06"/>
      <path class="cls-7" d="M659.44,195.22s-7.56-14.88-13.42-18.59c-8.56-5.41-21.97-6.47-27.26-3.98,0,0,18.16.61,24.08,4.59,5.66,3.8,16.6,17.99,16.6,17.99Z"/>
      <g>
        <path class="cls-10" d="M657.6,254.22c-3.84-.16-8.13-3.11-10.05-6.65-.43-.79-2.85-1.66-2.25-.56,2.53,4.67,8.86,8.62,13.81,8.83.49.02.59-.31.21-.74-.4-.45-1.2-.86-1.72-.89"/>
        <path class="cls-10" d="M644.5,245.43c-1.44-2.07-3.39-3.85-5.51-5.29-.31-.21-.8-.33-1.16-.26-.28.06-.45.26-.29.54.68,1.17,1.85,2.17,3.06,2.84.38.21.93.4,1.33.2.37-.18.12-.59-.18-.75-1-.55-1.9-1.33-2.47-2.3-.49.09-.97.19-1.45.28,1.9,1.29,3.62,2.9,4.91,4.75.26.37.83.55,1.25.55.32,0,.76-.18.5-.55"/>
        <path class="cls-10" d="M635.53,240.63c-2.56-1.56-4.96-4.44-5.12-7.12-.23-4.04,4.24-7.65,8.56-7.65.47,0,.44-.37.12-.65-.41-.37-1.06-.51-1.55-.51-3.77,0-7.8,2.76-8.97,5.75-1.09,2.8.36,6.02,3.04,8.55.8.75,1.69,1.47,2.65,2.05.39.23,1.16.53,1.53.33.37-.2.09-.54-.27-.76"/>
        <path class="cls-10" d="M663.11,255.65c.03-.38.4-.42.61-.3.69.42,1.52.64,2.39.5.07.41.13.82.2,1.23-1.49-.66-3.16-1.01-4.9-.9-.35.02-.64-.29-.76-.61-.09-.24-.08-.66.27-.69"/>
        <path class="cls-10" d="M660.93,254.89c1.94-.12,3.8.29,5.47,1.03.24.11.47.4.52.71.04.24-.06.48-.32.52"/>
        <path class="cls-10" d="M668.3,259.11c1.73.91,4.36.93,6.31-.53,2.95-2.21,3.79-6.36,2.76-9.45-.11-.34.16-.53.44-.47.36.07.62.45.74.8.89,2.69.55,6.03-1.31,8.62-1.74,2.42-4.39,3.28-6.85,2.86-.73-.13-1.46-.34-2.1-.68-.26-.14-.65-.52-.6-.9.05-.38.36-.38.61-.25"/>
      </g>
      <path class="cls-8" d="M615,158.72l-2.01,9.14c-2.06,6.8-4.58,21.18-4.46,25.59.19,6.18,30.67,26.64,39.02,26.72,8.34.08,22.54-15.84,26.68-19.03l12.19,8.2c-2.1,6.06-8.36,25.47-7.35,29.2,1.01,3.73,15.72,11.92,17.38,12.84,1.39.75,3.32,1.8,5.48,2.86,5.7,2.85,12.88,5.88,16.12,5.07,4.82-1.19,14.97-10.65,24.28-19.76l1.48-1.42c.34-.35.64-.56.72-.67h0l1.68-1.65c-12.98-19.44-37.66-32.18-58.46-30.17v.26s-11.85-8.06-11.85-8.06c-8.37-17.47-29.39-36.76-50.54-40.33h0l-58.62-22.85-2.98,4.62,51.23,19.45ZM681.59,237.67c-.64-2.32,3.38-16.14,6.83-26.71,17.93-1.48,40.14,10.04,52.3,26.48l-.15.23c-5,4.88-18.28,17.89-23.02,19.06-5.6,1.37-34.7-15.25-35.99-19.01l.03-.05ZM613.03,194.39c.92-11.24,2.85-22.38,5.77-33.28,19.43,2.15,43.72,21.86,52.06,38.67-6.67,6.23-17.26,17.74-23.24,17.67-8.6-.08-34.5-19.16-34.6-23.06h0Z"/>
      <path class="cls-33" d="M553.77,155.53c1.06-7.14,1.83-14.4,1.49-21.63-.17-3.63-.58-7.39-1.9-10.81-.44-1.14-1.09-2.8-2.14-3.55-.94-.68-2.93.68-3.73,1.15-5.45,3.21-8.99,8.86-11.09,14.69-.08.24,1.3.1,1.43-.26,1.68-4.68,4.21-9.14,8.01-12.42,1.04-.9,2.17-1.71,3.38-2.34.31-.16.71-.34.98-.46.03-.01.63-.21.19-.08l-.74.03c1.11.73,1.76,2.35,2.22,3.51,1.93,4.89,2.1,10.48,2.01,15.66-.1,5.66-.72,11.3-1.55,16.89-.02.14,1.38.04,1.45-.39h0Z"/>
      <path class="cls-33" d="M548.45,155.33c-2.66-1.95-5.56-.49-7.28,1.92-2.11,2.95-3.1,6.55-5.13,9.54-.24.35-.81,1.33-1.3,1.39-.27.03-.56-.82-.61-1.23-.26-2.33.75-4.96,1.49-7.12,1.42-4.13,3.07-8.28,5.74-11.77s7.45-9.15,12.61-8.19c.33.06,1.56-.47,1.2-.54-4.58-.85-8.87,2.12-11.94,5.2-2.73,2.74-4.85,5.71-6.45,9.21-1.47,3.21-2.83,6.54-3.65,9.98-.26,1.11-1.15,4.02.11,4.85.96.64,2.64-.27,3.34-.95,1.21-1.17,1.93-2.86,2.65-4.35,1-2.07,1.92-4.22,3.24-6.12.51-.74,1.21-1.74,2.08-2.11s1.85.26,2.53.77c.31.23,1.54-.36,1.37-.48h0Z"/>
      <path class="cls-20" d="M168.71,662.58c-3.58-.91-16.05-5.19-19.55-6.37-2.59-.87-15.02-13.96-16.64-17.42-2.44-5.21-2.35-17.26-2.24-18.77,1.59-22.09,22.77-17.6,35.11-35.91,8.53-12.64,19.56-24.55,32.93-32.3.81,2.9,1.24,4.47,1.24,4.47l283.34,51.79s-6.84,55.76-6.84,55.76c-50.16,5.03-116,8.71-166.42,9.71-25.4.51-34.3,2.58-59.67,1.11-17.28-1-33.14-3.4-50.52-6.24-5.39-.88-25.44-4.49-30.73-5.84Z"/>
      <path class="cls-20" d="M312.85,382.87c-13.91-7.31-27.79-14.68-41.92-21.57-14.37-7-29.02-13.62-44.19-18.73-32.83,64.34-75.39,165.15-75.39,165.15-3.64,9.35-15.25,33.85-23.19,54.32-4.51,11.63-9.57,41.14-4.3,57.41,8.25-7.74,17.92-27.31,27.9-32.33,20.11-10.11,43.11-15.86,65.7-14.66,6.46.34,4.85,17.86,11.08,19.57,14.23-25.08,71.03-128.17,101.12-200.53-5.62-2.84-11.22-5.71-16.8-8.63Z"/>
      <path class="cls-20" d="M150.67,656.4s-22.61-5.26-28.98-47.59c-5.29-35.16,39.01-98.57,66.06-108.89,27.05-10.32,34.94,107.73,34.94,107.73l-72.01,48.75Z"/>
      <path class="cls-20" d="M549.48,675.42c1.09-.01,8.48.56,9.49.17,3.69-1.43,5.63-3.34,6.61-6.49.34-1.32,1.82-6.79,1.72-8.13-.2-2.6.11-.86,2.51-1.88l3.08-1.3c1.19-.5,2.24-1.33,2.91-2.43,1.37-2.29,2.39-4.78,3.01-7.38.85-4.47-4.87-11.88-4.87-11.88l3.47-.89c3.79-1.74,4.92-3.32,5.33-7.46l.12-1.97c-.18-1.96-.66-3.87-1.42-5.66-1.2-2.86-.15-6.13,2.46-7.81,2.19-1.41,4.28-3.21,4.66-5.1.72-7.43-2.95-14.59-9.34-18.37-.41-.25-.86-.44-1.32-.6-12.31-4.22-24.88-7.63-37.64-10.18-.89-.17-14.37-6.5-15.12-6.92-6.53,3.03-.88,10.04-8.29,9.63-6.84-.38-13.59-1.72-20.39-2.49-2.2-.25-4.36.74-5.7,2.5,0,.01-.02.02-.03.03-.38.5-.83.94-1.34,1.31l-33.98,24.5c-2.01,1.45-12.95-.58-13.13,1.89-1.9,26.94,3.58,52.51,2.78,52.51-.9,0,19.71,1.5,26.18,5.58,0,0,43.51,9.22,78.21,8.81Z"/>
      <path class="cls-20" d="M533.44,582.34c-.69-1.33-5.84-9.04-5.74-10.64.03-.45.1-.89.2-1.32,3.03-12.16,4.2-24.7,3.48-37.2-1.53-13.49-8.88-17.31-13.84-18.4-2.11-.45-4.18.89-4.63,2.99-.05.22-.07.44-.08.67-.15,8.73-.85,17.44-2.11,26.09-.98,4.3-12.05,24.15-18.96,36.28,12.66-.09,30.64,7.65,41.68,1.54Z"/>
      <path class="cls-16" d="M275.61,522.27l58.8-96.18,37.08-171.99s-65.92-15.59-110.37,29.11c-23.11,23.99-77.47,119.79-109.02,173.29,67.71,51.77,88.2,57.75,123.51,65.78Z"/>
      <path class="cls-14" d="M351.42,285.97c7.63,4.55,12.54,12.3,15.52,20.49s4.31,16.96,4.23,25.62c-.12,13.68-4.5,27.26-9.03,40.03-6.09,17.14-13.58,33.79-21.56,50.13-8.68,17.78-18.04,35.22-27.92,52.36-8.94,15.51-18.29,30.81-28.29,45.67-1.1,1.63-2.2,3.25-3.31,4.86l1.25-.34c-4.83-2.22-10.31-3.33-15.55-3.99-.35-.04-1.67.55-.92.65,5.15.65,10.54,1.76,15.3,3.94.3.14,1.06-.06,1.25-.34,9.94-14.4,19.19-29.28,28.05-44.37,10.08-17.18,19.64-34.68,28.55-52.51,8.32-16.65,16.14-33.59,22.68-51.02,4.85-12.92,9.52-26.5,10.73-40.33.73-8.31-.07-16.85-2.17-24.91s-5.98-16.76-12.43-22.73c-1.53-1.42-3.21-2.66-5-3.73-.38-.22-1.61.36-1.36.51h0Z"/>
      <path class="cls-33" d="M244.5,562.72c-21.1-1.42-42.53,6.65-57.75,21.28-4.27,4.11-8.01,8.73-11.14,13.77-.23.37.78.31.89.29.44-.07,1.01-.24,1.26-.64,10.58-17.03,28.62-29.12,48.31-32.73,5.62-1.03,11.34-1.37,17.04-.99.47.03,1.18-.07,1.54-.41.27-.26.34-.53-.15-.57h0Z"/>
      <path class="cls-33" d="M659.34,690.58c-7.92-1.19-15.48,2.94-22.37,6.28-6.67,3.24-13.31,7.02-18.1,12.82-2.45,2.98-4.27,6.38-5.22,10.12-.28,1.1,1.95.88,2.21-.14,2.13-8.45,9.16-14.4,16.45-18.5,3.97-2.23,8.12-4.18,12.28-6.03,4.41-1.96,9.12-3.62,14.01-2.88,1.13.17,2.18-1.45.73-1.67h0Z"/>
      <path class="cls-33" d="M580.02,830.35c5.5,9.18,5.21,21.19-.74,30.08-.22.33.79.22.87.21.41-.07,1.02-.22,1.27-.59,5.98-8.93,6.29-21.06.77-30.28-.32-.53-2.35.29-2.17.58h0Z"/>
    </g>
  </g>
</svg>