<?xml version="1.0" encoding="UTF-8"?>
<svg xmlns="http://www.w3.org/2000/svg" xmlns:xlink="http://www.w3.org/1999/xlink" viewBox="0 0 1334 1000">
  <defs>
    <style>
      .cls-1 {
        fill: #131429;
      }

      .cls-2 {
        fill: #c82127;
      }

      .cls-3 {
        fill: #acabab;
      }

      .cls-4 {
        fill: #151312;
      }

      .cls-5 {
        fill: #828282;
      }

      .cls-6 {
        fill: #1b1b1b;
      }

      .cls-7 {
        fill: #273339;
      }

      .cls-8 {
        fill: #3e525a;
      }

      .cls-9 {
        fill: #010101;
      }

      .cls-10 {
        fill: #4e5868;
      }

      .cls-11 {
        fill: #58351d;
      }

      .cls-12 {
        fill: #5f6161;
      }

      .cls-13 {
        fill: #12172c;
      }

      .cls-14 {
        fill: #653c29;
      }

      .cls-15 {
        fill: #231f20;
      }

      .cls-16 {
        fill: #c9c1a1;
      }

      .cls-17 {
        fill: #131f14;
      }

      .cls-18 {
        fill: #911a1f;
      }

      .cls-19 {
        fill: #15162a;
      }

      .cls-20 {
        fill: #715446;
      }

      .cls-21 {
        fill: #27153c;
      }

      .cls-22 {
        fill: #100f0e;
      }

      .cls-23 {
        fill: #b7c8ce;
      }

      .cls-24 {
        fill: url(#linear-gradient);
      }

      .cls-25 {
        fill: #5c5c5c;
      }

      .cls-26 {
        fill: none;
        stroke: #4f2f26;
      }

      .cls-26, .cls-27 {
        stroke-miterlimit: 10;
      }

      .cls-28 {
        fill: #2c2f30;
      }

      .cls-29 {
        fill: #221f20;
      }

      .cls-30 {
        fill: #0a1928;
      }

      .cls-31 {
        fill: #a66e53;
      }

      .cls-32 {
        fill: #fff;
      }

      .cls-33 {
        fill: #0b2f42;
      }

      .cls-34 {
        fill: #a66f54;
      }

      .cls-35 {
        fill: #d2d2d1;
      }

      .cls-36 {
        fill: #1e4922;
      }

      .cls-37 {
        fill: #4f2f26;
      }

      .cls-38 {
        fill: #2e6733;
      }

      .cls-39 {
        fill: #f2ebd1;
      }

      .cls-40 {
        fill: #24180f;
      }

      .cls-41 {
        fill: #bb997a;
      }

      .cls-42 {
        fill: #183319;
      }

      .cls-43 {
        fill: #343535;
      }

      .cls-44 {
        fill: #2c7693;
      }

      .cls-27 {
        stroke: #161311;
        stroke-width: .13px;
      }

      .cls-45 {
        fill: #172d19;
      }

      .cls-46 {
        fill: #596a87;
      }

      .cls-47 {
        fill: #a38166;
      }

      .cls-48 {
        fill: #38211a;
      }

      .cls-49 {
        fill: #29305e;
      }

      .cls-50 {
        fill: #eb9944;
      }

      .cls-51 {
        fill: #87654d;
      }

      .cls-52 {
        fill: #4f2e25;
      }

      .cls-53 {
        fill: #11131f;
      }

      .cls-54 {
        fill: #44abe0;
      }
    </style>
    <linearGradient id="linear-gradient" x1="939.84" y1="481.08" x2="942.48" y2="144.83" gradientUnits="userSpaceOnUse">
      <stop offset="0" stop-color="#29305e" stop-opacity="0"/>
      <stop offset=".24" stop-color="#212554" stop-opacity=".38"/>
      <stop offset=".51" stop-color="#1b1c4b" stop-opacity=".72"/>
      <stop offset=".77" stop-color="#171645" stop-opacity=".93"/>
      <stop offset="1" stop-color="#161544"/>
    </linearGradient>
  </defs>
  <g id="Layer_1" data-name="Layer 1">
    <polyline class="cls-39" points="1368.26 1026.77 1368.26 -47.4 -50.6 -47.4 -50.6 1026.77"/>
    <path class="cls-31" d="M606.86,294.14s-4.77,31.13-10.48,39.7c-1.39,2.08-17.09,5.24-17.09,5.24l48.78,40.89,26.28-8.74s-12.59-14.87-12.67-17.82c-.08-2.95,9.74-31.75,9.74-31.75"/>
    <path class="cls-52" d="M643.57,346.46s-9.59-2.38-12.56-3.83c-2.97-1.45-8.01-4.06-20.16-19.19,0,0,2.16,14.81,17.5,22.05,0,0,12.73,5.48,14.58,3.45l.64-2.48Z"/>
    <path class="cls-27" d="M600.37,267.17c-1.57,7.21-5.19,19.64-5.19,19.64,0,0-.23-.24-.61-.66-.65-17.19-4.16-35.83,10.34-51.1,11.11-11.69,29.87-12.1,44.12-8.6,14.13,3.47,32.87,9.2,38.75,23.71,6.75,16.63-.98,37.72-8.1,52.97-.59,1.26-.37,2.4.26,3.26-2.65,1.28-5.06,1.63-5.06,1.63,0,0,1.33-10.98,3.05-16.51,1.72-5.54,2.72-25.15-1.9-27.96-2.23-1.35-7.37,1.26-27.65-4.46-20.28-5.72-32.18-14.25-34.78-12.09-2.6,2.16-11.67,12.96-13.24,20.17Z"/>
    <path class="cls-31" d="M607.99,317.94c5.16,11.17,12.72,19.91,22.99,25.49,10.08,5.47,19.76,4.55,21.74,3.42,10.86-6.21,15.59-11.71,21.78-20.98,1.68-2.52,2.68-5.48,3.42-8.6,1.12-4.67,2.93-13.74,4.33-18.11,3.57-11.12,5.42-21.63,2.13-32.89-6.86-23.46-37.53-32.37-50.5-30.43-15.17,2.27-25.04,13.24-30,26.61-1.62,4.36-2.43,8.65-2.49,12.83,1.25,2.66,2.19,5.41,2.84,8.23"/>
    <g>
      <path d="M685.04,267.42s1.86,1.61,1.89,13.31c0-5.1,1.44-8.07-.24-15.71-5.85-26.66-47.03-35.79-60.29-32.95-15.5,3.32-24.9,16.55-30.57,32.15-2.3,6.33.55,18.52.7,24.4.06.1-1.51,3.72-1.51,3.72,0,0,9.14-4.15,10.71,4.91l2.34-2.94s7.17-6.24,12.37-25.54c0,0,2.5-8.08,3.14-10.54,1.96-7.58,7.71-4.13,11.65-1.64,2.45,1.55,12.3,5.49,15.09,6.27,7.11,1.98,13.41,2.84,15.5,2.85,4.86,0,19.22,1.7,19.22,1.7Z"/>
      <path d="M684.86,267.49c.33.29.49.86.63,1.26.63,1.81.84,3.78,1,5.68.18,2.11.24,4.24.25,6.36,0,.1.39.03.39-.1.01-2.8.53-5.57.57-8.37.06-3.32-.48-6.7-1.48-9.87-1.52-4.81-4.3-9.12-7.79-12.74-3.59-3.73-7.88-6.74-12.41-9.2-4.6-2.5-9.5-4.44-14.52-5.92-4.51-1.33-9.13-2.3-13.8-2.79-3.47-.36-7.06-.54-10.51.05-5.84.99-11.37,3.84-15.84,7.68-4.94,4.24-8.73,9.68-11.67,15.44-1.57,3.07-3,6.28-4.1,9.55-.94,2.82-.89,5.95-.73,8.88.18,3.35.63,6.68,1.04,10.01.17,1.38.33,2.77.42,4.16.03.42.11.87,0,1.28-.12.45-.34.88-.52,1.31-.31.74-.62,1.48-.95,2.22-.05.11.24.05.27.04,2.63-1.19,6.32-1.52,8.51.68,1.13,1.13,1.66,2.68,1.94,4.22.02.13.33,0,.37-.05.99-1.23,1.88-2.41,2.92-3.51,1.54-1.64,2.81-3.53,3.96-5.45,4.53-7.57,6.82-16.06,9.35-24.44.54-1.77,1.08-3.54,1.56-5.33.53-1.95,1.4-4.38,3.68-4.76,1.83-.31,3.74.62,5.29,1.47,1.41.77,2.72,1.68,4.16,2.38,3.77,1.84,7.72,3.42,11.69,4.8,2.27.79,4.63,1.35,6.98,1.86,2.62.58,5.27,1.07,7.94,1.37,1.48.17,2.96.16,4.45.24,2,.11,4.01.28,6,.46,3.48.32,6.96.69,10.43,1.09.2.02.41.05.61.07.11.01.45-.17.24-.19-6.47-.76-12.98-1.54-19.49-1.7-2.09-.05-4.2-.42-6.25-.79-3.1-.55-6.21-1.22-9.22-2.12-3.9-1.17-7.72-2.82-11.43-4.49-1.56-.7-3.01-1.49-4.47-2.38-1.54-.94-3.2-1.88-4.99-2.21-1.5-.28-3.04,0-4.14,1.12-1.41,1.42-1.74,3.5-2.28,5.34-.95,3.3-2.02,6.57-2.95,9.88-1.5,5.34-3.39,10.6-5.95,15.54-1.36,2.61-2.9,5.18-4.8,7.44-.36.43-.75.85-1.15,1.25-.52.52-.94,1.13-1.4,1.7-.37.46-.73.92-1.1,1.37l.37-.05c-.46-2.54-1.75-4.93-4.39-5.65-1.74-.48-3.63-.24-5.33.27-.42.13-.85.27-1.26.45l.27.04c.33-.76.65-1.52.97-2.28.17-.4.36-.81.48-1.22.1-.34.05-.68.03-1.03-.17-2.94-.63-5.87-.97-8.8-.38-3.28-.71-6.61-.55-9.92.07-1.42.24-2.85.64-4.22.46-1.56,1.12-3.08,1.74-4.58,2.56-6.14,5.87-12.07,10.34-17.04,4.31-4.8,9.74-8.55,15.95-10.4,3.65-1.09,7.34-1.28,11.13-1.04,4.48.28,8.93,1.07,13.27,2.17,4.94,1.26,9.78,2.97,14.38,5.16,4.68,2.23,9.14,4.99,13.03,8.43,3.74,3.31,6.92,7.28,8.97,11.85,1.18,2.64,1.94,5.43,2.36,8.29.46,3.09.3,6.1-.01,9.19-.13,1.3-.23,2.6-.24,3.91l.39-.1c-.01-3.2-.1-6.45-.66-9.62-.2-1.13-.42-2.38-1.01-3.38-.07-.11-.14-.25-.24-.33-.09-.08-.45.06-.36.15Z"/>
    </g>
    <path class="cls-31" d="M605.71,307.05c-7.43,4.09-10.2-5.38-10.2-5.38-3.45-8.25-1.3-15.25.37-19.98,1.67-4.73,6.92-3.04,6.92-3.04,4.32,1.86,3.53,2.19,5.68,16.79"/>
    <path d="M639.99,290.8c-1.13-1.02-2.82-.83-3.87-.29-.25.13-.92.49-1.4,1.29-.61,1.02-.49,2.38,0,3.31.66,1.25,2.15,1.82,3.47,1.58,1.79-.33,2.81-2.12,2.78-3.62,0-.28-.07-1.44-.98-2.27"/>
    <path d="M645.47,298.24s-3-7.44-7.87-8.74c-6.85-1.83-9.39,1.4-11.36,2.91,0,0,5.58-3.28,10.84-1.75,4.78,1.39,8.39,7.58,8.39,7.58Z"/>
    <path d="M673.69,299.55c1.4-.36,2.67.59,3.28,1.56.14.23.51.87.53,1.79.01,1.18-.72,2.32-1.56,2.91-1.12.79-2.6.59-3.56-.24-1.3-1.13-1.28-3.18-.54-4.48.14-.24.74-1.23,1.87-1.53"/>
    <path d="M663.54,303.07s5.53-5.17,9.75-4.06c5.93,1.57,6.39,5.6,7.2,7.84,0,0-2.71-5.48-7.32-6.58-4.18-.99-9.62,2.79-9.62,2.79Z"/>
    <g>
      <path class="cls-9" d="M654.06,318.69c-1.45.32-3.34-.36-4.4-1.5-.24-.25-1.23-.34-.9.02,1.4,1.51,4.15,2.36,6.02,1.95.19-.04.19-.17,0-.3-.19-.13-.53-.21-.73-.16"/>
      <path class="cls-9" d="M648.31,316.69c-.74-.64-1.64-1.11-2.57-1.44-.14-.05-.33-.04-.46.02-.1.05-.14.14-.05.23.37.37.9.63,1.42.76.16.04.39.06.52-.06.12-.11-.01-.23-.14-.27-.43-.11-.84-.31-1.14-.62-.17.08-.34.17-.52.25.83.3,1.63.73,2.3,1.3.13.11.36.13.52.08.12-.03.27-.14.13-.26"/>
      <path class="cls-9" d="M644.49,315.78c-1.11-.33-2.29-1.18-2.61-2.17-.48-1.5.88-3.42,2.5-3.85.18-.05.13-.18-.02-.26-.19-.1-.45-.09-.63-.04-1.41.38-2.69,1.94-2.83,3.18-.13,1.16.72,2.23,1.97,2.92.37.2.78.38,1.19.51.17.05.49.08.61-.03.12-.11-.02-.21-.18-.26"/>
      <path class="cls-9" d="M656.26,318.68c-.02-.15.11-.2.2-.17.3.09.63.09.94-.05.07.15.13.3.2.44-.62-.1-1.28-.06-1.92.15-.13.04-.27-.05-.34-.15-.06-.08-.09-.24.03-.29"/>
      <path class="cls-9" d="M655.37,318.61c.71-.24,1.45-.27,2.15-.16.1.02.22.1.26.22.04.09.02.19-.07.23"/>
      <path class="cls-9" d="M658.54,319.46c.73.17,1.72-.09,2.31-.83.89-1.12.8-2.77.12-3.83-.07-.12,0-.22.12-.22.14,0,.28.11.35.23.6.92.79,2.21.35,3.37-.42,1.08-1.32,1.67-2.28,1.76-.28.03-.58.02-.85-.05-.11-.03-.29-.13-.31-.28-.02-.15.1-.18.2-.16"/>
    </g>
    <path d="M649.76,277.83c0,1.13,0,2.26.01,3.39,0,.86,0,1.72,0,2.58-2.54-.71-6.04-1.22-7.68-1.52-3.25-.6-6.64-.96-9.92-.4-1.57.27-2.95.71-4.26,1.59-.41.28-1.52,1.47-2.14,1.17-.25-.12.15-1.51.19-1.66.83-2.8,3.04-3.98,5.75-4.66,5.52-1.39,11.08-1.27,16.71-.54"/>
    <path d="M683.7,296.81c.18-.7.43-1.38.78-2.02-.32-.48-.68-.95-1.09-1.41-3.7-4.22-8.28-7.22-13.26-9.74-.64.93-1.28,1.86-1.93,2.79-.49.71-.98,1.42-1.46,2.13,2.46.82,4.49,1.65,5.99,2.32,2.98,1.31,5.93,2.9,8.28,5.19.68.66,1.26,1.34,1.74,2.1l.95-1.35Z"/>
    <path class="cls-52" d="M605.3,294.29c-.25-2.64-.58-5.3-1.33-7.85-.33-1.15-.75-2.35-1.49-3.31-.23-.3-.55-.67-.94-.77-.2-.05-.41.02-.6.09-.47.19-.92.44-1.34.74-1.93,1.36-2.99,3.48-3.23,5.8-.01.1.7.03.72-.19.25-2.48,1.57-4.89,3.8-6.04.07-.03.13-.07.2-.1.04-.02.2-.09.08-.04.04-.02.09-.04.14-.05l-.36.06c-.13-.02-.02,0,.01.01.05.03-.03-.02.05.02.04.02.08.04.12.07.27.17.5.42.69.68.39.53.67,1.14.92,1.75.41,1.04.7,2.13.94,3.23.44,2.01.69,4.05.88,6.09.01.14.74,0,.72-.19h0Z"/>
    <path class="cls-52" d="M603.87,295.24c-.65-.24-1.4-.23-1.99.17-.49.33-.71.91-.86,1.46-.18.68-.25,1.39-.36,2.09-.08.56-.14,1.19-.43,1.69-.04.08-.09.15-.16.21-.02.02-.08.06-.09.06,0-.04.2-.03.21-.05,0-.01-.01,0-.02-.01-.05-.08-.17-.13-.23-.23-.08-.14-.14-.29-.18-.44-.29-1-.25-2.13-.2-3.16.04-.74.12-1.48.22-2.21.03-.2.05-.4.11-.6.15-.48.33-.95.53-1.4.64-1.41,1.77-3.37,3.52-3.43.13,0,.41-.05.48-.17s-.07-.13-.17-.12c-1.83.07-3.18,1.37-4.04,2.87-.35.6-.63,1.24-.87,1.89-.18.49-.26.93-.33,1.45-.18,1.33-.29,2.7-.16,4.04.05.51.11,1.64.75,1.81.6.16,1.21-.3,1.43-.83.25-.6.3-1.28.39-1.92.11-.77.19-1.59.52-2.31.12-.27.29-.53.54-.69.03-.02.04-.02.05-.02-.05,0,.1,0,.13,0,.21,0,.41.07.6.14.15.05.38-.02.51-.09.08-.04.24-.14.09-.19h0Z"/>
    <path class="cls-31" d="M342.42,364.07l-2.22,84.48-40.3,21.82s-14.84-13.85-14.6-39.83c.26-28.05,57.12-66.47,57.12-66.47Z"/>
    <polyline class="cls-20" points="-67.98 1065.54 1362.14 1065.54 1362.14 938.89 -67.98 938.89"/>
    <rect class="cls-41" x="1273.97" y="37.97" width="28.08" height="901"/>
    <rect class="cls-41" x="849.11" y="20.48" width="452.94" height="22.3"/>
    <rect class="cls-41" x="849.11" y="37.97" width="22.86" height="901"/>
    <polygon class="cls-47" points="1035.12 8.28 1279.78 39.3 1279.78 939.27 1035.12 972.84 1035.12 8.28"/>
    <rect class="cls-51" x="1008.77" y="8.25" width="26.35" height="963.78"/>
    <g>
      <path class="cls-12" d="M1075.15,496.52h42.26c2.79,0,5.06,3.15,5.06,7.05h0c0,3.89-2.27,7.05-5.06,7.05h-42.26c-2.79,0-5.06-3.15-5.06-7.05h0c0-3.89,2.27-7.05,5.06-7.05Z"/>
      <path class="cls-12" d="M1075.06,511.97c-.31,0-.62-.02-.93-.06-1.84-.2-3.76-1.1-4.85-3.09-.61-1.12-.91-2.49-1.06-3.87-.16-1.57-.13-3.21.31-4.68.79-2.66,2.92-3.89,4.88-4.45.47-.14,6.27-.86,6.27-.46v-25.28c0-7.33-4.44-13.26-9.91-13.26h-.02c-5.48,0-9.91,5.94-9.91,13.26v91.41c0,7.33,4.44,13.26,9.91,13.26h.02c5.48,0,9.91-5.94,9.91-13.26v-43.33c0-2.14,0-4.27-.01-6.41-1.54-.02-3.08.24-4.61.2ZM1072.05,549.76v5.18c0,1.12-.68,2.04-1.52,2.04-.83-.02-1.5-.92-1.5-2.04v-5.18c-1.21-.75-1.98-2.39-1.95-4.17.04-2.48,1.57-4.44,3.42-4.39,1.85.05,3.32,2.1,3.28,4.58.01,1.65-.65,3.18-1.74,3.98Z"/>
    </g>
    <rect class="cls-12" x="1017.42" y="465.51" width="10.24" height="96.83"/>
    <path class="cls-43" d="M1072.05,549.76v5.18c0,1.12-.68,2.04-1.52,2.04-.83-.02-1.5-.92-1.5-2.04v-5.18c-1.21-.75-1.98-2.39-1.95-4.17.04-2.48,1.57-4.44,3.42-4.39,1.85.05,3.32,2.1,3.28,4.58.01,1.65-.65,3.18-1.74,3.98Z"/>
    <rect class="cls-49" x="871.57" y="43.2" width="136.79" height="893.73"/>
    <rect class="cls-24" x="871.53" y="43.27" width="136.79" height="852.53"/>
    <rect class="cls-53" x="871.57" y="882.45" width="136.79" height="56.85"/>
    <polygon class="cls-16" points="930.96 182.2 932.33 186.4 936.74 186.4 933.17 188.99 934.53 193.19 930.96 190.6 927.39 193.19 928.75 188.99 925.18 186.4 929.6 186.4 930.96 182.2"/>
    <polygon class="cls-16" points="948.28 199.92 949.06 202.32 951.58 202.32 949.54 203.81 950.32 206.21 948.28 204.73 946.24 206.21 947.02 203.81 944.97 202.32 947.5 202.32 948.28 199.92"/>
    <polygon class="cls-16" points="902.95 335.32 903.73 337.72 906.25 337.72 904.21 339.21 904.99 341.61 902.95 340.12 900.9 341.61 901.68 339.21 899.64 337.72 902.17 337.72 902.95 335.32"/>
    <polygon class="cls-16" points="983.39 162.29 984.17 164.7 986.69 164.7 984.65 166.18 985.43 168.58 983.39 167.1 981.34 168.58 982.12 166.18 980.08 164.7 982.61 164.7 983.39 162.29"/>
    <polygon class="cls-16" points="914.2 90.97 914.98 93.37 917.51 93.37 915.47 94.85 916.25 97.26 914.2 95.77 912.16 97.26 912.94 94.85 910.9 93.37 913.42 93.37 914.2 90.97"/>
    <polygon class="cls-16" points="986.69 254.22 987.47 256.63 990 256.63 987.96 258.11 988.74 260.51 986.69 259.03 984.65 260.51 985.43 258.11 983.39 256.63 985.91 256.63 986.69 254.22"/>
    <polygon class="cls-16" points="971.09 270.76 972.31 274.52 976.26 274.52 973.07 276.84 974.29 280.59 971.09 278.27 967.9 280.59 969.12 276.84 965.92 274.52 969.87 274.52 971.09 270.76"/>
    <polygon class="cls-16" points="914.2 351.45 915.42 355.21 919.37 355.21 916.18 357.53 917.4 361.28 914.2 358.96 911.01 361.28 912.23 357.53 909.04 355.21 912.98 355.21 914.2 351.45"/>
    <polygon class="cls-16" points="917.51 215.12 918.29 217.52 920.81 217.52 918.77 219 919.55 221.41 917.51 219.92 915.47 221.41 916.25 219 914.2 217.52 916.73 217.52 917.51 215.12"/>
    <polygon class="cls-16" points="901.56 170.19 902.34 172.59 904.87 172.59 902.83 174.08 903.61 176.48 901.56 175 899.52 176.48 900.3 174.08 898.26 172.59 900.78 172.59 901.56 170.19"/>
    <polygon class="cls-16" points="954.89 125.98 956.5 130.95 961.73 130.95 957.5 134.03 959.12 138.99 954.89 135.92 950.66 138.99 952.28 134.03 948.05 130.95 953.27 130.95 954.89 125.98"/>
    <polygon class="cls-22" points="202.25 915.96 243.44 908.32 247.44 882.48 202.36 875.58 202.25 915.96"/>
    <g>
      <path class="cls-11" d="M314.09,941.15s1.51-6.93-4.88-9.51c-6.39-2.59-20.84-6.95-31.51-12.15-14.81-7.23-23.47-17.95-30.06-18.49-6.7-.55-5.49,9.68-20.12,9.87-14.51.19-25.36-7.06-26.03-7.28-3.31,1.79-9.44,22.78-5.57,28.08,3.87,5.3,39.23,8.02,39.23,8.02l28.28,5.58,28.33,1.28,22.32-5.4Z"/>
      <path class="cls-19" d="M222.6,938.3c.25-4.46-.44-10.34-5.24-12.16-3.29-1.25-6.69-2.21-9.95-3.54-2.33-.95-4.71-2.14-6.35-4.1-2.36-2.83-2.5-6.54-1.87-10.01.02-.12-.51-.04-.53.1-.55,3.05-.58,6.28,1.09,9,1.31,2.14,3.45,3.53,5.68,4.57,2.87,1.34,5.94,2.26,8.93,3.3,1.55.54,3.22.97,4.5,2.04.96.81,1.66,1.87,2.15,3.02,1.05,2.48,1.2,5.29,1.05,7.95,0,.08.53.02.54-.14h0Z"/>
      <path class="cls-19" d="M199.9,905.3c4.62,3.19,9.63,5.64,15.18,6.71,3.47.66,6.98.78,10.51.67,2.91-.09,5.83-.27,8.7-.75,1.75-.29,3.46-.72,5.16-1.22,2.9-.85,5.98-1.78,9.03-1.7,3.37.1,6.58,1.55,9.5,3.13,3.39,1.84,6.61,3.99,9.87,6.04,1.61,1.01,3.24,2,4.89,2.94.85.49,1.71.96,2.57,1.42.34.18.68.43,1.07.48,1.29.15,2.59-.69,2.8-1.99.1-.6,0-1.22-.12-1.82-.05-.22-.59-.08-.54.14.22.99.35,2.35-.63,2.99-.35.23-.94.4-1.36.32-.13-.03-.25-.12-.37-.19-.41-.23-.84-.44-1.25-.67-.82-.45-1.64-.91-2.45-1.38-1.63-.95-3.24-1.94-4.83-2.95-3.11-1.95-6.17-3.99-9.41-5.73-2.69-1.44-5.59-2.74-8.66-3.04-4.76-.46-9.28,1.66-13.85,2.61-2.44.51-4.92.75-7.41.89-3.61.21-7.24.28-10.84-.2-3.31-.44-6.55-1.33-9.6-2.67-2.66-1.17-5.15-2.67-7.54-4.32-.17-.12-.66.13-.42.29h0Z"/>
      <path class="cls-19" d="M244.24,941.28c-1.96-.39-3.93-.77-5.89-1.16l.06.22c3.04-2.79,6.77-4.67,10.78-5.61,4.69-1.11,9.6-.84,14.39-.91,4.65-.07,9.3-.15,13.94-.5,3.37-.25,6.9-.55,10.1-1.71,1.06-.38,2.2-.91,2.91-1.83,1.23-1.59.32-3.79-.55-5.31-.1-.17-.62,0-.5.22.83,1.46,1.75,3.66.47,5.14-.71.83-1.82,1.28-2.84,1.61-3.36,1.12-7.03,1.37-10.53,1.6-4.64.31-9.3.38-13.95.45s-9.09-.12-13.51.93c-4.14.98-8,2.93-11.14,5.81-.08.08-.06.2.06.22,1.96.39,3.93.77,5.89,1.16.2.04.64-.26.32-.32h0Z"/>
      <g>
        <path class="cls-50" d="M240.38,940.6l.13.14-.24-.05s.07-.07.11-.1Z"/>
        <path class="cls-29" d="M240.24,940.65s.08.08.11.13l.02.02.24-.14c-.07-.01-.14-.03-.21-.04h-.03s.02.06.03.09c.04-.03.07-.07.11-.1.02-.01.04-.04.03-.06s-.04-.03-.06-.04c-.04,0-.08,0-.11,0s-.07.02-.1.05c-.04.03-.07.07-.11.1-.01.01-.04.04-.03.06,0,.02.03.03.06.04.07.01.14.03.21.04h.03s.02,0,.03,0c.02,0,.04,0,.06,0,.03,0,.07-.02.1-.03s.08-.06.05-.1c-.04-.04-.08-.08-.11-.13l-.02-.02s-.02-.01-.03-.02c-.02,0-.03,0-.05,0-.02,0-.04,0-.06,0-.02,0-.04,0-.06.02l-.04.02s-.04.02-.05.04c-.01.02-.02.04,0,.06Z"/>
      </g>
      <g>
        <path class="cls-50" d="M230.51,937.37h1.17c0,.89.07,1.6.13,2.02-.37-.03-.77-.07-1.19-.11-.06-.46-.11-1.12-.1-1.91Z"/>
        <path class="cls-29" d="M230.44,937.45c.34,0,.68,0,1.02,0h.15s-.06-.02-.09-.03c0,.57.02,1.13.09,1.69.01.11.03.21.04.32l.25-.12c-.4-.04-.8-.07-1.19-.11l.06.03c-.08-.63-.11-1.27-.1-1.91,0-.07-.31-.02-.31.08,0,.64.03,1.27.1,1.91,0,.02.04.03.06.03.4.04.8.08,1.19.11.06,0,.12,0,.17-.03.03-.01.09-.04.08-.08-.07-.48-.11-.96-.12-1.45,0-.19,0-.37,0-.56,0-.03-.07-.03-.09-.03-.34,0-.68,0-1.02,0h-.15c-.07,0-.16.02-.21.08s.04.07.08.07Z"/>
      </g>
      <g>
        <path class="cls-50" d="M225.29,936.1c.02.85,0,1.73-.05,2.61h-.17c-.33-.05-.66-.09-.99-.12.05-.83.07-1.65.04-2.45l1.17-.03Z"/>
        <path class="cls-29" d="M225.13,936.11c.02.87,0,1.74-.05,2.61l.21-.12c-.39-.02-.78-.08-1.17-.12l.1.08c.05-.82.07-1.63.04-2.45l-.17.11c.34,0,.68-.02,1.02-.03h.15c.06,0,.16-.05.17-.12.01-.08-.09-.08-.14-.08-.34,0-.68.02-1.02.03h-.15c-.05,0-.17.05-.17.12.02.82,0,1.63-.04,2.45,0,.06.05.08.1.08.39.05.78.11,1.17.12.06,0,.21-.03.21-.12.05-.87.07-1.74.05-2.61,0-.07-.08-.09-.14-.08-.05,0-.17.04-.17.11Z"/>
      </g>
      <g>
        <path class="cls-9" d="M192.59,931.84s.42.05,1.11.13l.25-.97c4.35.52,19.34,2.36,28.48,3.94,2.79.48,6.3,1.29,10.37,2.22,9.43,2.16,22.35,5.11,36.06,6.23,2.46.2,4.89.34,7.23.41,19.6.59,35.82-2.46,39.31-3.17l.13.99c.54-.11.82-.17.82-.17,0,0,.29,1.35.54,2.59h0c.02.11.04.21.07.32.09.44.18.85.24,1.14-9.72,5.02-51.4,4.6-60.76,2.01-.59-.16-1.23-.33-1.9-.51-.27-.07-.58-.14-.86-.22-.44-.11-.88-.22-1.34-.33-10.05-2.45-24.99-5.3-24.99-5.3,0,0,.04,1.38,0,3h0s0,.03,0,.05c-.02.69-.06,1.41-.12,2.09-17.6-.28-35.82-3.42-35.82-3.42l1.2-11.02Z"/>
        <path class="cls-29" d="M192.46,931.9c.37.04.74.09,1.11.13.05,0,.26-.01.28-.09l.25-.97-.28.09c6.75.81,13.5,1.67,20.24,2.65,3.86.56,7.73,1.13,11.56,1.94,4.4.92,8.76,1.98,13.15,2.95,9.77,2.16,19.63,3.99,29.6,4.82s19.95.63,29.87-.3c3.59-.34,7.16-.77,10.72-1.31,2.04-.31,4.12-.6,6.14-1.07.23-.05.18-.09.16.14-.01.25.07.54.1.79,0,.03.11.01.12,0,.15-.03.67-.23.8-.17-.18-.09-.04.3-.03.36.15.74.31,1.47.46,2.21.01.06.24-.03.27-.04h0c-.09.01-.18.03-.27.04.07.32.42,1.24.24,1.48-.09.12-.45.21-.58.27-.42.18-.84.33-1.27.48-1.05.35-2.13.62-3.21.85-2.71.58-5.47.95-8.23,1.23-6.77.71-13.59.93-20.39.95-6.31.01-12.64-.14-18.92-.71-2.14-.19-4.28-.42-6.39-.84-1.4-.28-2.78-.7-4.16-1.05-2.07-.52-4.14-1.01-6.23-1.48-6.55-1.48-13.14-2.82-19.73-4.09-.12-.02-.25-.05-.37-.07-.05,0-.28.02-.28.1.03,1,.02,2,0,3,0,.02.05.02.05.02-.06,0-.16,1.92-.17,2.12l.26-.1c-9.75-.16-19.48-1.09-29.14-2.42-2.15-.3-4.3-.6-6.44-.97-.15-.03-.17-.03-.18-.06-.07-.16.06-.59.08-.76l.37-3.37c.25-2.29.5-4.57.74-6.86,0-.03-.3,0-.31.08-.35,3.22-.7,6.44-1.05,9.65-.05.46-.1.91-.15,1.37,0,0,.01.01.03.01,8.1,1.4,16.31,2.31,24.5,2.9,3.77.27,7.56.46,11.34.52.05,0,.25-.03.26-.1.06-.71.08-1.43.12-2.14,0-.02-.05-.02-.05-.02.1,0,.07-2.63.06-2.98l-.28.1c5.74,1.1,11.46,2.27,17.17,3.51,4.13.9,8.22,1.94,12.33,2.95,1.92.47,3.9.71,5.86.91,6.08.64,12.21.82,18.31.86,6.88.04,13.77-.14,20.62-.75,2.86-.25,5.71-.58,8.54-1.09,2.1-.38,4.23-.83,6.21-1.63.36-.14.71-.3,1.05-.48,0,0,.04-.02.04-.04-.1-.49-.2-.98-.3-1.47-.01-.06-.24.03-.27.04h0c.09-.01.18-.03.27-.04-.18-.86-.36-1.72-.54-2.59,0-.03-.11-.01-.12,0-.12.03-.23.05-.35.07-.05.01-.26.09-.3.07-.1-.05.01.03-.06-.12-.11-.2-.08-.61-.11-.84,0-.03-.11-.01-.12,0-5.19,1.06-10.46,1.77-15.73,2.3-9.82.99-19.75,1.28-29.6.55s-19.59-2.45-29.24-4.54c-4.26-.92-8.51-1.93-12.76-2.87-3.82-.84-7.65-1.5-11.52-2.08-7.02-1.06-14.07-1.96-21.11-2.82-.46-.06-.92-.11-1.38-.17-.05,0-.26.01-.28.09l-.25.97.28-.09c-.37-.04-.74-.09-1.11-.13-.07,0-.33.1-.26.11Z"/>
      </g>
      <g>
        <path class="cls-9" d="M251.83,907.2c-.18.27-.5.41-.82.38-.14-.01-.27-.05-.4-.13-.41-.25-.52-.76-.26-1.15l2.94-4.36c.48.28.97.59,1.47.91l-2.94,4.35Z"/>
        <path class="cls-29" d="M251.68,907.23c-.16.22-.38.33-.65.28-.24-.05-.46-.21-.57-.43-.14-.27-.11-.57.06-.82s.35-.51.52-.77l1.91-2.83c.17-.25.33-.5.5-.74l-.3.08c.23.13.46.27.68.41.12.07.23.14.34.22.12.08.24.18.37.24.07.03.06,0,.04.05-.02.04-.05.07-.07.1l-.63.93-1.78,2.63c-.15.22-.29.43-.44.65-.03.05.11.03.12.03.06,0,.15-.03.18-.08.33-.49.66-.98.99-1.47l1.58-2.33c.12-.18.24-.36.37-.54,0-.01,0-.02,0-.02-.48-.31-.97-.62-1.47-.91-.07-.04-.25.01-.3.08-.49.73-.98,1.45-1.47,2.18s-1,1.44-1.47,2.18c-.28.43-.11,1,.35,1.22s1.12.05,1.43-.38c.03-.05-.11-.03-.12-.03-.06.01-.14.03-.18.08Z"/>
      </g>
      <g>
        <path class="cls-9" d="M256.1,909.8c-.18.27-.5.41-.82.38-.14-.01-.27-.05-.4-.13-.41-.25-.53-.76-.26-1.15l2.82-4.18c.46.33.92.67,1.39,1.03l-2.74,4.05Z"/>
        <path class="cls-29" d="M255.96,909.81c-.14.2-.35.33-.6.3s-.47-.17-.6-.38c-.16-.26-.15-.59.02-.85.16-.24.32-.48.49-.72.61-.91,1.23-1.82,1.84-2.73l.49-.72-.29.06c.46.34.93.68,1.39,1.03v-.05c-.3.46-.61.91-.92,1.37-.49.73-.98,1.46-1.47,2.18-.11.17-.22.33-.34.5-.06.1.24.06.28-.01.31-.46.62-.91.93-1.37.49-.73.98-1.46,1.47-2.18.11-.17.22-.33.34-.5,0-.01.02-.03,0-.05-.46-.34-.92-.69-1.39-1.03-.06-.05-.24,0-.29.06-.48.7-.95,1.41-1.43,2.11-.32.48-.65.96-.97,1.44-.15.22-.32.45-.46.68-.25.41-.08.95.33,1.17.47.26,1.14.1,1.46-.34.07-.09-.23-.05-.28.01Z"/>
      </g>
      <g>
        <path class="cls-9" d="M262.85,908.76l-2.46,3.65c-.18.27-.5.41-.82.38-.14-.01-.27-.05-.4-.13-.41-.25-.52-.76-.26-1.15l2.56-3.79c.45.34.91.69,1.38,1.04Z"/>
        <path class="cls-29" d="M262.7,908.76c-.34.51-.68,1.01-1.03,1.52-.45.67-.9,1.34-1.35,2-.03.04-.06.08-.08.13-.24.35-.68.39-1.01.13-.27-.21-.37-.58-.25-.9.03-.08.08-.15.13-.23l1.29-1.91.76-1.12c.14-.21.3-.42.43-.64,0-.01.01-.02.02-.03l-.29.06c.46.35.92.69,1.38,1.04.08.06.36-.06.29-.12-.46-.34-.92-.69-1.38-1.04-.07-.05-.24-.01-.29.06-.36.53-.71,1.05-1.07,1.58l-1.4,2.08s-.07.1-.1.14c-.18.28-.19.64,0,.92.4.62,1.38.52,1.78-.04s.77-1.14,1.16-1.72c.43-.63.86-1.26,1.28-1.89,0-.01.02-.02.02-.03.07-.11-.23-.07-.28,0Z"/>
      </g>
      <g>
        <path class="cls-9" d="M264.66,915.01c-.18.27-.5.41-.82.38-.14-.01-.27-.05-.4-.13-.41-.25-.53-.76-.26-1.15l2.31-3.42c.46.33.93.66,1.41,1l-2.24,3.32Z"/>
        <path class="cls-29" d="M264.53,914.97c-.24.34-.69.42-1.03.16-.27-.2-.37-.58-.23-.88.09-.2.24-.37.36-.55.52-.77,1.04-1.54,1.56-2.31.14-.21.29-.43.43-.64l-.25.04c.47.34.93.67,1.41,1v-.14c-.67.97-1.32,1.94-1.98,2.91-.09.14-.18.27-.27.41-.11.16.18.22.26.1.65-.97,1.31-1.94,1.96-2.91.09-.14.18-.27.27-.41.03-.05.04-.1-.01-.14-.47-.33-.94-.66-1.41-1-.07-.05-.2-.03-.25.04-.42.61-.83,1.23-1.25,1.84l-.8,1.18c-.16.24-.38.5-.42.79-.06.42.21.81.6.97.46.18,1.01.02,1.3-.38.11-.16-.18-.22-.26-.1Z"/>
      </g>
      <g>
        <path class="cls-9" d="M268.94,917.62c-.18.27-.5.41-.82.38-.14-.01-.27-.05-.4-.13-.41-.25-.52-.76-.26-1.15l2.15-3.19c.48.31.95.63,1.45.94l-2.12,3.15Z"/>
        <path class="cls-29" d="M268.78,917.65c-.1.14-.24.27-.42.29-.2.02-.4-.05-.56-.16-.27-.2-.39-.55-.3-.87.07-.22.24-.42.37-.61l1.47-2.18c.14-.21.28-.41.42-.62l-.3.08c.35.23.69.46,1.04.68.09.05.17.11.26.16.02,0,.14.08.14.07,0,0-.03.04-.03.04l-.42.62c-.44.66-.89,1.32-1.33,1.97-.11.17-.23.34-.34.51-.03.04.11.03.12.02.06,0,.15-.03.18-.08.62-.92,1.24-1.84,1.86-2.76.09-.13.17-.26.26-.39,0,0,0-.02,0-.02-.49-.31-.97-.62-1.45-.94-.06-.04-.26.02-.3.08-.4.59-.8,1.18-1.19,1.77l-.74,1.1c-.17.26-.37.5-.35.83.03.41.37.73.77.79.42.06.9-.11,1.15-.46.03-.04-.11-.03-.12-.02-.06,0-.15.03-.18.08Z"/>
      </g>
      <g>
        <path class="cls-50" d="M188.43,919.61h-.02s0,0,0,0c0,0,.02,0,.02,0Z"/>
        <path class="cls-29" d="M188.36,919.52h-.02c.07.02.15.04.22.06,0,0,0-.01,0-.02l-.24.15s.02,0,.02,0c.02,0,.04,0,.06,0,.02,0,.04,0,.06,0,.02,0,.04-.01.06-.03.02,0,.03-.02.04-.04.02-.02.04-.06.03-.09v-.03s-.04-.03-.07-.04c0,0-.02,0-.02,0h-.04s-.03,0-.04,0h-.04s-.04.02-.06.03c-.01,0-.02.01-.03.02,0,0-.02.02-.02.03,0,0-.01.02-.01.03,0,.01,0,.03,0,.04,0,0,0,.01,0,.02.01.04.05.06.08.07.05.01.09,0,.14-.02h.02s.03-.03.05-.04c.01-.01.02-.02.03-.04.01-.03.01-.06,0-.09-.02-.03-.05-.04-.09-.04h-.04s-.06,0-.08.02Z"/>
      </g>
    </g>
    <polygon class="cls-22" points="142.94 922.2 190.94 919.67 191.69 904.69 143.91 902.7 142.94 922.2"/>
    <g>
      <path class="cls-11" d="M257.86,945.34s1.54-6.93-4.95-9.51c-6.48-2.59-21.15-6.95-31.96-12.15-15.03-7.23-23.81-17.95-30.49-18.49-6.79-.55-5.57,9.68-20.41,9.87-14.72.19-25.72-7.06-26.41-7.28-3.36,1.79-9.58,22.78-5.65,28.08,3.93,5.3,39.8,8.02,39.8,8.02l28.69,5.58,28.74,1.28,22.64-5.4Z"/>
      <path class="cls-19" d="M165.05,942.49c.26-4.5-.48-10.35-5.32-12.17-3.24-1.22-6.58-2.16-9.8-3.42-2.44-.96-4.95-2.14-6.69-4.16-2.43-2.81-2.58-6.56-1.94-10.06.03-.15-.51-.06-.54.09-.57,3.08-.58,6.34,1.15,9.06,1.33,2.1,3.47,3.46,5.68,4.49,2.96,1.37,6.13,2.3,9.21,3.36,1.55.53,3.21.96,4.49,2.03.97.82,1.68,1.9,2.17,3.06,1.03,2.46,1.18,5.24,1.03,7.87,0,.1.53.03.54-.14h0Z"/>
      <path class="cls-19" d="M142.03,909.51c4.67,3.17,9.71,5.62,15.29,6.69,3.55.69,7.14.8,10.74.7,2.96-.09,5.93-.27,8.85-.75,4.75-.78,9.33-2.96,14.2-2.93,3.37.02,6.62,1.43,9.55,2.97,3.51,1.85,6.83,4.04,10.21,6.13,1.67,1.03,3.35,2.04,5.05,3,.81.46,1.63.9,2.45,1.34.39.21.8.51,1.24.57,1.29.17,2.6-.68,2.83-1.97.11-.62.01-1.26-.12-1.86-.06-.26-.6-.12-.54.14.22.98.35,2.3-.62,2.94-.37.25-.97.42-1.42.34-.15-.03-.29-.14-.42-.21-.47-.25-.95-.5-1.43-.75-.83-.45-1.66-.91-2.48-1.38-1.65-.95-3.27-1.94-4.89-2.95-3.14-1.95-6.25-3.98-9.53-5.7-2.74-1.44-5.7-2.72-8.82-2.98-4.81-.39-9.36,1.72-13.99,2.65-2.45.49-4.95.73-7.44.87-3.61.2-7.24.27-10.84-.19-3.34-.43-6.6-1.3-9.69-2.62-2.74-1.18-5.31-2.7-7.78-4.37-.21-.14-.67.14-.41.32h0Z"/>
      <path class="cls-19" d="M187.01,945.47c-1.99-.39-3.99-.77-5.98-1.16l.06.22c3.08-2.78,6.84-4.65,10.87-5.6,4.73-1.11,9.68-.85,14.5-.93s9.44-.15,14.15-.5c3.45-.25,7.08-.54,10.36-1.71,1.07-.38,2.22-.9,2.95-1.81,1.28-1.59.36-3.81-.54-5.35-.1-.18-.63,0-.5.22.85,1.47,1.79,3.72.44,5.19-.75.82-1.89,1.26-2.92,1.6-3.43,1.1-7.16,1.36-10.73,1.59-4.71.3-9.44.37-14.16.44s-9.1-.11-13.53.92c-4.2.97-8.12,2.92-11.33,5.82-.08.08-.06.2.06.22,1.99.39,3.99.77,5.98,1.16.2.04.64-.26.32-.32h0Z"/>
      <g>
        <path class="cls-50" d="M183.09,944.79l.13.14-.24-.05s.07-.07.11-.1Z"/>
        <path class="cls-29" d="M182.95,944.85s.08.08.11.13l.02.02.24-.15c-.07-.01-.14-.03-.21-.04h-.03s.02.07.03.11c.04-.03.07-.07.11-.1.02-.02.04-.05.03-.07s-.04-.04-.06-.05c-.08-.02-.16,0-.22.06-.04.03-.07.07-.11.1-.01,0-.02.02-.02.03,0,.01,0,.02,0,.04,0,.03.03.04.06.05.07.01.14.03.21.04h.03s.06.01.09,0,.07-.02.1-.04c.02-.01.04-.03.05-.04.01-.02.02-.05,0-.07-.04-.04-.08-.08-.11-.13l-.02-.02s-.06-.03-.08-.03c-.02,0-.04,0-.06,0-.02,0-.04,0-.06.02l-.03.02s-.03.03-.05.04c-.01.02-.02.05,0,.07Z"/>
      </g>
      <g>
        <path class="cls-50" d="M173.07,941.56h1.18c0,.89.07,1.6.13,2.02-.38-.03-.78-.07-1.21-.11-.06-.46-.11-1.12-.11-1.91Z"/>
        <path class="cls-29" d="M173.01,941.64c.35,0,.69,0,1.04,0h.15s-.06-.02-.09-.04c0,.57.02,1.13.09,1.69.01.11.03.21.04.32l.25-.12c-.4-.04-.81-.07-1.21-.11l.06.04c-.08-.63-.11-1.27-.11-1.91,0-.02-.04-.03-.06-.04-.04,0-.08,0-.11,0-.05.02-.14.04-.14.11,0,.64.03,1.27.11,1.91,0,.02.04.03.06.04.4.04.81.08,1.21.11.06,0,.12,0,.17-.03.03-.02.08-.04.08-.09-.07-.48-.11-.96-.13-1.45,0-.19,0-.37,0-.56,0-.04-.07-.04-.09-.04-.35,0-.69,0-1.04,0h-.15c-.07,0-.16.02-.2.08s.04.08.08.08Z"/>
      </g>
      <g>
        <path class="cls-50" d="M167.78,940.29c.02.85,0,1.73-.05,2.61h-.17c-.33-.05-.67-.09-1.01-.12.05-.83.07-1.65.05-2.45l1.19-.03Z"/>
        <path class="cls-29" d="M167.62,940.3c.02.87,0,1.74-.05,2.61l.21-.12c-.4-.02-.79-.08-1.18-.12l.1.09c.05-.82.07-1.63.05-2.45l-.17.12c.35,0,.69-.02,1.04-.03h.15c.07,0,.16-.05.17-.13,0-.08-.08-.1-.14-.09-.35,0-.69.02-1.04.03h-.15c-.06,0-.17.05-.17.13.02.82,0,1.63-.05,2.45,0,.06.05.09.1.09.39.05.79.11,1.18.12.07,0,.2-.03.21-.12.06-.87.07-1.74.05-2.61,0-.07-.07-.1-.14-.09-.05,0-.17.05-.17.12Z"/>
      </g>
      <g>
        <path class="cls-9" d="M136.55,942.64s-.11-6.48.58-6.4l.25-.97c4.36.52,19.4,2.34,28.57,3.93,2.8.48,6.32,1.28,10.4,2.21,9.46,2.15,22.41,5.1,36.17,6.21,2.46.2,4.9.34,7.25.4,19.66.57,35.93-2.48,39.43-3.2l.13.99c.54-.11.82-.17.82-.17,0,0,.29,1.35.54,2.58h0c.02.11.04.21.07.32.09.44.18.85.24,1.14-9.75,5.02-51.56,4.63-60.95,2.05-.59-.16-1.23-.33-1.9-.5-.28-.07-.58-.14-.86-.22-.44-.11-.88-.22-1.35-.33-10.08-2.44-25.06-5.29-25.06-5.29,0,0,.04,1.38,0,3h0s0,.03,0,.05c-.02.69-.06,1.41-.12,2.09-17.66-.26-34.24-3.13-34.24-3.13l.05-4.76Z"/>
        <path class="cls-29" d="M136.7,942.6c-.02-.95,0-1.91.02-2.86.02-.73.05-1.46.13-2.19.03-.26.06-.53.12-.79.02-.09.06-.19.08-.28.03-.12.16-.16.01-.16.06,0,.2-.03.21-.1l.25-.97-.25.1c6.78.81,13.55,1.67,20.3,2.64,3.88.56,7.76,1.13,11.59,1.93,4.41.92,8.79,1.98,13.19,2.94,9.8,2.15,19.69,3.97,29.69,4.81s19.97.61,29.9-.32c3.62-.34,7.24-.78,10.84-1.33,1.23-.19,2.46-.39,3.69-.61.8-.14,1.65-.23,2.43-.46.23-.07.17-.11.16.12-.02.25.07.54.1.79,0,.04.1.04.13.03.29-.06.58-.12.86-.18l-.17-.03c.18.86.36,1.72.54,2.58.02.08.21.02.25,0h0c-.08,0-.16,0-.25,0,.06.28.12.57.18.85.02.11.15.5.1.58-.08.12-.45.21-.59.27-.41.18-.84.33-1.27.48-1.03.34-2.08.61-3.14.84-2.71.59-5.47.96-8.23,1.25-6.8.72-13.66.96-20.49.98-6.36.02-12.73-.13-19.07-.69-2.17-.19-4.35-.42-6.49-.84-1.37-.27-2.71-.68-4.06-1.02-2.1-.52-4.21-1.02-6.32-1.49-6.58-1.48-13.2-2.82-19.82-4.09-.12-.02-.25-.05-.37-.07-.07-.01-.25.02-.25.12.03,1,.02,2,0,3,0,.04.07.04.09.04-.2-.01-.12.75-.13.92-.02.39-.05.77-.08,1.16l.21-.1c-7.86-.12-15.72-.72-23.53-1.64-2.55-.3-5.09-.63-7.63-1.01-.73-.11-1.45-.22-2.18-.34-.16-.03-.74-.02-.86-.14.08.08.06-.48.06-.58l.02-1.65.02-2.51c0-.08-.31-.03-.31.08-.02,1.59-.03,3.18-.05,4.76,0,.02.04.03.06.04,7.62,1.31,15.37,2.12,23.09,2.65,3.72.26,7.45.42,11.18.48.05,0,.21-.03.21-.1.06-.71.08-1.43.12-2.14,0-.05-.05-.05-.09-.06.17.01.11-2.6.1-2.96l-.25.12c5.74,1.09,11.46,2.25,17.17,3.49,4.14.9,8.24,1.92,12.35,2.94,1.92.48,3.9.71,5.86.91,6.06.63,12.17.82,18.26.85,6.88.04,13.78-.14,20.63-.74,2.92-.25,5.83-.58,8.71-1.1,2.12-.38,4.27-.83,6.27-1.63.36-.14.71-.3,1.05-.48.03-.01.07-.04.06-.08-.1-.49-.2-.98-.3-1.47-.02-.08-.21-.02-.25,0h0c.08,0,.16,0,.25,0-.18-.86-.36-1.72-.54-2.58-.01-.06-.14-.03-.17-.03-.09.02-.18.04-.27.06-.06.01-.36.13-.38.12-.03-.02-.01-.15-.02-.19-.09-.23-.07-.54-.1-.79,0-.04-.1-.04-.13-.03-5.19,1.06-10.46,1.77-15.72,2.3-9.76.99-19.63,1.3-29.42.6-9.97-.71-19.83-2.43-29.59-4.53-4.27-.92-8.53-1.92-12.79-2.86-3.8-.84-7.63-1.5-11.48-2.07-7.1-1.06-14.23-1.97-21.36-2.83-.46-.06-.92-.11-1.39-.17-.07,0-.23.01-.25.1l-.25.97.21-.1c-.37,0-.46.38-.53.67-.16.72-.19,1.49-.22,2.23-.06,1.2-.07,2.41-.05,3.62,0,.08.31.03.31-.08Z"/>
      </g>
      <g>
        <path class="cls-9" d="M194.7,911.39c-.18.27-.51.41-.83.38-.14-.01-.28-.05-.4-.13-.41-.25-.53-.76-.27-1.15l2.99-4.36c.49.28.98.59,1.49.91l-2.98,4.35Z"/>
        <path class="cls-29" d="M194.56,911.39c-.31.43-.94.37-1.22-.06-.17-.26-.15-.59.02-.84s.35-.51.52-.76l1.94-2.84c.17-.25.34-.5.51-.74l-.27.07c.5.29,1,.6,1.49.91l-.02-.08c-.33.49-.67.98-1,1.47-.53.78-1.07,1.56-1.6,2.34-.12.18-.25.36-.37.54-.04.06.04.09.08.09.07,0,.16-.03.2-.08.33-.49.67-.98,1-1.47.53-.78,1.07-1.56,1.6-2.34.12-.18.25-.36.37-.54.02-.03,0-.06-.02-.08-.49-.31-.99-.62-1.49-.91-.08-.04-.22,0-.27.07-.5.73-1,1.45-1.49,2.18s-1.03,1.45-1.5,2.2c-.27.42-.12.96.3,1.21.49.29,1.17.13,1.5-.32.04-.06-.04-.09-.08-.09-.07,0-.16.03-.2.08Z"/>
      </g>
      <g>
        <path class="cls-9" d="M199.04,914c-.18.27-.51.41-.83.38-.14-.01-.28-.05-.4-.13-.41-.25-.53-.76-.27-1.15l2.86-4.18c.46.33.93.67,1.41,1.03l-2.78,4.05Z"/>
        <path class="cls-29" d="M198.9,914c-.14.19-.33.32-.56.31s-.48-.14-.63-.34c-.19-.26-.19-.62-.02-.89.16-.24.32-.47.48-.71.62-.91,1.25-1.82,1.87-2.74.17-.24.33-.48.5-.73l-.29.06c.47.34.94.68,1.41,1.03v-.05c-.31.46-.62.92-.94,1.37l-1.49,2.18c-.12.17-.23.34-.35.5-.07.1.24.06.28-.01.31-.46.63-.92.94-1.37l1.49-2.18c.12-.17.23-.34.35-.5,0-.01.02-.03,0-.05-.47-.34-.94-.69-1.41-1.03-.06-.05-.24,0-.29.06-.49.71-.97,1.42-1.46,2.12l-.98,1.43c-.16.23-.34.46-.48.71-.24.42-.04.94.38,1.15.48.24,1.14.09,1.45-.35.07-.09-.23-.05-.28.01Z"/>
      </g>
      <g>
        <path class="cls-9" d="M205.88,912.95l-2.5,3.65c-.19.27-.51.41-.83.38-.14-.01-.28-.05-.4-.13-.41-.25-.53-.76-.27-1.15l2.59-3.79c.46.34.92.69,1.4,1.04Z"/>
        <path class="cls-29" d="M205.73,912.94c-.35.51-.7,1.02-1.04,1.52l-1.37,2s-.06.08-.09.12c-.25.34-.71.38-1.04.13-.26-.2-.37-.57-.24-.87.03-.08.09-.15.13-.22.44-.64.87-1.27,1.31-1.91l.77-1.12c.15-.21.3-.42.44-.64,0-.01.01-.02.02-.03l-.27.07c.47.35.93.69,1.4,1.04.1.07.38-.07.24-.17-.47-.34-.94-.69-1.4-1.04-.08-.06-.22,0-.27.07-.36.53-.72,1.05-1.08,1.58l-1.43,2.08c-.03.05-.07.1-.1.15-.17.28-.17.63,0,.91.4.65,1.4.56,1.81-.02s.78-1.14,1.18-1.72l.82-1.19c.16-.23.33-.46.48-.7,0-.01.02-.02.02-.03.04-.06-.04-.11-.09-.11-.08,0-.16.03-.2.09Z"/>
      </g>
      <g>
        <path class="cls-9" d="M207.72,919.2c-.18.27-.51.41-.83.38-.14-.01-.28-.05-.4-.13-.41-.25-.53-.76-.27-1.15l2.34-3.42c.47.33.94.66,1.43,1l-2.27,3.32Z"/>
        <path class="cls-29" d="M207.57,919.2c-.25.35-.72.39-1.05.12-.26-.22-.36-.58-.23-.9.09-.21.26-.4.39-.58.53-.77,1.05-1.54,1.58-2.31.15-.21.29-.43.44-.64l-.29.06c.47.34.95.67,1.43,1v-.06c-.25.37-.51.74-.76,1.12l-1.23,1.79c-.09.14-.19.27-.28.41-.04.06.04.08.08.09.07,0,.16-.03.2-.08.25-.37.51-.74.76-1.12l1.23-1.79c.09-.14.19-.27.28-.41.01-.01.02-.05,0-.06-.48-.33-.95-.66-1.43-1-.08-.05-.23-.02-.29.06-.42.62-.85,1.24-1.27,1.85l-.81,1.18c-.16.24-.39.49-.41.79-.04.43.26.81.66.93.45.13.99-.03,1.27-.42.04-.06-.04-.08-.08-.09-.07,0-.16.03-.2.08Z"/>
      </g>
      <g>
        <path class="cls-9" d="M212.06,921.81c-.18.27-.51.41-.83.38-.14-.01-.28-.05-.4-.13-.41-.25-.53-.76-.27-1.15l2.18-3.19c.48.31.97.63,1.47.94l-2.15,3.15Z"/>
        <path class="cls-29" d="M211.93,921.77c-.23.32-.64.41-.98.21-.28-.17-.43-.49-.35-.81.05-.23.25-.44.38-.63.5-.73,1-1.45,1.49-2.18.14-.21.28-.41.42-.62l-.27.07c.49.32.98.63,1.47.94l-.03-.1c-.24.35-.48.71-.72,1.06l-1.16,1.7c-.09.13-.18.26-.27.39-.04.06.04.11.09.12.08.01.16-.03.2-.09.24-.35.48-.71.72-1.06.39-.57.78-1.13,1.16-1.7.09-.13.18-.26.27-.39.02-.03,0-.08-.03-.1-.49-.31-.98-.62-1.47-.94-.09-.06-.21,0-.27.07-.4.59-.8,1.17-1.2,1.76l-.76,1.1c-.17.25-.38.5-.37.83,0,.41.31.76.71.86.44.12.95-.04,1.22-.41.11-.16-.18-.19-.26-.08Z"/>
      </g>
    </g>
    <path class="cls-3" d="M278.68,133.36c-5.4-2.6-9.38-1.99-15.05-3.99-.49-.17-1.04-.35-1.5-.18-.38.13-.61.47-.8.78-4.7,7.46-9.7,14.7-12.63,22.92-1.25,3.5-2.33,7.11-2.34,10.86,0,3.39-1.03,7.07-.16,10.44.77,2.96,1.53,5.91,2.3,8.87.29,1.1.59,2.25,1.39,3.18,2.33,2.73,7.1,2,10.11.29,6.45-3.65,10.16-10.05,12.07-16.68,1.91-6.63,2.24-13.62,3.33-20.45.75-4.71,1.86-9.35,3.31-13.88"/>
    <path class="cls-31" d="M256.78,196.11s-3.51,20.87-15.35,33.21c-1.9,1.98-23.5,7.71-23.5,7.71l15.69,65.78c11.58,7.44,35.83,3.63,49.59,3.56l34.16-22.95s-16.38-18.35-15.94-21.56c.44-3.21,9.61-24.67,9.61-24.67"/>
    <path class="cls-31" d="M361.06,158.49s0-.04,0-.07c-.94.5-6.86-7.19-7.76-8.03-9.43-8.88-13.46-15.14-26.23-17.25-6.67-1.1-14.61,3.33-21.36,3.02-6.48-.29-11.33-6.31-17.64-7.97-2.18-.58-4.79,6.26-3.64,4.96-2.6-1.31-4.59-2.71-4.59-2.71-8.58,3.07-9.22,33.86-10.32,37.73-1.11,3.88-3.9,9.66-3.9,9.66-.59-1.78-1.42-3.21-1.51-5.04-.16-1.63-.76-3.63-.92-5.26-.83-3.88-6.07-5.15-9.14-3.98l-1.78,1.37c-4.88,3.37-4.44,18.61-3.43,23.64-2.23,8.76,3.66,15.81,9.96,11.1l.02,3.73,6.49,20.77c5.53,11.68,19.46,26.45,33.08,30.49,4.88,1.45,11.4,3.91,16.82-.92,5.49-4.89,7.78-7.7,13.43-12.05,5.42-4.17,8.14-6.99,11.85-12.72,3.84-5.93,4.41-7.65,5.9-14.36.67-3,1.94-7.46,3.09-10.17,1.33-3.13,7.05-15.29,9.84-22.62,2.79-7.33,1.72-23.33,1.72-23.33Z"/>
    <path class="cls-52" d="M261.45,182.75c-.4-2.95-.93-5.91-1.9-8.73-.49-1.42-1.09-2.87-2.01-4.07-.38-.49-.85-1.04-1.44-1.28-.76-.32-1.42.4-1.89.9-1.82,1.92-2.59,4.63-2.76,7.21-.05.76,1.43.57,1.47-.1.16-2.47.98-5.8,3.14-7.22l-.9.16s.09.02.09.04c0,0-.16-.1-.02,0,.05.03.1.06.15.1.37.27.51.43.83.85,1.28,1.67,1.96,3.8,2.5,5.81.59,2.21.98,4.46,1.29,6.73.09.68,1.54.32,1.45-.39h0Z"/>
    <path class="cls-52" d="M259.33,183.24c-1.38-.5-2.92.1-3.46,1.48s-.5,3.04-.99,4.5c-.08.23-.25.44-.32.66,0,.03-.07.05-.08.08l.83-.19s-.05-.03-.07-.05c-.05-.13-.16-.26-.21-.41-.32-.99-.22-2.16-.16-3.18.12-1.78.32-3.51,1-5.16.35-.86.77-1.7,1.3-2.47.43-.62,1.18-1.67,2.01-1.75.25-.03.82-.1.97-.34s-.13-.24-.34-.21c-2.06.21-3.51,1.54-4.52,3.27-.63,1.08-1.23,2.34-1.45,3.58-.28,1.57-.48,3.17-.48,4.77,0,.63-.09,1.97.51,2.4.54.39,1.62-.08,2.02-.52.44-.48.54-1.22.66-1.83.18-.96.29-1.94.56-2.88.11-.39.25-.81.49-1.14.04-.06.32-.31.32-.33,0,.09-.46.03-.37.12.05.05.34.07.41.1.29.11.65,0,.93-.09.05-.02.65-.31.44-.39h0Z"/>
    <path class="cls-52" d="M347.16,172.55s-9.8-1.5-17.58-3.34c-7.78-1.84-14.51-6.76-14.51-6.76,0,0,8.48,4.47,14.62,5.95s17.46,4.15,17.46,4.15Z"/>
    <path class="cls-3" d="M322.74,177.56c-6.06-6.83-11.04-10.62-13.29-11.84-1.76-.96-3.67-1.61-5.64-2.02,0,0-6.39.2-7.44.56-1.05.37,2.72,1.48,2.72,1.48.75.32,1.32.46,2.02.86,3.88,2.21,7.9,3.91,11.16,6.99,2.8,2.62,5.79,7.21,7.99,10.36,1.01-1.14,2.6-3.82,3.71-4.85"/>
    <path class="cls-3" d="M357.91,184.77c-.07-.12-.2-1.01-.27-1.12,0,0-.1-.12-.1-.12-.94-.3-2.08-.95-3.44-1.13-2.37-.31-8.4-1.27-16.74.29.04,1.48-.14,4.29-.11,5.77,3.4-1.07,5.79-1.48,9.35-1.86,3.34-.36,8.08-.64,11.47-.33.08-.31-.04,0,.02-.32,0-.21,0-.43-.01-.64-.05-.18-.09-.36-.16-.53Z"/>
    <path class="cls-31" d="M316.64,246.42c-.14-.06-.26-.15-.36-.26-1.84-2.09-1.79-2.98-2.82-3.53-.24-.13-.34-.25-1.1-.58-3.04-1.29-4.88-2.14-14.79.99-.2.06-10.92-4.32-11.13-4.4l-5-4.25c-.8-.85-17.4-24.75-17.4-24.75-.16-.69-2.89-6.05-2.89-6.67-.06-.05-.11-.11-.18-.15-.02-.02-.07-.06-.12-.09-.02.03-.05.08-.06.11-.1.24-.17.5-.22.75-.24,1.1-.31,2.23-.26,3.35.07,1.73-.08,3.44-.07,5.16,0,.61.03,1.22.09,1.82,2.04,2.18,6.9,24.8,20.03,32.82.54.31,2.21,1.31,6.94,3.01,8.88,3.2,15.7,8.02,25.34,7.81,2.52-.06,4.84-1.22,6.36-3.15,4.34-5.49,19.06-27.46,23-36.33-3.91,4.71-15.67,19.01-21.37,25.88-.17.21-3.4,2.55-3.7,2.56"/>
    <path class="cls-31" d="M264.78,130.44s9.59-14.87,30.34-15.17c15.66-.23,43.77,8.69,53.26,16.96,13.74,11.98,12.77,29.42,12.77,29.42l-96.37-31.21Z"/>
    <path class="cls-48" d="M303.02,256.06s-22.52-6.81-27.03-11.85c-4.51-5.04-8.94-12.83-11.65-23.44,0,0,1.67,22.66,13.48,28.2,15.58,7.32,24.05,8.91,24.05,8.91l1.14-1.83Z"/>
    <path class="cls-23" d="M321.74,415.87c7.51-.39,9.14-1.47,16.34-3.66,3.57-1.08,7.02-2.48,10.29-4.28,2.24-1.23,4.87-2.73,6.53-4.84-1.11-27.49-1.56-82.5-5-94.27-6.57-22.5-40.78-43.46-44.4-44.71,0,0-11.3,75.29.78,106.86.82,2.15,1.58,4.76,2.28,7.73,5.46-.17,10.91-.47,16.35-.89.3-.29-2.32,33.49-3.16,38.04Z"/>
    <path class="cls-8" d="M97.18,501.79l-1.61,39.8c-.31,26.52,6.73,44.6,15.78,69.99l19.72,107.5s.36,55.07-4.9,93.82c-4.58,33.59,8.69,93.67,8.69,93.67l16.8,5.83c12.63,1.85,25.53,2.09,38.26.73l24.52-6.73,23.88-198.72,17.73-129.97,25.22-73.33-184.09-2.59Z"/>
    <path class="cls-8" d="M295.71,497.32l-11.13,204.74c-1.15,23.6-6.63,38.94-11.37,84.19l-9.08,77.1-3.21,36.51-7.93,1.23c-10.89,1.95-17.33,2.61-28.44,2.06l-24.32-.55,23.2-397.84,72.26-7.45Z"/>
    <path class="cls-23" d="M314.61,443.7h0c-.03-.32.26-.6.1-.64l26.3-100.01,8.51-33.12s-2.04-4.09-4.11-8.4c-3.28-6.81-8.4-10.33-13.6-15.82l-21.82-19.17s-1.95-.19-10.2,9.27c-3.53,4.05-4.37,20.67-11.1,19.32,0,0-.02-14.54-13.74-29.8,0,0-35.61-29.24-35.46-35.74-15.2.24-63.43,6.94-75.76,12.81-14.5,6.85,10.38,43.56,21.06,64.73l-29.06-3.81s-7.94,46.27-21.08,79.08c-.51,1.17-1.02,5.15-1.52,6.47-1.6,3.91-6.7,22.28-7.92,24.91.3.09-16.04,28.01-15.74,28.1-7.17,24.15-10.87,48.69-12.29,59.9-1.78,14.09,43.48,14.36,82.21,22.61,38.04,8.1,108.44,29.05,121.38-21.99l.18.03c5.05-21.85,5.97-29.24,13.66-58.74Z"/>
    <path class="cls-1" d="M345.19,333.45c-4.91,9.52-7.7,20.13-10.28,30.46-2.94,11.78-5.33,23.68-7.98,35.53-1.24,5.53-2.52,11.07-4.11,16.51-.17.57,1.3.38,1.46-.16,3.01-10.33,5.08-20.94,7.36-31.44,2.54-11.71,5.11-23.45,8.68-34.9,1.7-5.44,3.62-10.85,6.23-15.92.34-.65-1.12-.55-1.36-.08h0Z"/>
    <path class="cls-28" d="M259.7,560.33c-10.16,6.62-15.78,17.94-17.84,29.61-1.27,7.17-1.37,14.49-1.35,21.75,0,1.16.01,2.3-.04,3.46-.38,8.38-.76,16.76-1.14,25.14-.65,14.38-1.31,28.76-1.96,43.14-.61,13.49-1.23,26.98-1.84,40.47-.26,5.71-.3,11.47-.78,17.17-.45,5.29-1.27,10.58-1.9,15.85-1.46,12.23-2.92,24.45-4.39,36.68-1.78,14.89-3.56,29.78-5.34,44.67-1.58,13.17-3.15,26.34-4.73,39.52-.85,7.09-1.7,14.18-2.54,21.27-.04.32-.08.65-.12.97-.08.71,1.39.5,1.46-.13.6-4.98,1.19-9.96,1.79-14.95l4.32-36.08c1.77-14.79,3.54-29.58,5.31-44.37,1.59-13.3,3.18-26.6,4.77-39.89.89-7.43,1.78-14.86,2.67-22.29.44-3.66.44-7.38.61-11.06.55-12.06,1.1-24.12,1.65-36.18.67-14.82,1.35-29.63,2.02-44.45.48-10.6.96-21.19,1.45-31.79.08-1.78.23-3.58.22-5.36-.05-13.52.08-27.67,6.91-39.78,2.88-5.11,6.83-9.54,11.76-12.75.82-.53-.38-.98-.95-.61h0Z"/>
    <path class="cls-23" d="M290.25,297.48c-.48-1-19.34-27.31-19.34-27.31l-16.46,8.26-5.96-5.57c-15.77-14.56-26.35-43.85-26.35-43.85l23.15-9.51c1.16,23.23,30.8,45.51,30.8,45.51l14.27,28.33,10.76-30.28c1.07-4.21,1.9-7.01,1.9-7.01l5.69,1.31,10.63,11.57c-3.7,18.37-6.57,17.58-6.57,17.58l-11.15-9.22c-3.48,6.19-4.13,14.05-7.28,20.39-5.75,11.59-9.07,25.11-11.89,37.85"/>
    <path class="cls-1" d="M318.33,270.17c-.83,4.09-1.72,8.28-3.31,12.16-.37.9-.79,1.82-1.37,2.61-.14.19-.29.37-.46.54-.16.16-.26.2-.26.2.01-.08.22.04.17-.03.05.05-.07-.05-.25-.2-1.87-1.54-3.73-3.09-5.6-4.63-1.76-1.46-3.52-2.91-5.28-4.37-.33-.27-1.13-.11-1.35.27-3.64,6.46-7.91,12.67-10.62,19.61-3.12,7.97-3.56,16.61-4.17,25.04-.35,4.86-.8,9.7-1.84,14.47l1.17-.49c-1.97-.59-3.93-1.18-5.9-1.77-.46-.14-1.7.55-.89.79,1.97.59,3.93,1.18,5.9,1.77.33.1,1.08-.09,1.17-.49,1.81-8.3,1.75-16.81,2.73-25.21.49-4.19,1.25-8.35,2.58-12.36,1.21-3.64,2.98-7.06,4.85-10.4,2.06-3.68,4.3-7.27,6.37-10.94l-1.35.27c1.7,1.4,3.4,2.81,5.09,4.21,1.96,1.62,3.86,3.47,5.95,4.92,1.79,1.25,3.47-1.18,4.16-2.56,2.11-4.19,3.04-9.05,3.97-13.6.11-.55-1.35-.32-1.45.18h0Z"/>
    <path class="cls-1" d="M290.63,296.71c-.56-1.09-1.4-2.09-2.1-3.09-1.53-2.18-3.07-4.36-4.61-6.53-3.43-4.83-6.88-9.66-10.33-14.48-.78-1.1-1.57-2.19-2.35-3.29-.2-.28-.91,0-1.11.1-5.49,2.75-10.98,5.51-16.46,8.26l1.11-.1c-1.96-1.84-3.93-3.67-5.89-5.51-3.67-3.43-6.91-7.27-9.83-11.36-5.41-7.57-9.83-15.85-13.55-24.36-.75-1.72-1.49-3.45-2.14-5.22-.17-.45-1.6-.02-1.45.39,1.88,5.1,4.25,10.07,6.76,14.88,4.79,9.19,10.51,18.23,18.02,25.44,2.21,2.12,4.48,4.19,6.72,6.29.27.25.85.04,1.11-.1,5.49-2.75,10.98-5.51,16.46-8.26l-1.11.1c5.57,7.77,11.14,15.54,16.64,23.36.88,1.25,1.96,2.51,2.66,3.87.23.45,1.63-.03,1.45-.39h0Z"/>
    <path class="cls-4" d="M345.82,194.06c1.33-.27,2.67.65,3.24,1.54.13.21.33.79.34,1.61,0,1.05-.7,2.04-1.5,2.53-1.07.66-2.47.42-3.37-.36-1.22-1.06-1.19-2.89-.48-4.03.13-.21.71-1.07,1.78-1.29"/>
    <path class="cls-4" d="M332.27,194.08s6.89-2.8,9.85-2.26c4.31.79,8.81,4.61,9.69,7.11,0,0-5.83-5.45-8.89-5.92-2.92-.45-10.65,1.06-10.65,1.06Z"/>
    <path class="cls-4" d="M310.17,184.08c-.98-.93-2.89-1.3-3.83-.85-.22.11-.83.42-1.27,1.11-.56.89-.49,2.1-.08,2.94.56,1.13,1.87,1.67,3.05,1.49,1.6-.25,2.55-1.82,2.55-3.15,0-.24.36-.62-.44-1.37"/>
    <path class="cls-4" d="M314.97,188.74s-5.18-5.87-8.28-6.86c-4.52-1.45-10.72-.35-12.83,1.41,0,0,8.3-1.86,11.46-.76,3.02,1.06,9.65,6.21,9.65,6.21Z"/>
    <g>
      <path class="cls-9" d="M321.11,215.75c-1.76.38-4.05-.46-5.34-1.84-.29-.31-1.49-.42-1.09.01,1.7,1.82,5.04,2.87,7.3,2.38.23-.05.23-.21,0-.36-.23-.16-.64-.25-.88-.2"/>
      <path class="cls-9" d="M314.13,213.3c-.9-.77-1.99-1.35-3.12-1.75-.17-.06-.4-.06-.56.02-.12.06-.17.17-.07.28.45.45,1.1.77,1.72.93.2.05.47.07.63-.06.15-.13-.02-.28-.17-.32-.52-.13-1.02-.38-1.39-.75-.21.1-.42.2-.63.3,1.01.36,1.98.89,2.79,1.58.16.14.44.15.63.1.14-.04.32-.17.16-.31"/>
      <path class="cls-9" d="M309.5,212.18c-1.34-.41-2.77-1.43-3.16-2.63-.58-1.81,1.02-3.97,2.98-4.48.21-.06.15-.22-.02-.31-.23-.12-.54-.11-.76-.05-1.71.45-3.21,2.17-3.38,3.67-.16,1.4.88,2.69,2.39,3.53.45.25.94.47,1.44.62.2.06.59.1.73-.03.15-.13-.02-.26-.21-.31"/>
      <path class="cls-9" d="M323.78,215.74c-.03-.18.13-.24.24-.21.36.11.76.11,1.14-.05.08.18.16.36.24.54-.75-.12-1.55-.09-2.33.17-.15.05-.33-.06-.42-.19-.07-.1-.11-.29.04-.34"/>
      <path class="cls-9" d="M322.7,215.66c.87-.28,1.76-.32,2.6-.18.12.02.26.13.32.26.05.11.03.23-.08.27"/>
      <path class="cls-9" d="M326.54,216.7c.89.21,2.09-.09,2.8-.99,1.07-1.35.97-3.33.14-4.61-.09-.14.01-.26.14-.27.17,0,.33.13.43.28.72,1.12.96,2.67.42,4.07-.5,1.3-1.6,2.01-2.76,2.11-.35.03-.7.02-1.03-.06-.13-.03-.36-.16-.38-.34-.02-.18.12-.22.25-.19"/>
    </g>
    <path class="cls-7" d="M290.52,177.41l.17,4.39c-.13,3.33.43,10.16,1,12.15.82,2.78,17.05,8.48,20.84,7.53,3.79-.95,8.35-9.85,9.84-11.79l6.49,2.29c-.24,3-.78,12.55.12,14.12.9,1.57,8.53,3.56,9.39,3.78.72.18,1.72.43,2.82.65,2.92.62,6.53,1.15,7.91.4,2.04-1.11,5.53-6.6,8.67-11.84l.5-.82c.11-.2.23-.33.25-.39h0l.57-.94c-8.18-7.29-20.87-10.17-30.06-6.8l.03.12-6.32-2.26c-5.86-6.94-17.67-13.22-27.67-12.35h0l-29.27-3.46-.8,2.45,25.52,2.79ZM330.03,205.4c-.56-.98-.37-7.73-.06-12.93,7.95-2.79,19.38-.18,26.83,5.85l-.04.12c-1.69,2.81-6.17,10.28-8.18,11.37-2.38,1.28-17.53-2.83-18.56-4.39v-.03ZM293.84,193.83c-.91-5.21-1.35-10.5-1.32-15.79,9.06-1.31,22.4,4.77,28.17,11.42-2.29,3.61-5.73,10.09-8.44,10.76-3.91.98-17.9-4.63-18.41-6.39h0Z"/>
    <path class="cls-31" d="M560.4,738.54c-.74,5.36-1.7,14.84-1.75,20.31-.13,14.78-3.17,33.75-2.41,41.24,1.27,12.68,5.86,45.39,6.4,49.84l5.67,56.9c7.39-.12,6.74,5.47,25.6-.4.21-23.96,13.25-131.08,15.1-176.77,1.48-36.47,1.94-74.89,1.94-74.89l-54.91-4.78,5.78,78.29-1.42,10.25Z"/>
    <path class="cls-35" d="M567.27,903.89l-2.61-33.8s4.48,1.43,16.8,1.43c12.32,0,15.29-1.43,15.29-1.43l-3.11,43.31s-12.05,8.83-20.49,5.74c-8.44-3.09-5.88-15.25-5.88-15.25Z"/>
    <path class="cls-31" d="M514.26,741.28c-.75,5.36-6.31,18.26-6.36,23.72-.13,14.78,1.38,30.33,2.14,37.82,1.29,12.68,5.92,45.39,6.47,49.84l5.74,56.9c7.48-.12,6.81,5.47,25.9-.4.22-23.96,13.41-131.08,15.28-176.77,1.5-36.47,1.97-74.89,1.97-74.89l-55.56-4.78,5.85,78.29-1.43,10.25Z"/>
    <path class="cls-30" d="M488.04,540.54l-2.68,18.66c-2.25,15.66-4.73,34.1-2.54,49.76l11.01,89.78s-2.97,37.21-3.53,71.22c13.09,15.92,63.97,17.42,84.26,9.16l3.8-67.18-1.79-111.51,16.84-56.22-105.38-3.66Z"/>
    <path class="cls-30" d="M588.51,774.09c5.65.09,21.25-2.04,26.8-2.55l2.96-20.99c2.54-7.95,5.87-44.99,5.55-53.36l2.04-160.83-60.27.67-9.86,234.82c12.69-.17,20.08,2.05,32.78,2.24Z"/>
    <path class="cls-10" d="M576.82,771.45c.85-5.4,1.36-10.87,1.95-16.31.91-8.43,1.77-16.87,2.57-25.32.9-9.52,2-19.08,2.02-28.65.03-11.44.06-22.88.09-34.33.04-13.59.07-27.18.11-40.76,0-3.09-.07-6.2.02-9.29.02-.75.37-2.01.65-3.01.96-3.47,2.38-7,4.78-9.73,1.3-1.49,2.97-2.7,4.94-3.08.67-.13,1.2-.97.21-.77-7.15,1.39-10.43,9.22-11.82,15.62-.42,1.91-.2,3.97-.21,5.92-.03,12.6-.07,25.19-.1,37.79l-.1,38.89c-.02,8.33-.66,16.57-1.41,24.88-1.38,15.31-2.81,30.64-4.79,45.89-.11.82-.22,1.65-.35,2.47-.08.54,1.37.29,1.45-.19h0Z"/>
    <g>
      <path class="cls-32" d="M570.53,901.22s-3.88-.55-5.29,3.46c-1.41,4.01-6.34,10.75-3.52,23.33,0,0-2.11,6.02-1.59,8.75.53,2.73-2.29,3.83,17.62,4.56,19.91.73,56.2,4.92,71.18,0,14.98-4.92,7.58-16.41,6.52-17.13-1.06-.73-21.14-6.74-21.14-6.74l-29.42-19.32-6.17-8.2s-8.1,6.02-6.69,10.21l1.41,4.19s-6.52,8.75-13.92,6.2c-7.4-2.55-5.29-8.93-8.99-9.3Z"/>
      <path class="cls-15" d="M570.71,901.09c-1.22-.17-2.6.19-3.63.85-1.72,1.09-2.19,3.09-2.98,4.84-.82,1.81-1.63,3.62-2.23,5.52-.77,2.44-1.2,4.98-1.28,7.54-.05,1.65.04,3.29.25,4.92.11.88.26,1.76.44,2.64.09.44.16.61.03,1-.68,2.06-1.29,4.2-1.5,6.36-.1,1.05.07,2.04.12,3.08.02.44.05.89.31,1.27.37.53,1.05.78,1.65.96,1.38.42,2.85.57,4.29.72,5.51.56,11.06.61,16.58.91,11.66.63,23.31,1.61,34.98,1.97,5.63.18,11.27.24,16.9-.06,4.48-.24,9.04-.64,13.37-1.89,4.09-1.18,8.79-3.42,10.12-7.82.84-2.77.13-5.82-1.28-8.28-.3-.53-.68-1.26-1.22-1.59-.84-.51-1.94-.75-2.87-1.05-3.74-1.25-7.52-2.4-11.3-3.56-1.64-.5-3.29-1-4.94-1.5-.49-.15-.99-.3-1.48-.45-.13-.04-.26-.07-.38-.11-.03,0-.18-.06-.1-.02-.41-.2-.8-.52-1.18-.77-1.02-.67-2.03-1.34-3.05-2-6.39-4.2-12.78-8.39-19.17-12.59l-5.74-3.77c-.43-.28-.66-.7-.97-1.11l-3.41-4.54c-.69-.91-1.37-1.82-2.06-2.74-.09-.11-.42.02-.5.08-2.14,1.59-4.2,3.55-5.66,5.78-.86,1.32-1.58,2.93-1.1,4.52.33,1.09.73,2.16,1.09,3.24.09.28.28.62.31.91,0,.08.07-.06-.06.11-.26.32-.52.63-.79.94-1.11,1.23-2.34,2.34-3.7,3.28-1.8,1.23-3.89,2.16-6.1,2.18s-4.7-1-6.36-2.58c-1.38-1.32-2.05-3.01-2.79-4.72-.52-1.22-1.19-2.3-2.61-2.46-.14-.02-.67.23-.37.26,1.39.16,1.99,1.37,2.48,2.53.63,1.5,1.25,2.99,2.37,4.21,1.46,1.58,3.61,2.64,5.73,2.94s4.09-.19,5.93-1.06c1.71-.81,3.26-1.96,4.63-3.26.51-.48.99-.98,1.46-1.5.21-.24.59-.55.71-.86.14-.33-.17-.83-.28-1.17-.37-1.09-.8-2.19-1.1-3.3-.22-.81-.1-1.66.18-2.44.72-2,2.26-3.69,3.75-5.14.86-.84,1.77-1.65,2.74-2.37l-.5.08c1.82,2.42,3.64,4.85,5.47,7.27.29.39.53.82.93,1.08l1.98,1.3c6.02,3.95,12.04,7.91,18.06,11.86l7.54,4.95c.51.33,1.01.72,1.54,1.01.37.2.82.28,1.22.4,3.31,1,6.62,2,9.92,3.03,3.16.98,6.38,1.89,9.47,3.09.58.22.87.48,1.23,1,.66.94,1.16,2.01,1.53,3.1,1.07,3.21.64,6.66-1.72,9.19-3.2,3.43-8.3,4.59-12.77,5.27-5.03.76-10.14.93-15.21.96-11.7.07-23.39-.78-35.05-1.54-5.12-.33-10.24-.65-15.37-.85-3.07-.12-6.15-.25-9.21-.51-1.67-.14-3.38-.28-5.02-.67-1.21-.28-2.35-.68-2.44-2.05-.05-.73-.18-1.48-.19-2.2-.02-2.26.66-4.57,1.32-6.72.09-.29.21-.58.28-.87.09-.39-.05-.73-.13-1.13-.33-1.67-.55-3.36-.63-5.07-.13-2.82.15-5.65.86-8.38.52-1.98,1.27-3.89,2.11-5.75.33-.74.68-1.47.99-2.22.41-.97.7-1.98,1.41-2.8.92-1.05,2.39-1.65,3.79-1.46.14.02.67-.22.37-.26Z"/>
    </g>
    <path class="cls-15" d="M561.32,929.15c3.15.29,6.3.55,9.45.81,6.89.57,13.79,1.09,20.7,1.54,6.78.44,13.57.84,20.36.91,3.7.04,7.4-.05,11.1-.11,4.51-.08,9.02-.19,13.52-.4,4.03-.19,8.07-.45,12.08-.97,2.73-.36,5.64-.74,8.18-1.87.41-.18.8-.39,1.17-.65.32-.22-.15-.42-.38-.26-.84.59-1.86.92-2.84,1.2-1.39.4-2.81.67-4.23.89-3.82.6-7.69.89-11.56,1.11-8.44.49-16.93.63-25.38.65-6.55.02-13.11-.37-19.64-.78-6.98-.43-13.96-.95-20.93-1.52-3.75-.3-7.49-.72-11.24-.96-.05,0-.11,0-.16-.01-.28-.03-.59.38-.2.42h0Z"/>
    <path class="cls-15" d="M657.96,933.14c-2.65.55-5.32.99-7.99,1.41-6.27.98-12.59,1.73-18.93,2.18-3.74.26-7.48.42-11.22.43-4.05,0-8.1-.17-12.15-.33-7.12-.27-14.24-.62-21.35-1.02-3.53-.2-7.06-.5-10.6-.65-.05,0-.1,0-.15-.01-.27-.02-.59.37-.2.4,2.94.2,5.89.38,8.83.55,6.92.41,13.85.76,20.77,1.04,7.76.31,15.5.61,23.26.17,6.67-.37,13.32-1.1,19.92-2.08,2.2-.33,4.4-.69,6.59-1.08,1.06-.19,2.14-.34,3.19-.6.05-.01.09-.02.14-.03.36-.08.26-.45-.1-.37h0Z"/>
    <path class="cls-15" d="M553.76,914.51c.97-.46,2.07-.69,3.12-.83,2.6-.35,5.26.01,7.69,1,3.49,1.43,6.39,4.1,8.81,6.94,1.53,1.79,2.91,3.8,3.7,6.04.29.8.59,1.75.53,2.62-.02.28.57.18.58-.06.05-.75-.17-1.56-.39-2.26-.68-2.19-1.96-4.18-3.38-5.95-2.35-2.92-5.27-5.71-8.69-7.32-2.52-1.18-5.32-1.71-8.09-1.47-1.38.12-2.87.39-4.13.99-.36.17-.04.43.24.3h0Z"/>
    <path class="cls-15" d="M632.47,916.33c-.98,1.12-2.57,1.78-3.97,2.13-2.08.51-4.2.41-6.22-.23-3.96-1.25-7.74-3.16-11.46-4.99-4.07-2.01-8.08-4.11-12.07-6.27-1.3-.7-2.59-1.41-3.88-2.12-.33-.18-.66-.36-.98-.55-.07-.04-.14-.07-.2-.11.1.07-.01.14.07-.03.11-.21.13-.51.21-.73.14-.4.32-.79.53-1.16.65-1.16,1.58-2.13,2.67-2.88,1.43-.97,3.23-1.71,4.97-1.83.76-.06,1.67.02,2.3.52.07.05.14.11.19.18.14.18.7-.03.53-.24-.93-1.2-3.14-.9-4.36-.6-2.9.72-5.69,2.45-7.04,5.19-.27.54-.52,1.15-.6,1.75,0,.05.02.1.07.13,4.19,2.35,8.42,4.61,12.69,6.81,3.34,1.72,6.7,3.39,10.12,4.93,2.4,1.08,4.92,2.29,7.52,2.79,2.15.41,4.55.14,6.57-.69,1.01-.41,2.11-1.01,2.84-1.85.23-.27-.32-.31-.47-.14h0Z"/>
    <path class="cls-15" d="M581.27,921.03c1.99-1.55,3.99-3.09,5.98-4.64,3.16-2.46,6.33-4.91,9.49-7.37.73-.56,1.45-1.13,2.18-1.69.31-.24-.17-.36-.37-.21-1.99,1.55-3.99,3.09-5.98,4.64-3.16,2.46-6.33,4.91-9.49,7.37-.73.56-1.45,1.13-2.18,1.69-.31.24.17.36.37.21h0Z"/>
    <path class="cls-15" d="M600.99,931.46c2.05-1.59,4.11-3.19,6.16-4.78l9.77-7.59c.75-.58,1.5-1.16,2.25-1.75.31-.24-.17-.35-.37-.2-2.05,1.59-4.11,3.19-6.16,4.78-3.26,2.53-6.52,5.06-9.77,7.59-.75.58-1.5,1.16-2.25,1.75-.31.24.17.35.37.2h0Z"/>
    <path class="cls-6" d="M601.07,905.8l-.05-.06c-.44-.46-.17-1.36.6-2.01l5.54-4.67c.77-.65,1.76-.8,2.19-.34l.05.06c.44.46.17,1.36-.6,2.01l-5.54,4.67c-.77.65-1.76.8-2.19.34Z"/>
    <path class="cls-6" d="M607.92,908.19l-.21-.22c-.4-.43-.16-1.25.53-1.83l4.15-3.45c.7-.58,1.6-.71,2-.28l.21.22c.4.43.16,1.25-.53,1.83l-4.15,3.45c-.7.58-1.6.71-2,.28Z"/>
    <path class="cls-6" d="M614.25,910.48l-.27-.28c-.28-.28,0-.94.63-1.47l2.94-2.5c.62-.53,1.36-.73,1.63-.45l.27.28c.28.28,0,.94-.63,1.47l-2.94,2.5c-.62.53-1.36.73-1.63.45Z"/>
    <path class="cls-6" d="M619.36,913.21l-.33-.34c-.33-.34-.09-1.05.53-1.58l2.95-2.49c.62-.53,1.4-.68,1.73-.34l.33.34c.33.34.09,1.05-.53,1.58l-2.95,2.49c-.62.53-1.4.68-1.73.34Z"/>
    <path class="cls-33" d="M556.97,907.19c2.96.27,5.99,1.16,8.66,2.44,2.2,1.05,4.27,2.5,5.76,4.46,1.04,1.37,1.83,2.96,2.58,4.51.62,1.29,1.17,2.61,1.62,3.97.43,1.3.86,2.69.96,4.07.01.16.59.05.58-.15-.08-1.14-.41-2.3-.74-3.38-.9-2.95-2.26-5.83-3.91-8.43-2.54-4-7.27-6.08-11.71-7.15-1.13-.27-2.28-.51-3.44-.62-.16-.01-.67.26-.36.29h0Z"/>
    <path class="cls-35" d="M521.1,905.68l-2.64-33.8s4.53,1.43,17,1.43,15.48-1.43,15.48-1.43l-3.42,42.2s-11.92,9.94-20.46,6.85c-8.54-3.09-5.95-15.25-5.95-15.25Z"/>
    <g>
      <path class="cls-32" d="M521.82,905.68s-3.88-.55-5.29,3.46c-1.41,4.01-6.34,10.75-3.52,23.33,0,0-2.11,6.02-1.59,8.75.53,2.73-2.29,3.83,17.62,4.56s56.2,4.92,71.18,0c14.98-4.92,7.58-16.41,6.52-17.13-1.06-.73-21.14-6.74-21.14-6.74l-29.42-19.32-6.17-8.2s-8.1,6.02-6.69,10.21l1.41,4.19s-6.52,8.75-13.92,6.2c-7.4-2.55-5.29-8.93-8.99-9.3Z"/>
      <path class="cls-15" d="M522,905.54c-1.22-.17-2.6.19-3.63.85-1.72,1.1-2.19,3.09-2.98,4.84s-1.63,3.62-2.23,5.52c-.77,2.44-1.2,4.98-1.28,7.54-.05,1.65.04,3.29.25,4.92.11.88.26,1.76.44,2.64.09.44.16.61.03,1-.68,2.06-1.29,4.2-1.5,6.36-.1,1.05.07,2.04.12,3.08.02.44.05.89.31,1.27.37.53,1.05.78,1.65.96,1.38.42,2.85.57,4.29.72,5.51.56,11.06.61,16.58.91,11.66.63,23.31,1.6,34.98,1.97,5.63.18,11.27.24,16.9-.06,4.48-.24,9.04-.64,13.37-1.89,4.09-1.18,8.79-3.42,10.12-7.83.84-2.77.13-5.82-1.28-8.28-.31-.53-.68-1.26-1.22-1.59-.84-.51-1.94-.75-2.87-1.06-3.74-1.25-7.52-2.4-11.3-3.56-1.64-.5-3.29-1-4.94-1.5-.49-.15-.99-.3-1.48-.45-.13-.04-.26-.07-.38-.11-.03,0-.18-.06-.1-.02-.41-.19-.8-.52-1.18-.77-1.02-.67-2.03-1.34-3.05-2-6.39-4.2-12.78-8.39-19.17-12.59-1.91-1.26-3.83-2.51-5.74-3.77-.43-.28-.66-.7-.97-1.11-1.14-1.51-2.27-3.02-3.41-4.54-.69-.91-1.37-1.82-2.06-2.74-.09-.12-.41.02-.5.08-2.16,1.61-4.26,3.59-5.71,5.86-.84,1.31-1.52,2.88-1.05,4.45.33,1.09.73,2.16,1.09,3.24.09.28.27.61.31.91,0,.08.08-.06-.06.11-.26.32-.52.63-.79.94-1.11,1.23-2.34,2.34-3.7,3.28-1.8,1.23-3.89,2.16-6.1,2.18s-4.7-.99-6.36-2.57c-1.38-1.32-2.05-3.01-2.79-4.72-.52-1.22-1.19-2.3-2.61-2.46-.15-.02-.67.23-.37.27,1.39.16,1.99,1.36,2.48,2.53.63,1.5,1.25,2.99,2.37,4.21,1.46,1.58,3.61,2.64,5.73,2.94s4.09-.19,5.93-1.06c1.71-.81,3.26-1.96,4.63-3.26.51-.48.99-.98,1.46-1.5.21-.24.59-.55.71-.86.14-.34-.17-.83-.28-1.17-.37-1.09-.8-2.19-1.1-3.3-.22-.81-.1-1.65.18-2.44.72-2,2.26-3.69,3.75-5.14.86-.84,1.77-1.65,2.74-2.37l-.5.08c1.82,2.42,3.64,4.85,5.47,7.27.29.39.53.82.93,1.08l1.98,1.3c6.02,3.95,12.04,7.91,18.06,11.86,2.51,1.65,5.03,3.3,7.54,4.95.51.33,1.01.72,1.54,1.01.37.2.82.28,1.22.4,3.31,1,6.62,2,9.92,3.03s6.38,1.89,9.47,3.09c.58.22.87.48,1.23.99.66.94,1.16,2.01,1.53,3.1,1.07,3.21.64,6.65-1.72,9.19-3.2,3.43-8.3,4.59-12.77,5.27-5.03.76-10.14.93-15.21.96-11.7.07-23.39-.78-35.05-1.53-5.12-.33-10.24-.65-15.37-.85-3.07-.12-6.15-.25-9.21-.51-1.67-.14-3.38-.28-5.02-.67-1.21-.28-2.35-.68-2.44-2.04-.05-.73-.18-1.48-.19-2.2-.02-2.26.66-4.57,1.32-6.71.09-.29.21-.58.28-.87.09-.39-.05-.73-.13-1.13-.33-1.67-.55-3.36-.63-5.07-.13-2.82.15-5.64.86-8.37.52-1.98,1.27-3.89,2.11-5.75.33-.74.68-1.47.99-2.22.41-.97.7-1.98,1.41-2.79.91-1.05,2.39-1.65,3.79-1.46.15.02.67-.23.37-.27Z"/>
    </g>
    <path class="cls-15" d="M512.59,933.57c3.15.29,6.3.55,9.45.81,6.89.57,13.79,1.09,20.7,1.54s13.59.85,20.4.91c3.72.03,7.45-.06,11.17-.12,4.51-.08,9.02-.19,13.52-.41,4-.19,8-.45,11.97-.97,2.73-.36,5.64-.74,8.18-1.87.41-.18.81-.39,1.17-.64.32-.22-.18-.3-.36-.17-.84.59-1.85.93-2.83,1.21-1.39.4-2.81.67-4.23.89-3.82.6-7.69.89-11.56,1.11-8.45.49-16.95.63-25.42.64-6.54.01-13.08-.38-19.61-.78-6.98-.43-13.96-.95-20.93-1.52-3.74-.3-7.49-.75-11.24-.96-.05,0-.11,0-.16-.01-.22-.02-.61.29-.22.33h0Z"/>
    <path class="cls-15" d="M609.25,940.34c-2.65.55-5.32.99-7.99,1.41-6.27.98-12.59,1.73-18.93,2.18-3.79.27-7.58.42-11.38.42-4,0-8-.18-11.99-.33-7.12-.27-14.24-.62-21.35-1.02-3.53-.2-7.07-.53-10.6-.65-.05,0-.1,0-.15-.01-.23-.02-.61.32-.22.34,2.94.2,5.89.38,8.83.55,6.92.41,13.85.76,20.77,1.04,7.76.31,15.5.6,23.26.17,6.67-.37,13.32-1.1,19.92-2.08,2.21-.33,4.41-.69,6.61-1.08,1.05-.19,2.13-.35,3.16-.6.05-.01.09-.02.14-.03.36-.07.27-.38-.08-.31h0Z"/>
    <path class="cls-15" d="M512.99,918.93c.97-.46,2.07-.69,3.12-.83,2.64-.36,5.35.03,7.81,1.07,3.44,1.45,6.3,4.09,8.7,6.9,1.53,1.8,2.91,3.81,3.71,6.05.28.8.59,1.8.54,2.63-.01.23.56.11.58-.07.05-.75-.17-1.55-.39-2.25-.68-2.19-1.95-4.17-3.38-5.94-2.35-2.92-5.26-5.7-8.69-7.31-2.52-1.18-5.32-1.7-8.09-1.45-1.38.12-2.87.39-4.13.99-.36.17-.03.35.23.23h0Z"/>
    <path class="cls-15" d="M583.73,920.86c-1,1.14-2.65,1.81-4.08,2.14-2.09.48-4.16.33-6.18-.32-3.94-1.28-7.71-3.17-11.42-5-4.06-2.01-8.07-4.11-12.06-6.27-1.29-.7-2.58-1.4-3.86-2.11-.32-.18-.64-.37-.97-.54-.05-.03-.15-.06-.19-.11.08.08,0,.06.07-.08.1-.21.13-.49.21-.71.15-.41.33-.81.54-1.19.64-1.14,1.56-2.12,2.63-2.86,1.45-1,3.34-1.79,5.12-1.86.73-.03,1.58.07,2.17.55.07.06.14.12.2.19.11.14.66-.05.54-.22-.92-1.19-3.15-.86-4.36-.56-2.88.71-5.64,2.41-7.02,5.11-.28.56-.54,1.17-.63,1.8,0,.05.01.07.06.09,4.23,2.37,8.5,4.65,12.81,6.87,3.33,1.71,6.69,3.39,10.11,4.92,2.38,1.06,4.89,2.27,7.47,2.74,2.15.39,4.55.1,6.57-.74,1.01-.42,2.09-1.01,2.82-1.85.15-.17-.42-.12-.53,0h0Z"/>
    <path class="cls-15" d="M532.56,925.5c1.99-1.55,3.99-3.09,5.98-4.64,3.16-2.46,6.33-4.91,9.49-7.37.73-.56,1.45-1.13,2.18-1.69.31-.24-.16-.4-.38-.24-1.99,1.55-3.99,3.09-5.98,4.64-3.16,2.46-6.33,4.91-9.49,7.37-.73.56-1.45,1.13-2.18,1.69-.31.24.16.4.38.24h0Z"/>
    <path class="cls-15" d="M552.36,935.79c2.05-1.59,4.11-3.19,6.16-4.78l9.77-7.59c.75-.58,1.5-1.16,2.25-1.75.11-.08-.1-.08-.13-.08-.12,0-.29.06-.39.13-2.05,1.59-4.11,3.19-6.16,4.78-3.26,2.53-6.52,5.06-9.77,7.59-.75.58-1.5,1.16-2.25,1.75-.11.08.1.08.13.08.12,0,.29-.06.39-.13h0Z"/>
    <path class="cls-6" d="M552.36,910.26l-.05-.06c-.44-.46-.17-1.36.6-2.01l5.54-4.67c.77-.65,1.76-.8,2.19-.34l.05.06c.44.46.17,1.36-.6,2.01l-5.54,4.67c-.77.65-1.76.8-2.19.34Z"/>
    <path class="cls-6" d="M559.21,912.65l-.21-.22c-.4-.43-.16-1.25.53-1.83l4.15-3.45c.7-.58,1.6-.71,2-.28l.21.22c.4.43.16,1.25-.53,1.83l-4.15,3.45c-.7.58-1.6.71-2,.28Z"/>
    <path class="cls-6" d="M565.54,914.93l-.27-.28c-.28-.28,0-.94.63-1.47l2.94-2.5c.62-.53,1.36-.73,1.63-.45l.27.28c.28.28,0,.94-.63,1.47l-2.94,2.5c-.62.53-1.36.73-1.63.45Z"/>
    <path class="cls-6" d="M570.65,917.67l-.33-.34c-.33-.34-.09-1.05.53-1.58l2.95-2.49c.62-.53,1.4-.68,1.73-.34l.33.34c.33.34.09,1.05-.53,1.58l-2.95,2.49c-.62.53-1.4.68-1.73.34Z"/>
    <path class="cls-10" d="M507.78,775.54c1.25-11.78,1.46-23.66,1.4-35.5-.07-13.93-.59-27.86-1.19-41.78-.64-14.6-1.39-29.2-1.99-43.8-.57-13.79-1.03-27.58-.99-41.38.03-11.7.34-23.45,1.78-35.07.15-1.23.32-2.46.5-3.68.11-.73-1.37-.54-1.47.11-1.67,11.23-2.12,22.63-2.25,33.96-.16,13.67.23,27.34.75,41,.56,14.59,1.31,29.17,1.97,43.76s1.21,28.05,1.38,42.08c.15,12.17.06,24.38-.98,36.51-.11,1.31-.24,2.61-.37,3.91-.08.74,1.4.54,1.47-.11h0Z"/>
    <path class="cls-10" d="M506.62,623.97c5.61-2.49,12.3-3.46,17.16-7.44,3.05-2.5,4.86-6.51,6.66-9.91,2.14-4.02,4.26-8.05,6.21-12.18,2.22-4.71,4.19-9.54,5.65-14.54.15-.5-1.31-.3-1.45.18-2.49,8.51-6.45,16.46-10.58,24.27-1.98,3.75-3.82,7.91-6.73,11.07-2.05,2.23-5.16,3.4-7.92,4.45-3.17,1.21-6.47,2.12-9.57,3.5-.92.41-.08.87.57.58h0Z"/>
    <path class="cls-52" d="M558.57,809.77c1.17-9.15,2.46-18.28,3.63-27.42.09-.73-1.38-.53-1.47.12-1.17,9.15-2.46,18.28-3.63,27.42-.09.73,1.38.53,1.47-.12h0Z"/>
    <path class="cls-52" d="M326.02,184.95c1.65.4,3.31-.22,4.31-1.59,1.13-1.54,1.16-3.57.85-5.38-.05-.28-1.01-.47-.95-.17.28,1.63.27,3.43-.61,4.89-.66,1.1-2.13,2.2-3.49,1.87-.11-.03-.48-.13-.54.05-.05.17.32.31.42.33h0Z"/>
    <path class="cls-40" d="M315.26,223.64c-4.58-1.16-15.51-.49-18.07,1.04,0,0,2.85,7.75,13.47,10.44,10.62,2.7,14.76-3.28,14.76-3.28,0,0-4.33-6.73-10.16-8.21Z"/>
    <path class="cls-32" d="M302.09,223.5s5.94.97,10.58,2.15c4.64,1.18,10.32,3.16,10.32,3.16,0,0,1.7-3.57-6.71-5.7-8.41-2.13-14.19.4-14.19.4Z"/>
    <path class="cls-14" d="M312.48,233.66c-4.76-2.08-9.39-7.92-15.29-8.98,0,0-.25,10.53,12.24,13.7,12.48,3.17,15.99-6.53,15.99-6.53-5.69-1.89-7.76,2.25-12.94,1.81Z"/>
    <path class="cls-14" d="M321.41,222.15c-2.56-.89-4.52-.16-5.66-.45-1.14-.29-2.51-1.86-5.19-2.3-2.51-.41-14.67,3.9-13.73,5.1.93,1.2,10.28-1.86,18.18.14,7.9,2,9.43,7.83,10.82,7.22,1.39-.61-2.01-8.87-4.41-9.7Z"/>
    <path class="cls-3" d="M319.48,217.47l-1.29,2.96c-.2.46-.14.96.13,1.25,1.91,2.02,12.34,8.37,10.51,10.71-.26.33-.78,1.97-.72,1.99l.79-.06c.85.36,2.62-3.51,2.15-4.39-1.43-2.68-2.84-4.87-3.79-6.11-1.18-1.55-4.56-5.68-6.34-6.98-.47-.34-1.16-.04-1.45.63Z"/>
    <path class="cls-3" d="M314.3,216.11l-.51,3.19c-.08.49-.46.87-.95.95-3.35.56-19.07-.02-18.6,2.97.07.42-.22,2.99-.29,2.97l-.79-.91c-1.03-2.01-.37-5.15.7-5.61,3.25-1.38,6.18-2.37,7.99-2.84,2.26-.6,8.54-2.04,11.29-2.08.73-.01,1.28.64,1.16,1.36Z"/>
    <path class="cls-34" d="M171.97,482.09l-17.48-7.49s8.97-1.38,7.85-6.01c0,0-23.41-7.75-25.55-6.86-1.15.47-4.04,1.55-6.47,2.44-2.45.9-4.68,2.28-6.63,4.01-1.67,1.49-3.41,2.91-5.21,4.25-2.67,2.1-5.86,3.45-9.22,3.9-1.57-.11-3.12-.48-4.58-1.08l-2.01-5.21c-1.04.36-2.07.76-3.08,1.2-6.23,2.76-11.84,6.93-16.52,11.86-1.32,1.39-3.68-9.39-4.85-7.85,3.13,4.17,7.48,20.28,10.8,23.64l.52.84c1.25,1.78,5.29,6.82,8.68,8.23,12.04,5.09,29.44-6.38,29.44-6.38l5.91-.43s21.13,6.46,23.8-.13l.45-1.91-20.59-7.49-8.11-.7,14.77-1.76s20.07,4.05,22.03,3.97c1.97-.08,4.71-2.48,4.32-4.34l-2.6-2.29s3.79-1.38,4.31-4.42Z"/>
    <path class="cls-26" d="M127.43,481.07c1.47-.74,3-1.36,4.58-1.84,2.33-.77,4.7-1.4,7.1-1.88,1.34-.27,2.71-.58,4.22-.8.8-.07,1.6-.01,2.38.17.78.22,1.55.49,2.29.81,5.83,2.29,11.11,4.58,14.87,6.37,1.84.9,3.21,1.65,4.34,2.29"/>
    <path class="cls-26" d="M127.19,475.26c.94-1.14,2.11-2.08,3.43-2.75,6.25-3.67,13.93-2.09,24,1.67"/>
    <path class="cls-34" d="M151.68,250.81l-7.81,16.09c-13.38,10.06-67.2,51.16-90.24,89.32.07.38-5.57,9.31-5.83,9.75-2.18,3.57-4.52,7.17-6,11.11-2.96,7.89-1.79,16.47.34,24.41,1.22,4.55,2.75,9.01,4.1,13.51.31,1.04.63,2.09.95,3.13,16.24,32.25,41.75,79.95,41.75,79.95,0,0,23.23,1.86,20.41-15.73-2.02-12.62-12.97-67.73-19-89.17,21.5-26.7,85.19-82.01,88.45-89.89,5.27-12.82,17.6-56.03-27.11-52.47Z"/>
    <path class="cls-23" d="M135.51,360.99l46.11-42.93,20.15-73.84s-28.91-13.07-53.34,3.55c-12.77,8.99-46.33,48.25-65.62,70.08,26.5,29.89,37.2,36.28,52.71,43.13Z"/>
    <path class="cls-21" d="M136.86,361.24c12.56-12.32,24.12-25.78,34.81-39.75,5.29-6.91,10.38-14,14.93-21.42,3.39-5.54,6.76-11.39,8.55-17.68,2.35-8.25,2.24-19.57-4.58-25.76-.48-.44-1.74.28-1.11.84,6.21,5.64,6.37,15.87,4.62,23.47-1.42,6.19-4.7,11.98-7.92,17.39-9.04,15.15-20.24,29.1-31.79,42.4-6,6.91-12.2,13.66-18.73,20.07-.65.63.75.9,1.22.44h0Z"/>
    <path class="cls-46" d="M675.88,460.22c-.89-6.34.77-37.62-.15-48.16-1.07-12.22.37-20.53-5.58-29.27-8.86-13-6.23-6.79-15.52-17.06l-13.04-11.78s5.92,12.43-13.27,8.39c-23.28-4.9-31.94-28.51-31.94-28.51,0,0-8.81,3.9-25.86,6.5-6.55,1.01-27.08,6.72-32.63,10.74-7.61,5.51-17.17,12.54-33,50.39l19.14,23.99-5.36,5.2c-7.91,17.99-18.34,56.8-26.67,86.46-1.11,3.98-2.2,7.97-3.28,11.96-.64,2.37-7.66,36.26-7.04,38.54.59,2.16,10.45,4.15,12.36,5.58,5.32,3.98,13.38,8.19,22.4,12.24,16.85,5.46,34.67,8.25,52.34,7.66,17.96-.6,44.76-5.23,60.29-14.3,3.4-11.56,4.17-19.58,5.44-24.17,3.85-13.85,3.53-25.8,7.66-39.58.24-.79,2.99-12.95,3.43-13.44.03,0,5.15-19.44,5.18-19.45l3.28-13.71s12.58,1.04,21.82-8.24Z"/>
    <path class="cls-13" d="M557.82,356.55c1.86.54,3.73,2.04,5.07,3.49,3.85,4.16,5.01,10.08,4.92,15.58-.08,5.01-1.12,9.98-2.54,14.77-1.88,6.32-4.28,12.52-6.6,18.69-3.94,10.52-8.13,20.95-12.53,31.28-2.13,5-4.29,10-6.57,14.93l1.31-.41c-4.6-1.25-9.19-2.5-13.79-3.75-.33-.09-1.6.45-1.19.56,4.6,1.25,9.19,2.5,13.79,3.75.31.08,1.15-.07,1.31-.41,6.48-14.01,12.31-28.35,17.8-42.77,2.42-6.36,4.8-12.74,6.96-19.19,1.66-4.97,2.97-10.11,3.38-15.35.47-5.94-.26-12.44-4.07-17.26-1.51-1.91-3.65-3.79-6.04-4.5-.33-.1-1.6.44-1.19.56h0Z"/>
    <path class="cls-13" d="M654.98,467.8c1.61-7.59,3.22-15.18,4.84-22.76.79-3.71,1.58-7.43,2.37-11.14s1.5-7.09,3.01-10.39c.18-.39-1.24-.24-1.44.2-1.47,3.23-2.22,6.69-2.96,10.15-.81,3.79-1.61,7.59-2.42,11.38-1.61,7.59-3.22,15.18-4.84,22.76-.1.49,1.35.26,1.44-.2h0Z"/>
    <path class="cls-46" d="M522.75,367.71s-24.54,41.73-32.1,55.76c0,0,13.78,16.68,35.84,23.72,23.39,7.46,26.97-48.79,26.97-48.79l-30.71-30.69Z"/>
    <path class="cls-31" d="M628.94,335.01c-.78,3.71-8.51,10.75-8.51,10.75,0,0-3.24,24.52-6.69,28.13-5.4,5.64-6.94,3.08-9.22,5.85-6.96,8.44-14.88,16.66-14.88,16.66l-10.68-18.95,8.38-9.64,4.79-24.18,7.01-22.36,17.25-10.33c.1.09.19.2.27.31.74,1.01.52,2.43-.49,3.17l6.56-3.38c3.22,3.81-4.24,10.36-4.24,10.36l8.17-5.06c2.59,4.14-2.68,8.82-2.68,8.82l-9.15,8.59s-2.14,6.98-2.18,9.45c-.04,2.48-.3,5.04-.3,5.04l3.56-7.43,12.46-11.41s1.36,1.9.58,5.62Z"/>
    <path class="cls-37" d="M618.72,358.75c.89-3,1.41-6.11,1.84-9.2.15-1.05.28-2.11.39-3.16.02-.19.03-.39.06-.58.01-.07-.11.15-.04.06.04-.05.1-.1.15-.14,1.39-1.23,2.68-2.6,3.92-3.97,1.57-1.73,3.24-3.6,4.16-5.77.58-1.36.68-3.02.46-4.47-.11-.74-.32-1.56-.76-2.18-.12-.17-.51-.02-.63.08-2.58,2.36-5.16,4.72-7.74,7.08l-4.16,3.81c-.2.18-.46.36-.62.59-.38.54-.61,1.27-.89,1.86-.89,1.85-1.78,3.7-2.66,5.56l.7-.04c.18-1.8.18-3.61.32-5.41.12-1.55.53-3.08.91-4.58.34-1.35.72-2.69,1.11-4.02.04-.13.09-.26.12-.39.04-.17-.04,0-.02,0,.15-.17.34-.32.51-.48,2.94-2.76,5.92-5.47,8.82-8.28,2.28-2.22,4.39-5.74,2.53-8.84-.09-.15-.46-.03-.56.03-2.72,1.69-5.44,3.37-8.17,5.06l.52.17c1.3-1.14,2.48-2.48,3.45-3.91,1.3-1.91,2.52-4.6.84-6.66-.12-.15-.44-.03-.56.03-2.19,1.13-4.37,2.25-6.56,3.38l.52.17c1.19-.94,1.32-2.58.27-3.68-.13-.14-.43-.04-.56.03-4.11,2.44-8.21,4.87-12.32,7.31-.59.35-1.17.69-1.76,1.04-.42.25.21.35.45.21,4.11-2.44,8.21-4.87,12.32-7.31.59-.35,1.17-.69,1.76-1.04l-.56.03c.93.96.89,2.43-.17,3.28-.34.27.38.24.52.17,2.19-1.13,4.37-2.25,6.56-3.38l-.56.03c1.66,2.03.31,4.73-.99,6.57-.92,1.31-2.01,2.54-3.21,3.6-.32.28.37.26.52.17,2.72-1.69,5.44-3.37,8.17-5.06l-.56.03c1.75,2.9-.24,6.26-2.36,8.35-1.04,1.03-2.14,2.01-3.2,3.01l-5.53,5.19c-.28.27-.66.52-.8.88-.41,1.06-.65,2.23-.94,3.32-.46,1.71-.93,3.46-1.14,5.22-.13,1.1-.1,2.22-.17,3.33-.05.83-.11,1.66-.2,2.49-.03.3.62.13.7-.04.76-1.59,1.53-3.18,2.29-4.77.38-.8.77-1.6,1.15-2.4.03-.07.06-.15.11-.22.05-.08-.06.06,0,0,.08-.1.2-.19.3-.28,3.01-2.76,6.03-5.52,9.04-8.28,1.03-.94,2.06-1.89,3.09-2.83l-.63.08c.35.5.53,1.16.64,1.75.28,1.4.22,3.02-.26,4.37-.78,2.16-2.5,4.06-4.01,5.74-1.28,1.42-2.62,2.79-4.02,4.09-.23.22-.3.29-.33.61-.09.87-.19,1.73-.31,2.59-.44,3.39-.98,6.8-1.96,10.08-.08.25.65.16.72-.09h0Z"/>
    <path class="cls-52" d="M618.81,320.96c-.26-.22-.76.1-.98.22-.71.39-1.39.82-2.07,1.25-1.56.98-3.1,2-4.63,3.03-.9.61-1.8,1.22-2.7,1.84-.3.21-.8.43-1.03.72-.1.13-.12.34-.16.5-.49,1.72-.98,3.44-1.46,5.16-.56,2.02-1.1,4.05-1.6,6.09-.08.34.66.25.73-.06.52-2.12,1.08-4.22,1.66-6.32.49-1.76,1.08-3.51,1.49-5.29l-.13.19c2.02-1.37,4.02-2.77,6.06-4.11.92-.6,1.84-1.19,2.77-1.77.4-.25.81-.5,1.22-.73.13-.07.27-.14.4-.21.25-.14.02.05-.14-.09.23.2.87-.14.56-.41h0Z"/>
    <path class="cls-52" d="M600.66,334.1c-.15-.1.19-1.26.22-1.42.21-.96.45-1.91.69-2.86.52-2.05,1.07-4.1,1.64-6.14.15-.56.31-1.11.47-1.67.09-.31.06-.31.31-.47.61-.37,1.22-.75,1.83-1.12,1.91-1.16,3.83-2.3,5.77-3.42.97-.56,1.93-1.11,2.91-1.65.45-.25.91-.49,1.37-.72.14-.07.28-.14.42-.2.05-.02.11-.04.15-.07.22-.14.04.18-.19-.02.15.12.79-.16.68-.24-.25-.21-.98.2-1.21.31-.86.41-1.7.88-2.53,1.35-2.01,1.13-4,2.3-5.98,3.48-1.01.6-2.02,1.21-3.02,1.82-.36.22-1.03.47-1.16.88-.75,2.36-1.33,4.79-1.95,7.18-.3,1.18-.6,2.36-.87,3.56-.04.2-.46,1.49-.22,1.66.16.11.78-.18.68-.24h0Z"/>
    <path class="cls-31" d="M506.93,434.59c-.8,2.13.39.12,0,0-3.67-1.13-12.25-9.78-12.25-9.78-1.7,9.14-7.39,21.1-8.44,28.87-1.6,11.77.48,23.34,6.85,26.87,10.61,5.88,30.75-3.64,48.01-20.97,10.05-10.09,47.28-59.71,63.41-80.26-6.2-2.55-12.86-2.29-17.89-6.74-1.03-.91.63-2.18-.08-3.35l-37.21,29.84-42.4,35.51"/>
    <path class="cls-37" d="M506.32,434.37c-2.05,2.13-3.97,4.37-5.54,6.88s-2.78,5.16-4.08,7.78c-.37.75,1.09.79,1.39.19,1.28-2.57,2.48-5.19,3.99-7.64s3.44-4.67,5.46-6.76c.25-.26.1-.61-.2-.73-.35-.15-.78.02-1.02.27h0Z"/>
    <path class="cls-31" d="M664.82,342.99c-1.66,3.33-.02,13.45-.02,13.45,0,0-11,20.9-12.01,25.7-.25,1.18,5.37,9.65,5.44,13.17.2,10.73-2.26,20.88-2.26,20.88l20.42-8.47.4-14.16,11.06-21.5,8.25-21.46-6.95-18.46c-.13.01-.27.04-.4.07-1.19.33-1.88,1.55-1.56,2.74l-2.98-6.59c-4.8.96-3.06,10.55-3.06,10.55l-3.19-8.87c-4.51,1.6-3.32,8.41-3.32,8.41l1.79,12.18s-2.61,6.66-4.09,8.59c-1.48,1.93-2.84,4.06-2.84,4.06l1.79-7.89-2.62-16.37s-2.21.63-3.87,3.96Z"/>
    <path class="cls-52" d="M681.32,360.77c1.45-3.2,2.8-6.43,4.14-9.68.06-.13.13-.27.17-.41.07-.25-.04-.44-.12-.72-.3-.99-.6-1.98-.91-2.97-.52-1.66-1.05-3.32-1.62-4.97-.31-.89-.62-1.78-.96-2.66-.08-.21-.22-.82-.52-.82-.15,0-.82.29-.47.3-.12,0,0,.12.07.24.11.23.2.47.29.71.3.78.58,1.58.85,2.37.54,1.54,1.04,3.1,1.53,4.66.3.94.59,1.89.88,2.84.09.29.33.76.32,1.07,0,.12-.12.3-.16.41-.62,1.51-1.25,3.02-1.89,4.52-.75,1.76-1.51,3.51-2.29,5.25-.05.11.63.06.71-.13h0Z"/>
    <path class="cls-52" d="M687.05,359.99c.45,0,.66-.21.87-.58.51-.88.91-1.83,1.34-2.75.97-2.13,1.9-4.27,2.81-6.43.25-.59.56-1.19.76-1.8.06-.2.06-.22,0-.42-.24-.72-.52-1.43-.78-2.14-.85-2.29-1.72-4.57-2.62-6.84-.45-1.13-.9-2.26-1.4-3.37-.12-.27-.4-1.24-.78-1.25-.16,0-.82.28-.47.3-.12,0,.07.21.13.32.16.29.29.6.43.9.41.93.8,1.87,1.17,2.81.78,1.95,1.53,3.91,2.27,5.87.35.94.71,1.88,1.05,2.82.15.41.43.84.25,1.24-.9,2.07-1.76,4.17-2.68,6.24-.44,1-.89,2-1.36,2.99-.21.45-.43.9-.66,1.34-.07.14-.23.52-.34.58l.51-.14h-.01c-.15,0-.82.3-.47.3h0Z"/>
    <path class="cls-31" d="M679.04,444.03l-2.25-50.47c-8.14.19-9.44.11-17.45-1.36l-13.01,68.54c-.9,6.31-1.74,16.41-1.74,16.41,0,0-.93,18.6,6.9,26.04,4.09,3.89,10.31,5.66,15.41,1.8,5.09-3.87,11.69-16.18,13.03-29.23.68-6.62-.51-20.34-.88-31.74Z"/>
    <path class="cls-19" d="M202.69,910.18c6.26,5.8,13.52,10.3,21.22,13.94,7.32,3.46,14.96,6.17,22.47,9.19,2.03.81,4.09,1.6,6.03,2.61s3.68,2.29,4.7,4.22c.08.15.6-.04.54-.14-1.76-3.32-5.54-4.74-8.82-6.09-3.74-1.54-7.52-2.98-11.28-4.45-7.73-3.02-15.43-6.22-22.53-10.56-4.22-2.58-8.19-5.55-11.82-8.91-.11-.1-.61.1-.51.19h0Z"/>
    <path class="cls-40" d="M649.85,323.86c-3.94-1.06-13.4-.62-15.63.68,0,0,2.36,6.73,11.51,9.2,9.15,2.46,12.8-2.65,12.8-2.65,0,0-3.66-5.87-8.68-7.22Z"/>
    <path class="cls-32" d="M638.46,323.58s5.13.91,9.12,1.99c3.99,1.08,8.88,2.86,8.88,2.86,0,0,1.51-3.06-5.73-5.01-7.24-1.95-12.27.17-12.27.17Z"/>
    <path class="cls-14" d="M647.32,332.49c-4.09-1.86-8.02-6.97-13.11-7.95,0,0-.34,9.1,10.41,12,10.75,2.9,13.9-5.45,13.9-5.45-4.9-1.7-6.73,1.85-11.21,1.4Z"/>
    <path class="cls-14" d="M655.19,322.65c-2.21-.8-3.91-.2-4.89-.46-.98-.26-2.15-1.64-4.46-2.06-2.16-.39-12.73,3.19-11.94,4.23.79,1.05,8.91-1.48,15.71.35,6.8,1.83,8.05,6.88,9.26,6.38,1.21-.51-1.63-7.69-3.69-8.44Z"/>
  </g>
  <g id="Layer_2" data-name="Layer 2">
    <path class="cls-31" d="M373.31,485l22.3,24.94s35.54,14.74,39.11,16.69c2.79,1.53,18.12,20.27,24.84,29.15,1.33,1.76,1.85,3.81.76,5.73l-.36.34c-3.41,2.02-7.55-1.37-10.33-4.04-6.41-6.15-17.28-15.18-17.28-15.18,0,0-1.88,1.44-1.98,2.3-.84,7.34-5.9,12.39-5.9,12.39,0,0-3.3.41-7.11,4.45-3.81,4.03-7.36-3.22-7.36-3.22,0,0-.16,2.6-6.02,3.29-5.86.7-4.45-9.82-4.45-9.82,0,0-2.57-3.89-12.61-10.65-10.04-6.76-8.53-17.33-8.53-17.33l-24.42-20.8,19.34-18.23"/>
    <path class="cls-52" d="M391.46,527.52c2.92,6.32,9.38,10.78,16.34,11.26,2.37.16,4.88-.43,7.15.42.43.16,1.13-.46.55-.67-1.9-.71-3.9-.48-5.88-.44-1.78.03-3.55-.2-5.26-.7-3.28-.96-6.31-2.8-8.66-5.29-1.34-1.43-2.46-3.06-3.28-4.83-.2-.44-1.16-.16-.97.26h0Z"/>
    <path class="cls-52" d="M414.47,539.19c-.66,3.43-2.04,6.76-2.09,10.29,0,.68-.09,1.66.24,2.28.24.45.73.78,1.13,1.05.87.58,1.83,1.15,2.89.81,1.42-.45,2.4-1.99,3.11-3.21.85-1.45,1.48-3.03,2.16-4.56,1.54-3.48,3.14-6.95,4.54-10.49.66-1.68,1.33-3.43,1.05-5.26-.25-1.64-1.14-3.14-2.43-4.17-.23-.18-1.1.19-.9.35,1.08.85,1.85,2.01,2.22,3.34.41,1.48.17,2.95-.32,4.39-1.09,3.18-2.56,6.25-3.92,9.32-.67,1.51-1.33,3.01-2.01,4.52-.6,1.34-1.22,2.69-2.1,3.87-.39.52-1.12,1.65-1.86,1.53-.48-.08-.99-.45-1.39-.7s-.82-.54-1.11-.91c-.39-.5-.32-1.36-.33-1.96-.07-3.64,1.39-7.1,2.08-10.63.05-.28-.91-.12-.96.15h0Z"/>
    <path class="cls-52" d="M400.22,552.36c-.26-1.33,1.69-1.78,2.64-1.91,1.26-.17,2.36.69,3.19,1.54.31.32,1.22-.08.88-.43-1.19-1.21-2.62-2.1-4.37-1.76-1.37.27-3.66.99-3.31,2.83.09.45,1.06.21.97-.26h0Z"/>
    <path class="cls-52" d="M410.22,558.4c-.7-1.24-1.31-2.53-1.81-3.86s-1.04-2.75-1.09-4.14c-.1-2.79,2.8-4.77,5.31-3.41.39.21,1.22-.31.74-.57-2.62-1.42-6.06-.17-6.87,2.78-.45,1.62.17,3.36.7,4.9.56,1.65,1.28,3.23,2.14,4.74.22.39,1.14.02.88-.43h0Z"/>
    <path class="cls-52" d="M422.07,557.93c-1.98-.98-4.17-2.11-5.05-4.28-.12-.28-1.07.01-.97.26.92,2.26,3.17,3.42,5.24,4.45.19.09.51-.01.68-.11.13-.07.3-.22.1-.31h0Z"/>
    <path class="cls-52" d="M424.8,545.29c-.13.27-.28.53-.47.77-.09.12-.19.24-.3.35-.03.03-.11.08-.13.12,0,0,.36-.1.36-.09-.01-.02-.08-.03-.11-.05-.28-.15-.54-.36-.79-.55-.27-.2-.52-.42-.77-.64-.15-.13-.47-.03-.63.03-.08.03-.42.19-.28.32.31.28.64.55.98.8.37.27.73.58,1.21.54.91-.07,1.52-.98,1.88-1.74.08-.18-.33-.15-.4-.14-.18.03-.47.1-.56.29h0Z"/>
    <path class="cls-31" d="M368.64,474.24l-33.73-48.98c-1.98,2-.57,4.07-2.44,6.19-8.61,9.74-13.21,17.63-21.25,27.91-1.22,1.56-2.19,6.79-3.28,12.24,8.34,10.3,21.54,17.86,30.2,25.73,2.92,2.65,34.25,22.73,42.33,32.31,4.23-6.7,10.02-13.49,16.11-15.95l3.12,1.72c.87,2.65-27.81-37.34-31.04-41.16Z"/>
    <path class="cls-52" d="M395.62,509.91c-2.2-.49-4.55.55-6.11,2.07-1.8,1.76-2.72,4.19-3.93,6.35-.08.14.34.07.38.07.15-.03.48-.09.57-.25,1.01-1.81,1.81-3.77,3.1-5.42,1.23-1.58,3.1-2.94,5.19-2.47.21.05.49-.04.67-.13.08-.04.33-.17.13-.22h0Z"/>
    <path class="cls-45" d="M836.71,936.1c2.77,8.35-2.13,16.31-7.17,21.08-5.04,4.77-11.75,7.44-18.52,8.96-18.15,4.08-37.14.59-55.06-4.44-9.58-2.68-19.11-5.84-27.69-10.87-2.42-1.42-5.06-3.58-4.74-6.37.31-2.63,3.32-4.24,5.96-4.03,2.64.21,6.7-1.7,9.32-1.29,19.17,2.93,17.6,6.2,46.35,14.15,5.81,1.61,15.36,2.75,20.82.18,5.46-2.57,12.83-6.21,14.05-12.12.57-2.75,2.77-4.45,1.34-6.86-2.83-4.78-.65-4.28-5.68-4.91.51-12.43,18.02-2.52,21.02,6.53Z"/>
    <path class="cls-45" d="M851.74,869.01c6.06-6.37,5.03-15.66,2.51-22.12-2.52-6.47-7.45-11.74-12.93-16.01-14.68-11.43-33.34-16.38-51.69-19.48-9.81-1.66-19.78-2.87-29.68-1.98-2.8.25-6.1,1.08-7,3.74-.85,2.51,1.19,5.25,3.67,6.18,2.48.93,11.91,5.8,14.55,5.52,22.59-2.44,27.29-.89,47.56,9.4,5.38,2.73,13.03,6.59,16.87,11.25,3.84,4.65,6.35,7.24,4.94,13.1-.66,2.73-5.9,5.69-8.22,7.26-4.6,3.11,2.44,1.65-2.38.07-4.84,11.45,15.22,9.97,21.8,3.07Z"/>
    <path class="cls-36" d="M755.1,801.73c-10.91-4.58-22.72-7.59-34.53-6.76-11.81.83-23.63,5.84-31.05,15.06-4.09,5.08-6.7,11.17-9.03,17.26-9.5,24.73-15.38,50.85-17.4,77.26-.35,4.53-.58,9.12.17,13.6,2.39,14.24,14.72,25.38,28.49,29.71,11.59,3.65,24.01,3.22,36.15,2.75,20.31-.78,40.62-1.55,60.94-2.33,6.91-.26,14.06-.58,20.27-3.63,10.41-5.11,15.88-16.63,19.66-27.59,3.49-10.12,6.22-20.51,8.14-31.04,2.86-15.61-.51-31.56-13.12-42.28-11.49-9.77-26.36-17.47-39.02-25.68-9.48-6.15-19.23-11.95-29.67-16.33Z"/>
    <g>
      <path class="cls-38" d="M686.86,886.71l8.61-38.43c3.17-14.16,17.23-23.07,31.39-19.9l24.92,5.58-20.1,89.72-24.92-5.58c-14.16-3.17-23.07-17.23-19.9-31.39Z"/>
      <path class="cls-42" d="M688.32,886.55c2.65-11.84,5.3-23.67,7.96-35.51.45-2.01.85-4.04,1.54-5.98,1.87-5.27,5.55-9.85,10.29-12.81,4.68-2.93,10.29-4.12,15.76-3.4,2.31.3,4.6.94,6.87,1.45,6.72,1.51,13.45,3.01,20.17,4.52l-.58-.68c-.67,2.99-1.34,5.97-2.01,8.96-1.6,7.13-3.19,14.26-4.79,21.39-1.93,8.62-3.86,17.24-5.79,25.86-1.68,7.49-3.36,14.98-5.03,22.47l-1.65,7.35c-.25,1.14-.7,2.37-.79,3.54,0,.05-.02.11-.04.16l2.33-1c-6.35-1.42-12.71-2.85-19.06-4.27-2.47-.55-4.98-1.01-7.42-1.71-5.86-1.69-10.93-5.55-14.25-10.64-3.78-5.8-4.98-12.93-3.52-19.67.26-1.18-2.68-.75-2.91.32-2.67,12.28,3.66,25.15,15.2,30.31,2.92,1.3,5.99,1.92,9.08,2.61,4.12.92,8.24,1.85,12.37,2.77,2.92.65,5.83,1.31,8.75,1.96.73.16,2.13-.12,2.33-1,.67-2.99,1.34-5.97,2.01-8.96,1.6-7.13,3.19-14.26,4.79-21.39,1.93-8.62,3.86-17.24,5.79-25.86,1.68-7.49,3.36-14.98,5.03-22.47l1.65-7.35c.25-1.13.72-2.38.79-3.54,0-.05.02-.11.04-.16.08-.37-.27-.61-.58-.68-6.07-1.36-12.14-2.72-18.2-4.08-2.23-.5-4.46-1.01-6.7-1.5-5.58-1.22-11.36-.77-16.68,1.29s-9.87,5.68-13.04,10.33c-2.1,3.09-3.4,6.54-4.21,10.17-1.45,6.47-2.9,12.94-4.35,19.41-.85,3.77-1.69,7.55-2.54,11.32-.48,2.15-1.08,4.31-1.45,6.49-.02.1-.05.21-.07.31-.26,1.17,2.67.75,2.91-.32Z"/>
    </g>
    <g>
      <path class="cls-38" d="M735.67,926.88l10.65-47.52.06-.28,10.65-47.52s-11.51-4.2-24.36,7.5c-12,10.91-22.02,55.66-15.83,70.65,6.64,16.06,18.84,17.18,18.84,17.18Z"/>
      <path class="cls-42" d="M737.13,926.76c1.21-5.41,2.42-10.81,3.63-16.22,1.91-8.53,3.82-17.05,5.73-25.58.71-3.18,1.43-6.37,2.14-9.55,1.83-8.15,3.65-16.3,5.48-24.46.93-4.14,1.85-8.28,2.78-12.41.5-2.25,1.15-4.52,1.52-6.79.02-.11.05-.21.07-.32.09-.41-.29-.7-.62-.82-2.2-.79-4.76-.89-7.07-.78-5.73.28-11.22,2.58-15.82,5.93-3.65,2.65-6.4,5.78-8.65,9.67-2.3,3.97-4.07,8.24-5.6,12.56-3.48,9.87-5.82,20.25-6.83,30.67-.44,4.57-.62,9.2-.19,13.78.4,4.36,1.64,8.21,3.8,12.04,3.55,6.3,9.82,12.3,17.28,13.36.12.02.24.04.37.05.65.06,1.61-.21,1.89-.87s-.25-1.1-.87-1.16c-.11-.01-.23-.03-.34-.05-.13-.02-.27-.05-.4-.07-.29-.05.3.07-.01,0-.1-.02-.2-.04-.3-.07-1.16-.3-2.28-.68-3.37-1.18-3.76-1.71-6.93-4.55-9.37-7.84-2.7-3.64-4.69-7.8-5.43-12.28-.66-4.02-.64-8.13-.41-12.18.57-9.9,2.54-19.78,5.42-29.26,1.36-4.46,2.96-8.86,4.96-13.08,1.55-3.27,3.34-6.56,5.79-9.26,4.01-4.41,9.95-7.79,15.9-8.57,2.52-.33,5.4-.32,7.58.46l-.62-.82c-1.21,5.41-2.42,10.81-3.63,16.22-1.91,8.53-3.82,17.05-5.73,25.58-.71,3.18-1.43,6.37-2.14,9.55-1.83,8.15-3.65,16.3-5.48,24.46l-2.78,12.41c-.5,2.25-1.15,4.52-1.52,6.79-.02.11-.05.21-.07.32-.3,1.36,2.65.99,2.93-.25Z"/>
    </g>
    <path class="cls-17" d="M821.37,934.48l12.32-33.3.06-.26,3.43-30.18s-16.83-21.12-39.24-12.48c-20.91,8.07-30.31,50.01-14.84,66.23,16.57,17.38,38.27,9.99,38.27,9.99Z"/>
    <path class="cls-38" d="M837.17,870.74l-3.68,23.36-4.88,16.58-7.24,23.8s23.99,20.45,46.69,12.6c21.18-7.33,32.05-48.92,17.16-65.67-15.95-17.95-48.04-10.68-48.04-10.68Z"/>
    <g id="Layer_11" data-name="Layer 11">
      <polygon class="cls-54" points="866.62 941.97 867.25 942.87 866.62 943.78 867.25 944.68 866.62 945.57 867.25 946.47 866.62 947.37 867.25 948.27 866.62 949.18 867.25 950.08 866.62 950.98 867.25 951.88 866.62 952.77 867.25 953.67 866.62 954.58 867.25 955.48 866.62 956.38 867.25 957.28 866.62 958.18 867.25 959.07 866.62 959.97 867.25 960.88 866.62 961.78 887.05 961.78 886.42 960.87 887.05 959.97 886.42 959.07 887.05 958.18 886.42 957.28 887.05 956.37 886.42 955.47 887.05 954.57 886.42 953.67 887.05 952.77 886.42 951.88 887.05 950.97 886.42 950.07 887.05 949.17 886.42 948.27 887.05 947.37 886.42 946.47 887.05 945.56 886.42 944.67 887.05 943.77 886.42 942.87 887.05 941.97 866.62 941.97"/>
      <path class="cls-44" d="M884.05,960.14h-14.42c-.58,0-1.05-.48-1.06-1.06v-14.42c0-.56.44-1.03,1-1.06h14.44c.58,0,1.05.48,1.06,1.06v14.42c0,.57-.45,1.03-1.02,1.06Z"/>
      <path class="cls-54" d="M870.41,951.88c-.01-3.55,2.85-6.43,6.4-6.44,3.55-.01,6.43,2.85,6.44,6.4s-2.85,6.43-6.4,6.44h-.02c-3.54,0-6.4-2.86-6.42-6.4ZM881.47,951.88c0-2.56-2.07-4.63-4.63-4.63-2.56,0-4.63,2.07-4.63,4.63,0,2.56,2.07,4.63,4.63,4.63h0c2.56,0,4.63-2.07,4.63-4.63Z"/>
      <polygon class="cls-2" points="816.23 918.96 816.86 919.86 816.23 920.76 816.86 921.66 816.23 922.56 816.86 923.47 816.23 924.36 816.86 925.26 816.23 926.16 816.86 927.06 816.23 927.96 816.86 928.87 816.23 929.77 816.86 930.67 816.23 931.56 816.86 932.46 816.23 933.36 816.86 934.27 816.23 935.17 816.86 936.07 816.23 936.97 816.86 937.87 816.23 938.76 836.67 938.76 836.04 937.87 836.67 936.97 836.04 936.06 836.67 935.16 836.04 934.26 836.67 933.36 836.04 932.46 836.67 931.56 836.04 930.66 836.67 929.76 836.04 928.86 836.67 927.96 836.04 927.06 836.67 926.16 836.04 925.25 836.67 924.35 836.04 923.46 836.67 922.56 836.04 921.66 836.67 920.76 836.04 919.86 836.67 918.96 816.23 918.96"/>
      <path class="cls-18" d="M833.67,937.13h-14.42c-.58,0-1.05-.46-1.06-1.04,0,0,0-.01,0-.02v-14.42c0-.56.44-1.02,1-1.05h14.44c.55-.03,1.02.4,1.05.95,0,.03,0,.07,0,.1v14.42c0,.57-.44,1.04-1.01,1.06Z"/>
      <path class="cls-2" d="M820.03,928.86c0-3.55,2.88-6.43,6.43-6.43s6.43,2.88,6.43,6.43-2.88,6.43-6.43,6.43c-3.55,0-6.43-2.88-6.43-6.43ZM831.09,928.86c0-2.56-2.08-4.64-4.64-4.64s-4.64,2.08-4.64,4.64c0,2.56,2.08,4.64,4.64,4.64h0c2.56,0,4.63-2.07,4.63-4.63h0Z"/>
      <polygon class="cls-5" points="848.36 938.69 848.58 939.77 847.64 940.34 847.85 941.42 846.91 942 847.12 943.07 846.18 943.65 846.4 944.72 845.46 945.29 845.67 946.37 844.73 946.94 844.95 948.02 844.01 948.59 844.22 949.67 843.28 950.24 843.5 951.32 842.56 951.89 842.77 952.96 841.84 953.53 842.04 954.61 841.12 955.18 841.33 956.26 840.39 956.83 859.1 965.06 858.88 963.98 859.82 963.4 859.61 962.33 860.55 961.75 860.34 960.67 861.27 960.1 861.06 959.02 862 958.46 861.79 957.38 862.73 956.81 862.51 955.73 863.44 955.16 863.23 954.08 864.17 953.51 863.95 952.43 864.89 951.87 864.68 950.79 865.62 950.22 865.4 949.14 866.34 948.57 866.13 947.49 867.07 946.92 848.36 938.69"/>
      <path class="cls-25" d="M857,962.34l-13.2-5.8c-.53-.23-.77-.85-.54-1.38,0,0,0,0,0,0l5.8-13.2c.23-.53.84-.77,1.37-.55l13.22,5.81c.53.23.77.85.54,1.38,0,0,0,0,0,0l-5.8,13.2c-.23.53-.85.77-1.38.54,0,0,0,0,0,0Z"/>
      <path class="cls-5" d="M847.88,949.29c1.43-3.25,5.22-4.72,8.46-3.29,3.25,1.43,4.72,5.22,3.29,8.46-1.43,3.24-5.21,4.71-8.46,3.29-3.25-1.43-4.72-5.22-3.3-8.47ZM858,953.74c1.03-2.34-.04-5.08-2.38-6.11-2.34-1.03-5.08.04-6.11,2.38-1.03,2.34.03,5.07,2.37,6.1,2.34,1.01,5.05-.05,6.08-2.38h.03Z"/>
    </g>
    <path class="cls-52" d="M654.04,286.43c1.44.21,2.9-.6,3.68-1.78.93-1.41.8-3.24.61-4.84-.02-.21-1-.02-.97.26.16,1.38.28,2.87-.29,4.18-.41.94-1.31,1.93-2.42,1.77-.21-.03-.51.05-.68.18-.15.12-.13.21.06.24h0Z"/>
  </g>
</svg>