<svg xmlns="http://www.w3.org/2000/svg" viewBox="0 0 285.1 249.23"><defs><style>.cls-1{fill:#946344;}.cls-2{fill:#af6c5d;}.cls-3{fill:#824f45;}.cls-4{fill:#dfa826;}.cls-5{fill:#273339;}.cls-6{fill:#475c66;}.cls-7{fill:#98722b;}.cls-8{fill:#fff;}.cls-9{fill:#c95744;}.cls-10{fill:#242f34;}.cls-11{fill:#642b11;}.cls-12{fill:#956243;}.cls-13{fill:#794c36;}.cls-14{fill:#ce8d2a;}.cls-15{fill:#010101;}.cls-16{fill:#13110f;}.cls-17{fill:#b15e27;}.cls-18{fill:#df8c26;}.cls-19{fill:#653c29;}.cls-20{fill:#31160e;}.cls-21{fill:#f1eef7;}.cls-22{fill:#593526;}.cls-23{fill:#653c2a;}</style></defs><g id="Layer_1" data-name="Layer 1"><path class="cls-1" d="M66.8,118.68l-4.95-9S59.77,96.81,58.7,95.3s-5-9.27-5-9.27l-12-5.37a3.11,3.11,0,0,0-2,2.87S36,84.82,36.32,87.69a2.27,2.27,0,0,0-2.44,2.1,2.17,2.17,0,0,0,.13.95,11.07,11.07,0,0,0,.83,2.43c-.46.34-3.15,2.43-2.51,3.94a25.74,25.74,0,0,0,4.3,6.18,2.8,2.8,0,0,0,2.54.71h0l2.72,3.68s3.81,6.35,6.72,8.8l2,1.35L55,126.77A25.22,25.22,0,0,0,66.8,118.68Z"/><path class="cls-2" d="M40,90.15a17.68,17.68,0,0,1-.19-7.06l3.92.56a21.52,21.52,0,0,1,.12,3.59,4.39,4.39,0,0,1-1.47,3.6,1.59,1.59,0,0,1-2.06.12A1.84,1.84,0,0,1,40,90.15Z"/><path class="cls-3" d="M43.74,83.65a2,2,0,0,1,.16.69A15.4,15.4,0,0,1,44,86.26c0,.42,0,.85,0,1.34a5.32,5.32,0,0,1-.25,1.53,4,4,0,0,1-.85,1.49,2.29,2.29,0,0,1-1.65.81,1.27,1.27,0,0,1-.93-.37,1.81,1.81,0,0,1-.4-.85,11.89,11.89,0,0,1-.33-1.66,16,16,0,0,1-.08-2.85c0-.81.15-1.41.2-1.91a5.12,5.12,0,0,1,.14-.68,2.74,2.74,0,0,1,0,.7c0,.44-.09,1.1-.12,1.89a18.84,18.84,0,0,0,.15,2.81,12.57,12.57,0,0,0,.33,1.62,1.67,1.67,0,0,0,.34.74.89.89,0,0,0,.72.28,2,2,0,0,0,1.46-.72A3.61,3.61,0,0,0,43.5,89a5,5,0,0,0,.27-1.44c0-.47,0-.92,0-1.36,0-.81,0-1.45,0-1.9S43.73,83.66,43.74,83.65Z"/><path class="cls-3" d="M41.28,91.29a1.07,1.07,0,0,1,.07.19,4.72,4.72,0,0,1,.18.53,4.87,4.87,0,0,1,.33,2.07,6.41,6.41,0,0,1-.88,3,2.35,2.35,0,0,1-1.5,1.11,1.66,1.66,0,0,1-1-.12,1.67,1.67,0,0,1-.73-.78,9,9,0,0,1-.49-1.92c-.12-.62-.24-1.27-.3-1.79-.13-1.15-.25-2.18-.37-3.06s-.21-1.58-.29-2a4,4,0,0,1-.1-.77,4.84,4.84,0,0,1,.25.73,15.33,15.33,0,0,1,.37,2c.14.88.28,1.91.44,3.05.09.57.18,1.17.3,1.78A8.56,8.56,0,0,0,38,97.17a1.35,1.35,0,0,0,.6.65,1.28,1.28,0,0,0,.84.1,2.13,2.13,0,0,0,1.35-1,6.63,6.63,0,0,0,.9-2.84,5.74,5.74,0,0,0-.23-2A6.86,6.86,0,0,1,41.28,91.29Z"/><path class="cls-3" d="M41.33,96.45a1,1,0,0,1,.17.18,4.91,4.91,0,0,1,.4.53,7.61,7.61,0,0,1,1,2.27,5.45,5.45,0,0,1-.1,3.65,3,3,0,0,1-1.51,1.6,1.59,1.59,0,0,1-1.23,0,2.4,2.4,0,0,1-.9-.86,29.62,29.62,0,0,1-1.77-4.14l-1.19-3.47a17.52,17.52,0,0,0-.89-2.3,8.69,8.69,0,0,1-.29-.86l.07.22c0,.15.18.33.3.6.26.52.6,1.3,1,2.28s.8,2.15,1.29,3.42a33.71,33.71,0,0,0,1.78,4.09,1.92,1.92,0,0,0,.77.75,1.33,1.33,0,0,0,1,0A2.77,2.77,0,0,0,42.58,103a5.42,5.42,0,0,0,.16-3.49A10.34,10.34,0,0,0,41.33,96.45Z"/><path class="cls-4" d="M93.85,58.42c2.5,1.21,5,2.33,7.51,3.66a8.19,8.19,0,0,1,4.38,5.41,9,9,0,0,1-1.5,7c-4.12,6.83-9.9,13.52-17.74,16a21.89,21.89,0,0,1-16.06-1.58c-2-1-.5-4.13,1.54-3.16a18.35,18.35,0,0,0,12.19,1.74,21.33,21.33,0,0,0,9.33-5.12,41.07,41.07,0,0,0,6.62-7.85A12.14,12.14,0,0,0,102.43,70a4.65,4.65,0,0,0-2.59-4.73c-2.48-1.29-5-2.46-7.52-3.67a1.75,1.75,0,0,1,1.53-3.15Z"/><path class="cls-4" d="M44.68,38c-2.36-1.14-4.71-2.3-7.08-3.43a5,5,0,0,0-4.36-.34c-1.89.86-2.51,2.69-3.15,4.49-2.32,6.36-3.75,13.84-1.33,20.38a18.16,18.16,0,0,0,9.41,9.8c2,1,.48,4.17-1.52,3.23A22.17,22.17,0,0,1,26.18,62a25.15,25.15,0,0,1-2-12.58,45.07,45.07,0,0,1,2.58-11.58,11.8,11.8,0,0,1,3.38-5.71,8.08,8.08,0,0,1,7.36-1.38,65.54,65.54,0,0,1,8.76,4.15A1.75,1.75,0,0,1,44.68,38Z"/><path class="cls-4" d="M42,93.42l4.41,1h0l.1.08.1,0h0l3.6,2.92s-3.37,8.3-3.13,15.57l-7.66-3.74-.21-.1-7.68-3.74C37.49,101.16,42,93.42,42,93.42Z"/><rect class="cls-4" x="44.15" y="84.17" width="5.88" height="18.43" rx="2.9" transform="translate(-57.49 94.78) rotate(-64.01)"/><path class="cls-4" d="M46.69,26.46l26.62,13,1.41.68L99.87,52.39c-.08.63-23,54.24-51.9,39h0C18.1,78,46.29,26.92,46.69,26.46Z"/><path class="cls-5" d="M39.49,92.93s2.65,1.38,6,3,6,2.91,6,2.86-2.68-1.33-6-3S39.51,92.92,39.49,92.93Z"/><path class="cls-5" d="M41.8,87.55s2.87,1.49,6.44,3.21,6.51,3.19,6.48,3.1-2.86-1.48-6.44-3.21S41.83,87.52,41.8,87.55Z"/><path class="cls-5" d="M31.76,102.54s3.56,1.83,8,4,8.07,3.81,8.07,3.81-3.55-1.83-8-4S31.77,102.51,31.76,102.54Z"/><path class="cls-6" d="M46.69,26.46l.05.14.33.3,1.3,1.17.93.84,1.15,1c.83.69,1.75,1.5,2.82,2.31.54.42,1.1.84,1.68,1.31s1.23.93,1.83,1.37l1,.7c.17.12.33.25.51.37l.51.35L61,37.73a110,110,0,0,0,10.11,5.79,113.35,113.35,0,0,0,10.7,4.6l2.46.86.6.2.59.19,1.19.3c.77.22,1.51.47,2.18.6l2.06.55c1.3.36,2.49.6,3.54.85l1.47.33,1.24.22,1.7.31.45.08.16,0-.15,0-.45-.09-1.7-.34-1.24-.24c-.45-.09-.94-.22-1.47-.33-1-.25-2.24-.49-3.55-.87l-2-.56-2.18-.61-1.15-.36-.6-.17-.59-.22-2.46-.86a110.7,110.7,0,0,1-10.67-4.61,109.67,109.67,0,0,1-10.11-5.76l-2.12-1.44-.52-.34-.51-.37-1-.71c-.65-.45-1.29-.91-1.82-1.35l-1.7-1.3c-1.07-.81-2-1.61-2.82-2.28-.42-.35-.81-.66-1.16-1s-.66-.59-1-.83l-1.31-1.15-.35-.3Z"/><polygon class="cls-7" points="66.4 52.49 59.2 58.07 50.52 55.29 53.6 63.86 48.28 71.26 57.38 70.98 62.77 78.31 65.31 69.57 73.97 66.72 66.44 61.6 66.4 52.49"/><path class="cls-6" d="M46.69,26.46l-.08.15-.25.44c-.2.38-.52.94-.9,1.66-.78,1.46-1.86,3.59-3.08,6.29s-2.59,5.94-3.85,9.64a84,84,0,0,0-3.3,12.28,55.43,55.43,0,0,0-.95,12.66A35.33,35.33,0,0,0,35,75.1l.14.63.2.59.21.6.19.57.76,2.2a22.92,22.92,0,0,0,3.64,6c.53.63,1,1.1,1.28,1.4l.37.35.11.11a.69.69,0,0,0-.11-.13c0-.09-.19-.2-.35-.35-.3-.32-.73-.78-1.25-1.41a22.6,22.6,0,0,1-3.59-6c-.28-.71-.53-1.44-.74-2.18l-.2-.58-.2-.58-.21-.6-.12-.63a36.27,36.27,0,0,1-.69-5.5,54,54,0,0,1,1-12.62,86.54,86.54,0,0,1,3.27-12.26c1.27-3.7,2.63-7,3.83-9.66a66.1,66.1,0,0,1,3.08-6.3c.37-.73.68-1.3.89-1.66l.23-.43Z"/><path class="cls-8" d="M58.55,91.35l.13,0,.4.11a9.22,9.22,0,0,0,1.57.19,10.39,10.39,0,0,0,2.48-.25,15.05,15.05,0,0,0,3.13-1.08,25.07,25.07,0,0,0,3.48-2l1.82-1.28,1.87-1.47a60.1,60.1,0,0,0,7.49-7.39,91,91,0,0,0,6.34-8.4c1.78-2.69,3.32-5.21,4.58-7.29s2.22-3.83,2.89-5.06l.77-1.37.19-.35a.83.83,0,0,0,.07-.13l-.07.11-.22.35-.79,1.37c-.69,1.18-1.72,2.9-3,5s-2.79,4.58-4.6,7.26a92.23,92.23,0,0,1-6.34,8.39,62,62,0,0,1-7.47,7.38c-.64.5-1.24,1-1.85,1.47l-1.82,1.28a26.39,26.39,0,0,1-3.44,2,15.75,15.75,0,0,1-3.12,1.07,11.32,11.32,0,0,1-2.46.28,10.33,10.33,0,0,1-1.57-.17l-.39-.09Z"/><path class="cls-8" d="M53.63,94.66a1.6,1.6,0,0,1,.42,1.94,3.88,3.88,0,0,1-.94,1.22l-.47.44a2,2,0,0,0,.54-.36,3.18,3.18,0,0,0,.94-1.21A1.86,1.86,0,0,0,54,95.11a1.07,1.07,0,0,0-.32-.35A.12.12,0,0,0,53.63,94.66Z"/><path class="cls-1" d="M56.73,95.82,43.14,89.56a5.77,5.77,0,0,0,1.42,6.2,16.77,16.77,0,0,0,5.74,3.52c-3.21,3.37-3.88,10.82,1.3,14.59"/><path class="cls-3" d="M49.76,112.05a.62.62,0,0,0-.16-.2,2.69,2.69,0,0,1-.46-.63A9,9,0,0,1,48,108.6a10.42,10.42,0,0,1-.16-4.41,9.84,9.84,0,0,1,2.44-5l.07.21a30.59,30.59,0,0,1-3.25-1.6,10.25,10.25,0,0,1-3-2.36,6.72,6.72,0,0,1-1.39-2.91,4.73,4.73,0,0,1,.32-3l.05-.13.11.06L52.83,94l2.81,1.34.74.35.26.15s-.09,0-.28-.1l-.76-.32-2.84-1.27L43,89.67l.18-.07a4.64,4.64,0,0,0-.31,2.82,6.62,6.62,0,0,0,1.34,2.8,10.18,10.18,0,0,0,2.88,2.34,28.72,28.72,0,0,0,3.18,1.61l.16.07-.13.14a9.64,9.64,0,0,0-2.39,4.88,10.65,10.65,0,0,0,.13,4.32,9.57,9.57,0,0,0,1.07,2.63Z"/><path class="cls-9" d="M95.9,179.55c-.42-12.06-1.87-11-5.76-22.26-3-8.74-8.75-16.48-13.13-24.62-.83-1.54-11.12-19.73-12-19.12A29.27,29.27,0,0,1,59.33,118c-4.4,1.31-5.24,1.73-9.81,1.24l-1,2.74c.3,0,1.21,4.36,1.31,4.7.87,3.16,1.9,3.78,2.8,6.94,4.51,15.81,8.94,37.26,18.9,51,3,4.1,8.51,9.55,14.31,9.19,9.36-.57,14-5.52,17-8.52C102.34,184.91,95.92,180.26,95.9,179.55Z"/><path class="cls-9" d="M99.36,163.38a37.37,37.37,0,0,0-3-7.21,118.77,118.77,0,0,1,3.85,11.42A25.63,25.63,0,0,0,99.36,163.38Z"/><path class="cls-9" d="M130.56,118.67c-4.79-.24-15.7,4.57-18.61,8.39L90.13,156.79c0,14.05,7.22,20-1.26,32.11,0,0,6.77,1.72,7.45,1.53,2.93-.81,6.1-3.87,9.26-6.22,11.28-8.44,15.91-16.72,26-26.4l18.34-40.06Z"/><path class="cls-10" d="M139.05,124.23l-2.5,22.52-3.94,35.58-.91,8.17c0,.28.89.11.92-.14l2.5-22.53,3.94-35.58.91-8.17c0-.28-.89-.1-.92.15Z"/><path class="cls-9" d="M247,148.42l-7.52,24.94-10.72-34.62c-1.24-4.64-4.46-10.88-9-12.48l-11.29-2.73-7.65,40.81,16.77,41.11c1.56,3.8,6.88,10,10.58,11.76,6.82,3.33,13.45,5.19,19.63,1,1.69-1.14,5-5.8,6.13-8,2.79-5.34,6.68-22.43,7.18-28.44l4.82-30.66Z"/><path class="cls-9" d="M214.78,242.47c-.48-2.71-1.48-4.6-2.4-7.19a31,31,0,0,1-1.27-6.76c-1.29-11.74-1.29-21.35-.52-27.05.54-4,6.26-6.44,8.58-14.14,2-6.74-7.8-63.23-7.8-63.23l-19.27-5.22-5.11-1-.39-.23a3.24,3.24,0,0,0,0,.92l.06.49a17.22,17.22,0,0,1-13.51,8.71,41.56,41.56,0,0,1-5.89.06c-6.45-.39-11.3-3.51-15-8.77l-.12-2.11L140,120.37,129.45,128l-12.07,50.45c.52,9.47-.66,6.7,3.29,15.33l5.61,5.54.33,29.19s-3.3,7.86-7.33,20.28h96.57C215.43,246.83,215.14,244.48,214.78,242.47Z"/><path class="cls-11" d="M239.46,173.36s-8.09,19.49-8.64,26.72l-.88-1.78S234.55,178.21,239.46,173.36Z"/><path class="cls-12" d="M185.9,115.46c-.34-1.08,0-12.53,0-12.53l-16.94,2.61L152,102.93s.33,12.65,0,13.72-10.85,1.52-10.85,1.52,5.78,13,27.79,13,27.7-11.15,27.7-11.15S186.24,116.54,185.9,115.46Z"/><path class="cls-13" d="M152,103.6c.26.2,2.22,2.79,2.51,3,6.95,4.93,8,6.28,14,6.52,6-.24,8.59-1.07,15.05-7.09,2.18-2,1.7-2.71,2.18-3.09C175,102.9,162.83,103.52,152,103.6Z"/><path class="cls-12" d="M141.08,69.72s-3.25-5-5.09-4.78c-1.12.12,1.47,2.64,1.79,5.5.43,3.82-2.4,4.31-1.51,6.47s2,9.71,5,9.39c1.18-.13,2.38-2.74,2.38-2.74S142,73.13,141.08,69.72Z"/><path class="cls-14" d="M140.22,83.89a2.89,2.89,0,0,0-2.76,2.31,2.3,2.3,0,0,0,.44,1.63,2.08,2.08,0,0,0,1.07.75,3.29,3.29,0,0,0,2.85-.45c.15-.1.11-.2-.06-.22a1.06,1.06,0,0,0-.64.18,1.28,1.28,0,0,1-.73.25,2.32,2.32,0,0,1-.78-.17,1.67,1.67,0,0,1-.8-.58,2.19,2.19,0,0,1,0-2.62,1.88,1.88,0,0,1,.55-.5,1,1,0,0,1,.27-.13c.07,0-.06,0,0,0l.12,0,.12,0a.92.92,0,0,0,.6-.22c.12-.15-.1-.18-.22-.17Z"/><path class="cls-12" d="M195.2,69.57s2.73-5.29,4.58-5.28c1.13,0-1.2,2.78-1.23,5.66,0,3.84,2.82,4,2.16,6.29s-1.06,9.86-4,9.84c-1.19,0-2.65-2.48-2.65-2.48S194.58,73.06,195.2,69.57Z"/><path class="cls-12" d="M199.2,72.7h0c-.66,3.35-1.48,6.86-2,10.9-1.48,10.64-4.65,15.54-11.88,20.24-7.58,4.93-9.85,6.85-16.39,7.09-6.55-.24-8.82-2.16-16.4-7.09-7.23-4.7-10.4-9.6-11.88-20.24-.33-2.38-.74-4.57-1.17-6.65-.31-1.55-.62-3-.91-4.49,0,0,0,0,0-.06v0c-1-5.34-1.67-10.27-.24-16.23,1.47-6.16,6.56-13.8,14.31-18.63h0a30.61,30.61,0,0,1,16.29-4.71c16.79,0,28.27,13.54,30.62,23.34C201,62.23,200.28,67.24,199.2,72.7Z"/><path class="cls-15" d="M171.05,86.51a2.93,2.93,0,0,1-3.09-.15c-.2-.14-.85,0-.58.21a4.11,4.11,0,0,0,4.21.12c.12-.07.1-.17,0-.22a.62.62,0,0,0-.5,0"/><path class="cls-15" d="M166.94,86.27a6.53,6.53,0,0,0-2.28-.56.51.51,0,0,0-.35.11c-.06.06-.08.14,0,.18a2.43,2.43,0,0,0,1.25.29.47.47,0,0,0,.38-.15c.07-.11-.06-.17-.16-.17a2.06,2.06,0,0,1-1-.24l-.34.3a5.84,5.84,0,0,1,2,.51.51.51,0,0,0,.42,0c.08,0,.17-.17.05-.23"/><path class="cls-15" d="M163.85,86.37a2.51,2.51,0,0,1-2.07-1.11,2.29,2.29,0,0,1,.93-2.94c.1-.07,0-.16-.06-.19a.54.54,0,0,0-.41.1,2.7,2.7,0,0,0-1.27,2.5,2.3,2.3,0,0,0,1.79,1.81,3.59,3.59,0,0,0,.86.14c.12,0,.33,0,.39-.15s0-.16-.16-.16"/><path class="cls-15" d="M172,86.27a6.58,6.58,0,0,1,2.28-.56.51.51,0,0,1,.35.11c.06.06.08.14,0,.18a2.43,2.43,0,0,1-1.25.29.47.47,0,0,1-.38-.15c-.07-.11.06-.17.16-.17a2.06,2.06,0,0,0,1-.24l.34.3a5.89,5.89,0,0,0-2,.51.51.51,0,0,1-.42,0c-.08,0-.17-.17-.05-.23"/><path class="cls-15" d="M175.06,86.37a2.51,2.51,0,0,0,2.07-1.11,2.29,2.29,0,0,0-.93-2.94c-.1-.07,0-.16.06-.19a.54.54,0,0,1,.41.1,2.7,2.7,0,0,1,1.27,2.5,2.3,2.3,0,0,1-1.79,1.81,3.59,3.59,0,0,1-.86.14c-.12,0-.33,0-.39-.15s0-.16.16-.16"/><path class="cls-16" d="M176.83,62.82c0,.6,0,1.21,0,1.82,0,.46,0,.92,0,1.38,1.68-.39,3.12-.65,4.21-.82a15.2,15.2,0,0,1,4.81-.34,13.75,13.75,0,0,1,3.06.87,8.6,8.6,0,0,1,1.61.78c1.13.75,1.6,1.59,1.78,1.52s-.11-.82-.14-.89a7.29,7.29,0,0,0-2.42-3.07,9.42,9.42,0,0,0-3.11-1.29,35.51,35.51,0,0,0-9.83,0"/><path class="cls-16" d="M182.66,70.13a2,2,0,0,1,2.22.4,1.93,1.93,0,0,1,.6.93,2,2,0,0,1-.49,1.86,1.89,1.89,0,0,1-2.18.39,2.11,2.11,0,0,1-1-2.45,1.9,1.9,0,0,1,.89-1.13"/><path class="cls-16" d="M176.48,73s4.15-3,6.27-3.21c3.09-.29,6.91,1.3,8,2.71,0,0-5-2.36-7.22-2.11S176.48,73,176.48,73Z"/><path class="cls-16" d="M161.89,62.88c0,.61,0,1.22,0,1.82s0,.93,0,1.39c-1.68-.4-3.12-.66-4.21-.83a15.44,15.44,0,0,0-4.8-.34,13.29,13.29,0,0,0-3.06.88,8.29,8.29,0,0,0-1.61.77c-1.14.75-1.6,1.6-1.79,1.52s.11-.81.14-.89A7.23,7.23,0,0,1,149,64.14a9.43,9.43,0,0,1,3.11-1.3,35.93,35.93,0,0,1,9.83,0"/><path class="cls-16" d="M156.07,70.19a2.08,2.08,0,0,0-2.23.4,1.92,1.92,0,0,0-.11,2.8,1.91,1.91,0,0,0,2.19.38,2.1,2.1,0,0,0,1-2.45,1.87,1.87,0,0,0-.88-1.13"/><path class="cls-16" d="M162.24,73s-4.15-3-6.27-3.21c-3.09-.28-6.9,1.3-8,2.72,0,0,5-2.37,7.22-2.11S162.24,73,162.24,73Z"/><path class="cls-17" d="M133.44,44.61A61.07,61.07,0,0,1,165,40.1c17.7,2.24,26.21,13.43,29.2,21.4a57.39,57.39,0,0,1,3.28,16s4.34,2.21,7.5-14c4.61-23.62-21.22-44.46-27-44.46S141.67,18.19,133.44,44.61Z"/><path class="cls-17" d="M136.61,37.71s-3-18.62,9.87-22.11,39.85-9.74,47.74,7.26Z"/><path class="cls-18" d="M136,76a11.09,11.09,0,0,1-2.82-4.84c-1.43-5-3.93-15.42-1.64-20,1-2,1.4-8,1.5-9.75.5-9.22-1.69-6.4,11.27-16.87s15.2-7.59,34.65-6.34,25,7.55,23.51,25.76c0,0-26.17-7.52-38.51-.85s-25.64,28.16-24.74,35.9C139.2,79.19,137.43,77.45,136,76Z"/><path class="cls-17" d="M130.84,60.37s19.79-25.31,42.93-25.54c0,0-29.62-3.85-42.75,17.53Z"/><path class="cls-17" d="M202.26,35.47s-22.87-8.32-31.64-9,27.71.67,31.21,4.65Z"/><ellipse class="cls-8" cx="169.46" cy="94.19" rx="7.69" ry="1.62"/><path class="cls-14" d="M197.79,84.56a2.16,2.16,0,0,1,2.06,1.76,2.12,2.12,0,0,1-.23,1.42,2.37,2.37,0,0,1-.22.33l-.07.08s-.06.06,0,0h0l-.12.08s-.11.07,0,0l-.14.08a1.38,1.38,0,0,1-.57.19,1.89,1.89,0,0,1-1.06-.25.76.76,0,0,0-.59,0c-.05,0-.42.22-.25.3a3,3,0,0,0,2.47.15,2.82,2.82,0,0,0,1.15-.66,2.38,2.38,0,0,0,0-3.24,2.67,2.67,0,0,0-2-.77.79.79,0,0,0-.61.23c-.11.16.11.2.23.2Z"/><path class="cls-19" d="M169.25,92.85c-4.87,0-12.77-.59-12.77-.59s1.47,9.88,12.77,9.88S182,92.26,182,92.26,174.13,92.85,169.25,92.85Z"/><path class="cls-20" d="M169.3,92.85c-2.32,0-11.66-.4-11.66-.4s3.09,5.24,11.47,5.24c9.09,0,11.76-5.17,11.76-5.17Z"/><path class="cls-21" d="M169.4,93.2c-2.32,0-9.37-.4-9.37-.4s2.54,2.6,9.49,2.6,9.16-2.52,9.16-2.52Z"/><path class="cls-19" d="M182.54,91.53a17.52,17.52,0,0,1-2.75.3c-1.92-.17-4.24-.69-5.63-.8-2.37-.19-3.88.77-4.91.77s-2.54-1-4.91-.77c-1.39.11-3.71.63-5.63.8a17.18,17.18,0,0,1-2.74-.3c-.34.09.32,2.66,13.28,2.66S182.88,91.62,182.54,91.53Z"/><path class="cls-11" d="M178.93,196.25a27.31,27.31,0,0,0-12.22-2.41c-6.75.32-8.84,1.19-8.84,1.19s9.23-.08,11.9-.44S178.93,196.25,178.93,196.25Z"/><path class="cls-9" d="M115.72,249.34s1.42-15.29,10.84-26.9h84s9.18,17.21,10.17,26.9Z"/><path class="cls-4" d="M48.69,110.92l-17-8.31a9,9,0,0,0-12,4.13l-.06.13h0l33.18,16.18h0l.06-.13a9,9,0,0,0-4.13-12Z"/><rect class="cls-22" x="19.48" y="100.33" width="23.86" height="49.57" transform="translate(-94.82 98.51) rotate(-64.01)"/><rect class="cls-7" x="25.76" y="107.18" width="11.7" height="35.08" transform="translate(-94.35 98.47) rotate(-64.01)"/><path class="cls-8" d="M47.22,111.3a2,2,0,0,0,.41.22,11.38,11.38,0,0,1,1,.66,9.15,9.15,0,0,1,3.8,6.92c0,.52,0,.94,0,1.23l0,.46,0-.12a1.61,1.61,0,0,0,.06-.33,8.71,8.71,0,0,0,0-1.25,8.87,8.87,0,0,0-1.09-4,8.58,8.58,0,0,0-3.84-3.65,1.3,1.3,0,0,0-.32-.14Z"/><path class="cls-11" d="M90,157s4.08,8.92,4.4,14.46A41,41,0,0,0,91,155.61Z"/><path class="cls-11" d="M126.93,199.6c-.91-1.92-3.19-3.43-4.52-5.08a19.13,19.13,0,0,1-4.31-10.77,40.59,40.59,0,0,1,1.3-11.36c.81-3.33,1.8-5.59,2.58-8.92.75-3.16,1.79-6.31,2-9.58a14.38,14.38,0,0,0-1.62-8.39c2.37,4,1,10.05-.23,14.18-1.33,4.33-3,9.89-3.75,12.9C117.1,178,115.8,187.82,120,193s5.13,5.29,5.71,6.61c.46,1.06.6,5.84.64,7.77C126.59,203.8,127.93,201.74,126.93,199.6Z"/><path class="cls-11" d="M126.37,207.41a15.1,15.1,0,0,0,0,2.59l0-1.77S126.38,207.91,126.37,207.41Z"/><path class="cls-11" d="M210.16,207.48c0,1.12-.08,1.9-.08,1.9A16.07,16.07,0,0,0,210.16,207.48Z"/><path class="cls-11" d="M218.26,172.79c-1.2-4.87-3.06-9.55-4.23-14.43-1-4.19-1.73-9.17.4-13.15a14.11,14.11,0,0,0-1.79,9.24c1.1,7.91,3.62,12.92,5.34,20.68a34,34,0,0,1,.16,11.91c-1,4.26-3.56,7.57-6.55,10.64a8.4,8.4,0,0,0-1.82,2.13c-1.07,2.27.36,3.8.39,7.67.13-2.51.4-6.71.8-7.63.58-1.32,1.5-1.4,5.71-6.61S219.59,178.19,218.26,172.79Z"/><path class="cls-12" d="M251.68,146.53s-3.68-8.3-3.31-12.49c.1-1.18-2.8-11.73-2.8-11.73s2.36-1.74,4.28,2.24,2.6,5.66,2.6,5.66l1,.84,4.56-5.87s4.08-7.52,5.23-9.24,3.43-5.52,6-4.8c0,0,1.49-2.93,3-2.38a2.39,2.39,0,0,1,1.65,1.44l-.35,1.56s.74-.59,1.81.59-4.28,14.24-4.28,14.24l.19.88s5-8.13,5.86-8,1.62.22,1.34,1.74-7.95,19.84-13.91,27.31a11.6,11.6,0,0,0-2.06,3.08l-11.57-2.93Z"/><path class="cls-23" d="M272.84,112.09a45.37,45.37,0,0,1-2.8,6.72,45.9,45.9,0,0,1-3.34,6.46,44.82,44.82,0,0,1,2.8-6.71A46,46,0,0,1,272.84,112.09Z"/><path class="cls-23" d="M269.53,111.25c.14.08-1.43,2.84-3.14,6.35s-2.95,6.44-3.1,6.38a28.34,28.34,0,0,1,2.56-6.64A27.76,27.76,0,0,1,269.53,111.25Z"/><path class="cls-23" d="M255.62,131.19s6.33,3.3,7.34,10.56C263,141.75,262.51,131.16,255.62,131.19Z"/></g></svg>