<svg xmlns="http://www.w3.org/2000/svg" viewBox="0 0 285.1 249.23"><defs><style>.cls-1{fill:#c95744;}.cls-2{fill:#642b11;}.cls-3{fill:#956243;}.cls-4{fill:#794c36;}.cls-5{fill:#ce8d2a;}.cls-6{fill:#010101;}.cls-7{fill:#13110f;}.cls-8{fill:#b15e27;}.cls-9{fill:#df8c26;}.cls-10{fill:#fff;}.cls-11{fill:#653c29;}.cls-12{fill:#31160e;}.cls-13{fill:#f1eef7;}.cls-14{fill:#457336;}.cls-15{fill:#609d42;}.cls-16,.cls-18{fill:#6e4731;}.cls-17{fill:none;stroke:#4d2b18;stroke-width:0.23px;stroke-dasharray:0.93 0.93;}.cls-17,.cls-18{stroke-miterlimit:10;}.cls-18{stroke:#432f25;stroke-width:0.47px;}.cls-19{fill:#daa327;}</style></defs><g id="Layer_1" data-name="Layer 1"><path class="cls-1" d="M196.44,218.79l-18-7.69L180.92,164l-9.31-44.78s17.66,4.16,20.54,6.54"/><path class="cls-1" d="M190,243c-.48-2.74-1.5-4.65-2.42-7.27a31.07,31.07,0,0,1-1.29-6.83c-1.3-11.87-1.3-21.58-.52-27.34.54-4.06,6.32-6.51,8.67-14.29,2-6.82-7.89-63.92-7.89-63.92L167,118,161.87,117l-.39-.23a3.32,3.32,0,0,0,0,.93l.06.5a17.41,17.41,0,0,1-13.65,8.8,41.09,41.09,0,0,1-6,.06c-6.52-.4-11.42-3.54-15.2-8.86l-.12-2.14-12.21,3.51-22.78,7.8-.48,46.46c.52,9.57-.29,11.26,3.69,20l5.78,7.2.23,27.91s-3.34,8-7.41,20.5H191C190.62,247.36,190.32,245,190,243Z"/><path class="cls-1" d="M92.61,226l9.23-46.22L92.9,127.21s-9.8.85-15,16.75c-4.53,17-13,74.46-12.43,85.44.19,3.28,1.29,11.12,2.73,20.5H93.62Z"/><path class="cls-1" d="M189.51,209.86s8.65,11.13,10.89,15.72,6.5,7.78,14,8.71,12.4-6.53,14.17-14.95S224.56,203,224.56,203s-14.8-48.08-17.63-57.07c-2.8-8.66-7.38-15.34-15-20.3"/><path class="cls-2" d="M185.17,207.77c-.06,1.13-.09,1.92-.09,1.92A19.12,19.12,0,0,0,185.17,207.77Z"/><path class="cls-2" d="M193.35,172.71c-1.21-4.92-3.1-9.65-4.28-14.59-1-4.23-1.75-9.27.4-13.29a14.33,14.33,0,0,0-1.8,9.34c1.11,8,3.65,13.06,5.39,20.9a34.3,34.3,0,0,1,.16,12c-1,4.31-3.59,7.66-6.61,10.75a8.87,8.87,0,0,0-1.85,2.16c-1.07,2.29.37,3.84.41,7.75.13-2.54.4-6.78.8-7.71.59-1.34,1.51-1.42,5.77-6.69S194.7,178.17,193.35,172.71Z"/><path class="cls-3" d="M160.77,114.57c-.34-1.09,0-12.67,0-12.67l-17.12,2.64-17.13-2.64s.34,12.79,0,13.87-10.33,3.46-10.33,3.46,5.21,11.27,27.46,11.27,28-11.27,28-11.27S161.11,115.66,160.77,114.57Z"/><path class="cls-4" d="M126.52,102.58c.27.2,2.25,2.82,2.54,3,7,5,8.08,6.34,14.15,6.59,6.08-.25,8.69-1.08,15.22-7.17,2.2-2,1.71-2.74,2.2-3.12C149.71,101.87,137.45,102.5,126.52,102.58Z"/><path class="cls-3" d="M115.47,68.34s-3.29-5-5.15-4.84c-1.13.12,1.49,2.67,1.81,5.56.43,3.86-2.42,4.36-1.53,6.54s2.07,9.82,5.07,9.49c1.19-.13,2.41-2.76,2.41-2.76S116.44,71.78,115.47,68.34Z"/><path class="cls-5" d="M114.44,82.5A2.88,2.88,0,0,0,111.8,85a2.52,2.52,0,0,0,.47,1.74,2.2,2.2,0,0,0,1.09.81,3.05,3.05,0,0,0,2.81-.35.31.31,0,0,0,0-.5.56.56,0,0,0-.65,0,1.79,1.79,0,0,1-1.63.17,1.88,1.88,0,0,1-.3-.12l-.06,0-.06,0a1.44,1.44,0,0,1-.33-.32,2,2,0,0,1,0-2.49l.13-.15.1-.09.16-.12.07-.06,0,0,.21-.1.08,0c-.06,0,0,0,0,0a1.69,1.69,0,0,1,.39-.08c.21,0,.48-.15.5-.39s-.24-.34-.43-.32Z"/><path class="cls-3" d="M170.17,68.18s2.76-5.34,4.63-5.33c1.14,0-1.21,2.81-1.24,5.71,0,3.89,2.85,4.1,2.18,6.36s-1.07,10-4.09,10c-1.19,0-2.67-2.51-2.67-2.51S169.54,71.71,170.17,68.18Z"/><path class="cls-3" d="M174.22,71.34a0,0,0,0,0,0,0c-.66,3.38-1.49,6.93-2.05,11-1.5,10.76-4.7,15.71-12,20.46-7.65,5-9.95,6.92-16.57,7.17-6.61-.25-8.91-2.19-16.57-7.17-7.3-4.75-10.51-9.7-12-20.46-.33-2.4-.75-4.61-1.18-6.72-.31-1.56-.63-3.07-.92-4.54,0,0,0,0,0-.06a0,0,0,0,1,0,0c-1.05-5.4-1.69-10.38-.25-16.4,1.49-6.23,6.64-14,14.47-18.83h0A30.94,30.94,0,0,1,143.57,31c17,0,28.59,13.69,31,23.59C176,60.76,175.31,65.83,174.22,71.34Z"/><path class="cls-6" d="M145.76,85.3a3,3,0,0,1-3.13-.15c-.19-.14-.86,0-.58.21a4.13,4.13,0,0,0,4.26.13c.12-.07.1-.18,0-.23a.69.69,0,0,0-.51,0"/><path class="cls-6" d="M141.6,85.07a6.66,6.66,0,0,0-2.3-.58.57.57,0,0,0-.35.12.1.1,0,0,0,0,.18,2.46,2.46,0,0,0,1.26.29.46.46,0,0,0,.39-.15c.07-.11-.06-.18-.17-.17a2.06,2.06,0,0,1-1-.24l-.35.3a5.74,5.74,0,0,1,2,.52.5.5,0,0,0,.43,0c.08-.05.17-.16,0-.22"/><path class="cls-6" d="M138.48,85.16A2.54,2.54,0,0,1,136.39,84a2.32,2.32,0,0,1,.94-3c.11-.07,0-.17-.06-.19a.53.53,0,0,0-.42.1,2.72,2.72,0,0,0-1.27,2.52,2.3,2.3,0,0,0,1.8,1.83,3.67,3.67,0,0,0,.87.14c.12,0,.34,0,.39-.14s0-.16-.16-.17"/><path class="cls-6" d="M146.69,85.07a6.72,6.72,0,0,1,2.3-.58.58.58,0,0,1,.36.12c.06,0,.08.13,0,.18a2.49,2.49,0,0,1-1.26.29.45.45,0,0,1-.39-.15c-.07-.11.06-.18.16-.17a2.08,2.08,0,0,0,1-.24l.35.3a5.85,5.85,0,0,0-2.06.52.49.49,0,0,1-.42,0c-.08-.05-.17-.16-.05-.22"/><path class="cls-6" d="M149.82,85.16A2.54,2.54,0,0,0,151.91,84a2.32,2.32,0,0,0-.94-3c-.11-.07-.05-.17.06-.19a.5.5,0,0,1,.41.1,2.71,2.71,0,0,1,1.28,2.52,2.3,2.3,0,0,1-1.81,1.83,3.52,3.52,0,0,1-.87.14c-.11,0-.33,0-.39-.14s0-.16.17-.17"/><path class="cls-7" d="M151.6,61.36c0,.61,0,1.22,0,1.84,0,.47,0,.93,0,1.4,1.7-.4,3.15-.67,4.25-.84a15.82,15.82,0,0,1,4.86-.34,13.67,13.67,0,0,1,3.09.88,8.51,8.51,0,0,1,1.63.79c1.14.75,1.62,1.61,1.8,1.53s-.11-.82-.14-.9a7.23,7.23,0,0,0-2.45-3.09,9.3,9.3,0,0,0-3.14-1.31,35.88,35.88,0,0,0-9.94,0"/><path class="cls-7" d="M157.49,68.74a2.09,2.09,0,0,1,2.25.41,2,2,0,0,1,.6.94,2.07,2.07,0,0,1-.49,1.89,1.92,1.92,0,0,1-2.21.38,2.12,2.12,0,0,1-1-2.47,1.88,1.88,0,0,1,.89-1.15"/><path class="cls-7" d="M151.25,71.62s4.2-3.05,6.34-3.25c3.13-.29,7,1.31,8.09,2.75,0,0-5.1-2.4-7.3-2.13S151.25,71.62,151.25,71.62Z"/><path class="cls-7" d="M136.5,61.42c0,.62,0,1.23,0,1.84s0,.94,0,1.4c-1.7-.4-3.15-.66-4.25-.83a15.58,15.58,0,0,0-4.86-.35,14.09,14.09,0,0,0-3.09.89,8.5,8.5,0,0,0-1.63.78c-1.15.76-1.62,1.61-1.81,1.54s.12-.82.15-.9a7.29,7.29,0,0,1,2.45-3.1,9.54,9.54,0,0,1,3.14-1.31,36.22,36.22,0,0,1,9.93,0"/><path class="cls-7" d="M130.61,68.81a2.06,2.06,0,0,0-2.24.41,2,2,0,0,0-.61.94,2.08,2.08,0,0,0,.49,1.88,1.93,1.93,0,0,0,2.21.39,2.13,2.13,0,0,0,1-2.48,1.9,1.9,0,0,0-.9-1.14"/><path class="cls-7" d="M136.85,71.68s-4.19-3.05-6.33-3.24c-3.13-.29-7,1.31-8.09,2.74,0,0,5.1-2.39,7.3-2.13S136.85,71.68,136.85,71.68Z"/><path class="cls-8" d="M107.74,43a61.82,61.82,0,0,1,31.88-4.56C157.51,40.66,166.11,52,169.13,60a57.51,57.51,0,0,1,3.31,16.18s4.4,2.23,7.59-14.15c4.66-23.88-21.46-44.94-27.25-44.94S116.06,16.24,107.74,43Z"/><path class="cls-8" d="M111,36s-3-18.82,10-22.35S161.2,3.78,169.19,21Z"/><path class="cls-9" d="M110.28,74.64a11.26,11.26,0,0,1-2.85-4.89c-1.45-5.08-4-15.58-1.65-20.24,1-2,1.41-8.09,1.51-9.86.5-9.33-1.71-6.48,11.39-17.06s15.37-7.67,35-6.41S179,23.81,177.47,42.23c0,0-26.46-7.61-38.93-.87s-25.91,28.47-25,36.3C113.57,77.9,111.78,76.15,110.28,74.64Z"/><path class="cls-8" d="M105.12,58.88s20-25.58,43.39-25.81c0,0-29.94-3.9-43.21,17.71Z"/><path class="cls-8" d="M177.3,33.71s-23.11-8.41-32-9.13,28,.68,31.54,4.7Z"/><ellipse class="cls-10" cx="144.15" cy="93.06" rx="7.78" ry="1.64"/><path class="cls-5" d="M172.68,83.29a2.25,2.25,0,0,1,2.18,1.78,2.14,2.14,0,0,1-.2,1.47,1.91,1.91,0,0,1-.39.54l-.1.07,0,0-.13.08-.23.11-.09,0h0l-.16,0a2,2,0,0,1-1.14-.28.84.84,0,0,0-.58.07s-.41.17-.28.24a3.08,3.08,0,0,0,2.47.12,3.12,3.12,0,0,0,1.17-.64,2.33,2.33,0,0,0,0-3.21,2.52,2.52,0,0,0-1.92-.79,1.34,1.34,0,0,0-.65.17c-.14.09-.13.18.05.18Z"/><path class="cls-11" d="M144.33,91.45c-4.47,0-11.72-.51-11.72-.51s1.35,8.61,11.72,8.61S156,90.94,156,90.94,148.8,91.45,144.33,91.45Z"/><path class="cls-12" d="M144.37,91.45c-2.12,0-10.69-.35-10.69-.35s2.83,4.57,10.52,4.57c8.33,0,10.78-4.5,10.78-4.5Z"/><path class="cls-13" d="M144.46,91.76c-2.12,0-8.59-.35-8.59-.35s2.33,2.27,8.7,2.27,8.4-2.2,8.4-2.2Z"/><path class="cls-11" d="M156.51,90.31a17.82,17.82,0,0,1-2.52.25c-1.76-.14-3.88-.59-5.16-.69-2.17-.16-3.56.67-4.5.67s-2.33-.83-4.51-.67c-1.27.1-3.4.55-5.16.69a18.2,18.2,0,0,1-2.52-.25c-.31.07.3,2.31,12.19,2.31S156.83,90.38,156.51,90.31Z"/><path class="cls-2" d="M153.73,196.23a27.59,27.59,0,0,0-12.35-2.43c-6.83.32-8.94,1.2-8.94,1.2s9.32-.09,12-.44S153.73,196.23,153.73,196.23Z"/><path class="cls-1" d="M89.83,249.89s1.44-15.45,11-27.18h84.89S195,240.1,196,249.89Z"/><path class="cls-2" d="M101,199.81c-.92-1.95-3.23-3.47-4.56-5.13a19.42,19.42,0,0,1-4.37-10.9,41.12,41.12,0,0,1,1.32-11.48c.82-3.36,1.82-5.65,2.61-9,.75-3.2,1.8-6.39,2.07-9.68a14.47,14.47,0,0,0-1.64-8.49c2.4,4.08,1.06,10.16-.23,14.33-1.35,4.38-3,10-3.79,13.05-1.35,5.46-2.65,15.4,1.61,20.66s5.18,5.35,5.77,6.69c.46,1.06.6,5.9.64,7.85C100.69,204.05,102,202,101,199.81Z"/><path class="cls-2" d="M100.46,207.7a15.52,15.52,0,0,0,0,2.62l0-1.79S100.47,208.21,100.46,207.7Z"/><rect class="cls-14" x="190.81" y="182.04" width="36.83" height="23.47" rx="1.33" transform="translate(343.92 445.12) rotate(-160.99)"/><rect class="cls-15" x="189.99" y="184.32" width="36.83" height="23.47" rx="1.33" transform="translate(376.92 427.29) rotate(-169.33)"/><rect class="cls-16" x="187.07" y="187.19" width="42.79" height="27.27" rx="2.58" transform="translate(399.54 418.26) rotate(-175.24)"/><path class="cls-17" d="M189.12,210.82l35.9,3a1.16,1.16,0,0,0,1.26-1.07L228,191.88a1.17,1.17,0,0,0-1.07-1.26l-35.9-3a1.17,1.17,0,0,0-1.26,1.07l-1.74,20.86a1.17,1.17,0,0,0,1.07,1.26Z"/><rect class="cls-18" x="184.05" y="194.62" width="14.5" height="8.15" rx="2.02" transform="translate(365.45 412.59) rotate(-175.24)"/><circle class="cls-19" cx="194.14" cy="198.93" r="2.25"/><path class="cls-3" d="M228.2,194.35s2-2.88,4.36-2.15,4.34,1.6,3.75,3.63a4.58,4.58,0,0,1-2.56,2.77L232,200s1.66,3.18,1.39,5.48a4.19,4.19,0,0,1-2.42,3.17s1.36,3.18-.42,5.51a18,18,0,0,1-2.25,2.69,4.23,4.23,0,0,1-3.51,2.67c-2.79.37-5-2-5-2l-7-9a4.68,4.68,0,0,1,.35-1.92,2.53,2.53,0,0,1-.74-2.85,2.19,2.19,0,0,1,2.37-1.41,3.44,3.44,0,0,1,1-2.91c1.28-.94,13.52.11,13.52.11l1.1-1.12s-2.81-.74-2.94-2.08A2.24,2.24,0,0,1,228.2,194.35Z"/><path class="cls-4" d="M227.22,206.87a23.72,23.72,0,0,1-12.51-4.3c.09-.14,2.67,1.35,6.12,2.52S227.24,206.7,227.22,206.87Z"/><path class="cls-4" d="M225.36,213.06a35,35,0,0,1-6.41-2.79,34.19,34.19,0,0,1-6-3.6,65.84,65.84,0,0,1,6.23,3.12A64.58,64.58,0,0,1,225.36,213.06Z"/><path class="cls-4" d="M233.58,197s-.06.3-.33.64a3.11,3.11,0,0,1-1.47.89,3.17,3.17,0,0,1-1.7,0c-.43-.08-.64-.31-.62-.37a6.17,6.17,0,0,0,2.16-.18C232.74,197.64,233.45,196.91,233.58,197Z"/></g></svg>