<svg xmlns="http://www.w3.org/2000/svg" viewBox="0 0 285.1 249.23"><defs><style>.cls-1{fill:#92c6cc;}.cls-2{fill:#cdb731;}.cls-3{fill:#946344;}.cls-4{fill:#895623;stroke:#895623;stroke-width:0.44px;}.cls-12,.cls-20,.cls-22,.cls-26,.cls-27,.cls-4{stroke-miterlimit:10;}.cls-5{fill:#5f605f;}.cls-6{fill:#853424;}.cls-7{fill:#7e6d2c;}.cls-8{fill:#653d2a;}.cls-9{fill:#010101;}.cls-10{fill:#151312;}.cls-11{fill:#868686;}.cls-12,.cls-27{fill:none;}.cls-12{stroke:#010101;stroke-width:0.51px;}.cls-13{fill:#273339;}.cls-14,.cls-29{fill:#fff;}.cls-14{opacity:0.14;}.cls-15{fill:#622716;}.cls-16{fill:#643c2a;}.cls-17{fill:#311811;}.cls-18{fill:#f1edf6;}.cls-19{fill:#755246;}.cls-20,.cls-22,.cls-23{fill:#161412;}.cls-20,.cls-22{stroke:#171413;}.cls-20{stroke-width:0.17px;}.cls-21,.cls-26{fill:#663d2e;}.cls-22{stroke-width:0.2px;}.cls-24{fill:#171413;}.cls-25{fill:#231f1f;}.cls-26,.cls-27{stroke:#653d2e;}.cls-26{stroke-width:0.43px;}.cls-27{stroke-width:0.48px;}.cls-28{fill:#251810;}.cls-30{fill:#1f685a;}.cls-31{fill:#653d2e;}</style></defs><g id="Layer_2" data-name="Layer 2"><polygon class="cls-1" points="127.22 249 44.51 249 47.66 195.74 120.85 236.65 127.22 249"/><path class="cls-2" d="M133.58,249l117.48,0s8.08-29-12.85-53.14h0l-89,21.52L133.58,249"/></g><g id="Layer_1" data-name="Layer 1"><path class="cls-3" d="M184.28,70.2s2.53,14.34,7.7,23.91c.72,1.33,10.37,5.53,10.37,5.53l-12.59,6.12c-7.18,2.68-23.76,4.5-31.25,2.87l-6.46-3s7.32-2.64,7.46-4.42-2.91-14.74-2.91-14.74"/><g id="freepik--character-1--inject-1332"><path class="cls-3" d="M157.92,102.9l36.43-5.11,5.61,13s-8.39,9.93-9.31,10.46-22.94,8.12-22.94,8.12-26.62-6.59-26.26-6.56S157.92,102.9,157.92,102.9Z"/></g><path class="cls-2" d="M238.21,195.86c-4-7.88-7.2-13.6-7.2-13.6L202.85,99l-5.63-2.46s-10.44,16.78-27,19c0,0-3.18.25-3.19.24-13.21-2.25-9.24-12.09-8.64-13.44l-15.24,8.54-15.59,40.27c-1.86,3.64-.34,25.47,4.72,33.78l7.32,8.06-3.47,19.52s-6,7.67-4.06,14.25c4.36-.56,2.33,12.09,1.53,22.16"/><path class="cls-2" d="M150.79,108.16s-18.32,1.25-23.65,12.19S108.36,168,108.36,168l-27.22-.8-32.46.23s28,22.63,40.28,28.95c13.67,8.17,34.4,13.51,41.71,11.07,6.07-2,16.49-7.37,20.19-21L153.81,176Z"/><path class="cls-4" d="M107.79,161.89a112.26,112.26,0,0,1,8.38,9.88S111.45,162.87,107.79,161.89Z"/><path class="cls-5" d="M189.58,27.23c-2.32-2.53-5.62-4-8.75-2.7-.67-6.35-7.28-9.3-13.64-8.67-3.25.47-6.41,2.37-9.61,1.68-2-.42-3.65-1.74-5.44-2.78-7.51-4.21-17.53,3.07-22.54,10.07s-2.69,13.79,1.31,21.41c1.85,3.54,1.89,5.59,2.82,9.51.88,3.7,4,10.38,4.55,14.1s-4.8,8.35-1,8.17L177.57,68c6.23.43,9.88-1.91,12.31-7.67,1.56-3.89.86-4,.6-8.16-.22-5.48,4.78-10.27,3.76-15.66C193.7,33.06,191.75,29.9,189.58,27.23Z"/><path class="cls-6" d="M194.63,26.35a64.45,64.45,0,0,0-33-.85c-18,4.36-25.47,16.68-27.63,25.11S136.29,67,136.29,67s-4.41,1.82-9.54-14.21c-7.49-23.37,15.13-40.93,21-41.61S183.09.57,194.63,26.35Z"/><line class="cls-4" x1="199.76" y1="168.37" x2="199.21" y2="168.12"/><path class="cls-2" d="M157.83,102.46s-23.33,8.12-25.79,16c-3.74,12-5.38,37.15-5.38,37.15l11.18-.73Z"/><path class="cls-7" d="M128.62,178.37a41.47,41.47,0,0,1,0-8.77c.19-3.21.54-6.4,1-9.57a196.76,196.76,0,0,1,4.07-19.53c.78-3.1,1.59-6.19,2.41-9.28-1.15,5.77-2,11.6-3.3,17.34a129.87,129.87,0,0,0-3.07,17.62c-.61,7.09-1.35,10.32,1.15,15.7s8.1,11.23,8.1,11.23l-.48.57S129.47,184,128.62,178.37Z"/><path class="cls-8" d="M159,97.58s3-.91,5-1.78,5.63-1.23,14.17-10.93c0,0-1.45,10.7-13.5,14.57a15.09,15.09,0,0,1-5.27.87Z"/><path class="cls-3" d="M139.52,36.29a1.17,1.17,0,0,1-.09.24l.12-.12Zm-5.19,2.5,0,.1.2-.27C134.53,38.51,134.33,38.79,134.33,38.79Zm49.73,33.8.24-2c3.19,3,6.89-.55,6.21-5.49.88-2.7,1.14-11.2-1.35-13.35l-.31-.32c-1.63-.83-4.24-.84-4.95,1.24-.19.89.29,1.86.1,2.74s-1.46-1.19-1.9-.25c0,0-1.37-.33-1.74-2.52s1.22-19.14-3.33-21.35c0,0-6.12,3.32-8.38,1.44L168,32.6c-.37.08-.6.25-1,.34,0-.12.07-.26,0-.49a4,4,0,0,1-1.59.48c.1-.14.32-.31.29-.42a7.49,7.49,0,0,1-1.49.34c.1-.15.3-.43.27-.54-.57.36-1,.22-1.49.33a.81.81,0,0,0,.14-.51,3.36,3.36,0,0,1-1.46.45c.1-.14.17-.4.27-.54-.57.37-1,.23-1.5.34-.12,0,.2-.28.18-.4a5,5,0,0,1-1.22.4c0-.12.19-.29.17-.4a4,4,0,0,1-1.62.37l.27-.55a1.81,1.81,0,0,1-1.44.57c.1-.14.3-.43.27-.54a2.52,2.52,0,0,1-1.94.68c.13,0,.3-.43.27-.54a2.52,2.52,0,0,1-1.66.74c.1-.15.17-.4.37-.69a2.63,2.63,0,0,1-2.29.88c.12,0,.17-.4.15-.51-.4.57.41-.22-.24-.19,0,0-1.33.78-1.36.67-.42.45.88-2.24.26-2.09.07-.26-3.53,1-3.33.73-.52.6-.44.34-1.22.39,0,0-2.27,2-2.17,1.81-.49.71-.88.3-1.65.35.09-.14.55.38.65.24-.39.57-.36,0-1,.1,0-.11-2.2-.28-2.23-.39-.54.48-.33.48-1.07.65,0-.11-.19,1.37-.09,1.22-.39.57-.45.19-1.1.22l-.52.56c-.49.72.3.27-.47.33,0-.08,2.89-.28,3-.46A4.59,4.59,0,0,1,138,37.6c0-.11,0-.37,0-.48a2.54,2.54,0,0,1-1.84,1.13c.13,0,.2-.28.18-.4a2,2,0,0,1-2,1.06v0a4,4,0,0,1-1.56,1.21.49.49,0,0,1,.15-.51l-.5.11c-.42,1-2.12.8-2.11,2,0,0-1.61,8.72-.52,12.92s3.48,11.22,4,13a37,37,0,0,1,1.07,5.77,18,18,0,0,0,2.36,8.24A24.18,24.18,0,0,0,143,89.36c2.85,2.73,6.52,4.83,10,6.92A12.15,12.15,0,0,0,161.11,98c7.79-1.39,14.25-8.35,18-14.42"/><path class="cls-9" d="M151.44,76.9a3.64,3.64,0,0,0,3.19-.94c.18-.17.89-.21.64,0a5.15,5.15,0,0,1-4.36,1.2c-.13,0-.13-.13,0-.21a.78.78,0,0,1,.53-.09"/><path class="cls-9" d="M155.61,75.64a6,6,0,0,1,1.88-1,.47.47,0,0,1,.33,0c.07,0,.1.11,0,.17a2.25,2.25,0,0,1-1,.5c-.11,0-.28,0-.36-.06s0-.16.11-.18a1.85,1.85,0,0,0,.83-.41l.36.19a5.25,5.25,0,0,0-1.68.86.44.44,0,0,1-.37,0c-.09,0-.19-.11-.09-.19"/><path class="cls-9" d="M158.37,75.11a2.88,2.88,0,0,0,1.93-1.46,2.32,2.32,0,0,0-1.63-2.72c-.13,0-.09-.14,0-.19a.69.69,0,0,1,.45,0A2.84,2.84,0,0,1,161,73a2.27,2.27,0,0,1-1.5,2,4.31,4.31,0,0,1-.87.32c-.12,0-.35.05-.43,0s0-.15.14-.18"/><path class="cls-9" d="M149.87,76.82a.1.1,0,0,0-.14-.12,1,1,0,0,1-.67-.07l-.15.31a2.92,2.92,0,0,1,1.36.16.23.23,0,0,0,.25-.09c0-.06.07-.17,0-.21"/><path class="cls-9" d="M150.5,76.8a3.18,3.18,0,0,0-1.52-.17.28.28,0,0,0-.2.14.12.12,0,0,0,.05.17"/><path class="cls-9" d="M148.22,77.31a1.69,1.69,0,0,1-1.62-.65,2.41,2.41,0,0,1,0-2.72.1.1,0,0,0-.08-.16.32.32,0,0,0-.26.15,2.71,2.71,0,0,0-.36,2.38,1.92,1.92,0,0,0,1.57,1.32,2.47,2.47,0,0,0,.61,0c.08,0,.22-.09.24-.19s-.07-.13-.14-.12"/><path class="cls-10" d="M139.36,62.92a2,2,0,0,0-2,.8,1.94,1.94,0,0,0-.25.93,1.84,1.84,0,0,0,.79,1.54,1.71,1.71,0,0,0,2-.1,1.89,1.89,0,0,0,.42-2.35,1.7,1.7,0,0,0-1-.82"/><path class="cls-10" d="M146,63.83s-4-1.89-5.71-1.67c-2.57.32-5.34,2.41-6,3.86,0,0,3.62-3,5.43-3.18S146,63.83,146,63.83Z"/><path class="cls-10" d="M160.34,58.43a2.44,2.44,0,0,1,2.29-.37,1.85,1.85,0,0,1,.71.7,1.83,1.83,0,0,1-.06,1.73,1.69,1.69,0,0,1-1.84.77,1.88,1.88,0,0,1-1.39-1.94c0-.14-.19-.37.3-.79"/><path class="cls-10" d="M156.4,61.27s3.25-3.27,5.1-3.75c2.71-.7,6.32.16,7.5,1.26,0,0-4.82-1.38-6.71-.83S156.4,61.27,156.4,61.27Z"/><path class="cls-11" d="M142.49,53.65l.68,1.41.51,1.08c-1.34.28-2.47.58-3.3.82a11.21,11.21,0,0,0-3.55,1.42A9.61,9.61,0,0,0,135,60.12a6,6,0,0,0-.86,1.16c-.52,1-.53,1.79-.69,1.79s-.23-.66-.24-.73a6,6,0,0,1,.57-3.22A7.13,7.13,0,0,1,135.49,57a25.63,25.63,0,0,1,7-3.39"/><path class="cls-11" d="M153,51.87c.1.52.2,1,.29,1.54s.15.79.23,1.17c1.36-.59,2.54-1,3.44-1.34a13.06,13.06,0,0,1,4-1,11.61,11.61,0,0,1,2.73.27,7.58,7.58,0,0,1,1.48.41c1.08.46,1.6,1.11,1.75,1s-.22-.67-.26-.73A6.24,6.24,0,0,0,164.2,51a8.11,8.11,0,0,0-2.83-.62A30.43,30.43,0,0,0,153,51.87"/><path class="cls-12" d="M184.59,61.81c1.73-7,3.7-7.37,3.7-7.37s1.58,1.3,1.41,4.45"/><path class="cls-12" d="M185.71,62.24c1.74-.46.92,3.08,1.53,3.78s.93-1.48.75-4c0,0-.54-3.37-2.32-3.72"/><path class="cls-8" d="M156.79,45.24a21.51,21.51,0,0,1-8.4,3.44c-4.41.59-9.93.75-9.93.75"/><path class="cls-11" d="M132.16,36.16c0-.09,0,0,0,0,.87-1.7,1.32-3.44,2.27-5.1s1.84-3.11,2.86-4.68c.06-.09,1.49-.34,1.55-.44l.07-.09.09-.15.23-.34A33.44,33.44,0,0,1,161.62,21a27.71,27.71,0,0,1,23.15,31.61c-.2,1.29.75,2.69-.36,3.56s-1.31.55-2.57-.08a9.14,9.14,0,0,1-3.05-2.88c-4-5.52-6.16-14.93-5.7-21.74-.62,1.36-6.39.87-7.51,1.87a10.73,10.73,0,0,1-15.15-.91,15.94,15.94,0,0,1-1.38,2.32c-4.8,6.7-11.76,10.62-18.52,7.36C130.28,42,131.62,37.24,132.16,36.16Z"/><path class="cls-13" d="M184.89,54.88l-.36-1.43-16.76.75h0c-5.65-.91-12.61,2.16-16.23,5.86l-3.68,1,0-.07c-5.08-2.29-12.41-1.19-17.36,2.62l.29.56h0a1.76,1.76,0,0,0,.12.23l.25.48c1.57,3.11,3.32,6.37,4.43,7.09.75.48,2.82.33,4.51.1.64-.09,1.21-.19,1.63-.26s4.92-.9,5.49-1.75.67-6.31.66-8l3.78-1c.77,1.16,3,6.41,5.1,7.11s11.57-1.87,12.15-3.41A34.24,34.24,0,0,0,170,57.88l.28-2.48ZM146.68,69.67c-.65.84-9.42,2.55-10.72,1.72-1.1-.7-3.33-5.13-4.17-6.8l0-.07c4.48-3.12,11.08-4.12,15.48-2.21,0,3-.21,6.81-.57,7.34Zm21-5.08c-.36,1-8.54,3.58-10.72,2.86-1.51-.49-3.2-4.31-4.35-6.46,3.56-3.54,11.38-6.44,16.47-5.31a50.69,50.69,0,0,1-1.4,8.91Z"/><path class="cls-14" d="M146.57,69.6c.36-.54.53-4.38.57-7.34-4.4-1.92-11-.91-15.48,2.21l0,.07c.84,1.66,3.08,6.09,4.17,6.79,1.3.83,10.07-.87,10.72-1.72Z"/><path class="cls-14" d="M167.71,64.59a50.69,50.69,0,0,0,1.4-8.91C164,54.55,156.2,57.45,152.64,61c1.15,2.15,2.84,6,4.35,6.46,2.18.72,10.36-1.88,10.72-2.86Z"/><path class="cls-15" d="M192.32,54.32S204.69,42.44,198,32.45c-1.29-1.92-1.3-1.22-1.61-3-1.6-9.28,2-7.51-13.2-16.51S166,4.41,145.4,8.85c-10.63,2.29-15.89,7.6-17.88,14.81a33.26,33.26,0,0,0-.9,10.79s21.09-9.31,35.14-4.07,31,26.28,29.19,34C190.45,66.58,192.32,54.32,192.32,54.32Z"/><path class="cls-6" d="M199.39,43S177,18.39,152,21c0,0,30.22-7.54,46.84,12.49l.56,2.54a14.26,14.26,0,0,1,.21,4.83Z"/><path class="cls-2" d="M197.22,96.58s27.62,2.3,36.79,14.16,20.47,66.12,19.72,74.09c-2.81,29.72-52.65,56.91-52.65,56.91l-15-19.89,37.08-47.51-6.26-32Z"/><path class="cls-7" d="M206.3,126.86c0,5.53,12.65,51.09,14.36,56.9l-1.12-.25c-1.4-5-11.73-44.13-13.89-53.75-2-9.11,4.44-17.53,4.44-17.53C205.32,122.28,206.3,126.86,206.3,126.86Z"/><polygon class="cls-7" points="219.51 182.79 220.59 183.21 186.41 220.61 185.94 220.13 219.51 182.79"/><polygon class="cls-3" points="186.2 220.61 176.09 227.78 179.35 240.91 197.47 235.2 186.2 220.61"/><path class="cls-7" d="M219.55,183.76a50.14,50.14,0,0,1,8.51,5.88s-5-6.15-8.28-6.81Z"/><path class="cls-8" d="M149.15,51.1s-1.9,4.07,1.95,5.47l-.61-1.3a14.59,14.59,0,0,1-1-2.64Z"/><path class="cls-8" d="M145.25,52.54s3.45,2.87.56,5.78l.08-.91a11.41,11.41,0,0,0-.37-3.9Z"/><path class="cls-16" d="M155.64,80.75c4-.92,10.49-2.9,10.49-2.9a11.16,11.16,0,0,1-21.2,4.8S151.6,81.66,155.64,80.75Z"/><path class="cls-17" d="M155.6,80.76c1.92-.44,9.6-2.54,9.6-2.54s-1.55,5.06-8.51,6.63c-7.54,1.71-10.75-2.2-10.75-2.2Z"/><path class="cls-18" d="M155.59,81.08c1.92-.44,7.69-2.1,7.69-2.1s-1.6,2.69-7.37,4-8.09-.44-8.09-.44Z"/><path class="cls-16" d="M144.36,82.12a14.89,14.89,0,0,0,2.34-.26c1.56-.51,2.45-1.18,3.59-1.53,1.93-.61,3.36-.07,4.22-.26s1.92-1.3,3.93-1.59c1.17-.16,4.12-.37,5.75-.58a15.3,15.3,0,0,0,2.22-.77c.3,0,.25,2.33-10.51,4.76S144.1,82.26,144.36,82.12Z"/><path class="cls-19" d="M240.58,161.25h.09l-.09,0A0,0,0,0,0,240.58,161.25Z"/><path class="cls-19" d="M240.84,161.27H241A.07.07,0,0,0,240.84,161.27Z"/><path class="cls-3" d="M59.53,115.23a85.4,85.4,0,0,1,6.16,32.09c0,1.51-16.9,14.28-16.9,14.28l36.8-2,27-7.81s-18.75-6.6-19.52-8.2-1.43-12.69-1.43-12.69"/><path class="cls-1" d="M126.83,248.2,120.38,207s-1-2.65-.42-10.37a54.81,54.81,0,0,0-2.27-18.1l-4.06-27.37c-2-.12-17.16-5.84-17.16-5.84S95,155.75,84.14,156.8s-18.52-11.26-18.52-11.26C58.42,147.46,45.4,151,45.4,151L51,174.55l0,26.79C66.51,223.44,93.72,243.52,126.83,248.2Z"/><g id="freepik--character-3--inject-2"><path class="cls-13" d="M114.35,174.85a17.39,17.39,0,0,1-2-12c.23,0,.1,2.74.66,6S114.56,174.76,114.35,174.85Z"/></g><path class="cls-20" d="M62.44,123.66a9.09,9.09,0,0,1-5.39-.21c-2.6-1-4.61-3.58-4.43-4.89a2.78,2.78,0,0,0-.48-2.08s-2.12-.84-2.38-2.12a15.35,15.35,0,0,1-.06-3.44l6.39-1.68,5.22-1.41,1.43,16.06Z"/><path class="cls-21" d="M70,131.41s.74,7.29,16.54,9.81a12.25,12.25,0,0,0,5.86-.63l0-2Z"/><path class="cls-22" d="M101.29,88.77h0c.28-3.14.27-5-.91-7-.82-1.38-3.64-2.48-3.64-2.48s-1.3-4.33-3.2-3.38c0,0-3-5.56-8.53-3.06A3.08,3.08,0,0,0,82.36,74s-3.6-4.61-8-.25c0,0-2.14-.91-2.54.73,0,0-3.9-2.62-6.78.51,0,0-8.73-.23-9.91,5.41,0,0-4.45-1.38-5.9,2.86,0,0-2.1.53-1.61,3.47,0,0-3,1.47-3,3.44A5.67,5.67,0,0,0,43.68,95c.18.88.44.59.92,1.73-1.15,3.81,1.59,3.78,1.59,3.78-2.17,3.71,1.94,7.19,1.94,7.19s-.92,2.75.09,4.24c1.38,2,6.05,3.74,6.05,3.74a55.16,55.16,0,0,0-.86-9.84c-.87-3.72,1.09-10.81,1.87-12.4s8.51-.26,19.7-2.12S88.08,87,89.47,87.16c2.89.28,6.86,9.69,7.28,12.67A64.22,64.22,0,0,0,99,108.24s5.51-3.53,3.09-8.24c0,0,1.35-3.91.23-5.94a2.32,2.32,0,0,0-.89-1.25S103.1,90.26,101.29,88.77Z"/><path class="cls-3" d="M70.25,132.59a33.55,33.55,0,0,0,19.08,7.19c6.4.36,8.19-2,8.92-3.05a40,40,0,0,0,7.27-17.46,14.68,14.68,0,0,0-.32-5.17c-.55-2.63-1.8-7.64-2.13-10.19-.85-6.47-2.42-12.23-6.77-17.14-9.07-10.22-26.7-7.41-32.8-3.33C56.37,88.2,54,96.11,54.68,104.05a21.25,21.25,0,0,0,1.8,7.08,23.78,23.78,0,0,1,3.4,3.48"/><path class="cls-23" d="M96.46,87.86s.58.39,5.09,7.77c-1.19-2.38-2.18-6.08-4.81-9.26-9.2-11.12-32.21-6.05-38.28-1.73-7.09,5.06-8.77,13.36-8,21.92.31,3.48.49,5.7,1.93,8.41l.75.58s7.13.31,10,4.19l-.44-3.69A75.21,75.21,0,0,0,64,103.12s-.61-4.34-.86-5.63c-.77-4,3-3.67,5.53-3.4a33,33,0,0,0,6.58-.35c4.07-.68,9.14-2,11.06-2.32C89,91.05,96.46,87.86,96.46,87.86Z"/><path class="cls-24" d="M96.19,88a4.8,4.8,0,0,1,.88,1.16c1.48,2.13,2.83,4.37,4.19,6.59.08.12.62-.07.57-.16C100.13,92,99,88.33,96.26,85.44a18.06,18.06,0,0,0-7.61-4.54c-5.93-1.9-12.5-1.65-18.55-.51-4.88.93-10.09,2.37-13.81,5.84-6.08,5.67-6.74,14.12-6,21.91a16.51,16.51,0,0,0,1.61,6.56,1.85,1.85,0,0,0,1.67,1c3.33.33,7.15,1.36,9.31,4.1.08.1.59,0,.57-.15A25.38,25.38,0,0,1,63,116a24.92,24.92,0,0,1,.45-2.7c.37-2.63.6-5.28.73-7.93a27.37,27.37,0,0,0-.41-5.64c-.32-2.14-1.38-5.24,1.75-5.63,2-.25,4.09.21,6.11.1,5-.28,9.84-1.82,14.77-2.7,3.5-.63,6.93-2.21,10.19-3.6.34-.15-.19-.13-.33-.07-3.23,1.38-6.64,2.93-10.12,3.52-5.43.92-10.65,2.75-16.23,2.68-3,0-7.87-1-7.06,3.69.31,1.76.67,3.55.82,5.33a45.12,45.12,0,0,1-.51,8.2c-.18,1.59-.62,3.22-.72,4.8a21.77,21.77,0,0,0,.43,3.76l.57-.15c-1.76-2.24-4.58-3.29-7.3-3.84-.84-.18-1.76-.17-2.59-.37-1-.25-1.47-1.63-1.8-2.61a23.58,23.58,0,0,1-1-5.48,46.08,46.08,0,0,1-.22-6,24.14,24.14,0,0,1,2.89-11,17.05,17.05,0,0,1,6.85-6.7,32.93,32.93,0,0,1,7-2.49,40.85,40.85,0,0,1,18.72-.62,19.66,19.66,0,0,1,8.83,4.31c3.29,3,4.46,7,6.33,10.85l.57-.16c-1.38-2.26-2.75-4.53-4.27-6.7a4.2,4.2,0,0,0-.83-1.08C96.6,87.67,96.11,87.9,96.19,88Z"/><path class="cls-3" d="M65.42,127.11c-4.15,5.35-7.07-1-7.07-1-3.71-3.35-4.3-7.41-4.58-10.19s2.77-3.19,2.77-3.19c2.63-.09,2.31.27,6.88,7.13"/><path class="cls-25" d="M61,120.16a21.72,21.72,0,0,0-2.31-3.46,7.12,7.12,0,0,0-1.58-1.47,1.93,1.93,0,0,0-.86-.36c-.31,0-.43.19-.55.45a5.35,5.35,0,0,0,0,3.74c.07.2.5.08.44-.11a5.58,5.58,0,0,1-.25-2.89,3.36,3.36,0,0,1,.24-.74,1.86,1.86,0,0,1,.1-.2s.07-.11,0,0l-.2.09h0c.08,0,0,0,0,0a1.75,1.75,0,0,1,.54.24,8,8,0,0,1,2.15,2.16,24.72,24.72,0,0,1,1.75,2.76c.1.16.51,0,.4-.19Z"/><path class="cls-25" d="M61.05,121.49c-1.75.37,0,2.53,0,3.49a.88.88,0,0,0,0,.16v0c0,.07,0,.07.13,0s-.07,0,0,0-.25-.23-.35-.35a7.93,7.93,0,0,1-.85-1.5,7,7,0,0,1-.65-2c-.12-.84-.21-2.11.55-2.69.23-.18-.13-.28-.28-.16a2.65,2.65,0,0,0-.76,2.38,6,6,0,0,0,.47,2,11.37,11.37,0,0,0,.91,1.77c.17.27.41.69.75.77a.48.48,0,0,0,.59-.38,1.92,1.92,0,0,0-.21-1c-.19-.49-1.1-2.14-.17-2.33.27-.06.2-.31-.06-.26Z"/><path class="cls-23" d="M80,109.73a2,2,0,0,0-2,.78,1.86,1.86,0,0,0-.4,1,2,2,0,0,0,.79,1.68,1.83,1.83,0,0,0,2.13,0,2,2,0,0,0,.54-2.5,1.83,1.83,0,0,0-1-.91"/><path class="cls-23" d="M84.24,112.19s-3.33-3.36-6.1-2.84c-3.9.74-4.39,3.18-5,4.52,0,0,2-3.25,5-3.74C80.91,109.68,84.24,112.19,84.24,112.19Z"/><path class="cls-23" d="M99.17,106.22a1.77,1.77,0,0,1,2,0,1.88,1.88,0,0,1,.69.78,2,2,0,0,1-.1,1.84,1.62,1.62,0,0,1-1.85.73,2.08,2.08,0,0,1-1.35-2.14,1.81,1.81,0,0,1,.58-1.22"/><path class="cls-23" d="M94.52,110.26s1.53-4.29,3.92-4.74c3.37-.65,4.59,1.47,5.54,2.51,0,0-2.7-2.35-5.29-1.78C96.34,106.77,94.52,110.26,94.52,110.26Z"/><path class="cls-9" d="M93.47,120.52a2.88,2.88,0,0,1-2.59.29c-.18-.07-.7.12-.45.22a4,4,0,0,0,3.51-.45c.09-.07.06-.14-.06-.16a.63.63,0,0,0-.41.1"/><path class="cls-9" d="M90.08,120.88a4.51,4.51,0,0,0-1.64-.12.4.4,0,0,0-.23.12c0,.05,0,.11,0,.13a1.82,1.82,0,0,0,.9,0,.36.36,0,0,0,.25-.16c0-.08-.07-.11-.14-.1a1.35,1.35,0,0,1-.72,0l-.21.24a4.25,4.25,0,0,1,1.47.11.34.34,0,0,0,.29-.08c0-.05.1-.14,0-.16"/><path class="cls-9" d="M87.93,121.33a2.22,2.22,0,0,1-1.83-.48,1.92,1.92,0,0,1,.34-2.54c.08-.07,0-.12-.07-.13a.58.58,0,0,0-.32.13,2.39,2.39,0,0,0-.68,2.29,1.77,1.77,0,0,0,1.69,1,3.57,3.57,0,0,0,.73,0c.09,0,.26-.08.29-.16s-.06-.11-.15-.09"/><path class="cls-9" d="M94.58,120a.09.09,0,0,1,.06-.14.78.78,0,0,0,.46-.25l.21.18a2.27,2.27,0,0,0-.94.53.2.2,0,0,1-.21,0s-.1-.1,0-.16"/><path class="cls-9" d="M94.11,120.16a2.56,2.56,0,0,1,1-.59.21.21,0,0,1,.18.05.09.09,0,0,1,0,.13"/><path class="cls-9" d="M95.92,119.84a1.34,1.34,0,0,0,1-1,1.92,1.92,0,0,0-.86-2,.08.08,0,0,1,0-.14.27.27,0,0,1,.23,0,2.14,2.14,0,0,1,1,1.63,1.49,1.49,0,0,1-.73,1.43,1.46,1.46,0,0,1-.45.18c-.06,0-.18,0-.22-.07s0-.11.07-.12"/><path class="cls-23" d="M81.35,101.77c.19.6.39,1.2.58,1.8s.3.92.44,1.38c-1.47,0-2.71.17-3.63.29a16,16,0,0,0-5.35,1.48,5.92,5.92,0,0,0-2,1.57c-.17.22-.56,1-.94,1-.16,0-.18-.83-.18-.92,0-1.63.94-2.63,2.27-3.46a24.78,24.78,0,0,1,8.81-3.13"/><path class="cls-23" d="M102.81,102a4.81,4.81,0,0,1-.22-1.19,7.81,7.81,0,0,0-.93-.35,24,24,0,0,0-9.17-.72c0,.63-.07,1.26-.1,1.89l-.06,1.45c1.41-.34,2.62-.54,3.52-.67a15.46,15.46,0,0,1,5.47,0,6.09,6.09,0,0,1,1.44.48Z"/><g id="freepik--Character--inject-2"><path class="cls-1" d="M127,164.91c-2.57-5.42-4.6-9.11-7.88-11.6-1.54-1.18-10.71-3.39-10.71-3.39l1.16,25.58,4.93,24.38,24.12-7.61S130.32,172.05,127,164.91Z"/><path class="cls-3" d="M72.73,206.45s-12.43-6.33-15.34-7.07-12.15,1.31-12.25,3.54a29.69,29.69,0,0,0,0,3.53s-2.72,1.91-1.57,3.93,2.3,2,2.3,2-1.67,1.46-.73,2.82,1.91,3,1.91,3-.4,1.77.69,2.51,8.52,1.88,13.86,1.57a42.46,42.46,0,0,0,7.95-1.05Z"/><path class="cls-3" d="M134.75,193.48c.5,1.1,4.65,17.52,4.95,24.74.31,7.42-3.2,11.59-10.74,11.52s-41.85-4.1-52.62-9.66l-4.25-1.24,3.15-10.53a141.1,141.1,0,0,1,15,1.66c5.41,1.1,30-2.81,30-2.81l-.94-7.28-.23-1.83,9.45-2.61Z"/><path class="cls-21" d="M120.27,207.16c3.77.7,6.3,3.32,7.7,6.9a9.17,9.17,0,0,1,.49,1.62,2.28,2.28,0,0,1,.09.63,21,21,0,0,0-.73-2.17,12.7,12.7,0,0,0-8.52-6.83"/><path class="cls-3" d="M75.54,153.17l-12,43.77-3.22-6L40,199.11a110.86,110.86,0,0,0,5.27,12C54,227.81,65.62,228.77,72.8,226.51s11.74-26.44,13.29-36.76c1.79-11.95,2.08-37.68,2.08-37.68Z"/><path class="cls-3" d="M88,160.68s.32-7.41.46-10.34-4.59-14.44-4.69-14.7-.66-3.89-.66-3.89,1,.54,2-.85c.58-.81-.36-3.39-1.22-4a3.25,3.25,0,0,0-2.33,0s0-1.66-2.52-1.61c0,0-.35-2.58-5.61-1.72,0,0,.05-.66-1.51-.56s-6.06,1.06-6.37,2.12,1,7.36,1,9.14a5.56,5.56,0,0,0,.81,3.49c.76,1.56,6.9,11.59,8.35,13.78L74,158.77"/><path class="cls-21" d="M82.79,129.5a.73.73,0,0,1,.25.3,2.46,2.46,0,0,1,.24.92,3.25,3.25,0,0,1-.07,1.28,3.8,3.8,0,0,1-.17-1.26A8.78,8.78,0,0,0,82.79,129.5Z"/><path class="cls-26" d="M81.6,126.91a4.1,4.1,0,0,1-1.15.66,3.17,3.17,0,0,0-1.17.73,2.23,2.23,0,0,0-.55,1.54,13.29,13.29,0,0,0,.32,3.14c.16.79.3,1.28.27,1.29a5.09,5.09,0,0,1-.44-1.26,11,11,0,0,1-.38-3.18,3.47,3.47,0,0,1,.15-.92,1.85,1.85,0,0,1,.46-.76,3.4,3.4,0,0,1,1.27-.74C81.15,127.13,81.58,126.88,81.6,126.91Z"/><path class="cls-26" d="M79.07,125.3a2.1,2.1,0,0,1-.46.16l-1.31.32-1.93.46a1.52,1.52,0,0,0-.92.53,2,2,0,0,0-.31,1.13c0,.41,0,.83.08,1.24s.06.8.09,1.17c0,.73.1,1.38.14,2s.06,1,.07,1.35a2,2,0,0,1,0,.49,2,2,0,0,1-.09-.49c0-.31-.09-.77-.15-1.33s-.12-1.25-.19-2c0-.38-.07-.77-.1-1.17a12.53,12.53,0,0,1-.08-1.27,2.15,2.15,0,0,1,.35-1.26,1.68,1.68,0,0,1,1.07-.6l2-.4c.55-.11,1-.2,1.32-.25A2.43,2.43,0,0,1,79.07,125.3Z"/><path class="cls-26" d="M73.67,123.55a4.19,4.19,0,0,1-.46.16c-.3.11-.73.28-1.25.51l-.85.37a3.26,3.26,0,0,0-.89.54,2.28,2.28,0,0,0-.87,2.05c.1.84.29,1.66.41,2.4s.24,1.38.35,2,.16,1,.21,1.33a2.07,2.07,0,0,1,0,.5,2.44,2.44,0,0,1-.14-.46c-.07-.31-.17-.76-.28-1.32s-.25-1.24-.4-2-.32-1.54-.43-2.42a2.53,2.53,0,0,1,.2-1.3,3,3,0,0,1,.77-1,3.59,3.59,0,0,1,1-.54l.87-.35A5.67,5.67,0,0,1,73.67,123.55Z"/><path class="cls-1" d="M47.29,150.94s-16.14.32-15.95,18.37c.17,15.24,4.8,33.37,4.8,33.37l25.47-10.27-7.25-25.26C54.36,166.66,47.29,150.94,47.29,150.94Z"/></g><path class="cls-27" d="M88.47,155.41a46.14,46.14,0,0,1,0-5c.14-2.93-4.59-14.44-4.69-14.71s-.66-3.88-.66-3.88,1,.53,2-.85c.58-.82-.36-3.4-1.22-4a3.25,3.25,0,0,0-2.33,0s0-1.67-2.52-1.62c0,0-.35-2.58-5.61-1.72,0,0,.05-.65-1.51-.55s-6.06,1.06-6.37,2.12,1,7.35,1,9.14a5.52,5.52,0,0,0,.81,3.48c.76,1.57,6.9,11.6,8.35,13.79l-.89,2.91"/><path class="cls-21" d="M82.2,208.87s-2.13,9.63-4.28,11.94l1,.4S82.32,213.74,82.2,208.87Z"/><path class="cls-21" d="M63.55,196.94s-3.89,10.16-4.47,13.85c0,0,2-11.83,3.83-15Z"/><path class="cls-21" d="M43.7,208s4.2,9.81,9.68,14h-.69S46.81,217.46,43.7,208Z"/><path class="cls-28" d="M93.68,125.54c-2.22.37-6.91,2.55-7.76,3.59,0,0,2.84,1.36,8,.51s5.73-2.77,5.73-2.77S96.52,125.07,93.68,125.54Z"/><path class="cls-29" d="M87.86,127.82s2.62-.66,4.73-1,4.8-.57,4.8-.57.07-1.66-3.76-1A11.09,11.09,0,0,0,87.86,127.82Z"/><path class="cls-16" d="M93.81,128.94c-2.48.05-5.1-.45-7.89.19,0,0,1.33,3.14,7.4,2.14s6.33-4.4,6.33-4.4C96.8,127.16,96.17,128.19,93.81,128.94Z"/><path class="cls-16" d="M96.12,123.89a11.26,11.26,0,0,0-2.57.83,11.28,11.28,0,0,0-2.71,0c-1.18.28-5.74,4.07-5.12,4.36s4.19-2.52,8-3.16,5.58,1.31,6.08.84S97.33,123.78,96.12,123.89Z"/><polygon class="cls-30" points="119.1 198.05 119.1 170.39 120.85 197.36 119.1 198.05"/><polygon class="cls-30" points="56.13 167.36 61.22 192.56 63.55 196.94 56.13 167.36"/><path class="cls-3" d="M66.79,145.26A13.22,13.22,0,0,1,63,147.07a26.58,26.58,0,0,1-5,1l-.77,0s2.46,3.33,2.34,4.35S58.7,155,58.14,155a5.09,5.09,0,0,1-1.74-.7s.65,2.06-.38,2.82-2.08.14-2.84-.17a15.28,15.28,0,0,1-2.31-1.57s-.35,2.17-1.64,2.23-5.86-2.8-5.86-2.8.15,2.49-1.34,2.53-2.82-1.13-3.87-2.21-2.38-2.51-2.22-3.27A2.82,2.82,0,0,1,37.26,150l2.13-1.14a4.56,4.56,0,0,1,.67-2.06,47.42,47.42,0,0,1,3.5-3.47s-.08-2,.8-2.73a11.85,11.85,0,0,1,3.11-1.46s1.92-2.75,2.68-2.74,1.07-.29,3.94.71a87.32,87.32,0,0,1,8.2,3.79,4.43,4.43,0,0,1,2.61.92C65.91,142.72,67.48,143.66,66.79,145.26Z"/><path class="cls-21" d="M39.48,149.32a4.77,4.77,0,0,0,.4,1.83c.36.55,2.86,3,2.86,3a28.78,28.78,0,0,1-3.3-2.8c-.34-.58.08-2.24.08-2.24"/><path class="cls-21" d="M43.54,144.32s-1,3.14,0,4.55A85.22,85.22,0,0,0,50.06,155s-5.85-5.89-6.18-7A17.87,17.87,0,0,1,43.54,144.32Z"/><path class="cls-21" d="M47.57,139.9s-.26,4.78.42,5.7,7,7,7.46,7.42l.68.5s-7.21-7.76-7.65-8.59A31.14,31.14,0,0,1,47.57,139.9Z"/><path class="cls-21" d="M61.38,145.57S59.45,147.71,58,148s-3.26-1.13-3-2.56a4.26,4.26,0,0,1,1.61-2.83,8.36,8.36,0,0,1,2.25-1.49s-2.95,2.7-3.13,3.31-.58,2.46.64,2.9,1.73.37,3.1-.42A9.91,9.91,0,0,0,61.38,145.57Z"/><path class="cls-21" d="M55.09,146.39s-1.65-1.82-1.6-2.48a21.92,21.92,0,0,1,.52-2.59,6.62,6.62,0,0,0,0,2.83C54.4,144.94,55.09,146.39,55.09,146.39Z"/><path class="cls-21" d="M65.5,142.32s.75,1.76-1.14,4.39c0,0,1.87-.13,1.7-3.1A1.63,1.63,0,0,0,65.5,142.32Z"/><path class="cls-3" d="M185.55,238.87c-.38.13-6.19,1.7-9.12,3.74s-9.82,4.23-9.82,4.23-12,1.61-13.45,1.13-3.22-3-3.22-3a12.37,12.37,0,0,0-3.05-.16c-2.78,0-3.82-3.12-3.82-3.12l3.57-1.26a36.52,36.52,0,0,1-6,2.05,1.59,1.59,0,0,1-1.67-1.69,4.29,4.29,0,0,1,1.94-2.85l12.65-9.19c-2.13-1.37-4.81.82-6.58-.95a2.13,2.13,0,0,1,.36-3.58c.57-.36,7.86-2,7.86-2s10.44-.35,12.58.09,13.4,3.41,13.4,3.41l3.49-1.21S185.94,238.73,185.55,238.87Z"/><path class="cls-31" d="M156.68,226.88a25.67,25.67,0,0,1,5-2.2,23.83,23.83,0,0,1-4.77,2.75,43.07,43.07,0,0,1-4.89,2.47A17,17,0,0,1,156.68,226.88Z"/><path class="cls-31" d="M151.21,238.63c-2,1-3.83,1.85-5.19,2.4a7.32,7.32,0,0,1-2.26.74,12.11,12.11,0,0,1,2.09-1.14c1.3-.66,3.1-1.59,5.1-2.57,4-2,7.45-3.17,7.49-3S155.19,236.64,151.21,238.63Z"/><path class="cls-31" d="M156,243.12a18.26,18.26,0,0,1-6.06,1.81c0-.13,2.7-1,5.86-2.33s5.6-2.84,5.69-2.69A18.72,18.72,0,0,1,156,243.12Z"/><path class="cls-7" d="M244.94,205.41S219,237.61,201.2,240l-3.73-4.77-.93.29,4.46,5.42S222.37,238.42,244.94,205.41Z"/></g></svg>