<svg xmlns="http://www.w3.org/2000/svg" viewBox="0 0 285.1 249.23"><defs><style>.cls-1{fill:#cdb731;}.cls-2{fill:#946344;}.cls-3{fill:#b6bc81;}.cls-4{fill:#5f605f;}.cls-5{fill:#853424;}.cls-6{fill:#653d2e;}.cls-7{fill:#010101;}.cls-8{fill:#151312;}.cls-9{fill:#868686;}.cls-10,.cls-27,.cls-28,.cls-29{fill:none;}.cls-10{stroke:#010101;stroke-width:0.53px;}.cls-10,.cls-19,.cls-27,.cls-28,.cls-29{stroke-miterlimit:10;}.cls-11{fill:#273339;}.cls-12{fill:#fff;opacity:0.14;}.cls-13{fill:#622716;}.cls-14{fill:#694234;}.cls-15{fill:#311811;}.cls-16{fill:#f1edf6;}.cls-17{fill:#61603a;}.cls-18{fill:#898b5b;}.cls-19,.cls-20{fill:#907e2f;}.cls-19{stroke:#907e2f;stroke-width:0.56px;}.cls-21{fill:#161413;}.cls-22{fill:#211e1f;}.cls-23{fill:#cb8c2a;}.cls-24{fill:#643c2b;}.cls-25{fill:#301913;}.cls-26{fill:#eeebf5;}.cls-27,.cls-28{stroke:#653d2e;}.cls-27{stroke-width:0.57px;}.cls-28,.cls-29{stroke-width:0.43px;}.cls-29{stroke:#704634;}</style></defs><g id="Layer_1" data-name="Layer 1"><path class="cls-1" d="M138.54,121.13,174,166.75c5.63,6,14.3,17.71,8.14,23.17h0c-5.58,5-16.62,5.35-22.14.34l-47.76-45.85Z"/><path class="cls-2" d="M184.32,175.22l-11.45-6.61-10.07-6.14-10.88,28L148,193.64a61,61,0,0,0-9.19,9.26l-23.9,29.87,6.06,7.89s40.23-28.68,45.6-34.5C169.45,203.07,177.83,187,184.32,175.22Z"/><g id="freepik--character-1--inject-1332"><path class="cls-2" d="M113.22,106.76l-37.68-6L69.46,114.1s8.5,10.46,9.45,11S102.53,134,102.53,134s27.73-6.3,27.37-6.27S113.22,106.76,113.22,106.76Z"/></g><path class="cls-2" d="M86.53,72.32S83.62,87.14,78.07,97c-.78,1.37-10.86,5.53-10.86,5.53l12.93,6.6c7.39,2.91,24.55,5.14,32.34,3.59l6.77-3s-7.54-2.88-7.65-4.73,3.31-15.23,3.31-15.23"/><path class="cls-1" d="M135.76,198.6l1.89-8.43,7.14-13.47c2.72-8.65,3.53-15.09,1.67-18.9l-16.58-42.51-16.17-8.39c.6,1.4,5.05,10.92-8.69,13l-3.31-.31C84.57,117,74,99,74,99l-3.84,2.29L37.32,187.51S27,206.62,18,248.78H138.19C137.38,227.51,135.76,198.6,135.76,198.6Z"/><path class="cls-2" d="M208,122.53l-.13,6.86-2.9.21a23.57,23.57,0,0,0-6.31,2.12c-2.57,1.45-10.33,18.82-3.09,22.95s43.29-20.89,43.29-20.89L232.25,130l-4-.09-5.34-6.33Z"/><path class="cls-3" d="M252.66,220.46c-.53-4.47-1-8.8-1.47-12.53,0-8.55.07-22.22.07-22.22l-2.14,6.38c-1-4.14-2.78-9.49-2.78-9.49l.22-.22,10.12-2.63c.28-12.71,8.63-33.79-2.79-41-7.64-4.8-10.54-6.22-22-9.51,0,0-10,21.8-29.75,16-9.38-2.75-2.75-13.75-2.29-14.55-.48.62-1.55.76-2.23.94-2.25.6-4.42,1.12-6.7,1.68-3.32.82-6.17,1-9.41,2.09a19.28,19.28,0,0,0-6.45,3.38c-3.92,2.79-8.89,11-11.42,15s-5.79,9.36-8.06,13.55l15.12,7.06c-3.42,13.92,2.91,17.59,5.22,21.19s4.7,22-2.12,39a47.4,47.4,0,0,0-3.52,14.16H260.9C258.54,239.71,254.71,228,252.66,220.46Z"/><path class="cls-4" d="M81.9,27.65c2.45-2.57,5.9-4,9.12-2.62.82-6.57,7.74-9.5,14.32-8.72,3.36.56,6.59,2.58,9.94,1.94,2.08-.4,3.81-1.73,5.69-2.78,7.87-4.21,18.11,3.54,23.17,10.9s2.51,14.35-1.78,22.17c-2,3.64-2.08,5.76-3.12,9.81-1,3.82-4.39,10.68-5,14.52s4.82,8.76.88,8.5L93.53,70.14c-6.47.31-10.2-2.18-12.6-8.2-1.54-4.08-.82-4.15-.46-8.48.33-5.68-4.75-10.74-3.59-16.32C77.5,33.62,79.59,30.39,81.9,27.65Z"/><path class="cls-5" d="M76.68,26.64A66.79,66.79,0,0,1,111,26.43C129.51,31.3,137,44.23,139.09,53s-2.73,17-2.73,17,4.53,2,10.18-14.54c8.22-24.08-14.87-42.75-21-43.57S89.16.14,76.68,26.64Z"/><path class="cls-6" d="M112.17,101.22s-3.07-1-5.15-2-5.81-1.39-14.47-11.62c0,0,1.28,11.13,13.7,15.39a15.8,15.8,0,0,0,5.45,1Z"/><path class="cls-2" d="M133.41,38.08l.12.13a1.06,1.06,0,0,1-.09-.25Zm5.13,2.4.2.28,0-.1S138.57,40.36,138.54,40.48ZM91.39,86.23c3.82,6.37,10.38,13.71,18.43,15.31a12.59,12.59,0,0,0,8.41-1.64c3.66-2.1,7.51-4.2,10.52-7a25.35,25.35,0,0,0,6.12-7.87,19,19,0,0,0,2.61-8.51,38.38,38.38,0,0,1,1.23-6c.59-1.86,3.22-9.1,4.43-13.42s-.28-13.41-.28-13.41c0-1.24-1.75-1-2.15-2.11l-.52-.13a.51.51,0,0,1,.14.53,4.24,4.24,0,0,1-1.59-1.28h0a2,2,0,0,1-2-1.12c0,.11,0,.38.17.41A2.64,2.64,0,0,1,135,38.85c0,.12,0,.38,0,.5a4.93,4.93,0,0,1-1.47-1.14c.08.19,3.09.45,3.07.53-.8-.07,0,.41-.48-.34l-.53-.6c-.67,0-.74.36-1.14-.24.1.15,0-1.39-.06-1.27-.77-.19-.55-.19-1.1-.7,0,.11-2.29.24-2.32.36-.64-.16-.62.47-1-.12.1.14.59-.38.69-.23-.8-.08-1.21.35-1.71-.4.1.15-2.22-1.92-2.22-1.92-.8-.08-.73.2-1.25-.43.19.3-3.51-1.1-3.44-.83-.64-.16.65,2.66.22,2.17,0,.12-1.39-.71-1.39-.71-.67,0,.15.78-.25.18,0,.12,0,.51.14.54a2.72,2.72,0,0,1-2.35-1c.2.3.27.57.37.72a2.58,2.58,0,0,1-1.71-.8c0,.12.14.54.27.57a2.63,2.63,0,0,1-2-.75c0,.12.17.42.27.57a1.88,1.88,0,0,1-1.48-.62l.26.57a4.16,4.16,0,0,1-1.66-.41c0,.12.19.3.17.42a5.24,5.24,0,0,1-1.26-.44c0,.12.3.45.17.42-.51-.13-1,0-1.54-.38.1.15.17.41.27.56a3.3,3.3,0,0,1-1.51-.5.89.89,0,0,0,.14.54c-.52-.13-1,0-1.55-.38,0,.12.17.41.27.56a6.43,6.43,0,0,1-1.54-.38c0,.12.2.3.3.45a4.07,4.07,0,0,1-1.64-.53c-.06.24,0,.39,0,.5-.38-.09-.61-.27-1-.37l-.7.08C100.92,35.55,94.65,32,94.65,32c-4.77,2.2-3.46,19.8-3.89,22.07s-1.85,2.58-1.85,2.58c-.44-1-1.82,1.27-2,.23s.34-1.92.16-2.84c-.69-2.17-3.4-2.22-5.11-1.39l-.33.33C79,55.14,79.13,64,80,66.77c-.81,5.12,3,8.83,6.33,5.82l.21,2.12"/><path class="cls-7" d="M120.45,79.92a3.77,3.77,0,0,1-3.29-1c-.18-.18-.91-.23-.66,0a5.34,5.34,0,0,0,4.5,1.34c.14,0,.14-.13,0-.22a.91.91,0,0,0-.55-.11"/><path class="cls-7" d="M116.15,78.54a6,6,0,0,0-1.93-1,.44.44,0,0,0-.34,0c-.08,0-.11.11,0,.17a2.32,2.32,0,0,0,1.07.54.42.42,0,0,0,.38,0c.09-.08,0-.17-.11-.19a1.91,1.91,0,0,1-.86-.44l-.38.19a5.43,5.43,0,0,1,1.73.92.45.45,0,0,0,.39,0c.09,0,.19-.11.09-.19"/><path class="cls-7" d="M113.3,77.93a3,3,0,0,1-2-1.56,2.4,2.4,0,0,1,1.75-2.78c.13,0,.09-.14,0-.19a.69.69,0,0,0-.47,0,3,3,0,0,0-2,2.3,2.36,2.36,0,0,0,1.52,2.11,4.61,4.61,0,0,0,.89.36.62.62,0,0,0,.45,0c.09-.09,0-.16-.14-.19"/><path class="cls-7" d="M122.08,79.88a.11.11,0,0,1,.15-.13,1.06,1.06,0,0,0,.7,0l.15.32a3,3,0,0,0-1.42.14.26.26,0,0,1-.26-.11c0-.06-.07-.17,0-.21"/><path class="cls-7" d="M121.42,79.84a3.34,3.34,0,0,1,1.59-.15.27.27,0,0,1,.2.16.11.11,0,0,1,0,.16"/><path class="cls-7" d="M123.79,80.42a1.76,1.76,0,0,0,1.69-.65,2.5,2.5,0,0,0,0-2.82.1.1,0,0,1,.08-.17.35.35,0,0,1,.27.17,2.79,2.79,0,0,1,.32,2.48,2,2,0,0,1-1.65,1.33,2.21,2.21,0,0,1-.63,0c-.09,0-.23-.1-.24-.2s.07-.14.15-.12"/><path class="cls-8" d="M133.26,65.67a1.83,1.83,0,0,1,2.26,1.84,1.91,1.91,0,0,1-.86,1.58A1.76,1.76,0,0,1,132.6,69a2,2,0,0,1-.39-2.45,1.72,1.72,0,0,1,1-.83"/><path class="cls-8" d="M126.31,66.48s4.14-1.88,6-1.61c2.65.38,5.49,2.6,6.09,4.11,0,0-3.69-3.19-5.57-3.4S126.31,66.48,126.31,66.48Z"/><path class="cls-8" d="M111.59,60.6a2.47,2.47,0,0,0-2.36-.43,1.77,1.77,0,0,0-.75.71,1.88,1.88,0,0,0,0,1.8,1.78,1.78,0,0,0,1.89.83,2,2,0,0,0,1.49-2c0-.15.2-.39-.3-.83"/><path class="cls-8" d="M115.62,63.62s-3.3-3.46-5.22-4c-2.79-.78-6.55,0-7.8,1.15,0,0,5-1.33,7-.73S115.62,63.62,115.62,63.62Z"/><path class="cls-9" d="M128.23,58c0,.54-.11,1.08-.16,1.62L128,60.8c1.41-.2,2.61-.31,3.52-.36a11.26,11.26,0,0,1,3.95.12,10,10,0,0,1,2.42,1,6.7,6.7,0,0,1,1.24.83c.85.76,1.15,1.55,1.31,1.5s0-.73,0-.8a6.39,6.39,0,0,0-1.68-2.93,7.58,7.58,0,0,0-2.42-1.42,26.91,26.91,0,0,0-8-.83"/><path class="cls-9" d="M119.31,55.29c-.21.5-.42,1-.62,1.5l-.48,1.14C117,57,115.84,56.35,115,55.84A13.8,13.8,0,0,0,111.13,54a11.94,11.94,0,0,0-2.82-.3,7.48,7.48,0,0,0-1.6.1c-1.19.24-1.85.79-2,.66s.36-.63.41-.68a6.32,6.32,0,0,1,3-1.73,8.48,8.48,0,0,1,3,0,32,32,0,0,1,8.13,3.32"/><path class="cls-10" d="M86.38,63.62c-1.66-7.31-3.69-7.72-3.69-7.72S81,57.22,81.14,60.49"/><path class="cls-10" d="M85.21,64c-1.8-.51-1,3.17-1.67,3.88s-.93-1.55-.69-4.17c0,0,.63-3.49,2.48-3.82"/><path class="cls-6" d="M115.53,47a22.19,22.19,0,0,0,8.65,3.74c4.56.7,10.28,1,10.28,1"/><path class="cls-9" d="M141.26,38.07c0-.1,0,0,0,0-.87-1.78-1.31-3.6-2.25-5.34s-1.85-3.26-2.87-4.91c-.06-.1-1.55-.39-1.61-.48l-.06-.1c0-.06-.07-.11-.1-.16s-.16-.24-.23-.36a34.7,34.7,0,0,0-23.13-5A28.74,28.74,0,0,0,86.38,54c.18,1.35-.84,2.77.3,3.7s1.34.6,2.67,0a9.61,9.61,0,0,0,3.22-2.93c4.27-5.64,6.68-15.36,6.34-22.43.62,1.42,6.61,1,7.75,2.09a11.12,11.12,0,0,0,15.72-.64,18.18,18.18,0,0,0,1.39,2.43c4.85,7.05,12,11.25,19.06,8C143.09,44.12,141.8,39.19,141.26,38.07Z"/><path class="cls-11" d="M101.34,57.25l.24,2.58a36,36,0,0,0,1,7.13c.57,1.62,10.32,4.46,12.53,3.78s4.61-6.07,5.43-7.26l3.9,1.14c0,1.78-.06,7.43.52,8.32s5.15,1.83,5.66,1.94,1,.19,1.69.29c1.74.27,3.89.47,4.67,0,1.17-.72,3-4.07,4.74-7.26l.27-.5c.06-.12.12-.2.13-.24h0l.31-.57c-5.06-4-12.63-5.34-18-3.06l0,.07-3.8-1.13C117,58.56,109.85,55.23,104,56.06h0L86.6,55l-.39,1.47ZM125.53,72.5c-.36-.56-.46-4.54-.44-7.62,4.6-1.9,11.42-.72,16,2.6l0,.07c-.91,1.71-3.32,6.26-4.47,7-1.36.83-10.42-1.11-11.08-2Zm-21.7-5.67a51.58,51.58,0,0,1-1.28-9.27c5.3-1.06,13.36,2.11,17,5.84-1.23,2.21-3,6.14-4.64,6.62-2.27.7-10.7-2.17-11-3.19Z"/><path class="cls-12" d="M125.65,72.45c-.36-.56-.47-4.55-.45-7.62,4.6-1.9,11.42-.72,16,2.6l0,.07c-.9,1.71-3.31,6.26-4.46,7-1.36.83-10.43-1.12-11.09-2Z"/><path class="cls-12" d="M103.83,66.83a51.58,51.58,0,0,1-1.28-9.27c5.3-1.06,13.36,2.11,17,5.84-1.23,2.21-3,6.14-4.64,6.62-2.27.7-10.7-2.17-11-3.19Z"/><path class="cls-13" d="M78.51,55.69S65.92,43.12,73.1,32.9c1.37-2,1.38-1.24,1.73-3.07,1.85-9.59-1.89-7.82,14-16.86s18-8.51,39.24-3.49c11,2.59,16.32,8.2,18.24,15.72A34.3,34.3,0,0,1,147,36.4s-21.68-10.07-36.36-4.92S78.06,58.11,79.73,66.18C80.21,68.45,78.51,55.69,78.51,55.69Z"/><path class="cls-5" d="M71.41,43.76s23.71-25,49.53-21.81c0,0-31.18-8.42-48.81,12L71.5,36.6a14.52,14.52,0,0,0-.32,5Z"/><path class="cls-14" d="M116.55,83.84c-4.07-1-10.53-3.25-10.53-3.25a11.3,11.3,0,0,0,21.32,5.49S120.62,84.89,116.55,83.84Z"/><path class="cls-15" d="M116.59,83.85C114.65,83.35,107,81,107,81s1.42,5.17,8.41,7c7.59,2,11-1.92,11-1.92Z"/><path class="cls-16" d="M116.59,84.18c-1.93-.5-7.73-2.36-7.73-2.36s1.55,2.78,7.35,4.27,8.2-.2,8.2-.2Z"/><path class="cls-14" d="M127.93,85.56a14.39,14.39,0,0,1-2.36-.33C124,84.67,123.12,84,122,83.57c-1.94-.66-3.41-.17-4.27-.39s-1.9-1.36-3.93-1.71c-1.18-.21-4.16-.5-5.8-.77a14.65,14.65,0,0,1-2.23-.84c-.3,0-.32,2.35,10.5,5.13S128.19,85.71,127.93,85.56Z"/><polygon class="cls-17" points="170.69 174.41 175.56 149.13 169.26 173.57 170.69 174.41"/><path class="cls-18" d="M244.65,140.12s-12.71,12.15-2.13,42.78l-1.56.62S229.3,154,244.65,140.12Z"/><polygon class="cls-18" points="240.53 183.65 247.4 182.68 247.2 182.07 240.35 182.92 240.53 183.65"/><path class="cls-1" d="M113.31,106.31s24,8.88,26.43,17.13c3.63,12.53,8.36,30,8.36,30L133,161.09Z"/><path class="cls-19" d="M146.6,169.66a43.49,43.49,0,0,0-1.52-9c-.74-3.25-1.63-6.45-2.64-9.63a144.78,144.78,0,0,0-6.13-16.22c-1.32-3-2.63-6.12-4-9.15,2.14,5.72,3.52,9,5.81,14.68a125.23,125.23,0,0,1,5.23,17c1.81,7.15,3.12,10.33,1.46,16.26s-6.41,12.86-6.41,12.86l.59.5S146.67,175.55,146.6,169.66Z"/><path class="cls-20" d="M137.29,198.28a45,45,0,0,1,.51-6.89,36.31,36.31,0,0,1,5-11.56c-.54.82-5,7.49-6,10.52a37.2,37.2,0,0,0-.4,7.57A4.19,4.19,0,0,1,137.29,198.28Z"/><path class="cls-2" d="M57.89,179.83c-.73,3.1-3.1,8.74-3.77,11.85-1.46,6.69,14.2,6.86,13.15,13.66L117.94,202l.36-15.11Z"/><path class="cls-19" d="M54.07,174.72a.93.93,0,0,1,.14.76L85.62,182l.54-.92Z"/><path class="cls-1" d="M74,99s-25.46-2.36-36,9.43-22.72,54.6-24.86,62.76c-3.32,12.68,0,22.15,10.84,27.39,20.24,9.83,57,8.13,57,8.13l4.52-24.89-31.22-6.38L57,145.56l15-37.34Z"/><path class="cls-19" d="M55,169.7q4.95-11.34,9.46-22.86c2.72-6.93,5.8-13.79,7.39-21.09,1.09-5-1.37-10-4.3-13.88-1.14-1.53-2.65-2.77-3.79-4.27,7.25,9.56,7.31,14.65,7.31,14.65a66.31,66.31,0,0,1-2.32,10.64c-2.37,7.92-15.85,39-15.71,40.7s1.28,1.5,1.28,1.5l.07-.31S52.4,174.64,55,169.7Z"/><path class="cls-19" d="M31.18,201.89a90,90,0,0,0,30,6.27c17.54.74,19.64.75,19.64.75l.82-4.49.41,0-.87,4.79s-22.06-.14-30.66-1.31a170.17,170.17,0,0,1-19.9-4.42Z"/><path class="cls-19" d="M54.07,174.34s-4.87-.41-13,4.4l13-4.4"/><path class="cls-21" d="M255.77,109.2a7.15,7.15,0,0,1-4.36-7.3,3,3,0,0,1-.31-.52c-1.22-2.88.81-6.62-1-9.17-1.65-2.33-5.77-1.79-7.34-4.18-1.22-1.86-.22-3.73-.79-5.42s-3.18-3-4.92-2.58L225.3,101.39c-.6,6.82-1.56,10.48.3,14.3,1.16,2-1.54,3.92-.84,6.11.53,2.24.22,4.87-1.5,6.4,8.3-.19,19.66-3.61,26.37-8.5l1.89-1.39c-3.15-1.3-5.86-6.62-5.86-6.62,1.62,2,4.58,4.87,6.8,5.88a9.77,9.77,0,0,0,1.11-.57c1.45-.44,5.07-3.77,7.3-5.92A15.07,15.07,0,0,1,255.77,109.2Z"/><path class="cls-21" d="M192.12,69a15,15,0,0,0-4.31,2.49,12,12,0,0,0-1.15,1.07,17.79,17.79,0,0,0-5.54,16.34c.54,2.85,1.74,6.06,0,8.44s-5.58,2.65-7.21,5.06c-1.92,2.83.37,6.57-.06,9.93a6.94,6.94,0,0,1-7,5.64,28.9,28.9,0,0,0,14.25,4.32l3.3-5a4.61,4.61,0,0,0,.94,5.81,11.3,11.3,0,0,0,6.05,2.67c5.05.57,16.13-2.06,30-7.53L196.71,67.75"/><path class="cls-21" d="M248.58,84.72c-.91-2-2.28-3.72-3-5.75-1.5-4.37.25-9.6-2.47-13.41-1.94-2.71-5.55-3.78-8.93-4.44s-7-1.13-9.66-3.18c-2-1.5-3.23-3.7-5.21-5.21-2.8-2.17-6.64-2.62-10.22-2.49a22.37,22.37,0,0,0-10.58,2.65,11.09,11.09,0,0,0-5.76,8.49c-.08,1.7.31,3.44-.07,5.1-.42,1.84-1.74,3.36-2.47,5.11a8.75,8.75,0,0,0,3.52,10.5l28.54,28.5c5.5,1.4,18.05-2.09,21.74-6.18S250.85,89.66,248.58,84.72Z"/><path class="cls-2" d="M201.77,107.94s-.19,20.63-.57,22.57l-1.37.62-.12,3.65c7.88,7.15,9.89,7.36,20.13,4.49l10.1-8.47a4.71,4.71,0,0,1-1.42-2.14c-2.48-6.46,3.09-21,3.09-21"/><path class="cls-2" d="M240.37,95.15l-.19-.38c-1.24-1.2-3.6-1.93-4.81-.24-.42.74-1,1.57-1.45,2.32a17.74,17.74,0,0,1-1.75,3.31S228.62,91,228.9,88.89s7.35-6.27,3.85-9.52c0,0-3.63-4.18-5.33-6.62q-.58-.37-1.2-.72a3.5,3.5,0,0,1-.66,0c0-.09.09-.17.13-.32l-.15-.07a4.93,4.93,0,0,1-1.4-.05c.13-.1.38-.19.39-.3a6.32,6.32,0,0,1-1.44-.11c.13-.1.38-.3.39-.41-.62.17-1-.07-1.44-.11a.8.8,0,0,0,.27-.42,3.23,3.23,0,0,1-1.45,0c.13-.1.27-.31.4-.41-.62.17-1-.08-1.44-.11-.12,0,.2-.18.25-.29l0,0a4.94,4.94,0,0,1-1.15,0c0-.1.19-.18.24-.28l-.07,0a4.31,4.31,0,0,1-1.47-.13l.19-.2-.21,0a1.93,1.93,0,0,1-1-.06l.16-.14-.41-.08a2.13,2.13,0,0,1-1.3-.12.3.3,0,0,0,.16-.08l-.46-.08a5,5,0,0,1-1,0,.38.38,0,0,0,.09-.09l-.61-.07A2.12,2.12,0,0,1,212,67.9c-.74-.07-1.48-.13-2.22-.17-5.54-.31-11.67-.24-16.13,3.51a53.93,53.93,0,0,0-4,8.48C187.64,85,187,93.46,187,95.23c0,1.54-1.17,4.43-1.47,6-1.65,8.54,4.41,17.82,10.75,23.1,2.53,2.11,4.89,1.56,7.56,1.4,5.46-.32,13.82-3,18.93-7.43l7.26-5.72.79-1.78c.86,3.54,5.72,1.67,6.48-3C241,104,242,97.78,240.37,95.15Z"/><path class="cls-7" d="M197.94,106a3.13,3.13,0,0,0,2.77.07c.19-.09.76.06.5.18a4.4,4.4,0,0,1-3.77-.15c-.09-.06-.07-.13.06-.16a.72.72,0,0,1,.44.06"/><path class="cls-7" d="M201.57,106a5,5,0,0,1,1.73-.26.4.4,0,0,1,.26.1s.05.1,0,.13a1.8,1.8,0,0,1-.95.13.36.36,0,0,1-.28-.13c0-.08.06-.12.13-.11a1.64,1.64,0,0,0,.77-.11l.24.24a4.27,4.27,0,0,0-1.55.24.38.38,0,0,1-.31-.06c-.06,0-.12-.13,0-.17"/><path class="cls-7" d="M203.89,106.3a2.41,2.41,0,0,0,1.9-.65,1.93,1.93,0,0,0-.61-2.57c-.09-.06,0-.12.06-.13a.56.56,0,0,1,.36.1,2.42,2.42,0,0,1,.94,2.27,1.86,1.86,0,0,1-1.69,1.18,3.32,3.32,0,0,1-.77,0c-.11,0-.29-.05-.34-.13s.06-.11.15-.11"/><path class="cls-7" d="M196.71,105.53a.09.09,0,0,0-.07-.14.78.78,0,0,1-.52-.21c-.07.07-.14.13-.2.2a2.43,2.43,0,0,1,1,.46.2.2,0,0,0,.22,0s.11-.11,0-.16"/><path class="cls-7" d="M197.22,105.67a2.72,2.72,0,0,0-1.17-.51.23.23,0,0,0-.19.06.09.09,0,0,0,0,.14"/><path class="cls-7" d="M195.28,105.5a1.43,1.43,0,0,1-1.13-.91,1.91,1.91,0,0,1,.71-2.08c.07-.05,0-.12,0-.15a.27.27,0,0,0-.24.06,2.16,2.16,0,0,0-.88,1.75,1.55,1.55,0,0,0,.92,1.4,1.71,1.71,0,0,0,.49.14.23.23,0,0,0,.23-.09c0-.08,0-.12-.08-.12"/><path class="cls-22" d="M233.7,102.47A21.69,21.69,0,0,1,237,97.88a6.6,6.6,0,0,1,1.1-.93,2.82,2.82,0,0,1,.38-.21l.13-.06.1,0,.08,0h0s.08,0,0,0l-.08,0a3.28,3.28,0,0,1,.44,1.16,6.45,6.45,0,0,1-.28,3.4c0,.1.36.05.4-.07a6.13,6.13,0,0,0,.13-4c-.09-.24-.17-.64-.48-.62a2.52,2.52,0,0,0-1,.36,7.51,7.51,0,0,0-1.74,1.49,24.22,24.22,0,0,0-2.91,4.25c0,.07.34,0,.4-.06Z"/><path class="cls-21" d="M188.42,84.05c3-.35,4.77,0,9.43,1.54v.11c-.06.63,0,.28-.08.91l-.12,1.45c-1.52-.53-2.6-1.06-3.59-1.31-1.87-.48-4-1.26-5.93-1.2C188.23,85.05,188.33,84.56,188.42,84.05Z"/><path class="cls-21" d="M208.34,86.18c0,.64,0,.28-.06.92l-.09,1.45c1.58-.3,2.72-.66,3.74-.77,2-.21,4.33-.7,6.32-.25A4.84,4.84,0,0,1,221.2,89c.17.24.46,1.1.85,1,.16-.06,0-.86-.06-.94-.42-1.62-1.73-2.36-3.36-2.85-3.34-1-5-1-10.29-.09"/><path class="cls-23" d="M233.87,110.45a2.36,2.36,0,0,1,.51,3.17,2,2,0,0,1-.62.58,2.76,2.76,0,0,1-.79.28c.09,0,.06,0,0,0h-.18a2.68,2.68,0,0,1-.55-.11,2.36,2.36,0,0,1-1.47-1.36c-.1-.23-.69-.06-.6.16a2.85,2.85,0,0,0,2.65,1.71,2.8,2.8,0,0,0,1.89-.9,2.59,2.59,0,0,0,.68-1.78,2.73,2.73,0,0,0-1-2.05c-.17-.14-.71.12-.47.32Z"/><path class="cls-22" d="M233.36,102.64c.4,0,1,.11,1,.6a2.25,2.25,0,0,1-.36,1.11c-.35.7-1,1.69-.39,2.44s1.75-.2,2.16-.72a4.87,4.87,0,0,0,1.1-2.93c0-1.08-.08-2.63-1.16-3.21-.1-.05-.43.12-.38.14.93.5,1.09,1.77,1.13,2.72a4.93,4.93,0,0,1-.63,2.67,3.43,3.43,0,0,1-1.19,1.34c-.41.23-.7-.11-.81-.51-.21-.8.41-1.63.72-2.31a1.37,1.37,0,0,0,.17-1c-.18-.41-.76-.46-1.14-.5-.09,0-.47.16-.27.18Z"/><path class="cls-21" d="M191.82,90.73a1.79,1.79,0,0,0-2,.21,1.67,1.67,0,0,0-.59.78,1.83,1.83,0,0,0,.3,1.67,1.67,1.67,0,0,0,1.9.47,1.86,1.86,0,0,0,1.07-2.08,1.67,1.67,0,0,0-.71-1"/><path class="cls-21" d="M197.44,93.64s-3.21-2.89-4.93-3.2a6.89,6.89,0,0,0-6,2s3.53-1.83,5.3-1.47S197.44,93.64,197.44,93.64Z"/><path class="cls-21" d="M211.7,92.34a1.83,1.83,0,0,1,1.92.5,1.73,1.73,0,0,1,.47.86,1.83,1.83,0,0,1-.55,1.6,1.66,1.66,0,0,1-1.94.19,1.83,1.83,0,0,1-.75-2.21,1.66,1.66,0,0,1,.85-.94"/><path class="cls-21" d="M207.27,94.43S211.11,92.06,213,92a9.38,9.38,0,0,1,7.22,3.37s-4.65-2.87-6.57-2.78S207.27,94.43,207.27,94.43Z"/><path class="cls-24" d="M200,111.16c3.49.25,9.18.23,9.18.23a9.42,9.42,0,0,1-18.31-1.33S196.49,110.91,200,111.16Z"/><path class="cls-25" d="M200,111.16c1.66.12,8.38.31,8.38.31s-2.49,3.7-8.5,3.27c-6.51-.48-8.15-4.42-8.15-4.42Z"/><path class="cls-26" d="M199.86,111.42c1.66.12,6.74.19,6.74.19s-2,1.78-6.94,1.42-6.43-2.34-6.43-2.34Z"/><path class="cls-24" d="M190.54,109.5a12.56,12.56,0,0,0,2,.36c1.38,0,2.27-.34,3.27-.35,1.71,0,2.74.77,3.48.82s1.87-.57,3.56-.31c1,.15,3.43.71,4.8.94a12.81,12.81,0,0,0,2-.08c.24.08-.37,2-9.67,1.27S190.29,109.55,190.54,109.5Z"/><path class="cls-6" d="M201.41,125.91a33.35,33.35,0,0,0,17.83-4.85s-4.34,8.11-17.88,7Z"/><path class="cls-21" d="M226.16,60c-1.71-1-3.86-1-5.85-.8A108.63,108.63,0,0,0,195,64.37c-.19,2,1.73,3.76,3.73,4.22s4.09,0,6.13-.18,4.3,0,5.83,1.31,2,3.9,3.6,5.43c2.68,2.63,7.61,1.51,10.28,4.15,2,2,1.86,5.24,2.74,8,1.71,5.34,7.13,6.82,12.47,5.11a8.58,8.58,0,0,0,1.27-.5c-3.88-9.38-7.48-17.3-11.36-26.68C228.88,63.21,228,61.12,226.16,60Z"/><path class="cls-21" d="M162.77,112.29a3.23,3.23,0,0,0,.24,2.12A2.91,2.91,0,0,0,164.9,116a3,3,0,0,0,2.94-1.14,2.8,2.8,0,0,0,.54-1.8,5.67,5.67,0,0,0-.54-2.05c-.57-1.35-1.61-2.77-1.66-4.61a6.64,6.64,0,0,1,2-5,7.67,7.67,0,0,1,2.42-1.6,11.22,11.22,0,0,1,2.9-.73,16,16,0,0,0,2.82-.58,3.88,3.88,0,0,0,2.07-1.6,4.6,4.6,0,0,0,.55-2.52,8.64,8.64,0,0,0-.47-2.52,19.52,19.52,0,0,1-1.22-4.75,7.35,7.35,0,0,1,1.06-4.17,9.4,9.4,0,0,1,2.46-2.53,19,19,0,0,0,2-1.7,5.77,5.77,0,0,0,1.15-1.88v.15a2.77,2.77,0,0,1-.12.41,4.22,4.22,0,0,1-.9,1.44,15.75,15.75,0,0,1-2,1.78,9.28,9.28,0,0,0-2.33,2.51,6.93,6.93,0,0,0-1,4,19.2,19.2,0,0,0,1.25,4.64,9.09,9.09,0,0,1,.51,2.63,5.15,5.15,0,0,1-.61,2.77,4.27,4.27,0,0,1-2.33,1.82,16.6,16.6,0,0,1-2.9.61,10.79,10.79,0,0,0-2.78.69,7.34,7.34,0,0,0-2.28,1.5,6.29,6.29,0,0,0-1.91,4.66c0,1.68,1,3.05,1.59,4.47a6,6,0,0,1,.54,2.2,3.12,3.12,0,0,1-.64,2,3.28,3.28,0,0,1-3.22,1.19,3.16,3.16,0,0,1-2.26-3.41A1.85,1.85,0,0,1,162.77,112.29Z"/><path class="cls-21" d="M251.44,101a1.62,1.62,0,0,0,0-.22.57.57,0,0,1,.11-.31c.66-2.78,2.17-6.33,2.33-9.65.22-4.66-7.28-9.61-7.28-9.61l-.78,16.16s6.08,8.81,5.5,6A6.25,6.25,0,0,1,251.44,101Z"/><path class="cls-2" d="M237.43,231.76c-2.64,2-1.84-1.65-4.78-2a9.11,9.11,0,0,1-2.27-.58,7.88,7.88,0,0,1-.92-1.23,16,16,0,0,1-1.62-3.7l-.06-1.65c-.12-4.13-2.13-4.24-1.06-8.37,1.36-5.21,4.21-21.46,5.56-26.67,4.47-17.35,5.12-30.82,21.1-42.43,5-3.62,1.15-5.38,4.67.05a14.69,14.69,0,0,1,1.89,10.8c-1.35,5.46-2.47,5.66-4.17,9.53-4.43,10,4.6,7.85,2.39,19.9-.54,3-2.19,10.91-3.26,13.65-1.44,3.69-5.72,19.31-7.56,22.85-2.05,3.94-2.22,4.81-5.17,8-3.31,3.61-11.62,4.71-5.63,1.46"/><path class="cls-3" d="M246.92,135.52a34,34,0,0,1,7.63,3.69c5.67,3.9,6.61,11.49,7.73,17.77,1.53,8.6,3,19.27.81,27.86-.5,1.93-28.82,3.15-33.65-5-1.38-2.31,5.36-25.18,8.71-36.19C239.58,139,227,127,234.49,130.23l1.31.77C239.24,133,243.13,134.15,246.92,135.52Z"/><path class="cls-17" d="M243.35,145.29c-13.49,7.37-15.15,35.43-15.15,35.43l-1.18-.8c.66-6.91,1.17-12.89,5.61-23.2C232.63,156.72,239.4,145.29,243.35,145.29Z"/><path class="cls-2" d="M239.72,219c-.23-2.15-1.36-5.11-3.42-5.76a103.89,103.89,0,0,0-19.05-4.07c-12-1.09-26.2-4.68-42.4-8.17-.89-.19.17,1.89-2.57.06-2.35-1.57-6.84,8.95-2.72,11.24,6.13,3.41,40.73,16.42,43.93,17.7a3.26,3.26,0,0,0,.44.15c5.19,1.53,11.53,6.46,22.62,2.85,6.06-2,10.66-13.89,10.38-16.55Z"/><path class="cls-2" d="M178,215c-.36-.09-5.58-1.72-8.81-1.59s-9.59-1.55-9.59-1.55-10-4.61-10.86-5.71-1-3.84-1-3.84a11.4,11.4,0,0,0-2.25-1.62c-2.12-1.37-1.41-4.25-1.41-4.25l3.35.78a92.86,92.86,0,0,1-9.33-2.49c-.82-.41-.63-.95-.18-1.49a3.94,3.94,0,0,1,2.88-1.23l17.64-.36a33.52,33.52,0,0,1-2.18-6.47,1.94,1.94,0,0,1,2-2.57c.61,0,4.6,4.86,4.6,4.86s8.16,4.82,9.59,6.2,8.6,9.17,8.6,9.17l3.26.78S178.37,215.05,178,215Z"/><path class="cls-27" d="M147.42,197.18a92.86,92.86,0,0,1-9.33-2.49c-.82-.41-.63-.95-.18-1.49a3.94,3.94,0,0,1,2.88-1.23l17.64-.36a33.52,33.52,0,0,1-2.18-6.47,1.94,1.94,0,0,1,2-2.57c.61,0,4.6,4.86,4.6,4.86s7.1,3.43,10.73,7.38"/><path class="cls-27" d="M159.61,211.82s-10-4.61-10.86-5.71-1-3.84-1-3.84a11.4,11.4,0,0,0-2.25-1.62"/><path class="cls-28" d="M158.43,191.61a33.52,33.52,0,0,1-2.18-6.47,1.94,1.94,0,0,1,2-2.57c.61,0,4.6,4.86,4.6,4.86a20.19,20.19,0,0,1,4.56,2.77"/><path class="cls-29" d="M137.91,193.2a3.94,3.94,0,0,1,2.88-1.23"/><path class="cls-29" d="M147.73,202.27a11.4,11.4,0,0,0-2.25-1.62c-2.12-1.37-1.41-4.25-1.41-4.25l3.35.78"/><path class="cls-6" d="M161.75,191.67a22.73,22.73,0,0,1,4.94.79,22,22,0,0,1-5-.23,39.15,39.15,0,0,1-4.95-.5A15.6,15.6,0,0,1,161.75,191.67Z"/><path class="cls-6" d="M151.82,198c-2-.23-3.84-.46-5.14-.69a6.84,6.84,0,0,1-2.1-.54,9.82,9.82,0,0,1,2.16.15c1.31.13,3.15.29,5.16.51,4,.43,7.25,1.21,7.19,1.39S155.84,198.42,151.82,198Z"/><path class="cls-6" d="M153.32,203.79a16.36,16.36,0,0,1-5.53-1.57c.07-.1,2.53.59,5.63,1.08s5.67.56,5.67.72A17,17,0,0,1,153.32,203.79Z"/><path class="cls-18" d="M233.35,183.22s-4.27-2-4.95-2.5-1.31-1-1.31-1l-.18,1.11s5.44,3.2,6.24,3.2Z"/><path class="cls-2" d="M108.68,188.5l2.58,6.87,2.67,6.77s11.83,1.88,14.79,1.07,10.23-3,10.23-3a4,4,0,0,0,.26,2.75,4,4,0,0,0,2.49,1.92l2.39-5.22c1.21,2.05,2.91.1,2.91.1l1.62-4.51c1.38,2.6,3.65.12,3.65.12l.39-6a9.32,9.32,0,0,0,3.05,1.94c1.44.42,1.52-2,1.52-2l-6.51-8.28-14.34-1.94-21.14,8.77Z"/><path class="cls-28" d="M139,200.23a4.08,4.08,0,0,0,.27,2.75,4,4,0,0,0,2.49,1.91l2.39-5.21c1.2,2,2.91.1,2.91.1l1.62-4.52c1.38,2.61,3.65.13,3.65.13l.39-6a9.19,9.19,0,0,0,3,1.93c1.44.42,1.52-1.95,1.52-1.95l-6.51-8.28"/><path class="cls-6" d="M142.12,181.74a19.64,19.64,0,0,1,2.73.53,33.35,33.35,0,0,1,3.26.94,15.37,15.37,0,0,1,3.11,1.43,2.12,2.12,0,0,1,1,1.27,8,8,0,0,1,.26,1.29,5.89,5.89,0,0,1,.13,2.54,23.9,23.9,0,0,1-.56-2.42c-.1-.38-.19-.82-.32-1.21a1.62,1.62,0,0,0-.83-.93,18,18,0,0,0-3-1.34c-1.11-.39-2.19-.68-3.2-1s-1.89-.54-2.63-.67a7.68,7.68,0,0,0-2.44.06A3.23,3.23,0,0,1,142.12,181.74Z"/><path class="cls-6" d="M140.58,187.19c1.45.3,3.49.49,5.71,1.08a4,4,0,0,1,1.64.72,5.13,5.13,0,0,1,.83,1.41,5.5,5.5,0,0,1,.61,2.63,9.47,9.47,0,0,1-.41,1.75,4.72,4.72,0,0,1-.21.61,2.15,2.15,0,0,1,0-.66,10.45,10.45,0,0,0,.2-1.71,5.29,5.29,0,0,0-.69-2.42,5.66,5.66,0,0,0-.73-1.2,3.8,3.8,0,0,0-1.37-.55c-2.15-.57-4.21-.85-5.64-1.26a6.34,6.34,0,0,1-2.26-.9A20.72,20.72,0,0,1,140.58,187.19Z"/><path class="cls-6" d="M144.42,198.06a3,3,0,0,0,0-1.74A2.12,2.12,0,0,0,143,195a6.92,6.92,0,0,0-2.22-.25l-1.92,0c-.49,0-.94-.07-1.22-.06a4.16,4.16,0,0,0-.44.08c-.05,0,.05-.23.39-.32a8.24,8.24,0,0,1,1.3-.16l1.93-.11a6.29,6.29,0,0,1,2.44.24,2.65,2.65,0,0,1,1.81,1.78,3.25,3.25,0,0,1-.18,2,3.71,3.71,0,0,1-1,1.51C143.82,199.67,144.17,199.06,144.42,198.06Z"/><path class="cls-6" d="M227.49,210.92s5.73,1.3,10,8C237.46,218.9,235,210.08,227.49,210.92Z"/></g></svg>