<?xml version="1.0" encoding="utf-8"?>
<!-- Generator: Adobe Illustrator 26.0.1, SVG Export Plug-In . SVG Version: 6.00 Build 0)  -->
<svg version="1.1" id="Layer_1" xmlns="http://www.w3.org/2000/svg" xmlns:xlink="http://www.w3.org/1999/xlink" x="0px" y="0px"
	 viewBox="0 0 637.3 635.8" style="enable-background:new 0 0 637.3 635.8;" xml:space="preserve">
<style type="text/css">
	.st0{fill:#C1E7F6;}
	.st1{fill:#A56D51;}
	.st2{fill:#42221A;}
	.st3{fill:#14110F;}
	.st4{fill:none;stroke:#000000;stroke-width:1.22;stroke-miterlimit:10;}
	.st5{fill:#24170E;}
	.st6{fill:#FFFFFF;}
	.st7{fill:#643B29;}
	.st8{fill:#DE8B26;}
	.st9{fill:#A15A25;}
	.st10{fill:#5E9FAE;}
	.st11{fill:#231F20;}
	.st12{fill:#465B65;}
	.st13{fill:#385456;}
	.st14{fill:#221E1F;}
	.st15{fill:#151212;}
	.st16{fill:#171413;}
	.st17{fill:#171514;}
	.st18{fill:#42221A;stroke:#542F24;stroke-width:1.1;stroke-miterlimit:10;}
	.st19{fill:#181615;}
	.st20{fill:#020303;}
	.st21{opacity:0.14;fill:#FFFFFF;enable-background:new    ;}
	.st22{fill:#31150D;}
	.st23{fill:#F0EDF6;}
</style>
<g id="Layer_1_00000112592396990810007210000007840098181407511455_">
	<circle class="st0" cx="319.1" cy="340.6" r="288.9"/>
	<path class="st1" d="M235.7,448.6l-56.2,13.5l15.1,107.5l5.8,34.3c16.5,7.6,33.8,13.5,51.5,17.5c0.5-17.7-10.2-57-10.6-72.2
		C239.8,496.6,235.7,448.6,235.7,448.6z"/>
	<path class="st1" d="M61.8,240.6c0,0,1,44.8-6.8,60.4c-1.9,3.8-14.5,19-14.5,19l53.8,39.9l97.6-14.5c0,0-51.9-27.4-52.8-32.3
		s3.5-37.6,3.5-37.6"/>
	<path class="st2" d="M159.1,272.8c-3.1,4.4-5.9,9-9.2,13.4c0,0.1-0.1,0.1-0.1,0.2c-0.2-0.2-0.6-0.2-0.8,0c0,0,0,0-0.1,0.1
		c-2.3,2.9-6.6,4.4-8.7,7.5c-1.8,2.7-0.8,6.3-1,9.6c-2.3,0.3-5.6,0.1-8.5,0.2c-19.9-0.7-19.4-3.9-46.4-19.9
		c-8.5-5-6.5-11.6-8.1-12.9C103.4,270.7,130.5,272.3,159.1,272.8z"/>
	<path class="st3" d="M38.1,204.8c0,0-3.6-12.3-7.7-41.6c-3.6-26.2,38-47.1,62.9-50.5c13.7-1.9,59.3,4.8,71,10.6
		s17.6,21.9,18.5,44.9c0,0-6.8-22.9-21.3-22.7c-11.9,0.2-50-6.4-60-2.4s-32.3,12.6-34,48.6c-0.4,9.8-17.7-0.9-22.6,4.9
		S38.1,204.8,38.1,204.8z"/>
	<path class="st1" d="M57,247.3l-3.2-35.4l-0.9-39.6L69,142.6l28.4-13.1l32,1.7c0,0,25.5,6.9,33.5,9.2s13.5,12.3,18.8,23.4
		s2.5,29.4,2.5,29.4c0.2,0.6-0.6,3.4-0.7,4c-1.8,7.3-2.4,13.8-3.8,19.2c-0.7,2.4-0.7,5,0,7.5c2.9,9.7,2.8,13.8,1.9,19.6
		c-1.2,8-2.9,14.8-5.9,21c-3.3,6.6-7.4,13.8-8.2,15.1c0,0-9.1,14.8-11.1,16.2c-1.8,1.4-3.9,2.3-6.2,2.9c-1.3,0.1-19,0.9-19,0.9
		l-8.2-0.4c-2.8-0.1-5.5-0.8-8-2c-6.8-3.2-26.2-12.8-31.5-16.7c-7.1-5.2-15.2-26.5-15.2-26.5"/>
	<path class="st3" d="M65.5,213.3c0.1,3.1-0.3,15.2-0.1,18.2l-15.8-0.7c-4.5-10.6-9.9-23.1-11.6-25.9c-2.7-4.5-2.6-25.8-2.5-33.8
		v-1.7c0-7.7,7.7-19.7,20.5-32.1c14.1-13.7,38.7-21,62.6-18.6c2.3,0.2,4.6,0.5,6.7,0.9c20.8,3.6,37.8,14.5,50.6,32.3
		c9.2,12.8,9.5,27.2,8.5,35.9c0-10.4-2.1-20.6-6.1-30.1c-5.4-11.9-12.6-15.5-17.8-16.4c-2.8-0.5-5.8-0.3-8.5,0.6
		c-5.1,1-12.5,0.1-17.8-0.8c-4-0.7-7.1-1.5-8-1.7c-2.6-1.9-6.6-3.4-11.6-4.3c-11.4-2-28.1-0.4-31.7,4.5c-4,5.5-13.1,25.2-13.3,29.9"
		/>
	<path class="st1" d="M58.5,248.1c-9.6,9.1-15-9.2-15-9.2c-8.5-11.1-8-22.5-7.4-30.3s9.2-7.3,9.2-7.3c7.3,1.1,10.4,5.1,15.5,30"/>
	<path class="st3" d="M176.3,148.9c-5-8.7-15-19.8-20.6-28.2c-2.8-0.4-16.7-1.2-19.6-1.4c-29.6-2.3-70.1,13.4-74.3,24
		c-2.6,6.6-2.3,43.4-1.2,46.8c3.2,9.3,4.2,21.3,4.2,21.3c1.7-13.7,12.1-28.7,13.5-33.4s-4.1-27.3-2.5-28.2s29-8.2,59.2-6.6
		c8.6,0.5,17.2,1.5,25.8,2.9C160.8,146.1,176.3,149,176.3,148.9z"/>
	<path class="st3" d="M112.8,204.1c-1.7-0.8-3.7-0.5-5.2,0.7c-0.7,0.5-1.2,1.3-1.5,2.1c-0.4,1.5-0.1,3.1,0.9,4.4
		c1.3,1.4,3.3,1.9,5,1.1c2.1-1,3.2-3.3,2.7-5.5C114.4,205.7,113.8,204.7,112.8,204.1"/>
	<path class="st3" d="M166.9,207.3c1.8-0.7,3.8-0.2,5.1,1.2c0.6,0.6,1.1,1.4,1.3,2.2c0.3,1.5-0.2,3.1-1.3,4.2
		c-1.4,1.3-3.4,1.5-5.1,0.6c-2-1.2-2.9-3.6-2.1-5.8C165.1,208.7,165.9,207.8,166.9,207.3"/>
	<path class="st3" d="M153.4,213.7c0,0,7.6-7,13-7.2c7.8-0.4,9.8,1.5,12.3,5.2c0,0-4.9-4-10.4-3.6
		C163,208.5,153.4,213.7,153.4,213.7z"/>
	<path class="st3" d="M128.9,210.2c0,0-10.7-7.2-16.1-7.5c-7.8-0.4-17.3,3.9-19.9,7.6c0,0,12.5-6.4,18-6
		C116.1,204.7,128.9,210.2,128.9,210.2z"/>
	<path class="st3" d="M126.6,177.9c0.5,1.8,1,3.6,1.5,5.4c0.4,1.4,1.4,4.5,1.7,5.8c-4.7,0.1-9.1-0.5-12.1-0.2
		c-5.9,0.6-12,0.9-17.5,3.3c-2.5,1.1-4.8,2.6-6.7,4.6c-0.6,0.6-2,3.1-3.2,2.9c-0.5-0.1-0.4-2.5-0.4-2.7c0.2-4.9,3.5-7.8,7.9-10.2
		C106.9,181.9,116.5,179.4,126.6,177.9"/>
	<path class="st3" d="M184.1,194.4l-2.5-2c-7-5.6-15-8.9-23.5-11.3c-0.8,1.7-0.8,3.3-1.6,5.1c-0.6,1.3-0.8,3.7-1.4,5
		c4.1,0.5,6.2,0.6,8.7,1.2c5,1.1,10.4,2.3,14.7,5.2c0.3,0.2,3.9,2.2,4.2,2.5C184.3,198.5,184.8,196.3,184.1,194.4z"/>
	<path d="M147.7,244.1c-2.7,1.1-5.7,0.7-8.1-0.9c-0.5-0.3-2.2-0.1-1.5,0.4c3.3,2.1,7.4,2.4,11,1c0.3-0.1,0.3-0.4-0.1-0.5
		C148.6,243.9,148.2,243.9,147.7,244.1"/>
	<path d="M137.2,242.9c-1.5-0.8-3.2-1.3-4.9-1.5c-0.3,0-0.5,0-0.8,0.2c-0.1,0.1-0.2,0.3,0,0.4c0.8,0.5,1.8,0.8,2.7,0.8
		c0.3,0,0.6-0.1,0.9-0.3c0.2-0.2-0.1-0.4-0.3-0.4c-0.8,0-1.5-0.2-2.2-0.6l-0.8,0.6c1.5,0.2,3,0.6,4.4,1.4c0.3,0.1,0.6,0.1,0.9-0.1
		C137.3,243.3,137.5,243,137.2,242.9"/>
	<path d="M130.3,242.8c-2-0.1-4.3-1.1-5.2-2.7c-1.4-2.4,0.2-6,2.8-7.4c0.3-0.1,0.1-0.4-0.1-0.4c-0.4-0.1-0.8,0-1.1,0.2
		c-2.3,1.3-3.7,3.7-3.6,6.4c0.2,2.1,2.1,3.6,4.4,4.3c0.7,0.2,1.5,0.4,2.2,0.4c0.3,0,0.9,0,1-0.3S130.6,242.8,130.3,242.8"/>
	<path d="M151.5,243.2c-0.1-0.1,0-0.3,0.1-0.4c0,0,0.1,0,0.1,0c0.6,0,1.1-0.1,1.6-0.4l0.5,0.7c-1.1,0.1-2.2,0.4-3.2,1
		c-0.2,0.1-0.4,0.1-0.6-0.1c-0.1-0.1-0.2-0.4,0-0.5"/>
	<path d="M149.9,243.4c1.1-0.7,2.3-1,3.6-1.1c0.2,0,0.4,0.1,0.5,0.3c0.1,0.1,0.1,0.3,0,0.4"/>
	<path d="M155.6,243.7c1.5,0,2.9-0.9,3.6-2.3c1-2.3,0.5-4.9-1.3-6.7c-0.1-0.1-0.1-0.3,0-0.4c0,0,0.1-0.1,0.1-0.1
		c0.3,0,0.5,0.1,0.7,0.3c1.5,1.5,2.2,3.6,1.9,5.7c-0.2,1.8-1.5,3.4-3.2,3.9c-0.5,0.2-1,0.2-1.5,0.2c-0.3,0-0.5-0.1-0.6-0.4
		C155.3,243.8,155.4,243.7,155.6,243.7"/>
	<path class="st4" d="M53.2,224.6c-6.6-15.9-11.4-16-11.4-16s-3.2,3.6-1.7,11"/>
	<path class="st4" d="M50.8,226.1c-4.3-0.5-1,7.6-2.2,9.4s-2.7-3.1-3.2-9.2c0,0,0-8.2,4.1-9.6"/>
	<path class="st5" d="M145.2,255c-7-0.3-22.8,3.4-26,5.9c0,0,7.8,5.9,24.1,6.5s19.2-4.8,19.2-4.8S154.2,255.3,145.2,255z"/>
	<path class="st6" d="M126,258.2c0,0,8.4-0.3,15.1,0s15,1.3,15,1.3s1.3-4.9-10.8-5.4S126,258.2,126,258.2z"/>
	<path class="st7" d="M143.5,265.2c-7.6-1.4-15.3-4.5-24.2-4.3c0,0,2.1,10.3,21.3,11.1s22.1-9.3,22.1-9.3
		C153.7,261.8,151.2,264.5,143.5,265.2z"/>
	<path class="st7" d="M153.7,251.5c-4-0.5-6.6,1-8.4,0.9s-4.2-1.7-8.3-1.6c-3.8,0.1-20.1,8.7-18.4,9.9s14.4-5,26.5-4.5
		s16.2,7.4,18,6.3S157.5,251.9,153.7,251.5z"/>
	<path class="st8" d="M221,350.1c-13.6-9.3-82.1-37.3-82.1-37.3s-17.2,23.3-43.3,14.6c-16.5-5.9-31.6-15.4-44-27.9
		c0,0-8.4,3.6-19.8,8.2c-3.1,30.7-1.9,61.7,3.8,92c19.8,94.9,86.1,172.6,174,208.4c-0.3-2.7-0.8-5.4-1.4-8.1
		c-3.5-12.3-7.9-24.4-13.2-36.1l-4.3-87.3l68-11.2C258.8,465.5,234.6,359.4,221,350.1z"/>
	<polygon class="st9" points="191.9,477.5 202,386.2 196.9,477.5 	"/>
	<path class="st10" d="M553.2,234c0,0,73.3,22.3,73.1,74.7c0,15.9-10.5,140.9-47.1,234c-5.3,13.5-17.8,39.2-31.5,44
		c-17.7,6.3-88.4-0.2-115.6-5.9L553.2,234z"/>
	<path class="st10" d="M576.9,348.7c0-39.5-8-78.5-23.7-114.7c-12.8-4-25.5-8-26.1-8.1l-1.9-0.3c-0.2,0.2-1.6,0.4-5.8,0.3
		c-30.9,11.1-43.3,11.6-75,2.9c-4.6,0.7-8.1,3.4-11.9,5.7c-4.2,2.6-9.1,4.3-13.5,6.4c-9.6,4.5-25.7,6.1-35.2,10.9
		c-12.7,6.4-20.8,13.5-30.9,23.6c-7,6.9-15.2,15.6-12.8,27.6s10.7,12.8,18.1,22.1l4.1,107.4c0,0-3.1,122-4.3,193.6
		C529.2,598.8,576.9,484.5,576.9,348.7z"/>
	<path class="st10" d="M241,398.2c0,0-28.2,9.1-37,23.8s-5.1,37,1.9,48.5s21.1,21.1,35,20.3s-0.4-80.5-0.4-80.5L241,398.2z"/>
	<path class="st1" d="M225.1,587.3l4.7,9.2c0,0,31.6,14.9,40.6,12.3s20.3-39.1,20.3-39.1l61.5,7.3l10.7-69.7L278.6,518
		c-9.7,1.2-18.6,6.1-24.9,13.7L241.1,543l-12.1,10.8C221.1,563.2,219.6,576.4,225.1,587.3L225.1,587.3z"/>
	<polygon class="st11" points="300,513.3 307.4,573.1 317,572.2 313,510.8 	"/>
	<path class="st11" d="M293.7,540.4c0-9.3,7.5-16.8,16.8-16.7s16.8,7.5,16.7,16.8c0,9.3-7.5,16.8-16.8,16.7
		C301.2,557.2,293.7,549.7,293.7,540.4L293.7,540.4z"/>
	<path class="st6" d="M310.3,526.4L310.3,526.4c6.9,0,12.5,5.6,12.5,12.5c0,6.9-5.6,12.5-12.5,12.5s-12.5-5.6-12.5-12.5
		C297.9,532,303.5,526.4,310.3,526.4z"/>
	<path class="st12" d="M311.4,550.7c3.3-0.4,6.4-1.7,9-3.7c-2.1,2.9-5.4,4.7-9,4.7c-3.5,0.4-7.1-0.8-9.6-3.3
		C304.7,550,308,550.8,311.4,550.7z"/>
	<path class="st11" d="M316.3,537.8L316.3,537.8l-1.3,1.7c-1.3-3.2-2-6.6-1.8-10c0.4-0.5,2.4,3.6,4.2,9.2l0.7,1.6h-1.8
		c-5.8,0-10.4-0.5-10.4-1.2S310.6,537.7,316.3,537.8z"/>
	<path class="st10" d="M413.2,352.9c-45.2,51.2-65.4,80.4-122,115.9c-8.8,6.2-28.8,27.1-39.5,28.3c-18.6,1-24.5,4.7-38.9-10
		c-12.8-13-14.1-33.9-9.6-41.7c45.5-77.5,99.8-101.5,144.7-163.9"/>
	<path class="st13" d="M538.8,342.6c-5.8,25-9.4,46.2-16.1,75l-16.2,70l-0.2,1h-1C491.2,488.4,379.4,502,363,505
		c76.4-14,127.1-18.7,141.3-18.9l17-73.6l16.3-74.9c1.9-7.8,4-17.1,7.1-28.1c0,0,7.7-33.6,23.3-39.1c0,0-11.1,7.3-18.3,27.6
		C545.2,310.5,538.8,342.6,538.8,342.6z"/>
	<path class="st13" d="M228.9,402.5c6.1-1.2,12.3-0.8,18.2,1.2c6.1,2.1,11.7,5.6,16.1,10.3c2,1.9,3.5,4.1,4.5,6.7
		c-2-1.7-3.9-3.5-5.7-5.4c-4.5-4.1-9.8-7.2-15.6-9.2c-5.5-1.8-11.3-2.5-17-1.9c-2.4,0.5-4.8,0.9-7.2,1.1
		C224.2,403.8,226.5,402.8,228.9,402.5z"/>
	<path class="st13" d="M357.1,360.7c-2-33-3.2-59.8-2.4-59.9s3,26.7,5,59.7s3.2,59.9,2.4,59.9S359.1,393.7,357.1,360.7z"/>
	<path class="st1" d="M302.9,498c2.1,2.2,4.6,3.8,7.4,4.8c0.4,0.2,0.8,0.2,1.2,0.2c0.4-0.1,0.7-0.2,1-0.4c3.6-2.4,2.1-6.6,0.9-9.9
		c-2.2-6.3-6.5-12-10-17.6c-3.4-5.3-6.8-10.7-10.3-16c-4.2-6.4-8.5-12.8-12.8-19.1c0,0,0,0,0,0c-2-3.4-4.6-6.3-7.6-8.9
		c-2.2-1.6-13.2-6.8-23.2-11.3c-1.3-0.6-2.7-1.2-4.1-1.7c-4.7-0.6-9.3-1.4-14,0.2c-4.4,1.5-7.9,4.5-11.2,7.8
		c-5.6,5.6-11.2,11.9-14.3,19.3c-1.4,3-1.9,6.2-1.7,9.5l1.8,0.6c1.7,3.2,3.3,6.6,4.7,10c1.8,4.8,25.3,21.8,25.3,21.8s7.4,3.5,12,3.3
		s7.3-5.3,7.3-5.3s5.1,1.1,8.1,0.1s6.8-5.5,6.8-5.5s2.1,2.9,7.7,0.7c3.1-1,5.2-3.9,5.2-7.1c2.4,2.7,4.8,5.4,7.1,8.2
		c2.1,2.5,4.2,5.1,6.2,7.7c1,1.3,2.1,2.5,3,3.8s1.5,2.6,2.5,3.8C302.2,497.3,302.5,497.6,302.9,498z"/>
	<polygon class="st10" points="339.1,508.2 325.2,576 360,580.9 370.7,503.9 	"/>
	<path class="st13" d="M471,586.4c-1.6-0.8-20.8,0.5-42.9-0.9c-28.3-1.9-48.2-3.7-69.2-4.6v1.1c21.2,1.2,39.9,3.4,68.6,5.2
		c19,1.2,30.1,0.6,41.2,0.6"/>
	<path class="st1" d="M437.6,253c2.7,3.4,6,6.3,9.7,8.5c4.7,2.5,9.9,4,15.2,4.5l6,0.4c4.2,0.3,8.5,0,12.6-0.8l10.3-2
		c1.9-0.5,3.8-1.2,5.6-1.9c14.8-6.1,27.9-16.7,32.2-31.2c-14.4-22.4-8.1-65.8-8.1-65.8l-90.8,29.6c0,0-0.5,38.4,4.9,38.5
		c5.7,0.1-0.8,11-1.2,11.4C434.4,248.1,435,250,437.6,253z"/>
	<path class="st1" d="M459,227.8l-30.1,0.9l-15.3-2.4c-1.5,0.1-9.2-14.9-10.4-16.7c-3.6-5.9-8.4-13.5-10.8-20
		c-2.6-6.9-7.5-12.8-9.1-21.2c-1.2-6.2-1.5-10.5,1.1-20.9c0.7-2.6,0.6-5.4-0.3-7.9c-1.7-5.7-2.7-12.5-4.9-20.2
		c-0.2-0.6-1.1-3.5-0.9-4.2c0,0-3.6-32.5,1.5-44.6s13.5-18,22-20.8s33.9-3,33.9-3l34.1-11.3l31.3,16.6l17.5,35.1l0.7,42.1l-1.9,37.8
		"/>
	<path class="st3" d="M510.9,127.7c0,3.3-2.9,19.7-3.1,22.9l16.7-1.4c4.3-11.4,9.5-24.9,11.2-28c2.7-4.8-2.7-27.9-3.1-36.4l-0.1-1.8
		c-0.3-8.2-9-20.6-23.1-33.2c-26.3-23.5-24.7-22-62.9-16.7c-2.4,0.3-4.8,0.8-7.1,1.2c-21.9,4.7-44.1,8-57,27.5
		c-9.3,14-5.3,4.3-3.9,13.6c-0.6-18.4,3.3-13.1,5.1-15.4c10.3-13.3,16.6-0.2,22-1.4c3-0.7,6.1-0.6,9,0.3c5.5,0.8,10.6-0.2,16.2-1.4
		c4.2-0.9,14.7-4,15.6-4.3c2.7-2.2-0.5-13,4.7-14.1c12.1-2.6,29.2-3.5,35.1,4c4.7,6,24.2,8.7,23.1,27.5"/>
	<path class="st3" d="M418.3,223c0.2,0,0.4-0.1,0.6-0.2c3-2.3,3.2-3.6,4.8-4c0.5-0.2,1.1-0.4,1.6-0.5c4.5-0.9,7.2-1.6,19.8,5.2
		c0.2,0.1,16-3,16.3-3l7.9-4.4c1.3-0.9,30.2-28.8,30.2-28.8c0.4-0.9,5.5-7.4,5.7-8.2l0.3-0.2l0.2-0.1c0,0.1,0,0.1,0,0.2
		c0.1,0.4,0.1,0.7,0.1,1.1c0,1.6-0.2,3.1-0.5,4.6c-0.5,2.3-0.8,4.7-1.3,7c-0.2,0.8-0.4,1.6-0.6,2.4c-3.3,2.4-23.6,31.9-35.9,39.1
		c-3.3,1.1-6.7,1.8-10.2,2.2c-12.9,2-25.4,2.8-38.4,0c-3.4-0.7-6.2-2.9-7.8-5.9c-4.4-8.6-15.5-26.8-18.5-39.8
		c4.1,7.4,13.9,22.4,19.8,33.2c0.2,0.3,5.1,0.3,5.5,0.4"/>
	<path class="st1" d="M515.7,172.4c13.5,11.4,15.6-10.4,15.6-10.4c8.5-12.1,7.6-24.2,6.6-32.4s-10.1-7.4-10.1-7.4
		c-7.7,1.5-10.8,5.9-15.2,32.5"/>
	<path class="st3" d="M535.8,121.1c0,0,6.6-27.8-1.3-54.8S496.4,28.4,481.8,27s-65.9,7.6-78.1,14.2s-29.9,11.1-25.8,43.5
		c0,0-3.2-31.1,32.3-34c12.6-1,45-11.8,62-14c7-0.9,31.6,15.1,34.9,18.9c7.6,8.7-7.2,30.7,6.7,59c4.6,9.3,9.1-7.8,14.6-1.8
		S535.8,121.1,535.8,121.1z"/>
	<path class="st14" d="M519.7,149.5c1.6-4.7,3.8-9.2,6.5-13.3c1-1.6,2.4-2.9,4-3.9l0.3-0.1c-0.2,0.1,0,0,0.1,0s0,0,0,0l-0.5-0.2
		c0.7,0.8,1.3,1.8,1.6,2.8c1,2.8,1.2,5.8,0.6,8.8c-0.1,0.6,1.2,0.4,1.3-0.1c0.7-3.5,0.3-7.1-1.2-10.3c-0.4-0.8-0.9-2.1-2-1.9
		c-0.8,0.2-1.5,0.6-2.1,1.1c-1.6,1.3-2.9,2.8-3.9,4.6c-2.4,3.9-4.4,8.1-5.9,12.4C518.2,150.1,519.5,150.1,519.7,149.5L519.7,149.5z"
		/>
	<path class="st14" d="M521.8,151.4c2.7-0.3,2,4,1.9,5.6c-0.1,1.2-0.7,5,1.5,4.9c1.1,0,1.6-1.2,1.9-2.1c0.6-1.9,1-3.9,1.1-5.9
		c0.3-2.2,0.2-4.4-0.3-6.6c-0.6-2.7-1.8-6-4.7-7c-0.6-0.2-1.5,0.6-0.8,0.9c2.4,0.8,3.4,3.7,4,5.9c0.4,1.7,0.6,3.5,0.5,5.2
		c-0.1,2.1-0.4,4.1-0.8,6.1c-0.1,0.6-0.4,1.3-0.6,1.9c-0.1,0.1-0.3,0.4-0.3,0.6l0,0c-0.1,0.1,0,0.1,0.3,0c0-0.1-0.2-0.1-0.2-0.2
		c-0.5-2-0.1-4-0.1-6.1s-0.5-4.5-3.2-4.2C521.2,150.5,521,151.5,521.8,151.4L521.8,151.4z"/>
	<path class="st3" d="M450.8,129.1c1.8-0.9,3.9-0.7,5.5,0.5c0.8,0.5,1.4,1.3,1.7,2.2c0.5,1.6,0.2,3.3-0.8,4.7
		c-1.3,1.5-3.4,2.1-5.3,1.4c-2.2-1-3.5-3.4-3-5.8C449.2,130.9,449.9,129.8,450.8,129.1"/>
	<path class="st3" d="M395.4,134.3c-1.9-0.6-4-0.1-5.4,1.4c-0.6,0.7-1.1,1.5-1.3,2.4c-0.3,1.7,0.3,3.3,1.6,4.5
		c1.5,1.3,3.7,1.5,5.4,0.5c2.1-1.3,2.9-3.9,2-6.2C397.3,135.7,396.5,134.8,395.4,134.3"/>
	<path class="st3" d="M412,140.2c0,0-8.4-7.1-14.1-7.1c-8.3-0.1-10.3,2-12.9,6c0,0,5.1-4.4,10.9-4.2
		C401.5,135.1,412,140.2,412,140.2z"/>
	<path class="st3" d="M438.7,135.9c0,0,11-8.3,16.6-8.9c8.3-0.9,18.6,3.1,21.6,6.9c0,0-13.6-6.1-19.5-5.3
		C451.9,129.3,438.7,135.9,438.7,135.9z"/>
	<path class="st3" d="M435.3,110.4c0.2,2,0.4,3.9,0.5,5.9c0.1,1.5,0.4,5,0.5,6.4c4.6-1.7,8.7-4,11.8-4.8c6-1.6,12.1-3.7,18.3-3.3
		c2.9,0.1,5.7,0.8,8.2,2c0.8,0.4,3.1,2.3,4.2,1.7c0.5-0.3-0.5-2.6-0.6-2.9c-2-4.8-6.4-6.4-11.6-7.1
		C456.1,106.9,445.7,108.1,435.3,110.4"/>
	<path class="st3" d="M378.8,117.2l3.4-1.1c9.3-3.1,18.9-3.7,28.7-3.1c0.2,2,0.3,4,0.5,5.9c0.1,1.5,0.4,4.2,0.5,5.7
		c-4.5-0.9-8.4-2.1-11.2-2.4c-5.7-0.6-11.7-1.4-17.2,0c-0.4,0.1-2.8,0.8-3.2,0.9C378.1,120.6,378,117.7,378.8,117.2z"/>
	<path class="st3" d="M441.1,201.1l-22.4,1.7c0,0,5.8,5.6,11.2,5.2C433.2,207.6,437.8,204.7,441.1,201.1z"/>
	<path d="M421.2,172.1c2.9,1,6.1,0.5,8.5-1.3c0.5-0.4,2.4-0.2,1.6,0.3c-3.4,2.3-7.7,2.9-11.6,1.6c-0.3-0.1-0.3-0.4,0.1-0.6
		C420.2,171.9,420.7,171.9,421.2,172.1"/>
	<path d="M432.3,170.3c1.6-0.9,3.4-1.5,5.2-1.8c0.3,0,0.6,0,0.8,0.2c0.2,0.1,0.2,0.3,0,0.4c-0.8,0.6-1.8,0.9-2.9,0.9
		c-0.3,0.1-0.7,0-0.9-0.3c-0.2-0.2,0.1-0.4,0.3-0.4c0.8,0,1.6-0.3,2.3-0.8l0.9,0.6c-1.6,0.3-3.2,0.8-4.6,1.6c-0.3,0.2-0.7,0.2-1,0
		C432.2,170.8,432,170.5,432.3,170.3"/>
	<path d="M439.6,169.9c2.1-0.2,4.6-1.4,5.5-3.1c1.4-2.6-0.4-6.3-3.2-7.7c-0.3-0.1-0.2-0.4,0.1-0.5c0.4-0.1,0.8,0,1.2,0.1
		c2.5,1.3,4,3.8,4.1,6.6c-0.1,2.2-2.1,3.9-4.6,4.8c-0.8,0.3-1.5,0.4-2.3,0.5c-0.3,0-0.9,0-1.1-0.3S439.3,169.9,439.6,169.9"/>
	<path d="M417.2,171.3c0.1-0.2,0-0.3-0.2-0.4c0,0-0.1,0-0.1,0c-0.6,0.1-1.2-0.1-1.7-0.4l-0.5,0.8c1.2,0,2.4,0.3,3.5,0.9
		c0.2,0.1,0.5,0,0.7-0.2c0.1-0.1,0.2-0.4,0-0.5"/>
	<path d="M418.8,171.5c-1.2-0.6-2.5-1-3.9-1c-0.2,0-0.4,0.1-0.5,0.3c-0.1,0.1-0.1,0.3,0,0.4c0,0,0,0,0,0"/>
	<path d="M412.8,172c-1.6,0-3.2-0.9-3.9-2.3c-1.1-2.4-0.7-5.2,1.1-7.2c0.1-0.1,0.1-0.3,0-0.4c0,0-0.1-0.1-0.2-0.1
		c-0.3,0-0.5,0.1-0.7,0.3c-1.5,1.7-2.1,3.9-1.8,6.2c0.3,1.9,1.7,3.5,3.6,4.1c0.5,0.1,1,0.2,1.6,0.2c0.2,0,0.6-0.1,0.7-0.4
		S413,172,412.8,172"/>
	<path class="st3" d="M457.7,180.3c1.4,1,2.8,2.2,3,3.9c0.1,0.6,0,1.2-0.1,1.8l-0.4,2.8c0,0.2-0.1,0.4-0.2,0.5
		c-0.1,0.2-0.3,0.3-0.5,0.3c-0.6,0.3-1.3,0.4-1.9,0.4c-0.7,0-1.2-0.5-1.4-1.2c0-0.3,0-0.5-0.1-0.8c-0.2-0.5-0.9-0.4-1.4-0.4
		c-1.3-0.2-1.7-1.9-2.3-3c-1-1.5-2.6-2.6-4.3-2.9c-0.9-0.2-1.8-0.4-2.6-0.8c-0.9-0.4-1.4-1.1-1.6-2.1"/>
	<path class="st3" d="M401.1,184c-1.2,1.2-2.4,2.6-2.4,4.3c0,0.6,0.2,1.2,0.4,1.8l0.8,2.7c0,0.2,0.1,0.4,0.3,0.5
		c0.2,0.1,0.4,0.2,0.6,0.2c0.7,0.2,1.3,0.2,2,0c0.7-0.2,1.1-0.7,1.2-1.4c0-0.3,0-0.5,0-0.8c0.2-0.5,0.9-0.5,1.4-0.7
		c1.2-0.4,1.4-2.1,1.8-3.3c0.7-1.7,2.1-2.9,3.8-3.6c0.9-0.3,1.7-0.7,2.5-1.2c0.8-0.5,1.2-1.4,1.2-2.3"/>
	<path class="st3" d="M403.7,56.4c1.1-0.8,2.3-1.3,3.6-1.5l1.4-0.5c4.2-0.3,8.5-0.5,12.7-0.6c1.1-0.1,2.1,0,3.1,0.3
		c0.1,0,0.2,0.1,0.3,0.1c3.1-0.3,6.3-0.6,9.4-0.8l1.5,0.3c1.3,0,2.6,0.3,3.8,0.8c0.6,0.3,0.9,1,0.6,1.6c-0.1,0.3-0.4,0.6-0.8,0.7
		c-1.3,0.5-3.2-0.1-4,0.7s1,1.9,0.5,2.9c-0.3,0.6-1.5,0.9-2.2,1.4s-1.1,1.4-1.9,2c-1,0.6-2.2,0.9-3.3,0.7c-1.2,0.2-2.8-0.2-3.1,0.6
		c-0.1,0.2-0.1,0.5,0,0.7c0,1-0.7,2-1.6,2.3c-1.1,0.4-2.4,0.3-3.4-0.2c-0.9-0.6-1.2-1.5-2.2-2c-0.3-0.2-0.7-0.3-1-0.4
		c-0.3,0.3-0.7,0.6-1.1,0.7c-1.1,0.4-2.4,0.3-3.4-0.2c-0.9-0.6-1.2-1.5-2.2-2c-0.8-0.4-1.9-0.6-2.3-1.2c-0.7-1.1,1.1-2.6,0-3.4
		s-2.8,0.2-4.1-0.2c-0.8-0.3-1.2-1.1-0.9-1.9C403.3,56.8,403.5,56.6,403.7,56.4z"/>
	<path class="st3" d="M443,225.4c-0.9,0.6-1.9,0.9-3,1l-1.2,0.4c-3.4,0-6.9-0.1-10.3-0.3c-0.9,0-1.7-0.2-2.5-0.5
		c-0.1,0-0.2-0.1-0.2-0.1c-2.5,0.1-5.1,0.1-7.6,0.1l-1.2-0.3c-1.1-0.1-2.1-0.4-3-0.9c-0.5-0.3-0.7-0.9-0.4-1.4
		c0.1-0.3,0.4-0.4,0.7-0.5c1-0.3,2.6,0.3,3.3-0.3s-0.7-1.6-0.2-2.4c0.3-0.5,1.2-0.6,1.8-1s1-1.1,1.6-1.5c0.8-0.5,1.8-0.6,2.7-0.3
		c1-0.1,2.2,0.4,2.6-0.3c0-0.2,0-0.4,0-0.6c0.1-0.8,0.7-1.6,1.5-1.7c0.9-0.3,1.9-0.1,2.7,0.4c0.7,0.5,0.9,1.3,1.6,1.8
		c0.2,0.1,0.5,0.3,0.8,0.4c0.3-0.2,0.6-0.4,0.9-0.5c0.9-0.3,1.9-0.1,2.7,0.4c0.7,0.5,0.9,1.3,1.6,1.8s1.5,0.6,1.8,1.1
		c0.5,0.9-1.1,2-0.3,2.8s2.3,0.1,3.3,0.4c0.6,0.2,1,0.9,0.8,1.5C443.4,225.1,443.2,225.3,443,225.4z"/>
	<path class="st15" d="M534.2,123c1.3,0,2.6-0.4,3.7-1c1.2-0.7,1.7-2.1,1.2-3.3c-0.9-1.8-4.4-2-4.2-4c1.6-2.1,5.6-1.5,6.4-4
		c0.7-2-1.5-3.7-3.4-4.7c1.2-1.3,0.9-0.2,2.6-0.7s2.4-4.7,1.4-6.1c-1.2-1.6-1.7-0.2-1.2-2.1c1.3-0.5-1.7-1.5-0.7-2.5
		c1.1-1,1.3-2.6,0.6-3.9c-1-1.4-3.4-1.8-3.5-3.5c0-1.5,1.8-2.2,2.6-3.4c1.5-2.2-0.8-5-2.8-6.6c1.2-0.8,2.2-1.8,2.9-2.9
		c0.8-1.2,0.7-2.8-0.3-3.9c-0.7-0.5-1.4-1-2.2-1.4c-2.9-2.1-1.4-6.5,0.3-9.6c-2.5,0.3-4.9-1.4-5.5-3.9c-0.2-1.1,0-2.4-0.5-3.4
		s-2.1-1.7-2.8-0.8"/>
	<path class="st3" d="M534.1,124.2c2.8-0.3,7.2-1.4,6.8-5.2c-0.2-1.2-1-2.2-2.1-2.7c-0.5-0.3-1-0.5-1.5-0.9
		c-0.2-0.1-0.4-0.3-0.6-0.5s0.1-0.5-0.3,0c0.6-0.7,2-0.9,2.8-1.2c1.2-0.3,2.3-1,3.1-1.9c2.2-2.8-0.8-5.5-3.2-6.8l0.1,1.5
		c0.6-0.6-1.4-0.1-0.5,0.1c0.3,0.1,0.5,0.1,0.8,0.1c0.7,0,1.4-0.2,2.1-0.5c1.1-0.7,1.9-1.9,2.1-3.2c0.4-1.2,0.3-2.5,0-3.8
		c-0.3-0.6-0.7-1.2-1.2-1.6c-0.2-0.2-0.4-0.3-0.6-0.3c-0.4-0.2-0.2,0,0.3,0.6c0-0.2,0.1-0.4,0.1-0.5l-0.8,0.8c0.9-0.4,1.6-1.3,1-2.3
		c-0.2-0.3-0.4-0.6-0.8-0.8c-0.1-0.1-0.2-0.2-0.2-0.3c-0.1-0.1-0.1,0-0.1,0.3c0.1-0.1,0.2-0.3,0.3-0.4c0.8-1.1,1.1-2.5,0.8-3.8
		c-0.5-1.2-1.4-2.1-2.5-2.7c-0.9-0.6-1.7-1.1-0.8-2.1s1.9-1.5,2.3-2.7c1.1-2.8-1.5-5.5-3.5-7.2l-0.2,1.7c1.6-1.2,3.2-2.5,3.8-4.5
		c0.6-1.8-0.2-3.8-1.8-4.7c-0.8-0.3-1.6-0.9-2.1-1.6c-0.4-0.7-0.5-1.5-0.4-2.3c0.2-1.8,0.8-3.6,1.8-5.2c0.5-0.9-0.7-1.5-1.4-1.4
		c-1.2,0.1-2.5-0.4-3.2-1.4c-1-1.3-0.8-2.8-1.1-4.2c-0.3-1.9-2.1-3.1-4-2.7c-0.7,0.1-1.4,0.5-1.9,1.1c-0.4,0.4-0.3,1,0.1,1.4
		c0.1,0.1,0.2,0.2,0.3,0.2c0.8,0.3,1.7,0,2.2-0.6c-0.7,0.1-0.9,0.2-0.6,0.3c0.1,0,0.1,0.1,0.2,0.1c0.1,0.2,0.3,0.4,0.4,0.7
		c0.2,0.7,0.3,1.4,0.3,2.2c0.1,1.1,0.5,2.2,1.2,3.1c1.4,1.8,3.6,2.7,5.9,2.4l-1.4-1.4c-1.4,2.7-3,6.5-1.2,9.4
		c0.4,0.6,0.9,1.2,1.6,1.6c0.8,0.5,1.9,0.8,2.1,1.8c0.5,2-1.5,3.4-2.8,4.4c-0.5,0.2-0.7,0.8-0.5,1.3c0.1,0.1,0.2,0.3,0.3,0.4
		c1.2,1,2.7,2.4,2.9,4s-1.4,2.1-2.2,3.1c-0.9,1-1.1,2.4-0.3,3.6c0.8,1.1,2.3,1.4,3.1,2.4c1.1,1.5-0.7,2.4-0.9,3.8
		c0,0.5,0.1,0.9,0.4,1.3c0.1,0.1,0.8,0.9,0.9,0.9c-0.3,0,1.1-1.3,0.3-1c-0.2,0.1-0.3,0.2-0.4,0.4c-0.2,0.3-0.4,0.7-0.4,1.1
		c-0.2,0.5,0,1,0.3,1.4c0.2,0.2,0.6,0.3,0.8,0.5c0.4,0.4,0.6,0.9,0.6,1.5c0,0.6-0.1,2.9-0.8,3.2c-0.3,0.1-1-0.1-1.4,0
		c-0.8,0.2-1.4,0.7-1.9,1.3c-0.4,0.4-0.3,1,0.1,1.4c0,0,0,0,0.1,0c1.3,0.7,4.8,3.2,2.1,4.4c-1.8,0.8-4,1-5.2,2.6
		c-1.4,1.9,1.2,3.3,2.5,4c0.8,0.4,1.8,1,1.6,2c-0.3,1.5-2.1,1.6-3.3,1.7c-0.7,0.1-1.7,0.5-1.7,1.3S533.4,124.2,534.1,124.2
		L534.1,124.2z"/>
	<path class="st16" d="M530.2,57c-0.4-1.5-2.2-8.8-2.7-10.4c-1.8,0.7-3.8-0.2-4.5-2c-0.1-0.2-0.1-0.4-0.2-0.7
		c-0.1-1,0.2-2.4-0.7-2.9s-2,0.3-3.1,0.3c-2.4,0-2.9-3.8-5.2-4.5c-1.4-0.5-3,0.5-4.4,0.1c-2.2-0.6-2.7-3.8-4.8-4.6
		c-1.5-0.5-3.1,0.3-4.6,0c-3.3-0.7-4.2-6.3-7.6-6.2c-1.2,0-2.4,1-3.6,0.9c-2.2-0.1,1-2.5-1.2-2.8c-2-0.2-3.5,2-5.5,2.4
		c-3.3,0.5-6.2-4.1-9.2-2.6c-1.3,0.6-1.9,2.1-3.2,2.8c-3,1.5-6.3-2.7-9.5-1.7c-1.6,0.5-2.7,2.1-4.3,2.4c-2.6,0.5-4.7-2.6-7.3-2.3
		c-2,0.3-3.5,2.6-5.5,2.6c-1.5,0-2.7-1.2-4.1-1.3c-2.5-0.2-4.1,2.5-6.5,3.2c-2,0.5-4-0.5-6.1-0.9s-6.2,3.7-6.2,5.7"/>
	<path class="st3" d="M531.7,56.5c-0.9-3.4-1.7-6.9-2.6-10.4c-0.2-0.7-1.8-0.2-2.2-0.1c-0.7,0.3-2.2-1.3-2.4-2
		c-0.3-1,0.1-2.3-0.5-3.2s-2-0.9-2.9-0.7c-0.5,0.2-1,0.3-1.5,0.3c-0.4-0.1-0.8-0.6-1.1-0.9c-1.2-1.5-1.9-3.3-4-3.7
		c-0.7-0.1-1.3,0-2,0.1c-0.6,0.2-1.3,0.3-2,0.1c-1-0.3-1.6-1.5-2.1-2.3c-0.5-0.8-1.2-1.5-2-2c-1.2-0.5-2.5-0.6-3.8-0.4
		c-1,0.2-2.1,0-2.9-0.7c-0.7-0.7-1.3-1.4-1.9-2.3c-1.1-1.5-2.2-3-4.2-3.1c-1.2,0-2.5,0.3-3.6,0.7c-0.4,0.1-0.4,0.3-0.5-0.1
		s0.2-0.7,0.3-0.9c0.6-2.1-2.2-1.8-3.5-1.4c-1.1,0.4-2.2,0.9-3.2,1.6c-0.3,0.2-0.6,0.4-1,0.5c-0.6-0.1-1.2-0.2-1.7-0.5
		c-1.9-0.9-3.5-2.4-5.7-2.4c-1.1,0-2.2,0.3-3.2,0.9c-1.1,0.7-1.7,1.8-2.8,2.6c-0.3,0.2,0.4,0.1-0.1,0c-0.3-0.1-0.6-0.1-0.9-0.2
		c-0.5-0.2-1-0.4-1.5-0.6c-1-0.5-2.1-0.9-3.2-1.2c-2.5-0.5-4.6,0.5-6.5,2c-0.6,0.4-0.6,0.5-1,0.4c-0.6-0.2-1.1-0.4-1.6-0.7
		c-0.9-0.6-2-1.1-3.1-1.4c-2.6-0.6-4.7,0.8-6.8,2.2c-0.6,0.4-0.8,0.3-1.6-0.1c-0.6-0.3-1.3-0.6-2-0.8c-1.4-0.3-2.8-0.1-4,0.5
		c-1.2,0.6-2.3,1.3-3.4,2.2c-0.6,0.5-1.3,0.7-2,0.5c-0.9-0.1-1.9-0.5-2.8-0.7c-2.3-0.6-4.8,0.1-6.6,1.7c-1.5,1.2-3.3,3-3.4,5
		c0,0.7,3.1,0.2,3.1-0.8c0.1-1.7,2-3.5,3.4-4.4c0.1-0.1,0.5-0.2,0.6-0.4s0.2,1.2-0.3,0.1c0.1,0.2,1.6,0.5,1.9,0.5
		c1.4,0.5,3,0.7,4.5,0.5c1.2-0.2,2.4-0.7,3.4-1.4c0.5-0.3,0.9-0.6,1.4-1s1-0.9,1.5-1c0.6-0.1,2.2,1,3,1.2c1.3,0.3,2.6,0.1,3.8-0.4
		c1-0.5,2-1.1,2.9-1.8c0.5-0.3,0.5-0.4,1.1-0.2c0.6,0.2,1.2,0.5,1.8,0.9c2,1.2,4,1.8,6.3,1c1-0.4,2-1,2.9-1.7c0.5-0.4,0.5-0.5,1-0.4
		c0.6,0.1,1.1,0.3,1.6,0.5c2,0.9,3.9,1.9,6.2,1.5c1.1-0.2,2.2-0.7,3.1-1.4c0.4-0.4,0.8-0.8,1.1-1.2c0.2-0.3,0.5-0.5,0.7-0.7
		c-0.2,0.2-0.3-0.1,0.2,0.1c2,0.6,3.6,2.2,5.7,2.7c2.4,0.6,4.6-0.5,6.6-1.8c0.2-0.1,0.4-0.2,0.5-0.3s0.2-0.2,0.3-0.1s0.1,0.3,0,0.5
		c-0.1,0.5-0.5,1-0.3,1.6s1.5,0.6,2.1,0.6c0.7-0.1,1.3-0.2,2-0.4c0.5-0.2,1-0.4,1.5-0.4c1.6,0.2,2.7,2.5,3.6,3.7
		c1.1,1.7,3,2.7,5,2.5c1.3,0,2.5-0.5,3.6,0.4c0.7,0.8,1.4,1.6,1.9,2.5c0.6,0.9,1.6,1.6,2.8,1.7c1.3,0.2,3-0.7,4.2-0.1
		c1.8,0.9,2.1,3.6,4.1,4.3c0.5,0.2,1.1,0.2,1.7,0.2c0.5,0,1.6-0.5,2-0.3c0.9,0.4,0.4,2.8,0.8,3.6c1.2,2.5,4.3,2.7,6.6,1.9L526,47
		c0.9,3.4,1.7,6.9,2.6,10.4C528.9,58.2,532,57.4,531.7,56.5L531.7,56.5z"/>
	<path class="st17" d="M420.7,31.7c-2.8,1-6,0.8-8.6-0.5c0.1,2.6-1.9,4.8-4.5,4.9c-0.2,0-0.3,0-0.5,0c-1-0.3-2-0.4-3-0.6
		c-3.6,0.1-5.7,6-9.1,4.8c1.5,1,0.4,3.5-1.2,4.5s-3.7,1.5-4.4,3.2c-0.2,0.6-0.3,1.3-0.6,1.9c-0.4,0.7-1,1.3-1.7,1.7
		c-2.7,2-4.9,4.6-6.3,7.7c-2.5,5.3-4.3,9.9-3,23.1c-1.6-15.8,4.7-18.4,8.4-23c3.2-3.9,9.3-5.1,13.7-7.6s9.3-3.5,14.2-4.3
		c15-2.6,31-11.1,46.2-11.2c12.9-0.1,23.7-1.1,36,3.1s17.4,8.1,23.8,19.3c0,0-15.5-25.3-31.7-27.4s-43.3,2-43.3,2L420.7,31.7z"/>
	<path class="st3" d="M420.4,30.6c-2.5,0.8-5.1,0.6-7.5-0.5c-0.7-0.3-2.6,0.2-2.5,1.2c0.1,1.6-1,3.7-2.9,3.6
		c-1.2-0.1-2.2-0.6-3.4-0.6c-0.8,0-1.6,0.2-2.3,0.6c-1.3,0.7-2.5,1.7-3.6,2.8c-0.6,0.5-1.6,1.8-2.4,1.5c-1-0.3-3.6,0.8-2.1,2
		s-1,2.8-1.9,3.3c-1.5,0.6-2.8,1.6-3.8,2.9c-0.4,0.8-0.4,1.7-0.9,2.4c-0.6,0.7-1.3,1.2-2.1,1.7c-1.6,1.3-3,2.8-4.1,4.4
		c-2.8,4.2-4.6,9.1-5.1,14.1c-0.3,4.2-0.3,8.4,0.2,12.6l3.2-0.8c-0.5-4.7-0.5-9.8,1.6-14.2c1.3-2.6,3.4-4.5,5.4-6.6
		c1.3-1.6,2.9-3,4.6-4.1c2.4-1.3,5-2.2,7.4-3.3c1.3-0.6,2.5-1.3,3.8-1.9c1.6-0.7,3.2-1.3,4.9-1.8c3.1-0.9,6.2-1.3,9.4-2
		c12.9-2.7,25.1-8.7,38.2-10.3c3.3-0.3,6.6-0.5,9.9-0.4c3.3-0.1,6.6-0.1,10-0.1c6.6,0,13.2,0.9,19.5,2.7c5.1,1.6,10.4,3.6,14.7,7
		s7.3,7.8,10,12.4l2.9-1.4c-3.2-5.1-6.9-9.9-11.1-14.3c-3.3-3.6-7.1-6.8-11.2-9.5c-4-2.5-8.5-3.9-13.1-4.3c-10.6-0.9-21.5,0-32,1.1
		c-2.8,0.3-5.7,0.6-8.5,1.1c-0.2,0-0.8,0.1,0,0.1h-0.5l-3.3-0.2l-20.4-1.2c-0.8-0.1-1.6,0.3-2,1c-0.2,0.5,0.1,1.1,0.6,1.3
		c0.1,0,0.3,0.1,0.4,0.1l17.5,1c2.2,0.1,4.4,0.3,6.5,0.4c1.8-0.1,3.7-0.3,5.5-0.7c9.9-1.4,19.9-2,29.9-1.9c4.8,0.1,9.5,0.4,13.9,2.4
		c4.3,2.2,8.2,5.1,11.6,8.6c5,5,9.5,10.5,13.2,16.5c0.8,1.2,3.7,0,2.9-1.4c-2.4-4.5-5.5-8.5-9.2-11.9c-3.8-3.1-8.1-5.4-12.7-7
		c-6.3-2.3-13-3.7-19.7-4c-6.9-0.4-13.9-0.2-20.7,0c-13.9,0.5-26.7,6.8-40,10.1c-6.6,1.6-13.5,2.1-19.6,5.4
		c-4.9,2.7-11,3.9-14.7,8.3c-2.2,2.6-4.8,4.7-6.5,7.7c-2.8,4.9-2.8,10.8-2.2,16.2c0.1,1.5,3.3,0.7,3.2-0.8
		c-0.6-6.2-0.8-12.8,1.4-18.8c0.9-2.7,2.3-5.3,4.1-7.6c1.3-1.4,2.8-2.7,4.4-3.9c0.7-0.6,1.2-1.3,1.5-2.2c0.1-0.9,0.6-1.7,1.3-2.2
		c1.5-1,3.3-1.5,4.5-3.1s1.4-3.4-0.2-4.7l-2.1,2c1.8,0.5,3.8,0.1,5.2-1.2c1.3-1,2.5-2.8,4-3.4c1-0.4,2.2,0.3,3.2,0.4
		c1.2,0.1,2.4-0.1,3.4-0.6c2.3-1,3.7-3.2,3.7-5.6l-2.5,1.2c3.1,1.4,6.6,1.6,9.9,0.6c0.6-0.2,1.5-0.7,1.3-1.5S421,30.4,420.4,30.6z"
		/>
	<path class="st18" d="M454.7,88.9c0,0-33.2-2.1-55.3,4.2"/>
	<path class="st15" d="M398.1,203.2c0.9,3.1,2.3,6.1,4.2,8.9c-1.2,0.4-0.6,2.2,0.4,3s2.3,1.6,2,2.9c-0.1,0.4-0.3,0.8-0.4,1.2
		c-0.2,1.3,1.5,2.1,2.8,2.4c-0.9,0.7,0,2.1,0.9,2.8s2.1,1.5,1.8,2.6c-0.1,0.5-0.6,1-0.6,1.5c0.1,1.1,2,1.1,2.6,2
		c0.4,0.5,0.3,1.3,0.5,1.9c0.4,1.1,1.6,1.7,2.7,1.3c0.2-0.1,0.4-0.2,0.6-0.3c0.4,2.3,1.5,5.3,3.8,5.1c1.5-0.1,2.8-1.6,4.1-1.1
		c0.8,0.3,1.2,1.3,2,1.8c2.6,1.5,5.6-4,8.2-2.4c1.4,0.8,1.5,3.2,3,3.7s2.7-1.3,4.2-1.6s3.4,1.4,4.9,0.5c0.6-0.4,1-1.1,1.5-1.6
		c1.2-1.1,2.6,0.4,4.2,0.9c2.9,0.8,3-1.3,3-1.3c0.8-2,1.9-1.9,3.8-0.9c0.6,0.4,1.3,0.7,2,0.9c1.8,0,2.5-2.9,4.2-2.8
		c0.6,0.1,1.2,0.4,1.8,0.7c2.2,0.9,4.7-2.1,3.5-4.1c2.7-0.2,4.7-2.6,4.5-5.3c0-0.1,0-0.1,0-0.2c2.4,0.5,4.8-1,5.3-3.4
		c0.1-0.2,0.1-0.5,0.1-0.7c3,0.7,5.9-2.9,4.6-5.7c1.9,0.5,3.8-0.7,4.3-2.6c0.1-0.3,0.1-0.6,0.1-0.9c-0.1-1.1-0.6-2.5,0.3-3.2
		c0.6-0.4,1.4-0.2,2.2-0.2c1.5-0.2,2.6-1.6,2.4-3.1c0-0.3-0.1-0.5-0.2-0.8c2.9,0.6,5.4-3.5,3.6-5.9c2.3,0.4,4.2-2.8,2.8-4.7
		c3.1-0.2,5.1-4.5,3.2-7l-34.6,38.6l-9.1,4.7c0,0-32.9,4.4-39.3,1.8S398.1,203.2,398.1,203.2z"/>
	<path class="st3" d="M396.5,203.7c1,3.1,2.4,6.1,4.2,8.8l0.7-0.6c-1,0.5-1.6,1.3-1.1,2.4s1.7,1.7,2.5,2.7c1,1.2-0.4,2.2,0.2,3.4
		c0.5,1.1,1.9,1.5,2.9,1.8l-0.1-0.5c-1.5,1.6,0.7,3,1.8,4c0.4,0.3,0.7,0.8,0.8,1.4c0,0.5-0.5,0.9-0.6,1.5c-0.1,0.8,0.4,1.2,1,1.6
		s1.5,0.5,1.8,1.5s0.1,1.7,0.9,2.4c1.5,1.2,4,0.6,5.4-0.4l-2.8,0.4c0.4,2.5,1.5,5.4,4.4,5.3c0.7,0,1.5-0.2,2.2-0.4
		c0.3-0.1,0.7-0.3,1-0.4l0.5-0.2l0.3-0.1c0.2-0.1,0.2-0.1,0,0.1c0.2,0.2,0.3,0.5,0.5,0.7c0.3,0.3,0.5,0.6,0.8,0.9
		c0.4,0.3,0.9,0.5,1.5,0.6c2.5,0.3,4.5-1.4,6.5-2.7c0.2-0.1,0.4-0.2,0.6-0.4c0,0-0.5,0-0.5,0.1l0.3,0.1c0.5,0.4,0.9,0.9,1.2,1.4
		c0.5,1,1,2.1,2.1,2.4c1.5,0.3,3-0.1,4.3-0.9c0.3-0.2,0.6-0.4,0.9-0.5c0.1-0.1,0.5-0.1,0.2-0.1s0.2,0.1,0.2,0.1
		c0.7,0.3,1.4,0.5,2.2,0.6c1.5,0.3,3.1-0.1,4.3-1.1c0.3-0.2,0.5-0.5,0.7-0.8c0.1-0.1,0.2-0.3,0.3-0.4c0.2,0.3-1.4-0.4-1,0.1
		c0.4,0.2,0.8,0.4,1.2,0.6c0.3,0.2,0.6,0.3,1,0.5c1.8,0.7,5.3,0.6,6.3-1.5c0.1-0.2,0.1-0.4,0.1-0.5c0.1-0.2,0.4-0.5,0.4-0.7
		c0-0.5-1,0.3-0.9,0.1l0.6,0.2c1.5,0.6,2.4,1.5,4.1,1.2c1.4-0.2,2.7-1,3.6-2.1c0.2-0.2,0.4-0.4,0.6-0.7c0.1-0.2,0.7-0.3-0.3,0
		s-0.3,0.2,0.2,0.5c0.6,0.3,1.3,0.5,2,0.5c2.5,0,6.7-2.3,5-5.3l-2.2,1.1c3.5-0.2,7.2-2.7,6.8-6.6l-2.9,1c3.4,0.8,8.1-1.3,8.3-5.1
		l-2.9,1.1c3.6,0.6,9.2-2.4,7.5-6.7l-2.9,1c1.9,0.4,3.8,0,5.4-1.1c1.7-1.2,1.9-2.7,1.7-4.6c0-0.2-0.1-0.5-0.1-0.7
		c0-0.6,0.3-0.5-0.3-0.5c-0.9,0,0,0.1,0.2,0.1s0.5,0,0.7,0c1-0.1,2-0.4,2.8-0.9c1.4-0.8,2.1-2.5,1.5-4.1l-2.9,1.1
		c2.1,0.3,4.3-0.4,5.8-1.9c1.4-1.3,1.6-3.4,0.6-5l-2.4,1c2.8,0.3,7.6-2.5,5.4-5.7l-2.2,1.1c2.1-0.1,4-1.1,5.3-2.8
		c1.1-1.6,1.2-3.6,0.2-5.3c-0.5-0.7-2.6,0-3,0.5l-15.9,17.7l-11.7,13c-2.3,2.5-4.6,5-6.8,7.6c-0.5,0.6-0.2,0,0.2,0
		c-0.2,0-0.6,0.3-0.7,0.4l-1.5,0.7l-4.1,2.1c-0.9,0.4-1.8,0.9-2.7,1.4c-0.5,0.4,1.1-0.2,1-0.3c-0.1,0-0.3,0-0.4,0.1l-0.4,0.1
		l-1.2,0.2c-2.4,0.3-4.7,0.5-7.1,0.8c-6.4,0.7-12.9,1.3-19.3,1.4c-2.5,0.1-5.1,0-7.6-0.2c-1.6-0.2-3.1-1-4.3-2.1
		c-4.4-4-7.7-9.3-11-14.2c-2.8-4.2-5.4-8.4-7.9-12.7c-0.1-0.2-0.3-0.5-0.4-0.7C399.2,202,396.2,203.2,396.5,203.7
		c1.9,3.3,3.9,6.5,6,9.8c3.3,5.6,7.1,10.9,11.3,15.8c1.3,1.5,2.8,3.2,4.6,4c2,0.7,4,1,6.1,0.9c6.5,0.1,12.9-0.2,19.4-0.9
		c4.8-0.5,9.6-1,14.4-1.6c1.4-0.3,2.7-0.8,3.9-1.5c2.3-1.2,4.6-2.3,6.9-3.5c0.6-0.4,1.2-0.9,1.6-1.4l3.3-3.7l10.9-12.2L504,188
		l0.4-0.4l-3,0.5c0.7,1,0.9,2.2,0.6,3.4c-0.1,0.6-0.4,1.1-0.7,1.6c-0.2,0.2-0.3,0.4-0.5,0.6c-0.2,0.2-0.8,0.4-0.3,0.4
		c-0.2,0-2.6,0.5-2.2,1.1c0.5,0.6,0.6,1.5,0.4,2.2c-0.1,0.4-0.3,0.8-0.5,1.1c-0.1,0.1-0.3,0.3-0.4,0.4c0.8-0.1,0.9-0.1,0.4-0.1
		c-0.3,0-3,0.6-2.6,1.1c0.6,0.8,0.8,1.9,0.5,2.9c-0.1,0.5-0.4,0.9-0.6,1.3c-0.2,0.2-0.3,0.4-0.5,0.6c-0.3,0.4-0.5,0-0.1,0.1
		c-0.4-0.1-3.2,0.3-2.9,1c0.3,0.6,0.3,1.2,0.1,1.8c-0.1,0.2-0.2,0.5-0.3,0.7c-0.1,0.1-0.2,0.3-0.3,0.4l0.5-0.1c-0.2,0.1-0.9,0-1.1,0
		c-0.4,0-0.8,0.1-1.2,0.2c-0.7,0.1-1.3,0.4-1.9,0.8c-1,0.8-0.8,1.9-0.6,3.1c0.1,1-0.3,3.2-1.5,2.9c-0.4-0.1-3.2,0.3-2.9,1.1
		c0.4,0.9,0.4,2,0,2.9c-0.2,0.4-0.4,0.8-0.8,1.2c-0.2,0.2-0.4,0.4-0.6,0.5c-0.3,0.1,0.3,0.1-0.3,0s-2.8,0.1-2.9,1
		c-0.1,1.4-1.1,3.4-2.5,3c-0.5-0.1-3,0.2-2.9,1.1c0.1,0.9,0,1.9-0.5,2.7c-0.3,0.6-1,1.6-1.7,1.7c-0.3,0-2.6,0.5-2.3,1.1
		c0.6,1.1,0.3,2.5-0.7,3.2c0.3-0.3,0.7,0.2,0-0.3c-0.3-0.2-0.6-0.3-0.9-0.4c-0.7-0.3-1.5-0.3-2.2-0.1c-1.1,0.2-2.1,0.7-2.9,1.5
		c-0.3,0.3-0.6,0.7-0.9,1c-0.7,0.8,0.2,0,0.2,0s-1.1-0.6-1.3-0.7c-1.9-0.9-4.8-0.9-6.1,1c-0.3,0.4-0.5,0.9-0.6,1.5
		c0,0-0.2,0.2-0.2,0.2l0.9-0.3c-0.3,0-0.5-0.1-0.8-0.1c-0.7-0.3-1.4-0.6-2-0.9c-1.1-0.5-2.3-0.5-3.5,0c-0.6,0.2-1.2,0.6-1.7,1.1
		c-0.2,0.2-0.4,0.4-0.6,0.7c-0.3,0.3-0.1,0.3,0.5,0.1c-0.2-0.1-0.4-0.1-0.7-0.2c-1.2-0.5-2.4-0.6-3.7-0.5c-0.7,0.1-1.5,0.4-2.1,0.7
		c-0.4,0.2-1.6,0.7-1.8,1l0.7-0.2c-0.2-0.1-0.3-0.2-0.5-0.3c-0.2-0.2-0.4-0.4-0.5-0.7c-0.2-0.4-0.4-0.9-0.6-1.3
		c-0.4-0.9-1.3-1.6-2.4-1.7c-2.3-0.2-4.3,1.1-6,2.4c-0.2,0.1-1,0.8-1.1,0.7l0.5-0.1c-0.1,0-0.3-0.1-0.4-0.1c-0.3-0.3-0.7-0.6-1-0.9
		c-1-1-2.6-1.4-3.9-0.8c-0.7,0.2-1.4,0.6-2,0.8s0,0.2-0.6,0c-0.3-0.2-0.6-0.4-0.8-0.6c-0.9-1.2-1.5-2.6-1.6-4.1
		c-0.1-0.8-2.5,0.1-2.8,0.4c0.7-0.1,0.8-0.2,0.2-0.4l-0.2-0.2c-0.3-0.3-0.5-0.6-0.6-1c-0.2-0.6-0.1-1.3-0.5-1.8
		c-0.6-0.8-2.2-0.8-2.5-1.7c-0.2-0.6,0.4-1.2,0.5-1.8c0.1-0.6-0.1-1.2-0.6-1.6c-0.6-0.7-3.4-2.2-2.3-3.5c0.2-0.2,0.2-0.4-0.1-0.5
		c-0.9-0.2-2.2-0.6-2.5-1.6s0.7-1.7,0.2-2.7c-0.5-0.8-1.1-1.4-1.9-1.9c-0.4-0.3-0.7-0.7-0.9-1.2c-0.1-0.4-0.1-0.8-0.2-1.1
		c0.1-0.1,0.8-0.4,0.7-0.6c-1.8-2.7-3.2-5.7-4.2-8.9C399.4,202.1,396.3,203,396.5,203.7z"/>
	<path class="st3" d="M457.9,177.5c-0.8-1-2-1.6-3.3-1.8c-0.5-0.1-1.4,0.2-1.8-0.1s-0.7-1-1-1.3c-1-0.9-2.3-1.2-3.5-0.9
		c-0.6,0.1-1.1,0.4-1.7,0.7l-0.4,0.3c-0.2,0.1-0.2,0.1,0.1,0c-0.2-0.1-0.4-0.2-0.6-0.4c-0.8-0.6-1.9-0.9-2.9-0.9
		c-0.6,0.1-1.2,0.3-1.7,0.6c-0.3,0.2-0.5,0.4-0.8,0.6l0.7-0.3c-0.2-0.1-0.4-0.2-0.5-0.4c-1-0.8-1.7-1.6-3-1.7c-0.7,0-1.4,0.1-2,0.3
		c-0.3,0.2-0.7,0.3-1,0.4c-0.3,0.1,0,0.2-0.2-0.1c-0.7-0.9-3.7,0.2-2.9,1.3s2.1,1,3.1,0.7c0.5-0.2,1.1-0.3,1.6-0.6
		c0.4-0.2,0.5-0.2,0.3-0.1s-0.1,0.2,0.3,0.3l0.6,0.6c0.8,0.9,2,1.4,3.2,1.3c0.7-0.1,1.4-0.4,1.9-0.8c0.1-0.1,0.6-0.3,0.6-0.5
		c-1,0-1.3,0.1-0.9,0.3c0.1,0,0.2,0.1,0.4,0.2c0.8,0.6,1.8,1,2.9,1.1c0.7,0,1.4-0.2,2-0.5c0.3-0.1,0.5-0.3,0.8-0.4l0.4-0.2v0.2
		c0.6,0.2,0.9,1,1.3,1.4c0.4,0.4,0.9,0.7,1.5,0.8c0.6,0.1,1.2-0.1,1.8,0c0.8,0.1,1.5,0.5,2,1.2C455.8,179.6,458.8,178.4,457.9,177.5
		L457.9,177.5z"/>
	<path class="st3" d="M421.2,174.3c-1.1-0.3-2.4-0.2-3.4,0.5c-0.7,0.4-1.4,1.2-2.2,1.2c-0.7-0.1-1.5,0.1-2.2,0.4
		c-0.2,0.1-1.5,0.9-1.4,1.4c0.8-0.1,1-0.2,0.5-0.3l-0.3-0.1c-0.3-0.1-0.6-0.3-0.9-0.4c-0.7-0.3-1.5-0.4-2.2-0.2
		c-1.1,0.3-2,1.2-2.4,2.3c-0.3,0.7-0.1-0.2,0.1,0.1c-0.2,0-0.5,0-0.8,0c-0.7,0-1.3,0-2,0.2c-0.6,0.2-1.1,0.5-1.6,0.9
		c-0.2,0.2-0.3,0.4-0.4,0.6c-0.1,0.2-0.1,0.4-0.2,0.5c-0.1,0.4,0,0.4,0.5,0c-1.1,0-2,0.7-2.4,1.7c-0.2,1.5,3,1,3.2-0.3
		c-0.1,0.6-1.4,0.8-0.5,0.6c0.3-0.1,0.5-0.1,0.8-0.2c0.5-0.2,0.9-0.5,1.2-0.9c0.1-0.2,0.2-0.4,0.3-0.6c0-0.1,0-0.3,0.1-0.4
		s0-0.2-0.1-0.1s-0.1-0.1,0,0.1s0.6,0,0.7,0c1.3,0.1,2.5-0.3,3.5-1.2c0.3-0.3,0.5-0.6,0.6-1c0.1-0.1,0.3-0.5,0.3-0.6
		c0.1-0.2,0-0.1-0.4,0.1c-0.5,0.1-0.5,0.2-0.2,0.3c0.5,0.3,1,0.5,1.6,0.6c0.6,0.1,1.2,0.1,1.8,0c0.6-0.2,1.2-0.5,1.6-0.9
		c0.2-0.2,0.4-0.4,0.5-0.7c0.2-0.3,0-0.2-0.6,0.2h0.3c1.1,0.1,2.3-0.2,3.2-0.8c0.4-0.2,0.8-0.5,1.2-0.8c0.1-0.1,0.3-0.2,0.4-0.2
		c-0.1,0-0.4,0-0.2,0c0.8,0.2,1.7,0,2.2-0.6c0.3-0.3,0.4-0.8,0.1-1.2C421.5,174.4,421.4,174.3,421.2,174.3L421.2,174.3z"/>
	<path class="st19" d="M510.4,129.7c-3.4-3.1,0.5-9.4-2.2-13.2c-0.7-0.8-1.4-1.6-2.1-2.4c-1.5-2.6,0.8-6.1-0.4-8.8
		c-0.6-1.2-1.8-2.1-2.2-3.3c-0.9-2.4,1.3-5,1-7.5c-0.4-2.9-3.9-5.2-2.9-7.8c0.5-1.3,2-2.1,2.4-3.5c0.7-2.3-2-5.3-0.3-7
		c0.6-0.6,1.6-0.8,2-1.5c1-1.4-0.8-3-1.5-4.6s-0.3-3.5-0.6-5.2s-2-3.6-3.6-2.8c0.8-2.8-1.1-10.3-4-9.8c-1.4,0.2-3.2,1-4-0.2
		c-0.6-0.9,0-2.1-0.5-3c-1.2-2.3-5.1,1.3-7.3-0.2c-0.6-0.4-0.9-1.1-1.4-1.6c-1.1-1.2-3-1-4.5-0.5s-0.7-1.5-2.3-1.8s-3-3.3-2.1-4.6
		c-1.6,1-5.6,3.3-7.5,3.5s-4.2-3.3-4.8-5.2c-0.4,2.7-4.2,9.2-6,7.1c-0.7-0.8-1.2-2-2.3-2.1c-0.5,0-1,0.2-1.4,0.4
		c-1.9,1.1-4.2,7-5.1,8.9l0.4-11.8l32.6-5.9L511.9,50l6.7,34.4l-9.5,47.6"/>
	<path class="st3" d="M511.8,129.1c-1.8-1.8-1.4-4.4-1.2-6.7s0.3-4.8-1.3-6.7c-0.9-1.2-2-1.9-2.2-3.5c0-1.3,0.1-2.7,0.4-4
		c0.2-1.2,0-2.5-0.5-3.6c-0.7-1.3-2-2.2-2.2-3.7s0.5-2.8,0.9-4.1c0.4-1.3,0.4-2.7,0-4c-0.8-1.8-3.3-4-2.7-6.1c0.3-1.3,1.6-2,2.2-3.2
		c0.5-1.1,0.5-2.4,0-3.6c-0.3-0.9-1-2.3-0.5-3.3c0.2-0.5,0.8-0.7,1.2-0.9c0.6-0.4,1.2-0.9,1.5-1.6c0.5-1.3-0.4-2.4-1.1-3.5
		c-1-1.7-1-3.2-1.1-5.1c-0.1-3.3-2.5-5.6-5.9-4.3l2.2,0.5c0.7-2.5-0.1-5.6-1.2-7.9c-0.5-1.1-1.3-2-2.3-2.5c-0.6-0.2-1.2-0.3-1.8-0.2
		c-0.6,0.1-1.8,0.6-2.4,0.4c-0.9-0.3-0.5-1.8-0.6-2.5c-0.1-0.6-0.5-1.2-1.1-1.5c-1.2-0.6-2.8-0.2-4,0.1c-0.6,0.2-1.2,0.4-1.8,0.5
		c-0.8,0.1-1.2-0.3-1.6-1c-1.1-1.4-2.9-2.1-4.6-1.8c-0.6,0.1-1.1,0.2-1.6,0.3c-0.2,0.1-1,0.2-0.1,0.2c0.7-0.1,0.3,0.1,0.3-0.2
		c-0.2-0.7-0.6-1.2-1.2-1.4c-0.7-0.2-1.4-0.6-1.8-1.3c-0.5-0.7-0.7-1.7-0.4-2.5c0.8-1.3-2-0.8-2.4-0.5c-1,0.6-1.9,1.2-2.9,1.7
		s-2.2,0.9-3.2,1.4c-0.4,0.2,0.1,0.1-0.1,0s-0.4-0.2-0.6-0.3c-0.5-0.3-0.9-0.7-1.2-1.2c-0.8-0.9-1.4-2-1.8-3.1c-0.4-1-3-0.3-3.1,0.6
		c-0.4,2.1-1.4,4-2.8,5.7c-0.3,0.3-0.6,0.6-0.9,0.9c0-0.1,0.9-0.2,0.9-0.1s-0.4-0.5-0.4-0.4c-0.9-1-1.5-2.1-2.9-2.2
		c-5-0.2-6.9,6.7-8.6,10.2l3-0.2l0.4-11.8l-1.8,1.1l28.6-5.1l4.1-0.7l-1-0.1l23.4,10.5l6,2.7c0.2,0.1,2.6,1.4,2.8,1.3
		c-0.3,0.2-0.3-0.7-0.2,0.1c0.1,0.6,0.2,1.1,0.3,1.7l1.2,6.1l3.2,16.3l1.3,6.6c0.2,1,0.5,2.1,0.6,3.2c0-0.1,0-0.2,0,0.1
		s-0.2,0.8-0.2,1.2l-0.9,4.7l-3,15c-1.7,8.6-3.6,17.2-5.2,25.9l-0.1,0.5c-0.2,1.2,2.9,0.7,3.1-0.4l6.4-32l3-14.9
		c0.1-0.7,0.1-1.3,0-2l-1.4-7.2l-4-20.6l-0.7-3.5c-0.1-0.7-0.2-1.3-0.4-1.9c-0.3-0.8-1.8-1.2-2.5-1.5l-17.7-8l-8.7-3.9
		c-1.2-0.5-2.5-1.2-3.7-1.7s-3.4,0.3-4.8,0.6l-9.5,1.7l-18.4,3.3l-1.1,0.2c-0.5,0.1-1.8,0.4-1.8,1.1L445,53.2c0,1.3,2.7,0.6,3-0.2
		c1-2.1,1.9-4.3,3-6.3c0.3-0.5,0.6-1,1-1.5c0.1-0.2,0.3-0.4,0.5-0.5c0.3-0.3,0,0-0.1-0.1c0.9,0.7,1.3,2,2.4,2.3
		c4.1,1.4,7.7-5.3,8.2-8.5l-3.1,0.6c0.9,2.5,3.1,6,6.2,5.6s6.1-2.3,8.7-4l-2.4-0.5c-0.6,1.3-0.5,2.9,0.5,4c0.4,0.6,0.9,1,1.5,1.3
		c0.8,0.3,0.9,0.3,1.3,1.1c0.8,1.6,2.5,0.8,3.8,0.5c2.1-0.3,2.4,1.9,4,2.6c1.5,0.4,3,0.3,4.4-0.3c1.2-0.4,2.1-0.9,2.2,0.8
		c0,0.9-0.1,1.7,0.6,2.4c0.6,0.5,1.4,0.8,2.1,0.7c0.9,0,1.9-0.2,2.8-0.4c0.4-0.1-0.1-0.1,0.1,0c0.2,0.1,0.5,0.3,0.6,0.5
		c1,1.2,1.7,2.7,1.9,4.2c0.4,1.4,0.5,2.9,0.2,4.4c-0.3,1,1.8,0.6,2.2,0.5c-0.6,0.2-0.2,0.1,0.2,0.4c0.2,0.2,0.4,0.4,0.6,0.6
		c0.4,0.6,0.6,1.2,0.7,1.9c0.2,1.5-0.1,3,0.4,4.5c0.4,1.2,1.3,2.1,1.8,3.2c0.6,1.6-1,1.8-1.9,2.7c-1.7,1.8-0.1,4.1,0.2,6.1
		c0.3,2.6-3,3.7-2.6,6.4c0.3,2.2,2.3,3.7,3,5.8c0.8,2.7-1.6,5.1-1,7.8c0.4,1.1,1.1,2.1,1.9,3c0.8,1.2,1,2.7,0.7,4.1
		c-0.2,1.2-0.3,2.4-0.4,3.5c0.1,1.3,0.7,2.4,1.6,3.3c1,0.9,1.7,2.2,1.9,3.5c0.1,1.3,0.1,2.6-0.1,3.9c-0.2,2.4-0.4,5.1,1.5,6.9
		C509.7,131.1,512.7,129.9,511.8,129.1L511.8,129.1z"/>
	<path class="st15" d="M511.6,151l-2.8,0.4c-0.3,0.1-0.6,0-0.9-0.1c-0.6-0.4-0.3-1.3-0.1-2c0.4-1.6-0.6-3.2-1.4-4.8
		s-1.3-3.4-0.3-4.8c0.6-0.7,1.5-1.2,1.6-2.1c0.1-1.2-1.4-1.7-2.2-2.5c-1-1.2-0.8-3,0.4-4c0.2-0.2,0.5-0.3,0.7-0.4
		c0,0-2.1-2.1-1.6-6.6s1.7-9.2,1.7-9.2l6.4-3.9L511.6,151z"/>
	<path class="st3" d="M511.9,150.4l-2.1,0.3l-0.5,0.1c-0.3,0.1-0.3,0-0.1-0.2c0-0.3,0-0.5,0-0.8c0.3-1.1,0.2-2.2-0.1-3.2
		c-0.7-1.9-3-4.7-1.5-6.7c0.5-0.7,1.5-1.1,1.7-2.1c0.1-0.8-0.2-1.6-0.9-2c-0.7-0.6-1.5-1-1.8-2c-0.1-0.6-0.1-2.2,0.7-2.4
		c0.3-0.1,1.3-0.6,0.9-1c-1.2-1.3-1.6-3.5-1.5-5.2c0.2-3.3,0.8-6.5,1.6-9.6c0-0.1,0.1-0.3,0.1-0.4c-0.1-0.5,0.5,0.6-0.3,0.2
		c0,0,0.3-0.2,0.4-0.2c0.8-0.4,1.5-0.9,2.2-1.3l3.8-2.3l-2.8,0.3l-1.4,34.9l-0.2,5c0,0.6,3.1,0.2,3.2-0.8l1.4-34.9l0.2-5
		c0-0.8-2.5,0.2-2.8,0.3l-4.2,2.6c-0.7,0.4-1.3,0.8-2,1.2c-0.4,0.3-0.7,0.7-0.7,1.2c-0.9,3.2-1.4,6.5-1.6,9.9
		c-0.1,2,0.5,3.9,1.8,5.4l0.9-1c-1.9,0.8-3.7,3-2.3,5.1c0.6,0.8,2,1.2,2.3,2.2c0.4,1.2-1.5,2.1-1.9,3.2c-1,3,2.1,5.3,2.1,8.1
		c0,1-0.9,2.5,0.4,3s3.4-0.1,4.6-0.3c0.4,0,1.8-0.4,1.8-0.9S512.3,150.3,511.9,150.4z"/>
	<path class="st19" d="M396.8,52.8c0.4,0.9-0.8,1.7-1.8,1.8s-2.3,0.4-2.4,1.4c-0.1,0.6,0.4,1.2,0.3,1.8c-0.2,1.8-3.9,0.4-4.8,2.1
		c-0.7,1.2,0.9,3.1-0.1,4c-0.5,0.4-1.3,0.3-1.9,0.4c-1.2,0.2-2.1,1-2.4,2.2c-0.2,0.8,0,1.8-0.4,2.5s-1.7,1.1-2.7,1.5
		c-2.4,1.2-2.9,4.5-2.8,7.2s0.1,5.9-1.9,7.7c-2-1.7-2.4-4.6-1-6.8c0.5-0.6,1-1.2,1.4-1.8c0.4-0.7,0.3-1.5-0.3-2.1
		c-0.3-0.2-0.7-0.3-0.9-0.7c-0.5-0.9,1.3-1.2,2.1-1.9c1-0.9,0.3-2.6-0.5-3.6s-1.9-2.4-1.2-3.6s2.1-1.2,2.7-2.2s-0.3-2.6,0-4
		c0.3-1.8,2.5-2.3,4.3-2.6c-1-1.2-0.8-3,0.4-3.9c0.2-0.2,0.4-0.3,0.6-0.4c0.7-0.2,1.5-0.3,1.9-0.8c0.6-0.8-0.1-2.3,0.6-3
		s1.8-0.1,2.5-0.7c1.1-0.9-0.4-2.7,0.2-4c0.8-1.7,4.5-1.2,4.2-3"/>
	<path class="st3" d="M395.2,53.2c0.2,0.8-0.8,0.7-1.3,0.8c-0.8,0.2-1.5,0.5-2.1,1c-0.5,0.4-0.8,1.1-0.7,1.7
		c0.1,0.4,0.1,0.7,0.3,1.1c0.2,0.4-0.5,0.3,0.3,0.2c0.3,0,0.2,0,0,0c-1.3-0.1-2.6,0.2-3.8,0.8c-1.1,0.6-1.7,1.9-1.3,3.1
		c0.1,0.3,0.2,0.7,0.2,1c0,0.1,0,0.3,0,0.4v0.1c-0.1,0.3,0.1,0.2,0.6-0.2c-0.1-0.2-2.3,0.4-2.5,0.5c-1.5,0.6-2.6,2-2.8,3.6
		c-0.1,1,0,1.7-1,2.1c-0.8,0.3-1.5,0.7-2.2,1.1c-1.1,0.9-1.9,2.2-2.2,3.7c-0.9,3.4,0.9,8.2-1.9,11l2.7-0.3c-1.3-1-1.9-2.7-1.7-4.3
		c0.2-1.7,1.5-2.5,2.2-4c0.3-0.7,0.3-1.4,0-2.1c-0.2-0.3-1.2-0.9-1.3-1s1.1-0.6,1.4-0.7c0.6-0.3,1.1-0.9,1.3-1.6
		c0.3-1.5-0.8-2.7-1.6-3.8c-0.5-0.6-1.3-1.8-0.6-2.6c0.4-0.5,1.3-0.7,1.8-1.1c1.3-1,1.2-2.3,0.9-3.8c-0.3-2,0.7-2.5,2.4-2.8
		c0.5-0.1,2.4-0.7,1.7-1.5c-0.7-0.8-0.7-2.1,0-2.9c0.4-0.2,0.9-0.4,1.4-0.5c0.6-0.2,1.1-0.6,1.5-1.1c0.3-0.4,0.4-0.9,0.4-1.4
		c0-0.3,0-0.5,0-0.8c0-0.2,0-0.3,0.1-0.5l-0.6,0.2c0.6,0,1.2-0.1,1.8-0.3c0.6-0.2,1.2-0.5,1.6-1c1.1-1.3-0.8-3.8,0.8-4.5
		s3.8-0.9,3.7-3c-0.1-1-3.2-0.4-3.1,0.8c0,0.4,0.1,0.1-0.2,0.3c-0.4,0.2-0.8,0.3-1.2,0.4c-0.9,0.3-1.8,0.8-2.5,1.5
		c-0.5,0.8-0.6,1.8-0.3,2.7c0.1,0.2,0.1,0.5,0.1,0.7v0.3c-0.1,0.3,0,0.4,0.2,0.2s0.3-0.1-0.1-0.1h-0.3c-0.4,0-0.7,0.1-1.1,0.2
		c-1.1,0.2-1.9,1.2-2,2.3c0,0.5,0.2,1.2-0.3,1.6s-1.2,0.3-1.7,0.7c-1.7,0.9-2.3,3.1-1.4,4.8c0.1,0.1,0.2,0.3,0.3,0.4l1.7-1.5
		c-1.8,0.1-3.6,0.8-5,1.9c-1.5,1.4-0.9,2.8-0.8,4.5s-2.6,1.9-3.1,3.7c-0.5,1.8,1.4,3.2,2.1,4.7c0.4,0.9,0.4,1.6-0.5,2
		c-0.6,0.3-1.2,0.6-1.7,1.2c-0.4,0.5-0.4,1.2,0.1,1.6c0.3,0.3,0.8,0.3,1,0.7c0.2,0.5,0.1,1-0.2,1.5c-0.4,0.8-1.1,1.3-1.5,2.1
		c-0.4,0.8-0.6,1.6-0.6,2.4c0,1.7,0.7,3.4,2,4.5c0.9,0.5,2,0.3,2.7-0.4c2.6-2.6,2-6.1,2.2-9.5c0-1.6,0.4-3.1,1.3-4.5
		c1-1.3,3-1.2,4-2.6c0.4-0.7,0.6-1.5,0.5-2.3c0-0.4,0.1-0.9,0.4-1.3c0.3-0.5,0.5-0.4,1-0.4c1.4,0,3.4-0.7,3.4-2.4
		c-0.1-0.7-0.2-1.3-0.4-2c0-0.3,0-0.6,0.1-0.9c0,0.2-0.5,0.1,0.2,0.1c1.3,0,2.5-0.3,3.6-0.9c0.6-0.4,1-1,0.9-1.7
		c0-0.4-0.4-1-0.3-1.4s0.4-0.2,0.8-0.3c1.4-0.2,3.9-1.3,3.4-3.1C398.1,51.2,394.9,52.1,395.2,53.2L395.2,53.2z"/>
	<path class="st20" d="M514.8,134.2l-0.3-3.8l-40.1-8.6l0,0c-14.4-4.5-34,0.8-45,8.9l-10.1,1.2l0.1-0.2c-12.4-7.8-32.1-7.8-46.6,0.1
		l0.5,1.6l0,0c0,0.1,0.1,0.3,0.2,0.6l0.5,1.4c2.8,8.6,6.1,17.7,8.7,19.9c1.8,1.5,7.3,1.9,11.8,2c1.7,0,3.3,0,4.4,0
		c1.4,0,13.3-0.4,15.1-2.4s4.3-16,5-20.4l10.4-1.2c1.5,3.3,5.2,17.6,10.5,20.2s31.1-0.4,33.3-4.1c1.5-2.7,5.8-12.3,6.7-17.2l1.8-6.3
		L514.8,134.2z M412.6,153.6c-2,1.9-25.8,2.9-28.9,0.3c-2.6-2.2-6.6-14.5-8.2-19.1v-0.2c13-6.3,30.8-6.4,41.5,0.2
		C415.8,142.5,413.8,152.3,412.6,153.6L412.6,153.6z M469.9,148.6c-1.3,2.4-23.9,6-29.3,3.3c-3.8-1.9-6.6-12.3-8.8-18.3
		c10.8-7.7,33.7-12.4,46.6-7.5C476.6,133.7,473.7,142.8,469.9,148.6L469.9,148.6z"/>
	<path class="st21" d="M412.3,153.4c-2,1.9-25.8,3-28.9,0.3c-2.6-2.2-6.6-14.5-8.2-19.1v-0.2c13-6.3,30.8-6.4,41.5,0.2
		C415.5,142.3,413.5,152.1,412.3,153.4L412.3,153.4z"/>
	<path class="st21" d="M469.9,148.6c-1.3,2.4-23.9,6-29.3,3.3c-3.8-1.9-6.6-12.3-8.8-18.3c10.8-7.7,33.7-12.4,46.6-7.5
		C476.6,133.7,473.9,142.2,469.9,148.6L469.9,148.6z"/>
	<path class="st1" d="M529.1,230.3c0,0-18.8,51.2-68.4,49.1c-40.1-1.7-26.4-35.4-26.4-35.4L529.1,230.3z"/>
	<path class="st18" d="M520,175.2c0,0-5.3-0.7-6.7-3.7c0,0,0.6,7.1,6.7,8.1V175.2z"/>
	<path class="st13" d="M505.3,488.6c0,0,22.4,3.1,35,26.8c0,0-6.7-34.3-36.1-29.3"/>
	<path class="st7" d="M428.7,184.4c9.7-0.7,25.2-3,25.2-3s-1.5,20.1-23.9,21.7S403.3,185,403.3,185S419,185.1,428.7,184.4z"/>
	<path class="st22" d="M428.6,184.5c4.6-0.3,23.1-2.4,23.1-2.4s-5.4,11-22,12.1c-18,1.3-24-8.8-24-8.8L428.6,184.5z"/>
	<path class="st23" d="M428.4,185.2c4.6-0.3,18.5-2.1,18.5-2.1s-4.7,5.6-18.5,6.6s-18.5-3.8-18.5-3.8L428.4,185.2z"/>
	<path class="st7" d="M402.1,183.6c0.5-0.2,3.2,0.6,5.5,0.2c3.8-0.6,6.1-1.8,8.8-2.2c4.7-0.7,7.8,1,9.9,0.9s4.9-2.3,9.6-2.2
		c2.8,0,9.7,0.6,13.5,0.7c2.3,0,4.9-1.1,5.4-1c0.7,0.1-0.3,5.4-26,7.2S401.5,183.9,402.1,183.6z"/>
	<path class="st3" d="M429.5,175.9l1.2,4.3c0.2,0.7,0.8,1.1,1.5,1.2c4.7,0.2,22.5,1.1,26.7,0.7c0.1,0-0.2,1.8-0.1,1.8l1-0.1
		c1.5-0.4,0-5.6-1.6-6.1c-3.8-1.1-7.6-2-11.5-2.6c-3.2-0.5-12-1.5-15.8-1.1c-0.9,0.1-1.5,0.9-1.4,1.8
		C429.5,175.7,429.5,175.8,429.5,175.9z"/>
	<path class="st3" d="M424.1,176.8l0.2,4c-0.1,0.7-0.5,1.2-1.2,1.4c-4.2,1-18.2,4.5-22.1,4.8h-0.3l-1.3-0.1
		c-1.5-0.2-0.9-3.5,0.4-4.2c2.9-1.6,5.9-3,9-4.2c2.9-1,10.1-3.1,13.6-3.4c0.8,0,1.5,0.6,1.6,1.5
		C424.1,176.6,424.1,176.7,424.1,176.8z"/>
	<path class="st2" d="M241.1,543c0,0-17.5,12.4-18.9,26s7.3,27.3,9.5,28.3s18.9,7.7,18.9,7.7l0.4,3.2c0,0-20.2-8.2-22.7-11.3
		s-8.3-14.3-7.9-23.8c0.1-6.9,2.7-13.5,7.3-18.7c3.1-3.4,13.3-12.5,13.3-12.5L241.1,543z"/>
</g>
<path class="st2" d="M138,174.8c0,0,7.1,9.7-2,13.9C136,188.8,141.9,182.6,138,174.8z"/>
<path class="st2" d="M149.9,176.1c0,0-6.6,5.8-0.1,12.6C149.9,188.8,146.9,183.1,149.9,176.1z"/>
</svg>
