<svg id="Layer_1" data-name="Layer 1" xmlns="http://www.w3.org/2000/svg" viewBox="0 0 65.54 56.73"><defs><style>.cls-1{fill:#0d3f60;}</style></defs><path class="cls-1" d="M3.8,46.55l3.14-9.66a22.05,22.05,0,1,1,16.73,7.69A21.8,21.8,0,0,1,14,42.36ZM23.67,2.25A20.26,20.26,0,0,0,8.62,36.08l.35.39-2.26,7,7.41-3,.36.18A20.26,20.26,0,1,0,23.67,2.25Z"/><path class="cls-1" d="M62.88,55.18l-8-3.27a16.43,16.43,0,0,1-7.17,1.63c-7.16,0-12.23-3-14.66-8.8a.9.9,0,1,1,1.65-.7c2.16,5.11,6.54,7.7,13,7.7a14.63,14.63,0,0,0,6.72-1.61l.37-.19L60,52,58.4,47.22l.35-.38a14.84,14.84,0,0,0-9.09-24.65H47.5a.9.9,0,1,1,0-1.8h2.32A16.63,16.63,0,0,1,60.43,47.65Z"/><circle class="cls-1" cx="46.07" cy="37.15" r="1.24"/><circle class="cls-1" cx="49.35" cy="37.15" r="1.24"/><circle class="cls-1" cx="52.8" cy="37.15" r="1.24"/><path class="cls-1" d="M22,30.89h3.39v3.39H22Z"/><path class="cls-1" d="M27.06,17.19A3.36,3.36,0,0,1,26,19.7l-4,3.65v4.14h3.39V24.84l2.89-2.64a6.79,6.79,0,1,0-11.38-5h3.4a3.4,3.4,0,0,1,6.79,0Z"/></svg>