<?xml version="1.0" encoding="utf-8"?>
<!-- Generator: Adobe Illustrator 25.2.1, SVG Export Plug-In . SVG Version: 6.00 Build 0)  -->
<svg version="1.1" id="Layer_1" xmlns="http://www.w3.org/2000/svg" xmlns:xlink="http://www.w3.org/1999/xlink" x="0px" y="0px"
	 viewBox="0 0 65.5 56.7" style="enable-background:new 0 0 65.5 56.7;" xml:space="preserve">
<style type="text/css">
	.st0{fill:#FFFFFF;}
</style>
<path class="st0" d="M21.7,36.5c-0.2-0.3-0.5-0.7-0.7-1c-1.5-2-3.1-4-4.6-6c-1.1-1.2-1-3.1,0.3-4.2c0.3-0.2,0.6-0.4,0.9-0.6
	c1.1-0.5,2.4-0.3,3.2,0.6c1,1.1,2,2.3,3,3.5c1.9,2.2,3.7,4.5,5.6,6.7c1.4,1.7,2.2,3.9,2.1,6.1c0,4.3-0.1,8.6-0.1,12.9
	c0,0.8-0.4,1.2-1.2,1.2H18.6c-0.5,0.1-1.1-0.3-1.1-0.8c0-0.1,0-0.2,0-0.3c0.1-1.9,0.3-3.8,0.5-5.7c0.1-0.4,0-0.8-0.3-1.1
	C14.8,43.9,10,40,7.1,36.2c-1.2-1.5-1.7-3.4-1.5-5.3c0.3-4.6,0.6-9.2,1-13.8c0.1-1.7,1.4-3.1,3.1-3.3c1.7-0.2,3.3,0.9,3.7,2.6
	c0.1,0.4,0.1,0.8,0.1,1.2c0,3.6-0.1,7.2-0.1,10.8c0,0.3,0.1,0.7,0.3,0.9c1.6,2,3.1,4,4.6,5.9C19.1,36.4,20.4,36.8,21.7,36.5z
	 M29.3,53.8c0-0.1,0-0.2,0-0.2l0.1-12.1c0-1.7-0.6-3.3-1.6-4.5c-0.9-1.1-1.8-2.3-2.8-3.4c-1.8-2.2-3.6-4.3-5.4-6.5
	c-0.2-0.3-0.6-0.4-0.9-0.5c-0.4,0-0.8,0.2-1,0.5c-0.2,0.4-0.2,1,0.2,1.4c1.3,1.7,2.7,3.5,4,5.2c0.7,0.9,1.4,1.7,2,2.6
	c0.4,0.4,0.4,1,0,1.4c0,0-0.1,0.1-0.1,0.1c-0.3,0.2-0.7,0.4-1,0.5c-2.2,0.8-4.6,0-6-1.8c-1.6-2-3.1-4-4.7-6
	c-0.4-0.5-0.6-1.1-0.6-1.8c0.1-3.8,0.1-7.5,0.1-11.2c0.1-0.8-0.5-1.6-1.4-1.7c-0.8-0.1-1.6,0.5-1.7,1.4c0,0.1,0,0.1,0,0.2
	c-0.1,0.9-0.1,1.9-0.2,2.8C8,23.5,7.8,27,7.5,30.4c-0.2,1.2-0.1,2.4,0.4,3.5c0.4,0.7,0.9,1.4,1.4,2.1c2.7,3.7,7.5,7.3,10.2,11
	c0.3,0.4,0.5,0.9,0.4,1.4c-0.1,0.6-0.1,1.3-0.2,1.9c-0.1,1.2-0.2,2.3-0.3,3.5L29.3,53.8z"/>
<path class="st0" d="M44,36.5c1.3,0.3,2.6-0.1,3.4-1.2c1.6-2.1,3.2-4.1,4.9-6.2c0.1-0.2,0.2-0.4,0.2-0.7c0-3.6-0.1-7.3-0.1-10.9
	c-0.1-1.3,0.5-2.5,1.5-3.2c1.6-1.1,3.7-0.7,4.8,0.9c0.4,0.5,0.6,1.1,0.6,1.8c0.3,4.6,0.7,9.3,1,14c0.1,1.9-0.4,3.7-1.6,5.2
	c-2.9,3.8-8.5,7.7-11.4,11.5C47,48,46.9,48.3,47,48.7c0.2,1.8,0.3,3.7,0.5,5.5c0,0.1,0,0.3,0,0.4c0.1,0.5-0.3,1-0.9,1.1
	c-0.1,0-0.1,0-0.2,0H35.6c-0.5,0.1-1-0.3-1.1-0.9c0,0,0-0.1,0-0.1c0-4.5-0.1-9-0.1-13.5c0-2.1,0.8-4.1,2.1-5.7
	c2.7-3.3,5.4-6.5,8.1-9.8c1-1.3,2.9-1.6,4.3-0.6c1.3,1,1.6,2.9,0.6,4.3c0,0,0,0.1-0.1,0.1c-1.7,2.2-3.4,4.4-5.1,6.6
	C44.3,36.2,44.2,36.4,44,36.5z M45.5,53.8c-0.2-1.8-0.3-3.5-0.5-5.2c-0.1-0.6,0.1-1.2,0.5-1.7c3-3.9,8.6-7.8,11.5-11.7
	c0.9-1.1,1.3-2.5,1.2-4c-0.2-3.4-0.5-6.8-0.7-10.2c-0.1-1.3-0.2-2.6-0.3-3.9c-0.1-0.8-0.8-1.5-1.6-1.4c-0.1,0-0.3,0-0.4,0.1
	c-0.7,0.3-1.1,1-1,1.7c0,3.8,0.1,7.6,0.1,11.4c0,0.5-0.1,0.9-0.4,1.2c-1.7,2.1-3.3,4.2-4.9,6.3c-1.5,2.1-4.4,2.7-6.7,1.5
	c-1-0.5-1-1-0.4-1.9l5.3-6.9c0.3-0.4,0.5-0.7,0.8-1.2c0.2-0.4,0.1-1-0.2-1.3c-0.3-0.3-0.8-0.4-1.3-0.2c-0.2,0.1-0.4,0.3-0.5,0.5
	c-2.7,3.2-5.3,6.4-8,9.6c-1.2,1.4-1.8,3.2-1.8,5c0,3.9,0.1,7.8,0.1,11.7v0.5H45.5z"/>
<path class="st0" d="M32.8,4.1c0.9-0.7,1.8-1.4,2.7-2c3.3-2,7.5-2,10.8,0c3.4,1.8,5.5,5.4,5.4,9.3c0.1,3-1.1,5.8-3.2,7.8L33.8,34
	c-0.3,0.5-0.9,0.7-1.4,0.4c-0.2-0.1-0.3-0.2-0.4-0.4c-4.9-4.9-9.9-9.8-14.8-14.8c-3.4-3.3-4.2-8.4-2.1-12.6c1.5-3.3,4.6-5.5,8.2-5.9
	c3.4-0.5,6.8,0.6,9.2,3.1L32.8,4.1C32.8,4,32.8,4.1,32.8,4.1z M32.9,32.2l0.3-0.2l14-14.1c3.5-3.5,3.6-9.1,0.1-12.6
	c-2.4-2.5-6-3.3-9.3-2.2c-1.6,0.6-3,1.6-4.2,2.9c-0.7,0.8-1.2,0.8-2,0c-0.6-0.6-1.2-1.1-1.8-1.6c-4-2.9-9.6-2.1-12.5,1.9
	c-2.7,3.6-2.2,8.7,1.1,11.8l9.4,9.4L32.9,32.2z"/>
</svg>
