<svg id="Layer_1" data-name="Layer 1" xmlns="http://www.w3.org/2000/svg" viewBox="0 0 65.54 56.73"><defs><style>.cls-1{fill:#0d3f60;}</style></defs><path class="cls-1" d="M32.66,55.32a4.08,4.08,0,0,1-2.81-1.13l-4.5-4.34C22.16,46.77,19,43.7,15.8,40.59a6.41,6.41,0,0,1-2.25-5.32,6.56,6.56,0,0,1,3.56-4.7,3.51,3.51,0,0,1,4.57.44c2.83,2.58,5.78,5.16,8.63,7.65l2.74,2.41c1.81-1.69,3.76-3.3,5.65-4.86,2.2-1.82,4.28-3.53,6.16-5.35a6.2,6.2,0,0,0,.76-7.9c-.25-.39-.52-.76-.8-1.14L43.28,19.7l1.89,0c4.69.08,9,4.4,9.53,9.43.5,5.3-3.81,10-5.14,11.34C45.8,44.23,41.91,48,38.15,51.6l-2.66,2.57A4.08,4.08,0,0,1,32.66,55.32ZM19.19,31.83a2.19,2.19,0,0,0-1.12.38,4.77,4.77,0,0,0-2.64,3.29,4.65,4.65,0,0,0,1.7,3.74c3.16,3.1,6.35,6.17,9.53,9.24l4.5,4.34a2.17,2.17,0,0,0,3,0l2.66-2.56c3.93-3.79,7.65-7.37,11.39-11.08,2.44-2.42,4.92-6.27,4.59-9.82a9,9,0,0,0-5.51-7.28,8.08,8.08,0,0,1-1.12,10.16c-1.93,1.87-4.14,3.69-6.27,5.46s-4.24,3.5-6.18,5.36l-.63.6-.66-.57-3.38-3c-2.86-2.5-5.81-5.09-8.66-7.68A1.8,1.8,0,0,0,19.19,31.83Z"/><path class="cls-1" d="M33,39.89l-3.7-3.28L21.65,29.8c-1.75-1.55-3.35-1.58-5-.1a19.16,19.16,0,0,0-2,2.2c-.3.36-.59.72-.9,1.07l-.89,1-.65-1.19c-1.8-3.28-.29-8.57,3.3-11.54,4.73-3.91,10.75-3.26,17,1.81a24.45,24.45,0,0,1,3.26-1.45c.81-.32,1.57-.61,2.37-1,2.66-1.3,4.93-.51,6.75,2.35s1.54,5-.62,7.1c-1.77,1.71-3.57,3.19-5.31,4.63s-3.51,2.89-5.28,4.58Zm-14-13.18a5.85,5.85,0,0,1,3.86,1.67l7.69,6.81L33,37.31c1.61-1.49,3.2-2.8,4.75-4.08,1.79-1.47,3.49-2.87,5.21-4.52,1.47-1.42,1.57-2.79.34-4.72-1.62-2.53-3-2.3-4.32-1.67-.88.43-1.71.75-2.53,1.07A20.69,20.69,0,0,0,32.9,25l-.58.36-.53-.45c-4-3.39-9.89-6.53-15.1-2.22a9.07,9.07,0,0,0-3.32,7.71,18.24,18.24,0,0,1,2-2.15A5.59,5.59,0,0,1,19.05,26.71Z"/><path class="cls-1" d="M23.24,18.09a7.86,7.86,0,0,1-7.85-7.66,7.91,7.91,0,0,1,7.89-8.21h.13a7.91,7.91,0,0,1,7.81,7.83h0A7.84,7.84,0,0,1,29,15.7a8,8,0,0,1-5.69,2.39Zm.17-14h-.1A6.11,6.11,0,0,0,19,6a6.18,6.18,0,0,0-1.69,4.45,6,6,0,0,0,6,5.79h.07a6.14,6.14,0,0,0,4.35-1.81,6,6,0,0,0,1.65-4.3h0A6,6,0,0,0,23.41,4.12Z"/><path class="cls-1" d="M42,18.08H41.8a7.83,7.83,0,0,1-7.71-8h0a7.92,7.92,0,0,1,2.37-5.58A7.72,7.72,0,0,1,42,2.22a7.91,7.91,0,0,1,7.88,8.21,7.68,7.68,0,0,1-2.41,5.45A7.91,7.91,0,0,1,42,18.08Zm-6-8a5.88,5.88,0,0,0,5.85,6.1,6,6,0,0,0,4.35-1.67A5.82,5.82,0,0,0,48,10.39a6,6,0,0,0-6-6.27,5.88,5.88,0,0,0-4.21,1.7A6,6,0,0,0,36,10.08Z"/></svg>