<?xml version="1.0" encoding="utf-8"?>
<!-- Generator: Adobe Illustrator 25.2.1, SVG Export Plug-In . SVG Version: 6.00 Build 0)  -->
<svg version="1.1" id="Layer_1" xmlns="http://www.w3.org/2000/svg" xmlns:xlink="http://www.w3.org/1999/xlink" x="0px" y="0px"
	 viewBox="0 0 65.5 56.7" style="enable-background:new 0 0 65.5 56.7;" xml:space="preserve">
<style type="text/css">
	.st0{fill:#FFFFFF;}
</style>
<path class="st0" d="M48.2,25.8C47,17.4,39.8,12,30.9,12.7c-4.5,0.3-8.6,2.5-11.3,6c-2.5,3.2-3.5,7.3-2.7,11.2
	c0.6,2.9,2.1,5.7,4.1,7.9c1.6,1.8,3,3.9,2.6,6.5c0,0.4,0,0.9,0.1,1.3l0.1,0.4c0.1,0.7,0.5,1.4,1,1.9c-0.4,0.3-0.6,0.8-0.6,1.3
	c0,0.6,0.3,1.1,0.7,1.5c-0.4,0.3-0.7,0.8-0.7,1.4c0,0.8,0.5,1.5,1.2,1.8h0.2c-0.2,0.3-0.2,0.6-0.2,0.9c0,0.7,0.4,1.4,1.1,1.8
	c0.2,0.1,0.4,0.1,0.6,0.2c0.9,0.1,1.7,0.1,2.5,0.1H31h3c1.3,0,2.7,0,4.1-0.1c0.2,0,0.4-0.1,0.6-0.1c0.9-0.4,1.3-1.6,0.9-2.5
	c0-0.1-0.1-0.1-0.1-0.2c0.7-0.3,1.2-1,1.2-1.8c0-0.5-0.3-1.1-0.7-1.4c0.5-0.4,0.7-0.9,0.7-1.5c0-0.5-0.2-0.9-0.6-1.2
	c0.4-0.4,0.8-0.9,0.9-1.5c0.3-0.8,0.4-1.7,0.3-2.6c-0.1-1.9,0.6-3.7,1.9-5.1c0.8-1,1.7-2,2.4-3.1C47.9,32.3,48.7,29,48.2,25.8z
	 M38,55.2c-1.3,0.1-2.7,0.1-4,0.1c-1,0-2,0-3.1,0c-1.3,0-2.7,0-4-0.1c-0.1-0.1-0.2-0.2-0.2-0.3c0-0.1,0-0.2,0.1-0.3
	c1.8,0,3.7-0.1,5.5-0.1s3.7,0,5.6,0.1c0.2,0.1,0.2,0.2,0.2,0.3C38.2,55,38.1,55.1,38,55.2z M38.9,52.5L38.9,52.5
	c-1.6,0.1-3.2,0.1-4.7,0.1h-3.6c-1.5,0-3.1,0-4.6-0.1h-0.1c-0.1,0-0.2-0.2-0.2-0.3c0-0.1,0.1-0.2,0.2-0.3h0.1c2.1,0,4.3-0.1,6.4-0.1
	c2.1,0,4.3,0,6.4,0.1h0.1c0.1,0,0.2,0.2,0.2,0.3C39.1,52.3,39,52.4,38.9,52.5L38.9,52.5z M38.9,49.6L38.9,49.6
	c-1.6,0.1-3.2,0.1-4.7,0.1c-1.2,0-2.4,0-3.5,0c-1.5,0-3.1,0-4.6-0.1h-0.1c-0.1,0-0.2-0.2-0.2-0.3c0-0.1,0.1-0.2,0.2-0.3H26
	c2.1,0,4.3-0.1,6.4-0.1s4.3,0,6.4,0.1h0.1c0.1,0,0.2,0.2,0.2,0.3C39.1,49.4,39,49.6,38.9,49.6L38.9,49.6z M33.2,47.4h-1l-2.4-12.7
	l1.7,1.3c0.5,0.3,1.1,0.3,1.6,0l2.1-1.4L33.2,47.4z M44.3,34.8c-0.7,1-1.5,2-2.3,3c-1.5,1.7-2.3,3.9-2.2,6.2c0,0.7-0.1,1.4-0.3,2
	c-0.2,0.8-1,1.4-1.8,1.3h-3l2.1-12.9c0.1-0.8-0.4-1.5-1.1-1.6c-0.4-0.1-0.7,0-1,0.2l-2.3,1.6l-1.9-1.4c-0.5-0.3-1.1-0.4-1.6-0.1
	c-0.5,0.3-0.7,0.9-0.6,1.4l2.3,12.8c-1,0-2.1,0-3.1,0c-1.1,0.2-2-0.5-2.2-1.6c0,0,0-0.1,0-0.1c0-0.1-0.1-0.3-0.1-0.4
	c-0.1-0.2-0.1-0.5-0.1-0.7c0.5-3.3-1.2-5.8-3-7.7c-1.9-2-3.2-4.5-3.8-7.2c-0.7-3.5,0.2-7.2,2.4-10c2.5-3.2,6.2-5.1,10.3-5.4
	c0.5,0,0.9-0.1,1.3-0.1c7.5,0,13.3,4.7,14.4,11.8C47.2,28.9,46.4,31.8,44.3,34.8z"/>
<path class="st0" d="M21.5,26.7L21.5,26.7c-0.5,0-0.8-0.4-0.8-0.8c0-0.1,0.6-7.4,7.2-9c0.4-0.1,0.8,0.3,0.9,0.7
	c0,0.4-0.2,0.7-0.5,0.8c-5.5,1.3-6,7.3-6,7.6C22.3,26.4,22,26.7,21.5,26.7C21.5,26.7,21.5,26.7,21.5,26.7z"/>
<path class="st0" d="M32.6,8.7c-0.4,0-0.8-0.3-0.8-0.8c0,0,0,0,0,0V0.6c0-0.4,0.3-0.8,0.7-0.8c0,0,0,0,0,0c0.4,0,0.8,0.3,0.8,0.7
	c0,0,0,0,0,0v7.3C33.4,8.3,33,8.7,32.6,8.7C32.6,8.7,32.6,8.7,32.6,8.7z"/>
<path class="st0" d="M52.7,24c-0.3,0-0.7-0.2-0.7-0.6c-0.1-0.4,0.1-0.8,0.5-0.9c0,0,0,0,0,0l7.1-1.8c0.4-0.1,0.8,0.1,0.9,0.5
	c0.1,0.4-0.1,0.8-0.5,0.9L52.9,24C52.8,24,52.8,24,52.7,24z"/>
<path class="st0" d="M12.2,24h-0.1l-7.4-1.2c-0.4-0.1-0.7-0.5-0.6-0.9s0.5-0.7,0.9-0.6l7.4,1.2c0.4,0.1,0.7,0.5,0.5,0.9
	C12.8,23.7,12.5,24,12.2,24z"/>
<path class="st0" d="M19.2,12.7c-0.2,0-0.4-0.1-0.5-0.2l-4.8-4.9c-0.3-0.3-0.3-0.8,0-1.1c0.3-0.3,0.8-0.3,1.1,0l0,0l4.8,4.9
	c0.3,0.3,0.3,0.8,0,1.1c0,0,0,0,0,0C19.6,12.6,19.4,12.7,19.2,12.7z"/>
<path class="st0" d="M46.3,12.7c-0.2,0-0.4-0.1-0.6-0.2c-0.3-0.3-0.3-0.8,0.1-1.1l4.8-4.3c0.3-0.3,0.8-0.3,1.1,0.1c0,0,0,0,0,0
	c0.3,0.3,0.3,0.8,0,1.1c0,0,0,0,0,0l-4.8,4.3C46.7,12.6,46.5,12.7,46.3,12.7z"/>
<path class="st0" d="M58.2,39c-0.1,0-0.3,0-0.4-0.1l-6.5-3.6c-0.4-0.2-0.5-0.6-0.3-1c0.2-0.3,0.6-0.5,1-0.3l6.5,3.6
	c0.3,0.2,0.5,0.6,0.3,1C58.7,38.8,58.5,39,58.2,39z"/>
<path class="st0" d="M7.7,39.6c-0.4,0-0.8-0.3-0.8-0.8c0-0.3,0.1-0.5,0.3-0.6l5.5-3.7c0.3-0.3,0.8-0.2,1.1,0.1s0.2,0.8-0.1,1.1
	c0,0-0.1,0.1-0.1,0.1l-5.5,3.7C8,39.5,7.8,39.6,7.7,39.6z"/>
</svg>
