<?xml version="1.0" encoding="utf-8"?>
<!-- Generator: Adobe Illustrator 25.2.1, SVG Export Plug-In . SVG Version: 6.00 Build 0)  -->
<svg version="1.1" id="Layer_1" xmlns="http://www.w3.org/2000/svg" xmlns:xlink="http://www.w3.org/1999/xlink" x="0px" y="0px"
	 viewBox="0 0 65.5 56.7" style="enable-background:new 0 0 65.5 56.7;" xml:space="preserve">
<style type="text/css">
	.st0{fill:#0D3F60;}
</style>
<path class="st0" d="M43.1,25.1c-0.6,0-1.2-0.4-1.2-1.1c-0.1-1.1-1.1-1.9-2.2-1.9l0,0c-1.1,0-1.9,0.8-2.1,1.9
	c-0.1,0.7-0.7,1.2-1.4,1.1s-1.2-0.7-1.1-1.4c0-0.1,0-0.1,0-0.2c0.3-2.3,2.3-4,4.6-4l0,0c2.3,0,4.3,1.7,4.7,4
	c0.1,0.7-0.4,1.3-1.1,1.4L43.1,25.1z"/>
<path class="st0" d="M29.4,25.1c-0.6,0-1.2-0.4-1.2-1.1c-0.1-1.1-1.1-1.9-2.1-1.9l0,0c-1.1,0-1.9,0.8-2.1,1.9
	c-0.1,0.7-0.7,1.2-1.4,1.1s-1.2-0.7-1.1-1.4c0-0.1,0-0.1,0-0.2c0.3-2.3,2.3-4,4.6-4l0,0c2.3,0,4.3,1.7,4.6,4.1
	c0.1,0.7-0.4,1.3-1.1,1.4L29.4,25.1z"/>
<path class="st0" d="M32.3,41.7h-0.2c-11.4,0-13.6-8.6-13.9-10.3c-0.1-0.6,0.4-1.2,1-1.3c0.6-0.1,1.1,0.3,1.2,0.8
	c0.3,1.4,2,8.4,11.6,8.4h0.2c9.6,0,11.4-7,11.6-8.4c0.1-0.6,0.7-1,1.3-0.9c0.6,0.1,1,0.7,0.9,1.3C45.8,33.2,43.7,41.7,32.3,41.7z"/>
<path class="st0" d="M32.2,53.3c-13.7,0-24.8-11.1-24.8-24.8S18.5,3.8,32.2,3.8s24.8,11.1,24.8,24.8C56.9,42.2,45.8,53.3,32.2,53.3z
	 M32.2,6.1C19.8,6.1,9.7,16.2,9.7,28.6S19.8,51,32.2,51S54.6,41,54.6,28.6C54.6,16.2,44.6,6.1,32.2,6.1z"/>
</svg>
