<svg id="Layer_1" data-name="Layer 1" xmlns="http://www.w3.org/2000/svg" viewBox="0 0 348 282.35"><defs><style>.cls-1{fill:#f9da78;}.cls-2{fill:#ffcb05;}.cls-3{fill:#00a0cc;}.cls-4{fill:#ec1651;}.cls-5{fill:#4f4a47;}.cls-11,.cls-6{fill:none;stroke-linecap:round;stroke-miterlimit:10;}.cls-6{stroke:#108ab2;stroke-width:3px;}.cls-7{fill:#a1cbec;}.cls-8{fill:#fff;}.cls-9{fill:#0d3f60;}.cls-10{fill:#0b4366;}.cls-11{stroke:#0b4366;}.cls-12{fill:#959799;}.cls-13{fill:#b0b4b7;}.cls-14{fill:#f4eddf;}.cls-15{fill:#bcbfc1;}.cls-16{fill:#ced6dc;}.cls-17{fill:#c2c8cc;}.cls-18{fill:#0a0a0a;}</style></defs><polyline class="cls-1" points="0 282.35 0 0 348 0 348 282.35"/><polyline class="cls-2" points="0 281.1 0 269.85 348 269.85 348 281.1"/><polyline class="cls-3" points="177.75 269.67 181.12 247.37 171.37 247.37 174.77 270.31 177.37 268.67"/><polyline class="cls-3" points="160.73 268.49 156.49 248.01 167.07 248.01 163.27 269.67 159.63 268.49"/><polygon class="cls-4" points="159.56 262.52 164.66 262.52 163.41 269.85 160.31 269.85 159.56 262.52"/><polygon class="cls-4" points="173.53 262.82 178.63 262.82 177.87 270.14 174.77 270.14 173.53 262.82"/><path class="cls-5" d="M153.17,270.31a5.22,5.22,0,1,1,10.44,0"/><path class="cls-5" d="M174.78,270.31a5.22,5.22,0,1,1,10.44,0"/><path class="cls-6" d="M202.6,218.61s7.46,2.57,9.3,18.56"/><path class="cls-7" d="M208.84,236.49a3.2,3.2,0,0,1,2.93-2c1.87-.16,3.59.89,3.81,2.34l.56,3.56a.22.22,0,0,0,0,.08s0,0,0,0l.75,4.82c.06.38-.3.72-.79.76a.88.88,0,0,1-1-.61l-.41-2.62a4.89,4.89,0,0,1-.7.29l.49,3.14c.06.37-.29.72-.78.76a.89.89,0,0,1-1-.61l-.49-3.14a4.15,4.15,0,0,1-.7-.15l.43,2.7c.05.38-.3.72-.79.76a.88.88,0,0,1-1-.61l-.7-4.5a2.13,2.13,0,0,1-.13-.43l-.21.89a.9.9,0,0,1-1,.55h0c-.48-.07-.81-.43-.72-.81"/><path class="cls-6" d="M137.44,218.61s-7.47,2.57-9.3,18.56"/><path class="cls-7" d="M131.2,236.49a3.2,3.2,0,0,0-2.93-2c-1.87-.16-3.59.89-3.82,2.34l-.55,3.56a.22.22,0,0,1,0,.08s0,0,0,0l-.75,4.82c-.06.38.3.72.78.76a.89.89,0,0,0,1-.61l.41-2.62a4.89,4.89,0,0,0,.7.29l-.49,3.14c-.06.37.29.72.78.76a.89.89,0,0,0,1-.61l.49-3.14a3.84,3.84,0,0,0,.69-.15l-.42,2.7c-.06.38.3.72.79.76a.86.86,0,0,0,1-.61l.71-4.5a2.13,2.13,0,0,0,.13-.43l.21.89a.9.9,0,0,0,1,.55h0c.48-.07.81-.43.72-.81"/><path class="cls-3" d="M134.7,223.18c0-15.14,7.52-29.84,17.25-40.33,25.1-27,53.05,12,53.05,41.58,0,21.83-17.28,27.12-34.58,27.12S134.7,245,134.7,223.18Z"/><path class="cls-8" d="M238.17,140.58a43.51,43.51,0,0,1-12.46-1.89,1.73,1.73,0,0,0-2.46,1.09,32.94,32.94,0,0,1-12.88,14.51,41.14,41.14,0,0,1-17.19,6.1,45.39,45.39,0,0,1-13.27-.26,40.22,40.22,0,0,1-21.39-10.49,1.54,1.54,0,0,0-2.38-.09,41.91,41.91,0,0,1-20.6,8.27,43.58,43.58,0,0,1-20.89-2.3c-9.21-3.38-16.52-9.12-20.76-18.22a26.1,26.1,0,0,1-2-15.82c.27-1.56.07-2-1.58-2.2a39,39,0,0,1-13.93-4.87c-8.58-5-14.7-11.93-16.49-22a26.68,26.68,0,0,1,4.08-19.74c4.46-6.91,10.81-11.4,18.34-14.27a65.16,65.16,0,0,1,8.9-2.26c1.11-.25,1.43-.71,1.28-1.82C91.35,46.05,94,38.9,99.32,32.6a35.13,35.13,0,0,1,13-9.64,44.65,44.65,0,0,1,40,1.75,1.39,1.39,0,0,0,2.11-.46,35.05,35.05,0,0,1,9.26-8.46A42.39,42.39,0,0,1,184,9.33a43.85,43.85,0,0,1,19.35,3c9.23,3.75,16.29,9.81,20.15,19.21a19.31,19.31,0,0,1,1,3.13c.21,1,.72,1.25,1.67,1.2,2.67-.15,5.36-.4,8-.3,10.66.39,20.09,4,27.7,11.6,6.15,6.12,9.33,13.64,8.78,22.45a27.78,27.78,0,0,1-5,13.68c-1.07,1.62-1.08,1.7.34,2.94a30.69,30.69,0,0,1,8.62,12.21,26.5,26.5,0,0,1,.9,16.8c-2.62,9.64-9,16.12-17.65,20.62A43.83,43.83,0,0,1,238.17,140.58Z"/><path class="cls-8" d="M128.62,169.77a6.56,6.56,0,1,1,6.59,6.47A6.55,6.55,0,0,1,128.62,169.77Z"/><path class="cls-8" d="M142,183.81a3.4,3.4,0,0,1,0-6.79,3.4,3.4,0,1,1,0,6.79Z"/><path class="cls-8" d="M167.69,195.6a4.56,4.56,0,1,1-9.11,0"/><path class="cls-9" d="M165.11,195.59a2,2,0,1,1-3.94,0"/><path class="cls-8" d="M181.29,195.6a4.56,4.56,0,1,1-9.11,0"/><path class="cls-9" d="M178.71,195.59a2,2,0,1,1-3.94,0"/><path class="cls-10" d="M163.91,204.91a10.82,10.82,0,0,1,2.17.46c.74.22,1.48.44,2.23.6a8.11,8.11,0,0,0,4.12-.2,19.88,19.88,0,0,1,3.41-.8,4.88,4.88,0,0,1,3.77,1.08,11.23,11.23,0,0,1,.86.83c.13.13.26.29,0,.44s-.37.38-.64.15-.28-.28-.42-.42a4.19,4.19,0,0,0-3.9-1.18,16.63,16.63,0,0,0-2.76.69,8.77,8.77,0,0,1-5.22.13c-.87-.23-1.74-.49-2.61-.73a3.44,3.44,0,0,0-3.94,1.3c-.2.27-.35.34-.65.13s-.31-.33-.11-.58A4.53,4.53,0,0,1,163.91,204.91Z"/><path class="cls-11" d="M159.06,190.53a7.68,7.68,0,0,0,7.66,0"/><path class="cls-11" d="M172.91,190.53a7.68,7.68,0,0,0,7.66,0"/><rect class="cls-12" x="136.38" y="119.24" width="12.57" height="19.79"/><rect class="cls-12" x="179.18" y="119.17" width="12.57" height="19.79"/><path class="cls-13" d="M203.86,93.36c0-21.13-18.94-38.25-42.3-38.25-21.83,0-39.79,15-42,34.15h-.24v51.89h19V125.28a45.3,45.3,0,0,0,23.3,6.33,49.47,49.47,0,0,0,5.05-.27v9.81h19V124.83C196.63,117.93,203.86,106.41,203.86,93.36Z"/><path class="cls-14" d="M202.39,97.18s.83,10.7,8.83,10.13c0,0-.48,3-4.29,2.08s-9.41-4.1-10.26-12.4Z"/><path class="cls-14" d="M173.7,97.18s-.83,10.7-8.83,10.13c0,0,.48,3,4.3,2.08s9.4-4.1,10.25-12.4Z"/><path class="cls-15" d="M181.68,70.12c0,14.84-6.61,26.88-19,26.88s-26-19.33-26-34.18,10.07-19.57,22.49-19.57S181.68,55.28,181.68,70.12Z"/><path class="cls-15" d="M193.87,71.66c0,14.84,6.61,26.87,19,26.87S238.85,80,238.85,65.13s-10.07-20.34-22.49-20.34S193.87,56.82,193.87,71.66Z"/><path class="cls-16" d="M215.07,71.29c0,17.39-16.73,31.5-27.06,31.5-11.59,0-26.68-14.11-26.68-31.5s11.1-25,26.68-25S215.07,53.89,215.07,71.29Z"/><path class="cls-16" d="M205.12,117.3l0-.13s-12.33-1.37-11.36-16.58l-11.67-.38s-.07,26.26,23.87,26.26c2.22,0,3.83-3,3.25-5.48S207.24,116.9,205.12,117.3Z"/><path class="cls-17" d="M161,72.56s17.55-5.93,18.44,2,2.64,27.16,2.64,27.16S160.39,93.45,161,72.56Z"/><path class="cls-17" d="M215.05,72.56s-17.94-5.93-18.82,2-2.65,27.16-2.65,27.16S215.64,93.45,215.05,72.56Z"/><circle class="cls-18" cx="172.15" cy="78.6" r="2.02"/><circle class="cls-18" cx="201.65" cy="78.6" r="2.02"/><ellipse class="cls-17" cx="206.63" cy="121.88" rx="3.05" ry="4.58"/><path class="cls-17" d="M199.64,116.81a5.36,5.36,0,0,0-1,6.79"/><path class="cls-17" d="M197.23,115.18a5.34,5.34,0,0,0-1.57,6.68"/><path class="cls-17" d="M195.47,113.58a5.35,5.35,0,0,0-3.49,5.91"/><path class="cls-13" d="M119.51,89.26s-6.16,3.17-6.89,16.27"/></svg>