<?xml version="1.0" encoding="UTF-8"?>
<svg xmlns="http://www.w3.org/2000/svg" xmlns:xlink="http://www.w3.org/1999/xlink" viewBox="0 0 1334 1000">
  <defs>
    <style>
      .cls-1 {
        stroke: #000;
        stroke-width: .2px;
      }

      .cls-1, .cls-2 {
        stroke-miterlimit: 10;
      }

      .cls-2 {
        fill: none;
        stroke: #4f2e25;
        stroke-width: .75px;
      }

      .cls-3 {
        fill: #13110f;
      }

      .cls-4 {
        fill: #0f1f28;
      }

      .cls-5 {
        fill: #1c3f1c;
      }

      .cls-6 {
        fill: #010101;
      }

      .cls-7 {
        fill: #1d3942;
      }

      .cls-8 {
        fill: #653c29;
      }

      .cls-9 {
        fill: #331d17;
      }

      .cls-10 {
        fill: #51352d;
      }

      .cls-11 {
        fill: #f1eef7;
      }

      .cls-12 {
        fill: #181311;
      }

      .cls-13 {
        fill: #322313;
      }

      .cls-14 {
        fill: #a66e53;
      }

      .cls-15 {
        fill: #31160e;
      }

      .cls-16 {
        fill: #0a2f44;
      }

      .cls-17 {
        fill: #2a3784;
      }

      .cls-18 {
        fill: #ce8d2a;
      }

      .cls-19 {
        fill: #c95744;
      }

      .cls-20 {
        fill: url(#linear-gradient);
        opacity: .5;
      }

      .cls-21 {
        fill: #634836;
      }

      .cls-22 {
        fill: #5b1a13;
      }

      .cls-23 {
        fill: #66403a;
      }

      .cls-24 {
        fill: #8a4a20;
      }

      .cls-25 {
        fill: #0d0b09;
      }

      .cls-26 {
        fill: #df8c26;
      }

      .cls-27 {
        fill: #513835;
      }

      .cls-28 {
        fill: #080807;
      }

      .cls-29 {
        fill: #b15e27;
      }

      .cls-30 {
        fill: #f2ebd1;
      }

      .cls-31 {
        fill: #5d483b;
      }

      .cls-32 {
        fill: #28160e;
      }

      .cls-33 {
        fill: #21572b;
      }

      .cls-34 {
        fill: #0f122c;
      }

      .cls-35 {
        fill: #87654d;
      }

      .cls-36 {
        fill: #4a1b0f;
      }

      .cls-37 {
        fill: #a43728;
      }

      .cls-38 {
        fill: #4f2e25;
      }
    </style>
    <linearGradient id="linear-gradient" x1="-4924.15" y1="7311.13" x2="-3936.53" y2="7311.13" gradientTransform="translate(-6643.15 4922.11) rotate(90) scale(1 -1)" gradientUnits="userSpaceOnUse">
      <stop offset="0" stop-color="#f0ebe0"/>
      <stop offset=".18" stop-color="#eee8dd" stop-opacity=".99"/>
      <stop offset=".33" stop-color="#e8e1d4" stop-opacity=".97"/>
      <stop offset=".46" stop-color="#ded4c5" stop-opacity=".93"/>
      <stop offset=".59" stop-color="#d0c2b0" stop-opacity=".88"/>
      <stop offset=".72" stop-color="#bdab95" stop-opacity=".82"/>
      <stop offset=".84" stop-color="#a78e73" stop-opacity=".73"/>
      <stop offset=".96" stop-color="#8d6d4d" stop-opacity=".64"/>
      <stop offset="1" stop-color="#83603d" stop-opacity=".6"/>
    </linearGradient>
  </defs>
  <g id="Layer_3" data-name="Layer 3">
    <polyline class="cls-30" points="1372.21 968.42 1372.21 -16.44 -16.52 -16.44 -16.52 968.42"/>
    <polyline class="cls-20" points="1362.34 982.32 -26.39 982.32 -26.39 -5.3 1362.34 -5.3"/>
    <rect class="cls-10" x="-28.63" y="943.84" width="1390.55" height="96.09"/>
    <polygon class="cls-24" points="1406.95 1039.93 -61.48 1039.93 -6.96 966.48 1352.43 966.48 1406.95 1039.93"/>
    <polygon class="cls-32" points="91.7 876.18 146.57 876.18 134.07 945.02 91.7 945.02 91.7 876.18"/>
    <polygon class="cls-32" points="1155.13 877.48 1100.26 877.48 1112.76 946.32 1155.13 946.32 1155.13 877.48"/>
    <path class="cls-31" d="M1149.87,686.95l-1.03-.39-1.83-72.89c-2.71-55.01-17.59-94.93-49.23-98.03-21.54,0-94.42-1-101.67,4.58-2.01-95.56,8.37-171.8-147.73-171.8l-172.08.42c-1.84,42.18-6.84,84.22-13.05,125.98-7.79,52.38,7.47,104.44-.51,156.78-4.01,26.31,30.63,52.81,27.23,79.2-3.46,26.89-6.96,53.77-10.36,80.67-5.17,40.9-10.13,81.86-14.4,122.89h491.24v-85.25c12.23-4,20.73-17.22,20.8-32.34v-60.81c-.04-23.3-9.91-38.51-27.36-49Z"/>
    <path class="cls-31" d="M691.76,913.63c.48-11.98.94-23.95,1.31-35.93.84-27.56,29.13-55.12,29.13-82.69l-6.4-446.27-370.27-1.05c-80.17.01-93.51,76.24-95.53,171.8-7.26-5.58-80.13-4.58-101.67-4.58-31.65,3.1-46.52,43.02-49.23,98.03l-1.83,72.89-1.03.39c-17.45,10.49-27.32,25.7-27.36,49v60.81c.07,15.12,8.57,28.34,20.8,32.34v85.25h602.1Z"/>
    <path class="cls-25" d="M96.43,835.09h1054.89c.29,0,1.63-.55.95-.55H97.38c-.29,0-1.63.55-.95.55h0Z"/>
    <path class="cls-25" d="M101.93,690.4c.61,0,1.22,0,1.83,0h5.32c2.9-.01,5.8-.02,8.71-.02l11.8-.02c4.95,0,9.91-.02,14.86-.03,5.85-.01,11.7-.02,17.55-.03,6.76-.01,13.52-.02,20.29-.04l22.58-.04,24.99-.04c8.96-.02,17.93-.03,26.89-.05,9.66-.02,19.31-.03,28.97-.05,10.16-.02,20.32-.04,30.48-.05l32.22-.06c11.12-.02,22.24-.04,33.35-.06s23.17-.04,34.75-.06c11.84-.02,23.67-.04,35.51-.06l36.55-.06c12.31-.02,24.63-.04,36.94-.07s25.09-.04,37.63-.07c12.55-.02,25.1-.04,37.65-.07s25.32-.04,37.99-.07,25.1-.04,37.64-.07c12.54-.02,25.08-.04,37.62-.07s24.61-.04,36.92-.07c12.17-.02,24.35-.04,36.52-.06s23.65-.04,35.47-.06c11.57-.02,23.14-.04,34.71-.06,11.1-.02,22.2-.04,33.3-.06,10.69-.02,21.37-.04,32.06-.06s20.35-.04,30.52-.05c9.6-.02,19.2-.03,28.8-.05,8.97-.02,17.94-.03,26.9-.05,8.27-.01,16.55-.03,24.82-.04,7.52-.01,15.04-.03,22.56-.04l20.12-.04c5.83-.01,11.67-.02,17.5-.03,4.9,0,9.8-.02,14.7-.03l11.72-.02,8.56-.02h5.21c.56-.01,1.13-.01,1.69-.01.5,0,1.55-.75.58-.75-.61,0-1.22,0-1.83,0h-5.32c-2.9.01-5.8.02-8.71.02l-11.8.02c-4.95,0-9.91.02-14.86.03-5.85.01-11.7.02-17.55.03-6.76.01-13.52.02-20.29.04l-22.58.04c-8.33.01-16.66.03-24.99.04-8.96.02-17.93.03-26.89.05-9.66.02-19.31.03-28.97.05-10.16.02-20.32.04-30.48.05-10.74.02-21.48.04-32.22.06s-22.24.04-33.35.06-23.17.04-34.75.06-23.67.04-35.51.06c-12.18.02-24.37.04-36.55.06-12.31.02-24.63.04-36.94.07s-25.09.04-37.63.07c-12.55.02-25.1.04-37.65.07s-25.32.04-37.99.07-25.1.04-37.64.07l-37.62.07c-12.31.02-24.61.04-36.92.07-12.17.02-24.35.04-36.52.06l-35.47.06c-11.57.02-23.14.04-34.71.06-11.1.02-22.2.04-33.3.06-10.69.02-21.37.04-32.06.06s-20.35.04-30.52.05c-9.6.02-19.2.03-28.8.05-8.97.02-17.94.03-26.9.05-8.27.01-16.55.03-24.82.04-7.52.01-15.04.03-22.56.04l-20.12.04c-5.83.01-11.67.02-17.5.03-4.9,0-9.8.02-14.7.03l-11.72.02-8.56.02h-5.21c-.56.01-1.13.01-1.69.01-.5,0-1.55.75-.58.75h0Z"/>
    <path class="cls-25" d="M995.06,521.7c-6.96,9.55-13.44,19.71-18.17,30.57-5.33,12.25-6.16,25.37-6.67,38.55-.78,20.28-1.1,40.57-1.5,60.86-.21,10.64-.4,21.28-.63,31.92-.01.6,1.44.3,1.45-.18.44-20.25.77-40.5,1.23-60.76.22-9.65.45-19.3.79-28.95.44-12.48.7-25.32,5-37.19,2.29-6.33,5.47-12.33,8.87-18.12,3.37-5.74,7.06-11.29,10.97-16.67.39-.53-1.07-.42-1.35-.03h0Z"/>
    <path class="cls-25" d="M1033.88,521.53c-7,9.61-13.56,19.83-18.29,30.77-5.26,12.16-6.12,25.17-6.62,38.24-.78,20.36-1.11,40.74-1.51,61.12-.21,10.64-.4,21.28-.63,31.92-.02.72,1.45.48,1.46-.13.44-20.13.77-40.26,1.22-60.39.22-9.73.45-19.45.79-29.18.44-12.53.67-25.46,5.03-37.37,2.28-6.23,5.4-12.16,8.75-17.87,3.38-5.76,7.06-11.34,10.99-16.73.53-.73-.84-.87-1.2-.38h0Z"/>
    <path class="cls-25" d="M251.4,528.31c6.99,9.3,13.54,19.22,18.25,29.88,5.18,11.72,5.98,24.34,6.48,36.98.78,19.68,1.1,39.38,1.5,59.06.21,10.3.4,20.61.63,30.91,0,.37,1.46.12,1.45-.39-.45-19.78-.78-39.55-1.24-59.33-.22-9.42-.46-18.84-.8-28.26-.45-12.25-.8-24.82-5.33-36.38-4.65-11.88-11.97-22.86-19.6-33.02-.26-.34-1.66.14-1.35.54h0Z"/>
  </g>
  <g id="Layer_1" data-name="Layer 1">
    <path class="cls-19" d="M443.99,349.52s-.96.6-2.59,1.68c-7.7,5.1-28.63,14.39-40.46,33.1-10.18,16.08-6.79,40.04,16.38,52.48,23.18,12.43,33.78-39.99,33.78-39.99l-7.11-47.27Z"/>
    <path class="cls-13" d="M970.9,585.55c-8.13-.29-16.57.51-24.22,3.42-3.5,1.33-6.96,3.25-9.48,6.08-2.95,3.31-4.51,7.92-5.6,12.14-2.48,9.57-2.31,19.65-2.58,29.49-.28,10-.55,19.99-.83,29.99l-.97,34.92c-.18,6.43-.46,12.86-.53,19.29,0,.1,0,.19,0,.29-.04,1.59,3.27,1.03,3.31-.31.14-5.15.28-10.3.43-15.45.31-11.11.61-22.23.92-33.34l.87-31.62c.2-7.06.26-14.15.8-21.19.39-5.15,1.11-10.32,2.73-15.23,1.29-3.9,3.04-7.71,6.42-10.21,6.13-4.53,14.56-5.69,21.97-6.03,1.86-.09,3.72-.09,5.59-.03.75.03,1.79-.22,2.15-.97.33-.69-.29-1.21-.96-1.23h0Z"/>
    <path class="cls-13" d="M914.38,589.36c-6.1,8.46-12.3,17.12-15.49,27.16-3.05,9.58-3.25,19.8-3.59,29.76-.57,16.57-.85,33.15-1.17,49.73-.16,8.48-.31,16.96-.5,25.43,0,.44,3.26.03,3.28-.88.35-16.08.61-32.17.96-48.25.17-8.02.36-16.03.62-24.05.3-9.6.35-19.4,2.64-28.78,2.81-11.52,9.66-21.26,16.49-30.73.33-.46-1.2-.29-1.3-.27-.62.11-1.54.32-1.93.87h0Z"/>
    <path class="cls-27" d="M794.37,649.87s.08.03.12.03c0-.1,0-.2,0-.31-.04.09-.08.18-.12.27Z"/>
    <path class="cls-38" d="M795.96,819.72c1.54.49,2.95,1.32,4.22,2.32.18.18.36.28.51.63l-.26-.16c1.32-.25,2.71.02,3.86.69-1.31-.39-2.67-.52-3.94-.22-.08-.23-.21-.38-.47-.59-1.22-1-2.56-1.85-3.92-2.67h0Z"/>
    <rect class="cls-33" x="723.32" y="670.99" width="128.85" height="17.72" rx="3.91" ry="3.91"/>
    <rect class="cls-17" x="731.01" y="658.99" width="104.91" height="12.05" rx="2.91" ry="2.91"/>
    <path class="cls-5" d="M733.85,677.51c-.21.8-.1,1.62.27,2.36s1.08,1.56,1.89,1.87,1.63-.02,2.12-.7c.3-.42.54-.89.81-1.33.31-.52.62-1.04.93-1.56l-.5.06c.44.51.87,1.02,1.31,1.54.39.45.75.95,1.18,1.37.72.72,1.88.66,2.63,0,.39-.35.47-.83.54-1.33s.29-.89.81-1.06c1.26-.43,1.79.97,2.62,1.56.75.54,1.95.72,2.71.11.59-.48.67-1.41,1.56-1.46,1.08-.06,1.54.94,2.25,1.52.76.62,1.84.78,2.68.21s1.27-1.81,2.46-1.58c.45.09.7.44.97.77.3.36.64.63,1.1.75.4.11.57-.51.17-.62-.76-.2-1-1.07-1.69-1.4-.89-.42-1.93-.02-2.55.69-.27.31-.49.66-.85.88-.43.26-.97.29-1.43.09-.4-.18-.7-.51-.98-.84-.29-.35-.63-.66-1.05-.87-.83-.4-1.85-.32-2.42.46-.2.28-.32.62-.57.85-.35.33-.9.33-1.34.21-1.06-.29-1.41-1.43-2.37-1.87-.87-.39-2.07-.11-2.51.78-.25.5-.09,1.22-.5,1.64-.38.38-1.08.53-1.55.24-.21-.13-.37-.34-.53-.53-.24-.28-.48-.56-.71-.84-.49-.57-.98-1.15-1.47-1.72-.14-.16-.41-.1-.5.06-.49.82-.98,1.64-1.47,2.47-.35.58-.81,1.12-1.57.86-.66-.23-1.23-.93-1.55-1.53s-.42-1.29-.25-1.95c.11-.4-.51-.57-.62-.17h0Z"/>
    <path class="cls-5" d="M905.16,703.57c0,4.62,0,9.24,0,13.86,0,1.3,0,2.61,0,3.91,0,.53.82.53.82,0,0-4.62,0-9.24,0-13.86v-3.91c0-.53-.82-.53-.82,0h0Z"/>
    <path class="cls-5" d="M901.75,703.57c-.1,4.61-.11,9.21-.01,13.82.03,1.32.07,2.64.11,3.96.02.53.84.53.82,0-.15-4.6-.21-9.2-.17-13.8.01-1.33.04-2.65.07-3.98.01-.53-.81-.53-.82,0h0Z"/>
    <path class="cls-34" d="M879.38,688.71v11.31c0,.53.82.53.82,0v-11.31c0-.53-.82-.53-.82,0h0Z"/>
    <path class="cls-34" d="M875.65,688.71v11.31c0,.53.82.53.82,0v-11.31c0-.53-.82-.53-.82,0h0Z"/>
    <path class="cls-34" d="M741.27,664.2c-.11-1.01-1.36-1.39-2.12-.77-.84.68-.82,2-.43,2.91s1.21,1.69,2.2,1.84c1.15.18,1.94-.59,2.56-1.46.29-.41.57-.84,1.01-1.11.37-.23.9-.4,1.22,0,.28.34.39.77.74,1.06s.8.33,1.19.14c.68-.33.89-1.22,1.55-1.55.41-.21.77.13,1.02.44.33.42.53.91.87,1.32.39.47.97.88,1.61.76s.87-.68,1.27-1.12c.73-.79,1.98-.98,2.91-.44.46.27.87-.44.42-.71-.8-.46-1.79-.55-2.65-.24-.43.15-.84.39-1.17.71-.16.16-.29.33-.42.51s-.27.41-.49.46c-.42.1-.84-.42-1.04-.72-.28-.41-.48-.85-.81-1.23-.62-.7-1.51-.87-2.25-.25-.27.23-.48.53-.7.81-.13.17-.36.49-.56.52-.33.05-.51-.44-.64-.67-.23-.39-.54-.73-.99-.84-.95-.24-1.86.44-2.41,1.15-.51.67-1.04,1.72-2.03,1.64s-1.7-1.05-1.85-1.94c-.07-.45-.01-1.07.36-1.38.18-.15.74-.2.78.13.06.52.88.53.82,0h0Z"/>
    <g>
      <polygon points="1159.5 770.97 1045.03 770.97 1045.03 749.65 1159.5 749.65 1159.5 554.43 835.96 554.43 835.96 749.65 951.49 749.65 951.49 770.97 835.96 770.97 835.96 785.33 1159.5 785.33 1159.5 770.97"/>
      <polygon class="cls-35" points="773.7 806.45 773.7 928.62 774.2 928.62 774.2 983.56 792.2 983.56 809.36 928.62 1008.39 928.62 1049.94 928.62 1187.63 928.62 1204.78 985.43 1222.78 985.43 1222.78 927.06 1222.6 927.06 1222.6 806.45 773.7 806.45"/>
      <polygon class="cls-35" points="1240.06 799.38 1240.06 785.33 1159.5 785.33 835.96 785.33 757.23 785.33 757.23 799.38 773.7 799.38 1222.6 799.38 1240.06 799.38"/>
      <rect class="cls-21" x="773.7" y="799.38" width="448.9" height="7.07"/>
    </g>
    <path d="M974.29,771.89c21.45.57,43.64,17.16,34.89,40.63-4.68,12.56-15.49,21.16-24.73,30.28-7.57,7.47-13.83,15.67-17.77,25.61-7.42,18.71-6.56,40.89,3.49,58.47,5.89,10.3,14.94,17.83,23.75,25.54,9.16,8.01,17.46,16.8,24.49,26.75,14.18,20.07,33.23,56.72,10.69,77.71-2.5,2.33,3.19,2.52,4.69,1.12,19.65-18.3,9.67-47.21-1.36-67.29-5.99-10.9-13.36-21.04-21.95-30.04-9-9.43-19.91-16.94-28.41-26.86-15.11-17.65-18.15-43.23-10.11-64.7,4.68-12.49,13.4-21.62,22.88-30.67,8.67-8.27,17.43-17.14,20.93-28.94,7.33-24.75-17.6-40.52-39.29-41.1-2.33-.06-6.11,3.39-2.2,3.49h0Z"/>
    <path class="cls-19" d="M426.51,229.81s22.63,5.16,30.52,24.98c6.23,15.64-1.39,54.08-2.14,68.3-1.68,32.02-4.79,67.83-4.79,67.83l-46.39-7.8-3.34-54.01,7.65-102.39,18.49,3.1Z"/>
    <path class="cls-14" d="M345.83,453.61s2.35,115.37,7.57,234.2c4.34,97.75-15.36,224.82-15.36,224.82l-26.27-.45s-18.66-127.52-19.76-229.6c-10.76-81.22-21.06-124.56-21.06-124.56l-1.75-117.45,76.62,13.05Z"/>
    <path class="cls-14" d="M295.85,451s2.35,115.37,7.57,234.2c4.34,97.75-15.36,224.82-15.36,224.82l-26.63-1.06s-18.29-126.91-19.39-228.99c-10.76-81.22-21.06-124.56-21.06-124.56l8.44-86.31,66.43-18.1Z"/>
    <path class="cls-7" d="M369.31,738.31c2.6-88.61,3.93-144.52,3.93-192.25l4.68-118.52c-.45-2.69-.92-5.37-1.33-8.04-3.56.65-2.62,1.16-6.26,1.5-11.89,1.1-19.34.49-31.11-1.24-24.36-3.6-47.58-11.98-69.83-21.37-8.81-3.72-17.51-7.64-26.18-11.61l-.33-12.77c-30.44,6.15-49.13,43.1-52.27,105.44-.97,19.15,16.42,70.31,19.76,113.23,8.46,108.56,22.48,233.18,22.48,233.18,0,0,20.09,13.08,79.98,10.11,13.32-.66,52.72-7.08,52.72-7.08,3.8-18.14,3.22-71.71,3.77-90.57Z"/>
    <path class="cls-19" d="M416.56,356.99c-1.58.8-3.51,1.13-17.01,31.43-2.45,5.49-13.24,26.06-14.31,31.79-5.39-.53-7.62-.03-12.88-1.35-23-5.77-43.67-18.29-62.28-32.67-15.92-12.3-30.53-26.15-44.97-40.14l-2.74-6.48,28.74-81.62,37.49-68.24,44.95-.5-2.47,3.51-1.11,3.4c2.93,10.69,9.05,18.73,19.49,23.54,3.06,1.41,6.36,2.68,9.82,3.74,9.65,2.94,23.82,2.8,31.16-2.47.28-.2,3.42.93,4.51,1.96,7.4,6.99,12.75,18.24,18.67,24.52,0,0,5.36,11.96-5.24,38.49"/>
    <path class="cls-14" d="M398.25,145.52s-4.48,27.83-18.24,42.27c-1.92,2.01-11.73,1.35-11.73,1.35l1.36,6.83c1.34,6.75,9.01,18.85,13.94,23.65,6.75,6.56,14.99,11.47,24.12,14.16,3.7,1.09,7.44,1.98,11.06,2.63,6.21,1.12,10.59-3.68,13.81-8.51l2.39-5.01s-5.99-6.26-5.38-9.48c.61-3.22,12.24-24.69,12.24-24.69"/>
    <path class="cls-38" d="M431.53,208.16s-4.55-4.04-7.76-6.39c-3.22-2.35-9.45-4.43-20.66-24.98,0,0-1.73,19.48,18.01,31.15,0,0,5.04,3.18,8.95,3.65l1.46-3.43Z"/>
    <path class="cls-14" d="M490.23,107.34c.05.09.1.18.16.27-.03-.15-.06-.31-.07-.46l-.09.19ZM498.16,113.25c.07.18.16.36.25.55l.08-.16s-.24-.58-.33-.39ZM401.37,174.82c4.27,12.25,13.07,26.73,26.1,32.69,8.84,4.05,10.35,1.68,14.97.17,7.01-2.29,14.32-4.53,20.45-8.22,5.88-3.53,8.91-6.02,13.25-11.31,4.49-5.46,5.24-7.11,7.47-13.62,1-2.91,2.75-7.2,4.2-9.76,1.67-2.96,8.73-14.41,12.32-21.39,3.59-6.98,1.54-21.42,1.54-21.42.5-2.11.1-3.95-.21-5.98l-.83-.4s.32.39.05.96c-.98-.67-1.76-1.74-2.26-2.77v.03c-1.54-.02-2.52-1.2-3.1-2.65-.09.19-.07.67.14.77-1.34-.41-2.32-1.58-2.79-2.74-.09.19-.06.67-.16.87-.86-.63-1.58-1.57-2.12-2.47.07.34,5.12,1.86,5.06,1.99-1.34-.41-.11.69-.69-.76l-.69-1.21c-1.13-.31-1.4.34-1.86-.82.12.29.43-2.38.34-2.19-1.25-.6-.87-.52-1.64-1.59-.09.19-4-.39-4.09-.2-1.04-.5-1.22.59-1.69-.57.12.29,1.14-.44,1.25-.15-1.34-.41-2.2.17-2.78-1.28.12.29-3.12-4.07-3.12-4.07-1.34-.41-1.32.09-1.99-1.17.23.58-5.6-3.12-5.58-2.63-1.04-.5.16,4.77-.39,3.8-.09.19-2.12-1.72-2.12-1.72-1.13-.31-.03,1.4-.5.23-.09.19-.16.86.05.96-1.53-.02-2.8-1.1-3.69-2.47.23.58.26,1.07.38,1.36-1.04-.5-1.97-.71-2.64-1.97-.09.19.05.96.26,1.06-1.23-.12-2.38-.9-3.15-1.98-.09.19.14.77.26,1.06-.92-.21-1.76-.61-2.32-1.58l.26,1.06c-.83-.4-1.64-.32-2.71-1.3-.09.19.24.58.14.77-.63-.3-1.46-.7-1.99-1.19-.09.19.35.87.14.77-.83-.4-1.64-.31-2.5-1.2.12.29.14.77.26,1.06-.83-.4-1.76-.61-2.41-1.39-.09.19-.07.67.05.97-.83-.4-1.64-.32-2.5-1.2-.09.19.14.77.26,1.06-.83-.4-1.76-.61-2.5-1.2-.09.19.23.58.35.87-.83-.4-1.76-.61-2.62-1.49-.18.38-.07.67-.16.86-.63-.3-.95-.69-1.58-.99l-1.23-.12c-4.75,2.43-10.67,15.35-10.67,15.35-8.93,2.07-16.46,11.4-17.99,15.13-1.53,3.73-6.32,11.08-6.32,11.08-.4-1.84-1.32-5.8-1.21-7.63.02-1.64,1.26-3.16,1.27-4.8-.41-3.96-5.04-4.99-8.24-4.18l-.68.45c-5.26,2.8-8.19,17.91-7.73,23.03-3.18,8.47,1.95,16.15,8.77,12.18l-.38,3.71"/>
    <path class="cls-29" d="M499.64,130.05c.27-13.56-9.73-25.93-34.55-41.73-24.82-15.81-50.02-16.02-50.02-16.02,30.3-31.88,67.99-12.34,76.53-8.26,8.54,4.08,36.69,58.41,7.33,82.8l-2.12,2.62s2.78-16.94,2.83-19.41Z"/>
    <path class="cls-29" d="M412.05,61.23s8.14-25.16,29.2-24.84c28.13.42,61.83,10.78,61.49,40.46l-90.69-15.62Z"/>
    <path class="cls-26" d="M387,119.73c-.99-2.84,2.14-8.06,1.53-11.01-3.17-15.42,4.87-25.2,11.29-30.22,2.8-2.19,3.19-8.17,4.53-10.62,7.01-12.83,8.72-12.52,34.77-16.68,21.2-3.39,38.25,5.37,48,10.69,15.61,8.51,22.2,12.89,22.37,26.93.02,1.83-1.34,2.65-1.58,4.73-.34,2.94,3.49,5.1,2.62,8.62,0,0-24.52-1.56-46.7-.46-22.19,1.1-71.14,23.02-75.15,34.69-.13.37-.59-13.53-1.69-16.67Z"/>
    <path class="cls-29" d="M390.19,90.56s48.06-22.85,81.27-7.37c0,0-39.67-25.75-73.04-4.18l-1.03,1.01c-2.71,2.65-4.93,5.76-6.56,9.18l-.65,1.36Z"/>
    <path class="cls-29" d="M508.17,94.2l-1.84-1.91c-4.28-4.44-9.18-8.23-14.55-11.26l-8.99-5.08s24.33,6.8,26.62,14.88l-1.23,3.38Z"/>
    <path class="cls-18" d="M395.72,145.3c-2.79-.97-6.73.26-7.87,3.17-.43,1.11-.46,2.59.13,3.66.32.57.83,1.09,1.34,1.49,1.29,1,2.86,1.2,4.43.96.28-.04.58-.14.83-.26.1-.05.41-.2.45-.34.09-.38-.72-.24-.87-.21-1.46.22-3.12-.84-3.93-2.1-.45-.69-.58-1.67-.5-2.48.1-1.08.65-2.11,1.48-2.79.21-.17.43-.3.62-.4.12-.06.23-.1.36-.11-.14,0,.05,0,.06,0,.07,0,.16-.01.22-.01.14,0,.31,0,.46.03.34.04.68.14,1,.25.45.15,1.12-.08,1.52-.28.22-.11.72-.41.27-.57h0Z"/>
    <path class="cls-3" d="M415.73,116.86l-10,18.08-2.61-11.34s9-4.85,12.62-6.74Z"/>
    <path class="cls-29" d="M408.47,102.98s-17.53,6.52-20.73,10.89l.8-5.15s7.68-7,19.93-5.74Z"/>
    <g>
      <path class="cls-6" d="M454.37,173.18c-1.91.16-4.23-1.04-5.4-2.68-.26-.36-1.52-.65-1.15-.14,1.55,2.16,4.94,3.73,7.4,3.52.25-.02.27-.19.06-.38-.22-.2-.65-.35-.91-.33"/>
      <path class="cls-6" d="M447.33,169.63c-.85-.94-1.92-1.7-3.06-2.29-.17-.08-.42-.11-.59-.05-.14.05-.21.16-.11.28.41.54,1.05.96,1.7,1.22.2.08.49.14.67.02.17-.11.02-.3-.14-.36-.53-.21-1.03-.54-1.37-.99-.24.08-.47.15-.7.23,1.02.52,1.98,1.21,2.73,2.05.15.17.44.22.65.19.16-.02.36-.14.21-.31"/>
      <path class="cls-6" d="M442.58,167.81c-1.37-.61-2.74-1.9-2.99-3.21-.37-1.99,1.62-4.06,3.77-4.34.23-.03.19-.21.02-.33-.23-.16-.56-.19-.8-.16-1.87.24-3.69,1.86-4.09,3.42-.36,1.46.56,2.97,2.04,4.06.44.32.93.62,1.44.85.21.09.61.19.78.07.17-.12.01-.27-.18-.36"/>
      <path class="cls-6" d="M457.2,173.54c0-.19.17-.24.28-.19.37.17.79.22,1.22.1.06.2.12.4.18.6-.78-.23-1.63-.3-2.49-.14-.17.03-.34-.11-.41-.25-.06-.11-.08-.32.09-.36"/>
      <path class="cls-6" d="M456.07,173.3c.96-.18,1.9-.09,2.78.17.13.04.26.17.3.32.03.12,0,.24-.12.28"/>
      <path class="cls-6" d="M459.99,174.94c.91.34,2.22.19,3.1-.66,1.32-1.28,1.48-3.4.78-4.87-.08-.16.05-.27.19-.26.18.01.34.19.42.35.61,1.28.65,2.96-.11,4.36-.71,1.31-1.97,1.91-3.22,1.85-.37-.02-.74-.08-1.08-.21-.14-.05-.36-.22-.35-.41,0-.19.16-.21.29-.16"/>
    </g>
    <path class="cls-3" d="M483.11,155.74c1.44-.05,2.7,1.16,3.14,2.19.1.24.21.89.07,1.75-.18,1.11-1.09,2.02-2.02,2.4-1.24.5-2.67,0-3.48-.98-1.1-1.34-.74-3.26.2-4.32.17-.19.93-1,2.1-1.04"/>
    <path class="cls-3" d="M469.36,153.98s7.75-1.74,10.77-.65c4.4,1.59,8.46,6.4,8.96,9.19,0,0-5.19-6.76-8.32-7.79-3-.99-11.4-.75-11.4-.75Z"/>
    <path class="cls-3" d="M445.2,137.96c-.87-1.15-2.81-1.88-3.89-1.57-.25.07-.95.29-1.53.95-.75.83-.89,2.12-.6,3.08.39,1.28,1.67,2.09,2.94,2.1,1.73.02,3-1.46,3.24-2.87.04-.26.48-.59-.22-1.52"/>
    <path class="cls-3" d="M450.14,144.13s-4.43-7.09-7.51-8.67c-4.5-2.32-11.23-2.25-13.75-.77,0,0,9.07-.5,12.19,1.22,2.99,1.64,9.06,8.23,9.06,8.23Z"/>
    <path class="cls-3" d="M477.54,139.97c-.4.85-.81,1.71-1.21,2.57-.31.65-.61,1.31-.92,1.96,2.35.44,4.3.94,5.76,1.35,3.09.86,4.66,1.31,6.18,2.39,1.59,1.13,2.74,2.51,3.19,3.05.63.76,1.05,1.26,1.47,2.05.9,1.73.9,3.19,1.18,3.2.25,0,.41-1.21.43-1.33.38-3.06-.83-5.55-.92-5.75,0,0-.9-1.91-2.97-3.68-1.43-1.22-5.81-3.69-12.18-5.81"/>
    <path class="cls-3" d="M456.95,130.5c-.49.8-.99,1.61-1.49,2.42-.38.61-.76,1.23-1.14,1.84-2.09-1.98-3.95-3.57-5.37-4.74-3.01-2.47-4.55-3.72-6.63-4.61-2.18-.93-4.28-1.32-5.09-1.47-1.15-.21-1.91-.36-2.94-.35-2.23.02-3.58.75-3.78.49-.19-.24.81-.99.92-1.06,2.53-1.88,5.7-1.99,5.94-2,0,0,2.4-.11,5.51.95,2.14.73,7.56,3.61,14.08,8.54"/>
    <path class="cls-19" d="M405.18,372.99s-21.36,63.78-25.74,83.65c0,0-60.72-4.73-111.09-35.22-50.38-30.49-50.64-36.82-50.64-36.82l39.21-44.83,17.56-19.4,116.03,60.15"/>
    <path class="cls-8" d="M444.7,180.39c-5.83-2.92-14.91-8.4-14.91-8.4,0,0-5.7,16,7.82,22.77,13.52,6.77,22.1-7.98,22.1-7.98,0,0-9.18-3.47-15.01-6.39Z"/>
    <path class="cls-15" d="M445.11,180.58c-2.75-1.38-13.58-7.44-13.58-7.44,0,0-1.01,11.71,8.94,16.69,10.79,5.4,17.09-3.48,17.09-3.48l-12.45-5.77Z"/>
    <path class="cls-11" d="M445.07,181.14c-2.85-1.43-11.26-6.28-11.26-6.28,0,0,1.45,4.89,10,9.17,8.54,4.28,12.87,2.4,12.87,2.4l-11.61-5.29Z"/>
    <path class="cls-8" d="M460.59,186.75c-.26-.23-.52-.14-1.87-.98-2.25-1.4-3.39-2.8-5.03-3.79-2.8-1.7-5.26-1.4-6.53-2.03-1.27-.63-2.5-2.79-5.54-4.01-1.78-.71-6.34-2.17-8.8-3.13-1.48-.58-2.84-1.99-3.19-2.07-.48-.1-1.31,3.6,14.62,11.58,15.93,7.98,16.7,4.75,16.33,4.43Z"/>
    <path class="cls-22" d="M450.61,285.76c-2.86,2.5-5.05,5.99-6.57,9.43-1.05,2.38-1.47,4.78-1.86,7.33-1.11,7.33-2.16,14.65-4.09,21.81-2.41,8.93-6.05,17.79-12.13,24.88-1.54,1.8-3.23,3.46-5.07,4.96-.95.77-1.94,1.5-2.97,2.17-.5.33-1.01.64-1.53.95s-1.32.55-1.73.97c-.37.38-.58,1.02-.82,1.48-.68,1.3-1.34,2.61-2,3.92-5.37,10.65-10.67,21.58-14.22,32.99-.14.44,1.3.25,1.44-.2,3.26-10.44,8.02-20.46,12.86-30.24.83-1.67,1.66-3.33,2.51-4.99.44-.86.82-1.9,1.39-2.68.05-.07.07-.17.12-.23-.1.11.38-.1.55-.19,1.01-.56,2-1.16,2.96-1.81,2.02-1.37,3.9-2.93,5.63-4.65,12.23-12.2,15.78-30.22,18.18-46.66.37-2.52.6-5.15,1.33-7.6,1.23-4.13,3.9-8.56,7.18-11.43.61-.53-.82-.46-1.15-.18h0Z"/>
    <path class="cls-14" d="M541.98,474.12s15.86-4.44,23.27-2.67c2.08.5,21.76-1.95,21.76-1.95,0,0,2.51,4.69-5.14,7.08-7.64,2.39-10.83,3.19-10.83,3.19l-1.77,1.62,9.34,9.72s12.41,9.29,15.19,11.79c2.78,2.5,9,7.6,7.04,12.01,0,0,4.86,3.44,3.48,5.92-.52,1.3-1.64,2.26-3,2.58l-2.71-1.03s.86,1.48-1.54,3.09c-2.4,1.61-24.41-11.39-24.41-11.39l-1.62.1s13.27,11.08,12.71,12.59c-.56,1.51-.81,2.86-3.48,1.96-2.67-.89-42.54-25.86-46.5-29.64-1.04-.99-2.06-3.55-2.73-4.16-1.88-1.72-6.21-4.18-6.21-4.18l10.16-20.91,6.99,4.29Z"/>
    <path class="cls-19" d="M224.77,303.99c-5.52-3.07-11.22-5.81-16.87-8.62,2.06-3.63,4.12-6.97,6.32-10.15,9.35-13.54,72.4-76.59,93.87-92.18,21.3-13.61,47.48-2.37,47.48-2.37l-37.7,76.26-61.32,52.15c-10.13-4.06-22.24-9.78-31.78-15.08Z"/>
    <path class="cls-19" d="M228.74,336.52c5.81-8.41,13.05-19.56,17.87-28.56l95.8,71.6-21.54,36.61c-54.61-35.24-83.48-50.22-102.91-62.72,3.53-5.68,6.97-11.42,10.77-16.92Z"/>
    <path class="cls-22" d="M235.1,365.46c7.43,4.78,15.13,9.11,22.88,13.34,11.51,6.28,23.05,12.51,34.47,18.94,10.29,5.79,20.53,11.69,30.72,17.66.38.22,1.03.05,1.25-.34.94-1.65,1.87-3.3,2.81-4.95.37-.66-1.09-.6-1.37-.11l-2.81,4.95,1.25-.34c-16.02-9.37-32.13-18.56-48.41-27.47-9.09-4.98-18.28-9.81-27.27-14.96-4.19-2.4-8.33-4.9-12.39-7.51-.47-.31-1.78.36-1.13.78h0Z"/>
    <path class="cls-22" d="M258.14,317.49c2.83,2.12,5.67,4.25,8.5,6.37,6.77,5.07,13.54,10.14,20.31,15.22,8.19,6.13,16.37,12.27,24.56,18.4,7.11,5.32,14.21,10.65,21.32,15.97,2.32,1.74,4.65,3.48,6.97,5.23.74.55,1.47,1.1,2.21,1.66.29.22.78.77,1.14.85.05.01.11.08.15.11l-.12-.44c-.96,1.63-1.92,3.26-2.88,4.88-.38.65,1.08.6,1.37.11.96-1.63,1.92-3.26,2.88-4.88.1-.18.03-.33-.12-.44-2.83-2.12-5.67-4.25-8.5-6.37-6.77-5.07-13.54-10.14-20.31-15.22-8.19-6.13-16.37-12.27-24.56-18.4-7.11-5.32-14.21-10.65-21.32-15.97-2.32-1.74-4.65-3.48-6.97-5.23-1.09-.82-2.17-1.82-3.35-2.51-.05-.03-.1-.07-.15-.11-.45-.34-1.76.31-1.13.78h0Z"/>
    <path class="cls-22" d="M338.01,209.71c3.66,4.13,3.92,10.24,3.23,15.44-.55,4.18-1.72,8.35-3.73,12.07-3.54,6.54-8.62,12.31-13.55,17.81-13.68,15.26-28.87,29.18-44.11,42.85-7.18,6.45-14.44,12.8-21.72,19.14-.6.53.83.44,1.14.17,14.48-12.61,28.88-25.31,42.78-38.56,7.43-7.08,14.74-14.3,21.67-21.88,5.22-5.72,10.51-11.67,14.45-18.37,2.28-3.87,3.69-8.12,4.38-12.56.87-5.58.76-12.19-3.2-16.65-.3-.33-1.68.18-1.35.54h0Z"/>
    <path class="cls-19" d="M229.04,268.03s-.78.82-2.1,2.26c-6.22,6.82-24.25,20.94-31.17,41.96-5.95,18.08,8.6,39.13,34.11,45.54,25.51,6.41,20.63-50.75,20.63-50.75l-21.47-39.01Z"/>
    <path class="cls-14" d="M339.77,387.04c2.12.48,2.15.73,4.3.89,0,0,10.6-6.28,19.45-4.48,8.85,1.79,16.2,9.72,21.33,10,5.81.31,16.26,5.09,17.36,7.87,1.8,4.51-3.87,7.67-12.24,4.72-5.46-1.88-11.07-3.29-16.77-4.21,0,0,31.76,45.82,32.81,49.7,1.05,3.88,2.14,7.87-.88,9.33-3.02,1.46-8.36-7.81-8.36-7.81l-3.63-.85c-1.17-.27-2.26-.81-3.19-1.56l-9.35-7.61c-6.77-1.34-15.88-4.55-22.02-7.69-8.32-4.66-20.9-20.88-20.9-20.88l-11.53-5.21c.46-1.2,12.23-19.34,13.62-22.19Z"/>
    <path class="cls-22" d="M259.38,316.82c-4.86-3.63-11.14-5.08-17.11-5.32s-12.35.69-17.6,3.73c-.84.49.42.74.91.46,4.9-2.84,10.91-3.61,16.49-3.32s11.44,1.65,15.97,5.03c.42.31,1.76-.27,1.34-.58h0Z"/>
    <path class="cls-38" d="M397.16,452.19c-2.15-3.22-4.8-6.13-7.27-9.09s-5.14-5.88-7.17-9.16c-.28-.45-1.55.01-1.21.55,2.03,3.28,4.71,6.21,7.17,9.16,2.47,2.96,5.13,5.87,7.27,9.09.3.44,1.56-.03,1.21-.55h0Z"/>
    <path class="cls-38" d="M385.28,445.59c-3.72-3.9-7.44-7.8-11.17-11.7-.53-.56-1.06-1.12-1.6-1.67-.42-.44-1.66.1-1.2.59,3.72,3.9,7.44,7.8,11.17,11.7.53.56,1.06,1.12,1.6,1.67.42.44,1.66-.1,1.2-.59h0Z"/>
    <path class="cls-19" d="M429.89,420.85c5.71-8.48,7.58-22.82,12.3-31.88l101.87,73.57-19.59,33.86c-65.95-33.08-85.59-46.23-105.16-58.51,3.46-5.72,6.84-11.5,10.57-17.05Z"/>
    <path class="cls-22" d="M450.41,394.77c-6.88-1.12-14.17,1.04-19.29,5.79-.25.23.22.26.35.25.31,0,.73-.13.97-.35,4.51-4.18,10.71-6.1,16.79-5.11.33.05.72-.02,1.01-.18.1-.06.51-.34.17-.39h0Z"/>
    <path class="cls-12" d="M409.76,937.04s2.4,2.49,1.08,6.85c-1.32,4.35-28.74-.03-38.21,1.06-9.47,1.09-47.37,5.47-56.68,3.37-9.31-2.11-.72-12.95-.72-12.95l94.53,1.67Z"/>
    <path class="cls-14" d="M310.79,907.62c1.32,4.14-1.01,17.65-2.14,22.31-1.3,5.36,1.32,9.39,7.79,11.61,5.44,1.86,8.22,1.73,14.09,1.41,7.68-.42,15.86-1.76,23.54-2.18,6.58-.36,27.27-2.1,33.74-1.1,10.08,1.56,16.26.18,20.7-1.3,1.23-.41,2-.35,2.56-1.21,1.46-2.23,1.25-4.68-2.07-6.52-4.19-2.33-9.16.96-13.08-1.79-.7-.49-1.35-1.04-2.15-1.39-1.57-.69-3.46-.51-5.23-.48-8.86.15-8.23-3.35-19.87-5.98-3.42-.77-29.81-14.22-32.98-15.53"/>
    <path class="cls-12" d="M254.32,937.46s-1.85,1.69-1.94,7.7c-.12,8.05,25.28,7.51,32.25,8.05,6.98.54,29.24,5.32,44.94,5.78,15.71.46,33.11-4.27,33.17-13.43.03-4.96-.38-6.89-3.75-8.11-3.37-1.22-94.48-4.85-94.48-4.85l-10.19,4.85Z"/>
    <path class="cls-14" d="M260.8,903.04c.48,5.03-.88,10.45-4.61,20.5-1.88,5.07-3.75,13.77,1.49,17.01,6.23,3.86,20.54,2.22,24.65,3.12,8.66,1.9,13.78,2.12,22.11,4.66,8.44,2.58.06,1.45,9.31,1.95,1.28.07,9.71,1.91,10.82,1.36.74-.37,2.75.08,3.49-.29,2.63-1.31,5.95.39,8.95,0,1.33-.17,2.52-.75,3.75-1.21,3.25-1.21,6.81-1.62,10.25-2.33,3.44-.71,6.94-1.82,9.32-4.07,2.38-2.25,3.26-5.89,1.18-8.35-3.14-3.71-7.16-1.5-11.39-1.83-4.22-.33-5.82-.96-9.55-2.56-9.55-4.09-11.02-4.92-19.07-8.12-6.24-2.48-23.58-8.49-32.4-14.16l.37-8.12"/>
    <g>
      <path class="cls-38" d="M329.6,951.06c.96-.26,1.56-1.15,1.76-2.08s.07-1.84-.37-2.66c-.9-1.68-2.8-2.66-4.47-3.4-.98-.43-1.97-.81-2.96-1.22-.19-.08-.41.08-.46.26-.06.22.07.38.26.46,1.62.67,3.29,1.26,4.79,2.18,1.32.81,2.65,2.02,2.55,3.7-.05.83-.44,1.8-1.31,2.04-.47.13-.27.85.2.72h0Z"/>
      <path class="cls-38" d="M338.35,951.08c2.48-.03,2.64-3.13,2.34-4.94-.08-.47-.19-.93-.37-1.37-.25-.6-.67-1.12-1.13-1.58-1.18-1.15-2.73-1.79-4.27-2.3-1.73-.57-3.43-1.74-5.32-1.67-.48.02-.48.77,0,.75,1.53-.06,2.99.8,4.36,1.36.69.28,1.42.49,2.11.77s1.35.63,1.95,1.07c.56.41,1.1.94,1.45,1.54.18.31.28.65.38,1.03.22.89.3,1.88.14,2.79-.17.92-.62,1.78-1.64,1.79-.48,0-.48.76,0,.75h0Z"/>
      <path class="cls-38" d="M344.75,948.99c1.23-.43,1.97-1.59,2.25-2.82s.13-2.4-.43-3.48c-1.14-2.21-3.58-3.53-5.79-4.45-.64-.27-1.29-.5-1.96-.71-.77-.25-1.55-.52-2.34-.67-.47-.09-.67.63-.2.72.68.13,1.34.37,2,.57.53.16,1.06.34,1.59.54,1.1.42,2.18.92,3.18,1.54,1.76,1.1,3.47,2.79,3.33,5.03-.07,1.18-.64,2.58-1.84,3.01-.45.16-.26.88.2.72h0Z"/>
      <path class="cls-38" d="M351.16,947.72c1.48-.65,2.6-1.97,3.14-3.48.48-1.34.54-2.97-.24-4.21-.7-1.12-1.84-1.92-2.98-2.55-1.27-.71-2.63-1.25-4-1.73-.66-.23-1.32-.43-1.98-.66-.85-.29-1.77-.78-2.69-.7-.48.04-.48.79,0,.75.73-.06,1.48.31,2.15.55.57.21,1.16.38,1.74.57,1.23.41,2.45.87,3.62,1.45,1.12.56,2.26,1.22,3.09,2.17.84.95,1.03,2.15.78,3.38-.35,1.66-1.45,3.12-3.02,3.81-.44.19-.06.84.38.65h0Z"/>
    </g>
    <path class="cls-2" d="M308.26,917.79s31.7,14.82,41.87,15.76l4.22-.29s4.47-.66,6.16.32c0,0,1.66.77,1.66,2.8"/>
    <path class="cls-12" d="M321.43,952.5s-3.26-7.52,16.35-15.74c11.95-5.01,12.83-3.88,12.83-3.88,0,0-11.57-6.97-24.7-7.89,0,0-25.16,2.91-31.66,23.34l27.19,4.17Z"/>
    <path class="cls-12" d="M387.38,940.06s.51-9.47,4.24-12.85c0,0-11.8-6.09-19.05-7.53,0,0-8.59,7.97-6.73,21.3l21.53-.92Z"/>
  </g>
  <g id="Layer_2" data-name="Layer 2">
    <path class="cls-14" d="M685.65,618.95l-3.44,4.82-4.03,6.14s6.24,8.31,8.67,10.08,7.62,6.64,7.62,6.64c-.85.38-1.54,1.05-1.95,1.89-.4.99-.38,2.11.06,3.09l5.46-1.37c-.83,2.19,1.71,2.3,1.71,2.3l4.45-1.53c-1.15,2.66,2.15,2.88,2.15,2.88l4.86-3.4c-.1,1.19.02,2.38.38,3.52.56,1.37,2.44-.03,2.44-.03l2.36-10.07-7.3-12.19-20.29-9.51-3.15-3.26Z"/>
    <path d="M661.45,457.76c1.34,1.87,1.81,4.34.57,6.45-.57.97-1.82,1.39-2.3,2.33-1.39,2.73,1.41,4.29-.37,6.92-1.5,2.21-3.08,2.61-2.64,5.73.48,3.42,1.35,2.72-.14,6.56-.34.88-.77,1.77-1.1,2.71l1.74-1.61-.77.29,3.46-.18c-.75-.37,1.88-4.1,2.01-4.94.18-1.22-.6-1.92-.8-2.97-1.26-1.38-1.12-2.73.43-4.05.44-.35.84-.75,1.19-1.18.53-.94,1.02-1.29,1.04-2.46.04-2.12-1.58-2.22-.54-4.72.54-1.3,1.85-1.93,2.13-3.46.33-1.75-.56-3.49-.29-5.32.35-2.36,1.79-4.47,3.03-6.44,1.47-2.34-4.36-1.89-5.42-.2-1.16,1.85-2.39,3.78-3.04,5.89-.76,2.47.13,4.91-.59,7.2-.57,1.81-2.29,2.84-2.26,4.87.01.9.86,1.61.89,2.4.09,2.69-1.14,2.03-2.03,3.55-.8,1.36-1.48,2.03-1.18,3.76.49,2.78,1.96,2.48.34,5.73-1.26,2.53-2.01,5.47,2.05,5.48,3.05.01,4.45-2.13,5.65-4.52.85-1.69,1.33-2.43,1.04-4.42-.27-1.84-.94-2.48-.43-4.5.57-2.25.93-1.77,2.2-3.39.88-1.11,1.26-2.04,1.09-3.46-.11-.95-.95-1.21-.86-2.34.09-1.21.67-1.19,1.22-2.11,1.99-3.4,2.5-6.5.06-9.9-1.19-1.66-6.8.32-5.37,2.31h0Z"/>
    <path d="M652.8,455.41c2.24,3.12,1.68,6.12-.65,8.95-.54.66-1.42.85-1.55,1.85-.27,2.11,1.79,2.14,1.05,4.45-.95,2.94-3.8,2.94-3.36,6.56.19,1.56,1.39,3.13,1.17,4.75-.04.3-2.03,3.76-2.36,4.72l1.88-1.09-.77.29,3.71-.41c-2.83-1.38,1.29-4.22,1.51-5.62.23-1.49-.72-2.15-1.12-3.44-1.25-3.97,2.94-3.89,3.03-7.25.07-2.47-1.98-2.42-.39-5.14.69-1.18,1.75-1.78,1.98-3.25.37-2.35-.73-3.96.04-6.52.59-1.96,1.77-3.73,2.85-5.44.29-.46-4.82-.31-5.7,1.08-1.33,2.12-2.79,4.37-3.23,6.89-.35,2.03.67,4.5-.12,6.41-.57,1.38-2.12,2.08-2.29,3.69-.34,3.11,2.05,3.32-.72,6.28-.74.79-1.65,1.49-1.79,2.66-.3,2.47,2.47,3.72,1.23,6.39-.63,1.35-3.16,2.87-1.71,4.61.63.76,1.57.7,2.43.69,2.88-.03,4.45-1.42,5.74-3.63.89-1.52,1.66-2.17,1.55-4.07-.18-3.2-2.19-4.63.22-7.69.86-1.09,2.35-1.6,2.57-3.16.17-1.22-.85-1.7-1.01-2.7-.26-1.55.36-1.89,1.27-3.24,2.02-3.02,2.65-5.98.38-9.15-.94-1.31-6.14,1.08-5.8,1.55h0Z"/>
    <path d="M644.94,453.45c1.67,2.33,1.55,4.47-.24,6.74-.55.69-1.34.99-1.76,1.83-.58,1.17-.38,1.47-.26,2.79.23.57.57,1.09,1,1.54-.13,1.09-.59,1.93-1.38,2.54-1.49,2.12-2.57,2.98-2.13,5.84.39,2.56,1.43,3.02.25,5.68-.45,1.01-.97,1.7-1.37,2.87l2.23-1.7c1.98-.74,3.37-.91,3.97-3.28.3-1.2-.04-2.19-.47-3.32-.89-2.33-.94-2.33.64-4.3.77-.97,1.51-1.63,1.73-2.92.23-1.37-.63-2.4-.6-3.73.04-1.71,1.37-2.4,1.94-4.03.44-1.26.21-2.2.14-3.48-.21-3.44.85-5.82,2.67-8.73,1.97-3.14-3.4-4.23-4.89-1.85-1.26,2-2.56,4-3.27,6.27-.8,2.56.19,5.61-.81,8-.71,1.71-2.24,2.32-2.1,4.44.05.7.53,1.3.61,1.93.36,2.91-.52,1.59-1.47,3.26-.84,1.48-1.71,2.2-1.49,4.04.09.8.57,1.39.76,2.13.74,2.79.26,1.94-.98,4.46-1.33,2.72-.34,5.8,3.16,5.69,3-.1,4.47-3.11,5.67-5.39.69-1.31.77-2.61.5-4.08-.38-2.07-1.62-3.06-.37-5.39.4-.75,1.73-1.39,2.25-2.1.83-1.16,1.29-2.42.98-3.86-.15-.71-1.34-1.64-1.27-2.35.03-.36,1.44-1.41,1.7-1.76,2.37-3.18,2.21-7.25-.05-10.4-1.6-2.24-7.1.08-5.29,2.61h0Z"/>
    <path class="cls-1" d="M666.13,459c-3.8,4-11.72,6.6-16.93,8.49-5.33,1.93-7.47,2.06-12.78.75-10.34-2.55-20.16-7.67-27.44-15.62-7.51-8.2-11.61-18.95-11.68-30.24-.05-7.89,1.34-15.46,3.96-22.59.39-.7,1.01-1.83,1.4-2.54,9.45-12.45,15.04-16.8,29.54-15.34,8.93.81,17.57-.47,29.26,8.38,2.52,1.91,4.64,6.02,7.76,8.86,4.69,4.28,9.3,10.69,10.27,16.02,1.4,7.8-1.12,17.08-3.44,25.88-1.76,6.67-5.08,12.84-9.82,17.85-.03.03-.06.06-.09.09Z"/>
    <path class="cls-14" d="M592.36,425.68c.59-2.07,1.28-4.48,2.13-7.38.25-.84.51-1.64.77-2.43.17-.39.31-.8.42-1.22,4.89-13.88,11.84-19.75,11.84-19.75,8.85-7.42,20.97-9.57,31.81-5.63,12.85,4.36,22.04,15.92,25.62,25.75,1.78,4.87,1.71,10.24-.21,15.06-1.63,4.12-5.43,7.22-8.02,11.44,4.59,1.22,8.5,4.25,4.22,12.05-5.9,10.77-14.44,11.99-16.92,7.73-.85-.11-4.1,4.46-5.05,6.8-.07.18-4.02,12.82-4.09,13.02-7.27,2.24-19.65-.51-27.39-1.09-4.86-.36-5.04-1.15-9.82-2.09-1.16-.23-1.61,1.38-2.76,1.11l3.16-10.23c-.32-.13-.61-.2-1.92-1.12-9.56-5.99-9.87-21.2-8.81-26.62.9-4.59,3.6-12.91,5.03-15.41Z"/>
    <g>
      <path d="M653.74,448.03c.04-.06.62-2.89-.72.38-.67,1.64,3.27-3.13,5.05-3.81.81-.31,1.76-.64,2.68-.73.92-.08,1.9-.19,2.82-.02,1.33.11,3.81,2.86,4.92,3.58.18.15-.91-2.04-.74-1.9,6.55-8.48,10.76-15.84,7.46-29.87-.96-4.04-5.3-9.56-6.6-11.31-7.96-10.48-17.17-14.01-29.12-16.66-13.84-3.07-28.9-1.84-36.49,9.76-1.83,2.8-2.5,4-3.29,7.2,0,0,3.11-6.65,10.85-8.17,7.75-1.51,8.99-1.16,18.08,1.96,10.53,3.58,14.3,2.97,21.33,9.81,6.41,6.26,6.91,9.98,6.91,9.98-.15,1.97.46,3.9.65,5.86.19,1.93-.14,3.79-.66,5.64-1.06,3.79-1.97,7.63-3.59,11.25-1.01,2.25-2.59,5.15-.77,7.45.82,1.02-.02-.42,1.24-.42Z"/>
      <path d="M654.05,447.98c.12-.26.17-.69.16-.98-.02-.41-.38-.43-.68-.18-.2.17-.32.48-.43.71-.14.29-.5.81-.47,1.15.04.36.49.19.71.06.49-.28.9-.75,1.31-1.14.63-.6,1.25-1.2,1.91-1.77.62-.54,1.23-1.01,2.01-1.29,1.47-.54,3.24-.85,4.8-.55,1.02.2,1.87,1.02,2.63,1.68.71.62,1.41,1.44,2.24,1.89.15.08.44-.02.54-.14.14-.18-.22-.73-.29-.88-.1-.23-.21-.46-.3-.69-.05-.11-.12-.41-.17-.34l-.54.14h.01c.15.09.44-.01.54-.14,2.38-3.08,4.67-6.28,6.28-9.84s2.42-7.62,2.35-11.63c-.04-2.48-.38-4.94-.89-7.36-.45-2.15-1.27-4.06-2.38-5.95-1.93-3.3-4.29-6.51-6.84-9.36-2.87-3.21-6.24-5.94-10.01-8.03s-7.78-3.49-11.9-4.6c-8.38-2.26-17.27-3.65-25.87-1.79-3.92.85-7.7,2.42-10.89,4.88-1.62,1.25-3.07,2.73-4.31,4.37s-2.42,3.47-3.21,5.38c-.41,1.01-.71,2.06-.97,3.11-.06.23.55.07.62-.09.66-1.41,1.72-2.7,2.81-3.79,1.15-1.15,2.46-2.13,3.91-2.87,1.86-.95,3.86-1.35,5.9-1.7,1.54-.26,3.09-.48,4.65-.47,1.41.01,2.81.25,4.17.6,4.03,1.02,7.9,2.61,11.9,3.77,2.96.86,6.01,1.58,8.83,2.87,3.2,1.45,5.9,3.72,8.33,6.21,2.2,2.26,4.4,4.81,5.61,7.76.17.41.36.85.42,1.3.02.16-.01.33-.02.49-.01.64.04,1.27.13,1.9.17,1.25.47,2.49.56,3.75.2,2.61-.62,5.11-1.29,7.6s-1.31,4.77-2.18,7.08c-.75,1.98-1.96,3.9-2.32,6.01-.16.92-.11,1.89.32,2.74.21.4.59,1.23,1.15,1.09.45-.11.27-.74.71-.76.21-.01.67-.35.25-.33-.49.03-1,.16-1.19.67-.01.04-.07.2-.06.24.05.15.49.03.44-.14-.01-.05-.1-.09-.13-.14-.3-.52-.66-.91-.82-1.5-.56-2.08.64-4.2,1.46-6.04,1.04-2.33,1.8-4.78,2.49-7.23s1.57-4.97,1.78-7.52-.79-5.15-.68-7.76c.02-.42-.09-.77-.24-1.17-.96-2.68-2.86-5.05-4.75-7.13-2.48-2.73-5.29-5.29-8.59-6.97-2.78-1.42-5.83-2.18-8.82-3.03-4.11-1.18-8.09-2.74-12.21-3.88-2.88-.79-5.66-.94-8.61-.51-1.89.28-3.84.58-5.65,1.21-1.62.57-3.13,1.41-4.48,2.46-1.72,1.34-3.23,3.04-4.27,4.97-.06.1-.11.21-.16.32l.62-.09c.51-2.05,1.23-3.92,2.34-5.72s2.41-3.65,3.98-5.2c2.87-2.84,6.48-4.79,10.34-5.92,8.35-2.43,17.25-1.29,25.55.76,4.08,1.01,8.13,2.27,11.91,4.11,3.74,1.82,7.16,4.24,10.11,7.17,2.7,2.68,5.03,5.77,7.14,8.92,1.16,1.74,2.27,3.56,3.02,5.51.83,2.16,1.17,4.6,1.41,6.89.44,4.1.16,8.24-1.18,12.16-1.22,3.58-3.21,6.81-5.42,9.84-.58.8-1.18,1.59-1.78,2.37l.54-.14h-.01c-.15-.09-.44.01-.54.14-.14.18.22.73.29.88.1.23.21.46.3.69.05.11.12.41.17.34l.54-.14c-.66-.36-1.24-1.02-1.8-1.52-.65-.58-1.32-1.17-2.06-1.63s-1.45-.55-2.28-.55c-1.13,0-2.3.11-3.38.44-.75.23-1.48.48-2.13.92-.58.4-1.11.87-1.62,1.34-.56.51-1.1,1.04-1.65,1.55-.19.17-.37.35-.56.51-.06.05-.21.13-.24.2,0,.01-.07.03-.07.05,0,.08.26.04.31,0,.03-.03.06-.2.07-.25.11-.31.25-.61.39-.91.04-.09.29-.43.28-.51l.03-.04-.46.07s.02.09.01.11c-.13.28-.02.69-.16,1-.08.16.54.1.62-.09Z"/>
    </g>
    <path class="cls-14" d="M658.73,439.74c-.68.04-4.74-3.92-5.5-3.4-4.87-20.48-33.03-40.93-52.8-31.4,1.46-2.47,6.25-7.7,7.04-8.4,8.62-7.56,20.99-8.79,33.48-6.14,12.5,2.64,26.39,11.07,30.05,25.78,3.54,14.26,1.34,25.6-12.27,23.56Z"/>
    <g>
      <path d="M652.02,419.89l.36-.4c.28,1.25,1.03,2.4,2.07,3.15.61.44,1.43.98,1.26,1.71-.05.22-.18.41-.23.62-.32,1.38,2.44,1.31,2.93,2.64.41,1.12-1.14,2.23-.8,3.37.3,1.02,1.85,1.23,2.14,2.24.36,1.26-1.54,2.49-.94,3.66.44.84,1.84.77,2.24,1.63.19.41.08.88,0,1.34-2.38.07-4.8.29-7.3.34.13-.5.32-1,.57-1.44.22-.39.46-.82.36-1.26-.23-.96-1.72-.89-2.34-1.67-1.08-1.36,1.5-3.28.81-4.87-.41-.95-1.84-1.26-2.03-2.28-.26-1.34,1.86-2.61,1.07-3.72-.24-.34-.68-.47-1-.73-.64-.51-.77-1.48-.52-2.27.25-.79.81-1.43,1.35-2.06Z"/>
      <path d="M652.14,419.94l.36-.4h-.27c.24,1.01.75,1.93,1.49,2.67.34.33.72.58,1.09.87.22.17.44.36.6.59.27.42.12.71-.03,1.13-.48,1.38,1.62,1.66,2.39,2.25,1.66,1.27-1.19,2.94-.1,4.41.5.68,1.56.89,1.89,1.7s-.41,1.66-.76,2.35-.38,1.48.37,1.96c.38.24.82.36,1.21.58.71.41.65,1.1.53,1.82l.16-.12c-2.43.08-4.86.29-7.3.34l.14.1c.15-.56.37-1.05.64-1.56.2-.39.4-.83.25-1.27-.21-.6-.92-.8-1.44-1.02-.81-.35-1.3-.91-1.04-1.82.2-.7.63-1.31.89-1.99.22-.56.33-1.18.03-1.73-.38-.7-1.18-.97-1.68-1.56-1.14-1.36,1.09-2.49.95-3.85-.04-.33-.24-.59-.5-.79-.51-.38-1.01-.56-1.22-1.22-.42-1.32.54-2.49,1.35-3.42.12-.14-.15-.2-.24-.09-.64.74-1.33,1.54-1.47,2.54-.11.82.17,1.62.88,2.07.36.23.81.42.9.89.07.39-.14.78-.34,1.1-.35.59-.87,1.19-.92,1.9-.11,1.64,2.47,1.77,2.14,3.55-.22,1.16-1.68,2.59-1,3.81.41.73,1.32.8,1.97,1.22s.52,1.05.2,1.65c-.28.53-.5,1.04-.66,1.62-.02.07.09.1.14.1,2.44-.05,4.86-.26,7.3-.34.07,0,.15-.05.16-.12.17-.96.09-1.65-.84-2.1-.82-.4-1.84-.75-1.42-1.88.28-.75.93-1.38.99-2.2s-.56-1.25-1.15-1.64c-.33-.22-.7-.44-.91-.79-.31-.51-.13-1.07.11-1.56.32-.66.87-1.43.52-2.19-.27-.58-.91-.86-1.45-1.11s-1.51-.53-1.46-1.26c.04-.55.44-.86.16-1.42-.22-.43-.65-.73-1.02-1-1.11-.81-1.89-1.88-2.21-3.22-.03-.12-.21-.07-.27,0l-.36.4c-.12.14.15.2.24.09Z"/>
    </g>
    <g>
      <path d="M656.63,413.65c-.83.43-1.33,1.44-1.17,2.37.16.93.97,1.7,1.91,1.82-.74.97-.48,2.54.53,3.22.43.29.98.45,1.29.87.74,1.05-.61,2.68.15,3.72.29.39.8.56,1.08.96.57.81-.18,1.97.13,2.91.38,1.15,2.14,1.42,2.45,2.59.22.82-.35,1.86.23,2.48.31.32.85.39,1.07.78.27.47-.09,1.03-.25,1.54-.4,1.28.81,2.76,2.14,2.64-.24.87-.09,1.83.38,2.59.79-.66,1.61-1.36,2.07-2.28.46-.93.48-2.16-.25-2.9-.28-.29-.66-.49-.86-.84-.51-.88.36-2.13-.21-2.97-.39-.56-1.3-.7-1.49-1.35-.09-.32.02-.65.07-.98.16-1.15-.71-2.36-1.85-2.56-.33-.06-.69-.06-.94-.27-.73-.62.42-1.75.27-2.69-.14-.93-1.49-1.34-1.53-2.28-.02-.31.13-.61.14-.92.03-.49-.26-.94-.54-1.35-1.43-2.1-2.93-4.15-4.5-6.15"/>
      <path d="M656.54,413.62c-.95.55-1.52,1.7-1.13,2.78.18.5.55.93,1,1.21.11.06.64.2.68.27.09.15-.13.44-.19.61-.32,1.02.1,2.16,1.01,2.72.54.33,1.16.53,1.32,1.22.14.61-.12,1.26-.22,1.86-.08.43-.12.89.1,1.29.32.58,1.08.72,1.31,1.38.21.61-.07,1.3-.09,1.92-.02.55.15,1,.54,1.39.79.77,2.05,1.1,2.04,2.4,0,.54-.23,1.18,0,1.7.27.59,1.12.59,1.32,1.21s-.44,1.36-.39,2.03c.04.61.39,1.19.86,1.56.22.17.47.31.74.39.11.03.23.04.35.07.22.07.15-.03.23.15,0,0-.06.42-.06.43-.02.24,0,.48.03.72.07.45.23.86.46,1.26.04.08.21.02.26-.02.88-.73,1.83-1.53,2.24-2.64.33-.9.26-1.98-.45-2.67-.41-.4-.87-.66-.94-1.28-.06-.52.12-1.04.15-1.56.02-.43-.08-.82-.4-1.13-.38-.35-.99-.5-1.23-.99s.09-1.1.03-1.63-.31-1.02-.67-1.4c-.29-.3-.66-.52-1.06-.63-.58-.16-1.38-.12-1.3-.94.08-.88.88-1.65.3-2.53-.22-.33-.54-.57-.81-.85-.17-.18-.34-.36-.43-.6-.14-.36,0-.68.04-1.05.08-.6-.2-1.08-.53-1.57-.46-.69-.95-1.37-1.43-2.05-.99-1.39-2.02-2.75-3.07-4.1-.05-.07-.33.03-.27.11.88,1.12,1.74,2.26,2.58,3.42.42.58.83,1.16,1.24,1.75s.99,1.21,1.16,1.91c.13.53-.19,1.02-.06,1.54.1.4.42.69.71.96.31.3.68.61.78,1.05.12.52-.17,1.04-.34,1.52-.28.78-.14,1.34.74,1.49,1.2.21,2.21,1.08,2.14,2.4-.02.48-.26.97.04,1.41.24.36.67.51,1.01.76.98.73.3,1.8.41,2.79.06.57.43.84.83,1.2.49.42.74.98.75,1.63.04,1.6-1.24,2.72-2.36,3.66l.26-.02c-.47-.8-.6-1.67-.39-2.58.01-.04-.06-.05-.08-.05-1.06.05-2-.83-2.12-1.87-.09-.77.8-1.75.21-2.42-.3-.34-.8-.38-1.06-.78-.3-.46-.15-1.03-.1-1.54.06-.77-.17-1.3-.77-1.78s-1.4-.81-1.69-1.54c-.34-.87.29-1.8,0-2.68s-1.41-.96-1.47-1.98c-.04-.79.38-1.54.31-2.33-.09-1.04-1.12-1.14-1.77-1.75-.81-.76-.91-2.08-.29-2.97.03-.04,0-.06-.04-.07-2.03-.35-2.55-3.04-.75-4.08.17-.1-.09-.11-.17-.07h0Z"/>
    </g>
    <g>
      <path d="M659.09,411.68c-.72,1.28-.14,3.11,1.19,3.74.26.12.55.21.74.42.4.45.17,1.14.19,1.75.04,1.36,1.42,2.27,2.72,2.68.83.26,1.88.65,1.91,1.52.01.34-.16.68-.09,1.02.18.89,1.8.99,1.79,1.9,0,.42-.39.75-.41,1.17-.05.88,1.33,1.06,1.79,1.81.21.35.2.79.17,1.2-.07,1.25-.14,2.5-.2,3.75-.02.31-.01.67.23.86.41.32.96-.16,1.23-.61,1.54-2.49,2.42-5.37,2.55-8.3.03-.73-.13-1.66-.84-1.83-.23-.06-.51-.02-.69-.18-.3-.26-.08-.74.07-1.1.64-1.5-.52-3.46-2.14-3.63-.44-.05-.97-.03-1.2-.4-.15-.25-.1-.57-.14-.86-.11-.74-.86-1.21-1.58-1.44s-1.5-.34-2.09-.81c-.73-.59-1.02-1.67-1.87-2.09-1.02-.51-2.52.13-3.25-.75"/>
      <path d="M658.95,411.71c-.43.81-.41,1.77.01,2.58.18.36.44.68.76.92.47.35,1.21.43,1.36,1.09.11.48-.06.99,0,1.48s.29.93.62,1.29c.66.73,1.55,1.05,2.45,1.36.44.16.94.35,1.26.71.44.5.16.95.18,1.53.03.8.95.99,1.45,1.43.39.34.43.68.2,1.15-.19.39-.38.76-.11,1.16.46.67,1.47.73,1.75,1.56.19.55.06,1.23.02,1.8-.04.7-.08,1.39-.11,2.09-.04.66-.24,2.14.88,1.75.86-.3,1.3-1.49,1.66-2.23.56-1.14.98-2.35,1.28-3.59.26-1.11.47-2.29.45-3.43,0-.43-.06-.91-.33-1.27-.28-.38-.57-.32-.98-.44-.76-.23-.14-1.1-.03-1.58.09-.41.07-.83-.05-1.23-.24-.84-.86-1.6-1.69-1.9-.47-.18-1.13-.05-1.54-.33-.34-.23-.28-.6-.32-.96-.03-.28-.13-.52-.31-.74-.76-.95-2.11-.84-3.09-1.41s-1.21-1.91-2.28-2.34c-.99-.4-2.32.17-3.12-.69-.05-.05-.31.05-.27.1.6.65,1.51.49,2.3.54.54.03,1.02.17,1.41.55s.62.84.93,1.25c.62.81,1.48.98,2.41,1.26.48.15.97.35,1.33.72.16.17.3.38.36.61.08.3,0,.64.13.93.15.33.49.41.82.45.53.07.99.1,1.45.4.77.5,1.27,1.4,1.29,2.31,0,.48-.18.85-.32,1.29-.1.32-.14.67.21.84.26.12.54.05.8.2.18.11.31.29.4.47.21.44.21.96.18,1.44-.12,2.41-.78,4.79-1.88,6.93-.22.43-.53,1.27-.95,1.53-.26.16-.68.26-.82-.07-.04-.09-.05-.2-.06-.3-.03-.34.02-.71.04-1.05.03-.63.07-1.25.1-1.88s.15-1.26.05-1.86c-.14-.87-.95-1.08-1.55-1.56-.37-.3-.5-.64-.3-1.1.16-.36.42-.69.25-1.1-.25-.6-1.08-.74-1.5-1.19-.36-.39-.19-.8-.15-1.28.03-.38-.11-.7-.39-.96-.75-.7-1.93-.78-2.79-1.31-.48-.3-.93-.69-1.2-1.19s-.24-1.02-.21-1.58c.03-.53-.02-.99-.5-1.28-.54-.33-1.03-.47-1.42-1.02-.61-.85-.72-1.99-.23-2.92.02-.04-.25-.02-.28.05h0Z"/>
    </g>
    <g>
      <path d="M661.71,410.77c1.45,1.33,4.21-.57,5.62.79.68.66.86,1.96,1.8,2.09.43.06.89-.17,1.29,0,.83.37.23,1.67.57,2.51.43,1.05,2.17.98,2.62,2.01.13.29.13.62.23.92.2.56.73.92,1.17,1.33.44.41.82,1.02.6,1.57,1.83-1.58,2.26-4.54.96-6.58-.14-.22-.3-.44-.35-.69-.05-.25.01-.51.05-.76.18-1.27-.37-2.61-1.39-3.38-.36-.27-.78-.5-.97-.9-.27-.57.04-1.24,0-1.86-.08-1.47-1.85-2.16-2.63-3.41-.32-.52-.46-1.13-.75-1.67-.31-.58-.78-1.07-1.34-1.39-.45-.26-1.06-.4-1.46-.07-.28.23-.37.61-.59.89-.55.71-1.65.58-2.52.32-.86-.26-1.89-.54-2.59.02-1,.79-.44,2.45-.99,3.6-.24.5-.7.89-.9,1.41-.18.48-.12,1.01-.06,1.52.11.9.22,1.8.33,2.7"/>
      <path d="M661.56,410.82c.95.81,2.3.45,3.41.33.68-.07,1.44-.11,2.03.31s.77,1.13,1.17,1.68c.34.47.74.6,1.3.56.5-.04,1-.11,1.19.45.1.29.07.64.06.94-.02.62,0,1.22.51,1.64.47.38,1.08.52,1.59.84.31.19.57.44.68.8.15.46.15.88.47,1.28.57.71,1.81,1.28,1.48,2.38-.02.08.27-.01.3-.04.95-.85,1.54-2.02,1.69-3.29.08-.68.04-1.37-.14-2.03-.09-.32-.21-.63-.36-.92-.16-.31-.41-.58-.52-.91-.14-.4.01-.81.04-1.21s-.03-.77-.13-1.14c-.18-.67-.55-1.29-1.07-1.76-.59-.54-1.33-.81-1.31-1.74.02-.75.25-1.39-.16-2.08-.64-1.11-1.94-1.66-2.52-2.83-.32-.65-.49-1.35-.96-1.93-.41-.52-1.02-1.01-1.69-1.1-.38-.05-.81.03-1.09.3-.24.23-.34.57-.54.83-.43.56-1.2.49-1.81.36-1.06-.23-2.38-.81-3.34.02-.48.42-.58,1.05-.63,1.65-.07.79-.06,1.57-.52,2.25-.23.34-.51.64-.67,1.02s-.17.78-.14,1.18c.08,1.04.25,2.09.37,3.13,0,.06.32,0,.31-.08-.1-.84-.2-1.67-.3-2.51s-.15-1.53.33-2.23c.38-.54.72-.98.83-1.65.1-.6.06-1.23.19-1.83.05-.24.14-.48.28-.69.4-.58,1.11-.61,1.74-.48s1.21.36,1.84.42c.44.04.89,0,1.29-.18.18-.09.35-.2.48-.35.09-.1.16-.21.22-.33.17-.29.19-.39.52-.57.34-.19.52-.16.87,0,.17.07.32.17.47.27.33.23.61.53.85.86.42.59.56,1.32.92,1.95.6,1.02,1.75,1.55,2.37,2.56.36.58.3,1.14.22,1.79-.09.74.08,1.2.68,1.64,1.14.84,1.91,2.01,1.77,3.48-.04.46-.16.84.08,1.27.16.3.37.58.51.89.28.62.43,1.3.45,1.98.03,1.51-.57,3-1.7,4.01l.3-.04c.25-.81-.39-1.41-.95-1.89-.33-.29-.67-.59-.82-1.02-.14-.37-.11-.78-.34-1.12-.72-1.06-2.5-.81-2.62-2.36-.04-.55.18-1.33-.21-1.79-.51-.6-1.42.03-2.01-.39-.55-.39-.74-1.15-1.14-1.67-.34-.44-.82-.68-1.37-.74-1.43-.17-3.23.77-4.46-.29-.06-.05-.34.07-.29.11h0Z"/>
    </g>
    <g>
      <path d="M656.73,409.04c-.85-.81-.76-2.39.18-3.09.31-.23.74-.47.72-.86-.01-.17-.11-.31-.19-.46-.51-.94-.03-2.28.96-2.69.21-.09.44-.14.61-.28.72-.6-.08-2.13.76-2.55.7-.35,1.41.7,2.19.61.76-.09,1.05-1.16,1.79-1.34,1.1-.26,2.17,1.63,3.06.92.46-.37.26-1.16-.19-1.54s-1.05-.53-1.56-.83c-1.32-.78-1.8-2.44-2.82-3.59-1.05-1.2-2.62-1.8-4.13-2.35-.65-.24-1.31-.48-2-.44-1.06.06-2.03.85-2.31,1.87-.05.2-.1.43-.27.54-.1.06-.23.07-.35.08-.6.03-1.2.06-1.8.09-.23.01-.48.03-.64.19-.37.37.1.99.58,1.2s1.1.42,1.16.94c.12.97-1.76,1.05-1.89,2.02-.14,1,1.71,1.33,1.69,2.34,0,.6-.7.98-.84,1.57-.14.6.34,1.17.85,1.52s1.11.65,1.39,1.2c.21.42.2.91.28,1.38.25,1.41,1.35,2.49,2.39,3.46"/>
      <path d="M656.87,408.98c-.85-.87-.73-2.33.24-3.05.29-.21.7-.46.67-.88-.02-.24-.21-.46-.29-.68-.11-.29-.13-.6-.08-.9.09-.62.47-1.2,1.06-1.46.37-.16.73-.25.91-.65.31-.69-.26-2.81,1.2-2.05.72.37,1.37.79,2.08.16.38-.34.69-.98,1.25-1.01.48-.03.93.35,1.31.61.51.35,1.21.77,1.76.24.31-.3.29-.77.12-1.14-.22-.47-.67-.71-1.12-.92-.59-.27-1.13-.53-1.58-1.02-.38-.42-.68-.91-.98-1.4-.62-1.02-1.25-1.92-2.27-2.58s-2.26-1.12-3.44-1.51c-1.08-.36-2.2-.4-3.13.35-.37.29-.66.68-.83,1.11-.13.34-.13.67-.54.76-.39.08-.86.04-1.26.06s-1.01-.05-1.32.29-.08.77.21,1.03c.38.35.96.39,1.32.78.4.43.13.87-.29,1.13-.52.33-1.42.64-1.41,1.39s.95,1.1,1.39,1.56c.91.96-.67,1.6-.54,2.59.17,1.28,1.88,1.41,2.32,2.52.24.61.17,1.29.41,1.91.21.54.53,1.02.9,1.46.4.48.86.92,1.31,1.35.08.08.36-.04.27-.12-.88-.83-1.83-1.72-2.24-2.9-.2-.58-.14-1.21-.36-1.78-.19-.49-.61-.8-1.03-1.08-.51-.34-1.15-.71-1.27-1.37s.44-.99.7-1.49c.4-.74-.2-1.26-.75-1.67-.29-.22-.67-.47-.78-.84-.14-.48.24-.81.6-1.03.45-.28,1.26-.56,1.27-1.21.02-1.08-1.8-.83-1.87-1.85-.05-.66,1.77-.51,2.22-.53.42-.02.73-.06.89-.48.24-.62.41-1.13.98-1.55.65-.48,1.41-.54,2.18-.35,1.23.3,2.54.84,3.63,1.48s1.77,1.53,2.41,2.58c.52.87,1.07,1.76,1.99,2.26.52.28,1.2.43,1.58.91.43.54.32,1.67-.58,1.29-.7-.29-1.25-1.04-2.07-1.02-.87.02-1.09.9-1.75,1.27-.86.48-1.61-.95-2.53-.5-.83.41-.33,1.56-.59,2.25-.19.53-.93.57-1.33.93-.36.33-.6.79-.68,1.28-.04.24-.03.49.02.73.06.28.27.51.33.78.14.57-.79.92-1.08,1.35-.57.83-.49,2.02.22,2.74.08.08.35-.03.27-.12h0Z"/>
    </g>
    <g>
      <path d="M654.98,411.37c.33-1.42-1.71-2.1-2.56-3.28-.65-.9-.63-2.22-1.45-2.98-.59-.54-1.57-.74-1.81-1.51-.14-.45.05-.93.02-1.39-.09-1.78-2.95-2.46-2.98-4.24-.03-1.61,2.35-2.74,1.83-4.27-.16-.47-.59-.84-.68-1.33-.19-.99.98-1.63,1.94-1.94,1.34-.43,2.67-.87,4.01-1.3-2-2.05-4.6-3.51-7.4-4.14-1.03-.23-2.13-.35-3.11.05-.97.4-1.74,1.47-1.49,2.49.07.3.23.58.25.89.11,1.35-2.17,2.32-1.56,3.53.14.28.43.47.56.76.39.83-.66,1.77-.4,2.65.23.76,1.26.95,1.72,1.6.28.39.31.9.46,1.36.21.64.65,1.17,1.08,1.68,1.22,1.46,2.45,2.92,3.67,4.39.86,1.03,1.82,2.12,3.12,2.46.07,2.55,2.45,4.8,5,4.73"/>
      <path d="M655.12,411.36c.14-.77-.32-1.33-.87-1.81-.85-.74-1.72-1.27-2.13-2.37-.34-.91-.53-1.82-1.38-2.4-.4-.27-.93-.45-1.24-.84-.45-.55-.13-1.2-.19-1.83-.17-1.71-2.38-2.16-2.89-3.68-.58-1.78,1.91-2.7,1.82-4.38-.03-.61-.52-.98-.71-1.53-.26-.8.4-1.35,1.04-1.68.71-.36,1.51-.55,2.27-.8.82-.27,1.65-.54,2.47-.8.05-.02.17-.09.11-.16-1.22-1.23-2.62-2.26-4.18-3.02s-3.24-1.36-4.92-1.38c-1.34-.01-2.82.61-3.17,2.02-.19.78.41,1.47.18,2.21-.19.63-.75,1.09-1.14,1.6-.25.33-.5.71-.45,1.14.03.3.21.51.4.74.4.49.39.89.18,1.45s-.53,1.14-.25,1.72,1.02.81,1.48,1.25c.62.6.58,1.65,1.06,2.37.56.86,1.3,1.62,1.95,2.41,1.22,1.46,2.37,3.12,3.81,4.37.32.28.66.53,1.04.71.2.1.54.15.65.35.06.1.03.34.05.46.14.8.5,1.56,1,2.2.98,1.25,2.48,2.01,4.07,2,.17,0,.22-.21.03-.21-2.52.01-4.74-2.13-4.86-4.64,0-.04-.02-.07-.06-.09-1.36-.39-2.28-1.47-3.15-2.52-1.01-1.21-2.02-2.42-3.03-3.62-.44-.53-.93-1.04-1.29-1.63s-.38-1.3-.71-1.91c-.49-.92-2.09-1.07-1.81-2.35.1-.49.41-.92.47-1.42.08-.57-.25-.82-.55-1.25-.62-.9.53-1.75,1.01-2.41.2-.27.39-.58.44-.92.09-.55-.26-1.02-.28-1.55-.07-1.84,2.04-2.41,3.5-2.24,3.1.37,6.09,2.07,8.26,4.27l.11-.16c-1.4.45-2.82.86-4.2,1.37-.73.26-1.75.75-1.87,1.62-.07.45.16.81.39,1.17.36.56.48,1.05.19,1.67-.38.82-1.14,1.41-1.52,2.24-.82,1.8,1.12,2.74,2.13,3.84.28.3.52.65.61,1.06.12.59-.19,1.22.07,1.79.42.92,1.68,1.04,2.18,1.93.59,1.04.63,2.16,1.56,3.01.78.71,2.25,1.4,2.02,2.66-.03.14.27.11.29-.02h0Z"/>
    </g>
    <g>
      <path d="M651.74,412.96c-1.91.56-4.15-.45-5-2.25-.28-.6-.42-1.27-.77-1.84-1-1.65-3.44-2.02-4.35-3.72-.5-.93-.44-2.07-.91-3.01-.93-1.88-3.62-2.43-4.41-4.37-.2-.5-.27-1.06-.57-1.5-.48-.71-1.44-.95-1.98-1.61-.72-.87-.54-2.26-1.31-3.09-.46-.49-1.2-.72-1.51-1.32-.54-1.04.61-2.42,0-3.42-.24-.39-.7-.61-.94-.99-.59-.93.39-2.11,1.41-2.53,1.3-.53,2.74-.53,4.15-.53.33,0,.66,0,.99,0,1.67,0,3.65.17,4.51,1.6.17.28.27.68.04.92-.12.12-.29.17-.45.22-1.21.32-2.42.64-3.63.96.85.55.6,1.86.17,2.77s-.96,2.04-.38,2.87c.29.42.84.7.92,1.2.06.39-.19.76-.24,1.16-.14,1.17,1.37,1.73,2.2,2.57.58.59.85,1.41,1.22,2.16.43.86,1,1.63,1.58,2.4.52.69,1.04,1.39,1.56,2.08,1.45,1.94,2.9,3.88,4.48,5.72,1.11,1.29,2.27,2.54,3.49,3.73"/>
      <path d="M651.73,412.92c-1.88.5-4.01-.49-4.84-2.25-.37-.78-.52-1.63-1.11-2.29-.52-.59-1.21-.99-1.88-1.39s-1.39-.83-1.88-1.47c-.61-.79-.65-1.79-.91-2.72-.45-1.61-1.86-2.35-3.11-3.28-.64-.47-1.25-1.02-1.56-1.78-.36-.86-.44-1.58-1.25-2.14s-1.44-.91-1.75-1.86c-.22-.7-.29-1.48-.75-2.08-.52-.67-1.55-.88-1.73-1.8-.15-.79.31-1.54.31-2.32,0-.98-.94-1.14-1.23-1.95-.44-1.22,1.07-2.17,2.01-2.44,1.34-.38,2.78-.31,4.16-.3.98,0,1.99.01,2.94.31.65.2,2.68,1.39,1.69,2.18-.46.37-1.34.44-1.91.59-.64.17-1.29.34-1.93.51-.01,0-.17.06-.12.09,1.75,1.29-.88,3.63-.41,5.23.12.4.4.64.68.93.19.2.39.41.43.69.06.36-.15.7-.22,1.05-.14.74.37,1.26.91,1.68.81.64,1.53,1.15,2,2.11s.95,1.92,1.61,2.82c1.47,2.02,2.97,4.02,4.51,5.98,1.7,2.17,3.51,4.25,5.48,6.18.05.05.31-.06.27-.1-3.63-3.55-6.62-7.63-9.65-11.69-.69-.93-1.29-1.87-1.77-2.92-.39-.85-.83-1.47-1.58-2.03-.67-.5-1.62-1.05-1.5-2.01.05-.44.34-.85.18-1.3s-.63-.67-.88-1.04c-1.15-1.69,2.15-4.22.2-5.66l-.12.09c1.25-.33,2.57-.58,3.8-1.01.73-.26.61-.91.19-1.44-1.16-1.47-3.44-1.34-5.11-1.35-1.77,0-4.13-.13-5.53,1.19-.58.55-.98,1.41-.41,2.11.31.39.8.61.96,1.13.15.48,0,1.01-.12,1.48-.19.81-.28,1.58.42,2.17.35.29.77.48,1.08.82.39.42.53.98.66,1.52.24.94.53,1.63,1.36,2.17.4.26.84.49,1.15.87.39.47.44,1.08.67,1.63.68,1.64,2.56,2.24,3.74,3.44.83.85.95,1.86,1.23,2.96.24.97.74,1.67,1.54,2.25s1.75,1,2.51,1.67c.94.85,1.02,2.04,1.67,3.06,1.04,1.61,3.08,2.3,4.91,1.81.17-.04.15-.13-.02-.09h0Z"/>
    </g>
    <g>
      <path d="M634,399.23c.7-.32.53-1.42-.02-1.96-.55-.54-1.32-.82-1.81-1.41-.63-.77-.63-1.89-1.11-2.76-.51-.93-1.49-1.47-2.27-2.19s-1.39-1.88-.87-2.8c.28-.5.86-.96.66-1.49-.2-.54-1.08-.59-1.25-1.14-.19-.62.7-1.07.77-1.72.05-.43-.28-.82-.66-1.03-1.3-.74-2.92-.05-4.25.63-1.55.8-3.1,1.6-4.65,2.4-.11.06-.22.11-.3.2-.4.38-.11,1.11.38,1.35s1.07.18,1.62.18,1.17.11,1.48.56c.31.45.19,1.08.38,1.59.46,1.27,2.33,1.24,3.29,2.18.6.59.79,1.5,1.39,2.07.62.59,1.53.72,2.26,1.16,1.02.63,1.54,1.79,2.18,2.79.65,1,1.68,1.97,2.86,1.8"/>
      <path d="M634.07,399.31c.62-.34.65-1.08.36-1.67-.38-.77-1.27-1.05-1.88-1.6-.8-.72-.82-1.83-1.23-2.76-.38-.86-1.14-1.42-1.86-2-.77-.62-1.71-1.53-1.58-2.63.06-.49.38-.81.63-1.21.19-.29.34-.63.17-.97-.3-.58-1.56-.67-1.15-1.52.32-.65,1.08-1.14.49-1.92-.51-.67-1.49-.82-2.28-.72-.99.12-1.9.57-2.77,1.02-1.1.57-2.2,1.14-3.3,1.7-.47.24-1.02.44-1.44.76-.26.2-.38.48-.31.81.17.82,1.04.98,1.75.98.53,0,1.12-.07,1.6.22s.51.85.58,1.36c.25,1.8,2.25,1.66,3.36,2.66.78.71.92,1.87,1.86,2.45.41.25.87.4,1.31.59.58.25,1.05.6,1.45,1.1,1.14,1.41,1.97,4.04,4.24,3.79.16-.02.22-.23.03-.21-2.05.23-2.9-2.24-3.89-3.56-.51-.68-1.13-1.1-1.9-1.42-.38-.15-.78-.29-1.12-.53-.42-.29-.68-.7-.91-1.14-.37-.69-.73-1.26-1.44-1.64-.61-.32-1.3-.49-1.89-.86-.31-.2-.57-.46-.7-.81-.15-.4-.1-.85-.23-1.26-.22-.72-.93-.94-1.61-.96-.48-.02-.99.07-1.45-.08-.44-.14-.9-.61-.72-1.1.1-.28.42-.39.67-.51s.5-.26.75-.39c.52-.27,1.05-.54,1.57-.81.97-.5,1.93-1.05,2.93-1.48s2.18-.77,3.17-.2c.41.24.76.67.57,1.16-.13.33-.41.58-.59.88-.33.56-.02.97.48,1.26.32.18.74.38.68.83-.05.4-.43.72-.63,1.05-.4.66-.28,1.42.09,2.07.49.88,1.35,1.39,2.08,2.04.41.36.79.77,1.01,1.28.21.46.31.96.46,1.44.14.44.32.87.63,1.21.3.32.67.55,1.04.79.41.27.82.55,1.02,1.01.19.43.24,1.06-.24,1.32-.17.09-.02.25.13.17h0Z"/>
    </g>
    <g>
      <path d="M624.4,393.63c-.4-1.21-2.23-1.12-3.12-2.04-.54-.57-.7-1.5-1.4-1.86-.83-.43-2.07.17-2.69-.53-.42-.47-.27-1.29-.73-1.72-.42-.4-1.1-.25-1.64-.06-1.86.67-3.6,1.65-5.14,2.89-.17.14-.35.29-.42.5-.16.47.34.96.84.98s.95-.27,1.35-.57.81-.62,1.31-.69c1.45-.19,2.42,1.88,3.88,1.79.45-.03.87-.27,1.32-.22,1.03.1,1.51,1.59,2.54,1.66.38.02.74-.16,1.11-.24.61-.14,1.28.01,1.78.39.23.18.44.41.72.5s.67-.08.65-.38"/>
      <path d="M624.54,393.59c-.39-1.05-1.7-1.17-2.57-1.65-.63-.34-.9-.89-1.24-1.49-.29-.5-.66-.86-1.24-.94s-1.32.13-1.88-.15c-.66-.32-.52-1.15-.83-1.71-.67-1.16-2.63-.08-3.44.3-.72.33-1.43.72-2.1,1.14-.64.4-1.34.84-1.87,1.38-.41.42-.3.98.21,1.26s1.09.08,1.55-.19c.72-.42,1.35-1.18,2.26-.85.53.19.96.59,1.39.93.39.31.81.62,1.31.74.7.17,1.42-.37,2.08-.11.58.23.94.83,1.41,1.21s.98.44,1.57.27,1.08-.26,1.65-.03c.39.16.65.49,1.01.69s1.06.15,1.11-.37c.01-.11-.28-.06-.29.04-.01.12-.38.27-.5.25-.08-.01-.19-.11-.26-.16-.12-.09-.22-.19-.34-.28-.23-.18-.49-.3-.77-.38-.61-.17-1.13-.03-1.72.14-1.25.35-1.66-1.09-2.65-1.49-.55-.22-1.05.04-1.6.12s-1.08-.23-1.53-.55c-.69-.51-1.39-1.26-2.32-1.23-.53.02-.99.3-1.41.61-.31.22-.62.49-.99.6-.46.14-1.05-.05-1.15-.58-.08-.41.34-.69.62-.91.31-.24.63-.47.95-.7.59-.4,1.21-.77,1.85-1.1.69-.35,1.41-.68,2.15-.92.35-.11.77-.23,1.13-.07.33.15.47.46.56.79.13.48.18,1.01.65,1.29.42.25.96.19,1.42.19.35,0,.73,0,1.05.16s.53.47.7.78c.29.5.53,1.02,1.02,1.35.87.59,2.36.63,2.77,1.74.04.1.32.01.29-.08h0Z"/>
    </g>
    <path d="M665.94,441.51c.94.96-7.88,1.98-7.47.7s.09-5.91-.57-7.08,4.74,5.81,6.18-.52c1.35-.36,1.52,4.17,2.92,4.24,1.82.1.34-3.29.13-5.1-.21-1.81,0-2.39-.3-4.19-.12-.68,1.4-1.48,2.07-1.61.25-.05.51.04.76.09,1.11.21,2.27-.41,2.94-1.32s-1.99-3.59-1.96-4.72c.05-1.93.85-3.18-.18-4.81-.42-.65.64-.48.51-1.24-.13-.77.32-1.7,1.09-1.75.46-.03.87.25,1.24.52,1.68,1.23,3.33,2.61,4.36,4.42,1.03,1.81,1.36,4.15.36,5.98-.4.72-.99,1.37-1.12,2.18-.16,1.02.44,2.01.44,3.04,0,2.08-2.41,3.64-2.23,5.71.06.65.37,1.24.48,1.88.18,1.14-.38,2.37-1.36,2.97-.59.36-1.3.51-1.89.87-2.21,1.37-1.74,4.88-3.47,6.81"/>
    <path d="M638.27,399.93c-1.84.39-3.2,1.77-3.46,3.63-.1.7-.06,1.5-.4,2.13-.26.49-.62.75-1.12,1.14-.97.77-2.03,1.51-2.57,2.66-.36.78-.39,1.54-.32,2.39.03.35.09.71.1,1.06,0,.16,0,.32-.02.48l-.04.22c-.13.32-.06.3.22-.05l1.64-.56c.21-.03.37.1.09-.04.16.08-.17-.07-.21-.1.01.01-.29-.34-.2-.32.02,0-.35.28-.31.26.32-.22-.23.07.02-.03.3-.12.59-.27.88-.41.9-.45,1.75-1.02,2.19-1.96.38-.79.44-1.6.44-2.46,0-.35,0-.69.04-1.04s.19-.69.23-1.04c0-.02.09-.31,0-.11-.06.14-.24.12.05.03.64-.21,1.3-.67,1.71-1.2.54-.7.72-1.67.97-2.5.32-1.05.64-2.1.96-3.15.29-.96-1.34-1.06-1.89-.99-.89.1-2.17.55-2.46,1.51-.24.78-.47,1.55-.71,2.33s-.62,1.58-.72,2.36c-.02.16-.3.32.17-.05s.12-.15-.07-.07c-.46.19-.94.47-1.31.8-.52.46-.87,1.03-1.09,1.7-.39,1.2-.04,2.48-.39,3.69-.04.12-.15.35-.16.42.02-.14.16-.02-.04.03.35-.08.15-.07.02-.02-.58.25-1.17.51-1.68.88-1.04.74-1.8,2.15-.61,3.15,1.39,1.17,3.77,1.14,5.25.22,1.58-.99,1.41-2.58,1.27-4.2-.1-1.2.33-1.74,1.14-2.4.97-.79,2.08-1.51,2.66-2.65.42-.81.48-1.63.59-2.51.05-.38.15-.72.25-1.09.1-.42.23-.03-.51.12.67-.14,2.11-.82,1.87-1.72-.25-.94-1.84-.69-2.48-.55h0Z"/>
    <path d="M633.24,395.61c-2.18-.28-5.64.72-6.18,3.22-.12.57,0,1.14-.02,1.71-.01.26-.1.43-.14.68-.04.03-.04.03.01,0,.13-.07.14-.08.03-.01-.13.07-.11.06.07-.02-.12.05-.24.1-.36.15-.18.08-.36.15-.54.23-.62.28-1.23.59-1.76,1.02-.78.63-1.43,1.49-1.71,2.46-.14.49-.08,1-.2,1.49.01-.06-.07.38-.14.35.06-.09.15-.15.25-.2-.2.11-.17.1.09-.04-.82.33-1.66.63-2.36,1.18-.35.27-.7.66-.83,1.09-.06.2-.07.41-.07.62,0,.15,0,.29.01.44-.07.46.21.33.83-.38l1.16-.31c.85.15,1.08.14.67,0h.01c.04.23-.29-.72-.2-.38-.12-.47.09-.97.25-1.4.08-.21.22-.42.27-.64l.07-.09c-1.33.45-1.66.64-1,.55.63-.03,1.31-.22,1.89-.45.97-.39,1.85-1.01,2.22-2.02.29-.8.16-1.68.02-2.5-.12-.74-.27-1.64.28-2.23.24-.25.26-.22.58-.4.41-.24-.16.05.24-.11.18-.07.35-.15.53-.23.91-.42,1.9-.94,2.43-1.83.27-.45.25-.78.24-1.28,0-.56.03-.32-.82.13-.3.28-.64.44-1.02.46-.19-.02-.18-.01.02.01,1.02.15,2.28-.16,3.07-.82.67-.55.54-1.23-.36-1.36-1.13-.16-2.29-.05-3.35.36-.86.33-1.9.92-1.92,1.95,0,.23.1.52.04.73-.04.15-.09.13-.21.22.3-.21-.42.18.06-.04-.87.4-1.72.76-2.51,1.32-.63.44-1.17.99-1.51,1.69-.44.9-.25,1.9-.1,2.85.05.32.12.64.1.97s-.19.6-.22.89c0-.05,2.48-.47,1.16-.49-.13,0-.3.03-.43.04-.82.11-1.64.33-2.36.73-1.33.76-2.81,3.28-1.72,4.75,1.2,1.64,4.72.82,5.69-.67.25-.39.25-.75.25-1.19,0-.18.03-.34.04-.51,0,.07.16-.08-.06.06-.11.07-.28.23-.41.23.1,0,.32-.13.42-.17.41-.16.81-.32,1.2-.52.6-.3,1.19-.7,1.55-1.27.5-.78.28-1.74.64-2.58.12-.29.3-.56.52-.78.23-.24.17-.17.1-.11.23-.13.24-.14.03-.03.12-.05.24-.1.36-.15.95-.4,1.95-.82,2.64-1.61.73-.83.57-1.7.58-2.71,0-.34.07-.67.26-.96-.01.02.23-.3.24-.24.03.25-1.19.39-1.32.37,1.03.13,2.27-.15,3.07-.82.66-.55.55-1.24-.36-1.36h0Z"/>
    <g>
      <path d="M623.1,395c-1.47-.54-3.28.07-4.11,1.39-.63.99-.71,2.22-.94,3.37-.24,1.15-.75,2.38-1.82,2.85-.7.31-1.63.3-2.02.96-.55.94.55,2.43-.29,3.12-.54.45-1.36.05-1.92-.38-.18-.14-.38-.41-.21-.57.08-.08.21-.08.32-.08,1.73-.02,3.26-1.67,3.16-3.39-.04-.66-.2-1.51.37-1.84.22-.13.49-.13.72-.22.66-.26.85-1.07,1.09-1.74.73-2.01,2.71-3.65,2.58-5.79"/>
      <path d="M624.87,394.09c-2.15-.72-4.89-.06-6.7,1.23-.79.57-1.4,1.33-1.73,2.25s-.38,1.82-.59,2.72c-.16.7-.48,1.3-.82,1.86-.22.15-.2.15.05,0,.13-.08.27-.14.42-.18-.06-.03-.46.13-.53.15-.69.2-1.36.45-1.96.84-.74.48-1.16,1.08-1.13,1.97.01.38.12.75.16,1.12.02.15.03.58.02.59l.9-.46.78-.22,1.01-.05c-.12,0-.9-.34-.82-.52l-.87.75.15-.07-2.19.59c2.16-.15,4.55-.87,5.8-2.77.44-.67.65-1.39.62-2.2-.01-.35,0-.73-.02-1.07.16-.36-.03-.3-.58.16-.71.3-.86.39-.45.28.42-.08.88-.27,1.25-.46.88-.44,1.45-1.05,1.78-1.97.28-.76.59-1.45,1.02-2.14.86-1.39,1.81-2.68,1.76-4.39-.03-.93-4.39-.2-4.35,1.16.04,1.27-.73,2.38-1.38,3.4s-1.3,2.15-1.65,3.33c-.12.4,1.68-.65,1.05-.51-.28.06-.58.15-.85.25-.43.16-.85.37-1.21.64-.66.5-.8,1.11-.76,1.91.03.59.06,1.07-.17,1.63-.11.27-.25.5-.44.72-.08.09-.17.19-.27.27-.15.13-.1.02-.08.04-.02-.03,1.96-.51.2-.2-.62.11-1.24.3-1.8.6-.9.48-1.3,1.21-.37,1.87.68.48,1.49.69,2.32.66,1.18-.05,2.75-.45,3.56-1.39.37-.43.44-.95.38-1.5-.03-.29-.1-.57-.14-.86-.02-.12.07-.7.03-.75-.05-.07-.02.03-.05,0,.17.17-.88.33-.58.29.4-.05.81-.23,1.18-.37.84-.32,1.68-.78,2.26-1.47,1.03-1.24,1.08-2.76,1.44-4.26.17-.72.43-1.31.92-1.86.29-.32.17-.07.09-.07-.16,0-.38.12-.55.16-.12.02-.32-.05-.14.01.14.05.32.06.47.11.94.31,2.21-.07,3.05-.51.45-.24,1.44-.99.49-1.3h0Z"/>
    </g>
    <path d="M614.92,390.47c-3.51.79-6.81,3.48-7.48,7.15-.15.8-.16,1.62-.05,2.43.06.41.04.84.09,1.24l-.06.19c.12-.1.24-.19.37-.27.07-.05.14-.08.23-.09-.22.07-.45.14-.67.22-1.01.39-2.11,1.02-2.38,2.16-.11.46-.07.94-.07,1.4,0,.18,0,.35-.01.53-.15,1.15-.71.03,1.41-.2l1.02-.02c.15,0,.08.16.15-.07.04-.14-.01-.37,0-.52.03-.39.13-.78.25-1.15.23-.66.62-1.29,1.2-1.7s1.56-.81,2.17-1.45.82-1.42,1.03-2.25c.08-.3.15-.66.3-.94.19-.34.56-.53.85-.78.64-.55,1.09-1.19,1.44-1.95.49-1.09.69-2.7,1.62-3.36.73-.51.46-1.19-.35-1.31-1.04-.16-2.23.23-3.07.82-1.15.81-1.64,2.03-2.08,3.3-.18.52-.34,1.09-.63,1.56-.34.55-.9.86-1.35,1.31-.56.56-.85,1.23-1.04,1.98-.12.46-.27,1.28-.56,1.53-.21.19-.54.29-.79.43-.39.22-.78.47-1.13.75-.65.53-1.16,1.16-1.56,1.89-.52.95-1.29,3.21.01,3.83,1.58.76,4.6-.13,5.3-1.81.29-.69.12-1.42.18-2.14.04-.47.45-.98-.36-.33l-.17.05.57-.19c.34-.12.66-.24.98-.42.69-.38,1.41-.93,1.55-1.76.13-.74-.09-1.45-.14-2.19-.09-1.4.36-2.88,1.16-4.03.4-.58.87-1.08,1.43-1.5,0,0,.29-.19.11-.08.17-.11.36-.21.54-.3-.32.15.09-.02.17-.05.15-.06.13-.05-.08.03.13-.04.27-.07.4-.1.57-.13,2.11-.69,1.92-1.51s-1.96-.45-2.42-.35h0Z"/>
    <path class="cls-14" d="M636.03,480.23c-1.2.1,3.41-18.95,2.21-18.9-4.94.2-17.11,9.82-22.04,9.52-7.61-.46-8.54-6.46-15.21-9.74.74,4.63-4.51,12.81-5.8,16.27l-4.39,6.35c12.64,14.72,30.06,54.27,63.13,39.25l-14.78-40.29-3.11-2.46Z"/>
    <path class="cls-9" d="M598.06,468.83s12.01,4.89,25.4,1.09c0,0-2.51,3.28-11.29,3.57s-14.75-2.67-14.75-2.67l.64-2Z"/>
    <ellipse cx="598.87" cy="423.79" rx="2.89" ry="2.88" transform="translate(135.77 992.8) rotate(-86.14)"/>
    <path d="M596.35,420.46c1.58-.42,3.56-.4,6.15.68,4.15,1.72,4.4,7.68,4.4,7.68,0,0-.99-4.8-5.04-6.6-1.95-.87-5.66-.73-7.45-.43.17-.39.98-1.03,1.94-1.33Z"/>
    <path class="cls-23" d="M657.05,454.03c.9-1.22,1.63-2.7,1.6-4.25,0-.48.01-1.08-.53-1.26-1.26-.41-2.84.39-3.89.99-1.65.94-3.12,2.15-4.53,3.42-.63.58,0,1.24.73.99.12-.04.24-.07.37-.09-.21.04.09,0,.17-.01.1,0,.11-.02.2.02.04.02.14.2.14.29.02.23-.01.48-.08.7-.12.39-.37.77-.74,1-.11.07-.38.17-.62.2-.43.06-.85-.01-1.27-.1-.85-.17-1.72,1.03-.59,1.26,2.01.41,4.4-.28,4.95-2.48.19-.78.06-1.67-.77-2-.64-.26-1.45-.18-2.09.04l.73.99c1.07-.97,2.19-1.91,3.39-2.72.38-.25.71-.46,1.12-.67.17-.09.34-.17.51-.25.09-.04.18-.08.27-.12.02,0,.28-.11.14-.06s.09-.03.12-.04c.07-.02.14-.04.21-.06.11-.03.22-.05.33-.08.2-.05-.22.01.08,0,.07,0,.15,0,.22-.01.16-.03-.26-.02-.03,0,.03,0,.08.02.12.02.07-.01-.24-.08-.09-.02l-.36-.35c.12.4.1.67.05,1.13-.12,1.11-.62,2.14-1.27,3.03s.96,1.16,1.43.52h0Z"/>
    <ellipse cx="627.4" cy="433.1" rx="2.89" ry="2.88" transform="translate(153.08 1029.95) rotate(-86.14)"/>
    <path d="M619.11,432.48s5.9-4.28,10.48-2.42c6.44,2.61,6.73,5.72,7.34,8.24,0,0-2.8-5.26-7.83-7.16-4.56-1.72-9.98,1.35-9.98,1.35Z"/>
    <path class="cls-8" d="M605.4,449.8c3.96,1.24,10.53,2.8,10.53,2.8,0,0-2.82,10.38-13.75,6.77-9.14-3.02-5.21-12.77-5.21-12.77,0,0,4.47,1.96,8.44,3.2Z"/>
    <path d="M605.37,449.79c1.88.59,8.92,2.71,8.92,2.71,0,0-3.99,4.9-10.8,2.76-7.39-2.31-6.31-7.59-6.31-7.59l8.18,2.11Z"/>
    <path class="cls-11" d="M605.02,450.63c1.88.59,7.71,2.08,7.71,2.08,0,0-2.74.85-8.39-.92-5.65-1.77-6.79-3.77-6.79-3.77l7.47,2.61Z"/>
    <path class="cls-8" d="M596.09,446.55c.06-.2.5-.17,1.46.05,1.6.36,2.28-.04,3.44.23,1.97.46,2.97,1.58,3.81,1.84.84.26,2.29-.09,4.18.66,1.1.44,3.78,1.71,5.3,2.33.91.37,2.12.36,2.3.47.26.15-1.19,2.51-11.74-.78-10.54-3.3-8.83-4.51-8.75-4.79Z"/>
    <path d="M623.03,421.64c.02-.1.37-.02.39-.12,5.84.15,10.05,1.14,11.51,1.82,1.11.52,2.12,1.27,3.03,2.16,0,0,2.53,2.42,2.72,3.17.19.75-1.71-.8-1.71-.8-.43-.26-.7-.51-1.15-.71-2.5-1.1-4.79-2.52-7.5-2.86-2.31-.31-5.68.2-8.05.47.21-1.09.64-2.03.76-3.13Z"/>
    <path d="M595.75,414.07c.04-.09.09-.17.14-.25.51-.11.88-.18.88-.18,1.22-.25,2.44-.31,3.62-.13,1.54.23,5.46,1.72,10.21,4.8-.04.09.29.22.25.32-.51.98-.68,2-1.12,3.02-1.74-1.52-4.15-3.8-6.17-4.81-2.35-1.2-4.97-1.28-7.57-1.74-.2-.04-.39-.04-.57-.04.11-.33.21-.66.35-.99Z"/>
    <g>
      <path class="cls-6" d="M605.13,444.16c.75.8,2.19,1.18,3.32.93.25-.06.89.31.54.39-1.49.33-3.52-.3-4.49-1.34-.1-.1-.04-.19.12-.18.17,0,.41.1.51.21"/>
      <path class="cls-6" d="M609.48,445.35c.72-.08,1.47.01,2.18.2.1.03.22.11.27.2.04.07.03.15-.06.16-.38.07-.82,0-1.19-.13-.12-.04-.26-.13-.29-.25-.03-.12.11-.14.2-.1.31.11.64.16.96.1.07.12.14.25.21.37-.63-.17-1.3-.24-1.95-.17-.13.01-.27-.08-.35-.17-.06-.07-.1-.2.03-.21"/>
      <path class="cls-6" d="M612.2,446.4c.82.26,1.89.24,2.5-.23.92-.71.9-2.46.09-3.4-.09-.1,0-.17.12-.15.16.02.31.13.4.24.7.82.83,2.31.39,3.13-.41.76-1.38,1.06-2.42.95-.31-.03-.63-.09-.94-.19-.12-.04-.33-.15-.36-.27-.03-.12.1-.12.22-.08"/>
      <path class="cls-6" d="M603.8,443.22c.08-.08.02-.17-.05-.19-.22-.07-.42-.21-.56-.43-.1.06-.2.13-.31.19.42.2.81.5,1.11.9.06.08.18.08.27.05.07-.03.16-.11.1-.19"/>
      <path class="cls-6" d="M604.37,443.56c-.34-.45-.77-.77-1.24-1-.07-.03-.18-.03-.25.02-.06.04-.09.1-.05.17"/>
      <path class="cls-6" d="M602.08,442.75c-.52-.2-1.01-.77-1.06-1.48-.07-1.06.68-2.03,1.54-2.39.09-.04.08-.14.02-.18-.08-.06-.21-.05-.31,0-.75.31-1.41,1.02-1.63,1.91-.2.84.11,1.58.65,2.03.16.13.35.25.54.33.08.03.23.04.31-.04.07-.08.02-.15-.06-.18"/>
    </g>
    <path class="cls-38" d="M648.53,491.7c-.66,5.68,1.14,11.46,4.93,15.74.3.34,1.56-.14,1.22-.51-3.7-4.18-5.48-9.85-4.83-15.39.06-.51-1.26-.27-1.31.17h0Z"/>
    <path class="cls-38" d="M608.31,525.86c-3.63-2.78-7.03-5.84-10.16-9.17-3.39-3.06-6.53-6.38-9.38-9.94,3.63,2.77,7.03,5.83,10.16,9.14,3.39,3.06,6.53,6.39,9.39,9.96Z"/>
    <path class="cls-38" d="M611.87,520.51c-.24.19-4.15-4.32-9.31-9.54-5.16-5.22-9.59-9.23-9.38-9.48,3.74,2.46,7.17,5.37,10.18,8.68,3.27,3.06,6.14,6.54,8.51,10.33Z"/>
    <path class="cls-14" d="M672.06,591.75c-1.65-14.51-.53-30.43-2.92-42-1.81-9.58-3.28-21.62-6.36-32.87-1.42-.85-2.88-1.57-4.19-2.2-4.27-2.05-8.77-3.5-13.4-4.51-1.91-.41-3.64-.66-5.39-.78.47,13.17,1.83,27.29,5.24,35.25,7.62,17.8,18.96,97.29,18.96,97.29l12.71,2.17,14.12-18.85c-3.63-5.09-18.34-29.73-18.77-33.51Z"/>
    <path class="cls-27" d="M725.8,611.05s.08.03.13.04c0-.11,0-.22,0-.33-.04.1-.09.19-.13.29Z"/>
    <path class="cls-14" d="M679.73,792.9l-1.77-26.17-2.72-39.16c-.39-8.49-4.72-31.2,1.94-40.46l-19.66-31.57,44.15-1.87s18.54,14.04,13.38,41.38c-6.31,33.4-17.47,90.51-15.74,92.98.1.14,1.9,9.53,2.01,9.68-.88.05-3.31-1.48-4.19-1.4-5.96.55-5.95,1.37-11.95,1.4-.6-1.55-3.9-4-5.45-4.81Z"/>
    <path class="cls-16" d="M614.29,656.52l4.43-64.26,41.19,11.15-1.07,51.96c-14.86.13-29.7.79-44.55,1.16Z"/>
    <path class="cls-16" d="M658.41,610.76l53.88,36.97c-11.59,1.11-20.91,14.21-24.18,20.91-3.64,7.45-12.09,18.64-13.99,25.92l-61.13-10.1c7.23-13.11,38-60.71,45.43-73.7Z"/>
    <path class="cls-16" d="M624.37,662.41c-14.39-.13-28.79-.47-43.18-.14-7.79.18-15.48,1-23.13,2.09l-3.86-22.58c-1.73-11.75.19-23.71,1.77-35.49l6.19-12.64,74.99.63-12.19,42.36-.58,25.78Z"/>
    <path class="cls-14" d="M655.81,795.17c-6.03,1.29-7.33-4.67-13.48-4-.04,0-4.93.81-4.97.81-.73-1.24-2.1,2.45-3.55,1.85l.6-5.3-7.32-48.56c-1.39-8.39-6.34-30.67-.81-40.65l-23.25-29.03,49.78-3.59s17.25,11.6,13.74,36.65c-4.04,28.75-10.69,80.57-10.95,90.63"/>
    <path class="cls-16" d="M563.17,689.62c-22.52-20.15-15.82-52.67-9.41-74.54,3.87-13.21,46.13,23.22,53.14,11.37l43.18,26.35,6.58,5.18c-.46,1.74,10.63.74,10.1,2.46-1.67,5.44,1.55,10.44-4.1,10.81-6.67.43-23.79,7.11-27.47,11.51-8.47,10.14-10.3,17.63-13.12,21.58-5-3.05-46.83-11.91-46.83-11.91l-12.08-2.81Z"/>
    <path class="cls-37" d="M566.74,531.51c-3.6,11.14-4.95,16.31-5.55,17.74-.25.6-3.05,44.42-9.15,69.17,6.38,2.67,22.63.13,29.39,1.92,9.81,2.6,19.49,1.82,29.6,2.67,9.12.76,14.93-.15,24.39-.95,10.42-.88,17.83-3.99,28.31-6.91-.48-19.89-1.85-46.93-1.26-56.15.81.03,5.29.3,5.29.3,0,0,10.99-1.09,15.42-7.99-10.12-27.24-4.58-44.77-19.57-56.8-2.62-2.1-23.36-14.8-27.99-15.44.96,1.85,3.06,10.94,2.61,12.15-1.31,3.47-1.99,4.17-5.33,5.54-2.95,1.21-15.28.95-18.46-.01-9.91-3.02-17.92-12.45-19.21-20.3-8.74,2.82-18.88,8.45-25.44,11.89-21.11,11.06-11.07,34.79-11.07,34.79,4.23,2.98,8.02,8.38,8.02,8.38Z"/>
    <path class="cls-27" d="M559.29,538.89c.03.06.06.12.1.17.11-.12.22-.24.33-.36-.14.06-.29.13-.43.19Z"/>
    <path class="cls-36" d="M666.45,523.59c-.05,3.22.09,6.44-.23,9.66-.48,4.89-1.41,9.73-2.29,14.55-.64,3.53-1.06,7.09-1.43,10.66-.07.68,1.65.37,1.71-.21.55-5.46,1.5-10.81,2.41-16.21.73-4.3,1.47-8.64,1.52-13.01.02-1.88-.02-3.77,0-5.65.01-.71-1.7-.35-1.71.21h0Z"/>
    <path class="cls-4" d="M668.2,682.6c4.81-6.6,10.27-14.59,7.74-23.19-1.19-4.03-4.22-6.74-7.69-8.88s-7.13-4.28-10.43-6.89c-3.91-3.11-7.43-6.66-10.53-10.58-.82-1.04-3.54.11-2.62,1.27,5.06,6.38,11.25,11.83,18.24,16.01,3.31,1.97,6.98,3.82,9.04,7.24s2.03,7.63,1.04,11.31c-1.28,4.78-4.33,8.9-7.2,12.84-1.07,1.47,1.61,1.96,2.4.88h0Z"/>
    <path class="cls-4" d="M658.94,672.16c.66-.41,1.19-.69,1.9-.97.51-.2,1.39-.46,1.88-.55,1.46-.28,2.87-.28,4.38,0,.67.12,1.51-.08,2.02-.54.43-.4.34-.9-.27-1.01-4-.74-8.24.08-11.69,2.24-.39.24-.85.81-.25,1.12s1.5.06,2.03-.27h0Z"/>
    <path class="cls-14" d="M581.12,543.46c1.54,18.83-.86,51.05-.86,51.05l51.5,28.36-2.79,10.29s-59.81-2.98-72.39-20.68c-7.1-9.99-8.28-39.85-6.7-62.86,10.67-3.18,20.28-6.33,31.23-6.16Z"/>
    <path class="cls-37" d="M586.12,486.56s-27.86-1.9-35.61,23.69c-7.76,25.59-5.59,47.83-5.59,47.83,0,0,26.73-.35,39.11-1.74,12.38-1.39,4.1-65.51,4.1-65.51"/>
    <path class="cls-36" d="M584.21,556.99c2.13-.12,4.25-.24,6.38-.36.29-.02.94-.24.96-.61.39-7.09.58-14.2.59-21.3,0-5.15-.07-10.31-.53-15.44s-1.4-10.15-4.56-14.25c-1.65-2.13-4.1-4.25-6.8-4.9-.6-.14-2.02.75-1.03.99,2.14.52,4.11,2.14,5.53,3.73,3.41,3.82,4.55,8.89,5.06,13.85,1.02,9.88.71,19.94.37,29.85-.09,2.55-.19,5.1-.33,7.65l.96-.61c-2.13.12-4.25.24-6.38.36-.88.05-1.39,1.1-.21,1.03h0Z"/>
    <path class="cls-38" d="M583.19,593.88c-3.73-1.16-7.99.03-10.53,3.01-.23.27-.11.61.2.74.34.14.79,0,1.02-.27,2.04-2.39,5.48-3.4,8.48-2.46.35.11.79.03,1.02-.27.2-.26.14-.64-.2-.74h0Z"/>
    <path class="cls-16" d="M695.91,652.52c1.61-1.03,3.37-1.85,5.21-2.39,0,0,4.83-2.34,4.88-2.36,1.61-.78,3.6-1.81,5.42-.67.54.34.92.87,1.27,1.39,4.73,7.02,5.24,15.23,1.7,22.9-6.05-15.57-10.22-14.96-18.48-18.87Z"/>
    <path class="cls-4" d="M700.19,654.73c.32-.2.64-.39.97-.56.15-.08.3-.15.45-.22.08-.04.16-.07.24-.1.23-.1-.08.04-.09.03,0,0,.74-.22.81-.23.04,0,.34-.06.07-.02s.03,0,.07,0c.13-.01.26-.02.4-.03s.27,0,.4,0c.23,0-.09.01-.1,0,0,.01.22.01.23.02.29.02.59.06.88.11.72.11,1.44.26,2.16.4.68.13,1.58-.25,1.86-.9s-.27-1.19-.9-1.31c-1.45-.28-2.92-.62-4.4-.53-1.57.09-3.03.72-4.35,1.55-.52.32-1.09.93-.65,1.57.39.56,1.41.61,1.96.27h0Z"/>
    <path class="cls-14" d="M636.4,787.42c-.73,2.53-3.92,9.51-6.84,14.57-1.29,2.23-4.86,7.65-2.25,9.93,4.62,4.04,12.04,4.15,14.49,5.09,5.15,2,9.59,2.82,14.39,5.09,4.87,2.3,5.85,2.83,11.67,4.21.8.19,1.68.33,2.5.2.55-.09,1.04-.3,1.59-.39,1.95-.32,3.73.92,5.73,1.1.88.08,1.77-.06,2.65-.13,2.33-.19,4.69.04,7.04.12,2.35.07,4.82-.04,6.81-.85,1.99-.81,3.3-2.49,2.48-3.95-1.24-2.21-4.27-1.62-6.91-2.3-2.63-.68-3.53-1.19-5.59-2.43-5.27-3.18-6.04-3.77-10.53-6.33-3.49-1.99-13.39-14.32-17.86-18.19l-3.3-18.28"/>
    <g>
      <path class="cls-38" d="M672.4,826.6c1.23-.02,2.88-.94,2.62-2.39-.19-1.09-1.39-1.85-2.25-2.39-.56-.36-1.15-.67-1.72-1.01-.29-.17-.77-.03-1.03.13-.22.13-.42.4-.13.57,1.08.64,2.28,1.2,3.14,2.13.31.34.6.79.54,1.26-.03.25-.15.48-.32.67-.08.08-.12.11-.23.18.16-.09-.22.11-.02.01-.09.02-.09.02-.01,0-.08,0-.1.01-.04,0-.32,0-.77.1-.96.4s.15.44.39.43h0Z"/>
      <path class="cls-38" d="M677.81,827.6c.86.16,1.9-.1,2.58-.66.48-.4.76-1,.89-1.6.14-.65.06-1.16-.35-1.7-.57-.74-1.41-1.22-2.22-1.63-1.04-.53-1.98-1.32-3.16-1.53-.33-.06-.72.06-1.01.19-.11.05-.51.28-.19.34,1.11.2,2.01.97,2.99,1.48.88.45,1.87.97,2.36,1.87.31.56.22,1.19,0,1.77-.11.29-.26.59-.48.82-.06.06-.12.12-.19.17-.01.03-.03.04-.05.04-.06.04-.07.04-.03.02,0,.01.26-.12.31-.08-.02-.02-.22-.02-.25-.03-.33-.06-.72.06-1.01.19-.11.05-.51.28-.19.34h0Z"/>
      <path class="cls-38" d="M682.81,827.56c1.12-.08,2.28-.73,2.8-1.76.4-.79.26-1.6-.21-2.32-.52-.8-1.35-1.4-2.15-1.91-.89-.56-1.88-1.09-2.87-1.46-.33-.12-.73-.06-1.03.13-.17.11-.46.46-.12.58.84.31,1.67.75,2.44,1.2s1.45.92,2.02,1.56c.44.5.81,1.14.67,1.83-.14.65-.7,1.26-1.37,1.31-.26.02-.77.19-.82.5-.05.33.42.34.63.33h0Z"/>
      <path class="cls-38" d="M687.18,827.89c1.1-.14,2.18-.55,3.01-1.31.64-.59,1.25-1.48,1.05-2.39-.16-.77-.83-1.37-1.41-1.84-.73-.58-1.55-1.05-2.38-1.48-.41-.21-.82-.41-1.23-.62-.57-.29-1.11-.64-1.76-.74-.33-.05-.8.12-.94.44s.14.56.44.61c.53.08,1.04.47,1.51.7.37.18.75.37,1.11.57.86.46,1.76.97,2.48,1.65.55.52.93,1.09.59,1.82-.42.88-1.42,1.4-2.35,1.52-.32.04-.76.22-.8.59s.38.51.67.48h0Z"/>
    </g>
    <path class="cls-14" d="M678.75,782.55c-1.77,2.26-5.8,11.68-7.55,13.82-2.02,2.47-1.34,4.95,2.1,7.18,2.9,1.88,12.51,2.25,16.17,3.1,4.79,1.12,10.96,3.85,15.76,4.96,4.11.96,17.15,3.66,20.88,5.28,5.8,2.53,9.9,2.9,12.95,2.93.84,0,1.3.17,1.85-.17,1.41-.87,1.84-2.13.23-3.64-2.03-1.9-5.82-1.1-7.59-3.16-.32-.37-.58-.76-.99-1.07-.8-.62-2-.85-3.09-1.15-5.45-1.46-4.26-3.11-10.77-6.44-1.91-.98-18.05-17.71-19.69-18.92"/>
    <path class="cls-27" d="M538.76,552.13c.03.06.06.12.11.17.11-.12.23-.25.34-.37-.15.07-.3.13-.45.2Z"/>
    <rect class="cls-28" x="657.68" y="585.53" width="20.59" height="50.46" rx="7" ry="7" transform="translate(708.44 1514.96) rotate(-135)"/>
    <path class="cls-14" d="M612.5,617.77l10.34,6.69,2.79,8.69s10.76,3.06,14.15,2.63,11.48-.33,11.48-.33c-.36,1.1-.36,2.33,0,3.47.49,1.29,1.42,2.33,2.57,2.87l3.22-6.04c1.12,2.79,3.24.69,3.24.69l2.29-5.31c1.26,3.52,4.06.87,4.06.87l1.09-7.43c.89,1.21,1.97,2.23,3.18,3,1.56.8,1.92-2.14,1.92-2.14l-6.35-11.57-15.76-5.19-23.9,8.61-14.31.5Z"/>
    <path class="cls-38" d="M656.57,612.77h0c-.3.15-.61.31-.91.46,1.54.2,3.07,1.07,4.45,1.73s2.71,1.35,3.96,2.2c1.09.74,2.54,1.65,2.86,3.03.18.78.19,1.62.26,2.42.07.85-.02,1.69-.21,2.51-.12.53,1.21.33,1.32-.15.19-.82.26-1.65.22-2.49s-.07-1.81-.27-2.65c-.34-1.47-1.79-2.41-2.96-3.22-1.39-.97-2.9-1.74-4.42-2.46s-3.07-1.51-4.71-1.72c-.3-.04-.83.14-.91.47h0c-.13.53,1.2.34,1.32-.14h0Z"/>
    <path class="cls-38" d="M653.27,620.29c1.24.56,2.53.98,3.8,1.45.74.28,1.48.57,2.21.89s1.47.62,2.08,1.12.93,1.28,1.15,2.05.44,1.51.5,2.3c.11,1.4-.3,2.91-.96,4.15-.11.2.46.12.52.11.22-.04.66-.13.77-.35.62-1.17,1.05-2.61,1-3.94-.03-.87-.24-1.69-.49-2.53-.2-.68-.44-1.48-.96-1.98-1.14-1.09-2.85-1.62-4.3-2.17-1.37-.52-2.76-.95-4.09-1.56-.25-.11-.6,0-.84.08-.05.02-.59.27-.4.36h0Z"/>
    <path class="cls-38" d="M651.06,628.32c.54.03,1.07.11,1.61.17.59.07,1.21.1,1.79.21,1.05.2,2.12.64,2.78,1.52s.82,2.02.56,3.08c-.15.61-.46,1.16-.82,1.67-.12.17-.25.35-.39.5-.04.04-.08.07-.12.11-.01.01-.03.02-.05.04.03-.04.53-.19.52-.19-.23.02-.7.16-.75.43-.05.29.39.28.56.26.85-.08,1.43-1.06,1.81-1.71.63-1.1.92-2.46.46-3.68-.43-1.14-1.31-1.89-2.42-2.33-.88-.35-1.77-.46-2.69-.56-.78-.09-1.56-.19-2.34-.24-.27-.02-.72.1-.87.35-.16.27.14.35.35.36h0Z"/>
  </g>
</svg>