<?xml version="1.0" encoding="UTF-8"?>
<svg xmlns="http://www.w3.org/2000/svg" xmlns:xlink="http://www.w3.org/1999/xlink" viewBox="0 0 1334 1000">
  <defs>
    <style>
      .cls-1 {
        fill: none;
        stroke: #4f2e25;
        stroke-width: .75px;
      }

      .cls-1, .cls-2, .cls-3, .cls-4, .cls-5 {
        stroke-miterlimit: 10;
      }

      .cls-6 {
        fill: #13110f;
      }

      .cls-2 {
        opacity: .15;
      }

      .cls-2, .cls-3, .cls-4, .cls-7, .cls-5 {
        fill: #fff;
      }

      .cls-2, .cls-5 {
        stroke: #a4a4a5;
        stroke-width: 1.87px;
      }

      .cls-8 {
        fill: #010101;
      }

      .cls-9 {
        fill: #777;
      }

      .cls-10 {
        fill: #1d3942;
      }

      .cls-11 {
        fill: #282b2b;
      }

      .cls-12 {
        fill: #653c29;
      }

      .cls-3 {
        stroke-width: .24px;
      }

      .cls-3, .cls-4 {
        stroke: #121212;
      }

      .cls-4 {
        stroke-width: .24px;
      }

      .cls-13 {
        fill: #424341;
      }

      .cls-14 {
        fill: #f1eef7;
      }

      .cls-15 {
        fill: #181311;
      }

      .cls-16 {
        fill: #1e3353;
      }

      .cls-17 {
        fill: #a4a399;
        opacity: .6;
      }

      .cls-18 {
        fill: #a66e53;
      }

      .cls-19 {
        fill: #31160e;
      }

      .cls-20 {
        fill: #ce8d2a;
      }

      .cls-21 {
        fill: #c95744;
      }

      .cls-22 {
        fill: url(#linear-gradient);
        opacity: .5;
      }

      .cls-23 {
        fill: #634836;
      }

      .cls-24 {
        fill: #000106;
      }

      .cls-25 {
        fill: #5b1a13;
      }

      .cls-26 {
        fill: #0c0c0b;
      }

      .cls-27 {
        fill: #121212;
      }

      .cls-28 {
        fill: #0d0b09;
      }

      .cls-29 {
        fill: #df8c26;
      }

      .cls-30 {
        opacity: .61;
      }

      .cls-31 {
        fill: #a13829;
      }

      .cls-31, .cls-32 {
        opacity: .67;
      }

      .cls-33 {
        fill: #383838;
      }

      .cls-34 {
        fill: #262828;
      }

      .cls-35 {
        fill: #b15e27;
      }

      .cls-36 {
        fill: #f2ebd1;
      }

      .cls-37 {
        fill: #24180f;
      }

      .cls-38 {
        fill: #8c8c8c;
      }

      .cls-39 {
        fill: #52585b;
      }

      .cls-40 {
        fill: #61686c;
      }

      .cls-41 {
        fill: #a38166;
      }

      .cls-42 {
        fill: #87654d;
      }

      .cls-43 {
        fill: #4f2e25;
      }

      .cls-32 {
        fill: #f58235;
      }

      .cls-44 {
        fill: #6d6d6d;
        opacity: .34;
      }
    </style>
    <linearGradient id="linear-gradient" x1="-3573.47" y1="5903.98" x2="-2454.18" y2="5903.98" gradientTransform="translate(-5234.58 3513.54) rotate(90) scale(1 -1)" gradientUnits="userSpaceOnUse">
      <stop offset="0" stop-color="#f0ebe0"/>
      <stop offset=".18" stop-color="#eee8dd" stop-opacity=".99"/>
      <stop offset=".33" stop-color="#e8e1d4" stop-opacity=".97"/>
      <stop offset=".46" stop-color="#ded4c5" stop-opacity=".93"/>
      <stop offset=".59" stop-color="#d0c2b0" stop-opacity=".88"/>
      <stop offset=".72" stop-color="#bdab95" stop-opacity=".82"/>
      <stop offset=".84" stop-color="#a78e73" stop-opacity=".73"/>
      <stop offset=".96" stop-color="#8d6d4d" stop-opacity=".64"/>
      <stop offset="1" stop-color="#83603d" stop-opacity=".6"/>
    </linearGradient>
  </defs>
  <g id="Layer_3" data-name="Layer 3">
    <polyline class="cls-36" points="1407.99 1039.92 1407.99 -76.25 -48.48 -76.25 -48.48 1039.92"/>
    <polyline class="cls-22" points="1397.64 1055.67 -58.83 1055.67 -58.83 -63.62 1397.64 -63.62"/>
  </g>
  <g id="Layer_2" data-name="Layer 2">
    <path class="cls-18" d="M954.97,447.83l13.94,4.17s13.21,15.19,21.62,19.3c6.19,2.74,12.73,4.61,19.43,5.55l18.95,9.69s5.73,8.78,8.61,7.19c2.88-1.59,1.6-5.44.35-9.18-1.25-3.74-34.87-46.86-34.87-46.86,5.63.59,11.21,1.66,16.66,3.2,8.36,2.43,13.74-.98,11.73-5.29-1.24-2.66-12.29-8.83-17.11-7.32-4.81,1.51-13-6.78-21.77-8.05-8.77-1.27-18.8,5.46-18.8,5.46-4.73-.08-11.31-1.62-11.31-1.62-5.99,6.1-7.42,23.75-7.42,23.75Z"/>
    <path class="cls-43" d="M1023.98,482.64c.83.02,1.46-.69,1.84-1.36.71-1.26.77-2.81.41-4.18-.73-2.8-2.74-5.23-4.84-7.13-2.54-2.3-5.59-4.01-8.73-5.35-3.05-1.29-6.35-2.44-9.66-2.73-.52-.05-1.39.69-.51.77,2.91.25,5.85,1.28,8.55,2.37,2.66,1.08,5.3,2.42,7.59,4.17,1.97,1.51,3.79,3.33,5.07,5.47.6,1,1.09,2.1,1.31,3.25.14.72.14,1.45-.02,2.17-.09.39-.21.8-.41,1.15s-.82.62-.1.63c-.51,0-1.39.75-.51.77h0Z"/>
    <path class="cls-43" d="M1014.18,463.1c.19-.26-.08-.63-.21-.84-.32-.52-.72-1-1.1-1.47-1.28-1.58-2.67-3.07-4.08-4.54-1.33-1.38-2.69-2.75-4.15-4.01-.62-.54-1.63-1.63-2.53-.99-.22.15-.35.43-.09.61s.71.07.94-.1c-.7.02-.92.07-.66.16-.06-.02-.06-.02,0,0,.04.04.11.07.16.1.18.11.34.24.5.37.47.37.92.78,1.36,1.18,1.31,1.21,2.57,2.49,3.81,3.78,1.18,1.25,2.34,2.52,3.43,3.85.35.42.69.85,1,1.3.1.15.19.32.3.47s-.04.16.07,0c-.19.27.17.46.38.49.33.04.67-.12.86-.38h0Z"/>
    <path class="cls-43" d="M994.3,456.19c.8.74,2.04-.99,2.38-1.47,1.11-1.59,1.84-3.44,2.18-5.35.37-2.11.25-4.36-.43-6.39-.26-.77-.79-2.58-1.96-2.04-.81.38-.09,1.11.59.8-.34.16-.7.04-.71,0,0,.03.1.13.12.16.08.16.18.3.26.45.25.52.43,1.07.58,1.63.45,1.67.53,3.41.27,5.12-.24,1.6-.77,3.14-1.58,4.54-.26.46-.56.89-.9,1.29-.11.13-.24.24-.35.37-.03.04-.14.08-.15.12.08-.21.9.17.71,0-.44-.41-1.58.25-1.01.77h0Z"/>
    <path class="cls-43" d="M974.4,425.09c-3.26,3.62-5.81,8.89-3.22,13.61.24.45,1.52.02,1.32-.35-2.47-4.5-.17-9.55,2.96-13.03.52-.57-.76-.55-1.06-.22h0Z"/>
    <polyline class="cls-13" points="-561.15 1030.83 1409.9 1030.83 1409.9 964.05 -561.15 964.05"/>
    <g class="cls-30">
      <rect class="cls-5" x="340.63" y="526.45" width="64.56" height="66.92"/>
      <rect class="cls-5" x="340.63" y="456.49" width="64.56" height="66.92"/>
      <rect class="cls-5" x="-63.07" y="526.3" width="64.56" height="66.92"/>
      <rect class="cls-5" x="4.15" y="526.35" width="64.56" height="66.92"/>
      <rect class="cls-5" x="-63.07" y="456.34" width="64.56" height="66.92"/>
      <rect class="cls-5" x="4.15" y="456.38" width="64.56" height="66.92"/>
      <rect class="cls-5" x="-63.07" y="386.33" width="64.56" height="66.92"/>
      <rect class="cls-5" x="4.15" y="386.38" width="64.56" height="66.92"/>
      <rect class="cls-5" x="71.3" y="526.35" width="64.56" height="66.92"/>
      <rect class="cls-5" x="138.51" y="526.39" width="64.56" height="66.92"/>
      <rect class="cls-5" x="71.3" y="456.38" width="64.56" height="66.92"/>
      <rect class="cls-5" x="138.51" y="456.42" width="64.56" height="66.92"/>
      <rect class="cls-5" x="71.3" y="386.38" width="64.56" height="66.92"/>
      <rect class="cls-5" x="138.51" y="386.42" width="64.56" height="66.92"/>
      <rect class="cls-5" x="206.27" y="526.41" width="64.56" height="66.92"/>
      <rect class="cls-5" x="273.48" y="526.45" width="64.56" height="66.92"/>
      <rect class="cls-5" x="206.27" y="456.45" width="64.56" height="66.92"/>
      <rect class="cls-5" x="273.48" y="456.49" width="64.56" height="66.92"/>
      <rect class="cls-5" x="206.27" y="386.44" width="64.56" height="66.92"/>
      <rect class="cls-5" x="273.48" y="386.48" width="64.56" height="66.92"/>
      <rect class="cls-5" x="407.84" y="526.5" width="64.56" height="66.92"/>
      <rect class="cls-5" x="407.84" y="456.53" width="64.56" height="66.92"/>
      <rect class="cls-5" x="340.63" y="386.48" width="64.56" height="66.92"/>
      <rect class="cls-5" x="407.84" y="386.53" width="64.56" height="66.92"/>
      <rect class="cls-5" x="474.68" y="526.43" width="64.56" height="66.92"/>
      <rect class="cls-5" x="474.68" y="456.47" width="64.56" height="66.92"/>
      <rect class="cls-5" x="474.68" y="386.46" width="64.56" height="66.92"/>
      <rect class="cls-5" x="340.69" y="737.42" width="64.56" height="66.92"/>
      <rect class="cls-5" x="340.69" y="667.46" width="64.56" height="66.92"/>
      <rect class="cls-5" x="-63.01" y="737.27" width="64.56" height="66.92"/>
      <rect class="cls-5" x="4.21" y="737.31" width="64.56" height="66.92"/>
      <rect class="cls-5" x="-63.01" y="667.31" width="64.56" height="66.92"/>
      <rect class="cls-5" x="4.21" y="667.35" width="64.56" height="66.92"/>
      <rect class="cls-5" x="-63.01" y="597.3" width="64.56" height="66.92"/>
      <rect class="cls-5" x="4.21" y="597.34" width="64.56" height="66.92"/>
      <rect class="cls-5" x="71.36" y="737.31" width="64.56" height="66.92"/>
      <rect class="cls-5" x="138.57" y="737.35" width="64.56" height="66.92"/>
      <rect class="cls-5" x="71.36" y="667.35" width="64.56" height="66.92"/>
      <rect class="cls-5" x="138.57" y="667.39" width="64.56" height="66.92"/>
      <rect class="cls-5" x="71.36" y="597.34" width="64.56" height="66.92"/>
      <rect class="cls-5" x="138.57" y="597.38" width="64.56" height="66.92"/>
      <rect class="cls-5" x="206.33" y="737.38" width="64.56" height="66.92"/>
      <rect class="cls-5" x="273.54" y="737.42" width="64.56" height="66.92"/>
      <rect class="cls-5" x="206.33" y="667.41" width="64.56" height="66.92"/>
      <rect class="cls-5" x="273.54" y="667.46" width="64.56" height="66.92"/>
      <rect class="cls-5" x="206.33" y="597.41" width="64.56" height="66.92"/>
      <rect class="cls-5" x="273.54" y="597.45" width="64.56" height="66.92"/>
      <rect class="cls-5" x="407.9" y="737.46" width="64.56" height="66.92"/>
      <rect class="cls-5" x="407.9" y="667.5" width="64.56" height="66.92"/>
      <rect class="cls-5" x="340.69" y="597.45" width="64.56" height="66.92"/>
      <rect class="cls-5" x="407.9" y="597.49" width="64.56" height="66.92"/>
      <rect class="cls-5" x="474.74" y="737.4" width="64.56" height="66.92"/>
      <rect class="cls-5" x="474.74" y="667.44" width="64.56" height="66.92"/>
      <rect class="cls-5" x="474.74" y="597.43" width="64.56" height="66.92"/>
      <path class="cls-2" d="M376.57,690.48c-1.37-.68-2.47-1.88-3.01-3.44-.25-.72-.3-1.52-.55-2.24-1-2.91.89-8.5,3.54-9.9.77-.4,1.05-.75,1.04-1.57-.03-5.36-.04-10.73-.03-16.09,0-.96-.22-1.4-1.28-1.39-6.62.07-13.24.07-19.86.09-6.92-.02-13.83-.05-20.75-.07-.1.2-.29.41-.29.61-.04,5.73-.06,11.45-.08,17.18,0,.5.07.99.63,1.15,2.83.81,3.55,3.26,4.05,5.74.74,3.68-.06,7.84-3.33,9.7-1.11.63-1.37,1.27-1.36,2.47.04,17.06.09,34.11-.03,51.17-.02,3.4.68,6.5,2.28,9.35.74,1.31,1.16,3.26,3.26,3.25,5.21-.02,10.43-.03,15.64-.05,0,0-.02.11-.02.11,5.1-.02,10.19-.05,15.29-.04.87,0,1.62-.14,2.15-.88,1.95-2.67,3.64-5.56,3.66-8.96.09-18.14.05-36.28.05-54.42,0-.81-.08-1.32-1-1.78Z"/>
    </g>
    <rect class="cls-42" x="-419.11" y="556.1" width="1041.88" height="407.95"/>
    <rect class="cls-41" x="-426.23" y="524.54" width="1066.21" height="47.22"/>
    <path class="cls-23" d="M584.18,930.88h-229.22l1.97.68c0-37.49,0-74.98,0-112.47,0-59.64,0-119.28,0-178.92v-40.6c-1.59.83-3.18,1.65-4.77,2.48h229.22l-1.97-.68v332c0,1.49,6.74.41,6.74-1.8v-332c0-.71-1.61-.68-1.97-.68h-229.22c-1.29,0-4.77.72-4.77,2.48v332c0,.71,1.61.68,1.97.68h229.22c2.11,0,7.28-3.16,2.8-3.16Z"/>
    <rect class="cls-11" x="134.73" y="517.47" width="18.16" height="7.13"/>
    <rect class="cls-11" x="433.8" y="517.47" width="18.16" height="7.13"/>
    <rect class="cls-11" x="311.09" y="472.57" width="98.96" height="11.02"/>
    <rect class="cls-11" x="170.85" y="472.57" width="98.96" height="11.02"/>
    <rect class="cls-40" x="135.92" y="483.59" width="316.03" height="33.88"/>
    <path class="cls-44" d="M332.13,354.87c-4.64-7.91-10.8-16.25-11.27-25.74-.41-8.24,4.44-15.1,9.67-20.95,6.01-6.73,10.81-14.01,9.28-23.5-1.06-6.54-5.42-15.47-13.02-15.91-2.84-.17-5.72,1.13-7.54,3.31-1.83,2.19-2.59,5.2-2.1,8.01.55,3.15,3,6.03,6.42,5.5,1.13-.18,2.23-.8,3.04-1.68.49-.53,1.4-.08,1.25.62-.4,1.95-1.42,3.67-3.52,4.1-1,.21-2.03.08-3.02-.16-9.03-2.2-13.36-13.18-6.82-20.25,5.37-5.81,12.96-8.04,19.68-3.36,9.5,6.62,11.97,17.79,9.38,28.56-2.06,8.59-7.69,14.75-13.57,20.99-10.43,11.07-4.6,28.95,2.15,40.46Z"/>
    <path class="cls-44" d="M340.89,341.68c-1.25-6.29-2.6-11.19-.29-17.68,2.32-6.53,7.07-12.17,13.15-15.5,4.47-2.45,13.15-4.33,16.32,1.18,1.23,2.13,1.92,6.09.77,8.27-1.72,3.23-4.26,4.82-7.96,5.88-.96.28-3.07.72-4.08.65-1.51-.11-1.73-2.24-.29-2.7,1.24-.39,3.72-.95,4.66-1.49,1.97-1.14,3.57-2.39,3.69-4.77.17-3.37-4.16-5.15-6.91-4.93-13.81,1.13-21.54,18.64-19.05,31.1Z"/>
    <path class="cls-44" d="M306.65,295.96c-2.36-1.44-4.48-1.71-6.56.95-1.48,1.88-1.33,4.6-.6,6.75.67,1.97,2.94,2.96,5.22-1.18.32-.58,1.21-.34,1.18.32-.3,8.53-7.48,5.99-8.88,3.84-1.5-2.31-1.93-5.18-1.75-7.92.19-2.9,2.06-5.46,4.8-6.41,6.01-2.07,11.54,3.01,13.3,7.79,0,0,2.3,6.21,1.63,11.2-.67,4.99-.38,22.16-.38,22.16,0,0-2.13-17.93-2.2-22.73-.07-4.81-1.02-11.87-5.77-14.76Z"/>
    <rect class="cls-17" x="-23.93" y="468.86" width="55.3" height="55.3" rx="8.21" ry="8.21"/>
    <path class="cls-31" d="M21.51,493c-2.28-.75-4.34-.12-6.6.33-5.15,1.02-10.28,1.77-15.48.66-2.62-.56-5.21-1.71-7.51-3.06-.68-.4-1.34-.83-1.99-1.27-2.23.68-4.46,1.37-6.76,1.81-.81.15-1.62.18-2.41.08-.03.04-.06.09-.09.14v22.11c0,3.24,2.65,5.9,5.9,5.9H21.52c3.24,0,5.9-2.65,5.9-5.9v-18.68c-2.01-.45-3.81-1.42-5.91-2.11Z"/>
    <rect class="cls-24" x="-17.44" y="457.37" width="42" height="11.5" rx="3.38" ry="3.38"/>
    <rect class="cls-17" x="37.27" y="469.27" width="55.3" height="55.3" rx="8.21" ry="8.21"/>
    <path class="cls-32" d="M82.56,502.41c-2.13-.8-4.2-1.99-6.45-2.48-4.12-.9-8.22,2.5-12.38,2.85-2.94.25-5.66-.59-8.33-1.75-1.8-.78-3.58-2.04-5.51-2.43-1.43-.29-2.62-.12-3.74.49-.73.4-.51-.04-.77.74.31-.93.17,1.26.19,1.39.27,2.47-1.52,4.66-3.72,5.68v7.3c0,3.24,2.65,5.9,5.9,5.9h34.95c3.24,0,5.9-2.65,5.9-5.9v-10.48c-2.07-.14-4.1-.58-6.05-1.31Z"/>
    <rect class="cls-24" x="43.75" y="457.78" width="42" height="11.5" rx="3.38" ry="3.38"/>
    <ellipse class="cls-38" cx="396.58" cy="722.99" rx="10.42" ry="11.74"/>
    <path class="cls-23" d="M102.41,933.76c25.75,0,51.5,0,77.25,0h123.69c9.43,0,18.85,0,28.28,0,1.26,0,3.73-1.11,3.73-2.65,0-37.49,0-74.98,0-112.47,0-59.64,0-119.28,0-178.92,0-13.53,0-27.07,0-40.6,0-1.73-1.65-2.08-3.08-2.08-25.75,0-51.5,0-77.25,0h-123.69c-9.43,0-18.85,0-28.28,0-1.26,0-3.73,1.11-3.73,2.65,0,37.49,0,74.98,0,112.47,0,59.64,0,119.28,0,178.92,0,13.53,0,27.07,0,40.6,0,3.41,6.81,2.33,6.81-.57,0-37.49,0-74.98,0-112.47,0-59.64,0-119.28,0-178.92,0-13.53,0-27.07,0-40.6l-3.73,2.65c25.75,0,51.5,0,77.25,0,41.23,0,82.46,0,123.69,0,9.43,0,18.85,0,28.28,0l-3.08-2.08c0,37.49,0,74.98,0,112.47,0,59.64,0,119.28,0,178.92,0,13.53,0,27.07,0,40.6l3.73-2.65c-25.75,0-51.5,0-77.25,0h-123.69c-9.43,0-18.85,0-28.28,0-3.77,0-5.23,4.74-.65,4.74Z"/>
    <ellipse class="cls-38" cx="288.94" cy="722.01" rx="10.42" ry="11.74"/>
    <path class="cls-23" d="M82.36,928.44h-229.22c.7.55,1.4,1.09,2.1,1.64v-332l-4.66,2.41H79.8c-.7-.55-1.4-1.09-2.1-1.64v332c0,2.96,6.75,1.61,6.75-.77v-332c0-1.15-1.03-1.64-2.1-1.64h-229.22c-1.14,0-4.66.63-4.66,2.41v332c0,1.15,1.03,1.64,2.1,1.64H79.8c2.68,0,7.1-4.05,2.56-4.05Z"/>
    <path class="cls-42" d="M414.77,392.76c2.75-30.61,19.03-58.47,24.16-88.77.47-2.79.84-5.7-.02-8.39-.86-2.69-3.28-5.09-6.11-5-2.44.07-4.53,1.96-5.58,4.17-1.05,2.21-1.28,4.7-1.51,7.13-3.03,30.9-11.23,61.02-19.73,90.88"/>
    <g>
      <path class="cls-9" d="M417.89,472.83c.24.1.48.21.72.37-.24-.14-.48-.25-.72-.37Z"/>
      <path class="cls-9" d="M284.22,381.52c0-1.24-.54-2.44-1.41-3.33.84-.17,1.67-.39,2.48-.77h0c-.54-4.35-.94-8.1,5.61-8.06,44.12.25,88.24.26,132.37.35q10.45-.65,11.08,8.72h0s-.13,18.18-.13,18.18c-.04,19.75.02,39.5-.17,59.25-.1,10.57-5.29,16.16-15.44,17.34-39.62,0-79.25-.01-118.87-.02-9-1.44-12.4-4.8-14.04-13.88-2.12-18.17-.36-45.13-.95-63.33"/>
    </g>
    <path class="cls-33" d="M285.07,377.4c-.71-.12-1.45-.19-2.21-.19h-14c-5.77,0-10.49,3.67-10.49,8.16s4.72,8.16,10.49,8.16h14c.76,0,1.5-.07,2.21-.19v-15.94Z"/>
    <path class="cls-33" d="M434.34,377.4c.71-.12,1.45-.19,2.21-.19h14c5.77,0,10.49,3.67,10.49,8.16,0,4.49-4.72,8.16-10.49,8.16h-14c-.76,0-1.5-.07-2.21-.19v-15.94Z"/>
    <path class="cls-28" d="M637.39,534.35c7.17,9.54,13.89,19.71,18.75,30.64,5.41,12.15,6.25,25.23,6.77,38.35.8,20.26,1.14,40.54,1.54,60.81.21,10.65.41,21.3.65,31.96.01.65,1.47.36,1.45-.16-.46-20.31-.8-40.62-1.27-60.93-.23-9.8-.47-19.6-.83-29.39-.46-12.61-.8-25.57-5.4-37.48s-12.4-23.8-20.33-34.36c-.32-.43-1.72.08-1.34.59h0Z"/>
    <path class="cls-21" d="M832.2,227.37s23.88,1.95,34.85,21.04c8.66,15.07,6.51,55.46,7.84,70.1,2.98,32.96,6.08,83.87,6.08,83.87l-51.66,3.05-15.43-72.77-1.01-105.73,19.34.45Z"/>
    <path class="cls-18" d="M755.46,457.23s2.42,119.08,7.82,241.73c4.48,100.89-15.85,232.05-15.85,232.05l-27.11-.47s-19.26-131.62-20.4-236.98c-11.11-83.83-21.74-128.57-21.74-128.57l-1.81-121.23,79.09,13.47Z"/>
    <path class="cls-18" d="M703.88,454.54s2.42,119.08,7.82,241.73c4.48,100.89-15.85,232.05-15.85,232.05l-27.49-1.1s-18.88-130.99-20.02-236.36c-11.11-83.83-21.74-128.57-21.74-128.57l8.71-89.08,68.57-18.68Z"/>
    <path class="cls-10" d="M779.7,751.08c2.68-91.46,4.05-149.17,4.05-198.43l4.83-122.33c-.47-2.78-.95-5.54-1.37-8.3-3.68.67-2.71,1.2-6.47,1.55-12.27,1.14-19.96.51-32.11-1.28-25.15-3.71-49.11-12.37-72.07-22.06-9.09-3.84-18.07-7.89-27.02-11.98l-.34-13.18c-31.42,6.35-50.71,44.49-53.95,108.83-1,19.77,16.95,72.57,20.4,116.87,8.73,112.05,23.2,240.67,23.2,240.67,0,0,20.74,13.5,82.56,10.44,13.75-.68,54.42-7.3,54.42-7.3,3.92-18.72,3.32-74.02,3.89-93.48Z"/>
    <path class="cls-21" d="M828.47,357.51c-1.63.83-3.62,1.16-17.56,32.44-2.52,5.67-13.66,26.9-14.77,32.81-5.56-.55-7.87-.03-13.3-1.39-23.74-5.95-45.07-18.88-64.28-33.72-16.43-12.69-31.51-26.99-46.42-41.43l-2.82-6.68,29.66-84.25,43.67-73.98,55.66,3.68.91,6.48-1.15,3.51c3.03,11.03-8.34,15.81,2.43,20.77,3.16,1.45,6.57,2.76,10.14,3.86,9.96,3.04,24.59,2.89,32.16-2.55.29-.21,3.53.96,4.65,2.02,7.64,7.22,14.07,19.92,17.29,23.93,0,0,7.5,13.72-3.43,41.11"/>
    <path class="cls-18" d="M821.3,142.64s-7.12,28.21-22.58,41.82c-2.15,1.9-12.19.32-12.19.32l.78,7.15c.77,7.06,7.56,20.2,12.2,25.58,6.34,7.36,14.38,13.15,23.52,16.74,3.7,1.45,7.47,2.7,11.14,3.7,6.28,1.71,11.22-2.82,14.97-7.5l3.35-5.69s-6.03-6.22-5.12-9.48c.92-3.26,14.82-24.28,14.82-24.28"/>
    <path class="cls-43" d="M849.86,210.05s-4.31-4.57-7.41-7.28c-3.1-2.71-9.32-5.41-18.98-27.55,0,0-3.54,19.87,15.7,33.65,0,0,4.89,3.73,8.88,4.56l1.81-3.39Z"/>
    <path class="cls-18" d="M919.34,111.69c.04.09.09.19.14.29-.02-.16-.03-.33-.03-.48l-.11.19ZM926.95,118.48c.06.19.13.39.21.59l.09-.16s-.19-.62-.3-.43ZM821.86,173.05c3.28,12.98,11.02,28.67,23.88,35.98,8.73,4.96,10.49,2.66,15.37,1.53,7.41-1.72,15.13-3.37,21.77-6.6,6.36-3.1,9.7-5.39,14.65-10.43,5.11-5.21,6.03-6.83,8.91-13.33,1.29-2.9,3.48-7.15,5.21-9.66,1.99-2.89,10.27-14.03,14.6-20.88,4.33-6.85,3.52-21.89,3.52-21.89.7-2.13.46-4.05.32-6.17l-.82-.48s.3.43-.04,1c-.95-.77-1.65-1.95-2.07-3.05l-.02.03c-1.57-.16-2.46-1.46-2.93-3-.11.19-.13.69.08.81-1.34-.54-2.24-1.83-2.62-3.07-.11.19-.13.69-.24.88-.83-.72-1.48-1.76-1.95-2.73.04.36,5.1,2.38,5.02,2.51-1.34-.54-.18.7-.65-.84l-.6-1.3c-1.14-.42-1.47.22-1.84-1.02.09.31.66-2.41.55-2.22-1.23-.73-.85-.61-1.54-1.78-.11.19-4.08-.76-4.19-.57-1.03-.61-1.31.5-1.69-.74.09.31,1.21-.35,1.3-.04-1.34-.54-2.27-.02-2.74-1.57.09.31-2.84-4.47-2.84-4.47-1.34-.54-1.36-.03-1.94-1.39.19.62-5.48-3.71-5.49-3.21-1.03-.61-.26,4.92-.75,3.87-.11.19-2.03-1.96-2.03-1.96-1.14-.42-.15,1.44-.53.2-.11.19-.24.87-.03,1-1.57-.16-2.78-1.39-3.57-2.87.19.62.17,1.12.26,1.43-1.03-.61-1.96-.9-2.54-2.26-.11.19-.04,1,.17,1.12-1.25-.23-2.37-1.15-3.06-2.32-.11.19.08.81.17,1.12-.93-.3-1.75-.78-2.24-1.83l.17,1.12c-.82-.48-1.66-.47-2.67-1.58-.11.19.19.62.08.81-.62-.36-1.44-.85-1.94-1.4-.11.19.28.93.08.81-.82-.48-1.66-.47-2.46-1.45.09.31.08.81.17,1.12-.82-.49-1.75-.78-2.35-1.64-.11.19-.13.69-.04,1-.82-.49-1.66-.47-2.46-1.46-.11.19.08.81.17,1.12-.82-.49-1.76-.78-2.46-1.46-.11.19.19.62.28.93-.82-.49-1.75-.78-2.56-1.77-.22.38-.13.69-.24.87-.62-.36-.91-.79-1.53-1.16l-1.25-.23c-5.1,2.07-12.35,14.81-12.35,14.81-9.37,1.33-17.96,10.23-19.87,13.93-1.91,3.7-7.5,10.82-7.5,10.82-.25-1.92-.83-6.08-.56-7.96.16-1.68,1.58-3.14,1.74-4.82-.06-4.11-4.73-5.59-8.1-5.04l-.74.4c-5.66,2.4-10.04,17.67-10.03,22.98-4.04,8.42.54,16.78,7.91,13.32l-.73,3.78"/>
    <path class="cls-35" d="M926.95,135.9c1.51-13.92-7.66-27.54-31.75-46.03-24.09-18.5-49.98-20.99-49.98-20.99,34.03-30.05,71.02-6.55,79.43-1.58,8.41,4.97,32.45,63.37.05,85.8l-2.42,2.5s4.39-17.17,4.67-19.7Z"/>
    <path class="cls-35" d="M843.12,57.22s10.65-25.13,32.27-22.9c28.89,2.97,62.6,16.67,59.57,47.16l-91.84-24.26Z"/>
    <path class="cls-29" d="M812.07,115.11c-.76-3.01,2.93-8.1,2.57-11.18-1.86-16.14,7.28-25.47,14.34-30.05,3.07-1.99,4.02-8.12,5.62-10.51,8.37-12.56,10.1-12.08,37.26-14,22.11-1.56,38.85,8.98,48.39,15.33,15.29,10.17,21.66,15.26,20.57,29.71-.14,1.88-1.61,2.6-2.05,4.72-.62,2.99,3.12,5.56,1.91,9.1,0,0-25.07-3.82-47.98-4.69-22.91-.88-75.23,17.24-80.4,28.87-.16.37.61-13.97-.23-17.29Z"/>
    <path class="cls-35" d="M817.99,85.4s51.48-19.15,84.23-.23c0,0-38.47-30.06-74.72-10.9l-1.15.94c-3.03,2.48-5.59,5.48-7.57,8.85l-.79,1.34Z"/>
    <path class="cls-35" d="M938.96,99.81l-1.72-2.13c-4-4.95-8.7-9.29-13.94-12.89l-8.79-6.04s24.41,9.19,26.02,17.7l-1.57,3.36Z"/>
    <path class="cls-20" d="M818.64,142.04c-2.91-1.3-6.8-.19-8.25,2.74-.55,1.11-.69,2.66-.18,3.81.27.62.75,1.2,1.23,1.65,1.14,1.08,2.68,1.57,4.24,1.46.47-.03,1.15-.14,1.44-.57.27-.4-.23-.59-.57-.57-1.02.07-1.99-.23-2.8-.9-.32-.27-.62-.57-.87-.9-.1-.12-.19-.25-.28-.39-.1-.15-.04-.05-.13-.21-.92-1.69-.15-4.15,1.33-5.11.08-.05.35-.2.34-.2-.1.05.1-.04.12-.05.08-.03.16-.07.25-.1-.26.09.41-.08.15-.04.07-.01.39-.05.27-.04.68-.05,1.33.11,1.97.4.46.21,1.12.02,1.53-.22.28-.16.68-.57.21-.78h0Z"/>
    <path class="cls-6" d="M841.87,114.75l-11.92,17.68-1.66-11.9s9.7-4.17,13.58-5.79Z"/>
    <path class="cls-35" d="M835.65,99.83s-18.62,5.12-22.3,9.32l1.28-5.22s8.53-6.51,21.01-4.1Z"/>
    <g>
      <path class="cls-8" d="M876.51,176.15c-1.98-.01-4.25-1.45-5.31-3.24-.23-.4-1.5-.8-1.17-.24,1.4,2.36,4.74,4.28,7.29,4.29.25,0,.3-.17.09-.38-.21-.22-.63-.42-.9-.42"/>
      <path class="cls-8" d="M869.59,171.87c-.79-1.04-1.82-1.92-2.94-2.63-.16-.1-.42-.16-.6-.11-.14.04-.23.14-.14.28.38.59,1,1.08,1.63,1.4.2.1.49.19.69.08.19-.1.05-.31-.11-.39-.53-.27-1.01-.65-1.32-1.14-.25.06-.49.11-.74.17,1,.63,1.92,1.42,2.62,2.36.14.19.44.27.66.26.16,0,.39-.11.25-.3"/>
      <path class="cls-8" d="M864.87,169.56c-1.35-.76-2.65-2.2-2.78-3.58-.2-2.08,2.04-4.03,4.27-4.12.24,0,.22-.2.05-.34-.22-.18-.56-.24-.81-.23-1.94.08-3.97,1.58-4.51,3.15-.5,1.47.3,3.1,1.73,4.36.43.37.9.73,1.41,1.01.2.11.61.25.8.14.19-.11.04-.28-.16-.39"/>
      <path class="cls-8" d="M879.38,176.78c0-.2.2-.23.31-.17.36.2.8.3,1.24.21.04.21.09.42.13.63-.78-.31-1.65-.46-2.54-.37-.18.02-.34-.14-.4-.3-.05-.12-.05-.34.13-.36"/>
      <path class="cls-8" d="M878.24,176.43c1-.1,1.97.08,2.84.42.13.05.25.2.28.36.02.12-.02.25-.15.27"/>
      <path class="cls-8" d="M882.13,178.46c.91.44,2.27.39,3.24-.4,1.48-1.2,1.83-3.36,1.24-4.93-.06-.17.07-.28.22-.25.19.03.33.22.4.4.51,1.37.4,3.1-.51,4.48-.85,1.28-2.2,1.78-3.47,1.61-.38-.05-.76-.15-1.1-.31-.14-.07-.35-.26-.33-.45.02-.2.18-.2.31-.14"/>
    </g>
    <path class="cls-6" d="M907.64,160.81c1.49.08,2.67,1.43,3.03,2.53.08.26.14.93-.08,1.81-.28,1.12-1.31,1.98-2.3,2.29-1.32.41-2.75-.23-3.49-1.32-1.01-1.47-.47-3.41.6-4.43.2-.18,1.05-.95,2.25-.88"/>
    <path class="cls-6" d="M893.66,157.77s8.13-1.09,11.13.31c4.38,2.03,8.12,7.34,8.38,10.26,0,0-4.72-7.42-7.85-8.76-2.99-1.28-11.66-1.81-11.66-1.81Z"/>
    <path class="cls-6" d="M870.27,139.11c-.79-1.26-2.72-2.18-3.85-1.96-.27.05-1,.22-1.66.84-.85.79-1.11,2.1-.89,3.12.28,1.35,1.53,2.3,2.84,2.42,1.78.17,3.22-1.23,3.59-2.66.07-.26.55-.56-.09-1.58"/>
    <path class="cls-6" d="M874.79,145.9s-3.91-7.69-6.94-9.6c-4.42-2.79-11.34-3.33-14.07-2.04,0,0,9.37.3,12.43,2.35,2.92,1.96,8.58,9.28,8.58,9.28Z"/>
    <path class="cls-6" d="M903.34,144.1c-.49.84-.99,1.68-1.48,2.53-.38.64-.75,1.29-1.12,1.93,2.37.67,4.34,1.35,5.8,1.9,3.09,1.16,4.67,1.77,6.13,3.02,1.54,1.31,2.6,2.83,3,3.43.57.84.97,1.39,1.32,2.24.77,1.86.64,3.36.92,3.4.26.03.53-1.2.56-1.33.67-3.11-.35-5.79-.43-5.99,0,0-.75-2.05-2.72-4.05-1.36-1.38-5.64-4.32-12-7.07"/>
    <path class="cls-6" d="M883.02,132.5c-.58.78-1.16,1.57-1.75,2.35-.45.6-.89,1.19-1.34,1.79-1.97-2.23-3.74-4.03-5.09-5.36-2.87-2.81-4.34-4.23-6.4-5.33-2.16-1.16-4.28-1.75-5.1-1.97-1.16-.32-1.93-.55-2.99-.63-2.29-.18-3.75.45-3.94.16-.17-.26.93-.94,1.04-1.01,2.78-1.71,6.04-1.53,6.29-1.52,0,0,2.48.1,5.57,1.48,2.13.95,7.44,4.4,13.7,10.06"/>
    <path class="cls-21" d="M816.73,374.02s-22.04,65.83-26.57,86.35c0,0-62.67-4.88-114.67-36.36-52-31.47-52.27-38-52.27-38l40.47-46.28,18.12-20.02,119.76,62.08"/>
    <path class="cls-12" d="M865.92,182.69c-5.73-3.53-14.57-9.99-14.57-9.99,0,0-7.31,15.94,5.98,24.12,13.29,8.18,23.44-6.21,23.44-6.21,0,0-9.12-4.4-14.85-7.93Z"/>
    <path class="cls-19" d="M866.32,182.92c-2.7-1.66-13.29-8.88-13.29-8.88,0,0-2.09,11.95,7.69,17.97,10.6,6.53,17.88-2.04,17.88-2.04l-12.28-7.05Z"/>
    <path class="cls-14" d="M866.23,183.5c-2.8-1.72-11.01-7.47-11.01-7.47,0,0,1.05,5.16,9.45,10.33,8.4,5.17,13.02,3.63,13.02,3.63l-11.46-6.49Z"/>
    <path class="cls-12" d="M881.68,190.67c-.25-.26-.53-.2-1.84-1.18-2.19-1.64-3.23-3.18-4.83-4.35-2.72-2-5.28-1.91-6.53-2.68-1.25-.77-2.32-3.09-5.33-4.62-1.76-.9-6.32-2.8-8.77-4.02-1.47-.73-2.74-2.31-3.09-2.41-.48-.15-1.67,3.59,13.99,13.23,15.66,9.64,16.74,6.4,16.39,6.04Z"/>
    <path class="cls-25" d="M863.73,283.74c-2.3,2.01-4.15,4.66-5.61,7.31-1.3,2.35-2.26,4.74-2.66,7.38-.76,5.1-1.08,10.27-1.76,15.38-.93,6.95-2.22,13.9-4.5,20.55-2.25,6.55-5.5,13.04-10.65,17.8-2.88,2.66-6.31,4.68-10.07,5.82-.69.21-1.65.24-2.08.86-.28.4-.43.98-.63,1.42-1.24,2.67-2.61,5.27-4.06,7.83-.4.71,1.07.74,1.39.18,1.7-3.01,3.36-6.09,4.7-9.28l-.56.42c13.05-3.24,20.32-14.94,24.06-27.05,3.33-10.78,4.05-21.9,5.5-33.01.3-2.3.81-4.23,1.82-6.37,1.46-3.1,3.48-6.29,6.09-8.57.74-.65-.41-1.17-.97-.68h0Z"/>
    <path class="cls-21" d="M630.51,302.8c-5.7-3.17-11.58-5.99-17.41-8.9,2.12-3.75,4.26-7.2,6.53-10.48,9.66-13.98,74.73-79.06,96.89-95.15,21.99-14.04,49.01-2.45,49.01-2.45l-38.91,78.72-63.29,53.83c-10.45-4.19-22.95-10.09-32.8-15.56Z"/>
    <path class="cls-21" d="M634.61,336.37c5.99-8.68,13.47-20.19,18.45-29.48l98.89,73.9-22.24,37.79c-56.36-36.38-86.16-51.83-106.22-64.74,3.64-5.87,7.2-11.79,11.12-17.47Z"/>
    <path class="cls-25" d="M641.09,366.12c7.66,4.93,15.6,9.4,23.6,13.76,11.88,6.48,23.79,12.91,35.59,19.55,10.66,6,21.27,12.11,31.83,18.29.3.18,1.08-.03,1.25-.34.97-1.7,1.93-3.4,2.9-5.11.31-.55-1.12-.37-1.34.01-.97,1.7-1.93,3.4-2.9,5.11l1.25-.34c-16.48-9.64-33.06-19.1-49.81-28.27-9.37-5.13-18.83-10.11-28.11-15.41-4.37-2.5-8.67-5.09-12.91-7.81-.4-.26-1.69.33-1.35.55h0Z"/>
    <path class="cls-25" d="M664.86,316.59c3.21,2.4,6.41,4.8,9.62,7.21,7.58,5.68,15.16,11.36,22.75,17.04,8.9,6.67,17.8,13.34,26.7,20.01,7.16,5.37,14.33,10.74,21.49,16.1l5.91,4.43c.4.3.93.58,1.27.95.18.19.08.02.08.01-.02.28-.45.76-.58.99l-1,1.69c-.45.77-.91,1.54-1.36,2.31-.14.24,1.21.15,1.43-.23.99-1.68,1.98-3.36,2.97-5.04.02-.06,0-.1-.04-.14-2.93-2.19-5.86-4.39-8.78-6.58-6.96-5.22-13.93-10.43-20.89-15.65-8.49-6.36-16.97-12.72-25.46-19.08-7.31-5.48-14.62-10.95-21.93-16.43-2.42-1.81-4.84-3.62-7.25-5.43-1.1-.82-2.21-1.9-3.42-2.56-.05-.03-.1-.08-.15-.11-.34-.26-1.63.31-1.36.52h0Z"/>
    <path class="cls-25" d="M747.43,205.53c3.74,4.21,4.01,10.39,3.33,15.71-.55,4.34-1.77,8.66-3.87,12.51-3.66,6.74-8.9,12.69-14,18.37-14.12,15.73-29.79,30.09-45.51,44.2-7.38,6.62-14.85,13.16-22.33,19.68-.74.64.41,1.17.97.68,14.98-13.04,29.88-26.19,44.26-39.89,7.71-7.34,15.29-14.83,22.46-22.7,5.4-5.92,10.85-12.09,14.91-19.04,2.31-3.95,3.72-8.34,4.43-12.87.9-5.77.77-12.68-3.32-17.29-.45-.5-1.82.09-1.32.64h0Z"/>
    <path class="cls-21" d="M634.92,265.68s-.8.84-2.16,2.34c-6.42,7.04-25.03,21.61-32.17,43.31-6.14,18.66,8.87,40.39,35.2,47,26.33,6.61,21.3-52.38,21.3-52.38l-22.16-40.27Z"/>
    <path class="cls-18" d="M749.21,388.52c2.18.49,2.22.75,4.43.92,0,0,10.94-6.48,20.08-4.63,9.14,1.85,16.72,10.03,22.02,10.32,6,.32,16.78,5.25,17.92,8.12,1.85,4.65-4,7.91-12.64,4.87-5.64-1.94-11.43-3.39-17.31-4.34,0,0,32.78,47.29,33.87,51.29,1.09,4,2.21,8.12-.91,9.63-3.12,1.5-8.62-8.06-8.62-8.06l-3.75-.87c-1.2-.28-2.33-.83-3.29-1.61l-9.65-7.86c-6.99-1.39-16.39-4.69-22.73-7.94-8.59-4.81-21.58-21.56-21.58-21.56l-11.9-5.38c.47-1.23,12.63-19.97,14.06-22.9Z"/>
    <path class="cls-25" d="M666.1,315.91c-4.97-3.72-11.45-5.21-17.56-5.47s-12.63.64-17.99,3.75c-.85.49-.08,1.3.65.88,5.12-2.97,11.36-3.83,17.2-3.53s11.87,1.7,16.58,5.22c.53.39,1.79-.35,1.11-.85h0Z"/>
    <path class="cls-43" d="M808.43,455.78c-2.21-3.32-4.96-6.33-7.51-9.38-2.54-3.05-5.31-6.07-7.4-9.45-.26-.43-1.53.02-1.21.54,2.09,3.39,4.86,6.41,7.4,9.45,2.55,3.06,5.29,6.06,7.51,9.38.28.42,1.55-.04,1.21-.54h0Z"/>
    <path class="cls-43" d="M796.18,449.03c-3.84-4.03-7.68-8.05-11.53-12.08-.55-.58-1.1-1.15-1.65-1.73-.24-.25-1.45.23-1.24.45,3.84,4.03,7.68,8.05,11.53,12.08.55.58,1.1,1.15,1.65,1.73.24.25,1.45-.23,1.24-.45h0Z"/>
    <path class="cls-21" d="M847.32,415.45c3.13-10.08.72-24.81,2.7-35.16l122.55,42.5-9.31,39.29c-75.01-13.12-86.18-16.94-109.18-23.27,1.72-6.68-8.8-16.76-6.76-23.36Z"/>
    <path class="cls-25" d="M863.23,392.23c-7.05-1.15-14.4,1.03-19.64,5.9-.25.24-.11.49.16.6.32.13.79-.06,1.02-.27,4.68-4.35,11.28-6.38,17.59-5.35.33.05.8.01,1.02-.27.17-.22.2-.54-.16-.6h0Z"/>
    <path class="cls-15" d="M821.46,956.21s2.47,2.57,1.11,7.07c-1.36,4.49-29.66-.04-39.44,1.09-9.78,1.13-48.89,5.65-58.51,3.48-9.61-2.17-.74-13.36-.74-13.36l97.57,1.73Z"/>
    <path class="cls-18" d="M719.3,925.84c1.36,4.28-1.04,18.22-2.21,23.03-1.34,5.54,1.37,9.7,8.04,11.98,5.61,1.92,8.48,1.79,14.55,1.46,7.93-.44,16.37-1.82,24.3-2.25,6.79-.37,28.14-2.17,34.83-1.13,10.4,1.61,16.78.19,21.36-1.34,1.27-.42,2.07-.37,2.65-1.25,1.51-2.3,1.29-4.83-2.14-6.73-4.33-2.4-9.46.99-13.5-1.85-.72-.51-1.39-1.07-2.22-1.44-1.62-.71-3.57-.53-5.4-.49-9.15.15-8.49-3.46-20.5-6.17-3.53-.8-30.76-14.68-34.04-16.03"/>
    <path class="cls-15" d="M661.01,956.65s-1.91,1.75-2,7.95c-.13,8.31,26.09,7.75,33.29,8.31,7.2.56,30.18,5.49,46.39,5.97,16.21.47,34.18-4.4,34.23-13.86.03-5.12-.39-7.11-3.87-8.37-3.48-1.26-97.52-5.01-97.52-5.01l-10.52,5.01Z"/>
    <path class="cls-18" d="M667.71,921.12c.49,5.19-.91,10.79-4.76,21.16-1.94,5.24-3.87,14.21,1.54,17.55,6.43,3.98,21.2,2.29,25.44,3.22,8.94,1.96,14.23,2.19,22.82,4.81,8.71,2.66.06,1.49,9.61,2.01,1.32.07,10.02,1.98,11.17,1.4.77-.39,2.84.08,3.6-.3,2.71-1.35,6.14.4,9.24,0,1.37-.18,2.61-.77,3.87-1.24,3.35-1.25,7.03-1.67,10.58-2.4,3.55-.74,7.16-1.88,9.62-4.2,2.46-2.32,3.37-6.08,1.22-8.62-3.24-3.83-7.39-1.55-11.75-1.89-4.36-.34-6-.99-9.86-2.64-9.85-4.22-11.37-5.08-19.68-8.38-6.45-2.56-24.33-8.76-33.44-14.61l.39-8.38"/>
    <g>
      <path class="cls-43" d="M738.71,970.67c.99-.27,1.6-1.18,1.81-2.14s.08-1.89-.38-2.74c-.93-1.73-2.89-2.74-4.61-3.51-1.01-.45-2.04-.84-3.05-1.26-.19-.08-.41.08-.46.26-.06.22.07.38.26.46,1.67.7,3.4,1.3,4.95,2.25,1.36.84,2.74,2.09,2.64,3.83-.05.86-.45,1.87-1.36,2.12-.47.13-.27.85.2.72h0Z"/>
      <path class="cls-43" d="M747.74,970.69c2.55-.03,2.71-3.22,2.41-5.09-.08-.48-.2-.96-.38-1.41-.25-.62-.69-1.16-1.17-1.62-1.21-1.18-2.82-1.85-4.4-2.37-1.79-.59-3.54-1.8-5.49-1.72-.48.02-.48.77,0,.75,1.58-.06,3.09.83,4.5,1.4.72.29,1.46.5,2.18.8s1.4.65,2.02,1.11c.58.43,1.14.97,1.5,1.6.19.32.3.68.39,1.07.23.93.31,1.94.14,2.88s-.64,1.85-1.7,1.86c-.48,0-.48.76,0,.75h0Z"/>
      <path class="cls-43" d="M754.35,968.53c1.26-.45,2.03-1.64,2.32-2.9.28-1.22.13-2.47-.45-3.58-1.18-2.28-3.69-3.64-5.97-4.59-.66-.27-1.34-.52-2.02-.74-.8-.25-1.6-.54-2.42-.7-.47-.09-.67.63-.2.72.71.13,1.38.38,2.07.59.55.17,1.1.35,1.64.56,1.14.43,2.25.95,3.29,1.59,1.82,1.14,3.59,2.89,3.44,5.2-.08,1.22-.66,2.68-1.9,3.12-.45.16-.26.88.2.72h0Z"/>
      <path class="cls-43" d="M760.96,967.22c1.55-.68,2.71-2.07,3.26-3.65.48-1.37.52-3.02-.27-4.29-.73-1.16-1.92-1.98-3.1-2.64-1.29-.72-2.68-1.27-4.07-1.76-.69-.24-1.39-.45-2.09-.69-.86-.29-1.8-.79-2.74-.71-.48.04-.48.79,0,.75.76-.06,1.54.33,2.24.58.58.21,1.18.39,1.77.58,1.27.43,2.52.9,3.73,1.49s2.33,1.25,3.2,2.23,1.09,2.24.82,3.52c-.36,1.72-1.5,3.23-3.12,3.94-.44.19-.06.84.38.65h0Z"/>
    </g>
    <path class="cls-1" d="M716.69,936.34s32.72,15.3,43.22,16.27l4.36-.3s4.61-.68,6.36.33c0,0,1.71.79,1.71,2.89"/>
    <path class="cls-15" d="M730.28,972.16s-3.37-7.76,16.87-16.24c12.34-5.17,13.24-4.01,13.24-4.01,0,0-11.94-7.2-25.5-8.14,0,0-25.96,3-32.68,24.09l28.06,4.3Z"/>
    <path class="cls-15" d="M798.35,959.33s.53-9.77,4.38-13.27c0,0-12.18-6.29-19.66-7.77,0,0-8.87,8.23-6.94,21.99l22.23-.95Z"/>
    <path class="cls-21" d="M828.18,383.83s-3.83,37.34,18.56,51.61c29.17,18.59,27.19-46.1,27.19-46.1l-45.74-5.51Z"/>
    <path class="cls-25" d="M881.4,390.15c-4.21-.74-8.7.75-12.37,2.72-3.21,1.73-7.17,4.58-7.77,8.46-.09.56,1.37.31,1.45-.18.54-3.47,3.93-6,6.78-7.61,3.22-1.82,7.29-3.26,11.03-2.61.3.05.82-.01,1.02-.27.17-.21.21-.45-.14-.51h0Z"/>
  </g>
  <g id="Layer_1" data-name="Layer 1">
    <path class="cls-18" d="M1165.05,942.74s-28.24,14.33-35.24,14.34c-7,.01-4.6-3.71-4.6-3.71,0,0,18.56-18.16,20.36-21.5.99-1.83-3.95-57.5-7.04-86.09-2.14-19.86-2.28-35.67-2.28-35.67l32.18,3.31,6.21,29,1.35,5.54c.71,2.9,2.5,9.74,2.69,12.72.52,8.07.24,19.93-.11,24.05-.59,6.97-5.08,24.12-5.36,26.57l-8.17,22.64v8.79Z"/>
    <path class="cls-18" d="M1119.47,957.4c.01-1.34,0-2.67,0-4.01v-4.55c.23-.31.56-.6,1.12-.83,5.22-2.17,5.77-3.24,10.45-5.78,3.23-1.76,12.73-5.58,17.61-8.72l.59-11.92,16.35,10.71c-.39,2.99.35,7.32.67,13.68.14,2.8,2.04,6.9-.81,8.76-5.05,3.29-10.75,1.5-12.98,1.92-4.69.89-8.38.66-12.9,1.94-4.58,1.3-5.53,1.63-10.49,1.67-.69,0-1.41-.06-1.98-.42-.39-.24-.68-.6-1.07-.85-1.37-.85-3.19.07-4.79-.25-.64-.13-1.22-.45-1.8-.74,0-.2.02-.4.03-.6Z"/>
    <g>
      <path class="cls-43" d="M1123.33,959.11c-.52-.17-.77-.72-.82-1.23s.09-.97.38-1.38.72-.73,1.16-.99c.48-.28.99-.5,1.51-.7s1.09-.38,1.63-.58c.08-.03.04-.15-.03-.12-1.07.38-2.17.7-3.15,1.28-.89.52-1.71,1.34-1.62,2.45.05.58.33,1.19.91,1.38.08.03.11-.1.03-.12h0Z"/>
      <path class="cls-43" d="M1118.03,958.84c-1.31-.08-1.18-1.92-.95-2.81.06-.24.14-.48.25-.7.17-.33.46-.61.75-.85.73-.58,1.61-.84,2.49-1.1.97-.29,1.96-.89,3.01-.79.08,0,.08-.12,0-.13-.99-.09-1.94.43-2.84.73-.46.15-.94.27-1.4.45-.43.17-.85.38-1.22.66-.33.24-.65.54-.86.9-.13.22-.21.47-.28.71-.16.59-.23,1.25-.12,1.86s.49,1.16,1.17,1.2c.08,0,.08-.12,0-.13h0Z"/>
      <path class="cls-43" d="M1114.34,957.42c-.71-.29-1.05-1.09-1.1-1.81-.05-.66.14-1.29.52-1.82.79-1.12,2.17-1.75,3.43-2.18.36-.12.72-.23,1.09-.33.44-.11.88-.25,1.33-.31.08-.01.05-.13-.03-.12-.43.06-.84.19-1.26.29-.36.09-.71.19-1.06.31-.71.24-1.41.53-2.05.91-1.17.69-2.22,1.79-2.1,3.25.06.78.43,1.62,1.2,1.93.08.03.11-.09.03-.12h0Z"/>
      <path class="cls-43" d="M1110.62,956.51c-.83-.42-1.44-1.21-1.68-2.11-.21-.79-.16-1.67.37-2.32.47-.57,1.14-.96,1.81-1.28.72-.34,1.49-.6,2.25-.83.37-.11.74-.21,1.12-.31.49-.14,1.04-.41,1.56-.34.08.01.11-.11.03-.12-.45-.06-.92.13-1.35.26-.37.12-.75.21-1.13.32-.81.23-1.61.49-2.38.84-.71.32-1.45.72-1.96,1.33s-.64,1.42-.5,2.2c.19,1.04.85,1.99,1.8,2.46.07.04.14-.07.06-.11h0Z"/>
    </g>
    <g>
      <path class="cls-3" d="M1105.58,957.93s-1.35-4.11,1.15-5.13c2.5-1.01,15.82-6.43,17.16-6.13-.04,1.03-.87,1.98,1.97,2.95,2.84.97,7.02,1.72,14.37.3,5.5-1.06,17.13-4.28,22.13-7.34,1.67-1.02,3.67-2.04,3.67-2.04,3.72,4.94,3.85,16.38,1.18,18.21-2.67,1.83-18.72,1.05-18.72,1.05l-13.85,3.36-13.02.48-5.47-.21-5.05-2.14-5.52-3.36Z"/>
      <path class="cls-26" d="M1167.84,957.99c-1.71.61-7.16,1.53-11.82,1.56-12.51.1-17.12,0-21.38,1.34-2.14.67-4.39,1.39-7.45,1.88-14.64,2.47-21.55-5.86-21.85-6.09-.21.21-.31.42-.4.76.14.13,1.25,1.4,2.75,2.69,2.6,2.23,8.65,6.42,19.98,4.75,3.21-.47,5.14-.69,7.27-1.36,3.19-1,4.75-.41,11.79-.86l4.13-.22s13.29-.61,16.81-1.09c.49-3.52.17-3.36.17-3.36Z"/>
    </g>
    <g>
      <path class="cls-7" d="M1146.57,949.42c.24-1.77-.69-3.45-1.65-4.83-1.66-2.41-3.6-4.64-6-5.86-.58-.29-1.21-.52-1.82-.35-.37.11-.69.36-1.01.61-.96.74-1.92,1.49-2.88,2.23,3.02,2.25,5.39,5.74,6.62,9.75.06.2.13.41.28.51.13.09.28.08.43.06,1.99-.19,4.07-.43,5.71-1.78"/>
      <path class="cls-27" d="M1146.68,949.41c.16-1.35-.31-2.65-.98-3.8-.67-1.16-1.49-2.25-2.35-3.28-.84-1-1.77-1.95-2.83-2.72-.51-.37-1.05-.71-1.62-.99-.53-.26-1.13-.46-1.72-.33-.74.17-1.36.8-1.94,1.25-.7.55-1.41,1.09-2.11,1.64-.04.03-.06.08-.01.11,2.05,1.54,3.7,3.55,4.94,5.78.65,1.17,1.18,2.41,1.59,3.69.08.24.12.54.31.73.16.16.37.16.58.14.63-.05,1.27-.13,1.9-.23,1.41-.23,2.78-.67,3.9-1.58.12-.09-.06-.16-.15-.1-1.03.83-2.26,1.26-3.55,1.49-.62.11-1.25.18-1.89.24-.17.02-.4.06-.56-.03-.14-.08-.2-.3-.24-.44-.1-.31-.2-.62-.31-.93-.81-2.28-2.01-4.43-3.57-6.27-.83-.98-1.76-1.86-2.78-2.63v.11c.56-.45,1.14-.89,1.71-1.34.52-.41,1.04-.85,1.59-1.22,1.23-.81,2.74.28,3.75,1.02,1.97,1.45,3.58,3.46,4.88,5.52.79,1.25,1.41,2.67,1.23,4.18-.01.11.21.08.22-.02h0Z"/>
    </g>
    <path d="M1240.06,605.69l-.1.8c-2.35,4.34-5.24,6.67-9.2,6.15-.02.04-4.66,8.59-13.63,5.92-7.79-2.32-9.12-6.7-9.12-6.7,0,0-4.08,1.04-5.86.11-4.01-2.1-3.69-8.03-2.29-11.49,1.91-4.71,4.16-8.04,4.16-8.04,0,0,2.77-2.93,4.98-4.94,2.21-2.01,7.45-2.57,7.45-2.57,0,0,.43-5.43,2.88-5.49,2.45-.07,10.04-2.66,10.04-2.66,0,0,1.94,1.81,5.13,5.89,0,0,3.75.82,3.38,5.79-.08,1.08-.35,2.35-.89,3.84,0,0,1.82.45,3.78,4.04.85,1.55,1.08,6.05-.7,9.34Z"/>
    <path class="cls-34" d="M1154.65,565.26s2.01,6.83-2.09,8.43l20.45,7.62s4.57-3.01,3.85-7.73c-.72-4.72-22.21-8.31-22.21-8.31Z"/>
    <path d="M1192.51,608.61c-15.72,1.11-25.15-10.33-34.71-21.95-5.6-6.8-9.97-15.11-10.31-24.07-.29-7.76,2.1-15.44,5.15-22.49,2.76-6.37,6.05-11.7,11.97-15.58,5.63-3.69,12.36-5.53,19.06-5.74,2-.06,4-.03,6,.07,17.73.72,39.59,11.6,44.91,27.44.48,1.43.86,2.96,1.19,4.53,0,0,.54,3.35.45,4.46-1.72,19.86-11.32,55.67-39.42,51.81-2.46-.34-4.68-.28-4.28,1.51Z"/>
    <path class="cls-18" d="M1144.23,581.32c.43-4.69,2.89-11.81,4.47-13.93.37-2.14.82-4.62,1.38-7.61.16-.87.34-1.69.52-2.51.13-.41.23-.83.29-1.26,3.48-14.41,9.85-21.02,9.85-21.02,8.13-8.35,20.08-11.76,31.39-8.95,13.37,3.03,23.81,13.65,28.44,23.13,2.3,4.7,2.78,10.08,1.35,15.11-1.21,4.3-6.13,8.32-8.29,12.82,4.74.75,10.42,3.29,6.93,11.56-4.81,11.4-13.89,10.6-17.34,7.24-4.06,4.82-5.07,7.97-6.05,11.19-1.01,3.35-1.43,9.97-1.08,11.53l7.9,5.28c-13.49,14.19-47.09,26.36-52.54-.87l7.32-8.37,1.04-4.48c-.31-.09.31.08-4.32-2.52-13.69-8.71-11.77-20.83-11.27-26.36Z"/>
    <path class="cls-43" d="M1159.19,612.55l.58-2.51s15.01,4.87,26.6-.9c0,0-8.44,5.95-16.39,5.45-7.95-.5-10.8-2.04-10.8-2.04Z"/>
    <path d="M1205.22,581.53c-.21.34-.45.7-.39,1.1.07.53.66.85,1.19.84s1.02-.28,1.49-.51c3.08-1.52,10.1-5.12,13.07-3.39,8.18-10.72,10.19-21.68,5.69-34.41-1.43-4.02-6.29-9.13-7.77-10.75-8.96-9.73-18.25-12.16-30.05-13.34-17.66-1.74-20.18,1.36-29.84,14.28,0,0,23.18-5.49,40.79,5.89-.6.03,10.98,6.6,11.1,6.84.99,2.15-1.02,3.21-1.56,7.04-.39,2.78-1.28,4.71.37,7,1.15,1.59,1.69,5.13,1.15,7.01l-5.25,12.41Z"/>
    <circle cx="1152.49" cy="564.09" r="3.01"/>
    <path d="M1149.51,560.92c1.59-.6,3.65-.79,6.45.04,4.49,1.33,5.39,7.46,5.39,7.46,0,0-1.54-4.85-5.93-6.28-2.12-.69-4.34-.43-6.17.07.13-.43.22-.86.26-1.3Z"/>
    <path d="M1182.63,560.04s11.57,3.21,13.14,6.27c0,0-.38-4.15-9.96-7.69,0,0-5.19-.57-3.18,1.42Z"/>
    <path d="M1150.56,553.53c.02-.1.04-.19.06-.29,1.91-.25,4.65-.23,8.5.49,0,0,4.7,1.67,1.96,2.35,0,0-6.14-1.68-10.6-1.89.02-.22.04-.44.08-.66Z"/>
    <path class="cls-37" d="M1171.63,592.5c-.15-.89-3.11-.71-9.74-2.39-4.56-1.16-6.57-2.4-7.06-1.75-.59.78,1.52,3.66,4.32,5.16.43.23,1.97,1.02,4.32,1.2,4.4.34,8.85-1.67,8.68-2.69"/>
    <path class="cls-12" d="M1172.35,591.88c-1.69-.06-3.36-.76-4.92-1.37-1.81-.7-4.03-1.88-5.97-2.1-2.62-.29-4.83.18-7.34-.72,0,0-.21.78,1.55,1.45.96.37,9.59,3.73,14.16,3.42,2.43-.17,2.49-.49,2.49-.49"/>
    <path class="cls-12" d="M1172.32,592.07c-2.36,3.83-4.93,5.84-8.84,5.29-3-.42-4.29-.9-5.97-1.9-3.13-1.86-3.35-6.99-3.39-7.76.32.89,2.27,2.84,5.36,4.67,2.24,1.33,4.37,1.46,5.21,1.5,1.99.1,3.14-.25,3.95-.5,2.41-.73,2.51-.46,3.34-1.27"/>
    <path class="cls-43" d="M1217.44,589.12c.76-1.29,1.27-2.77,1.09-4.27-.03-.22-.05-.52-.16-.72-.1-.19-.29-.21-.48-.23-1.29-.11-2.62.71-3.61,1.42-1.53,1.1-2.87,2.45-4.13,3.84-.47.53.49.55.8.41.04-.02.07-.03.11-.05.08-.03.06-.02-.01,0,.06-.02.12-.04.18-.06.12-.04.3-.1.48-.02.42.19.35.91.28,1.27-.1.49-.36.96-.76,1.26-.55.41-1.28.4-1.93.33-.28-.03-.72.11-.87.37-.15.28.13.39.36.41,1.84.18,4.15-.52,4.52-2.6.13-.72,0-1.56-.79-1.79-.67-.2-1.48,0-2.11.28l.8.41c.96-1.07,1.97-2.11,3.07-3.03.37-.31.76-.61,1.16-.88.17-.11.34-.22.51-.32.16-.09.26-.15.33-.18.12-.06.24-.12.37-.17.06-.02.12-.05.18-.07.12-.05-.16.04.03,0,.09-.02.19-.05.28-.07.11-.03-.19.02-.03,0,.03,0,.06,0,.09-.01.14-.03.13,0,.02,0,.04,0,.08,0,.12,0,.06,0-.18-.04-.04,0l-.26-.19c.6,1.48-.09,3.33-.84,4.6-.32.55,1,.44,1.23.05h0Z"/>
    <circle cx="1181.99" cy="570.66" r="3.01"/>
    <path d="M1173.32,570.91s5.66-5.06,10.61-3.63c6.96,2.01,7.25,6.96,8.16,9.5,0,0-3.14-6.92-8.55-8.34-4.91-1.29-10.21,2.47-10.21,2.47Z"/>
    <g>
      <path class="cls-8" d="M1161.66,583.11c.78.73,2.19,1,3.26.68.24-.07.88.24.55.34-1.41.42-3.42-.06-4.42-1-.1-.09-.05-.18.1-.19.17,0,.4.07.51.17"/>
      <path class="cls-8" d="M1165.94,583.97c.69-.12,1.41-.09,2.11.05.1.02.22.09.28.18.04.07.04.14-.05.16-.36.1-.79.06-1.15-.05-.12-.03-.26-.11-.3-.22-.04-.11.09-.14.18-.11.3.09.63.11.93.04.08.11.15.23.23.34-.62-.12-1.27-.15-1.89-.04-.12.02-.27-.05-.35-.14-.06-.06-.11-.19.01-.21"/>
      <path class="cls-8" d="M1168.62,584.8c.8.2,1.84.11,2.39-.39.84-.75.7-2.43-.14-3.28-.09-.09-.01-.16.11-.15.15,0,.31.11.4.21.73.75.95,2.17.59,2.99-.34.76-1.26,1.11-2.27,1.08-.3,0-.62-.05-.92-.12-.12-.03-.33-.13-.36-.24-.03-.11.09-.12.2-.1"/>
      <path class="cls-8" d="M1160.31,582.3c.07-.08,0-.16-.06-.18-.22-.05-.42-.17-.56-.37-.09.07-.19.13-.28.2.42.17.81.43,1.13.79.06.07.18.07.27.03.06-.03.15-.11.08-.19"/>
      <path class="cls-8" d="M1160.89,582.58c-.35-.41-.8-.69-1.26-.88-.07-.03-.17-.01-.24.04-.05.04-.08.11-.04.16"/>
      <path class="cls-8" d="M1158.63,581.95c-.51-.16-1.03-.68-1.12-1.35-.14-1.02.52-2,1.32-2.4.09-.04.07-.14,0-.18-.08-.06-.21-.03-.3.01-.7.35-1.29,1.07-1.44,1.95-.14.82.21,1.51.76,1.92.17.12.35.22.54.28.08.02.23.03.29-.06.07-.09,0-.15-.07-.17"/>
    </g>
    <path class="cls-7" d="M1232.63,634.04s-13.42-9.52-20.57-13.24c-8-4.16-15.52-6.88-15.52-6.88,0,0-8.85,18.31-25.12,17.75-20.3-.71-12.64-17-12.64-17,0,0-18.19,7.35-25.83,13.86-6.29,5.36-13.52,33.43-3.68,46.81,9.84,13.38,83.74,2.95,83.74,2.95,0,0,9.48-18.67,12.08-28.85,2.6-10.18,7.54-15.4,7.54-15.4Z"/>
    <path class="cls-18" d="M1206.01,944.36s-28.24,14.33-35.24,14.34c-7,.01-4.6-3.71-4.6-3.71,0,0,18.56-18.16,20.36-21.5.99-1.83-3.95-57.5-7.04-86.09-2.14-19.86-2.28-35.67-2.28-35.67l32.18,3.31,6.21,29,1.35,5.54c.71,2.9,2.5,9.74,2.69,12.72.52,8.07.24,19.93-.11,24.05-.59,6.97-5.08,24.12-5.36,26.57l-8.17,22.64v8.79Z"/>
    <path class="cls-18" d="M1161.34,959.02c.01-1.34,0-2.67,0-4.01v-4.55c.23-.31.55-.6,1.1-.83,5.12-2.17,5.67-3.24,10.26-5.78,3.17-1.76,12.5-5.58,17.29-8.72l.58-11.92,16.05,10.71c-.39,2.99.35,7.32.66,13.68.14,2.8,2,6.9-.8,8.76-4.96,3.29-10.55,1.5-12.74,1.92-4.6.89-8.23.66-12.67,1.94-4.5,1.3-5.43,1.63-10.3,1.67-.67,0-1.38-.06-1.95-.42-.38-.24-.67-.6-1.05-.85-1.34-.85-3.14.07-4.7-.25-.63-.13-1.19-.45-1.77-.74,0-.2.02-.4.02-.6Z"/>
    <g>
      <path class="cls-43" d="M1167.26,963.7c-.52-.17-.77-.72-.82-1.23s.09-.97.38-1.38.72-.73,1.16-.99c.48-.28.99-.5,1.51-.7s1.09-.38,1.63-.58c.08-.03.04-.15-.03-.12-1.07.38-2.17.7-3.15,1.28-.89.52-1.71,1.34-1.62,2.45.05.58.33,1.19.91,1.38.08.03.11-.1.03-.12h0Z"/>
      <path class="cls-43" d="M1161.96,963.43c-1.31-.08-1.18-1.92-.95-2.81.06-.24.14-.48.25-.7.17-.33.46-.61.75-.85.73-.58,1.61-.84,2.49-1.1.97-.29,1.96-.89,3.01-.79.08,0,.08-.12,0-.13-.99-.09-1.94.43-2.84.73-.46.15-.94.27-1.4.45-.43.17-.85.38-1.22.66-.33.24-.65.54-.86.9-.13.22-.21.47-.28.71-.16.59-.23,1.25-.12,1.86s.49,1.16,1.17,1.2c.08,0,.08-.12,0-.13h0Z"/>
      <path class="cls-43" d="M1158.27,962.01c-.71-.29-1.05-1.09-1.1-1.81-.05-.66.14-1.29.52-1.82.79-1.12,2.17-1.75,3.43-2.18.36-.12.72-.23,1.09-.33.44-.11.88-.25,1.33-.31.08-.01.05-.13-.03-.12-.43.06-.84.19-1.26.29-.36.09-.71.19-1.06.31-.71.24-1.41.53-2.05.91-1.17.69-2.22,1.79-2.1,3.25.06.78.43,1.62,1.2,1.93.08.03.11-.09.03-.12h0Z"/>
    </g>
    <path class="cls-18" d="M1130.01,775.46c-.03.18,0,.36.07.52.62,1.41,3.8,7.28,3.87,12.87.07,5.03.18,12.34.22,14.87,0,.6-.53,1.08-1.14.99-.85-.12-1.96-.69-2.62-2.69-.61-2.19-1.02-4.44-1.22-6.7-.07-.79-1.02-1.19-1.65-.68h0c-.25.2-.39.51-.37.83l.45,7.04c.02.38.27.71.64.85,1.34.52,4.57,1.97,5.49,4.16.28.66-.27,1.37-1,1.34l-4.64-.2c-.06,0-.12-.01-.18-.02l-4.57-1.03c-.18-.04-.35-.13-.48-.25l-4.12-3.91c-.13-.12-.22-.28-.27-.45l-3.48-12.38c-.32-1.13-.35-2.31-.06-3.45.82-3.25,1.47-6.54,1.94-9.85.75-6.49,1.16-10.67,1.35-12.61.06-.64.72-1.05,1.34-.84l10.73,3.6c.46.15.74.6.67,1.07l-.98,6.94Z"/>
    <path class="cls-18" d="M1135.13,633.35c-1.46.53-13.83,4.94-14.41,33.12-.2,9.96-.06,38.5-1.22,46.87-1.34,8.65-1.87,15.02-2.56,25.82-.18,2.82-.23,6.19-.13,11.75l.48,23.65,14.37-1.49s-2.33-60.24,2.66-73.68c4.99-13.45.81-66.03.81-66.03Z"/>
    <path class="cls-7" d="M1148.6,677.03s-13.86,6.8-34.64-1.13c0,0,3.46-28.21,13.76-41.28,10.3-13.07,14.78-11.29,14.78-11.29,0,0,14.51,7.51,6.1,53.7Z"/>
    <path class="cls-16" d="M1129.12,670.22c2.85-9.44,3.47-22.17,12.97-47.66.14-.07,1.19-1.06,1.3-1.11,1.17-.57,3.65-2.24,6.98-3.42-.02,6.11-5.13,15.07-3.96,24.16.6,4.68-.17,4.82,4.81,7.22,6.04,2.9,22.65,3.04,28.9,1.14,2.75-.84,5.28-2.09,7.15-4.04,2.17-2.28,3.36-5.14,4.33-7.92,1.39-4,2.86-7.89,5.03-11.64,1.98-3.42,4.36-6.66,6.83-9.83,3.57,1.03,7.57,3.29,11.31,4.65-6.18,1.72-9.59,6.4-11.54,11.36-2.57,6.54-4.22,16.33-2.23,24.29,1.08,4.31,1.99,8.72,4.33,12.5,1.79,2.88.91,2.12,3.68,4.1,4.01,2.86,7.65,4.59,12.51,5.18,2.3.28,1.94-.24,2.77,1.94.44,1.15.5,2.62.68,3.83,1.07,7.08,1.36,14.29,1.95,21.42-8.55.87-2.15,5.7-10.58,7.2-11.49,2.05-43.2,5.55-54.92,5.69-14.37.18-25.71-3.73-33.59-7.69.24-1.02-2.85-4.17-1.9-12.15.24-6.83,2.86-22.18,3.17-29.2Z"/>
    <path class="cls-16" d="M1230.89,735.55c5.11,36.33,11.62,103.75,13.36,116.67-8.15,4.83-12.21-1.48-23.05,5.91-9.56,6.52-15.3,3.22-23.34,0-8.04-3.22-14.74-2.15-25.12,1.07-10.39,3.22-16.59-2.71-22.62-2.98-6.03-.27-6.27,1.68-18.85.89-10.69-.68-14.25-2.82-14.25-4.72,2.7-51.73,4.91-96.53,8.77-149.19,9.15,4.21,24.39,13.3,38.63,13.18,11.77-.1,41.1-2.21,54.09-8.14,8.62-3.93-2.43-8.17,7.37-8.74.49,2.9,2.22,14.54,4.48,29.96"/>
    <path class="cls-18" d="M1206.35,806.17c2.7-2.14,5.6-4.1,8.67-5.86l3.88-7.98-.91-4.38-2.54-.38s-1.88,10.85-4.19,12.43c-2.31,1.58-3.39,1.43-3.39,1.43l-1.48-2.73,4.58-15.78s3.2-6.55,4.18-8.02c1.17-1.39,2.47-2.69,3.89-3.89l1.48-7.99,14.38,2.96c-.8,2.14-1.75,5.81-2.83,8.23l-.75,17.36-5.25,6.81-6.37,5.83-14.38,5.54s-1.83-1.05,1.03-3.56Z"/>
    <path class="cls-18" d="M1209.79,662.65c6.3-1.57,12.23-4.73,18.21-7.18,3.3-1.35,6.74-2.71,9.95-4.41,1.74,8.1,3.06,17.84,4.26,27.74l2.28,17.49c2.08,15.53,1.8,17.36,1.81,20.6.07,14.33-17.17,67.95-17.17,67.95l-11.29-4.75s.97-46.58,3.39-61.14l-9.7-47.88.42,2.18c-.56-2.93-1.39-6.59-2.17-10.61Z"/>
    <path class="cls-7" d="M1246.87,672.94s-14.27,10.48-42.5,9.1c0,0-7.57-25.87,0-41.21,7.57-15.35,19-11.63,19-11.63,0,0,16.27-2.3,23.49,43.74Z"/>
    <g>
      <path class="cls-4" d="M1147.7,959.55s-1.32-4.11,1.13-5.13c2.46-1.01,15.54-6.43,16.85-6.13-.04,1.03-.85,1.98,1.94,2.95,2.79.97,6.9,1.72,14.11.3,5.4-1.06,16.81-4.28,21.73-7.34,1.64-1.02,3.6-2.04,3.6-2.04,3.65,4.94,3.78,16.38,1.16,18.21-2.62,1.83-18.38,1.05-18.38,1.05l-13.6,3.36-12.78.48-5.37-.21-4.96-2.14-5.42-3.36Z"/>
      <path class="cls-26" d="M1208.83,959.62c-1.67.61-7.03,1.53-11.6,1.56-12.28.1-16.81,0-20.99,1.34-2.11.67-4.31,1.39-7.31,1.88-14.37,2.47-21.16-5.86-21.45-6.09-.2.21-.3.42-.4.76.13.13,1.23,1.4,2.7,2.69,2.55,2.23,8.49,6.42,19.62,4.75,3.15-.47,5.05-.69,7.14-1.36,3.14-1,4.67-.41,11.57-.86l4.05-.22s13.05-.61,16.51-1.09c.48-3.52.17-3.36.17-3.36Z"/>
    </g>
    <g>
      <path class="cls-7" d="M1187.94,951.05c.23-1.77-.68-3.45-1.62-4.83-1.63-2.41-3.54-4.64-5.89-5.86-.57-.29-1.19-.52-1.79-.35-.36.11-.68.36-.99.61-.94.74-1.88,1.49-2.83,2.23,2.97,2.25,5.3,5.74,6.5,9.75.06.2.13.41.27.51.13.09.28.08.42.06,1.95-.19,4-.43,5.61-1.78"/>
      <path class="cls-27" d="M1188.05,951.03c.16-1.36-.31-2.66-.98-3.83s-1.46-2.25-2.31-3.27-1.75-1.95-2.81-2.73c-.5-.37-1.03-.71-1.59-.98-.52-.25-1.11-.44-1.69-.28-.69.18-1.26.76-1.8,1.19-.71.56-1.43,1.13-2.14,1.69-.01.01-.04.04-.01.06,2.04,1.56,3.68,3.59,4.89,5.84.63,1.16,1.14,2.39,1.53,3.65.07.23.12.54.3.73.15.16.37.15.57.13.63-.05,1.27-.13,1.9-.24,1.38-.23,2.72-.69,3.82-1.59.1-.08-.12-.08-.17-.03-1.01.83-2.24,1.26-3.51,1.49-.6.11-1.2.17-1.8.23-.2.02-.42.08-.59-.08-.1-.09-.14-.24-.18-.36-.1-.29-.18-.59-.28-.88-.76-2.2-1.87-4.29-3.33-6.11-.7-.87-1.48-1.68-2.34-2.4-.11-.09-.22-.18-.33-.27-.12-.09-.23-.12-.13-.26s.31-.25.44-.35c.15-.12.29-.23.44-.35.57-.45,1.14-.9,1.71-1.35.29-.23.58-.48.93-.61.43-.16.89-.07,1.31.1.58.23,1.12.57,1.63.92.98.69,1.85,1.52,2.64,2.42.91,1.04,1.74,2.16,2.47,3.33.78,1.26,1.39,2.68,1.21,4.19,0,.08.21.04.22-.03h0Z"/>
    </g>
    <path class="cls-12" d="M1162.79,588.68c3.81.91,10.1,1.94,10.1,1.94,0,0-1.73,9.52-12.27,6.82-8.81-2.25-6.86-11.17-6.86-11.17,0,0,5.22,1.51,9.03,2.42Z"/>
    <path d="M1162.41,588.6c1.87.45,8.87,2.04,8.87,2.04,0,0-2.78,4.44-9.55,2.82-7.35-1.75-7.42-6.37-7.42-6.37l8.11,1.51Z"/>
    <path class="cls-14" d="M1162.13,589.44c1.87.45,7.65,1.5,7.65,1.5,0,0-2.61,1.01-8.23-.33-5.62-1.34-6.86-3.21-6.86-3.21l7.44,2.04Z"/>
    <path class="cls-12" d="M1153.17,586.07c.05-.2.48-.19,1.42-.05,1.58.24,2.22-.19,3.36,0,1.95.32,3,1.34,3.83,1.54.83.2,2.23-.24,4.11.36,1.1.35,3.79,1.41,5.31,1.91.91.3,2.09.21,2.27.31.26.13-.99,2.53-11.48.02-10.48-2.5-8.9-3.8-8.84-4.08Z"/>
  </g>
  <g id="Layer_4" data-name="Layer 4">
    <polygon class="cls-39" points="347.68 494.62 307 494.62 308.66 489.66 346.01 489.66 347.68 494.62"/>
    <polygon class="cls-39" points="347.68 502.17 307 502.17 308.66 497.21 346.01 497.21 347.68 502.17"/>
    <polygon class="cls-39" points="347.68 510.08 307 510.08 308.66 505.12 346.01 505.12 347.68 510.08"/>
    <polygon class="cls-39" points="418.38 494.62 377.7 494.62 379.37 489.66 416.71 489.66 418.38 494.62"/>
    <polygon class="cls-39" points="418.38 502.17 377.7 502.17 379.37 497.21 416.71 497.21 418.38 502.17"/>
    <polygon class="cls-39" points="418.38 510.08 377.7 510.08 379.37 505.12 416.71 505.12 418.38 510.08"/>
    <polygon class="cls-39" points="205.32 494.71 164.64 494.71 166.31 489.75 203.65 489.75 205.32 494.71"/>
    <polygon class="cls-39" points="205.32 502.25 164.64 502.25 166.31 497.29 203.65 497.29 205.32 502.25"/>
    <polygon class="cls-39" points="205.32 510.16 164.64 510.16 166.31 505.2 203.65 505.2 205.32 510.16"/>
    <polygon class="cls-39" points="276.02 494.71 235.34 494.71 237.01 489.75 274.35 489.75 276.02 494.71"/>
    <polygon class="cls-39" points="276.02 502.25 235.34 502.25 237.01 497.29 274.35 497.29 276.02 502.25"/>
    <polygon class="cls-39" points="276.02 510.16 235.34 510.16 237.01 505.2 274.35 505.2 276.02 510.16"/>
  </g>
</svg>