<?xml version="1.0" encoding="UTF-8"?>
<svg xmlns="http://www.w3.org/2000/svg" xmlns:xlink="http://www.w3.org/1999/xlink" viewBox="0 0 1334 1000">
  <defs>
    <style>
      .cls-1, .cls-2, .cls-3 {
        fill: none;
      }

      .cls-4 {
        fill: #13110f;
      }

      .cls-2 {
        stroke: #4f2e25;
        stroke-width: .78px;
      }

      .cls-2, .cls-5, .cls-3 {
        stroke-miterlimit: 10;
      }

      .cls-6 {
        fill: #010101;
      }

      .cls-7 {
        fill: #1a2942;
      }

      .cls-8 {
        fill: #133a43;
      }

      .cls-9 {
        fill: #1d3942;
      }

      .cls-10 {
        fill: #653c29;
      }

      .cls-11 {
        fill: #7f4c37;
      }

      .cls-12 {
        fill: #d27228;
      }

      .cls-13 {
        fill: #51352d;
      }

      .cls-5 {
        stroke: #121212;
        stroke-width: .24px;
      }

      .cls-5, .cls-14 {
        fill: #fff;
      }

      .cls-15 {
        fill: #f1eef7;
      }

      .cls-16 {
        fill: #af3c25;
      }

      .cls-17 {
        fill: #f38f20;
      }

      .cls-18 {
        fill: #181311;
      }

      .cls-19 {
        fill: #3e6ba3;
      }

      .cls-20 {
        fill: #1e3353;
      }

      .cls-21 {
        fill: #a66e53;
      }

      .cls-22 {
        fill: #31160e;
      }

      .cls-3 {
        stroke: #110e0c;
        stroke-width: .77px;
      }

      .cls-23 {
        fill: #ce8d2a;
      }

      .cls-24 {
        clip-path: url(#clippath-1);
      }

      .cls-25 {
        fill: #c95744;
      }

      .cls-26 {
        fill: url(#linear-gradient);
        opacity: .5;
      }

      .cls-27 {
        fill: #6d439a;
      }

      .cls-28 {
        fill: #5b1a13;
      }

      .cls-29 {
        fill: #0c0c0b;
      }

      .cls-30 {
        fill: #4978bc;
      }

      .cls-31 {
        fill: #121212;
      }

      .cls-32 {
        fill: #8a4a20;
      }

      .cls-33 {
        fill: #0d0b09;
      }

      .cls-34 {
        fill: #42221a;
      }

      .cls-35 {
        fill: #df8c26;
      }

      .cls-36 {
        fill: #ae4f4f;
      }

      .cls-37 {
        fill: #9b5925;
      }

      .cls-38 {
        fill: #0f1516;
      }

      .cls-39 {
        fill: #422766;
      }

      .cls-40 {
        fill: #262828;
      }

      .cls-41 {
        fill: #b15e27;
      }

      .cls-42 {
        fill: #fdb813;
      }

      .cls-43 {
        fill: #f2ebd1;
      }

      .cls-44 {
        fill: #24180f;
      }

      .cls-45 {
        fill: #110e0c;
      }

      .cls-46 {
        fill: #5d483b;
      }

      .cls-47 {
        fill: #28160e;
      }

      .cls-48 {
        fill: #ad5526;
      }

      .cls-49 {
        clip-path: url(#clippath);
      }

      .cls-50 {
        fill: #4f2e25;
      }

      .cls-51 {
        fill: #773022;
      }
    </style>
    <linearGradient id="linear-gradient" x1="-5789.38" y1="8039.52" x2="-4615.35" y2="8039.52" gradientTransform="translate(-7343.91 5622.88) rotate(90) scale(1 -1)" gradientUnits="userSpaceOnUse">
      <stop offset="0" stop-color="#f0ebe0"/>
      <stop offset=".18" stop-color="#eee8dd" stop-opacity=".99"/>
      <stop offset=".33" stop-color="#e8e1d4" stop-opacity=".97"/>
      <stop offset=".46" stop-color="#ded4c5" stop-opacity=".93"/>
      <stop offset=".59" stop-color="#d0c2b0" stop-opacity=".88"/>
      <stop offset=".72" stop-color="#bdab95" stop-opacity=".82"/>
      <stop offset=".84" stop-color="#a78e73" stop-opacity=".73"/>
      <stop offset=".96" stop-color="#8d6d4d" stop-opacity=".64"/>
      <stop offset="1" stop-color="#83603d" stop-opacity=".6"/>
    </linearGradient>
    <clipPath id="clippath">
      <polygon class="cls-1" points="1508.54 1074.8 -149.44 1074.8 -87.88 794.12 1446.99 794.12 1508.54 1074.8"/>
    </clipPath>
    <clipPath id="clippath-1">
      <path class="cls-1" d="M483.51,678.85c-11.07-5.36-11.85-13.09-10.49-20.32,1.36-7.23,18.37-76.73,18.37-76.73l31.63-9s25.28,37.24,30.49,42.7c5.21,5.46,29.16,26.28,28.7,28.01-.46,1.73-16.14,27.58-52.56,35.13-36.42,7.54-42.83,1.81-46.14.21Z"/>
    </clipPath>
  </defs>
  <g id="Layer_3" data-name="Layer 3">
    <polyline class="cls-43" points="1470.31 987.13 1470.31 -183.62 -57.39 -183.62 -57.39 987.13"/>
    <polyline class="cls-26" points="1459.45 1003.65 -68.25 1003.65 -68.25 -170.37 1459.45 -170.37"/>
  </g>
  <g id="Layer_1" data-name="Layer 1">
    <rect class="cls-13" x="-109.12" y="732.84" width="1617.67" height="111.78"/>
    <polygon class="cls-32" points="1560.92 1050.5 -147.34 1050.5 -83.92 759.17 1497.5 759.17 1560.92 1050.5"/>
    <g class="cls-49">
      <rect class="cls-37" x="-166.54" y="864.43" width="1720.07" height="24.89"/>
      <rect class="cls-37" x="-164.73" y="798.52" width="1720.07" height="24.89"/>
      <rect class="cls-37" x="-175.44" y="927.51" width="1720.07" height="24.89"/>
      <rect class="cls-37" x="-174.72" y="989.36" width="1720.07" height="24.89"/>
    </g>
    <path class="cls-18" d="M1197.93,897.2s5.65-.72,8.47-7.67c2.81-6.95-36.93-29.68-47.96-40.88-11.03-11.2-55.15-56.03-69.29-62.96-14.14-6.93-14.32,15.88-14.32,15.88l123.1,95.64Z"/>
    <path class="cls-21" d="M1040.43,832.61c5.98-3.96,16.96-23.71,20.33-30.86,3.88-8.23,11.41-10.69,22.01-6.85,8.91,3.23,12.34,6.27,19.55,12.77,9.42,8.49,18.54,18.67,27.97,27.15,8.08,7.27,32.83,30.9,42.18,36.31,14.55,8.42,21.06,16.59,25.23,23.08,1.15,1.8,2.2,2.52,2.04,4.21-.43,4.38-3.23,7.3-9.41,6.23-7.79-1.35-10.77-10.71-18.65-11.23-1.4-.09-2.81-.06-4.2-.44-2.73-.75-4.96-2.92-7.21-4.8-11.22-9.36-14.03-4.21-31.69-12.87-5.18-2.54-52.98-12.57-58.4-14.18"/>
    <path class="cls-18" d="M1172.32,870.18s-9.13,12.68-7.85,20.89c0,0-21.46-4.38-32.25-10.03,0,0-2.78-19.12,13.4-34.31l26.7,23.45Z"/>
    <path class="cls-21" d="M261.68,842.1c-1.68-3.64-6.25-7.39-9.46-9.08-3.21-1.69-6.95.14-7.95.62-7.46,3.51-11.14,9.95-16.9,15.59-3.92,3.84-8.26,7.25-12.92,10.15.04,1.35.09,2.71.15,4.06.23,5.31.53,10.65.63,15.98,4.5-.42,9.45-.82,10.84-1.01,4.72-.65,19.27-6.07,19.27-6.07,0,0,22.14-3.42,28.6.2l3.63-23.39s-14.21-3.41-15.89-7.05Z"/>
    <polygon class="cls-47" points="119.9 641.37 193.13 641.37 176.45 733.24 119.9 733.24 119.9 641.37"/>
    <path class="cls-46" d="M1572.04,408.85l-1.38-.52-2.45-97.27c-3.62-73.41-23.47-126.69-65.7-130.82-28.75,0-126-1.33-135.68,6.11-2.68-127.53,11.18-229.27-197.14-229.27l-229.64.55c-2.45,56.29-9.13,112.39-17.42,168.12-10.4,69.9,9.96,139.37-.68,209.23-5.35,35.11,40.87,70.47,36.34,105.69-4.62,35.88-9.29,71.76-13.83,107.65-6.9,54.58-43.52,109.25-49.21,164h685.56v-113.77c16.32-5.34,27.67-22.98,27.75-43.16v-81.15c-.05-31.1-13.22-51.39-36.51-65.39Z"/>
    <path class="cls-46" d="M920.68,711.35c.64-15.98,1.26-31.97,1.75-47.95,1.13-36.78,38.87-73.56,38.87-110.35l-8.54-595.54-494.13-1.4c-106.99.02-124.79,101.74-127.48,229.27-9.68-7.45-106.94-6.11-135.69-6.11-42.23,4.14-62.08,57.41-65.7,130.82l-2.45,97.27-1.38.52c-23.29,14-36.46,34.3-36.51,65.39v81.15c.09,20.18,11.43,37.82,27.75,43.16v113.77h803.49Z"/>
    <path class="cls-33" d="M119.63,599.62h1014.21c8.17,0,16.34,0,24.51,0h415.98c.6,0,1.52-.91.54-.91H536.15c-8.04,0-16.09,0-24.13,0H120.17c-.6,0-1.52.91-.54.91h0Z"/>
    <path class="cls-33" d="M126.97,408.4c.21,0,.42,0,.63,0h1.88c1.03,0,2.06,0,3.09,0h4.27c1.81-.01,3.62-.01,5.43-.02h6.51c2.54-.02,5.09-.02,7.63-.02,2.9,0,5.79,0,8.69-.01l9.72-.02,10.71-.02,11.68-.02c4.2,0,8.41-.01,12.61-.02,4.5,0,9.01-.02,13.51-.02,4.79,0,9.59-.02,14.38-.02l15.22-.03c5.32,0,10.64-.02,15.95-.03l16.81-.03c5.85-.01,11.7-.02,17.55-.03s12.18-.02,18.27-.03l18.95-.03,19.6-.03,20.23-.03c6.94-.01,13.88-.02,20.82-.04,7.13-.01,14.25-.02,21.38-.04s14.53-.02,21.8-.04c7.47-.01,14.93-.03,22.4-.04,7.62-.01,15.24-.03,22.87-.04,7.77-.01,15.53-.03,23.3-.04s15.8-.03,23.71-.04c8.03-.01,16.05-.03,24.08-.04,8.14-.01,16.28-.03,24.42-.04l24.73-.04c8.34-.01,16.67-.03,25.01-.04,8.42-.01,16.84-.03,25.26-.04l25.47-.04c8.51-.01,17.02-.03,25.54-.04s17.21-.03,25.81-.04l25.94-.04c8.68-.01,17.35-.03,26.03-.04l26.09-.04,26.12-.04c8.71-.01,17.41-.03,26.12-.04,8.7-.01,17.39-.03,26.09-.04,8.67-.01,17.35-.03,26.02-.04s17.2-.03,25.8-.04,17.2-.03,25.8-.04c8.55-.01,17.1-.03,25.65-.04,8.49-.01,16.97-.03,25.46-.04s16.83-.03,25.24-.04l24.99-.04c8.24-.01,16.47-.03,24.71-.04s16.26-.03,24.39-.04,16.03-.03,24.05-.04,15.78-.03,23.68-.04c7.72-.01,15.44-.03,23.16-.04,7.61-.01,15.22-.03,22.83-.04s14.91-.03,22.37-.04c7.29-.01,14.58-.02,21.87-.04s14.22-.02,21.34-.04,13.85-.02,20.77-.04,13.45-.02,20.18-.03,13.04-.02,19.56-.03c6.3-.01,12.6-.02,18.9-.03l18.21-.03c5.8,0,11.61-.02,17.41-.03s11.17-.02,16.75-.03l15.97-.03,15.16-.03c4.77,0,9.54-.02,14.32-.02l13.44-.02,12.54-.02,11.6-.02,10.64-.02,9.64-.02h8.57c2.52-.02,5.04-.02,7.55-.03h6.46c1.78-.01,3.56-.02,5.34-.02h4.18c1,0,2-.01,3-.01h1.78c.18,0,.36,0,.54,0,.6,0,1.52-.91.54-.91-.21,0-.42,0-.63,0h-1.88c-1.03,0-2.06,0-3.09,0h-4.27c-1.81.01-3.62.01-5.43.02h-6.51c-2.54.02-5.09.02-7.63.02h-8.69c-3.24.02-6.48.03-9.72.03-3.57,0-7.14.01-10.71.02l-11.68.02-12.61.02-13.51.02-14.38.02-15.22.03-15.95.03-16.81.03c-5.85.01-11.7.02-17.55.03-6.09.01-12.18.02-18.27.03l-18.95.03-19.6.03-20.23.03c-6.94.01-13.88.02-20.82.04-7.13.01-14.25.02-21.38.04s-14.53.02-21.8.04-14.93.03-22.4.04c-7.62.01-15.24.03-22.87.04-7.77.01-15.53.03-23.3.04s-15.8.03-23.71.04-16.05.03-24.08.04-16.28.03-24.42.04l-24.73.04c-8.34.01-16.67.03-25.01.04s-16.84.03-25.26.04c-8.49.01-16.98.03-25.47.04-8.51.01-17.02.03-25.54.04s-17.21.03-25.81.04l-25.94.04c-8.68.01-17.35.03-26.03.04l-26.09.04-26.12.04c-8.71.01-17.41.03-26.12.04-8.7.01-17.39.03-26.09.04-8.67.01-17.35.03-26.02.04-8.6.01-17.2.03-25.8.04s-17.2.03-25.8.04c-8.55.01-17.1.03-25.65.04l-25.46.04c-8.41.01-16.83.03-25.24.04l-24.99.04c-8.24.01-16.47.03-24.71.04-8.13.01-16.26.03-24.39.04s-16.03.03-24.05.04-15.78.03-23.68.04-15.44.03-23.16.04-15.22.03-22.83.04-14.91.03-22.37.04-14.58.02-21.87.04c-7.11.01-14.22.02-21.34.04s-13.85.02-20.77.04c-6.73.01-13.45.02-20.18.03-6.52.01-13.04.02-19.56.03-6.3.01-12.6.02-18.9.03l-18.21.03c-5.8,0-11.61.02-17.41.03s-11.17.02-16.75.03c-5.32,0-10.65.02-15.97.03l-15.16.03c-4.77,0-9.54.02-14.32.02-4.48,0-8.96.02-13.44.02-4.18,0-8.36.01-12.54.02l-11.6.02c-3.55,0-7.09.01-10.64.02l-9.64.02h-8.57c-2.52.02-5.04.02-7.55.03h-6.46c-1.78.01-3.56.02-5.34.02h-4.18c-1,0-2,.01-3,.01h-1.78c-.18,0-.36,0-.54,0-.6,0-1.52.91-.54.91h0Z"/>
    <path class="cls-33" d="M1365.73,188.13c-9.27,12.72-17.93,26.25-24.23,40.7-3.33,7.63-5.56,15.59-6.82,23.82-1.4,9.1-1.78,18.31-2.13,27.5-.48,12.43-.79,24.86-1.08,37.29-.35,14.69-.64,29.39-.93,44.08-.25,12.98-.49,25.96-.77,38.93-.03,1.28-.05,2.57-.08,3.85-.02.75,1.45.54,1.47-.11.27-12.37.5-24.75.74-37.12.28-14.57.57-29.14.9-43.71.29-12.98.61-25.95,1.06-38.92.59-16.76.93-34.04,6.82-49.95,5.5-14.87,14.14-28.69,23.2-41.62,1.01-1.45,2.04-2.88,3.08-4.31.54-.74-.82-.96-1.21-.42h0Z"/>
    <path class="cls-33" d="M330.1,188.62c9.34,12.81,18.05,26.44,24.33,41.03,3.32,7.71,5.47,15.76,6.69,24.06,1.3,8.93,1.67,17.96,2.01,26.96.48,12.48.79,24.97,1.08,37.45.34,14.57.63,29.15.92,43.72.25,12.92.49,25.83.76,38.75.03,1.28.05,2.57.08,3.85,0,.41,1.46.14,1.45-.39-.27-12.49-.5-24.99-.75-37.49-.28-14.63-.57-29.27-.9-43.9-.29-12.93-.61-25.86-1.06-38.79-.6-16.87-1.02-34.21-7.04-50.2-5.55-14.74-14.13-28.46-23.14-41.31-1.01-1.45-2.04-2.88-3.08-4.31-.27-.37-1.67.11-1.35.55h0Z"/>
    <path class="cls-33" d="M278.39,188.6c9.34,12.81,18.06,26.46,24.33,41.05,3.32,7.71,5.47,15.76,6.69,24.06,1.3,8.93,1.67,17.96,2.01,26.96.48,12.48.79,24.97,1.08,37.45.34,14.57.63,29.15.92,43.72.25,12.92.49,25.83.76,38.75.03,1.28.05,2.57.08,3.85,0,.29,1.46.06,1.45-.39-.27-12.49-.5-24.99-.75-37.49-.28-14.63-.57-29.27-.9-43.9-.29-12.93-.61-25.86-1.06-38.79-.6-16.87-1.02-34.21-7.04-50.2-5.59-14.83-14.23-28.62-23.3-41.54-.96-1.36-1.93-2.72-2.91-4.06-.22-.3-1.61.17-1.36.51h0Z"/>
    <g>
      <path class="cls-5" d="M195.68,886.59s2.76,4.9,5.9,3.45c3.14-1.45,19.86-9.17,20.74-10.68-1.02-.88-2.64-.93-1.1-4.45,1.54-3.52,4.45-8.1,12.17-13.74,5.79-4.23,18.94-12.28,26.2-14.28,2.43-.67,5.13-1.64,5.13-1.64-1.5-7.85-12.31-18.07-16.37-17.19-4.06.89-17.24,16.63-17.24,16.63l-15.22,10.02-11.75,11.79-4.55,5.32-2.34,6.63-1.57,8.15Z"/>
      <path class="cls-29" d="M249.61,828.15c-2.06,1.06-7.67,5.37-11.74,9.71-10.94,11.64-14.85,16.05-19.82,18.87-2.5,1.42-5.13,2.89-8.26,5.32-15.05,11.54-13.1,25.39-13.13,25.88-.38.01-.67-.09-1.08-.29,0-.25-.25-2.41-.18-4.96.12-4.41,1.37-13.78,12.79-22.94,3.23-2.6,5.12-4.21,7.6-5.61,3.72-2.11,4.51-4.09,11.05-10.29l3.79-3.67s12.11-11.93,15.62-14.81c3.79,2.65,3.36,2.8,3.36,2.8Z"/>
    </g>
    <g>
      <path class="cls-14" d="M239.35,855.67c1.9,1.35,2.69,3.7,3.18,5.81.86,3.69,1.31,7.48.39,10.81-.22.8-.55,1.6-1.25,2.01-.42.25-.94.33-1.45.41-1.54.24-3.09.49-4.63.73.47-4.83-.81-10.13-3.57-14.83-.13-.23-.28-.48-.25-.72.03-.2.17-.33.31-.46,1.91-1.69,3.94-3.44,6.66-3.78"/>
      <path class="cls-31" d="M239.25,855.71c1.21.88,2,2.17,2.52,3.55.57,1.52.9,3.14,1.17,4.73.3,1.8.48,3.63.36,5.46-.06.85-.18,1.7-.39,2.53-.18.74-.42,1.56-1.01,2.09-.43.38-.99.48-1.54.57s-1.05.16-1.57.25c-1.06.17-2.11.33-3.17.5l.09.04c.29-3.1-.12-6.24-1.05-9.2-.5-1.57-1.14-3.1-1.91-4.55-.19-.37-.4-.73-.61-1.09-.09-.16-.2-.33-.24-.51-.06-.31.14-.5.35-.69.57-.5,1.14-1,1.74-1.47,1.4-1.09,2.96-1.97,4.74-2.21.1-.01.19-.13.03-.11-1.48.2-2.84.81-4.07,1.64-.66.45-1.28.95-1.88,1.47-.27.24-.55.47-.82.72s-.41.45-.3.81c.13.38.4.74.6,1.1.24.43.46.86.67,1.3.37.77.71,1.55,1.01,2.35.59,1.59,1.04,3.24,1.3,4.91.29,1.84.37,3.71.2,5.56,0,.05.06.04.09.04,1.01-.16,2.03-.32,3.04-.48.89-.14,1.86-.19,2.71-.5,1.52-.55,1.84-2.47,2.04-3.87.27-1.83.19-3.7-.05-5.53-.23-1.76-.57-3.55-1.11-5.25-.52-1.63-1.34-3.21-2.76-4.23-.06-.04-.26.04-.2.08h0Z"/>
    </g>
    <path class="cls-21" d="M995.85,737.63c-3.05,34.07,98.83,20.67,58.4,41.31l16.67,55.94c15.93,25.95,39.97,3.47,34.98,33.5l-50.85-5.74s-216.52,68.74-261.83,57.58c-17.77-1.3-56.26-19.57-59.51-73.39-3.25-53.82,21.69-44.68,35.62-53.63,13.93-8.95,164.77-46.84,221.76-51.82l60.6-47.71-55.84,43.96Z"/>
    <path class="cls-9" d="M1084.89,583.12c-.39-1.12-1.98-2.68-2.33-3.96-2.58-1.45-.71.82-6.48-2.74-8.22,3.7-6.14,9.19-14.72,11.92-20.92,6.65-43.02,9.43-64.85,10.76-23.89,1.45-47.84,1-71.76.69-20.7-.27-41.44-.45-62.12.8l-.43,36.25-123.46,114s-79.12,78.93-25.3,119.01c40.4,30.08,147.82,1.19,147.82,1.19,1.16,1.76,26.1-7.51,40.91-10.84,18.23-5.7,135.1-26.01,145.75-29.05,52.61-15.02,94.97-49.78,95.2-105.79.12-30.65-6.71-68.8-23.19-94.79-22.21-35.04-30.16-33.44-35.04-47.44Z"/>
    <path class="cls-8" d="M1003.2,826.75s37.29,35.36,26.42,65.48c-2.01,5.57-168.52,32.7-168.52,32.7,0,0-75.18,18.79-113.29-12.96-65.98-54.97-73.53-102.92-8.03-161.21,66.95-59.59,0,0,0,0l151.64,109.6"/>
    <path class="cls-38" d="M1011.13,837.57c-8.96,1.08-17.85,2.95-26.7,4.71-13.34,2.65-26.65,5.49-39.95,8.34-14.94,3.21-29.88,6.47-44.81,9.7-13.36,2.89-26.71,5.78-40.1,8.54-8.79,1.81-17.28,3.65-26.08,4.92-.61.09-1.22.17-1.83.24-.55.07-1.55.39-1.63,1.06s.8.81,1.29.75c8.13-.97,16.19-2.76,24.21-4.39,12.91-2.62,25.79-5.4,38.66-8.18,14.91-3.22,29.82-6.48,44.73-9.69,13.73-2.96,27.46-5.9,41.23-8.69,9.45-1.91,18.89-3.87,28.44-5.22.73-.1,1.47-.2,2.2-.29.55-.07,1.55-.39,1.63-1.06s-.8-.81-1.29-.75h0Z"/>
  </g>
  <g id="Layer_4" data-name="Layer 4">
    <path d="M225.67,543.51l.1,1.12c3.02,6.16,6.92,9.56,12.46,9.05.03.06,6.01,12.2,18.62,8.97,10.95-2.8,13.05-8.81,13.05-8.81,0,0,5.61,1.67,8.14.47,5.69-2.7,5.57-10.97,3.81-15.85-2.4-6.65-5.34-11.4-5.34-11.4,0,0-3.7-4.23-6.66-7.14-2.96-2.91-10.22-3.98-10.22-3.98,0,0-.29-7.57-3.7-7.8-3.41-.23-13.81-4.25-13.81-4.25,0,0-2.8,2.41-7.45,7.9,0,0-5.25.93-5.01,7.87.05,1.5.36,3.28,1.03,5.39,0,0-2.56.53-5.48,5.42-1.26,2.11-1.83,8.35.46,13.03Z"/>
    <path class="cls-40" d="M346.61,491.98s-3.17,9.39,2.45,11.83l-28.85,9.47s-6.19-4.44-4.92-10.96c1.27-6.53,31.32-10.34,31.32-10.34Z"/>
    <path d="M291.61,550.18c21.79,2.41,35.52-12.98,49.46-28.61,8.15-9.14,14.69-20.47,15.64-32.9.83-10.77-2.08-21.58-5.93-31.55-3.48-9-7.77-16.6-15.78-22.31-7.62-5.44-16.88-8.37-26.18-9.03-2.78-.2-5.56-.26-8.34-.23-24.69.03-55.67,13.95-63.93,35.69-.75,1.97-1.36,4.06-1.9,6.23,0,0-.94,4.62-.87,6.18,1.3,27.7,12.69,78.01,51.96,74.19,3.43-.33,6.53-.14,5.87,2.34Z"/>
    <path class="cls-21" d="M360.22,514.88c-.34-6.55-3.37-16.57-5.46-19.61-.4-2.99-.89-6.47-1.5-10.65-.18-1.21-.38-2.37-.59-3.52-.16-.58-.27-1.17-.34-1.77-4.04-20.23-12.54-29.76-12.54-29.76-10.84-12.06-27.27-17.45-43.15-14.16-18.76,3.48-33.85,17.67-40.8,30.6-3.46,6.4-4.42,13.86-2.71,20.93,1.45,6.05,8.07,11.91,10.83,18.28-6.63.78-14.66,4.01-10.26,15.69,6.07,16.12,18.73,15.5,23.71,11.02,5.39,6.92,6.61,11.35,7.79,15.89,1.22,4.71,1.44,13.94.87,16.09l-8.52,7.51c17.98,20.47,61.27,38.63,70.34,1.08l-9.72-12.04-1.2-6.28c.44-.1-.43.09,6.14-3.26,19.5-11.35,17.51-28.31,17.11-36.03Z"/>
    <path class="cls-50" d="M337.71,557.47l-.67-3.52s-21.14,5.95-36.93-2.71c0,0,11.4,8.74,22.49,8.48,11.08-.26,15.12-2.24,15.12-2.24Z"/>
    <path d="M275.42,511.83c.27.48.58,1,.49,1.55-.13.73-.96,1.15-1.7,1.1-.74-.05-1.4-.44-2.05-.8-4.2-2.28-13.76-7.68-17.99-5.43-10.78-15.36-12.98-30.7-6.02-48.15,2.21-5.52,9.25-12.34,11.39-14.52,12.99-13.04,26.04-15.91,42.5-16.9,24.65-1.45,27.99,2.99,40.7,21.48,0,0-31.92-8.9-57.03,5.96.83.08-15.63,8.57-15.8,8.91-1.5,2.94,1.25,4.52,1.78,9.87.39,3.89,1.52,6.62-.9,9.72-1.68,2.15-2.64,7.04-1.99,9.69l6.61,17.54Z"/>
    <circle cx="349.68" cy="490.47" r="4.18"/>
    <path d="M353.99,486.23c-2.18-.92-5.03-1.3-8.97-.3-6.31,1.61-7.9,10.08-7.9,10.08,0,0,2.4-6.66,8.59-8.4,2.98-.84,6.06-.36,8.57.44-.16-.6-.26-1.21-.3-1.82Z"/>
    <path d="M308,483.19s-16.27,3.83-18.61,7.99c0,0,.76-5.75,14.27-10.14,0,0,7.25-.51,4.35,2.15Z"/>
    <path d="M352.95,475.91c-.02-.13-.04-.27-.07-.4-2.65-.45-6.45-.57-11.84.22,0,0-6.63,2.07-2.85,3.16,0,0,8.62-2,14.84-2.04-.02-.31-.03-.62-.08-.93Z"/>
    <path class="cls-44" d="M321.52,528.92c.25-1.22,4.37-.82,13.66-2.79,6.4-1.36,9.27-2.98,9.91-2.05.77,1.11-2.31,5.01-6.28,6.94-.61.29-2.8,1.31-6.07,1.43-6.14.23-12.21-2.81-11.92-4.22"/>
    <path class="cls-10" d="M320.56,528.02c2.35.01,4.71-.87,6.92-1.63,2.56-.87,5.71-2.4,8.41-2.59,3.65-.26,6.71.51,10.24-.6,0,0,.25,1.1-2.24,1.93-1.36.46-13.53,4.66-19.87,3.98-3.37-.37-3.43-.82-3.43-.82"/>
    <path class="cls-10" d="M320.58,528.29c3.08,5.46,6.53,8.38,12,7.84,4.19-.42,6.01-1.02,8.4-2.32,4.45-2.41,5.04-9.54,5.14-10.6-.49,1.22-3.32,3.82-7.71,6.2-3.19,1.72-6.15,1.79-7.33,1.8-2.77.02-4.35-.52-5.47-.91-3.32-1.15-3.47-.78-4.58-1.95"/>
    <path class="cls-50" d="M259.53,521.54c-1-1.86-1.91-4.57-.97-6.65l-.59.34s-.24.07-.14.03c-.09.04-.14-.04-.04,0,.04.02-.12-.02.07,0,.04,0,.25.03.14.02.6.1,1.18.37,1.71.67,2.8,1.57,5.05,4.16,7.07,6.59l1.24-.46c-.75-.38-1.62-.57-2.45-.4-1.18.23-1.73,1.03-1.67,2.21.05.99.53,1.94,1.29,2.58,1.11.92,2.63,1.08,4.02,1,.24-.01.75-.09.88-.32s-.11-.26-.32-.25c-1.94.12-3.96-.64-4.46-2.7-.08-.32-.11-.65-.1-.97,0-.16.03-.32.07-.47.05-.19.21-.37.25-.54.03-.14-.04-.02-.04-.02.08,0,.15,0,.23.02.18.02.36.07.54.13s.38.13.54.21c.23.12,1.51-.13,1.24-.46-1.53-1.84-3.14-3.63-5-5.14-.93-.76-1.93-1.46-3.05-1.92-.52-.21-1.08-.36-1.64-.33-.16,0-.33.03-.49.08-.51.14-.62.35-.74.81-.57,2.14.1,4.42,1.12,6.32.19.35,1.44-.12,1.32-.35h0Z"/>
    <circle cx="308.31" cy="497.99" r="4.18"/>
    <path d="M320.35,498.81s-7.6-7.34-14.55-5.63c-9.78,2.41-10.47,9.28-11.86,12.76,0,0,4.74-9.44,12.35-11.12,6.9-1.52,14.06,3.99,14.06,3.99Z"/>
    <g>
      <path class="cls-6" d="M335.88,516.41c-1.12.97-3.1,1.26-4.57.76-.33-.11-1.24.28-.78.44,1.94.66,4.75.11,6.2-1.14.14-.12.09-.24-.14-.26-.23-.02-.56.07-.72.2"/>
      <path class="cls-6" d="M329.9,517.37c-.95-.21-1.96-.2-2.94-.05-.14.02-.31.12-.39.23-.06.09-.06.19.06.23.5.15,1.09.13,1.6,0,.16-.04.37-.13.43-.29.06-.15-.12-.2-.25-.17-.43.11-.88.12-1.3,0-.11.15-.22.31-.33.46.87-.13,1.78-.13,2.63.05.17.04.38-.06.49-.17.09-.08.16-.25,0-.29"/>
      <path class="cls-6" d="M326.12,518.38c-1.13.23-2.56.05-3.31-.67-1.13-1.08-.84-3.41.37-4.56.13-.12.02-.22-.14-.22-.21,0-.43.13-.57.26-1.06,1-1.44,2.97-.98,4.13.43,1.08,1.68,1.61,3.1,1.63.42,0,.86-.03,1.28-.12.17-.04.46-.16.52-.31.05-.15-.12-.18-.28-.14"/>
      <path class="cls-6" d="M337.81,515.36c-.09-.12,0-.23.09-.25.3-.06.59-.22.8-.49.13.1.25.2.38.3-.59.21-1.15.55-1.61,1.04-.09.1-.26.09-.37.03-.09-.04-.2-.17-.11-.27"/>
      <path class="cls-6" d="M336.99,515.72c.51-.55,1.14-.92,1.81-1.15.1-.03.24-.01.33.07.07.06.11.15.05.23"/>
      <path class="cls-6" d="M340.17,514.97c.72-.2,1.47-.89,1.63-1.82.25-1.4-.61-2.81-1.71-3.41-.12-.07-.09-.19,0-.25.12-.07.29-.03.42.03.96.53,1.74,1.56,1.9,2.79.15,1.15-.37,2.09-1.17,2.62-.24.16-.5.29-.77.36-.11.03-.32.02-.4-.1-.09-.12,0-.2.1-.23"/>
    </g>
    <path class="cls-10" d="M334.02,524.1c-5.35,1.06-14.15,2.14-14.15,2.14,0,0,1.89,13.32,16.68,10.15,12.37-2.65,10.15-15.16,10.15-15.16,0,0-7.33,1.81-12.69,2.87Z"/>
    <path d="M334.54,524c-2.63.52-12.44,2.35-12.44,2.35,0,0,3.62,6.32,13.13,4.45,10.31-2.04,10.67-8.44,10.67-8.44l-11.35,1.65Z"/>
    <path class="cls-15" d="M334.89,525.19c-2.63.52-10.72,1.67-10.72,1.67,0,0,3.57,1.55,11.46-.01,7.89-1.56,9.72-4.09,9.72-4.09l-10.46,2.43Z"/>
    <path class="cls-10" d="M347.53,520.99c-.05-.28-.65-.3-1.98-.15-2.21.25-3.08-.39-4.67-.19-2.73.33-4.24,1.69-5.41,1.92-1.17.23-3.08-.46-5.74.28-1.55.43-5.35,1.75-7.49,2.36-1.28.37-2.91.18-3.18.3-.37.17,1.24,3.57,15.95.66,14.71-2.9,12.58-4.8,12.51-5.18Z"/>
    <path class="cls-21" d="M341.5,623.4c21.86,18.18,59.29,58.39,86.05,59.41,33.1,1.25,90.45-67.54,90.45-67.54l-10.48-17.91-76.82,42.78s-62.2-51.97-70.31-60.55c0,0-22.07-9.62-37.91,15.31"/>
    <path class="cls-21" d="M248.45,774.04c.68,17.09-3.39,54.06,47.76,56.05l-23.38-5.02.49,41.59s143.69-2.06,148.16-2.17c8.61-.2,28.85-11.82,31.68-38.62,2.83-26.79-18.83-33.31-25.35-38.14-6.51-4.82-78.44-27.6-105.83-31.54l-66.19,8.17-7.34,9.66Z"/>
    <path class="cls-21" d="M241.32,795.41c.68,17.09-3.39,54.06,47.76,56.05l-9.47-4.02-5.5,23.68s118.11,19.16,140.24,14.74c8.61-.2,28.85-11.82,31.68-38.62,2.83-26.79-18.83-33.31-25.35-38.14-6.51-4.82-78.44-27.6-105.83-31.54l-66.19,8.17-7.34,9.66Z"/>
    <path class="cls-50" d="M447.96,847.56c.77-7.54-.27-15.21-4.42-21.68-3.12-4.86-7.64-8.52-12.51-11.51-1.97-1.21-4.01-2.31-6.01-3.46-1.2-.69-2.3-1.53-3.5-2.2-3.07-1.73-6.52-2.9-9.81-4.12-12.53-4.66-25.33-8.65-38.14-12.48-14.26-4.27-28.62-8.31-43.14-11.59-2.89-.65-5.8-1.27-8.71-1.83-1.3-.25-2.61-.48-3.92-.69-.79-.13-1.63-.35-2.43-.31-2.31.1-4.66.57-6.95.85-11.19,1.38-22.38,2.75-33.57,4.13-8.49,1.04-16.98,2.09-25.47,3.13-.81.1-1.22.33-1.73,1-1.64,2.15-3.28,4.3-4.93,6.45-.6.79-1.37,1.58-1.86,2.44-.32.55-.16,1.25-.14,1.89.05,1.92.06,3.85.1,5.77.19,9.46,1.04,19.23,5.5,27.75,5.95,11.37,17.41,17.37,29.65,19.73,4.33.84,8.73,1.25,13.13,1.43.31.01,1.4-.53.67-.68-6.87-1.46-13.73-2.93-20.6-4.39-.98-.21-1.95-.42-2.93-.62-.39-.08-1.54.52-.82.67,6.87,1.46,13.73,2.93,20.6,4.39.98.21,1.95.42,2.93.62l.67-.68c-15.92-.64-33.36-5.17-41.61-20.1-5.39-9.75-5.78-21.06-5.95-31.93-.02-1.13-.25-2.45-.08-3.57.09-.62,1.25-1.81,1.74-2.46,1.86-2.44,3.72-4.87,5.58-7.31l-.71.34c3.64-.45,7.28-.9,10.92-1.34,7.96-.98,15.91-1.96,23.87-2.93,7.66-.94,15.32-1.88,22.99-2.83l6.99-.86c.53-.07,1.07-.17,1.6-.2.08,0,.16-.03.23-.03-.21,0,.6.13.8.17.42.06.84.13,1.25.2,8.65,1.43,17.2,3.53,25.69,5.72,10.35,2.67,20.64,5.6,30.88,8.68,9.38,2.82,18.73,5.77,27.99,8.95,5.89,2.02,11.95,3.97,17.56,6.7,1.65.8,3.11,1.92,4.7,2.83,2.91,1.67,5.86,3.25,8.62,5.17,7.48,5.22,12.74,12.58,13.9,21.77.39,3.06.34,6.14.03,9.21-.05.48,1.27.23,1.31-.18h0Z"/>
    <path class="cls-50" d="M393.32,855.7c.35-.41.94-.24.04-.25-.55,0-1.09-.02-1.64-.03-1.87-.04-3.73-.11-5.6-.17-6.31-.21-12.62-.47-18.93-.73-14.84-.61-29.69-1.26-44.52-2.03-2.3-.12-4.59-.24-6.89-.38-.68-.04-1.35-.08-2.03-.14-.18-.01-.43-.08-.61-.05-.21.04-.1-.12.04.08l-.08.38c-.24.24-.65.21-.54.25.13.05.37,0,.51,0,.55,0,1.09.02,1.64.03,1.87.04,3.73.11,5.6.17,6.31.21,12.62.47,18.92.73,14.84.61,29.69,1.25,44.52,2.01,2.3.12,4.59.24,6.88.38.68.04,1.35.08,2.03.14.2.02.41.04.61.06.12.01.06.09-.03-.07.24.39,1.51-.04,1.22-.53-.23-.37-1.66-.28-2-.3-1.79-.13-3.59-.22-5.39-.32-6.54-.35-13.09-.65-19.64-.95-15.4-.7-30.8-1.39-46.21-1.92-2.16-.07-4.32-.15-6.47-.19-.68-.01-2.16-.28-2.71.27-.11.11-.18.24-.08.38.27.37,1.63.25,2,.28,1.8.12,3.59.22,5.39.32,6.55.35,13.09.67,19.64.97,15.4.71,30.8,1.39,46.21,1.92,2.16.07,4.32.15,6.48.19.62.01,2.22.29,2.71-.27.51-.59-.76-.6-1.06-.24Z"/>
    <path class="cls-20" d="M370.07,725.67c5.43-15.69,5.42-21.02,8.73-36.16-6.45.14-12.91.2-19.37.12-9.52-.11-19.04-.46-28.53-1.15-8.63-.62-17.16-1.53-25.66-3.16-8.28-1.58-16.5-3.47-24.82-4.84-7.09-1.17-13.44-1.99-20.63-1.58.3,12.81-7.65,23.49-9.64,29.85l-6.98,13.49-9.82,19.44c-3.61,6.74-6.72,19-7.74,26.55-12.6,93.29,77.97,86.61,77.97,86.61,0,0,14.61-27.96,18.3-33.03l7.91-9.64c2.48.5,12.76-14.79,20.92-20.93,17.47-13.15,46.65-13.62,46.65-13.62l-23.96-30.23-3.33-21.72Z"/>
    <path class="cls-20" d="M367.49,573.02c-17.16-12.78-29.32-12.67-29.32-12.67,11.97,12.52,14.17,19,14.17,19-11.37,9.43-56.23,5.57-67.94-14.8l-7.95,6.45c-1.6,1.03-3.1,2.1-4.53,3.21-24.54,19.15-23.41,49.47-22.56,60.93.58,7.78.62,33.53,4.55,54.53,7.1-1.11,14.41-.96,21.54-.46,9.13.65,18.19,1.97,27.3,2.88,4.38.44,8.78.78,13.18.87,4.45.09,8.82-.27,13.25-.72,9.6-.99,19.2-1.99,28.71-3.65,5-.87,10.01-1.92,14.91-3.31.38-7.08.62-14.91,1.22-23.55l.99-20.45c4.82-.06,8.93-3.55,12.68-6.32,20.48-15.15,12.63-24.73,12.63-24.73,0,0-29.29-34.58-32.84-37.22Z"/>
    <path class="cls-20" d="M374.16,753.4c8.39,2.18,20.32,14.5,28.71,16.67,12.56,3.26,29.05,11.46,38.18,20.68.71.72,1.43,1.8.89,2.65-.4.62-1.23.71-1.95.87-4.96,1.13-6.79,7.5-11.26,9.93-4.06,2.21-9.42.69-13.42,3.01-3.74,2.16-5.07,6.92-8.14,9.96-3,2.97-7.41,4.04-11.63,4.2-4.22.15.58.74-3.64.87-1.95.06-5.21,4.41-6.32,6.02-1.32,1.9-1.58,2.98-1.82,5.28-.31,3.06.28,9.15-2.39,10.68s-5.69,2.3-8.56,3.41c-1.24.48-2.55,1.1-3.16,2.28-.42.8-.45,1.74-.47,2.64-.06,2.3.81,1.08.75,3.38-17.75-.37-54.37-.49-72.12-.87,0,0,5.56-31.73,24.62-54.52,19.05-22.79,51.72-47.15,51.72-47.15Z"/>
    <path class="cls-14" d="M374.81,645.75c.32-4.16.51-7.98.59-11.65.44-19.35-4.71-38.39-14.6-55.02-5.11-8.6-10.34-16.28-12.9-16.71-2.21-.11,17.17.92,36.13,26.67,17.6,23.9,21.65,24.22,21.65,24.22,0,0-7.59,19.93-23.53,28.04l-7.34,4.46Z"/>
    <path class="cls-20" d="M252.83,684.14s1.44,13.77.53,17.6c0,0,36.57,7.52,61.97,5.54,25.4-1.98,57.73-9.99,57.73-9.99l-.04-16.36s-29.15,7.77-61.97,8.85c-32.83,1.09-58.22-5.64-58.22-5.64Z"/>
    <rect class="cls-30" x="253.92" y="860.12" width="49.45" height="35.75"/>
    <polygon class="cls-7" points="303.37 895.87 316.02 889.09 316.02 853.34 303.37 860.12 303.37 895.87"/>
    <rect class="cls-16" x="290.93" y="901.81" width="49.45" height="35.75"/>
    <polygon class="cls-34" points="340.38 937.56 353.03 930.77 353.03 895.02 340.38 901.81 340.38 937.56"/>
    <polygon class="cls-51" points="290.93 901.81 303.58 895.02 353.03 895.02 340.38 901.81 290.93 901.81"/>
    <rect class="cls-17" x="364" y="896.93" width="49.45" height="35.75"/>
    <polygon class="cls-48" points="413.45 932.68 426.1 925.9 426.1 890.15 413.45 896.93 413.45 932.68"/>
    <polygon class="cls-12" points="364 896.93 376.65 890.15 426.1 890.15 413.45 896.93 364 896.93"/>
    <polygon class="cls-19" points="253.55 860.03 266.2 853.25 315.65 853.25 303 860.03 253.55 860.03"/>
    <rect class="cls-30" x="492.61" y="868.46" width="49.45" height="35.75"/>
    <polygon class="cls-7" points="542.06 904.21 554.71 897.42 554.71 861.67 542.06 868.46 542.06 904.21"/>
    <polygon class="cls-19" points="492.23 868.37 504.88 861.58 554.34 861.58 541.68 868.37 492.23 868.37"/>
    <path class="cls-21" d="M601.22,593.29l-20.09,3.75s-20.73,19.25-33.08,23.74c-9.05,2.91-18.47,4.54-27.97,4.86l-27.92,10.71s-9.32,11.41-13.1,8.76c-3.78-2.65-1.42-7.84.88-12.88,2.3-5.04,55.7-60.27,55.7-60.27-7.96-.02-15.9.65-23.75,1.98-12.04,2.14-19.04-3.42-15.6-9.14,2.13-3.53,18.49-10.5,24.99-7.67,6.5,2.82,19.18-7.53,31.62-8,12.44-.46,25.45,10.43,25.45,10.43,6.62.59,16.04-.57,16.04-.57,7.46,9.42,6.83,34.29,6.83,34.29Z"/>
    <path class="cls-50" d="M501.08,600.78c.46.05.04-.13-.06-.35-.24-.52-.46-.94-.58-1.51-.21-1-.18-2.03.06-3.02.35-1.43,1.16-2.76,2.05-3.91,2.14-2.8,5.16-4.95,8.27-6.56,3.4-1.77,7.17-2.91,10.91-3.7s8-1.44,11.93-1.06c.76.07,1.86-1.01.66-1.12-2.45-.24-4.79,0-7.23.29-2.2.27-4.37.58-6.53,1.07-4.31.98-8.59,2.46-12.4,4.73-3.2,1.91-6.32,4.42-8.25,7.66-.92,1.54-1.51,3.24-1.39,5.05.07,1.09.47,3.4,1.89,3.56.76.08,1.86-.99.66-1.12h0Z"/>
    <path class="cls-50" d="M520.4,578.27c.1.23-.17.26.06.08.18-.14.32-.36.48-.52.51-.51,1.07-.98,1.62-1.45,1.76-1.48,3.6-2.88,5.46-4.24s3.8-2.71,5.76-3.96c.69-.44,1.39-.87,2.12-1.26.24-.13.48-.24.73-.36.13-.06.05,0,.08-.03.03-.01.07-.02.11-.03-.26.07-.51,0-.74-.21.58.58,2.26-.16,1.63-.79-.92-.92-2.71.39-3.54.88-2.29,1.35-4.48,2.87-6.63,4.42s-4.48,3.29-6.58,5.1c-.47.41-2.71,1.97-2.32,2.83.36.8,2.12.29,1.78-.48h0Z"/>
    <path class="cls-50" d="M543.14,568.42h-.02c.23-.07.47-.15.7-.24.7-.09.47.25.27-.16-.11-.22-.29-.42-.42-.63-.39-.66-.7-1.36-.96-2.08-.81-2.22-1.17-4.6-1.08-6.96.09-2.28.61-4.56,1.56-6.64.32-.71.69-1.41,1.14-2.06.16-.23.33-.46.52-.66.06-.07.18-.15.22-.23l-.04.04c.36-.25,0-.24-1.06.03.63.46,2.28-.43,1.44-1.04-1.31-.95-2.77,1.51-3.25,2.33-1.45,2.46-2.25,5.36-2.39,8.21-.15,2.93.33,5.96,1.56,8.64.53,1.15,1.43,3.23,3.03,2.24.34-.21.45-.66.11-.92-.37-.29-.98-.09-1.33.12h0Z"/>
    <path class="cls-50" d="M576.04,558.99c3.86,5.34,6.48,12.83,2.33,18.79-.36.52,1.08.39,1.34.01,4.29-6.16,1.68-13.82-2.33-19.36-.27-.38-1.68.1-1.35.56h0Z"/>
    <path class="cls-50" d="M429.36,640.39c-4.05,3.43-6.55,8.48-6.7,13.79-.02.74,1.45.52,1.47-.12.14-4.98,2.38-9.81,6.19-13.03.75-.63-.41-1.1-.96-.64h0Z"/>
    <path class="cls-21" d="M356.35,686.49s-29.65-47.73-42.47-69.88l-37.72,20.61.73,5.41c15.06,24.11,37.99,74.04,63.09,83.39,31.04,11.57,107.06-35.78,107.06-35.78l-4.34-20.29-86.36,16.54Z"/>
    <path class="cls-2" d="M541.53,593.1c.1.1-.55.62-1.02,1.77-.62,1.53-.36,3.28.69,4.56l.08.25-.09.25c-.23.65-.47,1.3-.67,1.98-.83,1.98-.7,4.24.37,6.11.55.69,1.23,1.27,2,1.71"/>
    <path class="cls-2" d="M536.1,606.87c-.25.08.03-1.53.72-3.4.69-1.87,2.41-2.12,2.59-1.9"/>
    <path class="cls-2" d="M532.6,609.1c-2.31-1.71-4.13-4-5.28-6.64-1.41-2.5-2.12-5.33-2.08-8.19"/>
    <path class="cls-50" d="M356.13,685.07c-4.54,4.05-5.65,11.18-2.35,16.34.34.54,1.73,0,1.33-.63-2.96-4.64-2.16-11.38,1.98-15.07.73-.65-.42-1.11-.95-.64h0Z"/>
    <path class="cls-14" d="M282.56,674.25s41.55-18.89,53.67-30.64h0c.27-3.51-6.61-14.76-7.87-18.02-3.25-8.36-8.48-17.61-13.22-25.13-3.82-6.07-5.77-11.05-11.47-15.1-5.7-4.05-12.71-4.97-19.5-4.18-24.21,2.8-27.05,31.83-27.05,31.83.33,16.67,11.34,44.17,21.76,56.67"/>
    <path class="cls-11" d="M556.48,717.39c-1.51-4.01-2.79-9.02-6.69-16.93-9.09-18.4-21.34-41.41-21.34-41.41l-17.25,6.8s2.31,24.96,7.57,43.36c1.88,6.59,4.15,12.35,6.82,15.81,10.14,13.12,35.91,5.72,30.88-7.64Z"/>
    <path class="cls-11" d="M594.11,702.13c-.76-4.31-3.49-9.86-7.09-15.69-10.06-16.29-26.95-34.8-26.95-34.8l-16.64,8.17s8.76,24.55,16.24,43.66c3.21,8.21,4.29,9.23,6.24,13.05,6.48,12.72,31.08,1.94,28.21-14.39Z"/>
    <path class="cls-11" d="M523.18,598.34c.59,1.36,1.5,2.54,2.66,3.46,7.29,5.75,31.25,41.13,33.59,42.42,6.26,3.45,19.89-15.05,12.04-23.54-4.57-4.94-20.84-27.6-36.59-34.21-7.47-3.14-14.94,4.45-11.7,11.87h0Z"/>
    <path class="cls-27" d="M483.27,678.9c-11.07-5.36-11.85-13.09-10.49-20.32,1.36-7.23,18.37-76.73,18.37-76.73l31.63-9s25.28,37.24,30.49,42.7c5.21,5.46,29.16,26.28,28.7,28.01-.46,1.73-16.14,27.58-52.56,35.13-36.42,7.54-42.83,1.81-46.14.21Z"/>
    <g class="cls-24">
      <circle class="cls-39" cx="478.65" cy="617.47" r="12.52"/>
      <circle class="cls-39" cx="499.95" cy="648.25" r="12.52"/>
      <circle class="cls-39" cx="517.47" cy="609.43" r="12.52"/>
      <circle class="cls-39" cx="491.65" cy="580.01" r="12.52"/>
      <circle class="cls-39" cx="522.73" cy="573.14" r="12.52"/>
      <circle class="cls-39" cx="552.72" cy="607.19" r="12.52"/>
      <circle class="cls-39" cx="576.3" cy="646.95" r="12.52"/>
      <circle class="cls-39" cx="478.8" cy="679.92" r="12.52"/>
      <circle class="cls-39" cx="536.71" cy="640.64" r="12.52"/>
      <circle class="cls-39" cx="519.8" cy="677.37" r="12.52"/>
      <circle class="cls-39" cx="556.93" cy="676.53" r="12.52"/>
    </g>
    <path class="cls-45" d="M462.76,553.5c-4.23.88-8.78-.29-12.86,1.11-3.83,1.31-6.64,4.74-8.11,8.5-1.47,3.77-1.76,7.88-1.9,11.92-.15,4.63-.09,9.43,1.78,13.67,3.55,8.06,12.62,12.12,21.21,14.06,3.05.69,6.31,1.28,8.66,3.36-2.52-4.61-4.09-9.74-4.58-14.98,2.76,2.66,5.96,4.87,9.41,6.52-.06-9.55-.12-19.15-1.66-28.57-.42-2.58-.99-5.23-2.46-7.39-1.1-1.62-2.65-2.88-4.17-4.12-2.1-1.7-4.19-3.4-6.29-5.1"/>
    <path class="cls-45" d="M525.64,540.47c4.23-.87,7.94-3.75,12.25-4.1,4.03-.32,7.97,1.71,10.82,4.59s4.75,6.53,6.48,10.19c1.98,4.19,3.83,8.62,3.8,13.25-.05,8.81-6.76,16.14-13.88,21.33-2.53,1.85-5.28,3.68-6.62,6.52.48-5.23-.12-10.57-1.75-15.56-1.48,3.54-3.53,6.83-6.05,9.72-3.74-8.79-7.5-17.62-9.82-26.88-.64-2.54-1.17-5.19-.68-7.76.37-1.93,1.28-3.7,2.19-5.44,1.25-2.39,2.5-4.79,3.74-7.18"/>
    <path class="cls-42" d="M467.86,557.78s-6.28,9.17-12.18.82c-5.9-8.36,6.39-11.15,6.39-11.15l5.8,10.33Z"/>
    <path class="cls-42" d="M527.76,545.52s9.65,5.52,11.32-4.57c1.67-10.09-10.6-7.25-10.6-7.25l-.72,11.82Z"/>
    <path class="cls-11" d="M503.06,519.65c-9.79,9.73-30.08,23.9-41.67,31.08,1.31,18.07,12.78,37.8,43.89,33.44,31-4.36,35.7-29.43,28.27-49.66-13.3-.8-17.82-9.94-30.49-14.86Z"/>
    <path class="cls-45" d="M518.8,513.47c-2.73-2.1-6.43-3.72-10.64-4.66-10.04-2.24-23.04-.59-33.11,7.78-4.23,3.52-7.95,8.21-10.71,14.31-2.3,5.08-3.5,12.31-2.96,19.82,12.95,3.43,32.69-16.61,42.48-26.34,12.67,4.92,16.37,9.32,29.68,10.12-3.12-8.5-8.39-16.15-14.75-21.04Z"/>
    <path class="cls-6" d="M464.16,540.14c8.35-6.16,16.49-12.69,23.67-20.2.11-.12.31.05.2.18-5.16,5.87-11.16,10.97-17.36,15.7-2.07,1.58-4.18,3.1-6.35,4.54-.13.09-.29-.12-.15-.22h0Z"/>
    <path class="cls-6" d="M497.68,517.91c9.31,5.34,19.14,10.17,29.75,12.19.16.02.13.29-.04.26-8.05-1.21-15.68-4.37-22.83-8.16-2.39-1.26-4.73-2.62-7.01-4.07-.14-.08-.01-.32.14-.23h0Z"/>
    <path class="cls-6" d="M473.09,525.75c4.89-6.48,6.04-5.5.21.17-.11.11-.3-.04-.21-.17h0Z"/>
    <path class="cls-6" d="M502.95,513.75c2.1,1.05,4.14,2.15,6.19,3.3.06.04.08.12.05.18-.03.06-.1.08-.16.06-1.12-.38-2.18-.89-3.23-1.43-.29-.19-3.79-2.04-2.85-2.11h0Z"/>
    <ellipse cx="517.48" cy="547.44" rx="3.61" ry="4.04" transform="translate(-146.62 191.85) rotate(-18.45)"/>
    <path d="M487.47,554.09c.71,2.12,2.81,3.32,4.7,2.69,1.89-.63,2.85-2.86,2.14-4.97-.71-2.12-2.81-3.32-4.7-2.69-1.89.63-2.85,2.86-2.14,4.97Z"/>
    <path class="cls-36" d="M478.01,564.29c.71,2.12,2.81,3.32,4.7,2.69,1.89-.63,2.85-2.86,2.14-4.97-.71-2.12-2.81-3.32-4.7-2.69-1.89.63-2.85,2.86-2.14,4.97Z"/>
    <path class="cls-36" d="M524.05,555.33c.71,2.12,2.81,3.32,4.7,2.69,1.89-.63,2.85-2.86,2.14-4.97-.71-2.12-2.81-3.32-4.7-2.69-1.89.63-2.85,2.86-2.14,4.97Z"/>
    <path class="cls-3" d="M491.62,566.61c.05.09,6.09,5.61,18.7,2.52,10.65-2.62,10.91-10.1,10.91-10.1"/>
    <path class="cls-11" d="M493.64,599.28c.41,1.42.47,2.91.16,4.36-1.93,9.09,2.26,51.61,1.28,54.09-2.61,6.66-28.84,4.65-28.23-6.9.36-6.72,4.35-33.38,12.24-48.54,3.74-7.19,12.29-10.8,14.55-3.02h0Z"/>
    <path class="cls-21" d="M466.07,650.35c-3.93.97-9.03,3.45-12.54,5.31-4.21,2.56-13.34,13.53-13.34,13.53l-14.35,4.65,3.68,22.68,15.23-4.05,15.64,2.47s29.02-1.44,32.23-3.94c3.21-2.5,6.12-10.71,6.12-10.71,4.79-2.59,4.38-9.78,4.38-9.78,6.31-6.72.14-7.52.14-7.52.27-.18.49-.43.61-.72,1.39-3.12-3.01-6-5.81-4.06-4.72,3.22-11.13,7.44-12.14,7.31-1.01-.13-7.85,0-13.83.12-3.04.2-5.76-1.93-6.07-4.76-.03-.26-.28-2.27.34-2.68"/>
    <path class="cls-50" d="M479.73,675.54c4.96.39,10.17-.21,14.51-2.78,1.9-1.13,3.64-2.5,5.15-4.12,1.64-1.75,3.21-3.66,4.24-5.84.35-.73-1.11-.72-1.38-.15-.92,1.94-2.28,3.59-3.7,5.18s-2.91,2.83-4.63,3.91c-4.06,2.55-8.97,3.14-13.68,2.77-.69-.05-1.49.96-.51,1.03h0Z"/>
    <path class="cls-50" d="M480.18,681.9c2.93.13,5.9.28,8.78-.35s5.28-2.15,7.52-4.03c1.09-.92,2.15-1.89,3.22-2.84,1.48-1.31,2.97-2.53,4.15-4.14.42-.57-1.05-.52-1.37-.09-1.71,2.33-4.26,4.17-6.42,6.08-1.99,1.77-4.14,3.37-6.75,4.05-2.8.72-5.73.53-8.59.4-.62-.03-1.52.88-.54.92h0Z"/>
    <path class="cls-50" d="M481.62,688.35c1.86-.06,3.71-.19,5.56-.36s4-.19,5.75-1.12,3.28-2.26,4.57-3.68c.64-.71,1.26-1.47,1.7-2.32.1-.2.43-.71.22-.92-.24-.25-1.55.29-1.37.48.11.12-.37.89-.42.97-.36.62-.8,1.2-1.27,1.74-1.16,1.34-2.56,2.5-4.05,3.45s-3.68.81-5.38.95c-1.45.12-2.9.22-4.36.26-.31,0-.78.06-1.02.27-.17.14-.26.29.07.28h0Z"/>
    <path class="cls-50" d="M466.33,649.7c-3.99,1.02-7.78,2.82-11.43,4.69-2.38,1.22-4.27,2.88-6.17,4.76-3.12,3.08-6.05,6.38-8.86,9.75l.57-.36c-2.49.81-4.98,1.61-7.47,2.42-.51.16-1.02.31-1.52.49-.11.04-.22.07-.33.11s.3-.06.09-.01c-.59.14-1.21.23-1.81.35-6.01,1.15-12.01,2.3-18.02,3.45-1.85.35-3.69.71-5.54,1.06-.7.13-1.18,1.03-.19.84,7.9-1.51,15.79-3.02,23.69-4.54,3.05-.58,5.95-1.67,8.91-2.63,1.16-.38,2.47-.55,3.28-1.51,1.53-1.81,3.09-3.58,4.68-5.32,2.28-2.48,4.61-5.1,7.34-7.1,1.66-1.22,3.71-2.05,5.57-2.91,2.39-1.1,4.84-2.13,7.4-2.78.88-.22.67-.99-.21-.77h0Z"/>
    <path class="cls-14" d="M271.92,574.22s11.04-2.88,21.55,1.2,22.22,8.62,29.01,19.48c6.79,10.86,26.63,4.07,30.2,1.7,3.56-2.38,4.75-4.41,1.87-12.38s-13.81-23.62-13.81-23.62l-2.56-.24s9.28,11.45,2.56,18.37c-6.72,6.93-19.52,5.06-26.69.82-7.17-4.24-29.64-14.99-29.64-14.99l-12.47,9.66Z"/>
    <path class="cls-25" d="M822.3,286.06s-43.16,25.84-60.7,53.1c-13.85,21.52-9.31,74.46-8.76,96.11,1.7,67.06-5.23,131.56-9.16,122.89l63.75,8.32,28.09-105.89,9.34-155.43-22.56-19.11Z"/>
    <path class="cls-25" d="M811.22,500.11c2.14,1.63,4.94,2.64,16.91,51.62,2.17,8.87,12.73,42.56,12.77,51.43,8.2.66,11.4,2.03,19.63,1.48,35.97-2.38,70.27-15.5,102.01-31.95,27.15-14.07,52.76-30.82,78.15-47.82l5.85-8.94-20.82-129.87-68.64-121.05-39.68-4.14-20.13,6.38.74,5.39c-7.29,15.19-6.35,13.12-23.26,17.48-4.95,1.27-10.24,2.28-15.7,2.92-15.23,1.78-22.1,9.71-31.66-.17-.36-.37-5.36.46-7.27,1.71-12.97,8.45-25.63,25.16-31.35,30.12,0,0-14.48,17.91-5.83,60.46"/>
    <path class="cls-21" d="M878.1,190.67s2.9,42.74,21.72,66.53c2.62,3.32,17.57,3.67,17.57,3.67l-3.31,5.05c-2.97,10.03-12.4,20.21-20.53,26.79-11.12,8.99-17.61,11.62-31.8,14.42-5.75,1.13-20.7,3.5-26.27,3.98-9.55.83-18.54-12.68-17.85-21.66l3.39-2.87h0c-.47-4.96-14.88-36.59-14.88-36.59"/>
    <path class="cls-50" d="M819,280.84s7.45-5.48,12.64-8.59c5.2-3.11,14.92-5.39,34.75-34.93,0,0-.1,29.72-31.6,44.64,0,0-8.07,4.11-14.06,4.28l-1.73-5.39Z"/>
    <path class="cls-21" d="M744.08,119.75c-.03.22-.09.46-.17.69.09-.13.19-.26.28-.38l-.11-.3ZM730.82,128.44l.09.25c.17-.27.32-.54.46-.8-.11-.3-.55.55-.55.55ZM878.7,202.78l-.06-5.67c9.77,6.95,18.61-3.96,14.97-17.22,1.41-7.69-.92-30.96-8.49-35.93l-.97-.77c-4.74-1.68-11.88-.76-13.06,5.17-.21,2.48,1.46,4.96,1.25,7.44-.09,2.78-2.04,8.66-2.9,11.38,0,0-6.23-11.78-8.03-17.65-1.8-5.86-11.9-21.03-25.12-25.41,0,0-7.16-20.37-14.01-24.71h-1.87c-.99.37-1.53.92-2.52,1.28-.11-.3.11-.72-.12-1.33-1.42,1.21-2.85,1.4-4.17,1.88.22-.42.77-.97.65-1.27-1.2.79-2.63.97-3.95,1.46.22-.42.65-1.27.54-1.57-1.42,1.21-2.63.97-3.95,1.46.22-.43.32-1.15.21-1.45-1.09,1.09-2.52,1.28-3.84,1.76.22-.42.33-1.15.54-1.57-1.42,1.21-2.63.97-3.95,1.46-.33.12.43-.85.32-1.15-.88.67-2.19,1.16-3.18,1.52-.11-.3.44-.85.33-1.15-1.75,1.34-2.96,1.1-4.28,1.58l.54-1.57c-.98,1.39-2.3,1.88-3.72,2.06.21-.42.65-1.27.54-1.57-1.31,1.52-3.17,2.55-5.05,2.55.33-.12.65-1.27.54-1.57-1.2,1.82-2.63,2-4.27,2.61.22-.42.32-1.15.76-2-1.53,1.94-3.61,3.4-5.92,3.22.33-.12.32-1.15.21-1.45-.87,1.7,1.04-.73-.72-.42,0,0-3.34,2.61-3.45,2.31-.98,1.39,1.58-6.41-.07-5.8.1-.73-9.24,4.06-8.81,3.21-1.2,1.82-1.1,1.07-3.18,1.5,0,0-5.5,6.15-5.29,5.72-1.09,2.12-2.3,1.13-4.39,1.55.22-.42,1.66.83,1.87.4-.87,1.7-1,.03-2.64.63-.11-.3-6.11.03-6.22-.28-1.31,1.52-.72,1.45-2.7,2.18-.11-.3,0,3.79.21,3.36-.87,1.7-1.18.68-2.94.99l-1.22,1.73c-1.09,2.12.93.63-1.16,1.05-.08-.21,7.78-1.8,7.94-2.31-.95,1.28-2.15,2.61-3.55,3.44-.11-.3,0-1.03-.12-1.33-.87,1.7-2.51,3.33-4.6,3.76.33-.12.44-.85.32-1.15-1.09,2.12-2.73,3.76-5.04,3.58l-.02-.05c-.9,1.48-2.23,3-3.81,3.87-.34-.91.21-1.45.21-1.45l-1.32.49c-.75,3.03-1.61,5.75-1.16,9.02,0,0-5.12,21.58-.65,32.64,4.47,11.06,13.55,29.38,15.66,34.09,1.84,4.08,3.9,10.82,5,15.36,2.46,10.17,3.37,12.76,9.41,21.66,5.84,8.6,10.07,12.79,18.48,18.96,8.76,6.43,19.52,10.85,29.81,15.29,6.77,2.92,8.73,6.72,22.68,1.83,20.55-7.2,35.89-27.9,44.06-45.85"/>
    <path class="cls-41" d="M726.79,153.12c1.48-20.56,18.34-37.88,58.11-58.35,39.76-20.47,77.94-17.27,77.94-17.27-41.41-52.48-101.19-28.16-114.67-23.17-13.49,4.99-63.68,83.28-22.63,124.31l2.85,4.26s-1.85-26.04-1.58-29.77Z"/>
    <path class="cls-41" d="M868.95,61.16s-8.82-39.21-40.74-41.67c-42.64-3.29-95.08,7.7-98.71,52.67l139.44-11Z"/>
    <path class="cls-35" d="M898.71,153.21c1.89-4.16-2.11-12.5-.78-16.87,6.94-22.9-3.85-38.82-12.88-47.31-3.93-3.7-3.69-12.82-5.38-16.71-8.83-20.4-11.45-20.16-50.31-30.09-31.62-8.08-58.65,2.8-74.15,9.49-24.82,10.71-35.39,16.42-37.61,37.65-.29,2.77,1.65,4.2,1.73,7.38.11,4.49-5.99,7.24-5.16,12.68,0,0,37.32,1.06,70.75,5.82,33.43,4.76,104.47,44.76,108.91,62.97.14.57,2.79-20.4,4.88-24.99Z"/>
    <path class="cls-41" d="M897.95,108.61s-69.56-41.28-121.99-22.48c0,0,63.64-33.44,111.13,3.85l1.42,1.67c3.73,4.39,6.66,9.4,8.65,14.81l.79,2.15Z"/>
    <path class="cls-41" d="M718.88,97.68l3.05-2.63c7.1-6.12,15.04-11.18,23.59-15.02l14.32-6.44s-37.78,6.9-42.36,18.8l1.39,5.28Z"/>
    <path class="cls-23" d="M883.38,191.93c3.29-.81,6.6,1.49,7.41,4.69.4,1.56.22,3.47-.67,4.86-.39.61-.93,1.05-1.5,1.48-1.38,1.03-2.9,1.24-4.56.83-.47-.12-1.18.09-1.54.41s-.25.58.18.68c3.32.83,7.29-.5,9.34-3.31,2.21-3.02,1.05-7.56-1.91-9.58-2.08-1.42-4.61-1.62-7.01-1.03-.28.07-1.07.36-.96.77s.96.26,1.22.19h0Z"/>
    <path class="cls-4" d="M855.63,144.86l12.62,28.75,5.54-16.8s-12.95-8.59-18.16-11.95Z"/>
    <path class="cls-41" d="M868.56,124.86s25.63,12.31,29.86,19.37l-.49-7.9s-10.65-11.67-29.37-11.47Z"/>
    <g>
      <path class="cls-6" d="M789.29,224.71c2.87.51,6.54-.98,8.55-3.3.44-.51,2.39-.77,1.76-.04-2.65,3.06-7.99,4.95-11.7,4.3-.37-.07-.39-.33-.03-.58.37-.27,1.03-.45,1.42-.38"/>
      <path class="cls-6" d="M800.45,220.32c1.41-1.3,3.14-2.3,4.95-3.03.27-.1.65-.12.9,0,.2.09.29.27.12.45-.7.76-1.73,1.31-2.74,1.61-.32.09-.76.15-1.02-.07-.24-.2,0-.46.26-.53.83-.25,1.63-.68,2.21-1.3.35.15.69.3,1.03.44-1.62.65-3.16,1.56-4.42,2.73-.25.23-.7.28-1.02.2-.23-.05-.53-.26-.28-.49"/>
      <path class="cls-6" d="M807.89,218.22c2.16-.74,4.41-2.49,4.97-4.45.84-2.96-1.89-6.38-5.1-7.09-.35-.08-.26-.35.02-.51.36-.21.87-.21,1.23-.13,2.79.62,5.33,3.33,5.71,5.75.35,2.26-1.26,4.42-3.66,5.86-.71.43-1.5.81-2.3,1.09-.33.11-.95.2-1.19,0-.25-.21.02-.42.33-.52"/>
      <path class="cls-6" d="M784.97,224.87c.04-.29-.23-.38-.4-.32-.58.2-1.23.23-1.86-.02-.12.29-.23.59-.35.88,1.21-.24,2.51-.23,3.78.13.25.07.52-.11.66-.33.1-.16.17-.48-.09-.55"/>
      <path class="cls-6" d="M786.71,224.66c-1.42-.41-2.87-.4-4.23-.13-.2.04-.42.22-.5.44-.07.17-.03.37.15.44"/>
      <path class="cls-6" d="M780.55,226.58c-1.43.39-3.39-.02-4.6-1.43-1.82-2.12-1.77-5.35-.5-7.47.14-.23-.03-.42-.25-.42-.28,0-.53.24-.68.48-1.1,1.85-1.4,4.39-.44,6.62.9,2.08,2.72,3.16,4.61,3.25.56.03,1.14-.02,1.67-.16.22-.06.57-.28.59-.57.02-.29-.21-.34-.41-.29"/>
    </g>
    <path class="cls-4" d="M748.23,194.31c-2.18-.27-4.25,1.37-5.05,2.87-.19.35-.45,1.31-.35,2.64.12,1.7,1.37,3.22,2.73,3.92,1.81.94,4.04.39,5.41-.99,1.85-1.87,1.58-4.82.3-6.57-.24-.32-1.27-1.65-3.03-1.87"/>
    <path class="cls-4" d="M769.28,193.57s-11.49-3.71-16.21-2.48c-6.88,1.8-13.7,8.5-14.84,12.67,0,0,8.79-9.51,13.68-10.63,4.67-1.07,17.36.45,17.36.45Z"/>
    <path class="cls-4" d="M808.08,172.69c1.48-1.62,4.51-2.45,6.1-1.83.37.14,1.39.58,2.19,1.65,1.02,1.37,1.05,3.34.48,4.75-.76,1.89-2.82,2.93-4.75,2.77-2.62-.22-4.34-2.63-4.51-4.79-.03-.4-.65-.95.54-2.26"/>
    <path class="cls-4" d="M799.74,181.33s7.69-10.11,12.58-12.08c7.14-2.88,17.31-1.84,20.92.74,0,0-13.65-2.02-18.63.14-4.75,2.07-14.87,11.2-14.87,11.2Z"/>
    <path class="cls-4" d="M758.85,171.22c.49,1.35.99,2.7,1.48,4.05.37,1.03.75,2.06,1.12,3.09-3.61.35-6.64.82-8.91,1.23-4.79.87-7.23,1.34-9.68,2.76-2.57,1.49-4.5,3.42-5.25,4.18-1.05,1.06-1.77,1.75-2.51,2.9-1.6,2.49-1.81,4.71-2.23,4.68-.39-.03-.45-1.88-.46-2.08-.15-4.68,2.03-8.29,2.19-8.57,0,0,1.62-2.77,5-5.15,2.33-1.64,9.3-4.78,19.25-7.09"/>
    <path class="cls-4" d="M791.34,159.76c.63,1.29,1.27,2.57,1.91,3.87.49.98.98,1.96,1.47,2.94,3.44-2.71,6.48-4.85,8.79-6.42,4.89-3.32,7.41-4.99,10.68-6.05,3.43-1.11,6.66-1.41,7.91-1.52,1.77-.15,2.94-.28,4.49-.13,3.37.34,5.31,1.63,5.66,1.26.32-.33-1.09-1.61-1.24-1.74-3.57-3.2-8.35-3.8-8.71-3.86,0,0-3.62-.51-8.47.67-3.34.81-11.94,4.41-22.5,10.97"/>
    <path class="cls-25" d="M816.45,527.75s22.07,100.56,23.24,131.47c0,0,92.09,9.4,175.7-22.53,83.61-31.93,85.72-41.32,85.72-41.32l-46.48-77.69-21-33.78-189.84,58.46"/>
    <path class="cls-10" d="M802.92,236.97c9.23-3.61,23.73-10.64,23.73-10.64,0,0,6.4,25.02-15.01,33.38-21.41,8.36-32.33-15.16-32.33-15.16,0,0,14.37-3.97,23.61-7.58Z"/>
    <path class="cls-22" d="M802.28,237.2c4.36-1.7,21.6-9.37,21.6-9.37,0,0-.11,17.86-15.86,24.01-17.08,6.67-25.38-7.65-25.38-7.65l19.64-6.99Z"/>
    <path class="cls-15" d="M802.26,238.06c4.51-1.76,17.91-7.93,17.91-7.93,0,0-2.88,7.2-16.41,12.48-13.52,5.28-19.82,1.84-19.82,1.84l18.31-6.39Z"/>
    <path class="cls-10" d="M777.99,244.39c.43-.31.81-.14,2.97-1.22,3.6-1.8,5.52-3.76,8.14-5.04,4.47-2.18,8.16-1.38,10.17-2.17,2.01-.78,4.18-3.87,8.94-5.3,2.79-.83,9.89-2.4,13.76-3.51,2.32-.67,4.58-2.62,5.11-2.68.73-.09,1.48,5.64-23.75,15.49-25.23,9.85-25.94,4.87-25.34,4.43Z"/>
    <path class="cls-25" d="M1006.65,514c9.18,2.81,18.18,6.16,27.22,9.38,1.81-6.08,5.24-.1,6.41-5.86,4.97-24.52-2.4-160.79-7.96-200.73-9.68-44.92-83.22-52.72-83.22-52.72v108.9l7.54,122.12c15.13,6.81,34.15,14.05,50.01,18.91Z"/>
    <path class="cls-28" d="M979.38,291.19c-9.36.34-17.02,7.31-22.39,14.4-3.96,5.23-7.23,11.07-8.8,17.47-1.29,5.26-1.88,10.7-2.29,16.09-.51,6.9-.65,13.83-.64,20.75.04,16.82.99,33.63,2.16,50.4,1.22,17.38,2.75,34.74,4.29,52.1,1.24,13.99,2.58,27.98,3.43,42,.08,1.29.15,2.57.22,3.86.02.45,1.48.16,1.45-.39-.66-13.05-1.89-26.07-3.05-39.09-1.49-16.8-3.01-33.6-4.28-50.42-1.27-16.84-2.34-33.7-2.68-50.59-.26-13.14-.36-26.56,1.76-39.57.78-4.77,1.97-9.36,4.17-13.68s4.81-8.19,7.91-11.77c3.19-3.68,7.01-7.1,11.49-9.12,2.11-.95,4.35-1.55,6.68-1.64.52-.02,1.54-.84.57-.8h0Z"/>
    <path class="cls-28" d="M956.17,508.4c6.68-1.37,13.79-.28,20.22,1.74,6.78,2.13,13.29,5.43,18.83,9.91,2.81,2.27,5.36,4.87,7.4,7.85.25.37,1.66-.1,1.35-.55-3.96-5.79-9.78-10.16-15.9-13.45-6.51-3.5-13.76-5.93-21.14-6.65-3.66-.35-7.34-.25-10.94.49-.88.18-.69.84.18.66h0Z"/>
    <path class="cls-25" d="M768.68,579.11c-1.88-15.43,5.48-36.14,5.33-51.66l-188.73,29.35,3.16,59.38c112.14.71,146.5-5.38,181.48-8.5-.73-10.14-.02-18.48-1.25-28.57Z"/>
    <path class="cls-28" d="M752.18,542.58c9.73.17,19.08,5.05,24.9,12.83.4.53,1.78-.04,1.33-.64-6.12-8.18-15.9-13.08-26.1-13.26-.83-.01-1.1,1.06-.12,1.08h0Z"/>
    <path class="cls-25" d="M832.09,508.87s8.8,94.3-67.83,99.38c-50.83,3.37-27.27-73.95-27.27-73.95l95.1-25.43Z"/>
    <path class="cls-28" d="M749.76,530.39c5.36.03,10.17,3.72,13.47,7.64,3.16,3.74,5.94,8.71,5.78,13.75-.02.74,1.45.52,1.47-.12.17-5.42-2.83-10.76-6.31-14.72-3.62-4.12-8.61-7.55-14.27-7.58-.82,0-1.12,1.03-.14,1.03h0Z"/>
    <path class="cls-28" d="M771.88,385.16c2.87,3.59,4.84,8.09,6.2,12.44,1.1,3.51,1.68,6.83,1.61,10.46-.14,7.38-.77,14.74-1.03,22.12-.35,9.89-.33,19.83.67,29.69s2.78,19.21,7.06,27.82c3.78,7.59,9.79,13.94,18.03,16.53,1.04.33,2.09.58,3.16.8l-.47-.32c1.52,5.87,3.07,11.73,4.62,17.59,2.71,10.24,5.43,20.47,8.3,30.67,1.01,3.61,1.98,7.25,3.22,10.78.22.64,1.67.24,1.45-.39-2.71-7.77-4.65-15.87-6.8-23.81-2.61-9.63-5.16-19.27-7.68-28.92-.55-2.1-1.1-4.2-1.65-6.31-.06-.22-.28-.28-.47-.32-8.58-1.76-15.16-7.49-19.36-15.02-4.6-8.25-6.58-17.84-7.69-27.13-1.18-9.9-1.27-19.9-.97-29.85.23-7.59.81-15.17,1.06-22.76.07-2.33.11-4.64-.33-6.95-1.13-5.99-3.49-11.94-7-16.95-.19-.27-.39-.55-.6-.81-.4-.5-1.78.06-1.33.63h0Z"/>
    <path class="cls-25" d="M956.59,565.84c-2.51-15.34-5.21-38.36-5.99-53.86l-178.44,50.92,6.08,52.5c97.94-12.93,147.33-14.75,182.16-19.3-1.15-10.1-2.16-20.22-3.8-30.25Z"/>
    <path class="cls-28" d="M776.65,606.51c.22,2.88.43,5.75.65,8.63.02.28.46.37.66.35,19.75-1.74,39.49-3.48,59.23-5.29,11.89-1.09,23.77-2.2,35.64-3.43,7.98-.83,15.94-1.72,23.9-2.7,6.97-.86,13.94-2.03,20.92-2.67,6.28-.58,12.55-1.22,18.82-1.99,12.05-1.48,24.06-3.29,35.97-5.61,12.54-2.45,25.1-5.37,37.06-9.92,4.84-1.84,9.61-3.98,13.97-6.79,1.77-1.14,3.45-2.41,4.97-3.87,1.36-1.3,2.33-2.74,3.39-4.27.68-.98,1.59-2.13,2.27-3.23,1.97-3.16,3.53-6.58,4.83-10.06,5.24-13.97,6.53-29.28,6.03-44.09-.18-5.35-.62-10.69-1.25-16.01-.08-.68-1.53-.32-1.45.39,2.06,17.36,2.17,35.43-2.43,52.42-1.83,6.77-4.41,13.94-8.76,19.55-1.39,1.8-2.53,3.66-4.25,5.21-3.44,3.1-7.59,5.36-11.77,7.28-11.11,5.11-23.19,8.17-35.1,10.77-12.32,2.68-24.79,4.71-37.29,6.37-7.75,1.03-15.52,1.93-23.31,2.63-5.93.53-11.82,1.46-17.72,2.21-7.6.96-15.2,1.86-22.81,2.68-10.53,1.13-21.07,2.15-31.62,3.13-17.33,1.62-34.67,3.16-52.01,4.69-5.71.51-11.42,1.01-17.14,1.51l.66.35c-.22-2.88-.43-5.75-.65-8.63-.05-.67-1.5-.32-1.45.39h0Z"/>
    <path class="cls-28" d="M955.99,507.72c-1.64.49-3.28.98-4.92,1.47-4.46,1.33-8.93,2.66-13.39,3.99-6.6,1.97-13.2,3.94-19.8,5.9-8.05,2.4-16.11,4.8-24.16,7.2-8.82,2.63-17.64,5.26-26.46,7.89-8.9,2.65-17.81,5.31-26.71,7.96-8.27,2.46-16.53,4.93-24.8,7.39-7.02,2.09-14.04,4.18-21.06,6.28-5.05,1.51-10.1,3.01-15.15,4.52-2.39.71-4.79,1.41-7.18,2.14-.1.03-.21.06-.31.09-.23.07-.67.23-.63.54.26,2.19.52,4.39.78,6.58.05.45,1.51.13,1.45-.39-.26-2.19-.52-4.39-.78-6.58l-.63.54c1.64-.49,3.28-.98,4.92-1.47,4.46-1.33,8.93-2.66,13.39-3.99l19.8-5.9c8.05-2.4,16.11-4.8,24.16-7.2,8.82-2.63,17.64-5.26,26.46-7.89s17.81-5.31,26.71-7.96c8.27-2.46,16.53-4.93,24.8-7.39,7.02-2.09,14.04-4.18,21.06-6.28,5.05-1.51,10.1-3.01,15.15-4.52,2.39-.71,4.79-1.41,7.18-2.14.1-.03.21-.06.31-.09.85-.25.68-.94-.18-.68h0Z"/>
    <path class="cls-21" d="M773.23,567.48c-3.16-.64-3.36-.31-6.37-1.4,0,0-10.57-14.94-23.67-17.87-13.1-2.93-27.86,3.37-34.99.63-8.08-3.1-25.14-2.95-28.32.15-5.17,5.02.61,12.74,13.75,13.82,8.55.76,17.01,2.25,25.3,4.46,0,0-70.85,42.91-74.63,47.52-3.78,4.62-7.67,9.38-4.45,13.18,3.21,3.81,16.07-5.53,16.07-5.53l5.44,1.05c1.75.34,3.55.27,5.27-.19l17.29-4.66c9.99,2.28,24.3,3.46,34.54,2.92,14.12-1.28,41.01-15.66,41.01-15.66l18.8-.08c.11-1.9-4.87-33.65-5.03-38.35Z"/>
    <path class="cls-50" d="M657.03,622.14c4.9-3.09,10.33-5.43,15.52-7.97s10.44-4.83,15.14-8.03c.81-.55-.37-1.07-.96-.67-4.77,3.25-10.25,5.6-15.42,8.13s-10.42,4.83-15.24,7.88c-.83.52.36,1.04.96.67h0Z"/>
    <path class="cls-50" d="M678.98,620.53c7.41-3.04,14.83-6.07,22.24-9.11,1.06-.43,2.12-.87,3.18-1.3.92-.37.11-1.2-.65-.89-7.41,3.04-14.83,6.07-22.24,9.11-1.06.43-2.12.87-3.18,1.3-.92.37-.11,1.2.65.89h0Z"/>
  </g>
</svg>