<?xml version="1.0" encoding="UTF-8"?>
<svg xmlns="http://www.w3.org/2000/svg" xmlns:xlink="http://www.w3.org/1999/xlink" viewBox="0 0 1334 1000">
  <defs>
    <style>
      .cls-1, .cls-2, .cls-3, .cls-4, .cls-5, .cls-6, .cls-7, .cls-8, .cls-9, .cls-10, .cls-11, .cls-12, .cls-13, .cls-14, .cls-15 {
        fill: none;
      }

      .cls-16 {
        fill: #a38066;
      }

      .cls-17 {
        fill: #fdc642;
      }

      .cls-18 {
        fill: #f1e9d0;
      }

      .cls-19 {
        filter: url(#drop-shadow-7);
      }

      .cls-20 {
        fill: #151312;
      }

      .cls-21 {
        fill: #d5dc9e;
      }

      .cls-22 {
        fill: #1b4a96;
      }

      .cls-23 {
        fill: #0b0a08;
      }

      .cls-24 {
        fill: #52656c;
      }

      .cls-25 {
        fill: #5b883d;
      }

      .cls-26 {
        fill: #761516;
      }

      .cls-27 {
        fill: #344a3d;
      }

      .cls-2 {
        stroke: #c7b386;
        stroke-width: 2.29px;
      }

      .cls-2, .cls-3, .cls-28, .cls-4, .cls-5, .cls-6, .cls-7, .cls-8, .cls-9, .cls-10, .cls-11, .cls-12, .cls-13, .cls-29, .cls-14, .cls-15, .cls-30, .cls-31, .cls-32, .cls-33 {
        stroke-miterlimit: 10;
      }

      .cls-34 {
        fill: #010101;
      }

      .cls-35 {
        fill: #133a43;
      }

      .cls-36 {
        fill: #777;
      }

      .cls-37 {
        fill: #cf9b31;
      }

      .cls-38 {
        fill: #282b2b;
      }

      .cls-39 {
        fill: #231f20;
      }

      .cls-40 {
        fill: #a02522;
      }

      .cls-41 {
        fill: #e38e25;
      }

      .cls-3 {
        stroke: #344a3d;
      }

      .cls-3, .cls-7, .cls-11 {
        stroke-width: .62px;
      }

      .cls-28 {
        stroke: #a5a4a4;
        stroke-width: 1.76px;
      }

      .cls-28, .cls-42, .cls-43, .cls-44, .cls-45, .cls-46, .cls-47, .cls-48, .cls-30, .cls-31 {
        fill: #fff;
      }

      .cls-49 {
        fill: #87664f;
      }

      .cls-50 {
        fill: #cbb092;
      }

      .cls-51 {
        fill: #b08863;
      }

      .cls-42 {
        opacity: .15;
      }

      .cls-4 {
        stroke-width: 1.64px;
      }

      .cls-4, .cls-6 {
        stroke: #b7b7b7;
      }

      .cls-5 {
        stroke: #4d2c19;
        stroke-dasharray: 2.55 2.55;
        stroke-width: .64px;
      }

      .cls-6 {
        stroke-width: 1.41px;
      }

      .cls-52 {
        fill: #6fa44e;
      }

      .cls-53 {
        fill: #8f231d;
      }

      .cls-54 {
        fill: #a72e24;
      }

      .cls-55 {
        fill: #f0ecf6;
      }

      .cls-56 {
        fill: #7a2817;
      }

      .cls-57 {
        fill: #1e3353;
      }

      .cls-58 {
        fill: #a4a399;
        opacity: .6;
      }

      .cls-59 {
        fill: #a66e53;
      }

      .cls-60 {
        fill: #661e0f;
      }

      .cls-7 {
        stroke: #7a2817;
      }

      .cls-61 {
        fill: #b16028;
      }

      .cls-8 {
        opacity: .51;
        stroke: #fff;
        stroke-width: 2.32px;
      }

      .cls-62 {
        fill: #c95744;
      }

      .cls-63 {
        fill: url(#linear-gradient);
        opacity: .5;
      }

      .cls-9 {
        stroke: #721d14;
        stroke-width: 1.13px;
      }

      .cls-64 {
        fill: #000106;
      }

      .cls-65 {
        fill: #50685c;
      }

      .cls-66 {
        fill: #b7b7b7;
      }

      .cls-10, .cls-12, .cls-30 {
        stroke: #231f20;
      }

      .cls-10, .cls-33 {
        stroke-width: 1.26px;
      }

      .cls-11 {
        stroke: #11153d;
      }

      .cls-67 {
        fill: #268d45;
      }

      .cls-68 {
        fill: #8f411f;
      }

      .cls-12 {
        stroke-width: .63px;
      }

      .cls-69 {
        fill: #c76828;
      }

      .cls-70 {
        fill: #5f9c43;
      }

      .cls-71 {
        fill: #8d8b8b;
      }

      .cls-72 {
        fill: #5f6060;
      }

      .cls-73 {
        fill: #df8c27;
      }

      .cls-74 {
        fill: #b15f28;
      }

      .cls-44 {
        filter: url(#drop-shadow-1);
      }

      .cls-45 {
        filter: url(#drop-shadow-3);
      }

      .cls-46 {
        filter: url(#drop-shadow-2);
      }

      .cls-47 {
        filter: url(#drop-shadow-8);
      }

      .cls-48 {
        filter: url(#drop-shadow-5);
      }

      .cls-13 {
        stroke: #cf9b31;
        stroke-width: 1.1px;
      }

      .cls-75 {
        opacity: .68;
      }

      .cls-76 {
        fill: #cd8c2a;
      }

      .cls-77, .cls-32 {
        fill: #6e4832;
      }

      .cls-78 {
        fill: #c98f2b;
      }

      .cls-79 {
        fill: #a13829;
      }

      .cls-79, .cls-80 {
        opacity: .67;
      }

      .cls-29 {
        fill: #161412;
        stroke: #171413;
        stroke-width: .5px;
      }

      .cls-81 {
        fill: #383838;
      }

      .cls-82 {
        fill: #231f1f;
      }

      .cls-83 {
        fill: #4f2f26;
      }

      .cls-84 {
        fill: #644837;
      }

      .cls-85 {
        fill: #e4d2a4;
      }

      .cls-86 {
        fill: #262828;
      }

      .cls-87 {
        fill: #f2ebd1;
      }

      .cls-14 {
        stroke-width: .57px;
      }

      .cls-14, .cls-15 {
        stroke: #547c39;
      }

      .cls-15 {
        stroke-width: .46px;
      }

      .cls-88 {
        fill: #e2e8b6;
      }

      .cls-89 {
        fill: #a51e25;
      }

      .cls-90 {
        fill: #52585b;
      }

      .cls-91 {
        fill: #2a4f9f;
      }

      .cls-92 {
        fill: #6e1810;
      }

      .cls-93 {
        fill: #61686c;
      }

      .cls-94 {
        fill: #6c3925;
      }

      .cls-95 {
        fill: #d9a328;
      }

      .cls-96 {
        fill: #f8e6b6;
      }

      .cls-30 {
        stroke-width: .4px;
      }

      .cls-97 {
        fill: #619241;
      }

      .cls-98 {
        fill: #412319;
      }

      .cls-99 {
        fill: #3a1611;
      }

      .cls-100 {
        fill: #df8c28;
      }

      .cls-101 {
        fill: #e9e8e7;
      }

      .cls-31 {
        stroke: #a4a4a5;
        stroke-width: 1.87px;
      }

      .cls-32 {
        stroke: #443025;
        stroke-width: 1.28px;
      }

      .cls-33 {
        fill: #faf6e7;
        stroke: #ccbc9b;
      }

      .cls-102 {
        fill: #787877;
      }

      .cls-103 {
        fill: #a03e23;
      }

      .cls-104 {
        fill: #251810;
      }

      .cls-105 {
        clip-path: url(#clippath);
      }

      .cls-106 {
        fill: #4f2e25;
      }

      .cls-80 {
        fill: #f58235;
      }

      .cls-107 {
        fill: #6d6d6d;
        opacity: .34;
      }
    </style>
    <linearGradient id="linear-gradient" x1="-1380.25" y1="3698.04" x2="-295.83" y2="3698.04" gradientTransform="translate(-3057.96 1336.92) rotate(90) scale(1 -1)" gradientUnits="userSpaceOnUse">
      <stop offset="0" stop-color="#f0ebe0"/>
      <stop offset=".18" stop-color="#eee8dd" stop-opacity=".99"/>
      <stop offset=".33" stop-color="#e8e1d4" stop-opacity=".97"/>
      <stop offset=".46" stop-color="#ded4c5" stop-opacity=".93"/>
      <stop offset=".59" stop-color="#d0c2b0" stop-opacity=".88"/>
      <stop offset=".72" stop-color="#bdab95" stop-opacity=".82"/>
      <stop offset=".84" stop-color="#a78e73" stop-opacity=".73"/>
      <stop offset=".96" stop-color="#8d6d4d" stop-opacity=".64"/>
      <stop offset="1" stop-color="#83603d" stop-opacity=".6"/>
    </linearGradient>
    <filter id="drop-shadow-1" x="55.96" y="205.88" width="363.12" height="270" filterUnits="userSpaceOnUse">
      <feOffset dx="7" dy="7"/>
      <feGaussianBlur result="blur" stdDeviation="5"/>
      <feFlood flood-color="#231f20" flood-opacity=".25"/>
      <feComposite in2="blur" operator="in"/>
      <feComposite in="SourceGraphic"/>
    </filter>
    <filter id="drop-shadow-2" x="38.52" y="13.72" width="282.96" height="206.64" filterUnits="userSpaceOnUse">
      <feOffset dx="7" dy="7"/>
      <feGaussianBlur result="blur-2" stdDeviation="5"/>
      <feFlood flood-color="#231f20" flood-opacity=".25"/>
      <feComposite in2="blur-2" operator="in"/>
      <feComposite in="SourceGraphic"/>
    </filter>
    <filter id="drop-shadow-3" x="303.4" y="33.08" width="369.6" height="274.8" filterUnits="userSpaceOnUse">
      <feOffset dx="7" dy="7"/>
      <feGaussianBlur result="blur-3" stdDeviation="5"/>
      <feFlood flood-color="#231f20" flood-opacity=".25"/>
      <feComposite in2="blur-3" operator="in"/>
      <feComposite in="SourceGraphic"/>
    </filter>
    <filter id="drop-shadow-5" x="651.16" y="178.28" width="62.16" height="62.16" filterUnits="userSpaceOnUse">
      <feOffset dx="7" dy="7"/>
      <feGaussianBlur result="blur-4" stdDeviation="5"/>
      <feFlood flood-color="#231f20" flood-opacity=".25"/>
      <feComposite in2="blur-4" operator="in"/>
      <feComposite in="SourceGraphic"/>
    </filter>
    <filter id="drop-shadow-7" x="880.32" y="17.4" width="413.28" height="330.04" filterUnits="userSpaceOnUse">
      <feOffset dx="7" dy="7"/>
      <feGaussianBlur result="blur-5" stdDeviation="5"/>
      <feFlood flood-color="#231f20" flood-opacity=".25"/>
      <feComposite in2="blur-5" operator="in"/>
      <feComposite in="SourceGraphic"/>
    </filter>
    <clipPath id="clippath">
      <path class="cls-1" d="M1270.66,173.82c-3.97-34.49-22.01-70.18-50.07-71.61,4.22-38.37-38-68.2-75.29-63.05-9.25,1.28-17.88,4.43-25.59,9.05-18.46-16.72-42.93-25.38-68.57-21.84-30.66,4.23-46.39,17.2-59.48,45.22-7.79-1.45-15.91-1.7-24.15-.56-45.13,6.23-84.12,59.08-78.43,108.52,3.7,32.13,20.41,53.82,45.43,66.41.04.36,1.31,1.05,1.36,1.41,3.02,26.22,15.37,48.72,37.09,63.52,28.36,19.33,75.52,21.21,101.19-6.9,16.72,14.45,38.52,21.84,61.32,18.69,27.67-3.82,50.39-22.27,62.52-47.36,2.75-.08,5.53-.3,8.32-.69,45.13-6.23,70.06-51.37,64.37-100.81Z"/>
    </clipPath>
    <filter id="drop-shadow-8" x="880.32" y="17.44" width="413.28" height="330" filterUnits="userSpaceOnUse">
      <feOffset dx="7" dy="7"/>
      <feGaussianBlur result="blur-6" stdDeviation="5"/>
      <feFlood flood-color="#231f20" flood-opacity=".25"/>
      <feComposite in2="blur-6" operator="in"/>
      <feComposite in="SourceGraphic"/>
    </filter>
  </defs>
  <g id="Layer_2" data-name="Layer 2">
    <polyline class="cls-87" points="1355.66 1022.25 1355.66 -59.14 -55.43 -59.14 -55.43 1022.25"/>
    <polyline class="cls-63" points="1345.63 1037.51 -65.46 1037.51 -65.46 -46.9 1345.63 -46.9"/>
  </g>
  <g id="Layer_1" data-name="Layer 1">
    <path d="M1139.29,749.02l-.16.95c-3,5.1-6.57,7.77-11.3,6.98-.03.05-5.95,10.1-16.59,6.51-9.24-3.11-10.65-8.41-10.65-8.41,0,0-4.93,1.07-7.03-.12-4.72-2.69-4.08-9.79-2.26-13.87,2.49-5.56,5.32-9.46,5.32-9.46,0,0,3.45-3.4,6.18-5.71,2.73-2.31,9.04-2.76,9.04-2.76,0,0,.74-6.48,3.69-6.46,2.94.02,12.15-2.76,12.15-2.76,0,0,2.25,2.25,5.9,7.28,0,0,4.45,1.14,3.8,7.09-.14,1.29-.52,2.8-1.24,4.57,0,0,2.17.62,4.36,5.01.95,1.89,1.04,7.3-1.24,11.17Z"/>
    <path class="cls-86" d="M1038.6,695.96s2.12,8.28-2.87,10.01l24.19,10s5.61-3.42,4.94-9.11c-.67-5.69-26.26-10.91-26.26-10.91Z"/>
    <path d="M1083.13,748.54c-18.89.66-29.7-13.45-40.68-27.78-6.42-8.39-11.31-18.54-11.33-29.29-.02-9.31,3.18-18.42,7.14-26.74,3.58-7.52,7.75-13.77,15.01-18.17,6.91-4.19,15.05-6.11,23.09-6.07,2.4,0,4.8.14,7.19.34,21.22,1.62,46.96,15.59,52.66,34.8.51,1.74.91,3.58,1.23,5.48,0,0,.51,4.04.35,5.37-2.9,23.73-15.94,66.25-49.45,60.43-2.93-.51-5.6-.54-5.19,1.63Z"/>
    <path class="cls-59" d="M1025.42,714.77c.72-5.61,3.97-14.03,5.96-16.51.54-2.55,1.18-5.5,1.97-9.06.23-1.03.48-2.02.73-2.99.18-.49.31-.99.41-1.5,4.78-17.13,12.7-24.78,12.7-24.78,10.1-9.67,24.57-13.25,38.01-9.4,15.9,4.2,27.96,17.38,33.1,28.94,2.56,5.73,2.91,12.2.98,18.17-1.64,5.11-7.71,9.72-10.49,15.02,5.65,1.1,12.35,4.39,7.81,14.15-6.26,13.47-17.1,12.12-21.1,7.95-5.08,5.6-6.42,9.33-7.72,13.16-1.35,3.97-2.13,11.89-1.79,13.78l9.24,6.67c-16.77,16.44-57.66,25.09-63.04-7.78l9.1-4.75,1.56-5.78c-.37-.12.36.11-5.07-3.2-16.04-11.02-13.23-25.47-12.38-32.08Z"/>
    <path class="cls-106" d="M1042.03,752.84l.81-2.98s17.79,6.48,31.93.05c0,0-10.37,6.78-19.88,5.84-9.51-.94-12.86-2.9-12.86-2.9Z"/>
    <path d="M1099.78,717.14c-.25.4-.54.84-.47,1.32.09.63.79,1.02,1.42,1s1.22-.33,1.79-.62c3.7-1.83,11.94-4.05,15.5-1.98,9.81-12.86,12.4-28.1,7-43.37-1.71-4.83-7.55-10.95-9.32-12.89-10.75-11.67-21.89-14.59-36.04-16-21.18-2.09-24.21,1.63-35.79,17.12,0,0,27.8-6.58,48.92,7.07-.72.04,13.17,7.91,13.31,8.21,1.19,2.58-1.23,3.85-1.87,8.44-.47,3.34-1.53,5.65.45,8.4,1.38,1.91,2.03,6.15,1.38,8.41l-6.29,14.88Z"/>
    <circle cx="1036.7" cy="694.88" r="3.61"/>
    <path d="M1033.27,690.95c1.93-.65,4.41-.79,7.73.32,5.32,1.79,6.14,9.18,6.14,9.18,0,0-1.64-5.88-6.85-7.78-2.51-.91-5.18-.7-7.4-.17.18-.5.3-1.02.37-1.54Z"/>
    <path d="M1074.45,687.95s10.5,9.87,10.46,13.99c0,0,1.91-4.62-6.29-13.72,0,0-5.2-3.5-4.17-.27Z"/>
    <path d="M1034.13,684c0-.12-.02-.23-.03-.35,2.11-.95,5.26-1.88,9.93-2.4,0,0,5.98.28,3.07,2.01,0,0-7.63.21-12.82,1.53-.05-.26-.11-.52-.14-.79Z"/>
    <path class="cls-83" d="M1112.9,727.26c.98-1.53,1.64-3.32,1.47-5.16-.05-.58-.13-1.13-.79-1.22-1.54-.2-3.18.77-4.39,1.57-1.9,1.25-3.57,2.85-5.14,4.48-.2.21-.2.51.04.68.28.2.71.12,1,0,.17-.07-.12.04-.04.01.11-.03.22-.07.33-.1s.41-.1.56-.03c.44.23.35.96.26,1.38-.35,1.6-1.85,1.93-3.29,1.74-.37-.05-.92.13-1.09.5s.16.61.49.65c2.31.31,5.08-.54,5.57-3.11.17-.9-.02-1.9-.98-2.23-.81-.27-1.78-.05-2.55.27l1.05.68c1.82-1.89,3.91-3.96,6.27-5.02.15-.07.31-.13.46-.19-.24.09.16-.05.23-.07.11-.03.22-.05.33-.08-.32.07,0,.01.07,0,.18-.02.15.02.01,0,.05,0,.09,0,.14.01.18.04-.21-.06-.07-.01l-.34-.31c.65,1.78-.28,3.94-1.22,5.41-.23.35.2.61.49.65.41.05.86-.15,1.09-.5h0Z"/>
    <circle cx="1071.14" cy="703.6" r="3.61"/>
    <path d="M1060.73,703.53s7-5.82,12.87-3.9c8.26,2.71,8.4,8.65,9.37,11.74,0,0-3.46-8.42-9.9-10.36-5.84-1.76-12.35,2.52-12.35,2.52Z"/>
    <g>
      <path class="cls-34" d="M1046.24,717.65c.9.9,2.58,1.29,3.88.95.29-.07,1.04.32.64.43-1.71.44-4.09-.22-5.25-1.38-.12-.12-.06-.21.13-.22.2,0,.48.1.6.22"/>
      <path class="cls-34" d="M1051.33,718.87c.83-.12,1.7-.04,2.53.15.12.03.26.12.32.23.05.08.04.17-.07.19-.44.1-.94.04-1.38-.11-.14-.05-.31-.14-.35-.28-.04-.13.12-.16.22-.13.36.12.75.16,1.11.08.09.14.17.28.26.42-.74-.17-1.52-.23-2.26-.13-.15.02-.32-.08-.41-.18-.07-.08-.13-.23.02-.25"/>
      <path class="cls-34" d="M1054.51,719.98c.96.27,2.2.21,2.89-.36,1.04-.86.95-2.88-.02-3.94-.11-.12,0-.19.13-.18.18.02.36.14.47.26.84.92,1.05,2.64.58,3.61-.44.9-1.55,1.28-2.77,1.2-.36-.02-.74-.08-1.1-.18-.14-.04-.39-.17-.42-.3-.04-.14.11-.15.25-.11"/>
      <path class="cls-34" d="M1044.66,716.63c.08-.09.01-.19-.06-.22-.26-.07-.5-.23-.66-.47-.12.08-.23.15-.35.23.49.22.96.55,1.32,1,.07.09.22.09.32.05.08-.03.18-.13.11-.22"/>
      <path class="cls-34" d="M1045.33,716.99c-.41-.5-.92-.87-1.48-1.11-.08-.03-.2-.02-.29.03-.07.05-.1.12-.06.2"/>
      <path class="cls-34" d="M1042.65,716.14c-.61-.22-1.2-.86-1.28-1.67-.12-1.22.7-2.37,1.69-2.82.11-.05.09-.16.02-.21-.1-.07-.25-.05-.36,0-.86.39-1.6,1.23-1.81,2.28-.2.98.18,1.82.84,2.33.19.15.41.28.64.36.09.03.27.04.35-.06.08-.1.01-.18-.07-.21"/>
    </g>
    <path class="cls-23" d="M1046.64,723.53c3.84,1.18,11.54,6.28,12.76,8.39,0,0-5.38,1.87-14.28-.87-8.9-2.74-8.25-6.57-8.25-6.57,0,0,4.87-2.45,9.76-.95Z"/>
    <path class="cls-43" d="M1056.32,729.05s-4.45-1.8-8.09-2.92c-3.64-1.12-8.33-2.14-8.33-2.14,0,0,.31-3.07,6.91-1.03,6.61,2.04,9.51,6.1,9.51,6.1Z"/>
    <path class="cls-94" d="M1044.7,730.97c4.36.66,9.94-.87,14.71.95,0,0-4,6.7-14.47,3.47-10.46-3.23-8.06-10.91-8.06-10.91,4.96,1.18,3.85,4.58,7.82,6.49Z"/>
    <path class="cls-94" d="M1042.77,719.92c2.25.51,3.37,1.82,4.33,2.11.96.29,2.62-.16,4.77.69,2.01.8,9.07,8.83,7.89,9.22-1.19.39-6.73-5.61-13.35-7.65-6.62-2.04-8.76,1.18-9.53.18-.76-.99,3.78-5.03,5.89-4.55Z"/>
    <path class="cls-59" d="M1025.11,769.27c-4.29,5.71-41.93,40.79-55.08,54.56-.02,2.89,5.53,2.54,5.72,5.42.44,6.68,1.22,13.36.86,20.06-.14,2.61-.48,5.19-1,7.71,2.8.11,5.62-.17,8.28-.84,9.47-2.35,19.36-12.86,26.45-19.04,11.85-11.67,25.65-25.98,33.85-34.53l3.21-27.97c-14.93-18.52-22.29-5.38-22.29-5.38Z"/>
    <path class="cls-59" d="M984.21,856.01c-1.18-4.4,3.55-24.82,1.29-28.94-3.88-7.08-11.1,4.05-14.56-3.25l-70.3-21.53-3.14,16.2c1.04.72-.35.45.71,1.14,2.8,1.84,11.23,6.07,14.09,7.83,4.08,2.52,8.2,4.96,12.36,7.32,4.85,2.75,11.13,8.06,16.12,10.54,12.23,6.07,25.91,13.82,40.05,11.49,1.14-.19,2.27-.47,3.38-.81Z"/>
    <path class="cls-43" d="M1014.32,836.99s-19.48-1.48-38.05-19.49c0,0,23.96-43.72,38.97-50.37,15.01-6.64,15.82,7.28,15.82,7.28,0,0,7.66,24.61-16.74,62.57Z"/>
    <path class="cls-57" d="M1134.33,933.67c6.49,41.94,7.98,116.09,10.2,131.01-10.35,5.57-15.51-1.71-29.28,6.83-12.14,7.53-19.43,3.71-29.64,0-10.21-3.71-18.72-2.48-31.91,1.24-13.19,3.71-21.07-3.13-28.73-3.44-7.66-.31-17.88,4.91-33.85,3.99-13.58-.78,5.2-8.73-2.88-8.42,3.43-59.71,7.84-127.27,12.73-188.06,11.62,4.86,24.17-11.42,42.25-11.56,14.95-.12,52.2-2.55,68.7-9.39,10.95-4.54-1.92,25.76,10.53,25.1.62,3.34,5.96,19.7,8.83,37.49"/>
    <path class="cls-57" d="M1020.91,764.02c3.65-1.94,19.02-6.64,19.02-6.64,0,0-9.68,18.49,9.32,19.69,28.82,1.82,43.35-19.16,43.35-19.16,10.28,3.94,15.43,8.41,22.22,14.45,23.36,20.8,11.41,54.63,11.41,54.63-2.14,1.24-5.83,19.37-6.05,24.84-.59,14.73,1.32,17.33,2.57,32.21,0,0-68.8,26.5-121.78-7.23.37-1.45.87-14.19,1.19-14.94,1.32-14.19,5.49-58.07,5.49-58.07"/>
    <path class="cls-59" d="M515.7,435.67c.26-3.56,5.86-12.3,8.82-17.37,2.96-5.07,7.74-7.06,12.74-6.27,5,.8,17-1.15,22.65-1.6,5.65-.45,15.62,7.26,23.27,13.78,7.65,6.51,34.4,20.82,34.4,20.82l-13.09,26.2s-4-3.06-8.62-5.81h0s-10.99,1.45-17.71-1.13c-6.72-2.58-17.05-9.33-17.05-9.33,0,0,1.85,4.17-1.37,5.36-3.22,1.18-11.81-.95-11.81-.95,0,0-.85,1.95-6.06,1.2-5.2-.75-12.32-4.98-13.62-7.73-.78-1.65-2.29-7.07-3.37-11.14-.36.54-2.11,2.98-5.47,5.12-3.8,2.42-4.41,1.69-6.09.12-1.68-1.57,2.13-7.71,2.38-11.27Z"/>
    <path class="cls-44" d="M396.27,337.36c-2.46-19.51-15.85-34.84-31.75-45.55-3.07-20.36-10-46.76-27.65-57.73-25.03-15.56-65.42-24.15-93.32-4.49-14.76-11.64-33.99-17.58-54.12-15.05-24.42,3.08-44.48,17.93-55.18,38.14-2.43.06-4.88.24-7.34.55-39.83,5.02-67.33,41.36-62.31,81.17,3.5,27.77,24.93,56.51,49.69,57.66-3.73,30.9,33.54,54.91,66.45,50.77,8.17-1.03,15.78-3.56,22.59-7.29,16.29,13.46,37.89,20.43,60.52,17.58,24.13-3.04,44.88-10.87,57.29-28.52,5.27-.22,10.87-.92,15.22-1.46,39.83-5.02,64.94-45.97,59.92-85.78Z"/>
    <polygon class="cls-96" points="349 376.83 113.64 376.83 113.64 314.96 159.52 270.49 303.12 270.49 349 325.87 349 376.83"/>
    <polygon class="cls-54" points="161.95 340.2 85.64 340.2 92.53 332.33 164.65 332.33 161.95 340.2"/>
    <path class="cls-46" d="M298.9,113.09c-2.53-21.25-17.99-43.24-35.86-44.12,2.69-23.64-24.2-42.01-47.95-38.84-5.89.79-11.39,2.73-16.3,5.58-11.76-10.3-27.34-15.64-43.67-13.45-19.53,2.61-35.51,15.35-43.85,32.61-4.96-.9-10.13-1.05-15.38-.34-28.74,3.84-52.56,32.51-48.94,62.97,2.35,19.79,12.58,27.94,28.51,35.7.02.22-.04,4.12,0,4.35,2.21,11.94,6.64,19.88,19.99,29.71,14.52,10.69,57.97,13.8,74.33-3.52,10.65,8.9,26.26,16.06,40.78,14.12,17.62-2.35,30.37-6.77,38.09-22.23,1.75-.05,3.52-.19,5.3-.42,28.74-3.84,48.59-31.64,44.97-62.1Z"/>
    <path class="cls-91" d="M68.46,123.55l-.43,12.15c-.02.45.34.83.78.84l97.95,3.47c.14,0,.28-.03.41-.09l24.66-12.83c.75-.39.47-1.53-.37-1.53l-1.2.51c-.13,0-.26.03-.38.09l-21.88,11.52c-.56.29-1.22-.13-1.19-.76l.35-6.84c.02-.3.19-.56.46-.69l24.52-11.71c.76-.36.53-1.5-.31-1.55l-94.26-3.66c-.11,0-.22.01-.32.05l-28.24,10.29c-.31.11-.52.4-.53.74Z"/>
    <g>
      <line class="cls-43" x1="168.14" y1="132.64" x2="189.31" y2="122.1"/>
      <path class="cls-39" d="M168.29,132.79c2.38-1.19,4.76-2.37,7.15-3.56,3.8-1.89,7.6-3.78,11.4-5.67.88-.44,1.75-.87,2.63-1.31.48-.24.04-.47-.3-.3-2.38,1.19-4.76,2.37-7.15,3.56-3.8,1.89-7.6,3.78-11.4,5.67-.88.44-1.75.87-2.63,1.31-.48.24-.04.47.3.3h0Z"/>
    </g>
    <g>
      <line class="cls-43" x1="167.76" y1="134.82" x2="190.13" y2="123.69"/>
      <path class="cls-39" d="M167.92,134.99c2.52-1.25,5.03-2.5,7.55-3.76l12.04-5.99c.93-.46,1.85-.92,2.78-1.38.47-.24.04-.5-.31-.32-2.52,1.25-5.03,2.5-7.55,3.76-4.01,2-8.03,3.99-12.04,5.99-.93.46-1.85.92-2.78,1.38-.47.24-.04.5.31.32h0Z"/>
    </g>
    <g>
      <line class="cls-43" x1="173.88" y1="127.97" x2="190.26" y2="119.94"/>
      <path class="cls-39" d="M174.05,128.19c1.85-.91,3.7-1.82,5.55-2.73,2.93-1.44,5.87-2.88,8.8-4.32.67-.33,1.35-.66,2.02-.99.47-.23.05-.63-.34-.44-1.85.91-3.7,1.82-5.55,2.73l-8.8,4.32c-.67.33-1.35.66-2.02.99-.47.23-.05.63.34.44h0Z"/>
    </g>
    <line class="cls-11" x1="69.61" y1="124.49" x2="165.46" y2="128.78"/>
    <path class="cls-45" d="M650.32,167.15c-2.51-19.89-16.17-35.53-32.39-46.46-3.13-20.76-10.2-47.69-28.2-58.88-25.53-15.87-66.73-24.63-95.18-4.57-15.05-11.87-34.67-17.94-55.2-15.35-24.91,3.14-45.36,18.29-56.28,38.9-2.48.06-4.97.25-7.49.56-40.63,5.12-68.67,42.18-63.55,82.79,3.57,28.33,25.42,57.64,50.69,58.81-3.8,31.51,34.21,56.01,67.77,51.78,8.33-1.05,16.09-3.63,23.04-7.44,16.62,13.73,38.65,20.84,61.73,17.93,24.61-3.1,45.77-11.09,58.43-29.09,5.37-.23,11.08-.93,15.53-1.49,40.63-5.12,66.23-46.88,61.11-87.49Z"/>
    <path class="cls-101" d="M462.28,169.76s-14.72-48.56-21.39-75.72c-3.42.75-6.19.97-9.67,1.2,1.39,10.71,5.5,24.99,5.52,25.66.16,6.84-20.33,14.92-33.31,3.26-8.23-7.4,5.14-36.47,10.7-47.59,1.36-2.71,2.25-4.36,2.25-4.36,0,0,.88-3.21,5.95-1.57,1.45-1.36,6.96-2.27,8.5-3.54-7.18-3-9.57-3.23-9.57-3.23-17.7,9.11-37.63,61.1-44.41,76.21-6.78,15.11-19.2,62.09,5.48,68.67,1.57.42-.33.42,47.51,1.53,38.06.9,32.44-40.53,32.44-40.53Z"/>
    <path class="cls-66" d="M412.07,80.74s-18.68,38.95-17.06,53.1c1.61,14.15,39.96,10.06,42.83,4.41,2.87-5.65-6.61-43.02-6.61-43.02,0,0,1.56,26.96-1.58,29.93-3.14,2.97-5.26,6.52-17.73,2.75-12.48-3.77-9.86-7.23-7.53-16.47,2.34-9.24,7.69-30.7,7.69-30.7Z"/>
    <path class="cls-67" d="M415.6,114.89c1.34.02,3.22,3.01,4.24,4.85.07-.13.14-.26.2-.37-.91-3.06-2.52-8.96-1.19-8.24,1.18.63,2.18,3.51,2.73,5.41.16-.27.31-.54.46-.81-.74-4.49,1.74-10.29,1.74-10.29l.51,2.05c.27,1.07.15,3.03-.03,4.65,1.43-2.14,2.79-3.7,3.85-4.21,4.93-2.32,6.71-.24,6.71-.24,0,0-6.88,3.3-8.05,5.4l-1.17,2.1s8.51-1.92,8.52-.35c0,1.57-9.61,3.84-9.61,3.84,0,0,7.75.15,8.11,2.82.38,2.68-10-.9-10-.9l-.45,1.36c.81-.1,1.79-.02,3.01.38,3.68,1.23-1.78,3.17-4.47,4l-5.14,15.57-5.79-.9,2.96-6.37s2.46-5.76,5.55-11.96c-1.44-2.58-4.2-7.86-2.73-7.83Z"/>
    <path class="cls-41" d="M414.13,143.51s2.2-20.94,23.9-15.26c0,0,2.38,8.17-.19,10.01-2.57,1.85-10.05,6.42-23.71,5.25Z"/>
    <path class="cls-26" d="M402.6,140.7c4.19-.05,7.56-3.49,7.51-7.7s-3.48-7.58-7.68-7.53c-4.19.05-7.56,3.49-7.51,7.7.05,4.2,3.48,7.58,7.68,7.53Z"/>
    <path class="cls-89" d="M415.24,138.95c-.05-4.2-3.48-7.58-7.68-7.53-4.19.05-7.56,3.48-7.51,7.7,0,.07.01,1.24.01,1.31,3.76,2.05,8.93,2.52,14.07,3.08.8-1.21,1.12-3.01,1.11-4.56Z"/>
    <path class="cls-101" d="M441.45,95.41s-8.75-28.66-11.73-30.1c-2.98-1.44-8.47-1.43-8.47-1.43l11.05,35.75,9.15-4.22Z"/>
    <path class="cls-6" d="M421.39,64.23c-17.7,9.11-37.63,61.1-44.41,76.21-6.78,15.11-19.2,62.09,5.48,68.67,1.57.42-.33.42,47.51,1.53,38.06.9,32.44-40.53,32.44-40.53,0,0-14.72-48.56-21.39-75.72,0,0-8.56-27.63-11.3-29.09s-8.34-1.07-8.34-1.07Z"/>
    <path class="cls-6" d="M405.78,97.33s6.37-16.45,11.38-25.27c1.5-2.64,5.44-2.19,6.31.72l9.01,30.12"/>
    <path class="cls-101" d="M466.83,98.06s12.65-30.77,15.99-32.19c3.35-1.43.42,6.15.42,6.15l-9.02,31.76-7.4-5.72Z"/>
    <path class="cls-101" d="M439.31,175.1c4.99-12.85,20.39-52.95,27.64-77.43,3.71.99,4.9.93,8.7,1.35-2.08,11.68-7.33,27.14-7.38,27.88-.53,7.49,21.54,17.42,36.39,5.3,9.42-7.7-3.76-40.29-9.29-52.78-1.35-3.05-2.24-4.9-2.24-4.9,0,0-5.88-5.37-10.67,1.53-1.53-1.57,0,.83-.45-9.5,8.03-2.92,6.2-1.43,6.2-1.43,18.95,10.91,38.14,69.01,44.8,85.93,6.66,16.93,13.42,58.94-4.67,73.22-5.14,4.06-4.56,2.35-57.12,1.09-31.63-.74-34.58-26.78-34.14-39.41.13-3.72.89-7.38,2.24-10.84Z"/>
    <path class="cls-66" d="M497.4,84.1s18.48,43.71,15.98,59.16c-2.5,15.45-44.38,8.98-47.24,2.63-2.85-6.35,9.48-46.87,9.48-46.87,0,0-3.1,29.5.19,32.93,3.29,3.42,5.43,7.43,19.32,3.93,13.89-3.5,11.2-7.42,9.12-17.68-2.09-10.27-6.85-34.09-6.85-34.09Z"/>
    <path class="cls-22" d="M494.51,130.29c-1.45-1.74-6.49-4.53-6.49-4.53l.48-4.67-9.37-1.05-.85,4.68s-6.24.68-8.37,1.34c-2.13.65-4.19,18.9-4.19,18.9,3.13,8.17,27.33,7.86,27.33,7.86,0,0,2.91-20.79,1.46-22.53Z"/>
    <path class="cls-51" d="M513.63,136.07c-25.15-7.04-29.13,16.25-29.13,16.25,15.95,1.96,23.59-3.44,26.48-6.01,3.1-1.75,2.65-10.23,2.65-10.23Z"/>
    <path class="cls-50" d="M486.85,152.55s1.6-22.39,26.75-15.35c0,0,.61,7.33-2.16,11.19-2.89,2.57-8.64,6.12-24.6,4.16Z"/>
    <path class="cls-4" d="M471.45,225.87c52.56,1.26,51.74,2.45,56.88-1.61,18.08-14.28,11.57-55.77,4.91-72.7-.71-1.81-1.4-3.64-2.08-5.47-.9-2.42-1.8-4.84-2.7-7.26-1.06-2.85-2.13-5.7-3.22-8.54-1.2-3.14-2.42-6.27-3.67-9.4-1.32-3.3-2.67-6.58-4.07-9.85-1.42-3.32-2.88-6.62-4.41-9.89-1.5-3.21-3.05-6.39-4.69-9.52-1.55-2.96-3.17-5.89-4.91-8.75-1.58-2.59-3.25-5.13-5.07-7.56-1.58-2.1-3.28-4.13-5.17-5.96-.83-.8-1.69-1.56-2.61-2.26-.42-.32-.86-.64-1.3-.92-.34-.22-.65-.49-1.04-.63s-.83-.11-1.24-.1c-.95.01-1.9.13-2.8.44-1.79.62-2.74,1.99-3.69,3.54-1.08,1.78-2,3.65-2.93,5.51-1.54,3.08-2.99,6.2-4.4,9.34-1.31,2.91-2.59,5.83-3.84,8.76-.73,1.71-1.46,3.42-2.17,5.14-.02,0-.03,0-.04-.01-6.88,23.24-21.1,60.56-26.8,75.28-2.37,6.13-3.42,12.69-2.97,19.24.92,13.43,7.01,32.54,34.04,33.17Z"/>
    <path class="cls-4" d="M473.83,107.91c2.8-18.4,6.82-28.27,9.98-33.48,1.97-3.25,6.69-3.19,8.67.05,2.78,4.54,6.37,11.4,8.17,18.92"/>
    <polygon class="cls-25" points="605.93 195.05 509.65 224.09 497 165.66 593.28 136.62 605.93 195.05"/>
    <g class="cls-75">
      <rect class="cls-31" x="531.5" y="671.58" width="75.7" height="78.46"/>
      <rect class="cls-31" x="531.5" y="589.55" width="75.7" height="78.46"/>
      <rect class="cls-31" x="-21.39" y="671.43" width="75.7" height="78.46"/>
      <rect class="cls-31" x="-21.39" y="589.4" width="75.7" height="78.46"/>
      <rect class="cls-31" x="-21.39" y="507.32" width="75.7" height="78.46"/>
      <rect class="cls-31" x="58.19" y="671.41" width="75.7" height="78.46"/>
      <rect class="cls-31" x="136.99" y="671.45" width="75.7" height="78.46"/>
      <rect class="cls-31" x="58.19" y="589.38" width="75.7" height="78.46"/>
      <rect class="cls-31" x="136.99" y="589.42" width="75.7" height="78.46"/>
      <rect class="cls-31" x="58.19" y="507.3" width="75.7" height="78.46"/>
      <rect class="cls-31" x="136.99" y="507.35" width="75.7" height="78.46"/>
      <rect class="cls-31" x="215.72" y="671.45" width="75.7" height="78.46"/>
      <rect class="cls-31" x="294.53" y="671.5" width="75.7" height="78.46"/>
      <rect class="cls-31" x="215.72" y="589.42" width="75.7" height="78.46"/>
      <rect class="cls-31" x="294.53" y="589.47" width="75.7" height="78.46"/>
      <rect class="cls-31" x="215.72" y="507.35" width="75.7" height="78.46"/>
      <rect class="cls-31" x="294.53" y="507.4" width="75.7" height="78.46"/>
      <rect class="cls-31" x="373.97" y="671.53" width="75.7" height="78.46"/>
      <rect class="cls-31" x="452.78" y="671.58" width="75.7" height="78.46"/>
      <rect class="cls-31" x="373.97" y="589.5" width="75.7" height="78.46"/>
      <rect class="cls-31" x="452.78" y="589.55" width="75.7" height="78.46"/>
      <rect class="cls-31" x="373.97" y="507.43" width="75.7" height="78.46"/>
      <rect class="cls-31" x="452.78" y="507.47" width="75.7" height="78.46"/>
      <rect class="cls-31" x="610.31" y="671.63" width="75.7" height="78.46"/>
      <rect class="cls-31" x="610.31" y="589.6" width="75.7" height="78.46"/>
      <rect class="cls-31" x="531.5" y="507.47" width="75.7" height="78.46"/>
      <rect class="cls-31" x="610.31" y="507.52" width="75.7" height="78.46"/>
      <rect class="cls-31" x="688.67" y="671.56" width="75.7" height="78.46"/>
      <rect class="cls-31" x="688.67" y="589.53" width="75.7" height="78.46"/>
      <rect class="cls-31" x="688.67" y="507.45" width="75.7" height="78.46"/>
      <rect class="cls-31" x="531.58" y="918.93" width="75.7" height="78.46"/>
      <rect class="cls-31" x="531.58" y="836.9" width="75.7" height="78.46"/>
      <rect class="cls-31" x="-21.32" y="918.78" width="75.7" height="78.46"/>
      <rect class="cls-31" x="-21.32" y="836.75" width="75.7" height="78.46"/>
      <rect class="cls-31" x="-21.32" y="754.67" width="75.7" height="78.46"/>
      <rect class="cls-31" x="58.26" y="918.75" width="75.7" height="78.46"/>
      <rect class="cls-31" x="137.06" y="918.8" width="75.7" height="78.46"/>
      <rect class="cls-31" x="58.26" y="836.72" width="75.7" height="78.46"/>
      <rect class="cls-31" x="137.06" y="836.77" width="75.7" height="78.46"/>
      <rect class="cls-31" x="58.26" y="754.65" width="75.7" height="78.46"/>
      <rect class="cls-31" x="137.06" y="754.69" width="75.7" height="78.46"/>
      <rect class="cls-31" x="215.79" y="918.8" width="75.7" height="78.46"/>
      <rect class="cls-31" x="294.6" y="918.85" width="75.7" height="78.46"/>
      <rect class="cls-31" x="215.79" y="836.77" width="75.7" height="78.46"/>
      <rect class="cls-31" x="294.6" y="836.82" width="75.7" height="78.46"/>
      <rect class="cls-31" x="215.79" y="754.69" width="75.7" height="78.46"/>
      <rect class="cls-31" x="294.6" y="754.74" width="75.7" height="78.46"/>
      <rect class="cls-31" x="374.04" y="918.88" width="75.7" height="78.46"/>
      <rect class="cls-31" x="452.85" y="918.93" width="75.7" height="78.46"/>
      <rect class="cls-31" x="374.04" y="836.85" width="75.7" height="78.46"/>
      <rect class="cls-31" x="452.85" y="836.9" width="75.7" height="78.46"/>
      <rect class="cls-31" x="374.04" y="754.77" width="75.7" height="78.46"/>
      <rect class="cls-31" x="452.85" y="754.82" width="75.7" height="78.46"/>
      <rect class="cls-31" x="610.38" y="918.98" width="75.7" height="78.46"/>
      <rect class="cls-31" x="610.38" y="836.95" width="75.7" height="78.46"/>
      <rect class="cls-31" x="531.58" y="754.82" width="75.7" height="78.46"/>
      <rect class="cls-31" x="610.38" y="754.87" width="75.7" height="78.46"/>
      <rect class="cls-31" x="688.74" y="918.9" width="75.7" height="78.46"/>
      <rect class="cls-31" x="688.74" y="836.88" width="75.7" height="78.46"/>
      <rect class="cls-31" x="688.74" y="754.8" width="75.7" height="78.46"/>
      <path class="cls-42" d="M573.64,863.9c-1.61-.79-2.9-2.21-3.53-4.04-.29-.85-.36-1.78-.65-2.62-1.18-3.41,1.04-9.97,4.15-11.6.9-.47,1.23-.88,1.22-1.84-.03-6.29-.05-12.58-.03-18.86,0-1.12-.26-1.64-1.5-1.63-7.76.08-15.52.08-23.28.11-8.11-.03-16.22-.06-24.33-.09-.12.24-.34.48-.34.72-.05,6.71-.07,13.42-.09,20.14,0,.59.09,1.17.74,1.35,3.32.95,4.16,3.83,4.75,6.73.87,4.31-.07,9.19-3.91,11.37-1.3.74-1.6,1.49-1.6,2.89.04,20,.1,40-.04,59.99-.03,3.99.8,7.62,2.67,10.96.86,1.54,1.36,3.82,3.83,3.81,6.11-.02,12.23-.04,18.34-.06,0,0-.03.12-.03.12,5.97-.02,11.95-.06,17.92-.04,1.02,0,1.89-.17,2.52-1.03,2.29-3.13,4.27-6.52,4.29-10.5.11-21.27.05-42.53.06-63.8,0-.95-.1-1.55-1.18-2.08Z"/>
    </g>
    <path class="cls-62" d="M726.01,519.02c1.27-6.74,1.87-13.64,1.1-20.48-.58-5.16-2.28-10.08-4.1-14.92-2.03-5.37-4.37-10.67-7.33-15.6-1.1-1.83-2.33-3.78-3.77-5.53-1.61,1.98-2.53,3.11-2.53,3.11l-108.01-32.95c-.23,8.21-1.6,28.93-7.66,38.13,0,0,50.21,30.26,60.21,36.76,26.25,17.04,59.42,21.9,71.25,19.46.37-1.57.54-6.39.84-7.98Z"/>
    <path class="cls-62" d="M754.48,406.3c-1.76-1.21-43.11-31.01-46.06-32.91-3.08,15.62-11,79.61-14.93,98.63,2.86,1.15,2.14,1.64,4.57,3.21,5.01,3.23,9.67,7.03,14.06,11.05,4.12,3.77,7.91,7.7,10.88,12.46,4.06,6.5-17.38,23.11,2.18,28.26,21.1-6.36,41.12-47.12,36.28-60.19-3.66-9.88,1.07-54.97-6.97-60.51Z"/>
    <rect class="cls-49" x="-359.26" y="706.34" width="1221.56" height="474.46"/>
    <rect class="cls-16" x="-367.6" y="669.34" width="1250.07" height="55.36"/>
    <path class="cls-84" d="M816.76,1122.24h-268.74c.75.6,1.5,1.2,2.25,1.8v-225.21c0-29.97,0-59.94,0-89.91v-38.84c0-1.43.38-3.48,0-4.87-.05-.18,0-.43,0-.61-1.65.87-3.29,1.73-4.94,2.6h268.74c-.75-.6-1.5-1.2-2.25-1.8v35.8c0,28.65,0,57.3,0,85.95v222.9c0,4.51-.72,9.71,0,14.18.03.19,0,.42,0,.61,0,3.21,7.19,1.81,7.19-.79v-344.65c0-4.57.62-9.64,0-14.18-.03-.2,0-.42,0-.61,0-1.23-1.09-1.8-2.25-1.8h-268.74c-1.25,0-4.94.66-4.94,2.6,0,11.93,0,23.87,0,35.8v279.32c0,9.85,0,19.69,0,29.54,0,4.57-.62,9.64,0,14.18.03.2,0,.42,0,.61,0,1.23,1.09,1.8,2.25,1.8h268.74c1.41,0,4.13-.45,4.71-2.03.54-1.47-.47-2.37-2.01-2.37Z"/>
    <path class="cls-59" d="M866.57,1118.94s-49.98,17.13-65.77,17.63c-15.79.5-20.42,3.97-20.42,3.97,0,0,30.16-14.17,50.04-23.35,4.18-1.93-14.16-133.17-22.85-190.41-6.04-39.77-7.31-71.52-7.31-71.52l72.78,4.45-1.32,60.78,3.38,11.05c1.77,5.77,4.31,16.04,4.92,22.02,1.65,16.17-1.87,40.58-2.41,48.88-.91,14.06-2.53,31.13-3.01,36.08l-8.51,66.61.48,13.82Z"/>
    <path class="cls-59" d="M915.19,1120.54s-64.33,31.41-80.12,31.19c-15.79-.22-10.16-7.61-10.16-7.61,0,0,48.18-30.58,52.42-37.23,2.33-3.65-11.09-121.05-16.49-178.63-3.75-40-3.2-71.78-3.2-71.78l72.4,7.76-4.72,57.67,2.75,11.19c1.43,5.85,3.38,16.22,3.65,22.22.72,16.23-4.27,43.45-5.28,51.71-1.71,14-4.31,30.99-5.07,35.91l-7.02,61.71.85,15.89Z"/>
    <path class="cls-24" d="M247.91,513.7c.27-.31.54-.32.82,0-.27,0-.54,0-.82,0Z"/>
    <path class="cls-107" d="M521.53,470.41c-5.43-9.27-12.66-19.05-13.22-30.18-.48-9.66,5.2-17.7,11.34-24.57,7.05-7.89,12.68-16.42,10.88-27.55-1.24-7.66-6.35-18.13-15.27-18.65-3.33-.19-6.7,1.32-8.84,3.88-2.14,2.56-3.03,6.1-2.46,9.39.65,3.7,3.52,7.07,7.53,6.45,1.32-.21,2.61-.94,3.57-1.97.58-.62,1.64-.1,1.46.73-.47,2.29-1.67,4.3-4.13,4.81-1.17.24-2.39.1-3.55-.19-10.59-2.58-15.67-15.45-8-23.74,6.3-6.81,15.19-9.43,23.07-3.94,11.14,7.76,14.03,20.85,11,33.48-2.42,10.07-9.02,17.3-15.91,24.61-12.23,12.98-5.39,33.95,2.52,47.44Z"/>
    <path class="cls-107" d="M531.8,454.94c-1.47-7.37-3.05-13.12-.34-20.73,2.72-7.66,8.29-14.26,15.42-18.17,5.24-2.87,15.41-5.08,19.13,1.38,1.44,2.5,2.25,7.15.9,9.69-2.01,3.79-5,5.65-9.33,6.9-1.13.32-3.6.85-4.78.76-1.77-.13-2.03-2.63-.33-3.17,1.46-.46,4.37-1.11,5.46-1.75,2.31-1.34,4.18-2.8,4.32-5.6.2-3.95-4.88-6.04-8.1-5.78-16.19,1.32-25.25,21.85-22.34,36.46Z"/>
    <path class="cls-107" d="M491.66,401.34c-2.77-1.69-5.25-2-7.69,1.11-1.73,2.2-1.56,5.39-.7,7.91.79,2.31,3.44,3.47,6.12-1.39.38-.68,1.41-.4,1.39.38-.35,10-8.77,7.02-10.41,4.5-1.75-2.71-2.26-6.07-2.05-9.29.22-3.4,2.41-6.4,5.63-7.51,7.05-2.43,13.53,3.53,15.59,9.14,0,0,2.69,7.28,1.91,13.13-.78,5.85-.45,25.98-.45,25.98,0,0-2.5-21.02-2.58-26.65-.08-5.64-1.2-13.92-6.76-17.31Z"/>
    <ellipse class="cls-71" cx="597.1" cy="912.63" rx="12.21" ry="13.76"/>
    <path class="cls-84" d="M251.26,1125.56c30.39,0,60.78,0,91.16,0,48.07,0,96.13,0,144.2,0,11.13,0,22.25,0,33.38,0,1.31,0,4.93-.65,4.93-2.65,0-11.93,0-23.87,0-35.8,0-28.65,0-57.3,0-85.95,0-34.49,0-68.97,0-103.46,0-29.97,0-59.94,0-89.91v-29.54c0-4.58.61-9.63,0-14.18-.03-.2,0-.42,0-.61,0-1.24-1.08-1.9-2.27-1.9-30.39,0-60.78,0-91.16,0-48.07,0-96.13,0-144.2,0-11.13,0-22.25,0-33.38,0-1.31,0-4.93.65-4.93,2.65,0,11.93,0,23.87,0,35.8,0,28.65,0,57.3,0,85.95,0,34.49,0,68.97,0,103.46,0,29.97,0,59.94,0,89.91,0,9.85,0,19.69,0,29.54,0,4.52-.71,9.7,0,14.18.03.19,0,.42,0,.61,0,3.31,7.2,1.96,7.2-.75,0-11.93,0-23.87,0-35.8,0-28.65,0-57.3,0-85.95,0-34.49,0-68.97,0-103.46,0-29.97,0-59.94,0-89.91v-29.54c0-3.1,0-6.2,0-9.31,0-1.43.38-3.48,0-4.87-.05-.18,0-.43,0-.61-1.64.88-3.28,1.76-4.93,2.65,30.39,0,60.78,0,91.16,0,48.07,0,96.13,0,144.2,0,11.13,0,22.25,0,33.38,0l-2.27-1.9c0,11.93,0,23.87,0,35.8,0,28.65,0,57.3,0,85.95v103.46c0,29.97,0,59.94,0,89.91,0,9.85,0,19.69,0,29.54,0,3.1,0,6.2,0,9.31,0,1.43-.38,3.48,0,4.87.05.18,0,.43,0,.61,1.64-.88,3.28-1.76,4.93-2.65-30.39,0-60.78,0-91.16,0-48.07,0-96.13,0-144.2,0-11.13,0-22.25,0-33.38,0-1.44,0-4.11.44-4.7,2.06-.54,1.48.47,2.49,2.04,2.49Z"/>
    <ellipse class="cls-71" cx="470.9" cy="911.49" rx="12.21" ry="13.76"/>
    <path class="cls-84" d="M228.57,1120.19H-40.17l2.21,1.67v-121.75c0-34.49,0-68.97,0-103.46s0-59.94,0-89.91v-38.84c0-1.43.38-3.49,0-4.87-.05-.18,0-.43,0-.61l-4.96,2.53H225.82l-2.21-1.67v344.65c0,4.5-.74,9.73,0,14.18.03.19,0,.42,0,.61,0,3.07,7.17,1.6,7.17-.85v-344.65c0-4.5.74-9.73,0-14.18-.03-.19,0-.42,0-.61,0-1.21-1.1-1.67-2.21-1.67H-40.17c-1.17,0-4.96.67-4.96,2.53v121.75c0,34.49,0,68.97,0,103.46s0,59.94,0,89.91v29.54c0,4.5-.74,9.73,0,14.18.03.19,0,.42,0,.61,0,1.21,1.1,1.67,2.21,1.67H225.82c2.78,0,7.57-4.2,2.75-4.2Z"/>
    <path class="cls-35" d="M770.77,886.31c-2.6-48.29-2.48-148.86-2.48-197.09l1.59-131.13c9.53-2.58.85-12.85,1.34-15.55,4.29.66-5.39,6.03-1.01,6.37,14.3,1.11,28.76.5,42.92-1.26,29.31-3.64,57.23-12.11,83.99-21.6,10.6-3.76,21.06-7.72,31.49-11.73,0,0-6.46,3.1-6.47,3.11,11.01-5.29,24.93,6.88,31.31,15.14,19.16,24.81,26.25,61.06,28.17,92.86,1.98,32.84-10.5,64.57-13.5,96.97-10.17,109.72-17.76,235.66-17.76,235.66,0,0-33.44,13.21-105.48,10.22-16.02-.67-69.02-8.09-69.02-8.09-1.29-17.55-3.82-50.3-5.09-73.88Z"/>
    <path class="cls-59" d="M713.72,396.79s.05.06.17.14c1.03-5.23,1.17-6.19-.17-.14Z"/>
    <path class="cls-59" d="M835.94,269.55c.41.64,5.08,4.52,7.67,5.01-1.98,5.91-.11,22.58-4.81,26.91-8.89,8.17-30.46,32.41-42.46,33.32-10.68.81-37.12-8.53-26.33-36.13,2.54-7.43,4.29-8.77,4.32-10.01.08-3.75-9-25.69-9-25.69l57.76-38.43s.51,25.79,12.86,45.03Z"/>
    <path class="cls-83" d="M773.19,285.25s4.4-4.83,8.57-6.8c4.17-1.97,11.71-2.96,28.95-23.85-.15.18,0,1.32-.03,1.57-.12,1.47-.46,2.92-.92,4.32-1.79,5.47-5.46,10.18-9.6,14.08-3.13,2.95-6.57,5.56-10.22,7.82-3.4,2.1-6.88,3.98-10.75,4.97-1.13.29-2.27.53-3.43.69-.29.04-1.74.67-1.79.42l-.8-3.24Z"/>
    <path class="cls-59" d="M725.87,157.99c-.04.17-.11.34-.18.51.08-.09.16-.18.24-.27l-.06-.24ZM715.17,163.57l.05.2c.15-.19.28-.38.4-.57-.06-.24-.46.37-.46.37ZM821.6,231.02l.38-4.3c6.88,6,14.39-1.6,12.64-11.92,1.65-5.72,1.63-23.53-3.73-27.86l-.68-.66c-3.46-1.63-8.95-1.47-10.28,2.94-.34,1.86.73,3.87.39,5.73-.28,2.1-2.2,6.4-3.06,8.4,0,0-3.83-9.4-4.75-13.97-.92-4.58-7.43-16.82-17.12-21.14,0,0-3.89-15.97-8.75-19.78l-1.42-.14c-.78.2-1.23.57-2.01.78-.06-.24.13-.54.01-1.02-1.17.81-2.27.84-3.3,1.11.2-.3.65-.68.59-.91-.97.51-2.07.54-3.11.81.2-.3.59-.91.53-1.15-1.17.81-2.07.54-3.1.81.2-.31.33-.85.27-1.09-.91.74-2.01.78-3.04,1.05.2-.31.33-.85.53-1.15-1.17.81-2.07.54-3.1.81-.26.07.39-.61.33-.85-.71.44-1.75.71-2.53.91-.06-.24.39-.61.33-.85-1.43.88-2.33.61-3.36.88l.53-1.15c-.85.98-1.88,1.25-2.98,1.28.19-.3.59-.91.53-1.15-1.11,1.05-2.6,1.69-4.01,1.55.26-.07.59-.91.53-1.15-1.05,1.29-2.14,1.32-3.43,1.66.2-.3.33-.85.73-1.46-1.3,1.36-2.99,2.3-4.73,2,.26-.07.33-.85.27-1.08-.79,1.22.85-.47-.51-.38,0,0-2.73,1.73-2.79,1.49-.85.98,1.68-4.74.39-4.4.13-.54-7.31,2.38-6.91,1.77-1.05,1.29-.91.73-2.52.9,0,0-4.63,4.24-4.44,3.94-.98,1.52-1.83.68-3.44.85.2-.3,1.19.75,1.39.45-.79,1.22-.76-.06-2.05.28-.06-.24-4.63-.44-4.69-.68-1.11,1.05-.66,1.04-2.21,1.45-.06-.24-.29,2.87-.09,2.56-.79,1.22-.94.43-2.3.53l-1.05,1.22c-.98,1.52.66.54-.96.71-.04-.16,6.03-.78,6.19-1.15-.81.9-1.83,1.82-2.95,2.34-.06-.24.07-.78.01-1.02-.79,1.22-2.15,2.34-3.77,2.5.26-.07.39-.61.33-.85-.98,1.52-2.35,2.64-4.09,2.33-.8,1.01-1.93,2.06-3.19,2.61-.19-.71.27-1.08.27-1.08l-1.03.27c-.8,2.24-1.66,4.24-1.55,6.74,0,0-4.74,15.14-2.19,23.86,2.55,8.71,7.29,24.09,8.54,27.82,1.08,3.23,1.47,7.73,1.62,11.29.68,16.11,7.85,21.71,15.07,29.97,3.23,3.69,7.02,6.7,10.51,10.08,3.86,3.74,7.47,7.61,12.22,10.25,4.91,2.72,11.89,1.64,17.7.42,16.22-3.43,31.32-18.65,38.86-31.63"/>
    <path class="cls-61" d="M708.73,181.94c2.67-15.46,18.27-27.29,49.93-39.8,31.66-12.51,60.34-7.21,60.34-7.21-27.42-42.88-74.53-28.95-85.13-26.19-10.59,2.76-54.51,58.3-26.51,92.46l2.44,2.64s-1.56-19.08-1.08-21.9Z"/>
    <path class="cls-61" d="M824.87,123.01s-3.73-30.37-27.72-34.63c-32.05-5.7-72.61-1.33-78.74,32.47l106.46,2.16Z"/>
    <path class="cls-100" d="M840.49,194.98c1.75-3.01-.66-9.63.68-12.84,6.98-16.82,0-29.7-6.19-36.81-2.7-3.1-1.83-9.99-2.82-13.06-5.15-16.12-7.16-16.13-35.85-26.58-23.35-8.5-44.64-2.3-56.88,1.6-19.61,6.25-28.05,9.77-31.33,25.69-.43,2.08.55,2.53.37,4.95-.26,3.41-4.7,5.8-4.48,9.99,0,0,28.19,3.61,53.16,9.73,24.96,6.12,75.77,41.77,77.76,55.91.06.44,3.65-15.24,5.58-18.57Z"/>
    <path class="cls-61" d="M843.33,166.95s-61.09-45.64-102.22-35.34c0,0,62.16-17.24,95.34,14.59l.95,1.37c2.5,3.61,4.34,7.62,5.44,11.87l.5,7.51Z"/>
    <path class="cls-76" d="M825.9,222.78c2.55-.4,4.27,1.31,5.1,3.35,1.48,3.67-1.72,7.65-5.53,6.58-.15-.04-.29-.09-.44-.14,0,0,5.17,3.68,8.36-.03s.37-7.99-1.26-8.93c-3.63-2.09-6.23-.82-6.23-.82Z"/>
    <path class="cls-20" d="M808.48,185.4l7.4,22.73,5.46-12.31s-9.17-7.48-12.86-10.42Z"/>
    <path class="cls-82" d="M828.37,206.46c.26,2.18.03,4.67-1.16,6.57-.22.36-.68,1.08-1.18,1.03s-.93-.73-1.09-1.12c-.45-1.1-.2-2.42-.05-3.56.13-.94.39-2.11-.01-3.02-.57-1.29-2.27-1.01-3.37-.74l.64.45c1.14-2.23,2.28-4.46,3.41-6.69.29-.56-.85-.57-1.07-.13-1.14,2.23-2.28,4.46-3.41,6.69-.21.4.38.51.64.45.52-.13,1.31-.36,1.8,0,.35.26.4.76.42,1.16.04,1.29-.34,2.56-.37,3.85-.03,1.2.22,2.45,1.29,3.16,1.23.82,2.5-.02,3.23-1.08,1.44-2.08,1.7-4.86,1.42-7.3-.06-.51-1.19-.24-1.12.3h0Z"/>
    <g>
      <path class="cls-34" d="M750.44,243.21c2.04.53,4.7-.41,6.19-2.06.33-.37,1.72-.46,1.26.06-1.96,2.18-5.83,3.34-8.47,2.65-.26-.07-.27-.27-.01-.44.27-.18.75-.28,1.03-.21"/>
      <path class="cls-34" d="M758.53,240.46c1.04-.91,2.3-1.58,3.61-2.04.19-.07.47-.05.65.05.14.08.2.22.08.34-.52.54-1.27.9-1.99,1.07-.23.06-.55.07-.73-.1-.17-.16.02-.34.2-.39.6-.14,1.18-.43,1.61-.87.24.13.48.26.73.39-1.17.41-2.3,1.02-3.23,1.83-.18.16-.51.17-.73.1-.17-.05-.37-.22-.19-.39"/>
      <path class="cls-34" d="M763.9,239.26c1.56-.45,3.21-1.65,3.65-3.11.67-2.2-1.2-4.92-3.48-5.62-.25-.08-.18-.28.02-.38.26-.14.63-.11.89-.03,1.98.61,3.74,2.79,3.95,4.64.2,1.72-1,3.27-2.75,4.24-.52.29-1.09.54-1.67.71-.24.07-.68.1-.85-.07-.17-.17.02-.31.25-.38"/>
      <path class="cls-34" d="M747.35,243.1c.03-.21-.15-.3-.28-.26-.42.12-.89.11-1.33-.11-.09.22-.18.43-.27.65.87-.12,1.8-.05,2.7.3.18.07.38-.06.48-.21.08-.12.13-.35-.05-.42"/>
      <path class="cls-34" d="M748.6,243.04c-1.01-.38-2.04-.45-3.02-.32-.14.02-.3.15-.37.31-.05.13-.03.28.1.34"/>
      <path class="cls-34" d="M744.15,244.18c-1.03.22-2.42-.19-3.25-1.32-1.25-1.7-1.14-4.13-.18-5.67.1-.17-.01-.32-.17-.33-.2-.02-.39.15-.5.33-.83,1.34-1.1,3.25-.47,4.98.59,1.62,1.87,2.53,3.22,2.69.4.05.81.04,1.2-.04.16-.03.41-.18.44-.4.02-.22-.14-.27-.29-.24"/>
    </g>
    <path class="cls-20" d="M723.51,215.39c-1.63-.37-3.32.72-4.05,1.8-.17.25-.44.96-.47,1.98-.04,1.3.8,2.54,1.77,3.17,1.3.85,3.03.6,4.17-.34,1.54-1.28,1.56-3.54.72-4.96-.15-.26-.84-1.35-2.15-1.64"/>
    <path class="cls-20" d="M738.95,216s-8.42-3.68-12.09-3.1c-5.35.84-11.02,5.41-12.19,8.48,0,0,7.37-6.54,11.16-7.02,3.62-.46,13.12,1.65,13.12,1.65Z"/>
    <path class="cls-20" d="M766.75,204.06c1.24-1.12,3.6-1.52,4.76-.93.27.14,1.01.54,1.54,1.41.67,1.11.54,2.61,0,3.63-.72,1.37-2.36,2-3.81,1.74-1.97-.36-3.09-2.32-3.05-3.97,0-.3-.42-.77.58-1.67"/>
    <path class="cls-20" d="M761.04,209.41s6.58-7.08,10.44-8.21c5.62-1.64,13.25-.09,15.79,2.14,0,0-10.19-2.56-14.12-1.3-3.76,1.21-12.11,7.36-12.11,7.36Z"/>
    <path class="cls-20" d="M714.18,215.3c-.18.04-.35.12-.53.24-.27-.16-.54-.34-.8-.51-.16-.13-.31-.28-.45-.43-.03-.04-.05-.09-.08-.14-.34-2.21-.01-3.97.02-4.15,0,0,.44-2.47,2.27-5.19,1.26-1.87,5.52-6.21,12.18-10.84.72.82,1.45,1.64,2.18,2.46.55.63,1.1,1.25,1.65,1.88-2.55,1.33-4.64,2.58-6.19,3.55-3.27,2.06-4.94,3.13-6.34,4.88-1.48,1.84-2.38,3.8-2.72,4.56-.48,1.08-.82,1.79-1.05,2.83-.07.31-.09.58-.13.86Z"/>
    <path class="cls-20" d="M754.94,185.43c0,1.09.02,2.19.03,3.28,0,.84.02,1.67.04,2.5,3.32-.72,6.17-1.19,8.32-1.49,4.54-.65,6.87-.97,9.51-.61,2.77.38,5.13,1.24,6.05,1.58,1.29.48,2.15.78,3.19,1.4,2.24,1.35,3.17,2.88,3.53,2.74.33-.12-.22-1.47-.28-1.6-1.42-3.38-4.55-5.37-4.79-5.53,0,0-2.36-1.54-6.15-2.34-2.61-.55-9.84-.93-19.44.07"/>
    <path class="cls-62" d="M733.17,423.56c-1.03,14.55-3.52,30.34,7.85,41.5,3.73,3.66,8.15,7.71,12.55,10.52,2.15,1.38,6.92,1.63,8.48,3.61,11.32,14.37,4.96,55.73,4.44,93.07,0,0,53.41,10.83,96.35,8.5,42.94-2.33,99.06-43.97,99.06-43.97-21.09-36.02-31.8-53.71-31.8-53.71l6.19-88.43-1.71-14.64c-5.94-37.92-19.35-81.7-42.37-89.32l-54.1-19.29s-10.56,44.83-46.8,44.83c-30.66,0-16.88-26.92-16.88-26.92,0,0-35.4,19.58-42.98,27.44-7.58,7.86-17.25,12.05-21.79,47.77-3.05,24.03-8.6,64.85-10.11,69-1.51,4.15,31.14-3.67,31.14-3.67"/>
    <path class="cls-60" d="M728.64,385c3.68,3.98,4.63,9.55,4.25,14.8-.42,5.75-1.14,11.47-1.55,17.22-.38,5.28-.46,10.6-.53,15.89-.15,10.6,2.85,21.41,9.04,30.07,5.44,7.62,13.18,13.12,21.77,16.67.58.24,1.69-.59.85-.94-7.9-3.27-15.06-8.24-20.31-15.05-3.92-5.08-6.66-10.98-8.24-17.19-1.09-4.3-1.66-8.74-1.65-13.18,0-1.05.06-2.1.13-3.15.03-.45.02-.87.02-1.34-.05-3.25.06-6.49.25-9.73.39-6.48,1.23-12.92,1.69-19.39.39-5.42-.58-11.2-4.38-15.31-.43-.46-1.8.11-1.33.63h0Z"/>
    <path class="cls-60" d="M877.79,302.6c-7.31,2.73-13.01,9.28-16.57,16.04-1.86,3.54-2.91,7.16-3.42,11.11-.59,4.64-1.02,9.31-1.15,14-.2,7.18.39,14.36,2.16,21.33,1.62,6.37,4.14,12.45,6.79,18.44,3.92,8.87,7.95,17.68,11.45,26.73.06.17.48.09.59.07,2.39-.5,4.78-1.01,7.18-1.51.56-.12,1.29-.74.27-.53-2.39.5-4.78,1.01-7.18,1.51l.59.07c-3.09-8-6.56-15.82-10.07-23.64-2.68-5.98-5.36-11.99-7.26-18.27-1.93-6.38-2.92-12.97-3.08-19.63-.1-4.15.09-8.3.45-12.43.38-4.34.66-8.86,2.12-13,1.5-4.27,3.92-8.26,6.83-11.71s6.52-6.67,10.81-8.28c.96-.36.05-.53-.5-.32h0Z"/>
    <path class="cls-83" d="M874.71,1049.1c-1.71-20.37-4.81-40.56-7.09-60.86-.74-6.57-1.38-13.15-1.93-19.74-.04-.49-1.71-.15-1.66.45,1.71,20.56,4.81,40.92,7.13,61.41.72,6.39,1.35,12.78,1.89,19.19.04.49,1.71.15,1.66-.45h0Z"/>
    <path class="cls-104" d="M757.72,251.52c6.08-1.86,20.69-2.02,24.15-.34,0,0-5.38,7.22-19.47,11.53-14.09,4.31-16.63-1.29-16.63-1.29,0,0,4.21-7.54,11.94-9.9Z"/>
    <path class="cls-43" d="M775.3,250.16s-7.42,1.59-13.19,3.35c-5.77,1.76-12.8,4.59-12.8,4.59,0,0-2.32-4.29,8.13-7.49,10.46-3.2,17.86-.46,17.86-.46Z"/>
    <path class="cls-94" d="M761.78,262.98c6.29-3.01,12.25-9.96,20.1-11.8,0,0,.7,12.32-15.86,17.38-16.56,5.06-20.23-7.14-20.23-7.14,7.54-2.86,9.1,2.58,16,1.56Z"/>
    <path class="cls-94" d="M749.46,250.23c3.39-1.34,6.03-.61,7.54-1.07,1.51-.46,3.29-2.54,6.85-3.33,3.34-.74,19.71,3.51,18.5,5.07-1.21,1.57-13.79-1.38-24.27,1.82-10.47,3.2-10.43,9.32-12.31,8.69-1.88-.63.49-9.94,3.67-11.19Z"/>
    <path class="cls-59" d="M895.88,393.62c-.49.47-5.83-3.42-7.2-1.9-1.07,1.18,22.34,29.78,21.36,28.85-18.26-17.35-37.4-41.05-56.84-57.65-.56,32.84,25.81,118.04,70.32,110.99,21.77-3.45,21.89-29.81,10.53-91.8-10.01,2.29-13.89,7.96-38.19,11.51Z"/>
    <path class="cls-59" d="M921.73,422.4c-4.49-3.78-42.94-51.46-42.94-51.46l-44.06-62.77-22.1,9.03s34.13,97.97,47.23,117.88c42.98,65.31,76.7,28.49,76.7,28.49"/>
    <path class="cls-60" d="M695.44,460.68c.87.13,1.77.76,2.5,1.22,1.54.99,2.92,2.21,4.12,3.59,2.45,2.81,4.56,5.94,6.32,9.21,3.51,6.53,5.63,13.75,6.22,21.14.04.51,1.5.19,1.45-.39-.61-7.71-2.9-15.22-6.67-21.97-1.89-3.38-4.13-6.77-6.86-9.53-1.14-1.15-2.43-2.18-3.82-3.02-.7-.42-1.54-.95-2.38-1.07-.49-.07-1.71.7-.88.82h0Z"/>
    <path class="cls-83" d="M548.61,460.42c.01-3.83-1.56-7.57-4.43-10.15-1.56-1.41-3.32-1.86-5.38-1.98-2.26-.14-4.53-.04-6.77.28-.34.05-.88.23-.92.65s.44.55.76.5c2-.28,4.02-.4,6.05-.29.93.05,1.89.1,2.79.39s1.66.87,2.33,1.52c2.49,2.39,3.91,5.79,3.9,9.24,0,.83,1.68.56,1.68-.14h0Z"/>
    <path class="cls-83" d="M540.13,448.49c-.32-1.38-.65-2.76-.97-4.14-.09-.37-.69-.34-.96-.26-.28.08-.79.32-.7.71.32,1.38.65,2.76.97,4.14.09.37.69.34.96.26.28-.08.79-.32.7-.71h0Z"/>
    <path class="cls-83" d="M562.69,456.09c-.21-1.72-1.49-2.93-2.85-3.87-1.55-1.06-3.21-2.08-5.16-1.96-1.02.06-2,.33-2.99.55-.54.12-1.46.41-1.96.07-.36-.25-.51-.88-.73-1.25-.88-1.48-2.35-2.46-4.02-2.84-.35-.08-.84.07-1.16.23-.13.06-.58.3-.22.38,1.79.4,3.23,1.59,4.03,3.23.35.72.71,1,1.53,1,.97,0,1.93-.22,2.87-.44,1.22-.28,2.35-.49,3.55.02.83.35,1.61.85,2.36,1.34,1.46.95,2.86,2.16,3.08,3.98.03.26,1.71-.06,1.66-.45h0Z"/>
    <path class="cls-83" d="M560.12,429.72c-.72-1.07-1.36-2.36-2.22-3.32-.51-.56-1.04-.52-1.74-.4-1.4.24-2.68.32-4.08-.04-1.07-.28-2.06-1.06-3.17-1.12-1.04-.06-2.17.42-3.15.68-1.31.35-2.62.68-3.94,1.01-2.71.67-5.42,1.29-8.15,1.88-1.03.22-.75,1.25.28,1.03,2.49-.53,4.98-1.1,7.45-1.7,1.08-.26,2.16-.54,3.24-.82.62-.16,1.23-.32,1.85-.49.53-.14,1.26-.49,1.81-.47.93.03,2.06.87,3,1.1.87.21,1.76.31,2.65.3.49,0,.97-.04,1.45-.12.21-.04.42-.08.63-.12.32-.21.45-.18.42.09.4.24.81,1.21,1.07,1.6l1.07,1.6c.38.57,1.98-.03,1.53-.7h0Z"/>
    <path class="cls-49" d="M532.23,521.69c3.22-35.89,22.32-68.55,28.33-104.08.55-3.27.98-6.68-.02-9.84-1.01-3.16-3.85-5.96-7.16-5.87-2.86.08-5.31,2.3-6.55,4.89-1.23,2.59-1.5,5.51-1.78,8.36-3.56,36.22-13.17,71.55-23.13,106.56"/>
    <path class="cls-59" d="M565.97,430.9c-11.5,1.83-23.29-2.61-34.8-.87-2.04.31-4.12.84-5.76,2.09s-2.77,3.35-2.36,5.38c.47,2.34,2.73,3.85,4.92,4.8,2.99,1.3,6.21,2.03,9.47,2.16,5.94.23,12.3-1.47,17.57,1.28,2.11,1.1,3.81,2.82,5.64,4.33,3.82,3.13,8.36,5.38,13.16,6.53"/>
    <path class="cls-83" d="M566.13,430.65c-7.73,1.17-15.46-.39-23.16-1.03-3.72-.31-7.48-.41-11.19.1-2.9.4-6.06,1.19-8.05,3.5-1.86,2.17-2.09,5.13-.09,7.29,2.11,2.28,5.57,3.36,8.51,4.03,3.29.75,6.61.74,9.96.55,3.69-.21,7.62-.6,11.15.79s6.28,4.72,9.52,6.85,6.83,3.66,10.58,4.58c.57.14,1.96-.71,1-.95-3.24-.8-6.34-2.06-9.2-3.79s-5.05-3.99-7.68-5.9c-5.4-3.91-11.98-2.5-18.18-2.45-3.5.03-6.97-.58-10.21-1.92-2.63-1.09-5.8-3.12-5.14-6.43.75-3.74,4.82-4.82,8.08-5.22,3.5-.43,7.04-.31,10.54,0,7.77.67,15.55,2.18,23.35,1,.82-.12,1.35-1.16.21-.98h0Z"/>
    <circle class="cls-48" cx="675.19" cy="202.35" r="16.01"/>
    <rect class="cls-70" x="505.3" y="152.79" width="100.56" height="64.09" transform="translate(-24.61 106.01) rotate(-10.67)"/>
    <rect class="cls-77" x="493.08" y="159.65" width="116.84" height="74.46" rx="7.03" ry="7.03" transform="translate(-14.44 46.47) rotate(-4.76)"/>
    <path class="cls-5" d="M501.48,164.83h98.37c1.76,0,3.19,1.43,3.19,3.19v57.16c0,1.76-1.43,3.19-3.19,3.19h-98.37c-1.76,0-3.19-1.43-3.19-3.19v-57.16c0-1.76,1.43-3.19,3.19-3.19Z" transform="translate(-14.42 46.4) rotate(-4.76)"/>
    <rect class="cls-32" x="577.53" y="179.94" width="39.61" height="22.26" rx="5.51" ry="5.51" transform="translate(-13.8 50.25) rotate(-4.76)"/>
    <circle class="cls-95" cx="590.62" cy="191.72" r="6.15"/>
    <path class="cls-18" d="M113.12,83.7c2.51-1.43,5.16-2.62,7.89-3.56.27-.09.72-.43.48-.74s-.91-.13-1.2-.03c-2.88.99-5.66,2.26-8.3,3.77-.27.16-.51.52-.15.72s.95.03,1.28-.16h0Z"/>
    <path class="cls-39" d="M111.15,83.97c.82-.19,1.6-.54,2.35-.9s1.53-.74,2.32-1.06c1.58-.64,3.23-1.12,4.9-1.45.16-.03.43-.19.38-.38-.05-.21-.38-.17-.52-.14-1.7.34-3.36.83-4.97,1.47-.79.31-1.57.67-2.33,1.05s-1.47.72-2.27.9c-.16.04-.43.18-.38.38s.38.17.52.14h0Z"/>
    <path class="cls-65" d="M74.86,108.23l-.43,12.15c-.02.45.34.83.78.84l97.95,3.47c.14,0,.28-.03.41-.09l24.66-12.83c.75-.39.47-1.53-.37-1.53l-1.2.51c-.13,0-.26.03-.38.09l-21.88,11.52c-.56.29-1.22-.13-1.19-.76l.35-6.84c.02-.3.19-.56.46-.69l24.52-11.71c.76-.36.53-1.5-.31-1.55l-94.26-3.66c-.11,0-.22.01-.32.05l-28.24,10.29c-.31.11-.52.4-.53.74Z"/>
    <path class="cls-103" d="M81.22,96.86l-.37,10.53,97.57,3.46,24.43-11.71c.67-.32.46-1.32-.28-1.34l-.88-.03-23.49,11.27.29-8.32,25.37-11.03c.69-.3.5-1.33-.26-1.36l-91.92-3.43-30.46,11.98Z"/>
    <path class="cls-69" d="M68.03,96.6l.37-10.34c.01-.36.27-.67.62-.74l45.25-9.58c.06-.01.13-.02.19-.02l88.41,2.37c.89.03,1.05,1.28.2,1.54l-36,10.82c-.33.1-.56.4-.56.75l-.06,6.83c0,.55.58.43,1.09.23l33.04-11.84c.12-.05.25-.06.38-.04l2.25-.4c.81.11.93,1.23.17,1.52l-36.42,13.14c-.1.04-.2.05-.3.05l-97.89-3.47c-.43-.02-.77-.38-.76-.81Z"/>
    <path class="cls-68" d="M159.38,89.84c0,.11-20.1-.51-44.86-1.39-24.76-.88-44.85-1.68-44.85-1.79s20.08.5,44.86,1.38c24.78.88,44.85,1.66,44.85,1.8Z"/>
    <polygon class="cls-43" points="200.81 80.72 200.78 86.55 166.55 98.82 166.52 90.82 200.81 80.72"/>
    <g>
      <line class="cls-43" x1="167.46" y1="96.76" x2="199.57" y2="85.56"/>
      <path class="cls-39" d="M167.54,97.09c9.38-3.27,18.77-6.55,28.15-9.82,1.32-.46,2.64-.92,3.96-1.38.67-.23.51-.9-.18-.66-9.38,3.27-18.77,6.55-28.15,9.82-1.32.46-2.64.92-3.96,1.38-.67.23-.51.9.18.66h0Z"/>
    </g>
    <g>
      <line class="cls-43" x1="177.24" y1="90.32" x2="200.62" y2="82.53"/>
      <path class="cls-39" d="M177.32,90.62c6.83-2.27,13.65-4.55,20.48-6.82.97-.32,1.93-.64,2.9-.97.67-.22.53-.82-.16-.59-6.83,2.27-13.65,4.55-20.48,6.82-.97.32-1.93.64-2.9.97-.67.22-.53.82.16.59h0Z"/>
    </g>
    <polygon class="cls-43" points="201.94 90.58 201.68 97.75 178.19 109.02 178.49 100.7 201.94 90.58"/>
    <g>
      <line class="cls-43" x1="184.01" y1="102.83" x2="201.31" y2="94.78"/>
      <path class="cls-39" d="M184.34,102.89c5.05-2.35,10.11-4.7,15.16-7.05l2.14-1c.68-.32-.39-.25-.66-.13-5.05,2.35-10.11,4.7-15.16,7.05l-2.14,1c-.68.32.39.25.66.13h0Z"/>
    </g>
    <g>
      <line class="cls-43" x1="179.2" y1="102.25" x2="196.97" y2="94.6"/>
      <path class="cls-39" d="M179.41,102.42c5.19-2.23,10.39-4.47,15.58-6.7l2.19-.94c.74-.32.05-.54-.42-.34-5.19,2.23-10.39,4.47-15.58,6.7-.73.31-1.46.63-2.19.94s-.05.54.42.34h0Z"/>
    </g>
    <line class="cls-7" x1="176.4" y1="101.23" x2="168.22" y2="100.94"/>
    <polygon class="cls-43" points="196.61 103.28 196.45 110.76 173.12 123.03 173.57 114.28 196.61 103.28"/>
    <g>
      <line class="cls-43" x1="174.54" y1="117.33" x2="195.72" y2="106.79"/>
      <path class="cls-39" d="M174.7,117.53c2.38-1.19,4.76-2.37,7.15-3.56l11.4-5.67c.88-.44,1.75-.87,2.63-1.31.47-.23.05-.58-.32-.39-2.38,1.19-4.76,2.37-7.15,3.56-3.8,1.89-7.6,3.78-11.4,5.67-.88.44-1.75.87-2.63,1.31-.47.23-.05.58.32.39h0Z"/>
    </g>
    <g>
      <line class="cls-43" x1="174.17" y1="119.51" x2="196.53" y2="108.38"/>
      <path class="cls-39" d="M174.33,119.7c2.52-1.25,5.03-2.5,7.55-3.76l12.04-5.99c.93-.46,1.85-.92,2.78-1.38.47-.23.04-.55-.32-.37-2.52,1.25-5.03,2.5-7.55,3.76-4.01,2-8.03,3.99-12.04,5.99-.93.46-1.85.92-2.78,1.38-.47.23-.04.55.32.37h0Z"/>
    </g>
    <g>
      <line class="cls-43" x1="180.29" y1="112.66" x2="196.66" y2="104.63"/>
      <path class="cls-39" d="M180.45,112.86c1.85-.91,3.7-1.82,5.55-2.73l8.8-4.32c.67-.33,1.35-.66,2.02-.99.47-.23.05-.57-.32-.39-1.85.91-3.7,1.82-5.55,2.73l-8.8,4.32c-.67.33-1.35.66-2.02.99-.47.23-.05.57.32.39h0Z"/>
    </g>
    <path class="cls-27" d="M82.03,112.82c-.08.66.2,1.1.41,1.71.25.71.72,1.24,1.51,1.24,1.75,0,2.29-2.06,3.36-3.07l-.85.36s1.84,3.02,2.04,3.32c.33.5,1.42.02,1.68-.33.82-1.1,1.64-2.19,2.46-3.29l-1.56.42c1.23.84.66,3.03,2.62,3.05.69,0,1.36-.27,1.84-.75.24-.24.96-1.7,1.21-1.71l-.79-.28c.52,1.13,1.15,2.29,2.48,2.57.54.11,1.1.06,1.62-.12.21-.07.39-.16.57-.27.1-.06.2-.13.3-.21.34-.23.31-.29-.08-.16l-.49-.17c.35.3.34.82.75,1.09.33.22.78.23,1.16.19.51-.06.99-.26,1.44-.49.78-.38,1.32-.52,2.2-.45.72.06,1.91-.97.69-1.06-.9-.07-1.77-.07-2.62.25-.22.08-1.07.67-1.28.62-.33-.07-.36-.59-.58-.8-.48-.45-1.28-.28-1.8,0-.41.22-.7.62-1.23.4-.66-.27-1.05-1.27-1.32-1.87-.14-.3-.5-.29-.79-.28-1.4.07-2.06,1.15-2.74,2.22-.17.26-.17.11.02.2-.14-.06-.26-.29-.33-.42-.16-.27-.24-.6-.35-.9-.24-.64-.5-1.15-1.08-1.54-.44-.3-1.28.04-1.56.42-.82,1.1-1.64,2.19-2.46,3.29l1.68-.33c-.85-1.3-2.55-5.32-4.55-3.08-.29.32-.44.71-.74,1.02-.26.27-.67.53-.75.93-.24.28-.18.35.16.19.4.01.42-.12.06-.41-.04-.23-.13-.5-.21-.71-.14-.39-.36-.59-.31-1,.09-.74-1.73-.43-1.81.21h0Z"/>
    <path class="cls-56" d="M84.4,101.97c-.3,2.07,2.38,2.25,3.58,1.2.07-.06.5-.46.44-.56l-.8.14c.08.05.16.11.23.18.2.21.47.43.73.56.73.37,1.72.15,2.28-.42.12-.13.28-.3.34-.46l.09-.14c-.51.06-.59.15-.25.28.33.28.83.44,1.25.49.86.11,2.09-.49,2.79.09.74.62,1.25.98,2.26.87.44-.05.86-.17,1.28-.3.37-.11.82-.34,1.21-.19s.92.06,1.28-.17c.21-.13.58-.54.16-.7-.8-.3-1.59-.21-2.41.02-.35.1-.75.3-1.11.32-.46.04-.66-.27-.99-.56-.68-.6-1.52-.64-2.39-.52-.42.06-.89.22-1.31.09s-.72-.45-1.14-.57c-.77-.22-1.7.05-2.21.67-.08.1-.24.29-.28.42-.18.21-.1.21.24.02.37-.03.44-.09.21-.2-.13-.2-.51-.45-.71-.58-.59-.36-1.38-.29-1.95.1-.18.12-.31.27-.44.44-.11.14-.31.34-.13.34.21,0-.22-.26-.3-.39-.14-.23-.18-.45-.14-.71.1-.7-1.72-.38-1.81.23h0Z"/>
    <line class="cls-3" x1="76.01" y1="109.18" x2="171.87" y2="113.47"/>
    <line class="cls-30" x1="200.78" y1="86.55" x2="200.99" y2="80.47"/>
    <line class="cls-30" x1="201.68" y1="97.89" x2="201.94" y2="90.58"/>
    <line class="cls-30" x1="196.45" y1="110.73" x2="196.71" y2="103.41"/>
    <rect class="cls-33" x="189.98" y="53.77" width="66.02" height="98.59" transform="translate(-7.93 19.28) rotate(-4.86)"/>
    <path class="cls-13" d="M254.25,140.02l-6.55-76.94c-.15.01-.31.02-.46.02-2.87,0-5.22-2.21-5.46-5.01l-43.85,3.73c.02.19.03.38.03.57,0,3.51-2.7,6.38-6.13,6.67l6.43,75.55c.23-.03.46-.05.69-.05,2.86,0,5.21,2.2,5.45,5l44.82-3.81c0-.09-.01-.18-.01-.27,0-2.87,2.22-5.23,5.03-5.46Z"/>
    <g id="freepik--Label--inject-3">
      <path class="cls-40" d="M236.75,138.89l-8.32,19.32c-.11.25,0,.53.25.64.13.06.27.06.4,0l6.41-2.83c.25-.11.54,0,.65.24,0,.02.02.04.02.05l2.16,6.49c.09.25.37.39.62.3.14-.05.25-.16.3-.3l7.82-20.84-10.31-3.08Z"/>
      <path class="cls-40" d="M247.59,142.12l3.98,20.66c.05.27.31.44.57.39.13-.03.25-.11.32-.22l3.71-5.94c.14-.23.45-.3.67-.16.01,0,.02.02.04.03l5.44,4.16c.22.16.52.12.69-.1.09-.12.12-.27.09-.41l-5.25-21.64-10.25,3.23Z"/>
      <polygon class="cls-37" points="247.99 105.03 250.72 103.02 252.87 105.64 256.01 104.38 257.44 107.45 260.8 107.01 261.41 110.34 264.78 110.75 264.54 114.13 267.7 115.36 266.64 118.57 269.39 120.55 267.56 123.4 269.73 126 267.25 128.31 268.71 131.36 265.73 132.98 266.39 136.3 263.1 137.13 262.9 140.51 259.52 140.49 258.49 143.72 255.21 142.86 253.41 145.73 250.45 144.08 247.99 146.41 245.54 144.08 242.58 145.73 240.78 142.86 237.5 143.72 236.47 140.49 233.08 140.51 232.89 137.13 229.6 136.3 230.25 132.98 227.27 131.36 228.73 128.31 226.25 126 228.42 123.4 226.6 120.55 229.35 118.57 228.28 115.36 231.44 114.13 231.21 110.75 234.57 110.34 235.19 107.01 238.55 107.45 239.97 104.38 243.12 105.64 245.26 103.02 247.99 105.03"/>
      <circle class="cls-43" cx="247.99" cy="124.72" r="15.35" transform="translate(-26.11 168.54) rotate(-35.78)"/>
      <path class="cls-37" d="M251.34,121.08l4.12.6c.45.07.76.48.7.94-.03.18-.11.35-.24.47l-2.98,2.9c-.2.19-.28.46-.24.73l.7,4.11c.08.45-.23.88-.68.95-.18.03-.36,0-.52-.08l-3.69-1.94c-.24-.13-.53-.13-.77,0l-3.69,1.93c-.4.21-.9.05-1.11-.35-.08-.16-.11-.34-.08-.52l.71-4.1c.05-.27-.04-.54-.23-.73l-2.98-2.91c-.33-.32-.33-.84-.02-1.17.13-.13.3-.22.48-.24l4.12-.59c.27-.04.5-.21.62-.45l1.85-3.73c.2-.41.7-.58,1.11-.37.16.08.29.21.37.37l1.83,3.74c.12.24.36.41.63.44Z"/>
    </g>
    <path class="cls-39" d="M206.09,129.62c0,.57-.01,1.13-.02,1.7,0,.54-.04,1.09,0,1.62.08.96.98,1.31,1.83,1.06.99-.29,1.38-1.23,1.95-1.99.15-.2.31-.4.49-.59.08-.09.16-.17.24-.25.04-.04.08-.08.13-.12.1-.09.24-.13-.02-.1-.22.02-.12.08-.06.26.03.08.05.17.07.25.06.2.1.41.15.61.21.83.49,1.64,1.33,2.01.22.1.59-.04.7-.25.45-.89,1-1.71,1.67-2.45.32-.35.65-.7,1.02-.99.21-.16.58-.43.86-.35.36.11.33.73.48,1,.18.34.51.56.88.67.98.29,1.9-.22,2.7-.74.16-.11.23-.33.05-.45-.19-.14-.48-.05-.65.06-.39.26-.86.6-1.35.58s-.75-.33-.86-.77c-.1-.4-.24-.75-.65-.91-.36-.14-.78-.09-1.14.03-.87.29-1.55,1.01-2.15,1.68-.69.77-1.28,1.64-1.74,2.57l.7-.25c-.81-.35-.9-1.53-1.1-2.27-.14-.51-.32-1-.96-.86-.55.12-1.01.72-1.35,1.13-.37.45-.65.98-1.01,1.44-.24.3-.67.71-1.07.4-.42-.33-.25-1.24-.24-1.69,0-.7.01-1.4.02-2.09,0-.46-.92-.32-.92.08h0Z"/>
    <line class="cls-10" x1="210.2" y1="78.34" x2="232.64" y2="76.76"/>
    <line class="cls-12" x1="200.85" y1="89.21" x2="240.5" y2="85.86"/>
    <line class="cls-12" x1="204.84" y1="136.49" x2="223.31" y2="135.15"/>
    <line class="cls-12" x1="201.26" y1="95.58" x2="243.93" y2="92.23"/>
    <line class="cls-12" x1="201.64" y1="102.11" x2="244.31" y2="98.76"/>
    <polyline class="cls-85" points="349 328.79 349 376.31 246.03 376.31 246.03 269.86 309.83 269.86"/>
    <polyline class="cls-54" points="221.21 265.9 154.44 265.9 150.96 269.63 148.39 272.26 145.84 274.75 140.71 280.27 131.55 290.46 118.99 303.94 117.38 305.8 115.53 307.66 110.63 312.74 104.2 319.81 88.41 336.76 103.67 336.84 108.06 332.36 138.05 337.93 141.94 333.01 143.59 333.22 143.59 336.76 157.95 333.98 159.16 340.2 243.09 340.2 251.26 328.26 251.26 321.96 255.84 318.17 265.82 313.14 268.86 303.35 277.76 292.96 286 292.17 311.28 265.9 246.06 265.9"/>
    <line class="cls-53" x1="344.12" y1="312.12" x2="338.76" y2="304.57"/>
    <polyline class="cls-53" points="330.12 292.83 325.7 286.19 311.28 265.9 305.59 271.74 351.61 336.76 361.62 336.76 349.12 319.15"/>
    <polygon class="cls-54" points="168.39 340.37 226.63 276.66 260.92 277.32 203.38 340.37 168.39 340.37"/>
    <polygon class="cls-54" points="111.36 330.28 164.38 270.96 202.05 267.23 145.13 330.28 111.36 330.28"/>
    <line class="cls-9" x1="167.77" y1="267.23" x2="100.87" y2="340.2"/>
    <line class="cls-9" x1="182.9" y1="267.23" x2="119.07" y2="339.45"/>
    <line class="cls-9" x1="202.63" y1="265.9" x2="136.69" y2="339.74"/>
    <line class="cls-9" x1="219.48" y1="266.46" x2="152.95" y2="339.46"/>
    <line class="cls-9" x1="233.97" y1="266.49" x2="168.39" y2="340.37"/>
    <line class="cls-9" x1="252.84" y1="266.62" x2="186.86" y2="340.07"/>
    <line class="cls-9" x1="270.25" y1="266.7" x2="203.38" y2="340.37"/>
    <line class="cls-9" x1="287.58" y1="266.78" x2="221.34" y2="339.46"/>
    <path class="cls-99" d="M165.52,298.54c-.21-4.8-.12-9.61.27-14.4,5.1,3.39,10.21,6.78,15.31,10.17.56.37,1.14.75,1.81.8.71.06,1.39-.27,2.03-.59,4.04-2.01,8.38-1.78,12.42-3.78-1.41,2.37-.52,7.63-.68,10.39,0,0,2.91,5.95,8.16,9.43-5.02-.88-10.08-1.52-15.17-1.91-2.21-.17-4.47-.29-6.59.32-2.38.69-4.41,2.24-6.37,3.76-2.9,2.24-5.8,4.49-8.69,6.73-2.56-2.57.58-8.15-2.47-10.12-.82-.53-1.84-.56-2.81-.59-5.63-.13-11.26-.26-16.89-.39,6.9-3.44,13.81-6.88,20.71-10.31"/>
    <polyline class="cls-2" points="321.88 294.76 317.46 301.33 311.28 301.8 302.89 299.84"/>
    <polyline class="cls-2" points="310.46 301.61 305.59 310.76 308.03 316.51"/>
    <polyline class="cls-2" points="204 348.17 220.1 355.13 226.06 351.65"/>
    <line class="cls-2" x1="317.46" y1="301.33" x2="317.46" y2="308.52"/>
    <polyline class="cls-2" points="204 340.39 204 347.07 194.78 356.49"/>
    <line class="cls-2" x1="198.82" y1="352.35" x2="191.1" y2="349.97"/>
    <line class="cls-2" x1="241.02" y1="371.12" x2="236.88" y2="376.87"/>
    <polygon class="cls-97" points="323.86 369.96 323.86 390.16 301.63 407.63 205.05 407.63 205.05 387.77 323.86 369.96"/>
    <polygon class="cls-52" points="300.92 388.06 205.05 388.06 232.58 369.96 323.86 369.96 300.92 388.06"/>
    <polygon class="cls-15" points="296.9 385.21 214.6 385.21 234.29 371.75 316.6 371.75 296.9 385.21"/>
    <polyline class="cls-14" points="205.05 401.09 301.61 401.09 323.86 383.33"/>
    <polyline class="cls-14" points="205.05 398.17 301.61 398.17 323.86 380.41"/>
    <polyline class="cls-14" points="205.05 394.65 301.61 394.65 323.86 376.89"/>
    <polyline class="cls-14" points="205.05 391.62 301.61 391.62 323.86 373.86"/>
    <polyline class="cls-14" points="205.05 404.18 301.61 404.18 323.86 386.43"/>
    <polygon class="cls-88" points="260.56 369.96 239.87 388.31 239.87 406.65 262.15 406.65 262.15 388.31 281.57 369.96 260.56 369.96"/>
    <rect class="cls-21" x="239.87" y="388.31" width="22.29" height="19.33"/>
    <path class="cls-72" d="M289.88,412.51c-2.35-.72-5.52-1.17-9.06-1.17s-6.74.45-9.11,1.17h-4.12v2.85h.06c0,.06-.06.13-.06.19,0,2.33,5.92,4.22,13.23,4.22s13.12-1.89,13.12-4.22v-3.04h-4.06Z"/>
    <ellipse class="cls-102" cx="280.82" cy="412.51" rx="13.23" ry="4.22"/>
    <path class="cls-72" d="M320.06,411.8c-2.35-.72-5.52-1.17-9.06-1.17s-6.74.45-9.11,1.17h-4.12v2.85h.06c0,.06-.06.13-.06.19,0,2.33,5.92,4.22,13.23,4.22s13.12-1.89,13.12-4.22v-3.04h-4.06Z"/>
    <ellipse class="cls-102" cx="310.99" cy="411.8" rx="13.23" ry="4.22"/>
    <path class="cls-72" d="M322.99,406.89c-2.35-.72-5.52-1.17-9.06-1.17s-6.74.45-9.11,1.17h-4.12v2.85h.06c0,.06-.06.13-.06.19,0,2.33,5.92,4.22,13.23,4.22s13.12-1.89,13.12-4.22v-3.04h-4.06Z"/>
    <ellipse class="cls-102" cx="313.93" cy="406.89" rx="13.23" ry="4.22"/>
    <path class="cls-72" d="M288.44,406.77c-2.35-.72-5.52-1.17-9.06-1.17s-6.74.45-9.11,1.17h-4.12v2.85h.06c0,.06-.06.13-.06.19,0,2.33,5.92,4.22,13.23,4.22s13.12-1.89,13.12-4.22v-3.04h-4.06Z"/>
    <ellipse class="cls-102" cx="279.38" cy="406.77" rx="13.23" ry="4.22"/>
    <path class="cls-72" d="M292.4,402.88c-2.35-.72-5.52-1.17-9.06-1.17s-6.74.45-9.11,1.17h-4.12v2.85h.06c0,.06-.06.13-.06.19,0,2.33,5.92,4.22,13.23,4.22s13.12-1.89,13.12-4.22v-3.04h-4.06Z"/>
    <ellipse class="cls-102" cx="283.34" cy="402.88" rx="13.23" ry="4.22"/>
    <path class="cls-72" d="M290.75,397.15c-2.35-.72-5.52-1.17-9.06-1.17s-6.74.45-9.11,1.17h-4.12v2.85h.06c0,.06-.06.13-.06.19,0,2.33,5.92,4.22,13.23,4.22s13.12-1.89,13.12-4.22v-3.04h-4.06Z"/>
    <ellipse class="cls-102" cx="281.69" cy="397.15" rx="13.23" ry="4.22"/>
    <path class="cls-43" d="M1035.15,757.38c.02.1-4.12,2.5-4.12,2.61.35,6.58-5.39,10.32-5.99,16.76-.22,2.4-5.91,9.05-4.13,10.83,2.34,2.35,14.51,11.85,17.61,12.68,3.9,1.04,13.72-1.16,17.76-1.04,3.75.11,11.34-3.91,14.54-5.97,3.12-2,6.78-11.01,9.34-13.65,2.64-2.72,4.5-4.95,6.85-7.92,4.14-5.25,5.24-8.2,10.62-12.25-4.42-2.64-10.82-6.46-10.82-6.46,0,0-11.29,23.28-30.23,22.62-23.63-.83-15.27-19.75-15.27-19.75,0,0-1.86.26-6.16,1.55Z"/>
    <path class="cls-57" d="M1121.94,779.8s-9.66-11.54-19.09-17.23c-2.26-1.36-4.3-2.59-6.12-3.68-7.2,4.9-12.07,12.63-17.57,19.22-2.51,3.01-5.28,5.85-8.14,8.54-2.84,2.67-6.02,5.09-9.79,6.25-3.76,1.15-7.99.81-11.84.32-4.12-.52-8.22-1.42-12.14-2.82-3.14-1.12-6.3-2.56-8.08-5.54-1.52-2.55-1.58-5.58-1.17-8.44.82-5.64,5.31-16.54,6.65-18.69-5.99,2-14.92,5.58-19.42,9.41-7.32,6.24-8.78,50.37-10.59,61.9-3,19.1,100.36.82,100.36.82,0,0,11.04-21.74,14.07-33.59,3.03-11.86,2.87-16.47,2.87-16.47Z"/>
    <path class="cls-59" d="M961.71,796.02c3.3,1.86,8.03,6.82,10.85,9.44,3.33,3.46,6.53,12.24,6.53,12.24l13.3,7.15,2.31,22.81-20.42-9.65-15.11,2.49s-23.02-7.17-25.48-10.33c-2.46-3.16-3.9-11.74-3.9-11.74-3.83-3.62-2.5-10.43-2.5-10.43-4.6-7.95.89-7.26.89-7.26-.22-.24-.37-.52-.44-.83-.79-3.33,3.43-5.05,5.61-2.52,3.68,4.21,8.71,9.78,9.61,9.89.9.11,6.85,1.85,12.05,3.38,2.63.91,5.89-.1,6.54-2.74.06-.25,1.18-1.89-.54-3.43"/>
    <path class="cls-83" d="M947.53,816.93c-4.4-.8-8.59-2.72-11.67-6-1.36-1.45-2.55-3.06-3.52-4.79-1.08-1.93-2.1-3.94-2.65-6.1-.19-.73-1.83-.29-1.64.44.56,2.21,1.61,4.25,2.71,6.23,1.08,1.96,2.43,3.76,4,5.35,3.26,3.31,7.65,5.19,12.19,6.01.78.14,1.67-.95.58-1.15h0Z"/>
    <path class="cls-83" d="M946.64,823.22c-2.75-.6-5.56-1.2-7.99-2.69-2.24-1.37-3.88-3.46-5.35-5.59-1.67-2.41-3.66-4.81-4.85-7.49-.19-.44-1.79.09-1.64.44,1.19,2.7,3.19,5.09,4.87,7.52,1.53,2.22,3.23,4.38,5.56,5.78,2.47,1.48,5.29,2.1,8.06,2.71.37.08.83,0,1.15-.19.13-.08.57-.4.19-.48h0Z"/>
    <path class="cls-83" d="M944.13,829.08c-1.39-.42-2.76-.91-4.13-1.41-1.54-.57-3.41-1.01-4.59-2.2s-2.21-2.59-3.05-4.04c-.4-.69-.76-1.41-1.14-2.12-.09-.18-.2-.35-.28-.53-.01-.02-.07-.18-.09-.2-.11-.08.16-.24-.07.09l-.44.33h.02c.24-.11.66-.39.43-.69-.21-.28-.83-.15-1.09-.03-.4.18-.6.42-.45.83.19.54.56,1.06.83,1.56.94,1.77,2,3.44,3.35,4.93.58.64,1.2,1.22,1.99,1.6.91.43,1.89.75,2.84,1.11,1.61.6,3.24,1.19,4.89,1.69.55.17,1.92-.64,1-.92h0Z"/>
    <path class="cls-59" d="M1088.73,874.81c-.96-4.46-14.82-15.83-16.87-20.06-3.52-7.26-3.37,1.23-6.47-6.23l-86.3-30.82,5.3,24.11c1.01.77-.37.43.65,1.18,2.71,1.98,10.92,6.62,13.68,8.52,3.95,2.72,7.94,5.36,11.98,7.93,4.71,2.99,10.71,8.6,15.58,11.33,11.92,6.67,28.11,14.8,42.35,13.17,1.14-.13,12.7-2.19,20.09-9.12Z"/>
    <path class="cls-83" d="M955.23,840.19c1.72.89,4.06.73,5.93.69,2.89-.06,5.78-.34,8.66-.59,2.22-.19,4.59-.57,6.82-.32.96.11,1.7.75,2.51,1.24,1.51.92,3.03,1.83,4.55,2.73,3.39,2.02,6.8,4.03,10.23,5.98.45.25,1.86-.41,1.53-.6-3.06-1.74-6.09-3.52-9.11-5.31-1.58-.94-3.15-1.88-4.72-2.82-.99-.6-2.03-1.47-3.12-1.84-1.68-.57-3.9-.17-5.62-.04-2.92.22-5.83.52-8.75.69-2.3.13-5.43.58-7.57-.52-.4-.21-1.91.41-1.33.71h0Z"/>
    <path class="cls-59" d="M1099.07,781.42c-2.36,6.74-27.61,51.57-35.98,68.68.86,2.76,6.03.74,7.09,3.43,2.44,6.23,5.21,12.37,6.89,18.86.66,2.53,1.11,5.09,1.38,7.65,2.7-.75,5.31-1.87,7.64-3.3,8.31-5.11,14.56-18.12,19.44-26.16,7.77-14.71,16.58-32.53,21.81-43.15l-5.41-27.63c-19.83-13.13-22.87,1.62-22.87,1.62Z"/>
    <path class="cls-43" d="M1104.92,771.72c-5.27,2.25-10.07,5.54-13.85,9.84-.03.03-.05.06-.08.09-6.33,7.22-10.97,15.74-15.55,24.19-1.81,3.34-7.67,15.27-5.65,18.5.76,1.22,1.98,2.08,3.16,2.91,13.29,9.32,31.35,17.68,47.55,16.67l2.57-7.34c6.03-13.05,10.85-25.75,9.35-40.05-1.04-9.9-10.85-17.61-14.86-22.17-7.1-5.96-7.05-5.03-12.64-2.64Z"/>
    <path class="cls-83" d="M1062.78,847.89c2.11,5.19,3.17,10.76,3.06,16.36-.01.66,1.65.32,1.66-.22.11-5.69-.91-11.32-3.06-16.59-.23-.56-1.87-.06-1.66.45h0Z"/>
    <path class="cls-59" d="M789.59,256.45c-.02,5.43,8.67,17.59,8.67,17.59,0,0-.86,34.44.92,41.36.44,1.71,14.54,7.94,16.9,12.49,7.19,13.9,10.7,20.88,10.7,20.88l19.05-19.67-7.88-14.3.56-35.26-3.09-33.39-21.03-19.63c-.17.1-.33.22-.47.35-1.34,1.19-1.46,3.25-.26,4.59l-8.16-6.69c-5.66,4.37,2.82,15.77,2.82,15.77l-9.9-9.53c-4.86,5.01,1.1,13.14,1.1,13.14l10.22,14.76s.89,10.4.21,13.88c-.68,3.48-1.09,7.15-1.09,7.15l-2.75-11.47-14-19.7s-2.48,2.26-2.5,7.68Z"/>
    <path class="cls-83" d="M799.2,315.26c-1.02-4.07-.89-8.56-1-12.72-.15-5.79-.14-11.59-.09-17.38.03-3.57.13-7.14.17-10.71,0-.78-.44-1.21-.88-1.86-1.48-2.18-2.89-4.42-4.18-6.72-1.5-2.68-3.27-5.77-3.57-8.9-.24-2.48.38-6.09,2.32-7.89l-1.45.13c2.86,4.02,5.72,8.04,8.57,12.06,1.57,2.21,3.14,4.42,4.72,6.63.18.26.37.51.55.77.11.17.18.31.11.15.35.89.47,1.96.7,2.9.68,2.84,1.37,5.69,2.05,8.53.17.72,1.6.33,1.67-.29.28-2.52.78-4.99,1.15-7.5.32-2.16.22-4.4.14-6.57-.07-1.98-.19-3.96-.33-5.93-.05-.74-.05-1.15-.46-1.74-3.31-4.78-6.64-9.54-9.92-14.34-2.43-3.54-4.53-8.92-1.17-12.55l-1.33.24c3.57,3.04,7.14,6.08,10.71,9.11.45.38,1.92-.22,1.4-.83-1.41-1.67-2.64-3.54-3.65-5.48-1.37-2.63-3.01-6.87-.19-9.16l-1.19.11c2.82,2.08,5.63,4.16,8.45,6.25.46.34,1.93-.19,1.4-.83-1.03-1.25-1.27-2.76.23-3.77l-1.19.11c3.5,2.77,6.99,5.53,10.49,8.3.56.44,2.02-.36,1.29-.94-3.5-2.77-6.99-5.53-10.49-8.3-.33-.26-.89-.09-1.19.11-1.96,1.32-2.12,3.43-.66,5.21l1.4-.83c-2.82-2.08-5.63-4.16-8.45-6.25-.32-.24-.9-.12-1.19.11-5.19,4.2.22,12.29,3.41,16.08l1.4-.83c-3.57-3.04-7.14-6.08-10.71-9.11-.36-.31-1.06-.06-1.33.24-5.1,5.51.2,12.53,3.56,17.38l6.55,9.46c.3.43.59.87.9,1.3.06.09.16.19.21.3.07.17-.07-.2-.02.02.33,1.52.24,3.27.32,4.81.13,2.57.27,5.19.02,7.76-.26,2.74-.92,5.46-1.23,8.2l1.67-.29c-.6-2.51-1.2-5.02-1.81-7.52-.35-1.45-.45-3.28-1.33-4.52-3.38-4.76-6.76-9.52-10.15-14.27-1.18-1.66-2.36-3.33-3.55-4.99-.34-.47-1.13-.17-1.45.13-1.54,1.44-2.24,3.9-2.51,5.9-.41,3.05.45,5.69,1.74,8.43,1.3,2.77,2.85,5.41,4.5,7.98.57.89,1.15,1.76,1.74,2.63.15.22.3.53.49.71.21.2.1.27.07-.06.07.88-.04,1.82-.06,2.71-.04,2.08-.07,4.15-.1,6.23-.07,5.84-.09,11.69.02,17.53.06,3.01.15,6.02.34,9.03.13,1.99.23,4.05.72,5.99.19.74,1.85.3,1.66-.45h0Z"/>
    <path class="cls-83" d="M822.71,274.94c.49-.32.42-1.11.43-1.62.04-1.53-.02-3.07-.08-4.6-.12-3.35-.3-6.7-.51-10.04-.1-1.53-.2-3.05-.3-4.58-.02-.29.02-.69-.05-.98-.14-.56-.69-.95-1.08-1.37-2.4-2.56-4.82-5.1-7.31-7.58-1.19-1.18-2.38-2.36-3.61-3.49-.55-.5-1.2-1.29-2.04-1.05-1.02.29-.72,1.43.3,1.14-.81.23-.73-.24-.33.19.14.15.32.28.48.41.64.57,1.26,1.17,1.87,1.77,1.27,1.23,2.51,2.48,3.75,3.74,1.42,1.45,2.82,2.92,4.22,4.39.61.65,1.65,1.41,2.06,2.19-.09-.17,0,.12.02.21.05.25.04.54.05.8.25,3.79.5,7.58.67,11.37.08,1.8.16,3.61.2,5.41.01.73.03,1.46,0,2.2,0,.22-.05.47-.03.69.04.43-.28.35.18.04-.94.62.42,1.2,1.1.76h0Z"/>
    <path class="cls-83" d="M830.39,264.24c.54-.36.44-1.11.45-1.68.03-1.54-.03-3.08-.08-4.61-.11-3.41-.29-6.82-.5-10.22-.07-1.1.17-2.19-.65-2.96-1.01-.96-2.02-1.92-3.04-2.88-2.53-2.37-5.07-4.73-7.65-7.04-1.31-1.18-2.63-2.36-4.02-3.45-.55-.43-1.14-1-1.9-.77-.98.31-.76,1.24.25.92-.95.3-.67-.2-.33.19.16.19.45.33.64.49.62.49,1.21,1,1.81,1.51,1.42,1.23,2.81,2.48,4.2,3.75,2.76,2.51,5.49,5.05,8.18,7.63.14.14.65.49.71.62.13.23.03.72.05.99.03.56.07,1.12.1,1.68.12,2.05.23,4.1.33,6.15.08,1.75.15,3.51.2,5.26.02.93.05,1.86.03,2.8,0,.28-.07.62-.03.9.05.36-.27.47.19.16-.93.63.48.96,1.05.57h0Z"/>
    <path class="cls-83" d="M747.03,198.7c-4-.9-6.73-5.59-5.66-9.52.26-.95-1.39-1-1.6-.23-1.31,4.78,1.89,9.95,6.7,11.03.86.19,1.65-1.03.56-1.28h0Z"/>
    <path class="cls-62" d="M896.39,391.51c-.49.47-5.83-3.42-7.2-1.9-1.07,1.18,22.34,29.78,21.36,28.85-18.26-17.35-37.4-41.05-56.84-57.65-.56,32.84,25.81,118.04,70.32,110.99,21.77-3.45,21.89-29.81,10.53-91.8-10.01,2.29-13.89,7.96-38.19,11.51Z"/>
    <path class="cls-62" d="M922.24,420.29c-4.49-3.78-42.94-51.46-42.94-51.46l-36.44-52.54-35.11,18.55s36.83,91.69,52.49,109.65c57.33,65.76,78.83,19.97,78.83,19.97"/>
    <path class="cls-60" d="M918.29,440.68c.21-10.01-2.81-19.73-7.37-28.56-2.29-4.43-4.95-8.66-7.78-12.77-2.14-3.1-4.27-6.35-6.72-9.22-5.58-6.52-11.49-12.78-17.23-19.16-3.01-3.35-5.25-7.42-7.73-11.17-5.77-8.71-11.53-17.42-17.3-26.14l-7.53-11.38c-1.31-1.98-2.52-4.13-3.98-6.01-.07-.09-.13-.19-.19-.29-.18-.27-.75-.19-.97-.07-10.56,5.72-21.12,11.44-31.69,17.16-1.47.8-2.95,1.6-4.42,2.39-.16.09-.52.31-.42.56,3.22,7.61,6.51,15.19,9.83,22.75,6.85,15.63,13.84,31.21,21.16,46.63,3.53,7.43,7.12,14.84,10.92,22.14,2.81,5.41,5.68,10.84,9.04,15.93,2.75,4.16,5.96,8.05,9.28,11.77,4.12,4.61,8.6,8.92,13.52,12.67,7.08,5.41,15.19,9.68,23.95,11.52s18.4,1.49,26.29-2.57c.17-.09.34-.18.5-.27.85-.48-.39-.87-.93-.56.32-.18-.17.09-.28.14-.38.19-.76.36-1.15.53-1.41.61-2.84,1.08-4.33,1.48-5.11,1.36-10.47,1.62-15.71.96-20.43-2.59-37.2-18.51-48.66-34.57-3.21-4.5-5.85-9.42-8.45-14.29-3.73-7-7.23-14.12-10.66-21.27-7.33-15.29-14.31-30.76-21.15-46.27-2.62-5.93-5.21-11.88-7.77-17.83-.82-1.9-1.64-3.81-2.45-5.71-.44-1.02-.79-2.18-1.34-3.15-.07-.12-.12-.27-.17-.4l-.42.56c10.56-5.72,21.12-11.44,31.69-17.16,1.47-.8,2.95-1.6,4.42-2.39l-.97-.07c3.18,4.8,6.36,9.61,9.54,14.41,5.8,8.76,11.6,17.53,17.4,26.29,2.14,3.23,4.27,6.46,6.41,9.69.73,1.1,1.4,2.31,2.24,3.33,2.41,2.91,5.07,5.64,7.6,8.45,3.17,3.53,6.35,7.06,9.52,10.59.99,1.1,1.86,2.18,2.75,3.37,3,4.03,5.94,8.12,8.62,12.38,5.4,8.58,9.78,18,11.19,28.12.35,2.52.5,5.06.44,7.6-.01.69,1.45.43,1.46-.14h0Z"/>
    <g class="cls-19">
      <g class="cls-105">
        <path class="cls-47" d="M1270.66,173.82c-3.97-34.49-22.01-70.18-50.07-71.61,4.22-38.37-38-68.2-75.29-63.05-9.25,1.28-17.88,4.43-25.59,9.05-18.46-16.72-42.93-25.38-68.57-21.84-30.66,4.23-46.39,17.2-59.48,45.22-7.79-1.45-15.91-1.7-24.15-.56-45.13,6.23-84.12,59.08-78.43,108.52,3.7,32.13,20.41,53.82,45.43,66.41.04.36,1.31,1.05,1.36,1.41,3.02,26.22,15.37,48.72,37.09,63.52,28.36,19.33,75.52,21.21,101.19-6.9,16.72,14.45,38.52,21.84,61.32,18.69,27.67-3.82,50.39-22.27,62.52-47.36,2.75-.08,5.53-.3,8.32-.69,45.13-6.23,70.06-51.37,64.37-100.81Z"/>
        <g>
          <path class="cls-62" d="M1140.38,327.16c-.07-.21-9.01-35.94-9.06-36.11-1.81-5.61-1.19-18.07,1.54-23.41,1.88-3.68.91-2.4,2.95-5.98,3.2-5.61,3.45-16.46,3.83-22.27.34-5.27,1.94-16.49-1.03-26.07-5.64-18.17-17.96-36.1-17.96-36.1l-20.5-5.53-39.75,1.59s-36.14,10.02-36.14,10.02c-.58,3.04-.23,6.53-.3,9.6-.16,6.8-.3,13.59-.44,20.39-.14,7.1-.28,14.2-.42,21.3-.12,6.53-1.06,13.66,1.69,19.76.34.74.71,1.47,1.12,2.18,1.99,3.44,7.17,8.12,7.41,12.09.47,7.87-4.33,50.1-6.6,58.54"/>
          <path class="cls-62" d="M989.21,297.95c-5.87,1.19-10.78.06-16.15-2.59-5.1-2.51-7.88-12.29-6.01-18.79,4.48-15.59,21.94-44.42,27.24-55.14,5.3-10.72,12.91-32,27.61-38.37,13.94-6.04,33.52-10.74,33.52-10.74,0,0-6.85,43.95-22.65,65.02l-3.68-.91-11.95,25.84,37.16-.91-.22,25.11-64.88,11.47Z"/>
          <path class="cls-62" d="M1120.69,177.22l15.01,4.76s8.19,2.37,14.5,9.3c6.3,6.94,14.74,19.16,21.08,26.36,4.71,5.35,25.5,18.75,27.03,26.09,1.53,7.33.48,27.82-9.65,28.81,0,0-53.21-53.04-53.81-52.83-.6.21-5.8,5.17-5.8,5.17,0,0-5.86-14.48-8.53-22.21-2.67-7.73.17-25.45.17-25.45Z"/>
          <path class="cls-62" d="M1113.82,214.26s27.61,12.65,39.41,13.46c11.8.8,26.32,3.17,32.24,8.32,5.92,5.15,5.92,36.04,5.92,36.04,0,0-5.81,3.2-18.95-1.19-13.14-4.39-68.52-30.82-68.52-30.82l9.9-25.81Z"/>
          <g>
            <path class="cls-59" d="M1054.61,264.48s8.89-9.42,10.38-11.85c1.49-2.43,4.84-8.75,6.3-9.02,1.46-.26,2.02,2.36,1.87,5.01-.15,2.65-5.07,7.25-4.06,8.43,1.01,1.18,22.66.37,26.27.32,3.6-.05,13.57.42,12.73,5.08,0,0,4.66.93,4.47,2.96-.2,2.02-.67,2.73-.67,2.73,0,0-.01,3.72-3.22,4.18-3.21.46-5.35.24-5.35.24,0,0,2.07,1.75-.6,3.68-2.67,1.93-16.69,3.78-16.69,3.78,0,0-7.22,4.24-12.62,4.26-5.4.03-17.51-2.3-17.51-2.3l-1.29-17.52Z"/>
            <path class="cls-98" d="M1110.35,262.5c-.54-.38-1.49-.47-2.13-.62-1.06-.25-2.13-.46-3.2-.65-2.28-.4-4.58-.69-6.88-.87s-4.82-.25-7.22-.18c-1.06.03-2.12.08-3.18.17-.71.06-1.61.03-2.26.35-.89.45-.08.96.58.63s1.99-.19,2.69-.23c.91-.05,1.82-.08,2.72-.09,2.19-.02,4.38.06,6.57.24s4.2.45,6.28.82c.82.15,1.64.31,2.46.49.69.15,1.85.24,2.43.66.4.29,1.73-.3,1.15-.72h0Z"/>
            <path class="cls-98" d="M1112.61,267.77c-.15-.25-.79-.29-1.02-.34-.89-.17-1.8-.29-2.7-.41-3.6-.47-7.23-.75-10.86-.94-3.87-.21-7.74-.4-11.62-.53-1.04-.04-2.09-.08-3.14-.07-.52,0-1.13-.05-1.54.34-.63.6.79.69,1.18.32-.56.54-.78.21-.19.26.35.03.71,0,1.06.01,1.18.02,2.36.07,3.54.11,3.55.14,7.1.31,10.65.51,3.19.18,6.38.43,9.56.81.92.11,1.84.23,2.75.39.26.04.52.11.78.15.3.04.32.19.21,0,.27.47,1.68-.02,1.34-.6h0Z"/>
            <path class="cls-98" d="M1105.9,272.39c-.21-.24-.9-.24-1.18-.29-.96-.16-1.93-.27-2.9-.37-2.23-.23-4.46-.37-6.7-.44-2.02-.06-4.04-.07-6.06,0-1,.04-2.98-.18-3.79.61-.25.24.22.3.36.3.32,0,.73-.14.97-.36-.59.23-.72.32-.39.26.13-.01.27-.03.41-.04.38-.03.76-.05,1.14-.07.79-.04,1.57-.06,2.36-.08,1.87-.03,3.73,0,5.6.09,1.73.08,3.46.2,5.19.38.79.08,1.59.18,2.38.29.27.04,1.14.09,1.26.23.27.3,1.64-.2,1.36-.52h0Z"/>
          </g>
        </g>
        <path class="cls-92" d="M990.68,264.43c8.24-2.18,17.23-2.73,25.67-1.9.71.07,1.48-.95.5-1.05-8.7-.85-17.95-.29-26.44,1.96-.89.24-.63,1.22.26.98h0Z"/>
        <path class="cls-92" d="M1029.64,262.48c6.99.07,13.98.15,20.97.22l3.03.03-.67-.36c.92,3.37,1.32,6.81,1.66,10.3.26,2.65.52,5.36.3,8.02-.12,1.52-.52,2.99-.62,4.51.01-.23-.03.81.02.76-.05.07-.85.16-.86.16l-1.28.24c-1.24.23-2.48.46-3.71.7-2.54.49-5.06,1.03-7.56,1.69-2.77.73-5.55,1.58-8.46,1.45-.73-.03-1.47,1.05-.49,1.1,4.9.23,9.67-1.73,14.41-2.71,2.45-.51,4.91-.96,7.37-1.42.61-.12,1.39-.15,1.78-.72.5-.74.33-2.23.44-3.11.18-1.36.46-2.64.49-4.02.03-1.47-.05-2.93-.16-4.4-.2-2.8-.54-5.59-.93-8.37-.22-1.58-.54-3.02-.96-4.56-.08-.29-.41-.36-.67-.36-6.99-.07-13.98-.15-20.97-.22l-3.03-.03c-.84,0-1.1,1.1-.12,1.11h0Z"/>
        <path class="cls-59" d="M1099.38,169.55c-.4-1.28-.05-11.81-.05-11.81l-20.08,3.09-20.08-3.09s.4,11.2,0,12.48c-.4,1.28-5.95,2.82-5.95,2.82,0,0,5.9,14.98,31.84,12.24,19.89-2.1,20.73-12.11,20.73-12.11,0,0-6-2.34-6.4-3.62Z"/>
        <path class="cls-106" d="M1059.21,158.53c.32.24,2.64,3.31,2.98,3.55,8.25,5.84,9.48,7.44,16.6,7.73,7.12-.29,10.18-1.27,17.84-8.41,2.58-2.41,2.01-3.21,2.58-3.66-12.8-.03-27.18.7-40,.79Z"/>
        <path class="cls-59" d="M1046.25,118.38s-3.85-5.91-6.04-5.68c-1.33.14,1.74,3.13,2.12,6.52.51,4.53-2.84,5.11-1.79,7.68,1.05,2.56,2.42,11.51,5.94,11.13,1.39-.15,2.82-3.24,2.82-3.24,0,0-1.92-12.37-3.06-16.41Z"/>
        <path class="cls-78" d="M1045.09,134.94c-1.59.18-3.14,1.27-3.32,2.95-.08.73.12,1.46.55,2.06.36.49.78.75,1.34.96,1.17.43,2.5.22,3.52-.47.22-.15.4-.47.1-.65s-.76-.07-1.03.11c-.06.04-.19.12-.22.14-.05.03-.1.05-.15.07-.15.06-.07.03-.04.02-.05.02-.1.03-.15.04-.02,0-.15.03-.02,0-.05,0-.1.01-.14.02-.02,0-.19.01-.12.01s-.06,0-.08,0c-.04,0-.09,0-.13,0s-.09,0-.13-.01c-.11-.01.08.02-.02,0-.16-.03-.32-.07-.47-.13-.03-.01-.06-.02-.1-.04.02,0,.1.04,0,0-.05-.02-.1-.05-.15-.07-.07-.04-.14-.08-.21-.12-.05-.03-.1-.08-.02,0-.13-.11-.24-.23-.35-.36-.33-.41-.54-.98-.54-1.47,0-.28.05-.55.14-.82.02-.07.07-.17.13-.3.03-.05.06-.1.09-.15.02-.03.04-.06.06-.09,0,0,.1-.14.03-.05.1-.12.21-.23.32-.34.09-.08.01-.01,0,0,.03-.03.07-.05.11-.08.07-.05.14-.09.2-.13-.12.08-.05.03-.02.01.05-.02.1-.05.15-.07.03-.01.07-.03.1-.04.13-.06-.09.01,0,0,.08-.01.17-.05.25-.07.04-.01.14-.01-.02,0,.06,0,.12-.02.18-.02.29-.03.76-.2.81-.53s-.41-.41-.65-.38h0Z"/>
        <path class="cls-59" d="M1110.4,118.19s3.24-6.27,5.43-6.26c1.34,0-1.42,3.29-1.45,6.7-.05,4.56,3.34,4.8,2.55,7.46-.79,2.66-1.25,11.69-4.79,11.67-1.4,0-3.14-2.94-3.14-2.94,0,0,.66-12.5,1.39-16.63Z"/>
        <path class="cls-59" d="M1115.15,121.9s0,.02,0,.02c-.78,3.96-1.75,8.13-2.41,12.91-1.76,12.62-5.52,18.42-14.09,23.99-8.98,5.84-11.68,8.12-19.43,8.41-7.76-.29-10.45-2.56-19.43-8.41-8.57-5.57-12.33-11.37-14.08-23.99-.39-2.81-.89-5.41-1.38-7.88-.37-1.83-.74-3.6-1.08-5.32,0-.03-.01-.05-.02-.07,0-.02,0-.02,0-.02-1.24-6.33-1.99-12.18-.29-19.24,1.75-7.3,7.78-16.36,16.97-22.08h0s.01,0,.01,0c5.42-3.37,11.93-5.58,19.31-5.58,19.91,0,33.52,16.05,36.3,27.67,1.72,7.19.91,13.13-.36,19.6Z"/>
        <path class="cls-34" d="M1081.78,138.27c-1.05.67-2.64.56-3.67-.18-.23-.16-1.01.02-.69.25,1.36.98,3.64,1.01,5,.15.13-.09.11-.21-.05-.27-.17-.06-.45-.04-.59.05"/>
        <path class="cls-34" d="M1076.9,137.99c-.83-.39-1.77-.6-2.7-.67-.14,0-.31.04-.41.13-.08.07-.1.16,0,.22.43.25.98.35,1.48.34.16,0,.37-.04.46-.18.08-.13-.07-.21-.19-.2-.42,0-.84-.07-1.19-.28-.14.12-.27.23-.41.35.83.06,1.67.26,2.41.61.15.07.36.02.49-.05.1-.06.21-.19.06-.27"/>
        <path class="cls-34" d="M1073.24,138.11c-.92-.03-2-.5-2.45-1.31-.68-1.23-.05-2.7,1.1-3.48.12-.09.06-.2-.07-.23-.17-.04-.36.03-.49.12-1,.69-1.65,1.8-1.5,2.96.14,1.08,1.02,1.83,2.12,2.15.33.09.68.16,1.02.17.14,0,.39-.05.46-.17.07-.13-.06-.19-.19-.19"/>
        <path class="cls-34" d="M1082.87,137.99c.83-.39,1.77-.6,2.7-.67.14,0,.31.04.41.13.08.07.1.16,0,.22-.43.25-.98.35-1.48.34-.16,0-.37-.04-.46-.18-.08-.13.07-.21.19-.2.42,0,.84-.07,1.19-.28.14.12.27.23.41.35-.83.06-1.67.26-2.41.61-.15.07-.36.02-.49-.05-.1-.06-.21-.19-.06-.27"/>
        <path class="cls-34" d="M1086.53,138.11c.92-.03,2-.5,2.45-1.31.68-1.23.05-2.7-1.1-3.48-.12-.09-.06-.2.07-.23.17-.04.36.03.49.12,1,.69,1.65,1.8,1.5,2.96-.14,1.08-1.02,1.83-2.12,2.15-.33.09-.68.16-1.02.17-.14,0-.39-.05-.46-.17-.07-.13.06-.19.19-.19"/>
        <path class="cls-29" d="M1088.46,110.79c.05.72.1,1.43.16,2.15.04.55.08,1.09.13,1.64,1.96-.6,3.64-1.02,4.91-1.3,2.69-.6,4.07-.9,5.66-.77,1.68.14,3.12.61,3.68.8.79.26,1.32.43,1.97.8,1.4.8,2.02,1.76,2.23,1.66.19-.09-.19-.95-.23-1.04-.99-2.16-2.95-3.34-3.1-3.44,0,0-1.48-.92-3.78-1.3-1.59-.26-5.93-.23-11.62.8"/>
        <path class="cls-29" d="M1071.79,120.27s-4.92,3.57-7.43,3.81c-3.67.34-8.19-1.54-9.49-3.22,0,0,5.98,2.81,8.56,2.5s8.36-3.08,8.36-3.08Z"/>
        <path class="cls-29" d="M1070.92,110.27c0,.72-.01,1.44-.02,2.16,0,.55-.01,1.1-.02,1.64-1.99-.47-3.7-.78-4.98-.98-2.72-.43-4.12-.64-5.7-.4-1.66.25-3.08.81-3.63,1.04-.77.31-1.29.51-1.91.92-1.35.89-1.9,1.89-2.12,1.8-.2-.08.13-.96.17-1.05.85-2.22,2.73-3.53,2.87-3.63,0,0,1.41-1.01,3.69-1.54,1.57-.36,5.9-.61,11.65.05"/>
        <path class="cls-29" d="M1088.67,120.2s4.92,3.57,7.43,3.81c3.67.34,8.19-1.54,9.49-3.22,0,0-5.98,2.81-8.56,2.5s-8.36-3.08-8.36-3.08Z"/>
        <path class="cls-74" d="M1037.19,88.6s16.4-8,37.38-5.34c20.98,2.66,31.07,15.92,34.61,25.37,3.55,9.46,3.88,18.98,3.88,18.98,0,0,5.15,2.61,8.9-16.6,5.46-28-25.16-52.71-31.96-52.71s-43.06-1.02-52.81,30.3Z"/>
        <path class="cls-74" d="M1040.95,80.43s-3.52-22.07,11.7-26.21c15.21-4.14,47.24-11.55,56.6,8.61l-68.29,17.6Z"/>
        <path class="cls-73" d="M1040.17,125.77c-1.58-1.6-2.73-3.57-3.35-5.73-1.7-5.96-4.65-18.28-1.93-23.74,1.18-2.38,1.66-9.48,1.77-11.56.59-10.93-2.01-7.59,13.36-20,15.37-12.41,18.02-8.99,41.07-7.51,23.05,1.48,29.66,8.95,27.88,30.54,0,0-31.03-8.92-45.66-1.02-14.63,7.91-30.39,33.39-29.32,42.56.03.29-2.06-1.77-3.82-3.54Z"/>
        <path class="cls-74" d="M1034.11,107.28s23.46-29.99,50.89-30.27c0,0-35.11-4.58-50.68,20.77l-.39,2.93c-.17,1.31-.2,2.64-.07,3.96l.25,2.61Z"/>
        <path class="cls-74" d="M1119.47,80.7s-27.11-9.86-37.5-10.71c-10.39-.85,32.85.8,36.99,5.51l.5,5.2Z"/>
        <path class="cls-43" d="M1089.01,147.37c0,1.06-4.86,1.92-9.12,1.92s-9.12-.86-9.12-1.92,4.86-1.92,9.12-1.92,9.12.86,9.12,1.92Z"/>
        <path class="cls-78" d="M1113.42,136.12c.08,0,.17,0,.25.01.13,0,.05,0,.02,0,.04,0,.08.01.12.02.16.03.31.07.4.11.27.11.5.24.7.42.43.38.71.86.81,1.42s0,1.14-.27,1.61c-.11.19-.25.35-.37.49-.07.08.12-.08.05-.04-.03.02-.06.04-.09.06-.09.06-.19.12-.29.17.18-.1-.03.01-.08.03-.06.02-.27.09-.1.04-.1.03-.19.06-.29.08.16-.04-.06,0-.12.01-.13.02-.05,0-.02,0-.07,0-.14,0-.21,0-.08,0-.12,0-.23-.03-.24-.05-.45-.14-.67-.26-.3-.16-.76-.04-1.03.13-.21.13-.43.42-.12.58.98.53,2.09.51,3.12.15.53-.19,1.07-.48,1.44-.91.98-1.13,1.01-2.84-.04-3.94-.64-.67-1.55-.98-2.45-.99-.32,0-.77.11-.96.4s.16.44.4.44h0Z"/>
        <path class="cls-94" d="M1080.1,145.49c-5.24,0-11.88.11-11.88.11,0,0-.27,13.45,11.89,13.45s12.31-13.6,12.31-13.6c0,0-7.07.05-12.31.05Z"/>
        <path d="M1080.15,145.49c-2.49,0-11.09.15-11.09.15,0,0,1.86,8.06,10.87,8.06,9.77,0,11.36-8.46,11.36-8.46l-11.14.25Z"/>
        <path class="cls-55" d="M1080.26,145.85c-2.49,0-10.08-.41-10.08-.41,0,0,2.73,2.65,10.21,2.65s9.85-2.58,9.85-2.58l-9.98.33Z"/>
        <path class="cls-94" d="M1088.48,144.03c-1.01-.28-2.05-.32-3.1-.4-2.55-.19-4.17.79-5.28.79s-2.73-.98-5.28-.79c-.86.06-1.69.41-2.52.66-1.13.35-1.49.42-3.01.94-.38.13-.69.25-1.07.36,1.9.66,5.02,1.26,11.89,1.26,2.19,0,4.39.01,6.58-.17,1.1-.09,2.2-.23,3.28-.45,1.02-.2,1.59-.16,2.44-.8-.26-.13-1.17-.38-1.45-.43l-2.48-.98Z"/>
        <path class="cls-92" d="M1019.31,212.06c2,1.84,2.96,4.97,3.52,7.51.78,3.52.81,7.18.45,10.75-.3,2.98-.98,5.84-1.09,8.83-.12,3.29-.38,6.85.34,10.09.13.6,1.59.22,1.45-.39-.67-3.01-.45-6.28-.35-9.34.03-1.03.04-2.08.14-3.1.18-1.82.67-3.62.88-5.44.66-5.73.49-12.11-2.39-17.28-.44-.79-.95-1.63-1.62-2.25-.43-.4-1.8.18-1.33.61h0Z"/>
        <path class="cls-92" d="M1140.13,209.19c-1.59,4.62-2.47,9.65-2.49,14.53,0,.42,1.45.16,1.45-.39.02-4.81.93-9.78,2.49-14.33.16-.47-1.28-.29-1.45.19h0Z"/>
        <path class="cls-92" d="M1113.43,216.46c.37-.77.74-1.54,1.11-2.31l-1.31.42c7.23,2.89,14.52,5.65,21.86,8.25,4.75,1.68,9.54,3.37,14.43,4.61,6.05,1.53,12.21,2.57,18.28,3.98,3.5.81,6.99,1.7,10.38,2.87,2.82.97,5.69,2.12,8.06,3.97.35.27,1.66-.29,1.36-.53-4.37-3.42-10.31-4.88-15.59-6.21-6.37-1.6-12.84-2.75-19.24-4.22-10.15-2.33-20-6.27-29.71-9.98-2.89-1.1-5.78-2.22-8.65-3.37-.36-.14-1.13.05-1.31.42l-1.11,2.31c-.15.32,1.24.19,1.44-.22h0Z"/>
        <path class="cls-92" d="M1138.03,255.44c-8.1-3.79-16.2-7.58-24.3-11.36-2.11-.98-4.21-1.97-6.32-2.95l-2-.94c-.24-.11-.7-.22-.88-.41.19.19.08.11.26-.21.27-.5.43-1.12.63-1.65.43-1.11.86-2.22,1.28-3.34.48-1.27.95-2.54,1.42-3.82,1.77-4.76,3.54-9.52,5.3-14.29.14-.38-1.28-.21-1.44.22-2.24,6.03-4.45,12.08-6.72,18.1-.68,1.8-1.38,3.6-2.07,5.4-.04.11.05.17.13.21,9.79,4.58,19.59,9.16,29.38,13.74,1.38.65,2.76,1.29,4.15,1.94.36.17,1.69-.39,1.17-.63h0Z"/>
        <path class="cls-59" d="M1112.71,216.57s-7.54-10.53-8.7-13.14c-1.15-2.61-3.62-9.33-5.03-9.78-1.41-.46-2.32,2.06-2.52,4.72-.21,2.65,4.05,7.86,2.89,8.9-1.16,1.03-22.51-2.68-26.07-3.21-3.57-.53-13.5-1.41-13.3,3.32,0,0-4.74.3-4.82,2.33-.08,2.03.3,2.8.3,2.8,0,0-.49,3.69,2.63,4.58,3.12.88,5.27.96,5.27.96,0,0-2.28,1.45.1,3.73,2.38,2.28,16.03,5.99,16.03,5.99,0,0,6.59,5.17,11.93,5.92,5.34.75,14.66-.24,14.66-.24l6.64-16.87Z"/>
        <path class="cls-98" d="M1058.81,207.55c-1,.53.29.06.66.02.51-.06,1.03-.1,1.54-.14.92-.07,1.83-.12,2.75-.14,2.3-.07,4.6-.02,6.9.14,2.01.14,4.02.37,6.01.69.82.13,1.65.28,2.47.45.71.14,1.89.22,2.49.63.32.22,1.51-.38,1.37-.47-.58-.4-1.59-.46-2.27-.6-1.06-.22-2.13-.42-3.21-.58-2.45-.38-4.92-.62-7.4-.74s-4.92-.11-7.37.04c-1.54.09-3.62-.01-5.03.73-.59.31.85.12,1.1,0h0Z"/>
        <path class="cls-98" d="M1056.1,212.44c-.49.61-.84.24-.3.31.26.03.55-.03.81-.03.96-.03,1.92-.02,2.88,0,3.31.05,6.61.25,9.91.51s6.87.57,10.3.91c1.13.11,2.26.22,3.39.35.33.04.65.09.97.12.3.03.45.19.31,0,.31.38,1.7-.12,1.35-.57-.22-.27-.99-.25-1.27-.29-1.12-.14-2.24-.25-3.36-.36-4.03-.4-8.07-.75-12.11-1.06-3.47-.27-6.95-.45-10.42-.45-.9,0-3.14-.32-3.81.53-.4.5,1.06.4,1.35.03h0Z"/>
        <path class="cls-98" d="M1062.03,217.93c-.44.38-.75.22-.1.2.35-.01.7-.02,1.04-.02.84,0,1.68.02,2.52.05,1.85.07,3.71.2,5.55.39s3.57.4,5.35.68c.79.13,1.58.26,2.36.42.25.05,1.13.16,1.24.3.25.32,1.64-.17,1.36-.53-.2-.26-.89-.29-1.17-.35-.91-.2-1.82-.36-2.73-.5-2.19-.35-4.4-.62-6.62-.81-1.99-.17-3.98-.29-5.98-.33-.9-.02-1.8-.04-2.69.02-.41.03-.94.06-1.26.34-.59.51.84.38,1.13.13h0Z"/>
      </g>
    </g>
    <rect class="cls-38" x="478.15" y="616.51" width="98.96" height="11.02"/>
    <rect class="cls-38" x="337.91" y="616.51" width="98.96" height="11.02"/>
    <rect class="cls-93" x="302.98" y="627.53" width="316.03" height="33.88"/>
    <path class="cls-81" d="M116.22,522.91c.21-.8-.2-.88-.82-.71-.25,0-.49,0-.74,0h0c-.25-.15-.49-.15-.74,0,.03.05.06.09.09.12-.03-.03-.06-.07-.09-.12-2.34,0-4.68,0-7.01.01-2.94-.04-5.89-.05-8.83-.12-.87-.02-1.16.26-1.15,1.15.05,2.95.02,5.89.02,8.84,0,.56-.06,1.14.72,1.23,2.95-.19,5.91-.14,8.86-.02.12-.05.24-.11.36-.16,2.35,0,4.7,0,7.05,0,.23-.27.46-.27.7,0,.25,0,.5,0,.75,0h0c.14.08.28.17.41.25.61-.26.66-.71.41-1.25.22-3.08.2-6.15.01-9.23Z"/>
    <path class="cls-17" d="M127.66,597.62c-1.44-.69-2.59-1.92-3.16-3.51-.26-.74-.32-1.55-.58-2.28-1.05-2.96.93-8.67,3.71-10.08.81-.41,1.1-.77,1.09-1.6-.03-5.47-.04-10.93-.03-16.4,0-.97-.23-1.42-1.34-1.41-6.94.07-13.88.07-20.82.09-7.25-.03-14.5-.05-21.75-.08-.11.21-.31.41-.31.62-.04,5.83-.06,11.67-.08,17.5,0,.51.08,1.01.66,1.18,2.96.83,3.72,3.33,4.25,5.85.78,3.75-.06,7.99-3.49,9.89-1.16.64-1.43,1.29-1.43,2.51.04,17.38.09,34.76-.03,52.15-.02,3.47.71,6.62,2.39,9.53.77,1.34,1.22,3.32,3.42,3.31,5.47-.02,10.93-.03,16.4-.05,0,0-.02.11-.03.11,5.34-.02,10.68-.05,16.03-.04.91,0,1.69-.15,2.26-.9,2.05-2.72,3.82-5.67,3.84-9.13.09-18.49.05-36.97.06-55.46,0-.83-.09-1.35-1.05-1.81Z"/>
    <path class="cls-24" d="M113.94,535.24c.23-.27.46-.27.7,0-.23,0-.46,0-.7,0Z"/>
    <line class="cls-8" x1="83.18" y1="603.61" x2="129.65" y2="603.61"/>
    <line class="cls-8" x1="83.18" y1="612.74" x2="129.65" y2="612.74"/>
    <line class="cls-8" x1="83.18" y1="620.73" x2="129.65" y2="620.73"/>
    <line class="cls-8" x1="83.18" y1="629.86" x2="129.65" y2="629.86"/>
    <line class="cls-8" x1="83.18" y1="638.88" x2="129.65" y2="638.88"/>
    <line class="cls-8" x1="83.18" y1="648.01" x2="129.65" y2="648.01"/>
    <path class="cls-107" d="M499.19,498.81c-4.64-7.91-10.8-16.25-11.27-25.74-.41-8.24,4.44-15.1,9.67-20.95,6.01-6.73,10.81-14.01,9.28-23.5-1.06-6.54-5.42-15.47-13.02-15.91-2.84-.17-5.72,1.13-7.54,3.31-1.83,2.19-2.59,5.2-2.1,8.01.55,3.15,3,6.03,6.42,5.5,1.13-.18,2.23-.8,3.04-1.68.49-.53,1.4-.08,1.25.62-.4,1.95-1.42,3.67-3.52,4.1-1,.21-2.03.08-3.02-.16-9.03-2.2-13.36-13.18-6.82-20.25,5.37-5.81,12.96-8.04,19.68-3.36,9.5,6.62,11.97,17.79,9.38,28.56-2.06,8.59-7.69,14.75-13.57,20.99-10.43,11.07-4.6,28.95,2.15,40.46Z"/>
    <path class="cls-107" d="M507.95,485.62c-1.25-6.29-2.6-11.19-.29-17.68,2.32-6.53,7.07-12.17,13.15-15.5,4.47-2.45,13.15-4.33,16.32,1.18,1.23,2.13,1.92,6.09.77,8.27-1.72,3.23-4.26,4.82-7.96,5.88-.96.28-3.07.72-4.08.65-1.51-.11-1.73-2.24-.29-2.7,1.24-.39,3.72-.95,4.66-1.49,1.97-1.14,3.57-2.39,3.69-4.77.17-3.37-4.16-5.15-6.91-4.93-13.81,1.13-21.54,18.64-19.05,31.1Z"/>
    <path class="cls-107" d="M473.71,439.9c-2.36-1.44-4.48-1.71-6.56.95-1.48,1.88-1.33,4.6-.6,6.75.67,1.97,2.94,2.96,5.22-1.18.32-.58,1.21-.34,1.18.32-.3,8.53-7.48,5.99-8.88,3.84-1.5-2.31-1.93-5.18-1.75-7.92.19-2.9,2.06-5.46,4.8-6.41,6.01-2.07,11.54,3.01,13.3,7.79,0,0,2.3,6.21,1.63,11.2-.67,4.99-.38,22.16-.38,22.16,0,0-2.13-17.93-2.2-22.73-.07-4.81-1.02-11.87-5.77-14.76Z"/>
    <rect class="cls-58" x="143.14" y="612.8" width="55.3" height="55.3" rx="8.21" ry="8.21"/>
    <path class="cls-79" d="M188.57,636.94c-2.28-.75-4.34-.12-6.6.33-5.15,1.02-10.28,1.77-15.48.66-2.62-.56-5.21-1.71-7.51-3.06-.68-.4-1.34-.83-1.99-1.27-2.23.68-4.46,1.37-6.76,1.81-.81.15-1.62.18-2.41.08-.03.04-.06.09-.09.14v22.11c0,3.24,2.65,5.9,5.9,5.9h34.95c3.24,0,5.9-2.65,5.9-5.9v-18.68c-2.01-.45-3.81-1.42-5.91-2.11Z"/>
    <rect class="cls-64" x="149.62" y="601.3" width="42" height="11.5" rx="3.38" ry="3.38"/>
    <rect class="cls-58" x="204.33" y="613.21" width="55.3" height="55.3" rx="8.21" ry="8.21"/>
    <path class="cls-80" d="M249.62,646.35c-2.13-.8-4.2-1.99-6.45-2.48-4.12-.9-8.22,2.5-12.38,2.85-2.94.25-5.66-.59-8.33-1.75-1.8-.78-3.58-2.04-5.51-2.43-1.43-.29-2.62-.12-3.74.49-.73.4-.51-.04-.77.74.31-.93.17,1.26.19,1.39.27,2.47-1.52,4.66-3.72,5.68v7.3c0,3.24,2.65,5.9,5.9,5.9h34.95c3.24,0,5.9-2.65,5.9-5.9v-10.48c-2.07-.14-4.1-.58-6.05-1.31Z"/>
    <rect class="cls-64" x="210.81" y="601.72" width="42" height="11.5" rx="3.38" ry="3.38"/>
    <path class="cls-28" d="M129.02,597.61c-2.62-.85-3.77-2.49-3.82-5.18-.01-.8-.02-1.6,0-2.4.06-2.56,1.26-4.47,3.66-5.15,1.36-.39,1.49-1.07,1.45-2.22-.17-5.58.14-11.15-.29-16.74-.47-6.03-2.43-11.45-5.84-16.39-2.67-3.87-6.23-6.92-9.52-10.22-1.08-1.08-1.92-1.98-.23-3.19.37-.26.47-.71.44-1.16-.14-.08-.28-.17-.41-.25-.25,0-.5,0-.75,0-.23,0-.46,0-.7,0-2.35,0-4.7,0-7.05,0-.12.05-.24.11-.36.16-2.96-.12-5.91-.17-8.86.02-.05.59.13,1.11.61,1.46,1.23.9.79,1.63-.11,2.49-2.08,1.98-4.11,4.02-6.13,6.07-6.49,6.61-9.86,14.51-9.84,23.81,0,4.36.04,8.72-.02,13.08-.02,1.69-.13,3.24,2.18,3.39.3.02.6.39.87.63,2.7,2.4,1.77,5.5,1.53,8.41-.13,1.57-1.17,2.61-2.77,3.01-1.39.35-1.83,1.19-1.82,2.68.06,18.36.01,36.72.06,55.08.01,4.82,1.73,9.04,5.01,12.62.6.66,1.23,1.08,2.21,1.07,5.71-.06,11.42-.06,17.13-.07,4.53,0,9.07.02,13.6.03.37-.41.74-.42,1.11,0,3.2.65,5.09-.94,6.72-3.51,2.4-3.79,3.15-7.96,3.17-12.27.07-17.81.02-35.62.06-53.43,0-1.05-.34-1.5-1.32-1.82ZM84.91,563.55c-.11,0-.22.02-.33.04.11-.02.22-.03.33-.04ZM127.74,656.46c-.02,3.46-1.79,6.41-3.84,9.13-.56.75-1.34.9-2.26.9-5.34-.02-10.68.02-16.03.04l.02-.11c-5.47.02-10.93.03-16.4.05-2.2,0-2.65-1.98-3.42-3.31-1.67-2.9-2.41-6.06-2.39-9.53.12-17.38.07-34.76.03-52.15,0-1.22.27-1.87,1.43-2.51,3.43-1.9,4.27-6.14,3.49-9.89-.52-2.52-1.28-5.02-4.25-5.85-.58-.16-.66-.67-.66-1.18.02-5.83.04-11.67.08-17.5,0-.21.2-.42.31-.62.05-.05.1-.08.15-.11-.05.04-.1.07-.15.11,7.25.03,14.5.05,21.75.08,6.94-.02,13.88-.03,20.82-.09,1.1-.01,1.34.44,1.34,1.41-.02,5.47,0,10.93.03,16.4,0,.83-.29,1.18-1.09,1.6-2.78,1.42-4.76,7.12-3.71,10.08.26.74.32,1.55.58,2.28.56,1.59,1.72,2.82,3.16,3.51.97.46,1.05.98,1.05,1.81,0,18.49.04,36.97-.06,55.46Z"/>
    <path class="cls-81" d="M41.1,624.21c-.16-.36-.25-.73-.26-1.11l-.05-7.05c-.02-2.91,4.71-5.32,10.52-5.36,5.81-.04,10.58,2.3,10.61,5.2l.05,7.05c0,.38-.09.75-.24,1.11l-20.63.16Z"/>
    <path class="cls-36" d="M51.4,621.93c-41,.31-74.08,21.95-73.88,48.33l148.48-1.14c-.2-26.38-33.6-47.5-74.61-47.19Z"/>
    <g>
      <path class="cls-36" d="M584.95,616.77c.24.1.48.21.72.37-.24-.14-.48-.25-.72-.37Z"/>
      <path class="cls-36" d="M451.28,525.46c0-1.24-.54-2.44-1.41-3.33.84-.17,1.67-.39,2.48-.77h0c-.54-4.35-.94-8.1,5.61-8.06,44.12.25,88.24.26,132.37.35q10.45-.65,11.08,8.72h0s-.13,18.18-.13,18.18c-.04,19.75.02,39.5-.17,59.25-.1,10.57-5.29,16.16-15.44,17.34-39.62,0-79.25-.01-118.87-.02-9-1.44-12.4-4.8-14.04-13.88-2.12-18.17-.36-45.13-.95-63.33"/>
    </g>
    <path class="cls-81" d="M452.13,521.34c-.71-.12-1.45-.19-2.21-.19h-14c-5.77,0-10.49,3.67-10.49,8.16s4.72,8.16,10.49,8.16h14c.76,0,1.5-.07,2.21-.19v-15.94Z"/>
    <path class="cls-81" d="M601.4,521.34c.71-.12,1.45-.19,2.21-.19h14c5.77,0,10.49,3.67,10.49,8.16,0,4.49-4.72,8.16-10.49,8.16h-14c-.76,0-1.5-.07-2.21-.19v-15.94Z"/>
    <polygon class="cls-90" points="514.74 638.56 474.06 638.56 475.73 633.6 513.07 633.6 514.74 638.56"/>
    <polygon class="cls-90" points="514.74 646.11 474.06 646.11 475.73 641.15 513.07 641.15 514.74 646.11"/>
    <polygon class="cls-90" points="514.74 654.02 474.06 654.02 475.73 649.06 513.07 649.06 514.74 654.02"/>
    <polygon class="cls-90" points="585.44 638.56 544.76 638.56 546.43 633.6 583.78 633.6 585.44 638.56"/>
    <polygon class="cls-90" points="585.44 646.11 544.76 646.11 546.43 641.15 583.78 641.15 585.44 646.11"/>
    <polygon class="cls-90" points="585.44 654.02 544.76 654.02 546.43 649.06 583.78 649.06 585.44 654.02"/>
    <polygon class="cls-90" points="372.38 638.64 331.7 638.64 333.37 633.69 370.71 633.69 372.38 638.64"/>
    <polygon class="cls-90" points="372.38 646.19 331.7 646.19 333.37 641.23 370.71 641.23 372.38 646.19"/>
    <polygon class="cls-90" points="372.38 654.1 331.7 654.1 333.37 649.14 370.71 649.14 372.38 654.1"/>
    <polygon class="cls-90" points="443.08 638.64 402.4 638.64 404.07 633.69 441.42 633.69 443.08 638.64"/>
    <polygon class="cls-90" points="443.08 646.19 402.4 646.19 404.07 641.23 441.42 641.23 443.08 646.19"/>
    <polygon class="cls-90" points="443.08 654.1 402.4 654.1 404.07 649.14 441.42 649.14 443.08 654.1"/>
    <rect class="cls-38" x="302.98" y="661.41" width="18.16" height="7.13"/>
    <rect class="cls-38" x="600.86" y="661.41" width="18.16" height="7.13"/>
  </g>
</svg>