<svg id="Layer_1" data-name="Layer 1" xmlns="http://www.w3.org/2000/svg" viewBox="0 0 121.68 121.1"><defs><style>.cls-1{fill:#0d4060;}</style></defs><g id="Layer_2" data-name="Layer 2"><path class="cls-1" d="M60.73,110.91A49.81,49.81,0,1,1,110.54,61.1,49.87,49.87,0,0,1,60.73,110.91Zm0-94.58A44.77,44.77,0,1,0,105.5,61.1,44.82,44.82,0,0,0,60.73,16.33Z"/></g><g id="Layer_2-2" data-name="Layer 2"><path class="cls-1" d="M60.73,110.91A49.81,49.81,0,1,1,110.54,61.1,49.87,49.87,0,0,1,60.73,110.91Zm0-94.58A44.77,44.77,0,1,0,105.5,61.1,44.82,44.82,0,0,0,60.73,16.33Z"/></g><path class="cls-1" d="M88.51,64.93a2.69,2.69,0,0,0-2.69-2.69H37.35a2.69,2.69,0,0,0-2.69,2.69,14.09,14.09,0,0,0,0,1.74,3.57,3.57,0,0,0,.1.72,28.73,28.73,0,0,0,5.4,10c3.7,4.45,10.48,9.75,21.75,9.75h.76c11.37,0,21.62-7.75,25.64-19.51a3.72,3.72,0,0,0,.16-.72A9.7,9.7,0,0,0,88.51,64.93ZM62,80.69c-13.63,0-19.07-9-20.85-13.07H81.91C78.2,75.77,70.49,81,62,80.69Z"/><path class="cls-1" d="M52.65,46.07a2.21,2.21,0,0,0,0-.42l0-.3,0-.11a2.68,2.68,0,0,0-.07-.27A2.27,2.27,0,0,0,51,43.45L39.75,38.57A2.12,2.12,0,0,0,36.93,40a2.6,2.6,0,0,0,1.26,3.2l6.17,2.67-6.17,2.68a2.59,2.59,0,0,0-1.26,3.19,2.12,2.12,0,0,0,2.82,1.43L51,48.28a2.29,2.29,0,0,0,1.52-1.52,2.68,2.68,0,0,0,.07-.27l0-.12Z"/><path class="cls-1" d="M69.81,46.07a1.11,1.11,0,0,1,0-.42,1.53,1.53,0,0,1,0-.3l0-.11a2.61,2.61,0,0,1,.06-.27,2.3,2.3,0,0,1,1.53-1.52l11.25-4.88A2.11,2.11,0,0,1,85.52,40a2.59,2.59,0,0,1-1.26,3.2L78.1,45.86l6.16,2.68a2.58,2.58,0,0,1,1.26,3.19,2.11,2.11,0,0,1-2.81,1.43L71.46,48.28a2.32,2.32,0,0,1-1.53-1.52,2.61,2.61,0,0,1-.06-.27l0-.12A1.53,1.53,0,0,1,69.81,46.07Z"/></svg>