<svg id="Layer_1" data-name="Layer 1" xmlns="http://www.w3.org/2000/svg" viewBox="0 0 121.68 121.1"><defs><style>.cls-1{fill:#0d4060;}</style></defs><g id="Layer_2" data-name="Layer 2"><path class="cls-1" d="M61.27,110.91A49.81,49.81,0,1,1,111.08,61.1,49.87,49.87,0,0,1,61.27,110.91Zm0-94.58A44.77,44.77,0,1,0,106,61.1,44.82,44.82,0,0,0,61.27,16.33Z"/><circle class="cls-1" cx="45.3" cy="48.34" r="4.49"/><circle class="cls-1" cx="77.58" cy="48.34" r="4.49"/><path class="cls-1" d="M62.44,89.15h-.76c-11.27,0-18.06-4.83-21.75-8.88a24.92,24.92,0,0,1-5.4-9.09,2.94,2.94,0,0,1,5.65-1.61c.16.54,4.26,13.7,21.58,13.7A21.54,21.54,0,0,0,82.58,69.34a2.94,2.94,0,1,1,5.5,2.07A27.42,27.42,0,0,1,62.44,89.15Z"/></g></svg>