<svg id="Layer_1" data-name="Layer 1" xmlns="http://www.w3.org/2000/svg" viewBox="0 0 121.68 121.1"><defs><style>.cls-1{fill:#0d4060;}</style></defs><rect class="cls-1" x="31.64" y="37.05" width="18.94" height="4.95" rx="2.47" transform="translate(-11.41 17.29) rotate(-20.93)"/><g id="Layer_2" data-name="Layer 2"><path class="cls-1" d="M60.5,110.91A49.81,49.81,0,1,1,110.31,61.1,49.87,49.87,0,0,1,60.5,110.91Zm0-94.58A44.77,44.77,0,1,0,105.27,61.1,44.82,44.82,0,0,0,60.5,16.33Z"/><circle class="cls-1" cx="42.53" cy="50.34" r="4.49"/></g><path class="cls-1" d="M36.2,79.16a2.35,2.35,0,0,0,2.44,2.26H82.69a2.36,2.36,0,0,0,2.44-2.26,11.54,11.54,0,0,0,0-1.46,2.51,2.51,0,0,0-.1-.6,23,23,0,0,0-4.9-8.41c-3.36-3.74-9.52-8.2-19.76-8.2h-.69a24.93,24.93,0,0,0-23.3,16.41,3.08,3.08,0,0,0-.14.6A7.4,7.4,0,0,0,36.2,79.16ZM60.3,66.09c12,0,16.8,7.3,18.37,10.65H42.76A18.91,18.91,0,0,1,60.3,66.09Z"/><rect class="cls-1" x="70.64" y="37.05" width="18.94" height="4.95" rx="2.47" transform="translate(140.81 105.06) rotate(-159.07)"/><circle class="cls-1" cx="78.68" cy="50.34" r="4.49"/></svg>