<svg id="Layer_1" data-name="Layer 1" xmlns="http://www.w3.org/2000/svg" viewBox="0 0 348 282.35"><defs><style>.cls-1{fill:#ffe685;}.cls-2{fill:#2f9c48;}.cls-3{fill:#fbd95b;}.cls-4{fill:#ffcb05;}.cls-11,.cls-13,.cls-18,.cls-5,.cls-8{fill:none;stroke-linecap:round;stroke-miterlimit:10;}.cls-11,.cls-5{stroke:#108ab2;}.cls-5{stroke-width:4px;}.cls-6{fill:#a1cbec;}.cls-7{fill:#00a1cd;}.cls-13,.cls-8{stroke:#0d3f60;}.cls-8{stroke-width:1.56px;}.cls-9{fill:#0d3f60;}.cls-10{fill:#fff;}.cls-11{stroke-width:3.56px;}.cls-12{fill:#393939;}.cls-13{stroke-width:1.78px;}.cls-14{fill:#ffca05;}.cls-15{fill:#4f4a47;}.cls-16{fill:#282827;}.cls-17{fill:#3d3e3f;}.cls-18{stroke:#000;stroke-width:0.5px;}</style></defs><polyline class="cls-1" points="0 282.35 0 0 348 0 348 282.35"/><rect class="cls-2" y="207.09" width="348" height="75.26"/><path class="cls-3" d="M32.89,96.77c0-41.21,31-73.54,70.16-73.54S174,56.63,174,97.84v68.28H33V109.35S32.89,100.68,32.89,96.77Z"/><rect class="cls-4" x="32.98" y="141.18" width="140.97" height="24.9"/><path class="cls-5" d="M49.42,118.21s-11.7-4-14.57-29.08"/><path class="cls-6" d="M39.64,90.19a5,5,0,0,1-4.59,3.16c-2.94.25-5.63-1.4-6-3.67l-.87-5.59a.41.41,0,0,1,0-.11.14.14,0,0,1,0-.06L27,76.37c-.1-.59.46-1.13,1.22-1.19a1.4,1.4,0,0,1,1.57,1l.64,4.11a5.33,5.33,0,0,1,1.09-.46l-.77-4.92c-.09-.59.46-1.13,1.23-1.19a1.37,1.37,0,0,1,1.56,1l.77,4.92a7.51,7.51,0,0,1,1.09.22l-.66-4.23c-.09-.59.46-1.13,1.23-1.19a1.38,1.38,0,0,1,1.56,1l1.1,7.05a3.83,3.83,0,0,1,.21.68l.32-1.4a1.42,1.42,0,0,1,1.63-.86h0c.76.11,1.27.68,1.14,1.26"/><path class="cls-5" d="M156.52,117.21s11.7-4,14.57-29.08"/><path class="cls-6" d="M166.3,89.19a5,5,0,0,0,4.59,3.16c2.94.25,5.63-1.4,6-3.67l.87-5.59a.41.41,0,0,0,0-.11.14.14,0,0,0,0-.06L179,75.37c.09-.59-.47-1.13-1.23-1.19a1.4,1.4,0,0,0-1.57,1l-.64,4.11a5.33,5.33,0,0,0-1.09-.46l.77-4.92c.09-.59-.46-1.13-1.23-1.19a1.37,1.37,0,0,0-1.56,1l-.77,4.92a7.51,7.51,0,0,0-1.09.22l.66-4.23c.09-.59-.46-1.13-1.23-1.19a1.38,1.38,0,0,0-1.56,1l-1.1,7.05a3.83,3.83,0,0,0-.21.68l-.32-1.4a1.42,1.42,0,0,0-1.63-.86h0c-.76.11-1.27.68-1.14,1.26"/><path class="cls-7" d="M48.12,132.22c0-23.72,11.78-46.75,27-63.19,39.33-42.37,83.12,18.81,83.12,65.16,0,34.21-27.08,42.5-54.18,42.5S48.12,166.43,48.12,132.22Z"/><line class="cls-8" x1="100.7" y1="80.09" x2="109.83" y2="87.21"/><line class="cls-8" x1="126.68" y1="80.09" x2="117.55" y2="87.21"/><path class="cls-9" d="M105.48,107.43c-1.33,0-2.24-1.11-1.77-2.16a10.61,10.61,0,0,1,10.44-6.62c6.36.19,8.72,4.22,9.57,6.75.35,1-.55,2-1.81,2Z"/><path class="cls-10" d="M117.55,93.34a6.89,6.89,0,0,1,13.76,0"/><path class="cls-9" d="M122.91,93.34a3,3,0,1,1,6,0"/><path class="cls-10" d="M95.67,93.34a6.93,6.93,0,0,1,13.83,0"/><path class="cls-9" d="M101,93.34a3,3,0,0,1,6,0"/><path class="cls-9" d="M96.26,90.29l-3.57-1.57,3.17,2.77c0,.15-.07.3-.1.45l-3.11-.43,3,1.39a6.27,6.27,0,0,0,0,.72c1.66-5.83,5-6.61,5.93-6.71A5.49,5.49,0,0,0,96.26,90.29Z"/><path class="cls-9" d="M91.52,86.91l.27,0Z"/><path class="cls-9" d="M134.42,91.51l-3.1.43c0-.15-.06-.3-.1-.46l3.17-2.76-3.58,1.57a5.48,5.48,0,0,0-5.25-3.38c1,.1,4.27.87,5.93,6.71,0,0,0-.29,0-.72Z"/><path class="cls-9" d="M112.73,86.91l-.27,0Z"/><rect class="cls-1" x="23.31" y="153.64" width="161.55" height="26.84"/><path class="cls-11" d="M260.23,165s-17.29,5.69-31.26-8.28"/><path class="cls-12" d="M280.06,149.37a4.15,4.15,0,0,0-4.19-4.2,4.21,4.21,0,1,0,0,8.42A4.18,4.18,0,0,0,280.06,149.37Z"/><path class="cls-7" d="M295.15,83.7H277a25.23,25.23,0,0,0-25.24,25.23v13.32a4.32,4.32,0,0,0-3.55.87A5,5,0,0,0,246,127.3a4.86,4.86,0,0,0,4.86,4.61,4.94,4.94,0,0,0,.87-.08v5.09h7.52a5.49,5.49,0,0,1,5.42,4.18c.38,1.73-.24,3.31-3.91,3.21-.42,0-8.65-.48-9-.53v25.08c0,16.48,4.36,36.06,29.83,36.06h9c24.69,0,29.83-19.58,29.83-36.06V108.93A25.23,25.23,0,0,0,295.15,83.7Z"/><path class="cls-11" d="M285.28,162.41s1.83,20.6-21,26.51"/><path class="cls-10" d="M259.76,125.26a7.84,7.84,0,0,1,15.67,0"/><path class="cls-6" d="M263.52,183.92a4.59,4.59,0,0,1,3.5,3.68c.64,2.61-.47,5.27-2.46,5.91l-4.9,1.58-.11,0-.05,0-6.63,2.13c-.52.17-1.08-.25-1.25-.93a1.28,1.28,0,0,1,.64-1.55l3.61-1.16a5.64,5.64,0,0,1-.56-.92L251,194.1c-.52.17-1.09-.25-1.26-.93a1.28,1.28,0,0,1,.65-1.55l4.32-1.39a5.65,5.65,0,0,1,.05-1l-3.72,1.2c-.52.16-1.08-.26-1.25-.94a1.26,1.26,0,0,1,.64-1.54l6.2-2a2.83,2.83,0,0,1,.58-.28l-1.31-.1a1.27,1.27,0,0,1-1-1.34h0c0-.7.43-1.24,1-1.21"/><path class="cls-6" d="M235.27,155.62a4.57,4.57,0,0,1-.54,5c-1.57,2.18-4.3,3.06-6.08,2l-4.39-2.71-.09-.07,0,0-5.92-3.66a1.08,1.08,0,0,1-.1-1.56,1.26,1.26,0,0,1,1.59-.51l3.23,2a5.17,5.17,0,0,1,.34-1l-3.87-2.39a1.07,1.07,0,0,1-.1-1.55,1.28,1.28,0,0,1,1.59-.52l3.87,2.39a5.91,5.91,0,0,1,.8-.62l-3.33-2a1.08,1.08,0,0,1-.09-1.56,1.26,1.26,0,0,1,1.59-.51l5.53,3.42a3.16,3.16,0,0,1,.6.25l-.78-1.05a1.29,1.29,0,0,1,.37-1.64h0a1,1,0,0,1,1.55,0"/><line class="cls-13" x1="273.75" y1="111" x2="261.5" y2="116.33"/><path class="cls-9" d="M259.91,123.3a5.1,5.1,0,0,0,6.65-6.26A7.82,7.82,0,0,0,259.91,123.3Z"/><polyline class="cls-7" points="272.3 199.44 275.49 239.74 279.31 239.74 282.5 199.57"/><polygon class="cls-14" points="279.3 244.82 275.7 244.82 273.76 222.73 280.74 222.73 279.3 244.82"/><path class="cls-15" d="M266.52,245a6.43,6.43,0,1,1,12.85,0"/><polyline class="cls-7" points="286.52 199.94 289.71 240.24 293.54 240.24 296.73 200.07"/><polygon class="cls-14" points="293.53 245.32 289.93 245.32 287.99 223.23 294.97 223.23 293.53 245.32"/><path class="cls-15" d="M280.74,245.52a6.43,6.43,0,0,1,12.86,0"/><rect class="cls-16" x="213.2" y="134.91" width="15.25" height="27.73" rx="2.23" transform="translate(-23.39 42.68) rotate(-10.49)"/><rect class="cls-17" x="214.51" y="136.41" width="12.03" height="21.42" rx="1.63" transform="translate(-23.09 42.59) rotate(-10.49)"/><ellipse class="cls-17" cx="222.7" cy="159.79" rx="1.23" ry="0.62" transform="translate(-25.36 43.2) rotate(-10.49)"/><polyline class="cls-18" points="213.21 128.21 211 113.36 219.01 127.62 220.82 105.7 223.52 126.1 233.68 115 227.68 129.26 238.81 121.43 231.97 134.14"/><polyline class="cls-18" points="208.34 131.92 199.33 119.74 203.84 133.92 186.96 127 201 137.58 186.96 139.59 203 142.59 194 148.54 204.34 148.18"/><polyline class="cls-18" points="203.34 152.38 196.97 159.67 204.98 156.59 203 163.5 206.9 160.94"/></svg>