<svg xmlns="http://www.w3.org/2000/svg" viewBox="0 0 348 282.35"><defs><style>.cls-1{fill:#fee685;}.cls-2{fill:#319c47;}.cls-13,.cls-16,.cls-17,.cls-18,.cls-19,.cls-3{fill:none;stroke-linecap:round;stroke-miterlimit:10;}.cls-19,.cls-3{stroke:#0f8ab2;}.cls-3{stroke-width:4px;}.cls-4{fill:#00a1cd;}.cls-5{fill:#a2cced;}.cls-6{fill:#ffcb05;}.cls-7{fill:#504b48;}.cls-8{fill:#fcda5c;}.cls-9{fill:#ffcc04;}.cls-10{fill:#a1cbec;}.cls-11{fill:#282827;}.cls-12{fill:#3e3f40;}.cls-13{stroke:#010101;stroke-width:0.5px;}.cls-14{fill:#0d4060;}.cls-15{fill:#fff;}.cls-16,.cls-17,.cls-18{stroke:#0d4060;}.cls-16{stroke-width:2px;}.cls-17{stroke-width:1.32px;}.cls-18{stroke-width:1.33px;}.cls-19{stroke-width:3.81px;}</style></defs><g id="Layer_1" data-name="Layer 1"><polyline class="cls-1" points="0 282.35 0 0 348 0 348 282.35"/><rect class="cls-2" y="212.09" width="348" height="70.26"/><path class="cls-3" d="M255.28,151.11s-19.82,2.22-31.66-15.9"/><path class="cls-4" d="M240.91,131.09v27.47c0,18,4.77,39.49,32.67,39.49h9.87c27,0,32.67-21.45,32.67-39.49V92.91a27.63,27.63,0,0,0-27.64-27.64H268.55a27.63,27.63,0,0,0-27.64,27.64v38.18Z"/><path class="cls-3" d="M308.66,150.49s2,22.57-23,29"/><path class="cls-5" d="M284.83,174.05a5,5,0,0,1,3.83,4c.7,2.85-.51,5.77-2.68,6.47l-5.38,1.73-.12,0-.05,0-7.26,2.34c-.57.18-1.19-.28-1.37-1a1.4,1.4,0,0,1,.7-1.69l3.95-1.27a5.89,5.89,0,0,1-.61-1l-4.74,1.52c-.57.19-1.18-.27-1.37-1a1.39,1.39,0,0,1,.7-1.69l4.74-1.53a6.7,6.7,0,0,1,.05-1.1l-4.07,1.31c-.57.18-1.19-.28-1.37-1a1.39,1.39,0,0,1,.7-1.69l6.79-2.18a3.48,3.48,0,0,1,.64-.32l-1.43-.1a1.4,1.4,0,0,1-1.11-1.47h0c0-.77.48-1.36,1.07-1.32"/><polyline class="cls-4" points="264.44 191.06 267.94 235.19 272.13 235.19 275.62 191.19"/><polygon class="cls-6" points="272.12 240.76 268.17 240.76 266.05 216.56 273.7 216.56 272.12 240.76"/><path class="cls-7" d="M258.11,241a7,7,0,1,1,14.09,0"/><polyline class="cls-4" points="280.03 191.6 283.52 235.74 287.71 235.74 291.21 191.74"/><polygon class="cls-6" points="287.71 241.31 283.75 241.31 281.64 217.12 289.28 217.12 287.71 241.31"/><path class="cls-7" d="M273.7,241.53a7,7,0,1,1,14.08,0"/><path class="cls-8" d="M32.89,101.77c0-41.21,31-73.54,70.16-73.54S174,61.63,174,102.84v68.28H33V114.35S32.89,105.68,32.89,101.77Z"/><rect class="cls-9" x="32.98" y="146.18" width="140.97" height="24.9"/><path class="cls-10" d="M227.56,132.76a4.57,4.57,0,0,1-1.12,5c-1.81,2-4.63,2.55-6.27,1.25l-4-3.2-.08-.07-.05,0-5.46-4.32a1.07,1.07,0,0,1,.08-1.56,1.28,1.28,0,0,1,1.64-.32l3,2.35a5.79,5.79,0,0,1,.46-1L212.12,128a1.08,1.08,0,0,1,.09-1.56,1.27,1.27,0,0,1,1.64-.33l3.56,2.82a7,7,0,0,1,.86-.52L215.21,126a1.07,1.07,0,0,1,.08-1.56,1.27,1.27,0,0,1,1.64-.33l5.11,4a3.11,3.11,0,0,1,.56.32l-.65-1.13a1.29,1.29,0,0,1,.56-1.59h0a1.05,1.05,0,0,1,1.54.14"/><rect class="cls-11" x="206.38" y="110.42" width="15.25" height="27.73" rx="2.23" transform="translate(-7.88 14.68) rotate(-3.86)"/><rect class="cls-12" x="207.88" y="111.9" width="12.03" height="21.42" rx="1.63" transform="translate(-7.76 14.67) rotate(-3.86)"/><ellipse class="cls-12" cx="214.59" cy="135.45" rx="1.23" ry="0.62" transform="translate(-8.63 14.74) rotate(-3.86)"/><polyline class="cls-13" points="208.81 102.98 208.33 87.98 214.64 103.07 218.97 81.5 219.29 102.08 230.67 92.23 223.06 105.7 235.02 99.2 226.76 111.04"/><polyline class="cls-13" points="203.54 106.1 196.01 92.97 198.84 107.57 182.87 98.75 195.6 110.89 181.42 111.25 197.01 116.09 187.38 120.96 197.69 121.79"/><polyline class="cls-13" points="196.22 125.86 189.05 132.36 197.36 130.22 194.6 136.86 198.76 134.76"/><path class="cls-14" d="M275.32,113.62s-1.79,6.74-10.59,6.56-9.48-6.56-9.48-6.56Z"/><path class="cls-15" d="M243.62,107.51a8.81,8.81,0,1,1,17.61,0"/><path class="cls-15" d="M270.53,107.51a8.81,8.81,0,1,1,17.61,0"/><path class="cls-14" d="M246.37,107.51a3.81,3.81,0,1,1,7.62,0"/><path class="cls-14" d="M272.28,107.51a3.81,3.81,0,0,1,7.62,0"/><line class="cls-16" x1="244.52" y1="95" x2="257.16" y2="93.9"/><line class="cls-16" x1="288.58" y1="95.09" x2="275.32" y2="93.35"/><path class="cls-4" d="M47.68,134.49C47.68,111,59.35,88.22,74.45,72c38.92-41.93,82.27,18.61,82.27,64.48,0,33.86-26.81,42.07-53.63,42.07S47.68,168.35,47.68,134.49Z"/><path class="cls-17" d="M103.48,84.17s-1.28,4.41-7.78,3.72"/><path class="cls-18" d="M128.21,85.75s-1.93-5.16-7.76-3.16"/><path class="cls-14" d="M106.19,107.48c-1.1.21-2.18-1-1.54-1.92,1.25-1.8,2.7-3.58,7.15-4.33s6.83.07,8.22,1.38a1.39,1.39,0,0,1-.7,2.37l-3.7-.44a10.28,10.28,0,0,0-6.15,1.17Z"/><path class="cls-15" d="M115.63,96a6.82,6.82,0,0,1,13.62,0"/><path class="cls-14" d="M121.64,96a3,3,0,0,1,5.92,0"/><path class="cls-15" d="M95.39,96a6.86,6.86,0,0,1,13.69,0"/><path class="cls-14" d="M101.4,96a3,3,0,0,1,5.92,0"/><path class="cls-14" d="M96,93l-3.54-1.56,3.13,2.74q0,.24-.09.45l-3.07-.42,2.93,1.37a6.12,6.12,0,0,0,0,.71c1.64-5.77,4.93-6.54,5.87-6.64A5.42,5.42,0,0,0,96,93Z"/><path class="cls-14" d="M101.18,89.64l.26,0Z"/><path class="cls-14" d="M132.33,94.2l-3.08.42a4,4,0,0,0-.09-.45l3.13-2.74L128.75,93a5.41,5.41,0,0,0-5.2-3.35c.94.1,4.23.87,5.87,6.64a6.12,6.12,0,0,0,0-.71Z"/><path class="cls-14" d="M122.17,89.64l-.26,0Z"/><rect class="cls-1" x="23.31" y="158.64" width="161.55" height="26.84"/><path class="cls-19" d="M152.23,128s-7.83,18.92-30.06-3.83"/><path class="cls-19" d="M68.22,128s4.83,18.29,34.75,14.71"/><path class="cls-5" d="M100.9,138.17a5,5,0,0,0-2,5.13c.4,2.88,2.58,5.12,4.85,5l5.58-.38h.18l7.54-.51a1.17,1.17,0,0,0,.88-1.45,1.38,1.38,0,0,0-1.27-1.3l-4.1.28a6,6,0,0,0,.19-1.16l4.92-.33c.6,0,1-.69.89-1.45a1.39,1.39,0,0,0-1.27-1.3l-4.92.34a7.59,7.59,0,0,0-.45-1l4.23-.29c.59,0,1-.69.88-1.45a1.37,1.37,0,0,0-1.27-1.29l-7,.48a3.31,3.31,0,0,0-.7-.06l1.27-.61a1.41,1.41,0,0,0,.48-1.77h0c-.28-.71-.94-1.08-1.47-.82"/></g><g id="Layer_2" data-name="Layer 2"><path class="cls-5" d="M112.15,125a7.17,7.17,0,0,1-2.09-1.58,1.34,1.34,0,0,1,.23-2.16c.24-.17.21-.24.07-.43a5.71,5.71,0,0,1-.35-.65,1.65,1.65,0,0,1,.7-1.58c.44-.23.57-.41.34-.87a1.52,1.52,0,0,1,.1-1.36c.24-.49.77-.59,1.14-.87-.05-.27-.25-.33-.41-.44-1.37-1-1.69-1.93-3-2.92a1.37,1.37,0,0,1-.51-1.94,1.34,1.34,0,0,1,2.07-.42c.54.33,1,.71,1.57,1.08,2.38,1.65,3.69,3.3,6.07,5,.25.17.53.44.82.27s.05-.5,0-.75a5.15,5.15,0,0,1,3-5.55,1.87,1.87,0,0,1,2.07.33c.44.7,0,1.24-.41,1.79-1.51,2.11-1.06,4.09.56,6a13.8,13.8,0,0,1,1.71,2.18c1.7,3-.9,6.09-3.63,7.25C118.71,128.71,115.06,126.78,112.15,125Z"/></g></svg>