<?xml version="1.0" encoding="UTF-8"?>
<svg xmlns="http://www.w3.org/2000/svg" viewBox="0 0 1303.15 1057.31">
  <defs>
    <style>
      .cls-1 {
        fill: #b9dfee;
      }

      .cls-2 {
        fill: #121111;
      }

      .cls-3 {
        fill: #171514;
      }

      .cls-4 {
        fill: #273339;
      }

      .cls-5 {
        fill: #010101;
      }

      .cls-6 {
        fill: #0a0909;
      }

      .cls-7 {
        fill: #3f7e3c;
      }

      .cls-8 {
        fill: #653c29;
      }

      .cls-9 {
        fill: #231f20;
      }

      .cls-10 {
        fill: #98554a;
      }

      .cls-11 {
        fill: #23401d;
      }

      .cls-12 {
        fill: none;
        stroke: #020202;
        stroke-width: .35px;
      }

      .cls-12, .cls-13 {
        stroke-miterlimit: 10;
      }

      .cls-14 {
        fill: #b7c8ce;
      }

      .cls-15 {
        fill: #08562c;
      }

      .cls-16 {
        fill: #f1eef7;
      }

      .cls-17 {
        fill: #58361e;
      }

      .cls-18 {
        fill: #2c2f30;
      }

      .cls-19 {
        fill: #221f20;
      }

      .cls-20 {
        fill: #28343a;
      }

      .cls-21 {
        fill: #020202;
      }

      .cls-22 {
        fill: #6a5a9c;
      }

      .cls-23 {
        fill: #fff;
      }

      .cls-24 {
        fill: #a66f54;
      }

      .cls-25 {
        fill: #0d4823;
      }

      .cls-26 {
        fill: #16172b;
      }

      .cls-27 {
        fill: #3f535b;
      }

      .cls-28 {
        fill: #e1c722;
      }

      .cls-29 {
        fill: #5b3c2b;
        fill-rule: evenodd;
      }

      .cls-30 {
        fill: #4f2f26;
      }

      .cls-31 {
        fill: #262828;
      }

      .cls-32 {
        fill: #14162a;
      }

      .cls-33 {
        fill: #39211a;
      }

      .cls-34 {
        fill: #eb9a45;
      }

      .cls-35 {
        fill: #adacac;
      }

      .cls-36 {
        fill: #b7ac8a;
      }

      .cls-37 {
        fill: #465b65;
      }

      .cls-38 {
        fill: #3f57a6;
      }

      .cls-13 {
        stroke: #231f20;
        stroke-width: .64px;
      }

      .cls-39 {
        fill: #4f2e25;
      }

      .cls-40 {
        fill: #9b8fc1;
      }

      .cls-41 {
        fill: #643d2b;
      }
    </style>
  </defs>
  <g id="Layer_6" data-name="Layer 6">
    <rect class="cls-1" x="-157.72" y="-138.32" width="1577.91" height="1252.67"/>
  </g>
  <g id="Layer_9" data-name="Layer 9">
    <path class="cls-25" d="M1056.74,765.5c8.95-11.39,12.58-63.21,11.72-77.67-.86-14.46-18.64-27.55-30.04-18.61,2.8-8.96-1.35-19.58-9.47-24.28-8.12-4.7-19.4-2.99-25.77,3.9-5.58-20.63-38.24-26.33-50.47-8.81.62-8.28-11.38-12.85-18.24-8.18-6.86,4.67-8.58,14.22-7.34,22.42-5.48-9.28-17.01-14.57-27.62-12.66-10.61,1.91-19.58,10.88-21.47,21.5-1.76-9.06-4.07-19.01-11.59-24.35-7.53-5.34-21.29-.87-20.37,8.31,1.08-13.16-7.28-26.55-19.57-31.36-12.29-4.82-27.52-.67-35.67,9.72-2.75-12.59-8.57-25.49-19.72-31.96-11.15-6.47-28.3-3.17-32.74,8.93-6.88-9.47-17.36-17.8-29.03-16.86-11.66.94-21.4,15.64-14.29,24.94-9.77-13.7-36.21-5.88-36.95,10.94-6.97-9.12-20.28-12.77-30.93-8.48-10.65,4.29-17.71,16.14-16.41,27.55-11.4-5.82-26.4-3.54-35.55,5.41-9.15,8.95-11.77,23.89-6.21,35.42-32.44,5.22-47.36,85.35-32.24,114.52"/>
    <path class="cls-25" d="M710.82,776.84c10.05-10.43,18.88-61.62,19.48-76.1.6-14.48-15.77-29.29-28.01-21.54,3.69-8.63.63-19.62-6.97-25.11-7.61-5.49-19-4.93-26.03,1.28-3.47-21.09-35.39-30.05-49.33-13.85,1.45-8.17-10.02-13.93-17.32-9.97-7.3,3.96-9.97,13.28-9.56,21.57-4.52-9.79-15.46-16.21-26.2-15.38s-20.57,8.86-23.53,19.22c-.84-9.19-2.13-19.33-9.08-25.39-6.95-6.07-21.09-3.01-21.1,6.21,2.4-12.99-4.57-27.14-16.31-33.17-11.75-6.03-27.31-3.43-36.46,6.08-1.47-12.81-5.96-26.22-16.41-33.78-10.44-7.56-27.83-6.01-33.47,5.59-5.89-10.11-15.48-19.45-27.18-19.69s-22.86,13.41-16.73,23.37c-8.35-14.62-35.43-9.5-37.86,7.16-6.02-9.78-18.89-14.75-29.92-11.55-11.03,3.2-19.25,14.28-19.1,25.76-10.76-6.94-25.91-6.18-35.92,1.8-10.01,7.98-14.12,22.58-9.75,34.61-32.8,1.93-55.71,80.14-43.61,110.69"/>
    <path class="cls-25" d="M373.66,761.16c10.05-10.43,18.88-61.62,19.48-76.1.6-14.48-15.77-29.29-28.01-21.54,3.69-8.63.63-19.62-6.97-25.11-7.61-5.49-19-4.93-26.03,1.28-3.47-21.09-35.39-30.05-49.33-13.85,1.45-8.17-10.02-13.93-17.32-9.97-7.3,3.96-9.97,13.28-9.56,21.57-4.52-9.79-15.46-16.21-26.2-15.38s-20.57,8.86-23.53,19.22c-.84-9.19-2.13-19.33-9.08-25.39-6.95-6.07-21.09-3.01-21.1,6.21,2.4-12.99-4.57-27.14-16.31-33.17-11.75-6.03-27.31-3.43-36.46,6.08-1.47-12.81-5.96-26.22-16.41-33.78-10.44-7.56-27.83-6.01-33.47,5.59-5.89-10.11-15.48-19.45-27.18-19.69s-22.86,13.41-16.73,23.37c-8.35-14.62-35.43-9.5-37.86,7.16-6.02-9.78-18.89-14.75-29.92-11.55-11.03,3.2-19.25,14.28-19.1,25.76-10.76-6.94-25.91-6.18-35.92,1.8-10.01,7.98-14.12,22.58-9.75,34.61-32.8,1.93-55.71,80.14-43.61,110.69"/>
    <path class="cls-25" d="M1382.73,769.35c10.05-10.43,18.88-61.62,19.48-76.1s-15.77-29.29-28.01-21.54c3.69-8.63.63-19.62-6.97-25.11-7.61-5.49-19-4.93-26.03,1.28-3.47-21.09-35.39-30.05-49.33-13.85,1.45-8.17-10.02-13.93-17.32-9.97-7.3,3.96-9.97,13.28-9.56,21.57-4.52-9.79-15.46-16.21-26.2-15.38s-20.57,8.86-23.53,19.22c-.84-9.19-2.13-19.33-9.08-25.39-6.95-6.07-21.09-3.01-21.1,6.21,2.4-12.99-4.57-27.14-16.31-33.17-11.75-6.03-27.31-3.43-36.46,6.08-1.47-12.81-5.96-26.22-16.41-33.78-10.44-7.56-27.83-6.01-33.47,5.59-5.89-10.11-15.48-19.45-27.18-19.69s-22.86,13.41-16.73,23.37c-8.35-14.62-35.43-9.5-37.86,7.16-6.02-9.78-18.89-14.75-29.92-11.55-11.03,3.2-19.25,14.28-19.1,25.76-10.76-6.94-25.91-6.18-35.92,1.8-10.01,7.98-14.12,22.58-9.75,34.61-32.8,1.93-55.71,80.14-43.61,110.69"/>
    <path class="cls-15" d="M580.7,780.93c10.05-10.43,20.72-22.24,21.32-36.71.6-14.48-15.77-29.29-28.01-21.54,3.69-8.63.63-19.62-6.97-25.11-7.61-5.49-19-4.93-26.03,1.28-3.47-21.09-35.39-30.05-49.33-13.85,1.45-8.17-10.02-13.93-17.32-9.97-7.3,3.96-9.97,13.28-9.56,21.57-4.52-9.79-15.46-16.21-26.2-15.38s-20.57,8.86-23.53,19.22c-.84-9.19-2.13-19.33-9.08-25.39-6.95-6.07-21.09-3.01-21.1,6.21,2.4-12.99-4.57-27.14-16.31-33.17-11.75-6.03-27.31-3.43-36.46,6.08-1.47-12.81-5.96-26.22-16.41-33.78-10.44-7.56-27.83-6.01-33.47,5.59-5.89-10.11-15.48-19.45-27.18-19.69-11.7-.24-22.86,13.41-16.73,23.37-8.35-14.62-35.43-9.5-37.86,7.16-6.02-9.78-18.89-14.75-29.92-11.55-11.03,3.2-19.25,14.28-19.1,25.76-10.76-6.94-25.91-6.18-35.92,1.8-10.01,7.98-14.12,22.58-9.75,34.61-32.8,1.93-57.55,40.76-45.45,71.31"/>
    <path class="cls-29" d="M683.76,14.31c4.38,2.34,117.4,79.39,117.4,79.39l-8.76,91.08,57.22,64.22,80.71,52.53s23.37,15.2,22.02,43.27c-1.34,28.07,4.88,132.1,4.7,127.42,0-2.42-20.45,37.65-20.45,37.65l-9.08,295.05h121.98l-16.68-275.03,12.65-72.12-6.54-92.32,97.87-93.97,70.76-36.49,39.61-53.72,37.5-4.29,92.39-91.61,5.47-96.03-28.6-3.46-2.11,92.37s-75.24,77.32-82.57,77.32-44.02,5.77-44.02,5.77l10.28-67.74L1369.04,4.9l-33.74-10.53-76.33,51.47,5.84-38.51-33.74-12.87s2.92,64.22-1.46,64.22c-4.38,0-17.53,17.51-17.53,17.51l-11.68,88.74-22.05,44.37-49.89,28.04-23.37-60.73,22-108.59L1194.42.43l-11.68-26.86-92.45,89.89-14.61,70.07,14.59,115.96-71.53,65.9-39.93-42.54-4.41-37.79,36.69-77.08-39.61-98.09,13.2-86.55-32.13-35.02-17.53,10.5,24.95,33.87-26.29,99.24,33.74,73.54-52.81,79.42-73.38-56.05,3.48-123.59-37.19-76.16-39.64-31.53-19.57,3.84,33.77,42.03,11.68,53.72-57.22-32.71-41.04-40.97-27.9,8.16,16.15,32.69Z"/>
    <path class="cls-15" d="M773.65,783.24c-9.89-9.35-20.42-19.96-21.61-33.51-1.2-13.55,13.52-28.17,25.34-21.43-3.84-7.93-1.45-18.38,5.44-23.86,6.9-5.49,17.61-5.46,24.48.06,2.33-19.94,31.89-29.74,45.67-15.15-1.72-7.6,8.79-13.51,15.81-10.11,7.02,3.39,9.93,12.02,9.92,19.82,3.81-9.38,13.79-15.88,23.91-15.58,10.12.31,19.69,7.41,22.92,17.01.38-8.66,1.16-18.22,7.41-24.22,6.26-6,19.66-3.75,20.07,4.9-2.82-12.08,3.1-25.67,13.85-31.84,10.76-6.17,25.47-4.42,34.48,4.11.82-12.08,4.45-24.86,13.91-32.41,9.47-7.55,25.85-6.85,31.65,3.77,5.08-9.74,13.68-18.93,24.64-19.67,10.97-.74,22.04,11.58,16.72,21.2,7.19-14.08,32.83-10.46,35.84,5.06,5.22-9.44,17.07-14.66,27.56-12.15,10.49,2.52,18.68,12.55,19.05,23.33,9.79-6.98,24.04-6.93,33.77.12,9.74,7.05,14.24,20.57,10.66,32.05,30.86.37,55.78,35.72,45.76,64.91"/>
    <path class="cls-7" d="M1667.83,1169.71H-166.07v-433.66h749.61c6.65,0,13.31-.12,19.95-.35l209.66-7.4c13.69-.48,27.4-.51,41.09-.1l256.04,7.84h557.55v433.66Z"/>
    <path class="cls-29" d="M971.35,420.39c-23.61-15.67-47.21-31.33-70.82-47-1.7-1.13-3.43-2.28-4.76-3.84-2.09-2.46-2.98-5.7-3.82-8.82-3.78-14.13-7.56-28.26-11.34-42.39-.86-3.23-2.67-7.19-6.01-7-3.65.21-4.74,5.02-4.8,8.68-.23,13.96-.47,27.92-.7,41.87-25.03-7.77-51.21-11.8-77.42-11.9-1.78,6.72,3.39,13.65,9.72,16.53,6.33,2.88,13.53,2.82,20.47,3.23,15.64.92,31.21,4.53,45.29,11.41,10.29,5.03,19.66,11.72,28.98,18.37,27.94,19.96,55.89,39.92,83.83,59.88,2.5,1.78,6.52,3.31,8.11.69"/>
    <path class="cls-29" d="M799.17,165.16c-23.61-15.67-47.21-31.33-70.82-47-1.7-1.13-3.43-2.28-4.76-3.84-2.09-2.46-2.98-5.7-3.82-8.82-3.78-14.13-7.56-28.26-11.34-42.39-.86-3.23-2.67-7.19-6.01-7-3.65.21-4.74,5.02-4.8,8.68-.23,13.96-.47,27.92-.7,41.87-25.03-7.77-51.21-11.8-77.42-11.9-1.78,6.72,3.39,13.65,9.72,16.53,6.33,2.88,13.53,2.82,20.47,3.23,15.64.92,31.21,4.53,45.29,11.41,10.29,5.03,19.66,11.72,28.98,18.37,27.94,19.96,55.89,39.92,83.83,59.88,2.5,1.78,6.52,3.31,8.11.69"/>
    <path class="cls-7" d="M201.33-191.51c10.56-7.71,22.37-14.02,35.04-18.72-.28-.49-.49-.99-.73-1.48-16.25,3.74-33.55,1.62-47.99-5.89,9.34-16.06,21.62-31.12,38.2-40.36l.02-.84c-2.19-1.33-4.26-2.78-6.21-4.32,15.83.18,31.66.34,47.48.52,48.22.54,96.45,1.23,144.64,3.05,49.35,1.86,98.64,4.86,148,6.65,99.74,3.63,199.56,5.52,299.38,6.43,169.18,1.54,338.38.27,507.56-.14-6.86,11.83-16.31,22.04-29.54,28.66,18.03,1.95,34.13,10.82,43.91,24.2-8,5.3-16.6,9.87-25.66,13.66,3.29.89,6.47,2.06,9.51,3.48,19.35,9.28,31.43,26.98,31.58,46.26-14.31,1.23-28.75.4-42.75-2.45,8.65,13.55,9.88,29.77,3.35,44.19-14.15-3.58-27.46-9.34-39.31-16.99-1.35,3.2-2.76,6.4-4.24,9.62,16.23,17.05,27.14,37.48,31.66,59.3-19.82-4.24-38.01-12.99-52.7-25.36l-.9,1.16c11.65,22.49,8.75,48.7-7.63,68.82-13.86-7.15-26.58-15.88-37.82-25.95,5.61,19.7,1.09,40.56-12.39,57.09-12.95-6.71-24.93-14.76-35.66-23.99-1.65,11.17-9.01,21.08-20.01,26.96-7.12-8.24-12.21-17.68-14.95-27.73-6.86,1.97-13.76,3.84-20.7,5.61,9.66,15.41,12.25,33.46,7.24,50.48-26.3-4.17-52.31-12.13-71.33-26.81-1.19,19.31-11.56,37.31-28.62,49.65-10.17-9.08-19.1-19.15-26.62-30.01-2.5,20.92-15.72,39.72-35.95,51.13-12.46-13.81-21.95-29.48-28.01-46.26-2.6,16.57-11.98,31.75-26.41,42.74-9.01-7.68-17.16-16.09-24.33-25.13-4.68,22.59-21.84,41.7-45.85,51.05-8.96-14.04-15.31-29.24-18.82-45.02-5.03,9.02-13.55,16.2-24.05,20.26-6.7-10.24-10.92-21.57-12.42-33.29-2.87-2.63-4.5-6.11-4.54-9.74-4.37,2.63-9.15,4.7-14.19,6.13,0,1.53-.08,3.06-.23,4.59-2.6,24.99-20.48,46.8-46.73,57-10.5-16.96-18.42-35.36-20.07-53.76-6.41,17.31-22.16,30.76-42.11,35.98-4.14-9.29-7.06-18.96-8.72-28.82-1.12,1.58-2.28,3.11-3.56,4.61-17.58,20.05-46.2,30.2-74.81,26.54,1.01-16.43,5.08-32.6,12.05-47.88l-5.87-.22c-5.61,20.17-21.2,37.11-42.53,46.25-8.92-12.91-15.65-26.87-19.98-41.46-7.09,16.82-21.34,30.6-39.77,38.48-9.06-13.07-15.85-27.25-20.15-42.06-3.94,14.63-15.18,26.94-30.62,33.57-10.09-15.07-17.44-31.8-16.49-48.4-5.84,7.62-13.41,14.11-22.24,19.06-24.62,13.23-55.51,13.81-80.76,1.51,6.44-12.52,14.68-24.27,24.53-34.96-12.18,4.73-25.45,6.93-38.77,6.44,4.67-15.07,14.46-28.56,28.08-38.68-2.66-4-4.49-8.38-5.4-12.93-1.87,1.26-3.78,2.5-5.79,3.61-24.62,13.25-55.52,13.83-80.76,1.51,6.76-13.18,15.53-25.5,26.08-36.62-22.96-2.17-43.73-12.91-56.96-29.44,14.04-10.33-41.66-18.66-24.64-24.67-2.3-8.67-.78-17.77,4.25-25.5-5-3.62,62.24-7.93,58.85-12.76-27.43,1.15-53.61-10.07-69.35-29.73,11.32-8.23,23.71-15.27,36.9-20.99-8.67-4.02-16.1-9.8-21.68-16.86Z"/>
    <path class="cls-7" d="M677.04-82.25c10.56-7.71,22.37-14.02,35.04-18.72-.28-.49-.49-.99-.73-1.48-16.25,3.74-33.55,1.62-47.99-5.89,9.34-16.06,21.62-31.12,38.2-40.36l.02-.84c-17.14-10.44-27.2-27.67-26.81-45.92,13.42-.82,26.91.05,40.05,2.57,2-3.44,4.22-6.79,6.64-10.02-6.96-14.39-6.54-30.69,1.15-44.79,11.43,3.77,22.26,8.78,32.25,14.92,5.26-3.19,10.81-6.01,16.58-8.43-.35-6.77,1.24-13.51,4.62-19.62,4.2,1.44,8.31,3.05,12.32,4.85,2.75-2.45,5.65-4.76,8.71-6.92-1.23-3.42-1.91-6.97-2.02-10.55,7.48-.77,15.02-.93,22.54-.47,1.88-.76,3.77-1.43,5.71-2.08-3.85-.66-7.59-1.75-11.12-3.24-1.87-.83-3.65-1.75-5.35-2.77h585.29V243.86c-1.64.76-52.12,1.49-53.83,2.15-8.96-14.04-15.31-29.24-18.82-45.02-5.03,9.02-13.55,16.2-24.05,20.26-6.7-10.24-10.92-21.57-12.42-33.29-2.87-2.63-4.5-6.11-4.54-9.74-4.37,2.63-9.14,4.7-14.19,6.13,0,1.53-.08,3.06-.23,4.59-2.6,24.99-20.48,46.8-46.73,57-10.5-16.96-18.42-35.36-20.07-53.76-6.41,17.31-22.16,30.76-42.11,35.98-4.14-9.29-7.06-18.96-8.72-28.82-1.12,1.58-2.28,3.11-3.56,4.6-17.57,20.05-46.2,30.2-74.81,26.54,1.01-16.43,5.08-32.6,12.05-47.88l-5.87-.22c-5.61,20.17-21.2,37.11-42.53,46.25-8.92-12.91-15.65-26.87-19.98-41.46-7.09,16.82-21.34,30.6-39.76,38.48-9.06-13.07-15.85-27.25-20.15-42.06-3.94,14.63-15.18,26.94-30.62,33.57-10.09-15.07-17.44-31.8-16.49-48.4-5.84,7.62-13.41,14.11-22.24,19.06-24.62,13.23-55.51,13.81-80.76,1.51,6.43-12.52,14.68-24.27,24.53-34.96-12.18,4.73-25.45,6.93-38.77,6.44,4.67-15.07,14.46-28.56,28.08-38.68-2.66-4-4.49-8.38-5.4-12.93-1.87,1.26-3.78,2.5-5.79,3.61-24.62,13.25-55.52,13.83-80.76,1.51,6.76-13.18,15.53-25.5,26.08-36.62-22.96-2.17-43.73-12.91-56.96-29.44,14.04-10.33,29.87-18.66,46.89-24.67-2.3-8.67-.78-17.77,4.25-25.5-5-3.62-9.29-7.93-12.68-12.76-27.43,1.15-53.61-10.07-69.35-29.73,11.32-8.23,23.7-15.27,36.9-20.99-8.67-4.02-16.1-9.8-21.68-16.86Z"/>
    <path class="cls-11" d="M845.26,49.75l.59.45c.4.29.97.74,1.8,1.26,2.41,1.48,5.03,2.69,7.79,3.59,4.39,1.39,9.05,2.03,13.72,1.88,6.19-.14,12.22-1.75,17.46-4.64l-.66-.54c-2.17,3.77-1.6,8.31,1.46,11.57,1.5,1.79,3.53,3.18,5.88,4.02,2.45.84,5.1,1.17,7.72.97,5.51-.47,10.7-2.48,14.79-5.74,4.21-3.42,7.95-7.26,11.15-11.43l-1.09-.25c.42,2.83,1.03,5.63,1.84,8.4.89,2.91,2.51,5.61,4.72,7.92,2.69,2.95,6.78,4.67,11.1,4.66,4.16-.32,7.99-2.13,10.56-5.01,2.45-2.7,4.07-5.91,4.72-9.3.64-3.18,1-6.4,1.09-9.63l-.85.41,32.83,16.46.4.21.21-.37c2.64-4.51,3.76-9.58,3.21-14.63-.38-3.79-1.64-7.47-3.71-10.81-1.3-2.11-2.93-4.04-4.84-5.76-.5-.44-1.03-.85-1.58-1.24-.35-.27-.54-.41-.57-.39,2.64,2.21,4.85,4.77,6.54,7.59,1.95,3.32,3.11,6.95,3.42,10.67.47,4.91-.66,9.83-3.28,14.19l.64-.14-32.76-16.5-.8-.41v.8c-.1,3.18-.47,6.35-1.11,9.49-.62,3.23-2.18,6.27-4.51,8.83-2.35,2.65-5.86,4.33-9.68,4.64-3.95-.02-7.68-1.61-10.13-4.31-2.08-2.2-3.58-4.77-4.39-7.53-.8-2.72-1.41-5.47-1.82-8.25l-.21-1.3-.87,1.05c-3.14,4.12-6.82,7.9-10.96,11.28-3.92,3.13-8.89,5.08-14.17,5.55-2.46.2-4.93-.1-7.23-.89-2.18-.76-4.07-2.04-5.46-3.69-2.86-2.97-3.43-7.13-1.46-10.6l.97-1.49-1.63.93c-5.08,2.85-10.95,4.47-16.98,4.68-4.58.19-9.17-.38-13.51-1.67-3.71-1.21-7.2-2.89-10.35-4.99Z"/>
    <path class="cls-11" d="M1129.72,88.44l.5.56c.34.36.81.91,1.53,1.57,2.09,1.9,4.44,3.58,6.99,4.97,4.06,2.18,8.52,3.68,13.14,4.39,6.11,1.01,12.33.55,18.01-1.32l-.55-.65c-2.84,3.3-3.11,7.87-.71,11.64,1.14,2.04,2.88,3.78,5.03,5.05,2.26,1.28,4.79,2.1,7.41,2.39,5.5.56,10.97-.45,15.59-2.89,4.77-2.58,9.16-5.65,13.08-9.16l-1.02-.45c-.12,2.86-.03,5.73.25,8.59.34,3.03,1.42,5.98,3.17,8.66,2.1,3.4,5.8,5.85,10.04,6.64,4.15.46,8.25-.61,11.31-2.96,2.91-2.2,5.1-5.05,6.37-8.26,1.22-3.01,2.17-6.11,2.86-9.26l-.91.25,29.2,22.27.36.28.28-.33c3.43-3.94,5.47-8.72,5.87-13.78.33-3.79-.22-7.64-1.64-11.31-.89-2.31-2.13-4.52-3.69-6.55-.41-.52-.85-1.03-1.33-1.51-.3-.33-.46-.51-.48-.49,2.18,2.66,3.88,5.59,5.02,8.67,1.3,3.62,1.77,7.4,1.38,11.12-.45,4.91-2.48,9.54-5.86,13.34l.65-.02-29.13-22.3-.71-.55-.15.79c-.69,3.11-1.65,6.16-2.85,9.12-1.21,3.06-3.3,5.75-6.07,7.84-2.81,2.17-6.56,3.17-10.38,2.76-3.88-.75-7.25-3-9.16-6.12-1.63-2.55-2.63-5.35-2.92-8.21-.28-2.82-.37-5.64-.25-8.45l.03-1.32-1.05.87c-3.85,3.46-8.17,6.5-12.87,9.05-4.43,2.35-9.68,3.34-14.96,2.82-2.45-.26-4.83-1.02-6.94-2.21-2-1.15-3.62-2.76-4.68-4.64-2.26-3.45-2.05-7.64.53-10.69l1.23-1.28-1.77.61c-5.53,1.86-11.59,2.36-17.56,1.45-4.54-.67-8.94-2.08-12.97-4.15-3.42-1.88-6.54-4.18-9.24-6.83Z"/>
    <path class="cls-11" d="M1158.4,148.03s1.49-.48,4.22-1.25c3.82-1.13,7.82-1.74,11.86-1.78,2.79.02,5.56.49,8.16,1.37,3,.93,5.82,2.23,8.39,3.87,2.82,1.85,5.35,4.01,7.53,6.43,2.47,2.49,4.36,5.37,5.59,8.48.59,1.48,1.06,2.98,1.53,4.4l.39-.57c-6.53,1.42-13.23,2.09-19.96,2.01-5.42-.1-10.77-1.13-15.73-3.03-3.32-1.26-6.37-3-9.02-5.15-1.88-1.53-2.71-2.53-2.8-2.48.16.27.35.52.57.75.62.7,1.3,1.35,2.04,1.96,2.59,2.29,5.64,4.15,9,5.49,5.03,2.02,10.47,3.14,16,3.28,6.82.15,13.63-.5,20.24-1.94l.53-.11-.14-.46c-.47-1.43-.94-2.94-1.55-4.47-1.28-3.21-3.24-6.18-5.8-8.75-2.24-2.46-4.84-4.66-7.73-6.54-2.66-1.67-5.59-2.98-8.69-3.9-2.68-.87-5.51-1.31-8.37-1.3-4.11.13-8.17.86-12,2.17-1.35.43-2.37.84-3.06,1.1-.42.08-.83.22-1.2.41Z"/>
    <path class="cls-11" d="M606.72,29.23s-1.15.79-3.31,2.16c-2.98,1.97-6.28,3.53-9.8,4.62-2.44.66-5,.94-7.56.82-2.94-.07-5.86-.51-8.67-1.29-3.08-.94-6.01-2.21-8.73-3.78-2.99-1.57-5.61-3.62-7.71-6.06-1.02-1.15-1.89-2.36-2.81-3.5l-.15.61c5.27-2.9,10.96-5.18,16.91-6.8,4.8-1.27,9.84-1.71,14.83-1.3,3.34.29,6.6,1.06,9.65,2.28,2.13.87,3.21,1.55,3.25,1.48s-.23-.21-.74-.53c-.75-.46-1.54-.88-2.36-1.24-3.04-1.35-6.34-2.22-9.73-2.57-5.08-.5-10.21-.11-15.11,1.15-6.04,1.58-11.81,3.86-17.15,6.8l-.45.23.28.36c.89,1.14,1.89,2.36,2.83,3.55,2.19,2.5,4.9,4.62,7.99,6.24,2.78,1.61,5.8,2.89,8.97,3.81,2.89.8,5.89,1.22,8.92,1.25,2.65.09,5.29-.23,7.8-.96,3.57-1.15,6.89-2.83,9.82-4.95,1.06-.73,1.89-1.32,2.34-1.75.26-.19.49-.42.68-.66Z"/>
    <path class="cls-11" d="M1095.63,57.29c-.95-.43-1.93-.8-2.93-1.11-2.66-.94-5.15-2.23-7.37-3.82-3.04-2.55-5.15-5.83-6.07-9.43-.53-2.13-.75-4.32-.66-6.5-.02-2.32.47-4.63,1.44-6.79.47-1.03.99-2.06,1.51-3.01l-.85.27c4.26,1.85,8.23,4.17,11.81,6.91,2.89,2.22,5.25,4.91,6.94,7.92,1.49,2.78,2.35,5.78,2.53,8.85.22-.82.28-1.66.17-2.5-.18-2.31-.83-4.56-1.94-6.66-1.66-3.13-4.02-5.94-6.94-8.25-3.63-2.86-7.69-5.26-12.07-7.16l-.57-.27-.28.52c-.5.95-1.04,2.06-1.51,3.05-1.04,2.28-1.55,4.72-1.51,7.18-.08,2.26.18,4.52.78,6.73.56,2,1.47,3.91,2.69,5.67,1.01,1.57,2.34,2.97,3.92,4.13,2.33,1.57,4.94,2.79,7.72,3.61,1.02.35,2.1.57,3.19.66Z"/>
    <path class="cls-11" d="M1042.45,55.8c-.95-.43-1.93-.8-2.93-1.11-2.66-.94-5.15-2.23-7.37-3.82-3.04-2.55-5.15-5.83-6.07-9.43-.53-2.13-.75-4.32-.66-6.5-.02-2.32.47-4.63,1.44-6.79.47-1.03.99-2.06,1.51-3.01l-.85.27c4.26,1.85,8.23,4.17,11.81,6.91,2.89,2.22,5.25,4.91,6.94,7.92,1.49,2.78,2.35,5.78,2.53,8.85.22-.82.28-1.66.17-2.5-.18-2.31-.83-4.56-1.94-6.66-1.66-3.13-4.02-5.94-6.94-8.25-3.63-2.86-7.69-5.26-12.07-7.16l-.57-.27-.28.52c-.5.95-1.04,2.06-1.51,3.05-1.04,2.28-1.55,4.72-1.51,7.18-.08,2.26.18,4.52.78,6.73.56,2,1.47,3.91,2.69,5.67,1.01,1.57,2.34,2.97,3.92,4.13,2.33,1.57,4.94,2.79,7.72,3.61,1.02.35,2.1.57,3.19.66Z"/>
    <path class="cls-11" d="M1164.91,9.22c-.21-.01-.43-.01-.64,0l-1.8.25c-1.58.25-3.92.6-6.94,1.2-3.71.69-7.31,1.78-10.7,3.26-4.47,2.19-8.33,5.21-11.31,8.85l-.19.23.21.23c4.35,4.02,9.83,6.97,15.9,8.56,7.06,1.74,14.27,2.98,21.57,3.69l-.17-.89c-10.06,4.14-18.54,10.74-24.4,19l-.45.64.85.12c12.89,1.88,26.09-.99,36.47-7.92l-.99-.47c-.29,2.18-.29,4.38,0,6.56.71,5.28,3.1,10.28,6.9,14.44,1.84,2.18,4.64,3.58,7.72,3.88,3.02.03,5.94-.89,8.24-2.6,4.27-3.2,7.49-7.33,9.33-11.97,1.83-4.36,2.53-9.01,2.05-13.64l-.9.43c5.46,3.99,11.84,6.9,18.71,8.54,6.09,1.25,12.27,2.13,18.49,2.64h.52s0-.45,0-.45c-.24-3.14-1.14-6.21-2.67-9.06-1.28-2.54-2.86-4.95-4.72-7.2-2.96-3.62-6.54-6.82-10.63-9.47-2.55-1.73-5.45-3.03-8.55-3.82-.77-.21-1.56-.35-2.36-.41-.28-.02-.57-.02-.85,0l.85.17c.8.09,1.6.26,2.36.5,3.03.86,5.84,2.21,8.31,3.96,3.99,2.68,7.49,5.88,10.37,9.49,1.86,2.22,3.44,4.61,4.72,7.12,1.45,2.77,2.31,5.75,2.53,8.79l.5-.39c-6.18-.55-12.31-1.46-18.35-2.72-6.72-1.64-12.95-4.52-18.28-8.46l-1.02-.72.12,1.16c.43,4.47-.26,8.97-2.03,13.18-1.78,4.45-4.88,8.42-8.98,11.49-2.07,1.53-4.7,2.37-7.42,2.35-2.75-.26-5.25-1.53-6.87-3.49-3.64-3.99-5.94-8.79-6.64-13.86-.27-2.1-.27-4.23,0-6.33l.14-1.24-1.13.76c-10.09,6.73-22.9,9.53-35.43,7.76l.4.78c5.71-8.11,14-14.61,23.86-18.69l1.61-.68-1.77-.21c-7.24-.68-14.4-1.87-21.42-3.55-5.95-1.5-11.33-4.35-15.61-8.25v.43c2.88-3.59,6.62-6.58,10.96-8.79,3.33-1.5,6.86-2.63,10.51-3.36,3-.68,5.31-1.07,6.9-1.38l1.77-.35.35-.08Z"/>
    <path class="cls-11" d="M1048.86,92.27c-.21-.01-.43-.01-.64,0l-1.8.25c-1.58.25-3.92.6-6.94,1.2-3.71.69-7.31,1.78-10.7,3.26-4.47,2.19-8.33,5.21-11.31,8.85l-.19.23.21.23c4.35,4.02,9.83,6.97,15.9,8.56,7.06,1.74,14.27,2.98,21.57,3.69l-.17-.89c-10.06,4.14-18.54,10.74-24.4,19l-.45.64.85.12c12.89,1.88,26.09-.99,36.47-7.92l-.99-.47c-.29,2.18-.29,4.38,0,6.56.71,5.28,3.1,10.28,6.9,14.44,1.84,2.18,4.64,3.58,7.72,3.88,3.02.03,5.94-.89,8.24-2.6,4.27-3.2,7.49-7.33,9.33-11.97,1.83-4.36,2.53-9.01,2.05-13.64l-.9.43c5.46,3.99,11.84,6.9,18.71,8.54,6.09,1.25,12.27,2.13,18.49,2.64h.52s0-.45,0-.45c-.24-3.14-1.14-6.21-2.67-9.06-1.28-2.54-2.86-4.95-4.72-7.2-2.96-3.62-6.54-6.82-10.63-9.47-2.55-1.73-5.45-3.03-8.55-3.82-.77-.21-1.56-.35-2.36-.41-.28-.02-.57-.02-.85,0l.85.17c.8.09,1.6.26,2.36.5,3.03.86,5.84,2.21,8.31,3.96,3.99,2.68,7.49,5.88,10.37,9.49,1.86,2.22,3.44,4.61,4.72,7.12,1.45,2.77,2.31,5.75,2.53,8.79l.5-.39c-6.18-.55-12.31-1.46-18.35-2.72-6.72-1.64-12.95-4.52-18.28-8.46l-1.02-.72.12,1.16c.43,4.47-.26,8.97-2.03,13.18-1.78,4.45-4.88,8.42-8.98,11.49-2.07,1.53-4.7,2.37-7.42,2.35-2.75-.26-5.25-1.53-6.87-3.49-3.64-3.99-5.94-8.79-6.64-13.86-.27-2.1-.27-4.23,0-6.33l.14-1.24-1.13.76c-10.09,6.73-22.9,9.53-35.43,7.76l.4.78c5.71-8.11,14-14.61,23.86-18.69l1.61-.68-1.77-.21c-7.24-.68-14.4-1.87-21.42-3.55-5.95-1.5-11.33-4.35-15.61-8.25v.43c2.88-3.59,6.62-6.58,10.96-8.79,3.33-1.5,6.86-2.63,10.51-3.36,3-.68,5.31-1.07,6.9-1.38l1.77-.35.35-.08Z"/>
    <path class="cls-11" d="M916.67,92.27c-.21-.01-.43-.01-.64,0l-1.8.25c-1.58.25-3.92.6-6.94,1.2-3.71.69-7.31,1.78-10.7,3.26-4.47,2.19-8.33,5.21-11.31,8.85l-.19.23.21.23c4.35,4.02,9.83,6.97,15.9,8.56,7.06,1.74,14.27,2.98,21.57,3.69l-.17-.89c-10.06,4.14-18.54,10.74-24.4,19l-.45.64.85.12c12.89,1.88,26.09-.99,36.47-7.92l-.99-.47c-.29,2.18-.29,4.38,0,6.56.71,5.28,3.1,10.28,6.9,14.44,1.84,2.18,4.64,3.58,7.72,3.88,3.02.03,5.94-.89,8.24-2.6,4.27-3.2,7.49-7.33,9.33-11.97,1.83-4.36,2.53-9.01,2.05-13.64l-.9.43c5.46,3.99,11.84,6.9,18.71,8.54,6.09,1.25,12.27,2.13,18.49,2.64h.52s0-.45,0-.45c-.24-3.14-1.14-6.21-2.67-9.06-1.28-2.54-2.86-4.95-4.72-7.2-2.96-3.62-6.54-6.82-10.63-9.47-2.55-1.73-5.45-3.03-8.55-3.82-.77-.21-1.56-.35-2.36-.41-.28-.02-.57-.02-.85,0l.85.17c.8.09,1.6.26,2.36.5,3.03.86,5.84,2.21,8.31,3.96,3.99,2.68,7.49,5.88,10.37,9.49,1.86,2.22,3.44,4.61,4.72,7.12,1.45,2.77,2.31,5.75,2.53,8.79l.5-.39c-6.18-.55-12.31-1.46-18.35-2.72-6.72-1.64-12.95-4.52-18.28-8.46l-1.02-.72.12,1.16c.43,4.47-.26,8.97-2.03,13.18-1.78,4.45-4.88,8.42-8.98,11.49-2.07,1.53-4.7,2.37-7.42,2.35-2.75-.26-5.25-1.53-6.87-3.49-3.64-3.99-5.94-8.79-6.64-13.86-.27-2.1-.27-4.23,0-6.33l.14-1.24-1.13.76c-10.09,6.73-22.9,9.53-35.43,7.76l.4.78c5.71-8.11,14-14.61,23.86-18.69l1.61-.68-1.77-.21c-7.24-.68-14.4-1.87-21.42-3.55-5.95-1.5-11.33-4.35-15.61-8.25v.43c2.88-3.59,6.62-6.58,10.96-8.79,3.33-1.5,6.86-2.63,10.51-3.36,3-.68,5.31-1.07,6.9-1.38l1.77-.35.35-.08Z"/>
    <path class="cls-11" d="M699.36,17.63s-.5,1.55-1.49,4.31c-1.31,3.92-3.32,7.64-5.95,11.02-1.9,2.25-4.25,4.19-6.92,5.74-3.01,1.85-6.31,3.3-9.8,4.31-3.89,1.06-7.93,1.68-12,1.86-4.34.36-8.71,0-12.9-1.07-2.01-.52-3.94-1.13-5.79-1.71l.35.7c2.84-6.33,6.62-12.3,11.22-17.78,3.75-4.39,8.44-8.1,13.82-10.91,3.6-1.88,7.54-3.22,11.64-3.98,2.91-.5,4.56-.52,4.54-.62-.39-.06-.79-.06-1.18,0-1.15.02-2.29.11-3.42.27-4.22.61-8.27,1.87-11.98,3.73-5.52,2.79-10.34,6.53-14.17,10.98-4.73,5.51-8.59,11.55-11.48,17.95l-.26.54.61.19c1.84.58,3.8,1.2,5.86,1.73,4.33,1.1,8.86,1.47,13.35,1.09,4.17-.21,8.29-.91,12.26-2.06,3.59-1.06,6.97-2.58,10.04-4.52,2.76-1.61,5.17-3.65,7.09-6.02,2.6-3.48,4.54-7.3,5.72-11.33.43-1.4.69-2.52.85-3.28.05-.37.05-.74,0-1.11Z"/>
    <path class="cls-11" d="M712.92,17.3c1.15.45,2.32.85,3.52,1.2,3.21,1.02,6.21,2.47,8.9,4.29,1.79,1.3,3.3,2.86,4.46,4.62,1.38,2,2.44,4.16,3.14,6.42.73,2.51,1.09,5.1,1.06,7.69.11,2.77-.39,5.54-1.46,8.15-.5,1.24-1.11,2.45-1.65,3.61l.83-.27c-5.16-2.08-10-4.74-14.38-7.9-3.5-2.56-6.41-5.69-8.55-9.22-1.9-3.25-3-6.81-3.24-10.46,0,0,0,.27-.12.76-.07.73-.07,1.47,0,2.21.31,2.72,1.18,5.37,2.57,7.82,2.08,3.69,5,6.96,8.57,9.63,4.41,3.26,9.31,5.99,14.55,8.11l.59.25.24-.52c.57-1.16,1.18-2.37,1.7-3.67,1.12-2.72,1.63-5.61,1.51-8.5,0-2.68-.38-5.35-1.16-7.94-.75-2.34-1.9-4.57-3.4-6.62-1.23-1.82-2.83-3.44-4.72-4.77-2.81-1.82-5.94-3.22-9.28-4.13-1.16-.33-2.08-.54-2.72-.66-.32-.07-.64-.1-.97-.1Z"/>
    <path class="cls-11" d="M484.07,15.49s-.5,1.55-1.49,4.31c-1.31,3.92-3.32,7.64-5.95,11.02-1.9,2.25-4.25,4.19-6.92,5.74-3.01,1.85-6.31,3.3-9.8,4.31-3.89,1.06-7.93,1.68-12,1.86-4.34.36-8.71,0-12.9-1.07-2.01-.52-3.94-1.13-5.79-1.71l.35.7c2.84-6.33,6.62-12.3,11.22-17.78,3.75-4.39,8.44-8.1,13.82-10.91,3.6-1.88,7.54-3.22,11.64-3.98,2.91-.5,4.56-.52,4.54-.62-.39-.06-.79-.06-1.18,0-1.15.02-2.29.11-3.42.27-4.22.61-8.27,1.87-11.98,3.73-5.52,2.79-10.34,6.53-14.17,10.98-4.73,5.51-8.59,11.55-11.48,17.95l-.26.54.61.19c1.84.58,3.8,1.2,5.86,1.73,4.33,1.1,8.86,1.47,13.35,1.09,4.17-.21,8.29-.91,12.26-2.06,3.59-1.06,6.97-2.58,10.04-4.52,2.76-1.61,5.17-3.65,7.09-6.02,2.6-3.48,4.54-7.3,5.72-11.33.43-1.4.69-2.52.85-3.28.05-.37.05-.74,0-1.11Z"/>
    <path class="cls-11" d="M497.63,15.16c1.15.45,2.32.85,3.52,1.2,3.21,1.02,6.21,2.47,8.9,4.29,1.79,1.3,3.3,2.86,4.46,4.62,1.38,2,2.44,4.16,3.14,6.42.73,2.51,1.09,5.1,1.06,7.69.11,2.77-.39,5.54-1.46,8.15-.5,1.24-1.11,2.45-1.65,3.61l.83-.27c-5.16-2.08-10-4.74-14.38-7.9-3.5-2.56-6.41-5.69-8.55-9.22-1.9-3.25-3-6.81-3.24-10.46,0,0,0,.27-.12.76-.07.73-.07,1.47,0,2.21.31,2.72,1.18,5.37,2.57,7.82,2.08,3.69,5,6.96,8.57,9.63,4.41,3.26,9.31,5.99,14.55,8.11l.59.25.24-.52c.57-1.16,1.18-2.37,1.7-3.67,1.12-2.72,1.63-5.61,1.51-8.5,0-2.68-.38-5.35-1.16-7.94-.75-2.34-1.9-4.57-3.4-6.62-1.23-1.82-2.83-3.44-4.72-4.77-2.81-1.82-5.94-3.22-9.28-4.13-1.16-.33-2.08-.54-2.72-.66-.32-.07-.64-.1-.97-.1Z"/>
    <path class="cls-11" d="M806.06,22.24s-.4,1.13-1.16,3.14c-1,2.85-2.5,5.55-4.44,8-1.39,1.63-3.1,3.02-5.05,4.13-2.18,1.32-4.57,2.36-7.09,3.09-2.83.76-5.76,1.2-8.72,1.32-3.18.25-6.39-.04-9.45-.85-1.44-.37-2.86-.83-4.2-1.26l.35.72c2.09-4.61,4.86-8.97,8.24-12.96,2.74-3.2,6.18-5.9,10.11-7.94,3.63-1.82,7.65-2.98,11.81-3.4h-.87c-.85,0-1.69.07-2.53.19-3.1.4-6.08,1.3-8.81,2.64-4.09,2.02-7.67,4.73-10.53,7.98-3.51,4.01-6.38,8.43-8.53,13.12l-.26.54.61.19c1.35.43,2.79.89,4.28,1.28,3.18.83,6.52,1.13,9.83.87,3.06-.14,6.1-.61,9.02-1.42,2.64-.78,5.13-1.9,7.39-3.32,2.02-1.18,3.77-2.68,5.17-4.41,1.93-2.52,3.34-5.31,4.18-8.25.26-.79.47-1.59.61-2.39.05-.68.07-.97.02-.99Z"/>
    <path class="cls-11" d="M880.9,134.44s-.45,1.28-1.31,3.55c-1.13,3.23-2.83,6.29-5.03,9.06-1.57,1.84-3.51,3.42-5.72,4.67-2.47,1.49-5.17,2.67-8.02,3.5-3.2.86-6.52,1.36-9.87,1.5-3.6.28-7.23-.05-10.7-.96-1.63-.42-3.24-.93-4.76-1.43l.4.82c2.37-5.22,5.51-10.15,9.33-14.67,3.1-3.63,6.99-6.68,11.45-8.99,4.11-2.06,8.66-3.38,13.37-3.85h-.99c-.96,0-1.92.08-2.86.21-3.51.46-6.89,1.47-9.98,2.99-4.63,2.28-8.69,5.36-11.93,9.04-3.98,4.55-7.23,9.54-9.66,14.86l-.29.61.7.21c1.52.49,3.16,1,4.84,1.45,3.6.95,7.38,1.28,11.13.98,3.47-.15,6.9-.7,10.22-1.61,2.99-.88,5.81-2.15,8.37-3.76,2.29-1.34,4.27-3.03,5.86-5,2.18-2.85,3.78-6.02,4.73-9.34.29-.89.53-1.8.7-2.71.05-.77.08-1.1.03-1.12Z"/>
    <path class="cls-11" d="M795.04,67c.76.36,1.55.66,2.36.91,2.11.73,4.08,1.75,5.83,3.01,2.39,2.01,4.04,4.59,4.72,7.43.43,1.68.63,3.4.57,5.12.01,1.83-.36,3.65-1.11,5.36-.35.83-.78,1.63-1.16,2.39l.83-.27c-3.4-1.45-6.57-3.26-9.45-5.41-2.29-1.74-4.18-3.84-5.57-6.19-1.19-2.2-1.91-4.57-2.13-6.99-.23.67-.29,1.37-.17,2.06.14,1.84.66,3.64,1.54,5.32,1.34,2.51,3.24,4.75,5.6,6.6,2.89,2.27,6.14,4.17,9.64,5.65l.57.27.26-.52c.4-.76.83-1.59,1.2-2.45.79-1.83,1.19-3.78,1.16-5.74.05-1.81-.17-3.61-.66-5.36-.85-3.01-2.73-5.72-5.39-7.78-1.86-1.24-3.95-2.19-6.19-2.81-.77-.32-1.6-.53-2.46-.62Z"/>
    <path class="cls-38" d="M761.93,647.09s-1.9-7.15,2.82-7.37c4.71-.23,1.43,8.08,1.43,8.08,0,0,7.68-5.35,9.73-.95,2.04,4.4-6.09,5.32-6.09,5.32,0,0,9.86-.65,9.31,3.53-.55,4.18-10.52.78-10.52.78,0,0,9,6.71,4.51,9.33-4.49,2.62-8.79-6.26-8.79-6.26,0,0,2.22,8.25-2.93,8.67-5.15.43-4.6-11.06-4.6-11.06,0,0-4.97,7.73-6.91,4.31-1.94-3.41,5.85-7.38,5.85-7.38,0,0-9.5-3.17-7.23-7.12,2.27-3.95,10.04,2.43,10.04,2.43,0,0-6.28-5.47-3.4-7.7,2.89-2.23,6.8,5.41,6.8,5.41Z"/>
    <path class="cls-28" d="M764.62,653.8c.52,1.12,1.84,1.6,2.96,1.08,1.11-.52,1.6-1.84,1.08-2.96-.52-1.12-1.84-1.6-2.96-1.08-1.11.52-1.6,1.84-1.08,2.96Z"/>
    <path class="cls-28" d="M757,651.3c.52,1.12,1.84,1.6,2.96,1.08,1.11-.52,1.6-1.84,1.08-2.96-.52-1.12-1.84-1.6-2.96-1.08-1.11.52-1.6,1.84-1.08,2.96Z"/>
    <path class="cls-28" d="M759.92,656.41c.52,1.12,1.85,1.6,2.96,1.08,1.12-.52,1.6-1.84,1.08-2.96-.52-1.12-1.84-1.6-2.96-1.08-1.12.52-1.6,1.84-1.09,2.96Z"/>
    <path class="cls-38" d="M70.97,606.43s-1.9-7.15,2.82-7.37c4.71-.23,1.43,8.08,1.43,8.08,0,0,7.68-5.35,9.73-.95,2.04,4.4-6.09,5.32-6.09,5.32,0,0,9.86-.65,9.31,3.53-.55,4.18-10.52.78-10.52.78,0,0,9,6.71,4.51,9.33-4.49,2.62-8.79-6.26-8.79-6.26,0,0,2.22,8.25-2.93,8.67-5.15.43-4.6-11.06-4.6-11.06,0,0-4.97,7.73-6.91,4.31-1.94-3.41,5.85-7.38,5.85-7.38,0,0-9.5-3.17-7.23-7.12,2.27-3.95,10.04,2.43,10.04,2.43,0,0-6.28-5.47-3.4-7.7,2.89-2.23,6.8,5.41,6.8,5.41Z"/>
    <path class="cls-28" d="M73.67,613.14c.52,1.12,1.84,1.6,2.96,1.08,1.11-.52,1.6-1.84,1.08-2.96-.52-1.12-1.84-1.6-2.96-1.08-1.11.52-1.6,1.84-1.08,2.96Z"/>
    <path class="cls-28" d="M66.05,610.64c.52,1.12,1.84,1.6,2.96,1.08,1.11-.52,1.6-1.84,1.08-2.96-.52-1.12-1.84-1.6-2.96-1.08-1.11.52-1.6,1.84-1.08,2.96Z"/>
    <path class="cls-28" d="M68.97,615.75c.52,1.12,1.85,1.6,2.96,1.08,1.12-.52,1.6-1.84,1.08-2.96-.52-1.12-1.84-1.6-2.96-1.08-1.12.52-1.6,1.84-1.09,2.96Z"/>
    <path class="cls-38" d="M729.04,688.01s-1.42-5.36,2.11-5.53c3.54-.17,1.07,6.06,1.07,6.06,0,0,5.77-4.01,7.3-.71,1.53,3.3-4.57,3.99-4.57,3.99,0,0,7.4-.49,6.98,2.65-.42,3.14-7.89.58-7.89.58,0,0,6.75,5.03,3.38,7-3.37,1.97-6.6-4.7-6.6-4.7,0,0,1.67,6.19-2.2,6.51-3.87.32-3.45-8.3-3.45-8.3,0,0-3.73,5.8-5.19,3.24-1.46-2.56,4.39-5.54,4.39-5.54,0,0-7.13-2.38-5.42-5.34,1.7-2.97,7.54,1.82,7.54,1.82,0,0-4.72-4.1-2.55-5.78,2.17-1.68,5.1,4.06,5.1,4.06Z"/>
    <path class="cls-28" d="M731.06,693.05c.39.84,1.38,1.2,2.22.81.84-.39,1.2-1.38.81-2.22-.39-.84-1.38-1.2-2.22-.81-.84.39-1.2,1.38-.81,2.22Z"/>
    <path class="cls-28" d="M727.53,695.01c.39.84,1.39,1.2,2.22.81.84-.39,1.2-1.38.81-2.22-.39-.84-1.38-1.2-2.22-.81-.84.39-1.2,1.38-.81,2.22Z"/>
    <path class="cls-38" d="M390.24,610.64s-1.42-5.36,2.11-5.53c3.54-.17,1.07,6.06,1.07,6.06,0,0,5.77-4.01,7.3-.71,1.53,3.3-4.57,3.99-4.57,3.99,0,0,7.4-.49,6.98,2.65-.42,3.14-7.89.58-7.89.58,0,0,6.75,5.03,3.38,7-3.37,1.97-6.6-4.7-6.6-4.7,0,0,1.67,6.19-2.2,6.51-3.87.32-3.45-8.3-3.45-8.3,0,0-3.73,5.8-5.19,3.24-1.46-2.56,4.39-5.54,4.39-5.54,0,0-7.13-2.38-5.42-5.34,1.7-2.97,7.54,1.82,7.54,1.82,0,0-4.72-4.1-2.55-5.78,2.17-1.68,5.1,4.06,5.1,4.06Z"/>
    <path class="cls-28" d="M392.26,615.68c.39.84,1.38,1.2,2.22.81.84-.39,1.2-1.38.81-2.22-.39-.84-1.38-1.2-2.22-.81-.84.39-1.2,1.38-.81,2.22Z"/>
    <path class="cls-28" d="M388.73,617.64c.39.84,1.39,1.2,2.22.81.84-.39,1.2-1.38.81-2.22-.39-.84-1.38-1.2-2.22-.81-.84.39-1.2,1.38-.81,2.22Z"/>
    <path class="cls-38" d="M709.53,629.69s-1.42-5.36,2.11-5.53c3.54-.17,1.07,6.06,1.07,6.06,0,0,5.77-4.01,7.3-.71,1.53,3.3-4.57,3.99-4.57,3.99,0,0,7.4-.49,6.98,2.65-.42,3.14-7.89.58-7.89.58,0,0,6.75,5.03,3.38,7-3.37,1.97-6.6-4.7-6.6-4.7,0,0,1.67,6.19-2.2,6.51-3.87.32-3.45-8.3-3.45-8.3,0,0-3.73,5.8-5.19,3.24-1.46-2.56,4.39-5.54,4.39-5.54,0,0-7.13-2.38-5.42-5.34,1.7-2.97,7.54,1.82,7.54,1.82,0,0-4.72-4.1-2.55-5.78,2.17-1.68,5.1,4.06,5.1,4.06Z"/>
    <path class="cls-28" d="M711.55,634.72c.39.84,1.38,1.2,2.22.81.84-.39,1.2-1.38.81-2.22-.39-.84-1.38-1.2-2.22-.81-.84.39-1.2,1.38-.81,2.22Z"/>
    <path class="cls-28" d="M705.84,632.85c.39.84,1.38,1.2,2.22.81.84-.39,1.2-1.38.81-2.22-.39-.84-1.38-1.2-2.22-.81-.84.39-1.2,1.38-.81,2.22Z"/>
    <path class="cls-28" d="M708.03,636.68c.39.84,1.39,1.2,2.22.81.84-.39,1.2-1.38.81-2.22-.39-.84-1.38-1.2-2.22-.81-.84.39-1.2,1.38-.81,2.22Z"/>
    <path class="cls-38" d="M643.07,638.11s-1.42-5.36,2.11-5.53c3.54-.17,1.07,6.06,1.07,6.06,0,0,5.77-4.01,7.3-.71,1.53,3.3-4.57,3.99-4.57,3.99,0,0,7.4-.49,6.98,2.65-.42,3.14-7.89.58-7.89.58,0,0,6.75,5.03,3.38,7-3.37,1.97-6.6-4.7-6.6-4.7,0,0,1.67,6.19-2.2,6.51-3.87.32-3.45-8.3-3.45-8.3,0,0-3.73,5.8-5.19,3.24-1.46-2.56,4.39-5.54,4.39-5.54,0,0-7.13-2.38-5.42-5.34,1.7-2.97,7.54,1.82,7.54,1.82,0,0-4.72-4.1-2.55-5.78,2.17-1.68,5.1,4.06,5.1,4.06Z"/>
    <path class="cls-28" d="M645.09,643.14c.39.84,1.38,1.2,2.22.81.84-.39,1.2-1.38.81-2.22-.39-.84-1.38-1.2-2.22-.81-.84.39-1.2,1.38-.81,2.22Z"/>
    <path class="cls-28" d="M639.37,641.27c.39.84,1.38,1.2,2.22.81.84-.39,1.2-1.38.81-2.22-.39-.84-1.38-1.2-2.22-.81-.84.39-1.2,1.38-.81,2.22Z"/>
    <path class="cls-28" d="M640.45,646.6c.39.84,1.39,1.2,2.22.81.84-.39,1.2-1.38.81-2.22-.39-.84-1.38-1.2-2.22-.81-.84.39-1.2,1.38-.81,2.22Z"/>
    <path class="cls-38" d="M681.68,661.32s-1.84-6.94,2.73-7.15c4.57-.22,1.39,7.84,1.39,7.84,0,0,7.46-5.19,9.44-.92,1.98,4.27-5.91,5.17-5.91,5.17,0,0,9.57-.63,9.03,3.43-.54,4.06-10.21.75-10.21.75,0,0,8.73,6.51,4.37,9.05-4.36,2.54-8.53-6.08-8.53-6.08,0,0,2.15,8-2.84,8.42-5,.42-4.46-10.74-4.46-10.74,0,0-4.83,7.5-6.71,4.19-1.89-3.31,5.67-7.17,5.67-7.17,0,0-9.22-3.07-7.01-6.91,2.2-3.84,9.75,2.35,9.75,2.35,0,0-6.1-5.3-3.3-7.47,2.8-2.17,6.59,5.25,6.59,5.25Z"/>
    <path class="cls-28" d="M684.29,667.84c.5,1.08,1.79,1.55,2.87,1.05,1.08-.5,1.55-1.79,1.05-2.87-.5-1.08-1.79-1.55-2.87-1.05-1.08.5-1.55,1.79-1.05,2.87Z"/>
    <path class="cls-28" d="M676.9,665.41c.5,1.08,1.79,1.55,2.87,1.05,1.08-.5,1.55-1.79,1.05-2.87-.5-1.08-1.79-1.55-2.87-1.05-1.08.5-1.55,1.79-1.05,2.87Z"/>
    <path class="cls-28" d="M678.3,672.3c.5,1.08,1.79,1.55,2.87,1.05,1.08-.5,1.55-1.79,1.05-2.87-.5-1.08-1.79-1.55-2.87-1.05-1.08.5-1.55,1.79-1.05,2.87Z"/>
    <path class="cls-38" d="M427.4,625.09s-1.84-6.94,2.73-7.15c4.57-.22,1.39,7.84,1.39,7.84,0,0,7.46-5.19,9.44-.92,1.98,4.27-5.91,5.17-5.91,5.17,0,0,9.57-.63,9.03,3.43-.54,4.06-10.21.75-10.21.75,0,0,8.73,6.51,4.37,9.05-4.36,2.54-8.53-6.08-8.53-6.08,0,0,2.15,8-2.84,8.42-5,.42-4.46-10.74-4.46-10.74,0,0-4.83,7.5-6.71,4.19-1.89-3.31,5.67-7.17,5.67-7.17,0,0-9.22-3.07-7.01-6.91,2.2-3.84,9.75,2.35,9.75,2.35,0,0-6.1-5.3-3.3-7.47,2.8-2.17,6.59,5.25,6.59,5.25Z"/>
    <path class="cls-28" d="M430.01,631.61c.5,1.08,1.79,1.55,2.87,1.05,1.08-.5,1.55-1.79,1.05-2.87-.5-1.08-1.79-1.55-2.87-1.05-1.08.5-1.55,1.79-1.05,2.87Z"/>
    <path class="cls-28" d="M422.62,629.18c.5,1.08,1.79,1.55,2.87,1.05,1.08-.5,1.55-1.79,1.05-2.87-.5-1.08-1.79-1.55-2.87-1.05-1.08.5-1.55,1.79-1.05,2.87Z"/>
    <path class="cls-28" d="M424.02,636.07c.5,1.08,1.79,1.55,2.87,1.05,1.08-.5,1.55-1.79,1.05-2.87-.5-1.08-1.79-1.55-2.87-1.05-1.08.5-1.55,1.79-1.05,2.87Z"/>
    <path class="cls-38" d="M628.61,697.01s-.98-3.71,1.46-3.83c2.45-.12.74,4.19.74,4.19,0,0,3.99-2.78,5.05-.49,1.06,2.29-3.16,2.76-3.16,2.76,0,0,5.12-.34,4.83,1.83-.29,2.17-5.46.4-5.46.4,0,0,4.67,3.48,2.34,4.84-2.33,1.36-4.57-3.25-4.57-3.25,0,0,1.15,4.28-1.52,4.5-2.67.22-2.39-5.75-2.39-5.75,0,0-2.58,4.01-3.59,2.24-1.01-1.77,3.04-3.83,3.04-3.83,0,0-4.93-1.64-3.75-3.7,1.18-2.05,5.21,1.26,5.21,1.26,0,0-3.26-2.84-1.76-4,1.5-1.16,3.53,2.81,3.53,2.81Z"/>
    <path class="cls-28" d="M630.01,700.49c.27.58.96.83,1.54.56.58-.27.83-.96.56-1.54-.27-.58-.96-.83-1.54-.56-.58.27-.83.96-.56,1.54Z"/>
    <path class="cls-28" d="M626.06,699.19c.27.58.96.83,1.54.56.58-.27.83-.96.56-1.54-.27-.58-.96-.83-1.54-.56-.58.27-.83.96-.56,1.54Z"/>
    <path class="cls-28" d="M627.57,701.85c.27.58.96.83,1.54.56.58-.27.83-.96.56-1.54-.27-.58-.96-.83-1.54-.56-.58.27-.83.96-.56,1.54Z"/>
  </g>
  <g id="Layer_10" data-name="Layer 10">
    <polygon class="cls-24" points="434.5 431 418.71 478.49 385.25 478.23 425.31 424.05 434.5 431"/>
    <path class="cls-24" d="M382.61,458.18s37.11,11.62,46.24,8.79c6.1-1.89,12.73-8.19,18.71-10.44l36.65,3.22c4.56.44,24.81,3.01,24.18,4.56h0c-3.27,6.26-3.34,17.85-1.55,24.77l.6,1.71c-.49,2.13-22.01,2.97-26.19,3.12-17.87.6-67.97,11.08-77.8,11.09-11.53.01-14.42.27-23.14-18.34-9.22-13.2,2.3-28.47,2.3-28.47Z"/>
    <polygon class="cls-2" points="281.66 937.89 323.5 930.14 327.55 903.89 281.77 896.89 281.66 937.89"/>
    <g>
      <path class="cls-17" d="M399.81,962.14s1.63-7.46-5.26-10.24c-6.89-2.79-22.45-7.48-33.94-13.09-15.96-7.79-25.29-19.34-32.38-19.92-7.22-.59-5.91,10.43-21.67,10.64-15.63.2-27.31-7.6-28.04-7.85-3.56,1.93-10.17,24.54-6,30.25,4.17,5.71,42.26,8.64,42.26,8.64l30.47,6.01,30.52,1.38,24.04-5.81Z"/>
      <path class="cls-26" d="M301.23,959.12c.25-4.62-.36-10.77-5.15-12.97-3.32-1.53-6.99-2.38-10.4-3.7-2.71-1.05-5.53-2.31-7.49-4.53-2.71-3.06-2.86-7.12-2.18-10.96.04-.22-.51-.14-.54.06-.56,3.17-.63,6.5.99,9.39,1.3,2.32,3.48,3.87,5.82,5.03,2.96,1.46,6.15,2.43,9.27,3.5,1.71.59,3.64,1.04,5.15,2.07,1.25.85,2.17,2.1,2.77,3.47,1.19,2.7,1.36,5.78,1.2,8.69-.01.24.53.13.54-.06h0Z"/>
      <path class="cls-26" d="M276.76,923.47c5.1,3.51,10.62,6.18,16.74,7.29,6.58,1.19,13.7.92,20.29-.18,5.46-.91,10.89-3.72,16.51-3.04,3.76.46,7.26,2.26,10.5,4.12,3.71,2.13,7.26,4.52,10.91,6.76,2.02,1.24,4.07,2.44,6.16,3.55.8.43,1.09.64,1.93.52,2.13-.3,2.66-2.01,2.24-3.97-.02-.1-.57.03-.54.14.23,1.09.37,2.52-.64,3.28s-1.75.24-2.69-.27c-3.37-1.8-6.61-3.83-9.83-5.87-3.3-2.09-6.59-4.25-10.1-5.99-2.73-1.35-5.69-2.49-8.77-2.59-4.88-.16-9.45,1.94-14.15,2.9-2.68.55-5.41.81-8.14.95-3.89.21-7.81.27-11.68-.28-6.69-.94-12.7-3.71-18.22-7.51-.12-.08-.57.14-.51.18h0Z"/>
      <path class="cls-26" d="M324.55,962.3c-1.22-.24-2.44-.48-3.66-.72l-2.15-.42c-.1-.02-.43-.02-.49-.1.2.22,1.23-.83,1.49-1.03,4.58-3.6,10.29-5.32,16.06-5.61,6.41-.32,12.84-.15,19.25-.41,4.94-.2,10.09-.38,14.88-1.71,1.47-.41,3.13-.96,4.21-2.1,1.63-1.72.66-4.23-.35-6.02-.11-.19-.63,0-.5.23.96,1.71,1.93,4.18.28,5.77-.96.92-2.36,1.39-3.61,1.74-3.83,1.09-7.93,1.35-11.89,1.58-4.91.28-9.83.35-14.75.42-4.68.07-9.4-.07-13.98,1.09-4.3,1.09-8.25,3.15-11.53,6.14-.08.08-.05.21.06.23,2.12.42,4.23.83,6.35,1.25.21.04.64-.27.32-.34h0Z"/>
      <g>
        <path class="cls-34" d="M320.4,961.55l.14.16-.26-.05s.08-.07.12-.1Z"/>
        <path class="cls-19" d="M320.26,961.61c.05.05.09.1.14.16l.24-.14c-.08-.01-.15-.03-.23-.04h-.03s.02.06.03.1c.04-.03.08-.07.12-.1.02-.01.04-.04.03-.06s-.04-.04-.06-.04c-.04,0-.08,0-.11,0s-.07.03-.1.05c-.04.03-.08.07-.12.1-.01.01-.04.04-.03.06,0,.02.03.03.06.04.08.01.15.03.23.04h.03s.06,0,.09,0c.03,0,.07-.02.1-.03.03-.02.08-.06.05-.1-.05-.05-.09-.1-.14-.16-.02-.02-.06-.02-.08-.02-.04,0-.09,0-.12.02-.03.01-.07.03-.08.06-.01.02-.02.04,0,.06Z"/>
      </g>
      <g>
        <path class="cls-34" d="M309.77,958.08h1.26c0,.96.08,1.73.14,2.18-.4-.04-.83-.08-1.29-.12-.06-.5-.12-1.21-.11-2.05Z"/>
        <path class="cls-19" d="M309.75,958.19c.42,0,.84,0,1.26,0l-.14-.1c0,.73.04,1.47.14,2.2l.21-.15c-.43-.04-.86-.08-1.29-.12l.1.07c-.08-.67-.12-1.35-.11-2.02,0-.16-.31-.12-.31.02,0,.7.03,1.39.11,2.08,0,.04.06.07.1.07.43.04.86.08,1.29.12.09,0,.22-.04.21-.15-.1-.71-.14-1.42-.14-2.14,0-.08-.08-.1-.14-.1-.42,0-.84,0-1.26,0-.07,0-.16.05-.17.13,0,.08.08.1.14.1Z"/>
      </g>
      <g>
        <path class="cls-34" d="M304.14,956.7c.03.91,0,1.86-.05,2.81h-.19c-.35-.05-.71-.09-1.07-.13.05-.89.07-1.78.05-2.64l1.26-.03Z"/>
        <path class="cls-19" d="M303.99,956.75c.03.94,0,1.87-.05,2.81l.25-.11c-.42-.02-.84-.09-1.26-.13l.05.02c.05-.88.07-1.76.05-2.64l-.22.11c.42-.01.84-.02,1.26-.03.05,0,.18-.02.21-.07.03-.05-.03-.06-.07-.05-.42.01-.84.02-1.26.03-.05,0-.22.03-.22.11.02.88,0,1.76-.05,2.64,0,.02.05.02.05.02.42.05.84.11,1.26.13.06,0,.25-.02.25-.11.06-.94.08-1.87.05-2.81,0-.06-.31,0-.31.08Z"/>
      </g>
      <g>
        <path class="cls-21" d="M268.92,952.12s.45.05,1.19.14l.27-1.05c4.69.56,20.83,2.54,30.68,4.25,3,.52,6.79,1.39,11.17,2.39,10.16,2.33,24.07,5.51,38.85,6.71,2.65.22,5.27.37,7.79.44,21.11.63,38.59-2.65,42.34-3.42l.14,1.07c.58-.12.88-.19.88-.19,0,0,.31,1.46.58,2.79h0c.03.12.05.23.07.35.1.47.19.91.25,1.23-10.47,5.4-55.37,4.95-65.45,2.16-.64-.18-1.32-.36-2.04-.54-.3-.08-.62-.16-.93-.23-.48-.12-.94-.24-1.45-.36-10.82-2.64-26.92-5.71-26.92-5.71,0,0,.04,1.49,0,3.23h0s0,.04,0,.05c-.02.74-.06,1.52-.13,2.25-18.96-.3-38.58-3.69-38.58-3.69l1.29-11.87Z"/>
        <path class="cls-19" d="M268.86,952.23c.4.05.8.09,1.19.14.08,0,.19-.03.21-.12.06-.23.09-.53.19-.74.15-.32-.09-.15.33-.13.62.03,1.24.15,1.85.23,1.67.2,3.34.41,5.01.62,4.23.54,8.46,1.1,12.68,1.69,4.27.61,8.56,1.21,12.79,2.05,4.99.99,9.93,2.21,14.89,3.32,10.49,2.34,21.07,4.33,31.79,5.29,10.87.97,21.85.77,32.71-.23,4.32-.4,8.62-.93,12.91-1.61,1.32-.21,2.64-.44,3.96-.68.45-.08.91-.15,1.35-.26.59-.15.37.24.45.91,0,.08.13.07.18.06,0,0,.77-.21.82-.17-.22-.16-.04.35-.03.36.21.77.33,1.58.49,2.36.02.09.17.07.22.04-.45.25.22,1.21-.04,1.53-.09.11-.37.17-.51.23-.51.22-1.04.41-1.57.58-1.1.36-2.23.64-3.36.88-2.98.64-6.02,1.04-9.05,1.35-7.26.75-14.57.99-21.87,1.01-6.85.01-13.72-.16-20.54-.78-2.34-.21-4.69-.46-6.99-.95-3.74-.79-7.43-1.88-11.17-2.72-7.1-1.59-14.23-3.06-21.38-4.42-.06-.01-.21.04-.21.12.03,1.08.02,2.15,0,3.23,0,.06.05.09.1.09-.27-.02-.03,1.53-.19,1.77-.39.57-1.35.29-1.96.28-1.5-.04-3-.1-4.5-.17-2.99-.15-5.98-.36-8.96-.61-4.92-.42-9.82-.97-14.71-1.62-2.6-.35-5.26-.99-7.88-1.17-.53-.04-.29-.02-.23-.6l.39-3.6c.28-2.55.55-5.1.83-7.65.02-.15-.3-.1-.31.03-.43,3.96-.86,7.91-1.29,11.87,0,.06.05.08.1.09,12.7,2.19,25.7,3.47,38.58,3.69.07,0,.2-.03.21-.12.06-.77.09-1.54.13-2.3,0-.06-.05-.09-.1-.09.22.01.08-2.71.11-3.05.02-.19-.33.08-.14.05.08-.01.28.04.35.07,1,.33,2.15.42,3.18.62,4.14.82,8.27,1.66,12.4,2.54,4.58.98,9.15,1.99,13.68,3.16,2.31.6,4.56,1.08,6.93,1.37,6.54.8,13.17,1.01,19.76,1.08,7.56.08,15.13-.09,22.67-.71,3.53-.29,7.07-.68,10.56-1.33,2.48-.46,5.05-1,7.31-2.15.05-.02.1-.07.09-.13-.11-.53-.22-1.05-.33-1.58-.02-.09-.17-.07-.22-.04.43-.24-.26-2.27-.36-2.74-.02-.07-.13-.07-.18-.06-.34.08-.57.2-.73.03-.12-.13-.09-.67-.11-.86,0-.08-.13-.07-.18-.06-5.59,1.14-11.27,1.9-16.95,2.47-10.49,1.05-21.1,1.38-31.62.61-10.75-.78-21.39-2.65-31.92-4.94-8.62-1.87-17.16-3.98-25.89-5.29-8.1-1.22-16.24-2.26-24.37-3.24-.08,0-.19.03-.21.12-.05.2-.09.79-.23.91-.09.08-.76-.1-1.02-.13-.14-.02-.32.19-.11.21Z"/>
      </g>
      <g>
        <path class="cls-21" d="M332.73,925.58c-.2.29-.54.44-.88.41-.15-.01-.29-.06-.43-.14-.44-.27-.57-.82-.28-1.24l3.17-4.7c.52.3,1.04.63,1.58.98l-3.16,4.68Z"/>
        <path class="cls-19" d="M332.61,925.54c-.39.52-1.21.41-1.42-.22-.09-.26-.02-.52.13-.74.2-.3.4-.59.6-.89l2.02-3c.17-.26.35-.51.52-.77l-.27.07c.53.32,1.06.64,1.58.98l-.03-.1c-.92,1.37-1.84,2.73-2.77,4.1l-.4.59c-.09.13.22.13.29.03.92-1.37,1.84-2.73,2.77-4.1l.4-.59s0-.08-.03-.1c-.52-.34-1.05-.67-1.58-.98-.09-.05-.21,0-.27.07-.56.83-1.11,1.65-1.67,2.48l-1.1,1.63c-.18.27-.46.58-.54.91-.11.48.19.95.64,1.11.49.18,1.05,0,1.36-.41.12-.15-.18-.18-.26-.08Z"/>
      </g>
      <g>
        <path class="cls-21" d="M337.34,928.38c-.2.29-.54.44-.88.41-.15-.01-.29-.06-.43-.14-.44-.27-.57-.82-.28-1.24l3.04-4.5c.49.36.99.72,1.5,1.1l-2.95,4.37Z"/>
        <path class="cls-19" d="M337.21,928.34c-.63.84-1.85-.06-1.3-.92.18-.29.38-.56.57-.84l1.94-2.87.51-.75-.25.04c.5.37,1,.73,1.5,1.1v-.14c-.87,1.27-1.73,2.54-2.59,3.82-.12.18-.25.37-.37.55-.11.16.18.21.26.09.86-1.27,1.72-2.54,2.58-3.82.12-.18.25-.37.37-.55.03-.05.04-.1-.01-.14-.5-.37-1-.74-1.5-1.1-.07-.05-.2-.03-.25.04-.55.81-1.09,1.61-1.64,2.42l-1.05,1.56c-.19.28-.47.59-.52.93-.07.46.23.9.66,1.06.49.18,1.05,0,1.36-.41.12-.16-.17-.21-.26-.09Z"/>
      </g>
      <g>
        <path class="cls-21" d="M344.6,927.26l-2.65,3.93c-.2.29-.54.44-.88.41-.15-.01-.29-.06-.43-.14-.44-.27-.56-.82-.28-1.24l2.76-4.08c.49.37.98.74,1.49,1.12Z"/>
        <path class="cls-19" d="M344.47,927.21c-.85,1.25-1.69,2.51-2.54,3.76-.04.06-.07.11-.11.17-.26.36-.75.47-1.12.19-.42-.31-.38-.8-.12-1.19l1.4-2.07c.42-.63.85-1.26,1.27-1.88l-.25.04c.49.37.99.75,1.49,1.12.11.08.38-.07.24-.18-.5-.37-.99-.74-1.49-1.12-.06-.05-.2-.02-.25.04-.9,1.33-1.8,2.66-2.69,3.99-.24.36-.33.78-.08,1.17.42.63,1.4.59,1.84.01s.81-1.2,1.21-1.8c.49-.72.98-1.45,1.46-2.17.11-.16-.18-.21-.26-.09Z"/>
      </g>
      <g>
        <path class="cls-21" d="M346.55,933.99c-.2.29-.54.44-.88.41-.15-.01-.29-.06-.43-.14-.44-.27-.57-.82-.28-1.24l2.49-3.68c.5.36,1,.72,1.51,1.08l-2.41,3.57Z"/>
        <path class="cls-19" d="M346.43,933.95c-.32.43-.94.46-1.28.03-.22-.28-.21-.65-.03-.94.12-.19.26-.38.39-.57l1.64-2.43.45-.67-.27.07c.5.36,1.01.72,1.51,1.08l-.03-.1c-.8,1.19-1.61,2.38-2.41,3.57-.09.14.22.14.29.03.8-1.19,1.61-2.38,2.41-3.57.02-.04,0-.08-.03-.1-.51-.36-1.01-.71-1.51-1.08-.09-.06-.21,0-.27.07-.47.7-.94,1.39-1.41,2.09l-.85,1.26c-.2.3-.43.58-.38.98.13,1,1.48,1.11,2.02.39.12-.16-.18-.2-.26-.09Z"/>
      </g>
      <g>
        <path class="cls-21" d="M351.16,936.8c-.2.29-.54.44-.88.41-.15-.01-.29-.06-.43-.14-.44-.27-.56-.82-.28-1.24l2.32-3.43c.51.34,1.03.68,1.56,1.01l-2.29,3.39Z"/>
        <path class="cls-19" d="M351.02,936.79c-.6.83-1.82-.1-1.32-.93.11-.18.23-.35.35-.52l1.55-2.3.43-.64-.27.07c.52.34,1.04.68,1.56,1.01l-.02-.08c-.76,1.13-1.52,2.26-2.29,3.39-.08.12.23.1.29,0,.76-1.13,1.52-2.26,2.29-3.39.02-.03,0-.06-.02-.08-.52-.33-1.04-.67-1.56-1.01-.07-.05-.22,0-.27.07-.45.67-.91,1.34-1.36,2.01l-.8,1.18c-.22.32-.41.64-.28,1.05.3.87,1.51.83,1.99.17.08-.11-.23-.09-.29,0Z"/>
      </g>
      <g>
        <path class="cls-34" d="M264.44,938.94h-.02s0,0,0-.01c0,0,.02,0,.02.01Z"/>
        <path class="cls-19" d="M264.37,938.88h-.02c.07.02.14.02.22.03,0,0,0-.01,0-.02l-.28.12s.02,0,.02.01c.03.01.07.02.1.01.02,0,.04,0,.06-.02.02,0,.04-.01.05-.02l.03-.02s.02-.03.03-.05v-.02s-.02-.03-.03-.03c0,0-.02,0-.02-.01-.03-.01-.05-.01-.08-.01-.03,0-.07,0-.1.02-.02.01-.04.02-.06.04-.02.01-.04.04-.03.07,0,0,0,.01,0,.02,0,.03.05.04.08.05.05,0,.09,0,.14-.02h.02s.03-.02.05-.04c.01,0,.02-.02.03-.03.01-.02.02-.05,0-.06-.02-.02-.05-.03-.08-.03-.04,0-.08,0-.12.02Z"/>
      </g>
    </g>
    <polygon class="cls-2" points="221.43 944.24 270.18 941.66 270.94 926.45 222.42 924.43 221.43 944.24"/>
    <g>
      <path class="cls-17" d="M341.07,972.04s1.63-7.46-5.26-10.24c-6.89-2.79-22.45-7.48-33.94-13.09-15.96-7.79-25.29-19.34-32.38-19.92-7.22-.59-5.91,10.43-21.67,10.64-15.63.2-27.31-7.6-28.04-7.85-3.56,1.93-10.17,24.54-6,30.25,4.17,5.71,42.26,8.64,42.26,8.64l30.47,6.01,30.52,1.38,24.04-5.81Z"/>
      <path class="cls-26" d="M242.49,969.02c.25-4.62-.36-10.76-5.14-12.95-3.32-1.53-6.99-2.38-10.4-3.7-2.71-1.05-5.52-2.31-7.49-4.53-2.71-3.06-2.86-7.12-2.18-10.97.04-.2-.51-.11-.54.07-.57,3.21-.63,6.58,1.05,9.49,1.3,2.26,3.46,3.78,5.76,4.92,3.07,1.52,6.39,2.51,9.62,3.62,1.68.58,3.56,1.02,5.01,2.09,1.15.85,2,2.04,2.57,3.34,1.19,2.7,1.36,5.78,1.2,8.69-.01.22.53.11.54-.07h0Z"/>
      <path class="cls-26" d="M218.07,933.43c4.96,3.42,10.31,6.05,16.26,7.21,3.83.75,7.7.86,11.59.73,3.11-.1,6.22-.3,9.29-.82,5.29-.9,10.51-3.55,15.96-3.09,3.85.33,7.45,2.15,10.75,4.04,3.72,2.12,7.27,4.51,10.91,6.75,2.02,1.24,4.06,2.44,6.14,3.56.78.42,1.24.78,2.09.68,2.19-.26,2.64-2.17,2.24-4.08-.05-.24-.59-.11-.54.14.25,1.17.35,2.72-.92,3.34-.57.28-1.08.28-1.63.04-1.81-.78-3.54-1.93-5.24-2.94-1.64-.98-3.27-2-4.88-3.02-3.36-2.13-6.7-4.34-10.26-6.14-2.7-1.37-5.61-2.56-8.66-2.78-4.99-.36-9.69,1.82-14.47,2.82-2.58.54-5.21.81-7.83.97-3.88.23-7.78.32-11.65-.17-6.89-.87-13.06-3.65-18.74-7.56-.19-.13-.67.14-.42.31h0Z"/>
      <path class="cls-26" d="M265.83,972.24c-1.18-.23-2.36-.47-3.54-.7l-2.12-.42c-.1-.02-.52-.03-.58-.12,0,0,1.02-.82,1.31-1.06,4.69-3.74,10.57-5.48,16.51-5.71,6.41-.26,12.84-.13,19.26-.41,4.82-.21,9.84-.4,14.52-1.7,1.4-.39,2.91-.89,4.01-1.88,1.87-1.67.95-4.25-.1-6.13-.09-.15-.6.04-.54.14.91,1.63,1.92,4.01.51,5.65-.9,1.05-2.38,1.55-3.67,1.93-3.91,1.15-8.11,1.39-12.16,1.62-5,.28-10,.34-15,.41-4.69.07-9.39-.02-13.96,1.19-4.17,1.11-8,3.15-11.2,6.06-.07.07.02.11.08.12,2.12.42,4.23.83,6.35,1.25.14.03.63-.19.34-.25h0Z"/>
      <g>
        <path class="cls-34" d="M261.67,971.45l.14.16-.26-.05s.08-.07.12-.1Z"/>
        <path class="cls-19" d="M261.52,971.5c.05.05.09.1.14.16l.27-.11c-.08-.01-.15-.03-.23-.04h-.03s0,.03.01.04c.04-.03.08-.07.12-.1.01-.01.02-.03,0-.04,0,0-.02,0-.03,0-.02,0-.03,0-.05,0-.04,0-.08.01-.12.03-.03.01-.06.02-.09.05-.04.03-.08.07-.12.1-.01,0-.02.02-.01.03,0,.01.01.02.03.02.08.01.15.03.23.04h.03s.07,0,.1,0c.03,0,.07-.02.1-.03.02,0,.05-.02.07-.04v-.02s.02-.02,0-.03c-.05-.05-.09-.1-.14-.16,0,0-.02,0-.03,0-.02,0-.03,0-.05,0-.04,0-.08.01-.12.03-.03.01-.06.02-.09.05v.02s-.02.02,0,.03Z"/>
      </g>
      <g>
        <path class="cls-34" d="M251.03,967.98h1.26c0,.96.08,1.73.14,2.18-.4-.04-.83-.08-1.29-.12-.06-.5-.12-1.21-.11-2.05Z"/>
        <path class="cls-19" d="M250.97,968.08h1.26s-.07-.05-.1-.08c0,.73.04,1.47.14,2.19l.21-.15c-.43-.04-.86-.08-1.29-.12l.1.06c-.08-.67-.12-1.35-.11-2.03,0-.15-.31-.1-.31.03,0,.69.03,1.39.11,2.08,0,.04.06.06.1.06.43.04.86.08,1.29.12.08,0,.22-.04.21-.15-.1-.71-.14-1.42-.14-2.14,0-.05-.05-.09-.1-.09h-1.26c-.07,0-.17.01-.2.08-.03.06.03.12.09.12Z"/>
      </g>
      <g>
        <path class="cls-34" d="M245.41,966.6c.03.91,0,1.86-.05,2.81h-.19c-.35-.05-.71-.09-1.07-.13.05-.89.07-1.78.05-2.64l1.26-.03Z"/>
        <path class="cls-19" d="M245.25,966.64c.03.93,0,1.86-.05,2.79l.21-.11c-.41-.02-.82-.08-1.22-.13l.06.07c.05-.89.07-1.77.05-2.66l-.21.13c.42-.01.84-.02,1.26-.03.06,0,.17-.02.2-.09.03-.06-.02-.1-.08-.09-.42.01-.84.02-1.26.03-.08,0-.22.03-.21.13.02.87,0,1.75-.05,2.62,0,.04.02.06.06.07.43.05.86.12,1.29.14.05,0,.21-.03.21-.11.06-.94.08-1.89.05-2.83,0-.1-.31-.04-.31.08Z"/>
      </g>
      <g>
        <path class="cls-21" d="M212.25,969.14s-.12-6.98.62-6.89l.26-1.05c4.63.56,20.6,2.52,30.34,4.23,2.97.52,6.71,1.38,11.04,2.38,10.04,2.32,23.8,5.49,38.41,6.69,2.62.22,5.21.36,7.7.44,20.87.62,38.16-2.68,41.87-3.45l.13,1.07c.57-.12.87-.19.87-.19,0,0,.3,1.46.58,2.78h0c.02.12.05.23.07.35.1.47.19.91.25,1.23-10.36,5.41-54.75,4.99-64.73,2.21-.63-.18-1.31-.36-2.02-.54-.29-.08-.61-.15-.92-.23-.47-.12-.93-.24-1.43-.36-10.7-2.63-26.61-5.7-26.61-5.7,0,0,.04,1.49,0,3.23h0s0,.04,0,.05c-.02.74-.06,1.52-.13,2.25-18.75-.28-36.35-3.37-36.35-3.37l.05-5.13Z"/>
        <path class="cls-19" d="M212.4,969.1c-.01-.81-.21-6.71.44-6.78.05,0,.16-.04.18-.09.06-.24.1-.51.19-.74.13-.34-.14-.17.29-.16.58.02,1.17.14,1.74.21,1.66.2,3.32.41,4.98.62,4.22.54,8.45,1.1,12.66,1.7,4.2.6,8.42,1.2,12.58,2.03,4.78.96,9.51,2.13,14.27,3.2,10.44,2.35,20.97,4.38,31.63,5.35,10.7.97,21.49.79,32.19-.19,4.34-.4,8.66-.93,12.96-1.62,1.37-.22,2.73-.45,4.09-.71.45-.08.97-.27,1.42-.28.26,0,.24-.1.33.01.11.14.09.76.12.93,0,.06.15.03.17.02-.02,0,.77-.21.82-.17-.19-.15,0,.46-.03.39.21.77.33,1.58.49,2.36.02.08.21.01.25,0-.54.3.24,1.22-.04,1.6-.11.14-.49.23-.66.3-.48.2-.97.38-1.46.54-1.13.37-2.29.66-3.45.9-2.92.63-5.89,1.01-8.85,1.32-7.25.76-14.56,1-21.85,1.01-6.69.01-13.41-.16-20.07-.78-2.26-.21-4.54-.45-6.76-.92-3.69-.78-7.32-1.87-11-2.7-7.05-1.6-14.13-3.06-21.23-4.43-.07-.01-.25.02-.25.11.03,1.08.02,2.15,0,3.23,0,.02.05.03.06.03-.13,0-.09.87-.1.91-.02.37.07.79-.21,1.06-.25.25-.32.12-.64.16-1.15.15-2.48-.06-3.64-.11-2.42-.09-4.84-.23-7.25-.4-4.03-.28-8.05-.66-12.05-1.12-2.89-.33-5.79-.71-8.67-1.14-.86-.13-1.71-.26-2.57-.4-.19-.03-.99-.03-1.13-.19-.13-.14.04-1.8.04-2.17l.03-2.94c0-.07-.31-.02-.31.08l-.05,5.13s.05.03.06.03c11.98,2.09,24.24,3.17,36.39,3.37.04,0,.21-.03.22-.1.06-.77.09-1.53.13-2.3,0-.03-.02-.05-.06-.05.11,0,.07-2.8.06-3.2l-.25.11c6.18,1.19,12.35,2.46,18.49,3.82,6.36,1.4,12.61,3.41,19.1,4.1,6.45.68,12.96.88,19.44.92,7.42.04,14.85-.16,22.24-.84,3.37-.31,6.75-.71,10.07-1.38,2.23-.45,4.52-.99,6.56-2.03.02-.01.07-.04.06-.07-.11-.53-.21-1.05-.32-1.58-.02-.08-.21-.01-.25,0,.48-.27-.23-2.29-.33-2.79-.01-.06-.14-.03-.17-.02-.35.08-.56.19-.73,0-.12-.14-.08-.67-.11-.86,0-.04-.1-.04-.13-.03-5.5,1.14-11.08,1.9-16.66,2.48-10.49,1.08-21.1,1.41-31.62.63-10.53-.78-20.95-2.63-31.25-4.89-8.57-1.87-17.05-3.98-25.73-5.3-7.99-1.21-16.01-2.24-24.03-3.21-.06,0-.23.02-.25.1-.04.18-.21,1.09-.14.96-.03.06-.21.06-.26.15-.3.63-.33,1.36-.39,2.05-.12,1.59-.13,3.2-.1,4.8,0,.07.31.02.31-.08Z"/>
      </g>
      <g>
        <path class="cls-21" d="M274,935.48c-.2.29-.54.44-.88.41-.15-.01-.29-.06-.43-.14-.44-.27-.57-.82-.28-1.24l3.17-4.7c.52.3,1.04.63,1.58.98l-3.16,4.68Z"/>
        <path class="cls-19" d="M273.86,935.47c-.41.56-1.27.33-1.42-.33-.06-.25.02-.48.15-.69.2-.3.4-.6.61-.9l2.01-2.97c.17-.26.35-.51.52-.77l-.27.07c.49.29,1.03.56,1.48.92.13.1.07-.07.05.03,0,.03-.06.08-.07.11l-.68,1.01-1.91,2.83c-.16.23-.31.46-.47.69-.08.11.23.09.29,0,.92-1.37,1.84-2.73,2.77-4.1.13-.2.26-.39.4-.59.02-.03,0-.06-.02-.08-.52-.34-1.05-.67-1.58-.98-.07-.04-.22,0-.27.07-.56.83-1.13,1.67-1.69,2.5l-1.1,1.63c-.19.28-.49.62-.54.96-.07.49.27.92.74,1.04s1-.07,1.29-.46c.08-.11-.23-.08-.29,0Z"/>
      </g>
      <g>
        <path class="cls-21" d="M278.61,938.28c-.2.29-.54.44-.88.41-.15-.01-.29-.06-.43-.14-.44-.27-.57-.82-.28-1.24l3.04-4.5c.49.36.99.72,1.5,1.1l-2.95,4.37Z"/>
        <path class="cls-19" d="M278.46,938.28c-.41.55-1.24.34-1.41-.3-.07-.26,0-.5.14-.72.18-.28.38-.56.57-.84l1.94-2.87.51-.75-.29.06c.44.32.86.68,1.32.97.17.11.21.04.1.2l-.62.92-1.79,2.65c-.15.22-.3.45-.45.67-.07.1.23.07.28,0,.86-1.27,1.72-2.54,2.58-3.82l.37-.55s.02-.04,0-.05c-.5-.37-1-.74-1.5-1.1-.07-.05-.24-.01-.29.06-.55.81-1.09,1.61-1.64,2.42l-1.05,1.56c-.19.29-.48.61-.51.97-.09,1.14,1.47,1.27,2.03.52.07-.1-.23-.07-.28,0Z"/>
      </g>
      <g>
        <path class="cls-21" d="M285.87,937.15l-2.65,3.93c-.2.29-.54.44-.88.41-.15-.01-.29-.06-.43-.14-.44-.27-.56-.82-.28-1.24l2.76-4.08c.49.37.98.74,1.49,1.12Z"/>
        <path class="cls-19" d="M285.72,937.14c-.85,1.25-1.69,2.51-2.54,3.76-.04.06-.07.11-.11.17-.29.39-.85.43-1.2.09s-.26-.79-.02-1.15l1.4-2.07c.42-.63.85-1.26,1.27-1.88l-.27.07c.49.37.99.75,1.49,1.12.1.07.38-.07.24-.17-.5-.37-.99-.74-1.49-1.12-.08-.06-.22,0-.27.07-.9,1.33-1.8,2.66-2.69,3.99-.25.37-.31.82-.02,1.19.46.58,1.39.49,1.82-.07s.81-1.2,1.21-1.8c.49-.72.98-1.45,1.46-2.17.09-.13-.22-.12-.29-.02Z"/>
      </g>
      <g>
        <path class="cls-21" d="M287.82,943.89c-.2.29-.54.44-.88.41-.15-.01-.29-.06-.43-.14-.44-.27-.57-.82-.28-1.24l2.49-3.68c.5.36,1,.72,1.51,1.08l-2.41,3.57Z"/>
        <path class="cls-19" d="M287.67,943.88c-.33.45-1,.41-1.31-.06-.18-.28-.16-.62,0-.9.13-.21.27-.4.41-.6l1.63-2.42c.15-.22.3-.44.44-.66l-.27.07c.5.36,1.01.72,1.51,1.08l-.02-.08c-.8,1.19-1.61,2.38-2.41,3.57-.08.12.23.1.29.01.8-1.19,1.61-2.38,2.41-3.57.02-.03,0-.06-.02-.08-.51-.36-1.01-.71-1.51-1.08-.07-.05-.22,0-.27.07-.47.7-.94,1.39-1.41,2.09l-.86,1.27c-.2.3-.43.59-.37.98.15,1,1.52,1.02,2.03.32.09-.12-.23-.1-.29-.01Z"/>
      </g>
      <g>
        <path class="cls-21" d="M292.43,946.7c-.2.29-.54.44-.88.41-.15-.01-.29-.06-.43-.14-.44-.27-.56-.82-.28-1.24l2.32-3.43c.51.34,1.03.68,1.56,1.01l-2.29,3.39Z"/>
        <path class="cls-19" d="M292.28,946.7c-.6.82-1.81-.09-1.33-.92.11-.19.24-.36.36-.54l1.55-2.3.43-.64-.29.06c.37.25.75.49,1.12.73.09.06.18.13.28.18,0,0,.17.08.16.05,0,.01-.03.04-.03.05-.04.09-.12.18-.18.26l-.27.41-1.43,2.13-.37.54c-.07.11.23.08.29,0,.76-1.13,1.52-2.26,2.29-3.39,0-.01.02-.04,0-.06-.52-.33-1.04-.67-1.56-1.01-.07-.05-.24-.02-.29.06-.45.67-.91,1.34-1.36,2.01l-.8,1.18c-.21.32-.42.64-.28,1.04.29.86,1.51.82,1.99.16.08-.1-.23-.07-.29,0Z"/>
      </g>
    </g>
    <path class="cls-35" d="M408.17,163.8c-5.12-3.28-9.21-3.16-14.68-5.87-.47-.23-1.01-.48-1.49-.37-.4.09-.67.39-.91.69-5.65,6.94-11.59,13.62-15.55,21.55-1.69,3.38-3.23,6.88-3.69,10.66-.42,3.41-1.91,7-1.45,10.51.41,3.07.82,6.15,1.22,9.22.15,1.15.32,2.34,1.01,3.38,2.01,3.04,6.92,2.89,10.16,1.54,6.95-2.89,11.48-8.88,14.22-15.33,2.74-6.45,3.94-13.46,5.87-20.21,1.33-4.66,3.02-9.2,5.05-13.58"/>
    <path class="cls-24" d="M378.37,224.36s-6.1,20.6-19.56,31.59c-2.16,1.76-24.64,4.88-24.64,4.88l7.72,68.24c10.76,8.92,35.67,8.07,49.55,9.69l37.26-18.93s-14.25-20.52-13.42-23.69c.83-3.18,12.72-23.69,12.72-23.69"/>
    <path class="cls-24" d="M488.12,199.27s0-.04,0-.07c-1.01.38-6.03-8.09-6.83-9.05-8.41-10.11-11.71-16.92-24.32-20.62-6.59-1.93-15.14,1.56-21.91.42-6.49-1.09-10.65-7.75-16.8-10.2-2.13-.85-5.6,5.72-4.28,4.55-2.46-1.64-4.3-3.29-4.3-3.29-9.03,2.04-13.46,33-15.05,36.77-1.59,3.77-5.12,9.26-5.12,9.26-.38-1.87-1.03-3.41-.9-5.26.04-1.66-.31-3.76-.28-5.42-.36-4.02-5.48-5.94-8.73-5.13l-1.96,1.16c-5.34,2.8-6.76,18.22-6.36,23.41-3.32,8.56,1.75,16.39,8.68,12.42l-.43,3.76,3.99,21.73c4.14,12.45,16.36,29.06,29.6,34.8,4.74,2.06,11.01,5.35,17.07,1.14,6.13-4.26,8.79-6.8,15.02-10.49,5.98-3.54,9.06-6.04,13.51-11.36,4.6-5.5,5.38-7.17,7.72-13.75,1.04-2.94,2.87-7.28,4.37-9.87,1.73-2.99,8.99-14.55,12.71-21.6,3.72-7.05,4.6-23.31,4.6-23.31Z"/>
    <path class="cls-12" d="M383.96,211.57c-.14-13.09-3.49-14.56-3.49-14.56,0,0-3.34,1.63-4.36,7.25"/>
    <path class="cls-12" d="M381.8,211.86c-2.9-1.56-2.91,5.03-4.29,6-1.38.97-1.03-3,.35-7.39,0,0,2.37-5.72,5.67-5.58"/>
    <path class="cls-30" d="M472.38,211.73s-9.69-2.71-17.31-5.53c-7.61-2.81-13.79-8.6-13.79-8.6,0,0,8,5.55,14.01,7.8,6.01,2.25,17.09,6.33,17.09,6.33Z"/>
    <path class="cls-23" d="M415.39,254.55s6.44,5.2,12.02,8.06c5.58,2.86,14.95,5.5,14.95,5.5,0,0,.48-2.43-9.64-7.61-10.11-5.19-17.34-5.94-17.34-5.94Z"/>
    <path class="cls-35" d="M444.15,208.33c-7.37-5.62-13.09-8.42-15.56-9.2-1.94-.61-3.97-.89-6.02-.91,0,0-6.33,1.45-7.3,2.02-.97.57,3,.94,3,.94.81.17,1.4.2,2.18.46,4.3,1.44,8.64,2.35,12.49,4.78,3.3,2.06,7.18,6.05,9.99,8.76.78-1.33,1.84-4.32,2.74-5.56"/>
    <path class="cls-35" d="M481.02,227.86c0-.14.28-1,.26-1.14,0,0-.04-.15-.04-.16-.71-.7-1.45-1.81-2.6-2.6-2.01-1.37-7.04-4.99-15.31-7.39-.64,1.36-2.09,3.83-2.73,5.18,3.57.58,5.93,1.31,9.33,2.58,3.19,1.2,7.61,3.11,10.55,4.95.22-.25-.03-.02.16-.28.11-.19.2-.39.28-.59.04-.18.08-.37.1-.55Z"/>
    <path class="cls-10" d="M431.43,260.73c-5.98-2.63-17.01-6.91-17.01-6.91,0,0-2.86,14.32,11,20.42,13.86,6.09,20.75-7.48,20.75-7.48,0,0-8.77-3.39-14.75-6.02Z"/>
    <path class="cls-6" d="M431.49,260.75c-2.84-1.25-14.88-6.62-14.88-6.62,0,0,.72,10.13,11,14.65,11.15,4.9,16.89-2.59,16.89-2.59l-13.02-5.43Z"/>
    <path class="cls-16" d="M431.43,261.24c-2.84-1.25-11.28-5.54-11.28-5.54,0,0,1.73,4.51,10.26,8.26,8.53,3.75,12.58,1.89,12.58,1.89l-11.55-4.61Z"/>
    <path class="cls-10" d="M446.71,266.58c-.27-.21-1.06-.3-2.3-1.11-2.24-1.46-2.97-2.81-4.61-3.69-2.81-1.51-5.17-1.16-6.43-1.72-1.27-.56-2.6-2.53-5.61-3.58-1.76-.62-5.91-.98-8.35-1.81-1.47-.5-4.9-1.52-5.24-1.58-.47-.08.66,2.26,16.56,9.25,15.9,6.99,16.36,4.51,15.98,4.23Z"/>
    <path class="cls-24" d="M432.52,282.44c-.13-.08-.25-.18-.33-.3-1.6-2.33-1.44-3.22-2.4-3.91-.22-.16-.31-.3-1.04-.72-2.91-1.68-4.65-2.75-15.03-.83-.21.04-10.47-5.7-10.68-5.8l-4.52-4.9c-.7-.96-14.5-27.09-14.5-27.09-.08-.72-2.17-6.45-2.09-7.08-.05-.06-.1-.12-.16-.18-.02-.02-.07-.06-.11-.11-.02.03-.06.08-.08.1-.13.23-.23.48-.32.73-.38,1.08-.58,2.21-.68,3.35-.14,1.75-.5,3.46-.71,5.19-.07.61-.12,1.23-.14,1.85,1.78,2.45,3.9,25.85,16.15,35.55.5.38,2.07,1.59,6.63,3.89,8.56,4.32,14.84,10.02,24.58,10.99,2.54.25,5.03-.64,6.8-2.39,5.05-5,22.6-25.33,27.65-33.79-4.52,4.26-18.13,17.23-24.72,23.46-.2.19-3.74,2.15-4.05,2.12"/>
    <path class="cls-41" d="M431.55,260.92c-6.95-2.79-17.86-8.17-17.86-8.17,0,0-4.58,17.15,11.52,23.63,16.1,6.47,21.53-9.38,21.53-9.38,0,0-8.25-3.29-15.19-6.08Z"/>
    <path class="cls-6" d="M431.61,260.95c-3.3-1.33-14.46-6.41-14.46-6.41,0,0-1.49,10.49,10.46,15.29,12.95,5.21,17.82-3.31,17.82-3.31l-13.82-5.57Z"/>
    <path class="cls-16" d="M431.55,261.53c-3.3-1.33-13.12-5.95-13.12-5.95,0,0,2.1,5.23,12,9.22,9.91,3.98,14.52,1.58,14.52,1.58l-13.41-4.84Z"/>
    <path class="cls-41" d="M449.05,266.71c-.32-.23-.31-.43-1.89-1.24-2.63-1.34-4.04-2.78-5.96-3.74-3.27-1.63-5.98-1.1-7.45-1.69-1.47-.59-3.06-2.85-6.55-3.94-2.04-.64-7.25-1.86-10.08-2.71-1.7-.51-3.35-1.95-3.74-2-.54-.07-1.1,4.05,17.38,11.48,18.48,7.43,18.72,4.15,18.28,3.83Z"/>
    <path class="cls-35" d="M434.35,254.19l-1.6,2.87c-.25.44-.74.67-1.23.58-3.39-.63-19.19-6.64-19.78-3.62-.08.42-1.24,2.77-1.31,2.74l-.43-1.14c-.28-2.27,1.43-5.05,2.61-5.11,3.59-.19,6.72-.12,8.61.06,2.37.21,9.85,1.02,12.5,1.93.7.24,1,1.06.64,1.7Z"/>
    <path class="cls-35" d="M438.02,255.64l-1.02,3.12c-.15.48-.05.98.26,1.25,2.12,1.86,12.28,7.28,10.66,9.82-.23.35-.6,2.07-.54,2.09l.79-.14c.89.28,2.31-3.8,1.75-4.65-1.7-2.57-3.34-4.65-4.41-5.82-1.34-1.46-4.15-5.3-6.08-6.45-.51-.3-1.18.07-1.41.77Z"/>
    <path class="cls-24" d="M394.51,159.14s11.5-13.81,32.46-11.56c15.81,1.7,43.06,14.15,51.6,23.65,12.38,13.77,9.25,31.23,9.25,31.23l-93.3-43.32Z"/>
    <path class="cls-33" d="M417.6,290.48s-21.86-9.64-25.79-15.27c-3.93-5.63-7.43-14.04-8.86-25.06,0,0-1.11,23.04,10.12,30.09,14.81,9.29,23.15,11.94,23.15,11.94l1.38-1.7Z"/>
    <path class="cls-14" d="M391.08,418.3c5.18,2,10.39,3.87,15.65,5.64.6-.23-1.63,15.3-.74,15.7,8.42,3.84,22.48,6.42,31.31,8.21,12.18-25.64,18.19-74.65,19.85-88.93,2.76-23.64-33.38-59.82-36.28-62.42,0,0-27.67,79.35-28.86,113.66-.08,2.34-.41,5.08-.93,8.13Z"/>
    <path class="cls-27" d="M189.11,483.23l-10.29,34.16c-4.61,22.77-5.4,46.16-2.21,69.18,2.91,21.02,7.5,42.96,12.75,56.98l20.03,103.93s.37,53.24-4.98,90.7c-4.65,32.48,8.82,90.55,8.82,90.55l17.06,5.64c12.82,1.78,25.92,2.02,38.86.7l24.9-6.51,24.25-192.11,18.01-125.65,25.62-70.89-172.81-56.68Z"/>
    <path class="cls-27" d="M376.57,533.08l-11.3,197.93c-1.17,22.81-6.74,37.65-11.54,81.39l-9.22,74.54-3.26,32.4-8.05,1.19c-11.06,1.89-17.6,2.52-28.88,1.99l-24.69-.53,23.57-381.71,73.39-7.2Z"/>
    <path class="cls-14" d="M406.2,481.06h0c.01-.33.33-.57.18-.63l38.82-97.58,11.72-28.45s-1.56-4.37-3.11-8.97c-2.46-7.27-6.26-15.34-10.83-21.51l-19.64-22.01s-1.94-.43-11.42,8.09c-4.06,3.65-6.94,20.3-13.57,18.11,0,0,1.77-14.66-10.18-31.73,0,0-32.3-33.86-31.35-40.39-15.35-1.63-40.73,1.29-53.89,5.69-15.46,5.12-18.96,43.08-10.79,65.74l-21.52-6.53s-29.23,59.87-46.51,91.33c-.66,1.11-1.33,2.32-2,3.6-2.09,3.74-3.97,6.96-5.52,9.45.29.12-9.43,15.72-9.14,15.85-5.98,7.6-28.34,36.64-27.45,48.08,2.61,33.45,84.47,60.45,122.5,73.53,37.35,12.85,71.2,27.87,82.53-24.19l.18.05c7.78-21.41,9.62-28.74,21-57.54Z"/>
    <path class="cls-32" d="M450.6,373.8c-11.13,16.36-15.7,35.86-22.46,54.19-2.03,5.5-4.27,10.91-6.94,16.13-.11.21,0,.35.23.39,2.77.58,5.53,1.16,8.3,1.73l4.4.92c.85.18,1.59.59,2.6,1.03.4.17,1.12-.02,1.3-.44,1.15-2.65,2.29-5.29,3.44-7.94.07-.17-.16-.26-.28-.29-4.36-.94-8.73-1.88-13.09-2.82-.45-.1-1.7.59-.89.77,4.36.94,8.73,1.88,13.09,2.82l-.28-.29c-1.15,2.65-2.29,5.29-3.44,7.94l1.3-.44c-.89-.39-1.77-.87-2.72-1.08-1.43-.31-2.87-.6-4.31-.9-2.84-.59-5.69-1.19-8.53-1.78l.23.39c9.09-17.75,13.06-37.52,21.26-55.63,2.31-5.11,4.98-10.05,8.14-14.69.36-.53-1.08-.4-1.35-.02h0Z"/>
    <path class="cls-18" d="M340.11,594.14c-9.64,6-15.5,16.11-17.81,27.05-1.39,6.56-1.64,13.29-1.66,19.97,0,1.89.06,3.78-.03,5.66-.38,7.92-.76,15.84-1.14,23.76-.66,13.9-1.33,27.8-1.99,41.7-.63,13.15-1.26,26.3-1.88,39.45-.27,5.66-.32,11.38-.81,17.02-.44,5.07-1.27,10.14-1.91,15.19-1.49,11.82-2.97,23.64-4.46,35.46-1.81,14.38-3.61,28.76-5.42,43.13-1.6,12.74-3.2,25.48-4.8,38.22-.87,6.9-1.74,13.81-2.6,20.71-.04.32-.08.65-.12.97-.06.45,1.2.22,1.25-.17.6-4.8,1.21-9.6,1.81-14.4,1.46-11.63,2.92-23.26,4.38-34.88l5.39-42.92c1.61-12.84,3.23-25.67,4.84-38.51l2.72-21.64c.44-3.53.45-7.13.61-10.68.56-11.73,1.12-23.46,1.68-35.19.68-14.31,1.37-28.63,2.05-42.94.49-10.24.98-20.48,1.47-30.72.08-1.74.22-3.49.22-5.24-.03-13.1.17-26.8,7.09-38.4,2.96-4.96,6.97-9.21,11.88-12.27.72-.45-.39-.55-.77-.32h0Z"/>
    <path class="cls-14" d="M399.64,330.67c-.36-1.06-16.14-29.91-16.14-29.91l-17.61,6.31-5.32-6.35c-14.11-16.62-21.17-47.44-21.17-47.44l24.5-6.74c-1.69,23.56,25.45,49.67,25.45,49.67l10.9,30.31,14.57-29.2c1.59-4.12,2.78-6.83,2.78-6.83l5.58,2.02,9.29,12.98c-5.99,18.07-8.78,16.92-8.78,16.92l-10.1-10.67c-4.27,5.81-5.89,13.65-9.84,19.66-7.22,10.97-12.23,24.2-16.65,36.69"/>
    <path class="cls-32" d="M431.33,306.72c-1.35,4.04-2.76,8.18-4.87,11.91-.48.85-1,1.71-1.67,2.42-.18.19-.37.35-.56.52s-.35.18-.01.08c.14-.04.08.06-.05-.07-.11-.11-.22-.22-.33-.33-1.73-1.73-3.37-3.56-5.05-5.33s-3.2-3.38-4.8-5.06c-.27-.29-1.21.13-1.4.37-4.59,6.23-9.88,12.13-13.42,19.06-3.9,7.62-5.36,16.11-7,24.43-.93,4.72-1.97,9.42-3.56,13.97l1.4-.37c-1.91-.84-3.82-1.67-5.73-2.51-.39-.17-1.53.43-1.36.5,1.91.84,3.82,1.67,5.73,2.51.31.14,1.27,0,1.4-.37,2.8-8.03,3.81-16.49,5.77-24.73.99-4.14,2.24-8.23,4.02-12.1,1.65-3.58,3.85-6.86,6.16-10.04,2.6-3.58,5.39-7.02,8.02-10.58l-1.4.37c1.54,1.63,3.08,3.26,4.63,4.88l3.39,3.58c.64.68,1.26,1.52,1.99,2.1,1.57,1.26,3.61-1.03,4.4-2.18,2.7-3.93,4.22-8.8,5.72-13.28.1-.29-1.3-.13-1.43.25h0Z"/>
    <path class="cls-32" d="M400.09,329.85c-.43-1.19-1.18-2.32-1.77-3.43-1.26-2.37-2.54-4.73-3.81-7.09-2.84-5.25-5.7-10.5-8.56-15.74-.66-1.22-1.33-2.44-1.99-3.65-.2-.37-.7-.26-1.02-.14-5.87,2.1-11.74,4.2-17.61,6.31l.97.04c-1.75-2.09-3.5-4.17-5.25-6.26-3.36-4.01-6.22-8.4-8.7-13-4.41-8.19-7.8-16.95-10.46-25.86-.55-1.84-1.08-3.69-1.53-5.56-.13-.55-1.58-.17-1.45.39,1.26,5.33,3.02,10.57,4.93,15.69,3.71,9.91,8.38,19.79,15.12,28.03,1.97,2.41,3.99,4.77,5.99,7.15.22.26.71.13.97.04,5.87-2.1,11.74-4.2,17.61-6.31l-1.02-.14c4.68,8.56,9.36,17.11,13.95,25.71.73,1.36,1.65,2.75,2.18,4.2.2.55,1.64.13,1.45-.39h0Z"/>
    <path class="cls-3" d="M468.39,233.25c1.37-.1,2.62.98,3.07,1.95.11.23.24.83.14,1.66-.12,1.06-.96,1.97-1.82,2.37-1.16.53-2.54.12-3.35-.78-1.1-1.22-.84-3.06,0-4.12.16-.19.84-.99,1.95-1.08"/>
    <path class="cls-3" d="M454.71,231.61s7.3-1.98,10.21-1.07c4.25,1.33,8.31,5.73,8.9,8.36,0,0-5.21-6.21-8.23-7.06-2.89-.81-10.87-.24-10.87-.24Z"/>
    <path class="cls-3" d="M433.67,218.8c-.87-1.06-2.75-1.67-3.76-1.33-.24.08-.89.32-1.42.96-.68.83-.76,2.05-.44,2.96.42,1.2,1.68,1.91,2.89,1.87,1.64-.06,2.79-1.52,2.96-2.86.03-.25.43-.58-.27-1.43"/>
    <path class="cls-3" d="M437.94,224.09s-4.5-6.55-7.5-7.93c-4.38-2.01-10.77-1.67-13.1-.16,0,0,8.6-.86,11.64.65s8.96,7.45,8.96,7.45Z"/>
    <g>
      <path class="cls-21" d="M440.8,252.07c-1.82.16-4.03-.96-5.16-2.51-.25-.34-1.45-.6-1.1-.12,1.49,2.05,4.72,3.51,7.07,3.3.23-.02.26-.18.05-.36-.22-.19-.62-.33-.87-.31"/>
      <path class="cls-21" d="M434.07,248.75c-.81-.89-1.84-1.6-2.93-2.15-.16-.08-.4-.11-.56-.05-.13.05-.2.15-.1.27.4.51,1.01.91,1.62,1.15.19.08.47.13.64.01.16-.11.02-.28-.13-.34-.51-.2-.98-.51-1.31-.93-.22.07-.44.15-.67.22.98.49,1.89,1.14,2.61,1.93.14.16.42.21.62.18.15-.02.35-.13.2-.29"/>
      <path class="cls-21" d="M429.54,247.05c-1.31-.58-2.62-1.78-2.86-3.04-.37-1.89,1.52-3.88,3.55-4.15.22-.03.18-.2.02-.32-.22-.15-.53-.18-.76-.14-1.78.24-3.5,1.8-3.86,3.28-.33,1.39.55,2.82,1.97,3.85.42.31.89.59,1.38.8.2.09.58.17.74.06.16-.12,0-.26-.18-.34"/>
      <path class="cls-21" d="M443.49,252.4c0-.18.16-.22.27-.18.35.16.76.21,1.16.09.06.19.12.38.17.57-.74-.22-1.56-.28-2.37-.12-.16.03-.32-.1-.4-.24-.06-.11-.08-.31.08-.34"/>
      <path class="cls-21" d="M442.41,252.18c.91-.18,1.81-.1,2.64.14.12.04.25.16.29.3.03.11,0,.23-.12.26"/>
      <path class="cls-21" d="M446.16,253.7c.87.32,2.11.16,2.94-.65,1.25-1.23,1.38-3.24.71-4.64-.07-.15.04-.26.18-.25.17.01.32.18.4.33.59,1.21.64,2.81-.07,4.15-.67,1.25-1.86,1.83-3.05,1.78-.35-.01-.71-.07-1.03-.19-.13-.05-.34-.2-.34-.39,0-.18.15-.2.27-.16"/>
    </g>
    <path class="cls-20" d="M414.68,209.66l-.37,4.44c-.54,3.34-.82,10.29-.48,12.37.48,2.91,16.14,10.64,20.08,10.15,3.94-.49,9.63-8.91,11.38-10.67l6.26,3.1c-.61,2.99-2.33,12.56-1.62,14.25.71,1.7,8.16,4.63,9,4.97.7.27,1.68.64,2.77,1,2.87.99,6.44,1.96,7.92,1.38,2.2-.87,6.38-5.97,10.2-10.87l.61-.76c.14-.19.27-.3.3-.36h0l.69-.88c-7.35-8.36-19.79-12.82-29.47-10.56l.02.12-6.1-3.06c-5.05-7.72-16.18-15.51-26.38-15.86h0l-29.08-7.09-1.11,2.37,25.38,5.95ZM451.06,242.74c-.45-1.06.57-7.84,1.53-13.05,8.36-1.83,19.56,2.21,26.33,9.2l-.06.12c-2.05,2.62-7.49,9.6-9.65,10.45-2.55,1-17.32-5.01-18.17-6.71v-.03ZM416.01,226.63c-.28-5.37-.07-10.75.62-16.08,9.29-.21,21.99,7.57,26.99,14.98-2.75,3.36-7.02,9.47-9.84,9.81-4.06.51-17.48-6.87-17.77-8.71h0Z"/>
    <path class="cls-24" d="M292.35,283.1c-14.36,1.46-38.51,34.27-36.47,54.26-11.29,48.09-16,118.19,2.21,135.84,34.59,33.53,169.69,13.2,169.69,13.2l3.25-25.77-128.46-26.99s16.66-112.36,12.37-119.67"/>
    <path class="cls-24" d="M424.72,484.84l33.87,11,21.26-2.12c6.62.67,13.26.96,19.91.87,2.91-.64,2.64-2.32,2.32-3.59-.32-1.27-15.06-4.81-15.06-4.81,0,0,20.48,2.33,23.84.51s2.34-4.75,1.27-6.4c-1.07-1.65-34.1-3.03-34.1-3.03l13.98-1.96s18.2,3.92,22.68,2.23c4.48-1.68,2.8-7.09,2.8-7.09l-22.41-3.67-15.73-1.88,16.3-.56s13.41,2.65,17.07.2c3.66-2.45,2.7-6.47,2.7-6.47l-23.14-4.94-25.66-.39c3.03-1.53,7.35-1.91,9.46-5.81,1.78-3.74-.72-3.44-.72-3.44l-22.89,1.01-23,15.77-4.75,24.54Z"/>
    <path class="cls-24" d="M526.88,491.99l-15.98-3.18,6.8,5.45c3.54,1.17,6.92,2.79,10.06,4.8,1.58,1.79-.54,4.58-.54,4.58l-27.2-9.81-14.06-2.99c-5.42-1.15-9.82-5.1-11.55-10.36l-6.93-21.08,11.97-9.01,11.55-10.6,7.2-4.74,12.46-3.47s3.07,3.12-1.66,6.55c-4.73,3.43-7.68,5.23-7.68,5.23l-5.74,7.04,2.36,3.4,26.25,6.66,9.08-.8s8.59-4.75,14.43-1.46c.22.13.39.32.51.55.33.66.07,1.47-.59,1.8l-15.79,7.81-9.76.11,10.41,2.72s13.84-2.86,18.84-.92c4.99,1.95,1.71,4.12,1.71,4.12l-17.38,6.4-15.8-.8,10.49,3.09,14.1.92s4.38.48,4.03,3.59c-.1,1.15-.95,2.09-2.08,2.33l-19.52,2.06Z"/>
    <path class="cls-36" d="M558.01,468.85s18.06-1.36,32.89-5.61c0,0-13.6.6-32.89,5.61Z"/>
    <path class="cls-36" d="M557.01,479.73s21.7,11.21,39.75,15.21c0,0-17.26-7.75-39.75-15.21Z"/>
    <path class="cls-36" d="M549.77,490.12s12.94,15.43,25.44,24.26c0,0-10.68-11.39-25.44-24.26Z"/>
    <path class="cls-36" d="M542.99,451.85s7.48-19.41,9.84-31.48c0,0-6.1,13.61-9.84,31.48Z"/>
    <path class="cls-36" d="M532.09,450.98s-2.24-23.39-5.95-36.74c0,0,.7,16.85,5.95,36.74Z"/>
    <path class="cls-36" d="M552.65,458.39s20.5-13.85,32.41-27.59c0,0-14.72,10.35-32.41,27.59Z"/>
    <path class="cls-39" d="M402.96,489.3c5.64-.68,11.31-.97,16.96-1.54,1.78-.18,3.57-.38,5.34-.6.51-.06,1.11-.06,1.6-.2.4-.12.14-.08.05-.09.08.01.15.05.22.07,1.03.25,2.06.67,3.07,1,7.96,2.59,15.92,5.18,23.88,7.77.82.27,1.65.63,2.49.81.66.15,1.41-.03,2.08-.1,4.19-.42,8.38-.84,12.58-1.25l5.53-.55c1.86-.18,3.58.06,5.46.21,4.52.35,9.06.52,13.6.53,2.25,0,6.7-.12,6.47-3.42-.1-1.4-.95-1.6-2.15-2.01-1.88-.64-3.82-1.12-5.75-1.59-3.94-.97-7.9-1.83-11.87-2.66-.26-.05-.52-.11-.78-.16l-1.58.94c4.08.29,8.16.49,12.25.61,2.99.09,5.98.14,8.97.03,2.09-.07,4.4-.1,6.37-.87,1.53-.6,3.25-1.74,4.2-3.09.58-.82.94-2.22.06-3.02s-2.77-.85-3.84-1.03c-5.36-.91-10.8-1.38-16.21-1.87-4.08-.37-8.16-.71-12.24-1.01l-1.15.97c2.48-.23,4.96-.45,7.43-.68l3.97-.36c.2-.02.73,0,.3-.05.25.02.5.08.75.12,3.13.47,6.27.86,9.42,1.12,3.4.28,7.13.65,10.49-.17,3.07-.75,6.25-3.23,6.57-6.59.02-.25-.17-.27-.38-.31-9.84-1.61-19.64-3.34-29.54-4.52-2.87-.34-5.73-.68-8.6-1.03l-1.15.97c5.47-.51,10.94-1.02,16.4-1.52.39-.04.78.1.12-.09.27.08.56.12.84.17,1.5.29,3,.55,4.52.77,3.77.55,7.86,1.12,11.65.37,1.78-.35,3.61-1.16,4.55-2.81.7-1.24.65-3.33-.39-4.41-.34-.36-.79-.36-1.29-.47l-3.65-.78c-6.05-1.29-12.08-2.62-18.14-3.87-2.11-.44-4.5-.17-6.64-.2-3.02-.05-6.05-.09-9.07-.14-.48,0-1.17.06-1.54.41-.26.24-.36.55.15.56,5.02.08,10.04.06,15.06.23.31.01-.28-.06.1,0,.29.05.57.12.86.18l3.45.74,10,2.13,7.94,1.69c.19.04.46.05.64.14.14.07,0,0-.04-.04.11.09.25.42.34.58.87,1.75.58,4.04-1.39,4.95-1.35.62-3.24.46-4.67.4-2.01-.08-4.02-.3-6.02-.58-1.46-.21-2.93-.45-4.38-.73-.55-.11-1.1-.26-1.65-.25-2.98.07-6.01.56-8.97.83-2.62.24-5.24.49-7.85.73-.35.03-2.33.83-1.15.97,5.2.62,10.42,1.15,15.61,1.86s10.36,1.69,15.53,2.53c2.34.38,4.67.76,7.01,1.15l-.38-.31c-.24,2.54-2.35,5.04-4.88,5.49-3.3.59-6.9.13-10.2-.19-2.72-.26-5.43-.61-8.13-1.02-1.54-.24-3.22.14-4.75.28-2.64.24-5.27.48-7.91.73-.38.03-1.13.13-1.37.48-.19.27-.23.46.22.5,8.3.6,16.63,1.27,24.88,2.36,1.87.25,3.78.47,5.61.94.37.09.9.19,1.14.42,1.18,1.15-.3,2.86-1.19,3.56-.5.4-1.05.75-1.61,1.06-.3.17-.24.14-.25.14-.15.05-.54.13-.83.18-1,.16-2.01.22-3.01.27-2.78.13-5.56.1-8.34.03-4.4-.11-8.79-.32-13.18-.63-.46-.03-1.06.08-1.44.35-.16.11-.61.49-.14.58,2.92.59,5.83,1.23,8.74,1.89,2.18.5,4.37,1.02,6.53,1.6,1.41.38,3.07.68,4.35,1.41.49.28.51.69.53,1.31.07,2.1-2.13,1.77-3.63,1.77-4.54-.01-9.08-.21-13.61-.58-1.72-.14-3.3-.34-5-.17l-5.26.52-12.45,1.24c-.56.06-1.13.1-1.69.17-.67.09-.27-.1-.08.07-.44-.4-1.65-.54-2.2-.71-7.71-2.51-15.43-5.02-23.14-7.53l-3.66-1.19c-1.57-.51-3.18-.01-4.8.18-5.38.64-10.78.92-16.17,1.45-1.69.17-3.39.36-5.08.56-.93.11-1.9,1.1-.37.92h0Z"/>
    <path class="cls-39" d="M468.08,451.55c-3.6-.67-7.34-.2-10.7,1.23-.39.17-.83.68-.52,1.11s1.04.34,1.47.15c2.84-1.21,5.96-1.5,8.99-.93.5.09,1.2-.19,1.42-.66.24-.51-.22-.82-.66-.9h0Z"/>
    <path class="cls-14" d="M327.28,387.02l15.77-100.3-16.71-26.12s-37.39-5.58-60.76,22.7c-9.41,14.68-24.5,52.94-32.05,87.1,8.44,4.57,26.86,9.83,45.79,12.7,18.93,2.87,38.69,1.51,47.95,3.93Z"/>
    <path class="cls-32" d="M313.49,273.93c3.24,2.01,5.9,4.93,8.21,7.92s4.49,6.37,6,9.93c2.93,6.9,2.93,14.82,2.27,22.17-.77,8.56-2.62,16.98-4.46,25.35-1.58,7.19-2.9,14.44-4.58,21.61-1.94,8.29-4.23,16.61-5.21,25.08l1.19-.49c-7.9-.01-15.67.01-23.62-.74-8.99-.85-17.92-2.33-26.72-4.35-5.46-1.25-10.86-2.72-16.2-4.41-2.84-.9-5.67-1.86-8.47-2.88-1.37-.5-2.74-1.01-4.1-1.54-.81-.32-1.63-.64-2.44-.97-.28-.11-1.02-.26-1.1-.43-.07-.15.18-.77.22-.93l.41-1.73,1.19-5.01c.54-2.26,1.07-4.52,1.61-6.79l-1.4.37c7.61,3.66,15.84,6.26,23.94,8.58,15.14,4.34,30.77,7.24,46.56,7.22,3.04,0,6.13-.05,9.16-.42.38-.05,1.57-.7.63-.59-2.38.29-4.81.36-7.2.4-6.4.1-12.81-.31-19.16-1.09-15.21-1.87-30.34-5.9-44.67-11.33-2.65-1-5.31-2.04-7.87-3.27-.28-.13-1.31,0-1.4.37-1.15,4.85-2.3,9.7-3.45,14.54-.02.05-.01.09.03.12,15.74,6.46,32.25,10.97,49.08,13.45,8.85,1.3,17.84,2.16,26.79,2.03.4,0,.8-.01,1.2-.03.13,0,.54-.01.27,0,1.93-.02,3.85,0,5.78.01.3,0,1.15-.1,1.19-.49.89-7.74,2.93-15.36,4.72-22.93s3.06-14.52,4.65-21.77c1.78-8.15,3.63-16.31,4.6-24.61.89-7.64,1.2-15.8-1.33-23.19-1.36-3.99-3.68-7.68-6.2-11.04s-5.27-6.47-8.76-8.64c-.35-.22-1.56.37-1.36.5h0Z"/>
    <path class="cls-39" d="M304.31,434.56c-2.37-1.54-5.49-.86-7.93.15-2.69,1.12-5.16,2.7-7.24,4.74-.37.36.32.48.55.48.5,0,1.08-.19,1.45-.55,1.59-1.57,3.46-2.83,5.49-3.76,1.78-.82,3.87-1.43,5.65-.27.4.26,1.01.1,1.42-.06.14-.05.99-.49.62-.73h0Z"/>
    <g>
      <circle class="cls-23" cx="801.04" cy="918.15" r="54.24"/>
      <path class="cls-5" d="M853.58,920.29c.85-.28,1.77-.22,2.61.15.48-1.35.93-2.7,1.32-4.08-.08-.99-.19-1.98-.33-2.97-.88-7.03-3.52-13.77-7.03-20.22-1.8-3.13-3.93-5.98-6.27-8.63-.19,3.49-.4,6.99-.42,10.49,0,.9-.31,1.6-.76,2.13-.15.92-.31,1.83-.46,2.75-.29.59-.59,1.17-1.47,1.17-6.15.29-12.01.29-18.17-.88-.59,0-1.17-.29-1.47-.59-3.81-3.52-7.62-7.33-11.43-10.84-.88-.88-1.76-1.76-2.34-2.64-1.47-2.05-1.47-4.4-1.17-6.74.29-2.93.88-6.15,1.17-9.08,0-.88.59-1.47,1.46-1.76.88,0,2.05-.29,2.93-.29.12,0,.25,0,.37,0,.12-.12.23-.25.38-.37.83-.65,1.63-1.34,2.43-2.02-6.25-1.77-12.5-2.52-18.75-2.02,1.66.91,3.35,1.72,5.12,2.35.74.26,1.28.69,1.66,1.2.3.18.59.36.89.57.59.29.88.88.88,1.47.88,4.69,0,9.38-1.17,13.77-.29.59-1.17,1.17-1.76,1.47-4.98,2.93-9.67,5.57-14.65,8.5-.59,0-1.17.29-1.47,0-3.81-1.46-7.91-2.93-12.01-4.4-2.64-.94-3.93-2.37-4.3-4.28-.19-.43-.3-.94-.28-1.52.08-3.7.77-7.29,1.52-10.88-1.09.67-2.06,1.35-2.51,2.02-9.08,6.15-15.53,14.06-19.34,24.03-.45,1.24-.87,2.51-1.25,3.79.35,0,.7-.01,1.06-.01,1.1,0,1.92.41,2.49,1.04.47-.02.97.03,1.51.16,1.17.29,2.34,1.17,2.93,2.34.29.29.29.59.29.88-.29,7.62.88,15.24,2.64,22.56.59,1.47,0,3.22-.29,4.69-.59,2.34-1.17,4.98-1.76,7.62-.29.59-.29,1.17-.29,1.76,0,.88-.29,1.76-1.17,2.05-.02,0-.04,0-.06.01.05.15.11.28.15.45,1.05,4.85,5.59,9.38,9.35,12.4,2.92,2.35,6.28,4,9.75,5.43.4-.16.8-.3,1.22-.4.32-.42.79-.71,1.28-1.19,1.17-1.46,2.05-2.64,3.52-3.81,1.17-.88,2.64-1.46,3.81-2.05h1.17c4.69.88,9.08,1.76,13.48,2.64,1.17,0,2.34.29,3.52.29,1.76,0,3.22.59,4.69,1.47,2.05,1.17,3.81,2.64,4.98,4.69.59.88.88,1.47,1.17,2.34.22.43.31.87.29,1.28,1.62.08,3.23.19,4.85.31,4.76-3.54,9.23-6.47,15.21-8.07.6-1.57,2.22-2.45,3.02-3.88-.13-.16-.22-.32-.22-.48.59-4.69,1.17-9.67,3.22-14.06,0-.29.29-.29.29-.59,3.52-6.74,7.03-13.19,10.55-19.63.59-.59,1.17-1.17,2.05-1.76.5-.33,1-.37,1.39-.13ZM774.83,932.44c-3.81-.59-7.03-1.76-10.26-3.22-1.46-.88-3.22-1.76-4.4-3.22,0,0-.29-.29-.29-.59-.59-5.27-1.76-10.55-1.76-15.82,0-4.98,1.17-9.38,4.4-13.48,1.47-1.76,2.93-3.22,4.4-4.98.29-.29.59-.59.88-.59,1.47-.88,2.64-.88,4.1-.59,2.93,1.17,5.86,2.34,8.5,3.52,2.34,1.17,4.39,2.34,5.86,4.69.29.59.59,1.46.59,2.05.88,4.98,1.47,10.26,2.34,15.24,0,.29,0,.88-.29,1.17-2.64,3.81-5.27,7.91-7.91,11.72-.29.29-.59.59-.88,1.17-1.17,2.34-2.93,3.22-5.27,2.93ZM815.56,946.21c-1.76,3.22-4.4,5.86-7.33,8.5-2.05,1.76-4.69,2.34-7.03,2.05-4.1-.59-8.2-1.17-12.31-2.05-3.22-.88-5.27-3.22-7.03-6.45-.88-3.22-2.93-6.74-2.93-10.26,0-2.64.88-4.69,2.34-6.74,1.76-2.34,3.22-4.4,4.98-6.74,1.46-2.05,2.93-4.1,5.27-5.27.59-.29.88-.59,1.46-.59,5.27-.59,9.96.88,14.94,2.05,2.05.59,3.22,1.47,3.81,3.52,1.46,5.27,3.22,10.55,4.98,15.82.59,2.34,0,4.4-1.17,6.15ZM847.21,921.31c-.59,2.34-1.46,4.4-2.34,6.45-1.76,3.52-3.81,7.33-5.86,10.84-1.17,2.05-2.64,2.93-4.98,3.22-4.69.59-9.67.29-14.36-.59-.29,0-.59-.29-.59-.59-1.76-5.27-3.52-10.84-5.27-16.12-.59-1.17-.88-2.05-1.17-3.22-.29-.88-.29-2.05.29-2.93,1.76-3.22,3.22-6.74,4.98-9.96.88-1.76,2.34-2.93,3.52-4.4.29-.29.88-.59,1.46-.59,6.45-.29,12.6-.29,18.75,1.17.59,0,.88.29,1.17.59,1.47,4.4,3.22,8.5,4.4,12.89.29.88.29,2.05,0,3.22Z"/>
      <path class="cls-5" d="M778.94,958.99s-3.68,4.45-4.68,6.34c0,0-11.78-6.65-16.13-13.59l-4.09-6.49,4.09-.25,15.98,12.94,4.82,1.06Z"/>
      <polygon class="cls-5" points="805.68 882.82 822.62 901.22 806.81 901.22 805.68 882.82"/>
      <path class="cls-5" d="M812.57,966.4l1.22,4.48s5.76-1.11,13.43-5.22c7.67-4.11,9.52-6.55,9.52-6.55l-1.04-2.68-23.14,9.97Z"/>
      <path class="cls-5" d="M805.68,870.53l-11.4-6.21s3.99-1.73,12.8-.05c8.81,1.68,13.07,3.09,13.07,3.09l-14.46,3.17Z"/>
    </g>
  </g>
  <g id="Layer_11" data-name="Layer 11">
    <path class="cls-39" d="M919.73,982.36s-1.48,1.83-.54,4.9c.94,3.08,26.28-1.33,32.38-1.77,8.54-.62,16.59.47,22.51-1.22,5.92-1.69-.73-10.65-.73-10.65l-53.64,8.74Z"/>
    <g>
      <path d="M944.64,598.6l.28-.73c3.21-3.53,6.47-5.05,10.07-3.65.03-.03,6.36-6.99,14.17-2.41,6.78,3.98,7.02,8.4,7.02,8.4,0,0,4.07-.03,5.53,1.26,3.28,2.9,1.61,8.4-.51,11.32-2.88,3.98-5.76,6.59-5.76,6.59,0,0-3.28,2.11-5.82,3.49-2.54,1.37-7.6.69-7.6.69,0,0-1.65,5-3.98,4.5-.96-.21-2.86-.21-4.75-.15-3.42.12-6.61-1.8-8.07-4.9-.22-.47-.45-.96-.69-1.5,0,0-3.33-1.64-1.83-6.22.32-.99.87-2.12,1.73-3.41,0,0-1.61-.84-2.62-4.67-.44-1.65.38-5.93,2.82-8.62Z"/>
      <path d="M945.16,598.66c.62-1.6,2.45-2.91,3.92-3.7,1.81-.97,3.67-1.07,5.59-.37.26.09.59-.01.77-.21,2.81-3.08,7.42-4.58,11.39-3.15,2.96,1.07,5.87,3.36,7.57,6.01.58.9,1.16,2.02,1.23,3.12.01.21.35.25.49.24,2.24,0,4.86.24,6.11,2.34,1.6,2.68.54,6.32-.92,8.82-1.53,2.62-3.77,5.01-5.95,7.11-.36.34-.66.51-1.23.87-1.41.88-2.82,1.74-4.27,2.55-2.28,1.26-5.12,1.21-7.65.88-.23-.03-.63.08-.71.33-.46,1.37-1.53,4.28-3.27,4.17-3.53-.23-7.37.39-10.29-2.03-.66-.54-1.23-1.19-1.69-1.91s-.66-1.8-1.21-2.45c-.29-.34-.77-.52-1.08-.87-2.26-2.5-.56-6.08.99-8.46.08-.12.02-.3-.1-.37-1.48-.82-2.35-3.35-2.56-4.87-.38-2.73,1.06-5.95,2.8-7.95.45-.52-.59-.67-.91-.31-1.87,2.15-3.3,5.44-3,8.35.18,1.71,1.19,4.5,2.83,5.41l-.1-.37c-1.45,2.23-2.92,5.23-1.71,7.88.31.67.76,1.26,1.34,1.72.14.11.38.22.51.35.3.34.46,1.02.68,1.46,1.32,2.66,3.82,4.49,6.75,4.95,1.75.27,3.55-.02,5.31.11,1.02.07,1.83.33,2.77-.2,1.53-.88,2.43-2.88,2.97-4.49l-.71.33c2.34.31,5.01.38,7.25-.43,1.68-.6,3.25-1.73,4.76-2.66.72-.44,1.49-.85,2.14-1.39.96-.81,1.82-1.81,2.65-2.75,1.34-1.51,2.71-3.09,3.73-4.84,1.53-2.62,2.54-6.3,1.03-9.14-1.38-2.61-4.48-2.92-7.16-2.91l.49.24c-.09-1.32-.86-2.68-1.6-3.73-2-2.83-5.34-5.32-8.71-6.16-4.22-1.05-8.97.7-11.87,3.88l.77-.21c-2.13-.78-4.33-.69-6.38.3-1.81.88-4.07,2.46-4.8,4.38-.22.58.87.56,1.04.12Z"/>
    </g>
    <path class="cls-31" d="M959.55,645.2s3.38,5.57.13,7.93l19.86,1.93s3.33-3.73,1.58-7.74c-1.75-4-21.57-2.13-21.57-2.13Z"/>
    <path class="cls-13" d="M1003.17,674.61c-13.62,4.67-24.64-3.22-35.82-11.24-6.54-4.69-12.36-11.01-14.75-18.84-2.08-6.79-1.77-14.14-.73-21.08.94-6.27,2.6-11.76,6.91-16.57,4.11-4.58,9.62-7.79,15.49-9.55,1.75-.53,3.53-.96,5.32-1.34,15.83-3.53,37.7.95,46.11,13.7.76,1.16,1.46,2.41,2.11,3.72,0,0,1.27,2.83,1.44,3.84,3.15,17.95,3.06,51.84-22.66,55.03-2.25.28-4.2.85-3.43,2.34Z"/>
    <path class="cls-24" d="M954.11,661.84c-.72-4.25-.22-11.11.68-13.36-.17-1.98-.36-4.27-.57-7.05-.06-.8-.1-1.58-.13-2.34.02-.4,0-.79-.04-1.18-.31-13.55,3.77-20.88,3.77-20.88,5.22-9.29,14.98-15.11,25.63-15.28,12.53-.46,24.24,6.47,30.55,13.76,3.14,3.61,4.83,8.25,4.74,13.03-.06,4.09-3.46,8.79-4.32,13.28,4.36-.45,9.98.46,8.83,8.59-1.58,11.21-9.78,12.63-13.62,10.47-2.46,5.21-2.61,8.23-2.71,11.31-.11,3.19,1.08,9.14,1.75,10.44l8.22,2.81c-8.59,15.7-30.71,35.44-41.92,12.67l-.28-11.77-.05-2.65c-.29,0,.29,0-4.4-1.21-14.13-4.48-15.29-15.64-16.14-20.64Z"/>
    <path class="cls-39" d="M974.66,685.91l-.07-2.35s14.41.78,23.29-7.04c0,0-6.06,7.24-13.2,8.66-7.14,1.42-10.02.73-10.02.73Z"/>
    <path d="M1009.99,646.13c-.08.36-.17.74,0,1.07.22.43.83.53,1.28.35s.79-.55,1.12-.9c2.18-2.26,7.51-5.99,10.6-5.42,3.7-11.76,1.62-23.35-6.2-32.9-2.48-3.02-8.24-5.89-10.01-6.83-10.73-5.59-19.47-4.8-29.97-2.15-15.73,3.98-16.93,7.43-21.23,21.53,0,0,18.23-11.91,36.9-7.59-.5.21,11.49,2.27,11.67,2.44,1.52,1.54.11,3.08.84,6.53.53,2.51.36,4.45,2.49,5.91,1.48,1.01,3.05,3.88,3.17,5.67l-.66,12.3Z"/>
    <circle class="cls-9" cx="957.93" cy="644.83" r="2.75"/>
    <path d="M954.56,642.73c1.26-.9,3.04-1.56,5.71-1.48,4.28.12,6.51,5.33,6.51,5.33,0,0-2.5-3.93-6.72-4.15-2.03-.11-3.93.64-5.43,1.51.02-.41,0-.81-.07-1.21Z"/>
    <path d="M983.04,634.02s10.98.12,13.08,2.45c0,0-1.31-3.58-10.6-4.45,0,0-4.72.72-2.48,2Z"/>
    <path d="M953.18,635.8c0-.09-.01-.18-.02-.27,1.63-.67,4.05-1.29,7.62-1.56,0,0,4.55.37,2.28,1.61,0,0-5.82-.04-9.81.82-.03-.2-.07-.4-.08-.61Z"/>
    <path class="cls-9" d="M1020.61,651.61c.36-1.28.47-2.71-.05-3.97-.17-.41-.32-.79-.82-.74-1.13.12-2.08,1.13-2.76,1.94-1.12,1.33-1.99,2.86-2.78,4.41-.1.2.05.31.24.35.25.05.51-.06.7-.21-.12.09.2-.13.28-.18.15-.08.28-.16.44-.06.31.19.38.82.37,1.15-.03,1.21-.98,1.89-2.1,2.07-.2.03-.57.13-.6.38s.3.29.47.26c1.64-.27,3.42-1.25,3.3-3.15-.05-.69-.38-1.38-1.14-1.43-.68-.05-1.36.31-1.88.73l.93.13c.93-1.82,1.98-3.78,3.53-5.16.17-.15.32-.27.51-.4s.11-.07.33-.18c.02-.01.05-.02.07-.03-.28.11-.06.01-.05.02,0,0,.05-.01.06-.02.07-.02.1.02-.07.01.13,0,0,0-.04,0l-.29-.11c.87,1.17.66,3,.3,4.29-.12.42.96.27,1.07-.12h0Z"/>
    <circle cx="984.97" cy="643.55" r="2.75"/>
    <path d="M977.37,645.81s3.81-5.8,8.52-5.7c6.62.14,8.04,4.45,9.44,6.48,0,0-4.39-5.37-9.51-5.36-4.64.01-8.44,4.58-8.44,4.58Z"/>
    <g>
      <path class="cls-5" d="M969.94,659.32c.86.46,2.17.36,3.04-.17.19-.12.83,0,.56.17-1.15.7-3.03.75-4.14.16-.11-.06-.09-.14.05-.19.14-.05.37-.04.49.03"/>
      <path class="cls-5" d="M973.91,659.08c.58-.27,1.23-.41,1.88-.45.09,0,.22.03.29.09.05.05.07.11,0,.15-.3.17-.68.24-1.03.23-.11,0-.26-.03-.32-.13-.06-.09.05-.14.14-.14.29,0,.58-.05.83-.19.09.08.19.17.28.25-.58.04-1.16.17-1.68.41-.1.05-.25.01-.34-.04-.07-.04-.14-.14-.04-.19"/>
      <path class="cls-5" d="M976.48,659.18c.76-.01,1.65-.34,2.02-.9.57-.86.05-2.31-.89-2.87-.1-.06-.05-.14.06-.16.14-.03.3.02.4.09.82.49,1.35,1.7,1.22,2.5-.12.75-.85,1.28-1.76,1.49-.27.06-.56.1-.84.11-.11,0-.32-.03-.38-.13-.06-.09.05-.13.16-.13"/>
      <path class="cls-5" d="M968.55,658.92c.04-.09-.03-.14-.09-.14-.2,0-.41-.06-.59-.2-.07.08-.13.16-.2.24.41.05.82.19,1.18.43.07.05.18.02.24-.04.05-.04.1-.14.03-.19"/>
      <path class="cls-5" d="M969.12,659.04c-.41-.28-.87-.43-1.32-.48-.07,0-.15.03-.2.09-.04.05-.05.11,0,.15"/>
      <path class="cls-5" d="M966.98,659.01c-.49-.02-1.07-.36-1.31-.93-.36-.87-.01-1.89.61-2.43.07-.06.03-.14-.04-.16-.09-.03-.19.02-.26.08-.54.48-.89,1.25-.82,2.06.07.76.54,1.29,1.13,1.51.17.07.36.11.54.12.07,0,.21-.03.25-.12.04-.09-.03-.13-.1-.13"/>
    </g>
    <g>
      <path d="M1042.15,597.95l.75.23c3.75,2.94,5.51,6.09,4.36,9.78.04.03,7.43,5.84,3.42,13.96-3.48,7.05-7.87,7.61-7.87,7.61,0,0,.32,4.06-.86,5.61-2.66,3.48-8.27,2.21-11.33.31-4.18-2.59-6.99-5.27-6.99-5.27,0,0-2.34-3.12-3.9-5.56-1.55-2.43-1.23-7.53-1.23-7.53,0,0-5.1-1.29-4.77-3.64.33-2.35-.9-10.01-.9-10.01,0,0,2.04-1.56,6.45-3.93,0,0,1.39-3.44,6.07-2.28,1.01.25,2.18.72,3.52,1.48,0,0,.73-1.67,4.47-2.95,1.62-.55,5.94-.04,8.8,2.19Z"/>
      <path d="M1041.82,598.24c1.66.51,3.2,2.41,4.1,3.86,1.14,1.82,1.39,3.87.8,5.93-.01.06,0,.1.04.14,3.01,2.37,5,6.46,4.48,10.3-.45,3.32-2.56,6.72-5.07,8.91-.87.76-2.35,1.72-3.29,1.85-.21.03-.64.16-.62.45.16,2.11.18,4.85-1.63,6.28-2.54,2.01-6.54.93-9.1-.49s-5.22-3.28-7.25-5.37c-1.49-1.53-2.71-3.59-3.84-5.39-1.39-2.2-1.54-5.14-1.39-7.69,0-.14-.08-.19-.21-.23-1.48-.38-4.23-1.25-4.55-2.99-.16-.92.05-2.04,0-2.99-.09-1.37-.24-2.73-.41-4.09-.12-.98-.2-2-.42-2.96-.07-.33.04-.52-.17-.24.09-.12.3-.21.42-.3,1.02-.71,2.07-1.36,3.14-1.99.95-.56,2.35-1.03,3.03-1.87s1.08-1.5,2.14-1.86c2.15-.72,4.59.45,6.43,1.47.3.16.84-.03.98-.33.59-1.27,3.08-2.5,4.53-2.73,2.59-.4,5.65.72,7.69,2.25.31.23,1.31-.2,1.01-.43-2.37-1.78-5.95-3-8.94-2.36-1.78.38-4.54,1.59-5.38,3.4l.98-.33c-3.04-1.68-7.62-2.99-10.11.34-.16.21-.28.61-.46.78-.13.12-.6.22-.81.34-.31.17-.62.35-.93.52-.58.33-1.16.67-1.73,1.02-.98.6-1.96,1.21-2.87,1.9-.07.05-.12.15-.11.23.48,3.01,1.05,6.17.95,9.22-.02.62-.16,1.17.12,1.75.3.63.88,1.07,1.45,1.43,1.01.65,2.19,1.09,3.36,1.39l-.21-.23c-.14,2.39-.07,5.23,1.09,7.37.86,1.58,2.02,3.05,3.08,4.51.44.6.83,1.21,1.38,1.7,4.19,3.77,11.34,9.41,17.27,5.9,2.59-1.54,2.78-4.51,2.57-7.25l-.62.45c1.35-.19,2.65-.97,3.71-1.78,2.77-2.12,5.07-5.62,5.77-9.04.6-2.94-.2-5.91-1.86-8.37-.57-.84-1.22-1.62-1.95-2.33-.11-.11-.48-.33-.53-.48-.12-.32.23-1.16.26-1.63.14-1.8-.47-3.5-1.5-4.97-1.02-1.45-2.42-3.05-4.15-3.58-.34-.11-1.28.4-.67.59Z"/>
    </g>
    <path d="M972.32,665.23c2.79-.16,9.54-2.26,10.85-1.25,0,0-3.58,7-10.06,7.37-6.48.37-8.46-5.74-8.46-5.74,0,0,4.11-.18,7.67-.38Z"/>
    <path class="cls-23" d="M982.77,664.16s-5.92,3.04-10.44,3.32-7.42-1.62-7.42-1.62c0,0,1.81-.7,6.92-1s10.95-.7,10.95-.7Z"/>
    <path class="cls-8" d="M972.93,670.66c7.37-1.93,7.08-5.54,10.86-7.52,0,0-2.03,9.73-9.64,10.17-7.62.44-9.48-7.55-9.48-7.55,1.12.83,1.99,3.68,8.26,4.9Z"/>
    <path class="cls-8" d="M968.92,663.92c1.42-.76,2.64.34,3.34.3.7-.04,2.13-1.19,3.71-.94,5.33.84,7.82-.13,7.82-.13-1.89,1.72-7.24,3.04-12.05,3.32-4.82.28-5.88-.05-7.29-.81-.22-.12,1.58-.18,4.47-1.73Z"/>
    <path class="cls-39" d="M1106.68,965.15s1.12,2.07,4.32,2.38c3.2.31,8.88-24.77,10.82-30.57,2.72-8.12,6.82-15.14,7.53-21.25s-10.11-3.43-10.11-3.43l-12.56,52.87Z"/>
    <path class="cls-24" d="M921.64,727.32c.59.6,22.47,26.91,41.81,28.29,13.98.99,53.94-34.16,53.94-34.16l-13.16-18.07-43.05,29.23-35.8-20.08-3.74,14.79Z"/>
    <path class="cls-24" d="M905.45,702.48c-.57,1.41-.28,3.03.76,4.15,0,0-4.64,2.54-1.59,6.52,0,0-3.42,3.45-.09,6.41-.81,2.57.24,5.36,2.54,6.76,4.02,2.48,16.84,1.94,16.84,1.94l2.41-15.61s-6.26-7.62-7.61-8.28c-.93-.47-6.29-2.44-9.1-3.48-1.59-.59-3.37.1-4.15,1.6Z"/>
    <path class="cls-39" d="M922.78,721.61c-.41.13-.85.19-1.28.17-1.22.04-2.43-.16-3.58-.57-1.78-.66-3.24-1.99-4.04-3.71-.81-2.17-1.11-4.49-.87-6.8l.7.22c-.86,1.33-1.97,2.49-3.26,3.41-.62.44-1.29.82-1.99,1.14-.36.19-.76.3-1.16.34-.58.08-1.12-.3-1.25-.86-.04-.43.05-.86.25-1.24l.46-.91.9-1.79,1.65-3.28.75-1.49c.23-.52.6-.96,1.06-1.28.46-.23.96-.34,1.47-.32.45,0,.87.02,1.26.04.78.06,1.46.14,2,.23.57.06,1.12.21,1.65.44-.54,0-1.09-.03-1.63-.11-.54-.03-1.2-.08-1.98-.08-.82-.09-1.65.02-2.43.31-.69.75-1.2,1.64-1.51,2.6l-1.55,3.31-.88,1.76c-.28.56-.68,1.34-.64,1.7s.64.32,1.29-.06c.63-.28,1.23-.61,1.81-.99,1.21-.85,2.26-1.93,3.07-3.17l.75-1.15-.06,1.38c-.25,2.19,0,4.41.73,6.49.7,1.6,2,2.85,3.62,3.5,1.08.45,2.23.71,3.4.77.43-.03.85-.03,1.28,0Z"/>
    <path class="cls-39" d="M905.9,719.19c.92-.05,1.84.08,2.71.37.96.23,1.91.52,2.83.85.57.19,1.13.43,1.65.73.63.35,1.11.91,1.35,1.59.22.72.07,1.51-.4,2.1-.39.53-.93.93-1.56,1.13-1.01.27-2.07.26-3.08-.03-.89-.19-1.76-.45-2.6-.79.91-.1,1.83-.02,2.71.23.9.19,1.84.16,2.73-.11,1.01-.28,1.64-1.28,1.46-2.31-.55-.95-1.46-1.63-2.52-1.87-1.01-.41-1.93-.74-2.73-1-.88-.22-1.74-.52-2.56-.9Z"/>
    <path class="cls-39" d="M909.32,714.32c.83.12,1.64.35,2.42.68.92.31,1.72.9,2.28,1.7.33.53.46,1.15.37,1.77-.1.71-.56,1.31-1.22,1.59-.58.23-1.2.32-1.82.28-.55,0-1.1-.03-1.63-.1-.91-.07-1.81-.2-2.69-.4-.84-.1-1.65-.37-2.38-.79.83-.02,1.66.07,2.47.25.76.1,1.61.15,2.65.22,1.02.12,2.06.08,3.07-.14.77-.42,1.05-1.38.63-2.14-.03-.05-.06-.1-.09-.14-.46-.69-1.11-1.23-1.88-1.55-.79-.27-1.53-.68-2.16-1.22Z"/>
    <path class="cls-39" d="M909.78,707.51c-.09.19-.82.19-1.68,0-.86-.2-1.59-.56-1.54-.78s.83-.21,1.69,0,1.64.59,1.54.79Z"/>
    <path class="cls-24" d="M974.36,835.07c-.54.79-19.4,33.75-21.27,39.33-1.86,5.58-.25,92.75-.25,92.75l17.25-1.34s12-41.23,12.33-54.26c.33-13.03-1.62-26.05-1.62-26.05l29.77-40.18-36.21-10.26Z"/>
    <path class="cls-24" d="M1018.9,849.67s9.89,39.08,14.59,43.86c4.7,4.78,71.11,33.08,71.11,32.01s2.87-17.21,2.87-17.21c0,0-36.65-28.35-40.05-30.48-3.4-2.13-13.84-7.18-13.84-7.18l-3.96-27.37-30.73,6.37Z"/>
    <path class="cls-37" d="M993.92,807.66c0,.8,25.26,71.53,25.26,71.53l44.11-18.31s-7.91-28.77-10.89-37.4c-3.58-10.39-4.98-24.11-8.93-28.12-2.38-2.39-4.47-5.06-6.23-7.94l-43.32,20.25Z"/>
    <path class="cls-37" d="M978.55,807.42c.27.67-24.33,53-24.33,53l44.62,14.28,12.86-24.59-7.14-35.51-26.01-7.18Z"/>
    <path class="cls-4" d="M1063.29,860.88c-.27.18-.56.32-.87.43l-2.54,1.1-9.37,3.94-31.42,12.82-.35.15-.12-.35c-.2-.63-.43-1.34-.66-1.96-4.41-13.04-8.4-24.84-11.32-33.48l-3.35-10.16c-.37-1.15-.66-2.08-.88-2.77-.12-.32-.2-.65-.25-.99,0,0,.15.32.39.94l1,2.68,3.56,10.1c2.96,8.61,7.02,20.38,11.5,33.4l.67,1.96-.47-.21,31.51-12.63,9.51-3.72,2.6-.98c.28-.1.57-.18.86-.24Z"/>
    <path class="cls-4" d="M1045.99,817.22c-.98.7-2.09,1.2-3.27,1.47-5.72,1.67-11.89.33-16.4-3.55-.95-.73-1.76-1.64-2.37-2.68.09-.08.96.98,2.68,2.3,4.52,3.53,10.4,4.79,15.96,3.44,2.13-.5,3.35-1.1,3.4-.99Z"/>
    <path class="cls-4" d="M981.34,817.8c-1.93,2.82-5.28,4.33-8.68,3.91,1.56-.35,3.09-.8,4.59-1.34,1.41-.78,2.77-1.64,4.08-2.57Z"/>
    <path class="cls-40" d="M1004.97,680.63c-5.41.75-10.96,2.63-14.2,4.58-3.74,2.24-11.55,8-15.92,8.57-5.15,7.12-7.34,16.78-8.44,27.51l-2.03,26.59c-.09,19.83,4.51,37.23,5.16,47.78.33,6.33,1.48,12.59,3.41,18.63,0,0,22.55,3.58,33.93-1.34,11.38-4.91,20.36-3.74,26.89-8.77,4.26-3.37,8.2-7.12,11.77-11.21,0,0-12.09-15.24-15.27-25.14-3.17-9.9-.44-39.99-1.36-51.58-.92-11.58-9.31-35.77-23.27-35.67"/>
    <path class="cls-22" d="M1030.69,767.65c-3.19-9.9-.44-39.99-1.37-51.58-.89-11.09-8.66-33.71-21.64-35.53-7.29,1.83-13.9,6.32-18.21,12.6-3.42,4.99-5.13,11.38-9.91,15.34-3.49,2.88-7.66,3.6-11.92,4.07-.51,2.75-.9,5.61-1.2,8.56l-2.04,26.59c-.09,19.83,4.53,37.23,5.19,47.78.33,6.33,1.49,12.59,3.43,18.63,0,0,22.68,3.58,34.13-1.34s20.48-3.74,27.05-8.77c4.28-3.37,8.25-7.12,11.84-11.21,0,0-12.16-15.24-15.36-25.14Z"/>
    <path class="cls-24" d="M1117.9,935.86c.11-.62.22-1.25.31-1.9.31-2.06.98-4.05,1.71-6.01.2-.55.41-1.09.62-1.64.12-.32.24-.63.36-.95,1.5-3.92,3.08-8.16,2.1-12.41-.72-3.09-4.48-2.47-6.74-3.09-5.13-1.42-8.76-1.9-11.03-3.06l-12.85,11.98,9.3,3.74c1.19,5.27,1.88,15.53,2.01,18.98.16,4.44.31,5.3.65,10.63.13,2.08.16,2.96-.38,5.04-.54,2.08-2.24,3.6-1.02,5.79.8,1.45,2.65,1.7,4.09.98,1.44-.72,2.53-2.19,3.43-3.7.57-.95,1.09-1.94,1.67-2.88,1.35-3.87,2.36-7.85,3.36-11.82.51-2.01,1.01-4.02,1.57-6.01.34-1.24.61-2.43.84-3.66Z"/>
    <path class="cls-24" d="M969.77,962.42c.89,2.5,2.08,7.35,2.98,9.74,1.04,2.74,3.31,5.96.41,7.59-2.44,1.37-6.17.6-8.99.84-3.68.32-8.84.91-12.52,1.23-3.16.27-14.83.92-17.82,1.91-4.67,1.53-7.71,1.24-9.94.77-.62-.13-.98-.05-1.31-.46-.87-1.08-.96-2.38.47-3.6,1.81-1.53,4.43-.14,6.08-1.87.29-.31.56-.65.91-.89.69-.47,1.6-.51,2.45-.62,4.22-.55,3.65-2.35,8.97-4.56,1.56-.65,9.98-11.12,11.38-12.03"/>
    <path class="cls-39" d="M933.91,977.39c-1.15.71-2.35,1.45-3.44,2.23-.13.09-.3.26-.3.27l.07.51c-1.01-.66-2.14-.95-3.46-.81.92-.55,2.16-.67,3.23-.15l-.5.19c.18-.35.34-.43.51-.59,1.14-.84,2.49-1.48,3.9-1.64h0Z"/>
    <path class="cls-22" d="M1024.51,749.12c-18.46,9.73-39.55,14.06-60.2,12.35.4,10.9,4.14,24.55,2.39,35.31-1.74,10.67-5.55,20.84-8.92,31.08-6.16,18.73-14.26,35.29-17.56,54.78-.14.85-.28,1.77.11,2.54.61,1.23,2.18,1.45,3.5,1.63,11.9,1.6,21.97,11.18,33.95,11.67,9.6.4,18.82-5.17,28.4-4.36,6.52.55,13.51,3.93,19.2.59,3.02-1.77,4.87-5.08,7.54-7.37,5.36-4.58,13.08-4.41,19.54-7.08,6.01-2.49,10.74-7.38,15.29-12.14.69-.72,1.43-1.55,1.47-2.57.05-1.09-.7-2.01-1.36-2.86-6.09-7.84-7.64-18.32-9.41-28.21-2.05-11.42-4.68-22.74-7.87-33.87-1.4-4.89-2.96-9.84-5.82-13.99-3.34-4.85-8.33-8.43-11.02-13.7-4.26-8.36-1.26-18.06-7.42-25.03"/>
    <path class="cls-24" d="M1017.71,788.39l13.5-41.1-18.82-23.06,20.48-18.21s24.86,31.44,21.56,42.98c-3.3,11.54-22.92,48.23-22.92,48.23l-13.8-8.84Z"/>
    <path class="cls-24" d="M999.57,792.82c-.65,2.13.56,4.39,2.69,5.04.56.17,1.15.22,1.73.13,0,0-.55,5.45,4.64,5.14,0,0,.94,4.94,5.43,3.8,1.73,2.19,4.72,2.91,7.26,1.75,4.44-2,11.42-13.27,11.42-13.27l-11.95-11.12s-10.18.94-11.43,1.67c-1.25.73-9.8,6.86-9.8,6.86Z"/>
    <path class="cls-40" d="M997.53,687.52c-4.32,5.04-6.86,14.44-2.02,23.43,4.25,7.95,14.88,18.31,14.88,18.31l3.45-1.72c9.64-4.8,17.64-12.34,23.01-21.67h0s-5.92-8.45-13.46-15.58c-8.61-7.93-18.33-8.25-25.85-2.77Z"/>
    <path class="cls-39" d="M928.86,979.58s7.57-2.59,7.48,7.51l4.22-1.31s-1.34-8.01-5.59-8.36c-4.25-.35-6.11,2.16-6.11,2.16Z"/>
    <path class="cls-39" d="M1104.29,956.68s.52-7.98,9.81-4.02l.42-4.4s-7.91-1.84-9.87,1.95-.36,6.47-.36,6.47Z"/>
  </g>
</svg>