<svg id="Layer_1" data-name="Layer 1" xmlns="http://www.w3.org/2000/svg" viewBox="0 0 126.43 236.92"><defs><style>.cls-1{fill:#faad1c;}.cls-2{fill:#ffcc04;}.cls-3{fill:#0aa0cc;}.cls-4{fill:#02a1cd;}.cls-5{fill:#5753a4;}.cls-6{fill:#514c49;}.cls-7,.cls-8{fill:none;stroke-linecap:round;stroke-miterlimit:10;}.cls-7{stroke:#0d4161;stroke-width:1.87px;}.cls-8{stroke:#188ab2;stroke-width:4.9px;}.cls-9{fill:#a2cced;}.cls-10{fill:#fff;}.cls-11{fill:#0d4161;}</style></defs><polygon class="cls-1" points="19.6 234.91 28.27 234.91 28.27 197.56 98.08 197.56 98.08 234.91 106.94 234.91 106.94 194.07 106.8 194.07 106.8 186.11 19.6 186.11 19.6 194.18 19.6 234.91"/><path class="cls-2" d="M22.32,168.34h81.19a10.15,10.15,0,0,1,10.15,10.15h0a10.14,10.14,0,0,1-10.13,10.17H22.32a10.15,10.15,0,0,1-10.15-10.14h0a10.15,10.15,0,0,1,10.12-10.17Z"/><path class="cls-3" d="M62.43,3.77C29,3.56,1.79,11.75,1.57,47.46c-.05,9,1.09,18.18,2.28,27.14,1.33,10,4,19.86,6.56,29.58,1.11,4.26,2.3,8,1.84,12.48A34.39,34.39,0,0,1,9,128.16c-4.73,9.51-6,19.32-2.64,29.53a27.5,27.5,0,0,0,13.07,15.56c12.84,7.09,17.93,6.76,44.23,6.92,15.61.09,31.88-1,44.74-11.06a34.33,34.33,0,0,0,11.33-16.18,39.45,39.45,0,0,0,2-9.33c.71-5.43-1-12.38-3-17.33-3-7.42-5.88-17.31-3.82-25.4,4.77-18.89,7.84-43.78,7.9-53.37C123,11.8,95.89,4,62.44,3.8"/><polyline class="cls-4" points="36.78 172.38 45.59 221.31 55.01 221.48 61.93 172.99"/><polygon class="cls-5" points="54.08 233.28 47.77 233.18 43.04 207.15 57.03 207.37 54.08 233.28"/><polyline class="cls-4" points="62.95 171.92 71.77 220.85 81.19 221.02 88.11 172.54"/><polygon class="cls-5" points="80.25 232.89 73.94 232.8 69.3 207.15 83.19 207.02 80.25 232.89"/><path class="cls-6" d="M38.57,234.83c0-6.68,5.12-12.1,11.4-12.1s11.45,5.43,11.43,12.12"/><path class="cls-6" d="M65.82,234.83c0-6.68,5.12-12.1,11.41-12.1s11.44,5.43,11.42,12.12"/><path class="cls-7" d="M72.29,41.58c9.33-3.84,13.62,2.66,13.62,2.66"/><path class="cls-7" d="M53.37,41.44c-9.88-3.82-13.19,2.8-13.19,2.8"/><path class="cls-8" d="M108.66,124.85S126,161.05,92,166.7"/><path class="cls-9" d="M75.83,181A1.49,1.49,0,0,1,74,179.88h0a.2.2,0,0,1,0-.11,1.75,1.75,0,0,1,.86-2.19l5.19-1.87a6.44,6.44,0,0,1-.84-1.24L73,176.74a1.49,1.49,0,0,1-1.82-1.07v-.12a1.78,1.78,0,0,1,.88-2.2l6.22-2.28a8.07,8.07,0,0,1,0-1.39l-5.34,1.95a1.5,1.5,0,0,1-1.82-1.1h0v-.09a1.76,1.76,0,0,1,.88-2.19L80.89,165a4.44,4.44,0,0,1,.83-.45H79.85a1.72,1.72,0,0,1-1.5-1.77h0a1.55,1.55,0,0,1,1.32-1.73h0l10.09.13a1.36,1.36,0,0,1,1,.51A6.21,6.21,0,0,1,96,166.5c1,3.54-.48,7.28-3.34,8.32l-7.05,2.57h-.22Z"/><path class="cls-8" d="M18.47,125.17S1.19,162.23,35.13,167.88"/><path class="cls-9" d="M51.31,182.13a1.48,1.48,0,0,0,1.81-1.08v-.11a1.75,1.75,0,0,0-.87-2.19l-5.19-1.87a6.49,6.49,0,0,0,.85-1.24l6.23,2.28A1.49,1.49,0,0,0,56,176.85v-.12a1.74,1.74,0,0,0-.88-2.19l-6.22-2.29a8.07,8.07,0,0,0,0-1.39l5.35,1.95a1.49,1.49,0,0,0,1.81-1.1h0v-.09a1.78,1.78,0,0,0-.88-2.2l-8.89-3.23a4.35,4.35,0,0,0-.83-.43h1.87a1.74,1.74,0,0,0,1.5-1.77h0a1.54,1.54,0,0,0-1.32-1.73h0l-10.1.13a1.39,1.39,0,0,0-1,.51,6.2,6.2,0,0,0-5.18,4.79c-1,3.54.47,7.28,3.34,8.32l7,2.56h.21Z"/><path class="cls-10" d="M66.37,58.47a10.25,10.25,0,0,1,20.5,0"/><path class="cls-10" d="M39.8,58.47a10.26,10.26,0,0,1,20.51,0"/><path class="cls-11" d="M72.24,58.47a4.44,4.44,0,1,1,8.87,0"/><path class="cls-11" d="M45.68,58.47a4.44,4.44,0,1,1,8.87,0"/><path class="cls-11" d="M76.66,66.83s-.9,7.11-12.53,7.34-14-7.34-14-7.34Z"/></svg>