<svg id="Layer_1" data-name="Layer 1" xmlns="http://www.w3.org/2000/svg" viewBox="0 0 158.53 236.92"><defs><style>.cls-1{fill:#faad1c;}.cls-2{fill:#ffcc04;}.cls-3{fill:#02a1cd;}.cls-4{fill:#5753a4;}.cls-5{fill:#514c49;}.cls-6{fill:#0aa0cc;}.cls-10,.cls-7,.cls-9{fill:none;stroke-linecap:round;stroke-miterlimit:10;}.cls-7{stroke:#188ab2;stroke-width:4.95px;}.cls-8{fill:#a2cced;}.cls-10,.cls-9{stroke:#0d4161;}.cls-9{stroke-width:0.94px;}.cls-10{stroke-width:2.02px;}.cls-11{fill:#0d4161;}</style></defs><polygon class="cls-1" points="34.76 234.81 43.5 234.81 43.5 197.11 114 197.11 114 234.81 122.95 234.81 122.95 193.58 122.8 193.58 122.8 185.53 34.76 185.53 34.76 193.68 34.76 234.81"/><path class="cls-2" d="M37.51,167.59h82a10.26,10.26,0,0,1,10.27,10.23h0a10.25,10.25,0,0,1-10.27,10.24h-82a10.27,10.27,0,0,1-10.27-10.24h0A10.24,10.24,0,0,1,37.51,167.59Z"/><polyline class="cls-3" points="52.12 172.35 59.77 221.47 69 221.47 76.72 172.51"/><polygon class="cls-4" points="67.57 233.72 61.52 233.36 57.07 204.12 71.74 204.12 67.57 233.72"/><path class="cls-5" d="M53.77,235.16c0-6.57,5-11.9,11.19-11.9s11.25,5.33,11.22,11.9"/><polyline class="cls-3" points="80.24 172.35 87.93 221.47 97.16 221.47 104.88 172.51"/><polygon class="cls-4" points="95.59 233.36 89.38 233.36 85.21 204.12 99.9 204.12 95.59 233.36"/><path class="cls-5" d="M81.29,235.16c0-6.57,5-11.9,11.19-11.9s11.25,5.33,11.22,11.9"/><path class="cls-6" d="M2.09,115.59c0-33,16.41-65.16,37.67-88,54.79-59,115.84,26.21,115.84,90.78,0,47.65-37.73,59.23-75.49,59.23s-78-14.32-78-62"/><path class="cls-7" d="M141.89,116.72s0,38.29-34.26,44"/><path class="cls-8" d="M91.27,175.11a1.51,1.51,0,0,1-1.84-1.1s0-.06,0-.12a1.8,1.8,0,0,1,.88-2.22l5.24-1.9a5.17,5.17,0,0,1-.84-1.25l-6.28,2.31a1.51,1.51,0,0,1-1.84-1.06s0-.09,0-.12a1.8,1.8,0,0,1,.87-2.22l6.28-2.31a9.38,9.38,0,0,1,0-1.4l-5.4,2a1.52,1.52,0,0,1-1.84-1.12.09.09,0,0,0,0-.09,1.81,1.81,0,0,1,.88-2.22l9-3.28a3.69,3.69,0,0,1,.84-.43l-1.9,0a1.74,1.74,0,0,1-1.53-1.77h0A1.53,1.53,0,0,1,95,155h.06l10.2.12a1.3,1.3,0,0,1,1,.5,6.29,6.29,0,0,1,5.25,4.84c1,3.56-.5,7.33-3.37,8.39L101,171.42h-.22Z"/><path class="cls-7" d="M51.61,160.27c-34.26-5.71-34.26-44-34.26-44"/><path class="cls-8" d="M58.42,171H58.2l-7.12-2.59c-2.87-1.06-4.4-4.84-3.37-8.39A6.28,6.28,0,0,1,53,155.15a1.33,1.33,0,0,1,1-.5l10.21-.13h.06a1.54,1.54,0,0,1,1.34,1.75h0a1.75,1.75,0,0,1-1.53,1.78l-1.9,0a3.71,3.71,0,0,1,.84.44l9,3.28a1.79,1.79,0,0,1,.88,2.21.09.09,0,0,0,0,.09A1.52,1.52,0,0,1,71,165.23l-5.4-2a11.06,11.06,0,0,1,0,1.41L71.84,167a1.79,1.79,0,0,1,.87,2.21s0,.1,0,.13a1.51,1.51,0,0,1-1.84,1.06l-6.28-2.31a5.59,5.59,0,0,1-.84,1.25l5.24,1.9a1.79,1.79,0,0,1,.88,2.22c0,.06,0,.09,0,.12A1.51,1.51,0,0,1,68,174.65Z"/><path class="cls-9" d="M73.48,58.68c0,4.25-4.52,7.69-10.09,7.69s-10.11-3.44-10.11-7.69"/><path class="cls-9" d="M102.4,58.68c0,4.25-4.51,7.69-10.07,7.69s-10.12-3.44-10.12-7.69"/><path class="cls-10" d="M87.57,48.14C97.69,44,102.33,51,102.33,51"/><path class="cls-10" d="M68.15,48c-10.71-4.14-14.3,3-14.3,3"/><path class="cls-11" d="M94,77.18s-1,4.11-14.47,4.25-16.18-4.25-16.18-4.25Z"/></svg>