<svg id="Layer_1" data-name="Layer 1" xmlns="http://www.w3.org/2000/svg" viewBox="0 0 229.9 236.92"><defs><style>.cls-1{fill:#faad1c;}.cls-2{fill:#ffcc04;}.cls-12,.cls-16,.cls-3,.cls-7,.cls-9{fill:none;stroke-linecap:round;stroke-miterlimit:10;}.cls-3{stroke:#138ab2;stroke-width:5.99px;}.cls-4{fill:#a1cbec;}.cls-5{fill:#0aa0cc;}.cls-6{fill:#fff;}.cls-7{stroke:#0d4061;stroke-width:1.97px;}.cls-8{fill:#0d4061;}.cls-9{stroke:#231f20;stroke-width:1.18px;}.cls-10{fill:#5754a3;}.cls-11{fill:#504b48;}.cls-12{stroke:#198ab1;stroke-width:4.31px;}.cls-13{fill:#02a1cd;}.cls-14{fill:#ec1e52;}.cls-15{fill:#514c49;}.cls-16{stroke:#0d4060;stroke-width:1.83px;}</style></defs><polygon class="cls-1" points="8.67 234.84 16.44 234.84 16.44 201.4 78.96 201.4 78.96 234.84 86.89 234.84 86.89 198.28 86.76 198.28 86.76 191.14 8.67 191.14 8.67 198.37 8.67 234.84"/><path class="cls-2" d="M11.11,175.23H83.82a9.09,9.09,0,0,1,9.09,9.09h0a9.09,9.09,0,0,1-9.09,9.09H11.11A9.09,9.09,0,0,1,2,184.32H2A9.09,9.09,0,0,1,11.11,175.23Z"/><path class="cls-3" d="M64.08,100.89s15.16,12.82,27.37,12.82c18.87,0,27.38-18.86,27.38-18.86"/><path class="cls-4" d="M114,93.21a5.82,5.82,0,0,0,1.3,6.35c2.22,2.3,5.73,2.55,7.8.55l5.12-4.94a.52.52,0,0,1,.1-.11l.06,0,6.9-6.67a1.53,1.53,0,0,0-2.11-2.18l-3.76,3.63a6.3,6.3,0,0,0-.54-1.22l4.5-4.35a1.44,1.44,0,0,0-.07-2,1.46,1.46,0,0,0-2-.15l-4.51,4.36a5.88,5.88,0,0,0-1.06-.54l3.87-3.74a1.53,1.53,0,0,0-2.11-2.19L121,86.15a4.44,4.44,0,0,0-.7.53l.83-1.61a1.56,1.56,0,0,0-.66-2h0a1.36,1.36,0,0,0-1.94.46"/><rect class="cls-5" x="5.51" y="4.56" width="93" height="178.88" rx="33.09" transform="translate(6.58 -3.35) rotate(3.94)"/><path class="cls-6" d="M49.37,51.42a9.21,9.21,0,0,1,18.38,1.27"/><path class="cls-6" d="M82,53.67a9.21,9.21,0,1,1,18.38,1.27"/><line class="cls-7" x1="48.22" y1="38.85" x2="65.35" y2="34.93"/><line class="cls-7" x1="100.42" y1="42.21" x2="86.36" y2="36.16"/><path class="cls-8" d="M57.48,52a4,4,0,0,1,8,.55"/><path class="cls-8" d="M90.11,54.23a4,4,0,1,1,8,.55"/><ellipse class="cls-9" cx="57.7" cy="49.55" rx="8.51" ry="12.52" transform="translate(4.88 104.27) rotate(-86.67)"/><ellipse class="cls-9" cx="91.89" cy="51.59" rx="8.51" ry="12.52" transform="translate(35.04 140.33) rotate(-86.67)"/><path class="cls-9" d="M70.15,51.12s5.45-6.16,9.43.64"/><polyline class="cls-5" points="32.52 174.45 48.6 230.28 55.49 229.12 52.79 177.99"/><polyline class="cls-5" points="60.63 178.87 74.84 228.22 81.73 227.06 79.04 175.93"/><path class="cls-8" d="M83.32,62.43A1.59,1.59,0,0,1,84.43,65c-1.6,2.07-4.88,4.68-10.94,3.93s-8.38-3.84-9.32-6.1a1.61,1.61,0,0,1,1.64-2.23Z"/><path class="cls-3" d="M16.07,102.22s4.19,24.07,15.54,28.56,27.47-.64,27.47-.64"/><path class="cls-4" d="M56,124.76a5.83,5.83,0,0,0-3,5.76c.29,3.18,2.87,5.58,5.74,5.32l7.08-.64.15,0h.07l9.56-.86a1.52,1.52,0,0,0-.27-3l-5.2.46a6.68,6.68,0,0,0,.33-1.28l6.24-.56a1.53,1.53,0,0,0-.27-3l-6.24.56a5.69,5.69,0,0,0-.5-1.09l5.37-.48a1.53,1.53,0,0,0-.28-3l-8.93.8a4.32,4.32,0,0,0-.88,0l1.66-.74a1.56,1.56,0,0,0,.73-2h0a1.35,1.35,0,0,0-1.79-.85"/><polygon class="cls-10" points="56.15 234.85 50.23 235.85 43.93 214.36 54.55 212.57 56.15 234.85"/><path class="cls-11" d="M70.39,232.61A10.38,10.38,0,0,0,49.9,235.9"/><polygon class="cls-10" points="82.72 233.88 76.8 234.87 70.49 213.38 80.86 211.64 82.72 233.88"/><path class="cls-11" d="M96.21,231.86A10.38,10.38,0,0,0,75.69,235"/><path class="cls-12" d="M152.07,127.64s-9.5,30.14-33.53,6.89"/><path class="cls-4" d="M120.61,128.08c.91,1.67.56,4.09-1.08,6.06-2.08,2.5-5.46,3.34-7.51,1.86l-5.08-3.64a.39.39,0,0,0-.1-.08l-.06,0-6.84-4.92a1.29,1.29,0,0,1,0-1.89,1.53,1.53,0,0,1,2-.48l3.73,2.67a7.67,7.67,0,0,1,.49-1.21l-4.46-3.21a1.29,1.29,0,0,1,0-1.89,1.54,1.54,0,0,1,2-.49l4.47,3.21a9.52,9.52,0,0,1,1-.68l-3.84-2.76a1.3,1.3,0,0,1,0-1.89,1.54,1.54,0,0,1,2-.48l6.39,4.59a4.2,4.2,0,0,1,.7.36l-.85-1.33a1.56,1.56,0,0,1,.59-2h0A1.27,1.27,0,0,1,116,120"/><polygon class="cls-1" points="141.19 235.16 148.96 235.16 148.96 201.71 211.47 201.71 211.47 235.16 219.41 235.16 219.41 198.59 219.28 198.59 219.28 191.46 141.19 191.46 141.19 198.69 141.19 235.16"/><path class="cls-2" d="M143.63,175.55h72.7a9.08,9.08,0,0,1,9.1,9.08h0a9.09,9.09,0,0,1-9.1,9.09h-72.7a9.09,9.09,0,0,1-9.09-9.09h0A9.08,9.08,0,0,1,143.63,175.55Z"/><path class="cls-13" d="M227.15,105v-1.37c0-33-22.53-59.71-50.34-59.71s-50.34,26.74-50.34,59.71V105a50.78,50.78,0,0,0-.49,6.73v27.91c0,23,19.22,43.9,38.44,43.9h27.32c19.22,0,35.71-21,35.71-43.9V111.71A38.9,38.9,0,0,0,227.15,105Z"/><polyline class="cls-13" points="149 166.8 142.66 226.9 147.54 227.97 166.27 171"/><polygon class="cls-14" points="148.42 226.9 142.37 225.14 145.69 197.92 156.61 200.46 148.42 226.9"/><path class="cls-15" d="M148.42,229.34a9.3,9.3,0,0,0-18.15-4.1"/><polyline class="cls-13" points="173.88 171.78 167.54 231.88 172.42 232.95 191.15 175.97"/><polygon class="cls-14" points="173.3 231.88 167.25 230.22 170.56 202.9 181.49 205.44 173.3 231.88"/><path class="cls-15" d="M173.3,234.31a9.3,9.3,0,0,0-18.15-4.09"/><path class="cls-12" d="M210.78,125s-1.23,31.58-30.54,15.49"/><path class="cls-4" d="M178.45,134.58c1.33,1.36,1.62,3.8.56,6.12-1.34,3-4.39,4.66-6.76,3.78l-5.85-2.18-.12-.05-.06,0-7.9-2.94a1.3,1.3,0,0,1-.49-1.83,1.54,1.54,0,0,1,1.77-1l4.3,1.6a6.57,6.57,0,0,1,.15-1.3l-5.15-1.92a1.3,1.3,0,0,1-.49-1.83,1.54,1.54,0,0,1,1.77-1l5.16,1.92a7,7,0,0,1,.8-.92l-4.43-1.65a1.3,1.3,0,0,1-.49-1.83,1.54,1.54,0,0,1,1.77-1l7.38,2.75a4.08,4.08,0,0,1,.77.17L170,130.42a1.55,1.55,0,0,1,.05-2h0a1.27,1.27,0,0,1,1.83-.41"/><path class="cls-8" d="M149.19,105.16a1.87,1.87,0,0,1-1.58-2.87c1.52-2.39,4.63-5.38,10.62-5.22s8.66,3.09,9.82,5.38a1.86,1.86,0,0,1-1.67,2.71Z"/><path class="cls-16" d="M182.66,77.35s-7.42,3.54-11.56-3.8"/><path class="cls-16" d="M135.9,76.82s6.51,2,10.1-3.27"/><path class="cls-6" d="M131.94,91.1a9.94,9.94,0,0,1,19.87,0"/><path class="cls-6" d="M162.29,91.1a9.93,9.93,0,0,1,19.86,0"/><path class="cls-8" d="M169,88.83a6.81,6.81,0,0,0,3.37-7.64l-.42,0a9.62,9.62,0,0,0-9.4,7.56A6.31,6.31,0,0,0,169,88.83Z"/><path class="cls-8" d="M138.68,88.83a6.81,6.81,0,0,0,3.37-7.64l-.42,0a9.62,9.62,0,0,0-9.4,7.56A6.31,6.31,0,0,0,138.68,88.83Z"/></svg>