<svg id="Layer_1" data-name="Layer 1" xmlns="http://www.w3.org/2000/svg" viewBox="0 0 258.44 236.92"><defs><style>.cls-1{fill:#faad1c;}.cls-2{fill:#ffcc04;}.cls-11,.cls-15,.cls-3,.cls-5{fill:none;stroke-linecap:round;stroke-miterlimit:10;}.cls-3{stroke:#188ab2;stroke-width:4.5px;}.cls-4{fill:#a2cced;}.cls-5{stroke:#198ab1;stroke-width:4.94px;}.cls-6{fill:#a1cbec;}.cls-7{fill:#02a1cd;}.cls-8{fill:#5753a4;}.cls-9{fill:#514c49;}.cls-10{fill:#fff;}.cls-11{stroke:#0d4061;stroke-width:2.46px;}.cls-12{fill:#0d4061;}.cls-13{fill:#56c6d0;}.cls-14{fill:#0d4161;}.cls-15{stroke:#0d4060;stroke-width:1.96px;}</style></defs><polygon class="cls-1" points="154.62 233.44 162.58 233.44 162.58 199.16 226.66 199.16 226.66 233.44 234.79 233.44 234.79 195.96 234.66 195.96 234.66 188.65 154.62 188.65 154.62 196.06 154.62 233.44"/><path class="cls-2" d="M157.12,172.34h74.52a9.32,9.32,0,0,1,9.32,9.32h0a9.31,9.31,0,0,1-9.32,9.31H157.12a9.32,9.32,0,0,1-9.32-9.31h0A9.32,9.32,0,0,1,157.12,172.34Z"/><path class="cls-3" d="M95.24,106.34s16.91,7.83,22.67,6.16c7.8-2.25,19.53-23.82,19.16-23.85"/><path class="cls-4" d="M151.26,84.93a1.44,1.44,0,0,0-.31-2l-.13-.08a1.68,1.68,0,0,0-2.22-.1l-3.45,3.67a8,8,0,0,0-.76-1.22l4.13-4.41a1.43,1.43,0,0,0-.35-2l-.06,0a1.68,1.68,0,0,0-2.22-.11l-4.14,4.4a9.38,9.38,0,0,0-1.23-.51l3.53-3.78a1.42,1.42,0,0,0-.34-2l-.08,0a1.67,1.67,0,0,0-2.21-.11l-5.93,6.32a4.22,4.22,0,0,0-.67.53l.65-1.59a1.71,1.71,0,0,0-1-2h0a1.4,1.4,0,0,0-2,.36l-.09.15L129,89.08a1.37,1.37,0,0,0,.12,1.1c-.63,2,.28,4.54,2.45,6.3,2.77,2.25,6.6,2.44,8.5.4l4.68-5,.1-.11.06,0Z"/><path class="cls-5" d="M119.27,130s23.22,23.28,41.38,9.56"/><path class="cls-6" d="M123.35,120.45a1.3,1.3,0,0,0-1.82-.57h0a1.5,1.5,0,0,0-.76,1.87l.69,1.59a4.77,4.77,0,0,0-.64-.55l-5.77-6.36a1.47,1.47,0,0,0-2.16,2l3.47,3.82a6.08,6.08,0,0,0-1.06.44l-4-4.44a1.47,1.47,0,0,0-2.16,2l4,4.44a6.74,6.74,0,0,0-.6,1.12l-3.36-3.7a1.46,1.46,0,0,0-2.16,2l6.18,6.81,0,.05a1.09,1.09,0,0,0,.1.11l4.57,5.05a5.33,5.33,0,0,0,7.49,0,5.56,5.56,0,0,0,1.64-6Z"/><path class="cls-7" d="M257.37,102c-1.72,35.94-34.46,82.44-65.15,83.64C158,187,133.5,132.87,135.2,96.93s29.43-43.07,63.15-41.48S259.06,66,257.37,102Z"/><polygon class="cls-1" points="22.75 233.45 30.71 233.45 30.71 199.17 94.8 199.17 94.8 233.45 102.92 233.45 102.92 195.97 102.8 195.97 102.8 188.66 22.75 188.66 22.75 196.07 22.75 233.45"/><path class="cls-2" d="M25.25,172.35H99.77a9.31,9.31,0,0,1,9.32,9.31h0A9.32,9.32,0,0,1,99.77,191H25.25a9.32,9.32,0,0,1-9.32-9.32h0A9.32,9.32,0,0,1,25.25,172.35Z"/><path class="cls-7" d="M62.2,3.8C28.88,3.8,1.88,12.37,1.88,49A206.66,206.66,0,0,0,4.29,76.8,263.94,263.94,0,0,0,10,107.09c1.13,4.37,2.47,8.2,2,12.79a35.08,35.08,0,0,1-3.15,11.79c-4.65,9.79-5.88,19.86-2.44,30.3,2.28,6.94,7.82,12.46,14,15.93,12.83,7.19,28.15,6.82,42.3,6.82,15.54,0,33.56-1.24,46.31-11.62a35.19,35.19,0,0,0,11.18-16.66,61.56,61.56,0,0,0,2.15-11.8c.67-5.57-.81-10.38-2.83-15.44-3-7.58-6.49-17.82-4.49-26.14,4.64-19.39,7.55-44.94,7.55-54.77,0-36.61-27-44.44-60.35-44.44"/><polyline class="cls-7" points="75.83 179.61 89 222.59 96.58 221.41 96.03 176.44"/><polyline class="cls-7" points="45.97 181.12 59.16 224.24 66.72 223.06 66.19 178.11"/><polygon class="cls-8" points="68.23 233.77 61.37 233.51 53.84 207.1 66.53 205.42 68.23 233.77"/><polygon class="cls-8" points="97.8 231.27 90.94 231.01 83.41 204.61 96.35 202.89 97.8 231.27"/><path class="cls-9" d="M60.65,235c-1-6.53,3.15-12.6,9.29-13.56s12,3.56,13,10.09"/><path class="cls-9" d="M90.75,233.3c-1-6.53,3.14-12.6,9.29-13.56s12,3.56,13,10.09"/><path class="cls-3" d="M24.76,122.71s-3.12,18.38,0,23.5C29,153.15,46,156.53,46,156.16"/><path class="cls-4" d="M59.59,169.22a1.43,1.43,0,0,0,1.85-.82.83.83,0,0,0,0-.15,1.67,1.67,0,0,0-.48-2.16l-4.45-2.37a7.41,7.41,0,0,0,1-1.05l5.35,2.83a1.43,1.43,0,0,0,1.83-.86.64.64,0,0,0,0-.07,1.68,1.68,0,0,0-.48-2.17l-5.33-2.84a9.67,9.67,0,0,0,.16-1.33l4.58,2.42a1.42,1.42,0,0,0,1.82-.85l0-.08a1.68,1.68,0,0,0-.47-2.17l-7.66-4.06a4.83,4.83,0,0,0-.68-.51l1.7.21A1.71,1.71,0,0,0,60,151.67h0a1.41,1.41,0,0,0-.86-1.79l-.17,0-9.24-1a1.37,1.37,0,0,0-1,.4c-2.08-.09-4.31,1.46-5.44,4-1.44,3.26-.62,7,1.85,8.31l6,3.21.13,0,.06.05Z"/><path class="cls-10" d="M207.94,102.26a10.56,10.56,0,1,0-21.12,0Z"/><path class="cls-10" d="M178.14,102.26a10.56,10.56,0,1,0-21.12,0Z"/><path class="cls-11" d="M197.53,82.54s1.43,6.85,8.94,5"/><path class="cls-11" d="M165.24,83s.75,6.74-7,6.38"/><path class="cls-12" d="M157.35,99.73a6.58,6.58,0,0,0,9.26-7.94A10.54,10.54,0,0,0,157.35,99.73Z"/><path class="cls-12" d="M186.82,99.73a6.59,6.59,0,0,0,9.27-7.94A10.56,10.56,0,0,0,186.82,99.73Z"/><path class="cls-12" d="M192,116.07a2.46,2.46,0,0,0,1.52-4.4c-2.17-1.72-5.63-3.27-11-3.16s-8.46,1.62-10.31,3.26a2.47,2.47,0,0,0,1.65,4.3Z"/><path class="cls-5" d="M232.26,143.84s-18.11,8.4-40.88-12.1"/><path class="cls-6" d="M192.52,119.44a1.31,1.31,0,0,0-1.83-.54h0a1.51,1.51,0,0,0-.74,1.88l.72,1.58a5.47,5.47,0,0,0-.65-.54l-5.85-6.29a1.46,1.46,0,0,0-2.13,2l3.51,3.78a5.77,5.77,0,0,0-1.06.46l-4.08-4.4a1.46,1.46,0,0,0-2.13,2l4.08,4.4a5.75,5.75,0,0,0-.58,1.13l-3.41-3.66a1.46,1.46,0,0,0-2.13,2l6.25,6.73.06.05.09.11,4.64,5a5.32,5.32,0,0,0,7.49-.12,5.58,5.58,0,0,0,1.57-6Z"/><polyline class="cls-7" points="166.42 164.34 176.06 155.88 185.26 173.12 166.73 211.24 159.41 208.96 166.42 164.34"/><polyline class="cls-7" points="189.29 171.02 185.25 213.21 192.68 215.09 209.13 176"/><polygon class="cls-13" points="189.54 225.04 184.72 219.88 186.03 202.36 196.61 205.7 189.54 225.04"/><polygon class="cls-13" points="163.56 220.93 157.28 218.1 160.94 198.32 171.23 202.04 163.56 220.93"/><path class="cls-9" d="M143.21,216.19c1.49-5.91,7.21-9.56,12.77-8.15s8.86,7.32,7.37,13.23"/><path class="cls-9" d="M168.65,220.11c1.49-5.9,7.21-9.56,12.77-8.15s8.86,7.32,7.37,13.23"/><path class="cls-10" d="M64.7,63.41a10,10,0,0,1,20,0"/><path class="cls-10" d="M90.6,63.41a10,10,0,0,1,20,0"/><path class="cls-14" d="M73.26,63.41a4.32,4.32,0,1,1,8.63,0"/><path class="cls-14" d="M99.16,63.41a4.32,4.32,0,1,1,8.64,0"/><path class="cls-14" d="M97.43,72.53a1.74,1.74,0,0,1,1.28,2.91c-1.83,2-5.36,4.39-11.82,4.26s-9.51-2.43-11-4.39a1.74,1.74,0,0,1,1.39-2.78Z"/><path class="cls-15" d="M77.21,44s-4,7.14-12.78,3.8"/><path class="cls-15" d="M98.9,44s2.06,6.61,11.16,4.19"/></svg>