<svg id="Layer_1" data-name="Layer 1" xmlns="http://www.w3.org/2000/svg" viewBox="0 0 226.12 236.92"><defs><style>.cls-1,.cls-10,.cls-16,.cls-5,.cls-8{fill:none;stroke-linecap:round;stroke-miterlimit:10;}.cls-1{stroke:#198ab1;stroke-width:4.14px;}.cls-2{fill:#a1cbec;}.cls-3{fill:#faad1c;}.cls-4{fill:#ffcc04;}.cls-5{stroke:#138ab2;stroke-width:4.68px;}.cls-6{fill:#0aa0cc;}.cls-7{fill:#fff;}.cls-8{stroke:#0d4061;stroke-width:1.96px;}.cls-9{fill:#0d4061;}.cls-10{stroke:#231f20;stroke-width:1.18px;}.cls-11{fill:#56c6d0;}.cls-12{fill:#504b48;}.cls-13{fill:#02a1cd;}.cls-14{fill:#ec1e52;}.cls-15{fill:#514c49;}.cls-16{stroke:#0d4060;stroke-width:1.75px;}</style></defs><path class="cls-1" d="M150.17,127.22s-9.12,28.94-32.2,6.62"/><path class="cls-2" d="M120,127.65a5.32,5.32,0,0,1-1,5.81c-2,2.41-5.25,3.21-7.22,1.79l-4.87-3.49a.39.39,0,0,0-.1-.08s0,0,0,0l-6.58-4.72a1.25,1.25,0,0,1,0-1.81,1.48,1.48,0,0,1,1.89-.47l3.58,2.57a6,6,0,0,1,.47-1.16L101.77,123a1.25,1.25,0,0,1,0-1.81,1.48,1.48,0,0,1,1.89-.47l4.29,3.08a6.65,6.65,0,0,1,1-.65l-3.69-2.65a1.26,1.26,0,0,1,0-1.82,1.47,1.47,0,0,1,1.89-.46l6.14,4.41a3.28,3.28,0,0,1,.67.35l-.81-1.28a1.5,1.5,0,0,1,.56-1.88h0a1.23,1.23,0,0,1,1.8.08"/><polygon class="cls-3" points="8.31 230.16 15.77 230.16 15.77 198.05 75.8 198.05 75.8 230.16 83.42 230.16 83.42 195.05 83.3 195.05 83.3 188.2 8.31 188.2 8.31 195.14 8.31 230.16"/><path class="cls-4" d="M10.66,172.92H80.47a8.73,8.73,0,0,1,8.73,8.73h0a8.72,8.72,0,0,1-8.73,8.72H10.66a8.73,8.73,0,0,1-8.74-8.72h0A8.73,8.73,0,0,1,10.66,172.92Z"/><polygon class="cls-3" points="139.72 229.46 147.18 229.46 147.18 197.35 207.21 197.35 207.21 229.46 214.82 229.46 214.82 194.35 214.7 194.35 214.7 187.5 139.72 187.5 139.72 194.44 139.72 229.46"/><path class="cls-4" d="M142.06,172.22h69.81A8.73,8.73,0,0,1,220.6,181h0a8.72,8.72,0,0,1-8.73,8.72H142.06a8.72,8.72,0,0,1-8.73-8.72h0A8.73,8.73,0,0,1,142.06,172.22Z"/><path class="cls-5" d="M64.32,105.7s18.93,9.55,31,8S119,99.79,119,99.79"/><path class="cls-2" d="M113.73,96.57a5.8,5.8,0,0,0,.19,6.46c1.8,2.64,5.21,3.48,7.59,1.86l5.87-4,.12-.09.06,0,7.93-5.39a1.53,1.53,0,0,0-1.71-2.51l-4.31,2.94a6.43,6.43,0,0,0-.33-1.29L134.31,91a1.53,1.53,0,0,0-1.71-2.52L127.43,92a6,6,0,0,0-1-.71l4.45-3a1.46,1.46,0,0,0,.27-2,1.44,1.44,0,0,0-2-.48l-7.41,5a4.11,4.11,0,0,0-.78.4l1.09-1.45a1.54,1.54,0,0,0-.31-2.07h0a1.36,1.36,0,0,0-2,.12"/><rect class="cls-6" x="6.81" y="2.98" width="92.82" height="178.54" rx="33.03" transform="translate(6.47 -3.44) rotate(3.94)"/><path class="cls-7" d="M50.58,49.75A9.2,9.2,0,0,1,68.93,51"/><path class="cls-7" d="M83.14,52a9.2,9.2,0,0,1,18.35,1.26"/><line class="cls-8" x1="47.57" y1="37.21" x2="64.66" y2="33.29"/><line class="cls-8" x1="101.53" y1="39.56" x2="88.42" y2="34.87"/><path class="cls-9" d="M58.68,50.31a4,4,0,0,1,7.94.55"/><path class="cls-9" d="M91.24,52.56a4,4,0,1,1,7.94.54"/><ellipse class="cls-10" cx="58.9" cy="47.88" rx="8.5" ry="12.49" transform="translate(7.67 103.9) rotate(-86.67)"/><ellipse class="cls-10" cx="93.62" cy="50.09" rx="8.5" ry="12.49" transform="translate(38.17 140.63) rotate(-86.67)"/><path class="cls-10" d="M71.33,49.45s5.43-6.14,9.41.64"/><polyline class="cls-6" points="34.91 174.79 54.75 229.27 61.53 227.65 55.34 176.92"/><polyline class="cls-6" points="62.99 174.14 80.53 222.3 87.31 220.68 81.12 169.95"/><path class="cls-5" d="M20.4,99.87s15.83,18.55,27.86,16.63S71.53,102,71.53,102"/><path class="cls-2" d="M66.19,98.91a5.8,5.8,0,0,0,.37,6.46c1.86,2.59,5.3,3.33,7.63,1.65L80,102.88l.12-.1.06,0,7.78-5.6a1.53,1.53,0,0,0-1.78-2.46l-4.23,3a5.76,5.76,0,0,0-.37-1.27l5.08-3.66a1.52,1.52,0,0,0-1.77-2.46L79.76,94a6.37,6.37,0,0,0-1-.68l4.36-3.14a1.52,1.52,0,0,0-1.77-2.46L74.1,92.94a4.13,4.13,0,0,0-.77.42l1-1.48A1.54,1.54,0,0,0,74,89.82h0A1.35,1.35,0,0,0,72,90"/><polygon class="cls-11" points="62.59 233.31 56.76 234.71 49.01 213.74 59.47 211.23 62.59 233.31"/><path class="cls-12" d="M76.61,230.1a10.36,10.36,0,1,0-20.18,4.68"/><polygon class="cls-11" points="88.76 227.4 82.93 228.8 75.18 207.84 85.38 205.39 88.76 227.4"/><path class="cls-12" d="M102.05,224.47A10.36,10.36,0,1,0,81.83,229"/><path class="cls-13" d="M222.26,105.47v-1.31c0-31.67-21.64-57.34-48.34-57.34s-48.33,25.67-48.33,57.34v1.31a48.4,48.4,0,0,0-.47,6.46v26.79c0,22.11,18.45,42.16,36.91,42.16h26.23c18.45,0,34.28-20.14,34.28-42.16V111.93A36.78,36.78,0,0,0,222.26,105.47Z"/><polyline class="cls-13" points="147.22 164.82 141.14 222.53 145.82 223.56 163.81 168.85"/><polygon class="cls-14" points="146.66 222.53 140.85 220.84 144.04 194.71 154.53 197.14 146.66 222.53"/><path class="cls-15" d="M146.66,224.87a8.93,8.93,0,1,0-17.42-3.93"/><polyline class="cls-13" points="171.11 169.6 165.02 227.31 169.71 228.34 187.69 173.63"/><polygon class="cls-14" points="170.55 227.31 164.74 225.72 167.93 199.49 178.42 201.92 170.55 227.31"/><path class="cls-15" d="M170.55,229.65a8.93,8.93,0,1,0-17.42-3.93"/><path class="cls-1" d="M206.54,124.64s-1.18,30.32-29.32,14.87"/><path class="cls-2" d="M175.5,133.88a5.34,5.34,0,0,1,.54,5.89c-1.29,2.84-4.21,4.47-6.49,3.63l-5.62-2.1-.11-.05h-.07l-7.58-2.83a1.24,1.24,0,0,1-.47-1.75,1.47,1.47,0,0,1,1.7-.95l4.13,1.54a5.4,5.4,0,0,1,.15-1.25l-5-1.84a1.25,1.25,0,0,1-.47-1.76,1.48,1.48,0,0,1,1.7-1l4.95,1.85a6.56,6.56,0,0,1,.77-.89l-4.26-1.59a1.25,1.25,0,0,1-.47-1.75,1.49,1.49,0,0,1,1.7-.95l7.09,2.64a3.76,3.76,0,0,1,.74.16l-1.12-1a1.51,1.51,0,0,1,0-2h0a1.23,1.23,0,0,1,1.76-.39"/><path class="cls-9" d="M147.4,105.64a1.79,1.79,0,0,1-1.51-2.75c1.46-2.3,4.44-5.17,10.2-5s8.31,3,9.43,5.17a1.8,1.8,0,0,1-1.61,2.6Z"/><path class="cls-16" d="M179.54,78.94s-7.12,3.39-11.1-3.65"/><path class="cls-16" d="M134.64,78.43s6.25,1.93,9.7-3.14"/><path class="cls-7" d="M130.84,92.14a9.54,9.54,0,1,1,19.08,0"/><path class="cls-7" d="M160,92.14a9.54,9.54,0,1,1,19.07,0"/><path class="cls-9" d="M166.59,90.2a6.75,6.75,0,0,0,3.33-7.58l-.41,0a9.55,9.55,0,0,0-9.32,7.51A6.29,6.29,0,0,0,166.59,90.2Z"/><path class="cls-9" d="M137.35,90.2a6.76,6.76,0,0,0,3.34-7.58l-.42,0A9.54,9.54,0,0,0,131,90.11,6.27,6.27,0,0,0,137.35,90.2Z"/><rect class="cls-9" x="65.95" y="60.74" width="20.44" height="3.27" rx="1.63" transform="translate(3.76 -4.32) rotate(3.33)"/></svg>