<svg id="Layer_1" data-name="Layer 1" xmlns="http://www.w3.org/2000/svg" viewBox="0 0 279.25 236.92"><defs><style>.cls-1{fill:#edebaa;}.cls-14,.cls-2,.cls-8{fill:none;stroke-linecap:round;stroke-miterlimit:10;}.cls-2{stroke:#198ab1;stroke-width:4.66px;}.cls-3{fill:#a1cbec;}.cls-4{fill:#7d3a1b;}.cls-5{fill:#572513;}.cls-6{fill:#0aa0cc;}.cls-7{fill:#fff;}.cls-8{stroke:#0d4061;stroke-width:2.53px;}.cls-9{fill:#0d4061;}.cls-10{fill:#57c4cf;}.cls-11{fill:#504b48;}.cls-12{fill:#00a1cd;}.cls-13{fill:#ed1651;}.cls-14{stroke:#0d4060;stroke-width:1.97px;}.cls-15{fill:#0d4060;}</style></defs><path class="cls-1" d="M214.22,58.53l.55,1.74a.48.48,0,0,0,.45.33H217l-1.44,1.08a.47.47,0,0,0-.17.53l.55,1.74-1.44-1.07a.47.47,0,0,0-.55,0L212.5,64l.56-1.74a.49.49,0,0,0-.17-.53l-1.45-1.08h1.79a.46.46,0,0,0,.44-.33Z"/><path class="cls-2" d="M93.1,120.91s2.87,20,36.2,27.56"/><path class="cls-3" d="M128.5,142.29c-1.89.19-3.69,1.89-4.39,4.41-.9,3.21.32,6.56,2.7,7.44l5.87,2.19.12,0,.06,0,7.93,2.95c.62.23,1.32-.27,1.55-1.1a1.59,1.59,0,0,0-.7-1.95l-4.32-1.61a6.61,6.61,0,0,0,.72-1.11l5.18,1.92c.62.23,1.32-.26,1.55-1.1a1.59,1.59,0,0,0-.71-2l-5.17-1.92a7.56,7.56,0,0,0,0-1.26l4.45,1.66c.62.23,1.32-.27,1.55-1.11a1.58,1.58,0,0,0-.71-1.94l-7.4-2.76a3.34,3.34,0,0,0-.69-.38l1.58-.06a1.58,1.58,0,0,0,1.28-1.62h0c0-.87-.47-1.56-1.13-1.54"/><path class="cls-4" d="M145.94,129.57a.92.92,0,0,0,.19.59,8.05,8.05,0,0,1,1.53,5.31,6.89,6.89,0,0,1-.32,1.43q-3.84,11.86-7.7,23.7a4.15,4.15,0,0,1-1.5,2.18,1.82,1.82,0,0,1-1.73.27l-9.17-3.14a1.83,1.83,0,0,1-1.33-1.65,5.64,5.64,0,0,1,.15-2.17q3.84-12,7.78-24a7.09,7.09,0,0,1,4.81-4.46l4-8c.36-.87.71-1.74,1.07-2.65-.74-.76-.56-1.4.36-1.75.27-.11.43-.56.66-.89l-.55-.35.25-.78,5.41,1.85-.26.79-.48-.08c-.22.48-.44.88,0,1.42s0,1.21-.89,1.32c-.36,1.45-.73,2.91-1.09,4.37Z"/><polygon class="cls-5" points="140.97 156.52 127.4 151.88 133 134.66 146.57 139.3 140.97 156.52"/><path class="cls-6" d="M2.5,92.34c1.34,40.83,33.75,97.25,69.58,96,37.74-1.31,64.47-58.95,63.12-99.79s-31.36-49.36-68-48.09-66,11-64.7,51.87"/><path class="cls-7" d="M124.63,93.51a11.56,11.56,0,1,0-23.09.8"/><path class="cls-7" d="M90.26,94.7a11.55,11.55,0,1,0-23.08.8"/><path class="cls-8" d="M119,77.72s-4.25-6.52-11.09-1.41"/><path class="cls-8" d="M67.21,80.5S69.93,73,77.79,76.2"/><path class="cls-9" d="M81.77,103.49s2.29,8.58,15.32,7.44,13.53-9.4,13.53-9.4Z"/><polyline class="cls-6" points="82.72 233.66 87.78 181.15 71.71 181.15 78.28 235.17 82.17 231.3"/><polygon class="cls-10" points="74.94 207.58 85.51 207.58 82.91 234.74 77.53 234.74 74.94 207.58"/><path class="cls-11" d="M94.4,235.17c0-4.07-3.8-7.36-8.47-7.36s-8.48,3.29-8.48,7.36"/><polyline class="cls-6" points="62.1 233.66 67.15 181.15 51.09 181.15 57.65 235.17 61.54 231.3"/><polygon class="cls-10" points="54.31 207.58 64.89 207.58 62.29 234.74 56.91 234.74 54.31 207.58"/><path class="cls-11" d="M73.65,235.17c0-4.07-3.79-7.36-8.47-7.36s-8.47,3.29-8.47,7.36"/><path class="cls-9" d="M75.38,95.2A5.82,5.82,0,1,1,87,94.72"/><path class="cls-9" d="M109.72,94.24a5.82,5.82,0,1,1,11.63-.48"/><path class="cls-2" d="M37.82,136.08s21.46,36.2,46.87,5.71"/><path class="cls-3" d="M81.38,136.87a5.8,5.8,0,0,0,2.08,5.94c2.47,2.17,6,2.43,7.72.58l4.39-4.55.09-.11,0,0,5.92-6.15a1.35,1.35,0,0,0-.33-1.91,1.5,1.5,0,0,0-2-.15l-3.22,3.35a7.06,7.06,0,0,0-.69-1.14l3.86-4a1.35,1.35,0,0,0-.33-1.91,1.51,1.51,0,0,0-2-.15l-3.86,4a8.6,8.6,0,0,0-1.12-.51l3.32-3.45a1.35,1.35,0,0,0-.33-1.91,1.5,1.5,0,0,0-2-.15l-5.53,5.75a3.62,3.62,0,0,0-.63.48l.61-1.49a1.6,1.6,0,0,0-.9-1.87h0a1.26,1.26,0,0,0-1.84.41"/><path class="cls-3" d="M142.37,150.54l.79.23a1.08,1.08,0,0,0,1.35-.73l.27-.87a1.14,1.14,0,0,0-.73-1.43l-1-.3c-.63-.19-1.3.35-1.48,1.2A1.6,1.6,0,0,0,142.37,150.54Z"/><path class="cls-3" d="M140.23,159.23l.47.14a.91.91,0,0,0,1.15-.65c.1-.41.21-.82.33-1.22a1,1,0,0,0-.62-1.17l-.67-.2c-.63-.19-1.3.35-1.48,1.21A1.58,1.58,0,0,0,140.23,159.23Z"/><path class="cls-3" d="M141.48,154.94l1.52.46a1.23,1.23,0,0,0,1.53-.84l.18-.59a1.28,1.28,0,0,0-.83-1.6l-1.74-.52c-.64-.2-1.31.34-1.49,1.2A1.58,1.58,0,0,0,141.48,154.94Z"/><path class="cls-2" d="M204.09,122.15s-1.39,20.2-34.08,30.27"/><path class="cls-3" d="M170.36,146.2c1.9,0,3.82,1.6,4.71,4.06,1.12,3.13.15,6.56-2.15,7.63l-5.7,2.63-.12,0-.06,0-7.68,3.55c-.61.28-1.34-.16-1.63-1a1.6,1.6,0,0,1,.56-2l4.18-1.93a6.69,6.69,0,0,1-.8-1.06l-5,2.32c-.61.28-1.34-.16-1.64-1a1.6,1.6,0,0,1,.57-2l5-2.32a7.57,7.57,0,0,1-.08-1.25l-4.31,2c-.6.28-1.34-.16-1.63-1a1.6,1.6,0,0,1,.56-2l7.18-3.32a4.3,4.3,0,0,1,.67-.44l-1.58.07a1.57,1.57,0,0,1-1.4-1.52h0c-.11-.86.35-1.59,1-1.62"/><path class="cls-4" d="M150.3,128.34c-.46-1.43-.94-2.85-1.4-4.26-.87,0-1.39-.68-1-1.26s.15-.95-.1-1.41l-.48.12-.31-.77,5.26-2.26.31.75-.53.4c.26.31.44.74.73.83.94.28,1.17.91.48,1.72.43.87.84,1.72,1.26,2.56l4.63,7.64a7,7,0,0,1,5.12,4.07q4.8,11.64,9.52,23.31a5.72,5.72,0,0,1,.3,2.15,1.85,1.85,0,0,1-1.2,1.75L164,167.51a1.82,1.82,0,0,1-1.75-.13,4.11,4.11,0,0,1-1.65-2.06q-4.71-11.52-9.42-23a6.27,6.27,0,0,1-.42-1.4,8.11,8.11,0,0,1,1.13-5.42.92.92,0,0,0,.15-.6Z"/><polygon class="cls-5" points="158.97 161.35 172.16 155.68 165.31 138.93 152.12 144.61 158.97 161.35"/><path class="cls-3" d="M157.13,155.49l-.76.3a1.1,1.1,0,0,1-1.41-.63l-.33-.85a1.13,1.13,0,0,1,.63-1.47l1-.39c.62-.24,1.32.25,1.57,1.09A1.59,1.59,0,0,1,157.13,155.49Z"/><path class="cls-3" d="M159.9,164l-.45.18a.91.91,0,0,1-1.19-.57l-.42-1.19a.94.94,0,0,1,.53-1.21L159,161c.62-.24,1.32.25,1.57,1.08A1.6,1.6,0,0,1,159.9,164Z"/><path class="cls-3" d="M158.35,159.82l-1.48.57a1.24,1.24,0,0,1-1.6-.72l-.21-.57a1.28,1.28,0,0,1,.71-1.66l1.69-.66c.62-.24,1.33.25,1.57,1.08A1.59,1.59,0,0,1,158.35,159.82Z"/><path class="cls-12" d="M275.49,101.05c0-.45,0-.9,0-1.36,0-32.45-21.92-58.76-48.95-58.76s-48.94,26.31-48.94,58.76c0,.46,0,.9,0,1.36a48.29,48.29,0,0,0-.45,6.64v27.47c0,22.62,18.7,43.26,37.4,43.26h26.58c18.7,0,34.75-20.64,34.75-43.26V107.69A49.91,49.91,0,0,0,275.49,101.05Z"/><polyline class="cls-12" points="209.1 174.88 215.94 233.87 220.73 233.87 226.15 175.13"/><polygon class="cls-13" points="221.28 232.63 215.28 232.34 212.61 205.48 223.35 205.48 221.28 232.63"/><path class="cls-11" d="M221.81,235A8.92,8.92,0,1,0,204,235"/><polyline class="cls-12" points="230.7 174.88 237.53 233.87 242.32 233.87 247.74 175.13"/><polygon class="cls-13" points="242.87 232.63 236.87 232.34 234.21 205.48 244.94 205.48 242.87 232.63"/><path class="cls-11" d="M243.4,235a8.92,8.92,0,1,0-17.83,0"/><path class="cls-14" d="M198.1,71.34s-1.3,8.54-10.46,6.69"/><path class="cls-14" d="M225.19,72.84s2.6,8,10.87,3.52"/><path class="cls-15" d="M224.72,97.78s-2.15,8.31-13.51,8.28-12.41-7.78-12.41-7.78Z"/><path class="cls-7" d="M217.62,91.5a10,10,0,0,1,20,0"/><path class="cls-7" d="M187.94,91.5a10,10,0,0,1,20.07,0"/><path class="cls-15" d="M196.85,81.94c.14,0,.26,0,.41,0A3.81,3.81,0,0,0,196.85,81.94Z"/><path class="cls-15" d="M228.68,81.93l-.4,0Z"/><path class="cls-2" d="M258.19,133s-21.46,36.2-46.87,5.71"/><path class="cls-3" d="M214.62,133.81c.63,1.84-.13,4.23-2.07,5.94-2.47,2.16-6,2.43-7.73.58l-4.38-4.55-.09-.11a.1.1,0,0,1,0,0l-5.92-6.15a1.35,1.35,0,0,1,.33-1.91,1.48,1.48,0,0,1,2-.15l3.23,3.34a6.34,6.34,0,0,1,.69-1.13l-3.87-4a1.36,1.36,0,0,1,.33-1.91,1.51,1.51,0,0,1,2-.15l3.87,4a8,8,0,0,1,1.12-.51l-3.33-3.45a1.36,1.36,0,0,1,.33-1.91,1.5,1.5,0,0,1,2-.15l5.54,5.75a3.55,3.55,0,0,1,.62.48l-.61-1.49a1.61,1.61,0,0,1,.91-1.87h0a1.25,1.25,0,0,1,1.83.41"/><path class="cls-9" d="M190.22,91.62A5.39,5.39,0,1,1,201,91.56"/><path class="cls-9" d="M219.33,91.62a5.4,5.4,0,1,1,10.79-.06"/></svg>