<svg id="Layer_1" data-name="Layer 1" xmlns="http://www.w3.org/2000/svg" viewBox="0 0 254.49 236.92"><defs><style>.cls-1,.cls-11,.cls-13,.cls-7{fill:none;stroke-linecap:round;stroke-miterlimit:10;}.cls-1{stroke:#188ab2;stroke-width:5.23px;}.cls-2{fill:#02a1cd;}.cls-3{fill:#0d4161;}.cls-4{fill:#fff;}.cls-5{fill:#5753a4;}.cls-6{fill:#514c49;}.cls-7{stroke:#0d4060;stroke-width:2.38px;}.cls-8{fill:#0aa0cc;}.cls-9{fill:#56c6d0;}.cls-10{fill:#504b48;}.cls-11{stroke:#0b4161;stroke-width:1.67px;}.cls-12{fill:#0b4161;}.cls-13{stroke:#1b89b0;stroke-width:5.02px;}.cls-14{fill:#a1caeb;}.cls-15{fill:#a2cced;}</style></defs><path class="cls-1" d="M136.58,111.72s-9.79,9.42-16.41,10.77-19.88-3.41-19.88-3.41"/><path class="cls-2" d="M75.13,7.17c-32.85-4-60.41,1.23-64.66,37.22-1.1,9.16-1,18.49-.82,27.64.16,10.17,1.73,20.53,3.06,30.6.57,4.48,1.36,8.32.42,12.87-.82,3.91-3.31,7.7-5.41,11.06-5.72,9.11-8.1,18.82-5.93,29.5,1.45,7.12,6.26,13.19,11.91,17.38,11.83,8.59,16.87,8.86,42.68,12,15.33,1.84,31.44,2.62,45.21-6.1a34.87,34.87,0,0,0,13-15.05,38.33,38.33,0,0,0,3-9.2c1.27-5.36.45-12.62-1-17.8-2.1-7.82-3.76-18.18-.89-26.1,6.83-18.54,12.69-43.33,13.82-53,4.17-36.08-21.52-47.06-54.38-51"/><path class="cls-3" d="M83.23,78.77S86.1,70,96.93,71s11,9.53,11,9.53h0Z"/><path class="cls-4" d="M100.84,65a9.22,9.22,0,0,1,9.94-8.47c5.25.28,9.4,4.51,9.12,9.39"/><path class="cls-3" d="M110.05,65.51a4.17,4.17,0,0,1,4.69-3.6,4.07,4.07,0,0,1,3.6,4"/><path class="cls-4" d="M72.47,63.57c.27-5,4.7-8.75,10-8.47s9.39,4.51,9.21,9.39"/><path class="cls-3" d="M81.68,64.19a4.17,4.17,0,0,1,4.7-3.59,4.06,4.06,0,0,1,3.59,4"/><polyline class="cls-2" points="38 173.41 43.84 226.66 52.1 226.85 60.02 173.99"/><polygon class="cls-5" points="51.57 233.59 44.45 233.42 41.81 210.23 54.57 210.43 51.57 233.59"/><polyline class="cls-2" points="65.8 174.16 71.62 227.5 79.88 227.69 87.79 174.83"/><polygon class="cls-5" points="78.63 234.61 71.5 234.45 69.83 211.23 82.3 211.44 78.63 234.61"/><path class="cls-6" d="M93.25,234.57a10.84,10.84,0,0,0-21.67.18"/><path class="cls-6" d="M65.92,234.57a10.84,10.84,0,1,0-21.67.19"/><path class="cls-7" d="M84.55,42.68s-3.28,9.76-13.93,5.7"/><path class="cls-7" d="M110.39,43.61s1,9.93,12,7"/><polyline class="cls-8" points="164.42 181.75 169.16 233.44 173.83 233.44 179.81 184.47"/><polygon class="cls-9" points="167.21 212.19 176.43 212.19 174.37 233.3 169.16 233.44 167.21 212.19"/><path class="cls-10" d="M156.15,234.6a9.12,9.12,0,1,1,18.22-.68c0,.22,0,.45,0,.68"/><polyline class="cls-8" points="186.87 181.75 191.6 233.44 196.28 233.44 202.25 184.47"/><polygon class="cls-9" points="189.66 212.19 198.87 212.19 196.82 233.3 191.6 233.44 189.66 212.19"/><path class="cls-10" d="M178.59,234.6a9.12,9.12,0,1,1,18.23-.68v.68"/><ellipse class="cls-8" cx="187.36" cy="123.97" rx="66.55" ry="66.05"/><path class="cls-11" d="M150.48,84.13s-3.11,8.08-11.91,4.27"/><path class="cls-11" d="M180.2,86.3s0,8.93,9.58,8.49"/><path class="cls-12" d="M145.69,115.59s.8-7,14.89-5.44c11.59,1.33,11.46,9,11.46,9Z"/><path class="cls-4" d="M166.31,105.68a10.27,10.27,0,0,1,20.41,1.87"/><path class="cls-4" d="M136,102.89c.49-5.28,5.47-9.15,11.14-8.63s9.86,5.23,9.38,10.51"/><path class="cls-12" d="M136.08,101.69a6.84,6.84,0,0,0,6.73-1.13,6.34,6.34,0,0,0,1.75-6.26A9.89,9.89,0,0,0,136.08,101.69Z"/><path class="cls-13" d="M211.18,153s-26.08,3.76-37.37-20.1"/><path class="cls-14" d="M178,129.24a5,5,0,0,1-2.55,4.88c-2.44,1.58-5.54,1.38-6.89-.43l-3.35-4.46v-.11h0l-4.59-6a1.15,1.15,0,0,1,.44-1.57l.07,0a1.37,1.37,0,0,1,1.81.11l2.45,3.26a6.36,6.36,0,0,1,.74-.89L163.14,120a1.15,1.15,0,0,1,.45-1.57l.07,0a1.39,1.39,0,0,1,1.78.08l2.94,3.94a7.74,7.74,0,0,1,1-.31l-2.52-3.41a1.14,1.14,0,0,1,.44-1.57l.07,0a1.35,1.35,0,0,1,1.8.11l4.22,5.67a2.37,2.37,0,0,1,.5.5l-.36-1.37a1.4,1.4,0,0,1,1-1.51,1.14,1.14,0,0,1,1.54.49l0,.09"/><path class="cls-12" d="M166.42,104.48a6.82,6.82,0,0,0,6.73-1.14,6.34,6.34,0,0,0,1.75-6.26A9.88,9.88,0,0,0,166.42,104.48Z"/><path class="cls-13" d="M123.88,134.09s5.27,17.12,20-4.8"/><path class="cls-14" d="M139.27,127.12a5,5,0,0,0,1.8,5.2c2.18,1.92,5.28,2.19,6.88.6l4-3.92,0-.11h0l5.43-5.28a1.16,1.16,0,0,0-.2-1.62l-.07,0a1.36,1.36,0,0,0-1.8-.16l-2.91,2.87a6.31,6.31,0,0,0-.6-1l3.48-3.47a1.16,1.16,0,0,0-.2-1.62l-.07,0a1.37,1.37,0,0,0-1.77-.19l-3.49,3.45a8.89,8.89,0,0,0-1-.46l3-3a1.16,1.16,0,0,0-.2-1.62l-.07,0a1.35,1.35,0,0,0-1.79-.16l-5,5a3.35,3.35,0,0,0-.57.42l.56-1.29a1.4,1.4,0,0,0-.79-1.65,1.14,1.14,0,0,0-1.59.26l-.06.08"/><path class="cls-1" d="M64.56,136.13s7,15,22,18.58c12.34,3,34.26-5,34.26-5"/><path class="cls-15" d="M132.29,153a1.63,1.63,0,0,0,.91-2,1.57,1.57,0,0,0-1.68-1l-5.27,1.33a5,5,0,0,0,.13-1.36l6.34-1.6a1.63,1.63,0,0,0,.92-2,1.58,1.58,0,0,0-1.68-1l-6.34,1.6c-.18-.33-.47-.73-.65-1.07l5.44-1.37a1.63,1.63,0,0,0,.91-2,1.56,1.56,0,0,0-1.67-1l-9.11,2.3a3.16,3.16,0,0,0-.92.14l1.63-1.08a1.62,1.62,0,0,0,.42-2.1h0a1.44,1.44,0,0,0-1.88-.67l-.09,0-8.61,5.4a1.33,1.33,0,0,0-.62.92,6,6,0,0,0-2.08,6.41c.81,3.22,3.89,5.29,6.75,4.57L132.29,153Z"/></svg>