<?xml version="1.0" encoding="UTF-8"?>
<svg xmlns="http://www.w3.org/2000/svg" xmlns:xlink="http://www.w3.org/1999/xlink" viewBox="0 0 1334 1000">
  <defs>
    <style>
      .cls-1, .cls-2 {
        fill: none;
      }

      .cls-3 {
        fill: #040404;
      }

      .cls-4 {
        fill: #7d7476;
      }

      .cls-5 {
        fill: #101931;
      }

      .cls-6 {
        fill: #273339;
      }

      .cls-7 {
        fill: #010101;
      }

      .cls-8 {
        fill: #080b0c;
      }

      .cls-9 {
        fill: #815aa5;
      }

      .cls-10 {
        fill: #638e9f;
      }

      .cls-11 {
        fill: #653c29;
      }

      .cls-12 {
        fill: #27153c;
      }

      .cls-13 {
        fill: #412959;
      }

      .cls-14 {
        fill: #f1eef7;
      }

      .cls-15 {
        fill: #e5a97c;
      }

      .cls-16 {
        fill: #5f1f11;
      }

      .cls-17 {
        stroke: #1c130b;
      }

      .cls-17, .cls-2, .cls-18, .cls-19 {
        stroke-miterlimit: 10;
      }

      .cls-17, .cls-20 {
        fill: #3b2711;
      }

      .cls-21 {
        fill: #a885bd;
      }

      .cls-22 {
        fill: #745245;
      }

      .cls-23 {
        fill: #fcf1d4;
      }

      .cls-24 {
        isolation: isolate;
      }

      .cls-25 {
        fill: #663631;
      }

      .cls-26 {
        fill: #a66e53;
      }

      .cls-27 {
        fill: #0a2f44;
      }

      .cls-28, .cls-29 {
        fill: #87b448;
      }

      .cls-30 {
        fill: #3c2415;
      }

      .cls-29 {
        mix-blend-mode: multiply;
        opacity: .5;
      }

      .cls-31 {
        fill: #874d3e;
      }

      .cls-32, .cls-18 {
        fill: #fff;
      }

      .cls-33 {
        fill: #434660;
      }

      .cls-34 {
        fill: #a24d9d;
      }

      .cls-35 {
        fill: #513835;
      }

      .cls-2 {
        stroke-width: .95px;
      }

      .cls-2, .cls-19 {
        stroke: #000;
      }

      .cls-36 {
        fill: #edc9e0;
      }

      .cls-37 {
        fill: #e0e1e0;
      }

      .cls-38 {
        fill: #160e0d;
      }

      .cls-39 {
        fill: #5d200f;
      }

      .cls-40 {
        fill: #ccb631;
      }

      .cls-41 {
        fill: url(#linear-gradient);
        mix-blend-mode: color-burn;
      }

      .cls-18 {
        stroke: #4f2e25;
        stroke-width: .3px;
      }

      .cls-42 {
        fill: #24180f;
      }

      .cls-43 {
        fill: #628e9f;
      }

      .cls-44 {
        fill: #a44f24;
      }

      .cls-45 {
        fill: #825639;
      }

      .cls-46 {
        fill: #21572b;
      }

      .cls-47 {
        fill: #72451b;
      }

      .cls-48 {
        fill: #d3eef5;
      }

      .cls-49 {
        clip-path: url(#clippath);
      }

      .cls-50 {
        fill: #4f2e25;
      }

      .cls-51 {
        fill: #af3f27;
      }
    </style>
    <linearGradient id="linear-gradient" x1="-3708.5" y1="2284.76" x2="-2400.16" y2="2284.76" gradientTransform="translate(2760.25 3534.77) rotate(90)" gradientUnits="userSpaceOnUse">
      <stop offset="0" stop-color="#fff" stop-opacity="0"/>
      <stop offset="1" stop-color="#f7941d" stop-opacity=".73"/>
    </linearGradient>
    <clipPath id="clippath">
      <path class="cls-1" d="M655.34,536.64s-41.52-18.58-113.38-17.53l-16.41,181.14,39.83.29c12.53-.76,30.12.38,47.63,2.07l27.72,1.13,14.6-167.11Z"/>
    </clipPath>
  </defs>
  <g class="cls-24">
    <g id="Layer_1" data-name="Layer 1">
      <polyline class="cls-33" points="1629.31 1235.22 1629.31 -302.86 -674.79 -302.86 -674.79 1235.22"/>
      <polyline class="cls-41" points="-678.34 1134.61 1629.32 1134.62 1629.32 -173.72 -678.34 -173.72"/>
      <polygon class="cls-20" points="1337.1 490.97 1337.1 973.88 1068.27 868.76 1068.27 490.85 1337.1 490.97"/>
      <rect class="cls-17" x="954.75" y="646.32" width="268.83" height="42.02" transform="translate(1756.5 -421.84) rotate(90)"/>
      <rect class="cls-17" x="1039.88" y="646.32" width="268.83" height="42.02" transform="translate(1841.63 -506.96) rotate(90)"/>
      <rect class="cls-17" x="1085.62" y="687.65" width="355.45" height="42.02" transform="translate(1972.01 -554.69) rotate(90)"/>
      <rect class="cls-17" x="1068.27" y="490.85" width="268.83" height="42.02"/>
      <path class="cls-26" d="M369.29,240.2s-.38,16.12-6.54,34.8c-8.89,26.95-35.05,36.22-35.05,36.22l93.31,76.83,46.13-31.73s-16.63-20.88-16.15-26.48c.48-5.61,13.6-41.58,13.6-41.58"/>
      <path d="M1035.73,575.81l-.18,1.16c-3.57,6.23-7.88,9.52-13.63,8.61-.03.06-7.1,12.34-20.06,8.12-11.25-3.66-13.04-10.08-13.04-10.08,0,0-5.98,1.36-8.54-.06-5.76-3.21-5.08-11.83-2.91-16.81,2.95-6.79,6.34-11.55,6.34-11.55,0,0,4.15-4.17,7.44-7.01,3.29-2.84,10.95-3.47,10.95-3.47,0,0,.82-7.88,4.39-7.9,3.58-.01,14.71-3.5,14.71-3.5,0,0,2.77,2.71,7.25,8.76,0,0,5.42,1.33,4.71,8.55-.15,1.56-.6,3.4-1.44,5.56,0,0,2.64.72,5.36,6.03,1.18,2.29,1.35,8.84-1.36,13.58Z"/>
      <path d="M968.24,573.59c-22.92,1.05-36.23-15.96-49.74-33.22-7.9-10.1-13.97-22.37-14.13-35.42-.14-11.31,3.63-22.41,8.32-32.56,4.25-9.17,9.24-16.82,17.99-22.25,8.33-5.17,18.19-7.6,27.95-7.67,2.91-.02,5.83.11,8.73.32,25.79,1.69,57.22,18.33,64.38,41.59.65,2.11,1.15,4.34,1.56,6.63,0,0,.67,4.89.49,6.52-3.22,28.85-18.52,80.64-59.28,74-3.57-.58-6.81-.58-6.29,2.05Z"/>
      <path class="cls-26" d="M898.94,532.1c.8-6.82,4.64-17.09,7.02-20.12.62-3.1,1.36-6.7,2.28-11.03.27-1.26.56-2.45.85-3.64.21-.6.37-1.2.47-1.83,5.59-20.86,15.11-30.24,15.11-30.24,12.14-11.87,29.67-16.39,46.04-11.89,19.36,4.9,34.17,20.74,40.56,34.72,3.18,6.92,3.69,14.78,1.42,22.05-1.92,6.22-9.23,11.9-12.54,18.37,6.87,1.26,15.05,5.17,9.66,17.08-7.43,16.43-20.61,14.93-25.51,9.91-6.09,6.87-7.68,11.41-9.21,16.07-1.59,4.84-2.44,14.46-2,16.75l12.73,11.59c-20.16,20.17-76.81,28.28-83.76-11.56l16.2-5.42,2.31-8.21c-.45-.14.44.13-6.19-3.82-19.61-13.18-16.38-30.75-15.44-38.79Z"/>
      <path class="cls-50" d="M919.59,578.11l.94-3.63s21.68,7.64,38.77-.35c0,0-12.5,8.36-24.06,7.34-11.56-1.02-15.65-3.36-15.65-3.36Z"/>
      <g>
        <path d="M991.42,533.09c-.27.51-.59,1.06-.47,1.63.15.76,1.03,1.18,1.8,1.11.77-.07,1.45-.5,2.12-.88,4.34-2.49,14.16-5.8,18.64-3.55,10.93-16.32,12.94-34.98,5.25-53.08-2.44-5.72-9.97-12.7-12.26-14.93-13.9-13.34-27.62-16.05-44.87-16.71-25.83-.95-28.7,1.78-41.58,21.42,0,0,32.68-8.05,59.3,6.92-.86.1,15.76,11.96,15.95,12.31,1.64,3.04-1.2,4.76-1.64,10.37-.32,4.08-1.44,6.96,1.17,10.15,1.81,2.21,1.41,10.52.79,13.31l-4.2,11.93Z"/>
        <path d="M990.05,532.97c-.59,1.11-.93,2.36.2,3.24.99.77,2.35.72,3.49.37,1.07-.33,2.01-1.01,3.01-1.51s1.94-.9,2.94-1.28c2.14-.83,4.4-1.5,6.67-1.87,1.91-.31,4.21-.57,6.03.29.86.41,1.97.14,2.5-.67,8.17-12.29,11.77-27.04,8.99-41.64-1.27-6.69-3.52-13.16-7.84-18.48-3.51-4.33-7.63-8.38-11.9-11.95-4.95-4.14-10.54-7.44-16.62-9.63s-12.06-3.16-18.25-3.7-12.34-.73-18.49-.54c-4.19.13-8.46.55-12.43,1.99-7.89,2.86-12.73,10.01-17.21,16.7-.82,1.23-1.64,2.47-2.45,3.71-.65.99,1.08,1.18,1.62,1.04,3.89-.95,7.94-1.42,12.16-1.75,9.28-.74,18.74-.31,27.83,1.77,6.26,1.43,12.33,3.65,17.94,6.79l.88-1.71c-2.38.64-.69,2.09.3,2.9,1.66,1.36,3.39,2.64,5.11,3.92,2,1.49,4.02,2.97,6.03,4.46.77.57,1.55,1.14,2.32,1.72.38.28.9.57,1.2.93-.31-.37.14.54.18.72.15.61.07,1.2-.09,1.79-.35,1.38-1,2.68-1.39,4.05-.55,1.93-.63,3.94-.87,5.92-.21,1.72-.41,3.53.1,5.21.44,1.47,1.61,2.49,2.06,3.92s.55,2.87.59,4.3c.07,2.25.06,5.35-.47,7.23-1.12,3.98-2.77,7.88-4.15,11.78-.53,1.51,2.36,1.37,2.75.25,1.28-3.62,2.55-7.24,3.83-10.87.59-1.68.81-3.34.91-5.13.16-2.8.33-6.11-.71-8.77-.56-1.43-1.69-2.43-2.04-3.97-.39-1.75-.02-3.58.18-5.34.23-1.96.38-3.87,1.03-5.75.42-1.23,1.06-2.45,1.23-3.75.13-.94,0-2.19-.63-2.96-.28-.35-.75-.62-1.1-.89-1.58-1.2-3.19-2.36-4.78-3.54-2.24-1.65-4.48-3.31-6.7-5-.81-.62-1.62-1.24-2.41-1.89-.31-.25-.42-.37-.65-.56-.43-.35-.05-.31-.17.1l-.52.73-.67.31c.58-.16,1.9-1.15.88-1.71-16.77-9.35-37.24-11-55.95-7.95-1.58.26-3.17.53-4.72.91l1.62,1.04c2.67-4.07,5.31-8.21,8.46-11.93,2.12-2.5,4.52-4.8,7.5-6.25,3.2-1.56,6.76-2.1,10.27-2.35,5.63-.4,11.33-.19,16.96.14,5.95.35,11.91,1.04,17.66,2.69s11.2,4.29,16.09,7.8c4.53,3.25,8.62,7.21,12.39,11.31,1.93,2.1,3.8,4.31,5.31,6.75,1.77,2.86,2.84,6.22,3.75,9.45,2.13,7.52,2.66,15.41,1.38,23.13-1.33,8.03-4.59,15.56-9.08,22.32l2.5-.67c-3.56-1.69-7.94-.88-11.59.1-2.02.54-4.02,1.24-5.94,2.07-.83.36-1.64.74-2.43,1.17-.45.24-.96.66-1.45.8-1.07.29-.76-.88-.43-1.51.73-1.38-2.2-1.3-2.75-.25Z"/>
      </g>
      <circle cx="912.39" cy="507.8" r="4.38"/>
      <path d="M908.17,503.07c2.34-.82,5.34-1.02,9.39.29,6.48,2.1,7.57,11.06,7.57,11.06,0,0-2.06-7.12-8.41-9.36-3.06-1.08-6.3-.79-8.98-.12.21-.61.35-1.24.43-1.88Z"/>
      <path d="M952.33,502.44s19.64,5.16,22.21,9.67c0,0-.5-6.06-16.72-11.6,0,0-8.85-1.04-5.49,1.93Z"/>
      <path d="M909.17,491.87c.03-.14.06-.28.1-.42,2.8-.29,6.78-.16,12.36,1.02,0,0,6.78,2.61,2.77,3.49,0,0-8.87-2.67-15.36-3.13.04-.32.07-.64.15-.96Z"/>
      <path class="cls-25" d="M1005.24,546.1c1.16-1.85,1.95-4,1.73-6.21-.05-.54-.08-1.21-.7-1.33-1.87-.36-4.03.95-5.49,1.94-2.27,1.54-4.27,3.46-6.14,5.45-.71.75.72.76,1.15.58.05-.02.11-.04.16-.06.11-.04-.26.07-.01,0,.07-.02.15-.04.22-.06.15-.04.41-.12.66-.04.67.23.58,1.27.47,1.82-.14.7-.5,1.36-1.06,1.81-.77.61-1.82.64-2.75.52-.45-.06-1,.02-1.34.36-.26.26-.25.65.19.7,2.73.34,6.24-.5,6.87-3.62.21-1.05.04-2.3-1.15-2.63-.97-.27-2.11-.01-3.02.37l1.15.58c1.47-1.55,3-3.05,4.68-4.37.9-.7,1.98-1.44,2.89-1.85.19-.09.39-.17.59-.25.06-.02.28-.09.01,0,.08-.03.16-.05.24-.07.1-.03.58-.11.21-.06.1-.01.2-.02.29-.04.26-.05-.23,0,.05,0,.05,0,.11,0,.16,0-.32,0-.15-.03-.06,0l-.37-.28c.82,2.17-.27,4.85-1.4,6.67-.24.38.21.57.52.59.41.03,1.02-.15,1.25-.53h0Z"/>
      <circle cx="954.31" cy="517.95" r="4.38"/>
      <path d="M941.68,518s8.43-7.16,15.58-4.9c10.06,3.18,10.31,10.4,11.53,14.13,0,0-4.31-10.18-12.15-12.45-7.11-2.06-14.96,3.22-14.96,3.22Z"/>
      <g>
        <path class="cls-7" d="M924.26,535.33c1.1,1.09,3.15,1.53,4.72,1.11.35-.09,1.27.38.78.51-2.07.56-4.97-.21-6.4-1.61-.14-.14-.07-.26.16-.27.24,0,.58.11.73.26"/>
        <path class="cls-7" d="M930.45,536.75c1.01-.15,2.06-.07,3.07.15.15.03.32.14.4.27.06.1.05.2-.08.23-.53.13-1.15.06-1.68-.11-.17-.05-.38-.16-.43-.34-.05-.16.14-.2.27-.16.44.14.91.19,1.35.09.11.17.21.34.32.51-.9-.2-1.85-.26-2.75-.12-.18.03-.39-.09-.51-.22-.09-.09-.16-.27.03-.3"/>
        <path class="cls-7" d="M934.33,538.05c1.16.32,2.67.23,3.5-.47,1.25-1.06,1.11-3.51-.08-4.79-.13-.14-.01-.23.16-.22.22.02.44.17.58.31,1.04,1.11,1.3,3.2.74,4.38-.52,1.1-1.87,1.57-3.35,1.49-.44-.03-.9-.09-1.33-.21-.18-.05-.47-.2-.52-.36-.05-.17.13-.18.3-.13"/>
        <path class="cls-7" d="M922.32,534.11c.1-.11.01-.24-.08-.26-.31-.09-.61-.27-.81-.57-.14.09-.28.19-.42.28.6.26,1.17.65,1.61,1.19.09.11.26.11.39.05.09-.04.22-.16.13-.27"/>
        <path class="cls-7" d="M923.15,534.54c-.5-.61-1.13-1.04-1.81-1.33-.1-.04-.25-.03-.35.05-.08.06-.12.15-.07.24"/>
        <path class="cls-7" d="M919.88,533.54c-.74-.26-1.47-1.03-1.58-2.01-.16-1.48.83-2.89,2.01-3.45.13-.06.11-.2.02-.26-.12-.09-.3-.06-.44,0-1.04.49-1.92,1.52-2.17,2.79-.23,1.19.25,2.21,1.04,2.82.24.18.5.33.78.43.11.04.33.05.43-.07.1-.12.01-.21-.09-.25"/>
      </g>
      <path class="cls-11" d="M925.95,543.96c5.66,1.76,15.02,3.97,15.02,3.97,0,0-3.88,15.54-19.49,10.41-13.05-4.28-8.9-18.93-8.9-18.93,0,0,7.71,2.79,13.37,4.55Z"/>
      <path class="cls-38" d="M925.9,543.94c2.69.84,12.74,3.84,12.74,3.84,0,0-5.61,7.85-15.34,4.83-10.55-3.28-9.08-11.66-9.08-11.66l11.68,2.99Z"/>
      <path class="cls-14" d="M925.47,544.9c2.69.84,11.01,2.94,11.01,2.94,0,0-3.83,1.92-11.89-.59-8.07-2.51-9.77-6.05-9.77-6.05l10.66,3.7Z"/>
      <path class="cls-11" d="M912.66,539.35c.09-.29.71-.24,2.08.07,2.28.51,3.26-.06,4.91.32,2.82.65,4.24,2.24,5.44,2.61,1.2.37,3.27-.13,5.96.93,1.58.62,5.39,2.42,7.56,3.3,1.3.53,3.02.51,3.29.67.37.22-1.69,3.58-16.74-1.1-15.05-4.68-12.61-6.41-12.49-6.8Z"/>
      <path class="cls-26" d="M919.48,626.96c-1.66,11.83-5.85,23.21-12.01,33.6-15.23,25.7-35.48,84.15-49.06,90.45-31.41,14.58-111.82,11.81-111.82,11.81l-2.71-6.19,87.44-36.55s21.23-59.64,29.65-80.69c3.49-8.71-5.69-6.25,9.08-17.97,1-.79,8.1-4.36,8.72-4.77"/>
      <path class="cls-21" d="M1137.83,885.09c-93.09,2.16-165.94-2.43-167.9-36.75-1.29-22.58.31-49.18,42.74-65.17,1.13-.41,1.79-.65,1.79-.65,21.64-7.92,47.82-13.89,77.42-16.89,90.55-9.17,138.6,5.43,161.12,26.8l.11.06c.11.06.17.2.28.33,8.89,8.44.07,28.7,1.97,38.23,6.4,32.48.8,51.27-117.53,54.04Z"/>
      <path class="cls-9" d="M1137.83,885.09c-93.09,2.16-180.75-5.06-183.23-15.98-4.94-21.78,15.65-69.94,58.08-85.94-9.45,3.71-59.86,35.39-26.17,60.99,20.28,15.41,67.58.86,133.85-27.3,86.4-36.71,136.18-20.38,133.05-24.05,8.89,8.44,15.36,62.92,17.27,72.45,6.4,32.48-14.5,17.05-132.83,19.82Z"/>
      <path class="cls-36" d="M1008.13,816.05c.49-7.65-.29-20.41-2.77-27.88l-6.14-16.79-1.08-19.08c-.81-6.71,1.82-16.7,4.84-29.18-7.67-2.13-14.69-2.84-22.59-3.4-9.26-.65-18.53-.77-27.79-1.21-9.51-.45-18.91-1.6-28.35-3.06-10.39-1.61-20.73-3.54-31.02-5.72-6.98-1.48-13.93-3.08-20.87-4.77.4,15.63.62,28.1,5.41,38.18l-2.21,12.78-2.54,1.89c19.96,33.14,25.97,87.52,40.6,126.14,30.92,5.12,89.82,6.1,94.51-67.9Z"/>
      <path class="cls-21" d="M1334.23,898.95v62.7c0,13.85-11.27,25.06-25.12,24.99l-1451.28-7.34c-13.84-.07-24.98-11.37-24.86-25.21l.64-73.25c.12-13.84,11.46-24.94,25.3-24.77l1450.64,17.89c13.68.17,24.68,11.31,24.68,24.99Z"/>
      <polygon class="cls-20" points="1345.57 986.12 1345.57 1082.53 -173.77 1059.65 -173.77 963.24 1345.57 986.12"/>
      <path class="cls-9" d="M-546.71,1126.48c212.01,24.51,425.29,38.05,638.7,40.57,327.27,3.85,421.44-57.79,906.74-7.87,2.25-84.09,35.15-203.91-27.97-259.53-40.01-35.26-59.51-135.95-109.63-154.17-29.59-10.76-149.59,21.18-180.85,17.36-223.72-27.39-259.44-9.66-436.53,1.75-59.76,3.85-177.05-16.61-271.3-14.21-107.88,2.74-233.68,21.45-414.95,18.11-39.02-.72-83.85,29.1-106.2,61.1-10.9,15.61-14.19,35.17-16.44,54.08-8.73,73.46-6,148.26,8.06,220.89"/>
      <line class="cls-40" x1="913.71" y1="594.68" x2="905.91" y2="591.68"/>
      <path class="cls-36" d="M878.82,597.47c9.58-8.04,39.24-15.05,39.24-15.05-9.17,15.72,2.76,23.23,2.76,23.23,6.68,2.24,38.38,4.18,52.31-17.73,0,0,7.62,5.66,18.95,15.15,24.53,20.54,28.4,50.28,26.81,63.63-1.02,8.56-17.76,71.39-23.14,94.39-14,14.14-7.66-37.74-15.56-37.53-10.11.27-20.19,1.28-30.29,1.84-4.86.27-9.73.43-14.6.31-4.92-.12-9.73-.73-14.59-1.45-10.55-1.57-9.65,31.88-20.07,29.58-5.48-1.21-40.26-1.61-45.61-3.38-.08-7.84,3.11-29.94,2.87-39.51l4.14-29.5c-19.73-9.58-22.19-21.05-22.19-21.05,0,0,29.39-54.88,38.97-62.92Z"/>
      <path class="cls-34" d="M862.82,681.23c-.24-7.74.03-15.46.78-23.16.74-7.61,1.84-15.19,2.8-22.78.08-.64-1.5-.37-1.57.19-.98,7.72-2.1,15.43-2.84,23.18-.73,7.65-.98,15.31-.74,22.99.02.52,1.59.2,1.57-.42h0Z"/>
      <path class="cls-13" d="M366.27,872.9c-25.04-.49-50.09-.73-75.14-.77s-47.56.08-71.34.28-46.86.45-70.29.65c-23.69.21-47.38.36-71.07.36-24.78,0-49.57-.18-74.35-.61-3.15-.05-6.3-.11-9.45-.17-1.53-.03-2.04,1.93-.23,1.96,25.04.49,50.09.73,75.14.77s47.56-.08,71.34-.28,46.86-.45,70.29-.65c23.69-.21,47.38-.36,71.07-.36,24.78,0,49.57.18,74.35.61,3.15.05,6.3.11,9.45.17,1.53.03,2.04-1.93.23-1.96h0Z"/>
      <path class="cls-13" d="M656.73,866.36h192.59c.52,0,1.5-.18,1.76-.71s-.23-.72-.71-.72h-192.59c-.52,0-1.5.18-1.76.71s.23.72.71.72h0Z"/>
      <g>
        <path class="cls-44" d="M1030.74,790.14s-24.1,17.17-29.84,28.81c-5.74,11.64,7.33,24.69,14.46,24.98,7.13.29,33.28-51.15,32.58-51.75-.7-.6-17.21-2.03-17.21-2.03Z"/>
        <path class="cls-44" d="M1049.24,881.05c.19-.22.46-.36.83-.32,4.6.54,9.22,1.02,13.85,1.28,16.5.95,34.56-.76,46.93-12.93.21-.2.43-.28.64-.27.2-.68.39-1.38.55-2.1,0-.01.02-.04.02-.04h0c14.09-50.63-14.83-69.85-14.83-69.85l-54.01-3.31s-8.61,16.43-9.72,21.43c-.89,4.01-11.25,9.89-15.57,25.56-6.06-.04-12.69.27-16.81,1.48l-8.9,2.63s-6.09-14.22-17.2-10.21c-11.11,4-14.68,34.26-5.01,42.35,7.34,6.14,43.83.33,61.06-2.85,5.24,2.95,11.5,5.34,18.18,7.13Z"/>
        <path class="cls-44" d="M1092.25,800.54c9.55-1.58,19.28,1.72,25.82,8.84,10.38,11.3,24,29.05,22.79,43.34-1.93,22.87-24.78,18.63-31.57,10.89-6.78-7.73-24.25-61.89-24.25-61.89l7.2-1.19Z"/>
        <path class="cls-15" d="M1039.35,793.13s-26.96,30.18-19.63,48.95c7.33,18.77,36.45,19.72,50.35,17.31,13.89-2.41,25.61-22.04,14.99-57.67,0,0-30.13-2.95-45.7-8.59Z"/>
        <path class="cls-44" d="M1063.2,711.67s3.58-19.33-8.19-22.53c-11.76-3.2-27.76,8.59-24.41,20.87,3.35,12.28,19.27,15.47,19.27,15.47l13.33-13.81Z"/>
        <path class="cls-16" d="M1053.56,711.17s.63-9.34-3.85-11.19c-4.48-1.85-10.5,2.86-12.95,7.57-2.45,4.71,9.4,10.31,9.4,10.31l7.4-6.69Z"/>
        <path class="cls-44" d="M1046.1,712.85c-7.55,5.92-11.96,16.62-16.26,29.53,0,0-4.52,5.94-9.38,19.7-4.86,13.76,1.35,40.39,35.85,45.86,16.31,2.59,36.18,1.69,51.28-5.23,16.84-7.71,27.77-22.9,21.27-49.09-14.72-59.32-63.92-55.55-82.77-40.77Z"/>
        <path class="cls-15" d="M1039.06,758.2s6.56-2.17,12.56-.08c6,2.1,13.13,4.85,14.81,14.06,1.68,9.22-2.19,17.78-13.42,18.53-11.23.75-19.81-5.89-22.96-11.51-3.15-5.62-.75-18.17,9.01-21.01Z"/>
        <path d="M1038.29,760.11s-2.82,3.31-1.89,6.45c.93,3.14,9.34.24,10.04-2.8.71-3.04-5.81-4.42-8.15-3.65Z"/>
        <ellipse cx="1036.21" cy="747.2" rx="4.87" ry="4.35" transform="translate(172.5 1688.5) rotate(-83.26)"/>
        <path d="M1076.94,754.73c-.32,2.67-2.5,4.61-4.89,4.32s-4.06-2.68-3.75-5.35c.32-2.67,2.5-4.61,4.89-4.32,2.38.28,4.06,2.68,3.75,5.35Z"/>
        <path class="cls-44" d="M1098.05,724.77s5.85-26.02,22.23-23.73c16.38,2.28,30.05,25.52,19.32,39.05-10.73,13.53-32.28,9.02-32.28,9.02l-9.26-24.33Z"/>
        <path class="cls-16" d="M1102.81,727.07s4.19-11.99,10.77-11.91c6.58.08,11.58,9.17,12.11,16.35.54,7.17-17.23,7.85-17.23,7.85l-5.66-12.29Z"/>
        <path class="cls-2" d="M1037.92,767.82l-.81,6.84s7,10.56,17.53,3.82"/>
        <path class="cls-2" d="M1037.12,774.66s-1.04,2.8-6.11,1.22"/>
        <path class="cls-39" d="M1113.89,865.03c-3.32-3.23-6.61-6.54-9.19-10.41-2.55-3.82-4.14-8.14-4.91-12.66-1.55-9.11.01-18.44,1.57-27.44.23-1.34-2.85-.88-3.06.31-2.43,14.05-4.59,29.56,4.21,41.94,2.48,3.49,5.52,6.54,8.58,9.52.86.84,3.74-.35,2.81-1.26h0Z"/>
        <path class="cls-39" d="M1014.35,840.17c-1.19-3.65-2.23-6.98-1.77-10.85.38-3.19.99-6.15,2.16-9.14,2.66-6.78,6.33-13.32,10.47-19.3,1.72-2.49,3.68-5.4,6.14-7.15,1.67-1.19-.93-1.6-1.89-.91-2.36,1.68-4.22,4.03-5.92,6.35-2.25,3.06-4.26,6.31-6.12,9.62-3.42,6.06-6.65,12.39-7.66,19.33-.29,1.97-.54,3.98-.3,5.97.28,2.36,1.13,4.65,1.86,6.9.35,1.07,3.38.21,3.04-.81h0Z"/>
        <path class="cls-39" d="M1072.43,744.55c3.54.73,6.56,3.27,7.9,6.62.18.45,1.17.22,1.5.12.23-.07,1.41-.42,1.24-.86-1.42-3.55-4.66-6.25-8.41-7.02-.64-.13-1.35.03-1.92.33-.23.12-.95.67-.31.8h0Z"/>
        <path class="cls-39" d="M1039.93,737.01c-1.62-.36-3.31-.15-4.86.42-1.35.5-2.65,1.33-3.49,2.53-.1.14-.19.28-.04.42s.53.14.71.13c.36-.02.73-.1,1.07-.23.25-.1.6-.22.76-.45.14-.2.3-.4.46-.58.09-.1.18-.19.28-.28.04-.04.09-.08.13-.12.21-.18-.08.06.05-.04.1-.08.21-.16.32-.23.08-.05.2-.17.29-.19-.07.01-.16.09-.03.02.06-.03.13-.07.19-.1.05-.03.11-.05.16-.08.15-.08-.31.12-.03.02.11-.04.22-.07.33-.12-.11.05-.29.09-.07.03.06-.02.11-.03.17-.04.05-.01.25-.06.03,0-.25.06.04,0,.07,0,.06,0,.11-.02.17-.03.21-.03-.08,0-.08,0,.01-.03.34-.02.39-.02.03,0,.22,0,.07,0-.17,0,.08,0,.11,0,.12,0,.23.02.35.03.02,0,.25.04.14.02s.14.03.14.03c.62.14,1.37-.02,1.92-.32.19-.1.48-.24.55-.46.06-.17-.07-.31-.24-.34h0Z"/>
        <path class="cls-44" d="M1098.96,870.6c-15.73-1.24-3.73-6.19-16.36-15.24-3.34,1.22-31.52-4.61-32.48-4.07,0,0-3.69-7.35-11.46-8.39-7.77-1.04-24.19,18.49-14.43,36.49,9.76,18,38.91,14.95,57.79,8.09,12.17-4.42,17.44-9.96,25.77-16.01.97-.42,1.9-.94,2.81-1.54-3.83.75-7.74.97-11.64.67Z"/>
      </g>
      <path class="cls-43" d="M458.23,334.22s50.23,31.08,81.58,66.34c12.02,13.53,14.81,33.01,16.63,50.16,5.6,52.56,9.65,102.81,16.21,155.26l-87.9,10.52-32.12-88.14-2.51-170.15,8.1-23.99Z"/>
      <path class="cls-43" d="M539.58,593.16c22.14,16.38,35.61,18.03,35.61,18.03l164.6-2.91c-4.98,17.64-4.34,36.39,1.81,53.65,0,0,.19,4.91.19,4.91-1.26-1.37-21.71,6.24-24.09,6.93-16.03,4.61-32.01,9.21-48.23,13.11-33.91,8.15-68.29,13.71-102.8,18.51-24.15,3.36-66.37-2.43-81.93-23.74-7.32-7.1-7.12-46.57-8.83-65.16"/>
      <path class="cls-12" d="M572.79,581.85c-12.15-1.32-24.94,3.25-32.87,12.69-2.49,2.96-4.41,6.36-5.81,9.96-.27.7,2.03.43,2.32-.31,4.31-11.15,14.22-19.11,26.05-20.92,2.94-.45,5.93-.53,8.88-.21.52.06,1.26-.03,1.64-.44.29-.31.33-.72-.21-.77h0Z"/>
      <path class="cls-43" d="M534.55,431.98l-24.16-34.79s-12.76-21.86-26.63-34.25c-8.77-7.83-20.19-17.99-26.53-20.89,4.96,10.12-8.12,14.2-14.75,18.23-9.29,5.64-15.21,2.82-26.01,1.76-10.36-1.02-22.49.18-31.66-7.39-14.96-12.34-37.88-30.78-39.65-51.07l-5.94-3.5s-78.7,20.84-87.98,23.33c-9.28,2.49-11.33,238.2-11.33,238.2l-38.55,73.8c-3.19,9.13-53.46,86-31.3,163.81,0,0,202.81-35.83,223.41-33.57,23.93,2.63,76.58,7.19,84.05-3.45,7.47-10.64,57.04-330.22,57.04-330.22Z"/>
      <path class="cls-35" d="M532.73,792.11c-.06.02-.13.03-.19.03.02-.16.04-.32.06-.48.05.15.09.3.14.45Z"/>
      <path class="cls-27" d="M528.74,860.86c1.55-5.26,3.38-10.43,5.41-15.5,4.59-11.47,10.27-22.5,16.69-33.05,6.6-10.85,14.03-21.2,22.26-30.87,5.59-6.57-2.07-36.37,4.31-42.18-108.35-37.95-338.87-32.77-338.87-32.77,0,0-68.07-7.43-69.14,84.8-1.28,111.09,269,83.04,358.06,69.78.43-.06.84-.13,1.26-.2Z"/>
      <path class="cls-35" d="M389.02,481.8c.07.01.14.03.2.07-.02.28.04.57-.23.77,0-.28.02-.56.03-.84Z"/>
      <path class="cls-35" d="M386.24,561.13c-.07.03-.14.04-.21.05,0-.18.01-.35.02-.53.06.16.13.32.19.48Z"/>
      <path class="cls-22" d="M453.62,484.35c-.09-.03-.19-.05-.28-.08.1-.03.2-.06.3-.1.03.06.02.12-.02.18Z"/>
      <path class="cls-22" d="M412.14,482.7c.1-.05.2-.09.3-.14.02.05.04.11.06.16-.12,0-.24-.01-.36-.02Z"/>
      <path class="cls-22" d="M452.74,484.25c-.13,0-.26-.01-.39-.02.13-.11.26-.11.39.02Z"/>
      <path class="cls-22" d="M389.92,481.86c.11-.11.22-.11.33,0-.11,0-.22,0-.33,0Z"/>
      <path class="cls-31" d="M196.4,584.44c.66,0,2.35-.99.91-.99-.66,0-2.35.99-.91.99h0Z"/>
      <path class="cls-31" d="M233.18,578.11c.47,0,1.23-.13,1.42-.65.17-.45-.15-.84-.64-.84-.47,0-1.23.13-1.42.65-.17.45.15.84.64.84h0Z"/>
      <path class="cls-27" d="M644.45,888.31c-20.75,63.14-74.48,262.89-103.54,339.34,0,0-85.8,6.53-93.36-12.43l7.74-487.39c40.05-5.92,151.01,11.12,172.51,26.59,25.8,18.57,33,84.15,16.65,133.88Z"/>
      <path class="cls-27" d="M593.68,846.6s-13.8-2.15-33.33-1.37c3.44-7.72,4.48-13.45,4.48-13.45-1.9-1.89-3.91-3.83-6.01-5.8-11.08,2.68-21.86,6.27-32.3,10.51-12.13,4.92-23.82,10.72-34.93,17.29-10.71,6.33-20.9,13.42-30.24,21.3-2.64,2.23-5.21-6.89-7.7-4.51.33.09.68.18,1.01.27-36.17,37.57-31.58,131.05-50.15,205.98-13.62,54.96-34.73,146.45-34.73,146.45,9.5,18.19,111.87,22.65,111.87,22.65,34.05-99.94,112.01-399.32,112.01-399.32Z"/>
      <path class="cls-37" d="M394.85,512.9l.5-.05c-.17.03-.33.05-.5.05Z"/>
      <path class="cls-27" d="M587.43,803.56s-11.32-51.68-47.91-67.16c-49.83-21.08-307.84-14.91-307.84-14.91l331.31,73.19"/>
      <path class="cls-8" d="M496.59,721.23c20.56,2.64,41.67,6.58,60.57,15.41,10.32,4.83,19.96,11.39,26.96,20.49,8.09,10.52,12.39,23.34,14.24,36.38,2.77,19.42,1.17,39.42-1.87,58.71-1.96,12.44-4.78,24.58-8.21,36.69-4.78,16.88-9.92,33.66-15.11,50.42-4.97,16.05-10.09,32.06-15.22,48.06-8.11,25.32-16.21,50.64-24.14,76.02-7.48,23.91-14.8,47.87-21.85,71.91-7.14,24.34-13.99,48.77-20.5,73.29-1.64,6.18-3.26,12.37-4.86,18.57-.14.52,2,.22,2.15-.36,6.46-25.02,13.27-49.95,20.41-74.79,6.93-24.12,14.16-48.15,21.57-72.13,7.75-25.06,15.69-50.06,23.68-75.05,5.9-18.45,11.87-36.87,17.64-55.36,5.27-16.87,10.48-33.77,15.44-50.74,3.61-12.34,7.1-24.66,9.49-37.3,3.42-18.11,5.56-36.67,4.77-55.11-.68-15.86-3.77-31.76-12.34-45.33-5.47-8.65-13.07-15.52-21.84-20.74-15.52-9.23-33.56-13.91-51.17-17.15-6.11-1.13-12.25-2.05-18.41-2.85-.51-.07-2.5.8-1.39.94h0Z"/>
      <path class="cls-8" d="M458.79,866.25c5.03-6.93,11.4-12.79,18.73-17.21.36-.22.58-.61.18-.89s-1.17-.03-1.54.19c-7.59,4.58-14.2,10.66-19.4,17.83-.31.43.27.66.6.68.5.04,1.13-.19,1.43-.61h0Z"/>
      <path class="cls-27" d="M210.24,711.41s-36.05,17.95-42.59,9.23c0,0-10.7,64.33,6.09,93.84,16.79,29.5,61.57,32.45,61.57,32.45l-25.06-135.51Z"/>
      <path class="cls-12" d="M499,641.75c2.19-6.69,3.71-13.65,5.4-20.48,2.97-11.98,5.84-23.98,8.69-35.99,3.11-13.08,6.19-26.17,9.27-39.26,2.44-10.39,4.87-20.77,7.32-31.16.69-2.9,1.37-5.8,2.08-8.7,2.08-8.48,3.9-17.14,7.21-25.25,1.03-2.51,2.21-4.94,3.58-7.28.58-.99-1.92-.73-2.33-.03-5.5,9.37-7.78,20.05-10.37,30.49-.68,2.73-1.34,5.45-1.99,8.19-2.31,9.74-4.59,19.49-6.88,29.23-3.06,13.04-6.13,26.08-9.22,39.11-2.94,12.41-5.9,24.81-8.94,37.19-1.89,7.68-3.68,15.42-5.94,23-.13.42-.26.84-.39,1.26-.27.83,2.23.5,2.51-.32h0Z"/>
      <path class="cls-43" d="M276.56,318.08c-32.16,1.89-54.32,19.12-62.5,33.62-7.7,13.65-14.88,27.58-18.23,42.89-18.65,85.4-62.14,227.84-33.48,265.41,53.19,69.71,277.02,24.38,277.02,24.38l10.64-54.69-191.85-34.36s52.14-229.21,45.47-242.45"/>
      <path class="cls-12" d="M279.12,356.09c5.91,2.33,10.16,7.47,13.33,12.8,3.36,5.65,6,11.92,7.39,18.37,2.3,10.67.43,21.34-1.61,31.88-3.25,16.8-7.11,33.49-11.06,50.14-4.53,19.1-9.26,38.15-14.1,57.17-4.05,15.94-8.17,31.87-12.36,47.78-1.36,5.19-2.74,10.37-4.11,15.56-.64,2.42-1.59,4.93-1.98,7.4-.02.1-.06.21-.08.31-.06.23.19.35.37.38,4.81.87,9.62,1.73,14.43,2.6,10.07,1.81,20.14,3.62,30.21,5.43,8.76,1.58,17.53,3.15,26.29,4.73,2.42.44,4.86.82,7.26,1.37,4.8,1.1,9.6,2.2,14.39,3.3,8.52,1.95,17.03,3.9,25.55,5.86,10.3,2.36,20.6,4.72,30.91,7.08,10.16,2.33,20.32,4.66,30.48,6.99,8.07,1.85,16.14,3.7,24.21,5.55,4.12.94,8.24,1.89,12.37,2.83.18.04.37.08.55.13.59.14,2.29-.77,1.21-1.02-2.87-.66-5.73-1.31-8.6-1.97-7.32-1.68-14.64-3.35-21.95-5.03-9.8-2.25-19.61-4.49-29.41-6.74-10.44-2.39-20.89-4.79-31.33-7.18-9.1-2.09-18.19-4.17-27.29-6.26-5.9-1.35-11.8-2.7-17.7-4.06-1.94-.44-3.86-.87-5.81-1.22-7.51-1.35-15.03-2.7-22.54-4.05-10.32-1.86-20.64-3.71-30.96-5.57l-20.06-3.61c-.33-.06-.66-.12-.99-.18l.37.38c1.71-6.34,3.39-12.69,5.06-19.04,4.06-15.41,8.07-30.83,12.01-46.27,4.84-18.95,9.58-37.93,14.14-56.96,4.14-17.29,8.18-34.62,11.68-52.05,1.91-9.54,4.06-19.26,3.41-29.04-.43-6.34-2.14-12.47-4.7-18.27-2.55-5.77-5.76-11.55-10.41-15.9-2.05-1.91-4.38-3.49-6.99-4.52-.56-.22-2.34.61-1.56.92h0Z"/>
      <path class="cls-12" d="M180.19,676.74c11.58,9.58,25.79,15.29,40.32,18.64,12.29,2.83,24.9,3.98,37.48,4.28,5.94.14,11.69.21,17.48.44,6.66.26,13.32.37,19.98.47,9.65.15,19.31.25,28.96.33,11.42.1,22.83.17,34.25.22s23.31.1,34.97.14c10.68.03,21.36.06,32.04.08,8.3.02,16.61.03,24.91.05,4.57.01,9.15.01,13.72.06.4,0,.79,0,1.19.02.33,0,1.29-.19,1.37-.64.92-5.48,1.83-10.97,2.75-16.45.11-.67-1.85-.33-1.95.28-.92,5.48-1.83,10.97-2.75,16.45l1.37-.64c-3.44-.08-6.88-.05-10.32-.06-7.47-.02-14.95-.04-22.42-.05-10.13-.02-20.25-.04-30.38-.07-11.52-.03-23.05-.07-34.57-.12s-23.09-.11-34.64-.2c-10.2-.07-20.39-.16-30.59-.3-7.59-.1-15.18-.21-22.77-.43-5.04-.15-9.61-.44-14.58-.48-11.1-.09-22.19-.57-33.18-2.25-14.47-2.21-28.91-6.33-41.52-13.91-3.26-1.96-6.37-4.16-9.31-6.59-.49-.41-2.29.35-1.82.74h0Z"/>
      <path class="cls-12" d="M258.65,595.81c-13.92-.95-26.42,9.21-33.42,20.42-.14.23,1.62.15,1.93-.34,6.32-10.11,17.52-20.14,30.23-19.27.43.03,2.23-.74,1.27-.81h0Z"/>
      <g>
        <path class="cls-46" d="M518.82,520.21l-16.14,184.32c-.47,5.32,3.38,10,8.61,10.46.21.02.41.03.62.03l136.31,5.04,15.17-187.5-132.46-21.94c-5.69-.94-11.07,2.99-12.02,8.78-.04.27-.08.53-.1.8Z"/>
        <polygon class="cls-37" points="539.19 510.81 526.01 514.17 509.45 703.32 509.11 707.23 522.93 708.42 539.19 510.81"/>
        <path class="cls-32" d="M663.96,532.23s-47.78-23.3-131.19-22.72l-16.38,198.59,70.61,2.21,63.49,1.99,13.46-180.06Z"/>
        <path class="cls-46" d="M794.6,544.25c.09-5.87-4.38-10.66-9.99-10.71l-120.46-.67-17.6,187.29,122.49,13.38c.2.03,5.36-.33,5.56-.32,5.07.44,4.59-3.12,5.06-8.44l14.9-179.73c.02-.27.04-.54.04-.81Z"/>
        <polygon class="cls-37" points="757.29 724.57 771.4 725.46 771.35 722.96 787.59 534.96 775.19 529.36 757.29 724.57"/>
        <path class="cls-18" d="M647.57,711.49l112.86,15.16,16.59-196.44c-82.03-15.06-113.34,2.22-113.34,2.22l-16.12,179.05Z"/>
        <path class="cls-6" d="M529.06,513.87c-.04.44-.08.89-.12,1.33l-.35,3.82c-.18,2.01-.37,4.03-.55,6.04l-.72,7.99-.88,9.72c-.34,3.7-.67,7.39-1.01,11.09-.37,4.08-.74,8.16-1.11,12.23l-1.19,13.11c-.41,4.57-.83,9.14-1.24,13.71l-1.27,14.04c-.43,4.7-.85,9.41-1.28,14.11s-.84,9.27-1.26,13.9c-.41,4.48-.81,8.95-1.22,13.43-.39,4.25-.77,8.5-1.16,12.74-.35,3.87-.7,7.75-1.05,11.62l-.95,10.44c-.27,2.95-.53,5.89-.8,8.84l-.64,7.02c-.15,1.64-.3,3.29-.45,4.93-.08.86-.16,1.72-.23,2.57,0,.11-.02.21-.03.32-.01.12.68.04.7-.19.04-.44.08-.89.12-1.33.12-1.27.23-2.55.35-3.82.18-2.01.37-4.03.55-6.04.24-2.66.48-5.33.72-7.99l.88-9.72c.34-3.7.67-7.39,1.01-11.09.37-4.08.74-8.16,1.11-12.23.4-4.37.79-8.74,1.19-13.11s.83-9.14,1.24-13.71c.42-4.68.85-9.36,1.27-14.04.43-4.7.85-9.41,1.28-14.11.42-4.63.84-9.27,1.26-13.9.41-4.48.81-8.95,1.22-13.43.39-4.25.77-8.5,1.16-12.74.35-3.87.7-7.75,1.05-11.62.32-3.48.63-6.96.95-10.44.27-2.95.53-5.89.8-8.84.21-2.34.42-4.68.64-7.02.15-1.64.3-3.29.45-4.93.08-.86.16-1.72.23-2.57,0-.11.02-.21.03-.32.01-.12-.68-.04-.7.19h0Z"/>
        <path class="cls-6" d="M532.65,510.17c-.04.46-.08.91-.13,1.37-.12,1.3-.24,2.61-.36,3.91-.19,2.07-.38,4.14-.57,6.2-.25,2.72-.5,5.45-.74,8.17-.3,3.31-.6,6.62-.91,9.93-.35,3.79-.69,7.59-1.04,11.38-.38,4.17-.76,8.33-1.14,12.5-.41,4.48-.82,8.97-1.23,13.45s-.85,9.34-1.28,14.01c-.44,4.8-.88,9.61-1.31,14.41-.44,4.81-.88,9.61-1.31,14.42s-.87,9.51-1.3,14.27c-.42,4.59-.84,9.19-1.26,13.78-.39,4.32-.79,8.64-1.18,12.96-.36,3.98-.73,7.95-1.09,11.93-.32,3.56-.65,7.11-.97,10.67-.28,3.02-.55,6.05-.83,9.07-.22,2.39-.44,4.78-.65,7.18-.15,1.69-.31,3.37-.46,5.06l-.24,2.63c0,.11-.02.22-.03.33,0,.09.68.02.7-.19.04-.46.08-.91.13-1.37l.36-3.91c.19-2.07.38-4.14.57-6.2.25-2.72.5-5.45.74-8.17l.91-9.93c.35-3.79.69-7.59,1.04-11.38.38-4.17.76-8.33,1.14-12.5.41-4.48.82-8.97,1.23-13.45.43-4.67.85-9.34,1.28-14.01s.88-9.61,1.31-14.41c.44-4.81.88-9.61,1.31-14.42.43-4.76.87-9.51,1.3-14.27.42-4.59.84-9.19,1.26-13.78.39-4.32.79-8.64,1.18-12.96.36-3.98.73-7.95,1.09-11.93.32-3.56.65-7.11.97-10.67l.83-9.07c.22-2.39.44-4.78.65-7.18.15-1.69.31-3.37.46-5.06.08-.88.16-1.75.24-2.63,0-.11.02-.22.03-.33,0-.09-.68-.02-.7.19h0Z"/>
        <path class="cls-6" d="M784.04,534.79c-.04.44-.08.89-.12,1.33-.11,1.26-.23,2.53-.34,3.79-.18,2-.36,3.99-.53,5.99l-.71,7.96c-.29,3.2-.57,6.39-.86,9.59-.33,3.68-.66,7.36-.99,11.04-.36,4.04-.72,8.08-1.08,12.12-.39,4.35-.78,8.7-1.17,13.05-.4,4.53-.81,9.06-1.21,13.59-.41,4.64-.83,9.28-1.24,13.92-.42,4.68-.84,9.36-1.25,14.05-.41,4.59-.82,9.19-1.23,13.78-.4,4.46-.8,8.91-1.19,13.37-.37,4.19-.75,8.38-1.12,12.58-.35,3.87-.69,7.75-1.04,11.62-.31,3.43-.61,6.87-.92,10.3-.26,2.92-.52,5.84-.78,8.77-.21,2.33-.42,4.66-.62,6.99-.15,1.63-.29,3.26-.44,4.89l-.23,2.56c0,.11-.02.21-.03.32-.03.34.68.24.7-.06.04-.44.08-.89.12-1.33l.34-3.79c.18-2,.36-3.99.53-5.99.24-2.65.47-5.31.71-7.96.29-3.2.57-6.39.86-9.59.33-3.68.66-7.36.99-11.04.36-4.04.72-8.08,1.08-12.12.39-4.35.78-8.7,1.17-13.05s.81-9.06,1.21-13.59c.41-4.64.83-9.28,1.24-13.92.42-4.68.84-9.36,1.25-14.05.41-4.59.82-9.19,1.23-13.78.4-4.46.8-8.91,1.19-13.37.37-4.19.75-8.38,1.12-12.58.35-3.87.69-7.75,1.04-11.62.31-3.43.61-6.87.92-10.3.26-2.92.52-5.84.78-8.77l.62-6.99c.15-1.63.29-3.26.44-4.89l.23-2.56c0-.11.02-.21.03-.32.03-.34-.68-.24-.7.06h0Z"/>
        <path class="cls-6" d="M781.16,532.22c-.04.45-.08.89-.12,1.34-.12,1.28-.23,2.56-.35,3.84-.19,2.03-.37,4.07-.56,6.1-.24,2.68-.49,5.36-.73,8.03-.3,3.24-.59,6.48-.89,9.72-.34,3.71-.68,7.42-1.02,11.14-.37,4.09-.75,8.19-1.12,12.28-.4,4.41-.8,8.81-1.2,13.22-.42,4.59-.84,9.18-1.26,13.77-.43,4.7-.86,9.4-1.29,14.1-.43,4.72-.86,9.45-1.29,14.17-.42,4.65-.85,9.31-1.27,13.96-.41,4.5-.82,8.99-1.23,13.49-.39,4.25-.77,8.5-1.16,12.74-.36,3.93-.72,7.85-1.07,11.78-.32,3.48-.63,6.96-.95,10.44-.27,2.96-.54,5.92-.81,8.88-.21,2.35-.43,4.7-.64,7.05-.15,1.65-.3,3.3-.45,4.96-.08.87-.16,1.73-.24,2.6,0,.11-.02.21-.03.32-.03.37.68.27.71-.05.04-.45.08-.89.12-1.34.12-1.28.23-2.56.35-3.84.19-2.03.37-4.07.56-6.1.24-2.68.49-5.36.73-8.03.3-3.24.59-6.48.89-9.72.34-3.71.68-7.42,1.02-11.14.37-4.09.75-8.19,1.12-12.28.4-4.41.8-8.81,1.2-13.22.42-4.59.84-9.18,1.26-13.77.43-4.7.86-9.4,1.29-14.1.43-4.72.86-9.45,1.29-14.17.42-4.65.85-9.31,1.27-13.96.41-4.5.82-8.99,1.23-13.49.39-4.25.77-8.5,1.16-12.74.36-3.93.72-7.85,1.07-11.78.32-3.48.63-6.96.95-10.44.27-2.96.54-5.92.81-8.88.21-2.35.43-4.7.64-7.05l.45-4.96c.08-.87.16-1.73.24-2.6,0-.11.02-.21.03-.32.03-.37-.68-.27-.71.05h0Z"/>
        <path class="cls-4" d="M679.18,583.79c-.5,2.09,1.54,3.67,3.45,3.85,2.53.24,4.56-1.56,6.67-2.63,1.44-.73,2.91-1.03,4.28-.01.9.67,1.57,1.62,2.48,2.29,1.52,1.1,3.29.94,4.82-.05.85-.55,1.56-1.29,2.43-1.8,1.19-.69,2.23-.21,3.25.53,1.74,1.26,3.17,2.81,5.45,2.95,2.4.15,4.58-1.06,6.86-1.62,2.82-.69,4.95.92,7.59,1.53,1.19.27,2.37.23,3.54-.16,1.25-.42,2.39-1.27,3.68-1.55,2.58-.57,4.02,2.75,6.34,3.35.74.19,2.02-.89.99-1.16-2.01-.53-3.02-2.68-4.98-3.34s-3.92.45-5.71,1.26c-2.62,1.17-4.69-.35-7.18-1.07-2.3-.66-4.4-.16-6.61.59-1.1.37-2.24.82-3.41.9-1.39.1-2.46-.5-3.52-1.32-1.43-1.11-2.8-2.51-4.72-2.53-2.03-.03-3.3,1.43-4.86,2.48-2.25,1.51-3.6-1.21-5.22-2.37-2.11-1.51-4.71-.79-6.79.39-1.32.75-2.68,1.87-4.23,2.06s-3.23-1.05-2.83-2.7c.2-.83-1.55-.63-1.73.13h0Z"/>
        <path class="cls-4" d="M680.54,557.97c-.49,2.07,1.54,3.62,3.43,3.77,2.54.2,4.55-1.56,6.67-2.63,1.48-.75,2.99-1.01,4.35.08.86.69,1.52,1.59,2.42,2.23,1.51,1.08,3.3.89,4.81-.07.85-.54,1.56-1.29,2.43-1.8,1.19-.7,2.24-.17,3.26.56,1.74,1.26,3.16,2.8,5.44,2.92,2.4.13,4.58-1.08,6.85-1.63,2.83-.69,4.94.97,7.59,1.55,1.19.26,2.38.2,3.53-.18,1.25-.41,2.39-1.27,3.68-1.55,2.54-.56,4.04,2.77,6.34,3.38.65.17,2.02-.79,1.01-1.05-2.01-.53-3-2.72-4.98-3.34s-3.9.47-5.71,1.27c-2.62,1.17-4.7-.37-7.19-1.09-2.28-.65-4.42-.13-6.6.61-1.1.37-2.24.82-3.41.9-1.38.09-2.48-.54-3.53-1.35-1.43-1.11-2.78-2.49-4.72-2.51s-3.31,1.43-4.86,2.48c-2.23,1.51-3.61-1.24-5.23-2.4-2.06-1.48-4.65-.76-6.7.37-1.36.75-2.73,1.91-4.32,2.11s-3.25-1.15-2.86-2.79c.18-.74-1.56-.51-1.72.17h0Z"/>
        <path class="cls-4" d="M679.26,605.56c.87,2.41,2.93,4.1,5.39,4.72,2.72.69,4.98-.2,7.21-1.72.67-.46,1.39-.98,2.2-1.14.92-.18,1.77.21,2.56.64,1.23.67,2.4,1.49,3.84,1.6,1.26.1,2.47-.37,3.57-.92,1.17-.58,2.61-1.68,3.98-1.26.9.27,1.59,1.11,2.39,1.57.67.38,1.4.63,2.16.75,1.78.29,3.6-.06,5.34-.41,1.09-.22.74-1.47-.34-1.25-2.1.43-4.42.86-6.33-.41-1.38-.92-2.39-1.86-4.16-1.63-1.45.19-2.69,1.01-3.97,1.64-.92.45-1.84.79-2.87.48-.83-.25-1.56-.75-2.31-1.17-1.39-.78-2.83-1.27-4.43-.82s-2.83,1.73-4.33,2.46c-3.11,1.52-7.06-.43-8.19-3.57-.3-.82-2-.35-1.71.46h0Z"/>
        <g class="cls-49">
          <path class="cls-48" d="M655.94,536.74s-41.52-18.58-113.38-17.53l-27.32,167.98,54.16-.06c12.53-.76,35.01,1.45,47.44,3.32l27.53,2.37,11.57-156.09Z"/>
          <path class="cls-28" d="M499.05,704.76l5.21-54.22c15.82-2.83,53.71-6.61,82.76-3.85,33.33,3.17,61.51,10.46,82.74,20.07l-3.22,43.6-167.49-5.6Z"/>
          <path class="cls-29" d="M560.47,664.37c-.33,3.71,12.63,7.89,28.94,9.33,16.31,1.44,29.8-.41,30.13-4.12.33-3.71-12.63-7.89-28.94-9.33-16.31-1.44-29.8.41-30.13,4.12Z"/>
          <path class="cls-47" d="M613.98,656.14c-1.85,3.59-1.64,8.85-5.58,11.01-2.05,1.13-4.35,1.77-6.63,1.9-1.57.08-4.52-.63-5.84-1.66-2.49-1.95-1.45-8.91-1.19-11.7.37-4.09,2.27-9.97,6.37-11.71,3.13-1.33,6.2-.22,9.43-.23,2.21,0,7.63-4.23,7.48-1.06-.2,4.26-2.65,10.75-4.04,13.46Z"/>
          <path class="cls-47" d="M566.92,651.99c1.2,3.86.06,9,3.57,11.81,1.82,1.47,3.97,2.51,6.19,3.03,1.53.36,4.56.17,6.04-.61,2.79-1.48,2.98-8.52,3.22-11.31.35-4.09-.49-10.22-4.23-12.65-2.85-1.85-6.06-1.3-9.24-1.87-2.18-.39-6.78-5.5-7.18-2.35-.55,4.23.73,11.05,1.63,13.96Z"/>
          <path class="cls-47" d="M610.91,612.7c-6.15-6.13-23.76-7.86-31.74-3.33-8.78,4.98-17.41,29.37-12.72,37.63,4.84,8.51,44.04,12.58,49,4.31,5.46-9.11,2.5-31.58-4.55-38.6Z"/>
          <path class="cls-47" d="M610.48,628.25c13.74,1.23,27.17-7.59,32.51-20.08,2.26-5.28-7.29-9.93-10.61-3.75-4.9,9.11-10.6,10.36-20.2,9.49-5.72-.51-7.41,13.82-1.71,14.34h0Z"/>
          <path class="cls-47" d="M580.16,621.97c-13.32,3.61-28.08-2.73-35.51-14.1-3.14-4.81,5.13-11.35,9.47-5.85,6.41,8.11,12.57,8.66,21.86,6.13,5.54-1.5,9.71,12.32,4.18,13.82h0Z"/>
          <path class="cls-23" d="M605.36,610.8c-4-4.78-15.62-5.95-20.94-2.27-5.86,4.04-11.85,23.45-8.84,29.93,3.1,6.68,28.97,9.45,32.35,2.84,3.72-7.27,2.02-25.02-2.56-30.5Z"/>
          <g>
            <path class="cls-47" d="M614.39,564.94c-.35,3.99,5.08,9.98,9.07,10.33s9.03-5.19,9.38-9.18c.35-3.99-2.55-7.93-6.53-8.29-3.99-.35-11.57,3.14-11.92,7.13Z"/>
            <path class="cls-23" d="M614.45,567.63c-.25,2.88,3.67,7.2,6.54,7.45,2.88.25,6.01-4.97,6.26-7.85.25-2.88-.14-3.74-3.02-4-2.88-.25-9.53,1.51-9.79,4.39Z"/>
          </g>
          <g>
            <path class="cls-47" d="M584.39,562.28c-.35,3.99-6.75,8.94-10.74,8.58-3.99-.35-8.03-6.58-7.68-10.57.35-3.99,4-7.84,7.98-7.49,3.99.35,10.78,5.48,10.43,9.47Z"/>
            <path class="cls-23" d="M583.85,564.92c-.25,2.88-4.87,6.44-7.74,6.19-2.88-.25-5.05-5.95-4.8-8.82s.8-3.66,3.67-3.41c2.88.25,9.12,3.16,8.87,6.04Z"/>
          </g>
          <path class="cls-47" d="M619.41,563.89c-7.51-7.02-28.9-9.1-38.56-4.01-10.62,5.61-20.94,33.3-15.19,42.72,5.93,9.72,53.57,14.61,59.54,5.23,6.57-10.32,2.82-35.91-5.78-43.95Z"/>
          <g>
            <path class="cls-23" d="M583.97,597.72c-.54,6.16,4.77,7.81,11.46,8.4,6.68.59,12.2-.1,12.75-6.26.54-6.16-4.2-14.29-10.88-14.88-6.68-.59-12.78,6.59-13.32,12.75Z"/>
            <path class="cls-47" d="M597.49,582.7c-2.1-.19-5.62,6.55-5.2,7.11.45.59,7.91,1.21,9.78.99,0,0-2.49-7.91-4.58-8.1Z"/>
            <path class="cls-32" d="M607.01,585.04c-.24,2.67,1.22,4.99,3.25,5.16,2.03.18,3.87-1.84,4.1-4.52s-1.22-4.99-3.25-5.16c-2.03-.18-3.87,1.84-4.11,4.52Z"/>
            <path d="M610.78,584.32c1.62.14,2.94.93,3.26,2.89-.66,1.88-2.15,3.14-3.78,3s-2.87-1.65-3.19-3.61c.66-1.88,2.09-2.42,3.71-2.28Z"/>
            <path d="M601.54,591.75c1.11-1.01.5-1.97-1.35-2.13l-6.03-.53c-1.85-.16-2.62.67-1.7,1.86,0,0,3.38,4.08,4.11,4.14.76.07,4.97-3.34,4.97-3.34Z"/>
            <path class="cls-30" d="M610.92,578.88s.05-.01.08-.02c.1-.02-.24.04-.08.02.04,0,.09-.01.13-.02.11-.01.22-.02.33-.03.03,0,.06,0,.09,0-.23.02-.12,0-.05,0,.08,0,.15,0,.23,0,.07,0,.14.01.21.02.04,0,.07.01.11.02.09.01-.07-.01-.07-.01.02.01.06.01.08.02.08.02.15.04.23.06s.2.04.26.09c0,0-.12-.06-.04-.02.02,0,.04.02.06.03.04.02.08.04.11.06.08.04.16.09.23.14.04.03.08.06.12.09.02.01.07.06-.02-.01.02.02.03.03.05.04.07.07.14.14.21.21.08.09.15.19.21.28.04.06.07.11.1.17,0-.02-.03-.07,0,0,.02.03.03.06.05.1.13.28.21.58.27.89s.57.29.79.22c.25-.07.63-.27.57-.58-.18-.98-.71-1.91-1.65-2.34-.7-.32-1.48-.41-2.24-.33-.2.02-.39.05-.58.1-.23.06-.65.28-.57.58s.56.28.79.22h0Z"/>
          </g>
          <path class="cls-32" d="M579.91,582.65c-.24,2.67,1.22,4.99,3.25,5.16s3.87-1.84,4.1-4.52c.24-2.67-1.22-4.99-3.25-5.16-2.03-.18-3.87,1.84-4.11,4.52Z"/>
          <path d="M583.68,581.93c1.62.14,2.94.93,3.26,2.89-.66,1.88-2.15,3.14-3.78,3-1.62-.14-2.87-1.65-3.19-3.61.66-1.88,2.09-2.42,3.71-2.28Z"/>
          <path class="cls-30" d="M585.35,576.17c-1.28-.57-2.96-.54-4.07.37-.53.43-.9.98-1.14,1.61-.26.69,1.09.61,1.28.11.1-.25.21-.5.35-.73.03-.05.06-.1.1-.14-.06.08.03-.03.05-.06.07-.09.15-.17.23-.25.02-.01.03-.03.05-.04.06-.06-.09.07-.02.02.04-.03.08-.06.11-.09.03-.02.07-.04.1-.07,0,0,.06-.04.07-.04,0,0-.14.07-.05.03.08-.04.16-.07.24-.11.11-.05-.17.05-.02,0,.05-.01.09-.03.14-.04.04-.01.08-.02.12-.03.12-.03-.17.02-.03,0,.09-.01.17-.02.26-.03.04,0,.08,0,.12,0,.02,0-.16,0-.03,0,.08,0,.16,0,.24.01.07,0,.14.01.21.02.03,0,.07.01.1.02.08.01-.16-.03-.02,0,.11.02.22.05.33.08.09.03.18.05.26.09.11.04.12.05-.02-.01.31.14.68.1.97-.1.18-.13.4-.49.09-.64h0Z"/>
          <path class="cls-23" d="M603.99,604.98c-1.47,1.42-2.93,2.84-4.4,4.25-.04-.52-.09-1.04-.13-1.56-1.43.99-2.93,1.86-4.5,2.6.15-.72.11-1.48-.12-2.18-.27.48-.61.92-.99,1.31-.12.13-.28.26-.45.22-.14-.03-.22-.16-.3-.28-.42-.7-.85-1.39-1.27-2.09.06.56-.09,1.36-.65,1.31-.34-.03-.53-.38-.68-.68-.56-1.09-1.32-2.07-2.24-2.87-.23-.2-.49-.44-.47-.74.04-.54.8-.59,1.33-.5,1.99.33,4.05.29,6.03-.13"/>
          <path class="cls-23" d="M607.99,641.23c-1.05,2.25-2.82,4.15-4.99,5.34.12-.3.24-.61.36-.91-1.29.61-2.59,1.21-3.88,1.82.17-.48.35-.95.52-1.43-1.87.94-3.83,1.71-5.84,2.3.19-.59.19-1.48-.42-1.55-.17-.02-.34.05-.51.11-.4.17-.81.33-1.21.5-.33.14-.69.28-1.04.21-.31-.06-.57-.28-.82-.49-.78-.67-1.56-1.34-2.33-2.01-.07.53-.15,1.06-.22,1.59-1.47-.6-2.87-1.36-4.18-2.26-.06.46-.12.92-.18,1.38-1.28-.76-2.46-1.69-3.48-2.78-.09.64-.19,1.29-.28,1.93-1.53-1.77-2.77-3.79-3.65-5.96-.38-.93-.64-2.13.07-2.84.57-.58,1.51-.53,2.31-.43,1.92.25,3.83.62,5.7,1.13"/>
          <path class="cls-47" d="M596,668.49c3.88,1.47,7.14.99,11.23.29.4-.07.81-.16,1.15-.38,1.01-.67.9-2.3.1-3.22s-2.04-1.28-3.21-1.62c-1.92-.55-3.89-1.1-5.88-.9-1.99.2-4.01,1.32-4.68,3.2,0,0-1.25,1.66,1.3,2.62Z"/>
          <path class="cls-47" d="M571.36,666.72c3.88,1.47,7.14.99,11.23.29.4-.07.81-.16,1.15-.38,1.01-.67.9-2.3.1-3.22-.81-.91-2.04-1.28-3.21-1.62-1.92-.55-3.89-1.1-5.88-.9-1.99.2-4.01,1.32-4.68,3.2,0,0-1.25,1.66,1.3,2.62Z"/>
          <polygon class="cls-32" points="609.01 583.72 610.03 586.89 607.59 584.41 609.01 583.72"/>
          <polygon class="cls-32" points="581.96 581.7 582.98 584.87 580.54 582.39 581.96 581.7"/>
          <path class="cls-51" d="M600.89,599.79s-1.19,4.11-5.25,3.88c-4.06-.23-4.8-4.51-4.8-4.51,0,0,4.59.44,5.22-1.04,0,0,1.39,1.77,4.83,1.67Z"/>
          <path d="M595.6,598.34c1.37,1.64,3.74,2.36,5.7,1.38,1.08-.54,1.9-1.42,2.59-2.38.15-.21-.13-.35-.29-.37-.25-.03-.52.09-.67.3-.62.87-1.43,1.77-2.48,2.12-.65.21-1.32.15-1.95-.08-.74-.27-1.46-.78-1.97-1.39-.26-.31-1.24.07-.94.42h0Z"/>
          <path d="M588.04,596.21c.74,1.3,1.73,2.55,3.13,3.16.95.41,2.02.44,3,.17.7-.19,1.37-.53,1.95-.96.11-.08.22-.16.31-.25.21-.22.17-.61.19-.89.08-.93.16-1.85.25-2.78.05-.53-.99-.39-1.03.08-.1,1.15-.2,2.29-.3,3.44l.18-.27c-.13.11-.26.21-.4.31-.2.14-.2.13-.4.24s-.41.21-.62.29c-.36.13-.88.25-1.34.23-.65-.02-1.27-.26-1.8-.62-.95-.64-1.63-1.6-2.18-2.58-.23-.4-1.19-.02-.93.45h0Z"/>
          <path class="cls-1" d="M660.49,510.83s-45.17-21.3-123.5-19.72l-15.22,195.5h39.32c17.93.61,38.57,1.84,56.01,2.3l29.99,2.61,13.4-180.7Z"/>
        </g>
      </g>
      <rect class="cls-26" x="782.1" y="584.61" width="13.03" height="24.72" rx="6.52" ry="6.52" transform="translate(1311.12 -242.84) rotate(84.76)"/>
      <rect class="cls-26" x="783.23" y="572" width="13.03" height="25.92" rx="6.52" ry="6.52" transform="translate(1593.15 18.9) rotate(108.31)"/>
      <rect class="cls-26" x="783.62" y="600.95" width="13.03" height="19.5" rx="6.52" ry="6.52" transform="translate(1386.2 -190.53) rotate(88.95)"/>
      <rect class="cls-26" x="786.02" y="561.36" width="13.03" height="22.16" rx="6.52" ry="6.52" transform="translate(1584.93 -.19) rotate(108.31)"/>
      <path class="cls-26" d="M468.81,683.11l4.29.29s35.77,26.46,48.38,29.68c9.25,1.95,18.91,2.48,28.7,1.58l9.33,6c4.29,2.76,9.59,3.71,14.99,2.7l4.16-.78s9.29,11.11,13.27,7.75c3.97-3.37,1.68-8.66-.55-13.81-2.23-5.14-65.65-64.35-65.65-64.35,8.21-1.07,20.65,4.27,28.7,4.68,12.35.73,17.96-3.8,14.57-9.54-2.09-3.54-10.83-7.99-18.16-6.54-7.3,1.45-34.49-13.99-47.31-12.86-12.81,1.13-26.53,14.62-26.53,14.62-6.84,1.51-3.69.65-3.69.65l-4.5,39.93Z"/>
      <path class="cls-50" d="M578.4,721.81c-4.09-3.99-8.87-7.36-13.4-10.81-5.65-4.3-11.35-8.54-16.87-13.01-2.14-1.74-4.32-3.49-6.22-5.5-.35-.37-2.07.28-1.72.66,3.92,4.14,8.73,7.54,13.23,11,5.63,4.33,11.34,8.56,16.92,12.96,2.17,1.71,4.37,3.43,6.35,5.37.38.37,2.08-.31,1.72-.66h0Z"/>
      <path class="cls-50" d="M549.25,713.14c-6.11-3.9-12.21-7.8-18.32-11.71-.87-.56-1.74-1.11-2.61-1.67-.63-.4-2.27.47-1.43,1.01,6.11,3.9,12.21,7.8,18.32,11.71.87.56,1.74,1.11,2.61,1.67.63.4,2.27-.47,1.43-1.01h0Z"/>
      <path class="cls-45" d="M365.06,239.87c-.02.1-.03.19-.04.29-.01-.13,0-.24.04-.29Z"/>
      <path class="cls-26" d="M420.1,313.73l33.03,6.4,17.23.1c1.66.42,12.79-14.69,14.41-16.56,5.05-5.79,11.65-13.38,15.49-20.06,4.11-7.15,10.52-12.69,13.84-21.68,2.43-6.58,3.57-11.33,2.51-23.23-.27-3.02.35-5.83,1.75-8.68,2.96-6.01,5.22-13.32,8.99-21.42.3-.64,1.84-3.69,1.74-4.48,0,0,9.79-35.15,6.34-49.35-3.45-14.2-11.67-22.25-20.45-26.84-8.78-4.59-36.74-9.35-36.74-9.35l-36.81-14.36-36.12,8.45-25.63,35.48-8.3,46.2-4.66,41.91"/>
      <path d="M383.01,193.49c-.64,3.57-.32,22.19-.72,25.73l-18.17-4.6c-2.69-13.37-5.99-29.14-7.33-32.87-2.09-5.82,13.09-28.76,15.04-38.06l.42-2c1.85-8.92,13.6-21.04,31.44-32.42,30.69-19.59,29.53-20.15,67.16-8.56,2.59.8,5.15,1.69,7.6,2.66,23.23,9.14,43.4,13.43,54.07,37.12,7.7,17.09,3.55-3.1.28,6.79,3.96-20.11,3.97-2.77,2.45-5.59-8.9-16.53-18.26-3.26-23.97-5.51-4.98-1.96-9.17-1.47-10.01-1.35-6.15-.04-11.61-2.1-17.57-4.44-4.44-1.74-15.46-7.07-16.4-7.52-2.6-2.87,2.87-14.26-2.64-16.43-12.81-5.04-32.29-3.4-39.38-1.91-8.38,1.76-28.26,5.2-30.44,26.08"/>
      <path class="cls-26" d="M369.71,241.82c-13.59,12.21-15.3-14.24-15.3-14.24-7.23-14.87-3.97-28.02-1.38-36.92,2.59-8.9,12.45-6.32,12.45-6.32,8.17,2.99,10.81,8.42,10.84,38.48"/>
      <path class="cls-19" d="M507.86,126.89c-13.65-3.38-47.44-21.13-65.76-26.57-7.59-2.25-37.52,10.92-41.84,14.49-9.9,8.19,2.46,35.06-17.97,63.72-6.75,9.47-8.63-10.26-15.69-4.67-7.07,5.59-9.8,7.88-9.8,7.88,2.92-31.26,2.79-30.17,16.36-58.59,13.54-28.33,49.12-33.92,65.47-32.81s65.82,17.74,78.03,27.25"/>
      <path d="M448.93,205.87c-1.81-1.61-4.49-1.29-6.16-.43-.39.2-1.46.8-2.21,2.07-.96,1.62-.76,3.79.03,5.27,1.06,1.98,3.44,2.88,5.54,2.48,2.85-.55,4.46-3.4,4.39-5.79-.01-.44-.13-2.3-1.59-3.6"/>
      <path d="M508.99,221.51c2.36-.55,4.56,1,5.62,2.55.25.36.91,1.4.96,2.87.07,1.88-1.13,3.69-2.54,4.62-1.88,1.24-4.4.9-6.05-.45-2.25-1.83-2.3-5.11-1.1-7.18.22-.38,1.2-1.96,3.11-2.41"/>
      <path d="M489.63,225.02s10.52-6.27,16.81-5.28c9.18,1.44,10.97,4.05,13.1,8.96,0,0-4.79-5.78-11.28-6.63-6.21-.81-18.64,2.94-18.64,2.94Z"/>
      <path d="M461.05,215.47s-10.57-11.11-16.7-12.83c-8.95-2.51-21.02.09-25.01,3.66,0,0,16.12-4.24,22.38-2.3,5.98,1.85,19.33,11.47,19.33,11.47Z"/>
      <path d="M471.84,184.47c-.55,2.14-1.1,4.28-1.65,6.43-.42,1.63-1.27,5.39-1.7,7.02-4.8-2.69-8.92-5.93-12.1-7.37-6.3-2.85-12.64-6.23-19.59-6.88-3.32-.31-6.34-.2-9.43.77-.97.31-3.82,1.99-4.93,1.09-.46-.37,1.06-2.79,1.22-3.04,3.08-4.87,8.15-5.94,13.99-5.8,11.89.27,23.13,3.43,34.19,7.78"/>
      <path d="M530.78,201.44s-3.54-1.69-3.57-1.7c-9.9-4.77-20.46-6.66-31.38-7.38-.45,2.16-.89,4.33-1.34,6.5-.34,1.65-1.05,4.62-1.38,6.27,5.07-.4,9.55-1.2,12.76-1.16,6.38.09,13.11.1,19.1,2.43.47.18,3.02,1.23,3.47,1.43,2.59-2.58,3.09-5.74,2.33-6.39Z"/>
      <path d="M444.19,286.23l23.36,5.64s-7.71,7.59-13.36,6.16c-3.53-.89-7.24-6.88-10-11.8Z"/>
      <g>
        <path class="cls-7" d="M473.78,258.46c-2.99.74-6.92-.6-9.15-2.95-.49-.52-2.55-.66-1.85.08,2.94,3.11,8.66,4.77,12.51,3.81.38-.1.39-.38,0-.63-.4-.26-1.11-.41-1.51-.31"/>
        <path class="cls-7" d="M461.83,254.52c-1.55-1.3-3.43-2.26-5.37-2.92-.28-.09-.69-.08-.95.06-.21.11-.29.31-.11.49.78.77,1.89,1.28,2.96,1.54.34.08.81.11,1.07-.14.24-.23-.03-.49-.3-.55-.89-.21-1.74-.61-2.39-1.25-.35.18-.71.37-1.06.55,1.73.59,3.4,1.46,4.79,2.62.28.23.75.25,1.08.15.24-.07.54-.32.27-.55"/>
        <path class="cls-7" d="M453.9,252.79c-2.3-.65-4.77-2.37-5.45-4.44-1.04-3.13,1.62-6.9,4.95-7.89.36-.11.26-.39-.05-.54-.39-.2-.92-.16-1.3-.05-2.9.86-5.4,3.86-5.66,6.49-.24,2.45,1.56,4.66,4.16,6.05.77.41,1.62.77,2.48,1.01.35.1,1.01.15,1.25-.09.25-.24-.04-.45-.37-.54"/>
        <path class="cls-7" d="M478.33,258.33c-.06-.3.22-.42.4-.37.62.18,1.31.16,1.95-.15.14.31.28.62.42.92-1.29-.18-2.65-.07-3.96.41-.26.1-.56-.08-.71-.31-.12-.17-.2-.5.06-.6"/>
        <path class="cls-7" d="M476.49,258.23c1.47-.54,2.99-.64,4.43-.44.21.03.45.21.55.44.08.18.05.39-.13.48"/>
        <path class="cls-7" d="M483.07,259.87c1.52.32,3.56-.26,4.75-1.86,1.8-2.41,1.57-5.88.12-8.07-.16-.24.01-.45.24-.47.29-.02.57.22.74.47,1.26,1.92,1.71,4.62.82,7.09-.83,2.3-2.69,3.59-4.66,3.82-.59.07-1.19.06-1.76-.06-.23-.05-.61-.26-.65-.57-.04-.31.2-.38.42-.34"/>
      </g>
      <path d="M513.82,134.28c-.8-1.07-2.28-1.71-3.68-2.3l-1.45-.86c-4.61-1.13-9.24-2.12-13.9-2.97-1.17-.21-2.39-.42-3.5-.22-.12.02-.23.05-.35.08-3.39-.92-6.79-1.8-10.21-2.59l-1.66.05c-1.5-.14-3.11-.26-4.28.22-1.17.48-1.51,1.84-.26,2.57,1.3.77,3.54.51,4.32,1.53.86,1.12-1.47,1.94-1.08,3.13.25.74,1.43,1.24,2.13,1.89.83.78.94,1.75,1.7,2.56.77.82,2.23,1.37,3.51,1.32,1.27.4,3.13.28,3.33,1.27.05.26-.07.51-.14.76-.28.97.3,2.15,1.41,2.82,1.11.68,2.67.82,3.76.34,1.06-.47,1.63-1.43,2.74-1.83.35-.13.75-.2,1.14-.27.25.38.6.72,1.04.98,1.11.68,2.67.82,3.76.34,1.06-.47,1.63-1.43,2.74-1.83.93-.34,2.22-.28,2.8-.93.92-1.04-.75-3.02.55-3.77,1.18-.68,3.05.68,4.57.51,1.46-.16,1.81-1.73,1.01-2.8Z"/>
      <g>
        <path d="M358.15,184.04c-1.39-.37-2.84-.78-3.9-1.76-1.06-.98-1.55-2.72-.7-3.88,1.35-1.84,5.15-1.38,5.4-3.65-1.36-2.57-5.91-2.66-6.38-5.52-.38-2.32,2.34-3.8,4.57-4.54-1.1-1.62-.95-.34-2.7-1.21-1.75-.87-1.82-5.58-.43-6.95,1.58-1.55,1.92.05,1.67-2.15-1.38-.78,2.14-1.33,1.24-2.64s-1.07-3.25.03-4.38c1.33-1.36,1.4-2.58,1.77-4.45.31-1.6,3.48-1.2,2.81-2.68-1.22-2.69,1.77-5.31,4.34-6.77-1.08-1.12.52-1.05,0-2.52-.52-1.47-.28-3.33.99-4.24.77-.56,1.77-.68,2.63-1.1,3.52-1.74,2.74-6.91,1.42-10.61,2.62.83,5.75-.69,6.72-3.26.46-1.21.49-2.59,1.2-3.67.71-1.08,2.6-1.52,3.18-.37"/>
        <path d="M359,183.03c-1.43-.39-3.24-.79-4.03-2.19-.69-1.23-.31-2.23.93-2.72,1.46-.59,5.22-1.54,4.47-3.89-.64-2.02-3.67-2.71-5.2-3.8-.85-.61-1.44-1.56-.93-2.61.55-1.13,2.08-1.73,3.19-2.11.62-.21,1.64-.89,1.08-1.68-.36-.51-.75-1-1.36-1.21-.41-.14-.98-.05-1.23-.11-1.22-.26-1.37-2.06-1.36-3.06s.23-2.52,1.05-2.89c1.16-.52,1.8-.89,1.62-2.29-.03-.25-.04-.9-.39-.95.23.03-.6.82-.01.62.42-.14.99-.69,1.26-1.01,1.1-1.29-.19-2.21-.35-3.56-.13-1.07.38-1.56.97-2.35.5-.66.83-1.38,1.06-2.18.16-.56.15-1.83.49-2.24.25-.3.97-.39,1.32-.55.55-.26,1.15-.63,1.43-1.2.36-.75-.12-1.3-.2-2.04-.24-2.1,2.2-3.76,3.76-4.68.46-.27,1.21-.94.69-1.54-.3-.35-.2-.02-.15-.3s.34-.58.38-.92c.13-.94-.44-1.79-.32-2.76.18-1.39,1.07-1.61,2.24-2.05.95-.35,1.82-.85,2.51-1.6,2.61-2.8,1.61-7.37.48-10.6l-2.32,1.4c2.61.73,5.43.06,7.41-1.82.97-.92,1.54-2.02,1.88-3.3.11-.4.73-3.41,1.3-2.53.74,1.13,3.55,0,2.7-1.31-1.67-2.56-5.53-.52-6.37,1.71-.53,1.42-.53,3.05-1.64,4.19-.93.96-2.29,1.41-3.6,1.05-.74-.21-2.73.23-2.32,1.4.66,1.88,1.19,3.9,1.08,5.91-.05.86-.2,1.75-.67,2.48-.6.94-1.57,1.13-2.55,1.51-2.04.79-3.3,2.51-3.14,4.73.04.49.36,1.15.33,1.62-.02.28-.14.32-.27.59-.33.73-.21,1.28.31,1.89l.69-1.54c-1.74,1.01-3.45,2.22-4.57,3.93-.47.72-.83,1.53-.88,2.4-.03.41.02.85.12,1.24.04.13.1.54.2.58.03.01.3-.33.32-.31-.07-.07-1.45.61-1.58.69-.66.36-1.23.86-1.5,1.58-.31.84-.3,1.78-.6,2.62-.34.97-1.12,1.54-1.59,2.42-.4.77-.52,1.65-.41,2.5.06.46.19.9.37,1.32.09.21.42,1.01.5.71.01-.04-.63.41-.84.57-.47.37-1.02.9-.89,1.56.05.25.2.36.3.55-.02-.04.35.49.06.19.03.04,0,.37.01.37-.13-.03,1.62-.91.65-.74-.39.07-.81.31-1.15.52-1.35.86-1.98,2.2-2.16,3.76s-.03,3.34.9,4.58c.47.63,1.2.98,1.94,1.17.35.09.9.22,1.26.12.51-.14-.87.26-.37-.13.05-.04.46.57.46.57l1.08-1.68c-2.56.88-6.59,2.82-5.71,6.21.71,2.75,4.07,2.99,5.85,4.72.44.43.62.47.16.77-.42.28-.95.4-1.42.56-1.35.47-2.8,1.02-3.6,2.29s-.58,2.99.32,4.21c1.13,1.54,3.09,2.13,4.84,2.61.71.19,1.6.05,2.09-.56.4-.5.31-1.26-.39-1.45h0Z"/>
      </g>
      <g>
        <path d="M379.58,113.6c.74-1.61,4.04-9.32,4.78-10.93,1.95,1.29,5.01.14,5.62-2.12.31-1.13.24-2.63,1.31-3.09,1.1-.47,2.2.68,3.38.88,2.62.43,3.89-3.7,6.53-4.08,1.65-.24,3.2,1.12,4.85.96,2.51-.25,3.64-3.69,6.11-4.18,1.71-.34,3.39.88,5.13.78,3.77-.21,6.13-5.2,9.83-4.45,1.35.28,2.41,1.46,3.78,1.63,2.46.3-.59-2.99,1.88-2.81,2.27.16,3.52,2.86,5.68,3.58,3.51,1.17,7.21-4.33,10.26-2.24,1.31.9,1.74,2.71,3.02,3.66,2.98,2.22,7.43-1.79,10.78-.19,1.68.8,2.57,2.85,4.33,3.47,2.73.97,5.65-2.05,8.43-1.23,2.21.65,3.34,3.5,5.62,3.86,1.6.25-1.91-2.33-.3-2.22,2.75.19,4.11,3.56,6.63,4.69,2.11.94,4.55.12,6.86.05,2.31-.07,6.21,5.26,5.8,7.53"/>
        <path d="M380.96,113.67c1.66-3.61,3.12-7.31,4.78-10.93l-2.55.68c2.24,1.33,5.4.66,7.17-1.16.86-.89,1.1-1.9,1.33-3.07.05-.25.23-.65.23-.9l.13-.24c-.8.11-.89.22-.27.35.53.42,1.5.72,2.16.82,2.63.4,4.29-1.47,5.97-3.15.28-.28.62-.71,1-.85.54-.2,1.1.09,1.63.27,1.58.54,3.03.88,4.66.29,1.05-.38,1.91-1.06,2.69-1.84.82-.82,1.65-2.2,2.95-2.01,1.46.21,2.74.89,4.26.78,1.38-.1,2.68-.63,3.85-1.35.95-.59,1.79-1.32,2.69-1.98s1.8-1.41,2.95-1.05c1.33.42,2.29,1.46,3.75,1.59,1.01.09,2.45-.17,2.93-1.2.24-.51.16-1.37-.04-1.88-.01-.03,0-.21-.02-.24l-.99.52c.19.02.37.08.54.16.68.28,1.23.84,1.77,1.33,1.94,1.76,3.88,2.74,6.53,1.95,1.1-.33,2.1-.87,3.1-1.42.75-.41,1.82-1.25,2.73-1.13,1.12.15,1.8,1.73,2.35,2.54.79,1.15,1.81,1.93,3.2,2.18,2.64.46,4.95-1.03,7.52-1.17,2.71-.15,3.8,3.25,6.31,3.89,1.21.31,2.51.11,3.68-.24,1.25-.37,2.78-1.35,4.12-1.16,1.18.17,2.05,1.31,2.85,2.08.95.92,2.04,1.79,3.42,1.91.82.07,2.58-.28,2.46-1.43-.05-.48-.75-1.43-1.12-1.73v-.02c-.18-.69-.72-.38-1.63.95.25.15.64.17.92.31.6.31,1.09.79,1.56,1.26,1.02,1.01,1.97,2.16,3.26,2.83,1.56.81,3.34.81,5.05.64,1.54-.15,2.75-.64,4.03.38,1.56,1.24,3.82,3.95,3.54,6.1-.17,1.28,2.82.78,2.96-.32.32-2.46-1.84-5.29-3.57-6.81-.85-.74-1.83-1.4-2.98-1.47-2.09-.14-4.4.94-6.43.1-2.78-1.16-3.89-4.67-7.24-4.84-.9-.05-2.75.41-2.43,1.67.08.33.4.68.6.94.09.12.27.45.4.52.43.23-.63.52.33-.31l.98-.52c.84-.26.31.02.02-.26-.18-.17-.49-.29-.69-.45-.34-.26-.63-.57-.94-.87-.73-.72-1.48-1.5-2.41-1.97-1.91-.96-4.02-.42-5.92.26-.84.3-1.82.83-2.74.77-1.15-.08-1.95-1.15-2.68-1.91-1.42-1.47-2.96-2.23-5.04-2.12s-3.93,1.11-5.95,1.24c-2.27.14-2.77-2.26-4.09-3.58-3.13-3.15-6.79.46-9.9,1.49-1.82.6-3.13-1.29-4.39-2.3-1.39-1.11-3.4-1.81-5.07-.84-.54.31-.91.72-.98,1.36-.02.19.05,1.53.18,1.6,0,0,.98-.58.98-.6,0,.04-.84-.36-.92-.41-.5-.27-.98-.59-1.5-.82-.93-.41-1.95-.54-2.96-.41-1.92.24-3.49,1.32-4.98,2.48-.71.55-1.43,1.15-2.22,1.58-.98.54-1.78.4-2.84.1-2.23-.64-4.34-.77-6.3.67-1.15.84-2.52,3.32-4.08,2.95-1.32-.31-2.46-.96-3.86-.88-1.05.06-2.06.43-2.93,1.03s-1.56,1.4-2.29,2.15c-.7.72-.87,1.09-1.75.72-1.21-.51-2.22-.99-3.56-.63-1.08.3-1.92.99-2.28,2.05-.33.95-.23,2.09-.88,2.9-.69.86-1.65.9-2.55.37-.68-.4-2.2-.08-2.55.68-1.66,3.61-3.12,7.31-4.78,10.93-.63,1.37,2.32,1.13,2.77.15h0Z"/>
      </g>
      <g>
        <path d="M527.96,124.01c-.33-.24-.66-.49-.96-.75-1.57-1.34-2.39-4.3-.51-5.16-3.93.71-5.22-6.13-9.15-6.89-1.13-.22-2.29.12-3.43.08-2.99-.13-5.41-3.4-4.65-6.29-3.16.97-6.71.62-9.62-.95l-28.31,2.9c11.13,4.9,22.06,11.75,32.94,15.51,5.24,1.81,10.54,3.82,14.83,7.34,3.12,2.56,7.38,4.51,10.57,7.2-.55-4.33-1.09-8.67-1.71-12.99Z"/>
        <path d="M529.34,123.48c-.95-.7-1.76-1.4-2.19-2.53-.24-.65-.59-2.11.21-2.55,1.12-.61.27-1.08-.63-.95-1.31.19-2.6-1.68-3.28-2.56-1.03-1.33-2-2.85-3.48-3.73-.79-.47-1.63-.68-2.55-.71-1.26-.04-2.54.37-3.75-.11-2.14-.84-3.44-3.35-2.95-5.58.15-.7-1.35-.42-1.62-.34-2.75.79-5.33.28-7.91-.82-.68-.29-1.24-.22-1.94-.15l-5.86.6c-5.79.59-11.58,1.18-17.37,1.78-1.49.15-2.98.3-4.47.46-.39.04-2.47.83-1.44,1.29,8.18,3.62,15.93,8.09,24.04,11.86,3.9,1.81,7.9,3.24,11.92,4.73,3.86,1.43,7.67,3.12,10.96,5.63,3.61,2.77,7.74,4.83,11.24,7.73.54.45,2.97-.03,2.86-.93-.55-4.33-1.09-8.67-1.71-12.99-.11-.75-3.08-.11-2.95.79.62,4.32,1.16,8.66,1.71,12.99l2.86-.93c-3.1-2.56-6.77-4.28-9.95-6.71-3.31-2.53-6.74-4.52-10.61-6.07s-7.97-2.84-11.85-4.56c-4.16-1.84-8.22-3.92-12.26-6-4.57-2.35-9.15-4.71-13.85-6.8l-1.44,1.29c8.25-.84,16.49-1.69,24.74-2.53,1.19-.12,2.38-.24,3.57-.37l-.95-.03c3.4,1.75,7.33,1.94,10.97.89l-1.62-.34c-.5,2.3.56,4.69,2.57,5.92,1.03.63,2.17.86,3.36.83,1.43-.04,2.66-.37,3.9.51,3.07,2.2,4.06,6.91,8.62,6.26l-.63-.95c-3.16,1.72-1.2,5.13.97,6.74.72.54,3.36-.63,2.76-1.07Z"/>
      </g>
      <g>
        <path d="M468.99,109.82l-34.88-12.33-33.13,11.69-18.61,35.14,1.05,30.53h0l-5.4,44.17c1,.32,1.99.63,2.99.95.31.1.65.2.95.09.76-.28.58-1.37.53-2.18-.12-1.88,1.25-3.47,2.36-4.98,1.12-1.51,2.08-3.56,1.16-5.2-.49-.87-1.47-1.57-1.39-2.56.11-1.29,1.81-1.63,2.85-2.4,1.62-1.21,1.38-4.13-.42-5.06,0,0,2.71-1.98,2.9-6.95.18-4.97-.19-10.4-.19-10.4h0c.36-.28.71-.58,1-.93,2.09-2.6.18-6.85,2.04-9.62.83-1.24,2.31-1.98,3.04-3.29,1.39-2.5-.57-5.72.28-8.45.96-3.07,5.25-4.96,4.64-8.11-.3-1.54-1.77-2.68-1.98-4.23-.37-2.71,3.15-5.45,1.6-7.7-.54-.78-1.57-1.17-1.97-2.03-.8-1.73,1.42-3.2,2.5-4.78,1.11-1.63.99-3.79,1.6-5.66.61-1.88,2.84-3.62,4.44-2.46-.42-3.24,3.1-11.11,6.21-10.11,1.53.49,3.4,1.66,4.5.49.78-.84.4-2.29,1.1-3.21,1.76-2.33,5.41,2.42,8.05,1.14.71-.35,1.15-1.08,1.79-1.55,1.45-1.06,3.5-.54,5.1.3,1.59.83,3.15,1.95,4.95,1.98,1.8.03,3.71-1.8,2.92-3.41,1.59,1.4,3.25,2.85,5.29,3.41,2.04.56,4.57-.05,5.54-1.93-.05,3.02,4.18,5.06,6.52,3.14.93-.77,1.72-2.03,2.92-1.93.54.05,1,.38,1.41.72,1.84,1.54,3.34,8.46,4.05,10.76l1.68-13.05Z"/>
        <path d="M469.85,108.87c-5.77-2.04-11.55-4.08-17.32-6.12-4.01-1.42-8.01-2.83-12.02-4.25-1.81-.64-3.67-1.5-5.54-1.96-.83-.2-1.5.13-2.26.4-1.27.45-2.54.9-3.82,1.35-3.95,1.39-7.89,2.79-11.84,4.18l-11.8,4.16-3.57,1.26c-.76.27-1.64.47-2.11,1.16-1.04,1.54-1.8,3.39-2.67,5.04-1.94,3.66-3.88,7.32-5.82,10.98-3.29,6.22-6.59,12.44-9.88,18.66-.63,1.2-.26,2.78-.21,4.09.14,4.09.28,8.18.42,12.27s.28,8,.41,12c.04,1.2.16,2.4.01,3.6-.84,6.84-1.67,13.68-2.51,20.52-.88,7.23-1.77,14.46-2.65,21.7-.05.42-.1.84-.15,1.25s.26.71.63.83c1.5.48,3.45,1.53,5.06,1.04,1.43-.43,1.85-1.51,1.8-2.89-.15-3.59,3.81-5.51,3.86-9.07,0-.71-.15-1.38-.5-1.99-.32-.55-1.01-1.08-1.18-1.7-.31-1.12,2.06-1.73,2.74-2.41,1.72-1.76,1.43-4.83-.72-6.09l-.18,1.45c2.32-1.74,3.29-4.94,3.42-7.7.12-2.52.05-5.07-.05-7.59-.04-.9.27-2.86-.5-3.52-.06.48-.12.97-.18,1.45,1.84-1.45,2.54-3.22,2.62-5.53s-.18-4.6,1.68-6.36c1.78-1.68,2.96-3.07,2.79-5.65-.15-2.25-.99-4.54.37-6.59,1.08-1.63,2.77-2.8,3.65-4.58,1.03-2.11.03-3.69-1.03-5.52-1.26-2.17.3-3.88,1.07-5.9.78-2.04.18-3.26-1.38-4.63-1.18-1.03-.63-1.94.26-2.95s1.71-1.88,2.16-3.12c.32-.87,1.09-7.33,2.89-6.22.88.54,2.75,0,2.62-1.22-.27-2.58,1.21-5.9,2.84-7.83,1.05-1.24,1.08-.9,2.57-.34,1.66.62,3.73.79,5.04-.66.63-.7.73-1.56.9-2.45.04-.18.09-.35.13-.53l.06-.19c.21-.22.21-.27,0-.14.07.2-.41-.14-.23.1,0-.01.51.14.42.11,1.31.41,2.43,1.29,3.76,1.66,1.59.45,3.24.21,4.51-.89.7-.61,1.09-1.31,2.11-1.22,1.11.1,2.13.73,3.08,1.26,2.05,1.14,4.3,2.12,6.64,1.21,1.73-.68,3.52-2.46,2.75-4.46l-2.62,1.22c2.02,1.78,4.27,3.63,7.08,3.8,2.47.15,5.03-.79,6.3-3h-2.89c.06,2.23,1.66,3.92,3.78,4.53,1.11.32,2.3.33,3.41,0,1.28-.38,2.08-1.2,3.03-2.08.21-.2.63-.3.24-.34.21.02.58.36.72.5.28.27.49.62.68.96.58,1.01.95,2.15,1.31,3.26.66,2.02,1.13,4.09,1.75,6.12.37,1.23,2.82.58,2.97-.52.56-4.35,1.12-8.7,1.68-13.05.18-1.44-2.82-1.01-2.98.25-.56,4.35-1.12,8.7-1.68,13.05l2.97-.52c-.58-1.93-1.04-3.89-1.65-5.81-.57-1.78-1.19-3.99-2.63-5.28-1.05-.94-2.38-1.26-3.73-.81s-1.87,1.51-2.93,2.21c-1.64,1.07-3.9-1.09-3.95-2.73-.04-1.49-2.39-.89-2.89-.01-1.96,3.39-6.54-.62-8.29-2.16-.67-.59-3.05.11-2.62,1.22.3.79-.03,1.79-.96,1.98-1.04.2-2.33-.68-3.19-1.16-1.76-.97-3.58-1.87-5.65-1.67-.94.09-1.89.41-2.66.97-.47.34-1.26,1.33-1.57,1.36-1.17.09-2.65-1.12-3.7-1.56-1.32-.55-2.86-.68-4.09.17-.61.41-1.03.98-1.26,1.67-.13.38-.18.77-.25,1.16-.03.19-.05.49-.13.69.22.22.21.29-.02.22-.12,0-.23-.03-.34-.07-1.6-.41-2.83-1.3-4.54-.81-1.29.38-2.35,1.3-3.15,2.34-1.88,2.43-3.43,5.97-3.1,9.1l2.62-1.22c-2.02-1.24-4.53-.28-5.97,1.41-1.74,2.06-1.13,4.84-2.41,7.06-.99,1.73-3.73,3.31-2.78,5.65.42,1.03,1.53,1.37,2.09,2.27.55.89.06,1.91-.34,2.76-.93,1.95-2,3.83-.95,5.96.51,1.02,1.43,1.95,1.56,3.13.12,1.03-.47,1.91-1.1,2.67-1.31,1.58-3,2.97-3.58,5.02-.71,2.47.76,5,.1,7.44-.38,1.43-1.76,2.16-2.69,3.19-.85.94-1.33,2.08-1.53,3.33-.39,2.52.56,5.77-1.72,7.57-.52.41-.74.98-.18,1.45-.74-.63-.21-.49-.31-.19-.04.13.03.46.03.6.04.81.08,1.62.11,2.43.08,2.22.11,4.44.03,6.66-.07,1.79-.39,3.54-1.31,5.09-.25.41-.54.76-.85,1.12-.05.06-.43.44-.11.12-.03.03-.07.06-.1.08-.45.34-.82,1.07-.18,1.45.85.5,1.26,1.46,1.13,2.44-.15,1.14-.95,1.4-1.85,1.91-.85.48-1.78,1.12-2.01,2.13-.25,1.14.47,1.94,1.09,2.79,1.84,2.53-1.14,5.09-2.37,7.16-.66,1.11-.94,2.21-.88,3.5,0,.11-.07.8.01.86l.83-.28c-.21-.07-.43-.14-.64-.2-.78-.25-1.56-.5-2.35-.75l.63.83c.91-7.44,1.82-14.89,2.73-22.33.62-5.04,1.23-10.08,1.85-15.12.27-2.22.72-4.49.82-6.72.14-3.18-.22-6.47-.33-9.65-.18-5.24-.36-10.48-.54-15.72l-.16-4.65c0-.28.08-.72-.09-.26.09-.24.25-.48.38-.71l5.32-10.05c4.21-7.96,8.43-15.92,12.64-23.87l.25-.48-1.15.81c9.67-3.41,19.34-6.82,29.01-10.24,1.37-.48,2.75-.97,4.12-1.45h-1.12c10.18,3.6,20.35,7.2,30.53,10.79,1.45.51,2.9,1.02,4.35,1.54,1.19.42,3.46-1.3,1.72-1.91Z"/>
      </g>
      <g>
        <path d="M520.66,128.51c-.63.91.57,1.99,1.62,2.33,1.05.34,2.41.84,2.38,1.94-.02.68-.63,1.24-.66,1.92-.07,2.09,4.17,1.17,4.88,3.14.53,1.47-1.55,3.23-.57,4.46.46.58,1.33.57,2.04.78,1.23.35,2.18,1.55,2.23,2.83.04.96-.36,1.96,0,2.85.42,1.08,1.71,1.48,2.65,2.17,2.46,1.81,2.36,5.47,1.8,8.47-.56,3-1.23,6.43.65,8.84,2.47-1.37.59-3.68-.63-6.22-.37-.77-.92-1.46-1.16-2.27-.25-.82-.07-1.86.68-2.25.37-.19.85-.22,1.12-.54.75-.93-1.19-1.6-1.97-2.5-.99-1.13.1-2.86,1.23-3.85,1.13-.99,2.5-2.31,1.99-3.73-.45-1.25-2.15-1.68-2.62-2.92-.53-1.4.81-2.85.76-4.35-.06-2-2.35-3.04-4.26-3.61,1.53-1.2,1.32-3.98-.38-4.93-.69-.38-1.58-.55-1.94-1.25-.54-1.04.55-2.48-.17-3.41-.6-.78-1.97-.46-2.64-1.18-1.07-1.15.88-2.96.47-4.47-.55-2-4.69-2.11-4.07-4.09"/>
        <path d="M519.21,128.78c-.89,1.83,1.74,2.43,2.87,3,.8.41,1.31,1,.96,1.92-.26.67-.74,1.31-.35,2.03.5.92,1.95,1.04,2.84,1.28,1.65.45,2.31,1.31,1.63,3-.51,1.27-1.08,2.7.62,3.28.85.29,1.69.3,2.39.95.84.78,1,1.8.91,2.88-.08.93-.24,1.81.39,2.6.56.7,1.4,1.02,2.12,1.51,1.55,1.04,2.16,2.76,2.28,4.56.29,4.21-2.41,9.02.35,12.84.42.58,2.13-.1,2.6-.38,3.93-2.44-1.05-6.27-1.51-9.22-.08-.51-.04-1.12.38-1.47.29-.25.79-.3,1.12-.55.55-.43.69-.88.27-1.44-.45-.61-1.24-.87-1.75-1.41-.8-.85-.49-1.88.11-2.75.97-1.41,3.39-2.55,3.08-4.58-.27-1.78-2.76-2.05-2.84-3.92-.08-1.82,1.63-3.28.43-5.09-.9-1.34-2.59-1.92-4.05-2.38l.11.42c1.59-1.41,1.6-4.14-.32-5.29-.6-.36-1.49-.48-1.86-1.15-.32-.58-.08-1.3.01-1.91.2-1.34-.35-1.9-1.59-2.23-.6-.16-1.28-.22-1.51-.91-.2-.6.14-1.26.35-1.81.36-.96.72-1.97.03-2.87-.8-1.03-4.11-1.69-3.74-3.3.13-.55-2.74-.16-2.9.54-.43,1.83,2.06,2.28,3.18,3.1,1,.75,1.06,1.62.65,2.76-.32.89-.97,2.03-.2,2.87.76.83,2.39.37,2.79,1.54.39,1.14-.69,2.33.25,3.37.86.95,2.21.84,2.8,2.14.52,1.13.36,2.57-.59,3.41-.23.21-.15.34.11.42,1.47.46,3.45,1.21,3.91,2.86.47,1.71-1.31,3.27-.67,4.95.55,1.46,2.82,1.86,2.73,3.62-.1,1.9-2.51,2.89-3.33,4.46s.02,2.54,1.28,3.48c.26.2.77.48.83.83.09.51-.23.41-.62.6-.61.31-1.13.72-1.33,1.4-.75,2.52,5.22,7.6,2.16,9.5l2.6-.38c-2.44-3.37-.55-7.54-.34-11.26.09-1.71-.07-3.56-1.08-5-.44-.62-1-1.1-1.64-1.5-.75-.46-1.68-.85-2.03-1.72-.39-.97.1-2.03-.01-3.03-.09-.86-.57-1.64-1.23-2.18s-1.4-.6-2.2-.84c-1.07-.32-1.24-1.04-.9-2.02.4-1.16,1.28-2.5.16-3.54-.89-.83-2.25-.81-3.34-1.21-.54-.2-1.03-.5-1.06-1.13-.04-.91.97-1.6.54-2.57-.61-1.38-4.88-1.64-3.92-3.61.22-.45-1.02-.26-1.17-.23-.46.08-1.5.28-1.74.77h0Z"/>
      </g>
      <path class="cls-3" d="M415.71,196.82l.79,7.24c.17,5.52,3.12,16.88,4.32,20.11,1.7,4.53,29.64,12.46,35.9,10.55,6.26-1.92,12.88-17.07,15.18-20.41l11.18,3.19c-.05,4.98.15,20.84,1.84,23.36,1.69,2.52,14.76,5.1,16.23,5.39,1.23.23,2.94.55,4.82.82,4.98.77,11.11,1.31,13.34-.06,3.31-2.02,8.52-11.43,13.2-20.38l.75-1.4c.17-.34.34-.56.37-.67h0l.84-1.61c-14.6-11.32-36.26-14.91-51.32-8.51l.06.19-10.89-3.16c-10.65-10.95-31.23-20.26-47.94-17.9h0l-45.74,2.18-1.07,4.13,38.14-3.06ZM486.6,239.63c-1.06-1.57-1.52-12.75-1.6-21.39,13.04-5.34,32.55-2.07,45.78,7.23l-.05.21c-2.51,4.8-9.18,17.57-12.43,19.56-3.85,2.34-29.79-3.08-31.7-5.56v-.04ZM424.43,223.81c-3.18-7.1-4.75-17.62-5.3-26.39,15.07-3,39.45,6.22,49.92,16.69-3.42,6.19-8.46,17.22-12.94,18.58-6.45,1.98-30.63-6.03-31.68-8.89h0Z"/>
      <path d="M432.11,260.96c-1.67.88-3.48,1.93-4.06,3.72-.21.65-.23,1.35-.25,2.03-.03,1.06-.06,2.12-.09,3.17,0,.21,0,.43.09.62.11.2.33.32.53.43.65.34,1.33.7,2.06.73.73.03,1.54-.35,1.75-1.05.09-.29.07-.62.26-.86.36-.46,1.08-.22,1.67-.23,1.48-.02,2.2-1.74,3.12-2.89,1.25-1.56,3.3-2.27,5.29-2.45,1.01-.09,2.03-.07,3-.36.97-.29,1.89-1,2.09-1.99"/>
      <path d="M434.85,259.43c1.38-1.17,2.46-.32,4.03-.41.7-.04,1.39-.27,1.94-.7-.05.04.66-.62.44-.58.21-.05.83.26,1.02.32,1.32.43,2.93.88,4.32.73.7-.08,1.35-.35,2-.61.73-.29.57-.23,1.1.33.98,1.05,2.33,1.18,3.66.73.66-.22,1.24-.79,1.89-.97s1.62.04,2.21.33c1.63.82,3.7,2.84,5.55,1.24,1.52-1.3-.83-2.34-1.96-1.37,1-.86,1.31.03.56-.44-.23-.14-.47-.26-.7-.4-.4-.24-.77-.52-1.17-.75-1.19-.69-2.68-.94-4.05-.83-.71.06-1.42.27-2.05.6-.18.09-.82.61-1.01.6-.3-.02-.58-.51-.77-.69-.94-.93-2.22-.97-3.43-.59-.53.17-1.1.56-1.65.63-.71.09-1.66-.22-2.34-.42-1.35-.39-2.61-.97-4.01-.41-.27.11-.55.25-.79.42-.18.13-.55.69-.75.74.42-.09-.55-.31-.67-.33-.37-.07-.74-.1-1.12-.1-1.53,0-3.01.56-4.18,1.55-1.53,1.29.82,2.33,1.96,1.37h0Z"/>
      <path d="M473.11,263.31c.7-.12,1.4.89,1.86,1.32.75.7,1.56,1.21,2.58,1.39.62.11.95-.02,1.26.56.29.54.51.98,1.05,1.3,1.08.65,2.44.36,3.58.05.16-.04.73-.11.57-.2s.1.29.13.37c.18.42.25.88.45,1.3.53,1.16,1.63,1.59,2.84,1.75.41.06,1.06,0,1.43.26.45.3.25.77.33,1.24.08.51.35.92.78,1.21.19.13.42.22.63.31.51.22.24.19.26-.15-.09,1.56,2.91,1.17,2.99-.21.03-.53-.16-.93-.6-1.24-.23-.16-.52-.26-.78-.36-.08-.03-.4-.26-.3-.1-.16-.25,0-.82-.07-1.11-.06-.23-.16-.47-.29-.67-.33-.48-.86-.8-1.4-1-.97-.36-2.62-.02-3.04-1.14-.44-1.16-.66-2.29-2.08-2.58-.72-.15-1.43-.02-2.14.17-.39.1-.95.39-1.28.16-.19-.13-.28-.57-.39-.76-.16-.27-.34-.51-.6-.7-.56-.41-1.23-.52-1.9-.61-1.08-.14-1.72-1.02-2.49-1.71-.87-.78-1.93-1.29-3.13-1.08-.65.11-1.54.43-1.62,1.21-.07.7.77,1.11,1.37,1.01h0Z"/>
      <path class="cls-11" d="M460.91,271.39c-9.3-2.38-24.07-7.43-24.07-7.43,0,0-2.69,22.71,18.88,28.24,21.56,5.52,27.88-15.84,27.88-15.84,0,0-13.39-2.58-22.69-4.97Z"/>
      <path class="cls-42" d="M460.96,271.4c-4.38-1.12-21.82-6.45-21.82-6.45,0,0,3.05,13.91,18.89,17.97,17.17,4.4,23.02-7.67,23.02-7.67l-20.09-3.85Z"/>
      <path class="cls-14" d="M460.97,272.17c-4.38-1.12-17.49-5.34-17.49-5.34,0,0,3.45,6.46,16.59,9.83,13.13,3.37,18.61-.65,18.61-.65l-17.7-3.84Z"/>
      <path class="cls-11" d="M486.01,275c-.43-.24-3.2.03-5.31-.73-3.51-1.26-5.5-2.88-8.05-3.77-4.36-1.52-7.68-.31-9.62-.81-1.94-.5-4.27-3.15-8.82-3.92-2.66-.45-9.39-1.06-13.07-1.64-2.21-.35-4.51-1.92-5-1.92-.69,0-.77,5.51,23.57,11.74,24.34,6.24,26.9,1.37,26.3,1.03Z"/>
      <path d="M463.91,261.2l-2.1,4.5c-.33.69-1.05,1.1-1.8,1.01-5.2-.57-24.99-2.8-29.53-4.02-.11-.03-.08,2-.18,1.95l-1.05-.34c-1.62-.77,1.06-6.17,2.84-6.39,5.41-.68,10.16-.91,13.04-.85,3.61.07,13.52.57,17.62,1.65,1.08.29,1.63,1.48,1.15,2.49Z"/>
      <path d="M469.64,263.2l-.88,4.42c-.03.76.33,1.45.91,1.73,4.02,1.89,17.17,8.1,20.96,9.12.09.02.17.03.27.04l1.27.06c1.48.07,1.5-3.69.29-4.71-3.67-3.09-6.02-4.94-8.15-6.22-2.66-1.6-9.44-5.18-12.86-6.11-.9-.24-1.77.56-1.82,1.68Z"/>
      <g>
        <path class="cls-10" d="M346.16,298.57s18.77,47.71,65.79,52.54c47.03,4.84,39.03-21.29,39.03-21.29l-.86-3.89,12.54,10.79s3.78,5.6-3.54,15.17c-7.32,9.57-32.18,14.79-61.59,7.38-17.25-4.34-38.53-18.2-50.42-32.71-14.24-17.38-17.17-24.91-17.17-24.91l16.2-3.08Z"/>
        <path class="cls-5" d="M344.71,298.96c2.1,5.32,5.09,10.39,8.23,15.14,6.89,10.42,15.67,19.78,26.18,26.61,14.08,9.16,30.76,12.89,47.46,12.02,9.23-.48,21.11-2.98,25.13-12.52,1.57-3.71,1.44-7.54.59-11.38-.24-1.09-.48-2.19-.72-3.28l-2.56,1.25c2.83,2.43,5.66,4.86,8.49,7.3,1.29,1.11,2.54,2.29,3.88,3.34.21.16.16.26-.03-.05.05.08.13.18.15.27-.06-.25.12.29.18.45.13.35.22.7.3,1.06.54,2.52-.12,5.17-1.16,7.47-1.25,2.78-3.06,5.42-5.45,7.33-4.43,3.54-10.18,5.26-15.65,6.35-7.84,1.55-15.98,1.65-23.92.92-8.72-.8-17.51-2.47-25.69-5.65-7.77-3.03-15.11-7.15-21.95-11.92-6.76-4.71-13.15-10.11-18.55-16.36-4.95-5.74-9.58-11.87-13.73-18.22-1.11-1.7-2.18-3.42-3.17-5.2-.29-.53-.58-1.06-.85-1.6-.08-.16-.27-.56-.17-.34-.06-.13-.11-.28-.18-.4-.06-.09-.09-.21-.13-.3l-1.17,1.44c5.4-1.03,10.8-2.05,16.2-3.08.61-.12,1.35-.76,1.17-1.44-.2-.75-1.13-.78-1.73-.66-5.4,1.03-10.8,2.05-16.2,3.08-.55.1-1.42.78-1.17,1.44.76,1.95,1.91,3.81,2.99,5.59,3.66,6.01,7.93,11.66,12.32,17.14,10.87,13.57,25.2,24.37,41.11,31.38,8.18,3.6,16.88,5.67,25.72,6.83s17.31,1.33,25.85.09c6.37-.93,12.9-2.58,18.43-6.01,5.18-3.21,9.45-8.89,10.12-15.06.19-1.77.03-3.66-.72-5.29-.38-.83-1.04-1.28-1.73-1.87-3.5-3.01-7-6.02-10.5-9.03l-.86-.74c-.82-.71-2.82.05-2.56,1.25.4,1.8.91,3.61,1.18,5.43.16,1.06.19,1.39.17,2.55-.02,1.22-.17,2.43-.46,3.61-.68,2.77-2.47,5.45-4.8,7.3-3.88,3.07-9.09,4.37-14,4.95-8.38.99-17.21.45-25.46-1.25-7.32-1.5-14.39-4.25-20.84-8.01-10.86-6.33-19.94-15.35-27.15-25.59-3.75-5.32-7.11-11.12-9.59-16.86-.04-.09-.08-.19-.11-.28-.54-1.36-3.42-.55-2.9.78Z"/>
      </g>
      <path d="M467.82,315.07c-.22-.08-.41-.21-.57-.38-2.93-3.12-2.9-4.48-4.51-5.29-.37-.19-.54-.37-1.72-.83-4.75-1.84-7.62-3.05-22.74,2.19-.3.11-17.03-6.13-17.36-6.24l-7.91-6.29c-1.27-1.27-28.01-37.18-28.01-37.18-.28-1.06-4.74-9.15-4.77-10.1-.09-.08-.18-.16-.28-.23-.04-.02-.11-.08-.19-.14-.03.05-.07.13-.09.17-.15.37-.23.77-.31,1.16-.32,1.7-.36,3.43-.24,5.16.19,2.65.05,5.28.14,7.92.03.93.11,1.86.22,2.79,3.24,3.26,20.27,39.39,32.44,49.46.84.45,3.47,1.9,10.84,4.3,13.84,4.51,27.48,7.7,42.32,6.93,3.87-.2,7.4-2.1,9.65-5.12,6.41-8.62,20.6-27.81,26.23-41.62-5.8,7.4-18.1,23.29-26.55,34.1-.26.33-5.69-.64-6.16-.61"/>
      <path d="M436.13,310.61c.71.81,1.96,1.24,3.12,1.62l1.22.6c3.79.61,7.6,1.11,11.41,1.49.96.1,1.96.18,2.84-.05.09-.02.19-.06.28-.09,2.79.52,5.6,1.01,8.41,1.43l1.34-.15c1.22.01,2.53,0,3.44-.46.91-.47,1.1-1.58.05-2.09-1.1-.54-2.89-.18-3.59-.95-.77-.85,1.06-1.66.67-2.59-.25-.58-1.23-.91-1.84-1.39-.72-.57-.87-1.35-1.54-1.95-.68-.61-1.89-.96-2.92-.84-1.05-.24-2.54-.03-2.77-.81-.06-.21.02-.42.07-.62.17-.8-.38-1.71-1.32-2.19-.94-.48-2.21-.49-3.06-.03-.83.45-1.22,1.26-2.09,1.66-.27.12-.59.21-.9.29-.23-.29-.53-.54-.9-.73-.94-.48-2.21-.49-3.06-.03-.83.45-1.22,1.26-2.09,1.66-.73.33-1.78.37-2.2.94-.67.9.8,2.39-.2,3.08-.91.62-2.5-.35-3.72-.11-1.16.23-1.35,1.51-.63,2.32Z"/>
      <g>
        <path d="M492.3,296.39c-1.6,3.28-2.39,6.91-4.88,9.58,1.2.68.25,2.57-.94,3.26-1.19.69-2.79,1.39-2.77,2.77,0,.48.23.94.22,1.42-.02,1.51-1.98,2.04-3.49,2.12.82.95-.33,2.35-1.45,2.91s-2.56,1.27-2.48,2.53c.04.62.48,1.2.34,1.8-.29,1.26-2.36.83-3.27,1.74-.52.53-.52,1.38-.84,2.05-.65,1.39-2.86,1.66-3.83.47-.81,2.5-2.6,5.58-5.14,4.91-1.57-.41-2.78-2.26-4.37-1.91-.98.22-1.6,1.22-2.54,1.58-3.17,1.21-5.43-5.36-8.6-4.14-1.7.66-2.19,3.3-4,3.53-1.71.21-2.75-1.95-4.39-2.47-1.78-.57-4.02.87-5.47-.31-.63-.51-.86-1.37-1.36-2.01-1.13-1.47-2.9.03-4.75.22-3.31.32-3.13-1.96-3.13-1.96-.47-2.37-1.71-2.45-4.01-1.72-.76.24-1.51.71-2.31.58-1.94-.31-2.19-3.65-4.14-3.87-.72-.08-1.39.33-2.09.49-2.55.59-4.78-3.11-3.07-5.09-2.93-.57-4.92-4.01-3.97-6.83-2.9.34-5.69-2.6-5.21-5.48-3.37.22-5.97-4.26-4.1-7.08-2.41.38-4.77-2.18-4.21-4.55.29-1.22,1.13-2.65.26-3.55-.58-.59-1.54-.47-2.34-.65-1.96-.43-2.95-3.15-1.72-4.74-3.32.14-5.35-4.88-2.87-7.09-2.61.04-4.14-3.88-2.2-5.63-3.4-.81-4.78-5.86-2.27-8.29l31.17,48.75,9.24,6.75s35.46,10.72,42.91,9.05c7.45-1.67,28.05-29.13,28.05-29.13Z"/>
        <path d="M490.92,296.22c-1.5,3.14-2.34,6.67-4.71,9.31-.35.39-.33.95.1,1.27.77.56-.59,1.62-1.04,1.88-.9.52-1.84,1.04-2.47,1.9s-.52,1.66-.39,2.68c.14,1.09-.99,1.13-1.84,1.2-.76.05-2.05.79-1.45,1.7.69,1.06-2.41,2.27-3.01,2.82-.51.47-.96,1.07-1.05,1.78-.04.31,0,.65.07.95.04.21.29,1.16.35,1.02.17-.13.11-.13-.16-.01-.18.05-.36.09-.54.13-.27.07-.53.14-.8.24-.66.24-1.27.57-1.72,1.12-.49.61-.81,3.44-2.02,2.17-.65-.68-2.37-.53-2.71.47-.44,1.3-1.01,2.8-2.08,3.72s-2.3-.5-3.3-1.06c-1.27-.71-2.69-.79-4-.1-.86.46-1.42,1.59-2.41,1.05-1.85-1.01-2.87-3.13-4.89-3.92-2.6-1.02-4.46.73-5.92,2.65-.14.18-.49.72-.67.73-.47.04-1.25-.87-1.57-1.15-1.11-.94-2.24-1.49-3.72-1.46-.79.02-1.56.23-2.35.28-.93.06-1.25-.37-1.69-1.13-.74-1.3-1.65-2.07-3.22-1.95-1.38.11-2.94,1.25-4.32.8-.26-.09-.47-.21-.61-.46-.06-.11-.18-.71-.13-.42-.38-2.4-1.87-3.49-4.29-3.06-.84.15-1.6.44-2.4.71s-.97-.06-1.41-.71c-.67-.99-1.18-2.16-2.32-2.69-.69-.33-1.44-.36-2.19-.23-.79.14-1.49.7-2.25.27-1.07-.61-1.82-2.38-1-3.44.37-.48.33-1.25-.38-1.41-2.41-.56-4.15-3.23-3.42-5.68.26-.85-.46-1.29-1.26-1.23-2.36.17-4.14-2.33-3.87-4.52.09-.74-.78-.97-1.34-.96-2.75.07-4.08-3.81-2.84-5.85.49-.81-.66-1.3-1.26-1.23-1.44.15-2.73-1.2-2.92-2.58-.21-1.53,1.13-2.91.55-4.44-.64-1.7-2.3-1.17-3.6-1.76-1.07-.48-1.64-2.21-.96-3.2.63-.93-.16-1.5-1.09-1.5-2.52,0-3.32-4.11-1.78-5.6.63-.61.03-1.46-.71-1.49-1.88-.07-2.76-2.87-1.49-4.14.46-.46.25-1.24-.38-1.41-2.79-.77-3.91-4.79-1.89-6.88l-2.54.21c4.88,7.64,9.76,15.27,14.65,22.91,3.5,5.48,7,10.95,10.5,16.43,1.95,3.05,3.76,6.26,5.88,9.19.78,1.08,2.25,1.81,3.3,2.58,1.36.99,2.72,1.98,4.07,2.98.72.53,1.44,1.18,2.21,1.62.96.54,2.23.72,3.27,1.03,2.66.77,5.33,1.53,8.01,2.26,7.11,1.94,14.26,3.79,21.51,5.12,2.85.52,5.74,1,8.64,1.05,2.28.04,4.15-.51,6.08-1.74,2.53-1.62,4.74-3.76,6.85-5.86,2.63-2.62,5.11-5.38,7.53-8.19,3.75-4.35,7.35-8.82,10.83-13.38.19-.25.39-.51.58-.76,1.1-1.47-1.63-1.93-2.43-.86-2.47,3.29-5.05,6.52-7.66,9.69-4.47,5.42-9.06,10.95-14.39,15.56-.98.85-2,1.67-3.09,2.38-.74.48-1.47.83-2.17.97.39-.08-.18.01-.31.02-.2.02-.4.03-.6.04-.6.02-.86,0-1.42-.02-1.34-.08-2.68-.24-4-.43-6.96-1.02-13.83-2.77-20.62-4.56-4.77-1.26-9.48-2.74-14.25-4-.12-.03-.25-.07-.37-.11.31.09.24.15-.06-.09-.97-.78-2.02-1.48-3.02-2.21l-3.95-2.88-1.33-.97c-.22-.16-.76-.74-.42-.26-1.59-2.26-2.99-4.67-4.47-7-3.26-5.09-6.51-10.19-9.77-15.28-5.54-8.67-11.09-17.34-16.63-26.01-.1-.15-.2-.31-.3-.46-.55-.86-2-.35-2.54.21-2.92,3.03-1.42,8.58,2.65,9.7l-.38-1.41c-2.49,2.48-.51,6.99,2.92,7.11l-.71-1.49c-1.48,1.44-1.69,3.65-.87,5.49.89,2,2.65,3.1,4.82,3.1l-1.09-1.5c-.95,1.39-1.05,3.06-.14,4.51.43.68,1.09,1.22,1.84,1.51.82.32,2.56.02,2.47,1.22-.07.99-.67,1.87-.7,2.88-.03.9.24,1.78.72,2.53,1.05,1.66,2.97,2.52,4.91,2.32l-1.26-1.23c-2.33,3.83,1.25,8.41,5.36,8.31l-1.34-.96c-.46,3.75,2.95,6.69,6.55,6.43l-1.26-1.23c-1.02,3.4.98,7.16,4.52,7.98l-.38-1.41c-1.72,2.23-.53,5.5,2.09,6.42.7.25,1.46.27,2.18.14.65-.12,1.41-.66,1.97-.24.93.69,1.22,2.11,2.13,2.88,1.29,1.1,2.85.8,4.33.26,1.2-.44,2.25-.95,2.61.63.13.56.13,1.11.48,1.63.64.96,1.84,1.32,2.94,1.37.81.04,1.62-.06,2.41-.27.62-.17,1.72-.83,2.24-.39s.72,1.36,1.23,1.89c.58.6,1.34.92,2.17,1,1.59.16,3.33-.8,4.72.21,1.17.86,2.08,1.99,3.64,2.12s2.8-.66,3.71-1.79c.48-.59,1.06-2,1.9-1.82.94.2,1.87,1.44,2.53,2.08.82.8,1.68,1.63,2.77,2.03,1.44.53,2.95.16,4.17-.72.26-.18.67-.72.95-.77.3-.05.72.28.98.45.7.45,1.36.99,2.15,1.28,3.87,1.44,6.61-2.47,7.67-5.62l-2.71.47c1.39,1.47,3.74,1.53,5.38.38.41-.28.77-.65,1.02-1.08.3-.5.29-1.21.6-1.68.41-.62,1.55-.59,2.24-.92.83-.4,1.51-1.12,1.51-2.08,0-.54-.35-1.02-.33-1.55.01-.58.43-.8.9-1.07,1.62-.95,4.32-2.56,2.86-4.79l-1.45,1.7c1.48-.11,3.17-.45,4.25-1.55.47-.48.79-1.06.83-1.74.04-.74-.45-1.42,0-2.09.36-.53,1.18-.8,1.72-1.13.67-.4,1.23-.87,1.67-1.52.78-1.14.97-2.55-.25-3.44l.1,1.27c2.53-2.82,3.46-6.49,5.05-9.84.71-1.49-2.21-1.5-2.77-.34Z"/>
      </g>
      <path d="M489.74,275.07c1.07,1.55,2.19,3.32,1.86,5.18-.12.67-.42,1.3-.72,1.91-.47.95-.93,1.9-1.4,2.85-.09.19-.19.39-.37.5-.19.13-.44.13-.67.13-.73,0-1.5,0-2.16-.31-.67-.31-1.2-1.03-1.06-1.75.06-.3.22-.58.17-.88-.1-.58-.85-.7-1.37-.98-1.3-.71-1.14-2.56-1.42-4.01-.38-1.96-1.87-3.54-3.55-4.63-.85-.55-1.77-1.01-2.49-1.72-.72-.71-1.21-1.76-.93-2.73"/>
      <path class="cls-50" d="M371.43,213.1c-.92-4.83-2.06-9.69-3.93-14.25-.91-2.23-2-4.49-3.57-6.34-.63-.74-1.44-1.59-2.38-1.93-1.19-.42-2.1.69-2.79,1.5-2.78,3.32-3.8,7.74-3.84,11.99,0,.98,2,.65,2.01-.18.03-3.34.62-6.71,2.32-9.63.44-.75.94-1.46,1.54-2.1.18-.19.39-.35.55-.55-.14.16,0,0,.09-.07l-1.23.22s.13.03.15.05c-.02-.03-.17-.09,0,0,.09.05.18.1.27.16.59.37.96.76,1.44,1.32,2.27,2.64,3.58,6.1,4.65,9.36,1.17,3.58,2.02,7.26,2.72,10.95.16.85,2.16.35,1.99-.53h0Z"/>
      <path class="cls-50" d="M367.9,214.07c-2.38-.71-4.5.58-5.16,2.88-.69,2.4-.44,4.99-1.17,7.37-.1.33-.5.79-.55,1.08-.06.36,1.01.09.94-.22-.01-.05-.15-.1-.17-.17-.08-.26-.26-.51-.34-.78-.55-1.73-.49-3.7-.45-5.49.06-2.8.26-5.47,1.17-8.11.52-1.51,1.16-2.99,2.01-4.34.77-1.22,1.95-2.84,3.48-3.09.79-.13,1.78-.95.37-.73-3.24.53-5.32,2.96-6.7,5.78-.95,1.95-1.75,4.08-1.99,6.25-.29,2.52-.45,5.08-.29,7.62.07,1,.05,3.08,1.03,3.74.85.57,2.38-.13,2.95-.84.65-.82.75-2.05.88-3.04.21-1.61.29-3.24.65-4.82.15-.67.35-1.37.72-1.96.11-.18.52-.47.57-.61-.06.22-.48-.09-.3.11.06.07.6.12.71.15.45.14,2.2-.6,1.64-.77h0Z"/>
    </g>
    <g id="Layer_3" data-name="Layer 3">
      <path class="cls-26" d="M746.25,702.8c4.56,4.26,10.79,9.88,11.89,9.91,1.11.02,8.47,1.29,14.91,2.42,3.25.72,6.54-1.13,7.34-4.13.21-.78-13.91-7.71-10.22-13.52l13.18,3.48c4.09,1.7,7.92,3.87,11.4,6.46,4.12,3.47,12.16,16.83,12.16,16.83l16.89,4.08-8.41,22.89-17.27-2.6-17.3.07s-31.09-6.38-34.14-9.61c-3.05-3.23-4.83-12.58-4.83-12.58-4.74-3.59-3.1-11.28-3.1-11.28-5.7-8.3,1.1-8.14,1.1-8.14-.27-.24-.45-.54-.54-.87-.98-3.6,4.24-5.98,6.94-3.41Z"/>
      <path class="cls-50" d="M743.31,711c2.16,3.43,5.13,6.38,8.69,8.62,3.52,1.74,7.35,2.87,11.31,3.35-.12.32-.23.64-.34.97-4.12-.28-8.13-1.35-11.77-3.17-3.76-2.33-6.79-5.52-8.78-9.28-.99-1.43-1.73-3-2.2-4.64,1.19,1.27,2.22,2.66,3.08,4.14Z"/>
      <path class="cls-50" d="M742.26,718.46c1.03,1.05,2.23,2.32,3.53,3.76,1.33,1.55,2.83,2.98,4.47,4.26,1.76,1.15,3.75,1.98,5.86,2.43,1.73.43,3.48.78,5.25,1.05.08.01.15.02.23.03-.06.27-.12.54-.18.8-.07,0-.13-.01-.2-.02-1.85-.13-3.69-.39-5.5-.78-2.29-.4-4.45-1.24-6.37-2.45-1.72-1.34-3.27-2.86-4.62-4.53l-3.28-3.94c-1.12-1.15-2.04-2.45-2.75-3.86,1.35.92,2.55,2.01,3.56,3.25Z"/>
      <path class="cls-50" d="M743.97,729.07c.75.94,1.55,1.84,2.4,2.7.5.51,1.04,1,1.6,1.45.49.48,1.11.84,1.79,1.04,3.35.86,6.27,1.75,8.42,2.4.21.05.41.13.62.18-.13.28-.23.56-.28.84-2.26-.41-5.54-1.18-9.12-2.13-.9-.26-1.71-.73-2.36-1.36-.58-.5-1.12-1.03-1.63-1.6-.87-.93-1.64-1.93-2.3-3-1.13-1.83-1.43-3.14-1.24-3.19.18-.05.8,1.06,2.1,2.67Z"/>
      <path class="cls-26" d="M986.49,705.31c-18.25,23.08-49.32,70.39-63.63,72.36-33.96,4.68-124.01-30.04-124.01-30.04l5.34-23.57,97.85,8.85s47.4-62.6,53.78-73.04c0,0,26.09-43.43,47.46-21.56"/>
      <path class="cls-34" d="M978.69,713.46c1.65.26,3.3.52,4.95.78,1.95.31,3.91.77,5.68-.38s3.2-2.84,4.62-4.33c1.52-1.6,2.97-3.28,4.34-5.01,5.39-6.81,9.57-14.55,12.32-22.78,1.57-4.71,2.66-9.56,3.25-14.49.08-.7-1.5-.44-1.57.17-1.93,16.03-9.24,31.29-20.6,42.79-.8.81-1.61,1.61-2.45,2.37-.65.58-1.26,1.01-2.15,1.06-.76.05-1.58-.18-2.33-.29-1.7-.27-3.41-.54-5.11-.81-.34-.05-.88-.02-1.11.3-.17.24-.22.57.17.64h0Z"/>
      <path class="cls-36" d="M985.32,714.08c-22.19-3.41-39.16-20.89-54.38-37.4-1.35-1.47-2.74-2.99-3.41-4.86-1.77-4.95,1.9-10.05,5.33-14.03,8.68-10.06,17.45-20.21,28.14-28.1,10.68-7.89,23.6-13.46,36.87-13.04,1.16.04,2.37.13,3.4.67,1.11.58,1.9,1.63,2.59,2.68,7.15,10.93,6.6,25.08,4.73,38.01-2.85,19.67-8.44,39.49-20.43,55.35"/>
      <path class="cls-34" d="M939.85,685.13c-2.04-.88-3.58-3.11-4.84-4.84-.65-.89-1.28-1.81-1.88-2.74-.33-.52-.88-1.15-1.07-1.74-.21-.65.4-1.89.73-2.62.66-1.45,1.54-2.79,2.45-4.1,1.75-2.53,3.43-5.08,5.15-7.63,4.23-6.28,9.11-12.12,14.19-17.72,2.31-2.55,4.6-5.1,6.88-7.67,2.07-2.33,4.25-4.55,6.88-6.25,7.02-4.56,16.61-5.92,24.33-2.42.63.29,1.81-.62.91-1.03-6.96-3.15-15.05-2.43-21.96.49-3.22,1.36-6.08,3.31-8.59,5.73s-4.68,5.19-7.05,7.77c-5.48,5.97-10.83,12.05-15.51,18.66-2.03,2.87-3.86,5.86-5.89,8.72-.97,1.36-1.93,2.73-2.73,4.2-.59,1.09-1.45,2.63-1.41,3.92.02.56.42,1.03.71,1.5.66,1.07,1.35,2.12,2.08,3.14,1.49,2.09,3.27,4.6,5.71,5.66.64.28,1.82-.64.91-1.03h0Z"/>
      <path class="cls-50" d="M900.7,734.89c4.28,1.73,7.35,5.86,7.97,10.41.12.89,2.12.4,2-.54-.67-4.99-4.16-9.32-8.8-11.19-.82-.33-2.33.84-1.16,1.32h0Z"/>
      <path class="cls-50" d="M820.68,725.54c11.25-.13,22.5.89,33.55,2.99.97.18,2.03-1.17.7-1.43-11.23-2.14-22.64-3.13-34.07-3-1.13.01-1.55,1.45-.18,1.43h0Z"/>
    </g>
  </g>
</svg>