<?xml version="1.0" encoding="UTF-8"?>
<svg xmlns="http://www.w3.org/2000/svg" xmlns:xlink="http://www.w3.org/1999/xlink" viewBox="0 0 1334 1000">
  <defs>
    <style>
      .cls-1 {
        fill: #3c5c2c;
      }

      .cls-2 {
        fill: #072b3a;
      }

      .cls-3 {
        fill: #444136;
      }

      .cls-4 {
        fill: #acabab;
      }

      .cls-5 {
        fill: #151312;
      }

      .cls-6 {
        fill: #774639;
      }

      .cls-7 {
        fill: #24120e;
      }

      .cls-8 {
        fill: #0e0c0c;
      }

      .cls-9 {
        fill: #273339;
      }

      .cls-10 {
        fill: #3e525a;
      }

      .cls-11 {
        fill: #476c34;
      }

      .cls-12 {
        fill: #13100f;
      }

      .cls-13 {
        fill: #010101;
      }

      .cls-14 {
        fill: #232021;
      }

      .cls-15 {
        fill: #11394c;
      }

      .cls-16 {
        fill: url(#linear-gradient-2);
      }

      .cls-17 {
        fill: #653c29;
      }

      .cls-18 {
        fill: #5a2b0e;
      }

      .cls-19 {
        fill: #fccf4e;
      }

      .cls-20 {
        fill: #f2f2f3;
      }

      .cls-21 {
        fill: #225429;
      }

      .cls-22 {
        fill: #89ac95;
      }

      .cls-23 {
        fill: #331d17;
      }

      .cls-24 {
        stroke-dasharray: 5.23 5.23;
      }

      .cls-24, .cls-25, .cls-26, .cls-27, .cls-28, .cls-29, .cls-30, .cls-31, .cls-32, .cls-33 {
        fill: none;
        stroke-miterlimit: 10;
      }

      .cls-24, .cls-25, .cls-26, .cls-27, .cls-29, .cls-30, .cls-31, .cls-32, .cls-33 {
        stroke: #276ca4;
        stroke-width: 2.08px;
      }

      .cls-34 {
        fill: url(#linear-gradient);
      }

      .cls-35 {
        fill: #152d18;
      }

      .cls-36 {
        fill: #f1eef7;
      }

      .cls-25 {
        stroke-dasharray: 5.21 5.21;
      }

      .cls-37 {
        fill: #a66e53;
      }

      .cls-26 {
        stroke-dasharray: 5.26 5.26;
      }

      .cls-38 {
        fill: #545146;
      }

      .cls-27 {
        stroke-dasharray: 5.22 5.22;
      }

      .cls-39 {
        fill: #b0b0b0;
      }

      .cls-40 {
        fill: #0f0a09;
      }

      .cls-41 {
        fill: #6a5a9c;
      }

      .cls-42 {
        fill: #fff;
      }

      .cls-43 {
        fill: #59332b;
      }

      .cls-44 {
        fill: #354c24;
      }

      .cls-45 {
        fill: #ae872e;
      }

      .cls-46 {
        fill: #513835;
      }

      .cls-28 {
        stroke: #000;
        stroke-width: .94px;
      }

      .cls-47 {
        fill: #a87159;
      }

      .cls-48 {
        fill: #e0e1e0;
      }

      .cls-49 {
        fill: #89623e;
      }

      .cls-29 {
        stroke-dasharray: 5.3 5.3;
      }

      .cls-31 {
        stroke-dasharray: 5.1 5.1;
      }

      .cls-50 {
        fill: #6b6b6b;
      }

      .cls-51 {
        fill: #24180f;
      }

      .cls-52 {
        fill: #825639;
      }

      .cls-32 {
        stroke-dasharray: 5.11 5.11;
      }

      .cls-33 {
        stroke-dasharray: 5.17 5.17;
      }

      .cls-53 {
        fill: #38211a;
      }

      .cls-54 {
        fill: #465b65;
      }

      .cls-55 {
        fill: #787878;
      }

      .cls-56 {
        fill: #4f2e25;
      }

      .cls-57 {
        fill: #999;
      }

      .cls-58 {
        fill: #9b8fc1;
      }

      .cls-59 {
        fill: #89ad96;
      }
    </style>
    <linearGradient id="linear-gradient" x1="601.34" y1="987.35" x2="651.31" y2="-199.37" gradientUnits="userSpaceOnUse">
      <stop offset=".29" stop-color="#bbe5f5"/>
      <stop offset=".81" stop-color="#76c7db"/>
    </linearGradient>
    <linearGradient id="linear-gradient-2" x1="591.04" y1="1110.19" x2="616.66" y2="501.84" gradientUnits="userSpaceOnUse">
      <stop offset=".01" stop-color="#769a3e"/>
      <stop offset=".98" stop-color="#496b33"/>
    </linearGradient>
  </defs>
  <g id="Layer_2" data-name="Layer 2">
    <rect class="cls-34" x="-125.3" y="-17.02" width="1498.42" height="936.5"/>
    <path class="cls-18" d="M57.26,342.42s7.07,16.93,7.01,29.2c-.06,12.27,2.94,25.82,1.96,39.78-.98,13.97-13.46,181.13-13.46,181.13l56.09,1.51s-3.75-150.32-5.14-179.62c-1.23-25.78-46.46-72-46.46-72Z"/>
    <path class="cls-1" d="M371.68,235.16c16.24.31,32.26,3.18,47.17,8.44-8.32-14.82-29.18-24.23-49.02-22.12l7.45-15.49,19.83,11.59c-2.69-17.14-14.54-32.44-32.39-41.81l37.03,9.61c-6.04-12.24-18.96-21.36-34.71-24.47l35.44-.23c-7.53-11.18-25.45-16.45-40.18-12.63,6.32-2.28,12.36-5.05,17.99-8.32,2.36-1.35,4.9-3.31,3.58-5.77-.75-1.39-2.48-2.29-4.34-2.44-9.48-.74-18.96,1.16-26.91,5.34l25.49-24.17c-12.38-2.96-26.96,3.43-30.72,13.48-2.96-19.96-20.53-37.59-39.78-46.89l4,1.78c-1.49-.71-3.01-1.37-4.52-2.04-.51-.24-1.03-.48-1.55-.72l30.76-19.51c-22.85-5.25-45.41.91-63.14,9.08-1.24-.28-2.47-.57-3.71-.82l29.79-21.75c-20.92-5.86-37.68,3.16-48.32,12.12-2.03.73-4,1.58-5.88,2.57l25.49-24.17c-12.38-2.96-26.96,3.43-30.72,13.48-2.96-19.95-20.53-37.59-39.78-46.89l4,1.78c-1.49-.71-3.01-1.37-4.52-2.04-.51-.24-1.03-.49-1.55-.72l30.76-19.51c-22.85-5.25-45.41.91-63.14,9.08-1.24-.28-2.47-.57-3.71-.82l29.79-21.75c-25.91-7.25-45.43,8.29-54.86,18.32-17.25-1.25-34.78-.26-51.92,3.09,9.8-8.41,21.31-15.37,34.03-20.58-24.94-8.68-56.87-.82-71.65,17.65,5.02-9.53,8.34-19.59,9.88-29.88-15.01,3.06-25.49,16.64-22.39,28.98-2.71-10.62-7.34-20.86-13.75-30.39-1.26-1.86-3.87-3-6.42-2.55-3.66.65-4.09,3.71-3.97,6.24.56,11.08,5.22,21.77,13.37,30.65C14.76-11.39,9.79-20.62-.35-20.73c-3.22-.03-6.34,1.43-7.48,3.88C-10.14-11.89-3.06-7.93,3.03-6.88c5.88,1.02,12.9,1.52,15.98,5.73C-12.43,1.57-38.67,25.87-37.96,51.57c-4.83-7.37-9.67-14.74-14.5-22.1-2.01,10.69-.59,21.62,4.12,31.73-6.1-13.12-24.45-21.63-41.43-19.21,11.23,7.76,20.65,17.12,27.79,27.62-10.95-5.94-25.02-6.53-36.66-1.53l33.68,14.93c-32.67-5.04-68.46,7.26-86.79,29.88,5.47-11.65,8.59-23.94,9.21-36.4-15.97,6.71-23.84,23.91-17.18,37.48-9.05-9.84-23.6-15.28-38.67-14.45,6.18,9.38,14.19,17.88,23.71,25.17l-3.29,2.32c-18.03.38-34.87,11.54-38.92,25.76l19.94-7.21c-6.76,6.82-11.16,14.99-12.73,23.66l15.03-4.64c-7.32,5.62-12.22,12.89-14.76,20.73v-.02s-22.42-.91-23.11,26.1l21.21-10.27c.69,10.04,4.98,19.86,12.81,27.53-2.43,8.58-4.51,19.21-3.24,27.67,2.33,15.51,44.03,73.2,110.44,48.8,1.7,1.71,3.52,3.36,5.58,4.84-.28,6.62,2.51,13.08,7.83,18.1,3.41-6.04,6.82-12.09,10.24-18.14,2.05,7.56,6.2,14.63,12.12,20.68.5-7.39,3.36-14.54,8.3-20.75l15.49,4.38c-2.21,3.28-3.63,8.06-2.64,15.11,2.77,19.69,13.13,21.94,13.13,21.94l9.86-31.3,25.61,7.25c-7.75,7.04-10.15,16.96-6.27,25.87,4.57-6.39,11.04-11.73,18.83-15.54-4.53,9.55-4.46,20.14.19,29.66,4.6-7.03,9.2-14.03,13.82-20.98-.78,13.98,5.73,27.57,17.93,37.42,3.38-12.42,2.7-25.35-1.99-37.49,9.05,9.11,15.64,19.67,19.34,30.99,3.71-9.66,3.2-20.06-1.42-29.45l4.06,4.03c13.19,13.09,37.1,14.62,52.65,3.38,12.53-4.77,26.89-5.27,39.88-1.4-7.63,13.06-6.91,28.33,1.94,40.87,5.13-12.13,10.25-24.23,15.35-36.32.7,9.65,1.41,19.31,2.11,28.98,12.12-10.02,18.65-23.66,18.05-37.71,4.19,11.9,11.39,22.96,21.14,32.46,4.29-11.75,2.41-24.41-5.2-34.99,10.99,6.01,20.21,13.93,26.99,23.19,3.55-11.56-.19-23.79-9.97-32.65,11.24,6.76,22.47,13.54,33.7,20.32,4.93-4.97,13.09-19.97,1.61-28.97,18.29-9.1,10.05-3.6,30.92-7.59l17.71,10.8c7.12-8.79,8.61-19.84,4-29.68l23.76,28.1c.07-13.23.13-26.46.19-39.7l31.46,30.09c.19-14.21-5.02-28.11-14.9-39.82,12.63,5.31,23.81,12.65,32.86,21.58,1.42-17.64-9.05-34.51-27.32-44.06l35.83,6.23c-6.35-14.67-21.26-25.79-39.76-29.67Z"/>
    <path class="cls-18" d="M157.02,317.03l44.29-44.85-3.93-8.78-34.83,34.21-37.09,31.55,39.06-128.84-5.72-4.85-32.24,74.69-23.8-33.8h-3.93l27.73,39.66-13.84,65.35-23.56,21.46c-.42-1.79-.84-3.37-1.2-4.64l-26.18-61,19.74-65.78-4.44-2.26s-18.59,48.66-21.38,51.39c-2.79,2.74-22.7-49.57-22.7-49.57L.64,162.39l-10.7,5.84,30.87,64.11-39.17-29.94-3.57,3.7,36.65,32.52s29.36,45.97,28.24,50.47c-1.13,4.5-86.4-22.09-86.4-22.09l-2.8,5.19s78.07,25.47,84.16,33.59c6.09,8.12,18.33,34.25,21.04,42.82,2.16,6.67,6.87,16.07,6.55,19.91,0,0,10.93,23.69,11.79,54.1-5.19,13.72,6.42,31.33,4.64,45.62l3.07,32.13,15.24-25.08-2.49-12.49c-1.44-33.9,13.41-72.46,14.2-83.12l43.4-56.32,60.9-22.08v-4.06l-59.24,19.83Z"/>
    <polygon class="cls-18" points="27.1 231.7 68.24 151.34 77.24 157.12 34.81 245.84 27.1 231.7"/>
    <polygon class="cls-18" points="143.01 231.7 184.15 151.34 193.15 157.12 150.72 245.84 143.01 231.7"/>
    <polygon class="cls-18" points="155.68 200.76 104.48 126.4 121.79 132.12 171.79 200.68 155.68 200.76"/>
    <polygon class="cls-18" points="187.52 271.46 255.13 241.92 271.55 239.62 185.63 287.46 187.52 271.46"/>
    <polygon class="cls-18" points="197.02 277.34 214.55 212.34 209.97 188.42 181.81 282.64 197.02 277.34"/>
    <path class="cls-1" d="M303.9,316.51s5.76,8.49,4.24,21.52l-1.52,13.04s-26.68-10.61-27.89-29.71c-1.21-19.1,25.16-4.85,25.16-4.85Z"/>
    <path class="cls-1" d="M143.19,347.46s-2.85,8.54,7.48,18.51l10.32,9.97s5.7-21.72-2.14-28.48c-7.83-6.76-15.66,0-15.66,0Z"/>
    <path class="cls-1" d="M228.33,44.61s8.97.75,16.22-11.63l7.25-12.38s-22.45-.41-27.17,8.8c-4.72,9.21,3.7,15.22,3.7,15.22Z"/>
    <path class="cls-1" d="M216.94,32.59s8.97.75,16.22-11.63l7.25-12.38s-22.45-.41-27.17,8.8c-4.72,9.21,3.7,15.22,3.7,15.22Z"/>
    <path class="cls-1" d="M6.46,318.5s2.85,8.54-7.48,18.51l-10.32,9.97s-5.7-21.72,2.14-28.48c7.83-6.76,15.66,0,15.66,0Z"/>
    <path class="cls-1" d="M321.23,137.31s34.27-2.84,38.55-21.2l4.28-18.36s-43.35-13.47-50.75,14.69l-7.4,28.16"/>
    <path class="cls-1" d="M295.67,114.28s34.27-2.84,38.55-21.2l4.28-18.36s-43.35-13.47-50.75,14.69l-7.4,28.16"/>
    <path class="cls-11" d="M776.22,599.07c7.62-8.25,15.7-17.57,15.93-28.8.23-11.23-12.7-22.44-22.06-16.24,2.72-6.75.17-15.22-5.81-19.35-5.99-4.13-14.81-3.51-20.15,1.42-3.03-16.29-27.92-22.71-38.46-9.93.99-6.36-8-10.63-13.59-7.45-5.59,3.19-7.51,10.45-7.06,16.87-3.66-7.51-12.24-12.31-20.56-11.49-8.32.82-15.8,7.2-17.92,15.28-.8-7.11-1.97-14.94-7.45-19.53-5.49-4.59-16.4-1.99-16.25,5.16,1.65-10.1-3.98-20.96-13.19-25.45-9.2-4.48-21.22-2.22-28.16,5.31-1.35-9.9-5.05-20.23-13.27-25.91-8.22-5.69-21.67-4.2-25.85,4.88-4.73-7.74-12.32-14.83-21.39-14.82-9.07,0-17.5,10.77-12.58,18.39-6.71-11.19-27.62-6.78-29.23,6.17-4.82-7.48-14.88-11.12-23.38-8.47-8.5,2.66-14.68,11.38-14.39,20.28-8.45-5.2-20.18-4.36-27.81,1.98-7.63,6.35-10.58,17.74-6.99,26.99-25.39,2.03-46.64,69.21-36.76,92.69"/>
    <path class="cls-11" d="M1530.47,632.5c7.62-8.25,15.7-17.57,15.93-28.8.23-11.23-12.7-22.44-22.06-16.24,2.72-6.75.17-15.22-5.81-19.35-5.99-4.13-14.81-3.51-20.15,1.42-3.03-16.29-27.92-22.71-38.46-9.93.99-6.36-8-10.63-13.59-7.45-5.59,3.19-7.51,10.45-7.06,16.87-3.66-7.51-12.24-12.31-20.56-11.49-8.32.82-15.8,7.2-17.92,15.28-.8-7.11-1.97-14.94-7.45-19.53-5.49-4.59-16.4-1.99-16.25,5.16,1.65-10.1-3.98-20.96-13.19-25.45-9.2-4.48-21.22-2.22-28.16,5.31-1.35-9.9-5.05-20.23-13.27-25.91-8.22-5.69-21.67-4.2-25.85,4.88-4.73-7.74-12.32-14.83-21.39-14.82-9.07,0-17.5,10.77-12.58,18.39-6.71-11.19-27.62-6.78-29.23,6.17-4.82-7.48-14.88-11.12-23.38-8.47-8.5,2.66-14.68,11.38-14.39,20.28-8.45-5.2-20.18-4.36-27.81,1.98-7.63,6.35-10.58,17.74-6.99,26.99-25.39,2.03-46.64,69.21-36.76,92.69"/>
    <path class="cls-44" d="M586.94,646.83c-6.03-6.52-12.41-13.9-12.59-22.78-.18-8.88,10.04-17.75,17.45-12.84-2.15-5.34-.14-12.03,4.6-15.3,4.73-3.27,11.71-2.78,15.94,1.12,2.4-12.88,22.08-17.96,30.41-7.85-.78-5.03,6.32-8.41,10.74-5.89,4.42,2.52,5.94,8.27,5.58,13.34,2.89-5.94,9.68-9.74,16.26-9.09,6.58.65,12.49,5.69,14.17,12.09.63-5.62,1.56-11.82,5.89-15.45,4.34-3.63,12.97-1.57,12.85,4.08-1.3-7.99,3.15-16.58,10.43-20.12,7.28-3.54,16.78-1.75,22.27,4.2,1.06-7.83,3.99-15.99,10.49-20.49,6.5-4.5,17.14-3.32,20.44,3.86,3.74-6.12,9.74-11.72,16.91-11.72,7.17,0,13.84,8.51,9.95,14.54,5.3-8.85,21.84-5.36,23.11,4.88,3.81-5.92,11.77-8.8,18.48-6.69,6.72,2.1,11.61,9,11.38,16.03,6.68-4.11,15.96-3.45,21.99,1.57,6.03,5.02,8.36,14.02,5.53,21.34,20.08,1.61,34.74,25.72,26.93,44.29"/>
    <path class="cls-11" d="M222.15,624.96c7.62-8.25,15.7-17.57,15.93-28.8.23-11.23-12.7-22.44-22.06-16.24,2.72-6.75.17-15.22-5.81-19.35-5.99-4.13-14.81-3.51-20.15,1.42-3.03-16.29-27.92-22.71-38.46-9.93.99-6.36-8-10.63-13.59-7.45-5.59,3.19-7.51,10.45-7.06,16.87-3.66-7.51-12.24-12.31-20.56-11.49-8.32.82-15.8,7.2-17.92,15.28-.8-7.11-1.97-14.94-7.45-19.53-5.49-4.59-16.4-1.99-16.25,5.16,1.65-10.1-3.98-20.96-13.19-25.45s-21.22-2.22-28.16,5.31c-1.35-9.9-5.05-20.23-13.27-25.91-8.22-5.69-21.67-4.2-25.85,4.88-4.73-7.74-12.32-14.83-21.39-14.82-9.07,0-17.5,10.77-12.58,18.39-6.71-11.19-27.62-6.78-29.23,6.17-4.82-7.48-14.88-11.12-23.38-8.47-8.5,2.66-14.68,11.38-14.39,20.28-8.45-5.2-20.18-4.36-27.81,1.98-7.63,6.35-10.58,17.74-6.99,26.99-25.39,2.03-43.94,32.53-34.06,56.01"/>
    <path class="cls-44" d="M84.46,627.05c-7.63-8.26-15.72-17.6-15.95-28.85-.23-11.25,12.72-22.48,22.1-16.26-2.72-6.76-.17-15.24,5.82-19.38,6-4.14,14.83-3.52,20.19,1.42,3.04-16.32,27.97-22.75,38.52-9.94-.99-6.37,8.01-10.65,13.61-7.46s7.52,10.47,7.07,16.9c3.67-7.53,12.26-12.33,20.59-11.51,8.33.82,15.83,7.21,17.95,15.31.8-7.12,1.97-14.97,7.47-19.56,5.49-4.6,16.42-1.99,16.28,5.17-1.65-10.12,3.99-21,13.21-25.49,9.22-4.49,21.26-2.22,28.21,5.32,1.35-9.92,5.06-20.26,13.29-25.96,8.23-5.7,21.71-4.21,25.89,4.88,4.74-7.75,12.34-14.85,21.43-14.84,9.09,0,17.53,10.78,12.6,18.42,6.72-11.21,27.66-6.79,29.28,6.18,4.83-7.49,14.9-11.14,23.41-8.48,8.51,2.66,14.71,11.4,14.41,20.31,8.46-5.21,20.21-4.37,27.85,1.99,7.64,6.36,10.59,17.76,7,27.03,25.43,2.03,44.01,32.58,34.12,56.1"/>
    <path class="cls-1" d="M-104.47,639.85c-6.03-6.52-12.41-13.9-12.59-22.78-.18-8.88,10.04-17.75,17.45-12.84-2.15-5.34-.14-12.03,4.6-15.3,4.73-3.27,11.71-2.78,15.94,1.12,2.4-12.88,22.08-17.96,30.41-7.85-.78-5.03,6.32-8.41,10.74-5.89,4.42,2.52,5.94,8.27,5.58,13.34,2.89-5.94,9.68-9.74,16.26-9.09,6.58.65,12.49,5.69,14.17,12.09.63-5.62,1.56-11.82,5.89-15.45,4.34-3.63,12.97-1.57,12.85,4.08-1.3-7.99,3.15-16.58,10.43-20.12s16.78-1.75,22.27,4.2c1.06-7.83,3.99-15.99,10.49-20.49,6.5-4.5,17.14-3.32,20.44,3.86,3.74-6.12,9.74-11.72,16.91-11.72,7.17,0,13.84,8.51,9.95,14.54,5.3-8.85,21.84-5.36,23.11,4.88,3.81-5.92,11.77-8.8,18.48-6.69,6.72,2.1,11.61,9,11.38,16.03,6.68-4.11,15.96-3.45,21.99,1.57,6.03,5.02,8.36,14.02,5.53,21.34,20.08,1.61,34.74,25.72,26.93,44.29"/>
    <path class="cls-1" d="M1296.29,617.76c8.7-7.81,17.93-16.64,18.33-27.14.4-10.5-14.03-20.82-24.66-14.89,3.15-6.35.39-14.23-6.3-18.02-6.69-3.79-16.65-3.09-22.74,1.59-3.21-15.19-31.18-20.88-43.23-8.78,1.2-5.96-8.88-9.84-15.22-6.79-6.35,3.05-8.6,9.88-8.18,15.87-4.03-6.98-13.64-11.35-23.03-10.48-9.39.88-17.91,6.94-20.41,14.53-.81-6.64-2.02-13.95-8.15-18.17-6.13-4.22-18.46-1.65-18.39,5.04,1.99-9.47-4.21-19.55-14.53-23.62-10.32-4.07-23.9-1.79-31.82,5.33-1.39-9.24-5.43-18.85-14.62-24.06-9.19-5.21-24.38-3.65-29.21,4.9-5.23-7.18-13.7-13.7-23.92-13.58-10.23.12-19.87,10.3-14.43,17.36-7.41-10.38-31.05-5.98-33.04,6.15-5.34-6.93-16.63-10.21-26.24-7.61-9.61,2.6-16.71,10.83-16.49,19.15-9.46-4.75-22.7-3.82-31.38,2.22-8.68,6.04-12.16,16.72-8.24,25.33-28.66,2.23-50.21,48.67-39.38,70.5"/>
    <path class="cls-16" d="M1403,1057.87H-197.77v-445.02l496.16-6.1c63.71-3.35,553.4-2,617.12,1.25l487.49,4.85v445.02Z"/>
    <path class="cls-46" d="M547.8,469.36s.02.09.04.13c.09-.06.19-.12.28-.18-.11.02-.22.04-.32.05Z"/>
  </g>
  <g id="Layer_1" data-name="Layer 1">
    <polygon class="cls-8" points="1161.6 901.22 1111.17 901.22 1108.43 864.81 1160.29 858.1 1161.6 901.22"/>
    <polygon class="cls-8" points="1210.87 909.29 1160.94 908.4 1159.73 881.81 1212.21 879.64 1210.87 909.29"/>
    <g>
      <path class="cls-3" d="M1172.18,920.93s6.15,7.37,4.01,11.03c-2.14,3.66-21.94,4.93-27.13,5.5-5.19.57-72.43,8.62-79.12,8.85-6.69.23-42.67-.76-47.81-7.56,0,0-8.73-11.47,3.31-15.67,12.04-4.19,20.98-4.24,32.26-9.4,11.27-5.17,23.59-11.86,34.36-22.55,0,0,10.93-8.74,16.17-7.52,5.24,1.22,11.17,9.99,15.44,12.04,4.27,2.05,24.66,4.38,29.88-4.57,5.22-8.95,6.71-5.61,10.71-4.39,4,1.22,10.69,16.6,9.15,23.83-1.55,7.23-1.21,10.41-1.21,10.41Z"/>
      <path class="cls-14" d="M1172.18,920.93s-30.17,3.21-43.2,7.44c-13.03,4.23-47.56,11.37-65.66,11.78-18.09.41-43.36-5.33-43.36-5.33,0,0-1.67,2.49,6.22,6.56,7.89,4.07,32.36,6.38,53.57,4.03,21.21-2.35,52.28-5.41,58.81-5.85,6.53-.43,33.71-2.65,37.3-7.18,3.01-3.8-3.67-11.45-3.67-11.45Z"/>
    </g>
    <path class="cls-42" d="M1170.91,906.07c-5.49.64-11,1.99-16.19,3.87-3.94,1.43-7.88,3.26-11.1,6-1.66,1.41-2.93,3.03-4.08,4.88-1.61,2.59-3.05,5.29-4.2,8.11-.79,1.94-1.47,3.95-1.9,6.01-.15.73-.3,1.48-.33,2.22-.01.31.64.21.65-.06.08-2.18.82-4.42,1.54-6.45.9-2.5,2.04-4.91,3.34-7.23s2.57-4.53,4.44-6.35c2.96-2.88,6.78-4.8,10.59-6.29,3.61-1.41,7.36-2.45,11.15-3.25,1.99-.42,4-.8,6.03-1.04.34-.04.51-.49.07-.44h0Z"/>
    <g>
      <path class="cls-3" d="M1226.72,927.61s6.15,7.37,4.01,11.03c-2.14,3.66-21.94,4.93-27.13,5.5-5.19.57-72.43,8.62-79.12,8.85-6.69.23-42.67-.76-47.81-7.56,0,0-8.73-11.47,3.31-15.67,12.04-4.19,20.98-4.24,32.26-9.4,11.27-5.17,23.59-11.86,34.36-22.55,0,0,10.93-8.74,16.17-7.52,5.24,1.22,11.17,9.99,15.44,12.04,4.27,2.05,24.66,4.38,29.88-4.57,5.22-8.95,6.71-5.61,10.71-4.39s10.69,16.6,9.15,23.83c-1.55,7.23-1.21,10.41-1.21,10.41Z"/>
      <path class="cls-14" d="M1226.72,927.61s-30.17,3.21-43.2,7.44c-13.03,4.23-47.56,11.37-65.66,11.78-18.09.41-43.36-5.33-43.36-5.33,0,0-1.67,2.49,6.22,6.56,7.89,4.07,32.36,6.38,53.57,4.03,21.21-2.35,52.28-5.41,58.81-5.85,6.53-.43,33.71-2.65,37.3-7.18,3.01-3.8-3.67-11.45-3.67-11.45Z"/>
    </g>
    <path class="cls-38" d="M1187.97,933.81s.23-6.88,7.2-17.52c6.96-10.64,30.25-13.32,30.25-13.32,0,0,3.73,3.82,2.52,14.23l-1.21,10.41-38.75,6.2Z"/>
    <path class="cls-38" d="M1174.41,899.38c2.29,3.77-6.96,5.11-10.01,8.08-5.29,5.16-11.16,10.22-18.55,12.6-7.39,2.38-16.67,1.38-21.46-4.05l-1.65-1.42s16-9.47,21.82-14.85,11.54-9.34,15.87-9.47,12.43,6.56,13.97,9.1Z"/>
    <path class="cls-38" d="M1120.4,893.13c2.29,3.77-6.96,5.11-10.01,8.08-5.29,5.16-11.16,10.22-18.55,12.6-7.39,2.38-16.67,1.38-21.46-4.05l-1.65-1.42s16-9.47,21.82-14.85,11.54-9.34,15.87-9.47,12.43,6.56,13.97,9.1Z"/>
    <path d="M1131.37,909.52c-3.7,2.13-7.45,4.18-11.22,6.19-3.16,1.68-6.34,3.32-9.58,4.86-1.23.59-2.5,1.33-3.8,1.73-.91.28-1.86.47-2.78.71-1.09.28-2.18.6-3.29.8-1.59.28-3.18.59-4.76.92-5.06,1.05-10.17,2.2-15,4.06-1.67.64-3.57,1.38-4.85,2.7-.55.57-1.01,1.25-1.47,1.89s-.94,1.38-1.28,2.13c-.56,1.25-.61,2.54-.18,3.84.27.81.66,1.57,1.06,2.31.15.27.76.02.59-.29-.74-1.35-1.49-2.87-1.25-4.46.26-1.72,1.5-3.22,2.53-4.55,1.16-1.49,2.9-2.26,4.61-2.95,4.72-1.91,9.79-3.04,14.76-4.09,2.6-.55,5.22-.97,7.79-1.62l3.2-.82c.96-.24,1.83-.69,2.73-1.11,3.18-1.46,6.3-3.05,9.4-4.67,4.34-2.27,8.65-4.6,12.88-7.05.07-.04.14-.08.21-.12.38-.22.04-.6-.29-.41h0Z"/>
    <path d="M1156.73,901.58l.06-.06c.5-.49.13-1.4-.82-2.01l-6.85-4.42c-.95-.61-2.14-.71-2.64-.22l-.06.06c-.5.49-.13,1.4.82,2.01l6.85,4.42c.95.61,2.14.71,2.64.22Z"/>
    <path d="M1148.9,905.22l.19-.18c.36-.35-.04-1.09-.9-1.64l-5.09-3.31c-.86-.56-1.85-.73-2.21-.38l-.19.18c-.36.35.04,1.09.9,1.64l5.09,3.31c.86.56,1.85.73,2.21.38Z"/>
    <path d="M1142.43,908.68l.32-.31c.32-.31-.04-.97-.81-1.48l-3.63-2.37c-.77-.5-1.66-.66-1.99-.35l-.32.31c-.32.31.04.97.81,1.48l3.63,2.37c.77.5,1.66.66,1.99.35Z"/>
    <path d="M1137.25,912.32l.37-.36c.38-.37.05-1.08-.72-1.57l-3.64-2.36c-.77-.5-1.71-.61-2.09-.24l-.37.36c-.38.37-.05,1.08.72,1.57l3.64,2.36c.77.5,1.71.61,2.09.24Z"/>
    <path d="M1102.71,895.32l.06-.06c.5-.49.13-1.4-.82-2.01l-6.85-4.42c-.95-.61-2.14-.71-2.64-.22l-.06.06c-.5.49-.13,1.4.82,2.01l6.85,4.42c.95.61,2.14.71,2.64.22Z"/>
    <path d="M1094.88,898.97l.19-.18c.36-.35-.04-1.09-.9-1.64l-5.09-3.31c-.86-.56-1.85-.73-2.21-.38l-.19.18c-.36.35.04,1.09.9,1.64l5.09,3.31c.86.56,1.85.73,2.21.38Z"/>
    <path d="M1088.42,902.42l.32-.31c.32-.31-.04-.97-.81-1.48l-3.63-2.37c-.77-.5-1.66-.66-1.99-.35l-.32.31c-.32.31.04.97.81,1.48l3.63,2.37c.77.5,1.66.66,1.99.35Z"/>
    <path d="M1083.23,906.07l.37-.36c.38-.37.05-1.08-.72-1.57l-3.64-2.36c-.77-.5-1.71-.61-2.09-.24l-.37.36c-.38.37-.05,1.08.72,1.57l3.64,2.36c.77.5,1.71.61,2.09.24Z"/>
    <path class="cls-37" d="M988.92,373.71c12.27,5.64,22.22,4.88,31.29,14.88,3.87,4.26,10.95.97,13.88,5.96,8.01-19.16,17.56-79.71,17.56-79.71l-13.29-108.04c-1.27,1.38-2.58,2.72-3.92,4.04-3.49,3.45-6.47,6.19-9.19,9.1-1.44,1.54-2.85,3.12-4.15,4.79-.39.5-3.15,4.8-2.28,3.19-3.56,6.62-10.58,10.62-18.07,7.66-6.61,40.38-21.27,115.94-24,135.86,2.64.94,9.64,1.09,12.18,2.26Z"/>
    <path class="cls-37" d="M1040.46,384.81c-10.88-7.08-11.62-11.28-24.43-13.05-8.01-1.1-15.36-9.75-23.42-8.8.75,2.2.31,11.84.31,11.84,0,0-80.73,67.25-92.81,85.02l14.68,20.31c8.16-7.07,88.27-41.26,88.27-41.26,0,0,37.36-22.21,39.66-51.5-.61-.43-1.64-2.15-2.26-2.55Z"/>
    <path class="cls-20" d="M1037.34,319.05c-5.25-.2-10.49-.54-15.72-1.02-.44-.5,9.46,30.15,8.61,30.5-4.12,1.66-42.05,2.01-57.14-16.64,12.17-58.65,15.69-84.22,19.45-99.69,6.22-25.62,59.74-53.56,63.22-54.98,0,0-4.78,97.07-16.25,133.03-.78,2.45-1.5,5.42-2.16,8.81Z"/>
    <path class="cls-4" d="M1058.04,43.09c5.54-3.57,9.97-3.44,15.89-6.4.51-.26,1.09-.52,1.62-.41.44.09.72.43.98.74,6.14,7.5,12.58,14.72,16.89,23.3,1.84,3.65,3.51,7.44,4.03,11.54.46,3.7,2.09,7.58,1.59,11.37-.43,3.33-.87,6.66-1.3,9.99-.16,1.24-.34,2.53-1.08,3.66-2.17,3.29-7.48,3.14-10.99,1.7-7.53-3.11-12.45-9.59-15.43-16.56-2.98-6.97-4.3-14.56-6.41-21.87-1.46-5.04-3.3-9.95-5.5-14.69"/>
    <path class="cls-37" d="M1090.47,108.58s6.67,22.29,21.27,34.15c2.34,1.9,26.69,15.22,26.69,15.22l-8.18,63.91c-11.63,9.69-38.61,8.83-53.63,10.63l-40.4-20.4s15.38-22.26,14.47-25.69c-.91-3.44-13.84-25.61-13.84-25.61"/>
    <path class="cls-37" d="M971.56,81.71s0-.05,0-.07c1.1.41,6.51-8.78,7.37-9.82,9.08-10.97,12.63-18.35,26.28-22.4,7.13-2.11,16.4,1.65,23.72.39,7.03-1.2,11.51-8.42,18.16-11.1,2.3-.93,6.08,6.18,4.65,4.92,2.66-1.78,4.64-3.58,4.64-3.58,9.78,2.18,14.66,35.69,16.4,39.77,1.74,4.08,5.57,10.02,5.57,10.02.41-2.02,1.11-3.69.96-5.7-.04-1.8.33-4.07.29-5.87.38-4.35,5.92-6.44,9.44-5.58l2.13,1.25c5.79,3.02,7.37,19.71,6.96,25.34,3.62,9.26-1.85,17.75-9.36,13.47l.48,4.07-4.26,23.54c-4.45,13.5-17.64,31.51-31.96,37.77-5.13,2.24-11.9,5.82-18.48,1.28-6.65-4.59-9.54-7.34-16.29-11.32-6.48-3.81-9.83-6.52-14.66-12.27-5-5.95-5.85-7.74-8.39-14.87-1.14-3.18-3.13-7.88-4.76-10.67-1.88-3.23-9.78-15.73-13.82-23.35-4.04-7.62-5.05-25.23-5.05-25.23Z"/>
    <path class="cls-56" d="M1085.09,94.56c.04-3.76.24-7.63,1.27-11.26.39-1.36.89-2.88,1.9-3.92-.05.05.2-.16.27-.23-.12.12.12-.04-.14.08l-.84.07c.71.35,1.34.99,1.86,1.58,1.5,1.72,2.31,3.91,2.74,6.13.08.44,1.51.1,1.42-.38-.49-2.59-1.56-5.19-3.54-7.01-.68-.63-1.44-1.33-2.39-.8-1.77,1-2.47,3.74-2.91,5.52-.84,3.46-1.02,7.06-1.05,10.61,0,.38,1.41.14,1.42-.38h0Z"/>
    <path class="cls-56" d="M1087.14,95.19c.24-.12.05-.09.21-.06.12.03.23.09.34.15.31.2.53.52.7.84.45.8.7,1.71.96,2.58.34,1.14.71,3.52,2.35,3.3.93-.12,1.28-.7,1.33-1.57.08-1.39-.22-2.82-.53-4.16-.44-1.93-.98-3.57-2.03-5.23-1.2-1.9-2.9-3.92-5.34-3.86-.26,0-.8.1-.94.36s.12.31.35.3c1.99-.05,3.57,2.08,4.52,3.58.89,1.41,1.4,2.75,1.82,4.37.37,1.42.69,2.89.75,4.36.02.43-.07.82-.11,1.24,0,.02-.09.18-.09.19,0-.02.75-.12.7-.25-.03-.07-.28-.23-.34-.3-.43-.54-.61-1.32-.81-1.97-.25-.82-.47-1.66-.79-2.47-.27-.7-.64-1.53-1.33-1.91-.8-.45-1.81-.16-2.57.23-.2.1-.41.29-.15.44s.77-.05.99-.16h0Z"/>
    <path class="cls-56" d="M985.83,91.68s10.49-2.97,18.73-6.03c8.24-3.07,14.91-9.35,14.91-9.35,0,0-8.65,6.03-15.15,8.49-6.5,2.45-18.49,6.9-18.49,6.9Z"/>
    <path class="cls-4" d="M1019.22,91.48c7.94-6.14,14.1-9.23,16.78-10.09,2.09-.67,4.3-.99,6.51-1.03,0,0,6.87,1.52,7.92,2.13,1.06.61-3.24,1.05-3.24,1.05-.87.19-1.52.22-2.36.51-4.64,1.6-9.34,2.62-13.49,5.28-3.56,2.26-7.73,6.61-10.75,9.57-.86-1.43-2.03-4.66-3.02-6"/>
    <path class="cls-4" d="M979.03,111.97c.02-.15-.24-1.1-.21-1.25,0,0,.05-.16.05-.17.82-.71,1.69-1.86,2.99-2.63,2.27-1.34,7.94-4.92,17.05-6.94.6,1.51,1.99,4.28,2.6,5.79-3.9.39-6.49,1.01-10.26,2.16-3.53,1.08-8.44,2.85-11.74,4.63-.22-.28.04-.02-.16-.32-.1-.21-.19-.43-.27-.66-.03-.2-.06-.4-.07-.6Z"/>
    <path class="cls-37" d="M1031.99,171.62c.14-.08.27-.19.36-.33,1.72-2.53,1.55-3.49,2.59-4.24.24-.17.34-.32,1.12-.78,3.14-1.82,5.03-2.99,16.27-.93.23.04,11.33-6.2,11.55-6.31l4.88-5.32c.76-1.04,15.63-29.37,15.63-29.37.08-.78,2.33-6.99,2.24-7.67.06-.06.11-.13.17-.19.02-.02.07-.07.12-.12.03.04.06.08.08.11.15.24.25.52.35.79.41,1.17.64,2.39.74,3.62.16,1.9.55,3.74.78,5.62.08.66.13,1.33.15,2-1.93,2.66-4.15,28-17.39,38.54-.54.41-2.24,1.73-7.17,4.23-9.26,4.7-16.04,10.89-26.59,11.97-2.75.28-5.45-.68-7.37-2.57-5.48-5.4-24.54-27.37-30.04-36.52,4.91,4.6,19.68,18.61,26.83,25.33.22.2,4.05,2.32,4.39,2.29"/>
    <path class="cls-37" d="M1072.82,38s-12.49-14.92-35.18-12.43c-17.12,1.88-46.59,15.44-55.81,25.75-13.37,14.94-9.93,33.84-9.93,33.84l100.92-47.16Z"/>
    <path class="cls-53" d="M1048.17,180.29s23.64-10.49,27.89-16.6c4.24-6.11,8.01-15.22,9.53-27.16,0,0,1.26,24.95-10.88,32.61-16.01,10.1-25.04,13-25.04,13l-1.5-1.84Z"/>
    <path class="cls-5" d="M993.02,118.45c-1.48-.11-2.83,1.07-3.32,2.12-.12.25-.26.9-.15,1.8.14,1.15,1.04,2.13,1.98,2.56,1.26.57,2.75.12,3.63-.85,1.19-1.33.91-3.32-.02-4.46-.17-.21-.92-1.07-2.11-1.16"/>
    <path class="cls-5" d="M1007.82,116.63s-7.91-2.12-11.06-1.13c-4.6,1.45-8.99,6.22-9.61,9.08,0,0,5.63-6.74,8.9-7.66,3.13-.89,11.77-.29,11.77-.29Z"/>
    <path class="cls-5" d="M1030.57,102.71c.94-1.15,2.97-1.81,4.07-1.45.26.08.96.34,1.54,1.04.74.89.82,2.22.49,3.2-.45,1.31-1.81,2.08-3.12,2.03-1.78-.06-3.03-1.64-3.21-3.09-.03-.27-.47-.62.29-1.55"/>
    <path class="cls-5" d="M1025.97,108.45s4.86-7.11,8.1-8.61c4.73-2.19,11.66-1.84,14.19-.21,0,0-9.31-.9-12.61.73s-9.68,8.09-9.68,8.09Z"/>
    <g>
      <path class="cls-13" d="M1022.94,138.76c1.97.17,4.36-1.05,5.58-2.73.27-.37,1.57-.66,1.19-.13-1.61,2.22-5.1,3.82-7.65,3.59-.25-.02-.28-.2-.06-.39.23-.2.67-.36.94-.34"/>
      <path class="cls-13" d="M1030.22,135.14c.88-.96,1.99-1.74,3.17-2.34.17-.09.43-.12.61-.05.14.05.21.16.11.29-.43.55-1.09.98-1.75,1.24-.21.08-.5.14-.69.02-.18-.12-.02-.31.14-.37.55-.22,1.06-.55,1.41-1.01.24.08.48.16.72.24-1.05.53-2.04,1.24-2.83,2.1-.16.17-.46.23-.68.2-.16-.02-.37-.14-.22-.32"/>
      <path class="cls-13" d="M1035.13,133.29c1.41-.63,2.83-1.94,3.09-3.3.39-2.05-1.65-4.2-3.86-4.49-.24-.03-.2-.22-.02-.34.23-.16.58-.19.83-.16,1.92.26,3.8,1.94,4.19,3.55.37,1.5-.59,3.06-2.13,4.17-.46.33-.96.64-1.49.87-.21.09-.63.19-.8.07-.18-.13-.01-.28.19-.37"/>
      <path class="cls-13" d="M1020.03,139.12c0-.2-.18-.24-.29-.19-.38.17-.82.23-1.26.1-.06.21-.12.41-.19.62.81-.24,1.68-.3,2.56-.13.17.03.35-.11.43-.26.06-.11.08-.33-.09-.37"/>
      <path class="cls-13" d="M1021.2,138.88c-.98-.19-1.96-.1-2.86.16-.13.04-.27.17-.31.33-.03.12,0,.25.13.29"/>
      <path class="cls-13" d="M1017.15,140.54c-.94.35-2.29.18-3.19-.7-1.36-1.33-1.51-3.51-.78-5.02.08-.16-.05-.28-.19-.27-.19.01-.35.19-.43.36-.64,1.32-.69,3.05.09,4.5.73,1.35,2.02,1.97,3.3,1.92.38-.02.77-.08,1.12-.21.14-.05.37-.22.37-.42,0-.2-.16-.22-.29-.17"/>
    </g>
    <path class="cls-9" d="M1078.58,86.25l-1.21-2.56-31.47,7.76h0c-11.04.41-23.07,8.87-28.52,17.24l-6.59,3.33.02-.13c-10.49-2.42-23.94,2.44-31.88,11.51l.75.95h0c.03.07.17.19.32.39l.66.82c4.14,5.29,8.69,10.81,11.07,11.74,1.6.63,5.47-.44,8.57-1.51,1.18-.4,2.23-.8,2.99-1.09.91-.36,8.97-3.56,9.74-5.4.77-1.84-1.12-12.19-1.79-15.43l6.77-3.38c1.9,1.91,8.08,11.01,12.35,11.53,4.26.52,21.21-7.9,21.72-11.05.36-2.25.04-9.78-.56-13.39l-.41-4.81,27.47-6.51ZM1011.82,128.71c-.91,1.84-16.89,8.39-19.66,7.31-2.34-.92-8.25-8.46-10.47-11.29l-.06-.13c7.32-7.6,19.43-12,28.49-10.04,1.05,5.64,2.17,12.98,1.69,14.12v.03ZM1049.72,111.14c-.31,1.99-14.82,10.01-19.22,9.48-3.06-.36-7.69-6.96-10.68-10.6,5.39-8.04,19.12-16.49,29.18-16.29.76,5.77,1,11.6.71,17.41h0Z"/>
    <path class="cls-10" d="M1259.35,425.48l4.58,48.57c.55,27.77-13.32,72.19-21.85,98.88l-24.74,100.5s2.03,26.76,7.5,67.27c4.76,35.12-2.85,146.77-2.85,146.77l-13.54,2.31c-12.23,2.08-24.74,2.5-37.1,1.22l-26.54-2.75-25.03-221.8-18.35-127.24-25.15-76.48,183.07-37.25Z"/>
    <path class="cls-10" d="M1055.38,455.51l13.75,222.75c0,9.83,6.16,34.56,11.99,50.88l10.98,82.6,6.77,70.08,3.91,1.2c10.58,1.91,21.4,2.52,32.16,1.81l23.58-.87-26.15-421.52-76.99-6.93Z"/>
    <path class="cls-20" d="M1034.91,399.54l-2.31-8.5c.15-.04-2.41-6.68-2.26-6.71l-30.7-114.02,5.87-39.39s7.53-16.8,8.13-19.49l27.18-25.62s4.99-.21,13.02,11.19c3.44,4.88,4.28,23.66,10.83,22.75,0,0,0-16.37,13.32-32.31,0,0,37.04-29.96,36.88-37.3,14.79,1.63,60.49,13.08,72.5,20.79,14.12,9.02-11.25,48.8-21.61,71.67l21.22-2.32s25.75,24.06,38.59,62.18c.5,1.36,7.07,31.81,7.57,33.35,1.56,4.54,8.41,20.4,9.6,23.46-.29.07,4.52,7.09,10.44,33.04,7.02,27.83,8.02,26.38,9.41,39.12,1.75,16.02-112.51,50.19-153.35,49.52-37.43-.61-60.45,4.53-66.8-54.27h0s0,6.76-7.52-27.15Z"/>
    <path d="M1096.18,521.83c18.31,12.56,18.76,37.07,18.77,57,0,10.6.02,21.2.03,31.8.01,14.31.02,28.63.04,42.94.01,11.91-.12,23.81.98,35.69.65,6.94,1.69,13.85,2.64,20.76,1.43,10.43,2.87,20.87,4.3,31.3,1.96,14.22,3.91,28.45,5.87,42.67s4.07,29.59,6.1,44.38c1.67,12.15,3.34,24.3,5.01,36.44.86,6.28,1.73,12.57,2.59,18.85.04.28.08.55.11.83.1.7,2.46.18,2.35-.63-.61-4.41-1.21-8.83-1.82-13.24-1.52-11.08-3.05-22.16-4.57-33.24-1.99-14.46-3.98-28.92-5.97-43.39-2.01-14.65-4.03-29.29-6.04-43.94-1.6-11.61-3.19-23.23-4.79-34.84-.74-5.36-1.47-10.72-2.21-16.08-1.43-10.35-2.19-20.77-2.2-31.22,0-2.55,0-5.11,0-7.66-.01-13.21-.02-26.43-.03-39.64s-.02-25.39-.03-38.08c-.01-16.6.74-34.34-7.8-49.21-2.8-4.87-6.49-9.18-11.13-12.37-.64-.44-2.76.5-2.19.89h0Z"/>
    <path class="cls-52" d="M1094,109.14c.03.06.04.12.07.19-.01-.09-.03-.16-.07-.19Z"/>
    <path class="cls-20" d="M1081,192.13l16.71,10.61,6.16-5.83c16.31-15.22,28.25-45.48,28.25-45.48l-20.57-11.51c-3.76,11.05-35.78,45.99-35.78,45.99l-14.29,31.29-8.2-27.64c-4.75-5.93-4.75-5.03-5.12-9.14-.25,0-.6.45-.85.43-1.04-.07-3.23,1.4-4.27,1.36l-12.68,10.87c3.54,21.04,7.65,14.27,7.65,14.27l11.51-9.55c3.47,7.26,7.37,14.43,10.5,21.84.95,2.25,1.73,4.61,2.4,7.03l-.78-4.25c.51-1.09,19.36-30.29,19.36-30.29Z"/>
    <path class="cls-50" d="M1028.54,191.89c.8,4.69,1.69,9.74,4,13.97.78,1.44,1.91,3.11,3.64,3.46.81.16,1.72,0,2.42-.44,1.69-1.09,3.21-2.65,4.76-3.93,2.3-1.91,4.6-3.82,6.9-5.72l-1.3.08c3.49,7.28,7.34,14.4,10.5,21.84.21.5,1.64.05,1.45-.39-3.16-7.44-7.01-14.55-10.5-21.84-.21-.44-1.03-.15-1.3.08-3.77,3.13-7.53,6.27-11.31,9.38-.07.05-.35.3-.08.08-.08.06-.23.12-.04.03-.22.1-.09.14-.45.08-1.25-.2-2.32-1.56-3-2.7-2.52-4.24-3.41-9.57-4.22-14.36-.08-.48-1.54-.14-1.45.39h0Z"/>
    <path class="cls-50" d="M1061.72,222.84c.58-1.18,1.47-2.26,2.2-3.34,1.61-2.37,3.23-4.73,4.85-7.09,3.52-5.12,7.05-10.23,10.59-15.33.83-1.19,1.65-2.39,2.48-3.58l-1.25.34c5.57,3.54,11.14,7.07,16.71,10.61.37.23.87.06,1.16-.21,2.05-1.94,4.1-3.88,6.16-5.83,4.12-3.89,7.65-8.33,10.87-12.98,5.81-8.42,10.61-17.55,14.77-26.88.89-1.99,1.76-4,2.55-6.03.29-.76-1.16-.72-1.38-.14-2.14,5.54-4.72,10.94-7.44,16.22-5.17,10.02-11.16,20.04-19.17,28.07-2.45,2.46-5.04,4.8-7.56,7.18l1.16-.21c-5.57-3.54-11.14-7.07-16.71-10.61-.42-.26-.99-.04-1.25.34-5.82,8.38-11.64,16.76-17.38,25.2-.91,1.34-2.03,2.69-2.74,4.14-.35.72,1.11.69,1.38.14h0Z"/>
    <path class="cls-37" d="M1184.66,361.59c13.32,2.2,22.72-1.15,34.1,6.11,4.85,3.09,13.82-2.07,17.96,1.98,2.68-20.59-7.07-81.4-7.07-81.4l-41.29-100.72c-.87,1.66-1.78,3.31-2.71,4.93-2.45,4.25-4.61,7.67-6.47,11.2-.99,1.87-1.93,3.77-2.74,5.72-.24.58-1.77,5.46-1.36,3.68-1.69,7.33-7.41,13.03-15.42,12.15,4.27,40.7,12.04,117.37,14.65,137.3,2.8.21,7.59-1.41,10.35-.95Z"/>
    <path class="cls-37" d="M1231.92,361.56c-10.88-7.08-23.62-11.28-36.43-13.05-8.01-1.1-13.36-9.75-21.42-8.8.75,2.2.31,11.84.31,11.84,0,0-87.73,74.25-99.81,92.02l14.68,20.31c8.16-7.07,93.27-39.26,93.27-39.26,0,0,54.67-19.18,54.66-61.5-.61-.43-4.64-1.15-5.26-1.55Z"/>
    <path class="cls-20" d="M1161.46,312.54l-11.07-59.23,3.14-93.45s49.87,5.44,64.09,36.1c7.16,16.39,16,74.57,21.56,107.3-45.8,12.93-57.69,12.01-77.72,9.28Z"/>
    <path class="cls-50" d="M1163.14,181.49c-4.35,1.06-7.89,4.18-10.66,7.58-3.05,3.75-5.45,8.12-7.03,12.68-2.38,6.86-2.48,14.49-2.42,21.67.17,20.01,3.11,40.07,6.65,59.72,1.88,10.45,4.04,20.87,6.65,31.16.05.2.28.34.48.35,3.83.27,7.7.52,11.55.44.84-.02,1.1-1.13.12-1.11-3.72.08-7.46-.16-11.17-.42l.48.35c-4.73-18.64-8.17-37.68-10.62-56.75-1.24-9.65-2.22-19.35-2.55-29.08-.25-7.3-.31-14.81,1.11-22.01.96-4.89,3.13-9.6,5.9-13.72s6.68-8.58,11.79-9.82c.91-.22.62-1.26-.28-1.04h0Z"/>
    <path class="cls-56" d="M1173.55,352.57c9.07-1.01,18.29,2.34,24.68,8.84.37.38,1.72-.16,1.31-.57-6.68-6.8-16.35-10.17-25.81-9.11-.71.08-1.15.96-.18.85h0Z"/>
    <path class="cls-50" d="M1020.26,348.33c-.64-3.39-1.44-6.76-2.21-10.12-.9-3.89-1.76-7.81-2.92-11.63-.66-2.17-1.6-4.25-2.36-6.39-.83-2.32-1.58-4.66-2.36-6.99-1.6-4.77-3.43-9.43-5.48-14.02-2.18-4.87-4.4-9.72-6.83-14.47-.2-.38-1.59.12-1.45.39,4.45,8.71,8.61,17.7,11.79,26.95.79,2.29,1.52,4.6,2.3,6.88.85,2.46,1.88,4.86,2.71,7.32,1.18,3.49,1.93,7.16,2.77,10.75.91,3.89,1.84,7.78,2.58,11.71.06.34,1.52,0,1.45-.39h0Z"/>
    <path class="cls-7" d="M894.29,938.48s-1.63,2.01-.59,5.41c1.04,3.39,20.3-.68,27.02-.04,6.72.64,37.93,3.22,44.46,1.35s.18-10.19.18-10.19l-71.08,3.47Z"/>
    <path class="cls-37" d="M970.91,920.11c.88,3.8,1.21,5.94,2.12,9.58,1.06,4.19-.7,7.41-5.21,9.3-3.8,1.59-8.92,2.44-13.08,2.32-5.44-.16-11.25-1.02-16.69-1.18-4.66-.13-23.65-1.03-28.19-.09-7.08,1.46-11.48.51-14.66-.55-.88-.29-1.42-.23-1.84-.89-1.09-1.72-1-3.65,1.3-5.18,2.9-1.93,6.5.55,9.2-1.71.48-.4.92-.85,1.48-1.14,1.09-.58,2.43-.48,3.68-.5,6.26-.09,10.06-2.82,18.21-5.15,2.39-.68,16.45-14.57,18.66-15.67"/>
    <path class="cls-37" d="M911.96,651.6c-.02.28.03.56.16.81,1.11,2.13,6.65,10.98,7.32,19.69.61,7.84,1.51,19.23,1.82,23.18.07.93-.72,1.74-1.68,1.66-1.33-.1-3.13-.89-4.35-3.94-1.17-3.36-2.03-6.82-2.57-10.33-.19-1.23-1.71-1.75-2.65-.9h0c-.37.34-.56.83-.5,1.33l1.41,10.94c.08.59.49,1.08,1.08,1.27,2.15.68,7.33,2.62,8.98,5.94.5,1-.29,2.16-1.42,2.18l-7.26.16c-.1,0-.19,0-.29-.02l-7.23-1.15c-.29-.05-.55-.17-.77-.35l-6.82-5.7c-.21-.18-.37-.41-.47-.67l-6.66-18.98c-.61-1.72-.77-3.57-.43-5.37.96-5.15,1.65-10.34,2.05-15.56.52-10.2.76-16.77.85-19.8.03-1,1.02-1.71,2.01-1.45l17.1,4.54c.73.19,1.21.86,1.16,1.6l-.83,10.92Z"/>
    <path class="cls-37" d="M916.67,454.66c-2.22,1-24.35,26.09-27.55,41.33-3.2,15.24-.46,46.95-1.33,60.14-1.13,13.64-1.22,28.77-1.1,45.68.03,4.41.39,8.83,1.07,13.19l5.52,35.84,14.32-4.27s1.95-92.98,8.24-114.51c6.28-21.52.83-77.41.83-77.41Z"/>
    <path class="cls-37" d="M971.79,922.96s-31.51,13.14-40.67,14.02c-9.17.88-16.03,3.58-16.03,3.58,0,0,13.91-15.75,25.07-22.44,2.35-1.41-9.51-81.09-17.1-118.16-5.27-25.75-4.68-46.62-4.68-46.62l42.56.35,1.91,39.73,2.46,7.09c1.28,3.71,4.75,10.74,5.37,14.62,1.68,10.5,4.19,24.46,4.24,29.9.09,9.21-1.95,21.89-2.01,25.13l-4.38,40.17,3.26,12.62Z"/>
    <path class="cls-37" d="M1015.68,920.2s-35.88,21.18-45.08,21.78c-9.19.6-6.34-4.48-6.34-4.48,0,0,22.86-25.4,24.94-29.94,1.14-2.49-10-75.17-16.44-112.45-4.48-25.9-5.98-46.64-5.98-46.64l42.53,1.66,6.69,37.8,2.24,7.17c1.17,3.74,2.9,10.41,3.4,14.31,1.35,10.55,3.18,28.32,3.07,33.75-.19,9.21-4.65,32.09-4.81,35.33l-4.94,30.16.74,11.55Z"/>
    <path class="cls-7" d="M1017.88,933.88s1.39.06,1.53,4.79c.18,6.33-19.45,5.62-24.68,6.12-5.23.5-21.86,5.75-33.64,6.28-11.78.53-23.83-6.49-25.04-10.2-1.21-3.71.21-5.42,2.72-6.42,2.51-1,75.46-4.34,75.46-4.34l3.65,3.76Z"/>
    <path class="cls-37" d="M1015.22,906.44c-.3,3.96,1.1,9.58,2.09,17.9.43,3.66,3.43,8.88-.4,11.58-6.79,4.77-14.91,2.93-17.99,3.68-6.48,1.59-11.66,1.61-17.88,3.7-6.3,2.12-7.6,2.64-14.53,3.13-.96.07-1.97.05-2.81-.38-.56-.29-1-.73-1.56-1.02-1.99-1-4.46.37-6.72.1-1-.12-1.9-.56-2.83-.91-2.45-.91-5.13-1.2-7.72-1.72-2.59-.52-5.23-1.36-7.04-3.1-1.81-1.74-2.51-4.6-.98-6.55,2.31-2.95,5.35-1.26,8.52-1.56,3.16-.3,4.35-.82,7.14-2.11,7.12-3.32,8.21-3.99,14.22-6.59,4.66-2.02,18.35-8.47,24.9-13.03l-.17-15.71"/>
    <g>
      <path class="cls-56" d="M962.84,944.96c-.82-.22-1.14-1.17-1.14-1.94s.44-1.52,1-2.06c1.22-1.17,2.95-1.71,4.47-2.37.14-.06.6-.24.42-.46-.16-.2-.77-.02-.94.05-1.46.63-2.96,1.18-4.29,2.07-1.19.79-2.29,1.99-2.08,3.52.11.8.57,1.56,1.39,1.78.32.09.73-.02,1.02-.17.14-.07.49-.34.16-.43h0Z"/>
      <path class="cls-56" d="M955.56,944.91c-1.38-.01-1.29-2.3-1.13-3.23.13-.78.41-1.37.99-1.92.76-.73,1.77-1.14,2.75-1.49.64-.23,1.26-.52,1.89-.79.54-.23,1.13-.5,1.72-.49.32,0,.79-.1.95-.41.15-.3-.13-.49-.41-.49-1.47-.02-2.76.7-4.08,1.25s-2.53.91-3.61,1.79c-.8.65-1.37,1.43-1.59,2.44-.18.84-.23,1.77,0,2.61.25.98.96,1.65,2,1.66.32,0,.79-.1.95-.41.15-.3-.13-.49-.41-.49h0Z"/>
      <path class="cls-56" d="M950.9,943.51c-1.09-.39-1.56-1.69-1.58-2.75-.02-1.07.54-2.04,1.27-2.78.78-.78,1.75-1.35,2.75-1.81s2.12-.91,3.2-1.14c.2-.04.8-.15.85-.41s-.45-.19-.59-.17c-1.1.23-2.2.62-3.24,1.03s-1.96.86-2.86,1.44c-1.55,1.01-3.03,2.57-2.81,4.57.12,1.12.72,2.21,1.82,2.6.3.11.75-.04,1.01-.18.15-.08.48-.3.17-.41h0Z"/>
      <path class="cls-56" d="M946.01,942.66c-1.39-.6-2.36-1.93-2.57-3.43-.18-1.29.29-2.31,1.28-3.12s2.14-1.33,3.29-1.79c.54-.21,1.09-.4,1.64-.59s1.34-.61,1.78-.59c.33.01.75-.1,1.02-.27.22-.14.21-.26-.07-.28-1.21-.05-2.45.6-3.57.99s-2.24.82-3.3,1.35c-.99.5-1.99,1.09-2.73,1.93s-.96,1.87-.75,2.97c.28,1.44,1.27,2.72,2.62,3.31.27.12.67,0,.93-.1.06-.02.65-.29.44-.38h0Z"/>
    </g>
    <path class="cls-56" d="M911.05,930.78c-2.12.63-4.7,1.39-6.34,2.87-1.27-.9-2.93-1.11-4.46-.86,1.49-.36,3.17-.17,4.49.7l-.11.03c.4-.51.94-.74,1.46-1.02,1.59-.74,3.23-1.41,4.96-1.71h0Z"/>
    <path class="cls-56" d="M973.25,918.84c-4.25,2.43-8.6,4.7-13.01,6.81-3.18,1.53-6.41,3.01-9.76,4.12-1.22.41-2.49.8-3.78.95-1.12.13-2.06-.21-3.23-.38-2.19-.33-5.05-.64-6.98.72-1.88,1.33-1.76,3.7-1.16,5.68.2.65,1.64.26,1.45-.39-.7-2.3-.56-4.83,2.31-5.16,1.94-.22,3.84.19,5.74.54,2.14.4,4.58-.52,6.56-1.21,6.23-2.18,12.17-5.25,17.98-8.36,1.51-.81,3.02-1.63,4.52-2.48.85-.49.08-1.24-.64-.83h0Z"/>
    <path class="cls-7" d="M963.39,923.08c-1.74.03-3.39.74-4.6,1.99l-7.38,7.81,2.04-.41,11.45-9.41-1.51.02Z"/>
    <path class="cls-7" d="M951.9,932.87s.67-1.63,3.55-2.05c9.03-1.31,29.24-1.22,31.83,12l-3.29,1.31s-4.22-10.01-12.63-10.79c-8.42-.78-19.46-.48-19.46-.48Z"/>
    <path class="cls-7" d="M907.37,932s8.35-2.86,8.25,8.28l4.99.09s-1.82-10.37-6.51-10.75c-4.68-.38-6.74,2.38-6.74,2.38Z"/>
    <path class="cls-2" d="M1038.42,798.87c.13,1.73-26.68,7.49-28.7,7.79-14,2.07-31.23,1.51-44.79-1.9l-2.1-11.3-9.46-114.13-14.25-57.46,94.33-8.8,3.41,19.13c2.86,16.05,3.82,32.46,2.83,48.72l-4.67,58.11s2.73,51.8,3.39,59.83Z"/>
    <path class="cls-2" d="M939.1,797.67c-8.69-.2-19.99-1.04-26.65-6.82l-12.5-153.9,46.9-18.36,22.4,177.25c-9.59.71-20.49,2.06-30.15,1.83Z"/>
    <path class="cls-28" d="M961.51,795.45l-9.95-108.25s-7.4-16.54-11.93-16.59"/>
    <path class="cls-37" d="M909.82,392.97c-.9-5.39-1.12-11.42-.59-14.74-.21-2.51-.45-5.42-.71-8.93-.08-1.02-.12-2-.16-2.97.03-.5.01-1-.04-1.5-.37-17.18,4.8-26.46,4.8-26.46,6.61-11.75,18.96-19.09,32.43-19.26,15.83-.54,30.63,8.31,38.59,17.58,3.96,4.59,6.08,10.48,5.97,16.54-.09,5.18-.97,11.04-2.05,16.71,5.51-.55,11.04,1.13,9.58,11.43-2.01,14.2-10.83,19.05-15.3,15.42-.97.23-2.7,4.59-2.77,7.53-.14,5.64.63,15.6,3.66,20.35l-.06,1.61c-10.88,19.87-27.29,38.83-68,16.34l21.33-15.51-.24-4.31c-1.53-.02-3.08-.43-4.61-.64-6.32-.87-10.81-4.93-14.34-9.9-2.99-4.21-6.04-13.28-7.27-18.34-.08-.31-.14-.63-.2-.94Z"/>
    <path class="cls-56" d="M989.02,370.44c1.97-.19,4.11-.16,5.88.83,1.97,1.09,2.88,3.15,3.16,5.31.44,3.36-.31,7.02-1.33,10.22-.85,2.67-2.12,5.29-4,7.4-1.26,1.41-2.87,2.69-4.75,3.11-.75.17-1.54.18-2.28,0s-1.25-.78-1.92-.98c-1.9-.57-2.98,3.45-3.31,4.57-.81,2.76-.68,5.62-.52,8.47.17,3.03.51,6.06,1.17,9.03.33,1.46.73,2.91,1.3,4.29.38.92,1.11,1.79,1.07,2.74-.07,1.88-1.7,3.85-2.67,5.44-1.12,1.83-2.29,3.63-3.56,5.36-5.07,6.93-11.68,12.83-20.15,15.05-11.78,3.08-24.29-1.04-34.85-6.18-1.86-.91-3.7-1.87-5.52-2.87-.52-.29-1.81.43-1.12.81,14.01,7.71,31.84,14.51,47.4,7.12,5.44-2.58,10-6.66,13.75-11.32,1.89-2.35,3.59-4.84,5.17-7.41.81-1.32,1.59-2.65,2.34-4,.56-1,1.03-2.18.48-3.28-2.17-4.36-2.95-9.15-3.3-13.99-.16-2.29-.36-4.72-.06-7.01.17-1.26.51-2.51.97-3.69.22-.56.66-2.03,1.29-2.26h-.88c4.28,3.37,9.75-.46,12.31-4.09,2.4-3.39,3.66-7.51,4.25-11.58.49-3.31.61-7.48-1.98-10.03-2.15-2.11-5.39-2.32-8.23-2.05-.79.07-1.13,1.1-.14,1.01h0Z"/>
    <path class="cls-59" d="M1008.82,501.95c4.07,15.46,13.75,22.31,14.44,24.3.29.83,12.5,68.06,14.6,106.67-8.02,3.29-14.97,5.47-23.41,7.54-12.27,3-29.11,8.94-41.7,9.52-11.34.52-33.91,3.11-45.26,2.89-12.98-.25-15.97-2.76-28.87-7.36,1.32-27.22.21-78.45-.17-91.12-.47-13.94-2.2-24.35-2.2-24.35,0,0-7.27,2.59-16.41-2.98,4.54-16.17.56-66.98,25.7-83.62,3.56-2.35,24.39-12.64,30.26-15.67-1.26,2.48-1.25,6.34-.74,8.02,1.49,4.83,1.55,6,5.65,8.08,3.62,1.83,9.64,3.29,13.56,2.01,20.14-6.58,24.95-15.09,28.87-23.35,9.23,4.29,15.51,7.15,24.3,10.25,32.85,11.57,28.72,59.62,28.72,59.62-5.36,3.84-27.37,9.57-27.37,9.57Z"/>
    <path class="cls-23" d="M936.33,422.81s15.13.39,28.19-9.27c0,0-1.39,4.62-10.85,8.55-9.46,3.93-17.21,3.16-17.21,3.16l-.13-2.44Z"/>
    <ellipse cx="915.56" cy="373.48" rx="3.36" ry="3.38" transform="translate(-68.89 280.73) rotate(-16.81)"/>
    <path d="M911.44,370.88c1.55-1.11,3.72-1.9,6.99-1.79,5.24.17,7.97,6.57,7.97,6.57,0,0-3.05-4.83-8.22-5.13-2.49-.14-6.48,1.54-8.31,2.6.02-.5.65-1.53,1.57-2.25Z"/>
    <path class="cls-56" d="M994.51,382.31c.46-1.63.59-3.46-.06-5.06-.22-.53-.43-1.11-1.11-1.05-1.43.12-2.68,1.48-3.54,2.5-1.42,1.69-2.52,3.64-3.53,5.6-.35.68.85.69,1.17.42.2-.16.62-.5.89-.45.42.09.5,1.02.5,1.34-.02,1.51-1.24,2.34-2.62,2.56-.31.05-.77.21-.8.59-.03.34.37.53.67.48,2.11-.34,4.36-1.61,4.21-4.04-.05-.87-.43-1.82-1.39-1.98-.85-.14-1.77.3-2.41.83l1.17.42c1.16-2.26,2.46-4.74,4.4-6.44.22-.2.46-.38.71-.54.16-.1-.13.07.02-.01.04-.02.08-.05.13-.07.09-.04.17-.08.26-.12.05-.02-.17.05.02,0,.05-.01.1-.02.15-.04-.06.02-.23.02-.1.02.08,0,.13,0-.15,0l-.41-.21c1.09,1.47.81,3.76.36,5.37-.19.69,1.29.53,1.47-.11h0Z"/>
    <ellipse cx="950.56" cy="371.9" rx="3.36" ry="3.38" transform="translate(-66.93 290.78) rotate(-16.81)"/>
    <path d="M941.25,374.64s4.68-7.11,10.44-6.96c8.11.2,9.7,3.47,11.41,5.97,0,0-5.23-4.6-11.5-4.6-5.69,0-10.35,5.59-10.35,5.59Z"/>
    <path class="cls-15" d="M892.2,479.31c-.16,9.21.76,18.5,1.51,27.67.33,4.03.88,8.03,1.11,12.07.13,2.35.23,4.7.2,7.05-.01.93-.32,2.16-.13,3.06.1.51.28.23.18.35-.64.71-2.69.7-3.51.71-1.48.02-2.98-.21-4.41-.58-.95-.25-1.88-.55-2.8-.91-.5-.19-.99-.4-1.48-.62-.55-.24-1.21-.73-1.79-.87s-.48-.04-.45-.67c.02-.59.05-1.17.07-1.76.04-.89.07-1.78.11-2.66l-1.4.37c2.5,2.53,6.45,3.69,9.86,4.09,1.89.22,4.29.56,6.12-.18.38-.15,1.12-.52,1.1-1.03-.03-.72-1.49-.46-1.46.13,0,.1.06-.04.01,0,.02-.02-.4.15-.61.2-2.06.4-4.53.03-6.55-.41-2.47-.53-5.3-1.57-7.13-3.41-.33-.33-1.37-.2-1.4.37-.07,1.69-.14,3.39-.21,5.08,0,.13.04.27.17.33,4.35,2.32,9.64,4.37,14.65,3.19.61-.14,1.6-.34,2.08-.8s.35-1.39.38-2.01c.06-1.02.08-2.04.08-3.06,0-2.05-.09-4.09-.21-6.14-.23-4.03-.76-8.02-1.1-12.03-.32-3.73-.58-7.47-.83-11.2-.36-5.48-.78-11-.69-16.49.01-.71-1.45-.47-1.46.13h0Z"/>
    <g>
      <path d="M911.74,340.81c2.95-16.34,14.04-23.1,29.98-25.4,13.75-1.99,27.09-4.09,40.05,4.49,2.14,1.43,9.12,5.88,11.89,10.07,9.6,14.55,6.44,29.9,3.23,42.27-.25-.1-.5-.19-.75-.29-1.47-.35-2.94-.31-4.39.12-1.04.19-2.04.73-2.97,1.2-.93.47-1.79,1.25-2.51,1.94-1.57,1.52-2.37,3.42-3.03,5.45-.02.09-.02.17-.04.26-1.33.53-.59.06-1.9-.76-1.21-.76-1.16-3.39-1.47-4.74-.63-2.74-.31-5.56-.35-8.35.2-1.54.44-3.07.74-4.6,1.26-6.39-1.43-9.95-3.09-15.4,0,0-3.11-7.97-12.6-12.4-10.39-4.83-14.24,2.23-26.91,2.57-10.94.25-12.64-6.46-20.15-1.5,0,0-2.48.85-3.39,2.04-.9,1.19-2.36,3.02-2.36,3.02Z"/>
      <path d="M912.05,340.77c.74-4.08,2.08-8.06,4.32-11.57,1.98-3.1,4.64-5.71,7.73-7.71,7.4-4.78,16.39-5.86,24.94-6.92,5.18-.64,10.43-1.03,15.64-.49,5.54.58,10.88,2.31,15.64,5.21,3.41,2.08,6.77,4.43,9.73,7.11,1.73,1.57,3.13,3.29,4.32,5.3,1.47,2.47,2.66,5.1,3.53,7.84,3.07,9.64,1.83,19.79-.5,29.44-.27,1.1-.55,2.2-.83,3.3l.56-.19c-3.04-1.16-6.54-.29-9.19,1.47-1.26.84-2.43,1.97-3.27,3.24-.41.63-.75,1.31-1.05,2s-.64,1.44-.74,2.18l.19-.18c-.23.09-.39.21-.59.08-.11-.07-.21-.27-.3-.37-.32-.33-.76-.52-1.04-.9-.55-.75-.64-1.82-.76-2.71-.14-1.07-.39-2.13-.51-3.21-.16-1.49-.12-2.99-.09-4.49.01-.71-.02-1.44.02-2.15s.2-1.47.31-2.18c.22-1.39.56-2.76.69-4.16.21-2.21-.1-4.4-.76-6.52s-1.58-4.13-2.28-6.23c-.22-.67-.42-1.26-.74-1.89-1.26-2.47-3-4.71-5.01-6.62-3.05-2.9-6.93-5.33-11.07-6.27-3.29-.75-6.49-.15-9.64.88-3.81,1.24-7.52,2.54-11.54,2.9-2.35.21-4.73.17-7.05-.31-1.66-.34-3.25-.9-4.83-1.53-2.48-.98-4.9-1.86-7.55-.99-.77.25-1.5.6-2.19,1-.28.16-.56.37-.83.51-.22.11-.47.18-.69.28-.76.33-1.51.71-2.16,1.23-.72.58-1.24,1.41-1.8,2.14-.4.51-.8,1.02-1.2,1.53-.18.23.45.19.59.02.4-.51.8-1.02,1.2-1.53.63-.8,1.18-1.69,2.04-2.27.66-.44,1.39-.78,2.13-1.06.45-.17,1.18-.69,1.79-1,1.29-.64,2.68-.99,4.13-.81,1.34.16,2.6.69,3.84,1.18,1.47.58,2.94,1.14,4.48,1.51,2.06.49,4.19.66,6.3.58,4.12-.16,8.01-1.2,11.89-2.52,3.19-1.08,6.41-2.11,9.82-1.55,4.25.69,8.29,3.13,11.42,6.01,2.11,1.94,3.96,4.23,5.27,6.79.27.53.48,1.03.66,1.6.69,2.12,1.61,4.15,2.3,6.27.71,2.16,1.07,4.38.88,6.66-.12,1.36-.44,2.69-.66,4.03-.12.72-.24,1.45-.32,2.18s-.03,1.44-.04,2.16c-.03,1.37-.07,2.74.03,4.11.08,1.17.36,2.3.51,3.45.12.9.2,1.84.55,2.68s1.05,1.15,1.61,1.78c.42.47.95.21,1.47,0,.07-.03.18-.09.19-.18.17-1.21.83-2.52,1.43-3.57.7-1.21,1.66-2.23,2.75-3.1,2.42-1.93,5.98-2.96,8.94-1.83.17.06.51.02.56-.19,2.5-9.63,4.42-19.7,2.2-29.59-.61-2.72-1.52-5.37-2.71-7.89-1.11-2.34-2.4-4.7-4.13-6.64-2.81-3.13-6.38-5.56-9.86-7.88-4.42-2.94-9.21-5.05-14.45-6.01-5.21-.96-10.54-.86-15.8-.35-2.73.26-5.45.64-8.17,1.02-2.35.34-4.7.67-7.02,1.16-3.93.84-7.81,2.08-11.36,3.97-3.26,1.74-6.19,4.06-8.5,6.94-2.51,3.12-4.21,6.8-5.25,10.65-.29,1.08-.53,2.17-.73,3.26-.05.25.59.15.63-.07Z"/>
    </g>
    <g>
      <path class="cls-13" d="M930.8,393.15c1.15.57,2.88.39,4.01-.35.25-.16,1.1-.03.75.2-1.49.97-3.97,1.12-5.46.38-.15-.07-.12-.19.06-.25.19-.07.49-.06.65.02"/>
      <path class="cls-13" d="M936.04,392.66c.75-.38,1.61-.59,2.46-.68.12-.01.29.03.38.11.07.06.09.15,0,.2-.39.24-.89.34-1.35.34-.15,0-.34-.03-.42-.15-.08-.11.06-.19.17-.19.38,0,.77-.09,1.09-.28.13.11.25.21.38.32-.76.08-1.52.27-2.2.61-.13.07-.33.03-.45-.04-.09-.05-.19-.18-.06-.24"/>
      <path class="cls-13" d="M939.44,392.69c1-.05,2.16-.51,2.64-1.28.71-1.16-.03-3.05-1.3-3.75-.14-.08-.07-.18.07-.21.18-.04.39.02.54.1,1.1.61,1.85,2.18,1.72,3.26-.13,1-1.07,1.72-2.26,2.04-.35.09-.73.16-1.1.18-.15,0-.43-.03-.5-.15-.08-.12.06-.17.2-.18"/>
      <path class="cls-13" d="M928.95,392.68c.05-.12-.05-.19-.13-.19-.27.01-.55-.06-.78-.24-.09.11-.17.22-.26.33.54.05,1.09.21,1.58.52.1.06.24.02.32-.06.06-.06.13-.18.03-.25"/>
      <path class="cls-13" d="M929.71,392.81c-.55-.35-1.16-.53-1.77-.58-.09,0-.2.04-.27.13-.05.07-.06.15.01.2"/>
      <path class="cls-13" d="M926.88,392.87c-.65,0-1.43-.43-1.77-1.18-.51-1.13-.1-2.49.7-3.24.09-.08.04-.18-.05-.21-.12-.04-.25.03-.34.12-.69.65-1.12,1.69-.99,2.76.13,1,.77,1.68,1.55,1.95.23.08.48.13.73.14.1,0,.27-.05.32-.17.05-.12-.05-.17-.14-.17"/>
    </g>
    <g>
      <path class="cls-22" d="M983.6,422.49s-10.88,23-32.96,22.53c-22.08-.47-14.47-18.33-14.47-18.33l-6.55,3.18s-4.88,14.71,9.92,20.42c14.81,5.71,29.13-.85,39.16-10.52,10.03-9.67,10.95-14.61,10.95-14.61l-6.06-2.67Z"/>
      <path class="cls-15" d="M982.91,422.39c-1.13,2.37-2.64,4.6-4.21,6.7-3.48,4.65-7.79,8.8-12.9,11.61-6.42,3.54-14.31,4.84-21.46,2.95-4.6-1.22-8.13-4.31-8.63-9.2-.26-2.53.17-5.32,1.17-7.67.26-.62-.64-.74-1.02-.55-2.03.99-4.09,1.95-6.11,2.97-1.02.51-1.05,1.31-1.26,2.39-.92,4.81-.15,10.08,3.01,13.94,2.57,3.14,6.3,4.98,10.13,6.11,4.69,1.39,9.64,1.68,14.46.88,9.4-1.56,17.62-6.92,24.28-13.54,3.12-3.1,6.12-6.43,8.39-10.22.66-1.11,1.4-2.36,1.65-3.65.04-.22-.15-.38-.32-.46-2.02-.89-4.04-1.78-6.06-2.67-.64-.28-1.68.64-.83,1.01,2.02.89,4.04,1.78,6.06,2.67l-.32-.46c-.03.14-.06.25-.17.53-.24.65-.54,1.27-.86,1.88-1.46,2.73-3.45,5.18-5.5,7.48-6.17,6.91-13.7,12.95-22.74,15.52-4.44,1.26-9.11,1.6-13.67.83-4.19-.7-8.56-2.19-11.75-5.08-3.87-3.5-5.14-8.76-4.45-13.79.1-.73.23-1.45.42-2.16,0-.03.14-.33.11-.37.06.08-.65.32-.06.15,1.2-.35,2.42-1.18,3.55-1.72.91-.44,1.81-.88,2.72-1.32l-1.02-.55c-.92,2.16-1.36,4.67-1.3,7.01.11,4.73,2.72,8.47,7.09,10.3,6.78,2.84,15.26,2.02,21.91-.72,5.94-2.45,11.04-6.67,15.13-11.58,2.28-2.74,4.45-5.77,5.99-9.01.36-.76-1.1-.8-1.39-.19Z"/>
    </g>
    <path class="cls-37" d="M1020.24,591.3c-4.77-5.94,3.56-13.42-3.49-15.72-3.8-1.24.04-6.82-4.27-6.39l-7.4-76.11,38.02-4.64s14.53,72.58,7.84,97.45c-.55,2.04-2.97,9.86-18.26,14.73-.99-2.3-10.88-7.36-12.44-9.31Z"/>
    <path class="cls-37" d="M1017.71,565.8c2.17-.62,10.72,2.55,12.98,3.24,3.27,1,2.82,5.46,5.71,7.26,2.81,1.75-6.45,4.37-3.97,6.57,4.5,4,16.2.87,17.09,6.52-1.77,7.26-14.48,15.51-37.51,23.02-18.39,6-67.83,20.24-67.83,20.24l-10.86-13.68,84.38-53.17Z"/>
    <path class="cls-59" d="M997.3,428.86s39.47,9.6,46.58,36.16c9.22,34.46,10.69,62.83,10.69,62.83,0,0-30.62,12.26-56.78,4.45-16.14-4.82-8.89-98.63-8.89-98.63"/>
    <path class="cls-15" d="M1007,456.99c-2.04.72-3.89,2.13-5.42,3.61-3.83,3.71-5.96,8.77-6.82,13.98-1.01,6.14-.52,12.57-.08,18.74.5,6.98,1.28,13.94,2.17,20.89.8,6.22,1.67,12.43,2.69,18.62.02.14.19.27.31.31,3.06,1.03,6.37,1.48,9.56,1.83,8.41.9,16.93.4,25.25-1.06,6.84-1.2,13.53-3.11,20.03-5.53.21-.08.62-.27.6-.57-.23-3.22-.47-6.45-.7-9.67-.04-.62-.83-.59-1.22-.3-4.38,3.2-9.94,5.17-15.11,6.54-7.61,2.01-15.64,2.4-23.49,2.21-4.57-.11-9.67-.27-13.91-2.16-.64-.28-1.68.64-.83,1.01,3.84,1.71,8.35,2,12.49,2.19,3.38.15,6.78.14,10.16-.03,9.14-.47,18.02-2.02,26.33-6.01,1.83-.88,3.68-1.84,5.33-3.04l-1.22-.3c.23,3.22.47,6.45.7,9.67l.6-.57c-11.77,4.39-24.24,7.06-36.84,6.97-3.8-.03-7.61-.31-11.37-.93-1.74-.29-3.47-.89-5.2-1.14-.08-.01-.23-.12-.31-.1-.03,0,.18.33.27.21.07-.09-.13-.79-.15-.9-.41-2.59-.81-5.19-1.18-7.79-.76-5.24-1.46-10.48-2.07-15.74-.68-5.84-1.27-11.69-1.61-17.55-.29-4.94-.54-10,.12-14.92.69-5.16,2.64-10.28,6.36-14.03,1.03-1.03,2.19-1.96,3.45-2.69.35-.2.71-.38,1.08-.56.13-.06.61-.24.3-.13.87-.3.61-1.36-.28-1.05h0Z"/>
    <path class="cls-56" d="M1013.07,568.57c.95-.38,2.17-.24,3.15-.11,1.49.21,2.93.67,4.29,1.3,3.3,1.53,6.03,4.07,7.74,7.29.18.33,1.58-.21,1.48-.4-1.91-3.59-5.09-6.37-8.88-7.83-2.71-1.04-5.85-1.51-8.62-.4-.23.09-.39.19-.19.34s.85-.13,1.03-.2h0Z"/>
    <path d="M938.34,358.87c0-.12.44-.13.43-.25,7-1.51,12.33-1.61,14.27-1.26,1.48.27,2.91.81,4.27,1.56,0,0,3.75,1.99,4.2,2.78.45.79-2.29-.41-2.29-.41-.59-.17-.99-.37-1.59-.47-3.31-.52-6.47-1.45-9.8-1.06-2.85.32-6.71,1.86-9.45,2.85-.08-1.29.15-2.47-.04-3.74Z"/>
    <path d="M907.61,363.5c-.04-.15-.08-.31-.1-.47,0-.15,0-.29.02-.44.06-.25.14-.49.23-.73.05-.1.13-.19.19-.29.92-.64,1.89-1.14,2.89-1.45,1.61-.49,6.08-.8,12.04.17,0,.12.38.1.38.22-.08,1.28.19,2.44.2,3.72-2.36-.77-5.69-2.01-8.1-2.11-2.64-.13-5.07.88-7.62,1.64-.04-.09-.09-.17-.13-.26Z"/>
    <path class="cls-42" d="M942.39,400.44s-4.44,0-7.96.28c-3.52.29-7.89,1.04-7.89,1.04,0,0-.8-2.74,5.58-3.27,6.38-.53,10.27,1.95,10.27,1.95Z"/>
    <path class="cls-17" d="M1031.18,146.14c6.78-2.72,17.98-8.5,17.98-8.5,0,0,4.02,17.63-11.7,23.94-15.72,6.31-21.69-9.69-21.69-9.69,0,0,8.63-3.03,15.41-5.75Z"/>
    <path class="cls-12" d="M1031.11,146.17c3.22-1.29,15.28-6.22,15.28-6.22,0,0,.45,10.72-11.21,15.4-12.64,5.08-17.11-3.9-17.11-3.9l13.04-5.28Z"/>
    <path class="cls-36" d="M1031.17,146.72c3.22-1.29,12.81-5.79,12.81-5.79,0,0-2.09,5.01-11.76,8.9-9.67,3.88-14.15,1.63-14.15,1.63l13.09-4.74Z"/>
    <path class="cls-17" d="M1014.93,151.71c.3-.22,1.16-.28,2.54-1.12,2.48-1.53,3.3-3,5.12-3.9,3.1-1.55,5.67-1.04,7.07-1.6,1.39-.56,2.9-2.7,6.21-3.73,1.94-.6,5.09-1.12,7.78-1.93,1.61-.48,5.16-2.63,5.52-2.67.51-.07.85,3.99-16.68,11.03-17.53,7.04-17.97,4.24-17.56,3.93Z"/>
    <path class="cls-4" d="M1025.41,141l.94,3.43c.14.53.04,1.06-.27,1.32-2.09,1.83-13.04,6.74-11.49,9.6.21.4.55,2.27.49,2.28l-.77-.21c-.87.23-2.19-4.26-1.63-5.12,1.7-2.62,3.32-4.72,4.38-5.88,1.33-1.46,5.09-5.27,6.99-6.35.5-.28,1.15.17,1.36.94Z"/>
    <path class="cls-4" d="M1029.18,139.48l1.75,3.09c.27.47.81.72,1.34.62,3.67-.71,19.64-7.36,20.31-4.1.09.46,1.37,2.99,1.44,2.95l.46-1.24c.29-2.46-1.6-5.45-2.88-5.51-3.88-.17-7.27-.06-9.32.14-2.56.26-9.58,1.18-12.43,2.2-.75.27-1.07,1.15-.67,1.85Z"/>
    <path class="cls-17" d="M935.27,398.87c4.58-.41,11.94-1.59,11.94-1.59,0,0,1.76,12.6-10.95,13.53-10.62.78-11.92-11.26-11.92-11.26,0,0,6.35-.28,10.93-.69Z"/>
    <path class="cls-51" d="M934.91,398.91c2.23-.2,10.54-1.03,10.54-1.03,0,0-1.26,7.59-9.33,8.32-8.75.78-10.71-5.97-10.71-5.97l9.5-1.32Z"/>
    <path class="cls-36" d="M934.9,399.91c2.23-.2,8.99-1.16,8.99-1.16,0,0-2.51,2.01-9.21,2.61-6.7.6-8.75-.93-8.75-.93l8.96-.52Z"/>
    <path class="cls-17" d="M923.78,399.55c-.02-.23.45-.38,1.55-.56,1.83-.31,2.38-1,3.71-1.22,2.27-.37,3.8.34,4.79.25s2.37-1.06,4.67-1.1c1.35-.02,4.7.13,6.56.11,1.12-.01,2.38-.53,2.62-.49.34.05-.17,3.04-12.66,4.15-12.49,1.12-11.22-.83-11.25-1.14Z"/>
    <path class="cls-7" d="M315.58,854.62s1.04-.54-.52-4.21c-2.09-4.92-16.91,2.54-21.1,4-4.19,1.46-24.27,9.63-33.5,13.37-9.23,3.74-10.53,7.03-10.16,10.31.38,3.28,2.07,4.09,4.35,3.97,2.28-.12,59.44-23.26,59.44-23.26l1.48-4.18Z"/>
  </g>
  <g id="Layer_3" data-name="Layer 3">
    <path class="cls-56" d="M359.04,922.34c1.81,4.03,3.61,8.07,5.42,12.1.26.58.52,1.15.78,1.73s1.72.11,1.49-.4c-1.81-4.03-3.61-8.07-5.42-12.1-.26-.58-.52-1.15-.78-1.73s-1.72-.11-1.49.4h0Z"/>
    <path class="cls-56" d="M359.23,935.42c.33,0,1.69-.62.96-.62-.33,0-1.69.62-.96.62h0Z"/>
    <path class="cls-56" d="M358.96,935.19c0,2.11,0,4.23,0,6.34,0,.3,0,.61,0,.91,0,.34.38.39.66.36.23-.03.84-.2.84-.53,0-2.11,0-4.23,0-6.34,0-.3,0-.61,0-.91,0-.34-.38-.39-.66-.36-.23.03-.84.2-.84.53h0Z"/>
    <path class="cls-54" d="M856.27,841.6l-.29.5.29-.5Z"/>
    <path class="cls-49" d="M34.33,907.14c39.32-12.35,81.96,15.81,123.08,9.55,14.76-2.25,29.13-8.92,43.92-6.83,10.22,1.44,19.44,7.01,29.77,7.49,15.57.72,28.63-10,43.61-13.86,22.3-5.74,45.9,4.23,69.08,3.13,24.64-1.18,47.79-14.82,72.28-12.15,17.77,1.94,33.48,12.33,51.34,13.41,16.05.97,31.37-5.7,47.31-7.63,34.56-4.19,68.97,14.03,103.47,9.46,25.36-3.36,47.86-6.77,73.51-6.94,18.91-.12,36.48,8.1,54.9,11.89,34.32,7.06,70.27-13.48,105.36-10.73,5.87.46,11.92,1.3,16.87,4.16,13.98,8.06,11.13,28.69-1.76,38.06-12.89,9.38-31.14,10.09-47.72,8.5-16.57-1.6-33.32-5.06-49.73-2.42-17.52,2.82-32.96,12.37-50.5,15.11-20.93,3.28-41.96-3.46-62.87-6.83-31.23-5.04-63.36-2.59-94.84,1.02-55.33,6.33-110.91,16.15-166.45,11.51-32.72-2.73-64.88-10.47-97.74-11.08-44.57-.83-89.37,11.46-133.24,4.45-17.39-2.78-34.05-8.54-51.45-11.24-36.18-5.63-73.95,2.14-109.83-4.84-7.02-1.36-14.68-3.86-17.7-9.64-5.39-10.28,7.82-20.68,19.98-24.16,12.16-3.48,23.99.91,29.33-9.39"/>
    <path class="cls-21" d="M79,729.37c-5.21-3.46-7.14-10.22-7.33-16.48-.19-6.26.94-12.53.13-18.79-.66-4.98.26-10.2.66-15.22.75-9.85,6.58-11.27,10.75-20.26,4.17-8.98-2.09-11.27.15-15.03,1.09-1.88,4.17-1.2,6.09-.24,1.86,1.07,3.47,2.53,4.74,4.27,6.75,8.1,12.59,18.02,11.65,28.52-.49,5.22-2.61,10.13-3.76,15.26-1.75,8.02-1.13,16.91-5.22,23.96-3.76,6.65-10.97,10.52-17.78,14.06"/>
    <path class="cls-35" d="M85.93,684.38c0,.53.11,1.17,0,2.09-.11.92-.02,2.03-.11,3.36-.09,1.33-.21,2.88-.32,4.59-.84,9.74-2.43,19.4-4.75,28.9-2.78,12.06-7.2,26.14-12.08,41.77-5.45,16.94-9.9,34.18-13.34,51.64-4.72,24.16-7.34,48.66-7.85,73.24.28.04.57.09.85.15.62-24.57,3.29-49.05,8-73.2,3.43-17.42,7.86-34.64,13.25-51.56,4.83-15.58,9.19-29.77,11.89-41.89,2.28-9.53,3.77-19.24,4.45-29.01.09-1.73.23-3.27.23-4.6v-5.47c.03-.23.03-.46,0-.7-.08.23-.15.46-.21.7Z"/>
    <path class="cls-21" d="M46.84,819.47c-5.12-14.55-15.59-26.91-28.35-35.57-12.76-8.66-27.73-13.75-42.96-16.11-5.85-.91-12.03-1.53-16.91-4.89,13.22,20.19,30.48,37.73,50.44,51.29,10.18,6.91,21.91,12.99,34.16,11.88"/>
    <path class="cls-21" d="M70.06,757.93c-3.48-8.21-7.16-16.34-11.02-24.38-1.47-3.06-3.01-6.16-5.38-8.58-1.84-1.88-4.12-3.28-6.16-4.94-6.53-5.32-10.39-13.13-14.74-20.35s-9.86-14.44-17.84-17.12c-10.34-3.48-21.41,1.6-31.13,6.55,12.22,4.66,18.42,18.01,23.02,30.27,4.59,12.25,9.71,25.75,21.25,31.91,8.3,4.43,18.23,4.07,27.62,3.59"/>
    <path class="cls-35" d="M3.35,688.57c.35.02.69.1,1.01.23.66.19,1.62.49,2.84.92,3.46,1.23,6.79,2.78,9.96,4.64,2.25,1.26,4.25,2.9,5.92,4.87,1.71,2.37,3.22,4.88,4.49,7.52,1.41,2.88,2.66,5.84,3.76,8.85.98,3.27,2.12,6.48,3.44,9.62,3.19,6.26,8.96,10.11,13.81,13.74,4.43,3.16,8.59,6.68,12.44,10.52,2.58,2.65,4.98,5.47,7.16,8.46l1.69,2.44c.23.27.41.57.54.9-.26-.23-.5-.5-.7-.79l-1.88-2.33c-2.27-2.85-4.7-5.56-7.27-8.14-3.89-3.74-8.06-7.18-12.48-10.28-2.64-1.83-5.19-3.8-7.63-5.9-2.67-2.27-4.89-5.02-6.54-8.12-1.32-3.19-2.48-6.44-3.46-9.75-1.1-2.99-2.35-5.92-3.76-8.78-1.23-2.59-2.67-5.06-4.32-7.4-1.59-1.91-3.5-3.53-5.64-4.79-3.11-1.89-6.37-3.52-9.75-4.87l-2.76-1.09c-.31-.13-.6-.29-.88-.47Z"/>
    <path class="cls-21" d="M55.65,820.13c3.48-8.21,7.16-16.34,11.02-24.38,1.47-3.06,3.01-6.16,5.38-8.58,1.84-1.88,4.12-3.28,6.16-4.94,6.53-5.32,10.39-13.13,14.74-20.35s9.86-14.44,17.84-17.12c10.34-3.48,21.41,1.6,31.13,6.55-12.22,4.66-18.42,18.01-23.02,30.27-4.59,12.25-9.71,25.75-21.25,31.91-8.3,4.43-18.23,4.07-27.62,3.59"/>
    <path class="cls-35" d="M122.36,750.77c-.35.02-.69.1-1.01.23-.66.19-1.62.49-2.84.92-3.46,1.23-6.79,2.78-9.96,4.64-2.25,1.26-4.25,2.9-5.92,4.87-1.71,2.37-3.22,4.88-4.49,7.52-1.41,2.88-2.66,5.84-3.76,8.85-.98,3.27-2.12,6.48-3.44,9.62-3.19,6.26-8.96,10.11-13.81,13.74-4.43,3.16-8.59,6.68-12.44,10.52-2.58,2.65-4.98,5.47-7.16,8.46l-1.69,2.44c-.23.27-.41.57-.54.9.26-.23.5-.5.7-.79l1.88-2.33c2.27-2.85,4.7-5.56,7.27-8.14,3.89-3.74,8.06-7.18,12.48-10.28,2.64-1.83,5.19-3.8,7.63-5.9,2.67-2.27,4.89-5.02,6.54-8.12,1.32-3.19,2.48-6.44,3.46-9.75,1.1-2.99,2.35-5.92,3.76-8.78,1.23-2.59,2.67-5.06,4.32-7.4,1.59-1.91,3.5-3.53,5.64-4.79,3.11-1.89,6.37-3.52,9.75-4.87l2.76-1.09c.31-.13.6-.29.88-.47Z"/>
    <path class="cls-35" d="M52.24,831.22c-.47-.58-1.01-1.32-1.71-2.2-1.5-1.9-3.7-4.62-6.54-7.91-7.32-8.62-15.36-16.6-24.03-23.85-5.01-4.17-10.22-7.68-14.91-10.87-1.87-.95-3.73-1.92-5.62-2.85,1.58,1.22,3.19,2.4,4.85,3.5,4.77,3.27,9.96,6.78,15.03,10.99,8.63,7.22,16.69,15.08,24.13,23.53l6.76,7.7,1.88,2.09c.41.47.7.7.7.7-.15-.29-.34-.57-.55-.83Z"/>
    <path class="cls-47" d="M78.57,917c-2.62-7.01-5.76-13.82-9.4-20.37-3.65-6.22-8.94-12.36-16.09-13.15-5.42-.34-10.73,1.68-14.54,5.54-3.75,3.83-6.91,8.2-9.4,12.95-4.55,7.74-9.1,15.48-13.66,23.23l7.52,10.2c13.59,5.23,28.46,6.18,42.6,2.71,6.76-1.69,14.34-5.73,14.86-12.68.02-2.91-.63-5.79-1.9-8.42Z"/>
    <path class="cls-21" d="M785.12,760.83c6.52-2.5,10.29-9.41,12.02-16.19s2.03-13.91,4.44-20.54c1.93-5.27,2.2-11.2,3-16.77,1.58-10.93-4.42-13.91-6.78-24.73-2.36-10.82,5.03-11.79,3.51-16.44-.73-2.32-4.26-2.33-6.58-1.75-2.29.72-4.41,1.91-6.21,3.5-9.34,7.19-18.14,16.59-19.68,28.28-.74,5.82.38,11.69.38,17.57-.05,9.18-2.9,18.73-.15,27.42,2.48,8.18,9.4,14.16,15.96,19.68"/>
    <path class="cls-35" d="M789.82,884.39c-.19-17.57-1.05-35.12-2.6-52.62-1.93-24.02-3.7-45.65-3.78-63.87-.26-14.39.58-28.78,2.52-43.04.39-2.49.72-4.74,1.02-6.69.3-1.95.79-3.51.92-4.87s.5-2.24.67-3c0-.36-.03-.71-.07-1.06-.12.32-.19.66-.22,1l-1.76,7.86c-.43,1.92-.74,4.17-1.16,6.69-2.16,14.27-3.16,28.68-2.98,43.11-.04,18.28,1.61,40.05,3.48,63.97,1.5,17.48,2.33,35,2.5,52.54.49-.06.98-.06,1.47-.01Z"/>
    <path class="cls-35" d="M577.69,809.99c-.73-1.6-1.46-3.2-2.2-4.8.84,3.79,1.64,7.59,2.39,11.4,5.44,27.91,8.44,56.22,9,84.62.37.26.69.57.95.95-.36-28.79-3.31-57.5-8.84-85.78-.42-2.14-.86-4.27-1.31-6.4Z"/>
    <path class="cls-21" d="M579.21,828.2c3.9-9.18,8-18.27,12.32-27.26,1.64-3.42,3.36-6.89,6.02-9.6,2.06-2.1,4.61-3.66,6.89-5.52,7.3-5.95,11.62-14.68,16.48-22.75,4.86-8.07,11.02-16.14,19.95-19.15,11.56-3.89,23.94,1.78,34.81,7.32-13.67,5.21-20.6,20.14-25.73,33.84-5.14,13.7-10.86,28.79-23.76,35.68-9.28,4.96-20.38,4.55-30.88,4.02"/>
    <path class="cls-35" d="M653.8,750.65c-.39.03-.77.11-1.13.25-.74.21-1.81.55-3.17,1.03-3.87,1.38-7.6,3.11-11.14,5.19-2.51,1.4-4.75,3.25-6.62,5.44-1.92,2.65-3.6,5.46-5.02,8.4-1.58,3.22-2.98,6.52-4.2,9.9-1.09,3.65-2.37,7.24-3.84,10.76-3.57,7-10.02,11.3-15.44,15.36-4.96,3.53-9.61,7.46-13.91,11.77-2.89,2.96-5.56,6.12-8,9.45l-1.89,2.73c-.26.3-.46.64-.61,1.01.29-.26.55-.56.78-.88l2.1-2.61c2.54-3.18,5.25-6.22,8.13-9.1,4.35-4.18,9.01-8.03,13.95-11.49,2.96-2.05,5.8-4.25,8.53-6.6,2.99-2.54,5.47-5.62,7.31-9.08,1.48-3.56,2.77-7.2,3.87-10.9,1.23-3.34,2.63-6.62,4.2-9.81,1.37-2.89,2.99-5.66,4.83-8.28,1.78-2.13,3.91-3.94,6.3-5.36,3.48-2.11,7.13-3.93,10.9-5.44l3.09-1.22c.35-.14.68-.32.99-.53Z"/>
    <path class="cls-21" d="M787.84,800.05c.65-14.34,6.64-28.19,15.68-39.34,9.04-11.16,21-19.73,33.95-25.94,4.97-2.39,10.31-4.6,13.75-8.92-6.34,21.56-16.99,41.84-31.13,59.31-7.21,8.9-16.02,17.48-27.25,19.79"/>
    <path class="cls-35" d="M786.19,811.97c.26-.65.55-1.45.93-2.42.83-2.1,2.05-5.12,3.7-8.81,4.2-9.65,9.21-18.93,14.99-27.73,3.34-5.07,7.04-9.6,10.36-13.71,1.41-1.35,2.81-2.72,4.24-4.06-1.08,1.51-2.2,2.99-3.38,4.43-3.37,4.2-7.05,8.73-10.44,13.85-5.74,8.76-10.81,17.94-15.16,27.47l-3.95,8.69-1.11,2.37c-.24.53-.43.81-.43.81.06-.3.15-.6.26-.88Z"/>
    <path class="cls-21" d="M568.48,798.71c-12.73-11.63-20.88-27.81-24.21-44.73-3.33-16.92-2.03-34.54,2.2-51.26,1.62-6.42,3.69-13.05,2.36-19.54,15,22.44,25.51,47.86,30.73,74.33,2.66,13.5,3.79,28.23-2.71,40.35"/>
    <path class="cls-35" d="M578.2,809.41c-.39-.74-.91-1.62-1.52-2.72-1.3-2.38-3.14-5.83-5.28-10.19-5.67-11.3-10.37-23.06-14.03-35.16-2.1-6.98-3.43-13.88-4.67-20.09-.16-2.34-.34-4.68-.48-7.03.56,2.16,1.07,4.33,1.48,6.52,1.28,6.34,2.63,13.21,4.74,20.28,3.66,12.03,8.22,23.77,13.66,35.11l4.97,10.33,1.33,2.85c.3.63.41,1.02.41,1.02-.23-.29-.44-.6-.61-.92Z"/>
    <path class="cls-47" d="M553.63,905.85c2.93-7.84,6.45-15.45,10.51-22.78,4.08-6.95,10-13.82,17.98-14.71,6.06-.38,11.99,1.88,16.26,6.2,4.19,4.29,7.73,9.16,10.51,14.48,5.08,8.66,10.18,17.31,15.27,25.97l-8.4,11.41c-15.2,5.85-31.82,6.91-47.63,3.03-7.56-1.89-16.03-6.41-16.62-14.18-.02-3.26.71-6.48,2.12-9.41Z"/>
    <path class="cls-47" d="M763.24,905.85c2.93-7.84,6.45-15.45,10.51-22.78,4.08-6.95,10-13.82,17.98-14.71,6.06-.38,11.99,1.88,16.26,6.2,4.19,4.29,7.73,9.16,10.51,14.48,5.08,8.66,10.18,17.31,15.27,25.97l-8.4,11.41c-15.2,5.85-31.82,6.91-47.63,3.03-7.56-1.89-16.03-6.41-16.62-14.18-.02-3.26.71-6.48,2.12-9.41Z"/>
    <path class="cls-21" d="M773.11,828.77c-5.55-7.22-11.33-14.64-19.32-19.02-3.17-1.73-6.64-2.96-9.54-5.11-4.92-3.65-7.64-9.58-9.15-15.51-1.51-5.93-2.02-12.09-3.57-18.02-.5-1.89-1.99-4.23-3.8-3.48-.68.28-1.12.95-1.5,1.58-7.29,12.05-12.36,25.45-14.87,39.31-.31,1.71-.58,3.48-.21,5.18.51,2.35,2.18,4.27,3.88,5.97,11.37,11.43,26.91,18.61,42.98,19.86,5.79.45,12.18-.06,16.41-4.03"/>
    <path class="cls-35" d="M785.38,842.23c-.54-.63-1.13-1.22-1.76-1.76-2.29-2.01-4.76-3.82-7.37-5.4-3.28-2.04-7.31-4.22-11.85-6.53-4.94-2.38-9.76-5.02-14.43-7.9-5.56-4.09-10.68-8.71-15.33-13.79.33.87.67,1.73,1.04,2.58,4.17,4.45,8.74,8.51,13.68,12.11,4.71,2.91,9.57,5.55,14.58,7.9,4.56,2.27,8.61,4.37,11.91,6.3,2.63,1.49,5.14,3.18,7.5,5.06,1.68,1.32,2.58,2.1,2.58,2.1-.15-.25-.34-.47-.55-.67Z"/>
    <path class="cls-6" d="M35.91,920.73c2.45-.23,5.09-.27,7.15,1.31.9.69,1.51,1.6,1.8,2.7.24.87.32,1.81.73,2.63.87,1.72,2.8,1.53,4.38,1.03,1.23-.38,2.32-.81,3.63-.73s2.57.51,3.7,1.18c.46.27,2.01-.49,1.75-.64-1.94-1.15-4.2-1.56-6.43-1.21-.55.09-1.08.22-1.61.38s-1.11.5-1.66.56c-1.55.17-2.04-1.18-2.33-2.41-.5-2.13-1.22-3.77-3.29-4.8s-4.67-.98-7.01-.76c-.29.03-1.11.13-1.24.45s.11.35.44.32h0Z"/>
    <path class="cls-43" d="M47.21,904.45c-1.65-2.17-4.29-4.59-7.2-3.15-1.01.5-1.72,1.38-2.37,2.27-.53.73-1.14,1.69-1.99,1.91-.38.1-.87.45-.76.9s.74.5,1.1.4c1.03-.27,1.85-.92,2.52-1.74.59-.72,1.06-1.56,1.73-2.2,1.86-1.76,4.19,1.03,5.25,2.42.52.68,2.29-.05,1.7-.83h0Z"/>
    <path class="cls-6" d="M568.24,914.45c3.29-.29,6.66-.83,9.96-.84,1.21,0,2.61.18,3.43,1.18.55.68.58,1.86,1.52,2.16.99.32,2.16-.34,3.06-.62,1.49-.46,3.06-.65,4.62-.61,3.04.07,5.98,1,8.55,2.62.45.29,2.03-.47,1.75-.64-2.45-1.55-5.22-2.47-8.11-2.71-1.46-.12-2.95-.06-4.4.16-.67.1-1.34.24-2,.41-.33.09-1.72.72-2.01.6-.49-.19-.6-1-.81-1.4-.24-.48-.59-.88-1.04-1.18-.92-.6-2.11-.74-3.19-.76-3.49-.06-7.06.53-10.53.84-.3.03-1.11.13-1.24.45s.11.36.45.33h0Z"/>
    <path class="cls-6" d="M577.33,898.66c.66-2.48,2.8-4.06,5.27-4.47,2.05-.34,4.26.22,6.21-.64,2.17-.96,1.52-3.06,1.95-4.98.5-2.27,2.33-4.87,4.95-3.88.39.15.97.02,1.31-.2.2-.13.61-.48.19-.64-2.13-.81-4.72-.13-6.36,1.42-.89.84-1.5,1.93-1.83,3.1-.18.64-.27,1.3-.31,1.96-.04.72.12,1.69-.36,2.32-.66.85-2.68.42-3.62.46-1.38.06-2.76.28-4.07.74-2.38.84-4.51,2.56-5.18,5.08-.15.57,1.7.3,1.85-.27h0Z"/>
    <path class="cls-6" d="M775.92,907.16c2.35-.87,5.95-2.01,7.62.67.6.96.76,2,1.73,2.69.79.57,1.8.78,2.76.81,1.21.04,2.37-.28,3.56-.43,1.47-.18,2.79.1,4.04.89,2.35,1.47,3.71,4,5.01,6.36.37.68,2.16.02,1.71-.8-1.39-2.53-2.88-5.18-5.44-6.7-1.08-.64-2.3-1.06-3.57-1.12-1.54-.08-3.01.47-4.54.5-1.82.04-2.5-.91-3.22-2.42-.49-1.03-1.29-1.77-2.33-2.24-2.68-1.19-5.55-.22-8.13.75-.35.13-.68.55-.45.91.25.39.92.24,1.26.11h0Z"/>
    <path class="cls-6" d="M791.23,892.55c-.51-1.65.1-4.36,2.13-4.67.93-.14,1.9.25,2.6.84.63.52,1.14,1.18,1.99,1.31,1.93.29,3.38-1.64,4.93-2.45,1.69-.89,3.96-.53,4.75,1.39.23.55,2.06-.02,1.86-.5-.81-1.97-3.11-2.54-5.05-2.23-1.31.21-2.53.79-3.63,1.5-.6.39-1.15.83-1.73,1.25l-.21.16c.18-.11.11-.19-.21-.26-.21-.21-.46-.4-.68-.6-3.4-3.16-10.15-.17-8.61,4.76.17.55,2.02.03,1.86-.5h0Z"/>
    <path class="cls-47" d="M342.79,921.55c-2.98-1-6.43-.49-9,1.33-2.57,1.82-4.2,4.9-4.25,8.05-.03,1.62.45,3.4,1.8,4.29,1.93,1.28,4.46.18,6.69-.47,2.03-.59,4.31-.74,6.18.26,1.23.65,2.22,1.76,3.56,2.17,2.89.87,5.68-2.14,6.07-5.13.62-4.73-3.19-9.58-7.93-10.1"/>
    <path class="cls-47" d="M407.93,941.17c2.22-.32,4-1.93,5.95-3.04,3.2-1.82,7.13-2.32,10.68-1.35,3.04.83,5.94,2.69,9.07,2.32,1.98-.23,4.16-1.33,5.83-.23.66.44,1.09,1.15,1.46,1.85,1.38,2.61,2.06,6.4-.39,8.04-.84.57-1.9.73-2.91.67-2.27-.12-4.34-1.23-6.47-2.03-2.12-.8-4.6-1.29-6.6-.22-1.26.67-2.14,1.86-3.22,2.8-2.34,2.04-5.72,2.84-8.73,2.06-3.01-.78-5.57-3.12-6.63-6.04"/>
    <path class="cls-47" d="M511.22,924.41c1.38-2.94,2.87-6.01,5.52-7.89,2.65-1.88,6.83-2.02,8.79.57.62.82,1,1.87,1.88,2.4.82.5,1.84.41,2.79.36,2.39-.13,5.54.74,5.59,3.13.05,2.32-2.98,3.4-5.26,3.03-2.29-.37-4.6-1.49-6.82-.84-1.26.37-2.29,1.26-3.47,1.85-2.9,1.44-6.72.73-8.91-1.66"/>
    <path class="cls-47" d="M561.83,939.55c3.47-4.8,10.65-6.45,15.87-3.66.86.46,1.75,1.04,2.72.91.75-.1,1.37-.62,1.98-1.06,5.86-4.27,15.17-2.54,19.11,3.55.3.47.57,1.08.27,1.55-.25.39-.79.47-1.26.5-2.64.19-5.29.23-7.93.12-2.1-.09-4.43-.2-6.04,1.15-.92.77-1.44,1.9-2.28,2.75-1.91,1.97-5.1,2.12-7.68,1.2-2.58-.92-4.74-2.71-6.97-4.3-2.23-1.59-4.72-3.06-7.46-3.15"/>
    <path class="cls-47" d="M50.35,933.14c.61-2.21,1.51-4.42,3.11-6.06s4.01-2.64,6.24-2.07c2.56.66,4.49,3.22,7.13,3.29,2.04.05,3.91-1.45,5.95-1.32,2.95.2,4.57,3.59,4.86,6.53.06.64.09,1.3-.16,1.89-.6,1.4-2.46,1.74-3.95,1.45-1.49-.29-2.92-1.01-4.44-.97-2.04.05-3.77,1.44-5.59,2.38-1.82.93-4.37,1.29-5.64-.31"/>
    <path class="cls-47" d="M124.09,926.01c-2.53-3.26-7.69-4.07-11.1-1.74-.65.45-1.25.99-1.96,1.34-3.13,1.53-7.69-1.03-10.02,1.56-.68.76-.95,1.8-1.2,2.79-.62,2.52-1.02,5.67,1.03,7.28,2.27,1.78,5.5.18,8.09-1.07,3.18-1.54,6.91-2.5,10.24-1.31,2.28.81,4.95,2.52,6.79.95.57-.48.89-1.2,1.05-1.93.44-1.98-.25-4.18-1.74-5.55"/>
    <path class="cls-47" d="M755.13,919.55c-1.7-2.23-3.46-4.5-5.83-6.01-2.37-1.51-5.51-2.11-7.99-.8-1.24.66-2.24,1.74-3.55,2.22-1.98.73-4.15-.06-6.2-.59-2.04-.53-4.55-.66-5.93.94-.81.94-1.01,2.26-1.1,3.5-.13,1.79.01,3.85,1.41,4.98,1.27,1.04,3.12.91,4.71.5s3.19-1.03,4.82-.81c2.66.36,4.49,2.84,6.95,3.92,3.9,1.72,9.06-1.05,9.77-5.25"/>
    <path class="cls-47" d="M753.07,933.79c3.15-.99,6.71-.56,9.54,1.15,1.1.66,2.13,1.53,3.38,1.81,2.92.65,6.02-2.03,8.76-.85,1.54.67,2.37,2.39,2.65,4.05.08.48.12,1-.1,1.43-.26.52-.83.81-1.38,1.02-2.74,1.08-5.84,1.24-8.68.45-1.88-.52-3.76-1.45-5.69-1.16-1.17.18-2.22.8-3.28,1.31-1.39.68-2.86,1.21-4.37,1.58-.94.23-1.96.39-2.86.03-.62-.25-1.13-.73-1.53-1.28-1.78-2.45-1.1-6.32,1.4-8.02"/>
    <path class="cls-47" d="M842.74,916.13c2.19-2.09,5.68-2.67,8.42-1.4.66.3,1.28.7,1.98.9,2.79.77,5.71-1.98,8.46-1.09,2.71.88,3.21,4.45,3.21,7.3,0,1.18-.06,2.51-.95,3.28-.67.59-1.64.67-2.53.72-5.25.28-11.23-.13-14.62-4.16-1.52-1.81-2.87-4.47-5.23-4.29"/>
    <path class="cls-47" d="M610.09,918.88c2.19-2.09,5.68-2.67,8.42-1.4.66.3,1.28.7,1.98.9,2.79.77,5.71-1.98,8.46-1.09,2.71.88,3.21,4.45,3.21,7.3,0,1.18-.06,2.51-.95,3.28-.67.59-1.64.67-2.53.72-5.25.28-11.23-.13-14.62-4.16-1.52-1.81-2.87-4.47-5.23-4.29"/>
    <path class="cls-47" d="M653.29,938.12c-1.76-2.8-5.53-3.41-8.84-3.53-.94-.04-1.98-.02-2.68.6-.51.45-.73,1.14-.9,1.81-.46,1.77-.69,3.6-.7,5.42,0,.5.03,1.03.34,1.42.43.53,1.2.58,1.88.59,2.94.03,5.87.05,8.81.08.72,0,1.48,0,2.08-.39.89-.58,1.12-1.85.8-2.86-.32-1.02-1.05-1.84-1.76-2.63"/>
    <path class="cls-47" d="M444.93,904.53c-1.76-2.8-5.53-3.41-8.84-3.53-.94-.04-1.98-.02-2.68.6-.51.45-.73,1.14-.9,1.81-.46,1.77-.69,3.6-.7,5.42,0,.5.03,1.03.34,1.42.43.53,1.2.58,1.88.59,2.94.03,5.87.05,8.81.08.72,0,1.48,0,2.08-.39.89-.58,1.12-1.85.8-2.86s-1.05-1.84-1.76-2.63"/>
    <path class="cls-47" d="M239.67,945.69c-1.76-2.8-5.53-3.41-8.84-3.53-.94-.04-1.98-.02-2.68.6-.51.45-.73,1.14-.9,1.81-.46,1.77-.69,3.6-.7,5.42,0,.5.03,1.03.34,1.42.43.53,1.2.58,1.88.59,2.94.03,5.87.05,8.81.08.72,0,1.48,0,2.08-.39.89-.58,1.12-1.85.8-2.86s-1.05-1.84-1.76-2.63"/>
    <g>
      <path class="cls-39" d="M753.64,669.31l16.83,15.46,87.96,4.53,41.19,30.49-130.27-22.72-21.69,8.03s-9.08-19.29,5.98-35.78Z"/>
      <g>
        <path class="cls-48" d="M864.32,599.63c.56.42-.46-.52,0,0h0Z"/>
        <path class="cls-39" d="M947.16,690.04c.19-1.35-1.67-2.51-4.28-5.45l-8.7-9.41c11.11-18.45-5.53-65.68-16.86-77.85-3.71-3.98-7.9-6.05-12.45-6.16-9.62-.23-18.49,8.44-27.08,16.83-1.01.99-2.02,1.97-3.03,2.94l-10.46-11.31-2.88,3.84c-3.74-2.84-1.49,4.29-5.31,7.03l-17.06,20.65c-4.45,3.19-36.23,11.65-34.98,13.41l56.63,99.22c2.94,5.16,4.55,8.84,8.96,6.27,8.26-1.86,33.25-8.42,51.04-23,20.85-17.08,26.09-35.68,26.42-36.94,0-.02.01-.04.01-.05,0,0,0-.02,0-.02,0,0,0,0,0,0ZM880.68,617.32c1.07-1.02,2.13-2.06,3.2-3.1,7.29-7.12,14.83-14.49,20.79-14.35,2.14.05,4.2,1.16,6.29,3.4,10.48,11.25,22.24,50.46,16.93,65.12l-47.22-51.06Z"/>
      </g>
      <path class="cls-55" d="M804.09,644.56s24.38-4.33,40.7-17.48c16.31-13.15,19.95-27.55,19.95-27.55,0,0-21.59,5.22-35.91,15.49-14.32,10.27-21.87,23.51-24.73,29.55Z"/>
    </g>
    <path class="cls-37" d="M949.45,610.09s-9.23,3.28-10.56,3.15c-1.33-.13-18.02-4.46-19.32-4.03-1.3.43-12.33,5.44-12.33,5.44l-1.22,6.61s-4.06,5.8-3.58,7.85c.48,2.05,3.3,2.68,4.6,2.24.92-.24,1.89-.25,2.81-.02-.36,1.21-.24,2.52.35,3.64.99,1.26,4.34.55,4.34.55.26,1.31.76,2.56,1.47,3.7,1,1.26,3.22.79,3.22.79,0,0,0,4.12.98,5.04.99.92,10.12-1.09,12.78-3.65,2.15.3,4.33-.2,6.14-1.39,2.91-2.01,19.61-12.13,19.61-12.13l-5.79-13.38"/>
    <path class="cls-55" d="M753.64,669.31s3.16,21.81-5.98,35.78c-9.15,13.98,0,0,0,0,0,0-10.28-20.07,5.98-35.78"/>
    <g>
      <path class="cls-30" d="M742.33,693.68s-.9.2-2.5.69"/>
      <path class="cls-25" d="M734.9,696.04c-22.58,8.43-87.99,42.71-73.37,153.61"/>
      <path class="cls-30" d="M661.88,852.24c.12.85.25,1.71.38,2.57"/>
    </g>
    <g>
      <path class="cls-30" d="M747.48,693.52s-.86.33-2.38,1.04"/>
      <path class="cls-25" d="M740.46,696.92c-21.14,11.58-80.96,54.88-50.59,162.54"/>
      <path class="cls-30" d="M690.59,861.98c.24.83.49,1.66.74,2.49"/>
    </g>
    <g>
      <path class="cls-30" d="M747.22,690.17s-.92.03-2.59.21"/>
      <path class="cls-27" d="M739.47,691.12c-25.14,4.33-102.87,28.17-104.91,157.43"/>
      <path class="cls-30" d="M634.53,851.18c0,.86-.01,1.73-.01,2.6"/>
    </g>
    <g>
      <path class="cls-30" d="M746.36,688.04s-.91-.08-2.59-.1"/>
      <path class="cls-24" d="M738.54,688.06c-26.06,1.41-109.99,17.13-138.89,158.78"/>
      <path class="cls-30" d="M599.14,849.42c-.17.85-.33,1.7-.49,2.55"/>
    </g>
    <g>
      <path class="cls-30" d="M752.55,687.4s-.88-.26-2.52-.62"/>
      <path class="cls-26" d="M744.86,685.82c-28.37-4.42-127.9-6.99-172.58,161.6"/>
      <path class="cls-30" d="M571.62,849.98c-.22.84-.43,1.68-.65,2.52"/>
    </g>
    <g>
      <path class="cls-30" d="M743.55,692.82s-.87.29-2.42.93"/>
      <path class="cls-29" d="M736.29,695.91c-22.61,10.88-88.59,52.77-60.57,161.52"/>
      <path class="cls-30" d="M676.4,860.01c.22.83.45,1.67.69,2.51"/>
    </g>
    <g>
      <path class="cls-30" d="M748.64,692.03s-.81.43-2.23,1.32"/>
      <path class="cls-25" d="M742.1,696.27c-19.57,14.08-73.65,64.36-30.37,167.5"/>
      <path class="cls-30" d="M712.75,866.17c.34.79.69,1.59,1.04,2.38"/>
    </g>
    <g>
      <path class="cls-30" d="M747.98,688.74s-.91.14-2.55.49"/>
      <path class="cls-31" d="M740.49,690.45c-25.47,7.02-106.37,39.67-92.61,169.3"/>
      <path class="cls-30" d="M648.16,862.3c.1.86.2,1.72.31,2.58"/>
    </g>
    <g>
      <path class="cls-30" d="M746.86,686.73s-.91.03-2.59.2"/>
      <path class="cls-32" d="M739.22,687.61c-26.54,4.32-113.69,29.54-125.24,174.7"/>
      <path class="cls-30" d="M613.78,864.87c-.06.86-.12,1.73-.18,2.59"/>
    </g>
    <g>
      <path class="cls-30" d="M752.93,685.34s-.9-.14-2.58-.3"/>
      <path class="cls-33" d="M745.19,684.72c-29.61-1.05-135.27,7.66-159.27,181.49"/>
      <path class="cls-30" d="M585.58,868.79c-.11.86-.22,1.72-.33,2.58"/>
    </g>
    <path d="M419.67,585.33l-.18-.71c-2.61-3.63-5.48-5.39-8.98-4.46-.02-.03-5.18-7.18-12.93-3.74-6.73,2.98-7.42,7.07-7.42,7.07,0,0-3.79-.46-5.28.58-3.36,2.35-2.39,7.65-.73,10.59,2.26,4.01,4.66,6.74,4.66,6.74,0,0,2.83,2.31,5.05,3.86,2.22,1.55,6.99,1.45,6.99,1.45,0,0,1.01,4.83,3.22,4.6.92-.09,2.68.1,4.43.37,3.17.47,6.34-.97,8.02-3.7.25-.41.52-.85.8-1.32,0,0,3.27-1.17,2.37-5.59-.19-.96-.59-2.07-1.25-3.35,0,0,1.59-.62,2.93-4.07.58-1.49.27-5.56-1.71-8.31Z"/>
    <path d="M356.29,660.89c14.49,5.13,26.34-3.18,38.36-11.62,7.03-4.94,13.31-11.62,15.95-19.96,2.29-7.22,2.04-15.07,1-22.49-.94-6.71-2.65-12.58-7.2-17.77s-10.19-8.42-16.43-10.36c-1.86-.58-3.76-1.07-5.66-1.49-16.86-3.93-40.25.62-49.37,14.14-.82,1.22-1.58,2.56-2.29,3.95,0,0-1.38,3.01-1.58,4.08-3.55,19.13-3.82,55.31,23.61,58.98,2.4.32,4.48.95,3.63,2.54Z"/>
    <path class="cls-37" d="M408.79,647.77c.81-4.53.35-11.86-.59-14.26.2-2.11.43-4.56.68-7.52.07-.86.12-1.68.16-2.5-.02-.42,0-.84.05-1.26.48-14.46-3.8-22.33-3.8-22.33-5.47-9.97-15.83-16.29-27.2-16.58-13.37-.63-25.94,6.65-32.76,14.37-3.39,3.82-5.24,8.76-5.2,13.86.02,4.36,3.61,9.42,4.47,14.22-4.65-.53-10.65.39-9.52,9.07,1.56,11.98,10.31,13.58,14.43,11.32,2.57,5.59,2.7,8.81,2.78,12.1.08,3.41-1.61,7.97-2.34,9.35l-8.45,4.7c9,16.85,38.18,35.66,50.39,11.47l-5.67-7.43.4-5.46c.31,0-.31,0,4.71-1.25,15.14-4.63,16.49-16.53,17.45-21.87Z"/>
    <path class="cls-56" d="M386.29,673.3l.34-2.42s-15.31.54-24.71-7.91c0,0,6.39,7.79,14,9.39,7.61,1.59,10.37.94,10.37.94Z"/>
    <path d="M349.3,630.41c.08.38.17.8-.01,1.14-.24.46-.89.56-1.37.36s-.84-.6-1.19-.98c-2.3-2.44-7.95-6.47-11.26-5.9-3.83-12.59-1.49-24.95,6.96-35.06,2.68-3.19,8.86-6.2,10.76-7.19,11.51-5.85,20.83-4.91,32.02-1.98,16.75,4.42,18,8.11,22.43,23.21,0,0-19.33-12.91-39.31-8.49.53.23-12.29,2.3-12.48,2.48-1.64,1.63-.16,3.29-.97,6.97-.59,2.68-.43,4.74-2.72,6.28-1.59,1.07-3.29,4.11-3.44,6.02l.58,13.13Z"/>
    <circle cx="404.9" cy="629.57" r="2.93"/>
    <path d="M408.52,627.36c-1.34-.98-3.22-1.69-6.08-1.64-4.57.09-7.01,5.62-7.01,5.62,0,0,2.71-4.17,7.21-4.36,2.17-.1,4.19.72,5.78,1.67-.02-.44.02-.87.09-1.29Z"/>
    <path d="M378.21,617.77s-11.72.01-13.99,2.48c0,0,1.44-3.8,11.37-4.64,0,0,5.03.82,2.63,2.16Z"/>
    <path d="M410.07,619.99c0-.1.01-.19.02-.29-1.74-.73-4.31-1.42-8.12-1.75,0,0-4.86.35-2.45,1.7,0,0,6.21.02,10.46.98.04-.21.08-.43.09-.65Z"/>
    <path class="cls-56" d="M339.21,636.02c-.37-1.37-.57-3.29.37-4.51l-.95.41c.13,0-.06-.01-.06-.01.04.01.08.01.12.03.14.05,0,0,.03,0,.38.16.7.39.99.66,1.67,1.49,2.79,3.61,3.78,5.58l1.39-.49c-.55-.46-1.24-.79-1.97-.7-.93.11-1.51.83-1.62,1.72-.22,1.92,1.43,3.05,3.13,3.35.34.06.77-.01,1.02-.27.2-.21.18-.51-.15-.57-1.23-.21-2.42-.86-2.55-2.22-.02-.21,0-.42.04-.63.03-.14.19-.4.19-.53,0-.04,0-.08-.13,0-.14.09-.1-.01-.02.04.09.07.26.1.36.16.1.05.19.11.28.17.11.08.06.04.08.06.24.2.59.18.87.08.17-.06.65-.3.52-.56-.76-1.53-1.59-3.04-2.63-4.4-.54-.71-1.15-1.39-1.89-1.89-.82-.56-1.89-.75-2.42.31-.71,1.43-.64,3.09-.23,4.59.15.55,1.6.17,1.45-.39h0Z"/>
    <circle cx="376.05" cy="627.92" r="2.93"/>
    <path d="M384.14,630.41s-4.01-6.23-9.03-6.17c-7.07.08-8.63,4.66-10.14,6.82,0,0,4.75-5.69,10.21-5.62,4.96.06,8.97,4.98,8.97,4.98Z"/>
    <g>
      <path class="cls-13" d="M391.93,644.92c-.92.48-2.32.37-3.24-.21-.2-.13-.89,0-.6.17,1.22.76,3.23.83,4.42.21.12-.06.1-.15-.05-.2-.15-.05-.4-.04-.52.02"/>
      <path class="cls-13" d="M387.69,644.62c-.62-.29-1.31-.45-2-.5-.1,0-.23.03-.31.1-.06.05-.07.12,0,.17.32.18.72.26,1.1.25.12,0,.27-.03.34-.13.06-.09-.05-.15-.14-.15-.31,0-.62-.06-.88-.21-.1.09-.2.17-.3.26.62.05,1.23.19,1.79.46.11.05.27.02.37-.04.07-.04.15-.15.04-.2"/>
      <path class="cls-13" d="M384.94,644.7c-.81-.02-1.76-.38-2.15-.99-.6-.92-.03-2.47.98-3.05.11-.06.05-.15-.06-.17-.14-.03-.32.02-.43.09-.88.51-1.46,1.8-1.33,2.66.12.81.89,1.37,1.86,1.61.29.07.59.12.9.13.12,0,.34-.03.4-.13.06-.1-.05-.14-.17-.14"/>
      <path class="cls-13" d="M393.41,644.51c-.04-.09.04-.15.1-.15.22,0,.44-.05.63-.21.07.09.14.18.21.26-.44.05-.88.19-1.27.45-.08.05-.19.02-.26-.04-.05-.04-.11-.15-.03-.2"/>
      <path class="cls-13" d="M392.8,644.62c.44-.29.93-.45,1.42-.5.07,0,.16.03.22.1.04.05.05.12,0,.17"/>
      <path class="cls-13" d="M395.09,644.62c.53-.02,1.14-.37,1.4-.98.39-.92.03-2.01-.62-2.6-.07-.06-.03-.15.04-.17.09-.03.21.02.28.09.57.51.94,1.35.85,2.21-.08.81-.59,1.37-1.22,1.6-.19.07-.39.12-.58.12-.08,0-.22-.03-.26-.13-.04-.1.03-.14.11-.14"/>
    </g>
    <path d="M317.1,579.44l-.72.13c-3.8,2.34-5.77,5.08-5.09,8.64-.04.02-7.53,4.65-4.66,12.63,2.49,6.93,6.52,7.91,6.52,7.91,0,0-.73,3.74.2,5.31,2.1,3.52,7.45,2.93,10.51,1.49,4.16-1.97,7.06-4.17,7.06-4.17,0,0,2.51-2.66,4.21-4.76,1.7-2.1,1.94-6.87,1.94-6.87,0,0,4.89-.66,4.82-2.88-.06-2.22,1.9-9.22,1.9-9.22,0,0-1.74-1.67-5.59-4.34,0,0-.93-3.35-5.41-2.76-.97.12-2.1.44-3.43,1,0,0-.5-1.63-3.85-3.22-1.45-.69-5.53-.67-8.42,1.11Z"/>
    <path class="cls-17" d="M389.56,650.07c-3.72-.03-9.76-.5-9.76-.5,0,0-.59,10.43,9.74,10.35,8.64-.07,8.9-10.02,8.9-10.02,0,0-5.15.19-8.88.16Z"/>
    <path class="cls-40" d="M389.59,650.07c-1.77-.01-8.37-.14-8.37-.14,0,0,1.48,6.13,7.88,6.19,6.94.06,8.05-5.6,8.05-5.6l-7.57-.44Z"/>
    <path class="cls-36" d="M389.66,650.89c-1.77-.01-7.16-.35-7.16-.35,0,0,2.11,1.48,7.42,1.52,5.31.04,6.83-1.35,6.83-1.35l-7.09.18Z"/>
    <path class="cls-17" d="M398.4,649.85c0-.19-.38-.28-1.26-.36-1.46-.13-1.94-.66-3-.75-1.81-.15-2.97.53-3.76.52s-1.93-.71-3.75-.59c-1.06.07-3.69.42-5.16.53-.88.07-1.91-.27-2.1-.23-.26.06.33,2.47,10.24,2.55,9.91.08,8.78-1.43,8.79-1.69Z"/>
    <path class="cls-37" d="M290.21,807.02c0,12.09-3.72,38.07,30.56,40.91l-15.56-4.2-.78,29.38s96.5,2.57,99.5,2.61c5.78.1,19.68-7.54,22.29-26.38,2.61-18.84-11.75-24.05-16-27.63-4.24-3.59-51.91-21.68-70.2-25.23l-44.64,3.92-5.18,6.62Z"/>
    <path class="cls-37" d="M306.71,855.33c-1.08-2.61-4.21-5.39-6.42-6.67-2.22-1.28-4.91-.09-5.63.21-5.36,2.27-8.14,6.71-12.37,10.53-3.24,2.93-6.84,5.46-10.69,7.52-3.91,2.09-8.18,3.16-12.14,5.05-.03.01-.06.03-.09.04-1.97.94-3.54,2.54-4.47,4.51-.34.72-.68,1.43-1.06,2.1-.52.93-1.09,1.62-.54,2.72,1.01,2.02,4.39.76,5.38.34.18-.08.38-.11.58-.09.79.07,3.14.15,7.09-.71.38-.08.76-.14,1.12-.18,0,.02.01.04.02.07,2.1-.33,11.35-.64,13.05-.81,3.35-.33,13.78-3.75,13.78-3.75,0,0,13.66-1.89,18.12.85l5.29-16.31s-9.94-2.81-11.02-5.42Z"/>
    <path class="cls-37" d="M356.31,703.42c2.01,7.37,5.59,14.25,10.33,20.34,11.73,15.06,36.98,49.21,46.09,52.1,21.1,6.7,61.54-8.32,61.54-8.32l-1.97-13.8-45.73-.61s-18.78-32.04-25.83-44.71c-2.92-5.24-3.22-6.28-13.54-12.52-.7-.42-5.49-2.11-5.91-2.32"/>
    <path class="cls-37" d="M282.14,821.79c0,12.09-3.72,38.07,30.56,40.91l-9.94-4.2-1.96,17.24s80.09,17.25,95.06,14.76c5.78.1,19.68-7.54,22.29-26.38,2.61-18.84-11.75-24.05-16-27.63-4.24-3.59-51.91-21.68-70.2-25.23l-44.64,3.92-5.18,6.62Z"/>
    <path class="cls-56" d="M418.38,866.99c.74-5.56.2-11.24-2.28-16.32-1.84-3.78-4.56-6.99-7.72-9.76-1.93-1.69-3.99-3.41-6.11-4.84-1.95-1.32-4.23-2.23-6.37-3.18-8.29-3.68-16.8-6.88-25.33-9.98-9.46-3.44-19-6.72-28.69-9.46-1.95-.55-3.9-1.08-5.87-1.55-1.27-.31-2.71-.82-4.02-.83-1.63-.01-3.33.29-4.95.43-7.7.68-15.41,1.35-23.11,2.03-3.62.32-7.24.64-10.86.95-1.83.16-3.7.22-5.51.48-.81.12-1.08.64-1.56,1.25-1.19,1.51-2.37,3.03-3.56,4.54-.28.36-.69.74-.89,1.14-.25.49-.14,1.17-.15,1.72-.02,1.4-.07,2.8-.09,4.2-.1,6.67.25,13.6,3.12,19.74,3.67,7.87,11.02,12.52,19.27,14.56,2.87.71,5.8,1.14,8.75,1.39.48.04,1.54-.73.68-.97-5.19-1.4-10.37-2.8-15.56-4.2-.59-.16-1.71.7-.85.93,5.19,1.4,10.37,2.8,15.56,4.2l.68-.97c-10.86-.93-22.18-4.81-27.09-15.34-3.29-7.06-3.21-14.97-3.04-22.59,0-.44.02-.88.03-1.32,0-.2,0-.39,0-.59,0-.05,0-.77-.12-.39.19-.6,1.03-1.31,1.41-1.8,1.26-1.6,2.51-3.21,3.77-4.81l-.67.31c7.81-.69,15.63-1.37,23.44-2.06,5.12-.45,10.24-.9,15.36-1.35l4.63-.41c1.07-.09,1.66.01,2.75.25,12.7,2.82,25.12,7.33,37.32,11.78,6.14,2.24,12.25,4.57,18.29,7.05,3.83,1.57,7.78,3.1,11.38,5.16,1.11.64,2.07,1.5,3.09,2.27,1.87,1.42,3.71,2.88,5.38,4.53,4.74,4.68,7.8,10.63,8.28,17.32.16,2.19.03,4.39-.26,6.56-.09.7,1.38.49,1.46-.13h0Z"/>
    <path class="cls-56" d="M377.25,868.4c.46-.34.74-.13.21-.2-.37-.05-.76-.05-1.13-.08-1.17-.09-2.35-.19-3.52-.29-3.9-.33-7.8-.69-11.7-1.05-8.98-.84-17.96-1.7-26.93-2.65-1.41-.15-2.81-.3-4.22-.46-.42-.05-.84-.1-1.25-.15-.45-.06-.45-.2-.15.1-.44-.45-1.82.13-1.33.63.3.31.92.29,1.32.34,1.1.14,2.21.26,3.31.38,3.99.43,7.98.83,11.98,1.23,9.54.95,19.07,1.87,28.62,2.68,1.31.11,2.61.22,3.92.31.56.04,1.35.21,1.85-.15.8-.58-.39-1.04-.95-.63h0Z"/>
    <path class="cls-58" d="M389.18,741.7c-5.63,14.98-9.42,32.46-15.99,39.79l-1.41,9.03,18.5,30.09s-20.51-2.12-33.87,5.64c-6.24,3.62-14.74,13.49-16.44,12.93l-6.36,6.1c-3.02,3.25-14.85,18.83-14.85,18.83,0,0-64.87-.11-48.19-64.5,1.35-5.21,4.56-13.55,7.66-17.98l8.15-9.71,11.05-10.63c5.04-11.19,4.48-49.51,6.3-57.79s4.06-25.85,30.5-34.78c11.66-3.94,15.92-3.47,15.92-3.47h.68c.84,3.37,8.92,12.54,15.09,15.32,0,0,27.51,10.06,20.31-4.22,0,0,11.55,6.49,15.65,13.35s18.97,36.47,18.97,36.47c0,0-14.77,26.9-35.71,22.75"/>
    <path class="cls-41" d="M372.02,790.57c6.56-7.33,10.75-28.1,16.39-43.08,11.19-25.76,7.49-64.53,7.49-64.53-1.64-1.38-3.33-2.64-4.84-3.69.07.46.15.92.21,1.38.56,4.23.78,8.48.95,12.74.11,2.86.37,5.83-.28,8.65-.54,2.37-1.96,4.29-4.34,5.03-1.4.43-2.88.4-4.33.41-1.52,0-3.05-.02-4.57-.1-3.25-.18-6.54-.57-9.67-1.5-2.86-.85-5.7-2.19-7.69-4.47-4.27-4.88-5.2-11.72-7.11-17.69-1.07-3.34-2.54-6.6-4.21-9.67-1.51-2.77-3.3-6.18-5.62-8.33-2.33.46-5.55,1.52-9.06,2.44.37.25,1.05.84,1.4,1.12,3.18,2.61,5.18,6.48,7.01,10.09.89,1.77,1.84,3.52,2.69,5.3,1.03,2.16,1.88,4.41,2.58,6.7,1.41,4.63-.31,12.53-2.89,16.39-1.27,1.89.62,4.59.22,6.85-.02.13-.06.25-.09.37.49,2.03-3.61,2.04-3.12,4.07.57,2.35-2.65,6.96-3.59,9.29-1,2.46,9.11-1.27,6.79-.26-.59.26-4.22-.01-3.63-.27,1.29-.56,5.17-2.99,6.25-3.91l-9.41,4.44c-6.07,2.34-5.73,5.65-12.18,6.26-3.21.3-6.44.44-9.67.37-2.3-.04-4.7,0-6.79-1.08-3.48-1.81-5-5.88-5.68-9.51-.82-4.4-.7-8.98-.13-13.4.03-.22.06-.43.1-.64-.41-1.33-1.46-2.69-1.68-4.06-1.65,11.63-2.61,44.39-7.24,54.68l-11.05,10.63-8.15,9.71c-3.1,4.42-6.21,12.79-7.66,17.98-18.69,67.05,53.93,66.23,53.93,66.23,0,0,7.5-16.92,10.52-20.18l6.36-6.1c1.7.56,10.2-9.3,16.44-12.93,13.36-7.76,33.87-5.64,33.87-5.64l-18.5-30.09Z"/>
    <path class="cls-41" d="M375.23,794.5c5.97,1.36,15.3,8.16,20.62,11.19,9.82,5.58,15.18,11.7,21.82,18.02.52.49,1.05,1.24.68,1.86-.27.44-.86.53-1.36.66-3.48.9.93,1.24-2.17,3.04-2.82,1.64-6.64.68-9.42,2.4-2.6,1.6-3.44,4.99-5.55,7.2-2.06,2.16-5.15,3.01-8.13,3.2s-3.06.05-6.04.23c-1.38.08-4.99,1.21-5.75,2.37-.89,1.37-1.06,2.14-1.17,3.77-.16,2.17-1.76,3.99-3.61,5.13-1.85,1.14-3.97,1.74-5.97,2.58-.87.36-1.78.83-2.19,1.68-.28.57-.28,1.24-.28,1.87,0,1.63-.99,5.72-.99,7.35-12.55.1-29.86-1.64-42.4-1.54,0,0,3.35-20.16,16.34-36.65,12.99-16.49,35.56-34.36,35.56-34.36Z"/>
    <path class="cls-37" d="M307.39,724.44c2.65,18.62,18.25,56.82,25.52,62.52,17.25,13.52,67.06,23.25,67.06,23.25l2.82-13.44-49.86-28.99s-13.81-50.76-13.98-58.57c0,0-.42-32.38-19.27-27.19"/>
    <path class="cls-58" d="M314.05,683.38c-10.55,11.11-13.47,35.86-8.94,47.53.23.6.34,2.31.83,2.73.42.36-.11.2.42.36,2.22.68,3.45-.08,5.68.6,0,0,23.5.11,34.55-5.16,2.38-1.14,6.81-3.4,6.81-3.4.97-2.46-.3-6.94-.55-9.57-.66-6.75-2.64-14.58-4.62-21.07-1.59-5.23-3.22-10.34-6.7-14.55-3.48-4.21-8.37-8.07-13.84-8.17"/>
    <path class="cls-37" d="M505.23,766.06c-1.12-1.45-10.5-.16-10.79-1.09-.29-.93,11.58-1.52,13.96-3.2,1.22-.86.91-1.61.31-2.13-.5-.43-1.27-.65-1.93-.68-2.09-.1-1.59-.4-5.73-.08-4.97.38-6.98.75-6.99.52-.01-.23,1.92-.81,6.92-1.26,2.73-.36,3.6-1.09,6.45-1.24.89-.05,1.74-.48,2.23-1.22.73-1.1.53-2.39-1.16-2.61-4-.52-16.02,1.86-15.8,1.88,0,0,4-1.5,6.81-2.62s7.7-2.57,6.9-4.3c-.8-1.73-4.18-.9-7.81-.3-4.08.66-15.99,2.59-15.99,2.59,1-1.11,2.7-2.77,5.15-4.94,2.99-2.98,1.32-5.19,1.32-5.19,0,0-12.69,6.24-15.48,8.49-2.13,1.71-5.24,4.36-5.6,5.88l-11.47,1.66c.23.96,2.77,15.49,3.3,16.21,0,0,9.53-3.38,12.68-2.47,3.85,3.61,26.58-1.24,29.4-1.56,2.86-.32,3.94-1.51,3.3-2.34Z"/>
    <path class="cls-56" d="M473.17,769.13c-1.11-.67-2.05-1.81-2.47-3.04-.38-1.1-.39-2.38-.31-3.53.04-.54.1-1.11.26-1.63.09-.32-1.32-.14-1.43.25-.16.54-.22,1.11-.27,1.66-.09,1.18-.09,2.5.3,3.64.43,1.26,1.41,2.46,2.55,3.15.26.15.68.02.94-.07.08-.03.66-.29.43-.43h0Z"/>
    <path class="cls-56" d="M483.05,754.26c.05,1-.11,2.27-.32,3.34-.49,2.45-1.53,4.8-3.19,6.68-.57.64.83.64,1.17.26,2.5-2.84,3.99-6.85,3.79-10.66-.03-.48-1.48-.18-1.45.39h0Z"/>
    <g>
      <path class="cls-57" d="M469.53,778.45c4.34-5.67,7.08-14.26,6.16-24.44-.07-.78-.68-1.42-1.46-1.52-10.13-1.34-18.83,1.03-24.68,5.13-4.55,3.2-23.12,19.54-27.16,23.1-.48.42-.69,1.09-.52,1.7,1.86,6.74,6.17,11.65,8.3,13.77,2.03,2.22,6.76,6.72,13.41,8.87.61.2,1.28.01,1.72-.45,3.73-3.89,20.84-21.75,24.22-26.17Z"/>
      <path class="cls-55" d="M432.86,800.88l11.83-11.35c3.17-3.04,8.5-9.13,5.75-11.99-2.74-2.86-9.05,2.21-12.22,5.25l-11.83,11.35,6.46,6.74Z"/>
      <g>
        <path class="cls-19" d="M432.62,799.83l-4.7-4.9c-.65-.68-1.72-.7-2.4-.05l-38.81,37.22c-2.02,1.94-2.09,5.18-.15,7.2,1.94,2.02,5.18,2.09,7.2.15l38.81-37.22c.68-.65.7-1.72.05-2.4ZM392.82,837.5c-1.44,1.38-3.56,1.53-4.72.32-1.15-1.2-.92-3.32.52-4.7l.34-.33,4.2,4.38-.34.33Z"/>
        <rect class="cls-45" x="419.9" y="796.47" width="19.95" height="2.58" rx="1.27" ry="1.27" transform="translate(708.18 -64.66) rotate(46.2)"/>
        <g>
          <rect class="cls-45" x="414.63" y="806.84" width="10.19" height="1.32" transform="translate(712.08 -54.33) rotate(46.2)"/>
          <rect class="cls-45" x="411.63" y="809.71" width="10.19" height="1.32" transform="translate(713.23 -51.28) rotate(46.2)"/>
          <rect class="cls-45" x="408.77" y="812.45" width="10.19" height="1.32" transform="translate(714.33 -48.37) rotate(46.2)"/>
          <rect class="cls-45" x="405.78" y="815.32" width="10.19" height="1.32" transform="translate(715.48 -45.33) rotate(46.2)"/>
        </g>
        <g>
          <rect class="cls-45" x="402.84" y="818.14" width="10.19" height="1.32" transform="translate(716.6 -42.34) rotate(46.2)"/>
          <rect class="cls-45" x="399.85" y="821.01" width="10.19" height="1.32" transform="translate(717.76 -39.3) rotate(46.2)"/>
          <rect class="cls-45" x="396.99" y="823.75" width="10.19" height="1.32" transform="translate(718.85 -36.39) rotate(46.2)"/>
          <rect class="cls-45" x="393.99" y="826.62" width="10.19" height="1.32" transform="translate(720 -33.34) rotate(46.2)"/>
          <rect class="cls-45" x="390.86" y="829.63" width="10.19" height="1.32" transform="translate(721.21 -30.16) rotate(46.2)"/>
          <rect class="cls-45" x="387.73" y="832.63" width="10.19" height="1.32" transform="translate(722.41 -26.97) rotate(46.2)"/>
        </g>
      </g>
    </g>
    <path class="cls-37" d="M436.93,808.63c-3.67.23-8.6.45-9.11.04-.51-.4-4.33-2.58-7.67-4.48-1.75-.89-2.55-2.96-1.79-4.62.06-.13.96-.02,2.18.08,1.35-1.25,2.5-2.8,3.83-4.08l-3.6-1.66c-2.49-.76-5.04-1.21-7.6-1.34-3.17.03-11.82,3.09-11.82,3.09l-9.19-4.47-5.68,16.05,9.74,2.77,7.82,6.51s16.5,8.75,19.09,8.42c2.59-.33,6.91-3.9,6.91-3.9,3.5.15,5.63-3.96,5.63-3.96,5.69-1.63,2.55-4.1,2.55-4.1.21,0,.41-.08.57-.19,1.79-1.27.31-4.3-1.87-4.15Z"/>
    <path class="cls-56" d="M420.28,811.92c2.52,1.92,5.64,3.46,8.85,3.59,3.21.13,6.79-.73,9.48-2.53.81-.54-.41-.84-.92-.5-2.45,1.64-5.74,2.34-8.66,2.1-2.74-.23-5.47-1.76-7.61-3.4-.41-.32-1.74.29-1.14.74h0Z"/>
    <path class="cls-56" d="M436.16,816.72c-2.58-.21-5.12.51-7.68.73-1.55.13-2.99-.01-4.43-.62-1.23-.52-2.42-1.18-3.57-1.86-.38-.22-1.72.34-1.16.67,2.32,1.38,4.78,2.7,7.55,2.63,1.37-.03,2.72-.26,4.08-.44,1.42-.19,2.88-.48,4.31-.36.33.03.78-.02,1.02-.27.18-.18.21-.44-.13-.47h0Z"/>
    <path class="cls-56" d="M430.76,820.72c-.45-.31-1.32.08-1.79.19-1.14.29-2.32.5-3.49.53-.65.02-1.14-.07-1.73-.35-.53-.24-1.06-.48-1.59-.72-.91-.4-1.82-.78-2.74-1.16-.3-.12-.75.02-1.02.16-.17.09-.46.33-.16.45.85.36,1.71.72,2.56,1.09,1.01.44,2.07,1.13,3.19,1.2s2.29-.09,3.39-.28c.53-.09,1.06-.21,1.58-.33.21-.05.43-.11.64-.17.06-.02.16-.02.21-.05.09-.05-.15.13-.41-.05.25.17.68.06.94-.04.1-.04.66-.31.41-.48h0Z"/>
    <path class="cls-21" d="M253.73,809.39c2.83-6.66,5.81-13.25,8.94-19.77,1.19-2.48,2.44-5,4.36-6.96,1.5-1.53,3.34-2.66,5-4.01,5.3-4.32,8.43-10.65,11.95-16.5,3.52-5.85,8-11.71,14.47-13.89,8.39-2.82,17.37,1.29,25.25,5.31-9.92,3.78-14.94,14.61-18.67,24.55-3.73,9.94-7.88,20.88-17.24,25.88-6.73,3.6-14.78,3.3-22.4,2.91"/>
    <path class="cls-35" d="M307.85,753.13c-.28.02-.56.08-.82.18-.53.15-1.31.4-2.3.75-2.81,1-5.51,2.26-8.08,3.76-1.82,1.02-3.45,2.36-4.8,3.95-1.39,1.92-2.61,3.96-3.64,6.1-1.14,2.34-2.16,4.73-3.05,7.18-.79,2.65-1.72,5.25-2.79,7.8-2.59,5.08-7.27,8.2-11.2,11.14-3.6,2.56-6.97,5.41-10.09,8.54-2.1,2.15-4.04,4.44-5.81,6.86l-1.37,1.98c-.19.22-.34.47-.44.73.21-.19.4-.41.56-.64l1.52-1.89c1.84-2.31,3.81-4.51,5.9-6.6,3.15-3.04,6.54-5.82,10.12-8.34,2.14-1.49,4.21-3.08,6.19-4.79,2.17-1.84,3.97-4.08,5.3-6.58,1.07-2.59,2.01-5.23,2.8-7.91.89-2.42,1.91-4.8,3.05-7.12,1-2.1,2.17-4.11,3.51-6.01,1.29-1.55,2.84-2.86,4.57-3.89,2.52-1.53,5.17-2.85,7.91-3.95l2.24-.88c.25-.1.49-.23.72-.38Z"/>
    <path class="cls-21" d="M265.42,859.84c-2.83-6.66-5.81-13.25-8.94-19.77-1.19-2.48-2.44-5-4.36-6.96-1.5-1.53-3.34-2.66-5-4.01-5.3-4.32-8.43-10.65-11.95-16.5s-8-11.71-14.47-13.89c-8.39-2.82-17.37,1.29-25.25,5.31,9.92,3.78,14.94,14.61,18.67,24.55,3.73,9.94,7.88,20.88,17.24,25.88,6.73,3.6,14.78,3.3,22.4,2.91"/>
    <path class="cls-35" d="M211.31,803.58c.28.02.56.08.82.18.53.15,1.31.4,2.3.75,2.81,1,5.51,2.26,8.08,3.76,1.82,1.02,3.45,2.36,4.8,3.95,1.39,1.92,2.61,3.96,3.64,6.1,1.14,2.34,2.16,4.73,3.05,7.18.79,2.65,1.72,5.25,2.79,7.8,2.59,5.08,7.27,8.2,11.2,11.14,3.6,2.56,6.97,5.41,10.09,8.54,2.1,2.15,4.04,4.44,5.81,6.86l1.37,1.98c.19.22.34.47.44.73-.21-.19-.4-.41-.56-.64l-1.52-1.89c-1.84-2.31-3.81-4.51-5.9-6.6-3.15-3.04-6.54-5.82-10.12-8.34-2.14-1.49-4.21-3.08-6.19-4.79-2.17-1.84-3.97-4.08-5.3-6.58-1.07-2.59-2.01-5.23-2.8-7.91-.89-2.42-1.91-4.8-3.05-7.12-1-2.1-2.17-4.11-3.51-6.01-1.29-1.55-2.84-2.86-4.57-3.89-2.52-1.53-5.17-2.85-7.91-3.95l-2.24-.88c-.25-.1-.49-.23-.72-.38Z"/>
    <path class="cls-21" d="M249.18,788.73c-.03-6.61-.1-13.43-2.79-19.47-1.07-2.39-2.53-4.63-3.26-7.14-1.23-4.27-.19-8.89,1.54-12.98,1.74-4.09,4.15-7.86,5.86-11.97.55-1.31.71-3.31-.66-3.68-.52-.14-1.06.06-1.56.25-9.51,3.75-18.32,9.25-25.87,16.14-.93.85-1.86,1.75-2.4,2.89-.74,1.58-.62,3.42-.39,5.16,1.54,11.59,7.35,22.57,16.07,30.35,3.14,2.8,7.05,5.32,11.24,4.89"/>
    <path class="cls-35" d="M250.34,801.89c-.04-.6-.12-1.2-.24-1.79-.44-2.17-1.07-4.3-1.88-6.36-.99-2.62-2.36-5.65-3.96-8.98-1.8-3.55-3.43-7.19-4.86-10.9-1.41-4.8-2.33-9.72-2.78-14.7-.19.64-.37,1.29-.53,1.95.45,4.4,1.3,8.75,2.57,13,1.44,3.75,3.09,7.41,4.94,10.97,1.63,3.31,3.05,6.31,4.1,8.87.86,2.02,1.56,4.1,2.1,6.22.39,1.5.57,2.35.57,2.35.02-.21.01-.42-.02-.63Z"/>
    <path class="cls-21" d="M438.68,845.36c6.52-2.5,10.29-9.41,12.02-16.19,1.73-6.78,2.03-13.91,4.44-20.54,1.93-5.27,2.2-11.2,3-16.77,1.58-10.93-4.42-13.91-6.78-24.73-2.36-10.82,5.03-11.79,3.51-16.44-.73-2.32-4.26-2.33-6.58-1.75-2.29.72-4.41,1.91-6.21,3.5-9.34,7.19-18.14,16.59-19.68,28.28-.74,5.82.38,11.69.38,17.57-.05,9.18-2.9,18.73-.15,27.42,2.48,8.18,9.4,14.16,15.96,19.68"/>
    <path class="cls-21" d="M443.77,886.8c2.83-6.66,5.81-13.25,8.94-19.77,1.19-2.48,2.44-5,4.36-6.96,1.5-1.53,3.34-2.66,5-4.01,5.3-4.32,8.43-10.65,11.95-16.5,3.52-5.85,8-11.71,14.47-13.89,8.39-2.82,17.37,1.29,25.25,5.31-9.92,3.78-14.94,14.61-18.67,24.55-3.73,9.94-7.88,20.88-17.24,25.88-6.73,3.6-14.78,3.3-22.4,2.91"/>
    <path class="cls-35" d="M497.88,830.54c-.28.02-.56.08-.82.18-.53.15-1.31.4-2.3.75-2.81,1-5.51,2.26-8.08,3.76-1.82,1.02-3.45,2.36-4.8,3.95-1.39,1.92-2.61,3.96-3.64,6.1-1.14,2.34-2.16,4.73-3.05,7.18-.79,2.65-1.72,5.25-2.79,7.8-2.59,5.08-7.27,8.2-11.2,11.14-3.6,2.56-6.97,5.41-10.09,8.54-2.1,2.15-4.04,4.44-5.81,6.86l-1.37,1.98c-.19.22-.34.47-.44.73.21-.19.4-.41.56-.64l1.52-1.89c1.84-2.31,3.81-4.51,5.9-6.6,3.15-3.04,6.54-5.82,10.12-8.34,2.14-1.49,4.21-3.08,6.19-4.79,2.17-1.84,3.97-4.08,5.3-6.58,1.07-2.59,2.01-5.23,2.8-7.91.89-2.42,1.91-4.8,3.05-7.12,1-2.1,2.17-4.11,3.51-6.01,1.29-1.55,2.84-2.86,4.57-3.89,2.52-1.53,5.17-2.85,7.91-3.95l2.24-.88c.25-.1.49-.23.72-.38Z"/>
    <path class="cls-35" d="M443.79,902.92c-.16-14.59-.87-29.18-2.16-43.72-1.61-19.96-3.07-37.93-3.14-53.06-.22-11.95.48-23.91,2.09-35.76.32-2.07.6-3.94.85-5.56.25-1.62.65-2.92.76-4.04s.42-1.86.56-2.49c0-.3-.02-.59-.06-.88-.1.27-.16.55-.19.83l-1.46,6.53c-.36,1.59-.61,3.47-.96,5.56-1.8,11.85-2.63,23.83-2.48,35.81-.03,15.18,1.34,33.27,2.89,53.15,1.25,14.52,1.93,29.08,2.08,43.65.41-.05.81-.05,1.22,0Z"/>
    <path class="cls-47" d="M421.71,920.75c2.44-6.51,5.35-12.84,8.73-18.92,3.39-5.78,8.31-11.49,14.94-12.22,5.04-.32,9.96,1.56,13.51,5.15,3.48,3.56,6.42,7.61,8.73,12.03,4.22,7.19,8.45,14.38,12.69,21.57l-6.98,9.48c-12.62,4.86-26.43,5.74-39.57,2.51-6.28-1.57-13.32-5.32-13.81-11.78-.02-2.71.59-5.38,1.76-7.82Z"/>
    <path class="cls-21" d="M429.91,856.71c-4.61-6-9.42-12.17-16.05-15.8-2.63-1.44-5.52-2.46-7.92-4.25-4.08-3.03-6.35-7.96-7.6-12.89-1.26-4.93-1.68-10.05-2.96-14.97-.41-1.57-1.65-3.51-3.16-2.89-.57.24-.93.79-1.25,1.32-6.06,10.01-10.27,21.14-12.36,32.66-.26,1.42-.48,2.89-.17,4.3.43,1.96,1.81,3.55,3.23,4.96,9.44,9.49,22.36,15.46,35.71,16.5,4.81.37,10.12-.05,13.64-3.35"/>
    <path class="cls-35" d="M440.1,867.89c-.45-.52-.94-1.01-1.47-1.47-1.9-1.67-3.96-3.18-6.13-4.49-2.72-1.69-6.07-3.51-9.84-5.43-4.11-1.98-8.11-4.17-11.99-6.56-4.62-3.4-8.87-7.24-12.73-11.46.27.72.56,1.43.86,2.14,3.46,3.69,7.26,7.07,11.36,10.06,3.91,2.42,7.95,4.61,12.11,6.56,3.79,1.89,7.16,3.63,9.9,5.24,2.18,1.24,4.27,2.65,6.23,4.21,1.4,1.1,2.15,1.75,2.15,1.75-.13-.21-.28-.39-.45-.56Z"/>
    <path class="cls-6" d="M432.3,921.92c1.86-.69,4.63-1.6,6.04.42.55.78.66,1.73,1.47,2.33.68.51,1.55.71,2.38.74,2.19.1,4.09-.95,6.16.28s3.18,3.35,4.28,5.35c.37.68,2.16.02,1.71-.8-1.18-2.16-2.47-4.43-4.69-5.67-.92-.52-1.95-.84-3.01-.87-1.26-.04-2.47.41-3.72.42-1.5.01-1.95-.84-2.55-2.03-.45-.89-1.17-1.51-2.09-1.89-2.24-.93-4.63-.11-6.78.69-.35.13-.68.55-.45.91.25.39.92.24,1.26.11h0Z"/>
    <path class="cls-6" d="M445.12,909.65c-.39-1.25,0-3.5,1.59-3.76.72-.12,1.5.23,2.04.68s.97.99,1.7,1.1c1.72.26,2.91-1.36,4.29-2.08,1.34-.69,3.08-.34,3.7,1.16.23.55,2.06-.02,1.86-.5-.69-1.69-2.68-2.14-4.33-1.88-1.14.18-2.21.68-3.17,1.31-.46.3-1.07.63-1.43,1.04l-.18.13c.4-.05.43-.13.1-.26-.14-.18-.39-.34-.56-.5-2.88-2.67-8.77-.16-7.46,4.05.17.55,2.02.03,1.86-.5h0Z"/>
    <path class="cls-37" d="M1006.74,472.9c7.57-.5,17.74-1.33,18.69-2.3.94-.96,8.2-6.43,14.56-11.2,3.35-2.28,4.44-6.74,2.45-9.95-.52-.84-18.41,5.91-20.49-2.19l14.06-8.78c4.91-2.21,10.02-3.8,15.22-4.73,6.5-.76,25.04,3.23,25.04,3.23l17.68-11.57,13.29,26.51-16.68,13.15-14.33,15.4s-31.53,22.25-36.93,22.27c-5.4.01-15.18-6.19-15.18-6.19-7.14,1.21-12.59-6.64-12.59-6.64-12.1-1.86-6.3-7.75-6.3-7.75-.43.04-.86-.05-1.22-.25-4.01-2.13-1.77-8.74,2.75-9Z"/>
    <path class="cls-56" d="M1038.82,475.55c-4.2,3.86-9.42,7.28-15.13,8.19-2.99.48-6.07.5-9.06,0s-6-1.14-8.7-2.5c-.44-.22-1.79.41-1.18.72,2.91,1.47,6.22,2.19,9.42,2.66s6.55.42,9.78-.14c6.05-1.05,11.6-4.58,16.06-8.69.63-.58-.83-.58-1.19-.25h0Z"/>
    <path class="cls-56" d="M1042.88,482.13c.15.22.48.55.45.85-.03.23-.79.72-1.01.9-.68.59-1.38,1.17-2.09,1.72-1.56,1.21-3.18,2.41-4.93,3.33-3.61,1.89-7.47,2.08-11.47,1.83s-8.05-.08-11.77-1.14c-.34-.1-1.63.45-1.22.57,2.55.73,5.13.75,7.75.91,1.97.12,3.95.29,5.92.34,3.78.11,7.41-.32,10.85-1.94s6.53-4.27,9.48-6.81c.05-.03.07-.08.07-.14-.18-.28-.37-.56-.56-.83-.24-.36-1.59.23-1.48.4h0Z"/>
    <path class="cls-56" d="M1047.22,491.11c-1.49,1.09-3.01,2.13-4.55,3.15-.96.63-1.92,1.26-2.89,1.87-1.11.71-2.26,1.61-3.58,1.84-2.47.42-5.26.22-7.7-.28-.55-.11-3.79-.73-3.73-1.46.02-.19-1.45-.04-1.48.4-.08.92,3.98,1.64,4.44,1.72,2.64.48,5.54.62,8.19.16,2.5-.43,4.58-2.06,6.66-3.41s4.04-2.67,5.99-4.1c.29-.21-.26-.23-.35-.23-.33-.02-.73.16-.99.35h0Z"/>
    <path class="cls-7" d="M256.59,880.92s.68,1.08,1.97.95c4.07-.4,12.43-3.45,10.27-13.39l-1.69-.46s.7,7.86-2.6,9.67c-3.3,1.81-7.96,3.23-7.96,3.23Z"/>
    <path class="cls-21" d="M272.57,859.31c4.16-11.8,12.65-21.83,23-28.85,10.35-7.02,22.49-11.15,34.85-13.07,4.75-.74,9.76-1.24,13.71-3.97-10.73,16.38-24.72,30.6-40.92,41.6-8.26,5.61-17.77,10.54-27.71,9.63"/>
    <path class="cls-35" d="M268.19,868.83c.38-.47.82-1.07,1.39-1.78,1.22-1.54,3-3.75,5.3-6.42,5.94-6.99,12.46-13.46,19.49-19.34,4.06-3.38,8.29-6.23,12.09-8.82,1.52-.77,3.03-1.56,4.55-2.32-1.28.99-2.59,1.94-3.93,2.84-3.87,2.65-8.08,5.5-12.19,8.92-7,5.85-13.54,12.23-19.57,19.08l-5.49,6.25-1.52,1.69c-.34.38-.56.56-.56.56.12-.24.27-.46.44-.67Z"/>
    <path class="cls-35" d="M272.1,919.31c-.26-20.88-2.4-41.71-6.41-62.23-2.79-14.16-6.4-28.15-10.82-41.89-3.96-12.68-7.54-24.1-9.8-33.88-1.89-7.7-3.18-15.54-3.86-23.44-.09-1.39-.18-2.64-.26-3.72-.08-1.08,0-1.98-.09-2.73s0-1.26,0-1.69c-.05-.19-.1-.38-.17-.56-.02.19-.02.38,0,.56v4.44c0,1.08.11,2.33.18,3.73.56,7.93,1.77,15.8,3.61,23.53,2.19,9.83,5.73,21.34,9.65,33.97,4.37,13.73,7.96,27.69,10.75,41.82,3.94,20.25,6.12,40.79,6.53,61.39.27.19.5.41.69.69Z"/>
    <path class="cls-47" d="M251.22,927.1c2.13-5.69,4.68-11.21,7.62-16.52,2.96-5.05,7.26-10.03,13.05-10.67,4.4-.28,8.7,1.36,11.8,4.5,3.04,3.11,5.61,6.65,7.62,10.5,3.69,6.28,7.38,12.56,11.08,18.84l-6.1,8.28c-11.02,4.24-23.08,5.01-34.55,2.19-5.49-1.37-11.63-4.65-12.06-10.29-.01-2.36.51-4.7,1.54-6.83Z"/>
    <path class="cls-6" d="M260.26,934.44c-.4-2.58,2.59-3.64,4.64-3.61,2.18.03,4.35.91,5.96,2.37.6.55,1.07,1.36,1.87,1.61.9.28,1.84-.15,2.71-.33,2.49-.51,5.1.21,7.14,1.68.51.37,2.21-.37,1.73-.71-2.21-1.6-4.87-2.34-7.6-2.09-.66.06-1.31.18-1.95.35-.96.25-1.29-.35-1.93-.97-.92-.9-2.03-1.61-3.21-2.1-2.27-.93-4.9-1.09-7.25-.37-2.03.63-4.35,2.27-3.98,4.67.09.59,1.96.16,1.86-.5h0Z"/>
    <path class="cls-6" d="M283.24,913.07c-2.97-1.45-6.79-.33-8.76,2.27-.48.63-.83,1.34-1.03,2.11-.08.34-.03.82-.19,1.12s-.12.21-.49.23c-.22.01-.43.04-.64.07-1.97.31-3.71,1.43-4.79,3.1-.25.39.22.66.55.7.45.05.97-.16,1.22-.55.45-.69,1.06-1.27,1.8-1.64.76-.38,1.48-.37,2.29-.48s1.53-.49,1.84-1.26c.26-.66.21-1.39.49-2.06.98-2.33,3.9-3.77,6.26-2.61.42.2.95.14,1.33-.13.26-.19.55-.67.12-.88h0Z"/>
  </g>
</svg>