<?xml version="1.0" encoding="UTF-8"?>
<svg xmlns="http://www.w3.org/2000/svg" xmlns:xlink="http://www.w3.org/1999/xlink" viewBox="0 0 1334 1000">
  <defs>
    <style>
      .cls-1 {
        fill: none;
      }

      .cls-2 {
        fill: #673012;
      }

      .cls-3 {
        fill: #131429;
      }

      .cls-4 {
        fill: #c7cd8d;
      }

      .cls-5 {
        fill: #d39140;
      }

      .cls-6 {
        fill: #101931;
      }

      .cls-7 {
        fill: #0e0c0c;
      }

      .cls-8 {
        fill: #273339;
      }

      .cls-9 {
        fill: #010101;
      }

      .cls-10 {
        fill: #864e9f;
      }

      .cls-11 {
        fill: #1a2942;
      }

      .cls-12 {
        fill: #653c29;
      }

      .cls-13 {
        fill: #231f20;
      }

      .cls-14 {
        fill: #7a1d16;
      }

      .cls-15 {
        fill: #d27228;
      }

      .cls-16 {
        fill: #a67351;
      }

      .cls-17 {
        fill: #f1eef7;
      }

      .cls-18 {
        fill: #af3c25;
      }

      .cls-19 {
        fill: #f38f20;
      }

      .cls-20 {
        fill: #3e6ba3;
      }

      .cls-21 {
        fill: #36190e;
      }

      .cls-22 {
        fill: #4f3a31;
      }

      .cls-23 {
        fill: #fafbfc;
      }

      .cls-24 {
        fill: #2b2e7a;
      }

      .cls-25 {
        fill: #663631;
      }

      .cls-26 {
        fill: #1e3353;
      }

      .cls-27 {
        fill: #a66e53;
      }

      .cls-28 {
        fill: #0a2f44;
      }

      .cls-29 {
        fill: #a26427;
      }

      .cls-30 {
        fill: url(#linear-gradient);
        opacity: .5;
      }

      .cls-31 {
        fill: #2f2512;
      }

      .cls-32 {
        fill: #fff;
      }

      .cls-33 {
        fill: #4978bc;
      }

      .cls-34 {
        fill: #59341c;
      }

      .cls-35 {
        fill: #8a4a20;
      }

      .cls-36 {
        fill: #0d0b09;
      }

      .cls-37 {
        fill: #42221a;
      }

      .cls-38 {
        fill: #9b5925;
      }

      .cls-39 {
        fill: #160e0d;
      }

      .cls-40 {
        fill: #0e1125;
      }

      .cls-41 {
        fill: #151210;
      }

      .cls-42 {
        fill: #f2ebd1;
      }

      .cls-43 {
        fill: #382712;
      }

      .cls-44 {
        fill: #24180f;
      }

      .cls-45 {
        fill: #628e9f;
      }

      .cls-46 {
        fill: #10485b;
      }

      .cls-47 {
        stroke: #000;
        stroke-miterlimit: 10;
      }

      .cls-48 {
        fill: #5d483b;
      }

      .cls-49 {
        fill: #28160e;
      }

      .cls-50 {
        fill: #ad5526;
      }

      .cls-51 {
        fill: #825639;
      }

      .cls-52 {
        fill: #1e3319;
      }

      .cls-53 {
        fill: #f2e223;
      }

      .cls-54 {
        fill: #465b65;
      }

      .cls-55 {
        fill: #eb9944;
      }

      .cls-56 {
        fill: #87654d;
      }

      .cls-57 {
        fill: #634938;
      }

      .cls-58 {
        clip-path: url(#clippath);
      }

      .cls-59 {
        fill: #4f2e25;
      }

      .cls-60 {
        fill: #773022;
      }
    </style>
    <linearGradient id="linear-gradient" x1="-1093.62" y1="3421.48" x2="-264.25" y2="3421.48" gradientTransform="translate(-2781.15 1060.12) rotate(90) scale(1 -1)" gradientUnits="userSpaceOnUse">
      <stop offset="0" stop-color="#f0ebe0"/>
      <stop offset=".18" stop-color="#eee8dd" stop-opacity=".99"/>
      <stop offset=".33" stop-color="#e8e1d4" stop-opacity=".97"/>
      <stop offset=".46" stop-color="#ded4c5" stop-opacity=".93"/>
      <stop offset=".59" stop-color="#d0c2b0" stop-opacity=".88"/>
      <stop offset=".72" stop-color="#bdab95" stop-opacity=".82"/>
      <stop offset=".84" stop-color="#a78e73" stop-opacity=".73"/>
      <stop offset=".96" stop-color="#8d6d4d" stop-opacity=".64"/>
      <stop offset="1" stop-color="#83603d" stop-opacity=".6"/>
    </linearGradient>
    <clipPath id="clippath">
      <polygon class="cls-1" points="1008.25 1024.9 -23.97 1024.9 -15.65 850.15 969.92 850.15 1008.25 1024.9"/>
    </clipPath>
  </defs>
  <g id="Layer_2" data-name="Layer 2">
    <polyline class="cls-42" points="1400.35 1103.55 1400.35 -36.24 -102.29 -36.24 -102.29 1103.55"/>
    <polyline class="cls-30" points="1433.11 793.13 -152.45 793.13 -152.45 -36.24 1433.1 -36.24"/>
    <path class="cls-27" d="M587.22,321.62l-13.23-1.96s-16.92,7.49-25.53,7.64c-6.22-.13-12.39-1.12-18.34-2.95l-19.55.68s-8.2,5.07-9.97,2.63.79-5.15,3.29-7.78c2.49-2.63,47.3-25.41,47.3-25.41-4.92-1.71-9.98-2.99-15.11-3.84-7.9-1.24-11.05-6.17-7.7-8.98,2.07-1.73,13.68-2.55,17.09.58,3.42,3.13,13.47-.57,21.26,1.79,7.79,2.36,13.52,11.88,13.52,11.88,3.97,1.78,10.04,3.06,10.04,3.06,2.61,7.42-3.08,22.67-3.08,22.67Z"/>
    <path class="cls-59" d="M515.27,324.37c-.65-.4.2-2.5.44-2.93.48-.83,1.3-1.37,2.1-1.86,1.3-.8,2.73-1.41,4.18-1.88,1.18-.39,2.39-.69,3.61-.92.39-.07.78-.14,1.17-.18.28-.03.87.07.37-.1l-.32-.46h0c.14-.16.27-.33.41-.5.28-.15-.05.01-.18,0-.36-.02-.8.1-1.16.13-.82.08-1.11,1.18-.11,1.12,2.54-.16,5.09-.08,7.61.31s4.9.85,7.14,1.86c.64.29,1.67-.64.83-1.02-2.35-1.05-4.94-1.56-7.48-1.94-2.64-.4-5.32-.49-7.98-.32l-.11,1.12c.51-.05,2.49,0,2.52-.85,0-.21-.12-.39-.32-.46-.72-.24-1.75.08-2.45.21-1.75.31-3.47.79-5.13,1.42-1.81.69-3.82,1.61-5.23,2.99-.78.77-1.27,1.86-1.44,2.93-.09.58-.17,1.82.45,2.2.57.35,1.82-.43,1.11-.87h0Z"/>
    <path class="cls-59" d="M528.95,315.22c.02.08-.03.05.09-.04s.26-.18.39-.27c.48-.3.99-.57,1.49-.84,1.05-.56,2.12-1.1,3.19-1.62s2.05-.97,3.1-1.41c.93-.39,1.86-.77,2.81-1.11.28-.1.56-.2.85-.27.09-.02.21-.03.25-.06.1-.09-.15.09-.24-.04.23.32,1.63-.14,1.36-.53-.4-.57-2.39.32-2.82.48-1.77.63-3.5,1.38-5.2,2.18s-3.31,1.6-4.91,2.5c-.32.18-1.93.89-1.81,1.42.1.4,1.55.03,1.45-.39h0Z"/>
    <path class="cls-59" d="M550.89,312.51h-.02c.22-.01.44-.03.66-.05,0,0-.21-.51-.25-.66-.15-.49-.23-.99-.29-1.5-.18-1.7.03-3.45.57-5.07.45-1.33,1.13-2.61,2.03-3.7.31-.38.65-.74,1.01-1.06.13-.11.26-.22.4-.32.05-.03.1-.06.14-.09.04-.02.04-.02-.01,0,.33-.15.03-.13-.9.06.27.35,1.56-.25,1.45-.39-.26-.34-1.04-.02-1.34.12-.39.18-.73.45-1.05.73-1.21,1.07-2.15,2.48-2.79,3.95-.84,1.94-1.19,4.13-.95,6.24.07.61.17,1.28.43,1.85.21.46.53.49,1.03.34.13-.04.72-.19.66-.42s-.68-.06-.78-.03h0Z"/>
    <path class="cls-59" d="M579.55,296.15c-.05,3.71-1.19,7.34-3.25,10.43-.16.23.52.18.59.17.29-.05.67-.15.84-.41,2.1-3.13,3.22-6.81,3.27-10.57,0-.26-1.44-.06-1.45.39h0Z"/>
    <path class="cls-45" d="M715.63,171.33s-34.31,20.17-41.76,44.72c-5.35,17.62-.23,92.13-2.77,107.67-2.54,15.54,2.74,13.28,2.74,13.28l45.41-13.58,14.11-49.66-14.77-93.44-2.96-8.99Z"/>
    <path class="cls-45" d="M733.77,300.61s-36.55,28.56-43.86,23.07c-4.88-3.66,2.22-9.22-2.43-13.16l-61.08-8.18c-4.25-1.07-43.1-8.02-43.04-6.43l2.64,1.82c.93,6.69-1.9,18.38-5.73,24.03l-2.19,6.22c-.24,2.08,35.37,13.18,39.09,14.65,15.88,6.28,57.08,18.08,65.91,21.25,12.5,4.48,37.83-1.32,46.82-13.75,6.29-8.7,7.16-39.02,3.88-49.53Z"/>
    <path class="cls-45" d="M675.72,311.17c-2.31,14.14-1.62,16.86-1.62,16.86l43.95-13.16,14.3-49.15-13.44-84.98-2.69-8.17s-23.06,22.75-30.44,33.58"/>
    <polygon class="cls-49" points="514.27 738.16 473.45 738.16 482.75 789.38 514.27 789.38 514.27 738.16"/>
    <path class="cls-48" d="M510.36,596.42l-.77-.29-1.36-54.23c-2.02-40.93-13.08-70.62-36.63-72.93-16.03,0-70.24-.74-75.64,3.41-1.5-71.09,6.23-127.81-109.9-127.81l-128.01.31c-1.37,31.38-5.09,62.66-9.71,93.72-5.8,38.97,5.56,77.69-.38,116.64-2.98,19.57,22.78,39.29,20.26,58.92-2.57,20-5.18,40-7.71,60.01-3.85,30.43-7.54,60.9-10.71,91.42h365.45v-63.42c9.1-2.98,15.42-12.81,15.47-24.06v-45.24c-.03-17.33-7.37-28.65-20.35-36.45Z"/>
    <path class="cls-48" d="M169.55,765.31c.36-8.91.7-17.82.97-26.73.63-20.51,21.67-41.01,21.67-61.52l-4.76-331.99-275.46-.78c-59.64.01-69.57,56.72-71.07,127.81-5.4-4.15-59.61-3.41-75.64-3.41-23.54,2.31-34.61,32-36.63,72.93l-1.36,54.23-.77.29c-12.98,7.81-20.33,19.12-20.35,36.45v45.24c.05,11.25,6.37,21.09,15.47,24.06v63.42H169.55Z"/>
    <path class="cls-36" d="M-273.05,706.95H511.73c.83,0,1.11-1.06.13-1.06H-272.92c-.83,0-1.11,1.06-.13,1.06h0Z"/>
    <path class="cls-36" d="M-269.09,599.24c.45,0,.91,0,1.36,0h3.97c2.15-.01,4.29-.01,6.44-.02l8.82-.02c3.66,0,7.33-.01,10.99-.02l13.13-.02,15.01-.03c5.61,0,11.21-.02,16.82-.03,6.19-.01,12.38-.02,18.57-.03,6.68-.01,13.35-.02,20.03-.04l21.53-.04c7.57-.01,15.14-.03,22.71-.04,7.95-.01,15.9-.03,23.84-.04,8.32-.01,16.64-.03,24.96-.04s17.14-.03,25.72-.05c8.86-.02,17.71-.03,26.57-.05s18.03-.03,27.05-.05,18.43-.03,27.64-.05,18.57-.03,27.85-.05l28.05-.05c9.41-.02,18.83-.03,28.24-.05l28.05-.05c9.32-.02,18.64-.03,27.97-.05s18.34-.03,27.5-.05l27.03-.05c8.85-.02,17.7-.03,26.54-.05l25.69-.05c8.31-.01,16.62-.03,24.92-.04,7.94-.01,15.87-.03,23.81-.04s15.11-.03,22.67-.04c7.16-.01,14.32-.03,21.48-.04,6.66-.01,13.32-.02,19.98-.04,6.17-.01,12.34-.02,18.52-.03l16.76-.03,15.01-.03,13-.02,10.92-.02c2.91,0,5.83-.01,8.74-.02h6.35c1.3-.01,2.59-.02,3.89-.02.42,0,.84,0,1.25,0,.83,0,1.11-1.07.13-1.06-.45,0-.91,0-1.36,0h-3.97c-2.15.01-4.29.01-6.44.02l-8.82.02c-3.66,0-7.33.01-10.99.02l-13.13.02-15.01.03c-5.61,0-11.21.02-16.82.03-6.19.01-12.38.02-18.57.03-6.68.01-13.35.02-20.03.04l-21.53.04c-7.57.01-15.14.03-22.71.04-7.95.01-15.9.03-23.84.04-8.32.01-16.64.03-24.96.04s-17.14.03-25.72.05c-8.86.02-17.71.03-26.57.05s-18.03.03-27.05.05-18.43.03-27.64.05-18.57.03-27.85.05l-28.05.05c-9.41.02-18.83.03-28.24.05l-28.05.05c-9.32.02-18.64.03-27.97.05s-18.34.03-27.5.05l-27.03.05c-8.85.02-17.7.03-26.54.05l-25.69.05c-8.31.01-16.62.03-24.92.04-7.94.01-15.87.03-23.81.04s-15.11.03-22.67.04c-7.16.01-14.32.03-21.48.04-6.66.01-13.32.02-19.98.04-6.17.01-12.34.02-18.52.03l-16.76.03-15.01.03-13,.02-10.92.02c-2.91,0-5.83.01-8.74.02h-6.35c-1.3.01-2.59.02-3.89.02-.42,0-.84,0-1.25,0-.83,0-1.11,1.07-.13,1.06h0Z"/>
    <path class="cls-36" d="M395.08,476.91c-5.13,6.83-9.94,14.11-13.47,21.91-3.95,8.72-4.68,18.06-5.06,27.5-.59,14.77-.84,29.55-1.14,44.33-.16,7.75-.3,15.51-.48,23.26-.02.76,1.45.55,1.47-.11.33-14.56.57-29.13.91-43.69.16-6.97.34-13.93.59-20.9.33-9.08.5-18.45,3.77-27.05,3.4-8.95,8.91-17.21,14.63-24.83.55-.74-.81-.96-1.21-.43h0Z"/>
    <path class="cls-36" d="M423.84,477.11c-5.13,6.83-9.91,14.09-13.44,21.88-3.96,8.74-4.65,18.13-5.03,27.6-.59,14.69-.83,29.4-1.13,44.1-.16,7.75-.3,15.51-.48,23.26-.01.6,1.44.3,1.45-.18.33-14.62.57-29.25.92-43.87.16-6.95.34-13.9.59-20.85.33-9.02.53-18.32,3.74-26.88,3.39-9.03,8.97-17.35,14.73-25.02.39-.52-1.06-.41-1.35-.03h0Z"/>
  </g>
  <g id="Layer_1" data-name="Layer 1">
    <polyline class="cls-22" points="-123.86 1169.92 1443.89 1169.92 1443.89 788.74 -123.86 788.74"/>
    <polygon class="cls-35" points="1031.95 1155.2 -198.32 1155.2 -135.94 833.44 969.57 833.44 1031.95 1155.2"/>
    <g class="cls-58">
      <rect class="cls-38" x="-34.62" y="893.93" width="1070.87" height="15.5"/>
      <rect class="cls-38" x="-33.49" y="852.89" width="1070.87" height="15.5"/>
      <rect class="cls-38" x="-40.16" y="933.2" width="1070.87" height="15.5"/>
      <rect class="cls-38" x="-39.71" y="971.7" width="1070.87" height="15.5"/>
    </g>
    <path d="M227.51,698.61l.1.72c2.15,3.91,4.79,6.01,8.38,5.51.02.04,4.27,7.75,12.38,5.27,7.04-2.15,8.22-6.12,8.22-6.12,0,0,3.7.91,5.31.06,3.62-1.93,3.29-7.3,2-10.42-1.76-4.25-3.82-7.25-3.82-7.25,0,0-2.53-2.64-4.55-4.44-2.01-1.8-6.77-2.28-6.77-2.28,0,0-.42-4.91-2.64-4.96-2.22-.05-9.11-2.34-9.11-2.34,0,0-1.75,1.65-4.61,5.37,0,0-3.39.77-3.02,5.27.08.97.33,2.12.83,3.48,0,0-1.65.42-3.4,3.69-.76,1.41-.94,5.48.69,8.46Z"/>
    <path d="M269.5,697.99c14.24.91,22.71-9.52,31.3-20.1,5.03-6.19,8.93-13.75,9.18-21.86.21-7.03-2-13.97-4.81-20.33-2.54-5.75-5.56-10.56-10.94-14.03-5.12-3.31-11.23-4.93-17.29-5.08-1.81-.04-3.62,0-5.43.1-16.05.77-35.78,10.76-40.49,25.14-.43,1.3-.76,2.68-1.05,4.11,0,0-.47,3.03-.38,4.05,1.68,17.98,10.61,50.34,36.03,46.67,2.22-.32,4.24-.29,3.89,1.34Z"/>
    <path class="cls-27" d="M313.05,672.96c-.42-4.25-2.7-10.68-4.14-12.59-.35-1.94-.77-4.18-1.3-6.88-.15-.78-.32-1.53-.49-2.27-.12-.37-.21-.75-.27-1.14-3.24-13.03-9.06-18.97-9.06-18.97-7.42-7.51-18.26-10.52-28.49-7.9-12.09,2.83-21.47,12.52-25.6,21.14-2.05,4.27-2.46,9.15-1.13,13.69,1.13,3.89,5.61,7.5,7.59,11.56-4.28.71-9.41,3.05-6.2,10.51,4.43,10.3,12.65,9.51,15.75,6.45,3.71,4.34,4.64,7.18,5.55,10.1.94,3.02,1.36,9.02,1.05,10.44l-7.12,4.84c12.31,12.76,46.02,25.3,50.79.61l-8.33-5.95-2.53-7.36c.28-.08-.28.07,3.89-2.31,12.34-7.97,10.53-18.94,10.03-23.95Z"/>
    <path class="cls-59" d="M299.93,701.37l-.78-2.3s-13.56,4.51-24.1-.65c0,0,7.68,5.34,14.88,4.83,7.2-.51,10-1.88,10-1.88Z"/>
    <g>
      <path d="M255.54,672.55c.17.32.35.67.28,1.02-.1.47-.65.72-1.13.67s-.9-.32-1.31-.57c-2.67-1.6-8.74-3.76-11.55-2.42-6.61-10.27-7.65-21.9-2.67-33.06,1.58-3.53,6.34-7.79,7.79-9.15,8.79-8.14,17.35-9.67,28.08-9.89,16.07-.3,17.82,1.43,25.61,13.78,0,0-20.23-5.37-36.95,3.64.54.07-9.93,7.26-10.05,7.48-1.05,1.87.69,2.97.9,6.47.15,2.54.82,4.35-.84,6.3-1.15,1.35-.99,6.53-.64,8.27l2.48,7.47Z"/>
      <path d="M254.09,672.94c.12.21.21.43.28.67l.8-.27c0-.07-.7-.4-.84-.48-.49-.28-1-.53-1.52-.77-1.27-.58-2.58-1.04-3.92-1.41-2.45-.68-5.22-1.04-7.62,0h1.91c-4.77-7.5-6.82-16.43-5.01-25.2.81-3.94,2.15-7.8,4.73-10.93,2.06-2.5,4.49-4.81,6.99-6.87,2.95-2.44,6.27-4.41,9.9-5.66,3.47-1.19,7.13-1.7,10.78-1.93s7.17-.28,10.73-.1c2.36.12,4.79.37,6.99,1.26,5.19,2.1,8.18,7.74,11.01,12.23l2.24-1.32c-2.75-.73-5.63-1.08-8.46-1.34-6.2-.56-12.48-.29-18.57,1.05-4.08.89-8.01,2.33-11.7,4.3-.37.2-.9.82-.27,1.08.92.38-.46-.72-.16-.65,0,0,.1-.02-.06.05-.13.06-.28.23-.39.32-.47.38-.96.74-1.44,1.1-1.2.88-2.41,1.75-3.62,2.61-1.09.78-2.19,1.55-3.28,2.34-.75.54-1.42.93-1.65,1.89-.37,1.58.76,3.26,1.03,4.79.4,2.19.9,5.03-.47,6.94-1.03,1.44-1.1,3.26-1.12,4.98-.02,1.3-.04,2.73.3,3.99.67,2.47,1.62,4.89,2.43,7.32.32.97,3.21.15,2.9-.78-.76-2.28-1.52-4.56-2.27-6.84-.36-1.08-.42-2.2-.46-3.34-.05-1.84-.07-3.91,1.03-5.46,1.34-1.9.89-4.03.71-6.19-.09-1.14-.3-2.2-.67-3.28-.25-.72-.66-1.52-.56-2.29.02-.2.1-.37.16-.56.11-.36-.16.11-.08.02.08-.08.2-.16.29-.22.39-.27.77-.56,1.16-.84,1.19-.85,2.38-1.69,3.56-2.53,1.31-.93,2.62-1.86,3.89-2.84.34-.26,2.13-1.46,1.09-1.88l-.27,1.08c7.27-3.86,15.61-5.1,23.76-4.79,3.8.14,7.71.54,11.4,1.51.59.16,2.84-.37,2.24-1.32-2.78-4.4-5.63-9.67-10.49-12.08-2.21-1.1-4.68-1.52-7.11-1.74-3.69-.34-7.44-.27-11.14-.12-8.03.34-15.91,1.94-22.65,6.55-3.02,2.07-5.76,4.57-8.3,7.22-1.29,1.34-2.54,2.74-3.56,4.3-1.16,1.77-1.9,3.81-2.54,5.82-3.21,10.09-1.36,20.63,4.28,29.48.31.49,1.55.16,1.91,0,1.15-.5,2.7-.09,3.86.18,1.56.36,3.07.92,4.52,1.6,1.31.62,2.47,1.62,4,1.41s3.03-1.19,2.22-2.84c-.47-.96-3.29-.02-2.9.78Z"/>
    </g>
    <circle cx="304.96" cy="657.7" r="2.72"/>
    <path d="M307.63,654.81c-1.44-.53-3.31-.69-5.84.08-4.05,1.24-4.83,6.79-4.83,6.79,0,0,1.36-4.41,5.33-5.72,1.91-.64,3.93-.42,5.59.03-.12-.38-.2-.78-.25-1.17Z"/>
    <path d="M280.19,653.93s-12.27,2.99-13.91,5.77c0,0,.38-3.76,10.52-7.03,0,0,5.51-.55,3.39,1.26Z"/>
    <path d="M307.14,647.84c-.02-.09-.04-.17-.05-.26-1.74-.21-4.21-.18-7.69.5,0,0-4.25,1.54-1.76,2.14,0,0,5.55-1.56,9.59-1.78-.02-.2-.04-.4-.08-.6Z"/>
    <path class="cls-25" d="M248.22,680.05c-.5-.84-.9-1.84-.91-2.81,0-.28.02-.55.07-.82,0-.05.03-.1.03-.14.02-.15-.07.13-.02.05.01-.02.02-.06.03-.08l-.73.55c.15-.05-.35.05-.16.03.27-.03-.26-.05.02,0,.07.01.14.02.2.03.18.02-.2-.07-.07-.02.04.02.09.03.14.04.22.07.43.16.64.26.04.02.23.12.04.02.07.04.14.08.21.12.16.09.31.19.47.28.37.24.72.5,1.06.78,1.01.81,1.92,1.74,2.8,2.7l1.42-1.07c-.63-.28-1.4-.38-2.07-.17-1,.3-1.37,1.2-1.23,2.16.29,2,2.42,2.65,4.17,2.47.42-.05.99-.29,1.04-.78s-.5-.68-.88-.64c-.41.04-.69.06-1.09-.03-.17-.04-.44-.15-.62-.28-.36-.25-.57-.57-.68-1.01-.03-.11-.05-.22-.06-.33.01.15,0-.11,0-.16,0-.08.04-.21.04-.25,0-.07.07-.06,0,0-.1.08-.16.12-.28.17.17-.06-.15.02-.02,0,.1-.02-.17-.03,0,0,.07.01.14.02.2.03.2.02-.15-.06.03,0,.12.04.24.07.35.12.36.16.88.03,1.18-.2.23-.18.49-.59.24-.87-1.07-1.17-2.2-2.32-3.47-3.27-.68-.51-1.43-.99-2.24-1.28-.43-.15-.91-.26-1.37-.22-.21.02-.42.06-.61.15-.44.22-.55.56-.64,1-.3,1.51.26,3.06,1.02,4.34.45.75,2.26.02,1.74-.84h0Z"/>
    <circle cx="278.78" cy="663.55" r="2.72"/>
    <path d="M286.63,663.72s-5.16-4.55-9.63-3.22c-6.29,1.87-6.52,6.35-7.33,8.66,0,0,2.79-6.28,7.69-7.61,4.44-1.2,9.27,2.17,9.27,2.17Z"/>
    <g>
      <path class="cls-9" d="M297.27,674.69c-.7.66-1.98.92-2.95.64-.22-.06-.79.22-.49.31,1.28.37,3.09-.07,4-.93.09-.09.05-.16-.1-.17-.15,0-.36.06-.46.15"/>
      <path class="cls-9" d="M293.41,675.5c-.62-.11-1.28-.07-1.91.06-.09.02-.2.09-.25.16-.04.06-.03.13.05.15.33.08.71.05,1.04-.05.1-.03.24-.1.27-.2.03-.1-.09-.12-.17-.1-.27.08-.57.11-.84.04-.07.1-.14.21-.2.31.56-.11,1.15-.14,1.71-.05.11.02.24-.05.32-.13.05-.06.1-.17-.01-.19"/>
      <path class="cls-9" d="M290.98,676.27c-.73.19-1.66.11-2.17-.33-.77-.67-.65-2.19.1-2.97.08-.08,0-.14-.1-.14-.14,0-.28.1-.36.19-.66.68-.85,1.97-.51,2.71.31.69,1.14,1,2.07.96.27-.01.56-.05.83-.12.11-.03.3-.12.33-.22.03-.1-.08-.11-.18-.09"/>
      <path class="cls-9" d="M298.49,673.95c-.06-.07,0-.15.05-.16.2-.05.38-.16.51-.34.09.06.17.12.26.18-.38.15-.73.39-1.02.72-.06.07-.16.06-.24.03-.06-.03-.13-.1-.08-.17"/>
      <path class="cls-9" d="M297.97,674.21c.32-.37.72-.63,1.14-.8.06-.02.15-.01.22.03.05.04.08.1.04.15"/>
      <path class="cls-9" d="M300.01,673.63c.46-.15.93-.62,1.01-1.23.12-.92-.48-1.81-1.21-2.17-.08-.04-.07-.12,0-.16.08-.05.19-.03.27,0,.64.31,1.18.96,1.32,1.76.13.74-.18,1.37-.68,1.74-.15.11-.32.2-.49.26-.07.02-.21.03-.27-.05-.06-.08,0-.13.06-.15"/>
    </g>
    <rect class="cls-57" x="907.25" y="604.36" width="475.49" height="145.81"/>
    <path class="cls-27" d="M273.63,721.6c1.98,6.99,5.45,13.5,10.02,19.25,11.3,14.22,31.19,50.31,39.89,52.98,20.14,6.18,62.92-12.31,62.92-12.31l-2-13.11-47.97,3.67s-18.25-36.25-25.07-48.24c-2.82-4.96,1.41-3.83-8.46-9.67-.67-.39-5.24-1.96-5.65-2.15"/>
    <path class="cls-27" d="M222.21,839.62c.46,11.49-2.28,36.34,32.11,37.68l-15.72-3.37.33,27.96s96.6-1.39,99.61-1.46c5.79-.13,19.39-7.95,21.29-25.96,1.9-18.01-12.66-22.39-17.04-25.64-4.38-3.24-52.73-18.55-71.15-21.2l-44.5,5.49-4.93,6.5Z"/>
    <path class="cls-27" d="M231.1,885.37c-1.13-2.45-4.2-4.96-6.36-6.1-2.16-1.14-4.67.1-5.35.41-5.01,2.36-7.49,6.69-11.36,10.48-2.97,2.91-6.29,5.45-9.88,7.55-3.64,2.14-7.66,3.31-11.35,5.26-.03.01-.05.03-.08.04-1.84.97-3.27,2.55-4.08,4.46-.29.7-.59,1.39-.93,2.04-.46.9-.97,1.58-.41,2.6,1.03,1.88,4.2.56,5.12.12.17-.08.36-.11.55-.11.76.04,2.99.03,6.71-.94.36-.09.71-.16,1.06-.21,0,.02.02.04.02.06,1.98-.4,10.77-1.04,12.38-1.26,3.17-.44,12.96-4.08,12.96-4.08,0,0,15.15-3.04,19.49-.6l2.17-14.98s-9.55-2.3-10.68-4.74Z"/>
    <path class="cls-27" d="M217.41,853.98c.46,11.49-2.28,36.34,32.11,37.68l-7.74-1.56-2.17,14.98s79.25,12.67,94.13,9.7c5.79-.13,19.39-7.95,21.29-25.96,1.9-18.01-12.66-22.39-17.04-25.64-4.38-3.24-52.73-18.55-71.15-21.2l-44.5,5.49-4.93,6.5Z"/>
    <path class="cls-25" d="M356.85,889c.51-5.13-.19-10.32-3-14.73-2.09-3.27-5.15-5.77-8.42-7.79-2.12-1.31-4.29-2.61-6.46-3.84-2.06-1.17-4.38-1.95-6.59-2.78-8.47-3.16-17.12-5.85-25.77-8.44-9.66-2.89-19.39-5.63-29.23-7.85-1.98-.45-3.97-.87-5.97-1.24-1.33-.25-2.83-.69-4.18-.64-1.6.06-3.23.4-4.82.59-7.6.93-15.2,1.87-22.81,2.8-5.61.69-11.23,1.3-16.83,2.07-.75.1-1.18.43-1.62,1.02l-3.36,4.4c-.37.48-.9.99-1.18,1.54-.21.41-.13.85-.12,1.32.03,1.33.04,2.66.07,3.99.14,6.41.71,13,3.75,18.77,4.04,7.67,11.78,11.77,20.06,13.37,2.97.57,5.98.87,9,1,.54.02,2.04-.93.92-1.16-5.27-1.12-10.55-2.25-15.82-3.37-.42-.09-1.06,0-1.34.36-.24.3-.25.67.21.77,5.27,1.12,10.55,2.25,15.82,3.37l.92-1.16c-10.66-.44-22.25-3.44-27.74-13.46-3.58-6.54-3.78-14.15-3.9-21.42-.01-.69-.21-1.65-.06-2.32-.09.37.22-.19.32-.33l.88-1.16c1.23-1.61,2.47-3.23,3.7-4.84l-1.01.54c7.75-.95,15.5-1.91,23.25-2.86l15.39-1.89,4.8-.59c1.1-.14,1.52-.1,2.59.07,12.78,2.13,25.37,5.89,37.75,9.61,6.33,1.9,12.63,3.89,18.88,6.03,3.94,1.35,7.99,2.65,11.75,4.47,1.12.54,2.11,1.29,3.19,1.91,1.9,1.09,3.83,2.12,5.64,3.36,5.05,3.46,8.61,8.39,9.4,14.56.26,2.04.23,4.1.02,6.14-.09.85,1.84.53,1.91-.2h0Z"/>
    <path class="cls-25" d="M319.22,894.55c2.28-1.73,1.37-.24.98-.35-.02,0-.02,0-.21,0-.39-.02-.79-.01-1.19-.02-1.27-.03-2.55-.07-3.82-.12-4.25-.15-8.51-.32-12.76-.49-9.91-.41-19.82-.84-29.72-1.36-1.53-.08-3.05-.16-4.58-.25-.46-.03-.93-.06-1.39-.09-.13-.01-.27-.02-.4-.03-.19-.02.02,0,.07.04-.39-.35-2.12.37-1.79.66.28.25,1.17.17,1.5.19,1.22.08,2.45.15,3.67.21,4.48.24,8.96.45,13.43.66,10.38.48,20.77.94,31.16,1.29,1.4.05,2.81.1,4.21.12.74.01,1.67.11,2.3-.37.77-.59-1.11-.37-1.47-.1h0Z"/>
    <path class="cls-26" d="M303.97,807.1c3.65-10.55,3.64-14.13,5.87-24.31-4.34.09-8.68.13-13.02.08-6.4-.07-12.8-.31-19.18-.77-5.8-.42-11.54-1.03-17.25-2.12-5.57-1.06-11.09-2.33-16.68-3.25-4.77-.78-9.03-1.34-13.87-1.06.2,8.61-5.14,15.79-6.48,20.07l-4.69,9.07-6.6,13.07c-2.43,4.53-4.52,12.77-5.2,17.85-8.47,62.72,52.42,58.22,52.42,58.22,0,0,9.82-18.79,12.3-22.21l5.32-6.48c1.67.34,8.58-9.94,14.06-14.07,11.75-8.84,31.36-9.16,31.36-9.16l-16.11-20.32-2.24-14.6Z"/>
    <path class="cls-32" d="M316.23,716.02c-9.55-10.75-14.57-9.44-14.57-9.44,6.17,9.88.84,11.43.84,11.43-8.77,4.66-31.88-.99-36.82-16l-6.11,3.16c-21.79,8.39-25.51,30.42-26.58,38.53-.68,5.2-1.91,22.33-2.19,36.69,4.82.24,7.37,1.16,11.99,2.46,5.92,1.67,11.72-4.72,17.59-2.88,2.82.89,6.36,2.64,9.25,3.29,2.92.67,9.96,2.12,12.94,2.42,6.45.66,7.76-3.03,14.25-2.82,3.41.11,7.41,6.48,10.83,6.24,1.22-4.61,2.21-5.29,3.79-10.9l-1.37-21.72c3.18.62,2.25,7.28,2.25,7.28,15.54-2.91,21.91-15.59,21.91-15.59,0,0-16.02-29.94-18-32.17Z"/>
    <path class="cls-26" d="M301.62,731.9c2.71-.84,3.65-1.27,4.95-3.8,3.78-7.37-2.01-16.04-4.92-21.52-.03-.06,1.7.16,1.69.1.68.15,1.53.36,2.53.67,2.12,1.96,3.59,4.56,4.82,7.16s2.19,5.15,3.05,7.81c1.4,4.35,2.58,8.7,3.1,13.23.51,4.5.52,9.05.03,13.55-.39,3.54-1.14,7.04-1.6,10.56,0,0-.02,0-.02,0l-3.81,18.35c-1.58,5.61-2.8,10.73-4.01,15.34-3.42.25-6.85.25-10.27.14-6.49-.2-12.95-.85-19.4-1.51-2.98-.3-5.9-.66-8.82-1.33-2.89-.66-5.73-1.49-8.56-2.37-5.87-1.84-12.09,6.42-18.01,4.75-4.63-1.31-8.99.77-13.81.53.27-14.36,3.76-44.85,4.44-50.05.99-7.53,4.28-27.07,22.2-36.53-2.51,2.61-4.9,5.32-6.98,8.29-2.63,3.77-4.62,7.91-5.93,12.31-2.25,7.51-2.96,16.38,2.76,22.57,1.53,1.65,3.38,2.92,5.34,3.99,2.15,1.18,4.47,2.17,6.88,2.65,4.19.84,9.31.16,11.97-3.54,2.16-3.01,1.98-7.02,1.72-10.53-.31-4.18-.74-8.35-1.41-12.48-1.39-8.54-30.08-5.38-25.59-12.89,3.96-6.64,11.48-10.04,11.24-10.37l8.57-4.17c1.54,2.02,2.87,4.19,3.9,6.54,1.27,2.87,10.3,11.36,12.89,13.1,3.41,2.3,7.35,7.7,12.75,9.57,0,0,4.15,1.18,8.32-.1Z"/>
    <path class="cls-26" d="M306.72,825.74c5.64,1.46,13.66,9.74,19.3,11.21,8.44,2.19,19.53,7.71,25.67,13.91.48.48.96,1.21.6,1.78-.27.41-.83.48-1.31.59-3.33.76-4.56,5.04-7.57,6.67-2.73,1.49-6.33.47-9.02,2.02-2.52,1.45-3.41,4.65-5.47,6.69-2.02,2-4.98,2.72-7.82,2.82s.39.5-2.45.59c-1.31.04-3.5,2.97-4.25,4.05-.88,1.28-1.06,2-1.22,3.55-.21,2.06.19,6.15-1.61,7.18-1.79,1.03-3.82,1.55-5.75,2.29-.83.32-1.71.74-2.13,1.53-.28.54-.3,1.17-.32,1.77-.04,1.55.55.73.51,2.27-11.93-.25-36.55-.33-48.48-.58,0,0,3.74-21.33,16.55-36.66,12.81-15.32,34.77-31.7,34.77-31.7Z"/>
    <circle class="cls-10" cx="551.37" cy="853.4" r="39.58"/>
    <path class="cls-53" d="M514.59,867.73c1.32,3.47,3.14,6.81,5.5,9.91,1.87,2.47,3.99,4.64,6.28,6.54,38.49-12.43,48.39-23.66,62.47-43.91-1.33-3.69-3.23-7.24-5.73-10.53-2.09-2.75-4.48-5.15-7.08-7.2-21.39,33.04-50.67,40.73-61.43,45.18Z"/>
    <rect class="cls-33" x="225.89" y="906.11" width="33.25" height="24.03"/>
    <polygon class="cls-11" points="259.13 930.14 267.64 925.58 267.64 901.55 259.13 906.11 259.13 930.14"/>
    <rect class="cls-18" x="250.76" y="925.51" width="33.25" height="24.03"/>
    <polygon class="cls-37" points="284.01 949.54 292.51 944.98 292.51 920.95 284.01 925.51 284.01 949.54"/>
    <polygon class="cls-60" points="250.76 925.51 259.27 920.95 292.51 920.95 284.01 925.51 250.76 925.51"/>
    <rect class="cls-19" x="299.89" y="922.23" width="33.25" height="24.03"/>
    <polygon class="cls-50" points="333.13 946.27 341.64 941.7 341.64 917.67 333.13 922.23 333.13 946.27"/>
    <polygon class="cls-15" points="299.89 922.23 308.4 917.67 341.64 917.67 333.13 922.23 299.89 922.23"/>
    <polygon class="cls-20" points="225.64 906.05 234.14 901.49 267.39 901.49 258.88 906.05 225.64 906.05"/>
    <rect class="cls-33" x="411.48" y="897.24" width="33.25" height="24.03"/>
    <polygon class="cls-11" points="444.01 921.27 452.52 916.71 452.52 892.67 444.01 897.24 444.01 921.27"/>
    <polygon class="cls-20" points="411.23 897.17 419.73 892.61 452.98 892.61 444.47 897.17 411.23 897.17"/>
    <path class="cls-27" d="M364.91,770.22l-60.24,8.68s-29.69-37.1-35.3-45.36c-6.9.04-13.8.1-20.57-1.45-1.36-.31-2.7-.87-4.05-1.52l6.97,26.86c11.22,13.95,29.29,43.44,45.67,47.4,20.27,4.91,71.74-22.25,71.74-22.25l-4.23-12.36Z"/>
    <path class="cls-32" d="M254.21,714.73c4.44-1.19,11.31,2.8,15.22,5.2s5.34,5.48,8.04,9.2c3.34,4.61,7.06,10.3,9.43,15.48.92,2.02,3.15,5.23,3.05,7.45,0,0-4.06,3.71-5.66,5.25-11.11,10.69-22.94,12.92-22.94,12.92l-3.89.37c-.46.04-.94.09-1.39-.06-.51-.17-.92-.56-1.29-.95-7.28-7.6-17.66-21.06-18.25-31.56,0,0,.34-18.67,17.67-23.3Z"/>
    <rect class="cls-19" x="381" y="756.19" width="33.25" height="24.03"/>
    <polygon class="cls-50" points="414.24 780.23 422.75 775.66 422.75 751.63 414.24 756.19 414.24 780.23"/>
    <polygon class="cls-15" points="381 756.19 389.5 751.63 422.75 751.63 414.24 756.19 381 756.19"/>
    <path class="cls-25" d="M303.65,778.61c-3.1,1.7-5.4,4.62-6.2,8.08-.11.46.55.61.87.58.44-.04.95-.28,1.05-.75.66-2.86,2.57-5.47,5.1-6.86.31-.17.75-.55.46-.94-.27-.36-.94-.31-1.29-.12h0Z"/>
    <rect class="cls-54" x="1292.73" y="496.95" width="12.78" height="95.75"/>
    <path class="cls-8" d="M1305,585.3c0,.34-2.68.6-6,.6s-6-.27-6-.6,2.7-.6,6-.6,6,.27,6,.6Z"/>
    <path class="cls-8" d="M1305.25,583.2c0,.34-2.68.6-5.98.6-3.3,0-6-.27-6-.6s2.68-.6,6-.6,5.98.2,5.98.6Z"/>
    <path class="cls-8" d="M1298.75,570.7c-.34,0-.6-10.97-.6-24.49,0-13.52.27-24.49.6-24.49s.59,10.97.59,24.49-.27,24.49-.59,24.49Z"/>
    <rect class="cls-2" x="1248.55" y="504.93" width="44.38" height="87.19"/>
    <path class="cls-31" d="M1293.39,582.26c0,.34-10.05.6-22.33.6-12.28,0-22.33-.27-22.33-.6s10.05-.6,22.33-.6c12.28,0,22.33.27,22.33.6Z"/>
    <path class="cls-31" d="M1292.78,574.42c0,.34-9.73.6-21.78.6-12.05,0-21.78-.27-21.78-.6s9.75-.6,21.78-.6c12.03,0,21.78.35,21.78.6Z"/>
    <rect class="cls-8" x="1305.88" y="504.83" width="32.08" height="87.42"/>
    <path d="M1305.52,511.13c5.45-.48,10.92-.65,16.39-.49,5.47-.16,10.94,0,16.39.49-5.45.49-10.92.65-16.39.49-5.47.16-10.94,0-16.39-.49Z"/>
    <path d="M1307.36,515.28c10.32-.65,20.67-.65,31,0-10.32.65-20.67.65-31,0Z"/>
    <path d="M1321.01,574.99c-.27,0-.49-11.58-.49-25.85s.22-25.87.49-25.87.49,11.58.49,25.87c0,14.29-.22,25.85-.49,25.85Z"/>
    <path d="M1305.9,582.98c10.46-.65,20.95-.65,31.41,0,0,.28-7.04.5-15.72.5-8.68,0-15.7-.22-15.7-.5Z"/>
    <path d="M1305.9,586.74c5.35-.49,10.73-.65,16.1-.49,5.37-.16,10.75,0,16.1.49-5.35.48-10.73.65-16.1.49-5.37.16-10.75,0-16.1-.49Z"/>
    <rect class="cls-46" x="1171.53" y="497.17" width="12.78" height="95.75" transform="translate(-113.14 411.89) rotate(-18.94)"/>
    <path d="M1196.6,581.41c.11.32-2.34,1.44-5.46,2.51s-5.76,1.69-5.87,1.38,2.34-1.44,5.48-2.52,5.74-1.69,5.85-1.37Z"/>
    <path d="M1196.17,579.35c.11.32-2.34,1.44-5.48,2.52-3.14,1.08-5.74,1.69-5.85,1.37s2.34-1.44,5.46-2.51c3.12-1.07,5.76-1.69,5.87-1.38Z"/>
    <rect class="cls-52" x="1085.81" y="496.55" width="25.58" height="95.75"/>
    <rect class="cls-14" x="1111.75" y="505.15" width="44.38" height="87.19"/>
    <path class="cls-5" d="M1154.61,519.62c0,.34-9.62.6-21.48.6-11.86,0-21.48-.27-21.48-.6s9.62-.59,21.48-.59,21.48.27,21.48.59Z"/>
    <path class="cls-5" d="M1155.16,526.24c0,.34-9.5.6-21.21.6s-21.21-.27-21.21-.6,9.5-.6,21.21-.6c11.71,0,21.21.2,21.21.6Z"/>
    <path class="cls-5" d="M1156.58,582.48c0,.34-10.05.6-22.33.6-12.28,0-22.33-.27-22.33-.6s10.05-.6,22.33-.6c12.28,0,22.33.27,22.33.6Z"/>
    <path class="cls-5" d="M1156.05,574.71c0,.34-9.73.6-21.78.6-12.05,0-21.78-.27-21.78-.6s9.73-.6,21.78-.6c12.05,0,21.78.32,21.78.6Z"/>
    <rect class="cls-29" x="916.15" y="354.39" width="33.29" height="90.69"/>
    <path class="cls-43" d="M949.44,435.5c0,.28-7.29.5-16.28.5s-16.3-.22-16.3-.5c0-.28,7.29-.5,16.3-.5,9.01,0,16.28.22,16.28.5Z"/>
    <path class="cls-43" d="M949.44,439.39c0,.28-7.47.5-16.75.5s-16.75-.22-16.75-.5c5.57-.5,11.16-.67,16.75-.5,5.59-.16,11.18,0,16.75.5Z"/>
    <rect class="cls-54" x="1019.61" y="349.42" width="12.78" height="95.75"/>
    <rect class="cls-8" x="949.49" y="348.8" width="25.58" height="96.7"/>
    <rect class="cls-14" x="975.08" y="357.39" width="44.73" height="87.19"/>
    <path class="cls-21" d="M1018.28,371.88c0,.34-9.62.6-21.48.6s-21.48-.27-21.48-.6,9.62-.6,21.48-.6c11.86,0,21.48.27,21.48.6Z"/>
    <path class="cls-21" d="M1018.84,378.48c0,.34-9.5.6-21.21.6s-21.19-.27-21.19-.6,9.48-.6,21.19-.6c11.71,0,21.21.27,21.21.6Z"/>
    <path class="cls-21" d="M1020.26,434.73c0,.34-10.05.6-22.33.6-12.28,0-22.33-.27-22.33-.6s10.05-.6,22.33-.6c12.28,0,22.33.27,22.33.6Z"/>
    <path class="cls-21" d="M1019.66,426.99c0,.34-9.73.6-21.78.6-12.05,0-21.78-.27-21.78-.6s9.75-.6,21.78-.6,21.78.23,21.78.6Z"/>
    <rect class="cls-54" x="1283.19" y="642.09" width="12.78" height="95.75" transform="translate(347.84 -429.05) rotate(21.77)"/>
    <path d="M1297.04,655.45c-.12.31,2.27,1.55,5.35,2.78,3.08,1.23,5.65,1.97,5.78,1.66s-2.27-1.55-5.33-2.78-5.68-1.94-5.79-1.66Z"/>
    <path d="M1297.57,653.42c-.12.31,2.27,1.55,5.35,2.78s5.67,1.98,5.79,1.66-2.27-1.55-5.35-2.78-5.67-1.98-5.79-1.66Z"/>
    <path d="M1269.12,725.37c-.12.31,2.27,1.55,5.35,2.78s5.65,1.97,5.78,1.66-2.27-1.55-5.33-2.78-5.67-1.98-5.79-1.66Z"/>
    <path d="M1269.64,723.34c-.12.31,2.27,1.55,5.35,2.78s5.67,1.98,5.79,1.66-2.27-1.55-5.35-2.78c-3.08-1.23-5.67-1.98-5.79-1.66Z"/>
    <path d="M1280.34,714.14c.31.12,4.62-9.95,9.64-22.51,5.01-12.56,8.84-22.85,8.52-22.97s-4.62,9.95-9.64,22.52c-5.02,12.57-8.83,22.83-8.52,22.96Z"/>
    <rect class="cls-24" x="1312.42" y="650.08" width="44.38" height="87.19"/>
    <path class="cls-40" d="M1313.93,664.56c0,.34,9.62.6,21.48.6,11.86,0,21.5-.27,21.5-.6s-9.62-.6-21.5-.6c-11.88,0-21.48.28-21.48.6Z"/>
    <path class="cls-40" d="M1313.37,671.18c0,.34,9.5.6,21.21.6,11.71,0,21.21-.27,21.21-.6s-9.5-.6-21.21-.6c-11.71,0-21.21.27-21.21.6Z"/>
    <path class="cls-40" d="M1311.95,727.42c0,.32,10.05.6,22.33.6s22.33-.28,22.33-.6-10.05-.6-22.33-.6c-12.28,0-22.33.27-22.33.6Z"/>
    <path class="cls-40" d="M1312.55,719.65c0,.34,9.75.6,21.78.6,12.03,0,21.78-.27,21.78-.6s-9.73-.6-21.78-.6c-12.05,0-21.78.27-21.78.6Z"/>
    <rect class="cls-8" x="1224.71" y="649.97" width="32.08" height="87.42"/>
    <path d="M1257.17,656.28c-5.45-.48-10.92-.65-16.39-.49-5.47-.16-10.94,0-16.39.49,5.45.48,10.92.65,16.39.49,5.47.16,10.94,0,16.39-.49Z"/>
    <path d="M1255.39,660.42c-5.15-.49-10.33-.65-15.5-.49-5.17-.16-10.35,0-15.5.49,5.15.49,10.33.65,15.5.49,5.17.16,10.35,0,15.5-.49Z"/>
    <path d="M1241.67,720.18c.27,0,.49-11.58.49-25.87s-.22-25.85-.49-25.85-.42,11.51-.42,25.82.15,25.9.42,25.9Z"/>
    <path d="M1256.8,728.14c-5.22-.48-10.46-.65-15.7-.49-5.24-.16-10.49,0-15.72.49,5.22.48,10.47.65,15.72.49,5.24.16,10.48,0,15.7-.49Z"/>
    <path d="M1256.8,731.91c-5.35-.49-10.73-.65-16.1-.49-5.37-.16-10.75,0-16.1.49,5.35.49,10.73.65,16.1.49,5.37.16,10.75,0,16.1-.49Z"/>
    <rect class="cls-29" x="950.87" y="519.96" width="42.15" height="72.65"/>
    <rect class="cls-43" x="918.83" y="503.05" width="33.24" height="89.53"/>
    <path class="cls-2" d="M962.36,579.65c-.28,0-.5-9.15-.5-20.44s.22-20.44.5-20.44.5,9.15.5,20.44-.22,20.44-.5,20.44Z"/>
    <path class="cls-2" d="M967.97,579.65c-.28,0-.5-9.15-.5-20.44,0-11.29.22-20.44.5-20.44s.5,9.15.5,20.44c0,11.29-.22,20.44-.5,20.44Z"/>
    <rect class="cls-56" x="1046.67" y="280.9" width="18.78" height="473.78"/>
    <rect class="cls-56" x="1203.84" y="280.9" width="18.78" height="473.78"/>
    <rect class="cls-56" x="897.86" y="280.9" width="18.78" height="510.14"/>
    <rect class="cls-56" x="903.33" y="444.58" width="495.52" height="19.75"/>
    <rect class="cls-56" x="916.5" y="591.78" width="481.93" height="19.12"/>
    <rect class="cls-56" x="907.25" y="736.62" width="491.19" height="19.12"/>
    <rect class="cls-56" x="897.86" y="294.71" width="324.43" height="19.12"/>
    <rect class="cls-14" x="1070.69" y="711.03" width="84.91" height="24.39"/>
    <path class="cls-8" d="M1078.68,733.75c-.67-7.43-.67-14.92,0-22.35.28,0,.52,5.03.52,11.17s-.23,11.17-.52,11.17Z"/>
    <path class="cls-8" d="M1082.42,733.75c-.28,0-.52-5.03-.52-11.17s.23-11.17.52-11.17c.67,7.43.67,14.92,0,22.35h0Z"/>
    <path class="cls-8" d="M1142.4,733.75c-.67-7.43-.67-14.92,0-22.35.28,0,.5,5.03.5,11.17s-.22,11.17-.5,11.17Z"/>
    <path class="cls-8" d="M1145.75,733.75c-.28,0-.5-5.03-.5-11.17,0-6.15.22-11.17.5-11.17s.5,5.03.5,11.17c0,6.15-.22,11.17-.5,11.17Z"/>
    <path class="cls-8" d="M1136.63,722.8c0,.28-11.01.5-24.58.5s-24.59-.22-24.59-.5,11.01-.5,24.59-.5c13.59,0,24.58.22,24.58.5Z"/>
    <rect class="cls-54" x="1077.63" y="686.66" width="84.91" height="24.39"/>
    <path class="cls-8" d="M1085.62,709.38c-.28,0-.5-5.03-.5-11.17s.22-11.17.5-11.17.5,5.03.5,11.17-.22,11.17-.5,11.17Z"/>
    <path class="cls-8" d="M1089.34,709.38c-.28,0-.5-5.03-.5-11.17s.22-11.17.5-11.17.5,5.03.5,11.17-.22,11.17-.5,11.17Z"/>
    <path class="cls-8" d="M1149.33,709.38c-.28,0-.5-5.03-.5-11.17,0-6.15.22-11.17.5-11.17.67,7.43.67,14.92,0,22.35h0Z"/>
    <path class="cls-8" d="M1152.69,709.38c-.28,0-.52-5.03-.52-11.17s.23-11.17.52-11.17c.67,7.43.67,14.92,0,22.35h0Z"/>
    <path class="cls-8" d="M1143.57,698.42c0,.28-11.02.5-24.59.5s-24.59-.22-24.59-.5,11.01-.5,24.59-.5c13.59,0,24.59.23,24.59.5Z"/>
    <rect class="cls-8" x="1072.7" y="678.48" width="105.15" height="8.18"/>
    <path d="M1080.51,686.14c-.28,0-.5-1.68-.5-3.62s.22-3.62.5-3.62.5,1.68.5,3.62-.23,3.62-.5,3.62Z"/>
    <path d="M1171.27,686.14c-.27,0-.5-1.68-.5-3.62s.23-3.62.5-3.62.52,1.68.52,3.62-.23,3.62-.52,3.62Z"/>
    <path d="M1167.14,682.52c0,.28-18.28.5-40.83.5-22.55,0-40.81-.22-40.81-.5s18.28-.5,40.81-.5c22.53,0,40.83.23,40.83.5Z"/>
    <g>
      <rect class="cls-32" x="1252.92" y="370.5" width="59.25" height="72.31"/>
      <path class="cls-16" d="M1251.62,371.37c6.68,0,13.36,0,20.04,0h39.2l-.72-.33v24.47c0,12.99,0,25.97,0,38.96v8.88l3.34-1.41h-59.25l.72.33v-24.47c0-12.99,0-25.97,0-38.96v-8.88c0-.74-4.06-.14-4.06,1.09v24.47c0,12.99,0,25.97,0,38.96v8.88c0,.25.61.33.72.33h59.25c.78,0,3.34-.27,3.34-1.41v-24.47c0-12.99,0-25.97,0-38.96v-8.88c0-.25-.61-.33-.72-.33h-20.04c-10.64,0-21.28,0-31.92,0h-7.29c-.96,0-2.08.18-2.87.77-.56.42-.61.97.26.97Z"/>
    </g>
    <rect class="cls-4" x="1267.22" y="384.5" width="30.89" height="45.9"/>
    <path class="cls-42" d="M1267.1,399.28c1.58.1,3.14.52,4.54,1.26,3.79,2,6.29,6.09,10.3,7.6,3.06,1.15,6.56.57,9.51-.83,2.39-1.13,4.5-2.77,6.53-4.48v-19.71h-30.89v16.15Z"/>
    <path class="cls-12" d="M296.12,680.04c-3.54,1.03-9.38,2.3-9.38,2.3,0,0,2.24,9.7,12,6.69,8.16-2.52,5.74-11.67,5.74-11.67,0,0-4.83,1.65-8.36,2.68Z"/>
    <path class="cls-39" d="M296.16,680.03c-1.68.49-7.96,2.25-7.96,2.25,0,0,3.4,4.94,9.48,3.17,6.59-1.92,5.77-7.15,5.77-7.15l-7.29,1.73Z"/>
    <path class="cls-17" d="M296.41,680.63c-1.68.49-6.88,1.71-6.88,1.71,0,0,2.36,1.23,7.4-.24,5.04-1.47,6.14-3.65,6.14-3.65l-6.67,2.18Z"/>
    <path class="cls-12" d="M304.44,677.32c-.05-.18-.44-.15-1.3.02-1.42.29-2.02-.07-3.05.15-1.76.37-2.66,1.35-3.41,1.56s-2.03-.12-3.72.51c-.99.37-3.38,1.45-4.74,1.97-.81.31-1.88.29-2.05.38-.23.13,1.01,2.24,10.42-.5s7.91-3.84,7.84-4.09Z"/>
    <path class="cls-27" d="M766.11,115.49s.17,26.23,7.43,40.18c1.16,2.24,14.13,6.4,14.13,6.4l-2.8,4.31c-2.41,3.72-7.63,7.3-11.44,9.59-18.93,11.39-47.16,17.85-58.3,6.85l3.82-9.13s2.96-3.53,3.15-6.5c.19-2.97-6.62-24.92-6.62-24.92"/>
    <path class="cls-51" d="M769.09,125.67c0,.05,0,.1.01.15.01-.07.01-.12-.01-.15Z"/>
    <path class="cls-27" d="M737.96,162.37l-17.44,2.25-8.99-.51c-.88.16-6.19-8.08-6.97-9.11-2.45-3.18-5.64-7.36-7.42-10.97-1.91-3.87-5.07-6.96-6.51-11.76-1.05-3.51-1.49-6.02-.54-12.19.24-1.57,0-3.05-.63-4.59-1.34-3.23-2.28-7.12-3.99-11.46-.13-.34-.84-1.98-.76-2.39,0,0-3.95-18.65-1.69-25.94,2.27-7.29,6.81-11.22,11.54-13.33,4.73-2.1,19.46-3.67,19.46-3.67l19.67-6.28,18.56,5.59,12.2,19.34,2.81,24.36,1.05,22.01"/>
    <path class="cls-47" d="M761.25,100.89c.21,1.88-.56,11.58-.47,13.44l9.63-1.8c1.84-6.89,4.08-15,4.9-16.9,1.28-2.97-5.88-15.43-6.6-20.34l-.15-1.06c-.67-4.71-6.4-11.42-15.33-17.94-15.36-11.22-14.74-11.48-34.74-6.67-1.38.33-2.74.71-4.05,1.14-12.41,4-23.07,5.58-29.41,17.59-4.57,8.66-1.75-1.73-.37,3.53-1.41-10.61-1.98-1.58-1.09-3,5.19-8.33,9.63-1.1,12.68-2.09,2.66-.86,4.83-.47,5.26-.37,3.21.18,6.12-.71,9.31-1.74,2.37-.76,8.29-3.18,8.8-3.38,1.45-1.41-1.03-7.53,1.92-8.48,6.85-2.21,16.95-.71,20.6.3,4.31,1.2,14.56,3.64,15.02,14.6"/>
    <path class="cls-27" d="M766.6,126.53c6.69,6.82,8.44-6.93,8.44-6.93,4.26-7.52,2.99-14.48,1.93-19.21-1.06-4.72-6.28-3.7-6.28-3.7-4.36,1.29-5.91,4.04-6.91,19.71"/>
    <path class="cls-47" d="M698.33,62.06c7.23-1.32,25.43-9.46,35.17-11.7,4.03-.93,19.21,6.93,21.34,8.93,4.89,4.59-2.43,18.2,7.28,33.82,3.21,5.16,4.83-5.07,8.34-1.92,3.5,3.15,4.85,4.43,4.85,4.43-.5-16.4-.46-15.83-6.61-31.09-6.13-15.22-24.5-19.3-33.06-19.26-8.56.04-34.9,7.09-41.59,11.65"/>
    <path d="M726.47,105.19c1-.78,2.38-.53,3.23-.02.2.12.74.46,1.09,1.15.45.88.27,2-.19,2.75-.62,1-1.89,1.39-2.97,1.11-1.47-.38-2.21-1.92-2.1-3.17.02-.23.14-1.19.95-1.82"/>
    <path d="M694.64,111.37c-1.21-.37-2.41.37-3.02,1.15-.14.18-.52.7-.6,1.46-.1.98.47,1.96,1.17,2.49.94.71,2.26.61,3.17-.04,1.23-.88,1.37-2.59.81-3.71-.1-.2-.56-1.06-1.54-1.36"/>
    <path d="M704.61,113.84s-5.28-3.62-8.59-3.31c-4.83.45-5.85,1.75-7.13,4.24,0,0,2.69-2.86,6.1-3.08,3.26-.22,9.62,2.15,9.62,2.15Z"/>
    <path d="M719.83,109.79s5.87-5.45,9.13-6.15c4.75-1.02,10.96.73,12.92,2.73,0,0-8.27-2.74-11.59-1.93-3.18.77-10.46,5.35-10.46,5.35Z"/>
    <path d="M715.22,93.27c.21,1.13.43,2.27.65,3.41.17.87.48,2.85.65,3.72,2.59-1.24,4.85-2.8,6.55-3.44,3.38-1.28,6.8-2.83,10.44-2.95,1.74-.06,3.31.1,4.89.71.5.19,1.93,1.16,2.54.73.25-.18-.46-1.49-.53-1.62-1.45-2.64-4.06-3.36-7.1-3.49-6.21-.25-12.17,1.03-18.08,2.94"/>
    <path d="M683.93,100.19s1.9-.76,1.92-.77c5.32-2.16,10.89-2.8,16.61-2.82.16,1.14.32,2.29.48,3.44.12.87.4,2.44.51,3.31-2.63-.38-4.94-.94-6.62-1.02-3.33-.16-6.84-.38-10.04.64-.25.08-1.62.54-1.86.63-1.27-1.43-1.43-3.1-1-3.41Z"/>
    <path d="M725.04,148l-12.36,1.65s3.77,4.21,6.76,3.65c1.87-.35,4-2.83,5.6-5.31Z"/>
    <g>
      <path class="cls-9" d="M711.78,131.79c1.53.49,3.63-.09,4.87-1.24.28-.26,1.35-.26.96.1-1.64,1.52-4.67,2.2-6.65,1.58-.2-.06-.19-.21.02-.33.22-.12.59-.18.8-.11"/>
      <path class="cls-9" d="M718.14,130.13c.85-.63,1.86-1.06,2.89-1.34.15-.04.36-.02.49.06.1.06.14.17.04.26-.43.38-1.03.61-1.59.7-.18.03-.42.03-.55-.11-.12-.13.03-.25.17-.28.47-.08.93-.26,1.29-.57.18.11.36.21.53.32-.92.25-1.82.65-2.58,1.21-.15.11-.4.1-.57.04-.12-.05-.27-.18-.12-.3"/>
      <path class="cls-9" d="M722.34,129.49c1.22-.26,2.56-1.08,2.99-2.14.64-1.6-.62-3.65-2.32-4.28-.19-.07-.12-.21.04-.28.21-.09.49-.05.68.02,1.48.55,2.69,2.19,2.74,3.57.05,1.29-.97,2.38-2.37,3.02-.42.19-.87.35-1.33.45-.19.04-.53.04-.65-.09-.12-.13.04-.23.21-.27"/>
      <path class="cls-9" d="M709.41,131.58c.04-.16-.1-.23-.2-.21-.33.07-.69.04-1.01-.14-.08.16-.17.31-.25.47.68-.05,1.38.05,2.05.34.13.06.29-.03.38-.14.07-.08.12-.26-.01-.32"/>
      <path class="cls-9" d="M710.38,131.59c-.75-.33-1.54-.43-2.3-.37-.11,0-.24.09-.3.21-.05.09-.04.2.05.26"/>
      <path class="cls-9" d="M706.89,132.22c-.8.12-1.85-.25-2.42-1.13-.86-1.32-.62-3.12.2-4.21.09-.12,0-.24-.11-.25-.15-.02-.31.09-.4.22-.72.96-1.04,2.35-.66,3.67.36,1.23,1.28,1.96,2.31,2.14.3.05.62.07.92.03.12-.02.33-.12.36-.28.03-.16-.09-.21-.21-.19"/>
    </g>
    <g>
      <path d="M694.98,65.72c.45-.53,1.25-.82,1.99-1.08l.78-.4c2.44-.44,4.89-.8,7.35-1.09.62-.07,1.26-.14,1.83,0,.06.01.12.03.18.05,1.8-.37,3.6-.72,5.41-1.02l.87.08c.79-.02,1.63-.03,2.22.26.59.29.73,1.01.05,1.35-.7.36-1.86.15-2.31.65-.49.56.7,1.06.46,1.67-.15.38-.79.6-1.17.92-.46.38-.55.88-.97,1.28-.43.4-1.21.64-1.88.57-.68.17-1.64.05-1.78.55-.04.14.02.27.05.4.12.52-.23,1.11-.83,1.43-.6.32-1.42.34-1.97.05-.54-.28-.8-.8-1.37-1.04-.18-.08-.38-.13-.58-.18-.14.19-.34.36-.57.48-.6.32-1.42.34-1.97.05-.54-.28-.8-.8-1.37-1.04-.48-.21-1.15-.22-1.43-.58-.44-.57.49-1.55-.17-1.98-.6-.39-1.61.25-2.4.12-.75-.13-.89-.96-.44-1.49Z"/>
      <path d="M696.28,65.59c.47-.47,1.03-.57,1.61-.84.15-.07.31-.15.45-.23.62-.36-1.02.15-.3.12,1.6-.07,3.27-.54,4.86-.74.77-.1,1.58-.28,2.36-.26.7.02,1.23.12,1.95-.01,1.68-.32,3.34-.66,5.03-.94l-.92.05c.71.07,1.43.04,2.13.1s.86.23,1.2.74l-.07.26c.77-.22.97-.3.59-.24-.23-.01-.51.06-.74.1-.7.13-2.34.44-2.6,1.27-.25.77,1.03,1.11.27,1.77-.35.3-.75.45-1.06.82-.14.17-.32.38-.4.59-.25.22-.26.3-.03.26.24,0,.19,0-.17.01-1.05.14-2.18.23-3.14.74-.32.17-.64.37-.73.75-.03.14.05.27.05.4,0,.04-.16.83-.19.77l.56-.05c-.18-.02-.34-.09-.48-.19-.21-.12-.37-.3-.55-.46-.45-.4-.87-.59-1.45-.75-.65-.17-2.05.16-2.5.67-.26.22-.21.26.16.11.38-.03.43-.07.14-.13-.13-.14-.47-.25-.65-.4-.38-.32-.68-.62-1.15-.79-.39-.14-1-.15-1.19-.58-.16-.36.15-.82.16-1.18.02-.89-.92-.95-1.62-.89-.34.03-1.14.33-1.42.18-.45-.25-.26-.84-.05-1.15.28-.41-1.05-.24-1.15-.23-.53.09-1.37.28-1.71.76-.96,1.38.66,1.89,1.77,1.77.19-.02,1.07-.32,1.22-.23-.15-.09.05.4.06.47.06.57-.45,1.04,0,1.57s1.37.45,1.92.9c.52.42.89.82,1.58.95,1.44.27,3.53-.26,4.52-1.37l-2.5.67c.86.23,1.29,1.02,2.12,1.3s1.75.14,2.56-.06,1.62-.5,2.2-1.07c.24-.23.43-.51.5-.84.05-.22-.11-.8.07-.93l-.82.42c-.84.31-.13.07.15.03,1.11-.14-.44,0,.56-.04.68-.03,1.36-.2,2-.43.53-.19,1.1-.45,1.53-.84s.63-.97,1.09-1.35c.66-.55,1.57-.81,1-1.79-.06-.11-.23-.41-.33-.49-.02-.27-.19-.29-.5-.05-.55.11-.61.14-.2.08.64-.06,1.28-.19,1.89-.41.68-.24,1.99-.81,1.53-1.74s-1.98-.8-2.79-.81c-.91-.01-1.73-.03-2.65.12-1.55.27-3.09.57-4.64.89l.92-.05c-1.3-.4-2.81-.04-4.12.13-1.48.19-2.95.41-4.42.65-1.16.19-2.25.37-3.31.88-.97.46-2,.74-2.78,1.52-.45.45.4.44.67.42.59-.05,1.5-.24,1.94-.68Z"/>
    </g>
    <path d="M711.73,162.72c.48.29,1.17.31,1.81.32l.7.11c1.99-.29,3.96-.63,5.92-1.04.49-.1,1-.21,1.41-.47.04-.03.08-.06.12-.09,1.48-.18,2.95-.37,4.42-.6l.64-.28c.61-.18,1.26-.39,1.64-.76.38-.37.3-.96-.3-1.05-.63-.1-1.47.36-1.94.09-.52-.3.27-1-.07-1.4-.21-.25-.76-.26-1.13-.41-.45-.17-.65-.54-1.07-.73-.43-.2-1.09-.18-1.59.04-.56.04-1.27.38-1.51.03-.06-.1-.05-.21-.06-.32-.04-.43-.46-.79-1-.88-.54-.09-1.18.1-1.53.46-.34.35-.41.82-.79,1.15-.12.1-.26.2-.4.29-.16-.11-.35-.19-.56-.22-.54-.09-1.18.1-1.53.46-.34.35-.41.82-.79,1.15-.31.28-.83.46-.95.81-.2.55.77,1.07.38,1.57-.36.45-1.3.22-1.87.52-.55.29-.44.97.05,1.26Z"/>
    <g>
      <path d="M774.52,96.78c.74-.15,1.51-.31,2.09-.79.58-.48.9-1.37.49-2-.64-1-2.64-.89-2.7-2.08.79-1.29,3.17-1.19,3.51-2.67.27-1.2-1.09-2.06-2.23-2.52.63-.81.5-.14,1.45-.54.94-.4,1.13-2.85.45-3.61-.77-.86-1-.04-.8-1.18.74-.36-1.07-.77-.56-1.42.51-.65.66-1.66.13-2.29-.65-.75-.65-1.39-.78-2.38-.11-.84-1.78-.74-1.38-1.49.73-1.37-.75-2.83-2.04-3.67.6-.55-.23-.57.08-1.32.32-.75.25-1.73-.37-2.25-.38-.32-.9-.41-1.33-.66-1.78-1.02-1.2-3.69-.39-5.58-1.39.35-2.97-.55-3.4-1.92-.2-.65-.17-1.37-.5-1.95-.33-.59-1.3-.88-1.65-.3"/>
      <path d="M774.58,97.01c.86-.18,1.82-.39,2.46-1.04.5-.5.8-1.31.48-1.98-.26-.55-.86-.81-1.39-1.04-.41-.17-1.75-.62-1.18-1.25.86-.96,2.51-.85,3.17-2.06.84-1.54-1.07-2.65-2.23-3.14l.09.33c.26-.32.26-.21.65-.25.33-.03.68-.16.94-.36.5-.4.7-1.11.76-1.72s.04-1.36-.3-1.9c-.17-.27-.45-.51-.75-.64-.05-.02-.23-.08-.22-.07-.02-.03.07-.44.08-.51l-.21.23c1.1-.62-.59-.94-.37-1.58.12-.37.39-.63.46-1.04.06-.33.04-.69-.09-1.01s-.4-.57-.57-.87c-.2-.36-.28-.75-.34-1.15-.08-.59-.07-1.04-.6-1.38-.22-.14-.47-.2-.68-.34-.3-.18-.22-.27-.1-.59.57-1.55-1.08-2.92-2.2-3.68l.02.29c.22-.23.34-.42.23-.73-.05-.15-.16-.26-.16-.43,0-.25.18-.53.22-.79.2-1.09-.35-1.88-1.33-2.29-1.1-.46-1.68-1.19-1.7-2.41-.02-1.1.33-2.2.75-3.21.11-.27-.24-.3-.41-.26-.83.18-1.72-.14-2.32-.74-.68-.67-.7-1.47-.91-2.35-.15-.64-.48-1.16-1.14-1.36-.51-.15-1.09-.03-1.42.41-.27.37.42.43.61.19.25-.34.72-.02.92.24.26.34.32.81.39,1.22.12.69.29,1.31.76,1.84.82.91,2.05,1.26,3.23,1.01l-.41-.26c-.64,1.52-1.4,3.86-.17,5.3.7.81,2.12.77,2.39,1.94.07.32.06.66-.03.98-.06.22-.18.43-.19.67,0,.35.34.56.06.85-.09.09-.09.22.02.29.84.57,1.87,1.37,2.1,2.42.11.48-.11.74-.19,1.18-.04.24.02.39.2.55.49.42,1.14.35,1.25,1.11.06.41.09.83.21,1.23.15.45.43.75.67,1.15.27.45.24,1.03.03,1.5-.12.28-.43.53-.38.86.07.47.72.53.82.92,0,.03-.02-.15-.05-.01,0,.02-.1.1-.11.12-.07.11-.07.31-.08.45-.01.2-.02.35.16.47.19.13.41.14.6.31.28.26.4.6.46.97.11.66.09,1.91-.51,2.37-.3.22-.61.06-.93.13s-.55.31-.75.56c-.11.14-.07.26.09.33.69.29,1.48.68,1.89,1.34s.2,1.36-.42,1.77c-.87.58-2.18.73-2.79,1.68s1.11,1.47,1.68,1.73c.65.29,1.23.73,1.05,1.53-.25,1.1-1.47,1.36-2.42,1.55-.46.09-.33.55.12.46h0Z"/>
    </g>
    <g>
      <path d="M765.66,59.34c-.33-.86-1.8-4.99-2.13-5.86-1.06.61-2.62-.09-2.86-1.29-.12-.6-.04-1.38-.58-1.65-.56-.28-1.17.28-1.79.35-1.38.14-1.91-2.06-3.27-2.34-.85-.18-1.7.48-2.56.34-1.3-.21-1.78-2.04-3.05-2.38-.88-.23-1.79.35-2.7.24-1.96-.23-3.02-2.91-4.98-2.64-.72.1-1.31.68-2.03.73-1.29.08.41-1.54-.89-1.53-1.19,0-1.93,1.38-3.08,1.68-1.87.49-3.62-2.49-5.28-1.51-.71.43-1,1.35-1.69,1.81-1.63,1.06-3.81-1.18-5.61-.45-.9.36-1.43,1.4-2.37,1.67-1.46.41-2.88-1.25-4.35-.92-1.18.27-1.86,1.72-3.06,1.83-.84.08,1.07-1.15.23-1.15-1.44,0-2.26,1.72-3.61,2.23-1.13.42-2.37-.08-3.58-.2-1.2-.11-3.41,2.54-3.27,3.74"/>
      <path d="M766.03,59.24c-.75-1.94-1.39-3.92-2.13-5.86-.08-.2-.37-.19-.53-.11-.69.35-1.54.08-2.01-.51s-.27-1.33-.57-1.97c-.23-.49-.72-.66-1.24-.57-.71.12-1.25.65-1.92.15-.87-.65-1.3-1.88-2.47-2.09-.85-.15-1.59.39-2.41.35-.73-.04-1.19-.72-1.62-1.22-.36-.43-.76-.86-1.29-1.07-.76-.3-1.53-.04-2.3.1-1.51.28-2.47-1-3.54-1.84-1.02-.8-2.09-.97-3.27-.4-.22.1-.89.54-1.11.37-.11-.08-.02-.31,0-.42.06-.28.19-.63-.03-.88-.29-.34-.93-.24-1.3-.13-.61.18-1.1.61-1.59,1-.59.46-1.15.79-1.9.53-.58-.2-1.09-.58-1.61-.9-.87-.55-1.89-1.05-2.88-.49-.58.33-.89.91-1.3,1.4-.55.67-1.19.72-1.99.51-1.2-.32-2.42-1.02-3.7-.67-.63.17-1.1.59-1.57,1.02-.3.27-.62.6-1.02.71-.44.13-.91-.03-1.33-.19-1.23-.48-2.4-1.18-3.7-.46-.57.32-1,.82-1.52,1.19-.15.11-.3.21-.47.27-.04.01-.28.06-.3.08-.02.03.12.14.13.13.1-.05.26-.31.34-.41.15-.17.42-.46.27-.7-.2-.32-.88-.15-1.14-.07-1.39.42-2.12,2.08-3.59,2.27-1.38.17-2.74-.76-4.04-.02-.98.56-1.81,1.54-2.3,2.54-.19.39-.33.8-.3,1.24.02.32.76.15.74-.2-.07-1.07,1.07-2.31,1.84-2.91.55-.43.89-.49,1.57-.37.87.15,1.74.38,2.63.22,1.44-.25,2.1-1.55,3.33-2.17.14-.07.41-.09.53-.17h.14c-.06-.14-.1-.16-.13-.07-.11.11-.2.25-.3.36-.15.17-.46.46-.3.71s.69.13.91.07c.63-.18,1.11-.62,1.6-1.04.62-.53,1.17-.9,2.02-.66.72.2,1.36.62,2.09.82.55.15,1.13.16,1.66-.06.69-.28,1.13-.87,1.71-1.31,1.24-.93,2.76.12,4.06.4,1.18.26,2.16-.09,2.89-1.06.38-.5.77-1.22,1.5-1.13.6.08,1.15.5,1.65.82.91.58,1.92,1.18,3.04.81.59-.2,1.07-.61,1.55-.99.26-.21,1.46-1.09,1.44-.35,0,.28-.2.55-.13.83.1.38.51.44.85.42.73-.05,1.27-.55,1.95-.71s1.34.26,1.86.68c.91.73,1.74,1.72,2.96,1.93.81.14,1.53-.23,2.32-.27.87-.04,1.37.65,1.88,1.24.37.44.78.89,1.33,1.1.81.29,1.54-.1,2.33-.24,1.51-.28,1.97,1.74,3.18,2.23.67.27,1.17-.05,1.81-.21,1.16-.3.83,1.22,1.16,1.89.57,1.17,2.13,1.55,3.24.98l-.53-.11c.75,1.94,1.39,3.92,2.13,5.86.12.32.86.11.74-.2h0Z"/>
    </g>
    <g>
      <path d="M744.85,51.03c7.34,1.69,10.54,3.72,14.94,9.83l-41.75-8c2.81-1.03,5.64-1.84,8.46-2.15,7.49-.8,11.01-1.37,18.35.31Z"/>
      <path d="M744.62,51.23c2.97.69,5.97,1.56,8.54,3.26s4.51,4.07,6.28,6.52l.57-.34c-4.73-.91-9.45-1.81-14.18-2.72-7.48-1.43-14.95-2.87-22.43-4.3-1.71-.33-3.43-.66-5.14-.98l-.08.34c2.46-.9,4.98-1.66,7.58-2.01,2.18-.3,4.39-.51,6.58-.69,4.17-.34,8.2-.01,12.28.92.23.05.87-.29.46-.39-3.29-.75-6.62-1.19-10-1.08-1.59.05-3.19.2-4.77.36-1.98.2-3.98.36-5.93.73-2.21.43-4.37,1.1-6.48,1.87-.16.06-.36.28-.08.34,4.73.91,9.45,1.81,14.18,2.72,7.48,1.43,14.95,2.87,22.43,4.3,1.71.33,3.43.66,5.14.98.14.03.74-.1.57-.34-1.8-2.5-3.81-4.91-6.41-6.61s-5.63-2.58-8.64-3.28c-.23-.05-.87.29-.46.39Z"/>
    </g>
    <g>
      <path d="M687.94,59.91c.18-.12.36-.23.53-.36.86-.65,1.39-2.16.44-2.68,2.03.5,2.92-3.02,5-3.29.59-.08,1.19.14,1.79.15,1.56.03,2.93-1.59,2.63-3.13,1.62.61,3.48.54,5.05-.18l14.67,2.44c-5.96,2.19-11.89,5.4-17.69,7.01-2.79.77-5.62,1.65-7.98,3.34-1.71,1.23-4,2.11-5.75,3.41.43-2.24.85-4.48,1.32-6.72Z"/>
      <path d="M688.19,60.09c.7-.45,1.28-.98,1.51-1.81.18-.63.06-1.27-.52-1.63l-.41.51c2.19.46,2.98-2.28,4.59-3.12.72-.37,1.49-.03,2.24-.02.59,0,1.15-.16,1.64-.48,1.03-.65,1.62-1.83,1.44-3.04l-.58.36c1.25.45,2.59.56,3.9.29.35-.07.7-.17,1.04-.3.1-.04.4-.17.21-.15.06,0,.15.03.21.03.98.14,1.95.32,2.93.49l9.21,1.53c.77.13,1.54.26,2.32.39l.05-.56c-4.44,1.64-8.68,3.74-13.09,5.46-2.13.83-4.3,1.43-6.48,2.1-2.03.62-4.04,1.4-5.82,2.57-1.02.68-2.05,1.31-3.13,1.88s-2.1,1.13-3.06,1.83l.62.16c.43-2.24.85-4.48,1.32-6.72.08-.38-.68-.3-.75.05-.47,2.23-.89,4.48-1.32,6.72-.06.34.47.27.62.16,1.67-1.22,3.61-1.99,5.34-3.13.93-.61,1.84-1.22,2.86-1.69s2.01-.84,3.05-1.17c2.12-.68,4.27-1.23,6.35-2.02s4.17-1.69,6.23-2.59c2.45-1.07,4.9-2.15,7.4-3.08.28-.1.46-.49.05-.56-4.69-.78-9.39-1.56-14.08-2.34-.2-.03-.43-.11-.63-.1-.32.01-.65.23-.96.32-.42.13-.84.21-1.28.25-.92.08-1.82-.05-2.68-.36-.24-.08-.62.06-.58.36.19,1.21-.69,2.59-1.96,2.72-.69.07-1.37-.22-2.07-.14-.4.04-.77.19-1.11.4-.7.43-1.22,1.09-1.74,1.7s-1.15,1.38-2.05,1.2c-.23-.05-.74.3-.41.51.5.31.48.87.27,1.37-.24.59-.69.92-1.2,1.26-.42.27.18.58.5.37Z"/>
    </g>
    <g>
      <path d="M719.16,54.44l18.59-5.29,16.89,7.18,8.55,18.93-1.55,15.89h0l1.37,23.21c-.53.13-1.06.27-1.59.4-.16.04-.34.08-.5.01-.39-.17-.26-.73-.21-1.15.12-.98-.54-1.85-1.07-2.68-.53-.83-.97-1.92-.43-2.75.28-.44.82-.77.81-1.29-.02-.68-.89-.91-1.41-1.35-.81-.68-.58-2.2.38-2.62,0,0-1.35-1.12-1.28-3.72.07-2.6.44-5.42.44-5.42h0c-.18-.16-.35-.32-.49-.52-1.01-1.43.13-3.58-.75-5.08-.39-.68-1.14-1.11-1.48-1.81-.64-1.35.49-2.96.13-4.42-.4-1.63-2.57-2.76-2.15-4.38.21-.79,1.01-1.34,1.17-2.14.28-1.4-1.46-2.94-.58-4.07.31-.39.86-.56,1.09-.99.48-.88-.64-1.72-1.15-2.57-.53-.89-.39-2.01-.65-3.01-.26-1-1.36-1.98-2.23-1.43.33-1.68-1.25-5.89-2.91-5.47-.82.21-1.83.76-2.36.11-.38-.46-.14-1.21-.47-1.71-.84-1.27-2.9,1.08-4.23.33-.36-.2-.57-.6-.88-.87-.72-.6-1.81-.39-2.67-.01-.86.38-1.71.91-2.65.87-.94-.04-1.88-1.06-1.41-1.88-.87.68-1.79,1.38-2.87,1.61-1.08.23-2.38-.17-2.83-1.19-.07,1.58-2.35,2.5-3.5,1.42-.46-.43-.83-1.12-1.46-1.1-.28,0-.53.16-.76.33-1.01.74-2.02,4.3-2.47,5.48l-.45-6.86Z"/>
      <path d="M719.19,54.57c3.04-.86,6.08-1.73,9.12-2.59,2.13-.61,4.26-1.21,6.39-1.82l2.15-.61c.19-.06.78-.11.93-.26-.17.18-.46-.09-.17.09.15.09.35.15.51.22l1.99.85,6.01,2.56c1.98.84,3.96,1.68,5.93,2.52l1.79.76c.14.06.3.1.43.18.13.08-.05-.08.02.02.19.3.3.67.45.99l.95,2.09,2.68,5.94c.93,2.05,1.85,4.1,2.78,6.15.53,1.17,1.15,2.34,1.6,3.54.07.18.07.22.05.43-.06.61-.12,1.21-.18,1.82l-.63,6.42c-.2,2.02-.39,4.04-.59,6.07-.06.59-.14,1.17-.1,1.76.21,3.62.43,7.23.64,10.85.22,3.76.44,7.51.66,11.27.01.22.03.43.04.65l.34-.22c-.42.1-.83.21-1.25.31-.44.11-.69.06-.71-.43-.02-.67.13-1.16-.15-1.81-.51-1.2-2.06-2.57-1.39-4,.23-.5.86-.82.9-1.41.03-.51-.4-.8-.79-1.04-.51-.31-.97-.6-1.08-1.23s.12-1.33.7-1.62c.05-.02.22-.12.13-.19-.98-.83-1.27-2.38-1.26-3.58,0-1.2.11-2.41.23-3.61.04-.46.09-.91.15-1.37.01-.11.05-.24.04-.34-.01-.12.09-.19-.06-.09.04-.03.12-.09.06-.15-1.08-.97-.91-2.22-.86-3.54.02-.58.01-1.18-.2-1.72-.23-.58-.71-.98-1.12-1.43-1.1-1.18-.55-2.45-.35-3.86.16-1.17-.27-2.01-.97-2.9s-1.63-1.85-1.08-3.02c.25-.53.72-.94.95-1.49s.14-1.06-.04-1.59c-.33-.98-1.23-2.23-.16-3.06.37-.29.81-.52.91-1.03s-.24-.97-.53-1.35c-.52-.69-.95-1.25-1.1-2.12-.12-.72-.09-1.5-.38-2.18-.48-1.1-1.61-1.63-2.7-1.06h.58c.24-1.39-.34-3.02-1.03-4.19-.3-.51-.7-1.07-1.27-1.3-.63-.26-1.25.04-1.86.22-.69.2-1.2.01-1.33-.72-.07-.42-.03-.88-.32-1.22-.36-.42-.94-.37-1.42-.25-.7.17-1.33.61-2.04.75-1.01.2-1.38-1.06-2.28-1.3-.99-.26-2.06.17-2.94.58-.77.36-1.66.87-2.48.36-.54-.34-.89-.94-.6-1.55.09-.19-.59,0-.65.04-.82.63-1.77,1.45-2.84,1.52-.9.06-1.8-.37-2.2-1.18-.09-.19-.72,0-.74.2-.13,1.41-1.79,2.13-2.84,1.14-.41-.38-.71-.94-1.29-1.06-.52-.1-1.09.14-1.5.45-.74.56-1.11,1.6-1.44,2.43-.41,1.03-.72,2.09-1.11,3.12l.73-.16c-.15-2.29-.3-4.57-.45-6.86,0-.15-.75-.02-.74.2.15,2.29.3,4.57.45,6.86.01.18.68-.03.73-.16.4-1.06.72-2.15,1.14-3.2.23-.56.47-1.13.79-1.64.12-.19.27-.43.46-.55.49-.33.83.06,1.14.4.39.42.73.79,1.31.92.46.1.95.05,1.41-.07.97-.27,1.85-.96,1.94-2.02l-.74.2c.51,1.04,1.7,1.41,2.79,1.29,1.37-.15,2.5-.96,3.56-1.78l-.65.04c-.37.79.24,1.58.99,1.86.83.31,1.79,0,2.56-.34.6-.26,1.17-.62,1.82-.73.76-.13,1.26.15,1.74.69.52.59,1.07.75,1.84.6.71-.14,1.32-.52,2.01-.73,1.15-.36.94,1.02,1.19,1.68.29.76,1.14.7,1.8.53.39-.1.88-.38,1.27-.31.3.06.56.31.76.52.62.65,1,1.56,1.27,2.41.24.77.45,1.65.32,2.46-.04.21.51.04.58,0,.66-.35,1.44.85,1.6,1.3.23.64.2,1.35.32,2.02.09.55.27,1.02.59,1.47.35.48.86.94,1.01,1.54.18.71-.42,1-.87,1.39-.34.29-.55.65-.54,1.11.02,1,.8,1.84.86,2.84.07,1.17-1.22,1.81-1.25,2.96-.03.96.75,1.73,1.3,2.42.32.4.63.82.82,1.31.25.66.16,1.35.02,2.03-.22,1.09-.51,2.2.25,3.16.44.55,1.05.96,1.32,1.64.24.6.22,1.27.19,1.9-.06,1.31-.13,2.48.92,3.42l.06-.15c-.27.2-.21,1.14-.24,1.43-.14,1.29-.24,2.58-.28,3.88s.2,3.04,1.3,3.97l.13-.19c-.97.49-1.44,1.85-.62,2.71.41.44,1.34.62,1.47,1.27.1.48-.33.81-.6,1.14-.24.29-.39.58-.43.96-.18,1.76,1.79,2.84,1.75,4.56-.01.51-.31,1.3.42,1.43.22.04.46-.02.67-.07.53-.12,1.06-.27,1.59-.4.09-.02.34-.1.34-.22-.17-2.86-.34-5.73-.51-8.59-.25-4.23-.5-8.47-.75-12.7-.04-.66-.14-1.34-.11-2,.06-1.42.28-2.85.42-4.26l.68-6.92.28-2.88c.05-.52.16-1.07.16-1.59,0-.62-.53-1.35-.78-1.91l-2.44-5.4-4.98-11.02c-.09-.21-.18-.58-.34-.75-.15-.16-.5-.23-.69-.32l-4.74-2.01c-3.67-1.56-7.35-3.12-11.02-4.69-.31-.13-.51-.26-.85-.19-.3.06-.61.17-.9.26l-5.15,1.46-11.79,3.35-.75.21c-.43.12-.37.37.07.25Z"/>
    </g>
    <g>
      <path d="M691.6,62.49c.3.5-.36,1.02-.92,1.16s-1.29.36-1.3.94c-.01.36.29.67.28,1.02-.03,1.09-2.21.48-2.65,1.48-.33.75.7,1.74.15,2.34-.26.29-.71.26-1.09.34-.66.14-1.19.74-1.26,1.4-.05.5.12,1.03-.09,1.49-.26.55-.94.72-1.45,1.04-1.34.86-1.41,2.78-1.22,4.36s.43,3.39-.63,4.59c-1.24-.8-.19-1.94.53-3.23.22-.39.53-.73.68-1.15.15-.42.1-.97-.28-1.2-.19-.11-.44-.14-.57-.32-.36-.51.67-.79,1.11-1.24.55-.56.04-1.5-.51-2.05s-1.23-1.29-.92-2.01c.28-.64,1.18-.81,1.46-1.44.32-.71-.33-1.52-.26-2.3.1-1.04,1.32-1.51,2.34-1.74-.76-.68-.56-2.12.36-2.56.37-.18.84-.24,1.06-.59.31-.52-.2-1.31.2-1.77.34-.39,1.04-.18,1.42-.53.59-.57-.36-1.57-.1-2.35.35-1.03,2.51-.94,2.26-2"/>
      <path d="M691.23,62.59c.33.78-1.53.98-1.95,1.42-.23.23-.33.53-.26.85.08.39.5.86,0,1.12-.54.29-1.24.18-1.8.48-.61.32-.76.9-.58,1.53.09.32.34.71.29,1.04-.07.5-.97.43-1.36.62-.79.38-1.18,1.12-1.16,1.98,0,.32.08.68-.07.98-.13.27-.41.41-.67.55-.38.2-.74.37-1.06.67-.59.56-.88,1.34-.99,2.14-.29,2.11.97,4.75-.54,6.57l.59-.1c-1.6-1.14,1.52-3.39,1.38-4.78-.03-.33-.17-.6-.44-.79-.19-.13-.64-.12-.46-.5.05-.1.26-.18.36-.24.62-.4,1.14-.84.91-1.65-.26-.94-1.22-1.38-1.58-2.25-.45-1.07.87-1.27,1.32-1.99.5-.79-.13-1.57-.14-2.38-.02-1.05,1.2-1.4,2.03-1.61.13-.03.44-.25.27-.42-.46-.46-.57-1.2-.23-1.77s1.1-.5,1.53-.98c.47-.52.06-1.06.2-1.63s1.24-.39,1.6-.89c.31-.44.11-.96-.03-1.42-.21-.7-.15-1.13.53-1.47s1.79-.6,1.63-1.56c-.06-.35-.8-.16-.74.2.09.51-.69.68-1.05.84-.4.18-.83.4-1.08.78-.32.49-.14,1.04.01,1.55.11.37.31.81-.16,1.01-.27.12-.59.07-.86.2-.5.24-.64.67-.6,1.19.03.46.15.85-.31,1.11-.25.14-.55.18-.79.35-.92.62-1.13,2.03-.33,2.82l.27-.42c-1.11.27-2.69.85-2.65,2.24.03.86.76,1.75-.1,2.42-.49.38-1.1.68-1.18,1.36-.09.8.59,1.41,1.08,1.94.27.29.55.66.63,1.06.11.55-.29.77-.69,1.03-.36.23-.9.6-.62,1.09.15.27.47.29.69.48.43.37.18.95-.07,1.35-.7,1.13-2.46,3.05-.9,4.16.17.12.47.05.59-.1,1.36-1.64.68-3.74.62-5.65-.03-.96.05-2.06.69-2.82.56-.67,1.64-.75,2.03-1.58.24-.5.04-1.04.11-1.56.11-.78.66-1.06,1.36-1.18s1.26-.52,1.13-1.28-.78-1.64.28-1.93c.58-.16,1.3-.13,1.77-.56.23-.21.33-.47.29-.78-.03-.27-.23-.5-.25-.76-.05-.44.35-.57.7-.68.66-.2,1.91-.67,1.51-1.6-.14-.33-.87-.12-.74.2h0Z"/>
    </g>
    <path d="M763.87,104.4l-.42-2.19-23.78-2.64h0c-8.64-1.78-19.67,2.4-25.59,7.76l-5.78,1.29.04-.1c-7.64-3.83-19.06-2.67-27.04,2.75l.39.87h0c.01.06.09.18.17.36l.35.75c2.14,4.82,4.56,9.9,6.21,11.06,1.12.78,4.33.7,6.95.47.99-.08,1.89-.19,2.54-.27.78-.1,7.67-1.02,8.64-2.28.97-1.26,1.59-9.52,1.73-12.12l5.93-1.3c1.09,1.82,4.04,9.93,7.25,11.14s18.04-2.02,19.07-4.32c.73-1.65,2.64-7.48,2.91-10.35l.65-3.75,19.79,2.85ZM705.72,121.58c-1.08,1.23-14.79,3.21-16.72,1.86-1.63-1.14-4.69-8.02-5.84-10.61l-.02-.11c7.2-4.42,17.49-5.48,24.11-2.27-.33,4.5-.93,10.32-1.54,11.1v.02ZM738.65,115.34c-.64,1.46-13.51,4.84-16.81,3.6-2.3-.86-4.56-6.77-6.14-10.11,5.8-5.12,18.82-9.13,26.58-7.07-.57,4.55-1.74,9.99-3.63,13.59h0Z"/>
    <path d="M733.43,134.46c.84.51,1.75,1.12,1.99,2.07.09.35.08.71.06,1.07-.02.55-.04,1.11-.06,1.66,0,.11,0,.23-.07.32-.06.1-.18.16-.29.21-.35.16-.71.32-1.1.31s-.79-.23-.88-.61c-.04-.15-.02-.33-.11-.46-.17-.25-.56-.15-.86-.18-.77-.06-1.09-.98-1.53-1.61-.6-.85-1.65-1.29-2.68-1.45-.52-.08-1.06-.1-1.55-.29s-.95-.58-1.03-1.1"/>
    <g>
      <path d="M732.59,133.25c-.49-.52-1.25-.78-1.95-.67-.33.05-.69.17-.98,0-.16-.09-.27-.24-.38-.39-.37-.47-.88-.29-1.46-.13-.55.15-1.01.18-1.58.24-.74.07-1.45-.83-2.12-.49-.26.13-.41.43-.67.57-.42.23-.93-.02-1.31-.32s-.71-.39-1.19-.39c-.43,0-.84.04-1.23.23s-1.59.98-1.84.63"/>
      <path class="cls-41" d="M732.93,133.09c-.4-.39-.88-.65-1.43-.75-.27-.05-.55-.05-.82-.02-.36.05-.64.18-.92-.11-.18-.18-.29-.37-.53-.47-.22-.1-.47-.11-.7-.08-.62.07-1.21.29-1.84.36-.3.03-.54.06-.83-.06-.24-.1-.47-.23-.71-.33-.44-.18-.94-.2-1.35.09-.19.13-.34.41-.55.49-.28.1-.64-.22-.86-.37-.46-.33-.96-.41-1.52-.4-.59.01-1.1.17-1.61.46-.22.12-.43.24-.66.35-.09.04-.18.08-.27.11,0,0-.07.03-.09.03-.09,0-.03-.01,0,.01-.21-.24-.91.05-.68.32.49.57,1.61-.17,2.08-.44s1.02-.4,1.58-.29.93.62,1.51.73.99-.12,1.36-.5c.2-.21.31-.23.58-.12.24.1.47.23.71.33.54.23,1.11.14,1.68.06.31-.04.62-.11.93-.19.24-.06.54-.19.78-.07.26.13.37.46.64.6s.57.13.86.09c.76-.11,1.42-.05,1.99.52.22.22.92-.07.68-.32h0Z"/>
    </g>
    <g>
      <path d="M711.43,133.76c-.91-.27-1.53,1.05-2.46,1.24-.37.08-.81-.02-1.09.23-.2.17-.25.46-.44.65-.42.42-1.11.07-1.67-.1-.18-.05-.37-.09-.55-.02-.5.18-.46.94-.83,1.33-.31.31-.8.3-1.24.32s-.96.17-1.08.59c-.06.24.02.53-.15.71-.24.27-.89.19-.84.55"/>
      <path class="cls-41" d="M711.65,133.52c-.98-.26-1.59.54-2.31,1.04-.15.1-.3.19-.48.21-.26.03-.53.02-.78.09s-.48.22-.64.44c-.11.15-.19.47-.38.52s-.46-.08-.63-.13c-.29-.1-.58-.22-.89-.22-.51,0-.9.29-1.09.75-.08.19-.14.39-.23.58-.11.22-.26.29-.5.32-.49.06-.98.02-1.44.25-.22.12-.43.29-.53.52-.06.14-.07.28-.08.43,0,.09,0,.23-.07.3-.06.05-.17.06-.24.08-.1.03-.21.07-.3.12-.22.11-.35.28-.34.53.02.3.76.13.74-.2,0-.06.03,0-.04.04-.02,0,.03-.02.04-.02.07,0,.15-.04.21-.07.2-.07.41-.15.56-.31.28-.31.03-.89.45-1.07.39-.17.87-.07,1.28-.16.45-.1.81-.36,1-.78.08-.17.13-.35.2-.52s.11-.31.31-.28c.5.09.93.37,1.45.34.49-.02.85-.29,1.08-.71.11-.21.16-.3.4-.32.26-.02.51-.02.76-.1.46-.14.82-.44,1.18-.74.23-.2.56-.55.89-.46.17.05.4,0,.52-.14.11-.12.08-.28-.09-.32h0Z"/>
    </g>
    <path class="cls-12" d="M717.01,139.16c5.33-1.01,13.85-3.28,13.85-3.28,0,0,.73,12.13-11.64,14.48-12.36,2.35-15.11-9.45-15.11-9.45,0,0,7.56-.73,12.89-1.74Z"/>
    <path class="cls-44" d="M716.96,139.17c2.53-.48,12.67-2.85,12.67-2.85,0,0-1.88,8.11-11.05,9.86-9.94,1.89-13.15-5.23-13.15-5.23l11.52-1.77Z"/>
    <path class="cls-17" d="M716.92,139.57c2.53-.48,10.17-2.38,10.17-2.38,0,0-2.25,3.3-9.85,4.75-7.6,1.45-10.53-.79-10.53-.79l10.22-1.58Z"/>
    <path class="cls-12" d="M703.41,140.23c.26-.12,1.83.09,3.06-.26,2.06-.58,2.07-1.09,3.57-1.5,2.56-.69,4.4.02,5.53-.2s2.58-1.55,5.22-1.85c1.54-.17,5.41-.34,7.54-.56,1.28-.13,2.66-.9,2.94-.89.39.02.19,2.9-14,5.6-14.18,2.7-14.22-.2-13.87-.36Z"/>
    <path d="M716.84,133.54l.95,2.42c.15.37.51.61.91.59,2.73-.13,13.12-.64,15.53-1.13.06-.01-.03,1.04.03,1.02l.56-.14c.87-.35-.35-3.25-1.27-3.43-2.8-.53-5.27-.81-6.77-.87-1.88-.08-7.07-.15-9.24.28-.57.11-.9.72-.68,1.26Z"/>
    <path d="M713.66,134.42l.36,2.33c0,.4-.24.75-.59.87-2.41.85-8.92,3.38-11.16,3.78-.05,0-.1.01-.16.01h-.74c-.87-.03-.74-1.99,0-2.48,2.25-1.49,2.3-2.11,3.59-2.71,1.61-.75,5.69-2.38,7.71-2.75.53-.1,1.01.35,1,.94Z"/>
    <polygon class="cls-7" points="785.42 769.79 750.84 763.51 747.49 742.27 785.33 736.6 785.42 769.79"/>
    <g>
      <path class="cls-34" d="M695.09,788.85s-1.21-5.69,3.91-7.82c5.12-2.13,16.7-5.71,25.25-9.99,11.87-5.94,18.81-14.76,24.09-15.2,5.37-.45,4.4,7.96,16.12,8.12,11.63.16,20.32-5.8,20.86-5.99,2.65,1.47,7.57,18.72,4.47,23.08-3.1,4.36-31.44,6.59-31.44,6.59l-22.67,4.58-22.71,1.05-17.89-4.44Z"/>
      <path class="cls-3" d="M768.79,786.52c-.11-2,0-4.08.65-5.98.34-.98.84-1.91,1.57-2.66.98-.99,2.29-1.37,3.57-1.83,2.42-.86,4.9-1.63,7.24-2.71,1.75-.81,3.44-1.87,4.56-3.47,1.62-2.32,1.65-5.18,1.17-7.87-.02-.14-.34-.06-.32.08.46,2.6.45,5.38-1.08,7.64-1.24,1.84-3.24,2.93-5.23,3.78-2.51,1.07-5.14,1.88-7.7,2.82-1.97.73-3.31,2.06-4.03,4.05s-.83,4.15-.71,6.23c0,.13.32.06.32-.08h0Z"/>
      <path class="cls-3" d="M786.32,759.26c-3.79,2.68-7.91,4.73-12.51,5.54-2.91.51-5.85.53-8.79.39-2.14-.1-4.29-.27-6.39-.67-3.63-.69-7.12-2.39-10.87-2.31-2.22.05-4.36.84-6.33,1.8-2.64,1.29-5.1,2.94-7.57,4.54-1.37.89-2.75,1.78-4.14,2.64-.73.45-1.46.89-2.21,1.32-.34.2-.69.39-1.03.58-.29.16-.76.53-1.08.62-.37.1-.92-.09-1.23-.28-.88-.56-.81-1.71-.62-2.6.02-.07-.3-.02-.31.06-.28,1.33-.04,2.77,1.52,2.95.41.05.62,0,.99-.2,1.36-.73,2.7-1.51,4.01-2.31,2.69-1.65,5.29-3.44,7.97-5.09,2.52-1.55,5.21-3.14,8.16-3.71,4.16-.8,8.13,1.23,12.13,2.05,2.03.41,4.11.61,6.18.72,2.87.15,5.74.18,8.59-.22,5.08-.72,9.63-2.86,13.79-5.8.13-.09-.18-.05-.24-.01h0Z"/>
      <path class="cls-3" d="M751.17,789.15c1.57-.32,3.15-.64,4.72-.96.02,0,.23-.06.18-.11-2.24-2.11-4.95-3.61-7.91-4.46-3.5-1.01-7.1-.92-10.7-.98s-7.52-.1-11.27-.33c-2.95-.17-6.01-.38-8.86-1.22-.97-.29-2.03-.67-2.76-1.41-1.24-1.25-.51-3.17.22-4.49.02-.04-.27-.02-.31.06-.65,1.17-1.36,2.85-.55,4.12.43.67,1.18,1.09,1.89,1.4,2.35,1.01,5.05,1.26,7.56,1.48,3.69.33,7.41.41,11.11.47s7.82-.18,11.61.58,6.98,2.36,9.67,4.89l.18-.11c-1.57.32-3.15.64-4.72.96-.12.02-.28.16-.06.11h0Z"/>
      <g>
        <path class="cls-55" d="M754.17,788.39l-.1.12.19-.04s-.06-.05-.09-.08Z"/>
        <path class="cls-13" d="M754.02,788.41l-.1.12s-.02.02-.02.03c0,0,0,.01.02.01.03.01.08,0,.11,0,.06-.01.11-.02.17-.03h.02c.05-.02.11-.03.15-.06.01,0,.03-.02.04-.03,0-.01,0-.02,0-.02-.03-.03-.06-.05-.09-.08-.01,0-.02,0-.03,0-.02,0-.03,0-.05,0-.04,0-.08.01-.12.03h-.04s-.04.03-.05.05v.02s-.02.02,0,.02c.03.03.06.05.09.08l.18-.11c-.06.01-.11.02-.17.03h-.02s.08.03.11.05l.1-.12s.02-.03,0-.04c-.01,0-.02,0-.03,0-.02,0-.03,0-.05,0-.04,0-.08.01-.12.03h-.04s-.04.03-.05.05Z"/>
      </g>
      <g>
        <path class="cls-55" d="M762.08,785.74h-.94c0,.74-.06,1.32-.11,1.66.3-.03.62-.06.96-.09.05-.38.09-.92.08-1.57Z"/>
        <path class="cls-13" d="M762.14,785.65c-.27,0-.55,0-.82,0h-.12c-.05,0-.1.01-.14.03-.03.01-.08.04-.08.08,0,.46-.02.93-.07,1.39,0,.09-.02.18-.03.26-.01.07.09.08.14.07.32-.03.64-.06.96-.09.05,0,.17-.04.18-.11.06-.52.09-1.04.08-1.57,0-.07-.08-.08-.14-.07-.04,0-.08.02-.12.04-.02.01-.06.04-.06.07,0,.52-.02,1.05-.08,1.57l.18-.11c-.32.03-.64.06-.96.09l.14.07c.06-.39.09-.79.1-1.19,0-.15,0-.31,0-.46l-.22.11c.27,0,.55,0,.82,0h.12c.07,0,.17-.02.21-.09s-.03-.1-.09-.1Z"/>
      </g>
      <g>
        <path class="cls-55" d="M766.26,784.7c-.02.7,0,1.42.04,2.14h.14c.26-.04.53-.07.8-.1-.04-.68-.05-1.36-.04-2.01l-.94-.03Z"/>
        <path class="cls-13" d="M766.1,784.74c-.02.71,0,1.43.04,2.14,0,.03.07.03.09.03.33-.02.65-.07.97-.11.05,0,.19-.04.19-.11-.04-.67-.05-1.34-.04-2.01,0-.02-.05-.03-.06-.03-.27,0-.55-.02-.82-.02h-.12c-.08,0-.16.01-.22.06-.05.03-.04.08.02.08.27,0,.55.02.82.02h.12s-.04-.02-.06-.03c-.02.67,0,1.34.04,2.01l.19-.11c-.2.02-.4.05-.6.07-.05,0-.09.01-.14.02-.02,0-.06,0-.02,0,0,0-.01,0-.02,0-.04,0-.08,0-.12,0l.09.03c-.04-.71-.06-1.43-.04-2.14,0-.06-.31-.02-.32.08Z"/>
      </g>
      <g>
        <path class="cls-9" d="M792.47,781.2s-.34.04-.89.11l-.2-.8c-3.49.43-15.5,1.94-22.83,3.24-2.23.4-5.05,1.06-8.31,1.82-7.56,1.77-17.91,4.2-28.9,5.12-1.97.17-3.92.28-5.79.34-15.7.48-28.71-2.02-31.5-2.61l-.1.81c-.43-.09-.66-.14-.66-.14,0,0-.23,1.11-.43,2.12h0c-.02.09-.04.18-.05.27-.07.36-.14.69-.19.94,7.79,4.12,41.19,3.78,48.69,1.65.47-.14.98-.27,1.52-.42.22-.06.46-.12.69-.18.35-.09.7-.18,1.07-.27,8.05-2.01,20.02-4.36,20.02-4.36,0,0-.03,1.14,0,2.46h0s0,.03,0,.04c.02.56.04,1.16.1,1.72,14.11-.23,28.7-2.81,28.7-2.81l-.96-9.06Z"/>
        <path class="cls-13" d="M792.54,781.14c-.22.03-.7.16-.82.04s-.14-.55-.18-.72c0-.03-.07-.02-.09-.02-5.21.64-10.41,1.32-15.6,2.09-3.01.44-6.02.88-9,1.5-3.39.7-6.75,1.54-10.12,2.32-7.64,1.76-15.33,3.29-23.14,4.09s-16.18.75-24.24.06c-4.84-.42-9.69-1.04-14.46-1.99-.24-.05-.47-.1-.71-.14-.06-.01-.28.02-.29.1l-.1.81.29-.1c-.22-.05-.44-.09-.66-.14-.05-.01-.27.02-.29.09-.15.71-.29,1.42-.43,2.12l.3-.08h0c-.05-.03-.29.01-.3.08-.08.4-.16.8-.24,1.21,0,.01,0,.02,0,.02,1.42.75,3.03,1.14,4.6,1.47,2.26.48,4.55.77,6.84,1.01,5.57.57,11.18.74,16.78.73,5.06-.01,10.15-.15,15.19-.67,1.63-.17,3.28-.36,4.87-.74,3.25-.77,6.48-1.67,9.74-2.4s6.5-1.42,9.76-2.09c1.05-.21,2.09-.43,3.14-.64.3-.06.6-.12.9-.18.07-.01.15-.05.22-.04.15,0-.05-.07-.06.03-.1.78-.01,1.63,0,2.41l.23-.1h0s-.23.03-.23.1c.03.59.05,1.17.1,1.76,0,.02.05.02.05.02,8.95-.15,17.9-1.09,26.74-2.48.68-.11,1.36-.22,2.04-.34.03,0,.19-.04.19-.1-.32-3.02-.64-6.04-.96-9.06,0-.05-.32,0-.32.08.32,3.02.64,6.04.96,9.06l.19-.1c-6.85,1.21-13.81,1.99-20.75,2.46-1.63.11-3.27.2-4.91.26-.79.03-1.59.05-2.38.07-.56.01-.56-.2-.59-.72-.02-.34-.02-.67-.04-1.01l-.23.1h0s.23-.03.23-.1c-.02-.82-.03-1.64,0-2.46,0-.03-.12-.01-.13-.01-4.56.89-9.1,1.85-13.64,2.86-3.32.74-6.62,1.56-9.92,2.43-1.52.4-3.1.59-4.66.76-4.91.53-9.86.68-14.79.71-5.52.03-11.05-.12-16.54-.63-2.32-.21-4.64-.49-6.93-.93-1.66-.32-3.36-.69-4.91-1.39-.09-.04-.38-.13-.43-.21-.15-.25.14-.94.19-1.21l-.3.08h0c.05.03.29-.01.3-.08.14-.71.29-1.42.43-2.12l-.29.09c.22.05.44.1.66.14.06.01.28-.02.29-.1l.1-.81-.29.1c4.28.9,8.64,1.49,12.99,1.93,7.88.79,15.85,1.02,23.75.39s15.88-2.08,23.69-3.82c3.51-.79,7-1.64,10.51-2.43,3.08-.68,6.18-1.2,9.29-1.67,5.59-.85,11.2-1.59,16.82-2.28.28-.04.19-.07.3.11.1.16.11.44.16.63,0,.03.07.02.09.02.3-.04.59-.07.89-.11.08,0,.34-.15.14-.12Z"/>
      </g>
      <g>
        <path class="cls-9" d="M744.99,760.95c.15.22.4.33.65.31.11,0,.22-.04.32-.11.33-.2.42-.63.21-.95l-2.36-3.59c-.38.23-.78.48-1.18.75l2.35,3.57Z"/>
        <path class="cls-13" d="M744.85,761.01c.48.69,1.78.24,1.58-.63-.06-.24-.26-.48-.4-.68l-1.62-2.45c-.15-.23-.3-.46-.45-.69-.04-.07-.2-.02-.25.01-.4.24-.79.49-1.18.75-.04.03-.08.07-.05.11.26.4.53.8.79,1.21.42.64.84,1.28,1.27,1.92.1.15.19.3.29.44.06.09.37-.01.29-.13-.26-.4-.53-.8-.79-1.21l-1.27-1.92c-.1-.15-.19-.3-.29-.44l-.05.11c.39-.26.78-.51,1.18-.75h-.25c.35.55.71,1.09,1.06,1.62.42.64.85,1.29,1.27,1.93.11.17.16.36.1.56-.06.19-.21.36-.42.38-.22.02-.42-.11-.55-.28-.06-.09-.37.02-.29.13Z"/>
      </g>
      <g>
        <path class="cls-9" d="M741.57,763.09c.15.22.4.33.65.31.11,0,.22-.04.32-.11.33-.2.42-.63.21-.95l-2.26-3.44c-.36.27-.73.55-1.11.84l2.19,3.33Z"/>
        <path class="cls-13" d="M741.42,763.16c.24.35.7.44,1.08.28.34-.14.56-.49.51-.86-.04-.25-.25-.49-.38-.7l-1.56-2.36c-.15-.22-.29-.45-.44-.67-.05-.08-.19-.04-.25,0-.37.28-.74.56-1.11.84-.04.03-.07.09-.04.14.25.37.49.75.74,1.12.39.6.79,1.2,1.18,1.79.09.14.18.28.27.42.08.12.38,0,.29-.14-.25-.37-.49-.75-.74-1.12l-1.18-1.79c-.09-.14-.18-.28-.27-.42l-.04.14c.37-.28.74-.56,1.11-.84h-.25c.34.52.68,1.04,1.03,1.56.4.61.81,1.23,1.21,1.84.11.17.16.38.08.58-.07.18-.24.32-.44.33s-.39-.1-.51-.27c-.08-.11-.38,0-.29.14Z"/>
      </g>
      <g>
        <path class="cls-9" d="M736.16,762.23l1.97,3c.15.22.4.33.65.31.11,0,.22-.04.32-.11.33-.2.42-.63.21-.95l-2.05-3.11c-.36.28-.73.56-1.11.85Z"/>
        <path class="cls-13" d="M736.01,762.27c.29.45.59.89.88,1.34.36.54.71,1.08,1.07,1.62.07.1.14.2.25.27.28.18.64.16.93.02.42-.2.59-.69.33-1.09-.33-.51-.67-1.02-1.01-1.53s-.67-1.02-1.01-1.53c0,0-.01-.02-.02-.03-.05-.08-.23-.01-.28.03-.37.29-.74.57-1.11.85-.05.04-.04.07.02.08.07.01.17-.02.22-.06.37-.28.74-.57,1.11-.85l-.28.03c.27.41.54.81.8,1.22l1.13,1.72c.14.21.27.42.21.69s-.3.49-.59.41c-.16-.05-.3-.15-.39-.29-.32-.49-.65-.98-.97-1.47s-.64-.98-.97-1.47c0,0-.01-.02-.02-.03-.06-.09-.35.03-.32.08Z"/>
      </g>
      <g>
        <path class="cls-9" d="M734.71,767.37c.15.22.4.33.65.31.11,0,.22-.04.32-.11.33-.2.42-.63.21-.95l-1.85-2.81c-.37.27-.74.55-1.13.82l1.79,2.73Z"/>
        <path class="cls-13" d="M734.55,767.41c.2.29.53.38.86.32s.65-.27.73-.61c.04-.19,0-.38-.11-.55-.05-.07-.1-.15-.14-.22l-1.3-1.98c-.13-.2-.26-.39-.39-.59-.04-.07-.23,0-.28.04-.37.28-.75.55-1.13.82,0,0-.05.03-.04.05.52.8,1.05,1.59,1.57,2.39.07.11.15.23.22.34.05.08.34-.04.32-.08-.52-.8-1.05-1.59-1.57-2.39-.07-.11-.15-.23-.22-.34l-.04.05c.38-.27.75-.54,1.13-.82l-.28.04c.3.45.6.91.9,1.36.32.48.64.96.95,1.44.15.23.15.52,0,.75-.1.14-.24.22-.41.2-.18-.03-.34-.14-.44-.29-.05-.08-.34.05-.32.08Z"/>
      </g>
      <g>
        <path class="cls-9" d="M731.28,769.51c.15.22.4.33.65.31.11,0,.22-.04.32-.11.33-.2.42-.63.21-.95l-1.72-2.62c-.38.26-.77.52-1.16.77l1.7,2.59Z"/>
        <path class="cls-13" d="M731.12,769.55c.19.27.51.38.83.33s.64-.24.74-.55c.07-.21.04-.43-.08-.61-.04-.06-.08-.12-.12-.18l-1.22-1.86c-.13-.19-.25-.38-.38-.57-.05-.08-.22,0-.28.03-.39.26-.77.52-1.16.77,0,0-.05.04-.04.05.5.75.99,1.51,1.49,2.26.07.11.14.21.21.32.06.09.35-.03.32-.08-.5-.75-.99-1.51-1.49-2.26-.07-.11-.14-.21-.21-.32l-.04.05c.39-.25.78-.51,1.16-.77l-.28.03c.29.43.57.87.86,1.3s.58.87.87,1.32c.16.25.15.58-.06.8-.11.11-.23.16-.38.13-.17-.03-.32-.14-.42-.28-.06-.08-.35.04-.32.08Z"/>
      </g>
      <g>
        <path class="cls-55" d="M795.8,771.14h.01s0,0,0,0c0,0-.01,0-.02,0Z"/>
        <path class="cls-13" d="M795.67,771.21h.01s.02,0,.03.01h.03s.07-.01.1-.02c.03,0,.05-.02.07-.03,0,0,.02-.01.03-.02.01,0,.02-.02.02-.03,0,0,0,0,0-.01.01-.03-.03-.04-.05-.04-.02,0-.05,0-.07,0-.03,0-.06.01-.08.02,0,0-.01,0-.02,0-.03.01-.07.03-.09.05-.01.01-.02.03,0,.05h.02s.04.01.06.01c.04,0,.09-.01.12-.03,0,0,.01,0,.02,0h-.21s0,0,0,0l.29-.09h-.01s-.03-.01-.04-.01c-.02,0-.04,0-.06,0-.04,0-.08.02-.12.04l-.03.02s-.03.02-.03.03v.02s.01.02.03.02Z"/>
      </g>
    </g>
    <polygon class="cls-7" points="837.46 770.84 798.99 768.76 798.39 756.45 836.68 754.81 837.46 770.84"/>
    <g>
      <path class="cls-34" d="M744.74,794.36s-1.21-5.69,3.91-7.82c5.12-2.13,16.7-5.71,25.25-9.99,11.87-5.94,18.81-14.76,24.09-15.2,5.37-.45,4.4,7.96,16.12,8.12,11.63.16,20.32-5.8,20.86-5.99,2.65,1.47,7.57,18.72,4.47,23.08-3.1,4.36-31.44,6.59-31.44,6.59l-22.67,4.58-22.71,1.05-17.89-4.44Z"/>
      <path class="cls-3" d="M818.44,792.03c-.11-1.97-.01-4,.61-5.88.33-.99.81-1.94,1.53-2.7.95-1.01,2.21-1.41,3.48-1.86,2.48-.89,5.01-1.66,7.4-2.77,1.74-.81,3.44-1.86,4.57-3.46,1.62-2.31,1.65-5.17,1.18-7.86-.02-.09-.33-.02-.32.08.46,2.61.46,5.39-1.07,7.66-1.24,1.84-3.23,2.94-5.23,3.8-2.51,1.07-5.14,1.88-7.7,2.82-1.93.71-3.26,1.99-4,3.92-.76,2-.87,4.22-.76,6.33,0,.08.32.02.32-.08h0Z"/>
      <path class="cls-3" d="M835.97,764.78c-3.79,2.68-7.91,4.73-12.51,5.54-2.91.51-5.85.52-8.79.39-2.14-.1-4.29-.27-6.39-.67-3.63-.69-7.12-2.39-10.87-2.31-2.22.05-4.36.84-6.33,1.8-2.64,1.29-5.1,2.94-7.57,4.54-1.37.89-2.75,1.78-4.14,2.64-.73.45-1.46.89-2.21,1.32-.34.2-.69.39-1.03.58-.31.17-.75.53-1.08.62-.36.11-.93-.1-1.23-.28-.88-.56-.81-1.71-.62-2.6.01-.07-.3-.02-.31.06-.28,1.33-.04,2.77,1.52,2.94.36.04.58.02.9-.15,1.39-.74,2.76-1.54,4.1-2.36,2.69-1.65,5.29-3.44,7.97-5.09,2.52-1.55,5.21-3.14,8.15-3.71,4.16-.8,8.13,1.23,12.13,2.05,2.03.41,4.11.61,6.18.72,2.87.15,5.74.18,8.59-.22,5.08-.72,9.63-2.86,13.79-5.8.13-.09-.19-.05-.24,0h0Z"/>
      <path class="cls-3" d="M800.82,794.67c1.57-.32,3.15-.64,4.72-.96.03,0,.24-.06.18-.12-2.24-2.11-4.96-3.62-7.91-4.47-3.5-1.01-7.1-.92-10.7-.98s-7.52-.1-11.27-.33c-2.95-.17-6.01-.37-8.86-1.22-.97-.29-2.03-.67-2.76-1.4-1.24-1.25-.51-3.17.22-4.49.03-.05-.27-.03-.31.05-.65,1.17-1.36,2.85-.55,4.12.41.65,1.12,1.06,1.81,1.36,2.36,1.05,5.11,1.3,7.65,1.52,3.69.33,7.41.41,11.11.47,2.01.04,4.02.06,6.03.09,1.88.03,3.74.12,5.58.48,3.62.72,6.98,2.35,9.67,4.88l.18-.12c-1.57.32-3.15.64-4.72.96-.13.03-.28.17-.06.13h0Z"/>
      <g>
        <path class="cls-55" d="M803.81,793.9l-.1.12.19-.04s-.06-.05-.09-.08Z"/>
        <path class="cls-13" d="M803.67,793.91l-.1.12s-.01.02-.01.04c0,.01.01.02.02.02.01,0,.02.01.04.01.02,0,.05,0,.07,0,.06-.01.11-.02.17-.03h.02c.05-.02.11-.03.15-.06.02-.02.05-.05.02-.08s-.06-.05-.09-.08c-.02-.02-.06-.02-.08-.02-.02,0-.04,0-.06,0-.02,0-.04,0-.06.02l-.04.02s-.04.02-.05.04c-.01.02-.02.04,0,.06.03.03.06.05.09.08l.17-.13c-.06.01-.11.02-.17.03h-.02s.08.05.12.08l.1-.12s.02-.04,0-.06c-.01,0-.02-.01-.03-.02-.02,0-.03,0-.05,0-.04,0-.08,0-.12.03-.03.01-.06.03-.09.06Z"/>
      </g>
      <g>
        <path class="cls-55" d="M811.73,791.25h-.94c0,.74-.06,1.32-.11,1.66.3-.03.62-.06.96-.09.05-.38.09-.92.08-1.57Z"/>
        <path class="cls-13" d="M811.74,791.14c-.27,0-.55,0-.82,0h-.12c-.06,0-.18.05-.18.13,0,.46-.02.93-.07,1.39,0,.09-.02.18-.03.26-.01.08.09.1.14.1.32-.03.64-.06.96-.09.07,0,.17-.05.18-.12.06-.52.09-1.04.08-1.57,0-.08-.08-.11-.14-.1-.06,0-.18.05-.18.12,0,.52-.02,1.05-.08,1.57l.18-.12c-.32.03-.64.06-.96.09l.14.1c.06-.39.09-.79.1-1.19,0-.15,0-.31,0-.46l-.18.12c.27,0,.55,0,.82,0h.12c.07,0,.17-.05.18-.13,0-.08-.09-.1-.14-.1Z"/>
      </g>
      <g>
        <path class="cls-55" d="M815.91,790.21c-.02.7,0,1.42.04,2.14h.14c.26-.04.53-.07.8-.1-.04-.68-.05-1.36-.04-2.01l-.94-.03Z"/>
        <path class="cls-13" d="M815.75,790.25c-.02.71,0,1.43.04,2.14,0,.03.07.04.09.04.33-.02.65-.07.98-.11.05,0,.19-.04.18-.12-.04-.67-.05-1.34-.04-2.01,0-.04-.08-.04-.09-.04-.27,0-.55-.02-.82-.02h-.12c-.07,0-.17.02-.21.08-.05.06.04.07.08.08.27,0,.55.02.82.02h.12s-.06-.02-.09-.03c-.02.67,0,1.34.04,2.01l.18-.12c-.2.02-.4.05-.6.07-.05,0-.09.01-.14.02-.02,0-.06,0-.02,0,0,0-.01,0-.02,0-.04,0-.08,0-.12,0l.09.04c-.04-.71-.06-1.43-.04-2.14,0-.08-.31-.03-.32.08Z"/>
      </g>
      <g>
        <path class="cls-9" d="M840.58,792.14s.09-5.33-.46-5.26l-.2-.8c-3.45.43-15.32,1.93-22.57,3.23-2.21.4-4.99,1.06-8.21,1.82-7.47,1.77-17.71,4.19-28.58,5.1-1.95.16-3.87.28-5.73.33-15.53.47-28.39-2.04-31.15-2.63l-.1.81c-.42-.09-.65-.14-.65-.14,0,0-.23,1.11-.43,2.12h0c-.02.09-.03.18-.05.27-.07.36-.14.69-.19.94,7.7,4.13,40.73,3.81,48.15,1.68.47-.13.97-.27,1.5-.41.22-.06.46-.12.68-.18.35-.09.69-.18,1.06-.27,7.96-2.01,19.8-4.35,19.8-4.35,0,0-.03,1.14,0,2.46h0s0,.03,0,.04c.02.56.04,1.16.1,1.72,13.95-.22,27.05-2.57,27.05-2.57l-.04-3.92Z"/>
        <path class="cls-13" d="M840.74,792.1c.02-1.13,0-2.25-.06-3.38-.03-.5.01-1.24-.24-1.7-.05-.09-.17-.15-.2-.2-.07-.12-.11-.56-.16-.77-.01-.04-.1-.03-.13-.03-5.19.64-10.38,1.33-15.56,2.1-2.96.44-5.94.88-8.87,1.49-3.38.71-6.74,1.55-10.11,2.33-7.54,1.75-15.14,3.26-22.85,4.04s-15.89.72-23.81.02c-4.77-.42-9.54-1.04-14.24-1.99-.24-.05-.47-.1-.71-.15-.06-.01-.27,0-.28.09l-.1.81.28-.09c-.22-.05-.43-.09-.65-.14-.06-.01-.27,0-.28.09-.14.71-.29,1.42-.43,2.12l.3-.08h0c-.06-.04-.29,0-.3.08-.08.4-.16.8-.24,1.2,0,.01,0,.02,0,.03,1.41.75,3,1.15,4.55,1.48,2.2.47,4.43.77,6.67,1,5.49.57,11.02.75,16.53.75,5.05,0,10.13-.14,15.16-.66,1.62-.17,3.25-.36,4.83-.73,3.17-.75,6.31-1.64,9.49-2.36s6.5-1.44,9.77-2.11c1.05-.22,2.1-.43,3.15-.64.3-.06.6-.12.9-.18.07-.01.14-.04.2-.04.15,0-.05-.07-.06.01-.13.76-.01,1.65,0,2.41l.22-.11h0c-.06,0-.23.03-.22.11.03.59.05,1.17.1,1.76,0,.03.07.03.09.03,8.45-.14,16.91-.95,25.26-2.27.61-.1,1.22-.19,1.83-.3.05,0,.18-.04.18-.11-.01-1.31-.02-2.61-.04-3.92,0-.07-.32-.02-.31.08.01,1.31.02,2.61.04,3.92l.18-.11c-6.44,1.16-13.01,1.84-19.53,2.26-1.51.1-3.02.17-4.54.23-.78.03-1.67.17-2.45.07-.22-.03-.26.08-.42-.17-.08-.13-.03-.5-.04-.65-.02-.3-.02-.6-.04-.9l-.22.11h0c.06,0,.23-.03.22-.11-.02-.82-.03-1.64,0-2.46,0-.04-.11-.03-.13-.03-4.46.88-8.91,1.82-13.34,2.82-3.34.75-6.64,1.58-9.95,2.46-1.5.4-3.06.59-4.6.75-4.82.53-9.7.68-14.54.7-5.46.03-10.93-.12-16.36-.63-2.3-.21-4.61-.49-6.88-.93-1.66-.32-3.35-.69-4.9-1.39-.11-.05-.39-.12-.45-.22-.15-.24.14-.94.19-1.2l-.3.08h0c.06.04.29,0,.3-.08.14-.71.28-1.42.43-2.12l-.28.09c.22.05.43.1.65.14.06.01.27,0,.28-.09l.1-.81-.28.09c4.19.89,8.45,1.48,12.71,1.93,7.8.81,15.69,1.05,23.51.44s15.68-2.05,23.39-3.78c3.5-.79,6.98-1.65,10.48-2.44,3.12-.7,6.26-1.22,9.42-1.7,5.5-.84,11.02-1.46,16.53-2.25.26-.04.15-.08.22.11s.1.42.15.63c0,.02.04.03.06.03.56.02.41,4.65.4,5.23,0,.07.31.02.31-.08Z"/>
      </g>
      <g>
        <path class="cls-9" d="M794.64,766.46c.15.22.4.33.65.31.11,0,.22-.04.32-.11.33-.2.42-.63.21-.95l-2.36-3.59c-.38.23-.78.48-1.18.75l2.35,3.57Z"/>
        <path class="cls-13" d="M794.49,766.52c.47.68,1.78.24,1.58-.62-.06-.24-.26-.48-.4-.68-.54-.82-1.08-1.64-1.62-2.45-.15-.23-.3-.46-.45-.69-.04-.06-.2,0-.24.02-.4.24-.79.49-1.18.75-.04.02-.08.06-.05.1.26.4.53.8.79,1.21.42.64.84,1.28,1.27,1.92.1.15.19.3.29.44.05.08.36-.02.29-.12-.26-.4-.53-.8-.79-1.21-.42-.64-.84-1.28-1.27-1.92-.1-.15-.19-.3-.29-.44l-.05.1c.39-.26.78-.51,1.18-.75l-.24.02c.35.54.71,1.07,1.06,1.61l1.27,1.93c.11.17.16.37.11.57-.05.19-.21.37-.41.39-.22.02-.43-.11-.55-.29-.06-.08-.36.02-.29.12Z"/>
      </g>
      <g>
        <path class="cls-9" d="M791.21,768.6c.15.22.4.33.65.31.11,0,.22-.04.32-.11.33-.2.42-.63.21-.95l-2.26-3.44c-.36.27-.73.55-1.11.84l2.19,3.33Z"/>
        <path class="cls-13" d="M791.07,768.66c.46.67,1.72.27,1.59-.57-.04-.25-.25-.49-.38-.69l-1.56-2.36c-.15-.22-.29-.45-.44-.67-.04-.06-.2-.02-.25.01-.38.29-.76.57-1.14.86-.03.02-.04.06-.02.09.25.37.49.75.74,1.12l1.18,1.79c.09.14.18.28.27.42.06.09.37-.01.29-.13-.25-.37-.49-.75-.74-1.12-.39-.6-.79-1.2-1.18-1.79-.09-.14-.18-.28-.27-.42l-.02.09c.36-.28.72-.55,1.08-.82h-.25c.34.53.68,1.05,1.03,1.57l1.21,1.84c.12.18.16.39.08.59-.07.18-.23.34-.43.34-.21,0-.4-.12-.51-.29-.06-.09-.37.02-.29.13Z"/>
      </g>
      <g>
        <path class="cls-9" d="M785.81,767.74l1.97,3c.15.22.4.33.65.31.11,0,.22-.04.32-.11.33-.2.42-.63.21-.95l-2.05-3.11c-.36.28-.73.56-1.11.85Z"/>
        <path class="cls-13" d="M785.65,767.78c.29.45.59.89.88,1.34l1.07,1.62c.07.1.14.19.25.26.28.18.64.14.93,0,.42-.2.6-.67.34-1.07-.33-.51-.67-1.02-1.01-1.53s-.66-1.02-1.01-1.53c0,0-.01-.02-.02-.03-.05-.07-.25.02-.3.06-.37.29-.74.57-1.11.85-.06.04.05.05.07.05.07,0,.15-.03.21-.07.37-.28.74-.57,1.11-.85l-.3.06c.27.41.54.81.8,1.22l1.13,1.72c.14.21.27.42.21.69-.03.13-.1.25-.2.33-.12.1-.24.12-.39.08-.17-.05-.3-.16-.39-.3-.32-.49-.65-.98-.97-1.47s-.64-.99-.97-1.47c0,0-.01-.02-.02-.03-.05-.07-.34.05-.32.08Z"/>
      </g>
      <g>
        <path class="cls-9" d="M784.36,772.88c.15.22.4.33.65.31.11,0,.22-.04.32-.11.33-.2.42-.63.21-.95l-1.85-2.81c-.37.27-.74.55-1.13.82l1.79,2.73Z"/>
        <path class="cls-13" d="M784.21,772.94c.4.58,1.46.38,1.59-.33.06-.31-.11-.54-.27-.77l-1.3-1.98c-.13-.2-.26-.39-.39-.59-.04-.07-.2-.02-.25.01-.37.28-.75.55-1.13.82-.04.03-.08.06-.05.11.52.8,1.05,1.59,1.57,2.39.07.11.15.23.22.34.06.09.37-.01.29-.13-.52-.8-1.05-1.59-1.57-2.39-.07-.11-.15-.23-.22-.34l-.05.11c.38-.27.75-.54,1.13-.82h-.25c.3.47.6.92.9,1.38.32.48.64.95.95,1.44.14.23.14.53-.04.73-.25.29-.65.17-.85-.12-.06-.09-.37.02-.29.13Z"/>
      </g>
      <g>
        <path class="cls-9" d="M780.93,775.02c.15.22.4.33.65.31.11,0,.22-.04.32-.11.33-.2.42-.63.21-.95l-1.72-2.62c-.38.26-.77.52-1.16.77l1.7,2.59Z"/>
        <path class="cls-13" d="M780.77,775.06c.19.27.51.37.83.32s.64-.23.75-.55c.07-.21.04-.42-.08-.61-.04-.06-.08-.12-.12-.18-.41-.62-.82-1.24-1.22-1.86-.13-.19-.25-.38-.38-.57-.04-.06-.23,0-.28.04-.39.26-.77.52-1.16.77,0,0-.05.03-.04.05.5.75.99,1.51,1.49,2.26.07.11.14.21.21.32.05.08.34-.05.32-.08-.5-.75-.99-1.51-1.49-2.26-.07-.11-.14-.21-.21-.32l-.04.05c.39-.25.78-.51,1.16-.77l-.28.04c.29.43.57.87.86,1.3s.58.87.87,1.32c.16.25.15.58-.06.8-.11.12-.23.17-.38.13-.17-.03-.33-.14-.43-.28-.05-.07-.34.05-.32.08Z"/>
      </g>
    </g>
    <path class="cls-28" d="M877.94,389.67l2.82,27.15c1.42,13.66.8,27.47-2.06,40.9-3.41,15.98-8.76,32.15-13.29,46.49l-16.74,96.54s-1.22,42.14,1.86,77.09c2.69,30.3-8.32,84.22-8.32,84.22l-10.35,1.67c-9.35,1.51-18.86,1.57-28.22.18l-20.1-2.98-13.54-179.19-10.58-109.79-17.1-66.33,135.61-15.94Z"/>
    <path class="cls-28" d="M722.42,400.76l7.23,194.02c-.25,8.45,2.84,16.22,5.41,57.01l5.12,69.52,1.68,30.21,5.82,1.21c7.99,1.89,16.19,2.67,24.39,2.31l17.94-.2-9.2-348.31-58.39-5.78Z"/>
    <path class="cls-45" d="M774.67,156.31l8.36,2.1c11.2,2.85,43.16,9.46,51.83,17.12,13.01,11.43-24.89,57.6-24.59,68.86.11,5.46,1.97,45.87,11.79,75.96,6.49,20.02,11.76,40.41,15.79,61.06l-32.63,9.8c-15.94,4.79-32.48,7.32-49.1,7.5l-44.01-.04c-2.53-21.43-6.6-39.4-8.75-67.69l-12.76-90.91.71-41.62s7.5-8.99,8.14-11.19l21.77-18.55s-3.92,17.44,13.01,17.09c17.48-.36,20.43-3.4,31.67-15.41,0,0,8.4-7.94,8.77-14.09Z"/>
    <path class="cls-45" d="M855.6,231.23s2.34,79.88,8.36,100.22c6.02,20.34,18.2,34.68,18.19,65.71,0,13.59-83.1,21.71-112.25,23.47-29.15,1.76-55.38,10.05-58.51-25.51-1.35-15.26,37.59-162.94,37.59-162.94l106.62-.94Z"/>
    <path d="M756.21,456.7c8.63,7.15,11.77,18.87,12.65,29.6.54,6.63.08,13.22.2,19.85.13,7.68.26,15.37.39,23.05.22,12.65.43,25.29.65,37.94.19,11.23.38,22.47.58,33.7.07,3.84-.08,7.74.23,11.57.46,5.67.91,11.35,1.37,17.02.89,11.1,1.78,22.21,2.68,33.31,1.04,12.97,2.09,25.95,3.13,38.92.91,11.28,1.81,22.57,2.72,33.85l1.45,18.08c.02.28.04.56.07.84.01.17,1.13-.02,1.1-.3-.34-4.26-.69-8.53-1.03-12.79-.83-10.36-1.67-20.72-2.5-31.08-1.04-12.94-2.08-25.87-3.12-38.81-.95-11.86-1.91-23.72-2.86-35.58-.58-7.26-1.17-14.53-1.75-21.79-.22-2.77-.25-5.52-.3-8.31-.17-9.98-.34-19.96-.51-29.94-.22-12.89-.44-25.77-.66-38.66-.16-9.43-.32-18.87-.48-28.3-.23-13.71,1.25-27.81-4.41-40.73-1.97-4.49-4.75-8.64-8.55-11.79-.22-.18-1.18.25-1.04.37h0Z"/>
    <path class="cls-45" d="M825.15,342.62c-43.56-5.57-75.3-17.05-119.14-33.25l8.2-30.84,119.96,17.15c-3.22,15.6-5.94,31.3-9.02,46.94Z"/>
    <path class="cls-6" d="M775.04,156.62c-1.02,2.85-2.54,5.57-4.14,8.13-3.62,5.8-8.35,11-14.13,14.7-3.65,2.33-7.7,4.03-11.94,4.92-4.59.96-9.57,1.36-14.23.71-4.1-.57-8.74-2.42-9.76-6.88-.2-.89-.23-1.79-.12-2.69.28-2.15.61-4.29.91-6.44.05-.33-.86.02-.96.12-1.59,1.46-3.19,2.91-4.78,4.37-.46.42-1.31.94-1.62,1.49s-.22,1.55-.23,2.13c-.11,3.54.92,7.44,3.57,9.94,2.2,2.08,5.35,3.09,8.25,3.69,4.15.86,8.47.93,12.68.54,4.67-.43,9.43-1.35,13.84-2.99,8.28-3.08,16.08-8.59,21.9-15.22,2.98-3.38,5.66-7.18,8.03-11.01.65-1.05,1.41-2.17,1.81-3.35.02-.07-.03-.1-.09-.12l-8.1-2.33c-.24-.07-1.14.32-.83.41l6.69,1.93c.38.11.87.17,1.22.35.29.14.07-.15.07,0-.01.36-.41.89-.57,1.19-1.51,2.84-3.42,5.49-5.32,8.08-3,4.07-6.25,7.76-10.19,10.96s-8.71,6.27-13.62,8.31c-5.19,2.15-10.94,3.22-16.53,3.51-7.47.39-18.14-.41-21.03-8.73-.67-1.94-.9-4.04-.75-6.08.08-1.07.04-1.21.75-1.85,1.92-1.76,3.84-3.51,5.76-5.27l-.96.12c-.3,2.14-.61,4.27-.9,6.41-.1.73-.12,1.46-.01,2.19.6,4.2,4.45,6.46,8.28,7.32,4.26.96,8.77.71,13.07.18s8.74-1.75,12.75-3.73c6.58-3.25,12.05-8.37,16.29-14.33,2.36-3.32,4.56-6.99,5.94-10.85.08-.21-.9-.1-1,.17Z"/>
    <path class="cls-45" d="M706.49,310.94l8.2-30.84,110.42,15.79-14.88-49.63.09-81.25s31.14,5.78,41.39,26.51c8.58,20.42,21.37,87.86,24.08,110.4l.12.03s7.91,35.49-14.26,41.46c-22.17,5.97-55.46-2.23-55.46-2.23h0c-34.22-6.23-62.64-16.55-99.7-30.25Z"/>
    <path class="cls-6" d="M713.53,334.43c-.07-1.86-.15-3.73-.22-5.59l-.43.43c3.82-.89,7.64-1.79,11.45-2.68,9.17-2.14,18.33-4.29,27.5-6.43,11.05-2.58,22.09-5.17,33.14-7.75,9.59-2.24,19.18-4.48,28.76-6.73,3.17-.74,6.34-1.48,9.51-2.22,1.47-.34,3.03-.58,4.47-1.05.06-.02.13-.03.2-.05.18-.04.48-.2.43-.43-1.31-6.01-2.62-12.02-3.93-18.03-2.15-9.89-4.31-19.79-6.46-29.68-.81-3.72-1.61-7.42-2.6-11.1-2.42-9.01-4.3-18.24-5.2-27.53-.52-5.45-.73-11.01.03-16.45.6-4.23,1.81-8.84,4.97-11.91.69-.68,1.48-1.25,2.33-1.71.61-.33.05-.75-.42-.49-8.36,4.45-8.63,16.53-8.34,24.72.36,10.31,2.31,20.58,4.81,30.56.91,3.65,1.88,7.24,2.69,10.91,2.08,9.57,4.17,19.14,6.25,28.71,1.03,4.72,2.06,9.44,3.08,14.16.36,1.65.72,3.31,1.08,4.96.19.88.27,1.93.6,2.77.05.11.06.25.08.37l.43-.43c-3.82.89-7.64,1.79-11.45,2.68-9.17,2.14-18.33,4.29-27.5,6.43-11.05,2.58-22.09,5.17-33.14,7.75-9.59,2.24-19.18,4.48-28.76,6.73-3.17.74-6.34,1.48-9.51,2.22-1.47.34-3.03.58-4.47,1.05-.06.02-.13.03-.2.05-.21.05-.44.2-.43.43.07,1.86.15,3.73.22,5.59.01.38,1.03.16,1.01-.27h0Z"/>
    <path class="cls-6" d="M716.55,360.46c3.92-.02,7.84-.09,11.76-.17,9.78-.19,19.56-.5,29.33-.91,12.88-.54,25.75-1.27,38.6-2.29s26.17-2.34,39.15-4.29c9.63-1.45,19.01-3.95,27.57-8.76,1.6-.9,3.15-1.88,4.64-2.94.56-.4-.29-.62-.65-.37-8.34,5.93-18.42,9.37-28.47,10.98-12.68,2.02-25.47,3.37-38.26,4.44s-25.67,1.85-38.53,2.43c-10.16.46-20.32.8-30.49,1.02-4.68.1-9.42-.07-14.09.22-.07,0-.13,0-.2,0-.42,0-1.06.65-.38.64h0Z"/>
    <path class="cls-6" d="M826.62,302.28c3.65-.29,7.26,2.09,9.96,4.3,2.9,2.37,5.67,5.35,7.22,8.79.56,1.23,1.07,2.77.56,4.11-.08.19.9.1,1-.17.45-1.17.14-2.49-.3-3.62-.65-1.68-1.66-3.2-2.76-4.61-2.57-3.29-5.91-6.28-9.72-8.04-1.73-.8-3.6-1.34-5.51-1.18-.28.02-1.1.48-.43.43h0Z"/>
    <g>
      <path d="M700.88,150.96c.73,1.76,1.02,3.68,2.23,5.15-.65.32-.21,1.33.39,1.73.6.4,1.41.82,1.35,1.53-.02.25-.15.48-.16.73-.04.79.97,1.13,1.75,1.22-.46.47.09,1.24.66,1.57s1.29.75,1.21,1.4c-.04.32-.29.61-.24.93.11.67,1.2.51,1.65,1.02.26.29.23.73.37,1.1.29.75,1.44.96,1.98.37.34,1.33,1.17,2.99,2.52,2.73.83-.16,1.52-1.09,2.34-.85.51.14.8.69,1.27.91,1.61.74,3.01-2.62,4.62-1.88.87.4,1.03,1.8,1.97,1.97.88.16,1.5-.93,2.37-1.15.95-.24,2.07.59,2.87.02.35-.25.49-.68.77-1,.64-.73,1.51.11,2.47.27,1.71.28,1.69-.92,1.69-.92.32-1.22.97-1.22,2.15-.77.39.15.77.42,1.18.38,1.02-.1,1.26-1.83,2.28-1.88.38-.02.71.22,1.07.32,1.31.39,2.59-1.46,1.77-2.55,1.54-.2,2.7-1.93,2.29-3.43,1.5.27,3.05-1.17,2.9-2.68,1.75.23,3.25-2.03,2.37-3.56,1.24.28,2.56-.98,2.34-2.23-.11-.64-.5-1.42-.02-1.86.32-.29.82-.19,1.24-.26,1.03-.16,1.64-1.55,1.05-2.41,1.73.18,2.95-2.37,1.73-3.6,1.36.11,2.29-1.89,1.33-2.86,1.8-.31,2.68-2.9,1.45-4.25l-17.85,24.4-5.04,3.22s-18.84,4.43-22.67,3.31c-3.83-1.12-13.67-16.11-13.67-16.11Z"/>
      <path d="M700.51,151.06c.71,1.76,1.05,3.68,2.26,5.2l.11-.25c-.53.33-.56.86-.26,1.38.37.65,1.1.83,1.57,1.36.58.65-.17,1.35.3,2.01.37.52,1.13.69,1.72.76l-.12-.21c-.77,1.01.79,1.7,1.39,2.19.26.21.49.48.46.83-.02.28-.22.51-.24.79-.03.44.28.65.65.79.53.2,1.02.24,1.21.85.14.46.16.87.57,1.18.66.49,1.65.36,2.23-.19l-.66.04c.33,1.23,1.06,2.94,2.59,2.86.33-.02.63-.11.93-.25.45-.21,1.04-.8,1.58-.59.37.14.62.55.96.76.24.14.5.22.78.22,1.19.02,2.01-1.05,2.87-1.7.64-.48,1.16-.49,1.67.19.37.49.62,1.15,1.23,1.41.57.24,1.21.02,1.7-.3.32-.21.6-.5.94-.67.55-.28,1.17,0,1.74.09.64.1,1.32.03,1.8-.45.3-.3.5-.98.98-.98.39,0,.85.33,1.23.44.89.26,2.3.2,2.61-.87.13-.45.16-1.04.77-.98.81.09,1.45.76,2.3.61.66-.12,1.05-.62,1.42-1.14.11-.15.21-.3.33-.44.25-.28.44-.28.81-.16s.69.28,1.1.25c1.36-.09,2.59-1.7,1.74-2.95l-.39.35c1.74-.29,3.13-1.93,2.71-3.73l-.6.3c1.76.24,3.61-1.12,3.49-2.98l-.51.31c1.94.17,3.87-1.99,2.88-3.86l-.6.3c.87.15,1.76-.15,2.36-.81.29-.32.52-.73.58-1.16.07-.52-.14-.98-.22-1.48s0-.76.55-.87c.21-.04.43-.02.64-.07.38-.09.72-.28.99-.56.57-.59.71-1.46.29-2.17l-.49.35c1.93.12,3.67-2.37,2.21-3.96l-.49.35c1.56.04,3-1.88,1.82-3.21l-.29.33c1.97-.41,3.12-2.96,1.75-4.58-.15-.18-.57-.02-.69.14-2.73,3.73-5.46,7.46-8.19,11.19-3.17,4.33-6.34,8.66-9.51,12.99-.08.11-.28.29-.05.12-.38.28-.81.51-1.2.77-.74.47-1.49.95-2.23,1.42-.49.31-1.04.59-1.5.95-.2.16.1-.01.05,0-.08.01-.16.04-.24.06-.36.08-.72.17-1.08.25-1.35.3-2.7.6-4.05.88-3.66.76-7.35,1.47-11.06,1.95-1.5.19-3.03.37-4.55.33-1.08-.03-1.88-.29-2.74-.96-1.25-.96-2.32-2.15-3.35-3.34-1.23-1.42-2.4-2.9-3.53-4.4-1.75-2.33-3.44-4.71-5.05-7.13-.09-.13-.18-.27-.26-.4-.13-.2-.85.04-.69.29,1.22,1.85,2.49,3.67,3.79,5.46,2.19,3.03,4.46,6.11,7.16,8.71.8.77,1.74,1.68,2.84,1.99s2.38.2,3.51.13c3.72-.25,7.43-.96,11.09-1.67,2.69-.52,5.36-1.09,8.03-1.7.66-.15,1.19-.59,1.76-.95,1.23-.78,2.54-1.51,3.71-2.37.3-.22.49-.56.7-.85l1.7-2.32c1.88-2.57,3.76-5.14,5.64-7.71l9.82-13.42.17-.24-.69.14c1.03,1.21.5,3.57-1.16,3.92-.1.02-.43.17-.29.33.65.73.34,2.54-.85,2.51-.12,0-.67.15-.49.35.92,1.01.32,3.35-1.24,3.25-.16,0-.62.12-.49.35.38.65.18,1.8-.62,2.06-.61.2-1.27-.05-1.74.53s-.03,1.28.05,1.9c.12.98-.67,2.11-1.75,1.93-.11-.02-.71.08-.6.3.68,1.3-.23,3.39-1.86,3.25-.17-.01-.53.09-.51.31.08,1.24-.98,2.57-2.3,2.39-.15-.02-.65.05-.6.3.3,1.29-.48,2.9-1.87,3.13-.13.02-.53.14-.39.35.43.64.2,1.51-.37,2-.68.58-1.38-.2-2.14-.11-.51.06-.9.36-1.21.74-.16.2-.3.43-.46.64-.09.11-.19.3-.33.37-.32.16-.67-.01-.98-.15-.91-.4-2.2-.72-2.79.34-.16.29-.16.6-.28.88-.3.71-1.32.31-1.83.1-.56-.22-1.13-.44-1.72-.2-.81.34-.87,1.52-1.92,1.34-.71-.12-1.38-.34-2.09-.1-.27.09-.51.23-.74.39-.32.22-.78.74-1.2.69-.62-.07-.96-1.02-1.29-1.43-.31-.39-.73-.64-1.24-.65-1.06-.02-1.87.87-2.62,1.49-.24.2-.51.44-.82.54-.43.15-.76-.14-1.07-.41-.55-.5-1.1-.72-1.83-.47-.86.3-1.6,1.21-2.49.46-.67-.57-1-1.49-1.22-2.31-.06-.24-.55-.06-.66.04-.4.38-1.02.12-1.26-.31-.2-.34-.15-.77-.36-1.11-.37-.59-1.16-.4-1.58-.85-.34-.37.13-.87.11-1.29-.01-.3-.18-.55-.39-.76-.47-.45-2.19-1.11-1.51-1.99.07-.1-.02-.19-.12-.21-.5-.07-1.19-.19-1.49-.65-.34-.53.22-1.14-.08-1.71-.23-.43-.69-.69-1.09-.95-.33-.22-1.32-1.17-.66-1.58.08-.05.19-.15.11-.25-1.18-1.49-1.51-3.38-2.2-5.11-.1-.26-.83-.03-.74.2Z"/>
    </g>
    <path d="M713.03,161.51c.12-.04.22-.1.31-.18,1.63-1.53,1.66-2.24,2.53-2.61.2-.08.29-.18.92-.38,2.54-.8,4.07-1.34,11.79,1.89.15.07,9.08-2.64,9.26-2.68l4.33-3.02c.7-.62,15.83-18.47,15.83-18.47.18-.54,2.77-4.61,2.82-5.11.05-.04.1-.08.15-.11.02-.01.06-.04.1-.07.01.03.03.07.04.09.07.2.1.41.12.62.11.9.08,1.8-.04,2.7-.19,1.38-.2,2.75-.33,4.13-.05.49-.12.97-.21,1.45-1.8,1.59-11.86,19.88-18.54,24.73-.45.21-1.87.88-5.79,1.89-7.37,1.9-14.58,3.11-22.3,2.22-2.01-.23-3.79-1.34-4.86-2.99-3.06-4.71-9.83-15.18-12.31-22.56,2.78,4.05,8.68,12.74,12.72,18.65.12.18,2.99-.15,3.23-.12"/>
    <path d="M701.9,139.65c-.61.77-1.25,1.66-1.14,2.64.04.36.18.69.31,1.02.21.51.42,1.02.64,1.53.04.1.09.21.18.27.1.07.22.08.34.09.38.03.78.05,1.14-.09s.66-.5.61-.88c-.02-.16-.1-.31-.06-.46.07-.3.47-.34.75-.47.7-.33.68-1.3.87-2.04.26-1.01,1.09-1.79,2-2.3.46-.26.96-.47,1.35-.81s.69-.88.57-1.39"/>
    <polyline class="cls-23" points="583.56 339.36 645.1 364.11 674.36 371.15 695.91 349 696.04 345.88 599.11 306.02 583.56 339.36"/>
    <polygon class="cls-14" points="583.56 339.36 585.74 337.03 601.7 309.12 695.91 349 671.05 374.55 645.1 364.11 583.56 339.36"/>
    <path d="M656.36,364.24c-.1.22-15.71-5.81-34.86-13.47-19.15-7.66-34.65-14.11-34.53-14.28s15.68,5.82,34.84,13.47c19.17,7.66,34.62,14.05,34.54,14.27Z"/>
    <path class="cls-6" d="M683.48,237.13c4.67,15.25,7.7,30.97,10.57,46.65,2.26,12.34,4.61,24.67,6.83,37.02,1.31,7.28,2.51,14.58,3.63,21.9.06.37,1.08.13,1.01-.27-1.65-10.75-3.57-21.42-5.59-32.1-3.02-15.95-5.61-31.99-8.99-47.87-1.83-8.6-3.88-17.17-6.46-25.59-.12-.38-1.13-.1-1.01.27h0Z"/>
    <path class="cls-27" d="M683.29,335l29.79-1.64,3.66,24.19-25.1,11.11s-19.98,5.64-20.63,5.87c-1.94.67-5.41-.9-5.02-2.92l.37-2s-6.78,1.72-8.41-2.99c0,0-4.79,1.21-6.14-3.18-1.35-4.39,2.57-4.75,2.57-4.75l7.55-3.91-24.96-6.08c-.81-1.35-.38-3.1.97-3.92.31-.19.66-.32,1.02-.37,3.79-1.02,28.37.99,30.19,1.44s8.9-3.89,9.74-5.61c1.28-1.89,2.75-3.64,4.39-5.24Z"/>
    <path class="cls-25" d="M672.69,358.56c-2.33,1.82-4.82,3.15-7.48,4.41-2.66,1.25-5.25,2.32-8.14,2.94-.52.11-1.37.61-1.22,1.26.17.68,1.2.58,1.68.48,3.13-.68,6-1.85,8.89-3.21s5.61-2.8,8.13-4.77c.45-.35.79-.92.2-1.33-.54-.37-1.58-.16-2.07.22h0Z"/>
    <path class="cls-25" d="M676.79,364.31c-3.5,2.41-7.43,4.02-11.6,4.81-.52.1-1.37.62-1.22,1.26.17.69,1.2.57,1.68.48,4.66-.88,9.1-2.75,13-5.44.45-.31.79-.96.2-1.33s-1.53-.15-2.07.22h0Z"/>
    <path class="cls-3" d="M767.53,113.66c.71-2.98,1.56-6.01,3.01-8.73.56-1.04,1.27-2.13,2.16-2.75.11-.08-.11.07,0,0,.02-.01.06-.05.09-.05.18-.02-.06.02-.02,0,.18-.06-.2.05-.25.06l-.56-.07c.52.43.92,1.05,1.23,1.64.87,1.66,1.13,3.56,1.06,5.42-.01.33,1.43.11,1.45-.39.08-2.17-.3-4.39-1.54-6.21-.22-.32-.48-.74-.81-.96-.3-.21-.71-.1-1.03.02-1.66.61-2.7,2.48-3.44,3.95-1.31,2.6-2.11,5.46-2.78,8.28-.1.43,1.34.21,1.44-.22h0Z"/>
    <path class="cls-3" d="M768.69,114.75c1.12-.28,1.18,2.68,1.21,3.24.06,1-.06,3.24,1.5,3.04.83-.11,1.22-.65,1.41-1.41.28-1.13.29-2.34.28-3.5-.01-1.55-.15-2.89-.65-4.35-.59-1.71-1.58-3.65-3.51-4.06-.31-.06-.79.06-1.02.27-.22.2-.18.37.12.44,1.52.32,2.36,2.1,2.85,3.4.41,1.09.67,2.16.73,3.32.07,1.3.09,2.62-.09,3.91-.05.38-.12.78-.25,1.14,0,0-.18.35-.18.35.01.04.84-.26.84-.24,0-.05-.13-.1-.15-.16-.41-1.23-.37-2.49-.52-3.77-.08-.65-.19-1.39-.64-1.9-.52-.6-1.39-.53-2.08-.36-.18.05-.71.23-.64.5s.64.16.81.12h0Z"/>
    <rect class="cls-18" x="418.42" y="872.18" width="33.25" height="24.03"/>
    <polygon class="cls-37" points="451.67 896.22 460.17 891.65 460.17 867.62 451.67 872.18 451.67 896.22"/>
    <polygon class="cls-60" points="418.42 872.18 426.93 867.62 460.17 867.62 451.67 872.18 418.42 872.18"/>
    <path class="cls-25" d="M310.75,778.03c8.13,0,16.13-2.04,24.14-3.15,6.38-.89,12.79-1.56,19.17-2.47,3.58-.51,7.13-1.11,10.68-1.81.27-.05,1.04-.2,1.11-.54s-.6-.26-.77-.22c-12.84,2.54-25.92,3.42-38.8,5.68-4.73.83-9.49,1.69-14.31,1.69-.37,0-1.08.04-1.34.36-.18.21-.36.46.12.46h0Z"/>
  </g>
  <g id="Layer_3" data-name="Layer 3">
    <path class="cls-27" d="M381,758.73c-2.48.61-5.38,2.04-7.59,3.21-2.65,1.61-8.41,8.51-8.41,8.51l-10.91,2.18,4.18,15.02,9.59-2.54,9.84,1.57s18.27-.89,20.29-2.46c2.02-1.57,3.86-6.74,3.86-6.74,3.02-1.63,2.76-6.15,2.76-6.15,3.98-4.23.09-4.73.09-4.73.17-.11.31-.27.38-.45.88-1.96-1.89-3.78-3.65-2.56-2.97,2.02-7.01,4.68-7.65,4.6-.63-.08-4.94-.01-8.7.07-1.92.12-3.63-1.22-3.82-3-.02-.17-.2-1.41-.2-1.41"/>
    <path class="cls-25" d="M389.69,774.72c3.3.26,6.75-.19,9.63-1.87,1.23-.72,2.37-1.61,3.34-2.65,1.05-1.12,2.08-2.34,2.74-3.74.4-.85-1.49-.67-1.78-.07-.57,1.19-1.39,2.21-2.26,3.2-.82.93-1.78,1.74-2.83,2.4-2.42,1.52-5.31,1.82-8.12,1.6-.4-.03-1.04.15-1.25.53s.19.58.53.6h0Z"/>
    <path class="cls-25" d="M389.98,778.75c1.93.09,3.88.17,5.79-.25s3.49-1.39,4.97-2.62c.73-.6,1.43-1.25,2.14-1.88.95-.84,1.91-1.63,2.66-2.66.27-.37-.24-.58-.53-.6-.44-.03-.98.16-1.25.53-1.06,1.44-2.65,2.58-3.99,3.76-1.16,1.02-2.4,1.98-3.91,2.37-1.68.43-3.44.29-5.15.21-.41-.02-1.04.14-1.25.53s.18.59.53.6h0Z"/>
    <path class="cls-25" d="M391.28,783.03c1.14-.03,2.27-.12,3.4-.22,1.44-.13,2.84-.18,4.09-.97,1.09-.69,2.12-1.55,2.94-2.55.3-.36,1.54-1.75,1.01-2.3-.33-.34-.88-.31-1.29-.12-.28.13-.79.6-.46.94l-.07-.25v.05s0-.02-.05.08c-.07.14-.15.28-.23.42-.26.42-.58.79-.92,1.15-.67.71-1.53,1.51-2.43,1.9-.44.19-.97.19-1.44.23-.54.05-1.08.1-1.62.15-.92.07-1.83.13-2.75.16-.4.01-1,.3-1.05.75-.06.48.51.59.87.58h0Z"/>
    <path class="cls-25" d="M345.35,794.51c3.83-1.35,7.66-2.7,11.5-4.05l8.26-2.91c1.37-.48,3.06-.81,4.34-1.53.31-.17,0,.73-.66.12.06.06.32.01.41.02.73.1,1.49.08,2.22.12l3.62.19c.75.04,2.01-1.05.73-1.12-2.06-.11-4.2-.41-6.26-.34-1.28.05-2.74.85-3.92,1.27-5.46,1.93-10.93,3.85-16.39,5.78-1.53.54-3.07,1.08-4.6,1.62-.3.11-.73.45-.5.79s.97.14,1.26.03h0Z"/>
    <rect class="cls-19" x="413.05" y="845.13" width="33.25" height="24.03"/>
    <polygon class="cls-50" points="446.3 869.16 454.8 864.6 454.8 840.57 446.3 845.13 446.3 869.16"/>
    <polygon class="cls-15" points="413.05 845.13 421.56 840.57 454.8 840.57 446.3 845.13 413.05 845.13"/>
  </g>
</svg>