<?xml version="1.0" encoding="UTF-8"?>
<svg xmlns="http://www.w3.org/2000/svg" xmlns:xlink="http://www.w3.org/1999/xlink" viewBox="0 0 1334 1000">
  <defs>
    <style>
      .cls-1 {
        fill: #3c5c2c;
      }

      .cls-2 {
        fill: #072b3a;
      }

      .cls-3 {
        fill: #444136;
      }

      .cls-4 {
        fill: #acabab;
      }

      .cls-5 {
        fill: #151312;
      }

      .cls-6 {
        fill: #774639;
      }

      .cls-7 {
        fill: #24120e;
      }

      .cls-8 {
        fill: #939393;
      }

      .cls-9 {
        fill: #0e0c0c;
      }

      .cls-10 {
        fill: #273339;
      }

      .cls-11 {
        fill: #3e525a;
      }

      .cls-12 {
        fill: #476c34;
      }

      .cls-13 {
        fill: #13100f;
      }

      .cls-14 {
        fill: #010101;
      }

      .cls-15 {
        fill: #232021;
      }

      .cls-16 {
        fill: #11394c;
      }

      .cls-17 {
        fill: url(#linear-gradient-2);
      }

      .cls-18 {
        fill: #653c29;
      }

      .cls-19 {
        fill: #5a2b0e;
      }

      .cls-20 {
        fill: #fccf4e;
      }

      .cls-21 {
        fill: #225429;
      }

      .cls-22 {
        fill: #27153c;
      }

      .cls-23 {
        fill: #331d17;
      }

      .cls-24 {
        fill: url(#linear-gradient);
      }

      .cls-25 {
        fill: #152d18;
      }

      .cls-26 {
        fill: #f1eef7;
      }

      .cls-27 {
        fill: #a66e53;
      }

      .cls-28 {
        fill: #545146;
      }

      .cls-29 {
        fill: #6a5a9c;
      }

      .cls-30 {
        fill: #fff;
      }

      .cls-31 {
        fill: #59332b;
      }

      .cls-32 {
        fill: #354c24;
      }

      .cls-33 {
        fill: #ae872e;
      }

      .cls-34 {
        fill: none;
        stroke: #000;
        stroke-miterlimit: 10;
        stroke-width: .94px;
      }

      .cls-35 {
        fill: #a87159;
      }

      .cls-36 {
        fill: #e0e1e0;
      }

      .cls-37 {
        fill: #89623e;
      }

      .cls-38 {
        fill: #456eb5;
      }

      .cls-39 {
        fill: #6b6b6b;
      }

      .cls-40 {
        fill: #24180f;
      }

      .cls-41 {
        fill: #825639;
      }

      .cls-42 {
        fill: #f2e223;
      }

      .cls-43 {
        fill: #38211a;
      }

      .cls-44 {
        fill: #465b65;
      }

      .cls-45 {
        fill: #787878;
      }

      .cls-46 {
        fill: #4f2e25;
      }

      .cls-47 {
        fill: #999;
      }

      .cls-48 {
        fill: #9b8fc1;
      }

      .cls-49 {
        fill: #89ad96;
      }
    </style>
    <linearGradient id="linear-gradient" x1="656" y1="1024.18" x2="708.01" y2="-210.7" gradientUnits="userSpaceOnUse">
      <stop offset=".29" stop-color="#bbe5f5"/>
      <stop offset=".81" stop-color="#76c7db"/>
    </linearGradient>
    <linearGradient id="linear-gradient-2" x1="659.62" y1="1114.22" x2="686.19" y2="483.4" gradientUnits="userSpaceOnUse">
      <stop offset=".01" stop-color="#769a3e"/>
      <stop offset=".98" stop-color="#496b33"/>
    </linearGradient>
  </defs>
  <g id="Layer_4" data-name="Layer 4">
    <rect class="cls-24" x="-11.28" y="-24.7" width="1381.55" height="981.99"/>
    <path class="cls-12" d="M367.65,598.13c7.99-8.65,16.46-18.43,16.7-30.2s-13.32-23.53-23.13-17.02c2.85-7.08.18-15.96-6.1-20.29-6.28-4.33-15.53-3.68-21.13,1.49-3.18-17.08-29.28-23.82-40.33-10.41,1.04-6.67-8.38-11.15-14.25-7.81-5.86,3.34-7.87,10.96-7.4,17.69-3.84-7.88-12.84-12.91-21.56-12.05-8.72.86-16.57,7.55-18.79,16.03-.84-7.45-2.06-15.67-7.82-20.48-5.75-4.81-17.19-2.09-17.04,5.41,1.73-10.59-4.18-21.98-13.83-26.68-9.65-4.7-22.25-2.32-29.53,5.57-1.41-10.38-5.29-21.21-13.91-27.17-8.62-5.96-22.72-4.41-27.11,5.11-4.96-8.12-12.92-15.55-22.43-15.54-9.51,0-18.35,11.29-13.19,19.28-7.03-11.74-28.96-7.11-30.65,6.47-5.06-7.84-15.6-11.66-24.51-8.88-8.91,2.79-15.4,11.93-15.09,21.26-8.86-5.45-21.16-4.58-29.16,2.08-8,6.66-11.09,18.6-7.33,28.3-26.63,2.13-46.07,34.11-35.72,58.73"/>
    <path class="cls-19" d="M170.64,312.35s7.41,17.75,7.35,30.62c-.06,12.87,3.08,27.07,2.05,41.71-1.03,14.64-14.11,189.93-14.11,189.93l58.82,1.59s-3.93-157.62-5.39-188.35c-1.29-27.03-48.72-75.5-48.72-75.5Z"/>
    <path class="cls-1" d="M500.32,199.89c17.03.33,33.83,3.33,49.46,8.85-8.72-15.54-30.6-25.41-51.4-23.2l7.81-16.24,20.79,12.16c-2.82-17.98-15.25-34.02-33.96-43.84l38.83,10.08c-6.33-12.84-19.88-22.39-36.39-25.66l37.16-.24c-7.9-11.72-26.69-17.24-42.13-13.24,6.63-2.39,12.96-5.3,18.86-8.73,2.47-1.42,5.14-3.47,3.76-6.05-.78-1.46-2.6-2.41-4.55-2.56-9.94-.78-19.88,1.21-28.21,5.6l26.73-25.35c-12.98-3.1-28.27,3.6-32.21,14.14-3.1-20.92-21.52-39.42-41.71-49.17l4.2,1.87c-1.56-.75-3.16-1.44-4.74-2.14-.54-.26-1.08-.51-1.62-.75l32.26-20.46c-23.96-5.5-47.62.95-66.21,9.52-1.3-.29-2.59-.6-3.89-.86L424.37.81c-21.94-6.14-39.51,3.31-50.67,12.71-2.13.76-4.2,1.66-6.17,2.7l26.73-25.35c-12.98-3.1-28.27,3.6-32.21,14.14-3.1-20.92-21.52-39.42-41.71-49.17l4.2,1.87c-1.56-.74-3.16-1.43-4.74-2.14-.54-.26-1.08-.51-1.62-.75l32.25-20.46c-23.96-5.5-47.62.95-66.21,9.52-1.3-.29-2.59-.6-3.89-.86l31.23-22.81c-27.17-7.61-47.64,8.69-57.52,19.21-18.09-1.31-36.47-.27-54.44,3.24,10.27-8.82,22.34-16.12,35.68-21.58-26.15-9.11-59.63-.86-75.13,18.5,5.26-9.99,8.75-20.54,10.36-31.33-15.74,3.21-26.73,17.44-23.48,30.39-2.84-11.14-7.7-21.88-14.42-31.86-1.32-1.96-4.06-3.14-6.74-2.67-3.84.68-4.28,3.89-4.16,6.55.59,11.62,5.47,22.82,14.02,32.14-9.67-1.45-14.87-11.13-25.51-11.25-3.38-.04-6.65,1.5-7.85,4.07-2.42,5.2,5,9.35,11.39,10.46,6.17,1.07,13.53,1.59,16.76,6.01-32.96,2.86-60.48,28.34-59.74,55.28-5.07-7.73-10.14-15.46-15.2-23.17-2.11,11.21-.62,22.67,4.32,33.27C53.51,3.71,34.26-5.21,16.46-2.67c11.78,8.14,21.65,17.95,29.14,28.96-11.48-6.23-26.23-6.84-38.44-1.6l35.32,15.66c-34.26-5.29-71.79,7.61-91.01,31.33,5.74-12.21,9-25.11,9.66-38.17-16.74,7.04-25,25.07-18.01,39.3-9.49-10.32-24.75-16.02-40.55-15.15,6.48,9.83,14.88,18.75,24.87,26.39l-3.45,2.43c-18.91.4-36.56,12.1-40.82,27.01l20.91-7.56c-7.09,7.15-11.7,15.72-13.35,24.81l15.76-4.86c-7.68,5.89-12.81,13.51-15.47,21.74v-.03s-23.51-.95-24.23,27.37l22.24-10.77c.72,10.53,5.23,20.83,13.43,28.87-2.55,8.99-4.73,20.14-3.4,29.02,2.44,16.26,46.16,76.76,115.8,51.17,1.79,1.8,3.69,3.52,5.85,5.07-.3,6.94,2.64,13.72,8.21,18.98,3.57-6.34,7.15-12.68,10.74-19.03,2.15,7.92,6.5,15.34,12.71,21.69.52-7.75,3.52-15.25,8.71-21.76l16.24,4.6c-2.32,3.43-3.8,8.45-2.76,15.85,2.9,20.65,13.77,23.01,13.77,23.01l10.34-32.82,26.86,7.6c-8.13,7.38-10.65,17.78-6.57,27.12,4.79-6.7,11.58-12.3,19.74-16.29-4.75,10.02-4.68,21.12.19,31.1,4.82-7.37,9.65-14.71,14.49-22-.82,14.66,6.01,28.91,18.8,39.24,3.55-13.03,2.83-26.59-2.09-39.31,9.49,9.55,16.4,20.62,20.28,32.49,3.89-10.13,3.36-21.03-1.49-30.88l4.26,4.22c13.83,13.72,38.91,15.33,55.21,3.54,13.14-5,28.19-5.53,41.82-1.47-8,13.69-7.24,29.71,2.03,42.85,5.38-12.72,10.74-25.41,16.1-38.09.74,10.12,1.47,20.25,2.21,30.39,12.71-10.51,19.55-24.81,18.92-39.55,4.4,12.48,11.94,24.07,22.16,34.04,4.5-12.32,2.52-25.6-5.45-36.69,11.52,6.31,21.19,14.61,28.3,24.31,3.72-12.12-.19-24.95-10.45-34.23,11.79,7.09,23.57,14.19,35.33,21.31,5.17-5.21,13.73-20.94,1.68-30.38,19.18-9.55,10.54-3.78,32.42-7.96l18.57,11.33c7.46-9.22,9.03-20.8,4.2-31.12l24.91,29.47c.07-13.87.13-27.75.19-41.62l32.99,31.55c.2-14.9-5.26-29.48-15.62-41.76,13.25,5.56,24.97,13.26,34.45,22.62,1.48-18.49-9.49-36.18-28.64-46.2l37.57,6.53c-6.66-15.38-22.3-27.05-41.7-31.11Z"/>
    <path class="cls-19" d="M275.24,285.73l46.44-47.03-4.12-9.21-36.53,35.87-38.89,33.09,40.96-135.1-6-5.08-33.81,78.32-24.96-35.44h-4.12l29.07,41.59-14.51,68.53-24.71,22.5c-.44-1.88-.88-3.53-1.26-4.86l-27.45-63.96,20.7-68.98-4.65-2.37s-19.49,51.02-22.42,53.89-23.8-51.98-23.8-51.98l-33.93-71.93-11.21,6.12,32.37,67.22-41.07-31.4-3.75,3.88,38.43,34.1s30.79,48.2,29.61,52.92c-1.18,4.72-90.6-23.16-90.6-23.16l-2.94,5.44s81.87,26.71,88.25,35.22c6.38,8.51,19.22,35.91,22.06,44.9,2.26,6.99,7.21,16.85,6.86,20.87,0,0,11.46,24.84,12.36,56.73-5.44,14.39,6.73,32.86,4.87,47.83l3.22,33.69,15.98-26.3-2.61-13.1c-1.51-35.54,14.06-75.98,14.89-87.16l45.5-59.05,63.86-23.15v-4.26l-62.11,20.79Z"/>
    <polygon class="cls-19" points="139.01 196.25 182.15 111.99 191.58 118.06 147.09 211.08 139.01 196.25"/>
    <polygon class="cls-19" points="260.55 196.25 303.69 111.99 313.13 118.06 268.64 211.08 260.55 196.25"/>
    <polygon class="cls-19" points="273.84 163.81 220.15 85.84 238.29 91.84 290.73 163.73 273.84 163.81"/>
    <polygon class="cls-19" points="307.22 237.95 378.11 206.97 395.33 204.56 305.24 254.72 307.22 237.95"/>
    <polygon class="cls-19" points="317.19 244.12 335.57 175.95 330.77 150.87 301.23 249.67 317.19 244.12"/>
    <path class="cls-12" d="M924.52,581.46c7.99-8.65,16.46-18.43,16.7-30.2.24-11.77-13.32-23.53-23.13-17.02,2.85-7.08.18-15.96-6.1-20.29-6.28-4.33-15.53-3.68-21.13,1.49-3.18-17.08-29.28-23.82-40.33-10.41,1.04-6.67-8.38-11.15-14.25-7.81-5.86,3.34-7.87,10.96-7.4,17.69-3.84-7.88-12.84-12.91-21.56-12.05-8.72.86-16.57,7.55-18.79,16.03-.84-7.45-2.06-15.67-7.82-20.48-5.75-4.81-17.19-2.09-17.04,5.41,1.73-10.59-4.18-21.98-13.83-26.68s-22.25-2.32-29.53,5.57c-1.41-10.38-5.29-21.21-13.91-27.17-8.62-5.96-22.72-4.41-27.11,5.11-4.96-8.12-12.92-15.55-22.43-15.54-9.51,0-18.35,11.29-13.19,19.28-7.03-11.74-28.96-7.11-30.65,6.47-5.06-7.84-15.6-11.66-24.51-8.88-8.91,2.79-15.4,11.93-15.09,21.26-8.86-5.45-21.16-4.58-29.16,2.08-8,6.66-11.09,18.6-7.33,28.3-26.63,2.13-48.91,72.57-38.55,97.19"/>
    <path class="cls-32" d="M726.04,631.55c-6.32-6.84-13.02-14.57-13.21-23.88-.19-9.31,10.53-18.61,18.29-13.46-2.25-5.59-.14-12.62,4.82-16.04,4.96-3.43,12.28-2.91,16.71,1.18,2.51-13.51,23.15-18.83,31.89-8.23-.82-5.27,6.63-8.82,11.27-6.17,4.64,2.64,6.22,8.67,5.85,13.99,3.03-6.23,10.15-10.21,17.05-9.53,6.9.68,13.1,5.97,14.86,12.67.66-5.89,1.63-12.39,6.18-16.2s13.6-1.65,13.48,4.28c-1.36-8.38,3.3-17.38,10.93-21.1,7.63-3.72,17.6-1.84,23.35,4.4,1.12-8.21,4.19-16.77,11-21.49,6.81-4.72,17.97-3.48,21.44,4.04,3.92-6.42,10.21-12.29,17.74-12.29,7.52,0,14.51,8.93,10.43,15.25,5.56-9.28,22.9-5.62,24.24,5.11,4-6.2,12.34-9.22,19.38-7.02,7.04,2.2,12.18,9.43,11.93,16.81,7.01-4.31,16.73-3.62,23.06,1.64,6.32,5.26,8.77,14.7,5.8,22.38,21.05,1.68,36.43,26.97,28.24,46.44"/>
    <path class="cls-32" d="M199.16,610.81c-8.01-8.66-16.49-18.46-16.73-30.25-.24-11.79,13.34-23.57,23.17-17.05-2.85-7.09-.18-15.98,6.11-20.32,6.29-4.34,15.55-3.69,21.17,1.49,3.19-17.11,29.32-23.86,40.39-10.43-1.04-6.68,8.4-11.17,14.27-7.82,5.87,3.35,7.88,10.98,7.42,17.72,3.84-7.89,12.86-12.93,21.6-12.07,8.73.86,16.59,7.56,18.82,16.05.84-7.46,2.07-15.7,7.83-20.51,5.76-4.82,17.22-2.09,17.07,5.42-1.73-10.61,4.18-22.02,13.85-26.73,9.67-4.71,22.29-2.33,29.58,5.58,1.41-10.4,5.3-21.24,13.93-27.22,8.63-5.97,22.76-4.41,27.15,5.12,4.97-8.13,12.94-15.57,22.47-15.56,9.53,0,18.38,11.31,13.22,19.31,7.04-11.76,29.01-7.12,30.7,6.48,5.07-7.86,15.63-11.68,24.55-8.89,8.92,2.79,15.42,11.95,15.11,21.29,8.87-5.46,21.2-4.58,29.21,2.08,8.01,6.67,11.11,18.63,7.34,28.34,26.67,2.13,46.15,34.16,35.77,58.82"/>
    <path class="cls-1" d="M1.05,624.23c-6.32-6.84-13.02-14.57-13.21-23.88-.19-9.31,10.53-18.61,18.29-13.46-2.25-5.59-.14-12.62,4.82-16.04,4.96-3.43,12.28-2.91,16.71,1.18,2.51-13.51,23.15-18.83,31.89-8.23-.82-5.27,6.63-8.82,11.27-6.17,4.64,2.64,6.22,8.67,5.85,13.99,3.03-6.23,10.15-10.21,17.05-9.53,6.9.68,13.1,5.97,14.86,12.67.66-5.89,1.63-12.39,6.18-16.2s13.6-1.65,13.48,4.28c-1.36-8.38,3.3-17.38,10.93-21.1,7.63-3.72,17.6-1.84,23.35,4.4,1.12-8.21,4.19-16.77,11-21.49,6.81-4.72,17.97-3.48,21.44,4.04,3.92-6.42,10.21-12.29,17.74-12.29,7.52,0,14.51,8.93,10.43,15.25,5.56-9.28,22.9-5.62,24.24,5.11,4-6.2,12.34-9.22,19.38-7.02s12.18,9.43,11.93,16.81c7.01-4.31,16.73-3.62,23.06,1.64,6.32,5.26,8.77,14.7,5.8,22.38,21.05,1.68,36.43,26.97,28.24,46.44"/>
    <path class="cls-1" d="M1339.38,594.71c7.47-8.08,15.38-17.22,15.6-28.22s-12.44-21.99-21.61-15.9c2.66-6.61.17-14.91-5.7-18.96-5.86-4.05-14.51-3.44-19.74,1.39-2.97-15.96-27.35-22.25-37.68-9.72.97-6.23-7.83-10.42-13.31-7.29-5.48,3.12-7.35,10.24-6.92,16.53-3.59-7.36-12-12.06-20.14-11.26-8.15.8-15.48,7.05-17.56,14.97-.78-6.96-1.93-14.64-7.3-19.14-5.37-4.5-16.06-1.95-15.92,5.05,1.61-9.9-3.9-20.54-12.92-24.93-9.02-4.39-20.79-2.17-27.59,5.2-1.32-9.7-4.95-19.81-13-25.39-8.05-5.57-21.23-4.12-25.33,4.78-4.63-7.58-12.07-14.52-20.96-14.52-8.89,0-17.14,10.55-12.33,18.02-6.57-10.97-27.06-6.64-28.64,6.04-4.73-7.33-14.58-10.9-22.9-8.29-8.32,2.6-14.39,11.15-14.09,19.86-8.28-5.1-19.77-4.28-27.24,1.94-7.47,6.22-10.36,17.37-6.85,26.44-24.88,1.99-43.05,50.38-33.37,73.38"/>
    <path class="cls-17" d="M1440.03,1062.55H-96.78v-466.63l476.34-6.4c61.16-3.51,531.29-2.09,592.47,1.31l468.01,5.09v466.63Z"/>
    <g>
      <path class="cls-47" d="M1018.34,844.15c-8.85,2.31-18.37,8.85-25.45,19.86-.54.84-.42,1.97.28,2.69,9.19,9.33,19.84,13.77,28.98,14.22,7.12.35,38.74-1.56,45.63-1.99.82-.05,1.55-.55,1.86-1.31,3.41-8.28,2.93-16.63,2.44-20.45-.3-3.84-1.55-12.11-6.58-19.51-.46-.68-1.28-1.02-2.09-.9-6.83.99-38.17,5.6-45.07,7.4Z"/>
      <path class="cls-45" d="M1073.05,850.33l-20.88,2.16c-5.59.58-15.77,2.54-15.24,7.59.52,5.05,10.89,4.88,16.48,4.31l20.88-2.16-1.23-11.9Z"/>
      <g>
        <path class="cls-20" d="M1072.47,851.57l.9,8.65c.12,1.19,1.19,2.06,2.39,1.94l68.51-7.1c3.57-.37,6.19-3.59,5.82-7.16-.37-3.57-3.59-6.19-7.16-5.82l-68.51,7.1c-1.19.12-2.06,1.19-1.94,2.39ZM1142.33,844.8c2.54-.26,4.8,1.26,5.02,3.39.22,2.13-1.68,4.08-4.22,4.34l-.6.06-.8-7.73.6-.06Z"/>
        <rect class="cls-33" x="1060.85" y="854.17" width="25.55" height="3.31" rx="1.65" ry="1.65" transform="translate(332.95 2011.89) rotate(-95.91)"/>
        <g>
          <rect class="cls-33" x="1085.02" y="853.12" width="13.05" height="1.69" transform="translate(354.57 2027.68) rotate(-95.91)"/>
          <rect class="cls-33" x="1090.31" y="852.57" width="13.05" height="1.69" transform="translate(360.94 2032.33) rotate(-95.91)"/>
          <rect class="cls-33" x="1095.36" y="852.05" width="13.05" height="1.69" transform="translate(367.03 2036.77) rotate(-95.91)"/>
          <rect class="cls-33" x="1100.64" y="851.5" width="13.05" height="1.69" transform="translate(373.4 2041.43) rotate(-95.91)"/>
        </g>
        <g>
          <rect class="cls-33" x="1105.82" y="850.97" width="13.05" height="1.69" transform="translate(379.65 2045.99) rotate(-95.91)"/>
          <rect class="cls-33" x="1111.11" y="850.42" width="13.05" height="1.69" transform="translate(386.02 2050.64) rotate(-95.91)"/>
          <rect class="cls-33" x="1116.15" y="849.9" width="13.05" height="1.69" transform="translate(392.11 2055.08) rotate(-95.91)"/>
          <rect class="cls-33" x="1121.44" y="849.35" width="13.05" height="1.69" transform="translate(398.49 2059.74) rotate(-95.91)"/>
          <rect class="cls-33" x="1126.97" y="848.78" width="13.05" height="1.69" transform="translate(405.15 2064.61) rotate(-95.91)"/>
          <rect class="cls-33" x="1132.49" y="848.2" width="13.05" height="1.69" transform="translate(411.82 2069.47) rotate(-95.91)"/>
        </g>
      </g>
    </g>
    <path class="cls-37" d="M146.59,904.5c41.23-12.95,85.94,16.58,129.06,10.01,15.47-2.36,30.55-9.36,46.05-7.17,10.72,1.51,20.38,7.35,31.22,7.85,16.33.76,30.02-10.49,45.73-14.53,23.38-6.02,48.13,4.44,72.44,3.28,25.84-1.23,50.11-15.54,75.79-12.74,18.64,2.03,35.1,12.92,53.84,14.06,16.83,1.02,32.89-5.97,49.61-8,36.24-4.39,72.32,14.71,108.5,9.92,26.59-3.52,50.19-19.68,77.08-19.86,19.83-.13,38.25,8.49,57.57,12.47,35.98,7.4,73.69-1.55,110.48,1.34,6.16.48,12.5,1.37,17.69,4.36,14.65,8.45,11.67,30.08-1.84,39.91-13.52,9.83-32.65,10.58-50.03,8.91s-34.94-5.3-52.14-2.54c-18.37,2.96-34.56,12.97-52.95,15.85-21.95,3.44-44-3.62-65.92-7.16-32.75-5.29-66.43-2.71-99.45,1.06-58.02,6.63-116.29,16.94-174.53,12.07-34.31-2.87-68.03-10.97-102.49-11.62-46.73-.87-93.72,12.02-139.71,4.66-18.24-2.92-35.7-8.95-53.95-11.79-37.94-5.9-77.54,2.25-115.16-5.07-7.36-1.43-15.39-4.04-18.56-10.1-5.65-10.78,8.19-21.68,20.95-25.33,12.75-3.65,25.15.95,30.76-9.85"/>
    <path class="cls-21" d="M193.43,718.1c-5.46-3.63-7.49-10.72-7.68-17.28-.2-6.56.99-13.14.14-19.7-.69-5.22.28-10.7.69-15.96.79-10.32,6.9-11.82,11.27-21.24,4.37-9.42-2.19-11.82.16-15.76,1.14-1.97,4.37-1.26,6.38-.26,1.95,1.13,3.64,2.65,4.97,4.47,7.07,8.49,13.2,18.9,12.22,29.91-.51,5.48-2.74,10.62-3.94,16-1.83,8.41-1.18,17.73-5.48,25.12-3.94,6.98-11.51,11.03-18.64,14.74"/>
    <path class="cls-44" d="M317.74,791.01l-.31.52.31-.52Z"/>
    <path class="cls-25" d="M200.7,670.93c0,.55.12,1.22,0,2.19-.12.97-.02,2.13-.12,3.53-.1,1.4-.22,3.01-.33,4.81-.88,10.21-2.54,20.35-4.99,30.3-2.92,12.65-7.55,27.41-12.67,43.8-5.71,17.76-10.38,35.84-13.99,54.15-4.95,25.33-7.69,51.02-8.23,76.79.3.04.59.09.89.15.65-25.76,3.45-51.43,8.38-76.75,3.6-18.27,8.24-36.32,13.89-54.07,5.06-16.33,9.64-31.21,12.47-43.92,2.39-10,3.95-20.17,4.67-30.42.1-1.81.24-3.43.24-4.83v-5.73c.03-.24.03-.49,0-.73-.09.24-.16.48-.22.73Z"/>
    <path class="cls-21" d="M159.71,812.58c-5.37-15.25-16.35-28.22-29.73-37.3-13.38-9.08-29.07-14.42-45.05-16.89-6.14-.95-12.62-1.6-17.73-5.13,13.87,21.17,31.96,39.56,52.89,53.78,10.67,7.25,22.97,13.62,35.82,12.45"/>
    <path class="cls-21" d="M184.05,748.05c-3.65-8.61-7.51-17.13-11.56-25.56-1.54-3.21-3.15-6.46-5.64-9-1.93-1.97-4.32-3.43-6.46-5.18-6.85-5.58-10.9-13.77-15.45-21.34-4.56-7.57-10.34-15.14-18.71-17.96-10.84-3.65-22.45,1.67-32.65,6.86,12.82,4.89,19.32,18.89,24.13,31.74,4.82,12.85,10.18,27,22.28,33.46,8.7,4.65,19.11,4.27,28.96,3.77"/>
    <path class="cls-25" d="M114.1,675.32c.36.03.72.11,1.06.24.69.2,1.69.51,2.98.97,3.63,1.29,7.12,2.92,10.44,4.87,2.36,1.32,4.46,3.05,6.21,5.1,1.8,2.48,3.37,5.12,4.71,7.88,1.48,3.02,2.79,6.12,3.94,9.28,1.02,3.42,2.23,6.79,3.61,10.09,3.35,6.56,9.4,10.6,14.48,14.4,4.65,3.31,9.01,7,13.04,11.03,2.71,2.77,5.22,5.74,7.51,8.87l1.77,2.56c.24.28.43.6.57.95-.27-.25-.52-.52-.73-.83l-1.97-2.44c-2.38-2.99-4.92-5.83-7.63-8.53-4.08-3.92-8.45-7.53-13.08-10.78-2.77-1.92-5.44-3.99-8-6.19-2.8-2.38-5.13-5.27-6.86-8.51-1.39-3.34-2.6-6.76-3.63-10.23-1.15-3.13-2.47-6.2-3.94-9.2-1.29-2.71-2.8-5.31-4.53-7.76-1.67-2-3.67-3.7-5.91-5.02-3.26-1.98-6.68-3.69-10.23-5.1l-2.9-1.14c-.32-.13-.63-.3-.93-.49Z"/>
    <path class="cls-21" d="M168.94,813.26c3.65-8.61,7.51-17.13,11.56-25.56,1.54-3.21,3.15-6.46,5.64-9,1.93-1.97,4.32-3.43,6.46-5.18,6.85-5.58,10.9-13.77,15.45-21.34s10.34-15.14,18.71-17.96c10.84-3.65,22.45,1.67,32.65,6.86-12.82,4.89-19.32,18.89-24.13,31.74s-10.18,27-22.28,33.46c-8.7,4.65-19.11,4.27-28.96,3.77"/>
    <path class="cls-25" d="M238.89,740.54c-.36.03-.72.11-1.06.24-.69.2-1.69.51-2.98.97-3.63,1.29-7.12,2.92-10.44,4.87-2.36,1.32-4.46,3.05-6.21,5.1-1.8,2.48-3.37,5.12-4.71,7.88-1.48,3.02-2.79,6.12-3.94,9.28-1.02,3.42-2.23,6.79-3.61,10.09-3.35,6.56-9.4,10.6-14.48,14.4-4.65,3.31-9.01,7-13.04,11.03-2.71,2.77-5.22,5.74-7.51,8.87l-1.77,2.56c-.24.28-.43.6-.57.95.27-.25.52-.52.73-.83l1.97-2.44c2.38-2.99,4.92-5.83,7.63-8.53,4.08-3.92,8.45-7.53,13.08-10.78,2.77-1.92,5.44-3.99,8-6.19,2.8-2.38,5.13-5.27,6.86-8.51,1.39-3.34,2.6-6.76,3.63-10.23,1.15-3.13,2.47-6.2,3.94-9.2,1.29-2.71,2.8-5.31,4.53-7.76,1.67-2,3.67-3.7,5.91-5.02,3.26-1.98,6.68-3.69,10.23-5.1l2.9-1.14c.32-.13.63-.3.93-.49Z"/>
    <path class="cls-25" d="M165.37,824.89c-.49-.61-1.06-1.38-1.79-2.31-1.58-1.99-3.88-4.85-6.86-8.3-7.67-9.04-16.1-17.4-25.2-25-5.25-4.37-10.72-8.05-15.63-11.4-1.96-1-3.92-2.01-5.89-2.99,1.66,1.28,3.34,2.51,5.09,3.67,5.01,3.43,10.44,7.11,15.76,11.53,9.05,7.57,17.51,15.82,25.3,24.67l7.09,8.08,1.97,2.19c.43.49.73.73.73.73-.16-.31-.35-.6-.57-.87Z"/>
    <path class="cls-35" d="M192.98,914.84c-2.75-7.35-6.04-14.49-9.85-21.36-3.82-6.52-9.38-12.97-16.87-13.79-5.68-.36-11.25,1.76-15.25,5.81-3.93,4.02-7.25,8.59-9.85,13.58-4.77,8.12-9.54,16.24-14.32,24.35l7.88,10.7c14.25,5.49,29.84,6.48,44.67,2.84,7.09-1.77,15.03-6.01,15.59-13.3.02-3.06-.66-6.08-1.99-8.83Z"/>
    <path class="cls-44" d="M496.92,791.15l.31.52-.31-.52Z"/>
    <path class="cls-25" d="M395.91,917.27c-.28-21.9-2.52-43.74-6.72-65.25-2.93-14.85-6.71-29.51-11.35-43.92-4.16-13.3-7.91-25.27-10.28-35.53-1.98-8.08-3.33-16.3-4.04-24.58-.1-1.45-.19-2.76-.27-3.9-.08-1.13,0-2.08-.1-2.86s0-1.33,0-1.77c-.05-.2-.11-.4-.18-.59-.03.2-.03.4,0,.59v4.65c0,1.13.11,2.45.19,3.92.59,8.32,1.85,16.57,3.79,24.68,2.3,10.31,6.01,22.38,10.12,35.62,4.58,14.39,8.35,29.04,11.27,43.86,4.14,21.23,6.42,42.77,6.85,64.37.28.2.52.43.72.72Z"/>
    <path class="cls-21" d="M933.85,751.08c6.84-2.62,10.79-9.87,12.6-16.98,1.82-7.11,2.13-14.58,4.66-21.53,2.03-5.53,2.31-11.74,3.14-17.58,1.66-11.46-4.64-14.58-7.11-25.93-2.47-11.34,5.27-12.37,3.68-17.24-.77-2.43-4.46-2.44-6.9-1.84-2.4.75-4.62,2-6.51,3.67-9.79,7.54-19.02,17.39-20.63,29.65-.78,6.1.4,12.26.39,18.42-.05,9.63-3.04,19.64-.16,28.75,2.6,8.57,9.86,14.85,16.74,20.63"/>
    <path class="cls-21" d="M570.58,839.72c6.84-2.62,10.79-9.87,12.6-16.98,1.82-7.11,2.13-14.58,4.66-21.53,2.03-5.53,2.31-11.74,3.14-17.58,1.66-11.46-4.64-14.58-7.11-25.93-2.47-11.34,5.27-12.37,3.68-17.24-.77-2.43-4.46-2.44-6.9-1.84-2.4.75-4.62,2-6.51,3.67-9.79,7.54-19.02,17.39-20.63,29.65-.78,6.1.4,12.26.39,18.42-.05,9.63-3.04,19.64-.16,28.75,2.6,8.57,9.86,14.85,16.74,20.63"/>
    <path class="cls-25" d="M938.77,880.65c-.2-18.42-1.1-36.83-2.73-55.18-2.03-25.19-3.88-47.87-3.97-66.97-.28-15.09.61-30.17,2.64-45.13.41-2.61.76-4.97,1.07-7.01.31-2.04.82-3.68.97-5.11.14-1.42.53-2.35.7-3.14,0-.37-.03-.75-.07-1.12-.12.34-.2.69-.23,1.05l-1.84,8.24c-.45,2.01-.77,4.38-1.22,7.01-2.27,14.96-3.31,30.08-3.13,45.2-.04,19.16,1.69,42,3.65,67.08,1.58,18.32,2.44,36.7,2.62,55.09.51-.07,1.03-.06,1.54-.01Z"/>
    <path class="cls-25" d="M716.34,802.63c-.77-1.68-1.53-3.35-2.3-5.03.88,3.98,1.72,7.96,2.51,11.96,5.7,29.26,8.85,58.95,9.44,88.73.38.27.72.6,1,1-.38-30.18-3.47-60.29-9.26-89.95-.44-2.24-.9-4.47-1.37-6.71Z"/>
    <path class="cls-21" d="M396.4,854.35c4.36-12.37,13.26-22.89,24.11-30.25,10.85-7.36,23.58-11.69,36.54-13.7,4.98-.77,10.23-1.3,14.38-4.16-11.25,17.17-25.92,32.09-42.9,43.62-8.66,5.88-18.63,11.05-29.06,10.1"/>
    <path class="cls-21" d="M376.65,802c2.96-6.98,6.09-13.9,9.37-20.73,1.25-2.6,2.56-5.24,4.58-7.3,1.57-1.6,3.5-2.79,5.24-4.2,5.55-4.53,8.84-11.17,12.53-17.31,3.7-6.14,8.39-12.28,15.18-14.56,8.79-2.96,18.21,1.36,26.48,5.57-10.4,3.97-15.67,15.32-19.58,25.74-3.91,10.42-8.26,21.9-18.08,27.14-7.06,3.77-15.5,3.46-23.49,3.06"/>
    <path class="cls-25" d="M433.39,743.01c-.3.02-.59.09-.86.19-.56.16-1.37.42-2.41.78-2.94,1.05-5.78,2.37-8.47,3.95-1.91,1.07-3.62,2.47-5.03,4.14-1.46,2.02-2.74,4.15-3.82,6.39-1.2,2.45-2.27,4.96-3.2,7.53-.83,2.78-1.81,5.51-2.92,8.18-2.72,5.32-7.62,8.6-11.75,11.68-3.77,2.68-7.31,5.68-10.58,8.95-2.2,2.25-4.23,4.65-6.09,7.19l-1.44,2.08c-.2.23-.35.49-.46.77.22-.2.42-.43.59-.67l1.6-1.98c1.93-2.42,3.99-4.73,6.19-6.92,3.31-3.18,6.86-6.11,10.61-8.74,2.25-1.56,4.41-3.23,6.49-5.02,2.27-1.93,4.16-4.27,5.56-6.9,1.12-2.71,2.11-5.48,2.94-8.29.94-2.54,2-5.03,3.2-7.46,1.04-2.2,2.27-4.31,3.68-6.3,1.35-1.62,2.98-3,4.79-4.08,2.65-1.61,5.42-2.99,8.29-4.14l2.35-.93c.26-.11.51-.24.75-.4Z"/>
    <path class="cls-21" d="M575.92,883.17c2.96-6.98,6.09-13.9,9.37-20.73,1.25-2.6,2.56-5.24,4.58-7.3,1.57-1.6,3.5-2.79,5.24-4.2,5.55-4.53,8.84-11.17,12.53-17.31,3.7-6.14,8.39-12.28,15.18-14.56,8.79-2.96,18.21,1.36,26.48,5.57-10.4,3.97-15.67,15.32-19.58,25.74-3.91,10.42-8.26,21.9-18.08,27.14-7.06,3.77-15.5,3.46-23.49,3.06"/>
    <path class="cls-25" d="M632.66,824.18c-.3.02-.59.09-.86.19-.56.16-1.37.42-2.41.78-2.94,1.05-5.78,2.37-8.47,3.95-1.91,1.07-3.62,2.47-5.03,4.14-1.46,2.02-2.74,4.15-3.82,6.39-1.2,2.45-2.27,4.96-3.2,7.53-.83,2.78-1.81,5.51-2.92,8.18-2.72,5.32-7.62,8.6-11.75,11.68-3.77,2.68-7.31,5.68-10.58,8.95-2.2,2.25-4.23,4.65-6.09,7.19l-1.44,2.08c-.2.23-.35.49-.46.77.22-.2.42-.43.59-.67l1.6-1.98c1.93-2.42,3.99-4.73,6.19-6.92,3.31-3.18,6.86-6.11,10.61-8.74,2.25-1.56,4.41-3.23,6.49-5.02,2.27-1.93,4.16-4.27,5.56-6.9,1.12-2.71,2.11-5.48,2.94-8.29.94-2.54,2-5.03,3.2-7.46,1.04-2.2,2.27-4.31,3.68-6.3,1.35-1.62,2.98-3,4.79-4.08,2.65-1.61,5.42-2.99,8.29-4.14l2.35-.93c.26-.11.51-.24.75-.4Z"/>
    <path class="cls-21" d="M717.94,821.73c4.08-9.63,8.39-19.16,12.92-28.58,1.72-3.59,3.52-7.22,6.31-10.06,2.16-2.21,4.83-3.84,7.23-5.79,7.65-6.24,12.18-15.4,17.28-23.86,5.09-8.46,11.56-16.93,20.92-20.08,12.12-4.08,25.1,1.87,36.5,7.67-14.33,5.47-21.6,21.12-26.98,35.48-5.39,14.36-11.39,30.19-24.92,37.41-9.73,5.2-21.37,4.77-32.38,4.21"/>
    <path class="cls-25" d="M796.15,740.41c-.41.03-.81.12-1.19.26-.77.22-1.89.57-3.33,1.08-4.05,1.44-7.96,3.26-11.68,5.44-2.64,1.47-4.99,3.41-6.94,5.71-2.01,2.78-3.77,5.73-5.27,8.81-1.65,3.38-3.12,6.84-4.41,10.38-1.14,3.83-2.49,7.59-4.03,11.28-3.75,7.34-10.51,11.85-16.19,16.1-5.2,3.7-10.07,7.83-14.58,12.34-3.03,3.1-5.83,6.41-8.39,9.91l-1.98,2.86c-.27.31-.49.67-.64,1.06.31-.28.58-.59.82-.93l2.2-2.73c2.66-3.34,5.51-6.52,8.53-9.54,4.56-4.39,9.45-8.42,14.63-12.05,3.1-2.15,6.08-4.46,8.94-6.92,3.13-2.66,5.73-5.89,7.67-9.52,1.55-3.74,2.9-7.55,4.05-11.43,1.29-3.5,2.76-6.94,4.41-10.29,1.44-3.03,3.13-5.94,5.07-8.68,1.87-2.24,4.1-4.14,6.61-5.62,3.65-2.21,7.47-4.12,11.43-5.71l3.24-1.28c.36-.15.71-.33,1.04-.55Z"/>
    <path class="cls-21" d="M388.91,854.9c-2.96-6.98-6.09-13.9-9.37-20.73-1.25-2.6-2.56-5.24-4.58-7.3-1.57-1.6-3.5-2.79-5.24-4.2-5.55-4.53-8.84-11.17-12.53-17.31-3.7-6.14-8.39-12.28-15.18-14.56-8.79-2.96-18.21,1.36-26.48,5.57,10.4,3.97,15.67,15.32,19.58,25.74,3.91,10.42,8.26,21.9,18.08,27.14,7.06,3.77,15.5,3.46,23.49,3.06"/>
    <path class="cls-25" d="M332.17,795.91c.3.02.59.09.86.19.56.16,1.37.42,2.41.78,2.94,1.05,5.78,2.37,8.47,3.95,1.91,1.07,3.62,2.47,5.03,4.14,1.46,2.02,2.74,4.15,3.82,6.39,1.2,2.45,2.27,4.96,3.2,7.53.83,2.78,1.81,5.51,2.92,8.18,2.72,5.32,7.62,8.6,11.75,11.68,3.77,2.68,7.31,5.68,10.58,8.95,2.2,2.25,4.23,4.65,6.09,7.19l1.44,2.08c.2.23.35.49.46.77-.22-.2-.42-.43-.59-.67l-1.6-1.98c-1.93-2.42-3.99-4.73-6.19-6.92-3.31-3.18-6.86-6.11-10.61-8.74-2.25-1.56-4.41-3.23-6.49-5.02-2.27-1.93-4.16-4.27-5.56-6.9-1.12-2.71-2.11-5.48-2.94-8.29-.94-2.54-2-5.03-3.2-7.46-1.04-2.2-2.27-4.31-3.68-6.3-1.35-1.62-2.98-3-4.79-4.08-2.65-1.61-5.42-2.99-8.29-4.14l-2.35-.93c-.26-.11-.51-.24-.75-.4Z"/>
    <path class="cls-25" d="M391.81,864.34c.4-.5.86-1.12,1.45-1.87,1.28-1.61,3.15-3.93,5.56-6.73,6.22-7.33,13.06-14.12,20.44-20.28,4.26-3.55,8.69-6.53,12.68-9.24,1.59-.81,3.18-1.63,4.78-2.43-1.34,1.03-2.71,2.04-4.13,2.98-4.06,2.78-8.47,5.77-12.79,9.35-7.34,6.14-14.2,12.83-20.52,20.01l-5.75,6.55-1.6,1.77c-.35.4-.59.59-.59.59.13-.25.29-.48.46-.7Z"/>
    <path class="cls-21" d="M937.93,780.59c.68-15.04,6.96-29.56,16.44-41.25,9.48-11.7,22.03-20.68,35.6-27.2,5.21-2.5,10.81-4.83,14.42-9.35-6.65,22.61-17.82,43.87-32.65,62.19-7.56,9.34-16.8,18.33-28.57,20.75"/>
    <path class="cls-25" d="M936.2,793.09c.27-.68.58-1.52.98-2.54.87-2.2,2.15-5.37,3.88-9.24,4.4-10.12,9.66-19.85,15.72-29.08,3.5-5.32,7.38-10.07,10.86-14.37,1.48-1.42,2.95-2.85,4.44-4.25-1.13,1.58-2.3,3.14-3.54,4.64-3.54,4.4-7.39,9.15-10.94,14.52-6.02,9.18-11.34,18.81-15.9,28.81l-4.14,9.11-1.17,2.48c-.25.56-.45.85-.45.85.06-.32.15-.63.28-.93Z"/>
    <path class="cls-21" d="M706.68,790.81c-13.35-12.2-21.89-29.16-25.39-46.9-3.49-17.74-2.13-36.22,2.31-53.75,1.7-6.73,3.87-13.68,2.47-20.49,15.72,23.53,26.75,50.18,32.23,77.94,2.79,14.15,3.98,29.6-2.84,42.31"/>
    <path class="cls-25" d="M716.88,802.02c-.41-.77-.95-1.7-1.59-2.85-1.36-2.49-3.29-6.11-5.54-10.68-5.95-11.85-10.87-24.18-14.72-36.86-2.21-7.32-3.6-14.55-4.9-21.07-.17-2.45-.36-4.91-.51-7.37.59,2.26,1.12,4.54,1.56,6.84,1.34,6.65,2.75,13.86,4.97,21.26,3.83,12.62,8.62,24.93,14.33,36.82l5.21,10.83,1.39,2.98c.32.66.43,1.07.43,1.07-.25-.3-.46-.62-.64-.97Z"/>
    <path class="cls-35" d="M374.02,925.43c2.23-5.96,4.9-11.76,7.99-17.32,3.1-5.29,7.61-10.52,13.68-11.19,4.61-.29,9.12,1.43,12.37,4.71,3.19,3.26,5.88,6.97,7.99,11.01,3.87,6.58,7.74,13.17,11.62,19.75l-6.39,8.68c-11.56,4.45-24.2,5.25-36.23,2.3-5.75-1.44-12.19-4.87-12.64-10.79-.02-2.48.54-4.93,1.61-7.16Z"/>
    <path class="cls-35" d="M691.11,903.15c3.08-8.22,6.76-16.2,11.02-23.88,4.27-7.29,10.49-14.5,18.86-15.42,6.36-.4,12.57,1.97,17.05,6.5,4.39,4.49,8.1,9.61,11.02,15.18,5.33,9.08,10.67,18.15,16.02,27.23l-8.81,11.96c-15.93,6.13-33.36,7.24-49.94,3.17-7.93-1.98-16.81-6.72-17.43-14.87-.02-3.42.74-6.79,2.23-9.87Z"/>
    <path class="cls-35" d="M910.91,903.15c3.08-8.22,6.76-16.2,11.02-23.88,4.27-7.29,10.49-14.5,18.86-15.42,6.36-.4,12.57,1.97,17.05,6.5,4.39,4.49,8.1,9.61,11.02,15.18,5.33,9.08,10.67,18.15,16.02,27.23l-8.81,11.96c-15.93,6.13-33.36,7.24-49.94,3.17-7.93-1.98-16.81-6.72-17.43-14.87-.02-3.42.74-6.79,2.23-9.87Z"/>
    <path class="cls-6" d="M403.68,898.05c-3.16-2.04-7.23-1.6-10.63-.4s-6.92,3.26-9.37,6.09c-.76.88,1.01,1.14,1.55.52,2.08-2.4,4.95-4.17,7.9-5.28s6.37-1.63,9.1.13c.67.43,2.31-.49,1.44-1.05h0Z"/>
    <path class="cls-21" d="M921.26,822.32c-5.82-7.57-11.89-15.36-20.26-19.94-3.32-1.82-6.96-3.1-10-5.36-5.15-3.83-8.01-10.05-9.6-16.27-1.59-6.22-2.12-12.68-3.74-18.89-.52-1.99-2.09-4.43-3.98-3.65-.72.3-1.17,1-1.57,1.66-7.65,12.64-12.96,26.69-15.6,41.22-.32,1.79-.61,3.65-.22,5.43.54,2.47,2.29,4.47,4.07,6.27,11.92,11.98,28.22,19.51,45.06,20.82,6.07.47,12.77-.06,17.21-4.23"/>
    <path class="cls-25" d="M934.12,836.44c-.57-.66-1.19-1.28-1.85-1.85-2.4-2.11-4.99-4.01-7.73-5.66-3.44-2.14-7.67-4.43-12.42-6.85-5.18-2.5-10.24-5.26-15.14-8.28-5.82-4.29-11.2-9.14-16.07-14.46.34.91.71,1.81,1.09,2.7,4.37,4.66,9.17,8.92,14.34,12.7,4.93,3.05,10.04,5.82,15.29,8.28,4.78,2.38,9.03,4.58,12.49,6.61,2.76,1.56,5.38,3.34,7.87,5.31,1.76,1.39,2.71,2.2,2.71,2.2-.16-.26-.35-.5-.57-.7Z"/>
    <path class="cls-21" d="M371.87,780.34c-.03-6.93-.11-14.09-2.92-20.42-1.12-2.51-2.65-4.85-3.41-7.49-1.29-4.48-.2-9.32,1.62-13.61,1.82-4.29,4.35-8.25,6.15-12.55.57-1.37.74-3.47-.7-3.86-.54-.14-1.11.06-1.64.27-9.97,3.93-19.21,9.7-27.12,16.93-.98.89-1.95,1.84-2.51,3.04-.77,1.66-.65,3.59-.41,5.41,1.61,12.15,7.7,23.66,16.85,31.83,3.29,2.94,7.4,5.58,11.79,5.13"/>
    <path class="cls-25" d="M373.09,794.14c-.04-.63-.12-1.26-.25-1.88-.46-2.28-1.12-4.51-1.97-6.67-1.04-2.74-2.48-5.93-4.16-9.42-1.89-3.72-3.59-7.54-5.09-11.43-1.48-5.03-2.44-10.2-2.92-15.41-.2.67-.39,1.35-.56,2.04.47,4.61,1.37,9.18,2.69,13.64,1.51,3.93,3.24,7.77,5.18,11.5,1.71,3.47,3.2,6.62,4.3,9.31.9,2.11,1.64,4.29,2.2,6.52.41,1.58.59,2.46.59,2.46.02-.22.02-.44-.02-.66Z"/>
    <path class="cls-6" d="M148.27,918.73c2.58-.24,5.36-.29,7.52,1.37.95.73,1.58,1.68,1.89,2.83.25.91.33,1.9.76,2.76.9,1.79,2.89,1.6,4.54,1.08,1.3-.41,2.46-.86,3.85-.78s2.7.54,3.89,1.24c.46.27,2.01-.49,1.75-.64-2.03-1.2-4.38-1.63-6.71-1.26-1.16.18-2.28.85-3.42.98-1.66.19-2.18-1.21-2.49-2.53-.53-2.24-1.28-3.95-3.45-5.03-2.26-1.12-4.88-1.02-7.33-.79-.29.03-1.11.13-1.24.45s.11.35.44.32h0Z"/>
    <path class="cls-31" d="M160.05,901.71c-1.72-2.25-4.47-4.79-7.49-3.29-1.05.52-1.79,1.44-2.46,2.37-.55.76-1.17,1.78-2.11,2.02-.38.1-.87.45-.76.9s.74.5,1.1.4c1.07-.28,1.92-.96,2.61-1.8.62-.76,1.11-1.64,1.83-2.32,1.98-1.87,4.44,1.05,5.58,2.54.52.68,2.29-.05,1.7-.83h0Z"/>
    <path class="cls-6" d="M383.45,933.14c-.42-2.73,2.75-3.85,4.93-3.82,2.35.03,4.7,1.01,6.41,2.62.68.64,1.17,1.51,2.18,1.62s1.92-.35,2.87-.49c2.51-.39,5.09.37,7.12,1.84.51.37,2.21-.37,1.73-.71-2.22-1.61-4.88-2.39-7.62-2.2-.73.05-1.45.16-2.16.33-.47.11-.64.22-1.11.03s-.68-.54-1.01-.88c-.94-.96-2.09-1.72-3.32-2.26-2.4-1.04-5.23-1.23-7.74-.46-2.12.65-4.52,2.37-4.14,4.86.09.59,1.96.16,1.86-.5h0Z"/>
    <path class="cls-6" d="M407.56,910.75c-3.09-1.51-7.07-.34-9.11,2.36-.5.66-.87,1.4-1.07,2.2-.09.38-.07.81-.2,1.18-.15.43-.82.29-1.24.35-2.05.32-3.86,1.49-4.98,3.23-.25.39.22.66.55.7.45.05.97-.16,1.22-.55.47-.74,1.12-1.35,1.91-1.74s1.57-.39,2.43-.51c.81-.11,1.57-.5,1.88-1.29.27-.69.22-1.46.51-2.16,1.04-2.47,4.14-3.99,6.65-2.76.42.2.95.14,1.33-.13.26-.19.55-.67.12-.88h0Z"/>
    <path class="cls-6" d="M706.45,912.15c3.4-.3,6.85-.81,10.25-.87,1.26-.03,2.75.11,3.67,1.07.69.71.67,2.1,1.72,2.44,1.12.36,2.46-.45,3.5-.74,1.56-.44,3.2-.61,4.82-.54,3.1.12,6.09,1.08,8.71,2.74.45.29,2.03-.47,1.75-.64-2.56-1.62-5.45-2.58-8.47-2.83-1.46-.12-2.94-.07-4.39.13-.74.1-1.47.25-2.2.43-.47.12-1.84.79-2.23.66-.55-.19-.7-1.15-.96-1.61s-.62-.84-1.07-1.13c-.98-.61-2.21-.75-3.35-.76-3.63-.05-7.34.56-10.95.88-.3.03-1.11.13-1.24.45s.11.36.45.33h0Z"/>
    <path class="cls-6" d="M715.93,895.61c.7-2.63,2.97-4.28,5.58-4.71,2.14-.35,4.45.23,6.49-.67,2.26-1,1.57-3.21,2.01-5.2.53-2.41,2.49-5.15,5.28-4.09.5.19,2.19-.57,1.5-.84-2.22-.84-4.89-.14-6.59,1.47-.93.88-1.56,2.02-1.91,3.24-.19.67-.29,1.36-.32,2.05-.04.76.13,1.78-.38,2.44-.72.92-2.84.46-3.85.51-1.44.06-2.88.29-4.24.77-2.49.88-4.71,2.68-5.41,5.3-.15.57,1.7.3,1.85-.27h0Z"/>
    <path class="cls-6" d="M924.18,904.5c2.51-.93,6.27-2.11,8.06.72.59.93.75,1.99,1.66,2.71.85.66,1.96.91,3.01.95,1.34.04,2.63-.33,3.95-.47,1.52-.16,2.9.22,4.17,1.05,2.39,1.55,3.79,4.16,5.12,6.59.37.68,2.16.02,1.71-.8-1.43-2.61-2.96-5.32-5.55-6.93-1.17-.72-2.49-1.19-3.87-1.26-1.61-.08-3.15.49-4.75.53-.8.02-1.64-.14-2.27-.65s-.82-1.21-1.14-1.9c-.51-1.07-1.34-1.84-2.41-2.33-2.78-1.27-5.81-.24-8.5.77-.35.13-.68.55-.45.91.25.39.92.24,1.26.11h0Z"/>
    <path class="cls-6" d="M940.21,889.21c-.55-1.76.13-4.6,2.29-4.93.99-.15,2.02.26,2.76.88.65.55,1.19,1.23,2.08,1.36,1.99.3,3.51-1.72,5.11-2.56,1.79-.94,4.22-.59,5.06,1.45.23.55,2.06-.02,1.86-.5-.84-2.05-3.24-2.65-5.26-2.33-1.36.22-2.62.82-3.77,1.56-.55.36-1.21,1.1-1.81,1.31-.33.12-.08.29-.52-.09-.24-.21-.48-.41-.71-.63-3.55-3.29-10.54-.17-8.94,4.96.17.55,2.02.03,1.86-.5h0Z"/>
    <path class="cls-25" d="M575.93,900.08c-.17-15.3-.91-30.6-2.26-45.84-1.68-20.93-3.22-39.77-3.3-55.64-.23-12.53.5-25.07,2.19-37.49.34-2.17.63-4.13.89-5.83.26-1.7.68-3.06.8-4.24s.44-1.95.58-2.61c0-.31-.02-.62-.06-.93-.1.28-.17.57-.19.87l-1.53,6.84c-.37,1.67-.64,3.64-1.01,5.83-1.88,12.43-2.75,24.99-2.6,37.55-.04,15.92,1.4,34.89,3.03,55.73,1.31,15.22,2.03,30.49,2.18,45.77.43-.06.85-.05,1.28,0Z"/>
    <path class="cls-35" d="M552.78,918.77c2.56-6.83,5.61-13.46,9.15-19.84,3.55-6.06,8.71-12.04,15.67-12.81,5.28-.33,10.45,1.64,14.17,5.4,3.65,3.73,6.73,7.98,9.15,12.61,4.43,7.54,8.86,15.08,13.31,22.62l-7.32,9.94c-13.24,5.1-27.72,6.02-41.49,2.64-6.59-1.65-13.97-5.58-14.48-12.35-.02-2.84.61-5.64,1.85-8.2Z"/>
    <path class="cls-21" d="M561.38,851.62c-4.83-6.29-9.87-12.76-16.83-16.57-2.76-1.51-5.78-2.58-8.31-4.45-4.28-3.18-6.65-8.35-7.97-13.52-1.32-5.17-1.76-10.53-3.11-15.7-.43-1.65-1.73-3.68-3.31-3.03-.6.25-.97.83-1.31,1.38-6.35,10.5-10.77,22.17-12.96,34.25-.27,1.49-.51,3.03-.18,4.51.45,2.05,1.9,3.72,3.38,5.21,9.9,9.95,23.44,16.21,37.44,17.3,5.04.39,10.61-.05,14.3-3.51"/>
    <path class="cls-25" d="M572.07,863.35c-.47-.55-.99-1.06-1.54-1.54-2-1.76-4.15-3.33-6.42-4.7-2.85-1.78-6.37-3.68-10.32-5.69-4.31-2.08-8.5-4.37-12.57-6.88-4.84-3.56-9.3-7.59-13.35-12.01.29.75.59,1.5.91,2.25,3.63,3.87,7.62,7.41,11.92,10.55,4.1,2.53,8.34,4.83,12.7,6.88,3.97,1.98,7.5,3.81,10.38,5.49,2.29,1.3,4.47,2.77,6.53,4.41,1.46,1.15,2.25,1.83,2.25,1.83-.13-.22-.29-.41-.48-.59Z"/>
    <path class="cls-6" d="M563.88,919.98c1.97-.73,4.9-1.69,6.4.44.57.82.69,1.81,1.53,2.44.7.53,1.61.74,2.47.77,2.3.1,4.3-.99,6.47.3s3.34,3.52,4.49,5.62c.37.68,2.16.02,1.71-.8-1.24-2.26-2.58-4.64-4.91-5.94-.96-.54-2.02-.87-3.13-.9-1.32-.04-2.58.43-3.9.44-1.59.02-2.08-.87-2.71-2.14-.47-.93-1.22-1.57-2.18-1.97-2.34-.97-4.83-.11-7.06.72-.35.13-.68.55-.45.91.25.39.92.24,1.26.11h0Z"/>
    <path class="cls-6" d="M577.28,907.15c-.42-1.34.03-3.72,1.72-3.98.77-.12,1.59.23,2.17.72s1.01,1.04,1.77,1.15c1.77.27,3.02-1.43,4.44-2.16s3.29-.38,3.95,1.21c.23.55,2.06-.02,1.86-.5-.72-1.76-2.78-2.24-4.5-1.97-1.18.19-2.28.71-3.28,1.35-.49.32-1.11.67-1.5,1.09l-.18.14c.35-.06.36-.14.02-.26-.15-.19-.41-.35-.59-.52-3-2.79-9.1-.16-7.73,4.22.17.55,2.02.03,1.86-.5h0Z"/>
    <path class="cls-35" d="M470.03,919.61c-3.13-1.05-6.75-.51-9.44,1.39-2.69,1.91-4.4,5.14-4.45,8.44-.03,1.7.47,3.56,1.89,4.5,2.03,1.34,4.68.18,7.01-.49,2.13-.62,4.52-.77,6.48.27,1.29.68,2.33,1.85,3.73,2.27,3.03.91,5.95-2.24,6.36-5.37.65-4.96-3.35-10.05-8.32-10.59"/>
    <path class="cls-35" d="M538.34,940.19c2.33-.33,4.19-2.02,6.24-3.19,3.36-1.91,7.47-2.43,11.2-1.41,3.19.87,6.23,2.82,9.51,2.43,2.08-.25,4.36-1.39,6.11-.24.7.46,1.14,1.2,1.53,1.94,1.45,2.73,2.16,6.71-.41,8.43-.88.59-1.99.76-3.05.7-2.38-.13-4.56-1.29-6.78-2.13-2.23-.84-4.82-1.35-6.92-.23-1.32.7-2.25,1.95-3.38,2.93-2.46,2.14-6,2.97-9.15,2.16-3.16-.82-5.84-3.27-6.95-6.33"/>
    <path class="cls-35" d="M646.64,922.61c1.45-3.08,3.01-6.3,5.79-8.27,2.78-1.97,7.16-2.12,9.21.6.65.86,1.05,1.96,1.97,2.52.85.52,1.93.43,2.93.37,2.51-.14,5.8.78,5.86,3.29.06,2.43-3.12,3.57-5.52,3.18-2.4-.39-4.82-1.56-7.15-.88-1.32.39-2.4,1.32-3.63,1.94-3.04,1.51-7.05.77-9.34-1.74"/>
    <path class="cls-35" d="M699.71,938.49c3.64-5.03,11.16-6.77,16.64-3.83.9.48,1.84,1.09,2.85.95.79-.11,1.43-.65,2.07-1.11,6.15-4.48,15.91-2.66,20.04,3.73.32.49.6,1.13.29,1.62-.27.41-.83.49-1.32.53-2.77.2-5.55.24-8.32.12-2.2-.09-4.64-.21-6.33,1.2-.96.8-1.52,1.99-2.39,2.89-2,2.06-5.35,2.23-8.06,1.26-2.71-.96-4.97-2.84-7.31-4.51-2.34-1.67-4.95-3.21-7.82-3.3"/>
    <path class="cls-35" d="M163.39,931.77c.64-2.32,1.58-4.63,3.26-6.36,1.68-1.73,4.21-2.77,6.54-2.17,2.69.69,4.71,3.38,7.48,3.45,2.14.05,4.1-1.53,6.24-1.38,3.09.21,4.79,3.76,5.09,6.85.07.67.09,1.36-.17,1.98-.63,1.46-2.58,1.82-4.14,1.52-1.56-.31-3.06-1.06-4.65-1.02-2.14.06-3.95,1.51-5.86,2.49-1.91.98-4.58,1.35-5.92-.33"/>
    <path class="cls-35" d="M240.71,924.29c-2.65-3.42-8.07-4.27-11.64-1.82-.69.47-1.31,1.04-2.06,1.41-3.28,1.6-8.06-1.08-10.5,1.63-.72.8-1,1.88-1.26,2.93-.65,2.65-1.07,5.95,1.08,7.63,2.38,1.87,5.76.19,8.48-1.12,3.34-1.61,7.25-2.62,10.74-1.37,2.39.85,5.19,2.64,7.12,1,.6-.51.93-1.26,1.11-2.03.47-2.08-.26-4.38-1.83-5.82"/>
    <path class="cls-35" d="M902.4,917.51c-1.79-2.34-3.63-4.72-6.11-6.3s-5.78-2.21-8.38-.83c-1.3.69-2.34,1.82-3.72,2.33-2.08.76-4.35-.06-6.5-.62-2.14-.56-4.77-.7-6.21.98-.85.99-1.06,2.37-1.15,3.67-.13,1.88.01,4.04,1.47,5.23,1.33,1.09,3.27.95,4.94.52,1.67-.42,3.35-1.08,5.05-.85,2.79.38,4.71,2.98,7.29,4.11,4.09,1.81,9.5-1.1,10.24-5.51"/>
    <path class="cls-35" d="M900.24,932.45c3.3-1.03,7.04-.58,10,1.2,1.15.7,2.23,1.6,3.55,1.89,3.06.68,6.31-2.13,9.18-.89,1.62.7,2.49,2.5,2.78,4.24.08.5.12,1.05-.1,1.5-.28.55-.87.85-1.45,1.07-2.88,1.13-6.12,1.3-9.1.48-1.97-.55-3.94-1.53-5.96-1.21-1.23.19-2.32.83-3.44,1.38-1.46.71-3,1.27-4.58,1.65-.99.24-2.06.41-3,.03-.65-.26-1.19-.77-1.6-1.34-1.87-2.57-1.16-6.62,1.47-8.41"/>
    <path class="cls-35" d="M994.26,913.93c2.29-2.19,5.95-2.8,8.83-1.47.69.32,1.34.74,2.07.94,2.93.8,5.99-2.08,8.87-1.14,2.85.92,3.36,4.66,3.36,7.65,0,1.23-.07,2.63-1,3.44-.71.61-1.72.7-2.65.75-5.51.29-11.78-.14-15.33-4.36-1.59-1.89-3.01-4.69-5.48-4.5"/>
    <path class="cls-35" d="M750.31,916.81c2.29-2.19,5.95-2.8,8.83-1.47.69.32,1.34.74,2.07.94,2.93.8,5.99-2.08,8.87-1.14,2.85.92,3.36,4.66,3.36,7.65,0,1.23-.07,2.63-1,3.44-.71.61-1.72.7-2.65.75-5.51.29-11.78-.14-15.33-4.36-1.59-1.89-3.01-4.69-5.48-4.5"/>
    <path class="cls-35" d="M795.61,936.98c-1.84-2.94-5.8-3.57-9.27-3.7-.99-.04-2.07-.02-2.81.63-.54.48-.77,1.2-.95,1.89-.48,1.86-.72,3.77-.73,5.69,0,.52.03,1.08.35,1.49.45.56,1.26.61,1.98.62,3.08.03,6.16.05,9.24.08.75,0,1.55,0,2.18-.41.94-.61,1.17-1.94.84-3-.33-1.07-1.1-1.93-1.85-2.76"/>
    <path class="cls-35" d="M577.14,901.77c-1.84-2.94-5.8-3.57-9.27-3.7-.99-.04-2.07-.02-2.81.63-.54.48-.77,1.2-.95,1.89-.48,1.86-.72,3.77-.73,5.69,0,.52.03,1.08.35,1.49.45.56,1.26.61,1.98.62,3.08.03,6.16.05,9.24.08.75,0,1.55,0,2.18-.41.94-.61,1.17-1.94.84-3-.33-1.07-1.1-1.93-1.85-2.76"/>
    <path class="cls-35" d="M361.91,944.93c-1.84-2.94-5.8-3.57-9.27-3.7-.99-.04-2.07-.02-2.81.63-.54.48-.77,1.2-.95,1.89-.48,1.86-.72,3.77-.73,5.69,0,.52.03,1.08.35,1.49.45.56,1.26.61,1.98.62,3.08.03,6.16.05,9.24.08.75,0,1.55,0,2.18-.41.94-.61,1.17-1.94.84-3-.33-1.07-1.1-1.93-1.85-2.76"/>
  </g>
  <g id="Layer_1" data-name="Layer 1">
    <polygon class="cls-9" points="1183.6 900.18 1133.16 900.18 1130.43 863.76 1182.29 857.06 1183.6 900.18"/>
    <polygon class="cls-9" points="1232.87 908.24 1182.93 907.36 1181.72 880.77 1234.2 878.6 1232.87 908.24"/>
    <g>
      <path class="cls-3" d="M1194.18,922.89s6.15,7.37,4.01,11.03c-2.14,3.66-21.94,4.93-27.13,5.5-5.19.57-72.43,8.62-79.12,8.85-6.69.23-42.67-.76-47.81-7.56,0,0-8.73-11.47,3.31-15.67,12.04-4.19,20.98-4.24,32.26-9.4,11.27-5.17,23.59-11.86,34.36-22.55,0,0,10.93-8.74,16.17-7.52,5.24,1.22,11.17,9.99,15.44,12.04,4.27,2.05,24.66,4.38,29.88-4.57,5.22-8.95,6.71-5.61,10.71-4.39,4,1.22,10.69,16.6,9.15,23.83-1.55,7.23-1.21,10.41-1.21,10.41Z"/>
      <path class="cls-15" d="M1194.18,922.89s-30.17,3.21-43.2,7.44c-13.03,4.23-47.56,11.37-65.66,11.78-18.09.41-43.36-5.33-43.36-5.33,0,0-1.67,2.49,6.22,6.56,7.89,4.07,32.36,6.38,53.57,4.03,21.21-2.35,52.28-5.41,58.81-5.85,6.53-.43,33.71-2.65,37.3-7.18,3.01-3.8-3.67-11.45-3.67-11.45Z"/>
    </g>
    <path class="cls-30" d="M1192.91,898.03c-5.49.64-11,1.99-16.19,3.87-3.94,1.43-7.88,3.26-11.1,6-1.66,1.41-2.93,3.03-4.08,4.88-1.61,2.59-3.05,5.29-4.2,8.11-.79,1.94-1.47,3.95-1.9,6.01-.15.73-.3,1.48-.33,2.22-.01.31.64.21.65-.06.08-2.18.82-4.42,1.54-6.45.9-2.5,2.04-4.91,3.34-7.23s2.57-4.53,4.44-6.35c2.96-2.88,6.78-4.8,10.59-6.29,3.61-1.41,7.36-2.45,11.15-3.25,1.99-.42,4-.8,6.03-1.04.34-.04.51-.49.07-.44h0Z"/>
    <g>
      <path class="cls-3" d="M1248.72,929.57s6.15,7.37,4.01,11.03c-2.14,3.66-21.94,4.93-27.13,5.5-5.19.57-72.43,8.62-79.12,8.85-6.69.23-42.67-.76-47.81-7.56,0,0-8.73-11.47,3.31-15.67,12.04-4.19,20.98-4.24,32.26-9.4,11.27-5.17,23.59-11.86,34.36-22.55,0,0,10.93-8.74,16.17-7.52,5.24,1.22,11.17,9.99,15.44,12.04,4.27,2.05,24.66,4.38,29.88-4.57,5.22-8.95,6.71-5.61,10.71-4.39s10.69,16.6,9.15,23.83c-1.55,7.23-1.21,10.41-1.21,10.41Z"/>
      <path class="cls-15" d="M1248.72,929.57s-30.17,3.21-43.2,7.44c-13.03,4.23-47.56,11.37-65.66,11.78-18.09.41-43.36-5.33-43.36-5.33,0,0-1.67,2.49,6.22,6.56,7.89,4.07,32.36,6.38,53.57,4.03,21.21-2.35,52.28-5.41,58.81-5.85,6.53-.43,33.71-2.65,37.3-7.18,3.01-3.8-3.67-11.45-3.67-11.45Z"/>
    </g>
    <path class="cls-28" d="M1209.96,935.77s.23-6.88,7.2-17.52c6.96-10.64,30.25-13.32,30.25-13.32,0,0,3.73,3.82,2.52,14.23l-1.21,10.41-38.75,6.2Z"/>
    <path class="cls-28" d="M1196.41,901.34c2.29,3.77-6.96,5.11-10.01,8.08-5.29,5.16-11.16,10.22-18.55,12.6-7.39,2.38-16.67,1.38-21.46-4.05l-1.65-1.42s16-9.47,21.82-14.85,11.54-9.34,15.87-9.47,12.43,6.56,13.97,9.1Z"/>
    <path class="cls-28" d="M1142.39,895.08c2.29,3.77-6.96,5.11-10.01,8.08-5.29,5.16-11.16,10.22-18.55,12.6-7.39,2.38-16.67,1.38-21.46-4.05l-1.65-1.42s16-9.47,21.82-14.85,11.54-9.34,15.87-9.47,12.43,6.56,13.97,9.1Z"/>
    <path d="M1153.36,911.47c-3.7,2.13-7.45,4.18-11.22,6.19-3.16,1.68-6.34,3.32-9.58,4.86-1.23.59-2.5,1.33-3.8,1.73-.91.28-1.86.47-2.78.71-1.09.28-2.18.6-3.29.8-1.59.28-3.18.59-4.76.92-5.06,1.05-10.17,2.2-15,4.06-1.67.64-3.57,1.38-4.85,2.7-.55.57-1.01,1.25-1.47,1.89s-.94,1.38-1.28,2.13c-.56,1.25-.61,2.54-.18,3.84.27.81.66,1.57,1.06,2.31.15.27.76.02.59-.29-.74-1.35-1.49-2.87-1.25-4.46.26-1.72,1.5-3.22,2.53-4.55,1.16-1.49,2.9-2.26,4.61-2.95,4.72-1.91,9.79-3.04,14.76-4.09,2.6-.55,5.22-.97,7.79-1.62l3.2-.82c.96-.24,1.83-.69,2.73-1.11,3.18-1.46,6.3-3.05,9.4-4.67,4.34-2.27,8.65-4.6,12.88-7.05.07-.04.14-.08.21-.12.38-.22.04-.6-.29-.41h0Z"/>
    <path d="M1178.72,903.53l.06-.06c.5-.49.13-1.4-.82-2.01l-6.85-4.42c-.95-.61-2.14-.71-2.64-.22l-.06.06c-.5.49-.13,1.4.82,2.01l6.85,4.42c.95.61,2.14.71,2.64.22Z"/>
    <path d="M1170.89,907.18l.19-.18c.36-.35-.04-1.09-.9-1.64l-5.09-3.31c-.86-.56-1.85-.73-2.21-.38l-.19.18c-.36.35.04,1.09.9,1.64l5.09,3.31c.86.56,1.85.73,2.21.38Z"/>
    <path d="M1164.43,910.63l.32-.31c.32-.31-.04-.97-.81-1.48l-3.63-2.37c-.77-.5-1.66-.66-1.99-.35l-.32.31c-.32.31.04.97.81,1.48l3.63,2.37c.77.5,1.66.66,1.99.35Z"/>
    <path d="M1159.24,914.28l.37-.36c.38-.37.05-1.08-.72-1.57l-3.64-2.36c-.77-.5-1.71-.61-2.09-.24l-.37.36c-.38.37-.05,1.08.72,1.57l3.64,2.36c.77.5,1.71.61,2.09.24Z"/>
    <path d="M1124.7,897.28l.06-.06c.5-.49.13-1.4-.82-2.01l-6.85-4.42c-.95-.61-2.14-.71-2.64-.22l-.06.06c-.5.49-.13,1.4.82,2.01l6.85,4.42c.95.61,2.14.71,2.64.22Z"/>
    <path d="M1116.87,900.92l.19-.18c.36-.35-.04-1.09-.9-1.64l-5.09-3.31c-.86-.56-1.85-.73-2.21-.38l-.19.18c-.36.35.04,1.09.9,1.64l5.09,3.31c.86.56,1.85.73,2.21.38Z"/>
    <path d="M1110.41,904.38l.32-.31c.32-.31-.04-.97-.81-1.48l-3.63-2.37c-.77-.5-1.66-.66-1.99-.35l-.32.31c-.32.31.04.97.81,1.48l3.63,2.37c.77.5,1.66.66,1.99.35Z"/>
    <path d="M1105.22,908.02l.37-.36c.38-.37.05-1.08-.72-1.57l-3.64-2.36c-.77-.5-1.71-.61-2.09-.24l-.37.36c-.38.37-.05,1.08.72,1.57l3.64,2.36c.77.5,1.71.61,2.09.24Z"/>
    <path class="cls-27" d="M606.15,572.78c1.21-3.03,2.77-7.14,2.57-7.68s-.98-4.38-1.65-7.73c-.27-1.72-1.79-2.97-3.41-2.79-.42.05-1.12,8.24-4.65,7.55l-.8-7.09c.05-2.31.38-4.6.98-6.79.91-2.67,5.89-9.12,5.89-9.12l-1.22-9.01,15.14-.34-.37,9,3.32,8.42s2.8,16.37,1.8,18.47c-1,2.1-5.22,4.75-5.22,4.75-.85,3-4.91,3.66-4.91,3.66-2.96,4.35-4.18,1.01-4.18,1.01-.07.17-.18.32-.32.43-1.57,1.16-3.72-.93-2.98-2.74Z"/>
    <path class="cls-7" d="M626.42,686.86s1.11,1.21.59,3.4c-.52,2.19-12.87.39-17.1,1.07-4.23.68-23.87,3.57-28.07,2.65-4.2-.92-.52-6.44-.52-6.44l45.1-.67Z"/>
    <path class="cls-27" d="M577.21,678.33c-.4,2.44-.52,3.81-.96,6.15-.5,2.69.74,4.66,3.67,5.67,2.47.85,5.74,1.19,8.37.94,3.43-.32,7.08-1.1,10.51-1.42,2.94-.27,14.92-1.6,17.83-1.2,4.54.64,7.28-.14,9.25-.94.54-.22.89-.2,1.13-.64.62-1.13.49-2.35-1.03-3.22-1.91-1.1-4.09.61-5.89-.71-.32-.23-.62-.5-.98-.66-.72-.32-1.56-.2-2.35-.16-3.97.2-6.48-1.38-11.73-2.53-1.54-.34-11-8.55-12.44-9.16"/>
    <path class="cls-27" d="M576.76,680.16s20.46,7.04,26.3,7.23,10.29,1.62,10.29,1.62c0,0-9.43-9.4-16.76-13.18-1.54-.79,2.75-51.68,6.05-75.43,2.3-16.5,1.08-29.68,1.08-29.68l-26.91,1.94.39,25.21-1.27,4.59c-.66,2.4-2.57,6.98-2.81,9.47-.64,6.71-1.66,15.64-1.48,19.09.31,5.83,2.12,13.77,2.28,15.82l4.39,25.23-1.55,8.11Z"/>
    <path class="cls-27" d="M548.89,680.18s23.55,11.95,29.39,11.96c5.84,0,3.83-3.09,3.83-3.09,0,0-15.48-15.15-16.98-17.93-.82-1.53,3.3-47.95,5.87-71.8,1.79-16.56,1.9-29.74,1.9-29.74l-26.84,2.76-2.71,24.18-1.13,4.62c-.59,2.42-1.41,6.7-1.57,9.19-.43,6.73-.87,18.04-.58,21.48.49,5.82,4.23,20.11,4.47,22.15l4.34,18.88v7.33Z"/>
    <path class="cls-7" d="M548.05,688.93s-.88.1-.77,3.09c.14,4.01,12.53,2.77,15.86,2.88,3.33.11,14.06,2.76,21.53,2.62,7.47-.14,14.81-5.07,15.43-7.46.62-2.4-.35-3.42-1.98-3.95s-47.91.3-47.91.3l-2.16,2.53Z"/>
    <path class="cls-27" d="M548.62,671.46c.35,2.49-.31,6.1-.6,11.41-.12,2.34-1.81,5.76.72,7.31,4.49,2.74,9.55,1.25,11.53,1.6,4.16.74,7.44.55,11.46,1.62,4.07,1.09,4.91,1.36,9.32,1.39.61,0,1.25-.05,1.76-.35.34-.2.6-.5.95-.71,1.22-.71,2.84.05,4.25-.21.63-.12,1.18-.43,1.75-.69,1.51-.68,3.2-.96,4.81-1.4,1.62-.44,3.25-1.07,4.33-2.25,1.08-1.17,1.4-3.01.36-4.19-1.58-1.77-3.44-.58-5.46-.64-2.01-.06-2.79-.34-4.6-1.05-4.64-1.81-5.36-2.19-9.26-3.6-3.03-1.09-11.95-4.62-16.28-7.24l-.53-9.94"/>
    <g>
      <path class="cls-46" d="M583.83,694.37c.66-.23,1.11-.68,1.28-1.36.13-.51.02-1.03-.23-1.49-.49-.88-1.54-1.36-2.44-1.72-.51-.2-1.03-.37-1.54-.55-.34-.12-.79,0-1.02.27s-.13.57.18.68c.51.18,1.02.34,1.52.54.14.05.27.11.41.17.07.03.13.06.2.09-.11-.05.09.04.11.05.23.12.46.26.67.42.05.04.1.08.16.13.05.04.05.04,0,0,.02.02.05.05.07.07.08.08.15.16.22.25.04.05.07.1.1.16.02.03.03.05.05.08-.02-.05-.02-.05,0,0,.05.12.09.23.11.36,0,.02.02.21.02.11,0,.05,0,.1,0,.15,0,.07-.01.14-.02.2,0,.02-.05.22-.02.11-.02.06-.05.13-.08.19-.01.03-.03.06-.05.09.04-.06.04-.06,0,0-.02.03-.04.05-.06.07.07-.06.07-.06.02-.02-.06.04-.05.04.04-.02-.08.03-.06.03.05-.01-.27.09-.69.32-.59.68.09.33.59.38.85.29h0Z"/>
      <path class="cls-46" d="M587.81,694.02c.75-.05,1.56-.35,1.85-1.09.2-.51.17-1.13.06-1.66-.11-.58-.35-1.05-.79-1.45-.63-.57-1.45-.86-2.25-1.09-.96-.27-1.88-.81-2.9-.73-.31.02-.76.1-.96.37-.19.26.16.35.37.34.65-.05,1.34.32,1.96.54.67.23,1.37.37,1.98.75.45.29.85.66,1.03,1.18.15.42.22.9.2,1.35-.01.24-.06.49-.16.71-.03.07-.02.05-.06.1-.02.03-.1.13-.03.05-.01.01-.03.03-.05.04-.06.03.14-.07.13-.06-.02.01-.1.03,0,0,.08-.02.15-.04.23-.05-.31.02-.77.1-.96.37s.16.35.37.34h0Z"/>
      <path class="cls-46" d="M591.6,692.56c1.23-.53,1.62-2.06.96-3.19-.63-1.06-1.86-1.66-2.99-2.05-.7-.24-1.44-.48-2.18-.58-.33-.05-.71.05-1.01.19-.1.05-.51.3-.19.35.74.11,1.51.34,2.21.6s1.38.59,1.96,1.05c.52.42.95.98,1.05,1.67.09.57-.09,1.58-.63,1.81-.13.05-.49.26-.19.35s.74-.08,1.01-.19h0Z"/>
      <path class="cls-46" d="M594.63,692.15c1.46-.75,2.57-2.81,1.58-4.35-.39-.61-1.05-1.01-1.68-1.33s-1.36-.58-2.07-.79c-.34-.1-.69-.19-1.04-.29-.53-.15-1.07-.37-1.62-.31-.32.03-.76.22-.8.6s.38.53.67.49c.11-.01,0-.02.11,0,.06,0,.12.02.18.03.2.05.39.12.58.17.27.08.54.15.81.22.6.17,1.2.36,1.78.61.52.22,1.09.51,1.48.9s.52.85.46,1.44c-.08.71-.51,1.41-1.09,1.71-.26.14-.55.47-.34.76s.7.26.99.12h0Z"/>
    </g>
    <path class="cls-46" d="M615.5,682.66c1.45.23,3.03.52,4.2,1.46,0,0-.11-.02-.11-.02.81-.6,1.87-.79,2.83-.6-.99-.08-2.03.13-2.79.76-1.13-.9-2.73-1.24-4.13-1.6h0Z"/>
    <path class="cls-46" d="M574.81,678.14c2.6,1.27,5.26,2.45,7.94,3.56,2.01.82,4.04,1.61,6.13,2.23,1.42.42,3,.9,4.5.74,1.21-.13,2.32-.65,3.57-.64,2.12,0,2.66,1.58,2.25,3.43-.07.3,1.35.1,1.43-.26.23-1.02.36-2.25-.45-3.06-.86-.85-2.31-.76-3.42-.63s-2.13.33-3.13.68c.65-.23.09-.06-.33-.1s-.88-.12-1.31-.21c-4.34-.92-8.52-2.87-12.54-4.69-1.1-.5-2.19-1-3.28-1.53-.38-.18-1.52.41-1.37.49h0Z"/>
    <path class="cls-7" d="M582.08,679.9c1.1-.05,2.18.33,2.99,1.07l4.98,4.64-1.31-.18-7.62-5.49.96-.05Z"/>
    <path class="cls-7" d="M589.74,685.63s-.49-1.01-2.33-1.15c-5.77-.46-18.55.41-19.65,8.88l2.13.7s2.26-6.5,7.56-7.34c5.29-.83,12.29-1.09,12.29-1.09Z"/>
    <path class="cls-7" d="M617.88,683.29s-5.4-1.47-4.89,5.57l-3.15.26s.73-6.63,3.68-7.06c2.95-.43,4.36,1.24,4.36,1.24Z"/>
    <path class="cls-27" d="M605.73,428.33c1.16.42,10.97,3.92,11.43,26.27.16,7.9.05,30.53.97,37.17,1.06,6.86.49,8.91,1.03,17.47.14,2.23.18,7.91.11,12.32l-.38,18.76-10.4-1.18s1.85-47.77-2.11-58.44c-3.96-10.66-.64-52.37-.64-52.37Z"/>
    <path class="cls-27" d="M1071.23,349.72l10.36-94.02c-1.43.79-2.88,1.54-4.34,2.27-3.82,1.9-7.04,3.35-10.08,5.01-1.62.88-3.21,1.8-4.74,2.83-.45.3-3.91,3.11-2.76,2.01-4.75,4.5-16.7-10.52-22.09-15.01-20.22,38.72-38.98,120.41-38.98,120.41,0,0-97.43-12.73-115.8-9.2l-4.01,22.27c6.45.45,43.95,14.55,66.76,23.31,12.82,4.93,26.09,8.59,39.63,10.88,18.78,3.17,44,6.74,51.97,4.56,29.58-8.09,34.07-75.33,34.07-75.33Z"/>
    <path class="cls-27" d="M906.94,362.98l-19.01-2.34s-12.53-7.88-17.27-8.53c-4.74-.65-23.74,1.69-24.58,2.09-.83.4-23.28-7.19-25.89-3.66-2.61,3.53-2.5,7.69,2.61,10.71,5.11,3.03,20.46,3.98,19.95,7.13-.57,2.4-1.62,4.67-3.09,6.7,0,0-5.73-3.62-9.91-2.48-4.18,1.14-4.56,6.47-4.56,6.47l2.03,2-5.62,1.66s-11.89-7.6-15.94-3.5c-3.09-.99-6.37-1.37-9.64-1.11-2.77.44-4.67,2.93-4.25,5.56.07.46.22.91.43,1.33h0l29.56,13.02,43.21.89s16.06-8.06,19.63-9.4l10.73,1.44,11.62-27.99Z"/>
    <path class="cls-46" d="M997.3,373.18c3.44.8,6.14,2.83,8.09,5.74s3.28,6.48,4.78,9.76c.2.45,1.59,0,1.42-.38-1.56-3.39-2.87-6.98-4.99-10.08s-4.89-4.94-8.42-5.76c-.41-.09-1.65.53-.88.71h0Z"/>
    <path class="cls-46" d="M844.22,368.3c-.04-.97.45-1.9.8-2.77.38-.93.77-1.87,1.2-2.78.81-1.76,1.75-3.45,2.94-4.98.22-.28-.19-.46-.41-.47-.35-.03-.74.13-.95.41-1.27,1.63-2.25,3.45-3.1,5.33-.41.91-.79,1.83-1.17,2.75s-.81,1.86-.76,2.91c.02.51,1.47.21,1.45-.39h0Z"/>
    <path class="cls-46" d="M886.24,360.02c.34,4.5,0,9.41-3.06,12.99-.59.69.79.92,1.21.42,3.28-3.83,3.66-8.98,3.29-13.8-.05-.65-1.5-.31-1.45.39h0Z"/>
    <path class="cls-46" d="M850.36,394.51c-5.1-.98-9.34-4.14-13.33-7.29-2.15-1.7-4.29-3.4-6.44-5.1-1.03-.82-2.06-1.63-3.09-2.45-.68-.54-1.05-.91-.76-1.77.19-.55.39-1.09.62-1.63,1.01-2.36,2.7-3.9,5.43-3.47,2.2.35,4.31,1.13,6.23,2.27s3.83,2.59,5.73,3.92c1.01.7,2.03,1.39,3.08,2.03.48.29,1.01.55,1.47.87.5.35.88.83,1.37,1.19,1.96,1.43,5.03.9,7.31,1.19,3.17.41,6.23,1.28,9.17,2.53.64.27,1.68-.64.83-1.01-2.75-1.18-5.63-2.02-8.59-2.48-1.43-.22-2.88-.35-4.33-.4-.71-.02-1.43-.03-2.13-.19-.84-.2-1.34-.67-1.96-1.23-.98-.87-2.23-1.45-3.33-2.16-1.23-.81-2.43-1.67-3.63-2.52-1.99-1.42-4-2.86-6.25-3.83-3.94-1.69-8.85-2.29-11.24,2-.55.98-1.03,2.12-1.31,3.21s.2,1.53,1.02,2.2c2.48,2,5,3.97,7.5,5.95,4.89,3.87,9.86,8.06,16.16,9.27.74.14,1.46-.9.49-1.09h0Z"/>
    <path class="cls-46" d="M822.42,394.13c-4.1-2.7-8.21-5.4-12.31-8.1l-2.87-1.89c-.64-.42-3.08-1.54-3-2.37.07-.69,1.25-1.61,1.74-1.94.79-.54,1.69-.88,2.63-1.06,4.38-.83,8.42,1.97,12,4.09,4.06,2.41,8.21,4.65,12.45,6.72.47.23,1.78-.43,1.14-.75-3.88-1.9-7.7-3.94-11.43-6.13-3.36-1.97-6.73-4.35-10.68-4.9-2.74-.38-5.85.29-7.91,2.21-.65.6-2,1.96-1.15,2.82.65.65,1.7,1.14,2.46,1.64l2.87,1.89c4.31,2.84,8.62,5.67,12.93,8.51.44.29,1.76-.34,1.14-.75h0Z"/>
    <path class="cls-30" d="M1061.1,323.26c-5.25-.2-10.49-.54-15.72-1.02-.44-.5,9.46,30.15,8.61,30.5-4.12,1.66-42.05,2.01-57.14-16.64,12.17-58.65,15.69-84.22,19.45-99.69,6.22-25.62,59.74-50.56,63.22-51.98,0,0-4.78,94.07-16.25,130.03-.78,2.45-1.5,5.42-2.16,8.81Z"/>
    <path class="cls-4" d="M1107.3,50.48c6.17-2.31,10.47-1.25,16.88-2.87.55-.14,1.17-.28,1.66-.05.41.18.62.57.8.93,4.4,8.63,9.17,17.06,11.56,26.36,1.02,3.96,1.85,8.01,1.48,12.13-.33,3.71.43,7.85-.86,11.45-1.13,3.16-2.26,6.32-3.39,9.48-.42,1.18-.87,2.4-1.84,3.34-2.82,2.76-7.98,1.48-11.1-.68-6.7-4.64-10.13-12.01-11.56-19.46-1.43-7.45-1.1-15.14-1.61-22.73-.35-5.23-1.11-10.42-2.25-15.53"/>
    <path class="cls-27" d="M1125.07,121.36s1.77,23.2,13.52,37.89c1.88,2.35,24.97,10.78,24.97,10.78l-23.7,70.49c-13.42,7-39.6.42-54.67-1.01l-35.14-28.52s19.76-18.48,19.6-22.03c-.16-3.55-8.07-27.97-8.07-27.97"/>
    <path class="cls-27" d="M1014.58,69.83s.01-.04.01-.07c.98.64,8.23-7.19,9.29-8.02,11.21-8.79,16.25-15.25,30.44-16.3,7.41-.55,15.67,5.1,23.1,5.43,7.12.32,13.04-5.78,20.11-6.98,2.45-.41,4.63,7.33,3.5,5.79,2.98-1.18,5.3-2.51,5.3-2.51,9.1,4.21,6.74,37.99,7.57,42.35.83,4.36,3.31,10.97,3.31,10.97.83-1.89,1.87-3.37,2.15-5.37.34-1.77,1.19-3.91,1.53-5.67,1.3-4.17,7.16-5.04,10.41-3.45l1.81,1.67c5.01,4.18,3.01,20.83,1.41,26.24,1.57,9.82-5.58,16.95-12.01,11.17l-.4,4.08-9.17,22.1c-7.22,12.24-23.93,27.04-39.26,30.11-5.49,1.1-12.87,3.16-18.33-2.68-5.52-5.9-7.76-9.2-13.52-14.53-5.52-5.1-8.22-8.46-11.72-15.11-3.62-6.88-4.07-8.81-5.04-16.32-.43-3.35-1.39-8.36-2.38-11.44-1.15-3.56-6.21-17.45-8.54-25.76-2.33-8.31.43-25.73.43-25.73Z"/>
    <path class="cls-46" d="M1122.76,106.46c.83-3.65,1.83-7.39,3.6-10.71.45-.85.96-1.68,1.58-2.41.19-.23.38-.43.6-.63.08-.07.17-.15.26-.22.07-.05.28-.2.16-.12.07-.04.14-.09.21-.12.1-.05-.07-.05.03-.01.13.05-.15.04-.04.01l-.75-.05c.65.52,1.15,1.28,1.54,2,1.09,2.02,1.43,4.33,1.37,6.6,0,.38,1.4.14,1.42-.38.07-2.64-.42-5.35-1.96-7.55-.53-.76-1.04-1.54-2.05-1.17-1.97.72-3.21,3.07-4.07,4.81-1.57,3.2-2.52,6.69-3.31,10.15-.11.48,1.31.26,1.41-.2h0Z"/>
    <path class="cls-46" d="M1124.35,107.62c1.6-.42,1.68,3.11,1.74,3.97.08,1.05-.07,3.71,1.54,3.66.97-.03,1.46-.68,1.68-1.54.35-1.39.35-2.9.32-4.32-.04-1.9-.22-3.52-.86-5.3-.74-2.05-1.96-4.39-4.29-4.84-.36-.07-1.64.51-.9.65,1.93.37,3.02,2.58,3.65,4.23.52,1.36.83,2.67.92,4.12.1,1.58.13,3.19-.08,4.76-.06.48-.14.97-.33,1.42-.04.09-.19.27-.19.34l.77-.18s-.07-.05-.1-.08c-.04-.07-.15-.14-.2-.22-.36-.54-.38-1.37-.44-2-.08-.88-.11-1.76-.24-2.63-.11-.76-.26-1.65-.8-2.23-.61-.65-1.56-.57-2.35-.36-.16.04-.7.21-.64.46s.64.12.78.08h0Z"/>
    <path class="cls-46" d="M1026.41,82.61s10.88-.67,19.58-1.91c8.7-1.24,16.56-5.97,16.56-5.97,0,0-9.73,4.06-16.61,5.07-6.88,1.01-19.53,2.81-19.53,2.81Z"/>
    <path class="cls-4" d="M1059.08,89.51c9.06-4.32,15.74-6.02,18.54-6.29,2.19-.21,4.41-.06,6.58.38,0,0,6.39,2.94,7.29,3.77.9.82-3.39.33-3.39.33-.89,0-1.53-.1-2.42,0-4.88.57-9.68.57-14.3,2.29-3.96,1.45-8.95,4.81-12.54,7.06-.53-1.58-.99-4.98-1.67-6.51"/>
    <path class="cls-4" d="M1015.45,100.99c.05-.14,0-1.13.06-1.27,0,0,.08-.15.09-.15.95-.52,2.05-1.46,3.48-1.93,2.5-.83,8.81-3.12,18.14-3.16.26,1.61,1.04,4.6,1.31,6.21-3.89-.45-6.56-.39-10.48-.07-3.68.3-8.85.99-12.46,2.02-.15-.32.04-.01-.09-.34-.05-.23-.1-.46-.12-.7.01-.2.03-.4.06-.6Z"/>
    <path class="cls-27" d="M1054.52,170.53c.16-.05.3-.13.42-.24,2.22-2.11,2.25-3.08,3.43-3.59.27-.12.4-.24,1.26-.52,3.46-1.11,5.55-1.86,16.1,2.55.21.09,12.39-3.65,12.62-3.72l5.9-4.16c.96-.85,21.51-25.38,21.51-25.38.25-.74,3.76-6.34,3.82-7.02.07-.05.13-.11.21-.15.03-.01.08-.05.14-.09.02.04.04.09.06.12.09.27.13.56.17.84.16,1.23.12,2.47-.05,3.7-.25,1.89-.26,3.77-.43,5.66-.06.67-.16,1.33-.28,1.98-2.45,2.19-10.01,26.47-25.19,33.96-.62.28-2.55,1.21-7.9,2.61-10.05,2.63-17.99,7.23-28.53,6.04-2.75-.31-5.18-1.82-6.66-4.08-4.2-6.44-18.16-31.96-21.58-42.07,3.82,5.54,15.28,22.37,20.83,30.46.17.24,3.47,3.13,3.8,3.17"/>
    <path class="cls-27" d="M1122.82,48.65s-9.03-17.23-31.73-19.62c-17.13-1.8-48.81,5.18-60.01,13.3-16.24,11.76-16.9,30.96-16.9,30.96l108.64-24.63Z"/>
    <path class="cls-43" d="M1068.48,182.44s25.33-5.23,30.78-10.3c5.44-5.07,11.07-13.17,15.08-24.52,0,0-4.07,24.65-17.56,29.55-17.79,6.47-27.23,7.38-27.23,7.38l-1.07-2.12Z"/>
    <path class="cls-5" d="M1027.75,110.29c-1.43-.42-2.99.45-3.7,1.36-.17.21-.44.83-.53,1.73-.11,1.15.56,2.3,1.39,2.92,1.11.83,2.66.71,3.73-.06,1.44-1.05,1.59-3.05.93-4.36-.12-.24-.67-1.24-1.82-1.59"/>
    <path class="cls-5" d="M1042.59,111.66s-7.27-3.75-10.56-3.45c-4.8.44-10.11,4.17-11.32,6.83,0,0,6.93-5.39,10.32-5.6,3.24-.2,11.56,2.22,11.56,2.22Z"/>
    <path class="cls-5" d="M1067.79,102.9c1.17-.92,3.29-1.14,4.28-.55.23.14.87.54,1.28,1.34.53,1.03.33,2.35-.21,3.23-.72,1.18-2.21,1.64-3.48,1.32-1.73-.43-2.61-2.24-2.48-3.71.02-.27-.33-.71.61-1.45"/>
    <path class="cls-5" d="M1062.07,107.53s6.26-5.91,9.75-6.69c5.09-1.14,11.78.68,13.91,2.81,0,0-8.91-2.86-12.47-1.97-3.41.86-11.18,5.84-11.18,5.84Z"/>
    <g>
      <path class="cls-14" d="M1052.67,136.5c1.89.59,4.48-.1,6.03-1.48.34-.31,1.67-.31,1.19.12-2.04,1.83-5.8,2.64-8.24,1.88-.24-.08-.23-.25.03-.39.27-.15.73-.21.99-.13"/>
      <path class="cls-14" d="M1060.55,134.51c1.06-.76,2.31-1.28,3.59-1.61.19-.05.45-.02.61.08.13.08.17.2.04.31-.54.45-1.28.73-1.98.84-.22.04-.52.03-.68-.13-.15-.15.05-.31.22-.33.58-.09,1.15-.31,1.6-.69.22.13.44.26.66.39-1.14.3-2.26.78-3.21,1.45-.19.13-.5.12-.7.05-.15-.06-.34-.22-.15-.36"/>
      <path class="cls-14" d="M1065.73,133.74c1.51-.31,3.18-1.29,3.72-2.56.82-1.92-.72-4.45-2.82-5.21-.23-.08-.15-.26.06-.34.26-.11.6-.06.84.02,1.83.66,3.3,2.7,3.34,4.36.04,1.55-1.23,2.86-2.96,3.62-.52.23-1.08.42-1.64.54-.23.05-.66.05-.8-.11-.15-.16.05-.28.26-.32"/>
      <path class="cls-14" d="M1049.75,136.23c.05-.19-.12-.28-.24-.25-.41.08-.85.05-1.25-.17-.11.19-.21.37-.31.56.84-.06,1.71.06,2.53.42.16.07.36-.03.47-.16.08-.1.15-.31-.01-.38"/>
      <path class="cls-14" d="M1050.94,136.24c-.92-.4-1.89-.52-2.83-.45-.14.01-.3.11-.37.26-.06.11-.05.24.06.31"/>
      <path class="cls-14" d="M1046.63,137.01c-1,.14-2.28-.31-2.97-1.36-1.04-1.58-.73-3.75.31-5.07.11-.14.01-.29-.13-.3-.19-.03-.38.11-.5.26-.9,1.15-1.32,2.83-.87,4.41.42,1.48,1.56,2.36,2.82,2.58.38.07.77.09,1.14.03.15-.02.41-.14.45-.33.04-.19-.11-.25-.25-.23"/>
    </g>
    <path class="cls-10" d="M1118.2,97.02l-.64-2.76-32.4.89h0c-10.87-1.95-24.43,3.76-31.53,10.78l-7.15,1.85.04-.13c-9.73-4.59-23.91-2.7-33.6,4.47l.53,1.09h0c.02.07.13.22.23.45l.47.95c2.92,6.05,6.19,12.41,8.32,13.83,1.43.96,5.44.74,8.7.34,1.23-.14,2.35-.31,3.16-.43.96-.16,9.52-1.57,10.66-3.21,1.14-1.63,1.49-12.15,1.53-15.46l7.34-1.86c1.45,2.27,5.56,12.47,9.61,13.89,4.06,1.41,22.4-3.21,23.57-6.18.83-2.12,2.11-9.54,2.3-13.2l.62-4.79,28.23-.52ZM1043.93,124.31c-1.28,1.6-18.29,4.61-20.76,2.97-2.09-1.39-6.26-10.02-7.83-13.26l-.03-.14c8.76-5.87,21.54-7.59,29.97-3.75-.17,5.73-.64,13.14-1.35,14.16v.03ZM1084.71,115.2c-.73,1.87-16.61,6.63-20.79,5.17-2.91-1-6.04-8.44-8.18-12.62,6.98-6.71,22.19-12.05,31.98-9.71-.48,5.8-1.49,11.55-3.01,17.17h0Z"/>
    <path class="cls-1" d="M117.36,287.27s2.99,8.96-7.84,19.41l-10.83,10.45s-5.97-22.77,2.24-29.86c8.21-7.09,16.42,0,16.42,0Z"/>
    <path class="cls-1" d="M447.42,97.28s35.93-2.98,40.43-22.23l4.49-19.26s-45.45-14.12-53.21,15.4l-7.76,29.53"/>
    <path class="cls-1" d="M420.63,73.13s35.93-2.98,40.43-22.23l4.49-19.26s-45.45-14.12-53.21,15.4l-7.76,29.53"/>
    <path class="cls-11" d="M1282.11,436.68l4.58,48.57c.55,27.77-13.32,72.19-21.85,98.88l-24.74,100.5s2.03,26.76,7.5,67.27c4.76,35.12-2.85,135.77-2.85,135.77l-13.54,2.31c-12.23,2.08-24.74,2.5-37.1,1.22l-26.54-2.75-25.03-210.8-18.35-127.24-25.15-76.48,183.07-37.25Z"/>
    <path class="cls-11" d="M1078.14,466.71l13.75,222.75c0,9.83,6.16,34.56,11.99,50.88l10.98,82.6,6.77,60.08,3.91,1.2c10.58,1.91,21.4,2.52,32.16,1.81l23.58-.87-26.15-411.52-76.99-6.93Z"/>
    <path class="cls-30" d="M1053.77,396.38l-.2-.75c.15-.04-.62-.07-.47-.11l-30.7-114.02,5.87-39.39s7.53-16.8,8.13-19.49l27.38-30.96s4.79,5.13,12.83,16.52c3.44,4.88,4.28,23.66,10.83,22.75,0,0,0-16.37,13.32-32.31,0,0,37.04-29.96,36.88-37.3,14.79,1.63,60.49,11.08,72.5,18.79,14.12,9.02-11.25,50.8-21.61,73.67l21.22-2.32s25.75,24.06,38.59,62.18c.5,1.36,7.07,31.81,7.57,33.35,1.56,4.54,8.41,20.4,9.6,23.46-.29.07,4.52,7.09,10.44,33.04,7.02,27.83,8.02,26.38,9.41,39.12,1.75,16.02-112.51,50.19-153.35,49.52-37.43-.61-57.61,12.8-64.22-61.87h0c-4.95-25.05-6.48,0-14-33.91Z"/>
    <path d="M1118.94,533.03c18.2,12.49,18.76,36.82,18.77,56.64,0,9.8.02,19.61.03,29.41.01,14.11.02,28.22.04,42.32,0,9.24-.17,18.51.22,27.74.42,9.8,1.66,19.47,3.07,29.16s2.76,19.01,4.15,28.52c1.97,13.55,3.94,27.11,5.91,40.66,2.09,14.35,4.17,28.7,6.26,43.06,1.73,11.9,3.46,23.8,5.19,35.71.9,6.2,1.8,12.4,2.7,18.61.04.28.08.56.12.84.1.71,2.47.18,2.35-.63-.64-4.37-1.27-8.75-1.91-13.12-1.58-10.84-3.15-21.69-4.73-32.53-2.04-14.06-4.09-28.13-6.13-42.19-2.04-14.04-4.08-28.07-6.12-42.11-1.57-10.81-3.14-21.61-4.71-32.42-.68-4.68-1.4-9.35-2.03-14.04-1.78-13.37-1.97-26.75-1.98-40.2-.01-13.34-.02-26.68-.03-40.01-.01-11.91-.02-23.81-.03-35.72-.01-16.4.58-33.93-8-48.55-2.78-4.73-6.4-8.91-10.94-12.03-.64-.44-2.76.5-2.19.89h0Z"/>
    <path class="cls-41" d="M1128.39,122.66c.01.07.02.13.03.2,0-.09,0-.16-.03-.2Z"/>
    <path class="cls-30" d="M1103.75,203.34l16.71,10.61,6.16-5.83c16.31-15.22,28.25-45.48,28.25-45.48l-20.57-11.51c-3.76,11.05-35.78,45.99-35.78,45.99l-14.29,31.29-8.2-27.64c-4.75-5.93-6.52-13.56-6.89-17.67-.25,0-1.39.02-1.65,0-1.04-.07-1.35.03-2.39,0l-13.76,12.66c3.54,21.04,9.42,22.8,9.42,22.8l11.51-9.55c3.47,7.26,7.37,14.43,10.5,21.84.95,2.25,1.73,4.61,2.4,7.03l-.78-4.25c.51-1.09,19.36-30.29,19.36-30.29Z"/>
    <path class="cls-39" d="M1051.01,200.17c.85,5,1.87,10.15,4,14.79.83,1.8,1.89,3.82,3.62,4.91.63.4,1.39.65,2.14.54.81-.12,1.42-.78,2.02-1.28l3.53-2.93c2.3-1.91,4.6-3.82,6.9-5.72l-1.81.11c3.49,7.28,7.34,14.4,10.5,21.84.29.69,2.28.08,2.02-.54-3.16-7.44-7.01-14.55-10.5-21.84-.3-.62-1.44-.2-1.81.11-3.84,3.18-7.67,6.37-11.51,9.55l.95-.39c.15-.03.03-.08,0-.01.03-.08.21.07-.1-.03.11.04-.11-.03-.25-.1-.86-.42-1.53-1.18-2.1-1.95-1.26-1.73-2.08-3.78-2.77-5.78-1.32-3.83-2.14-7.81-2.82-11.8-.11-.67-2.14-.19-2.02.54h0Z"/>
    <path class="cls-39" d="M1084.74,234.07c.58-1.18,1.47-2.26,2.2-3.34,1.61-2.37,3.23-4.73,4.85-7.09,3.52-5.12,7.05-10.23,10.59-15.33.83-1.19,1.65-2.39,2.48-3.58l-1.74.47c5.57,3.54,11.14,7.07,16.71,10.61.51.32,1.22.09,1.62-.29,2.05-1.94,4.1-3.88,6.16-5.83,4.13-3.91,7.68-8.36,10.9-13.03,5.81-8.42,10.61-17.55,14.77-26.88.89-1.99,1.76-4,2.55-6.03.41-1.05-1.61-1-1.92-.2-2.14,5.54-4.72,10.94-7.44,16.22-5.16,10.01-11.14,20-19.14,28.02-2.45,2.46-5.04,4.8-7.56,7.18l1.62-.29c-5.57-3.54-11.14-7.07-16.71-10.61-.58-.37-1.38-.05-1.74.47-5.82,8.38-11.64,16.76-17.38,25.2-.91,1.34-2.03,2.69-2.74,4.14-.49,1,1.54.96,1.92.2h0Z"/>
    <path class="cls-27" d="M1260.31,288.86l-49.28-94.65c-.7,1.7-1.44,3.39-2.21,5.06-2.02,4.37-3.81,7.9-5.32,11.51-.8,1.91-1.55,3.85-2.17,5.83-.18.59-1.24,5.49-1,3.71-1,7.3-6.07,13.38-13.97,13.24,9.55,48.24,26.09,121.19,26.09,121.19,0,0-85.76,57.06-99.4,73.11l12.18,21.34c8.7-6.04,95.25-30.42,95.25-30.42,0,0,46.14-18.64,50.76-47.39,2.6-16.16-10.94-82.53-10.94-82.53Z"/>
    <path class="cls-8" d="M898.79,429.9l12.02,19.01,84.4,35.5,30.37,43.69-119.97-67.47-22.74,2.74s-4.39-22.25,15.91-33.47Z"/>
    <g>
      <path class="cls-36" d="M1030.82,398.17c.41.6-.28-.67,0,0h0Z"/>
      <path class="cls-8" d="M1082.24,514.65c.64-1.26-.81-3.02-2.4-6.78l-5.43-12.15c17.06-14.46,16.4-66.44,9.3-82.18-2.32-5.15-5.76-8.58-10.19-10.2-9.39-3.42-21,2.15-32.23,7.55-1.32.63-2.64,1.26-3.95,1.88l-6.52-14.6-4.1,2.82c-2.73-4.04-2.9,3.73-7.56,5.15l-23.65,14.64c-5.44,1.66-39.51-.59-38.87,1.56l22.71,116.43c1.18,6.05,1.54,10.21,6.73,9.14,8.74.92,35.5,2.77,57.85-5.65,26.19-9.87,37.52-26.42,38.27-27.55,0-.02.02-.03.03-.05,0,0,.01-.02.01-.02,0,0,0,0,0,0ZM1041.03,421.01c1.39-.65,2.78-1.32,4.18-1.99,9.54-4.58,19.41-9.32,25.22-7.2,2.09.76,3.75,2.54,5.06,5.43,6.56,14.55,5.09,57.03-5,69.68l-29.46-65.92Z"/>
    </g>
    <path class="cls-45" d="M956.65,422.34s25.42,3.85,45.84-3.66c20.42-7.51,28.78-20.47,28.78-20.47,0,0-22.97-2.04-40.47,3.3-17.5,5.34-29.33,15.85-34.15,20.84Z"/>
    <path class="cls-27" d="M1123.51,420.65s-13.69,3.4-15.58,3.03c-1.88-.37-25.19-8.93-27.12-8.5-1.93.43-18.44,6.05-18.44,6.05l-2.68,9.3s-6.64,7.74-6.24,10.74c.4,3,4.35,4.31,6.28,3.85,1.35-.22,2.74-.1,4.03.36-.69,1.69-.7,3.58-.02,5.27,1.24,1.95,6.15,1.41,6.15,1.41.18,1.92.72,3.78,1.58,5.5,1.26,1.95,4.5,1.59,4.5,1.59,0,0-.59,5.9.7,7.36,1.29,1.46,14.65-.13,18.83-3.42,3.03.73,6.23-1.76,8.99-3.21,4.45-2.47,29.81-15.66,29.81-15.66l-6.41-16.86"/>
    <path class="cls-30" d="M1192.73,326.07l-13.89-58.63.53-94.74s45.83-1.52,63.89,34.25c7.93,16.03,19.54,73.72,26.65,106.15-45.13,15.1-57.05,14.74-77.19,12.98Z"/>
    <path class="cls-39" d="M1195.76,194c-4.4,1.11-7.98,4.24-10.76,7.71-3.01,3.75-5.35,8.07-6.92,12.61-2.4,6.92-2.29,14.58-1.96,21.8.43,9.57,1.69,19.11,3.2,28.57,1.67,10.42,3.71,20.77,5.96,31.08s4.78,20.83,7.5,31.16c.07.26.38.33.6.35,2.85.31,5.74.44,8.6.36,1.01-.03,1.53-1.24.22-1.2-2.7.07-5.43-.08-8.12-.37l.6.35c-4.93-18.77-9.26-37.72-12.56-56.84-1.63-9.43-3.02-18.92-3.76-28.46-.57-7.36-.95-15,.39-22.31.89-4.88,2.99-9.54,5.67-13.69s6.55-8.74,11.63-10.01c1.16-.29.87-1.4-.3-1.1h0Z"/>
    <path class="cls-22" d="M1191.33,319.07c.69,0,2.03-1.04.75-1.04-.69,0-2.03,1.04-.75,1.04h0Z"/>
    <path class="cls-46" d="M1213.27,354.97c8.66-2.13,17.99-.06,25,5.43.52.41,1.74-.33,1.08-.84-7.39-5.79-17.26-7.85-26.36-5.61-.88.22-.61,1.24.27,1.02h0Z"/>
    <path class="cls-45" d="M882.61,463.4s15.55-16.78,15.97-34.12c.42-17.34,0,0,0,0,0,0-20.62,11.1-15.97,34.12"/>
    <path class="cls-39" d="M1043.3,352.46c-.5-2.53-1.65-5.01-2.59-7.4-1.29-3.28-2.64-6.54-3.99-9.8-3.65-8.8-7.09-17.69-10.6-26.55-2.51-6.34-4.89-12.77-7.98-18.85-.27-.53-2.21.16-2.02.54,2.76,5.43,4.92,11.13,7.17,16.79s4.48,11.3,6.72,16.96c2.69,6.78,5.52,13.49,8.21,20.26,1.1,2.77,2.48,5.66,3.06,8.6.09.48,2.12,0,2.02-.54h0Z"/>
    <path class="cls-7" d="M487.98,689.77s1.45,1.57.77,4.42c-.68,2.84-16.73.5-22.23,1.39-5.49.88-31.03,4.64-36.5,3.45-5.47-1.19-.68-8.37-.68-8.37l58.64-.87Z"/>
    <path class="cls-27" d="M423.99,678.68c-.52,3.17-.68,4.95-1.24,7.99-.65,3.5.96,6.06,4.77,7.38,3.21,1.11,7.46,1.54,10.88,1.23,4.46-.41,9.2-1.43,13.66-1.84,3.83-.35,19.39-2.09,23.18-1.55,5.9.83,9.47-.18,12.03-1.22.71-.29,1.16-.27,1.47-.83.81-1.47.63-3.05-1.34-4.19-2.49-1.43-5.32.79-7.65-.92-.42-.3-.81-.65-1.28-.86-.93-.42-2.02-.27-3.06-.21-5.16.26-8.42-1.79-15.25-3.28-2.01-.44-14.3-11.12-16.17-11.91"/>
    <path class="cls-27" d="M458.4,454.75c.03.23,0,.46-.09.67-.8,1.81-4.89,9.38-4.99,16.58-.09,6.48-.23,15.9-.28,19.16-.01.77.68,1.39,1.47,1.28,1.09-.15,2.53-.89,3.37-3.47.79-2.83,1.31-5.71,1.58-8.63.09-1.02,1.31-1.53,2.13-.88h0c.33.26.5.66.48,1.06l-.58,9.07c-.03.49-.35.92-.82,1.1-1.73.67-5.89,2.54-7.07,5.35-.36.84.35,1.76,1.29,1.72l5.98-.25c.08,0,.16-.01.24-.03l5.89-1.33c.23-.05.45-.17.62-.33l5.31-5.04c.17-.16.29-.36.35-.57l4.48-15.96c.41-1.45.44-2.98.07-4.44-1.06-4.18-1.9-8.42-2.5-12.69-.97-8.36-1.5-13.75-1.74-16.24-.08-.82-.93-1.35-1.73-1.08l-13.82,4.63c-.59.2-.95.77-.87,1.37l1.26,8.94Z"/>
    <path class="cls-27" d="M444.2,293.01c1.88.7,21.39,20.18,24.82,32.55,3.43,12.37,2.84,38.59,4.25,49.4,1.65,11.16,2.51,23.6,3.3,37.52.2,3.63.14,7.28-.19,10.9l-2.66,29.76-12-2.76s-6.48-76.37-12.78-93.75c-6.3-17.37-4.74-63.62-4.74-63.62Z"/>
    <path class="cls-27" d="M423.42,681.07s26.6,9.16,34.19,9.4c7.59.24,13.37,2.11,13.37,2.11,0,0-12.26-12.22-21.8-17.14-2.01-1.03,3.57-67.2,7.87-98.08,2.99-21.45,1.4-38.59,1.4-38.59l-34.99,2.52.51,32.78-1.65,5.96c-.86,3.12-3.34,9.08-3.65,12.31-.83,8.72-2.16,20.34-1.92,24.82.41,7.58,2.75,17.9,2.97,20.56l5.71,32.81-2.02,10.55Z"/>
    <path class="cls-27" d="M387.18,681.1s30.62,15.54,38.22,15.55c7.59.01,4.98-4.02,4.98-4.02,0,0-20.13-19.69-22.08-23.32-1.07-1.99,4.29-62.35,7.63-93.35,2.32-21.54,2.47-38.67,2.47-38.67l-34.89,3.59-3.52,31.44-1.47,6.01c-.77,3.14-1.84,8.72-2.04,11.95-.56,8.75-1.13,23.46-.75,27.92.64,7.56,5.51,26.15,5.81,28.81l5.65,24.55v9.54Z"/>
    <path class="cls-7" d="M386.08,692.46s-1.14.12-1,4.02c.18,5.22,16.29,3.6,20.62,3.74,4.33.14,18.28,3.58,28,3.4,9.72-.18,19.26-6.59,20.06-9.7.8-3.12-.45-4.45-2.57-5.14s-62.3.39-62.3.39l-2.81,3.29Z"/>
    <path class="cls-27" d="M386.83,669.76c.45,3.24-.41,7.93-.78,14.83-.16,3.04-2.36,7.49.94,9.5,5.83,3.57,12.42,1.63,14.99,2.09,5.41.96,9.68.71,14.9,2.11,5.29,1.41,6.39,1.77,12.12,1.81.79,0,1.63-.07,2.29-.46.45-.26.79-.65,1.23-.92,1.58-.93,3.69.07,5.53-.27.81-.15,1.54-.56,2.28-.89,1.97-.88,4.15-1.25,6.26-1.82,2.1-.57,4.23-1.39,5.63-2.92,1.4-1.53,1.83-3.92.46-5.44-2.06-2.31-4.47-.75-7.09-.84-2.62-.08-3.62-.44-5.98-1.36-6.03-2.36-6.96-2.85-12.04-4.68-3.94-1.42-15.54-6.01-21.17-9.41l-.69-12.93"/>
    <g>
      <path class="cls-46" d="M432.7,699.11c.68-.23,1.2-.74,1.35-1.45.12-.57.05-1.16-.24-1.67-.63-1.08-1.88-1.65-2.99-2.09-.65-.26-1.31-.47-1.97-.7-.31-.11-.74.03-1.02.17-.16.08-.47.32-.16.43,1.33.48,2.78.86,3.92,1.74.51.39.93.9,1.04,1.55.06.34.04.7-.07,1.03-.05.15-.12.3-.22.43-.04.05-.1.1-.12.14-.06.04-.07.05-.02.02.07-.03.06-.03-.01,0-.14.05-.6.25-.42.46s.75.01.94-.05h0Z"/>
      <path class="cls-46" d="M438.08,699.08c.88-.06,1.63-.57,1.92-1.4.24-.68.18-1.48.03-2.17-.16-.76-.49-1.39-1.08-1.9-.85-.74-1.9-1.11-2.97-1.42-1.25-.35-2.41-1.02-3.75-.91-.28.02-.77.2-.81.53-.05.34.41.39.64.37.42-.03.85.11,1.24.24.45.15.89.33,1.34.48.87.3,1.76.49,2.55,1,.6.38,1.05.87,1.26,1.5.18.55.28,1.16.23,1.74-.02.3-.08.61-.22.86-.01.03-.03.05-.04.07-.05.08,0,0-.03.04-.03.03-.14.15-.06.06,0,.01-.09.06-.02.02.04-.02.04-.02,0,0-.05.02-.03.02.05-.01,0,.03-.12,0-.02,0,.09.01-.08,0-.1,0-.28.02-.77.2-.81.53-.05.34.41.39.64.37h0Z"/>
      <path class="cls-46" d="M442.43,697.27c.86-.37,1.45-1,1.65-1.93.16-.77.06-1.56-.34-2.24-.83-1.4-2.45-2.17-3.92-2.69-.93-.33-1.92-.62-2.89-.76-.32-.05-.76.09-1.02.27-.24.17-.19.31.09.35.52.07,1.03.24,1.53.38.45.12.89.26,1.32.42.87.32,1.73.74,2.46,1.33.66.54,1.2,1.23,1.36,2.08.08.46.05.93-.09,1.37-.07.23-.17.47-.31.67-.07.1-.14.19-.23.27-.03.03-.28.18-.12.11-.13.06-.6.23-.43.44.16.19.78,0,.94-.07h0Z"/>
      <path class="cls-46" d="M446.78,696.09c1.64-.84,2.93-3.3,1.7-4.98-1.04-1.41-3.03-2.01-4.63-2.48-.45-.13-.91-.24-1.36-.38-.62-.18-1.22-.4-1.87-.33-.27.03-.79.1-.97.34s.16.22.33.2c.43-.05.96.23,1.37.35.35.1.7.19,1.04.29.82.23,1.63.5,2.41.85.72.32,1.45.72,2,1.29s.75,1.38.66,2.19c-.12,1.1-.79,2.17-1.78,2.67-.25.13-.17.27.07.28.35.02.72-.12,1.02-.27h0Z"/>
    </g>
    <path class="cls-46" d="M473.79,684.32c1.86.31,3.94.72,5.44,1.91,0,0-.11-.02-.11-.02,1.04-.78,2.41-1.03,3.66-.8-1.28-.12-2.63.15-3.62.96-1.47-1.16-3.55-1.61-5.37-2.05h0Z"/>
    <path class="cls-46" d="M421.2,678.53c3.33,1.63,6.72,3.14,10.14,4.56,2.65,1.09,5.33,2.14,8.07,2.96,1.84.56,4.03,1.28,5.98,1.01,1.47-.2,2.83-.76,4.34-.83,1.1-.05,2.31.06,2.92,1.1.54.93.36,2.1.13,3.09-.16.69,1.32.51,1.47-.12.33-1.44.42-3.17-.79-4.25s-3.05-.98-4.52-.79c-1.2.15-2.65.7-3.67.77-.92.07-1.9-.16-2.79-.36-5.52-1.25-10.84-3.7-15.97-6.03-1.32-.6-3.13-1.44-4.18-1.96-.55-.27-1.82.48-1.12.82h0Z"/>
    <path class="cls-7" d="M430.33,680.73c1.43-.07,2.83.43,3.89,1.4l6.48,6.03-1.7-.23-9.91-7.14,1.25-.06Z"/>
    <path class="cls-7" d="M440.29,688.18s-.64-1.31-3.02-1.5c-7.5-.6-24.12.53-25.55,11.54l2.77.91s2.94-8.46,9.82-9.54c6.88-1.08,15.98-1.41,15.98-1.41Z"/>
    <path class="cls-7" d="M476.88,685.13s-7.02-1.92-6.35,7.24l-4.1.33s.95-8.62,4.79-9.18c3.83-.56,5.67,1.61,5.67,1.61Z"/>
    <path class="cls-2" d="M362.11,582.5c-.02,1.43,22.34,4.77,24.01,4.9,11.63.97,25.76-.39,36.74-3.91l1.13-9.4,1.8-94.36,8.7-48.01-78.05-2.29-1.8,15.91c-1.51,13.35-1.44,26.9.22,40.22l6.89,47.55s.47,42.74.34,49.39Z"/>
    <path class="cls-2" d="M443.74,576.31c7.14-.62,16.39-1.91,21.56-7.01l2.22-127.24-39.54-12.64-9.14,146.96c7.93.08,16.96.62,24.9-.07Z"/>
    <path class="cls-34" d="M425.19,575.66l2.51-89.56s5.22-13.99,8.94-14.27"/>
    <path class="cls-27" d="M446.6,241.91c.46-4.48.32-9.45-.28-12.15.04-2.07.08-4.48.11-7.39,0-.84,0-1.65-.03-2.45-.05-.41-.06-.82-.04-1.24-.59-14.15-5.33-21.51-5.33-21.51-6.06-9.32-16.6-14.71-27.68-14.14-13.05.39-24.75,8.44-30.82,16.48-3.01,3.98-4.46,8.94-4.05,13.92.34,4.26,1.38,9.03,2.57,13.64-4.56-.17-9.02,1.51-7.28,9.9,2.4,11.57,9.91,15.1,13.39,11.88.81.14,2.46,3.63,2.67,6.05.41,4.63.3,12.86-1.94,16.93l.14,1.32c9.99,15.77,24.48,30.51,56.79,9.87l-18.25-9.99-.13-5.2c1.26-.1,2.51-.51,3.76-.77,5.15-1.05,8.63-4.62,11.28-8.9,2.24-3.62,4.27-11.24,5.02-15.47.05-.26.08-.52.11-.79Z"/>
    <path class="cls-49" d="M370.89,336.74c-2.53,12.93-10.14,19.07-10.6,20.74-.19.7-6.71,56.64-6.42,88.5,6.76,2.28,12.6,3.72,19.65,4.97,10.25,1.82,24.41,5.82,34.79,5.64,9.36-.17,28.05.78,37.37,0,10.66-.88,12.99-3.11,23.36-7.57-2.51-22.32-4.83-78.11-5.17-88.55-.35-11.49,1.07-6.54,1.07-6.54,0,0,6.12,1.75,13.34-3.31-4.58-13.06-3.97-55.06-25.52-67.43-3.05-1.75-20.72-9.12-25.71-11.31,1.16,1.97,1.36,5.15,1.02,6.55-.98,4.05-.96,5.02-4.22,6.94-2.88,1.7-7.75,3.21-11.05,2.36-16.91-4.36-21.31-11.11-24.97-17.69-7.37,4.01-12.38,6.69-19.45,9.7-26.41,11.24-20.5,50.54-20.5,50.54,4.61,2.87,23.01,6.44,23.01,6.44Z"/>
    <path class="cls-23" d="M426.37,267.85s-12.42,1.12-23.67-6.15c0,0,1.39,3.73,9.38,6.47,7.99,2.74,14.32,1.7,14.32,1.7l-.02-2.02Z"/>
    <ellipse cx="440.86" cy="226.18" rx="2.78" ry="2.77" transform="translate(120.23 603.96) rotate(-76.84)"/>
    <path d="M444.12,223.83c-1.33-.83-3.16-1.37-5.84-1.11-4.3.41-6.21,5.82-6.21,5.82,0,0,2.26-4.14,6.49-4.65,2.04-.25,5.41.92,6.97,1.71-.05-.41-.61-1.23-1.41-1.77Z"/>
    <path class="cls-46" d="M377.72,237.4c-.37-1.05-.56-2.14-.37-3.25.05-.28.12-.54.23-.8.04-.08.25-.46.08-.19l-.67.32c.13-.01-.23.02-.08,0,.02,0,.11,0,.12.02-.01-.01-.16-.06.02,0,.06.02.13.05.19.07.05.02.27.14.13.06.22.12.43.26.63.42,1.72,1.32,2.95,3.32,4.04,5.16l1.22-.75c-.58-.41-1.34-.69-2.05-.53-.87.2-1.31,1.01-1.33,1.85-.05,1.97,1.71,3,3.47,3.17.35.03.79-.1.94-.45.14-.33-.13-.61-.45-.64-1.16-.11-2.35-.66-2.49-1.95-.02-.19,0-.39.03-.58.02-.1.03-.14.05-.21,0-.03.05-.09.05-.11l.03-.06s0-.03-.05,0c0,.15-.24-.12,0,.03.1.07.26.09.37.14.09.05.21.12.31.19.46.33,1.61-.1,1.22-.75-.84-1.41-1.75-2.81-2.86-4.04-.57-.64-1.2-1.27-1.95-1.7-.36-.21-.75-.39-1.17-.44-.6-.07-1,.29-1.22.83-.6,1.46-.41,3.12.1,4.57.24.68,1.68.28,1.45-.39h0Z"/>
    <ellipse cx="411.99" cy="226.72" rx="2.78" ry="2.77" transform="translate(97.41 576.26) rotate(-76.84)"/>
    <path d="M419.79,228.49s-4.22-5.6-8.96-5.18c-6.66.59-7.8,3.36-9.07,5.51,0,0,4.06-4.05,9.22-4.38,4.68-.3,8.81,4.05,8.81,4.05Z"/>
    <path class="cls-26" d="M427.65,249.15c-1.9.01-7.68-.26-7.68-.26,0,0,2.28,1.55,7.98,1.52,5.7-.03,7.31-1.55,7.31-1.55l-7.61.3Z"/>
    <path class="cls-16" d="M464.68,312.08c.32,3.87.3,7.78.3,11.66,0,3.49-.03,6.98-.08,10.47-.04,2.45-.23,4.89-.27,7.34-.06,3.29-.06,6.62.25,9.9.04.39.08.79.13,1.18.04.28,0,.96.18,1.19.02.03.08.04.11.06.2.15.57.21.8.27,1.46.38,3.04.29,4.51.01,2.84-.53,5.5-1.81,7.94-3.32.03-.02.09-.05.08-.09-.15-1.39-.29-2.78-.44-4.17-.02-.15-.61.09-.66.15-1.59,1.83-4.24,2.91-6.53,3.41-1.02.22-2.07.38-3.11.45-.58.04-1.2.06-1.77-.08-.19-.05-.64-.17-.64-.43,0-.08-.67,0-.67.18,0,.2.28.33.42.39.8.35,1.85.23,2.69.16,3.11-.27,6.24-1.11,8.81-2.93.52-.37,1.05-.78,1.48-1.27l-.66.15c.06.59.12,1.19.19,1.78l.14,1.31c.03.27.16.7.1.97-.07.32-1.01.69-1.34.87-.77.43-1.56.82-2.38,1.17-1.2.51-2.46.92-3.75,1.13-1.35.22-2.81.25-4.12-.17-.14-.05-.41-.1-.52-.21-.12-.13-.13-.97-.15-1.16-.06-.47-.11-.94-.15-1.42-.08-.96-.13-1.92-.17-2.88-.16-4.35.05-8.66.2-13,.1-3.01.09-6.02.1-9.03.02-4.73.09-9.5-.3-14.22,0-.1-.68.02-.67.18h0Z"/>
    <g>
      <path d="M442.29,199.11c-3.28-13.28-12.76-18.26-25.99-19.32-11.42-.92-22.5-1.94-32.71,5.79-1.68,1.29-7.19,5.32-9.25,8.91-7.13,12.47-3.73,24.93-.44,34.93.2-.09.4-.18.6-.28,1.19-.37,2.4-.41,3.61-.13.87.1,1.71.49,2.5.83.79.34,1.54.93,2.16,1.47,1.37,1.17,2.13,2.69,2.78,4.32.02.07.02.14.05.21,1.12.36.49.02,1.52-.73.96-.69.78-2.85.96-3.97.37-2.29-.04-4.59-.15-6.88-.25-1.26-.52-2.5-.85-3.74-1.37-5.19.66-8.26,1.74-12.83,0,0,2.14-6.72,9.71-10.86,8.3-4.52,11.83,1.09,22.27.71,9.01-.36,10.06-5.98,16.49-2.29,0,0,2.09.57,2.89,1.5.81.93,2.1,2.36,2.1,2.36Z"/>
      <path d="M442.61,199.03c-.84-3.36-2.17-6.62-4.23-9.42-1.81-2.46-4.16-4.5-6.82-5.99-6.36-3.58-13.77-4.05-20.89-4.5-4.23-.26-8.51-.35-12.72.28s-8.4,2.04-12.08,4.32c-2.94,1.82-5.75,4.08-8.25,6.46-1.29,1.22-2.54,2.54-3.46,4.07-1.29,2.14-2.28,4.49-3,6.89-2.53,8.48-1.03,17.27,1.52,25.54.29.95.6,1.89.91,2.84.06.19.31.19.46.12,2.35-1.07,5.32-.41,7.39,1.01.92.63,1.76,1.39,2.41,2.31.6.86,1.24,1.95,1.46,2.99.01.06.08.12.14.14.44.14.91.31,1.26-.09.22-.25.39-.47.65-.7.22-.19.39-.39.52-.65.32-.63.37-1.38.42-2.07.06-.87.2-1.74.25-2.61.07-1.12-.01-2.24-.1-3.36s-.14-2.24-.37-3.35c-.46-2.21-1.2-4.34-1.11-6.63.07-1.84.6-3.61,1.15-5.36.38-1.21.67-2.47,1.07-3.68.58-1.7,1.6-3.31,2.69-4.72,2.16-2.81,5.05-5.17,8.32-6.56,2.79-1.19,5.6-1.14,8.5-.44,3.07.74,6.05,1.67,9.22,1.88,3.38.22,6.68-.2,9.8-1.54,2.01-.86,4.04-2.23,6.34-1.9.64.09,1.26.3,1.85.55.5.22.95.53,1.47.69.66.21,1.33.47,1.92.84.68.43,1.16,1.13,1.69,1.72.34.38.68.76,1.03,1.14.2.23.8-.04.57-.29-.44-.49-.88-.98-1.32-1.47-.56-.63-1.04-1.24-1.79-1.66-.6-.34-1.24-.53-1.88-.78s-1.21-.63-1.86-.86c-1.18-.43-2.43-.56-3.66-.3-1.18.25-2.28.81-3.36,1.32-1.43.67-2.89,1.27-4.43,1.63-2.19.51-4.48.56-6.72.37-3.48-.3-6.71-1.54-10.12-2.15-3.45-.62-6.67.17-9.68,1.93s-5.76,4.38-7.65,7.45c-.51.83-.98,1.7-1.35,2.6s-.54,1.83-.82,2.75c-.59,1.95-1.3,3.88-1.54,5.91-.12,1.04-.11,2.09.03,3.13.17,1.31.58,2.58.86,3.87s.39,2.5.5,3.78c.12,1.4.22,2.81.05,4.21-.1.87-.14,1.75-.25,2.62-.05.42-.13.85-.32,1.23-.21.4-.61.59-.89.93-.04.05-.15.27-.21.3-.13.05-.3-.29-.35-.41-.23-.51-.43-1.02-.69-1.52-.48-.94-1.09-1.8-1.86-2.52-1.71-1.58-3.94-2.61-6.28-2.73-1.13-.06-2.19.15-3.22.62l.46.12c-2.6-7.9-4.72-16.19-3.29-24.54.4-2.34,1.07-4.62,2-6.8.82-1.95,1.79-3.84,3.17-5.46,2.16-2.54,4.83-4.6,7.48-6.61,3.45-2.63,7.35-4.51,11.57-5.5s8.21-1.1,12.34-.96,8.15.38,12.15.95c3.25.46,6.47,1.25,9.48,2.6,2.77,1.24,5.31,2.99,7.35,5.24,2.17,2.39,3.72,5.27,4.75,8.32.29.86.54,1.74.77,2.63.08.31.71.14.63-.17Z"/>
    </g>
    <g>
      <path class="cls-14" d="M429.36,243.16c-.92.53-2.35.47-3.31-.08-.21-.12-.91.03-.61.2,1.28.72,3.33.71,4.51.03.12-.07.09-.16-.06-.2-.16-.05-.41-.03-.53.05"/>
      <path class="cls-14" d="M425.02,243.04c-.64-.27-1.35-.4-2.06-.43-.1,0-.24.04-.31.11-.06.06-.07.13.01.17.33.17.75.23,1.13.21.12,0,.28-.04.34-.15.06-.1-.06-.16-.15-.15-.31.02-.64-.03-.91-.17-.1.09-.2.19-.3.28.63.02,1.27.14,1.84.39.11.05.27,0,.37-.06.07-.05.15-.15.04-.2"/>
      <path class="cls-14" d="M422.23,243.23c-.82.01-1.81-.31-2.24-.91-.65-.91-.13-2.51.87-3.15.11-.07.05-.15-.07-.17-.15-.03-.32.04-.44.11-.88.56-1.41,1.89-1.24,2.77.16.82.97,1.36,1.96,1.56.3.06.61.09.92.09.12,0,.35-.05.41-.15.06-.1-.06-.14-.17-.14"/>
      <path class="cls-14" d="M430.85,242.68c-.05-.09.03-.16.1-.16.22,0,.45-.07.63-.24.08.09.15.17.23.26-.44.07-.88.23-1.27.51-.08.06-.19.03-.27-.03-.05-.04-.12-.14-.04-.2"/>
      <path class="cls-14" d="M430.24,242.83c.43-.32.93-.49,1.42-.57.07-.01.17.02.22.09.04.05.06.12,0,.17"/>
      <path class="cls-14" d="M432.57,242.73c.54-.04,1.15-.43,1.39-1.06.36-.95-.05-2.05-.74-2.63-.08-.06-.04-.15.03-.18.09-.04.21.01.29.08.6.5,1.01,1.33.96,2.22-.05.83-.54,1.42-1.17,1.69-.19.08-.39.13-.59.15-.08,0-.23-.03-.27-.12-.04-.1.03-.14.1-.15"/>
    </g>
    <path class="cls-16" d="M387.16,270.2c1.15,2.16,2.66,4.17,4.23,6.03,3.32,3.95,7.38,7.41,12.11,9.54,5.59,2.51,12.31,3.05,18.12.92,2.06-.75,3.97-1.97,5.24-3.78,1.01-1.44,1.5-3.17,1.58-4.92.07-1.5-.13-3-.51-4.45-.14-.54-.31-1.07-.5-1.6-.1-.27-.18-.64-.35-.88-.02-.03-.04-.08-.06-.12l-.53.29c1.6.65,3.19,1.31,4.79,1.96.23.1.48.24.73.3-.1-.02-.07-.18-.06.01.02.35.26.77.35,1.11.99,3.72.75,7.88-1.45,11.13-1.84,2.73-4.78,4.41-7.81,5.52-3.81,1.39-7.9,1.82-11.92,1.31-7.83-.99-14.71-5.26-20.44-10.49-2.2-2.01-4.32-4.16-6.05-6.59-.43-.61-.85-1.25-1.19-1.91-.15-.29-.24-.71-.43-.98-.02-.03-.03-.09-.04-.12l-.19.26c1.62-.84,3.23-1.67,4.85-2.51.41-.21.04-.5-.28-.34-1.62.84-3.23,1.67-4.85,2.51-.09.05-.23.14-.19.26.19.74.64,1.46,1.04,2.1,1.4,2.26,3.24,4.25,5.13,6.11,5.68,5.57,12.5,10.27,20.43,11.83,3.81.75,7.74.72,11.52-.2,3.47-.84,7.05-2.34,9.6-4.91,3.17-3.2,4.06-7.75,3.21-12.07-.12-.59-.26-1.18-.45-1.75-.08-.24-.12-.52-.33-.66-.16-.11-.4-.16-.57-.23l-1.36-.56c-1.02-.42-2.03-.83-3.05-1.25-.19-.08-.38-.16-.57-.23-.13-.05-.64.08-.53.29.81,1.7,1.27,3.66,1.4,5.53.11,1.64-.08,3.35-.76,4.86-.82,1.84-2.32,3.26-4.1,4.17-2.72,1.4-5.96,1.87-8.99,1.87-3.01,0-6-.58-8.8-1.68-4.82-1.89-8.97-5.22-12.38-9.08-1.22-1.39-2.36-2.85-3.4-4.38-.52-.77-.94-1.64-1.49-2.38-.03-.03-.04-.08-.06-.12-.12-.23-.77,0-.62.28Z"/>
    <circle class="cls-38" cx="448.09" cy="406.79" r="39.98"/>
    <path class="cls-42" d="M436.9,445.13c3.59,1.06,7.4,1.64,11.33,1.64,3.13,0,6.17-.37,9.09-1.05,13.54-38.56,10.56-53.38,2.88-77.08-3.78-1.18-7.8-1.83-11.97-1.83-3.5,0-6.88.45-10.12,1.29,13.5,37.4,1.78,65.65-1.22,77.03Z"/>
    <path class="cls-27" d="M366.18,410.82c3.61-5.14-3.63-10.85,2.05-13.11,3.06-1.22-.39-5.6,3.18-5.48l2.1-62.99-31.52-1.82s-8.14,60.46-1.34,80.56c.56,1.65,2.96,7.95,15.79,11.16.69-1.94,8.56-6.63,9.74-8.31Z"/>
    <path class="cls-27" d="M366.93,389.72c-1.82-.4-8.69,2.66-10.5,3.34-2.63.99-2.03,4.64-4.32,6.27-2.22,1.58,5.53,3.26,3.61,5.2-3.49,3.52-13.28,1.57-13.72,6.25,1.83,5.88,12.72,12,32.06,16.97,15.44,3.97,56.85,13.09,56.85,13.09l8-15.11-71.98-36.02Z"/>
    <path class="cls-27" d="M419.28,418.06c2.12.65,16.82,6.86,19.01,7.18,1.1-.11,7.82-5,10.78-4.75,2.96.25,10.6,1.19,11.93.38,1.33-.81,2.18,2.59.72,4.15-2.01,1.81-4.82,2.81-7.82,2.8-3.19.01-1.66,2.95-1.66,2.95l3.01.34,8.65-.11s5.56-2.76,8.03-2.21c.86.56,1.53,1.31,1.92,2.17.28,1.1-3.78,5.31-3.78,5.31,0,0,5.18,1.51,4.19,3.67-.92,1.53-2.31,2.79-4.02,3.67,0,0,1.17,2.82-.09,3.45s-11.12,3.9-13.82,4.05c-2.71.15-14.73-1.79-14.73-1.79l-22.29-14.57-4.55-10.38,4.54-6.32Z"/>
    <path class="cls-46" d="M469.48,436.26c-.14.52-1.3,1.11-1.69,1.34-.82.5-1.69.88-2.59,1.19-1.7.57-3.48.88-5.28.96-3.55.16-7.13-.59-10.48-1.74-.29-.1-.67,0-.95.1-.05.02-.67.32-.45.39,4.12,1.41,8.51,2.2,12.87,1.67,2-.25,3.96-.73,5.84-1.48.87-.35,1.71-.77,2.49-1.29.46-.3,1.55-.86,1.7-1.43.07-.27-1.36-.09-1.46.27h0Z"/>
    <path class="cls-46" d="M469.56,443.34c-1.18.94-2.82,1.45-4.24,1.89-1.6.5-3.24.86-4.9,1.09-3.3.45-6.62.35-9.9-.17-.66-.1-1.53.81-.54.97,3.64.58,7.36.64,11,.06,1.73-.27,3.43-.67,5.09-1.22,1.5-.5,3.19-1.05,4.45-2.05.79-.63-.43-.98-.95-.57h0Z"/>
    <path class="cls-49" d="M378.63,274.96s-34.06,11.02-38.51,33.24c-5.78,28.83-5.5,52.24-5.5,52.24,0,0,25.83,8.48,46.93.68,13.02-4.81,2.14-81.59,2.14-81.59"/>
    <path class="cls-16" d="M369.66,300.23c1.58.44,3.19,1.56,4.43,2.66,3.42,3,5.35,7.31,6.19,11.72.93,4.86.88,9.95.83,14.88-.06,5.67-.34,11.33-.7,16.98-.33,5.05-.71,10.11-1.22,15.15l.15-.12s-.03,0-.02,0-.05.02-.12.05c-.21.08-.41.15-.62.22-.76.26-1.53.48-2.31.68-2.95.77-5.98,1.26-9.02,1.55-4.7.45-9.45.41-14.16-.04-2.89-.27-5.77-.69-8.62-1.25-1.57-.31-3.13-.65-4.67-1.04-.77-.19-1.54-.39-2.31-.6-.39-.11-.78-.22-1.17-.33-.24-.07-.47-.14-.71-.21-.06-.02-.62-.13-.66-.18-.05-.06,0-.32,0-.4v-.94c.02-.88.02-1.77.03-2.65.01-1.33.02-2.66.04-4l-.65.2c1.14.73,2.41,1.3,3.65,1.83,3.23,1.38,6.63,2.36,10.07,3,4.07.75,8.12.87,12.24.83,2.59-.02,5.19-.17,7.78-.43,3.71-.37,7.77-.83,11.11-2.6.27-.15-.39-.06-.51,0-1.43.75-3.02,1.18-4.59,1.51-1.79.38-3.6.63-5.42.82-2.58.27-5.18.42-7.78.45-3.89.05-7.71-.04-11.56-.69-3.47-.59-6.9-1.53-10.16-2.87-1.43-.59-2.89-1.23-4.2-2.06-.11-.07-.65.04-.65.2-.02,2.66-.05,5.33-.07,7.99.01.02.03.03.06.03,8.83,2.68,18.06,4.18,27.3,3.99,5.2-.11,10.45-.72,15.46-2.13.88-.25,1.76-.51,2.61-.86.05-.02.14-.06.15-.12,1.01-10.06,1.69-20.18,1.89-30.29.1-5.01.15-10.1-.53-15.07-.63-4.66-2.34-9.31-5.72-12.69-1.44-1.44-3.29-2.85-5.29-3.41-.15-.04-.73.2-.55.25h0Z"/>
    <path class="cls-46" d="M371,389.84c-2.25-.75-4.81-.48-7.02.28-3.03,1.04-5.37,3.22-6.69,6.13-.1.23.51.12.58.11.22-.04.76-.14.87-.38,1.1-2.42,2.94-4.53,5.47-5.49,1.67-.63,3.67-.73,5.38-.16.3.1.66,0,.95-.1.05-.02.66-.31.45-.38h0Z"/>
    <path d="M420.67,212.94c-.02-.1-.38.01-.4-.08-5.87.67-10.05,2.01-11.47,2.79-1.08.6-2.06,1.41-2.92,2.35,0,0-2.4,2.55-2.54,3.29-.15.74,1.68-.92,1.68-.92.41-.29.67-.55,1.12-.79,2.45-1.28,4.67-2.85,7.37-3.42,2.31-.51,5.73-.32,8.13-.28-.28-1.03-.77-1.89-.96-2.93Z"/>
    <path d="M446.63,219.9c.07-.11.15-.22.21-.35.04-.11.07-.23.09-.35.01-.21.01-.42,0-.63-.02-.09-.06-.18-.08-.27-.59-.73-1.24-1.36-1.98-1.85-1.18-.79-4.75-2.13-9.85-2.84-.03.09-.33-.02-.36.08-.26,1.02-.78,1.87-1.11,2.88,2.12-.03,5.15-.18,7.14.34,2.18.55,3.91,1.94,5.79,3.17.06-.06.12-.11.17-.17Z"/>
    <path class="cls-46" d="M423.87,216.71c1.55-.4,2.93-1.45,3.52-2.96.58-1.47.24-3.18-.75-4.39-.3-.36-1.69.14-1.35.55.85,1.03,1.15,2.47.76,3.75-.34,1.1-1.23,2.09-2.35,2.38-.2.05-.7.24-.64.53s.64.18.81.14h0Z"/>
    <path class="cls-40" d="M428.55,248.08c-3.06-.06-9.87,1.79-11.25,3.03,0,0,3.78,5.69,10.89,5.83,7.11.14,8.01-5.46,8.01-5.46,0,0-3.73-3.32-7.64-3.4Z"/>
    <path class="cls-30" d="M420.21,249.77s3.65-.24,6.56-.18c2.91.06,6.55.44,6.55.44,0,0,.51-2.3-4.76-2.4-5.27-.1-8.35,2.15-8.35,2.15Z"/>
    <path class="cls-18" d="M428.1,254.91c-3.32-.57-6.91-3.97-10.8-3.79,0,0,1.22,6.78,9.57,6.94,8.35.16,9.32-6.58,9.32-6.58-3.88-.33-4.75,2.99-8.09,3.43Z"/>
    <path class="cls-18" d="M432.22,246.39c-1.75-.17-2.88.51-3.64.5s-1.86-.74-3.62-.64c-1.65.1-8.68,4.23-7.92,4.8.77.57,6.22-2.46,11.5-2.36,5.28.1,7.12,3.27,7.9,2.73s-2.59-4.87-4.23-5.03Z"/>
    <path class="cls-46" d="M579.94,434.88c3.77-.65,7.48-1.6,11.09-2.84,3.7-.95,7.32-2.19,10.81-3.71-3.76.64-7.47,1.58-11.08,2.82-3.7.95-7.32,2.19-10.83,3.73Z"/>
    <path class="cls-46" d="M579.39,429.54c.11.23,4.75-1.59,10.61-3.44,5.86-1.86,10.7-3.11,10.64-3.37-3.73.36-7.4,1.19-10.92,2.47-3.62.99-7.09,2.46-10.33,4.34Z"/>
    <path d="M610.98,345.8l-.19-.56c-2.3-2.77-4.71-4.03-7.48-3.09-.02-.03-4.57-5.49-10.62-2.29-5.25,2.78-5.58,6.11-5.58,6.11,0,0-3.07-.16-4.22.77-2.57,2.08-1.49,6.29,0,8.56,2.04,3.1,4.13,5.16,4.13,5.16,0,0,2.41,1.7,4.28,2.82,1.87,1.12,5.71.77,5.71.77,0,0,1.08,3.83,2.85,3.53.73-.13,2.17-.07,3.59.05,2.58.2,5.05-1.14,6.25-3.43.18-.34.37-.71.57-1.11,0,0,2.57-1.12,1.59-4.63-.21-.76-.59-1.63-1.19-2.63,0,0,1.24-.58,2.13-3.44.38-1.23-.09-4.49-1.84-6.6Z"/>
    <path d="M564.22,410.18c11.95,3.32,21.02-4.04,30.22-11.51,5.38-4.37,10.06-10.1,11.72-16.96,1.44-5.94.79-12.25-.46-18.16-1.13-5.34-2.84-9.98-6.8-13.89-3.77-3.73-8.67-6.2-13.81-7.41-1.53-.36-3.08-.65-4.64-.88-13.79-2.22-32.36,2.76-38.94,14.15-.59,1.03-1.13,2.15-1.62,3.31,0,0-.94,2.5-1.04,3.37-1.78,15.59.03,44.73,22.31,46.14,1.95.12,3.66.51,3.07,1.84Z"/>
    <path class="cls-27" d="M605.74,396.67c.4-3.69-.38-9.56-1.27-11.45.05-1.71.09-3.69.13-6.09.01-.69,0-1.36,0-2.02-.04-.34-.05-.68-.03-1.02-.43-11.66-4.31-17.76-4.31-17.76-4.97-7.72-13.66-12.22-22.83-11.82-10.79.25-20.51,6.81-25.56,13.41-2.51,3.26-3.72,7.34-3.41,11.45.26,3.51,3.43,7.38,4.4,11.19-3.77-.16-8.55.91-7.15,7.84,1.93,9.55,9.06,10.35,12.25,8.3,2.38,4.35,2.67,6.94,2.92,9.58s-.85,6.5-1.36,7.66l-6.53,4.25c8.19,13.06,32.74,26.56,41.2,6.4l-5.11-8.11.14-1.97c.25-.02-.25.01,3.72-1.27,11.92-4.58,12.34-14.23,12.81-18.58Z"/>
    <path class="cls-46" d="M589.06,418.48l.14-1.97s-12.29,1.29-20.33-4.98c0,0,5.58,5.91,11.79,6.77,6.21.86,8.4.17,8.4.17Z"/>
    <path d="M556.88,386.04c.08.3.18.63.05.92-.17.38-.69.5-1.08.37s-.71-.44-1.01-.72c-1.99-1.84-6.76-4.76-9.39-4.12-3.79-9.92-2.6-20,3.63-28.61,1.98-2.72,6.78-5.49,8.26-6.39,8.93-5.35,16.49-5.13,25.66-3.39,13.73,2.61,14.94,5.52,19.36,17.42,0,0-16.28-9.3-32.12-4.62.44.16-9.76,2.54-9.9,2.7-1.23,1.41.06,2.65-.39,5.66-.32,2.19-.08,3.84-1.84,5.21-1.22.95-2.42,3.5-2.43,5.04l1.2,10.54Z"/>
    <circle cx="601.95" cy="382.03" r="2.37"/>
    <path d="M604.75,380.05c-1.13-.71-2.69-1.18-4.98-.98-3.67.33-5.33,4.92-5.33,4.92,0,0,1.95-3.5,5.56-3.92,1.74-.2,3.42.35,4.75,1.02-.04-.35-.03-.7,0-1.04Z"/>
    <path d="M581.28,372.63s-10.91,2.98-12.38,5.77c0,0,.35-3.79,9.37-7.05,0,0,4.9-.54,3.01,1.28Z"/>
    <path d="M604.95,375.52c.02-.07.04-.15.07-.22-1.24-.88-3.15-1.88-6.09-2.8,0,0-3.89-.58-2.23.91,0,0,4.89,1.1,8.07,2.61.07-.16.14-.32.19-.49Z"/>
    <path class="cls-46" d="M549.23,391.12c-.3-.88-.47-1.82-.29-2.74.05-.24.12-.49.21-.72.02-.06.08-.21.05-.12,0-.02.03-.05.04-.07l-.78.37c-.23.02-.23.01-.16.01.11,0-.19-.01-.09,0,.03,0,.08,0,.1.02.08.05-.13-.06,0,0,.35.16.54.25.83.48,1.41,1.11,2.44,2.74,3.33,4.26l1.4-.47c-.49-.35-1.08-.56-1.69-.47-.81.12-1.38.64-1.44,1.47-.11,1.59,1.32,2.41,2.73,2.56.34.04.76-.04,1.02-.27.2-.18.19-.44-.13-.47-1.01-.1-1.99-.58-2.16-1.67-.03-.17-.03-.34,0-.51.02-.14.15-.34.15-.47.03-.03.03-.04,0-.01-.06.04-.14.07-.22.08-.35.11-.21.03-.13.07s.17.06.25.1c.13.06.21.11.28.16.24.17.6.12.86.03.13-.04.67-.27.54-.5-.69-1.17-1.43-2.33-2.34-3.36-.48-.54-1.01-1.06-1.63-1.43-.76-.45-1.84-.55-2.26.41-.5,1.15-.33,2.52.07,3.67.16.47,1.6.05,1.45-.39h0Z"/>
    <circle cx="578.27" cy="382.53" r="2.37"/>
    <path d="M584.92,384.08s-3.58-4.79-7.62-4.46c-5.68.46-6.69,4.24-7.78,6.06,0,0,3.5-4.85,7.9-5.1,3.99-.23,7.5,3.5,7.5,3.5Z"/>
    <g>
      <path class="cls-14" d="M592,395.32c-.71.44-1.85.43-2.62.01-.17-.09-.72.05-.47.17,1.02.54,2.65.49,3.57-.08.09-.06.07-.13-.05-.16-.13-.03-.32-.01-.42.05"/>
      <path class="cls-14" d="M588.57,395.32c-.51-.2-1.08-.29-1.64-.29-.08,0-.19.04-.24.1-.04.05-.05.1.01.13.27.13.6.17.9.14.09,0,.22-.04.27-.13.04-.08-.05-.12-.12-.12-.25.02-.5-.01-.72-.12-.08.08-.15.15-.23.23.5,0,1,.09,1.46.27.09.04.22,0,.29-.05.06-.04.11-.13.02-.16"/>
      <path class="cls-14" d="M586.37,395.54c-.65.03-1.43-.2-1.79-.67-.53-.71-.16-1.98.62-2.51.08-.06.03-.12-.06-.13-.12-.02-.25.04-.34.1-.68.46-1.07,1.53-.92,2.22.14.64.8,1.05,1.59,1.19.24.04.48.06.73.05.1,0,.27-.05.32-.13.04-.08-.05-.11-.14-.11"/>
      <path class="cls-14" d="M593.17,394.9c-.04-.07.02-.13.07-.13.18,0,.35-.07.49-.2.06.07.12.13.19.2-.35.06-.69.2-.99.43-.06.05-.15.03-.21-.02-.04-.03-.09-.11-.03-.16"/>
      <path class="cls-14" d="M592.69,395.03c.34-.26.72-.41,1.11-.48.06,0,.13.02.18.07.04.04.05.1,0,.13"/>
      <path class="cls-14" d="M594.53,394.9c.42-.05.9-.36,1.08-.87.26-.76-.09-1.62-.65-2.06-.06-.05-.03-.12.02-.14.07-.03.17,0,.23.06.49.38.83,1.03.81,1.73-.02.65-.4,1.14-.89,1.36-.15.07-.3.11-.46.13-.06,0-.18-.02-.22-.09-.04-.08.02-.11.08-.12"/>
    </g>
    <path d="M528.1,346.82l-.57.15c-2.93,2.1-4.36,4.41-3.61,7.24-.03.02-5.8,4.17-3.04,10.42,2.4,5.43,5.69,6,5.69,6,0,0-.38,3.05.46,4.26,1.89,2.71,6.16,1.94,8.54.61,3.24-1.82,5.45-3.75,5.45-3.75,0,0,1.87-2.28,3.12-4.07,1.25-1.79,1.18-5.64,1.18-5.64,0,0,3.9-.81,3.72-2.59-.17-1.79,1.01-7.52,1.01-7.52,0,0-1.49-1.24-4.74-3.18,0,0-.94-2.64-4.51-1.92-.77.15-1.67.47-2.71,1,0,0-.49-1.28-3.28-2.37-1.2-.47-4.48-.23-6.71,1.36Z"/>
    <path class="cls-26" d="M590.51,400.25c-1.43.09-5.78.12-5.78.12,0,0,1.78,1.07,6.06.81s5.42-1.47,5.42-1.47l-5.7.54Z"/>
    <path class="cls-48" d="M535.91,427.99s6.88-4.8,11.6-6.28c6.72-2.11,10.77-4.8,10.77-4.8,0,0,8.68,13.13,21.39,12.69,15.86-.55,9.39-11.11,9.39-11.11,0,0,13.91,5.13,19.88,10.22,4.91,4.19,11.34,24.55,3.65,35-7.69,10.45-65.41,2.3-65.41,2.3,0,0-7.41-14.58-9.44-22.54-2.03-7.95-1.83-15.48-1.83-15.48Z"/>
    <path class="cls-48" d="M594.49,466.76s10.83,2.44,26.13-5.76c0,0-4.18-27.15-12.64-34.2-8.46-7.05-14.18-3.57-14.18-3.57,0,0-8.06,14.54.68,43.53Z"/>
    <path class="cls-29" d="M611.07,471.51c-.68-9.55-1.34-16.21-3.02-24.45-2.92-14.3-4.57-21.93-5.49-23.84-.11-.05-.22-.11-.31-.15-.91-.45-4.59-1.41-7.2-2.33.02,4.77,4.4,8.18,3.48,15.29-.47,3.66-1.84,5.07-5.73,6.94-4.72,2.27-12.18,2.97-17.06,1.49-2.15-.65-4.13-1.63-5.59-3.16-1.7-1.78-2.36-4.13-3.38-6.19-1.65-3.34-4.91-8.18-6.61-11.11-1.54-2.68-3.63-4.73-5.2-5.58-2.79.81-7.12,3.3-10.04,4.36,4.83,1.34,8.35,4.06,9.87,7.93,2.01,5.11,3.29,12.75,1.74,18.97-.85,3.42-1.57,6.92-3.47,9.9-.97,1.52-2.29,2.76-3.79,3.76-2.75,1.82-5.38,2.95-8.77,3.36-1.72.21-1.54-.15-2.09,1.31-.07.19-.13.38-.16.58-1.22,6.36,1.28,21.04.74,27.49,6.68.68,8.02,11.69,14.6,12.87,8.98,1.6,25.25-4.42,34.41-4.31,11.22.14,16.59-9.54,22.74-12.64-.19-.8,2.35,4.4,1.61-1.83-.09-2.59-1-14.4-1.3-18.65Z"/>
    <path class="cls-29" d="M533.21,515.43c-3.99,28.38-9.07,81.04-10.44,91.14,6.37,3.77,9.54-1.16,18.01,4.62,7.47,5.09,11.95,2.51,18.23,0,6.28-2.51,11.51-1.68,19.62.84,8.11,2.51,12.96-2.12,17.67-2.32,4.71-.21,4.9,1.32,14.72.69,8.35-.53,11.13-2.2,11.13-3.69-2.11-40.41-6.78-75.4-9.78-116.53-7.15,3.29-16.11,10.39-27.24,10.3-9.2-.08-32.1-1.73-42.25-6.35-6.73-3.07,4.89-2.93-2.76-3.37-.38,2.26-4.73,7.9-6.49,19.95"/>
    <path class="cls-27" d="M551.2,576.85c-1.6-2.85-3.69-6.71-3.56-7.27s.39-4.47.61-7.88c.04-1.74,1.38-3.18,3.01-3.22.42,0,2.2,8.02,5.61,6.87l-.14-7.13c-.36-2.29-.99-4.5-1.87-6.6-1.25-2.52-7.05-8.26-7.05-8.26l.02-9.09-15.05,1.67,1.56,8.87-2.18,8.78s-.61,16.59.66,18.54c1.26,1.95,5.8,4.02,5.8,4.02,1.24,2.86,5.35,2.97,5.35,2.97,3.51,3.92,4.27.45,4.27.45.09.16.22.3.38.38,1.71.95,3.56-1.42,2.6-3.11Z"/>
    <path class="cls-46" d="M541.91,565.19c-.59,2.88-.59,6.07.7,8.76.55,1.15,1.26,2.23,2.12,3.17.91,1,1.91,1.97,3.09,2.66.45.26,1.77-.38,1.14-.74-1.13-.66-2.09-1.62-2.97-2.59-.83-.92-1.52-1.97-2.04-3.1-1.18-2.58-1.16-5.58-.6-8.32.12-.6-1.34-.38-1.45.16h0Z"/>
    <path class="cls-46" d="M544.69,578.96c-.84-2.16-2.48-3.92-3.62-5.92-.6-1.05-1-2.1-1.14-3.3-.15-1.33-.06-2.71.06-4.04.04-.47-1.4-.18-1.44.22-.22,2.53-.3,5.02.96,7.3,1.15,2.09,2.87,3.89,3.73,6.13.16.42,1.59-.03,1.45-.39h0Z"/>
    <path class="cls-46" d="M539.38,576.04c.03-.17-.1-.29-.2-.42-.23-.29-.49-.57-.72-.86-.67-.84-1.26-1.73-1.75-2.68-.47-.93-.35-1.97-.39-2.98-.03-.9-.08-1.8-.13-2.7-.02-.34-1.47-.08-1.45.39.05.85.09,1.69.12,2.54.04.98-.12,2.11.32,3.01.42.85.92,1.65,1.49,2.41.27.36.55.71.84,1.05.1.12.21.23.3.36.04.05.11.19.13.12-.07.43,1.37.18,1.44-.23h0Z"/>
    <path class="cls-46" d="M585.84,374.48c1.26-.41,2.37-1.27,2.79-2.57.39-1.2.05-2.56-.81-3.48-.32-.34-1.7.18-1.35.55.71.76,1.03,1.87.78,2.89-.12.47-.34.9-.66,1.27-.14.16-.31.32-.49.44-.08.06-.18.11-.28.16.05-.02-.27.1-.16.07-.2.06-.7.23-.64.53.06.28.65.19.81.14h0Z"/>
    <path class="cls-40" d="M591.06,399c-2.43.1-7.72,1.9-8.76,2.94,0,0,3.27,4.32,8.9,4.09,5.63-.24,6.07-4.71,6.07-4.71,0,0-3.12-2.45-6.21-2.32Z"/>
    <path class="cls-30" d="M584.54,400.74s2.88-.37,5.18-.46c2.3-.1,5.2.03,5.2.03,0,0,.29-1.84-3.88-1.67s-6.5,2.1-6.5,2.1Z"/>
    <path class="cls-18" d="M591.03,404.42c-2.65-.29-5.66-2.81-8.73-2.48,0,0,1.29,5.31,7.91,5.03s7.05-5.65,7.05-5.65c-3.08-.07-3.62,2.6-6.24,3.1Z"/>
    <path class="cls-18" d="M593.88,397.48c-1.39-.05-2.25.55-2.86.57s-1.51-.5-2.9-.33c-1.3.16-6.67,3.77-6.03,4.18.63.41,4.8-2.25,8.99-2.42,4.19-.18,5.79,2.24,6.39,1.78s-2.28-3.73-3.59-3.78Z"/>
    <path class="cls-18" d="M1059.14,145.47c7.21-1.22,19.37-4.49,19.37-4.49,0,0,.18,18.08-16.52,20.91-16.71,2.83-19.13-14.08-19.13-14.08,0,0,9.08-1.13,16.28-2.35Z"/>
    <path class="cls-13" d="M1059.07,145.48c3.43-.58,16.25-2.83,16.25-2.83,0,0-1.84,10.57-14.23,12.67-13.44,2.27-15.89-7.45-15.89-7.45l13.86-2.39Z"/>
    <path class="cls-26" d="M1059.01,146.03c3.43-.58,13.75-2.93,13.75-2.93,0,0-3.11,4.45-13.38,6.19-10.28,1.74-14.17-1.42-14.17-1.42l13.8-1.84Z"/>
    <path class="cls-18" d="M1042.08,147.45c.34-.15,1.19-.03,2.72-.56,2.75-.96,3.86-2.23,5.83-2.73,3.36-.85,5.76.19,7.24-.06,1.48-.25,3.41-2.02,6.86-2.33,2.02-.18,5.21-.01,8.01-.23,1.68-.13,5.6-1.47,5.97-1.44.51.04-.02,4.08-18.64,7.23-18.62,3.15-18.46.32-17.99.11Z"/>
    <path class="cls-4" d="M1054.6,139.22l.19,3.55c.03.55-.19,1.04-.54,1.23-2.44,1.34-14.17,3.81-13.27,6.93.13.44.05,2.33,0,2.33l-.71-.37c-.9.04-1.23-4.63-.51-5.35,2.22-2.2,4.25-3.9,5.54-4.82,1.61-1.14,6.1-4.07,8.18-4.72.55-.17,1.09.41,1.13,1.21Z"/>
    <path class="cls-4" d="M1058.61,138.53l1.06,3.39c.17.52.63.88,1.18.89,3.73.09,20.75-3.02,20.71.32,0,.46.7,3.22.78,3.19l.71-1.12c.8-2.35-.41-5.67-1.64-5.99-3.76-.99-7.09-1.61-9.14-1.84-2.56-.3-9.61-.88-12.61-.5-.79.1-1.29.9-1.05,1.66Z"/>
  </g>
  <g id="Layer_3" data-name="Layer 3">
    <path class="cls-27" d="M552.29,455.1c-5-1.25-9.7-3.75-14.44-5.69-2.62-1.07-5.34-2.15-7.89-3.5-1.38,6.43-2.43,14.15-3.38,22l-1.81,13.87c-1.65,12.31-1.43,13.76-1.44,16.34-.05,11.36,13.62,53.89,13.62,53.89l11.95-3.77s-.77-36.94-2.69-48.48l4.69-37.97-.33,1.73c.44-2.33,1.11-5.23,1.72-8.41Z"/>
    <path class="cls-48" d="M534.89,427.65c-10.13,7.08-11.87,18.14-14.45,36.25-.07.51-.09,1.89.23,2.29.28.35-.12.14.28.35,1.66.88,2.75.47,4.4,1.36,0,0,18.59,3.73,28.15,1.27,2.06-.53,3.92-1.63,3.92-1.63,1.15-1.8.84-5.54,1.05-7.66.53-5.44-.38-12.17-.94-17.61-.45-4.39-1.52-7.82-3.62-11.7-2.1-3.88-4.18-6.25-8.49-7.18,0,0-3.18-.88-10.54,4.26Z"/>
  </g>
</svg>