<?xml version="1.0" encoding="UTF-8"?>
<svg xmlns="http://www.w3.org/2000/svg" xmlns:xlink="http://www.w3.org/1999/xlink" viewBox="0 0 1334 1000">
  <defs>
    <style>
      .cls-1 {
        fill: #3c5c2c;
      }

      .cls-2 {
        fill: #072b3a;
      }

      .cls-3 {
        fill: #444136;
      }

      .cls-4 {
        fill: #acabab;
      }

      .cls-5 {
        fill: #151312;
      }

      .cls-6 {
        fill: #774639;
      }

      .cls-7 {
        fill: #24120e;
      }

      .cls-8 {
        fill: #939393;
      }

      .cls-9 {
        fill: #0e0c0c;
      }

      .cls-10 {
        fill: #273339;
      }

      .cls-11 {
        fill: #3e525a;
      }

      .cls-12 {
        fill: #476c34;
      }

      .cls-13 {
        fill: #010101;
      }

      .cls-14 {
        fill: #232021;
      }

      .cls-15 {
        fill: #11394c;
      }

      .cls-16 {
        fill: url(#linear-gradient-2);
      }

      .cls-17 {
        fill: #653c29;
      }

      .cls-18 {
        fill: #5a2b0e;
      }

      .cls-19 {
        fill: #fccf4e;
      }

      .cls-20 {
        fill: #225429;
      }

      .cls-21 {
        fill: #89ac95;
      }

      .cls-22 {
        fill: #331d17;
      }

      .cls-23 {
        fill: #b7c8ce;
      }

      .cls-24 {
        fill: url(#linear-gradient);
      }

      .cls-25 {
        fill: #152d18;
      }

      .cls-26 {
        fill: #f1eef7;
      }

      .cls-27 {
        fill: #a66e53;
      }

      .cls-28 {
        fill: #545146;
      }

      .cls-29 {
        stroke: #562f22;
      }

      .cls-29, .cls-30 {
        fill: none;
        stroke-miterlimit: 10;
      }

      .cls-31 {
        fill: #6a5a9c;
      }

      .cls-32 {
        fill: #fff;
      }

      .cls-33 {
        fill: #59332b;
      }

      .cls-34 {
        fill: #354c24;
      }

      .cls-35 {
        fill: #ae872e;
      }

      .cls-30 {
        stroke: #000;
        stroke-width: .94px;
      }

      .cls-36 {
        fill: #a87159;
      }

      .cls-37 {
        fill: #e0e1e0;
      }

      .cls-38 {
        fill: #89623e;
      }

      .cls-39 {
        fill: #456eb5;
      }

      .cls-40 {
        fill: #6b6b6b;
      }

      .cls-41 {
        fill: #24180f;
      }

      .cls-42 {
        fill: #825639;
      }

      .cls-43 {
        fill: #f2e223;
      }

      .cls-44 {
        fill: #38211a;
      }

      .cls-45 {
        fill: #465b65;
      }

      .cls-46 {
        fill: #787878;
      }

      .cls-47 {
        fill: #4f2e25;
      }

      .cls-48 {
        fill: #999;
      }

      .cls-49 {
        fill: #9b8fc1;
      }

      .cls-50 {
        fill: #89ad96;
      }
    </style>
    <linearGradient id="linear-gradient" x1="656" y1="1014.18" x2="708.01" y2="-220.7" gradientUnits="userSpaceOnUse">
      <stop offset=".29" stop-color="#bbe5f5"/>
      <stop offset=".81" stop-color="#76c7db"/>
    </linearGradient>
    <linearGradient id="linear-gradient-2" x1="659.62" y1="1114.22" x2="686.19" y2="483.4" gradientUnits="userSpaceOnUse">
      <stop offset=".01" stop-color="#769a3e"/>
      <stop offset=".98" stop-color="#496b33"/>
    </linearGradient>
  </defs>
  <g id="Layer_4" data-name="Layer 4">
    <rect class="cls-24" x="-11.28" y="-34.7" width="1381.55" height="981.99"/>
    <path class="cls-12" d="M367.65,598.13c7.99-8.65,16.46-18.43,16.7-30.2.24-11.77-13.32-23.53-23.13-17.02,2.85-7.08.18-15.96-6.1-20.29-6.28-4.33-15.53-3.68-21.13,1.49-3.18-17.08-29.28-23.82-40.33-10.41,1.04-6.67-8.38-11.15-14.25-7.81-5.86,3.34-7.87,10.96-7.4,17.69-3.84-7.88-12.84-12.91-21.56-12.05-8.72.86-16.57,7.55-18.79,16.03-.84-7.45-2.06-15.67-7.82-20.48-5.75-4.81-17.19-2.09-17.04,5.41,1.73-10.59-4.18-21.98-13.83-26.68-9.65-4.7-22.25-2.32-29.53,5.57-1.41-10.38-5.29-21.21-13.91-27.17-8.62-5.96-22.72-4.41-27.11,5.11-4.96-8.12-12.92-15.55-22.43-15.54-9.51,0-18.35,11.29-13.19,19.28-7.03-11.74-28.96-7.11-30.65,6.47-5.06-7.84-15.6-11.66-24.51-8.88-8.91,2.79-15.4,11.93-15.09,21.26-8.86-5.45-21.16-4.58-29.16,2.08-8,6.66-11.09,18.6-7.33,28.3-26.63,2.13-46.07,34.11-35.72,58.73"/>
    <path class="cls-18" d="M170.64,312.35s7.41,17.75,7.35,30.62c-.06,12.87,3.08,27.07,2.05,41.71-1.03,14.64-14.11,189.93-14.11,189.93l58.82,1.59s-3.93-157.62-5.39-188.35c-1.29-27.03-48.72-75.5-48.72-75.5Z"/>
    <path class="cls-1" d="M500.32,199.89c17.03.33,33.83,3.33,49.46,8.85-8.72-15.54-30.6-25.41-51.4-23.2l7.81-16.24,20.79,12.16c-2.82-17.98-15.25-34.02-33.96-43.84l38.83,10.08c-6.33-12.84-19.88-22.39-36.39-25.66l37.16-.24c-7.9-11.72-26.69-17.24-42.13-13.24,6.63-2.39,12.96-5.3,18.86-8.73,2.47-1.42,5.14-3.47,3.76-6.05-.78-1.46-2.6-2.41-4.55-2.56-9.94-.78-19.88,1.21-28.21,5.6l26.73-25.35c-12.98-3.1-28.27,3.6-32.21,14.14-3.1-20.92-21.52-39.42-41.71-49.17l4.2,1.87c-1.56-.75-3.16-1.44-4.74-2.14-.54-.26-1.08-.51-1.62-.75l32.26-20.46c-23.96-5.5-47.62.95-66.21,9.52-1.3-.29-2.59-.6-3.89-.86L424.37.81c-21.94-6.14-39.51,3.31-50.67,12.71-2.13.76-4.2,1.66-6.17,2.7l26.73-25.35c-12.98-3.1-28.27,3.6-32.21,14.14-3.1-20.92-21.52-39.42-41.71-49.17l4.2,1.87c-1.56-.74-3.16-1.43-4.74-2.14-.54-.26-1.08-.51-1.62-.75l32.25-20.46c-23.96-5.5-47.62.95-66.21,9.52-1.3-.29-2.59-.6-3.89-.86l31.23-22.81c-27.17-7.61-47.64,8.69-57.52,19.21-18.09-1.31-36.47-.27-54.44,3.24,10.27-8.82,22.34-16.12,35.68-21.58-26.15-9.11-59.63-.86-75.13,18.5,5.26-9.99,8.75-20.54,10.36-31.33-15.74,3.21-26.73,17.44-23.48,30.39-2.84-11.14-7.7-21.88-14.42-31.86-1.32-1.96-4.06-3.14-6.74-2.67-3.84.68-4.28,3.89-4.16,6.55.59,11.62,5.47,22.82,14.02,32.14-9.67-1.45-14.87-11.13-25.51-11.25-3.38-.04-6.65,1.5-7.85,4.07-2.42,5.2,5,9.35,11.39,10.46,6.17,1.07,13.53,1.59,16.76,6.01-32.96,2.86-60.48,28.34-59.74,55.28-5.07-7.73-10.14-15.46-15.2-23.17-2.11,11.21-.62,22.67,4.32,33.27C53.51,3.71,34.26-5.21,16.46-2.67c11.78,8.14,21.65,17.95,29.14,28.96-11.48-6.23-26.23-6.84-38.44-1.6l35.32,15.66c-34.26-5.29-71.79,7.61-91.01,31.33,5.74-12.21,9-25.11,9.66-38.17-16.74,7.04-25,25.07-18.01,39.3-9.49-10.32-24.75-16.02-40.55-15.15,6.48,9.83,14.88,18.75,24.87,26.39l-3.45,2.43c-18.91.4-36.56,12.1-40.82,27.01l20.91-7.56c-7.09,7.15-11.7,15.72-13.35,24.81l15.76-4.86c-7.68,5.89-12.81,13.51-15.47,21.74v-.03s-23.51-.95-24.23,27.37l22.24-10.77c.72,10.53,5.23,20.83,13.43,28.87-2.55,8.99-4.73,20.14-3.4,29.02,2.44,16.26,46.16,76.76,115.8,51.17,1.79,1.8,3.69,3.52,5.85,5.07-.3,6.94,2.64,13.72,8.21,18.98,3.57-6.34,7.15-12.68,10.74-19.03,2.15,7.92,6.5,15.34,12.71,21.69.52-7.75,3.52-15.25,8.71-21.76l16.24,4.6c-2.32,3.43-3.8,8.45-2.76,15.85,2.9,20.65,13.77,23.01,13.77,23.01l10.34-32.82,26.86,7.6c-8.13,7.38-10.65,17.78-6.57,27.12,4.79-6.7,11.58-12.3,19.74-16.29-4.75,10.02-4.68,21.12.19,31.1,4.82-7.37,9.65-14.71,14.49-22-.82,14.66,6.01,28.91,18.8,39.24,3.55-13.03,2.83-26.59-2.09-39.31,9.49,9.55,16.4,20.62,20.28,32.49,3.89-10.13,3.36-21.03-1.49-30.88l4.26,4.22c13.83,13.72,38.91,15.33,55.21,3.54,13.14-5,28.19-5.53,41.82-1.47-8,13.69-7.24,29.71,2.03,42.85,5.38-12.72,10.74-25.41,16.1-38.09.74,10.12,1.47,20.25,2.21,30.39,12.71-10.51,19.55-24.81,18.92-39.55,4.4,12.48,11.94,24.07,22.16,34.04,4.5-12.32,2.52-25.6-5.45-36.69,11.52,6.31,21.19,14.61,28.3,24.31,3.72-12.12-.19-24.95-10.45-34.23,11.79,7.09,23.57,14.19,35.33,21.31,5.17-5.21,13.73-20.94,1.68-30.38,19.18-9.55,10.54-3.78,32.42-7.96l18.57,11.33c7.46-9.22,9.03-20.8,4.2-31.12l24.91,29.47c.07-13.87.13-27.75.19-41.62l32.99,31.55c.2-14.9-5.26-29.48-15.62-41.76,13.25,5.56,24.97,13.26,34.45,22.62,1.48-18.49-9.49-36.18-28.64-46.2l37.57,6.53c-6.66-15.38-22.3-27.05-41.7-31.11Z"/>
    <path class="cls-18" d="M275.24,285.73l46.44-47.03-4.12-9.21-36.53,35.87-38.89,33.09,40.96-135.1-6-5.08-33.81,78.32-24.96-35.44h-4.12l29.07,41.59-14.51,68.53-24.71,22.5c-.44-1.88-.88-3.53-1.26-4.86l-27.45-63.96,20.7-68.98-4.65-2.37s-19.49,51.02-22.42,53.89c-2.92,2.87-23.8-51.98-23.8-51.98l-33.93-71.93-11.21,6.12,32.37,67.22-41.07-31.4-3.75,3.88,38.43,34.1s30.79,48.2,29.61,52.92c-1.18,4.72-90.6-23.16-90.6-23.16l-2.94,5.44s81.87,26.71,88.25,35.22c6.38,8.51,19.22,35.91,22.06,44.9,2.26,6.99,7.21,16.85,6.86,20.87,0,0,11.46,24.84,12.36,56.73-5.44,14.39,6.73,32.86,4.87,47.83l3.22,33.69,15.98-26.3-2.61-13.1c-1.51-35.54,14.06-75.98,14.89-87.16l45.5-59.05,63.86-23.15v-4.26l-62.11,20.79Z"/>
    <polygon class="cls-18" points="139.01 196.25 182.15 111.99 191.58 118.06 147.09 211.08 139.01 196.25"/>
    <polygon class="cls-18" points="260.55 196.25 303.69 111.99 313.13 118.06 268.64 211.08 260.55 196.25"/>
    <polygon class="cls-18" points="273.84 163.81 220.15 85.84 238.29 91.84 290.73 163.73 273.84 163.81"/>
    <polygon class="cls-18" points="307.22 237.95 378.11 206.97 395.33 204.56 305.24 254.72 307.22 237.95"/>
    <polygon class="cls-18" points="317.19 244.12 335.57 175.95 330.77 150.87 301.23 249.67 317.19 244.12"/>
    <path class="cls-12" d="M924.52,581.46c7.99-8.65,16.46-18.43,16.7-30.2.24-11.77-13.32-23.53-23.13-17.02,2.85-7.08.18-15.96-6.1-20.29-6.28-4.33-15.53-3.68-21.13,1.49-3.18-17.08-29.28-23.82-40.33-10.41,1.04-6.67-8.38-11.15-14.25-7.81-5.86,3.34-7.87,10.96-7.4,17.69-3.84-7.88-12.84-12.91-21.56-12.05-8.72.86-16.57,7.55-18.79,16.03-.84-7.45-2.06-15.67-7.82-20.48-5.75-4.81-17.19-2.09-17.04,5.41,1.73-10.59-4.18-21.98-13.83-26.68-9.65-4.7-22.25-2.32-29.53,5.57-1.41-10.38-5.29-21.21-13.91-27.17-8.62-5.96-22.72-4.41-27.11,5.11-4.96-8.12-12.92-15.55-22.43-15.54-9.51,0-18.35,11.29-13.19,19.28-7.03-11.74-28.96-7.11-30.65,6.47-5.06-7.84-15.6-11.66-24.51-8.88-8.91,2.79-15.4,11.93-15.09,21.26-8.86-5.45-21.16-4.58-29.16,2.08-8,6.66-11.09,18.6-7.33,28.3-26.63,2.13-48.91,72.57-38.55,97.19"/>
    <path class="cls-34" d="M726.04,631.55c-6.32-6.84-13.02-14.57-13.21-23.88-.19-9.31,10.53-18.61,18.29-13.46-2.25-5.59-.14-12.62,4.82-16.04,4.96-3.43,12.28-2.91,16.71,1.18,2.51-13.51,23.15-18.83,31.89-8.23-.82-5.27,6.63-8.82,11.27-6.17,4.64,2.64,6.22,8.67,5.85,13.99,3.03-6.23,10.15-10.21,17.05-9.53,6.9.68,13.1,5.97,14.86,12.67.66-5.89,1.63-12.39,6.18-16.2,4.55-3.8,13.6-1.65,13.48,4.28-1.36-8.38,3.3-17.38,10.93-21.1,7.63-3.72,17.6-1.84,23.35,4.4,1.12-8.21,4.19-16.77,11-21.49,6.81-4.72,17.97-3.48,21.44,4.04,3.92-6.42,10.21-12.29,17.74-12.29,7.52,0,14.51,8.93,10.43,15.25,5.56-9.28,22.9-5.62,24.24,5.11,4-6.2,12.34-9.22,19.38-7.02,7.04,2.2,12.18,9.43,11.93,16.81,7.01-4.31,16.73-3.62,23.06,1.64,6.32,5.26,8.77,14.7,5.8,22.38,21.05,1.68,36.43,26.97,28.24,46.44"/>
    <path class="cls-34" d="M199.16,610.81c-8.01-8.66-16.49-18.46-16.73-30.25-.24-11.79,13.34-23.57,23.17-17.05-2.85-7.09-.18-15.98,6.11-20.32,6.29-4.34,15.55-3.69,21.17,1.49,3.19-17.11,29.32-23.86,40.39-10.43-1.04-6.68,8.4-11.17,14.27-7.82,5.87,3.35,7.88,10.98,7.42,17.72,3.84-7.89,12.86-12.93,21.6-12.07,8.73.86,16.59,7.56,18.82,16.05.84-7.46,2.07-15.7,7.83-20.51,5.76-4.82,17.22-2.09,17.07,5.42-1.73-10.61,4.18-22.02,13.85-26.73,9.67-4.71,22.29-2.33,29.58,5.58,1.41-10.4,5.3-21.24,13.93-27.22,8.63-5.97,22.76-4.41,27.15,5.12,4.97-8.13,12.94-15.57,22.47-15.56,9.53,0,18.38,11.31,13.22,19.31,7.04-11.76,29.01-7.12,30.7,6.48,5.07-7.86,15.63-11.68,24.55-8.89,8.92,2.79,15.42,11.95,15.11,21.29,8.87-5.46,21.2-4.58,29.21,2.08,8.01,6.67,11.11,18.63,7.34,28.34,26.67,2.13,46.15,34.16,35.77,58.82"/>
    <path class="cls-1" d="M1.05,624.23c-6.32-6.84-13.02-14.57-13.21-23.88-.19-9.31,10.53-18.61,18.29-13.46-2.25-5.59-.14-12.62,4.82-16.04,4.96-3.43,12.28-2.91,16.71,1.18,2.51-13.51,23.15-18.83,31.89-8.23-.82-5.27,6.63-8.82,11.27-6.17,4.64,2.64,6.22,8.67,5.85,13.99,3.03-6.23,10.15-10.21,17.05-9.53,6.9.68,13.1,5.97,14.86,12.67.66-5.89,1.63-12.39,6.18-16.2,4.55-3.8,13.6-1.65,13.48,4.28-1.36-8.38,3.3-17.38,10.93-21.1,7.63-3.72,17.6-1.84,23.35,4.4,1.12-8.21,4.19-16.77,11-21.49,6.81-4.72,17.97-3.48,21.44,4.04,3.92-6.42,10.21-12.29,17.74-12.29,7.52,0,14.51,8.93,10.43,15.25,5.56-9.28,22.9-5.62,24.24,5.11,4-6.2,12.34-9.22,19.38-7.02,7.04,2.2,12.18,9.43,11.93,16.81,7.01-4.31,16.73-3.62,23.06,1.64,6.32,5.26,8.77,14.7,5.8,22.38,21.05,1.68,36.43,26.97,28.24,46.44"/>
    <path class="cls-1" d="M1339.38,594.71c7.47-8.08,15.38-17.22,15.6-28.22s-12.44-21.99-21.61-15.9c2.66-6.61.17-14.91-5.7-18.96-5.86-4.05-14.51-3.44-19.74,1.39-2.97-15.96-27.35-22.25-37.68-9.72.97-6.23-7.83-10.42-13.31-7.29-5.48,3.12-7.35,10.24-6.92,16.53-3.59-7.36-12-12.06-20.14-11.26-8.15.8-15.48,7.05-17.56,14.97-.78-6.96-1.93-14.64-7.3-19.14-5.37-4.5-16.06-1.95-15.92,5.05,1.61-9.9-3.9-20.54-12.92-24.93-9.02-4.39-20.79-2.17-27.59,5.2-1.32-9.7-4.95-19.81-13-25.39-8.05-5.57-21.23-4.12-25.33,4.78-4.63-7.58-12.07-14.52-20.96-14.52-8.89,0-17.14,10.55-12.33,18.02-6.57-10.97-27.06-6.64-28.64,6.04-4.73-7.33-14.58-10.9-22.9-8.29-8.32,2.6-14.39,11.15-14.09,19.86-8.28-5.1-19.77-4.28-27.24,1.94-7.47,6.22-10.36,17.37-6.85,26.44-24.88,1.99-43.05,50.38-33.37,73.38"/>
    <path class="cls-16" d="M1440.03,1062.55H-96.78v-466.63l476.34-6.4c61.16-3.51,531.29-2.09,592.47,1.31l468.01,5.09v466.63Z"/>
    <g>
      <path class="cls-48" d="M1018.34,854.15c-8.85,2.31-18.37,8.85-25.45,19.86-.54.84-.42,1.97.28,2.69,9.19,9.33,19.84,13.77,28.98,14.22,7.12.35,38.74-1.56,45.63-1.99.82-.05,1.55-.55,1.86-1.31,3.41-8.28,2.93-16.63,2.44-20.45-.3-3.84-1.55-12.11-6.58-19.51-.46-.68-1.28-1.02-2.09-.9-6.83.99-38.17,5.6-45.07,7.4Z"/>
      <path class="cls-46" d="M1073.05,860.33l-20.88,2.16c-5.59.58-15.77,2.54-15.24,7.59.52,5.05,10.89,4.88,16.48,4.31l20.88-2.16-1.23-11.9Z"/>
      <g>
        <path class="cls-19" d="M1072.47,861.57l.9,8.65c.12,1.19,1.19,2.06,2.39,1.94l68.51-7.1c3.57-.37,6.19-3.59,5.82-7.16-.37-3.57-3.59-6.19-7.16-5.82l-68.51,7.1c-1.19.12-2.06,1.19-1.94,2.39ZM1142.33,854.8c2.54-.26,4.8,1.26,5.02,3.39s-1.68,4.08-4.22,4.34l-.6.06-.8-7.73.6-.06Z"/>
        <rect class="cls-35" x="1060.85" y="864.17" width="25.55" height="3.31" rx="1.65" ry="1.65" transform="translate(323 2022.92) rotate(-95.91)"/>
        <g>
          <rect class="cls-35" x="1085.02" y="863.12" width="13.05" height="1.69" transform="translate(344.62 2038.71) rotate(-95.91)"/>
          <rect class="cls-35" x="1090.31" y="862.57" width="13.05" height="1.69" transform="translate(351 2043.36) rotate(-95.91)"/>
          <rect class="cls-35" x="1095.36" y="862.05" width="13.05" height="1.69" transform="translate(357.08 2047.8) rotate(-95.91)"/>
          <rect class="cls-35" x="1100.64" y="861.5" width="13.05" height="1.69" transform="translate(363.46 2052.46) rotate(-95.91)"/>
        </g>
        <g>
          <rect class="cls-35" x="1105.82" y="860.97" width="13.05" height="1.69" transform="translate(369.7 2057.02) rotate(-95.91)"/>
          <rect class="cls-35" x="1111.11" y="860.42" width="13.05" height="1.69" transform="translate(376.08 2061.67) rotate(-95.91)"/>
          <rect class="cls-35" x="1116.15" y="859.9" width="13.05" height="1.69" transform="translate(382.16 2066.11) rotate(-95.91)"/>
          <rect class="cls-35" x="1121.44" y="859.35" width="13.05" height="1.69" transform="translate(388.54 2070.77) rotate(-95.91)"/>
          <rect class="cls-35" x="1126.97" y="858.78" width="13.05" height="1.69" transform="translate(395.21 2075.64) rotate(-95.91)"/>
          <rect class="cls-35" x="1132.49" y="858.2" width="13.05" height="1.69" transform="translate(401.87 2080.5) rotate(-95.91)"/>
        </g>
      </g>
    </g>
    <path class="cls-38" d="M146.59,904.5c41.23-12.95,85.94,16.58,129.06,10.01,15.47-2.36,30.55-9.36,46.05-7.17,10.72,1.51,20.38,7.35,31.22,7.85,16.33.76,30.02-10.49,45.73-14.53,23.38-6.02,48.13,4.44,72.44,3.28,25.84-1.23,50.11-15.54,75.79-12.74,18.64,2.03,35.1,12.92,53.84,14.06,16.83,1.02,32.89-5.97,49.61-8,36.24-4.39,72.32,14.71,108.5,9.92,26.59-3.52,50.19-19.68,77.08-19.86,19.83-.13,38.25,8.49,57.57,12.47,35.98,7.4,73.69-1.55,110.48,1.34,6.16.48,12.5,1.37,17.69,4.36,14.65,8.45,11.67,30.08-1.84,39.91-13.52,9.83-32.65,10.58-50.03,8.91-17.38-1.67-34.94-5.3-52.14-2.54-18.37,2.96-34.56,12.97-52.95,15.85-21.95,3.44-44-3.62-65.92-7.16-32.75-5.29-66.43-2.71-99.45,1.06-58.02,6.63-116.29,16.94-174.53,12.07-34.31-2.87-68.03-10.97-102.49-11.62-46.73-.87-93.72,12.02-139.71,4.66-18.24-2.92-35.7-8.95-53.95-11.79-37.94-5.9-77.54,2.25-115.16-5.07-7.36-1.43-15.39-4.04-18.56-10.1-5.65-10.78,8.19-21.68,20.95-25.33,12.75-3.65,25.15.95,30.76-9.85"/>
    <path class="cls-20" d="M193.43,718.1c-5.46-3.63-7.49-10.72-7.68-17.28s.99-13.14.14-19.7c-.69-5.22.28-10.7.69-15.96.79-10.32,6.9-11.82,11.27-21.24,4.37-9.42-2.19-11.82.16-15.76,1.14-1.97,4.37-1.26,6.38-.26,1.95,1.13,3.64,2.65,4.97,4.47,7.07,8.49,13.2,18.9,12.22,29.91-.51,5.48-2.74,10.62-3.94,16-1.83,8.41-1.18,17.73-5.48,25.12-3.94,6.98-11.51,11.03-18.64,14.74"/>
    <path class="cls-45" d="M317.74,791.01l-.31.52.31-.52Z"/>
    <path class="cls-25" d="M200.7,670.93c0,.55.12,1.22,0,2.19-.12.97-.02,2.13-.12,3.53-.1,1.4-.22,3.01-.33,4.81-.88,10.21-2.54,20.35-4.99,30.3-2.92,12.65-7.55,27.41-12.67,43.8-5.71,17.76-10.38,35.84-13.99,54.15-4.95,25.33-7.69,51.02-8.23,76.79.3.04.59.09.89.15.65-25.76,3.45-51.43,8.38-76.75,3.6-18.27,8.24-36.32,13.89-54.07,5.06-16.33,9.64-31.21,12.47-43.92,2.39-10,3.95-20.17,4.67-30.42.1-1.81.24-3.43.24-4.83v-5.73c.03-.24.03-.49,0-.73-.09.24-.16.48-.22.73Z"/>
    <path class="cls-20" d="M159.71,812.58c-5.37-15.25-16.35-28.22-29.73-37.3-13.38-9.08-29.07-14.42-45.05-16.89-6.14-.95-12.62-1.6-17.73-5.13,13.87,21.17,31.96,39.56,52.89,53.78,10.67,7.25,22.97,13.62,35.82,12.45"/>
    <path class="cls-20" d="M184.05,748.05c-3.65-8.61-7.51-17.13-11.56-25.56-1.54-3.21-3.15-6.46-5.64-9-1.93-1.97-4.32-3.43-6.46-5.18-6.85-5.58-10.9-13.77-15.45-21.34-4.56-7.57-10.34-15.14-18.71-17.96-10.84-3.65-22.45,1.67-32.65,6.86,12.82,4.89,19.32,18.89,24.13,31.74,4.82,12.85,10.18,27,22.28,33.46,8.7,4.65,19.11,4.27,28.96,3.77"/>
    <path class="cls-25" d="M114.1,675.32c.36.03.72.11,1.06.24.69.2,1.69.51,2.98.97,3.63,1.29,7.12,2.92,10.44,4.87,2.36,1.32,4.46,3.05,6.21,5.1,1.8,2.48,3.37,5.12,4.71,7.88,1.48,3.02,2.79,6.12,3.94,9.28,1.02,3.42,2.23,6.79,3.61,10.09,3.35,6.56,9.4,10.6,14.48,14.4,4.65,3.31,9.01,7,13.04,11.03,2.71,2.77,5.22,5.74,7.51,8.87l1.77,2.56c.24.28.43.6.57.95-.27-.25-.52-.52-.73-.83l-1.97-2.44c-2.38-2.99-4.92-5.83-7.63-8.53-4.08-3.92-8.45-7.53-13.08-10.78-2.77-1.92-5.44-3.99-8-6.19-2.8-2.38-5.13-5.27-6.86-8.51-1.39-3.34-2.6-6.76-3.63-10.23-1.15-3.13-2.47-6.2-3.94-9.2-1.29-2.71-2.8-5.31-4.53-7.76-1.67-2-3.67-3.7-5.91-5.02-3.26-1.98-6.68-3.69-10.23-5.1l-2.9-1.14c-.32-.13-.63-.3-.93-.49Z"/>
    <path class="cls-20" d="M168.94,813.26c3.65-8.61,7.51-17.13,11.56-25.56,1.54-3.21,3.15-6.46,5.64-9,1.93-1.97,4.32-3.43,6.46-5.18,6.85-5.58,10.9-13.77,15.45-21.34s10.34-15.14,18.71-17.96c10.84-3.65,22.45,1.67,32.65,6.86-12.82,4.89-19.32,18.89-24.13,31.74-4.82,12.85-10.18,27-22.28,33.46-8.7,4.65-19.11,4.27-28.96,3.77"/>
    <path class="cls-25" d="M238.89,740.54c-.36.03-.72.11-1.06.24-.69.2-1.69.51-2.98.97-3.63,1.29-7.12,2.92-10.44,4.87-2.36,1.32-4.46,3.05-6.21,5.1-1.8,2.48-3.37,5.12-4.71,7.88-1.48,3.02-2.79,6.12-3.94,9.28-1.02,3.42-2.23,6.79-3.61,10.09-3.35,6.56-9.4,10.6-14.48,14.4-4.65,3.31-9.01,7-13.04,11.03-2.71,2.77-5.22,5.74-7.51,8.87l-1.77,2.56c-.24.28-.43.6-.57.95.27-.25.52-.52.73-.83l1.97-2.44c2.38-2.99,4.92-5.83,7.63-8.53,4.08-3.92,8.45-7.53,13.08-10.78,2.77-1.92,5.44-3.99,8-6.19,2.8-2.38,5.13-5.27,6.86-8.51,1.39-3.34,2.6-6.76,3.63-10.23,1.15-3.13,2.47-6.2,3.94-9.2,1.29-2.71,2.8-5.31,4.53-7.76,1.67-2,3.67-3.7,5.91-5.02,3.26-1.98,6.68-3.69,10.23-5.1l2.9-1.14c.32-.13.63-.3.93-.49Z"/>
    <path class="cls-25" d="M165.37,824.89c-.49-.61-1.06-1.38-1.79-2.31-1.58-1.99-3.88-4.85-6.86-8.3-7.67-9.04-16.1-17.4-25.2-25-5.25-4.37-10.72-8.05-15.63-11.4-1.96-1-3.92-2.01-5.89-2.99,1.66,1.28,3.34,2.51,5.09,3.67,5.01,3.43,10.44,7.11,15.76,11.53,9.05,7.57,17.51,15.82,25.3,24.67l7.09,8.08,1.97,2.19c.43.49.73.73.73.73-.16-.31-.35-.6-.57-.87Z"/>
    <path class="cls-36" d="M192.98,914.84c-2.75-7.35-6.04-14.49-9.85-21.36-3.82-6.52-9.38-12.97-16.87-13.79-5.68-.36-11.25,1.76-15.25,5.81-3.93,4.02-7.25,8.59-9.85,13.58-4.77,8.12-9.54,16.24-14.32,24.35l7.88,10.7c14.25,5.49,29.84,6.48,44.67,2.84,7.09-1.77,15.03-6.01,15.59-13.3.02-3.06-.66-6.08-1.99-8.83Z"/>
    <path class="cls-45" d="M496.92,791.15l.31.52-.31-.52Z"/>
    <path class="cls-25" d="M395.91,917.27c-.28-21.9-2.52-43.74-6.72-65.25-2.93-14.85-6.71-29.51-11.35-43.92-4.16-13.3-7.91-25.27-10.28-35.53-1.98-8.08-3.33-16.3-4.04-24.58-.1-1.45-.19-2.76-.27-3.9-.08-1.13,0-2.08-.1-2.86-.1-.78,0-1.33,0-1.77-.05-.2-.11-.4-.18-.59-.03.2-.03.4,0,.59v4.65c0,1.13.11,2.45.19,3.92.59,8.32,1.85,16.57,3.79,24.68,2.3,10.31,6.01,22.38,10.12,35.62,4.58,14.39,8.35,29.04,11.27,43.86,4.14,21.23,6.42,42.77,6.85,64.37.28.2.52.43.72.72Z"/>
    <path class="cls-20" d="M933.85,751.08c6.84-2.62,10.79-9.87,12.6-16.98,1.82-7.11,2.13-14.58,4.66-21.53,2.03-5.53,2.31-11.74,3.14-17.58,1.66-11.46-4.64-14.58-7.11-25.93-2.47-11.34,5.27-12.37,3.68-17.24-.77-2.43-4.46-2.44-6.9-1.84-2.4.75-4.62,2-6.51,3.67-9.79,7.54-19.02,17.39-20.63,29.65-.78,6.1.4,12.26.39,18.42-.05,9.63-3.04,19.64-.16,28.75,2.6,8.57,9.86,14.85,16.74,20.63"/>
    <path class="cls-20" d="M570.58,839.72c6.84-2.62,10.79-9.87,12.6-16.98,1.82-7.11,2.13-14.58,4.66-21.53,2.03-5.53,2.31-11.74,3.14-17.58,1.66-11.46-4.64-14.58-7.11-25.93-2.47-11.34,5.27-12.37,3.68-17.24-.77-2.43-4.46-2.44-6.9-1.84-2.4.75-4.62,2-6.51,3.67-9.79,7.54-19.02,17.39-20.63,29.65-.78,6.1.4,12.26.39,18.42-.05,9.63-3.04,19.64-.16,28.75,2.6,8.57,9.86,14.85,16.74,20.63"/>
    <path class="cls-25" d="M938.77,880.65c-.2-18.42-1.1-36.83-2.73-55.18-2.03-25.19-3.88-47.87-3.97-66.97-.28-15.09.61-30.17,2.64-45.13.41-2.61.76-4.97,1.07-7.01.31-2.04.82-3.68.97-5.11.14-1.42.53-2.35.7-3.14,0-.37-.03-.75-.07-1.12-.12.34-.2.69-.23,1.05l-1.84,8.24c-.45,2.01-.77,4.38-1.22,7.01-2.27,14.96-3.31,30.08-3.13,45.2-.04,19.16,1.69,42,3.65,67.08,1.58,18.32,2.44,36.7,2.62,55.09.51-.07,1.03-.06,1.54-.01Z"/>
    <path class="cls-25" d="M716.34,802.63c-.77-1.68-1.53-3.35-2.3-5.03.88,3.98,1.72,7.96,2.51,11.96,5.7,29.26,8.85,58.95,9.44,88.73.38.27.72.6,1,1-.38-30.18-3.47-60.29-9.26-89.95-.44-2.24-.9-4.47-1.37-6.71Z"/>
    <path class="cls-20" d="M396.4,854.35c4.36-12.37,13.26-22.89,24.11-30.25,10.85-7.36,23.58-11.69,36.54-13.7,4.98-.77,10.23-1.3,14.38-4.16-11.25,17.17-25.92,32.09-42.9,43.62-8.66,5.88-18.63,11.05-29.06,10.1"/>
    <path class="cls-20" d="M376.65,802c2.96-6.98,6.09-13.9,9.37-20.73,1.25-2.6,2.56-5.24,4.58-7.3,1.57-1.6,3.5-2.79,5.24-4.2,5.55-4.53,8.84-11.17,12.53-17.31s8.39-12.28,15.18-14.56c8.79-2.96,18.21,1.36,26.48,5.57-10.4,3.97-15.67,15.32-19.58,25.74-3.91,10.42-8.26,21.9-18.08,27.14-7.06,3.77-15.5,3.46-23.49,3.06"/>
    <path class="cls-25" d="M433.39,743.01c-.3.02-.59.09-.86.19-.56.16-1.37.42-2.41.78-2.94,1.05-5.78,2.37-8.47,3.95-1.91,1.07-3.62,2.47-5.03,4.14-1.46,2.02-2.74,4.15-3.82,6.39-1.2,2.45-2.27,4.96-3.2,7.53-.83,2.78-1.81,5.51-2.92,8.18-2.72,5.32-7.62,8.6-11.75,11.68-3.77,2.68-7.31,5.68-10.58,8.95-2.2,2.25-4.23,4.65-6.09,7.19l-1.44,2.08c-.2.23-.35.49-.46.77.22-.2.42-.43.59-.67l1.6-1.98c1.93-2.42,3.99-4.73,6.19-6.92,3.31-3.18,6.86-6.11,10.61-8.74,2.25-1.56,4.41-3.23,6.49-5.02,2.27-1.93,4.16-4.27,5.56-6.9,1.12-2.71,2.11-5.48,2.94-8.29.94-2.54,2-5.03,3.2-7.46,1.04-2.2,2.27-4.31,3.68-6.3,1.35-1.62,2.98-3,4.79-4.08,2.65-1.61,5.42-2.99,8.29-4.14l2.35-.93c.26-.11.51-.24.75-.4Z"/>
    <path class="cls-20" d="M575.92,883.17c2.96-6.98,6.09-13.9,9.37-20.73,1.25-2.6,2.56-5.24,4.58-7.3,1.57-1.6,3.5-2.79,5.24-4.2,5.55-4.53,8.84-11.17,12.53-17.31,3.7-6.14,8.39-12.28,15.18-14.56,8.79-2.96,18.21,1.36,26.48,5.57-10.4,3.97-15.67,15.32-19.58,25.74-3.91,10.42-8.26,21.9-18.08,27.14-7.06,3.77-15.5,3.46-23.49,3.06"/>
    <path class="cls-25" d="M632.66,824.18c-.3.02-.59.09-.86.19-.56.16-1.37.42-2.41.78-2.94,1.05-5.78,2.37-8.47,3.95-1.91,1.07-3.62,2.47-5.03,4.14-1.46,2.02-2.74,4.15-3.82,6.39-1.2,2.45-2.27,4.96-3.2,7.53-.83,2.78-1.81,5.51-2.92,8.18-2.72,5.32-7.62,8.6-11.75,11.68-3.77,2.68-7.31,5.68-10.58,8.95-2.2,2.25-4.23,4.65-6.09,7.19l-1.44,2.08c-.2.23-.35.49-.46.77.22-.2.42-.43.59-.67l1.6-1.98c1.93-2.42,3.99-4.73,6.19-6.92,3.31-3.18,6.86-6.11,10.61-8.74,2.25-1.56,4.41-3.23,6.49-5.02,2.27-1.93,4.16-4.27,5.56-6.9,1.12-2.71,2.11-5.48,2.94-8.29.94-2.54,2-5.03,3.2-7.46,1.04-2.2,2.27-4.31,3.68-6.3,1.35-1.62,2.98-3,4.79-4.08,2.65-1.61,5.42-2.99,8.29-4.14l2.35-.93c.26-.11.51-.24.75-.4Z"/>
    <path class="cls-20" d="M717.94,821.73c4.08-9.63,8.39-19.16,12.92-28.58,1.72-3.59,3.52-7.22,6.31-10.06,2.16-2.21,4.83-3.84,7.23-5.79,7.65-6.24,12.18-15.4,17.28-23.86,5.09-8.46,11.56-16.93,20.92-20.08,12.12-4.08,25.1,1.87,36.5,7.67-14.33,5.47-21.6,21.12-26.98,35.48-5.39,14.36-11.39,30.19-24.92,37.41-9.73,5.2-21.37,4.77-32.38,4.21"/>
    <path class="cls-25" d="M796.15,740.41c-.41.03-.81.12-1.19.26-.77.22-1.89.57-3.33,1.08-4.05,1.44-7.96,3.26-11.68,5.44-2.64,1.47-4.99,3.41-6.94,5.71-2.01,2.78-3.77,5.73-5.27,8.81-1.65,3.38-3.12,6.84-4.41,10.38-1.14,3.83-2.49,7.59-4.03,11.28-3.75,7.34-10.51,11.85-16.19,16.1-5.2,3.7-10.07,7.83-14.58,12.34-3.03,3.1-5.83,6.41-8.39,9.91l-1.98,2.86c-.27.31-.49.67-.64,1.06.31-.28.58-.59.82-.93l2.2-2.73c2.66-3.34,5.51-6.52,8.53-9.54,4.56-4.39,9.45-8.42,14.63-12.05,3.1-2.15,6.08-4.46,8.94-6.92,3.13-2.66,5.73-5.89,7.67-9.52,1.55-3.74,2.9-7.55,4.05-11.43,1.29-3.5,2.76-6.94,4.41-10.29,1.44-3.03,3.13-5.94,5.07-8.68,1.87-2.24,4.1-4.14,6.61-5.62,3.65-2.21,7.47-4.12,11.43-5.71l3.24-1.28c.36-.15.71-.33,1.04-.55Z"/>
    <path class="cls-20" d="M388.91,854.9c-2.96-6.98-6.09-13.9-9.37-20.73-1.25-2.6-2.56-5.24-4.58-7.3-1.57-1.6-3.5-2.79-5.24-4.2-5.55-4.53-8.84-11.17-12.53-17.31-3.7-6.14-8.39-12.28-15.18-14.56-8.79-2.96-18.21,1.36-26.48,5.57,10.4,3.97,15.67,15.32,19.58,25.74,3.91,10.42,8.26,21.9,18.08,27.14,7.06,3.77,15.5,3.46,23.49,3.06"/>
    <path class="cls-25" d="M332.17,795.91c.3.02.59.09.86.19.56.16,1.37.42,2.41.78,2.94,1.05,5.78,2.37,8.47,3.95,1.91,1.07,3.62,2.47,5.03,4.14,1.46,2.02,2.74,4.15,3.82,6.39,1.2,2.45,2.27,4.96,3.2,7.53.83,2.78,1.81,5.51,2.92,8.18,2.72,5.32,7.62,8.6,11.75,11.68,3.77,2.68,7.31,5.68,10.58,8.95,2.2,2.25,4.23,4.65,6.09,7.19l1.44,2.08c.2.23.35.49.46.77-.22-.2-.42-.43-.59-.67l-1.6-1.98c-1.93-2.42-3.99-4.73-6.19-6.92-3.31-3.18-6.86-6.11-10.61-8.74-2.25-1.56-4.41-3.23-6.49-5.02-2.27-1.93-4.16-4.27-5.56-6.9-1.12-2.71-2.11-5.48-2.94-8.29-.94-2.54-2-5.03-3.2-7.46-1.04-2.2-2.27-4.31-3.68-6.3-1.35-1.62-2.98-3-4.79-4.08-2.65-1.61-5.42-2.99-8.29-4.14l-2.35-.93c-.26-.11-.51-.24-.75-.4Z"/>
    <path class="cls-25" d="M391.81,864.34c.4-.5.86-1.12,1.45-1.87,1.28-1.61,3.15-3.93,5.56-6.73,6.22-7.33,13.06-14.12,20.44-20.28,4.26-3.55,8.69-6.53,12.68-9.24,1.59-.81,3.18-1.63,4.78-2.43-1.34,1.03-2.71,2.04-4.13,2.98-4.06,2.78-8.47,5.77-12.79,9.35-7.34,6.14-14.2,12.83-20.52,20.01l-5.75,6.55-1.6,1.77c-.35.4-.59.59-.59.59.13-.25.29-.48.46-.7Z"/>
    <path class="cls-20" d="M937.93,780.59c.68-15.04,6.96-29.56,16.44-41.25,9.48-11.7,22.03-20.68,35.6-27.2,5.21-2.5,10.81-4.83,14.42-9.35-6.65,22.61-17.82,43.87-32.65,62.19-7.56,9.34-16.8,18.33-28.57,20.75"/>
    <path class="cls-25" d="M936.2,793.09c.27-.68.58-1.52.98-2.54.87-2.2,2.15-5.37,3.88-9.24,4.4-10.12,9.66-19.85,15.72-29.08,3.5-5.32,7.38-10.07,10.86-14.37,1.48-1.42,2.95-2.85,4.44-4.25-1.13,1.58-2.3,3.14-3.54,4.64-3.54,4.4-7.39,9.15-10.94,14.52-6.02,9.18-11.34,18.81-15.9,28.81l-4.14,9.11-1.17,2.48c-.25.56-.45.85-.45.85.06-.32.15-.63.28-.93Z"/>
    <path class="cls-20" d="M706.68,790.81c-13.35-12.2-21.89-29.16-25.39-46.9-3.49-17.74-2.13-36.22,2.31-53.75,1.7-6.73,3.87-13.68,2.47-20.49,15.72,23.53,26.75,50.18,32.23,77.94,2.79,14.15,3.98,29.6-2.84,42.31"/>
    <path class="cls-25" d="M716.88,802.02c-.41-.77-.95-1.7-1.59-2.85-1.36-2.49-3.29-6.11-5.54-10.68-5.95-11.85-10.87-24.18-14.72-36.86-2.21-7.32-3.6-14.55-4.9-21.07-.17-2.45-.36-4.91-.51-7.37.59,2.26,1.12,4.54,1.56,6.84,1.34,6.65,2.75,13.86,4.97,21.26,3.83,12.62,8.62,24.93,14.33,36.82l5.21,10.83,1.39,2.98c.32.66.43,1.07.43,1.07-.25-.3-.46-.62-.64-.97Z"/>
    <path class="cls-36" d="M374.02,925.43c2.23-5.96,4.9-11.76,7.99-17.32,3.1-5.29,7.61-10.52,13.68-11.19,4.61-.29,9.12,1.43,12.37,4.71,3.19,3.26,5.88,6.97,7.99,11.01,3.87,6.58,7.74,13.17,11.62,19.75l-6.39,8.68c-11.56,4.45-24.2,5.25-36.23,2.3-5.75-1.44-12.19-4.87-12.64-10.79-.02-2.48.54-4.93,1.61-7.16Z"/>
    <path class="cls-36" d="M691.11,903.15c3.08-8.22,6.76-16.2,11.02-23.88,4.27-7.29,10.49-14.5,18.86-15.42,6.36-.4,12.57,1.97,17.05,6.5,4.39,4.49,8.1,9.61,11.02,15.18,5.33,9.08,10.67,18.15,16.02,27.23l-8.81,11.96c-15.93,6.13-33.36,7.24-49.94,3.17-7.93-1.98-16.81-6.72-17.43-14.87-.02-3.42.74-6.79,2.23-9.87Z"/>
    <path class="cls-36" d="M910.91,903.15c3.08-8.22,6.76-16.2,11.02-23.88,4.27-7.29,10.49-14.5,18.86-15.42,6.36-.4,12.57,1.97,17.05,6.5,4.39,4.49,8.1,9.61,11.02,15.18,5.33,9.08,10.67,18.15,16.02,27.23l-8.81,11.96c-15.93,6.13-33.36,7.24-49.94,3.17-7.93-1.98-16.81-6.72-17.43-14.87-.02-3.42.74-6.79,2.23-9.87Z"/>
    <path class="cls-6" d="M403.68,898.05c-3.16-2.04-7.23-1.6-10.63-.4-3.5,1.23-6.92,3.26-9.37,6.09-.76.88,1.01,1.14,1.55.52,2.08-2.4,4.95-4.17,7.9-5.28s6.37-1.63,9.1.13c.67.43,2.31-.49,1.44-1.05h0Z"/>
    <path class="cls-20" d="M921.26,822.32c-5.82-7.57-11.89-15.36-20.26-19.94-3.32-1.82-6.96-3.1-10-5.36-5.15-3.83-8.01-10.05-9.6-16.27-1.59-6.22-2.12-12.68-3.74-18.89-.52-1.99-2.09-4.43-3.98-3.65-.72.3-1.17,1-1.57,1.66-7.65,12.64-12.96,26.69-15.6,41.22-.32,1.79-.61,3.65-.22,5.43.54,2.47,2.29,4.47,4.07,6.27,11.92,11.98,28.22,19.51,45.06,20.82,6.07.47,12.77-.06,17.21-4.23"/>
    <path class="cls-25" d="M934.12,836.44c-.57-.66-1.19-1.28-1.85-1.85-2.4-2.11-4.99-4.01-7.73-5.66-3.44-2.14-7.67-4.43-12.42-6.85-5.18-2.5-10.24-5.26-15.14-8.28-5.82-4.29-11.2-9.14-16.07-14.46.34.91.71,1.81,1.09,2.7,4.37,4.66,9.17,8.92,14.34,12.7,4.93,3.05,10.04,5.82,15.29,8.28,4.78,2.38,9.03,4.58,12.49,6.61,2.76,1.56,5.38,3.34,7.87,5.31,1.76,1.39,2.71,2.2,2.71,2.2-.16-.26-.35-.5-.57-.7Z"/>
    <path class="cls-20" d="M371.87,780.34c-.03-6.93-.11-14.09-2.92-20.42-1.12-2.51-2.65-4.85-3.41-7.49-1.29-4.48-.2-9.32,1.62-13.61,1.82-4.29,4.35-8.25,6.15-12.55.57-1.37.74-3.47-.7-3.86-.54-.14-1.11.06-1.64.27-9.97,3.93-19.21,9.7-27.12,16.93-.98.89-1.95,1.84-2.51,3.04-.77,1.66-.65,3.59-.41,5.41,1.61,12.15,7.7,23.66,16.85,31.83,3.29,2.94,7.4,5.58,11.79,5.13"/>
    <path class="cls-25" d="M373.09,794.14c-.04-.63-.12-1.26-.25-1.88-.46-2.28-1.12-4.51-1.97-6.67-1.04-2.74-2.48-5.93-4.16-9.42-1.89-3.72-3.59-7.54-5.09-11.43-1.48-5.03-2.44-10.2-2.92-15.41-.2.67-.39,1.35-.56,2.04.47,4.61,1.37,9.18,2.69,13.64,1.51,3.93,3.24,7.77,5.18,11.5,1.71,3.47,3.2,6.62,4.3,9.31.9,2.11,1.64,4.29,2.2,6.52.41,1.58.59,2.46.59,2.46.02-.22.02-.44-.02-.66Z"/>
    <path class="cls-6" d="M148.27,918.73c2.58-.24,5.36-.29,7.52,1.37.95.73,1.58,1.68,1.89,2.83.25.91.33,1.9.76,2.76.9,1.79,2.89,1.6,4.54,1.08,1.3-.41,2.46-.86,3.85-.78s2.7.54,3.89,1.24c.46.27,2.01-.49,1.75-.64-2.03-1.2-4.38-1.63-6.71-1.26-1.16.18-2.28.85-3.42.98-1.66.19-2.18-1.21-2.49-2.53-.53-2.24-1.28-3.95-3.45-5.03-2.26-1.12-4.88-1.02-7.33-.79-.29.03-1.11.13-1.24.45s.11.35.44.32h0Z"/>
    <path class="cls-33" d="M160.05,901.71c-1.72-2.25-4.47-4.79-7.49-3.29-1.05.52-1.79,1.44-2.46,2.37-.55.76-1.17,1.78-2.11,2.02-.38.1-.87.45-.76.9s.74.5,1.1.4c1.07-.28,1.92-.96,2.61-1.8.62-.76,1.11-1.64,1.83-2.32,1.98-1.87,4.44,1.05,5.58,2.54.52.68,2.29-.05,1.7-.83h0Z"/>
    <path class="cls-6" d="M383.45,933.14c-.42-2.73,2.75-3.85,4.93-3.82,2.35.03,4.7,1.01,6.41,2.62.68.64,1.17,1.51,2.18,1.62s1.92-.35,2.87-.49c2.51-.39,5.09.37,7.12,1.84.51.37,2.21-.37,1.73-.71-2.22-1.61-4.88-2.39-7.62-2.2-.73.05-1.45.16-2.16.33-.47.11-.64.22-1.11.03s-.68-.54-1.01-.88c-.94-.96-2.09-1.72-3.32-2.26-2.4-1.04-5.23-1.23-7.74-.46-2.12.65-4.52,2.37-4.14,4.86.09.59,1.96.16,1.86-.5h0Z"/>
    <path class="cls-6" d="M407.56,910.75c-3.09-1.51-7.07-.34-9.11,2.36-.5.66-.87,1.4-1.07,2.2-.09.38-.07.81-.2,1.18-.15.43-.82.29-1.24.35-2.05.32-3.86,1.49-4.98,3.23-.25.39.22.66.55.7.45.05.97-.16,1.22-.55.47-.74,1.12-1.35,1.91-1.74s1.57-.39,2.43-.51c.81-.11,1.57-.5,1.88-1.29.27-.69.22-1.46.51-2.16,1.04-2.47,4.14-3.99,6.65-2.76.42.2.95.14,1.33-.13.26-.19.55-.67.12-.88h0Z"/>
    <path class="cls-6" d="M706.45,912.15c3.4-.3,6.85-.81,10.25-.87,1.26-.03,2.75.11,3.67,1.07.69.71.67,2.1,1.72,2.44,1.12.36,2.46-.45,3.5-.74,1.56-.44,3.2-.61,4.82-.54,3.1.12,6.09,1.08,8.71,2.74.45.29,2.03-.47,1.75-.64-2.56-1.62-5.45-2.58-8.47-2.83-1.46-.12-2.94-.07-4.39.13-.74.1-1.47.25-2.2.43-.47.12-1.84.79-2.23.66-.55-.19-.7-1.15-.96-1.61s-.62-.84-1.07-1.13c-.98-.61-2.21-.75-3.35-.76-3.63-.05-7.34.56-10.95.88-.3.03-1.11.13-1.24.45s.11.36.45.33h0Z"/>
    <path class="cls-6" d="M715.93,895.61c.7-2.63,2.97-4.28,5.58-4.71,2.14-.35,4.45.23,6.49-.67,2.26-1,1.57-3.21,2.01-5.2.53-2.41,2.49-5.15,5.28-4.09.5.19,2.19-.57,1.5-.84-2.22-.84-4.89-.14-6.59,1.47-.93.88-1.56,2.02-1.91,3.24-.19.67-.29,1.36-.32,2.05-.04.76.13,1.78-.38,2.44-.72.92-2.84.46-3.85.51-1.44.06-2.88.29-4.24.77-2.49.88-4.71,2.68-5.41,5.3-.15.57,1.7.3,1.85-.27h0Z"/>
    <path class="cls-6" d="M924.18,904.5c2.51-.93,6.27-2.11,8.06.72.59.93.75,1.99,1.66,2.71.85.66,1.96.91,3.01.95,1.34.04,2.63-.33,3.95-.47,1.52-.16,2.9.22,4.17,1.05,2.39,1.55,3.79,4.16,5.12,6.59.37.68,2.16.02,1.71-.8-1.43-2.61-2.96-5.32-5.55-6.93-1.17-.72-2.49-1.19-3.87-1.26-1.61-.08-3.15.49-4.75.53-.8.02-1.64-.14-2.27-.65s-.82-1.21-1.14-1.9c-.51-1.07-1.34-1.84-2.41-2.33-2.78-1.27-5.81-.24-8.5.77-.35.13-.68.55-.45.91.25.39.92.24,1.26.11h0Z"/>
    <path class="cls-6" d="M940.21,889.21c-.55-1.76.13-4.6,2.29-4.93.99-.15,2.02.26,2.76.88.65.55,1.19,1.23,2.08,1.36,1.99.3,3.51-1.72,5.11-2.56,1.79-.94,4.22-.59,5.06,1.45.23.55,2.06-.02,1.86-.5-.84-2.05-3.24-2.65-5.26-2.33-1.36.22-2.62.82-3.77,1.56-.55.36-1.21,1.1-1.81,1.31-.33.12-.08.29-.52-.09-.24-.21-.48-.41-.71-.63-3.55-3.29-10.54-.17-8.94,4.96.17.55,2.02.03,1.86-.5h0Z"/>
    <path class="cls-25" d="M575.93,900.08c-.17-15.3-.91-30.6-2.26-45.84-1.68-20.93-3.22-39.77-3.3-55.64-.23-12.53.5-25.07,2.19-37.49.34-2.17.63-4.13.89-5.83.26-1.7.68-3.06.8-4.24.12-1.18.44-1.95.58-2.61,0-.31-.02-.62-.06-.93-.1.28-.17.57-.19.87l-1.53,6.84c-.37,1.67-.64,3.64-1.01,5.83-1.88,12.43-2.75,24.99-2.6,37.55-.04,15.92,1.4,34.89,3.03,55.73,1.31,15.22,2.03,30.49,2.18,45.77.43-.06.85-.05,1.28,0Z"/>
    <path class="cls-36" d="M552.78,918.77c2.56-6.83,5.61-13.46,9.15-19.84,3.55-6.06,8.71-12.04,15.67-12.81,5.28-.33,10.45,1.64,14.17,5.4,3.65,3.73,6.73,7.98,9.15,12.61,4.43,7.54,8.86,15.08,13.31,22.62l-7.32,9.94c-13.24,5.1-27.72,6.02-41.49,2.64-6.59-1.65-13.97-5.58-14.48-12.35-.02-2.84.61-5.64,1.85-8.2Z"/>
    <path class="cls-20" d="M561.38,851.62c-4.83-6.29-9.87-12.76-16.83-16.57-2.76-1.51-5.78-2.58-8.31-4.45-4.28-3.18-6.65-8.35-7.97-13.52-1.32-5.17-1.76-10.53-3.11-15.7-.43-1.65-1.73-3.68-3.31-3.03-.6.25-.97.83-1.31,1.38-6.35,10.5-10.77,22.17-12.96,34.25-.27,1.49-.51,3.03-.18,4.51.45,2.05,1.9,3.72,3.38,5.21,9.9,9.95,23.44,16.21,37.44,17.3,5.04.39,10.61-.05,14.3-3.51"/>
    <path class="cls-25" d="M572.07,863.35c-.47-.55-.99-1.06-1.54-1.54-2-1.76-4.15-3.33-6.42-4.7-2.85-1.78-6.37-3.68-10.32-5.69-4.31-2.08-8.5-4.37-12.57-6.88-4.84-3.56-9.3-7.59-13.35-12.01.29.75.59,1.5.91,2.25,3.63,3.87,7.62,7.41,11.92,10.55,4.1,2.53,8.34,4.83,12.7,6.88,3.97,1.98,7.5,3.81,10.38,5.49,2.29,1.3,4.47,2.77,6.53,4.41,1.46,1.15,2.25,1.83,2.25,1.83-.13-.22-.29-.41-.48-.59Z"/>
    <path class="cls-6" d="M563.88,919.98c1.97-.73,4.9-1.69,6.4.44.57.82.69,1.81,1.53,2.44.7.53,1.61.74,2.47.77,2.3.1,4.3-.99,6.47.3s3.34,3.52,4.49,5.62c.37.68,2.16.02,1.71-.8-1.24-2.26-2.58-4.64-4.91-5.94-.96-.54-2.02-.87-3.13-.9-1.32-.04-2.58.43-3.9.44-1.59.02-2.08-.87-2.71-2.14-.47-.93-1.22-1.57-2.18-1.97-2.34-.97-4.83-.11-7.06.72-.35.13-.68.55-.45.91.25.39.92.24,1.26.11h0Z"/>
    <path class="cls-6" d="M577.28,907.15c-.42-1.34.03-3.72,1.72-3.98.77-.12,1.59.23,2.17.72s1.01,1.04,1.77,1.15c1.77.27,3.02-1.43,4.44-2.16s3.29-.38,3.95,1.21c.23.55,2.06-.02,1.86-.5-.72-1.76-2.78-2.24-4.5-1.97-1.18.19-2.28.71-3.28,1.35-.49.32-1.11.67-1.5,1.09l-.18.14c.35-.06.36-.14.02-.26-.15-.19-.41-.35-.59-.52-3-2.79-9.1-.16-7.73,4.22.17.55,2.02.03,1.86-.5h0Z"/>
    <path class="cls-36" d="M470.03,919.61c-3.13-1.05-6.75-.51-9.44,1.39-2.69,1.91-4.4,5.14-4.45,8.44-.03,1.7.47,3.56,1.89,4.5,2.03,1.34,4.68.18,7.01-.49,2.13-.62,4.52-.77,6.48.27,1.29.68,2.33,1.85,3.73,2.27,3.03.91,5.95-2.24,6.36-5.37.65-4.96-3.35-10.05-8.32-10.59"/>
    <path class="cls-36" d="M538.34,940.19c2.33-.33,4.19-2.02,6.24-3.19,3.36-1.91,7.47-2.43,11.2-1.41,3.19.87,6.23,2.82,9.51,2.43,2.08-.25,4.36-1.39,6.11-.24.7.46,1.14,1.2,1.53,1.94,1.45,2.73,2.16,6.71-.41,8.43-.88.59-1.99.76-3.05.7-2.38-.13-4.56-1.29-6.78-2.13-2.23-.84-4.82-1.35-6.92-.23-1.32.7-2.25,1.95-3.38,2.93-2.46,2.14-6,2.97-9.15,2.16-3.16-.82-5.84-3.27-6.95-6.33"/>
    <path class="cls-36" d="M646.64,922.61c1.45-3.08,3.01-6.3,5.79-8.27,2.78-1.97,7.16-2.12,9.21.6.65.86,1.05,1.96,1.97,2.52.85.52,1.93.43,2.93.37,2.51-.14,5.8.78,5.86,3.29.06,2.43-3.12,3.57-5.52,3.18-2.4-.39-4.82-1.56-7.15-.88-1.32.39-2.4,1.32-3.63,1.94-3.04,1.51-7.05.77-9.34-1.74"/>
    <path class="cls-36" d="M699.71,938.49c3.64-5.03,11.16-6.77,16.64-3.83.9.48,1.84,1.09,2.85.95.79-.11,1.43-.65,2.07-1.11,6.15-4.48,15.91-2.66,20.04,3.73.32.49.6,1.13.29,1.62-.27.41-.83.49-1.32.53-2.77.2-5.55.24-8.32.12-2.2-.09-4.64-.21-6.33,1.2-.96.8-1.52,1.99-2.39,2.89-2,2.06-5.35,2.23-8.06,1.26-2.71-.96-4.97-2.84-7.31-4.51s-4.95-3.21-7.82-3.3"/>
    <path class="cls-36" d="M163.39,931.77c.64-2.32,1.58-4.63,3.26-6.36,1.68-1.73,4.21-2.77,6.54-2.17,2.69.69,4.71,3.38,7.48,3.45,2.14.05,4.1-1.53,6.24-1.38,3.09.21,4.79,3.76,5.09,6.85.07.67.09,1.36-.17,1.98-.63,1.46-2.58,1.82-4.14,1.52-1.56-.31-3.06-1.06-4.65-1.02-2.14.06-3.95,1.51-5.86,2.49-1.91.98-4.58,1.35-5.92-.33"/>
    <path class="cls-36" d="M240.71,924.29c-2.65-3.42-8.07-4.27-11.64-1.82-.69.47-1.31,1.04-2.06,1.41-3.28,1.6-8.06-1.08-10.5,1.63-.72.8-1,1.88-1.26,2.93-.65,2.65-1.07,5.95,1.08,7.63,2.38,1.87,5.76.19,8.48-1.12,3.34-1.61,7.25-2.62,10.74-1.37,2.39.85,5.19,2.64,7.12,1,.6-.51.93-1.26,1.11-2.03.47-2.08-.26-4.38-1.83-5.82"/>
    <path class="cls-36" d="M902.4,917.51c-1.79-2.34-3.63-4.72-6.11-6.3-2.48-1.58-5.78-2.21-8.38-.83-1.3.69-2.34,1.82-3.72,2.33-2.08.76-4.35-.06-6.5-.62-2.14-.56-4.77-.7-6.21.98-.85.99-1.06,2.37-1.15,3.67-.13,1.88.01,4.04,1.47,5.23,1.33,1.09,3.27.95,4.94.52,1.67-.42,3.35-1.08,5.05-.85,2.79.38,4.71,2.98,7.29,4.11,4.09,1.81,9.5-1.1,10.24-5.51"/>
    <path class="cls-36" d="M900.24,932.45c3.3-1.03,7.04-.58,10,1.2,1.15.7,2.23,1.6,3.55,1.89,3.06.68,6.31-2.13,9.18-.89,1.62.7,2.49,2.5,2.78,4.24.08.5.12,1.05-.1,1.5-.28.55-.87.85-1.45,1.07-2.88,1.13-6.12,1.3-9.1.48-1.97-.55-3.94-1.53-5.96-1.21-1.23.19-2.32.83-3.44,1.38-1.46.71-3,1.27-4.58,1.65-.99.24-2.06.41-3,.03-.65-.26-1.19-.77-1.6-1.34-1.87-2.57-1.16-6.62,1.47-8.41"/>
    <path class="cls-36" d="M994.26,913.93c2.29-2.19,5.95-2.8,8.83-1.47.69.32,1.34.74,2.07.94,2.93.8,5.99-2.08,8.87-1.14,2.85.92,3.36,4.66,3.36,7.65,0,1.23-.07,2.63-1,3.44-.71.61-1.72.7-2.65.75-5.51.29-11.78-.14-15.33-4.36-1.59-1.89-3.01-4.69-5.48-4.5"/>
    <path class="cls-36" d="M750.31,916.81c2.29-2.19,5.95-2.8,8.83-1.47.69.32,1.34.74,2.07.94,2.93.8,5.99-2.08,8.87-1.14,2.85.92,3.36,4.66,3.36,7.65,0,1.23-.07,2.63-1,3.44-.71.61-1.72.7-2.65.75-5.51.29-11.78-.14-15.33-4.36-1.59-1.89-3.01-4.69-5.48-4.5"/>
    <path class="cls-36" d="M795.61,936.98c-1.84-2.94-5.8-3.57-9.27-3.7-.99-.04-2.07-.02-2.81.63-.54.48-.77,1.2-.95,1.89-.48,1.86-.72,3.77-.73,5.69,0,.52.03,1.08.35,1.49.45.56,1.26.61,1.98.62,3.08.03,6.16.05,9.24.08.75,0,1.55,0,2.18-.41.94-.61,1.17-1.94.84-3-.33-1.07-1.1-1.93-1.85-2.76"/>
    <path class="cls-36" d="M577.14,901.77c-1.84-2.94-5.8-3.57-9.27-3.7-.99-.04-2.07-.02-2.81.63-.54.48-.77,1.2-.95,1.89-.48,1.86-.72,3.77-.73,5.69,0,.52.03,1.08.35,1.49.45.56,1.26.61,1.98.62,3.08.03,6.16.05,9.24.08.75,0,1.55,0,2.18-.41.94-.61,1.17-1.94.84-3s-1.1-1.93-1.85-2.76"/>
    <path class="cls-36" d="M361.91,944.93c-1.84-2.94-5.8-3.57-9.27-3.7-.99-.04-2.07-.02-2.81.63-.54.48-.77,1.2-.95,1.89-.48,1.86-.72,3.77-.73,5.69,0,.52.03,1.08.35,1.49.45.56,1.26.61,1.98.62,3.08.03,6.16.05,9.24.08.75,0,1.55,0,2.18-.41.94-.61,1.17-1.94.84-3-.33-1.07-1.1-1.93-1.85-2.76"/>
  </g>
  <g id="Layer_1" data-name="Layer 1">
    <path class="cls-23" d="M1061.1,323.26c-5.25-.2-10.49-.54-15.72-1.02-.44-.5,10.46,21.15,9.61,21.5-4.12,1.66-41.94-13.47-57.14-16.64,12.17-58.65,14.69-75.22,18.45-90.69,6.22-25.62,59.74-50.56,63.22-51.98,0,0-4.78,94.07-16.25,130.03-.78,2.45-1.5,5.42-2.16,8.81Z"/>
    <path class="cls-4" d="M1107.3,50.48c6.17-2.31,10.47-1.25,16.88-2.87.55-.14,1.17-.28,1.66-.05.41.18.62.57.8.93,4.4,8.63,9.17,17.06,11.56,26.36,1.02,3.96,1.85,8.01,1.48,12.13-.33,3.71.43,7.85-.86,11.45-1.13,3.16-2.26,6.32-3.39,9.48-.42,1.18-.87,2.4-1.84,3.34-2.82,2.76-7.98,1.48-11.1-.68-6.7-4.64-10.13-12.01-11.56-19.46-1.43-7.45-1.1-15.14-1.61-22.73-.35-5.23-1.11-10.42-2.25-15.53"/>
    <path class="cls-27" d="M1125.07,121.36s1.77,23.2,13.52,37.89c1.88,2.35,24.97,10.78,24.97,10.78l-23.7,70.49c-13.42,7-39.6.42-54.67-1.01l-35.14-28.52s19.76-18.48,19.6-22.03c-.16-3.55-8.07-27.97-8.07-27.97"/>
    <path class="cls-27" d="M1014.58,69.83s.01-.04.01-.07c.98.64,8.23-7.19,9.29-8.02,11.21-8.79,16.25-15.25,30.44-16.3,7.41-.55,15.67,5.1,23.1,5.43,7.12.32,13.04-5.78,20.11-6.98,2.45-.41,4.63,7.33,3.5,5.79,2.98-1.18,5.3-2.51,5.3-2.51,9.1,4.21,6.74,37.99,7.57,42.35.83,4.36,3.31,10.97,3.31,10.97.83-1.89,1.87-3.37,2.15-5.37.34-1.77,1.19-3.91,1.53-5.67,1.3-4.17,7.16-5.04,10.41-3.45l1.81,1.67c5.01,4.18,3.01,20.83,1.41,26.24,1.57,9.82-5.58,16.95-12.01,11.17l-.4,4.08-9.17,22.1c-7.22,12.24-23.93,27.04-39.26,30.11-5.49,1.1-12.87,3.16-18.33-2.68-5.52-5.9-7.76-9.2-13.52-14.53-5.52-5.1-8.22-8.46-11.72-15.11-3.62-6.88-4.07-8.81-5.04-16.32-.43-3.35-1.39-8.36-2.38-11.44-1.15-3.56-6.21-17.45-8.54-25.76-2.33-8.31.43-25.73.43-25.73Z"/>
    <path class="cls-47" d="M1122.76,106.46c.83-3.65,1.83-7.39,3.6-10.71.45-.85.96-1.68,1.58-2.41.19-.23.38-.43.6-.63.08-.07.17-.15.26-.22.07-.05.28-.2.16-.12.07-.04.14-.09.21-.12.1-.05-.07-.05.03-.01.13.05-.15.04-.04.01l-.75-.05c.65.52,1.15,1.28,1.54,2,1.09,2.02,1.43,4.33,1.37,6.6,0,.38,1.4.14,1.42-.38.07-2.64-.42-5.35-1.96-7.55-.53-.76-1.04-1.54-2.05-1.17-1.97.72-3.21,3.07-4.07,4.81-1.57,3.2-2.52,6.69-3.31,10.15-.11.48,1.31.26,1.41-.2h0Z"/>
    <path class="cls-47" d="M1124.35,107.62c1.6-.42,1.68,3.11,1.74,3.97.08,1.05-.07,3.71,1.54,3.66.97-.03,1.46-.68,1.68-1.54.35-1.39.35-2.9.32-4.32-.04-1.9-.22-3.52-.86-5.3-.74-2.05-1.96-4.39-4.29-4.84-.36-.07-1.64.51-.9.65,1.93.37,3.02,2.58,3.65,4.23.52,1.36.83,2.67.92,4.12.1,1.58.13,3.19-.08,4.76-.06.48-.14.97-.33,1.42-.04.09-.19.27-.19.34l.77-.18s-.07-.05-.1-.08c-.04-.07-.15-.14-.2-.22-.36-.54-.38-1.37-.44-2-.08-.88-.11-1.76-.24-2.63-.11-.76-.26-1.65-.8-2.23-.61-.65-1.56-.57-2.35-.36-.16.04-.7.21-.64.46s.64.12.78.08h0Z"/>
    <path class="cls-47" d="M1026.41,82.61s10.88-.67,19.58-1.91c8.7-1.24,16.56-5.97,16.56-5.97,0,0-9.73,4.06-16.61,5.07-6.88,1.01-19.53,2.81-19.53,2.81Z"/>
    <path class="cls-4" d="M1059.43,84.97c9.94-1.42,16.82-1.06,19.57-.49,2.15.45,4.23,1.26,6.17,2.32,0,0,5.22,4.71,5.84,5.76.62,1.05-3.33-.69-3.33-.69-.85-.26-1.43-.55-2.31-.72-4.83-.9-9.41-2.34-14.33-2.07-4.21.21-9.98,1.93-14.07,3.01-.04-1.67.54-5.05.34-6.71"/>
    <path class="cls-4" d="M1017.07,105.15c0-.15-.43-1.04-.43-1.19,0,0,.02-.17.02-.17.67-.85,1.33-2.14,2.46-3.13,1.98-1.73,6.92-6.28,15.51-9.92.86,1.38,2.74,3.84,3.61,5.22-3.76,1.09-6.2,2.17-9.7,3.98-3.28,1.7-7.79,4.33-10.71,6.68-.27-.24.03-.02-.21-.28-.14-.19-.27-.39-.38-.6-.07-.19-.13-.38-.17-.58Z"/>
    <path class="cls-26" d="M1060.51,148.34c3.29-.68,13.2-3.3,13.2-3.3,0,0-2.86,4.38-12.74,6.41-9.88,2.03-13.74-.86-13.74-.86l13.28-2.25Z"/>
    <path class="cls-27" d="M1054.52,170.53c.16-.05.3-.13.42-.24,2.22-2.11,2.25-3.08,3.43-3.59.27-.12.4-.24,1.26-.52,3.46-1.11,5.55-1.86,16.1,2.55.21.09,12.39-3.65,12.62-3.72l5.9-4.16c.96-.85,21.51-25.38,21.51-25.38.25-.74,3.76-6.34,3.82-7.02.07-.05.13-.11.21-.15.03-.01.08-.05.14-.09.02.04.04.09.06.12.09.27.13.56.17.84.16,1.23.12,2.47-.05,3.7-.25,1.89-.26,3.77-.43,5.66-.06.67-.16,1.33-.28,1.98-2.45,2.19-10.01,26.47-25.19,33.96-.62.28-2.55,1.21-7.9,2.61-10.05,2.63-17.99,7.23-28.53,6.04-2.75-.31-5.18-1.82-6.66-4.08-4.2-6.44-18.16-31.96-21.58-42.07,3.82,5.54,15.28,22.37,20.83,30.46.17.24,3.47,3.13,3.8,3.17"/>
    <path class="cls-26" d="M1060.31,148.61c3.8-.65,15.24-3.31,15.24-3.31,0,0-3.41,5.06-14.81,7.03-11.39,1.96-15.74-1.64-15.74-1.64l15.3-2.07Z"/>
    <path class="cls-27" d="M1122.82,48.65s-9.03-17.23-31.73-19.62c-17.13-1.8-48.81,5.18-60.01,13.3-16.24,11.76-16.9,30.96-16.9,30.96l108.64-24.63Z"/>
    <path class="cls-44" d="M1068.48,182.44s25.33-5.23,30.78-10.3c5.44-5.07,11.07-13.17,15.08-24.52,0,0-4.07,24.65-17.56,29.55-17.79,6.47-27.23,7.38-27.23,7.38l-1.07-2.12Z"/>
    <path class="cls-5" d="M1027.75,110.29c-1.43-.42-2.99.45-3.7,1.36-.17.21-.44.83-.53,1.73-.11,1.15.56,2.3,1.39,2.92,1.11.83,2.66.71,3.73-.06,1.44-1.05,1.59-3.05.93-4.36-.12-.24-.67-1.24-1.82-1.59"/>
    <path class="cls-5" d="M1042.59,111.66s-7.27-3.75-10.56-3.45c-4.8.44-10.11,4.17-11.32,6.83,0,0,6.93-5.39,10.32-5.6,3.24-.2,11.56,2.22,11.56,2.22Z"/>
    <path class="cls-5" d="M1067.79,102.9c1.17-.92,3.29-1.14,4.28-.55.23.14.87.54,1.28,1.34.53,1.03.33,2.35-.21,3.23-.72,1.18-2.21,1.64-3.48,1.32-1.73-.43-2.61-2.24-2.48-3.71.02-.27-.33-.71.61-1.45"/>
    <path class="cls-5" d="M1062.07,107.53s6.26-5.91,9.75-6.69c5.09-1.14,11.78.68,13.91,2.81,0,0-8.91-2.86-12.47-1.97-3.41.86-11.18,5.84-11.18,5.84Z"/>
    <g>
      <path class="cls-13" d="M1052.67,136.5c1.89.59,4.48-.1,6.03-1.48.34-.31,1.67-.31,1.19.12-2.04,1.83-5.8,2.64-8.24,1.88-.24-.08-.23-.25.03-.39.27-.15.73-.21.99-.13"/>
      <path class="cls-13" d="M1060.55,134.51c1.06-.76,2.31-1.28,3.59-1.61.19-.05.45-.02.61.08.13.08.17.2.04.31-.54.45-1.28.73-1.98.84-.22.04-.52.03-.68-.13-.15-.15.05-.31.22-.33.58-.09,1.15-.31,1.6-.69.22.13.44.26.66.39-1.14.3-2.26.78-3.21,1.45-.19.13-.5.12-.7.05-.15-.06-.34-.22-.15-.36"/>
      <path class="cls-13" d="M1065.73,133.74c1.51-.31,3.18-1.29,3.72-2.56.82-1.92-.72-4.45-2.82-5.21-.23-.08-.15-.26.06-.34.26-.11.6-.06.84.02,1.83.66,3.3,2.7,3.34,4.36.04,1.55-1.23,2.86-2.96,3.62-.52.23-1.08.42-1.64.54-.23.05-.66.05-.8-.11-.15-.16.05-.28.26-.32"/>
      <path class="cls-13" d="M1049.75,136.23c.05-.19-.12-.28-.24-.25-.41.08-.85.05-1.25-.17-.11.19-.21.37-.31.56.84-.06,1.71.06,2.53.42.16.07.36-.03.47-.16.08-.1.15-.31-.01-.38"/>
      <path class="cls-13" d="M1050.94,136.24c-.92-.4-1.89-.52-2.83-.45-.14.01-.3.11-.37.26-.06.11-.05.24.06.31"/>
      <path class="cls-13" d="M1046.63,137.01c-1,.14-2.28-.31-2.97-1.36-1.04-1.58-.73-3.75.31-5.07.11-.14.01-.29-.13-.3-.19-.03-.38.11-.5.26-.9,1.15-1.32,2.83-.87,4.41.42,1.48,1.56,2.36,2.82,2.58.38.07.77.09,1.14.03.15-.02.41-.14.45-.33.04-.19-.11-.25-.25-.23"/>
    </g>
    <path class="cls-10" d="M1118.2,97.02l-.64-2.76-32.4.89h0c-10.87-1.95-24.43,3.76-31.53,10.78l-7.15,1.85.04-.13c-9.73-4.59-23.91-2.7-33.6,4.47l.53,1.09h0c.02.07.13.22.23.45l.47.95c2.92,6.05,6.19,12.41,8.32,13.83,1.43.96,5.44.74,8.7.34,1.23-.14,2.35-.31,3.16-.43.96-.16,9.52-1.57,10.66-3.21,1.14-1.63,1.49-12.15,1.53-15.46l7.34-1.86c1.45,2.27,5.56,12.47,9.61,13.89,4.06,1.41,22.4-3.21,23.57-6.18.83-2.12,2.11-9.54,2.3-13.2l.62-4.79,28.23-.52ZM1043.93,124.31c-1.28,1.6-18.29,4.61-20.76,2.97-2.09-1.39-6.26-10.02-7.83-13.26l-.03-.14c8.76-5.87,21.54-7.59,29.97-3.75-.17,5.73-.64,13.14-1.35,14.16v.03ZM1084.71,115.2c-.73,1.87-16.61,6.63-20.79,5.17-2.91-1-6.04-8.44-8.18-12.62,6.98-6.71,22.19-12.05,31.98-9.71-.48,5.8-1.49,11.55-3.01,17.17h0Z"/>
    <path class="cls-7" d="M539.75,707.25s-1.1,1.25-.35,3.32c.75,2.07,14-.59,18.65-.26,4.64.34,26.21,1.65,30.69.45s.02-6.25.02-6.25l-49.01,2.74Z"/>
    <path class="cls-27" d="M589.36,695.33c.6,2.32.83,3.63,1.45,5.85.72,2.56-.39,4.55-3.29,5.76-2.44,1.01-5.74,1.59-8.43,1.56-3.51-.04-7.28-.51-10.79-.55-3.01-.03-15.28-.39-18.21.23-4.56.96-7.41.43-9.47-.19-.57-.17-.92-.13-1.2-.53-.72-1.04-.68-2.23.8-3.19,1.86-1.21,4.2.27,5.93-1.14.31-.25.59-.53.95-.72.7-.36,1.57-.32,2.38-.34,4.05-.12,6.47-1.83,11.72-3.35,1.54-.44,10.51-9.1,11.93-9.8"/>
    <path class="cls-27" d="M589.59,696.26s-18.8,9.14-24.41,9.76-9.8,2.34-9.8,2.34c0,0,8.39-9.78,15.17-13.97,1.43-.88-6.55-49.63-11.53-72.28-3.46-15.74-3.28-28.54-3.28-28.54l26.09-.16,1.52,24.34,5.24,3.29c.82,2.26,1.51,6.66,1.93,9.03,1.12,6.42.6,15.88.68,19.21.14,5.64-1,13.43-1.01,15.42l-2.33,24.66,1.71,6.9Z"/>
    <path class="cls-27" d="M640.44,685.71s-16.96,19.1-22.22,21.17-4.54-1.42-4.54-1.42c0,0,8.57-19.12,8.93-22.15.2-1.67-19.95-41.99-30.71-62.54-7.48-14.27-12.25-26.09-12.25-26.09l25.13-7.02,11,20.8,2.65,3.76c1.39,1.97,3.95,2.46,4.97,4.65,2.77,5.9,5.92,15.8,6.87,19,1.62,5.41,4.27,22.79,4.78,24.71l2.78,18.53,2.6,6.6Z"/>
    <path class="cls-7" d="M644.3,693.28s.82-.22,1.79,2.51c1.3,3.66-10.3,6.93-13.25,8.21-2.96,1.28-11.68,7.46-18.45,9.98-6.78,2.52-15.12.69-16.53-1.25-1.4-1.94-.9-3.2.38-4.26,1.28-1.05,43.22-16.7,43.22-16.7l2.84,1.51Z"/>
    <path class="cls-27" d="M637.59,677.77c.57,2.37,2.44,5.38,4.58,10.05.94,2.06,3.67,4.54,1.94,6.83-3.07,4.06-8.15,4.51-9.8,5.53-3.48,2.14-6.5,3.13-9.74,5.52-3.28,2.42-3.94,2.96-7.89,4.55-.55.22-1.14.4-1.71.31-.38-.06-.72-.24-1.1-.3-1.35-.21-2.53,1.05-3.9,1.32-.6.12-1.22.03-1.82,0-1.6-.07-3.22.26-4.83.45-1.61.18-3.31.19-4.69-.49-1.38-.68-2.33-2.21-1.8-3.64.8-2.16,2.89-1.74,4.68-2.51,1.79-.77,2.39-1.29,3.77-2.57,3.53-3.27,4.04-3.87,7.06-6.52,2.34-2.05,9.12-8.39,12.09-12.28l-3.05-9.14"/>
    <g>
      <path class="cls-47" d="M614.05,709.91c.08,0,.12.03.05-.01.07.04-.09-.05-.08-.04-.08-.05-.14-.11-.2-.19-.15-.17-.24-.37-.29-.6-.1-.44.06-.87.28-1.24.52-.86,1.42-1.51,2.18-2.18.24-.21.12-.52-.16-.6-.35-.1-.76.04-1.02.27-.92.8-2.04,1.61-2.54,2.76-.24.55-.32,1.17-.06,1.73.33.7.92,1.05,1.69,1.02.29-.01.76-.21.81-.54.06-.35-.41-.4-.65-.39h0Z"/>
      <path class="cls-47" d="M609.84,711.43c-.19.06.14,0,.13,0-.02.02-.06-.02-.08-.02-.09-.04-.17-.11-.24-.18-.2-.2-.32-.45-.41-.71-.16-.44-.3-1.01-.2-1.48.17-.82.8-1.43,1.43-1.93.33-.26.65-.53.96-.81.18-.16.35-.31.54-.46.06-.05.12-.09.19-.13-.01,0,.24-.12.14-.08.19-.06.71-.22.64-.5-.06-.27-.66-.16-.81-.11-.91.28-1.55.88-2.25,1.49-.62.54-1.3.98-1.78,1.66-.38.54-.59,1.12-.53,1.78.05.55.21,1.1.52,1.56.44.66,1.19.77,1.91.55.19-.06.71-.22.64-.5s-.66-.16-.81-.11h0Z"/>
      <path class="cls-47" d="M607.01,711.37c-.57-.02-1.01-.8-1.14-1.28-.16-.61,0-1.25.3-1.79.34-.6.81-1.11,1.32-1.57.51-.46,1.08-.92,1.68-1.26.2-.12.43-.38.14-.53s-.76,0-1.02.14c-.74.43-1.46,1-2.09,1.58s-1.18,1.21-1.55,1.98c-.32.67-.42,1.47-.11,2.17.35.79,1.02,1.31,1.89,1.34.31.01.78-.11.96-.39s-.16-.39-.38-.39h0Z"/>
      <path class="cls-47" d="M603.93,711.75c-.76-.08-1.47-.71-1.77-1.39s-.18-1.31.24-1.94,1.05-1.18,1.66-1.67c.25-.2.51-.4.77-.59.17-.13.34-.26.51-.39.09-.07.17-.14.26-.2.03-.02.2-.11.11-.08.23-.07.7-.26.62-.58s-.62-.25-.83-.19c-.59.17-1.02.55-1.5.92-.35.27-.7.52-1.04.79-.75.6-1.51,1.28-2.02,2.1s-.57,1.65-.09,2.5c.53.94,1.47,1.48,2.53,1.59.31.03.79-.12.95-.4.18-.31-.15-.43-.4-.46h0Z"/>
    </g>
    <path class="cls-47" d="M552.92,701.98c-.9.16-1.78.51-2.61.87-.43.19-.85.39-1.25.63-.28.16-.61.36-.78.65l1.25-.34c-1.01-.65-2.26-.69-3.41-.45-.23.05-.7.27-.62.57s.62.22.83.18c.71-.15,1.45.02,2.06.41.33.21,1.06,0,1.25-.34.07-.12-.07.06,0-.01.03-.02.17-.14.04-.04.11-.08.22-.15.34-.21.08-.04.16-.09.24-.13-.1.05.14-.07.17-.08.18-.09.36-.17.54-.25.37-.16.74-.31,1.12-.44.05-.02.05-.02-.01,0,.05-.02.09-.03.14-.04.08-.03.17-.05.25-.08.08-.02.15-.04.23-.06.05-.01.29-.06.04-.01.27-.05.77-.17.82-.5s-.42-.37-.63-.33h0Z"/>
    <path class="cls-7" d="M610.47,697.21c-1.01.34-1.84,1.07-2.31,2.03l-2.84,5.94,1.12-.62,4.92-7.64-.88.3Z"/>
    <path class="cls-7" d="M605.6,705.09s.09-1.08,1.68-1.86c5.03-2.46,16.84-6.21,20.83,1.03l-1.67,1.38s-4.34-5.05-9.4-3.93c-5.06,1.13-11.44,3.37-11.44,3.37Z"/>
    <path class="cls-7" d="M550.58,703.17s5.09-1.83,5.13,5h3.06s-1.21-6.33-4.08-6.52c-2.87-.19-4.11,1.52-4.11,1.52Z"/>
    <path class="cls-27" d="M525.07,471.32l.25.03s34.85-27.7,38.88-32.95c0,0,16.51-21.87,26.76-8.89l-12.86,35.09c-11.13,11.38-40.91,29.62-48.73,29.86-1.76.06-10.53-1.92-12.09-4.92-.87-7.58,6.46-10.7,7.79-18.22Z"/>
    <path class="cls-49" d="M562.56,472.54s-11.55-1.47-23.71-15.02c0,0,13.83-25.28,24.69-29.21,10.86-3.93,12.19-2.93,12.19-2.93,0,0,5.81,21.69-13.17,47.16Z"/>
    <path class="cls-27" d="M488.42,442.06l40.51,27.37c-.74.99-1.48,1.98-2.2,2.99-2.93,4.07-3.89,9.46-6.08,13.97-.6,1.24-1.61,2.75-2.11,4.05-16.41-11.47-41.78-41.5-41.78-41.5l11.66-6.88Z"/>
    <path class="cls-27" d="M458.38,385s28.34,20.54,39.13,23.53l-.38,22.93s-30.59-3.86-44.04-10.51c-12.1-5.98-14.43-6.67-15.84-11.18-1.41-4.51,2.29-15.27,2.29-15.27l18.83-9.51Z"/>
    <polyline class="cls-27" points="463.63 390.66 466.55 356.44 440.08 357.16 436.94 401.09 463.63 390.66"/>
    <path class="cls-1" d="M117.36,287.27s2.99,8.96-7.84,19.41l-10.83,10.45s-5.97-22.77,2.24-29.86c8.21-7.09,16.42,0,16.42,0Z"/>
    <path class="cls-1" d="M447.42,97.28s35.93-2.98,40.43-22.23l4.49-19.26s-45.45-14.12-53.21,15.4l-7.76,29.53"/>
    <path class="cls-1" d="M420.63,73.13s35.93-2.98,40.43-22.23l4.49-19.26s-45.45-14.12-53.21,15.4l-7.76,29.53"/>
    <polygon class="cls-9" points="1185.44 901.61 1135 901.61 1132.27 865.19 1184.13 858.49 1185.44 901.61"/>
    <polygon class="cls-9" points="1234.71 909.67 1184.78 908.79 1183.56 882.2 1236.05 880.03 1234.71 909.67"/>
    <path class="cls-11" d="M1282.11,436.68l4.58,48.57c.55,27.77-13.32,72.19-21.85,98.88l-24.74,100.5s2.03,26.76,7.5,67.27c4.76,35.12-2.85,137.77-2.85,137.77l-13.54,2.31c-12.23,2.08-24.74,2.5-37.1,1.22l-26.54-2.75-25.03-212.8-18.35-127.24-25.15-76.48,183.07-37.25Z"/>
    <path class="cls-11" d="M1078.14,466.71l13.75,222.75c0,9.83,6.16,34.56,11.99,50.88l10.98,82.6,6.77,59.08,3.91,1.2c10.58,1.91,21.4,2.52,32.16,1.81l23.58-.87-26.15-410.52-76.99-6.93Z"/>
    <path class="cls-32" d="M1053.77,396.38l-.2-.75c.15-.04-.62-.07-.47-.11l-30.7-114.02,5.87-39.39s7.53-16.8,8.13-19.49l27.38-30.96s4.79,5.13,12.83,16.52c3.44,4.88,4.28,23.66,10.83,22.75,0,0,0-16.37,13.32-32.31,0,0,37.04-29.96,36.88-37.3,14.79,1.63,60.49,11.08,72.5,18.79,14.12,9.02-11.25,50.8-21.61,73.67l21.22-2.32s25.75,24.06,38.59,62.18c.5,1.36,7.07,31.81,7.57,33.35,1.56,4.54,8.41,20.4,9.6,23.46-.29.07,4.52,7.09,10.44,33.04,7.02,27.83,8.02,26.38,9.41,39.12,1.75,16.02-112.51,50.19-153.35,49.52-37.43-.61-57.61,12.8-64.22-61.87h0c-4.95-25.05-6.48,0-14-33.91Z"/>
    <path d="M1118.94,533.03c18.2,12.49,18.76,36.82,18.77,56.64,0,9.8.02,19.61.03,29.41.01,14.11.02,28.22.04,42.32,0,9.24-.17,18.51.22,27.74.42,9.8,1.66,19.47,3.07,29.16,1.38,9.51,2.76,19.01,4.15,28.52,1.97,13.55,3.94,27.11,5.91,40.66,2.09,14.35,4.17,28.7,6.26,43.06,1.73,11.9,3.46,23.8,5.19,35.71.9,6.2,1.8,12.4,2.7,18.61.04.28.08.56.12.84.1.71,2.47.18,2.35-.63-.64-4.37-1.27-8.75-1.91-13.12-1.58-10.84-3.15-21.69-4.73-32.53-2.04-14.06-4.09-28.13-6.13-42.19-2.04-14.04-4.08-28.07-6.12-42.11-1.57-10.81-3.14-21.61-4.71-32.42-.68-4.68-1.4-9.35-2.03-14.04-1.78-13.37-1.97-26.75-1.98-40.2-.01-13.34-.02-26.68-.03-40.01-.01-11.91-.02-23.81-.03-35.72-.01-16.4.58-33.93-8-48.55-2.78-4.73-6.4-8.91-10.94-12.03-.64-.44-2.76.5-2.19.89h0Z"/>
    <path class="cls-42" d="M1128.39,122.66c.01.07.02.13.03.2,0-.09,0-.16-.03-.2Z"/>
    <path class="cls-32" d="M1103.75,203.34l16.71,10.61,6.16-5.83c16.31-15.22,28.25-45.48,28.25-45.48l-20.57-11.51c-3.76,11.05-35.78,45.99-35.78,45.99l-14.29,31.29-8.2-27.64c-4.75-5.93-6.52-13.56-6.89-17.67-.25,0-1.39.02-1.65,0-1.04-.07-1.35.03-2.39,0l-13.76,12.66c3.54,21.04,9.42,22.8,9.42,22.8l11.51-9.55c3.47,7.26,7.37,14.43,10.5,21.84.95,2.25,1.73,4.61,2.4,7.03l-.78-4.25c.51-1.09,19.36-30.29,19.36-30.29Z"/>
    <path class="cls-40" d="M1051.01,200.17c.85,5,1.87,10.15,4,14.79.83,1.8,1.89,3.82,3.62,4.91.63.4,1.39.65,2.14.54.81-.12,1.42-.78,2.02-1.28,1.18-.98,2.36-1.95,3.53-2.93,2.3-1.91,4.6-3.82,6.9-5.72l-1.81.11c3.49,7.28,7.34,14.4,10.5,21.84.29.69,2.28.08,2.02-.54-3.16-7.44-7.01-14.55-10.5-21.84-.3-.62-1.44-.2-1.81.11-3.84,3.18-7.67,6.37-11.51,9.55l.95-.39c.15-.03.03-.08,0-.01.03-.08.21.07-.1-.03.11.04-.11-.03-.25-.1-.86-.42-1.53-1.18-2.1-1.95-1.26-1.73-2.08-3.78-2.77-5.78-1.32-3.83-2.14-7.81-2.82-11.8-.11-.67-2.14-.19-2.02.54h0Z"/>
    <path class="cls-40" d="M1084.74,234.07c.58-1.18,1.47-2.26,2.2-3.34,1.61-2.37,3.23-4.73,4.85-7.09,3.52-5.12,7.05-10.23,10.59-15.33.83-1.19,1.65-2.39,2.48-3.58-.58.16-1.16.31-1.74.47,5.57,3.54,11.14,7.07,16.71,10.61.51.32,1.22.09,1.62-.29,2.05-1.94,4.1-3.88,6.16-5.83,4.13-3.91,7.68-8.36,10.9-13.03,5.81-8.42,10.61-17.55,14.77-26.88.89-1.99,1.76-4,2.55-6.03.41-1.05-1.61-1-1.92-.2-2.14,5.54-4.72,10.94-7.44,16.22-5.16,10.01-11.14,20-19.14,28.02-2.45,2.46-5.04,4.8-7.56,7.18l1.62-.29c-5.57-3.54-11.14-7.07-16.71-10.61-.58-.37-1.38-.05-1.74.47-5.82,8.38-11.64,16.76-17.38,25.2-.91,1.34-2.03,2.69-2.74,4.14-.49,1,1.54.96,1.92.2h0Z"/>
    <path class="cls-27" d="M1040.13,336.24c2.61-20.5,1.91-110.48,1.91-110.48l-23.76.32-18.03,64.8s-5.07,21.24-12.52,47.76c0,0-8.87,37.14,21.49,43.53,25.35,5.33,27.56-19.57,30.91-45.93Z"/>
    <path class="cls-27" d="M1042.35,167.41c1.68,4.75-2.2,18.08-2.2,18.08,0,0,9.87,23.49,9.89,36.53,0,1.64-5.74,8.3-6.41,13.02-2.04,14.39-4.36,16.26-4.36,16.26l-23.91-2.94,2.52-14.95-11.31-30.74-7.54-30.22,12.41-23.66c.18.04.35.09.52.16,1.54.63,2.27,2.4,1.64,3.94l5.1-8.37c6.3,2.09,2.37,14.69,2.37,14.69l5.76-11.39c5.8,2.9,3.07,11.86,3.07,11.86l-4.42,16.07s2.41,9.39,4.07,12.23,3.15,5.93,3.15,5.93l-1.11-10.9,6.23-21.57s2.87,1.22,4.55,5.97Z"/>
    <path class="cls-29" d="M1017.64,189.58c-.98-3.17-2.37-8.88-3.7-13.74l-.37-1.34-.07-.2.09-.21c1.9-4.32,3.67-8.18,5.01-10.88,1.33-2.7,2.2-4.38,2.35-4.3"/>
    <path class="cls-29" d="M1009.35,186.35c-.16.04-.79-1.73-1.7-4.62-.91-2.89-2.11-6.94-3.39-11.49l-.08-.23.12-.22.68-1.34c2.32-4.51,4.48-8.56,6.1-11.47,1.62-2.91,2.7-4.66,2.85-4.58"/>
    <path class="cls-27" d="M1258.72,284.09l-48.98-94.08c-.69,1.69-1.43,3.37-2.2,5.02-2,4.34-3.79,7.85-5.29,11.44-.79,1.9-1.54,3.82-2.15,5.79-.18.58-1.24,5.45-.99,3.69-.99,7.26-6.04,13.3-13.88,13.16,9.49,47.95,25.94,120.46,25.94,120.46,0,0-85.24,56.72-98.79,72.67l12.1,21.21c8.64-6,94.67-30.23,94.67-30.23,0,0,45.86-18.52,50.46-47.1,2.58-16.06-10.87-82.02-10.87-82.02Z"/>
    <path class="cls-8" d="M898.79,430.9l12.02,19.01,84.4,35.5,30.37,43.69-119.97-67.47-22.74,2.74s-4.39-22.25,15.91-33.47Z"/>
    <g>
      <path class="cls-37" d="M1030.82,399.17c.41.6-.28-.67,0,0h0Z"/>
      <path class="cls-8" d="M1082.24,515.65c.64-1.26-.81-3.02-2.4-6.78l-5.43-12.15c17.06-14.46,16.4-66.44,9.3-82.18-2.32-5.15-5.76-8.58-10.19-10.2-9.39-3.42-21,2.15-32.23,7.55-1.32.63-2.64,1.26-3.95,1.88l-6.52-14.6-4.1,2.82c-2.73-4.04-2.9,3.73-7.56,5.15l-23.65,14.64c-5.44,1.66-39.51-.59-38.87,1.56l22.71,116.43c1.18,6.05,1.54,10.21,6.73,9.14,8.74.92,35.5,2.77,57.85-5.65,26.19-9.87,37.52-26.42,38.27-27.55,0-.02.02-.03.03-.05,0,0,.01-.02.01-.02,0,0,0,0,0,0ZM1041.03,422.01c1.39-.65,2.78-1.32,4.18-1.99,9.54-4.58,19.41-9.32,25.22-7.2,2.09.76,3.75,2.54,5.06,5.43,6.56,14.55,5.09,57.03-5,69.68l-29.46-65.92Z"/>
    </g>
    <path class="cls-46" d="M956.65,423.34s25.42,3.85,45.84-3.66c20.42-7.51,28.78-20.47,28.78-20.47,0,0-22.97-2.04-40.47,3.3-17.5,5.34-29.33,15.85-34.15,20.84Z"/>
    <path class="cls-27" d="M1122.75,416.12s-13.61,3.38-15.48,3.01c-1.87-.37-25.04-8.87-26.95-8.44-1.92.43-18.32,6.02-18.32,6.02l-2.66,9.24s-6.6,7.7-6.21,10.68c.4,2.98,4.33,4.28,6.24,3.83,1.34-.22,2.72-.09,4.01.36-.69,1.68-.69,3.56-.02,5.24,1.23,1.93,6.11,1.4,6.11,1.4.18,1.9.72,3.76,1.57,5.47,1.25,1.94,4.47,1.58,4.47,1.58,0,0-.58,5.86.7,7.31,1.28,1.45,14.56-.13,18.72-3.4,3.02.72,6.19-1.75,8.94-3.19,4.43-2.45,29.63-15.56,29.63-15.56l-6.37-16.76"/>
    <path class="cls-32" d="M1192.73,326.07l-13.89-58.63.53-94.74s45.83-1.52,63.89,34.25c7.93,16.03,19.54,73.72,26.65,106.15-45.13,15.1-57.05,14.74-77.19,12.98Z"/>
    <path class="cls-40" d="M1195.75,193.96c-4.42,1.11-8,4.25-10.79,7.73-3.01,3.76-5.35,8.08-6.93,12.63-2.4,6.92-2.29,14.59-1.96,21.81.43,9.57,1.69,19.11,3.2,28.57,1.67,10.42,3.71,20.77,5.96,31.08,2.28,10.44,4.78,20.83,7.5,31.16.07.27.4.34.63.37,2.86.31,5.74.44,8.62.36,1.07-.03,1.62-1.31.23-1.27-2.7.07-5.42-.08-8.11-.37l.63.37c-4.93-18.77-9.26-37.72-12.56-56.84-1.63-9.43-3.02-18.92-3.76-28.46-.57-7.36-.95-15,.39-22.3.89-4.87,2.99-9.53,5.67-13.68,2.72-4.21,6.52-8.71,11.59-9.98,1.23-.31.92-1.48-.31-1.17h0Z"/>
    <path class="cls-47" d="M1211.91,349.61c8.57-2.1,17.85,0,24.78,5.44.37.29,1.67-.26,1.32-.54-7.38-5.78-17.19-7.77-26.27-5.54-.85.21-.68.85.17.64h0Z"/>
    <path class="cls-46" d="M882.61,464.4s15.55-16.78,15.97-34.12c.42-17.34,0,0,0,0,0,0-20.62,11.1-15.97,34.12"/>
    <path class="cls-7" d="M461.52,702.87s1.48,1.67.47,4.44c-1.01,2.77-18.72-.79-24.93-.34-6.21.45-35.04,2.21-41.04.6-6-1.61-.03-8.36-.03-8.36l65.52,3.66Z"/>
    <path class="cls-27" d="M395.21,686.92c-.8,3.11-1.1,4.85-1.93,7.82-.96,3.42.52,6.09,4.4,7.7,3.26,1.35,7.68,2.12,11.27,2.08,4.7-.05,9.73-.68,14.42-.74,4.03-.05,20.43-.52,24.35.31,6.1,1.29,9.91.58,12.66-.25.76-.23,1.23-.17,1.6-.71.96-1.39.91-2.97-1.07-4.26-2.49-1.62-5.62.36-7.92-1.52-.41-.34-.79-.71-1.27-.96-.94-.49-2.09-.43-3.18-.46-5.41-.16-8.65-2.45-15.67-4.47-2.06-.59-14.05-12.17-15.95-13.1"/>
    <path class="cls-27" d="M394.89,688.17s25.13,12.22,32.63,13.05,13.1,3.13,13.1,3.13c0,0-11.21-13.07-20.28-18.68-1.91-1.18,8.75-66.34,15.41-96.63,4.62-21.04,4.38-38.15,4.38-38.15l-34.88-.22-2.04,32.53-7,4.4c-1.1,3.02-2.02,8.9-2.58,12.07-1.5,8.59-.81,21.23-.92,25.69-.19,7.54,1.34,17.96,1.35,20.62l3.11,32.97-2.28,9.23Z"/>
    <path class="cls-27" d="M330.21,676.47s24.39,23.9,31.58,26.19c7.2,2.28,5.93-2.32,5.93-2.32,0,0-13.19-24.7-13.96-28.72-.42-2.2,22.73-57.84,35.19-86.24,8.65-19.73,13.93-35.93,13.93-35.93l-34.17-7.04-12.76,28.76-3.19,5.26c-1.67,2.75-5.04,3.65-6.2,6.66-3.15,8.13-6.43,21.62-7.41,25.97-1.66,7.36-3.59,30.79-4.1,33.4l-2,24.97-2.86,9.04Z"/>
    <path class="cls-7" d="M325.77,686.92s-1.12-.22-2.16,3.51c-1.39,5,14.37,8.3,18.43,9.72,4.06,1.43,16.26,8.87,25.53,11.61,9.27,2.74,20.24-.48,21.93-3.19,1.69-2.71.9-4.35-.9-5.64s-59.19-18.29-59.19-18.29l-3.65,2.28Z"/>
    <path class="cls-27" d="M333.28,665.61c-.54,3.21-2.76,7.4-5.18,13.83-1.06,2.83-4.48,6.39-1.96,9.29,4.46,5.13,11.29,5.26,13.59,6.47,4.84,2.54,8.96,3.57,13.5,6.46,4.6,2.93,5.53,3.59,10.95,5.35.75.24,1.56.42,2.31.25.5-.12.94-.39,1.44-.5,1.78-.41,3.48,1.17,5.33,1.4.82.1,1.62-.07,2.43-.17,2.13-.24,4.32.06,6.48.15,2.16.09,4.43-.05,6.21-1.08,1.78-1.03,2.9-3.17,2.07-5.02-1.26-2.8-4.01-2.05-6.48-2.92-2.46-.86-3.3-1.5-5.26-3.09-5.01-4.04-5.75-4.79-10.02-8.04-3.31-2.52-12.93-10.35-17.25-15.26l3.22-12.47"/>
    <g>
      <path class="cls-47" d="M367.51,707.31c1.03-.03,1.91-.58,2.32-1.54.3-.7.2-1.48-.14-2.14-.77-1.47-2.28-2.4-3.56-3.38-.26-.2-.67-.13-.96,0-.13.05-.65.37-.39.57,1.1.84,2.31,1.62,3.16,2.74.36.48.66,1.09.62,1.72-.02.29-.11.6-.25.85-.07.13-.16.24-.26.35-.12.12-.09.05.04.05-.32,0-.77.1-.96.39s.15.42.39.41h0Z"/>
      <path class="cls-47" d="M372.71,708.63c.8.19,1.85-.09,2.43-.68.5-.51.71-1.23.82-1.91.12-.73.09-1.41-.25-2.07-.5-.97-1.38-1.67-2.27-2.26-1.03-.68-1.93-1.68-3.16-1.97-.31-.07-.73.06-1.01.19-.12.06-.5.27-.18.35,1.16.27,2.08,1.31,3.05,1.95s1.86,1.38,2.29,2.47c.26.65.19,1.43.03,2.1-.09.37-.22.75-.43,1.07-.07.11-.29.27-.33.37.05-.15.67-.04.23-.14-.31-.07-.73.06-1.01.19-.12.06-.5.28-.18.35h0Z"/>
      <path class="cls-47" d="M377.26,708.38c1.17-.12,2.21-.69,2.74-1.77.45-.93.38-1.97-.08-2.89s-1.25-1.75-2.07-2.42c-.87-.72-1.87-1.41-2.88-1.91-.27-.13-.67,0-.93.09-.06.02-.65.29-.44.4.85.42,1.69.99,2.44,1.56.75.57,1.46,1.21,2.01,1.98.48.68.83,1.48.81,2.32-.01.43-.14.85-.35,1.23-.11.21-.25.42-.42.59-.08.08-.17.14-.25.22s-.19.05.04.03c-.28.03-.79.1-.97.34s.16.24.34.22h0Z"/>
      <path class="cls-47" d="M381.86,708.88c1.38-.24,2.62-1.2,3.22-2.46.56-1.16.44-2.31-.29-3.36s-1.8-1.88-2.84-2.61c-.46-.32-.93-.62-1.4-.92-.59-.39-1.14-.84-1.85-.99s-1.45.89-.49,1.09c.47.1.93.57,1.33.82s.81.52,1.2.79c.88.61,1.76,1.27,2.44,2.09.62.75.99,1.57.66,2.53-.36,1.02-1.19,1.79-2.26,1.97-.31.05-.67.38-.59.71.09.38.57.37.86.32h0Z"/>
    </g>
    <path class="cls-47" d="M443.6,696.78c.96.18,1.9.57,2.8.96.49.21.97.44,1.43.7.25.14.57.3.72.56.18.32.93.07,1.12-.06.83-.53,1.81-.59,2.76-.39.33.07.78-.03,1.02-.27.21-.21.17-.47-.14-.53-1.54-.32-3.21-.11-4.54.75l1.12-.06c-.17-.29-.55-.5-.84-.66-.48-.28-.99-.52-1.51-.75-.98-.43-2.01-.86-3.06-1.05-.34-.06-.77.03-1.02.27-.21.21-.18.47.14.53h0Z"/>
    <path class="cls-7" d="M371.24,689.04c1.38.36,2.55,1.26,3.27,2.49l4.34,7.66-1.55-.73-7.26-9.74,1.2.32Z"/>
    <path class="cls-7" d="M378.46,699.09s-.21-1.43-2.42-2.33c-6.93-2.82-23.03-6.72-27.69,3.29l2.36,1.69s5.32-7.14,12.17-6.1c6.85,1.03,15.57,3.44,15.57,3.44Z"/>
    <path class="cls-7" d="M447.04,697.42s-6.81-2.44-6.86,6.68h-4.09s1.62-8.46,5.46-8.72c3.84-.26,5.49,2.03,5.49,2.03Z"/>
    <path class="cls-2" d="M339.03,591.34c-.02,1.42,22.21,4.74,23.88,4.88,11.56.96,27.64-.39,38.55-3.89l1.13-9.35,1.79-93.84,6.64-47.74-77.61-2.28-1.79,15.83c-1.51,13.28-1.43,26.75.22,40l6.85,47.28s.47,42.51.34,49.12Z"/>
    <path class="cls-2" d="M420.22,585.19c7.1-.62,16.3-1.89,21.44-6.97l2.2-126.53-39.32-12.57-9.08,146.14c7.88.08,16.87.61,24.76-.07Z"/>
    <path class="cls-30" d="M401.77,584.54l2.49-89.06s5.19-13.91,8.89-14.19"/>
    <path class="cls-27" d="M458.96,261.6c1.54-4.21,2.62-9.03,2.69-11.79.55-1.99,1.17-4.3,1.91-7.09.21-.81.4-1.59.57-2.37.05-.41.14-.81.26-1.2,2.87-13.79.1-22.04.1-22.04-3.57-10.46-12.42-18.22-23.24-20.38-12.68-2.8-25.92,2.1-33.73,8.38-3.88,3.1-6.47,7.53-7.29,12.43-.71,4.19-.87,9.04-.85,13.78-4.36-1.27-9.06-.74-9.43,7.77-.51,11.74,5.88,16.97,10.02,14.72.75.33,1.48,4.1,1.1,6.48-.74,4.56-2.84,12.47-6,15.85l-.19,1.3c5.79,17.64,16.17,35.38,52.34,23.35l-15.16-14.08,1.14-5.05c1.24.21,2.54.12,3.81.18,5.22.25,9.44-2.35,13.04-5.83,3.04-2.95,6.86-9.79,8.61-13.69.11-.24.21-.48.3-.73Z"/>
    <path class="cls-50" d="M366.39,337.02c-4.72,12.23-14.26,16.74-14.99,18.3-.31.65-10.37,59.66-20.57,85.74,6.23,3.4,11.72,5.82,18.41,8.27,9.73,3.56,22.9,9.92,33.1,11.53,9.19,1.45,27.34,5.61,36.6,6.46,10.59.98,13.26-.8,24.18-3.38,1.4-22.29,10.74-71.99,12.2-82.27.28-1.81,2.17-11.22,2.17-11.22,0,0,3.72,2.42,11.66-1.28-2.23-13.58,5.62-53.61-13.35-69.44-2.68-2.24-19.12-10.98-23.62-13.98.8,2.13.99,5.95.42,7.27-1.66,3.8-2.03,4.17-5.56,5.49-3.11,1.16-10.65-1.53-13.73-2.94-15.81-7.19-16.37-13.84-18.82-20.92-7.91,2.66-13.28,4.42-20.73,6.14-27.81,6.45-28.8,45.96-28.8,45.96,4.02,3.61,21.42,10.28,21.42,10.28Z"/>
    <path class="cls-22" d="M433.13,281.68s-12.25-1.95-21.33-11.7c0,0,.43,3.93,7.46,8.52,7.03,4.59,13.39,5.13,13.39,5.13l.47-1.95Z"/>
    <ellipse cx="458.25" cy="245.11" rx="2.77" ry="2.76" transform="translate(30.03 539.56) rotate(-62.65)"/>
    <path d="M461.97,243.64c-1.08-1.12-2.71-2.09-5.36-2.49-4.25-.65-7.41,4.1-7.41,4.1,0,0,3.18-3.44,7.39-2.9,2.03.26,4.99,2.21,6.31,3.34.06-.41-.29-1.33-.93-2.05Z"/>
    <path class="cls-47" d="M393.63,240.28c-.1-1.1,0-2.24.46-3.26.12-.25.26-.5.43-.72.05-.07.12-.14.17-.21.05-.08-.09.09-.01.01l-1.02.27c.1.01-.13-.07-.04-.01.07.05.17.08.24.12.08.05-.06-.04.02.01.03.02.06.04.09.07.07.06.14.11.21.17.19.17.35.36.51.56,1.36,1.71,2.07,3.96,2.68,6.02l1.4-.47c-.42-.49-1.01-.88-1.67-.87-.91,0-1.61.57-1.9,1.41-.61,1.76.78,3.14,2.32,3.69.32.12.73.03,1.02-.14.16-.1.47-.42.13-.54-1.15-.41-2.27-1.27-2.16-2.62.02-.22.07-.45.15-.66.04-.09.25-.36.24-.43-.37.02-.47.05-.29.1.06.03.13.06.19.09.11.06.21.15.31.23.11.09.21.19.3.3.26.3,1.54,0,1.4-.47-.48-1.61-1.03-3.23-1.84-4.71-.39-.73-.84-1.47-1.46-2.03-.26-.24-.57-.48-.93-.55-.68-.14-1.16.28-1.51.79-.85,1.24-1.03,2.79-.9,4.26.04.44,1.5.14,1.45-.39h0Z"/>
    <ellipse cx="429.29" cy="238.52" rx="2.77" ry="2.76" transform="translate(20.22 510.27) rotate(-62.65)"/>
    <path d="M436.38,242.13s-2.71-6.43-7.37-7.18c-6.56-1.05-8.34,1.34-10.09,3.1,0,0,4.9-2.92,9.96-1.98,4.58.85,7.5,6.05,7.5,6.05Z"/>
    <path d="M440.47,234.23c.06-.08-.24-.29-.17-.37-4.05-4.3-7.62-6.85-9.1-7.52-1.13-.51-2.36-.81-3.63-.94,0,0-3.48-.4-4.15-.07-.68.32,1.74.79,1.74.79.48.16.85.21,1.3.43,2.49,1.2,5.07,2.04,7.15,3.86,1.79,1.55,3.69,4.4,5.09,6.35.66-.83,1.05-1.75,1.78-2.52Z"/>
    <path d="M465.08,236.5c-.8-.37-1.56-.68-1.56-.68-1.06-.44-2.15-.71-3.23-.75-1.42-.05-5.16.67-9.88,2.75.02.1-.29.16-.27.26.31,1.01.32,2,.56,3.03,1.79-1.13,4.29-2.85,6.26-3.45,2.29-.72,4.65-.34,7.06-.32.37,0,.66.08,1,.15.02-.33.04-.66.06-.98Z"/>
    <path class="cls-15" d="M463.51,329.06c-.35,3.83-1.02,7.65-1.65,11.44-.6,3.63-1.24,7.26-1.9,10.88-.4,2.2-.95,4.36-1.4,6.55-.64,3.16-1.2,6.34-1.55,9.54-.09.86-.16,1.72-.2,2.59-.01.31-.16.88.06,1.11.11.11.32.17.46.23,1.13.45,2.45.46,3.64.37,2.86-.21,5.65-1.15,8.3-2.22.08-.03.19-.12.19-.22.1-1.39.19-2.77.29-4.16.02-.28-.42-.23-.56-.12-1.75,1.42-4.31,2.01-6.49,2.18-1.61.13-3.27.08-4.88.02-.1,0-.23-.03-.32-.02-.03,0-.07-.02-.1,0,.12-.04-.13.39-.1.43,0,0-.09,0,.02,0,.37-.03.52-.51.06-.47-.19.02-.59.12-.48.38.13.29,1.16.17,1.36.17,3.28.05,6.53.05,9.57-1.35.62-.29,1.27-.62,1.8-1.05l-.56-.12c-.1,1.39-.19,2.77-.29,4.16l.19-.22c-2.44.98-5.01,1.85-7.64,2.1-1.13.11-2.35.13-3.43-.24-.14-.05-.41-.1-.49-.22-.05-.07.05-.42.06-.57.03-.86.1-1.73.19-2.59.33-3.15.88-6.29,1.5-9.4.44-2.21,1.01-4.39,1.41-6.6.61-3.36,1.21-6.72,1.77-10.08.7-4.17,1.45-8.36,1.84-12.57.03-.33-.65-.23-.68.06h0Z"/>
    <g>
      <path d="M465.23,219.29c.07-13.61-7.85-20.72-20.35-24.96-10.78-3.66-21.22-7.35-32.95-2.39-1.94.84-8.23,3.37-11.09,6.33-9.91,10.28-9.67,23.13-8.93,33.57.22-.04.43-.08.65-.12,1.24-.06,2.41.19,3.52.76.81.31,1.53.89,2.21,1.41.68.52,1.25,1.27,1.73,1.94,1.04,1.46,1.4,3.11,1.63,4.85,0,.07-.01.14,0,.22.99.62,0,1.04,1.18.57,1.09-.43,1.91-3.46,2.36-4.5.92-2.12,1.08-4.43,1.53-6.67.07-1.27.11-2.54.09-3.81-.06-5.34,2.65-7.81,4.8-11.95,0,0,3.7-5.96,12.01-8.1,9.1-2.34,11.14,3.93,21.3,6.11,8.78,1.84,11.15-3.31,16.46,1.81,0,0,1.87,1.06,2.42,2.15.55,1.09,1.45,2.79,1.45,2.79Z"/>
      <path d="M465.55,219.2c0-3.54-.51-7.1-1.91-10.37-1.23-2.87-3.1-5.42-5.42-7.51-2.48-2.24-5.4-3.95-8.43-5.32-3.93-1.76-8.11-3.07-12.23-4.3-4.38-1.31-8.9-2.31-13.49-2.34-4.5-.02-8.8.98-12.92,2.74-3.12,1.33-6.29,2.74-9.01,4.78-1.61,1.21-2.94,2.77-4.14,4.37-1.26,1.68-2.35,3.49-3.25,5.38-3.35,7.07-3.74,14.98-3.32,22.67.05.87.11,1.74.17,2.62,0,.09.21.09.27.08,2.48-.46,5.1.83,6.8,2.62.8.85,1.49,1.85,1.92,2.94.2.51.35,1.03.46,1.56.06.27.11.54.16.81.04.23.02.86.11,1.02.08.13.25.2.35.33.09.12.09.25.16.36.1.15.12.19.34.18.55-.02,1.15-.4,1.49-.82.94-1.15,1.27-2.74,1.82-4.09.48-1.17.78-2.38,1-3.63.22-1.24.51-2.5.57-3.76.11-2.38-.11-4.76.6-7.07.58-1.89,1.63-3.56,2.66-5.23.61-.98,1.1-2.05,1.76-2.99,1.38-1.96,3.25-3.61,5.24-4.9,3.26-2.12,7.48-3.72,11.42-3.16,3.11.44,5.73,2.28,8.44,3.72,3.55,1.87,7.52,3.24,11.58,3.22,1.56,0,3.1-.26,4.62-.56,1.23-.24,2.5-.52,3.75-.33.68.1,1.32.34,1.92.68.77.43,1.34,1.05,2.04,1.57.46.35.97.61,1.41.99.74.63,1.11,1.39,1.55,2.24.29.55.58,1.11.87,1.66.11.2.71,0,.63-.17-.69-1.3-1.23-2.88-2.34-3.87-.49-.43-1.05-.73-1.56-1.12-.63-.48-1.17-1.05-1.86-1.46-2.41-1.46-4.93-.73-7.51-.28-4.14.72-8.23,0-12.08-1.65-3.05-1.3-5.76-3.37-8.91-4.43-3.47-1.17-7.13-.53-10.47.79-3.03,1.2-5.81,3.08-8.02,5.48-1.51,1.64-2.46,3.59-3.62,5.48-1,1.63-1.92,3.32-2.36,5.2-.58,2.46-.05,4.99-.51,7.45-.24,1.27-.4,2.56-.69,3.83-.24,1.04-.63,2-.99,3-.28.77-.54,1.55-.89,2.3-.18.38-.38.77-.65,1.1-.12.14-.23.25-.39.34-.06.03-.29.14-.35.13.07,0,.17.05.11-.06-.14-.28-.41-.54-.5-.83-.17-.55-.17-1.18-.3-1.74-.25-1.09-.65-2.13-1.29-3.06-1.26-1.84-3.08-3.3-5.24-3.95-1.05-.32-2.1-.37-3.18-.17l.27.08c-.52-7.36-.62-14.9,1.83-21.96,1.37-3.97,3.53-7.62,6.34-10.73,2.48-2.75,5.85-4.44,9.19-5.94,3.69-1.65,7.43-2.98,11.49-3.32,4.63-.39,9.26.36,13.73,1.55,2.25.6,4.46,1.31,6.67,2.05,1.97.66,3.94,1.3,5.87,2.07,3.12,1.24,6.15,2.79,8.82,4.85,2.45,1.89,4.55,4.23,6.02,6.96,1.55,2.88,2.37,6.09,2.64,9.34.07.92.1,1.84.1,2.76,0,.17.63.06.63-.17Z"/>
    </g>
    <g>
      <path class="cls-13" d="M442.03,258.61c-1.01.29-2.38-.12-3.18-.88-.18-.17-.88-.19-.63.05,1.05,1.01,3.03,1.5,4.34,1.13.13-.04.13-.13,0-.21-.14-.08-.38-.12-.52-.08"/>
      <path class="cls-13" d="M437.88,257.43c-.55-.42-1.21-.72-1.88-.91-.1-.03-.24-.02-.32.03-.07.04-.1.11-.03.17.28.25.66.41,1.04.48.12.02.28.03.36-.06.08-.08-.02-.16-.11-.18-.31-.06-.61-.19-.84-.39-.12.07-.24.13-.36.2.6.18,1.19.45,1.68.82.1.07.26.07.37.04.08-.03.18-.11.08-.19"/>
      <path class="cls-13" d="M435.14,256.94c-.8-.19-1.67-.74-1.93-1.43-.4-1.04.48-2.46,1.61-2.83.12-.04.08-.14-.02-.18-.14-.06-.32-.04-.45,0-.98.33-1.82,1.48-1.87,2.37-.05.83.6,1.55,1.51,1.98.27.13.57.24.86.31.12.03.35.04.43-.04.08-.08-.02-.15-.13-.18"/>
      <path class="cls-13" d="M443.59,258.51c-.02-.1.07-.15.13-.13.22.05.45.04.67-.07.05.1.1.2.16.31-.44-.04-.91,0-1.35.19-.09.04-.19-.02-.25-.09-.04-.05-.08-.17.01-.2"/>
      <path class="cls-13" d="M442.96,258.5c.5-.2,1.01-.25,1.51-.2.07,0,.16.06.19.14.03.06.02.13-.04.16"/>
      <path class="cls-13" d="M445.23,258.97c.53.09,1.21-.13,1.6-.68.58-.83.45-1.99-.08-2.71-.06-.08,0-.15.07-.16.1-.01.2.07.26.15.46.63.65,1.53.38,2.37-.25.78-.87,1.24-1.54,1.34-.2.03-.41.03-.6,0-.08-.01-.21-.08-.23-.18-.02-.1.06-.13.14-.12"/>
    </g>
    <circle class="cls-39" cx="491" cy="424.71" r="39.98"/>
    <path class="cls-43" d="M479.81,463.05c3.59,1.06,7.4,1.64,11.33,1.64,3.13,0,6.17-.37,9.09-1.05,13.54-38.56,10.56-53.38,2.88-77.08-3.78-1.18-7.8-1.83-11.97-1.83-3.5,0-6.88.45-10.12,1.29,13.5,37.4,1.78,65.65-1.22,77.03Z"/>
    <path class="cls-27" d="M362.75,408.31c3.92-4.9-2.96-11.05,2.85-12.96,3.13-1.03-.04-5.62,3.51-5.27l5.98-62.74-31.34-3.76s-12.82,59.51-6.31,80.32c.52,1.66,2.46,8.12,15.07,12.11.81-1.89,8.95-6.09,10.24-7.69Z"/>
    <path class="cls-27" d="M368.84,387.63c-1.82-.4-8.69,2.66-10.5,3.34-2.63.99-2.03,4.64-4.32,6.27-2.22,1.58,5.53,3.26,3.61,5.2-3.49,3.52-16.28,1.57-16.72,6.25,1.83,5.88,24.15,14.05,35.06,16.97,15.4,4.12,56.85,13.09,56.85,13.09l8-15.11-71.98-36.02Z"/>
    <path class="cls-27" d="M422.19,415.97c2.12.65,16.82,6.86,19.01,7.18,1.1-.11,7.82-5,10.78-4.75,2.96.25,10.6,1.19,11.93.38,1.33-.81,2.18,2.59.72,4.15-2.01,1.81-4.82,2.81-7.82,2.8-3.19.01-1.66,2.95-1.66,2.95l3.01.34,8.65-.11s5.56-2.76,8.03-2.21c.86.56,1.53,1.31,1.92,2.17.28,1.1-3.78,5.31-3.78,5.31,0,0,5.18,1.51,4.19,3.67-.92,1.53-2.31,2.79-4.02,3.67,0,0,1.17,2.82-.09,3.45s-11.12,3.9-13.82,4.05c-2.71.15-14.73-1.79-14.73-1.79l-22.29-14.57-4.55-10.38,4.54-6.32Z"/>
    <path class="cls-47" d="M472.39,434.17c-.14.52-1.3,1.11-1.69,1.34-.82.5-1.69.88-2.59,1.19-1.7.57-3.48.88-5.28.96-3.55.16-7.13-.59-10.48-1.74-.29-.1-.67,0-.95.1-.05.02-.67.32-.45.39,4.12,1.41,8.51,2.2,12.87,1.67,2-.25,3.96-.73,5.84-1.48.87-.35,1.71-.77,2.49-1.29.46-.3,1.55-.86,1.7-1.43.07-.27-1.36-.09-1.46.27h0Z"/>
    <path class="cls-47" d="M472.47,441.25c-1.18.94-2.82,1.45-4.24,1.89-1.6.5-3.24.86-4.9,1.09-3.3.45-6.62.35-9.9-.17-.66-.1-1.53.81-.54.97,3.64.58,7.36.64,11,.06,1.73-.27,3.43-.67,5.09-1.22,1.5-.5,3.19-1.05,4.45-2.05.79-.63-.43-.98-.95-.57h0Z"/>
    <path class="cls-50" d="M389.54,277.29s-39.6,5.53-45.57,27.4c-7.74,28.36-9.08,51.74-9.08,51.74,0,0,25.18,10.23,46.78,3.91,13.32-3.9,7.75-81.24,7.75-81.24"/>
    <path class="cls-15" d="M373.96,298.77c1.61.57,3.09,1.78,4.28,2.97,3.2,3.23,4.83,7.67,5.37,12.12.59,4.92.19,9.99-.2,14.9-.45,5.65-1.12,11.28-1.87,16.89-.67,5.02-1.4,10.04-2.25,15.03l.22-.15c-.15.05,0,0-.13.04-.21.06-.42.12-.63.18-.78.2-1.56.37-2.35.52-3,.57-6.07.85-9.12.93-4.69.12-9.38-.24-14-.98-2.86-.46-5.69-1.07-8.49-1.81-1.6-.42-3.19-.89-4.77-1.4-.76-.24-1.51-.5-2.26-.76-.38-.13-.77-.27-1.15-.41-.23-.08-.46-.17-.69-.26-.06-.02-.65-.19-.68-.25-.04-.07.02-.31.03-.4l.07-.94c.07-.88.14-1.76.21-2.64.1-1.33.21-2.66.31-3.98l-.65.2c1.06.78,2.25,1.43,3.42,2.03,3.04,1.57,6.27,2.76,9.58,3.64,6.49,1.72,13.4,2.06,20.1,1.87,3.77-.11,7.91-.28,11.41-1.84.4-.18-.23-.13-.38-.06-1.52.67-3.18.98-4.82,1.21-1.84.25-3.69.37-5.54.43-2.57.08-5.14.05-7.71-.1-3.94-.23-7.8-.59-11.64-1.54-3.38-.83-6.68-2-9.79-3.55-1.37-.68-2.75-1.41-3.98-2.32-.11-.08-.64.05-.65.2-.21,2.66-.41,5.31-.62,7.97l.02.02c8.59,3.27,17.65,5.4,26.84,5.86,5.21.26,10.52.02,15.64-1.05.9-.19,1.8-.39,2.67-.68.07-.02.21-.07.22-.15,1.69-9.96,3.08-20.02,3.97-30.09.44-4.95.83-9.98.52-14.94s-1.67-9.52-4.83-13.16c-1.33-1.53-3.07-3.08-5.02-3.77-.18-.06-.67.21-.63.22h0Z"/>
    <path class="cls-47" d="M370.91,387.75c-2.25-.75-4.81-.48-7.02.28-3.03,1.04-5.37,3.22-6.69,6.13-.1.23.51.12.58.11.22-.04.76-.14.87-.38,1.1-2.42,2.94-4.53,5.47-5.49,1.67-.63,3.67-.73,5.38-.16.3.1.66,0,.95-.1.05-.02.66-.31.45-.38h0Z"/>
    <g>
      <path class="cls-21" d="M394.14,274.58s6.68,20.53,24.71,22.15c18.03,1.62,13.33-10.99,13.33-10.99l5.05,3.19s2.84,8.98-9.73,12.29c-12.58,3.31-23.65-3.34-30.94-12.13-7.29-8.79-7.59-12.89-7.59-12.89l5.18-1.62Z"/>
      <path class="cls-15" d="M393.81,274.67c.7,2.13,1.72,4.19,2.81,6.14,2.35,4.19,5.39,8.07,9.21,11.01,4.86,3.73,10.74,5.42,16.84,5.2,3.81-.14,8.5-1.24,9.94-5.26.43-1.19.52-2.5.4-3.75-.07-.67-.12-1.64-.46-2.24-.02-.03-.03-.08-.04-.11l-.65.21c1.46.92,2.92,1.84,4.37,2.76.27.17.6.31.68.5.12.29.15.68.18.99.44,3.7-1.52,6.99-4.63,8.92-3.07,1.9-6.87,2.73-10.45,2.87s-7.18-.53-10.52-1.85c-6.74-2.66-12.12-7.68-16.46-13.36-1.78-2.32-3.46-4.78-4.7-7.44-.31-.66-.58-1.33-.8-2.02-.1-.31-.11-.72-.25-1-.02-.03-.01-.09-.02-.13l-.3.22c1.73-.54,3.45-1.08,5.18-1.62.38-.12.33-.38-.07-.26-1.73.54-3.45,1.08-5.18,1.62-.09.03-.31.09-.3.22.06.75.38,1.53.66,2.22.97,2.39,2.38,4.61,3.86,6.7,4.3,6.05,9.69,11.5,16.54,14.59,6.62,2.98,14.45,3.35,21.17.42,3.84-1.68,7-4.83,6.99-9.23,0-.52-.05-1.05-.14-1.56-.03-.17-.04-.45-.15-.6s-.37-.24-.51-.33l-1.25-.79-2.77-1.75-.53-.34c-.11-.07-.72.01-.65.21.56,1.5.7,3.28.42,4.85-.26,1.42-.92,2.73-2,3.7-1.64,1.48-3.91,2.03-6.05,2.23-6.04.56-12.1-.99-17.04-4.52-3.89-2.79-7.01-6.56-9.43-10.67-.85-1.45-1.62-2.95-2.3-4.49-.22-.5-.43-1-.63-1.51-.1-.26-.17-.6-.31-.84-.02-.03-.03-.07-.04-.11-.06-.19-.73,0-.67.18Z"/>
    </g>
    <path class="cls-47" d="M441.3,238.11c1.65.05,3.4-.67,4.43-1.99.97-1.24,1.19-3,.57-4.45-.2-.47-1.63-.02-1.45.39.52,1.2.47,2.65-.25,3.77-.32.49-.74.89-1.25,1.18-.48.27-.9.35-1.47.33-.31-.01-.78.11-.96.39s.16.38.38.39h0Z"/>
    <path class="cls-41" d="M438.69,262.96c-2.92-.92-9.97-1.04-11.65-.25,0,0,2.03,6.52,8.82,8.65,6.78,2.12,9.22-3,9.22-3,0,0-2.65-4.23-6.38-5.4Z"/>
    <path class="cls-32" d="M430.22,262.24s3.57.79,6.35,1.66c2.78.87,6.16,2.26,6.16,2.26,0,0,1.14-2.06-3.9-3.64s-8.61-.28-8.61-.28Z"/>
    <path class="cls-17" d="M436.34,269.38c-3.03-1.47-5.52-5.75-9.3-6.67,0,0-.73,6.85,7.24,9.35,7.97,2.5,10.79-3.7,10.79-3.7-3.63-1.4-5.4,1.54-8.73,1.02Z"/>
    <path class="cls-17" d="M442.69,262.36c-1.63-.66-2.91-.31-3.64-.54s-1.58-1.23-3.3-1.63c-1.61-.37-9.52,1.63-8.94,2.39.58.76,6.66-.62,11.7.96,5.04,1.58,5.91,5.14,6.82,4.84s-1.12-5.4-2.65-6.02Z"/>
    <path class="cls-47" d="M583.12,444.2c-3.95-.68-7.84-1.67-11.64-2.98-3.88-.99-7.67-2.29-11.34-3.89,3.95.67,7.84,1.66,11.62,2.96,3.88.99,7.68,2.3,11.36,3.91Z"/>
    <path class="cls-47" d="M583.71,438.59c-.11.24-4.98-1.66-11.13-3.61-6.14-1.95-11.22-3.26-11.16-3.54,3.91.38,7.76,1.25,11.45,2.59,3.79,1.04,7.43,2.58,10.83,4.56Z"/>
    <path d="M574.24,342.61l.35-.51c3.12-2.13,5.92-2.7,8.43-.95.03-.02,6.19-4.22,11.36.76,4.49,4.32,3.86,7.77,3.86,7.77,0,0,3.14.73,4.03,1.99,1.99,2.84-.31,6.77-2.48,8.63-2.96,2.54-5.66,4.02-5.66,4.02,0,0-2.92,1.02-5.13,1.61-2.21.59-5.98-.87-5.98-.87,0,0-2.2,3.55-3.89,2.73-.7-.34-2.17-.69-3.63-.99-2.66-.54-4.76-2.61-5.31-5.26-.08-.4-.17-.83-.25-1.28,0,0-2.26-1.88-.26-5.13.43-.71,1.06-1.48,1.96-2.3,0,0-1.08-.95-1.15-4.09-.03-1.35,1.39-4.5,3.76-6.12Z"/>
    <path d="M602.81,421.03c-13.01-.11-20.03-10.14-27.15-20.33-4.17-5.96-7.22-13.09-6.92-20.49.27-6.41,2.74-12.58,5.71-18.18,2.68-5.06,5.75-9.24,10.87-12.05,4.88-2.67,10.53-3.75,16.06-3.49,1.65.08,3.3.24,4.93.45,14.55,1.75,31.84,12.13,35.18,25.51.3,1.21.52,2.49.68,3.8,0,0,.23,2.79.08,3.7-2.71,16.24-12.95,45.09-35.83,40.09-2-.44-3.84-.54-3.62.97Z"/>
    <path class="cls-27" d="M564.84,395.42c.66-3.84,3.15-9.53,4.59-11.18.45-1.74.98-3.75,1.63-6.18.19-.7.39-1.37.59-2.04.14-.33.24-.67.32-1.02,3.8-11.64,9.48-16.66,9.48-16.66,7.24-6.35,17.3-8.38,26.43-5.33,10.81,3.36,18.71,12.79,21.9,20.9,1.59,4.02,1.64,8.48.13,12.53-1.28,3.46-5.59,6.45-7.66,10.02,3.85.92,8.36,3.39,4.95,9.97-4.71,9.08-12.13,7.82-14.75,4.83-3.66,3.7-4.69,6.23-5.71,8.82-1.05,2.69-1.03,6.8-.84,8.11l5.36,6.18c-12.03,10.8-40.68,17.33-43.39-5.44l6.66-4.27,1.26-4.46c-.25-.09.25.08-3.39-2.35-10.7-8.06-8.34-17.91-7.56-22.44Z"/>
    <path class="cls-47" d="M575.36,422.23l.43-2.03s12.02,4.85,21.94.85c0,0-7.33,4.35-13.85,3.42-6.51-.93-8.52-2.25-8.52-2.25Z"/>
    <path d="M617.17,398.81c-.17.28-.36.58-.32.91.06.43.55.7.99.68s.84-.24,1.23-.43c2.54-1.28,8.2-2.85,10.66-1.44,6.68-8.91,8.39-19.41,4.59-29.9-1.21-3.31-5.26-7.5-6.48-8.83-7.46-7.98-15.15-9.93-24.9-10.83-14.6-1.33-16.66,1.25-24.55,11.98,0,0,19.11-4.68,33.72,4.61-.49.03,9.11,5.38,9.21,5.58.83,1.77-.83,2.66-1.25,5.82-.3,2.3-1.03,3.9.35,5.78.96,1.31,1.43,4.22,1,5.79l-4.25,10.28Z"/>
    <circle cx="573.2" cy="382.07" r="2.48"/>
    <path d="M570.95,379.26c1.35-.39,3.05-.41,5.31.45,3.61,1.39,3.95,6.5,3.95,6.5,0,0-.95-4.1-4.48-5.56-1.7-.7-3.54-.64-5.08-.34.14-.34.24-.69.3-1.05Z"/>
    <path d="M594.49,383.47s11.86-2.8,14.88-.72c0,0-2.58-3.7-12.86-2.21,0,0-4.85,2.08-2.02,2.93Z"/>
    <path d="M573.13,370.61c.08-.09.16-.18.23-.27,1.82.65,4.18,1.97,7.06,4.55,0,0,3.01,3.98.2,3.38,0,0-4.25-4.67-7.99-7.01.16-.22.31-.44.5-.65Z"/>
    <path class="cls-47" d="M624.79,406.6c.72-1.02,1.23-2.24,1.17-3.5-.02-.38-.02-.79-.45-.9-1.14-.29-2.47.45-3.4,1-1.34.81-2.54,1.86-3.67,2.93-.18.17-.18.42.03.56.25.17.61.07.87-.02-.39.14.05,0,.16-.03-.18.04.11-.01.17-.01-.09,0,.08.02.1.03.2.13.16.58.1.87-.08.35-.32.7-.56.87-.15.11-.26.16-.45.19-.31.06-.64.04-.95-.02-.35-.06-.77,0-1.02.27-.2.21-.17.56.16.62,1.05.19,2.14.15,3.07-.42.6-.37,1.05-.96,1.21-1.65s.02-1.39-.7-1.62c-.62-.2-1.3-.05-1.89.16l.9.54c1.32-1.26,2.8-2.56,4.41-3.22.02,0,.22-.08.09-.04s.05-.02.08-.02c.09-.03.18-.05.27-.07.23-.06-.16,0,.07-.01.06,0,.14,0,.19-.02.02,0-.21,0-.03,0,.01,0,.08.02.09.01-.09.06-.19-.05-.08,0l-.29-.25c.38,1.22-.31,2.67-1,3.65-.21.29.18.51.42.53.36.03.74-.12.95-.42h0Z"/>
    <circle cx="596.62" cy="389.1" r="2.48"/>
    <path d="M589.47,388.74s4.99-3.8,8.97-2.3c5.6,2.11,5.52,6.2,6.1,8.35,0,0-2.13-5.9-6.5-7.42-3.96-1.38-8.57,1.37-8.57,1.37Z"/>
    <g>
      <path class="cls-13" d="M579.08,398.02c.59.65,1.74.96,2.64.77.2-.04.71.25.43.31-1.19.25-2.81-.27-3.57-1.11-.08-.08-.03-.15.1-.15.14,0,.33.08.41.17"/>
      <path class="cls-13" d="M582.54,399.01c.57-.06,1.17.02,1.73.18.08.02.18.09.22.17.03.06.02.12-.05.13-.31.05-.65,0-.95-.11-.09-.04-.21-.1-.23-.2-.02-.09.09-.11.16-.08.24.09.51.14.76.09.06.1.11.2.16.3-.5-.14-1.04-.2-1.55-.15-.1.01-.22-.06-.28-.14-.05-.06-.08-.16.02-.17"/>
      <path class="cls-13" d="M584.7,399.87c.65.22,1.51.21,2-.16.74-.56.74-1.95.1-2.71-.07-.08,0-.13.1-.12.12.02.25.11.32.2.55.66.64,1.85.29,2.5-.33.61-1.11.83-1.94.74-.25-.03-.51-.08-.75-.16-.1-.03-.26-.13-.28-.22-.02-.09.08-.1.17-.07"/>
      <path class="cls-13" d="M578.02,397.27c.06-.06.01-.13-.04-.15-.18-.06-.33-.17-.44-.34-.08.05-.16.1-.25.15.33.16.64.4.88.73.05.06.15.07.22.04.05-.02.13-.08.08-.15"/>
      <path class="cls-13" d="M578.47,397.54c-.26-.36-.61-.62-.98-.81-.05-.03-.14-.02-.2.02-.05.03-.07.08-.04.13"/>
      <path class="cls-13" d="M576.65,396.87c-.41-.17-.8-.63-.83-1.19-.05-.85.56-1.61,1.25-1.89.08-.03.07-.11.02-.15-.07-.05-.17-.04-.25,0-.6.24-1.13.8-1.31,1.51-.17.67.07,1.26.5,1.63.13.11.27.2.43.27.06.02.19.04.25-.03.06-.07.01-.12-.05-.14"/>
    </g>
    <path d="M657.52,367.57l.53.31c2.35,2.96,3.12,5.71,1.56,8.34.02.03,4.65,5.88.06,11.39-3.99,4.79-7.47,4.41-7.47,4.41,0,0-.5,3.19-1.69,4.16-2.69,2.19-6.78.18-8.79-1.85-2.74-2.77-4.41-5.35-4.41-5.35,0,0-1.23-2.84-1.98-5-.75-2.16.44-6.03.44-6.03,0,0-3.7-1.94-3-3.69.69-1.75,1.16-7.88,1.16-7.88,0,0,1.86-.82,5.7-1.84,0,0,1.71-2.39,5.1-.63.73.38,1.55.96,2.44,1.79,0,0,.87-1.15,3.99-1.44,1.35-.13,4.59,1.06,6.37,3.31Z"/>
    <path class="cls-26" d="M579.16,403.43c1.41.5,5.79,1.79,5.79,1.79,0,0-2.1.57-6.34-.94-4.24-1.5-5.04-3.05-5.04-3.05l5.59,2.19Z"/>
    <path class="cls-49" d="M629.31,439.96s-7.21-8.03-12.17-9.59c-7.05-2.21-11.3-5.04-11.3-5.04,0,0-9.1,13.77-22.43,13.31-16.63-.58-8.88-13.98-8.88-13.98,0,0-10.38,3.16-16.63,8.5-5.15,4.39-12.98,22.56-4.92,33.52,8.06,10.96,64.51,10.16,64.51,10.16,0,0,7.77-15.3,9.9-23.64,2.13-8.34,1.92-13.24,1.92-13.24Z"/>
    <path class="cls-31" d="M550.47,482.62c.71-10.02,1.4-17,3.17-25.65,3.06-14.99,4.93-25.21,5.89-27.22.11-.05,2.43-.76,2.52-.81.96-.47,5.15-2.05,7.88-3.01-3.16,4.51-7.27,12.01-6.31,19.46.5,3.84,1.93,5.32,6.01,7.28,4.95,2.38,8.96,3.47,14.08,1.92,2.26-.69,5.78-1.59,7.31-3.19,1.78-1.87,5.46-6.02,6.53-8.18,1.73-3.5,4.52-7.36,6.3-10.44,1.62-2.81,3.81-4.96,5.45-5.85,2.92.85,7.47,3.46,10.54,4.58-5.06,1.41-8.76,4.26-10.36,8.32-2.11,5.36-3.45,13.38-1.82,19.9.9,3.59,1.65,7.26,3.64,10.38,1.01,1.59,2.4,2.9,3.97,3.94,2.88,1.91,5.64,3.09,9.2,3.52,1.8.22,1.61-.16,2.19,1.37.07.2.13.4.17.61,1.27,6.68-1.34,22.07-.78,28.84-7,.71-8.41,12.27-15.32,13.5-9.42,1.68-26.49-4.64-36.09-4.52-11.77.15-17.4-10.01-23.86-13.26.2-.84-2.47,4.62-1.69-1.92.1-2.72,1.04-15.1,1.36-19.57Z"/>
    <path class="cls-31" d="M632.14,528.68c4.19,29.77,9.52,85.01,10.95,95.59-6.68,3.95-10.01-1.21-18.89,4.85-7.83,5.34-12.53,2.64-19.12,0-6.59-2.64-12.08-1.76-20.58.88-8.51,2.64-13.59-2.22-18.53-2.44-4.94-.22-5.14,1.38-15.44.73-8.76-.56-11.68-2.31-11.68-3.87,2.21-42.38,7.11-79.09,10.26-122.23,7.5,3.45,16.9,10.9,28.57,10.8,9.65-.08,33.67-1.81,44.32-6.67,7.06-3.22-5.13-3.07,2.9-3.54.4,2.37,4.96,8.29,6.81,20.92"/>
    <path class="cls-27" d="M571.6,492.54l.25-.02s29.22-33.58,32.23-39.47c0,0,12.25-24.51,24.7-13.62l-6.26,36.84c-8.88,13.21-34.84,36.57-42.48,38.23-1.72.37-10.7.03-12.78-2.64-2.23-7.29,4.4-11.7,4.35-19.33Z"/>
    <path class="cls-27" d="M530.23,470.44l44.82,19.54c-.55,1.11-1.1,2.22-1.62,3.34-2.14,4.53-2.1,10.01-3.43,14.85-.36,1.33-1.77,3-2.03,4.36-18.23-8.29-47.95-33.2-47.95-33.2l10.21-8.89Z"/>
    <path class="cls-49" d="M632.58,445.84c4.83,12.03.02,22.74-8.1,40.12-.23.49-1,1.71-1.52,1.88-.45.15.02.19-.45.15-1.96-.17-2.68-1.16-4.65-1.33,0,0-18.47-7.38-25.45-15.03-1.51-1.65-4.26-4.83-4.26-4.83.02-2.24,2.44-5.35,3.47-7.33,2.66-5.08,7.31-10.47,10.92-14.92,2.91-3.59,5.82-6,9.89-8.2,4.07-2.2,6.38-3.66,10.7-2.01,0,0,5.93,2.77,9.44,11.51Z"/>
    <path class="cls-27" d="M500.76,448.84c1.67,2.8,3.99,6.53,4.54,6.71s4.07,1.88,7.14,3.38c1.53.83,3.45.38,4.29-1.01.22-.36-5.87-5.89-3.18-8.28l6.12,3.66c1.81,1.45,3.42,3.09,4.79,4.9,1.57,2.34,3.67,10.22,3.67,10.22l7.9,4.5-8.93,12.23-6.93-5.76-8.71-2.47s-14.7-7.72-15.77-9.78c-1.06-2.07-.6-7.03-.6-7.03-1.86-2.5.08-6.12.08-6.12-1.66-5,1.73-3.93,1.73-3.93-.1-.16-.15-.34-.14-.52.03-1.95,3-2.39,3.99-.71Z"/>
    <path class="cls-47" d="M516.29,459.16c.49-.42,1.06-1.16.81-1.82s-1-1.28-1.42-1.8c-1.05-1.32-3.48-4.22-1.8-5.85l-1.16.21c1.37.82,2.74,1.64,4.11,2.46,1.98,1.19,3.62,2.46,5.2,4.21,1.88,2.08,2.77,4.34,3.64,6.98.36,1.1.7,2.21,1.02,3.32.13.46.19,1.2.45,1.61.29.45,1.08.65,1.55.87l4.12,1.96c3.78,1.8,7.55,3.59,11.33,5.39,2.47,1.18,4.94,2.35,7.41,3.53.53.25,1.82-.48,1.12-.81-5.82-2.77-11.63-5.54-17.45-8.3l-4.6-2.19c-.69-.33-1.51-.6-2.15-1.02-.02-.02.16.35.09.04-.06-.27-.15-.54-.22-.81-.3-1.05-.61-2.1-.94-3.14-.68-2.13-1.32-4.58-2.66-6.41-1.63-2.25-3.73-4.2-6.11-5.63-1.59-.95-3.19-1.91-4.78-2.86-.37-.22-.87-.07-1.16.21-1.53,1.48-.57,3.58.39,5.09.56.88,1.22,1.7,1.88,2.51.51.62,1.16,1,.39,1.65s.42,1.06.95.61h0Z"/>
    <path class="cls-47" d="M507.13,461.69c-2.44-.8-4.95-2.18-6.53-4.24-.78-1.03-1.41-2.16-1.85-3.38-.47-1.31-.87-2.75-.88-4.14,0-.64-1.46-.35-1.45.16.01,1.45.38,2.91.85,4.28s1.14,2.56,1.99,3.67c1.69,2.21,4.4,3.64,7,4.49.5.16,1.7-.56.87-.83h0Z"/>
    <path class="cls-47" d="M494.49,454.27c.76.94,1.26,2.02,1.81,3.09s1.07,2.24,1.72,3.3c1.35,2.17,3.56,3.34,5.82,4.38.31.14.75.05,1.03-.13.19-.12.44-.43.12-.58-1.13-.52-2.29-1.09-3.32-1.79s-1.77-1.57-2.4-2.61c-1.22-2.02-1.93-4.39-3.43-6.23-.32-.4-1.72.12-1.34.57h0Z"/>
    <path class="cls-47" d="M494.54,460.36c-.13-.04-.03.06,0,.15.05.12.09.25.14.37.15.43.32.86.5,1.28.4.92.86,1.86,1.47,2.67.29.38.66.61,1.06.85.43.26.86.52,1.29.79.72.45,1.44.92,2.16,1.38.24.16.69.01.93-.08.08-.03.65-.28.43-.42-.74-.48-1.47-.95-2.21-1.42-.85-.53-1.86-.94-2.42-1.8s-1.03-1.78-1.43-2.74c-.15-.38-.29-.76-.43-1.14-.07-.18-.11-.4-.32-.46-.31-.09-.74.05-1.01.18-.14.07-.49.29-.18.38h0Z"/>
    <path class="cls-47" d="M537.93,492.92c-4.79-3.88-9.59-7.76-14.38-11.64-.84-.68-1.65-1.4-2.52-2.04-.65-.48-1.52-.51-2.31-.69-2.57-.61-5.19-1.31-7.57-2.49-2.01-.99-3.91-2.24-5.81-3.43-2.27-1.41-4.53-2.85-6.76-4.32-1.51-.99-3.42-1.88-3.24-4.01.06-.67-1.41-.42-1.46.15-.14,1.67.75,2.74,2.04,3.61,1.8,1.22,3.64,2.39,5.47,3.56,4.19,2.66,8.29,5.44,13.08,6.89,1.2.36,2.41.68,3.62.96.4.09,1.41.25,1.58.33.31.15,1.21,1,1.65,1.36,2.9,2.35,5.8,4.7,8.7,7.04,2.25,1.82,4.51,3.65,6.76,5.47.43.35,1.74-.28,1.13-.77h0Z"/>
    <path class="cls-47" d="M574.38,490.28c2.34,2.92,3.14,7.23,1.5,10.64-.33.69,1.12.6,1.37.1,1.76-3.65.99-8.2-1.53-11.34-.36-.45-1.75.09-1.34.6h0Z"/>
    <path class="cls-41" d="M579.31,402.26c2.39.9,7.08,4.43,7.78,5.82,0,0-3.75,1.97-9.29-.12-5.54-2.09-5.45-5.43-5.45-5.43,0,0,3.91-1.42,6.96-.27Z"/>
    <path class="cls-32" d="M585.25,406.14s-2.75-1.31-5.02-2.17c-2.27-.85-5.2-1.68-5.2-1.68,0,0,.31-1.94,4.43-.39,4.11,1.55,5.8,4.24,5.8,4.24Z"/>
    <path class="cls-17" d="M578.1,407.17c2.74.58,6.04-.43,8.99.91,0,0-2.5,4.35-9.01,1.9-6.52-2.45-5.72-7.45-5.72-7.45,3.1.94,3.29,3.26,5.74,4.63Z"/>
    <path class="cls-17" d="M577,399.82c1.41.41,2.07,1.29,2.67,1.51s1.67,0,3,.62c1.24.58,5.42,5.95,4.65,6.16-.77.2-4.05-3.82-8.18-5.37-4.12-1.55-6.52.34-6.96-.32-.44-.66,3.5-2.97,4.82-2.59Z"/>
    <path class="cls-47" d="M590.11,381.59c-.84-.53-1.35-1.51-1.27-2.51.04-.45.22-.91.49-1.28.13-.18.3-.35.48-.49.07-.06.18-.13.22-.15.03-.02.14-.07.06-.03.03-.01.22-.08.08-.03.15-.05.71-.19.66-.44-.05-.23-.68-.08-.79-.05-1.2.36-2.34,1.2-2.59,2.5-.22,1.15.32,2.36,1.31,2.98.25.16.68.03.94-.07.08-.03.66-.29.42-.44h0Z"/>
    <path class="cls-41" d="M1058.2,145.9c5.62-.83,18.55.98,21.38,2.92,0,0-5.61,11.34-18.63,13.27-13.02,1.92-15.99-8.16-15.99-8.16,0,0,6.08-6.98,13.23-8.03Z"/>
    <path class="cls-32" d="M1073.91,147.04s-7.28.49-13.02,1.34c-5.74.85-12.84,2.48-12.84,2.48,0,0-1.55-4.09,8.86-5.63,10.4-1.54,17.01,1.81,17.01,1.81Z"/>
    <path class="cls-17" d="M1060.63,158.33c5.96-1.82,11.77-8.93,18.95-9.5,0,0-.65,12.74-15.96,15-15.31,2.26-18.66-9.89-18.66-9.89,7.04-1.52,9.43,4.38,15.67,4.4Z"/>
    <path class="cls-17" d="M1051.07,143.66c3.18-.73,5.41.27,6.81.06,1.4-.21,3.25-1.8,6.5-2.02,3.05-.21,16.95,5.73,15.67,6.95-1.28,1.22-12-3.06-21.68-1.63-9.68,1.43-12.3,7.68-13.88,6.88-1.58-.8,3.61-9.56,6.58-10.24Z"/>
    <path class="cls-4" d="M1060.8,138.26l.42,3.53c.07.54.46.98,1,1.09,3.65.76,20.95.81,20.31,4.08-.09.46.11,3.29.19,3.28l.9-.97c1.22-2.16.63-5.65-.52-6.19-3.52-1.66-6.68-2.87-8.65-3.48-2.46-.76-9.29-2.61-12.31-2.78-.8-.04-1.43.65-1.33,1.44Z"/>
    <path class="cls-4" d="M1054.15,139.51l1.13,3.37c.17.52.08,1.06-.24,1.35-2.2,2.01-13.82,7.84-12.06,10.59.25.38.67,2.23.61,2.25l-.83-.15c-.93.31-2.51-4.11-1.93-5.02,1.74-2.77,3.42-5.01,4.53-6.27,1.38-1.57,5.31-5.72,7.31-6.96.53-.33,1.24.08,1.49.84Z"/>
    <path class="cls-47" d="M1053.94,92.99c-1.66.15-3.5.01-4.47-1.55-.83-1.34-.84-3.04-.83-4.56,0-.31-1.41-.09-1.42.38-.02,1.64.01,3.45,1.01,4.84,1.16,1.61,3.31,1.72,5.11,1.56.3-.03.74-.1.94-.36s-.16-.32-.35-.3h0Z"/>
    <g>
      <path class="cls-3" d="M1196.02,924.32s6.15,7.37,4.01,11.03c-2.14,3.66-21.94,4.93-27.13,5.5-5.19.57-72.43,8.62-79.12,8.85-6.69.23-42.67-.76-47.81-7.56,0,0-8.73-11.47,3.31-15.67,12.04-4.19,20.98-4.24,32.26-9.4,11.27-5.17,23.59-11.86,34.36-22.55,0,0,10.93-8.74,16.17-7.52,5.24,1.22,11.17,9.99,15.44,12.04,4.27,2.05,24.66,4.38,29.88-4.57,5.22-8.95,6.71-5.61,10.71-4.39,4,1.22,10.69,16.6,9.15,23.83-1.55,7.23-1.21,10.41-1.21,10.41Z"/>
      <path class="cls-14" d="M1196.02,924.32s-30.17,3.21-43.2,7.44c-13.03,4.23-47.56,11.37-65.66,11.78-18.09.41-43.36-5.33-43.36-5.33,0,0-1.67,2.49,6.22,6.56,7.89,4.07,32.36,6.38,53.57,4.03,21.21-2.35,52.28-5.41,58.81-5.85,6.53-.43,33.71-2.65,37.3-7.18,3.01-3.8-3.67-11.45-3.67-11.45Z"/>
    </g>
    <path class="cls-32" d="M1194.75,899.46c-5.49.64-11,1.99-16.19,3.87-3.94,1.43-7.88,3.26-11.1,6-1.66,1.41-2.93,3.03-4.08,4.88-1.61,2.59-3.05,5.29-4.2,8.11-.79,1.94-1.47,3.95-1.9,6.01-.15.73-.3,1.48-.33,2.22-.01.31.64.21.65-.06.08-2.18.82-4.42,1.54-6.45.9-2.5,2.04-4.91,3.34-7.23s2.57-4.53,4.44-6.35c2.96-2.88,6.78-4.8,10.59-6.29,3.61-1.41,7.36-2.45,11.15-3.25,1.99-.42,4-.8,6.03-1.04.34-.04.51-.49.07-.44h0Z"/>
    <g>
      <path class="cls-3" d="M1250.56,931s6.15,7.37,4.01,11.03c-2.14,3.66-21.94,4.93-27.13,5.5-5.19.57-72.43,8.62-79.12,8.85-6.69.23-42.67-.76-47.81-7.56,0,0-8.73-11.47,3.31-15.67,12.04-4.19,20.98-4.24,32.26-9.4,11.27-5.17,23.59-11.86,34.36-22.55,0,0,10.93-8.74,16.17-7.52,5.24,1.22,11.17,9.99,15.44,12.04,4.27,2.05,24.66,4.38,29.88-4.57,5.22-8.95,6.71-5.61,10.71-4.39s10.69,16.6,9.15,23.83c-1.55,7.23-1.21,10.41-1.21,10.41Z"/>
      <path class="cls-14" d="M1250.56,931s-30.17,3.21-43.2,7.44c-13.03,4.23-47.56,11.37-65.66,11.78-18.09.41-43.36-5.33-43.36-5.33,0,0-1.67,2.49,6.22,6.56,7.89,4.07,32.36,6.38,53.57,4.03,21.21-2.35,52.28-5.41,58.81-5.85,6.53-.43,33.71-2.65,37.3-7.18,3.01-3.8-3.67-11.45-3.67-11.45Z"/>
    </g>
    <path class="cls-28" d="M1211.81,937.2s.23-6.88,7.2-17.52c6.96-10.64,30.25-13.32,30.25-13.32,0,0,3.73,3.82,2.52,14.23l-1.21,10.41-38.75,6.2Z"/>
    <path class="cls-28" d="M1198.25,902.77c2.29,3.77-6.96,5.11-10.01,8.08-5.29,5.16-11.16,10.22-18.55,12.6-7.39,2.38-16.67,1.38-21.46-4.05l-1.65-1.42s16-9.47,21.82-14.85,11.54-9.34,15.87-9.47,12.43,6.56,13.97,9.1Z"/>
    <path class="cls-28" d="M1144.23,896.52c2.29,3.77-6.96,5.11-10.01,8.08-5.29,5.16-11.16,10.22-18.55,12.6-7.39,2.38-16.67,1.38-21.46-4.05l-1.65-1.42s16-9.47,21.82-14.85,11.54-9.34,15.87-9.47,12.43,6.56,13.97,9.1Z"/>
    <path d="M1155.21,912.91c-3.7,2.13-7.45,4.18-11.22,6.19-3.16,1.68-6.34,3.32-9.58,4.86-1.23.59-2.5,1.33-3.8,1.73-.91.28-1.86.47-2.78.71-1.09.28-2.18.6-3.29.8-1.59.28-3.18.59-4.76.92-5.06,1.05-10.17,2.2-15,4.06-1.67.64-3.57,1.38-4.85,2.7-.55.57-1.01,1.25-1.47,1.89s-.94,1.38-1.28,2.13c-.56,1.25-.61,2.54-.18,3.84.27.81.66,1.57,1.06,2.31.15.27.76.02.59-.29-.74-1.35-1.49-2.87-1.25-4.46.26-1.72,1.5-3.22,2.53-4.55,1.16-1.49,2.9-2.26,4.61-2.95,4.72-1.91,9.79-3.04,14.76-4.09,2.6-.55,5.22-.97,7.79-1.62l3.2-.82c.96-.24,1.83-.69,2.73-1.11,3.18-1.46,6.3-3.05,9.4-4.67,4.34-2.27,8.65-4.6,12.88-7.05.07-.04.14-.08.21-.12.38-.22.04-.6-.29-.41h0Z"/>
  </g>
  <g id="Layer_3" data-name="Layer 3">
    <path d="M1180.56,904.97l.06-.06c.5-.49.13-1.4-.82-2.01l-6.85-4.42c-.95-.61-2.14-.71-2.64-.22l-.06.06c-.5.49-.13,1.4.82,2.01l6.85,4.42c.95.61,2.14.71,2.64.22Z"/>
    <path d="M1172.73,908.61l.19-.18c.36-.35-.04-1.09-.9-1.64l-5.09-3.31c-.86-.56-1.85-.73-2.21-.38l-.19.18c-.36.35.04,1.09.9,1.64l5.09,3.31c.86.56,1.85.73,2.21.38Z"/>
    <path d="M1166.27,912.06l.32-.31c.32-.31-.04-.97-.81-1.48l-3.63-2.37c-.77-.5-1.66-.66-1.99-.35l-.32.31c-.32.31.04.97.81,1.48l3.63,2.37c.77.5,1.66.66,1.99.35Z"/>
    <path d="M1161.08,915.71l.37-.36c.38-.37.05-1.08-.72-1.57l-3.64-2.36c-.77-.5-1.71-.61-2.09-.24l-.37.36c-.38.37-.05,1.08.72,1.57l3.64,2.36c.77.5,1.71.61,2.09.24Z"/>
    <path d="M1126.55,898.71l.06-.06c.5-.49.13-1.4-.82-2.01l-6.85-4.42c-.95-.61-2.14-.71-2.64-.22l-.06.06c-.5.49-.13,1.4.82,2.01l6.85,4.42c.95.61,2.14.71,2.64.22Z"/>
    <path d="M1118.72,902.36l.19-.18c.36-.35-.04-1.09-.9-1.64l-5.09-3.31c-.86-.56-1.85-.73-2.21-.38l-.19.18c-.36.35.04,1.09.9,1.64l5.09,3.31c.86.56,1.85.73,2.21.38Z"/>
    <path d="M1112.25,905.81l.32-.31c.32-.31-.04-.97-.81-1.48l-3.63-2.37c-.77-.5-1.66-.66-1.99-.35l-.32.31c-.32.31.04.97.81,1.48l3.63,2.37c.77.5,1.66.66,1.99.35Z"/>
    <path d="M1107.06,909.46l.37-.36c.38-.37.05-1.08-.72-1.57l-3.64-2.36c-.77-.5-1.71-.61-2.09-.24l-.37.36c-.38.37-.05,1.08.72,1.57l3.64,2.36c.77.5,1.71.61,2.09.24Z"/>
  </g>
</svg>