<?xml version="1.0" encoding="UTF-8"?>
<svg xmlns="http://www.w3.org/2000/svg" xmlns:xlink="http://www.w3.org/1999/xlink" viewBox="0 0 1334 1000">
  <defs>
    <style>
      .cls-1 {
        fill: none;
      }

      .cls-2 {
        fill: #673012;
      }

      .cls-3 {
        fill: #131429;
      }

      .cls-4 {
        fill: #040404;
      }

      .cls-5 {
        fill: #101931;
      }

      .cls-6 {
        fill: #273339;
      }

      .cls-7 {
        fill: #010101;
      }

      .cls-8 {
        fill: #864e9f;
      }

      .cls-9 {
        fill: #1a2942;
      }

      .cls-10 {
        fill: #653c29;
      }

      .cls-11 {
        fill: #231f20;
      }

      .cls-12 {
        fill: #7a1d16;
      }

      .cls-13 {
        fill: #27153c;
      }

      .cls-14 {
        fill: #d27228;
      }

      .cls-15 {
        fill: #f1eef7;
      }

      .cls-16 {
        fill: #af3c25;
      }

      .cls-17 {
        fill: #f38f20;
      }

      .cls-18 {
        fill: #3e6ba3;
      }

      .cls-19 {
        fill: #36190e;
      }

      .cls-20 {
        fill: #4f3a31;
      }

      .cls-21 {
        fill: #663631;
      }

      .cls-22 {
        fill: #1e3353;
      }

      .cls-23 {
        fill: #a66e53;
      }

      .cls-24 {
        fill: #0a2f44;
      }

      .cls-25 {
        fill: #a26427;
      }

      .cls-26 {
        fill: url(#linear-gradient);
        opacity: .5;
      }

      .cls-27 {
        fill: #b3b2ab;
      }

      .cls-28 {
        fill: #fff;
      }

      .cls-29 {
        fill: #4978bc;
      }

      .cls-30 {
        fill: #59341c;
      }

      .cls-31 {
        fill: #8a4a20;
      }

      .cls-32 {
        fill: #0d0b09;
      }

      .cls-33 {
        fill: #42221a;
      }

      .cls-34 {
        fill: #9b5925;
      }

      .cls-35 {
        fill: #160e0d;
      }

      .cls-36 {
        fill: #f2ebd1;
      }

      .cls-37 {
        fill: #382712;
      }

      .cls-38 {
        fill: #24180f;
      }

      .cls-39 {
        fill: #628e9f;
      }

      .cls-40 {
        stroke: #000;
        stroke-miterlimit: 10;
      }

      .cls-41 {
        fill: #5d483b;
      }

      .cls-42 {
        fill: #28160e;
      }

      .cls-43 {
        fill: #ad5526;
      }

      .cls-44 {
        fill: #825639;
      }

      .cls-45 {
        fill: #f2e223;
      }

      .cls-46 {
        fill: #465b65;
      }

      .cls-47 {
        fill: #eb9944;
      }

      .cls-48 {
        fill: #87654d;
      }

      .cls-49 {
        fill: #634938;
      }

      .cls-50 {
        clip-path: url(#clippath);
      }

      .cls-51 {
        fill: #4f2e25;
      }

      .cls-52 {
        fill: #773022;
      }
    </style>
    <linearGradient id="linear-gradient" x1="-584.41" y1="2870.03" x2="274.38" y2="2870.03" gradientTransform="translate(-2215.47 494.43) rotate(90) scale(1 -1)" gradientUnits="userSpaceOnUse">
      <stop offset="0" stop-color="#f0ebe0"/>
      <stop offset=".18" stop-color="#eee8dd" stop-opacity=".99"/>
      <stop offset=".33" stop-color="#e8e1d4" stop-opacity=".97"/>
      <stop offset=".46" stop-color="#ded4c5" stop-opacity=".93"/>
      <stop offset=".59" stop-color="#d0c2b0" stop-opacity=".88"/>
      <stop offset=".72" stop-color="#bdab95" stop-opacity=".82"/>
      <stop offset=".84" stop-color="#a78e73" stop-opacity=".73"/>
      <stop offset=".96" stop-color="#8d6d4d" stop-opacity=".64"/>
      <stop offset="1" stop-color="#83603d" stop-opacity=".6"/>
    </linearGradient>
    <clipPath id="clippath">
      <polygon class="cls-1" points="1484.46 1080.06 -166.69 1080.06 -105.39 800.54 1423.16 800.54 1484.46 1080.06"/>
    </clipPath>
  </defs>
  <g id="Layer_2" data-name="Layer 2">
    <polyline class="cls-36" points="1570.59 1012.51 1570.59 -132.81 -240.49 -132.81 -240.49 1012.51"/>
    <polyline class="cls-26" points="1610.07 765.98 -300.95 765.98 -300.95 -92.81 1610.07 -92.81"/>
    <polyline class="cls-20" points="-255.7 1059.24 1573.48 1059.24 1573.48 710.88 -255.7 710.88"/>
    <polygon class="cls-31" points="1573.48 1050.04 -373.54 1050.04 -274.81 781.62 1474.75 781.62 1573.48 1050.04"/>
    <polygon class="cls-42" points="580.11 630.84 515.5 630.84 530.23 711.89 580.11 711.89 580.11 630.84"/>
    <path class="cls-41" d="M573.92,406.53l-1.22-.46-2.16-85.82c-3.19-64.77-20.71-111.77-57.97-115.42-25.36,0-111.16-1.17-119.71,5.39-2.37-112.51,9.86-202.27-173.93-202.27l-202.59.49C14.19,58.11,8.3,107.6.98,156.76c-9.17,61.67,8.79,122.96-.6,184.59-4.72,30.97,36.06,62.17,32.06,93.25-4.07,31.66-8.19,63.31-12.2,94.98-6.09,48.15-11.93,96.38-16.95,144.69h578.36v-100.37c14.4-4.71,24.41-20.28,24.49-38.08v-71.59c-.04-27.43-11.67-45.34-32.21-57.69Z"/>
    <path class="cls-41" d="M34.56,673.22c.57-14.1,1.11-28.2,1.54-42.31.99-32.45,34.3-64.9,34.3-97.36L62.86,8.15l-435.94-1.23c-94.39.02-110.1,89.76-112.47,202.27-8.54-6.57-94.34-5.39-119.71-5.39-37.26,3.65-54.77,50.65-57.97,115.42l-2.16,85.82-1.22.46c-20.54,12.35-32.17,30.26-32.21,57.69v71.59c.08,17.8,10.09,33.37,24.49,38.08v100.37H34.56Z"/>
    <path class="cls-32" d="M-665.85,581.16H157.3c14.25,0,28.51,0,42.76,0h325.78c5.89,0,11.77,0,17.66,0h32.63c.84,0,1.1-1.1.12-1.1h-72.19c-8.1,0-16.2,0-24.3,0h-160.81c-12.86,0-25.72,0-38.58,0H67.45c-15.02,0-30.04,0-45.07,0H-246.91c-14.25,0-28.51,0-42.76,0h-376.07c-.84,0-1.1,1.1-.12,1.1h0Z"/>
    <path class="cls-32" d="M-659.6,410.64c.72,0,1.44,0,2.16,0,2.09,0,4.19,0,6.28-.01,3.4,0,6.8-.01,10.19-.02,4.66,0,9.32-.02,13.98-.02,5.8-.01,11.6-.02,17.4-.03,6.91-.01,13.83-.02,20.74-.04,7.94-.01,15.88-.03,23.83-.04,8.87-.02,17.75-.03,26.62-.05,9.78-.02,19.56-.03,29.35-.05,10.6-.02,21.19-.04,31.79-.06,11.31-.02,22.62-.04,33.92-.06,12.05-.02,24.09-.04,36.14-.06l37.74-.07c13.11-.02,26.21-.05,39.32-.07,13.64-.02,27.28-.05,40.92-.07,13.95-.02,27.91-.05,41.86-.07,14.27-.03,28.54-.05,42.81-.08,14.6-.03,29.19-.05,43.79-.08,14.69-.03,29.38-.05,44.07-.08,14.8-.03,29.59-.05,44.39-.08,14.91-.03,29.83-.05,44.74-.08,14.79-.03,29.59-.05,44.38-.08,14.69-.03,29.37-.05,44.06-.08,14.59-.03,29.18-.05,43.77-.08,14.26-.03,28.52-.05,42.77-.08,13.94-.02,27.88-.05,41.82-.07,13.62-.02,27.25-.05,40.87-.07,13.09-.02,26.17-.05,39.26-.07,12.59-.02,25.18-.04,37.77-.07,11.99-.02,23.97-.04,35.96-.06,11.28-.02,22.56-.04,33.84-.06,10.57-.02,21.13-.04,31.7-.06,9.75-.02,19.5-.03,29.25-.05,8.84-.02,17.67-.03,26.51-.05,7.9-.01,15.81-.03,23.71-.04,6.87-.01,13.75-.02,20.62-.04,5.76-.01,11.51-.02,17.27-.03l13.84-.02c3.35,0,6.7-.01,10.04-.02,2.04,0,4.08,0,6.12-.01.66,0,1.33,0,1.99,0,.8,0,1.13-1,.15-1-.72,0-1.44,0-2.16,0-2.09,0-4.19,0-6.28.01-3.4,0-6.8.01-10.19.02-4.66,0-9.32.02-13.98.02-5.8.01-11.6.02-17.4.03-6.91.01-13.83.02-20.74.04-7.94.01-15.88.03-23.83.04-8.87.02-17.75.03-26.62.05-9.78.02-19.56.03-29.35.05-10.6.02-21.19.04-31.79.06-11.31.02-22.62.04-33.92.06-12.05.02-24.09.04-36.14.06-12.58.02-25.16.04-37.74.07-13.11.02-26.21.05-39.32.07-13.64.02-27.28.05-40.92.07-13.95.02-27.91.05-41.86.07-14.27.03-28.54.05-42.81.08-14.6.03-29.19.05-43.79.08l-44.07.08c-14.8.03-29.59.05-44.39.08-14.91.03-29.83.05-44.74.08l-44.38.08c-14.69.03-29.37.05-44.06.08-14.59.03-29.18.05-43.77.08-14.26.03-28.52.05-42.77.08-13.94.02-27.88.05-41.82.07-13.62.02-27.25.05-40.87.07-13.09.02-26.17.05-39.26.07-12.59.02-25.18.04-37.77.07-11.99.02-23.97.04-35.96.06-11.28.02-22.56.04-33.84.06-10.57.02-21.13.04-31.7.06-9.75.02-19.5.03-29.25.05-8.84.02-17.67.03-26.51.05-7.9.01-15.81.03-23.71.04-6.87.01-13.75.02-20.62.04-5.76.01-11.51.02-17.27.03-4.61,0-9.23.02-13.84.02-3.35,0-6.7.01-10.04.02-2.04,0-4.08,0-6.12.01-.66,0-1.33,0-1.99,0-.8,0-1.13,1-.15,1h0Z"/>
    <path class="cls-32" d="M391.76,217.69c-8.17,10.87-15.81,22.45-21.38,34.89-2.9,6.49-4.86,13.26-5.96,20.28-1.22,7.76-1.56,15.62-1.87,23.45-.42,10.62-.7,21.25-.95,31.88-.31,12.57-.57,25.14-.82,37.71-.22,11.11-.43,22.21-.68,33.32-.02,1.11-.05,2.21-.07,3.32-.02.66,1.44.4,1.46-.15.24-10.63.44-21.26.65-31.89.25-12.51.5-25.02.79-37.53.26-11.07.53-22.15.94-33.22.52-14.32.86-29.07,6.02-42.63,4.87-12.78,12.53-24.61,20.51-35.65.9-1.24,1.81-2.48,2.73-3.7.42-.56-1.04-.51-1.36-.09h0Z"/>
    <path class="cls-32" d="M437.39,217.71c-8.12,10.8-15.69,22.3-21.27,34.64-2.97,6.56-4.96,13.41-6.08,20.52-1.22,7.76-1.56,15.62-1.87,23.45-.42,10.62-.7,21.25-.95,31.88-.31,12.57-.57,25.14-.82,37.71-.22,11.11-.43,22.21-.68,33.32-.02,1.11-.05,2.21-.07,3.32-.01.6,1.44.31,1.45-.18.24-10.63.44-21.26.65-31.89.25-12.51.5-25.02.79-37.53.26-11.07.53-22.15.94-33.22.52-14.32.87-29.07,6.02-42.63,4.86-12.79,12.53-24.62,20.5-35.66.9-1.24,1.81-2.48,2.73-3.7.39-.52-1.06-.42-1.35-.04h0Z"/>
    <rect class="cls-49" x="1149.38" y="419.08" width="752.5" height="230.75"/>
    <rect class="cls-25" x="1163.48" y="23.49" width="52.68" height="143.52"/>
    <path class="cls-37" d="M1216.16,151.85c0,.45-11.53.8-25.77.8s-25.8-.34-25.8-.8,11.53-.8,25.8-.8,25.77.34,25.77.8Z"/>
    <path class="cls-37" d="M1216.16,158c0,.45-11.83.8-26.51.8-14.69,0-26.51-.34-26.51-.8,8.81-.79,17.67-1.05,26.51-.8,8.85-.26,17.7,0,26.51.8Z"/>
    <rect class="cls-46" x="1327.2" y="15.61" width="20.23" height="151.53"/>
    <rect class="cls-6" x="1216.24" y="14.63" width="40.49" height="153.04"/>
    <rect class="cls-12" x="1256.73" y="28.23" width="70.79" height="137.98"/>
    <path class="cls-19" d="M1325.11,51.17c0,.53-15.22.95-33.99.95-18.77,0-33.99-.42-33.99-.95s15.22-.95,33.99-.95,33.99.42,33.99.95Z"/>
    <path class="cls-19" d="M1325.98,61.62c0,.53-15.03.95-33.57.95s-33.54-.42-33.54-.95,15.01-.95,33.54-.95c18.53,0,33.57.42,33.57.95Z"/>
    <path class="cls-19" d="M1328.24,150.63c0,.53-15.91.95-35.34.95-19.44,0-35.34-.42-35.34-.95s15.91-.95,35.34-.95,35.34.42,35.34.95Z"/>
    <path class="cls-19" d="M1327.28,138.38c0,.53-15.41.95-34.47.95-19.06,0-34.47-.42-34.47-.95s15.43-.95,34.47-.95,34.47.37,34.47.95Z"/>
    <rect class="cls-25" x="1218.41" y="285.51" width="66.71" height="114.97"/>
    <rect class="cls-37" x="1167.72" y="258.75" width="52.61" height="141.7"/>
    <path class="cls-2" d="M1236.6,379.99c-.45,0-.8-14.48-.8-32.35,0-17.87.34-32.35.8-32.35s.8,14.48.8,32.35c0,17.87-.34,32.35-.8,32.35Z"/>
    <path class="cls-2" d="M1245.48,379.99c-.45,0-.8-14.48-.8-32.35s.34-32.35.8-32.35.8,14.48.8,32.35c0,17.87-.34,32.35-.8,32.35Z"/>
    <rect class="cls-48" x="1134.52" y="-132.81" width="29.72" height="807.35"/>
    <rect class="cls-48" x="1143.18" y="166.22" width="784.21" height="31.26"/>
    <rect class="cls-48" x="1164.03" y="399.18" width="762.7" height="30.25"/>
    <rect class="cls-48" x="1149.38" y="628.4" width="777.35" height="30.25"/>
  </g>
  <g id="Layer_1" data-name="Layer 1">
    <path class="cls-23" d="M229.05,611.06c1.86,11.82,6.24,23.14,12.58,33.45,15.67,25.48,41.05,88.38,54.74,94.46,31.69,14.08,105.27-7.71,105.27-7.71l-.68-21.83-79.12-3.46s-22.67-62.85-31.45-83.79c-3.63-8.67,3.06-5.99-11.92-17.48-1.01-.78-8.18-4.23-8.81-4.63"/>
    <g class="cls-50">
      <rect class="cls-34" x="-183.72" y="870.56" width="1712.99" height="24.79"/>
      <rect class="cls-34" x="-181.92" y="804.92" width="1712.99" height="24.79"/>
      <rect class="cls-34" x="-192.59" y="933.38" width="1712.99" height="24.79"/>
      <rect class="cls-34" x="-191.86" y="994.97" width="1712.99" height="24.79"/>
    </g>
    <path d="M1076.62,819.57c2.77-8.62,12-18.27,18.74-22.94,6.73-4.67,15.63-1.58,18.01-.79,17.69,5.84,27.7,19.27,42.16,30.35,11.08,8.49,23.21,15.62,36.02,21.18,13.02,5.65,26.89,7.93,40.02,12.92.09.04.19.07.28.11,6.51,2.47,11.95,7.16,15.41,13.21,1.26,2.21,2.54,4.38,3.92,6.42,1.91,2.82,3.89,4.88,2.44,8.52-2.68,6.7-13.78-.52-17.05-1.61-.61-.2-1.25-.24-1.87-.13-2.51.43-9.96,1.31-22.78-.4-1.24-.17-2.45-.24-3.63-.27-.02.07.02-.07,0,0-6.78-.52-43.53.21-48.99.13-10.76-.16-37.76-3.33-37.76-3.33,0,0-44.02-2.48-57.52,7.42l-21.11-50.62s30.94-11.54,33.71-20.16Z"/>
    <g>
      <path class="cls-30" d="M1265.66,900.31s-5.14,10.28-15.67,7.24c-10.52-3.04-32.8-11.79-51.26-15.72-25.63-5.47-47.21-.43-55.89-6.25-8.83-5.92,3.02-17.7-14.86-32.39-17.74-14.57-38.49-16.1-39.56-16.48-2.27-5.54,11.41-38.21,21.56-41.1,10.16-2.89,56.61,28.59,56.61,28.59l40.61,20.87,36.32,26.36,22.12,28.89Z"/>
      <path class="cls-3" d="M1149.28,813.18c-2.37,3.32-5.19,6.52-8.71,8.65-1.93,1.17-4.11,1.98-6.38,2.02-2.59.04-5.05-1.05-7.46-1.88-4.76-1.65-9.49-3.51-14.41-4.64-3.85-.88-7.91-1.19-11.68.21-4.86,1.81-8.13,5.92-10.53,10.35-.07.13.25.09.29,0,2.28-4.21,5.34-8.17,9.89-10.05,4.09-1.69,8.57-1.18,12.75-.13,5.08,1.28,9.98,3.23,14.93,4.92,2.17.74,4.26,1.52,6.59,1.37,1.91-.12,3.75-.75,5.43-1.65,3.91-2.11,7.01-5.59,9.56-9.17.08-.11-.24-.08-.29,0h0Z"/>
      <path class="cls-3" d="M1088.25,833.44c4.33.25,8.65.75,12.88,1.77,4.74,1.14,9.3,2.9,13.57,5.24,5.09,2.79,9.62,6.37,13.98,10.18,3.14,2.74,6.19,5.61,8.93,8.76,4.68,5.41,7.93,12.06,13.5,16.7,3.23,2.7,7.3,4.18,11.35,5.15,4.94,1.2,10.03,1.73,15.08,2.24,5.81.59,11.64,1.1,17.42,1.96,1.54.23,3.07.48,4.6.76.6.11.82.12,1.25.49.97.85,1.58,2.09,1.24,3.39s-1.32,2.21-2.29,2.99c-.17.13.09.23.21.14,1.37-1.11,2.88-2.73,2.41-4.65-.21-.88-.89-1.86-1.69-2.33-.07-.04-.11-.07-.18-.1-.31-.14-.75-.14-1.09-.2-.44-.08-.89-.16-1.33-.24-1.53-.26-3.06-.49-4.59-.71-3.05-.42-6.11-.76-9.17-1.07-5.5-.56-11.02-.99-16.48-1.86-4.59-.73-9.29-1.76-13.38-4.03s-7.36-6.22-10.11-10.06c-1.69-2.36-3.26-4.79-5.08-7.05-2.32-2.89-4.93-5.54-7.66-8.05-4.21-3.88-8.62-7.64-13.47-10.71-4.28-2.7-8.89-4.86-13.74-6.33-4.21-1.27-8.55-2.01-12.92-2.39-1.04-.09-2.09-.17-3.14-.23-.15,0-.33.21-.11.22h0Z"/>
      <path class="cls-3" d="M1179.57,830.71c-2.82-1.45-5.64-2.9-8.46-4.35-.06-.03-.32,0-.31.1.86,6.07,3.24,11.8,6.8,16.78,4.23,5.91,10.01,10.26,15.57,14.83,5.82,4.79,11.65,9.58,17.23,14.65,2.41,2.19,4.77,4.43,7,6.8,1.8,1.92,3.55,3.92,4.99,6.13,1.04,1.6,2.1,3.5,2.11,5.48,0,3.14-3.29,5.03-5.83,6.05-.21.08-.01.15.12.09,2.33-.94,5.16-2.45,5.89-5.08.41-1.5-.1-3.1-.74-4.46-.97-2.05-2.38-3.9-3.83-5.63-1.97-2.35-4.13-4.53-6.35-6.64-5.41-5.17-11.18-9.97-16.94-14.74-3.1-2.56-6.21-5.11-9.31-7.68-2.75-2.28-5.37-4.66-7.67-7.41-4.6-5.52-7.72-12.13-8.73-19.27l-.31.1c2.82,1.45,5.64,2.9,8.46,4.35.09.04.35-.09.3-.11h0Z"/>
      <g>
        <path class="cls-47" d="M1173.99,828.19l.31-.06-.34-.18c.01.08.02.16.04.23Z"/>
        <path class="cls-11" d="M1173.96,828.27c.09-.02.18-.03.27-.05h.04c.06-.02.12-.03.16-.08,0,0,.01-.01.02-.02,0,0,0-.01,0-.02,0,0,0-.01,0-.02,0-.01-.01-.02-.03-.02-.04-.02-.08-.04-.12-.06l-.19-.1-.04-.02h-.03s-.04,0-.05,0c-.04,0-.07.01-.1.02-.02,0-.05.02-.07.04-.02.01-.04.04-.03.06.01.08.02.16.04.23,0,.02.04.03.06.03.02,0,.04,0,.05,0,.02,0,.04,0,.06-.01.04-.01.08-.02.11-.05.02-.01.04-.03.03-.06-.01-.08-.02-.16-.04-.23l-.29.11s.08.04.12.06l.19.1.04.02.15-.15c-.09.02-.18.03-.27.05h-.04s-.08.03-.12.05c-.02,0-.03.02-.04.03-.01,0-.02.02-.02.03v.02s.01.02.03.03c.03.01.07.01.1,0Z"/>
      </g>
      <g>
        <path class="cls-47" d="M1158.51,822.52l1.45,1.14c.89-1.13,1.7-1.95,2.2-2.42-.49-.32-1.03-.67-1.59-1.04-.54.53-1.27,1.31-2.06,2.31Z"/>
        <path class="cls-11" d="M1158.39,822.61c.42.33.85.67,1.27,1,.06.05.12.09.18.14.07.05.21.02.25-.05.67-.86,1.41-1.67,2.2-2.42.04-.04.04-.1,0-.13-.53-.35-1.06-.69-1.59-1.04-.08-.05-.19-.02-.25.05-.74.72-1.42,1.5-2.06,2.31-.12.16.18.2.26.09.64-.81,1.32-1.59,2.06-2.31l-.25.05c.53.34,1.06.69,1.59,1.04v-.13c-.8.75-1.53,1.56-2.21,2.42l.25-.05c-.42-.33-.85-.67-1.27-1-.06-.05-.12-.09-.18-.14-.11-.08-.38.07-.24.18Z"/>
      </g>
      <g>
        <path class="cls-47" d="M1150.77,818.98c.89-1.05,1.76-2.18,2.58-3.35l-.22-.16c-.44-.27-.89-.55-1.35-.84-.78,1.1-1.59,2.16-2.43,3.15l1.41,1.2Z"/>
        <path class="cls-11" d="M1150.92,818.98c.91-1.08,1.77-2.2,2.58-3.35.01-.02.02-.05,0-.06-.51-.37-1.06-.68-1.59-1.01-.07-.04-.23,0-.27.07-.76,1.08-1.57,2.14-2.43,3.15-.01.02-.02.05,0,.06.47.4.94.8,1.41,1.2.08.07.37-.05.29-.12-.47-.4-.94-.8-1.41-1.2v.06c.85-1.01,1.66-2.07,2.43-3.15l-.27.07c.52.32,1.05.63,1.55.98v-.06c-.81,1.15-1.67,2.27-2.58,3.35-.05.06.04.08.08.09.07,0,.16-.03.21-.08Z"/>
      </g>
      <g>
        <path class="cls-7" d="M1115.11,785.59s-6.7,8.11-5.77,8.68l-.68,1.47c5.84,3.59,26.01,15.92,38.79,22.84,3.9,2.11,9,4.52,14.91,7.32,13.71,6.48,32.48,15.36,50.37,27.35,3.2,2.15,6.32,4.35,9.25,6.55,24.53,18.41,41.27,38.14,44.81,42.45l1.16-1.13c.54.66.82,1.02.82,1.02,0,0,1.72-1.44,3.28-2.75h0c.14-.12.27-.23.41-.34.56-.47,1.07-.9,1.45-1.22-6.79-15.86-58.14-56.08-72.19-61.95-.89-.37-1.84-.78-2.83-1.21-.41-.18-.85-.38-1.27-.57-.65-.29-1.29-.58-1.98-.89-14.75-6.72-35.89-17.7-35.89-17.7,0,0,1.45-1.71,3.02-3.81h0s.03-.04.05-.07c.67-.89,1.36-1.84,1.97-2.76-21.79-16.86-44.88-29.37-44.88-29.37l-4.77,6.08Z"/>
        <path class="cls-11" d="M1114.96,785.6c-.97,1.17-1.91,2.37-2.83,3.58-.67.89-1.34,1.8-1.95,2.73-.39.59-.96,1.32-1.08,2.03-.03.18.05.31.03.44-.07.44-.45.97-.64,1.38,0,.01,0,.02,0,.03,3.65,2.24,7.31,4.47,10.97,6.68,5.33,3.22,10.68,6.4,16.06,9.53,5.2,3.02,10.42,6.04,15.8,8.73,6.26,3.13,12.63,6.03,18.94,9.06,6.45,3.1,12.85,6.29,19.15,9.68,7.03,3.78,13.94,7.81,20.64,12.17,6.9,4.5,13.53,9.38,19.91,14.59,5.71,4.66,11.22,9.55,16.55,14.64,4.17,3.99,8.22,8.1,12.14,12.34,2.43,2.62,4.8,5.29,7.1,8.03.29.35.58.7.87,1.05.05.06.25-.02.29-.06.39-.38.77-.76,1.16-1.13l-.29.06c.28.34.55.68.82,1.02.05.07.24-.03.29-.06,1.09-.92,2.19-1.83,3.28-2.75l-.3.05h0c.03.09.26-.02.3-.05.62-.52,1.24-1.04,1.85-1.56.01,0,.02-.02.01-.03-1.25-2.91-3.25-5.5-5.25-7.94-2.85-3.47-5.97-6.72-9.17-9.87-3.81-3.74-7.76-7.34-11.79-10.85-4.23-3.68-8.55-7.26-12.93-10.76-4.2-3.35-8.47-6.61-12.82-9.78-3.69-2.68-7.42-5.3-11.27-7.75-2.68-1.71-5.41-3.41-8.3-4.73s-6.05-2.63-9.04-4.01-6.15-2.9-9.2-4.38c-5.72-2.78-11.42-5.63-17.09-8.52-1.82-.93-3.64-1.85-5.45-2.79-.48-.25-.97-.5-1.45-.75-.09-.05-.26-.1-.34-.17-.1-.1-.09.06.02-.11.29-.45.7-.85,1.04-1.27.64-.8,1.27-1.6,1.89-2.42l-.29.06h0c.07.05.26-.01.3-.08.67-.94,1.37-1.87,2.02-2.83,0-.01,0-.02,0-.03-7.93-6.13-16.18-11.84-24.61-17.24-5.64-3.61-11.37-7.1-17.19-10.41-1.02-.58-2.05-1.16-3.08-1.72-.07-.04-.24,0-.29.06-1.59,2.03-3.18,4.06-4.77,6.08-.07.08.24.04.29-.02,1.59-2.03,3.18-4.06,4.77-6.08l-.29.06c3.32,1.8,6.59,3.73,9.83,5.67,7.8,4.67,15.46,9.59,22.91,14.8,2.48,1.73,4.94,3.5,7.38,5.3,1.28.95,2.55,1.9,3.81,2.87.26.2.88.49.82.89-.04.26-.49.72-.64.93-.41.58-.84,1.14-1.25,1.72l.3-.08h0c-.06-.05-.25,0-.29.06-.98,1.29-1.98,2.57-3.02,3.81,0,.01-.03.03,0,.05,2.51,1.31,5.04,2.59,7.56,3.88,5.59,2.84,11.2,5.65,16.84,8.39,3,1.46,6.01,2.9,9.04,4.31,3,1.39,6.04,2.68,9.06,4.02,2.81,1.26,5.45,2.89,8.04,4.54,3.73,2.37,7.37,4.9,10.95,7.49,4.23,3.06,8.38,6.22,12.47,9.45,4.32,3.41,8.57,6.92,12.74,10.51,4,3.45,7.92,6.98,11.72,10.65,3.28,3.17,6.49,6.43,9.45,9.91,2.16,2.54,4.31,5.21,5.83,8.19.11.22.36.57.39.82.03.3-.43.55-.66.74-.37.31-.74.63-1.12.94l.3-.05h0c-.03-.09-.26.02-.3.05-1.09.92-2.19,1.83-3.28,2.75l.29-.06c-.27-.34-.55-.68-.82-1.02-.05-.06-.25.02-.29.06-.39.38-.77.76-1.16,1.13l.29-.06c-1.9-2.32-3.88-4.58-5.89-6.8-3.65-4.04-7.42-7.97-11.3-11.79-5.15-5.07-10.5-9.96-16.02-14.62-6.35-5.36-12.94-10.44-19.82-15.1-6.79-4.6-13.82-8.83-21-12.79-6.52-3.6-13.16-6.97-19.86-10.23-6.35-3.08-12.76-6.03-19.1-9.12-5.59-2.73-11.01-5.77-16.4-8.88-5.54-3.2-11.04-6.47-16.52-9.77-3.93-2.37-7.86-4.75-11.77-7.15-.07-.05-.35-.16-.39-.23-.04-.08.11-.31.16-.41l.49-1.06s0-.02,0-.03c-.37-.27.43-1.42.58-1.67.62-1.04,1.34-2.02,2.07-2.99,1.01-1.35,2.05-2.68,3.12-3.98.07-.08-.23-.04-.29.02Z"/>
      </g>
      <g>
        <path class="cls-7" d="M1154.31,881.83c.05-.52-.21-1.01-.62-1.29-.18-.12-.39-.2-.62-.23-.75-.09-1.42.45-1.49,1.2l-.78,8.44c.88.12,1.79.21,2.74.29l.78-8.41Z"/>
        <path class="cls-11" d="M1154.46,881.81c.05-.77-.47-1.45-1.24-1.59-.63-.11-1.32.17-1.64.74-.25.44-.22,1.06-.27,1.55l-.53,5.79c-.05.55-.1,1.1-.15,1.66,0,.06.05.08.1.08.91.12,1.82.21,2.74.29.06,0,.21-.03.22-.12.23-2.46.45-4.92.68-7.38.03-.34.06-.69.1-1.03.01-.14-.31-.09-.32.03-.23,2.46-.45,4.92-.68,7.38-.03.34-.06.69-.1,1.03l.22-.12c-.91-.08-1.83-.17-2.74-.29l.1.08c.12-1.27.23-2.53.35-3.8.14-1.51.28-3.02.42-4.53.04-.42.19-.81.57-1.04.89-.55,1.92.35,1.86,1.28,0,.14.31.09.32-.03Z"/>
      </g>
      <g>
        <path class="cls-7" d="M1162.23,882.75c.05-.52-.21-1.01-.62-1.29-.18-.12-.39-.2-.62-.23-.75-.09-1.42.45-1.49,1.2l-.75,8.09c.9.03,1.81.05,2.76.07l.72-7.84Z"/>
        <path class="cls-11" d="M1162.39,882.73c.05-.73-.43-1.39-1.15-1.55-.61-.14-1.3.1-1.66.62-.3.43-.27,1.04-.32,1.55l-.52,5.59c-.05.53-.1,1.07-.15,1.6,0,.05.05.06.09.06.92.03,1.84.05,2.76.07.05,0,.21-.03.22-.11.21-2.29.42-4.57.63-6.86.03-.33.06-.66.09-.98.01-.12-.31-.06-.32.04-.21,2.29-.42,4.57-.63,6.86-.03.33-.06.66-.09.98l.22-.11c-.92-.02-1.84-.04-2.76-.07l.09.06c.11-1.23.23-2.46.34-3.7.13-1.44.26-2.88.4-4.32.04-.45.25-.88.68-1.08.89-.42,1.81.48,1.75,1.37,0,.12.31.06.32-.04Z"/>
      </g>
      <g>
        <path class="cls-7" d="M1169.5,890.74l.65-7.06c.05-.52-.21-1.01-.62-1.29-.18-.12-.39-.2-.62-.23-.75-.09-1.42.45-1.49,1.2l-.68,7.33c.9.01,1.82.03,2.76.05Z"/>
        <path class="cls-11" d="M1169.66,890.7c.1-1.05.19-2.1.29-3.15.12-1.27.23-2.54.35-3.81.02-.27,0-.53-.1-.78-.24-.54-.78-.87-1.36-.87-.81,0-1.5.55-1.58,1.37-.11,1.19-.22,2.39-.33,3.58l-.21,2.29-.08.85c-.01.16-.05.32-.04.48,0,.02,0,.04,0,.07,0,.02.05.02.06.02.92.01,1.84.03,2.76.05.06,0,.18-.01.22-.06.03-.04.06-.07-.02-.07-.92-.02-1.84-.04-2.76-.05l.06.02c.09-.96.18-1.92.27-2.88.12-1.35.25-2.69.37-4.04.05-.51.11-1.02.58-1.34.57-.39,1.35-.05,1.68.49.17.28.22.59.19.91-.1,1.16-.21,2.31-.32,3.47l-.2,2.19-.07.81c-.01.15-.05.31-.04.46,0,.02,0,.04,0,.06,0,.04.31,0,.32-.08Z"/>
      </g>
      <g>
        <path class="cls-7" d="M1178.08,884.6c.05-.52-.21-1.01-.62-1.29-.18-.12-.39-.2-.62-.23-.76-.09-1.42.45-1.49,1.2l-.61,6.61c.91.03,1.82.07,2.75.12l.59-6.42Z"/>
        <path class="cls-11" d="M1178.24,884.59c.05-.64-.31-1.24-.9-1.49-.54-.23-1.19-.14-1.64.24-.47.4-.5.94-.56,1.5-.14,1.56-.29,3.11-.43,4.67-.04.47-.09.94-.13,1.41,0,.06.05.09.1.09.92.03,1.83.07,2.75.12.07,0,.21-.03.22-.12.17-1.87.35-3.74.52-5.61.02-.27.05-.54.07-.8.01-.15-.31-.1-.32.03-.17,1.87-.35,3.74-.52,5.61-.02.27-.05.54-.07.8l.22-.12c-.92-.05-1.83-.09-2.75-.12l.1.09c.1-1.08.2-2.15.3-3.23.1-1.13.19-2.25.31-3.38.06-.56.46-1.05,1.05-1.09.8-.06,1.42.67,1.37,1.43-.01.15.31.1.32-.03Z"/>
      </g>
      <g>
        <path class="cls-7" d="M1186,885.53c.05-.52-.21-1.01-.62-1.29-.18-.12-.39-.2-.62-.23-.75-.09-1.42.45-1.49,1.2l-.57,6.16c.91.07,1.82.15,2.74.24l.56-6.09Z"/>
        <path class="cls-11" d="M1186.16,885.51c.04-.6-.27-1.18-.81-1.45-.51-.26-1.14-.21-1.62.11-.36.25-.58.64-.63,1.07-.01.14-.03.28-.04.41l-.4,4.39c-.04.45-.08.9-.12,1.35,0,.06.05.09.1.09.91.08,1.83.15,2.74.24.07,0,.21-.03.22-.12.16-1.78.33-3.56.49-5.34.02-.25.05-.5.07-.75.01-.15-.31-.1-.32.03-.16,1.78-.33,3.56-.49,5.34-.02.25-.05.5-.07.75l.22-.12c-.91-.09-1.83-.17-2.74-.24l.1.09c.09-1.02.19-2.04.28-3.06s.17-2.07.29-3.1c.07-.61.56-1.12,1.19-1.08.73.04,1.27.71,1.22,1.43-.01.15.31.1.32-.03Z"/>
      </g>
    </g>
    <path class="cls-23" d="M617.94,598.7l-23.47,3.74s-24.69,21.74-39.19,26.57c-10.61,3.1-21.61,4.71-32.66,4.78l-32.79,11.59s-11.19,12.98-15.5,9.78c-4.31-3.2-1.41-9.16,1.42-14.94,2.83-5.78,66.62-68.33,66.62-68.33-9.25-.27-18.51.26-27.67,1.57-14.06,2.12-22.03-4.56-17.85-11.12,2.58-4.04,21.82-11.63,29.29-8.14,7.47,3.48,22.53-8.16,37-8.32,14.48-.15,29.27,12.92,29.27,12.92,7.67.9,18.66-.17,18.66-.17,8.38,11.18,6.87,40.07,6.87,40.07Z"/>
    <path class="cls-51" d="M505.75,634.13c.47.03.2.02-.04-.36-.3-.47-.49-1.01-.62-1.55-.28-1.15-.25-2.37-.01-3.52.38-1.8,1.4-3.49,2.54-4.92,2.61-3.29,6.18-5.79,9.9-7.68,4.24-2.15,8.92-3.49,13.58-4.37,2.41-.46,4.83-.66,7.27-.91,2.6-.27,5.09-.4,7.7-.08.94.12,2.12-1.21.74-1.38-4.39-.54-8.91-.02-13.27.62-4.25.63-8.42,1.68-12.46,3.13-6.55,2.36-13.78,6.64-17.06,13.06-.95,1.86-1.39,3.89-1.08,5.97.15,1.02.72,3.27,2.08,3.35.93.05,2.12-1.3.74-1.38h0Z"/>
    <path class="cls-51" d="M520.71,610.2c.23.45-.05.33.18.17.21-.15.39-.47.56-.66.61-.66,1.26-1.29,1.92-1.9,2.07-1.92,4.25-3.74,6.46-5.51s4.44-3.49,6.76-5.11c.79-.55,1.58-1.1,2.4-1.59.26-.16.53-.3.8-.44.09-.04.25-.16.22-.11.02-.03-.41.14-.67-.1.67.61,2.45-.38,1.58-1.18-1.04-.95-3.47,1-4.27,1.52-2.73,1.79-5.32,3.8-7.87,5.83-2.58,2.07-5.13,4.19-7.53,6.47-.67.63-3.01,2.38-2.42,3.52.42.81,2.37.05,1.88-.9h0Z"/>
    <path class="cls-51" d="M551.04,602.54c1.69-1.17,1.42.33.99-.44-.14-.24-.36-.47-.52-.7-.49-.74-.89-1.54-1.24-2.37-1.06-2.53-1.63-5.29-1.64-8.03s.47-5.42,1.49-7.92c.34-.84.74-1.67,1.23-2.45.17-.27.37-.52.56-.78.06-.08.21-.17.24-.26-.12.4-2.07-.43-1.26.1.73.47,2.54-.54,1.59-1.15-1.6-1.04-3.11,1.86-3.63,2.86-1.54,2.98-2.3,6.42-2.28,9.77.02,3.34.74,6.69,2.26,9.68.6,1.2,1.84,3.77,3.57,2.57,1.14-.79-.54-1.44-1.35-.88h0Z"/>
    <path class="cls-51" d="M589.58,558.16c4.3,6.3,7.08,14.99,2.1,21.76-.31.41.26.67.59.71.5.06,1.05-.19,1.34-.59,5.2-7.07,2.36-16.14-2.14-22.73-.44-.65-2.42.07-1.89.84h0Z"/>
    <path d="M149.83,574.57l.09,1.15c3.08,6.38,7.09,9.92,12.81,9.43.03.06,6.13,12.64,19.18,9.39,11.33-2.82,13.53-9.02,13.53-9.02,0,0,5.79,1.76,8.41.53,5.89-2.75,5.83-11.3,4.04-16.35-2.43-6.89-5.44-11.81-5.44-11.81,0,0-3.79-4.39-6.83-7.42-3.04-3.02-10.53-4.18-10.53-4.18,0,0-.26-7.82-3.77-8.08-3.52-.26-14.24-4.48-14.24-4.48,0,0-2.91,2.47-7.75,8.12,0,0-5.43.93-5.23,8.09.04,1.55.35,3.39,1.03,5.58,0,0-2.65.53-5.69,5.56-1.32,2.17-1.95,8.61.39,13.46Z"/>
    <path d="M216.43,577.09c22.49,2.63,36.78-13.18,51.28-29.24,8.48-9.39,15.31-21.05,16.37-33.88.92-11.12-2.01-22.31-5.93-32.63-3.54-9.32-7.92-17.2-16.16-23.16-7.84-5.67-17.38-8.75-26.98-9.5-2.87-.22-5.74-.3-8.62-.29-25.51-.13-57.6,14.06-66.27,36.45-.78,2.03-1.43,4.19-2,6.42,0,0-1,4.77-.94,6.38,1.16,28.63,12.61,80.67,53.2,76.98,3.55-.32,6.74-.1,6.05,2.46Z"/>
    <path class="cls-23" d="M287.54,541.07c-.31-6.77-3.38-17.14-5.51-20.29-.4-3.1-.88-6.69-1.48-11.02-.17-1.26-.38-2.46-.59-3.64-.17-.6-.28-1.21-.34-1.83-4.05-20.92-12.77-30.83-12.77-30.83-11.12-12.53-28.06-18.21-44.49-14.91-19.4,3.47-35.08,18.04-42.35,31.35-3.61,6.59-4.66,14.29-2.94,21.61,1.46,6.26,8.26,12.35,11.07,18.96-6.85.76-15.17,4.04-10.7,16.15,6.17,16.69,19.25,16.13,24.43,11.54,5.52,7.19,6.76,11.77,7.95,16.46,1.23,4.87,1.39,14.41.8,16.63l-11.69,7.07c18.44,21.26,71.99,36.65,81.6-2.09l-15.57-6.46-1.7-8.24c.45-.1-.44.09,6.36-3.33,20.22-11.6,18.27-29.13,17.9-37.11Z"/>
    <path class="cls-51" d="M264.01,584.92l-.67-3.64s-21.88,6.01-38.14-3.04c0,0,11.73,9.1,23.18,8.9,11.45-.2,15.64-2.22,15.64-2.22Z"/>
    <g>
      <path d="M196.43,535.61c.23.52.5,1.09.35,1.64-.2.74-1.1,1.09-1.85.97s-1.4-.59-2.03-1.01c-4.1-2.75-13.54-6.7-18.1-4.79-9.62-16.83-10.3-35.34-1.47-52.62,2.8-5.46,10.7-11.81,13.1-13.84,14.61-12.17,28.31-13.87,45.34-13.32,25.49.87,28.13,3.75,39.44,23.98,0,0-31.62-10.2-58.86,2.68.84.16-16.35,10.68-16.56,11.01-1.82,2.88.85,4.77.89,10.32.03,4.04.93,6.96-1.86,9.91-1.94,2.05-2.12,10.26-1.7,13.05l3.3,12.04Z"/>
      <path d="M194.98,535.99c.16.37.2.8.34,1.14-.09.28-.02.4.22.35.32.05.27,0-.15-.12-.49-.29-.96-.59-1.44-.9-.75-.48-1.53-.92-2.32-1.34-1.86-.97-3.78-1.81-5.76-2.48-3.65-1.24-7.86-2.14-11.59-.69l1.98.04c-7.04-12.42-9.61-26.87-5.97-40.79.94-3.59,2.25-7.09,3.87-10.44,1.29-2.66,3.01-4.93,5.03-7.08,3.57-3.8,7.64-7.29,11.85-10.36,5.13-3.73,10.82-6.59,16.97-8.2,5.74-1.5,11.7-1.93,17.61-1.95,5.71-.02,11.49.19,17.17.86,3.64.43,7.32,1.1,10.66,2.69,3.27,1.56,5.91,4.08,8.11,6.92,3.18,4.12,5.68,8.78,8.21,13.32l2.63-1c-4.2-1.35-8.63-2.16-12.99-2.8-9.66-1.42-19.58-1.55-29.22.06-6.46,1.08-12.76,2.97-18.69,5.75-.31.15-.94.67-.32.89-.76-.27,0-.35-.21-.4-.06-.01-.11.09-.02.02-.23.16-.45.35-.68.51-.68.49-1.38.96-2.08,1.42-1.98,1.32-3.99,2.6-6,3.88-1.86,1.19-3.74,2.36-5.6,3.55-1.11.71-2.23,1.21-2.68,2.53-.37,1.09-.16,2.21.14,3.29.43,1.53.91,3.02,1.08,4.61.21,1.93.24,3.95.26,5.89.01,1.79-.34,3.51-1.5,4.92-1.76,2.14-2.08,4.78-2.28,7.49-.16,2.12-.35,4.5.14,6.59.93,3.96,2.16,7.86,3.23,11.78.22.78,3.11.01,2.9-.78-1.01-3.69-2.03-7.39-3.04-11.08-.47-1.73-.48-3.49-.43-5.28.07-2.58.08-6.16,1.69-8.34,1.07-1.44,1.91-2.62,2.12-4.46.19-1.68-.02-3.37-.07-5.05-.06-1.94-.23-3.76-.77-5.63-.34-1.19-.92-2.5-.75-3.76.06-.47.24-1,.5-1.4-.2.31.01,0,.21-.12.58-.37,1.15-.75,1.72-1.12,1.9-1.21,3.8-2.41,5.7-3.61,2.2-1.4,4.4-2.79,6.56-4.26.3-.2,3.32-2.06,2.21-2.44l-.32.89c16.25-7.61,35.6-7.54,52.81-3.43,1.35.32,2.7.66,4.01,1.08.39.12,3.03-.28,2.63-1-2.37-4.24-4.73-8.54-7.58-12.48-2.01-2.79-4.36-5.36-7.32-7.15-3.16-1.91-6.75-2.87-10.36-3.46-5.43-.89-10.99-1.08-16.48-1.21-12.77-.31-25.49,1.19-36.72,7.68-5.03,2.91-9.55,6.6-13.84,10.49-2.21,2.01-4.35,4.12-6.19,6.47-2.03,2.59-3.41,5.59-4.62,8.64-5.48,13.8-4.96,29.07,1.21,42.55.79,1.72,1.66,3.41,2.6,5.06.32.57,1.54.21,1.98.04,1.76-.69,4.1-.09,5.85.36,2.33.6,4.6,1.47,6.77,2.51.93.45,1.85.93,2.73,1.47.93.57,1.81,1.33,2.89,1.61,1.14.29,2.48.05,3.49-.53,1.28-.73,1.38-1.75.81-3.03-.36-.81-3.19.12-2.9.78Z"/>
    </g>
    <circle cx="275.99" cy="516.21" r="4.32"/>
    <path d="M280.48,511.85c-2.24-.97-5.18-1.38-9.26-.37-6.53,1.62-8.23,10.36-8.23,10.36,0,0,2.53-6.87,8.93-8.63,3.09-.85,6.26-.34,8.85.51-.16-.62-.26-1.25-.29-1.88Z"/>
    <path d="M237.05,508.16s-19.7,3.71-22.54,7.97c0,0,.91-5.93,17.26-10.26,0,0,8.78-.41,5.27,2.28Z"/>
    <path d="M280.28,500.76c-.02-.14-.04-.28-.06-.42-2.73-.48-6.66-.63-12.24.15,0,0-6.86,2.09-2.97,3.24,0,0,8.92-2.01,15.34-2.01-.01-.32-.02-.64-.08-.96Z"/>
    <path class="cls-21" d="M183.74,547.23c-.79-1.5-1.38-3.18-1.32-4.89.02-.46.07-.92.19-1.36.03-.13.08-.26.12-.39.02-.07.12-.27,0-.02l-.75.47c.1-.03-.35.06-.21.04.12-.02.18.05-.11,0,.03,0,.18-.02.19,0,0,0,.08,0,.09,0-.3-.02-.11-.02-.04,0,.61.16.96.27,1.62.64,2.87,1.6,5.16,4.3,7.21,6.8l1.63-.85c-.89-.45-1.99-.68-2.97-.4-1.29.37-1.79,1.42-1.68,2.69.09,1.03.62,2.03,1.43,2.67,1.27,1.01,2.9,1.17,4.46,1.09.33-.02,1.03-.26,1.08-.66.06-.44-.54-.45-.83-.43-1.87.1-3.74-.73-4.17-2.69-.07-.31-.1-.63-.07-.95.02-.25.19-.59.2-.78,0,.12-.44.01.02.07.18.02.36.07.53.13s.34.13.49.21c.41.21,2.17-.2,1.63-.85-1.56-1.9-3.21-3.76-5.11-5.33-.98-.81-2.05-1.6-3.23-2.08-.57-.23-1.16-.4-1.78-.4-.27,0-.52.03-.78.12-.58.2-.73.56-.87,1.08-.59,2.22.09,4.6,1.13,6.57.35.66,2.2.05,1.9-.51h0Z"/>
    <circle cx="234.02" cy="523.28" r="4.32"/>
    <path d="M246.45,524.21s-7.8-7.64-14.99-5.91c-10.12,2.43-10.87,9.52-12.34,13.11,0,0,4.95-9.73,12.83-11.41,7.14-1.53,14.5,4.21,14.5,4.21Z"/>
    <g>
      <path class="cls-7" d="M262.39,542.49c-1.16.99-3.21,1.29-4.72.76-.34-.12-1.28.28-.81.45,2,.69,4.91.14,6.41-1.14.15-.13.09-.25-.14-.27-.24-.02-.58.07-.74.21"/>
      <path class="cls-7" d="M256.2,543.45c-.98-.22-2.02-.22-3.03-.07-.15.02-.32.12-.41.24-.07.09-.06.2.06.24.52.16,1.12.14,1.66,0,.17-.04.38-.13.44-.3.06-.15-.12-.2-.26-.17-.44.11-.91.12-1.34,0-.12.16-.23.32-.35.48.9-.13,1.84-.13,2.71.07.17.04.39-.06.51-.18.09-.09.17-.26,0-.3"/>
      <path class="cls-7" d="M252.29,544.46c-1.17.23-2.65.04-3.41-.71-1.16-1.13-.85-3.53.41-4.71.14-.13.03-.23-.14-.23-.22,0-.45.14-.59.27-1.1,1.02-1.51,3.06-1.04,4.26.44,1.12,1.73,1.68,3.19,1.7.44,0,.89-.03,1.33-.11.18-.04.48-.16.54-.32.06-.16-.12-.18-.28-.15"/>
      <path class="cls-7" d="M264.38,541.42c-.09-.12,0-.23.1-.25.32-.06.62-.22.83-.5.13.1.26.21.39.31-.61.21-1.19.56-1.67,1.06-.09.1-.27.09-.39.03-.09-.05-.2-.17-.11-.28"/>
      <path class="cls-7" d="M263.54,541.79c.53-.56,1.19-.94,1.87-1.18.1-.03.25,0,.34.07.08.06.11.16.05.24"/>
      <path class="cls-7" d="M266.83,541.03c.75-.2,1.52-.91,1.7-1.87.26-1.45-.61-2.9-1.74-3.53-.12-.07-.1-.2,0-.26.13-.08.3-.03.43.04.99.55,1.79,1.63,1.94,2.9.14,1.19-.4,2.16-1.22,2.7-.25.16-.52.29-.8.37-.11.03-.33.02-.42-.1-.09-.13,0-.21.11-.24"/>
    </g>
    <path class="cls-23" d="M141.45,801.73c.72,18.24-3.62,57.68,50.96,59.81l-24.95-5.35.53,44.38s153.31-2.2,158.08-2.32c9.19-.21,30.78-12.61,33.8-41.2,3.01-28.59-20.1-35.54-27.05-40.69-6.95-5.15-83.69-29.44-112.92-33.65l-70.62,8.72-7.83,10.31Z"/>
    <path class="cls-23" d="M155.57,874.34c-1.79-3.88-6.67-7.88-10.09-9.68-3.42-1.8-7.42.15-8.48.66-7.96,3.75-11.88,10.61-18.03,16.63-4.71,4.61-9.99,8.65-15.68,11.98-5.78,3.39-12.15,5.25-18.02,8.34-.04.02-.08.04-.13.07-2.91,1.53-5.19,4.04-6.47,7.07-.47,1.11-.94,2.2-1.47,3.23-.73,1.43-1.55,2.51-.66,4.13,1.64,2.99,6.66.89,8.13.2.27-.13.57-.18.87-.17,1.2.06,4.74.05,10.65-1.49.57-.15,1.13-.25,1.69-.33.01.03.02.07.04.1,3.15-.63,17.09-1.65,19.64-2,5.03-.69,20.57-6.48,20.57-6.48,0,0,24.05-4.83,30.94-.96l3.45-23.78s-15.16-3.64-16.95-7.52Z"/>
    <path class="cls-23" d="M133.84,824.53c.72,18.24-3.62,57.68,50.96,59.81l-12.28-2.47-3.45,23.78s125.77,20.11,149.39,15.4c9.19-.21,30.78-12.61,33.8-41.2,3.01-28.59-20.1-35.54-27.05-40.69-6.95-5.15-83.69-29.44-112.92-33.65l-70.62,8.72-7.83,10.31Z"/>
    <path class="cls-21" d="M354.56,880.01c.84-8.15-.35-16.48-4.96-23.4-3.39-5.09-8.2-8.93-13.39-12.08-2.06-1.25-4.18-2.38-6.26-3.59-1.24-.72-2.38-1.6-3.64-2.29-3.33-1.83-7.03-3.1-10.58-4.42-13.41-4.97-27.1-9.24-40.8-13.34-15.17-4.54-30.45-8.84-45.91-12.32-3.08-.69-6.17-1.35-9.28-1.94-1.37-.26-2.74-.5-4.11-.72-.81-.13-1.68-.36-2.49-.32-2.49.1-5.03.62-7.49.92-11.95,1.47-23.9,2.94-35.85,4.41-9.02,1.11-18.05,2.22-27.07,3.33-.94.12-1.69.3-2.29,1.09-1.74,2.27-3.47,4.54-5.21,6.82-.68.89-1.5,1.77-2.08,2.73-.36.59-.21,1.21-.2,1.92.05,2.05.07,4.1.11,6.15.2,10.06,1.08,20.45,5.78,29.54,2.64,5.12,6.46,9.55,11.13,12.92,6.03,4.34,13.2,6.84,20.45,8.25,4.64.9,9.36,1.36,14.08,1.55.3.01,2-.63,1.4-.76-7.34-1.56-14.67-3.13-22.01-4.69-1.03-.22-2.06-.44-3.09-.66-.4-.09-.98.03-1.33.24-.14.08-.67.4-.23.5,7.34,1.56,14.67,3.13,22.01,4.69,1.03.22,2.06.44,3.09.66l1.4-.76c-10.12-.41-20.57-2.05-29.58-6.92-6.26-3.39-11.48-8.37-14.92-14.62-5.74-10.41-6.14-22.47-6.32-34.06-.02-1.18-.29-2.63-.09-3.79.16-.9,1.32-1.94,1.89-2.68,1.99-2.6,3.98-5.21,5.97-7.81l-1.35.55c3.92-.48,7.84-.96,11.76-1.45,8.46-1.04,16.92-2.08,25.38-3.12,8.21-1.01,16.41-2.02,24.62-3.03,2.47-.3,4.93-.61,7.4-.91.55-.07,1.11-.15,1.66-.2.06,0,.36-.02.14-.02-.02,0,.74.13,1.03.17.45.07.91.14,1.36.22,9.27,1.54,18.42,3.8,27.51,6.14,11.06,2.86,22.04,5.98,32.97,9.27,10.01,3.01,19.99,6.16,29.88,9.56,6.25,2.15,12.69,4.2,18.63,7.14,1.81.89,3.42,2.13,5.18,3.12,3.08,1.75,6.19,3.45,9.1,5.49,3.59,2.52,6.87,5.51,9.39,9.12,2.98,4.27,4.74,9.25,5.34,14.42.36,3.16.3,6.35-.02,9.51-.03.25,1.84.06,1.9-.51h0Z"/>
    <path class="cls-21" d="M295.7,889c.11-.14,1.01-.57,1.14-.48-.03-.02-.1.01-.13,0-.16-.03-.38,0-.54,0-.56,0-1.12-.02-1.69-.03-2-.05-4.01-.11-6.01-.18-6.74-.23-13.47-.5-20.21-.77-15.85-.65-31.71-1.35-47.55-2.17-2.45-.13-4.91-.26-7.36-.41-.68-.04-1.36-.08-2.05-.14-.19-.02-.41-.06-.6-.05-.32.02-.12-.14.02.07-.32-.47-2.16.14-1.77.71.27.39,1.87.27,2.24.29,1.97.13,3.95.24,5.92.35,7,.38,14,.71,21.01,1.04,16.38.76,32.77,1.48,49.16,2.04,2.32.08,4.63.16,6.95.21.87.02,2.58.29,3.21-.5.48-.6-1.4-.42-1.75.02h0Z"/>
    <path class="cls-22" d="M271.21,750.12c5.79-16.75,5.78-22.43,9.31-38.58-6.89.15-13.77.21-20.66.13-10.16-.11-20.31-.49-30.45-1.22-9.21-.66-18.31-1.63-27.38-3.37-8.83-1.69-17.6-3.71-26.48-5.17-7.57-1.24-14.34-2.13-22.01-1.68.32,13.67-8.16,25.06-10.29,31.85l-7.45,14.4-10.47,20.74c-3.85,7.19-7.17,20.27-8.26,28.33-13.45,99.53,83.19,92.4,83.19,92.4,0,0,15.59-29.83,19.53-35.25l8.44-10.29c2.65.53,13.62-15.78,22.32-22.33,18.64-14.03,49.77-14.54,49.77-14.54l-25.57-32.25-3.55-23.18Z"/>
    <path class="cls-28" d="M294.77,609.66c-12.45-18.87-27.23-19.08-27.23-19.08,9.8,15.67,1.34,18.14,1.34,18.14-13.92,7.39-50.6-1.58-58.43-25.39l-9.7,5.02c-34.58,13.31-40.49,48.28-42.18,61.15-1.08,8.25-3.04,35.45-3.47,58.24,7.66.38,11.69,1.84,19.03,3.91,9.4,2.66,18.59-7.49,27.91-4.57,4.48,1.4,10.1,4.18,14.68,5.23,4.63,1.06,15.81,3.37,20.53,3.85,10.24,1.04,12.32-4.8,22.61-4.48,5.41.17,11.76,10.29,17.19,9.9,1.93-7.32,3.5-8.4,6.01-17.3l-4.24-27.2c5.05.98,18.2-2.4,22.21-5.36,18.06-13.31,14.74-10.35,14.74-10.35,0,0-18.39-47.77-21-51.71Z"/>
    <path class="cls-22" d="M267.49,630.77c4.31-1.33,5.8-2.02,7.86-6.03,6-11.7-4.19-28.42-10.37-34.98-.07-.07,5.26,1.08,5.24.99,1.08.24,2.43.58,4.01,1.06,3.37,3.11,5.7,7.24,7.65,11.36,1.9,4.01,3.48,8.17,4.84,12.4,2.22,6.91,4.1,13.8,4.91,20.99.81,7.14.83,14.37.04,21.51-.62,5.62-1.81,11.17-2.54,16.77-.01,0-.02,0-.04,0l-6.04,29.13c-2.5,8.9-4.44,17.02-6.37,24.34-5.42.39-10.88.4-16.29.23-10.29-.32-20.55-1.36-30.79-2.4-4.72-.48-9.36-1.06-14-2.11-4.58-1.04-9.1-2.36-13.58-3.76-9.32-2.92-19.19,10.19-28.58,7.53-7.34-2.07-14.26,1.22-21.92.84.43-22.79,5.96-71.19,7.04-79.44,1.56-11.95,6.8-42.95,35.24-57.98-3.98,4.14-7.78,8.45-11.08,13.16-4.18,5.98-7.33,12.56-9.42,19.54-3.57,11.91-4.71,26,4.38,35.81,2.42,2.61,5.37,4.63,8.48,6.34,3.42,1.87,7.09,3.44,10.92,4.21,6.64,1.34,14.78.26,18.99-5.62,3.42-4.78,3.15-11.15,2.73-16.71-.5-6.63-1.18-13.25-2.24-19.81-2.2-13.56-47.73-8.53-40.62-20.46,6.28-10.54,18.22-15.93,17.84-16.46l16.64-7.86c-.08,2.15,1.76,5.4,3.4,9.12,2.01,4.55,16.1,20.53,20.21,23.29,5.41,3.64,11.67,12.22,20.24,15.19,0,0,6.59,1.87,13.2-.17Z"/>
    <path class="cls-22" d="M275.58,779.7c8.95,2.32,21.68,15.47,30.64,17.79,13.4,3.47,31,12.23,40.74,22.07.76.77,1.53,1.92.95,2.83-.42.66-1.32.76-2.08.93-5.29,1.21-7.24,8-12.01,10.59-4.33,2.36-10.05.74-14.32,3.21-3.99,2.31-5.41,7.38-8.69,10.62-3.2,3.17-7.91,4.31-12.41,4.48s.62.79-3.88.93c-2.08.06-5.56,4.71-6.74,6.42-1.4,2.03-1.69,3.18-1.94,5.64-.33,3.26.29,9.76-2.55,11.4-2.84,1.64-6.07,2.46-9.13,3.64-1.32.51-2.72,1.18-3.37,2.44-.44.85-.48,1.85-.5,2.82-.06,2.46.87,1.15.8,3.61-18.94-.4-58.01-.53-76.95-.93,0,0,5.93-33.86,26.26-58.17,20.33-24.32,55.18-50.31,55.18-50.31Z"/>
    <rect class="cls-29" x="147.28" y="907.26" width="52.76" height="38.14"/>
    <polygon class="cls-9" points="200.05 945.4 213.55 938.16 213.55 900.02 200.05 907.26 200.05 945.4"/>
    <rect class="cls-16" x="186.77" y="938.04" width="52.76" height="38.14"/>
    <polygon class="cls-33" points="239.53 976.19 253.03 968.95 253.03 930.8 239.53 938.04 239.53 976.19"/>
    <polygon class="cls-52" points="186.77 938.04 200.27 930.8 253.03 930.8 239.53 938.04 186.77 938.04"/>
    <rect class="cls-17" x="264.73" y="932.85" width="52.76" height="38.14"/>
    <polygon class="cls-43" points="317.5 970.99 331 963.75 331 925.61 317.5 932.85 317.5 970.99"/>
    <polygon class="cls-14" points="264.73 932.85 278.23 925.61 331 925.61 317.5 932.85 264.73 932.85"/>
    <polygon class="cls-18" points="146.89 907.16 160.39 899.92 213.15 899.92 199.65 907.16 146.89 907.16"/>
    <path class="cls-10" d="M260.12,550.86c-5.69,1.34-15.06,2.86-15.06,2.86,0,0,2.74,15.57,18.46,11.61,13.14-3.31,10.08-18.01,10.08-18.01,0,0-7.79,2.21-13.48,3.54Z"/>
    <path class="cls-35" d="M260.18,550.85c-2.71.64-12.81,2.89-12.81,2.89,0,0,4.98,8.12,14.76,5.82,10.61-2.49,9.75-10.85,9.75-10.85l-11.71,2.13Z"/>
    <path class="cls-15" d="M260.53,551.83c-2.71.64-11.04,2.13-11.04,2.13,0,0,3.63,2.15,11.75.25,8.12-1.91,10.04-5.28,10.04-5.28l-10.75,2.9Z"/>
    <path class="cls-10" d="M273.53,547.25c-.07-.29-.68-.28-2.05-.08-2.28.34-3.2-.29-4.85-.03-2.82.45-4.33,1.91-5.53,2.19-1.2.28-3.21-.35-5.93.5-1.59.5-5.48,2.01-7.67,2.72-1.32.43-3.01.29-3.28.43-.38.19,1.42,3.64,16.56.08,15.14-3.56,12.86-5.43,12.77-5.83Z"/>
    <ellipse class="cls-27" cx="905.02" cy="461.59" rx="23.99" ry="16.02" transform="translate(-55.92 131.86) rotate(-8.08)"/>
    <path class="cls-24" d="M1010.91,621.65l39.78,150.29-51.01,9.6,4.63,100.69s-261.2.56-276.41-20.63c-27.15-37.81-26.84-60.1-12.18-86.68,26.91-48.8,214.25-160.93,217.6-159.02l77.58,5.75Z"/>
    <path class="cls-39" d="M889.22,266.99s-67.67,39.78-83.64,57.26c-20.42,22.36-22.37,96.9-28.57,122.04-6.87,27.86-22.48,118.5-22.48,118.5l100.38,16.73,33.31-98.35.22-221.7.78,5.52Z"/>
    <path class="cls-23" d="M944.05,193.16s1.8,15.56,9.42,33.09c10.99,25.29,37.12,31.93,37.12,31.93l-83.46,82.61-47.45-26.61s14.24-21.67,13.28-27.06c-.96-5.38-16.84-39.03-16.84-39.03"/>
    <path class="cls-39" d="M970.52,246.9l6.6,1.36c21.24,3.24,58.07,6.79,87.67,19.67,45.59,19.85,22.39,93.77,25,114.54,1.2,10.09-23.19,107.49.44,161.38,15.64,35.86,29.1,72.63,40.31,110.1l-58.58,24.06c-28.62,11.76-75.76-16.51-106.49-13.14l-78.16-21.04c-8.58-39.18-21.12-17.12-30.22-69.07l-35.67-154.59,4.75-78.07s20.18-20.12,20.96-24.29l23.19-36.6s-5.46,28.72,25.79,25c32.27-3.84,46.53-12.73,65.15-36.98,0,0,9.7-10.88,9.27-22.33Z"/>
    <path class="cls-39" d="M1183.67,596.09c-4.48-19.32-14.84-40.37-26.1-56.76-10.88-15.84-19.89-29.87-24.55-49.3-11.66-48.69-22.02-195.57-56.94-213.98-5.53-2.92-67.88-3.36-67.88-3.36,0,0-1.74-1.74-1.74-1.74,4.79,4.8-24.45,32.91-27.61,35.7-21.02,18.51-49.14,39.89-77.28,22.96l.18,6.48-3.4,34.85,13.17,94.66c-.17-.98,4.33,33.34,8.06,48.92,14,58.7,50.95,208.16,56.42,218.18,3.67,7.16,11.33,11.36,19.34,10.61,0,0,184.87-100.73,185.68-101.17,9.35-5.1,6.96-16.34,5.93-26.71,0,0,.09-4.69-3.3-19.31Z"/>
    <path class="cls-24" d="M1049.07,668.73l44.74,135.12,1.27,3.14,11.11,7.99c8.89,19.75,13.55,41.35,13.66,63.24l.09,19.81s-281.03,72.15-341.44,26.31c-36.43-27.65-29.81-58.5-16.51-85.87,24.24-49.86,205.03-182.87,211.17-183.07.08,0,.15.02.23.02l75.67,13.32Z"/>
    <path class="cls-24" d="M1186.02,638.02s-33.87,22.6-89.23-5.53c-17.76,11.69-36.51,21.85-55.56,31.33-35.76,17.79-72.67,33.23-107.94,51.9,26.71,23.93,75.45,65.23,106.61,82.91,40.75,23.44,90.96,10.77,125.18-21.48,13.8-13.42,43.38-92.48,20.94-139.14Z"/>
    <path d="M1096.5,810.08c-11.17,2.57-23,4.73-34.57,6.87-16.33,3.01-32.69,5.88-49.05,8.7-16.78,2.89-33.56,5.71-50.36,8.48-12.93,2.13-25.86,4.24-38.8,6.27-3.48.55-7.07.88-10.5,1.68-5.94,1.38-12.88,3.89-16.82,8.77-1.07,1.32-1.85,2.83-2.17,4.51-.17.91,2.98.39,3.15-.5,1.26-6.6,9.1-9.67,14.74-11.21.44-.12.88-.23,1.33-.34.14-.03.28-.06.42-.1.37-.09-.43.06-.1.02.67-.09,1.33-.2,2-.3,1.94-.29,3.87-.59,5.81-.89,12.31-1.92,24.6-3.92,36.89-5.94,16.5-2.71,32.98-5.48,49.46-8.3,16.44-2.82,32.87-5.68,49.27-8.68,12.22-2.24,24.46-4.48,36.6-7.14,1.01-.22,2.02-.45,3.03-.68.36-.08,1.57-.48,1.42-1.03s-1.44-.25-1.75-.18h0Z"/>
    <path d="M751.19,870.74c.35-17,.79-34.39,5.75-50.79,2.4-7.92,5.97-15.55,10.98-22.15,4.96-6.53,10.97-12.18,17.04-17.67,6.04-5.46,12.1-10.85,17.79-16.69,6.4-6.58,13.04-12.92,19.87-19.05,13.32-11.94,27.39-23.05,41.94-33.44,13.52-9.66,27.48-18.72,41.75-27.24,1.66-.99,3.33-1.98,4.99-2.95.57-.33.75-1.1.19-1.51-.64-.48-1.6-.14-2.2.21-14.28,8.37-28.27,17.25-41.84,26.73-14.74,10.29-29,21.29-42.55,33.11-6.93,6.05-13.69,12.3-20.21,18.78-3.09,3.07-6.06,6.26-9.2,9.29-2.92,2.83-5.95,5.54-8.98,8.26-6.18,5.54-12.43,11.07-17.88,17.35-5.45,6.28-9.73,13.35-12.71,21.11-6.17,16.06-7.24,33.54-7.7,50.57-.06,2.12-.1,4.24-.15,6.36-.03,1.54,3.08,1.04,3.11-.27h0Z"/>
    <path class="cls-39" d="M1175.54,590.41c8,5.26,10.18,20.25,10.63,28.12.14,2.4-3.12,3.99-4.03,6.22-1.31,3.19-4.44,5.19-7.39,6.98-16.78,10.17,15.77,4.64-2.41,12-35.4,14.33-123.65,27.01-161.76,29.39-38.12,2.38-92.84-9.02-130.5-15.4-6.57-1.11-11.68-6.95-12.66-13.54-1.06-7.18,4.14-8.91,10.85-11.67,17.92-7.39,52.04,4.58,69.95-2.81"/>
    <path class="cls-39" d="M817.2,500.98c-22.42,22.35-28.98,20.5-28.98,20.5l-196.15,30.4h0c8.63,19.22,11.07,40.65,6.97,61.32l-.18.27s143.46,9.01,198.43,3.68c11.48-1.11,56.27-6.44,76.13-40.34,7.13-9.31-1.51-41.41-3.72-50.46"/>
    <path class="cls-13" d="M807.33,401.18c2.5,8.81,4.93,17.63,7.36,26.45,3.59,13.03,7.16,26.06,10.71,39.1,4.06,14.92,8.1,29.84,12.11,44.77,3.85,14.32,7.67,28.64,11.45,42.97,3,11.38,5.98,22.77,8.85,34.19.27,1.09.54,2.17.81,3.26.22.89,2.71.24,2.49-.67-2.71-10.89-5.54-21.76-8.39-32.62-3.7-14.1-7.46-28.19-11.24-42.28-4.02-14.99-8.07-29.98-12.14-44.96-3.64-13.39-7.3-26.78-10.98-40.17-2.61-9.47-5.22-18.94-7.88-28.4-.22-.78-.44-1.56-.66-2.34-.25-.89-2.74-.22-2.49.67h0Z"/>
    <path class="cls-44" d="M948.1,192.47c.03.1.04.18.07.28,0-.13-.02-.23-.07-.28Z"/>
    <path class="cls-23" d="M901.41,268.81l-31.39,9.12-16.66,1.62c-1.56.55-13.67-13.08-15.42-14.74-5.4-5.15-12.46-11.91-16.76-18.03-4.61-6.56-11.3-11.35-15.32-19.75-2.94-6.15-4.46-10.64-4.48-22.25,0-2.95-.86-5.61-2.46-8.25-3.39-5.55-6.23-12.42-10.6-19.92-.34-.59-2.1-3.41-2.08-4.18,0,0-12.59-33.14-10.51-47.18,2.08-14.04,9.31-22.57,17.4-27.78,8.09-5.22,34.71-12.31,34.71-12.31l34.34-17.16,35.69,4.97,27.95,32.06,12.13,43.96,8.22,40.14"/>
    <path d="M926.63,149.19c.93,3.4,2.27,21.44,2.98,24.83l17.17-6.06c1.42-13.18,3.21-28.73,4.17-32.45,1.51-5.82-15.22-26.67-17.93-35.49l-.59-1.9c-2.58-8.47-15.03-19.15-33.29-28.58-31.43-16.23-30.36-16.88-65.74-2.33-2.43,1-4.83,2.1-7.12,3.25-21.66,10.9-40.8,16.84-49.02,40.71-5.93,17.21-3.71-2.69.33,6.6-5.62-19.1-4.08-2.33-2.86-5.2,7.15-16.78,17.38-4.77,22.7-7.45,4.64-2.34,8.75-2.24,9.57-2.19,5.95-.59,11.04-3.06,16.6-5.86,4.14-2.08,14.33-8.21,15.2-8.73,2.26-3.01-4.04-13.54,1.1-16.13,11.95-6.01,30.94-6.15,37.93-5.34,8.27.96,27.8,2.52,31.76,22.53"/>
    <path class="cls-23" d="M943.78,194.77c14.23,10.61,13.54-15.14,13.54-15.14,5.67-15.03,1.36-27.46-1.94-35.84-3.3-8.38-12.61-5.01-12.61-5.01-7.64,3.62-9.71,9.11-7.07,38.2"/>
    <path class="cls-40" d="M799.93,95.83c12.91-4.48,44.03-24.65,61.27-31.54,7.14-2.85,37.27,7.24,41.77,10.31,10.3,7.04.73,34.14,23.03,60.06,7.37,8.56,7.44-10.69,14.77-5.91,7.33,4.79,10.18,6.76,10.18,6.76-5.6-29.99-5.37-28.95-21.02-55.23-15.61-26.21-50.53-28.46-66.25-25.94-15.72,2.53-62.11,23-73.08,33.29"/>
    <path d="M863.95,167.02c1.61-1.72,4.23-1.65,5.92-.96.4.16,1.49.64,2.32,1.8,1.07,1.48,1.07,3.6.44,5.1-.85,2.01-3.07,3.09-5.14,2.89-2.81-.27-4.61-2.9-4.76-5.22-.02-.43-.08-2.23,1.22-3.62"/>
    <path d="M807.23,187.47c-2.33-.33-4.33,1.37-5.21,2.97-.21.38-.76,1.43-.68,2.86.1,1.83,1.42,3.47,2.86,4.25,1.93,1.03,4.33.48,5.82-.97,2.01-1.97,1.77-5.15.43-7.05-.25-.35-1.34-1.79-3.22-2.06"/>
    <path d="M826.26,189.16s-10.74-5.13-16.74-3.62c-8.75,2.21-10.25,4.89-11.88,9.83,0,0,4.12-6.02,10.33-7.41,5.93-1.33,18.29,1.2,18.29,1.2Z"/>
    <path d="M853.07,177.38s9.24-11.69,15.02-13.9c8.43-3.22,20.34-1.78,24.52,1.33,0,0-15.97-2.67-21.85-.24-5.62,2.32-17.68,12.81-17.68,12.81Z"/>
    <path d="M839.88,148.34c.72,2.02,1.44,4.05,2.17,6.08.55,1.54,1.7,5.1,2.26,6.64,4.41-3.03,8.1-6.53,11.05-8.2,5.85-3.31,11.68-7.14,18.34-8.4,3.19-.6,6.12-.76,9.19-.09.97.21,3.87,1.59,4.87.61.41-.4-1.27-2.6-1.45-2.83-3.41-4.44-8.41-5.02-14.05-4.37-11.48,1.32-22.07,5.37-32.39,10.56"/>
    <path d="M784.36,169.98s3.27-1.94,3.3-1.96c9.15-5.49,19.2-8.25,29.7-9.93.62,2.05,1.25,4.11,1.87,6.17.47,1.57,1.42,4.37,1.89,5.94-4.94.06-9.34-.32-12.45.01-6.16.65-12.67,1.26-18.26,4.05-.44.22-2.81,1.46-3.23,1.69-2.73-2.27-3.5-5.28-2.82-5.98Z"/>
    <path d="M875.66,244.34l-22.1,7.53s8.14,6.66,13.47,4.78c3.33-1.18,6.4-7.3,8.63-12.3Z"/>
    <g>
      <path class="cls-7" d="M844.56,220.1c2.96.46,6.64-1.19,8.59-3.67.43-.55,2.41-.86,1.8-.09-2.57,3.27-7.95,5.38-11.77,4.79-.38-.06-.41-.33-.06-.61.36-.29,1.03-.49,1.44-.43"/>
      <path class="cls-7" d="M855.78,215.23c1.39-1.4,3.11-2.49,4.93-3.3.27-.12.66-.14.92-.02.21.09.31.27.15.46-.68.81-1.71,1.41-2.73,1.75-.32.11-.77.17-1.05-.04-.26-.2,0-.48.24-.56.84-.28,1.63-.75,2.2-1.42.36.15.71.29,1.07.44-1.63.72-3.16,1.71-4.4,2.96-.25.25-.71.31-1.03.24-.24-.05-.55-.26-.31-.51"/>
      <path class="cls-7" d="M863.3,212.85c2.17-.83,4.4-2.71,4.88-4.78.73-3.12-2.18-6.53-5.49-7.19-.36-.07-.28-.36,0-.53.36-.23.88-.24,1.26-.16,2.88.58,5.56,3.26,6.05,5.77.45,2.35-1.09,4.65-3.49,6.22-.71.47-1.5.89-2.31,1.2-.33.12-.96.23-1.22.03-.26-.21,0-.44.31-.55"/>
      <path class="cls-7" d="M840.15,220.38c.03-.3-.25-.39-.42-.33-.59.22-1.25.27-1.9.03-.11.31-.21.62-.32.93,1.23-.29,2.56-.31,3.87.04.26.07.53-.13.66-.36.1-.17.15-.51-.11-.58"/>
      <path class="cls-7" d="M841.92,220.12c-1.47-.39-2.95-.35-4.33-.03-.2.05-.42.24-.49.48-.06.18-.02.39.17.45"/>
      <path class="cls-7" d="M835.71,222.29c-1.44.45-3.46.06-4.76-1.38-1.96-2.17-2.04-5.55-.83-7.8.13-.25-.05-.44-.27-.43-.29,0-.54.26-.67.52-1.05,1.97-1.24,4.62-.17,6.93,1.01,2.15,2.92,3.23,4.85,3.28.57.01,1.16-.05,1.7-.21.22-.07.57-.31.58-.61.01-.31-.23-.35-.43-.29"/>
    </g>
    <path d="M794.82,103.51c.68-1.1,2.06-1.86,3.36-2.55l1.32-.96c4.36-1.5,8.76-2.87,13.19-4.1,1.12-.31,2.28-.62,3.37-.53.12,0,.23.03.35.05,3.2-1.19,6.41-2.34,9.65-3.41l1.61-.1c1.44-.27,2.99-.53,4.16-.17,1.17.36,1.62,1.64.48,2.47-1.19.86-3.38.81-4.05,1.86-.73,1.16,1.6,1.75,1.33,2.93-.17.74-1.27,1.33-1.89,2.02-.74.83-.75,1.78-1.42,2.63-.68.87-2.04,1.52-3.28,1.59-1.19.5-3,.55-3.11,1.52-.03.26.11.49.21.72.36.92-.1,2.1-1.12,2.86-1.01.75-2.52,1.03-3.61.66-1.07-.36-1.7-1.24-2.81-1.53-.35-.09-.74-.12-1.13-.16-.21.39-.52.75-.92,1.04-1.01.75-2.51,1.03-3.61.66-1.07-.36-1.7-1.24-2.81-1.53-.93-.24-2.18-.08-2.79-.66-.98-.92.46-2.99-.87-3.6-1.21-.55-2.89.93-4.37.9-1.42-.03-1.91-1.51-1.23-2.62Z"/>
    <g>
      <path d="M949.84,137.84c1.31-.48,2.68-1,3.61-2.05.93-1.04,1.26-2.77.33-3.82-1.47-1.66-5.11-.88-5.55-3.05,1.09-2.6,5.48-3.09,5.68-5.91.16-2.28-2.6-3.47-4.82-3.99.92-1.66.89-.41,2.5-1.41,1.62-1,1.27-5.56-.2-6.76-1.66-1.36-1.85.22-1.8-1.93,1.26-.88-2.18-1.1-1.44-2.45s.75-3.24-.42-4.24c-1.4-1.2-1.58-2.37-2.1-4.15-.45-1.52-3.48-.85-2.96-2.35.94-2.72-2.18-4.98-4.8-6.17.95-1.18-.59-.97-.22-2.44.37-1.47-.03-3.25-1.33-4.02-.8-.47-1.78-.5-2.64-.83-3.56-1.37-3.26-6.45-2.31-10.14-2.46,1.03-5.62-.16-6.79-2.56-.55-1.13-.7-2.46-1.48-3.45-.78-.98-2.65-1.24-3.11-.07"/>
      <path d="M950.35,138.19c1.57-.58,3.29-1.22,4.44-2.5.98-1.09,1.47-2.87.47-4.11-.7-.86-1.86-1.14-2.89-1.39-.88-.21-3.13-.63-2.44-1.98.55-1.08,2-1.69,2.96-2.33.9-.6,1.92-1.33,2.32-2.39,1.13-3.01-2.68-4.5-4.91-5.05l.25.33.18-.31c.52-.61.1-.54-1.29.23.13.03.34-.02.47-.03.54-.06,1.08-.19,1.59-.38.97-.36,1.87-.9,2.28-1.88.69-1.64.47-4.23-.65-5.65-.3-.38-.68-.67-1.11-.88-.27-.13-.73-.12-.95-.26-.36-.23.09.12.03.02-.06-.11-.07-.37-.06-.48.04-.32.28-.64.28-.93,0-.52-.77-.76-1.13-.98-1.11-.68-.37-1.18-.16-2.26s.03-2.17-.7-3.01c-.43-.49-.91-.85-1.25-1.42-.39-.65-.58-1.4-.79-2.12-.28-.99-.55-1.49-1.55-1.86-.35-.13-.73-.18-1.07-.32-.64-.26-.59-.43-.47-1.07.48-2.52-1.72-4.32-3.68-5.45-.16-.09-.89-.35-.96-.5-.12-.24.08-.28.06-.53-.02-.31-.09-.4-.23-.67-.55-1.04,0-2.09-.25-3.23-.32-1.49-1.34-2.28-2.74-2.67-1.5-.42-2.71-.75-3.47-2.22-1.25-2.4-.76-5.5-.13-8,.18-.71-1.73-.19-1.97-.1-1.29.49-3.02-.49-3.92-1.38-1.23-1.22-1.25-2.96-2.14-4.36-1.26-1.97-5.16-1.82-6.26.27-.26.49,1.03.33,1.19.31.52-.08,1.45-.3,1.73-.82-1.01,0-1.29.04-.83.13.17.03.32.09.47.18.32.17.56.42.76.72.38.57.57,1.26.79,1.9.41,1.23.97,2.31,2.02,3.12,2.07,1.59,4.88,1.53,7.23.64-.66-.03-1.31-.07-1.97-.1-.75,3.01-1.51,7.67,1.38,9.84,1.69,1.27,4.25.71,4.88,3.18.25.96-.23,1.89-.03,2.79.16.75.83.83.27,1.62-.05.1-.03.19.07.25,1.65.77,3.53,1.82,4.44,3.47.46.84.45,1.53.29,2.45-.08.46-.1.74.28,1.06,1.01.83,2.3.3,2.76,1.8.23.74.39,1.5.74,2.2.4.79,1.02,1.25,1.57,1.92.6.73.72,1.77.53,2.67-.12.54-.66,1.2-.51,1.77.2.74,1.73.9,1.79,1.5,0,.03-.25.26-.27.34-.07.24-.06.65,0,.9.09.41.18.49.57.63,1.22.45,1.85.95,2.23,2.28.22.8.32,1.66.26,2.49-.03.38-.09.77-.21,1.13-.02.07-.45.85-.45.84.02.06.82-.11.15-.05-.45.04-.91.14-1.34.3-.81.31-1.25.77-1.68,1.51-.1.18.12.3.25.33,1.99.48,5.88,2.1,4.2,4.83-1.12,1.82-3.67,2.28-4.92,4.06-1.49,2.11,2.31,2.68,3.59,3.06s2.23,1.2,2.07,2.65c-.21,1.9-1.92,2.68-3.51,3.27-.31.12-1.16.42-.87.86.26.39,1.63-.05,1.9-.15h0Z"/>
    </g>
    <g>
      <path d="M922.86,71.59c-.86-1.49-4.73-8.66-5.59-10.15-1.77,1.42-4.84.58-5.63-1.55-.4-1.06-.47-2.52-1.55-2.87-1.1-.36-2.07.85-3.19,1.15-2.5.65-4.09-3.24-6.68-3.37-1.62-.08-2.99,1.37-4.61,1.36-2.45-.02-3.85-3.25-6.29-3.5-1.68-.18-3.2,1.15-4.89,1.21-3.67.13-6.39-4.49-9.9-3.43-1.29.39-2.2,1.63-3.52,1.92-2.35.51.31-2.94-2.06-2.55-2.18.36-3.15,3.08-5.17,3.97-3.29,1.44-7.36-3.55-10.12-1.26-1.19.99-1.45,2.77-2.6,3.81-2.68,2.41-7.35-1.08-10.45.77-1.56.93-2.24,2.98-3.88,3.74-2.56,1.18-5.64-1.48-8.26-.44-2.08.83-2.92,3.68-5.1,4.24-1.52.39,1.64-2.43.09-2.18-2.64.43-3.66,3.81-6,5.12-1.96,1.1-4.39.52-6.63.66-2.24.14-5.55,5.64-4.94,7.8"/>
      <path d="M924.22,70.97c-1.93-3.35-3.67-6.8-5.59-10.15-.4-.7-1.85-.29-2.31.05-.87.63-2.05.12-2.72-.61-.86-.94-.69-2.36-1.46-3.36s-2.14-1.08-3.25-.75c-.71.21-1.27.78-1.95.98-.44.13-.64.02-1.11-.3-1.92-1.27-3.21-3.23-5.78-3.01-1.36.12-2.39.93-3.66,1.26-1.19.32-2.32-1.03-3.14-1.72s-1.69-1.33-2.76-1.59c-1.54-.36-2.99.16-4.41.7-1.27.48-2.15.44-3.36-.18s-2.26-1.45-3.45-2.08c-2.34-1.24-4.76-1.17-6.98.31-.31.2-.6.44-.91.64l-.3.18c-.3.11-.18.19.37.22.03-.02.04-.52.04-.59.04-.74.11-1.48-.62-1.92-2.15-1.3-4.77,1.09-6.1,2.53-.73.79-1.34,1.61-2.49,1.4-1.15-.21-2.22-.81-3.29-1.26-2.06-.87-4.37-1.26-6.28.21-1.19.91-1.54,2.28-2.36,3.45-.76,1.08-1.82.87-3,.69-2.48-.38-5-1.02-7.35.25-1.27.69-2.01,1.81-2.93,2.87-1.05,1.21-1.93.98-3.39.59-2.69-.71-5.31-1.05-7.55.97-.88.79-1.49,1.9-2.42,2.63-.06.05-.54.29-.56.33l1.31.59-.02.05c.21-.15.45-.72.59-.95.41-.7.65-1.49-.31-1.85-1.12-.42-2.63.24-3.55.85-1.24.82-2.07,2.04-3.02,3.15-.4.46-.81.96-1.34,1.27-.84.5-1.89.46-2.84.44-1.48-.03-3.06-.25-4.45.39-1.06.49-1.93,1.34-2.65,2.25-1.32,1.67-2.93,4.27-2.43,6.51.27,1.22,3.23.46,2.95-.79-.42-1.87,1.26-4.37,2.45-5.66.81-.87,1.01-.81,2.18-.78,1.66.04,3.34.12,4.95-.39,2.69-.86,3.67-3.2,5.66-4.92.11-.09.58-.32.62-.42l.17-.06-.99-.58s-.3.51-.38.65c-.3.49-.84,1.16-.42,1.74.55.77,1.99.36,2.68.08,1.19-.49,2.07-1.37,2.88-2.33.64-.76,1.29-1.83,2.38-1.84,1.36-.02,2.72.66,4.06.88,1.26.21,2.57.13,3.75-.41,1.36-.62,2.17-1.77,3.1-2.89.87-1.04,1.57-1.28,2.89-1.15s2.56.49,3.85.59c2.69.22,4.97-.74,6.28-3.15.28-.52.51-1.1.86-1.58s.43-.56.86-.52c1.07.09,2.14.73,3.11,1.14,2.19.94,4.51,1.45,6.69.17,1.04-.61,1.8-1.52,2.62-2.38.18-.19,1.21-.88,1.26-1.06,0-.03-.31-.21-.36-.11-.01.03,0,.32,0,.37-.55,2.14,1.35,2.66,3.08,2.13.72-.22,1.36-.61,1.98-1.03.47-.32.93-.77,1.51-.85,1.06-.13,2.21.72,3.05,1.25,2.15,1.35,4.26,2.71,6.92,2.21,1.21-.23,2.74-1.36,3.95-1.05,1.11.29,2.01,1.4,2.87,2.1,1.03.83,2.2,1.4,3.56,1.34.74-.03,1.44-.22,2.12-.49.64-.25,1.44-.87,2.14-.86,1.06,0,2.1,1.28,2.83,1.9.89.76,1.85,1.43,3.06,1.53.63.05,1.26-.06,1.86-.26.37-.12.69-.28,1.03-.47.22-.12.43-.24.64-.37.38-.14.4-.2.07-.17.52.31.61,1.23.76,1.74.2.66.44,1.3.91,1.82,1.83,2.06,5.21,2.07,7.34.52l-2.31.05c1.93,3.35,3.67,6.8,5.59,10.15.58,1.01,3.43,0,2.72-1.24h0Z"/>
    </g>
    <g>
      <path d="M780.23,94.83c.3-.26.59-.53.86-.81,1.4-1.44,1.93-4.37.04-5.04,3.87.34,4.51-6.39,8.24-7.48,1.07-.31,2.22-.08,3.33-.23,2.88-.39,4.93-3.77,3.94-6.5,3.15.66,6.55,0,9.23-1.77l27.65.29c-10.33,5.73-20.3,13.33-30.5,17.93-4.91,2.22-9.86,4.63-13.7,8.41-2.8,2.75-6.74,5.01-9.59,7.91.15-4.24.28-8.48.5-12.72Z"/>
      <path d="M781.45,95.22c1.99-1.78,3.93-5.73.54-7.2-.46.66-.92,1.32-1.39,1.98,2.1.1,3.81-.88,5.05-2.54,1.11-1.48,1.87-3.54,3.38-4.68.98-.74,2.36-.35,3.51-.5,1.23-.16,2.43-.65,3.39-1.44,1.9-1.55,2.93-4.09,2.17-6.48-.67.47-1.33.95-2,1.42,3.73.71,7.53-.14,10.72-2.17l-1.49.4c8.08.09,16.15.17,24.23.26,1.14.01,2.28.02,3.42.04l-.12-1.84c-7.72,4.3-14.94,9.41-22.59,13.82-7.1,4.1-15.27,6.62-21.43,12.21-3.33,3.02-7.17,5.46-10.36,8.63l2.72.27c.15-4.24.29-8.48.5-12.72.08-1.47-2.92-1.01-2.98.25-.22,4.24-.35,8.48-.5,12.72-.05,1.42,2.12.86,2.72.27,2.76-2.75,6.16-4.73,9.02-7.36s6.05-4.84,9.63-6.63c3.67-1.83,7.41-3.44,10.98-5.45,3.73-2.1,7.35-4.39,10.97-6.69,4.16-2.64,8.3-5.3,12.61-7.7.84-.47,1.28-1.83-.12-1.84-8.91-.09-17.83-.19-26.74-.28-.69,0-1.42-.08-2.07.2-1.26.55-2.28,1.28-3.66,1.58-1.46.32-2.94.27-4.4-.01-.68-.13-2.3.47-2,1.42.56,1.77-.11,4.24-2,4.97-1.05.4-2.35.08-3.45.28-.95.17-1.84.55-2.61,1.13-1.3.97-2.16,2.39-3,3.75-.47.75-1.38,2.72-2.46,2.66-1-.05-3.08,1.25-1.39,1.98.75.33.64,1.49.47,2.13-.28,1.02-.97,1.69-1.73,2.37-.53.47-.2,1.14.36,1.35.73.27,1.55-.08,2.09-.56Z"/>
    </g>
    <g>
      <path d="M836.02,75.87l32.65-15.02,33.09,8.37,21.12,32.35,1.69,29.63h0l9.15,42.26c-.94.4-1.87.79-2.81,1.19-.29.12-.61.25-.91.17-.76-.2-.69-1.27-.71-2.06-.05-1.83-1.51-3.25-2.73-4.61-1.22-1.36-2.33-3.26-1.58-4.93.39-.88,1.29-1.65,1.12-2.6-.22-1.24-1.9-1.41-2.97-2.07-1.68-1.02-1.7-3.88-.04-4.93,0,0-2.8-1.67-3.42-6.47-.62-4.79-.74-10.08-.74-10.08h0c-.38-.24-.74-.5-1.05-.81-2.25-2.33-.78-6.61-2.82-9.13-.92-1.13-2.41-1.71-3.23-2.91-1.56-2.3.05-5.58-1.02-8.15-1.2-2.88-5.52-4.33-5.21-7.44.15-1.52,1.47-2.75,1.54-4.27.12-2.65-3.53-4.99-2.24-7.31.45-.8,1.41-1.27,1.72-2.13.62-1.75-1.66-2.97-2.84-4.4-1.22-1.48-1.3-3.58-2.05-5.34-.76-1.76-3.07-3.25-4.51-1.99.12-3.17-3.98-10.47-6.9-9.23-1.44.61-3.14,1.91-4.31.87-.83-.74-.6-2.18-1.34-3.01-1.91-2.1-5.02,2.82-7.68,1.82-.72-.27-1.21-.94-1.87-1.34-1.49-.9-3.44-.21-4.91.74-1.47.95-2.88,2.17-4.61,2.36-1.74.19-3.75-1.41-3.13-3.04-1.41,1.5-2.89,3.04-4.82,3.77-1.93.73-4.43.36-5.53-1.38.31,2.92-3.6,5.27-6.03,3.62-.97-.66-1.84-1.81-2.99-1.61-.51.09-.94.45-1.3.83-1.64,1.66-2.48,8.48-2.97,10.77l-2.78-12.47Z"/>
      <path d="M836.88,76.1c9.54-4.39,19.07-8.78,28.61-13.16,1.35-.62,2.7-1.24,4.04-1.86-.69.12-1.38.24-2.07.36,10.22,2.59,20.44,5.17,30.66,7.76.68.17,1.38.43,2.07.52.12.02.23.06.35.09-.43-.09-.24-.3-.15-.02.16.48.64.98.92,1.4.57.88,1.15,1.76,1.72,2.64,3.59,5.5,7.18,11,10.77,16.5l4.93,7.55c.81,1.23,1.99,2.57,2.57,3.93.35.83.2,2.05.25,2.94.17,2.94.33,5.87.5,8.81.33,5.76.66,11.51.98,17.27.15,2.65,1.03,5.33,1.59,7.91,2.48,11.44,4.95,22.88,7.43,34.32l.17.78.95-.77c-.67.28-1.34.56-2,.85-.2.08-.4.17-.6.25-.32.11-.26.13.17.04.44.06.5-.05.16-.34l-.08-.28c-.15-.51-.04-1.08-.11-1.61-.08-.59-.31-1.15-.6-1.66-1.22-2.11-4.3-3.96-3.87-6.72.18-1.16,1.42-2.01,1.32-3.23-.08-.96-.92-1.4-1.72-1.75-1.03-.45-1.98-.79-2.37-1.95-.33-1-.18-2.35.73-3.01.13-.09.54-.41.25-.59-2.02-1.24-2.97-3.94-3.3-6.14s-.49-4.57-.62-6.86c-.05-.8-.09-1.61-.12-2.41,0-.22.03-.5-.02-.71-.08-.32.18-.32-.14,0,.1-.11.22-.31.05-.43-2.29-1.51-2.27-3.87-2.58-6.35-.13-1.01-.32-2.05-.84-2.94-.62-1.05-1.61-1.67-2.54-2.4-2.46-1.95-1.53-4.63-1.69-7.34-.14-2.3-1.58-3.71-3.19-5.18s-3.03-3.01-2.02-5.29c.45-1.01,1.12-1.94,1.16-3.08.03-1-.43-1.9-.92-2.74-.49-.84-1.11-1.65-1.42-2.58-.41-1.2.05-1.88.88-2.74.67-.68,1.26-1.49.97-2.49-.27-.92-1.14-1.64-1.81-2.27-1.19-1.12-1.87-2.21-2.32-3.79-.35-1.23-.59-2.52-1.39-3.56-1.59-2.06-4.5-2.23-6.54-.7.87-.11,1.74-.21,2.61-.32.03-2.59-1.5-5.35-3.07-7.31-.74-.92-1.67-1.85-2.85-2.17-1.37-.38-2.78.15-4,.74-.2.1-.97.51-.99.51-.48-.04-.73-.73-.87-1.11-.27-.78-.32-1.62-.95-2.23-.97-.92-2.6-.57-3.72-.17-1.27.46-2.38,1.27-3.54,1.94-.1.06-.26.15-.38.18.03,0,.31-.01.14-.05-.48-.1-.85-.45-1.21-.75-.7-.58-1.38-.99-2.3-1.1-2.28-.27-4.56.78-6.4,2.02-.86.58-1.97,1.69-3.07,1.33s-1.88-1.42-1.57-2.53c.25-.87-2.51.03-2.8.34-1.1,1.16-2.41,2.81-4,3.3-1.28.4-2.8-.35-3.54-1.39-.44-.62-3-.04-2.95.79.07,1.12-.45,2.26-1.4,2.89-.88.58-1.78-.18-2.47-.75-.94-.77-1.78-1.29-3.04-1.17s-2.55.7-3.39,1.67c-1.15,1.33-1.52,3.37-1.89,5.03-.42,1.91-.69,3.85-1.08,5.77.98-.21,1.96-.43,2.93-.64-.93-4.16-1.85-8.32-2.78-12.47-.15-.69-3.12.03-2.95.79.93,4.16,1.85,8.32,2.78,12.47.16.71,2.81-.04,2.93-.64.4-1.97.68-3.96,1.12-5.93.24-1.08.51-2.18.92-3.21.14-.35.29-.72.49-1.04.06-.09.2-.39.32-.43-.31.1.29.37.43.48.93.71,1.69,1.39,2.89,1.54s2.35-.08,3.42-.48c2.01-.75,3.86-2.36,3.72-4.67-.98.26-1.97.53-2.95.79,1.4,1.98,3.9,2.23,6.12,1.76,2.92-.62,5.06-2.53,7.05-4.64-.93.11-1.87.22-2.8.34-.45,1.59.77,2.84,2.23,3.27,1.8.53,3.86-.17,5.45-1.04.81-.44,1.55-.99,2.32-1.5.45-.29,1.03-.74,1.58-.81.68-.09,1.26.35,1.76.75,1.37,1.1,2.58,1.35,4.29.89,1.46-.39,2.66-1.23,3.95-1.98.17-.1.55-.3.57-.32-.19.22-.34-.04-.31.14,0,.04.29.2.35.26.67.67.56,1.8,1.04,2.59.93,1.55,3.15,1.02,4.53.48.41-.16.82-.35,1.22-.55.17-.09.36-.16.52-.26.96-.59-.23.13-.24-.05,0-.04,1.32.72,1.42.81,2.18,1.84,4.1,5.41,4.07,8.31,0,.7,2.36-.13,2.61-.32-.53.39-.42.08.13.38.24.13.46.29.67.47.39.33.71.72.96,1.17.61,1.11.77,2.43,1.16,3.62.33.99.82,1.85,1.55,2.6s1.72,1.39,2.19,2.34c.97,1.93-2.01,2.86-1.86,4.86.14,1.84,1.84,3.22,2.35,4.95.65,2.21-1.57,3.78-1.39,5.95.14,1.69,1.65,2.92,2.82,3.98,1.74,1.59,2.82,3.05,2.79,5.5-.03,2.34-.48,4.7,1.44,6.46.93.85,2.12,1.41,2.78,2.51.59.98.76,2.16.88,3.27.28,2.5.44,4.76,2.72,6.26l.05-.43c-.49.5-.06,2.45-.03,3.03.13,2.46.29,4.92.63,7.36s1.35,5.26,3.51,6.59l.25-.59c-1.85,1.34-2.24,4.3-.08,5.59.97.58,3.09.83,2.72,2.41-.16.71-.79,1.26-1.07,1.92-.26.62-.32,1.33-.18,1.99.62,3.06,4.25,4.5,4.48,7.7.09,1.18.07,2.28,1.55,2.32,1.67.05,3.39-1,4.88-1.63.24-.1,1.04-.38.95-.77-1.13-5.23-2.27-10.47-3.4-15.7-1.67-7.73-3.35-15.47-5.02-23.2-.25-1.17-.61-2.36-.74-3.55-.28-2.65-.3-5.35-.46-8.01-.25-4.33-.49-8.67-.74-13-.1-1.74-.2-3.49-.3-5.23-.05-.95.01-2.01-.17-2.95-.22-1.13-1.38-2.34-2-3.29-2.04-3.13-4.09-6.26-6.13-9.39-4.07-6.23-8.14-12.46-12.21-18.69-.24-.37-.47-.91-.79-1.21-.39-.36-1.12-.41-1.63-.54-3.16-.8-6.32-1.6-9.48-2.4-7.15-1.81-14.3-3.62-21.45-5.43-1.03-.26-1.81-.29-2.88.16-.52.22-1.03.48-1.55.71-3.03,1.39-6.06,2.79-9.1,4.18-6.88,3.17-13.76,6.33-20.65,9.5-.45.21-.9.42-1.35.62-.41.19-.86.53-.35.83s1.61-.15,2.07-.36Z"/>
    </g>
    <g>
      <path d="M787.68,98.53c.69.83-.38,1.98-1.36,2.4-.99.42-2.26,1.03-2.13,2.09.08.66.72,1.14.81,1.8.26,2.01-3.93,1.51-4.44,3.47-.39,1.47,1.78,2.99.95,4.26-.4.6-1.23.67-1.91.93-1.16.45-1.97,1.69-1.91,2.94.04.93.52,1.86.26,2.76-.32,1.08-1.52,1.58-2.37,2.33-2.22,1.97-1.8,5.5-.99,8.36.8,2.85,1.76,6.11.16,8.61-2.51-1.11-.9-3.51.06-6.08.29-.78.76-1.49.92-2.3.17-.81-.09-1.81-.86-2.12-.38-.15-.85-.14-1.13-.43-.81-.83,1-1.65,1.69-2.59.86-1.18-.35-2.76-1.53-3.62-1.18-.86-2.63-2.02-2.26-3.43.32-1.25,1.93-1.82,2.28-3.06.39-1.4-1.03-2.69-1.12-4.15-.12-1.94,2-3.15,3.8-3.87-1.59-1.03-1.63-3.73-.07-4.81.63-.43,1.48-.67,1.77-1.38.43-1.05-.75-2.36-.14-3.31.51-.81,1.87-.62,2.45-1.38.93-1.21-1.12-2.78-.85-4.28.35-1.99,4.35-2.45,3.58-4.32"/>
      <path d="M786.21,98.92c.99,1.62-2.39,2.32-3.14,3.35-.42.58-.43,1.11-.13,1.75.26.53.91,1.23.4,1.83-.27.31-.89.39-1.26.52-.62.23-1.25.47-1.81.82-1.08.69-1.5,1.65-.98,2.86.28.65.83,1.29.9,2.01.1,1.01-1.04.97-1.77,1.34-1.45.75-2.4,2.14-2.18,3.8.13,1,.6,2.02-.14,2.91-.54.65-1.39,1.02-2,1.61-1.16,1.11-1.6,2.63-1.65,4.19-.13,4.24,3.19,8.77.82,12.81l2.85-.76c-3.39-1.7,1.27-6.42,1.11-8.9-.04-.67-.38-1.3-.99-1.6-.77-.39-1.73-.44-.79-1.38,1.04-1.04,2.26-1.84,1.44-3.46-.79-1.57-2.66-2.12-3.53-3.6-1.07-1.83.99-2.58,1.76-3.9.86-1.48-.35-2.76-.74-4.16-.55-1.94,1.13-3.12,2.71-3.79.16-.06,1.32-.53.87-.86-.97-.72-1.36-2-1-3.15.4-1.3,1.72-1.39,2.5-2.35s.02-1.96-.01-3.04c-.03-.92.62-.83,1.31-1.14.45-.2.93-.46,1.23-.87,1.33-1.79-2.07-3.68-.14-5.42.99-.89,3.52-1.65,2.94-3.4-.23-.7-3.16.15-2.95.79.31.94-.55,1.36-1.24,1.8-.74.47-1.63.98-2.08,1.77-.53.93-.15,1.84.28,2.73.22.46.62,1.06.56,1.59-.07.68-.73.68-1.26.91-.98.43-1.72,1.04-1.58,2.19.07.56.41,1.14.38,1.72-.06.93-.88,1.08-1.52,1.53-1.84,1.26-2.02,4.02-.19,5.37l.87-.86c-1.52.63-3.23,1.38-4.21,2.78-1.19,1.71.02,3.04.51,4.72.6,2.04-1.73,2.5-2.2,4.19-.5,1.81,1.47,2.95,2.62,3.91.74.62,1.77,1.76,1.34,2.83-.3.76-1.24,1.15-1.72,1.78-.35.45-.52.92-.07,1.37.67.68,1.65.29,1.91,1.49.57,2.73-4.84,7.46-.9,9.44.71.36,2.43-.06,2.85-.76,2.1-3.57-.14-7.49-.66-11.16-.24-1.69-.23-3.64.83-5.07.96-1.28,2.99-1.77,3.13-3.6.07-.98-.47-1.92-.3-2.91.2-1.11.84-1.6,1.83-1.94,1.37-.48,2.59-1.34,1.93-2.91-.43-1.01-1.7-2.59-.29-3.38,1.07-.6,2.39-.64,3.31-1.54,1.45-1.4-1.31-2.96.27-4.12.99-.73,4.03-1.64,2.92-3.46-.45-.74-3.21.37-2.95.79h0Z"/>
    </g>
    <path class="cls-4" d="M932.45,154.9l-1.4-3.9-44.45,1.95h0c-16.38-.8-35.46,10.03-44.8,21.57l-10.26,4.03.05-.19c-15.14-4.86-35.77.54-48.89,12.78l.96,1.49h0c.04.1.22.3.42.61l.85,1.29c5.32,8.25,11.2,16.89,14.58,18.55,2.27,1.12,8.16.06,12.91-1.13,1.8-.43,3.42-.89,4.59-1.22,1.4-.41,13.81-4.07,15.22-6.66,1.42-2.59.2-17.95-.29-22.76l10.53-4.08c2.52,3.03,10.27,17.1,16.5,18.4,6.23,1.3,32.56-8.86,33.8-13.39.87-3.24,2.72-14.49,2.39-19.84l.13-7.08,37.17-.42ZM830.51,203.06c-1.63,2.57-26.25,10.12-30.18,8.19-3.32-1.64-10.91-13.4-13.76-17.82l-.07-.2c11.98-10.17,30.56-15.07,43.65-11.06.69,8.37,1.23,19.23.34,20.84l.02.04ZM889.24,182.2c-.76,2.86-23.44,12.75-29.86,11.41-4.46-.92-10.31-11.15-14.17-16.83,9.2-11.06,31.97-22.14,46.82-20.58.24,8.53-.34,18.85-2.79,26h0Z"/>
    <path d="M885.1,218.82c1.69.7,3.54,1.55,4.26,3.24.26.61.34,1.28.42,1.94.12,1.02.24,2.04.37,3.06.02.2.05.42-.03.61-.09.21-.29.34-.47.46-.6.39-1.22.79-1.93.89-.71.1-1.52-.2-1.79-.86-.11-.27-.13-.59-.33-.81-.39-.42-1.07-.12-1.63-.08-1.43.11-2.28-1.49-3.27-2.52-1.35-1.4-3.4-1.9-5.34-1.9-.98,0-1.97.11-2.94-.09s-1.92-.8-2.2-1.74"/>
    <path d="M884.36,216.04c-1.23-.85-2.7-1.17-4.19-.98-.4.05-1.4.5-1.69.43-.25-.06-.6-.54-.83-.67s-.51-.22-.76-.27c-1.52-.34-2.85.58-4.23,1.03-.58.19-1.21.42-1.81.34-.66-.09-1.27-.43-1.94-.5-1.29-.14-2.51.32-3.33,1.32-.1.13-.19.25-.28.39-.13.22-.14.19-.03-.07-.31-.04-.67-.33-.95-.45-.63-.27-1.27-.37-1.95-.36-1.42.03-2.94.42-4.11,1.24-.37.26-.71.56-1.07.83-.22.16-.47.3-.68.48-.61.52-.3-.54.66.14-.93-.66-3.59.66-2.31,1.58,1.7,1.21,3.89-.9,5.17-1.8.52-.36,1.19-.59,1.83-.51.7.09,1.34.6,2.03.78,1.29.32,2.81,0,3.73-1.01.13-.14.46-.47.49-.65.21-.24.11-.23-.29.03l.32.09c.46.31,1.41.43,1.96.48,1.39.11,2.95-.47,4.22-.98.28-.11.67-.41.96-.42.31-.01.38.13.64.34.52.41,1.06.59,1.72.61.73.02,1.34-.28,2.04-.43.9-.21,1.64.07,2.39.58.94.65,3.6-.68,2.31-1.58h0Z"/>
    <path d="M846.01,222.83c-1.32-.11-2.61.47-3.53,1.39-.36.36-.67.76-1.02,1.14-.17.19-.36.35-.54.53-.06.07-.13.12-.22.15.21-.08.18-.08-.1,0-1.42.22-2.5.84-3.08,2.18-.04.16-.11.31-.2.45.7-.19.88-.28.56-.27-.14-.07-.51-.06-.66-.09-.74-.13-1.45-.24-2.2-.12-1.42.23-2.33,1.04-2.62,2.41-.08.35-.16,1.04-.38,1.17-.49.29-1.27.26-1.81.46-1.18.43-2.3,1.2-2.26,2.56,0,.03-.01.78.09.58-.09.17-.6.29-.79.42-.48.33-.84.71-.75,1.32.15,1,3.12.31,2.95-.79.03.21-.6.48.25.02.21-.11.41-.23.59-.38.4-.34.65-.74.65-1.29,0-.41-.2-.91.21-1.14s1.05-.2,1.5-.34c1.12-.35,2.12-.97,2.51-2.13.13-.38.23-.82.28-1.22.02-.11.06-.21.12-.31-.86.16-1.07.26-.63.31.2.09.52.09.74.13,1.24.19,2.52.17,3.63-.51.53-.33.87-.79,1.1-1.36.06-.15.37-.72-.1-.4.14-.1.54-.12.7-.16,1.06-.26,1.98-.79,2.73-1.58.34-.35.64-.74.97-1.09.04-.05.41-.36.42-.41.02-.12-.81.02-.26.07.61.05,1.62-.24,1.95-.81.35-.61-.3-.83-.8-.87h0Z"/>
    <path class="cls-10" d="M858.17,231.47c8.79-3.13,22.63-9.32,22.63-9.32,0,0,4.61,21.73-15.76,28.99-20.37,7.26-28.38-12.86-28.38-12.86,0,0,12.73-3.69,21.51-6.82Z"/>
    <path class="cls-38" d="M858.12,231.49c4.14-1.47,20.54-8.18,20.54-8.18,0,0-1.72,13.73-16.68,19.06-16.22,5.78-22.95-5.38-22.95-5.38l19.1-5.51Z"/>
    <path class="cls-15" d="M858.18,232.23c4.14-1.47,16.45-6.72,16.45-6.72,0,0-2.77,6.56-15.18,10.98-12.41,4.42-18.06,1.02-18.06,1.02l16.79-5.28Z"/>
    <path class="cls-10" d="M834.2,237.19c.4-.27,3.1-.25,5.07-1.17,3.29-1.53,5.06-3.27,7.45-4.36,4.08-1.85,7.4-.98,9.23-1.63,1.83-.65,3.85-3.43,8.19-4.57,2.54-.67,8.99-1.86,12.5-2.75,2.11-.53,4.19-2.26,4.67-2.3.66-.05,1.23,5.26-21.76,13.45-22.99,8.19-25.9,3.71-25.35,3.33Z"/>
    <path d="M854.36,221.87l2.43,4.17c.38.64,1.11.97,1.83.82,4.98-1.02,23.93-4.93,28.21-6.5.1-.04.25,1.92.35,1.87l.98-.43c1.5-.88-1.58-5.87-3.31-5.93-5.29-.17-9.91.02-12.7.33-3.49.38-13.03,1.75-16.9,3.16-1.02.37-1.44,1.58-.89,2.51Z"/>
    <path d="M849,224.32l1.24,4.2c.1.73-.19,1.44-.73,1.75-3.72,2.18-15.89,9.36-19.47,10.68-.09.03-.16.05-.25.06l-1.22.17c-1.43.19-1.78-3.44-.7-4.53,3.28-3.32,5.39-5.31,7.33-6.74,2.43-1.79,8.67-5.85,11.9-7.05.85-.32,1.76.39,1.91,1.47Z"/>
    <path class="cls-5" d="M969.6,247.93c-1.6,5.47-4.15,10.77-6.87,15.76-6.04,11.07-14.19,21.2-24.45,28.62-6.12,4.42-12.94,7.85-20.21,9.92-8.15,2.31-17.07,3.58-25.54,3.01-7.65-.52-16.5-3.33-18.9-11.49-.46-1.58-.65-3.23-.54-4.87.02-.33,0,.07,0-.09.06-.62.11-1.23.15-1.85l.67-8.41c.05-.64.1-1.28.15-1.92.08-.99-3.53.32-3.87.66-2.73,2.82-5.45,5.63-8.18,8.45-.94.97-2.26,1.96-3,3.1-.6.92-.37,2.75-.35,3.79.09,6.53,2.29,13.46,7.15,18.01,4.05,3.79,9.93,5.47,15.27,6.38,7.92,1.34,16.04,1.09,23.97.02,9.38-1.27,18.84-3.68,27.54-7.46,7.76-3.37,14.99-8.02,21.61-13.26,6.79-5.37,13.11-11.43,18.37-18.32,4.81-6.3,9.05-13.21,12.81-20.18,1.49-2.75,3.13-5.65,4.05-8.66.04-.12.08-.23.11-.34.12-.43-.39-.5-.7-.53-5.32-.51-10.63-1.03-15.95-1.54-.91-.09-2.13.22-2.86.77-.62.46-.56.89.26.97,5.32.51,10.63,1.03,15.95,1.54l-.7-.53c-.52,1.8-1.39,3.53-2.21,5.21-2.87,5.91-6.34,11.54-9.94,17.03-9.19,14.01-21.8,25.83-36.51,33.93-7.47,4.11-15.6,6.8-23.94,8.54s-16.14,2.44-24.25,1.73c-5.74-.51-11.86-1.71-16.76-4.91-5.34-3.48-8.16-9.81-8.96-15.96-.27-2.06-.34-4.16-.16-6.23.02-.27.03-.27.04-.39.01-.14-.27.32-.05.05.36-.43.79-.82,1.18-1.22,3.06-3.16,6.11-6.32,9.17-9.47l.72-.74c-1.29.22-2.58.44-3.87.66-.17,2.16-.34,4.32-.52,6.48l-.33,4.19c-.03.36-.06.72-.09,1.08-.01.2-.02.31,0,.05-.13,1.4-.08,2.77.19,4.15,1.59,7.91,9.23,11.71,16.58,12.88,8.57,1.36,17.49.27,25.94-1.36,8.36-1.62,16.38-4.55,23.75-8.84,11.93-6.95,21.55-17.32,28.71-29.03,2.52-4.13,4.75-8.43,6.66-12.88.95-2.22,1.94-4.5,2.59-6.84.03-.11.07-.21.1-.32.27-.91-3.69-.4-4,.68Z"/>
    <path d="M855.36,274.34c.2-.1.38-.24.51-.41,2.56-3.28,2.41-4.6,3.89-5.52.34-.21.49-.41,1.59-.96,4.43-2.2,7.1-3.63,22.19.11.3.08,15.93-7.44,16.24-7.58l7.09-6.79c1.12-1.34,23.8-38.46,23.8-38.46.18-1.05,3.78-9.27,3.72-10.2.08-.08.16-.17.25-.24.03-.03.1-.09.17-.15.03.05.08.12.1.15.18.34.3.73.4,1.1.46,1.61.66,3.29.69,4.97.05,2.58.42,5.11.57,7.68.05.91.06,1.81.03,2.72-2.85,3.44-16.12,39.91-27,50.73-.77.51-3.19,2.15-10.11,5.12-12.99,5.59-25.9,9.88-40.33,10.45-3.76.15-7.35-1.37-9.79-4.1-6.97-7.77-22.4-25.08-29.07-37.94,6.27,6.65,19.58,20.93,28.71,30.64.28.29,5.45-1.12,5.91-1.14"/>
    <path d="M885.62,267.21c-.62.84-1.78,1.37-2.87,1.84l-1.13.69c-3.61.93-7.25,1.74-10.91,2.45-.92.18-1.88.35-2.75.21-.09-.02-.19-.04-.28-.06-2.66.75-5.33,1.48-8.01,2.13l-1.31-.03c-1.18.12-2.45.23-3.37-.14-.92-.37-1.2-1.43-.23-2.02,1.01-.62,2.78-.43,3.39-1.24.67-.89-1.18-1.52-.88-2.45.19-.59,1.11-.99,1.66-1.51.65-.62.72-1.39,1.31-2.03.6-.65,1.74-1.1,2.75-1.07,1-.33,2.46-.25,2.61-1.03.04-.21-.06-.4-.12-.6-.23-.76.22-1.69,1.09-2.23.87-.54,2.1-.67,2.96-.3.84.36,1.29,1.11,2.17,1.42.27.1.59.15.9.2.2-.3.47-.57.81-.78.87-.54,2.1-.67,2.96-.3.84.36,1.29,1.11,2.17,1.42.74.26,1.75.2,2.21.71.73.81-.56,2.38.47,2.96.94.52,2.39-.56,3.59-.44,1.15.12,1.44,1.35.82,2.19Z"/>
    <g>
      <path d="M830.01,258.44c1.84,3.03,2.93,6.47,5.57,8.83-1.1.77-.01,2.51,1.2,3.07,1.21.56,2.82,1.1,2.93,2.43.04.46-.14.93-.09,1.39.15,1.46,2.1,1.79,3.56,1.74-.71,1,.53,2.24,1.67,2.69,1.14.44,2.59,1,2.62,2.22.02.6-.36,1.2-.17,1.77.4,1.19,2.36.59,3.31,1.4.55.47.63,1.28.99,1.91.75,1.29,2.92,1.35,3.75.12,1.01,2.35,3.01,5.16,5.41,4.3,1.49-.54,2.49-2.43,4.05-2.23.97.12,1.66,1.04,2.6,1.3,3.18.89,4.77-5.67,7.95-4.76,1.7.48,2.41,3,4.18,3.06,1.67.05,2.49-2.13,4.03-2.78,1.68-.71,3.97.49,5.27-.79.56-.55.71-1.4,1.13-2.07.97-1.52,2.81-.22,4.62-.21,3.23.02,2.85-2.18,2.85-2.18.24-2.33,1.44-2.52,3.73-2.02.76.17,1.53.55,2.28.36,1.85-.47,1.79-3.73,3.66-4.11.69-.14,1.37.19,2.07.29,2.52.35,4.35-3.43,2.52-5.19,2.78-.81,4.41-4.31,3.23-6.96,2.84.07,5.28-3.02,4.56-5.76,3.28-.09,5.4-4.65,3.34-7.21,2.36.15,4.42-2.53,3.67-4.77-.39-1.15-1.33-2.47-.56-3.41.51-.62,1.44-.59,2.21-.83,1.86-.59,2.57-3.31,1.25-4.74,3.23-.16,4.74-5.2,2.15-7.12,2.53-.19,3.66-4.12,1.63-5.64,3.22-1.09,4.1-6.1,1.46-8.22l-25.83,49.93-8.34,7.35s-33.35,13.52-40.71,12.56c-7.36-.96-29.72-25.7-29.72-25.7Z"/>
      <path d="M828.68,259.05c1.79,3,2.96,6.41,5.57,8.83l.14-.97c-1.03.93-.81,2.27.04,3.25.94,1.09,2.56,1.15,3.48,2.19.57.65.14,1.42.26,2.19.1.63.46,1.15.98,1.51,1.11.77,2.57.83,3.87.81-.41-.36-.81-.72-1.22-1.09-1.14,2.16,1.38,3.28,2.93,4.02.44.21,1.01.47,1.19.96.2.52-.14,1.08-.14,1.61-.01.94.6,1.54,1.44,1.81s1.91.06,2.4.87c.55.91.62,1.78,1.64,2.35,1.65.94,4.12.43,5.29-1.05-.88,0-1.76.02-2.64.03,1.2,2.7,3.4,5.76,6.79,4.9.72-.18,1.38-.53,1.98-.97.35-.25,1.18-1.26,1.6-1.28.5-.03,1.39.87,1.84,1.06.59.25,1.23.36,1.87.31,2.56-.22,3.9-2.41,5.5-4.1.73-.77.95-1.07,1.82-.27.93.86,1.58,2.02,2.86,2.43,1.45.47,2.99-.11,4.1-1.07.52-.45.94-1.07,1.5-1.48.62-.46,1.33-.29,2.07-.26,1.62.07,3.33-.14,4.43-1.47.34-.41,1-1.39,1.02-1.92.02-.41.04.06-.3-.02.2.04.43.05.64.09.46.09.91.22,1.38.3,2.07.37,5.61-.11,5.92-2.76.02-.21-.04-.43-.01-.64.03-.23.23-.53.23-.77,0-.3.09-.15-.06-.12.63-.12,1.41.21,2.01.37.93.24,1.79.36,2.73.1,1.51-.43,2.24-1.64,2.9-2.95.14-.27.28-.71.5-.91.31-.3.08-.14.49-.04.89.2,1.72.3,2.62.07,2.67-.71,4.9-4.29,2.7-6.65l-1.09,1.51c3.36-1.12,5.86-4.7,4.44-8.25l-1.6,1.36c3.61-.06,6.96-3.42,6.16-7.12-.53.45-1.07.9-1.6,1.36,4.08-.27,7.53-5.15,4.82-8.79l-1.86,1.58c1.93.02,3.75-.74,4.9-2.34.51-.71.87-1.56.91-2.45.04-1.03-.4-1.83-.75-2.77-.16-.42-.44-1,0-1.3.32-.22,1.03-.22,1.41-.37.81-.32,1.5-.83,2-1.54.98-1.38,1.05-3.25-.04-4.58l-1.49,1.58c4.15-.39,7.1-5.91,3.43-8.87-.43.59-.86,1.17-1.28,1.76,1.82-.24,3.38-1.29,4.01-3.05.58-1.61.23-3.24-1.1-4.34l-.51,1.55c3.69-1.4,5.39-6.82,2.17-9.6-.73-.63-2.24-.4-2.71.5-3.92,7.58-7.85,15.17-11.77,22.75-4.6,8.89-9.2,17.78-13.8,26.68-.12.24-.5.67-.09.27-.61.6-1.3,1.14-1.94,1.71-2.04,1.8-4.16,3.54-6.14,5.41-.6.56.91-.37-.08-.02-.62.22-1.23.49-1.84.73-2.36.93-4.73,1.84-7.11,2.74-6.47,2.43-12.98,4.77-19.62,6.7-2.67.78-5.44,1.56-8.14,1.91-1.04.14-1.61.22-2.46.1-.14-.02,0,.02-.31-.07-.19-.05-.38-.11-.57-.18-.5-.18-.96-.42-1.43-.67-5.56-3.04-10.3-7.84-14.8-12.21-3.85-3.74-7.59-7.6-11.21-11.55-.2-.22-.4-.44-.6-.65-.81-.89-3.57.23-2.67,1.23,2.74,3.03,5.57,5.98,8.45,8.88,4.92,4.96,9.98,9.98,15.68,14.04,1.86,1.32,3.98,2.79,6.29,3.12,2.21.32,4.6-.25,6.75-.72,6.87-1.52,13.56-3.92,20.16-6.3,4.85-1.75,9.68-3.58,14.46-5.5,1.23-.49,2.13-1.49,3.11-2.35,2.06-1.82,4.36-3.54,6.26-5.52.47-.49.73-1.17,1.04-1.77l2.52-4.87c2.73-5.27,5.45-10.54,8.18-15.81,4.71-9.11,9.43-18.23,14.14-27.34.09-.17.17-.34.26-.5-.9.17-1.8.33-2.71.5,1.99,1.73,2,5.81-.74,6.85-.68.26-1.16,1.01-.51,1.55s.8,1.49.65,2.29c-.1.51-.48,1.53-1,1.6-.76.1-2.3.94-1.28,1.76,1.47,1.18,1.28,5.16-.86,5.36-.58.05-2.17.75-1.49,1.58s.85,2.56-.2,3.22c-.53.34-1.42.3-2.01.58s-1.17.73-1.46,1.33c-.66,1.39.49,2.62.76,3.93.21,1.04-.43,3.12-1.78,3.1-.66,0-2.6.58-1.86,1.58,1.24,1.68.65,5.46-1.85,5.63-.62.04-1.78.54-1.6,1.36.42,1.94-.79,4.36-2.96,4.4-.5,0-1.91.59-1.6,1.36.77,1.92.19,4.94-2.03,5.68-.45.15-1.73.83-1.09,1.51.79.85.77,2.06.14,3.01-.78,1.17-1.97.15-3.23.32s-2.22.9-2.87,1.95c-.3.49-.52,1.02-.79,1.52-.1.19-.21.46-.37.61-.08.07-.24.14-.11.11.16-.04-.46-.21-.52-.22-2.15-.59-5.28-.91-6.31,1.63-.21.51-.26,1-.29,1.54.01-.21.03.17-.03.31-.37.8-1.36.49-2.12.31-1.37-.31-2.75-.59-4.05.14-.6.33-1.03.81-1.35,1.41-.3.56-.4,1.39-1.06,1.53-.71.15-1.57-.1-2.31-.07-.78.03-1.55.18-2.25.52-.58.27-1.08.67-1.54,1.11-.41.39-.86,1.12-1.38,1.35-.24.11.05.09-.22-.09-.23-.16-.43-.34-.63-.55-.44-.46-.82-.96-1.29-1.38-.86-.78-1.91-1.17-3.08-1.06-2.25.22-3.61,2.07-4.98,3.63-.58.66-1.03,1.52-1.9,1.04-1.47-.81-2.57-1.52-4.3-.9-.73.26-1.34.71-1.94,1.2-.47.39-.96.99-1.6.89-1.5-.23-2.64-2.62-3.17-3.82-.42-.94-2.1-.66-2.64.03-.89,1.13-1.62-1.56-1.97-2.02-.42-.55-1.07-.83-1.73-.98-.43-.1-1.37-.03-1.65-.38-.33-.41.22-1.55.07-2.14s-.57-1.06-1.06-1.42c-.73-.54-3.97-1.37-3.27-2.69.45-.85-.63-1.1-1.22-1.09-.72.01-1.93-.06-2.21-.88-.19-.55.13-1.23.01-1.81-.08-.41-.29-.79-.56-1.11-.51-.59-5.01-2.41-3.8-3.5.23-.21.42-.72.14-.97-2.61-2.42-3.79-5.83-5.57-8.83-.6-1.01-3.39.01-2.67,1.23Z"/>
    </g>
    <path d="M830.6,237.58c-.9,1.6-1.82,3.41-1.34,5.18.17.64.52,1.22.87,1.79.54.88,1.07,1.76,1.61,2.64.11.17.22.36.4.45.2.11.44.09.66.07.71-.06,1.45-.13,2.06-.49.62-.36,1.07-1.1.87-1.79-.08-.28-.27-.54-.24-.84.05-.57.76-.75,1.24-1.07,1.19-.8.87-2.58,1.02-4,.2-1.93,1.49-3.59,3.02-4.79.77-.61,1.62-1.13,2.25-1.88.63-.75,1.02-1.81.66-2.72"/>
    <path class="cls-23" d="M800.34,652.16l-15.08,4.86s-32.89,37.73-45.64,44.51c-9.42,4.53-19.55,7.64-30.08,9.25l-8.75,8.87c-4.03,4.09-9.45,6.5-15.36,6.84l-4.55.26s-7.75,14.34-12.59,11.78c-4.84-2.56-3.4-8.83-2.01-14.92,1.39-6.09,57.41-86.16,57.41-86.16-8.88,1.02-21.05,10.01-29.5,12.57-12.93,4.04-19.72.66-17.21-6.37,1.55-4.34,9.96-11.4,17.99-11.78,8-.38,33.88-24.06,47.65-26.22,13.77-2.16,30.82,8.66,30.82,8.66,7.52-.18,10.26-1.65,10.26-1.65.89,1.86,16.62,39.5,16.62,39.5Z"/>
    <path class="cls-51" d="M682.81,726.27c3.42-5.11,7.63-9.74,11.61-14.42,4.86-5.7,9.78-11.34,14.46-17.19,1.86-2.33,3.72-4.68,5.29-7.22.58-.94-1.45-.97-1.9-.23-3.18,5.16-7.37,9.78-11.27,14.39-4.8,5.69-9.71,11.29-14.44,17.04-1.87,2.28-3.76,4.58-5.41,7.04-.7,1.05,1.16,1.34,1.67.58h0Z"/>
    <path class="cls-51" d="M712,709.23c6.94-7,13.88-14.01,20.82-21.01,1-1.01,1.99-2.01,2.99-3.02.34-.34-.29-.46-.51-.47-.46-.02-1,.19-1.32.51-6.94,7-13.88,14.01-20.82,21.01-1,1.01-1.99,2.01-2.99,3.02-.34.34.29.46.51.47.46.02,1-.19,1.32-.51h0Z"/>
    <path class="cls-39" d="M1057.65,267.62c23.25,7.76,47.66,33.9,48.49,96.94,2.87,111.78-28.32,207.91-61.76,235.02-40.97,33.23-252.5,66.64-252.5,66.64l-21.8-59.19,212.26-78.01s21.56-224.14,31.38-234.65"/>
    <path class="cls-13" d="M770.6,607.58c1.89-.67,3.79-1.34,5.68-2.01,5.15-1.83,10.3-3.66,15.45-5.48,7.62-2.7,15.23-5.41,22.85-8.11l27.76-9.85c10.17-3.61,20.35-7.22,30.52-10.83l30.81-10.93c9.54-3.39,19.08-6.77,28.62-10.16,8.1-2.87,16.19-5.75,24.29-8.62,5.82-2.07,11.64-4.13,17.46-6.2,2.75-.98,5.54-1.89,8.26-2.93.12-.04.23-.08.35-.12.26-.09.71-.38.74-.7.21-2.36.43-4.73.65-7.09.59-6.34,1.18-12.68,1.78-19.02.87-9.19,1.76-18.39,2.65-27.58,1.07-10.93,2.16-21.85,3.27-32.77,1.18-11.58,2.39-23.15,3.64-34.72,1.19-11.02,2.42-22.03,3.73-33.03,1.11-9.38,2.27-18.75,3.57-28.11.92-6.62,1.86-13.25,3.16-19.81.7-3.56,1.67-7.03,2.85-10.47,1.55-4.48,3.47-8.84,5.85-12.94,2.82-4.86,6.39-9.61,11.21-12.63,2.26-1.42,4.76-2.34,7.42-2.61.42-.04,1.38-.33,1.4-.88.03-.57-.66-.64-1.09-.59-11.86,1.22-19.5,12.15-24.13,22.11-2.12,4.56-3.93,9.4-5.14,14.29-1.36,5.49-2.17,11.14-3.01,16.73-1.3,8.7-2.42,17.43-3.5,26.16-1.32,10.72-2.55,21.44-3.74,32.18-1.29,11.62-2.52,23.25-3.72,34.88-1.17,11.29-2.3,22.58-3.42,33.87-.98,9.88-1.93,19.75-2.88,29.63-.69,7.24-1.37,14.48-2.05,21.72-.32,3.46-.9,7.01-.97,10.49,0,.15-.03.31-.04.46l.74-.7c-1.89.67-3.79,1.34-5.68,2.01-5.15,1.83-10.3,3.66-15.45,5.48l-22.85,8.11-27.76,9.85c-10.17,3.61-20.35,7.22-30.52,10.83-10.27,3.64-20.54,7.29-30.81,10.93-9.54,3.39-19.08,6.77-28.62,10.16-8.1,2.87-16.19,5.75-24.29,8.62-5.82,2.07-11.64,4.13-17.46,6.2-2.75.98-5.54,1.89-8.26,2.93-.12.04-.23.08-.35.12-.41.15-.94.6-.65,1.06s1.28.19,1.65.06h0Z"/>
    <path class="cls-13" d="M1103.88,377.6c-2.5,13.5-4.36,27.1-5.94,40.73-1.62,13.92-3.07,27.87-4.89,41.76-2.21,16.81-5.36,33.46-7.85,50.23-2.54,17.07-4.78,34.31-10.32,50.74-4.41,13.08-10.82,25.77-20.08,36.1-7.84,8.74-17.6,15.34-28.24,20.21-10.06,4.6-20.74,7.7-31.41,10.52-9.5,2.51-19.09,4.69-28.71,6.7-11.99,2.49-24.02,4.72-36.08,6.86-15.3,2.71-30.63,5.26-45.97,7.78-4.38.72-8.77,1.44-13.16,2.15-.32.05-1.42.29-1.44.74-.02.48.71.41,1.03.36,16.49-2.69,32.99-5.4,49.45-8.24,12.79-2.21,25.57-4.5,38.3-7.04,10.25-2.04,20.48-4.24,30.63-6.76,10.16-2.53,20.33-5.27,30.13-8.96,11.13-4.18,21.84-9.75,30.84-17.61,9.45-8.25,16.59-18.67,21.89-29.99,7.35-15.7,10.85-32.69,13.48-49.73,1.34-8.63,2.49-17.29,3.95-25.91,1.46-8.66,2.99-17.31,4.27-26.01,2.15-14.62,3.82-29.3,5.47-43.99,1.52-13.56,3.1-27.11,5.29-40.58.57-3.49,1.18-6.97,1.82-10.44.13-.73-2.34-.31-2.47.39h0Z"/>
    <path class="cls-13" d="M982.57,529.82c6.31-1.18,12.4,2.78,17,6.64,5.21,4.37,9.59,9.66,13.83,14.95.67.84,3.05-.12,2.28-1.07-4.57-5.71-9.32-11.39-15.05-15.98-5.24-4.2-11.61-7.44-18.49-6.15-.47.09-1.18.58-1.03,1.14.16.61,1,.56,1.46.47h0Z"/>
    <path class="cls-13" d="M761.66,526.45c4.64-.6,9.2,1.43,13.05,3.84,3.2,2,6.07,4.54,8.51,7.42,4.96,5.84,8.11,13.11,8.87,20.74.08.83,2.7.27,2.6-.7-1.26-12.6-9.12-24.27-20.37-30.11-3.8-1.97-8-3.16-12.3-2.61-.41.05-1.46.33-1.48.87s.71.59,1.12.54h0Z"/>
    <path class="cls-51" d="M941.6,169.14c.53-5.43,1.27-11.03,3.23-16.15.48-1.26,1.05-2.52,1.79-3.65.22-.35.47-.68.74-.99.11-.13.22-.25.34-.37.22-.23.02-.04.19-.18.09-.08.19-.15.29-.22.23-.18.04-.09.03-.03.02-.07.54-.21-.06,0l-.95-.1c.99.61,1.79,1.57,2.46,2.5,1.93,2.68,2.82,5.94,3.15,9.19.09.89,2.09.41,1.99-.53-.39-3.85-1.61-7.81-4.28-10.72-.78-.85-1.82-2.12-3.08-1.54-.83.38-1.51,1.13-2.05,1.83-1.36,1.77-2.24,3.87-2.94,5.97-1.63,4.89-2.37,10.05-2.87,15.17-.1,1.01,1.93.73,2.02-.16h0Z"/>
    <path class="cls-51" d="M944.36,170.54c3.48-1.4,1.98,10.73,6.03,10.44,1.37-.1,1.81-1.39,1.95-2.56.23-2.01-.03-4.12-.31-6.11-.4-2.85-.99-5.26-2.28-7.81-1.45-2.87-3.73-6.18-7.25-6.42-.45-.03-1.11.13-1.3.61-.18.44.16.79.6.82,2.79.19,4.64,3.1,5.84,5.32,1.1,2.06,1.72,4.03,2.13,6.33.37,2.13.68,4.33.61,6.5-.02.63-.19,1.23-.24,1.84,0,.07-.15.24-.14.29h0c-.26-.13.01-.2.82-.23,0,0-.31-.26-.34-.3-.6-.73-.74-1.92-.93-2.81-.27-1.27-.49-2.56-.85-3.81-.31-1.09-.74-2.31-1.65-3.05-1.05-.85-2.4-.68-3.58-.21-.39.16-.73.61-.47,1.01.27.43.98.29,1.35.14h0Z"/>
    <circle class="cls-8" cx="558.08" cy="880.39" r="61.2"/>
    <path class="cls-45" d="M501.22,902.56c2.04,5.36,4.85,10.53,8.5,15.33,2.9,3.81,6.17,7.18,9.7,10.11,59.53-19.22,74.82-36.58,96.6-67.9-2.06-5.7-5-11.2-8.86-16.28-3.24-4.26-6.93-7.97-10.95-11.13-33.07,51.1-78.35,62.98-94.99,69.87Z"/>
    <rect class="cls-29" x="391.38" y="887.54" width="51.41" height="37.16"/>
    <polygon class="cls-9" points="441.69 924.7 454.84 917.65 454.84 880.48 441.69 887.54 441.69 924.7"/>
    <polygon class="cls-18" points="391 887.44 404.15 880.39 455.56 880.39 442.4 887.44 391 887.44"/>
    <rect class="cls-16" x="402.12" y="848.8" width="51.41" height="37.16"/>
    <polygon class="cls-33" points="453.53 885.96 466.68 878.91 466.68 841.74 453.53 848.8 453.53 885.96"/>
    <polygon class="cls-52" points="402.12 848.8 415.27 841.74 466.68 841.74 453.53 848.8 402.12 848.8"/>
    <rect class="cls-17" x="393.81" y="806.97" width="51.41" height="37.16"/>
    <polygon class="cls-43" points="445.22 844.13 458.37 837.08 458.37 799.91 445.22 806.97 445.22 844.13"/>
    <polygon class="cls-14" points="393.81 806.97 406.97 799.91 458.37 799.91 445.22 806.97 393.81 806.97"/>
    <path class="cls-23" d="M368.65,708.53l-100.17,2.3s-41.22-66.49-48.75-81.11c-11.28-1.3-22.58-2.55-33.33-6.43-2.16-.78-4.25-1.96-6.31-3.28l6.1,45.28c15.58,25.01,39.3,76.77,65.3,86.49,32.16,12.02,121.65-22.21,121.65-22.21l-4.48-21.04Z"/>
    <rect class="cls-17" x="402.73" y="684.34" width="39.57" height="54.73" transform="translate(-334.69 1045.89) rotate(-83.12)"/>
    <polygon class="cls-43" points="447.31 734.62 462.11 728.84 466.85 689.56 452.05 695.34 447.31 734.62"/>
    <polygon class="cls-14" points="397.71 688.78 412.52 683 466.85 689.56 452.05 695.34 397.71 688.78"/>
    <path class="cls-21" d="M267.12,710.91c-5.19,2.08-9.42,6.17-11.32,11.47-.11.31.63.18.75.16.27-.05,1-.19,1.12-.5,1.7-4.73,5.4-8.84,10.1-10.73.16-.06.78-.26.57-.51-.18-.22-1.04.05-1.22.12h0Z"/>
    <path class="cls-21" d="M279.06,710.49c6.7.82,13.45.67,20.17.34s13.5-.67,20.26-.78c10.39-.17,20.79-.01,31.19-.24,5.87-.13,11.73-.41,17.58-.86.31-.02,1.12-.13,1.27-.47s-.12-.4-.47-.37c-21.83,1.65-43.75.51-65.6,1.69-7.72.42-15.47.79-23.18-.15-.46-.06-2.19.72-1.22.84h0Z"/>
    <path class="cls-23" d="M397.21,692.93c-4.17.5-9.19,2.28-13.04,3.75-4.65,2.11-15.42,12.26-15.42,12.26l-18.27,1.41,3.87,25.37,16.18-2.26,15.78,4.5s30.04,2.15,33.65-.02c3.61-2.17,7.64-10.26,7.64-10.26,5.26-2.07,5.73-9.51,5.73-9.51,7.33-6.12,1.09-7.72,1.09-7.72.3-.15.55-.38.72-.66,1.82-3.04-2.34-6.55-5.47-4.9-5.26,2.72-12.39,6.26-13.41,6-1.02-.26-8.07-.99-14.24-1.61-3.16-.18-5.69-2.71-5.65-5.66,0-.27-.05-2.34-.05-2.34"/>
    <path class="cls-21" d="M408.64,720.59c5.2,1.05,10.74.99,15.62-1.23,2.17-.98,4.21-2.29,5.99-3.87s3.5-3.22,4.78-5.25c.55-.87-1.38-.88-1.81-.2-1.15,1.83-2.76,3.33-4.37,4.75s-3.46,2.59-5.42,3.49c-4.42,2-9.44,1.91-14.12.97-.92-.18-1.93,1.1-.67,1.35h0Z"/>
    <path class="cls-21" d="M408.31,727.25c3.17.53,6.4,1.1,9.62.66,3.03-.41,5.72-1.79,8.22-3.5,2.71-1.85,5.78-3.58,8.03-5.98.81-.86-1.02-1.13-1.58-.53-2.03,2.17-4.85,3.7-7.29,5.4-2.19,1.52-4.53,2.89-7.2,3.27-3.05.44-6.13-.15-9.13-.65-.91-.15-1.94,1.13-.67,1.34h0Z"/>
    <path class="cls-21" d="M408.9,734.03c1.94.18,3.88.27,5.82.33,2.1.07,4.24.28,6.21-.58s3.68-1.98,5.23-3.33c.74-.65,1.46-1.36,2.01-2.19.18-.26.55-.71.33-1.03-.29-.4-2.12.21-1.78.68,0,.01-.56.83-.67.97-.55.69-1.19,1.3-1.87,1.86-1.26,1.04-2.86,2.23-4.45,2.71-.88.27-1.9.11-2.81.09-.86-.02-1.72-.05-2.58-.09-1.42-.06-2.83-.14-4.24-.27-.41-.04-1.03.07-1.34.36-.25.23-.28.46.13.49h0Z"/>
    <path class="cls-21" d="M331.53,744.28c6.54-1.45,13.08-2.91,19.62-4.36,4.67-1.04,9.33-2.07,14-3.11l4.95-1.1c.77-.17,1.77-.23,2.49-.55.37-.17-.44.46-.36.02,0,0,.66.12.69.12l3.4.6c2.02.35,4.04.71,6.06,1.06.94.16,1.93-1.16.66-1.39-1.7-.3-3.39-.59-5.09-.89s-3.41-.81-5.09-.89c-.65-.03-1.37.23-1.99.37l-4.32.96c-9.24,2.05-18.48,4.11-27.72,6.16-2.55.57-5.11,1.13-7.66,1.7-1.19.26-.83,1.57.35,1.31h0Z"/>
    <path class="cls-28" d="M201.15,597.69c7.27-.48,16.74,7.84,22.11,12.77,5.36,4.94,6.63,10.18,9.69,16.8,3.79,8.21,7.83,18.2,9.92,27,.81,3.43,3.3,9.12,2.46,12.54,0,0-7.46,4.53-10.43,6.43-20.59,13.23-39.69,13.07-39.69,13.07q-3.09-.31-6.18-.61c-.74-.07-1.5-.15-2.14-.51-.75-.42-1.25-1.16-1.72-1.88-8.99-14.06-21.02-38.21-18.71-54.75,0,0,6.27-28.97,34.68-30.85Z"/>
  </g>
</svg>