<?xml version="1.0" encoding="utf-8"?>
<!-- Generator: Adobe Illustrator 25.0.1, SVG Export Plug-In . SVG Version: 6.00 Build 0)  -->
<svg version="1.1" id="Layer_1" xmlns="http://www.w3.org/2000/svg" xmlns:xlink="http://www.w3.org/1999/xlink" x="0px" y="0px"
	 viewBox="0 0 348 282.35" style="enable-background:new 0 0 348 282.35;" xml:space="preserve">
<style type="text/css">
	.st0{fill:#F8D979;}
	.st1{fill:#FFCB05;}
	.st2{fill:#F8AC1C;}
	.st3{fill:#E59525;}
	.st4{fill:none;stroke:#138AB2;stroke-width:6;stroke-linecap:round;stroke-miterlimit:10;}
	.st5{fill:#A1CBEC;}
	.st6{fill:#0AA0CC;}
	.st7{fill:#FFFFFF;}
	.st8{fill:none;stroke:#0D4061;stroke-width:1.99;stroke-linecap:round;stroke-miterlimit:10;}
	.st9{fill:#0D4061;}
	.st10{fill:none;stroke:#231F20;stroke-width:1.07;stroke-linecap:round;stroke-miterlimit:10;}
	.st11{fill:none;stroke:#198AB1;stroke-width:5;stroke-linecap:round;stroke-miterlimit:10;}
	.st12{fill:none;stroke:#0D4061;stroke-width:2.29;stroke-linecap:round;stroke-miterlimit:10;}
	.st13{fill:#57C4CF;}
	.st14{fill:#504B48;}
	.st15{fill:#7D3A1B;}
	.st16{fill:#572513;}
	.st17{fill:#5754A3;}
</style>
<polyline class="st0" points="0,282.35 0,0 348,0 348,282.35 "/>
<rect y="238.97" class="st1" width="348" height="43.38"/>
<polyline class="st2" points="122.13,262.66 114.29,262.66 114.29,228.88 51.14,228.88 51.14,262.66 43.13,262.66 43.13,225.73 
	43.26,225.73 43.26,218.53 122.13,218.53 122.13,225.83 "/>
<path class="st3" d="M42.6,202.46h80.7c3.07,0,5.55,2.48,5.55,5.55v7.26c0,3.07-2.48,5.55-5.55,5.55H42.6
	c-3.07,0-5.55-2.48-5.55-5.55v-7.26C37.05,204.94,39.53,202.46,42.6,202.46z"/>
<path class="st4" d="M151.25,119.17c0,0-9.29,13.74-15.39,16.21S118,132.69,118,132.69"/>
<path class="st5" d="M146.24,116.13c-0.96,2.18-0.52,4.73,1.13,6.46c2.19,2.39,5.74,2.74,7.89,0.77l5.32-4.85l0.1-0.11l0.07-0.05
	l7.17-6.55c0.59-0.62,0.56-1.59-0.06-2.18c-0.56-0.53-1.41-0.57-2.01-0.09l-3.91,3.56c-0.13-0.43-0.3-0.85-0.52-1.24l4.69-4.28
	c0.61-0.6,0.63-1.58,0.03-2.19c-0.58-0.59-1.52-0.63-2.14-0.08l-4.69,4.28c-0.33-0.23-0.69-0.42-1.06-0.58l4-3.67
	c0.56-0.64,0.5-1.62-0.15-2.19c-0.54-0.47-1.34-0.51-1.92-0.09l-6.71,6.13c-0.26,0.15-0.5,0.32-0.73,0.51l0.89-1.61
	c0.32-0.73,0.06-1.58-0.62-2l0,0c-0.62-0.45-1.48-0.31-1.93,0.3c-0.03,0.04-0.05,0.07-0.07,0.11"/>
<path class="st6" d="M69.11,24.46h26.48c18.69,0,33.85,15.16,33.85,33.85v117.14c0,18.69-15.16,33.85-33.85,33.85H69.11
	c-18.69,0-33.85-15.16-33.85-33.85V58.31C35.26,39.62,50.42,24.46,69.11,24.46z"/>
<path class="st7" d="M75.85,71.81c-0.17-5.15,3.87-9.46,9.02-9.63c5.15-0.17,9.46,3.87,9.63,9.02c0.01,0.2,0.01,0.41,0,0.61"/>
<path class="st7" d="M109,71.81c0-5.15,4.18-9.33,9.33-9.33s9.33,4.18,9.33,9.33"/>
<line class="st8" x1="75.78" y1="57.28" x2="93.8" y2="53.32"/>
<line class="st8" x1="127.09" y1="57.11" x2="110.76" y2="52.07"/>
<path class="st9" d="M84.09,71.81c0-2.23,1.81-4.04,4.04-4.04c2.23,0,4.03,1.81,4.03,4.04"/>
<path class="st9" d="M117.2,71.81c0-2.23,1.81-4.04,4.04-4.04c2.23,0,4.03,1.81,4.03,4.04"/>
<ellipse transform="matrix(0.9999 -0.0106 0.0106 0.9999 -0.7222 0.8918)" class="st10" cx="83.4" cy="68.28" rx="13.21" ry="8.99"/>
<ellipse transform="matrix(0.9999 -0.0106 0.0106 0.9999 -0.7166 1.2767)" class="st10" cx="119.56" cy="67.94" rx="13.21" ry="8.99"/>
<path class="st10" d="M96.63,69c0,0,5.29-6.88,10,0"/>
<path class="st4" d="M44.08,123.87c0,0,6.2,24.88,17.73,29.35s28.73,2.2,28.73,2.2"/>
<path class="st11" d="M203.08,171.15c0,0-13.73,2.61-25.68-15.2"/>
<path class="st6" d="M321.27,133.22c-1.24,36.54-32.81,87-67.86,85.78c-36.91-1.24-63.17-52.88-61.94-89.42s30.58-44.12,66.41-42.91
	S322.5,96.67,321.27,133.22z"/>
<path class="st7" d="M201.18,134c0.03-5.85,4.81-10.57,10.66-10.54c5.85,0.03,10.57,4.81,10.54,10.66c0,0.2-0.01,0.39-0.02,0.59"/>
<path class="st7" d="M232.71,135.07c0.36-5.84,5.38-10.29,11.23-9.93c5.62,0.34,9.99,5.02,9.95,10.65"/>
<path class="st12" d="M203.92,120.37c0,0,3.31-6.18,10-2.24"/>
<path class="st12" d="M251.52,122c0,0-3.06-6.49-10-3"/>
<path class="st9" d="M241.25,145c0,0-2.7,7.74-14.68,7.1s-12.68-8-12.68-8L241.25,145z"/>
<path class="st9" d="M89.85,84c0,0,2.1-4.77,12.4-4.63S113.37,84,113.37,84H89.85z"/>
<polyline class="st6" points="239.63,259.41 234.99,212.43 249.73,212.43 243.71,260.77 240.14,257.3 "/>
<polygon class="st13" points="246.77,236.08 237.06,236.08 239.45,260.38 244.39,260.38 "/>
<path class="st14" d="M228.92,260.77c0-3.64,3.47-6.6,7.77-6.6s7.77,3,7.77,6.6"/>
<polyline class="st6" points="258.55,259.41 253.91,212.43 268.65,212.43 262.63,260.77 259.06,257.3 "/>
<polygon class="st13" points="265.69,236.08 255.99,236.08 258.38,260.38 263.31,260.38 "/>
<path class="st14" d="M248,260.77c0-3.64,3.48-6.6,7.77-6.6c4.29,0,7.77,3,7.77,6.6"/>
<path class="st9" d="M208.54,129.9c2.69-0.92,4.44-3.52,4.26-6.36c-0.25,0-0.5-0.06-0.75-0.07c-3.91-0.13-7.58,1.91-9.54,5.3
	C204.19,130.17,206.47,130.59,208.54,129.9z"/>
<path class="st9" d="M240.12,131.55c2.7-0.91,4.45-3.52,4.26-6.36c-0.25,0-0.49-0.06-0.75-0.07c-3.91-0.13-7.58,1.91-9.53,5.3
	C235.77,131.82,238.05,132.25,240.12,131.55z"/>
<path class="st15" d="M102.94,125.87c0.07,0.24,0.23,0.45,0.44,0.59c1.85,1.28,3.17,3.18,3.73,5.35c0.12,0.57,0.17,1.14,0.17,1.72
	c0,9.81,0,19.62,0,29.43c0.04,1.07-0.28,2.13-0.9,3c-0.42,0.63-1.13,1.01-1.89,1H92.82c-0.92,0.04-1.77-0.49-2.13-1.34
	c-0.38-0.78-0.59-1.62-0.64-2.48c-0.04-9.92-0.04-19.84,0-29.76c0-3,1.61-5.1,3.85-6.82l1.67-10.46c0.09-1.11,0.16-2.22,0.24-3.37
	c-1.14-0.56-1.17-1.35-0.25-2.1c0.28-0.22,0.29-0.78,0.43-1.24l-0.76-0.18v-1h6.88v1l-0.58,0.1c-0.07,0.62-0.17,1.15,0.54,1.58
	s0.42,1.37-0.53,1.82c0.13,1.75,0.25,3.52,0.39,5.29L102.94,125.87z"/>
<path class="st11" d="M287.72,166.39c0,0,15.06,10.08,8,40.59"/>
<rect x="90.01" y="137.57" class="st16" width="17.28" height="21.39"/>
<path class="st5" d="M88.31,149.38c-2.09,1.16-3.28,3.47-3,5.85c0.32,3.22,3,5.63,5.85,5.35l7.17-0.7h0.15h0.07l9.68-0.93
	c0.84-0.17,1.38-0.98,1.22-1.82c-0.14-0.72-0.78-1.24-1.52-1.25l-5.27,0.51c0.16-0.42,0.28-0.86,0.34-1.31l6.31-0.61
	c0.83-0.19,1.36-1.02,1.16-1.86c-0.16-0.69-0.76-1.18-1.46-1.2l-6.31,0.61c-0.14-0.38-0.31-0.75-0.51-1.1l5.43-0.53
	c0.83-0.19,1.36-1.02,1.16-1.86c-0.16-0.69-0.76-1.18-1.46-1.2l-9,0.87c-0.3-0.03-0.59-0.03-0.89,0l1.67-0.76
	c0.73-0.37,1.04-1.24,0.73-2l0,0c-0.22-0.72-0.99-1.12-1.7-0.89c-0.04,0.01-0.08,0.03-0.12,0.04"/>
<path class="st5" d="M180.8,151.82c0.32,2.03-0.61,4.05-2.35,5.13c-2.42,1.75-5.62,1.71-7.1-0.07l-3.67-4.41l-0.07-0.09h-0.05
	l-4.94-5.94c-0.35-0.56-0.18-1.29,0.37-1.64c0.02-0.01,0.04-0.03,0.07-0.04c0.54-0.46,1.32-0.46,1.86,0l2.69,3.24
	c0.2-0.36,0.44-0.69,0.72-1l-3.23-3.88c-0.35-0.56-0.18-1.29,0.38-1.64c0.02-0.01,0.05-0.03,0.07-0.04c0.53-0.47,1.32-0.47,1.85,0
	l3.23,3.88c0.34-0.15,0.7-0.28,1.06-0.37l-2.77-3.34c-0.35-0.55-0.18-1.28,0.37-1.63c0.02-0.01,0.05-0.03,0.07-0.04
	c0.53-0.47,1.33-0.47,1.86,0l4.63,5.55c0.19,0.14,0.37,0.31,0.53,0.49l-0.44-1.39c-0.11-0.71,0.32-1.38,1-1.59l0,0
	c0.56-0.33,1.27-0.14,1.6,0.41c0.02,0.03,0.03,0.06,0.05,0.09"/>
<path class="st5" d="M291.05,203.94c1.21-1.66,3.3-2.43,5.3-1.95c2.94,0.49,5.17,2.79,4.95,5.1l-0.55,5.7c0,0.04,0,0.08,0,0.12V213
	l-0.74,7.7c-0.05,0.61-0.73,1-1.5,0.87c-0.71-0.06-1.26-0.63-1.29-1.34l0.4-4.19c-0.39,0.1-0.79,0.15-1.19,0.17l-0.48,5
	c-0.16,0.64-0.81,1.04-1.45,0.88c-0.02,0-0.04-0.01-0.06-0.02c-0.7-0.05-1.26-0.62-1.29-1.33l0.48-5c-0.35-0.14-0.68-0.3-1-0.49
	l-0.41,4.32c-0.16,0.64-0.81,1.04-1.45,0.88c-0.02,0-0.04-0.01-0.06-0.02c-0.7-0.05-1.26-0.62-1.29-1.33l0.69-7.2
	c-0.03-0.24-0.03-0.48,0-0.72l-0.66,1.29c-0.41,0.58-1.19,0.77-1.82,0.44l0,0c-0.63-0.17-1-0.82-0.82-1.45
	c0.01-0.03,0.02-0.05,0.02-0.08"/>
<polyline class="st6" points="66.03,199.37 93.46,259.83 100.28,257.94 92.21,206.73 "/>
<polygon class="st17" points="101.72,264.31 95.86,265.94 87.26,246.16 97.78,242.04 "/>
<path class="st14" d="M116.17,260.74c-1.7-5.55-7.57-8.68-13.12-6.98c-5.35,1.63-8.48,7.17-7.13,12.59"/>
<polyline class="st6" points="98.39,204.08 119.61,252.85 126.43,250.97 117.5,194.25 "/>
<polygon class="st17" points="128.03,257.52 121.45,259.34 113.54,238.9 123.96,235.28 "/>
<path class="st14" d="M141.79,253.72c-1.7-5.55-7.57-8.68-13.12-6.98c-5.35,1.63-8.48,7.17-7.13,12.59"/>
</svg>
