<svg id="Layer_1" data-name="Layer 1" xmlns="http://www.w3.org/2000/svg" viewBox="0 0 348 282.35"><defs><style>.cls-1{fill:#f8d979;}.cls-10,.cls-11,.cls-2,.cls-9{fill:none;stroke-linecap:round;stroke-miterlimit:10;}.cls-2{stroke:#138ab2;stroke-width:6px;}.cls-3{fill:#a1cbec;}.cls-4{fill:#ffcb05;}.cls-5{fill:#f8ac1c;}.cls-6{fill:#e59525;}.cls-7{fill:#0aa0cc;}.cls-8{fill:#0d4061;}.cls-10,.cls-9{stroke:#0d4061;}.cls-9{stroke-width:1.02px;}.cls-10{stroke-width:2.03px;}.cls-11{stroke:#231f20;stroke-width:1.09px;}.cls-12{fill:#7d3a1b;}.cls-13{fill:#572513;}.cls-14{fill:#5754a3;}.cls-15{fill:#504b48;}</style></defs><polyline class="cls-1" points="0 282.35 0 0 348 0 348 282.35"/><path class="cls-2" d="M181.36,128.55s10,26.4,21,32.67a46.33,46.33,0,0,0,21,6.26"/><path class="cls-3" d="M240.59,173.73a1.48,1.48,0,0,0,1.49-1.48,1.5,1.5,0,0,0-1.32-1.65l-5.38-.3a5.88,5.88,0,0,0,.53-1.26l6.46.36a1.58,1.58,0,0,0,.17-3.14l-6.45-.35a6.8,6.8,0,0,0-.35-1.19l5.55.31a1.58,1.58,0,0,0,.17-3.13l-9.24-.52a5.36,5.36,0,0,0-.89-.16l1.8-.5a1.61,1.61,0,0,0,1.05-1.9h0a1.4,1.4,0,0,0-1.71-1.14l-9.63,2.67a1.42,1.42,0,0,0-.86.7,6,6,0,0,0-3.9,5.43c-.18,3.29,2.1,6.12,5.06,6.29l7.33.4a.75.75,0,0,0,.15,0l.08,0Z"/><rect class="cls-4" y="238.97" width="348" height="43.38"/><polyline class="cls-5" points="190.21 262.91 182.22 262.91 182.22 228.5 117.88 228.5 117.88 262.91 109.72 262.91 109.72 225.28 109.86 225.28 109.86 217.95 190.21 217.95 190.21 225.39"/><rect class="cls-6" x="103.53" y="201.58" width="93.52" height="18.7" rx="5.65"/><rect class="cls-7" x="109.33" y="20.23" width="95.95" height="188.32" rx="34.49" transform="translate(20.54 -23.91) rotate(9.3)"/><path class="cls-8" d="M189.25,86.83c3.05.5,3.62,3.91.75,4.63-2.28.57-5.17-.35-9.23-1.08-3.78-.68-6.53-.63-8.28-1.76-2.51-1.62-1-4.69,2.14-4.18Z"/><path class="cls-9" d="M210.24,74.68c-.7,4.58-5.47,7.66-10.66,6.86s-8.83-5.15-8.13-9.73"/><path class="cls-9" d="M176.89,69.59c-.7,4.58-5.47,7.65-10.66,6.86s-8.83-5.15-8.13-9.74"/><line class="cls-10" x1="160.48" y1="57.71" x2="178.3" y2="63.68"/><line class="cls-10" x1="210.51" y1="64.79" x2="193.12" y2="65.75"/><ellipse class="cls-11" cx="165.18" cy="71.34" rx="9.15" ry="13.46" transform="translate(69.71 223.85) rotate(-81.31)"/><ellipse class="cls-11" cx="201.58" cy="76.96" rx="9.15" ry="13.46" transform="translate(95.05 264.6) rotate(-81.31)"/><path class="cls-11" d="M178.35,74.27s6.45-6,10,1.63"/><path class="cls-12" d="M234.23,138.83a1.1,1.1,0,0,0,.44.6,9.48,9.48,0,0,1,3.8,5.45,7.94,7.94,0,0,1,.18,1.75q0,15,0,30a4.93,4.93,0,0,1-.92,3.06,2.27,2.27,0,0,1-1.91,1h-11.9a2.22,2.22,0,0,1-2.17-1.37,6.46,6.46,0,0,1-.66-2.52q-.06-15.17,0-30.32c0-3,1.64-5.2,3.92-6.95l1.71-10.66c.09-1.12.15-2.25.24-3.43-1.16-.57-1.2-1.38-.25-2.13.28-.23.29-.8.44-1.27l-.78-.18v-1h7v1l-.6.1c-.06.63-.17,1.17.55,1.61s.44,1.39-.53,1.85c.13,1.79.25,3.59.39,5.39Z"/><path class="cls-2" d="M148,86.08s-5,15.38-7.34,21.67c-5.06,13.64-22.87,21.66-22.87,21.66"/><path class="cls-3" d="M141.6,83.65a6,6,0,0,0,4.43,5c3.17.91,6.44-.68,7.26-3.53l2-7,0-.15s0-.05,0-.07l2.74-9.52A1.49,1.49,0,0,0,157,66.55a1.51,1.51,0,0,0-1.9.92l-1.49,5.18a6.4,6.4,0,0,0-1.11-.8l1.78-6.21a1.58,1.58,0,0,0-3-.87L149.49,71a7.14,7.14,0,0,0-1.23.07l1.53-5.34a1.57,1.57,0,0,0-3-.86l-2.56,8.89a3.94,3.94,0,0,0-.36.84l-.09-1.87a1.6,1.6,0,0,0-1.62-1.45h0a1.4,1.4,0,0,0-1.49,1.41"/><rect class="cls-13" x="221.05" y="149.66" width="17.6" height="21.79"/><polyline class="cls-7" points="132.89 202.46 160.33 262.92 167.15 261.03 159.08 209.81"/><polygon class="cls-14" points="168.59 267.4 162.72 269.02 154.13 249.24 164.64 245.13 168.59 267.4"/><path class="cls-15" d="M183,263.83a10.51,10.51,0,1,0-20.25,5.61"/><polyline class="cls-7" points="165.26 207.17 186.48 255.94 193.3 254.05 184.36 197.34"/><polygon class="cls-14" points="194.89 260.61 188.32 262.43 180.41 241.98 190.83 238.37 194.89 260.61"/><path class="cls-15" d="M208.66,256.81a10.51,10.51,0,1,0-20.26,5.61"/></svg>