<svg id="Layer_1" data-name="Layer 1" xmlns="http://www.w3.org/2000/svg" viewBox="0 0 348 282.35"><defs><style>.cls-1{fill:#f8d979;}.cls-10,.cls-12,.cls-13,.cls-2,.cls-7{fill:none;stroke-linecap:round;stroke-miterlimit:10;}.cls-2{stroke:#198ab1;stroke-width:5px;}.cls-3{fill:#a1cbec;}.cls-4{fill:#ffcb05;}.cls-5{fill:#f8ac1c;}.cls-6{fill:#e59525;}.cls-7{stroke:#138ab2;stroke-width:6px;}.cls-8{fill:#0aa0cc;}.cls-9{fill:#fff;}.cls-10,.cls-13{stroke:#0d4061;}.cls-10{stroke-width:2.02px;}.cls-11{fill:#0d4061;}.cls-12{stroke:#231f20;stroke-width:1.21px;}.cls-13{stroke-width:2px;}.cls-14{fill:#7d3a1b;}.cls-15{fill:#572513;}.cls-16{fill:#57c4cf;}.cls-17{fill:#504b48;}.cls-18{fill:#5754a3;}</style></defs><polyline class="cls-1" points="-0.64 282.11 -0.64 -0.24 347.36 -0.24 347.36 282.11"/><path class="cls-2" d="M208.73,165.45s-9.45,11.15-33.94,3.52"/><path class="cls-3" d="M177.39,164.55a5.07,5.07,0,0,1,1,5.52c-1,2.8-3.62,4.59-5.84,4l-5.49-1.51-.12,0h-.06l-7.41-2a1.18,1.18,0,0,1-.59-1.62,1.41,1.41,0,0,1,1.53-1l4,1.12a5.29,5.29,0,0,1,0-1.19l-4.84-1.34a1.18,1.18,0,0,1-.59-1.62,1.41,1.41,0,0,1,1.53-1l4.84,1.34a6,6,0,0,1,.65-.91L161.92,163a1.19,1.19,0,0,1-.58-1.63,1.38,1.38,0,0,1,1.52-1l6.93,1.91a2.82,2.82,0,0,1,.71.09l-1.15-.88a1.41,1.41,0,0,1-.11-1.85h0a1.16,1.16,0,0,1,1.63-.52"/><rect class="cls-4" x="-0.64" y="238.73" width="348" height="43.38"/><polyline class="cls-5" points="146.88 259.56 139.39 259.56 139.39 227.3 79.07 227.3 79.07 259.56 71.42 259.56 71.42 224.28 71.54 224.28 71.54 217.4 146.88 217.4 146.88 224.38"/><rect class="cls-6" x="65.61" y="202.06" width="87.68" height="17.53" rx="5.3"/><polyline class="cls-5" points="287.02 260.05 279.53 260.05 279.53 227.79 219.21 227.79 219.21 260.05 211.56 260.05 211.56 224.77 211.68 224.77 211.68 217.9 287.02 217.9 287.02 224.87"/><rect class="cls-6" x="205.75" y="202.55" width="87.68" height="17.53" rx="5.3"/><path class="cls-7" d="M189.86,140s-14,9.38-20.68,9.38S153.35,140,153.35,140"/><path class="cls-3" d="M183.05,137.35a6,6,0,0,0-1.4,6.51c1.14,3.09,4.34,4.77,7.12,3.74l6.86-2.53.14-.06.08,0,9.26-3.43a1.57,1.57,0,0,0-1.09-2.93l-5,1.86a6.29,6.29,0,0,0,0-1.37l6-2.23a1.57,1.57,0,0,0-1.08-2.93l-6,2.23a7.24,7.24,0,0,0-.79-.95l5.2-1.92a1.57,1.57,0,0,0-1.09-2.93l-8.65,3.2a5.45,5.45,0,0,0-.89.2l1.45-1.17a1.6,1.6,0,0,0,.2-2.16h0a1.39,1.39,0,0,0-2-.36"/><rect class="cls-8" x="68.71" y="18.72" width="95.65" height="192.47" rx="34.81" transform="translate(18.54 -16.16) rotate(8.62)"/><path class="cls-9" d="M118.17,69.55a9.48,9.48,0,0,1,18.74,2.84"/><path class="cls-9" d="M151.43,74.59a9.48,9.48,0,0,1,18.74,2.83"/><line class="cls-10" x1="119.05" y1="56.94" x2="134.93" y2="54.47"/><line class="cls-10" x1="171.84" y1="64.16" x2="155.81" y2="57.49"/><path class="cls-11" d="M126.45,70.8a4.1,4.1,0,1,1,8.1,1.23"/><path class="cls-11" d="M159.7,75.84a4.1,4.1,0,1,1,8.11,1.23"/><ellipse class="cls-12" cx="126.88" cy="68.32" rx="8.76" ry="12.87" transform="translate(41.54 184.44) rotate(-81.99)"/><ellipse class="cls-12" cx="161.75" cy="73.29" rx="8.76" ry="12.87" transform="translate(66.64 223.25) rotate(-81.99)"/><path class="cls-12" d="M139.51,71s6.1-5.86,9.61,1.44"/><path class="cls-8" d="M311.81,135.17c-2.74,34.11-34.44,79.88-67.15,77.26-34.46-2.77-56.77-52.17-54-86.28s30.49-39.92,63.93-37.24S314.54,101.06,311.81,135.17Z"/><path class="cls-9" d="M203.31,135a9.92,9.92,0,0,1,19.77,1.59"/><path class="cls-9" d="M232.74,137.36A9.92,9.92,0,0,1,252.51,139"/><path class="cls-13" d="M203.27,124.55s.85-7.11,9-6.24"/><path class="cls-13" d="M253.57,126.89s-.47-6.57-9.32-6.13"/><path class="cls-11" d="M218.58,149.46a2.44,2.44,0,0,1-1.63-4.17c2-2,5.51-3.88,11.14-3.51s8.57,2.55,10.11,4.62a2.44,2.44,0,0,1-2.12,3.85Z"/><polyline class="cls-8" points="220.43 245.98 225.73 202.11 239.19 205.1 223.89 248.05 221.33 244.16"/><polyline class="cls-8" points="237.72 249.82 243.02 205.95 256.48 208.94 241.18 251.88 238.62 247.99"/><path class="cls-11" d="M210.38,131.76a5.88,5.88,0,0,0,4.26-5.76q-.34-.06-.69-.09a9.93,9.93,0,0,0-9.15,4.54A5.88,5.88,0,0,0,210.38,131.76Z"/><path class="cls-11" d="M239.8,134.06a5.88,5.88,0,0,0,4.25-5.76c-.23,0-.45-.07-.69-.09a9.9,9.9,0,0,0-9.15,4.54A5.89,5.89,0,0,0,239.8,134.06Z"/><path class="cls-7" d="M82,127.32s-1,26,9,33.63,27.4,10.27,27.4,10.27"/><path class="cls-3" d="M134.72,179.65a1.58,1.58,0,0,0,.58-3.08l-5.28-1a6.29,6.29,0,0,0,.69-1.18l6.33,1.19a1.57,1.57,0,0,0,.58-3.07l-6.33-1.19a6.9,6.9,0,0,0-.19-1.22l5.44,1a1.57,1.57,0,0,0,.58-3.07l-9.07-1.71a4.1,4.1,0,0,0-.86-.27l1.84-.27a1.6,1.6,0,0,0,1.29-1.74h0a1.4,1.4,0,0,0-1.54-1.35l-9.87,1.4a1.41,1.41,0,0,0-.94.58,6,6,0,0,0-4.56,4.86c-.6,3.23,1.28,6.33,4.19,6.87l7.19,1.35.15,0,.08,0Z"/><path class="cls-11" d="M153.29,83.61s-2.82,5.34-12.76,3.74-10-7-10-7Z"/><path class="cls-14" d="M53.7,219.17a1.1,1.1,0,0,0,.44.6,9.49,9.49,0,0,1,3.79,5.44A8.42,8.42,0,0,1,58.1,227q0,15,0,29.89a4.93,4.93,0,0,1-.92,3.06,2.25,2.25,0,0,1-1.91,1H43.42a2.21,2.21,0,0,1-2.16-1.36A6.46,6.46,0,0,1,40.6,257q-.06-15.11,0-30.23c0-3,1.63-5.17,3.91-6.92l1.7-10.62c.09-1.13.16-2.26.24-3.42-1.15-.58-1.19-1.38-.25-2.14.28-.22.29-.79.44-1.25l-.78-.19v-1h7v1l-.6.1c-.07.63-.17,1.17.55,1.61s.43,1.39-.54,1.85c.13,1.77.26,3.57.39,5.37Z"/><rect class="cls-15" x="40.7" y="230.09" width="17.28" height="21.39"/><path class="cls-2" d="M282.19,172.1s7.63,12.47-7.29,33.33"/><path class="cls-3" d="M271.52,201.58a5.06,5.06,0,0,1,5.56.78c2.34,1.81,3.22,4.87,1.94,6.79l-3.16,4.74-.08.09s0,0,0,.06l-4.27,6.4a1.18,1.18,0,0,1-1.72.05,1.42,1.42,0,0,1-.51-1.78l2.32-3.48a6.32,6.32,0,0,1-1.12-.41L267.68,219a1.17,1.17,0,0,1-1.72,0,1.39,1.39,0,0,1-.51-1.77l2.78-4.18a7.87,7.87,0,0,1-.65-.9l-2.39,3.59a1.2,1.2,0,0,1-1.73.05,1.4,1.4,0,0,1-.5-1.78l4-6a3.87,3.87,0,0,1,.31-.65l-1.19.82a1.43,1.43,0,0,1-1.8-.47h0a1.16,1.16,0,0,1,0-1.71"/><polygon class="cls-16" points="231.54 226.76 223 224.86 220.21 247.75 224.72 248.75 231.54 226.76"/><polygon class="cls-16" points="248.83 230.6 240.29 228.7 237.49 251.59 242 252.59 248.83 230.6"/><path class="cls-17" d="M210.6,245.6c.74-3.33,4.51-5.32,8.44-4.45s6.5,4.28,5.76,7.6"/><path class="cls-17" d="M227.73,249.5c.74-3.33,4.52-5.32,8.44-4.45s6.5,4.28,5.76,7.6"/><polyline class="cls-8" points="91.18 199.44 118.61 259.89 125.43 258 117.36 206.79"/><polygon class="cls-18" points="126.87 264.38 121.01 266 112.41 246.22 122.93 242.1 126.87 264.38"/><path class="cls-17" d="M141.32,260.8a10.51,10.51,0,1,0-20.25,5.62"/><polyline class="cls-8" points="123.54 204.14 144.76 252.92 151.58 251.03 142.65 194.32"/><polygon class="cls-18" points="153.18 257.58 146.6 259.41 138.69 238.96 149.11 235.34 153.18 257.58"/><path class="cls-17" d="M166.94,253.78a10.51,10.51,0,1,0-20.25,5.62"/></svg>