<?xml version="1.0" encoding="utf-8"?>
<!-- Generator: Adobe Illustrator 25.2.1, SVG Export Plug-In . SVG Version: 6.00 Build 0)  -->
<svg version="1.1" id="Layer_1" xmlns="http://www.w3.org/2000/svg" xmlns:xlink="http://www.w3.org/1999/xlink" x="0px" y="0px"
	 viewBox="0 0 123.4 123.75" style="enable-background:new 0 0 123.4 123.75;" xml:space="preserve">
<style type="text/css">
	.st0{fill:#00A0CC;stroke:#0A4060;stroke-width:1.9228;stroke-miterlimit:10;}
	.st1{fill:none;stroke:#0D3F60;stroke-width:3.2257;stroke-linecap:round;stroke-miterlimit:10;}
	.st2{fill:#FFFFFF;}
	.st3{fill:#0D3F60;}
	.st4{fill:none;stroke:#0D3F60;stroke-width:3.8456;stroke-linecap:round;stroke-miterlimit:10;}
	.st5{fill:none;stroke:#0D3F60;stroke-width:2.8827;stroke-linecap:round;stroke-miterlimit:10;}
	.st6{fill:none;stroke:#0D3F60;stroke-width:2.4498;stroke-linecap:round;stroke-miterlimit:10;}
	.st7{fill:none;stroke:#0D3F60;stroke-width:0.9614;stroke-linecap:round;stroke-miterlimit:10;}
	.st8{fill:#0A4060;}
	.st9{fill:#A0CAEB;}
	.st10{font-family:'Roboto-Black';}
	.st11{font-size:33.6492px;}
</style>
<circle class="st0" cx="61.7" cy="61.88" r="59.86"/>
<path class="st1" d="M79.96,30.73c0,0,4.33,12.25,17.69,6.93"/>
<path class="st1" d="M27.17,40.28c0,0,5.01-11.99,18.05-5.92"/>
<path class="st2" d="M56.67,59.48c0-7.96-6.89-14.42-15.38-14.42c-8.5,0-15.38,6.46-15.38,14.42"/>
<path class="st3" d="M47.9,59.48c0-3.7-3-6.69-6.69-6.69c-3.69,0-6.69,3-6.69,6.69"/>
<path class="st2" d="M67.64,59.48c0-7.96,6.93-14.42,15.47-14.42s15.47,6.46,15.47,14.42"/>
<path class="st3" d="M89.8,59.48c0-3.7-3-6.69-6.69-6.69c-3.69,0-6.69,3-6.69,6.69"/>
<path class="st8" d="M75.9,81.34c2.71,0.42,4.59-2.67,2.92-4.86c-2.48-3.26-7.17-6.93-15.93-8.12c-8.7-1.18-13.71,0.92-16.53,3.24
	c-2.02,1.67-1.08,4.95,1.51,5.36l9.9-0.57c3.02-0.17,6.04,0.3,8.87,1.39L75.9,81.34z"/>
<text transform="matrix(1 0 0 1 98.5904 34.5761)" class="st3 st10 st11">?</text>
</svg>
