<?xml version="1.0" encoding="utf-8"?>
<!-- Generator: Adobe Illustrator 25.2.1, SVG Export Plug-In . SVG Version: 6.00 Build 0)  -->
<svg version="1.1" id="Layer_1" xmlns="http://www.w3.org/2000/svg" xmlns:xlink="http://www.w3.org/1999/xlink" x="0px" y="0px"
	 viewBox="0 0 123.4 123.75" style="enable-background:new 0 0 123.4 123.75;" xml:space="preserve">
<style type="text/css">
	.st0{fill:#00A0CC;stroke:#0A4060;stroke-width:1.9228;stroke-miterlimit:10;}
	.st1{fill:none;stroke:#0D3F60;stroke-width:3.2257;stroke-linecap:round;stroke-miterlimit:10;}
	.st2{fill:#FFFFFF;}
	.st3{fill:#0D3F60;}
	.st4{fill:none;stroke:#0D3F60;stroke-width:3.8456;stroke-linecap:round;stroke-miterlimit:10;}
	.st5{fill:none;stroke:#0D3F60;stroke-width:2.8827;stroke-linecap:round;stroke-miterlimit:10;}
	.st6{fill:none;stroke:#0D3F60;stroke-width:2.4498;stroke-linecap:round;stroke-miterlimit:10;}
	.st7{fill:none;stroke:#0D3F60;stroke-width:0.9614;stroke-linecap:round;stroke-miterlimit:10;}
	.st8{fill:#0A4060;}
	.st9{fill:#A0CAEB;}
</style>
<circle class="st0" cx="61.7" cy="61.62" r="59.86"/>
<path class="st1" d="M79.53,28.26c0,0,4.33,12.25,17.69,6.93"/>
<path class="st1" d="M26.73,37.81c0,0,5.01-11.99,18.05-5.92"/>
<path class="st2" d="M56.24,57.02c0-7.96-6.89-14.42-15.38-14.42c-8.5,0-15.38,6.46-15.38,14.42"/>
<path class="st3" d="M47.46,57.02c0-3.7-3-6.69-6.69-6.69c-3.69,0-6.69,3-6.69,6.69"/>
<path class="st2" d="M67.2,57.02c0-7.96,6.93-14.42,15.47-14.42s15.47,6.46,15.47,14.42"/>
<path class="st3" d="M89.36,57.02c0-3.7-3-6.69-6.69-6.69c-3.69,0-6.69,3-6.69,6.69"/>
<path class="st8" d="M75.47,76.88c2.71,0.42,4.59-2.67,2.92-4.86c-2.48-3.26-7.17-6.93-15.93-8.12c-8.7-1.18-13.71,0.92-16.53,3.24
	c-2.02,1.67-1.08,4.95,1.51,5.36l9.9-0.57c3.02-0.17,6.04,0.3,8.87,1.39L75.47,76.88z"/>
<path class="st9" d="M59.71,113.53c1.59-0.67,3.27-1.21,4.56-2.45c1.53-1.47,1.63-2.94,0.22-4.38c-0.41-0.41-0.34-0.53-0.01-0.86
	c0.34-0.34,0.59-0.78,0.88-1.18c0.15-1.25,0.2-2.54-0.88-3.37c-0.78-0.6-0.97-1-0.38-1.85c0.56-0.81,0.49-1.77,0.21-2.73
	c-0.31-1.05-1.32-1.42-1.95-2.1c0.17-0.52,0.59-0.56,0.92-0.73c2.98-1.48,3.9-3.29,6.86-4.8c1.64-0.84,2.2-2.25,1.59-3.68
	c-0.75-1.75-2.01-2.27-3.91-1.52c-1.16,0.46-2.27,1.07-3.4,1.61c-5.15,2.5-8.23,5.34-13.38,7.84c-0.53,0.26-1.16,0.7-1.67,0.26
	c-0.56-0.47,0.06-1.01,0.25-1.49c1.61-4.03-0.32-9.68-4.1-11.99c-1.35-0.83-3.39-0.91-4.14-0.04c-1.08,1.25-0.36,2.47,0.24,3.69
	c2.31,4.69,0.82,8.47-2.91,11.67c-1.4,1.2-2.89,2.32-4.02,3.78c-4.23,5.45-0.11,12.39,4.88,15.59
	C45.76,118.78,53.49,116.16,59.71,113.53z"/>
</svg>
