<?xml version="1.0" encoding="utf-8"?>
<!-- Generator: Adobe Illustrator 25.2.1, SVG Export Plug-In . SVG Version: 6.00 Build 0)  -->
<svg version="1.1" id="Layer_1" xmlns="http://www.w3.org/2000/svg" xmlns:xlink="http://www.w3.org/1999/xlink" x="0px" y="0px"
	 viewBox="0 0 123.4 123.75" style="enable-background:new 0 0 123.4 123.75;" xml:space="preserve">
<style type="text/css">
	.st0{fill:#00A0CC;stroke:#0A4060;stroke-width:1.9228;stroke-miterlimit:10;}
	.st1{fill:none;stroke:#0D3F60;stroke-width:3.2257;stroke-linecap:round;stroke-miterlimit:10;}
	.st2{fill:#FFFFFF;}
	.st3{fill:#0D3F60;}
	.st4{fill:none;stroke:#0D3F60;stroke-width:3.8456;stroke-linecap:round;stroke-miterlimit:10;}
	.st5{fill:none;stroke:#0D3F60;stroke-width:2.8827;stroke-linecap:round;stroke-miterlimit:10;}
	.st6{fill:none;stroke:#0D3F60;stroke-width:2.4498;stroke-linecap:round;stroke-miterlimit:10;}
	.st7{fill:none;stroke:#0D3F60;stroke-width:0.9614;stroke-linecap:round;stroke-miterlimit:10;}
	.st8{fill:#0A4060;}
	.st9{fill:#A0CAEB;}
</style>
<circle class="st0" cx="61.69" cy="61.62" r="59.86"/>
<path class="st1" d="M95.28,39.48c0,0-5.75-11.65-18.39-4.78"/>
<path class="st1" d="M27.21,39.48c0,0,5.75-11.65,18.39-4.78"/>
<path class="st2" d="M55.99,59.26c0-7.96-6.89-14.42-15.38-14.42c-8.5,0-15.38,6.46-15.38,14.42"/>
<path class="st3" d="M47.22,59.26c0-3.7-3-6.69-6.69-6.69c-3.69,0-6.69,3-6.69,6.69"/>
<path class="st2" d="M66,59.26c0-7.96,6.93-14.42,15.47-14.42s15.47,6.46,15.47,14.42"/>
<path class="st3" d="M88.16,59.26c0-3.7-3-6.69-6.69-6.69c-3.69,0-6.69,3-6.69,6.69"/>
<path class="st3" d="M79.54,69.4c0,8.12-7.87,14.69-17.59,14.69S44.37,77.52,44.37,69.4"/>
</svg>
