<svg id="Layer_1" data-name="Layer 1" xmlns="http://www.w3.org/2000/svg" viewBox="0 0 123.4 123.75"><defs><style>.cls-1{fill:#00a0cc;stroke:#0a4060;stroke-width:1.92px;}.cls-1,.cls-2{stroke-miterlimit:10;}.cls-2{fill:none;stroke:#0d3f60;stroke-linecap:round;stroke-width:3.23px;}.cls-3{fill:#fff;}.cls-4{fill:#0d3f60;}</style></defs><circle class="cls-1" cx="61.69" cy="61.62" r="59.86"/><path class="cls-2" d="M95.28,39.48S89.52,27.83,76.89,34.7"/><path class="cls-2" d="M27.21,39.48S33,27.83,45.6,34.7"/><path class="cls-3" d="M56,59.26c0-8-6.88-14.43-15.38-14.43S25.22,51.29,25.22,59.26"/><path class="cls-4" d="M47.22,59.26a6.7,6.7,0,0,0-13.39,0"/><path class="cls-3" d="M66,59.26c0-8,6.92-14.42,15.47-14.42s15.47,6.45,15.47,14.42"/><path class="cls-4" d="M88.16,59.26a6.69,6.69,0,1,0-13.38,0"/><path class="cls-4" d="M79.54,69.4c0,4.06-7.87,7.35-17.58,7.35S44.37,73.46,44.37,69.4"/></svg>