<svg id="Layer_1" data-name="Layer 1" xmlns="http://www.w3.org/2000/svg" viewBox="0 0 123.4 123.75"><defs><style>.cls-1{fill:#00a0cc;stroke:#0a4060;stroke-width:1.92px;}.cls-1,.cls-2{stroke-miterlimit:10;}.cls-2{fill:none;stroke:#0d3f60;stroke-linecap:round;stroke-width:3.23px;}.cls-3{fill:#fff;}.cls-4{fill:#0d3f60;}.cls-5{fill:#a0caeb;}</style></defs><circle class="cls-1" cx="61.87" cy="61.56" r="59.86"/><path class="cls-2" d="M78.65,29.94S81,42.73,95,39.59"/><path class="cls-2" d="M44.09,30.37s-3,12.64-16.86,8.77"/><path class="cls-3" d="M55.49,59.06c0-8-6.89-14.42-15.39-14.42S24.72,51.1,24.72,59.06"/><path class="cls-4" d="M49.75,59.06a9.65,9.65,0,0,0-19.29,0"/><path class="cls-3" d="M66.45,59.06c0-8,6.93-14.42,15.47-14.42S97.39,51.1,97.39,59.06"/><path class="cls-4" d="M92,59.06a9.65,9.65,0,0,0-19.29,0"/><path class="cls-4" d="M76.56,82.55a3,3,0,0,0,4-4c-3.27-6.51-10.77-11.06-19.49-11.06-8.94,0-16.59,4.78-19.73,11.55a3,3,0,0,0,4.11,3.81c4.33-2.07,10.43-4.42,15.62-4.28A38.87,38.87,0,0,1,76.56,82.55Z"/><path class="cls-5" d="M94.58,65.61s-5.09,6.82-4.68,10.5,5.32,5.1,8.18,1.53S94.58,65.61,94.58,65.61Z"/><circle class="cls-3" cx="36.01" cy="51.03" r="3.87"/><circle class="cls-3" cx="78.78" cy="51.03" r="3.87"/></svg>