<?xml version="1.0" encoding="utf-8"?>
<!-- Generator: Adobe Illustrator 25.2.1, SVG Export Plug-In . SVG Version: 6.00 Build 0)  -->
<svg version="1.1" id="Layer_1" xmlns="http://www.w3.org/2000/svg" xmlns:xlink="http://www.w3.org/1999/xlink" x="0px" y="0px"
	 viewBox="0 0 123.4 123.75" style="enable-background:new 0 0 123.4 123.75;" xml:space="preserve">
<style type="text/css">
	.st0{fill:#00A0CC;stroke:#0A4060;stroke-width:1.9228;stroke-miterlimit:10;}
	.st1{fill:none;stroke:#0D3F60;stroke-width:3.2257;stroke-linecap:round;stroke-miterlimit:10;}
	.st2{fill:#FFFFFF;}
	.st3{fill:#0D3F60;}
	.st4{fill:none;stroke:#0D3F60;stroke-width:3.8456;stroke-linecap:round;stroke-miterlimit:10;}
	.st5{fill:none;stroke:#0D3F60;stroke-width:2.8827;stroke-linecap:round;stroke-miterlimit:10;}
	.st6{fill:none;stroke:#0D3F60;stroke-width:2.4498;stroke-linecap:round;stroke-miterlimit:10;}
	.st7{fill:none;stroke:#0D3F60;stroke-width:0.9614;stroke-linecap:round;stroke-miterlimit:10;}
	.st8{fill:#0A4060;}
	.st9{fill:#A0CAEB;}
</style>
<circle class="st0" cx="62.06" cy="61.62" r="59.86"/>
<path class="st5" d="M80.18,27.37c0,0,4.14,9.16,14.63,8.63"/>
<path class="st5" d="M44.39,27.75c0,0-4.87,8.27-15.06,7.84"/>
<ellipse class="st2" cx="43.17" cy="49.76" rx="12.14" ry="10.9"/>
<ellipse class="st3" cx="43.17" cy="49.76" rx="5.21" ry="4.68"/>
<ellipse class="st2" cx="81.03" cy="49.76" rx="12.14" ry="10.9"/>
<ellipse class="st3" cx="81.03" cy="49.76" rx="5.21" ry="4.68"/>
<path class="st3" d="M51.47,65.99c1.65,0,3.21,0.38,4.61,1.03c2.32,0.96,4.83,1.53,7.36,1.43c3.53-0.15,6.42-2.46,9.93-2.46
	c6.05,0,10.95,4.9,10.95,10.95s-4.9,10.95-10.95,10.95c-1.69,0-3.49-0.38-4.99-1.18c-2.87-1.53-4.78-2.58-8.09-1.56
	c-2.94,0.9-5.66,2.74-8.83,2.74c-6.05,0-10.95-4.9-10.95-10.95C40.51,70.89,45.42,65.99,51.47,65.99z"/>
</svg>
