<?xml version="1.0" encoding="utf-8"?>
<!-- Generator: Adobe Illustrator 25.2.1, SVG Export Plug-In . SVG Version: 6.00 Build 0)  -->
<svg version="1.1" id="Layer_1" xmlns="http://www.w3.org/2000/svg" xmlns:xlink="http://www.w3.org/1999/xlink" x="0px" y="0px"
	 viewBox="0 0 123.4 123.75" style="enable-background:new 0 0 123.4 123.75;" xml:space="preserve">
<style type="text/css">
	.st0{fill:#00A0CC;stroke:#0A4060;stroke-width:1.9228;stroke-miterlimit:10;}
	.st1{fill:none;stroke:#0D3F60;stroke-width:3.2257;stroke-linecap:round;stroke-miterlimit:10;}
	.st2{fill:#FFFFFF;}
	.st3{fill:#0D3F60;}
	.st4{fill:none;stroke:#0D3F60;stroke-width:3.8456;stroke-linecap:round;stroke-miterlimit:10;}
	.st5{fill:none;stroke:#0D3F60;stroke-width:2.8827;stroke-linecap:round;stroke-miterlimit:10;}
	.st6{fill:none;stroke:#0D3F60;stroke-width:2.4498;stroke-linecap:round;stroke-miterlimit:10;}
	.st7{fill:none;stroke:#0D3F60;stroke-width:0.9614;stroke-linecap:round;stroke-miterlimit:10;}
	.st8{font-family:'Roboto-Bold';}
	.st9{font-size:18.0719px;}
	.st10{font-size:26.4421px;}
	.st11{font-size:32.0367px;}
	.st12{fill:#0A4060;}
	.st13{fill:#A0CAEB;}
</style>
<circle class="st0" cx="61.16" cy="61.62" r="59.86"/>
<path class="st6" d="M90.82,52.52c0,0-5.75-6.72-18.39-2.76"/>
<path class="st6" d="M31.41,52.52c0,0,5.75-6.72,18.39-2.76"/>
<path class="st7" d="M65.8,61.38c0,5.46,5.91,9.88,13.2,9.88c7.29,0,13.2-4.43,13.2-9.88"/>
<path class="st7" d="M57.21,61.38c0,5.46-5.94,9.88-13.27,9.88s-13.27-4.42-13.27-9.88"/>
<ellipse class="st3" cx="62" cy="89.02" rx="16.04" ry="8.45"/>
<text transform="matrix(1 0 0 1 70.0588 32.1091)" class="st3 st8 st9">Z</text>
<text transform="matrix(1 0 0 1 83.6584 27.2297)" class="st3 st8 st10">Z</text>
<text transform="matrix(1 0 0 1 100.6438 37.1448)" class="st3 st8 st11">Z</text>
</svg>
