<svg id="Layer_1" data-name="Layer 1" xmlns="http://www.w3.org/2000/svg" viewBox="0 0 348 282.35"><defs><style>.cls-1{fill:#f8d978;}.cls-2{fill:#fff;}.cls-3{fill:#f9e8b9;}.cls-4{fill:#e5d3a5;}.cls-5{fill:#a82a09;}.cls-6{fill:#8e200a;}.cls-7{fill:#ffca05;}.cls-8{fill:#faac18;}.cls-9{fill:#e49425;}.cls-10{fill:#00a0cc;}.cls-11{fill:#ec1651;}.cls-12{fill:#4f4a47;}.cls-13{fill:#0b4060;}.cls-14,.cls-15,.cls-16,.cls-17,.cls-18,.cls-19,.cls-21,.cls-23,.cls-24,.cls-25,.cls-26,.cls-27,.cls-28,.cls-29,.cls-30,.cls-31,.cls-32,.cls-33,.cls-34,.cls-35,.cls-36,.cls-37,.cls-38,.cls-39,.cls-40,.cls-41,.cls-42,.cls-43,.cls-44,.cls-51,.cls-52{fill:none;stroke-miterlimit:10;}.cls-14,.cls-15{stroke:#2584a9;}.cls-14,.cls-15,.cls-18,.cls-19{stroke-linecap:round;}.cls-14{stroke-width:0.75px;}.cls-15{stroke-width:0.84px;}.cls-16,.cls-17{stroke:#000;}.cls-16{stroke-width:0.79px;}.cls-17{stroke-width:0.78px;}.cls-18{stroke:#0b4060;stroke-width:1.18px;}.cls-19{stroke:#1089b1;stroke-width:3.18px;}.cls-20{fill:#a0caeb;}.cls-21{stroke:#721806;stroke-width:0.49px;}.cls-22{fill:#3d1008;}.cls-23{stroke:#c6b285;}.cls-24,.cls-25,.cls-26,.cls-27,.cls-28,.cls-29,.cls-30,.cls-31,.cls-32,.cls-33,.cls-34,.cls-35,.cls-36,.cls-37,.cls-38,.cls-39,.cls-40,.cls-41,.cls-42,.cls-43,.cls-44{stroke:#00a0cc;}.cls-24,.cls-25,.cls-26,.cls-27,.cls-28,.cls-29,.cls-30,.cls-31,.cls-32,.cls-33,.cls-34,.cls-35,.cls-36,.cls-37,.cls-38,.cls-39,.cls-40,.cls-41,.cls-42,.cls-43,.cls-44,.cls-52{stroke-width:0.25px;}.cls-25{stroke-dasharray:2.2 2.2;}.cls-26{stroke-dasharray:2.25 2.25;}.cls-27{stroke-dasharray:2.3 2.3;}.cls-28{stroke-dasharray:2.27 2.27;}.cls-29{stroke-dasharray:2.27 2.27;}.cls-30{stroke-dasharray:2.32 2.32;}.cls-31{stroke-dasharray:2.25 2.25;}.cls-32{stroke-dasharray:2.35 2.35;}.cls-33{stroke-dasharray:2.35 2.35;}.cls-34{stroke-dasharray:2.3 2.3;}.cls-35{stroke-dasharray:2.24 2.24;}.cls-36{stroke-dasharray:2.29 2.29;}.cls-37{stroke-dasharray:2.31 2.31;}.cls-38{stroke-dasharray:2.18 2.18;}.cls-39{stroke-dasharray:2.47 2.47;}.cls-40{stroke-dasharray:2.48 2.48;}.cls-41{stroke-dasharray:2.51 2.51;}.cls-42{stroke-dasharray:2.25 2.25;}.cls-43{stroke-dasharray:2.27 2.27;}.cls-44{stroke-dasharray:2.37 2.37;}.cls-45{fill:#fdec03;}.cls-46{fill:#fdcc04;}.cls-47{fill:#d1d1d1;}.cls-48{fill:#e5e5e5;}.cls-49{fill:#629342;}.cls-50{fill:#70a34f;}.cls-51,.cls-52{stroke:#527c37;}.cls-51{stroke-width:0.2px;}.cls-53{fill:#e3eab7;}.cls-54{fill:#d7dd9f;}.cls-55{fill:#5e5f5e;}.cls-56{fill:#777775;}</style></defs><polyline class="cls-1" points="0 274.15 0 0 348 0 348 274.15"/><path class="cls-2" d="M193.64,105.61c-6.44-3.45-11.2-8.43-13.15-15.85a20.81,20.81,0,0,1,.67-12.91,23.43,23.43,0,0,1,6.43-9.35c1-1,1-1,.25-2.26a21.57,21.57,0,0,1,2.84-27.74,29.36,29.36,0,0,1,20.68-8.9c2-.08,4,.11,6,.22.7.05,1.09-.15,1.25-.91a15.6,15.6,0,0,1,.74-2.41c2.88-7.22,8.15-11.87,15-14.76A31.74,31.74,0,0,1,248.8,8.45a30.81,30.81,0,0,1,15.11,5,26.25,26.25,0,0,1,6.91,6.51.82.82,0,0,0,.16.25,1,1,0,0,0,1.42.09,32.46,32.46,0,0,1,29.86-1.34,26.54,26.54,0,0,1,9.67,7.41c3.94,4.84,5.94,10.34,5.11,16.74-.11.85.13,1.2,1,1.39a47.47,47.47,0,0,1,6.63,1.72,27.27,27.27,0,0,1,13.71,11,21,21,0,0,1,3,15.18c-1.34,7.7-5.9,13-12.31,16.86a28.4,28.4,0,0,1-10.4,3.75c-1.16.19-1.38.49-1.16,1.69A20.63,20.63,0,0,1,316,106.78c-3.16,7-8.61,11.4-15.49,14a31.64,31.64,0,0,1-15.56,1.77,30.79,30.79,0,0,1-15.36-6.36,1.29,1.29,0,0,0-.17-.16,1.12,1.12,0,0,0-1.6.23,29.62,29.62,0,0,1-16,8.06,32.86,32.86,0,0,1-9.9.2,30.05,30.05,0,0,1-12.82-4.68,25.13,25.13,0,0,1-9.6-11.15,1.28,1.28,0,0,0-1.84-.84,31.18,31.18,0,0,1-9.29,1.44A32,32,0,0,1,193.64,105.61Z"/><polygon class="cls-3" points="309.36 81.44 206.77 81.44 206.77 61.47 226.77 42.08 289.36 42.08 309.36 66.22 309.36 81.44"/><polyline class="cls-4" points="309.36 67.5 309.36 81.72 264.48 81.72 264.48 41.81 292.29 41.81"/><polygon class="cls-5" points="264.49 40.08 262.02 41.81 258.06 41.09 254.43 42.03 253.65 40.08 224.55 40.08 223.03 41.71 224.08 42.89 220.8 44.77 219.02 48.66 214.57 50.79 209.1 56.66 209.66 58.66 207.13 60.37 206.24 63.58 202.65 63.58 195.77 70.97 202.42 71 204.33 69.05 217.41 71.48 219.1 69.34 219.82 69.42 219.82 70.97 226.08 69.76 226.61 70.97 263.19 70.97 266.76 67.27 266.76 64.52 268.75 62.87 273.1 60.67 274.43 56.41 278.31 51.88 281.9 51.53 292.92 40.08 264.49 40.08"/><polygon class="cls-6" points="309.41 63.29 307.24 62.33 307.24 60.23 304.9 56.94 302.65 56.41 299.75 53.48 298.47 51.02 299.2 48.93 292.92 40.08 290.44 42.63 310.5 70.97 314.87 70.97 309.41 63.29"/><path class="cls-2" d="M144.3,111.18a31.19,31.19,0,0,1-9.29-1.45,1.28,1.28,0,0,0-1.84.84,25.07,25.07,0,0,1-9.6,11.15,30.05,30.05,0,0,1-12.82,4.68,32.86,32.86,0,0,1-9.9-.19,29.69,29.69,0,0,1-15.94-8.06,1.12,1.12,0,0,0-1.61-.23,1.22,1.22,0,0,0-.17.15,30.7,30.7,0,0,1-15.36,6.36,31.63,31.63,0,0,1-15.56-1.76c-6.88-2.6-12.33-7-15.49-14a20.61,20.61,0,0,1-1.51-12.15c.21-1.21,0-1.51-1.17-1.7a28.22,28.22,0,0,1-10.4-3.75c-6.41-3.82-11-9.16-12.31-16.86a21,21,0,0,1,3-15.17,27.17,27.17,0,0,1,13.71-11,47.51,47.51,0,0,1,6.63-1.73c.83-.18,1.07-.54,1-1.39-.83-6.4,1.17-11.89,5.11-16.73a26.4,26.4,0,0,1,9.67-7.41,32.37,32.37,0,0,1,29.86,1.34,1,1,0,0,0,1.42-.09,1,1,0,0,0,.16-.25,26.29,26.29,0,0,1,6.91-6.52,30.8,30.8,0,0,1,15.11-4.95,31.73,31.73,0,0,1,14.44,2.28c6.87,2.89,12.14,7.54,15,14.76a15.6,15.6,0,0,1,.74,2.41c.16.76.55,1,1.25.92,2-.12,4-.3,6-.23A29.4,29.4,0,0,1,162,39.38a22,22,0,0,1,6.55,17.25,21.75,21.75,0,0,1-3.71,10.49c-.79,1.25-.8,1.31.25,2.26a23.7,23.7,0,0,1,6.44,9.35,20.92,20.92,0,0,1,.66,12.92c-1.94,7.41-6.71,12.39-13.15,15.85A32,32,0,0,1,144.3,111.18Z"/><polyline class="cls-7" points="348 282.82 0 282.82 0 258.68 348 258.68"/><path class="cls-2" d="M104.92,135.67a5.85,5.85,0,1,1,5.87,5.74A5.85,5.85,0,0,1,104.92,135.67Z"/><path class="cls-2" d="M121.08,144.15a3,3,0,0,1-3-3v-.07a3,3,0,1,1,3,3Z"/><path class="cls-2" d="M217.06,128.89a5.79,5.79,0,1,1,5.87-5.74A5.82,5.82,0,0,1,217.06,128.89Z"/><path class="cls-2" d="M206.77,131.56a3,3,0,1,1,3-3v.08a3,3,0,0,1-3,3Z"/><polyline class="cls-8" points="198.37 265.43 193.03 265.43 193.03 242.41 150 242.41 150 265.43 144.54 265.43 144.54 240.26 144.63 240.26 144.63 235.35 198.37 235.35 198.37 240.33"/><rect class="cls-9" x="140.4" y="224.4" width="62.55" height="12.51" rx="3.78"/><polyline class="cls-10" points="171.37 216.68 163.7 263.78 159.92 263.78 153.41 223.68"/><polygon class="cls-11" points="159.77 262.81 157.27 247.49 166.39 247.49 164.26 262.98 159.77 262.81"/><path class="cls-12" d="M169.47,264.72c-.12-4.77-3.62-8.61-8-8.76-4.55-.16-8.36,3.75-8.51,8.73"/><polyline class="cls-10" points="190.02 216.68 182.35 263.78 178.57 263.78 172.06 223.68"/><polygon class="cls-11" points="178.42 262.81 175.92 247.49 185.04 247.49 182.91 262.98 178.42 262.81"/><path class="cls-12" d="M189.06,264.72c-.12-4.77-3.62-8.61-8-8.76-4.56-.16-8.36,3.75-8.51,8.73"/><path class="cls-10" d="M216.8,172.09a225,225,0,0,1,1.95,25.67c.53,19-13.77,34.62-31.94,34.94l-30.12.52c-13.25.23-25.29-8.07-30.68-20.06-4-8.88-3.66-20.12-3.81-29.71-.3-18.58,3.94-41.24,18.93-53.71,20-16.61,51.22-12.81,65.29,9.44a53.87,53.87,0,0,1,6,13A129.37,129.37,0,0,1,216.8,172.09Z"/><path class="cls-13" d="M178.49,169.92s.51-4.81-8.74-4.55c-7.25.19-7.8,4.6-7.8,4.6Z"/><path class="cls-14" d="M181.63,158.61c-1.24,3.9,1.87,6,4.93,6.3"/><path class="cls-14" d="M159.62,159.77c.25,3.06-3.54,7.16-7.74,5.85"/><path class="cls-15" d="M184.6,141.14a59.26,59.26,0,0,1-31.68-.45"/><path class="cls-2" d="M160.05,160.39a7.7,7.7,0,0,0-15.37-.44"/><path class="cls-13" d="M156.46,160.41a3.35,3.35,0,0,0-6.69-.18"/><path class="cls-2" d="M196.68,158.8a7.75,7.75,0,0,0-15.46,0"/><path class="cls-13" d="M192.1,158.81a3.35,3.35,0,0,0-6.69,0"/><path class="cls-16" d="M175.51,158.72c.06,5,7,9,15.47,8.92s12.35-3.2,15.25-9.24c2.17-4.51.83-9.13-7.66-9S175.46,153.72,175.51,158.72Z"/><path class="cls-17" d="M176.09,161.11s-5.4-7.57-11.48.2"/><path class="cls-13" d="M196.06,155.34l3.85-1.67-3.43,2.93.1.47,3.34-.45-3.2,1.44c0,.46,0,.78,0,.78-1.74-6.14-5.3-7-6.33-7.05A5.85,5.85,0,0,1,196.06,155.34Z"/><path class="cls-13" d="M141.42,157.82l3.32.47c0-.16.07-.32.11-.49l-3.38-3,3.84,1.7c.78-1.77,2.8-3.38,6.07-3.46-1,.1-5,.77-6.81,7,0,0,0-.3,0-.81Z"/><path class="cls-18" d="M153.06,145.11s-1,6-7.63,4.66"/><path class="cls-18" d="M184.35,144.42s1,5.85,7.41,3.68"/><path class="cls-19" d="M149.22,219.81a125,125,0,0,1-12.73-8.41,20.25,20.25,0,0,1-7.72-18.87"/><path class="cls-16" d="M134.07,159.77c2.4,5.47,7,9,15.46,8.92s15.32-4.24,15.26-9.25-13.92-9-22.37-8.89S132,155.15,134.07,159.77Z"/><path class="cls-20" d="M149.64,215.49a3.93,3.93,0,0,0-3.93,1.92,3.77,3.77,0,0,0,1,5.19l4.11,2.49.07.07,0,0,5.58,3.34a1,1,0,0,0,1.32-.38,1,1,0,0,0-.23-1.39l-3-1.83a4.12,4.12,0,0,0,.69-.56l3.63,2.19a1,1,0,0,0,1.37-.49,1,1,0,0,0-.31-1.25l-3.62-2.2a5.53,5.53,0,0,0,.16-.79l3.11,1.89a1,1,0,0,0,1.07-1.75l-5.22-3.14a3.49,3.49,0,0,0-.47-.37l1.2.27a1.06,1.06,0,0,0,1.2-.76h0a.92.92,0,0,0-.59-1.17l-.05,0"/><path class="cls-19" d="M213.44,192.35a20.25,20.25,0,0,1-7.73,18.88,123.23,123.23,0,0,1-12.72,8.4"/><path class="cls-20" d="M185.46,216.62h-.05a.93.93,0,0,0-.59,1.17h0a1.05,1.05,0,0,0,1.19.77l1.2-.27a3.24,3.24,0,0,0-.46.37l-5.22,3.14a1,1,0,0,0-.32,1.32,1,1,0,0,0,1.38.43l3.12-1.9a4.1,4.1,0,0,0,.16.79l-3.63,2.21a1,1,0,0,0,1.06,1.74l3.63-2.2a3.8,3.8,0,0,0,.7.57l-3,1.83a1,1,0,0,0,1.09,1.77l5.58-3.34,0,0,.06-.07,4.12-2.5a3.76,3.76,0,0,0,1-5.19,4,4,0,0,0-3.93-1.92"/><polygon class="cls-5" points="230.63 72.55 256.02 44.77 270.96 45.06 245.88 72.55 230.63 72.55"/><polygon class="cls-5" points="205.77 68.15 228.88 42.29 245.31 40.66 220.49 68.15 205.77 68.15"/><line class="cls-21" x1="230.36" y1="40.66" x2="202.93" y2="70.59"/><line class="cls-21" x1="236.96" y1="40.66" x2="211.37" y2="69.62"/><line class="cls-21" x1="245.56" y1="40.08" x2="220.52" y2="67.54"/><line class="cls-21" x1="252.9" y1="40.33" x2="226.39" y2="69.42"/><line class="cls-21" x1="258.32" y1="42.08" x2="230.63" y2="72.55"/><line class="cls-21" x1="267.44" y1="40.4" x2="238.68" y2="72.42"/><line class="cls-21" x1="275.03" y1="40.43" x2="245.88" y2="72.55"/><line class="cls-21" x1="282.59" y1="40.47" x2="254.92" y2="70.83"/><path class="cls-22" d="M229.38,54.31A50.64,50.64,0,0,1,229.5,48l6.67,4.43a1.65,1.65,0,0,0,.79.35,1.69,1.69,0,0,0,.89-.25c1.76-.88,3.65-.78,5.41-1.65-.62,1-.23,3.33-.3,4.53a11.79,11.79,0,0,0,3.56,4.11c-2.19-.38-4.4-.66-6.61-.83a8,8,0,0,0-2.88.14,8.69,8.69,0,0,0-2.78,1.63l-3.79,2.94c-1.11-1.12.26-3.56-1.07-4.41a2.36,2.36,0,0,0-1.23-.26l-7.36-.17,9-4.49"/><polyline class="cls-23" points="297.54 52.66 295.61 55.53 292.92 55.73 289.26 54.88"/><polyline class="cls-23" points="292.56 55.65 290.44 59.64 291.5 62.15"/><polyline class="cls-23" points="264.48 73.03 271.49 76.06 274.09 74.55"/><line class="cls-23" x1="267.98" y1="74.54" x2="267.98" y2="77.36"/><line class="cls-23" x1="295.61" y1="55.53" x2="295.61" y2="58.66"/><polyline class="cls-23" points="264.48 69.64 264.48 72.55 260.46 76.65"/><line class="cls-23" x1="262.22" y1="74.85" x2="258.85" y2="73.81"/><line class="cls-23" x1="267.29" y1="75.95" x2="265.48" y2="78.46"/><polyline class="cls-23" points="212.72 70.97 214.52 75.39 212.72 77.36"/><line class="cls-23" x1="213.36" y1="72.55" x2="218.89" y2="74.17"/><polygon class="cls-22" points="268.75 46.59 270.96 43.96 273.04 45.87 278.2 45.28 274.73 49.09 274.4 52.66 269.4 50.13 264.87 49.04 268.75 46.59"/><line class="cls-24" x1="90.22" y1="69.76" x2="89.68" y2="70.8"/><line class="cls-25" x1="88.66" y1="72.75" x2="74.96" y2="99.14"/><line class="cls-24" x1="74.46" y1="100.12" x2="73.92" y2="101.16"/><line class="cls-24" x1="90.87" y1="72.9" x2="90.33" y2="73.94"/><line class="cls-26" x1="89.29" y1="75.94" x2="75.27" y2="102.95"/><line class="cls-24" x1="74.75" y1="103.95" x2="74.21" y2="104.99"/><line class="cls-24" x1="91.83" y1="75.83" x2="91.3" y2="76.88"/><line class="cls-27" x1="90.26" y1="78.93" x2="80.4" y2="98.38"/><line class="cls-24" x1="79.88" y1="99.4" x2="79.35" y2="100.45"/><line class="cls-24" x1="97.88" y1="69.09" x2="97.35" y2="70.14"/><line class="cls-28" x1="96.32" y1="72.16" x2="82.45" y2="99.51"/><line class="cls-24" x1="81.94" y1="100.52" x2="81.41" y2="101.57"/><line class="cls-24" x1="98.53" y1="72.24" x2="98" y2="73.28"/><line class="cls-28" x1="96.97" y1="75.31" x2="83.1" y2="102.66"/><line class="cls-24" x1="82.59" y1="103.67" x2="82.06" y2="104.71"/><line class="cls-24" x1="99.49" y1="75.17" x2="98.96" y2="76.21"/><line class="cls-28" x1="97.94" y1="78.24" x2="84.07" y2="105.59"/><line class="cls-24" x1="83.55" y1="106.6" x2="83.02" y2="107.64"/><line class="cls-24" x1="106.22" y1="66.34" x2="105.69" y2="67.39"/><line class="cls-29" x1="104.66" y1="69.41" x2="88.78" y2="100.72"/><line class="cls-24" x1="88.27" y1="101.73" x2="87.74" y2="102.77"/><line class="cls-24" x1="109.43" y1="64.44" x2="108.9" y2="65.49"/><line class="cls-30" x1="107.84" y1="67.56" x2="89.45" y2="103.84"/><line class="cls-24" x1="88.92" y1="104.87" x2="88.39" y2="105.92"/><line class="cls-24" x1="110.61" y1="66.93" x2="110.08" y2="67.98"/><line class="cls-31" x1="109.06" y1="69.99" x2="93.28" y2="101.11"/><line class="cls-24" x1="92.77" y1="102.12" x2="92.24" y2="103.16"/><line class="cls-24" x1="112.81" y1="66.93" x2="112.28" y2="67.98"/><line class="cls-28" x1="111.25" y1="70" x2="97.38" y2="97.35"/><line class="cls-24" x1="96.87" y1="98.36" x2="96.34" y2="99.41"/><line class="cls-24" x1="113.46" y1="70.08" x2="112.93" y2="71.12"/><line class="cls-28" x1="111.9" y1="73.15" x2="98.03" y2="100.5"/><line class="cls-24" x1="97.52" y1="101.51" x2="96.99" y2="102.55"/><line class="cls-24" x1="114.42" y1="73.01" x2="113.89" y2="74.05"/><line class="cls-28" x1="112.87" y1="76.08" x2="99" y2="103.43"/><line class="cls-24" x1="98.48" y1="104.44" x2="97.95" y2="105.48"/><line class="cls-24" x1="122.21" y1="63.18" x2="121.67" y2="64.21"/><line class="cls-32" x1="120.58" y1="66.29" x2="103.64" y2="98.5"/><line class="cls-24" x1="103.1" y1="99.54" x2="102.55" y2="100.57"/><line class="cls-24" x1="126.79" y1="57.37" x2="126.26" y2="58.42"/><line class="cls-33" x1="125.19" y1="60.51" x2="106.59" y2="97.19"/><line class="cls-24" x1="106.06" y1="98.24" x2="105.53" y2="99.29"/><line class="cls-24" x1="128.99" y1="57.37" x2="128.46" y2="58.41"/><line class="cls-28" x1="127.43" y1="60.44" x2="113.56" y2="87.79"/><line class="cls-24" x1="113.05" y1="88.8" x2="112.52" y2="89.85"/><line class="cls-24" x1="129.64" y1="60.51" x2="129.09" y2="61.55"/><line class="cls-34" x1="128.01" y1="63.58" x2="111.29" y2="94.99"/><line class="cls-24" x1="110.75" y1="96.01" x2="110.2" y2="97.04"/><line class="cls-24" x1="130.26" y1="63.44" x2="129.73" y2="64.49"/><line class="cls-28" x1="128.71" y1="66.52" x2="114.84" y2="93.86"/><line class="cls-24" x1="114.32" y1="94.88" x2="113.79" y2="95.92"/><line class="cls-24" x1="135.21" y1="58.24" x2="134.68" y2="59.29"/><line class="cls-28" x1="133.66" y1="61.31" x2="119.79" y2="88.66"/><line class="cls-24" x1="119.27" y1="89.68" x2="118.74" y2="90.72"/><line class="cls-24" x1="70.67" y1="56.9" x2="70.1" y2="57.92"/><line class="cls-35" x1="69.02" y1="59.88" x2="56.62" y2="82.4"/><line class="cls-24" x1="56.08" y1="83.38" x2="55.52" y2="84.4"/><line class="cls-24" x1="72.01" y1="50.36" x2="71.45" y2="51.39"/><line class="cls-35" x1="70.37" y1="53.34" x2="57.97" y2="75.86"/><line class="cls-24" x1="57.43" y1="76.84" x2="56.86" y2="77.87"/><line class="cls-24" x1="66.7" y1="54.71" x2="66.14" y2="55.74"/><line class="cls-35" x1="65.06" y1="57.7" x2="52.66" y2="80.21"/><line class="cls-24" x1="52.12" y1="81.19" x2="51.55" y2="82.22"/><line class="cls-24" x1="67.42" y1="47.83" x2="66.86" y2="48.86"/><line class="cls-35" x1="65.78" y1="50.81" x2="53.38" y2="73.33"/><line class="cls-24" x1="52.84" y1="74.31" x2="52.27" y2="75.34"/><line class="cls-24" x1="71.63" y1="59.83" x2="71.06" y2="60.85"/><line class="cls-36" x1="69.96" y1="62.86" x2="59.48" y2="81.88"/><line class="cls-24" x1="58.93" y1="82.88" x2="58.37" y2="83.91"/><line class="cls-24" x1="72.57" y1="62.68" x2="72.01" y2="63.71"/><line class="cls-37" x1="70.89" y1="65.73" x2="58.1" y2="88.96"/><line class="cls-24" x1="57.54" y1="89.97" x2="56.97" y2="91"/><line class="cls-24" x1="73.22" y1="65.82" x2="72.66" y2="66.85"/><line class="cls-36" x1="71.55" y1="68.85" x2="61.07" y2="87.88"/><line class="cls-24" x1="60.52" y1="88.88" x2="59.96" y2="89.91"/><line class="cls-24" x1="74.18" y1="68.75" x2="73.64" y2="69.79"/><line class="cls-38" x1="72.62" y1="71.73" x2="60.94" y2="93.96"/><line class="cls-24" x1="60.43" y1="94.93" x2="59.88" y2="95.97"/><line class="cls-24" x1="78.9" y1="63.88" x2="78.37" y2="64.93"/><line class="cls-39" x1="77.25" y1="67.13" x2="64.36" y2="92.45"/><line class="cls-24" x1="63.8" y1="93.55" x2="63.27" y2="94.6"/><line class="cls-24" x1="79.55" y1="67.03" x2="79.01" y2="68.07"/><line class="cls-40" x1="77.87" y1="70.27" x2="64.69" y2="95.6"/><line class="cls-24" x1="64.12" y1="96.7" x2="63.58" y2="97.74"/><line class="cls-24" x1="81.02" y1="68.23" x2="80.49" y2="69.27"/><line class="cls-41" x1="79.34" y1="71.51" x2="68.51" y2="92.76"/><line class="cls-24" x1="67.94" y1="93.88" x2="67.4" y2="94.93"/><line class="cls-24" x1="87.5" y1="60.52" x2="86.96" y2="61.56"/><line class="cls-42" x1="85.91" y1="63.54" x2="67.66" y2="98.34"/><line class="cls-24" x1="67.13" y1="99.33" x2="66.59" y2="100.37"/><line class="cls-24" x1="88.15" y1="63.66" x2="87.62" y2="64.71"/><line class="cls-43" x1="86.58" y1="66.73" x2="72.62" y2="94.04"/><line class="cls-24" x1="72.1" y1="95.05" x2="71.57" y2="96.1"/><line class="cls-24" x1="89.11" y1="66.6" x2="88.57" y2="67.64"/><line class="cls-44" x1="87.48" y1="69.74" x2="70.56" y2="102.34"/><line class="cls-24" x1="70.01" y1="103.4" x2="69.47" y2="104.44"/><path class="cls-45" d="M96.49,67.18c.51.47.92,1,1.43,1.47a11.25,11.25,0,0,0,3.16,2.08c.17.08.33.18.49.27,0,1,.19,2,.3,2.94.08.75.1.73.84.51,1.48-.44,3-.85,4.45-1.27.23-.07.42-.09.44.28.07.91.19,1.82.28,2.74.13,1.23.25,2.47.39,3.7.09.89.2,1.78.3,2.67a5.51,5.51,0,0,1,.07.71c0,.32.2.33.42.3,1.46-.18,2.91-.37,4.36-.58.87-.12.88-.14,1,.71.13,1.73.21,3.46.3,5.19,0,1.16.16,2.31.22,3.47.11,1.95.2,3.9.3,5.84.06,1.18.14,2.35.21,3.52.08,1.52.15,3,.23,4.56,0,.2.11.41,0,.68-.09-.3-.28-.51-.23-.81a13.3,13.3,0,0,0-.52-2.33c-.15-.57-.29-1.14-.4-1.72s-.32-1-.4-1.59a16.68,16.68,0,0,0-.42-1.69c-.13-.54-.25-1.08-.39-1.62s-.29-1.06-.42-1.6-.23-1.08-.36-1.61a15.24,15.24,0,0,1-.42-1.61c-.08-.56-.26-1.1-.38-1.65s-.3-1.2-.43-1.8c-.15-.78-.18-.78-1-.6-.43.1-.84.26-1.26.33a18.68,18.68,0,0,0-2.23.57c-.28.09-.44.08-.51-.23a3.59,3.59,0,0,1-.08-.35c-.12-.58-.18-1.17-.35-1.73-.24-.84-.35-1.71-.56-2.56s-.29-1.42-.43-2.13a4.08,4.08,0,0,1-.19-.84,4.9,4.9,0,0,0-.2-1.08c-.06-.42-.19-.84-.24-1.27,0-.23-.06-.48-.32-.53a1.92,1.92,0,0,0-.67,0l-3,.51a11.27,11.27,0,0,0-1.29.24c-.37.1-.47.06-.51-.34a1,1,0,0,0,0-.23c-.13-.66-.26-1.32-.37-2-.09-.5-.11-1-.22-1.48s-.21-1.22-.33-1.82-.17-1-.25-1.52c-.11-.66-.17-1.33-.32-2-.09-.39-.13-.79-.2-1.17A4,4,0,0,1,96.49,67.18Z"/><path class="cls-46" d="M96.49,67.18a4,4,0,0,0,.16,1.62c.07.38.11.78.2,1.17.15.65.21,1.32.32,2,.08.51.15,1,.25,1.52s.19,1.21.33,1.82.13,1,.22,1.48c.11.66.24,1.32.37,2a1,1,0,0,1,0,.23c0,.4.14.44.51.34a11.27,11.27,0,0,1,1.29-.24l3-.51a1.92,1.92,0,0,1,.67,0c.26,0,.3.3.32.53,0,.43.18.85.24,1.27a4.9,4.9,0,0,1,.2,1.08,4.08,4.08,0,0,0,.19.84c.14.71.26,1.43.43,2.13s.32,1.72.56,2.56c.17.56.23,1.15.35,1.73a3.59,3.59,0,0,0,.08.35c.07.31.23.32.51.23a18.68,18.68,0,0,1,2.23-.57c.42-.07.83-.23,1.26-.33.79-.18.82-.18,1,.6.13.6.3,1.2.43,1.8s.3,1.09.38,1.65a15.24,15.24,0,0,0,.42,1.61c.13.53.23,1.08.36,1.61s.29,1.07.42,1.6.26,1.08.39,1.62a16.68,16.68,0,0,1,.42,1.69c.08.55.3,1,.4,1.59s.25,1.15.4,1.72a13.3,13.3,0,0,1,.52,2.33,4,4,0,0,1-.52-1.28c-.72-2-1.41-4-2.1-6l-2-5.92c-.3-.88-.61-1.75-.92-2.63-.08-.25-.18-.29-.45-.19-1.44.56-2.9,1.09-4.35,1.64-.23.08-.26,0-.28-.2L104.09,88c-.21-1.25-.43-2.5-.64-3.74s-.38-2.2-.56-3.3c0-.26-.1-.35-.41-.21-1.77.85-3.56,1.66-5.33,2.51-.26.12-.28,0-.31-.18l-.75-3c-.29-1.2-.57-2.4-.87-3.61-.35-1.45-.7-2.91-1.06-4.37l-1-4.18c-.16-.67-.33-1.34-.49-2a14.17,14.17,0,0,0,2-.63c.48-.24.64,0,.84.35s.59,1,.9,1.45l.06.12Z"/><path class="cls-45" d="M116,65.88c.32.31.57.67.89,1a7.27,7.27,0,0,0,2,1.42,3.14,3.14,0,0,1,.31.18c0,.64.08,1.27.12,1.9s.05.48.53.35l2.9-.7c.15,0,.27-.05.28.18,0,.6.07,1.19.11,1.78,0,.8.1,1.6.16,2.39,0,.58.08,1.15.13,1.73a3.54,3.54,0,0,1,0,.46c0,.21.13.22.27.21.94-.09,1.88-.17,2.82-.27.56-.06.57-.07.59.48.05,1.11.06,2.23.07,3.35,0,.75,0,1.49.06,2.24,0,1.26,0,2.52,0,3.77,0,.76,0,1.52,0,2.28,0,1,0,2,0,2.94a.72.72,0,0,1,0,.43c0-.19-.17-.33-.13-.52a7.83,7.83,0,0,0-.28-1.52q-.12-.56-.21-1.11c0-.36-.18-.68-.22-1a10.76,10.76,0,0,0-.23-1.1c-.07-.35-.13-.7-.21-1s-.16-.69-.23-1-.12-.7-.2-1-.19-.69-.23-1a9.78,9.78,0,0,0-.2-1.08c-.07-.39-.17-.78-.23-1.17s-.1-.51-.61-.41c-.28.05-.55.14-.82.18a12.11,12.11,0,0,0-1.45.32c-.18.05-.29,0-.33-.16s0-.16,0-.23c-.06-.38-.09-.76-.18-1.13-.13-.55-.19-1.11-.3-1.66s-.15-.92-.22-1.38a2.13,2.13,0,0,1-.1-.55,3.4,3.4,0,0,0-.11-.7c0-.27-.1-.54-.12-.82s0-.32-.19-.35a1.31,1.31,0,0,0-.44,0l-2,.26a5.72,5.72,0,0,0-.83.12c-.25.06-.31,0-.32-.23a.8.8,0,0,0,0-.15c-.07-.43-.14-.86-.19-1.29s0-.64-.11-1-.1-.79-.17-1.18-.08-.65-.12-1-.08-.86-.16-1.29c0-.25-.06-.51-.09-.76A2.61,2.61,0,0,1,116,65.88Z"/><path class="cls-46" d="M116,65.88a2.61,2.61,0,0,0,.07,1c0,.25,0,.51.09.76.08.43.11.86.16,1.29s.07.66.12,1,.1.79.17,1.18.06.64.11,1,.12.86.19,1.29a.8.8,0,0,1,0,.15c0,.26.07.29.32.23a5.72,5.72,0,0,1,.83-.12l2-.26a1.31,1.31,0,0,1,.44,0c.16,0,.18.2.19.35s.09.55.12.82a3.4,3.4,0,0,1,.11.7,2.13,2.13,0,0,0,.1.55c.07.46.13.92.22,1.38s.17,1.11.3,1.66c.09.37.12.75.18,1.13,0,.07,0,.15,0,.23s.15.21.33.16a12.11,12.11,0,0,1,1.45-.32c.27,0,.54-.13.82-.18.51-.1.53-.09.61.41s.16.78.23,1.17a9.78,9.78,0,0,1,.2,1.08c0,.35.16.69.23,1s.13.7.2,1,.16.69.23,1,.14.7.21,1a10.76,10.76,0,0,1,.23,1.1c0,.36.17.68.22,1s.13.74.21,1.11a7.83,7.83,0,0,1,.28,1.52,2.81,2.81,0,0,1-.3-.84c-.42-1.31-.81-2.62-1.21-3.94s-.77-2.57-1.16-3.86c-.18-.57-.36-1.15-.53-1.72,0-.16-.11-.19-.29-.13-.94.33-1.89.63-2.84.94-.15,0-.16,0-.18-.13-.1-.77-.21-1.55-.31-2.32s-.22-1.62-.32-2.43-.19-1.42-.29-2.14c0-.17,0-.23-.25-.14l-3.5,1.48c-.17.08-.17,0-.19-.12-.14-.65-.28-1.29-.41-1.94s-.31-1.56-.47-2.34c-.19-1-.38-1.9-.58-2.84s-.37-1.82-.55-2.73l-.27-1.3a10,10,0,0,0,1.33-.36c.31-.14.41,0,.53.25s.36.64.54,1l0,.08Z"/><path class="cls-47" d="M139.82,48.78a11,11,0,0,0-.87-2,12,12,0,0,0-2.73-3.3,12.32,12.32,0,0,0-4.62-2.44,11.6,11.6,0,0,0-4.11-.34,7,7,0,0,0-1.22.15c-.71.2-1.41.42-2.11.64,0,0-2.53-2.65-2.54-2.65a11.31,11.31,0,0,0-3.06-2.69,11.66,11.66,0,0,0-5.13-1.71,12.1,12.1,0,0,0-6.27,1.1c-.2.09-.42.3-.6.28s-.22-.39-.32-.6a12.6,12.6,0,0,0-2.78-3.85,12,12,0,0,0-5.2-2.85,11.7,11.7,0,0,0-5.2-.14,12.08,12.08,0,0,0-3.75,1.38,11.61,11.61,0,0,0-4.46,4.55.32.32,0,0,1-.49.15,10.59,10.59,0,0,0-2.89-1,9.6,9.6,0,0,0-4.93.39,8,8,0,0,0-1.39.57c-4.72,1.69-5.45,7.74-5.45,7.74l.18,0s-.09.06-.18,0c-3.51-1.55-8.11-.37-10.91,2.06a11.2,11.2,0,0,0-3.14,12.14,11.35,11.35,0,0,0,5.13,5.92,11.13,11.13,0,0,0,3.88,1.3,9.73,9.73,0,0,0,2.09.08c.63-.06,1.42-.41,2,0a1.8,1.8,0,0,1,.45.54,11.81,11.81,0,0,0,13.21,5c.74-.2,1.89-1.06,2.6-1.06s1,.88,1.4,1.32a11.92,11.92,0,0,0,2.48,2.06,12.07,12.07,0,0,0,17-4.44.61.61,0,0,1,.3-.33c.23-.09,1,.71,1.23.86a13.06,13.06,0,0,0,2.44,1.25,12,12,0,0,0,14.07-4.3,5.3,5.3,0,0,1,.32-.43c.18-.2,1.66.24,1.89.28a12,12,0,0,0,2.61.19,12.41,12.41,0,0,0,5.21-1.33C138.59,60.94,142.65,54,139.82,48.78Zm-18.39-7.39c.07.12.14.24.2.36l-.06-.06C121.51,41.6,121.38,41.51,121.43,41.39Z"/><path class="cls-48" d="M73.45,61.27a9.62,9.62,0,0,0,4.13,1.06,9,9,0,0,0,2.08-.15c.18,0,1.36-.38,1.5-.22a2.74,2.74,0,0,1,.25.34,9.53,9.53,0,0,0,11.18,3.42,9.89,9.89,0,0,0,1.94-1c.17-.11.8-.75,1-.68s.18.16.24.27a9.59,9.59,0,0,0,13.47,3.52,9,9,0,0,0,2-1.64c.32-.34.57-1,1.12-1s1.48.69,2.06.85a9.39,9.39,0,0,0,10.5-4,1.26,1.26,0,0,1,.36-.43c.46-.33,1.09-.06,1.59,0a7.12,7.12,0,0,0,1.66-.06,8.83,8.83,0,0,0,3.08-1,9.06,9.06,0,0,0,4.08-4.7,8.9,8.9,0,0,0-2.5-9.65c-2.22-1.93-5.88-2.87-8.66-1.64-.08,0-.13,0-.15,0h.15s-.58-4.81-4.34-6.14a5.57,5.57,0,0,0-1.1-.46,7.67,7.67,0,0,0-3.92-.31,8.47,8.47,0,0,0-2.29.77.25.25,0,0,1-.39-.12,9.26,9.26,0,0,0-3.55-3.61,9.46,9.46,0,0,0-3-1.1,9.28,9.28,0,0,0-4.13.11,9.7,9.7,0,0,0-4.13,2.26A9.86,9.86,0,0,0,95.43,39c-.08.16-.05.44-.25.47s-.32-.15-.48-.22a9.61,9.61,0,0,0-5-.88,9.45,9.45,0,0,0-4.08,1.36,9.26,9.26,0,0,0-2.43,2.14s-2,2.11-2,2.11c-.55-.18-1.11-.36-1.67-.51a5.25,5.25,0,0,0-1-.12,9.21,9.21,0,0,0-3.27.27,9.77,9.77,0,0,0-3.67,1.94,9.43,9.43,0,0,0-2.17,2.62,9.28,9.28,0,0,0-.69,1.55C66.5,53.81,69.72,59.37,73.45,61.27Zm9.8-17.2,0,.06a2.69,2.69,0,0,1,.16-.29C83.4,43.93,83.3,44,83.25,44.07Z"/><path class="cls-10" d="M62.61,78.83A3.83,3.83,0,0,0,61.55,73c-3.52-2.35-8.6-.22-9.66,4a6.57,6.57,0,0,0,1.8,6.54c3.29,3.4,7.2,3.52,11.39,2.12A10.15,10.15,0,0,0,66.73,85c3.07-1.73,14-3,17.6-2.19-2.77-.81-13.1-.5-15.72.61a27.19,27.19,0,0,1-6.09,2.22c-4.08.66-7.87-.5-9.58-4.65a6,6,0,0,1,5.93-8.29C62.3,72.92,64,75.7,62.61,78.83Z"/><path class="cls-10" d="M69.16,78.35c1.59.38,2.5.06,3.17-1a2.89,2.89,0,0,0-.12-3.59A4.92,4.92,0,0,0,70,72.51a3.45,3.45,0,0,0-3.75,1.63,4.49,4.49,0,0,0-.29,4.92A3.47,3.47,0,0,0,69.54,81a7.93,7.93,0,0,0,1-.14c5.54-1.21,10.24-1.36,15.57.33-3-1.8-10.59-2.09-13.67-1.53-1,.18-2,.45-3,.56a2.66,2.66,0,0,1-2.84-1.63,3.75,3.75,0,0,1,.48-4.19,2.93,2.93,0,0,1,3.13-1.09,2.53,2.53,0,0,1,2.09,2.6C72.21,77.37,71.31,78.16,69.16,78.35Z"/><path class="cls-10" d="M71.87,87.61c1.62-.26,2.5.13,3.09,1.22a2.9,2.9,0,0,1-.39,3.57,5,5,0,0,1-2.34,1.1,3.46,3.46,0,0,1-3.62-1.91,4.49,4.49,0,0,1,.09-4.92,3.46,3.46,0,0,1,3.75-1.62c.31.06.63.12.94.21,5.43,1.63,10.11,2.13,15.55.84-3.11,1.58-10.71,1.3-13.74.5-1-.25-1.92-.59-2.91-.78a2.65,2.65,0,0,0-3,1.41,3.76,3.76,0,0,0,.16,4.22,2.93,2.93,0,0,0,3,1.32,2.52,2.52,0,0,0,2.27-2.43C74.84,88.82,74,88,71.87,87.61Z"/><path class="cls-10" d="M62.86,82.9a7.25,7.25,0,0,1-6.13-1.66,3.4,3.4,0,0,1,.34-5.57,8,8,0,0,1,1.72-.57,2.7,2.7,0,0,0-2.73.51,4,4,0,0,0,0,6.17,5.29,5.29,0,0,0,4.43,1.49C61.3,83.18,62.08,83,62.86,82.9Z"/><polygon class="cls-49" points="303.4 75.45 303.4 84.25 293.71 91.87 251.61 91.87 251.61 83.21 303.4 75.45"/><polygon class="cls-50" points="293.4 83.34 251.61 83.34 263.61 75.45 303.4 75.45 293.4 83.34"/><polygon class="cls-51" points="291.65 82.1 255.77 82.1 264.36 76.23 300.24 76.23 291.65 82.1"/><polyline class="cls-52" points="251.61 89.02 293.7 89.02 303.4 81.27"/><polyline class="cls-52" points="251.61 87.74 293.7 87.74 303.4 80"/><polyline class="cls-52" points="251.61 86.21 293.7 86.21 303.4 78.47"/><polyline class="cls-52" points="251.61 84.89 293.7 84.89 303.4 77.15"/><polyline class="cls-52" points="251.61 90.37 293.7 90.37 303.4 82.62"/><polygon class="cls-53" points="275.81 75.45 266.79 83.44 266.79 91.44 276.5 91.44 276.5 83.44 284.97 75.45 275.81 75.45"/><rect class="cls-54" x="266.79" y="83.44" width="9.72" height="8.42"/><path class="cls-55" d="M288.59,94a13.75,13.75,0,0,0-3.95-.52,14,14,0,0,0-4,.52h-1.79v1.24h0s0,.05,0,.08c0,1,2.58,1.84,5.77,1.84s5.72-.82,5.72-1.84V94Z"/><ellipse class="cls-56" cx="284.64" cy="94" rx="5.77" ry="1.84"/><path class="cls-55" d="M301.74,93.68a14,14,0,0,0-3.95-.51,14.35,14.35,0,0,0-4,.51H292v1.25h0s0,0,0,.08c0,1,2.58,1.84,5.76,1.84s5.72-.82,5.72-1.84V93.68Z"/><ellipse class="cls-56" cx="297.79" cy="93.68" rx="5.77" ry="1.84"/><path class="cls-55" d="M303,91.55a13.73,13.73,0,0,0-3.95-.51,13.93,13.93,0,0,0-4,.51h-1.8v1.24h0s0,.06,0,.08c0,1,2.59,1.84,5.77,1.84s5.72-.82,5.72-1.84V91.55Z"/><ellipse class="cls-56" cx="299.07" cy="91.55" rx="5.77" ry="1.84"/><path class="cls-55" d="M288,91.49A14,14,0,0,0,284,91a14.3,14.3,0,0,0-4,.51h-1.8v1.25h0s0,.05,0,.08c0,1,2.59,1.84,5.77,1.84s5.72-.82,5.72-1.84V91.49Z"/><ellipse class="cls-56" cx="284.01" cy="91.49" rx="5.77" ry="1.84"/><path class="cls-55" d="M289.69,89.8a13.78,13.78,0,0,0-3.95-.51,14,14,0,0,0-4,.51H280V91h0s0,.06,0,.09c0,1,2.58,1.83,5.77,1.83s5.72-.82,5.72-1.83V89.8Z"/><ellipse class="cls-56" cx="285.74" cy="89.8" rx="5.77" ry="1.84"/><path class="cls-55" d="M289,87.3a13.73,13.73,0,0,0-4-.51,13.93,13.93,0,0,0-4,.51h-1.8v1.24h0a.32.32,0,0,0,0,.09c0,1,2.58,1.83,5.77,1.83s5.72-.82,5.72-1.83V87.3Z"/><ellipse class="cls-56" cx="285.02" cy="87.3" rx="5.77" ry="1.84"/></svg>