<?xml version="1.0" encoding="utf-8"?>
<!-- Generator: Adobe Illustrator 25.2.1, SVG Export Plug-In . SVG Version: 6.00 Build 0)  -->
<svg version="1.1" id="Layer_1" xmlns="http://www.w3.org/2000/svg" xmlns:xlink="http://www.w3.org/1999/xlink" x="0px" y="0px"
	 viewBox="0 0 496.1 275.1" style="enable-background:new 0 0 496.1 275.1;" xml:space="preserve">
<style type="text/css">
	.st0{opacity:0.15;fill:#0D4060;enable-background:new    ;}
	.st1{fill:#A0CAEB;}
	.st2{fill:#F9AC1B;}
	.st3{fill:#E49425;}
	.st4{fill:#049FCB;}
	.st5{fill:#FFFFFF;}
	.st6{fill:none;stroke:#0B4060;stroke-width:2.2961;stroke-linecap:round;stroke-miterlimit:10;}
	.st7{fill:#0B4060;}
	.st8{fill:none;stroke:#221F1F;stroke-width:1.3776;stroke-linecap:round;stroke-miterlimit:10;}
	.st9{fill:#4F4A47;}
	.st10{fill:none;stroke:#009ECA;stroke-width:5.3395;stroke-linecap:round;stroke-miterlimit:10;}
	.st11{fill:#5753A2;}
	.st12{fill:#009ECA;}
	.st13{fill:#56C3CE;}
	.st14{fill:#0A4060;}
	.st15{fill:none;stroke:#0A4060;stroke-width:2.4556;stroke-linecap:round;stroke-miterlimit:10;}
	.st16{fill:none;stroke:#1689B0;stroke-width:4.6337;stroke-linecap:round;stroke-miterlimit:10;}
	.st17{fill:none;stroke:#1089B1;stroke-width:6.8412;stroke-linecap:round;stroke-miterlimit:10;}
</style>
<ellipse class="st0" cx="249" cy="265.3" rx="129.7" ry="7.9"/>
<path class="st1" d="M247.7,115.4c1.5,1.8,1.8,4.6,0.5,7c-1.7,3.1-5.3,4.4-8,2.9l-6.8-3.7c0,0-0.1-0.1-0.1-0.1c0,0-0.1,0-0.1,0
	l-9.2-5c-0.7-0.4-1-1.4-0.5-2.2c0.4-0.8,1.4-1.1,2.1-0.8l5,2.7c0-0.5,0.1-1,0.2-1.4l-6-3.2c-0.7-0.4-1-1.4-0.5-2.2
	c0.4-0.8,1.4-1.1,2.1-0.8l6,3.2c0.3-0.3,0.6-0.6,1-0.9l-5.2-2.8c-0.7-0.4-1-1.4-0.5-2.2c0.4-0.8,1.4-1.1,2.1-0.8l8.6,4.6
	c0.3,0.1,0.6,0.2,0.9,0.3l-1.3-1.4c-0.6-0.6-0.5-1.6,0.1-2.3l0,0c0.6-0.7,1.6-0.7,2.2-0.1"/>
<polyline class="st2" points="214.7,264.4 206.4,264.4 206.4,229 140.4,229 140.4,264.4 132,264.4 132,225.7 132.1,225.7 
	132.1,218.2 214.7,218.2 214.7,225.8 "/>
<path class="st3" d="M131.4,201.4h84.4c3.2,0,5.8,2.6,5.8,5.8v7.6c0,3.2-2.6,5.8-5.8,5.8h-84.4c-3.2,0-5.8-2.6-5.8-5.8v-7.5
	C125.7,204,128.3,201.4,131.4,201.4z"/>
<polyline class="st2" points="362.9,264.3 354.6,264.3 354.6,229 288.7,229 288.7,264.3 280.3,264.3 280.3,225.7 280.4,225.7 
	280.4,218.1 362.9,218.1 362.9,225.8 "/>
<path class="st3" d="M279.7,201.3h84.4c3.2,0,5.8,2.6,5.8,5.8v7.6c0,3.2-2.6,5.8-5.8,5.8h-84.4c-3.2,0-5.8-2.6-5.8-5.8v-7.5
	C273.9,204,276.5,201.3,279.7,201.3z"/>
<path class="st4" d="M312.9,211.9l31-4.3c21.1-2.9,35.9-22.4,33-43.5l-18-130.2c-2.9-21.1-22.4-35.9-43.5-33l-31,4.3
	c-21.1,2.9-35.9,22.4-33,43.5l18,130.2C272.3,200,291.8,214.8,312.9,211.9z"/>
<path class="st5" d="M313.7,56.6c-0.8-5.9-6.2-10-12.1-9.2c-5.9,0.8-10,6.2-9.2,12.1"/>
<path class="st5" d="M275.9,61.8c-0.8-5.9-6.2-10-12.1-9.2c-5.9,0.8-10,6.2-9.2,12.1"/>
<line class="st6" x1="309.8" y1="40.1" x2="289.3" y2="41"/>
<line class="st6" x1="252.9" y1="48.2" x2="270.1" y2="43.6"/>
<path class="st7" d="M304.3,57.9c-0.4-2.5-2.7-4.3-5.2-4c-2.5,0.4-4.3,2.7-4,5.2"/>
<path class="st7" d="M266.5,63.1c-0.4-2.5-2.7-4.3-5.2-4c-2.5,0.4-4.3,2.7-4,5.2"/>
<ellipse transform="matrix(0.992 -0.1266 0.1266 0.992 -4.5285 38.9214)" class="st8" cx="303.9" cy="55.1" rx="14.6" ry="9.9"/>
<ellipse transform="matrix(0.992 -0.1266 0.1266 0.992 -5.4959 33.9442)" class="st8" cx="264.2" cy="60.2" rx="14.6" ry="9.9"/>
<path class="st8" d="M289.5,57.9c0,0-6.8-6.7-10.9,1.5"/>
<path class="st9" d="M263.9,232.5"/>
<polyline class="st4" points="335.1,201.3 313.4,260.8 306,259 312.8,203.6 "/>
<polyline class="st4" points="304.4,202.6 285.3,255.2 277.9,253.4 284.6,198 "/>
<path class="st7" d="M278.1,71.3c-2.3,0.6-3,3.1-1.1,4.1c2.3,1.2,6,2.1,11.3,0.7c5.3-1.4,8-3.7,9.3-5.7c1.1-1.8-0.6-3.7-2.9-3.1
	L278.1,71.3z"/>
<path class="st10" d="M195,209.7"/>
<polygon class="st11" points="304.9,265.2 311.3,266.7 319.7,243.8 308.3,241.1 "/>
<path class="st9" d="M289.6,261.7c1.4-6.1,7.5-9.9,13.6-8.5c6.1,1.4,9.9,7.5,8.5,13.6"/>
<polygon class="st11" points="276.3,260.8 282.7,262.3 291.1,239.4 280,236.7 "/>
<path class="st9" d="M261.8,257.6c1.4-6.1,7.4-9.9,13.5-8.6c6.1,1.4,9.9,7.4,8.6,13.5"/>
<polyline class="st12" points="188.2,202.1 208.2,250.2 203.8,252.5 166.1,203.2 "/>
<polygon class="st13" points="207.2,258.1 211.3,255.9 199.7,229.9 190.8,235.5 "/>
<path class="st9" d="M221.4,250.7c-2.6-3.8-7.8-4.7-11.5-2.1c-3.8,2.6-4.7,7.8-2.1,11.5"/>
<polyline class="st12" points="206.5,191 226.5,239 222.1,241.4 184.4,192.1 "/>
<polygon class="st13" points="225.5,247 229.6,244.8 218,218.7 209.1,224.3 "/>
<path class="st9" d="M239.8,239.6c-2.2-4-7.2-5.5-11.2-3.4c-4,2.2-5.5,7.2-3.4,11.2"/>
<path class="st4" d="M116.5,116c-1.2,28.2,12.7,56.2,31.5,76.5c48.4,52.5,107.7-17.7,110.1-72.7c1.8-40.6-32.6-52-67.4-53.5
	C155.9,64.8,118.2,75.4,116.5,116z"/>
<path class="st14" d="M217.9,124.6c-2.7-0.2-4.3,2-2.7,3.7c1.6,1.7,4.4,3.3,9.2,3.7c4.7,0.4,7.7-0.7,9.5-2c1.9-1.4,0.7-3.9-2-4.1
	L217.9,124.6z"/>
<path class="st5" d="M252,118.2c0-6-4.8-10.8-10.8-10.8c-6,0-10.8,4.8-10.8,10.8"/>
<path class="st5" d="M219,118.2c0-6-4.8-10.8-10.8-10.8s-10.8,4.8-10.8,10.8"/>
<line class="st15" x1="252.6" y1="108.9" x2="239.1" y2="98.6"/>
<line class="st15" x1="192.8" y1="109.1" x2="208.6" y2="97.2"/>
<path class="st14" d="M208.3,107.4c-0.4,0-0.7,0-1,0.1c-0.3,3.1,1.4,6.3,4.4,7.5c2.3,1,4.8,0.7,6.7-0.6
	C216.9,110.3,213,107.4,208.3,107.4z"/>
<path class="st14" d="M241.3,107.4c-0.4,0-0.7,0-1,0.1c-0.3,3.1,1.4,6.3,4.4,7.5c2.3,1,4.8,0.7,6.7-0.6
	C249.9,110.3,246,107.4,241.3,107.4z"/>
<path class="st16" d="M192.2,153.8c0,0,13.5,29.5,44.4,18"/>
<path class="st1" d="M233.4,166.4c-1.7,1.1-2.7,3.5-2.2,6.2c0.6,3.4,3.3,6,6,5.7l6.7-0.7c0,0,0.1,0,0.1,0c0,0,0,0,0.1,0l9-1
	c0.7-0.1,1.2-0.9,1-1.8c-0.2-0.9-0.9-1.6-1.6-1.5l-4.9,0.5c0.1-0.4,0.2-0.9,0.2-1.4l5.9-0.6c0.7-0.1,1.2-0.9,1-1.8
	c-0.2-0.9-0.9-1.6-1.6-1.5l-5.9,0.6c-0.2-0.4-0.4-0.8-0.6-1.2l5.1-0.5c0.7-0.1,1.2-0.9,1-1.8c-0.2-0.9-0.9-1.6-1.6-1.5l-8.4,0.9
	c-0.3,0-0.6,0-0.8,0l1.5-0.8c0.6-0.3,0.8-1.3,0.5-2.1v0c-0.4-0.8-1.2-1.3-1.8-0.9"/>
<path class="st17" d="M321.8,123.4c0,0-1.3,27.1-12.8,35.3c-11.5,8.2-37.5,11.1-37.5,11.1"/>
<path class="st1" d="M273.2,163.2c2.4,0.4,4.5,2.5,5,5.2c0.7,3.5-1.3,6.9-4.5,7.5l-7.8,1.5c-0.1,0-0.1,0-0.2,0c0,0-0.1,0-0.1,0
	l-10.5,2.1c-0.8,0.2-1.7-0.5-1.8-1.4s0.3-1.8,1.2-2l5.7-1.1c-0.3-0.4-0.6-0.8-0.8-1.3l-6.9,1.4c-0.8,0.2-1.7-0.5-1.8-1.4
	c-0.2-0.9,0.3-1.8,1.2-2l6.9-1.4c0-0.5,0.1-0.9,0.2-1.3l-5.9,1.2c-0.8,0.2-1.7-0.5-1.8-1.4c-0.2-0.9,0.3-1.8,1.2-2l9.9-2
	c0.3-0.1,0.6-0.2,0.9-0.3l-2-0.3c-0.8-0.1-1.5-1-1.4-1.9v0c0.1-0.9,0.8-1.6,1.7-1.5"/>
</svg>
